<svg xmlns="http://www.w3.org/2000/svg" width="504" height="288"><path fill="none" stroke="#0060B6" stroke-width="2" d="M432 144H288M288.002 144l-108 107.999-107.998-108L180.003 36.002z"/><circle fill="red" stroke="#000" cx="72" cy="144" r="6"/><circle fill="red" stroke="#000" cx="180" cy="36" r="6"/><circle fill="red" stroke="#000" cx="180" cy="252" r="6"/><circle fill="red" stroke="#000" cx="288" cy="144" r="6"/><circle fill="red" stroke="#000" cx="432" cy="144" r="6"/><text transform="translate(9 150)" font-family="Times,serif" font-style="italic" font-size="24">start</text><text transform="translate(450 150)" font-family="Times,serif" font-style="italic" font-size="24">goal</text><text transform="translate(108 90)" font-family="Times,serif" font-size="24">2</text><text transform="translate(234 81)" font-family="Times,serif" font-size="24">2</text><text transform="translate(108 216)" font-family="Times,serif" font-size="24">3</text><text transform="translate(234 216)" font-family="Times,serif" font-size="24">3</text><text transform="translate(342 135)" font-family="Times,serif" font-size="24">4</text><text transform="matrix(1.1781 0 0 1 158.117 22)"><tspan x="0" y="0" fill="#006B33" font-family="Times,serif" font-style="italic" font-size="18">ƒ</tspan><tspan x="9" y="0" fill="#006B33" font-family="Times,serif" font-size="18"> = 5</tspan></text><text transform="matrix(1.1781 0 0 1 158.117 277)"><tspan x="0" y="0" fill="#006B33" font-family="Times,serif" font-style="italic" font-size="18">ƒ</tspan><tspan x="9" y="0" fill="#006B33" font-family="Times,serif" font-size="18"> = 0</tspan></text><text transform="matrix(1.1781 0 0 1 279.117 169)"><tspan x="0" y="0" fill="#006B33" font-family="Times,serif" font-style="italic" font-size="18">ƒ</tspan><tspan x="8.999" y="0" fill="#006B33" font-family="Times,serif" font-size="18"> = 0</tspan></text><text transform="matrix(1.1781 0 0 1 398.117 169)"><tspan x="0" y="0" fill="#006B33" font-family="Times,serif" font-style="italic" font-size="18">ƒ</tspan><tspan x="8.999" y="0" fill="#006B33" font-family="Times,serif" font-size="18"> = 0</tspan></text><text transform="matrix(1.1781 0 0 1 32.117 169)"><tspan x="0" y="0" fill="#006B33" font-family="Times,serif" font-style="italic" font-size="18">ƒ</tspan><tspan x="9" y="0" fill="#006B33" font-family="Times,serif" font-size="18"> = 0</tspan></text></svg>