<svg xmlns="http://www.w3.org/2000/svg" width="468" height="279"><path fill="none" stroke="#0060B6" stroke-width="2" d="M288 63H180L72 135l108 72h108m108-36l-108 36 108 36m0-216L288 63l108 36"/><circle fill="red" stroke="#000" cx="72" cy="135" r="6"/><circle fill="red" stroke="#000" cx="288" cy="63" r="6"/><circle fill="red" stroke="#000" cx="396" cy="27" r="6"/><circle fill="red" stroke="#000" cx="396" cy="99" r="6"/><circle fill="red" stroke="#000" cx="288" cy="207" r="6"/><circle fill="red" stroke="#000" cx="180" cy="63" r="6"/><circle fill="red" stroke="#000" cx="180" cy="207" r="6"/><circle fill="red" stroke="#000" cx="396" cy="171" r="6"/><circle fill="red" stroke="#000" cx="396" cy="243" r="6"/><text transform="translate(108 90)" font-family="Times,serif" font-size="24">2</text><text transform="translate(234 54)" font-family="Times,serif" font-size="24">2</text><text transform="translate(333 36)" font-family="Times,serif" font-size="24">4</text><text transform="translate(351 81)" font-family="Times,serif" font-size="24">3</text><text transform="translate(333 180)" font-family="Times,serif" font-size="24">4</text><text transform="translate(351 225)" font-family="Times,serif" font-size="24">2</text><text transform="translate(117 198)" font-family="Times,serif" font-size="24">3</text><text transform="translate(234 198)" font-family="Times,serif" font-size="24">3</text><text transform="translate(9 144)" font-family="Times,serif" font-style="italic" font-size="24">start</text><text transform="translate(414 27)" font-family="Times,serif" font-style="italic" font-size="24">goal</text><text transform="translate(414 171)" font-family="Times,serif" font-style="italic" font-size="24">goal</text><text transform="translate(45 162)"><tspan x="0" y="0" fill="#006B33" font-family="Times,serif" font-style="italic" font-size="18">ƒ</tspan><tspan x="9" y="0" fill="#006B33" font-family="Times,serif" font-size="18"> = 0</tspan></text><text transform="translate(162 234)"><tspan x="0" y="0" fill="#006B33" font-family="Times,serif" font-style="italic" font-size="18">ƒ</tspan><tspan x="9" y="0" fill="#006B33" font-family="Times,serif" font-size="18"> = 0</tspan></text><text transform="translate(270 234)"><tspan x="0" y="0" fill="#006B33" font-family="Times,serif" font-style="italic" font-size="18">ƒ</tspan><tspan x="9" y="0" fill="#006B33" font-family="Times,serif" font-size="18"> = 0</tspan></text><text transform="translate(378 198)"><tspan x="0" y="0" fill="#006B33" font-family="Times,serif" font-style="italic" font-size="18">ƒ</tspan><tspan x="9" y="0" fill="#006B33" font-family="Times,serif" font-size="18"> = 0</tspan></text><text transform="translate(378 126)"><tspan x="0" y="0" fill="#006B33" font-family="Times,serif" font-style="italic" font-size="18">ƒ</tspan><tspan x="9" y="0" fill="#006B33" font-family="Times,serif" font-size="18"> = 0</tspan></text><text transform="translate(378 54)"><tspan x="0" y="0" fill="#006B33" font-family="Times,serif" font-style="italic" font-size="18">ƒ</tspan><tspan x="9" y="0" fill="#006B33" font-family="Times,serif" font-size="18"> = 0</tspan></text><text transform="translate(270 90)"><tspan x="0" y="0" fill="#006B33" font-family="Times,serif" font-style="italic" font-size="18">ƒ</tspan><tspan x="9" y="0" fill="#006B33" font-family="Times,serif" font-size="18"> = 0</tspan></text><text transform="translate(171 90)"><tspan x="0" y="0" fill="#006B33" font-family="Times,serif" font-style="italic" font-size="18">ƒ</tspan><tspan x="9" y="0" fill="#006B33" font-family="Times,serif" font-size="18"> = 5</tspan></text><text transform="translate(378 270)"><tspan x="0" y="0" fill="#006B33" font-family="Times,serif" font-style="italic" font-size="18">ƒ</tspan><tspan x="9" y="0" fill="#006B33" font-family="Times,serif" font-size="18"> = 5</tspan></text></svg>