<?xml version="1.0" encoding="iso-8859-1"?>
<!DOCTYPE svg PUBLIC "-//W3C//DTD SVG 1.1//EN"
 "http://www.w3.org/Graphics/SVG/1.1/DTD/svg11.dtd">
<svg xmlns="http://www.w3.org/2000/svg" version="1.1" width="807pt" height="756pt" viewBox="0 0 807 756">
  <polyline fill="none" stroke="black" points="
45,276 48,276 48,279 45,279 45,282 48,282 48,285 51,285 51,282 54,282 54,279 57,279 57,282 60,282 60,279 63,279 63,276 60,276 60,273 57,273 57,270 54,270 54,267 57,267 57,264 60,264 60,267 63,267 63,264 66,264 66,261 69,261 69,264 72,264 72,267 69,267 69,270 72,270 72,273 69,273 69,276 72,276 72,279 75,279 75,276 78,276 78,273 81,273 81,270 84,270 84,273 87,273 87,276 84,276 84,279 87,279 87,282 90,282 90,285 87,285 87,288 84,288 84,285 81,285 81,288 78,288 78,285 75,285 75,288 72,288 72,291 75,291 75,294 78,294 78,297 81,297 81,300 78,300 78,303 75,303 75,300 72,300 72,303 69,303 69,300 66,300 66,303 63,303 63,306 66,306 66,309 69,309 69,312 66,312 66,315 69,315 69,318 72,318 72,315 75,315 75,312 78,312 78,309 81,309 81,312 84,312 84,315 81,315 81,318 84,318 84,321 87,321 87,324 84,324 84,327 81,327 81,324 78,324 78,327 75,327 75,324 72,324 72,327 69,327 69,330 72,330 72,333 75,333 75,336 78,336 78,339 75,339 75,342 72,342 72,339 69,339 69,342 66,342 66,345 63,345 63,342 60,342 60,339 63,339 63,336 60,336 60,333 63,333 63,330 60,330 60,327 57,327 57,330 54,330 54,333 51,333 51,336 48,336 48,333 45,333 45,330 48,330 48,327 45,327 45,324 48,324 48,321 45,321 45,318 42,318 42,321 39,321 39,324 36,324 36,327 33,327 33,324 30,324 30,321 33,321 33,318 30,318 30,315 33,315 33,312 30,312 30,309 27,309 27,312 24,312 24,315 21,315 21,312 18,312 18,315 15,315 15,318 18,318 18,321 21,321 21,324 24,324 24,327 21,327 21,330 18,330 18,327 15,327 15,330 12,330 12,327 9,327 9,330 6,330 6,333 9,333 9,336 12,336 12,339 9,339 9,342 12,342 12,345 15,345 15,342 18,342 18,339 21,339 21,336 24,336 24,339 27,339 27,342 24,342 24,345 27,345 27,348 30,348 30,351 27,351 27,354 24,354 24,351 21,351 21,354 18,354 18,351 15,351 15,354 12,354 12,357 15,357 15,360 18,360 18,363 21,363 21,366 18,366 18,369 15,369 15,366 12,366 12,369 9,369 9,366 6,366 6,369 3,369 3,372 6,372 6,375 9,375 9,378 6,378 6,381 9,381 9,384 12,384 12,381 15,381 15,378 18,378 18,375 21,375 21,378 24,378 24,381 21,381 21,384 24,384 24,387 21,387 21,390 24,390 24,393 27,393 27,390 30,390 30,387 33,387 33,390 36,390 36,387 39,387 39,384 36,384 36,381 33,381 33,378 30,378 30,375 33,375 33,372 36,372 36,375 39,375 39,372 42,372 42,369 45,369 45,372 48,372 48,375 45,375 45,378 48,378 48,381 45,381 45,384 48,384 48,387 51,387 51,384 54,384 54,381 57,381 57,384 60,384 60,381 63,381 63,378 60,378 60,375 57,375 57,372 54,372 54,369 57,369 57,366 60,366 60,369 63,369 63,366 66,366 66,363 69,363 69,366 72,366 72,369 69,369 69,372 72,372 72,375 69,375 69,378 72,378 72,381 75,381 75,378 78,378 78,375 81,375 81,372 84,372 84,375 87,375 87,378 84,378 84,381 87,381 87,384 90,384 90,387 87,387 87,390 84,390 84,387 81,387 81,390 78,390 78,387 75,387 75,390 72,390 72,393 75,393 75,396 78,396 78,399 81,399 81,402 78,402 78,405 75,405 75,402 72,402 72,405 69,405 69,402 66,402 66,405 63,405 63,408 66,408 66,411 69,411 69,414 72,414 72,417 69,417 69,420 66,420 66,417 63,417 63,420 60,420 60,417 57,417 57,420 54,420 54,423 57,423 57,426 60,426 60,429 57,429 57,432 60,432 60,435 63,435 63,432 66,432 66,429 69,429 69,426 72,426 72,429 75,429 75,432 72,432 72,435 75,435 75,438 72,438 72,441 75,441 75,444 78,444 78,441 81,441 81,438 84,438 84,441 87,441 87,438 90,438 90,435 87,435 87,432 84,432 84,429 81,429 81,426 84,426 84,423 87,423 87,426 90,426 90,423 93,423 93,420 96,420 96,423 99,423 99,426 96,426 96,429 99,429 99,432 96,432 96,435 99,435 99,438 102,438 102,435 105,435 105,432 108,432 108,429 111,429 111,432 114,432 114,435 111,435 111,438 114,438 114,441 111,441 111,444 114,444 114,447 117,447 117,444 120,444 120,441 123,441 123,444 126,444 126,441 129,441 129,438 126,438 126,435 123,435 123,432 120,432 120,429 123,429 123,426 126,426 126,429 129,429 129,426 132,426 132,429 135,429 135,426 138,426 138,423 135,423 135,420 132,420 132,417 135,417 135,414 132,414 132,411 129,411 129,414 126,414 126,417 123,417 123,420 120,420 120,417 117,417 117,414 120,414 120,411 117,411 117,408 114,408 114,405 117,405 117,402 120,402 120,405 123,405 123,402 126,402 126,405 129,405 129,402 132,402 132,399 129,399 129,396 126,396 126,393 129,393 129,390 126,390 126,387 123,387 123,390 120,390 120,393 117,393 117,396 114,396 114,393 111,393 111,390 114,390 114,387 111,387 111,384 108,384 108,381 111,381 111,378 114,378 114,381 117,381 117,378 120,378 120,381 123,381 123,378 126,378 126,375 123,375 123,372 120,372 120,369 117,369 117,366 120,366 120,363 123,363 123,366 126,366 126,363 129,363 129,360 132,360 132,363 135,363 135,366 132,366 132,369 135,369 135,372 132,372 132,375 135,375 135,378 138,378 138,375 141,375 141,372 144,372 144,369 147,369 147,372 150,372 150,375 147,375 147,378 150,378 150,381 147,381 147,384 150,384 150,387 153,387 153,384 156,384 156,381 159,381 159,378 162,378 162,381 165,381 165,384 162,384 162,387 165,387 165,390 162,390 162,393 165,393 165,396 168,396 168,393 171,393 171,390 174,390 174,393 177,393 177,390 180,390 180,387 177,387 177,384 174,384 174,381 171,381 171,378 174,378 174,375 177,375 177,378 180,378 180,375 183,375 183,378 186,378 186,375 189,375 189,372 186,372 186,369 183,369 183,366 186,366 186,363 183,363 183,360 180,360 180,363 177,363 177,366 174,366 174,369 171,369 171,366 168,366 168,363 171,363 171,360 168,360 168,357 165,357 165,354 168,354 168,351 171,351 171,354 174,354 174,351 177,351 177,354 180,354 180,351 183,351 183,348 180,348 180,345 177,345 177,342 180,342 180,339 177,339 177,336 174,336 174,339 171,339 171,342 168,342 168,345 165,345 165,342 162,342 162,339 165,339 165,336 162,336 162,333 159,333 159,330 162,330 162,327 165,327 165,330 168,330 168,327 171,327 171,330 174,330 174,327 177,327 177,324 174,324 174,321 171,321 171,318 168,318 168,315 171,315 171,312 174,312 174,315 177,315 177,312 180,312 180,309 183,309 183,312 186,312 186,315 183,315 183,318 186,318 186,321 183,321 183,324 186,324 186,327 189,327 189,324 192,324 192,321 195,321 195,318 198,318 198,321 201,321 201,324 198,324 198,327 201,327 201,330 198,330 198,333 201,333 201,336 204,336 204,333 207,333 207,330 210,330 210,333 213,333 213,330 216,330 216,327 213,327 213,324 210,324 210,321 207,321 207,318 210,318 210,315 213,315 213,318 216,318 216,315 219,315 219,312 222,312 222,315 225,315 225,318 222,318 222,321 225,321 225,324 222,324 222,327 225,327 225,330 228,330 228,327 231,327 231,324 234,324 234,321 237,321 237,324 240,324 240,327 237,327 237,330 240,330 240,333 243,333 243,336 240,336 240,339 237,339 237,336 234,336 234,339 231,339 231,336 228,336 228,339 225,339 225,342 228,342 228,345 231,345 231,348 234,348 234,351 231,351 231,354 228,354 228,351 225,351 225,354 222,354 222,351 219,351 219,354 216,354 216,357 219,357 219,360 222,360 222,363 225,363 225,366 222,366 222,369 219,369 219,366 216,366 216,369 213,369 213,366 210,366 210,369 207,369 207,372 210,372 210,375 213,375 213,378 210,378 210,381 213,381 213,384 216,384 216,381 219,381 219,378 222,378 222,375 225,375 225,378 228,378 228,381 225,381 225,384 228,384 228,387 225,387 225,390 228,390 228,393 231,393 231,390 234,390 234,387 237,387 237,390 240,390 240,387 243,387 243,384 240,384 240,381 237,381 237,378 234,378 234,375 237,375 237,372 240,372 240,375 243,375 243,372 246,372 246,369 249,369 249,372 252,372 252,375 249,375 249,378 252,378 252,381 249,381 249,384 252,384 252,387 255,387 255,384 258,384 258,381 261,381 261,378 264,378 264,381 267,381 267,384 264,384 264,387 267,387 267,390 264,390 264,393 267,393 267,396 270,396 270,393 273,393 273,390 276,390 276,393 279,393 279,390 282,390 282,387 279,387 279,384 276,384 276,381 273,381 273,378 276,378 276,375 279,375 279,378 282,378 282,375 285,375 285,378 288,378 288,375 291,375 291,372 288,372 288,369 285,369 285,366 288,366 288,363 285,363 285,360 282,360 282,363 279,363 279,366 276,366 276,369 273,369 273,366 270,366 270,363 273,363 273,360 270,360 270,357 267,357 267,354 270,354 270,351 273,351 273,354 276,354 276,351 279,351 279,354 282,354 282,351 285,351 285,348 282,348 282,345 279,345 279,342 282,342 282,339 279,339 279,336 276,336 276,339 273,339 273,342 270,342 270,345 267,345 267,342 264,342 264,339 267,339 267,336 264,336 264,333 261,333 261,330 264,330 264,327 267,327 267,330 270,330 270,327 273,327 273,330 276,330 276,327 279,327 279,324 276,324 276,321 273,321 273,318 270,318 270,315 273,315 273,312 276,312 276,315 279,315 279,312 282,312 282,309 285,309 285,312 288,312 288,315 285,315 285,318 288,318 288,321 285,321 285,324 288,324 288,327 291,327 291,324 294,324 294,321 297,321 297,318 300,318 300,321 303,321 303,324 300,324 300,327 303,327 303,330 300,330 300,333 303,333 303,336 306,336 306,333 309,333 309,330 312,330 312,327 315,327 315,330 318,330 318,333 315,333 315,336 318,336 318,339 315,339 315,342 318,342 318,345 321,345 321,342 324,342 324,339 327,339 327,342 330,342 330,339 333,339 333,336 330,336 330,333 327,333 327,330 324,330 324,327 327,327 327,324 330,324 330,327 333,327 333,324 336,324 336,327 339,327 339,324 342,324 342,321 339,321 339,318 336,318 336,315 339,315 339,312 336,312 336,309 333,309 333,312 330,312 330,315 327,315 327,318 324,318 324,315 321,315 321,312 324,312 324,309 321,309 321,306 318,306 318,303 321,303 321,300 324,300 324,303 327,303 327,300 330,300 330,303 333,303 333,300 336,300 336,297 333,297 333,294 330,294 330,291 327,291 327,288 330,288 330,285 333,285 333,288 336,288 336,285 339,285 339,288 342,288 342,285 345,285 345,282 342,282 342,279 339,279 339,276 342,276 342,273 339,273 339,270 336,270 336,273 333,273 333,276 330,276 330,279 327,279 327,276 324,276 324,273 327,273 327,270 324,270 324,267 327,267 327,264 324,264 324,261 321,261 321,264 318,264 318,267 315,267 315,264 312,264 312,267 309,267 309,270 312,270 312,273 315,273 315,276 318,276 318,279 315,279 315,282 312,282 312,279 309,279 309,282 306,282 306,285 303,285 303,282 300,282 300,279 303,279 303,276 300,276 300,273 303,273 303,270 300,270 300,267 297,267 297,270 294,270 294,273 291,273 291,270 288,270 288,273 285,273 285,276 288,276 288,279 291,279 291,282 294,282 294,285 291,285 291,288 288,288 288,285 285,285 285,288 282,288 282,291 279,291 279,288 276,288 276,285 279,285 279,282 276,282 276,279 279,279 279,276 276,276 276,273 273,273 273,276 270,276 270,279 267,279 267,282 264,282 264,279 261,279 261,276 264,276 264,273 261,273 261,270 258,270 258,267 261,267 261,264 264,264 264,267 267,267 267,264 270,264 270,267 273,267 273,264 276,264 276,261 273,261 273,258 270,258 270,255 267,255 267,252 270,252 270,249 273,249 273,252 276,252 276,249 279,249 279,252 282,252 282,249 285,249 285,246 282,246 282,243 279,243 279,240 276,240 276,237 279,237 279,234 282,234 282,237 285,237 285,234 288,234 288,237 291,237 291,234 294,234 294,231 291,231 291,228 288,228 288,225 291,225 291,222 288,222 288,219 285,219 285,222 282,222 282,225 279,225 279,228 276,228 276,225 273,225 273,222 276,222 276,219 273,219 273,216 276,216 276,213 273,213 273,210 270,210 270,213 267,213 267,216 264,216 264,213 261,213 261,216 258,216 258,219 261,219 261,222 264,222 264,225 267,225 267,228 264,228 264,231 261,231 261,228 258,228 258,231 255,231 255,234 252,234 252,231 249,231 249,228 252,228 252,225 249,225 249,222 252,222 252,219 249,219 249,216 246,216 246,219 243,219 243,222 240,222 240,219 237,219 237,222 234,222 234,225 237,225 237,228 240,228 240,231 243,231 243,234 240,234 240,237 237,237 237,234 234,234 234,237 231,237 231,240 228,240 228,237 225,237 225,234 228,234 228,231 225,231 225,228 228,228 228,225 225,225 225,222 222,222 222,225 219,225 219,228 216,228 216,231 213,231 213,228 210,228 210,225 213,225 213,222 210,222 210,219 207,219 207,216 210,216 210,213 213,213 213,216 216,216 216,213 219,213 219,216 222,216 222,213 225,213 225,210 222,210 222,207 219,207 219,204 216,204 216,201 219,201 219,198 222,198 222,201 225,201 225,198 228,198 228,201 231,201 231,198 234,198 234,195 231,195 231,192 228,192 228,189 225,189 225,186 228,186 228,183 231,183 231,186 234,186 234,183 237,183 237,186 240,186 240,183 243,183 243,180 240,180 240,177 237,177 237,174 240,174 240,171 237,171 237,168 234,168 234,171 231,171 231,174 228,174 228,177 225,177 225,174 222,174 222,171 225,171 225,168 222,168 222,165 225,165 225,162 222,162 222,159 219,159 219,162 216,162 216,165 213,165 213,162 210,162 210,165 207,165 207,168 210,168 210,171 213,171 213,174 216,174 216,177 213,177 213,180 210,180 210,177 207,177 207,180 204,180 204,183 201,183 201,180 198,180 198,177 201,177 201,174 198,174 198,171 201,171 201,168 198,168 198,165 195,165 195,168 192,168 192,171 189,171 189,168 186,168 186,171 183,171 183,174 186,174 186,177 189,177 189,180 192,180 192,183 189,183 189,186 186,186 186,183 183,183 183,186 180,186 180,189 177,189 177,186 174,186 174,183 177,183 177,180 174,180 174,177 177,177 177,174 174,174 174,171 171,171 171,174 168,174 168,177 165,177 165,180 162,180 162,177 159,177 159,174 162,174 162,171 159,171 159,168 156,168 156,165 159,165 159,162 162,162 162,165 165,165 165,162 168,162 168,165 171,165 171,162 174,162 174,159 171,159 171,156 168,156 168,153 165,153 165,150 168,150 168,147 171,147 171,150 174,150 174,147 177,147 177,150 180,150 180,147 183,147 183,144 180,144 180,141 177,141 177,138 180,138 180,135 177,135 177,132 174,132 174,135 171,135 171,138 168,138 168,141 165,141 165,138 162,138 162,135 165,135 165,132 162,132 162,129 159,129 159,126 162,126 162,123 165,123 165,126 168,126 168,123 171,123 171,126 174,126 174,123 177,123 177,120 174,120 174,117 171,117 171,114 168,114 168,111 171,111 171,108 174,108 174,111 177,111 177,108 180,108 180,105 183,105 183,108 186,108 186,111 183,111 183,114 186,114 186,117 183,117 183,120 186,120 186,123 189,123 189,120 192,120 192,117 195,117 195,114 198,114 198,117 201,117 201,120 198,120 198,123 201,123 201,126 198,126 198,129 201,129 201,132 204,132 204,129 207,129 207,126 210,126 210,123 213,123 213,126 216,126 216,129 213,129 213,132 216,132 216,135 213,135 213,138 216,138 216,141 219,141 219,138 222,138 222,135 225,135 225,138 228,138 228,135 231,135 231,132 228,132 228,129 225,129 225,126 222,126 222,123 225,123 225,120 228,120 228,123 231,123 231,120 234,120 234,123 237,123 237,120 240,120 240,117 237,117 237,114 234,114 234,111 237,111 237,108 234,108 234,105 231,105 231,108 228,108 228,111 225,111 225,114 222,114 222,111 219,111 219,108 222,108 222,105 219,105 219,102 216,102 216,99 219,99 219,96 222,96 222,99 225,99 225,96 228,96 228,99 231,99 231,96 234,96 234,93 231,93 231,90 228,90 228,87 231,87 231,84 228,84 228,81 225,81 225,84 222,84 222,87 219,87 219,90 216,90 216,87 213,87 213,84 216,84 216,81 213,81 213,78 210,78 210,75 213,75 213,72 216,72 216,75 219,75 219,72 222,72 222,75 225,75 225,72 228,72 228,69 225,69 225,66 222,66 222,63 219,63 219,60 222,60 222,57 225,57 225,60 228,60 228,57 231,57 231,54 234,54 234,57 237,57 237,60 234,60 234,63 237,63 237,66 234,66 234,69 237,69 237,72 240,72 240,69 243,69 243,66 246,66 246,63 249,63 249,66 252,66 252,69 249,69 249,72 252,72 252,75 249,75 249,78 252,78 252,81 255,81 255,78 258,78 258,75 261,75 261,78 264,78 264,75 267,75 267,72 264,72 264,69 261,69 261,66 258,66 258,63 261,63 261,60 264,60 264,63 267,63 267,60 270,60 270,57 273,57 273,60 276,60 276,63 273,63 273,66 276,66 276,69 273,69 273,72 276,72 276,75 279,75 279,72 282,72 282,69 285,69 285,66 288,66 288,69 291,69 291,72 288,72 288,75 291,75 291,78 294,78 294,81 291,81 291,84 288,84 288,81 285,81 285,84 282,84 282,81 279,81 279,84 276,84 276,87 279,87 279,90 282,90 282,93 285,93 285,96 282,96 282,99 279,99 279,96 276,96 276,99 273,99 273,96 270,96 270,99 267,99 267,102 270,102 270,105 273,105 273,108 276,108 276,111 273,111 273,114 270,114 270,111 267,111 267,114 264,114 264,111 261,111 261,114 258,114 258,117 261,117 261,120 264,120 264,123 261,123 261,126 264,126 264,129 267,129 267,126 270,126 270,123 273,123 273,120 276,120 276,123 279,123 279,126 276,126 276,129 279,129 279,132 276,132 276,135 279,135 279,138 282,138 282,135 285,135 285,132 288,132 288,135 291,135 291,132 294,132 294,129 291,129 291,126 288,126 288,123 285,123 285,120 288,120 288,117 291,117 291,120 294,120 294,117 297,117 297,114 300,114 300,117 303,117 303,120 300,120 300,123 303,123 303,126 300,126 300,129 303,129 303,132 306,132 306,129 309,129 309,126 312,126 312,123 315,123 315,126 318,126 318,129 315,129 315,132 318,132 318,135 315,135 315,138 318,138 318,141 321,141 321,138 324,138 324,135 327,135 327,138 330,138 330,135 333,135 333,132 330,132 330,129 327,129 327,126 324,126 324,123 327,123 327,120 330,120 330,123 333,123 333,120 336,120 336,123 339,123 339,120 342,120 342,117 339,117 339,114 336,114 336,111 339,111 339,108 336,108 336,105 333,105 333,108 330,108 330,111 327,111 327,114 324,114 324,111 321,111 321,108 324,108 324,105 321,105 321,102 318,102 318,99 321,99 321,96 324,96 324,99 327,99 327,96 330,96 330,99 333,99 333,96 336,96 336,93 333,93 333,90 330,90 330,87 333,87 333,84 330,84 330,81 327,81 327,84 324,84 324,87 321,87 321,90 318,90 318,87 315,87 315,84 318,84 318,81 315,81 315,78 312,78 312,75 315,75 315,72 318,72 318,75 321,75 321,72 324,72 324,75 327,75 327,72 330,72 330,69 327,69 327,66 324,66 324,63 321,63 321,60 324,60 324,57 327,57 327,60 330,60 330,57 333,57 333,54 336,54 336,57 339,57 339,60 336,60 336,63 339,63 339,66 336,66 336,69 339,69 339,72 342,72 342,69 345,69 345,66 348,66 348,63 351,63 351,66 354,66 354,69 351,69 351,72 354,72 354,75 351,75 351,78 354,78 354,81 357,81 357,78 360,78 360,75 363,75 363,72 366,72 366,75 369,75 369,78 366,78 366,81 369,81 369,84 366,84 366,87 369,87 369,90 372,90 372,87 375,87 375,84 378,84 378,87 381,87 381,84 384,84 384,81 381,81 381,78 378,78 378,75 375,75 375,72 378,72 378,69 381,69 381,72 384,72 384,69 387,69 387,72 390,72 390,69 393,69 393,66 390,66 390,63 387,63 387,60 390,60 390,57 387,57 387,54 384,54 384,57 381,57 381,60 378,60 378,63 375,63 375,60 372,60 372,57 375,57 375,54 372,54 372,51 369,51 369,48 372,48 372,45 375,45 375,48 378,48 378,45 381,45 381,48 384,48 384,45 387,45 387,42 384,42 384,39 381,39 381,36 384,36 384,33 381,33 381,30 378,30 378,33 375,33 375,36 372,36 372,39 369,39 369,36 366,36 366,33 369,33 369,30 366,30 366,27 363,27 363,24 366,24 366,21 369,21 369,24 372,24 372,21 375,21 375,24 378,24 378,21 381,21 381,18 378,18 378,15 375,15 375,12 372,12 372,9 375,9 375,6 378,6 378,9 381,9 381,6 384,6 384,3 387,3 387,6 390,6 390,9 387,9 387,12 390,12 390,15 387,15 387,18 390,18 390,21 393,21 393,18 396,18 396,15 399,15 399,12 402,12 402,15 405,15 405,18 402,18 402,21 405,21 405,24 402,24 402,27 405,27 405,30 408,30 408,27 411,27 411,24 414,24 414,27 417,27 417,24 420,24 420,21 417,21 417,18 414,18 414,15 411,15 411,12 414,12 414,9 417,9 417,12 420,12 420,9 423,9 423,6 426,6 426,9 429,9 429,12 426,12 426,15 429,15 429,18 426,18 426,21 429,21 429,24 432,24 432,21 435,21 435,18 438,18 438,15 441,15 441,18 444,18 444,21 441,21 441,24 444,24 444,27 447,27 447,30 444,30 444,33 441,33 441,30 438,30 438,33 435,33 435,30 432,30 432,33 429,33 429,36 432,36 432,39 435,39 435,42 438,42 438,45 435,45 435,48 432,48 432,45 429,45 429,48 426,48 426,45 423,45 423,48 420,48 420,51 423,51 423,54 426,54 426,57 429,57 429,60 426,60 426,63 423,63 423,60 420,60 420,63 417,63 417,60 414,60 414,63 411,63 411,66 414,66 414,69 417,69 417,72 414,72 414,75 417,75 417,78 420,78 420,75 423,75 423,72 426,72 426,69 429,69 429,72 432,72 432,75 429,75 429,78 432,78 432,81 429,81 429,84 432,84 432,87 435,87 435,84 438,84 438,81 441,81 441,84 444,84 444,81 447,81 447,78 444,78 444,75 441,75 441,72 438,72 438,69 441,69 441,66 444,66 444,69 447,69 447,66 450,66 450,63 453,63 453,66 456,66 456,69 453,69 453,72 456,72 456,75 453,75 453,78 456,78 456,81 459,81 459,78 462,78 462,75 465,75 465,78 468,78 468,75 471,75 471,72 468,72 468,69 465,69 465,66 462,66 462,63 465,63 465,60 468,60 468,63 471,63 471,60 474,60 474,57 477,57 477,60 480,60 480,63 477,63 477,66 480,66 480,69 477,69 477,72 480,72 480,75 483,75 483,72 486,72 486,69 489,69 489,66 492,66 492,69 495,69 495,72 492,72 492,75 495,75 495,78 498,78 498,81 495,81 495,84 492,84 492,81 489,81 489,84 486,84 486,81 483,81 483,84 480,84 480,87 483,87 483,90 486,90 486,93 489,93 489,96 486,96 486,99 483,99 483,96 480,96 480,99 477,99 477,96 474,96 474,99 471,99 471,102 474,102 474,105 477,105 477,108 474,108 474,111 477,111 477,114 480,114 480,111 483,111 483,108 486,108 486,105 489,105 489,108 492,108 492,111 489,111 489,114 492,114 492,117 495,117 495,120 492,120 492,123 489,123 489,120 486,120 486,123 483,123 483,120 480,120 480,123 477,123 477,126 480,126 480,129 483,129 483,132 486,132 486,135 483,135 483,138 480,138 480,135 477,135 477,138 474,138 474,141 471,141 471,138 468,138 468,135 471,135 471,132 468,132 468,129 471,129 471,126 468,126 468,123 465,123 465,126 462,126 462,129 459,129 459,132 456,132 456,129 453,129 453,126 456,126 456,123 453,123 453,120 456,120 456,117 453,117 453,114 450,114 450,117 447,117 447,120 444,120 444,123 441,123 441,120 438,120 438,117 441,117 441,114 438,114 438,111 441,111 441,108 438,108 438,105 435,105 435,108 432,108 432,111 429,111 429,108 426,108 426,111 423,111 423,114 426,114 426,117 429,117 429,120 432,120 432,123 429,123 429,126 426,126 426,123 423,123 423,126 420,126 420,123 417,123 417,126 414,126 414,129 417,129 417,132 420,132 420,135 417,135 417,138 420,138 420,141 423,141 423,138 426,138 426,135 429,135 429,132 432,132 432,135 435,135 435,138 432,138 432,141 435,141 435,144 438,144 438,147 435,147 435,150 432,150 432,147 429,147 429,150 426,150 426,147 423,147 423,150 420,150 420,153 423,153 423,156 426,156 426,159 429,159 429,162 426,162 426,165 423,165 423,162 420,162 420,165 417,165 417,162 414,162 414,165 411,165 411,168 414,168 414,171 417,171 417,174 414,174 414,177 417,177 417,180 420,180 420,177 423,177 423,174 426,174 426,171 429,171 429,174 432,174 432,177 429,177 429,180 432,180 432,183 429,183 429,186 432,186 432,189 435,189 435,186 438,186 438,183 441,183 441,186 444,186 444,183 447,183 447,180 444,180 444,177 441,177 441,174 438,174 438,171 441,171 441,168 444,168 444,171 447,171 447,168 450,168 450,165 453,165 453,168 456,168 456,171 453,171 453,174 456,174 456,177 453,177 453,180 456,180 456,183 459,183 459,180 462,180 462,177 465,177 465,180 468,180 468,177 471,177 471,174 468,174 468,171 465,171 465,168 462,168 462,165 465,165 465,162 468,162 468,165 471,165 471,162 474,162 474,159 477,159 477,162 480,162 480,165 477,165 477,168 480,168 480,171 477,171 477,174 480,174 480,177 483,177 483,174 486,174 486,171 489,171 489,168 492,168 492,171 495,171 495,174 492,174 492,177 495,177 495,180 498,180 498,183 495,183 495,186 492,186 492,183 489,183 489,186 486,186 486,183 483,183 483,186 480,186 480,189 483,189 483,192 486,192 486,195 489,195 489,198 486,198 486,201 483,201 483,198 480,198 480,201 477,201 477,198 474,198 474,201 471,201 471,204 474,204 474,207 477,207 477,210 474,210 474,213 477,213 477,216 480,216 480,213 483,213 483,210 486,210 486,207 489,207 489,210 492,210 492,213 489,213 489,216 492,216 492,219 495,219 495,222 492,222 492,225 489,225 489,222 486,222 486,225 483,225 483,222 480,222 480,225 477,225 477,228 480,228 480,231 483,231 483,234 486,234 486,237 483,237 483,240 480,240 480,237 477,237 477,240 474,240 474,243 471,243 471,240 468,240 468,237 471,237 471,234 468,234 468,231 471,231 471,228 468,228 468,225 465,225 465,228 462,228 462,231 459,231 459,234 456,234 456,231 453,231 453,228 456,228 456,225 453,225 453,222 456,222 456,219 453,219 453,216 450,216 450,219 447,219 447,222 444,222 444,225 441,225 441,222 438,222 438,219 441,219 441,216 438,216 438,213 441,213 441,210 438,210 438,207 435,207 435,210 432,210 432,213 429,213 429,210 426,210 426,213 423,213 423,216 426,216 426,219 429,219 429,222 432,222 432,225 429,225 429,228 426,228 426,225 423,225 423,228 420,228 420,225 417,225 417,228 414,228 414,231 417,231 417,234 420,234 420,237 417,237 417,240 420,240 420,243 423,243 423,240 426,240 426,237 429,237 429,234 432,234 432,237 435,237 435,240 432,240 432,243 435,243 435,246 438,246 438,249 435,249 435,252 432,252 432,249 429,249 429,252 426,252 426,249 423,249 423,252 420,252 420,255 423,255 423,258 426,258 426,261 429,261 429,264 426,264 426,267 423,267 423,264 420,264 420,267 417,267 417,264 414,264 414,267 411,267 411,270 414,270 414,273 417,273 417,276 414,276 414,279 417,279 417,282 420,282 420,279 423,279 423,276 426,276 426,273 429,273 429,276 432,276 432,279 429,279 429,282 432,282 432,285 429,285 429,288 432,288 432,291 435,291 435,288 438,288 438,285 441,285 441,288 444,288 444,285 447,285 447,282 444,282 444,279 441,279 441,276 438,276 438,273 441,273 441,270 444,270 444,273 447,273 447,270 450,270 450,267 453,267 453,270 456,270 456,273 453,273 453,276 456,276 456,279 453,279 453,282 456,282 456,285 459,285 459,282 462,282 462,279 465,279 465,282 468,282 468,279 471,279 471,276 468,276 468,273 465,273 465,270 462,270 462,267 465,267 465,264 468,264 468,267 471,267 471,264 474,264 474,261 477,261 477,264 480,264 480,267 477,267 477,270 480,270 480,273 477,273 477,276 480,276 480,279 483,279 483,276 486,276 486,273 489,273 489,270 492,270 492,273 495,273 495,276 492,276 492,279 495,279 495,282 498,282 498,285 495,285 495,288 492,288 492,285 489,285 489,288 486,288 486,285 483,285 483,288 480,288 480,291 483,291 483,294 486,294 486,297 489,297 489,300 486,300 486,303 483,303 483,300 480,300 480,303 477,303 477,300 474,300 474,303 471,303 471,306 474,306 474,309 477,309 477,312 480,312 480,315 477,315 477,318 474,318 474,315 471,315 471,318 468,318 468,315 465,315 465,318 462,318 462,321 465,321 465,324 468,324 468,327 465,327 465,330 468,330 468,333 471,333 471,330 474,330 474,327 477,327 477,324 480,324 480,327 483,327 483,330 480,330 480,333 483,333 483,336 480,336 480,339 483,339 483,342 486,342 486,339 489,339 489,336 492,336 492,339 495,339 495,336 498,336 498,333 495,333 495,330 492,330 492,327 489,327 489,324 492,324 492,321 495,321 495,324 498,324 498,321 501,321 501,318 504,318 504,321 507,321 507,324 504,324 504,327 507,327 507,330 504,330 504,333 507,333 507,336 510,336 510,333 513,333 513,330 516,330 516,327 519,327 519,330 522,330 522,333 519,333 519,336 522,336 522,339 519,339 519,342 522,342 522,345 525,345 525,342 528,342 528,339 531,339 531,342 534,342 534,339 537,339 537,336 534,336 534,333 531,333 531,330 528,330 528,327 531,327 531,324 534,324 534,327 537,327 537,324 540,324 540,327 543,327 543,324 546,324 546,321 543,321 543,318 540,318 540,315 543,315 543,312 540,312 540,309 537,309 537,312 534,312 534,315 531,315 531,318 528,318 528,315 525,315 525,312 528,312 528,309 525,309 525,306 522,306 522,303 525,303 525,300 528,300 528,303 531,303 531,300 534,300 534,303 537,303 537,300 540,300 540,297 537,297 537,294 534,294 534,291 537,291 537,288 534,288 534,285 531,285 531,288 528,288 528,291 525,291 525,294 522,294 522,291 519,291 519,288 522,288 522,285 519,285 519,282 516,282 516,279 519,279 519,276 522,276 522,279 525,279 525,276 528,276 528,279 531,279 531,276 534,276 534,273 531,273 531,270 528,270 528,267 525,267 525,264 528,264 528,261 531,261 531,264 534,264 534,261 537,261 537,258 540,258 540,261 543,261 543,264 540,264 540,267 543,267 543,270 540,270 540,273 543,273 543,276 546,276 546,273 549,273 549,270 552,270 552,267 555,267 555,270 558,270 558,273 555,273 555,276 558,276 558,279 555,279 555,282 558,282 558,285 561,285 561,282 564,282 564,279 567,279 567,276 570,276 570,279 573,279 573,282 570,282 570,285 573,285 573,288 570,288 570,291 573,291 573,294 576,294 576,291 579,291 579,288 582,288 582,291 585,291 585,288 588,288 588,285 585,285 585,282 582,282 582,279 579,279 579,276 582,276 582,273 585,273 585,276 588,276 588,273 591,273 591,276 594,276 594,273 597,273 597,270 594,270 594,267 591,267 591,264 594,264 594,261 591,261 591,258 588,258 588,261 585,261 585,264 582,264 582,267 579,267 579,264 576,264 576,261 579,261 579,258 576,258 576,255 573,255 573,252 576,252 576,249 579,249 579,252 582,252 582,249 585,249 585,252 588,252 588,249 591,249 591,246 588,246 588,243 585,243 585,240 588,240 588,237 585,237 585,234 582,234 582,237 579,237 579,240 576,240 576,243 573,243 573,240 570,240 570,237 573,237 573,234 570,234 570,231 567,231 567,228 570,228 570,225 573,225 573,228 576,228 576,225 579,225 579,228 582,228 582,225 585,225 585,222 582,222 582,219 579,219 579,216 576,216 576,213 579,213 579,210 582,210 582,213 585,213 585,210 588,210 588,207 591,207 591,210 594,210 594,213 591,213 591,216 594,216 594,219 591,219 591,222 594,222 594,225 597,225 597,222 600,222 600,219 603,219 603,216 606,216 606,219 609,219 609,222 606,222 606,225 609,225 609,228 606,228 606,231 609,231 609,234 612,234 612,231 615,231 615,228 618,228 618,225 621,225 621,228 624,228 624,231 621,231 621,234 624,234 624,237 621,237 621,240 624,240 624,243 627,243 627,240 630,240 630,237 633,237 633,240 636,240 636,237 639,237 639,234 636,234 636,231 633,231 633,228 630,228 630,225 633,225 633,222 636,222 636,225 639,225 639,222 642,222 642,225 645,225 645,222 648,222 648,219 645,219 645,216 642,216 642,213 645,213 645,210 642,210 642,207 639,207 639,210 636,210 636,213 633,213 633,216 630,216 630,213 627,213 627,210 630,210 630,207 627,207 627,204 624,204 624,201 627,201 627,198 630,198 630,201 633,201 633,198 636,198 636,201 639,201 639,198 642,198 642,195 639,195 639,192 636,192 636,189 639,189 639,186 636,186 636,183 633,183 633,186 630,186 630,189 627,189 627,192 624,192 624,189 621,189 621,186 624,186 624,183 621,183 621,180 618,180 618,177 621,177 621,174 624,174 624,177 627,177 627,174 630,174 630,177 633,177 633,174 636,174 636,171 633,171 633,168 630,168 630,165 627,165 627,162 630,162 630,159 633,159 633,162 636,162 636,159 639,159 639,156 642,156 642,159 645,159 645,162 642,162 642,165 645,165 645,168 642,168 642,171 645,171 645,174 648,174 648,171 651,171 651,168 654,168 654,165 657,165 657,168 660,168 660,171 657,171 657,174 660,174 660,177 657,177 657,180 660,180 660,183 663,183 663,180 666,180 666,177 669,177 669,180 672,180 672,177 675,177 675,174 672,174 672,171 669,171 669,168 666,168 666,165 669,165 669,162 672,162 672,165 675,165 675,162 678,162 678,159 681,159 681,162 684,162 684,165 681,165 681,168 684,168 684,171 681,171 681,174 684,174 684,177 687,177 687,174 690,174 690,171 693,171 693,168 696,168 696,171 699,171 699,174 696,174 696,177 699,177 699,180 702,180 702,183 699,183 699,186 696,186 696,183 693,183 693,186 690,186 690,183 687,183 687,186 684,186 684,189 687,189 687,192 690,192 690,195 693,195 693,198 690,198 690,201 687,201 687,198 684,198 684,201 681,201 681,198 678,198 678,201 675,201 675,204 678,204 678,207 681,207 681,210 684,210 684,213 681,213 681,216 678,216 678,213 675,213 675,216 672,216 672,213 669,213 669,216 666,216 666,219 669,219 669,222 672,222 672,225 669,225 669,228 672,228 672,231 675,231 675,228 678,228 678,225 681,225 681,222 684,222 684,225 687,225 687,228 684,228 684,231 687,231 687,234 684,234 684,237 687,237 687,240 690,240 690,237 693,237 693,234 696,234 696,237 699,237 699,234 702,234 702,231 699,231 699,228 696,228 696,225 693,225 693,222 696,222 696,219 699,219 699,222 702,222 702,219 705,219 705,216 708,216 708,219 711,219 711,222 708,222 708,225 711,225 711,228 708,228 708,231 711,231 711,234 714,234 714,231 717,231 717,228 720,228 720,231 723,231 723,228 726,228 726,225 723,225 723,222 720,222 720,219 717,219 717,216 720,216 720,213 723,213 723,216 726,216 726,213 729,213 729,210 732,210 732,213 735,213 735,216 732,216 732,219 735,219 735,222 732,222 732,225 735,225 735,228 738,228 738,225 741,225 741,222 744,222 744,219 747,219 747,222 750,222 750,225 747,225 747,228 750,228 750,231 753,231 753,234 750,234 750,237 747,237 747,234 744,234 744,237 741,237 741,234 738,234 738,237 735,237 735,240 738,240 738,243 741,243 741,246 744,246 744,249 741,249 741,252 738,252 738,249 735,249 735,252 732,252 732,249 729,249 729,252 726,252 726,255 729,255 729,258 732,258 732,261 729,261 729,264 732,264 732,267 735,267 735,264 738,264 738,261 741,261 741,258 744,258 744,261 747,261 747,264 744,264 744,267 747,267 747,270 750,270 750,273 747,273 747,276 744,276 744,273 741,273 741,276 738,276 738,273 735,273 735,276 732,276 732,279 735,279 735,282 738,282 738,285 741,285 741,288 738,288 738,291 735,291 735,288 732,288 732,291 729,291 729,294 726,294 726,291 723,291 723,288 726,288 726,285 723,285 723,282 726,282 726,279 723,279 723,276 720,276 720,279 717,279 717,282 714,282 714,285 711,285 711,282 708,282 708,279 711,279 711,276 708,276 708,273 711,273 711,270 708,270 708,267 705,267 705,270 702,270 702,273 699,273 699,276 696,276 696,273 693,273 693,270 696,270 696,267 693,267 693,264 696,264 696,261 693,261 693,258 690,258 690,261 687,261 687,264 684,264 684,261 681,261 681,264 678,264 678,267 681,267 681,270 684,270 684,273 687,273 687,276 684,276 684,279 681,279 681,276 678,276 678,279 675,279 675,276 672,276 672,279 669,279 669,282 672,282 672,285 675,285 675,288 672,288 672,291 675,291 675,294 678,294 678,291 681,291 681,288 684,288 684,285 687,285 687,288 690,288 690,291 687,291 687,294 690,294 690,297 693,297 693,300 690,300 690,303 687,303 687,300 684,300 684,303 681,303 681,300 678,300 678,303 675,303 675,306 678,306 678,309 681,309 681,312 684,312 684,315 681,315 681,318 678,318 678,315 675,315 675,318 672,318 672,315 669,315 669,318 666,318 666,321 669,321 669,324 672,324 672,327 669,327 669,330 672,330 672,333 675,333 675,330 678,330 678,327 681,327 681,324 684,324 684,327 687,327 687,330 684,330 684,333 687,333 687,336 684,336 684,339 687,339 687,342 690,342 690,339 693,339 693,336 696,336 696,339 699,339 699,336 702,336 702,333 699,333 699,330 696,330 696,327 693,327 693,324 696,324 696,321 699,321 699,324 702,324 702,321 705,321 705,318 708,318 708,321 711,321 711,324 708,324 708,327 711,327 711,330 708,330 708,333 711,333 711,336 714,336 714,333 717,333 717,330 720,330 720,333 723,333 723,330 726,330 726,327 723,327 723,324 720,324 720,321 717,321 717,318 720,318 720,315 723,315 723,318 726,318 726,315 729,315 729,312 732,312 732,315 735,315 735,318 732,318 732,321 735,321 735,324 732,324 732,327 735,327 735,330 738,330 738,327 741,327 741,324 744,324 744,321 747,321 747,324 750,324 750,327 747,327 747,330 750,330 750,333 753,333 753,336 750,336 750,339 747,339 747,336 744,336 744,339 741,339 741,336 738,336 738,339 735,339 735,342 738,342 738,345 741,345 741,348 744,348 744,351 741,351 741,354 738,354 738,351 735,351 735,354 732,354 732,351 729,351 729,354 726,354 726,357 729,357 729,360 732,360 732,363 735,363 735,366 732,366 732,369 729,369 729,366 726,366 726,369 723,369 723,366 720,366 720,369 717,369 717,372 720,372 720,375 723,375 723,378 720,378 720,381 723,381 723,384 726,384 726,381 729,381 729,378 732,378 732,375 735,375 735,378 738,378 738,381 735,381 735,384 738,384 738,387 735,387 735,390 738,390 738,393 741,393 741,390 744,390 744,387 747,387 747,390 750,390 750,387 753,387 753,384 750,384 750,381 747,381 747,378 744,378 744,375 747,375 747,372 750,372 750,375 753,375 753,372 756,372 756,369 759,369 759,372 762,372 762,375 759,375 759,378 762,378 762,381 759,381 759,384 762,384 762,387 765,387 765,384 768,384 768,381 771,381 771,384 774,384 774,381 777,381 777,378 774,378 774,375 771,375 771,372 768,372 768,369 771,369 771,366 774,366 774,369 777,369 777,366 780,366 780,363 783,363 783,366 786,366 786,369 783,369 783,372 786,372 786,375 783,375 783,378 786,378 786,381 789,381 789,378 792,378 792,375 795,375 795,372 798,372 798,375 801,375 801,378 798,378 798,381 801,381 801,384 804,384 804,387 801,387 801,390 798,390 798,387 795,387 795,390 792,390 792,387 789,387 789,390 786,390 786,393 789,393 789,396 792,396 792,399 795,399 795,402 792,402 792,405 789,405 789,402 786,402 786,405 783,405 783,402 780,402 780,405 777,405 777,408 780,408 780,411 783,411 783,414 780,414 780,417 783,417 783,420 786,420 786,417 789,417 789,414 792,414 792,411 795,411 795,414 798,414 798,417 795,417 795,420 798,420 798,423 801,423 801,426 798,426 798,429 795,429 795,426 792,426 792,429 789,429 789,426 786,426 786,429 783,429 783,432 786,432 786,435 789,435 789,438 792,438 792,441 789,441 789,444 786,444 786,441 783,441 783,444 780,444 780,447 777,447 777,444 774,444 774,441 777,441 777,438 774,438 774,435 777,435 777,432 774,432 774,429 771,429 771,432 768,432 768,435 765,435 765,438 762,438 762,435 759,435 759,432 762,432 762,429 759,429 759,426 762,426 762,423 759,423 759,420 756,420 756,423 753,423 753,426 750,426 750,429 747,429 747,426 744,426 744,423 747,423 747,420 744,420 744,417 747,417 747,414 744,414 744,411 741,411 741,414 738,414 738,417 735,417 735,414 732,414 732,417 729,417 729,420 732,420 732,423 735,423 735,426 738,426 738,429 735,429 735,432 732,432 732,429 729,429 729,432 726,432 726,429 723,429 723,432 720,432 720,435 723,435 723,438 726,438 726,441 723,441 723,444 726,444 726,447 729,447 729,444 732,444 732,441 735,441 735,438 738,438 738,441 741,441 741,444 738,444 738,447 741,447 741,450 744,450 744,453 741,453 741,456 738,456 738,453 735,453 735,456 732,456 732,453 729,453 729,456 726,456 726,459 729,459 729,462 732,462 732,465 729,465 729,468 732,468 732,471 735,471 735,468 738,468 738,465 741,465 741,462 744,462 744,465 747,465 747,468 744,468 744,471 747,471 747,474 750,474 750,477 747,477 747,480 744,480 744,477 741,477 741,480 738,480 738,477 735,477 735,480 732,480 732,483 735,483 735,486 738,486 738,489 741,489 741,492 738,492 738,495 735,495 735,492 732,492 732,495 729,495 729,498 726,498 726,495 723,495 723,492 726,492 726,489 723,489 723,486 726,486 726,483 723,483 723,480 720,480 720,483 717,483 717,486 714,486 714,489 711,489 711,486 708,486 708,483 711,483 711,480 708,480 708,477 711,477 711,474 708,474 708,471 705,471 705,474 702,474 702,477 699,477 699,474 696,474 696,477 693,477 693,480 696,480 696,483 699,483 699,486 702,486 702,489 699,489 699,492 696,492 696,489 693,489 693,492 690,492 690,495 687,495 687,492 684,492 684,489 687,489 687,486 684,486 684,483 687,483 687,480 684,480 684,477 681,477 681,480 678,480 678,483 675,483 675,486 672,486 672,483 669,483 669,480 672,480 672,477 669,477 669,474 666,474 666,471 669,471 669,468 672,468 672,471 675,471 675,468 678,468 678,471 681,471 681,468 684,468 684,465 681,465 681,462 678,462 678,459 675,459 675,456 678,456 678,453 681,453 681,456 684,456 684,453 687,453 687,456 690,456 690,453 693,453 693,450 690,450 690,447 687,447 687,444 684,444 684,441 687,441 687,438 690,438 690,441 693,441 693,438 696,438 696,441 699,441 699,438 702,438 702,435 699,435 699,432 696,432 696,429 699,429 699,426 696,426 696,423 693,423 693,426 690,426 690,429 687,429 687,432 684,432 684,429 681,429 681,426 684,426 684,423 681,423 681,420 684,420 684,417 681,417 681,414 678,414 678,417 675,417 675,420 672,420 672,417 669,417 669,420 666,420 666,423 669,423 669,426 672,426 672,429 675,429 675,432 672,432 672,435 669,435 669,432 666,432 666,435 663,435 663,438 660,438 660,435 657,435 657,432 660,432 660,429 657,429 657,426 660,426 660,423 657,423 657,420 654,420 654,423 651,423 651,426 648,426 648,429 645,429 645,426 642,426 642,423 645,423 645,420 642,420 642,417 645,417 645,414 642,414 642,411 639,411 639,414 636,414 636,417 633,417 633,414 630,414 630,417 627,417 627,420 630,420 630,423 633,423 633,426 636,426 636,429 633,429 633,432 630,432 630,429 627,429 627,432 624,432 624,429 621,429 621,432 618,432 618,435 621,435 621,438 624,438 624,441 621,441 621,444 624,444 624,447 627,447 627,444 630,444 630,441 633,441 633,438 636,438 636,441 639,441 639,444 636,444 636,447 639,447 639,450 642,450 642,453 639,453 639,456 636,456 636,453 633,453 633,456 630,456 630,453 627,453 627,456 624,456 624,459 627,459 627,462 630,462 630,465 627,465 627,468 630,468 630,471 633,471 633,468 636,468 636,465 639,465 639,462 642,462 642,465 645,465 645,468 642,468 642,471 645,471 645,474 648,474 648,477 645,477 645,480 642,480 642,477 639,477 639,480 636,480 636,477 633,477 633,480 630,480 630,483 633,483 633,486 636,486 636,489 639,489 639,492 636,492 636,495 633,495 633,492 630,492 630,495 627,495 627,498 624,498 624,495 621,495 621,492 624,492 624,489 621,489 621,486 624,486 624,483 621,483 621,480 618,480 618,483 615,483 615,486 612,486 612,489 609,489 609,486 606,486 606,483 609,483 609,480 606,480 606,477 609,477 609,474 606,474 606,471 603,471 603,474 600,474 600,477 597,477 597,474 594,474 594,477 591,477 591,480 594,480 594,483 597,483 597,486 600,486 600,489 597,489 597,492 594,492 594,489 591,489 591,492 588,492 588,495 585,495 585,492 582,492 582,489 585,489 585,486 582,486 582,483 585,483 585,480 582,480 582,477 579,477 579,480 576,480 576,483 573,483 573,486 570,486 570,483 567,483 567,480 570,480 570,477 567,477 567,474 564,474 564,471 567,471 567,468 570,468 570,471 573,471 573,468 576,468 576,471 579,471 579,468 582,468 582,465 579,465 579,462 576,462 576,459 573,459 573,456 576,456 576,453 579,453 579,456 582,456 582,453 585,453 585,456 588,456 588,453 591,453 591,450 588,450 588,447 585,447 585,444 582,444 582,441 585,441 585,438 588,438 588,441 591,441 591,438 594,438 594,441 597,441 597,438 600,438 600,435 597,435 597,432 594,432 594,429 597,429 597,426 594,426 594,423 591,423 591,426 588,426 588,429 585,429 585,432 582,432 582,429 579,429 579,426 582,426 582,423 579,423 579,420 582,420 582,417 579,417 579,414 576,414 576,417 573,417 573,420 570,420 570,417 567,417 567,420 564,420 564,423 567,423 567,426 570,426 570,429 573,429 573,432 570,432 570,435 567,435 567,432 564,432 564,435 561,435 561,438 558,438 558,435 555,435 555,432 558,432 558,429 555,429 555,426 558,426 558,423 555,423 555,420 552,420 552,423 549,423 549,426 546,426 546,429 543,429 543,426 540,426 540,423 543,423 543,420 540,420 540,417 543,417 543,414 540,414 540,411 537,411 537,414 534,414 534,417 531,417 531,414 528,414 528,417 525,417 525,420 528,420 528,423 531,423 531,426 534,426 534,429 531,429 531,432 528,432 528,429 525,429 525,432 522,432 522,429 519,429 519,432 516,432 516,435 519,435 519,438 522,438 522,441 519,441 519,444 522,444 522,447 525,447 525,444 528,444 528,441 531,441 531,438 534,438 534,441 537,441 537,444 534,444 534,447 537,447 537,450 540,450 540,453 537,453 537,456 534,456 534,453 531,453 531,456 528,456 528,453 525,453 525,456 522,456 522,459 525,459 525,462 528,462 528,465 525,465 525,468 528,468 528,471 531,471 531,468 534,468 534,465 537,465 537,462 540,462 540,465 543,465 543,468 540,468 540,471 543,471 543,474 546,474 546,477 543,477 543,480 540,480 540,477 537,477 537,480 534,480 534,477 531,477 531,480 528,480 528,483 531,483 531,486 534,486 534,489 537,489 537,492 534,492 534,495 531,495 531,492 528,492 528,495 525,495 525,498 522,498 522,495 519,495 519,492 522,492 522,489 519,489 519,486 522,486 522,483 519,483 519,480 516,480 516,483 513,483 513,486 510,486 510,489 507,489 507,486 504,486 504,483 507,483 507,480 504,480 504,477 507,477 507,474 504,474 504,471 501,471 501,474 498,474 498,477 495,477 495,480 492,480 492,477 489,477 489,474 492,474 492,471 489,471 489,468 492,468 492,465 489,465 489,462 486,462 486,465 483,465 483,468 480,468 480,465 477,465 477,468 474,468 474,471 477,471 477,474 480,474 480,477 483,477 483,480 480,480 480,483 477,483 477,480 474,480 474,483 471,483 471,480 468,480 468,483 465,483 465,486 468,486 468,489 471,489 471,492 468,492 468,495 471,495 471,498 474,498 474,495 477,495 477,492 480,492 480,489 483,489 483,492 486,492 486,495 483,495 483,498 486,498 486,501 489,501 489,504 486,504 486,507 483,507 483,504 480,504 480,507 477,507 477,504 474,504 474,507 471,507 471,510 474,510 474,513 477,513 477,516 480,516 480,519 477,519 477,522 474,522 474,519 471,519 471,522 468,522 468,519 465,519 465,522 462,522 462,525 465,525 465,528 468,528 468,531 465,531 465,534 468,534 468,537 471,537 471,534 474,534 474,531 477,531 477,528 480,528 480,531 483,531 483,534 480,534 480,537 483,537 483,540 480,540 480,543 483,543 483,546 486,546 486,543 489,543 489,540 492,540 492,543 495,543 495,540 498,540 498,537 495,537 495,534 492,534 492,531 489,531 489,528 492,528 492,525 495,525 495,528 498,528 498,525 501,525 501,522 504,522 504,525 507,525 507,528 504,528 504,531 507,531 507,534 504,534 504,537 507,537 507,540 510,540 510,537 513,537 513,534 516,534 516,537 519,537 519,534 522,534 522,531 519,531 519,528 516,528 516,525 513,525 513,522 516,522 516,519 519,519 519,522 522,522 522,519 525,519 525,516 528,516 528,519 531,519 531,522 528,522 528,525 531,525 531,528 528,528 528,531 531,531 531,534 534,534 534,531 537,531 537,528 540,528 540,525 543,525 543,528 546,528 546,531 543,531 543,534 546,534 546,537 549,537 549,540 546,540 546,543 543,543 543,540 540,540 540,543 537,543 537,540 534,540 534,543 531,543 531,546 534,546 534,549 537,549 537,552 540,552 540,555 537,555 537,558 534,558 534,555 531,555 531,558 528,558 528,555 525,555 525,558 522,558 522,561 525,561 525,564 528,564 528,567 531,567 531,570 528,570 528,573 525,573 525,570 522,570 522,573 519,573 519,570 516,570 516,573 513,573 513,576 516,576 516,579 519,579 519,582 516,582 516,585 519,585 519,588 522,588 522,585 525,585 525,582 528,582 528,579 531,579 531,582 534,582 534,585 531,585 531,588 534,588 534,591 531,591 531,594 534,594 534,597 537,597 537,594 540,594 540,591 543,591 543,594 546,594 546,591 549,591 549,588 546,588 546,585 543,585 543,582 540,582 540,579 543,579 543,576 546,576 546,579 549,579 549,576 552,576 552,573 555,573 555,576 558,576 558,579 555,579 555,582 558,582 558,585 555,585 555,588 558,588 558,591 561,591 561,588 564,588 564,585 567,585 567,588 570,588 570,585 573,585 573,582 570,582 570,579 567,579 567,576 564,576 564,573 567,573 567,570 570,570 570,573 573,573 573,570 576,570 576,567 579,567 579,570 582,570 582,573 579,573 579,576 582,576 582,579 579,579 579,582 582,582 582,585 585,585 585,582 588,582 588,579 591,579 591,576 594,576 594,579 597,579 597,582 594,582 594,585 597,585 597,588 600,588 600,591 597,591 597,594 594,594 594,591 591,591 591,594 588,594 588,591 585,591 585,594 582,594 582,597 585,597 585,600 588,600 588,603 591,603 591,606 588,606 588,609 585,609 585,606 582,606 582,609 579,609 579,606 576,606 576,609 573,609 573,612 576,612 576,615 579,615 579,618 582,618 582,621 579,621 579,624 576,624 576,621 573,621 573,624 570,624 570,621 567,621 567,624 564,624 564,627 567,627 567,630 570,630 570,633 567,633 567,636 570,636 570,639 573,639 573,636 576,636 576,633 579,633 579,630 582,630 582,633 585,633 585,636 582,636 582,639 585,639 585,642 582,642 582,645 585,645 585,648 588,648 588,645 591,645 591,642 594,642 594,645 597,645 597,642 600,642 600,639 597,639 597,636 594,636 594,633 591,633 591,630 594,630 594,627 597,627 597,630 600,630 600,627 603,627 603,624 606,624 606,627 609,627 609,630 606,630 606,633 609,633 609,636 606,636 606,639 609,639 609,642 612,642 612,639 615,639 615,636 618,636 618,639 621,639 621,636 624,636 624,633 621,633 621,630 618,630 618,627 615,627 615,624 618,624 618,621 621,621 621,624 624,624 624,621 627,621 627,618 630,618 630,621 633,621 633,624 630,624 630,627 633,627 633,630 630,630 630,633 633,633 633,636 636,636 636,633 639,633 639,630 642,630 642,627 645,627 645,630 648,630 648,633 645,633 645,636 648,636 648,639 651,639 651,642 648,642 648,645 645,645 645,642 642,642 642,645 639,645 639,642 636,642 636,645 633,645 633,648 636,648 636,651 639,651 639,654 642,654 642,657 639,657 639,660 636,660 636,657 633,657 633,660 630,660 630,657 627,657 627,660 624,660 624,663 627,663 627,666 630,666 630,669 627,669 627,672 630,672 630,675 633,675 633,672 636,672 636,669 639,669 639,666 642,666 642,669 645,669 645,672 642,672 642,675 645,675 645,678 648,678 648,681 645,681 645,684 642,684 642,681 639,681 639,684 636,684 636,681 633,681 633,684 630,684 630,687 633,687 633,690 636,690 636,693 639,693 639,696 636,696 636,699 633,699 633,696 630,696 630,699 627,699 627,702 624,702 624,699 621,699 621,696 624,696 624,693 621,693 621,690 624,690 624,687 621,687 621,684 618,684 618,687 615,687 615,690 612,690 612,693 609,693 609,690 606,690 606,687 609,687 609,684 606,684 606,681 609,681 609,678 606,678 606,675 603,675 603,678 600,678 600,681 597,681 597,684 594,684 594,681 591,681 591,678 594,678 594,675 591,675 591,672 594,672 594,669 591,669 591,666 588,666 588,669 585,669 585,672 582,672 582,669 579,669 579,672 576,672 576,675 579,675 579,678 582,678 582,681 585,681 585,684 582,684 582,687 579,687 579,684 576,684 576,687 573,687 573,684 570,684 570,687 567,687 567,690 570,690 570,693 573,693 573,696 570,696 570,699 573,699 573,702 576,702 576,699 579,699 579,696 582,696 582,693 585,693 585,696 588,696 588,699 585,699 585,702 588,702 588,705 591,705 591,708 588,708 588,711 585,711 585,708 582,708 582,711 579,711 579,708 576,708 576,711 573,711 573,714 576,714 576,717 579,717 579,720 576,720 576,723 579,723 579,726 582,726 582,723 585,723 585,720 588,720 588,717 591,717 591,720 594,720 594,723 591,723 591,726 594,726 594,729 597,729 597,732 594,732 594,735 591,735 591,732 588,732 588,735 585,735 585,732 582,732 582,735 579,735 579,738 582,738 582,741 585,741 585,744 588,744 588,747 585,747 585,750 582,750 582,747 579,747 579,750 576,750 576,753 573,753 573,750 570,750 570,747 573,747 573,744 570,744 570,741 573,741 573,738 570,738 570,735 567,735 567,738 564,738 564,741 561,741 561,744 558,744 558,741 555,741 555,738 558,738 558,735 555,735 555,732 558,732 558,729 555,729 555,726 552,726 552,729 549,729 549,732 546,732 546,729 543,729 543,732 540,732 540,735 543,735 543,738 546,738 546,741 549,741 549,744 546,744 546,747 543,747 543,744 540,744 540,747 537,747 537,750 534,750 534,747 531,747 531,744 534,744 534,741 531,741 531,738 534,738 534,735 531,735 531,732 528,732 528,735 525,735 525,738 522,738 522,741 519,741 519,738 516,738 516,735 519,735 519,732 516,732 516,729 513,729 513,726 516,726 516,723 519,723 519,726 522,726 522,723 525,723 525,726 528,726 528,723 531,723 531,720 528,720 528,717 525,717 525,714 522,714 522,711 525,711 525,708 528,708 528,711 531,711 531,708 534,708 534,711 537,711 537,708 540,708 540,705 537,705 537,702 534,702 534,699 531,699 531,696 534,696 534,693 537,693 537,696 540,696 540,693 543,693 543,696 546,696 546,693 549,693 549,690 546,690 546,687 543,687 543,684 546,684 546,681 543,681 543,678 540,678 540,681 537,681 537,684 534,684 534,687 531,687 531,684 528,684 528,681 531,681 531,678 528,678 528,675 531,675 531,672 528,672 528,669 525,669 525,672 522,672 522,675 519,675 519,672 516,672 516,675 513,675 513,678 516,678 516,681 519,681 519,684 522,684 522,687 519,687 519,690 516,690 516,687 513,687 513,690 510,690 510,693 507,693 507,690 504,690 504,687 507,687 507,684 504,684 504,681 507,681 507,678 504,678 504,675 501,675 501,678 498,678 498,681 495,681 495,684 492,684 492,681 489,681 489,678 492,678 492,675 489,675 489,672 492,672 492,669 489,669 489,666 486,666 486,669 483,669 483,672 480,672 480,669 477,669 477,672 474,672 474,675 477,675 477,678 480,678 480,681 483,681 483,684 480,684 480,687 477,687 477,684 474,684 474,687 471,687 471,684 468,684 468,687 465,687 465,690 468,690 468,693 471,693 471,696 468,696 468,699 471,699 471,702 474,702 474,699 477,699 477,696 480,696 480,693 483,693 483,696 486,696 486,699 483,699 483,702 486,702 486,705 489,705 489,708 486,708 486,711 483,711 483,708 480,708 480,711 "/>
</svg>
