<?xml version="1.0" encoding="iso-8859-1"?>
<!DOCTYPE svg PUBLIC "-//W3C//DTD SVG 1.1//EN"
 "http://www.w3.org/Graphics/SVG/1.1/DTD/svg11.dtd">
<svg xmlns="http://www.w3.org/2000/svg" version="1.1" width="387pt" height="195pt" viewBox="0 0 387 195">
  <polyline fill="none" stroke="black" points="
3,3 6,3 6,6 9,6 9,3 12,3 12,6 9,6 9,9 12,9 12,12 15,12 15,9 18,9 18,6 15,6 15,3 18,3 18,6 21,6 21,3 24,3 24,6 21,6 21,9 24,9 24,12 21,12 21,9 18,9 18,12 15,12 15,15 18,15 18,18 21,18 21,15 24,15 24,18 21,18 21,21 24,21 24,24 27,24 27,21 30,21 30,18 27,18 27,15 30,15 30,18 33,18 33,15 36,15 36,12 33,12 33,9 30,9 30,12 27,12 27,9 30,9 30,6 27,6 27,3 30,3 30,6 33,6 33,3 36,3 36,6 33,6 33,9 36,9 36,12 39,12 39,9 42,9 42,6 39,6 39,3 42,3 42,6 45,6 45,3 48,3 48,6 45,6 45,9 48,9 48,12 45,12 45,9 42,9 42,12 39,12 39,15 42,15 42,18 45,18 45,15 48,15 48,18 45,18 45,21 48,21 48,24 45,24 45,21 42,21 42,24 39,24 39,21 42,21 42,18 39,18 39,15 36,15 36,18 33,18 33,21 36,21 36,24 33,24 33,21 30,21 30,24 27,24 27,27 30,27 30,30 33,30 33,27 36,27 36,30 33,30 33,33 36,33 36,36 39,36 39,33 42,33 42,30 39,30 39,27 42,27 42,30 45,30 45,27 48,27 48,30 45,30 45,33 48,33 48,36 45,36 45,33 42,33 42,36 39,36 39,39 42,39 42,42 45,42 45,39 48,39 48,42 45,42 45,45 48,45 48,48 51,48 51,45 54,45 54,42 51,42 51,39 54,39 54,42 57,42 57,39 60,39 60,36 57,36 57,33 54,33 54,36 51,36 51,33 54,33 54,30 51,30 51,27 54,27 54,30 57,30 57,27 60,27 60,30 57,30 57,33 60,33 60,36 63,36 63,33 66,33 66,30 63,30 63,27 66,27 66,30 69,30 69,27 72,27 72,24 69,24 69,21 66,21 66,24 63,24 63,21 66,21 66,18 63,18 63,15 60,15 60,18 57,18 57,21 60,21 60,24 57,24 57,21 54,21 54,24 51,24 51,21 54,21 54,18 51,18 51,15 54,15 54,18 57,18 57,15 60,15 60,12 57,12 57,9 54,9 54,12 51,12 51,9 54,9 54,6 51,6 51,3 54,3 54,6 57,6 57,3 60,3 60,6 57,6 57,9 60,9 60,12 63,12 63,9 66,9 66,6 63,6 63,3 66,3 66,6 69,6 69,3 72,3 72,6 69,6 69,9 72,9 72,12 69,12 69,9 66,9 66,12 63,12 63,15 66,15 66,18 69,18 69,15 72,15 72,18 69,18 69,21 72,21 72,24 75,24 75,21 78,21 78,18 75,18 75,15 78,15 78,18 81,18 81,15 84,15 84,12 81,12 81,9 78,9 78,12 75,12 75,9 78,9 78,6 75,6 75,3 78,3 78,6 81,6 81,3 84,3 84,6 81,6 81,9 84,9 84,12 87,12 87,9 90,9 90,6 87,6 87,3 90,3 90,6 93,6 93,3 96,3 96,6 93,6 93,9 96,9 96,12 93,12 93,9 90,9 90,12 87,12 87,15 90,15 90,18 93,18 93,15 96,15 96,18 93,18 93,21 96,21 96,24 93,24 93,21 90,21 90,24 87,24 87,21 90,21 90,18 87,18 87,15 84,15 84,18 81,18 81,21 84,21 84,24 81,24 81,21 78,21 78,24 75,24 75,27 78,27 78,30 81,30 81,27 84,27 84,30 81,30 81,33 84,33 84,36 87,36 87,33 90,33 90,30 87,30 87,27 90,27 90,30 93,30 93,27 96,27 96,30 93,30 93,33 96,33 96,36 93,36 93,33 90,33 90,36 87,36 87,39 90,39 90,42 93,42 93,39 96,39 96,42 93,42 93,45 96,45 96,48 93,48 93,45 90,45 90,48 87,48 87,45 90,45 90,42 87,42 87,39 84,39 84,42 81,42 81,45 84,45 84,48 81,48 81,45 78,45 78,48 75,48 75,45 78,45 78,42 75,42 75,39 78,39 78,42 81,42 81,39 84,39 84,36 81,36 81,33 78,33 78,36 75,36 75,33 78,33 78,30 75,30 75,27 72,27 72,30 69,30 69,33 72,33 72,36 69,36 69,33 66,33 66,36 63,36 63,39 66,39 66,42 69,42 69,39 72,39 72,42 69,42 69,45 72,45 72,48 69,48 69,45 66,45 66,48 63,48 63,45 66,45 66,42 63,42 63,39 60,39 60,42 57,42 57,45 60,45 60,48 57,48 57,45 54,45 54,48 51,48 51,51 54,51 54,54 57,54 57,51 60,51 60,54 57,54 57,57 60,57 60,60 63,60 63,57 66,57 66,54 63,54 63,51 66,51 66,54 69,54 69,51 72,51 72,54 69,54 69,57 72,57 72,60 69,60 69,57 66,57 66,60 63,60 63,63 66,63 66,66 69,66 69,63 72,63 72,66 69,66 69,69 72,69 72,72 75,72 75,69 78,69 78,66 75,66 75,63 78,63 78,66 81,66 81,63 84,63 84,60 81,60 81,57 78,57 78,60 75,60 75,57 78,57 78,54 75,54 75,51 78,51 78,54 81,54 81,51 84,51 84,54 81,54 81,57 84,57 84,60 87,60 87,57 90,57 90,54 87,54 87,51 90,51 90,54 93,54 93,51 96,51 96,54 93,54 93,57 96,57 96,60 93,60 93,57 90,57 90,60 87,60 87,63 90,63 90,66 93,66 93,63 96,63 96,66 93,66 93,69 96,69 96,72 93,72 93,69 90,69 90,72 87,72 87,69 90,69 90,66 87,66 87,63 84,63 84,66 81,66 81,69 84,69 84,72 81,72 81,69 78,69 78,72 75,72 75,75 78,75 78,78 81,78 81,75 84,75 84,78 81,78 81,81 84,81 84,84 87,84 87,81 90,81 90,78 87,78 87,75 90,75 90,78 93,78 93,75 96,75 96,78 93,78 93,81 96,81 96,84 93,84 93,81 90,81 90,84 87,84 87,87 90,87 90,90 93,90 93,87 96,87 96,90 93,90 93,93 96,93 96,96 99,96 99,93 102,93 102,90 99,90 99,87 102,87 102,90 105,90 105,87 108,87 108,84 105,84 105,81 102,81 102,84 99,84 99,81 102,81 102,78 99,78 99,75 102,75 102,78 105,78 105,75 108,75 108,78 105,78 105,81 108,81 108,84 111,84 111,81 114,81 114,78 111,78 111,75 114,75 114,78 117,78 117,75 120,75 120,72 117,72 117,69 114,69 114,72 111,72 111,69 114,69 114,66 111,66 111,63 108,63 108,66 105,66 105,69 108,69 108,72 105,72 105,69 102,69 102,72 99,72 99,69 102,69 102,66 99,66 99,63 102,63 102,66 105,66 105,63 108,63 108,60 105,60 105,57 102,57 102,60 99,60 99,57 102,57 102,54 99,54 99,51 102,51 102,54 105,54 105,51 108,51 108,54 105,54 105,57 108,57 108,60 111,60 111,57 114,57 114,54 111,54 111,51 114,51 114,54 117,54 117,51 120,51 120,54 117,54 117,57 120,57 120,60 117,60 117,57 114,57 114,60 111,60 111,63 114,63 114,66 117,66 117,63 120,63 120,66 117,66 117,69 120,69 120,72 123,72 123,69 126,69 126,66 123,66 123,63 126,63 126,66 129,66 129,63 132,63 132,60 129,60 129,57 126,57 126,60 123,60 123,57 126,57 126,54 123,54 123,51 126,51 126,54 129,54 129,51 132,51 132,54 129,54 129,57 132,57 132,60 135,60 135,57 138,57 138,54 135,54 135,51 138,51 138,54 141,54 141,51 144,51 144,48 141,48 141,45 138,45 138,48 135,48 135,45 138,45 138,42 135,42 135,39 132,39 132,42 129,42 129,45 132,45 132,48 129,48 129,45 126,45 126,48 123,48 123,45 126,45 126,42 123,42 123,39 126,39 126,42 129,42 129,39 132,39 132,36 129,36 129,33 126,33 126,36 123,36 123,33 126,33 126,30 123,30 123,27 120,27 120,30 117,30 117,33 120,33 120,36 117,36 117,33 114,33 114,36 111,36 111,39 114,39 114,42 117,42 117,39 120,39 120,42 117,42 117,45 120,45 120,48 117,48 117,45 114,45 114,48 111,48 111,45 114,45 114,42 111,42 111,39 108,39 108,42 105,42 105,45 108,45 108,48 105,48 105,45 102,45 102,48 99,48 99,45 102,45 102,42 99,42 99,39 102,39 102,42 105,42 105,39 108,39 108,36 105,36 105,33 102,33 102,36 99,36 99,33 102,33 102,30 99,30 99,27 102,27 102,30 105,30 105,27 108,27 108,30 105,30 105,33 108,33 108,36 111,36 111,33 114,33 114,30 111,30 111,27 114,27 114,30 117,30 117,27 120,27 120,24 117,24 117,21 114,21 114,24 111,24 111,21 114,21 114,18 111,18 111,15 108,15 108,18 105,18 105,21 108,21 108,24 105,24 105,21 102,21 102,24 99,24 99,21 102,21 102,18 99,18 99,15 102,15 102,18 105,18 105,15 108,15 108,12 105,12 105,9 102,9 102,12 99,12 99,9 102,9 102,6 99,6 99,3 102,3 102,6 105,6 105,3 108,3 108,6 105,6 105,9 108,9 108,12 111,12 111,9 114,9 114,6 111,6 111,3 114,3 114,6 117,6 117,3 120,3 120,6 117,6 117,9 120,9 120,12 117,12 117,9 114,9 114,12 111,12 111,15 114,15 114,18 117,18 117,15 120,15 120,18 117,18 117,21 120,21 120,24 123,24 123,21 126,21 126,18 123,18 123,15 126,15 126,18 129,18 129,15 132,15 132,12 129,12 129,9 126,9 126,12 123,12 123,9 126,9 126,6 123,6 123,3 126,3 126,6 129,6 129,3 132,3 132,6 129,6 129,9 132,9 132,12 135,12 135,9 138,9 138,6 135,6 135,3 138,3 138,6 141,6 141,3 144,3 144,6 141,6 141,9 144,9 144,12 141,12 141,9 138,9 138,12 135,12 135,15 138,15 138,18 141,18 141,15 144,15 144,18 141,18 141,21 144,21 144,24 141,24 141,21 138,21 138,24 135,24 135,21 138,21 138,18 135,18 135,15 132,15 132,18 129,18 129,21 132,21 132,24 129,24 129,21 126,21 126,24 123,24 123,27 126,27 126,30 129,30 129,27 132,27 132,30 129,30 129,33 132,33 132,36 135,36 135,33 138,33 138,30 135,30 135,27 138,27 138,30 141,30 141,27 144,27 144,30 141,30 141,33 144,33 144,36 141,36 141,33 138,33 138,36 135,36 135,39 138,39 138,42 141,42 141,39 144,39 144,42 141,42 141,45 144,45 144,48 147,48 147,45 150,45 150,42 147,42 147,39 150,39 150,42 153,42 153,39 156,39 156,36 153,36 153,33 150,33 150,36 147,36 147,33 150,33 150,30 147,30 147,27 150,27 150,30 153,30 153,27 156,27 156,30 153,30 153,33 156,33 156,36 159,36 159,33 162,33 162,30 159,30 159,27 162,27 162,30 165,30 165,27 168,27 168,24 165,24 165,21 162,21 162,24 159,24 159,21 162,21 162,18 159,18 159,15 156,15 156,18 153,18 153,21 156,21 156,24 153,24 153,21 150,21 150,24 147,24 147,21 150,21 150,18 147,18 147,15 150,15 150,18 153,18 153,15 156,15 156,12 153,12 153,9 150,9 150,12 147,12 147,9 150,9 150,6 147,6 147,3 150,3 150,6 153,6 153,3 156,3 156,6 153,6 153,9 156,9 156,12 159,12 159,9 162,9 162,6 159,6 159,3 162,3 162,6 165,6 165,3 168,3 168,6 165,6 165,9 168,9 168,12 165,12 165,9 162,9 162,12 159,12 159,15 162,15 162,18 165,18 165,15 168,15 168,18 165,18 165,21 168,21 168,24 171,24 171,21 174,21 174,18 171,18 171,15 174,15 174,18 177,18 177,15 180,15 180,12 177,12 177,9 174,9 174,12 171,12 171,9 174,9 174,6 171,6 171,3 174,3 174,6 177,6 177,3 180,3 180,6 177,6 177,9 180,9 180,12 183,12 183,9 186,9 186,6 183,6 183,3 186,3 186,6 189,6 189,3 192,3 192,6 189,6 189,9 192,9 192,12 189,12 189,9 186,9 186,12 183,12 183,15 186,15 186,18 189,18 189,15 192,15 192,18 189,18 189,21 192,21 192,24 189,24 189,21 186,21 186,24 183,24 183,21 186,21 186,18 183,18 183,15 180,15 180,18 177,18 177,21 180,21 180,24 177,24 177,21 174,21 174,24 171,24 171,27 174,27 174,30 177,30 177,27 180,27 180,30 177,30 177,33 180,33 180,36 183,36 183,33 186,33 186,30 183,30 183,27 186,27 186,30 189,30 189,27 192,27 192,30 189,30 189,33 192,33 192,36 189,36 189,33 186,33 186,36 183,36 183,39 186,39 186,42 189,42 189,39 192,39 192,42 189,42 189,45 192,45 192,48 189,48 189,45 186,45 186,48 183,48 183,45 186,45 186,42 183,42 183,39 180,39 180,42 177,42 177,45 180,45 180,48 177,48 177,45 174,45 174,48 171,48 171,45 174,45 174,42 171,42 171,39 174,39 174,42 177,42 177,39 180,39 180,36 177,36 177,33 174,33 174,36 171,36 171,33 174,33 174,30 171,30 171,27 168,27 168,30 165,30 165,33 168,33 168,36 165,36 165,33 162,33 162,36 159,36 159,39 162,39 162,42 165,42 165,39 168,39 168,42 165,42 165,45 168,45 168,48 165,48 165,45 162,45 162,48 159,48 159,45 162,45 162,42 159,42 159,39 156,39 156,42 153,42 153,45 156,45 156,48 153,48 153,45 150,45 150,48 147,48 147,51 150,51 150,54 153,54 153,51 156,51 156,54 153,54 153,57 156,57 156,60 159,60 159,57 162,57 162,54 159,54 159,51 162,51 162,54 165,54 165,51 168,51 168,54 165,54 165,57 168,57 168,60 165,60 165,57 162,57 162,60 159,60 159,63 162,63 162,66 165,66 165,63 168,63 168,66 165,66 165,69 168,69 168,72 171,72 171,69 174,69 174,66 171,66 171,63 174,63 174,66 177,66 177,63 180,63 180,60 177,60 177,57 174,57 174,60 171,60 171,57 174,57 174,54 171,54 171,51 174,51 174,54 177,54 177,51 180,51 180,54 177,54 177,57 180,57 180,60 183,60 183,57 186,57 186,54 183,54 183,51 186,51 186,54 189,54 189,51 192,51 192,54 189,54 189,57 192,57 192,60 189,60 189,57 186,57 186,60 183,60 183,63 186,63 186,66 189,66 189,63 192,63 192,66 189,66 189,69 192,69 192,72 189,72 189,69 186,69 186,72 183,72 183,69 186,69 186,66 183,66 183,63 180,63 180,66 177,66 177,69 180,69 180,72 177,72 177,69 174,69 174,72 171,72 171,75 174,75 174,78 177,78 177,75 180,75 180,78 177,78 177,81 180,81 180,84 183,84 183,81 186,81 186,78 183,78 183,75 186,75 186,78 189,78 189,75 192,75 192,78 189,78 189,81 192,81 192,84 189,84 189,81 186,81 186,84 183,84 183,87 186,87 186,90 189,90 189,87 192,87 192,90 189,90 189,93 192,93 192,96 189,96 189,93 186,93 186,96 183,96 183,93 186,93 186,90 183,90 183,87 180,87 180,90 177,90 177,93 180,93 180,96 177,96 177,93 174,93 174,96 171,96 171,93 174,93 174,90 171,90 171,87 174,87 174,90 177,90 177,87 180,87 180,84 177,84 177,81 174,81 174,84 171,84 171,81 174,81 174,78 171,78 171,75 168,75 168,78 165,78 165,81 168,81 168,84 165,84 165,81 162,81 162,84 159,84 159,87 162,87 162,90 165,90 165,87 168,87 168,90 165,90 165,93 168,93 168,96 165,96 165,93 162,93 162,96 159,96 159,93 162,93 162,90 159,90 159,87 156,87 156,90 153,90 153,93 156,93 156,96 153,96 153,93 150,93 150,96 147,96 147,93 150,93 150,90 147,90 147,87 150,87 150,90 153,90 153,87 156,87 156,84 153,84 153,81 150,81 150,84 147,84 147,81 150,81 150,78 147,78 147,75 150,75 150,78 153,78 153,75 156,75 156,78 153,78 153,81 156,81 156,84 159,84 159,81 162,81 162,78 159,78 159,75 162,75 162,78 165,78 165,75 168,75 168,72 165,72 165,69 162,69 162,72 159,72 159,69 162,69 162,66 159,66 159,63 156,63 156,66 153,66 153,69 156,69 156,72 153,72 153,69 150,69 150,72 147,72 147,69 150,69 150,66 147,66 147,63 150,63 150,66 153,66 153,63 156,63 156,60 153,60 153,57 150,57 150,60 147,60 147,57 150,57 150,54 147,54 147,51 144,51 144,54 141,54 141,57 144,57 144,60 141,60 141,57 138,57 138,60 135,60 135,63 138,63 138,66 141,66 141,63 144,63 144,66 141,66 141,69 144,69 144,72 141,72 141,69 138,69 138,72 135,72 135,69 138,69 138,66 135,66 135,63 132,63 132,66 129,66 129,69 132,69 132,72 129,72 129,69 126,69 126,72 123,72 123,75 126,75 126,78 129,78 129,75 132,75 132,78 129,78 129,81 132,81 132,84 135,84 135,81 138,81 138,78 135,78 135,75 138,75 138,78 141,78 141,75 144,75 144,78 141,78 141,81 144,81 144,84 141,84 141,81 138,81 138,84 135,84 135,87 138,87 138,90 141,90 141,87 144,87 144,90 141,90 141,93 144,93 144,96 141,96 141,93 138,93 138,96 135,96 135,93 138,93 138,90 135,90 135,87 132,87 132,90 129,90 129,93 132,93 132,96 129,96 129,93 126,93 126,96 123,96 123,93 126,93 126,90 123,90 123,87 126,87 126,90 129,90 129,87 132,87 132,84 129,84 129,81 126,81 126,84 123,84 123,81 126,81 126,78 123,78 123,75 120,75 120,78 117,78 117,81 120,81 120,84 117,84 117,81 114,81 114,84 111,84 111,87 114,87 114,90 117,90 117,87 120,87 120,90 117,90 117,93 120,93 120,96 117,96 117,93 114,93 114,96 111,96 111,93 114,93 114,90 111,90 111,87 108,87 108,90 105,90 105,93 108,93 108,96 105,96 105,93 102,93 102,96 99,96 99,99 102,99 102,102 105,102 105,99 108,99 108,102 105,102 105,105 108,105 108,108 111,108 111,105 114,105 114,102 111,102 111,99 114,99 114,102 117,102 117,99 120,99 120,102 117,102 117,105 120,105 120,108 117,108 117,105 114,105 114,108 111,108 111,111 114,111 114,114 117,114 117,111 120,111 120,114 117,114 117,117 120,117 120,120 123,120 123,117 126,117 126,114 123,114 123,111 126,111 126,114 129,114 129,111 132,111 132,108 129,108 129,105 126,105 126,108 123,108 123,105 126,105 126,102 123,102 123,99 126,99 126,102 129,102 129,99 132,99 132,102 129,102 129,105 132,105 132,108 135,108 135,105 138,105 138,102 135,102 135,99 138,99 138,102 141,102 141,99 144,99 144,102 141,102 141,105 144,105 144,108 141,108 141,105 138,105 138,108 135,108 135,111 138,111 138,114 141,114 141,111 144,111 144,114 141,114 141,117 144,117 144,120 141,120 141,117 138,117 138,120 135,120 135,117 138,117 138,114 135,114 135,111 132,111 132,114 129,114 129,117 132,117 132,120 129,120 129,117 126,117 126,120 123,120 123,123 126,123 126,126 129,126 129,123 132,123 132,126 129,126 129,129 132,129 132,132 135,132 135,129 138,129 138,126 135,126 135,123 138,123 138,126 141,126 141,123 144,123 144,126 141,126 141,129 144,129 144,132 141,132 141,129 138,129 138,132 135,132 135,135 138,135 138,138 141,138 141,135 144,135 144,138 141,138 141,141 144,141 144,144 147,144 147,141 150,141 150,138 147,138 147,135 150,135 150,138 153,138 153,135 156,135 156,132 153,132 153,129 150,129 150,132 147,132 147,129 150,129 150,126 147,126 147,123 150,123 150,126 153,126 153,123 156,123 156,126 153,126 153,129 156,129 156,132 159,132 159,129 162,129 162,126 159,126 159,123 162,123 162,126 165,126 165,123 168,123 168,120 165,120 165,117 162,117 162,120 159,120 159,117 162,117 162,114 159,114 159,111 156,111 156,114 153,114 153,117 156,117 156,120 153,120 153,117 150,117 150,120 147,120 147,117 150,117 150,114 147,114 147,111 150,111 150,114 153,114 153,111 156,111 156,108 153,108 153,105 150,105 150,108 147,108 147,105 150,105 150,102 147,102 147,99 150,99 150,102 153,102 153,99 156,99 156,102 153,102 153,105 156,105 156,108 159,108 159,105 162,105 162,102 159,102 159,99 162,99 162,102 165,102 165,99 168,99 168,102 165,102 165,105 168,105 168,108 165,108 165,105 162,105 162,108 159,108 159,111 162,111 162,114 165,114 165,111 168,111 168,114 165,114 165,117 168,117 168,120 171,120 171,117 174,117 174,114 171,114 171,111 174,111 174,114 177,114 177,111 180,111 180,108 177,108 177,105 174,105 174,108 171,108 171,105 174,105 174,102 171,102 171,99 174,99 174,102 177,102 177,99 180,99 180,102 177,102 177,105 180,105 180,108 183,108 183,105 186,105 186,102 183,102 183,99 186,99 186,102 189,102 189,99 192,99 192,102 189,102 189,105 192,105 192,108 189,108 189,105 186,105 186,108 183,108 183,111 186,111 186,114 189,114 189,111 192,111 192,114 189,114 189,117 192,117 192,120 189,120 189,117 186,117 186,120 183,120 183,117 186,117 186,114 183,114 183,111 180,111 180,114 177,114 177,117 180,117 180,120 177,120 177,117 174,117 174,120 171,120 171,123 174,123 174,126 177,126 177,123 180,123 180,126 177,126 177,129 180,129 180,132 183,132 183,129 186,129 186,126 183,126 183,123 186,123 186,126 189,126 189,123 192,123 192,126 189,126 189,129 192,129 192,132 189,132 189,129 186,129 186,132 183,132 183,135 186,135 186,138 189,138 189,135 192,135 192,138 189,138 189,141 192,141 192,144 189,144 189,141 186,141 186,144 183,144 183,141 186,141 186,138 183,138 183,135 180,135 180,138 177,138 177,141 180,141 180,144 177,144 177,141 174,141 174,144 171,144 171,141 174,141 174,138 171,138 171,135 174,135 174,138 177,138 177,135 180,135 180,132 177,132 177,129 174,129 174,132 171,132 171,129 174,129 174,126 171,126 171,123 168,123 168,126 165,126 165,129 168,129 168,132 165,132 165,129 162,129 162,132 159,132 159,135 162,135 162,138 165,138 165,135 168,135 168,138 165,138 165,141 168,141 168,144 165,144 165,141 162,141 162,144 159,144 159,141 162,141 162,138 159,138 159,135 156,135 156,138 153,138 153,141 156,141 156,144 153,144 153,141 150,141 150,144 147,144 147,147 150,147 150,150 153,150 153,147 156,147 156,150 153,150 153,153 156,153 156,156 159,156 159,153 162,153 162,150 159,150 159,147 162,147 162,150 165,150 165,147 168,147 168,150 165,150 165,153 168,153 168,156 165,156 165,153 162,153 162,156 159,156 159,159 162,159 162,162 165,162 165,159 168,159 168,162 165,162 165,165 168,165 168,168 171,168 171,165 174,165 174,162 171,162 171,159 174,159 174,162 177,162 177,159 180,159 180,156 177,156 177,153 174,153 174,156 171,156 171,153 174,153 174,150 171,150 171,147 174,147 174,150 177,150 177,147 180,147 180,150 177,150 177,153 180,153 180,156 183,156 183,153 186,153 186,150 183,150 183,147 186,147 186,150 189,150 189,147 192,147 192,150 189,150 189,153 192,153 192,156 189,156 189,153 186,153 186,156 183,156 183,159 186,159 186,162 189,162 189,159 192,159 192,162 189,162 189,165 192,165 192,168 189,168 189,165 186,165 186,168 183,168 183,165 186,165 186,162 183,162 183,159 180,159 180,162 177,162 177,165 180,165 180,168 177,168 177,165 174,165 174,168 171,168 171,171 174,171 174,174 177,174 177,171 180,171 180,174 177,174 177,177 180,177 180,180 183,180 183,177 186,177 186,174 183,174 183,171 186,171 186,174 189,174 189,171 192,171 192,174 189,174 189,177 192,177 192,180 189,180 189,177 186,177 186,180 183,180 183,183 186,183 186,186 189,186 189,183 192,183 192,186 189,186 189,189 192,189 192,192 195,192 195,189 198,189 198,186 195,186 195,183 198,183 198,186 201,186 201,183 204,183 204,180 201,180 201,177 198,177 198,180 195,180 195,177 198,177 198,174 195,174 195,171 198,171 198,174 201,174 201,171 204,171 204,174 201,174 201,177 204,177 204,180 207,180 207,177 210,177 210,174 207,174 207,171 210,171 210,174 213,174 213,171 216,171 216,168 213,168 213,165 210,165 210,168 207,168 207,165 210,165 210,162 207,162 207,159 204,159 204,162 201,162 201,165 204,165 204,168 201,168 201,165 198,165 198,168 195,168 195,165 198,165 198,162 195,162 195,159 198,159 198,162 201,162 201,159 204,159 204,156 201,156 201,153 198,153 198,156 195,156 195,153 198,153 198,150 195,150 195,147 198,147 198,150 201,150 201,147 204,147 204,150 201,150 201,153 204,153 204,156 207,156 207,153 210,153 210,150 207,150 207,147 210,147 210,150 213,150 213,147 216,147 216,150 213,150 213,153 216,153 216,156 213,156 213,153 210,153 210,156 207,156 207,159 210,159 210,162 213,162 213,159 216,159 216,162 213,162 213,165 216,165 216,168 219,168 219,165 222,165 222,162 219,162 219,159 222,159 222,162 225,162 225,159 228,159 228,156 225,156 225,153 222,153 222,156 219,156 219,153 222,153 222,150 219,150 219,147 222,147 222,150 225,150 225,147 228,147 228,150 225,150 225,153 228,153 228,156 231,156 231,153 234,153 234,150 231,150 231,147 234,147 234,150 237,150 237,147 240,147 240,144 237,144 237,141 234,141 234,144 231,144 231,141 234,141 234,138 231,138 231,135 228,135 228,138 225,138 225,141 228,141 228,144 225,144 225,141 222,141 222,144 219,144 219,141 222,141 222,138 219,138 219,135 222,135 222,138 225,138 225,135 228,135 228,132 225,132 225,129 222,129 222,132 219,132 219,129 222,129 222,126 219,126 219,123 216,123 216,126 213,126 213,129 216,129 216,132 213,132 213,129 210,129 210,132 207,132 207,135 210,135 210,138 213,138 213,135 216,135 216,138 213,138 213,141 216,141 216,144 213,144 213,141 210,141 210,144 207,144 207,141 210,141 210,138 207,138 207,135 204,135 204,138 201,138 201,141 204,141 204,144 201,144 201,141 198,141 198,144 195,144 195,141 198,141 198,138 195,138 195,135 198,135 198,138 201,138 201,135 204,135 204,132 201,132 201,129 198,129 198,132 195,132 195,129 198,129 198,126 195,126 195,123 198,123 198,126 201,126 201,123 204,123 204,126 201,126 201,129 204,129 204,132 207,132 207,129 210,129 210,126 207,126 207,123 210,123 210,126 213,126 213,123 216,123 216,120 213,120 213,117 210,117 210,120 207,120 207,117 210,117 210,114 207,114 207,111 204,111 204,114 201,114 201,117 204,117 204,120 201,120 201,117 198,117 198,120 195,120 195,117 198,117 198,114 195,114 195,111 198,111 198,114 201,114 201,111 204,111 204,108 201,108 201,105 198,105 198,108 195,108 195,105 198,105 198,102 195,102 195,99 198,99 198,102 201,102 201,99 204,99 204,102 201,102 201,105 204,105 204,108 207,108 207,105 210,105 210,102 207,102 207,99 210,99 210,102 213,102 213,99 216,99 216,102 213,102 213,105 216,105 216,108 213,108 213,105 210,105 210,108 207,108 207,111 210,111 210,114 213,114 213,111 216,111 216,114 213,114 213,117 216,117 216,120 219,120 219,117 222,117 222,114 219,114 219,111 222,111 222,114 225,114 225,111 228,111 228,108 225,108 225,105 222,105 222,108 219,108 219,105 222,105 222,102 219,102 219,99 222,99 222,102 225,102 225,99 228,99 228,102 225,102 225,105 228,105 228,108 231,108 231,105 234,105 234,102 231,102 231,99 234,99 234,102 237,102 237,99 240,99 240,102 237,102 237,105 240,105 240,108 237,108 237,105 234,105 234,108 231,108 231,111 234,111 234,114 237,114 237,111 240,111 240,114 237,114 237,117 240,117 240,120 237,120 237,117 234,117 234,120 231,120 231,117 234,117 234,114 231,114 231,111 228,111 228,114 225,114 225,117 228,117 228,120 225,120 225,117 222,117 222,120 219,120 219,123 222,123 222,126 225,126 225,123 228,123 228,126 225,126 225,129 228,129 228,132 231,132 231,129 234,129 234,126 231,126 231,123 234,123 234,126 237,126 237,123 240,123 240,126 237,126 237,129 240,129 240,132 237,132 237,129 234,129 234,132 231,132 231,135 234,135 234,138 237,138 237,135 240,135 240,138 237,138 237,141 240,141 240,144 243,144 243,141 246,141 246,138 243,138 243,135 246,135 246,138 249,138 249,135 252,135 252,132 249,132 249,129 246,129 246,132 243,132 243,129 246,129 246,126 243,126 243,123 246,123 246,126 249,126 249,123 252,123 252,126 249,126 249,129 252,129 252,132 255,132 255,129 258,129 258,126 255,126 255,123 258,123 258,126 261,126 261,123 264,123 264,120 261,120 261,117 258,117 258,120 255,120 255,117 258,117 258,114 255,114 255,111 252,111 252,114 249,114 249,117 252,117 252,120 249,120 249,117 246,117 246,120 243,120 243,117 246,117 246,114 243,114 243,111 246,111 246,114 249,114 249,111 252,111 252,108 249,108 249,105 246,105 246,108 243,108 243,105 246,105 246,102 243,102 243,99 246,99 246,102 249,102 249,99 252,99 252,102 249,102 249,105 252,105 252,108 255,108 255,105 258,105 258,102 255,102 255,99 258,99 258,102 261,102 261,99 264,99 264,102 261,102 261,105 264,105 264,108 261,108 261,105 258,105 258,108 255,108 255,111 258,111 258,114 261,114 261,111 264,111 264,114 261,114 261,117 264,117 264,120 267,120 267,117 270,117 270,114 267,114 267,111 270,111 270,114 273,114 273,111 276,111 276,108 273,108 273,105 270,105 270,108 267,108 267,105 270,105 270,102 267,102 267,99 270,99 270,102 273,102 273,99 276,99 276,102 273,102 273,105 276,105 276,108 279,108 279,105 282,105 282,102 279,102 279,99 282,99 282,102 285,102 285,99 288,99 288,96 285,96 285,93 282,93 282,96 279,96 279,93 282,93 282,90 279,90 279,87 276,87 276,90 273,90 273,93 276,93 276,96 273,96 273,93 270,93 270,96 267,96 267,93 270,93 270,90 267,90 267,87 270,87 270,90 273,90 273,87 276,87 276,84 273,84 273,81 270,81 270,84 267,84 267,81 270,81 270,78 267,78 267,75 264,75 264,78 261,78 261,81 264,81 264,84 261,84 261,81 258,81 258,84 255,84 255,87 258,87 258,90 261,90 261,87 264,87 264,90 261,90 261,93 264,93 264,96 261,96 261,93 258,93 258,96 255,96 255,93 258,93 258,90 255,90 255,87 252,87 252,90 249,90 249,93 252,93 252,96 249,96 249,93 246,93 246,96 243,96 243,93 246,93 246,90 243,90 243,87 246,87 246,90 249,90 249,87 252,87 252,84 249,84 249,81 246,81 246,84 243,84 243,81 246,81 246,78 243,78 243,75 246,75 246,78 249,78 249,75 252,75 252,78 249,78 249,81 252,81 252,84 255,84 255,81 258,81 258,78 255,78 255,75 258,75 258,78 261,78 261,75 264,75 264,72 261,72 261,69 258,69 258,72 255,72 255,69 258,69 258,66 255,66 255,63 252,63 252,66 249,66 249,69 252,69 252,72 249,72 249,69 246,69 246,72 243,72 243,69 246,69 246,66 243,66 243,63 246,63 246,66 249,66 249,63 252,63 252,60 249,60 249,57 246,57 246,60 243,60 243,57 246,57 246,54 243,54 243,51 240,51 240,54 237,54 237,57 240,57 240,60 237,60 237,57 234,57 234,60 231,60 231,63 234,63 234,66 237,66 237,63 240,63 240,66 237,66 237,69 240,69 240,72 237,72 237,69 234,69 234,72 231,72 231,69 234,69 234,66 231,66 231,63 228,63 228,66 225,66 225,69 228,69 228,72 225,72 225,69 222,69 222,72 219,72 219,75 222,75 222,78 225,78 225,75 228,75 228,78 225,78 225,81 228,81 228,84 231,84 231,81 234,81 234,78 231,78 231,75 234,75 234,78 237,78 237,75 240,75 240,78 237,78 237,81 240,81 240,84 237,84 237,81 234,81 234,84 231,84 231,87 234,87 234,90 237,90 237,87 240,87 240,90 237,90 237,93 240,93 240,96 237,96 237,93 234,93 234,96 231,96 231,93 234,93 234,90 231,90 231,87 228,87 228,90 225,90 225,93 228,93 228,96 225,96 225,93 222,93 222,96 219,96 219,93 222,93 222,90 219,90 219,87 222,87 222,90 225,90 225,87 228,87 228,84 225,84 225,81 222,81 222,84 219,84 219,81 222,81 222,78 219,78 219,75 216,75 216,78 213,78 213,81 216,81 216,84 213,84 213,81 210,81 210,84 207,84 207,87 210,87 210,90 213,90 213,87 216,87 216,90 213,90 213,93 216,93 216,96 213,96 213,93 210,93 210,96 207,96 207,93 210,93 210,90 207,90 207,87 204,87 204,90 201,90 201,93 204,93 204,96 201,96 201,93 198,93 198,96 195,96 195,93 198,93 198,90 195,90 195,87 198,87 198,90 201,90 201,87 204,87 204,84 201,84 201,81 198,81 198,84 195,84 195,81 198,81 198,78 195,78 195,75 198,75 198,78 201,78 201,75 204,75 204,78 201,78 201,81 204,81 204,84 207,84 207,81 210,81 210,78 207,78 207,75 210,75 210,78 213,78 213,75 216,75 216,72 213,72 213,69 210,69 210,72 207,72 207,69 210,69 210,66 207,66 207,63 204,63 204,66 201,66 201,69 204,69 204,72 201,72 201,69 198,69 198,72 195,72 195,69 198,69 198,66 195,66 195,63 198,63 198,66 201,66 201,63 204,63 204,60 201,60 201,57 198,57 198,60 195,60 195,57 198,57 198,54 195,54 195,51 198,51 198,54 201,54 201,51 204,51 204,54 201,54 201,57 204,57 204,60 207,60 207,57 210,57 210,54 207,54 207,51 210,51 210,54 213,54 213,51 216,51 216,54 213,54 213,57 216,57 216,60 213,60 213,57 210,57 210,60 207,60 207,63 210,63 210,66 213,66 213,63 216,63 216,66 213,66 213,69 216,69 216,72 219,72 219,69 222,69 222,66 219,66 219,63 222,63 222,66 225,66 225,63 228,63 228,60 225,60 225,57 222,57 222,60 219,60 219,57 222,57 222,54 219,54 219,51 222,51 222,54 225,54 225,51 228,51 228,54 225,54 225,57 228,57 228,60 231,60 231,57 234,57 234,54 231,54 231,51 234,51 234,54 237,54 237,51 240,51 240,48 237,48 237,45 234,45 234,48 231,48 231,45 234,45 234,42 231,42 231,39 228,39 228,42 225,42 225,45 228,45 228,48 225,48 225,45 222,45 222,48 219,48 219,45 222,45 222,42 219,42 219,39 222,39 222,42 225,42 225,39 228,39 228,36 225,36 225,33 222,33 222,36 219,36 219,33 222,33 222,30 219,30 219,27 216,27 216,30 213,30 213,33 216,33 216,36 213,36 213,33 210,33 210,36 207,36 207,39 210,39 210,42 213,42 213,39 216,39 216,42 213,42 213,45 216,45 216,48 213,48 213,45 210,45 210,48 207,48 207,45 210,45 210,42 207,42 207,39 204,39 204,42 201,42 201,45 204,45 204,48 201,48 201,45 198,45 198,48 195,48 195,45 198,45 198,42 195,42 195,39 198,39 198,42 201,42 201,39 204,39 204,36 201,36 201,33 198,33 198,36 195,36 195,33 198,33 198,30 195,30 195,27 198,27 198,30 201,30 201,27 204,27 204,30 201,30 201,33 204,33 204,36 207,36 207,33 210,33 210,30 207,30 207,27 210,27 210,30 213,30 213,27 216,27 216,24 213,24 213,21 210,21 210,24 207,24 207,21 210,21 210,18 207,18 207,15 204,15 204,18 201,18 201,21 204,21 204,24 201,24 201,21 198,21 198,24 195,24 195,21 198,21 198,18 195,18 195,15 198,15 198,18 201,18 201,15 204,15 204,12 201,12 201,9 198,9 198,12 195,12 195,9 198,9 198,6 195,6 195,3 198,3 198,6 201,6 201,3 204,3 204,6 201,6 201,9 204,9 204,12 207,12 207,9 210,9 210,6 207,6 207,3 210,3 210,6 213,6 213,3 216,3 216,6 213,6 213,9 216,9 216,12 213,12 213,9 210,9 210,12 207,12 207,15 210,15 210,18 213,18 213,15 216,15 216,18 213,18 213,21 216,21 216,24 219,24 219,21 222,21 222,18 219,18 219,15 222,15 222,18 225,18 225,15 228,15 228,12 225,12 225,9 222,9 222,12 219,12 219,9 222,9 222,6 219,6 219,3 222,3 222,6 225,6 225,3 228,3 228,6 225,6 225,9 228,9 228,12 231,12 231,9 234,9 234,6 231,6 231,3 234,3 234,6 237,6 237,3 240,3 240,6 237,6 237,9 240,9 240,12 237,12 237,9 234,9 234,12 231,12 231,15 234,15 234,18 237,18 237,15 240,15 240,18 237,18 237,21 240,21 240,24 237,24 237,21 234,21 234,24 231,24 231,21 234,21 234,18 231,18 231,15 228,15 228,18 225,18 225,21 228,21 228,24 225,24 225,21 222,21 222,24 219,24 219,27 222,27 222,30 225,30 225,27 228,27 228,30 225,30 225,33 228,33 228,36 231,36 231,33 234,33 234,30 231,30 231,27 234,27 234,30 237,30 237,27 240,27 240,30 237,30 237,33 240,33 240,36 237,36 237,33 234,33 234,36 231,36 231,39 234,39 234,42 237,42 237,39 240,39 240,42 237,42 237,45 240,45 240,48 243,48 243,45 246,45 246,42 243,42 243,39 246,39 246,42 249,42 249,39 252,39 252,36 249,36 249,33 246,33 246,36 243,36 243,33 246,33 246,30 243,30 243,27 246,27 246,30 249,30 249,27 252,27 252,30 249,30 249,33 252,33 252,36 255,36 255,33 258,33 258,30 255,30 255,27 258,27 258,30 261,30 261,27 264,27 264,24 261,24 261,21 258,21 258,24 255,24 255,21 258,21 258,18 255,18 255,15 252,15 252,18 249,18 249,21 252,21 252,24 249,24 249,21 246,21 246,24 243,24 243,21 246,21 246,18 243,18 243,15 246,15 246,18 249,18 249,15 252,15 252,12 249,12 249,9 246,9 246,12 243,12 243,9 246,9 246,6 243,6 243,3 246,3 246,6 249,6 249,3 252,3 252,6 249,6 249,9 252,9 252,12 255,12 255,9 258,9 258,6 255,6 255,3 258,3 258,6 261,6 261,3 264,3 264,6 261,6 261,9 264,9 264,12 261,12 261,9 258,9 258,12 255,12 255,15 258,15 258,18 261,18 261,15 264,15 264,18 261,18 261,21 264,21 264,24 267,24 267,21 270,21 270,18 267,18 267,15 270,15 270,18 273,18 273,15 276,15 276,12 273,12 273,9 270,9 270,12 267,12 267,9 270,9 270,6 267,6 267,3 270,3 270,6 273,6 273,3 276,3 276,6 273,6 273,9 276,9 276,12 279,12 279,9 282,9 282,6 279,6 279,3 282,3 282,6 285,6 285,3 288,3 288,6 285,6 285,9 288,9 288,12 285,12 285,9 282,9 282,12 279,12 279,15 282,15 282,18 285,18 285,15 288,15 288,18 285,18 285,21 288,21 288,24 285,24 285,21 282,21 282,24 279,24 279,21 282,21 282,18 279,18 279,15 276,15 276,18 273,18 273,21 276,21 276,24 273,24 273,21 270,21 270,24 267,24 267,27 270,27 270,30 273,30 273,27 276,27 276,30 273,30 273,33 276,33 276,36 279,36 279,33 282,33 282,30 279,30 279,27 282,27 282,30 285,30 285,27 288,27 288,30 285,30 285,33 288,33 288,36 285,36 285,33 282,33 282,36 279,36 279,39 282,39 282,42 285,42 285,39 288,39 288,42 285,42 285,45 288,45 288,48 285,48 285,45 282,45 282,48 279,48 279,45 282,45 282,42 279,42 279,39 276,39 276,42 273,42 273,45 276,45 276,48 273,48 273,45 270,45 270,48 267,48 267,45 270,45 270,42 267,42 267,39 270,39 270,42 273,42 273,39 276,39 276,36 273,36 273,33 270,33 270,36 267,36 267,33 270,33 270,30 267,30 267,27 264,27 264,30 261,30 261,33 264,33 264,36 261,36 261,33 258,33 258,36 255,36 255,39 258,39 258,42 261,42 261,39 264,39 264,42 261,42 261,45 264,45 264,48 261,48 261,45 258,45 258,48 255,48 255,45 258,45 258,42 255,42 255,39 252,39 252,42 249,42 249,45 252,45 252,48 249,48 249,45 246,45 246,48 243,48 243,51 246,51 246,54 249,54 249,51 252,51 252,54 249,54 249,57 252,57 252,60 255,60 255,57 258,57 258,54 255,54 255,51 258,51 258,54 261,54 261,51 264,51 264,54 261,54 261,57 264,57 264,60 261,60 261,57 258,57 258,60 255,60 255,63 258,63 258,66 261,66 261,63 264,63 264,66 261,66 261,69 264,69 264,72 267,72 267,69 270,69 270,66 267,66 267,63 270,63 270,66 273,66 273,63 276,63 276,60 273,60 273,57 270,57 270,60 267,60 267,57 270,57 270,54 267,54 267,51 270,51 270,54 273,54 273,51 276,51 276,54 273,54 273,57 276,57 276,60 279,60 279,57 282,57 282,54 279,54 279,51 282,51 282,54 285,54 285,51 288,51 288,54 285,54 285,57 288,57 288,60 285,60 285,57 282,57 282,60 279,60 279,63 282,63 282,66 285,66 285,63 288,63 288,66 285,66 285,69 288,69 288,72 285,72 285,69 282,69 282,72 279,72 279,69 282,69 282,66 279,66 279,63 276,63 276,66 273,66 273,69 276,69 276,72 273,72 273,69 270,69 270,72 267,72 267,75 270,75 270,78 273,78 273,75 276,75 276,78 273,78 273,81 276,81 276,84 279,84 279,81 282,81 282,78 279,78 279,75 282,75 282,78 285,78 285,75 288,75 288,78 285,78 285,81 288,81 288,84 285,84 285,81 282,81 282,84 279,84 279,87 282,87 282,90 285,90 285,87 288,87 288,90 285,90 285,93 288,93 288,96 291,96 291,93 294,93 294,90 291,90 291,87 294,87 294,90 297,90 297,87 300,87 300,84 297,84 297,81 294,81 294,84 291,84 291,81 294,81 294,78 291,78 291,75 294,75 294,78 297,78 297,75 300,75 300,78 297,78 297,81 300,81 300,84 303,84 303,81 306,81 306,78 303,78 303,75 306,75 306,78 309,78 309,75 312,75 312,72 309,72 309,69 306,69 306,72 303,72 303,69 306,69 306,66 303,66 303,63 300,63 300,66 297,66 297,69 300,69 300,72 297,72 297,69 294,69 294,72 291,72 291,69 294,69 294,66 291,66 291,63 294,63 294,66 297,66 297,63 300,63 300,60 297,60 297,57 294,57 294,60 291,60 291,57 294,57 294,54 291,54 291,51 294,51 294,54 297,54 297,51 300,51 300,54 297,54 297,57 300,57 300,60 303,60 303,57 306,57 306,54 303,54 303,51 306,51 306,54 309,54 309,51 312,51 312,54 309,54 309,57 312,57 312,60 309,60 309,57 306,57 306,60 303,60 303,63 306,63 306,66 309,66 309,63 312,63 312,66 309,66 309,69 312,69 312,72 315,72 315,69 318,69 318,66 315,66 315,63 318,63 318,66 321,66 321,63 324,63 324,60 321,60 321,57 318,57 318,60 315,60 315,57 318,57 318,54 315,54 315,51 318,51 318,54 321,54 321,51 324,51 324,54 321,54 321,57 324,57 324,60 327,60 327,57 330,57 330,54 327,54 327,51 330,51 330,54 333,54 333,51 336,51 336,48 333,48 333,45 330,45 330,48 327,48 327,45 330,45 330,42 327,42 327,39 324,39 324,42 321,42 321,45 324,45 324,48 321,48 321,45 318,45 318,48 315,48 315,45 318,45 318,42 315,42 315,39 318,39 318,42 321,42 321,39 324,39 324,36 321,36 321,33 318,33 318,36 315,36 315,33 318,33 318,30 315,30 315,27 312,27 312,30 309,30 309,33 312,33 312,36 309,36 309,33 306,33 306,36 303,36 303,39 306,39 306,42 309,42 309,39 312,39 312,42 309,42 309,45 312,45 312,48 309,48 309,45 306,45 306,48 303,48 303,45 306,45 306,42 303,42 303,39 300,39 300,42 297,42 297,45 300,45 300,48 297,48 297,45 294,45 294,48 291,48 291,45 294,45 294,42 291,42 291,39 294,39 294,42 297,42 297,39 300,39 300,36 297,36 297,33 294,33 294,36 291,36 291,33 294,33 294,30 291,30 291,27 294,27 294,30 297,30 297,27 300,27 300,30 297,30 297,33 300,33 300,36 303,36 303,33 306,33 306,30 303,30 303,27 306,27 306,30 309,30 309,27 312,27 312,24 309,24 309,21 306,21 306,24 303,24 303,21 306,21 306,18 303,18 303,15 300,15 300,18 297,18 297,21 300,21 300,24 297,24 297,21 294,21 294,24 291,24 291,21 294,21 294,18 291,18 291,15 294,15 294,18 297,18 297,15 300,15 300,12 297,12 297,9 294,9 294,12 291,12 291,9 294,9 294,6 291,6 291,3 294,3 294,6 297,6 297,3 300,3 300,6 297,6 297,9 300,9 300,12 303,12 303,9 306,9 306,6 303,6 303,3 306,3 306,6 309,6 309,3 312,3 312,6 309,6 309,9 312,9 312,12 309,12 309,9 306,9 306,12 303,12 303,15 306,15 306,18 309,18 309,15 312,15 312,18 309,18 309,21 312,21 312,24 315,24 315,21 318,21 318,18 315,18 315,15 318,15 318,18 321,18 321,15 324,15 324,12 321,12 321,9 318,9 318,12 315,12 315,9 318,9 318,6 315,6 315,3 318,3 318,6 321,6 321,3 324,3 324,6 321,6 321,9 324,9 324,12 327,12 327,9 330,9 330,6 327,6 327,3 330,3 330,6 333,6 333,3 336,3 336,6 333,6 333,9 336,9 336,12 333,12 333,9 330,9 330,12 327,12 327,15 330,15 330,18 333,18 333,15 336,15 336,18 333,18 333,21 336,21 336,24 333,24 333,21 330,21 330,24 327,24 327,21 330,21 330,18 327,18 327,15 324,15 324,18 321,18 321,21 324,21 324,24 321,24 321,21 318,21 318,24 315,24 315,27 318,27 318,30 321,30 321,27 324,27 324,30 321,30 321,33 324,33 324,36 327,36 327,33 330,33 330,30 327,30 327,27 330,27 330,30 333,30 333,27 336,27 336,30 333,30 333,33 336,33 336,36 333,36 333,33 330,33 330,36 327,36 327,39 330,39 330,42 333,42 333,39 336,39 336,42 333,42 333,45 336,45 336,48 339,48 339,45 342,45 342,42 339,42 339,39 342,39 342,42 345,42 345,39 348,39 348,36 345,36 345,33 342,33 342,36 339,36 339,33 342,33 342,30 339,30 339,27 342,27 342,30 345,30 345,27 348,27 348,30 345,30 345,33 348,33 348,36 351,36 351,33 354,33 354,30 351,30 351,27 354,27 354,30 357,30 357,27 360,27 360,24 357,24 357,21 354,21 354,24 351,24 351,21 354,21 354,18 351,18 351,15 348,15 348,18 345,18 345,21 348,21 348,24 345,24 345,21 342,21 342,24 339,24 339,21 342,21 342,18 339,18 339,15 342,15 342,18 345,18 345,15 348,15 348,12 345,12 345,9 342,9 342,12 339,12 339,9 342,9 342,6 339,6 339,3 342,3 342,6 345,6 345,3 348,3 348,6 345,6 345,9 348,9 348,12 351,12 351,9 354,9 354,6 351,6 351,3 354,3 354,6 357,6 357,3 360,3 360,6 357,6 357,9 360,9 360,12 357,12 357,9 354,9 354,12 351,12 351,15 354,15 354,18 357,18 357,15 360,15 360,18 357,18 357,21 360,21 360,24 363,24 363,21 366,21 366,18 363,18 363,15 366,15 366,18 369,18 369,15 372,15 372,12 369,12 369,9 366,9 366,12 363,12 363,9 366,9 366,6 363,6 363,3 366,3 366,6 369,6 369,3 372,3 372,6 369,6 369,9 372,9 372,12 375,12 375,9 378,9 378,6 375,6 375,3 378,3 378,6 381,6 381,3 384,3 384,6 "/>
</svg>
