<?xml version="1.0" encoding="iso-8859-1"?>
<!DOCTYPE svg PUBLIC "-//W3C//DTD SVG 1.1//EN"
 "http://www.w3.org/Graphics/SVG/1.1/DTD/svg11.dtd">
<svg xmlns="http://www.w3.org/2000/svg" version="1.1" width="1131pt" height="1881pt" viewBox="0 0 1131 1881">
  <polyline fill="none" stroke="black" points="
189,1878 192,1878 192,1875 189,1875 189,1872 192,1872 192,1869 189,1869 189,1866 192,1866 192,1869 195,1869 195,1866 198,1866 198,1863 195,1863 195,1866 192,1866 192,1863 189,1863 189,1866 186,1866 186,1863 189,1863 189,1860 186,1860 186,1857 183,1857 183,1854 186,1854 186,1851 183,1851 183,1848 186,1848 186,1851 189,1851 189,1848 192,1848 192,1845 189,1845 189,1842 192,1842 192,1839 189,1839 189,1836 192,1836 192,1839 195,1839 195,1836 198,1836 198,1833 195,1833 195,1836 192,1836 192,1833 189,1833 189,1836 186,1836 186,1833 189,1833 189,1830 186,1830 186,1827 183,1827 183,1824 186,1824 186,1821 183,1821 183,1818 186,1818 186,1821 189,1821 189,1818 192,1818 192,1821 189,1821 189,1824 192,1824 192,1827 195,1827 195,1824 198,1824 198,1827 201,1827 201,1824 204,1824 204,1827 201,1827 201,1830 204,1830 204,1833 207,1833 207,1830 204,1830 204,1827 207,1827 207,1824 204,1824 204,1821 207,1821 207,1824 210,1824 210,1821 213,1821 213,1818 216,1818 216,1821 219,1821 219,1818 222,1818 222,1815 219,1815 219,1812 222,1812 222,1809 219,1809 219,1806 222,1806 222,1809 225,1809 225,1806 228,1806 228,1803 225,1803 225,1806 222,1806 222,1803 219,1803 219,1806 216,1806 216,1803 219,1803 219,1800 216,1800 216,1797 213,1797 213,1800 216,1800 216,1803 213,1803 213,1806 216,1806 216,1809 213,1809 213,1806 210,1806 210,1809 207,1809 207,1812 204,1812 204,1809 201,1809 201,1812 198,1812 198,1809 201,1809 201,1806 198,1806 198,1803 195,1803 195,1806 192,1806 192,1803 189,1803 189,1806 186,1806 186,1803 189,1803 189,1800 186,1800 186,1797 183,1797 183,1800 186,1800 186,1803 183,1803 183,1806 186,1806 186,1809 183,1809 183,1806 180,1806 180,1809 177,1809 177,1812 174,1812 174,1809 171,1809 171,1812 168,1812 168,1809 171,1809 171,1806 168,1806 168,1803 171,1803 171,1806 174,1806 174,1803 177,1803 177,1800 174,1800 174,1797 177,1797 177,1794 174,1794 174,1791 177,1791 177,1794 180,1794 180,1791 183,1791 183,1788 180,1788 180,1791 177,1791 177,1788 174,1788 174,1791 171,1791 171,1788 174,1788 174,1785 171,1785 171,1782 168,1782 168,1779 171,1779 171,1776 168,1776 168,1773 165,1773 165,1776 162,1776 162,1773 159,1773 159,1776 156,1776 156,1773 159,1773 159,1770 156,1770 156,1767 153,1767 153,1764 156,1764 156,1761 153,1761 153,1758 156,1758 156,1761 159,1761 159,1758 162,1758 162,1755 159,1755 159,1752 162,1752 162,1749 159,1749 159,1746 162,1746 162,1749 165,1749 165,1746 168,1746 168,1743 165,1743 165,1746 162,1746 162,1743 159,1743 159,1746 156,1746 156,1743 159,1743 159,1740 156,1740 156,1737 153,1737 153,1734 156,1734 156,1731 153,1731 153,1728 156,1728 156,1731 159,1731 159,1728 162,1728 162,1731 159,1731 159,1734 162,1734 162,1737 165,1737 165,1734 168,1734 168,1737 171,1737 171,1734 174,1734 174,1737 171,1737 171,1740 174,1740 174,1743 177,1743 177,1740 174,1740 174,1737 177,1737 177,1734 174,1734 174,1731 177,1731 177,1734 180,1734 180,1731 183,1731 183,1728 186,1728 186,1731 189,1731 189,1728 192,1728 192,1725 189,1725 189,1722 192,1722 192,1719 189,1719 189,1716 192,1716 192,1719 195,1719 195,1716 198,1716 198,1713 195,1713 195,1716 192,1716 192,1713 189,1713 189,1716 186,1716 186,1713 189,1713 189,1710 186,1710 186,1707 183,1707 183,1704 186,1704 186,1701 183,1701 183,1698 186,1698 186,1701 189,1701 189,1698 192,1698 192,1695 189,1695 189,1692 192,1692 192,1689 189,1689 189,1686 192,1686 192,1689 195,1689 195,1686 198,1686 198,1683 195,1683 195,1686 192,1686 192,1683 189,1683 189,1686 186,1686 186,1683 189,1683 189,1680 186,1680 186,1677 183,1677 183,1674 186,1674 186,1671 183,1671 183,1668 186,1668 186,1671 189,1671 189,1668 192,1668 192,1671 189,1671 189,1674 192,1674 192,1677 195,1677 195,1674 198,1674 198,1677 201,1677 201,1674 204,1674 204,1677 201,1677 201,1680 204,1680 204,1683 207,1683 207,1680 204,1680 204,1677 207,1677 207,1674 204,1674 204,1671 207,1671 207,1674 210,1674 210,1671 213,1671 213,1668 216,1668 216,1671 219,1671 219,1668 222,1668 222,1665 219,1665 219,1662 222,1662 222,1659 219,1659 219,1656 222,1656 222,1659 225,1659 225,1656 228,1656 228,1653 225,1653 225,1656 222,1656 222,1653 219,1653 219,1656 216,1656 216,1653 219,1653 219,1650 216,1650 216,1647 213,1647 213,1650 216,1650 216,1653 213,1653 213,1656 216,1656 216,1659 213,1659 213,1656 210,1656 210,1659 207,1659 207,1662 204,1662 204,1659 201,1659 201,1662 198,1662 198,1659 201,1659 201,1656 198,1656 198,1653 195,1653 195,1656 192,1656 192,1653 189,1653 189,1656 186,1656 186,1653 189,1653 189,1650 186,1650 186,1647 183,1647 183,1650 186,1650 186,1653 183,1653 183,1656 186,1656 186,1659 183,1659 183,1656 180,1656 180,1659 177,1659 177,1662 174,1662 174,1659 171,1659 171,1662 168,1662 168,1659 171,1659 171,1656 168,1656 168,1653 171,1653 171,1656 174,1656 174,1653 177,1653 177,1650 174,1650 174,1647 177,1647 177,1644 174,1644 174,1641 177,1641 177,1644 180,1644 180,1641 183,1641 183,1638 180,1638 180,1641 177,1641 177,1638 174,1638 174,1641 171,1641 171,1638 174,1638 174,1635 171,1635 171,1632 168,1632 168,1629 171,1629 171,1626 168,1626 168,1623 165,1623 165,1626 162,1626 162,1623 159,1623 159,1626 156,1626 156,1623 159,1623 159,1620 156,1620 156,1617 153,1617 153,1614 156,1614 156,1611 153,1611 153,1608 156,1608 156,1611 159,1611 159,1608 162,1608 162,1605 159,1605 159,1602 162,1602 162,1599 159,1599 159,1596 162,1596 162,1599 165,1599 165,1596 168,1596 168,1593 165,1593 165,1596 162,1596 162,1593 159,1593 159,1596 156,1596 156,1593 159,1593 159,1590 156,1590 156,1587 153,1587 153,1584 156,1584 156,1581 153,1581 153,1578 156,1578 156,1581 159,1581 159,1578 162,1578 162,1581 159,1581 159,1584 162,1584 162,1587 165,1587 165,1584 168,1584 168,1587 171,1587 171,1584 174,1584 174,1587 171,1587 171,1590 174,1590 174,1593 177,1593 177,1590 174,1590 174,1587 177,1587 177,1584 174,1584 174,1581 177,1581 177,1584 180,1584 180,1581 183,1581 183,1578 186,1578 186,1581 189,1581 189,1578 192,1578 192,1581 189,1581 189,1584 192,1584 192,1587 189,1587 189,1584 186,1584 186,1587 183,1587 183,1590 186,1590 186,1593 183,1593 183,1596 186,1596 186,1599 183,1599 183,1596 180,1596 180,1599 177,1599 177,1602 180,1602 180,1599 183,1599 183,1602 186,1602 186,1599 189,1599 189,1602 186,1602 186,1605 189,1605 189,1608 192,1608 192,1611 189,1611 189,1614 192,1614 192,1617 195,1617 195,1614 198,1614 198,1617 201,1617 201,1614 204,1614 204,1617 201,1617 201,1620 204,1620 204,1623 207,1623 207,1620 204,1620 204,1617 207,1617 207,1614 204,1614 204,1611 207,1611 207,1614 210,1614 210,1611 213,1611 213,1608 216,1608 216,1611 219,1611 219,1608 222,1608 222,1611 219,1611 219,1614 222,1614 222,1617 225,1617 225,1614 228,1614 228,1617 231,1617 231,1614 234,1614 234,1617 231,1617 231,1620 234,1620 234,1623 237,1623 237,1620 234,1620 234,1617 237,1617 237,1614 234,1614 234,1611 237,1611 237,1614 240,1614 240,1611 243,1611 243,1608 246,1608 246,1611 249,1611 249,1608 252,1608 252,1611 249,1611 249,1614 252,1614 252,1617 249,1617 249,1614 246,1614 246,1617 243,1617 243,1620 246,1620 246,1623 243,1623 243,1626 246,1626 246,1629 243,1629 243,1626 240,1626 240,1629 237,1629 237,1632 240,1632 240,1629 243,1629 243,1632 246,1632 246,1629 249,1629 249,1632 246,1632 246,1635 249,1635 249,1638 252,1638 252,1641 249,1641 249,1644 252,1644 252,1647 255,1647 255,1644 258,1644 258,1647 261,1647 261,1644 264,1644 264,1647 261,1647 261,1650 264,1650 264,1653 267,1653 267,1650 264,1650 264,1647 267,1647 267,1644 264,1644 264,1641 267,1641 267,1644 270,1644 270,1641 273,1641 273,1638 270,1638 270,1641 267,1641 267,1638 264,1638 264,1641 261,1641 261,1638 264,1638 264,1635 261,1635 261,1632 258,1632 258,1629 261,1629 261,1626 258,1626 258,1623 261,1623 261,1626 264,1626 264,1623 267,1623 267,1620 264,1620 264,1617 267,1617 267,1614 264,1614 264,1611 267,1611 267,1614 270,1614 270,1611 273,1611 273,1608 270,1608 270,1611 267,1611 267,1608 264,1608 264,1611 261,1611 261,1608 264,1608 264,1605 261,1605 261,1602 258,1602 258,1599 261,1599 261,1596 258,1596 258,1593 261,1593 261,1596 264,1596 264,1593 267,1593 267,1596 264,1596 264,1599 267,1599 267,1602 270,1602 270,1599 273,1599 273,1602 276,1602 276,1599 279,1599 279,1602 276,1602 276,1605 279,1605 279,1608 282,1608 282,1605 279,1605 279,1602 282,1602 282,1599 279,1599 279,1596 282,1596 282,1599 285,1599 285,1596 288,1596 288,1593 291,1593 291,1596 294,1596 294,1593 297,1593 297,1590 294,1590 294,1587 297,1587 297,1584 294,1584 294,1581 297,1581 297,1584 300,1584 300,1581 303,1581 303,1578 306,1578 306,1581 309,1581 309,1578 312,1578 312,1581 309,1581 309,1584 312,1584 312,1587 315,1587 315,1584 318,1584 318,1587 321,1587 321,1584 324,1584 324,1587 321,1587 321,1590 324,1590 324,1593 327,1593 327,1590 324,1590 324,1587 327,1587 327,1584 324,1584 324,1581 327,1581 327,1584 330,1584 330,1581 333,1581 333,1578 336,1578 336,1581 339,1581 339,1578 342,1578 342,1575 339,1575 339,1572 342,1572 342,1569 339,1569 339,1566 342,1566 342,1569 345,1569 345,1566 348,1566 348,1563 345,1563 345,1566 342,1566 342,1563 339,1563 339,1566 336,1566 336,1563 339,1563 339,1560 336,1560 336,1557 333,1557 333,1554 336,1554 336,1551 333,1551 333,1548 336,1548 336,1551 339,1551 339,1548 342,1548 342,1545 339,1545 339,1542 342,1542 342,1539 339,1539 339,1536 342,1536 342,1539 345,1539 345,1536 348,1536 348,1533 345,1533 345,1536 342,1536 342,1533 339,1533 339,1536 336,1536 336,1533 339,1533 339,1530 336,1530 336,1527 333,1527 333,1524 336,1524 336,1521 333,1521 333,1518 336,1518 336,1521 339,1521 339,1518 342,1518 342,1521 339,1521 339,1524 342,1524 342,1527 345,1527 345,1524 348,1524 348,1527 351,1527 351,1524 354,1524 354,1527 351,1527 351,1530 354,1530 354,1533 357,1533 357,1530 354,1530 354,1527 357,1527 357,1524 354,1524 354,1521 357,1521 357,1524 360,1524 360,1521 363,1521 363,1518 366,1518 366,1521 369,1521 369,1518 372,1518 372,1515 369,1515 369,1512 372,1512 372,1509 369,1509 369,1506 372,1506 372,1509 375,1509 375,1506 378,1506 378,1503 375,1503 375,1506 372,1506 372,1503 369,1503 369,1506 366,1506 366,1503 369,1503 369,1500 366,1500 366,1497 363,1497 363,1500 366,1500 366,1503 363,1503 363,1506 366,1506 366,1509 363,1509 363,1506 360,1506 360,1509 357,1509 357,1512 354,1512 354,1509 351,1509 351,1512 348,1512 348,1509 351,1509 351,1506 348,1506 348,1503 345,1503 345,1506 342,1506 342,1503 339,1503 339,1506 336,1506 336,1503 339,1503 339,1500 336,1500 336,1497 333,1497 333,1500 336,1500 336,1503 333,1503 333,1506 336,1506 336,1509 333,1509 333,1506 330,1506 330,1509 327,1509 327,1512 324,1512 324,1509 321,1509 321,1512 318,1512 318,1509 321,1509 321,1506 318,1506 318,1503 321,1503 321,1506 324,1506 324,1503 327,1503 327,1500 324,1500 324,1497 327,1497 327,1494 324,1494 324,1491 327,1491 327,1494 330,1494 330,1491 333,1491 333,1488 330,1488 330,1491 327,1491 327,1488 324,1488 324,1491 321,1491 321,1488 324,1488 324,1485 321,1485 321,1482 318,1482 318,1479 321,1479 321,1476 318,1476 318,1473 315,1473 315,1476 312,1476 312,1473 309,1473 309,1476 306,1476 306,1473 309,1473 309,1470 306,1470 306,1467 303,1467 303,1470 306,1470 306,1473 303,1473 303,1476 306,1476 306,1479 303,1479 303,1476 300,1476 300,1479 297,1479 297,1482 300,1482 300,1479 303,1479 303,1482 306,1482 306,1479 309,1479 309,1482 306,1482 306,1485 309,1485 309,1488 312,1488 312,1491 309,1491 309,1494 312,1494 312,1497 309,1497 309,1494 306,1494 306,1497 303,1497 303,1500 306,1500 306,1503 303,1503 303,1506 306,1506 306,1509 303,1509 303,1506 300,1506 300,1509 297,1509 297,1512 300,1512 300,1509 303,1509 303,1512 306,1512 306,1509 309,1509 309,1512 306,1512 306,1515 309,1515 309,1518 312,1518 312,1521 309,1521 309,1524 312,1524 312,1527 309,1527 309,1524 306,1524 306,1527 303,1527 303,1524 306,1524 306,1521 303,1521 303,1518 300,1518 300,1521 297,1521 297,1518 294,1518 294,1521 291,1521 291,1518 294,1518 294,1515 291,1515 291,1512 288,1512 288,1515 291,1515 291,1518 288,1518 288,1521 291,1521 291,1524 288,1524 288,1521 285,1521 285,1524 282,1524 282,1527 279,1527 279,1524 276,1524 276,1527 273,1527 273,1530 276,1530 276,1533 273,1533 273,1536 276,1536 276,1539 273,1539 273,1536 270,1536 270,1539 267,1539 267,1542 264,1542 264,1539 261,1539 261,1542 258,1542 258,1539 261,1539 261,1536 258,1536 258,1533 255,1533 255,1536 252,1536 252,1533 249,1533 249,1536 246,1536 246,1533 249,1533 249,1530 246,1530 246,1527 243,1527 243,1530 246,1530 246,1533 243,1533 243,1536 246,1536 246,1539 243,1539 243,1536 240,1536 240,1539 237,1539 237,1542 234,1542 234,1539 231,1539 231,1542 228,1542 228,1539 231,1539 231,1536 228,1536 228,1533 231,1533 231,1536 234,1536 234,1533 237,1533 237,1530 234,1530 234,1527 237,1527 237,1524 234,1524 234,1521 237,1521 237,1524 240,1524 240,1521 243,1521 243,1518 240,1518 240,1521 237,1521 237,1518 234,1518 234,1521 231,1521 231,1518 234,1518 234,1515 231,1515 231,1512 228,1512 228,1509 231,1509 231,1506 228,1506 228,1503 225,1503 225,1506 222,1506 222,1503 219,1503 219,1506 216,1506 216,1503 219,1503 219,1500 216,1500 216,1497 213,1497 213,1500 216,1500 216,1503 213,1503 213,1506 216,1506 216,1509 213,1509 213,1506 210,1506 210,1509 207,1509 207,1512 204,1512 204,1509 201,1509 201,1512 198,1512 198,1509 201,1509 201,1506 198,1506 198,1503 195,1503 195,1506 192,1506 192,1503 189,1503 189,1506 186,1506 186,1503 189,1503 189,1500 186,1500 186,1497 183,1497 183,1500 186,1500 186,1503 183,1503 183,1506 186,1506 186,1509 183,1509 183,1506 180,1506 180,1509 177,1509 177,1512 174,1512 174,1509 171,1509 171,1512 168,1512 168,1509 171,1509 171,1506 168,1506 168,1503 171,1503 171,1506 174,1506 174,1503 177,1503 177,1500 174,1500 174,1497 177,1497 177,1494 174,1494 174,1491 177,1491 177,1494 180,1494 180,1491 183,1491 183,1488 180,1488 180,1491 177,1491 177,1488 174,1488 174,1491 171,1491 171,1488 174,1488 174,1485 171,1485 171,1482 168,1482 168,1479 171,1479 171,1476 168,1476 168,1473 165,1473 165,1476 162,1476 162,1473 159,1473 159,1476 156,1476 156,1473 159,1473 159,1470 156,1470 156,1467 153,1467 153,1470 156,1470 156,1473 153,1473 153,1476 156,1476 156,1479 153,1479 153,1476 150,1476 150,1479 147,1479 147,1482 150,1482 150,1479 153,1479 153,1482 156,1482 156,1479 159,1479 159,1482 156,1482 156,1485 159,1485 159,1488 162,1488 162,1491 159,1491 159,1494 162,1494 162,1497 159,1497 159,1494 156,1494 156,1497 153,1497 153,1500 156,1500 156,1503 153,1503 153,1506 156,1506 156,1509 153,1509 153,1506 150,1506 150,1509 147,1509 147,1512 150,1512 150,1509 153,1509 153,1512 156,1512 156,1509 159,1509 159,1512 156,1512 156,1515 159,1515 159,1518 162,1518 162,1521 159,1521 159,1524 162,1524 162,1527 159,1527 159,1524 156,1524 156,1527 153,1527 153,1524 156,1524 156,1521 153,1521 153,1518 150,1518 150,1521 147,1521 147,1518 144,1518 144,1521 141,1521 141,1518 144,1518 144,1515 141,1515 141,1512 138,1512 138,1515 141,1515 141,1518 138,1518 138,1521 141,1521 141,1524 138,1524 138,1521 135,1521 135,1524 132,1524 132,1527 129,1527 129,1524 126,1524 126,1527 123,1527 123,1530 126,1530 126,1533 123,1533 123,1536 126,1536 126,1539 123,1539 123,1536 120,1536 120,1539 117,1539 117,1542 114,1542 114,1539 111,1539 111,1542 108,1542 108,1539 111,1539 111,1536 108,1536 108,1533 105,1533 105,1536 102,1536 102,1533 99,1533 99,1536 96,1536 96,1533 99,1533 99,1530 96,1530 96,1527 93,1527 93,1530 96,1530 96,1533 93,1533 93,1536 96,1536 96,1539 93,1539 93,1536 90,1536 90,1539 87,1539 87,1542 84,1542 84,1539 81,1539 81,1542 78,1542 78,1539 81,1539 81,1536 78,1536 78,1533 81,1533 81,1536 84,1536 84,1533 87,1533 87,1530 84,1530 84,1527 87,1527 87,1524 84,1524 84,1521 87,1521 87,1524 90,1524 90,1521 93,1521 93,1518 90,1518 90,1521 87,1521 87,1518 84,1518 84,1521 81,1521 81,1518 84,1518 84,1515 81,1515 81,1512 78,1512 78,1509 81,1509 81,1506 78,1506 78,1503 81,1503 81,1506 84,1506 84,1503 87,1503 87,1506 84,1506 84,1509 87,1509 87,1512 90,1512 90,1509 93,1509 93,1512 96,1512 96,1509 99,1509 99,1512 96,1512 96,1515 99,1515 99,1518 102,1518 102,1515 99,1515 99,1512 102,1512 102,1509 99,1509 99,1506 102,1506 102,1509 105,1509 105,1506 108,1506 108,1503 111,1503 111,1506 114,1506 114,1503 117,1503 117,1500 114,1500 114,1497 117,1497 117,1494 114,1494 114,1491 117,1491 117,1494 120,1494 120,1491 123,1491 123,1488 120,1488 120,1491 117,1491 117,1488 114,1488 114,1491 111,1491 111,1488 114,1488 114,1485 111,1485 111,1482 108,1482 108,1479 111,1479 111,1476 108,1476 108,1473 111,1473 111,1476 114,1476 114,1473 117,1473 117,1470 114,1470 114,1467 117,1467 117,1464 114,1464 114,1461 117,1461 117,1464 120,1464 120,1461 123,1461 123,1458 120,1458 120,1461 117,1461 117,1458 114,1458 114,1461 111,1461 111,1458 114,1458 114,1455 111,1455 111,1452 108,1452 108,1449 111,1449 111,1446 108,1446 108,1443 111,1443 111,1446 114,1446 114,1443 117,1443 117,1446 114,1446 114,1449 117,1449 117,1452 120,1452 120,1449 123,1449 123,1452 126,1452 126,1449 129,1449 129,1452 126,1452 126,1455 129,1455 129,1458 132,1458 132,1455 129,1455 129,1452 132,1452 132,1449 129,1449 129,1446 132,1446 132,1449 135,1449 135,1446 138,1446 138,1443 141,1443 141,1446 144,1446 144,1443 147,1443 147,1440 144,1440 144,1437 147,1437 147,1434 144,1434 144,1431 147,1431 147,1434 150,1434 150,1431 153,1431 153,1428 150,1428 150,1431 147,1431 147,1428 144,1428 144,1431 141,1431 141,1428 144,1428 144,1425 141,1425 141,1422 138,1422 138,1425 141,1425 141,1428 138,1428 138,1431 141,1431 141,1434 138,1434 138,1431 135,1431 135,1434 132,1434 132,1437 129,1437 129,1434 126,1434 126,1437 123,1437 123,1434 126,1434 126,1431 123,1431 123,1428 120,1428 120,1431 117,1431 117,1428 114,1428 114,1431 111,1431 111,1428 114,1428 114,1425 111,1425 111,1422 108,1422 108,1425 111,1425 111,1428 108,1428 108,1431 111,1431 111,1434 108,1434 108,1431 105,1431 105,1434 102,1434 102,1437 99,1437 99,1434 96,1434 96,1437 93,1437 93,1434 96,1434 96,1431 93,1431 93,1428 96,1428 96,1431 99,1431 99,1428 102,1428 102,1425 99,1425 99,1422 102,1422 102,1419 99,1419 99,1416 102,1416 102,1419 105,1419 105,1416 108,1416 108,1413 105,1413 105,1416 102,1416 102,1413 99,1413 99,1416 96,1416 96,1413 99,1413 99,1410 96,1410 96,1407 93,1407 93,1404 96,1404 96,1401 93,1401 93,1398 90,1398 90,1401 87,1401 87,1398 84,1398 84,1401 81,1401 81,1398 84,1398 84,1395 81,1395 81,1392 78,1392 78,1389 81,1389 81,1386 78,1386 78,1383 81,1383 81,1386 84,1386 84,1383 87,1383 87,1380 84,1380 84,1377 87,1377 87,1374 84,1374 84,1371 87,1371 87,1374 90,1374 90,1371 93,1371 93,1368 90,1368 90,1371 87,1371 87,1368 84,1368 84,1371 81,1371 81,1368 84,1368 84,1365 81,1365 81,1362 78,1362 78,1359 81,1359 81,1356 78,1356 78,1353 75,1353 75,1356 72,1356 72,1353 69,1353 69,1356 66,1356 66,1353 69,1353 69,1350 66,1350 66,1347 63,1347 63,1350 66,1350 66,1353 63,1353 63,1356 66,1356 66,1359 63,1359 63,1356 60,1356 60,1359 57,1359 57,1362 54,1362 54,1359 51,1359 51,1362 48,1362 48,1359 51,1359 51,1356 48,1356 48,1353 45,1353 45,1356 42,1356 42,1353 39,1353 39,1356 36,1356 36,1353 39,1353 39,1350 36,1350 36,1347 33,1347 33,1350 36,1350 36,1353 33,1353 33,1356 36,1356 36,1359 33,1359 33,1356 30,1356 30,1359 27,1359 27,1362 24,1362 24,1359 21,1359 21,1362 18,1362 18,1359 21,1359 21,1356 18,1356 18,1353 21,1353 21,1356 24,1356 24,1353 27,1353 27,1350 24,1350 24,1347 27,1347 27,1344 24,1344 24,1341 27,1341 27,1344 30,1344 30,1341 33,1341 33,1338 30,1338 30,1341 27,1341 27,1338 24,1338 24,1341 21,1341 21,1338 24,1338 24,1335 21,1335 21,1332 18,1332 18,1329 21,1329 21,1326 18,1326 18,1323 15,1323 15,1326 12,1326 12,1323 9,1323 9,1326 6,1326 6,1323 9,1323 9,1320 6,1320 6,1317 3,1317 3,1314 6,1314 6,1311 3,1311 3,1308 6,1308 6,1311 9,1311 9,1308 12,1308 12,1305 9,1305 9,1302 12,1302 12,1299 9,1299 9,1296 12,1296 12,1299 15,1299 15,1296 18,1296 18,1293 15,1293 15,1296 12,1296 12,1293 9,1293 9,1296 6,1296 6,1293 9,1293 9,1290 6,1290 6,1287 3,1287 3,1284 6,1284 6,1281 3,1281 3,1278 6,1278 6,1281 9,1281 9,1278 12,1278 12,1281 9,1281 9,1284 12,1284 12,1287 15,1287 15,1284 18,1284 18,1287 21,1287 21,1284 24,1284 24,1287 21,1287 21,1290 24,1290 24,1293 27,1293 27,1290 24,1290 24,1287 27,1287 27,1284 24,1284 24,1281 27,1281 27,1284 30,1284 30,1281 33,1281 33,1278 36,1278 36,1281 39,1281 39,1278 42,1278 42,1275 39,1275 39,1272 42,1272 42,1269 39,1269 39,1266 42,1266 42,1269 45,1269 45,1266 48,1266 48,1263 45,1263 45,1266 42,1266 42,1263 39,1263 39,1266 36,1266 36,1263 39,1263 39,1260 36,1260 36,1257 33,1257 33,1254 36,1254 36,1251 33,1251 33,1248 36,1248 36,1251 39,1251 39,1248 42,1248 42,1245 39,1245 39,1242 42,1242 42,1239 39,1239 39,1236 42,1236 42,1239 45,1239 45,1236 48,1236 48,1233 45,1233 45,1236 42,1236 42,1233 39,1233 39,1236 36,1236 36,1233 39,1233 39,1230 36,1230 36,1227 33,1227 33,1224 36,1224 36,1221 33,1221 33,1218 36,1218 36,1221 39,1221 39,1218 42,1218 42,1221 39,1221 39,1224 42,1224 42,1227 45,1227 45,1224 48,1224 48,1227 51,1227 51,1224 54,1224 54,1227 51,1227 51,1230 54,1230 54,1233 57,1233 57,1230 54,1230 54,1227 57,1227 57,1224 54,1224 54,1221 57,1221 57,1224 60,1224 60,1221 63,1221 63,1218 66,1218 66,1221 69,1221 69,1218 72,1218 72,1215 69,1215 69,1212 72,1212 72,1209 69,1209 69,1206 72,1206 72,1209 75,1209 75,1206 78,1206 78,1203 75,1203 75,1206 72,1206 72,1203 69,1203 69,1206 66,1206 66,1203 69,1203 69,1200 66,1200 66,1197 63,1197 63,1200 66,1200 66,1203 63,1203 63,1206 66,1206 66,1209 63,1209 63,1206 60,1206 60,1209 57,1209 57,1212 54,1212 54,1209 51,1209 51,1212 48,1212 48,1209 51,1209 51,1206 48,1206 48,1203 45,1203 45,1206 42,1206 42,1203 39,1203 39,1206 36,1206 36,1203 39,1203 39,1200 36,1200 36,1197 33,1197 33,1200 36,1200 36,1203 33,1203 33,1206 36,1206 36,1209 33,1209 33,1206 30,1206 30,1209 27,1209 27,1212 24,1212 24,1209 21,1209 21,1212 18,1212 18,1209 21,1209 21,1206 18,1206 18,1203 21,1203 21,1206 24,1206 24,1203 27,1203 27,1200 24,1200 24,1197 27,1197 27,1194 24,1194 24,1191 27,1191 27,1194 30,1194 30,1191 33,1191 33,1188 30,1188 30,1191 27,1191 27,1188 24,1188 24,1191 21,1191 21,1188 24,1188 24,1185 21,1185 21,1182 18,1182 18,1179 21,1179 21,1176 18,1176 18,1173 15,1173 15,1176 12,1176 12,1173 9,1173 9,1176 6,1176 6,1173 9,1173 9,1170 6,1170 6,1167 3,1167 3,1164 6,1164 6,1161 3,1161 3,1158 6,1158 6,1161 9,1161 9,1158 12,1158 12,1155 9,1155 9,1152 12,1152 12,1149 9,1149 9,1146 12,1146 12,1149 15,1149 15,1146 18,1146 18,1143 15,1143 15,1146 12,1146 12,1143 9,1143 9,1146 6,1146 6,1143 9,1143 9,1140 6,1140 6,1137 3,1137 3,1134 6,1134 6,1131 3,1131 3,1128 6,1128 6,1131 9,1131 9,1128 12,1128 12,1131 9,1131 9,1134 12,1134 12,1137 15,1137 15,1134 18,1134 18,1137 21,1137 21,1134 24,1134 24,1137 21,1137 21,1140 24,1140 24,1143 27,1143 27,1140 24,1140 24,1137 27,1137 27,1134 24,1134 24,1131 27,1131 27,1134 30,1134 30,1131 33,1131 33,1128 36,1128 36,1131 39,1131 39,1128 42,1128 42,1131 39,1131 39,1134 42,1134 42,1137 39,1137 39,1134 36,1134 36,1137 33,1137 33,1140 36,1140 36,1143 33,1143 33,1146 36,1146 36,1149 33,1149 33,1146 30,1146 30,1149 27,1149 27,1152 30,1152 30,1149 33,1149 33,1152 36,1152 36,1149 39,1149 39,1152 36,1152 36,1155 39,1155 39,1158 42,1158 42,1161 39,1161 39,1164 42,1164 42,1167 45,1167 45,1164 48,1164 48,1167 51,1167 51,1164 54,1164 54,1167 51,1167 51,1170 54,1170 54,1173 57,1173 57,1170 54,1170 54,1167 57,1167 57,1164 54,1164 54,1161 57,1161 57,1164 60,1164 60,1161 63,1161 63,1158 66,1158 66,1161 69,1161 69,1158 72,1158 72,1161 69,1161 69,1164 72,1164 72,1167 75,1167 75,1164 78,1164 78,1167 81,1167 81,1164 84,1164 84,1167 81,1167 81,1170 84,1170 84,1173 87,1173 87,1170 84,1170 84,1167 87,1167 87,1164 84,1164 84,1161 87,1161 87,1164 90,1164 90,1161 93,1161 93,1158 96,1158 96,1161 99,1161 99,1158 102,1158 102,1161 99,1161 99,1164 102,1164 102,1167 99,1167 99,1164 96,1164 96,1167 93,1167 93,1170 96,1170 96,1173 93,1173 93,1176 96,1176 96,1179 93,1179 93,1176 90,1176 90,1179 87,1179 87,1182 90,1182 90,1179 93,1179 93,1182 96,1182 96,1179 99,1179 99,1182 96,1182 96,1185 99,1185 99,1188 102,1188 102,1191 99,1191 99,1194 102,1194 102,1197 105,1197 105,1194 108,1194 108,1197 111,1197 111,1194 114,1194 114,1197 111,1197 111,1200 114,1200 114,1203 117,1203 117,1200 114,1200 114,1197 117,1197 117,1194 114,1194 114,1191 117,1191 117,1194 120,1194 120,1191 123,1191 123,1188 120,1188 120,1191 117,1191 117,1188 114,1188 114,1191 111,1191 111,1188 114,1188 114,1185 111,1185 111,1182 108,1182 108,1179 111,1179 111,1176 108,1176 108,1173 111,1173 111,1176 114,1176 114,1173 117,1173 117,1170 114,1170 114,1167 117,1167 117,1164 114,1164 114,1161 117,1161 117,1164 120,1164 120,1161 123,1161 123,1158 120,1158 120,1161 117,1161 117,1158 114,1158 114,1161 111,1161 111,1158 114,1158 114,1155 111,1155 111,1152 108,1152 108,1149 111,1149 111,1146 108,1146 108,1143 111,1143 111,1146 114,1146 114,1143 117,1143 117,1146 114,1146 114,1149 117,1149 117,1152 120,1152 120,1149 123,1149 123,1152 126,1152 126,1149 129,1149 129,1152 126,1152 126,1155 129,1155 129,1158 132,1158 132,1155 129,1155 129,1152 132,1152 132,1149 129,1149 129,1146 132,1146 132,1149 135,1149 135,1146 138,1146 138,1143 141,1143 141,1146 144,1146 144,1143 147,1143 147,1140 144,1140 144,1137 147,1137 147,1134 144,1134 144,1131 147,1131 147,1134 150,1134 150,1131 153,1131 153,1128 156,1128 156,1131 159,1131 159,1128 162,1128 162,1131 159,1131 159,1134 162,1134 162,1137 165,1137 165,1134 168,1134 168,1137 171,1137 171,1134 174,1134 174,1137 171,1137 171,1140 174,1140 174,1143 177,1143 177,1140 174,1140 174,1137 177,1137 177,1134 174,1134 174,1131 177,1131 177,1134 180,1134 180,1131 183,1131 183,1128 186,1128 186,1131 189,1131 189,1128 192,1128 192,1125 189,1125 189,1122 192,1122 192,1119 189,1119 189,1116 192,1116 192,1119 195,1119 195,1116 198,1116 198,1113 195,1113 195,1116 192,1116 192,1113 189,1113 189,1116 186,1116 186,1113 189,1113 189,1110 186,1110 186,1107 183,1107 183,1104 186,1104 186,1101 183,1101 183,1098 186,1098 186,1101 189,1101 189,1098 192,1098 192,1095 189,1095 189,1092 192,1092 192,1089 189,1089 189,1086 192,1086 192,1089 195,1089 195,1086 198,1086 198,1083 195,1083 195,1086 192,1086 192,1083 189,1083 189,1086 186,1086 186,1083 189,1083 189,1080 186,1080 186,1077 183,1077 183,1074 186,1074 186,1071 183,1071 183,1068 186,1068 186,1071 189,1071 189,1068 192,1068 192,1071 189,1071 189,1074 192,1074 192,1077 195,1077 195,1074 198,1074 198,1077 201,1077 201,1074 204,1074 204,1077 201,1077 201,1080 204,1080 204,1083 207,1083 207,1080 204,1080 204,1077 207,1077 207,1074 204,1074 204,1071 207,1071 207,1074 210,1074 210,1071 213,1071 213,1068 216,1068 216,1071 219,1071 219,1068 222,1068 222,1065 219,1065 219,1062 222,1062 222,1059 219,1059 219,1056 222,1056 222,1059 225,1059 225,1056 228,1056 228,1053 225,1053 225,1056 222,1056 222,1053 219,1053 219,1056 216,1056 216,1053 219,1053 219,1050 216,1050 216,1047 213,1047 213,1050 216,1050 216,1053 213,1053 213,1056 216,1056 216,1059 213,1059 213,1056 210,1056 210,1059 207,1059 207,1062 204,1062 204,1059 201,1059 201,1062 198,1062 198,1059 201,1059 201,1056 198,1056 198,1053 195,1053 195,1056 192,1056 192,1053 189,1053 189,1056 186,1056 186,1053 189,1053 189,1050 186,1050 186,1047 183,1047 183,1050 186,1050 186,1053 183,1053 183,1056 186,1056 186,1059 183,1059 183,1056 180,1056 180,1059 177,1059 177,1062 174,1062 174,1059 171,1059 171,1062 168,1062 168,1059 171,1059 171,1056 168,1056 168,1053 171,1053 171,1056 174,1056 174,1053 177,1053 177,1050 174,1050 174,1047 177,1047 177,1044 174,1044 174,1041 177,1041 177,1044 180,1044 180,1041 183,1041 183,1038 180,1038 180,1041 177,1041 177,1038 174,1038 174,1041 171,1041 171,1038 174,1038 174,1035 171,1035 171,1032 168,1032 168,1029 171,1029 171,1026 168,1026 168,1023 165,1023 165,1026 162,1026 162,1023 159,1023 159,1026 156,1026 156,1023 159,1023 159,1020 156,1020 156,1017 153,1017 153,1014 156,1014 156,1011 153,1011 153,1008 156,1008 156,1011 159,1011 159,1008 162,1008 162,1005 159,1005 159,1002 162,1002 162,999 159,999 159,996 162,996 162,999 165,999 165,996 168,996 168,993 165,993 165,996 162,996 162,993 159,993 159,996 156,996 156,993 159,993 159,990 156,990 156,987 153,987 153,984 156,984 156,981 153,981 153,978 156,978 156,981 159,981 159,978 162,978 162,981 159,981 159,984 162,984 162,987 165,987 165,984 168,984 168,987 171,987 171,984 174,984 174,987 171,987 171,990 174,990 174,993 177,993 177,990 174,990 174,987 177,987 177,984 174,984 174,981 177,981 177,984 180,984 180,981 183,981 183,978 186,978 186,981 189,981 189,978 192,978 192,975 189,975 189,972 192,972 192,969 189,969 189,966 192,966 192,969 195,969 195,966 198,966 198,963 195,963 195,966 192,966 192,963 189,963 189,966 186,966 186,963 189,963 189,960 186,960 186,957 183,957 183,954 186,954 186,951 183,951 183,948 186,948 186,951 189,951 189,948 192,948 192,945 189,945 189,942 192,942 192,939 189,939 189,936 192,936 192,939 195,939 195,936 198,936 198,933 195,933 195,936 192,936 192,933 189,933 189,936 186,936 186,933 189,933 189,930 186,930 186,927 183,927 183,924 186,924 186,921 183,921 183,918 186,918 186,921 189,921 189,918 192,918 192,921 189,921 189,924 192,924 192,927 195,927 195,924 198,924 198,927 201,927 201,924 204,924 204,927 201,927 201,930 204,930 204,933 207,933 207,930 204,930 204,927 207,927 207,924 204,924 204,921 207,921 207,924 210,924 210,921 213,921 213,918 216,918 216,921 219,921 219,918 222,918 222,915 219,915 219,912 222,912 222,909 219,909 219,906 222,906 222,909 225,909 225,906 228,906 228,903 225,903 225,906 222,906 222,903 219,903 219,906 216,906 216,903 219,903 219,900 216,900 216,897 213,897 213,900 216,900 216,903 213,903 213,906 216,906 216,909 213,909 213,906 210,906 210,909 207,909 207,912 204,912 204,909 201,909 201,912 198,912 198,909 201,909 201,906 198,906 198,903 195,903 195,906 192,906 192,903 189,903 189,906 186,906 186,903 189,903 189,900 186,900 186,897 183,897 183,900 186,900 186,903 183,903 183,906 186,906 186,909 183,909 183,906 180,906 180,909 177,909 177,912 174,912 174,909 171,909 171,912 168,912 168,909 171,909 171,906 168,906 168,903 171,903 171,906 174,906 174,903 177,903 177,900 174,900 174,897 177,897 177,894 174,894 174,891 177,891 177,894 180,894 180,891 183,891 183,888 180,888 180,891 177,891 177,888 174,888 174,891 171,891 171,888 174,888 174,885 171,885 171,882 168,882 168,879 171,879 171,876 168,876 168,873 165,873 165,876 162,876 162,873 159,873 159,876 156,876 156,873 159,873 159,870 156,870 156,867 153,867 153,864 156,864 156,861 153,861 153,858 156,858 156,861 159,861 159,858 162,858 162,855 159,855 159,852 162,852 162,849 159,849 159,846 162,846 162,849 165,849 165,846 168,846 168,843 165,843 165,846 162,846 162,843 159,843 159,846 156,846 156,843 159,843 159,840 156,840 156,837 153,837 153,834 156,834 156,831 153,831 153,828 156,828 156,831 159,831 159,828 162,828 162,831 159,831 159,834 162,834 162,837 165,837 165,834 168,834 168,837 171,837 171,834 174,834 174,837 171,837 171,840 174,840 174,843 177,843 177,840 174,840 174,837 177,837 177,834 174,834 174,831 177,831 177,834 180,834 180,831 183,831 183,828 186,828 186,831 189,831 189,828 192,828 192,831 189,831 189,834 192,834 192,837 189,837 189,834 186,834 186,837 183,837 183,840 186,840 186,843 183,843 183,846 186,846 186,849 183,849 183,846 180,846 180,849 177,849 177,852 180,852 180,849 183,849 183,852 186,852 186,849 189,849 189,852 186,852 186,855 189,855 189,858 192,858 192,861 189,861 189,864 192,864 192,867 195,867 195,864 198,864 198,867 201,867 201,864 204,864 204,867 201,867 201,870 204,870 204,873 207,873 207,870 204,870 204,867 207,867 207,864 204,864 204,861 207,861 207,864 210,864 210,861 213,861 213,858 216,858 216,861 219,861 219,858 222,858 222,861 219,861 219,864 222,864 222,867 225,867 225,864 228,864 228,867 231,867 231,864 234,864 234,867 231,867 231,870 234,870 234,873 237,873 237,870 234,870 234,867 237,867 237,864 234,864 234,861 237,861 237,864 240,864 240,861 243,861 243,858 246,858 246,861 249,861 249,858 252,858 252,861 249,861 249,864 252,864 252,867 249,867 249,864 246,864 246,867 243,867 243,870 246,870 246,873 243,873 243,876 246,876 246,879 243,879 243,876 240,876 240,879 237,879 237,882 240,882 240,879 243,879 243,882 246,882 246,879 249,879 249,882 246,882 246,885 249,885 249,888 252,888 252,891 249,891 249,894 252,894 252,897 255,897 255,894 258,894 258,897 261,897 261,894 264,894 264,897 261,897 261,900 264,900 264,903 267,903 267,900 264,900 264,897 267,897 267,894 264,894 264,891 267,891 267,894 270,894 270,891 273,891 273,888 270,888 270,891 267,891 267,888 264,888 264,891 261,891 261,888 264,888 264,885 261,885 261,882 258,882 258,879 261,879 261,876 258,876 258,873 261,873 261,876 264,876 264,873 267,873 267,870 264,870 264,867 267,867 267,864 264,864 264,861 267,861 267,864 270,864 270,861 273,861 273,858 270,858 270,861 267,861 267,858 264,858 264,861 261,861 261,858 264,858 264,855 261,855 261,852 258,852 258,849 261,849 261,846 258,846 258,843 261,843 261,846 264,846 264,843 267,843 267,846 264,846 264,849 267,849 267,852 270,852 270,849 273,849 273,852 276,852 276,849 279,849 279,852 276,852 276,855 279,855 279,858 282,858 282,855 279,855 279,852 282,852 282,849 279,849 279,846 282,846 282,849 285,849 285,846 288,846 288,843 291,843 291,846 294,846 294,843 297,843 297,840 294,840 294,837 297,837 297,834 294,834 294,831 297,831 297,834 300,834 300,831 303,831 303,828 306,828 306,831 309,831 309,828 312,828 312,831 309,831 309,834 312,834 312,837 315,837 315,834 318,834 318,837 321,837 321,834 324,834 324,837 321,837 321,840 324,840 324,843 327,843 327,840 324,840 324,837 327,837 327,834 324,834 324,831 327,831 327,834 330,834 330,831 333,831 333,828 336,828 336,831 339,831 339,828 342,828 342,825 339,825 339,822 342,822 342,819 339,819 339,816 342,816 342,819 345,819 345,816 348,816 348,813 345,813 345,816 342,816 342,813 339,813 339,816 336,816 336,813 339,813 339,810 336,810 336,807 333,807 333,804 336,804 336,801 333,801 333,798 336,798 336,801 339,801 339,798 342,798 342,795 339,795 339,792 342,792 342,789 339,789 339,786 342,786 342,789 345,789 345,786 348,786 348,783 345,783 345,786 342,786 342,783 339,783 339,786 336,786 336,783 339,783 339,780 336,780 336,777 333,777 333,774 336,774 336,771 333,771 333,768 336,768 336,771 339,771 339,768 342,768 342,771 339,771 339,774 342,774 342,777 345,777 345,774 348,774 348,777 351,777 351,774 354,774 354,777 351,777 351,780 354,780 354,783 357,783 357,780 354,780 354,777 357,777 357,774 354,774 354,771 357,771 357,774 360,774 360,771 363,771 363,768 366,768 366,771 369,771 369,768 372,768 372,765 369,765 369,762 372,762 372,759 369,759 369,756 372,756 372,759 375,759 375,756 378,756 378,753 375,753 375,756 372,756 372,753 369,753 369,756 366,756 366,753 369,753 369,750 366,750 366,747 363,747 363,750 366,750 366,753 363,753 363,756 366,756 366,759 363,759 363,756 360,756 360,759 357,759 357,762 354,762 354,759 351,759 351,762 348,762 348,759 351,759 351,756 348,756 348,753 345,753 345,756 342,756 342,753 339,753 339,756 336,756 336,753 339,753 339,750 336,750 336,747 333,747 333,750 336,750 336,753 333,753 333,756 336,756 336,759 333,759 333,756 330,756 330,759 327,759 327,762 324,762 324,759 321,759 321,762 318,762 318,759 321,759 321,756 318,756 318,753 321,753 321,756 324,756 324,753 327,753 327,750 324,750 324,747 327,747 327,744 324,744 324,741 327,741 327,744 330,744 330,741 333,741 333,738 330,738 330,741 327,741 327,738 324,738 324,741 321,741 321,738 324,738 324,735 321,735 321,732 318,732 318,729 321,729 321,726 318,726 318,723 315,723 315,726 312,726 312,723 309,723 309,726 306,726 306,723 309,723 309,720 306,720 306,717 303,717 303,720 306,720 306,723 303,723 303,726 306,726 306,729 303,729 303,726 300,726 300,729 297,729 297,732 300,732 300,729 303,729 303,732 306,732 306,729 309,729 309,732 306,732 306,735 309,735 309,738 312,738 312,741 309,741 309,744 312,744 312,747 309,747 309,744 306,744 306,747 303,747 303,750 306,750 306,753 303,753 303,756 306,756 306,759 303,759 303,756 300,756 300,759 297,759 297,762 300,762 300,759 303,759 303,762 306,762 306,759 309,759 309,762 306,762 306,765 309,765 309,768 312,768 312,771 309,771 309,774 312,774 312,777 309,777 309,774 306,774 306,777 303,777 303,774 306,774 306,771 303,771 303,768 300,768 300,771 297,771 297,768 294,768 294,771 291,771 291,768 294,768 294,765 291,765 291,762 288,762 288,765 291,765 291,768 288,768 288,771 291,771 291,774 288,774 288,771 285,771 285,774 282,774 282,777 279,777 279,774 276,774 276,777 273,777 273,780 276,780 276,783 273,783 273,786 276,786 276,789 273,789 273,786 270,786 270,789 267,789 267,792 264,792 264,789 261,789 261,792 258,792 258,789 261,789 261,786 258,786 258,783 255,783 255,786 252,786 252,783 249,783 249,786 246,786 246,783 249,783 249,780 246,780 246,777 243,777 243,780 246,780 246,783 243,783 243,786 246,786 246,789 243,789 243,786 240,786 240,789 237,789 237,792 234,792 234,789 231,789 231,792 228,792 228,789 231,789 231,786 228,786 228,783 231,783 231,786 234,786 234,783 237,783 237,780 234,780 234,777 237,777 237,774 234,774 234,771 237,771 237,774 240,774 240,771 243,771 243,768 240,768 240,771 237,771 237,768 234,768 234,771 231,771 231,768 234,768 234,765 231,765 231,762 228,762 228,759 231,759 231,756 228,756 228,753 225,753 225,756 222,756 222,753 219,753 219,756 216,756 216,753 219,753 219,750 216,750 216,747 213,747 213,750 216,750 216,753 213,753 213,756 216,756 216,759 213,759 213,756 210,756 210,759 207,759 207,762 204,762 204,759 201,759 201,762 198,762 198,759 201,759 201,756 198,756 198,753 195,753 195,756 192,756 192,753 189,753 189,756 186,756 186,753 189,753 189,750 186,750 186,747 183,747 183,750 186,750 186,753 183,753 183,756 186,756 186,759 183,759 183,756 180,756 180,759 177,759 177,762 174,762 174,759 171,759 171,762 168,762 168,759 171,759 171,756 168,756 168,753 171,753 171,756 174,756 174,753 177,753 177,750 174,750 174,747 177,747 177,744 174,744 174,741 177,741 177,744 180,744 180,741 183,741 183,738 180,738 180,741 177,741 177,738 174,738 174,741 171,741 171,738 174,738 174,735 171,735 171,732 168,732 168,729 171,729 171,726 168,726 168,723 165,723 165,726 162,726 162,723 159,723 159,726 156,726 156,723 159,723 159,720 156,720 156,717 153,717 153,720 156,720 156,723 153,723 153,726 156,726 156,729 153,729 153,726 150,726 150,729 147,729 147,732 150,732 150,729 153,729 153,732 156,732 156,729 159,729 159,732 156,732 156,735 159,735 159,738 162,738 162,741 159,741 159,744 162,744 162,747 159,747 159,744 156,744 156,747 153,747 153,750 156,750 156,753 153,753 153,756 156,756 156,759 153,759 153,756 150,756 150,759 147,759 147,762 150,762 150,759 153,759 153,762 156,762 156,759 159,759 159,762 156,762 156,765 159,765 159,768 162,768 162,771 159,771 159,774 162,774 162,777 159,777 159,774 156,774 156,777 153,777 153,774 156,774 156,771 153,771 153,768 150,768 150,771 147,771 147,768 144,768 144,771 141,771 141,768 144,768 144,765 141,765 141,762 138,762 138,765 141,765 141,768 138,768 138,771 141,771 141,774 138,774 138,771 135,771 135,774 132,774 132,777 129,777 129,774 126,774 126,777 123,777 123,780 126,780 126,783 123,783 123,786 126,786 126,789 123,789 123,786 120,786 120,789 117,789 117,792 114,792 114,789 111,789 111,792 108,792 108,789 111,789 111,786 108,786 108,783 105,783 105,786 102,786 102,783 99,783 99,786 96,786 96,783 99,783 99,780 96,780 96,777 93,777 93,780 96,780 96,783 93,783 93,786 96,786 96,789 93,789 93,786 90,786 90,789 87,789 87,792 84,792 84,789 81,789 81,792 78,792 78,789 81,789 81,786 78,786 78,783 81,783 81,786 84,786 84,783 87,783 87,780 84,780 84,777 87,777 87,774 84,774 84,771 87,771 87,774 90,774 90,771 93,771 93,768 90,768 90,771 87,771 87,768 84,768 84,771 81,771 81,768 84,768 84,765 81,765 81,762 78,762 78,759 81,759 81,756 78,756 78,753 81,753 81,756 84,756 84,753 87,753 87,756 84,756 84,759 87,759 87,762 90,762 90,759 93,759 93,762 96,762 96,759 99,759 99,762 96,762 96,765 99,765 99,768 102,768 102,765 99,765 99,762 102,762 102,759 99,759 99,756 102,756 102,759 105,759 105,756 108,756 108,753 111,753 111,756 114,756 114,753 117,753 117,750 114,750 114,747 117,747 117,744 114,744 114,741 117,741 117,744 120,744 120,741 123,741 123,738 120,738 120,741 117,741 117,738 114,738 114,741 111,741 111,738 114,738 114,735 111,735 111,732 108,732 108,729 111,729 111,726 108,726 108,723 111,723 111,726 114,726 114,723 117,723 117,720 114,720 114,717 117,717 117,714 114,714 114,711 117,711 117,714 120,714 120,711 123,711 123,708 120,708 120,711 117,711 117,708 114,708 114,711 111,711 111,708 114,708 114,705 111,705 111,702 108,702 108,699 111,699 111,696 108,696 108,693 111,693 111,696 114,696 114,693 117,693 117,696 114,696 114,699 117,699 117,702 120,702 120,699 123,699 123,702 126,702 126,699 129,699 129,702 126,702 126,705 129,705 129,708 132,708 132,705 129,705 129,702 132,702 132,699 129,699 129,696 132,696 132,699 135,699 135,696 138,696 138,693 141,693 141,696 144,696 144,693 147,693 147,690 144,690 144,687 147,687 147,684 144,684 144,681 147,681 147,684 150,684 150,681 153,681 153,678 150,678 150,681 147,681 147,678 144,678 144,681 141,681 141,678 144,678 144,675 141,675 141,672 138,672 138,675 141,675 141,678 138,678 138,681 141,681 141,684 138,684 138,681 135,681 135,684 132,684 132,687 129,687 129,684 126,684 126,687 123,687 123,684 126,684 126,681 123,681 123,678 120,678 120,681 117,681 117,678 114,678 114,681 111,681 111,678 114,678 114,675 111,675 111,672 108,672 108,675 111,675 111,678 108,678 108,681 111,681 111,684 108,684 108,681 105,681 105,684 102,684 102,687 99,687 99,684 96,684 96,687 93,687 93,684 96,684 96,681 93,681 93,678 96,678 96,681 99,681 99,678 102,678 102,675 99,675 99,672 102,672 102,669 99,669 99,666 102,666 102,669 105,669 105,666 108,666 108,663 105,663 105,666 102,666 102,663 99,663 99,666 96,666 96,663 99,663 99,660 96,660 96,657 93,657 93,654 96,654 96,651 93,651 93,648 90,648 90,651 87,651 87,648 84,648 84,651 81,651 81,648 84,648 84,645 81,645 81,642 78,642 78,639 81,639 81,636 78,636 78,633 81,633 81,636 84,636 84,633 87,633 87,630 84,630 84,627 87,627 87,624 84,624 84,621 87,621 87,624 90,624 90,621 93,621 93,618 90,618 90,621 87,621 87,618 84,618 84,621 81,621 81,618 84,618 84,615 81,615 81,612 78,612 78,609 81,609 81,606 78,606 78,603 75,603 75,606 72,606 72,603 69,603 69,606 66,606 66,603 69,603 69,600 66,600 66,597 63,597 63,600 66,600 66,603 63,603 63,606 66,606 66,609 63,609 63,606 60,606 60,609 57,609 57,612 54,612 54,609 51,609 51,612 48,612 48,609 51,609 51,606 48,606 48,603 45,603 45,606 42,606 42,603 39,603 39,606 36,606 36,603 39,603 39,600 36,600 36,597 33,597 33,600 36,600 36,603 33,603 33,606 36,606 36,609 33,609 33,606 30,606 30,609 27,609 27,612 24,612 24,609 21,609 21,612 18,612 18,609 21,609 21,606 18,606 18,603 21,603 21,606 24,606 24,603 27,603 27,600 24,600 24,597 27,597 27,594 24,594 24,591 27,591 27,594 30,594 30,591 33,591 33,588 30,588 30,591 27,591 27,588 24,588 24,591 21,591 21,588 24,588 24,585 21,585 21,582 18,582 18,579 21,579 21,576 18,576 18,573 15,573 15,576 12,576 12,573 9,573 9,576 6,576 6,573 9,573 9,570 6,570 6,567 3,567 3,564 6,564 6,561 3,561 3,558 6,558 6,561 9,561 9,558 12,558 12,555 9,555 9,552 12,552 12,549 9,549 9,546 12,546 12,549 15,549 15,546 18,546 18,543 15,543 15,546 12,546 12,543 9,543 9,546 6,546 6,543 9,543 9,540 6,540 6,537 3,537 3,534 6,534 6,531 3,531 3,528 6,528 6,531 9,531 9,528 12,528 12,531 9,531 9,534 12,534 12,537 15,537 15,534 18,534 18,537 21,537 21,534 24,534 24,537 21,537 21,540 24,540 24,543 27,543 27,540 24,540 24,537 27,537 27,534 24,534 24,531 27,531 27,534 30,534 30,531 33,531 33,528 36,528 36,531 39,531 39,528 42,528 42,525 39,525 39,522 42,522 42,519 39,519 39,516 42,516 42,519 45,519 45,516 48,516 48,513 45,513 45,516 42,516 42,513 39,513 39,516 36,516 36,513 39,513 39,510 36,510 36,507 33,507 33,504 36,504 36,501 33,501 33,498 36,498 36,501 39,501 39,498 42,498 42,495 39,495 39,492 42,492 42,489 39,489 39,486 42,486 42,489 45,489 45,486 48,486 48,483 45,483 45,486 42,486 42,483 39,483 39,486 36,486 36,483 39,483 39,480 36,480 36,477 33,477 33,474 36,474 36,471 33,471 33,468 36,468 36,471 39,471 39,468 42,468 42,471 39,471 39,474 42,474 42,477 45,477 45,474 48,474 48,477 51,477 51,474 54,474 54,477 51,477 51,480 54,480 54,483 57,483 57,480 54,480 54,477 57,477 57,474 54,474 54,471 57,471 57,474 60,474 60,471 63,471 63,468 66,468 66,471 69,471 69,468 72,468 72,465 69,465 69,462 72,462 72,459 69,459 69,456 72,456 72,459 75,459 75,456 78,456 78,453 75,453 75,456 72,456 72,453 69,453 69,456 66,456 66,453 69,453 69,450 66,450 66,447 63,447 63,450 66,450 66,453 63,453 63,456 66,456 66,459 63,459 63,456 60,456 60,459 57,459 57,462 54,462 54,459 51,459 51,462 48,462 48,459 51,459 51,456 48,456 48,453 45,453 45,456 42,456 42,453 39,453 39,456 36,456 36,453 39,453 39,450 36,450 36,447 33,447 33,450 36,450 36,453 33,453 33,456 36,456 36,459 33,459 33,456 30,456 30,459 27,459 27,462 24,462 24,459 21,459 21,462 18,462 18,459 21,459 21,456 18,456 18,453 21,453 21,456 24,456 24,453 27,453 27,450 24,450 24,447 27,447 27,444 24,444 24,441 27,441 27,444 30,444 30,441 33,441 33,438 30,438 30,441 27,441 27,438 24,438 24,441 21,441 21,438 24,438 24,435 21,435 21,432 18,432 18,429 21,429 21,426 18,426 18,423 15,423 15,426 12,426 12,423 9,423 9,426 6,426 6,423 9,423 9,420 6,420 6,417 3,417 3,414 6,414 6,411 3,411 3,408 6,408 6,411 9,411 9,408 12,408 12,405 9,405 9,402 12,402 12,399 9,399 9,396 12,396 12,399 15,399 15,396 18,396 18,393 15,393 15,396 12,396 12,393 9,393 9,396 6,396 6,393 9,393 9,390 6,390 6,387 3,387 3,384 6,384 6,381 3,381 3,378 6,378 6,381 9,381 9,378 12,378 12,381 9,381 9,384 12,384 12,387 15,387 15,384 18,384 18,387 21,387 21,384 24,384 24,387 21,387 21,390 24,390 24,393 27,393 27,390 24,390 24,387 27,387 27,384 24,384 24,381 27,381 27,384 30,384 30,381 33,381 33,378 36,378 36,381 39,381 39,378 42,378 42,381 39,381 39,384 42,384 42,387 39,387 39,384 36,384 36,387 33,387 33,390 36,390 36,393 33,393 33,396 36,396 36,399 33,399 33,396 30,396 30,399 27,399 27,402 30,402 30,399 33,399 33,402 36,402 36,399 39,399 39,402 36,402 36,405 39,405 39,408 42,408 42,411 39,411 39,414 42,414 42,417 45,417 45,414 48,414 48,417 51,417 51,414 54,414 54,417 51,417 51,420 54,420 54,423 57,423 57,420 54,420 54,417 57,417 57,414 54,414 54,411 57,411 57,414 60,414 60,411 63,411 63,408 66,408 66,411 69,411 69,408 72,408 72,411 69,411 69,414 72,414 72,417 75,417 75,414 78,414 78,417 81,417 81,414 84,414 84,417 81,417 81,420 84,420 84,423 87,423 87,420 84,420 84,417 87,417 87,414 84,414 84,411 87,411 87,414 90,414 90,411 93,411 93,408 96,408 96,411 99,411 99,408 102,408 102,411 99,411 99,414 102,414 102,417 99,417 99,414 96,414 96,417 93,417 93,420 96,420 96,423 93,423 93,426 96,426 96,429 93,429 93,426 90,426 90,429 87,429 87,432 90,432 90,429 93,429 93,432 96,432 96,429 99,429 99,432 96,432 96,435 99,435 99,438 102,438 102,441 99,441 99,444 102,444 102,447 105,447 105,444 108,444 108,447 111,447 111,444 114,444 114,447 111,447 111,450 114,450 114,453 117,453 117,450 114,450 114,447 117,447 117,444 114,444 114,441 117,441 117,444 120,444 120,441 123,441 123,438 120,438 120,441 117,441 117,438 114,438 114,441 111,441 111,438 114,438 114,435 111,435 111,432 108,432 108,429 111,429 111,426 108,426 108,423 111,423 111,426 114,426 114,423 117,423 117,420 114,420 114,417 117,417 117,414 114,414 114,411 117,411 117,414 120,414 120,411 123,411 123,408 120,408 120,411 117,411 117,408 114,408 114,411 111,411 111,408 114,408 114,405 111,405 111,402 108,402 108,399 111,399 111,396 108,396 108,393 111,393 111,396 114,396 114,393 117,393 117,396 114,396 114,399 117,399 117,402 120,402 120,399 123,399 123,402 126,402 126,399 129,399 129,402 126,402 126,405 129,405 129,408 132,408 132,405 129,405 129,402 132,402 132,399 129,399 129,396 132,396 132,399 135,399 135,396 138,396 138,393 141,393 141,396 144,396 144,393 147,393 147,390 144,390 144,387 147,387 147,384 144,384 144,381 147,381 147,384 150,384 150,381 153,381 153,378 156,378 156,381 159,381 159,378 162,378 162,381 159,381 159,384 162,384 162,387 165,387 165,384 168,384 168,387 171,387 171,384 174,384 174,387 171,387 171,390 174,390 174,393 177,393 177,390 174,390 174,387 177,387 177,384 174,384 174,381 177,381 177,384 180,384 180,381 183,381 183,378 186,378 186,381 189,381 189,378 192,378 192,381 189,381 189,384 192,384 192,387 189,387 189,384 186,384 186,387 183,387 183,390 186,390 186,393 183,393 183,396 186,396 186,399 183,399 183,396 180,396 180,399 177,399 177,402 180,402 180,399 183,399 183,402 186,402 186,399 189,399 189,402 186,402 186,405 189,405 189,408 192,408 192,411 189,411 189,414 192,414 192,417 189,417 189,414 186,414 186,417 183,417 183,414 186,414 186,411 183,411 183,408 180,408 180,411 177,411 177,408 174,408 174,411 171,411 171,408 174,408 174,405 171,405 171,402 168,402 168,405 171,405 171,408 168,408 168,411 171,411 171,414 168,414 168,411 165,411 165,414 162,414 162,417 159,417 159,414 156,414 156,417 153,417 153,420 156,420 156,423 153,423 153,426 156,426 156,429 153,429 153,426 150,426 150,429 147,429 147,432 150,432 150,429 153,429 153,432 156,432 156,429 159,429 159,432 156,432 156,435 159,435 159,438 162,438 162,441 159,441 159,444 162,444 162,447 159,447 159,444 156,444 156,447 153,447 153,450 156,450 156,453 153,453 153,456 156,456 156,459 153,459 153,456 150,456 150,459 147,459 147,462 150,462 150,459 153,459 153,462 156,462 156,459 159,459 159,462 156,462 156,465 159,465 159,468 162,468 162,471 159,471 159,474 162,474 162,477 159,477 159,474 156,474 156,477 153,477 153,474 156,474 156,471 153,471 153,468 150,468 150,471 147,471 147,468 144,468 144,471 141,471 141,468 144,468 144,465 141,465 141,462 138,462 138,465 141,465 141,468 138,468 138,471 141,471 141,474 138,474 138,471 135,471 135,474 132,474 132,477 129,477 129,474 126,474 126,477 123,477 123,480 126,480 126,483 123,483 123,486 126,486 126,489 123,489 123,486 120,486 120,489 117,489 117,492 120,492 120,489 123,489 123,492 126,492 126,489 129,489 129,492 126,492 126,495 129,495 129,498 132,498 132,495 129,495 129,492 132,492 132,489 129,489 129,486 132,486 132,489 135,489 135,486 138,486 138,483 141,483 141,486 144,486 144,483 147,483 147,486 144,486 144,489 147,489 147,492 150,492 150,489 153,489 153,492 156,492 156,489 159,489 159,492 156,492 156,495 159,495 159,498 162,498 162,495 159,495 159,492 162,492 162,489 159,489 159,486 162,486 162,489 165,489 165,486 168,486 168,483 171,483 171,486 174,486 174,483 177,483 177,486 174,486 174,489 177,489 177,492 174,492 174,489 171,489 171,492 168,492 168,495 171,495 171,498 168,498 168,501 171,501 171,504 168,504 168,501 165,501 165,504 162,504 162,507 165,507 165,504 168,504 168,507 171,507 171,504 174,504 174,507 171,507 171,510 174,510 174,513 177,513 177,516 174,516 174,519 177,519 177,522 180,522 180,519 183,519 183,522 186,522 186,519 189,519 189,522 186,522 186,525 189,525 189,528 192,528 192,531 189,531 189,534 192,534 192,537 189,537 189,534 186,534 186,537 183,537 183,540 186,540 186,543 183,543 183,546 186,546 186,549 183,549 183,546 180,546 180,549 177,549 177,552 180,552 180,549 183,549 183,552 186,552 186,549 189,549 189,552 186,552 186,555 189,555 189,558 192,558 192,561 189,561 189,564 192,564 192,567 195,567 195,564 198,564 198,567 201,567 201,564 204,564 204,567 201,567 201,570 204,570 204,573 207,573 207,570 204,570 204,567 207,567 207,564 204,564 204,561 207,561 207,564 210,564 210,561 213,561 213,558 216,558 216,561 219,561 219,558 222,558 222,561 219,561 219,564 222,564 222,567 225,567 225,564 228,564 228,567 231,567 231,564 234,564 234,567 231,567 231,570 234,570 234,573 237,573 237,570 234,570 234,567 237,567 237,564 234,564 234,561 237,561 237,564 240,564 240,561 243,561 243,558 246,558 246,561 249,561 249,558 252,558 252,561 249,561 249,564 252,564 252,567 249,567 249,564 246,564 246,567 243,567 243,570 246,570 246,573 243,573 243,576 246,576 246,579 243,579 243,576 240,576 240,579 237,579 237,582 240,582 240,579 243,579 243,582 246,582 246,579 249,579 249,582 246,582 246,585 249,585 249,588 252,588 252,591 249,591 249,594 252,594 252,597 255,597 255,594 258,594 258,597 261,597 261,594 264,594 264,597 261,597 261,600 264,600 264,603 267,603 267,600 264,600 264,597 267,597 267,594 264,594 264,591 267,591 267,594 270,594 270,591 273,591 273,588 270,588 270,591 267,591 267,588 264,588 264,591 261,591 261,588 264,588 264,585 261,585 261,582 258,582 258,579 261,579 261,576 258,576 258,573 261,573 261,576 264,576 264,573 267,573 267,570 264,570 264,567 267,567 267,564 264,564 264,561 267,561 267,564 270,564 270,561 273,561 273,558 270,558 270,561 267,561 267,558 264,558 264,561 261,561 261,558 264,558 264,555 261,555 261,552 258,552 258,549 261,549 261,546 258,546 258,543 261,543 261,546 264,546 264,543 267,543 267,546 264,546 264,549 267,549 267,552 270,552 270,549 273,549 273,552 276,552 276,549 279,549 279,552 276,552 276,555 279,555 279,558 282,558 282,555 279,555 279,552 282,552 282,549 279,549 279,546 282,546 282,549 285,549 285,546 288,546 288,543 291,543 291,546 294,546 294,543 297,543 297,540 294,540 294,537 297,537 297,534 294,534 294,531 297,531 297,534 300,534 300,531 303,531 303,528 306,528 306,531 309,531 309,528 312,528 312,531 309,531 309,534 312,534 312,537 315,537 315,534 318,534 318,537 321,537 321,534 324,534 324,537 321,537 321,540 324,540 324,543 327,543 327,540 324,540 324,537 327,537 327,534 324,534 324,531 327,531 327,534 330,534 330,531 333,531 333,528 336,528 336,531 339,531 339,528 342,528 342,531 339,531 339,534 342,534 342,537 339,537 339,534 336,534 336,537 333,537 333,540 336,540 336,543 333,543 333,546 336,546 336,549 333,549 333,546 330,546 330,549 327,549 327,552 330,552 330,549 333,549 333,552 336,552 336,549 339,549 339,552 336,552 336,555 339,555 339,558 342,558 342,561 339,561 339,564 342,564 342,567 345,567 345,564 348,564 348,567 351,567 351,564 354,564 354,567 351,567 351,570 354,570 354,573 357,573 357,570 354,570 354,567 357,567 357,564 354,564 354,561 357,561 357,564 360,564 360,561 363,561 363,558 366,558 366,561 369,561 369,558 372,558 372,561 369,561 369,564 372,564 372,567 375,567 375,564 378,564 378,567 381,567 381,564 384,564 384,567 381,567 381,570 384,570 384,573 387,573 387,570 384,570 384,567 387,567 387,564 384,564 384,561 387,561 387,564 390,564 390,561 393,561 393,558 396,558 396,561 399,561 399,558 402,558 402,561 399,561 399,564 402,564 402,567 399,567 399,564 396,564 396,567 393,567 393,570 396,570 396,573 393,573 393,576 396,576 396,579 393,579 393,576 390,576 390,579 387,579 387,582 390,582 390,579 393,579 393,582 396,582 396,579 399,579 399,582 396,582 396,585 399,585 399,588 402,588 402,591 399,591 399,594 402,594 402,597 405,597 405,594 408,594 408,597 411,597 411,594 414,594 414,597 411,597 411,600 414,600 414,603 417,603 417,600 414,600 414,597 417,597 417,594 414,594 414,591 417,591 417,594 420,594 420,591 423,591 423,588 420,588 420,591 417,591 417,588 414,588 414,591 411,591 411,588 414,588 414,585 411,585 411,582 408,582 408,579 411,579 411,576 408,576 408,573 411,573 411,576 414,576 414,573 417,573 417,570 414,570 414,567 417,567 417,564 414,564 414,561 417,561 417,564 420,564 420,561 423,561 423,558 420,558 420,561 417,561 417,558 414,558 414,561 411,561 411,558 414,558 414,555 411,555 411,552 408,552 408,549 411,549 411,546 408,546 408,543 411,543 411,546 414,546 414,543 417,543 417,546 414,546 414,549 417,549 417,552 420,552 420,549 423,549 423,552 426,552 426,549 429,549 429,552 426,552 426,555 429,555 429,558 432,558 432,555 429,555 429,552 432,552 432,549 429,549 429,546 432,546 432,549 435,549 435,546 438,546 438,543 441,543 441,546 444,546 444,543 447,543 447,540 444,540 444,537 447,537 447,534 444,534 444,531 447,531 447,534 450,534 450,531 453,531 453,528 456,528 456,531 459,531 459,528 462,528 462,531 459,531 459,534 462,534 462,537 465,537 465,534 468,534 468,537 471,537 471,534 474,534 474,537 471,537 471,540 474,540 474,543 477,543 477,540 474,540 474,537 477,537 477,534 474,534 474,531 477,531 477,534 480,534 480,531 483,531 483,528 486,528 486,531 489,531 489,528 492,528 492,531 489,531 489,534 492,534 492,537 489,537 489,534 486,534 486,537 483,537 483,540 486,540 486,543 483,543 483,546 486,546 486,549 483,549 483,546 480,546 480,549 477,549 477,552 480,552 480,549 483,549 483,552 486,552 486,549 489,549 489,552 486,552 486,555 489,555 489,558 492,558 492,561 489,561 489,564 492,564 492,567 489,567 489,564 486,564 486,567 483,567 483,564 486,564 486,561 483,561 483,558 480,558 480,561 477,561 477,558 474,558 474,561 471,561 471,558 474,558 474,555 471,555 471,552 468,552 468,555 471,555 471,558 468,558 468,561 471,561 471,564 468,564 468,561 465,561 465,564 462,564 462,567 459,567 459,564 456,564 456,567 453,567 453,570 456,570 456,573 453,573 453,576 456,576 456,579 453,579 453,576 450,576 450,579 447,579 447,582 450,582 450,579 453,579 453,582 456,582 456,579 459,579 459,582 456,582 456,585 459,585 459,588 462,588 462,591 459,591 459,594 462,594 462,597 459,597 459,594 456,594 456,597 453,597 453,600 456,600 456,603 453,603 453,606 456,606 456,609 453,609 453,606 450,606 450,609 447,609 447,612 450,612 450,609 453,609 453,612 456,612 456,609 459,609 459,612 456,612 456,615 459,615 459,618 462,618 462,621 459,621 459,624 462,624 462,627 459,627 459,624 456,624 456,627 453,627 453,624 456,624 456,621 453,621 453,618 450,618 450,621 447,621 447,618 444,618 444,621 441,621 441,618 444,618 444,615 441,615 441,612 438,612 438,615 441,615 441,618 438,618 438,621 441,621 441,624 438,624 438,621 435,621 435,624 432,624 432,627 429,627 429,624 426,624 426,627 423,627 423,630 426,630 426,633 423,633 423,636 426,636 426,639 423,639 423,636 420,636 420,639 417,639 417,642 420,642 420,639 423,639 423,642 426,642 426,639 429,639 429,642 426,642 426,645 429,645 429,648 432,648 432,645 429,645 429,642 432,642 432,639 429,639 429,636 432,636 432,639 435,639 435,636 438,636 438,633 441,633 441,636 444,636 444,633 447,633 447,636 444,636 444,639 447,639 447,642 450,642 450,639 453,639 453,642 456,642 456,639 459,639 459,642 456,642 456,645 459,645 459,648 462,648 462,645 459,645 459,642 462,642 462,639 459,639 459,636 462,636 462,639 465,639 465,636 468,636 468,633 471,633 471,636 474,636 474,633 477,633 477,636 474,636 474,639 477,639 477,642 474,642 474,639 471,639 471,642 468,642 468,645 471,645 471,648 468,648 468,651 471,651 471,654 468,654 468,651 465,651 465,654 462,654 462,657 465,657 465,654 468,654 468,657 471,657 471,654 474,654 474,657 471,657 471,660 474,660 474,663 477,663 477,666 474,666 474,669 477,669 477,672 480,672 480,669 483,669 483,672 486,672 486,669 489,669 489,672 486,672 486,675 489,675 489,678 492,678 492,681 489,681 489,684 492,684 492,687 489,687 489,684 486,684 486,687 483,687 483,690 486,690 486,693 483,693 483,696 486,696 486,699 483,699 483,696 480,696 480,699 477,699 477,702 480,702 480,699 483,699 483,702 486,702 486,699 489,699 489,702 486,702 486,705 489,705 489,708 492,708 492,711 489,711 489,714 492,714 492,717 495,717 495,714 498,714 498,717 501,717 501,714 504,714 504,717 501,717 501,720 504,720 504,723 507,723 507,720 504,720 504,717 507,717 507,714 504,714 504,711 507,711 507,714 510,714 510,711 513,711 513,708 516,708 516,711 519,711 519,708 522,708 522,711 519,711 519,714 522,714 522,717 525,717 525,714 528,714 528,717 531,717 531,714 534,714 534,717 531,717 531,720 534,720 534,723 537,723 537,720 534,720 534,717 537,717 537,714 534,714 534,711 537,711 537,714 540,714 540,711 543,711 543,708 546,708 546,711 549,711 549,708 552,708 552,711 549,711 549,714 552,714 552,717 549,717 549,714 546,714 546,717 543,717 543,720 546,720 546,723 543,723 543,726 546,726 546,729 543,729 543,726 540,726 540,729 537,729 537,732 540,732 540,729 543,729 543,732 546,732 546,729 549,729 549,732 546,732 546,735 549,735 549,738 552,738 552,741 549,741 549,744 552,744 552,747 555,747 555,744 558,744 558,747 561,747 561,744 564,744 564,747 561,747 561,750 564,750 564,753 567,753 567,750 564,750 564,747 567,747 567,744 564,744 564,741 567,741 567,744 570,744 570,741 573,741 573,738 570,738 570,741 567,741 567,738 564,738 564,741 561,741 561,738 564,738 564,735 561,735 561,732 558,732 558,729 561,729 561,726 558,726 558,723 561,723 561,726 564,726 564,723 567,723 567,720 564,720 564,717 567,717 567,714 564,714 564,711 567,711 567,714 570,714 570,711 573,711 573,708 570,708 570,711 567,711 567,708 564,708 564,711 561,711 561,708 564,708 564,705 561,705 561,702 558,702 558,699 561,699 561,696 558,696 558,693 561,693 561,696 564,696 564,693 567,693 567,696 564,696 564,699 567,699 567,702 570,702 570,699 573,699 573,702 576,702 576,699 579,699 579,702 576,702 576,705 579,705 579,708 582,708 582,705 579,705 579,702 582,702 582,699 579,699 579,696 582,696 582,699 585,699 585,696 588,696 588,693 591,693 591,696 594,696 594,693 597,693 597,690 594,690 594,687 597,687 597,684 594,684 594,681 597,681 597,684 600,684 600,681 603,681 603,678 600,678 600,681 597,681 597,678 594,678 594,681 591,681 591,678 594,678 594,675 591,675 591,672 588,672 588,675 591,675 591,678 588,678 588,681 591,681 591,684 588,684 588,681 585,681 585,684 582,684 582,687 579,687 579,684 576,684 576,687 573,687 573,684 576,684 576,681 573,681 573,678 570,678 570,681 567,681 567,678 564,678 564,681 561,681 561,678 564,678 564,675 561,675 561,672 558,672 558,675 561,675 561,678 558,678 558,681 561,681 561,684 558,684 558,681 555,681 555,684 552,684 552,687 549,687 549,684 546,684 546,687 543,687 543,684 546,684 546,681 543,681 543,678 546,678 546,681 549,681 549,678 552,678 552,675 549,675 549,672 552,672 552,669 549,669 549,666 552,666 552,669 555,669 555,666 558,666 558,663 555,663 555,666 552,666 552,663 549,663 549,666 546,666 546,663 549,663 549,660 546,660 546,657 543,657 543,654 546,654 546,651 543,651 543,648 540,648 540,651 537,651 537,648 534,648 534,651 531,651 531,648 534,648 534,645 531,645 531,642 528,642 528,639 531,639 531,636 528,636 528,633 531,633 531,636 534,636 534,633 537,633 537,630 534,630 534,627 537,627 537,624 534,624 534,621 537,621 537,624 540,624 540,621 543,621 543,618 540,618 540,621 537,621 537,618 534,618 534,621 531,621 531,618 534,618 534,615 531,615 531,612 528,612 528,609 531,609 531,606 528,606 528,603 531,603 531,606 534,606 534,603 537,603 537,606 534,606 534,609 537,609 537,612 540,612 540,609 543,609 543,612 546,612 546,609 549,609 549,612 546,612 546,615 549,615 549,618 552,618 552,615 549,615 549,612 552,612 552,609 549,609 549,606 552,606 552,609 555,609 555,606 558,606 558,603 561,603 561,606 564,606 564,603 567,603 567,600 564,600 564,597 567,597 567,594 564,594 564,591 567,591 567,594 570,594 570,591 573,591 573,588 570,588 570,591 567,591 567,588 564,588 564,591 561,591 561,588 564,588 564,585 561,585 561,582 558,582 558,579 561,579 561,576 558,576 558,573 561,573 561,576 564,576 564,573 567,573 567,570 564,570 564,567 567,567 567,564 564,564 564,561 567,561 567,564 570,564 570,561 573,561 573,558 570,558 570,561 567,561 567,558 564,558 564,561 561,561 561,558 564,558 564,555 561,555 561,552 558,552 558,549 561,549 561,546 558,546 558,543 561,543 561,546 564,546 564,543 567,543 567,546 564,546 564,549 567,549 567,552 570,552 570,549 573,549 573,552 576,552 576,549 579,549 579,552 576,552 576,555 579,555 579,558 582,558 582,555 579,555 579,552 582,552 582,549 579,549 579,546 582,546 582,549 585,549 585,546 588,546 588,543 591,543 591,546 594,546 594,543 597,543 597,540 594,540 594,537 597,537 597,534 594,534 594,531 597,531 597,534 600,534 600,531 603,531 603,528 600,528 600,531 597,531 597,528 594,528 594,531 591,531 591,528 594,528 594,525 591,525 591,522 588,522 588,525 591,525 591,528 588,528 588,531 591,531 591,534 588,534 588,531 585,531 585,534 582,534 582,537 579,537 579,534 576,534 576,537 573,537 573,534 576,534 576,531 573,531 573,528 570,528 570,531 567,531 567,528 564,528 564,531 561,531 561,528 564,528 564,525 561,525 561,522 558,522 558,525 561,525 561,528 558,528 558,531 561,531 561,534 558,534 558,531 555,531 555,534 552,534 552,537 549,537 549,534 546,534 546,537 543,537 543,534 546,534 546,531 543,531 543,528 546,528 546,531 549,531 549,528 552,528 552,525 549,525 549,522 552,522 552,519 549,519 549,516 552,516 552,519 555,519 555,516 558,516 558,513 555,513 555,516 552,516 552,513 549,513 549,516 546,516 546,513 549,513 549,510 546,510 546,507 543,507 543,504 546,504 546,501 543,501 543,498 540,498 540,501 537,501 537,498 534,498 534,501 531,501 531,498 534,498 534,495 531,495 531,492 528,492 528,489 531,489 531,486 528,486 528,483 531,483 531,486 534,486 534,483 537,483 537,480 534,480 534,477 537,477 537,474 534,474 534,471 537,471 537,474 540,474 540,471 543,471 543,468 540,468 540,471 537,471 537,468 534,468 534,471 531,471 531,468 534,468 534,465 531,465 531,462 528,462 528,459 531,459 531,456 528,456 528,453 531,453 531,456 534,456 534,453 537,453 537,456 534,456 534,459 537,459 537,462 540,462 540,459 543,459 543,462 546,462 546,459 549,459 549,462 546,462 546,465 549,465 549,468 552,468 552,465 549,465 549,462 552,462 552,459 549,459 549,456 552,456 552,459 555,459 555,456 558,456 558,453 561,453 561,456 564,456 564,453 567,453 567,456 564,456 564,459 567,459 567,462 564,462 564,459 561,459 561,462 558,462 558,465 561,465 561,468 558,468 558,471 561,471 561,474 558,474 558,471 555,471 555,474 552,474 552,477 555,477 555,474 558,474 558,477 561,477 561,474 564,474 564,477 561,477 561,480 564,480 564,483 567,483 567,486 564,486 564,489 567,489 567,492 570,492 570,489 573,489 573,492 576,492 576,489 579,489 579,492 576,492 576,495 579,495 579,498 582,498 582,495 579,495 579,492 582,492 582,489 579,489 579,486 582,486 582,489 585,489 585,486 588,486 588,483 591,483 591,486 594,486 594,483 597,483 597,486 594,486 594,489 597,489 597,492 600,492 600,489 603,489 603,492 606,492 606,489 609,489 609,492 606,492 606,495 609,495 609,498 612,498 612,495 609,495 609,492 612,492 612,489 609,489 609,486 612,486 612,489 615,489 615,486 618,486 618,483 621,483 621,486 624,486 624,483 627,483 627,486 624,486 624,489 627,489 627,492 624,492 624,489 621,489 621,492 618,492 618,495 621,495 621,498 618,498 618,501 621,501 621,504 618,504 618,501 615,501 615,504 612,504 612,507 615,507 615,504 618,504 618,507 621,507 621,504 624,504 624,507 621,507 621,510 624,510 624,513 627,513 627,516 624,516 624,519 627,519 627,522 630,522 630,519 633,519 633,522 636,522 636,519 639,519 639,522 636,522 636,525 639,525 639,528 642,528 642,525 639,525 639,522 642,522 642,519 639,519 639,516 642,516 642,519 645,519 645,516 648,516 648,513 645,513 645,516 642,516 642,513 639,513 639,516 636,516 636,513 639,513 639,510 636,510 636,507 633,507 633,504 636,504 636,501 633,501 633,498 636,498 636,501 639,501 639,498 642,498 642,495 639,495 639,492 642,492 642,489 639,489 639,486 642,486 642,489 645,489 645,486 648,486 648,483 645,483 645,486 642,486 642,483 639,483 639,486 636,486 636,483 639,483 639,480 636,480 636,477 633,477 633,474 636,474 636,471 633,471 633,468 636,468 636,471 639,471 639,468 642,468 642,471 639,471 639,474 642,474 642,477 645,477 645,474 648,474 648,477 651,477 651,474 654,474 654,477 651,477 651,480 654,480 654,483 657,483 657,480 654,480 654,477 657,477 657,474 654,474 654,471 657,471 657,474 660,474 660,471 663,471 663,468 666,468 666,471 669,471 669,468 672,468 672,465 669,465 669,462 672,462 672,459 669,459 669,456 672,456 672,459 675,459 675,456 678,456 678,453 681,453 681,456 684,456 684,453 687,453 687,456 684,456 684,459 687,459 687,462 690,462 690,459 693,459 693,462 696,462 696,459 699,459 699,462 696,462 696,465 699,465 699,468 702,468 702,465 699,465 699,462 702,462 702,459 699,459 699,456 702,456 702,459 705,459 705,456 708,456 708,453 711,453 711,456 714,456 714,453 717,453 717,450 714,450 714,447 717,447 717,444 714,444 714,441 717,441 717,444 720,444 720,441 723,441 723,438 720,438 720,441 717,441 717,438 714,438 714,441 711,441 711,438 714,438 714,435 711,435 711,432 708,432 708,429 711,429 711,426 708,426 708,423 711,423 711,426 714,426 714,423 717,423 717,420 714,420 714,417 717,417 717,414 714,414 714,411 717,411 717,414 720,414 720,411 723,411 723,408 720,408 720,411 717,411 717,408 714,408 714,411 711,411 711,408 714,408 714,405 711,405 711,402 708,402 708,399 711,399 711,396 708,396 708,393 711,393 711,396 714,396 714,393 717,393 717,396 714,396 714,399 717,399 717,402 720,402 720,399 723,399 723,402 726,402 726,399 729,399 729,402 726,402 726,405 729,405 729,408 732,408 732,405 729,405 729,402 732,402 732,399 729,399 729,396 732,396 732,399 735,399 735,396 738,396 738,393 741,393 741,396 744,396 744,393 747,393 747,390 744,390 744,387 747,387 747,384 744,384 744,381 747,381 747,384 750,384 750,381 753,381 753,378 756,378 756,381 759,381 759,378 762,378 762,381 759,381 759,384 762,384 762,387 765,387 765,384 768,384 768,387 771,387 771,384 774,384 774,387 771,387 771,390 774,390 774,393 777,393 777,390 774,390 774,387 777,387 777,384 774,384 774,381 777,381 777,384 780,384 780,381 783,381 783,378 786,378 786,381 789,381 789,378 792,378 792,381 789,381 789,384 792,384 792,387 789,387 789,384 786,384 786,387 783,387 783,390 786,390 786,393 783,393 783,396 786,396 786,399 783,399 783,396 780,396 780,399 777,399 777,402 780,402 780,399 783,399 783,402 786,402 786,399 789,399 789,402 786,402 786,405 789,405 789,408 792,408 792,411 789,411 789,414 792,414 792,417 795,417 795,414 798,414 798,417 801,417 801,414 804,414 804,417 801,417 801,420 804,420 804,423 807,423 807,420 804,420 804,417 807,417 807,414 804,414 804,411 807,411 807,414 810,414 810,411 813,411 813,408 816,408 816,411 819,411 819,408 822,408 822,411 819,411 819,414 822,414 822,417 825,417 825,414 828,414 828,417 831,417 831,414 834,414 834,417 831,417 831,420 834,420 834,423 837,423 837,420 834,420 834,417 837,417 837,414 834,414 834,411 837,411 837,414 840,414 840,411 843,411 843,408 846,408 846,411 849,411 849,408 852,408 852,411 849,411 849,414 852,414 852,417 849,417 849,414 846,414 846,417 843,417 843,420 846,420 846,423 843,423 843,426 846,426 846,429 843,429 843,426 840,426 840,429 837,429 837,432 840,432 840,429 843,429 843,432 846,432 846,429 849,429 849,432 846,432 846,435 849,435 849,438 852,438 852,441 849,441 849,444 852,444 852,447 855,447 855,444 858,444 858,447 861,447 861,444 864,444 864,447 861,447 861,450 864,450 864,453 867,453 867,450 864,450 864,447 867,447 867,444 864,444 864,441 867,441 867,444 870,444 870,441 873,441 873,438 870,438 870,441 867,441 867,438 864,438 864,441 861,441 861,438 864,438 864,435 861,435 861,432 858,432 858,429 861,429 861,426 858,426 858,423 861,423 861,426 864,426 864,423 867,423 867,420 864,420 864,417 867,417 867,414 864,414 864,411 867,411 867,414 870,414 870,411 873,411 873,408 870,408 870,411 867,411 867,408 864,408 864,411 861,411 861,408 864,408 864,405 861,405 861,402 858,402 858,399 861,399 861,396 858,396 858,393 861,393 861,396 864,396 864,393 867,393 867,396 864,396 864,399 867,399 867,402 870,402 870,399 873,399 873,402 876,402 876,399 879,399 879,402 876,402 876,405 879,405 879,408 882,408 882,405 879,405 879,402 882,402 882,399 879,399 879,396 882,396 882,399 885,399 885,396 888,396 888,393 891,393 891,396 894,396 894,393 897,393 897,390 894,390 894,387 897,387 897,384 894,384 894,381 897,381 897,384 900,384 900,381 903,381 903,378 906,378 906,381 909,381 909,378 912,378 912,381 909,381 909,384 912,384 912,387 915,387 915,384 918,384 918,387 921,387 921,384 924,384 924,387 921,387 921,390 924,390 924,393 927,393 927,390 924,390 924,387 927,387 927,384 924,384 924,381 927,381 927,384 930,384 930,381 933,381 933,378 936,378 936,381 939,381 939,378 942,378 942,375 939,375 939,372 942,372 942,369 939,369 939,366 942,366 942,369 945,369 945,366 948,366 948,363 945,363 945,366 942,366 942,363 939,363 939,366 936,366 936,363 939,363 939,360 936,360 936,357 933,357 933,354 936,354 936,351 933,351 933,348 936,348 936,351 939,351 939,348 942,348 942,345 939,345 939,342 942,342 942,339 939,339 939,336 942,336 942,339 945,339 945,336 948,336 948,333 945,333 945,336 942,336 942,333 939,333 939,336 936,336 936,333 939,333 939,330 936,330 936,327 933,327 933,324 936,324 936,321 933,321 933,318 936,318 936,321 939,321 939,318 942,318 942,321 939,321 939,324 942,324 942,327 945,327 945,324 948,324 948,327 951,327 951,324 954,324 954,327 951,327 951,330 954,330 954,333 957,333 957,330 954,330 954,327 957,327 957,324 954,324 954,321 957,321 957,324 960,324 960,321 963,321 963,318 966,318 966,321 969,321 969,318 972,318 972,315 969,315 969,312 972,312 972,309 969,309 969,306 972,306 972,309 975,309 975,306 978,306 978,303 975,303 975,306 972,306 972,303 969,303 969,306 966,306 966,303 969,303 969,300 966,300 966,297 963,297 963,300 966,300 966,303 963,303 963,306 966,306 966,309 963,309 963,306 960,306 960,309 957,309 957,312 954,312 954,309 951,309 951,312 948,312 948,309 951,309 951,306 948,306 948,303 945,303 945,306 942,306 942,303 939,303 939,306 936,306 936,303 939,303 939,300 936,300 936,297 933,297 933,300 936,300 936,303 933,303 933,306 936,306 936,309 933,309 933,306 930,306 930,309 927,309 927,312 924,312 924,309 921,309 921,312 918,312 918,309 921,309 921,306 918,306 918,303 921,303 921,306 924,306 924,303 927,303 927,300 924,300 924,297 927,297 927,294 924,294 924,291 927,291 927,294 930,294 930,291 933,291 933,288 930,288 930,291 927,291 927,288 924,288 924,291 921,291 921,288 924,288 924,285 921,285 921,282 918,282 918,279 921,279 921,276 918,276 918,273 915,273 915,276 912,276 912,273 909,273 909,276 906,276 906,273 909,273 909,270 906,270 906,267 903,267 903,264 906,264 906,261 903,261 903,258 906,258 906,261 909,261 909,258 912,258 912,255 909,255 909,252 912,252 912,249 909,249 909,246 912,246 912,249 915,249 915,246 918,246 918,243 915,243 915,246 912,246 912,243 909,243 909,246 906,246 906,243 909,243 909,240 906,240 906,237 903,237 903,234 906,234 906,231 903,231 903,228 906,228 906,231 909,231 909,228 912,228 912,231 909,231 909,234 912,234 912,237 915,237 915,234 918,234 918,237 921,237 921,234 924,234 924,237 921,237 921,240 924,240 924,243 927,243 927,240 924,240 924,237 927,237 927,234 924,234 924,231 927,231 927,234 930,234 930,231 933,231 933,228 936,228 936,231 939,231 939,228 942,228 942,225 939,225 939,222 942,222 942,219 939,219 939,216 942,216 942,219 945,219 945,216 948,216 948,213 945,213 945,216 942,216 942,213 939,213 939,216 936,216 936,213 939,213 939,210 936,210 936,207 933,207 933,204 936,204 936,201 933,201 933,198 936,198 936,201 939,201 939,198 942,198 942,195 939,195 939,192 942,192 942,189 939,189 939,186 942,186 942,189 945,189 945,186 948,186 948,183 945,183 945,186 942,186 942,183 939,183 939,186 936,186 936,183 939,183 939,180 936,180 936,177 933,177 933,174 936,174 936,171 933,171 933,168 936,168 936,171 939,171 939,168 942,168 942,171 939,171 939,174 942,174 942,177 945,177 945,174 948,174 948,177 951,177 951,174 954,174 954,177 951,177 951,180 954,180 954,183 957,183 957,180 954,180 954,177 957,177 957,174 954,174 954,171 957,171 957,174 960,174 960,171 963,171 963,168 966,168 966,171 969,171 969,168 972,168 972,165 969,165 969,162 972,162 972,159 969,159 969,156 972,156 972,159 975,159 975,156 978,156 978,153 975,153 975,156 972,156 972,153 969,153 969,156 966,156 966,153 969,153 969,150 966,150 966,147 963,147 963,150 966,150 966,153 963,153 963,156 966,156 966,159 963,159 963,156 960,156 960,159 957,159 957,162 954,162 954,159 951,159 951,162 948,162 948,159 951,159 951,156 948,156 948,153 945,153 945,156 942,156 942,153 939,153 939,156 936,156 936,153 939,153 939,150 936,150 936,147 933,147 933,150 936,150 936,153 933,153 933,156 936,156 936,159 933,159 933,156 930,156 930,159 927,159 927,162 924,162 924,159 921,159 921,162 918,162 918,159 921,159 921,156 918,156 918,153 921,153 921,156 924,156 924,153 927,153 927,150 924,150 924,147 927,147 927,144 924,144 924,141 927,141 927,144 930,144 930,141 933,141 933,138 930,138 930,141 927,141 927,138 924,138 924,141 921,141 921,138 924,138 924,135 921,135 921,132 918,132 918,129 921,129 921,126 918,126 918,123 915,123 915,126 912,126 912,123 909,123 909,126 906,126 906,123 909,123 909,120 906,120 906,117 903,117 903,114 906,114 906,111 903,111 903,108 906,108 906,111 909,111 909,108 912,108 912,105 909,105 909,102 912,102 912,99 909,99 909,96 912,96 912,99 915,99 915,96 918,96 918,93 915,93 915,96 912,96 912,93 909,93 909,96 906,96 906,93 909,93 909,90 906,90 906,87 903,87 903,84 906,84 906,81 903,81 903,78 906,78 906,81 909,81 909,78 912,78 912,81 909,81 909,84 912,84 912,87 915,87 915,84 918,84 918,87 921,87 921,84 924,84 924,87 921,87 921,90 924,90 924,93 927,93 927,90 924,90 924,87 927,87 927,84 924,84 924,81 927,81 927,84 930,84 930,81 933,81 933,78 936,78 936,81 939,81 939,78 942,78 942,81 939,81 939,84 942,84 942,87 939,87 939,84 936,84 936,87 933,87 933,90 936,90 936,93 933,93 933,96 936,96 936,99 933,99 933,96 930,96 930,99 927,99 927,102 930,102 930,99 933,99 933,102 936,102 936,99 939,99 939,102 936,102 936,105 939,105 939,108 942,108 942,111 939,111 939,114 942,114 942,117 945,117 945,114 948,114 948,117 951,117 951,114 954,114 954,117 951,117 951,120 954,120 954,123 957,123 957,120 954,120 954,117 957,117 957,114 954,114 954,111 957,111 957,114 960,114 960,111 963,111 963,108 966,108 966,111 969,111 969,108 972,108 972,111 969,111 969,114 972,114 972,117 975,117 975,114 978,114 978,117 981,117 981,114 984,114 984,117 981,117 981,120 984,120 984,123 987,123 987,120 984,120 984,117 987,117 987,114 984,114 984,111 987,111 987,114 990,114 990,111 993,111 993,108 996,108 996,111 999,111 999,108 1002,108 1002,111 999,111 999,114 1002,114 1002,117 999,117 999,114 996,114 996,117 993,117 993,120 996,120 996,123 993,123 993,126 996,126 996,129 993,129 993,126 990,126 990,129 987,129 987,132 990,132 990,129 993,129 993,132 996,132 996,129 999,129 999,132 996,132 996,135 999,135 999,138 1002,138 1002,141 999,141 999,144 1002,144 1002,147 1005,147 1005,144 1008,144 1008,147 1011,147 1011,144 1014,144 1014,147 1011,147 1011,150 1014,150 1014,153 1017,153 1017,150 1014,150 1014,147 1017,147 1017,144 1014,144 1014,141 1017,141 1017,144 1020,144 1020,141 1023,141 1023,138 1020,138 1020,141 1017,141 1017,138 1014,138 1014,141 1011,141 1011,138 1014,138 1014,135 1011,135 1011,132 1008,132 1008,129 1011,129 1011,126 1008,126 1008,123 1011,123 1011,126 1014,126 1014,123 1017,123 1017,120 1014,120 1014,117 1017,117 1017,114 1014,114 1014,111 1017,111 1017,114 1020,114 1020,111 1023,111 1023,108 1020,108 1020,111 1017,111 1017,108 1014,108 1014,111 1011,111 1011,108 1014,108 1014,105 1011,105 1011,102 1008,102 1008,99 1011,99 1011,96 1008,96 1008,93 1011,93 1011,96 1014,96 1014,93 1017,93 1017,96 1014,96 1014,99 1017,99 1017,102 1020,102 1020,99 1023,99 1023,102 1026,102 1026,99 1029,99 1029,102 1026,102 1026,105 1029,105 1029,108 1032,108 1032,105 1029,105 1029,102 1032,102 1032,99 1029,99 1029,96 1032,96 1032,99 1035,99 1035,96 1038,96 1038,93 1041,93 1041,96 1044,96 1044,93 1047,93 1047,90 1044,90 1044,87 1047,87 1047,84 1044,84 1044,81 1047,81 1047,84 1050,84 1050,81 1053,81 1053,78 1056,78 1056,81 1059,81 1059,78 1062,78 1062,81 1059,81 1059,84 1062,84 1062,87 1065,87 1065,84 1068,84 1068,87 1071,87 1071,84 1074,84 1074,87 1071,87 1071,90 1074,90 1074,93 1077,93 1077,90 1074,90 1074,87 1077,87 1077,84 1074,84 1074,81 1077,81 1077,84 1080,84 1080,81 1083,81 1083,78 1086,78 1086,81 1089,81 1089,78 1092,78 1092,75 1089,75 1089,72 1092,72 1092,69 1089,69 1089,66 1092,66 1092,69 1095,69 1095,66 1098,66 1098,63 1095,63 1095,66 1092,66 1092,63 1089,63 1089,66 1086,66 1086,63 1089,63 1089,60 1086,60 1086,57 1083,57 1083,54 1086,54 1086,51 1083,51 1083,48 1086,48 1086,51 1089,51 1089,48 1092,48 1092,45 1089,45 1089,42 1092,42 1092,39 1089,39 1089,36 1092,36 1092,39 1095,39 1095,36 1098,36 1098,33 1095,33 1095,36 1092,36 1092,33 1089,33 1089,36 1086,36 1086,33 1089,33 1089,30 1086,30 1086,27 1083,27 1083,24 1086,24 1086,21 1083,21 1083,18 1086,18 1086,21 1089,21 1089,18 1092,18 1092,21 1089,21 1089,24 1092,24 1092,27 1095,27 1095,24 1098,24 1098,27 1101,27 1101,24 1104,24 1104,27 1101,27 1101,30 1104,30 1104,33 1107,33 1107,30 1104,30 1104,27 1107,27 1107,24 1104,24 1104,21 1107,21 1107,24 1110,24 1110,21 1113,21 1113,18 1116,18 1116,21 1119,21 1119,18 1122,18 1122,15 1119,15 1119,12 1122,12 1122,9 1119,9 1119,6 1122,6 1122,9 1125,9 1125,6 1128,6 1128,3 "/>
</svg>
