<?xml version="1.0" encoding="iso-8859-1"?>
<!DOCTYPE svg PUBLIC "-//W3C//DTD SVG 1.1//EN"
 "http://www.w3.org/Graphics/SVG/1.1/DTD/svg11.dtd">
<svg xmlns="http://www.w3.org/2000/svg" version="1.1" width="324pt" height="387pt" viewBox="0 0 324 387">
  <polyline fill="none" stroke="black" points="
258,129 261,129 261,126 258,126 258,123 255,123 255,126 252,126 252,123 249,123 249,126 252,126 252,129 249,129 249,132 246,132 246,129 243,129 243,132 246,132 246,135 249,135 249,132 252,132 252,135 249,135 249,138 252,138 252,141 249,141 249,144 246,144 246,141 243,141 243,144 246,144 246,147 249,147 249,144 252,144 252,147 255,147 255,144 252,144 252,141 255,141 255,138 258,138 258,141 255,141 255,144 258,144 258,147 261,147 261,144 264,144 264,147 261,147 261,150 264,150 264,153 261,153 261,156 258,156 258,153 255,153 255,156 258,156 258,159 261,159 261,156 264,156 264,159 267,159 267,156 264,156 264,153 267,153 267,150 270,150 270,153 273,153 273,150 270,150 270,147 267,147 267,150 264,150 264,147 267,147 267,144 264,144 264,141 267,141 267,138 270,138 270,141 267,141 267,144 270,144 270,147 273,147 273,144 276,144 276,147 279,147 279,144 276,144 276,141 279,141 279,138 282,138 282,141 279,141 279,144 282,144 282,147 285,147 285,144 288,144 288,147 285,147 285,150 288,150 288,153 285,153 285,156 282,156 282,153 279,153 279,156 282,156 282,159 285,159 285,156 288,156 288,159 291,159 291,156 288,156 288,153 291,153 291,150 294,150 294,153 297,153 297,150 294,150 294,147 291,147 291,150 288,150 288,147 291,147 291,144 288,144 288,141 291,141 291,138 294,138 294,141 297,141 297,138 294,138 294,135 291,135 291,138 288,138 288,135 285,135 285,138 288,138 288,141 285,141 285,144 282,144 282,141 285,141 285,138 282,138 282,135 279,135 279,138 276,138 276,135 279,135 279,132 276,132 276,129 279,129 279,126 282,126 282,129 279,129 279,132 282,132 282,135 285,135 285,132 288,132 288,135 291,135 291,132 288,132 288,129 291,129 291,126 294,126 294,129 297,129 297,126 294,126 294,123 291,123 291,126 288,126 288,123 291,123 291,120 288,120 288,117 291,117 291,114 294,114 294,117 291,117 291,120 294,120 294,123 297,123 297,120 300,120 300,123 303,123 303,120 300,120 300,117 303,117 303,114 306,114 306,117 303,117 303,120 306,120 306,123 309,123 309,120 312,120 312,123 309,123 309,126 312,126 312,129 309,129 309,132 306,132 306,129 303,129 303,132 306,132 306,135 309,135 309,132 312,132 312,135 315,135 315,132 312,132 312,129 315,129 315,126 318,126 318,129 321,129 321,126 318,126 318,123 315,123 315,126 312,126 312,123 315,123 315,120 312,120 312,117 315,117 315,114 318,114 318,117 321,117 321,114 318,114 318,111 315,111 315,114 312,114 312,111 309,111 309,114 312,114 312,117 309,117 309,120 306,120 306,117 309,117 309,114 306,114 306,111 303,111 303,114 300,114 300,111 303,111 303,108 300,108 300,105 303,105 303,102 306,102 306,105 309,105 309,102 306,102 306,99 303,99 303,102 300,102 300,99 297,99 297,102 300,102 300,105 297,105 297,108 294,108 294,105 291,105 291,108 294,108 294,111 297,111 297,108 300,108 300,111 297,111 297,114 300,114 300,117 297,117 297,120 294,120 294,117 297,117 297,114 294,114 294,111 291,111 291,114 288,114 288,111 285,111 285,114 288,114 288,117 285,117 285,120 282,120 282,117 285,117 285,114 282,114 282,111 279,111 279,114 276,114 276,111 279,111 279,108 276,108 276,105 279,105 279,102 282,102 282,105 279,105 279,108 282,108 282,111 285,111 285,108 288,108 288,111 291,111 291,108 288,108 288,105 291,105 291,102 294,102 294,105 297,105 297,102 294,102 294,99 291,99 291,102 288,102 288,99 291,99 291,96 288,96 288,93 291,93 291,90 294,90 294,93 297,93 297,90 294,90 294,87 291,87 291,90 288,90 288,87 285,87 285,90 288,90 288,93 285,93 285,96 282,96 282,93 285,93 285,90 282,90 282,87 279,87 279,90 276,90 276,87 279,87 279,84 276,84 276,81 279,81 279,78 282,78 282,81 279,81 279,84 282,84 282,87 285,87 285,84 288,84 288,87 291,87 291,84 288,84 288,81 291,81 291,78 294,78 294,81 297,81 297,78 294,78 294,75 291,75 291,78 288,78 288,75 291,75 291,72 288,72 288,69 291,69 291,66 294,66 294,69 291,69 291,72 294,72 294,75 297,75 297,72 300,72 300,75 303,75 303,72 300,72 300,69 303,69 303,66 306,66 306,69 303,69 303,72 306,72 306,75 309,75 309,72 312,72 312,75 309,75 309,78 312,78 312,81 309,81 309,84 306,84 306,81 303,81 303,84 306,84 306,87 309,87 309,84 312,84 312,87 315,87 315,84 312,84 312,81 315,81 315,78 318,78 318,81 321,81 321,78 318,78 318,75 315,75 315,78 312,78 312,75 315,75 315,72 312,72 312,69 315,69 315,66 318,66 318,69 321,69 321,66 318,66 318,63 315,63 315,66 312,66 312,63 309,63 309,66 312,66 312,69 309,69 309,72 306,72 306,69 309,69 309,66 306,66 306,63 303,63 303,66 300,66 300,63 303,63 303,60 300,60 300,57 303,57 303,54 306,54 306,57 309,57 309,54 306,54 306,51 303,51 303,54 300,54 300,51 297,51 297,54 300,54 300,57 297,57 297,60 294,60 294,57 291,57 291,60 294,60 294,63 297,63 297,60 300,60 300,63 297,63 297,66 300,66 300,69 297,69 297,72 294,72 294,69 297,69 297,66 294,66 294,63 291,63 291,66 288,66 288,63 285,63 285,66 288,66 288,69 285,69 285,72 282,72 282,69 285,69 285,66 282,66 282,63 279,63 279,66 276,66 276,63 279,63 279,60 276,60 276,57 279,57 279,54 282,54 282,57 285,57 285,54 282,54 282,51 279,51 279,54 276,54 276,51 273,51 273,54 276,54 276,57 273,57 273,60 270,60 270,57 267,57 267,60 270,60 270,63 273,63 273,60 276,60 276,63 273,63 273,66 276,66 276,69 273,69 273,72 270,72 270,69 267,69 267,72 270,72 270,75 273,75 273,72 276,72 276,75 279,75 279,72 276,72 276,69 279,69 279,66 282,66 282,69 279,69 279,72 282,72 282,75 285,75 285,72 288,72 288,75 285,75 285,78 288,78 288,81 285,81 285,84 282,84 282,81 285,81 285,78 282,78 282,75 279,75 279,78 276,78 276,75 273,75 273,78 276,78 276,81 273,81 273,84 270,84 270,81 267,81 267,84 270,84 270,87 273,87 273,84 276,84 276,87 273,87 273,90 276,90 276,93 273,93 273,96 270,96 270,93 273,93 273,90 270,90 270,87 267,87 267,90 264,90 264,87 261,87 261,90 264,90 264,93 261,93 261,96 258,96 258,93 261,93 261,90 258,90 258,87 255,87 255,90 252,90 252,87 255,87 255,84 252,84 252,81 255,81 255,78 258,78 258,81 255,81 255,84 258,84 258,87 261,87 261,84 264,84 264,87 267,87 267,84 264,84 264,81 267,81 267,78 270,78 270,81 273,81 273,78 270,78 270,75 267,75 267,78 264,78 264,75 267,75 267,72 264,72 264,69 267,69 267,66 270,66 270,69 273,69 273,66 270,66 270,63 267,63 267,66 264,66 264,63 261,63 261,66 264,66 264,69 261,69 261,72 258,72 258,69 261,69 261,66 258,66 258,63 255,63 255,66 252,66 252,63 255,63 255,60 252,60 252,57 255,57 255,54 258,54 258,57 261,57 261,54 258,54 258,51 255,51 255,54 252,54 252,51 249,51 249,54 252,54 252,57 249,57 249,60 246,60 246,57 243,57 243,60 246,60 246,63 249,63 249,60 252,60 252,63 249,63 249,66 252,66 252,69 249,69 249,72 246,72 246,69 249,69 249,66 246,66 246,63 243,63 243,66 240,66 240,63 237,63 237,66 240,66 240,69 237,69 237,72 234,72 234,69 237,69 237,66 234,66 234,63 231,63 231,66 228,66 228,63 231,63 231,60 228,60 228,57 231,57 231,54 234,54 234,57 231,57 231,60 234,60 234,63 237,63 237,60 240,60 240,63 243,63 243,60 240,60 240,57 243,57 243,54 246,54 246,57 249,57 249,54 246,54 246,51 243,51 243,54 240,54 240,51 243,51 243,48 240,48 240,45 243,45 243,42 246,42 246,45 249,45 249,42 246,42 246,39 243,39 243,42 240,42 240,39 237,39 237,42 240,42 240,45 237,45 237,48 234,48 234,45 237,45 237,42 234,42 234,39 231,39 231,42 228,42 228,39 231,39 231,36 228,36 228,33 231,33 231,30 234,30 234,33 231,33 231,36 234,36 234,39 237,39 237,36 240,36 240,39 243,39 243,36 240,36 240,33 243,33 243,30 246,30 246,33 249,33 249,30 246,30 246,27 243,27 243,30 240,30 240,27 243,27 243,24 240,24 240,21 243,21 243,18 246,18 246,21 243,21 243,24 246,24 246,27 249,27 249,24 252,24 252,27 255,27 255,24 252,24 252,21 255,21 255,18 258,18 258,21 255,21 255,24 258,24 258,27 261,27 261,24 264,24 264,27 261,27 261,30 264,30 264,33 261,33 261,36 258,36 258,33 255,33 255,36 258,36 258,39 261,39 261,36 264,36 264,39 267,39 267,36 264,36 264,33 267,33 267,30 270,30 270,33 273,33 273,30 270,30 270,27 267,27 267,30 264,30 264,27 267,27 267,24 264,24 264,21 267,21 267,18 270,18 270,21 273,21 273,18 270,18 270,15 267,15 267,18 264,18 264,15 261,15 261,18 264,18 264,21 261,21 261,24 258,24 258,21 261,21 261,18 258,18 258,15 255,15 255,18 252,18 252,15 255,15 255,12 252,12 252,9 255,9 255,6 258,6 258,9 261,9 261,6 258,6 258,3 255,3 255,6 252,6 252,3 249,3 249,6 252,6 252,9 249,9 249,12 246,12 246,9 243,9 243,12 246,12 246,15 249,15 249,12 252,12 252,15 249,15 249,18 252,18 252,21 249,21 249,24 246,24 246,21 249,21 249,18 246,18 246,15 243,15 243,18 240,18 240,15 237,15 237,18 240,18 240,21 237,21 237,24 234,24 234,21 237,21 237,18 234,18 234,15 231,15 231,18 228,18 228,15 231,15 231,12 228,12 228,9 231,9 231,6 234,6 234,9 237,9 237,6 234,6 234,3 231,3 231,6 228,6 228,3 225,3 225,6 228,6 228,9 225,9 225,12 222,12 222,9 219,9 219,12 222,12 222,15 225,15 225,12 228,12 228,15 225,15 225,18 228,18 228,21 225,21 225,24 222,24 222,21 219,21 219,24 222,24 222,27 225,27 225,24 228,24 228,27 231,27 231,24 228,24 228,21 231,21 231,18 234,18 234,21 231,21 231,24 234,24 234,27 237,27 237,24 240,24 240,27 237,27 237,30 240,30 240,33 237,33 237,36 234,36 234,33 237,33 237,30 234,30 234,27 231,27 231,30 228,30 228,27 225,27 225,30 228,30 228,33 225,33 225,36 222,36 222,33 219,33 219,36 222,36 222,39 225,39 225,36 228,36 228,39 225,39 225,42 228,42 228,45 225,45 225,48 222,48 222,45 225,45 225,42 222,42 222,39 219,39 219,42 216,42 216,39 213,39 213,42 216,42 216,45 213,45 213,48 210,48 210,45 213,45 213,42 210,42 210,39 207,39 207,42 204,42 204,39 207,39 207,36 204,36 204,33 207,33 207,30 210,30 210,33 213,33 213,30 210,30 210,27 207,27 207,30 204,30 204,27 201,27 201,30 204,30 204,33 201,33 201,36 198,36 198,33 195,33 195,36 198,36 198,39 201,39 201,36 204,36 204,39 201,39 201,42 204,42 204,45 201,45 201,48 198,48 198,45 195,45 195,48 198,48 198,51 201,51 201,48 204,48 204,51 207,51 207,48 204,48 204,45 207,45 207,42 210,42 210,45 207,45 207,48 210,48 210,51 213,51 213,48 216,48 216,51 213,51 213,54 216,54 216,57 213,57 213,60 210,60 210,57 207,57 207,60 210,60 210,63 213,63 213,60 216,60 216,63 219,63 219,60 216,60 216,57 219,57 219,54 222,54 222,57 225,57 225,54 222,54 222,51 219,51 219,54 216,54 216,51 219,51 219,48 216,48 216,45 219,45 219,42 222,42 222,45 219,45 219,48 222,48 222,51 225,51 225,48 228,48 228,51 231,51 231,48 228,48 228,45 231,45 231,42 234,42 234,45 231,45 231,48 234,48 234,51 237,51 237,48 240,48 240,51 237,51 237,54 240,54 240,57 237,57 237,60 234,60 234,57 237,57 237,54 234,54 234,51 231,51 231,54 228,54 228,51 225,51 225,54 228,54 228,57 225,57 225,60 222,60 222,57 219,57 219,60 222,60 222,63 225,63 225,60 228,60 228,63 225,63 225,66 228,66 228,69 225,69 225,72 222,72 222,69 219,69 219,72 222,72 222,75 225,75 225,72 228,72 228,75 231,75 231,72 228,72 228,69 231,69 231,66 234,66 234,69 231,69 231,72 234,72 234,75 237,75 237,72 240,72 240,75 237,75 237,78 240,78 240,81 237,81 237,84 234,84 234,81 237,81 237,78 234,78 234,75 231,75 231,78 228,78 228,75 225,75 225,78 228,78 228,81 225,81 225,84 222,84 222,81 219,81 219,84 222,84 222,87 225,87 225,84 228,84 228,87 225,87 225,90 228,90 228,93 225,93 225,96 222,96 222,93 225,93 225,90 222,90 222,87 219,87 219,90 216,90 216,87 213,87 213,90 216,90 216,93 213,93 213,96 210,96 210,93 213,93 213,90 210,90 210,87 207,87 207,90 204,90 204,87 207,87 207,84 204,84 204,81 207,81 207,78 210,78 210,81 207,81 207,84 210,84 210,87 213,87 213,84 216,84 216,87 219,87 219,84 216,84 216,81 219,81 219,78 222,78 222,81 225,81 225,78 222,78 222,75 219,75 219,78 216,78 216,75 219,75 219,72 216,72 216,69 219,69 219,66 222,66 222,69 225,69 225,66 222,66 222,63 219,63 219,66 216,66 216,63 213,63 213,66 216,66 216,69 213,69 213,72 210,72 210,69 213,69 213,66 210,66 210,63 207,63 207,66 204,66 204,63 207,63 207,60 204,60 204,57 207,57 207,54 210,54 210,57 213,57 213,54 210,54 210,51 207,51 207,54 204,54 204,51 201,51 201,54 204,54 204,57 201,57 201,60 198,60 198,57 195,57 195,60 198,60 198,63 201,63 201,60 204,60 204,63 201,63 201,66 204,66 204,69 201,69 201,72 198,72 198,69 201,69 201,66 198,66 198,63 195,63 195,66 192,66 192,63 189,63 189,66 192,66 192,69 189,69 189,72 186,72 186,69 189,69 189,66 186,66 186,63 183,63 183,66 180,66 180,63 183,63 183,60 180,60 180,57 183,57 183,54 186,54 186,57 189,57 189,54 186,54 186,51 183,51 183,54 180,54 180,51 177,51 177,54 180,54 180,57 177,57 177,60 174,60 174,57 171,57 171,60 174,60 174,63 177,63 177,60 180,60 180,63 177,63 177,66 180,66 180,69 177,69 177,72 174,72 174,69 171,69 171,72 174,72 174,75 177,75 177,72 180,72 180,75 183,75 183,72 180,72 180,69 183,69 183,66 186,66 186,69 183,69 183,72 186,72 186,75 189,75 189,72 192,72 192,75 189,75 189,78 192,78 192,81 189,81 189,84 186,84 186,81 189,81 189,78 186,78 186,75 183,75 183,78 180,78 180,75 177,75 177,78 180,78 180,81 177,81 177,84 174,84 174,81 171,81 171,84 174,84 174,87 177,87 177,84 180,84 180,87 177,87 177,90 180,90 180,93 177,93 177,96 174,96 174,93 177,93 177,90 174,90 174,87 171,87 171,90 168,90 168,87 165,87 165,90 168,90 168,93 165,93 165,96 162,96 162,93 165,93 165,90 162,90 162,87 159,87 159,90 156,90 156,87 159,87 159,84 156,84 156,81 159,81 159,78 162,78 162,81 159,81 159,84 162,84 162,87 165,87 165,84 168,84 168,87 171,87 171,84 168,84 168,81 171,81 171,78 174,78 174,81 177,81 177,78 174,78 174,75 171,75 171,78 168,78 168,75 171,75 171,72 168,72 168,69 171,69 171,66 174,66 174,69 177,69 177,66 174,66 174,63 171,63 171,66 168,66 168,63 165,63 165,66 168,66 168,69 165,69 165,72 162,72 162,69 165,69 165,66 162,66 162,63 159,63 159,66 156,66 156,63 159,63 159,60 156,60 156,57 159,57 159,54 162,54 162,57 165,57 165,54 162,54 162,51 159,51 159,54 156,54 156,51 153,51 153,54 156,54 156,57 153,57 153,60 150,60 150,57 147,57 147,60 150,60 150,63 153,63 153,60 156,60 156,63 153,63 153,66 156,66 156,69 153,69 153,72 150,72 150,69 153,69 153,66 150,66 150,63 147,63 147,66 144,66 144,63 141,63 141,66 144,66 144,69 141,69 141,72 138,72 138,69 141,69 141,66 138,66 138,63 135,63 135,66 132,66 132,63 135,63 135,60 132,60 132,57 135,57 135,54 138,54 138,57 135,57 135,60 138,60 138,63 141,63 141,60 144,60 144,63 147,63 147,60 144,60 144,57 147,57 147,54 150,54 150,57 153,57 153,54 150,54 150,51 147,51 147,54 144,54 144,51 147,51 147,48 144,48 144,45 147,45 147,42 150,42 150,45 153,45 153,42 150,42 150,39 147,39 147,42 144,42 144,39 141,39 141,42 144,42 144,45 141,45 141,48 138,48 138,45 141,45 141,42 138,42 138,39 135,39 135,42 132,42 132,39 135,39 135,36 132,36 132,33 135,33 135,30 138,30 138,33 135,33 135,36 138,36 138,39 141,39 141,36 144,36 144,39 147,39 147,36 144,36 144,33 147,33 147,30 150,30 150,33 153,33 153,30 150,30 150,27 147,27 147,30 144,30 144,27 147,27 147,24 144,24 144,21 147,21 147,18 150,18 150,21 147,21 147,24 150,24 150,27 153,27 153,24 156,24 156,27 159,27 159,24 156,24 156,21 159,21 159,18 162,18 162,21 159,21 159,24 162,24 162,27 165,27 165,24 168,24 168,27 165,27 165,30 168,30 168,33 165,33 165,36 162,36 162,33 159,33 159,36 162,36 162,39 165,39 165,36 168,36 168,39 171,39 171,36 168,36 168,33 171,33 171,30 174,30 174,33 177,33 177,30 174,30 174,27 171,27 171,30 168,30 168,27 171,27 171,24 168,24 168,21 171,21 171,18 174,18 174,21 177,21 177,18 174,18 174,15 171,15 171,18 168,18 168,15 165,15 165,18 168,18 168,21 165,21 165,24 162,24 162,21 165,21 165,18 162,18 162,15 159,15 159,18 156,18 156,15 159,15 159,12 156,12 156,9 159,9 159,6 162,6 162,9 165,9 165,6 162,6 162,3 159,3 159,6 156,6 156,3 153,3 153,6 156,6 156,9 153,9 153,12 150,12 150,9 147,9 147,12 150,12 150,15 153,15 153,12 156,12 156,15 153,15 153,18 156,18 156,21 153,21 153,24 150,24 150,21 153,21 153,18 150,18 150,15 147,15 147,18 144,18 144,15 141,15 141,18 144,18 144,21 141,21 141,24 138,24 138,21 141,21 141,18 138,18 138,15 135,15 135,18 132,18 132,15 135,15 135,12 132,12 132,9 135,9 135,6 138,6 138,9 141,9 141,6 138,6 138,3 135,3 135,6 132,6 132,3 129,3 129,6 132,6 132,9 129,9 129,12 126,12 126,9 123,9 123,12 126,12 126,15 129,15 129,12 132,12 132,15 129,15 129,18 132,18 132,21 129,21 129,24 126,24 126,21 123,21 123,24 126,24 126,27 129,27 129,24 132,24 132,27 135,27 135,24 132,24 132,21 135,21 135,18 138,18 138,21 135,21 135,24 138,24 138,27 141,27 141,24 144,24 144,27 141,27 141,30 144,30 144,33 141,33 141,36 138,36 138,33 141,33 141,30 138,30 138,27 135,27 135,30 132,30 132,27 129,27 129,30 132,30 132,33 129,33 129,36 126,36 126,33 123,33 123,36 126,36 126,39 129,39 129,36 132,36 132,39 129,39 129,42 132,42 132,45 129,45 129,48 126,48 126,45 129,45 129,42 126,42 126,39 123,39 123,42 120,42 120,39 117,39 117,42 120,42 120,45 117,45 117,48 114,48 114,45 117,45 117,42 114,42 114,39 111,39 111,42 108,42 108,39 111,39 111,36 108,36 108,33 111,33 111,30 114,30 114,33 117,33 117,30 114,30 114,27 111,27 111,30 108,30 108,27 105,27 105,30 108,30 108,33 105,33 105,36 102,36 102,33 99,33 99,36 102,36 102,39 105,39 105,36 108,36 108,39 105,39 105,42 108,42 108,45 105,45 105,48 102,48 102,45 99,45 99,48 102,48 102,51 105,51 105,48 108,48 108,51 111,51 111,48 108,48 108,45 111,45 111,42 114,42 114,45 111,45 111,48 114,48 114,51 117,51 117,48 120,48 120,51 117,51 117,54 120,54 120,57 117,57 117,60 114,60 114,57 111,57 111,60 114,60 114,63 117,63 117,60 120,60 120,63 123,63 123,60 120,60 120,57 123,57 123,54 126,54 126,57 129,57 129,54 126,54 126,51 123,51 123,54 120,54 120,51 123,51 123,48 120,48 120,45 123,45 123,42 126,42 126,45 123,45 123,48 126,48 126,51 129,51 129,48 132,48 132,51 135,51 135,48 132,48 132,45 135,45 135,42 138,42 138,45 135,45 135,48 138,48 138,51 141,51 141,48 144,48 144,51 141,51 141,54 144,54 144,57 141,57 141,60 138,60 138,57 141,57 141,54 138,54 138,51 135,51 135,54 132,54 132,51 129,51 129,54 132,54 132,57 129,57 129,60 126,60 126,57 123,57 123,60 126,60 126,63 129,63 129,60 132,60 132,63 129,63 129,66 132,66 132,69 129,69 129,72 126,72 126,69 123,69 123,72 126,72 126,75 129,75 129,72 132,72 132,75 135,75 135,72 132,72 132,69 135,69 135,66 138,66 138,69 135,69 135,72 138,72 138,75 141,75 141,72 144,72 144,75 141,75 141,78 144,78 144,81 141,81 141,84 138,84 138,81 141,81 141,78 138,78 138,75 135,75 135,78 132,78 132,75 129,75 129,78 132,78 132,81 129,81 129,84 126,84 126,81 123,81 123,84 126,84 126,87 129,87 129,84 132,84 132,87 129,87 129,90 132,90 132,93 129,93 129,96 126,96 126,93 129,93 129,90 126,90 126,87 123,87 123,90 120,90 120,87 117,87 117,90 120,90 120,93 117,93 117,96 114,96 114,93 117,93 117,90 114,90 114,87 111,87 111,90 108,90 108,87 111,87 111,84 108,84 108,81 111,81 111,78 114,78 114,81 117,81 117,78 114,78 114,75 111,75 111,78 108,78 108,75 105,75 105,78 108,78 108,81 105,81 105,84 102,84 102,81 99,81 99,84 102,84 102,87 105,87 105,84 108,84 108,87 105,87 105,90 108,90 108,93 105,93 105,96 102,96 102,93 99,93 99,96 102,96 102,99 105,99 105,96 108,96 108,99 111,99 111,96 108,96 108,93 111,93 111,90 114,90 114,93 111,93 111,96 114,96 114,99 117,99 117,96 120,96 120,99 117,99 117,102 120,102 120,105 117,105 117,108 114,108 114,105 111,105 111,108 114,108 114,111 117,111 117,108 120,108 120,111 123,111 123,108 120,108 120,105 123,105 123,102 126,102 126,105 129,105 129,102 126,102 126,99 123,99 123,102 120,102 120,99 123,99 123,96 120,96 120,93 123,93 123,90 126,90 126,93 123,93 123,96 126,96 126,99 129,99 129,96 132,96 132,99 135,99 135,96 132,96 132,93 135,93 135,90 138,90 138,93 135,93 135,96 138,96 138,99 141,99 141,96 144,96 144,99 141,99 141,102 144,102 144,105 141,105 141,108 138,108 138,105 135,105 135,108 138,108 138,111 141,111 141,108 144,108 144,111 147,111 147,108 144,108 144,105 147,105 147,102 150,102 150,105 153,105 153,102 150,102 150,99 147,99 147,102 144,102 144,99 147,99 147,96 144,96 144,93 147,93 147,90 150,90 150,93 153,93 153,90 150,90 150,87 147,87 147,90 144,90 144,87 141,87 141,90 144,90 144,93 141,93 141,96 138,96 138,93 141,93 141,90 138,90 138,87 135,87 135,90 132,90 132,87 135,87 135,84 132,84 132,81 135,81 135,78 138,78 138,81 135,81 135,84 138,84 138,87 141,87 141,84 144,84 144,87 147,87 147,84 144,84 144,81 147,81 147,78 150,78 150,81 153,81 153,78 150,78 150,75 147,75 147,78 144,78 144,75 147,75 147,72 144,72 144,69 147,69 147,66 150,66 150,69 147,69 147,72 150,72 150,75 153,75 153,72 156,72 156,75 159,75 159,72 156,72 156,69 159,69 159,66 162,66 162,69 159,69 159,72 162,72 162,75 165,75 165,72 168,72 168,75 165,75 165,78 168,78 168,81 165,81 165,84 162,84 162,81 165,81 165,78 162,78 162,75 159,75 159,78 156,78 156,75 153,75 153,78 156,78 156,81 153,81 153,84 150,84 150,81 147,81 147,84 150,84 150,87 153,87 153,84 156,84 156,87 153,87 153,90 156,90 156,93 153,93 153,96 150,96 150,93 147,93 147,96 150,96 150,99 153,99 153,96 156,96 156,99 159,99 159,96 156,96 156,93 159,93 159,90 162,90 162,93 159,93 159,96 162,96 162,99 165,99 165,96 168,96 168,99 165,99 165,102 168,102 168,105 165,105 165,108 162,108 162,105 159,105 159,108 162,108 162,111 165,111 165,108 168,108 168,111 171,111 171,108 168,108 168,105 171,105 171,102 174,102 174,105 177,105 177,102 174,102 174,99 171,99 171,102 168,102 168,99 171,99 171,96 168,96 168,93 171,93 171,90 174,90 174,93 171,93 171,96 174,96 174,99 177,99 177,96 180,96 180,99 183,99 183,96 180,96 180,93 183,93 183,90 186,90 186,93 183,93 183,96 186,96 186,99 189,99 189,96 192,96 192,99 189,99 189,102 192,102 192,105 189,105 189,108 186,108 186,105 189,105 189,102 186,102 186,99 183,99 183,102 180,102 180,99 177,99 177,102 180,102 180,105 177,105 177,108 174,108 174,105 171,105 171,108 174,108 174,111 177,111 177,108 180,108 180,111 177,111 177,114 180,114 180,117 177,117 177,120 174,120 174,117 171,117 171,120 174,120 174,123 177,123 177,120 180,120 180,123 183,123 183,120 180,120 180,117 183,117 183,114 186,114 186,117 183,117 183,120 186,120 186,123 189,123 189,120 192,120 192,123 189,123 189,126 192,126 192,129 189,129 189,132 186,132 186,129 189,129 189,126 186,126 186,123 183,123 183,126 180,126 180,123 177,123 177,126 180,126 180,129 177,129 177,132 174,132 174,129 171,129 171,132 174,132 174,135 177,135 177,132 180,132 180,135 177,135 177,138 180,138 180,141 177,141 177,144 174,144 174,141 177,141 177,138 174,138 174,135 171,135 171,138 168,138 168,135 165,135 165,138 168,138 168,141 165,141 165,144 162,144 162,141 165,141 165,138 162,138 162,135 159,135 159,138 156,138 156,135 159,135 159,132 156,132 156,129 159,129 159,126 162,126 162,129 159,129 159,132 162,132 162,135 165,135 165,132 168,132 168,135 171,135 171,132 168,132 168,129 171,129 171,126 174,126 174,129 177,129 177,126 174,126 174,123 171,123 171,126 168,126 168,123 171,123 171,120 168,120 168,117 171,117 171,114 174,114 174,117 177,117 177,114 174,114 174,111 171,111 171,114 168,114 168,111 165,111 165,114 168,114 168,117 165,117 165,120 162,120 162,117 165,117 165,114 162,114 162,111 159,111 159,114 156,114 156,111 159,111 159,108 156,108 156,105 159,105 159,102 162,102 162,105 165,105 165,102 162,102 162,99 159,99 159,102 156,102 156,99 153,99 153,102 156,102 156,105 153,105 153,108 150,108 150,105 147,105 147,108 150,108 150,111 153,111 153,108 156,108 156,111 153,111 153,114 156,114 156,117 153,117 153,120 150,120 150,117 153,117 153,114 150,114 150,111 147,111 147,114 144,114 144,111 141,111 141,114 144,114 144,117 141,117 141,120 138,120 138,117 141,117 141,114 138,114 138,111 135,111 135,114 132,114 132,111 135,111 135,108 132,108 132,105 135,105 135,102 138,102 138,105 141,105 141,102 138,102 138,99 135,99 135,102 132,102 132,99 129,99 129,102 132,102 132,105 129,105 129,108 126,108 126,105 123,105 123,108 126,108 126,111 129,111 129,108 132,108 132,111 129,111 129,114 132,114 132,117 129,117 129,120 126,120 126,117 123,117 123,120 126,120 126,123 129,123 129,120 132,120 132,123 135,123 135,120 132,120 132,117 135,117 135,114 138,114 138,117 135,117 135,120 138,120 138,123 141,123 141,120 144,120 144,123 141,123 141,126 144,126 144,129 141,129 141,132 138,132 138,129 141,129 141,126 138,126 138,123 135,123 135,126 132,126 132,123 129,123 129,126 132,126 132,129 129,129 129,132 126,132 126,129 123,129 123,132 126,132 126,135 129,135 129,132 132,132 132,135 129,135 129,138 132,138 132,141 129,141 129,144 126,144 126,141 129,141 129,138 126,138 126,135 123,135 123,138 120,138 120,135 117,135 117,138 120,138 120,141 117,141 117,144 114,144 114,141 117,141 117,138 114,138 114,135 111,135 111,138 108,138 108,135 111,135 111,132 108,132 108,129 111,129 111,126 114,126 114,129 117,129 117,126 114,126 114,123 111,123 111,126 108,126 108,123 105,123 105,126 108,126 108,129 105,129 105,132 102,132 102,129 99,129 99,132 102,132 102,135 105,135 105,132 108,132 108,135 105,135 105,138 108,138 108,141 105,141 105,144 102,144 102,141 99,141 99,144 102,144 102,147 105,147 105,144 108,144 108,147 111,147 111,144 108,144 108,141 111,141 111,138 114,138 114,141 111,141 111,144 114,144 114,147 117,147 117,144 120,144 120,147 117,147 117,150 120,150 120,153 117,153 117,156 114,156 114,153 111,153 111,156 114,156 114,159 117,159 117,156 120,156 120,159 123,159 123,156 120,156 120,153 123,153 123,150 126,150 126,153 129,153 129,150 126,150 126,147 123,147 123,150 120,150 120,147 123,147 123,144 120,144 120,141 123,141 123,138 126,138 126,141 123,141 123,144 126,144 126,147 129,147 129,144 132,144 132,147 135,147 135,144 132,144 132,141 135,141 135,138 138,138 138,141 135,141 135,144 138,144 138,147 141,147 141,144 144,144 144,147 141,147 141,150 144,150 144,153 141,153 141,156 138,156 138,153 141,153 141,150 138,150 138,147 135,147 135,150 132,150 132,147 129,147 129,150 132,150 132,153 129,153 129,156 126,156 126,153 123,153 123,156 126,156 126,159 129,159 129,156 132,156 132,159 129,159 129,162 132,162 132,165 129,165 129,168 126,168 126,165 123,165 123,168 126,168 126,171 129,171 129,168 132,168 132,171 135,171 135,168 132,168 132,165 135,165 135,162 138,162 138,165 135,165 135,168 138,168 138,171 141,171 141,168 144,168 144,171 141,171 141,174 144,174 144,177 141,177 141,180 138,180 138,177 141,177 141,174 138,174 138,171 135,171 135,174 132,174 132,171 129,171 129,174 132,174 132,177 129,177 129,180 126,180 126,177 123,177 123,180 126,180 126,183 129,183 129,180 132,180 132,183 129,183 129,186 132,186 132,189 129,189 129,192 126,192 126,189 129,189 129,186 126,186 126,183 123,183 123,186 120,186 120,183 117,183 117,186 120,186 120,189 117,189 117,192 114,192 114,189 117,189 117,186 114,186 114,183 111,183 111,186 108,186 108,183 111,183 111,180 108,180 108,177 111,177 111,174 114,174 114,177 111,177 111,180 114,180 114,183 117,183 117,180 120,180 120,183 123,183 123,180 120,180 120,177 123,177 123,174 126,174 126,177 129,177 129,174 126,174 126,171 123,171 123,174 120,174 120,171 123,171 123,168 120,168 120,165 123,165 123,162 126,162 126,165 129,165 129,162 126,162 126,159 123,159 123,162 120,162 120,159 117,159 117,162 120,162 120,165 117,165 117,168 114,168 114,165 117,165 117,162 114,162 114,159 111,159 111,162 108,162 108,159 111,159 111,156 108,156 108,153 111,153 111,150 114,150 114,153 117,153 117,150 114,150 114,147 111,147 111,150 108,150 108,147 105,147 105,150 108,150 108,153 105,153 105,156 102,156 102,153 99,153 99,156 102,156 102,159 105,159 105,156 108,156 108,159 105,159 105,162 108,162 108,165 105,165 105,168 102,168 102,165 105,165 105,162 102,162 102,159 99,159 99,162 96,162 96,159 93,159 93,162 96,162 96,165 93,165 93,168 90,168 90,165 93,165 93,162 90,162 90,159 87,159 87,162 84,162 84,159 87,159 87,156 84,156 84,153 87,153 87,150 90,150 90,153 93,153 93,150 90,150 90,147 87,147 87,150 84,150 84,147 81,147 81,150 84,150 84,153 81,153 81,156 78,156 78,153 75,153 75,156 78,156 78,159 81,159 81,156 84,156 84,159 81,159 81,162 84,162 84,165 81,165 81,168 78,168 78,165 75,165 75,168 78,168 78,171 81,171 81,168 84,168 84,171 87,171 87,168 84,168 84,165 87,165 87,162 90,162 90,165 87,165 87,168 90,168 90,171 93,171 93,168 96,168 96,171 93,171 93,174 96,174 96,177 93,177 93,180 90,180 90,177 93,177 93,174 90,174 90,171 87,171 87,174 84,174 84,171 81,171 81,174 84,174 84,177 81,177 81,180 78,180 78,177 75,177 75,180 78,180 78,183 81,183 81,180 84,180 84,183 81,183 81,186 84,186 84,189 81,189 81,192 78,192 78,189 81,189 81,186 78,186 78,183 75,183 75,186 72,186 72,183 69,183 69,186 72,186 72,189 69,189 69,192 66,192 66,189 69,189 69,186 66,186 66,183 63,183 63,186 60,186 60,183 63,183 63,180 60,180 60,177 63,177 63,174 66,174 66,177 63,177 63,180 66,180 66,183 69,183 69,180 72,180 72,183 75,183 75,180 72,180 72,177 75,177 75,174 78,174 78,177 81,177 81,174 78,174 78,171 75,171 75,174 72,174 72,171 75,171 75,168 72,168 72,165 75,165 75,162 78,162 78,165 81,165 81,162 78,162 78,159 75,159 75,162 72,162 72,159 69,159 69,162 72,162 72,165 69,165 69,168 66,168 66,165 69,165 69,162 66,162 66,159 63,159 63,162 60,162 60,159 63,159 63,156 60,156 60,153 63,153 63,150 66,150 66,153 69,153 69,150 66,150 66,147 63,147 63,150 60,150 60,147 57,147 57,150 60,150 60,153 57,153 57,156 54,156 54,153 51,153 51,156 54,156 54,159 57,159 57,156 60,156 60,159 57,159 57,162 60,162 60,165 57,165 57,168 54,168 54,165 57,165 57,162 54,162 54,159 51,159 51,162 48,162 48,159 45,159 45,162 48,162 48,165 45,165 45,168 42,168 42,165 45,165 45,162 42,162 42,159 39,159 39,162 36,162 36,159 39,159 39,156 36,156 36,153 39,153 39,150 42,150 42,153 39,153 39,156 42,156 42,159 45,159 45,156 48,156 48,159 51,159 51,156 48,156 48,153 51,153 51,150 54,150 54,153 57,153 57,150 54,150 54,147 51,147 51,150 48,150 48,147 51,147 51,144 48,144 48,141 51,141 51,138 54,138 54,141 57,141 57,138 54,138 54,135 51,135 51,138 48,138 48,135 45,135 45,138 48,138 48,141 45,141 45,144 42,144 42,141 45,141 45,138 42,138 42,135 39,135 39,138 36,138 36,135 39,135 39,132 36,132 36,129 39,129 39,126 42,126 42,129 39,129 39,132 42,132 42,135 45,135 45,132 48,132 48,135 51,135 51,132 48,132 48,129 51,129 51,126 54,126 54,129 57,129 57,126 54,126 54,123 51,123 51,126 48,126 48,123 51,123 51,120 48,120 48,117 51,117 51,114 54,114 54,117 51,117 51,120 54,120 54,123 57,123 57,120 60,120 60,123 63,123 63,120 60,120 60,117 63,117 63,114 66,114 66,117 63,117 63,120 66,120 66,123 69,123 69,120 72,120 72,123 69,123 69,126 72,126 72,129 69,129 69,132 66,132 66,129 63,129 63,132 66,132 66,135 69,135 69,132 72,132 72,135 75,135 75,132 72,132 72,129 75,129 75,126 78,126 78,129 81,129 81,126 78,126 78,123 75,123 75,126 72,126 72,123 75,123 75,120 72,120 72,117 75,117 75,114 78,114 78,117 81,117 81,114 78,114 78,111 75,111 75,114 72,114 72,111 69,111 69,114 72,114 72,117 69,117 69,120 66,120 66,117 69,117 69,114 66,114 66,111 63,111 63,114 60,114 60,111 63,111 63,108 60,108 60,105 63,105 63,102 66,102 66,105 69,105 69,102 66,102 66,99 63,99 63,102 60,102 60,99 57,99 57,102 60,102 60,105 57,105 57,108 54,108 54,105 51,105 51,108 54,108 54,111 57,111 57,108 60,108 60,111 57,111 57,114 60,114 60,117 57,117 57,120 54,120 54,117 57,117 57,114 54,114 54,111 51,111 51,114 48,114 48,111 45,111 45,114 48,114 48,117 45,117 45,120 42,120 42,117 45,117 45,114 42,114 42,111 39,111 39,114 36,114 36,111 39,111 39,108 36,108 36,105 39,105 39,102 42,102 42,105 45,105 45,102 42,102 42,99 39,99 39,102 36,102 36,99 33,99 33,102 36,102 36,105 33,105 33,108 30,108 30,105 27,105 27,108 30,108 30,111 33,111 33,108 36,108 36,111 33,111 33,114 36,114 36,117 33,117 33,120 30,120 30,117 27,117 27,120 30,120 30,123 33,123 33,120 36,120 36,123 39,123 39,120 36,120 36,117 39,117 39,114 42,114 42,117 39,117 39,120 42,120 42,123 45,123 45,120 48,120 48,123 45,123 45,126 48,126 48,129 45,129 45,132 42,132 42,129 45,129 45,126 42,126 42,123 39,123 39,126 36,126 36,123 33,123 33,126 36,126 36,129 33,129 33,132 30,132 30,129 27,129 27,132 30,132 30,135 33,135 33,132 36,132 36,135 33,135 33,138 36,138 36,141 33,141 33,144 30,144 30,141 33,141 33,138 30,138 30,135 27,135 27,138 24,138 24,135 21,135 21,138 24,138 24,141 21,141 21,144 18,144 18,141 21,141 21,138 18,138 18,135 15,135 15,138 12,138 12,135 15,135 15,132 12,132 12,129 15,129 15,126 18,126 18,129 21,129 21,126 18,126 18,123 15,123 15,126 12,126 12,123 9,123 9,126 12,126 12,129 9,129 9,132 6,132 6,129 3,129 3,132 6,132 6,135 9,135 9,132 12,132 12,135 9,135 9,138 12,138 12,141 9,141 9,144 6,144 6,141 3,141 3,144 6,144 6,147 9,147 9,144 12,144 12,147 15,147 15,144 12,144 12,141 15,141 15,138 18,138 18,141 15,141 15,144 18,144 18,147 21,147 21,144 24,144 24,147 21,147 21,150 24,150 24,153 21,153 21,156 18,156 18,153 15,153 15,156 18,156 18,159 21,159 21,156 24,156 24,159 27,159 27,156 24,156 24,153 27,153 27,150 30,150 30,153 33,153 33,150 30,150 30,147 27,147 27,150 24,150 24,147 27,147 27,144 24,144 24,141 27,141 27,138 30,138 30,141 27,141 27,144 30,144 30,147 33,147 33,144 36,144 36,147 39,147 39,144 36,144 36,141 39,141 39,138 42,138 42,141 39,141 39,144 42,144 42,147 45,147 45,144 48,144 48,147 45,147 45,150 48,150 48,153 45,153 45,156 42,156 42,153 45,153 45,150 42,150 42,147 39,147 39,150 36,150 36,147 33,147 33,150 36,150 36,153 33,153 33,156 30,156 30,153 27,153 27,156 30,156 30,159 33,159 33,156 36,156 36,159 33,159 33,162 36,162 36,165 33,165 33,168 30,168 30,165 27,165 27,168 30,168 30,171 33,171 33,168 36,168 36,171 39,171 39,168 36,168 36,165 39,165 39,162 42,162 42,165 39,165 39,168 42,168 42,171 45,171 45,168 48,168 48,171 45,171 45,174 48,174 48,177 45,177 45,180 42,180 42,177 45,177 45,174 42,174 42,171 39,171 39,174 36,174 36,171 33,171 33,174 36,174 36,177 33,177 33,180 30,180 30,177 27,177 27,180 30,180 30,183 33,183 33,180 36,180 36,183 33,183 33,186 36,186 36,189 33,189 33,192 30,192 30,189 33,189 33,186 30,186 30,183 27,183 27,186 24,186 24,183 21,183 21,186 24,186 24,189 21,189 21,192 18,192 18,189 21,189 21,186 18,186 18,183 15,183 15,186 12,186 12,183 15,183 15,180 12,180 12,177 15,177 15,174 18,174 18,177 21,177 21,174 18,174 18,171 15,171 15,174 12,174 12,171 9,171 9,174 12,174 12,177 9,177 9,180 6,180 6,177 3,177 3,180 6,180 6,183 9,183 9,180 12,180 12,183 9,183 9,186 12,186 12,189 9,189 9,192 6,192 6,189 3,189 3,192 6,192 6,195 9,195 9,192 12,192 12,195 15,195 15,192 12,192 12,189 15,189 15,186 18,186 18,189 15,189 15,192 18,192 18,195 21,195 21,192 24,192 24,195 21,195 21,198 24,198 24,201 21,201 21,204 18,204 18,201 15,201 15,204 18,204 18,207 21,207 21,204 24,204 24,207 27,207 27,204 24,204 24,201 27,201 27,198 30,198 30,201 33,201 33,198 30,198 30,195 27,195 27,198 24,198 24,195 27,195 27,192 24,192 24,189 27,189 27,186 30,186 30,189 27,189 27,192 30,192 30,195 33,195 33,192 36,192 36,195 39,195 39,192 36,192 36,189 39,189 39,186 42,186 42,189 39,189 39,192 42,192 42,195 45,195 45,192 48,192 48,195 45,195 45,198 48,198 48,201 45,201 45,204 42,204 42,201 39,201 39,204 42,204 42,207 45,207 45,204 48,204 48,207 51,207 51,204 48,204 48,201 51,201 51,198 54,198 54,201 57,201 57,198 54,198 54,195 51,195 51,198 48,198 48,195 51,195 51,192 48,192 48,189 51,189 51,186 54,186 54,189 57,189 57,186 54,186 54,183 51,183 51,186 48,186 48,183 45,183 45,186 48,186 48,189 45,189 45,192 42,192 42,189 45,189 45,186 42,186 42,183 39,183 39,186 36,186 36,183 39,183 39,180 36,180 36,177 39,177 39,174 42,174 42,177 39,177 39,180 42,180 42,183 45,183 45,180 48,180 48,183 51,183 51,180 48,180 48,177 51,177 51,174 54,174 54,177 57,177 57,174 54,174 54,171 51,171 51,174 48,174 48,171 51,171 51,168 48,168 48,165 51,165 51,162 54,162 54,165 51,165 51,168 54,168 54,171 57,171 57,168 60,168 60,171 63,171 63,168 60,168 60,165 63,165 63,162 66,162 66,165 63,165 63,168 66,168 66,171 69,171 69,168 72,168 72,171 69,171 69,174 72,174 72,177 69,177 69,180 66,180 66,177 69,177 69,174 66,174 66,171 63,171 63,174 60,174 60,171 57,171 57,174 60,174 60,177 57,177 57,180 54,180 54,177 51,177 51,180 54,180 54,183 57,183 57,180 60,180 60,183 57,183 57,186 60,186 60,189 57,189 57,192 54,192 54,189 51,189 51,192 54,192 54,195 57,195 57,192 60,192 60,195 63,195 63,192 60,192 60,189 63,189 63,186 66,186 66,189 63,189 63,192 66,192 66,195 69,195 69,192 72,192 72,195 69,195 69,198 72,198 72,201 69,201 69,204 66,204 66,201 63,201 63,204 66,204 66,207 69,207 69,204 72,204 72,207 75,207 75,204 72,204 72,201 75,201 75,198 78,198 78,201 81,201 81,198 78,198 78,195 75,195 75,198 72,198 72,195 75,195 75,192 72,192 72,189 75,189 75,186 78,186 78,189 75,189 75,192 78,192 78,195 81,195 81,192 84,192 84,195 87,195 87,192 84,192 84,189 87,189 87,186 90,186 90,189 87,189 87,192 90,192 90,195 93,195 93,192 96,192 96,195 93,195 93,198 96,198 96,201 93,201 93,204 90,204 90,201 93,201 93,198 90,198 90,195 87,195 87,198 84,198 84,195 81,195 81,198 84,198 84,201 81,201 81,204 78,204 78,201 75,201 75,204 78,204 78,207 81,207 81,204 84,204 84,207 81,207 81,210 84,210 84,213 81,213 81,216 78,216 78,213 75,213 75,216 78,216 78,219 81,219 81,216 84,216 84,219 87,219 87,216 84,216 84,213 87,213 87,210 90,210 90,213 87,213 87,216 90,216 90,219 93,219 93,216 96,216 96,219 93,219 93,222 96,222 96,225 93,225 93,228 90,228 90,225 93,225 93,222 90,222 90,219 87,219 87,222 84,222 84,219 81,219 81,222 84,222 84,225 81,225 81,228 78,228 78,225 75,225 75,228 78,228 78,231 81,231 81,228 84,228 84,231 81,231 81,234 84,234 84,237 81,237 81,240 78,240 78,237 81,237 81,234 78,234 78,231 75,231 75,234 72,234 72,231 69,231 69,234 72,234 72,237 69,237 69,240 66,240 66,237 69,237 69,234 66,234 66,231 63,231 63,234 60,234 60,231 63,231 63,228 60,228 60,225 63,225 63,222 66,222 66,225 69,225 69,222 66,222 66,219 63,219 63,222 60,222 60,219 57,219 57,222 60,222 60,225 57,225 57,228 54,228 54,225 51,225 51,228 54,228 54,231 57,231 57,228 60,228 60,231 57,231 57,234 60,234 60,237 57,237 57,240 54,240 54,237 51,237 51,240 54,240 54,243 57,243 57,240 60,240 60,243 63,243 63,240 60,240 60,237 63,237 63,234 66,234 66,237 63,237 63,240 66,240 66,243 69,243 69,240 72,240 72,243 69,243 69,246 72,246 72,249 69,249 69,252 66,252 66,249 63,249 63,252 66,252 66,255 69,255 69,252 72,252 72,255 75,255 75,252 72,252 72,249 75,249 75,246 78,246 78,249 81,249 81,246 78,246 78,243 75,243 75,246 72,246 72,243 75,243 75,240 72,240 72,237 75,237 75,234 78,234 78,237 75,237 75,240 78,240 78,243 81,243 81,240 84,240 84,243 87,243 87,240 84,240 84,237 87,237 87,234 90,234 90,237 87,237 87,240 90,240 90,243 93,243 93,240 96,240 96,243 93,243 93,246 96,246 96,249 93,249 93,252 90,252 90,249 87,249 87,252 90,252 90,255 93,255 93,252 96,252 96,255 99,255 99,252 96,252 96,249 99,249 99,246 102,246 102,249 105,249 105,246 102,246 102,243 99,243 99,246 96,246 96,243 99,243 99,240 96,240 96,237 99,237 99,234 102,234 102,237 105,237 105,234 102,234 102,231 99,231 99,234 96,234 96,231 93,231 93,234 96,234 96,237 93,237 93,240 90,240 90,237 93,237 93,234 90,234 90,231 87,231 87,234 84,234 84,231 87,231 87,228 84,228 84,225 87,225 87,222 90,222 90,225 87,225 87,228 90,228 90,231 93,231 93,228 96,228 96,231 99,231 99,228 96,228 96,225 99,225 99,222 102,222 102,225 105,225 105,222 102,222 102,219 99,219 99,222 96,222 96,219 99,219 99,216 96,216 96,213 99,213 99,210 102,210 102,213 99,213 99,216 102,216 102,219 105,219 105,216 108,216 108,219 111,219 111,216 108,216 108,213 111,213 111,210 114,210 114,213 111,213 111,216 114,216 114,219 117,219 117,216 120,216 120,219 117,219 117,222 120,222 120,225 117,225 117,228 114,228 114,225 111,225 111,228 114,228 114,231 117,231 117,228 120,228 120,231 123,231 123,228 120,228 120,225 123,225 123,222 126,222 126,225 129,225 129,222 126,222 126,219 123,219 123,222 120,222 120,219 123,219 123,216 120,216 120,213 123,213 123,210 126,210 126,213 129,213 129,210 126,210 126,207 123,207 123,210 120,210 120,207 117,207 117,210 120,210 120,213 117,213 117,216 114,216 114,213 117,213 117,210 114,210 114,207 111,207 111,210 108,210 108,207 111,207 111,204 108,204 108,201 111,201 111,198 114,198 114,201 117,201 117,198 114,198 114,195 111,195 111,198 108,198 108,195 105,195 105,198 108,198 108,201 105,201 105,204 102,204 102,201 99,201 99,204 102,204 102,207 105,207 105,204 108,204 108,207 105,207 105,210 108,210 108,213 105,213 105,216 102,216 102,213 105,213 105,210 102,210 102,207 99,207 99,210 96,210 96,207 93,207 93,210 96,210 96,213 93,213 93,216 90,216 90,213 93,213 93,210 90,210 90,207 87,207 87,210 84,210 84,207 87,207 87,204 84,204 84,201 87,201 87,198 90,198 90,201 87,201 87,204 90,204 90,207 93,207 93,204 96,204 96,207 99,207 99,204 96,204 96,201 99,201 99,198 102,198 102,201 105,201 105,198 102,198 102,195 99,195 99,198 96,198 96,195 99,195 99,192 96,192 96,189 99,189 99,186 102,186 102,189 105,189 105,186 102,186 102,183 99,183 99,186 96,186 96,183 93,183 93,186 96,186 96,189 93,189 93,192 90,192 90,189 93,189 93,186 90,186 90,183 87,183 87,186 84,186 84,183 87,183 87,180 84,180 84,177 87,177 87,174 90,174 90,177 87,177 87,180 90,180 90,183 93,183 93,180 96,180 96,183 99,183 99,180 96,180 96,177 99,177 99,174 102,174 102,177 105,177 105,174 102,174 102,171 99,171 99,174 96,174 96,171 99,171 99,168 96,168 96,165 99,165 99,162 102,162 102,165 99,165 99,168 102,168 102,171 105,171 105,168 108,168 108,171 111,171 111,168 108,168 108,165 111,165 111,162 114,162 114,165 111,165 111,168 114,168 114,171 117,171 117,168 120,168 120,171 117,171 117,174 120,174 120,177 117,177 117,180 114,180 114,177 117,177 117,174 114,174 114,171 111,171 111,174 108,174 108,171 105,171 105,174 108,174 108,177 105,177 105,180 102,180 102,177 99,177 99,180 102,180 102,183 105,183 105,180 108,180 108,183 105,183 105,186 108,186 108,189 105,189 105,192 102,192 102,189 99,189 99,192 102,192 102,195 105,195 105,192 108,192 108,195 111,195 111,192 108,192 108,189 111,189 111,186 114,186 114,189 111,189 111,192 114,192 114,195 117,195 117,192 120,192 120,195 117,195 117,198 120,198 120,201 117,201 117,204 114,204 114,201 111,201 111,204 114,204 114,207 117,207 117,204 120,204 120,207 123,207 123,204 120,204 120,201 123,201 123,198 126,198 126,201 129,201 129,198 126,198 126,195 123,195 123,198 120,198 120,195 123,195 123,192 120,192 120,189 123,189 123,186 126,186 126,189 123,189 123,192 126,192 126,195 129,195 129,192 132,192 132,195 135,195 135,192 132,192 132,189 135,189 135,186 138,186 138,189 135,189 135,192 138,192 138,195 141,195 141,192 144,192 144,195 141,195 141,198 144,198 144,201 141,201 141,204 138,204 138,201 135,201 135,204 138,204 138,207 141,207 141,204 144,204 144,207 147,207 147,204 144,204 144,201 147,201 147,198 150,198 150,201 153,201 153,198 150,198 150,195 147,195 147,198 144,198 144,195 147,195 147,192 144,192 144,189 147,189 147,186 150,186 150,189 153,189 153,186 150,186 150,183 147,183 147,186 144,186 144,183 141,183 141,186 144,186 144,189 141,189 141,192 138,192 138,189 141,189 141,186 138,186 138,183 135,183 135,186 132,186 132,183 135,183 135,180 132,180 132,177 135,177 135,174 138,174 138,177 135,177 135,180 138,180 138,183 141,183 141,180 144,180 144,183 147,183 147,180 144,180 144,177 147,177 147,174 150,174 150,177 153,177 153,174 150,174 150,171 147,171 147,174 144,174 144,171 147,171 147,168 144,168 144,165 147,165 147,162 150,162 150,165 147,165 147,168 150,168 150,171 153,171 153,168 156,168 156,171 159,171 159,168 156,168 156,165 159,165 159,162 162,162 162,165 159,165 159,168 162,168 162,171 165,171 165,168 168,168 168,171 165,171 165,174 168,174 168,177 165,177 165,180 162,180 162,177 165,177 165,174 162,174 162,171 159,171 159,174 156,174 156,171 153,171 153,174 156,174 156,177 153,177 153,180 150,180 150,177 147,177 147,180 150,180 150,183 153,183 153,180 156,180 156,183 153,183 153,186 156,186 156,189 153,189 153,192 150,192 150,189 147,189 147,192 150,192 150,195 153,195 153,192 156,192 156,195 159,195 159,192 156,192 156,189 159,189 159,186 162,186 162,189 159,189 159,192 162,192 162,195 165,195 165,192 168,192 168,195 165,195 165,198 168,198 168,201 165,201 165,204 162,204 162,201 159,201 159,204 162,204 162,207 165,207 165,204 168,204 168,207 171,207 171,204 168,204 168,201 171,201 171,198 174,198 174,201 177,201 177,198 174,198 174,195 171,195 171,198 168,198 168,195 171,195 171,192 168,192 168,189 171,189 171,186 174,186 174,189 171,189 171,192 174,192 174,195 177,195 177,192 180,192 180,195 183,195 183,192 180,192 180,189 183,189 183,186 186,186 186,189 183,189 183,192 186,192 186,195 189,195 189,192 192,192 192,195 189,195 189,198 192,198 192,201 189,201 189,204 186,204 186,201 189,201 189,198 186,198 186,195 183,195 183,198 180,198 180,195 177,195 177,198 180,198 180,201 177,201 177,204 174,204 174,201 171,201 171,204 174,204 174,207 177,207 177,204 180,204 180,207 177,207 177,210 180,210 180,213 177,213 177,216 174,216 174,213 171,213 171,216 174,216 174,219 177,219 177,216 180,216 180,219 183,219 183,216 180,216 180,213 183,213 183,210 186,210 186,213 183,213 183,216 186,216 186,219 189,219 189,216 192,216 192,219 189,219 189,222 192,222 192,225 189,225 189,228 186,228 186,225 189,225 189,222 186,222 186,219 183,219 183,222 180,222 180,219 177,219 177,222 180,222 180,225 177,225 177,228 174,228 174,225 171,225 171,228 174,228 174,231 177,231 177,228 180,228 180,231 177,231 177,234 180,234 180,237 177,237 177,240 174,240 174,237 177,237 177,234 174,234 174,231 171,231 171,234 168,234 168,231 165,231 165,234 168,234 168,237 165,237 165,240 162,240 162,237 165,237 165,234 162,234 162,231 159,231 159,234 156,234 156,231 159,231 159,228 156,228 156,225 159,225 159,222 162,222 162,225 159,225 159,228 162,228 162,231 165,231 165,228 168,228 168,231 171,231 171,228 168,228 168,225 171,225 171,222 174,222 174,225 177,225 177,222 174,222 174,219 171,219 171,222 168,222 168,219 171,219 171,216 168,216 168,213 171,213 171,210 174,210 174,213 177,213 177,210 174,210 174,207 171,207 171,210 168,210 168,207 165,207 165,210 168,210 168,213 165,213 165,216 162,216 162,213 165,213 165,210 162,210 162,207 159,207 159,210 156,210 156,207 159,207 159,204 156,204 156,201 159,201 159,198 162,198 162,201 165,201 165,198 162,198 162,195 159,195 159,198 156,198 156,195 153,195 153,198 156,198 156,201 153,201 153,204 150,204 150,201 147,201 147,204 150,204 150,207 153,207 153,204 156,204 156,207 153,207 153,210 156,210 156,213 153,213 153,216 150,216 150,213 153,213 153,210 150,210 150,207 147,207 147,210 144,210 144,207 141,207 141,210 144,210 144,213 141,213 141,216 138,216 138,213 141,213 141,210 138,210 138,207 135,207 135,210 132,210 132,207 135,207 135,204 132,204 132,201 135,201 135,198 138,198 138,201 141,201 141,198 138,198 138,195 135,195 135,198 132,198 132,195 129,195 129,198 132,198 132,201 129,201 129,204 126,204 126,201 123,201 123,204 126,204 126,207 129,207 129,204 132,204 132,207 129,207 129,210 132,210 132,213 129,213 129,216 126,216 126,213 123,213 123,216 126,216 126,219 129,219 129,216 132,216 132,219 135,219 135,216 132,216 132,213 135,213 135,210 138,210 138,213 135,213 135,216 138,216 138,219 141,219 141,216 144,216 144,219 141,219 141,222 144,222 144,225 141,225 141,228 138,228 138,225 141,225 141,222 138,222 138,219 135,219 135,222 132,222 132,219 129,219 129,222 132,222 132,225 129,225 129,228 126,228 126,225 123,225 123,228 126,228 126,231 129,231 129,228 132,228 132,231 129,231 129,234 132,234 132,237 129,237 129,240 126,240 126,237 129,237 129,234 126,234 126,231 123,231 123,234 120,234 120,231 117,231 117,234 120,234 120,237 117,237 117,240 114,240 114,237 117,237 117,234 114,234 114,231 111,231 111,234 108,234 108,231 111,231 111,228 108,228 108,225 111,225 111,222 114,222 114,225 117,225 117,222 114,222 114,219 111,219 111,222 108,222 108,219 105,219 105,222 108,222 108,225 105,225 105,228 102,228 102,225 99,225 99,228 102,228 102,231 105,231 105,228 108,228 108,231 105,231 105,234 108,234 108,237 105,237 105,240 102,240 102,237 99,237 99,240 102,240 102,243 105,243 105,240 108,240 108,243 111,243 111,240 108,240 108,237 111,237 111,234 114,234 114,237 111,237 111,240 114,240 114,243 117,243 117,240 120,240 120,243 117,243 117,246 120,246 120,249 117,249 117,252 114,252 114,249 111,249 111,252 114,252 114,255 117,255 117,252 120,252 120,255 123,255 123,252 120,252 120,249 123,249 123,246 126,246 126,249 129,249 129,246 126,246 126,243 123,243 123,246 120,246 120,243 123,243 123,240 120,240 120,237 123,237 123,234 126,234 126,237 123,237 123,240 126,240 126,243 129,243 129,240 132,240 132,243 135,243 135,240 132,240 132,237 135,237 135,234 138,234 138,237 135,237 135,240 138,240 138,243 141,243 141,240 144,240 144,243 141,243 141,246 144,246 144,249 141,249 141,252 138,252 138,249 141,249 141,246 138,246 138,243 135,243 135,246 132,246 132,243 129,243 129,246 132,246 132,249 129,249 129,252 126,252 126,249 123,249 123,252 126,252 126,255 129,255 129,252 132,252 132,255 129,255 129,258 132,258 132,261 129,261 129,264 126,264 126,261 123,261 123,264 126,264 126,267 129,267 129,264 132,264 132,267 135,267 135,264 132,264 132,261 135,261 135,258 138,258 138,261 135,261 135,264 138,264 138,267 141,267 141,264 144,264 144,267 141,267 141,270 144,270 144,273 141,273 141,276 138,276 138,273 141,273 141,270 138,270 138,267 135,267 135,270 132,270 132,267 129,267 129,270 132,270 132,273 129,273 129,276 126,276 126,273 123,273 123,276 126,276 126,279 129,279 129,276 132,276 132,279 129,279 129,282 132,282 132,285 129,285 129,288 126,288 126,285 129,285 129,282 126,282 126,279 123,279 123,282 120,282 120,279 117,279 117,282 120,282 120,285 117,285 117,288 114,288 114,285 117,285 117,282 114,282 114,279 111,279 111,282 108,282 108,279 111,279 111,276 108,276 108,273 111,273 111,270 114,270 114,273 117,273 117,270 114,270 114,267 111,267 111,270 108,270 108,267 105,267 105,270 108,270 108,273 105,273 105,276 102,276 102,273 99,273 99,276 102,276 102,279 105,279 105,276 108,276 108,279 105,279 105,282 108,282 108,285 105,285 105,288 102,288 102,285 99,285 99,288 102,288 102,291 105,291 105,288 108,288 108,291 111,291 111,288 108,288 108,285 111,285 111,282 114,282 114,285 111,285 111,288 114,288 114,291 117,291 117,288 120,288 120,291 117,291 117,294 120,294 120,297 117,297 117,300 114,300 114,297 111,297 111,300 114,300 114,303 117,303 117,300 120,300 120,303 123,303 123,300 120,300 120,297 123,297 123,294 126,294 126,297 129,297 129,294 126,294 126,291 123,291 123,294 120,294 120,291 123,291 123,288 120,288 120,285 123,285 123,282 126,282 126,285 123,285 123,288 126,288 126,291 129,291 129,288 132,288 132,291 135,291 135,288 132,288 132,285 135,285 135,282 138,282 138,285 135,285 135,288 138,288 138,291 141,291 141,288 144,288 144,291 141,291 141,294 144,294 144,297 141,297 141,300 138,300 138,297 135,297 135,300 138,300 138,303 141,303 141,300 144,300 144,303 147,303 147,300 144,300 144,297 147,297 147,294 150,294 150,297 153,297 153,294 150,294 150,291 147,291 147,294 144,294 144,291 147,291 147,288 144,288 144,285 147,285 147,282 150,282 150,285 153,285 153,282 150,282 150,279 147,279 147,282 144,282 144,279 141,279 141,282 144,282 144,285 141,285 141,288 138,288 138,285 141,285 141,282 138,282 138,279 135,279 135,282 132,282 132,279 135,279 135,276 132,276 132,273 135,273 135,270 138,270 138,273 135,273 135,276 138,276 138,279 141,279 141,276 144,276 144,279 147,279 147,276 144,276 144,273 147,273 147,270 150,270 150,273 153,273 153,270 150,270 150,267 147,267 147,270 144,270 144,267 147,267 147,264 144,264 144,261 147,261 147,258 150,258 150,261 147,261 147,264 150,264 150,267 153,267 153,264 156,264 156,267 159,267 159,264 156,264 156,261 159,261 159,258 162,258 162,261 159,261 159,264 162,264 162,267 165,267 165,264 168,264 168,267 165,267 165,270 168,270 168,273 165,273 165,276 162,276 162,273 165,273 165,270 162,270 162,267 159,267 159,270 156,270 156,267 153,267 153,270 156,270 156,273 153,273 153,276 150,276 150,273 147,273 147,276 150,276 150,279 153,279 153,276 156,276 156,279 153,279 153,282 156,282 156,285 153,285 153,288 150,288 150,285 147,285 147,288 150,288 150,291 153,291 153,288 156,288 156,291 159,291 159,288 156,288 156,285 159,285 159,282 162,282 162,285 159,285 159,288 162,288 162,291 165,291 165,288 168,288 168,291 165,291 165,294 168,294 168,297 165,297 165,300 162,300 162,297 159,297 159,300 162,300 162,303 165,303 165,300 168,300 168,303 171,303 171,300 168,300 168,297 171,297 171,294 174,294 174,297 177,297 177,294 174,294 174,291 171,291 171,294 168,294 168,291 171,291 171,288 168,288 168,285 171,285 171,282 174,282 174,285 171,285 171,288 174,288 174,291 177,291 177,288 180,288 180,291 183,291 183,288 180,288 180,285 183,285 183,282 186,282 186,285 183,285 183,288 186,288 186,291 189,291 189,288 192,288 192,291 189,291 189,294 192,294 192,297 189,297 189,300 186,300 186,297 189,297 189,294 186,294 186,291 183,291 183,294 180,294 180,291 177,291 177,294 180,294 180,297 177,297 177,300 174,300 174,297 171,297 171,300 174,300 174,303 177,303 177,300 180,300 180,303 177,303 177,306 180,306 180,309 177,309 177,312 174,312 174,309 171,309 171,312 174,312 174,315 177,315 177,312 180,312 180,315 183,315 183,312 180,312 180,309 183,309 183,306 186,306 186,309 183,309 183,312 186,312 186,315 189,315 189,312 192,312 192,315 189,315 189,318 192,318 192,321 189,321 189,324 186,324 186,321 189,321 189,318 186,318 186,315 183,315 183,318 180,318 180,315 177,315 177,318 180,318 180,321 177,321 177,324 174,324 174,321 171,321 171,324 174,324 174,327 177,327 177,324 180,324 180,327 177,327 177,330 180,330 180,333 177,333 177,336 174,336 174,333 177,333 177,330 174,330 174,327 171,327 171,330 168,330 168,327 165,327 165,330 168,330 168,333 165,333 165,336 162,336 162,333 165,333 165,330 162,330 162,327 159,327 159,330 156,330 156,327 159,327 159,324 156,324 156,321 159,321 159,318 162,318 162,321 159,321 159,324 162,324 162,327 165,327 165,324 168,324 168,327 171,327 171,324 168,324 168,321 171,321 171,318 174,318 174,321 177,321 177,318 174,318 174,315 171,315 171,318 168,318 168,315 171,315 171,312 168,312 168,309 171,309 171,306 174,306 174,309 177,309 177,306 174,306 174,303 171,303 171,306 168,306 168,303 165,303 165,306 168,306 168,309 165,309 165,312 162,312 162,309 165,309 165,306 162,306 162,303 159,303 159,306 156,306 156,303 159,303 159,300 156,300 156,297 159,297 159,294 162,294 162,297 165,297 165,294 162,294 162,291 159,291 159,294 156,294 156,291 153,291 153,294 156,294 156,297 153,297 153,300 150,300 150,297 147,297 147,300 150,300 150,303 153,303 153,300 156,300 156,303 153,303 153,306 156,306 156,309 153,309 153,312 150,312 150,309 153,309 153,306 150,306 150,303 147,303 147,306 144,306 144,303 141,303 141,306 144,306 144,309 141,309 141,312 138,312 138,309 141,309 141,306 138,306 138,303 135,303 135,306 132,306 132,303 135,303 135,300 132,300 132,297 135,297 135,294 138,294 138,297 141,297 141,294 138,294 138,291 135,291 135,294 132,294 132,291 129,291 129,294 132,294 132,297 129,297 129,300 126,300 126,297 123,297 123,300 126,300 126,303 129,303 129,300 132,300 132,303 129,303 129,306 132,306 132,309 129,309 129,312 126,312 126,309 123,309 123,312 126,312 126,315 129,315 129,312 132,312 132,315 135,315 135,312 132,312 132,309 135,309 135,306 138,306 138,309 135,309 135,312 138,312 138,315 141,315 141,312 144,312 144,315 141,315 141,318 144,318 144,321 141,321 141,324 138,324 138,321 141,321 141,318 138,318 138,315 135,315 135,318 132,318 132,315 129,315 129,318 132,318 132,321 129,321 129,324 126,324 126,321 123,321 123,324 126,324 126,327 129,327 129,324 132,324 132,327 129,327 129,330 132,330 132,333 129,333 129,336 126,336 126,333 129,333 129,330 126,330 126,327 123,327 123,330 120,330 120,327 117,327 117,330 120,330 120,333 117,333 117,336 114,336 114,333 117,333 117,330 114,330 114,327 111,327 111,330 108,330 108,327 111,327 111,324 108,324 108,321 111,321 111,318 114,318 114,321 117,321 117,318 114,318 114,315 111,315 111,318 108,318 108,315 105,315 105,318 108,318 108,321 105,321 105,324 102,324 102,321 99,321 99,324 102,324 102,327 105,327 105,324 108,324 108,327 105,327 105,330 108,330 108,333 105,333 105,336 102,336 102,333 99,333 99,336 102,336 102,339 105,339 105,336 108,336 108,339 111,339 111,336 108,336 108,333 111,333 111,330 114,330 114,333 111,333 111,336 114,336 114,339 117,339 117,336 120,336 120,339 117,339 117,342 120,342 120,345 117,345 117,348 114,348 114,345 111,345 111,348 114,348 114,351 117,351 117,348 120,348 120,351 123,351 123,348 120,348 120,345 123,345 123,342 126,342 126,345 129,345 129,342 126,342 126,339 123,339 123,342 120,342 120,339 123,339 123,336 120,336 120,333 123,333 123,330 126,330 126,333 123,333 123,336 126,336 126,339 129,339 129,336 132,336 132,339 135,339 135,336 132,336 132,333 135,333 135,330 138,330 138,333 135,333 135,336 138,336 138,339 141,339 141,336 144,336 144,339 141,339 141,342 144,342 144,345 141,345 141,348 138,348 138,345 141,345 141,342 138,342 138,339 135,339 135,342 132,342 132,339 129,339 129,342 132,342 132,345 129,345 129,348 126,348 126,345 123,345 123,348 126,348 126,351 129,351 129,348 132,348 132,351 129,351 129,354 132,354 132,357 129,357 129,360 126,360 126,357 123,357 123,360 126,360 126,363 129,363 129,360 132,360 132,363 135,363 135,360 132,360 132,357 135,357 135,354 138,354 138,357 135,357 135,360 138,360 138,363 141,363 141,360 144,360 144,363 141,363 141,366 144,366 144,369 141,369 141,372 138,372 138,369 141,369 141,366 138,366 138,363 135,363 135,366 132,366 132,363 129,363 129,366 132,366 132,369 129,369 129,372 126,372 126,369 123,369 123,372 126,372 126,375 129,375 129,372 132,372 132,375 129,375 129,378 132,378 132,381 129,381 129,384 126,384 126,381 129,381 129,378 126,378 126,375 123,375 123,378 120,378 120,375 117,375 117,378 120,378 120,381 117,381 117,384 114,384 114,381 117,381 117,378 114,378 114,375 111,375 111,378 108,378 108,375 111,375 111,372 108,372 108,369 111,369 111,366 114,366 114,369 111,369 111,372 114,372 114,375 117,375 117,372 120,372 120,375 123,375 123,372 120,372 120,369 123,369 123,366 126,366 126,369 129,369 129,366 126,366 126,363 123,363 123,366 120,366 120,363 123,363 123,360 120,360 120,357 123,357 123,354 126,354 126,357 129,357 129,354 126,354 126,351 123,351 123,354 120,354 120,351 117,351 117,354 120,354 120,357 117,357 117,360 114,360 114,357 117,357 117,354 114,354 114,351 111,351 111,354 108,354 108,351 111,351 111,348 108,348 108,345 111,345 111,342 114,342 114,345 117,345 117,342 114,342 114,339 111,339 111,342 108,342 108,339 105,339 105,342 108,342 108,345 105,345 105,348 102,348 102,345 99,345 99,348 102,348 102,351 105,351 105,348 108,348 108,351 105,351 105,354 108,354 108,357 105,357 105,360 102,360 102,357 105,357 105,354 102,354 102,351 99,351 99,354 96,354 96,351 93,351 93,354 96,354 96,357 93,357 93,360 90,360 90,357 93,357 93,354 90,354 90,351 87,351 87,354 84,354 84,351 87,351 87,348 84,348 84,345 87,345 87,342 90,342 90,345 93,345 93,342 90,342 90,339 87,339 87,342 84,342 84,339 81,339 81,342 84,342 84,345 81,345 81,348 78,348 78,345 75,345 75,348 78,348 78,351 81,351 81,348 84,348 84,351 81,351 81,354 84,354 84,357 81,357 81,360 78,360 78,357 75,357 75,360 78,360 78,363 81,363 81,360 84,360 84,363 87,363 87,360 84,360 84,357 87,357 87,354 90,354 90,357 87,357 87,360 90,360 90,363 93,363 93,360 96,360 96,363 93,363 93,366 96,366 96,369 93,369 93,372 90,372 90,369 93,369 93,366 90,366 90,363 87,363 87,366 84,366 84,363 81,363 81,366 84,366 84,369 81,369 81,372 78,372 78,369 75,369 75,372 78,372 78,375 81,375 81,372 84,372 84,375 81,375 81,378 84,378 84,381 81,381 81,384 78,384 78,381 81,381 81,378 78,378 78,375 75,375 75,378 72,378 72,375 69,375 69,378 72,378 72,381 69,381 69,384 66,384 66,381 69,381 69,378 66,378 66,375 63,375 63,378 60,378 60,375 63,375 63,372 60,372 60,369 63,369 63,366 66,366 66,369 63,369 63,372 66,372 66,375 69,375 69,372 72,372 72,375 75,375 75,372 72,372 72,369 75,369 75,366 78,366 78,369 81,369 81,366 78,366 78,363 75,363 75,366 72,366 72,363 75,363 75,360 72,360 72,357 75,357 75,354 78,354 78,357 81,357 81,354 78,354 78,351 75,351 75,354 72,354 72,351 69,351 69,354 72,354 72,357 69,357 69,360 66,360 66,357 69,357 69,354 66,354 66,351 63,351 63,354 60,354 60,351 63,351 63,348 60,348 60,345 63,345 63,342 66,342 66,345 69,345 69,342 66,342 66,339 63,339 63,342 60,342 60,339 57,339 57,342 60,342 60,345 57,345 57,348 54,348 54,345 51,345 51,348 54,348 54,351 57,351 57,348 60,348 60,351 57,351 57,354 60,354 60,357 57,357 57,360 54,360 54,357 57,357 57,354 54,354 54,351 51,351 51,354 48,354 48,351 45,351 45,354 48,354 48,357 45,357 45,360 42,360 42,357 45,357 45,354 42,354 42,351 39,351 39,354 36,354 36,351 39,351 39,348 36,348 36,345 39,345 39,342 42,342 42,345 39,345 39,348 42,348 42,351 45,351 45,348 48,348 48,351 51,351 51,348 48,348 48,345 51,345 51,342 54,342 54,345 57,345 57,342 54,342 54,339 51,339 51,342 48,342 48,339 51,339 51,336 48,336 48,333 51,333 51,330 54,330 54,333 57,333 57,330 54,330 54,327 51,327 51,330 48,330 48,327 45,327 45,330 48,330 48,333 45,333 45,336 42,336 42,333 45,333 45,330 42,330 42,327 39,327 39,330 36,330 36,327 39,327 39,324 36,324 36,321 39,321 39,318 42,318 42,321 39,321 39,324 42,324 42,327 45,327 45,324 48,324 48,327 51,327 51,324 48,324 48,321 51,321 51,318 54,318 54,321 57,321 57,318 54,318 54,315 51,315 51,318 48,318 48,315 51,315 51,312 48,312 48,309 51,309 51,306 54,306 54,309 51,309 51,312 54,312 54,315 57,315 57,312 60,312 60,315 63,315 63,312 60,312 60,309 63,309 63,306 66,306 66,309 63,309 63,312 66,312 66,315 69,315 69,312 72,312 72,315 69,315 69,318 72,318 72,321 69,321 69,324 66,324 66,321 "/>
</svg>
