<?xml version="1.0" encoding="iso-8859-1"?>
<!DOCTYPE svg PUBLIC "-//W3C//DTD SVG 1.1//EN"
 "http://www.w3.org/Graphics/SVG/1.1/DTD/svg11.dtd">
<svg xmlns="http://www.w3.org/2000/svg" version="1.1" width="393pt" height="12pt" viewBox="0 0 393 12">
  <polyline fill="none" stroke="black" points="
3,6 6,6 6,9 9,9 9,6 12,6 12,3 15,3 15,6 18,6 18,3 21,3 21,6 24,6 24,9 27,9 27,6 30,6 30,3 33,3 33,6 36,6 36,9 39,9 39,6 42,6 42,9 45,9 45,6 48,6 48,3 51,3 51,6 54,6 54,3 57,3 57,6 60,6 60,9 63,9 63,6 66,6 66,9 69,9 69,6 72,6 72,3 75,3 75,6 78,6 78,9 81,9 81,6 84,6 84,3 87,3 87,6 90,6 90,3 93,3 93,6 96,6 96,9 99,9 99,6 102,6 102,3 105,3 105,6 108,6 108,9 111,9 111,6 114,6 114,9 117,9 117,6 120,6 120,3 123,3 123,6 126,6 126,9 129,9 129,6 132,6 132,3 135,3 135,6 138,6 138,3 141,3 141,6 144,6 144,9 147,9 147,6 150,6 150,9 153,9 153,6 156,6 156,3 159,3 159,6 162,6 162,3 165,3 165,6 168,6 168,9 171,9 171,6 174,6 174,3 177,3 177,6 180,6 180,9 183,9 183,6 186,6 186,9 189,9 189,6 192,6 192,3 195,3 195,6 198,6 198,3 201,3 201,6 204,6 204,9 207,9 207,6 210,6 210,9 213,9 213,6 216,6 216,3 219,3 219,6 222,6 222,9 225,9 225,6 228,6 228,3 231,3 231,6 234,6 234,3 237,3 237,6 240,6 240,9 243,9 243,6 246,6 246,9 249,9 249,6 252,6 252,3 255,3 255,6 258,6 258,3 261,3 261,6 264,6 264,9 267,9 267,6 270,6 270,3 273,3 273,6 276,6 276,9 279,9 279,6 282,6 282,9 285,9 285,6 288,6 288,3 291,3 291,6 294,6 294,9 297,9 297,6 300,6 300,3 303,3 303,6 306,6 306,3 309,3 309,6 312,6 312,9 315,9 315,6 318,6 318,3 321,3 321,6 324,6 324,9 327,9 327,6 330,6 330,9 333,9 333,6 336,6 336,3 339,3 339,6 342,6 342,3 345,3 345,6 348,6 348,9 351,9 351,6 354,6 354,9 357,9 357,6 360,6 360,3 363,3 363,6 366,6 366,9 369,9 369,6 372,6 372,3 375,3 375,6 378,6 378,3 381,3 381,6 384,6 384,9 387,9 387,6 390,6 "/>
</svg>
