<?xml version="1.0" encoding="utf-8"?>
<!-- Generator: Adobe Illustrator 14.0.0, SVG Export Plug-In . SVG Version: 6.00 Build 43363)  -->
<!DOCTYPE svg PUBLIC "-//W3C//DTD SVG 1.1//EN" "http://www.w3.org/Graphics/SVG/1.1/DTD/svg11.dtd">
<svg version="1.1" id="Layer_1" xmlns="http://www.w3.org/2000/svg" xmlns:xlink="http://www.w3.org/1999/xlink" x="0px" y="0px"
	 width="396px" height="396px" viewBox="0 0 396 396" enable-background="new 0 0 396 396" xml:space="preserve">
<polygon opacity="0.5" fill="#FEC200" stroke="#000000" points="153,387 9,243 81,81 270,126 315,315 "/>
<path fill="none" stroke="#000000" stroke-dasharray="2,2" d="M270,126"/>
<line fill="none" stroke="#000000" stroke-dasharray="2,2" x1="270" y1="126" x2="9" y2="387"/>
<line fill="none" stroke="#000000" stroke-dasharray="2,2" x1="81" y1="81" x2="315" y2="315"/>
<line fill="none" stroke="#000000" x1="315" y1="315" x2="387" y2="387"/>
<line fill="none" stroke="#000000" x1="270" y1="126" x2="387" y2="9"/>
<line fill="none" stroke="#000000" x1="81" y1="81" x2="9" y2="9"/>
<path fill="none" stroke="#000000" stroke-dasharray="2,2" d="M9,243"/>
<polygon opacity="0.5" fill="#0081CD" points="9,243 9,9 387,9 387,387 153,387 315,315 270,126 81,81 "/>
<path fill="#0081CD" d="M9,9"/>
<line fill="none" stroke="#000000" x1="270" y1="126" x2="387" y2="9"/>
<line fill="none" stroke="#000000" x1="315" y1="315" x2="387" y2="387"/>
<line fill="none" stroke="#000000" x1="81" y1="81" x2="9" y2="9"/>
<polyline fill="none" stroke="#000000" points="9,243 9,9 387,9 387,387 153,387 "/>
<polyline fill="none" stroke="#000000" stroke-dasharray="2,2" points="9,243 9,387 153,387 "/>
</svg>
