<svg xmlns="http://www.w3.org/2000/svg" width="990" height="954"><g fill="#7FC0E6"><circle cx="153" cy="477" r="144"/><circle cx="324" cy="773.2" r="144"/><circle cx="666" cy="773.2" r="144"/><circle cx="837" cy="477" r="144"/><circle cx="666" cy="180.8" r="144"/><circle cx="324" cy="180.8" r="144"/></g><g fill="#FEC200"><circle cx="360" cy="477" r="45"/><circle cx="630" cy="477" r="45"/></g><g fill="#FFECB2"><circle cx="399.5" cy="572.5" r="45"/><circle cx="495" cy="612" r="45"/><circle cx="590.5" cy="572.5" r="45"/><circle cx="590.5" cy="381.5" r="45"/><circle cx="495" cy="342" r="45"/><circle cx="399.5" cy="381.5" r="45"/></g><g fill="none" stroke="#000" stroke-width="2"><path d="M171 549h-36l18-72 54 36-36 36-18-72m-18 72L27 477"/><path d="M153 477l54 108h-54V477m0 108H99l54-108M99 585L27 477m126 0l54-36-36-36-18 72"/><path d="M171 405h-36l18 72m-18-72L27 477"/><path d="M153 477l54-108h-54v108m0-108H99l54 108M99 369L27 477m368.4 316.6l-18 31.2-53.4-51.6 58.2-28.8 13.2 49.2-71.4-20.4m53.4 51.6L261 882.3"/><path d="M324 773.2l120.5 7.2-27 46.8-93.5-54"/><path d="M417.5 827.2l-27 46.7L324 773.2m66.5 100.7L261 882.3m63-109.1l-4.2-64.8-49.2 13.2 53.4 51.6"/><path d="M270.6 721.6l-18 31.2 71.4 20.4m-71.4-20.4l8.4 129.5"/><path d="M324 773.2l-66.5-100.8-27 46.8 93.5 54"/><path d="M230.5 719.2l-27 46.7 120.5 7.3m-120.5-7.3L261 882.3m458.4-160.7l18 31.2-71.4 20.4 4.2-64.8 49.2 13.2-53.4 51.6m71.4-20.4L729 882.3"/><path d="M666 773.2l66.5-100.8 27 46.8-93.5 54"/><path d="M759.5 719.2l27 46.7-120.5 7.3m120.5-7.3L729 882.3m-63-109.1l-58.2-28.8-13.2 49.2 71.4-20.4m-71.4 20.4l18 31.2 53.4-51.6m-53.4 51.6L729 882.3"/><path d="M666 773.2l-120.5 7.2 27 46.8 93.5-54m-93.5 54l27 46.7L666 773.2m-66.5 100.7l129.5 8.4M819 405h36l-18 72-54-36 36-36 18 72m18-72l108 72"/><path d="M837 477l-54-108h54v108m0-108h54l-54 108m54-108l72 108m-126 0l-54 36 36 36 18-72m-18 72h36l-18-72m18 72l108-72"/><path d="M837 477l-54 108h54V477m0 108h54l-54-108m54 108l72-108M594.6 160.4l18-31.2 53.4 51.6-58.2 28.8-13.2-49.2 71.4 20.4m-53.4-51.6L729 71.7"/><path d="M666 180.8l-120.5-7.2 27-46.8 93.5 54m-93.5-54l27-46.7L666 180.8M599.5 80.1L729 71.7m-63 109.1l4.2 64.8 49.2-13.2-53.4-51.6"/><path d="M719.4 232.4l18-31.2-71.4-20.4m71.4 20.4L729 71.7"/><path d="M666 180.8l66.5 100.8 27-46.8-93.5-54"/><path d="M759.5 234.8l27-46.7-120.5-7.3m120.5 7.3L729 71.7M270.6 232.4l-18-31.2 71.4-20.4-4.2 64.8-49.2-13.2 53.4-51.6m-71.4 20.4L261 71.7"/><path d="M324 180.8l-66.5 100.8-27-46.8 93.5-54"/><path d="M230.5 234.8l-27-46.7 120.5-7.3m-120.5 7.3L261 71.7m63 109.1l58.2 28.8 13.2-49.2-71.4 20.4m71.4-20.4l-18-31.2-53.4 51.6m53.4-51.6L261 71.7"/><path d="M324 180.8l120.5-7.2-27-46.8-93.5 54m93.5-54l-27-46.7L324 180.8m66.5-100.7L261 71.7"/><circle cx="495" cy="477" r="468"/><path d="M257.5 672.4L360 477l-153-36m153 36L257.5 281.6"/><path d="M319.8 708.4l79.7-135.9L207 585m0-216l192.5 12.5-79.7-135.9m124.7-72L495 342l50.5-168.4m124.7 72l-79.7 135.9L783 369"/><path d="M732.5 281.6L630 477l153 36m-153-36l102.5 195.4m-142-99.9l79.7 135.9M783 585l-192.5-12.5S513 461.9 382.2 522 207 513 207 513"/><path d="M399.5 381.6s77.5 110.6 208.3 50.5 175.2 9 175.2 9M545.5 780.4L495 612l-50.5 168.4"/><path d="M399.5 572.5S512.8 426 540 369s67.8-159.4 67.8-159.4M590.5 382S477.2 528.5 450 585.5c-27.1 57-67.8 159.4-67.8 159.4"/><path d="M495 342s31.3 206.2 45 248.7c23.5 72.7 67.8 153.7 67.8 153.7M495 612.5s-31.3-206.2-45-248.7c-23.5-72.7-67.8-153.7-67.8-153.7"/></g><g stroke="#000"><g fill="#BC1E46"><circle cx="207" cy="441" r="9"/><circle cx="171" cy="405" r="9"/><circle cx="135" cy="405" r="9"/><circle cx="153" cy="477" r="9"/><circle cx="27" cy="477" r="9"/><circle cx="257.5" cy="672.4" r="9"/><circle cx="230.5" cy="719.2" r="9"/><circle cx="203.5" cy="765.9" r="9"/><circle cx="324" cy="773.2" r="9"/><circle cx="261" cy="882.3" r="9"/><circle cx="732.5" cy="672.4" r="9"/><circle cx="759.5" cy="719.2" r="9"/><circle cx="786.5" cy="765.9" r="9"/><circle cx="666" cy="773.2" r="9"/><circle cx="729" cy="882.3" r="9"/><circle cx="783" cy="513" r="9"/><circle cx="819" cy="549" r="9"/><circle cx="855" cy="549" r="9"/><circle cx="837" cy="477" r="9"/><circle cx="963" cy="477" r="9"/><circle cx="732.5" cy="281.6" r="9"/><circle cx="759.5" cy="234.8" r="9"/><circle cx="786.5" cy="188.1" r="9"/><circle cx="666" cy="180.8" r="9"/><circle cx="729" cy="71.7" r="9"/><circle cx="257.5" cy="281.6" r="9"/><circle cx="230.5" cy="234.8" r="9"/><circle cx="203.5" cy="188.1" r="9"/><circle cx="324" cy="180.8" r="9"/><circle cx="261" cy="71.7" r="9"/><circle cx="360" cy="477" r="9"/><circle cx="630" cy="477" r="9"/></g><g fill="#EEC6D0"><circle cx="207" cy="513" r="9"/><circle cx="171" cy="549" r="9"/><circle cx="135" cy="549" r="9"/><circle cx="207" cy="585" r="9"/><circle cx="153" cy="585" r="9"/><circle cx="99" cy="585" r="9"/><circle cx="207" cy="369" r="9"/><circle cx="153" cy="369" r="9"/><circle cx="99" cy="369" r="9"/><circle cx="382.2" cy="744.4" r="9"/><circle cx="395.4" cy="793.6" r="9"/><circle cx="377.4" cy="824.8" r="9"/><circle cx="444.5" cy="780.4" r="9"/><circle cx="417.5" cy="827.2" r="9"/><circle cx="390.5" cy="873.9" r="9"/><circle cx="319.8" cy="708.4" r="9"/><circle cx="270.6" cy="721.6" r="9"/><circle cx="252.6" cy="752.8" r="9"/><circle cx="670.2" cy="708.4" r="9"/><circle cx="719.4" cy="721.6" r="9"/><circle cx="737.4" cy="752.8" r="9"/><circle cx="607.8" cy="744.4" r="9"/><circle cx="594.6" cy="793.6" r="9"/><circle cx="612.6" cy="824.8" r="9"/><circle cx="545.5" cy="780.4" r="9"/><circle cx="572.5" cy="827.2" r="9"/><circle cx="599.5" cy="873.9" r="9"/><circle cx="783" cy="441" r="9"/><circle cx="819" cy="405" r="9"/><circle cx="855" cy="405" r="9"/><circle cx="783" cy="369" r="9"/><circle cx="837" cy="369" r="9"/><circle cx="891" cy="369" r="9"/><circle cx="783" cy="585" r="9"/><circle cx="837" cy="585" r="9"/><circle cx="891" cy="585" r="9"/><circle cx="607.8" cy="209.6" r="9"/><circle cx="594.6" cy="160.4" r="9"/><circle cx="612.6" cy="129.2" r="9"/><circle cx="545.5" cy="173.6" r="9"/><circle cx="572.5" cy="126.8" r="9"/><circle cx="599.5" cy="80.1" r="9"/><circle cx="670.2" cy="245.6" r="9"/><circle cx="719.4" cy="232.4" r="9"/><circle cx="737.4" cy="201.2" r="9"/><circle cx="319.8" cy="245.6" r="9"/><circle cx="270.6" cy="232.4" r="9"/><circle cx="252.6" cy="201.2" r="9"/><circle cx="382.2" cy="209.6" r="9"/><circle cx="395.4" cy="160.4" r="9"/><circle cx="377.4" cy="129.2" r="9"/><circle cx="444.5" cy="173.6" r="9"/><circle cx="417.5" cy="126.8" r="9"/><circle cx="390.5" cy="80.1" r="9"/><circle cx="399.5" cy="572.5" r="9"/><circle cx="495" cy="612" r="9"/><circle cx="590.5" cy="572.5" r="9"/><circle cx="590.5" cy="381.5" r="9"/><circle cx="495" cy="342" r="9"/><circle cx="399.5" cy="381.5" r="9"/></g></g></svg>