<svg xmlns="http://www.w3.org/2000/svg" width="468" height="378"><path fill="#7FC0E6" d="M54.5 368.5v-162H27c-9.6 0-17.5-7.9-17.5-17.5s7.9-17.5 17.5-17.5h27.5V9.5h359v162H441c9.6 0 17.5 7.9 17.5 17.5s-7.9 17.5-17.5 17.5h-27.5v162h-359zm359-170H441c5.2 0 9.5-4.3 9.5-9.5s-4.3-9.5-9.5-9.5h-27.5v19zM27 179.5c-5.2 0-9.5 4.3-9.5 9.5s4.3 9.5 9.5 9.5h27.5v-19H27z"/><path d="M413 10v162h28c9.4 0 17 7.6 17 17s-7.6 17-17 17h-28v162H55V206H27c-9.4 0-17-7.6-17-17s7.6-17 17-17h28V10h358m0 189h28c5.5 0 10-4.5 10-10s-4.5-10-10-10h-28v20m-386 0h28v-20H27c-5.5 0-10 4.5-10 10s4.5 10 10 10M414 9H54v162H27c-9.9 0-18 8.1-18 18s8.1 18 18 18h27v162h360V207h27c9.9 0 18-8.1 18-18s-8.1-18-18-18h-27V9zm0 189v-18h27c5 0 9 4 9 9s-4 9-9 9h-27zm-387 0c-5 0-9-4-9-9s4-9 9-9h27v18H27z"/><g fill="none" stroke="#BC1E46" stroke-linejoin="bevel"><path d="M144 9L54 369M414 9l-90 360m90-180l-90 180 90-135m0 45l-90 90 90-45m0-180l-90 225 90-270m0-45l-90 315L369 9m-36 0l-9 360L288 9m-45 0l81 360L198 9M54 324L144 9 54 279m0-45L144 9 54 189m0-45L144 9 54 99"/><path d="M54 54l90-45-45 360m45 0V9l45 360m45 0L144 9l135 360"/><path stroke-width="3" d="M324 369L144 9"/></g></svg>