<svg xmlns="http://www.w3.org/2000/svg" width="828" height="369"><g stroke="#000" fill="#7FC0E6"><path d="M27 243l144-126m-144 0l144 126m-144 0V117l72-90 72 90v126m432 0V117l72-90 72 90v126M315 117l144 126m-144 0V117l72-90 72 90m-73 270h1v4h-1z" fill="none"/><circle cx="99" cy="27" r="18"/><circle cx="27" cy="117" r="18"/><circle cx="171" cy="117" r="18"/><circle cx="27" cy="243" r="18"/><circle cx="171" cy="243" r="18"/><circle cx="675" cy="27" r="18"/><circle cx="603" cy="117" r="18"/><circle cx="747" cy="117" r="18"/><circle cx="603" cy="243" r="18"/><circle cx="747" cy="243" r="18"/><circle cx="387" cy="27" r="18"/><circle cx="315" cy="117" r="18"/><circle cx="459" cy="117" r="18"/><circle cx="315" cy="243" r="18"/><circle cx="459" cy="243" r="18"/></g><g font-family="Times,serif" font-size="36"><g font-style="italic"><text transform="translate(91.995 36)">s</text><text transform="translate(18 126)">a</text><text transform="translate(162 126)">b</text><text transform="translate(19.01 252)">c</text><text transform="translate(162 252)">d</text><text transform="translate(667.995 36)">s</text><text transform="translate(594 126)">a</text><text transform="translate(738 126)">b</text><text transform="translate(595.01 252)">c</text><text transform="translate(738 252)">d</text><text transform="translate(379.995 36)">s</text><text transform="translate(306 126)">a</text><text transform="translate(450 126)">b</text><text transform="translate(307.01 252)">c</text><text transform="translate(450 252)">d</text></g><text transform="translate(68.244 315)"><tspan x="0" y="0" font-style="italic">K</tspan><tspan x="24" y="8" font-size="30">2,3</tspan></text><text transform="translate(298.037 314)"><tspan x="0" y="0">breadth-first</tspan><tspan x="42.5" y="43.2">from </tspan><tspan x="121.4" y="43.2" font-style="italic">s</tspan></text><text transform="translate(576.51 314)"><tspan x="0" y="0">shortest paths</tspan><tspan x="-45.5" y="43.2">but not breadth-first</tspan></text></g></svg>