<svg xmlns="http://www.w3.org/2000/svg" width="558" height="594"><g fill="none" stroke-width="6"><path stroke="#FEC200" d="M9 9v576"/><path stroke="#7FC0E6" d="M9 144h342M9 36h144M9 117h522M9 567h477M9 513h252M9 225h171M9 261h72M9 450h108"/><path stroke="#BC1E46" d="M153 36l378 81-45 450-135-423-90 369-81-288-63 225-36-189"/></g><g fill="#BC1E46" stroke="#000"><circle cx="153" cy="36" r="18"/><circle cx="531" cy="117" r="18"/><circle cx="351" cy="144" r="18"/><circle cx="180" cy="225" r="18"/><circle cx="81" cy="261" r="18"/><circle cx="117" cy="450" r="18"/><circle cx="261" cy="513" r="18"/><circle cx="486" cy="567" r="18"/></g></svg>