<svg xmlns="http://www.w3.org/2000/svg" width="819" height="612"><path d="M207.3 306c-5.7 2.1-12.7 5.7-17.1 9.5l3.4-9.5-3.4-9.5c4.4 3.8 11.4 7.4 17.1 9.5zM258 178.9c.6 6 2.3 13.8 4.9 18.9l-8.3-5.7-10.1.9c4.8-3.2 10-9.1 13.5-14.1zm96.4-109.5c-2.5 5.5-4.8 13.1-5.2 18.9l-4.4-9.1-9.2-4.2c5.8-.5 13.3-3 18.8-5.6zM267 432.3c-.5-6-2.2-13.8-4.7-19l8.3 5.8 10.1-.8c-4.9 3.2-10.2 9.1-13.7 14zM354.4 541c-5.5-2.5-13-5-18.8-5.4l9.2-4.3 4.3-9.2c.4 5.9 2.8 13.4 5.3 18.9zM508.1 35.1c.6 6 2.2 13.8 4.8 19l-8.3-5.8-10.1.9c4.8-3.3 10.1-9.2 13.6-14.1zm4.9 541c-2.1-5.7-5.7-12.7-9.5-17.1l9.5 3.4 9.5-3.4c-3.8 4.4-7.4 11.5-9.5 17.1zm125.8-16.3c-4.9 3.5-10.8 8.8-14 13.7l.8-10.1-5.8-8.3c5.3 2.5 13 4.1 19 4.7zm110.4-96.5c-2.5 5.5-5 13-5.4 18.8l-4.3-9.2-9.2-4.3c5.8-.3 13.4-2.7 18.9-5.3zm-87.5-389c3.5 4.9 8.8 10.8 13.6 14l-10.1-.9-8.3 5.8c2.6-5.1 4.3-12.9 4.8-18.9zm87.5 74.4c-5.5-2.5-13-5-18.8-5.4l9.2-4.3 4.3-9.2c.3 5.8 2.8 13.4 5.3 18.9zm47.4 140.6c-3.5-4.9-8.8-10.8-13.6-14l10.1.9 8.3-5.8c-2.6 5.1-4.3 12.8-4.8 18.9z"/><g stroke="#000"><path d="M9 306h186.2m29.8 0l29.9-115.4m8.7-28.6L346 78m23-21.4l-98.9 364m-6.5 29.4l82.3 82.4m23.1 23L505 46.7m8-28.7v546.1m0 29.9l114.2-31m29.8-7.6l83.6-83.5m21.8-21.9L664.9 86M657 56.6l83.6 83.5m21.8 21.9l31.1 115.6" fill="none"/><g fill="#BC1E46"><circle cx="263.6" cy="162" r="9"/><circle cx="225" cy="306" r="9"/><circle cx="369" cy="555.4" r="9"/><circle cx="762.4" cy="450" r="9"/><circle cx="762.4" cy="162" r="9"/></g><g fill="#7FC0E6"><circle cx="513" cy="18" r="9"/><circle cx="369" cy="56.6" r="9"/><circle cx="263.6" cy="450" r="9"/><circle cx="513" cy="594" r="9"/><circle cx="657" cy="555.4" r="9"/><circle cx="801" cy="306" r="9"/><circle cx="657" cy="56.6" r="9"/></g></g></svg>