<svg xmlns="http://www.w3.org/2000/svg" width="819" height="612"><path d="M354.4 542.6c-5.5-2.6-13-5.1-18.8-5.5l9.2-4.2 4.4-9.1c.4 5.7 2.7 13.3 5.2 18.8zM360 71.9c-1 6-1.4 13.9-.3 19.6l-6.5-7.7-10-1.8c5.5-2 12.1-6.3 16.8-10.1zm-87.4 358.8c-.6-6-2.3-13.7-4.9-18.9l8.4 5.7 10.1-1c-4.9 3.3-10.2 9.2-13.6 14.2zm235.5-394c.6 6 2.2 13.8 4.8 19l-8.3-5.8-10.1.9c4.8-3.3 10.1-9.2 13.6-14.1zm4.9 537.8c-2.1-5.7-5.7-12.7-9.5-17.1l9.5 3.4 9.5-3.4c-3.8 4.4-7.4 11.4-9.5 17.1zm273-254.2c-2.5 5.5-4.9 13-5.3 18.8l-4.3-9.2-9.2-4.3c5.7-.3 13.3-2.8 18.8-5.3zM207.3 306c-5.7 2.1-12.7 5.7-17.1 9.5l3.4-9.5-3.4-9.5c4.4 3.8 11.4 7.4 17.1 9.5z"/><g stroke="#000"><path d="M263.6 450l82.4 84M225 306L354 82.3m15-25.7L275.6 419M369 555.4l135.9-507M513 18v544.4m0 31.6l264.4-265.1M9 306h186.2" fill="none"/><g fill="#BC1E46"><circle cx="225" cy="306" r="9"/><circle cx="369" cy="555.4" r="9"/></g><g fill="#7FC0E6"><circle cx="513" cy="18" r="9"/><circle cx="369" cy="56.6" r="9"/><circle cx="263.6" cy="450" r="9"/><circle cx="513" cy="594" r="9"/><circle cx="801" cy="306" r="9"/></g><g fill="#FEC200"><circle cx="263.6" cy="162" r="9"/><circle cx="762.4" cy="450" r="9"/><circle cx="762.4" cy="162" r="9"/><circle cx="657" cy="555.4" r="9"/><circle cx="657" cy="56.6" r="9"/></g></g></svg>