<svg xmlns="http://www.w3.org/2000/svg" width="1035" height="801"><path fill="#FFE07F" d="M828 99h153v45H828V99zm-99-27h99v72h-99V72zM423 54h306v90H423V54zm-36 9h36v81h-36V63zM189 18h198v126H189V18zM72 45h117v99H72V45z"/><path fill="none" stroke="#000" d="M828 99h153v45H828V99zm-99-27h99v72h-99V72zM423 54h306v90H423V54zm-36 9h36v81h-36V63zM189 18h198v126H189V18zM72 45h117v99H72V45z"/><path fill="none" stroke="#BC1E46" stroke-width="2" d="M0 116h1008M72 0v288"/><path fill="#7FC0E6" d="M297 144h234v81H297v-81zm-225 0h225v45H72v-45z"/><path fill="none" stroke="#000" d="M297 144h234v81H297v-81zm-225 0h225v45H72v-45z"/><path fill="none" stroke="#BC1E46" stroke-width="2" d="M531 288V0M0 144h1008M0 162h1008"/><path fill="#FFE07F" d="M873 630h153v18H873v-18zm-108-27h99v45h-99v-45zm-315-18h306v63H450v-63zm-45 9h36v54h-36v-54zm-207-45h198v99H198v-99zM72 576h117v72H72v-72z"/><path fill="none" stroke="#000" d="M873 630h153v18H873v-18zm-108-27h99v45h-99v-45zm-315-18h306v63H450v-63zm-45 9h36v54h-36v-54zm-207-45h198v99H198v-99zM72 576h117v72H72v-72z"/><path fill="#7FC0E6" d="M306 729h234v63H306v-63zm-234 0h225v27H72v-27z"/><path fill="none" stroke="#000" d="M306 729h234v63H306v-63zm-234 0h225v27H72v-27z"/><path fill="none" stroke="#CCC" stroke-width="40" d="M531 352.8v83.7"/><path fill="#CCC" d="M531 496.8c-10.6-28.3-28.5-63.7-47.5-85.4l47.5 17.3 47.5-17.3c-19 21.7-36.9 57.1-47.5 85.4z"/><path fill="#FFE07F" d="M72 666h459v27H72z"/><path fill="#7FC0E6" d="M72 693h459v18H72z"/><path fill="none" stroke="#000" d="M72 666h459v45H72z"/><path fill="#DD8EA2" d="M540 666h450v27H540z"/><path fill="none" stroke="#000" d="M540 666h450v27H540z"/></svg>