<svg xmlns="http://www.w3.org/2000/svg" width="657" height="837"><path fill="#FEC200" stroke="#000" d="M9 18h108v306H9zm108 9h306v297H117zM423 9h224v315H423z"/><path opacity=".8" fill="#BC1E46" stroke="#000" d="M9 54h333v270H9zm333-9h252v279H342z"/><path fill="#7FC0E6" stroke="#000" d="M424 513v18H118v-9H10v36h332v-9h252v279h54V513z"/><path fill="none" stroke="#000" d="M118 531v27m224-9v-18m82 0v18m170 0v-36"/><path fill="none" stroke="#CCC" stroke-width="25" d="M330.3 378v52.3"/><path fill="#CCC" d="M330.3 468c-6.6-17.7-17.8-39.8-29.7-53.4l29.7 10.8 29.7-10.8c-11.9 13.6-23.1 35.7-29.7 53.4z"/></svg>