<svg xmlns="http://www.w3.org/2000/svg" width="1224" height="1053"><g fill="none" stroke="#0081CD"><path d="M1206 756c0 159.1-128.9 288-288 288S630 915.1 630 756"/><path d="M1188 756c0 149.1-120.9 270-270 270S648 905.1 648 756"/><path d="M1170 756c0 139.2-112.8 252-252 252S666 895.2 666 756"/><path d="M1152 756c0 129.2-104.8 234-234 234S684 885.2 684 756"/><path d="M1134 756c0 119.3-96.7 216-216 216s-216-96.7-216-216"/><path d="M1116 756c0 109.4-88.6 198-198 198s-198-88.6-198-198"/><path d="M1026 756c0 59.6-48.4 108-108 108s-108-48.4-108-108"/><path d="M1098 756c0 99.4-80.6 180-180 180s-180-80.6-180-180"/><path d="M1080 756c0 89.5-72.5 162-162 162s-162-72.5-162-162"/><path d="M1044 756c0 69.6-56.4 126-126 126s-126-56.4-126-126"/><path d="M1008 756c0 49.7-40.3 90-90 90s-90-40.3-90-90"/><path d="M990 756c0 39.8-32.2 72-72 72s-72-32.2-72-72"/><path d="M972 756c0 29.8-24.2 54-54 54s-54-24.2-54-54"/><path d="M954 756c0 19.9-16.1 36-36 36s-36-16.1-36-36"/><path d="M936 756c0 9.9-8.1 18-18 18s-18-8.1-18-18m-576 .3c0-159.1 128.9-288 288-288s288 128.9 288 288"/><path d="M342 756.3c0-149.1 120.9-270 270-270s270 120.9 270 270"/><path d="M360 756.3c0-139.2 112.8-252 252-252s252 112.8 252 252"/><path d="M378 756.3c0-129.2 104.8-234 234-234s234 104.8 234 234"/><path d="M396 756.3c0-119.3 96.7-216 216-216s216 96.7 216 216"/><path d="M414 756.3c0-109.4 88.6-198 198-198s198 88.6 198 198"/><path d="M504 756.3c0-59.6 48.4-108 108-108s108 48.4 108 108"/><path d="M432 756.3c0-99.4 80.6-180 180-180s180 80.6 180 180"/><path d="M450 756.3c0-89.5 72.5-162 162-162s162 72.5 162 162"/><path d="M486 756.3c0-69.6 56.4-126 126-126s126 56.4 126 126"/><path d="M522 756.3c0-49.7 40.3-90 90-90s90 40.3 90 90"/><path d="M540 756.3c0-39.8 32.2-72 72-72s72 32.2 72 72"/><path d="M558 756.3c0-29.8 24.2-54 54-54s54 24.2 54 54"/><path d="M576 756.3c0-19.9 16.1-36 36-36s36 16.1 36 36"/><path d="M594 756.3c0-9.9 8.1-18 18-18s18 8.1 18 18m-36-.3c0 159.1-128.9 288-288 288S18 915.1 18 756"/><path d="M576 756c0 149.1-120.9 270-270 270S36 905.1 36 756"/><path d="M558 756c0 139.2-112.8 252-252 252S54 895.2 54 756"/><path d="M540 756c0 129.2-104.8 234-234 234S72 885.2 72 756"/><path d="M522 756c0 119.3-96.7 216-216 216S90 875.3 90 756"/><path d="M504 756c0 109.4-88.6 198-198 198s-198-88.6-198-198"/><path d="M414 756c0 59.6-48.4 108-108 108s-108-48.4-108-108"/><path d="M486 756c0 99.4-80.6 180-180 180s-180-80.6-180-180"/><path d="M468 756c0 89.5-72.5 162-162 162s-162-72.5-162-162"/><path d="M432 756c0 69.6-56.4 126-126 126s-126-56.4-126-126"/><path d="M396 756c0 49.7-40.3 90-90 90s-90-40.3-90-90"/><path d="M378 756c0 39.8-32.2 72-72 72s-72-32.2-72-72"/><path d="M360 756c0 29.8-24.2 54-54 54s-54-24.2-54-54"/><path d="M342 756c0 19.9-16.1 36-36 36s-36-16.1-36-36"/><path d="M324 756c0 9.9-8.1 18-18 18s-18-8.1-18-18m36-450h576m-612 17.4h648M289.5 288h648M288 396h648m-646.5-35.4h648M324 270.5h576m-576-37h576M324 198h576m-540 18h504m-504-35.6h504m-504-36.8h504M360 108h504m-468 18h432M396 90.3h432M396 53.7h432M396 18h432"/></g><g fill="none" stroke="#000" stroke-width="2"><path d="M162 756c0 5-4 9-9 9s-9-4-9-9"/><path d="M216 756c0 34.8-28.2 63-63 63s-63-28.2-63-63"/><path d="M198 756c0 24.9-20.1 45-45 45s-45-20.1-45-45"/><path d="M180 756c0 14.9-12.1 27-27 27s-27-12.1-27-27m-54 0c0-5 4-9 9-9s9 4 9 9"/><path d="M18 756c0-34.8 28.2-63 63-63s63 28.2 63 63"/><path d="M36 756c0-24.9 20.1-45 45-45s45 20.1 45 45"/><path d="M54 756c0-14.9 12.1-27 27-27s27 12.1 27 27m108 0c0-5 4-9 9-9s9 4 9 9"/><path d="M162 756c0-34.8 28.2-63 63-63s63 28.2 63 63"/><path d="M180 756c0-24.9 20.1-45 45-45s45 20.1 45 45"/><path d="M198 756c0-14.9 12.1-27 27-27s27 12.1 27 27m-234 0h54m216-360V288m36 18V198m36 18V108m36 18V18M288 396l108-270M288 360L396 90M288 324L396 54M288 288L396 18m180 378V288m-36 18V198m-36 18V108m-36 18V18m108 378L468 126m108 234L468 90m108 234L468 54m108 234L468 18m468 378V288m-36 18V198m-36 18V108m-36 18V18m108 378L828 126m108 234L828 90m108 234L828 54m108 234L828 18M648 396V288m36 18V198m36 18V108m36 18V18M648 396l108-270M648 360L756 90M648 324L756 54M648 288L756 18M90 756h54m18 0h54m18 0h54m180 0c0 5-4 9-9 9s-9-4-9-9"/><path d="M522 756c0 34.8-28.2 63-63 63s-63-28.2-63-63"/><path d="M504 756c0 24.9-20.1 45-45 45s-45-20.1-45-45"/><path d="M486 756c0 14.9-12.1 27-27 27s-27-12.1-27-27m-54 0c0-5 4-9 9-9s9 4 9 9"/><path d="M324 756c0-34.8 28.2-63 63-63s63 28.2 63 63"/><path d="M342 756c0-24.9 20.1-45 45-45s45 20.1 45 45"/><path d="M360 756c0-14.9 12.1-27 27-27s27 12.1 27 27m108 0c0-5 4-9 9-9s9 4 9 9"/><path d="M468 756c0-34.8 28.2-63 63-63s63 28.2 63 63"/><path d="M486 756c0-24.9 20.1-45 45-45s45 20.1 45 45"/><path d="M504 756c0-14.9 12.1-27 27-27s27 12.1 27 27m-234 0h54m18 0h54m18 0h54m18 0h54m180 0c0 5-4 9-9 9s-9-4-9-9"/><path d="M828 756c0 34.8-28.2 63-63 63s-63-28.2-63-63"/><path d="M810 756c0 24.9-20.1 45-45 45s-45-20.1-45-45"/><path d="M792 756c0 14.9-12.1 27-27 27s-27-12.1-27-27m-54 0c0-5 4-9 9-9s9 4 9 9"/><path d="M630 756c0-34.8 28.2-63 63-63s63 28.2 63 63"/><path d="M648 756c0-24.9 20.1-45 45-45s45 20.1 45 45"/><path d="M666 756c0-14.9 12.1-27 27-27s27 12.1 27 27m108 0c0-5 4-9 9-9s9 4 9 9"/><path d="M774 756c0-34.8 28.2-63 63-63s63 28.2 63 63"/><path d="M792 756c0-24.9 20.1-45 45-45s45 20.1 45 45"/><path d="M810 756c0-14.9 12.1-27 27-27s27 12.1 27 27m-234 0h54m18 0h54m18 0h54m18 0h54m180 0c0 5-4 9-9 9s-9-4-9-9"/><path d="M1134 756c0 34.8-28.2 63-63 63s-63-28.2-63-63"/><path d="M1116 756c0 24.9-20.1 45-45 45s-45-20.1-45-45"/><path d="M1098 756c0 14.9-12.1 27-27 27s-27-12.1-27-27m-54 0c0-5 4-9 9-9s9 4 9 9"/><path d="M936 756c0-34.8 28.2-63 63-63s63 28.2 63 63"/><path d="M954 756c0-24.9 20.1-45 45-45s45 20.1 45 45"/><path d="M972 756c0-14.9 12.1-27 27-27s27 12.1 27 27m108 0c0-5 4-9 9-9s9 4 9 9"/><path d="M1080 756c0-34.8 28.2-63 63-63s63 28.2 63 63"/><path d="M1098 756c0-24.9 20.1-45 45-45s45 20.1 45 45"/><path d="M1116 756c0-14.9 12.1-27 27-27s27 12.1 27 27m-234 0h54m18 0h54m18 0h54m18 0h54"/></g><g fill="#7FC0E6" stroke="#000"><circle cx="288" cy="396" r="9"/><circle cx="288" cy="360" r="9"/><circle cx="288" cy="324" r="9"/><circle cx="288" cy="288" r="9"/><circle cx="324" cy="306" r="9"/><circle cx="324" cy="270" r="9"/><circle cx="324" cy="234" r="9"/><circle cx="324" cy="198" r="9"/><circle cx="360" cy="216" r="9"/><circle cx="360" cy="180" r="9"/><circle cx="360" cy="144" r="9"/><circle cx="360" cy="108" r="9"/><circle cx="396" cy="126" r="9"/><circle cx="396" cy="90" r="9"/><circle cx="396" cy="54" r="9"/><circle cx="396" cy="18" r="9"/><circle cx="576" cy="396" r="9"/><circle cx="576" cy="360" r="9"/><circle cx="576" cy="324" r="9"/><circle cx="576" cy="288" r="9"/><circle cx="540" cy="306" r="9"/><circle cx="540" cy="270" r="9"/><circle cx="540" cy="234" r="9"/><circle cx="540" cy="198" r="9"/><circle cx="504" cy="216" r="9"/><circle cx="504" cy="180" r="9"/><circle cx="504" cy="144" r="9"/><circle cx="504" cy="108" r="9"/><circle cx="468" cy="126" r="9"/><circle cx="468" cy="90" r="9"/><circle cx="468" cy="54" r="9"/><circle cx="468" cy="18" r="9"/><circle cx="936" cy="396" r="9"/><circle cx="936" cy="360" r="9"/><circle cx="936" cy="324" r="9"/><circle cx="936" cy="288" r="9"/><circle cx="900" cy="306" r="9"/><circle cx="900" cy="270" r="9"/><circle cx="900" cy="234" r="9"/><circle cx="900" cy="198" r="9"/><circle cx="864" cy="216" r="9"/><circle cx="864" cy="180" r="9"/><circle cx="864" cy="144" r="9"/><circle cx="864" cy="108" r="9"/><circle cx="828" cy="126" r="9"/><circle cx="828" cy="90" r="9"/><circle cx="828" cy="54" r="9"/><circle cx="828" cy="18" r="9"/><circle cx="648" cy="396" r="9"/><circle cx="648" cy="360" r="9"/><circle cx="648" cy="324" r="9"/><circle cx="648" cy="288" r="9"/><circle cx="684" cy="306" r="9"/><circle cx="684" cy="270" r="9"/><circle cx="684" cy="234" r="9"/><circle cx="684" cy="198" r="9"/><circle cx="720" cy="216" r="9"/><circle cx="720" cy="180" r="9"/><circle cx="720" cy="144" r="9"/><circle cx="720" cy="108" r="9"/><circle cx="756" cy="126" r="9"/><circle cx="756" cy="90" r="9"/><circle cx="756" cy="54" r="9"/><circle cx="756" cy="18" r="9"/><circle cx="18" cy="756" r="6"/><circle cx="36" cy="756" r="6"/><circle cx="54" cy="756" r="6"/><circle cx="72" cy="756" r="6"/><circle cx="90" cy="756" r="6"/><circle cx="108" cy="756" r="6"/><circle cx="126" cy="756" r="6"/><circle cx="144" cy="756" r="6"/><circle cx="162" cy="756" r="6"/><circle cx="180" cy="756" r="6"/><circle cx="198" cy="756" r="6"/><circle cx="216" cy="756" r="6"/><circle cx="234" cy="756" r="6"/><circle cx="252" cy="756" r="6"/><circle cx="270" cy="756" r="6"/><circle cx="288" cy="756" r="6"/><circle cx="324" cy="756" r="6"/><circle cx="342" cy="756" r="6"/><circle cx="360" cy="756" r="6"/><circle cx="378" cy="756" r="6"/><circle cx="396" cy="756" r="6"/><circle cx="414" cy="756" r="6"/><circle cx="432" cy="756" r="6"/><circle cx="450" cy="756" r="6"/><circle cx="468" cy="756" r="6"/><circle cx="486" cy="756" r="6"/><circle cx="504" cy="756" r="6"/><circle cx="522" cy="756" r="6"/><circle cx="540" cy="756" r="6"/><circle cx="558" cy="756" r="6"/><circle cx="576" cy="756" r="6"/><circle cx="594" cy="756" r="6"/><circle cx="630" cy="756" r="6"/><circle cx="648" cy="756" r="6"/><circle cx="666" cy="756" r="6"/><circle cx="684" cy="756" r="6"/><circle cx="702" cy="756" r="6"/><circle cx="720" cy="756" r="6"/><circle cx="738" cy="756" r="6"/><circle cx="756" cy="756" r="6"/><circle cx="774" cy="756" r="6"/><circle cx="792" cy="756" r="6"/><circle cx="810" cy="756" r="6"/><circle cx="828" cy="756" r="6"/><circle cx="846" cy="756" r="6"/><circle cx="864" cy="756" r="6"/><circle cx="882" cy="756" r="6"/><circle cx="900" cy="756" r="6"/><circle cx="936" cy="756" r="6"/><circle cx="954" cy="756" r="6"/><circle cx="972" cy="756" r="6"/><circle cx="990" cy="756" r="6"/><circle cx="1008" cy="756" r="6"/><circle cx="1026" cy="756" r="6"/><circle cx="1044" cy="756" r="6"/><circle cx="1062" cy="756" r="6"/><circle cx="1080" cy="756" r="6"/><circle cx="1098" cy="756" r="6"/><circle cx="1116" cy="756" r="6"/><circle cx="1134" cy="756" r="6"/><circle cx="1152" cy="756" r="6"/><circle cx="1170" cy="756" r="6"/><circle cx="1188" cy="756" r="6"/><circle cx="1206" cy="756" r="6"/></g></svg>