<?xml version="1.0" encoding="utf-8"?>
<!-- Generator: Adobe Illustrator 26.4.1, SVG Export Plug-In . SVG Version: 6.00 Build 0)  -->
<svg version="1.1" id="Layer_1" xmlns="http://www.w3.org/2000/svg" xmlns:xlink="http://www.w3.org/1999/xlink" x="0px" y="0px"
	 width="1170px" height="675px" viewBox="0 0 1170 675" enable-background="new 0 0 1170 675" xml:space="preserve">
<path fill="#FFE07F" stroke="#000000" stroke-width="2" stroke-miterlimit="10" d="M9,161c0,0,288-144,576-144s576,144,576,144
	S873,305,585,305S9,161,9,161z"/>
<path fill="#FFE07F" stroke="#000000" stroke-width="2" stroke-miterlimit="10" d="M9,521c0,0,288-144,576-144s576,144,576,144
	S873,665,585,665S9,521,9,521z"/>
<path fill="none" stroke="#BC1E46" stroke-width="10" stroke-miterlimit="10" d="M9,161c0,0,288-144,576-144s576,144,576,144"/>
<path fill="none" stroke="#BC1E46" stroke-width="10" stroke-miterlimit="10" d="M63,521c522-288,522,288,1044,0"/>
</svg>
