<?xml version="1.0"?>
<!DOCTYPE svg PUBLIC "-//W3C//DTD SVG 1.1//EN" 
  "http://www.w3.org/Graphics/SVG/1.1/DTD/svg11.dtd">
<svg width="1000" height="1000" viewBox="0 0 1000 1000"
     xmlns="http://www.w3.org/2000/svg" version="1.1">
  <g style="stroke:#000; stroke-width:2">
    <line x1="313.2234" y1="753.1581" x2="332.2588" y2="763.1609"/>
    <line x1="313.2234" y1="753.1581" x2="297.5891" y2="740.9234"/>
    <line x1="815.6279" y1="765.7178" x2="811.115" y2="775.285"/>
    <line x1="343.962" y1="602.2587" x2="350.0866" y2="555.7104"/>
    <line x1="343.962" y1="602.2587" x2="338.5197" y2="646.2501"/>
    <line x1="515.0662" y1="528.5058" x2="500.6021" y2="542.6668"/>
    <line x1="515.0662" y1="528.5058" x2="530.7427" y2="517.5337"/>
    <line x1="654.191" y1="113.6059" x2="648.0031" y2="129.6781"/>
    <line x1="654.191" y1="113.6059" x2="662.9657" y2="101.4908"/>
    <line x1="302.2052" y1="436.667" x2="301.2558" y2="419.9446"/>
    <line x1="231.596" y1="501.2489" x2="238.1016" y2="536.6456"/>
    <line x1="231.596" y1="501.2489" x2="221.9968" y2="490.6752"/>
    <line x1="231.596" y1="501.2489" x2="228.2527" y2="468.6453"/>
    <line x1="756.4234" y1="352.063" x2="779.8925" y2="337.4153"/>
    <line x1="756.4234" y1="352.063" x2="730.7188" y2="368.2616"/>
    <line x1="692.4731" y1="379.0037" x2="705.4256" y2="384.9193"/>
    <line x1="688.1184" y1="466.8005" x2="693.099" y2="490.9168"/>
    <line x1="688.1184" y1="466.8005" x2="660.1392" y2="425.1475"/>
    <line x1="688.1184" y1="466.8005" x2="715.2815" y2="500.4734"/>
    <line x1="688.1184" y1="466.8005" x2="681.9767" y2="452.6907"/>
    <line x1="227.659" y1="443.7501" x2="228.2527" y2="468.6453"/>
    <line x1="439.5178" y1="370.8498" x2="446.9485" y2="377.7839"/>
    <line x1="236.6293" y1="638.7069" x2="220.865" y2="636.7725"/>
    <line x1="236.6293" y1="638.7069" x2="250.4546" y2="648.0603"/>
    <line x1="236.6293" y1="638.7069" x2="227.0161" y2="624.0354"/>
    <line x1="893.2704" y1="569.9158" x2="889.8902" y2="579.7902"/>
    <line x1="258.0491" y1="154.005" x2="249.2079" y2="149.0557"/>
    <line x1="493.8049" y1="944.3972" x2="482.6679" y2="946.0196"/>
    <line x1="389.7684" y1="856.9399" x2="370.9907" y2="851.2312"/>
    <line x1="375.0707" y1="709.2061" x2="365.6553" y2="700.23"/>
    <line x1="621.6018" y1="359.1742" x2="613.2224" y2="339.8582"/>
    <line x1="621.6018" y1="359.1742" x2="632.5645" y2="376.6338"/>
    <line x1="472.5635" y1="374.5721" x2="499.0122" y2="402.218"/>
    <line x1="472.5635" y1="374.5721" x2="446.4521" y2="343.4516"/>
    <line x1="168.4106" y1="709.4567" x2="162.8394" y2="719.5968"/>
    <line x1="742.0766" y1="497.7676" x2="723.9466" y2="498.7003"/>
    <line x1="485.6597" y1="789.3238" x2="472.5409" y2="787.2697"/>
    <line x1="583.6322" y1="92.4458" x2="594.2273" y2="91.2603"/>
    <line x1="316.7644" y1="374.7333" x2="308.1637" y2="345.5896"/>
    <line x1="316.7644" y1="374.7333" x2="332.287" y2="404.753"/>
    <line x1="238.1016" y1="536.6456" x2="238.5132" y2="561.5022"/>
    <line x1="238.1016" y1="536.6456" x2="247.9978" y2="557.614"/>
    <line x1="566.663" y1="339.8058" x2="582.8757" y2="349.9459"/>
    <line x1="566.663" y1="339.8058" x2="547.6998" y2="334.9736"/>
    <line x1="610.5553" y1="737.4269" x2="603.097" y2="723.5738"/>
    <line x1="343.2422" y1="309.7337" x2="364.8181" y2="336.3314"/>
    <line x1="553.904" y1="671.8642" x2="574.8839" y2="661.9641"/>
    <line x1="705.1197" y1="577.5912" x2="730.2585" y2="530.1819"/>
    <line x1="705.1197" y1="577.5912" x2="675.0101" y2="618.743"/>
    <line x1="705.1197" y1="577.5912" x2="720.9267" y2="587.2502"/>
    <line x1="421.6482" y1="257.0099" x2="417.6162" y2="275.5993"/>
    <line x1="785.1592" y1="326.281" x2="771.7419" y2="309.3362"/>
    <line x1="772.4434" y1="438.5905" x2="796.0228" y2="431.4294"/>
    <line x1="772.4434" y1="438.5905" x2="740.573" y2="451.5659"/>
    <line x1="370.9907" y1="851.2312" x2="346.5835" y2="844.9468"/>
    <line x1="427.7252" y1="566.3232" x2="436.1296" y2="537.686"/>
    <line x1="427.7252" y1="566.3232" x2="423.4674" y2="588.7206"/>
    <line x1="405.4936" y1="768.3076" x2="412.1323" y2="778.4913"/>
    <line x1="405.4936" y1="768.3076" x2="399.129" y2="758.0472"/>
    <line x1="241.2419" y1="790.2502" x2="234.2021" y2="782.3974"/>
    <line x1="903.8099" y1="534.0467" x2="901.7674" y2="524.0387"/>
    <line x1="302.4661" y1="800.4721" x2="292.5198" y2="797.4539"/>
    <line x1="754.0034" y1="716.9434" x2="748.5251" y2="733.1455"/>
    <line x1="266.3693" y1="522.5796" x2="252.5975" y2="516.544"/>
    <line x1="578.067" y1="419.6679" x2="592.5446" y2="413.771"/>
    <line x1="578.067" y1="419.6679" x2="593.5696" y2="473.0058"/>
    <line x1="578.067" y1="419.6679" x2="600.8808" y2="388.4078"/>
    <line x1="578.067" y1="419.6679" x2="584.2881" y2="426.596"/>
    <line x1="578.067" y1="419.6679" x2="538.6511" y2="390.6711"/>
    <line x1="394.8505" y1="396.6264" x2="425.1698" y2="461.2908"/>
    <line x1="394.8505" y1="396.6264" x2="364.8181" y2="336.3314"/>
    <line x1="487.4287" y1="338.1631" x2="526.9005" y2="364.8746"/>
    <line x1="487.4287" y1="338.1631" x2="446.8152" y2="315.9388"/>
    <line x1="799.8823" y1="604.4688" x2="779.3116" y2="599.9008"/>
    <line x1="674.0197" y1="437.8768" x2="681.9767" y2="452.6907"/>
    <line x1="641.7891" y1="717.2986" x2="618.0009" y2="699.6947"/>
    <line x1="464.5683" y1="301.5787" x2="423.3072" y2="337.089"/>
    <line x1="464.5683" y1="301.5787" x2="500.1599" y2="271.7092"/>
    <line x1="648.0031" y1="129.6781" x2="646.7974" y2="147.5384"/>
    <line x1="294.2108" y1="481.9049" x2="313.2389" y2="476.9308"/>
    <line x1="611.206" y1="858.2803" x2="624.1372" y2="858.8561"/>
    <line x1="486.1536" y1="909.6425" x2="484.7567" y2="921.3618"/>
    <line x1="313.2389" y1="476.9308" x2="331.6577" y2="464.3817"/>
    <line x1="897.5633" y1="495.35" x2="907.2476" y2="498.2851"/>
    <line x1="748.5251" y1="733.1455" x2="739.379" y2="751.8316"/>
    <line x1="852.2389" y1="429.6814" x2="855.2768" y2="416.3681"/>
    <line x1="197.6527" y1="779.7078" x2="192.3598" y2="769.9674"/>
    <line x1="84.6646" y1="496.4898" x2="88.8497" y2="486.5108"/>
    <line x1="828.4441" y1="660.1432" x2="818.2815" y2="663.6081"/>
    <line x1="725.1005" y1="342.7831" x2="731.7339" y2="332.8733"/>
    <line x1="162.8394" y1="719.5968" x2="150.6194" y2="722.25"/>
    <line x1="367.1468" y1="511.6444" x2="372.4392" y2="490.8521"/>
    <line x1="367.1468" y1="511.6444" x2="385.1405" y2="473.9371"/>
    <line x1="367.1468" y1="511.6444" x2="350.0866" y2="555.7104"/>
    <line x1="721.3291" y1="453.287" x2="701.1871" y2="480.7827"/>
    <line x1="721.3291" y1="453.287" x2="742.6235" y2="433.0267"/>
    <line x1="721.3291" y1="453.287" x2="722.8177" y2="460.1808"/>
    <line x1="522.8237" y1="818.5937" x2="530.7125" y2="825.5185"/>
    <line x1="682.0187" y1="122.5231" x2="692.0394" y2="121.2537"/>
    <line x1="544.9674" y1="268.2561" x2="523.5762" y2="263.775"/>
    <line x1="544.9674" y1="268.2561" x2="562.4835" y2="271.1875"/>
    <line x1="351.2205" y1="904.6495" x2="361.9539" y2="906.523"/>
    <line x1="557.456" y1="175.7523" x2="567.3064" y2="178.7962"/>
    <line x1="454.5285" y1="566.2527" x2="431.5297" y2="560.8654"/>
    <line x1="399.7764" y1="305.6452" x2="423.6283" y2="308.8704"/>
    <line x1="687.7799" y1="392.5227" x2="705.4256" y2="384.9193"/>
    <line x1="236.4191" y1="556.8418" x2="252.5975" y2="516.544"/>
    <line x1="236.4191" y1="556.8418" x2="220.2605" y2="567.202"/>
    <line x1="236.4191" y1="556.8418" x2="230.5333" y2="594.5092"/>
    <line x1="500.1599" y1="271.7092" x2="532.7874" y2="249.2785"/>
    <line x1="705.1383" y1="684.6232" x2="717.6136" y2="702.3656"/>
    <line x1="705.1383" y1="684.6232" x2="694.532" y2="669.2094"/>
    <line x1="460.44" y1="793.4208" x2="472.5409" y2="787.2697"/>
    <line x1="692.335" y1="686.9643" x2="677.8075" y2="701.3617"/>
    <line x1="692.335" y1="686.9643" x2="712.7053" y2="669.2985"/>
    <line x1="499.6728" y1="282.1489" x2="513.6614" y2="284.2655"/>
    <line x1="914.2992" y1="429.0889" x2="908.1762" y2="418.7662"/>
    <line x1="398.2961" y1="571.748" x2="402.1794" y2="553.5026"/>
    <line x1="550.7856" y1="426.477" x2="537.9945" y2="396.3225"/>
    <line x1="550.7856" y1="426.477" x2="573.0382" y2="453.6413"/>
    <line x1="303.8395" y1="474.7345" x2="316.0799" y2="444.4505"/>
    <line x1="857.1397" y1="403.2946" x2="855.2768" y2="416.3681"/>
    <line x1="639.4169" y1="630.5105" x2="618.5411" y2="670.4342"/>
    <line x1="639.4169" y1="630.5105" x2="663.6356" y2="584.7577"/>
    <line x1="556.9785" y1="450.3181" x2="557.3685" y2="490.3938"/>
    <line x1="699.3376" y1="620.5536" x2="683.0987" y2="623.5853"/>
    <line x1="699.3376" y1="620.5536" x2="720.0447" y2="612.1004"/>
    <line x1="557.3685" y1="490.3938" x2="562.1875" y2="542.9165"/>
    <line x1="596.2363" y1="766.8595" x2="586.2173" y2="763.512"/>
    <line x1="274.467" y1="191.6865" x2="288.3708" y2="179.8077"/>
    <line x1="274.467" y1="191.6865" x2="258.3599" y2="205.1774"/>
    <line x1="739.379" y1="751.8316" x2="733.0607" y2="767.6111"/>
    <line x1="91.0249" y1="710.7432" x2="100.8578" y2="714.6098"/>
    <line x1="730.7188" y1="368.2616" x2="705.4256" y2="384.9193"/>
    <line x1="626.3914" y1="602.8585" x2="611.2674" y2="578.5978"/>
    <line x1="651.8231" y1="161.7309" x2="646.7974" y2="147.5384"/>
    <line x1="958.9197" y1="637.4551" x2="954.6912" y2="647.6095"/>
    <line x1="627.2767" y1="595.4567" x2="615.2585" y2="600.8689"/>
    <line x1="531.2456" y1="552.3115" x2="497.6894" y2="586.739"/>
    <line x1="531.2456" y1="552.3115" x2="561.6766" y2="520.1032"/>
    <line x1="531.2456" y1="552.3115" x2="540.7527" y2="557.0354"/>
    <line x1="786.362" y1="621.3704" x2="779.3116" y2="599.9008"/>
    <line x1="789.1629" y1="487.4999" x2="779.6079" y2="489.1003"/>
    <line x1="151.0139" y1="592.4151" x2="150.5115" y2="581.6542"/>
    <line x1="415.6479" y1="328.5032" x2="452.7242" y2="335.6873"/>
    <line x1="244.6132" y1="216.0796" x2="258.3599" y2="205.1774"/>
    <line x1="833.9177" y1="802.0406" x2="826.8803" y2="811.1665"/>
    <line x1="440.3156" y1="694.6152" x2="457.9152" y2="693.1697"/>
    <line x1="609.0291" y1="394.1706" x2="660.1392" y2="425.1475"/>
    <line x1="609.0291" y1="394.1706" x2="554.0288" y2="367.731"/>
    <line x1="39.7331" y1="443.2246" x2="35.8168" y2="452.8089"/>
    <line x1="362.922" y1="104.3644" x2="353.4898" y2="111.6155"/>
    <line x1="715.2815" y1="500.4734" x2="738.3956" y2="522.8562"/>
    <line x1="246.6469" y1="611.529" x2="235.6361" y2="601.1221"/>
    <line x1="574.8839" y1="661.9641" x2="594.7191" y2="719.1966"/>
    <line x1="574.8839" y1="661.9641" x2="567.0809" y2="601.208"/>
    <line x1="385.3917" y1="444.2739" x2="377.4424" y2="457.1009"/>
    <line x1="728.6283" y1="200.2852" x2="737.6619" y2="208.6498"/>
    <line x1="728.6283" y1="200.2852" x2="719.6547" y2="191.8078"/>
    <line x1="436.1296" y1="537.686" x2="435.2987" y2="515.4813"/>
    <line x1="436.1296" y1="537.686" x2="444.5886" y2="520.8083"/>
    <line x1="594.7191" y1="719.1966" x2="618.1967" y2="746.1704"/>
    <line x1="594.7191" y1="719.1966" x2="606.4623" y2="764.0326"/>
    <line x1="152.4405" y1="652.7406" x2="149.1836" y2="642.7235"/>
    <line x1="449.7236" y1="642.4173" x2="471.006" y2="627.6179"/>
    <line x1="209.0986" y1="529.5119" x2="200.571" y2="516.1791"/>
    <line x1="933.3704" y1="634.5115" x2="928.2507" y2="646.887"/>
    <line x1="618.0009" y1="699.6947" x2="586.9544" y2="673.332"/>
    <line x1="446.8152" y1="315.9388" x2="407.7352" y2="296.8752"/>
    <line x1="454.7888" y1="529.0858" x2="425.1698" y2="461.2908"/>
    <line x1="454.7888" y1="529.0858" x2="483.1134" y2="597.2813"/>
    <line x1="801.0547" y1="325.0038" x2="779.8925" y2="337.4153"/>
    <line x1="693.7825" y1="568.4606" x2="703.6509" y2="550.9335"/>
    <line x1="458.6755" y1="833.2474" x2="469.2602" y2="833.9538"/>
    <line x1="170.6455" y1="234.0458" x2="182.5977" y2="224.9342"/>
    <line x1="303.4433" y1="649.7011" x2="304.1057" y2="638.3036"/>
    <line x1="470.0855" y1="926.1254" x2="484.7567" y2="921.3618"/>
    <line x1="736.9634" y1="417.5434" x2="752.6975" y2="429.5887"/>
    <line x1="472.6186" y1="561.4416" x2="498.5372" y2="561.2913"/>
    <line x1="492.9255" y1="591.7512" x2="534.6911" y2="599.5085"/>
    <line x1="492.9255" y1="591.7512" x2="447.4307" y2="576.1041"/>
    <line x1="606.4623" y1="764.0326" x2="617.1643" y2="789.726"/>
    <line x1="606.4623" y1="764.0326" x2="607.3306" y2="791.9292"/>
    <line x1="284.9433" y1="428.244" x2="301.2558" y2="419.9446"/>
    <line x1="342.6368" y1="935.3828" x2="356.1423" y2="938.4981"/>
    <line x1="651.9272" y1="261.5006" x2="662.2398" y2="261.5615"/>
    <line x1="604.6689" y1="425.2433" x2="600.2778" y2="450.302"/>
    <line x1="618.5411" y1="670.4342" x2="602.6458" y2="699.767"/>
    <line x1="499.9086" y1="922.3033" x2="484.7567" y2="921.3618"/>
    <line x1="388.9352" y1="128.8944" x2="396.0519" y2="120.0699"/>
    <line x1="348.6842" y1="769.8708" x2="332.2588" y2="763.1609"/>
    <line x1="407.7352" y1="296.8752" x2="381.0107" y2="291.867"/>
    <line x1="407.7352" y1="296.8752" x2="386.4594" y2="281.9781"/>
    <line x1="93.2557" y1="534.2794" x2="95.4389" y2="523.9266"/>
    <line x1="460.6696" y1="302.9225" x2="457.4136" y2="290.7669"/>
    <line x1="646.925" y1="645.5071" x2="623.4395" y2="660.6738"/>
    <line x1="646.925" y1="645.5071" x2="675.0101" y2="618.743"/>
    <line x1="192.8445" y1="214.9546" x2="182.5977" y2="224.9342"/>
    <line x1="142.4396" y1="357.2938" x2="145.737" y2="374.5446"/>
    <line x1="142.4396" y1="357.2938" x2="139.9704" y2="342.6872"/>
    <line x1="303.7725" y1="626.9133" x2="304.1057" y2="638.3036"/>
    <line x1="731.7339" y1="332.8733" x2="735.7915" y2="320.4991"/>
    <line x1="258.3761" y1="735.2146" x2="248.0755" y2="732.7696"/>
    <line x1="337.0775" y1="836.5224" x2="346.5835" y2="844.9468"/>
    <line x1="499.0122" y1="402.218" x2="510.8186" y2="425.109"/>
    <line x1="499.0122" y1="402.218" x2="521.7785" y2="413.3536"/>
    <line x1="802.5869" y1="222.4373" x2="809.4743" y2="230.6233"/>
    <line x1="430.0085" y1="200.2393" x2="442.1258" y2="213.3139"/>
    <line x1="117.7611" y1="680.9647" x2="123.5749" y2="672.4743"/>
    <line x1="312.3686" y1="683.1026" x2="324.6544" y2="668.2495"/>
    <line x1="265.4264" y1="270.3072" x2="279.5808" y2="266.5529"/>
    <line x1="265.4264" y1="270.3072" x2="253.6026" y2="278.0385"/>
    <line x1="313.6065" y1="411.0768" x2="301.2558" y2="419.9446"/>
    <line x1="705.4256" y1="384.9193" x2="695.4588" y2="402.6599"/>
    <line x1="617.0185" y1="607.3621" x2="611.2674" y2="578.5978"/>
    <line x1="575.148" y1="897.4992" x2="585.5654" y2="899.1267"/>
    <line x1="819.8066" y1="595.1287" x2="817.9605" y2="611.1465"/>
    <line x1="819.8066" y1="595.1287" x2="817.6006" y2="578.612"/>
    <line x1="736.5018" y1="564.2322" x2="743.3286" y2="575.6426"/>
    <line x1="624.1372" y1="858.8561" x2="637.3372" y2="859.3791"/>
    <line x1="780.0142" y1="257.5654" x2="767.2784" y2="259.9848"/>
    <line x1="780.0142" y1="257.5654" x2="792.8297" y2="256.1043"/>
    <line x1="555.8083" y1="478.0615" x2="532.0463" y2="494.5645"/>
    <line x1="495.34" y1="521.6299" x2="507.0695" y2="519.7956"/>
    <line x1="372.1459" y1="562.2786" x2="371.3724" y2="543.5371"/>
    <line x1="332.287" y1="404.753" x2="380.0151" y2="372.187"/>
    <line x1="332.287" y1="404.753" x2="299.1568" y2="429.2575"/>
    <line x1="332.287" y1="404.753" x2="316.0799" y2="444.4505"/>
    <line x1="347.9611" y1="304.0608" x2="364.8181" y2="336.3314"/>
    <line x1="547.8035" y1="395.4817" x2="524.6461" y2="408.2073"/>
    <line x1="587.8725" y1="771.8492" x2="566.6376" y2="743.3596"/>
    <line x1="804.6866" y1="469.6392" x2="797.7459" y2="455.9611"/>
    <line x1="804.6866" y1="469.6392" x2="810.7182" y2="486.7027"/>
    <line x1="437.493" y1="741.6835" x2="448.268" y2="742.8494"/>
    <line x1="782.3979" y1="405.6788" x2="765.666" y2="431.0708"/>
    <line x1="742.3793" y1="418.4044" x2="740.573" y2="451.5659"/>
    <line x1="396.5672" y1="451.7146" x2="377.4424" y2="457.1009"/>
    <line x1="452.7242" y1="335.6873" x2="500.3422" y2="348.9899"/>
    <line x1="660.1392" y1="425.1475" x2="698.0246" y2="425.0292"/>
    <line x1="156.7432" y1="481.9446" x2="152.0667" y2="491.4677"/>
    <line x1="301.0101" y1="207.6125" x2="296.7846" y2="219.8016"/>
    <line x1="301.0101" y1="207.6125" x2="312.9479" y2="199.783"/>
    <line x1="301.0101" y1="207.6125" x2="287.7506" y2="207.7196"/>
    <line x1="595.6429" y1="602.754" x2="611.2674" y2="578.5978"/>
    <line x1="595.6429" y1="602.754" x2="580.3467" y2="615.9482"/>
    <line x1="865.3955" y1="496.2903" x2="864.5972" y2="507.278"/>
    <line x1="530.4222" y1="681.219" x2="526.5836" y2="650.1816"/>
    <line x1="610.6772" y1="464.1006" x2="573.0382" y2="453.6413"/>
    <line x1="610.6772" y1="464.1006" x2="608.3446" y2="443.2952"/>
    <line x1="610.6772" y1="464.1006" x2="645.4244" y2="487.0321"/>
    <line x1="332.229" y1="547.8932" x2="350.0866" y2="555.7104"/>
    <line x1="532.6005" y1="65.8691" x2="522.0191" y2="63.5544"/>
    <line x1="388.5686" y1="517.1381" x2="373.4005" y2="522.261"/>
    <line x1="388.5686" y1="517.1381" x2="401.5371" y2="517.6259"/>
    <line x1="701.1871" y1="480.7827" x2="682.0761" y2="509.9861"/>
    <line x1="459.9294" y1="52.2758" x2="449.0308" y2="52.5118"/>
    <line x1="182.7532" y1="525.199" x2="177.6413" y2="544.3877"/>
    <line x1="182.7532" y1="525.199" x2="188.4831" y2="501.1256"/>
    <line x1="406.4449" y1="474.9538" x2="385.1405" y2="473.9371"/>
    <line x1="526.9005" y1="364.8746" x2="537.9945" y2="396.3225"/>
    <line x1="526.9005" y1="364.8746" x2="562.0636" y2="377.7288"/>
    <line x1="338.3994" y1="471.8118" x2="356.1314" y2="471.611"/>
    <line x1="498.0501" y1="497.4549" x2="507.0695" y2="519.7956"/>
    <line x1="317.4089" y1="726.206" x2="329.8035" y2="717.1135"/>
    <line x1="566.6376" y1="743.3596" x2="540.052" y2="704.234"/>
    <line x1="273.76" y1="288.3684" x2="281.805" y2="278.1567"/>
    <line x1="433.562" y1="855.7847" x2="423.6105" y2="853.8858"/>
    <line x1="534.2883" y1="529.3604" x2="518.7301" y2="509.3389"/>
    <line x1="534.2883" y1="529.3604" x2="549.0618" y2="553.2568"/>
    <line x1="717.6136" y1="702.3656" x2="729.304" y2="718.6476"/>
    <line x1="514.8469" y1="121.0024" x2="501.5941" y2="122.7854"/>
    <line x1="257.2668" y1="467.5941" x2="295.8044" y2="501.9061"/>
    <line x1="257.2668" y1="467.5941" x2="228.4639" y2="435.2062"/>
    <line x1="532.7874" y1="249.2785" x2="556.8347" y2="233.9513"/>
    <line x1="521.4771" y1="606.6478" x2="553.6787" y2="642.5206"/>
    <line x1="521.4771" y1="606.6478" x2="498.5372" y2="561.2913"/>
    <line x1="521.4771" y1="606.6478" x2="509.4645" y2="620.0542"/>
    <line x1="675.0101" y1="618.743" x2="670.6628" y2="643.8069"/>
    <line x1="525.7135" y1="598.3916" x2="526.5836" y2="650.1816"/>
    <line x1="525.7135" y1="598.3916" x2="522.3124" y2="543.4136"/>
    <line x1="284.2887" y1="560.4544" x2="309.6686" y2="549.221"/>
    <line x1="523.5762" y1="263.775" x2="503.7646" y2="259.4701"/>
    <line x1="279.5808" y1="266.5529" x2="281.805" y2="278.1567"/>
    <line x1="312.2522" y1="438.8808" x2="291.4187" y2="420.4152"/>
    <line x1="312.2522" y1="438.8808" x2="320.287" y2="459.8925"/>
    <line x1="228.4639" y1="435.2062" x2="210.3926" y2="411.6793"/>
    <line x1="594.3242" y1="361.1525" x2="582.8757" y2="349.9459"/>
    <line x1="442.1258" y1="213.3139" x2="455.8705" y2="224.1099"/>
    <line x1="344.8831" y1="327.361" x2="337.9239" y2="338.208"/>
    <line x1="423.6283" y1="308.8704" x2="417.6162" y2="275.5993"/>
    <line x1="423.6283" y1="308.8704" x2="446.4521" y2="343.4516"/>
    <line x1="454.9375" y1="428.5113" x2="460.1507" y2="418.169"/>
    <line x1="586.9544" y1="673.332" x2="553.6787" y2="642.5206"/>
    <line x1="182.5977" y1="224.9342" x2="183.1284" y2="235.779"/>
    <line x1="273.7763" y1="446.9699" x2="299.1568" y2="429.2575"/>
    <line x1="310.908" y1="328.3747" x2="299.087" y2="335.7697"/>
    <line x1="355.2525" y1="303.5474" x2="364.8181" y2="336.3314"/>
    <line x1="338.5197" y1="646.2501" x2="324.6544" y2="668.2495"/>
    <line x1="338.5197" y1="646.2501" x2="343.3999" y2="678.7232"/>
    <line x1="507.0695" y1="519.7956" x2="532.0463" y2="494.5645"/>
    <line x1="507.0695" y1="519.7956" x2="498.5372" y2="561.2913"/>
    <line x1="743.3286" y1="575.6426" x2="741.5852" y2="597.8112"/>
    <line x1="587.4018" y1="496.4977" x2="561.6766" y2="520.1032"/>
    <line x1="527.4214" y1="285.231" x2="513.6614" y2="284.2655"/>
    <line x1="600.8808" y1="388.4078" x2="621.9148" y2="367.1919"/>
    <line x1="145.737" y1="374.5446" x2="142.0924" y2="389.9313"/>
    <line x1="145.737" y1="374.5446" x2="158.0714" y2="377.7681"/>
    <line x1="459.1179" y1="626.1268" x2="453.0198" y2="618.1045"/>
    <line x1="771.7419" y1="309.3362" x2="748.8377" y2="289.2495"/>
    <line x1="771.7419" y1="309.3362" x2="789.3961" y2="318.2131"/>
    <line x1="554.6041" y1="38.3555" x2="563.6237" y2="44.0183"/>
    <line x1="550.6172" y1="465.0178" x2="560.9306" y2="491.6255"/>
    <line x1="550.6172" y1="465.0178" x2="546.5543" y2="445.3715"/>
    <line x1="698.2822" y1="761.3067" x2="693.4562" y2="780.7977"/>
    <line x1="698.2822" y1="761.3067" x2="703.7217" y2="745.4479"/>
    <line x1="717.3647" y1="480.3301" x2="723.9466" y2="498.7003"/>
    <line x1="490.2228" y1="181.5393" x2="482.5221" y2="188.2766"/>
    <line x1="367.8239" y1="387.8467" x2="377.296" y2="408.5331"/>
    <line x1="862.3202" y1="544.6268" x2="858.3147" y2="554.213"/>
    <line x1="617.3828" y1="251.2872" x2="626.0743" y2="243.4514"/>
    <line x1="617.3828" y1="251.2872" x2="607.5141" y2="257.3869"/>
    <line x1="410.1031" y1="254.6101" x2="417.6162" y2="275.5993"/>
    <line x1="171.4499" y1="456.1489" x2="180.6902" y2="476.2144"/>
    <line x1="171.4499" y1="456.1489" x2="161.1274" y2="443.1613"/>
    <line x1="723.9466" y1="498.7003" x2="706.5801" y2="517.7471"/>
    <line x1="817.6006" y1="578.612" x2="804.9592" y2="569.6111"/>
    <line x1="715.1583" y1="492.3736" x2="740.573" y2="451.5659"/>
    <line x1="715.1583" y1="492.3736" x2="690.6881" y2="536.5812"/>
    <line x1="188.4831" y1="501.1256" x2="180.6902" y2="476.2144"/>
    <line x1="188.4831" y1="501.1256" x2="195.282" y2="486.7321"/>
    <line x1="188.4831" y1="501.1256" x2="200.571" y2="516.1791"/>
    <line x1="603.6938" y1="323.9993" x2="613.2224" y2="339.8582"/>
    <line x1="675.503" y1="775.9205" x2="667.5922" y2="770.0633"/>
    <line x1="347.431" y1="489.36" x2="356.1314" y2="471.611"/>
    <line x1="727.8005" y1="270.9707" x2="711.9961" y2="256.2642"/>
    <line x1="727.8005" y1="270.9707" x2="748.8377" y2="289.2495"/>
    <line x1="475.0038" y1="872.3284" x2="488.3256" y2="871.716"/>
    <line x1="475.0038" y1="872.3284" x2="462.0415" y2="874.3509"/>
    <line x1="741.5852" y1="597.8112" x2="760.1097" y2="595.1749"/>
    <line x1="741.5852" y1="597.8112" x2="720.0447" y2="612.1004"/>
    <line x1="471.006" y1="627.6179" x2="456.6501" y2="660.536"/>
    <line x1="471.006" y1="627.6179" x2="497.6894" y2="586.739"/>
    <line x1="524.6461" y1="408.2073" x2="498.0716" y2="426.2976"/>
    <line x1="472.5409" y1="787.2697" x2="470.8351" y2="774.9169"/>
    <line x1="500.6021" y1="542.6668" x2="498.5372" y2="561.2913"/>
    <line x1="482.1308" y1="424.319" x2="498.0716" y2="426.2976"/>
    <line x1="322.8472" y1="740.1543" x2="337.1497" y2="745.3487"/>
    <line x1="322.8472" y1="740.1543" x2="307.3965" y2="733.0987"/>
    <line x1="346.5835" y1="844.9468" x2="323.1483" y2="840.3214"/>
    <line x1="202.892" y1="738.169" x2="199.5469" y2="728.2815"/>
    <line x1="540.052" y1="704.234" x2="510.6502" y2="656.8044"/>
    <line x1="308.1637" y1="345.5896" x2="304.192" y2="320.2591"/>
    <line x1="341.1796" y1="534.1887" x2="402.1794" y2="553.5026"/>
    <line x1="341.1796" y1="534.1887" x2="295.8044" y2="501.9061"/>
    <line x1="341.1796" y1="534.1887" x2="309.6686" y2="549.221"/>
    <line x1="538.6511" y1="390.6711" x2="510.7672" y2="380.027"/>
    <line x1="538.6511" y1="390.6711" x2="515.7769" y2="372.1231"/>
    <line x1="338.1885" y1="586.1558" x2="345.7037" y2="580.0397"/>
    <line x1="159.7161" y1="516.2937" x2="156.0192" y2="526.3943"/>
    <line x1="150.6194" y1="722.25" x2="139.1745" y2="719.5614"/>
    <line x1="457.9152" y1="693.1697" x2="474.6756" y2="690.5656"/>
    <line x1="489.7423" y1="443.9024" x2="498.0716" y2="426.2976"/>
    <line x1="645.4244" y1="487.0321" x2="682.0761" y2="509.9861"/>
    <line x1="301.2558" y1="419.9446" x2="298.3905" y2="404.2232"/>
    <line x1="252.5975" y1="516.544" x2="262.9661" y2="474.1363"/>
    <line x1="957.8556" y1="523.0743" x2="962.0156" y2="513.5084"/>
    <line x1="658.1358" y1="548.1545" x2="677.6155" y2="552.0413"/>
    <line x1="285.2503" y1="400.4384" x2="291.4187" y2="420.4152"/>
    <line x1="512.2407" y1="176.6883" x2="526.9196" y2="186.1031"/>
    <line x1="512.2407" y1="176.6883" x2="494.2988" y2="166.8647"/>
    <line x1="346.4029" y1="454.7926" x2="331.6577" y2="464.3817"/>
    <line x1="323.1483" y1="840.3214" x2="304.4467" y2="835.7976"/>
    <line x1="526.5836" y1="650.1816" x2="522.2392" y2="681.4342"/>
    <line x1="384.5448" y1="436.599" x2="385.1405" y2="473.9371"/>
    <line x1="384.5448" y1="436.599" x2="377.296" y2="408.5331"/>
    <line x1="350.1221" y1="821.8701" x2="360.245" y2="825.7813"/>
    <line x1="402.1794" y1="553.5026" x2="431.5297" y2="560.8654"/>
    <line x1="402.1794" y1="553.5026" x2="395.2348" y2="548.2428"/>
    <line x1="402.1794" y1="553.5026" x2="425.6774" y2="533.1787"/>
    <line x1="402.1794" y1="553.5026" x2="447.4307" y2="576.1041"/>
    <line x1="194.4962" y1="654.8277" x2="204.0956" y2="660.1657"/>
    <line x1="742.6235" y1="433.0267" x2="765.666" y2="431.0708"/>
    <line x1="643.1674" y1="78.2474" x2="652.4312" y2="82.5182"/>
    <line x1="330.5064" y1="349.2937" x2="337.9239" y2="338.208"/>
    <line x1="511.5706" y1="798.8579" x2="501.9233" y2="805.0473"/>
    <line x1="488.6141" y1="687.5417" x2="474.6756" y2="690.5656"/>
    <line x1="174.4145" y1="406.7842" x2="183.7101" y2="401.7814"/>
    <line x1="738.0044" y1="733.4916" x2="729.304" y2="718.6476"/>
    <line x1="518.2852" y1="439.6949" x2="518.8426" y2="488.0735"/>
    <line x1="518.2852" y1="439.6949" x2="516.9019" y2="401.2301"/>
    <line x1="273.901" y1="402.8759" x2="271.7784" y2="433.0245"/>
    <line x1="500.3422" y1="348.9899" x2="554.0288" y2="367.731"/>
    <line x1="573.3023" y1="133.8537" x2="563.0734" y2="131.2332"/>
    <line x1="569.2844" y1="512.7463" x2="560.9306" y2="491.6255"/>
    <line x1="873.712" y1="616.6536" x2="863.0634" y2="622.4128"/>
    <line x1="373.4005" y1="522.261" x2="371.3724" y2="543.5371"/>
    <line x1="373.4005" y1="522.261" x2="367.3037" y2="503.652"/>
    <line x1="690.6881" y1="536.5812" x2="706.5801" y2="517.7471"/>
    <line x1="690.6881" y1="536.5812" x2="663.6356" y2="584.7577"/>
    <line x1="666.6848" y1="517.402" x2="668.0189" y2="505.3934"/>
    <line x1="618.1967" y1="746.1704" x2="636.0478" y2="765.098"/>
    <line x1="534.6911" y1="599.5085" x2="550.9089" y2="578.9546"/>
    <line x1="534.6911" y1="599.5085" x2="557.0271" y2="617.3244"/>
    <line x1="562.0636" y1="377.7288" x2="587.5514" y2="390.5216"/>
    <line x1="581.0059" y1="692.9668" x2="589.4015" y2="707.2511"/>
    <line x1="687.7398" y1="796.9175" x2="693.4562" y2="780.7977"/>
    <line x1="481.7509" y1="437.2254" x2="498.0716" y2="426.2976"/>
    <line x1="448.732" y1="685.6232" x2="456.6501" y2="660.536"/>
    <line x1="603.097" y1="723.5738" x2="589.4015" y2="707.2511"/>
    <line x1="875.4618" y1="445.2667" x2="868.8849" y2="437.575"/>
    <line x1="940.2" y1="480.484" x2="950.9301" y2="485.7649"/>
    <line x1="518.8426" y1="488.0735" x2="522.3124" y2="543.4136"/>
    <line x1="53.0538" y1="299.6769" x2="51.6469" y2="310.1046"/>
    <line x1="348.3621" y1="367.8175" x2="357.8645" y2="360.5488"/>
    <line x1="320.87" y1="596.1157" x2="338.2088" y2="610.1462"/>
    <line x1="320.87" y1="596.1157" x2="302.3416" y2="580.1073"/>
    <line x1="735.7915" y1="320.4991" x2="737.8699" y2="308.7111"/>
    <line x1="731.7376" y1="654.1323" x2="712.7053" y2="669.2985"/>
    <line x1="731.7376" y1="654.1323" x2="746.4659" y2="641.5588"/>
    <line x1="232.7743" y1="324.2076" x2="223.7408" y2="330.0979"/>
    <line x1="810.7182" y1="486.7027" x2="814.9852" y2="502.0655"/>
    <line x1="726.4349" y1="427.4308" x2="698.0246" y2="425.0292"/>
    <line x1="510.6502" y1="656.8044" x2="483.1134" y2="597.2813"/>
    <line x1="510.6502" y1="656.8044" x2="509.8206" y2="682.5854"/>
    <line x1="448.1927" y1="515.8844" x2="425.6774" y2="533.1787"/>
    <line x1="350.6056" y1="703.8721" x2="343.3999" y2="678.7232"/>
    <line x1="764.0375" y1="414.8422" x2="775.0576" y2="411.5968"/>
    <line x1="764.0375" y1="414.8422" x2="752.6975" y2="429.5887"/>
    <line x1="554.1248" y1="470.7711" x2="573.0382" y2="453.6413"/>
    <line x1="397.358" y1="375.1735" x2="380.0151" y2="372.187"/>
    <line x1="765.666" y1="431.0708" x2="775.0576" y2="411.5968"/>
    <line x1="765.666" y1="431.0708" x2="771.9958" y2="401.0791"/>
    <line x1="765.666" y1="431.0708" x2="751.2111" y2="480.3862"/>
    <line x1="230.5333" y1="594.5092" x2="229.3195" y2="625.3531"/>
    <line x1="292.0776" y1="564.4086" x2="302.3416" y2="580.1073"/>
    <line x1="271.7784" y1="433.0245" x2="291.4187" y2="420.4152"/>
    <line x1="271.7784" y1="433.0245" x2="262.9661" y2="474.1363"/>
    <line x1="497.6894" y1="586.739" x2="480.0762" y2="579.5855"/>
    <line x1="871.002" y1="368.0674" x2="869.421" y2="355.81"/>
    <line x1="219.6959" y1="593.3806" x2="235.6361" y2="601.1221"/>
    <line x1="488.6701" y1="124.0793" x2="501.5941" y2="122.7854"/>
    <line x1="746.9791" y1="121.7398" x2="737.3924" y2="117.0796"/>
    <line x1="377.4424" y1="457.1009" x2="356.1314" y2="471.611"/>
    <line x1="600.2778" y1="450.302" x2="598.1547" y2="480.437"/>
    <line x1="751.2111" y1="480.3862" x2="730.2585" y2="530.1819"/>
    <line x1="378.9088" y1="691.1213" x2="365.6553" y2="700.23"/>
    <line x1="567.0809" y1="601.208" x2="562.1875" y2="542.9165"/>
    <line x1="869.421" y1="355.81" x2="867.7685" y2="343.458"/>
    <line x1="795.111" y1="585.2577" x2="779.3116" y2="599.9008"/>
    <line x1="795.111" y1="585.2577" x2="804.9592" y2="569.6111"/>
    <line x1="475.114" y1="553.0588" x2="498.5372" y2="561.2913"/>
    <line x1="761.914" y1="842.4884" x2="752.3528" y2="838.3653"/>
    <line x1="853.2569" y1="629.6717" x2="863.0634" y2="622.4128"/>
    <line x1="677.6155" y1="552.0413" x2="703.6509" y2="550.9335"/>
    <line x1="356.1423" y1="938.4981" x2="369.3403" y2="942.5458"/>
    <line x1="494.2988" y1="166.8647" x2="477.5675" y2="160.9947"/>
    <line x1="413.1984" y1="205.811" x2="425.3232" y2="206.9083"/>
    <line x1="423.3072" y1="337.089" x2="380.0151" y2="372.187"/>
    <line x1="455.8705" y1="224.1099" x2="468.0873" y2="232.3172"/>
    <line x1="950.9301" y1="485.7649" x2="962.6624" y2="485.7275"/>
    <line x1="365.6553" y1="700.23" x2="345.323" y2="707.3206"/>
    <line x1="530.6882" y1="335.3292" x2="547.6998" y2="334.9736"/>
    <line x1="367.756" y1="180.7536" x2="360.2844" y2="173.1082"/>
    <line x1="663.8025" y1="445.7177" x2="664.4766" y2="456.6196"/>
    <line x1="799.4846" y1="554.9501" x2="804.9592" y2="569.6111"/>
    <line x1="703.6509" y1="550.9335" x2="742.4919" y2="578.8671"/>
    <line x1="703.6509" y1="550.9335" x2="682.0761" y2="509.9861"/>
    <line x1="241.6309" y1="818.6277" x2="251.3658" y2="822.6709"/>
    <line x1="742.4919" y1="578.8671" x2="779.3116" y2="599.9008"/>
    <line x1="593.5696" y1="473.0058" x2="605.1222" y2="527.3324"/>
    <line x1="549.0618" y1="553.2568" x2="550.9089" y2="578.9546"/>
    <line x1="752.2391" y1="449.2604" x2="752.6975" y2="429.5887"/>
    <line x1="345.323" y1="707.3206" x2="329.8035" y2="717.1135"/>
    <line x1="795.4311" y1="617.5314" x2="779.3116" y2="599.9008"/>
    <line x1="928.2507" y1="646.887" x2="925.2845" y2="659.6575"/>
    <line x1="483.1134" y1="597.2813" x2="491.3964" y2="622.4451"/>
    <line x1="611.2674" y1="578.5978" x2="605.1222" y2="527.3324"/>
    <line x1="603.0569" y1="499.5874" x2="598.1547" y2="480.437"/>
    <line x1="413.2725" y1="321.0438" x2="408.2175" y2="334.068"/>
    <line x1="592.4133" y1="500.8725" x2="598.1547" y2="480.437"/>
    <line x1="302.3416" y1="580.1073" x2="287.5568" y2="575.6739"/>
    <line x1="610.1434" y1="558.1657" x2="607.6051" y2="548.6477"/>
  </g>
  <g style="stroke:#000000; fill:#BC1E46">
    <circle cx="313.2234" cy="753.1581" r="6"/>
    <circle cx="815.6279" cy="765.7178" r="6"/>
    <circle cx="325.1111" cy="56.3986" r="6"/>
    <circle cx="343.962" cy="602.2587" r="6"/>
    <circle cx="515.0662" cy="528.5058" r="6"/>
    <circle cx="654.191" cy="113.6059" r="6"/>
    <circle cx="302.2052" cy="436.667" r="6"/>
    <circle cx="231.596" cy="501.2489" r="6"/>
    <circle cx="756.4234" cy="352.063" r="6"/>
    <circle cx="211.3381" cy="901.8598" r="6"/>
    <circle cx="692.4731" cy="379.0037" r="6"/>
    <circle cx="688.1184" cy="466.8005" r="6"/>
    <circle cx="227.659" cy="443.7501" r="6"/>
    <circle cx="439.5178" cy="370.8498" r="6"/>
    <circle cx="236.6293" cy="638.7069" r="6"/>
    <circle cx="893.2704" cy="569.9158" r="6"/>
    <circle cx="258.0491" cy="154.005" r="6"/>
    <circle cx="493.8049" cy="944.3972" r="6"/>
    <circle cx="755.8459" cy="888.6324" r="6"/>
    <circle cx="389.7684" cy="856.9399" r="6"/>
    <circle cx="375.0707" cy="709.2061" r="6"/>
    <circle cx="117.9865" cy="326.1101" r="6"/>
    <circle cx="621.6018" cy="359.1742" r="6"/>
    <circle cx="142.6225" cy="117.7135" r="6"/>
    <circle cx="472.5635" cy="374.5721" r="6"/>
    <circle cx="168.4106" cy="709.4567" r="6"/>
    <circle cx="742.0766" cy="497.7676" r="6"/>
    <circle cx="485.6597" cy="789.3238" r="6"/>
    <circle cx="259.5283" cy="183.0124" r="6"/>
    <circle cx="129.165" cy="559.9006" r="6"/>
    <circle cx="583.6322" cy="92.4458" r="6"/>
    <circle cx="316.7644" cy="374.7333" r="6"/>
    <circle cx="238.1016" cy="536.6456" r="6"/>
    <circle cx="35.2628" cy="416.9188" r="6"/>
    <circle cx="323.8988" cy="964.2658" r="6"/>
    <circle cx="566.663" cy="339.8058" r="6"/>
    <circle cx="610.5553" cy="737.4269" r="6"/>
    <circle cx="343.2422" cy="309.7337" r="6"/>
    <circle cx="553.904" cy="671.8642" r="6"/>
    <circle cx="856.3707" cy="831.5566" r="6"/>
    <circle cx="705.1197" cy="577.5912" r="6"/>
    <circle cx="421.6482" cy="257.0099" r="6"/>
    <circle cx="654.177" cy="26.5629" r="6"/>
    <circle cx="950.1023" cy="284.6855" r="6"/>
    <circle cx="135.4307" cy="159.6674" r="6"/>
    <circle cx="785.1592" cy="326.281" r="6"/>
    <circle cx="176.568" cy="325.9829" r="6"/>
    <circle cx="772.4434" cy="438.5905" r="6"/>
    <circle cx="594.4495" cy="824.9154" r="6"/>
    <circle cx="370.9907" cy="851.2312" r="6"/>
    <circle cx="427.7252" cy="566.3232" r="6"/>
    <circle cx="568.1173" cy="18.4967" r="6"/>
    <circle cx="405.4936" cy="768.3076" r="6"/>
    <circle cx="241.2419" cy="790.2502" r="6"/>
    <circle cx="903.8099" cy="534.0467" r="6"/>
    <circle cx="524.6654" cy="9" r="6"/>
    <circle cx="302.4661" cy="800.4721" r="6"/>
    <circle cx="754.0034" cy="716.9434" r="6"/>
    <circle cx="325.2369" cy="130.388" r="6"/>
    <circle cx="266.3693" cy="522.5796" r="6"/>
    <circle cx="802.9331" cy="95.9913" r="6"/>
    <circle cx="611.3592" cy="212.5789" r="6"/>
    <circle cx="578.067" cy="419.6679" r="6"/>
    <circle cx="394.8505" cy="396.6264" r="6"/>
    <circle cx="117.4806" cy="379.2885" r="6"/>
    <circle cx="182.2787" cy="833.8599" r="6"/>
    <circle cx="933.5096" cy="548.8999" r="6"/>
    <circle cx="164.5695" cy="166.6022" r="6"/>
    <circle cx="837.5496" cy="715.4865" r="6"/>
    <circle cx="487.4287" cy="338.1631" r="6"/>
    <circle cx="563.1381" cy="963.8417" r="6"/>
    <circle cx="135.3956" cy="186.1008" r="6"/>
    <circle cx="799.8823" cy="604.4688" r="6"/>
    <circle cx="674.0197" cy="437.8768" r="6"/>
    <circle cx="641.7891" cy="717.2986" r="6"/>
    <circle cx="464.5683" cy="301.5787" r="6"/>
    <circle cx="648.0031" cy="129.6781" r="6"/>
    <circle cx="294.2108" cy="481.9049" r="6"/>
    <circle cx="611.206" cy="858.2803" r="6"/>
    <circle cx="486.1536" cy="909.6425" r="6"/>
    <circle cx="887.638" cy="819.5051" r="6"/>
    <circle cx="313.2389" cy="476.9308" r="6"/>
    <circle cx="897.5633" cy="495.35" r="6"/>
    <circle cx="69.0366" cy="614.3687" r="6"/>
    <circle cx="377.755" cy="659.2602" r="6"/>
    <circle cx="901.7674" cy="524.0387" r="6"/>
    <circle cx="865.7381" cy="129.1815" r="6"/>
    <circle cx="748.5251" cy="733.1455" r="6"/>
    <circle cx="852.2389" cy="429.6814" r="6"/>
    <circle cx="894.5111" cy="244.0389" r="6"/>
    <circle cx="197.6527" cy="779.7078" r="6"/>
    <circle cx="84.6646" cy="496.4898" r="6"/>
    <circle cx="921.8391" cy="619.035" r="6"/>
    <circle cx="852.3959" cy="238.6041" r="6"/>
    <circle cx="828.4441" cy="660.1432" r="6"/>
    <circle cx="725.1005" cy="342.7831" r="6"/>
    <circle cx="162.8394" cy="719.5968" r="6"/>
    <circle cx="367.1468" cy="511.6444" r="6"/>
    <circle cx="721.3291" cy="453.287" r="6"/>
    <circle cx="522.8237" cy="818.5937" r="6"/>
    <circle cx="518.2251" cy="745.4979" r="6"/>
    <circle cx="682.0187" cy="122.5231" r="6"/>
    <circle cx="69.8544" cy="641.5161" r="6"/>
    <circle cx="544.9674" cy="268.2561" r="6"/>
    <circle cx="351.2205" cy="904.6495" r="6"/>
    <circle cx="557.456" cy="175.7523" r="6"/>
    <circle cx="809.571" cy="694.9919" r="6"/>
    <circle cx="454.5285" cy="566.2527" r="6"/>
    <circle cx="417.2043" cy="59.7698" r="6"/>
    <circle cx="270.396" cy="927.6957" r="6"/>
    <circle cx="39.7448" cy="648.7951" r="6"/>
    <circle cx="399.7764" cy="305.6452" r="6"/>
    <circle cx="687.7799" cy="392.5227" r="6"/>
    <circle cx="737.1679" cy="168.9714" r="6"/>
    <circle cx="236.4191" cy="556.8418" r="6"/>
    <circle cx="500.1599" cy="271.7092" r="6"/>
    <circle cx="847.496" cy="141.3975" r="6"/>
    <circle cx="247.9978" cy="557.614" r="6"/>
    <circle cx="705.1383" cy="684.6232" r="6"/>
    <circle cx="460.44" cy="793.4208" r="6"/>
    <circle cx="692.335" cy="686.9643" r="6"/>
    <circle cx="976.8352" cy="666.1617" r="6"/>
    <circle cx="499.6728" cy="282.1489" r="6"/>
    <circle cx="914.2992" cy="429.0889" r="6"/>
    <circle cx="398.2961" cy="571.748" r="6"/>
    <circle cx="550.7856" cy="426.477" r="6"/>
    <circle cx="762.6201" cy="802.0182" r="6"/>
    <circle cx="303.8395" cy="474.7345" r="6"/>
    <circle cx="856.4035" cy="207.923" r="6"/>
    <circle cx="857.1397" cy="403.2946" r="6"/>
    <circle cx="639.4169" cy="630.5105" r="6"/>
    <circle cx="556.9785" cy="450.3181" r="6"/>
    <circle cx="699.3376" cy="620.5536" r="6"/>
    <circle cx="557.3685" cy="490.3938" r="6"/>
    <circle cx="102.0724" cy="217.0001" r="6"/>
    <circle cx="775.1222" cy="166.8878" r="6"/>
    <circle cx="412.1323" cy="778.4913" r="6"/>
    <circle cx="596.2363" cy="766.8595" r="6"/>
    <circle cx="720.605" cy="687.3617" r="6"/>
    <circle cx="274.467" cy="191.6865" r="6"/>
    <circle cx="234.5645" cy="247.0059" r="6"/>
    <circle cx="739.379" cy="751.8316" r="6"/>
    <circle cx="91.0249" cy="710.7432" r="6"/>
    <circle cx="730.7188" cy="368.2616" r="6"/>
    <circle cx="313.2853" cy="914.7602" r="6"/>
    <circle cx="577.2753" cy="933.8513" r="6"/>
    <circle cx="626.3914" cy="602.8585" r="6"/>
    <circle cx="651.8231" cy="161.7309" r="6"/>
    <circle cx="693.9258" cy="270.5785" r="6"/>
    <circle cx="811.115" cy="775.285" r="6"/>
    <circle cx="958.9197" cy="637.4551" r="6"/>
    <circle cx="627.2767" cy="595.4567" r="6"/>
    <circle cx="531.2456" cy="552.3115" r="6"/>
    <circle cx="439.9486" cy="772.3451" r="6"/>
    <circle cx="786.362" cy="621.3704" r="6"/>
    <circle cx="789.1629" cy="487.4999" r="6"/>
    <circle cx="684.9826" cy="871.8902" r="6"/>
    <circle cx="151.0139" cy="592.4151" r="6"/>
    <circle cx="415.6479" cy="328.5032" r="6"/>
    <circle cx="244.6132" cy="216.0796" r="6"/>
    <circle cx="893.3558" cy="275.9346" r="6"/>
    <circle cx="218.6508" cy="91.2729" r="6"/>
    <circle cx="100.6341" cy="659.5523" r="6"/>
    <circle cx="300.7208" cy="72.4759" r="6"/>
    <circle cx="833.9177" cy="802.0406" r="6"/>
    <circle cx="440.3156" cy="694.6152" r="6"/>
    <circle cx="609.0291" cy="394.1706" r="6"/>
    <circle cx="39.7331" cy="443.2246" r="6"/>
    <circle cx="362.922" cy="104.3644" r="6"/>
    <circle cx="569.7428" cy="72.2448" r="6"/>
    <circle cx="974.8985" cy="430.8004" r="6"/>
    <circle cx="112.9953" cy="280.1746" r="6"/>
    <circle cx="715.2815" cy="500.4734" r="6"/>
    <circle cx="246.6469" cy="611.529" r="6"/>
    <circle cx="530.7427" cy="517.5337" r="6"/>
    <circle cx="574.8839" cy="661.9641" r="6"/>
    <circle cx="385.3917" cy="444.2739" r="6"/>
    <circle cx="728.6283" cy="200.2852" r="6"/>
    <circle cx="436.1296" cy="537.686" r="6"/>
    <circle cx="954.6912" cy="647.6095" r="6"/>
    <circle cx="594.7191" cy="719.1966" r="6"/>
    <circle cx="833.0015" cy="891.9198" r="6"/>
    <circle cx="39.641" cy="562.0534" r="6"/>
    <circle cx="662.9657" cy="101.4908" r="6"/>
    <circle cx="376.9238" cy="972.8536" r="6"/>
    <circle cx="87.8094" cy="769.6554" r="6"/>
    <circle cx="152.4405" cy="652.7406" r="6"/>
    <circle cx="449.7236" cy="642.4173" r="6"/>
    <circle cx="209.0986" cy="529.5119" r="6"/>
    <circle cx="933.3704" cy="634.5115" r="6"/>
    <circle cx="618.0009" cy="699.6947" r="6"/>
    <circle cx="923.2664" cy="218.4078" r="6"/>
    <circle cx="685.7928" cy="914.6256" r="6"/>
    <circle cx="554.2096" cy="991" r="6"/>
    <circle cx="446.8152" cy="315.9388" r="6"/>
    <circle cx="454.7888" cy="529.0858" r="6"/>
    <circle cx="801.0547" cy="325.0038" r="6"/>
    <circle cx="693.7825" cy="568.4606" r="6"/>
    <circle cx="24.3888" cy="587.5722" r="6"/>
    <circle cx="458.6755" cy="833.2474" r="6"/>
    <circle cx="170.6455" cy="234.0458" r="6"/>
    <circle cx="303.4433" cy="649.7011" r="6"/>
    <circle cx="470.0855" cy="926.1254" r="6"/>
    <circle cx="70.1933" cy="536.4017" r="6"/>
    <circle cx="822.228" cy="272.875" r="6"/>
    <circle cx="668.5655" cy="201.0836" r="6"/>
    <circle cx="912.8701" cy="340.9608" r="6"/>
    <circle cx="736.9634" cy="417.5434" r="6"/>
    <circle cx="472.6186" cy="561.4416" r="6"/>
    <circle cx="492.9255" cy="591.7512" r="6"/>
    <circle cx="606.4623" cy="764.0326" r="6"/>
    <circle cx="936.3801" cy="353.2396" r="6"/>
    <circle cx="542.6368" cy="863.6089" r="6"/>
    <circle cx="880.31" cy="217.8344" r="6"/>
    <circle cx="284.9433" cy="428.244" r="6"/>
    <circle cx="342.6368" cy="935.3828" r="6"/>
    <circle cx="988.819" cy="595.5213" r="6"/>
    <circle cx="651.9272" cy="261.5006" r="6"/>
    <circle cx="604.6689" cy="425.2433" r="6"/>
    <circle cx="618.5411" cy="670.4342" r="6"/>
    <circle cx="545.8273" cy="153.7653" r="6"/>
    <circle cx="499.9086" cy="922.3033" r="6"/>
    <circle cx="57.2025" cy="694.25" r="6"/>
    <circle cx="388.9352" cy="128.8944" r="6"/>
    <circle cx="916.3936" cy="797.1269" r="6"/>
    <circle cx="348.6842" cy="769.8708" r="6"/>
    <circle cx="249.2079" cy="149.0557" r="6"/>
    <circle cx="188.6142" cy="154.1148" r="6"/>
    <circle cx="407.7352" cy="296.8752" r="6"/>
    <circle cx="969.0497" cy="599.582" r="6"/>
    <circle cx="893.0351" cy="170.8333" r="6"/>
    <circle cx="93.2557" cy="534.2794" r="6"/>
    <circle cx="460.6696" cy="302.9225" r="6"/>
    <circle cx="646.925" cy="645.5071" r="6"/>
    <circle cx="156.6626" cy="754.7557" r="6"/>
    <circle cx="192.8445" cy="214.9546" r="6"/>
    <circle cx="735.8146" cy="620.9213" r="6"/>
    <circle cx="142.4396" cy="357.2938" r="6"/>
    <circle cx="303.7725" cy="626.9133" r="6"/>
    <circle cx="731.7339" cy="332.8733" r="6"/>
    <circle cx="258.3761" cy="735.2146" r="6"/>
    <circle cx="746.3865" cy="56.0266" r="6"/>
    <circle cx="337.0775" cy="836.5224" r="6"/>
    <circle cx="800.3073" cy="186.9931" r="6"/>
    <circle cx="499.0122" cy="402.218" r="6"/>
    <circle cx="530.7125" cy="825.5185" r="6"/>
    <circle cx="949.6333" cy="421.2322" r="6"/>
    <circle cx="460.9281" cy="961.0511" r="6"/>
    <circle cx="802.5869" cy="222.4373" r="6"/>
    <circle cx="261.9618" cy="874.0846" r="6"/>
    <circle cx="430.0085" cy="200.2393" r="6"/>
    <circle cx="117.7611" cy="680.9647" r="6"/>
    <circle cx="312.3686" cy="683.1026" r="6"/>
    <circle cx="822.7008" cy="178.0629" r="6"/>
    <circle cx="620.2999" cy="13.8198" r="6"/>
    <circle cx="265.4264" cy="270.3072" r="6"/>
    <circle cx="863.1834" cy="802.2468" r="6"/>
    <circle cx="313.6065" cy="411.0768" r="6"/>
    <circle cx="705.4256" cy="384.9193" r="6"/>
    <circle cx="826.8803" cy="811.1665" r="6"/>
    <circle cx="617.0185" cy="607.3621" r="6"/>
    <circle cx="633.8272" cy="300.3724" r="6"/>
    <circle cx="575.148" cy="897.4992" r="6"/>
    <circle cx="94.6446" cy="792.1273" r="6"/>
    <circle cx="819.8066" cy="595.1287" r="6"/>
    <circle cx="391.3475" cy="159.6751" r="6"/>
    <circle cx="809.4743" cy="230.6233" r="6"/>
    <circle cx="736.5018" cy="564.2322" r="6"/>
    <circle cx="297.5891" cy="740.9234" r="6"/>
    <circle cx="144.696" cy="803.0821" r="6"/>
    <circle cx="814.5185" cy="798.4549" r="6"/>
    <circle cx="624.1372" cy="858.8561" r="6"/>
    <circle cx="738.3956" cy="522.8562" r="6"/>
    <circle cx="907.2476" cy="498.2851" r="6"/>
    <circle cx="780.0142" cy="257.5654" r="6"/>
    <circle cx="555.8083" cy="478.0615" r="6"/>
    <circle cx="495.34" cy="521.6299" r="6"/>
    <circle cx="109.3369" cy="812.0811" r="6"/>
    <circle cx="372.1459" cy="562.2786" r="6"/>
    <circle cx="332.287" cy="404.753" r="6"/>
    <circle cx="642.4348" cy="185.9128" r="6"/>
    <circle cx="347.9611" cy="304.0608" r="6"/>
    <circle cx="39.4982" cy="621.8616" r="6"/>
    <circle cx="547.8035" cy="395.4817" r="6"/>
    <circle cx="473.1781" cy="606.6997" r="6"/>
    <circle cx="523.6931" cy="141.2431" r="6"/>
    <circle cx="587.8725" cy="771.8492" r="6"/>
    <circle cx="804.6866" cy="469.6392" r="6"/>
    <circle cx="937.8078" cy="325.6052" r="6"/>
    <circle cx="437.493" cy="741.6835" r="6"/>
    <circle cx="875.4201" cy="848.1283" r="6"/>
    <circle cx="782.3979" cy="405.6788" r="6"/>
    <circle cx="742.3793" cy="418.4044" r="6"/>
    <circle cx="396.5672" cy="451.7146" r="6"/>
    <circle cx="452.7242" cy="335.6873" r="6"/>
    <circle cx="781.6044" cy="867.153" r="6"/>
    <circle cx="510.8186" cy="425.109" r="6"/>
    <circle cx="660.1392" cy="425.1475" r="6"/>
    <circle cx="156.7432" cy="481.9446" r="6"/>
    <circle cx="301.0101" cy="207.6125" r="6"/>
    <circle cx="592.3906" cy="40.0645" r="6"/>
    <circle cx="595.6429" cy="602.754" r="6"/>
    <circle cx="865.3955" cy="496.2903" r="6"/>
    <circle cx="530.4222" cy="681.219" r="6"/>
    <circle cx="747.7613" cy="77.5856" r="6"/>
    <circle cx="847.5101" cy="868.1288" r="6"/>
    <circle cx="610.6772" cy="464.1006" r="6"/>
    <circle cx="921.2361" cy="710.1067" r="6"/>
    <circle cx="457.56" cy="980.4956" r="6"/>
    <circle cx="284.9894" cy="605.0591" r="6"/>
    <circle cx="332.229" cy="547.8932" r="6"/>
    <circle cx="227.0161" cy="624.0354" r="6"/>
    <circle cx="532.6005" cy="65.8691" r="6"/>
    <circle cx="578.6981" cy="238.1512" r="6"/>
    <circle cx="179.0591" cy="589.3803" r="6"/>
    <circle cx="388.5686" cy="517.1381" r="6"/>
    <circle cx="701.1871" cy="480.7827" r="6"/>
    <circle cx="200.8082" cy="279.3391" r="6"/>
    <circle cx="919.7765" cy="256.3985" r="6"/>
    <circle cx="399.129" cy="758.0472" r="6"/>
    <circle cx="459.9294" cy="52.2758" r="6"/>
    <circle cx="182.7532" cy="525.199" r="6"/>
    <circle cx="195.2199" cy="260.3044" r="6"/>
    <circle cx="557.8469" cy="726.7027" r="6"/>
    <circle cx="248.0755" cy="732.7696" r="6"/>
    <circle cx="406.4449" cy="474.9538" r="6"/>
    <circle cx="159.3498" cy="834.1726" r="6"/>
    <circle cx="699.1007" cy="890.4245" r="6"/>
    <circle cx="76.0937" cy="402.0075" r="6"/>
    <circle cx="526.9005" cy="364.8746" r="6"/>
    <circle cx="855.2768" cy="416.3681" r="6"/>
    <circle cx="344.4484" cy="958.1766" r="6"/>
    <circle cx="338.3994" cy="471.8118" r="6"/>
    <circle cx="498.0501" cy="497.4549" r="6"/>
    <circle cx="807.7314" cy="119.894" r="6"/>
    <circle cx="317.4089" cy="726.206" r="6"/>
    <circle cx="715.1389" cy="583.7796" r="6"/>
    <circle cx="105.525" cy="182.6766" r="6"/>
    <circle cx="566.6376" cy="743.3596" r="6"/>
    <circle cx="273.76" cy="288.3684" r="6"/>
    <circle cx="433.562" cy="855.7847" r="6"/>
    <circle cx="827.7273" cy="398.6057" r="6"/>
    <circle cx="305.0266" cy="106.7035" r="6"/>
    <circle cx="586.2173" cy="763.512" r="6"/>
    <circle cx="383.9622" cy="814.8051" r="6"/>
    <circle cx="289.3209" cy="143.7882" r="6"/>
    <circle cx="534.2883" cy="529.3604" r="6"/>
    <circle cx="717.6136" cy="702.3656" r="6"/>
    <circle cx="514.8469" cy="121.0024" r="6"/>
    <circle cx="9" cy="494.6555" r="6"/>
    <circle cx="257.2668" cy="467.5941" r="6"/>
    <circle cx="532.7874" cy="249.2785" r="6"/>
    <circle cx="56.4317" cy="470.5402" r="6"/>
    <circle cx="521.4771" cy="606.6478" r="6"/>
    <circle cx="184.0538" cy="302.0675" r="6"/>
    <circle cx="394.3107" cy="55.6787" r="6"/>
    <circle cx="675.0101" cy="618.743" r="6"/>
    <circle cx="525.7135" cy="598.3916" r="6"/>
    <circle cx="683.0987" cy="623.5853" r="6"/>
    <circle cx="733.0607" cy="767.6111" r="6"/>
    <circle cx="284.2887" cy="560.4544" r="6"/>
    <circle cx="523.5762" cy="263.775" r="6"/>
    <circle cx="279.5808" cy="266.5529" r="6"/>
    <circle cx="316.0297" cy="173.7398" r="6"/>
    <circle cx="312.2522" cy="438.8808" r="6"/>
    <circle cx="228.4639" cy="435.2062" r="6"/>
    <circle cx="110.2308" cy="549.618" r="6"/>
    <circle cx="594.3242" cy="361.1525" r="6"/>
    <circle cx="221.9968" cy="490.6752" r="6"/>
    <circle cx="110.2857" cy="154.1822" r="6"/>
    <circle cx="71.4969" cy="567.0439" r="6"/>
    <circle cx="414.2796" cy="980.8683" r="6"/>
    <circle cx="442.1258" cy="213.3139" r="6"/>
    <circle cx="401.5371" cy="517.6259" r="6"/>
    <circle cx="779.8925" cy="337.4153" r="6"/>
    <circle cx="77.1174" cy="327.5848" r="6"/>
    <circle cx="344.8831" cy="327.361" r="6"/>
    <circle cx="683.2794" cy="830.7267" r="6"/>
    <circle cx="423.6283" cy="308.8704" r="6"/>
    <circle cx="454.9375" cy="428.5113" r="6"/>
    <circle cx="586.9544" cy="673.332" r="6"/>
    <circle cx="345.0287" cy="242.988" r="6"/>
    <circle cx="182.5977" cy="224.9342" r="6"/>
    <circle cx="182.053" cy="356.0669" r="6"/>
    <circle cx="82.9179" cy="238.6362" r="6"/>
    <circle cx="508.1107" cy="984.2659" r="6"/>
    <circle cx="273.7763" cy="446.9699" r="6"/>
    <circle cx="848.5342" cy="732.9196" r="6"/>
    <circle cx="310.908" cy="328.3747" r="6"/>
    <circle cx="355.2525" cy="303.5474" r="6"/>
    <circle cx="338.5197" cy="646.2501" r="6"/>
    <circle cx="176.5504" cy="783.7261" r="6"/>
    <circle cx="449.0308" cy="52.5118" r="6"/>
    <circle cx="775.5624" cy="919.4194" r="6"/>
    <circle cx="507.0695" cy="519.7956" r="6"/>
    <circle cx="743.3286" cy="575.6426" r="6"/>
    <circle cx="841.6265" cy="303.3274" r="6"/>
    <circle cx="134.961" cy="770.8918" r="6"/>
    <circle cx="587.4018" cy="496.4977" r="6"/>
    <circle cx="192.3598" cy="769.9674" r="6"/>
    <circle cx="905.251" cy="684.5315" r="6"/>
    <circle cx="527.4214" cy="285.231" r="6"/>
    <circle cx="264.767" cy="236.62" r="6"/>
    <circle cx="600.8808" cy="388.4078" r="6"/>
    <circle cx="145.737" cy="374.5446" r="6"/>
    <circle cx="459.1179" cy="626.1268" r="6"/>
    <circle cx="149.1836" cy="642.7235" r="6"/>
    <circle cx="228.2527" cy="468.6453" r="6"/>
    <circle cx="457.4136" cy="290.7669" r="6"/>
    <circle cx="771.7419" cy="309.3362" r="6"/>
    <circle cx="167.5922" cy="798.0442" r="6"/>
    <circle cx="181.305" cy="131.0985" r="6"/>
    <circle cx="559.266" cy="815.4747" r="6"/>
    <circle cx="554.6041" cy="38.3555" r="6"/>
    <circle cx="860.8282" cy="281.4285" r="6"/>
    <circle cx="333.1864" cy="793.7605" r="6"/>
    <circle cx="693.099" cy="490.9168" r="6"/>
    <circle cx="847.1363" cy="679.1063" r="6"/>
    <circle cx="582.8757" cy="349.9459" r="6"/>
    <circle cx="446.9485" cy="377.7839" r="6"/>
    <circle cx="299.8135" cy="511.3492" r="6"/>
    <circle cx="509.0157" cy="833.2833" r="6"/>
    <circle cx="550.6172" cy="465.0178" r="6"/>
    <circle cx="248.9512" cy="888.1531" r="6"/>
    <circle cx="772.9159" cy="756.4115" r="6"/>
    <circle cx="131.1808" cy="827.3328" r="6"/>
    <circle cx="698.2822" cy="761.3067" r="6"/>
    <circle cx="717.3647" cy="480.3301" r="6"/>
    <circle cx="936.1567" cy="727.4994" r="6"/>
    <circle cx="490.2228" cy="181.5393" r="6"/>
    <circle cx="367.8239" cy="387.8467" r="6"/>
    <circle cx="765.0313" cy="235.7639" r="6"/>
    <circle cx="187.4492" cy="896.5208" r="6"/>
    <circle cx="908.1762" cy="418.7662" r="6"/>
    <circle cx="67.4547" cy="373.3137" r="6"/>
    <circle cx="225.3193" cy="889.0365" r="6"/>
    <circle cx="923.7392" cy="282.3492" r="6"/>
    <circle cx="374.2762" cy="882.3013" r="6"/>
    <circle cx="676.7689" cy="298.6286" r="6"/>
    <circle cx="862.3202" cy="544.6268" r="6"/>
    <circle cx="617.3828" cy="251.2872" r="6"/>
    <circle cx="410.1031" cy="254.6101" r="6"/>
    <circle cx="171.4499" cy="456.1489" r="6"/>
    <circle cx="695.4588" cy="402.6599" r="6"/>
    <circle cx="405.2556" cy="893.0737" r="6"/>
    <circle cx="495.0876" cy="854.5886" r="6"/>
    <circle cx="371.1189" cy="122.8901" r="6"/>
    <circle cx="880.7258" cy="708.8914" r="6"/>
    <circle cx="723.9466" cy="498.7003" r="6"/>
    <circle cx="834.3498" cy="159.76" r="6"/>
    <circle cx="630.7881" cy="881.1118" r="6"/>
    <circle cx="817.6006" cy="578.612" r="6"/>
    <circle cx="715.1583" cy="492.3736" r="6"/>
    <circle cx="80.1111" cy="444.7633" r="6"/>
    <circle cx="98.544" cy="392.9621" r="6"/>
    <circle cx="188.4831" cy="501.1256" r="6"/>
    <circle cx="664.401" cy="54.7284" r="6"/>
    <circle cx="603.6938" cy="323.9993" r="6"/>
    <circle cx="675.503" cy="775.9205" r="6"/>
    <circle cx="347.431" cy="489.36" r="6"/>
    <circle cx="123.5749" cy="672.4743" r="6"/>
    <circle cx="247.5837" cy="755.0336" r="6"/>
    <circle cx="454.9904" cy="29.33" r="6"/>
    <circle cx="727.8005" cy="270.9707" r="6"/>
    <circle cx="767.2784" cy="259.9848" r="6"/>
    <circle cx="482.6679" cy="946.0196" r="6"/>
    <circle cx="288.1141" cy="903.6192" r="6"/>
    <circle cx="576.0599" cy="868.7424" r="6"/>
    <circle cx="956.1783" cy="450.4001" r="6"/>
    <circle cx="475.0038" cy="872.3284" r="6"/>
    <circle cx="683.0045" cy="174.8177" r="6"/>
    <circle cx="741.5852" cy="597.8112" r="6"/>
    <circle cx="471.006" cy="627.6179" r="6"/>
    <circle cx="448.268" cy="742.8494" r="6"/>
    <circle cx="580.3467" cy="615.9482" r="6"/>
    <circle cx="524.6461" cy="408.2073" r="6"/>
    <circle cx="472.5409" cy="787.2697" r="6"/>
    <circle cx="567.3064" cy="178.7962" r="6"/>
    <circle cx="500.6021" cy="542.6668" r="6"/>
    <circle cx="482.1308" cy="424.319" r="6"/>
    <circle cx="917.5892" cy="394.6995" r="6"/>
    <circle cx="322.8472" cy="740.1543" r="6"/>
    <circle cx="346.5835" cy="844.9468" r="6"/>
    <circle cx="796.0228" cy="431.4294" r="6"/>
    <circle cx="202.892" cy="738.169" r="6"/>
    <circle cx="540.052" cy="704.234" r="6"/>
    <circle cx="308.1637" cy="345.5896" r="6"/>
    <circle cx="846.9182" cy="755.9697" r="6"/>
    <circle cx="518.7301" cy="509.3389" r="6"/>
    <circle cx="341.1796" cy="534.1887" r="6"/>
    <circle cx="626.0743" cy="243.4514" r="6"/>
    <circle cx="538.6511" cy="390.6711" r="6"/>
    <circle cx="479.6789" cy="737.6226" r="6"/>
    <circle cx="300.3059" cy="869.7288" r="6"/>
    <circle cx="338.1885" cy="586.1558" r="6"/>
    <circle cx="117.4559" cy="592.0966" r="6"/>
    <circle cx="737.6619" cy="208.6498" r="6"/>
    <circle cx="180.6902" cy="476.2144" r="6"/>
    <circle cx="159.7161" cy="516.2937" r="6"/>
    <circle cx="232.1883" cy="126.1115" r="6"/>
    <circle cx="150.6194" cy="722.25" r="6"/>
    <circle cx="457.9152" cy="693.1697" r="6"/>
    <circle cx="489.7423" cy="443.9024" r="6"/>
    <circle cx="645.4244" cy="487.0321" r="6"/>
    <circle cx="538.9769" cy="904.8529" r="6"/>
    <circle cx="484.0236" cy="9.253" r="6"/>
    <circle cx="199.5469" cy="728.2815" r="6"/>
    <circle cx="301.2558" cy="419.9446" r="6"/>
    <circle cx="252.5975" cy="516.544" r="6"/>
    <circle cx="748.8377" cy="289.2495" r="6"/>
    <circle cx="292.5198" cy="797.4539" r="6"/>
    <circle cx="376.5258" cy="25.9293" r="6"/>
    <circle cx="532.0463" cy="494.5645" r="6"/>
    <circle cx="425.1698" cy="461.2908" r="6"/>
    <circle cx="957.8556" cy="523.0743" r="6"/>
    <circle cx="760.1097" cy="595.1749" r="6"/>
    <circle cx="658.1358" cy="548.1545" r="6"/>
    <circle cx="285.2503" cy="400.4384" r="6"/>
    <circle cx="512.2407" cy="176.6883" r="6"/>
    <circle cx="304.1057" cy="638.3036" r="6"/>
    <circle cx="510.7672" cy="380.027" r="6"/>
    <circle cx="705.086" cy="153.5514" r="6"/>
    <circle cx="346.4029" cy="454.7926" r="6"/>
    <circle cx="323.1483" cy="840.3214" r="6"/>
    <circle cx="76.6056" cy="678.1354" r="6"/>
    <circle cx="526.5836" cy="650.1816" r="6"/>
    <circle cx="384.5448" cy="436.599" r="6"/>
    <circle cx="350.1221" cy="821.8701" r="6"/>
    <circle cx="402.1794" cy="553.5026" r="6"/>
    <circle cx="194.4962" cy="654.8277" r="6"/>
    <circle cx="299.1568" cy="429.2575" r="6"/>
    <circle cx="217.7972" cy="112.126" r="6"/>
    <circle cx="55.3614" cy="722.4875" r="6"/>
    <circle cx="742.6235" cy="433.0267" r="6"/>
    <circle cx="694.2803" cy="55.6162" r="6"/>
    <circle cx="643.1674" cy="78.2474" r="6"/>
    <circle cx="330.5064" cy="349.2937" r="6"/>
    <circle cx="511.5706" cy="798.8579" r="6"/>
    <circle cx="488.6141" cy="687.5417" r="6"/>
    <circle cx="174.4145" cy="406.7842" r="6"/>
    <circle cx="462.0415" cy="874.3509" r="6"/>
    <circle cx="738.0044" cy="733.4916" r="6"/>
    <circle cx="186.2289" cy="866.3368" r="6"/>
    <circle cx="825.9484" cy="96.2388" r="6"/>
    <circle cx="887.4186" cy="335.5111" r="6"/>
    <circle cx="957.4906" cy="365.1084" r="6"/>
    <circle cx="354.1114" cy="36.8826" r="6"/>
    <circle cx="444.5886" cy="520.8083" r="6"/>
    <circle cx="518.2852" cy="439.6949" r="6"/>
    <circle cx="521.7785" cy="413.3536" r="6"/>
    <circle cx="831.9716" cy="851.4469" r="6"/>
    <circle cx="507.9499" cy="199.3764" r="6"/>
    <circle cx="273.901" cy="402.8759" r="6"/>
    <circle cx="802.775" cy="844.3579" r="6"/>
    <circle cx="686.4086" cy="216.9915" r="6"/>
    <circle cx="965.8971" cy="328.2576" r="6"/>
    <circle cx="253.6026" cy="278.0385" r="6"/>
    <circle cx="504.6043" cy="964.8881" r="6"/>
    <circle cx="500.3422" cy="348.9899" r="6"/>
    <circle cx="587.3007" cy="966.0885" r="6"/>
    <circle cx="858.3147" cy="554.213" r="6"/>
    <circle cx="607.3306" cy="791.9292" r="6"/>
    <circle cx="170.3445" cy="262.7444" r="6"/>
    <circle cx="663.6009" cy="905.0738" r="6"/>
    <circle cx="511.0389" cy="100.9889" r="6"/>
    <circle cx="414.6704" cy="17.2458" r="6"/>
    <circle cx="573.3023" cy="133.8537" r="6"/>
    <circle cx="569.2844" cy="512.7463" r="6"/>
    <circle cx="528.1226" cy="42.5802" r="6"/>
    <circle cx="873.712" cy="616.6536" r="6"/>
    <circle cx="703.7217" cy="745.4479" r="6"/>
    <circle cx="319.0172" cy="884.1665" r="6"/>
    <circle cx="373.4005" cy="522.261" r="6"/>
    <circle cx="837.9624" cy="480.5424" r="6"/>
    <circle cx="690.6881" cy="536.5812" r="6"/>
    <circle cx="666.6848" cy="517.402" r="6"/>
    <circle cx="618.1967" cy="746.1704" r="6"/>
    <circle cx="534.6911" cy="599.5085" r="6"/>
    <circle cx="539.3059" cy="234.5536" r="6"/>
    <circle cx="807.1224" cy="732.437" r="6"/>
    <circle cx="237.0498" cy="711.7188" r="6"/>
    <circle cx="557.0271" cy="617.3244" r="6"/>
    <circle cx="183.1284" cy="235.779" r="6"/>
    <circle cx="139.9704" cy="342.6872" r="6"/>
    <circle cx="423.6105" cy="853.8858" r="6"/>
    <circle cx="594.5522" cy="176.3383" r="6"/>
    <circle cx="446.1503" cy="74.9217" r="6"/>
    <circle cx="562.0636" cy="377.7288" r="6"/>
    <circle cx="719.6547" cy="191.8078" r="6"/>
    <circle cx="792.8297" cy="256.1043" r="6"/>
    <circle cx="581.0059" cy="692.9668" r="6"/>
    <circle cx="536.5431" cy="975.8033" r="6"/>
    <circle cx="358.3876" cy="396.4814" r="6"/>
    <circle cx="687.7398" cy="796.9175" r="6"/>
    <circle cx="899.0899" cy="432.1801" r="6"/>
    <circle cx="562.4835" cy="271.1875" r="6"/>
    <circle cx="561.6766" cy="520.1032" r="6"/>
    <circle cx="539.5552" cy="940.4247" r="6"/>
    <circle cx="717.8907" cy="72.2307" r="6"/>
    <circle cx="481.7509" cy="437.2254" r="6"/>
    <circle cx="410.0677" cy="957.0469" r="6"/>
    <circle cx="448.732" cy="685.6232" r="6"/>
    <circle cx="711.9961" cy="256.2642" r="6"/>
    <circle cx="738.0681" cy="922.9388" r="6"/>
    <circle cx="304.0173" cy="42.2664" r="6"/>
    <circle cx="148.4428" cy="872.9798" r="6"/>
    <circle cx="509.4645" cy="620.0542" r="6"/>
    <circle cx="603.097" cy="723.5738" r="6"/>
    <circle cx="17.3082" cy="551.1542" r="6"/>
    <circle cx="875.4618" cy="445.2667" r="6"/>
    <circle cx="940.2" cy="480.484" r="6"/>
    <circle cx="518.8426" cy="488.0735" r="6"/>
    <circle cx="868.8849" cy="437.575" r="6"/>
    <circle cx="915.9177" cy="308.0819" r="6"/>
    <circle cx="53.0538" cy="299.6769" r="6"/>
    <circle cx="348.3621" cy="367.8175" r="6"/>
    <circle cx="522.2392" cy="681.4342" r="6"/>
    <circle cx="456.6501" cy="660.536" r="6"/>
    <circle cx="497.4713" cy="82.811" r="6"/>
    <circle cx="515.7769" cy="372.1231" r="6"/>
    <circle cx="474.6756" cy="690.5656" r="6"/>
    <circle cx="540.7527" cy="557.0354" r="6"/>
    <circle cx="298.3905" cy="404.2232" r="6"/>
    <circle cx="320.87" cy="596.1157" r="6"/>
    <circle cx="735.7915" cy="320.4991" r="6"/>
    <circle cx="636.0478" cy="765.098" r="6"/>
    <circle cx="150.5115" cy="581.6542" r="6"/>
    <circle cx="615.2366" cy="34.3731" r="6"/>
    <circle cx="29.0887" cy="395.1355" r="6"/>
    <circle cx="731.7376" cy="654.1323" r="6"/>
    <circle cx="345.7037" cy="580.0397" r="6"/>
    <circle cx="948.6643" cy="684.2697" r="6"/>
    <circle cx="344.8799" cy="95.7744" r="6"/>
    <circle cx="484.7567" cy="921.3618" r="6"/>
    <circle cx="84.0548" cy="204.3525" r="6"/>
    <circle cx="304.192" cy="320.2591" r="6"/>
    <circle cx="668.0189" cy="505.3934" r="6"/>
    <circle cx="835.4408" cy="201.8564" r="6"/>
    <circle cx="198.1763" cy="185.9654" r="6"/>
    <circle cx="415.7409" cy="679.4358" r="6"/>
    <circle cx="617.1643" cy="789.726" r="6"/>
    <circle cx="765.1034" cy="145.8998" r="6"/>
    <circle cx="663.8651" cy="236.0506" r="6"/>
    <circle cx="232.7743" cy="324.2076" r="6"/>
    <circle cx="921.475" cy="593.4163" r="6"/>
    <circle cx="307.3965" cy="733.0987" r="6"/>
    <circle cx="246.2022" cy="347.1559" r="6"/>
    <circle cx="810.7182" cy="486.7027" r="6"/>
    <circle cx="726.4349" cy="427.4308" r="6"/>
    <circle cx="482.5221" cy="188.2766" r="6"/>
    <circle cx="878.1893" cy="181.7884" r="6"/>
    <circle cx="896.2495" cy="372.9936" r="6"/>
    <circle cx="510.6502" cy="656.8044" r="6"/>
    <circle cx="99.8649" cy="315.0804" r="6"/>
    <circle cx="658.0989" cy="697.1661" r="6"/>
    <circle cx="554.0288" cy="367.731" r="6"/>
    <circle cx="979.2631" cy="545.4578" r="6"/>
    <circle cx="337.9239" cy="338.208" r="6"/>
    <circle cx="299.087" cy="335.7697" r="6"/>
    <circle cx="448.1927" cy="515.8844" r="6"/>
    <circle cx="31.5273" cy="370.6052" r="6"/>
    <circle cx="397.2244" cy="612.7077" r="6"/>
    <circle cx="158.0714" cy="377.7681" r="6"/>
    <circle cx="803.1598" cy="145.5591" r="6"/>
    <circle cx="350.6056" cy="703.8721" r="6"/>
    <circle cx="140.1273" cy="851.9278" r="6"/>
    <circle cx="764.0375" cy="414.8422" r="6"/>
    <circle cx="360.245" cy="825.7813" r="6"/>
    <circle cx="877.3247" cy="644.0169" r="6"/>
    <circle cx="554.1248" cy="470.7711" r="6"/>
    <circle cx="642.4332" cy="930.1867" r="6"/>
    <circle cx="637.3372" cy="859.3791" r="6"/>
    <circle cx="372.4392" cy="490.8521" r="6"/>
    <circle cx="220.865" cy="636.7725" r="6"/>
    <circle cx="199.4029" cy="84.39" r="6"/>
    <circle cx="337.7216" cy="69.3805" r="6"/>
    <circle cx="397.358" cy="375.1735" r="6"/>
    <circle cx="785.6529" cy="803.159" r="6"/>
    <circle cx="469.2602" cy="833.9538" r="6"/>
    <circle cx="702.9699" cy="91.2657" r="6"/>
    <circle cx="937.7955" cy="389.942" r="6"/>
    <circle cx="780.4216" cy="647.7063" r="6"/>
    <circle cx="371.3724" cy="543.5371" r="6"/>
    <circle cx="320.287" cy="459.8925" r="6"/>
    <circle cx="95.6586" cy="355.8362" r="6"/>
    <circle cx="268.8357" cy="99.1967" r="6"/>
    <circle cx="765.666" cy="431.0708" r="6"/>
    <circle cx="234.9609" cy="60.5828" r="6"/>
    <circle cx="331.6577" cy="464.3817" r="6"/>
    <circle cx="496.2471" cy="31.3259" r="6"/>
    <circle cx="353.4898" cy="111.6155" r="6"/>
    <circle cx="659.7993" cy="143.4419" r="6"/>
    <circle cx="895.4883" cy="661.1241" r="6"/>
    <circle cx="621.7709" cy="977.0332" r="6"/>
    <circle cx="230.5333" cy="594.5092" r="6"/>
    <circle cx="640.9565" cy="896.9787" r="6"/>
    <circle cx="292.0776" cy="564.4086" r="6"/>
    <circle cx="454.1146" cy="176.6611" r="6"/>
    <circle cx="271.7784" cy="433.0245" r="6"/>
    <circle cx="276.788" cy="119.2633" r="6"/>
    <circle cx="663.6356" cy="584.7577" r="6"/>
    <circle cx="262.9661" cy="474.1363" r="6"/>
    <circle cx="63.8529" cy="496.4062" r="6"/>
    <circle cx="31.4004" cy="334.4399" r="6"/>
    <circle cx="553.6787" cy="642.5206" r="6"/>
    <circle cx="204.0956" cy="660.1657" r="6"/>
    <circle cx="497.6894" cy="586.739" r="6"/>
    <circle cx="871.002" cy="368.0674" r="6"/>
    <circle cx="219.6959" cy="593.3806" r="6"/>
    <circle cx="488.6701" cy="124.0793" r="6"/>
    <circle cx="746.9791" cy="121.7398" r="6"/>
    <circle cx="229.9953" cy="180.2593" r="6"/>
    <circle cx="759.2411" cy="97.4897" r="6"/>
    <circle cx="140.5755" cy="229.4885" r="6"/>
    <circle cx="316.0799" cy="444.4505" r="6"/>
    <circle cx="729.304" cy="718.6476" r="6"/>
    <circle cx="377.4424" cy="457.1009" r="6"/>
    <circle cx="781.0141" cy="121.5066" r="6"/>
    <circle cx="605.3949" cy="931.4813" r="6"/>
    <circle cx="121.232" cy="617.9702" r="6"/>
    <circle cx="291.4187" cy="420.4152" r="6"/>
    <circle cx="600.2778" cy="450.302" r="6"/>
    <circle cx="431.5297" cy="560.8654" r="6"/>
    <circle cx="395.2348" cy="548.2428" r="6"/>
    <circle cx="751.2111" cy="480.3862" r="6"/>
    <circle cx="94.8472" cy="753.3221" r="6"/>
    <circle cx="446.4521" cy="343.4516" r="6"/>
    <circle cx="694.532" cy="669.2094" r="6"/>
    <circle cx="378.9088" cy="691.1213" r="6"/>
    <circle cx="217.574" cy="855.3042" r="6"/>
    <circle cx="653.3127" cy="952.2053" r="6"/>
    <circle cx="131.1909" cy="488.3456" r="6"/>
    <circle cx="346.4238" cy="194.1607" r="6"/>
    <circle cx="567.0809" cy="601.208" r="6"/>
    <circle cx="869.421" cy="355.81" r="6"/>
    <circle cx="795.111" cy="585.2577" r="6"/>
    <circle cx="357.8645" cy="360.5488" r="6"/>
    <circle cx="9.3859" cy="416.4829" r="6"/>
    <circle cx="904.1714" cy="744.7392" r="6"/>
    <circle cx="584.2881" cy="426.596" r="6"/>
    <circle cx="475.114" cy="553.0588" r="6"/>
    <circle cx="722.8177" cy="460.1808" r="6"/>
    <circle cx="636.0777" cy="320.9228" r="6"/>
    <circle cx="522.0191" cy="63.5544" r="6"/>
    <circle cx="361.9539" cy="906.523" r="6"/>
    <circle cx="758.4382" cy="185.9953" r="6"/>
    <circle cx="80.4347" cy="292.7496" r="6"/>
    <circle cx="296.7846" cy="219.8016" r="6"/>
    <circle cx="761.914" cy="842.4884" r="6"/>
    <circle cx="667.5922" cy="770.0633" r="6"/>
    <circle cx="301.7268" cy="850.4641" r="6"/>
    <circle cx="513.6614" cy="284.2655" r="6"/>
    <circle cx="560.9306" cy="491.6255" r="6"/>
    <circle cx="843.3669" cy="512.9637" r="6"/>
    <circle cx="867.7685" cy="343.458" r="6"/>
    <circle cx="737.0597" cy="798.8238" r="6"/>
    <circle cx="853.2569" cy="629.6717" r="6"/>
    <circle cx="677.6155" cy="552.0413" r="6"/>
    <circle cx="687.3503" cy="934.1559" r="6"/>
    <circle cx="462.0338" cy="352.1809" r="6"/>
    <circle cx="893.4955" cy="151.9806" r="6"/>
    <circle cx="562.1875" cy="542.9165" r="6"/>
    <circle cx="356.1423" cy="938.4981" r="6"/>
    <circle cx="509.8206" cy="682.5854" r="6"/>
    <circle cx="501.9233" cy="805.0473" r="6"/>
    <circle cx="444.0293" cy="11.5786" r="6"/>
    <circle cx="494.2988" cy="166.8647" r="6"/>
    <circle cx="413.1984" cy="205.811" r="6"/>
    <circle cx="423.3072" cy="337.089" r="6"/>
    <circle cx="455.8705" cy="224.1099" r="6"/>
    <circle cx="235.6361" cy="601.1221" r="6"/>
    <circle cx="621.994" cy="954.5097" r="6"/>
    <circle cx="142.0924" cy="389.9313" r="6"/>
    <circle cx="950.9301" cy="485.7649" r="6"/>
    <circle cx="365.6553" cy="700.23" r="6"/>
    <circle cx="726.1432" cy="142.6771" r="6"/>
    <circle cx="615.2585" cy="600.8689" r="6"/>
    <circle cx="736.3119" cy="857.1969" r="6"/>
    <circle cx="765.6425" cy="206.699" r="6"/>
    <circle cx="479.0338" cy="70.8458" r="6"/>
    <circle cx="740.573" cy="451.5659" r="6"/>
    <circle cx="161.1274" cy="443.1613" r="6"/>
    <circle cx="530.6882" cy="335.3292" r="6"/>
    <circle cx="989.9696" cy="486.5359" r="6"/>
    <circle cx="962.0156" cy="513.5084" r="6"/>
    <circle cx="988.0296" cy="407.5496" r="6"/>
    <circle cx="423.4674" cy="588.7206" r="6"/>
    <circle cx="752.3528" cy="838.3653" r="6"/>
    <circle cx="238.5132" cy="561.5022" r="6"/>
    <circle cx="281.805" cy="278.1567" r="6"/>
    <circle cx="597.0267" cy="113.3989" r="6"/>
    <circle cx="367.756" cy="180.7536" r="6"/>
    <circle cx="663.8025" cy="445.7177" r="6"/>
    <circle cx="229.3195" cy="625.3531" r="6"/>
    <circle cx="498.5372" cy="561.2913" r="6"/>
    <circle cx="799.4846" cy="554.9501" r="6"/>
    <circle cx="381.0107" cy="291.867" r="6"/>
    <circle cx="703.6509" cy="550.9335" r="6"/>
    <circle cx="526.9196" cy="186.1031" r="6"/>
    <circle cx="720.9267" cy="587.2502" r="6"/>
    <circle cx="88.8497" cy="486.5108" r="6"/>
    <circle cx="100.8578" cy="714.6098" r="6"/>
    <circle cx="177.6413" cy="544.3877" r="6"/>
    <circle cx="412.1512" cy="922.3054" r="6"/>
    <circle cx="804.9592" cy="569.6111" r="6"/>
    <circle cx="350.6241" cy="865.3476" r="6"/>
    <circle cx="789.3961" cy="318.2131" r="6"/>
    <circle cx="877.7809" cy="737.2524" r="6"/>
    <circle cx="731.5563" cy="896.8947" r="6"/>
    <circle cx="139.1745" cy="719.5614" r="6"/>
    <circle cx="587.5514" cy="390.5216" r="6"/>
    <circle cx="337.1497" cy="745.3487" r="6"/>
    <circle cx="364.8181" cy="336.3314" r="6"/>
    <circle cx="681.9767" cy="452.6907" r="6"/>
    <circle cx="241.6309" cy="818.6277" r="6"/>
    <circle cx="720.0447" cy="612.1004" r="6"/>
    <circle cx="652.4312" cy="82.5182" r="6"/>
    <circle cx="677.8075" cy="701.3617" r="6"/>
    <circle cx="537.9945" cy="396.3225" r="6"/>
    <circle cx="602.6458" cy="699.767" r="6"/>
    <circle cx="258.3599" cy="205.1774" r="6"/>
    <circle cx="889.1456" cy="788.5573" r="6"/>
    <circle cx="864.5972" cy="507.278" r="6"/>
    <circle cx="210.3926" cy="411.6793" r="6"/>
    <circle cx="338.2088" cy="610.1462" r="6"/>
    <circle cx="804.419" cy="877.2208" r="6"/>
    <circle cx="304.4467" cy="835.7976" r="6"/>
    <circle cx="410.7195" cy="134.327" r="6"/>
    <circle cx="417.6162" cy="275.5993" r="6"/>
    <circle cx="516.9019" cy="401.2301" r="6"/>
    <circle cx="26.3635" cy="501.2687" r="6"/>
    <circle cx="149.2044" cy="299.3287" r="6"/>
    <circle cx="692.0394" cy="121.2537" r="6"/>
    <circle cx="962.6624" cy="485.7275" r="6"/>
    <circle cx="889.8902" cy="579.7902" r="6"/>
    <circle cx="746.4659" cy="641.5588" r="6"/>
    <circle cx="190.1945" cy="689.7947" r="6"/>
    <circle cx="818.2815" cy="663.6081" r="6"/>
    <circle cx="547.6998" cy="334.9736" r="6"/>
    <circle cx="608.3446" cy="443.2952" r="6"/>
    <circle cx="742.4919" cy="578.8671" r="6"/>
    <circle cx="420.2165" cy="818.7618" r="6"/>
    <circle cx="208.9269" cy="306.1127" r="6"/>
    <circle cx="593.5696" cy="473.0058" r="6"/>
    <circle cx="549.0618" cy="553.2568" r="6"/>
    <circle cx="752.2391" cy="449.2604" r="6"/>
    <circle cx="698.0246" cy="425.0292" r="6"/>
    <circle cx="345.323" cy="707.3206" r="6"/>
    <circle cx="589.4015" cy="707.2511" r="6"/>
    <circle cx="670.6628" cy="643.8069" r="6"/>
    <circle cx="771.9958" cy="401.0791" r="6"/>
    <circle cx="795.4311" cy="617.5314" r="6"/>
    <circle cx="312.9479" cy="199.783" r="6"/>
    <circle cx="287.7506" cy="207.7196" r="6"/>
    <circle cx="254.9436" cy="852.4315" r="6"/>
    <circle cx="58.0188" cy="348.4468" r="6"/>
    <circle cx="247.7262" cy="82.355" r="6"/>
    <circle cx="380.0151" cy="372.187" r="6"/>
    <circle cx="928.2507" cy="646.887" r="6"/>
    <circle cx="483.1134" cy="597.2813" r="6"/>
    <circle cx="360.2844" cy="173.1082" r="6"/>
    <circle cx="309.6686" cy="549.221" r="6"/>
    <circle cx="367.3037" cy="503.652" r="6"/>
    <circle cx="119.9566" cy="508.4248" r="6"/>
    <circle cx="295.8044" cy="501.9061" r="6"/>
    <circle cx="611.2674" cy="578.5978" r="6"/>
    <circle cx="455.9964" cy="903.7298" r="6"/>
    <circle cx="664.4766" cy="456.6196" r="6"/>
    <circle cx="396.0519" cy="120.0699" r="6"/>
    <circle cx="343.3999" cy="678.7232" r="6"/>
    <circle cx="796.0714" cy="899.9653" r="6"/>
    <circle cx="377.296" cy="408.5331" r="6"/>
    <circle cx="779.6079" cy="489.1003" r="6"/>
    <circle cx="687.9592" cy="33.6288" r="6"/>
    <circle cx="233.3834" cy="686.0862" r="6"/>
    <circle cx="863.0634" cy="622.4128" r="6"/>
    <circle cx="332.2588" cy="763.1609" r="6"/>
    <circle cx="556.8347" cy="233.9513" r="6"/>
    <circle cx="503.7646" cy="259.4701" r="6"/>
    <circle cx="152.0667" cy="491.4677" r="6"/>
    <circle cx="797.3776" cy="304.0517" r="6"/>
    <circle cx="158.1072" cy="220.5921" r="6"/>
    <circle cx="959.5871" cy="705.8756" r="6"/>
    <circle cx="183.7101" cy="401.7814" r="6"/>
    <circle cx="156.0192" cy="526.3943" r="6"/>
    <circle cx="261.7447" cy="776.1303" r="6"/>
    <circle cx="329.8035" cy="717.1135" r="6"/>
    <circle cx="480.0762" cy="579.5855" r="6"/>
    <circle cx="603.0569" cy="499.5874" r="6"/>
    <circle cx="693.4562" cy="780.7977" r="6"/>
    <circle cx="712.7053" cy="669.2985" r="6"/>
    <circle cx="435.2987" cy="515.4813" r="6"/>
    <circle cx="385.1405" cy="473.9371" r="6"/>
    <circle cx="220.2605" cy="567.202" r="6"/>
    <circle cx="724.0925" cy="943.6939" r="6"/>
    <circle cx="387.9387" cy="259.5992" r="6"/>
    <circle cx="453.0198" cy="618.1045" r="6"/>
    <circle cx="623.4395" cy="660.6738" r="6"/>
    <circle cx="234.2021" cy="782.3974" r="6"/>
    <circle cx="613.2224" cy="339.8582" r="6"/>
    <circle cx="413.2725" cy="321.0438" r="6"/>
    <circle cx="121.4795" cy="450.2233" r="6"/>
    <circle cx="433.7496" cy="912.3342" r="6"/>
    <circle cx="522.3124" cy="543.4136" r="6"/>
    <circle cx="592.5446" cy="413.771" r="6"/>
    <circle cx="356.1314" cy="471.611" r="6"/>
    <circle cx="408.2175" cy="334.068" r="6"/>
    <circle cx="592.4133" cy="500.8725" r="6"/>
    <circle cx="779.3116" cy="599.9008" r="6"/>
    <circle cx="452.197" cy="138.9464" r="6"/>
    <circle cx="170.5813" cy="97.0771" r="6"/>
    <circle cx="89.028" cy="590.531" r="6"/>
    <circle cx="470.8351" cy="774.9169" r="6"/>
    <circle cx="921.4173" cy="768.3459" r="6"/>
    <circle cx="501.5941" cy="122.7854" r="6"/>
    <circle cx="605.1222" cy="527.3324" r="6"/>
    <circle cx="379.9744" cy="927.1321" r="6"/>
    <circle cx="86.7517" cy="260.2993" r="6"/>
    <circle cx="200.571" cy="516.1791" r="6"/>
    <circle cx="546.5543" cy="445.3715" r="6"/>
    <circle cx="35.8168" cy="452.8089" r="6"/>
    <circle cx="460.1507" cy="418.169" r="6"/>
    <circle cx="790.5674" cy="757.3925" r="6"/>
    <circle cx="621.9344" cy="693.3844" r="6"/>
    <circle cx="425.6774" cy="533.1787" r="6"/>
    <circle cx="855.5872" cy="695.6025" r="6"/>
    <circle cx="468.0873" cy="232.3172" r="6"/>
    <circle cx="621.9148" cy="367.1919" r="6"/>
    <circle cx="498.0716" cy="426.2976" r="6"/>
    <circle cx="610.2976" cy="69.7345" r="6"/>
    <circle cx="154.9397" cy="136.0937" r="6"/>
    <circle cx="302.3416" cy="580.1073" r="6"/>
    <circle cx="646.7974" cy="147.5384" r="6"/>
    <circle cx="972.1789" cy="387.0219" r="6"/>
    <circle cx="632.5645" cy="376.6338" r="6"/>
    <circle cx="204.7238" cy="164.3237" r="6"/>
    <circle cx="662.2398" cy="261.5615" r="6"/>
    <circle cx="814.9852" cy="502.0655" r="6"/>
    <circle cx="123.1208" cy="224.4053" r="6"/>
    <circle cx="550.9089" cy="578.9546" r="6"/>
    <circle cx="594.2273" cy="91.2603" r="6"/>
    <circle cx="223.7408" cy="330.0979" r="6"/>
    <circle cx="712.2396" cy="773.391" r="6"/>
    <circle cx="598.1547" cy="480.437" r="6"/>
    <circle cx="610.1434" cy="558.1657" r="6"/>
    <circle cx="288.3708" cy="179.8077" r="6"/>
    <circle cx="573.0382" cy="453.6413" r="6"/>
    <circle cx="546.7123" cy="95.4697" r="6"/>
    <circle cx="369.3403" cy="942.5458" r="6"/>
    <circle cx="464.0306" cy="98.6812" r="6"/>
    <circle cx="737.3924" cy="117.0796" r="6"/>
    <circle cx="100.3265" cy="736.3327" r="6"/>
    <circle cx="609.0212" cy="148.6214" r="6"/>
    <circle cx="95.4389" cy="523.9266" r="6"/>
    <circle cx="251.3658" cy="822.6709" r="6"/>
    <circle cx="652.1594" cy="805.36" r="6"/>
    <circle cx="425.3232" cy="206.9083" r="6"/>
    <circle cx="515.2872" cy="890.9604" r="6"/>
    <circle cx="891.5321" cy="201.321" r="6"/>
    <circle cx="607.6051" cy="548.6477" r="6"/>
    <circle cx="62.8816" cy="422.8931" r="6"/>
    <circle cx="787.2652" cy="281.2348" r="6"/>
    <circle cx="518.6062" cy="769.2416" r="6"/>
    <circle cx="863.0336" cy="259.8047" r="6"/>
    <circle cx="730.2585" cy="530.1819" r="6"/>
    <circle cx="397.5943" cy="80.5518" r="6"/>
    <circle cx="350.0866" cy="555.7104" r="6"/>
    <circle cx="925.2845" cy="659.6575" r="6"/>
    <circle cx="817.9605" cy="611.1465" r="6"/>
    <circle cx="737.8699" cy="308.7111" r="6"/>
    <circle cx="447.4307" cy="576.1041" r="6"/>
    <circle cx="785.1072" cy="71.4686" r="6"/>
    <circle cx="195.282" cy="486.7321" r="6"/>
    <circle cx="563.0734" cy="131.2332" r="6"/>
    <circle cx="100.1431" cy="429.3513" r="6"/>
    <circle cx="932.2879" cy="504.314" r="6"/>
    <circle cx="797.7459" cy="455.9611" r="6"/>
    <circle cx="324.6544" cy="668.2495" r="6"/>
    <circle cx="607.5141" cy="257.3869" r="6"/>
    <circle cx="682.0761" cy="509.9861" r="6"/>
    <circle cx="706.5801" cy="517.7471" r="6"/>
    <circle cx="563.6237" cy="44.0183" r="6"/>
    <circle cx="688.8673" cy="954.3145" r="6"/>
    <circle cx="43.8089" cy="506.7001" r="6"/>
    <circle cx="287.5568" cy="575.6739" r="6"/>
    <circle cx="55.2962" cy="585.2407" r="6"/>
    <circle cx="752.6975" cy="429.5887" r="6"/>
    <circle cx="250.4546" cy="648.0603" r="6"/>
    <circle cx="585.5654" cy="899.1267" r="6"/>
    <circle cx="869.5202" cy="770.4922" r="6"/>
    <circle cx="491.3964" cy="622.4451" r="6"/>
    <circle cx="99.4452" cy="628.497" r="6"/>
    <circle cx="488.3256" cy="871.716" r="6"/>
    <circle cx="775.0576" cy="411.5968" r="6"/>
    <circle cx="934.4661" cy="572.0554" r="6"/>
    <circle cx="51.6469" cy="310.1046" r="6"/>
    <circle cx="477.5675" cy="160.9947" r="6"/>
    <circle cx="355.4409" cy="76.4683" r="6"/>
    <circle cx="386.4594" cy="281.9781" r="6"/>
    <circle cx="272.5118" cy="63.8847" r="6"/>
  </g>
</svg>
