<svg xmlns="http://www.w3.org/2000/svg" width="604" height="642"><g fill="#7FC0E6" stroke="#000"><path d="M383.3 194.1l-69.5 18.7 50.9 50.9 69.5 18.6 18.7-69.5-18.7-69.6zm0-139.1l-69.5 18.7 50.9 50.9 69.5 18.6 18.7-69.5-18.7-69.6zm139.1 0l-69.5 18.7 50.9 50.9 69.5 18.6L592 73.7 573.3 4.1zM244.2 194.1l-69.5 18.7 50.9 50.9 69.5 18.6 18.7-69.5-18.7-69.6zM105.1 333.2l-69.5 18.7 50.9 50.9 69.6 18.6 18.6-69.5-18.6-69.6zm0 139.1L35.6 491l50.9 50.9 69.6 18.6 18.6-69.5-18.6-69.6z"/><path d="M244.2 333.2l-69.5 18.7 50.9 50.9 69.5 18.6 18.7-69.5-18.7-69.6zm139.1 0l-69.5 18.7 50.9 50.9 69.5 18.6 18.7-69.5-18.7-69.6zm139.1-139.1l-69.5 18.7 50.9 50.9 69.5 18.6 18.7-69.5-18.7-69.6zM244.2 472.3L174.7 491l50.9 50.9 69.5 18.6 18.7-69.5-18.7-69.6zm139.1 0L313.8 491l50.9 50.9 69.5 18.6 18.7-69.5-18.7-69.6z"/><path d="M522.4 333.2l-69.5 18.7 50.9 50.9 69.5 18.6 18.7-69.5-18.7-69.6zm0 139.1L452.9 491l50.9 50.9 69.5 18.6L592 491l-18.7-69.6zM105.1 194.1l-69.5 18.7 50.9 50.9 69.6 18.6 18.6-69.5-18.6-69.6zM244.2 55l-69.5 18.7 50.9 50.9 69.5 18.6 18.7-69.5-18.7-69.6zm-139.1 0L35.6 73.7l50.9 50.9 69.6 18.6 18.6-69.5-18.6-69.6z"/><path d="M503.8 124.6l-50.9-50.9-18.7 69.5 18.7 69.6 69.5-18.7 50.9-50.9zM364.7 263.7l-50.9-50.9-18.7 69.5 18.7 69.6 69.5-18.7 50.9-50.9zm0-139.1l-50.9-50.9-18.7 69.5 18.7 69.6 69.5-18.7 50.9-50.9zM225.6 263.7l-50.9-50.9-18.6 69.5 18.6 69.6 69.5-18.7 50.9-50.9zM86.5 402.8l-50.9-50.9L17 421.4 35.6 491l69.5-18.7 51-50.9zm0 139.1L35.6 491 17 560.5 35.6 630l69.5-18.6 51-50.9zm139.1-139.1l-50.9-50.9-18.6 69.5 18.6 69.6 69.5-18.7 50.9-50.9zm278.2-139.1l-50.9-50.9-18.7 69.5 18.7 69.6 69.5-18.7 50.9-50.9zM364.7 402.8l-50.9-50.9-18.7 69.5 18.7 69.6 69.5-18.7 50.9-50.9zM225.6 541.9L174.7 491l-18.6 69.5 18.6 69.5 69.5-18.6 50.9-50.9zm278.2-139.1l-50.9-50.9-18.7 69.5 18.7 69.6 69.5-18.7 50.9-50.9zM364.7 541.9L313.8 491l-18.7 69.5 18.7 69.5 69.5-18.6 50.9-50.9zm139.1 0L452.9 491l-18.7 69.5 18.7 69.5 69.5-18.6 50.9-50.9zM86.5 263.7l-50.9-50.9L17 282.3l18.6 69.6 69.5-18.7 51-50.9zm139.1-139.1l-50.9-50.9-18.6 69.5 18.6 69.6 69.5-18.7 50.9-50.9zm-139.1 0L35.6 73.7 17 143.2l18.6 69.6 69.5-18.7 51-50.9z" fill="#FFE07F"/></g></svg>