<?xml version="1.0" encoding="utf-8"?>
<!-- Generator: Adobe Illustrator 26.2.1, SVG Export Plug-In . SVG Version: 6.00 Build 0)  -->
<svg version="1.1" id="Layer_1" xmlns="http://www.w3.org/2000/svg" xmlns:xlink="http://www.w3.org/1999/xlink" x="0px" y="0px"
	 width="936px" height="720px" viewBox="0 0 936 720" style="enable-background:new 0 0 936 720;" xml:space="preserve">
<style type="text/css">
	.st0{opacity:0.1;fill:#0081CD;enable-background:new    ;}
	.st1{fill:none;stroke:#000000;stroke-miterlimit:10;}
	.st2{fill:none;stroke:#BC1E46;stroke-miterlimit:10;stroke-dasharray:4,4;}
</style>
<circle class="st0" cx="468" cy="360" r="36"/>
<polygon class="st0" points="824.4,3.6 111.6,105.4 9.8,3.6 111.6,716.4 824.4,614.6 926.2,716.4 "/>
<polygon class="st0" points="807.6,8.3 118.1,119.1 17.6,22.1 128.4,711.7 817.9,600.9 918.4,697.9 "/>
<polygon class="st0" points="791.4,13.2 124.5,132.3 25.4,39.9 144.6,706.8 811.5,587.7 910.6,680.1 "/>
<polygon class="st0" points="775.8,18.2 131,145 33.4,57.1 160.2,701.8 805,575 902.6,662.9 "/>
<polygon class="st0" points="760.7,23.3 137.5,157.2 41.3,73.6 175.3,696.7 798.5,562.8 894.7,646.4 "/>
<polygon class="st0" points="746.2,28.5 144.1,168.9 49.3,89.4 189.8,691.5 791.9,551.1 886.7,630.6 "/>
<polygon class="st0" points="732.2,33.7 150.6,180.2 57.4,104.7 203.8,686.3 785.4,539.8 878.6,615.3 "/>
<polygon class="st0" points="718.7,39.1 157.1,190.9 65.4,119.3 217.3,680.9 778.9,529.1 870.6,600.7 "/>
<polygon class="st0" points="705.7,44.5 163.6,201.3 73.5,133.4 230.3,675.5 772.4,518.7 862.5,586.6 "/>
<polygon class="st0" points="693.2,50 170.1,211.2 81.6,146.9 242.8,670 765.9,508.8 854.4,573.1 "/>
<polygon class="st0" points="681.2,55.6 176.6,220.8 89.6,159.9 254.8,664.4 759.4,499.2 846.4,560.1 "/>
<polygon class="st0" points="669.6,61.1 183,229.9 97.6,172.3 266.4,658.9 753,490.1 838.4,547.7 "/>
<polygon class="st0" points="658.5,66.7 189.4,238.6 105.6,184.2 277.5,653.3 746.6,481.4 830.4,535.8 "/>
<polygon class="st0" points="647.8,72.3 195.8,247 113.6,195.7 288.2,647.7 740.2,473 822.4,524.3 "/>
<polygon class="st0" points="637.5,78 202,255 121.5,206.6 298.5,642 734,465 814.5,513.4 "/>
<polygon class="st0" points="627.6,83.6 208.3,262.7 129.3,217.1 308.4,636.4 727.7,457.3 806.7,502.9 "/>
<polygon class="st0" points="618.1,89.2 214.5,270 137.1,227.2 317.9,630.8 721.5,450 798.9,492.8 "/>
<polygon class="st0" points="609,94.9 220.6,277 144.8,236.8 327,625.1 715.4,443 791.2,483.2 "/>
<polygon class="st0" points="600.2,100.5 226.6,283.7 152.5,245.9 335.8,619.5 709.4,436.3 783.5,474.1 "/>
<polygon class="st0" points="591.9,106 232.6,290.1 160.1,254.7 344.1,614 703.4,429.9 775.9,465.3 "/>
<polygon class="st0" points="583.8,111.6 238.5,296.2 167.6,263.1 352.2,608.4 697.5,423.8 768.4,456.9 "/>
<polygon class="st0" points="576.1,117.1 244.4,302 175,271.1 359.9,602.9 691.6,418 761,448.9 "/>
<polygon class="st0" points="568.8,122.6 250.1,307.5 182.3,278.8 367.2,597.4 685.9,412.5 753.7,441.2 "/>
<polygon class="st0" points="561.7,128.1 255.8,312.8 189.6,286 374.3,591.9 680.2,407.2 746.4,434 "/>
<polygon class="st0" points="555,133.5 261.4,317.8 196.7,293 381,586.5 674.6,402.2 739.3,427 "/>
<polygon class="st0" points="548.5,138.8 266.9,322.6 203.7,299.6 387.5,581.2 669.1,397.4 732.3,420.4 "/>
<polygon class="st0" points="542.3,144.1 272.4,327.1 210.7,305.9 393.7,575.9 663.6,392.9 725.3,414.1 "/>
<polygon class="st0" points="536.4,149.4 277.7,331.4 217.5,311.9 399.6,570.6 658.3,388.6 718.5,408.1 "/>
<polygon class="st0" points="530.8,154.6 283,335.5 224.3,317.6 405.2,565.4 653,384.5 711.7,402.4 "/>
<polygon class="st0" points="525.4,159.7 288.1,339.4 230.9,323 410.6,560.3 647.9,380.6 705.1,397 "/>
<polygon class="st0" points="520.3,164.8 293.2,343.1 237.4,328.1 415.7,555.2 642.8,376.9 698.6,391.9 "/>
<polygon class="st0" points="515.4,169.8 298.2,346.5 243.8,333 420.6,550.2 637.8,373.5 692.2,387 "/>
<polygon class="st0" points="510.8,174.7 303.1,349.8 250.1,337.6 425.2,545.3 632.9,370.2 685.9,382.4 "/>
<polygon class="st0" points="506.4,179.6 307.9,352.9 256.3,341.9 429.6,540.4 628.1,367.1 679.7,378.1 "/>
<polygon class="st0" points="502.1,184.4 312.6,355.8 262.4,346.1 433.9,535.6 623.4,364.2 673.6,373.9 "/>
<polygon class="st0" points="498.1,189.1 317.2,358.6 268.4,350 437.9,530.9 618.8,361.4 667.6,370 "/>
<polygon class="st0" points="494.3,193.7 321.7,361.2 274.2,353.7 441.7,526.3 614.3,358.8 661.8,366.3 "/>
<polygon class="st0" points="490.7,198.3 326.1,363.6 279.9,357.1 445.3,521.7 609.9,356.4 656.1,362.9 "/>
<polygon class="st0" points="487.3,202.8 330.5,365.9 285.6,360.4 448.7,517.2 605.5,354.1 650.4,359.6 "/>
<polygon class="st0" points="484.1,207.2 334.7,368.1 291.1,363.5 451.9,512.8 601.3,351.9 644.9,356.5 "/>
<polygon class="st0" points="481,211.5 338.9,370.1 296.5,366.4 455,508.5 597.1,349.9 639.5,353.6 "/>
<polygon class="st0" points="478.1,215.8 342.9,372 301.7,369.1 457.9,504.2 593.1,348 634.3,350.9 "/>
<polygon class="st0" points="475.3,220 346.9,373.7 306.9,371.6 460.7,500 589.1,346.3 629.1,348.4 "/>
<polygon class="st0" points="472.7,224.1 350.8,375.4 312,374 463.3,495.9 585.2,344.6 624,346 "/>
<polygon class="st0" points="470.3,228.1 354.6,376.9 316.9,376.2 465.7,491.9 581.4,343.1 619.1,343.8 "/>
<polygon class="st0" points="468,232 358.3,378.3 321.7,378.3 468,488 577.7,341.7 614.3,341.7 "/>
<polygon class="st0" points="465.8,235.9 361.9,379.6 326.5,380.2 470.2,484.1 574.1,340.4 609.5,339.8 "/>
<polygon class="st0" points="463.8,239.7 365.4,380.8 331.1,382 472.2,480.3 570.6,339.2 604.9,338 "/>
<polygon class="st0" points="461.9,243.4 368.9,381.9 335.6,383.7 474.1,476.6 567.1,338.1 600.4,336.3 "/>
<polygon class="st0" points="460.1,247 372.2,382.9 340,385.2 475.9,473 563.8,337.1 596,334.8 "/>
<polygon class="st0" points="458.4,250.5 375.5,383.9 344.2,386.6 477.6,469.5 560.5,336.1 591.8,333.4 "/>
<polygon class="st0" points="456.9,254 378.7,384.7 348.4,387.9 479.1,466 557.3,335.3 587.6,332.1 "/>
<polygon class="st0" points="455.4,257.4 381.8,385.5 352.5,389.1 480.6,462.6 554.2,334.5 583.5,330.9 "/>
<polygon class="st0" points="454,260.7 384.9,386.2 356.5,390.1 482,459.3 551.1,333.8 579.5,329.9 "/>
<polygon class="st0" points="452.8,263.9 387.8,386.8 360.3,391.1 483.2,456.1 548.2,333.2 575.7,328.9 "/>
<polygon class="st0" points="451.6,267.1 390.7,387.3 364.1,392 484.4,452.9 545.3,332.7 571.9,328 "/>
<polygon class="st0" points="450.5,270.1 393.5,387.8 367.8,392.8 485.5,449.9 542.5,332.2 568.2,327.2 "/>
<polygon class="st0" points="449.5,273.1 396.2,388.2 371.4,393.5 486.5,446.9 539.8,331.8 564.6,326.5 "/>
<polygon class="st0" points="448.6,276.1 398.8,388.6 374.8,394.1 487.4,443.9 537.2,331.4 561.2,325.9 "/>
<polygon class="st0" points="447.8,278.9 401.4,388.9 378.2,394.7 488.2,441.1 534.6,331.1 557.8,325.3 "/>
<polygon class="st0" points="447,281.7 403.9,389.2 381.5,395.2 489,438.3 532.1,330.8 554.5,324.8 "/>
<polygon class="st0" points="446.3,284.4 406.3,389.4 384.7,395.6 489.7,435.6 529.7,330.6 551.3,324.4 "/>
<polygon class="st0" points="445.7,287.1 408.7,389.5 387.8,395.9 490.3,432.9 527.3,330.5 548.2,324.1 "/>
<polygon class="st0" points="445.1,289.7 411,389.6 390.9,396.2 490.9,430.3 525,330.4 545.1,323.8 "/>
<polygon class="st0" points="444.6,292.2 413.2,389.7 393.8,396.4 491.4,427.8 522.8,330.3 542.2,323.6 "/>
<polygon class="st0" points="444.2,294.6 415.3,389.7 396.7,396.5 491.8,425.4 520.7,330.3 539.3,323.5 "/>
<polygon class="st0" points="443.8,297 417.4,389.7 399.4,396.7 492.2,423 518.6,330.3 536.6,323.3 "/>
<polygon class="st0" points="443.5,299.3 419.5,389.7 402.1,396.7 492.5,420.7 516.5,330.3 533.9,323.3 "/>
<polygon class="st0" points="443.2,301.5 421.4,389.6 404.7,396.7 492.8,418.5 514.6,330.4 531.3,323.3 "/>
<polygon class="st0" points="442.9,303.7 423.3,389.5 407.3,396.7 493.1,416.3 512.7,330.5 528.7,323.3 "/>
<polygon class="st0" points="442.7,305.8 425.2,389.4 409.7,396.6 493.3,414.2 510.8,330.6 526.3,323.4 "/>
<polygon class="st0" points="442.6,307.9 427,389.2 412.1,396.5 493.4,412.1 509,330.8 523.9,323.5 "/>
<polygon class="st0" points="442.5,309.9 428.7,389 414.4,396.3 493.5,410.1 507.3,331 521.6,323.7 "/>
<polygon class="st0" points="442.4,311.8 430.4,388.8 416.6,396.1 493.6,408.2 505.6,331.2 519.4,323.9 "/>
<polygon class="st0" points="442.3,313.7 432,388.6 418.8,395.9 493.7,406.3 504,331.4 517.2,324.1 "/>
<polygon class="st0" points="442.3,315.6 433.6,388.3 420.9,395.7 493.7,404.4 502.4,331.7 515.1,324.3 "/>
<polygon class="st0" points="442.4,317.3 435.1,388.1 422.9,395.4 493.6,402.7 500.9,331.9 513.1,324.6 "/>
<polygon class="st0" points="442.4,319 436.6,387.8 424.9,395.1 493.6,401 499.4,332.2 511.1,324.9 "/>
<polygon class="st0" points="442.5,320.7 438,387.5 426.7,394.8 493.5,399.3 498,332.5 509.3,325.2 "/>
<polygon class="st0" points="442.6,322.3 439.3,387.2 428.6,394.4 493.4,397.7 496.7,332.8 507.4,325.6 "/>
<polygon class="st0" points="442.7,323.9 440.7,386.8 430.4,394 493.3,396.1 495.3,333.2 505.6,326 "/>
<polygon class="st0" points="442.9,325.4 441.9,386.5 432.1,393.7 493.1,394.6 494.1,333.5 503.9,326.3 "/>
<polygon class="st0" points="443,326.9 443.2,386.1 433.7,393.3 493,393.1 492.8,333.9 502.3,326.7 "/>
<polygon class="st0" points="443.2,328.3 444.4,385.8 435.3,392.8 492.8,391.7 491.6,334.2 500.7,327.2 "/>
<polygon class="st0" points="443.4,329.7 445.5,385.4 436.9,392.4 492.6,390.3 490.5,334.6 499.1,327.6 "/>
<polygon class="st0" points="443.7,331 446.6,385 438.3,391.9 492.3,389 489.4,335 497.7,328.1 "/>
<polygon class="st0" points="443.9,332.3 447.7,384.6 439.8,391.5 492.1,387.7 488.3,335.4 496.2,328.5 "/>
<polygon class="st0" points="444.2,333.5 448.7,384.2 441.2,391 491.8,386.5 487.3,335.8 494.8,329 "/>
<polygon class="st0" points="444.4,334.7 449.7,383.8 442.5,390.5 491.6,385.3 486.3,336.2 493.5,329.5 "/>
<polygon class="st0" points="444.7,335.9 450.7,383.4 443.8,390 491.3,384.1 485.3,336.6 492.2,330 "/>
<polygon class="st0" points="445,337 451.6,383 445,389.5 491,383 484.4,337 491,330.5 "/>
<polygon class="st1" points="824.4,3.6 111.6,105.4 9.8,3.6 111.6,716.4 824.4,614.6 926.2,716.4 "/>
<polygon class="st1" points="807.6,8.3 118.1,119.1 17.6,22.1 128.4,711.7 817.9,600.9 918.4,697.9 "/>
<polygon class="st1" points="791.4,13.2 124.5,132.3 25.4,39.9 144.6,706.8 811.5,587.7 910.6,680.1 "/>
<polygon class="st1" points="775.8,18.2 131,145 33.4,57.1 160.2,701.8 805,575 902.6,662.9 "/>
<polygon class="st1" points="760.7,23.3 137.5,157.2 41.3,73.6 175.3,696.7 798.5,562.8 894.7,646.4 "/>
<polygon class="st1" points="746.2,28.5 144.1,168.9 49.3,89.4 189.8,691.5 791.9,551.1 886.7,630.6 "/>
<polygon class="st1" points="732.2,33.7 150.6,180.2 57.4,104.7 203.8,686.3 785.4,539.8 878.6,615.3 "/>
<polygon class="st1" points="718.7,39.1 157.1,190.9 65.4,119.3 217.3,680.9 778.9,529.1 870.6,600.7 "/>
<polygon class="st1" points="705.7,44.5 163.6,201.3 73.5,133.4 230.3,675.5 772.4,518.7 862.5,586.6 "/>
<polygon class="st1" points="693.2,50 170.1,211.2 81.6,146.9 242.8,670 765.9,508.8 854.4,573.1 "/>
<polygon class="st1" points="681.2,55.6 176.6,220.8 89.6,159.9 254.8,664.4 759.4,499.2 846.4,560.1 "/>
<polygon class="st1" points="669.6,61.1 183,229.9 97.6,172.3 266.4,658.9 753,490.1 838.4,547.7 "/>
<polygon class="st1" points="658.5,66.7 189.4,238.6 105.6,184.2 277.5,653.3 746.6,481.4 830.4,535.8 "/>
<polygon class="st1" points="647.8,72.3 195.8,247 113.6,195.7 288.2,647.7 740.2,473 822.4,524.3 "/>
<polygon class="st1" points="637.5,78 202,255 121.5,206.6 298.5,642 734,465 814.5,513.4 "/>
<polygon class="st1" points="627.6,83.6 208.3,262.7 129.3,217.1 308.4,636.4 727.7,457.3 806.7,502.9 "/>
<polygon class="st1" points="618.1,89.2 214.5,270 137.1,227.2 317.9,630.8 721.5,450 798.9,492.8 "/>
<polygon class="st1" points="609,94.9 220.6,277 144.8,236.8 327,625.1 715.4,443 791.2,483.2 "/>
<polygon class="st1" points="600.2,100.5 226.6,283.7 152.5,245.9 335.8,619.5 709.4,436.3 783.5,474.1 "/>
<polygon class="st1" points="591.9,106 232.6,290.1 160.1,254.7 344.1,614 703.4,429.9 775.9,465.3 "/>
<polygon class="st1" points="583.8,111.6 238.5,296.2 167.6,263.1 352.2,608.4 697.5,423.8 768.4,456.9 "/>
<polygon class="st1" points="576.1,117.1 244.4,302 175,271.1 359.9,602.9 691.6,418 761,448.9 "/>
<polygon class="st1" points="568.8,122.6 250.1,307.5 182.3,278.8 367.2,597.4 685.9,412.5 753.7,441.2 "/>
<polygon class="st1" points="561.7,128.1 255.8,312.8 189.6,286 374.3,591.9 680.2,407.2 746.4,434 "/>
<polygon class="st1" points="555,133.5 261.4,317.8 196.7,293 381,586.5 674.6,402.2 739.3,427 "/>
<polygon class="st1" points="548.5,138.8 266.9,322.6 203.7,299.6 387.5,581.2 669.1,397.4 732.3,420.4 "/>
<polygon class="st1" points="542.3,144.1 272.4,327.1 210.7,305.9 393.7,575.9 663.6,392.9 725.3,414.1 "/>
<polygon class="st1" points="536.4,149.4 277.7,331.4 217.5,311.9 399.6,570.6 658.3,388.6 718.5,408.1 "/>
<polygon class="st1" points="530.8,154.6 283,335.5 224.3,317.6 405.2,565.4 653,384.5 711.7,402.4 "/>
<polygon class="st1" points="525.4,159.7 288.1,339.4 230.9,323 410.6,560.3 647.9,380.6 705.1,397 "/>
<polygon class="st1" points="520.3,164.8 293.2,343.1 237.4,328.1 415.7,555.2 642.8,376.9 698.6,391.9 "/>
<polygon class="st1" points="515.4,169.8 298.2,346.5 243.8,333 420.6,550.2 637.8,373.5 692.2,387 "/>
<polygon class="st1" points="510.8,174.7 303.1,349.8 250.1,337.6 425.2,545.3 632.9,370.2 685.9,382.4 "/>
<polygon class="st1" points="506.4,179.6 307.9,352.9 256.3,341.9 429.6,540.4 628.1,367.1 679.7,378.1 "/>
<polygon class="st1" points="502.1,184.4 312.6,355.8 262.4,346.1 433.9,535.6 623.4,364.2 673.6,373.9 "/>
<polygon class="st1" points="498.1,189.1 317.2,358.6 268.4,350 437.9,530.9 618.8,361.4 667.6,370 "/>
<polygon class="st1" points="494.3,193.7 321.7,361.2 274.2,353.7 441.7,526.3 614.3,358.8 661.8,366.3 "/>
<polygon class="st1" points="490.7,198.3 326.1,363.6 279.9,357.1 445.3,521.7 609.9,356.4 656.1,362.9 "/>
<polygon class="st1" points="487.3,202.8 330.5,365.9 285.6,360.4 448.7,517.2 605.5,354.1 650.4,359.6 "/>
<polygon class="st1" points="484.1,207.2 334.7,368.1 291.1,363.5 451.9,512.8 601.3,351.9 644.9,356.5 "/>
<polygon class="st1" points="481,211.5 338.9,370.1 296.5,366.4 455,508.5 597.1,349.9 639.5,353.6 "/>
<polygon class="st1" points="478.1,215.8 342.9,372 301.7,369.1 457.9,504.2 593.1,348 634.3,350.9 "/>
<polygon class="st1" points="475.3,220 346.9,373.7 306.9,371.6 460.7,500 589.1,346.3 629.1,348.4 "/>
<polygon class="st1" points="472.7,224.1 350.8,375.4 312,374 463.3,495.9 585.2,344.6 624,346 "/>
<polygon class="st1" points="470.3,228.1 354.6,376.9 316.9,376.2 465.7,491.9 581.4,343.1 619.1,343.8 "/>
<polygon class="st1" points="468,232 358.3,378.3 321.7,378.3 468,488 577.7,341.7 614.3,341.7 "/>
<polygon class="st1" points="465.8,235.9 361.9,379.6 326.5,380.2 470.2,484.1 574.1,340.4 609.5,339.8 "/>
<polygon class="st1" points="463.8,239.7 365.4,380.8 331.1,382 472.2,480.3 570.6,339.2 604.9,338 "/>
<polygon class="st1" points="461.9,243.4 368.9,381.9 335.6,383.7 474.1,476.6 567.1,338.1 600.4,336.3 "/>
<polygon class="st1" points="460.1,247 372.2,382.9 340,385.2 475.9,473 563.8,337.1 596,334.8 "/>
<polygon class="st1" points="458.4,250.5 375.5,383.9 344.2,386.6 477.6,469.5 560.5,336.1 591.8,333.4 "/>
<polygon class="st1" points="456.9,254 378.7,384.7 348.4,387.9 479.1,466 557.3,335.3 587.6,332.1 "/>
<polygon class="st1" points="455.4,257.4 381.8,385.5 352.5,389.1 480.6,462.6 554.2,334.5 583.5,330.9 "/>
<polygon class="st1" points="454,260.7 384.9,386.2 356.5,390.1 482,459.3 551.1,333.8 579.5,329.9 "/>
<polygon class="st1" points="452.8,263.9 387.8,386.8 360.3,391.1 483.2,456.1 548.2,333.2 575.7,328.9 "/>
<polygon class="st1" points="451.6,267.1 390.7,387.3 364.1,392 484.4,452.9 545.3,332.7 571.9,328 "/>
<polygon class="st1" points="450.5,270.1 393.5,387.8 367.8,392.8 485.5,449.9 542.5,332.2 568.2,327.2 "/>
<polygon class="st1" points="449.5,273.1 396.2,388.2 371.4,393.5 486.5,446.9 539.8,331.8 564.6,326.5 "/>
<polygon class="st1" points="448.6,276.1 398.8,388.6 374.8,394.1 487.4,443.9 537.2,331.4 561.2,325.9 "/>
<polygon class="st1" points="447.8,278.9 401.4,388.9 378.2,394.7 488.2,441.1 534.6,331.1 557.8,325.3 "/>
<polygon class="st1" points="447,281.7 403.9,389.2 381.5,395.2 489,438.3 532.1,330.8 554.5,324.8 "/>
<polygon class="st1" points="446.3,284.4 406.3,389.4 384.7,395.6 489.7,435.6 529.7,330.6 551.3,324.4 "/>
<polygon class="st1" points="445.7,287.1 408.7,389.5 387.8,395.9 490.3,432.9 527.3,330.5 548.2,324.1 "/>
<polygon class="st1" points="445.1,289.7 411,389.6 390.9,396.2 490.9,430.3 525,330.4 545.1,323.8 "/>
<polygon class="st1" points="444.6,292.2 413.2,389.7 393.8,396.4 491.4,427.8 522.8,330.3 542.2,323.6 "/>
<polygon class="st1" points="444.2,294.6 415.3,389.7 396.7,396.5 491.8,425.4 520.7,330.3 539.3,323.5 "/>
<polygon class="st1" points="443.8,297 417.4,389.7 399.4,396.7 492.2,423 518.6,330.3 536.6,323.3 "/>
<polygon class="st1" points="443.5,299.3 419.5,389.7 402.1,396.7 492.5,420.7 516.5,330.3 533.9,323.3 "/>
<polygon class="st1" points="443.2,301.5 421.4,389.6 404.7,396.7 492.8,418.5 514.6,330.4 531.3,323.3 "/>
<polygon class="st1" points="442.9,303.7 423.3,389.5 407.3,396.7 493.1,416.3 512.7,330.5 528.7,323.3 "/>
<polygon class="st1" points="442.7,305.8 425.2,389.4 409.7,396.6 493.3,414.2 510.8,330.6 526.3,323.4 "/>
<polygon class="st1" points="442.6,307.9 427,389.2 412.1,396.5 493.4,412.1 509,330.8 523.9,323.5 "/>
<polygon class="st1" points="442.5,309.9 428.7,389 414.4,396.3 493.5,410.1 507.3,331 521.6,323.7 "/>
<polygon class="st1" points="442.4,311.8 430.4,388.8 416.6,396.1 493.6,408.2 505.6,331.2 519.4,323.9 "/>
<polygon class="st1" points="442.3,313.7 432,388.6 418.8,395.9 493.7,406.3 504,331.4 517.2,324.1 "/>
<polygon class="st1" points="442.3,315.6 433.6,388.3 420.9,395.7 493.7,404.4 502.4,331.7 515.1,324.3 "/>
<polygon class="st1" points="442.4,317.3 435.1,388.1 422.9,395.4 493.6,402.7 500.9,331.9 513.1,324.6 "/>
<polygon class="st1" points="442.4,319 436.6,387.8 424.9,395.1 493.6,401 499.4,332.2 511.1,324.9 "/>
<polygon class="st1" points="442.5,320.7 438,387.5 426.7,394.8 493.5,399.3 498,332.5 509.3,325.2 "/>
<polygon class="st1" points="442.6,322.3 439.3,387.2 428.6,394.4 493.4,397.7 496.7,332.8 507.4,325.6 "/>
<polygon class="st1" points="442.7,323.9 440.7,386.8 430.4,394 493.3,396.1 495.3,333.2 505.6,326 "/>
<polygon class="st1" points="442.9,325.4 441.9,386.5 432.1,393.7 493.1,394.6 494.1,333.5 503.9,326.3 "/>
<polygon class="st1" points="443,326.9 443.2,386.1 433.7,393.3 493,393.1 492.8,333.9 502.3,326.7 "/>
<polygon class="st1" points="443.2,328.3 444.4,385.8 435.3,392.8 492.8,391.7 491.6,334.2 500.7,327.2 "/>
<polygon class="st1" points="443.4,329.7 445.5,385.4 436.9,392.4 492.6,390.3 490.5,334.6 499.1,327.6 "/>
<polygon class="st1" points="443.7,331 446.6,385 438.3,391.9 492.3,389 489.4,335 497.7,328.1 "/>
<polygon class="st1" points="443.9,332.3 447.7,384.6 439.8,391.5 492.1,387.7 488.3,335.4 496.2,328.5 "/>
<polygon class="st1" points="444.2,333.5 448.7,384.2 441.2,391 491.8,386.5 487.3,335.8 494.8,329 "/>
<polygon class="st1" points="444.4,334.7 449.7,383.8 442.5,390.5 491.6,385.3 486.3,336.2 493.5,329.5 "/>
<polygon class="st1" points="444.7,335.9 450.7,383.4 443.8,390 491.3,384.1 485.3,336.6 492.2,330 "/>
<polygon class="st1" points="445,337 451.6,383 445,389.5 491,383 484.4,337 491,330.5 "/>
<polygon class="st1" points="445.3,338.1 452.5,382.6 446.2,389 490.7,381.9 483.5,337.4 489.8,331 "/>
<polygon points="445.3,338.1 452.5,382.6 446.2,389 490.7,381.9 483.5,337.4 489.8,331 "/>
<line class="st2" x1="926.2" y1="716.4" x2="9.8" y2="3.6"/>
</svg>
