<svg xmlns="http://www.w3.org/2000/svg" width="558" height="558"><path opacity=".5" fill="#FEC200" d="M513 9H45C25.2 9 9 25.2 9 45v468c0 19.8 16.2 36 36 36h36c19.8 0 36-16.2 36-36V117h396c19.8 0 36-16.2 36-36V45c0-19.8-16.2-36-36-36z"/><path opacity=".5" fill="#BC1E46" d="M504 18h-27c-19.8 0-36 16.2-36 36v243H54c-19.8 0-36 16.2-36 36v36c0 19.8 16.2 36 36 36h387v99c0 19.8 16.2 36 36 36h27c19.8 0 36-16.2 36-36V54c0-19.8-16.2-36-36-36z"/><g stroke="#000"><path d="M63 63v432M207 63v432M351 63v432M495 63v432m-432 0h432M63 351h432M63 207h432M63 63h432" fill="none" stroke-width="2"/><circle fill="#FEC200" cx="63" cy="63" r="18"/><circle fill="#BC1E46" cx="495" cy="351" r="18"/><g fill="#0081CD"><circle cx="63" cy="495" r="18"/><circle cx="63" cy="351" r="18"/><circle cx="63" cy="207" r="18"/><circle cx="207" cy="495" r="18"/><circle cx="207" cy="351" r="18"/><circle cx="207" cy="207" r="18"/><circle cx="207" cy="63" r="18"/><circle cx="351" cy="495" r="18"/><circle cx="351" cy="351" r="18"/><circle cx="351" cy="207" r="18"/><circle cx="351" cy="63" r="18"/><circle cx="495" cy="495" r="18"/><circle cx="495" cy="207" r="18"/><circle cx="495" cy="63" r="18"/></g></g></svg>