<svg xmlns="http://www.w3.org/2000/svg" width="1386" height="1359"><g fill="none" stroke="#7FC0E6" stroke-width="12"><path d="M584.7 136.1c.4 61.7 92.2 194.7 216.3 144.3m.3-144.3c-.4 61.7-92.2 194.7-216.3 144.3"/><path d="M584.7 136.1l109.2 73.2L801 137.1 693 64.3zM211.1 420.3c48.5 38.1 209.7 49.3 247.7-79.2m-112.6-90.2c48 38.8 94.7 193.5-22.1 259.1"/><path d="M211.1 420.3l125.4-39.7 10.3-128.8-124.2 39.1zm-10.6 469.3c60.1-14.2 169.3-133.3 92.5-243m-140.8 31.7C212.5 665 362.6 724.9 341 857.1"/><path d="M200.5 889.6l47.1-122.8-94.3-88.4-46.9 121.5zm360.2 300.9c26.4-55.8 1.3-215.4-132.3-223.8"/><path d="M560.7 1190.5l-66.6-113.4-127.9 18.6 65.8 112.4zm459.9-94.1C993.4 1041 853 961 763.1 1060.3m62.3 130.2C799 1134.7 824 975 957.7 966.6"/><path d="M1020.6 1096.4l-130.2-18.6-65.2 111.6 128.9 18.7zm213.2-418.2c-60.3-13.3-210.3 46.6-188.8 178.8m140.6 32.5c-60.1-14.1-169.3-133.2-92.5-243"/><path d="M1233.8 678.2l-95.8 90.3 46.7 120.4 94.9-89.1zm-194.1-427.4c-48 38.8-94.7 193.5 22.1 259.1m113-89.7c-48.5 38.1-209.7 49.3-247.7-79.2"/><path d="M1039.7 250.8l10.9 131.1 123.2 38.7-10.5-129.8zm-674.2 845.7c27.2-55.4 167.6-135.4 257.5-36.1m-191 150.1c63 112.5 256.5 225 396-22.5m126 22.5c-63 112.5-256.5 225-396-22.5m67.5-126c0-29.8 30.2-54 67.5-54s67.5 24.2 67.5 54M956 1209.5c127.2 20.9 335.8-60.3 229.3-323.6m96.1-84.5c48.7 119.4 16 340.8-264.5 295.6m-56.4-131.3c-23.3-18.6-23.4-57.3-.1-86.4 23.2-29.1 61-37.7 84.3-19.1m237.2-60.9c95.7-86.5 162.3-300.1-110.1-381.1m-6-127.8c123.7 36.4 276.4 200 66.2 391.1m-137.9-37.8c-29.1 6.6-59.4-17.4-67.7-53.8-8.3-36.3 8.5-71.2 37.6-77.8m100.4-223.5c-8-128.7-133.5-314-366.6-151.5M694.1 62.2c105.6-74 328.7-91.5 347 192.1m-115.5 84.2c-12.9 26.9-50.7 35.5-84.2 19.4s-50.4-51.1-37.4-78M691.8 62.2c-105.6-74-328.7-91.4-347 192.1m-123.2 34.4C229.5 160 355-25.3 588.1 137.1M582 279.9c12.9 26.9-3.8 61.8-37.4 77.9-33.6 16.2-71.3 7.5-84.2-19.4m-240.2-48C96.5 326.8-56.2 490.5 154 681.5m-49.9 117.9C8.4 713-58.2 499.3 214.1 418.3m107.8 93.8c29.1 6.6 45.9 41.5 37.6 77.8-8.3 36.3-38.6 60.4-67.7 53.8M104.6 801.5C55.9 920.9 88.7 1142.3 369.1 1097m61 112.6c-127.2 20.9-335.8-60.2-229.4-323.6m140.6-25.8c23.3-18.6 61.1-10.1 84.3 19.1 23.2 29.1 23.2 67.8-.1 86.4M585.6 281l458.8 575.4M800.4 281L341.6 856.4M325 510l735.9-.1M459 342l163.7 717.4m-281.1-203L800.4 281M293.8 646.9l663 319.3m-334 93.2L458.9 342m-29.7 624.2l663-319.3m-328.9 412.5L927 342"/><path d="M927 342c23.4-194.8-163.1-136.5-234-135-70.9-1.5-257.4-59.8-234 135"/><path d="M585.6 281c-137.7-139.8-208.4 42.4-251.4 98.8-45.4 54.5-207.3 164-40.3 267.1"/><path d="M325 510c-195.1 20.5-96.8 189.4-79.5 258.2 14.3 69.5-1 264.3 183.7 198.1"/><path d="M341.6 856.4c-105.6 165.4 87.7 193.7 152.3 223.1 63.2 32.1 206 165.6 269.4-20.1"/><path d="M622.8 1059.4c63.5 185.7 206.2 52.2 269.4 20.1 64.5-29.4 257.9-57.8 152.2-223.2"/><path d="M956.8 966.2c184.7 66.2 169.3-128.7 183.7-198.1 17.2-68.8 115.6-237.7-79.6-258.2"/><path d="M1092.2 646.9c166.9-103.2 5-212.6-40.4-267.1-43.1-56.4-113.8-238.5-251.5-98.7"/></g><path d="M693 18l-36.2 17.4-9 39.2 25.1 31.5h40.2l25.1-31.5-9-39.2zm0 144l-36.2 17.4-9 39.2 25.1 31.5h40.2l25.1-31.5-9-39.2zm-108 72l-36.2 17.4-9 39.2 25.1 31.5h40.2l25.1-31.5-9-39.2zm216 0l-36.2 17.4-9 39.2 25.1 31.5h40.2l25.1-31.5-9-39.2zM585 90l-36.2 17.4-9 39.2 25.1 31.5h40.2l25.1-31.5-9-39.2zm216 0l-36.2 17.4-9 39.2 25.1 31.5h40.2l25.1-31.5-9-39.2zM243.2 332.9l25.1-31.5-8.9-39.1-36.3-17.5-36.2 17.5-8.9 39.1 25 31.5zm112.1 89.2l25.1-31.4-8.9-39.2-36.3-17.5-36.2 17.5-8.9 39.2 25 31.4zm-10.7 129.5l25-31.4-8.9-39.2-36.2-17.5-36.3 17.5-8.9 39.2 25.1 31.4zm134.3-168.8l25.1-31.4-9-39.2-36.2-17.4-36.2 17.4-9 39.2 25.1 31.4zm-247.3 79.3l25.1-31.5-9-39.2-36.2-17.4-36.2 17.5-9 39.1 25.1 31.5zM367 292.9l25-31.4-8.9-39.2-36.2-17.5-36.3 17.5-8.9 39.2 25.1 31.4zM70.2 771l-9 39.2 25.1 31.4h40.2l25.1-31.4-9-39.2-36.2-17.5zm140.2-31.8l-8.9 39.2 25 31.5h40.2l25.1-31.5-8.9-39.2-36.3-17.4zm94.4 89l-8.9 39.2 25 31.5h40.2l25.1-31.5-8.9-39.2-36.3-17.4zm-48.1-210.7l-8.9 39.2 25 31.5 40.2-.1 25.1-31.4-9-39.2-36.2-17.4zm-92.3 242.7l-8.9 39.2 25 31.5h40.2l25.1-31.5-8.9-39.2-36.3-17.4zM116.2 650l-9 39.2 25.1 31.4h40.2l25.1-31.4-9-39.2-36.2-17.5zM477 1218.5l-9-39.2-36.2-17.5-36.2 17.5-9 39.2 25.1 31.4h40.2zm62.1-129.3l-9-39.2-36.2-17.5-36.2 17.5-8.9 39.2 25 31.4H514zm129.1-18.6l-9-39.1L623 1014l-36.2 17.5-9 39.2 25.1 31.4h40.2zm-194.9-93.5l-8.9-39.2-36.2-17.5-36.3 17.5-8.9 39.2 25.1 31.4h40.2zm131.9 223.8l-9-39.2-36.2-17.4-36.2 17.4-9 39.2 25.1 31.4h40.2zm-194.3-94.2l-8.9-39.1-36.3-17.5-36.2 17.5-8.9 39.2 25 31.4h40.2zm498.2 111.7l25.1 31.5h40.2l25.1-31.5-9-39.2-36.2-17.4-36.2 17.4zM847 1089.2l25 31.4h40.3l25-31.5-8.9-39.1-36.3-17.5-36.2 17.5zM912.7 977l25.1 31.4H978l25.1-31.4-9-39.2-36.2-17.4-36.2 17.4zm-194.8 93.6l25.1 31.5h40.2l25-31.5-8.9-39.2-36.2-17.4-36.3 17.4zm257.3 36.1l25 31.4h40.2l25.1-31.4-8.9-39.2-36.3-17.4-36.2 17.4zm-194.3 94.2l25.1 31.4h40.2l25.1-31.4-9-39.2-36.2-17.5-36.2 17.5zM1315.8 771l-36.2-17.4-36.2 17.4-9 39.2 25.1 31.4h40.2l25-31.4zm-140.2-31.7l-36.3-17.4-36.2 17.4-8.9 39.2 25 31.4h40.2l25.1-31.4zm-46.4-121.7l-36.2-17.5-36.2 17.5-8.9 39.2 25 31.4h40.2l25.1-31.4zm-48 210.7l-36.3-17.4-36.2 17.4-8.9 39.2 25.1 31.5 40.2-.1 25-31.4zM1269.8 650l-36.3-17.4-36.2 17.4-8.9 39.2 25.1 31.4h40.2l25-31.4zm-48.2 210.3l-36.2-17.5-36.3 17.5-8.9 39.2 25.1 31.4h40.2l25-31.4zm-78.5-527.5h40.2l25.1-31.5-9-39.2-36.2-17.4-36.2 17.4-9 39.2zM1031 422h40.2l25.1-31.4-9-39.2-36.2-17.5-36.2 17.5-9 39.2zm-123.6-39.2h40.2l25.1-31.5-8.9-39.2-36.3-17.4-36.2 17.4-8.9 39.2zm134.4 168.7h40.2l25.1-31.4-9-39.2-36.2-17.5-36.2 17.5-9 39.2zm-22.4-258.7h40.2l25-31.4-8.9-39.2-36.2-17.5-36.3 17.5-8.9 39.2zM1154.7 462h40.2l25.1-31.5-8.9-39.2-36.3-17.4-36.2 17.4-8.9 39.2z" fill="#FFE07F" stroke="#000"/><g fill="none" stroke="#000"><path d="M656.8 35.4l16.1 70.7L693 18l20.1 88.1 16.1-70.7m-16.1 214.7L693 162l-20.1 88.1"/><path d="M647.8 218.6L693 162l45.2 56.6M585 234l20.1 88.1-65.3-31.5L585 234m216 0l-20.1 88.1 65.3-31.5L801 234m-195.9-55.9L585 90l-20.1 88.1-16.1-70.7M585 90l45.2 56.6m207-39.2l-16.1 70.7L801 90l-20.1 88.1M801 90l-45.2 56.6M268.3 301.4l-45.2-56.6 20.1 88.1-56.3-70.6 16.1 70.6m96 18.6l56.3 70.6-20.1-88.1"/><path d="M371.5 351.5l-16.2 70.6-65.2-31.4m54.5 160.9L288.2 481h72.5l-16.1 70.6m134.3-168.8l-20.1-88-45.2 56.6 65.3 31.4m-303.6 8.7l56.3 70.6-20.1-88.1 45.2 56.6m-25.1 31.5l-65.3-31.5m160.5-137.7l-16.2-70.6 56.4 70.6-20.1-88.1m20.1 88.1l16.1-70.6M61.2 810.2l65.3 31.4L70.2 771l81.4 39.2-45.2-56.7m185.4 24.9l-81.4-39.2 56.3 70.7"/><path d="M226.5 809.9l-16.1-70.7h72.5m21.9 89l81.4 39.2-65.3 31.5-16.1-70.7m-48.1-210.7l56.3 70.6 16.1-70.6h-72.4m-10.9 281.9l-81.4-39.2 56.3 70.7-65.2-31.5m8.9-39.2h72.5m-84.5-227.7l45.2 56.7-81.4-39.2 56.3 70.6M116.2 650l16.1 70.6M468 1179.3h-72.4l81.4 39.2h-90.4l65.3 31.4m-3.1-160.7h90.3l-81.4-39.2"/><path d="M493.9 1032.5l45.2 56.7-65.3 31.4m194.4-50l-90.4.1L623 1014l45.2 56.6m-194.9-93.5l-81.4-39.2 16.2 70.6 65.2-31.4m41.5 223.8h90.4l-81.4-39.2h72.4m9 39.2l-65.3 31.4m-154.1-94.1l-65.2-31.4 90.3-.1-81.4-39.1m81.4 39.1l-45.2-56.6m568.5 199.8l65.3-31.5h-90.4l81.4-39.2h-72.4m10.3-129.2l-81.4 39.2 90.3-.1"/><path d="M912.3 1120.6l-65.3-31.4 45.1-56.7m20.6-55.5l81.4-39.2-16.1 70.6-65.3-31.4m-194.8 93.6h90.3l-45.1-56.6-45.2 56.6m338.7-3.1l-81.4 39.2h90.3l-65.3 31.4m-25-31.4l45.1-56.6m-230.4 111.6h72.4l-81.4 39.2h90.4m-90.4 0l65.3 31.4m433.4-478.7l-45.2 56.6 81.4-39.2-56.3 70.6 65.2-31.4m-205.5-.3l56.4-70.6-81.4 39.2"/><path d="M1103.1 739.3h72.5l-16.2 70.6m-30.2-192.3l-56.3 70.6-16.1-70.6h72.4m-48 210.7l-81.4 39.2 65.3 31.4 16.1-70.6m132.3-107.7l56.3-70.6-81.4 39.2 45.1-56.6m36.3 17.4l-16.1 70.6m-23.2 178.9l-65.2 31.4 56.3-70.6-81.4 39.2m81.4-39.2h-72.5m34.2-527.5l16.1-70.7-56.3 70.7 20.1-88.1-45.2 56.6m-66.9 32.6L1031 422l56.3-70.6"/><path d="M1096.3 390.6L1031 422l-16.1-70.6m-107.5 31.4l20.1-88.1 45.2 56.6-65.3 31.5m134.4 168.7l56.3-70.6h-72.4l16.1 70.6m-2.3-346.8l-20.1 88.1 56.3-70.6-16.1 70.6m-40.2 0l-16.2-70.6m126.5 208.3l45.1-56.6-20.1 88.1 56.4-70.7m-56.4 70.7l65.3-31.5M304.4 551.6L288.2 481m-40.4 175.7l65.2 31.4m28 122.7l45.2 56.6m78.2 70.5h-72.5m251.2 164.2l-65.3-31.4m165.2 31.4l65.2-31.5m113.5-132.8h72.4m50.8-126.9l-45.1 56.6m138.4-210.7l-65.3 31.4m9.1-136.7l16.1-70.6M882.4 351.3l45.1-56.6m-162.7-43.3l16.1 70.7m-159.7-70.7l-16.1 70.7M504 351.4l-45.2-56.6"/></g></svg>