<svg xmlns="http://www.w3.org/2000/svg" width="738" height="738"><g fill="#009246"><path d="M405 81l38.8-25.6L441 9l-38.8 25.6zm0 0l38.8 25.6L441 153l-38.8-25.6zM297 9l38.8 25.6L333 81l-38.8-25.6zm-36 108l25.6-38.8L333 81l-25.6 38.8zM9 9l38.8 25.6L45 81 6.2 55.4zm108 72l38.8-25.6L153 9l-38.8 25.6zm0 0l25.6 38.8L189 117l-25.6-38.8zM9 153l38.8-25.6L45 81 6.2 106.6zm504 72l20.8-36-20.8-36-20.8 36zm0-72l20.8-36L513 81l-20.8 36zm0 0l-36-20.8-36 20.8 36 20.8zM405 81l-36-20.8L333 81l36 20.8zm-144 36l-36-20.8-36 20.8 36 20.8zM117 81L81 60.2 45 81l36 20.8zM81 333l-25.6-38.8L9 297l25.6 38.8zm0 0l25.6-38.8L153 297l-25.6 38.8zM9 441l25.6-38.8L81 405l-25.6 38.8zm108 36l-38.8-25.6L81 405l38.8 25.6zM9 729l25.6-38.8L81 693l-25.6 38.8zm72-108l-25.6-38.8L9 585l25.6 38.8zm0 0l38.8-25.6L117 549l-38.8 25.6zm72 108l-25.6-38.8L81 693l25.6 38.8zm72-504l-36-20.8-36 20.8 36 20.8zm-72 0l-36-20.8L81 225l36 20.8zm0 0l-20.8 36 20.8 36 20.8-36zM81 333l-20.8 36L81 405l20.8-36zm36 144l-20.8 36 20.8 36 20.8-36zM81 621l-20.8 36L81 693l20.8-36zm252 36l-38.8 25.6L297 729l38.8-25.6zm0 0l-38.8-25.6L297 585l38.8 25.6zm108 72l-38.8-25.6L405 657l38.8 25.6zm36-108l-25.6 38.8L405 657l25.6-38.8zm252 108l-38.8-25.6L693 657l38.8 25.6zm-108-72l-38.8 25.6L585 729l38.8-25.6zm0 0l-25.6-38.8L549 621l25.6 38.8zm108-72l-38.8 25.6L693 657l38.8-25.6zm-504-72l-20.8 36 20.8 36 20.8-36zm0 72l-20.8 36 20.8 36 20.8-36zm0 0l36 20.8 36-20.8-36-20.8zm108 72l36 20.8 36-20.8-36-20.8zm144-36l36 20.8 36-20.8-36-20.8zm144 36l36 20.8 36-20.8-36-20.8zm36-252l25.6 38.8L729 441l-25.6-38.8zm0 0l-25.6 38.8L585 441l25.6-38.8zm72-108l-25.6 38.8L657 333l25.6-38.8zm-108-36l38.8 25.6L657 333l-38.8-25.6zM729 9l-25.6 38.8L657 45l25.6-38.8zm-72 108l25.6 38.8L729 153l-25.6-38.8zm0 0l-38.8 25.6L621 189l38.8-25.6zM585 9l25.6 38.8L657 45 631.4 6.2zm-72 504l36 20.8 36-20.8-36-20.8zm72 0l36 20.8 36-20.8-36-20.8zm0 0l20.8-36-20.8-36-20.8 36zm72-108l20.8-36-20.8-36-20.8 36zm-36-144l20.8-36-20.8-36-20.8 36zm36-144l20.8-36L657 45l-20.8 36zM383.4 253.8l15.5-10.2-1.1-18.6-15.5 10.2zm0 0l15.5 10.2-1.1 18.6-15.5-10.2zM340.2 225l15.5 10.2-1.1 18.6-15.5-10.2z"/><path d="M325.8 268.2l10.2-15.5 18.6 1.1-10.2 15.5zM225 225l15.5 10.2-1.1 18.6-15.5-10.2zm43.2 28.8l15.5-10.2-1.1-18.6-15.5 10.2zm0 0l10.2 15.5 18.6-1.1-10.2-15.5zM225 282.6l15.5-10.2-1.1-18.6-15.5 10.2zm201.6 28.8l8.3-14.4-8.3-14.4-8.3 14.4zm0-28.8l8.3-14.4-8.3-14.4-8.3 14.4zm0 0l-14.4-8.3-14.4 8.3 14.4 8.3zm-43.2-28.8l-14.4-8.3-14.4 8.3 14.4 8.3zm-57.6 14.4l-14.4-8.3-14.4 8.3 14.4 8.3zm-57.6-14.4l-14.4-8.3-14.4 8.3 14.4 8.3zm-14.4 100.8l-10.2-15.5-18.6 1.1 10.2 15.5zm0 0l10.2-15.5 18.6 1.1-10.2 15.5zM225 397.8l10.2-15.5 18.6 1.1-10.2 15.5z"/><path d="M268.2 412.2L252.7 402l1.1-18.6 15.5 10.2zM225 513l10.2-15.5 18.6 1.1-10.2 15.5zm28.8-43.2l-10.2-15.5-18.6 1.1 10.2 15.5zm0 0l15.5-10.2-1.1-18.6-15.5 10.2zm28.8 43.2l-10.2-15.5-18.6 1.1 10.2 15.5zm28.8-201.6l-14.4-8.3-14.4 8.3 14.4 8.3zm-28.8 0l-14.4-8.3-14.4 8.3 14.4 8.3zm0 0l-8.3 14.4 8.3 14.4 8.3-14.4zm-28.8 43.2l-8.3 14.4 8.3 14.4 8.3-14.4zm14.4 57.6l-8.3 14.4 8.3 14.4 8.3-14.4zm-14.4 57.6l-8.3 14.4 8.3 14.4 8.3-14.4zm100.8 14.4l-15.5 10.2 1.1 18.6 15.5-10.2zm0 0L339.1 474l1.1-18.6 15.5 10.2zm43.2 28.8l-15.5-10.2 1.1-18.6 15.5 10.2zM412.2 469.8L402 485.3l-18.6-1.1 10.2-15.5zM513 513l-15.5-10.2 1.1-18.6 15.5 10.2zm-43.2-28.8l-15.5 10.2 1.1 18.6 15.5-10.2zm0 0l-10.2-15.5-18.6 1.1 10.2 15.5zm43.2-28.8l-15.5 10.2 1.1 18.6 15.5-10.2zm-201.6-28.8l-8.3 14.4 8.3 14.4 8.3-14.4zm0 28.8l-8.3 14.4 8.3 14.4 8.3-14.4zm0 0l14.4 8.3 14.4-8.3-14.4-8.3zm43.2 28.8l14.4 8.3 14.4-8.3-14.4-8.3zm57.6-14.4l14.4 8.3 14.4-8.3-14.4-8.3zm57.6 14.4l14.4 8.3 14.4-8.3-14.4-8.3zm14.4-100.8l10.2 15.5 18.6-1.1-10.2-15.5zm0 0L474 398.9l-18.6-1.1 10.2-15.5zm28.8-43.2l-10.2 15.5-18.6-1.1 10.2-15.5z"/><path d="M469.8 325.8l15.5 10.2-1.1 18.6-15.5-10.2zM513 225l-10.2 15.5-18.6-1.1 10.2-15.5zm-28.8 43.2l10.2 15.5 18.6-1.1-10.2-15.5zm0 0l-15.5 10.2 1.1 18.6 15.5-10.2zM455.4 225l10.2 15.5 18.6-1.1-10.2-15.5zm-28.8 201.6l14.4 8.3 14.4-8.3-14.4-8.3zm28.8 0l14.4 8.3 14.4-8.3-14.4-8.3zm0 0l8.3-14.4-8.3-14.4-8.3 14.4zm28.8-43.2l8.3-14.4-8.3-14.4-8.3 14.4zm-14.4-57.6l8.3-14.4-8.3-14.4-8.3 14.4z"/><path d="M484.2 268.2l8.3-14.4-8.3-14.4-8.3 14.4zm-109.4 54.7l6.2-4.1-.5-7.4-6.2 4.1zm0 0l6.2 4.1-.5 7.4-6.2-4.1zm-17.3-11.5l6.2 4.1-.5 7.4-6.2-4.1zm-5.8 17.3l4.1-6.2 7.4.4-4.1 6.2zm-40.3-17.3l6.2 4.1-.4 7.4-6.2-4.1zm17.3 11.5l6.2-4.1-.5-7.4-6.2 4.1zm0 0l4.1 6.2 7.4-.4-4.1-6.2zm-17.3 11.5l6.2-4.1-.4-7.4-6.2 4.1zM392 346l3.4-5.8-3.4-5.8-3.3 5.8zm0-11.6l3.4-5.7-3.4-5.8-3.3 5.8zm0 0l-5.7-3.3-5.8 3.3 5.8 3.4zm-17.2-11.5l-5.8-3.3-5.8 3.3 5.8 3.3zm-23.1 5.8l-5.7-3.3-5.8 3.3 5.8 3.3zm-23-5.8l-5.8-3.3-5.7 3.3 5.7 3.3zm-5.8 40.3l-4.1-6.2-7.4.5 4.1 6.2zm0 0l4.1-6.2 7.4.5-4.1 6.2zm-11.5 17.3l4.1-6.2 7.4.5-4.1 6.2zm17.3 5.8l-6.2-4.1.4-7.4 6.2 4.1zm-17.3 40.3l4.1-6.2 7.4.4-4.1 6.2zm11.5-17.3l-4.1-6.2-7.4.5 4.1 6.2zm0 0l6.2-4.1-.4-7.4-6.2 4.1zm11.5 17.3l-4.1-6.2-7.4.4 4.1 6.2zM346 346l-5.8-3.4-5.8 3.4 5.8 3.3zm-11.6 0l-5.7-3.4-5.8 3.4 5.8 3.3zm0 0l-3.3 5.7 3.3 5.8 3.4-5.8zm-11.5 17.2l-3.3 5.8 3.3 5.8 3.3-5.8zm5.8 23.1l-3.3 5.7 3.3 5.8 3.3-5.8zm-5.8 23l-3.3 5.8 3.3 5.7 3.3-5.7zm40.3 5.8l-6.2 4.1.5 7.4 6.2-4.1zm0 0L357 411l.5-7.4 6.2 4.1zm17.3 11.5l-6.2-4.1.5-7.4 6.2 4.1zm5.8-17.3l-4.1 6.2-7.4-.4 4.1-6.2zm40.3 17.3l-6.2-4.1.4-7.4 6.2 4.1zm-17.3-11.5l-6.2 4.1.5 7.4 6.2-4.1zm0 0l-4.1-6.2-7.4.4 4.1 6.2zm17.3-11.5l-6.2 4.1.4 7.4 6.2-4.1zM346 392l-3.4 5.8 3.4 5.8 3.3-5.8zm0 11.6l-3.4 5.7 3.4 5.8 3.3-5.8zm0 0l5.7 3.3 5.8-3.3-5.8-3.4zm17.2 11.5l5.8 3.3 5.8-3.3-5.8-3.3zm23.1-5.8l5.7 3.3 5.8-3.3-5.8-3.3zm23 5.8l5.8 3.3 5.7-3.3-5.7-3.3zm5.8-40.3l4.1 6.2 7.4-.5-4.1-6.2zm0 0L411 381l-7.4-.5 4.1-6.2zm11.5-17.3l-4.1 6.2-7.4-.5 4.1-6.2zm-17.3-5.8l6.2 4.1-.4 7.4-6.2-4.1zm17.3-40.3l-4.1 6.2-7.4-.4 4.1-6.2zm-11.5 17.3l4.1 6.2 7.4-.5-4.1-6.2zm0 0l-6.2 4.1.4 7.4 6.2-4.1zm-11.5-17.3l4.1 6.2 7.4-.4-4.1-6.2zM392 392l5.8 3.4 5.8-3.4-5.8-3.3zm11.6 0l5.7 3.4 5.8-3.4-5.8-3.3zm0 0l3.3-5.7-3.3-5.8-3.4 5.8zm11.5-17.2l3.3-5.8-3.3-5.8-3.3 5.8zm-5.8-23.1l3.3-5.7-3.3-5.8-3.3 5.8zm5.8-23l3.3-5.8-3.3-5.7-3.3 5.7zm-43.8 21.9l2.5-1.7-.2-2.9-2.5 1.6zm0 0l2.5 1.6-.2 3-2.5-1.7zm-6.9-4.6l2.5 1.6-.2 3-2.5-1.7zM362.1 352.9l1.6-2.5 3 .2-1.6 2.5zM346 346l2.4 1.6-.1 3-2.5-1.7zm6.9 4.6l2.5-1.7-.2-2.9-2.5 1.6zm0 0l1.6 2.5 3-.2-1.7-2.5zm-6.9 4.6l2.4-1.7-.1-2.9-2.5 1.6zm32.2 4.6l1.3-2.3-1.3-2.3-1.3 2.3zm0-4.6l1.3-2.3-1.3-2.3-1.3 2.3zm0 0l-2.3-1.4-2.3 1.4 2.3 1.3z"/><path d="M371.3 350.6l-2.3-1.4-2.3 1.4 2.3 1.3zm-9.2 2.3l-2.3-1.4-2.3 1.4 2.3 1.3zm-9.2-2.3l-2.3-1.4-2.3 1.4 2.3 1.3zm-2.3 16.1l-1.7-2.5-2.9.2 1.6 2.5zm0 0l1.6-2.5 3 .2-1.7 2.5zm-4.6 6.9l1.6-2.5 3 .2-1.7 2.5z"/><path d="M352.9 375.9l-2.5-1.6.2-3 2.5 1.6zM346 392l1.6-2.4 3 .1-1.7 2.5zm4.6-6.9l-1.7-2.5-2.9.2 1.6 2.5zm0 0l2.5-1.6-.2-3-2.5 1.7zm4.6 6.9l-1.7-2.4-2.9.1 1.6 2.5zm4.6-32.2l-2.3-1.3-2.3 1.3 2.3 1.3zm-4.6 0l-2.3-1.3-2.3 1.3 2.3 1.3zm0 0l-1.4 2.3 1.4 2.3 1.3-2.3z"/><path d="M350.6 366.7l-1.4 2.3 1.4 2.3 1.3-2.3zm2.3 9.2l-1.4 2.3 1.4 2.3 1.3-2.3zm-2.3 9.2l-1.4 2.3 1.4 2.3 1.3-2.3zm16.1 2.3l-2.5 1.7.2 2.9 2.5-1.6zm0 0l-2.5-1.6.2-3 2.5 1.7zm6.9 4.6l-2.5-1.6.2-3 2.5 1.7z"/><path d="M375.9 385.1l-1.6 2.5-3-.2 1.6-2.5zM392 392l-2.4-1.6.1-3 2.5 1.7zm-6.9-4.6l-2.5 1.7.2 2.9 2.5-1.6zm0 0l-1.6-2.5-3 .2 1.7 2.5zm6.9-4.6l-2.4 1.7.1 2.9 2.5-1.6zm-32.2-4.6l-1.3 2.3 1.3 2.3 1.3-2.3zm0 4.6l-1.3 2.3 1.3 2.3 1.3-2.3zm0 0l2.3 1.4 2.3-1.4-2.3-1.3z"/><path d="M366.7 387.4l2.3 1.4 2.3-1.4-2.3-1.3zm9.2-2.3l2.3 1.4 2.3-1.4-2.3-1.3zm9.2 2.3l2.3 1.4 2.3-1.4-2.3-1.3zm2.3-16.1l1.7 2.5 2.9-.2-1.6-2.5zm0 0l-1.6 2.5-3-.2 1.7-2.5zm4.6-6.9l-1.6 2.5-3-.2 1.7-2.5z"/><path d="M385.1 362.1l2.5 1.6-.2 3-2.5-1.6zM392 346l-1.6 2.4-3-.1 1.7-2.5zm-4.6 6.9l1.7 2.5 2.9-.2-1.6-2.5zm0 0l-2.5 1.6.2 3 2.5-1.7zm-4.6-6.9l1.7 2.4 2.9-.1-1.6-2.5zm-4.6 32.2l2.3 1.3 2.3-1.3-2.3-1.3zm4.6 0l2.3 1.3 2.3-1.3-2.3-1.3zm0 0l1.4-2.3-1.4-2.3-1.3 2.3z"/><path d="M387.4 371.3l1.4-2.3-1.4-2.3-1.3 2.3zm-2.3-9.2l1.4-2.3-1.4-2.3-1.3 2.3zm2.3-9.2l1.4-2.3-1.4-2.3-1.3 2.3zm-17.5 8.7l1-.6-.1-1.2-.9.6zm0 0l1 .7-.1 1.2-.9-.7zm-2.7-1.8l.9.6v1.2l-1-.6zm-1 2.7l.7-.9h1.2l-.7 1zm-6.4-2.7l1 .6-.1 1.2-1-.6zm2.7 1.8l1-.6v-1.2l-1 .6zm0 0l.7 1 1.2-.1-.7-.9zm-2.7 1.9l1-.7-.1-1.2-1 .7zm12.9 1.8l.5-.9-.5-.9-.5.9zm0-1.8l.5-1-.5-.9-.5.9zm0 0l-.9-.6-1 .6 1 .5zm-2.8-1.9l-.9-.5-.9.5.9.6zm-3.7.9l-.9-.5-.9.5.9.6zm-3.7-.9l-.9-.5-.9.5.9.6zm-.9 6.5l-.6-1-1.2.1.6.9zm0 0l.7-1 1.2.1-.7.9zm-1.8 2.7l.6-.9h1.2l-.6 1zm2.7 1l-.9-.7v-1.2l1 .7zm-2.7 6.4l.6-1 1.2.1-.6 1zm1.8-2.7l-.6-1h-1.2l.6 1zm0 0l1-.7-.1-1.2-.9.7zm1.9 2.7l-.7-1-1.2.1.7 1zm1.8-12.9l-.9-.5-.9.5.9.5zm-1.8 0l-1-.5-.9.5.9.5zm0 0l-.6.9.6 1 .5-1zm-1.9 2.8l-.5.9.5.9.6-.9zm.9 3.7l-.5.9.5.9.6-.9zm-.9 3.7l-.5.9.5.9.6-.9zm6.5.9l-1 .6.1 1.2.9-.6zm0 0l-1-.7.1-1.2.9.7zm2.7 1.8l-.9-.6v-1.2l1 .6zm1-2.7l-.7.9h-1.2l.7-1zm6.4 2.7l-1-.6.1-1.2 1 .6zm-2.7-1.8l-1 .6v1.2l1-.6zm0 0l-.7-1-1.2.1.7.9zm2.7-1.9l-1 .7.1 1.2 1-.7zm-12.9-1.8l-.5.9.5.9.5-.9zm0 1.8l-.5 1 .5.9.5-.9zm0 0l.9.6 1-.6-1-.5zm2.8 1.9l.9.5.9-.5-.9-.6zm3.7-.9l.9.5.9-.5-.9-.6zm3.7.9l.9.5.9-.5-.9-.6zm.9-6.5l.6 1 1.2-.1-.6-.9zm0 0l-.7 1-1.2-.1.7-.9zm1.8-2.7l-.6.9h-1.2l.6-1zm-2.7-1l.9.7v1.2l-1-.7zm2.7-6.4l-.6 1-1.2-.1.6-1zm-1.8 2.7l.6 1h1.2l-.6-1zm0 0l-1 .7.1 1.2.9-.7zm-1.9-2.7l.7 1 1.2-.1-.7-1zm-1.8 12.9l.9.5.9-.5-.9-.5zm1.8 0l1 .5.9-.5-.9-.5zm0 0l.6-.9-.6-1-.5 1zm1.9-2.8l.5-.9-.5-.9-.6.9zm-.9-3.7l.5-.9-.5-.9-.6.9zm.9-3.7l.5-.9-.5-.9-.6.9zm-7 3.6l.4-.3-.1-.5-.4.3zm0 0l.4.2-.1.5-.4-.3zm-1.1-.8l.4.3-.1.5-.4-.3zm-.4 1.1l.3-.4.4.1-.2.3zm-2.6-1.1l.4.3v.5l-.4-.3zm1.1.8l.4-.3v-.5l-.4.3zm0 0l.3.3h.5l-.3-.4zm-1.1.7l.4-.3v-.4l-.4.2zm5.2.7l.2-.3-.2-.4-.2.4zm0-.7l.2-.4-.2-.3-.2.3zm0 0l-.4-.2-.4.2.4.2zm-1.1-.7l-.4-.3-.4.3.4.2zm-1.5.3l-.4-.2-.3.2.3.2zm-1.5-.3l-.3-.3-.4.3.4.2zm-.3 2.5l-.3-.4-.5.1.3.4zm0 0l.2-.4.5.1-.3.4zm-.8 1.1l.3-.4.5.1-.3.4zm1.1.4l-.4-.3.1-.4.3.2zm-1.1 2.6l.3-.4h.5l-.3.4zm.8-1.1l-.3-.4h-.5l.3.4zm0 0l.3-.3v-.5l-.4.3zm.7 1.1l-.3-.4h-.4l.2.4zm.7-5.2l-.3-.2-.4.2.4.2zm-.7 0l-.4-.2-.3.2.3.2zm0 0l-.2.4.2.4.2-.4zm-.7 1.1l-.3.4.3.4.2-.4zm.3 1.5l-.2.4.2.3.2-.3zm-.3 1.5l-.3.3.3.4.2-.4zm2.5.3l-.4.3.1.5.4-.3zm0 0l-.4-.2.1-.5.4.3zm1.1.8l-.4-.3.1-.5.4.3zm.4-1.1l-.3.4-.4-.1.2-.3zm2.6 1.1l-.4-.3v-.5l.4.3zm-1.1-.8l-.4.3v.5l.4-.3zm0 0l-.3-.3h-.5l.3.4zm1.1-.7l-.4.3v.4l.4-.2zm-5.2-.7l-.2.3.2.4.2-.4zm0 .7l-.2.4.2.3.2-.3zm0 0l.4.2.4-.2-.4-.2zm1.1.7l.4.3.4-.3-.4-.2zm1.5-.3l.4.2.3-.2-.3-.2zm1.5.3l.3.3.4-.3-.4-.2zm.3-2.5l.3.4.5-.1-.3-.4zm0 0l-.2.4-.5-.1.3-.4zm.8-1.1l-.3.4-.5-.1.3-.4zm-1.1-.4l.4.3-.1.4-.3-.2zm1.1-2.6l-.3.4h-.5l.3-.4zm-.8 1.1l.3.4h.5l-.3-.4zm0 0l-.3.3v.5l.4-.3zm-.7-1.1l.3.4h.4l-.2-.4zm-.7 5.2l.3.2.4-.2-.4-.2zm.7 0l.4.2.3-.2-.3-.2zm0 0l.2-.4-.2-.4-.2.4zm.7-1.1l.3-.4-.3-.4-.2.4zm-.3-1.5l.2-.4-.2-.3-.2.3zm.3-1.5l.3-.3-.3-.4-.2.4zm-2.8 1.4l.2-.1v-.2l-.2.1zm0 0l.2.1v.2l-.2-.1zm-.4-.3l.2.1v.2l-.2-.1zm-.1.5l.1-.2h.2l-.2.2zm-1.1-.5l.2.1v.2l-.2-.1zm.5.3l.1-.1v-.2l-.1.1zm0 0l.1.2h.2l-.1-.2zm-.5.3l.2-.1v-.2l-.2.1zm2.1.3l.1-.1-.1-.2-.1.2z"/><path d="M369.6 368.1l.1-.1-.1-.2-.1.2zm0 0l-.2-.1-.1.1.1.1zm-.5-.3l-.1-.1-.1.1.1.1zm-.5.2l-.2-.1-.1.1.1.1zm-.6-.2l-.2-.1-.1.1.1.1zm-.2 1.1l-.1-.2h-.2l.1.2zm0 0l.1-.2h.2l-.1.2zm-.3.4l.1-.2h.2l-.1.2zm.5.1l-.2-.1v-.2l.2.2zm-.5 1.1l.1-.2h.2l-.1.2zm.3-.5l-.1-.1h-.2l.1.1zm0 0l.2-.1v-.2l-.2.1zm.3.5l-.1-.2h-.2l.1.2zm.3-2.1l-.1-.1-.2.1.2.1z"/><path d="M368.1 368.4l-.1-.1-.2.1.2.1zm0 0l-.1.2.1.1.1-.1zm-.3.5l-.1.1.1.1.1-.1zm.2.5l-.1.2.1.1.1-.1zm-.2.6l-.1.2.1.1.1-.1zm1.1.2l-.2.1v.2l.2-.1zm0 0l-.2-.1v-.2l.2.1zm.4.3l-.2-.1v-.2l.2.1zm.1-.5l-.1.2h-.2l.2-.2zm1.1.5l-.2-.1v-.2l.2.1zm-.5-.3l-.1.1v.2l.1-.1zm0 0l-.1-.2h-.2l.1.2zm.5-.3l-.2.1v.2l.2-.1zm-2.1-.3l-.1.1.1.2.1-.2z"/><path d="M368.4 369.9l-.1.1.1.2.1-.2zm0 0l.2.1.1-.1-.1-.1zm.5.3l.1.1.1-.1-.1-.1zm.5-.2l.2.1.1-.1-.1-.1zm.6.2l.2.1.1-.1-.1-.1zm.2-1.1l.1.2h.2l-.1-.2zm0 0l-.1.2h-.2l.1-.2zm.3-.4l-.1.2h-.2l.1-.2zm-.5-.1l.2.1v.2l-.2-.2zm.5-1.1l-.1.2h-.2l.1-.2zm-.3.5l.1.1h.2l-.1-.1zm0 0l-.2.1v.2l.2-.1zm-.3-.5l.1.2h.2l-.1-.2zm-.3 2.1l.1.1.2-.1-.2-.1z"/><path d="M369.9 369.6l.1.1.2-.1-.2-.1zm0 0l.1-.2-.1-.1-.1.1zm.3-.5l.1-.1-.1-.1-.1.1zm-.2-.5l.1-.2-.1-.1-.1.1zm.2-.6l.1-.2-.1-.1-.1.1zm-1.1.5v-.1.1zm0 0v.1zm-.2-.1v.1zm-.1.2l.1-.1v.1zm-.4-.2l.1.1h-.1zm.2.1h.1l-.1-.1v.1zm0 0v.1h.1v-.1zm-.2.1h.1v-.1l-.1.1zm.8.2l.1-.1-.1-.1v.1z"/><path d="M369.2 368.6h.1l-.1-.1v.1zm0 0h-.1l.1.1zm-.1-.1h-.2l.1.1zm-.3.1h-.1.1zm-.2-.1h-.1v.1zm-.1.4h-.1.1zm0 0h.1zm-.1.2h.1zm.2.1l-.1-.1h.1zm-.2.4l.1-.1v.1zm.1-.2v-.1l-.1.1h.1zm0 0h.1v-.1h-.1zm.1.2v-.1h-.1l.1.1zm.2-.8l-.1-.1-.1.1h.1z"/><path d="M368.6 368.8v-.1l-.1.1h.1zm0 0v.1l.1-.1zm-.1.1v.2l.1-.1zm.1.3v.1-.1zm-.1.2v.1h.1zm.4.1v.1-.1zm0 0v-.1zm.2.1v-.1zm.1-.2l-.1.1v-.1zm.4.2l-.1-.1h.1zm-.2-.1h-.1l.1.1v-.1zm0 0v-.1h-.1v.1zm.2-.1h-.1v.1l.1-.1zm-.8-.2l-.1.1.1.1v-.1z"/><path d="M368.8 369.4h-.1l.1.1v-.1zm0 0h.1l-.1-.1zm.1.1h.2l-.1-.1zm.3-.1h.1-.1zm.2.1h.1v-.1zm.1-.4h.1-.1zm0 0h-.1zm.1-.2h-.1zm-.2-.1l.1.1h-.1zm.2-.4l-.1.1v-.1zm-.1.2v.1l.1-.1h-.1zm0 0h-.1v.1h.1zm-.1-.2v.1h.1l-.1-.1zm-.2.8l.1.1.1-.1h-.1z"/><path d="M369.4 369.2v.1l.1-.1h-.1zm0 0v-.1l-.1.1zm.1-.1v-.2l-.1.1zm-.1-.3v-.1.1zm.1-.2v-.1h-.1zm-.5.2zm0 0v.1-.1zm0 0zm-.1 0h.1zm-.1 0zm0 0h.1-.1zm0 0h.1zm0 .1v-.1zm.3 0zm0 0v-.1zm0 0v-.1l-.1.1h.1zm-.1-.1zm-.1 0zm-.1 0zm0 .2zm0 0h.1-.1zm0 0zm0 .1v-.1zm0 .1zm0 0v-.1.1zm0 0v-.1zm.1 0h-.1zm0-.3zm0 0h-.1zm0 0h-.1l.1.1v-.1zm-.1.1zm0 .1zm0 .1zm.2 0zm0 0v-.1.1zm0 0zm.1 0h-.1zm.1 0zm0 0h-.1.1zm0 0h-.1zm0-.1v.1zm-.3 0zm0 0v.1zm0 0v.1l.1-.1h-.1zm.1.1zm.1 0zm.1 0zm0-.2zm0 0h-.1.1zm0 0zm0-.1v.1zm0-.1zm0 0v.1-.1zm0 0v.1zm-.1 0h.1zm0 .3zm0 0h.1zm0 0h.1l-.1-.1v.1zm.1-.1zm0-.1zm0-.1z"/></g><g fill="none" stroke="#000"><path d="M9 9l36 72-36 72m36-72h72l72 36h72l72-36-36-72M153 9l-36 72m216 0h72l36 72h72v72M441 9l-36 72m108 0v72M9 729l72-36 72 36m-72-36v-72l36-72v-72l-36-72-72 36m0 144l72 36m0-216v-72l72-36v-72h72M9 297l72 36m0-108h72m576 504l-36-72 36-72m-36 72h-72l-72-36h-72l-72 36 36 72m144 0l36-72m-216 0h-72l-36-72h-72v-72m72 216l36-72m-108 0v-72M729 9l-72 36-72-36m72 36v72l-36 72v72l36 72 72-36m0-144l-72-36m0 216v72l-72 36v72h-72m216-72l-72-36m0 108h-72M225 225l14.4 28.8-14.4 28.8m14.4-28.8h28.8l28.8 14.4h28.8l28.8-14.4-14.4-28.8m-57.6 0l-14.4 28.8m86.4 0h28.8l14.4 28.8h28.8v28.8M397.8 225l-14.4 28.8m43.2 0v28.8M225 513l28.8-14.4 28.8 14.4m-28.8-14.4v-28.8l14.4-28.8v-28.8l-14.4-28.8-28.8 14.4m0 57.6l28.8 14.4m0-86.4v-28.8l28.8-14.4v-28.8h28.8M225 340.2l28.8 14.4m0-43.2h28.8M513 513l-14.4-28.8 14.4-28.8m-14.4 28.8h-28.8L441 469.8h-28.8l-28.8 14.4 14.4 28.8m57.6 0l14.4-28.8m-86.4 0h-28.8l-14.4-28.8h-28.8v-28.8m28.8 86.4l14.4-28.8m-43.2 0v-28.8M513 225l-28.8 14.4-28.8-14.4m28.8 14.4v28.8L469.8 297v28.8l14.4 28.8 28.8-14.4m0-57.6l-28.8-14.4m0 86.4v28.8l-28.8 14.4v28.8h-28.8m86.4-28.8l-28.8-14.4m0 43.2h-28.8M311.4 311.4l5.8 11.5-5.8 11.5m5.8-11.5h11.5l11.5 5.8h11.5l11.5-5.8-5.7-11.5m-23.1 0l-5.7 11.5m34.5 0h11.6l5.7 11.5H392V346m-11.5-34.6l-5.7 11.5m17.2 0v11.5m-80.6 92.2l11.5-5.8 11.5 5.8m-11.5-5.8v-11.5l5.8-11.5v-11.5l-5.8-11.5-11.5 5.7m0 23.1l11.5 5.7m0-34.5v-11.6l11.5-5.7V346H346m-34.6 11.5l11.5 5.7m0-17.2h11.5m92.2 80.6l-5.8-11.5 5.8-11.5m-5.8 11.5h-11.5l-11.5-5.8h-11.5l-11.5 5.8 5.7 11.5m23.1 0l5.7-11.5m-34.5 0h-11.6l-5.7-11.5H346V392m11.5 34.6l5.7-11.5m-17.2 0v-11.5m80.6-92.2l-11.5 5.8-11.5-5.8m11.5 5.8v11.5l-5.8 11.5v11.5l5.8 11.5 11.5-5.7m0-23.1l-11.5-5.7m0 34.5v11.6l-11.5 5.7V392H392m34.6-11.5l-11.5-5.7m0 17.2h-11.5M346 346l2.3 4.6-2.3 4.6m2.3-4.6h4.6l4.6 2.3h4.6l4.6-2.3-2.3-4.6m-9.2 0l-2.3 4.6"/><path d="M366.7 350.6h4.6l2.3 4.6h4.6v4.6m-4.6-13.8l-2.3 4.6m6.9 0v4.6M346 392l4.6-2.3 4.6 2.3m-4.6-2.3v-4.6l2.3-4.6v-4.6l-2.3-4.6-4.6 2.3m0 9.2l4.6 2.3"/><path d="M350.6 371.3v-4.6l4.6-2.3v-4.6h4.6m-13.8 4.6l4.6 2.3m0-6.9h4.6M392 392l-2.3-4.6 2.3-4.6m-2.3 4.6h-4.6l-4.6-2.3h-4.6l-4.6 2.3 2.3 4.6m9.2 0l2.3-4.6"/><path d="M371.3 387.4h-4.6l-2.3-4.6h-4.6v-4.6m4.6 13.8l2.3-4.6m-6.9 0v-4.6M392 346l-4.6 2.3-4.6-2.3m4.6 2.3v4.6l-2.3 4.6v4.6l2.3 4.6 4.6-2.3m0-9.2l-4.6-2.3"/><path d="M387.4 366.7v4.6l-4.6 2.3v4.6h-4.6m13.8-4.6l-4.6-2.3m0 6.9h-4.6m-23-18.4l.9 1.8-.9 1.9m.9-1.9h1.8l1.9.9h1.8l1.9-.9-.9-1.8m-3.7 0l-1 1.8m5.6 0h1.8l.9 1.9h1.9v1.8m-1.9-5.5l-.9 1.8m2.8 0v1.9m-12.9 14.7l1.8-.9 1.9.9m-1.9-.9v-1.8l.9-1.9v-1.8l-.9-1.9-1.8.9m0 3.7l1.8 1m0-5.6v-1.8l1.9-.9v-1.9h1.8m-5.5 1.9l1.8.9m0-2.8h1.9"/><path d="M378.2 378.2l-.9-1.8.9-1.9m-.9 1.9h-1.8l-1.9-.9h-1.8l-1.9.9.9 1.8m3.7 0l1-1.8m-5.6 0h-1.8l-.9-1.9h-1.9v-1.8m1.9 5.5l.9-1.8m-2.8 0v-1.9m12.9-14.7l-1.8.9-1.9-.9m1.9.9v1.8l-.9 1.9v1.8l.9 1.9 1.8-.9m0-3.7l-1.8-1m0 5.6v1.8l-1.9.9v1.9h-1.8m5.5-1.9l-1.8-.9m0 2.8h-1.9m-9.2-7.4l.4.8-.4.7m.4-.7h.7l.8.3h.7l.7-.3-.3-.8m-1.5 0l-.4.8m2.2 0h.8l.3.7h.8v.7m-.8-2.2l-.3.8m1.1 0v.7m-5.2 5.9l.8-.4.7.4m-.7-.4v-.7l.3-.8v-.7l-.3-.7-.8.3m0 1.5l.8.4m0-2.2v-.8l.7-.3v-.8h.7m-2.2.8l.8.3m0-1.1h.7m5.9 5.2l-.4-.8.4-.7m-.4.7h-.7l-.8-.3h-.7l-.7.3.3.8m1.5 0l.4-.8m-2.2 0h-.8l-.3-.7h-.8v-.7m.8 2.2l.3-.8m-1.1 0v-.7m5.2-5.9l-.8.4-.7-.4m.7.4v.7l-.3.8v.7l.3.7.8-.3m0-1.5l-.8-.4m0 2.2v.8l-.7.3v.8h-.7m2.2-.8l-.8-.3m0 1.1h-.7m-3.7-3l.2.3-.2.3m.2-.3h.3l.3.2h.3l.3-.2-.2-.3m-.6 0l-.1.3M368.9 367.8h.2l.2.3h.3v.3m-.3-.9l-.2.3m.5 0v.3m-2.1 2.4l.3-.2.3.2m-.3-.2v-.3l.2-.3v-.3l-.2-.3-.3.2m0 .6l.3.1"/><path d="M367.8 369.1v-.2l.3-.2v-.3h.3m-.9.3l.3.2m0-.5h.3m2.4 2.1l-.2-.3.2-.3m-.2.3h-.3l-.3-.2h-.3l-.3.2.2.3m.6 0l.1-.3M369.1 370.2h-.2l-.2-.3h-.3v-.3m.3.9l.2-.3m-.5 0v-.3m2.1-2.4l-.3.2-.3-.2m.3.2v.3l-.2.3v.3l.2.3.3-.2m0-.6l-.3-.1"/><path d="M370.2 368.9v.2l-.3.2v.3h-.3m.9-.3l-.3-.2m0 .5h-.3m-1.5-1.2l.1.1-.1.1m.1-.1h.1l.1.1h.1l.1-.1v-.1m-.3 0v.1"/><path d="M368.9 368.5h.2v.1h.1v.2m-.1-.4v.1m.1 0v.1m-.8 1l.1-.1.1.1m-.1-.1v-.1l.1-.1v-.1l-.1-.1h-.1m0 .3h.1"/><path d="M368.5 369.1v-.2h.1v-.1h.2m-.4.1h.1m0-.1h.1m1 .8l-.1-.1.1-.1m-.1.1h-.1l-.1-.1h-.1l-.1.1v.1m.3 0v-.1"/><path d="M369.1 369.5h-.2v-.1h-.1v-.2m.1.4v-.1m-.1 0v-.1m.8-1l-.1.1-.1-.1m.1.1v.1l-.1.1v.1l.1.1h.1m0-.3h-.1"/><path d="M369.5 368.9v.2h-.1v.1h-.2m.4-.1h-.1m0 .1h-.1m-.6-.4v.1m0-.1h.2m-.1 0h-.1m.2 0v.1h.1m0-.1v.1m-.3.3h.1m-.1 0v-.2m0 .1v.1m0-.2h.1v-.1m-.1 0h.1m.3.3v-.1m0 .1h-.2m.1 0h.1m-.2 0v-.1h-.1m0 .1v-.1m.3-.3h-.1m.1 0v.2m0-.1v-.1m0 .2h-.1v.1m.1 0h-.1"/></g></svg>