<svg xmlns="http://www.w3.org/2000/svg" width="1008" height="450"><g fill="#7FC0E6" stroke="#000"><path d="M533.5 219.1c-13.7 20.4-45.3 20.4-59 0-.7-1-1.3-2.1-1.9-3.3.1 1.5.2 3 .3 4.4 4.9 48.4 57.3 48.4 62.2 0-.5-.4-1.1-.7-1.6-1.1z"/><path d="M536.4 177c-5.8-9.8-17.9-6.3-32.4 1.7-6.9 3.8-14.3 8.6-21.8 13.5-1.2.8-2.4 1.6-3.6 2.3-.9.6-1.8 1.1-2.6 1.7-2.2 3.2-3.5 8.5-3.5 16.4 0 1.1 0 2.1.1 3.2.6 1.1 1.3 2.2 1.9 3.3 4.3-2.9 8.7-5.9 12.9-8.8 5.8-4 11.4-7.7 16.6-10.8 8.7-5.1 16.3-8.3 21.8-7.3 1 .2 2 .5 2.9 1 1.3.7 2.4 1.7 3.4 3.1 2.6 1.7 5.1 3.3 7.7 4.9.2-1.7.3-3.5.3-5.3-.1-8.9-1.4-15-3.7-18.9z"/><path d="M470.3 179.7c-1.5 3.8-2.3 9.1-2.3 16.1 0 1.8.1 3.6.3 5.3.6 5.6 2.1 10.6 4.3 14.8 0-1-.1-2.1-.1-3.2 0-7.9 1.2-13.2 3.5-16.4.7-1 1.4-1.8 2.3-2.4 1.2-.9 2.5-1.4 4-1.6 7.5-4.9 14.9-9.7 21.8-13.5-15.8-8.8-28.7-12.1-33.8.9z"/><path d="M472.9 220.2c-.1-1.4-.2-2.9-.3-4.4-2.2-4.2-3.7-9.1-4.3-14.8-9.7 6-19.2 11.2-27.5 13.6C435.2 100.1 340.6 9 224.7 9 105.2 9 8.3 105.9 8.3 225.3s96.9 216.3 216.3 216.3c115.5 0 209.8-90.5 216-204.4 9.9-2.7 21.1-9.5 32.3-17zM783.3 9c-115.9 0-210.5 91.1-216.1 205.6-8.3-2.4-17.8-7.6-27.5-13.6-2.5-1.6-5.1-3.2-7.7-4.9-1.2-.8-2.5-1.6-3.7-2.4-.8-.5-1.7-1.1-2.5-1.6-5.6-.9-13.2 2.3-21.8 7.3 5.2 3.1 10.8 6.8 16.5 10.7 4.2 2.9 8.6 5.9 12.9 8.9.5.4 1.1.7 1.6 1.1 11.2 7.5 22.4 14.3 32.2 17.1 6.2 113.9 100.5 204.4 216 204.4 119.5 0 216.3-96.9 216.3-216.3S902.8 9 783.3 9z"/></g></svg>