<svg xmlns="http://www.w3.org/2000/svg" width="612" height="360"><path d="M108 36l72 36 72 12 72 6 72 3.6 72 2.4 72 1.7M108 324l72-36 72-12 72-6 72-3.6 72-2.4 72-1.7" fill="none" stroke="#BC1E46" stroke-width="3"/><g fill="none" stroke="#FEC200"><path d="M0 180h576M36 0v360" stroke-width="2"/><path d="M0 108h576M0 36h576M0 252h576M0 324h576M108 0v360M180 0v360M252 0v360M324 0v360M396 0v360M468 0v360M540 0v360" stroke-width=".75"/></g><g fill="#0081CD" stroke="#000"><circle cx="108" cy="36" r="6"/><circle cx="108" cy="324" r="6"/><circle cx="180" cy="72" r="6"/><circle cx="180" cy="288" r="6"/><circle cx="324" cy="90" r="6"/><circle cx="324" cy="270" r="6"/><circle cx="252" cy="84" r="6"/><circle cx="252" cy="276" r="6"/><circle cx="396" cy="93.6" r="6"/><circle cx="396" cy="266.4" r="6"/><circle cx="468" cy="96" r="6"/><circle cx="468" cy="264" r="6"/><circle cx="540" cy="97.7" r="6"/><circle cx="540" cy="262.3" r="6"/></g><circle cx="585" cy="180" r="3"/><circle cx="594" cy="180" r="3"/><circle cx="603" cy="180" r="3"/></svg>