<svg xmlns="http://www.w3.org/2000/svg" width="900" height="348"><g stroke="#000"><g fill="#7FC0E6"><circle cx="141" cy="207.4" r="126.2"/><circle cx="141" cy="140.6" r="126.2"/><circle cx="433.6" cy="216.4" r="114.8"/><circle cx="433.6" cy="153.3" r="136.6"/><circle cx="741" cy="174" r="145.7"/></g><path fill="#FFF" d="M738.3 319.6h5.4-2.7c-.9 0-1.8.1-2.7 0z"/><path d="M141 81.3c-58.1 0-107 39.3-121.7 92.7C34 227.5 82.9 266.7 141 266.7s107-39.3 121.7-92.7C248 120.5 199.1 81.3 141 81.3zm292.6 20.3c-63.4 0-114.8 51.4-114.8 114.8 0 4 .2 7.9.6 11.8 24.4 37.2 66.4 61.7 114.2 61.7s89.8-24.6 114.2-61.7c.4-3.9.6-7.8.6-11.8 0-63.4-51.4-114.8-114.8-114.8zM844 216.7c0-56.9-46.1-103-103-103s-103 46.1-103 103c0 56 44.7 101.6 100.3 103h5.4c55.6-1.5 100.3-47 100.3-103z" fill="#FEC200"/></g></svg>