<?xml version="1.0" encoding="UTF-8" standalone="no"?>
<!-- Created with Inkscape (http://www.inkscape.org/) -->
<svg
   xmlns:svg="http://www.w3.org/2000/svg"
   xmlns="http://www.w3.org/2000/svg"
   version="1.0"
   width="682.38983"
   height="549.16962"
   viewBox="0 0 702 567"
   id="svg5412"
   xml:space="preserve"><defs
   id="defs5577">
		
		
		
		
		
		
		
		
		
		
		
		
		
		
		
		
		
		
		
		
		
		
		
		
		
		
		
		
		
		
		
		
		
		
		
		
		
		
		
		
		
		
		
		
		
		
		
		
		
		
		
		
		
		
		
		
		
		
		
		
		
		
		
		
		
		
		
		
		
		
		
		
		
		
		
		
		
		
		
		
	</defs>
	<path
   d="M 25.240504,135 L 88.240504,99 L 151.2405,135"
   style="fill:none;stroke:black;stroke-width:1"
   id="path5418" /><path
   d="M 88.240504,27 L 88.240504,99"
   style="fill:none;stroke:black;stroke-width:1"
   id="path5420" /><path
   d="M 241.2405,99 L 304.2405,63 L 367.2405,99 L 304.2405,135 L 241.2405,99 z "
   style="fill:none;stroke:black;stroke-width:1"
   id="path5422" /><path
   d="M 304.2405,63 L 304.2405,135"
   style="fill:none;stroke:black;stroke-width:1"
   id="path5424" /><path
   d="M 241.2405,99 L 241.2405,27"
   style="fill:none;stroke:black;stroke-width:1"
   id="path5426" /><path
   d="M 367.2405,99 L 367.2405,27"
   style="fill:none;stroke:black;stroke-width:1"
   id="path5428" /><path
   d="M 241.2405,297 L 304.2405,261 L 367.2405,297 L 304.2405,333 L 241.2405,297 z "
   style="fill:none;stroke:black;stroke-width:1"
   id="path5430" /><path
   d="M 304.2405,261 L 304.2405,333"
   style="fill:none;stroke:black;stroke-width:1"
   id="path5432" /><path
   d="M 241.2405,297 L 241.2405,225 L 367.2405,225 L 367.2405,297"
   style="fill:none;stroke:black;stroke-width:1"
   id="path5434" /><path
   d="M 25.240504,297 L 88.240504,261 L 151.2405,297 L 88.240504,333 L 25.240504,297 z "
   style="fill:none;stroke:black;stroke-width:1"
   id="path5436" /><path
   d="M 88.240504,261 L 88.240504,333"
   style="fill:none;stroke:black;stroke-width:1"
   id="path5438" /><path
   d="M 574.2405,144 L 538.2405,81 L 466.2405,81 L 574.2405,144 z "
   style="fill:none;stroke:black;stroke-width:1"
   id="path5440" /><path
   d="M 538.2405,81 L 574.2405,18 L 466.2405,81"
   style="fill:none;stroke:black;stroke-width:1"
   id="path5442" /><path
   d="M 574.2405,144 L 574.2405,18 L 610.2405,81 L 574.2405,144 z "
   style="fill:none;stroke:black;stroke-width:1"
   id="path5444" /><path
   d="M 610.2405,81 L 682.2405,81"
   style="fill:none;stroke:black;stroke-width:1"
   id="path5446" /><path
   d="M 574.2405,333 L 538.2405,270 L 466.2405,270 L 574.2405,333 z "
   style="fill:none;stroke:black;stroke-width:1"
   id="path5448" /><path
   d="M 538.2405,270 L 574.2405,207 L 466.2405,270"
   style="fill:none;stroke:black;stroke-width:1"
   id="path5450" /><path
   d="M 574.2405,333 L 574.2405,207 L 610.2405,270 L 574.2405,333 z "
   style="fill:none;stroke:black;stroke-width:1"
   id="path5452" /><path
   d="M 574.2405,333 L 682.2405,270 L 610.2405,270"
   style="fill:none;stroke:black;stroke-width:1"
   id="path5454" /><path
   d="M 574.2405,207 L 682.2405,270"
   style="fill:none;stroke:black;stroke-width:1"
   id="path5456" /><path
   d="M 25.240504,297 L 88.240504,207 L 151.2405,297"
   style="fill:none;stroke:black;stroke-width:1"
   id="path5458" /><path
   d="M 93.240504,27 C 93.240504,29.761 91.001504,32 88.240504,32 C 85.479504,32 83.240504,29.761 83.240504,27 C 83.240504,24.239 85.479504,22 88.240504,22 C 91.001504,22 93.240504,24.239 93.240504,27 z "
   style="fill:red;stroke:black;stroke-width:1"
   id="path5460" /><path
   d="M 93.240504,99 C 93.240504,101.761 91.001504,104 88.240504,104 C 85.479504,104 83.240504,101.761 83.240504,99 C 83.240504,96.239 85.479504,94 88.240504,94 C 91.001504,94 93.240504,96.239 93.240504,99 z "
   style="fill:red;stroke:black;stroke-width:1"
   id="path5462" /><path
   d="M 30.240504,135 C 30.240504,137.761 28.001504,140 25.240504,140 C 22.479504,140 20.240504,137.761 20.240504,135 C 20.240504,132.239 22.479504,130 25.240504,130 C 28.001504,130 30.240504,132.239 30.240504,135 z "
   style="fill:red;stroke:black;stroke-width:1"
   id="path5464" /><path
   d="M 156.2405,135 C 156.2405,137.761 154.0015,140 151.2405,140 C 148.4795,140 146.2405,137.761 146.2405,135 C 146.2405,132.239 148.4795,130 151.2405,130 C 154.0015,130 156.2405,132.239 156.2405,135 z "
   style="fill:red;stroke:black;stroke-width:1"
   id="path5466" /><path
   d="M 246.2405,99 C 246.2405,101.761 244.0015,104 241.2405,104 C 238.4795,104 236.2405,101.761 236.2405,99 C 236.2405,96.239 238.4795,94 241.2405,94 C 244.0015,94 246.2405,96.239 246.2405,99 z "
   style="fill:red;stroke:black;stroke-width:1"
   id="path5468" /><path
   d="M 246.2405,27 C 246.2405,29.761 244.0015,32 241.2405,32 C 238.4795,32 236.2405,29.761 236.2405,27 C 236.2405,24.239 238.4795,22 241.2405,22 C 244.0015,22 246.2405,24.239 246.2405,27 z "
   style="fill:red;stroke:black;stroke-width:1"
   id="path5470" /><path
   d="M 309.2405,63 C 309.2405,65.761 307.0015,68 304.2405,68 C 301.4795,68 299.2405,65.761 299.2405,63 C 299.2405,60.239 301.4795,58 304.2405,58 C 307.0015,58 309.2405,60.239 309.2405,63 z "
   style="fill:red;stroke:black;stroke-width:1"
   id="path5472" /><path
   d="M 309.2405,135 C 309.2405,137.761 307.0015,140 304.2405,140 C 301.4795,140 299.2405,137.761 299.2405,135 C 299.2405,132.239 301.4795,130 304.2405,130 C 307.0015,130 309.2405,132.239 309.2405,135 z "
   style="fill:red;stroke:black;stroke-width:1"
   id="path5474" /><path
   d="M 372.2405,99 C 372.2405,101.761 370.0025,104 367.2405,104 C 364.4785,104 362.2405,101.761 362.2405,99 C 362.2405,96.239 364.4785,94 367.2405,94 C 370.0025,94 372.2405,96.239 372.2405,99 z "
   style="fill:red;stroke:black;stroke-width:1"
   id="path5476" /><path
   d="M 372.2405,27 C 372.2405,29.761 370.0025,32 367.2405,32 C 364.4785,32 362.2405,29.761 362.2405,27 C 362.2405,24.239 364.4785,22 367.2405,22 C 370.0025,22 372.2405,24.239 372.2405,27 z "
   style="fill:red;stroke:black;stroke-width:1"
   id="path5478" /><path
   d="M 471.2405,81 C 471.2405,83.761 469.0025,86 466.2405,86 C 463.4785,86 461.2405,83.761 461.2405,81 C 461.2405,78.239 463.4785,76 466.2405,76 C 469.0025,76 471.2405,78.239 471.2405,81 z "
   style="fill:red;stroke:black;stroke-width:1"
   id="path5480" /><path
   d="M 543.2405,81 C 543.2405,83.761 541.0025,86 538.2405,86 C 535.4785,86 533.2405,83.761 533.2405,81 C 533.2405,78.239 535.4785,76 538.2405,76 C 541.0025,76 543.2405,78.239 543.2405,81 z "
   style="fill:red;stroke:black;stroke-width:1"
   id="path5482" /><path
   d="M 579.2405,18 C 579.2405,20.761 577.0025,23 574.2405,23 C 571.4785,23 569.2405,20.761 569.2405,18 C 569.2405,15.239 571.4785,13 574.2405,13 C 577.0025,13 579.2405,15.239 579.2405,18 z "
   style="fill:red;stroke:black;stroke-width:1"
   id="path5484" /><path
   d="M 579.2405,144 C 579.2405,146.761 577.0025,149 574.2405,149 C 571.4785,149 569.2405,146.761 569.2405,144 C 569.2405,141.239 571.4785,139 574.2405,139 C 577.0025,139 579.2405,141.239 579.2405,144 z "
   style="fill:red;stroke:black;stroke-width:1"
   id="path5486" /><path
   d="M 615.2405,81 C 615.2405,83.761 613.0025,86 610.2405,86 C 607.4785,86 605.2405,83.761 605.2405,81 C 605.2405,78.239 607.4785,76 610.2405,76 C 613.0025,76 615.2405,78.239 615.2405,81 z "
   style="fill:red;stroke:black;stroke-width:1"
   id="path5488" /><path
   d="M 687.2405,81 C 687.2405,83.761 685.0025,86 682.2405,86 C 679.4785,86 677.2405,83.761 677.2405,81 C 677.2405,78.239 679.4785,76 682.2405,76 C 685.0025,76 687.2405,78.239 687.2405,81 z "
   style="fill:red;stroke:black;stroke-width:1"
   id="path5490" /><path
   d="M 93.240504,207 C 93.240504,209.762 91.001504,212 88.240504,212 C 85.479504,212 83.240504,209.762 83.240504,207 C 83.240504,204.238 85.479504,202 88.240504,202 C 91.001504,202 93.240504,204.238 93.240504,207 z "
   style="fill:red;stroke:black;stroke-width:1"
   id="path5492" /><path
   d="M 30.240504,297 C 30.240504,299.762 28.001504,302 25.240504,302 C 22.479504,302 20.240504,299.762 20.240504,297 C 20.240504,294.238 22.479504,292 25.240504,292 C 28.001504,292 30.240504,294.238 30.240504,297 z "
   style="fill:red;stroke:black;stroke-width:1"
   id="path5494" /><path
   d="M 93.240504,261 C 93.240504,263.762 91.001504,266 88.240504,266 C 85.479504,266 83.240504,263.762 83.240504,261 C 83.240504,258.238 85.479504,256 88.240504,256 C 91.001504,256 93.240504,258.238 93.240504,261 z "
   style="fill:red;stroke:black;stroke-width:1"
   id="path5496" /><path
   d="M 93.240504,333 C 93.240504,335.762 91.001504,338 88.240504,338 C 85.479504,338 83.240504,335.762 83.240504,333 C 83.240504,330.238 85.479504,328 88.240504,328 C 91.001504,328 93.240504,330.238 93.240504,333 z "
   style="fill:red;stroke:black;stroke-width:1"
   id="path5498" /><path
   d="M 156.2405,297 C 156.2405,299.762 154.0015,302 151.2405,302 C 148.4795,302 146.2405,299.762 146.2405,297 C 146.2405,294.238 148.4795,292 151.2405,292 C 154.0015,292 156.2405,294.238 156.2405,297 z "
   style="fill:red;stroke:black;stroke-width:1"
   id="path5500" /><path
   d="M 246.2405,225 C 246.2405,227.762 244.0015,230 241.2405,230 C 238.4795,230 236.2405,227.762 236.2405,225 C 236.2405,222.238 238.4795,220 241.2405,220 C 244.0015,220 246.2405,222.238 246.2405,225 z "
   style="fill:red;stroke:black;stroke-width:1"
   id="path5502" /><path
   d="M 246.2405,297 C 246.2405,299.762 244.0015,302 241.2405,302 C 238.4795,302 236.2405,299.762 236.2405,297 C 236.2405,294.238 238.4795,292 241.2405,292 C 244.0015,292 246.2405,294.238 246.2405,297 z "
   style="fill:red;stroke:black;stroke-width:1"
   id="path5504" /><path
   d="M 309.2405,261 C 309.2405,263.762 307.0015,266 304.2405,266 C 301.4795,266 299.2405,263.762 299.2405,261 C 299.2405,258.238 301.4795,256 304.2405,256 C 307.0015,256 309.2405,258.238 309.2405,261 z "
   style="fill:red;stroke:black;stroke-width:1"
   id="path5506" /><path
   d="M 309.2405,333 C 309.2405,335.762 307.0015,338 304.2405,338 C 301.4795,338 299.2405,335.762 299.2405,333 C 299.2405,330.238 301.4795,328 304.2405,328 C 307.0015,328 309.2405,330.238 309.2405,333 z "
   style="fill:red;stroke:black;stroke-width:1"
   id="path5508" /><path
   d="M 372.2405,297 C 372.2405,299.762 370.0025,302 367.2405,302 C 364.4785,302 362.2405,299.762 362.2405,297 C 362.2405,294.238 364.4785,292 367.2405,292 C 370.0025,292 372.2405,294.238 372.2405,297 z "
   style="fill:red;stroke:black;stroke-width:1"
   id="path5510" /><path
   d="M 372.2405,225 C 372.2405,227.762 370.0025,230 367.2405,230 C 364.4785,230 362.2405,227.762 362.2405,225 C 362.2405,222.238 364.4785,220 367.2405,220 C 370.0025,220 372.2405,222.238 372.2405,225 z "
   style="fill:red;stroke:black;stroke-width:1"
   id="path5512" /><path
   d="M 471.2405,270 C 471.2405,272.762 469.0025,275 466.2405,275 C 463.4785,275 461.2405,272.762 461.2405,270 C 461.2405,267.238 463.4785,265 466.2405,265 C 469.0025,265 471.2405,267.238 471.2405,270 z "
   style="fill:red;stroke:black;stroke-width:1"
   id="path5514" /><path
   d="M 543.2405,270 C 543.2405,272.762 541.0025,275 538.2405,275 C 535.4785,275 533.2405,272.762 533.2405,270 C 533.2405,267.238 535.4785,265 538.2405,265 C 541.0025,265 543.2405,267.238 543.2405,270 z "
   style="fill:red;stroke:black;stroke-width:1"
   id="path5516" /><path
   d="M 579.2405,207 C 579.2405,209.762 577.0025,212 574.2405,212 C 571.4785,212 569.2405,209.762 569.2405,207 C 569.2405,204.238 571.4785,202 574.2405,202 C 577.0025,202 579.2405,204.238 579.2405,207 z "
   style="fill:red;stroke:black;stroke-width:1"
   id="path5518" /><path
   d="M 579.2405,333 C 579.2405,335.762 577.0025,338 574.2405,338 C 571.4785,338 569.2405,335.762 569.2405,333 C 569.2405,330.238 571.4785,328 574.2405,328 C 577.0025,328 579.2405,330.238 579.2405,333 z "
   style="fill:red;stroke:black;stroke-width:1"
   id="path5520" /><path
   d="M 615.2405,270 C 615.2405,272.762 613.0025,275 610.2405,275 C 607.4785,275 605.2405,272.762 605.2405,270 C 605.2405,267.238 607.4785,265 610.2405,265 C 613.0025,265 615.2405,267.238 615.2405,270 z "
   style="fill:red;stroke:black;stroke-width:1"
   id="path5522" /><path
   d="M 687.2405,270 C 687.2405,272.762 685.0025,275 682.2405,275 C 679.4785,275 677.2405,272.762 677.2405,270 C 677.2405,267.238 679.4785,265 682.2405,265 C 685.0025,265 687.2405,267.238 687.2405,270 z "
   style="fill:red;stroke:black;stroke-width:1"
   id="path5524" /><path
   d="M 88.235504,405 L 156.7115,454.751 L 130.5555,535.249 L 45.915504,535.249 L 19.759504,454.751 L 88.235504,405 z "
   style="fill:none;stroke:black;stroke-width:1"
   id="path5526" /><path
   d="M 88.235504,405 L 88.235504,477 L 130.5555,535.249"
   style="fill:none;stroke:black;stroke-width:1"
   id="path5528" /><path
   d="M 156.7115,454.751 L 88.235504,477 L 45.915504,535.249"
   style="fill:none;stroke:black;stroke-width:1"
   id="path5530" /><path
   d="M 19.759504,454.751 L 88.235504,477"
   style="fill:none;stroke:black;stroke-width:1"
   id="path5532" /><path
   d="M 93.235504,405 C 93.235504,407.762 90.996504,410 88.235504,410 C 85.474504,410 83.235504,407.762 83.235504,405 C 83.235504,402.238 85.474504,400 88.235504,400 C 90.996504,400 93.235504,402.238 93.235504,405 z "
   style="fill:red;stroke:black;stroke-width:1"
   id="path5534" /><path
   d="M 93.235504,477 C 93.235504,479.762 90.996504,482 88.235504,482 C 85.474504,482 83.235504,479.762 83.235504,477 C 83.235504,474.238 85.474504,472 88.235504,472 C 90.996504,472 93.235504,474.238 93.235504,477 z "
   style="fill:red;stroke:black;stroke-width:1"
   id="path5536" /><path
   d="M 161.7115,454.751 C 161.7115,457.513 159.4725,459.751 156.7115,459.751 C 153.9505,459.751 151.7115,457.513 151.7115,454.751 C 151.7115,451.989 153.9505,449.751 156.7115,449.751 C 159.4725,449.751 161.7115,451.989 161.7115,454.751 z "
   style="fill:red;stroke:black;stroke-width:1"
   id="path5538" /><path
   d="M 24.759504,454.751 C 24.759504,457.513 22.520504,459.751 19.759504,459.751 C 16.998504,459.751 14.759504,457.513 14.759504,454.751 C 14.759504,451.989 16.998504,449.751 19.759504,449.751 C 22.520504,449.751 24.759504,451.989 24.759504,454.751 z "
   style="fill:red;stroke:black;stroke-width:1"
   id="path5540" /><path
   d="M 50.915504,535.249 C 50.915504,538.011 48.676504,540.249 45.915504,540.249 C 43.154504,540.249 40.915504,538.011 40.915504,535.249 C 40.915504,532.487 43.154504,530.249 45.915504,530.249 C 48.676504,530.249 50.915504,532.487 50.915504,535.249 z "
   style="fill:red;stroke:black;stroke-width:1"
   id="path5542" /><path
   d="M 135.5555,535.249 C 135.5555,538.011 133.3165,540.249 130.5555,540.249 C 127.7945,540.249 125.5555,538.011 125.5555,535.249 C 125.5555,532.487 127.7945,530.249 130.5555,530.249 C 133.3165,530.249 135.5555,532.487 135.5555,535.249 z "
   style="fill:red;stroke:black;stroke-width:1"
   id="path5544" /><path
   d="M 259.2405,540 L 403.2405,540 L 367.2405,423 L 331.2405,540 L 295.2405,423 L 259.2405,540 L 223.2405,423 L 367.2405,423"
   style="fill:none;stroke:black;stroke-width:1"
   id="path5546" /><path
   d="M 228.2405,423 C 228.2405,425.762 226.0015,428 223.2405,428 C 220.4795,428 218.2405,425.762 218.2405,423 C 218.2405,420.238 220.4795,418 223.2405,418 C 226.0015,418 228.2405,420.238 228.2405,423 z "
   style="fill:red;stroke:black;stroke-width:1"
   id="path5548" /><path
   d="M 264.2405,540 C 264.2405,542.762 262.0015,545 259.2405,545 C 256.4795,545 254.2405,542.762 254.2405,540 C 254.2405,537.238 256.4795,535 259.2405,535 C 262.0015,535 264.2405,537.238 264.2405,540 z "
   style="fill:red;stroke:black;stroke-width:1"
   id="path5550" /><path
   d="M 300.2405,423 C 300.2405,425.762 298.0015,428 295.2405,428 C 292.4795,428 290.2405,425.762 290.2405,423 C 290.2405,420.238 292.4795,418 295.2405,418 C 298.0015,418 300.2405,420.238 300.2405,423 z "
   style="fill:red;stroke:black;stroke-width:1"
   id="path5552" /><path
   d="M 336.2405,540 C 336.2405,542.762 334.0015,545 331.2405,545 C 328.4795,545 326.2405,542.762 326.2405,540 C 326.2405,537.238 328.4795,535 331.2405,535 C 334.0015,535 336.2405,537.238 336.2405,540 z "
   style="fill:red;stroke:black;stroke-width:1"
   id="path5554" /><path
   d="M 372.2405,423 C 372.2405,425.762 370.0025,428 367.2405,428 C 364.4785,428 362.2405,425.762 362.2405,423 C 362.2405,420.238 364.4785,418 367.2405,418 C 370.0025,418 372.2405,420.238 372.2405,423 z "
   style="fill:red;stroke:black;stroke-width:1"
   id="path5556" /><path
   d="M 408.2405,540 C 408.2405,542.762 406.0025,545 403.2405,545 C 400.4785,545 398.2405,542.762 398.2405,540 C 398.2405,537.238 400.4785,535 403.2405,535 C 406.0025,535 408.2405,537.238 408.2405,540 z "
   style="fill:red;stroke:black;stroke-width:1"
   id="path5558" /><path
   d="M 484.2355,477 L 556.2355,405 L 628.2355,477 L 556.2355,549 L 484.2355,477 z "
   style="fill:none;stroke:black;stroke-width:1"
   id="path5560" /><path
   d="M 484.2355,477 L 628.2355,477"
   style="fill:none;stroke:black;stroke-width:1"
   id="path5562" /><path
   d="M 556.2355,405 L 556.2355,549 C 705.2355,548.801 700.2355,405 556.2355,405 z "
   style="fill:none;stroke:black;stroke-width:1"
   id="path5564" /><path
   d="M 489.2355,477 C 489.2355,479.762 486.9975,482 484.2355,482 C 481.4735,482 479.2355,479.762 479.2355,477 C 479.2355,474.238 481.4735,472 484.2355,472 C 486.9975,472 489.2355,474.238 489.2355,477 z "
   style="fill:red;stroke:black;stroke-width:1"
   id="path5566" /><path
   d="M 561.2355,477 C 561.2355,479.762 558.9975,482 556.2355,482 C 553.4735,482 551.2355,479.762 551.2355,477 C 551.2355,474.238 553.4735,472 556.2355,472 C 558.9975,472 561.2355,474.238 561.2355,477 z "
   style="fill:red;stroke:black;stroke-width:1"
   id="path5568" /><path
   d="M 561.2355,405 C 561.2355,407.762 558.9975,410 556.2355,410 C 553.4735,410 551.2355,407.762 551.2355,405 C 551.2355,402.238 553.4735,400 556.2355,400 C 558.9975,400 561.2355,402.238 561.2355,405 z "
   style="fill:red;stroke:black;stroke-width:1"
   id="path5570" /><path
   d="M 633.2355,477 C 633.2355,479.762 630.9975,482 628.2355,482 C 625.4735,482 623.2355,479.762 623.2355,477 C 623.2355,474.238 625.4735,472 628.2355,472 C 630.9975,472 633.2355,474.238 633.2355,477 z "
   style="fill:red;stroke:black;stroke-width:1"
   id="path5572" /><path
   d="M 561.2355,549 C 561.2355,551.762 558.9975,554 556.2355,554 C 553.4735,554 551.2355,551.762 551.2355,549 C 551.2355,546.238 553.4735,544 556.2355,544 C 558.9975,544 561.2355,546.238 561.2355,549 z "
   style="fill:red;stroke:black;stroke-width:1"
   id="path5574" />
</svg>