<svg xmlns="http://www.w3.org/2000/svg" width="612" height="360"><path d="M54 324V36m35 288V36m37 288V36m35 288V36m38 288V36m35 288V36m37 288V36m35 288V36m35 288V36m37 288V36m35 288V36m38 288V36m35 288V36m37 288V36m35 288V36" fill="none" stroke="#7FC0E6" stroke-width="4"/><g fill="none" stroke="#000" stroke-width="1.5"><path d="M36 36h540v288H36z"/><path stroke-linejoin="bevel" d="M576 180H36l216-72zm-324-72l36-72 288 72H36l144-72 72 72V36M36 180l360 72 180-72M36 252h540l-144 72-36-72-288 72zm360 0v72"/></g><g font-family="Times,serif" font-style="italic" font-size="36"><text transform="translate(99 27)">a</text><text transform="translate(495 351)">a</text><text transform="translate(207 27)">b</text><text transform="translate(63 351)">b</text><text transform="translate(262.01 27)">c</text><text transform="translate(406.01 351)">c</text><text transform="translate(423 27)">d</text><text transform="translate(243 351)">d</text><text transform="translate(10.01 90)">e</text><text transform="translate(12.999 153)">f</text><text transform="translate(9 216)">g</text><text transform="translate(9 297)">h</text><text transform="translate(586.01 90)">e</text><text transform="translate(588.999 153)">f</text><text transform="translate(585 216)">g</text><text transform="translate(585 297)">h</text></g><g fill="#BC1E46" stroke="#000"><circle cx="36" cy="36" r="4.5"/><circle cx="36" cy="108" r="4.5"/><circle cx="180" cy="36" r="4.5"/><circle cx="252" cy="108" r="4.5"/><circle cx="252" cy="36" r="4.5"/><circle cx="288" cy="36" r="4.5"/><circle cx="576" cy="108" r="4.5"/><circle cx="576" cy="36" r="4.5"/><circle cx="576" cy="180" r="4.5"/><circle cx="36" cy="180" r="4.5"/><circle cx="396" cy="252" r="4.5"/><circle cx="108" cy="324" r="4.5"/><circle cx="36" cy="252" r="4.5"/><circle cx="36" cy="324" r="4.5"/><circle cx="396" cy="324" r="4.5"/><circle cx="432" cy="324" r="4.5"/><circle cx="576" cy="252" r="4.5"/><circle cx="576" cy="324" r="4.5"/></g></svg>