<svg xmlns="http://www.w3.org/2000/svg" width="1080" height="270"><path d="M0 0h1080v27H0zm0 54h1080v27H0zm0 54h1080v27H0zm0 54h1080v27H0zm0 54h1080v27H0z" fill="#7FC8A2"/><path d="M0 27h1080v27H0zm0 54h1080v27H0zm0 54h1080v27H0zm0 54h1080v27H0zm0 54h1080v27H0z" fill="#DD8EA2"/><path d="M10 0L9 270M20 0l-2 270M30 0l-3 270M40 0l-4 270M50 0l-5 270M60 0l-6 270M70 0l-7 270M80 0l-8 270M90 0l-9 270M100 0L90 270M110 0L99 270M120 0l-12 270M130 0l-13 270M140 0l-14 270M150 0l-15 270M160 0l-16 270M170 0l-17 270M180 0l-18 270M190 0l-19 270M200 0l-20 270M210 0l-21 270M220 0l-22 270M230 0l-23 270M240 0l-24 270M250 0l-25 270M260 0l-26 270M270 0l-27 270M280 0l-28 270M290 0l-29 270M300 0l-30 270M310 0l-31 270M320 0l-32 270M330 0l-33 270M340 0l-34 270M350 0l-35 270M360 0l-36 270M370 0l-37 270M380 0l-38 270M390 0l-39 270M400 0l-40 270M410 0l-41 270M420 0l-42 270M430 0l-43 270M440 0l-44 270M450 0l-45 270M460 0l-46 270M470 0l-47 270M480 0l-48 270M490 0l-49 270M500 0l-50 270M510 0l-51 270M520 0l-52 270M530 0l-53 270M540 0l-54 270M550 0l-55 270M560 0l-56 270M570 0l-57 270M580 0l-58 270M590 0l-59 270M600 0l-60 270M610 0l-61 270M620 0l-62 270M630 0l-63 270M640 0l-64 270M650 0l-65 270M660 0l-66 270M670 0l-67 270M680 0l-68 270M690 0l-69 270M700 0l-70 270M710 0l-71 270M720 0l-72 270M730 0l-73 270M740 0l-74 270M750 0l-75 270M760 0l-76 270M770 0l-77 270M780 0l-78 270M790 0l-79 270M800 0l-80 270M810 0l-81 270M819 0l-81 270M829 0l-82 270M839 0l-83 270M849 0l-84 270M859 0l-85 270M869 0l-86 270M879 0l-87 270M889 0l-88 270M899 0l-89 270M909 0l-90 270M919 0l-91 270M929 0l-92 270M939 0l-93 270M949 0l-94 270M959 0l-95 270M969 0l-96 270M979 0l-97 270M989 0l-98 270M999 0l-99 270M1009 0L909 270M1019 0L918 270M1029 0L927 270M1039 0L936 270M1049 0L945 270M1059 0L954 270M1068 0L963 270M1078 0L972 270M1088 0L981 270M1098 0L990 270M1108 0L999 270M1118 0l-110 270M1128 0l-111 270M1138 0l-112 270M1148 0l-113 270M1158 0l-114 270M1168 0l-115 270M1178 0l-116 270M1188 0l-117 270" fill="none" stroke="#000"/></svg>