<svg xmlns="http://www.w3.org/2000/svg" width="504" height="504"><g fill="#FEC200" stroke="#000"><path fill="none" stroke="#7FC0E6" stroke-width="3" d="M468 222H324.4l101.5-101.5c11.7-11.7 11.7-30.7 0-42.4s-30.7-11.7-42.4 0L282 179.6V36c0-16.6-13.4-30-30-30s-30 13.4-30 30v143.6L120.5 78.1c-11.7-11.7-30.7-11.7-42.4 0s-11.7 30.7 0 42.4L179.6 222H36c-16.6 0-30 13.4-30 30s13.4 30 30 30h143.6L78.1 383.5c-11.7 11.7-11.7 30.7 0 42.4 5.9 5.9 13.5 8.8 21.2 8.8s15.4-2.9 21.2-8.8L222 324.4V468c0 16.6 13.4 30 30 30s30-13.4 30-30V324.4l101.5 101.5c5.9 5.9 13.5 8.8 21.2 8.8 7.7 0 15.4-2.9 21.2-8.8 11.7-11.7 11.7-30.7 0-42.4L324.4 282H468c16.6 0 30-13.4 30-30s-13.4-30-30-30z"/><path fill="none" stroke-width="2" d="M252 252V36m0 216L99.3 99.3M252 252H36m216 0L99.3 404.7M252 252v216m0-216l152.7 152.7M252 252h216m-216 0L404.7 99.3"/><circle cx="252" cy="36" r="18"/><circle cx="99.3" cy="99.3" r="18"/><circle cx="36" cy="252" r="18"/><circle cx="99.3" cy="404.7" r="18"/><circle cx="252" cy="468" r="18"/><circle cx="404.7" cy="404.7" r="18"/><circle cx="468" cy="252" r="18"/><circle cx="404.7" cy="99.3" r="18"/><circle fill="#BC1E46" cx="252" cy="252" r="18"/></g></svg>