<svg xmlns="http://www.w3.org/2000/svg" width="1260" height="594"><path fill="#DD8EA2" d="M657 297c-12.8 4.7-28.6 12.8-38.5 21.4l7.7-21.4-7.7-21.4c9.9 8.6 25.7 16.7 38.5 21.4z"/><g fill="none" stroke-width="6"><path stroke="#DD8EA2" d="M513 297h116.8"/><path stroke="#FEC200" d="M9 9v576M729 9v576"/><path stroke="#0081CD" d="M9 144l342 279M9 36l144 54M9 117l522-63M9 567l477-171M9 513l252-135M9 225l171 171M9 261l72 108M9 450l108-90m612-216h342M729 36h144m-144 81h522M729 567h477m-477-54h252M729 225h171m-171 36h72m-72 189h108"/></g></svg>