<svg xmlns="http://www.w3.org/2000/svg" width="486" height="486"><g fill="none" stroke="#000"><path d="M32.4 291.1L243 315l210.6-24M74.1 108.3L243 99l168.9 9.3M149.3 437.6L243 459l93.7-21.4"/><path d="M149.3 437.6l150-149.7 112.6-179.6M32.4 291.1l98-137.9L243 27m93.7 410.6l75.2-59.9 41.7-86.7"/><path d="M336.7 437.6L313.2 227 243 27m-93.7 410.6l-46.7-162.5-28.5-166.7M453.6 291v-96.1l-41.7-86.6"/><path d="M453.6 291L274.2 178.1 74.1 108.4m262.6 329.2l-156.2-64.9-148.1-81.6m379.5-182.8l-75.2-59.9L243 27"/><path d="M411.9 108.3l-200.1 69.8-179.4 113m421.2-.1l-148.1 81.7-156.2 64.9M243 27l-93.7 21.4-75.2 60"/><path d="M243 27l-70.2 200-23.5 210.6m262.6-329.3L383.4 275l-46.6 162.6M74.1 108.4L32.4 195v96.1"/><path d="M74.1 108.4l112.6 179.5 150.1 149.7M243 27l112.6 126.2 98 137.8m-421.2.1l41.7 86.6 75.2 59.9"/><g fill="#0081CD"><circle cx="243" cy="27" r="18"/><circle cx="74.1" cy="108.3" r="18"/><circle cx="32.4" cy="291.1" r="18"/><circle cx="149.3" cy="437.6" r="18"/><circle cx="336.7" cy="437.6" r="18"/><circle cx="453.6" cy="291" r="18"/><circle cx="411.9" cy="108.3" r="18"/></g><g fill="#FEC200"><circle cx="243" cy="459" r="12"/><circle cx="243" cy="99" r="12"/><circle cx="243" cy="315" r="12"/><circle cx="411.9" cy="377.7" r="12"/><circle cx="130.4" cy="153.2" r="12"/><circle cx="299.3" cy="287.9" r="12"/><circle cx="453.6" cy="194.9" r="12"/><circle cx="102.6" cy="275.1" r="12"/><circle cx="313.2" cy="227" r="12"/><circle cx="336.7" cy="48.4" r="12"/><circle cx="180.5" cy="372.7" r="12"/><circle cx="274.2" cy="178.1" r="12"/><circle cx="149.3" cy="48.4" r="12"/><circle cx="305.5" cy="372.7" r="12"/><circle cx="211.8" cy="178.1" r="12"/><circle cx="32.4" cy="195" r="12"/><circle cx="383.4" cy="275" r="12"/><circle cx="172.8" cy="227" r="12"/><circle cx="74.1" cy="377.7" r="12"/><circle cx="355.6" cy="153.2" r="12"/><circle cx="186.7" cy="287.9" r="12"/></g></g></svg>