<svg xmlns="http://www.w3.org/2000/svg" width="794.8" height="615.4"><path fill="#7FC0E6" d="M773.8 516.4c0-44.7-18.1-81-40.5-81h-678c-22.4 0-40.5 36.3-40.5 81h9c0 44.7 18.1 81 40.5 81h678c22.4 0 40.5-36.3 40.5-81h-9z"/><path fill="none" stroke="#000" d="M64.3 597.4c-22.4 0-40.5-36.3-40.5-81m723 0c0 5-2 9-4.5 9s-4.5-4-4.5-9"/><path fill="none" stroke="#000" d="M755.8 516.4c0 14.9-6 27-13.5 27s-13.5-12.1-13.5-27"/><path fill="none" stroke="#000" d="M764.8 516.4c0 24.9-10.1 45-22.5 45s-22.5-20.1-22.5-45"/><path fill="none" stroke="#000" d="M773.8 516.4c0 34.8-14.1 63-31.5 63s-31.5-28.2-31.5-63m18 0c0-5 2-9 4.5-9s4.5 4 4.5 9"/><path fill="none" stroke="#000" d="M719.8 516.4c0-14.9 6-27 13.5-27s13.5 12.1 13.5 27"/><path fill="none" stroke="#000" d="M710.8 516.4c0-24.9 10.1-45 22.5-45s22.5 20.1 22.5 45"/><path fill="none" stroke="#000" d="M701.8 516.4c0-34.8 14.1-63 31.5-63s31.5 28.2 31.5 63m-342 81c-22.4 0-45-36.3-45-81m54 81c-22.4 0-45-36.3-45-81m-27 0h18m-36 0c0-44.7 27.1-81 49.5-81m4.5 81c0-44.7 9.1-81 31.5-81m-22.5 81c0-44.7 9.1-81 31.5-81m-103.5 81c0-44.7 27.1-81 49.5-81"/><path fill="none" stroke="#000" d="M404.8 516.4h288c0-44.7 18.1-81 40.5-81s40.5 36.3 40.5 81h9c0 44.7-18.1 81-40.5 81s-40.5-36.3-40.5-81m-315 0h9m-54 0h9m-295.5-81c-22.4 0-40.5 36.3-40.5 81h318"/><path fill="#7FC0E6" d="M219.3 371.9v-162h-27.5c-9.6 0-17.5-7.9-17.5-17.5s7.9-17.5 17.5-17.5h27.5v-162h359v162h27.5c9.6 0 17.5 7.9 17.5 17.5s-7.9 17.5-17.5 17.5h-27.5v162h-359zm359-170h27.5c5.2 0 9.5-4.3 9.5-9.5s-4.3-9.5-9.5-9.5h-27.5v19zm-386.5-19c-5.2 0-9.5 4.3-9.5 9.5s4.3 9.5 9.5 9.5h27.5v-19h-27.5z"/><path d="M577.8 13.4v162h28c9.4 0 17 7.6 17 17s-7.6 17-17 17h-28v162h-358v-162h-28c-9.4 0-17-7.6-17-17s7.6-17 17-17h28v-162h358m0 189h28c5.5 0 10-4.5 10-10s-4.5-10-10-10h-28v20m-386 0h28v-20h-28c-5.5 0-10 4.5-10 10s4.5 10 10 10m387-190h-360v162h-27c-9.9 0-18 8.1-18 18s8.1 18 18 18h27v162h360v-162h27c9.9 0 18-8.1 18-18s-8.1-18-18-18h-27v-162zm0 189v-18h27c5 0 9 4 9 9s-4 9-9 9h-27zm-387 0c-5 0-9-4-9-9s4-9 9-9h27v18h-27z"/><path fill="none" stroke="#000" d="M351.5 537.1c-.5-6.6-.7-13.6-.7-20.7m31.5 81c-16.6 0-26-20.1-29.6-48.8m8.2-6.4c-.8-8.1-1.2-16.8-1.2-25.8m31.6 81c-15.9 0-25.1-18.3-29.1-45"/><path fill="none" stroke="#000" d="M380.1 540.9c-3.4 1.6-7.3 2.5-11.3 2.5-14.9 0-27-12.1-27-27m54 0c0 7.3-2.9 14-7.6 18.8"/><path fill="none" stroke="#000" d="M382.2 549.8c-4.2 1.7-8.7 2.6-13.5 2.6-19.9 0-36-16.1-36-36m72.1 0c0 11.9-5.8 22.5-14.7 29"/></svg>