<svg xmlns="http://www.w3.org/2000/svg" width="1188" height="612"><g stroke="#CCC" stroke-width="3" fill="#FFE07F"><path d="M110.9 578.2L69.1 465.8l288-144 41.8 112.4z"/><path d="M348.1 430l-288-144 59.8-104 288 144z"/><path d="M638.6 575.4l-288-144 54.8-106.8 288 144zm432-144l-288-144 54.8-106.8 288 144z"/><path d="M834.2 288.9l-48.4-109.8 288-144 48.4 109.8z"/><path d="M781.8 286.9l-288-144 56.4-105.8 288 144z"/><path d="M432 404.2l-108-52.4 144-288 108 52.4z"/><circle cx="1098" cy="378" r="81"/><circle cx="1098" cy="90" r="81"/><circle cx="810" cy="234" r="81"/><circle cx="666" cy="522" r="81"/><circle cx="90" cy="522" r="81"/><circle cx="90" cy="234" r="81"/><circle cx="378" cy="378" r="81"/><circle cx="522" cy="90" r="81"/></g><g fill="none" stroke="#000"><path d="M846 270l288 144-288-216"/><path d="M846 198l288 144-288-72"/><path d="M774 270l288 144-288-216"/><path d="M774 198l288 144-288-72"/><path d="M846 198l216 144-216-72"/><path d="M846 270l216 144-216-216"/><path d="M774 198l360 144-360-72"/><path d="M774 270l360 144-360-216"/><path d="M1062 342h72v72h-72zm0 72l72-72m-72 0l72 72M846 270l288-144-288 72"/><path d="M846 198l288-144-288 216"/><path d="M774 270l288-144-288 72"/><path d="M774 198l288-144-288 216"/><path d="M846 198l216-144-216 216"/><path d="M846 270l216-144-216 72"/><path d="M774 198l360-144-360 216"/><path d="M774 270l360-144-360 72m288-144h72v72h-72zm0 72l72-72m-72 0l72 72"/><path d="M558 126l288 72L558 54"/><path d="M558 54l288 216-288-144"/><path d="M486 126l288 72L486 54"/><path d="M486 54l288 216-288-144"/><path d="M486 54l360 216-360-144"/><path d="M486 126l360 72L486 54"/><path d="M558 54l216 216-216-144"/><path d="M558 126l216 72L558 54m216 144h72v72h-72zm0 72l72-72m-72 0l72 72M414 414l288 144-288-216"/><path d="M414 342l288 144-288-72"/><path d="M342 414l288 144-288-216"/><path d="M342 342l288 144-288-72"/><path d="M414 342l216 144-216-72"/><path d="M414 414l216 144-216-216"/><path d="M342 342l360 144-360-72"/><path d="M342 414l360 144-360-216"/><path d="M630 486h72v72h-72zm0 72l72-72m-72 0l72 72M414 414L126 558l288-216"/><path d="M414 342L126 486l288-72"/><path d="M342 414L54 558l288-216"/><path d="M342 342L54 486l288-72"/><path d="M414 342L54 486l360-72"/><path d="M414 414L54 558l360-216"/><path d="M342 342L126 486l216-72"/><path d="M342 414L126 558l216-216M54 486h72v72H54zm0 72l72-72m-72 0l72 72"/><path d="M414 414L126 270l288 72"/><path d="M414 342L126 198l288 216"/><path d="M342 414L54 270l288 72"/><path d="M342 342L54 198l288 216"/><path d="M414 342L54 198l360 216"/><path d="M414 414L54 270l360 72"/><path d="M342 342L126 198l216 216"/><path d="M342 414L126 270l216 72M54 198h72v72H54zm0 72l72-72m-72 0l72 72m288 72L558 54 414 414l144-288zm-72 0L486 54 342 414l144-288z"/><path d="M414 414l72-288-72 216 72-288z"/><path d="M342 414l216-288-216 216L558 54z"/><path d="M342 342h72v72h-72zm0 72l72-72m-72 0l72 72m72-360h72v72h-72zm0 72l72-72m-72 0l72 72"/><g fill="#0081CD"><circle cx="1062" cy="414" r="9"/><circle cx="1062" cy="342" r="9"/><circle cx="1134" cy="342" r="9"/><circle cx="1134" cy="414" r="9"/><circle cx="1062" cy="126" r="9"/><circle cx="1062" cy="54" r="9"/><circle cx="1134" cy="54" r="9"/><circle cx="1134" cy="126" r="9"/><circle cx="774" cy="270" r="9"/><circle cx="774" cy="198" r="9"/><circle cx="846" cy="198" r="9"/><circle cx="846" cy="270" r="9"/><circle cx="630" cy="558" r="9"/><circle cx="630" cy="486" r="9"/><circle cx="702" cy="486" r="9"/><circle cx="702" cy="558" r="9"/><circle cx="54" cy="558" r="9"/><circle cx="54" cy="486" r="9"/><circle cx="126" cy="486" r="9"/><circle cx="126" cy="558" r="9"/><circle cx="54" cy="270" r="9"/><circle cx="54" cy="198" r="9"/><circle cx="126" cy="198" r="9"/><circle cx="126" cy="270" r="9"/><circle cx="342" cy="414" r="9"/><circle cx="342" cy="342" r="9"/><circle cx="414" cy="342" r="9"/><circle cx="414" cy="414" r="9"/><circle cx="486" cy="126" r="9"/><circle cx="486" cy="54" r="9"/><circle cx="558" cy="54" r="9"/><circle cx="558" cy="126" r="9"/></g></g></svg>