<svg xmlns="http://www.w3.org/2000/svg" width="342" height="333"><path fill="#FFE07F" stroke="#000" d="M152.3 133.3c0-53.3-29-99.8-72-124.7-43 24.9-72 71.4-72 124.7 21.2 12.3 45.8 19.3 72 19.3 26.2-.1 50.8-7.1 72-19.3zm46.6-89.9v74.2l64.3 37.1 64.3-37.1V43.4L263.2 6.3zm-87.4 166.8c-9.9-17.2-32-23.1-49.2-13.2-5.7 3.3-10.1 7.9-13.2 13.2l-36 62.4c-6.2 10.8-6.7 24.5 0 36s18.7 18 31.2 18h72c6.1 0 12.3-1.5 18-4.8 17.2-9.9 23.1-32 13.2-49.2l-36-62.4zm218.9 71.3c-.3-35.8-19.7-67.1-48.5-84h-.1c-5.4-3.3-11.8-5.2-18.6-5.2s-13.2 1.9-18.6 5.2h-.1c-28.8 17-48.2 48.2-48.5 84v1.4c.3 12.7 7.1 23.8 17.3 30h.1c14.6 8.6 31.6 13.5 49.8 13.5s35.2-4.9 49.8-13.5h.1c10.2-6.2 17-17.3 17.3-30v-1.4z"/><circle cx="80.3" cy="88.3" r="36"/><circle cx="264.5" cy="82.7" r="36"/><circle cx="80.3" cy="269.8" r="36"/><circle cx="263.2" cy="264.2" r="36"/></svg>