<svg xmlns="http://www.w3.org/2000/svg" width="733.2" height="565"><g stroke="#000"><path fill="#0081CD" d="M-13.4 454.3h31.5v50h-31.5zm31.5 0h31.5v50H18.1zm31.5 0h31.5v50H49.6zm31.5 0h31.5v50H81.1zm31.5 0h31.5v50h-31.5zm31.5 0h31.5v50h-31.5zm31.5 0h31.5v50h-31.5zm31.5 0h31.5v50h-31.5zm31.5 0h31.5v50h-31.5zm31.5 0h31.5v50h-31.5zm31.5 0h31.5v50h-31.5zm31.5 0h31.5v50h-31.5zm31.5 0h31.5v50h-31.5zm31.5 0h31.5v50h-31.5zm31.5 0h31.5v50h-31.5zm31.5 0h31.5v50h-31.5zm31.5 0h31.5v50h-31.5zm31.5 0h31.5v50h-31.5zm31.5 0h31.5v50h-31.5zm31.5 0h31.5v50h-31.5zm31.5 0h31.5v50h-31.5zm31.5 0h31.5v50h-31.5zm31.5 0h31.5v50h-31.5zm31.5 0h31.5v50h-31.5zM-12.8 19.6h31.5v50h-31.5zm31.5 0h31.5v50H18.7zm31.5 0h31.5v50H50.2zm31.5 0h31.5v50H81.7z"/><path fill="#0081CD" d="M113.2 19.6h31.5v50h-31.5zm31.5 0h31.5v50h-31.5zm31.5 0h31.5v50h-31.5zm31.5 0h31.5v50h-31.5zm31.5 0h31.5v50h-31.5zm31.5 0h31.5v50h-31.5zm31.5 0h31.5v50h-31.5zm31.5 0h31.5v50h-31.5zm31.5 0h31.5v50h-31.5zm31.5 0h31.5v50h-31.5zm31.5 0h31.5v50h-31.5zm31.5 0h31.5v50h-31.5zm31.5 0h31.5v50h-31.5zm31.5 0h31.5v50h-31.5zm31.5 0h31.5v50h-31.5zm31.5 0h31.5v50h-31.5zm31.5 0h31.5v50h-31.5zm31.5 0h31.5v50h-31.5zm31.5 0h31.5v50h-31.5zm31.5 0h31.5v50h-31.5zM-21 261.9h31.5v50H-21zm31.5 0H42v50H10.5zm31.5 0h31.5v50H42zm31.5 0H105v50H73.5zm31.5 0h31.5v50H105zm31.5 0H168v50h-31.5zm31.5 0h31.5v50H168zm31.5 0H231v50h-31.5zm31.5 0h31.5v50H231zm31.5 0H294v50h-31.5zm31.5 0h31.5v50H294zm31.5 0H357v50h-31.5zm31.5 0h31.5v50H357zm31.5 0H420v50h-31.5zm31.5 0h31.5v50H420zm31.5 0H483v50h-31.5zm31.5 0h31.5v50H483zm31.5 0H546v50h-31.5zm31.5 0h31.5v50H546zm31.5 0H609v50h-31.5zm31.5 0h31.5v50H609zm31.5 0H672v50h-31.5zm31.5 0h31.5v50H672zm31.5 0H735v50h-31.5zm-717-121.1H18v50h-31.5zm31.5 0h31.5v50H18zm31.5 0H81v50H49.5zm31.5 0h31.5v50H81zm31.5 0H144v50h-31.5zm31.5 0h31.5v50H144zm31.5 0H207v50h-31.5zm31.5 0h31.5v50H207zm31.5 0H270v50h-31.5zm31.5 0h31.5v50H270zm31.5 0H333v50h-31.5zm31.5 0h31.5v50H333zm31.5 0H396v50h-31.5zm31.5 0h31.5v50H396zm31.5 0H459v50h-31.5zm31.5 0h31.5v50H459zm31.5 0H522v50h-31.5zm31.5 0h31.5v50H522zm31.5 0H585v50h-31.5zm31.5 0h31.5v50H585zm31.5 0H648v50h-31.5zm31.5 0h31.5v50H648zm31.5 0H711v50h-31.5zm31.5 0h31.5v50H711z"/><g fill="#BC1E46"><path d="M-32.1 504.3H7.6V544h-39.7zm39.7 0h39.7V544H7.6z"/><path d="M47.3 504.3H87V544H47.3z"/><path d="M86.9 504.3h39.7V544H86.9z"/><path d="M126.6 504.3h39.7V544h-39.7zm39.7 0H206V544h-39.7zm39.7 0h39.7V544H206zm39.7 0h39.7V544h-39.7zm39.7 0h39.7V544h-39.7zm39.7 0h39.7V544h-39.7z"/><path d="M364.7 504.3h39.7V544h-39.7zm39.7 0h39.7V544h-39.7zm39.7 0h39.7V544h-39.7zm39.7 0h39.7V544h-39.7zm39.7 0h39.7V544h-39.7zm39.7 0h39.7V544h-39.7z"/><path d="M602.8 504.3h39.7V544h-39.7zm39.7 0h39.7V544h-39.7zm39.7 0h39.7V544h-39.7z"/><path d="M721.9 504.3h39.7V544h-39.7zM-28.5 190.8h39.7v39.7h-39.7z"/><path d="M11.2 190.8h39.7v39.7H11.2z"/><path d="M50.8 190.8h39.7v39.7H50.8zm39.7 0h39.7v39.7H90.5zm39.7 0h39.7v39.7h-39.7zm39.7 0h39.7v39.7h-39.7zm39.7 0h39.7v39.7h-39.7zm39.7 0H289v39.7h-39.7zm39.7 0h39.7v39.7H289z"/><path d="M328.6 190.8h39.7v39.7h-39.7zm39.7 0H408v39.7h-39.7zm39.7 0h39.7v39.7H408zm39.7 0h39.7v39.7h-39.7zm39.7 0h39.7v39.7h-39.7zm39.7 0h39.7v39.7h-39.7z"/><path d="M566.8 190.8h39.7v39.7h-39.7z"/><path d="M606.4 190.8h39.7v39.7h-39.7zm39.7 0h39.7v39.7h-39.7z"/><path d="M685.8 190.8h39.7v39.7h-39.7zm39.7 0h39.7v39.7h-39.7zM-31.4 69.6H8.3v39.7h-39.7z"/><path d="M8.2 69.6h39.7v39.7H8.2z"/><path d="M47.9 69.6h39.7v39.7H47.9zm39.7 0h39.7v39.7H87.6zm39.7 0H167v39.7h-39.7zm39.7 0h39.7v39.7H167zm39.7 0h39.7v39.7h-39.7zm39.7 0h39.7v39.7h-39.7z"/><path d="M286 69.6h39.7v39.7H286zm39.7 0h39.7v39.7h-39.7zm39.7 0h39.7v39.7h-39.7zm39.7 0h39.7v39.7h-39.7zm39.7 0h39.7v39.7h-39.7zm39.7 0h39.7v39.7h-39.7z"/><path d="M524.1 69.6h39.7v39.7h-39.7z"/><path d="M563.8 69.6h39.7v39.7h-39.7zm39.7 0h39.7v39.7h-39.7zm39.7 0h39.7v39.7h-39.7z"/><path d="M682.9 69.6h39.7v39.7h-39.7zm39.7 0h39.7v39.7h-39.7zM-39.7 311.9H0v39.7h-39.7zm39.7 0h39.7v39.7H0zm39.7 0h39.7v39.7H39.7zm39.7 0h39.7v39.7H79.4z"/><path d="M119.1 311.9h39.7v39.7h-39.7z"/><path d="M158.7 311.9h39.7v39.7h-39.7zm39.7 0h39.7v39.7h-39.7zm39.7 0h39.7v39.7h-39.7zm39.7 0h39.7v39.7h-39.7zm39.7 0h39.7v39.7h-39.7zm39.7 0h39.7v39.7h-39.7zm39.7 0h39.7v39.7h-39.7z"/><path d="M436.5 311.9h39.7v39.7h-39.7zm39.7 0h39.7v39.7h-39.7zm39.7 0h39.7v39.7h-39.7zm39.7 0h39.7v39.7h-39.7z"/><path d="M595.3 311.9H635v39.7h-39.7zm39.7 0h39.7v39.7H635z"/><path d="M674.6 311.9h39.7v39.7h-39.7z"/><path d="M714.3 311.9H754v39.7h-39.7zm-744.2 71.2H9.8v39.7h-39.7zm39.7 0h39.7v39.7H9.8zm39.7 0h39.7v39.7H49.5zm39.7 0h39.7v39.7H89.2zm39.7 0h39.7v39.7h-39.7zm39.7 0h39.7v39.7h-39.7z"/><path d="M208.2 383.1h39.7v39.7h-39.7zm39.7 0h39.7v39.7h-39.7zm39.7 0h39.7v39.7h-39.7zm39.7 0H367v39.7h-39.7zm39.7 0h39.7v39.7H367zm39.7 0h39.7v39.7h-39.7zm39.7 0h39.7v39.7h-39.7z"/><path d="M486 383.1h39.7v39.7H486zm39.7 0h39.7v39.7h-39.7z"/><path d="M565.4 383.1h39.7v39.7h-39.7zm39.7 0h39.7v39.7h-39.7z"/><path d="M644.8 383.1h39.7v39.7h-39.7zm39.7 0h39.7v39.7h-39.7zm39.7 0h39.7v39.7h-39.7z"/></g><g fill="#FEC200"><path d="M-34.2 544h50v31.5h-50zm50 0h50v31.5h-50zm50 0h50v31.5h-50zm50 0h50v31.5h-50zm50 0h50v31.5h-50zm50 0h50v31.5h-50zm50 0h50v31.5h-50zm50 0h50v31.5h-50zm50 0h50v31.5h-50zm50 0h50v31.5h-50z"/><path d="M465.8 544h50v31.5h-50zm50 0h50v31.5h-50zm50 0h50v31.5h-50zm50 0h50v31.5h-50zm50 0h50v31.5h-50zm50 0h50v31.5h-50zM-32-11.9h50v31.5h-50zm50 0h50v31.5H18zm50 0h50v31.5H68zm50 0h50v31.5h-50zm50 0h50v31.5h-50zm50 0h50v31.5h-50zm50 0h50v31.5h-50zm50 0h50v31.5h-50zm50 0h50v31.5h-50zm50 0h50v31.5h-50zm50 0h50v31.5h-50zm50 0h50v31.5h-50zm50 0h50v31.5h-50zm50 0h50v31.5h-50zm50 0h50v31.5h-50zm50 0h50v31.5h-50zM-33.5 109.3h50v31.5h-50zm50 0h50v31.5h-50zm50 0h50v31.5h-50zm50 0h50v31.5h-50zm50 0h50v31.5h-50zm50 0h50v31.5h-50zm50 0h50v31.5h-50zm50 0h50v31.5h-50zm50 0h50v31.5h-50zm50 0h50v31.5h-50zm50 0h50v31.5h-50zm50 0h50v31.5h-50zm50 0h50v31.5h-50zm50 0h50v31.5h-50zm50 0h50v31.5h-50zm50 0h50v31.5h-50zM-38.9 230.4h50v31.5h-50z"/><path d="M11.1 230.4h50v31.5h-50z"/><path d="M61.1 230.4h50v31.5h-50zm50 0h50v31.5h-50zm50 0h50v31.5h-50zm50 0h50v31.5h-50zm50 0h50v31.5h-50zm50 0h50v31.5h-50zm50 0h50v31.5h-50zm50 0h50v31.5h-50zm50 0h50v31.5h-50zm50 0h50v31.5h-50zm50 0h50v31.5h-50zm50 0h50v31.5h-50zm50 0h50v31.5h-50zm50 0h50v31.5h-50zM-41.8 351.6h50v31.5h-50z"/><path d="M8.2 351.6h50v31.5h-50zm50 0h50v31.5h-50z"/><path d="M108.2 351.6h50v31.5h-50zm50 0h50v31.5h-50zm50 0h50v31.5h-50zm50 0h50v31.5h-50zm50 0h50v31.5h-50zm50 0h50v31.5h-50zm50 0h50v31.5h-50zm50 0h50v31.5h-50zm50 0h50v31.5h-50zm50 0h50v31.5h-50zm50 0h50v31.5h-50zm50 0h50v31.5h-50zm50 0h50v31.5h-50zm-740.1 71.2h50v31.5h-50z"/><path d="M18.1 422.8h50v31.5h-50zm50 0h50v31.5h-50zm50 0h50v31.5h-50zm50 0h50v31.5h-50zm50 0h50v31.5h-50zm50 0h50v31.5h-50zm50 0h50v31.5h-50zm50 0h50v31.5h-50zm50 0h50v31.5h-50zm50 0h50v31.5h-50zm50 0h50v31.5h-50zm50 0h50v31.5h-50zm50 0h50v31.5h-50zm50 0h50v31.5h-50zm50 0h50v31.5h-50z"/></g></g></svg>