<svg xmlns="http://www.w3.org/2000/svg" width="1037.8" height="550"><g stroke="#000"><path fill="#FEC200" d="M523.7 275h31.5v50h-31.5zm31.5 0h31.5v50h-31.5zm-71.2 0h39.7v39.7H484zm-86.3 79.4h31.5v50h-31.5zm31.5 0h31.5v50h-31.5zm-71.2 0h39.7v39.7H358zm-86.3 79.3h31.5v50h-31.5zm31.5 0h31.5v50h-31.5zm-71.2 0h39.7v39.7H232zm-86.3 79.4h31.5v50h-31.5zm31.5 0h31.5v50h-31.5zm-71.2 0h39.7v39.7H106zm623.1-217.5h31.5v50h-31.5zm31.5 0h31.5v50h-31.5zm-71.2 0h39.7v39.7h-39.7zM603.1 375h31.5v50h-31.5zm31.5 0h31.5v50h-31.5zm-71.2 0h39.7v39.7h-39.7zm-86.3 79.4h31.5v50h-31.5zm31.5 0h31.5v50h-31.5zm-71.2 0h39.7v39.7h-39.7zm-86.3 79.3h31.5v50h-31.5zm31.5 0h31.5v50h-31.5zm-71.2 0h39.7v39.7h-39.7zm623.1-217.4H966v50h-31.5zm31.5 0h31.5v50H966zm-71.2 0h39.7V356h-39.7zm-86.3 79.3H840v50h-31.5zm31.5 0h31.5v50H840zm-71.2 0h39.7v39.7h-39.7zM682.5 475H714v50h-31.5zm31.5 0h31.5v50H714zm-71.2 0h39.7v39.7h-39.7zm-86.3 79.4H588v50h-31.5zm31.5 0h31.5v50H588zm-71.2 0h39.7v39.7h-39.7zm497-138.1h31.5v50h-31.5z"/><path fill="#FEC200" d="M974.2 416.3h39.7V456h-39.7zm-86.4 79.3h31.5v50h-31.5zm31.5 0h31.5v50h-31.5z"/><path fill="#FEC200" d="M848.2 495.6h39.7v39.7h-39.7zm179.5-538.1h31.5v50h-31.5zm-39.7 0h39.7v39.7H988zm-86.3 79.4h31.5v50h-31.5zm31.5 0h31.5v50h-31.5zm-71.2 0h39.7v39.7H862zm-86.3 79.4h31.5v50h-31.5zm31.5 0h31.5v50h-31.5zm-71.2 0h39.7V156H736zm-86.3 79.3h31.5v50h-31.5zm31.5 0h31.5v50h-31.5zm-71.2 0h39.7v39.7H610zm371.1-58.7h31.5v50h-31.5z"/><path fill="#FEC200" d="M1012.6 136.9h31.5v50h-31.5zm-71.2 0h39.7v39.7h-39.7zm-86.3 79.4h31.5v50h-31.5zm31.5 0h31.5v50h-31.5zm-71.2 0h39.7V256h-39.7zm205.4 20.6h39.7v39.7h-39.7zM113 233.7h31.5v50H113zm31.5 0H176v50h-31.5zm-71.2 0H113v39.7H73.3zM-13 313.1h31.5v50H-13zm31.5 0H50v50H18.5zm299.9-58.7h31.5v50h-31.5zm31.5 0h31.5v50h-31.5zm-71.2 0h39.7v39.7h-39.7zm-86.3 79.3h31.5v50h-31.5zm31.5 0h31.5v50h-31.5zm-71.2 0h39.7v39.7h-39.7zm-86.3 79.4h31.5v50H66.4zm31.5 0h31.5v50H97.9zm-71.2 0h39.7v39.7H26.7zm-54.8 79.4H3.4v50h-31.5zM80.2-45.6h31.5v50H80.2z"/><path fill="#FEC200" d="M111.7-45.6h31.5v50h-31.5zm-71.1 0h39.7v39.7H40.6zm-54.9 79.3h31.5v50h-31.5zM285.6-25h31.5v50h-31.5zm31.5 0h31.5v50h-31.5zm-71.2 0h39.7v39.7h-39.7zm-86.3 79.4h31.5v50h-31.5zm31.5 0h31.5v50h-31.5zm-71.2 0h39.7v39.7h-39.7zm-86.3 79.3h31.5v50H33.6zm31.5 0h31.5v50H65.1zm-71.2 0h39.7v39.7H-6.1zM491-4.4h31.5v50H491zm31.5 0H554v50h-31.5zm-71.2 0H491v39.7h-39.7zM365 75h31.5v50H365zm31.5 0H428v50h-31.5zm-71.2 0H365v39.7h-39.7zM239 154.4h31.5v50H239zm31.5 0H302v50h-31.5zm-71.2 0H239v39.7h-39.7zM696.4 16.3h31.5v50h-31.5zm31.5 0h31.5v50h-31.5z"/><path fill="#FEC200" d="M656.7 16.3h39.7V56h-39.7zm-86.3 79.3h31.5v50h-31.5zm31.5 0h31.5v50h-31.5zm-71.2 0h39.7v39.7h-39.7zM444.4 175h31.5v50h-31.5zm31.5 0h31.5v50h-31.5zm-71.2 0h39.7v39.7h-39.7z"/><g fill="#BC1E46"><path d="M460.7 314.7h31.5v50h-31.5zm31.5 0h31.5v50h-31.5zm-71.2 0h39.7v39.7H421zm-86.3 79.4h31.5v50h-31.5zm31.5 0h31.5v50h-31.5zm-71.2 0h39.7v39.7H295zm-86.3 79.3h31.5v50h-31.5zm31.5 0h31.5v50h-31.5zm-71.2 0h39.7v39.7H169zm-86.3 79.4h31.5v50H82.7z"/><path d="M114.2 552.8h31.5v50h-31.5zm-71.2 0h39.7v39.7H43zm623.1-217.5h31.5v50h-31.5zm31.5 0h31.5v50h-31.5zm-71.2 0h39.7V375h-39.7zm-86.3 79.4h31.5v50h-31.5zm31.5 0h31.5v50h-31.5zm-71.2 0h39.7v39.7h-39.7zm-86.3 79.4h31.5v50h-31.5zm31.5 0h31.5v50h-31.5zm-71.2 0h39.7v39.7h-39.7zm497.1-138.2H903v50h-31.5zm31.5 0h31.5v50H903zm-71.2 0h39.7v39.7h-39.7zm-86.3 79.4H777v50h-31.5zm31.5 0h31.5v50H777zm-71.2 0h39.7V475h-39.7zm-86.3 79.4H651v50h-31.5zm31.5 0h31.5v50H651zm-71.2 0h39.7v39.7h-39.7zm457.4-138.1h39.7v39.7h-39.7zm-86.4 79.3h31.5v50h-31.5zm31.5 0h31.5v50h-31.5z"/><path d="M911.2 455.9h39.7v39.7h-39.7zm-86.4 79.4h31.5v50h-31.5zm31.5 0h31.5v50h-31.5z"/><path d="M785.2 535.3h39.7V575h-39.7zM964.7-2.8h31.5v50h-31.5zm31.5 0h31.5v50h-31.5zm-71.2 0h39.7v39.7H925zm-86.3 79.4h31.5v50h-31.5zm31.5 0h31.5v50h-31.5zm-71.2 0h39.7v39.7H799zm-86.3 79.3h31.5v50h-31.5zm31.5 0h31.5v50h-31.5zm-71.2 0h39.7v39.7H673zm-86.3 79.4h31.5v50h-31.5zm31.5 0h31.5v50h-31.5zm-71.2 0h39.7V275H547zm497.1-138.1h31.5v50h-31.5zm-39.7 0h39.7v39.7h-39.7zm-86.3 79.4h31.5v50h-31.5zm31.5 0h31.5v50h-31.5zm-71.2 0h39.7v39.7h-39.7zm-86.3 79.3h31.5v50h-31.5zm31.5 0h31.5v50h-31.5zm-71.2 0h39.7v39.7h-39.7zm245.1 20.7h31.5v50h-31.5zm31.5 0h31.5v50H1029zm-71.2 0h39.7v39.7h-39.7zM50 273.4h31.5v50H50zm31.5 0H113v50H81.5zm-71.2 0H50v39.7H10.3zm245.1 20.7h31.5v50h-31.5zm31.5 0h31.5v50h-31.5zm-71.2 0h39.7v39.7h-39.7zm-86.3 79.3h31.5v50h-31.5zm31.5 0h31.5v50h-31.5zm-71.2 0h39.7v39.7H89.7zM3.4 452.8h31.5v50H3.4zm31.5 0h31.5v50H34.9zm-71.2 0H3.4v39.7h-39.7zM17.2-5.9h31.5v50H17.2zm31.5 0h31.5v50H48.7z"/><path d="M-22.4-5.9h39.7v39.7h-39.7zm245 20.6h31.5v50h-31.5zm31.5 0h31.5v50h-31.5z"/><path d="M182.9 14.7h39.7v39.7h-39.7zM96.6 94.1h31.5v50H96.6zm31.5 0h31.5v50h-31.5zm-71.2 0h39.7v39.7H56.9zm-86.3 79.3H2.1v50h-31.5zm31.5 0h31.5v50H2.1zM554-44.1h31.5v50H554zm31.5 0H617v50h-31.5zm-71.2 0H554v39.7h-39.7zM428 35.3h31.5v50H428zm31.5 0H491v50h-31.5zm-71.2 0H428V75h-39.7zM302 114.7h31.5v50H302zm31.5 0H365v50h-31.5zm-71.2 0H302v39.7h-39.7zM176 194.1h31.5v50H176zm31.5 0H239v50h-31.5zm-71.2 0H176v39.7h-39.7zM759.4-23.4h31.5v50h-31.5zm31.5 0h31.5v50h-31.5z"/><path d="M719.7-23.4h39.7v39.7h-39.7zm-86.3 79.3h31.5v50h-31.5zm31.5 0h31.5v50h-31.5zm-71.2 0h39.7v39.7h-39.7zm-86.3 79.4h31.5v50h-31.5zm31.5 0h31.5v50h-31.5zm-71.2 0h39.7V175h-39.7zm-86.3 79.4h31.5v50h-31.5zm31.5 0h31.5v50h-31.5zm-71.2 0h39.7v39.7h-39.7z"/></g><g fill="#7FC8A2"><path d="M626.4 285.3h31.5v50h-31.5zm31.5 0h31.5v50h-31.5z"/><path d="M586.7 285.3h39.7V325h-39.7zm-86.3 79.4h31.5v50h-31.5zm31.5 0h31.5v50h-31.5zm-71.2 0h39.7v39.7h-39.7zm-86.3 79.4h31.5v50h-31.5zm31.5 0h31.5v50h-31.5zm-71.2 0h39.7v39.7h-39.7zm-86.3 79.3h31.5v50h-31.5zm31.5 0h31.5v50h-31.5zm-71.2 0h39.7v39.7h-39.7zm623.1-217.5h31.5v50h-31.5zm31.5 0h31.5v50h-31.5zm-71.2 0h39.7v39.7h-39.7zm-86.3 79.4h31.5v50h-31.5zm31.5 0h31.5v50h-31.5zm-71.2 0h39.7V425h-39.7zm-86.3 79.4h31.5v50h-31.5zm31.5 0h31.5v50h-31.5zm-71.2 0h39.7v39.7h-39.7zm-86.3 79.4h31.5v50h-31.5z"/><path d="M485.3 544.1h31.5v50h-31.5zm-71.2 0h39.7v39.7h-39.7zm623.1-217.5h31.5v50h-31.5zm-39.7 0h39.7v39.7h-39.7zm-86.3 79.3h31.5v50h-31.5zm31.5 0h31.5v50h-31.5zm-71.2 0h39.7v39.7h-39.7zm-86.3 79.4h31.5v50h-31.5zm31.5 0h31.5v50h-31.5zm-71.2 0h39.7V525h-39.7zm245 20.6h31.5v50h-31.5zm31.5 0h31.5v50H1022zm-71.2 0h39.7v39.7h-39.7zm53.6-458.7h31.5v50h-31.5zm31.5 0h31.5v50h-31.5z"/><path d="M964.7 47.2h39.7v39.7h-39.7zm-86.3 79.4h31.5v50h-31.5zm31.5 0h31.5v50h-31.5zm-71.2 0h39.7v39.7h-39.7zm-86.3 79.3h31.5v50h-31.5zm31.5 0h31.5v50h-31.5zm-71.2 0h39.7v39.7h-39.7zm245.1 20.7h31.5v50h-31.5zm31.5 0h31.5v50h-31.5zm-71.2 0h39.7v39.7h-39.7zm-907.8-3.2h31.5v50H10.3zm31.5 0h31.5v50H41.8zm-71.2 0h39.7v39.7h-39.7zm245.1 20.7h31.5v50h-31.5zm31.5 0h31.5v50h-31.5zm-71.2 0h39.7v39.7H176zm-86.3 79.3h31.5v50H89.7z"/><path d="M121.2 323.4h31.5v50h-31.5zm-71.2 0h39.7v39.7H50zm-54.8 79.4h31.5v50H-4.8zM421 264.7h31.5v50H421zm31.5 0H484v50h-31.5z"/><path d="M381.4 264.7h39.7v39.7h-39.7zM295 344.1h31.5v50H295zm31.5 0H358v50h-31.5z"/><path d="M255.4 344.1h39.7v39.7h-39.7zM169 423.4h31.5v50H169zm31.5 0H232v50h-31.5z"/><path d="M129.4 423.4h39.7v39.7h-39.7zM43 502.8h31.5v50H43zm31.5 0H106v50H74.5z"/><path d="M3.4 502.8h39.7v39.7H3.4zM182.9-35.3h31.5v50h-31.5zm31.5 0h31.5v50h-31.5zm-71.2 0h39.7V4.4h-39.7zM56.9 44.1h31.5v50H56.9zm31.5 0h31.5v50H88.4z"/><path d="M17.2 44.1h39.7v39.7H17.2zm371.1-58.8h31.5v50h-31.5zm31.5 0h31.5v50h-31.5zm-71.2 0h39.7V25h-39.7zm-86.3 79.4h31.5v50h-31.5zm31.5 0h31.5v50h-31.5zm-71.2 0h39.7v39.7h-39.7zm-86.3 79.4h31.5v50h-31.5zm31.5 0h31.5v50h-31.5zm-71.2 0h39.7v39.7H96.6zM593.7 5.9h31.5v50h-31.5zm31.5 0h31.5v50h-31.5zm-71.2 0h39.7v39.7H554zm-86.3 79.4h31.5v50h-31.5zm31.5 0h31.5v50h-31.5zm-71.2 0h39.7V125H428zm-86.3 79.4h31.5v50h-31.5zm31.5 0h31.5v50h-31.5zm-71.2 0h39.7v39.7H302zM799 26.6h31.5v50H799zm31.5 0H862v50h-31.5z"/><path d="M759.4 26.6h39.7v39.7h-39.7zM673 105.9h31.5v50H673zm31.5 0H736v50h-31.5z"/><path d="M633.4 105.9h39.7v39.7h-39.7zM547 185.3h31.5v50H547zm31.5 0H610v50h-31.5z"/><path d="M507.4 185.3h39.7V225h-39.7z"/></g><g fill="#0081CD"><path d="M563.4 325h31.5v50h-31.5zm31.5 0h31.5v50h-31.5z"/><path d="M523.7 325h39.7v39.7h-39.7zm-86.3 79.4h31.5v50h-31.5zm31.5 0h31.5v50h-31.5zm-71.2 0h39.7v39.7h-39.7zm-86.3 79.3h31.5v50h-31.5zm31.5 0h31.5v50h-31.5zm-71.2 0h39.7v39.7h-39.7zm497.1-138.1h31.5v50h-31.5zm31.5 0h31.5v50h-31.5zm-71.2 0h39.7v39.7h-39.7zM642.8 425h31.5v50h-31.5zm31.5 0h31.5v50h-31.5z"/><path d="M603.1 425h39.7v39.7h-39.7zm-86.3 79.4h31.5v50h-31.5zm31.5 0h31.5v50h-31.5zm-71.2 0h39.7v39.7h-39.7zm497.1-138.1h31.5v50h-31.5zm31.5 0h31.5v50h-31.5zm-71.2 0h39.7V406h-39.7zm-86.3 79.3h31.5v50h-31.5zm31.5 0h31.5v50h-31.5zm-71.2 0h39.7v39.7h-39.7zM722.2 525h31.5v50h-31.5zm31.5 0h31.5v50h-31.5zm-71.2 0h39.7v39.7h-39.7zm331.3-58.7h39.7V506h-39.7zm-86.3 79.3H959v50h-31.5zm31.5 0h31.5v50H959zm-71.2 0h39.7v39.7h-39.7zM1027.7 7.5h39.7v39.7h-39.7zm-86.3 79.4h31.5v50h-31.5zm31.5 0h31.5v50h-31.5zm-71.2 0h39.7v39.7h-39.7zm-86.3 79.4h31.5v50h-31.5zm31.5 0h31.5v50h-31.5zm-71.2 0h39.7V206h-39.7zm-86.3 79.3h31.5v50h-31.5zm31.5 0h31.5v50h-31.5zm-71.2 0h39.7v39.7h-39.7zm371.1-58.7h31.5v50h-31.5zm-39.7 0h39.7v39.7h-39.7zm-86.3 79.4h31.5v50h-31.5zm31.5 0h31.5v50h-31.5zm-71.2 0h39.7V306h-39.7zm-876.3-3.2h31.5v50h-31.5zm173.9 20.6h31.5v50h-31.5zm31.5 0h31.5v50h-31.5zm-71.2 0h39.7v39.7H113zm-86.3 79.4h31.5v50H26.7zm31.5 0h31.5v50H58.2zm-71.2 0h39.7v39.7H-13zm371-58.7h31.5v50H358zm31.5 0H421v50h-31.5z"/><path d="M318.4 304.4h39.7v39.7h-39.7zM232 383.7h31.5v50H232zm31.5 0H295v50h-31.5z"/><path d="M192.4 383.7h39.7v39.7h-39.7zM106 463.1h31.5v50H106zm31.5 0H169v50h-31.5z"/><path d="M66.4 463.1h39.7v39.7H66.4zM-20 542.5h31.5v50H-20zm31.5 0H43v50H11.5zM119.9 4.4h31.5v50h-31.5zm31.5 0h31.5v50h-31.5zm-71.2 0h39.7v39.7H80.2zM-6.1 83.7h31.5v50H-6.1zm31.5 0h31.5v50H25.4zM325.3 25h31.5v50h-31.5zm31.5 0h31.5v50h-31.5zm-71.2 0h39.7v39.7h-39.7zm-86.3 79.4h31.5v50h-31.5zm31.5 0h31.5v50h-31.5zm-71.2 0h39.7v39.7h-39.7zm-86.3 79.3h31.5v50H73.3zm31.5 0h31.5v50h-31.5z"/><path d="M33.6 183.7h39.7v39.7H33.6zM656.7-33.7h31.5v50h-31.5zm31.5 0h31.5v50h-31.5zm-71.2 0h39.7V6H617zm-86.3 79.3h31.5v50h-31.5zm31.5 0h31.5v50h-31.5zm-71.2 0h39.7v39.7H491zM404.7 125h31.5v50h-31.5zm31.5 0h31.5v50h-31.5zm-71.2 0h39.7v39.7H365zm-86.3 79.4h31.5v50h-31.5zm31.5 0h31.5v50h-31.5zm-71.2 0h39.7v39.7H239zM862-13.1h31.5v50H862zm31.5 0H925v50h-31.5z"/><path d="M822.4-13.1h39.7v39.7h-39.7zM736 66.3h31.5v50H736zm31.5 0H799v50h-31.5z"/><path d="M696.4 66.3h39.7V106h-39.7zM610 145.6h31.5v50H610zm31.5 0H673v50h-31.5z"/><path d="M570.4 145.6h39.7v39.7h-39.7zM484 225h31.5v50H484zm31.5 0H547v50h-31.5z"/><path d="M444.4 225h39.7v39.7h-39.7z"/></g></g></svg>