<svg xmlns="http://www.w3.org/2000/svg" width="440" height="413"><g fill="#D8F0FF" fill-opacity=".8" stroke="#000" stroke-width="2" stroke-linejoin="round"><path d="M326.2 185.7L220 369.6 113.8 185.7zm0 0L220 369.6l206-3.7z"/><path d="M220 369.6L113.8 185.7 14 365.9zM113.8 185.7h212.4L220 9.2z"/><path d="M356.5 168.2l-30.3 17.5L220 9.2zM220 404.6v-35l206-3.7zM83.5 168.2l30.3 17.5L14 365.9z"/><path d="M356.5 168.2l-30.3 17.5L426 365.9zM220 404.6v-35l-206-3.7zM83.5 168.2l30.3 17.5L220 9.2z"/><path d="M356.5 168.2L220 404.6l206-38.7zM220 404.6L83.5 168.2 14 365.9zM83.5 168.2h273L220 9.2z"/><path d="M356.5 168.2L220 404.6 83.5 168.2z"/></g></svg>