<svg xmlns="http://www.w3.org/2000/svg" width="1044" height="468"><path d="M810 18L683 408.7 876.7 28.6M435.8 169.9L109.5 407" fill="none" stroke="#BC1E46" stroke-width="2" stroke-dasharray="3"/><g stroke="#000"><path d="M635.3 361l47.7 47.7 60.3 30.7M450 234l-10.6-66.7M107 408.7L59.3 361" fill="none" stroke-width=".5"/><path d="M876.7 28.6L937 59.3l47.7 47.7 30.7 60.3L1026 234l-10.6 66.7-30.7 60.3-47.7 47.7-60.3 30.7L810 450l-66.7-10.6-108-78.4-30.7-60.3L594 234l10.6-66.7 30.7-60.3L683 59.3l60.3-30.7L810 18M439.4 167.3L408.7 107 361 59.3l-60.3-30.7L234 18l-66.7 10.6L107 59.3 59.3 107l-30.7 60.3L18 234l10.6 66.7L59.3 361 450 234l-10.6 66.7-30.7 60.3-47.7 47.7-60.3 30.7L234 450l-66.7-10.6-60.3-30.7" fill="none" stroke-width="4"/><g fill="#FFE07F"><circle cx="234" cy="18" r="9"/><circle cx="300.7" cy="28.6" r="9"/><circle cx="361" cy="59.3" r="9"/><circle cx="408.7" cy="107" r="9"/><circle cx="439.4" cy="167.3" r="9"/><circle cx="450" cy="234" r="9"/><circle cx="439.4" cy="300.7" r="9"/><circle cx="408.7" cy="361" r="9"/><circle cx="361" cy="408.7" r="9"/><circle cx="300.7" cy="439.4" r="9"/><circle cx="234" cy="450" r="9"/><circle cx="167.3" cy="439.4" r="9"/><circle cx="107" cy="408.7" r="9"/><circle cx="59.3" cy="361" r="9"/><circle cx="28.6" cy="300.7" r="9"/><circle cx="18" cy="234" r="9"/><circle cx="28.6" cy="167.3" r="9"/><circle cx="59.3" cy="107" r="9"/><circle cx="107" cy="59.3" r="9"/><circle cx="167.3" cy="28.6" r="9"/><circle cx="810" cy="18" r="9"/><circle cx="743.3" cy="28.6" r="9"/><circle cx="683" cy="59.3" r="9"/><circle cx="635.3" cy="107" r="9"/><circle cx="604.6" cy="167.3" r="9"/><circle cx="594" cy="234" r="9"/><circle cx="604.6" cy="300.7" r="9"/><circle cx="635.3" cy="361" r="9"/><circle cx="683" cy="408.7" r="9"/><circle cx="743.3" cy="439.4" r="9"/><circle cx="810" cy="450" r="9"/><circle cx="876.7" cy="439.4" r="9"/><circle cx="937" cy="408.7" r="9"/><circle cx="984.7" cy="361" r="9"/><circle cx="1015.4" cy="300.7" r="9"/><circle cx="1026" cy="234" r="9"/><circle cx="1015.4" cy="167.3" r="9"/><circle cx="984.7" cy="107" r="9"/><circle cx="937" cy="59.3" r="9"/><circle cx="876.7" cy="28.6" r="9"/></g></g></svg>