<svg xmlns="http://www.w3.org/2000/svg" width="1980" height="612"><g fill="none" stroke="#000"><path d="M18 306h1944M54 594h1863M54 522h1863M54 450h1863M54 378h1863m-1359 0v216M990 18L603 306l-45 72 18-72L990 18"/><path d="M990 18L549 306l9 72-36-72L990 18M675 378v216M990 18L720 306l-45 72 18-72L990 18"/><path d="M990 18L666 306l9 72-36-72L990 18M792 378v216M990 18L837 306l-45 72 18-72L990 18"/><path d="M990 18L783 306l9 72-36-72L990 18m-81 360v216m81-576l-36 288-45 72 18-72 63-288"/><path d="M990 18l-90 288 9 72-36-72L990 18M54 378v216m0-216l18-72L990 18 99 306z"/><path d="M54 378l-36-72L990 18 45 306zm117 0v216"/><path d="M171 378l18-72L990 18 216 306z"/><path d="M171 378l-36-72L990 18 162 306zm117 0v216"/><path d="M990 18L333 306l-45 72 18-72L990 18"/><path d="M990 18L279 306l9 72-36-72L990 18M405 378v216"/><path d="M990 18L450 306l-45 72 18-72L990 18"/><path d="M990 18L396 306l9 72-36-72L990 18m576 360v216M990 18l621 288-45 72 18-72L990 18"/><path d="M990 18l567 288 9 72-36-72L990 18m693 360v216"/><path d="M990 18l738 288-45 72 18-72L990 18"/><path d="M990 18l684 288 9 72-36-72L990 18m810 360v216"/><path d="M990 18l855 288-45 72 18-72L990 18"/><path d="M990 18l801 288 9 72-36-72L990 18m927 360v216"/><path d="M990 18l972 288-45 72 18-72L990 18"/><path d="M990 18l918 288 9 72-36-72L990 18m72 360v216M990 18l117 288-45 72 18-72-90-288"/><path d="M990 18l63 288 9 72-36-72-36-288m189 360v216M990 18l234 288-45 72 18-72L990 18"/><path d="M990 18l180 288 9 72-36-72L990 18m306 360v216M990 18l351 288-45 72 18-72L990 18"/><path d="M990 18l297 288 9 72-36-72L990 18m423 360v216M990 18l468 288-45 72 18-72L990 18"/><path d="M990 18l414 288 9 72-36-72L990 18"/><circle fill="#BC1E46" cx="990" cy="18" r="9"/><g fill="#FEC200"><circle cx="522" cy="306" r="9"/><circle cx="549" cy="306" r="9"/><circle cx="576" cy="306" r="9"/><circle cx="603" cy="306" r="9"/><circle cx="639" cy="306" r="9"/><circle cx="666" cy="306" r="9"/><circle cx="693" cy="306" r="9"/><circle cx="720" cy="306" r="9"/><circle cx="756" cy="306" r="9"/><circle cx="783" cy="306" r="9"/><circle cx="810" cy="306" r="9"/><circle cx="837" cy="306" r="9"/><circle cx="873" cy="306" r="9"/><circle cx="900" cy="306" r="9"/><circle cx="927" cy="306" r="9"/><circle cx="954" cy="306" r="9"/><circle cx="18" cy="306" r="9"/><circle cx="45" cy="306" r="9"/><circle cx="72" cy="306" r="9"/><circle cx="99" cy="306" r="9"/><circle cx="135" cy="306" r="9"/><circle cx="162" cy="306" r="9"/><circle cx="189" cy="306" r="9"/><circle cx="216" cy="306" r="9"/><circle cx="252" cy="306" r="9"/><circle cx="279" cy="306" r="9"/><circle cx="306" cy="306" r="9"/><circle cx="333" cy="306" r="9"/><circle cx="369" cy="306" r="9"/><circle cx="396" cy="306" r="9"/><circle cx="423" cy="306" r="9"/><circle cx="450" cy="306" r="9"/><circle cx="1530" cy="306" r="9"/><circle cx="1557" cy="306" r="9"/><circle cx="1584" cy="306" r="9"/><circle cx="1611" cy="306" r="9"/><circle cx="1647" cy="306" r="9"/><circle cx="1674" cy="306" r="9"/><circle cx="1701" cy="306" r="9"/><circle cx="1728" cy="306" r="9"/><circle cx="1764" cy="306" r="9"/><circle cx="1791" cy="306" r="9"/><circle cx="1818" cy="306" r="9"/><circle cx="1845" cy="306" r="9"/><circle cx="1881" cy="306" r="9"/><circle cx="1908" cy="306" r="9"/><circle cx="1935" cy="306" r="9"/><circle cx="1962" cy="306" r="9"/><circle cx="1026" cy="306" r="9"/><circle cx="1053" cy="306" r="9"/><circle cx="1080" cy="306" r="9"/><circle cx="1107" cy="306" r="9"/><circle cx="1143" cy="306" r="9"/><circle cx="1170" cy="306" r="9"/><circle cx="1197" cy="306" r="9"/><circle cx="1224" cy="306" r="9"/><circle cx="1260" cy="306" r="9"/><circle cx="1287" cy="306" r="9"/><circle cx="1314" cy="306" r="9"/><circle cx="1341" cy="306" r="9"/><circle cx="1377" cy="306" r="9"/><circle cx="1404" cy="306" r="9"/><circle cx="1431" cy="306" r="9"/><circle cx="1458" cy="306" r="9"/></g><g fill="#0081CD"><circle cx="558" cy="378" r="9"/><circle cx="558" cy="450" r="9"/><circle cx="558" cy="522" r="9"/><circle cx="558" cy="594" r="9"/><circle cx="675" cy="378" r="9"/><circle cx="675" cy="450" r="9"/><circle cx="675" cy="522" r="9"/><circle cx="675" cy="594" r="9"/><circle cx="792" cy="378" r="9"/><circle cx="792" cy="450" r="9"/><circle cx="792" cy="522" r="9"/><circle cx="792" cy="594" r="9"/><circle cx="909" cy="378" r="9"/><circle cx="909" cy="450" r="9"/><circle cx="909" cy="522" r="9"/><circle cx="909" cy="594" r="9"/><circle cx="54" cy="378" r="9"/><circle cx="54" cy="450" r="9"/><circle cx="54" cy="522" r="9"/><circle cx="54" cy="594" r="9"/><circle cx="171" cy="378" r="9"/><circle cx="171" cy="450" r="9"/><circle cx="171" cy="522" r="9"/><circle cx="171" cy="594" r="9"/><circle cx="288" cy="378" r="9"/><circle cx="288" cy="450" r="9"/><circle cx="288" cy="522" r="9"/><circle cx="288" cy="594" r="9"/><circle cx="405" cy="378" r="9"/><circle cx="405" cy="450" r="9"/><circle cx="405" cy="522" r="9"/><circle cx="405" cy="594" r="9"/><circle cx="1566" cy="378" r="9"/><circle cx="1566" cy="450" r="9"/><circle cx="1566" cy="522" r="9"/><circle cx="1566" cy="594" r="9"/><circle cx="1683" cy="378" r="9"/><circle cx="1683" cy="450" r="9"/><circle cx="1683" cy="522" r="9"/><circle cx="1683" cy="594" r="9"/><circle cx="1800" cy="378" r="9"/><circle cx="1800" cy="450" r="9"/><circle cx="1800" cy="522" r="9"/><circle cx="1800" cy="594" r="9"/><circle cx="1917" cy="378" r="9"/><circle cx="1917" cy="450" r="9"/><circle cx="1917" cy="522" r="9"/><circle cx="1917" cy="594" r="9"/><circle cx="1062" cy="378" r="9"/><circle cx="1062" cy="450" r="9"/><circle cx="1062" cy="522" r="9"/><circle cx="1062" cy="594" r="9"/><circle cx="1179" cy="378" r="9"/><circle cx="1179" cy="450" r="9"/><circle cx="1179" cy="522" r="9"/><circle cx="1179" cy="594" r="9"/><circle cx="1296" cy="378" r="9"/><circle cx="1296" cy="450" r="9"/><circle cx="1296" cy="522" r="9"/><circle cx="1296" cy="594" r="9"/><circle cx="1413" cy="378" r="9"/><circle cx="1413" cy="450" r="9"/><circle cx="1413" cy="522" r="9"/><circle cx="1413" cy="594" r="9"/></g></g></svg>