<svg xmlns="http://www.w3.org/2000/svg" width="666" height="504"><path d="M117 504V0m72 504V0m72 504V0m72 504V0m72 504V0m72 504L476 0m73 504V0m36 468H81m504-72H81m504-72H81m504-72H81m504-72H81m504-72l-504 1m504-73H81" fill="none" stroke="#FEC200"/><path d="M369 504L81 216m360 216L153 144m432 144L297 0m0 504l288-288M225 432l288-288M81 288L369 0" fill="none" stroke="#7FC0E6"/><path d="M358.5 61.5c-14.1 14.1-36.9 14.1-50.9 0l50.9-50.9c-14.1-14.1-36.9-14.1-50.9 0l50.9 50.9zm0 432c-14.1 14.1-36.9 14.1-50.9 0l50.9-50.9c-14.1-14.1-36.9-14.1-50.9 0l50.9 50.9zm-144-339c14.1 14.1 14.1 36.9 0 50.9l-50.9-50.9c-14.1 14.1-14.1 36.9 0 50.9l50.9-50.9zm72 216c14.1 14.1 14.1 36.9 0 50.9l-50.9-50.9c-14.1 14.1-14.1 36.9 0 50.9l50.9-50.9zm144 0c14.1 14.1 14.1 36.9 0 50.9l-50.9-50.9c-14.1 14.1-14.1 36.9 0 50.9l50.9-50.9zm72-216c14.1 14.1 14.1 36.9 0 50.9l-50.9-50.9c-14.1 14.1-14.1 36.9 0 50.9l50.9-50.9z" fill="#0081CD"/><g fill="#BC1E46"><circle cx="117" cy="252" r="9"/><circle cx="333" cy="324" r="9"/><circle cx="549" cy="252" r="9"/></g><g font-family="Times,serif"><text transform="translate(126 279)" font-size="24">(–3,1)</text><text transform="translate(504 279)" font-size="24">(3,1)</text><text transform="translate(342 315)" font-size="24">(0,0)</text><text transform="translate(360 31)"><tspan x="0" y="0" font-size="32">|</tspan><tspan x="6.4" y="-4" font-style="italic" font-size="24">x</tspan><tspan x="17.1" y="0" font-size="32">|</tspan><tspan x="23.5" y="-4" font-size="24"> ≤ </tspan><tspan x="48.6" y="0" font-size="32">|</tspan><tspan x="55" y="-4" font-style="italic" font-size="24">y</tspan><tspan x="65.7" y="-4" font-size="24"> – 4</tspan><tspan x="101.7" y="0" font-size="32">|</tspan></text><text transform="translate(522 175)"><tspan x="0" y="0" font-size="32">|</tspan><tspan x="6.4" y="-4" font-style="italic" font-size="24">x</tspan><tspan x="17.1" y="-4" font-size="24"> – 2</tspan><tspan x="53.1" y="0" font-size="32">|</tspan><tspan x="59.5" y="-4" font-size="24"> ≥ </tspan><tspan x="84.6" y="0" font-size="32">|</tspan><tspan x="91" y="-4" font-style="italic" font-size="24">y</tspan><tspan x="101.7" y="-4" font-size="24"> – 2</tspan><tspan x="137.7" y="0" font-size="32">|</tspan></text><text transform="translate(0 175)"><tspan x="0" y="0" font-size="32">|</tspan><tspan x="6.4" y="-4" font-style="italic" font-size="24">x</tspan><tspan x="17.1" y="-4" font-size="24"> + 2</tspan><tspan x="54.6" y="0" font-size="32">|</tspan><tspan x="61" y="-4" font-size="24"> ≥ </tspan><tspan x="86.2" y="0" font-size="32">|</tspan><tspan x="92.6" y="-4" font-style="italic" font-size="24">y</tspan><tspan x="103.2" y="-4" font-size="24"> – 2</tspan><tspan x="139.2" y="0" font-size="32">|</tspan></text><text transform="translate(72 391)"><tspan x="0" y="0" font-size="32">|</tspan><tspan x="6.4" y="-4" font-style="italic" font-size="24">x</tspan><tspan x="17.1" y="-4" font-size="24"> + 1</tspan><tspan x="54.6" y="0" font-size="32">|</tspan><tspan x="61" y="-4" font-size="24"> ≥ </tspan><tspan x="86.2" y="0" font-size="32">|</tspan><tspan x="92.6" y="-4" font-style="italic" font-size="24">y</tspan><tspan x="103.2" y="-4" font-size="24"> + 1</tspan><tspan x="140.8" y="0" font-size="32">|</tspan></text><text transform="translate(450 391)"><tspan x="0" y="0" font-size="32">|</tspan><tspan x="6.4" y="-4" font-style="italic" font-size="24">x</tspan><tspan x="17.1" y="-4" font-size="24"> – 1</tspan><tspan x="53.1" y="0" font-size="32">|</tspan><tspan x="59.5" y="-4" font-size="24"> ≥ </tspan><tspan x="84.6" y="0" font-size="32">|</tspan><tspan x="91" y="-4" font-style="italic" font-size="24">y</tspan><tspan x="101.7" y="-4" font-size="24"> + 1</tspan><tspan x="139.2" y="0" font-size="32">|</tspan></text><text transform="translate(360 463)"><tspan x="0" y="0" font-size="32">|</tspan><tspan x="6.4" y="-4" font-style="italic" font-size="24">x</tspan><tspan x="17.1" y="0" font-size="32">|</tspan><tspan x="23.5" y="-4" font-size="24"> ≤ </tspan><tspan x="48.6" y="0" font-size="32">|</tspan><tspan x="55" y="-4" font-style="italic" font-size="24">y</tspan><tspan x="65.7" y="-4" font-size="24"> + 2</tspan><tspan x="103.2" y="0" font-size="32">|</tspan></text></g></svg>