<?xml version="1.0" encoding="utf-8"?>
<!-- Generator: Adobe Illustrator 15.1.0, SVG Export Plug-In . SVG Version: 6.00 Build 0)  -->
<!DOCTYPE svg PUBLIC "-//W3C//DTD SVG 1.1//EN" "http://www.w3.org/Graphics/SVG/1.1/DTD/svg11.dtd">
<svg version="1.1" id="Layer_1" xmlns="http://www.w3.org/2000/svg" xmlns:xlink="http://www.w3.org/1999/xlink" x="0px" y="0px"
	 width="438px" height="459px" viewBox="0 0 438 459" enable-background="new 0 0 438 459" xml:space="preserve">
<line fill="none" stroke="#231F20" stroke-miterlimit="10" x1="183" y1="158" x2="182.822" y2="113.001"/>
<path fill="none" stroke="#231F20" stroke-miterlimit="10" d="M183,14c323.661,0,332.661,432,4,432"/>
<polyline fill="none" stroke="#231F20" stroke-miterlimit="10" points="328.315,122 349.1,301.999 183,374.307 15.153,301.999 "/>
<polyline fill="none" stroke="#231F20" stroke-miterlimit="10" points="37.331,122 183,14 328.315,122 281,149 317.923,248 "/>
<polyline fill="none" stroke="#231F20" stroke-miterlimit="10" points="215.104,66.089 183,14 151.646,67.999 "/>
<polyline fill="none" stroke="#231F20" stroke-miterlimit="10" points="281,149 214,67.999 182.822,113.001 151.646,67.999 
	84.736,149.5 "/>
<polyline fill="none" stroke="#231F20" stroke-miterlimit="10" points="349.908,300.6 317.923,248 262.5,252.079 "/>
<line fill="none" stroke="#231F20" stroke-miterlimit="10" x1="183.802" y1="318.6" x2="183.802" y2="372.304"/>
<polyline fill="none" stroke="#231F20" stroke-miterlimit="10" points="286.746,302 183,320 78.9,301.999 "/>
<polyline fill="none" stroke="#231F20" stroke-miterlimit="10" points="47.723,248 84.096,150.61 120.469,193.998 "/>
<line fill="none" stroke="#231F20" stroke-miterlimit="10" x1="101.077" y1="252.079" x2="143.5" y2="229.998"/>
<polyline fill="none" stroke="#231F20" stroke-miterlimit="10" points="203.607,265.999 183,320 162.038,265.998 "/>
<polyline fill="none" stroke="#231F20" stroke-miterlimit="10" points="225.5,230 262.5,252.079 203.607,265.999 182.822,238.998 
	"/>
<line fill="none" stroke="#231F20" stroke-miterlimit="10" x1="212.607" y1="190.305" x2="224.104" y2="158.5"/>
<line fill="none" stroke="#231F20" stroke-miterlimit="10" x1="155.333" y1="189.132" x2="141.253" y2="158"/>
<polygon fill="none" stroke="#231F20" stroke-miterlimit="10" points="156.01,190.305 143.5,229.998 182.822,238.998 224.104,230 
	212.607,190.305 183,158 "/>
<polyline fill="none" stroke="#231F20" stroke-miterlimit="10" points="184.762,206.5 156.01,190.305 120.469,193.998 
	102.469,249.668 47.723,248 15.153,301.999 37.331,122 84.096,150.61 141.253,158 182.822,113.001 224.104,158.5 281,149 
	244.5,192.826 "/>
<polygon fill="none" stroke="#231F20" stroke-miterlimit="10" points="182.822,206.5 182.822,238.998 162.038,265.998 
	101.077,252.079 78.9,301.999 15.153,301.999 180.885,445.693 349.1,301.999 286.746,302 262.5,252.079 244.5,192.826 
	212.607,190.305 "/>
<circle fill="#FF881F" stroke="#231F20" stroke-miterlimit="10" cx="156.01" cy="190.305" r="9"/>
<circle fill="#FFB4B4" stroke="#231F20" stroke-miterlimit="10" cx="212.607" cy="190.305" r="9"/>
<circle fill="#FFDC64" stroke="#231F20" stroke-miterlimit="10" cx="182.822" cy="238.998" r="9"/>
<circle fill="#EED5FF" stroke="#231F20" stroke-miterlimit="10" cx="120.469" cy="193.998" r="9"/>
<circle fill="#9AE0D8" stroke="#231F20" stroke-miterlimit="10" cx="203.607" cy="265.999" r="9"/>
<circle fill="#7FFF33" stroke="#231F20" stroke-miterlimit="10" cx="162.038" cy="265.998" r="9"/>
<circle fill="#FF96DC" stroke="#231F20" stroke-miterlimit="10" cx="84.096" cy="150.61" r="9"/>
<circle fill="#FFDC64" stroke="#231F20" stroke-miterlimit="10" cx="182.822" cy="113.001" r="9"/>
<circle fill="#FF881F" stroke="#231F20" stroke-miterlimit="10" cx="262.5" cy="252.079" r="9"/>
<circle fill="#FFB4B4" stroke="#231F20" stroke-miterlimit="10" cx="101.077" cy="252.079" r="9"/>
<circle fill="#FFFF64" stroke="#231F20" stroke-miterlimit="10" cx="183" cy="320" r="9"/>
<circle fill="#DCB46C" stroke="#231F20" stroke-miterlimit="10" cx="281" cy="149" r="9"/>
<circle fill="#85BED1" stroke="#231F20" stroke-miterlimit="10" cx="141.253" cy="158" r="9"/>
<circle fill="#CBD8FF" stroke="#231F20" stroke-miterlimit="10" cx="224.104" cy="158.5" r="9"/>
<circle fill="#DDFFFF" stroke="#231F20" stroke-miterlimit="10" cx="244.5" cy="195.17" r="9"/>
<circle fill="#DDFFFF" stroke="#231F20" stroke-miterlimit="10" cx="151.646" cy="67.999" r="9"/>
<circle fill="#EED5FF" stroke="#231F20" stroke-miterlimit="10" cx="214" cy="67.999" r="9"/>
<circle fill="#7FFF33" stroke="#231F20" stroke-miterlimit="10" cx="317.923" cy="248" r="9"/>
<circle fill="#CBD8FF" stroke="#231F20" stroke-miterlimit="10" cx="286.746" cy="302" r="9"/>
<circle fill="#85BED1" stroke="#231F20" stroke-miterlimit="10" cx="78.9" cy="301.999" r="9"/>
<circle fill="#9AE0D8" stroke="#231F20" stroke-miterlimit="10" cx="47.723" cy="248" r="9"/>
<circle fill="#DCB46C" stroke="#231F20" stroke-miterlimit="10" cx="15.153" cy="301.999" r="9"/>
<circle fill="#FF96DC" stroke="#231F20" stroke-miterlimit="10" cx="349.1" cy="301.999" r="9"/>
<circle fill="#FFFF64" stroke="#231F20" stroke-miterlimit="10" cx="183" cy="14" r="9"/>
<circle fill="#A899F5" stroke="#231F20" stroke-miterlimit="10" cx="37.331" cy="122" r="9"/>
<circle fill="#B4E099" stroke="#231F20" stroke-miterlimit="10" cx="328.315" cy="122" r="9"/>
<circle fill="#F6EAFF" stroke="#231F20" stroke-miterlimit="10" cx="183" cy="374.307" r="9"/>
<circle fill="#64B4FF" stroke="#231F20" stroke-miterlimit="10" cx="183" cy="445.693" r="9"/>
<circle fill="#64B4FF" stroke="#231F20" stroke-miterlimit="10" cx="182.822" cy="206.5" r="9"/>
<circle fill="#B4E099" stroke="#231F20" stroke-miterlimit="10" cx="143.5" cy="229.998" r="9"/>
<circle fill="#F6EAFF" stroke="#231F20" stroke-miterlimit="10" cx="183" cy="158" r="9"/>
<circle fill="#A899F5" stroke="#231F20" stroke-miterlimit="10" cx="224.104" cy="230" r="9"/>
<g>
	<path d="M185.775,113.61c0,0.503,0.024,0.995,0.084,1.391h-0.947l-0.084-0.731h-0.036c-0.324,0.456-0.947,0.863-1.775,0.863
		c-1.175,0-1.775-0.828-1.775-1.667c0-1.403,1.247-2.171,3.49-2.159v-0.12c0-0.468-0.132-1.343-1.319-1.331
		c-0.552,0-1.116,0.156-1.523,0.432l-0.24-0.708c0.479-0.3,1.187-0.504,1.919-0.504c1.775,0,2.207,1.211,2.207,2.363V113.61z
		 M184.756,112.039c-1.151-0.024-2.458,0.18-2.458,1.307c0,0.696,0.456,1.008,0.983,1.008c0.768,0,1.259-0.48,1.427-0.972
		c0.036-0.12,0.048-0.24,0.048-0.336V112.039z"/>
</g>
<g>
	<path d="M279.376,143.095h1.043v3.646h0.024c0.371-0.648,1.043-1.056,1.979-1.056c1.451,0,2.459,1.199,2.459,2.95
		c0,2.075-1.319,3.106-2.615,3.106c-0.839,0-1.511-0.324-1.955-1.079h-0.023l-0.061,0.947h-0.899
		c0.024-0.396,0.049-0.983,0.049-1.499V143.095z M280.419,149.283c0,0.132,0.012,0.264,0.048,0.384
		c0.192,0.731,0.815,1.235,1.583,1.235c1.115,0,1.764-0.899,1.764-2.231c0-1.163-0.6-2.159-1.739-2.159
		c-0.708,0-1.38,0.504-1.596,1.295c-0.035,0.132-0.06,0.276-0.06,0.443V149.283z"/>
</g>
<g>
	<path d="M265.514,253.875c-0.276,0.132-0.888,0.336-1.668,0.336c-1.751,0-2.89-1.188-2.89-2.962c0-1.787,1.223-3.095,3.118-3.095
		c0.623,0,1.175,0.156,1.463,0.312l-0.24,0.804c-0.251-0.132-0.647-0.275-1.223-0.275c-1.331,0-2.051,0.995-2.051,2.194
		c0,1.344,0.863,2.171,2.015,2.171c0.6,0,0.995-0.144,1.295-0.275L265.514,253.875z"/>
</g>
<g>
	<path d="M186.679,314.484v7.017c0,0.516,0.024,1.104,0.048,1.499h-0.936l-0.048-1.008h-0.036c-0.312,0.648-1.007,1.14-1.955,1.14
		c-1.403,0-2.495-1.188-2.495-2.95c-0.012-1.931,1.2-3.106,2.603-3.106c0.9,0,1.487,0.42,1.751,0.876h0.024v-3.467H186.679z
		 M185.635,319.558c0-0.132-0.012-0.312-0.048-0.443c-0.156-0.66-0.731-1.212-1.523-1.212c-1.091,0-1.739,0.96-1.739,2.231
		c0,1.175,0.588,2.146,1.715,2.146c0.708,0,1.355-0.479,1.547-1.259c0.036-0.145,0.048-0.288,0.048-0.456V319.558z"/>
</g>
<g>
	<path d="M99.444,251.836c0.024,1.428,0.923,2.016,1.991,2.016c0.755,0,1.223-0.132,1.607-0.3l0.192,0.755
		c-0.372,0.168-1.019,0.372-1.943,0.372c-1.787,0-2.854-1.188-2.854-2.938s1.032-3.118,2.723-3.118c1.907,0,2.399,1.655,2.399,2.723
		c0,0.216-0.012,0.372-0.036,0.491H99.444z M102.538,251.081c0.012-0.66-0.276-1.703-1.463-1.703c-1.08,0-1.535,0.972-1.619,1.703
		H102.538z"/>
</g>
<g>
	<path d="M83.326,153.628v-5.001h-0.804v-0.803h0.804v-0.276c0-0.815,0.192-1.559,0.672-2.027c0.396-0.384,0.923-0.54,1.415-0.54
		c0.384,0,0.696,0.084,0.899,0.168l-0.144,0.816c-0.156-0.072-0.359-0.132-0.671-0.132c-0.899,0-1.127,0.78-1.127,1.679v0.312h1.403
		v0.803h-1.403v5.001H83.326z"/>
</g>
<g>
	<path d="M212.071,189.594c0.024,1.427,0.923,2.015,1.991,2.015c0.756,0,1.224-0.132,1.607-0.3l0.191,0.756
		c-0.372,0.168-1.02,0.372-1.942,0.372c-1.788,0-2.855-1.188-2.855-2.938s1.032-3.118,2.723-3.118c1.906,0,2.398,1.655,2.398,2.723
		c0,0.216-0.013,0.372-0.036,0.492H212.071z M215.165,188.838c0.012-0.66-0.276-1.703-1.463-1.703c-1.08,0-1.536,0.971-1.62,1.703
		H215.165z"/>
</g>
<g>
	<path d="M185.26,240.575c0,0.504,0.024,0.996,0.084,1.392h-0.947l-0.084-0.731h-0.036c-0.324,0.456-0.947,0.863-1.775,0.863
		c-1.175,0-1.775-0.827-1.775-1.667c0-1.403,1.247-2.171,3.49-2.159v-0.119c0-0.468-0.132-1.344-1.319-1.332
		c-0.551,0-1.115,0.156-1.523,0.432l-0.24-0.707c0.479-0.3,1.188-0.504,1.919-0.504c1.775,0,2.207,1.211,2.207,2.362V240.575z
		 M184.241,239.005c-1.151-0.024-2.459,0.18-2.459,1.307c0,0.696,0.456,1.008,0.983,1.008c0.768,0,1.259-0.479,1.427-0.972
		c0.036-0.12,0.048-0.24,0.048-0.336V239.005z"/>
</g>
<g>
	<path d="M159.023,192.101c-0.276,0.132-0.888,0.336-1.667,0.336c-1.751,0-2.891-1.188-2.891-2.962c0-1.787,1.224-3.094,3.119-3.094
		c0.624,0,1.175,0.156,1.463,0.312l-0.24,0.803c-0.252-0.132-0.647-0.275-1.223-0.275c-1.332,0-2.051,0.995-2.051,2.194
		c0,1.343,0.864,2.171,2.015,2.171c0.6,0,0.996-0.144,1.295-0.276L159.023,192.101z"/>
</g>
<g>
	<path d="M13.028,296.483h1.043v3.646h0.024c0.372-0.647,1.043-1.056,1.979-1.056c1.451,0,2.458,1.199,2.458,2.95
		c0,2.075-1.319,3.106-2.614,3.106c-0.84,0-1.511-0.324-1.955-1.079H13.94l-0.06,0.947H12.98c0.024-0.396,0.048-0.983,0.048-1.499
		V296.483z M14.072,302.672c0,0.133,0.012,0.265,0.048,0.384c0.192,0.732,0.816,1.235,1.583,1.235c1.115,0,1.763-0.899,1.763-2.23
		c0-1.163-0.6-2.159-1.739-2.159c-0.708,0-1.379,0.504-1.595,1.296c-0.036,0.132-0.06,0.275-0.06,0.443V302.672z"/>
</g>
<g>
	<path d="M141.837,154.797h-0.024l-1.355,0.732l-0.204-0.804l1.703-0.912h0.9v7.796h-1.02V154.797z"/>
</g>
<g>
	<path d="M78.73,298.187h-0.024l-1.355,0.731l-0.204-0.803l1.703-0.912h0.9v7.796h-1.02V298.187z"/>
</g>
<g>
	<path d="M184.684,8.9v7.016c0,0.516,0.024,1.103,0.048,1.499h-0.936l-0.048-1.007h-0.036c-0.312,0.647-1.007,1.139-1.955,1.139
		c-1.403,0-2.495-1.188-2.495-2.95c-0.012-1.931,1.2-3.106,2.603-3.106c0.9,0,1.487,0.42,1.751,0.875h0.024V8.9H184.684z
		 M183.641,13.974c0-0.132-0.012-0.312-0.048-0.444c-0.156-0.66-0.731-1.211-1.523-1.211c-1.091,0-1.739,0.959-1.739,2.231
		c0,1.175,0.588,2.146,1.715,2.146c0.708,0,1.355-0.479,1.547-1.259c0.036-0.144,0.048-0.288,0.048-0.456V13.974z"/>
</g>
<g>
	<path d="M348.083,304.999v-5.001h-0.804v-0.804h0.804v-0.276c0-0.815,0.192-1.559,0.672-2.026c0.396-0.384,0.923-0.54,1.415-0.54
		c0.384,0,0.695,0.084,0.899,0.168l-0.144,0.815c-0.156-0.071-0.36-0.132-0.672-0.132c-0.899,0-1.127,0.779-1.127,1.68v0.312h1.402
		v0.804h-1.402v5.001H348.083z"/>
</g>
<g>
	<path d="M117.876,196.5v-0.647l0.828-0.804c1.991-1.895,2.902-2.902,2.902-4.078c0-0.792-0.372-1.523-1.535-1.523
		c-0.708,0-1.295,0.36-1.655,0.66l-0.336-0.744c0.528-0.444,1.307-0.792,2.195-0.792c1.679,0,2.387,1.151,2.387,2.267
		c0,1.439-1.043,2.603-2.687,4.186l-0.612,0.576v0.024h3.49v0.875H117.876z"/>
</g>
<g>
	<path d="M212.54,69.999v-0.647l0.828-0.804c1.991-1.895,2.902-2.902,2.902-4.078c0-0.792-0.372-1.523-1.535-1.523
		c-0.707,0-1.295,0.36-1.655,0.66l-0.335-0.744c0.528-0.444,1.307-0.792,2.195-0.792c1.679,0,2.387,1.151,2.387,2.267
		c0,1.439-1.044,2.603-2.687,4.186l-0.611,0.576v0.024h3.489v0.875H212.54z"/>
</g>
<g>
	<path d="M141.48,231.742c0.3,0.18,0.983,0.479,1.727,0.479c1.343,0,1.775-0.852,1.763-1.511c-0.012-1.091-0.996-1.559-2.015-1.559
		h-0.587v-0.792h0.587c0.768,0,1.739-0.396,1.739-1.319c0-0.624-0.396-1.175-1.367-1.175c-0.624,0-1.224,0.276-1.559,0.516
		l-0.288-0.768c0.42-0.3,1.211-0.6,2.051-0.6c1.535,0,2.231,0.912,2.231,1.859c0,0.816-0.492,1.5-1.439,1.847v0.024
		c0.959,0.18,1.727,0.899,1.739,1.991c0,1.247-0.983,2.339-2.842,2.339c-0.875,0-1.643-0.276-2.027-0.528L141.48,231.742z"/>
</g>
<g>
	<path d="M185.555,205.518c0,2.651-0.996,4.114-2.71,4.114c-1.523,0-2.567-1.427-2.591-4.006c0-2.626,1.14-4.054,2.723-4.054
		C184.607,201.572,185.555,203.036,185.555,205.518z M181.321,205.638c0,2.027,0.624,3.178,1.583,3.178
		c1.067,0,1.583-1.259,1.583-3.25c0-1.919-0.48-3.179-1.583-3.179C181.993,202.388,181.321,203.515,181.321,205.638z"/>
</g>
<g>
	<path d="M186.618,443.712c0,2.65-0.996,4.113-2.71,4.113c-1.523,0-2.567-1.427-2.591-4.006c0-2.626,1.14-4.054,2.723-4.054
		C185.67,439.766,186.618,441.229,186.618,443.712z M182.384,443.831c0,2.027,0.624,3.179,1.583,3.179
		c1.067,0,1.583-1.26,1.583-3.25c0-1.919-0.48-3.179-1.583-3.179C183.056,440.581,182.384,441.709,182.384,443.831z"/>
</g>
<g>
	<path d="M325.791,123.8c0.301,0.18,0.984,0.479,1.728,0.479c1.343,0,1.774-0.852,1.763-1.511c-0.012-1.092-0.995-1.56-2.015-1.56
		h-0.587v-0.791h0.587c0.768,0,1.739-0.396,1.739-1.319c0-0.624-0.396-1.176-1.367-1.176c-0.624,0-1.224,0.276-1.559,0.516
		l-0.289-0.768c0.42-0.3,1.212-0.6,2.051-0.6c1.535,0,2.231,0.911,2.231,1.859c0,0.815-0.491,1.499-1.439,1.847v0.024
		c0.96,0.18,1.728,0.899,1.739,1.99c0,1.248-0.983,2.339-2.842,2.339c-0.876,0-1.644-0.275-2.027-0.527L325.791,123.8z"/>
</g>
<g>
	<path d="M162.84,268.998v-2.135h-3.622v-0.684l3.479-4.978h1.139v4.846h1.091v0.815h-1.091v2.135H162.84z M162.84,266.048v-2.603
		c0-0.408,0.012-0.815,0.036-1.224h-0.036c-0.24,0.456-0.432,0.792-0.647,1.151l-1.907,2.65v0.024H162.84z"/>
</g>
<g>
	<path d="M318.725,251v-2.135h-3.622v-0.684l3.479-4.978h1.14v4.846h1.091v0.815h-1.091V251H318.725z M318.725,248.05v-2.603
		c0-0.408,0.012-0.815,0.036-1.224h-0.036c-0.239,0.456-0.432,0.792-0.647,1.151l-1.907,2.65v0.024H318.725z"/>
</g>
<g>
	<path d="M206.66,263.079h-2.975l-0.3,2.003c0.18-0.024,0.348-0.036,0.636-0.036c0.611,0,1.199,0.12,1.679,0.42
		c0.611,0.336,1.115,1.02,1.115,1.991c0,1.522-1.211,2.662-2.902,2.662c-0.852,0-1.559-0.24-1.943-0.479l0.264-0.804
		c0.324,0.191,0.959,0.432,1.679,0.432c0.983,0,1.847-0.647,1.835-1.691c0-1.007-0.684-1.715-2.231-1.715
		c-0.456,0-0.804,0.036-1.091,0.072l0.504-3.742h3.73V263.079z"/>
</g>
<g>
	<path d="M50.706,244.099h-2.975l-0.3,2.003c0.18-0.024,0.348-0.036,0.636-0.036c0.612,0,1.199,0.12,1.679,0.42
		c0.611,0.336,1.115,1.02,1.115,1.991c0,1.522-1.211,2.662-2.902,2.662c-0.852,0-1.559-0.24-1.943-0.479l0.264-0.804
		c0.324,0.191,0.959,0.432,1.679,0.432c0.983,0,1.847-0.647,1.835-1.691c0-1.007-0.684-1.715-2.231-1.715
		c-0.456,0-0.803,0.036-1.091,0.072l0.504-3.742h3.73V244.099z"/>
</g>
<g>
	<path d="M226.093,225.948c-0.216-0.012-0.492,0.012-0.792,0.06c-1.667,0.264-2.53,1.463-2.71,2.758h0.023
		c0.372-0.503,1.032-0.911,1.896-0.911c1.379,0,2.351,1.007,2.351,2.519c0,1.439-0.972,2.758-2.603,2.758
		c-1.655,0-2.746-1.296-2.746-3.322c0-1.535,0.539-2.746,1.318-3.514c0.648-0.636,1.512-1.032,2.495-1.151
		c0.312-0.048,0.575-0.06,0.768-0.06V225.948z M225.793,230.445c0-1.115-0.636-1.787-1.607-1.787c-0.636,0-1.235,0.384-1.522,0.959
		c-0.061,0.12-0.108,0.264-0.108,0.456c0.012,1.284,0.611,2.243,1.728,2.243C225.182,232.316,225.793,231.561,225.793,230.445z"/>
</g>
<g>
	<path d="M39.32,117.947c-0.216-0.012-0.492,0.012-0.792,0.06c-1.667,0.264-2.531,1.463-2.71,2.758h0.024
		c0.372-0.503,1.031-0.911,1.895-0.911c1.379,0,2.351,1.007,2.351,2.519c0,1.439-0.972,2.758-2.603,2.758
		c-1.655,0-2.747-1.295-2.747-3.322c0-1.535,0.54-2.746,1.319-3.514c0.647-0.636,1.511-1.032,2.495-1.151
		c0.312-0.048,0.576-0.06,0.768-0.06V117.947z M39.02,122.445c0-1.115-0.636-1.787-1.607-1.787c-0.636,0-1.235,0.384-1.523,0.959
		c-0.06,0.12-0.108,0.264-0.108,0.456c0.012,1.283,0.612,2.243,1.727,2.243C38.408,124.316,39.02,123.561,39.02,122.445z"/>
</g>
<g>
	<path d="M248.101,191.375v0.696l-3.394,7.1h-1.092l3.382-6.896v-0.024h-3.813v-0.875H248.101z"/>
</g>
<g>
	<path d="M154.247,63.203v0.696l-3.394,7.1h-1.092l3.382-6.896v-0.024h-3.814v-0.875H154.247z"/>
</g>
<g>
	<path d="M223.328,157.483c-0.875-0.408-1.247-1.08-1.247-1.751c0-1.235,1.044-2.075,2.423-2.075c1.511,0,2.278,0.936,2.278,1.919
		c0,0.66-0.335,1.379-1.295,1.823v0.036c0.972,0.384,1.571,1.08,1.571,2.015c0,1.367-1.163,2.267-2.65,2.267
		c-1.632,0-2.615-0.959-2.615-2.099c0-0.983,0.588-1.691,1.548-2.099L223.328,157.483z M225.991,159.558
		c0-0.936-0.66-1.403-1.715-1.703c-0.912,0.264-1.403,0.875-1.403,1.619c-0.036,0.78,0.563,1.475,1.559,1.475
		C225.379,160.949,225.991,160.361,225.991,159.558z M223.089,155.66c-0.013,0.78,0.588,1.199,1.487,1.439
		c0.671-0.228,1.188-0.708,1.188-1.416c0-0.624-0.372-1.271-1.319-1.271C223.568,154.413,223.089,154.988,223.089,155.66z"/>
</g>
<g>
	<path d="M286.979,300.898c-0.875-0.408-1.247-1.08-1.247-1.751c0-1.235,1.044-2.075,2.423-2.075c1.511,0,2.278,0.936,2.278,1.919
		c0,0.66-0.335,1.379-1.295,1.823v0.036c0.972,0.384,1.571,1.079,1.571,2.015c0,1.367-1.163,2.267-2.65,2.267
		c-1.632,0-2.615-0.959-2.615-2.099c0-0.983,0.588-1.691,1.548-2.099L286.979,300.898z M289.642,302.973
		c0-0.935-0.66-1.402-1.715-1.702c-0.912,0.264-1.403,0.875-1.403,1.618c-0.036,0.78,0.563,1.476,1.559,1.476
		C289.029,304.364,289.642,303.776,289.642,302.973z M286.739,299.075c-0.013,0.779,0.588,1.199,1.487,1.439
		c0.671-0.229,1.188-0.708,1.188-1.415c0-0.624-0.372-1.271-1.319-1.271C287.219,297.828,286.739,298.403,286.739,299.075z"/>
</g>
<g>
	<path d="M181.716,159.975c0.228,0.024,0.492,0,0.852-0.036c0.612-0.084,1.188-0.324,1.631-0.755
		c0.516-0.468,0.888-1.151,1.032-2.063h-0.036c-0.432,0.528-1.055,0.828-1.847,0.828c-1.391,0-2.291-1.055-2.291-2.387
		c0-1.475,1.067-2.771,2.663-2.771s2.579,1.283,2.579,3.298c0,1.703-0.576,2.902-1.343,3.646c-0.6,0.587-1.427,0.947-2.267,1.043
		c-0.384,0.06-0.72,0.072-0.972,0.06V159.975z M182.1,155.501c0,0.972,0.588,1.655,1.499,1.655c0.708,0,1.259-0.348,1.535-0.815
		c0.06-0.108,0.096-0.216,0.096-0.396c0-1.331-0.492-2.351-1.607-2.351C182.735,153.594,182.1,154.386,182.1,155.501z"/>
</g>
<g>
	<path d="M182.151,376.563c0.228,0.023,0.492,0,0.852-0.036c0.612-0.084,1.188-0.324,1.631-0.756
		c0.516-0.468,0.888-1.151,1.032-2.062h-0.036c-0.432,0.527-1.055,0.827-1.847,0.827c-1.391,0-2.291-1.056-2.291-2.387
		c0-1.476,1.067-2.771,2.663-2.771s2.579,1.283,2.579,3.298c0,1.703-0.576,2.903-1.343,3.646c-0.6,0.588-1.427,0.947-2.267,1.043
		c-0.384,0.061-0.72,0.072-0.972,0.061V376.563z M182.535,372.09c0,0.971,0.588,1.654,1.499,1.654c0.708,0,1.259-0.348,1.535-0.815
		c0.06-0.107,0.096-0.216,0.096-0.396c0-1.331-0.492-2.351-1.607-2.351C183.171,370.183,182.535,370.975,182.535,372.09z"/>
</g>
</svg>
