<?xml version="1.0" encoding="utf-8"?>
<!-- Generator: Adobe Illustrator 15.1.0, SVG Export Plug-In . SVG Version: 6.00 Build 0)  -->
<!DOCTYPE svg PUBLIC "-//W3C//DTD SVG 1.1//EN" "http://www.w3.org/Graphics/SVG/1.1/DTD/svg11.dtd">
<svg version="1.1" id="Layer_1" xmlns="http://www.w3.org/2000/svg" xmlns:xlink="http://www.w3.org/1999/xlink" x="0px" y="0px"
	 width="814px" height="508.475px" viewBox="0 0 814 508.475" enable-background="new 0 0 814 508.475" xml:space="preserve">
<path fill="#DCE6FF" d="M373,157.4l-18-27c21-72.5,387-93,324,108h-36c39.668,134.996-131.977,352.814-360,216
	c-142.705-85.623-157.5-378.273,18-405c87-54,555.666-117.333,486,189h-36c6.757-259.209-412.97-173.102-432-162
	c-89.321,52.104-89.199,277.962,0,324c121.215,62.562,287.635-96,288-162c0.404-72.999-180-54-198-27s-18,45,0,54s36,0,54-27h72
	c18,66-72,172-180,108C279.621,301.731,291.254,175.998,373,157.4"/>
<polygon fill="#DCE6FF" points="35.5,76.127 71,76.4 107,76.4 125,130.4 125.5,184.127 116.5,238.127 116.5,292.127 89,346.4 
	89.5,400.127 44,400.4 43.909,346.127 26,292.4 26,238.4 17,184.4 17,130.4 "/>
<path fill="none" stroke="#000000" stroke-width="2" stroke-miterlimit="10" d="M408.725,211.127
	C462.5,153.9,587.5,135.9,644.348,238.125"/>
<path fill="none" stroke="#000000" stroke-width="2" stroke-miterlimit="10" d="M319,76.4c196.409-102.881,459.919-31.954,468,162"
	/>
<path fill="none" stroke="#000000" stroke-width="2" stroke-miterlimit="10" d="M643,238.4c39.668,134.996-131.977,352.814-360,216
	c-142.704-85.623-157.5-378.273,18-405"/>
<path fill="none" stroke="#000000" stroke-width="2" stroke-miterlimit="10" d="M643,238.4c1.461,124.996-156.609,303.086-342,189
	c-122.371-75.305-97.864-317.256,0-378c87-54,555.666-117.333,486,189"/>
<path fill="none" stroke="#000000" stroke-width="2" stroke-miterlimit="10" d="M355,130.4c21-72.5,387-93,324,108"/>
<path fill="none" stroke="#000000" stroke-width="2" stroke-miterlimit="10" d="M535,238.4c18,66-72,172-180,108
	c-75.378-44.669-63.746-170.402,18-189c74.98-17.059,294-53.5,270,81c-15.572,87.271-192,270.074-324,162"/>
<path fill="none" stroke="#000000" stroke-width="2" stroke-miterlimit="10" d="M391,292.4c-50-15-62.5-69-18-135
	c50.917-75.519,297.856-73.734,306,81"/>
<path fill="none" stroke="#000000" stroke-width="2" stroke-miterlimit="10" d="M391,292.4c-18-36-27-72,0-108"/>
<path fill="none" stroke="#000000" stroke-width="2" stroke-miterlimit="10" d="M535,238.4c-14.359,74.124-87.098,124.683-162,81"/>
<path fill="none" stroke="#000000" stroke-width="2" stroke-miterlimit="10" d="M391,292.4c44.5,46,104.5,9.5,144-54"/>
<path fill="none" stroke="#000000" stroke-width="2" stroke-miterlimit="10" d="M391,292.4c54,18,90-9,108-54"/>
<path fill="none" stroke="#000000" stroke-width="2" stroke-miterlimit="10" d="M463,238.4c9,36-36,54-72,54"/>
<path fill="none" stroke="#000000" stroke-width="2" stroke-miterlimit="10" d="M463,238.4c-18,27-36,36-54,27s-18-27,0-54
	s198.404-45.999,198,27c-0.365,66-166.785,224.562-288,162c-89.199-46.038-89.321-271.896,0-324
	c19.03-11.101,438.757-97.209,432,162"/>
<polyline fill="none" stroke="#000000" stroke-width="2" stroke-miterlimit="10" points="44,346.4 89,400.4 89,346.4 "/>
<polyline fill="none" stroke="#000000" stroke-width="2" stroke-miterlimit="10" points="44,400.4 44,346.4 26,292.4 "/>
<polyline fill="none" stroke="#000000" stroke-width="2" stroke-miterlimit="10" points="71,238.4 116,292.4 89,346.4 71,292.4 
	71,238.4 26,292.4 26,238.4 17,184.4 "/>
<polyline fill="none" stroke="#000000" stroke-width="2" stroke-miterlimit="10" points="125,184.4 116,238.4 89,184.4 71,238.4 
	17,184.4 17,130.4 35,76.4 53,130.4 71,76.4 "/>
<polyline fill="none" stroke="#000000" stroke-width="2" stroke-miterlimit="10" points="53,130.4 89,184.4 125,130.4 107,76.4 "/>
<polyline fill="none" stroke="#000000" stroke-width="2" stroke-miterlimit="10" points="53,184.4 53,130.4 107,76.4 89,130.4 "/>
<line fill="none" stroke="#BC1E47" stroke-width="5" stroke-miterlimit="10" x1="427" y1="238.4" x2="814" y2="238.4"/>
<polyline fill="none" stroke="#BC1E47" stroke-width="5" stroke-miterlimit="10" points="283.333,22.4 427,238.4 265.334,481.4 "/>
<circle fill="#FEC200" stroke="#000000" stroke-miterlimit="10" cx="35.5" cy="76.127" r="12"/>
<circle fill="#FEC200" stroke="#000000" stroke-miterlimit="10" cx="71.5" cy="76.127" r="12"/>
<circle fill="#FEC200" stroke="#000000" stroke-miterlimit="10" cx="107.5" cy="76.127" r="12"/>
<circle fill="#FEC200" stroke="#000000" stroke-miterlimit="10" cx="17.5" cy="130.127" r="12"/>
<circle fill="#FEC200" stroke="#000000" stroke-miterlimit="10" cx="53.5" cy="130.127" r="12"/>
<circle fill="#FEC200" stroke="#000000" stroke-miterlimit="10" cx="89.5" cy="130.127" r="12"/>
<circle fill="#FEC200" stroke="#000000" stroke-miterlimit="10" cx="125.5" cy="130.127" r="12"/>
<circle fill="#FEC200" stroke="#000000" stroke-miterlimit="10" cx="125.5" cy="184.127" r="12"/>
<circle fill="#FEC200" stroke="#000000" stroke-miterlimit="10" cx="89.5" cy="184.127" r="12"/>
<circle fill="#FEC200" stroke="#000000" stroke-miterlimit="10" cx="53.5" cy="184.127" r="12"/>
<circle fill="#FEC200" stroke="#000000" stroke-miterlimit="10" cx="17.5" cy="184.127" r="12"/>
<circle fill="#FEC200" stroke="#000000" stroke-miterlimit="10" cx="26.5" cy="238.127" r="12"/>
<circle fill="#FEC200" stroke="#000000" stroke-miterlimit="10" cx="71.5" cy="238.127" r="12"/>
<circle fill="#FEC200" stroke="#000000" stroke-miterlimit="10" cx="116.5" cy="238.127" r="12"/>
<circle fill="#FEC200" stroke="#000000" stroke-miterlimit="10" cx="26.5" cy="292.127" r="12"/>
<circle fill="#FEC200" stroke="#000000" stroke-miterlimit="10" cx="71.5" cy="292.127" r="12"/>
<circle fill="#FEC200" stroke="#000000" stroke-miterlimit="10" cx="116.5" cy="292.127" r="12"/>
<circle fill="#FEC200" stroke="#000000" stroke-miterlimit="10" cx="44.5" cy="346.127" r="12"/>
<circle fill="#FEC200" stroke="#000000" stroke-miterlimit="10" cx="89.5" cy="346.127" r="12"/>
<circle fill="#FEC200" stroke="#000000" stroke-miterlimit="10" cx="44.5" cy="400.127" r="12"/>
<circle fill="#FEC200" stroke="#000000" stroke-miterlimit="10" cx="89.5" cy="400.127" r="12"/>
<circle fill="#FEC200" stroke="#000000" stroke-miterlimit="10" cx="463" cy="238.4" r="12"/>
<circle fill="#FEC200" stroke="#000000" stroke-miterlimit="10" cx="499" cy="238.4" r="12"/>
<circle fill="#FEC200" stroke="#000000" stroke-miterlimit="10" cx="535" cy="238.4" r="12"/>
<circle fill="#FEC200" stroke="#000000" stroke-miterlimit="10" cx="643" cy="238.4" r="12"/>
<circle fill="#FEC200" stroke="#000000" stroke-miterlimit="10" cx="679" cy="238.4" r="12"/>
<circle fill="#FEC200" stroke="#000000" stroke-miterlimit="10" cx="607" cy="238.4" r="12"/>
<circle fill="#FEC200" stroke="#000000" stroke-miterlimit="10" cx="751" cy="238.4" r="12"/>
<circle fill="#FEC200" stroke="#000000" stroke-miterlimit="10" cx="787" cy="238.4" r="12"/>
<circle fill="#FEC200" stroke="#000000" stroke-miterlimit="10" cx="409" cy="211.4" r="12"/>
<circle fill="#FEC200" stroke="#000000" stroke-miterlimit="10" cx="391" cy="184.4" r="12"/>
<circle fill="#FEC200" stroke="#000000" stroke-miterlimit="10" cx="373" cy="157.4" r="12"/>
<circle fill="#FEC200" stroke="#000000" stroke-miterlimit="10" cx="355" cy="130.4" r="12"/>
<circle fill="#FEC200" stroke="#000000" stroke-miterlimit="10" cx="319" cy="76.4" r="12"/>
<circle fill="#FEC200" stroke="#000000" stroke-miterlimit="10" cx="301" cy="49.401" r="12"/>
<circle fill="#FEC200" stroke="#000000" stroke-miterlimit="10" cx="409" cy="265.4" r="12"/>
<circle fill="#FEC200" stroke="#000000" stroke-miterlimit="10" cx="391" cy="292.4" r="12"/>
<circle fill="#FEC200" stroke="#000000" stroke-miterlimit="10" cx="373" cy="319.4" r="12"/>
<circle fill="#FEC200" stroke="#000000" stroke-miterlimit="10" cx="355" cy="346.4" r="12"/>
<circle fill="#FEC200" stroke="#000000" stroke-miterlimit="10" cx="319" cy="400.4" r="12"/>
<circle fill="#FEC200" stroke="#000000" stroke-miterlimit="10" cx="301" cy="427.4" r="12"/>
<circle fill="#FEC200" stroke="#000000" stroke-miterlimit="10" cx="283" cy="454.4" r="12"/>
<text transform="matrix(1 0 0 1 30.9995 80.1274)" font-family="'Times-Italic'" font-size="18">a</text>
<text transform="matrix(1 0 0 1 66.9995 80.1274)" font-family="'Times-Italic'" font-size="18">b</text>
<text transform="matrix(1 0 0 1 103.5049 80.1274)" font-family="'Times-Italic'" font-size="18">c</text>
<text transform="matrix(1 0 0 1 12.9995 134.127)" font-family="'Times-Italic'" font-size="18">d</text>
<text transform="matrix(1 0 0 1 49.5049 134.127)" font-family="'Times-Italic'" font-size="18">e</text>
<text transform="matrix(1 0 0 1 86.999 134.127)" font-family="'Times-Italic'" font-size="18">f</text>
<text transform="matrix(1 0 0 1 120.9995 134.127)" font-family="'Times-Italic'" font-size="18">g</text>
<text transform="matrix(1 0 0 1 12.9995 188.127)" font-family="'Times-Italic'" font-size="18">h</text>
<text transform="matrix(1 0 0 1 50.999 188.127)" font-family="'Times-Italic'" font-size="18">i</text>
<text transform="matrix(1 0 0 1 86.999 188.127)" font-family="'Times-Italic'" font-size="18">j</text>
<text transform="matrix(1 0 0 1 121.5049 188.127)" font-family="'Times-Italic'" font-size="18">k</text>
<text transform="matrix(1 0 0 1 23.999 242.127)" font-family="'Times-Italic'" font-size="18">l</text>
<text transform="matrix(1 0 0 1 65 242.127)" font-family="'Times-Italic'" font-size="18">m</text>
<text transform="matrix(1 0 0 1 111.9995 242.127)" font-family="'Times-Italic'" font-size="18">n</text>
<text transform="matrix(1 0 0 1 21.9995 296.127)" font-family="'Times-Italic'" font-size="18">o</text>
<text transform="matrix(1 0 0 1 66.9995 296.127)" font-family="'Times-Italic'" font-size="18">p</text>
<text transform="matrix(1 0 0 1 111.9995 296.127)" font-family="'Times-Italic'" font-size="18">q</text>
<text transform="matrix(1 0 0 1 40.9971 350.127)" font-family="'Times-Italic'" font-size="18">r</text>
<text transform="matrix(1 0 0 1 85.9971 350.127)" font-family="'Times-Italic'" font-size="18">s</text>
<text transform="matrix(1 0 0 1 41.999 404.127)" font-family="'Times-Italic'" font-size="18">t</text>
<text transform="matrix(1 0 0 1 84.9995 404.127)" font-family="'Times-Italic'" font-size="18">u</text>
<text transform="matrix(1 0 0 1 458.2241 242.125)" font-family="'Times-Italic'" font-size="18">a</text>
<text transform="matrix(1 0 0 1 494.2246 242.125)" font-family="'Times-Italic'" font-size="18">b</text>
<text transform="matrix(1 0 0 1 530.7295 242.127)" font-family="'Times-Italic'" font-size="18">c</text>
<text transform="matrix(1 0 0 1 604.1348 242.2148)" font-family="'Times-Italic'" font-size="18">l</text>
<text transform="matrix(1 0 0 1 636.2246 242.125)" font-family="'Times-Italic'" font-size="18">m</text>
<text transform="matrix(1 0 0 1 674.2246 242.125)" font-family="'Times-Italic'" font-size="18">n</text>
<text transform="matrix(1 0 0 1 403.9487 269.4023)" font-family="'Times-Italic'" font-size="18">d</text>
<text transform="matrix(1 0 0 1 386.73 296.127)" font-family="'Times-Italic'" font-size="18">e</text>
<text transform="matrix(1 0 0 1 370.2495 323.1016)" font-family="'Times-Italic'" font-size="18">f</text>
<text transform="matrix(1 0 0 1 350.2246 350.127)" font-family="'Times-Italic'" font-size="18">g</text>
<text transform="matrix(1 0 0 1 748.0332 242.3164)" font-family="'Times-Italic'" font-size="18">t</text>
<text transform="matrix(1 0 0 1 782.2236 242.125)" font-family="'Times-Italic'" font-size="18">u</text>
<text transform="matrix(1 0 0 1 314.2246 404.127)" font-family="'Times-Italic'" font-size="18">o</text>
<text transform="matrix(1 0 0 1 296.9355 430.4141)" font-family="'Times-Italic'" font-size="18">p</text>
<text transform="matrix(1 0 0 1 278.2246 458.127)" font-family="'Times-Italic'" font-size="18">q</text>
<text transform="matrix(1 0 0 1 404.2246 215.127)" font-family="'Times-Italic'" font-size="18">h</text>
<text transform="matrix(1 0 0 1 388.2241 188.127)" font-family="'Times-Italic'" font-size="18">i</text>
<text transform="matrix(1 0 0 1 371.1738 160.1768)" font-family="'Times-Italic'" font-size="18">j</text>
<text transform="matrix(1 0 0 1 350.5796 134.2773)" font-family="'Times-Italic'" font-size="18">k</text>
<text transform="matrix(1 0 0 1 315.1968 80.1523)" font-family="'Times-Italic'" font-size="18">r</text>
<text transform="matrix(1 0 0 1 297.2222 53.127)" font-family="'Times-Italic'" font-size="18">s</text>
</svg>
