<?xml version="1.0" encoding="utf-8"?>
<!-- Generator: Adobe Illustrator 15.1.0, SVG Export Plug-In . SVG Version: 6.00 Build 0)  -->
<!DOCTYPE svg PUBLIC "-//W3C//DTD SVG 1.1//EN" "http://www.w3.org/Graphics/SVG/1.1/DTD/svg11.dtd">
<svg version="1.1" id="Layer_1" xmlns="http://www.w3.org/2000/svg" xmlns:xlink="http://www.w3.org/1999/xlink" x="0px" y="0px"
	 width="324px" height="315px" viewBox="0 0 324 315" enable-background="new 0 0 324 315" xml:space="preserve">
<path opacity="0.4" fill="#009246" stroke="#000000" d="M297,99c0,52.267-44.424,72-135,72C27.075,171,27,122.986,27,99
	C27,54.265,92.412,9,162,9S297,54.265,297,99z"/>
<path opacity="0.4" fill="#0081CD" stroke="#000000" d="M84.523,276.04c-30.721-42.285-6.381-84.361,66.896-137.601
	c109.157-79.307,137.44-40.506,151.539-21.102C329.254,153.529,308.298,238.097,252,279
	C195.703,319.903,110.818,312.231,84.523,276.04z"/>
<path opacity="0.4" fill="#BC1E47" stroke="#000000" d="M21.042,117.336c30.722-42.285,78.26-32.137,151.538,21.102
	c109.157,79.308,80.995,118.196,66.896,137.602C213.182,312.231,128.297,319.903,72,279
	C15.702,238.097-5.252,153.529,21.042,117.336z"/>
<path opacity="0.4" fill="#FEC200" stroke="#000000" d="M261,207c0,49.706-44.324,90-99,90c-54.676,0-99-40.294-99-90
	s44.324-189,99-189C216.676,18,261,157.294,261,207z"/>
<circle fill="#FFFFFF" stroke="#000000" cx="162" cy="39.159" r="9"/>
<circle fill="#FFFFFF" stroke="#000000" cx="270.271" cy="117.821" r="9"/>
<circle fill="#FFFFFF" stroke="#000000" cx="228.915" cy="245.101" r="9"/>
<circle fill="#FFFFFF" stroke="#000000" cx="95.085" cy="245.101" r="9"/>
<circle fill="#FFFFFF" stroke="#000000" cx="53.73" cy="117.821" r="9"/>
<circle fill="#FFFFFF" stroke="#000000" cx="162" cy="153" r="9"/>
</svg>
