<?xml version="1.0" encoding="utf-8"?>
<!-- Generator: Adobe Illustrator 15.1.0, SVG Export Plug-In . SVG Version: 6.00 Build 0)  -->
<!DOCTYPE svg PUBLIC "-//W3C//DTD SVG 1.1//EN" "http://www.w3.org/Graphics/SVG/1.1/DTD/svg11.dtd">
<svg version="1.1" id="Layer_1" xmlns="http://www.w3.org/2000/svg" xmlns:xlink="http://www.w3.org/1999/xlink" x="0px" y="0px"
	 width="315px" height="288px" viewBox="0 0 315 288" enable-background="new 0 0 315 288" xml:space="preserve">
<path opacity="0.4" fill="#FEC200" stroke="#000000" d="M66.588,278.405c-26.245,0-47.52-21.275-47.52-47.521
	s21.275-47.521,47.52-47.521h190.08c26.244,0,47.52,21.275,47.52,47.521s-21.275,47.521-47.52,47.521H66.588z"/>
<path opacity="0.4" fill="#0081CD" stroke="#000000" d="M294.709,200.805c13.123,22.729,5.336,51.791-17.393,64.914
	c-22.729,13.122-51.791,5.335-64.914-17.394l-95.04-164.614c-13.122-22.729-5.335-51.791,17.394-64.914
	c22.729-13.122,51.791-5.335,64.914,17.394L294.709,200.805z"/>
<path opacity="0.4" fill="#BC1E47" stroke="#000000" d="M113.446,42.046c13.123-22.729,42.185-30.516,64.914-17.394
	c22.729,13.123,30.517,42.185,17.395,64.914L100.713,254.18c-13.123,22.729-42.185,30.516-64.914,17.394
	c-22.729-13.122-30.515-42.185-17.393-64.913L113.446,42.046z"/>
<circle fill="#FFFFFF" stroke="#000000" cx="180.369" cy="53.631" r="6"/>
<circle fill="#FFFFFF" stroke="#000000" cx="142.785" cy="53.631" r="6"/>
<circle fill="#FFFFFF" stroke="#000000" cx="161.628" cy="89.873" r="6"/>
<circle fill="#FFFFFF" stroke="#000000" cx="51.473" cy="214.113" r="6"/>
<circle fill="#FFFFFF" stroke="#000000" cx="70.265" cy="246.661" r="6"/>
<circle fill="#FFFFFF" stroke="#000000" cx="92.229" cy="212.222" r="6"/>
<circle fill="#FFFFFF" stroke="#000000" cx="254.902" cy="245.5" r="6"/>
<circle fill="#FFFFFF" stroke="#000000" cx="273.694" cy="212.951" r="6"/>
<circle fill="#FFFFFF" stroke="#000000" cx="232.886" cy="211.148" r="6"/>
</svg>
