<?xml version="1.0" encoding="utf-8"?>
<!-- Generator: Adobe Illustrator 15.1.0, SVG Export Plug-In . SVG Version: 6.00 Build 0)  -->
<!DOCTYPE svg PUBLIC "-//W3C//DTD SVG 1.1//EN" "http://www.w3.org/Graphics/SVG/1.1/DTD/svg11.dtd">
<svg version="1.1" id="Layer_1" xmlns="http://www.w3.org/2000/svg" xmlns:xlink="http://www.w3.org/1999/xlink" x="0px" y="0px"
	 width="864px" height="468px" viewBox="0 0 864 468" enable-background="new 0 0 864 468" xml:space="preserve">
<path fill="none" stroke="#000000" stroke-width="2" d="M522,306v36c0,108-90,108-90,108s36,0,36-108v-36l27-72L522,306z"/>
<path fill="none" stroke="#000000" stroke-width="2" d="M630,306v36c0,108-198,108-198,108s144,0,144-108v-36l27-72L630,306z"/>
<path fill="none" stroke="#000000" stroke-width="2" d="M738,306v36c0,108-306,108-306,108s252,0,252-108v-36l27-72L738,306z"/>
<path fill="none" stroke="#000000" stroke-width="2" d="M846,306v36c0,108-414,108-414,108s360,0,360-108v-36l27-72L846,306z"/>
<path fill="none" stroke="#000000" stroke-width="2" d="M342,306v36c0,108,90,108,90,108s-36,0-36-108v-36l-27-72L342,306z"/>
<path fill="none" stroke="#000000" stroke-width="2" d="M234,306v36c0,108,198,108,198,108s-144,0-144-108v-36l-27-72L234,306z"/>
<path fill="none" stroke="#000000" stroke-width="2" d="M126,306v36c0,108,306,108,306,108s-252,0-252-108v-36l-27-72L126,306z"/>
<path fill="none" stroke="#000000" stroke-width="2" d="M18,306v36c0,108,414,108,414,108S72,450,72,342v-36l-27-72L18,306z"/>
<path fill="none" stroke="#000000" stroke-width="2" d="M261,234c0,0,0,0,0,108s171,108,171,108s-63,0-63-108s0-108,0-108l-54-72
	L261,234z"/>
<path fill="none" stroke="#000000" stroke-width="2" d="M99,162l-54,72c0,0,0,0,0,108s387,108,387,108s-279,0-279-108s0-108,0-108
	L99,162z"/>
<path fill="none" stroke="#000000" stroke-width="2" d="M603,234c0,0,0,0,0,108S432,450,432,450s63,0,63-108s0-108,0-108l54-72
	L603,234z"/>
<path fill="none" stroke="#000000" stroke-width="2" d="M765,162l54,72c0,0,0,0,0,108S432,450,432,450s279,0,279-108s0-108,0-108
	L765,162z"/>
<path fill="none" stroke="#000000" stroke-width="2" d="M657,90l108,72c0,0,0,72,0,180S432,450,432,450s117,0,117-108s0-180,0-180
	L657,90z"/>
<path fill="none" stroke="#000000" stroke-width="2" d="M207,90L99,162c0,0,0,72,0,180s333,108,333,108s-117,0-117-108s0-180,0-180
	L207,90z"/>
<path fill="none" stroke="#000000" stroke-width="2" d="M207,90c0,0,0,144,0,252s225,108,225,108s225,0,225-108s0-252,0-252L432,18
	L207,90z"/>
<line fill="none" stroke="#000000" stroke-width="2" x1="432" y1="450" x2="432" y2="18"/>
<circle fill="#BC1E47" stroke="#000000" cx="432" cy="450" r="9"/>
<circle fill="#0081CD" stroke="#000000" cx="432" cy="18" r="9"/>
<circle fill="#0081CD" stroke="#000000" cx="207" cy="90" r="9"/>
<circle fill="#0081CD" stroke="#000000" cx="99" cy="162" r="9"/>
<circle fill="#0081CD" stroke="#000000" cx="45" cy="233.142" r="9"/>
<circle fill="#0081CD" stroke="#000000" cx="18" cy="306" r="9"/>
<circle fill="#0081CD" stroke="#000000" cx="72" cy="306" r="9"/>
<circle fill="#0081CD" stroke="#000000" cx="126" cy="306" r="9"/>
<circle fill="#0081CD" stroke="#000000" cx="180" cy="306" r="9"/>
<circle fill="#0081CD" stroke="#000000" cx="153" cy="234" r="9"/>
<circle fill="#0081CD" stroke="#000000" cx="315" cy="162" r="9"/>
<circle fill="#0081CD" stroke="#000000" cx="261" cy="233.142" r="9"/>
<circle fill="#0081CD" stroke="#000000" cx="234" cy="306" r="9"/>
<circle fill="#0081CD" stroke="#000000" cx="288" cy="306" r="9"/>
<circle fill="#0081CD" stroke="#000000" cx="342" cy="306" r="9"/>
<circle fill="#0081CD" stroke="#000000" cx="396" cy="306" r="9"/>
<circle fill="#0081CD" stroke="#000000" cx="369" cy="234" r="9"/>
<circle fill="#0081CD" stroke="#000000" cx="657" cy="90" r="9"/>
<circle fill="#0081CD" stroke="#000000" cx="549" cy="162" r="9"/>
<circle fill="#0081CD" stroke="#000000" cx="495" cy="233.142" r="9"/>
<circle fill="#0081CD" stroke="#000000" cx="468" cy="306" r="9"/>
<circle fill="#0081CD" stroke="#000000" cx="522" cy="306" r="9"/>
<circle fill="#0081CD" stroke="#000000" cx="576" cy="306" r="9"/>
<circle fill="#0081CD" stroke="#000000" cx="630" cy="306" r="9"/>
<circle fill="#0081CD" stroke="#000000" cx="603" cy="234" r="9"/>
<circle fill="#0081CD" stroke="#000000" cx="765" cy="162" r="9"/>
<circle fill="#0081CD" stroke="#000000" cx="711" cy="233.142" r="9"/>
<circle fill="#0081CD" stroke="#000000" cx="684" cy="306" r="9"/>
<circle fill="#0081CD" stroke="#000000" cx="738" cy="306" r="9"/>
<circle fill="#0081CD" stroke="#000000" cx="792" cy="306" r="9"/>
<circle fill="#0081CD" stroke="#000000" cx="846" cy="306" r="9"/>
<circle fill="#0081CD" stroke="#000000" cx="819" cy="234" r="9"/>
</svg>
