<?xml version="1.0" encoding="utf-8"?>
<!-- Generator: Adobe Illustrator 15.1.0, SVG Export Plug-In . SVG Version: 6.00 Build 0)  -->
<!DOCTYPE svg PUBLIC "-//W3C//DTD SVG 1.1//EN" "http://www.w3.org/Graphics/SVG/1.1/DTD/svg11.dtd">
<svg version="1.1" id="Layer_1" xmlns="http://www.w3.org/2000/svg" xmlns:xlink="http://www.w3.org/1999/xlink" x="0px" y="0px"
	 width="349px" height="342px" viewBox="0 0 349 342" enable-background="new 0 0 349 342" xml:space="preserve">
<path fill="none" stroke="#000000" stroke-width="2" stroke-linejoin="round" stroke-miterlimit="10" d="M130.479,181.625
	c22.613-50.423,60.971-92.149,109.316-118.919"/>
<path fill="none" stroke="#000000" stroke-width="2" stroke-linejoin="round" stroke-miterlimit="10" d="M163.376,127.479
	c50.423,22.613,92.147,60.971,118.919,109.316"/>
<path fill="none" stroke="#000000" stroke-width="2" stroke-linejoin="round" stroke-miterlimit="10" d="M217.521,160.376
	c-22.613,50.421-60.972,92.147-109.315,118.919"/>
<path fill="none" stroke="#000000" stroke-width="2" stroke-linejoin="round" stroke-miterlimit="10" d="M184.625,214.521
	c-50.423-22.613-92.149-60.972-118.919-109.315"/>
<path fill="none" stroke="#000000" stroke-width="2" stroke-linejoin="round" stroke-miterlimit="10" d="M191.199,97.628
	C143.828,65.708,79.548,78.234,47.63,125.606c-6.922,10.271-11.939,21.701-14.82,33.745"/>
<path fill="none" stroke="#000000" stroke-width="2" stroke-linejoin="round" stroke-miterlimit="10" d="M100.628,153.8
	c-31.92,47.372-19.394,111.651,27.979,143.569c10.271,6.924,21.701,11.941,33.745,14.82"/>
<path fill="none" stroke="#000000" stroke-width="2" stroke-linejoin="round" stroke-miterlimit="10" d="M156.8,244.371
	c47.372,31.922,111.651,19.395,143.569-27.977c6.924-10.273,11.941-21.703,14.82-33.746"/>
<path fill="none" stroke="#000000" stroke-width="2" stroke-linejoin="round" stroke-miterlimit="10" d="M247.371,188.199
	c31.922-47.371,19.395-111.651-27.977-143.569c-10.273-6.922-21.703-11.94-33.746-14.819"/>
<path fill="none" stroke="#000000" stroke-width="2" stroke-linejoin="round" stroke-miterlimit="10" d="M190.547,259.191
	c-7.75,49.861-54.449,84-104.311,76.252c-49.86-7.746-84-54.447-76.252-104.307c3.726-23.977,16.834-45.484,36.434-59.783"/>
<path fill="none" stroke="#000000" stroke-width="2" stroke-linejoin="round" stroke-miterlimit="10" d="M85.808,187.547
	c-49.859-7.75-84-54.449-76.252-104.311c7.746-49.86,54.448-84,104.309-76.252c23.976,3.726,45.483,16.834,59.782,36.434"/>
<path fill="none" stroke="#000000" stroke-width="2" stroke-linejoin="round" stroke-miterlimit="10" d="M157.454,82.808
	c7.748-49.859,54.448-84,104.31-76.252c49.861,7.746,84,54.448,76.252,104.309c-3.727,23.976-16.834,45.483-36.434,59.782"/>
<path fill="none" stroke="#000000" stroke-width="2" stroke-linejoin="round" stroke-miterlimit="10" d="M262.191,154.454
	c49.861,7.748,84,54.448,76.252,104.31c-7.746,49.861-54.447,84-104.307,76.252c-23.977-3.727-45.484-16.834-59.783-36.434"/>
</svg>
