<?xml version="1.0" encoding="utf-8"?>
<!-- Generator: Adobe Illustrator 15.1.0, SVG Export Plug-In . SVG Version: 6.00 Build 0)  -->
<!DOCTYPE svg PUBLIC "-//W3C//DTD SVG 1.1//EN" "http://www.w3.org/Graphics/SVG/1.1/DTD/svg11.dtd">
<svg version="1.1" id="Layer_1" xmlns="http://www.w3.org/2000/svg" xmlns:xlink="http://www.w3.org/1999/xlink" x="0px" y="0px"
	 width="558px" height="288px" viewBox="0 0 558 288" enable-background="new 0 0 558 288" xml:space="preserve">
<g>
	<line fill="none" stroke="#009246" stroke-width="2" stroke-miterlimit="10" x1="414" y1="144" x2="515.824" y2="245.823"/>
	<g>
		<path d="M459.698,170.744c0.943-1.051,2.09-2.322,2.97-3.203l-0.021-0.021c-1.082,0.572-2.271,1.188-3.617,1.814l-4.73,2.205
			l-0.701-0.699l2.238-4.572c0.68-1.357,1.316-2.545,1.963-3.595l-0.021-0.021c-0.912,0.869-2.152,2.004-3.299,3.021l-3.256,2.875
			l-0.881-0.881l7.647-6.649l1.177,1.177l-2.237,4.678c-0.583,1.178-1.134,2.195-1.687,3.129l0.021,0.021
			c0.912-0.531,1.952-1.062,3.172-1.645l4.729-2.185l1.177,1.177l-6.703,7.594l-0.912-0.912L459.698,170.744z"/>
		<path d="M466.347,178.455c-1.897,1.898-4.052,1.4-5.282,0.17c-1.378-1.379-1.441-3.479,0.182-5.103
			c1.707-1.707,3.85-1.58,5.26-0.169C467.981,174.828,467.907,176.896,466.347,178.455z M462.233,174.445
			c-1.125,1.125-1.337,2.609-0.425,3.521c0.892,0.891,2.397,0.722,3.554-0.434c0.869-0.871,1.527-2.398,0.424-3.502
			C464.693,172.939,463.198,173.48,462.233,174.445z"/>
		<path d="M470.623,185.126c-0.542,0.542-0.997,1.019-1.369,1.453l-0.827-0.827l0.785-0.891l-0.021-0.021
			c-0.646,0.181-1.739,0.17-2.651-0.742c-0.806-0.807-1.315-2.229,0.478-4.02l3.002-3.002l0.934,0.934l-2.832,2.832
			c-0.977,0.975-1.337,1.951-0.499,2.789c0.626,0.626,1.495,0.625,2.089,0.371c0.182-0.074,0.382-0.212,0.562-0.393l3.14-3.14
			l0.934,0.934L470.623,185.126z"/>
		<path d="M474.504,184.342c0.541-0.541,0.955-0.977,1.348-1.432l0.827,0.827l-0.796,0.901l0.021,0.021
			c0.731-0.223,1.803-0.106,2.651,0.742c0.71,0.711,1.39,2.238-0.371,3.998l-3.056,3.055l-0.934-0.934l2.959-2.959
			c0.828-0.827,1.21-1.824,0.33-2.704c-0.604-0.604-1.517-0.646-2.207-0.296c-0.158,0.074-0.338,0.211-0.497,0.37l-3.087,3.087
			l-0.934-0.934L474.504,184.342z"/>
		<path d="M484.092,188.689l-1.23,1.23l1.337,1.337l-0.711,0.711l-1.337-1.337l-2.768,2.769c-0.637,0.637-0.816,1.177-0.297,1.696
			c0.254,0.256,0.424,0.383,0.604,0.479l-0.669,0.752c-0.244-0.115-0.594-0.339-0.954-0.699c-0.435-0.436-0.637-0.934-0.615-1.4
			c0.032-0.541,0.382-1.103,0.987-1.707l2.799-2.801l-0.795-0.795l0.711-0.711l0.795,0.795l0.955-0.953L484.092,188.689z"/>
		<path d="M484.952,199.816c-0.445,0.445-0.859,0.901-1.156,1.305l-0.838-0.838l0.572-0.721l-0.031-0.032
			c-0.689,0.116-1.602-0.075-2.334-0.806c-1.039-1.04-0.838-2.303-0.095-3.045c1.241-1.24,3.022-0.816,4.995,1.178l0.105-0.105
			c0.414-0.414,1.072-1.306,0.012-2.346c-0.488-0.487-1.125-0.848-1.729-0.965l0.413-0.837c0.688,0.159,1.495,0.604,2.143,1.251
			c1.569,1.57,0.88,3.023-0.138,4.041L484.952,199.816z M485.44,197.525c-0.998-1.039-2.334-2.016-3.331-1.019
			c-0.615,0.615-0.487,1.294-0.021,1.761c0.679,0.68,1.538,0.689,2.122,0.403c0.138-0.074,0.254-0.171,0.34-0.255L485.44,197.525z"
			/>
		<path d="M485.227,202.553l5.134-5.134l0.934,0.934l-5.134,5.134L485.227,202.553z M492.842,197.016
			c-0.318,0.318-0.795,0.352-1.166-0.02c-0.34-0.34-0.308-0.817,0.011-1.136s0.816-0.351,1.167-0.001
			C493.193,196.199,493.171,196.688,492.842,197.016z"/>
		<path d="M491.454,201.291c0.541-0.541,0.955-0.977,1.348-1.432l0.826,0.826l-0.795,0.902l0.021,0.021
			c0.73-0.223,1.803-0.107,2.65,0.742c0.711,0.711,1.391,2.238-0.37,3.998l-3.056,3.055l-0.934-0.934l2.959-2.959
			c0.828-0.827,1.21-1.824,0.33-2.705c-0.605-0.604-1.518-0.646-2.207-0.296c-0.159,0.074-0.339,0.212-0.498,0.37l-3.086,3.088
			l-0.934-0.934L491.454,201.291z"/>
	</g>
</g>
<g>
	<line fill="none" stroke="#009246" stroke-width="2" stroke-miterlimit="10" x1="414" y1="144" x2="451.27" y2="4.906"/>
	<g>
		<path d="M414.309,91.053c-1.382-0.292-3.057-0.648-4.26-0.97l-0.007,0.029c1.037,0.651,2.164,1.372,3.379,2.226l4.276,2.993
			l-0.257,0.957l-5.078,0.347c-1.515,0.091-2.862,0.133-4.095,0.098l-0.008,0.029c1.209,0.355,2.812,0.863,4.267,1.346l4.118,1.382
			l-0.322,1.202l-9.583-3.297l0.431-1.608l5.17-0.4c1.312-0.083,2.469-0.115,3.553-0.104l0.008-0.029
			c-0.915-0.524-1.895-1.16-3.01-1.925l-4.257-3.004l0.431-1.608l9.929,2.008l-0.334,1.246L414.309,91.053z"/>
		<path d="M417.662,81.438c2.593,0.695,3.237,2.809,2.788,4.489c-0.505,1.884-2.292,2.989-4.509,2.395
			c-2.332-0.625-3.294-2.544-2.777-4.471C413.704,81.838,415.532,80.868,417.662,81.438z M416.247,87.007
			c1.535,0.411,2.928-0.147,3.262-1.393c0.326-1.217-0.573-2.437-2.152-2.86c-1.188-0.318-2.84-0.124-3.244,1.383
			C413.712,85.629,414.928,86.654,416.247,87.007z"/>
		<path d="M421.301,74.4c0.74,0.198,1.381,0.355,1.943,0.459l-0.303,1.13l-1.164-0.235l-0.008,0.029
			c0.48,0.47,1.017,1.422,0.683,2.668c-0.295,1.101-1.272,2.252-3.72,1.597l-4.101-1.099l0.342-1.275l3.868,1.037
			c1.333,0.357,2.359,0.182,2.666-0.963c0.229-0.854-0.207-1.607-0.724-1.995c-0.155-0.119-0.374-0.224-0.622-0.29l-4.288-1.149
			l0.342-1.275L421.301,74.4z"/>
		<path d="M418.681,71.432c-0.738-0.198-1.322-0.339-1.913-0.451l0.303-1.13l1.179,0.239l0.008-0.029
			c-0.559-0.522-0.994-1.509-0.684-2.668c0.26-0.971,1.244-2.322,3.648-1.678l4.173,1.118l-0.342,1.275l-4.042-1.083
			c-1.13-0.303-2.185-0.135-2.507,1.067c-0.221,0.826,0.198,1.637,0.846,2.059c0.145,0.101,0.354,0.188,0.57,0.246l4.217,1.13
			l-0.342,1.275L418.681,71.432z"/>
		<path d="M417.653,60.953l1.681,0.45l0.489-1.825l0.971,0.26l-0.489,1.825l3.782,1.014c0.869,0.233,1.428,0.119,1.618-0.591
			c0.093-0.348,0.118-0.559,0.111-0.762l0.986,0.202c0.021,0.27,0.002,0.685-0.13,1.177c-0.159,0.595-0.49,1.019-0.904,1.233
			c-0.484,0.243-1.146,0.22-1.973-0.001l-3.825-1.025l-0.291,1.087l-0.971-0.26L419,62.649l-1.303-0.35L417.653,60.953z"/>
		<path d="M426.859,54.646c0.608,0.163,1.21,0.293,1.708,0.349l-0.307,1.145l-0.911-0.135l-0.012,0.043
			c0.446,0.539,0.736,1.424,0.469,2.424c-0.381,1.42-1.574,1.876-2.589,1.604c-1.695-0.454-2.219-2.209-1.479-4.914l-0.144-0.039
			c-0.565-0.151-1.667-0.276-2.036,1.163c-0.178,0.666-0.173,1.397,0.029,1.979l-0.933,0.061c-0.207-0.676-0.225-1.598,0.012-2.481
			c0.575-2.145,2.179-2.273,3.569-1.901L426.859,54.646z M424.63,55.369c-0.4,1.383-0.577,3.029,0.783,3.394
			c0.841,0.225,1.366-0.225,1.536-0.862c0.249-0.927-0.172-1.677-0.712-2.039c-0.133-0.082-0.274-0.136-0.391-0.167L424.63,55.369z"
			/>
		<path d="M420.489,49.212c0.435,0.117,0.701,0.515,0.565,1.021c-0.124,0.464-0.554,0.675-0.989,0.558
			c-0.435-0.116-0.711-0.531-0.583-1.01C419.606,49.317,420.04,49.092,420.489,49.212z M429.091,53.039l-7.013-1.879l0.342-1.275
			l7.013,1.879L429.091,53.039z"/>
		<path d="M424.885,48.278c-0.738-0.197-1.322-0.339-1.914-0.451l0.303-1.13l1.18,0.239l0.008-0.029
			c-0.559-0.522-0.994-1.509-0.684-2.668c0.26-0.971,1.243-2.322,3.647-1.678l4.174,1.118l-0.342,1.275l-4.042-1.083
			c-1.131-0.303-2.185-0.135-2.507,1.067c-0.222,0.826,0.198,1.637,0.846,2.06c0.145,0.1,0.354,0.187,0.57,0.246l4.217,1.129
			L430,49.649L424.885,48.278z"/>
	</g>
</g>
<g>
	<line fill="none" stroke="#009246" stroke-width="2" stroke-miterlimit="10" x1="414" y1="144" x2="312.177" y2="42.177"/>
	<g>
		<path d="M368.303,117.256c-0.943,1.051-2.09,2.322-2.97,3.203l0.021,0.021c1.082-0.572,2.271-1.188,3.617-1.814l4.73-2.205
			l0.701,0.699l-2.238,4.572c-0.68,1.357-1.316,2.545-1.963,3.595l0.021,0.021c0.912-0.869,2.152-2.004,3.299-3.021l3.256-2.875
			l0.881,0.881l-7.647,6.649l-1.177-1.177l2.237-4.678c0.583-1.178,1.134-2.195,1.687-3.129l-0.021-0.021
			c-0.912,0.531-1.952,1.062-3.172,1.645l-4.729,2.185l-1.177-1.177l6.703-7.594l0.912,0.912L368.303,117.256z"/>
		<path d="M361.654,109.545c1.897-1.898,4.052-1.4,5.282-0.17c1.378,1.379,1.441,3.479-0.182,5.103
			c-1.707,1.707-3.85,1.58-5.26,0.169C360.02,113.172,360.094,111.104,361.654,109.545z M365.768,113.555
			c1.125-1.125,1.337-2.609,0.425-3.521c-0.892-0.891-2.397-0.722-3.554,0.434c-0.869,0.871-1.527,2.398-0.424,3.502
			C363.308,115.061,364.803,114.52,365.768,113.555z"/>
		<path d="M357.378,102.874c0.542-0.542,0.997-1.019,1.369-1.453l0.827,0.827l-0.785,0.891l0.021,0.021
			c0.646-0.181,1.739-0.17,2.651,0.742c0.806,0.807,1.315,2.229-0.478,4.02l-3.002,3.002l-0.934-0.934l2.832-2.832
			c0.977-0.975,1.337-1.951,0.499-2.789c-0.626-0.626-1.495-0.625-2.089-0.371c-0.182,0.074-0.382,0.212-0.562,0.393l-3.14,3.14
			l-0.934-0.934L357.378,102.874z"/>
		<path d="M353.497,103.658c-0.541,0.541-0.955,0.977-1.348,1.432l-0.827-0.827l0.796-0.901l-0.021-0.021
			c-0.731,0.223-1.803,0.106-2.651-0.742c-0.71-0.711-1.39-2.238,0.371-3.998l3.056-3.055l0.934,0.934l-2.959,2.959
			c-0.828,0.827-1.21,1.824-0.33,2.704c0.604,0.604,1.517,0.646,2.207,0.296c0.158-0.074,0.338-0.211,0.497-0.37l3.087-3.087
			l0.934,0.934L353.497,103.658z"/>
		<path d="M343.909,99.311l1.23-1.23l-1.337-1.337l0.711-0.711l1.337,1.337l2.768-2.769c0.637-0.637,0.816-1.177,0.297-1.696
			c-0.254-0.256-0.424-0.383-0.604-0.479l0.669-0.752c0.244,0.115,0.594,0.339,0.954,0.699c0.435,0.436,0.637,0.934,0.615,1.4
			c-0.032,0.541-0.382,1.103-0.987,1.707l-2.799,2.801l0.795,0.795l-0.711,0.711l-0.795-0.795l-0.955,0.953L343.909,99.311z"/>
		<path d="M343.049,88.184c0.445-0.445,0.859-0.901,1.156-1.305l0.838,0.838l-0.572,0.721l0.031,0.032
			c0.689-0.116,1.602,0.075,2.334,0.806c1.039,1.04,0.838,2.303,0.095,3.045c-1.241,1.24-3.022,0.816-4.995-1.178l-0.105,0.105
			c-0.414,0.414-1.072,1.306-0.012,2.346c0.488,0.487,1.125,0.848,1.729,0.965l-0.413,0.837c-0.688-0.159-1.495-0.604-2.143-1.251
			c-1.569-1.57-0.88-3.023,0.138-4.041L343.049,88.184z M342.561,90.475c0.998,1.039,2.334,2.016,3.331,1.019
			c0.615-0.615,0.487-1.294,0.021-1.761c-0.679-0.68-1.538-0.689-2.122-0.403c-0.138,0.074-0.254,0.171-0.34,0.255L342.561,90.475z"
			/>
		<path d="M335.159,90.984c0.318-0.318,0.795-0.352,1.166,0.02c0.34,0.34,0.308,0.817-0.011,1.136s-0.816,0.351-1.167,0.001
			C334.808,91.801,334.83,91.312,335.159,90.984z M342.774,85.447l-5.134,5.134l-0.934-0.934l5.134-5.134L342.774,85.447z"/>
		<path d="M336.547,86.709c-0.541,0.541-0.955,0.977-1.348,1.432l-0.826-0.826l0.795-0.902l-0.021-0.021
			c-0.73,0.223-1.803,0.107-2.65-0.742c-0.711-0.711-1.391-2.238,0.37-3.998l3.056-3.055l0.934,0.934l-2.959,2.959
			c-0.828,0.827-1.21,1.824-0.33,2.705c0.605,0.604,1.518,0.646,2.207,0.296c0.159-0.074,0.339-0.212,0.498-0.37l3.086-3.088
			l0.934,0.934L336.547,86.709z"/>
	</g>
</g>
<g>
	<line fill="none" stroke="#009246" stroke-width="2" stroke-miterlimit="10" x1="414" y1="144" x2="376.731" y2="283.094"/>
	<g>
		<path d="M413.692,196.947c1.382,0.292,3.057,0.648,4.26,0.97l0.007-0.029c-1.037-0.651-2.164-1.372-3.379-2.226l-4.276-2.993
			l0.257-0.957l5.078-0.347c1.515-0.091,2.862-0.133,4.095-0.098l0.008-0.029c-1.209-0.355-2.812-0.863-4.267-1.346l-4.118-1.382
			l0.322-1.202l9.583,3.297l-0.431,1.608l-5.17,0.4c-1.312,0.083-2.469,0.115-3.553,0.104l-0.008,0.029
			c0.915,0.524,1.895,1.16,3.01,1.925l4.257,3.004l-0.431,1.608l-9.929-2.008l0.334-1.246L413.692,196.947z"/>
		<path d="M410.339,206.562c-2.593-0.695-3.237-2.809-2.788-4.489c0.505-1.884,2.292-2.989,4.509-2.395
			c2.332,0.625,3.294,2.544,2.777,4.471C414.297,206.162,412.469,207.132,410.339,206.562z M411.754,200.993
			c-1.535-0.411-2.928,0.147-3.262,1.393c-0.326,1.217,0.573,2.437,2.152,2.86c1.188,0.318,2.84,0.124,3.244-1.383
			C414.289,202.371,413.073,201.346,411.754,200.993z"/>
		<path d="M406.7,213.6c-0.74-0.198-1.381-0.355-1.943-0.459l0.303-1.13l1.164,0.235l0.008-0.029
			c-0.48-0.47-1.017-1.422-0.683-2.668c0.295-1.101,1.272-2.252,3.72-1.597l4.101,1.099l-0.342,1.275l-3.868-1.037
			c-1.333-0.357-2.359-0.182-2.666,0.963c-0.229,0.854,0.207,1.607,0.724,1.995c0.155,0.119,0.374,0.224,0.622,0.29l4.288,1.149
			l-0.342,1.275L406.7,213.6z"/>
		<path d="M409.32,216.568c0.738,0.198,1.322,0.339,1.913,0.451l-0.303,1.13l-1.179-0.239l-0.008,0.029
			c0.559,0.522,0.994,1.509,0.684,2.668c-0.26,0.971-1.244,2.322-3.648,1.678l-4.173-1.118l0.342-1.275l4.042,1.083
			c1.13,0.303,2.185,0.135,2.507-1.067c0.221-0.826-0.198-1.637-0.846-2.059c-0.145-0.101-0.354-0.188-0.57-0.246l-4.217-1.13
			l0.342-1.275L409.32,216.568z"/>
		<path d="M410.348,227.047l-1.681-0.45l-0.489,1.825l-0.971-0.26l0.489-1.825l-3.782-1.014c-0.869-0.233-1.428-0.119-1.618,0.591
			c-0.093,0.348-0.118,0.559-0.111,0.762l-0.986-0.202c-0.021-0.27-0.002-0.685,0.13-1.177c0.159-0.595,0.49-1.019,0.904-1.233
			c0.484-0.243,1.146-0.22,1.973,0.001l3.825,1.025l0.291-1.087l0.971,0.26l-0.291,1.087l1.303,0.35L410.348,227.047z"/>
		<path d="M401.142,233.354c-0.608-0.163-1.21-0.293-1.708-0.349l0.307-1.145l0.911,0.135l0.012-0.043
			c-0.446-0.539-0.736-1.424-0.469-2.424c0.381-1.42,1.574-1.876,2.589-1.604c1.695,0.454,2.219,2.209,1.479,4.914l0.144,0.039
			c0.565,0.151,1.667,0.276,2.036-1.163c0.178-0.666,0.173-1.397-0.029-1.979l0.933-0.061c0.207,0.676,0.225,1.598-0.012,2.481
			c-0.575,2.145-2.179,2.273-3.569,1.901L401.142,233.354z M403.371,232.631c0.4-1.383,0.577-3.029-0.783-3.394
			c-0.841-0.225-1.366,0.225-1.536,0.862c-0.249,0.927,0.172,1.677,0.712,2.039c0.133,0.082,0.274,0.136,0.391,0.167
			L403.371,232.631z"/>
		<path d="M398.91,234.961l7.013,1.879l-0.342,1.275l-7.013-1.879L398.91,234.961z M407.512,238.788
			c-0.435-0.117-0.701-0.515-0.565-1.021c0.124-0.464,0.554-0.675,0.989-0.558c0.435,0.116,0.711,0.531,0.583,1.01
			C408.395,238.683,407.961,238.908,407.512,238.788z"/>
		<path d="M403.116,239.722c0.738,0.197,1.322,0.339,1.914,0.451l-0.303,1.13l-1.18-0.239l-0.008,0.029
			c0.559,0.522,0.994,1.509,0.684,2.668c-0.26,0.971-1.243,2.322-3.647,1.678l-4.174-1.118l0.342-1.275l4.042,1.083
			c1.131,0.303,2.185,0.135,2.507-1.067c0.222-0.826-0.198-1.637-0.846-2.06c-0.145-0.1-0.354-0.187-0.57-0.246l-4.217-1.129
			l0.342-1.275L403.116,239.722z"/>
	</g>
</g>
<g>
	<line fill="none" stroke="#009246" stroke-width="2" stroke-miterlimit="10" x1="126" y1="180" x2="126" y2="36"/>
	<g>
		<path d="M112.561,128.812c-1.41,0.075-3.12,0.165-4.365,0.165v0.03c1.17,0.36,2.445,0.765,3.84,1.275l4.905,1.785v0.99
			l-4.815,1.65c-1.439,0.48-2.729,0.87-3.93,1.155v0.03c1.26,0.03,2.939,0.105,4.47,0.195l4.335,0.27v1.245l-10.109-0.705v-1.665
			l4.89-1.725c1.245-0.42,2.354-0.75,3.405-1.02v-0.03c-1.021-0.27-2.131-0.63-3.405-1.08l-4.89-1.8v-1.665l10.109-0.63v1.29
			L112.561,128.812z"/>
		<path d="M113.311,118.658c2.685,0,3.854,1.875,3.854,3.615c0,1.95-1.44,3.48-3.735,3.48c-2.414,0-3.84-1.605-3.84-3.6
			C109.59,120.067,111.106,118.658,113.311,118.658z M113.385,124.402c1.59,0,2.79-0.9,2.79-2.19c0-1.26-1.185-2.205-2.819-2.205
			c-1.23,0-2.775,0.615-2.775,2.175C110.581,123.728,112.021,124.402,113.385,124.402z"/>
		<path d="M115.005,110.917c0.766,0,1.425-0.015,1.995-0.06v1.17l-1.185,0.075v0.03c0.585,0.33,1.35,1.11,1.35,2.4
			c0,1.14-0.646,2.505-3.18,2.505h-4.245v-1.32h4.005c1.38,0,2.325-0.435,2.325-1.62c0-0.885-0.615-1.5-1.215-1.74
			c-0.181-0.075-0.42-0.12-0.676-0.12h-4.439v-1.32H115.005z"/>
		<path d="M111.706,108.728c-0.765,0-1.365,0.015-1.965,0.06v-1.17l1.2-0.075v-0.03c-0.675-0.36-1.351-1.2-1.351-2.4
			c0-1.005,0.601-2.565,3.09-2.565H117v1.32h-4.185c-1.17,0-2.146,0.435-2.146,1.68c0,0.855,0.615,1.53,1.351,1.77
			c0.165,0.06,0.39,0.09,0.614,0.09H117v1.32H111.706z"/>
		<path d="M108,98.873h1.74v-1.89h1.005v1.89h3.915c0.9,0,1.41-0.255,1.41-0.99c0-0.36-0.03-0.57-0.09-0.765l1.005-0.06
			c0.09,0.255,0.18,0.66,0.18,1.17c0,0.615-0.21,1.11-0.555,1.425c-0.405,0.36-1.05,0.51-1.905,0.51h-3.96v1.125h-1.005v-1.125
			h-1.35L108,98.873z"/>
		<path d="M115.26,90.398c0.63,0,1.245-0.03,1.74-0.105v1.185l-0.915,0.105v0.045c0.57,0.405,1.08,1.185,1.08,2.22
			c0,1.47-1.035,2.22-2.085,2.22c-1.755,0-2.715-1.56-2.7-4.365h-0.149c-0.585,0-1.681,0.165-1.665,1.65
			c0,0.69,0.194,1.395,0.54,1.905l-0.885,0.3c-0.375-0.6-0.631-1.485-0.631-2.4c0-2.22,1.516-2.76,2.955-2.76H115.26z
			 M113.295,91.673c-0.029,1.44,0.226,3.075,1.635,3.075c0.87,0,1.261-0.57,1.261-1.23c0-0.96-0.601-1.575-1.216-1.785
			c-0.149-0.045-0.3-0.06-0.42-0.06H113.295z"/>
		<path d="M107.701,86.798c0.45,0,0.811,0.315,0.811,0.84c0,0.48-0.36,0.795-0.811,0.795s-0.825-0.33-0.825-0.825
			C106.875,87.128,107.236,86.798,107.701,86.798z M117,88.268h-7.26v-1.32H117V88.268z"/>
		<path d="M111.706,84.758c-0.765,0-1.365,0.015-1.965,0.06v-1.17l1.2-0.075v-0.03c-0.675-0.36-1.351-1.2-1.351-2.4
			c0-1.005,0.601-2.565,3.09-2.565H117v1.32h-4.185c-1.17,0-2.146,0.435-2.146,1.68c0,0.855,0.615,1.53,1.351,1.77
			c0.165,0.06,0.39,0.09,0.614,0.09H117v1.32H111.706z"/>
	</g>
</g>
<g>
	<line fill="none" stroke="#009246" stroke-width="2" stroke-miterlimit="10" x1="126" y1="180.001" x2="1.292" y2="252.001"/>
	<g>
		<path d="M88.353,217.196c0.771,1.184,1.702,2.619,2.325,3.697l0.025-0.015c-0.272-1.193-0.56-2.5-0.814-3.963l-0.907-5.141
			l0.857-0.495l3.837,3.345c1.135,1.006,2.117,1.929,2.965,2.826l0.025-0.015c-0.604-1.106-1.379-2.598-2.065-3.968l-1.934-3.889
			l1.077-0.623l4.445,9.107l-1.442,0.833l-3.938-3.372c-0.986-0.869-1.827-1.664-2.586-2.439l-0.025,0.015
			c0.275,1.019,0.52,2.16,0.767,3.489l0.886,5.134l-1.441,0.833l-5.601-8.44l1.118-0.645L88.353,217.196z"/>
		<path d="M79.184,221.624c-1.342-2.325-0.304-4.276,1.203-5.146c1.688-0.975,3.734-0.493,4.881,1.495
			c1.207,2.091,0.531,4.128-1.197,5.126C82.265,224.141,80.287,223.533,79.184,221.624z M84.122,218.687
			c-0.795-1.377-2.174-1.966-3.291-1.321c-1.092,0.63-1.318,2.128-0.5,3.544c0.615,1.065,1.92,2.096,3.271,1.316
			C84.94,221.454,84.804,219.869,84.122,218.687z"/>
		<path d="M71.633,224.026c-0.383-0.663-0.725-1.227-1.049-1.698l1.014-0.585l0.656,0.989l0.026-0.015
			c-0.007-0.672,0.286-1.724,1.403-2.369c0.987-0.569,2.492-0.693,3.76,1.502l2.122,3.676l-1.144,0.66l-2.002-3.468
			c-0.689-1.195-1.539-1.797-2.565-1.204c-0.767,0.442-0.991,1.283-0.899,1.922c0.025,0.194,0.105,0.423,0.234,0.645l2.219,3.845
			l-1.143,0.66L71.633,224.026z"/>
		<path d="M71.387,227.979c0.382,0.662,0.695,1.175,1.033,1.672l-1.013,0.585l-0.665-1.002l-0.025,0.016
			c0.025,0.764-0.364,1.77-1.404,2.37c-0.869,0.502-2.521,0.762-3.766-1.393l-2.16-3.742l1.144-0.66l2.093,3.624
			c0.584,1.014,1.449,1.641,2.527,1.019c0.74-0.428,1.017-1.298,0.857-2.055c-0.031-0.173-0.117-0.382-0.229-0.577l-2.183-3.78
			l1.143-0.66L71.387,227.979z"/>
		<path d="M64.705,236.115l-0.87-1.507l-1.637,0.944l-0.502-0.87l1.637-0.944l-1.958-3.391c-0.45-0.78-0.926-1.094-1.562-0.727
			c-0.312,0.18-0.479,0.312-0.618,0.46l-0.555-0.84c0.177-0.205,0.481-0.486,0.923-0.741c0.533-0.308,1.067-0.373,1.512-0.232
			c0.515,0.171,0.967,0.654,1.395,1.395l1.98,3.43l0.975-0.562l0.502,0.87l-0.975,0.562l0.675,1.169L64.705,236.115z"/>
		<path d="M53.735,234.065c-0.314-0.546-0.647-1.063-0.961-1.455l1.027-0.592l0.548,0.74l0.039-0.022
			c0.065-0.697,0.486-1.528,1.382-2.045c1.273-0.735,2.441-0.214,2.966,0.695c0.878,1.521,0.007,3.131-2.431,4.521l0.075,0.129
			c0.292,0.507,0.983,1.373,2.262,0.617c0.597-0.345,1.11-0.866,1.38-1.42l0.701,0.616c-0.332,0.625-0.971,1.289-1.763,1.746
			c-1.923,1.11-3.147,0.067-3.868-1.179L53.735,234.065z M55.823,235.129c1.262-0.695,2.55-1.733,1.846-2.953
			c-0.436-0.753-1.125-0.807-1.696-0.477c-0.831,0.48-1.063,1.308-0.938,1.945c0.036,0.152,0.099,0.29,0.158,0.394L55.823,235.129z"
			/>
		<path d="M51.021,233.623l3.63,6.287l-1.144,0.66l-3.63-6.287L51.021,233.623z M54.397,242.412
			c-0.225-0.39-0.132-0.859,0.322-1.122c0.416-0.24,0.869-0.085,1.094,0.304c0.226,0.39,0.127,0.88-0.301,1.127
			C55.096,242.962,54.629,242.815,54.397,242.412z"/>
		<path d="M50.629,239.964c0.382,0.662,0.695,1.175,1.033,1.672l-1.014,0.585l-0.664-1.002l-0.026,0.015
			c0.026,0.765-0.364,1.77-1.403,2.37c-0.87,0.502-2.521,0.762-3.766-1.394l-2.16-3.742l1.143-0.66l2.093,3.624
			c0.585,1.013,1.449,1.641,2.527,1.018c0.741-0.428,1.018-1.298,0.858-2.055c-0.031-0.173-0.117-0.382-0.23-0.577l-2.182-3.78
			l1.143-0.66L50.629,239.964z"/>
	</g>
</g>
<g>
	<line fill="none" stroke="#009246" stroke-width="2" stroke-miterlimit="10" x1="126.001" y1="180" x2="250.709" y2="252.002"/>
	<g>
		<path d="M177.087,193.994c0.64-1.259,1.417-2.785,2.04-3.863l-0.026-0.015c-0.897,0.833-1.885,1.735-3.024,2.688l-3.999,3.355
			l-0.857-0.495l0.979-4.994c0.304-1.487,0.611-2.8,0.965-3.981l-0.026-0.015c-0.656,1.076-1.561,2.493-2.404,3.773l-2.401,3.619
			l-1.078-0.623l5.665-8.402l1.442,0.833l-0.951,5.097c-0.259,1.289-0.527,2.414-0.819,3.459l0.025,0.016
			c0.744-0.749,1.611-1.531,2.638-2.41l4.003-3.334l1.442,0.832l-4.509,9.07l-1.118-0.645L177.087,193.994z"/>
		<path d="M185.506,199.721c-1.342,2.325-3.551,2.4-5.058,1.531c-1.688-0.976-2.293-2.988-1.146-4.976
			c1.207-2.091,3.31-2.522,5.038-1.525C186.146,195.793,186.609,197.811,185.506,199.721z M180.494,196.912
			c-0.795,1.377-0.616,2.866,0.502,3.512c1.091,0.63,2.502,0.076,3.319-1.339c0.615-1.065,0.854-2.712-0.497-3.491
			C182.481,194.82,181.176,195.73,180.494,196.912z"/>
		<path d="M191.363,205.058c-0.383,0.663-0.7,1.242-0.946,1.758l-1.013-0.585l0.528-1.062l-0.026-0.016
			c-0.578,0.342-1.636,0.614-2.753-0.031c-0.987-0.569-1.846-1.812-0.579-4.006l2.123-3.677l1.143,0.66l-2.002,3.469
			c-0.69,1.194-0.786,2.23,0.24,2.823c0.767,0.442,1.607,0.217,2.115-0.182c0.155-0.119,0.313-0.304,0.441-0.525l2.22-3.845
			l1.144,0.66L191.363,205.058z"/>
		<path d="M194.909,203.295c0.382-0.662,0.67-1.189,0.931-1.73l1.013,0.584l-0.535,1.077l0.026,0.016
			c0.649-0.405,1.714-0.57,2.754,0.03c0.87,0.502,1.921,1.802,0.676,3.958l-2.16,3.741l-1.144-0.66l2.092-3.624
			c0.585-1.013,0.696-2.075-0.382-2.697c-0.74-0.428-1.632-0.232-2.208,0.284c-0.135,0.113-0.273,0.293-0.385,0.487l-2.183,3.78
			l-1.143-0.66L194.909,203.295z"/>
		<path d="M205.296,205.014l-0.87,1.508l1.636,0.944l-0.502,0.87l-1.636-0.944l-1.958,3.391c-0.45,0.779-0.484,1.349,0.152,1.716
			c0.312,0.18,0.509,0.259,0.708,0.305l-0.45,0.9c-0.266-0.05-0.662-0.174-1.103-0.43c-0.533-0.307-0.857-0.736-0.957-1.192
			c-0.109-0.531,0.083-1.164,0.511-1.905l1.98-3.43l-0.975-0.562l0.502-0.87l0.975,0.562l0.675-1.169L205.296,205.014z"/>
		<path d="M209.006,215.538c-0.315,0.546-0.597,1.094-0.779,1.56l-1.026-0.592l0.367-0.846l-0.039-0.021
			c-0.636,0.291-1.566,0.343-2.462-0.175c-1.273-0.735-1.405-2.007-0.88-2.916c0.877-1.52,2.708-1.571,5.13-0.155l0.075-0.13
			c0.292-0.507,0.697-1.538-0.597-2.268c-0.597-0.345-1.305-0.528-1.919-0.484l0.183-0.916c0.707-0.024,1.602,0.196,2.394,0.653
			c1.922,1.11,1.632,2.692,0.913,3.939L209.006,215.538z M208.884,213.199c-1.232-0.745-2.776-1.342-3.48-0.121
			c-0.435,0.753-0.136,1.377,0.435,1.706c0.831,0.48,1.664,0.268,2.154-0.16c0.114-0.106,0.202-0.229,0.262-0.333L208.884,213.199z"
			/>
		<path d="M209.98,218.11l3.63-6.287l1.144,0.66l-3.63,6.287L209.98,218.11z M215.903,210.792c-0.225,0.39-0.678,0.544-1.133,0.282
			c-0.416-0.24-0.508-0.71-0.283-1.1c0.225-0.391,0.698-0.55,1.127-0.303C216.03,209.912,216.136,210.389,215.903,210.792z"/>
		<path d="M215.667,215.28c0.382-0.662,0.67-1.19,0.931-1.731l1.013,0.585l-0.536,1.077l0.026,0.015
			c0.649-0.404,1.714-0.57,2.753,0.03c0.871,0.502,1.921,1.803,0.677,3.958l-2.16,3.741l-1.144-0.66l2.092-3.623
			c0.585-1.014,0.696-2.076-0.382-2.698c-0.741-0.428-1.633-0.232-2.208,0.284c-0.134,0.113-0.272,0.293-0.385,0.487l-2.183,3.78
			l-1.144-0.66L215.667,215.28z"/>
	</g>
</g>
<g>
	<g>
		<g>
			<line fill="none" stroke="#0081CD" stroke-width="2" stroke-miterlimit="10" x1="126" y1="180" x2="128" y2="180"/>
			
				<line fill="none" stroke="#0081CD" stroke-width="2" stroke-miterlimit="10" stroke-dasharray="3.9161,2.9371" x1="130.938" y1="180" x2="266.532" y2="180"/>
			<line fill="none" stroke="#0081CD" stroke-width="2" stroke-miterlimit="10" x1="268" y1="180" x2="270" y2="180"/>
		</g>
	</g>
	<g>
		<path d="M182.978,171l-3.315-10.109h1.425l1.575,4.979c0.42,1.365,0.795,2.595,1.08,3.78h0.03c0.285-1.17,0.69-2.445,1.155-3.766
			l1.71-4.994h1.395L184.417,171H182.978z"/>
		<path d="M193.688,169.26c0,0.63,0.03,1.245,0.105,1.74h-1.185l-0.105-0.915h-0.045c-0.405,0.57-1.185,1.08-2.22,1.08
			c-1.47,0-2.22-1.035-2.22-2.085c0-1.755,1.56-2.715,4.365-2.7v-0.149c0-0.585-0.165-1.681-1.65-1.665
			c-0.69,0-1.395,0.194-1.905,0.54l-0.3-0.885c0.6-0.375,1.485-0.631,2.4-0.631c2.22,0,2.76,1.516,2.76,2.955V169.26z
			 M192.413,167.295c-1.44-0.029-3.075,0.226-3.075,1.635c0,0.87,0.57,1.261,1.23,1.261c0.96,0,1.575-0.601,1.785-1.216
			c0.045-0.149,0.06-0.3,0.06-0.42V167.295z"/>
		<path d="M195.818,160.351h1.32V171h-1.32V160.351z"/>
		<path d="M199.358,160.351h1.32V171h-1.32V160.351z"/>
		<path d="M203.633,167.61c0.03,1.785,1.155,2.52,2.49,2.52c0.945,0,1.53-0.165,2.01-0.375l0.24,0.945
			c-0.465,0.21-1.275,0.465-2.43,0.465c-2.235,0-3.57-1.485-3.57-3.675c0-2.19,1.29-3.9,3.405-3.9c2.385,0,3,2.07,3,3.405
			c0,0.271-0.015,0.465-0.045,0.615H203.633z M207.503,166.665c0.015-0.825-0.345-2.13-1.83-2.13c-1.35,0-1.92,1.215-2.025,2.13
			H207.503z"/>
		<path d="M210.893,163.74l1.575,4.29c0.18,0.479,0.36,1.05,0.48,1.484h0.03c0.135-0.435,0.285-0.989,0.465-1.515l1.44-4.26h1.395
			l-1.98,5.175c-0.945,2.49-1.59,3.75-2.49,4.545c-0.66,0.555-1.29,0.78-1.62,0.84l-0.33-1.095c0.33-0.105,0.765-0.315,1.155-0.646
			c0.36-0.284,0.795-0.795,1.11-1.47c0.06-0.135,0.105-0.24,0.105-0.314c0-0.075-0.03-0.181-0.105-0.346l-2.67-6.689H210.893z"/>
	</g>
</g>
<g>
	<g>
		<g>
			<line fill="none" stroke="#0081CD" stroke-width="2" stroke-miterlimit="10" x1="414" y1="144" x2="416" y2="144"/>
			
				<line fill="none" stroke="#0081CD" stroke-width="2" stroke-miterlimit="10" stroke-dasharray="3.9161,2.9371" x1="418.938" y1="144" x2="554.532" y2="144"/>
			<line fill="none" stroke="#0081CD" stroke-width="2" stroke-miterlimit="10" x1="556" y1="144" x2="558" y2="144"/>
		</g>
	</g>
	<g>
		<path d="M470.977,135l-3.314-10.109h1.424l1.576,4.979c0.42,1.365,0.795,2.595,1.08,3.78h0.029
			c0.285-1.17,0.689-2.445,1.154-3.766l1.711-4.994h1.395L472.417,135H470.977z"/>
		<path d="M481.688,133.26c0,0.63,0.029,1.245,0.104,1.74h-1.185l-0.105-0.915h-0.045c-0.404,0.57-1.186,1.08-2.22,1.08
			c-1.47,0-2.22-1.035-2.22-2.085c0-1.755,1.56-2.715,4.364-2.7v-0.149c0-0.585-0.165-1.681-1.649-1.665
			c-0.69,0-1.396,0.194-1.905,0.54l-0.3-0.885c0.6-0.375,1.484-0.631,2.4-0.631c2.219,0,2.76,1.516,2.76,2.955V133.26z
			 M480.413,131.295c-1.439-0.029-3.075,0.226-3.075,1.635c0,0.87,0.57,1.261,1.229,1.261c0.961,0,1.576-0.601,1.785-1.216
			c0.045-0.149,0.061-0.3,0.061-0.42V131.295z"/>
		<path d="M483.817,124.351h1.32V135h-1.32V124.351z"/>
		<path d="M487.358,124.351h1.32V135h-1.32V124.351z"/>
		<path d="M491.633,131.61c0.029,1.785,1.154,2.52,2.489,2.52c0.944,0,1.53-0.165,2.01-0.375l0.24,0.945
			c-0.465,0.21-1.274,0.465-2.431,0.465c-2.234,0-3.569-1.485-3.569-3.675c0-2.19,1.29-3.9,3.405-3.9c2.385,0,3,2.07,3,3.405
			c0,0.271-0.016,0.465-0.045,0.615H491.633z M495.502,130.665c0.016-0.825-0.345-2.13-1.83-2.13c-1.35,0-1.92,1.215-2.025,2.13
			H495.502z"/>
		<path d="M498.892,127.74l1.575,4.29c0.18,0.479,0.359,1.05,0.48,1.484h0.029c0.135-0.435,0.285-0.989,0.465-1.515l1.44-4.26h1.396
			l-1.98,5.175c-0.945,2.49-1.59,3.75-2.49,4.545c-0.66,0.555-1.289,0.78-1.619,0.84l-0.33-1.095
			c0.33-0.105,0.765-0.315,1.154-0.646c0.359-0.284,0.795-0.795,1.109-1.47c0.061-0.135,0.105-0.24,0.105-0.314
			c0-0.075-0.029-0.181-0.105-0.346l-2.67-6.689H498.892z"/>
	</g>
</g>
</svg>
