<?xml version="1.0" encoding="utf-8"?>
<!-- Generator: Adobe Illustrator 15.1.0, SVG Export Plug-In . SVG Version: 6.00 Build 0)  -->
<!DOCTYPE svg PUBLIC "-//W3C//DTD SVG 1.1//EN" "http://www.w3.org/Graphics/SVG/1.1/DTD/svg11.dtd">
<svg version="1.1" id="Layer_1" xmlns="http://www.w3.org/2000/svg" xmlns:xlink="http://www.w3.org/1999/xlink" x="0px" y="0px"
	 width="541.667px" height="662px" viewBox="0 0 541.667 662" enable-background="new 0 0 541.667 662" xml:space="preserve">
<circle opacity="0.5" fill="#FEC200" stroke="#000000" cx="340.782" cy="479.979" r="176.873"/>
<circle opacity="0.5" fill="#FEC200" stroke="#000000" cx="367.075" cy="104.836" r="100"/>
<circle opacity="0.5" fill="#FEC200" stroke="#000000" cx="126.097" cy="227.929" r="121.409"/>
<circle opacity="0.5" fill="#FEC200" stroke="#000000" cx="234.49" cy="449.25" r="53.544"/>
<circle opacity="0.5" fill="#FEC200" stroke="#000000" cx="399.812" cy="437.333" r="91.994"/>
<circle opacity="0.5" fill="#FEC200" stroke="#000000" cx="477.795" cy="228.693" r="53.695"/>
<circle opacity="0.5" fill="#FEC200" stroke="#000000" cx="395.219" cy="124.057" r="56.97"/>
<polygon fill="none" stroke="#000000" stroke-width="2" points="267.547,462.057 203.725,437.333 153.145,391.222 122.637,329.954 
	116.321,261.802 135.052,195.971 176.298,141.352 234.49,105.321 301.769,92.745 369.046,105.321 427.239,141.352 468.485,195.971 
	487.215,261.802 480.901,329.954 450.393,391.222 399.812,437.333 335.991,462.057 "/>
<path fill="none" stroke="#000000" stroke-width="2" d="M153.145,391.222"/>
<path fill="none" stroke="#000000" stroke-width="2" d="M234.49,105.321"/>
<path fill="none" stroke="#000000" stroke-width="2" d="M480.901,329.954"/>
<circle fill="#0081CD" stroke="#000000" cx="301.769" cy="92.745" r="6"/>
<circle fill="#0081CD" stroke="#000000" cx="369.046" cy="105.321" r="6"/>
<circle fill="#0081CD" stroke="#000000" cx="427.239" cy="141.352" r="6"/>
<circle fill="#0081CD" stroke="#000000" cx="468.485" cy="195.971" r="6"/>
<circle fill="#0081CD" stroke="#000000" cx="487.215" cy="261.802" r="6"/>
<circle fill="#0081CD" stroke="#000000" cx="480.901" cy="329.954" r="6"/>
<circle fill="#0081CD" stroke="#000000" cx="450.393" cy="391.222" r="6"/>
<circle fill="#0081CD" stroke="#000000" cx="399.812" cy="437.333" r="6"/>
<circle fill="#0081CD" stroke="#000000" cx="335.991" cy="462.057" r="6"/>
<circle fill="#0081CD" stroke="#000000" cx="267.547" cy="462.057" r="6"/>
<circle fill="#0081CD" stroke="#000000" cx="203.725" cy="437.333" r="6"/>
<circle fill="#0081CD" stroke="#000000" cx="153.145" cy="391.222" r="6"/>
<circle fill="#0081CD" stroke="#000000" cx="122.637" cy="329.954" r="6"/>
<circle fill="#0081CD" stroke="#000000" cx="116.321" cy="261.802" r="6"/>
<circle fill="#0081CD" stroke="#000000" cx="135.052" cy="195.971" r="6"/>
<circle fill="#0081CD" stroke="#000000" cx="176.298" cy="141.352" r="6"/>
<circle fill="#0081CD" stroke="#000000" cx="234.49" cy="105.321" r="6"/>
</svg>
