<?xml version="1.0" encoding="utf-8"?>
<!-- Generator: Adobe Illustrator 15.1.0, SVG Export Plug-In . SVG Version: 6.00 Build 0)  -->
<!DOCTYPE svg PUBLIC "-//W3C//DTD SVG 1.1//EN" "http://www.w3.org/Graphics/SVG/1.1/DTD/svg11.dtd">
<svg version="1.1" id="Layer_1" xmlns="http://www.w3.org/2000/svg" xmlns:xlink="http://www.w3.org/1999/xlink" x="0px" y="0px"
	 width="1852.36px" height="686px" viewBox="0 0 1852.36 686" enable-background="new 0 0 1852.36 686" xml:space="preserve">
<g>
	<rect x="15.303" y="67.178" fill="none" stroke="#0081CD" stroke-miterlimit="10" width="550.82" height="556.557"/>
	<circle fill="#FEC200" cx="432.187" cy="263.722" r="106.68"/>
	<circle fill="#FEC200" cx="153.976" cy="263.707" r="106.68"/>
	<circle fill="#FEC200" cx="293.093" cy="504.639" r="106.68"/>
	<circle fill="none" stroke="#231F20" stroke-width="2" stroke-miterlimit="10" cx="394.917" cy="402.815" r="144"/>
	<circle fill="none" stroke="#231F20" stroke-width="2" stroke-miterlimit="10" cx="191.271" cy="402.814" r="144"/>
	<circle fill="none" stroke="#231F20" stroke-width="2" stroke-miterlimit="10" cx="293.094" cy="226.452" r="144"/>
	<circle fill="none" stroke="#231F20" stroke-width="2" stroke-miterlimit="10" cx="293.093" cy="504.639" r="63.46"/>
	<circle fill="none" stroke="#231F20" stroke-width="2" stroke-miterlimit="10" cx="432.187" cy="263.722" r="63.46"/>
	<circle fill="none" stroke="#231F20" stroke-width="2" stroke-miterlimit="10" cx="153.976" cy="263.707" r="63.46"/>
	<circle fill="#0081CD" stroke="#231F20" stroke-miterlimit="10" cx="432.187" cy="200.262" r="13.5"/>
	<circle fill="#0081CD" stroke="#231F20" stroke-miterlimit="10" cx="368.727" cy="261.208" r="13.5"/>
	<circle fill="#0081CD" stroke="#231F20" stroke-miterlimit="10" cx="434.729" cy="263.707" r="13.5"/>
	<circle fill="#0081CD" stroke="#231F20" stroke-miterlimit="10" cx="488.368" cy="293.251" r="13.5"/>
	<circle fill="#0081CD" stroke="#231F20" stroke-miterlimit="10" cx="402.68" cy="319.914" r="13.5"/>
	<circle fill="#0081CD" stroke="#231F20" stroke-miterlimit="10" cx="217.481" cy="261.208" r="13.5"/>
	<circle fill="#0081CD" stroke="#231F20" stroke-miterlimit="10" cx="153.911" cy="263.722" r="13.5"/>
	<circle fill="#0081CD" stroke="#231F20" stroke-miterlimit="10" cx="151.492" cy="200.247" r="13.5"/>
	<circle fill="#0081CD" stroke="#231F20" stroke-miterlimit="10" cx="97.819" cy="293.251" r="13.5"/>
	<circle fill="#0081CD" stroke="#231F20" stroke-miterlimit="10" cx="183.541" cy="319.915" r="13.5"/>
	<circle fill="#0081CD" stroke="#231F20" stroke-miterlimit="10" cx="257.212" cy="452.293" r="13.5"/>
	<circle fill="#0081CD" stroke="#231F20" stroke-miterlimit="10" cx="293.093" cy="504.639" r="13.5"/>
	<circle fill="#0081CD" stroke="#231F20" stroke-miterlimit="10" cx="327.004" cy="450.992" r="13.5"/>
	<circle fill="#0081CD" stroke="#231F20" stroke-miterlimit="10" cx="239.448" cy="538.549" r="13.5"/>
	<circle fill="#0081CD" stroke="#231F20" stroke-miterlimit="10" cx="346.741" cy="538.547" r="13.5"/>
	<circle fill="#0081CD" stroke="#231F20" stroke-miterlimit="10" cx="255.824" cy="365.544" r="13.5"/>
	<circle fill="#0081CD" stroke="#231F20" stroke-miterlimit="10" cx="330.387" cy="365.544" r="13.5"/>
	<circle fill="#0081CD" stroke="#231F20" stroke-miterlimit="10" cx="293.093" cy="300.992" r="13.5"/>
</g>
<g>
	<polygon fill="none" stroke="#0081CD" stroke-miterlimit="10" points="1823.293,340.105 896.148,318.002 595.711,641.49 
		1522.86,663.593 	"/>
	<path fill="#FEC200" d="M1578.957,460.76c-25.445,27.395-110.384,48.07-189.722,46.18s-123.023-25.633-97.583-53.029
		c25.445-27.395,110.386-48.072,189.722-46.181C1560.711,409.62,1604.401,433.363,1578.957,460.76z"/>
	<path fill="#FEC200" d="M1204.333,451.822c-25.445,27.395-110.385,48.07-189.723,46.178
		c-79.338-1.891-123.025-25.633-97.582-53.028c25.441-27.396,110.384-48.072,189.718-46.18
		C1186.088,400.683,1229.776,424.425,1204.333,451.822z"/>
	<path fill="#FEC200" d="M1287.618,568.314c-25.443,27.398-110.383,48.074-189.721,46.182
		c-79.338-1.892-123.027-25.633-97.584-53.029s110.386-48.07,189.722-46.18C1269.372,517.18,1313.061,540.922,1287.618,568.314z"/>
	<path fill="none" stroke="#231F20" stroke-width="2" stroke-miterlimit="10" d="M1231.909,470.198
		c100.014-24.343,222.787-21.415,274.228,6.54c51.438,27.951,12.063,70.346-87.944,94.691
		c-100.012,24.344-222.785,21.416-274.228-6.537C1092.526,536.937,1131.901,494.542,1231.909,470.198z"/>
	<path fill="none" stroke="#231F20" stroke-width="2" stroke-miterlimit="10" d="M957.688,463.66
		c100.011-24.344,222.784-21.416,274.221,6.538c51.441,27.953,12.068,70.351-87.943,94.694
		c-100.008,24.342-222.784,21.416-274.222-6.538C818.303,530.398,857.676,488.004,957.688,463.66z"/>
	<path fill="none" stroke="#231F20" stroke-width="2" stroke-miterlimit="10" d="M1153.847,499.019
		c-94.556-12.038-121.841-50.216-60.95-85.274c60.893-35.059,186.903-53.722,281.459-41.684
		c94.549,12.037,121.842,50.215,60.949,85.274C1374.415,492.393,1248.401,511.058,1153.847,499.019z"/>
	<path fill="none" stroke="#231F20" stroke-width="1.6" stroke-miterlimit="10" d="M1229.418,566.93
		c-15.137,16.295-65.664,28.596-112.857,27.472c-47.195-1.125-73.184-15.249-58.05-31.546
		c15.138-16.299,65.665-28.598,112.858-27.473C1218.567,536.51,1244.553,550.633,1229.418,566.93z"/>
	<path fill="none" stroke="#231F20" stroke-width="1.6" stroke-miterlimit="10" d="M1520.756,459.373
		c-15.131,16.295-65.66,28.594-112.859,27.469c-47.193-1.125-73.183-15.248-58.043-31.546c15.133-16.296,65.66-28.595,112.855-27.47
		C1509.905,428.953,1535.894,443.074,1520.756,459.373z"/>
	<path fill="none" stroke="#231F20" stroke-width="1.6" stroke-miterlimit="10" d="M1146.133,450.434
		c-15.137,16.297-65.666,28.597-112.859,27.471c-47.195-1.125-73.184-15.249-58.048-31.545
		c15.136-16.298,65.665-28.596,112.859-27.471S1161.268,434.139,1146.133,450.434z"/>
</g>
<path fill="none" stroke="#BC1E47" stroke-width="1.6" stroke-miterlimit="10" d="M1219.957,27.69
	c0,0,215.349,109.929,215.349,198.86s0,230.784,0,230.784"/>
<path fill="none" stroke="#BC1E47" stroke-width="1.6" stroke-miterlimit="10" d="M1154.765,495.12"/>
<path fill="none" stroke="#BC1E47" stroke-width="1.6" stroke-miterlimit="10" d="M1231.909,470.198
	c0-155.854-11.952-442.508-11.952-442.508s-66.109,329.572-66.109,471.328"/>
<path fill="none" stroke="#BC1E47" stroke-width="1.6" stroke-miterlimit="10" d="M1254.249,501.421
	c0-189.952-34.292-473.73-34.292-473.73"/>
<path fill="none" stroke="#BC1E47" stroke-width="1.6" stroke-miterlimit="10" d="M972.302,460.33
	c0-109.334,89.326-258.58,89.326-258.58"/>
<path fill="none" stroke="#BC1E47" stroke-width="1.6" stroke-miterlimit="10" d="M1147.816,448.396
	c0-137.025-84.118-246.646-84.118-246.646s21.043,118.516,21.043,217.058"/>
<path fill="none" stroke="#BC1E47" stroke-width="1.6" stroke-miterlimit="10" d="M1466.186,427.754
	c0-100.554-30.881-201.204-30.881-201.204s-84.367,124.649-84.367,227.577"/>
<path fill="none" stroke="#BC1E47" stroke-width="1.6" stroke-miterlimit="10" d="M1371.304,482.516
	c0-144.116,64.001-255.965,64.001-255.965s62.898,116.116,62.898,246.319"/>
<path fill="none" stroke="#BC1E47" stroke-width="1.6" stroke-miterlimit="10" d="M1201.562,582.381
	c0-142.648-57.597-279.616-57.597-279.616s70.67,117.769,70.67,237.343"/>
<circle fill="#0081CD" stroke="#231F20" stroke-miterlimit="10" cx="973.956" cy="459.982" r="13.5"/>
<circle fill="#0081CD" stroke="#231F20" stroke-miterlimit="10" cx="1084.741" cy="418.809" r="13.5"/>
<circle fill="#0081CD" stroke="#231F20" stroke-miterlimit="10" cx="1147.816" cy="448.396" r="13.5"/>
<circle fill="#0081CD" stroke="#231F20" stroke-miterlimit="10" cx="1212.796" cy="541.037" r="13.5"/>
<circle fill="#0081CD" stroke="#231F20" stroke-miterlimit="10" cx="1201.562" cy="582.381" r="13.5"/>
<circle fill="#0081CD" stroke="#231F20" stroke-miterlimit="10" cx="1153.847" cy="499.019" r="13.5"/>
<circle fill="#0081CD" stroke="#231F20" stroke-miterlimit="10" cx="1231.909" cy="470.198" r="13.5"/>
<circle fill="#0081CD" stroke="#231F20" stroke-miterlimit="10" cx="1254.249" cy="501.421" r="13.5"/>
<circle fill="#0081CD" stroke="#231F20" stroke-miterlimit="10" cx="1350.938" cy="454.127" r="13.5"/>
<circle fill="#0081CD" stroke="#231F20" stroke-miterlimit="10" cx="1371.304" cy="482.516" r="13.5"/>
<circle fill="#0081CD" stroke="#231F20" stroke-miterlimit="10" cx="1434.753" cy="457.254" r="13.5"/>
<circle fill="#0081CD" stroke="#231F20" stroke-miterlimit="10" cx="1466.187" cy="427.754" r="13.5"/>
<circle fill="#0081CD" stroke="#231F20" stroke-miterlimit="10" cx="1498.203" cy="472.869" r="13.5"/>
<path fill="none" stroke="#BC1E47" stroke-width="1.6" stroke-miterlimit="10" d="M1143.965,564.893c0,0,0-157.782,0-262.128
	s73.33-275.074,73.33-275.074s-155.668,100.861-155.668,174.06c0,73.199,0,245.408,0,245.408"/>
<circle fill="#0081CD" stroke="#231F20" stroke-miterlimit="10" cx="1143.966" cy="564.893" r="13.5"/>
<path fill="none" stroke="#BC1E47" stroke-width="1.6" stroke-miterlimit="10" d="M1076.219,475.48
	c0-122.681-12.521-273.73-12.521-273.73"/>
<circle fill="#0081CD" stroke="#231F20" stroke-miterlimit="10" cx="1076.219" cy="475.48" r="13.5"/>
<path fill="none" stroke="#BC1E47" stroke-width="1.6" stroke-miterlimit="10" d="M1121.468,538.863
	c0-119.931,22.497-236.099,22.497-236.099s-86.883,158.835-86.883,276.175"/>
<circle fill="#0081CD" stroke="#231F20" stroke-miterlimit="10" cx="1057.083" cy="578.939" r="13.5"/>
<circle fill="#0081CD" stroke="#231F20" stroke-miterlimit="10" cx="1061.626" cy="448.336" r="13.5"/>
<circle fill="#0081CD" stroke="#231F20" stroke-miterlimit="10" cx="1121.468" cy="538.863" r="13.5"/>
<circle fill="#BC1E47" stroke="#231F20" stroke-miterlimit="10" cx="1061.626" cy="201.75" r="13.5"/>
<circle fill="#BC1E47" stroke="#231F20" stroke-miterlimit="10" cx="1143.965" cy="302.765" r="13.5"/>
<circle fill="#BC1E47" stroke="#231F20" stroke-miterlimit="10" cx="1435.305" cy="226.55" r="13.5"/>
<circle fill="#BC1E47" stroke="#231F20" stroke-miterlimit="10" cx="1217.296" cy="27.69" r="13.5"/>
</svg>
