<?xml version="1.0" encoding="utf-8"?>
<!-- Generator: Adobe Illustrator 15.1.0, SVG Export Plug-In . SVG Version: 6.00 Build 0)  -->
<!DOCTYPE svg PUBLIC "-//W3C//DTD SVG 1.1//EN" "http://www.w3.org/Graphics/SVG/1.1/DTD/svg11.dtd">
<svg version="1.1" id="Layer_1" xmlns="http://www.w3.org/2000/svg" xmlns:xlink="http://www.w3.org/1999/xlink" x="0px" y="0px"
	 width="541.667px" height="662px" viewBox="0 0 541.667 662" enable-background="new 0 0 541.667 662" xml:space="preserve">
<circle opacity="0.5" fill="#FEC200" stroke="#000000" cx="340.782" cy="479.979" r="176.873"/>
<circle opacity="0.5" fill="#FEC200" stroke="#000000" cx="367.075" cy="104.836" r="100"/>
<circle opacity="0.5" fill="#FEC200" stroke="#000000" cx="126.097" cy="227.929" r="121.409"/>
<circle opacity="0.5" fill="#FEC200" stroke="#000000" cx="234.49" cy="449.25" r="53.544"/>
<circle opacity="0.5" fill="#FEC200" stroke="#000000" cx="399.812" cy="437.333" r="91.994"/>
<circle opacity="0.5" fill="#FEC200" stroke="#000000" cx="477.795" cy="228.693" r="53.695"/>
<circle opacity="0.5" fill="#FEC200" stroke="#000000" cx="395.219" cy="124.057" r="56.97"/>
<polygon fill="none" stroke="#000000" stroke-width="2" points="267.547,462.057 203.725,437.333 153.145,391.222 122.637,329.954 
	116.321,261.802 135.052,195.971 176.298,141.352 234.49,105.321 301.769,92.745 369.046,105.321 427.239,141.352 468.485,195.971 
	487.215,261.802 480.901,329.954 450.393,391.222 399.812,437.333 335.991,462.057 "/>
<polyline fill="none" stroke="#000000" stroke-width="2" points="301.769,92.745 327.667,171.167 380.667,147.352 369.046,105.321 
	"/>
<line fill="none" stroke="#000000" stroke-width="2" x1="427.239" y1="141.352" x2="380.667" y2="147.352"/>
<polyline fill="none" stroke="#000000" stroke-width="2" points="327.667,171.167 295.769,249.167 209.725,252.167 176.298,141.352 
	"/>
<polyline fill="none" stroke="#000000" stroke-width="2" points="135.052,195.971 209.725,252.167 116.321,261.802 "/>
<line fill="none" stroke="#000000" stroke-width="2" x1="122.637" y1="329.954" x2="209.725" y2="252.167"/>
<polyline fill="none" stroke="#000000" stroke-width="2" points="234.49,105.321 295.769,249.167 153.145,391.222 "/>
<polyline fill="none" stroke="#000000" stroke-width="2" points="468.485,195.971 450.393,236.167 487.215,261.802 "/>
<polyline fill="none" stroke="#000000" stroke-width="2" points="450.393,236.167 295.769,249.167 305.667,340.167 363.046,382.167 
	335.991,462.057 "/>
<polyline fill="none" stroke="#000000" stroke-width="2" points="399.812,437.333 363.046,382.167 450.393,391.222 "/>
<polyline fill="none" stroke="#000000" stroke-width="2" points="305.667,340.167 247.506,421.167 203.725,437.333 "/>
<line fill="none" stroke="#000000" stroke-width="2" x1="247.506" y1="421.167" x2="267.547" y2="462.057"/>
<line fill="none" stroke="#000000" stroke-width="2" x1="295.769" y1="249.167" x2="480.901" y2="329.954"/>
<circle fill="#0081CD" stroke="#000000" cx="301.769" cy="92.745" r="6"/>
<circle fill="#0081CD" stroke="#000000" cx="369.046" cy="105.321" r="6"/>
<circle fill="#0081CD" stroke="#000000" cx="427.239" cy="141.352" r="6"/>
<circle fill="#0081CD" stroke="#000000" cx="468.485" cy="195.971" r="6"/>
<circle fill="#0081CD" stroke="#000000" cx="487.215" cy="261.802" r="6"/>
<circle fill="#0081CD" stroke="#000000" cx="480.901" cy="329.954" r="6"/>
<circle fill="#0081CD" stroke="#000000" cx="450.393" cy="391.222" r="6"/>
<circle fill="#0081CD" stroke="#000000" cx="399.812" cy="437.333" r="6"/>
<circle fill="#0081CD" stroke="#000000" cx="335.991" cy="462.057" r="6"/>
<circle fill="#0081CD" stroke="#000000" cx="267.547" cy="462.057" r="6"/>
<circle fill="#0081CD" stroke="#000000" cx="203.725" cy="437.333" r="6"/>
<circle fill="#0081CD" stroke="#000000" cx="153.145" cy="391.222" r="6"/>
<circle fill="#0081CD" stroke="#000000" cx="122.637" cy="329.954" r="6"/>
<circle fill="#0081CD" stroke="#000000" cx="116.321" cy="261.802" r="6"/>
<circle fill="#0081CD" stroke="#000000" cx="135.052" cy="195.971" r="6"/>
<circle fill="#0081CD" stroke="#000000" cx="176.298" cy="141.352" r="6"/>
<circle fill="#0081CD" stroke="#000000" cx="234.49" cy="105.321" r="6"/>
<circle fill="#BC1E47" stroke="#000000" cx="380.667" cy="147.352" r="6"/>
<circle fill="#BC1E47" stroke="#000000" cx="327.667" cy="171.167" r="6"/>
<circle fill="#BC1E47" stroke="#000000" cx="209.725" cy="252.167" r="6"/>
<circle fill="#BC1E47" stroke="#000000" cx="450.393" cy="236.167" r="6"/>
<circle fill="#BC1E47" stroke="#000000" cx="295.769" cy="249.167" r="6"/>
<circle fill="#BC1E47" stroke="#000000" cx="305.667" cy="340.167" r="6"/>
<circle fill="#BC1E47" stroke="#000000" cx="247.506" cy="421.167" r="6"/>
<circle fill="#BC1E47" stroke="#000000" cx="363.046" cy="382.167" r="6"/>
</svg>
