<?xml version="1.0" encoding="utf-8"?>
<!-- Generator: Adobe Illustrator 15.1.0, SVG Export Plug-In . SVG Version: 6.00 Build 0)  -->
<!DOCTYPE svg PUBLIC "-//W3C//DTD SVG 1.1//EN" "http://www.w3.org/Graphics/SVG/1.1/DTD/svg11.dtd">
<svg version="1.1" id="Layer_1" xmlns="http://www.w3.org/2000/svg" xmlns:xlink="http://www.w3.org/1999/xlink" x="0px" y="0px"
	 width="865.696px" height="161.998px" viewBox="216.597 42.334 865.696 161.998"
	 enable-background="new 216.597 42.334 865.696 161.998" xml:space="preserve">
<polyline fill="none" stroke="#000000" points="360.596,198.332 366.596,180.332 360.596,156.333 "/>
<line fill="none" stroke="#000000" x1="366.596" y1="180.332" x2="390.595" y2="180.332"/>
<polyline fill="none" stroke="#000000" points="534.594,174.334 540.594,156.334 534.594,132.334 "/>
<line fill="none" stroke="#000000" x1="540.594" y1="156.334" x2="564.594" y2="156.334"/>
<polyline fill="none" stroke="#000000" points="806.296,198.332 812.296,180.332 806.296,156.333 "/>
<line fill="none" stroke="#000000" x1="812.296" y1="180.332" x2="836.296" y2="180.332"/>
<polyline fill="none" stroke="#000000" points="1052.293,198.332 1058.293,180.332 1052.293,156.333 "/>
<line fill="none" stroke="#000000" x1="1058.293" y1="180.332" x2="1082.293" y2="180.332"/>
<polyline fill="none" stroke="#000000" points="716.296,54.334 734.296,66.334 758.296,60.334 "/>
<line fill="none" stroke="#000000" x1="734.296" y1="66.334" x2="740.296" y2="42.334"/>
<polyline fill="none" stroke="#000000" points="962.294,54.334 980.294,66.334 1004.294,60.334 "/>
<line fill="none" stroke="#000000" x1="980.294" y1="66.334" x2="986.294" y2="42.334"/>
<polyline fill="none" stroke="#000000" points="282.597,54.334 300.596,66.334 324.596,60.334 "/>
<line fill="none" stroke="#000000" x1="300.596" y1="66.334" x2="306.596" y2="42.334"/>
<polyline fill="none" stroke="#000000" points="480.594,72.333 498.594,84.333 522.594,78.333 "/>
<line fill="none" stroke="#000000" x1="498.594" y1="84.333" x2="504.594" y2="60.334"/>
<polyline fill="none" stroke="#000000" points="216.597,174.332 234.597,180.332 228.597,204.332 "/>
<polyline fill="none" stroke="#000000" points="438.595,150.333 456.595,156.333 450.595,180.332 "/>
<polyline fill="none" stroke="#000000" points="638.297,174.332 656.298,180.332 650.298,204.332 "/>
<polyline fill="none" stroke="#000000" points="884.295,174.332 902.295,180.332 896.295,204.332 "/>
<line fill="none" stroke="#000000" stroke-width="2" x1="950.294" y1="132.333" x2="1010.294" y2="132.333"/>
<polyline fill="none" stroke="#000000" stroke-width="2" points="902.295,180.332 950.294,132.333 980.294,66.334 1010.294,132.333 
	1058.293,180.332 "/>
<line fill="none" stroke="#000000" stroke-width="2" x1="734.296" y1="132.333" x2="734.296" y2="66.334"/>
<polyline fill="none" stroke="#000000" stroke-width="2" points="698.297,132.333 734.296,66.334 770.296,132.333 "/>
<polyline fill="none" stroke="#000000" stroke-width="2" points="656.298,180.332 698.297,132.333 734.296,132.333 770.296,132.333 
	812.296,180.332 "/>
<line fill="none" stroke="#000000" stroke-width="2" x1="498.594" y1="132.333" x2="498.594" y2="84.333"/>
<polyline fill="none" stroke="#000000" stroke-width="2" points="456.595,156.332 498.594,132.332 540.594,156.332 "/>
<polyline fill="none" stroke="#000000" stroke-width="2" points="234.597,180.332 276.597,156.333 300.596,114.333 300.596,66.334 
	"/>
<polyline fill="none" stroke="#000000" stroke-width="2" points="276.597,156.333 324.596,156.333 300.596,114.333 "/>
<line fill="none" stroke="#000000" stroke-width="2" x1="324.596" y1="156.333" x2="366.596" y2="180.332"/>
<path fill="#FEC200" d="M282.597,156.333c0,3.313-2.686,6-6,6c-3.314,0-6-2.687-6-6s2.686-6,6-6
	C279.911,150.333,282.597,153.02,282.597,156.333"/>
<circle fill="none" stroke="#000000" cx="276.597" cy="156.333" r="6"/>
<path fill="#FEC200" d="M330.596,156.333c0,3.313-2.686,6-6,6c-3.314,0-6-2.687-6-6s2.686-6,6-6
	C327.91,150.333,330.596,153.02,330.596,156.333"/>
<circle fill="none" stroke="#000000" cx="324.596" cy="156.333" r="6"/>
<path fill="#FEC200" d="M504.594,132.333c0,3.313-2.686,6-6,6s-6-2.687-6-6s2.686-6,6-6S504.594,129.02,504.594,132.333"/>
<circle fill="none" stroke="#000000" cx="498.594" cy="132.333" r="6"/>
<path fill="#FEC200" d="M306.596,114.333c0,3.314-2.686,6-6,6s-6-2.686-6-6c0-3.314,2.686-6,6-6S306.596,111.019,306.596,114.333"/>
<circle fill="none" stroke="#000000" cx="300.596" cy="114.333" r="6"/>
<line fill="none" stroke="#0081CD" stroke-width="10" x1="366.596" y1="126.333" x2="426.595" y2="126.333"/>
<path fill="#0081CD" d="M446.712,126.333c-9.466,3.513-21.21,9.505-28.489,15.849l5.732-15.849l-5.732-15.849
	C425.501,116.828,437.246,122.822,446.712,126.333"/>
<line fill="none" stroke="#0081CD" stroke-width="10" x1="818.296" y1="126.333" x2="878.295" y2="126.333"/>
<path fill="#0081CD" d="M898.412,126.333c-9.466,3.513-21.211,9.505-28.489,15.849l5.731-15.849l-5.731-15.848
	C877.201,116.828,888.946,122.822,898.412,126.333"/>
<path fill="#FEC200" d="M704.297,132.333c0,3.313-2.686,6-6,6c-3.313,0-6-2.687-6-6s2.687-6,6-6
	C701.611,126.333,704.297,129.02,704.297,132.333"/>
<circle fill="none" stroke="#000000" cx="698.297" cy="132.333" r="6"/>
<path fill="#FEC200" d="M740.296,132.333c0,3.313-2.686,6-6,6c-3.313,0-6-2.687-6-6s2.687-6,6-6
	C737.61,126.333,740.296,129.02,740.296,132.333"/>
<circle fill="none" stroke="#000000" cx="734.296" cy="132.333" r="6"/>
<path fill="#FEC200" d="M776.296,132.333c0,3.313-2.686,6-6,6c-3.313,0-6-2.687-6-6s2.687-6,6-6
	C773.61,126.333,776.296,129.02,776.296,132.333"/>
<circle fill="none" stroke="#000000" cx="770.296" cy="132.333" r="6"/>
<path fill="#BC1E47" d="M306.596,66.334c0,3.314-2.686,6-6,6s-6-2.686-6-6c0-3.314,2.686-6,6-6S306.596,63.02,306.596,66.334"/>
<circle fill="none" stroke="#000000" cx="300.596" cy="66.334" r="6"/>
<path fill="#BC1E47" d="M240.597,180.332c0,3.314-2.686,6-6,6c-3.314,0-6-2.686-6-6c0-3.312,2.686-6,6-6
	C237.911,174.332,240.597,177.02,240.597,180.332"/>
<circle fill="none" stroke="#000000" cx="234.597" cy="180.332" r="6"/>
<path fill="#BC1E47" d="M372.596,180.332c0,3.314-2.686,6-6,6s-6-2.686-6-6c0-3.312,2.686-6,6-6S372.596,177.02,372.596,180.332"/>
<circle fill="none" stroke="#000000" cx="366.596" cy="180.332" r="6"/>
<path fill="#BC1E47" d="M462.595,156.332c0,3.314-2.686,6-6,6s-6-2.686-6-6s2.686-6,6-6S462.595,153.018,462.595,156.332"/>
<circle fill="none" stroke="#000000" cx="456.595" cy="156.332" r="6"/>
<path fill="#BC1E47" d="M504.594,84.333c0,3.314-2.686,6-6,6s-6-2.686-6-6s2.686-6,6-6S504.594,81.019,504.594,84.333"/>
<circle fill="none" stroke="#000000" cx="498.594" cy="84.333" r="6"/>
<path fill="#BC1E47" d="M546.594,156.332c0,3.314-2.686,6-6,6c-3.313,0-6-2.686-6-6s2.687-6,6-6
	C543.908,150.332,546.594,153.018,546.594,156.332"/>
<circle fill="none" stroke="#000000" cx="540.594" cy="156.332" r="6"/>
<path fill="#BC1E47" d="M662.297,180.332c0,3.314-2.686,6-5.999,6c-3.314,0-6-2.686-6-6c0-3.312,2.686-6,6-6
	C659.611,174.332,662.297,177.02,662.297,180.332"/>
<circle fill="none" stroke="#000000" cx="656.298" cy="180.332" r="6"/>
<path fill="#BC1E47" d="M740.296,66.334c0,3.314-2.686,6-6,6c-3.313,0-6-2.686-6-6c0-3.314,2.687-6,6-6
	C737.61,60.334,740.296,63.02,740.296,66.334"/>
<circle fill="none" stroke="#000000" cx="734.296" cy="66.334" r="6"/>
<path fill="#BC1E47" d="M818.296,180.332c0,3.314-2.686,6-6,6s-6-2.686-6-6c0-3.312,2.686-6,6-6S818.296,177.02,818.296,180.332"/>
<circle fill="none" stroke="#000000" cx="812.296" cy="180.332" r="6"/>
<path fill="#FEC200" d="M956.294,132.333c0,3.313-2.686,6-6,6c-3.313,0-6-2.687-6-6s2.687-6,6-6
	C953.608,126.333,956.294,129.02,956.294,132.333"/>
<circle fill="none" stroke="#000000" cx="950.294" cy="132.333" r="6"/>
<path fill="#FEC200" d="M1016.294,132.333c0,3.313-2.686,6-6,6s-6-2.687-6-6s2.686-6,6-6S1016.294,129.02,1016.294,132.333"/>
<circle fill="none" stroke="#000000" cx="1010.294" cy="132.333" r="6"/>
<path fill="#BC1E47" d="M908.294,180.332c0,3.314-2.686,6-5.999,6s-6-2.686-6-6c0-3.312,2.687-6,6-6S908.294,177.02,908.294,180.332
	"/>
<circle fill="none" stroke="#000000" cx="902.295" cy="180.332" r="6"/>
<path fill="#BC1E47" d="M986.294,66.334c0,3.314-2.686,6-6,6s-6-2.686-6-6c0-3.314,2.686-6,6-6S986.294,63.02,986.294,66.334"/>
<circle fill="none" stroke="#000000" cx="980.294" cy="66.334" r="6"/>
<path fill="#BC1E47" d="M1064.293,180.332c0,3.314-2.686,6-6,6c-3.313,0-6-2.686-6-6c0-3.312,2.687-6,6-6
	C1061.607,174.332,1064.293,177.02,1064.293,180.332"/>
<circle fill="none" stroke="#000000" cx="1058.293" cy="180.332" r="6"/>
</svg>
