<?xml version="1.0" encoding="utf-8"?>
<!DOCTYPE svg PUBLIC "-//W3C//DTD SVG 1.1//EN" "http://www.w3.org/Graphics/SVG/1.1/DTD/svg11.dtd">
<svg  version="1.1" id="Layer_1" xmlns="http://www.w3.org/2000/svg" xmlns:xlink="http://www.w3.org/1999/xlink" width="792" height="414" viewBox="0 0 792 414"
	 overflow="visible" enable-background="new 0 0 792 414" xml:space="preserve">
<text transform="matrix(1 0 0 1 191.9839 213)" font-family="Helvetica'" font-size="18">000</text>
<text transform="matrix(1 0 0 1 245.9839 213)" font-family="Helvetica'" font-size="18">001</text>
<text transform="matrix(1 0 0 1 299.9839 213)" font-family="Helvetica'" font-size="18">010</text>
<text transform="matrix(1 0 0 1 353.9839 213)" font-family="Helvetica'" font-size="18">011</text>
<text transform="matrix(1 0 0 1 407.9844 213)" font-family="Helvetica'" font-size="18">100</text>
<text transform="matrix(1 0 0 1 461.9844 213)" font-family="Helvetica'" font-size="18">101</text>
<text transform="matrix(1 0 0 1 515.9844 213)" font-family="Helvetica'" font-size="18">110</text>
<text transform="matrix(1 0 0 1 569.9844 213)" font-family="Helvetica'" font-size="18">111</text>
<g>
	<path fill="none" stroke="#000000" d="M198,225c0,36-63,54-63-18c0-72,63-54.001,63-18"/>
	<path d="M198,195.035c-1.054-2.84-2.852-6.364-4.755-8.547l4.755,1.72l4.755-1.72C200.852,188.671,199.053,192.195,198,195.035z"/>
</g>
<g>
	<path fill="none" stroke="#000000" d="M216,225c0,54-99,90-99-18c0-108,135-81.001,135-18"/>
	<path d="M252,195.035c-1.054-2.84-2.852-6.364-4.755-8.547l4.755,1.72l4.755-1.72C254.852,188.671,253.053,192.195,252,195.035z"/>
</g>
<g>
	<path fill="none" stroke="#000000" d="M594,225c0,36,63,54,63-18c0-72-63-54.001-63-18"/>
	<path d="M594,195.035c1.054-2.84,2.852-6.364,4.755-8.547l-4.755,1.72l-4.755-1.72C591.148,188.671,592.947,192.195,594,195.035z"
		/>
</g>
<g>
	<path fill="none" stroke="#000000" d="M576,225c0,54,99,90,99-18c0-108-135-81.001-135-18"/>
	<path d="M540,195.035c1.054-2.84,2.852-6.364,4.755-8.547l-4.755,1.72l-4.755-1.72C537.148,188.671,538.947,192.195,540,195.035z"
		/>
</g>
<g>
	<path fill="none" stroke="#000000" d="M252,225c0,72-153,126-153-18c0-144,207-90.001,207-18"/>
	<path d="M306,195.035c-1.054-2.84-2.852-6.364-4.755-8.547l4.755,1.72l4.755-1.72C308.852,188.671,307.053,192.195,306,195.035z"/>
</g>
<g>
	<path fill="none" stroke="#000000" d="M270,225c0,90-189,162-189-18c0-180,279-108.001,279-18"/>
	<path d="M360,195.035c-1.054-2.84-2.852-6.364-4.755-8.547l4.755,1.72l4.755-1.72C362.852,188.671,361.053,192.195,360,195.035z"/>
</g>
<g>
	<path fill="none" stroke="#000000" d="M540,225c0,72,153,126,153-18c0-144-207-90.001-207-18"/>
	<path d="M486,195.035c1.054-2.84,2.852-6.364,4.755-8.547l-4.755,1.72l-4.755-1.72C483.148,188.671,484.947,192.195,486,195.035z"
		/>
</g>
<g>
	<path fill="none" stroke="#000000" d="M522,225c0,90,189,162,189-18c0-180-279-108.001-279-18"/>
	<path d="M432,195.035c1.054-2.84,2.852-6.364,4.755-8.547l-4.755,1.72l-4.755-1.72C429.148,188.671,430.947,192.195,432,195.035z"
		/>
</g>
<g>
	<path fill="none" stroke="#000000" d="M306,225c0,108-243,198-243-18C63-9,414,80.999,414,189"/>
	<path d="M414,195.035c-1.054-2.84-2.852-6.364-4.755-8.547l4.755,1.72l4.755-1.72C416.852,188.671,415.053,192.195,414,195.035z"/>
</g>
<g>
	<path fill="none" stroke="#000000" d="M324,225c0,126-279,234-279-18c0-252,423-144.001,423-18"/>
	<path d="M468,195.035c-1.054-2.84-2.852-6.364-4.755-8.547l4.755,1.72l4.755-1.72C470.852,188.671,469.053,192.195,468,195.035z"/>
</g>
<g>
	<path fill="none" stroke="#000000" d="M360,225c0,144-333,270-333-18c0-288,495-162.001,495-18"/>
	<path d="M522,195.035c-1.054-2.84-2.852-6.364-4.755-8.547l4.755,1.72l4.755-1.72C524.852,188.671,523.053,192.195,522,195.035z"/>
</g>
<g>
	<path fill="none" stroke="#000000" d="M378,225C378,387,9,531,9,207c0-324,567-180.001,567-18"/>
	<path d="M576,195.035c-1.054-2.84-2.852-6.364-4.755-8.547l4.755,1.72l4.755-1.72C578.852,188.671,577.053,192.195,576,195.035z"/>
</g>
<g>
	<path fill="none" stroke="#000000" d="M486,225c0,108,243,198,243-18c0-216-351-126.001-351-18"/>
	<path d="M378,195.035c1.054-2.84,2.852-6.364,4.755-8.547l-4.755,1.72l-4.755-1.72C375.148,188.671,376.947,192.195,378,195.035z"
		/>
</g>
<g>
	<path fill="none" stroke="#000000" d="M468,225c0,126,279,234,279-18c0-252-423-144.001-423-18"/>
	<path d="M324,195.035c1.054-2.84,2.852-6.364,4.755-8.547l-4.755,1.72l-4.755-1.72C321.148,188.671,322.947,192.195,324,195.035z"
		/>
</g>
<g>
	<path fill="none" stroke="#000000" d="M432,225c0,144,333,270,333-18c0-288-495-162.001-495-18"/>
	<path d="M270,195.035c1.054-2.84,2.852-6.364,4.755-8.547l-4.755,1.72l-4.755-1.72C267.148,188.671,268.947,192.195,270,195.035z"
		/>
</g>
<g>
	<path fill="none" stroke="#000000" d="M414,225c0,162,369,306,369-18c0-324-567-180.001-567-18"/>
	<path d="M216,195.035c1.054-2.84,2.852-6.364,4.755-8.547l-4.755,1.72l-4.755-1.72C213.148,188.671,214.947,192.195,216,195.035z"
		/>
</g>
<rect fill="none" width="792" height="414"/>
</svg>
