<?xml version="1.0" encoding="utf-8"?>
<!-- Generator: Adobe Illustrator 15.1.0, SVG Export Plug-In . SVG Version: 6.00 Build 0)  -->
<!DOCTYPE svg PUBLIC "-//W3C//DTD SVG 1.1//EN" "http://www.w3.org/Graphics/SVG/1.1/DTD/svg11.dtd">
<svg version="1.1" id="Layer_1" xmlns="http://www.w3.org/2000/svg" xmlns:xlink="http://www.w3.org/1999/xlink" x="0px" y="0px"
	 width="648px" height="468px" viewBox="0 0 648 468" enable-background="new 0 0 648 468" xml:space="preserve">
<line fill="none" stroke="#000000" stroke-miterlimit="10" x1="522" y1="450" x2="558" y2="414"/>
<circle fill="#FEC200" stroke="#000000" stroke-miterlimit="10" cx="522" cy="450" r="12"/>
<text transform="matrix(1 0 0 1 517.5 456)" font-family="'Times-Roman'" font-size="18">7</text>
<line fill="none" stroke="#000000" x1="54" y1="198" x2="90" y2="234"/>
<line fill="none" stroke="#000000" stroke-miterlimit="10" x1="558" y1="90" x2="594" y2="54"/>
<line fill="none" stroke="#000000" x1="414" y1="54" x2="450" y2="90"/>
<line fill="none" stroke="#000000" stroke-miterlimit="10" x1="198" y1="54" x2="234" y2="18"/>
<line fill="none" stroke="#000000" x1="90" y1="18" x2="126" y2="54"/>
<circle fill="#FEC200" stroke="#000000" stroke-miterlimit="10" cx="18" cy="18" r="12"/>
<text transform="matrix(1 0 0 1 13.5005 24.0005)" font-family="'Times-Roman'" font-size="18">1</text>
<circle fill="#FEC200" stroke="#000000" stroke-miterlimit="10" cx="558" cy="90" r="12"/>
<text transform="matrix(1 0 0 1 553.5 96)" font-family="'Times-Roman'" font-size="18">3</text>
<circle fill="#FEC200" stroke="#000000" stroke-miterlimit="10" cx="450" cy="90" r="12"/>
<text transform="matrix(1 0 0 1 445.5 96)" font-family="'Times-Roman'" font-size="18">4</text>
<circle fill="#FEC200" stroke="#000000" stroke-miterlimit="10" cx="198" cy="54" r="12"/>
<text transform="matrix(1 0 0 1 193.5 60)" font-family="'Times-Roman'" font-size="18">1</text>
<circle fill="#FEC200" stroke="#000000" stroke-miterlimit="10" cx="90" cy="18" r="12"/>
<text transform="matrix(1 0 0 1 85.5 24)" font-family="'Times-Roman'" font-size="18">1</text>
<circle fill="#FEC200" stroke="#000000" stroke-miterlimit="10" cx="126" cy="54" r="12"/>
<text transform="matrix(1 0 0 1 121.5 60)" font-family="'Times-Roman'" font-size="18">2</text>
<line fill="none" stroke="#000000" x1="234" y1="18" x2="270" y2="54"/>
<circle fill="#FEC200" stroke="#000000" stroke-miterlimit="10" cx="234" cy="18" r="12"/>
<text transform="matrix(1 0 0 1 229.4995 23.9995)" font-family="'Times-Roman'" font-size="18">2</text>
<circle fill="#FEC200" stroke="#000000" stroke-miterlimit="10" cx="270" cy="54" r="12"/>
<text transform="matrix(1 0 0 1 265.4995 59.9995)" font-family="'Times-Roman'" font-size="18">3</text>
<line fill="none" stroke="#000000" stroke-miterlimit="10" x1="342" y1="54" x2="378" y2="18"/>
<circle fill="#FEC200" stroke="#000000" stroke-miterlimit="10" cx="342" cy="54" r="12"/>
<text transform="matrix(1 0 0 1 337.5 60)" font-family="'Times-Roman'" font-size="18">1</text>
<line fill="none" stroke="#000000" x1="378" y1="18" x2="414" y2="54"/>
<circle fill="#FEC200" stroke="#000000" stroke-miterlimit="10" cx="378" cy="18" r="12"/>
<text transform="matrix(1 0 0 1 373.5 23.9995)" font-family="'Times-Roman'" font-size="18">2</text>
<circle fill="#FEC200" stroke="#000000" stroke-miterlimit="10" cx="414" cy="54" r="12"/>
<text transform="matrix(1 0 0 1 409.5 59.9995)" font-family="'Times-Roman'" font-size="18">3</text>
<line fill="none" stroke="#000000" x1="594" y1="54" x2="630" y2="90"/>
<circle fill="#FEC200" stroke="#000000" stroke-miterlimit="10" cx="630" cy="90" r="12"/>
<text transform="matrix(1 0 0 1 625.5 95.9995)" font-family="'Times-Roman'" font-size="18">5</text>
<line fill="none" stroke="#000000" stroke-miterlimit="10" x1="522" y1="54" x2="558" y2="18"/>
<circle fill="#FEC200" stroke="#000000" stroke-miterlimit="10" cx="522" cy="54" r="12"/>
<text transform="matrix(1 0 0 1 517.5 59.9995)" font-family="'Times-Roman'" font-size="18">1</text>
<line fill="none" stroke="#000000" x1="558" y1="18" x2="594" y2="54"/>
<circle fill="#FEC200" stroke="#000000" stroke-miterlimit="10" cx="558" cy="17.999" r="12"/>
<text transform="matrix(1 0 0 1 553.499 23.999)" font-family="'Times-Roman'" font-size="18">2</text>
<circle fill="#FEC200" stroke="#000000" stroke-miterlimit="10" cx="594" cy="53.999" r="12"/>
<text transform="matrix(1 0 0 1 589.499 59.999)" font-family="'Times-Roman'" font-size="18">4</text>
<circle fill="#FEC200" stroke="#000000" stroke-miterlimit="10" cx="90" cy="234" r="12"/>
<text transform="matrix(1 0 0 1 85.5 239.9995)" font-family="'Times-Roman'" font-size="18">3</text>
<line fill="none" stroke="#000000" x1="234" y1="414" x2="270" y2="450"/>
<circle fill="#FEC200" stroke="#000000" stroke-miterlimit="10" cx="270" cy="450" r="12"/>
<text transform="matrix(1 0 0 1 265.5 456)" font-family="'Times-Roman'" font-size="18">8</text>
<line fill="none" stroke="#000000" x1="126" y1="197.999" x2="162" y2="233.999"/>
<circle fill="#FEC200" stroke="#000000" stroke-miterlimit="10" cx="162" cy="233.999" r="12"/>
<text transform="matrix(1 0 0 1 157.4995 239.999)" font-family="'Times-Roman'" font-size="18">6</text>
<line fill="none" stroke="#000000" stroke-miterlimit="10" x1="18" y1="234" x2="54" y2="198"/>
<circle fill="#FEC200" stroke="#000000" stroke-miterlimit="10" cx="18" cy="234" r="12"/>
<text transform="matrix(1 0 0 1 13.5 240)" font-family="'Times-Roman'" font-size="18">1</text>
<line fill="none" stroke="#000000" stroke-miterlimit="10" x1="54" y1="198" x2="90" y2="161.999"/>
<circle fill="#FEC200" stroke="#000000" stroke-miterlimit="10" cx="54" cy="197.999" r="12"/>
<text transform="matrix(1 0 0 1 49.4995 203.999)" font-family="'Times-Roman'" font-size="18">2</text>
<line fill="none" stroke="#000000" x1="90" y1="161.999" x2="126" y2="197.999"/>
<circle fill="#FEC200" stroke="#000000" stroke-miterlimit="10" cx="90" cy="161.999" r="12"/>
<text transform="matrix(1 0 0 1 85.499 167.9985)" font-family="'Times-Roman'" font-size="18">4</text>
<circle fill="#FEC200" stroke="#000000" stroke-miterlimit="10" cx="126" cy="197.999" r="12"/>
<text transform="matrix(1 0 0 1 121.499 203.9985)" font-family="'Times-Roman'" font-size="18">5</text>
<line fill="none" stroke="#000000" x1="270" y1="198" x2="306" y2="234"/>
<circle fill="#FEC200" stroke="#000000" stroke-miterlimit="10" cx="306" cy="234" r="12"/>
<text transform="matrix(1 0 0 1 301.5 239.9995)" font-family="'Times-Roman'" font-size="18">3</text>
<line fill="none" stroke="#000000" x1="414" y1="198" x2="450" y2="234"/>
<circle fill="#FEC200" stroke="#000000" stroke-miterlimit="10" cx="450" cy="234" r="12"/>
<text transform="matrix(1 0 0 1 445.5 240)" font-family="'Times-Roman'" font-size="18">7</text>
<line fill="none" stroke="#000000" stroke-miterlimit="10" x1="234" y1="234" x2="270" y2="198"/>
<circle fill="#FEC200" stroke="#000000" stroke-miterlimit="10" cx="234" cy="234" r="12"/>
<text transform="matrix(1 0 0 1 229.5 240)" font-family="'Times-Roman'" font-size="18">1</text>
<line fill="none" stroke="#000000" stroke-miterlimit="10" x1="378" y1="234" x2="414" y2="198"/>
<circle fill="#FEC200" stroke="#000000" stroke-miterlimit="10" cx="378" cy="234" r="12"/>
<text transform="matrix(1 0 0 1 373.5 240)" font-family="'Times-Roman'" font-size="18">5</text>
<line fill="none" stroke="#000000" stroke-miterlimit="10" x1="270" y1="198" x2="342" y2="162"/>
<circle fill="#FEC200" stroke="#000000" stroke-miterlimit="10" cx="270" cy="197.999" r="12"/>
<text transform="matrix(1 0 0 1 265.4995 203.999)" font-family="'Times-Roman'" font-size="18">2</text>
<line fill="none" stroke="#000000" x1="342" y1="162" x2="414" y2="198"/>
<circle fill="#FEC200" stroke="#000000" stroke-miterlimit="10" cx="342" cy="162" r="12"/>
<text transform="matrix(1 0 0 1 337.499 167.9995)" font-family="'Times-Roman'" font-size="18">4</text>
<circle fill="#FEC200" stroke="#000000" stroke-miterlimit="10" cx="414" cy="198" r="12"/>
<text transform="matrix(1 0 0 1 409.499 203.9995)" font-family="'Times-Roman'" font-size="18">6</text>
<line fill="none" stroke="#000000" x1="54" y1="378" x2="90" y2="414"/>
<circle fill="#FEC200" stroke="#000000" stroke-miterlimit="10" cx="90" cy="414" r="12"/>
<text transform="matrix(1 0 0 1 85.5 420)" font-family="'Times-Roman'" font-size="18">3</text>
<line fill="none" stroke="#000000" x1="198" y1="378" x2="234" y2="414"/>
<circle fill="#FEC200" stroke="#000000" stroke-miterlimit="10" cx="234" cy="414" r="12"/>
<text transform="matrix(1 0 0 1 229.4995 420)" font-family="'Times-Roman'" font-size="18">7</text>
<line fill="none" stroke="#000000" stroke-miterlimit="10" x1="18" y1="414" x2="54" y2="378"/>
<circle fill="#FEC200" stroke="#000000" stroke-miterlimit="10" cx="18" cy="414" r="12"/>
<text transform="matrix(1 0 0 1 13.5 420)" font-family="'Times-Roman'" font-size="18">1</text>
<line fill="none" stroke="#000000" stroke-miterlimit="10" x1="162" y1="414" x2="198" y2="378"/>
<circle fill="#FEC200" stroke="#000000" stroke-miterlimit="10" cx="162" cy="414" r="12"/>
<text transform="matrix(1 0 0 1 157.5 420)" font-family="'Times-Roman'" font-size="18">5</text>
<line fill="none" stroke="#000000" stroke-miterlimit="10" x1="54" y1="378" x2="126" y2="342"/>
<circle fill="#FEC200" stroke="#000000" stroke-miterlimit="10" cx="54" cy="377.999" r="12"/>
<text transform="matrix(1 0 0 1 49.4995 383.999)" font-family="'Times-Roman'" font-size="18">2</text>
<line fill="none" stroke="#000000" x1="126" y1="342" x2="198" y2="378"/>
<circle fill="#FEC200" stroke="#000000" stroke-miterlimit="10" cx="126" cy="342" r="12"/>
<text transform="matrix(1 0 0 1 121.499 348)" font-family="'Times-Roman'" font-size="18">4</text>
<circle fill="#FEC200" stroke="#000000" stroke-miterlimit="10" cx="198" cy="378" r="12"/>
<text transform="matrix(1 0 0 1 193.499 384)" font-family="'Times-Roman'" font-size="18">6</text>
<line fill="none" stroke="#000000" x1="558" y1="414" x2="594" y2="450"/>
<circle fill="#FEC200" stroke="#000000" stroke-miterlimit="10" cx="594" cy="450" r="12"/>
<text transform="matrix(1 0 0 1 589.5 456)" font-family="'Times-Roman'" font-size="18">9</text>
<line fill="none" stroke="#000000" x1="378" y1="378" x2="414" y2="414"/>
<circle fill="#FEC200" stroke="#000000" stroke-miterlimit="10" cx="414" cy="414" r="12"/>
<text transform="matrix(1 0 0 1 409.5 420)" font-family="'Times-Roman'" font-size="18">3</text>
<line fill="none" stroke="#000000" x1="522" y1="378" x2="558" y2="414"/>
<circle fill="#FEC200" stroke="#000000" stroke-miterlimit="10" cx="558" cy="414" r="12"/>
<text transform="matrix(1 0 0 1 553.5 420)" font-family="'Times-Roman'" font-size="18">8</text>
<line fill="none" stroke="#000000" stroke-miterlimit="10" x1="342" y1="414" x2="378" y2="378"/>
<circle fill="#FEC200" stroke="#000000" stroke-miterlimit="10" cx="342" cy="414" r="12"/>
<text transform="matrix(1 0 0 1 337.5 420)" font-family="'Times-Roman'" font-size="18">1</text>
<line fill="none" stroke="#000000" stroke-miterlimit="10" x1="486" y1="414" x2="522" y2="378"/>
<circle fill="#FEC200" stroke="#000000" stroke-miterlimit="10" cx="486" cy="414" r="12"/>
<text transform="matrix(1 0 0 1 481.5 420)" font-family="'Times-Roman'" font-size="18">5</text>
<line fill="none" stroke="#000000" stroke-miterlimit="10" x1="378" y1="378" x2="450" y2="342"/>
<circle fill="#FEC200" stroke="#000000" stroke-miterlimit="10" cx="378" cy="377.999" r="12"/>
<text transform="matrix(1 0 0 1 373.5 383.999)" font-family="'Times-Roman'" font-size="18">2</text>
<line fill="none" stroke="#000000" x1="450" y1="342" x2="522" y2="378"/>
<circle fill="#FEC200" stroke="#000000" stroke-miterlimit="10" cx="450" cy="342" r="12"/>
<text transform="matrix(1 0 0 1 445.499 348)" font-family="'Times-Roman'" font-size="18">4</text>
<circle fill="#FEC200" stroke="#000000" stroke-miterlimit="10" cx="522" cy="378" r="12"/>
<text transform="matrix(1 0 0 1 517.499 384)" font-family="'Times-Roman'" font-size="18">6</text>
</svg>
