<?xml version="1.0" encoding="utf-8"?>
<!-- Generator: Adobe Illustrator 15.1.0, SVG Export Plug-In . SVG Version: 6.00 Build 0)  -->
<!DOCTYPE svg PUBLIC "-//W3C//DTD SVG 1.1//EN" "http://www.w3.org/Graphics/SVG/1.1/DTD/svg11.dtd">
<svg version="1.1" id="Layer_1" xmlns="http://www.w3.org/2000/svg" xmlns:xlink="http://www.w3.org/1999/xlink" x="0px" y="0px"
	 width="585px" height="585px" viewBox="0 0 585 585" enable-background="new 0 0 585 585" xml:space="preserve">
<polygon fill="none" stroke="#231F20" stroke-width="2" stroke-miterlimit="10" points="378,162 567,162 567,27 522,18 576,18 
	576,90 450,90 495,99 495,171 423,171 "/>
<polygon fill="none" stroke="#231F20" stroke-width="2" stroke-miterlimit="10" points="234,306 549,306 549,45 522,18 558,36 
	558,234 306,234 351,243 486,243 486,108 450,90 477,117 477,315 279,315 "/>
<polygon fill="none" stroke="#231F20" stroke-width="2" stroke-miterlimit="10" points="90,450 531,450 531,63 522,18 540,54 
	540,378 162,378 207,387 468,387 468,126 450,90 459,135 459,459 135,459 "/>
<polyline fill="none" stroke="#231F20" stroke-width="2" stroke-miterlimit="10" points="450,90 450,531 63,531 18,522 522,522 
	522,18 "/>
<polygon fill="none" stroke="#231F20" stroke-width="2" stroke-miterlimit="10" points="234,306 270,324 405,324 405,189 378,162 
	414,180 414,252 342,252 306,234 333,261 333,333 261,333 "/>
<polygon fill="none" stroke="#231F20" stroke-width="2" stroke-miterlimit="10" points="90,450 126,468 387,468 387,207 378,162 
	396,198 396,396 198,396 162,378 189,405 324,405 324,270 306,234 315,279 315,477 117,477 "/>
<polyline fill="none" stroke="#231F20" stroke-width="2" stroke-miterlimit="10" points="306,234 306,549 45,549 18,522 54,540 
	378,540 378,153 "/>
<polygon fill="none" stroke="#231F20" stroke-width="2" stroke-miterlimit="10" points="90,450 108,486 243,486 243,351 234,306 
	252,342 252,414 180,414 162,378 171,423 171,495 99,495 "/>
<polyline fill="none" stroke="#231F20" stroke-width="2" stroke-miterlimit="10" points="162,378 162,567 27,567 18,522 36,558 
	234,558 234,306 "/>
<polyline fill="none" stroke="#231F20" stroke-width="2" stroke-miterlimit="10" points="90,450 90,576 18,576 18,522 "/>
<circle fill="#0081CD" stroke="#231F20" stroke-miterlimit="10" cx="18" cy="522" r="9"/>
<circle fill="#0081CD" stroke="#231F20" stroke-miterlimit="10" cx="90" cy="450" r="9"/>
<circle fill="#0081CD" stroke="#231F20" stroke-miterlimit="10" cx="162" cy="378" r="9"/>
<circle fill="#0081CD" stroke="#231F20" stroke-miterlimit="10" cx="234" cy="306" r="9"/>
<circle fill="#0081CD" stroke="#231F20" stroke-miterlimit="10" cx="306" cy="234" r="9"/>
<circle fill="#0081CD" stroke="#231F20" stroke-miterlimit="10" cx="378" cy="162" r="9"/>
<circle fill="#0081CD" stroke="#231F20" stroke-miterlimit="10" cx="450" cy="90" r="9"/>
<circle fill="#0081CD" stroke="#231F20" stroke-miterlimit="10" cx="522" cy="18" r="9"/>
</svg>
