<?xml version="1.0" encoding="utf-8"?>
<!-- Generator: Adobe Illustrator 15.1.0, SVG Export Plug-In . SVG Version: 6.00 Build 0)  -->
<!DOCTYPE svg PUBLIC "-//W3C//DTD SVG 1.1//EN" "http://www.w3.org/Graphics/SVG/1.1/DTD/svg11.dtd">
<svg version="1.1" id="Layer_1" xmlns="http://www.w3.org/2000/svg" xmlns:xlink="http://www.w3.org/1999/xlink" x="0px" y="0px"
	 width="582px" height="731px" viewBox="-92.5 -117 582 731" enable-background="new -92.5 -117 582 731" xml:space="preserve">
<polygon fill="#BC1E47" stroke="#000000" stroke-width="1.5" points="372.75,-110.5 332.25,-110.5 332.25,-97 345.75,-97 
	345.75,-83.5 372.75,-83.5 "/>
<polygon fill="#BC1E47" stroke="#000000" stroke-width="1.5" points="129.75,-16 129.75,24.5 156.75,24.5 156.75,-2.5 143.25,-2.5 
	143.25,-16 "/>
<polygon fill="#BC1E47" stroke="#000000" stroke-width="1.5" points="143.25,-29.5 170.25,-29.5 170.25,-56.5 129.75,-56.5 
	129.75,-43 143.25,-43 "/>
<polygon fill="#BC1E47" stroke="#000000" stroke-width="1.5" points="116.25,-2.5 129.75,-2.5 129.75,-16 143.25,-16 143.25,-43 
	116.25,-43 "/>
<polygon fill="#BC1E47" stroke="#000000" stroke-width="1.5" points="89.25,11 102.75,11 102.75,-2.5 116.25,-2.5 116.25,-29.5 
	89.25,-29.5 "/>
<polygon fill="#BC1E47" stroke="#000000" stroke-width="1.5" points="183.75,-16 210.75,-16 210.75,24.5 197.25,24.5 197.25,11 
	183.75,11 "/>
<polygon fill="#BC1E47" stroke="#000000" stroke-width="1.5" points="62.25,-2.5 62.25,24.5 21.75,24.5 21.75,11 35.25,11 
	35.25,-2.5 "/>
<polygon fill="#BC1E47" stroke="#000000" stroke-width="1.5" points="129.75,-2.5 129.75,24.5 89.25,24.5 89.25,11 102.75,11 
	102.75,-2.5 "/>
<polygon fill="#BC1E47" stroke="#000000" stroke-width="1.5" points="35.25,-29.5 35.25,11 8.25,11 8.25,-16 21.75,-16 21.75,-29.5 
	"/>
<polygon fill="#BC1E47" stroke="#000000" stroke-width="1.5" points="183.75,-2.5 143.25,-2.5 143.25,-29.5 170.25,-29.5 
	170.25,-16 183.75,-16 "/>
<polygon fill="#BC1E47" stroke="#000000" stroke-width="1.5" points="197.25,24.5 156.75,24.5 156.75,-2.5 183.75,-2.5 183.75,11 
	197.25,11 "/>
<polygon fill="#BC1E47" stroke="#000000" stroke-width="1.5" points="21.75,24.5 -18.75,24.5 -18.75,-2.5 8.25,-2.5 8.25,11 
	21.75,11 "/>
<polygon fill="#BC1E47" stroke="#000000" stroke-width="1.5" points="-45.75,24.5 -86.25,24.5 -86.25,-2.5 -59.25,-2.5 -59.25,11 
	-45.75,11 "/>
<polygon fill="#BC1E47" stroke="#000000" stroke-width="1.5" points="-18.75,-2.5 8.25,-2.5 8.25,-16 21.75,-16 21.75,-29.5 
	-18.75,-29.5 "/>
<polygon fill="#BC1E47" stroke="#000000" stroke-width="1.5" points="89.25,-29.5 116.25,-29.5 116.25,-43 129.75,-43 129.75,-56.5 
	89.25,-56.5 "/>
<polygon fill="#BC1E47" stroke="#000000" stroke-width="1.5" points="264.75,510.5 264.75,551 291.75,551 291.75,524 278.25,524 
	278.25,510.5 "/>
<polygon fill="#BC1E47" stroke="#000000" stroke-width="1.5" points="278.25,497 305.25,497 305.25,470 264.75,470 264.75,483.5 
	278.25,483.5 "/>
<polygon fill="#BC1E47" stroke="#000000" stroke-width="1.5" points="251.25,524 264.75,524 264.75,510.5 278.25,510.5 
	278.25,483.5 251.25,483.5 "/>
<polygon fill="#BC1E47" stroke="#000000" stroke-width="1.5" points="224.25,537.5 237.75,537.5 237.75,524 251.25,524 251.25,497 
	224.25,497 "/>
<polygon fill="#BC1E47" stroke="#000000" stroke-width="1.5" points="318.75,510.5 345.75,510.5 345.75,551 332.25,551 
	332.25,537.5 318.75,537.5 "/>
<polygon fill="#BC1E47" stroke="#000000" stroke-width="1.5" points="264.75,524 264.75,551 224.25,551 224.25,537.5 237.75,537.5 
	237.75,524 "/>
<polygon fill="#BC1E47" stroke="#000000" stroke-width="1.5" points="318.75,524 278.25,524 278.25,497 305.25,497 305.25,510.5 
	318.75,510.5 "/>
<polygon fill="#BC1E47" stroke="#000000" stroke-width="1.5" points="332.25,551 291.75,551 291.75,524 318.75,524 318.75,537.5 
	332.25,537.5 "/>
<polygon fill="#BC1E47" stroke="#000000" stroke-width="1.5" points="224.25,497 251.25,497 251.25,483.5 264.75,483.5 264.75,470 
	224.25,470 "/>
<polygon fill="#009246" stroke="#000000" stroke-width="1.5" points="426.75,510.5 426.75,551 399.75,551 399.75,524 413.25,524 
	413.25,510.5 "/>
<polygon fill="#009246" stroke="#000000" stroke-width="1.5" points="413.25,497 386.25,497 386.25,470 426.75,470 426.75,483.5 
	413.25,483.5 "/>
<polygon fill="#009246" stroke="#000000" stroke-width="1.5" points="440.25,524 426.75,524 426.75,510.5 413.25,510.5 
	413.25,483.5 440.25,483.5 "/>
<polygon fill="#009246" stroke="#000000" stroke-width="1.5" points="467.25,537.5 453.75,537.5 453.75,524 440.25,524 440.25,497 
	467.25,497 "/>
<polygon fill="#009246" stroke="#000000" stroke-width="1.5" points="372.75,510.5 345.75,510.5 345.75,551 359.25,551 
	359.25,537.5 372.75,537.5 "/>
<polygon fill="#009246" stroke="#000000" stroke-width="1.5" points="426.75,524 426.75,551 467.25,551 467.25,537.5 453.75,537.5 
	453.75,524 "/>
<polygon fill="#009246" stroke="#000000" stroke-width="1.5" points="372.75,524 413.25,524 413.25,497 386.25,497 386.25,510.5 
	372.75,510.5 "/>
<polygon fill="#009246" stroke="#000000" stroke-width="1.5" points="359.25,551 399.75,551 399.75,524 372.75,524 372.75,537.5 
	359.25,537.5 "/>
<polygon fill="#009246" stroke="#000000" stroke-width="1.5" points="467.25,497 440.25,497 440.25,483.5 426.75,483.5 426.75,470 
	467.25,470 "/>
<polygon fill="#FEC200" stroke="#000000" stroke-width="1.5" points="345.75,470 386.25,470 386.25,443 359.25,443 359.25,456.5 
	345.75,456.5 "/>
<polygon fill="#FEC200" stroke="#000000" stroke-width="1.5" points="332.25,456.5 332.25,429.5 305.25,429.5 305.25,470 
	318.75,470 318.75,456.5 "/>
<polygon fill="#FEC200" stroke="#000000" stroke-width="1.5" points="359.25,483.5 359.25,470 345.75,470 345.75,456.5 
	318.75,456.5 318.75,483.5 "/>
<polygon fill="#FEC200" stroke="#000000" stroke-width="1.5" points="372.75,510.5 372.75,497 359.25,497 359.25,483.5 
	332.25,483.5 332.25,510.5 "/>
<polygon fill="#FEC200" stroke="#000000" stroke-width="1.5" points="345.75,416 345.75,389 386.25,389 386.25,402.5 372.75,402.5 
	372.75,416 "/>
<polygon fill="#FEC200" stroke="#000000" stroke-width="1.5" points="359.25,470 386.25,470 386.25,510.5 372.75,510.5 372.75,497 
	359.25,497 "/>
<polygon fill="#FEC200" stroke="#000000" stroke-width="1.5" points="359.25,416 359.25,456.5 332.25,456.5 332.25,429.5 
	345.75,429.5 345.75,416 "/>
<polygon fill="#FEC200" stroke="#000000" stroke-width="1.5" points="386.25,402.5 386.25,443 359.25,443 359.25,416 372.75,416 
	372.75,402.5 "/>
<polygon fill="#FEC200" stroke="#000000" stroke-width="1.5" points="332.25,510.5 332.25,483.5 318.75,483.5 318.75,470 
	305.25,470 305.25,510.5 "/>
<polygon fill="#0081CD" stroke="#000000" stroke-width="1.5" points="264.75,429.5 264.75,389 291.75,389 291.75,416 278.25,416 
	278.25,429.5 "/>
<polygon fill="#0081CD" stroke="#000000" stroke-width="1.5" points="278.25,443 305.25,443 305.25,470 264.75,470 264.75,456.5 
	278.25,456.5 "/>
<polygon fill="#0081CD" stroke="#000000" stroke-width="1.5" points="251.25,416 264.75,416 264.75,429.5 278.25,429.5 
	278.25,456.5 251.25,456.5 "/>
<polygon fill="#0081CD" stroke="#000000" stroke-width="1.5" points="224.25,402.5 237.75,402.5 237.75,416 251.25,416 251.25,443 
	224.25,443 "/>
<polygon fill="#0081CD" stroke="#000000" stroke-width="1.5" points="318.75,429.5 345.75,429.5 345.75,389 332.25,389 
	332.25,402.5 318.75,402.5 "/>
<polygon fill="#0081CD" stroke="#000000" stroke-width="1.5" points="264.75,416 264.75,389 224.25,389 224.25,402.5 237.75,402.5 
	237.75,416 "/>
<polygon fill="#0081CD" stroke="#000000" stroke-width="1.5" points="318.75,416 278.25,416 278.25,443 305.25,443 305.25,429.5 
	318.75,429.5 "/>
<polygon fill="#0081CD" stroke="#000000" stroke-width="1.5" points="332.25,389 291.75,389 291.75,416 318.75,416 318.75,402.5 
	332.25,402.5 "/>
<polygon fill="#0081CD" stroke="#000000" stroke-width="1.5" points="224.25,443 251.25,443 251.25,456.5 264.75,456.5 264.75,470 
	224.25,470 "/>
<g>
	<path d="M-84.938,45.509c0-1.026-0.019-1.906-0.072-2.717h1.385l0.072,1.728h0.054c0.396-1.171,1.368-1.906,2.429-1.906
		c0.162,0,0.288,0.018,0.432,0.035v1.494c-0.162-0.036-0.324-0.036-0.54-0.036c-1.115,0-1.906,0.828-2.124,2.015
		c-0.036,0.216-0.054,0.485-0.054,0.738V51.5h-1.581V45.509z"/>
	<path d="M-78.35,47.436c0.036,2.14,1.385,3.022,2.986,3.022c1.133,0,1.835-0.198,2.411-0.45l0.288,1.133
		c-0.559,0.253-1.529,0.559-2.915,0.559c-2.681,0-4.281-1.782-4.281-4.407s1.548-4.677,4.085-4.677c2.86,0,3.598,2.482,3.598,4.084
		c0,0.325-0.018,0.559-0.053,0.738h-6.119V47.436z M-73.709,46.301c0.019-0.99-0.414-2.555-2.194-2.555
		c-1.62,0-2.303,1.457-2.429,2.555H-73.709z"/>
	<path d="M-70.214,45.635c0-1.115-0.036-2.014-0.071-2.843h1.404l0.09,1.493h0.035c0.629-1.062,1.673-1.672,3.094-1.672
		c2.124,0,3.706,1.781,3.706,4.406c0,3.131-1.925,4.677-3.976,4.677c-1.151,0-2.158-0.504-2.68-1.368h-0.036v4.731h-1.564v-9.425
		H-70.214z M-68.649,47.956c0,0.233,0.019,0.449,0.073,0.647c0.287,1.098,1.241,1.853,2.374,1.853c1.674,0,2.644-1.366,2.644-3.364
		c0-1.727-0.917-3.219-2.59-3.219c-1.08,0-2.104,0.754-2.393,1.941c-0.054,0.198-0.108,0.433-0.108,0.631V47.956z"/>
	<path d="M-56.031,46.066v1.152h-4.442v-1.152H-56.031z"/>
	<path d="M-51.243,41.282h-0.036l-2.032,1.098l-0.306-1.206l2.555-1.367h1.35V51.5h-1.53V41.282z"/>
	<path d="M-45.646,45.5v-0.729l0.932-0.904c2.242-2.133,3.269-3.27,3.269-4.592c0-0.892-0.419-1.715-1.729-1.715
		c-0.796,0-1.458,0.405-1.864,0.742l-0.378-0.837c0.595-0.499,1.472-0.892,2.471-0.892c1.89,0,2.688,1.297,2.688,2.554
		c0,1.62-1.176,2.93-3.026,4.713l-0.688,0.648v0.026h3.931V45.5H-45.646z"/>
</g>
<g>
	<path d="M-17.438,45.509c0-1.026-0.019-1.906-0.072-2.717h1.385l0.072,1.728h0.054c0.396-1.171,1.368-1.906,2.429-1.906
		c0.162,0,0.288,0.018,0.432,0.035v1.494c-0.162-0.036-0.324-0.036-0.54-0.036c-1.115,0-1.906,0.828-2.124,2.015
		c-0.036,0.216-0.054,0.485-0.054,0.738V51.5h-1.584v-5.991H-17.438z"/>
	<path d="M-10.85,47.436c0.036,2.14,1.385,3.022,2.986,3.022c1.133,0,1.835-0.198,2.411-0.45l0.288,1.133
		c-0.559,0.253-1.529,0.559-2.915,0.559c-2.681,0-4.281-1.782-4.281-4.407s1.548-4.677,4.085-4.677c2.86,0,3.598,2.482,3.598,4.084
		c0,0.325-0.018,0.559-0.053,0.738h-6.119V47.436z M-6.209,46.301c0.019-0.99-0.414-2.555-2.194-2.555
		c-1.62,0-2.303,1.457-2.429,2.555H-6.209z"/>
	<path d="M-2.714,45.635c0-1.115-0.036-2.014-0.071-2.843h1.404l0.09,1.493h0.035c0.629-1.062,1.673-1.672,3.094-1.672
		c2.124,0,3.706,1.781,3.706,4.406c0,3.131-1.925,4.677-3.976,4.677c-1.151,0-2.158-0.504-2.68-1.368h-0.036v4.731h-1.564v-9.425
		H-2.714z M-1.149,47.956c0,0.233,0.019,0.449,0.073,0.647c0.287,1.098,1.241,1.853,2.374,1.853c1.674,0,2.644-1.366,2.644-3.364
		c0-1.727-0.917-3.219-2.59-3.219c-1.08,0-2.104,0.754-2.393,1.941c-0.054,0.198-0.108,0.433-0.108,0.631V47.956z"/>
	<path d="M11.469,46.066v1.152H7.026v-1.152H11.469z"/>
	<path d="M12.82,51.5v-0.971l1.242-1.206c2.986-2.843,4.353-4.353,4.353-6.116c0-1.188-0.558-2.285-2.302-2.285
		c-1.062,0-1.943,0.54-2.482,0.99l-0.504-1.116c0.791-0.666,1.96-1.188,3.292-1.188c2.519,0,3.581,1.728,3.581,3.4
		c0,2.159-1.564,3.905-4.031,6.279l-0.918,0.864v0.036h5.235V51.5H12.82z"/>
	<path d="M21.854,45.5v-0.729l0.932-0.904c2.242-2.133,3.269-3.27,3.269-4.592c0-0.892-0.419-1.715-1.729-1.715
		c-0.796,0-1.458,0.405-1.864,0.742l-0.378-0.837c0.595-0.499,1.472-0.892,2.471-0.892c1.89,0,2.688,1.297,2.688,2.554
		c0,1.62-1.176,2.93-3.026,4.713l-0.688,0.648v0.026h3.931V45.5H21.854z"/>
</g>
<g>
	<path d="M90.562,45.509c0-1.026-0.019-1.906-0.072-2.717h1.385l0.072,1.728h0.054c0.396-1.171,1.368-1.906,2.429-1.906
		c0.162,0,0.288,0.018,0.432,0.035v1.494c-0.162-0.036-0.324-0.036-0.54-0.036c-1.115,0-1.906,0.828-2.124,2.015
		c-0.036,0.216-0.054,0.485-0.054,0.738V51.5H90.56v-5.991H90.562z"/>
	<path d="M97.15,47.436c0.036,2.14,1.385,3.022,2.986,3.022c1.133,0,1.835-0.198,2.411-0.45l0.288,1.133
		c-0.559,0.253-1.529,0.559-2.915,0.559c-2.681,0-4.281-1.782-4.281-4.407s1.548-4.677,4.085-4.677c2.86,0,3.598,2.482,3.598,4.084
		c0,0.325-0.018,0.559-0.053,0.738H97.15V47.436z M101.791,46.301c0.019-0.99-0.414-2.555-2.194-2.555
		c-1.62,0-2.303,1.457-2.429,2.555H101.791z"/>
	<path d="M105.286,45.635c0-1.115-0.036-2.014-0.071-2.843h1.404l0.09,1.493h0.035c0.629-1.062,1.673-1.672,3.094-1.672
		c2.124,0,3.706,1.781,3.706,4.406c0,3.131-1.925,4.677-3.976,4.677c-1.151,0-2.158-0.504-2.68-1.368h-0.036v4.731h-1.564v-9.425
		H105.286z M106.851,47.956c0,0.233,0.019,0.449,0.073,0.647c0.287,1.098,1.241,1.853,2.374,1.853c1.674,0,2.644-1.366,2.644-3.364
		c0-1.727-0.917-3.219-2.59-3.219c-1.08,0-2.104,0.754-2.393,1.941c-0.054,0.198-0.108,0.433-0.108,0.631V47.956L106.851,47.956z"/>
	<path d="M119.469,46.066v1.152h-4.442v-1.152H119.469z"/>
	<path d="M121.198,49.701c0.45,0.271,1.476,0.719,2.591,0.719c2.015,0,2.662-1.277,2.645-2.267
		c-0.019-1.637-1.494-2.339-3.022-2.339h-0.881v-1.188h0.881c1.151,0,2.608-0.594,2.608-1.979c0-0.936-0.594-1.763-2.051-1.763
		c-0.936,0-1.836,0.415-2.338,0.774l-0.433-1.152c0.63-0.449,1.816-0.9,3.077-0.9c2.302,0,3.346,1.368,3.346,2.789
		c0,1.225-0.738,2.25-2.158,2.771v0.036c1.438,0.27,2.591,1.349,2.608,2.986c0,1.872-1.475,3.508-4.263,3.508
		c-1.312,0-2.465-0.413-3.04-0.791L121.198,49.701z"/>
	<path d="M129.854,45.5v-0.729l0.932-0.904c2.242-2.133,3.269-3.27,3.269-4.592c0-0.892-0.419-1.715-1.729-1.715
		c-0.796,0-1.458,0.405-1.864,0.742l-0.378-0.837c0.595-0.499,1.472-0.892,2.471-0.892c1.89,0,2.688,1.297,2.688,2.554
		c0,1.62-1.176,2.93-3.026,4.713l-0.688,0.648v0.026h3.931V45.5H129.854z"/>
</g>
<g>
	<path d="M239.062,45.509c0-1.026-0.018-1.906-0.072-2.717h1.385l0.072,1.728h0.054c0.396-1.171,1.368-1.906,2.429-1.906
		c0.161,0,0.287,0.018,0.432,0.035v1.494c-0.162-0.036-0.323-0.036-0.54-0.036c-1.116,0-1.907,0.828-2.124,2.015
		c-0.035,0.216-0.053,0.485-0.053,0.738V51.5h-1.585v-5.991H239.062z"/>
	<path d="M245.651,47.436c0.035,2.14,1.383,3.022,2.985,3.022c1.134,0,1.834-0.198,2.411-0.45l0.287,1.133
		c-0.557,0.253-1.528,0.559-2.915,0.559c-2.68,0-4.28-1.782-4.28-4.407s1.548-4.677,4.084-4.677c2.862,0,3.599,2.482,3.599,4.084
		c0,0.325-0.018,0.559-0.054,0.738h-6.117V47.436z M250.292,46.301c0.018-0.99-0.415-2.555-2.194-2.555
		c-1.62,0-2.303,1.457-2.429,2.555H250.292z"/>
	<path d="M253.787,45.635c0-1.115-0.037-2.014-0.073-2.843h1.405l0.089,1.493h0.036c0.629-1.062,1.672-1.672,3.093-1.672
		c2.124,0,3.706,1.781,3.706,4.406c0,3.131-1.924,4.677-3.975,4.677c-1.152,0-2.157-0.504-2.68-1.368h-0.037v4.731h-1.564V45.635
		L253.787,45.635z M255.352,47.956c0,0.233,0.018,0.449,0.072,0.647c0.288,1.098,1.24,1.853,2.374,1.853
		c1.673,0,2.644-1.366,2.644-3.364c0-1.727-0.918-3.219-2.591-3.219c-1.078,0-2.104,0.754-2.391,1.941
		c-0.056,0.198-0.108,0.433-0.108,0.631V47.956L255.352,47.956z"/>
	<path d="M267.97,46.066v1.152h-4.444v-1.152H267.97z"/>
	<path d="M276.302,41.138h-4.462l-0.451,3.005c0.27-0.036,0.521-0.054,0.955-0.054c0.917,0,1.799,0.18,2.518,0.63
		c0.916,0.504,1.672,1.529,1.672,2.986c0,2.285-1.816,3.994-4.352,3.994c-1.279,0-2.34-0.359-2.914-0.719l0.396-1.205
		c0.486,0.287,1.438,0.648,2.519,0.648c1.475,0,2.77-0.972,2.752-2.537c0-1.511-1.025-2.572-3.346-2.572
		c-0.686,0-1.205,0.054-1.638,0.107l0.756-5.613h5.596V41.138L276.302,41.138z"/>
	<path d="M278.353,45.5v-0.729l0.932-0.904c2.244-2.133,3.27-3.27,3.27-4.592c0-0.892-0.419-1.715-1.729-1.715
		c-0.797,0-1.458,0.405-1.863,0.742l-0.378-0.837c0.594-0.499,1.471-0.892,2.47-0.892c1.89,0,2.688,1.297,2.688,2.554
		c0,1.62-1.176,2.93-3.025,4.713l-0.688,0.648v0.026h3.929V45.5H278.353z"/>
</g>
<polygon fill="#BC1E47" stroke="#000000" stroke-width="1.5" points="305.25,-110.5 264.75,-110.5 264.75,-97 278.25,-97 
	278.25,-83.5 305.25,-83.5 "/>
<polygon fill="#BC1E47" stroke="#000000" stroke-width="1.5" points="278.25,-83.5 237.75,-83.5 237.75,-110.5 264.75,-110.5 
	264.75,-97 278.25,-97 "/>
<polygon fill="#BC1E47" stroke="#000000" stroke-width="1.5" points="345.75,-83.5 305.25,-83.5 305.25,-110.5 332.25,-110.5 
	332.25,-97 345.75,-97 "/>
<polygon fill="#BC1E47" stroke="#000000" stroke-width="1.5" points="305.25,-83.5 264.75,-83.5 264.75,-70 278.25,-70 
	278.25,-56.5 305.25,-56.5 "/>
<polygon fill="#BC1E47" stroke="#000000" stroke-width="1.5" points="278.25,-56.5 237.75,-56.5 237.75,-83.5 264.75,-83.5 
	264.75,-70 278.25,-70 "/>
<polygon fill="#BC1E47" stroke="#000000" stroke-width="1.5" points="305.25,-29.5 264.75,-29.5 264.75,-16 278.25,-16 278.25,-2.5 
	305.25,-2.5 "/>
<polygon fill="#BC1E47" stroke="#000000" stroke-width="1.5" points="278.25,-2.5 237.75,-2.5 237.75,-29.5 264.75,-29.5 
	264.75,-16 278.25,-16 "/>
<polygon fill="#BC1E47" stroke="#000000" stroke-width="1.5" points="305.25,-2.5 264.75,-2.5 264.75,11 278.25,11 278.25,24.5 
	305.25,24.5 "/>
<polygon fill="#BC1E47" stroke="#000000" stroke-width="1.5" points="278.25,24.5 237.75,24.5 237.75,-2.5 264.75,-2.5 264.75,11 
	278.25,11 "/>
<polygon fill="#BC1E47" stroke="#000000" stroke-width="1.5" points="372.75,-83.5 332.25,-83.5 332.25,-70 345.75,-70 
	345.75,-56.5 372.75,-56.5 "/>
<polygon fill="#BC1E47" stroke="#000000" stroke-width="1.5" points="345.75,-56.5 305.25,-56.5 305.25,-83.5 332.25,-83.5 
	332.25,-70 345.75,-70 "/>
<polygon fill="#BC1E47" stroke="#000000" stroke-width="1.5" points="305.25,-56.5 264.75,-56.5 264.75,-43 278.25,-43 
	278.25,-29.5 305.25,-29.5 "/>
<polygon fill="#BC1E47" stroke="#000000" stroke-width="1.5" points="278.25,-29.5 237.75,-29.5 237.75,-56.5 264.75,-56.5 
	264.75,-43 278.25,-43 "/>
<polygon fill="#BC1E47" stroke="#000000" stroke-width="1.5" points="372.75,-56.5 332.25,-56.5 332.25,-43 345.75,-43 
	345.75,-29.5 372.75,-29.5 "/>
<polygon fill="#BC1E47" stroke="#000000" stroke-width="1.5" points="345.75,24.5 305.25,24.5 305.25,-2.5 332.25,-2.5 332.25,11 
	345.75,11 "/>
<polygon fill="#BC1E47" stroke="#000000" stroke-width="1.5" points="440.25,-43 440.25,-2.5 426.75,-2.5 426.75,-16 413.25,-16 
	413.25,-43 "/>
<polygon fill="#BC1E47" stroke="#000000" stroke-width="1.5" points="413.25,-16 413.25,24.5 440.25,24.5 440.25,-2.5 426.75,-2.5 
	426.75,-16 "/>
<polygon fill="#BC1E47" stroke="#000000" stroke-width="1.5" points="413.25,-43 413.25,-2.5 399.75,-2.5 399.75,-16 386.25,-16 
	386.25,-43 "/>
<polygon fill="#BC1E47" stroke="#000000" stroke-width="1.5" points="386.25,-16 386.25,24.5 413.25,24.5 413.25,-2.5 399.75,-2.5 
	399.75,-16 "/>
<polygon fill="#BC1E47" stroke="#000000" stroke-width="1.5" points="386.25,-43 386.25,-2.5 359.25,-2.5 359.25,-29.5 
	372.75,-29.5 372.75,-43 "/>
<polygon fill="#BC1E47" stroke="#000000" stroke-width="1.5" points="386.25,-2.5 386.25,24.5 345.75,24.5 345.75,11 359.25,11 
	359.25,-2.5 "/>
<polygon fill="#BC1E47" stroke="#000000" stroke-width="1.5" points="359.25,-29.5 359.25,11 332.25,11 332.25,-16 345.75,-16 
	345.75,-29.5 "/>
<polygon fill="#BC1E47" stroke="#000000" stroke-width="1.5" points="345.75,-29.5 305.25,-29.5 305.25,-56.5 332.25,-56.5 
	332.25,-43 345.75,-43 "/>
<polygon fill="#BC1E47" stroke="#000000" stroke-width="1.5" points="305.25,-2.5 332.25,-2.5 332.25,-16 345.75,-16 345.75,-29.5 
	305.25,-29.5 "/>
<polygon fill="#0081CD" stroke="#000000" stroke-width="1.5" points="102.75,497 102.75,537.5 129.75,537.5 129.75,510.5 
	116.25,510.5 116.25,497 "/>
<polygon fill="#0081CD" stroke="#000000" stroke-width="1.5" points="170.25,551 197.25,551 197.25,524 156.75,524 156.75,537.5 
	170.25,537.5 "/>
<polygon fill="#0081CD" stroke="#000000" stroke-width="1.5" points="116.25,510.5 143.25,510.5 143.25,483.5 102.75,483.5 
	102.75,497 116.25,497 "/>
<polygon fill="#0081CD" stroke="#000000" stroke-width="1.5" points="143.25,578 156.75,578 156.75,564.5 170.25,564.5 
	170.25,537.5 143.25,537.5 "/>
<polygon fill="#0081CD" stroke="#000000" stroke-width="1.5" points="197.25,551 197.25,578 156.75,578 156.75,564.5 170.25,564.5 
	170.25,551 "/>
<polygon fill="#0081CD" stroke="#000000" stroke-width="1.5" points="197.25,483.5 197.25,524 170.25,524 170.25,497 183.75,497 
	183.75,483.5 "/>
<polygon fill="#0081CD" stroke="#000000" stroke-width="1.5" points="129.75,537.5 156.75,537.5 156.75,524 170.25,524 
	170.25,510.5 129.75,510.5 "/>
<polygon fill="#0081CD" stroke="#000000" stroke-width="1.5" points="143.25,510.5 170.25,510.5 170.25,497 183.75,497 
	183.75,483.5 143.25,483.5 "/>
<polygon fill="#BC1E47" stroke="#000000" stroke-width="1.5" points="62.25,537.5 62.25,578 89.25,578 89.25,551 75.75,551 
	75.75,537.5 "/>
<polygon fill="#BC1E47" stroke="#000000" stroke-width="1.5" points="75.75,524 102.75,524 102.75,497 62.25,497 62.25,510.5 
	75.75,510.5 "/>
<polygon fill="#BC1E47" stroke="#000000" stroke-width="1.5" points="48.75,551 62.25,551 62.25,537.5 75.75,537.5 75.75,510.5 
	48.75,510.5 "/>
<polygon fill="#BC1E47" stroke="#000000" stroke-width="1.5" points="21.75,564.5 35.25,564.5 35.25,551 48.75,551 48.75,524 
	21.75,524 "/>
<polygon fill="#BC1E47" stroke="#000000" stroke-width="1.5" points="116.25,537.5 143.25,537.5 143.25,578 129.75,578 
	129.75,564.5 116.25,564.5 "/>
<polygon fill="#BC1E47" stroke="#000000" stroke-width="1.5" points="62.25,551 62.25,578 21.75,578 21.75,564.5 35.25,564.5 
	35.25,551 "/>
<polygon fill="#BC1E47" stroke="#000000" stroke-width="1.5" points="116.25,551 75.75,551 75.75,524 102.75,524 102.75,537.5 
	116.25,537.5 "/>
<polygon fill="#BC1E47" stroke="#000000" stroke-width="1.5" points="129.75,578 89.25,578 89.25,551 116.25,551 116.25,564.5 
	129.75,564.5 "/>
<polygon fill="#BC1E47" stroke="#000000" stroke-width="1.5" points="21.75,524 48.75,524 48.75,510.5 62.25,510.5 62.25,497 
	21.75,497 "/>
<polygon fill="#009246" stroke="#000000" stroke-width="1.5" points="-86.25,510.5 -86.25,551 -72.75,551 -72.75,537.5 
	-59.25,537.5 -59.25,510.5 "/>
<polygon fill="#009246" stroke="#000000" stroke-width="1.5" points="48.75,470 48.75,443 21.75,443 21.75,483.5 35.25,483.5 
	35.25,470 "/>
<polygon fill="#009246" stroke="#000000" stroke-width="1.5" points="75.75,416 75.75,389 48.75,389 48.75,429.5 62.25,429.5 
	62.25,416 "/>
<polygon fill="#009246" stroke="#000000" stroke-width="1.5" points="48.75,443 75.75,443 75.75,483.5 62.25,483.5 62.25,470 
	48.75,470 "/>
<polygon fill="#009246" stroke="#000000" stroke-width="1.5" points="75.75,389 102.75,389 102.75,429.5 89.25,429.5 89.25,416 
	75.75,416 "/>
<polygon fill="#009246" stroke="#000000" stroke-width="1.5" points="-32.25,443 -32.25,483.5 -18.75,483.5 -18.75,470 -5.25,470 
	-5.25,443 "/>
<polygon fill="#009246" stroke="#000000" stroke-width="1.5" points="-5.25,470 -5.25,510.5 -32.25,510.5 -32.25,483.5 
	-18.75,483.5 -18.75,470 "/>
<polygon fill="#009246" stroke="#000000" stroke-width="1.5" points="-5.25,443 -5.25,483.5 8.25,483.5 8.25,470 21.75,470 
	21.75,443 "/>
<polygon fill="#009246" stroke="#000000" stroke-width="1.5" points="21.75,470 21.75,510.5 -5.25,510.5 -5.25,483.5 8.25,483.5 
	8.25,470 "/>
<polygon fill="#009246" stroke="#000000" stroke-width="1.5" points="-86.25,443 -86.25,483.5 -72.75,483.5 -72.75,470 -59.25,470 
	-59.25,443 "/>
<polygon fill="#009246" stroke="#000000" stroke-width="1.5" points="-59.25,470 -59.25,510.5 -86.25,510.5 -86.25,483.5 
	-72.75,483.5 -72.75,470 "/>
<polygon fill="#009246" stroke="#000000" stroke-width="1.5" points="-59.25,443 -59.25,483.5 -45.75,483.5 -45.75,470 -32.25,470 
	-32.25,443 "/>
<polygon fill="#009246" stroke="#000000" stroke-width="1.5" points="-32.25,470 -32.25,510.5 -59.25,510.5 -59.25,483.5 
	-45.75,483.5 -45.75,470 "/>
<polygon fill="#009246" stroke="#000000" stroke-width="1.5" points="-59.25,537.5 -59.25,578 -86.25,578 -86.25,551 -72.75,551 
	-72.75,537.5 "/>
<polygon fill="#009246" stroke="#000000" stroke-width="1.5" points="-59.25,510.5 -59.25,551 -45.75,551 -45.75,537.5 
	-32.25,537.5 -32.25,510.5 "/>
<polygon fill="#009246" stroke="#000000" stroke-width="1.5" points="-32.25,537.5 -32.25,578 -59.25,578 -59.25,551 -45.75,551 
	-45.75,537.5 "/>
<polygon fill="#009246" stroke="#000000" stroke-width="1.5" points="-32.25,510.5 -32.25,551 -18.75,551 -18.75,537.5 -5.25,537.5 
	-5.25,510.5 "/>
<polygon fill="#009246" stroke="#000000" stroke-width="1.5" points="-5.25,537.5 -5.25,578 -32.25,578 -32.25,551 -18.75,551 
	-18.75,537.5 "/>
<polygon fill="#009246" stroke="#000000" stroke-width="1.5" points="-5.25,510.5 -5.25,551 8.25,551 8.25,537.5 21.75,537.5 
	21.75,510.5 "/>
<polygon fill="#009246" stroke="#000000" stroke-width="1.5" points="21.75,537.5 21.75,578 -5.25,578 -5.25,551 8.25,551 
	8.25,537.5 "/>
<polygon fill="#009246" stroke="#000000" stroke-width="1.5" points="318.75,173 318.75,213.5 332.25,213.5 332.25,200 345.75,200 
	345.75,173 "/>
<polygon fill="#009246" stroke="#000000" stroke-width="1.5" points="372.75,105.5 372.75,146 386.25,146 386.25,132.5 
	399.75,132.5 399.75,105.5 "/>
<polygon fill="#009246" stroke="#000000" stroke-width="1.5" points="399.75,132.5 399.75,173 372.75,173 372.75,146 386.25,146 
	386.25,132.5 "/>
<polygon fill="#009246" stroke="#000000" stroke-width="1.5" points="399.75,105.5 399.75,146 413.25,146 413.25,132.5 
	426.75,132.5 426.75,105.5 "/>
<polygon fill="#009246" stroke="#000000" stroke-width="1.5" points="426.75,132.5 426.75,173 399.75,173 399.75,146 413.25,146 
	413.25,132.5 "/>
<polygon fill="#009246" stroke="#000000" stroke-width="1.5" points="318.75,105.5 318.75,146 332.25,146 332.25,132.5 
	345.75,132.5 345.75,105.5 "/>
<polygon fill="#009246" stroke="#000000" stroke-width="1.5" points="345.75,132.5 345.75,173 318.75,173 318.75,146 332.25,146 
	332.25,132.5 "/>
<polygon fill="#009246" stroke="#000000" stroke-width="1.5" points="345.75,105.5 345.75,146 359.25,146 359.25,132.5 
	372.75,132.5 372.75,105.5 "/>
<polygon fill="#009246" stroke="#000000" stroke-width="1.5" points="372.75,132.5 372.75,173 345.75,173 345.75,146 359.25,146 
	359.25,132.5 "/>
<polygon fill="#009246" stroke="#000000" stroke-width="1.5" points="345.75,200 345.75,240.5 318.75,240.5 318.75,213.5 
	332.25,213.5 332.25,200 "/>
<polygon fill="#009246" stroke="#000000" stroke-width="1.5" points="291.75,173 291.75,213.5 305.25,213.5 305.25,200 318.75,200 
	318.75,173 "/>
<polygon fill="#009246" stroke="#000000" stroke-width="1.5" points="291.75,105.5 291.75,146 305.25,146 305.25,132.5 
	318.75,132.5 318.75,105.5 "/>
<polygon fill="#009246" stroke="#000000" stroke-width="1.5" points="318.75,132.5 318.75,173 291.75,173 291.75,146 305.25,146 
	305.25,132.5 "/>
<polygon fill="#009246" stroke="#000000" stroke-width="1.5" points="318.75,200 318.75,240.5 291.75,240.5 291.75,213.5 
	305.25,213.5 305.25,200 "/>
<polygon fill="#009246" stroke="#000000" stroke-width="1.5" points="345.75,173 345.75,213.5 359.25,213.5 359.25,200 372.75,200 
	372.75,173 "/>
<polygon fill="#009246" stroke="#000000" stroke-width="1.5" points="372.75,200 372.75,240.5 345.75,240.5 345.75,213.5 
	359.25,213.5 359.25,200 "/>
<polygon fill="#009246" stroke="#000000" stroke-width="1.5" points="372.75,173 372.75,213.5 386.25,213.5 386.25,200 399.75,200 
	399.75,173 "/>
<polygon fill="#009246" stroke="#000000" stroke-width="1.5" points="399.75,200 399.75,240.5 372.75,240.5 372.75,213.5 
	386.25,213.5 386.25,200 "/>
<polygon fill="#009246" stroke="#000000" stroke-width="1.5" points="399.75,173 399.75,213.5 413.25,213.5 413.25,200 426.75,200 
	426.75,173 "/>
<polygon fill="#009246" stroke="#000000" stroke-width="1.5" points="426.75,200 426.75,240.5 399.75,240.5 399.75,213.5 
	413.25,213.5 413.25,200 "/>
<polygon fill="#009246" stroke="#000000" stroke-width="1.5" points="102.75,429.5 102.75,470 75.75,470 75.75,443 89.25,443 
	89.25,429.5 "/>
<polygon fill="#009246" stroke="#000000" stroke-width="1.5" points="-18.75,389 21.75,389 21.75,402.5 8.25,402.5 8.25,416 
	-18.75,416 "/>
<polygon fill="#009246" stroke="#000000" stroke-width="1.5" points="8.25,416 48.75,416 48.75,389 21.75,389 21.75,402.5 
	8.25,402.5 "/>
<polygon fill="#009246" stroke="#000000" stroke-width="1.5" points="21.75,497 62.25,497 62.25,470 35.25,470 35.25,483.5 
	21.75,483.5 "/>
<polygon fill="#009246" stroke="#000000" stroke-width="1.5" points="48.75,443 89.25,443 89.25,416 62.25,416 62.25,429.5 
	48.75,429.5 "/>
<polygon fill="#009246" stroke="#000000" stroke-width="1.5" points="-18.75,416 21.75,416 21.75,429.5 8.25,429.5 8.25,443 
	-18.75,443 "/>
<polygon fill="#009246" stroke="#000000" stroke-width="1.5" points="8.25,443 48.75,443 48.75,416 21.75,416 21.75,429.5 
	8.25,429.5 "/>
<polygon fill="#009246" stroke="#000000" stroke-width="1.5" points="-86.25,389 -45.75,389 -45.75,402.5 -59.25,402.5 -59.25,416 
	-86.25,416 "/>
<polygon fill="#009246" stroke="#000000" stroke-width="1.5" points="-59.25,416 -18.75,416 -18.75,389 -45.75,389 -45.75,402.5 
	-59.25,402.5 "/>
<polygon fill="#009246" stroke="#000000" stroke-width="1.5" points="-86.25,416 -45.75,416 -45.75,429.5 -59.25,429.5 -59.25,443 
	-86.25,443 "/>
<polygon fill="#009246" stroke="#000000" stroke-width="1.5" points="-59.25,443 -18.75,443 -18.75,416 -45.75,416 -45.75,429.5 
	-59.25,429.5 "/>
<polygon fill="#009246" stroke="#000000" stroke-width="1.5" points="62.25,497 102.75,497 102.75,470 75.75,470 75.75,483.5 
	62.25,483.5 "/>
<g>
	<path d="M-84.938,599.009c0-1.025-0.019-1.905-0.072-2.716h1.385l0.072,1.726h0.054c0.396-1.167,1.368-1.905,2.429-1.905
		c0.162,0,0.288,0.018,0.432,0.035v1.492c-0.162-0.035-0.324-0.035-0.54-0.035c-1.115,0-1.906,0.828-2.124,2.016
		c-0.036,0.215-0.054,0.486-0.054,0.736V605h-1.581V599.009z"/>
	<path d="M-78.35,600.934c0.036,2.142,1.385,3.023,2.986,3.023c1.133,0,1.835-0.197,2.411-0.449l0.288,1.132
		c-0.559,0.252-1.529,0.558-2.915,0.558c-2.681,0-4.281-1.781-4.281-4.406s1.548-4.677,4.085-4.677c2.86,0,3.598,2.483,3.598,4.084
		c0,0.323-0.018,0.558-0.053,0.737h-6.119V600.934z M-73.709,599.801c0.019-0.99-0.414-2.555-2.194-2.555
		c-1.62,0-2.303,1.458-2.429,2.555H-73.709z"/>
	<path d="M-70.214,599.135c0-1.115-0.036-2.014-0.071-2.842h1.404l0.09,1.492h0.035c0.629-1.061,1.673-1.672,3.094-1.672
		c2.124,0,3.706,1.781,3.706,4.406c0,3.13-1.925,4.677-3.976,4.677c-1.151,0-2.158-0.504-2.68-1.366h-0.036v4.73h-1.564v-9.426
		H-70.214z M-68.649,601.457c0,0.232,0.019,0.449,0.073,0.648c0.287,1.096,1.241,1.852,2.374,1.852c1.674,0,2.644-1.368,2.644-3.365
		c0-1.725-0.917-3.218-2.59-3.218c-1.08,0-2.104,0.756-2.393,1.942c-0.054,0.197-0.108,0.432-0.108,0.63V601.457z"/>
	<path d="M-56.031,599.566v1.153h-4.442v-1.153H-56.031z"/>
	<path d="M-47.088,593.307v1.044L-52.181,605h-1.636l5.072-10.344v-0.035h-5.721v-1.313L-47.088,593.307L-47.088,593.307z"/>
	<path d="M-45.646,599v-0.729l0.932-0.903c2.242-2.135,3.269-3.269,3.269-4.594c0-0.891-0.419-1.716-1.729-1.716
		c-0.796,0-1.458,0.405-1.864,0.743l-0.378-0.838c0.595-0.5,1.472-0.893,2.471-0.893c1.89,0,2.688,1.297,2.688,2.553
		c0,1.621-1.176,2.93-3.026,4.713l-0.688,0.65v0.026h3.931V599H-45.646z"/>
</g>
<g>
	<path d="M-83.317,336.375V348.5h-1.584v-12.125H-83.317z"/>
	<path d="M-80.454,342.148c0-0.916-0.02-1.637-0.073-2.355h1.404l0.091,1.438h0.034c0.433-0.81,1.44-1.62,2.879-1.62
		c1.206,0,3.077,0.719,3.077,3.706v5.183h-1.583v-5.019c0-1.405-0.522-2.572-2.017-2.572c-1.025,0-1.835,0.737-2.122,1.617
		c-0.072,0.199-0.107,0.469-0.107,0.738v5.235h-1.583V342.148z"/>
	<path d="M-62.963,335.729v10.523c0,0.773,0.035,1.653,0.072,2.248h-1.403l-0.073-1.51h-0.053c-0.469,0.969-1.513,1.707-2.933,1.707
		c-2.105,0-3.741-1.781-3.741-4.425c-0.02-2.896,1.799-4.658,3.904-4.658c1.349,0,2.23,0.63,2.627,1.312h0.034v-5.198H-62.963z
		 M-64.528,343.336c0-0.197-0.018-0.467-0.072-0.664c-0.232-0.99-1.097-1.816-2.284-1.816c-1.637,0-2.607,1.438-2.607,3.346
		c0,1.762,0.882,3.219,2.573,3.219c1.062,0,2.032-0.719,2.32-1.888c0.054-0.217,0.071-0.433,0.071-0.685L-64.528,343.336
		L-64.528,343.336z"/>
	<path d="M-53.028,346.107c0,0.918,0.021,1.71,0.073,2.393h-1.403l-0.091-1.421h-0.035c-0.397,0.703-1.332,1.618-2.879,1.618
		c-1.367,0-3.004-0.773-3.004-3.812v-5.09h1.582v4.803c0,1.655,0.523,2.787,1.944,2.787c1.061,0,1.799-0.738,2.087-1.455
		c0.091-0.217,0.146-0.504,0.146-0.811v-5.324h1.582v6.312H-53.028z"/>
	<path d="M-44.188,348.193c-0.413,0.198-1.332,0.504-2.502,0.504c-2.626,0-4.335-1.781-4.335-4.442c0-2.681,1.835-4.641,4.678-4.641
		c0.935,0,1.762,0.234,2.194,0.468l-0.358,1.205c-0.378-0.199-0.972-0.413-1.836-0.413c-1.997,0-3.077,1.493-3.077,3.292
		c0,2.014,1.295,3.256,3.022,3.256c0.9,0,1.493-0.217,1.942-0.414L-44.188,348.193z"/>
	<path d="M-40.191,337.705v2.09h2.268v1.203h-2.268v4.695c0,1.08,0.307,1.69,1.188,1.69c0.433,0,0.685-0.035,0.916-0.108
		l0.073,1.205c-0.305,0.107-0.791,0.216-1.404,0.216c-0.737,0-1.331-0.252-1.709-0.665c-0.432-0.486-0.612-1.26-0.612-2.285v-4.75
		h-1.349v-1.205h1.349v-1.619L-40.191,337.705z"/>
	<path d="M-34.377,337.347c0,0.539-0.378,0.972-1.008,0.972c-0.576,0-0.954-0.433-0.954-0.972c0-0.54,0.397-0.99,0.99-0.99
		C-34.773,336.356-34.377,336.789-34.377,337.347z M-36.139,348.5v-8.707h1.582v8.707H-36.139z"/>
	<path d="M-24.049,344.074c0,3.221-2.247,4.623-4.336,4.623c-2.34,0-4.173-1.725-4.173-4.478c0-2.897,1.925-4.605,4.317-4.605
		C-25.74,339.613-24.049,341.431-24.049,344.074z M-30.939,344.164c0,1.906,1.081,3.346,2.627,3.346
		c1.512,0,2.645-1.421,2.645-3.383c0-1.475-0.736-3.328-2.607-3.328C-30.129,340.801-30.939,342.526-30.939,344.164z"/>
	<path d="M-22.045,342.148c0-0.916-0.02-1.637-0.074-2.355h1.404l0.092,1.438h0.034c0.432-0.81,1.439-1.62,2.878-1.62
		c1.207,0,3.077,0.719,3.077,3.706v5.183h-1.583v-5.019c0-1.405-0.523-2.572-2.016-2.572c-1.025,0-1.836,0.737-2.122,1.617
		c-0.073,0.199-0.108,0.469-0.108,0.738v5.235h-1.582V342.148z"/>
	<path d="M-12.415,341.232c0-0.666,0.449-1.133,1.061-1.133c0.648,0,1.062,0.467,1.062,1.133c0,0.629-0.413,1.117-1.08,1.117
		C-11.983,342.348-12.415,341.861-12.415,341.232z M-12.415,347.582c0-0.666,0.449-1.133,1.061-1.133
		c0.648,0,1.062,0.469,1.062,1.133c0,0.629-0.413,1.115-1.08,1.115C-11.983,348.697-12.415,348.211-12.415,347.582z"/>
	<path d="M-4.479,336.375h6.531v1.312h-4.948v4.03h4.569v1.295h-4.569v5.487h-1.583V336.375z"/>
	<path d="M5.545,337.347c0,0.539-0.378,0.972-1.008,0.972c-0.575,0-0.953-0.433-0.953-0.972c0-0.54,0.396-0.99,0.989-0.99
		C5.151,336.356,5.545,336.789,5.545,337.347z M3.783,348.5v-8.707h1.582v8.707H3.783z"/>
	<path d="M7.995,342.148c0-0.916-0.02-1.637-0.074-2.355h1.404l0.092,1.438h0.034c0.432-0.81,1.44-1.62,2.879-1.62
		c1.206,0,3.076,0.719,3.076,3.706v5.183h-1.582v-5.019c0-1.405-0.523-2.572-2.016-2.572c-1.026,0-1.837,0.737-2.123,1.617
		c-0.072,0.199-0.108,0.469-0.108,0.738v5.235H7.995V342.148z"/>
	<path d="M25.486,335.729v10.523c0,0.773,0.035,1.653,0.072,2.248h-1.404l-0.071-1.51H24.03c-0.468,0.969-1.512,1.707-2.933,1.707
		c-2.104,0-3.741-1.781-3.741-4.425c-0.02-2.896,1.799-4.658,3.904-4.658c1.349,0,2.231,0.63,2.626,1.312h0.035v-5.198H25.486z
		 M23.92,343.336c0-0.197-0.018-0.467-0.071-0.664c-0.232-0.99-1.097-1.816-2.283-1.816c-1.638,0-2.608,1.438-2.608,3.346
		c0,1.762,0.881,3.219,2.572,3.219c1.062,0,2.033-0.719,2.32-1.888c0.055-0.217,0.072-0.433,0.072-0.685v-1.512H23.92z"/>
	<path d="M38.068,346.414c0,0.754,0.036,1.491,0.126,2.086h-1.42l-0.126-1.098h-0.055c-0.484,0.685-1.42,1.295-2.662,1.295
		c-1.763,0-2.661-1.242-2.661-2.5c0-2.104,1.87-3.256,5.235-3.238v-0.181c0-0.702-0.198-2.015-1.979-1.995
		c-0.828,0-1.673,0.232-2.285,0.647l-0.359-1.062c0.72-0.45,1.781-0.756,2.878-0.756c2.663,0,3.311,1.816,3.311,3.545v3.256H38.068z
		 M36.538,344.057c-1.726-0.036-3.687,0.27-3.687,1.961c0,1.044,0.683,1.512,1.475,1.512c1.151,0,1.889-0.72,2.141-1.458
		c0.054-0.181,0.071-0.36,0.071-0.504V344.057z"/>
	<path d="M44.445,342.509c0-1.025-0.02-1.905-0.074-2.716h1.387l0.072,1.726h0.053c0.396-1.169,1.367-1.905,2.43-1.905
		c0.161,0,0.287,0.018,0.432,0.035v1.494c-0.162-0.035-0.324-0.035-0.54-0.035c-1.114,0-1.906,0.827-2.122,2.014
		c-0.035,0.215-0.055,0.486-0.055,0.738v4.641h-1.582V342.509z"/>
	<path d="M51.031,344.436c0.036,2.14,1.386,3.021,2.987,3.021c1.134,0,1.835-0.197,2.41-0.449l0.286,1.133
		c-0.558,0.252-1.529,0.559-2.912,0.559c-2.682,0-4.281-1.781-4.281-4.406s1.546-4.678,4.084-4.678c2.859,0,3.597,2.483,3.597,4.084
		c0,0.324-0.018,0.559-0.054,0.738h-6.117V344.436z M55.673,343.301c0.018-0.99-0.415-2.555-2.195-2.555
		c-1.62,0-2.302,1.457-2.428,2.555H55.673z"/>
	<path d="M59.167,342.635c0-1.116-0.036-2.014-0.073-2.842h1.404l0.092,1.492h0.034c0.63-1.062,1.672-1.672,3.095-1.672
		c2.122,0,3.707,1.781,3.707,4.406c0,3.13-1.926,4.677-3.978,4.677c-1.152,0-2.157-0.504-2.679-1.368h-0.036v4.731h-1.564v-9.425
		H59.167z M60.731,344.955c0,0.234,0.019,0.449,0.073,0.648c0.287,1.098,1.241,1.852,2.374,1.852c1.672,0,2.646-1.366,2.646-3.364
		c0-1.726-0.918-3.218-2.592-3.218c-1.08,0-2.104,0.754-2.393,1.941c-0.054,0.198-0.108,0.433-0.108,0.631V344.955z"/>
	<path d="M73.35,343.066v1.153h-4.444v-1.153H73.35z"/>
	<path d="M78.624,336.016c-1.313,1.781-2.249,4.102-2.249,7.375c0,3.202,0.989,5.487,2.249,7.286h-1.223
		c-1.134-1.494-2.356-3.797-2.356-7.304c0.018-3.525,1.223-5.848,2.356-7.357H78.624z"/>
	<path d="M79.527,348.5l1.152-6.172c0.197-0.969,0.323-1.816,0.413-2.535h1.331l-0.216,1.708h0.036
		c0.773-1.224,1.96-1.907,3.219-1.907c1.042,0,2.214,0.595,2.214,2.411c0,0.396-0.074,0.937-0.163,1.405l-0.972,5.09h-1.474
		l0.954-5.037c0.054-0.342,0.106-0.737,0.106-1.113c0-0.865-0.343-1.514-1.367-1.514c-1.062,0-2.572,1.279-2.969,3.437l-0.791,4.228
		H79.527z"/>
	<path d="M100.889,343.391v1.081h-7.916v-1.081H100.889z"/>
	<path d="M109.494,338.281h-0.034l-2.032,1.099l-0.307-1.206l2.555-1.367h1.349V348.5h-1.53V338.281L109.494,338.281z"/>
	<path d="M123.083,342.526c0,3.978-1.493,6.171-4.065,6.171c-2.285,0-3.85-2.14-3.887-6.008c0-3.939,1.71-6.081,4.085-6.081
		C121.66,336.608,123.083,338.805,123.083,342.526z M116.731,342.707c0,3.041,0.936,4.768,2.374,4.768
		c1.602,0,2.375-1.89,2.375-4.875c0-2.879-0.719-4.77-2.375-4.77C117.74,337.832,116.731,339.521,116.731,342.707z"/>
	<path d="M124.078,350.677c1.259-1.782,2.248-4.102,2.248-7.341c0-3.236-0.97-5.521-2.248-7.32h1.223
		c1.133,1.475,2.356,3.795,2.356,7.32c-0.02,3.527-1.224,5.83-2.356,7.341H124.078z"/>
	<path d="M129.437,342.5v-0.729l0.932-0.903c2.241-2.133,3.269-3.269,3.269-4.593c0-0.891-0.419-1.714-1.729-1.714
		c-0.796,0-1.459,0.404-1.863,0.742l-0.378-0.836c0.595-0.501,1.47-0.893,2.471-0.893c1.891,0,2.687,1.297,2.687,2.554
		c0,1.62-1.174,2.93-3.025,4.712l-0.688,0.649v0.026h3.929v0.984H129.437z"/>
	<path d="M142.788,337.705v2.09h2.269v1.203h-2.269v4.695c0,1.08,0.306,1.69,1.188,1.69c0.433,0,0.685-0.035,0.917-0.108
		l0.072,1.205c-0.305,0.107-0.791,0.216-1.404,0.216c-0.736,0-1.331-0.252-1.709-0.665c-0.432-0.486-0.611-1.26-0.611-2.285v-4.75
		h-1.35v-1.205h1.35v-1.619L142.788,337.705z"/>
	<path d="M148.602,337.347c0,0.539-0.378,0.972-1.008,0.972c-0.575,0-0.954-0.433-0.954-0.972c0-0.54,0.397-0.99,0.99-0.99
		C148.208,336.356,148.602,336.789,148.602,337.347z M146.841,348.5v-8.707h1.583v8.707H146.841z"/>
	<path d="M151.052,335.729h1.582V348.5h-1.582V335.729z"/>
	<path d="M157.062,337.347c0,0.539-0.379,0.972-1.008,0.972c-0.577,0-0.955-0.433-0.955-0.972c0-0.54,0.398-0.99,0.99-0.99
		C156.666,336.356,157.062,336.789,157.062,337.347z M155.3,348.5v-8.707h1.582v8.707H155.3z"/>
	<path d="M159.512,342.148c0-0.916-0.02-1.637-0.074-2.355h1.404l0.092,1.438h0.034c0.433-0.81,1.44-1.62,2.879-1.62
		c1.206,0,3.077,0.719,3.077,3.706v5.183h-1.583v-5.019c0-1.405-0.522-2.572-2.017-2.572c-1.025,0-1.836,0.737-2.122,1.617
		c-0.072,0.199-0.108,0.469-0.108,0.738v5.235h-1.582V342.148L159.512,342.148z"/>
	<path d="M176.949,347.223c0,2.014-0.414,3.22-1.24,3.993c-0.864,0.774-2.088,1.044-3.185,1.044c-1.045,0-2.196-0.252-2.898-0.719
		l0.397-1.223c0.576,0.377,1.475,0.701,2.555,0.701c1.618,0,2.805-0.846,2.805-3.059v-0.953h-0.034
		c-0.468,0.81-1.421,1.457-2.771,1.457c-2.159,0-3.707-1.834-3.707-4.245c0-2.952,1.926-4.605,3.939-4.605
		c1.512,0,2.322,0.773,2.718,1.494h0.034l0.055-1.312h1.404c-0.055,0.612-0.072,1.33-0.072,2.374V347.223z M175.365,343.229
		c0-0.271-0.019-0.504-0.09-0.703c-0.288-0.937-1.045-1.69-2.215-1.69c-1.51,0-2.59,1.279-2.59,3.293
		c0,1.709,0.882,3.131,2.572,3.131c0.988,0,1.87-0.613,2.195-1.619c0.091-0.27,0.125-0.576,0.125-0.846v-1.565H175.365z"/>
	<path d="M178.27,350.73c0.396-1.08,0.88-3.004,1.078-4.316l1.764-0.18c-0.432,1.529-1.223,3.525-1.727,4.372L178.27,350.73z"/>
	<path d="M188.74,337.705v2.09h2.268v1.203h-2.268v4.695c0,1.08,0.306,1.69,1.188,1.69c0.433,0,0.685-0.035,0.916-0.108l0.072,1.205
		c-0.304,0.107-0.79,0.216-1.404,0.216c-0.736,0-1.33-0.252-1.708-0.665c-0.432-0.486-0.612-1.26-0.612-2.285v-4.75h-1.349v-1.205
		h1.349v-1.619L188.74,337.705z"/>
	<path d="M192.792,335.729h1.583v5.45h0.035c0.252-0.45,0.648-0.864,1.134-1.132c0.468-0.271,1.026-0.433,1.619-0.433
		c1.168,0,3.038,0.72,3.038,3.706v5.18h-1.582v-5.001c0-1.403-0.522-2.572-2.016-2.572c-1.026,0-1.816,0.72-2.123,1.564
		c-0.089,0.234-0.107,0.468-0.107,0.756v5.253h-1.583v-12.771H192.792z"/>
	<path d="M203.663,344.436c0.035,2.14,1.386,3.021,2.985,3.021c1.134,0,1.837-0.197,2.411-0.449l0.287,1.133
		c-0.56,0.252-1.53,0.559-2.913,0.559c-2.682,0-4.282-1.781-4.282-4.406s1.547-4.678,4.085-4.678c2.858,0,3.597,2.483,3.597,4.084
		c0,0.324-0.019,0.559-0.053,0.738h-6.117V344.436z M208.305,343.301c0.018-0.99-0.414-2.555-2.193-2.555
		c-1.621,0-2.303,1.457-2.43,2.555H208.305z"/>
	<path d="M211.801,342.148c0-0.916-0.02-1.637-0.075-2.355h1.405l0.092,1.438h0.033c0.433-0.81,1.44-1.62,2.879-1.62
		c1.207,0,3.076,0.719,3.076,3.706v5.183h-1.582v-5.019c0-1.405-0.521-2.572-2.016-2.572c-1.025,0-1.837,0.737-2.123,1.617
		c-0.071,0.199-0.107,0.469-0.107,0.738v5.235h-1.582V342.148z"/>
	<path d="M231.721,346.414c0,0.754,0.037,1.491,0.126,2.086h-1.419l-0.127-1.098h-0.054c-0.486,0.685-1.421,1.295-2.663,1.295
		c-1.762,0-2.66-1.242-2.66-2.5c0-2.104,1.869-3.256,5.235-3.238v-0.181c0-0.702-0.199-2.015-1.979-1.995
		c-0.827,0-1.672,0.232-2.283,0.647l-0.36-1.062c0.72-0.45,1.781-0.756,2.877-0.756c2.663,0,3.311,1.816,3.311,3.545v3.256H231.721z
		 M230.193,344.057c-1.728-0.036-3.688,0.27-3.688,1.961c0,1.044,0.683,1.512,1.474,1.512c1.153,0,1.89-0.72,2.142-1.458
		c0.055-0.181,0.072-0.36,0.072-0.504V344.057L230.193,344.057z"/>
	<path d="M241.784,335.729v10.523c0,0.773,0.034,1.653,0.07,2.248h-1.403l-0.072-1.51h-0.054c-0.469,0.969-1.512,1.707-2.933,1.707
		c-2.104,0-3.741-1.781-3.741-4.425c-0.019-2.896,1.799-4.658,3.905-4.658c1.348,0,2.229,0.63,2.627,1.312h0.033v-5.198H241.784z
		 M240.22,343.336c0-0.197-0.019-0.467-0.073-0.664c-0.231-0.99-1.096-1.816-2.283-1.816c-1.637,0-2.607,1.438-2.607,3.346
		c0,1.762,0.881,3.219,2.572,3.219c1.062,0,2.033-0.719,2.321-1.888c0.053-0.217,0.07-0.433,0.07-0.685V343.336L240.22,343.336z"/>
	<path d="M251.936,335.729v10.523c0,0.773,0.035,1.653,0.072,2.248h-1.405l-0.07-1.51h-0.056c-0.467,0.969-1.512,1.707-2.933,1.707
		c-2.104,0-3.739-1.781-3.739-4.425c-0.02-2.896,1.797-4.658,3.903-4.658c1.349,0,2.231,0.63,2.628,1.312h0.033v-5.198H251.936z
		 M250.369,343.336c0-0.197-0.019-0.467-0.071-0.664c-0.233-0.99-1.097-1.816-2.285-1.816c-1.636,0-2.607,1.438-2.607,3.346
		c0,1.762,0.882,3.219,2.572,3.219c1.063,0,2.033-0.719,2.321-1.888c0.055-0.217,0.072-0.433,0.072-0.685v-1.512H250.369z"/>
	<path d="M258.437,336.375h1.585v10.812h5.18v1.312h-6.765V336.375z"/>
	<path d="M269.811,343.066v1.153h-4.443v-1.153H269.811z"/>
	<path d="M271.45,346.898c0.486,0.289,1.313,0.613,2.104,0.613c1.135,0,1.672-0.559,1.672-1.295c0-0.756-0.448-1.152-1.6-1.584
		c-1.585-0.576-2.32-1.421-2.32-2.464c0-1.405,1.151-2.555,3.004-2.555c0.883,0,1.657,0.234,2.123,0.539l-0.378,1.153
		c-0.343-0.217-0.97-0.521-1.781-0.521c-0.935,0-1.438,0.539-1.438,1.188c0,0.718,0.504,1.041,1.635,1.491
		c1.494,0.558,2.285,1.313,2.285,2.608c0,1.547-1.205,2.627-3.237,2.627c-0.954,0-1.835-0.252-2.448-0.612L271.45,346.898z"/>
	<path d="M278.795,335.729h1.582v5.45h0.035c0.252-0.45,0.648-0.864,1.135-1.132c0.468-0.271,1.025-0.433,1.619-0.433
		c1.169,0,3.038,0.72,3.038,3.706v5.18h-1.582v-5.001c0-1.403-0.524-2.572-2.016-2.572c-1.026,0-1.816,0.72-2.122,1.564
		c-0.09,0.234-0.109,0.468-0.109,0.756v5.253h-1.583v-12.771H278.795z"/>
	<path d="M294.902,346.414c0,0.754,0.035,1.491,0.126,2.086h-1.421l-0.126-1.098h-0.054c-0.486,0.685-1.422,1.295-2.664,1.295
		c-1.762,0-2.661-1.242-2.661-2.5c0-2.104,1.872-3.256,5.235-3.238v-0.181c0-0.702-0.196-2.015-1.978-1.995
		c-0.829,0-1.673,0.232-2.285,0.647l-0.36-1.062c0.721-0.45,1.783-0.756,2.88-0.756c2.661,0,3.311,1.816,3.311,3.545v3.256H294.902z
		 M293.371,344.057c-1.727-0.036-3.687,0.27-3.687,1.961c0,1.044,0.683,1.512,1.474,1.512c1.152,0,1.89-0.72,2.142-1.458
		c0.053-0.181,0.071-0.36,0.071-0.504V344.057z"/>
	<path d="M297.463,342.635c0-1.116-0.037-2.014-0.074-2.842h1.404l0.091,1.492h0.035c0.63-1.062,1.673-1.672,3.094-1.672
		c2.122,0,3.706,1.781,3.706,4.406c0,3.13-1.924,4.677-3.976,4.677c-1.151,0-2.156-0.504-2.679-1.368h-0.037v4.731h-1.564V342.635
		L297.463,342.635z M299.027,344.955c0,0.234,0.018,0.449,0.07,0.648c0.289,1.098,1.242,1.852,2.376,1.852
		c1.673,0,2.646-1.366,2.646-3.364c0-1.726-0.918-3.218-2.593-3.218c-1.079,0-2.104,0.754-2.392,1.941
		c-0.055,0.198-0.107,0.433-0.107,0.631V344.955L299.027,344.955z"/>
	<path d="M308.584,344.436c0.037,2.14,1.386,3.021,2.986,3.021c1.136,0,1.836-0.197,2.41-0.449l0.287,1.133
		c-0.557,0.252-1.529,0.559-2.912,0.559c-2.681,0-4.281-1.781-4.281-4.406s1.547-4.678,4.085-4.678c2.859,0,3.597,2.483,3.597,4.084
		c0,0.324-0.02,0.559-0.055,0.738h-6.117V344.436z M313.225,343.301c0.02-0.99-0.413-2.555-2.194-2.555
		c-1.62,0-2.303,1.457-2.429,2.555H313.225z"/>
	<path d="M316.504,346.898c0.486,0.289,1.314,0.613,2.105,0.613c1.134,0,1.673-0.559,1.673-1.295c0-0.756-0.451-1.152-1.601-1.584
		c-1.584-0.576-2.32-1.421-2.32-2.464c0-1.405,1.15-2.555,3.004-2.555c0.882,0,1.655,0.234,2.123,0.539l-0.379,1.153
		c-0.341-0.217-0.971-0.521-1.782-0.521c-0.935,0-1.438,0.539-1.438,1.188c0,0.718,0.504,1.041,1.638,1.491
		c1.494,0.558,2.284,1.313,2.284,2.608c0,1.547-1.206,2.627-3.238,2.627c-0.953,0-1.835-0.252-2.447-0.612L316.504,346.898z"/>
	<path d="M329.57,337.705v2.09h2.27v1.203h-2.27v4.695c0,1.08,0.307,1.69,1.188,1.69c0.433,0,0.685-0.035,0.917-0.108l0.072,1.205
		c-0.305,0.107-0.79,0.216-1.405,0.216c-0.735,0-1.33-0.252-1.708-0.665c-0.432-0.486-0.612-1.26-0.612-2.285v-4.75h-1.348v-1.205
		h1.348v-1.619L329.57,337.705z"/>
	<path d="M341.394,344.074c0,3.221-2.247,4.623-4.336,4.623c-2.341,0-4.173-1.725-4.173-4.478c0-2.897,1.924-4.605,4.316-4.605
		C339.701,339.613,341.394,341.431,341.394,344.074z M334.503,344.164c0,1.906,1.081,3.346,2.626,3.346
		c1.514,0,2.645-1.421,2.645-3.383c0-1.475-0.735-3.328-2.607-3.328C335.312,340.801,334.503,342.526,334.503,344.164z"/>
	<path d="M347.212,335.729h1.564v5.468h0.036c0.557-0.972,1.564-1.583,2.97-1.583c2.177,0,3.688,1.799,3.688,4.425
		c0,3.111-1.979,4.658-3.923,4.658c-1.26,0-2.268-0.486-2.933-1.618h-0.035l-0.09,1.42h-1.349c0.035-0.594,0.073-1.475,0.073-2.248
		v-10.521H347.212z M348.776,345.01c0,0.197,0.018,0.396,0.073,0.575c0.287,1.097,1.222,1.853,2.373,1.853
		c1.673,0,2.646-1.349,2.646-3.347c0-1.743-0.9-3.237-2.608-3.237c-1.062,0-2.069,0.756-2.394,1.942
		c-0.053,0.198-0.091,0.413-0.091,0.663V345.01z"/>
	<path d="M365.335,344.074c0,3.221-2.25,4.623-4.337,4.623c-2.34,0-4.174-1.725-4.174-4.478c0-2.897,1.925-4.605,4.316-4.605
		C363.642,339.613,365.335,341.431,365.335,344.074z M358.443,344.164c0,1.906,1.079,3.346,2.626,3.346
		c1.512,0,2.646-1.421,2.646-3.383c0-1.475-0.738-3.328-2.607-3.328C359.253,340.801,358.443,342.526,358.443,344.164z"/>
	<path d="M369.242,337.705v2.09h2.268v1.203h-2.268v4.695c0,1.08,0.306,1.69,1.188,1.69c0.432,0,0.684-0.035,0.917-0.108l0.07,1.205
		c-0.304,0.107-0.79,0.216-1.403,0.216c-0.735,0-1.33-0.252-1.708-0.665c-0.433-0.486-0.612-1.26-0.612-2.285v-4.75h-1.348v-1.205
		h1.348v-1.619L369.242,337.705z"/>
	<path d="M373.292,335.729h1.583v5.45h0.037c0.252-0.45,0.647-0.864,1.134-1.132c0.468-0.271,1.025-0.433,1.617-0.433
		c1.169,0,3.04,0.72,3.04,3.706v5.18h-1.582v-5.001c0-1.403-0.523-2.572-2.018-2.572c-1.025,0-1.816,0.72-2.121,1.564
		c-0.091,0.234-0.108,0.468-0.108,0.756v5.253h-1.582V335.729L373.292,335.729z"/>
	<path d="M386.883,346.898c0.486,0.289,1.314,0.613,2.105,0.613c1.133,0,1.671-0.559,1.671-1.295c0-0.756-0.448-1.152-1.6-1.584
		c-1.585-0.576-2.32-1.421-2.32-2.464c0-1.405,1.151-2.555,3.005-2.555c0.881,0,1.656,0.234,2.122,0.539l-0.378,1.153
		c-0.343-0.217-0.97-0.521-1.781-0.521c-0.935,0-1.438,0.539-1.438,1.188c0,0.718,0.504,1.041,1.635,1.491
		c1.494,0.558,2.285,1.313,2.285,2.608c0,1.547-1.206,2.627-3.239,2.627c-0.951,0-1.834-0.252-2.445-0.612L386.883,346.898z"/>
	<path d="M400.163,347.168h-0.035c-0.486,0.846-1.44,1.529-2.845,1.529c-2.03,0-3.686-1.744-3.686-4.389
		c0-3.273,2.104-4.694,3.938-4.694c1.35,0,2.25,0.665,2.681,1.494h0.036l0.055-1.312h1.492c-0.036,0.718-0.071,1.493-0.071,2.392
		v9.877h-1.567v-4.896H400.163z M400.163,343.318c0-0.215-0.018-0.449-0.073-0.646c-0.252-0.973-1.08-1.799-2.266-1.799
		c-1.639,0-2.627,1.384-2.627,3.328c0,1.744,0.829,3.238,2.572,3.238c1.025,0,1.907-0.63,2.268-1.709
		c0.073-0.234,0.126-0.541,0.126-0.775V343.318z"/>
	<path d="M411.647,346.107c0,0.918,0.018,1.71,0.073,2.393h-1.404l-0.093-1.421h-0.034c-0.396,0.703-1.331,1.618-2.878,1.618
		c-1.368,0-3.005-0.773-3.005-3.812v-5.09h1.582v4.803c0,1.655,0.523,2.787,1.944,2.787c1.061,0,1.799-0.738,2.086-1.455
		c0.093-0.217,0.146-0.504,0.146-0.811v-5.324h1.582V346.107L411.647,346.107z"/>
	<path d="M420.396,346.414c0,0.754,0.036,1.491,0.126,2.086h-1.421l-0.126-1.098h-0.056c-0.483,0.685-1.419,1.295-2.661,1.295
		c-1.763,0-2.662-1.242-2.662-2.5c0-2.104,1.872-3.256,5.235-3.238v-0.181c0-0.702-0.198-2.015-1.978-1.995
		c-0.829,0-1.673,0.232-2.285,0.647l-0.36-1.062c0.721-0.45,1.782-0.756,2.88-0.756c2.662,0,3.311,1.816,3.311,3.545v3.256H420.396z
		 M418.866,344.057c-1.728-0.036-3.687,0.27-3.687,1.961c0,1.044,0.682,1.512,1.475,1.512c1.151,0,1.887-0.72,2.139-1.458
		c0.056-0.181,0.073-0.36,0.073-0.504V344.057z"/>
	<path d="M422.956,342.509c0-1.025-0.019-1.905-0.073-2.716h1.386l0.073,1.726h0.053c0.396-1.169,1.367-1.905,2.429-1.905
		c0.163,0,0.287,0.018,0.433,0.035v1.494c-0.163-0.035-0.324-0.035-0.541-0.035c-1.113,0-1.906,0.827-2.121,2.014
		c-0.035,0.215-0.056,0.486-0.056,0.738v4.641h-1.582V342.509z"/>
	<path d="M429.542,344.436c0.035,2.14,1.386,3.021,2.985,3.021c1.134,0,1.837-0.197,2.411-0.449l0.287,1.133
		c-0.56,0.252-1.53,0.559-2.913,0.559c-2.682,0-4.282-1.781-4.282-4.406s1.547-4.678,4.085-4.678c2.858,0,3.597,2.483,3.597,4.084
		c0,0.324-0.019,0.559-0.053,0.738h-6.117V344.436z M434.184,343.301c0.018-0.99-0.414-2.555-2.193-2.555
		c-1.621,0-2.303,1.457-2.43,2.555H434.184z"/>
	<path d="M437.464,346.898c0.485,0.289,1.312,0.613,2.104,0.613c1.134,0,1.673-0.559,1.673-1.295c0-0.756-0.451-1.152-1.602-1.584
		c-1.583-0.576-2.32-1.421-2.32-2.464c0-1.405,1.153-2.555,3.005-2.555c0.882,0,1.655,0.234,2.122,0.539l-0.377,1.153
		c-0.342-0.217-0.972-0.521-1.783-0.521c-0.935,0-1.438,0.539-1.438,1.188c0,0.718,0.504,1.041,1.638,1.491
		c1.494,0.558,2.285,1.313,2.285,2.608c0,1.547-1.207,2.627-3.237,2.627c-0.955,0-1.837-0.252-2.449-0.612L437.464,346.898z"/>
</g>
<g>
	<path d="M-30.901,79.875h1.584v10.812h5.181V92h-6.765V79.875z"/>
	<path d="M-19.527,86.566v1.152h-4.442v-1.152H-19.527z"/>
	<path d="M-17.886,90.399c0.485,0.288,1.312,0.612,2.104,0.612c1.134,0,1.673-0.559,1.673-1.295c0-0.756-0.45-1.152-1.602-1.584
		c-1.582-0.576-2.32-1.42-2.32-2.465c0-1.404,1.152-2.554,3.005-2.554c0.88,0,1.654,0.233,2.122,0.54l-0.378,1.152
		c-0.342-0.217-0.971-0.522-1.78-0.522c-0.937,0-1.438,0.54-1.438,1.188c0,0.719,0.502,1.042,1.637,1.493
		c1.492,0.558,2.284,1.313,2.284,2.607c0,1.547-1.204,2.627-3.238,2.627c-0.954,0-1.835-0.252-2.446-0.611L-17.886,90.399z"/>
	<path d="M-10.542,79.228h1.584v5.451h0.036c0.252-0.45,0.647-0.864,1.133-1.132c0.468-0.271,1.025-0.433,1.62-0.433
		c1.168,0,3.04,0.72,3.04,3.706V92h-1.584v-5.001c0-1.404-0.522-2.572-2.015-2.572c-1.026,0-1.816,0.72-2.122,1.564
		c-0.09,0.233-0.108,0.468-0.108,0.756V92h-1.584V79.228z"/>
	<path d="M5.563,89.913c0,0.755,0.036,1.493,0.126,2.087H4.27l-0.126-1.097H4.089c-0.486,0.685-1.421,1.294-2.662,1.294
		c-1.763,0-2.663-1.241-2.663-2.5c0-2.104,1.871-3.256,5.235-3.238v-0.18c0-0.703-0.198-2.016-1.979-1.997
		c-0.828,0-1.674,0.234-2.284,0.648l-0.36-1.062c0.719-0.451,1.78-0.756,2.878-0.756c2.663,0,3.311,1.816,3.311,3.544L5.563,89.913
		L5.563,89.913z M4.033,87.557c-1.727-0.035-3.687,0.27-3.687,1.961c0,1.044,0.684,1.512,1.474,1.512c1.152,0,1.89-0.72,2.142-1.458
		c0.054-0.181,0.071-0.359,0.071-0.504V87.557z"/>
	<path d="M8.124,86.135c0-1.115-0.036-2.014-0.071-2.843h1.403l0.09,1.493h0.036c0.629-1.062,1.672-1.672,3.094-1.672
		c2.123,0,3.705,1.781,3.705,4.406c0,3.131-1.924,4.677-3.975,4.677c-1.152,0-2.158-0.504-2.681-1.368H9.689v4.731H8.125
		L8.124,86.135L8.124,86.135z M9.688,88.456c0,0.233,0.019,0.449,0.071,0.647c0.289,1.098,1.242,1.853,2.375,1.853
		c1.674,0,2.645-1.366,2.645-3.364c0-1.727-0.918-3.219-2.59-3.219c-1.081,0-2.104,0.754-2.394,1.941
		c-0.054,0.198-0.107,0.433-0.107,0.631V88.456z"/>
	<path d="M19.246,87.936c0.036,2.14,1.385,3.022,2.986,3.022c1.133,0,1.835-0.198,2.411-0.45l0.288,1.133
		c-0.559,0.253-1.528,0.559-2.914,0.559c-2.681,0-4.281-1.782-4.281-4.407s1.548-4.677,4.084-4.677c2.861,0,3.599,2.482,3.599,4.084
		c0,0.325-0.018,0.559-0.054,0.738h-6.119V87.936z M23.887,86.801c0.019-0.99-0.413-2.555-2.193-2.555
		c-1.619,0-2.303,1.457-2.43,2.555H23.887z"/>
	<path d="M31.361,92v-7.502h-1.207v-1.204h1.207V82.88c0-1.223,0.287-2.339,1.008-3.04c0.594-0.576,1.384-0.811,2.122-0.811
		c0.575,0,1.044,0.126,1.349,0.252l-0.217,1.225c-0.234-0.108-0.538-0.198-1.006-0.198c-1.349,0-1.69,1.17-1.69,2.519v0.468h2.104
		v1.204h-2.105V92H31.361z"/>
	<path d="M44.1,87.574c0,3.22-2.248,4.623-4.335,4.623c-2.338,0-4.174-1.726-4.174-4.479c0-2.896,1.926-4.604,4.316-4.604
		C42.409,83.113,44.1,84.931,44.1,87.574z M37.211,87.663c0,1.907,1.079,3.347,2.626,3.347c1.511,0,2.645-1.42,2.645-3.383
		c0-1.474-0.737-3.328-2.608-3.328C38.02,84.301,37.211,86.027,37.211,87.663z"/>
	<path d="M46.103,86.009c0-1.026-0.018-1.906-0.072-2.717h1.385l0.072,1.728h0.054c0.396-1.171,1.368-1.906,2.429-1.906
		c0.161,0,0.288,0.018,0.432,0.035v1.494c-0.161-0.036-0.324-0.036-0.54-0.036c-1.115,0-1.906,0.828-2.123,2.015
		c-0.037,0.216-0.055,0.485-0.055,0.738V92H46.1v-5.991H46.103z"/>
	<path d="M63.684,87.574c0,3.22-2.248,4.623-4.335,4.623c-2.339,0-4.174-1.726-4.174-4.479c0-2.896,1.926-4.604,4.317-4.604
		C61.994,83.113,63.684,84.931,63.684,87.574z M56.793,87.663c0,1.907,1.08,3.347,2.626,3.347c1.511,0,2.646-1.42,2.646-3.383
		c0-1.474-0.738-3.328-2.608-3.328C57.603,84.301,56.793,86.027,56.793,87.663z"/>
	<path d="M73.188,79.228v10.524c0,0.773,0.036,1.654,0.072,2.248h-1.404l-0.071-1.51h-0.055c-0.468,0.97-1.51,1.707-2.932,1.707
		c-2.104,0-3.743-1.781-3.743-4.424c-0.018-2.896,1.8-4.659,3.905-4.659c1.35,0,2.229,0.63,2.626,1.312h0.036v-5.199H73.188z
		 M71.623,86.837c0-0.198-0.018-0.468-0.071-0.665c-0.234-0.99-1.097-1.817-2.284-1.817c-1.637,0-2.609,1.438-2.609,3.347
		c0,1.763,0.882,3.219,2.572,3.219c1.062,0,2.033-0.719,2.321-1.889c0.054-0.216,0.071-0.432,0.071-0.684V86.837z"/>
	<path d="M83.34,79.228v10.524c0,0.773,0.036,1.654,0.072,2.248h-1.404l-0.072-1.51h-0.054c-0.468,0.97-1.511,1.707-2.933,1.707
		c-2.104,0-3.742-1.781-3.742-4.424c-0.018-2.896,1.8-4.659,3.904-4.659c1.351,0,2.23,0.63,2.627,1.312h0.036v-5.199H83.34z
		 M81.775,86.837c0-0.198-0.018-0.468-0.071-0.665c-0.234-0.99-1.098-1.817-2.285-1.817c-1.637,0-2.608,1.438-2.608,3.347
		c0,1.763,0.882,3.219,2.572,3.219c1.062,0,2.032-0.719,2.32-1.889c0.055-0.216,0.072-0.432,0.072-0.684V86.837z"/>
	<path d="M89.013,92l1.152-6.172c0.198-0.969,0.324-1.816,0.414-2.536h1.332l-0.216,1.709h0.035
		c0.774-1.223,1.963-1.906,3.221-1.906c1.045,0,2.213,0.594,2.213,2.41c0,0.396-0.072,0.937-0.162,1.404L96.03,92h-1.475
		l0.952-5.037c0.055-0.342,0.108-0.738,0.108-1.114c0-0.864-0.342-1.512-1.368-1.512c-1.062,0-2.572,1.278-2.969,3.437L90.489,92
		H89.013z"/>
</g>
<g>
	<path d="M279.598,79.875h1.585v10.812h5.181V92h-6.766V79.875z"/>
	<path d="M290.974,86.566v1.152h-4.444v-1.152H290.974z"/>
	<path d="M292.614,90.399c0.486,0.288,1.312,0.612,2.104,0.612c1.134,0,1.673-0.559,1.673-1.295c0-0.756-0.449-1.152-1.6-1.584
		c-1.582-0.576-2.32-1.42-2.32-2.465c0-1.404,1.151-2.554,3.003-2.554c0.882,0,1.655,0.233,2.124,0.54l-0.378,1.152
		c-0.343-0.217-0.972-0.522-1.781-0.522c-0.937,0-1.438,0.54-1.438,1.188c0,0.719,0.502,1.042,1.637,1.493
		c1.492,0.558,2.283,1.313,2.283,2.607c0,1.547-1.204,2.627-3.237,2.627c-0.955,0-1.834-0.252-2.446-0.611L292.614,90.399z"/>
	<path d="M299.959,79.228h1.582v5.451h0.037c0.252-0.45,0.648-0.864,1.132-1.132c0.469-0.271,1.026-0.433,1.62-0.433
		c1.169,0,3.041,0.72,3.041,3.706V92h-1.585v-5.001c0-1.404-0.521-2.572-2.013-2.572c-1.027,0-1.816,0.72-2.124,1.564
		c-0.089,0.233-0.108,0.468-0.108,0.756V92h-1.582V79.228z"/>
	<path d="M316.063,89.913c0,0.755,0.035,1.493,0.126,2.087h-1.421l-0.126-1.097h-0.053c-0.486,0.685-1.421,1.294-2.663,1.294
		c-1.764,0-2.663-1.241-2.663-2.5c0-2.104,1.871-3.256,5.235-3.238v-0.18c0-0.703-0.198-2.016-1.978-1.997
		c-0.829,0-1.676,0.234-2.285,0.648l-0.36-1.062c0.718-0.451,1.781-0.756,2.878-0.756c2.662,0,3.311,1.816,3.311,3.544
		L316.063,89.913L316.063,89.913z M314.534,87.557c-1.728-0.035-3.688,0.27-3.688,1.961c0,1.044,0.686,1.512,1.475,1.512
		c1.153,0,1.889-0.72,2.141-1.458c0.055-0.181,0.073-0.359,0.073-0.504V87.557z"/>
	<path d="M318.624,86.135c0-1.115-0.035-2.014-0.071-2.843h1.404l0.088,1.493h0.038c0.627-1.062,1.671-1.672,3.093-1.672
		c2.123,0,3.705,1.781,3.705,4.406c0,3.131-1.923,4.677-3.974,4.677c-1.153,0-2.159-0.504-2.681-1.368h-0.037v4.731h-1.564
		L318.624,86.135L318.624,86.135z M320.188,88.456c0,0.233,0.018,0.449,0.071,0.647c0.289,1.098,1.242,1.853,2.375,1.853
		c1.674,0,2.646-1.366,2.646-3.364c0-1.727-0.919-3.219-2.591-3.219c-1.08,0-2.105,0.754-2.393,1.941
		c-0.055,0.198-0.108,0.433-0.108,0.631V88.456L320.188,88.456z"/>
	<path d="M329.746,87.936c0.037,2.14,1.385,3.022,2.987,3.022c1.132,0,1.834-0.198,2.411-0.45l0.287,1.133
		c-0.559,0.253-1.529,0.559-2.915,0.559c-2.681,0-4.28-1.782-4.28-4.407s1.547-4.677,4.084-4.677c2.861,0,3.598,2.482,3.598,4.084
		c0,0.325-0.018,0.559-0.053,0.738h-6.119V87.936z M334.387,86.801c0.02-0.99-0.414-2.555-2.193-2.555
		c-1.619,0-2.303,1.457-2.43,2.555H334.387z"/>
	<path d="M341.861,92v-7.502h-1.206v-1.204h1.206V82.88c0-1.223,0.288-2.339,1.008-3.04c0.593-0.576,1.384-0.811,2.122-0.811
		c0.575,0,1.043,0.126,1.348,0.252l-0.216,1.225c-0.234-0.108-0.537-0.198-1.006-0.198c-1.348,0-1.69,1.17-1.69,2.519v0.468h2.104
		v1.204h-2.104V92H341.861z"/>
	<path d="M354.601,87.574c0,3.22-2.25,4.623-4.336,4.623c-2.338,0-4.175-1.726-4.175-4.479c0-2.896,1.926-4.604,4.318-4.604
		C352.91,83.113,354.601,84.931,354.601,87.574z M347.71,87.663c0,1.907,1.081,3.347,2.628,3.347c1.509,0,2.643-1.42,2.643-3.383
		c0-1.474-0.736-3.328-2.607-3.328C348.519,84.301,347.71,86.027,347.71,87.663z"/>
	<path d="M356.602,86.009c0-1.026-0.018-1.906-0.07-2.717h1.383l0.073,1.728h0.053c0.397-1.171,1.368-1.906,2.429-1.906
		c0.162,0,0.289,0.018,0.434,0.035v1.494c-0.162-0.036-0.325-0.036-0.541-0.036c-1.115,0-1.905,0.828-2.123,2.015
		c-0.037,0.216-0.055,0.485-0.055,0.738V92h-1.585v-5.991H356.602z"/>
	<path d="M367.187,87.936c0.035,2.14,1.384,3.022,2.985,3.022c1.134,0,1.834-0.198,2.411-0.45l0.286,1.133
		c-0.557,0.253-1.531,0.559-2.916,0.559c-2.679,0-4.279-1.782-4.279-4.407s1.545-4.677,4.084-4.677c2.859,0,3.596,2.482,3.596,4.084
		c0,0.325-0.018,0.559-0.053,0.738h-6.114V87.936z M371.827,86.801c0.018-0.99-0.413-2.555-2.194-2.555
		c-1.62,0-2.303,1.457-2.429,2.555H371.827z"/>
	<path d="M375.934,83.292l1.709,4.875c0.287,0.811,0.521,1.53,0.703,2.249h0.053c0.196-0.719,0.448-1.438,0.736-2.249l1.692-4.875
		h1.657L379.063,92h-1.512l-3.311-8.708H375.934z"/>
	<path d="M384.682,87.936c0.036,2.14,1.384,3.022,2.986,3.022c1.133,0,1.834-0.198,2.408-0.45l0.289,1.133
		c-0.559,0.253-1.531,0.559-2.916,0.559c-2.679,0-4.281-1.782-4.281-4.407s1.55-4.677,4.086-4.677c2.86,0,3.599,2.482,3.599,4.084
		c0,0.325-0.021,0.559-0.056,0.738h-6.115V87.936z M389.323,86.801c0.018-0.99-0.413-2.555-2.196-2.555
		c-1.618,0-2.303,1.457-2.428,2.555H389.323z"/>
	<path d="M392.816,85.649c0-0.917-0.018-1.638-0.071-2.357h1.403l0.091,1.438h0.035c0.431-0.809,1.438-1.619,2.88-1.619
		c1.204,0,3.076,0.72,3.076,3.706V92h-1.585v-5.02c0-1.404-0.521-2.572-2.016-2.572c-1.025,0-1.834,0.738-2.121,1.619
		c-0.073,0.197-0.108,0.468-0.108,0.737V92h-1.584V85.649z"/>
	<path d="M405.832,92l1.152-6.172c0.198-0.969,0.322-1.816,0.412-2.536h1.333l-0.217,1.709h0.035
		c0.773-1.223,1.962-1.906,3.218-1.906c1.045,0,2.214,0.594,2.214,2.41c0,0.396-0.07,0.937-0.161,1.404L412.849,92h-1.477
		l0.954-5.037c0.054-0.342,0.107-0.738,0.107-1.114c0-0.864-0.341-1.512-1.366-1.512c-1.062,0-2.572,1.278-2.968,3.437L407.306,92
		H405.832z"/>
</g>
<polygon fill="#009246" stroke="#000000" stroke-width="1.5" points="-32.25,132.5 -5.25,132.5 -5.25,119 8.25,119 8.25,105.5 
	-32.25,105.5 "/>
<polygon fill="#009246" stroke="#000000" stroke-width="1.5" points="-5.25,186.5 -5.25,227 21.75,227 21.75,200 8.25,200 
	8.25,186.5 "/>
<polygon fill="#009246" stroke="#000000" stroke-width="1.5" points="89.25,200 116.25,200 116.25,240.5 102.75,240.5 102.75,227 
	89.25,227 "/>
<polygon fill="#009246" stroke="#000000" stroke-width="1.5" points="35.25,146 35.25,173 -5.25,173 -5.25,159.5 8.25,159.5 
	8.25,146 "/>
<polygon fill="#FEC200" stroke="#000000" stroke-width="1.5" points="-86.25,173 -86.25,213.5 -72.75,213.5 -72.75,200 -59.25,200 
	-59.25,173 "/>
<polygon fill="#FEC200" stroke="#000000" stroke-width="1.5" points="-59.25,200 -59.25,240.5 -86.25,240.5 -86.25,213.5 
	-72.75,213.5 -72.75,200 "/>
<polygon fill="#FEC200" stroke="#000000" stroke-width="1.5" points="-59.25,173 -59.25,213.5 -45.75,213.5 -45.75,200 -32.25,200 
	-32.25,173 "/>
<polygon fill="#FEC200" stroke="#000000" stroke-width="1.5" points="-32.25,200 -32.25,240.5 -59.25,240.5 -59.25,213.5 
	-45.75,213.5 -45.75,200 "/>
<polygon fill="#FEC200" stroke="#000000" stroke-width="1.5" points="-86.25,105.5 -86.25,146 -72.75,146 -72.75,132.5 
	-59.25,132.5 -59.25,105.5 "/>
<polygon fill="#FEC200" stroke="#000000" stroke-width="1.5" points="-59.25,132.5 -59.25,173 -86.25,173 -86.25,146 -72.75,146 
	-72.75,132.5 "/>
<polygon fill="#FEC200" stroke="#000000" stroke-width="1.5" points="-59.25,105.5 -59.25,146 -45.75,146 -45.75,132.5 
	-32.25,132.5 -32.25,105.5 "/>
<polygon fill="#FEC200" stroke="#000000" stroke-width="1.5" points="-32.25,132.5 -32.25,173 -59.25,173 -59.25,146 -45.75,146 
	-45.75,132.5 "/>
<polygon fill="#FEC200" stroke="#000000" stroke-width="1.5" points="237.75,173 237.75,213.5 251.25,213.5 251.25,200 264.75,200 
	264.75,173 "/>
<polygon fill="#FEC200" stroke="#000000" stroke-width="1.5" points="264.75,200 264.75,240.5 237.75,240.5 237.75,213.5 
	251.25,213.5 251.25,200 "/>
<polygon fill="#FEC200" stroke="#000000" stroke-width="1.5" points="264.75,173 264.75,213.5 278.25,213.5 278.25,200 291.75,200 
	291.75,173 "/>
<polygon fill="#FEC200" stroke="#000000" stroke-width="1.5" points="291.75,200 291.75,240.5 264.75,240.5 264.75,213.5 
	278.25,213.5 278.25,200 "/>
<polygon fill="#FEC200" stroke="#000000" stroke-width="1.5" points="237.75,105.5 237.75,146 251.25,146 251.25,132.5 
	264.75,132.5 264.75,105.5 "/>
<polygon fill="#FEC200" stroke="#000000" stroke-width="1.5" points="264.75,132.5 264.75,173 237.75,173 237.75,146 251.25,146 
	251.25,132.5 "/>
<polygon fill="#FEC200" stroke="#000000" stroke-width="1.5" points="264.75,105.5 264.75,146 278.25,146 278.25,132.5 
	291.75,132.5 291.75,105.5 "/>
<polygon fill="#FEC200" stroke="#000000" stroke-width="1.5" points="291.75,132.5 291.75,173 264.75,173 264.75,146 278.25,146 
	278.25,132.5 "/>
<polygon fill="#009246" stroke="#000000" stroke-width="1.5" points="89.25,132.5 89.25,173 102.75,173 102.75,159.5 116.25,159.5 
	116.25,132.5 "/>
<polygon fill="#009246" stroke="#000000" stroke-width="1.5" points="116.25,159.5 116.25,200 89.25,200 89.25,173 102.75,173 
	102.75,159.5 "/>
<polygon fill="#009246" stroke="#000000" stroke-width="1.5" points="-32.25,159.5 -32.25,200 -18.75,200 -18.75,186.5 -5.25,186.5 
	-5.25,159.5 "/>
<polygon fill="#009246" stroke="#000000" stroke-width="1.5" points="-5.25,186.5 -5.25,227 -32.25,227 -32.25,200 -18.75,200 
	-18.75,186.5 "/>
<polygon fill="#009246" stroke="#000000" stroke-width="1.5" points="21.75,105.5 21.75,146 -5.25,146 -5.25,119 8.25,119 
	8.25,105.5 "/>
<polygon fill="#009246" stroke="#000000" stroke-width="1.5" points="62.25,132.5 62.25,173 75.75,173 75.75,159.5 89.25,159.5 
	89.25,132.5 "/>
<polygon fill="#009246" stroke="#000000" stroke-width="1.5" points="89.25,159.5 89.25,200 62.25,200 62.25,173 75.75,173 
	75.75,159.5 "/>
<polygon fill="#009246" stroke="#000000" stroke-width="1.5" points="35.25,132.5 35.25,173 48.75,173 48.75,159.5 62.25,159.5 
	62.25,132.5 "/>
<polygon fill="#009246" stroke="#000000" stroke-width="1.5" points="21.75,105.5 21.75,146 35.25,146 35.25,132.5 48.75,132.5 
	48.75,105.5 "/>
<polygon fill="#009246" stroke="#000000" stroke-width="1.5" points="62.25,159.5 62.25,200 35.25,200 35.25,173 48.75,173 
	48.75,159.5 "/>
<polygon fill="#FEC200" stroke="#000000" stroke-width="1.5" points="48.75,254 8.25,254 8.25,267.5 21.75,267.5 21.75,281 
	48.75,281 "/>
<polygon fill="#FEC200" stroke="#000000" stroke-width="1.5" points="21.75,281 -18.75,281 -18.75,254 8.25,254 8.25,267.5 
	21.75,267.5 "/>
<polygon fill="#FEC200" stroke="#000000" stroke-width="1.5" points="48.75,281 8.25,281 8.25,294.5 21.75,294.5 21.75,308 
	48.75,308 "/>
<polygon fill="#FEC200" stroke="#000000" stroke-width="1.5" points="21.75,308 -18.75,308 -18.75,281 8.25,281 8.25,294.5 
	21.75,294.5 "/>
<polygon fill="#FEC200" stroke="#000000" stroke-width="1.5" points="116.25,254 75.75,254 75.75,267.5 89.25,267.5 89.25,281 
	116.25,281 "/>
<polygon fill="#FEC200" stroke="#000000" stroke-width="1.5" points="89.25,281 48.75,281 48.75,254 75.75,254 75.75,267.5 
	89.25,267.5 "/>
<polygon fill="#FEC200" stroke="#000000" stroke-width="1.5" points="116.25,281 75.75,281 75.75,294.5 89.25,294.5 89.25,308 
	116.25,308 "/>
<polygon fill="#FEC200" stroke="#000000" stroke-width="1.5" points="89.25,308 48.75,308 48.75,281 75.75,281 75.75,294.5 
	89.25,294.5 "/>
<polygon fill="#FEC200" stroke="#000000" stroke-width="1.5" points="359.25,240.5 318.75,240.5 318.75,254 332.25,254 
	332.25,267.5 359.25,267.5 "/>
<polygon fill="#FEC200" stroke="#000000" stroke-width="1.5" points="332.25,267.5 291.75,267.5 291.75,240.5 318.75,240.5 
	318.75,254 332.25,254 "/>
<polygon fill="#FEC200" stroke="#000000" stroke-width="1.5" points="359.25,267.5 318.75,267.5 318.75,281 332.25,281 
	332.25,294.5 359.25,294.5 "/>
<polygon fill="#FEC200" stroke="#000000" stroke-width="1.5" points="332.25,294.5 291.75,294.5 291.75,267.5 318.75,267.5 
	318.75,281 332.25,281 "/>
<polygon fill="#FEC200" stroke="#000000" stroke-width="1.5" points="426.75,240.5 386.25,240.5 386.25,254 399.75,254 
	399.75,267.5 426.75,267.5 "/>
<polygon fill="#FEC200" stroke="#000000" stroke-width="1.5" points="399.75,267.5 359.25,267.5 359.25,240.5 386.25,240.5 
	386.25,254 399.75,254 "/>
<polygon fill="#FEC200" stroke="#000000" stroke-width="1.5" points="426.75,267.5 386.25,267.5 386.25,281 399.75,281 
	399.75,294.5 426.75,294.5 "/>
<polygon fill="#FEC200" stroke="#000000" stroke-width="1.5" points="399.75,294.5 359.25,294.5 359.25,267.5 386.25,267.5 
	386.25,281 399.75,281 "/>
<polygon fill="#009246" stroke="#000000" stroke-width="1.5" points="116.25,105.5 75.75,105.5 75.75,119 89.25,119 89.25,132.5 
	116.25,132.5 "/>
<polygon fill="#009246" stroke="#000000" stroke-width="1.5" points="35.25,173 -5.25,173 -5.25,186.5 8.25,186.5 8.25,200 
	35.25,200 "/>
<polygon fill="#009246" stroke="#000000" stroke-width="1.5" points="89.25,132.5 48.75,132.5 48.75,105.5 75.75,105.5 75.75,119 
	89.25,119 "/>
<polygon fill="#009246" stroke="#000000" stroke-width="1.5" points="75.75,227 35.25,227 35.25,240.5 48.75,240.5 48.75,254 
	75.75,254 "/>
<polygon fill="#009246" stroke="#000000" stroke-width="1.5" points="48.75,254 8.25,254 8.25,227 35.25,227 35.25,240.5 
	48.75,240.5 "/>
<polygon fill="#009246" stroke="#000000" stroke-width="1.5" points="89.25,200 48.75,200 48.75,213.5 62.25,213.5 62.25,227 
	89.25,227 "/>
<polygon fill="#009246" stroke="#000000" stroke-width="1.5" points="62.25,227 21.75,227 21.75,200 48.75,200 48.75,213.5 
	62.25,213.5 "/>
<polygon fill="#009246" stroke="#000000" stroke-width="1.5" points="8.25,159.5 -32.25,159.5 -32.25,132.5 -5.25,132.5 -5.25,146 
	8.25,146 "/>
<polygon fill="#009246" stroke="#000000" stroke-width="1.5" points="116.25,254 75.75,254 75.75,227 102.75,227 102.75,240.5 
	116.25,240.5 "/>
<polygon fill="#009246" stroke="#000000" stroke-width="1.5" points="8.25,227 -32.25,227 -32.25,240.5 -18.75,240.5 -18.75,254 
	8.25,254 "/>
<g>
	<path d="M225.598,565.874h6.531v1.313h-4.946v4.03h4.569v1.295h-4.569V578h-1.585V565.874z"/>
	<path d="M241.649,573.574c0,3.221-2.247,4.623-4.335,4.623c-2.339,0-4.174-1.725-4.174-4.478c0-2.897,1.926-4.605,4.316-4.605
		C239.959,569.113,241.649,570.93,241.649,573.574z M234.76,573.664c0,1.906,1.08,3.346,2.627,3.346
		c1.512,0,2.646-1.422,2.646-3.383c0-1.475-0.738-3.328-2.608-3.328C235.568,570.301,234.76,572.027,234.76,573.664z"/>
	<path d="M243.653,572.009c0-1.025-0.019-1.905-0.073-2.716h1.386l0.07,1.726h0.056c0.396-1.167,1.368-1.905,2.429-1.905
		c0.161,0,0.287,0.018,0.431,0.035v1.492c-0.161-0.035-0.324-0.035-0.539-0.035c-1.116,0-1.907,0.828-2.124,2.016
		c-0.036,0.215-0.056,0.486-0.056,0.736V578h-1.582v-5.991H243.653z"/>
	<path d="M253.354,572.009c0-1.025-0.018-1.905-0.07-2.716h1.383l0.073,1.726h0.053c0.397-1.167,1.368-1.905,2.429-1.905
		c0.162,0,0.289,0.018,0.434,0.035v1.492c-0.162-0.035-0.325-0.035-0.541-0.035c-1.115,0-1.905,0.828-2.123,2.016
		c-0.037,0.215-0.055,0.486-0.055,0.736V578h-1.585v-5.991H253.354z"/>
	<path d="M259.942,573.934c0.035,2.142,1.384,3.023,2.987,3.023c1.132,0,1.834-0.197,2.409-0.449l0.288,1.132
		c-0.558,0.252-1.527,0.558-2.913,0.558c-2.681,0-4.282-1.781-4.282-4.406s1.549-4.677,4.086-4.677c2.859,0,3.598,2.483,3.598,4.084
		c0,0.323-0.018,0.558-0.055,0.737h-6.118V573.934z M264.583,572.801c0.018-0.99-0.413-2.555-2.194-2.555
		c-1.617,0-2.303,1.458-2.429,2.555H264.583z"/>
	<path d="M268.078,571.65c0-0.918-0.035-1.639-0.072-2.355h1.385l0.073,1.419h0.053c0.486-0.827,1.296-1.6,2.754-1.6
		c1.169,0,2.068,0.718,2.446,1.745h0.035c0.27-0.504,0.629-0.863,0.99-1.133c0.521-0.398,1.078-0.612,1.907-0.612
		c1.169,0,2.877,0.756,2.877,3.778V578h-1.547v-4.912c0-1.689-0.63-2.679-1.887-2.679c-0.919,0-1.601,0.665-1.89,1.421
		c-0.072,0.232-0.126,0.502-0.126,0.791V578h-1.547v-5.218c0-1.386-0.612-2.376-1.816-2.376c-0.973,0-1.711,0.793-1.963,1.585
		c-0.091,0.216-0.126,0.504-0.126,0.773V578h-1.547V571.65z"/>
	<path d="M289.207,575.912c0,0.756,0.035,1.493,0.126,2.088h-1.421l-0.126-1.098h-0.056c-0.484,0.685-1.42,1.295-2.662,1.295
		c-1.762,0-2.661-1.24-2.661-2.5c0-2.104,1.869-3.256,5.233-3.238v-0.178c0-0.703-0.197-2.018-1.979-1.998
		c-0.826,0-1.672,0.232-2.283,0.647l-0.359-1.061c0.718-0.45,1.781-0.756,2.877-0.756c2.663,0,3.311,1.816,3.311,3.544V575.912
		L289.207,575.912z M287.678,573.557c-1.727-0.036-3.688,0.27-3.688,1.961c0,1.044,0.685,1.512,1.474,1.512
		c1.152,0,1.89-0.719,2.142-1.458c0.053-0.181,0.071-0.36,0.071-0.504v-1.511H287.678z"/>
	<path d="M293.528,566.847c0,0.538-0.378,0.97-1.005,0.97c-0.577,0-0.955-0.432-0.955-0.97c0-0.54,0.396-0.99,0.99-0.99
		C293.133,565.856,293.528,566.289,293.528,566.847z M291.766,578v-8.707h1.584V578H291.766z"/>
	<path d="M295.978,571.65c0-0.918-0.018-1.639-0.07-2.355h1.403l0.091,1.438h0.035c0.433-0.809,1.438-1.618,2.878-1.618
		c1.206,0,3.076,0.718,3.076,3.706V578h-1.583v-5.019c0-1.405-0.521-2.575-2.016-2.575c-1.025,0-1.834,0.738-2.121,1.62
		c-0.073,0.199-0.108,0.469-0.108,0.737V578h-1.585V571.65z"/>
	<path d="M307.731,566.847c0,0.538-0.378,0.97-1.008,0.97c-0.574,0-0.952-0.432-0.952-0.97c0-0.54,0.396-0.99,0.988-0.99
		C307.336,565.856,307.731,566.289,307.731,566.847z M305.968,578v-8.707h1.585V578H305.968z"/>
	<path d="M310.181,571.65c0-0.918-0.018-1.639-0.073-2.355h1.404l0.09,1.438h0.037c0.432-0.809,1.438-1.618,2.878-1.618
		c1.204,0,3.076,0.718,3.076,3.706V578h-1.583v-5.019c0-1.405-0.521-2.575-2.015-2.575c-1.025,0-1.834,0.738-2.122,1.62
		c-0.072,0.199-0.109,0.469-0.109,0.737V578h-1.583V571.65z"/>
	<path d="M327.618,576.723c0,2.016-0.415,3.219-1.242,3.992c-0.864,0.775-2.086,1.044-3.185,1.044c-1.043,0-2.194-0.252-2.897-0.718
		l0.397-1.225c0.575,0.378,1.475,0.701,2.555,0.701c1.619,0,2.807-0.844,2.807-3.057v-0.953h-0.037
		c-0.467,0.809-1.421,1.455-2.77,1.455c-2.158,0-3.708-1.834-3.708-4.243c0-2.952,1.928-4.605,3.94-4.605
		c1.512,0,2.322,0.773,2.717,1.493h0.037l0.053-1.312h1.404c-0.054,0.61-0.071,1.331-0.071,2.374V576.723L327.618,576.723z
		 M326.033,572.729c0-0.272-0.018-0.504-0.09-0.703c-0.288-0.937-1.044-1.692-2.213-1.692c-1.512,0-2.592,1.279-2.592,3.293
		c0,1.709,0.884,3.131,2.574,3.131c0.988,0,1.869-0.612,2.194-1.62c0.089-0.27,0.123-0.575,0.123-0.844v-1.564H326.033z"/>
	<path d="M334.047,565.227h1.564v5.469h0.037c0.557-0.971,1.564-1.584,2.968-1.584c2.177,0,3.687,1.799,3.687,4.426
		c0,3.111-1.979,4.658-3.921,4.658c-1.26,0-2.267-0.485-2.933-1.619h-0.035l-0.09,1.424h-1.349c0.036-0.595,0.073-1.475,0.073-2.248
		v-10.525H334.047z M335.613,574.51c0,0.199,0.018,0.398,0.072,0.575c0.288,1.099,1.223,1.853,2.374,1.853
		c1.673,0,2.646-1.349,2.646-3.346c0-1.742-0.9-3.236-2.61-3.236c-1.061,0-2.068,0.756-2.392,1.943
		c-0.055,0.197-0.09,0.412-0.09,0.664V574.51z"/>
	<path d="M350.405,575.912c0,0.756,0.036,1.493,0.126,2.088h-1.42l-0.125-1.098h-0.055c-0.486,0.685-1.421,1.295-2.663,1.295
		c-1.763,0-2.663-1.24-2.663-2.5c0-2.104,1.872-3.256,5.235-3.238v-0.178c0-0.703-0.196-2.018-1.978-1.998
		c-0.829,0-1.674,0.232-2.285,0.647l-0.36-1.061c0.72-0.45,1.781-0.756,2.88-0.756c2.662,0,3.311,1.816,3.311,3.544v3.254H350.405z
		 M348.876,573.557c-1.726-0.036-3.687,0.27-3.687,1.961c0,1.044,0.684,1.512,1.475,1.512c1.151,0,1.889-0.719,2.141-1.458
		c0.054-0.181,0.071-0.36,0.071-0.504V573.557z"/>
	<path d="M352.749,576.398c0.486,0.287,1.312,0.613,2.104,0.613c1.136,0,1.673-0.559,1.673-1.297c0-0.756-0.449-1.151-1.6-1.582
		c-1.582-0.576-2.32-1.422-2.32-2.465c0-1.405,1.151-2.555,3.004-2.555c0.881,0,1.654,0.234,2.123,0.539l-0.378,1.152
		c-0.343-0.219-0.972-0.524-1.781-0.524c-0.937,0-1.438,0.54-1.438,1.188c0,0.719,0.502,1.043,1.638,1.492
		c1.491,0.559,2.284,1.314,2.284,2.609c0,1.547-1.206,2.626-3.239,2.626c-0.954,0-1.834-0.252-2.446-0.61L352.749,576.398z"/>
	<path d="M360.973,573.934c0.035,2.142,1.386,3.023,2.988,3.023c1.131,0,1.834-0.197,2.408-0.449l0.287,1.132
		c-0.557,0.252-1.529,0.558-2.914,0.558c-2.68,0-4.281-1.781-4.281-4.406s1.547-4.677,4.084-4.677c2.862,0,3.598,2.483,3.598,4.084
		c0,0.323-0.018,0.558-0.053,0.737h-6.117V573.934z M365.615,572.801c0.019-0.99-0.414-2.555-2.196-2.555
		c-1.617,0-2.302,1.458-2.427,2.555H365.615z"/>
	<path d="M379.133,577.693c-0.415,0.198-1.332,0.504-2.502,0.504c-2.627,0-4.335-1.781-4.335-4.442c0-2.681,1.834-4.642,4.676-4.642
		c0.935,0,1.764,0.234,2.194,0.467l-0.357,1.207c-0.378-0.199-0.973-0.413-1.837-0.413c-1.995,0-3.076,1.493-3.076,3.292
		c0,2.016,1.295,3.256,3.023,3.256c0.899,0,1.491-0.217,1.942-0.413L379.133,577.693z"/>
	<path d="M387.105,575.912c0,0.756,0.035,1.493,0.126,2.088h-1.421l-0.126-1.098h-0.054c-0.485,0.685-1.42,1.295-2.662,1.295
		c-1.764,0-2.662-1.24-2.662-2.5c0-2.104,1.871-3.256,5.234-3.238v-0.178c0-0.703-0.196-2.018-1.978-1.998
		c-0.827,0-1.673,0.232-2.285,0.647l-0.36-1.061c0.721-0.45,1.783-0.756,2.88-0.756c2.663,0,3.311,1.816,3.311,3.544v3.254H387.105z
		 M385.576,573.557c-1.726-0.036-3.688,0.27-3.688,1.961c0,1.044,0.684,1.512,1.476,1.512c1.151,0,1.888-0.719,2.14-1.458
		c0.055-0.181,0.072-0.36,0.072-0.504V573.557z"/>
	<path d="M389.449,576.398c0.486,0.287,1.314,0.613,2.105,0.613c1.133,0,1.671-0.559,1.671-1.297c0-0.756-0.448-1.151-1.6-1.582
		c-1.585-0.576-2.32-1.422-2.32-2.465c0-1.405,1.151-2.555,3.005-2.555c0.881,0,1.656,0.234,2.122,0.539l-0.378,1.152
		c-0.343-0.219-0.97-0.524-1.781-0.524c-0.935,0-1.438,0.54-1.438,1.188c0,0.719,0.504,1.043,1.635,1.492
		c1.494,0.559,2.285,1.314,2.285,2.609c0,1.547-1.206,2.626-3.237,2.626c-0.953,0-1.836-0.252-2.447-0.61L389.449,576.398z"/>
	<path d="M397.674,573.934c0.037,2.142,1.387,3.023,2.987,3.023c1.134,0,1.835-0.197,2.409-0.449l0.286,1.132
		c-0.557,0.252-1.529,0.558-2.912,0.558c-2.681,0-4.28-1.781-4.28-4.406s1.547-4.677,4.084-4.677c2.859,0,3.598,2.483,3.598,4.084
		c0,0.323-0.02,0.558-0.056,0.737h-6.116V573.934z M402.316,572.801c0.018-0.99-0.413-2.555-2.194-2.555
		c-1.62,0-2.303,1.458-2.429,2.555H402.316z"/>
	<path d="M405.595,576.398c0.486,0.287,1.312,0.613,2.104,0.613c1.134,0,1.673-0.559,1.673-1.297c0-0.756-0.449-1.151-1.6-1.582
		c-1.585-0.576-2.322-1.422-2.322-2.465c0-1.405,1.153-2.555,3.005-2.555c0.882,0,1.657,0.234,2.122,0.539l-0.377,1.152
		c-0.342-0.219-0.972-0.524-1.783-0.524c-0.934,0-1.438,0.54-1.438,1.188c0,0.719,0.504,1.043,1.638,1.492
		c1.494,0.559,2.285,1.314,2.285,2.609c0,1.547-1.207,2.626-3.24,2.626c-0.952,0-1.834-0.252-2.446-0.61L405.595,576.398z"/>
	<path d="M411.715,580.23c0.398-1.08,0.882-3.004,1.081-4.318l1.764-0.178c-0.433,1.527-1.222,3.525-1.726,4.371L411.715,580.23z"/>
	<path d="M231.771,599.295c-0.416,0.197-1.331,0.504-2.502,0.504c-2.625,0-4.336-1.783-4.336-4.443c0-2.681,1.837-4.644,4.679-4.644
		c0.935,0,1.762,0.234,2.194,0.469l-0.36,1.206c-0.378-0.198-0.97-0.412-1.834-0.412c-1.998,0-3.076,1.491-3.076,3.29
		c0,2.016,1.295,3.257,3.021,3.257c0.901,0,1.494-0.216,1.943-0.412L231.771,599.295z"/>
	<path d="M241.4,595.176c0,3.218-2.25,4.623-4.336,4.623c-2.338,0-4.175-1.728-4.175-4.48c0-2.896,1.927-4.605,4.318-4.605
		C239.71,590.713,241.4,592.531,241.4,595.176z M234.508,595.265c0,1.907,1.08,3.347,2.627,3.347c1.512,0,2.646-1.422,2.646-3.382
		c0-1.476-0.738-3.329-2.608-3.329C235.318,591.901,234.508,593.629,234.508,595.265z"/>
	<path d="M243.401,593.25c0-0.918-0.035-1.637-0.07-2.356h1.383l0.073,1.421h0.053c0.486-0.828,1.297-1.602,2.754-1.602
		c1.169,0,2.068,0.72,2.446,1.745h0.035c0.27-0.504,0.63-0.861,0.99-1.132c0.521-0.397,1.078-0.613,1.907-0.613
		c1.169,0,2.877,0.758,2.877,3.779v5.109h-1.545v-4.911c0-1.69-0.631-2.681-1.889-2.681c-0.918,0-1.602,0.666-1.89,1.422
		c-0.07,0.233-0.126,0.503-0.126,0.791v5.379h-1.547v-5.219c0-1.385-0.612-2.375-1.816-2.375c-0.973,0-1.711,0.793-1.963,1.584
		c-0.09,0.217-0.126,0.506-0.126,0.775v5.234h-1.547V593.25z"/>
	<path d="M258.413,593.735c0-1.114-0.036-2.015-0.073-2.843h1.404l0.09,1.492h0.037c0.628-1.061,1.671-1.673,3.092-1.673
		c2.124,0,3.706,1.782,3.706,4.407c0,3.131-1.923,4.678-3.974,4.678c-1.153,0-2.158-0.504-2.682-1.367h-0.036v4.732h-1.564V593.735
		L258.413,593.735z M259.978,596.057c0,0.233,0.019,0.45,0.073,0.648c0.287,1.097,1.242,1.853,2.375,1.853
		c1.671,0,2.644-1.368,2.644-3.364c0-1.728-0.917-3.219-2.59-3.219c-1.081,0-2.104,0.756-2.394,1.942
		c-0.053,0.198-0.108,0.433-0.108,0.63V596.057L259.978,596.057z"/>
	<path d="M276.533,595.176c0,3.218-2.247,4.623-4.334,4.623c-2.338,0-4.174-1.728-4.174-4.48c0-2.896,1.925-4.605,4.315-4.605
		C274.843,590.713,276.533,592.531,276.533,595.176z M269.646,595.265c0,1.907,1.078,3.347,2.625,3.347
		c1.512,0,2.646-1.422,2.646-3.382c0-1.476-0.738-3.329-2.609-3.329C270.453,591.901,269.646,593.629,269.646,595.265z"/>
	<path d="M278.32,598c0.486,0.287,1.312,0.611,2.105,0.611c1.133,0,1.671-0.558,1.671-1.296c0-0.756-0.448-1.151-1.6-1.582
		c-1.582-0.577-2.32-1.423-2.32-2.467c0-1.403,1.151-2.555,3.005-2.555c0.88,0,1.656,0.234,2.122,0.54l-0.378,1.152
		c-0.343-0.217-0.97-0.523-1.781-0.523c-0.935,0-1.438,0.541-1.438,1.188c0,0.72,0.504,1.043,1.638,1.493
		c1.494,0.558,2.283,1.313,2.283,2.608c0,1.546-1.203,2.627-3.238,2.627c-0.953,0-1.834-0.252-2.446-0.611L278.32,598z"/>
	<path d="M286.547,595.534c0.035,2.142,1.385,3.023,2.985,3.023c1.134,0,1.835-0.198,2.411-0.45l0.287,1.133
		c-0.557,0.252-1.527,0.559-2.914,0.559c-2.68,0-4.281-1.783-4.281-4.408s1.55-4.678,4.086-4.678c2.86,0,3.599,2.483,3.599,4.086
		c0,0.324-0.019,0.559-0.056,0.736L286.547,595.534L286.547,595.534z M291.188,594.402c0.018-0.989-0.413-2.554-2.194-2.554
		c-1.62,0-2.303,1.458-2.429,2.554H291.188z"/>
	<path d="M298.28,598c0.486,0.287,1.312,0.611,2.104,0.611c1.136,0,1.674-0.558,1.674-1.296c0-0.756-0.45-1.151-1.602-1.582
		c-1.582-0.577-2.32-1.423-2.32-2.467c0-1.403,1.151-2.555,3.006-2.555c0.879,0,1.655,0.234,2.121,0.54l-0.378,1.152
		c-0.343-0.217-0.97-0.523-1.781-0.523c-0.935,0-1.438,0.541-1.438,1.188c0,0.72,0.504,1.043,1.638,1.493
		c1.494,0.558,2.285,1.313,2.285,2.608c0,1.546-1.206,2.627-3.24,2.627c-0.952,0-1.834-0.252-2.446-0.611L298.28,598z"/>
	<path d="M305.625,593.25c0-0.918-0.035-1.637-0.072-2.356h1.385l0.072,1.421h0.054c0.486-0.828,1.296-1.602,2.753-1.602
		c1.17,0,2.068,0.72,2.445,1.745h0.037c0.27-0.504,0.629-0.861,0.99-1.132c0.521-0.397,1.078-0.613,1.906-0.613
		c1.17,0,2.878,0.758,2.878,3.779v5.109h-1.547v-4.911c0-1.69-0.63-2.681-1.888-2.681c-0.919,0-1.602,0.666-1.889,1.422
		c-0.072,0.233-0.126,0.503-0.126,0.791v5.379h-1.547v-5.219c0-1.385-0.612-2.375-1.816-2.375c-0.973,0-1.71,0.793-1.962,1.584
		c-0.089,0.217-0.127,0.506-0.127,0.775v5.234h-1.545v-6.352H305.625z"/>
	<path d="M326.754,597.514c0,0.756,0.035,1.494,0.126,2.088h-1.421l-0.126-1.097h-0.053c-0.486,0.685-1.421,1.295-2.663,1.295
		c-1.764,0-2.663-1.241-2.663-2.501c0-2.104,1.87-3.256,5.235-3.238v-0.179c0-0.702-0.197-2.016-1.978-1.998
		c-0.829,0-1.676,0.234-2.285,0.649l-0.36-1.061c0.718-0.451,1.781-0.758,2.879-0.758c2.661,0,3.311,1.818,3.311,3.543v3.256
		H326.754z M325.225,595.156c-1.727-0.035-3.688,0.271-3.688,1.961c0,1.045,0.686,1.512,1.476,1.512c1.152,0,1.888-0.717,2.14-1.457
		c0.056-0.18,0.073-0.36,0.073-0.504V595.156z"/>
	<path d="M329.312,586.827h1.584v12.774h-1.584V586.827z"/>
	<path d="M333.561,586.827h1.584v12.774h-1.584V586.827z"/>
	<path d="M338.691,595.534c0.036,2.142,1.384,3.023,2.986,3.023c1.133,0,1.834-0.198,2.411-0.45l0.287,1.133
		c-0.558,0.252-1.529,0.559-2.915,0.559c-2.681,0-4.28-1.783-4.28-4.408s1.547-4.678,4.084-4.678c2.86,0,3.599,2.483,3.599,4.086
		c0,0.324-0.019,0.559-0.054,0.736L338.691,595.534L338.691,595.534z M343.333,594.402c0.018-0.989-0.416-2.554-2.196-2.554
		c-1.618,0-2.301,1.458-2.427,2.554H343.333z"/>
	<path d="M346.826,593.609c0-1.027-0.018-1.907-0.071-2.717h1.384l0.072,1.727h0.055c0.396-1.169,1.367-1.907,2.428-1.907
		c0.163,0,0.289,0.019,0.433,0.036v1.493c-0.161-0.036-0.323-0.036-0.539-0.036c-1.116,0-1.905,0.828-2.124,2.017
		c-0.035,0.216-0.053,0.485-0.053,0.735v4.644h-1.585L346.826,593.609L346.826,593.609z"/>
	<path d="M358.436,588.807v2.087h2.266v1.207h-2.266v4.694c0,1.08,0.307,1.692,1.188,1.692c0.433,0,0.685-0.036,0.919-0.108
		l0.071,1.205c-0.306,0.107-0.792,0.217-1.404,0.217c-0.738,0-1.332-0.252-1.709-0.664c-0.433-0.486-0.613-1.26-0.613-2.284v-4.749
		h-1.349v-1.207h1.349v-1.619L358.436,588.807z"/>
	<path d="M364.248,588.447c0,0.539-0.378,0.971-1.008,0.971c-0.577,0-0.955-0.432-0.955-0.971s0.398-0.99,0.99-0.99
		C363.853,587.457,364.248,587.889,364.248,588.447z M362.486,599.601v-8.708h1.582v8.708H362.486z"/>
	<path d="M366.697,586.827h1.582v12.774h-1.582V586.827z"/>
	<path d="M372.709,588.447c0,0.539-0.379,0.971-1.01,0.971c-0.575,0-0.953-0.432-0.953-0.971s0.398-0.99,0.99-0.99
		C372.312,587.457,372.709,587.889,372.709,588.447z M370.945,599.601v-8.708h1.582v8.708H370.945z"/>
	<path d="M375.155,593.25c0-0.918-0.019-1.637-0.073-2.356h1.404l0.092,1.438h0.035c0.432-0.809,1.439-1.619,2.878-1.619
		c1.206,0,3.076,0.72,3.076,3.708v5.181h-1.582v-5.02c0-1.403-0.521-2.574-2.016-2.574c-1.026,0-1.837,0.738-2.124,1.621
		c-0.07,0.197-0.107,0.469-0.107,0.736v5.235h-1.583V593.25L375.155,593.25z"/>
	<path d="M392.593,598.323c0,2.016-0.413,3.22-1.239,3.993c-0.864,0.775-2.089,1.045-3.185,1.045c-1.044,0-2.197-0.252-2.897-0.72
		l0.396-1.224c0.577,0.379,1.477,0.702,2.555,0.702c1.62,0,2.807-0.845,2.807-3.058v-0.953h-0.035
		c-0.469,0.809-1.421,1.456-2.771,1.456c-2.157,0-3.706-1.834-3.706-4.245c0-2.95,1.925-4.605,3.94-4.605
		c1.512,0,2.32,0.775,2.718,1.492h0.033l0.055-1.312h1.404c-0.055,0.611-0.073,1.334-0.073,2.375V598.323L392.593,598.323z
		 M391.011,594.33c0-0.271-0.018-0.504-0.089-0.701c-0.289-0.937-1.045-1.692-2.214-1.692c-1.512,0-2.591,1.277-2.591,3.293
		c0,1.708,0.881,3.13,2.572,3.13c0.988,0,1.87-0.611,2.193-1.619c0.093-0.27,0.127-0.576,0.127-0.846L391.011,594.33L391.011,594.33
		z"/>
	<path d="M394.992,598c0.486,0.287,1.314,0.611,2.104,0.611c1.134,0,1.673-0.558,1.673-1.296c0-0.756-0.45-1.151-1.6-1.582
		c-1.585-0.577-2.32-1.423-2.32-2.467c0-1.403,1.151-2.555,3.003-2.555c0.883,0,1.656,0.234,2.124,0.54l-0.378,1.152
		c-0.343-0.217-0.971-0.523-1.783-0.523c-0.934,0-1.438,0.541-1.438,1.188c0,0.72,0.504,1.043,1.636,1.493
		c1.494,0.558,2.285,1.313,2.285,2.608c0,1.546-1.207,2.627-3.239,2.627c-0.953,0-1.835-0.252-2.445-0.611L394.992,598z"/>
	<path d="M401.112,601.832c0.397-1.08,0.882-3.005,1.079-4.318l1.766-0.18c-0.434,1.529-1.225,3.527-1.729,4.371L401.112,601.832z"
		/>
	<path d="M410.561,595.534c0.035,2.142,1.386,3.023,2.986,3.023c1.135,0,1.836-0.198,2.41-0.45l0.287,1.133
		c-0.559,0.252-1.529,0.559-2.912,0.559c-2.681,0-4.281-1.783-4.281-4.408s1.545-4.678,4.084-4.678c2.859,0,3.596,2.483,3.596,4.086
		c0,0.324-0.018,0.559-0.053,0.736L410.561,595.534L410.561,595.534z M415.203,594.402c0.019-0.989-0.415-2.554-2.195-2.554
		c-1.619,0-2.301,1.458-2.427,2.554H415.203z"/>
	<path d="M418.104,598.664c0-0.648,0.45-1.132,1.078-1.132c0.63,0,1.062,0.468,1.062,1.132c0,0.649-0.432,1.135-1.097,1.135
		C418.535,599.799,418.104,599.313,418.104,598.664z"/>
	<path d="M429.656,598.323c0,2.016-0.414,3.22-1.242,3.993c-0.863,0.775-2.088,1.045-3.185,1.045c-1.043,0-2.194-0.252-2.897-0.72
		l0.398-1.224c0.576,0.379,1.474,0.702,2.555,0.702c1.617,0,2.804-0.845,2.804-3.058v-0.953h-0.034
		c-0.467,0.809-1.42,1.456-2.77,1.456c-2.159,0-3.706-1.834-3.706-4.245c0-2.95,1.923-4.605,3.938-4.605
		c1.512,0,2.323,0.775,2.719,1.492h0.035l0.053-1.312h1.403c-0.053,0.611-0.07,1.334-0.07,2.375V598.323L429.656,598.323z
		 M428.071,594.33c0-0.271-0.018-0.504-0.091-0.701c-0.287-0.937-1.043-1.692-2.212-1.692c-1.512,0-2.591,1.277-2.591,3.293
		c0,1.708,0.881,3.13,2.572,3.13c0.988,0,1.87-0.611,2.193-1.619c0.093-0.27,0.127-0.576,0.127-0.846L428.071,594.33L428.071,594.33
		z"/>
	<path d="M431.622,598.664c0-0.648,0.45-1.132,1.078-1.132c0.63,0,1.062,0.468,1.062,1.132c0,0.649-0.432,1.135-1.097,1.135
		C432.053,599.799,431.622,599.313,431.622,598.664z"/>
	<path d="M439.541,593.609c0-1.027-0.021-1.907-0.073-2.717h1.386l0.072,1.727h0.054c0.396-1.169,1.365-1.907,2.429-1.907
		c0.161,0,0.285,0.019,0.431,0.036v1.493c-0.161-0.036-0.323-0.036-0.539-0.036c-1.114,0-1.907,0.828-2.122,2.017
		c-0.034,0.216-0.055,0.485-0.055,0.735v4.644h-1.582V593.609z"/>
	<path d="M446.127,595.534c0.035,2.142,1.386,3.023,2.986,3.023c1.135,0,1.836-0.198,2.41-0.45l0.287,1.133
		c-0.559,0.252-1.529,0.559-2.912,0.559c-2.681,0-4.281-1.783-4.281-4.408s1.545-4.678,4.084-4.678c2.859,0,3.598,2.483,3.598,4.086
		c0,0.324-0.02,0.559-0.055,0.736L446.127,595.534L446.127,595.534z M450.771,594.402c0.018-0.989-0.416-2.554-2.196-2.554
		c-1.618,0-2.301,1.458-2.427,2.554H450.771z"/>
	<path d="M454.264,593.735c0-1.114-0.036-2.015-0.072-2.843h1.404l0.091,1.492h0.035c0.63-1.061,1.673-1.673,3.094-1.673
		c2.122,0,3.706,1.782,3.706,4.407c0,3.131-1.925,4.678-3.976,4.678c-1.151,0-2.157-0.504-2.679-1.367h-0.037v4.732h-1.564v-9.427
		H454.264z M455.828,596.057c0,0.233,0.02,0.45,0.072,0.648c0.289,1.097,1.242,1.853,2.376,1.853c1.671,0,2.646-1.368,2.646-3.364
		c0-1.728-0.918-3.219-2.593-3.219c-1.079,0-2.104,0.756-2.392,1.942c-0.055,0.198-0.107,0.433-0.107,0.63v1.51H455.828z"/>
	<path d="M468.445,594.168v1.15h-4.444v-1.15H468.445z"/>
	<path d="M476.47,589.023c-0.322-0.02-0.738,0.019-1.187,0.09c-2.502,0.396-3.795,2.195-4.066,4.139h0.035
		c0.559-0.756,1.549-1.368,2.845-1.368c2.068,0,3.526,1.512,3.526,3.779c0,2.157-1.458,4.138-3.904,4.138
		c-2.482,0-4.119-1.941-4.119-4.982c0-2.303,0.809-4.119,1.977-5.271c0.973-0.953,2.269-1.547,3.742-1.727
		c0.469-0.072,0.863-0.091,1.151-0.091V589.023L476.47,589.023z M476.021,595.769c0-1.671-0.953-2.681-2.41-2.681
		c-0.953,0-1.853,0.577-2.283,1.439c-0.091,0.181-0.161,0.397-0.161,0.684c0.018,1.924,0.917,3.364,2.591,3.364
		C475.104,598.575,476.021,597.441,476.021,595.769z"/>
	<path d="M478.834,593.601v-0.729l0.932-0.905c2.241-2.134,3.27-3.269,3.27-4.593c0-0.891-0.419-1.715-1.729-1.715
		c-0.797,0-1.459,0.406-1.863,0.741l-0.378-0.837c0.595-0.499,1.471-0.892,2.47-0.892c1.891,0,2.687,1.295,2.687,2.554
		c0,1.618-1.175,2.928-3.024,4.712l-0.689,0.649v0.027h3.931v0.986L478.834,593.601L478.834,593.601z"/>
</g>
</svg>
