<?xml version="1.0" encoding="utf-8"?>
<!-- Generator: Adobe Illustrator 15.1.0, SVG Export Plug-In . SVG Version: 6.00 Build 0)  -->
<!DOCTYPE svg PUBLIC "-//W3C//DTD SVG 1.1//EN" "http://www.w3.org/Graphics/SVG/1.1/DTD/svg11.dtd">
<svg version="1.1" id="Layer_1" xmlns="http://www.w3.org/2000/svg" xmlns:xlink="http://www.w3.org/1999/xlink" x="0px" y="0px"
	 width="687.667px" height="198px" viewBox="0 0 687.667 198" enable-background="new 0 0 687.667 198" xml:space="preserve">
<path fill="none" stroke="#0081CD" stroke-width="3" d="M603,18c45,27,54,36,54,54"/>
<path fill="none" stroke="#0081CD" stroke-width="3" d="M495,18c36,36,81,18,99,54"/>
<path fill="none" stroke="#0081CD" stroke-width="3" d="M387,18c54,27,144,27,144,54"/>
<path fill="none" stroke="#0081CD" stroke-width="3" d="M603,18c-64.876,36.042-135,27-135,54"/>
<path fill="none" stroke="#0081CD" stroke-width="3" d="M405,72c-9-27,36-27,90-54"/>
<path fill="none" stroke="#0081CD" stroke-width="3" d="M396,18c-45,27-72,27-63,54"/>
<path fill="none" stroke="#0081CD" stroke-width="3" d="M657,72c27,27,18,36,0,54"/>
<path fill="none" stroke="#0081CD" stroke-width="3" d="M657,72c-9,36-27,36-63,36s-63-9-63,18"/>
<path fill="none" stroke="#0081CD" stroke-width="3" d="M594,72c27,27,18,36,0,54"/>
<g>
	<g>
		<line fill="none" stroke="#0081CD" stroke-width="3" x1="594" y1="72" x2="576" y2="99"/>
		<circle fill="#0081CD" cx="576" cy="99" r="5.639"/>
	</g>
</g>
<g>
	<g>
		<line fill="none" stroke="#0081CD" stroke-width="3" x1="531" y1="72" x2="549" y2="99"/>
		<circle fill="#0081CD" cx="549" cy="99" r="5.639"/>
	</g>
</g>
<path fill="none" stroke="#0081CD" stroke-width="3" d="M531,72c-18,27-18,36,0,54"/>
<g>
	<g>
		<line fill="none" stroke="#0081CD" stroke-width="3" x1="468" y1="72" x2="495" y2="99"/>
		<circle fill="#0081CD" cx="495" cy="99" r="5.639"/>
	</g>
</g>
<path fill="none" stroke="#0081CD" stroke-width="3" d="M468,72c-18,36-108,18-108,54"/>
<path fill="none" stroke="#0081CD" stroke-width="3" d="M477,126c36-36-72-21.55-72-54"/>
<path fill="none" stroke="#0081CD" stroke-width="3" d="M405,72c-18,27,0,36,18,54"/>
<path fill="none" stroke="#0081CD" stroke-width="3" d="M333,72c27,27,144,18,144,54c0,32.45,9,54,9,54"/>
<path fill="none" stroke="#0081CD" stroke-width="3" d="M333,72c-27,27,9,36,27,54c27,27,54,54,54,54s27-27,9-54"/>
<path fill="none" stroke="#0081CD" stroke-width="3" d="M657,126c18,27,18,36-27,54"/>
<g>
	<g>
		<line fill="none" stroke="#0081CD" stroke-width="3" x1="657" y1="126" x2="639" y2="153"/>
		<circle fill="#0081CD" cx="639" cy="153" r="5.639"/>
	</g>
</g>
<path fill="none" stroke="#0081CD" stroke-width="3" d="M594,126c27,27,36,54,36,54"/>
<path fill="none" stroke="#0081CD" stroke-width="3" d="M594,126c-18,27-18,36,0,54"/>
<path fill="none" stroke="#0081CD" stroke-width="3" d="M531,126c18,27,27,54,27,54"/>
<g>
	<g>
		<line fill="none" stroke="#0081CD" stroke-width="3" x1="531" y1="126" x2="513" y2="153"/>
		<circle fill="#0081CD" cx="513" cy="153" r="5.639"/>
	</g>
</g>
<g>
	<g>
		<line fill="none" stroke="#0081CD" stroke-width="3" x1="477" y1="126" x2="459" y2="153"/>
		<circle fill="#0081CD" cx="459" cy="153" r="5.639"/>
	</g>
</g>
<g>
	<g>
		<line fill="none" stroke="#0081CD" stroke-width="3" x1="423" y1="126" x2="405" y2="153"/>
		<circle fill="#0081CD" cx="405" cy="153" r="5.639"/>
	</g>
</g>
<path fill="none" stroke="#0081CD" stroke-width="3" d="M378,180c0,0-63-9-18-54"/>
<rect x="562.5" y="4.5" fill="#FEC200" stroke="#000000" width="81" height="27"/>
<rect x="454.5" y="4.5" fill="#FEC200" stroke="#000000" width="81" height="27"/>
<rect x="346.5" y="4.5" fill="#FEC200" stroke="#000000" width="81" height="27"/>
<rect x="301.5" y="58.5" fill="#FEC200" stroke="#000000" width="63" height="27"/>
<rect x="378" y="58.5" fill="#FEC200" stroke="#000000" width="54" height="27"/>
<rect x="441" y="58.5" fill="#FEC200" stroke="#000000" width="54" height="27"/>
<rect x="511.5" y="58.5" fill="#FEC200" stroke="#000000" width="39" height="27"/>
<rect x="567" y="58.5" fill="#FEC200" stroke="#000000" width="54" height="27"/>
<rect x="630" y="58.5" fill="#FEC200" stroke="#000000" width="54" height="27"/>
<rect x="637.5" y="112.5" fill="#FEC200" stroke="#000000" width="39" height="27"/>
<rect x="567" y="112.5" fill="#FEC200" stroke="#000000" width="54" height="27"/>
<rect x="511.5" y="112.5" fill="#FEC200" stroke="#000000" width="39" height="27"/>
<rect x="457.5" y="112.5" fill="#FEC200" stroke="#000000" width="39" height="27"/>
<rect x="403.5" y="112.5" fill="#FEC200" stroke="#000000" width="39" height="27"/>
<rect x="333" y="112.5" fill="#FEC200" stroke="#000000" width="54" height="27"/>
<polyline fill="none" stroke="#0081CD" stroke-width="3" points="18,179.999 36,126 54,179.999 "/>
<polyline fill="none" stroke="#0081CD" stroke-width="3" points="90,179.999 108,126 126,179.999 "/>
<polyline fill="none" stroke="#0081CD" stroke-width="3" points="162,179.999 180,126 198,179.999 "/>
<polyline fill="none" stroke="#0081CD" stroke-width="3" points="234,179.999 252,126 270,179.999 "/>
<polyline fill="none" stroke="#0081CD" stroke-width="3" points="252,126 216,72 180,126 "/>
<polyline fill="none" stroke="#0081CD" stroke-width="3" points="108,126 72,72 36,126 "/>
<polyline fill="none" stroke="#0081CD" stroke-width="3" points="72,72 144,18 216,72 "/>
<rect x="130.5" y="4.5" fill="#FEC200" stroke="#000000" width="27" height="27"/>
<rect x="58.5" y="58.5" fill="#FEC200" stroke="#000000" width="27" height="27"/>
<rect x="202.5" y="58.5" fill="#FEC200" stroke="#000000" width="27" height="27"/>
<rect x="238.5" y="112.5" fill="#FEC200" stroke="#000000" width="27" height="27"/>
<rect x="166.5" y="112.5" fill="#FEC200" stroke="#000000" width="27" height="27"/>
<rect x="94.5" y="112.5" fill="#FEC200" stroke="#000000" width="27" height="27"/>
<rect x="22.5" y="112.5" fill="#FEC200" stroke="#000000" width="27" height="27"/>
<circle fill="#FEC200" stroke="#000000" cx="270" cy="179.999" r="13.5"/>
<circle fill="#FEC200" stroke="#000000" cx="234" cy="179.999" r="13.5"/>
<circle fill="#FEC200" stroke="#000000" cx="198" cy="179.999" r="13.5"/>
<circle fill="#FEC200" stroke="#000000" cx="162" cy="179.999" r="13.5"/>
<circle fill="#FEC200" stroke="#000000" cx="126" cy="179.999" r="13.5"/>
<circle fill="#FEC200" stroke="#000000" cx="90" cy="179.999" r="13.5"/>
<circle fill="#FEC200" stroke="#000000" cx="54" cy="179.999" r="13.5"/>
<circle fill="#FEC200" stroke="#000000" cx="18" cy="179.999" r="13.5"/>
<text transform="matrix(1 0 0 1 12.6738 186)" font-family="'Times-Roman'" font-size="24">a</text>
<text transform="matrix(1 0 0 1 48.0005 185.999)" font-family="'Times-Roman'" font-size="24">b</text>
<text transform="matrix(1 0 0 1 84.6743 185.999)" font-family="'Times-Roman'" font-size="24">c</text>
<text transform="matrix(1 0 0 1 120.0005 185.999)" font-family="'Times-Roman'" font-size="24">d</text>
<text transform="matrix(1 0 0 1 156.6743 185.999)" font-family="'Times-Roman'" font-size="24">e</text>
<text transform="matrix(1 0 0 1 194.0044 185.999)" font-family="'Times-Roman'" font-size="24">f</text>
<text transform="matrix(1 0 0 1 228.0005 185.999)" font-family="'Times-Roman'" font-size="24">g</text>
<text transform="matrix(1 0 0 1 264.0005 185.999)" font-family="'Times-Roman'" font-size="24">h</text>
<circle fill="#FEC200" stroke="#000000" cx="630" cy="180" r="13.5"/>
<circle fill="#FEC200" stroke="#000000" cx="594" cy="180" r="13.5"/>
<circle fill="#FEC200" stroke="#000000" cx="558" cy="180" r="13.5"/>
<circle fill="#FEC200" stroke="#000000" cx="522" cy="180" r="13.5"/>
<circle fill="#FEC200" stroke="#000000" cx="486" cy="180" r="13.5"/>
<circle fill="#FEC200" stroke="#000000" cx="450" cy="180" r="13.5"/>
<circle fill="#FEC200" stroke="#000000" cx="414" cy="180" r="13.5"/>
<circle fill="#FEC200" stroke="#000000" cx="378" cy="180" r="13.5"/>
<text transform="matrix(1 0 0 1 372.6738 186.001)" font-family="'Times-Roman'" font-size="24">a</text>
<text transform="matrix(1 0 0 1 408 186)" font-family="'Times-Roman'" font-size="24">b</text>
<text transform="matrix(1 0 0 1 444.6738 186)" font-family="'Times-Roman'" font-size="24">c</text>
<text transform="matrix(1 0 0 1 480 186)" font-family="'Times-Roman'" font-size="24">d</text>
<text transform="matrix(1 0 0 1 516.6738 186)" font-family="'Times-Roman'" font-size="24">e</text>
<text transform="matrix(1 0 0 1 554.0039 186)" font-family="'Times-Roman'" font-size="24">f</text>
<text transform="matrix(1 0 0 1 588 186)" font-family="'Times-Roman'" font-size="24">g</text>
<text transform="matrix(1 0 0 1 624 186)" font-family="'Times-Roman'" font-size="24">h</text>
<text transform="matrix(1 0 0 1 30.0005 131.9995)" font-family="'Times-Roman'" font-size="24">3</text>
<text transform="matrix(1 0 0 1 102.0005 131.9995)" font-family="'Times-Roman'" font-size="24">4</text>
<text transform="matrix(1 0 0 1 174.0005 131.9995)" font-family="'Times-Roman'" font-size="24">5</text>
<text transform="matrix(1 0 0 1 246.0005 131.9995)" font-family="'Times-Roman'" font-size="24">6</text>
<text transform="matrix(1 0 0 1 66.0005 77.9995)" font-family="'Times-Roman'" font-size="24">1</text>
<text transform="matrix(1 0 0 1 210.0005 77.9995)" font-family="'Times-Roman'" font-size="24">2</text>
<text transform="matrix(1 0 0 1 138.0005 23.9995)" font-family="'Times-Roman'" font-size="24">0</text>
<text transform="matrix(1 0 0 1 339.6738 132.0005)" font-family="'Times-Roman'" font-size="24">3 ab</text>
<text transform="matrix(1 0 0 1 408 132.0005)" font-family="'Times-Roman'" font-size="24">3 b</text>
<text transform="matrix(1 0 0 1 462 132.0005)" font-family="'Times-Roman'" font-size="24">4 d</text>
<text transform="matrix(1 0 0 1 518.0039 132.0005)" font-family="'Times-Roman'" font-size="24">5 f</text>
<text transform="matrix(1 0 0 1 573 132.0005)" font-family="'Times-Roman'" font-size="24">6 gh</text>
<text transform="matrix(1 0 0 1 642 132.0005)" font-family="'Times-Roman'" font-size="24">6 g</text>
<text transform="matrix(1 0 0 1 306.6738 78.0005)" font-family="'Times-Roman'" font-size="24">1 abd</text>
<text transform="matrix(1 0 0 1 384 78.0005)" font-family="'Times-Roman'" font-size="24">1 bd</text>
<text transform="matrix(1 0 0 1 447.6738 78.0005)" font-family="'Times-Roman'" font-size="24">1 ab</text>
<text transform="matrix(1 0 0 1 518.0039 78.0005)" font-family="'Times-Roman'" font-size="24">2 f</text>
<text transform="matrix(1 0 0 1 573 78.0005)" font-family="'Times-Roman'" font-size="24">2 gh</text>
<text transform="matrix(1 0 0 1 638.0039 78.0005)" font-family="'Times-Roman'" font-size="24">2 fg</text>
<text transform="matrix(1 0 0 1 356.6777 24.0005)" font-family="'Times-Roman'" font-size="24">0 abdf</text>
<text transform="matrix(1 0 0 1 462 24.0005)" font-family="'Times-Roman'" font-size="24">0 bdgh</text>
<text transform="matrix(1 0 0 1 572.6777 24.0005)" font-family="'Times-Roman'" font-size="24">0 abfg</text>
</svg>
