<?xml version="1.0" encoding="utf-8"?>
<!-- Generator: Adobe Illustrator 15.1.0, SVG Export Plug-In . SVG Version: 6.00 Build 0)  -->
<!DOCTYPE svg PUBLIC "-//W3C//DTD SVG 1.1//EN" "http://www.w3.org/Graphics/SVG/1.1/DTD/svg11.dtd">
<svg version="1.1" id="Layer_1" xmlns="http://www.w3.org/2000/svg" xmlns:xlink="http://www.w3.org/1999/xlink" x="0px" y="0px"
	 width="283px" height="283px" viewBox="0 0 283 283" enable-background="new 0 0 283 283" xml:space="preserve">
<g>
	<line fill="none" stroke="#000000" x1="127.496" y1="141.143" x2="71.571" y2="141.143"/>
	<line fill="none" stroke="#000000" x1="147.966" y1="129.325" x2="175.928" y2="80.892"/>
	<path fill="none" stroke="#000000" d="M147.966,129.325c-8.444,0-16.248,4.505-20.47,11.818"/>
	<path fill="none" stroke="#000000" d="M27.465,185.249c0,48.719,39.495,88.214,88.213,88.213c15.485,0,30.696-4.075,44.106-11.817"
		/>
	<path fill="none" stroke="#000000" d="M175.928,201.394c-10.576,18.318-16.144,39.099-16.144,60.251"/>
	<path fill="none" stroke="#000000" d="M159.784,261.645c24.359,14.063,55.508,5.717,69.571-18.643
		c4.471-7.742,6.824-16.524,6.824-25.465"/>
	<line fill="none" stroke="#000000" x1="147.966" y1="152.961" x2="175.928" y2="201.394"/>
	<path fill="none" stroke="#000000" d="M127.496,141.143c4.222,7.313,12.025,11.818,20.47,11.818"/>
	<path fill="none" stroke="#000000" d="M147.966,152.961c4.223-7.312,4.223-16.323,0-23.636"/>
	<path fill="none" stroke="#000000" d="M236.18,217.537c42.191-24.359,56.646-78.31,32.287-120.501
		c-7.742-13.41-18.878-24.546-32.287-32.288"/>
	<path fill="none" stroke="#000000" d="M236.18,217.537c-18.319-10.576-39.1-16.144-60.252-16.144"/>
	<path fill="none" stroke="#000000" d="M159.784,20.642C117.593-3.718,63.643,10.738,39.283,52.93
		c-7.742,13.41-11.818,28.622-11.818,44.106"/>
	<path fill="none" stroke="#000000" d="M236.18,64.748c0-28.128-22.803-50.93-50.931-50.93c-8.94,0-17.723,2.353-25.465,6.823"/>
	<path fill="none" stroke="#000000" d="M159.784,20.642c0,21.152,5.567,41.932,16.144,60.25"/>
	<path fill="none" stroke="#000000" d="M175.928,80.892c21.152,0,41.933-5.568,60.252-16.144"/>
	<path fill="none" stroke="#000000" d="M71.571,141.143c-10.576-18.318-25.788-33.53-44.106-44.106"/>
	<path fill="none" stroke="#000000" d="M27.465,97.036C3.105,111.1-5.241,142.248,8.823,166.607
		c4.47,7.742,10.899,14.172,18.642,18.642"/>
	<path fill="none" stroke="#000000" d="M27.465,185.249c18.318-10.576,33.53-25.788,44.106-44.106"/>
</g>
<g>
	<circle fill="#0081CD" stroke="#000000" cx="127.496" cy="141.143" r="5"/>
	<circle fill="#0081CD" stroke="#000000" cx="147.966" cy="129.325" r="5"/>
	<circle fill="#0081CD" stroke="#000000" cx="159.784" cy="261.645" r="5"/>
	<circle fill="#0081CD" stroke="#000000" cx="147.966" cy="152.961" r="5"/>
	<circle fill="#0081CD" stroke="#000000" cx="236.18" cy="217.537" r="5"/>
	<circle fill="#0081CD" stroke="#000000" cx="159.784" cy="20.642" r="5"/>
	<circle fill="#0081CD" stroke="#000000" cx="236.18" cy="64.748" r="5"/>
	<circle fill="#0081CD" stroke="#000000" cx="175.928" cy="80.892" r="5"/>
	<circle fill="#0081CD" stroke="#000000" cx="71.571" cy="141.143" r="5"/>
	<circle fill="#0081CD" stroke="#000000" cx="27.465" cy="185.249" r="5"/>
	<circle fill="#0081CD" stroke="#000000" cx="175.928" cy="201.394" r="5"/>
	<circle fill="#0081CD" stroke="#000000" cx="27.465" cy="97.036" r="5"/>
</g>
</svg>
