<?xml version="1.0" encoding="utf-8"?>
<!-- Generator: Adobe Illustrator 15.1.0, SVG Export Plug-In . SVG Version: 6.00 Build 0)  -->
<!DOCTYPE svg PUBLIC "-//W3C//DTD SVG 1.1//EN" "http://www.w3.org/Graphics/SVG/1.1/DTD/svg11.dtd">
<svg version="1.1" id="Layer_1" xmlns="http://www.w3.org/2000/svg" xmlns:xlink="http://www.w3.org/1999/xlink" x="0px" y="0px"
	 width="683.673px" height="319.048px" viewBox="0 0 683.673 319.048" enable-background="new 0 0 683.673 319.048"
	 xml:space="preserve">
<g>
	<path fill="#FEC200" d="M135.124,181.989c-3.672-0.929-3.12,8.189-9.541,9.482c-6.421,1.291-28.271-4.285-24.26,5.92
		c4.012,10.203,32.962,5.668,35.351,3.322C139.061,198.369,147.212,185.048,135.124,181.989z"/>
	<path fill="#FEC200" d="M145.131,179.749c-2.872,0.073-4.774,7.26-0.215,6.707s5.667-2.434,5.117-4.423
		S147.283,179.693,145.131,179.749z"/>
	<path fill="#FEC200" d="M146.113,191.245c-1.119,0.135-2.626-0.465-2.741-1.416s-0.399-2.404,0.719-2.539
		c1.12-0.136,3.724,1.036,3.839,1.987S147.232,191.109,146.113,191.245z"/>
	<path fill="#FEC200" d="M144.553,195.34c-1.185,0.144-2.227-0.421-2.329-1.26c-0.102-0.84-0.336-2.323,0.847-2.467
		c1.185-0.144,3.34,1.107,3.442,1.947C146.615,194.399,145.738,195.196,144.553,195.34z"/>
	<path fill="#FEC200" d="M142.947,197.983c-1.068-0.079-1.903-0.554-1.865-1.06s0.681-1.455,1.75-1.376
		c1.068,0.08,2.155,1.158,2.118,1.664C144.911,197.718,144.016,198.063,142.947,197.983z"/>
	<path fill="#FEC200" d="M141.09,201.413c-1.065-0.104-1.455-0.785-1.284-1.548s0.495-1.372,1.561-1.269
		c1.065,0.105,1.867,0.821,1.79,1.598C143.082,200.973,142.155,201.519,141.09,201.413z"/>
</g>
<g>
	<path fill="#FEC200" d="M274.58,168.684c-3.672-0.929-3.12,8.189-9.541,9.482c-6.421,1.291-28.271-4.285-24.26,5.92
		c4.012,10.203,32.962,5.668,35.351,3.322C278.517,185.063,286.668,171.742,274.58,168.684z"/>
	<path fill="#FEC200" d="M284.587,166.443c-2.872,0.073-4.774,7.26-0.215,6.707s5.667-2.434,5.117-4.423
		S286.739,166.388,284.587,166.443z"/>
	<path fill="#FEC200" d="M285.569,177.939c-1.119,0.135-2.626-0.465-2.741-1.416s-0.399-2.404,0.719-2.539
		c1.12-0.136,3.724,1.036,3.839,1.987S286.688,177.804,285.569,177.939z"/>
	<path fill="#FEC200" d="M284.009,182.034c-1.185,0.144-2.227-0.421-2.329-1.26c-0.102-0.84-0.336-2.323,0.847-2.467
		c1.185-0.144,3.34,1.107,3.442,1.947C286.071,181.094,285.193,181.891,284.009,182.034z"/>
	<path fill="#FEC200" d="M282.403,184.678c-1.068-0.079-1.903-0.554-1.865-1.06s0.681-1.455,1.75-1.376
		c1.068,0.08,2.155,1.158,2.118,1.664C284.367,184.412,283.471,184.758,282.403,184.678z"/>
	<path fill="#FEC200" d="M280.545,188.107c-1.065-0.104-1.455-0.785-1.284-1.548s0.495-1.372,1.561-1.269
		c1.065,0.105,1.867,0.821,1.79,1.598C282.537,187.667,281.61,188.213,280.545,188.107z"/>
</g>
<g>
	<path fill="#FEC200" d="M401.479,191.334c-2.572-2.782-7.084,5.16-13.17,2.741c-6.086-2.421-21.355-19.015-23.562-8.274
		c-2.204,10.74,24.532,22.733,27.814,22.07C395.842,207.209,409.942,200.492,401.479,191.334z"/>
	<path fill="#FEC200" d="M411.087,194.916c-2.445-1.506-7.961,3.479-3.839,5.503c4.122,2.024,6.076,1.052,6.702-0.915
		C414.575,197.537,412.921,196.043,411.087,194.916z"/>
	<path fill="#FEC200" d="M405.639,205.086c-1.011-0.498-1.946-1.822-1.524-2.682c0.422-0.861,0.977-2.233,1.988-1.736
		c1.012,0.498,2.556,2.9,2.133,3.76C407.813,205.288,406.651,205.582,405.639,205.086z"/>
	<path fill="#FEC200" d="M402.097,207.666c-1.07-0.525-1.636-1.567-1.264-2.326c0.373-0.76,0.986-2.13,2.057-1.604
		s2.195,2.751,1.821,3.509C404.339,208.004,403.169,208.193,402.097,207.666z"/>
	<path fill="#FEC200" d="M399.31,209.006c-0.853-0.648-1.293-1.502-0.984-1.906c0.307-0.402,1.364-0.848,2.217-0.197
		c0.85,0.648,1.174,2.146,0.866,2.549C401.101,209.855,400.161,209.656,399.31,209.006z"/>
	<path fill="#FEC200" d="M395.882,210.867c-0.836-0.669-0.791-1.452-0.23-1.998c0.559-0.546,1.162-0.881,1.999-0.211
		c0.836,0.669,1.117,1.707,0.629,2.314C397.792,211.584,396.716,211.535,395.882,210.867z"/>
</g>
<g>
	<path fill="#FEC200" d="M397.557,296.651c3.786-0.134,0.711-8.735,6.514-11.769c5.807-3.033,28.344-3.779,21.645-12.458
		c-6.702-8.678-33.234,3.759-34.873,6.679C389.203,282.021,385.094,297.09,397.557,296.651z"/>
	<path fill="#FEC200" d="M388.572,301.596c2.738-0.871,2.559-8.304-1.665-6.5c-4.224,1.803-4.761,3.918-3.679,5.676
		S386.522,302.25,388.572,301.596z"/>
	<path fill="#FEC200" d="M384.42,290.831c1.037-0.44,2.651-0.286,3.027,0.595c0.378,0.881,1.055,2.197,0.02,2.639
		c-1.038,0.443-3.866,0.045-4.241-0.836C382.848,292.348,383.384,291.275,384.42,290.831z"/>
	<path fill="#FEC200" d="M384.776,286.463c1.097-0.468,2.255-0.217,2.587,0.561c0.332,0.779,0.971,2.137-0.125,2.605
		c-1.098,0.469-3.518-0.131-3.848-0.908C383.057,287.942,383.677,286.932,384.776,286.463z"/>
	<path fill="#FEC200" d="M385.579,283.477c1.048-0.223,1.981,0.001,2.087,0.498c0.105,0.495-0.248,1.588-1.297,1.809
		c-1.046,0.221-2.392-0.51-2.496-1.006C383.767,284.28,384.531,283.698,385.579,283.477z"/>
	<path fill="#FEC200" d="M386.404,279.665c1.053-0.196,1.617,0.349,1.665,1.13c0.05,0.779-0.091,1.455-1.144,1.652
		s-2.023-0.268-2.165-1.034C384.615,280.645,385.354,279.861,386.404,279.665z"/>
</g>
<g>
	<path fill="#FEC200" d="M382.688,227.339c-3.033,2.271,4.402,7.579,1.369,13.382c-3.037,5.804-21.117,19.28-10.664,22.583
		c10.457,3.3,25.145-22.055,24.824-25.389C397.897,234.585,392.672,219.866,382.688,227.339z"/>
	<path fill="#FEC200" d="M387.243,218.151c-1.751,2.278,2.639,8.279,5.078,4.387c2.439-3.891,1.672-5.934-0.219-6.76
		C390.21,214.952,388.554,216.444,387.243,218.151z"/>
	<path fill="#FEC200" d="M396.798,224.62c-0.601,0.954-2.015,1.749-2.826,1.24c-0.812-0.508-2.12-1.203-1.521-2.156
		c0.6-0.955,3.148-2.242,3.959-1.734C397.223,222.478,397.395,223.664,396.798,224.62z"/>
	<path fill="#FEC200" d="M398.998,228.411c-0.634,1.01-1.728,1.465-2.444,1.016c-0.718-0.45-2.017-1.199-1.385-2.211
		c0.634-1.011,2.963-1.9,3.678-1.449C399.565,226.214,399.634,227.398,398.998,228.411z"/>
	<path fill="#FEC200" d="M400.043,231.321c-0.733,0.781-1.628,1.131-1.998,0.782c-0.369-0.347-0.702-1.445,0.032-2.226
		c0.733-0.778,2.256-0.946,2.625-0.599C401.073,229.627,400.776,230.542,400.043,231.321z"/>
	<path fill="#FEC200" d="M401.54,234.922c-0.752,0.763-1.526,0.637-2.012,0.022c-0.485-0.611-0.756-1.246-0.004-2.01
		c0.752-0.762,1.814-0.936,2.368-0.386C402.451,233.097,402.29,234.161,401.54,234.922z"/>
</g>
<g>
	<path fill="#FEC200" d="M440.896,99.737c-2.489,2.857,5.895,6.487,4.146,12.797c-1.752,6.312-16.604,23.281-5.689,24.317
		c10.916,1.033,19.959-26.838,18.946-30.031C457.286,103.632,449.089,90.336,440.896,99.737z"/>
	<path fill="#FEC200" d="M443.422,89.798c-1.234,2.596,4.316,7.542,5.885,3.224c1.569-4.315,0.391-6.152-1.632-6.563
		C445.651,86.048,444.345,87.854,443.422,89.798z"/>
	<path fill="#FEC200" d="M454.12,94.12c-0.387,1.059-1.603,2.132-2.503,1.805c-0.9-0.326-2.325-0.732-1.939-1.79
		c0.386-1.059,2.607-2.853,3.507-2.526C454.087,91.935,454.504,93.059,454.12,94.12z"/>
	<path fill="#FEC200" d="M457.067,97.365c-0.408,1.12-1.382,1.794-2.177,1.506c-0.797-0.29-2.224-0.75-1.818-1.872
		c0.408-1.121,2.499-2.479,3.292-2.188C457.161,95.097,457.477,96.241,457.067,97.365z"/>
	<path fill="#FEC200" d="M458.699,99.991c-0.553,0.918-1.354,1.447-1.789,1.184c-0.435-0.262-0.99-1.266-0.436-2.183
		c0.554-0.915,2.007-1.398,2.441-1.136C459.352,98.118,459.253,99.075,458.699,99.991z"/>
	<path fill="#FEC200" d="M460.918,103.197c-0.575,0.903-1.358,0.943-1.962,0.444c-0.603-0.496-1.001-1.06-0.426-1.964
		c0.576-0.903,1.578-1.296,2.234-0.875C461.426,101.221,461.492,102.296,460.918,103.197z"/>
</g>
<g>
	<path fill="#FEC200" d="M562.653,38.649c-3.704-0.801-2.834,8.294-9.204,9.81c-6.374,1.514-28.404-3.297-24.042,6.761
		c4.367,10.058,33.141,4.518,35.447,2.089C567.158,54.882,574.842,41.284,562.653,38.649z"/>
	<path fill="#FEC200" d="M572.576,36.061c-2.869,0.173-4.52,7.422,0.019,6.71c4.537-0.709,5.576-2.628,4.96-4.598
		C576.937,36.203,574.724,35.931,572.576,36.061z"/>
	<path fill="#FEC200" d="M573.959,47.516c-1.114,0.173-2.642-0.373-2.79-1.32c-0.148-0.945-0.481-2.389,0.631-2.562
		c1.113-0.173,3.757,0.906,3.905,1.852C575.855,46.432,575.073,47.34,573.959,47.516z"/>
	<path fill="#FEC200" d="M572.54,51.665c-1.178,0.183-2.238-0.344-2.37-1.18c-0.131-0.837-0.417-2.309,0.762-2.496
		c1.179-0.184,3.378,0.991,3.506,1.826C574.571,50.652,573.722,51.48,572.54,51.665z"/>
	<path fill="#FEC200" d="M571.028,54.362c-1.07-0.041-1.921-0.487-1.9-0.996c0.02-0.507,0.631-1.478,1.701-1.436
		c1.068,0.044,2.193,1.082,2.174,1.59C572.984,54.028,572.098,54.404,571.028,54.362z"/>
	<path fill="#FEC200" d="M569.293,57.852c-1.069-0.067-1.481-0.734-1.337-1.503c0.144-0.768,0.444-1.389,1.514-1.321
		c1.07,0.068,1.897,0.756,1.846,1.534C571.269,57.343,570.358,57.92,569.293,57.852z"/>
</g>
<g>
	<path fill="#FEC200" d="M204.991,170.074c-3.344,1.779-4.985-7.208-11.529-6.929c-6.544,0.279-26.43,10.911-24.972,0.045
		c1.459-10.867,30.655-13.376,33.535-11.67C204.902,153.228,215.999,164.218,204.991,170.074z"/>
	<path fill="#FEC200" d="M215.243,169.86c-2.807,0.614-6.369-5.91-1.811-6.462c4.558-0.553,6.084,1.01,6.025,3.072
		C219.399,168.534,217.346,169.399,215.243,169.86z"/>
	<path fill="#FEC200" d="M213.452,158.462c-1.119,0.136-2.439,1.078-2.324,2.029s0.187,2.43,1.305,2.294
		c1.12-0.136,3.369-1.896,3.253-2.846C215.571,158.988,214.57,158.326,213.452,158.462z"/>
	<path fill="#FEC200" d="M210.959,154.858c-1.185,0.144-2.062,0.939-1.96,1.778c0.102,0.84,0.228,2.337,1.412,2.193
		c1.185-0.144,2.979-1.873,2.877-2.713C213.186,155.278,212.144,154.715,210.959,154.858z"/>
	<path fill="#FEC200" d="M208.768,152.674c-1.018,0.333-1.715,0.993-1.559,1.475c0.158,0.482,1.009,1.25,2.028,0.919
		c1.018-0.333,1.816-1.64,1.659-2.122C210.739,152.464,209.787,152.342,208.768,152.674z"/>
	<path fill="#FEC200" d="M206.145,149.787c-1.01,0.356-1.225,1.11-0.876,1.81c0.348,0.7,0.808,1.215,1.818,0.859
		c1.009-0.356,1.617-1.242,1.357-1.979C208.185,149.739,207.154,149.431,206.145,149.787z"/>
</g>
<g>
	<path fill="#FEC200" d="M54.251,202.943c-3.344,1.779-4.985-7.208-11.529-6.929c-6.544,0.279-26.43,10.911-24.972,0.045
		c1.459-10.867,30.655-13.376,33.535-11.67C54.163,186.097,65.26,197.087,54.251,202.943z"/>
	<path fill="#FEC200" d="M64.504,202.729c-2.807,0.614-6.369-5.91-1.811-6.462c4.558-0.553,6.084,1.01,6.025,3.072
		C68.66,201.403,66.607,202.269,64.504,202.729z"/>
	<path fill="#FEC200" d="M62.712,191.331c-1.119,0.136-2.439,1.078-2.324,2.029s0.187,2.43,1.305,2.294
		c1.12-0.136,3.369-1.896,3.253-2.846C64.832,191.857,63.831,191.195,62.712,191.331z"/>
	<path fill="#FEC200" d="M60.22,187.728c-1.185,0.144-2.062,0.939-1.96,1.778c0.102,0.84,0.228,2.337,1.412,2.193
		c1.185-0.144,2.979-1.873,2.877-2.713C62.446,188.147,61.404,187.584,60.22,187.728z"/>
	<path fill="#FEC200" d="M58.029,185.543c-1.018,0.333-1.715,0.993-1.559,1.475c0.158,0.482,1.009,1.25,2.028,0.919
		c1.018-0.333,1.816-1.64,1.659-2.122C60,185.333,59.047,185.211,58.029,185.543z"/>
	<path fill="#FEC200" d="M55.406,182.656c-1.01,0.356-1.225,1.11-0.876,1.81c0.348,0.7,0.808,1.215,1.818,0.859
		c1.009-0.356,1.617-1.242,1.357-1.979C57.445,182.608,56.415,182.3,55.406,182.656z"/>
</g>
<g>
	<path fill="#FEC200" d="M333.274,163.619c-3.663,0.965-3.201-8.16-9.634-9.389c-6.435-1.227-28.228,4.566-24.318-5.678
		c3.911-10.243,32.904-5.995,35.316-3.674C337.049,147.2,345.332,160.439,333.274,163.619z"/>
	<path fill="#FEC200" d="M343.304,165.76c-2.873-0.045-4.845-7.213-0.282-6.705c4.564,0.508,5.691,2.377,5.161,4.371
		S345.456,165.793,343.304,165.76z"/>
	<path fill="#FEC200" d="M344.171,154.254c-1.12-0.125-2.622,0.49-2.727,1.443c-0.105,0.951-0.375,2.406,0.745,2.531
		c1.122,0.125,3.713-1.072,3.819-2.025C346.114,155.252,345.292,154.379,344.171,154.254z"/>
	<path fill="#FEC200" d="M342.571,150.175c-1.186-0.133-2.222,0.441-2.315,1.281c-0.094,0.84-0.313,2.327,0.871,2.459
		c1.186,0.131,3.33-1.141,3.423-1.982C344.642,151.093,343.757,150.306,342.571,150.175z"/>
	<path fill="#FEC200" d="M340.939,147.546c-1.067,0.091-1.897,0.573-1.855,1.078c0.043,0.506,0.696,1.448,1.763,1.359
		c1.067-0.091,2.144-1.18,2.102-1.686C342.906,147.793,342.007,147.457,340.939,147.546z"/>
	<path fill="#FEC200" d="M339.047,144.135c-1.064,0.115-1.447,0.8-1.268,1.561c0.178,0.762,0.508,1.368,1.573,1.253
		c1.064-0.115,1.859-0.838,1.774-1.615C341.043,144.556,340.111,144.02,339.047,144.135z"/>
</g>
<g>
	<path fill="#FEC200" d="M443.304,258.35c-2.703-2.654,5.375-6.925,3.139-13.081c-2.238-6.156-18.364-21.919-7.562-23.799
		c10.802-1.881,21.983,25.205,21.224,28.465C459.343,253.192,452.204,267.083,443.304,258.35z"/>
	<path fill="#FEC200" d="M446.595,268.062c-1.431-2.491,3.72-7.852,5.617-3.672c1.898,4.182,0.869,6.106-1.115,6.671
		C449.112,271.624,447.668,269.929,446.595,268.062z"/>
	<path fill="#FEC200" d="M456.926,262.923c-0.466-1.027-1.763-2.003-2.636-1.605c-0.871,0.395-2.26,0.908-1.793,1.935
		c0.465,1.027,2.82,2.642,3.693,2.245C457.062,265.101,457.391,263.948,456.926,262.923z"/>
	<path fill="#FEC200" d="M459.61,259.46c-0.492-1.087-1.516-1.684-2.285-1.334s-2.159,0.92-1.666,2.008
		c0.493,1.085,2.683,2.276,3.453,1.926C459.882,261.71,460.105,260.547,459.61,259.46z"/>
	<path fill="#FEC200" d="M461.035,256.714c-0.624-0.871-1.464-1.338-1.876-1.043s-0.889,1.338-0.266,2.211
		c0.623,0.869,2.109,1.236,2.523,0.943C461.829,258.53,461.659,257.585,461.035,256.714z"/>
	<path fill="#FEC200" d="M462.997,253.343c-0.643-0.855-1.426-0.834-1.988-0.291s-0.916,1.136-0.271,1.992
		c0.643,0.855,1.67,1.168,2.295,0.699C463.657,255.272,463.642,254.198,462.997,253.343z"/>
</g>
<g>
	<path fill="#FEC200" d="M356.841,259.004c2.882,2.461-4.879,7.283-2.219,13.27c2.663,5.984,19.849,20.584,9.204,23.213
		c-10.645,2.63-23.688-23.61-23.158-26.915C341.2,265.268,347.354,250.914,356.841,259.004z"/>
	<path fill="#FEC200" d="M352.881,249.547c1.601,2.385-3.163,8.092-5.348,4.054c-2.186-4.038-1.293-6.03,0.646-6.732
		C350.12,246.168,351.68,247.758,352.881,249.547z"/>
	<path fill="#FEC200" d="M342.933,255.393c0.537,0.992,1.898,1.876,2.741,1.418c0.842-0.454,2.191-1.063,1.654-2.055
		c-0.536-0.992-2.998-2.438-3.841-1.982C342.646,253.23,342.397,254.402,342.933,255.393z"/>
	<path fill="#FEC200" d="M340.497,259.035c0.566,1.049,1.629,1.573,2.372,1.171s2.09-1.068,1.521-2.119
		c-0.567-1.048-2.835-2.084-3.579-1.68C340.068,256.81,339.927,257.985,340.497,259.035z"/>
	<path fill="#FEC200" d="M339.267,261.873c0.684,0.826,1.554,1.232,1.944,0.91c0.391-0.323,0.793-1.396,0.11-2.225
		c-0.682-0.823-2.189-1.086-2.583-0.766C338.349,260.117,338.584,261.048,339.267,261.873z"/>
	<path fill="#FEC200" d="M337.545,265.373c0.7,0.809,1.48,0.732,2.004,0.152c0.523-0.582,0.834-1.197,0.132-2.007
		c-0.701-0.809-1.747-1.049-2.338-0.537C336.752,263.494,336.842,264.564,337.545,265.373z"/>
</g>
<g>
	<path fill="#FEC200" d="M416.605,160.535c-0.038,3.791-8.717,0.934-11.6,6.817c-2.881,5.882-3.045,28.433-11.894,21.956
		c-8.849-6.474,2.9-33.318,5.775-35.032C401.762,152.562,416.719,148.068,416.605,160.535z"/>
	<path fill="#FEC200" d="M421.314,151.429c-0.801,2.759-8.234,2.769-6.541-1.498c1.693-4.268,3.795-4.862,5.578-3.825
		C422.133,147.144,421.916,149.36,421.314,151.429z"/>
	<path fill="#FEC200" d="M410.447,147.553c-0.416,1.049-0.221,2.661,0.672,3.011c0.889,0.355,2.222,0.999,2.637-0.049
		c0.417-1.047-0.054-3.865-0.945-4.219C411.92,145.945,410.862,146.508,410.447,147.553z"/>
	<path fill="#FEC200" d="M406.09,148.023c-0.44,1.107-0.16,2.259,0.626,2.571c0.784,0.311,2.16,0.916,2.601-0.194
		c0.439-1.108-0.221-3.511-1.01-3.823C407.522,146.266,406.528,146.913,406.09,148.023z"/>
	<path fill="#FEC200" d="M403.125,148.901c-0.195,1.054,0.052,1.982,0.55,2.075s1.579-0.289,1.776-1.344
		c0.193-1.05-0.572-2.375-1.07-2.472C403.883,147.071,403.318,147.849,403.125,148.901z"/>
	<path fill="#FEC200" d="M399.336,149.828c-0.171,1.056,0.388,1.605,1.169,1.635c0.782,0.028,1.454-0.129,1.624-1.187
		s-0.317-2.013-1.09-2.138C400.268,148.014,399.504,148.77,399.336,149.828z"/>
</g>
<g>
	<path fill="#FEC200" d="M498.203,57.763c-2.19,3.095-7.698-4.196-13.417-1.001c-5.718,3.195-18.693,21.64-22.279,11.277
		c-3.588-10.36,21.355-25.738,24.695-25.51C490.54,42.757,505.395,47.58,498.203,57.763z"/>
	<path fill="#FEC200" d="M507.259,52.958c-2.229,1.812-8.345-2.413-4.523-4.956c3.822-2.544,5.888-1.836,6.764,0.032
		C510.372,49.902,508.931,51.601,507.259,52.958z"/>
	<path fill="#FEC200" d="M500.532,43.585c-0.939,0.625-1.696,2.061-1.162,2.857c0.528,0.798,1.258,2.086,2.195,1.461
		c0.939-0.623,2.156-3.207,1.625-4.006C502.659,43.101,501.47,42.962,500.532,43.585z"/>
	<path fill="#FEC200" d="M496.683,41.49c-0.992,0.66-1.418,1.767-0.949,2.47c0.468,0.702,1.255,1.983,2.248,1.321
		c0.992-0.66,1.818-3.012,1.348-3.717C498.861,40.861,497.676,40.827,496.683,41.49z"/>
	<path fill="#FEC200" d="M493.745,40.523c-0.76,0.756-1.086,1.66-0.729,2.02s1.463,0.662,2.226-0.093
		c0.757-0.753,0.882-2.278,0.527-2.642C495.411,39.451,494.504,39.769,493.745,40.523z"/>
	<path fill="#FEC200" d="M490.103,39.127c-0.74,0.771-0.594,1.54,0.031,2.01c0.627,0.468,1.269,0.722,2.01-0.052
		c0.742-0.771,0.887-1.836,0.322-2.377C491.902,38.167,490.844,38.353,490.103,39.127z"/>
</g>
<g>
	<path fill="#FEC200" d="M638.434,31.102c-2.961,2.368-6.236-6.161-12.616-4.673c-6.378,1.49-23.949,15.626-24.529,4.676
		c-0.582-10.948,27.642-18.828,30.788-17.685C635.221,14.562,648.162,23.305,638.434,31.102z"/>
	<path fill="#FEC200" d="M648.466,28.99c-2.644,1.125-7.353-4.627-2.977-6.014c4.377-1.388,6.166-0.136,6.491,1.901
		C652.303,26.914,650.447,28.148,648.466,28.99z"/>
	<path fill="#FEC200" d="M644.594,18.123c-1.076,0.34-2.2,1.51-1.907,2.424c0.287,0.913,0.632,2.353,1.706,2.012
		c1.075-0.34,2.959-2.486,2.67-3.4C646.771,18.245,645.667,17.783,644.594,18.123z"/>
	<path fill="#FEC200" d="M641.475,15.043c-1.137,0.359-1.852,1.306-1.596,2.11c0.255,0.805,0.657,2.253,1.795,1.892
		c1.136-0.36,2.58-2.392,2.322-3.199C643.742,15.042,642.611,14.681,641.475,15.043z"/>
	<path fill="#FEC200" d="M638.918,13.301c-0.938,0.517-1.502,1.296-1.259,1.739s1.223,1.041,2.164,0.527
		c0.936-0.515,1.478-1.946,1.237-2.394C640.816,12.732,639.856,12.787,638.918,13.301z"/>
	<path fill="#FEC200" d="M635.804,10.953c-0.925,0.536-0.996,1.316-0.525,1.94c0.473,0.623,1.02,1.045,1.945,0.507
		c0.927-0.537,1.36-1.52,0.968-2.195S636.73,10.414,635.804,10.953z"/>
</g>
<rect x="8.163" y="110.204" fill="none" stroke="#0081CD" stroke-width="2" width="345.041" height="134.22"/>
<rect x="289.618" y="136.879" fill="none" stroke="#BC1E47" stroke-width="2" width="191.531" height="177.407"/>
<polygon fill="none" stroke="#009246" stroke-width="2" points="678.088,4.762 386.991,4.762 385.773,180.177 676.87,180.177 "/>
</svg>
