<svg xmlns="http://www.w3.org/2000/svg" width="522" height="468"><g fill="none" stroke="#000"><path d="M15 15h54v18H15z"/><path d="M33 15L15 33l36-18m0 18l18-18-36 18m-18 0l54-18m72 0h54v18h-54z"/><path d="M159 15l-18 18 36-18-18 18 36-18-18 18m90-18h54v18h-54z"/><path d="M303 33l18-18-36 18 18-18m-36 18l18-18v18m108-18h54v18h-54z"/><path d="M393 15l18 18V15m18 0l-18 18 36-18-18 18M78 96h54v18H78z"/><path d="M132 96l-18 18V96l-18 18m0-18l-18 18 36-18m90 0h54v18h-54z"/><path d="M258 96l-18 18V96l-18 18V96l-18 18m126-18h54v18h-54z"/><path d="M384 96l-18 18V96l-18 18V96m-18 0l18 18M15 177h54v18H15zm126 0h54v18h-54zm126 0h54v18h-54zm-63 81h54v18h-54zm126 0h54v18h-54zm126 0h54v18h-54zm-315 81h54v18h-54zm126 0h54v18h-54zm126 0h54v18h-54zM78 420h54v18H78zm378 0h54v18h-54zm-252 0h54v18h-54zm126 0h54v18h-54z"/><path d="M69 195l-18-18v18m144 0l-18-18v18m144 0l-18-18v18M33 177l-18 18 36-18-18 18m108 0l18-18v18l18-18m90 0l18 18 18-18m-18 0v18m-81 81l18-18v18m0-18l18 18v-18m0 18l18-18m72 0l18 18v-18l18 18v-18m18 0l-18 18m-225 81l18-18v18m0-18l18 18v-18l18 18m72-18l18 18v-18l18 18v-18l18 18m153-81l-18-18 36 18-18-18m18 0v18l18-18m-99 99l-18-18 36 18-18-18m36 18l-18-18v18M78 438l18-18v18m18 0l-18-18 36 18-18-18m126 18l-18-18v18l-18-18m36 0l18 18-36-18m126 18l-18-18 36 18-18-18 36 18-18-18m108 18l-18-18 36 18m-18-18l36 18-18-18m18 18l-54-18"/></g><g font-family="'Helvetica'" font-size="18"><text transform="translate(11.968 51)">000111</text><text transform="translate(137.968 51)">001011</text><text transform="translate(263.968 51)">010011</text><text transform="translate(389.968 51)">100011</text><text transform="translate(74.968 132)">001101</text><text transform="translate(200.968 132)">010101</text><text transform="translate(326.968 132)">100101</text><text transform="translate(11.968 213)">001110</text><text transform="translate(137.968 213)">010110</text><text transform="translate(263.968 213)">100110</text><text transform="translate(200.968 294)">011001</text><text transform="translate(326.968 294)">101001</text><text transform="translate(137.968 375)">011010</text><text transform="translate(263.968 375)">101010</text><text transform="translate(452.968 294)">110001</text><text transform="translate(389.968 375)">110010</text><text transform="translate(74.968 456)">011100</text><text transform="translate(200.968 456)">101100</text><text transform="translate(326.968 456)">110100</text><text transform="translate(452.968 456)">111000</text></g><path d="M78 24h54m72 0h54m72 0h54m-243 81h54m72 0h54M78 186h45m81 0h54m9 81h54m72 0h54m-243 81h54m72 0h54m-243 81h54m72 0h54m72 0h54M231 141v108m126-108v108m-63-27v108M168 222v108m36-189l-27 27m153-27l-27 27M267 60l-27 27m153-27l-27 27M141 60l-27 27m-36 54l-27 27m153 135l-27 27m153-27l-27 27m153-27l-27 27m-288 54l-27 27m153-27l-27 27m153-27l-27 27" fill="none" stroke="#000" stroke-width="2"/></svg>