<svg xmlns="http://www.w3.org/2000/svg" width="720" height="270"><path fill="#fff" d="M0 0h720v270H0z"/><path d="M702 108h-9l-18-18V72l18-18h9v54zm0 108h-9l-18-18v-18l18-18h9v54zm-135 27v-9l-18-18h-18l-18 18v9h54zm108 0v-9l-18-18h-18l-18 18v9h54zM486 108h9l18-18V72l-18-18h-9v54zm0 108h9l18-18v-18l-18-18h-9v54zm27-189v9l18 18h18l18-18v-9h-54zm108 0v9l18 18h18l18-18v-9h-54zM108 54l-9 18 18 18 36-18 9-18h-54zm81 27l-18 9-18 36 18 18 18-9V81zm-27 135l9-18-18-18-36 18-9 18h54zM27 135l18-9 18-36-18-18-18 9v54zm225-78l18-12 27 18v36l-27 18-18-12V57zm0 108l18-12 27 18v36l-27 18-18-12v-48zm72 78v-18l27-18 27 18v18h-54zm90-30l-9-6v-36l9-6v48zm0-108l-9-6V63l9-6v48zm-36-78h-54v18l27 18 27-18V27zm-54 90l27-18 27 18v36l-27 18-27-18v-36zm-225 9l18 18-18 36-36 18-18-18 18-36 36-18zm486-72h18l18 18v18l-18 18h-18l-18-18V72l18-18zm-54 54h18l18 18v18l-18 18h-18l-18-18v-18l18-18zm108 0h18l18 18v18l-18 18h-18l-18-18v-18l18-18zm-54 54h18l18 18v18l-18 18h-18l-18-18v-18l18-18z" fill="#cff"/><path d="M702 162h-9l-18-18v-18l18-18h9v54zm-27 81v-9l18-18h9v27h-27zm-54 0v-9l-18-18h-18l-18 18v9h54zm-135 0v-27h9l18 18v9h-27zm0-81h9l18-18v-18l-18-18h-9v54zm0-108h9l18-18v-9h-27v27zm189-27v9l18 18h9V27h-27zm-108 0v9l18 18h18l18-18v-9h-54zM162 54l-9 18 18 18 18-9V54h-27zm27 162v-27l-18 9-9 18h27zm-162 0h27l9-18-18-18-18 9v27zm0-162v27l18-9 9-18H27zm225 51l18 12v36l-18 12v-60zm0 108l18 12v18h-18v-30zm126 30v-18l27-18 9 6v30h-36zm36-78l-9 6-27-18v-36l27-18 9 6v60zm0-138h-36v18l27 18 9-6V27zm-162 0v30l18-12V27h-18zm45 36l27-18 27 18v36l-27 18-27-18V63zm0 108l27-18 27 18v36l-27 18-27-18v-36zm-144-45l18 18-18 36-36 18-18-18 18-36 36-18zM99 72l18 18-18 36-36 18-18-18 18-36 36-18zm432-18h18l18 18v18l-18 18h-18l-18-18V72l18-18zm54 54h18l18 18v18l-18 18h-18l-18-18v-18l18-18zm54-54h18l18 18v18l-18 18h-18l-18-18V72l18-18zM531 162h18l18 18v18l-18 18h-18l-18-18v-18l18-18zm108 0h18l18 18v18l-18 18h-18l-18-18v-18l18-18z" fill="#ffc"/><path d="M54 54l-9 18 18 18 36-18 9-18H54zm135 81l-18 9-18 36 18 18 18-9v-54zm-81 81l9-18-18-18-36 18-9 18h54zm-81-27l18-9 18-36-18-18-18 9v54zm243 54v-18l27-18 27 18v18h-54zm54-216h-54v18l27 18 27-18V27zm27 36l27-18 27 18v36l-27 18-27-18V63zm-81 54l27-18 27 18v36l-27 18-27-18v-36zm81 54l27-18 27 18v36l-27 18-27-18v-36zM153 72l18 18-18 36-36 18-18-18 18-36 36-18zm342.069-17.962L513.1 36.007l18.031 18.031-18.03 18.031zm53.984-.084l18.031-18.031 18.031 18.031-18.031 18.031zm53.984.016l18.03-18.03L639.1 53.97l-18.031 18.032zm53.983.017l18.032-18.032 18.03 18.032-18.03 18.03zm-161.967 54.035l18.031-18.031 18.031 18.03-18.031 18.032zm53.984.016l18.03-18.031 18.032 18.031-18.031 18.031zm53.983-.084l18.032-18.031 18.03 18.031-18.03 18.031zm53.984.016l18.031-18.03 18.032 18.03-18.032 18.032zm-161.967 54.036l18.03-18.032 18.032 18.032-18.031 18.03zm53.983.016l18.032-18.031 18.03 18.03-18.03 18.032zm53.984.016l18.031-18.031 18.032 18.031-18.032 18.031zm54.084-.084l18.031-18.031 18.031 18.031-18.03 18.031zM495.02 215.99l18.032-18.032 18.03 18.031-18.03 18.032zm53.984.016l18.031-18.032 18.032 18.032-18.032 18.03zm54.084.016l18.031-18.031 18.031 18.03-18.03 18.032zm53.984.016l18.03-18.031 18.032 18.031-18.031 18.031z" fill="#fcf"/><g fill="none" stroke="#000"><path d="M297 63l27-18 27 18v36l-27 18-27-18V63zm54 0l27-18 27 18v36l-27 18-27-18V63z"/><path d="M270 117l27-18 27 18v36l-27 18-27-18v-36zm54 0l27-18 27 18v36l-27 18-27-18v-36z"/><path d="M297 171l27-18 27 18v36l-27 18-27-18v-36zm54 0l27-18 27 18v36l-27 18-27-18v-36zM324 9v36m54-36v36m27 18l27-18m-27 54l27 18m-27 54l27-18M297 63l-27-18V9m0 36l-27 18m0 108l27-18m0-36l-27-18m54 108l-27 18-27-18m27 18v36m54-36v36m54-36v36m27-54l27 18M153 72l18 18-18 36-36 18-18-18 18-36 36-18z"/><path d="M99 126l18 18-18 36-36 18-18-18 18-36 36-18z"/><path d="M153 126l18 18-18 36-36 18-18-18 18-36 36-18zM99 72l18 18-18 36-36 18-18-18 18-36 36-18zm54 0l18-36m0 54l36-18m-36 72l36-18m-54 54l18 18 36-18M99 72l18-36M63 90L45 72l18-36M9 90l36-18M9 144l36-18M9 198l36-18m0 54l18-36m36 36l18-36m36 36l18-36M531 54h18l18 18v18l-18 18h-18l-18-18V72l18-18zm54 0h18l18 18v18l-18 18h-18l-18-18V72l18-18zm-54 54h18l18 18v18l-18 18h-18l-18-18v-18l18-18zm54 0h18l18 18v18l-18 18h-18l-18-18v-18l18-18zm54-54h18l18 18v18l-18 18h-18l-18-18V72l18-18zm0 54h18l18 18v18l-18 18h-18l-18-18v-18l18-18zm-108 54h18l18 18v18l-18 18h-18l-18-18v-18l18-18zm54 0h18l18 18v18l-18 18h-18l-18-18v-18l18-18zm54 0h18l18 18v18l-18 18h-18l-18-18v-18l18-18z"/><path d="M495.069 54.038L513.1 36.007l18.031 18.031-18.03 18.031zm53.984-.084l18.031-18.031 18.031 18.031-18.031 18.031zm53.984.016l18.03-18.03L639.1 53.97l-18.031 18.032zm53.983.017l18.032-18.032 18.03 18.032-18.03 18.03zm-161.967 54.035l18.031-18.031 18.031 18.03-18.031 18.032zm53.984.016l18.03-18.031 18.032 18.031-18.031 18.031zm53.983-.084l18.032-18.031 18.03 18.031-18.03 18.031zm53.984.016l18.031-18.03 18.032 18.03-18.032 18.032zm-161.967 54.036l18.03-18.032 18.032 18.032-18.031 18.03zm53.983.016l18.032-18.031 18.03 18.03-18.03 18.032zm53.984.016l18.031-18.031 18.032 18.031-18.032 18.031zm54.084-.084l18.031-18.031 18.031 18.031-18.03 18.031zM495.02 215.99l18.032-18.032 18.03 18.031-18.03 18.032zm53.984.016l18.031-18.032 18.032 18.032-18.032 18.03zm54.084.016l18.031-18.031 18.031 18.03-18.03 18.032zm53.984.016l18.03-18.031 18.032 18.031-18.031 18.031zM513 18v18m54-18v18m54-18v18m54-18v18m18 18h18m-18 54h18m-18 54h18m-18 54h18m-36 18v18m-54-18v18m-54-18v18m-54-18v18m-18-36h-18m18-54h-18m18-54h-18m18-54h-18"/></g><path d="M252 27h162v216H252zM27 54h162v162H27zm459-27h216v216H486z" fill="none" stroke="#000" stroke-dasharray="4 4" stroke-width="2"/></svg>