<svg xmlns="http://www.w3.org/2000/svg" width="756" height="792"><path fill="none" stroke="#00F" d="M144.188 162.312l99 234-99 234"/><path fill="none" stroke="#00F" d="M153.188 630.312l99-234-99-234m459 0l-99 234 99 234"/><path fill="none" stroke="#00F" d="M603.188 630.312l-99-234 99-234m-452 12l-106 222 108 225"/><path fill="none" stroke="#00F" d="M162.188 621.312l-108-225 105-222m446 0l106 222-108 225"/><path fill="none" stroke="#00F" d="M594.188 621.312l108-225-105-222m-453-12l243-99m-243 108l243-99m-243 108l243-99m-243 108l243-99m-18-27l243 99m-243-90l243 99m0 9l-243-99m243 108l-243-99"/><path fill="none" stroke="#00F" d="M153.188 612.312l225 90 225-90"/><path fill="none" stroke="#00F" d="M153.188 621.312l225 90 225-90"/><path fill="none" stroke="#00F" d="M153.188 630.312l225 90 225-90m-135-126l243-108-243-108"/><path fill="none" stroke="#00F" d="M468.188 495.312l225-99-225-99m-180 207l-243-108 243-108"/><path fill="none" stroke="#00F" d="M288.188 495.312l-225-99 225-99"/><path fill="none" stroke="#00F" d="M261.188 486.312l108.25 233.75 107.75-233.75"/><path fill="none" stroke="#00F" d="M270.188 486.312l108.25 233.75 107.75-233.75"/><path fill="none" stroke="#00F" d="M279.188 486.312l108.25 233.75 107.75-233.75m-98.75 233.75l-108.25-233.75m72.25 233.75l107.75-233.75m-207-180l108.25-233.75 107.75 233.75"/><path fill="none" stroke="#00F" d="M270.188 306.312l108.25-233.75 107.75 233.75"/><path fill="none" stroke="#00F" d="M279.188 306.312l108.25-233.75 107.75 233.75"/><path fill="none" stroke="#00F" d="M468.188 495.312l-207-99 216-99-99 234-99-234 225 99-216 99"/><path fill="none" stroke="#00F" d="M468.188 504.312l-225-108 234-108"/><path fill="none" stroke="#00F" d="M288.188 504.312l234-108-243-108m324-117l-225 90-225-90m0 450l225-90 225 90"/><path fill="none" stroke="#00F" d="M279.188 495.312l99-234 99 234"/><circle fill="#FFF" cx="279.188" cy="297.312" r="45"/><circle fill="none" stroke="#000" stroke-width=".5" stroke-dasharray="4,4" cx="279.188" cy="297.312" r="45"/><path fill="none" stroke="#00F" d="M252.188 306.312l45 9-9-45"/><circle fill="#FFF" cx="378.688" cy="710.812" r="70"/><circle fill="none" stroke="#000" stroke-width=".5" stroke-dasharray="4,4" cx="378.688" cy="710.812" r="70"/><path fill="none" stroke="#00F" d="M378.688 674.812v72m-36-72h72v72h-72zm0 36h72"/><circle fill="#FFF" cx="54.188" cy="396.312" r="45"/><circle fill="none" stroke="#000" stroke-width=".5" stroke-dasharray="4,4" cx="54.188" cy="396.312" r="45"/><circle fill="none" stroke="#00F" cx="54.188" cy="396.312" r="30"/><path fill="#FFF" d="M13.688 382.812h27v27h-27z"/><path fill="none" stroke="#000" stroke-width=".75" stroke-linejoin="bevel" d="M18.188 387.312h18v18h-18z"/><path fill="none" stroke="#000" stroke-width=".75" stroke-linejoin="bevel" d="M27.188 387.312l9 9-9 9v-9"/><path fill="none" stroke="#000" stroke-width=".75" stroke-linejoin="bevel" d="M18.188 396.312h18l-18-9 9 9-9 9"/><path fill="#FFF" d="M40.688 355.812h27v27h-27z"/><path fill="none" stroke="#000" stroke-width=".75" stroke-linejoin="bevel" d="M45.188 360.312h18v18h-18z"/><path fill="none" stroke="#000" stroke-width=".75" stroke-linejoin="bevel" d="M45.188 369.312h18l-18 9 9-9-9-9 18 9"/><path fill="none" stroke="#000" stroke-width=".75" stroke-linejoin="bevel" d="M54.188 360.312l9 9-9 9"/><path fill="#FFF" d="M67.688 382.812h27v27h-27z"/><path fill="none" stroke="#000" stroke-width=".75" stroke-linejoin="bevel" d="M72.188 387.312h18v18h-18z"/><path fill="none" stroke="#000" stroke-width=".75" stroke-linejoin="bevel" d="M72.188 387.312l9 9-9 9 18-9h-18"/><path fill="none" stroke="#000" stroke-width=".75" stroke-linejoin="bevel" d="M81.188 405.312l9-9-9-9v9"/><path fill="#FFF" d="M40.688 409.812h27v27h-27z"/><path fill="none" stroke="#000" stroke-width=".75" stroke-linejoin="bevel" d="M45.188 414.312h18v18h-18z"/><path fill="none" stroke="#000" stroke-width=".75" stroke-linejoin="bevel" d="M45.188 414.312l9 9-9 9m9 0l9-9-9-9zm-9-9h18"/><circle fill="#FFF" cx="243.188" cy="396.312" r="45"/><circle fill="none" stroke="#000" stroke-width=".5" stroke-dasharray="4,4" cx="243.188" cy="396.312" r="45"/><circle fill="none" stroke="#00F" cx="243.188" cy="396.312" r="30"/><path fill="#FFF" d="M202.688 382.812h27v27h-27z"/><path fill="none" stroke="#000" stroke-width=".75" stroke-linejoin="bevel" d="M207.188 387.312h18v18h-18z"/><path fill="none" stroke="#000" stroke-width=".75" stroke-linejoin="bevel" d="M207.188 396.312l9-9 9 9h-9"/><path fill="none" stroke="#000" stroke-width=".75" stroke-linejoin="bevel" d="M216.188 405.312v-18l-9 18 9-9 9 9"/><path fill="#FFF" d="M229.688 355.812h27v27h-27z"/><path fill="none" stroke="#000" stroke-width=".75" stroke-linejoin="bevel" d="M234.188 360.312h18v18h-18z"/><path fill="none" stroke="#000" stroke-width=".75" stroke-linejoin="bevel" d="M243.188 378.312v-18l9 18-9-9-9 9 9-18"/><path fill="none" stroke="#000" stroke-width=".75" stroke-linejoin="bevel" d="M234.188 369.312l9-9 9 9"/><path fill="#FFF" d="M256.688 382.812h27v27h-27z"/><path fill="none" stroke="#000" stroke-width=".75" stroke-linejoin="bevel" d="M261.188 387.312h18v18h-18z"/><path fill="none" stroke="#000" stroke-width=".75" stroke-linejoin="bevel" d="M261.188 405.312l9-9 9 9-9-18v18"/><path fill="none" stroke="#000" stroke-width=".75" stroke-linejoin="bevel" d="M279.188 396.312l-9-9-9 9h9"/><path fill="#FFF" d="M229.688 409.812h27v27h-27z"/><path fill="none" stroke="#000" stroke-width=".75" stroke-linejoin="bevel" d="M234.188 414.312h18v18h-18z"/><path fill="none" stroke="#000" stroke-width=".75" stroke-linejoin="bevel" d="M234.188 432.312l9-9 9 9m0-9l-9-9-9 9zm-9 9v-18"/><circle fill="#FFF" cx="513.188" cy="396.312" r="45"/><circle fill="none" stroke="#000" stroke-width=".5" stroke-dasharray="4,4" cx="513.188" cy="396.312" r="45"/><circle fill="none" stroke="#00F" cx="513.188" cy="396.312" r="30"/><path fill="#FFF" d="M472.688 382.812h27v27h-27z"/><path fill="none" stroke="#000" stroke-width=".75" stroke-linejoin="bevel" d="M477.188 387.312h18v18h-18z"/><path fill="none" stroke="#000" stroke-width=".75" stroke-linejoin="bevel" d="M495.188 396.312l-9 9-9-9h9"/><path fill="none" stroke="#000" stroke-width=".75" stroke-linejoin="bevel" d="M486.188 387.312v18l9-18-9 9-9-9"/><path fill="#FFF" d="M499.688 355.812h27v27h-27z"/><path fill="none" stroke="#000" stroke-width=".75" stroke-linejoin="bevel" d="M504.188 360.312h18v18h-18z"/><path fill="none" stroke="#000" stroke-width=".75" stroke-linejoin="bevel" d="M513.188 360.312v18l-9-18 9 9 9-9-9 18"/><path fill="none" stroke="#000" stroke-width=".75" stroke-linejoin="bevel" d="M522.188 369.312l-9 9-9-9"/><path fill="#FFF" d="M526.688 382.812h27v27h-27z"/><path fill="none" stroke="#000" stroke-width=".75" stroke-linejoin="bevel" d="M531.188 387.312h18v18h-18z"/><path fill="none" stroke="#000" stroke-width=".75" stroke-linejoin="bevel" d="M549.188 387.312l-9 9-9-9 9 18v-18"/><path fill="none" stroke="#000" stroke-width=".75" stroke-linejoin="bevel" d="M531.188 396.312l9 9 9-9h-9"/><path fill="#FFF" d="M499.688 409.812h27v27h-27z"/><path fill="none" stroke="#000" stroke-width=".75" stroke-linejoin="bevel" d="M504.188 414.312h18v18h-18z"/><path fill="none" stroke="#000" stroke-width=".75" stroke-linejoin="bevel" d="M522.188 414.312l-9 9-9-9m0 9l9 9 9-9zm9-9v18"/><circle fill="#FFF" cx="702.188" cy="396.312" r="45"/><circle fill="none" stroke="#000" stroke-width=".5" stroke-dasharray="4,4" cx="702.188" cy="396.312" r="45"/><circle fill="none" stroke="#00F" cx="702.188" cy="396.312" r="30"/><path fill="#FFF" d="M661.688 382.812h27v27h-27z"/><path fill="none" stroke="#000" stroke-width=".75" stroke-linejoin="bevel" d="M666.188 387.312h18v18h-18z"/><path fill="none" stroke="#000" stroke-width=".75" stroke-linejoin="bevel" d="M675.188 405.312l-9-9 9-9v9"/><path fill="none" stroke="#000" stroke-width=".75" stroke-linejoin="bevel" d="M684.188 396.312h-18l18 9-9-9 9-9"/><path fill="#FFF" d="M688.688 355.812h27v27h-27z"/><path fill="none" stroke="#000" stroke-width=".75" stroke-linejoin="bevel" d="M693.188 360.312h18v18h-18z"/><path fill="none" stroke="#000" stroke-width=".75" stroke-linejoin="bevel" d="M711.188 369.312h-18l18-9-9 9 9 9-18-9"/><path fill="none" stroke="#000" stroke-width=".75" stroke-linejoin="bevel" d="M702.188 378.312l-9-9 9-9"/><path fill="#FFF" d="M715.688 382.812h27v27h-27z"/><path fill="none" stroke="#000" stroke-width=".75" stroke-linejoin="bevel" d="M720.188 387.312h18v18h-18z"/><path fill="none" stroke="#000" stroke-width=".75" stroke-linejoin="bevel" d="M738.188 405.312l-9-9 9-9-18 9h18"/><path fill="none" stroke="#000" stroke-width=".75" stroke-linejoin="bevel" d="M729.188 387.312l-9 9 9 9v-9"/><path fill="#FFF" d="M688.688 409.812h27v27h-27z"/><path fill="none" stroke="#000" stroke-width=".75" stroke-linejoin="bevel" d="M693.188 414.312h18v18h-18z"/><path fill="none" stroke="#000" stroke-width=".75" stroke-linejoin="bevel" d="M711.188 432.312l-9-9 9-9m-9 0l-9 9 9 9zm9 9h-18"/><path fill="#FFF" d="M360.188 513.312h36v36h-36z"/><path fill="none" stroke="#000" stroke-width=".75" d="M369.188 522.312h18v18h-18zm0 0l18 18m-18 0l18-18m-9 0v18m-9-9h18"/><path fill="#FFF" d="M360.188 243.312h36v36h-36z"/><path fill="none" stroke="#000" stroke-width=".75" d="M369.188 252.312h18v18h-18z"/><path fill="none" stroke="#000" stroke-width=".75" d="M387.191 261.312l-9 9-9-9 9-9zM378.188 252.312v18m-9-9h18"/><path fill="#FFF" d="M365.188 697.312h27v27h-27zm-36-36h27v27h-27z"/><path fill="none" stroke="#000" stroke-width=".75" stroke-linejoin="bevel" d="M369.688 701.812h18v18h-18zm0 0l18 18"/><path fill="none" stroke="#000" stroke-width=".75" stroke-linejoin="bevel" d="M378.688 719.812l-9-9h18l-9-9zm-45-54h18v18h-18z"/><path fill="none" stroke="#000" stroke-width=".75" stroke-linejoin="bevel" d="M342.688 665.812l9 9-18-9m0 9l9 9-9-18 18 18"/><path fill="none" stroke="#000" stroke-width=".75" stroke-linejoin="bevel" d="M342.688 683.812v-9h9"/><path fill="#FFF" d="M401.188 733.312h27v27h-27z"/><path fill="none" stroke="#000" stroke-width=".75" stroke-linejoin="bevel" d="M405.688 737.812h18v18h-18z"/><path fill="none" stroke="#000" stroke-width=".75" stroke-linejoin="bevel" d="M414.688 755.812l-9-9h9v-9l9 9"/><path fill="none" stroke="#000" stroke-width=".75" stroke-linejoin="bevel" d="M414.688 737.812l9 18-18-18m0 9l18 9"/><path fill="#FFF" d="M329.188 697.312h27v27h-27z"/><path fill="none" stroke="#000" stroke-width=".75" stroke-linejoin="bevel" d="M333.688 701.812h18v18h-18z"/><path fill="none" stroke="#000" stroke-width=".75" stroke-linejoin="bevel" d="M351.688 719.812l-18-18 9 18-9-9"/><path fill="none" stroke="#000" stroke-width=".75" stroke-linejoin="bevel" d="M351.688 710.812l-9-9v9z"/><path fill="none" stroke="#000" stroke-width=".75" d="M342.688 710.812v9"/><path fill="#FFF" d="M329.188 733.312h27v27h-27z"/><path fill="none" stroke="#000" stroke-width=".75" stroke-linejoin="bevel" d="M333.688 737.812h18v18h-18z"/><path fill="none" stroke="#000" stroke-width=".75" stroke-linejoin="bevel" d="M342.688 737.812l9 18-18-18 9 18-9-9"/><path fill="none" stroke="#000" stroke-width=".75" stroke-linejoin="bevel" d="M351.688 746.812l-9-9v9"/><path fill="none" stroke="#000" stroke-width=".75" d="M342.688 746.812v9"/><path fill="#FFF" d="M401.188 697.312h27v27h-27z"/><path fill="none" stroke="#000" stroke-width=".75" stroke-linejoin="bevel" d="M405.688 701.812h18v18h-18z"/><path fill="none" stroke="#000" stroke-width=".75" stroke-linejoin="bevel" d="M423.688 710.812l-9-9v9zm-9 0h-9l9 9"/><path fill="none" stroke="#000" stroke-width=".75" stroke-linejoin="bevel" d="M405.688 710.812l18 9-18-18"/><path fill="#FFF" d="M365.188 661.312h27v27h-27z"/><path fill="none" stroke="#000" stroke-width=".75" stroke-linejoin="bevel" d="M369.688 665.812h18v18h-18z"/><path fill="none" stroke="#000" stroke-width=".75" stroke-linejoin="bevel" d="M378.688 683.812l-9-9h9zm0-9h9l-9-9"/><path fill="none" stroke="#000" stroke-width=".75" stroke-linejoin="bevel" d="M387.688 674.812l-18-9 18 18"/><path fill="#FFF" d="M401.188 661.312h27v27h-27z"/><path fill="none" stroke="#000" stroke-width=".75" stroke-linejoin="bevel" d="M405.688 665.812h18v18h-18z"/><path fill="none" stroke="#000" stroke-width=".75" stroke-linejoin="bevel" d="M414.688 683.812l-9-9h9m0 0h9l-9-9"/><path fill="none" stroke="#000" stroke-width=".75" stroke-linejoin="bevel" d="M405.688 674.812l18 9-18-18 18 9"/><path fill="#FFF" d="M365.188 733.312h27v27h-27z"/><path fill="none" stroke="#000" stroke-width=".75" stroke-linejoin="bevel" d="M369.688 737.812h18v18h-18z"/><path fill="none" stroke="#000" stroke-width=".75" stroke-linejoin="bevel" d="M378.688 755.812l-9-9h9zm0-9v-9l9 9"/><path fill="none" stroke="#000" stroke-width=".75" stroke-linejoin="bevel" d="M378.688 737.812l9 18-18-18"/><circle fill="#FFF" cx="378.938" cy="81.916" r="70"/><circle fill="none" stroke="#000" stroke-width=".5" stroke-dasharray="4,4" cx="378.938" cy="81.916" r="70"/><path fill="none" stroke="#00F" d="M378.938 45.916v72m-36-72h72v72h-72zm0 36h72"/><path fill="#FFF" d="M365.438 68.416h27v27h-27zm-36-36h27v27h-27z"/><path fill="none" stroke="#000" stroke-width=".75" stroke-linejoin="bevel" d="M369.938 73.062h18v18h-18zm18 0l-18 18"/><path fill="none" stroke="#000" stroke-width=".75" stroke-linejoin="bevel" d="M369.938 82.062l9-9v18l9-9zm-36.047-45.046h18v18h-18z"/><path fill="none" stroke="#000" stroke-width=".75" stroke-linejoin="bevel" d="M351.891 46.016l-9 9 9-18m-9 0l-9 9 18-9-18 18"/><path fill="none" stroke="#000" stroke-width=".75" stroke-linejoin="bevel" d="M333.891 46.016h9v9"/><path fill="#FFF" d="M401.438 104.416h27v27h-27z"/><path fill="none" stroke="#000" stroke-width=".75" stroke-linejoin="bevel" d="M405.938 108.916h18v18h-18z"/><path fill="none" stroke="#000" stroke-width=".75" stroke-linejoin="bevel" d="M405.938 117.916l9-9v9h9l-9 9"/><path fill="none" stroke="#000" stroke-width=".75" stroke-linejoin="bevel" d="M423.938 117.916l-18 9 18-18m-9 0l-9 18"/><path fill="#FFF" d="M329.438 68.416h27v27h-27z"/><path fill="none" stroke="#000" stroke-width=".75" stroke-linejoin="bevel" d="M333.938 72.916h18v18h-18z"/><path fill="none" stroke="#000" stroke-width=".75" stroke-linejoin="bevel" d="M333.938 90.916l18-18-18 9 9-9m0 18l9-9h-9z"/><path fill="none" stroke="#000" stroke-width=".75" d="M342.938 81.916h-9"/><path fill="#FFF" d="M329.438 104.416h27v27h-27z"/><path fill="none" stroke="#000" stroke-width=".75" stroke-linejoin="bevel" d="M333.938 108.916h18v18h-18z"/><path fill="none" stroke="#000" stroke-width=".75" stroke-linejoin="bevel" d="M351.938 117.916l-18 9 18-18-18 9 9-9"/><path fill="none" stroke="#000" stroke-width=".75" stroke-linejoin="bevel" d="M342.938 126.916l9-9h-9"/><path fill="none" stroke="#000" stroke-width=".75" d="M342.938 117.916h-9"/><path fill="#FFF" d="M401.438 68.416h27v27h-27z"/><path fill="none" stroke="#000" stroke-width=".75" stroke-linejoin="bevel" d="M405.938 72.916h18v18h-18z"/><path fill="none" stroke="#000" stroke-width=".75" stroke-linejoin="bevel" d="M414.938 90.916l9-9h-9zm0-9v-9l-9 9"/><path fill="none" stroke="#000" stroke-width=".75" stroke-linejoin="bevel" d="M414.938 72.916l-9 18 18-18"/><path fill="#FFF" d="M365.438 32.416h27v27h-27z"/><path fill="none" stroke="#000" stroke-width=".75" stroke-linejoin="bevel" d="M369.938 36.916h18v18h-18z"/><path fill="none" stroke="#000" stroke-width=".75" stroke-linejoin="bevel" d="M369.938 45.916l9-9v9zm9 0v9l9-9"/><path fill="none" stroke="#000" stroke-width=".75" stroke-linejoin="bevel" d="M378.938 54.916l9-18-18 18"/><path fill="#FFF" d="M401.438 32.416h27v27h-27z"/><path fill="none" stroke="#000" stroke-width=".75" stroke-linejoin="bevel" d="M405.938 36.916h18v18h-18z"/><path fill="none" stroke="#000" stroke-width=".75" stroke-linejoin="bevel" d="M405.938 45.916l9-9v9m0 0v9l9-9"/><path fill="none" stroke="#000" stroke-width=".75" stroke-linejoin="bevel" d="M414.938 36.916l-9 18 18-18-9 18"/><path fill="#FFF" d="M365.438 104.416h27v27h-27z"/><path fill="none" stroke="#000" stroke-width=".75" stroke-linejoin="bevel" d="M369.938 108.916h18v18h-18z"/><path fill="none" stroke="#000" stroke-width=".75" stroke-linejoin="bevel" d="M369.938 117.916l9-9v9zm9 0h9l-9 9"/><path fill="none" stroke="#000" stroke-width=".75" stroke-linejoin="bevel" d="M387.938 117.916l-18 9 18-18"/><circle fill="#FFF" cx="279.188" cy="495.312" r="45"/><circle fill="none" stroke="#000" stroke-width=".5" stroke-dasharray="4,4" cx="279.188" cy="495.312" r="45"/><circle fill="none" stroke="#00F" cx="279.188" cy="495.312" r="30"/><path fill="#FFF" d="M238.688 481.812h27v27h-27z"/><path fill="none" stroke="#000" stroke-width=".75" stroke-linejoin="bevel" d="M243.188 486.312h18v18h-18z"/><path fill="none" stroke="#000" stroke-width=".75" stroke-linejoin="bevel" d="M261.188 495.312l-9 9-9-9z"/><path fill="none" stroke="#000" stroke-width=".75" stroke-linejoin="bevel" d="M252.188 504.312v-9l-9-9 18 9-9-9"/><path fill="#FFF" d="M265.688 454.812h27v27h-27z"/><path fill="none" stroke="#000" stroke-width=".75" stroke-linejoin="bevel" d="M270.188 459.312h18v18h-18z"/><path fill="none" stroke="#000" stroke-width=".75" stroke-linejoin="bevel" d="M279.188 477.312v-9l-9-9 9 18"/><path fill="none" stroke="#000" stroke-width=".75" stroke-linejoin="bevel" d="M270.188 459.312l18 9-9 9-9-9"/><path fill="#FFF" d="M292.688 481.812h27v27h-27z"/><path fill="none" stroke="#000" stroke-width=".75" stroke-linejoin="bevel" d="M297.188 486.312h18v18h-18z"/><path fill="none" stroke="#000" stroke-width=".75" stroke-linejoin="bevel" d="M306.188 495.312l-9-9 9 18v-18l9 9"/><path fill="none" stroke="#000" stroke-width=".75" stroke-linejoin="bevel" d="M297.188 495.312l9 9 9-9h-9"/><path fill="#FFF" d="M265.688 508.812h27v27h-27z"/><path fill="none" stroke="#000" stroke-width=".75" stroke-linejoin="bevel" d="M270.188 513.312h18v18h-18zm9 9l-9-9"/><path fill="none" stroke="#000" stroke-width=".75" stroke-linejoin="bevel" d="M270.188 522.312l9 9 9-9z"/><path fill="none" stroke="#000" stroke-width=".75" stroke-linejoin="bevel" d="M279.188 531.312v-18l9 9m-9-54h9l-9-9"/><circle fill="#FFF" cx="477.188" cy="495.312" r="45"/><circle fill="none" stroke="#000" stroke-width=".5" stroke-dasharray="4,4" cx="477.188" cy="495.312" r="45"/><circle fill="none" stroke="#00F" cx="477.188" cy="495.312" r="30"/><path fill="#FFF" d="M436.688 481.812h27v27h-27z"/><path fill="none" stroke="#000" stroke-width=".75" stroke-linejoin="bevel" d="M441.188 486.312h18v18h-18z"/><path fill="none" stroke="#000" stroke-width=".75" stroke-linejoin="bevel" d="M441.188 495.312l9-9 9 9z"/><path fill="none" stroke="#000" stroke-width=".75" stroke-linejoin="bevel" d="M450.188 486.312v9l9 9-18-9 9 9"/><path fill="#FFF" d="M490.688 481.812h27v27h-27z"/><path fill="none" stroke="#000" stroke-width=".75" stroke-linejoin="bevel" d="M495.188 486.312h18v18h-18z"/><path fill="none" stroke="#000" stroke-width=".75" stroke-linejoin="bevel" d="M504.188 495.312l9 9-9-18v18l-9-9"/><path fill="none" stroke="#000" stroke-width=".75" stroke-linejoin="bevel" d="M513.188 495.312l-9-9-9 9h9"/><path fill="#FFF" d="M463.688 508.812h27v27h-27z"/><path fill="none" stroke="#000" stroke-width=".75" stroke-linejoin="bevel" d="M468.188 513.312h18v18h-18zm9 9l9 9"/><path fill="none" stroke="#000" stroke-width=".75" stroke-linejoin="bevel" d="M486.188 522.312l-9-9-9 9z"/><path fill="none" stroke="#000" stroke-width=".75" stroke-linejoin="bevel" d="M477.188 513.312v18l-9-9"/><path fill="#FFF" d="M463.688 454.812h27v27h-27z"/><path fill="none" stroke="#000" stroke-width=".75" stroke-linejoin="bevel" d="M468.188 459.312h18v18h-18z"/><path fill="none" stroke="#000" stroke-width=".75" stroke-linejoin="bevel" d="M477.188 459.312v9l9 9-9-18"/><path fill="none" stroke="#000" stroke-width=".75" stroke-linejoin="bevel" d="M486.188 477.312l-18-9 9-9 9 9"/><path fill="none" stroke="#000" stroke-width=".75" stroke-linejoin="bevel" d="M477.188 468.312h-9l9 9"/><circle fill="#FFF" cx="153.188" cy="171.312" r="45"/><circle fill="none" stroke="#000" stroke-width=".5" stroke-dasharray="4,4" cx="153.188" cy="171.312" r="45"/><circle fill="none" stroke="#00F" cx="153.188" cy="171.312" r="30"/><path fill="#FFF" d="M112.688 157.812h27v27h-27z"/><path fill="none" stroke="#000" stroke-width=".75" stroke-linejoin="bevel" d="M117.188 162.312h18v18h-18z"/><path fill="none" stroke="#000" stroke-width=".75" stroke-linejoin="bevel" d="M126.188 162.312l9 9-9 9z"/><path fill="none" stroke="#000" stroke-width=".75" stroke-linejoin="bevel" d="M135.188 171.312h-9l-9 9 9-18-9 9"/><path fill="#FFF" d="M166.688 157.812h27v27h-27z"/><path fill="none" stroke="#000" stroke-width=".75" stroke-linejoin="bevel" d="M171.188 162.312h18v18h-18z"/><path fill="none" stroke="#000" stroke-width=".75" stroke-linejoin="bevel" d="M180.188 171.312l-9 9 18-9h-18l9-9"/><path fill="none" stroke="#000" stroke-width=".75" stroke-linejoin="bevel" d="M180.188 180.312l9-9-9-9v9"/><path fill="#FFF" d="M139.688 184.812h27v27h-27z"/><path fill="none" stroke="#000" stroke-width=".75" stroke-linejoin="bevel" d="M144.188 189.312h18v18h-18zm9 9l-9 9"/><path fill="none" stroke="#000" stroke-width=".75" stroke-linejoin="bevel" d="M153.188 207.312l9-9-9-9z"/><path fill="none" stroke="#000" stroke-width=".75" stroke-linejoin="bevel" d="M162.188 198.312h-18l9-9"/><path fill="#FFF" d="M139.688 130.812h27v27h-27z"/><path fill="none" stroke="#000" stroke-width=".75" stroke-linejoin="bevel" d="M144.188 135.312h18v18h-18z"/><path fill="none" stroke="#000" stroke-width=".75" stroke-linejoin="bevel" d="M162.188 144.312h-9l-9 9 18-9"/><path fill="none" stroke="#000" stroke-width=".75" stroke-linejoin="bevel" d="M144.188 153.312l9-18 9 9-9 9"/><path fill="none" stroke="#000" stroke-width=".75" stroke-linejoin="bevel" d="M153.188 144.312v-9l-9 9"/><circle fill="#FFF" cx="603.188" cy="171.312" r="45"/><circle fill="none" stroke="#000" stroke-width=".5" stroke-dasharray="4,4" cx="603.188" cy="171.312" r="45"/><circle fill="none" stroke="#00F" cx="603.188" cy="171.312" r="30"/><path fill="#FFF" d="M562.688 157.812h27v27h-27z"/><path fill="none" stroke="#000" stroke-width=".75" stroke-linejoin="bevel" d="M567.188 162.312h18v18h-18z"/><path fill="none" stroke="#000" stroke-width=".75" stroke-linejoin="bevel" d="M576.188 180.312l-9-9 9-9z"/><path fill="none" stroke="#000" stroke-width=".75" stroke-linejoin="bevel" d="M567.188 171.312h9l9-9-9 18 9-9"/><path fill="#FFF" d="M616.688 157.812h27v27h-27z"/><path fill="none" stroke="#000" stroke-width=".75" stroke-linejoin="bevel" d="M621.188 162.312h18v18h-18z"/><path fill="none" stroke="#000" stroke-width=".75" stroke-linejoin="bevel" d="M630.188 171.312l9-9-18 9h18l-9 9"/><path fill="none" stroke="#000" stroke-width=".75" stroke-linejoin="bevel" d="M630.188 162.312l-9 9 9 9v-9"/><path fill="#FFF" d="M589.688 184.812h27v27h-27z"/><path fill="none" stroke="#000" stroke-width=".75" stroke-linejoin="bevel" d="M594.188 189.312h18v18h-18zm9 9l9-9"/><path fill="none" stroke="#000" stroke-width=".75" stroke-linejoin="bevel" d="M603.188 189.312l-9 9 9 9z"/><path fill="none" stroke="#000" stroke-width=".75" stroke-linejoin="bevel" d="M594.188 198.312h18l-9 9"/><path fill="#FFF" d="M589.688 130.812h27v27h-27z"/><path fill="none" stroke="#000" stroke-width=".75" stroke-linejoin="bevel" d="M594.188 135.312h18v18h-18z"/><path fill="none" stroke="#000" stroke-width=".75" stroke-linejoin="bevel" d="M594.188 144.312h9l9-9-18 9"/><path fill="none" stroke="#000" stroke-width=".75" stroke-linejoin="bevel" d="M612.188 135.312l-9 18-9-9 9-9"/><path fill="none" stroke="#000" stroke-width=".75" stroke-linejoin="bevel" d="M603.188 144.312v9l9-9"/><path fill="#FFF" d="M283.938 301.562h27v27h-27z"/><path fill="none" stroke="#000" stroke-width=".75" stroke-linejoin="bevel" d="M288.438 306.062h18v18h-18z"/><path fill="none" stroke="#000" stroke-width=".75" stroke-linejoin="bevel" d="M288.438 315.062l8.75.25.25-9.25m-9 0l8.75 9.25m-8.75 8.75l18-18m0 9l-9 9-.25-8.75z"/><path fill="#FFF" d="M274.938 256.562h27v27h-27z"/><path fill="none" stroke="#000" stroke-width=".75" stroke-linejoin="bevel" d="M279.438 261.062h18v18h-18z"/><path fill="none" stroke="#000" stroke-width=".75" stroke-linejoin="bevel" d="M279.438 270.062l8.75.25.25-9.25m-9 0l8.75 9.25m-8.75 8.75l8.75-8.75 9.25-9.25-9 18 9-9m-9.25.25l.25 8.75"/><path fill="#FFF" d="M238.688 292.562h27v27h-27z"/><path fill="none" stroke="#000" stroke-width=".75" stroke-linejoin="bevel" d="M243.188 297.062h18v18h-18z"/><path fill="none" stroke="#000" stroke-width=".75" stroke-linejoin="bevel" d="M243.188 306.062l8.75.25.25-9.25m-9 0l8.75 9.25m9.25-9.25l-18 18 18-9-9 9m0-8.75l9-.25"/><circle fill="#FFF" cx="153.188" cy="621.312" r="45"/><circle fill="none" stroke="#000" stroke-width=".5" stroke-dasharray="4,4" cx="153.188" cy="621.312" r="45"/><path fill="none" stroke="#00F" d="M126.188 612.312l45-9-9 45"/><path fill="#FFF" d="M157.938 590.062h27v27h-27z"/><path fill="none" stroke="#000" stroke-width=".75" stroke-linejoin="bevel" d="M162.438 594.562h18v18h-18z"/><path fill="none" stroke="#000" stroke-width=".75" stroke-linejoin="bevel" d="M162.438 603.562l8.75-.25.25 9.25m-9 0l8.75-9.25m-8.75-8.75l18 18m0-9l-9-9-.25 8.75z"/><path fill="#FFF" d="M148.938 635.062h27v27h-27z"/><path fill="none" stroke="#000" stroke-width=".75" stroke-linejoin="bevel" d="M153.438 639.562h18v18h-18z"/><path fill="none" stroke="#000" stroke-width=".75" stroke-linejoin="bevel" d="M153.438 648.562l8.75-.25.25 9.25m-9 0l8.75-9.25m-8.75-8.75l8.75 8.75 9.25 9.25-9-18 9 9m-9.25-.25l.25-8.75"/><path fill="#FFF" d="M112.688 599.062h27v27h-27z"/><path fill="none" stroke="#000" stroke-width=".75" stroke-linejoin="bevel" d="M117.188 603.562h18v18h-18z"/><path fill="none" stroke="#000" stroke-width=".75" stroke-linejoin="bevel" d="M117.188 612.562l8.75-.25.25 9.25m-9 0l8.75-9.25"/><path fill="none" stroke="#000" stroke-width=".75" stroke-linejoin="bevel" d="M135.188 621.562l-18-18 18 9-9-9m0 8.75l9 .25"/><circle fill="#FFF" cx="603.188" cy="621.312" r="45"/><circle fill="none" stroke="#000" stroke-width=".5" stroke-dasharray="4,4" cx="603.188" cy="621.312" r="45"/><path fill="none" stroke="#00F" d="M630.188 612.312l-45-9 9 45"/><path fill="#FFF" d="M571.438 590.062h27v27h-27z"/><path fill="none" stroke="#000" stroke-width=".75" stroke-linejoin="bevel" d="M575.938 594.562h18v18h-18z"/><path fill="none" stroke="#000" stroke-width=".75" stroke-linejoin="bevel" d="M584.938 594.562l-.25 8.75 9.25.25m0-9l-9.25 8.75m-8.75-8.75l18 18m-9 0l-9-9 8.75-.25z"/><path fill="#FFF" d="M580.438 635.062h27v27h-27z"/><path fill="none" stroke="#000" stroke-width=".75" stroke-linejoin="bevel" d="M584.938 639.562h18v18h-18z"/><path fill="none" stroke="#000" stroke-width=".75" stroke-linejoin="bevel" d="M593.938 639.562l-.25 8.75 9.25.25m0-9l-9.25 8.75"/><path fill="none" stroke="#000" stroke-width=".75" stroke-linejoin="bevel" d="M584.938 639.562l8.75 8.75 9.25 9.25-18-9 9 9m-.25-9.25l-8.75.25"/><path fill="#FFF" d="M616.688 599.062h27v27h-27z"/><path fill="none" stroke="#000" stroke-width=".75" stroke-linejoin="bevel" d="M621.188 603.562h18v18h-18z"/><path fill="none" stroke="#000" stroke-width=".75" stroke-linejoin="bevel" d="M630.188 603.562l-.25 8.75 9.25.25m0-9l-9.25 8.75"/><path fill="none" stroke="#000" stroke-width=".75" stroke-linejoin="bevel" d="M639.188 621.562l-18-18 9 18-9-9m8.75 0l.25 9"/><circle fill="#FFF" cx="477.188" cy="297.312" r="45"/><circle fill="none" stroke="#000" stroke-width=".5" stroke-dasharray="4,4" cx="477.188" cy="297.312" r="45"/><path fill="none" stroke="#00F" d="M504.188 306.312l-45 9 9-45"/><path fill="#FFF" d="M445.438 301.562h27v27h-27z"/><path fill="none" stroke="#000" stroke-width=".75" stroke-linejoin="bevel" d="M449.938 306.062h18v18h-18z"/><path fill="none" stroke="#000" stroke-width=".75" stroke-linejoin="bevel" d="M458.938 324.062l-.25-8.75 9.25-.25m0 9l-9.25-8.75m-8.75 8.75l18-18m-9 0l-9 9 8.75.25z"/><path fill="#FFF" d="M454.438 256.562h27v27h-27z"/><path fill="none" stroke="#000" stroke-width=".75" stroke-linejoin="bevel" d="M458.938 261.062h18v18h-18z"/><path fill="none" stroke="#000" stroke-width=".75" stroke-linejoin="bevel" d="M467.938 279.062l-.25-8.75 9.25-.25m0 9l-9.25-8.75m-8.75 8.75l8.75-8.75 9.25-9.25-18 9 9-9m-.25 9.25l-8.75-.25"/><path fill="#FFF" d="M490.688 292.562h27v27h-27z"/><path fill="none" stroke="#000" stroke-width=".75" stroke-linejoin="bevel" d="M495.188 297.062h18v18h-18z"/><path fill="none" stroke="#000" stroke-width=".75" stroke-linejoin="bevel" d="M504.188 315.062l-.25-8.75 9.25-.25m0 9l-9.25-8.75m9.25-9.25l-18 18 9-18-9 9m8.75 0l.25-9"/></svg>