<svg xmlns="http://www.w3.org/2000/svg" width="812" height="641"><path fill="none" stroke="#00F" stroke-linejoin="bevel" d="M384.89 287.893l18-50.4m7.2 0l18 50.4m-43.2-50.4l18-50.4m7.2 0l18 50.4m-3.6 54l-50.4-18m75.6 3.6l18 50.4m-3.6 3.6l-50.4-18m75.6-46.8l-50.399-18m-64.801 18l50.4-18m-50.4 43.2l-50.4-18m0-7.2l50.4-18m64.801 43.2l50.399-18m-61.2-21.6l-18 50.4m3.6-75.6l50.4-18m3.6 3.6l-18 50.4m-46.8 39.6l-18-50.4m43.2 50.4l-18 50.4m-7.2 0l-18-50.4m3.6-54l50.401 18m-75.601-3.6l-18-50.4m3.6-3.6l50.4 18m39.601 46.8l-50.401 18m-43.2 36l18-50.4m36 36l-50.4 18m0-129.6l50.4-18m14.4 0l50.4 18m10.801 10.8l18 50.4m0 14.4l-18 50.4m-10.801 10.8l-50.4 18m-14.4 0l-50.4-18m-10.8-10.8l-18-50.4m0-14.4l18-50.4"/><path fill="none" stroke="#000" stroke-width=".75" stroke-linejoin="bevel" d="M401.104 354.479h10.8v10.8h-10.8z"/><path fill="none" stroke="#000" stroke-width=".75" stroke-linejoin="bevel" d="M406.505 365.278v-10.799l5.4 5.399h-10.801zm5.4 0l-10.801-10.799m-64.799-25.201h10.8v10.8h-10.8z"/><path fill="none" stroke="#000" stroke-width=".75" stroke-linejoin="bevel" d="M336.305 334.678h10.799l-5.399-5.4v10.8m5.399 0l-10.799-10.8m0 10.8l5.4-5.4m59.399-30.6h10.8v10.8h-10.8zm5.401 0v10.8m-5.401-5.399h10.801m-10.801 5.399l10.801-10.8m0 10.8l-10.801-10.8m-25.199-14.4h10.8v10.8h-10.8z"/><path fill="none" stroke="#000" stroke-width=".75" stroke-linejoin="bevel" d="M381.305 289.678v10.801l-5.4-5.401h10.8zm0 10.801l5.4-5.401m-5.4 0l-5.4-5.4m-14.4-25.199h10.8v10.8h-10.8z"/><path fill="none" stroke="#000" stroke-width=".75" stroke-linejoin="bevel" d="M361.505 275.278l5.4-5.4 5.4 5.4"/><path fill="none" stroke="#000" stroke-width=".75" stroke-linejoin="bevel" d="M366.905 264.479l5.4 5.399h-10.8l5.4-5.399v10.799m-55.801-10.799h10.8v10.8h-10.8z"/><path fill="none" stroke="#000" stroke-width=".75" stroke-linejoin="bevel" d="M321.905 269.878l-5.4-5.399v10.799l5.4-5.4h-10.801"/><path fill="none" stroke="#000" stroke-width=".75" stroke-linejoin="bevel" d="M311.104 275.278l5.401-5.4-5.401-5.399m25.201-64.801h10.8v10.8h-10.8zm0 10.801l5.4-5.401"/><path fill="none" stroke="#000" stroke-width=".75" stroke-linejoin="bevel" d="M347.104 205.078l-5.399 5.401v-10.801l-5.4 5.4h10.799l-5.399-5.4m59.399 25.2h10.8v10.8h-10.8z"/><path fill="none" stroke="#000" stroke-width=".75" stroke-linejoin="bevel" d="M406.505 235.678v-10.8l-5.401 5.4h10.801zm0-10.8l5.4 5.4m-10.801 0l5.401 5.4m-30.6 3.6h10.8v10.8h-10.8z"/><path fill="none" stroke="#000" stroke-width=".75" stroke-linejoin="bevel" d="M381.305 239.278v10.8l5.4-5.4h-10.8m0 5.4l10.8-10.8m-5.4 5.4l-5.4-5.4m25.199-64.799h10.8v10.8h-10.8z"/><path fill="none" stroke="#000" stroke-width=".75" stroke-linejoin="bevel" d="M411.905 179.878h-10.801l5.401-5.399v10.799zm-10.801 5.4l10.801-10.799m54 25.199h10.8v10.8h-10.8zm5.4 5.4l5.4-5.4"/><path fill="none" stroke="#000" stroke-width=".75" stroke-linejoin="bevel" d="M465.905 205.078l5.4-5.4v10.801l5.4-5.401h-10.8l5.4 5.401m-45 28.799h10.801v10.8h-10.801z"/><path fill="none" stroke="#000" stroke-width=".75" stroke-linejoin="bevel" d="M437.105 244.678h-10.8l5.4-5.4v10.8m-5.4 0l10.8-10.8m-5.4 5.4l5.4 5.4"/><path fill="none" stroke="#00F" stroke-linejoin="bevel" d="M330.89 43.093l18 50.4m-54 28.8l50.4-18m-61.2 14.4l-18-50.4m3.6-10.8l50.4-18m-104.4 93.6l18-50.4m-79.2 79.2l50.4-18m-25.2-46.8l50.4-18m-79.2 79.2l18-50.4m72-39.6l18-50.4m-82.8 75.6l18-50.4"/><path fill="none" stroke="#000" stroke-width=".75" stroke-linejoin="bevel" d="M440.705 264.479h10.8v10.8h-10.8z"/><path fill="none" stroke="#000" stroke-width=".75" stroke-linejoin="bevel" d="M440.705 264.479l5.4 5.399 5.4-5.399"/><path fill="none" stroke="#000" stroke-width=".75" stroke-linejoin="bevel" d="M446.105 275.278l-5.4-5.4h10.8l-5.4 5.4v-10.799m45 0h10.8v10.8h-10.8z"/><path fill="none" stroke="#000" stroke-width=".75" stroke-linejoin="bevel" d="M491.105 269.878l5.4 5.4v-10.799l-5.4 5.399h10.8"/><path fill="none" stroke="#000" stroke-width=".75" stroke-linejoin="bevel" d="M501.905 275.278l-5.4-5.4 5.4-5.399m-75.6 25.199h10.801v10.8h-10.801zm10.8 10.801l-5.4-5.401"/><path fill="none" stroke="#000" stroke-width=".75" stroke-linejoin="bevel" d="M431.705 289.678l5.4 5.4h-10.8l5.4 5.401v-10.801l-5.4 5.4m39.6 34.2h10.8v10.8h-10.8z"/><path fill="none" stroke="#000" stroke-width=".75" stroke-linejoin="bevel" d="M476.705 334.678h-10.8l5.4 5.4v-10.8m-5.4 0l10.8 10.8m0-10.8l-5.4 5.4"/><path fill="none" stroke="#00F" stroke-linejoin="bevel" d="M665.69 446.293l-50.4-18m64.8 18l50.4-18m-61.2 28.8l-18 50.4m-64.8-25.2l18-50.4m129.6 0l-18 50.4m-10.8 10.8l-50.399 18m-14.401 0l-50.4-18m10.801-72l-50.401-18m-28.8 54l18-50.4m36 79.2l-50.4-18m219.601-46.8l50.399-18m3.601 3.6l-18 50.4m-10.801 10.8l-50.4 18"/><path fill="none" stroke="#000" stroke-width=".75" stroke-linejoin="bevel" d="M707.105 484.078h10.8v10.8h-10.8z"/><path fill="none" stroke="#000" stroke-width=".75" stroke-linejoin="bevel" d="M717.905 489.479h-10.8l5.4 5.399m-5.4-10.8l10.8 10.8m0-10.8l-5.4 5.401m0-5.401v5.401m-5.4 0l10.8 5.399m54-36h10.8v10.8h-10.8z"/><path fill="none" stroke="#000" stroke-width=".75" stroke-linejoin="bevel" d="M782.705 464.278h-10.8l5.4 5.4m-5.4-10.8l10.8 10.8m0-10.8l-5.4 5.4m0-5.4v5.4m-5.4 0l10.8 5.4m14.4-75.6h10.8v10.8h-10.8z"/><path fill="none" stroke="#000" stroke-width=".75" stroke-linejoin="bevel" d="M802.505 394.078l-5.4 5.401h10.8m-10.8 0l5.4 5.399"/><path fill="none" stroke="#000" stroke-width=".75" stroke-linejoin="bevel" d="M807.905 404.878l-5.4-5.399 5.4-5.401m-5.4 0v5.401m-5.4 0l10.8 5.399m-79.187-129.59h10.8v10.8h-10.8z"/><path fill="none" stroke="#000" stroke-width=".75" stroke-linejoin="bevel" d="M734.118 275.288l-5.4 5.4h10.8m-10.8 0l5.4 5.4"/><path fill="none" stroke="#000" stroke-width=".75" stroke-linejoin="bevel" d="M739.518 286.088l-10.8-5.4 10.8-5.4-5.4 5.4 5.4 5.4m-7.213 133.19h10.801v10.8h-10.801z"/><path fill="none" stroke="#000" stroke-width=".75" stroke-linejoin="bevel" d="M737.705 419.278l-5.4 5.4h10.8m-10.8 0l5.4 5.4"/><path fill="none" stroke="#000" stroke-width=".75" stroke-linejoin="bevel" d="M743.105 430.078l-5.4-5.4 5.4-5.4m-5.4 0v5.4m-5.4 0l10.8 5.4m-100.809 79.2h10.8v10.8h-10.8zm0 5.4l5.399 5.4m0-10.8l5.401 5.4m0 5.4l-10.8-10.8m5.399 0v5.4m-5.399 0l10.8 5.4m-5.401-5.4h-5.399m5.399-5.4l5.401 10.8m14.4-75.599h10.8v10.8h-10.8zm5.4 0l-5.4 5.399m0 0l5.4 5.4"/><path fill="none" stroke="#000" stroke-width=".75" stroke-linejoin="bevel" d="M672.896 449.878v-5.399l5.4 5.399m-10.8 0l10.8 5.4-5.4-5.4m0 0h-5.4m5.4-5.399l5.4 10.799m-75.601-36h10.801v10.8h-10.801zm5.401 5.4l5.4 5.4m-5.4-10.8l5.4 5.4"/><path fill="none" stroke="#000" stroke-width=".75" stroke-linejoin="bevel" d="M608.096 424.678h-5.401l5.401 5.4v-10.8l-5.401 5.4m5.401-5.4l5.4 10.8m-36 54h10.8v10.8h-10.8zm10.8 10.8l-10.8-10.8"/><path fill="none" stroke="#000" stroke-width=".75" stroke-linejoin="bevel" d="M582.896 489.479h-5.4l5.4 5.399v-10.8l5.4 5.401m-5.4-5.401l5.4 10.8m-75.601-36h10.801v10.8h-10.801z"/><path fill="none" stroke="#000" stroke-width=".75" stroke-linejoin="bevel" d="M523.496 464.278l-5.4-5.4v10.8m5.4 0l-10.801-10.8m0 10.8l5.401-5.4m0 0h-5.401m5.401-5.4l5.4 10.8m14.4-75.6h10.8v10.8h-10.8z"/><path fill="none" stroke="#000" stroke-width=".75" stroke-linejoin="bevel" d="M537.896 404.878l5.4-5.399 5.399 5.399"/><path fill="none" stroke="#000" stroke-width=".75" stroke-linejoin="bevel" d="M537.896 399.479l5.4-5.401v10.8m0-10.8l5.399 5.401m-5.399 0h-5.4m5.4-5.401l5.399 10.8m-10.79-212.399h10.8v10.8h-10.8z"/><path fill="none" stroke="#000" stroke-width=".75" stroke-linejoin="bevel" d="M548.705 203.278l-5.4-5.4-5.4 5.4 5.4-10.799 5.4 10.799"/><path fill="none" stroke="#000" stroke-width=".75" stroke-linejoin="bevel" d="M537.905 197.878l5.4-5.399v10.799m0-10.799l5.4 5.399"/><path fill="none" stroke="#00F" stroke-linejoin="bevel" d="M730.49 417.493l-291.599-115.2m356.399 90l-291.6-115.2m201.6 205.2l-291.6-115.2m356.4 90l-291.6-115.2m126 75.6l-169.2-115.2m144 180l-169.2-115.2m129.6 25.2l-169.2-115.2m144 180l-169.2-115.2m-198 104.4l50.4-18m-64.8 18l-50.4-18m61.2 28.8l18 50.4m64.8-25.2l-18-50.4m-129.6 0l18 50.4m10.8 10.8l50.4 18m14.4 0l50.4-18m-10.8-72l50.4-18m28.8 54l-18-50.4m-36 79.2l50.4-18m-219.6-46.8l-50.4-18m-3.6 3.6l18 50.4m10.8 10.8l50.4 18"/><path fill="none" stroke="#000" stroke-width=".75" stroke-linejoin="bevel" d="M30.275 458.967h10.8v10.8h-10.8z"/><path fill="none" stroke="#000" stroke-width=".75" stroke-linejoin="bevel" d="M30.275 464.366h10.8l-5.399-5.399m5.399 10.8l-10.8-10.8m0 10.8l5.401-5.401m0 5.401v-5.401m5.399 0l-10.8-5.399m-25.2-64.801h10.8v10.801h-10.8z"/><path fill="none" stroke="#000" stroke-width=".75" stroke-linejoin="bevel" d="M10.476 404.967l5.399-5.401h-10.8m10.8 0l-5.399-5.4"/><path fill="none" stroke="#000" stroke-width=".75" stroke-linejoin="bevel" d="M5.075 394.166l5.401 5.4-5.401 5.401m5.401 0v-5.401m5.399 0l-10.8-5.4m64.8 25.2h10.8v10.8h-10.8zm10.801 5.401l-5.401-5.401m-5.4 0l5.4 5.401"/><path fill="none" stroke="#000" stroke-width=".75" stroke-linejoin="bevel" d="M75.275 424.767v5.399l-5.4-5.399h10.801l-5.401 5.399m5.401-5.399l-10.801-5.401m90.01 90h10.8v10.8h-10.8zm10.8 5.401l-5.4-5.401m0 10.8l-5.4-5.399m0-5.401l10.8 10.8m-5.4 0v-5.399m5.4 0l-10.8-5.401m5.4 5.401h5.4m-5.4 5.399l-5.4-10.8m-25.2-64.8h10.8v10.8h-10.8zm5.4 10.8l5.4-5.399m0 0l-5.4-5.401"/><path fill="none" stroke="#000" stroke-width=".75" stroke-linejoin="bevel" d="M140.085 449.967v5.399l-5.4-5.399m10.8 0l-10.8-5.401 5.4 5.401m0 0h5.4m-5.4 5.399l-5.4-10.8m64.8-25.2h10.8v10.8h-10.8zm5.4 5.401l-5.4-5.401m5.4 10.8l-5.4-5.399"/><path fill="none" stroke="#000" stroke-width=".75" stroke-linejoin="bevel" d="M204.885 424.767h5.4l-5.4-5.401v10.8l5.4-5.399m-5.4 5.399l-5.4-10.8m25.2 64.8h10.8v10.801h-10.8zm0 0l10.8 10.801"/><path fill="none" stroke="#000" stroke-width=".75" stroke-linejoin="bevel" d="M230.085 489.566h5.4l-5.4-5.4v10.801l-5.4-5.401m5.4 5.401l-5.4-10.801m172.8 39.542h10.8v10.8h-10.8z"/><path fill="none" stroke="#000" stroke-width=".75" stroke-linejoin="bevel" d="M402.885 523.708l5.4 10.8-10.8-10.8"/><path fill="none" stroke="#000" stroke-width=".75" stroke-linejoin="bevel" d="M408.285 529.107l-5.4-5.399v10.8l-5.4-5.401m5.4 5.401l-5.4-10.8m-108-64.741h10.8v10.8h-10.8z"/><path fill="none" stroke="#000" stroke-width=".75" stroke-linejoin="bevel" d="M289.485 464.366l5.4 5.401v-10.8m-5.4 0l10.8 10.8m0-10.8l-5.4 5.399m0 0h5.4m-5.4 5.401l-5.4-10.8m-25.2-64.801h10.8v10.801h-10.8z"/><path fill="none" stroke="#000" stroke-width=".75" stroke-linejoin="bevel" d="M275.085 394.166l-5.4 5.4-5.4-5.4"/><path fill="none" stroke="#000" stroke-width=".75" stroke-linejoin="bevel" d="M275.085 399.566l-5.4 5.401v-10.801m0 10.801l-5.4-5.401m5.4 0h5.4m-5.4 5.401l-5.4-10.801m0-201.658h10.8v10.8h-10.8z"/><path fill="none" stroke="#000" stroke-width=".75" stroke-linejoin="bevel" d="M275.085 197.907l-5.4 5.401v-10.8m0 10.8l-5.4-5.401"/><path fill="none" stroke="#000" stroke-width=".75" stroke-linejoin="bevel" d="M264.285 192.508l5.4 10.8 5.4-10.8-5.4 5.399-5.4-5.399"/><path fill="none" stroke="#00F" stroke-linejoin="bevel" d="M82.49 417.493l291.6-115.2m-356.4 90l291.6-115.2m-201.6 205.2l291.6-115.2m-356.4 90l291.6-115.2m-126 75.6l169.2-115.2m-144 180l169.2-115.2m-129.6 25.2l169.2-115.2m-144 180l169.2-115.2"/><path fill="none" stroke="#000" stroke-width=".75" stroke-linejoin="bevel" d="M95.075 484.166h10.8v10.801h-10.8z"/><path fill="none" stroke="#000" stroke-width=".75" stroke-linejoin="bevel" d="M100.476 484.166l5.399 5.4h-10.8l5.401 5.401v-5.401l-5.401-5.4 10.8 5.4m-5.399 0l5.399 5.401m295.2 129.531h10.8v10.801h-10.8z"/><path fill="none" stroke="#000" stroke-width=".75" stroke-linejoin="bevel" d="M406.476 629.898l-5.401-5.4 10.8 5.4"/><path fill="none" stroke="#000" stroke-width=".75" stroke-linejoin="bevel" d="M406.476 624.498l5.399 5.4h-10.8l5.401 5.401"/><path fill="none" stroke="#000" stroke-width=".75" stroke-linejoin="bevel" d="M401.075 629.898l10.8 5.401-5.399-5.401"/><path fill="none" stroke="#00F" stroke-linejoin="bevel" d="M237.29 493.093l158.4 36m14.4 0l165.6-36m-468 3.6l291.6 133.2m14.4 0l295.201-133.2"/><path fill="none" stroke="#000" stroke-width=".75" stroke-linejoin="bevel" d="M167.104 95.278h10.8v10.8h-10.8zm0 10.8l5.401-5.4"/><path fill="none" stroke="#000" stroke-width=".75" stroke-linejoin="bevel" d="M172.505 95.278l-5.401 5.4h10.801l-5.4-5.4m5.4 5.4l-5.4 5.4m0-10.8v5.4m-5.401 5.4l10.801-5.4m-36 59.4h10.8v10.8h-10.8z"/><path fill="none" stroke="#000" stroke-width=".75" stroke-linejoin="bevel" d="M147.305 170.878l5.4-5.399h-10.8m10.8 0l-5.4-5.401"/><path fill="none" stroke="#000" stroke-width=".75" stroke-linejoin="bevel" d="M141.905 170.878l5.4-5.399-5.4-5.401m5.4 0v5.401m-5.4 5.399l10.8-5.399m-79.2 109.809h10.8v10.8h-10.8z"/><path fill="none" stroke="#000" stroke-width=".75" stroke-linejoin="bevel" d="M78.905 286.088l5.4-5.4h-10.8m10.8 0l-5.4-5.4"/><path fill="none" stroke="#000" stroke-width=".75" stroke-linejoin="bevel" d="M73.505 286.088l5.4-5.4-5.4-5.4 10.8 5.4-10.8 5.4m133.2-151.21h10.8v10.8h-10.8z"/><path fill="none" stroke="#000" stroke-width=".75" stroke-linejoin="bevel" d="M212.104 145.678l5.401-5.4h-10.8m0 5.4l10.8-10.8m-5.401 5.4l-5.399-5.4m5.399 0v5.4m-5.399 5.4l10.8-5.4m14.4-70.2h10.8v10.8h-10.8z"/><path fill="none" stroke="#000" stroke-width=".75" stroke-linejoin="bevel" d="M237.305 80.878l5.4-5.399h-10.8l5.4-5.401m-5.4 10.8l10.8-10.8m-5.4 0v5.401m-5.4 5.399l10.8-5.399m158.399-5.391h10.8v10.8h-10.8z"/><path fill="none" stroke="#000" stroke-width=".75" stroke-linejoin="bevel" d="M406.505 80.888l5.4-5.401h-10.801l5.401-5.399"/><path fill="none" stroke="#000" stroke-width=".75" stroke-linejoin="bevel" d="M401.104 75.487l10.801-5.399-10.801 10.8m0 0l10.801-5.401M257.104 55.678h10.8v10.8h-10.8zm0 10.801l5.401-5.401m5.4 0l-5.4-5.4"/><path fill="none" stroke="#000" stroke-width=".75" stroke-linejoin="bevel" d="M267.905 61.078l-5.4 5.401V55.678l-5.401 5.4m5.401 0h5.4m-5.4-5.4l-5.401 10.801m25.201 54h10.8v10.8h-10.8z"/><path fill="none" stroke="#000" stroke-width=".75" stroke-linejoin="bevel" d="M282.305 131.278l5.4-5.4 5.399 5.4"/><path fill="none" stroke="#000" stroke-width=".75" stroke-linejoin="bevel" d="M282.305 125.878l5.4-5.399v10.799m0-10.799l5.399 5.399m-5.399 0h5.399m-5.399-5.399l-5.4 10.799m64.799-36h10.8v10.8h-10.8z"/><path fill="none" stroke="#000" stroke-width=".75" stroke-linejoin="bevel" d="M347.104 100.678l5.401-5.4v10.8m-5.401 0l10.801-10.8m-5.4 5.4l5.4 5.4m-5.4-5.4h5.4m-5.4-5.4l-5.401 10.8m-25.199-75.599h10.8v10.8h-10.8z"/><path fill="none" stroke="#000" stroke-width=".75" stroke-linejoin="bevel" d="M321.905 35.878l5.4-5.399v10.799l5.4-5.4m-10.8 5.4l10.8-10.799m-5.4 5.399h5.4m-5.4-5.399l-5.4 10.799m79.191-10.799h10.8v10.8h-10.8z"/><path fill="none" stroke="#000" stroke-width=".75" stroke-linejoin="bevel" d="M401.096 35.878l5.399-5.399v10.799l5.401-5.4"/><path fill="none" stroke="#000" stroke-width=".75" stroke-linejoin="bevel" d="M406.495 41.278l5.401-10.799-10.8 10.799m5.399-10.799l-5.399 10.799"/><path fill="none" stroke="#00F" stroke-linejoin="bevel" d="M204.89 32.293l50.4-18"/><path fill="none" stroke="#000" stroke-width=".75" stroke-linejoin="bevel" d="M192.305 30.479h10.8v10.8h-10.8zm0 10.799l5.4-5.4m5.399 0l-5.399-5.399m0 0l-5.4 5.399m10.799 0l-5.399 5.4"/><path fill="none" stroke="#000" stroke-width=".75" stroke-linejoin="bevel" d="M203.104 35.878h-5.399v-5.399l-5.4 10.799zm54-30.6h10.8v10.8h-10.8zm5.401 10.8l5.4-5.4m-10.801 0l5.401-5.4m-5.401 10.8l10.801-10.8"/><path fill="none" stroke="#000" stroke-width=".75" stroke-linejoin="bevel" d="M267.905 10.678h-5.4v-5.4l-5.401 10.8z"/><path fill="none" stroke="#00F" stroke-linejoin="bevel" d="M204.89 39.493l50.4 18m14.4-43.2l50.4 18m14.4 10.8l64.8 129.6m-43.2-64.8l68.4 129.6m-129.6-104.4l64.8 133.2m-90-198l65.2 130.8m-90.4-120l154.8 97.2m-180-32.4l154.8 97.2m-194.4-136.8l154.8 97.2m-180-32.4l154.8 97.2m172.8-223.2l-18 50.4m54 28.8l-50.4-18m61.201 14.4l18-50.4m-3.601-10.8l-50.399-18m104.399 93.6l-18-50.4m79.2 79.2l-50.4-18m25.2-46.8l-50.399-18m79.199 79.2l-18-50.4m-72-39.6l-18-50.4m82.801 75.6l-18-50.4"/><path fill="none" stroke="#000" stroke-width=".75" stroke-linejoin="bevel" d="M635.075 95.366h10.8v10.8h-10.8zm10.8 0l-5.399 5.4"/><path fill="none" stroke="#000" stroke-width=".75" stroke-linejoin="bevel" d="M640.476 106.166l5.399-5.4h-10.8l5.401 5.4m-5.401-5.4l5.401-5.4m0 10.8v-5.4m5.399-5.4l-10.8 5.4m25.2 59.4h10.8v10.8h-10.8z"/><path fill="none" stroke="#000" stroke-width=".75" stroke-linejoin="bevel" d="M665.676 160.166l-5.401 5.4h10.8m-10.8 0l5.401 5.4"/><path fill="none" stroke="#000" stroke-width=".75" stroke-linejoin="bevel" d="M671.075 160.166l-5.399 5.4 5.399 5.4m-5.399 0v-5.4m5.399-5.4l-10.8 5.4m-64.799-30.6h10.8v10.8h-10.8z"/><path fill="none" stroke="#000" stroke-width=".75" stroke-linejoin="bevel" d="M600.875 134.966l-5.399 5.4h10.799m0-5.4l-10.799 10.8m5.399-5.4l5.4 5.4m-5.4 0v-5.4m5.4-5.4l-10.799 5.4m-25.201-70.2h10.8v10.8h-10.8z"/><path fill="none" stroke="#000" stroke-width=".75" stroke-linejoin="bevel" d="M575.676 70.166l-5.401 5.4h10.8l-5.399 5.4m5.399-10.8l-10.8 10.8m5.401 0v-5.4m5.399-5.4l-10.8 5.4m-25.2-19.8h10.8v10.8h-10.8zm10.8 0l-5.399 5.4m-5.401 0l5.401 5.4"/><path fill="none" stroke="#000" stroke-width=".75" stroke-linejoin="bevel" d="M545.075 61.166l5.401-5.4v10.8l5.399-5.4m-5.399 0h-5.401m5.401 5.4l5.399-10.8m-36 64.8h10.801v10.8h-10.801z"/><path fill="none" stroke="#000" stroke-width=".75" stroke-linejoin="bevel" d="M530.676 120.566l-5.401 5.4-5.4-5.4"/><path fill="none" stroke="#000" stroke-width=".75" stroke-linejoin="bevel" d="M530.676 125.966l-5.401 5.4v-10.8m0 10.8l-5.4-5.4m5.4 0h-5.4m5.4 5.4l5.401-10.8m-75.601-25.2h10.8v10.8h-10.8z"/><path fill="none" stroke="#000" stroke-width=".75" stroke-linejoin="bevel" d="M465.875 100.766l-5.399 5.4v-10.8m5.399 0l-10.8 10.8m5.401-5.4l-5.401-5.4m5.401 5.4h-5.401m5.401 5.4l5.399-10.8m14.4-64.8h10.8v10.8h-10.8z"/><path fill="none" stroke="#000" stroke-width=".75" stroke-linejoin="bevel" d="M491.075 35.966l-5.399 5.4v-10.8l-5.401 5.4m10.8-5.4l-10.8 10.8m5.401-5.4h-5.401m5.401 5.4l5.399-10.8"/><path fill="none" stroke="#00F" stroke-linejoin="bevel" d="M608.09 32.293l-50.4-18"/><path fill="none" stroke="#000" stroke-width=".75" stroke-linejoin="bevel" d="M609.875 30.566h10.801v10.8h-10.801zm10.801 0l-5.401 5.4m-5.4 0l5.4 5.4m0 0l5.401-5.4m-10.801 0l5.4-5.4"/><path fill="none" stroke="#000" stroke-width=".75" stroke-linejoin="bevel" d="M609.875 35.966h5.4v5.4l5.401-10.8zm-64.8-30.6h10.8v10.8h-10.8zm5.401 0l-5.401 5.4m10.8 0l-5.399 5.4m5.399-10.8l-10.8 10.8"/><path fill="none" stroke="#000" stroke-width=".75" stroke-linejoin="bevel" d="M545.075 10.766h5.401v5.4l5.399-10.8z"/><path fill="none" stroke="#00F" stroke-linejoin="bevel" d="M608.09 39.493l-50.4 18m-14.4-43.2l-50.399 18m-14.401 10.8l-64.8 129.6m43.201-64.8l-68.401 129.6m129.6-104.4l-64.8 133.2m90-198l-65.2 130.8m90.4-120l-154.8 97.2m180-32.4l-154.799 97.2m194.399-136.8l-154.8 97.2m180-32.4l-154.8 97.2m-169.2-230.4h64.8m14.4 0h64.8m-234 39.6h154.8m14.4 0h154.8m100.8 97.2l61.2 100.8m7.2 14.4l61.201 104.4m-655.201-219.6l-61.2 100.8m-7.2 14.4l-61.2 104.4m255.6-187.2v187.2m7.2-198l241.2-68.4m25.2 266.4v-187.2m-7.2-10.8l-241.2-68.4"/></svg>