<svg xmlns="http://www.w3.org/2000/svg" width="867.32" height="423.62"><path fill="#fff" d="M0 0h867.32v423.62H0z"/><g fill="none" stroke="#000"><path d="M369.76 146.39L211.81 40.85l157.95 236.39M332.7 332.7L211.81 40.85"/><path d="M332.7 90.92L146.39 53.86l236.39 157.95m-13.02 65.43L146.39 53.86"/><path d="M277.24 53.86L90.92 90.92l278.84 55.47m13.02 65.42L90.92 90.92"/><path d="M211.81 40.85L53.86 146.38 332.7 90.92m37.06 55.46H53.86"/><path d="M146.39 53.86L40.85 211.81 277.24 53.86m55.46 37.06L40.85 211.81"/><path d="M90.92 90.92L53.86 277.23 211.81 40.85m65.43 13.01L53.86 277.23"/><path d="M53.86 146.38L90.92 332.7l55.47-278.84m65.42-13.02L90.92 332.7"/><path d="M40.85 211.81l105.53 157.95L90.92 90.92m55.47-37.06l-.01 315.9"/><path d="M53.86 277.24l157.95 105.54-157.95-236.4m37.06-55.46l120.89 291.86"/><path d="M90.92 332.7l186.31 37.06L40.85 211.81m13.01-65.42l223.37 223.37"/><path d="M146.39 369.76l186.31-37.05-278.84-55.47m-13.01-65.43l291.85 120.9"/><path d="M211.81 382.77l157.95-105.53L90.92 332.7m-37.06-55.46h315.9"/><path d="M277.24 369.76l105.54-157.95-236.39 157.95M90.92 332.7l291.86-120.89"/><path d="M332.7 332.7l37.07-186.31-157.96 236.38m-65.42-13.01l223.38-223.37"/><path d="M369.76 277.24L332.71 90.92l-55.47 278.84m-65.43 13.02l120.9-291.86"/><path d="M382.77 211.81L277.24 53.86 332.7 332.7m-55.46 37.06V53.86m497.69 37.06L654.04 40.85l157.95 105.54m0 130.85L654.04 40.85"/><path d="M719.46 53.86H588.61l186.32 37.06M825 211.81L588.61 53.86"/><path d="M654.04 40.85L533.15 90.92l186.31-37.06m92.53 92.53L533.15 90.92"/><path d="M588.61 53.86l-92.52 92.53L654.04 40.85m120.89 50.07l-278.84 55.47"/><path d="M533.15 90.92l-50.08 120.89L588.61 53.86m130.85 0L483.07 211.81"/><path d="M496.09 146.39v130.85l37.06-186.32m120.89-50.07L496.09 277.24"/><path d="M483.07 211.81l50.08 120.89-37.06-186.31m92.52-92.53L533.15 332.7"/><path d="M496.09 277.24l92.52 92.52-105.54-157.95m50.08-120.89l55.46 278.84"/><path d="M533.15 332.7l120.89 50.08-157.95-105.54m0-130.85l157.95 236.39"/><path d="M588.61 369.76h130.85L533.15 332.7m-50.08-120.89l236.39 157.95"/><path d="M654.04 382.77l120.89-50.07-186.32 37.06m-92.52-92.52l278.84 55.46"/><path d="M719.46 369.76l92.53-92.52-157.95 105.53M533.15 332.7l278.84-55.46"/><path d="M774.92 332.7L825 211.81 719.46 369.76m-130.85 0L825 211.81"/><path d="M811.98 277.24l.01-130.86-37.07 186.32m-120.88 50.07l157.95-236.39"/><path d="M825 211.81L774.93 90.92l37.05 186.32m-92.52 92.52l55.47-278.84"/><path d="M811.99 146.39l-92.53-92.53L825 211.81M774.92 332.7L719.46 53.86"/></g><g font-family="Helvetica" font-size="24"><text transform="translate(205.66 22.85)">0</text><text transform="rotate(-22.5 166.265 -317.348)">F</text><text transform="rotate(-45 136.44 -48.165)">E</text><text transform="rotate(-67.5 126.996 47.87)">D</text><text transform="rotate(-90 120.81 97.96)">C</text><text transform="rotate(-112.5 116.79 131.795)">B</text><text transform="rotate(-135 114.306 158.041)">A</text><text transform="rotate(-157.5 111.254 179.936)">9</text><text transform="rotate(-180 108.985 200.39)">8</text><text transform="rotate(157.5 106.71 220.843)">7</text><text transform="rotate(135 104.25 242.982)">6</text><text transform="rotate(112.5 101.351 269.097)">5</text><text transform="rotate(90 97.565 303.215)">4</text><text transform="rotate(67.5 91.885 354.276)">3</text><text transform="rotate(45 81.407 448.64)">2</text><text transform="rotate(22.5 51.543 717.346)">1</text><text transform="translate(647.88 22.85)">0</text><text transform="rotate(-22.5 387.536 -1428.18)">7</text><text transform="rotate(-45 357.682 -581.677)">6</text><text transform="rotate(-67.5 348.11 -283.051)">D</text><text transform="rotate(-90 341.92 -123.15)">C</text><text transform="rotate(-112.5 337.727 -16.063)">3</text><text transform="rotate(-135 334.827 66.207)">2</text><text transform="rotate(-157.5 332.369 135.953)">9</text><text transform="rotate(-180 330.095 200.39)">8</text><text transform="rotate(157.5 327.668 264.857)">F</text><text transform="rotate(135 325.238 334.623)">E</text><text transform="rotate(112.5 322.461 416.838)">5</text><text transform="rotate(90 318.67 524.33)">4</text><text transform="rotate(67.5 313.174 684.94)">B</text><text transform="rotate(45 303.111 981.013)">A</text><text transform="rotate(22.5 272.653 1828.941)">1</text></g><g fill="#fff" stroke="#000"><circle cx="211.81" cy="40.84" r="10"/><circle cx="276.14" cy="53.86" r="10"/><circle cx="332.71" cy="90.92" r="10"/><circle cx="369.77" cy="146.39" r="10"/><circle cx="382.78" cy="211.81" r="10"/><circle cx="369.77" cy="277.24" r="10"/><circle cx="332.71" cy="332.7" r="10"/><circle cx="277.23" cy="369.76" r="10"/><circle cx="211.81" cy="382.77" r="10"/><circle cx="146.39" cy="369.76" r="10"/><circle cx="90.92" cy="332.7" r="10"/><circle cx="53.86" cy="276.14" r="10"/><circle cx="40.85" cy="211.81" r="10"/><circle cx="53.86" cy="146.38" r="10"/><circle cx="90.92" cy="90.92" r="10"/><circle cx="147.2" cy="53.86" r="10"/><circle cx="654.04" cy="40.85" r="10"/><circle cx="719.46" cy="53.86" r="10"/><circle cx="774.93" cy="90.92" r="10"/><circle cx="811.99" cy="146.38" r="10"/><circle cx="825" cy="211.81" r="10"/><circle cx="811.98" cy="277.24" r="10"/><circle cx="774.92" cy="332.7" r="10"/><circle cx="719.46" cy="369.76" r="10"/><circle cx="654.04" cy="382.77" r="10"/><circle cx="588.61" cy="369.76" r="10"/><circle cx="533.8" cy="332.55" r="10"/><circle cx="496.09" cy="277.24" r="10"/><circle cx="483.07" cy="211.81" r="10"/><circle cx="496.09" cy="146.39" r="10"/><circle cx="533.15" cy="90.92" r="10"/><circle cx="588.61" cy="53.86" r="10"/></g></svg>