<svg xmlns="http://www.w3.org/2000/svg" width="792" height="414" overflow="visible"><g font-family="Helvetica'" font-size="18"><text transform="translate(191.984 213)">000</text><text transform="translate(245.984 213)">001</text><text transform="translate(299.984 213)">010</text><text transform="translate(353.984 213)">011</text><text transform="translate(407.984 213)">100</text><text transform="translate(461.984 213)">101</text><text transform="translate(515.984 213)">110</text><text transform="translate(569.984 213)">111</text></g><path d="M198 195.035c-1.054-2.84-2.852-6.364-4.755-8.547l4.755 1.72 4.755-1.72c-1.903 2.183-3.702 5.707-4.755 8.547zm18 0c1.054-2.84 2.852-6.364 4.755-8.547l-4.755 1.72-4.755-1.72c1.903 2.183 3.702 5.707 4.755 8.547zm36 0c-1.054-2.84-2.852-6.364-4.755-8.547l4.755 1.72 4.755-1.72c-1.903 2.183-3.702 5.707-4.755 8.547zm18 0c1.054-2.84 2.852-6.364 4.755-8.547l-4.755 1.72-4.755-1.72c1.903 2.183 3.702 5.707 4.755 8.547zm36 0c-1.054-2.84-2.852-6.364-4.755-8.547l4.755 1.72 4.755-1.72c-1.903 2.183-3.702 5.707-4.755 8.547zm18 0c1.054-2.84 2.852-6.364 4.755-8.547l-4.755 1.72-4.755-1.72c1.903 2.183 3.702 5.707 4.755 8.547zm36 0c-1.054-2.84-2.852-6.364-4.755-8.547l4.755 1.72 4.755-1.72c-1.903 2.183-3.702 5.707-4.755 8.547zm18 0c1.054-2.84 2.852-6.364 4.755-8.547l-4.755 1.72-4.755-1.72c1.903 2.183 3.702 5.707 4.755 8.547zm36 0c-1.054-2.84-2.852-6.364-4.755-8.547l4.755 1.72 4.755-1.72c-1.903 2.183-3.702 5.707-4.755 8.547zm18 0c1.054-2.84 2.852-6.364 4.755-8.547l-4.755 1.72-4.755-1.72c1.903 2.183 3.702 5.707 4.755 8.547zm36 0c-1.054-2.84-2.852-6.364-4.755-8.547l4.755 1.72 4.755-1.72c-1.903 2.183-3.702 5.707-4.755 8.547zm18 0c1.054-2.84 2.852-6.364 4.755-8.547l-4.755 1.72-4.755-1.72c1.903 2.183 3.702 5.707 4.755 8.547zm36 0c-1.054-2.84-2.852-6.364-4.755-8.547l4.755 1.72 4.755-1.72c-1.903 2.183-3.702 5.707-4.755 8.547zm18 0c1.054-2.84 2.852-6.364 4.755-8.547l-4.755 1.72-4.755-1.72c1.903 2.183 3.702 5.707 4.755 8.547zm36 0c-1.054-2.84-2.852-6.364-4.755-8.547l4.755 1.72 4.755-1.72c-1.903 2.183-3.702 5.707-4.755 8.547zm18 0c1.054-2.84 2.852-6.364 4.755-8.547l-4.755 1.72-4.755-1.72c1.903 2.183 3.702 5.707 4.755 8.547z"/><g fill="none" stroke="#000"><path d="M198 225c0 36-63 54-63-18s63-54.001 63-18"/><path d="M216 225c0 54-99 90-99-18s135-81.001 135-18"/><path d="M252 225c0 72-153 126-153-18s207-90.001 207-18"/><path d="M270 225c0 90-189 162-189-18s279-108.001 279-18"/><path d="M306 225c0 108-243 198-243-18s351-126.001 351-18"/><path d="M324 225c0 126-279 234-279-18s423-144.001 423-18"/><path d="M360 225c0 144-333 270-333-18s495-162.001 495-18"/><path d="M378 225C378 387 9 531 9 207s567-180.001 567-18"/><path d="M414 225c0 162 369 306 369-18S216 26.999 216 189"/><path d="M432 225c0 144 333 270 333-18S270 44.999 270 189"/><path d="M468 225c0 126 279 234 279-18S324 62.999 324 189"/><path d="M486 225c0 108 243 198 243-18S378 80.999 378 189"/><path d="M522 225c0 90 189 162 189-18S432 98.999 432 189"/><path d="M540 225c0 72 153 126 153-18s-207-90.001-207-18"/><path d="M576 225c0 54 99 90 99-18s-135-81.001-135-18"/><path d="M594 225c0 36 63 54 63-18s-63-54.001-63-18"/></g></svg>