<svg xmlns="http://www.w3.org/2000/svg" width="198" height="198"><g fill="none" stroke="#000"><path d="M9 9h180v180H9zm36 108h72"/><path d="M117 81v72l36 36V81h36l-36 36-36-36-36 36m0-36L45 9m0 72l36 36V45L45 9v108H9zm72-36V9l36 36-72 36 36-36L81 9v36h108l-36 36H81"/><path d="M153 45V9l36 36m-36 72h36l-36 36-36-72 72-36"/><path d="M81 153v36l-36-36 72-36 36 72 36-36h-36m-108 0v36L9 153l36-36"/><path d="M45 81H9l36-36 36 72-72 36h108v36l-36-36 36-36M45 45H9L45 9"/></g><path d="M81 81l108-36m-72 36l36 108m-36-72L9 153m72-36L45 9" fill="none" stroke="red" stroke-width="2"/></svg>