<svg xmlns="http://www.w3.org/2000/svg" width="216" height="198"><g fill="none" stroke="#000"><path d="M107.234 186.176l-62.241-25.781-25.781-62.243 25.781-62.24 62.241-25.782 62.242 25.781 25.781 62.242-25.781 62.242z"/><path d="M44.993 160.395l62.241-25.782 62.242 25.781"/></g><g fill="#FFF"><circle cx="44.993" cy="160.395" r="15"/><circle cx="169.476" cy="160.394" r="15"/><circle cx="45" cy="34" r="20"/><circle cx="107.666" cy="10.667" r="20"/><circle cx="168.333" cy="35.333" r="20"/><circle cx="194.333" cy="98" r="20"/><circle cx="20.334" cy="100" r="20"/><circle cx="105" cy="135.334" r="20"/><circle cx="105.667" cy="184.666" r="20"/></g><g font-family="Helvetica" font-size="21"><text transform="translate(99.1 193)">Ø</text><text transform="translate(39.273 166.333)">a</text><text transform="translate(164.296 166.333)">c</text><text transform="translate(97.235 141)">ac</text><text transform="translate(7.965 104.334)">ab</text><text transform="translate(185.102 105)">cd</text><text transform="translate(28.033 46.334)">abd</text><text transform="translate(153.118 47)">bcd</text><text transform="translate(95.093 19.666)">bd</text></g></svg>