<svg xmlns="http://www.w3.org/2000/svg" width="468.97" height="428.14"><path d="M243.91 185.68l.27-156.13m-.27 156.13l163.57 51.13M98.08 341.74l145.83-156.06M201.57 303.5l-5.13-231.04m5.13 231.04l79.23 28.14m-176.64 83.51l97.41-111.65M365.74 91.43l5.08-80.16m-5.08 80.16l84.3 22.9M236.85 235.26L365.74 91.43M121.73 206.68L369.46 289m-247.73-82.32l-4.85-75.78M14.56 309.96l107.17-103.28M77.5 327.22l159.67 60.37M77.5 327.22L63.51 178.2M23.94 382.72l53.56-55.5m203.3 4.42l5.41-234m-49.04 289.95l43.63-55.95m169.24-217.31l8.73-81.37m-83.6 177.36l74.87-95.99m-42.56 122.48l14.65-160.57M369.46 289l38.02-52.19M370.82 11.27l87.95 21.69M286.21 97.64l84.61-86.37M116.88 130.9l258.29 79.42M63.51 178.2l53.37-47.3M23.94 382.72l80.22 32.43m-80.22-32.43l-9.38-72.76M244.18 29.55l177.95 46.69m-225.69-3.78l47.74-42.91m-7.01 358.04l-.32-152.33M422.13 76.24l36.64-43.28M369.46 289l5.71-78.68M104.16 415.15l-6.08-73.41M63.51 178.2l173.34 57.06m-222.29 74.7l83.52 31.78m98.36-269.28l89.77 25.18" fill="none" stroke="#000" stroke-width="2"/><g fill="#5b57a6"><circle cx="117.27" cy="132.65" r="5"/><circle cx="63.51" cy="178.2" r="5"/><circle cx="196.44" cy="72.46" r="5"/><circle cx="244.18" cy="29.55" r="5"/><circle cx="286.21" cy="97.64" r="5"/><circle cx="370.82" cy="11.27" r="5"/><circle cx="458.77" cy="32.96" r="5"/><circle cx="422.13" cy="76.24" r="5"/><circle cx="365.74" cy="91.43" r="5"/><circle cx="450.04" cy="114.33" r="5"/><circle cx="375.17" cy="210.32" r="5"/><circle cx="243.91" cy="185.68" r="5"/><circle cx="236.85" cy="235.26" r="5"/><circle cx="121.73" cy="206.68" r="5"/><circle cx="237.17" cy="387.59" r="5"/><circle cx="280.8" cy="331.64" r="5"/><circle cx="201.57" cy="303.5" r="5"/><circle cx="98.08" cy="341.74" r="5"/><circle cx="14.56" cy="309.96" r="5"/><circle cx="23.94" cy="382.72" r="5"/><circle cx="104.16" cy="415.15" r="5"/><circle cx="77.5" cy="327.22" r="5"/><circle cx="369.46" cy="289" r="5"/><circle cx="407.48" cy="236.81" r="5"/></g></svg>