<svg xmlns="http://www.w3.org/2000/svg" width="254.6" height="106.8"><g fill="none" stroke="#00f" stroke-width="2"><path d="M103.5 95.8c7 10 12 8 23.5 10m-36-21l14.5-7 14 9.5-16.5 8.5-12-11zm.5 0c-62-6-85.6-20.4-87.5-44m116.5 47c61.5-5.5 116 .5 132-41M104 78.8c5-13 19.5-15 19.5-15"/><path d="M5.5 40.3c54-41 206-41 246.5 6.5M125 64.3c21.5 13 25 20.5 2.5 40" stroke-dasharray="6 6"/></g><g fill="none" stroke="#000"><path d="M254.1 52.9c0 28.9-56.8 52.4-126.8 52.4S.5 81.8.5 52.9 57.3.5 127.3.5 254.1 24 254.1 52.9z"/><path d="M78.5 44.5c0 10.4 20.6 18.8 46 18.8s46-8.4 46-18.8"/><path d="M92.3 56.9c7.8-4.2 18.9-6.8 31.4-6.8s25.5 3.1 33.3 7.9"/><g fill="red"><circle cx="91" cy="84.8" r="4"/><circle cx="119.5" cy="87.3" r="4"/><circle cx="105.5" cy="77.8" r="4"/><circle cx="103" cy="95.8" r="4"/></g></g></svg>