<svg xmlns="http://www.w3.org/2000/svg" width="427" height="378"><g fill="none" stroke="#000"><path d="M58.38 143.29c-31.73 53.42-14.14 122.45 39.28 154.17 53.42 31.73 122.45 14.14 154.17-39.28 31.73-53.42 14.14-122.45-39.28-154.17C159.13 72.28 90.1 89.87 58.38 143.29z"/><path d="M181.81 69.28c-36.07 60.74-16.08 139.23 44.67 175.3 60.74 36.07 139.23 16.08 175.3-44.67 36.07-60.74 16.07-139.23-44.67-175.3-60.74-36.07-139.23-16.08-175.3 44.67z"/><path d="M254.12 334.34c20.92-35.22 9.32-80.72-25.9-101.64s-80.72-9.32-101.64 25.9-9.32 80.72 25.9 101.64 80.72 9.32 101.64-25.9zm-91.49-182.55c-23.62 39.77-75 52.86-114.77 29.24S-5 106.03 18.62 66.26c23.62-39.77 75-52.86 114.77-29.24 39.77 23.62 52.86 75 29.24 114.77z"/><path d="M17.18 205.76c-20.68 34.82-9.22 79.82 25.61 100.5 34.82 20.68 79.82 9.22 100.5-25.61 20.68-34.82 9.21-79.82-25.61-100.5s-79.82-9.22-100.5 25.61z"/></g><path d="M206.05 214.11c-12.36 20.81-39.25 27.66-60.05 15.3-20.81-12.36-27.66-39.24-15.3-60.05 12.36-20.81 39.25-27.66 60.05-15.3s27.66 39.25 15.3 60.05z" fill="none" stroke="red" stroke-dasharray="2 2"/></svg>