<svg xmlns="http://www.w3.org/2000/svg" width="208.23" height="221.79"><path d="M204.4 8.15c0-.87-.35-1.7-.96-2.31-.61-.61-1.44-.95-2.3-.95-.86 0-1.69.34-2.3.95-.61.61-.95 1.44-.95 2.3s.34 1.69.95 2.3c.61.61 1.44.95 2.3.95a3.264 3.264 0 0 0 3.26-3.25z" fill="red"/><path fill="none" stroke="#000" stroke-width="1.42" d="M142.6 8.15h55.46"/><path d="M142.74 8.15c0-.86-.34-1.68-.95-2.28s-1.42-.94-2.28-.94a3.226 3.226 0 0 0-3.22 3.23c0 .86.34 1.67.94 2.28.6.6 1.42.94 2.28.95.85 0 1.67-.34 2.28-.94.61-.6.95-1.42.95-2.28z" fill="red"/><path fill="none" stroke="#000" stroke-width="1.42" d="M201.14 189.94V11.23"/><path d="M204.31 193.02c0-.84-.34-1.65-.93-2.24-.59-.59-1.4-.93-2.24-.92s-1.64.33-2.24.93c-.59.59-.93 1.4-.93 2.24s.33 1.64.93 2.24c.59.59 1.4.93 2.24.93.84 0 1.64-.33 2.24-.92s.93-1.4.93-2.24z" fill="red"/><path fill="none" stroke="#000" stroke-width="1.42" d="M139.52 189.94V11.23m3.08 181.79h55.46"/><path d="M142.65 193.02a3.142 3.142 0 0 0-5.36-2.22 3.142 3.142 0 0 0 0 4.44c.59.59 1.38.92 2.22.92s1.63-.33 2.22-.92c.59-.59.92-1.38.92-2.22zm47.01-109.24a3.36 3.36 0 0 0-3.37-3.36c-.89 0-1.75.36-2.38.99-.63.63-.98 1.49-.98 2.38s.35 1.75.98 2.38a3.368 3.368 0 0 0 4.76.01c.63-.63.99-1.48.99-2.38z" fill="red"/><path fill="none" stroke="#000" stroke-width="1.42" d="M60.67 83.78h122.4"/><path d="M60.73 83.78c0-.88-.35-1.71-.97-2.33-.62-.62-1.45-.96-2.32-.96-.87 0-1.71.35-2.32.96-.62.62-.96 1.45-.96 2.32s.35 1.71.96 2.32c.62.62 1.45.96 2.32.96.87 0 1.71-.34 2.32-.96s.96-1.45.97-2.32zm64.43 64.43c0-.88-.35-1.72-.97-2.33a3.292 3.292 0 0 0-4.66.01c-.62.62-.96 1.46-.96 2.33s.35 1.71.96 2.33c.62.62 1.45.97 2.33.97.87 0 1.71-.35 2.33-.96.62-.62.97-1.45.97-2.33z" fill="red"/><path fill="none" stroke="#000" stroke-width="1.42" d="M57.45 144.98V87m3.22 61.21h57.98"/><path d="M60.7 148.21c0-.87-.35-1.7-.96-2.31-.61-.61-1.44-.95-2.3-.95s-1.69.34-2.3.95c-.61.61-.95 1.44-.95 2.3s.34 1.69.95 2.3c.61.61 1.44.95 2.3.95a3.264 3.264 0 0 0 3.26-3.25z" fill="red"/><path fill="none" stroke="#000" stroke-width="1.42" d="M187.07 211.61l13.36-17.65m-14.14 15.45V87"/><path d="M189.58 212.63c0-.88-.35-1.71-.97-2.33-.62-.62-1.45-.96-2.33-.96s-1.71.35-2.33.96c-.62.62-.96 1.45-.96 2.33s.35 1.71.96 2.33c.62.62 1.45.96 2.33.96s1.71-.34 2.33-.96c.62-.62.97-1.45.97-2.32z" fill="red"/><path fill="none" stroke="#000" stroke-width="1.42" d="M122.79 211.61l15.88-17.65m-16.8 15.45v-57.98m3.22 61.2h57.98"/><path d="M125.13 212.63c0-.87-.35-1.7-.96-2.31-.61-.61-1.44-.95-2.3-.95-.86 0-1.69.34-2.3.96s-.95 1.44-.95 2.3.34 1.69.95 2.3 1.44.95 2.3.96a3.264 3.264 0 0 0 3.26-3.25z" fill="red"/><path fill="none" stroke="#000" stroke-width="1.42" d="M103.55 30.99l35.12-22.3"/><path d="M106.04 31.63c0-.93-.37-1.82-1.03-2.48a3.532 3.532 0 0 0-2.47-1.02c-.93 0-1.82.37-2.47 1.03-.66.66-1.02 1.55-1.02 2.47s.37 1.82 1.02 2.47c.66.66 1.54 1.02 2.47 1.03.93 0 1.82-.37 2.47-1.02.66-.65 1.03-1.54 1.03-2.47z" fill="red"/><path fill="none" stroke="#000" stroke-width="1.42" d="M38.43 31.63h60.74"/><path d="M38.5 31.63a3.452 3.452 0 0 0-6.9 0c0 .92.36 1.79 1.01 2.44s1.52 1.01 2.44 1.01 1.79-.36 2.44-1.01 1.01-1.52 1.01-2.44z" fill="red"/><path fill="none" stroke="#000" stroke-width="1.42" d="M102.54 95.75V35"/><path d="M106.01 99.12c0-.92-.37-1.81-1.02-2.45a3.467 3.467 0 0 0-5.91 2.46 3.467 3.467 0 0 0 5.91 2.46c.65-.65 1.02-1.53 1.02-2.45z" fill="red"/><path fill="none" stroke="#000" stroke-width="1.42" d="M36.22 98.32l20.15-13.8M35.05 95.75V35m3.38 64.12h60.74"/><path d="M38.47 99.12c0-.91-.36-1.78-1.01-2.42s-1.51-1-2.42-1c-.91 0-1.78.36-2.42 1s-1 1.51-1 2.42.36 1.78 1 2.42 1.51 1 2.42 1c.91 0 1.78-.36 2.42-1 .64-.64 1-1.51 1.01-2.42z" fill="red"/><path fill="none" stroke="#000" stroke-width="1.42" d="M153.09 44.42l47.34-35.73"/><path d="M155.85 45.13c0-.99-.39-1.93-1.09-2.62a3.7 3.7 0 0 0-2.62-1.08c-.98 0-1.92.39-2.61 1.08a3.694 3.694 0 0 0 0 5.22c.69.69 1.63 1.08 2.61 1.08s1.92-.39 2.62-1.08c.69-.69 1.09-1.63 1.09-2.61z" fill="red"/><path fill="none" stroke="#000" stroke-width="1.42" d="M11.71 44.42l22.17-12.15M13.96 45.13h134.65"/><path d="M14.02 45.13c0-.96-.38-1.87-1.06-2.55a3.621 3.621 0 0 0-2.54-1.05 3.604 3.604 0 0 0-3.59 3.6c0 .95.38 1.87 1.05 2.54.67.67 1.59 1.05 2.54 1.06s1.87-.38 2.54-1.05c.68-.67 1.06-1.59 1.06-2.54z" fill="red"/><path fill="none" stroke="#000" stroke-width="1.42" d="M153.09 115.11l32.43-30.59m-33.37 27.93V48.67"/><path d="M155.81 115.99c0-.98-.39-1.91-1.08-2.59-.69-.69-1.62-1.07-2.59-1.07s-1.9.39-2.59 1.07c-.69.69-1.07 1.62-1.07 2.59s.39 1.9 1.07 2.59 1.62 1.07 2.59 1.07 1.9-.38 2.59-1.07 1.07-1.62 1.08-2.59z" fill="red"/><path fill="none" stroke="#000" stroke-width="1.42" d="M82.4 115.11l19.13-15.18m-16.7 16.06h63.78"/><path d="M84.9 115.99a3.618 3.618 0 0 0-3.62-3.62 3.618 3.618 0 0 0-3.62 3.62 3.618 3.618 0 0 0 3.62 3.62A3.618 3.618 0 0 0 84.9 116z" fill="red"/><path fill="none" stroke="#000" stroke-width="1.42" d="M82.4 185.8l38.55-36.71m-39.67 34.23v-63.78"/><path d="M84.86 186.86a3.571 3.571 0 0 0-3.58-3.57c-.95 0-1.86.38-2.53 1.05-.67.67-1.05 1.58-1.05 2.53s.38 1.86 1.05 2.53a3.58 3.58 0 0 0 2.53 1.05 3.571 3.571 0 0 0 3.58-3.56z" fill="red"/><path fill="none" stroke="#000" stroke-width="1.42" d="M11.71 185.8l44.66-36.71m-45.95 34.23V48.67m3.54 138.19h63.78"/><path d="M13.94 186.86c0-.94-.37-1.84-1.04-2.5a3.528 3.528 0 0 0-4.98 0 3.528 3.528 0 0 0 0 4.98 3.528 3.528 0 0 0 4.98 0c.66-.66 1.03-1.55 1.04-2.49z" fill="red"/></svg>