<svg xmlns="http://www.w3.org/2000/svg" width="553" height="264"><g fill="none" stroke="#999" stroke-width=".5" stroke-dasharray="2,4"><path d="M294 223h90v36"/><path d="M294 205h234v54"/><path d="M294 187h144v72"/><path d="M294 169h180v90"/><path d="M294 151h36v108"/><path d="M294 133h126v126"/><path d="M294 115h162v144"/><path d="M294 97h108v162"/><path d="M294 79h216v180"/><path d="M294 61h72v198"/><path d="M294 43h198v216"/><path d="M294 25h54v234"/></g><g fill="none" stroke="#000"><path d="M401.995 97l90-18M6 223h90v36"/><path d="M6 205h234v54"/><path d="M6 187h144v72"/><path d="M6 169h180v90"/><path d="M6 151h36v108"/><path d="M6 133h126v126"/><path d="M6 115h162v144"/><path d="M6 97h108v162"/><path d="M6 79h216v180"/><path d="M6 61h72v198"/><path d="M6 43h198v216"/><path d="M6 25h54v234M348 97h53.995v108l-18 18h-54v-72L348 133h71.995v72"/><path d="M330 205h197.995l18-198-198 18v198"/><path d="M510 205l-.005-126H348"/><path d="M348 61h17.995l126-18L492 205m-126 18l-.005-162"/><path d="M348 115h107.995l.005 90"/><path d="M474 205l-.005-36L492 79l-36.005 36-36 18m54 36H330"/><path d="M438 205l-.005-18L456 169m-18.005 18H330M509.995 79l36-72-54 36H348"/></g><path d="M352 25a4 4 0 1 1-8 0 4 4 0 0 1 8 0m0 18a4 4 0 1 1-8 0 4 4 0 0 1 8 0m0 18a4 4 0 1 1-8 0 4 4 0 0 1 8 0m18 0a4 4 0 1 1-8 0 4 4 0 0 1 8 0m0 18a4 4 0 1 1-8 0 4 4 0 0 1 8 0m-18 0a4 4 0 1 1-8 0 4 4 0 0 1 8 0m0 18a4 4 0 1 1-8 0 4 4 0 0 1 8 0m0 18a4 4 0 1 1-8 0 4 4 0 0 1 8 0m0 18a4 4 0 1 1-8 0 4 4 0 0 1 8 0m18-36a4 4 0 1 1-8 0 4 4 0 0 1 8 0m0 18a4 4 0 1 1-8 0 4 4 0 0 1 8 0m0 18a4 4 0 1 1-8 0 4 4 0 0 1 8 0m-36 18a4 4 0 1 1-8 0 4 4 0 0 1 8 0m0 18a4 4 0 1 1-8 0 4 4 0 0 1 8 0m18 0a4 4 0 1 1-8 0 4 4 0 0 1 8 0m18 0a4 4 0 1 1-8 0 4 4 0 0 1 8 0M550 7a4 4 0 1 1-8 0 4 4 0 0 1 8 0m-54 36a4 4 0 1 1-8 0 4 4 0 0 1 8 0m18 36a4 4 0 1 1-8 0 4 4 0 0 1 8 0M406 97a4 4 0 1 1-8 0 4 4 0 0 1 8 0m0 18a4 4 0 1 1-8 0 4 4 0 0 1 8 0m54 0a4 4 0 1 1-8 0 4 4 0 0 1 8 0m36-36a4 4 0 1 1-8 0 4 4 0 0 1 8 0m-90 54a4 4 0 1 1-8 0 4 4 0 0 1 8 0m18 0a4 4 0 1 1-8 0 4 4 0 0 1 8 0m-18 36a4 4 0 1 1-8 0 4 4 0 0 1 8 0m18 0a4 4 0 1 1-8 0 4 4 0 0 1 8 0m36 0a4 4 0 1 1-8 0 4 4 0 0 1 8 0m18 0a4 4 0 1 1-8 0 4 4 0 0 1 8 0m0 36a4 4 0 1 1-8 0 4 4 0 0 1 8 0m-18 0a4 4 0 1 1-8 0 4 4 0 0 1 8 0m-18 0a4 4 0 1 1-8 0 4 4 0 0 1 8 0m0-18a4 4 0 1 1-8 0 4 4 0 0 1 8 0m-18 0a4 4 0 1 1-8 0 4 4 0 0 1 8 0m-18 0a4 4 0 1 1-8 0 4 4 0 0 1 8 0m-36 0a4 4 0 1 1-8 0 4 4 0 0 1 8 0m-18 0a4 4 0 1 1-8 0 4 4 0 0 1 8 0m-18 0a4 4 0 1 1-8 0 4 4 0 0 1 8 0m0 18a4 4 0 1 1-8 0 4 4 0 0 1 8 0m18 0a4 4 0 1 1-8 0 4 4 0 0 1 8 0m18 0a4 4 0 1 1-8 0 4 4 0 0 1 8 0m36 0a4 4 0 1 1-8 0 4 4 0 0 1 8 0m18 0a4 4 0 1 1-8 0 4 4 0 0 1 8 0m72 0a4 4 0 1 1-8 0 4 4 0 0 1 8 0m18 0a4 4 0 1 1-8 0 4 4 0 0 1 8 0m18 0a4 4 0 1 1-8 0 4 4 0 0 1 8 0m-198 18a4 4 0 1 1-8 0 4 4 0 0 1 8 0m18 0a4 4 0 1 1-8 0 4 4 0 0 1 8 0m18 0a4 4 0 1 1-8 0 4 4 0 0 1 8 0m18 0a4 4 0 1 1-8 0 4 4 0 0 1 8 0" fill="#FFF" stroke="#000"/></svg>