<svg xmlns="http://www.w3.org/2000/svg" width="720" height="342"><path d="M220.45 44.01l-14.827 25.681 7.413 12.841h14.827l7.414-12.841zm-66.721 12.84l-14.828 25.681 7.413 12.841h14.828l7.414-12.841zM87.007 69.69L72.18 95.371l7.413 12.84H94.42l7.414-12.84zm200.166 141.249l-14.827 25.681 7.413 12.84h14.827L302 236.62zm-66.722 12.84l-14.827 25.681 7.413 12.84h14.827l7.414-12.84zm-66.722 12.839L138.902 262.3l7.413 12.84h14.828l7.414-12.84zM264.932 95.373l-14.828 25.681 7.414 12.84h14.827l7.414-12.84zm-66.722 12.84l-14.827 25.681 7.413 12.84h14.827l7.414-12.84zm-66.722 12.839l-14.827 25.682 7.413 12.84h14.827l7.414-12.84zm133.445 154.09l-14.828 25.681 7.414 12.84h14.827l7.414-12.84zm-66.722 12.839l-14.827 25.682 7.413 12.84h14.827l7.414-12.84zm-66.722 12.84l-14.827 25.682 7.413 12.84h14.827l7.414-12.84zm177.924-154.085l-14.827 25.682 7.413 12.84h14.827l7.414-12.84zm-266.887 51.36l-14.827 25.681 7.413 12.839h14.827l7.415-12.839zm44.482 51.362L72.181 275.14l7.413 12.839h14.827l7.414-12.839zM64.767 133.892l-14.828 25.682 7.414 12.84H72.18l7.414-12.84zm44.481 51.364l-14.827 25.682 7.413 12.839h14.827l7.414-12.839zm133.443-25.68l-14.827 25.682 7.413 12.84h14.827l7.415-12.84zm-66.721 12.84l-14.827 25.682 7.413 12.84h14.827l7.414-12.84z" fill="#0C0" stroke="#000"/><path d="M220.45 44.01l14.827 25.681h14.827l7.414-12.84-7.414-12.841zm-66.721 12.84l14.827 25.681h14.826l7.414-12.84-7.413-12.841zM87.007 69.69l14.827 25.681h14.826l7.414-12.84-7.413-12.841zm200.166 141.249L302 236.62h14.826l7.414-12.839-7.413-12.842zm-66.722 12.84l14.827 25.681h14.826l7.415-12.84-7.414-12.841zm-66.722 12.839l14.828 25.682h14.826l7.414-12.84-7.413-12.842zM264.932 95.373l14.827 25.681h14.826l7.414-12.84-7.413-12.841zm-66.722 12.84l14.827 25.681h14.826l7.414-12.84-7.413-12.841zm-66.722 12.839l14.827 25.682h14.827l7.414-12.84-7.413-12.842zm133.445 154.09l14.827 25.681h14.826l7.414-12.84-7.413-12.841zm-66.722 12.839l14.827 25.682h14.826l7.414-12.84-7.413-12.842zm-66.722 12.84l14.827 25.682h14.827l7.414-12.84-7.413-12.842zm177.924-154.085l14.827 25.682h14.826l7.414-12.84-7.413-12.842zm-266.887 51.36l14.828 25.681H72.18l7.414-12.839-7.413-12.842zm44.482 51.362l14.827 25.682h14.826l7.414-12.84-7.413-12.842zM64.767 133.892l14.827 25.682H94.42l7.414-12.84-7.413-12.842zm44.481 51.364l14.827 25.682h14.826l7.414-12.84-7.413-12.842zm133.443-25.68l14.828 25.682h14.826l7.414-12.84-7.413-12.842zm-66.721 12.84l14.827 25.682h14.826l7.414-12.84-7.413-12.842z" fill="#F0F" stroke="#000"/><path d="M220.45 44.01h-29.654l-7.413 12.84 7.413 12.841h14.827zm-66.721 12.84h-29.655l-7.413 12.84 7.413 12.841h14.827zM87.007 69.69H57.353l-7.414 12.84 7.414 12.841H72.18zm200.166 141.249h-29.654l-7.414 12.84 7.414 12.841h14.827zm-66.722 12.84h-29.654l-7.413 12.839 7.413 12.842h14.827zm-66.722 12.839h-29.654l-7.413 12.84 7.413 12.842h14.827zM264.932 95.373h-29.655l-7.413 12.84 7.413 12.841h14.827zm-66.722 12.84h-29.654l-7.413 12.839 7.413 12.842h14.827zm66.723 166.929h-29.655l-7.413 12.839 7.413 12.842h14.827zm-66.722 12.839h-29.654l-7.413 12.84 7.413 12.842h14.827zm-66.722 12.84h-29.654l-7.413 12.84 7.413 12.842h14.827zm-.001-179.769h-29.654l-7.413 12.84 7.413 12.842h14.827zm177.925 25.684h-29.654l-7.413 12.84 7.413 12.842h14.827zm-266.887 51.36H12.872l-7.413 12.84 7.413 12.841h14.827zm44.482 51.362H57.354l-7.414 12.84 7.414 12.842h14.827zM64.767 133.892H35.112l-7.413 12.84 7.413 12.842h14.827zm44.481 51.364H79.594l-7.413 12.84 7.413 12.842h14.827zm133.443-25.68h-29.654l-7.413 12.84 7.413 12.842h14.827zm-66.721 12.84h-29.655l-7.413 12.84 7.413 12.842h14.828z" fill="#0FF" stroke="#000"/><g fill="#FF0" stroke="#000"><path d="M220.45 44.01l14.827-25.681-7.414-12.841h-14.827l-7.413 12.841zm-66.721 12.84l14.827-25.682-7.414-12.84h-14.828l-7.413 12.84zM87.007 69.69l14.827-25.682-7.414-12.84H79.593l-7.413 12.84zm200.166 141.249L302 185.258l-7.414-12.84h-14.827l-7.413 12.84zm-66.722 12.84l14.827-25.681-7.414-12.84h-14.827l-7.413 12.84zm-66.722 12.839l14.828-25.68-7.414-12.84h-14.828l-7.413 12.84zM264.932 95.373l14.827-25.682-7.414-12.84h-14.827l-7.414 12.84zm-66.722 12.84l14.827-25.682-7.414-12.84h-14.827l-7.413 12.84zm-66.722 12.839l14.827-25.681-7.414-12.84h-14.827l-7.413 12.84zm133.445 154.09l14.827-25.682-7.414-12.84h-14.827l-7.414 12.84zm-66.722 12.839l14.827-25.681-7.414-12.84h-14.827l-7.413 12.84zm-66.722 12.84l14.827-25.681-7.414-12.84h-14.827l-7.413 12.84zm177.924-154.085l14.827-25.682-7.414-12.84h-14.827l-7.413 12.84zm-266.887 51.36l14.828-25.682-7.415-12.84H35.112l-7.413 12.84zm44.482 51.362l14.827-25.681-7.414-12.839H79.594l-7.413 12.839zM64.767 133.892l14.827-25.681-7.414-12.84H57.353l-7.414 12.84zm44.481 51.364l14.827-25.682-7.414-12.84h-14.827l-7.413 12.84zm133.443-25.68l14.828-25.682-7.415-12.84h-14.827l-7.413 12.84zm-66.721 12.84l14.827-25.682-7.414-12.84h-14.827l-7.413 12.84zm344.279 64.202l-14.827-25.682h-14.827l-7.413 12.841 7.413 12.841zm22.24-64.202l14.827-25.682-7.414-12.84h-14.827l-7.413 12.84zm0 0h-29.654l-7.413 12.84 7.413 12.84h14.827zM586.971 44.01l-14.827-25.681h-14.828l-7.413 12.84 7.413 12.841zm-66.722 192.608L505.422 262.3l7.413 12.84h14.827l7.414-12.84zm0 0h29.654l7.413-12.841-7.413-12.839-14.827-.002zm44.48 51.363l14.828-25.681-7.414-12.84h-14.828l-7.413 12.84zm0 0h-29.654l-7.413 12.84 7.413 12.84h14.827z"/><path d="M542.49 172.414l14.827 25.682h14.827l7.414-12.84-7.413-12.842zM586.971 44.01l-14.827 25.681 7.413 12.841h14.827l7.414-12.841zm0 0h29.654l7.413-12.841-7.413-12.839-14.827-.001zm22.24 115.564l-14.827-25.681h-14.827l-7.413 12.841 7.413 12.84zm22.24-64.201l14.827-25.682-7.414-12.84h-14.827l-7.413 12.84zm0 0h-29.654l-7.413 12.839 7.413 12.841h14.827zM564.73 287.979l14.828 25.682h14.826l7.414-12.84-7.413-12.842zm44.481-128.405l-14.827 25.682 7.413 12.84h14.827l7.414-12.84zm0 0h29.654l7.413-12.84-7.413-12.84-14.827-.001zm22.24 115.566l-14.827-25.682h-14.827l-7.413 12.842 7.413 12.84zm22.24-64.202l14.828-25.682-7.415-12.84h-14.827l-7.413 12.84zm0 0h-29.654l-7.413 12.839 7.413 12.841h14.827zM631.452 95.372l14.827 25.68h14.826l7.415-12.84-7.414-12.84zm-.001 179.768l-14.827 25.681 7.413 12.84h14.827l7.414-12.84zm0 0h29.654l7.414-12.84-7.414-12.84-14.827-.002z"/><path d="M653.692 210.936l14.828 25.682h14.826l7.414-12.841-7.413-12.841zm-155.683-89.884l-14.827-25.681h-14.828l-7.413 12.841 7.413 12.84zm22.24-64.202l14.827-25.682-7.414-12.839h-14.827l-7.413 12.839zm0 0h-29.654l-7.413 12.841 7.413 12.84h14.827zm-22.24 64.202l-14.827 25.682 7.413 12.84h14.827l7.414-12.84zm0 0h29.654l7.413-12.84-7.413-12.839-14.827-.002zm22.241-64.203l14.827 25.682h14.826l7.414-12.84-7.413-12.842zM409.046 198.096l-14.827-25.682h-14.827l-7.413 12.842 7.413 12.84zm22.24-64.203l14.827-25.682-7.414-12.839h-14.827l-7.413 12.839zm0 0h-29.654l-7.413 12.841 7.413 12.84h14.827zm-22.24 64.203l-14.827 25.681 7.413 12.84h14.827l7.414-12.84zm0 0H438.7l7.413-12.84-7.413-12.84-14.827-.002zm22.241-64.204l14.827 25.682h14.826l7.414-12.84-7.413-12.842zm22.239 115.567l14.828-25.682-7.415-12.839h-14.827l-7.413 12.839zm0 0h-29.654l-7.413 12.841 7.413 12.84h14.827zm.001-.001l14.827 25.682h14.827l7.414-12.84-7.413-12.842z"/></g><g fill="#00F" stroke="#000"><path d="M220.45 44.01h29.654l7.414-12.841-7.414-12.839-14.827-.001zm-66.721 12.84h29.654l7.413-12.841-7.413-12.84-14.827-.001zM87.007 69.69h29.654l7.413-12.841-7.413-12.84-14.827-.001zm200.166 141.249h29.654l7.413-12.839-7.413-12.84-14.827-.002zm-66.722 12.84h29.654l7.414-12.84-7.414-12.839-14.827-.002zm-66.722 12.839h29.655l7.413-12.839-7.413-12.84-14.827-.001zM264.932 95.373h29.654l7.413-12.841-7.413-12.84-14.827-.001zm-66.722 12.84h29.654l7.413-12.841-7.413-12.84-14.827-.001zm-66.722 12.839h29.655l7.413-12.84-7.413-12.84-14.828-.001zm133.445 154.09h29.654l7.413-12.84-7.413-12.84-14.827-.002zm-66.722 12.839h29.654l7.413-12.839-7.413-12.84-14.827-.002zm-66.722 12.84h29.655l7.413-12.84-7.413-12.839-14.828-.002zm177.924-154.085h29.654l7.413-12.84-7.413-12.84-14.827-.002zm-266.887 51.36h29.655l7.413-12.84-7.413-12.84-14.827-.002zm44.482 51.362h29.654l7.413-12.84-7.413-12.839-14.827-.002zM64.767 133.892h29.654l7.413-12.84-7.413-12.84-14.827-.001zm44.481 51.364h29.654l7.413-12.84-7.413-12.84-14.827-.002zm133.443-25.68h29.655l7.413-12.84-7.413-12.84-14.827-.002zm-66.721 12.84h29.654l7.413-12.84-7.413-12.84-14.827-.002zm366.519 0l-14.827-25.682h-14.827l-7.413 12.84 7.413 12.842zm22.241-64.204l14.828-25.681-7.414-12.84h-14.828l-7.413 12.84zm0 0h-29.654l-7.413 12.84 7.413 12.841h14.827zm-.001 179.769L549.902 262.3h-14.827l-7.413 12.84 7.413 12.841z"/><path d="M542.49 172.414l-14.827 25.682 7.413 12.84h14.827l7.414-12.84zm0 0h29.655l7.413-12.84-7.413-12.84-14.828-.001zm22.24-64.202l14.828 25.681h14.826l7.414-12.84-7.413-12.841zm22.241 115.565l14.827-25.681-7.414-12.84h-14.827l-7.413 12.84zm0 0h-29.655l-7.413 12.841 7.413 12.84h14.828zm44.48-128.404l-14.827-25.682h-14.827l-7.413 12.841 7.413 12.841zM564.73 287.979l-14.827 25.682 7.413 12.84h14.828l7.414-12.84zm0 0h29.655l7.413-12.839-7.413-12.84-14.827-.002zm22.241-64.202l14.827 25.681h14.826l7.414-12.84-7.413-12.841zm66.72-12.839l-14.827-25.682h-14.827l-7.413 12.84 7.413 12.842zM631.452 95.372l-14.827 25.68 7.413 12.841h14.827l7.414-12.841zm0 0h29.654l7.414-12.841-7.414-12.84-14.827-.001zm44.481 51.362l14.827-25.682-7.414-12.84h-14.827l-7.414 12.84zm0 0h-29.655l-7.413 12.84 7.413 12.84h14.827z"/><path d="M653.692 210.936l-14.827 25.682 7.413 12.84h14.827l7.415-12.84zm0 0h29.655l7.413-12.84-7.413-12.84-14.827-.002zM520.249 56.85l-14.827-25.682h-14.827l-7.413 12.841 7.413 12.841zm.001-.001l-14.827 25.682 7.413 12.84h14.827l7.414-12.84zm0 0h29.654l7.413-12.841-7.413-12.84-14.827-.001zm155.683 89.885l14.827 25.68h14.826l7.414-12.84-7.413-12.84zm-244.647-12.841l-14.827-25.682h-14.827l-7.413 12.841 7.413 12.841zm22.241-64.203l14.827-25.682-7.414-12.84h-14.827l-7.413 12.84zm0 0h-29.654l-7.413 12.84 7.413 12.841H438.7zm-22.24 64.202l-14.827 25.682 7.413 12.84H438.7l7.414-12.84zm0 0h29.654l7.413-12.841-7.413-12.84-14.827-.001zm22.24-64.202l14.827 25.681h14.827l7.414-12.84-7.413-12.841zm-.001 179.769l-14.827-25.682h-14.827l-7.413 12.841 7.413 12.841zm22.242-64.203l14.827-25.682-7.414-12.84h-14.827l-7.414 12.84zm0 0h-29.655l-7.413 12.84 7.413 12.84h14.827zm-22.241 64.202L438.7 275.14l7.413 12.839h14.827l7.414-12.839zm0 0h29.655l7.413-12.841-7.413-12.84-14.828-.002zm22.241-64.202l14.827 25.68h14.826l7.414-12.84-7.413-12.84zm22.24 115.565l14.827-25.681-7.414-12.84h-14.827l-7.413 12.84zm0 0h-29.654l-7.414 12.84 7.414 12.84h14.827zm0 0l14.827 25.68h14.826l7.414-12.84-7.413-12.84z"/></g><path d="M220.45 44.01l-14.827-25.681h-14.827l-7.413 12.84 7.413 12.841zm-66.721 12.84l-14.828-25.682h-14.827l-7.413 12.841 7.413 12.841zM87.007 69.69L72.18 44.008H57.353l-7.414 12.841 7.414 12.841zm200.166 141.249l-14.827-25.681h-14.827l-7.414 12.842 7.414 12.839zm-66.722 12.84l-14.827-25.681h-14.827l-7.413 12.841 7.413 12.84zm-66.722 12.839l-14.827-25.68h-14.827l-7.413 12.841 7.413 12.839zM264.932 95.373l-14.828-25.682h-14.827l-7.413 12.841 7.413 12.841zm-66.722 12.84l-14.827-25.682h-14.827l-7.413 12.841 7.413 12.841zm66.723 166.929l-14.828-25.682h-14.827l-7.413 12.842 7.413 12.84zm-66.722 12.839L183.384 262.3h-14.827l-7.413 12.842 7.413 12.839zm-66.722 12.84l-14.827-25.681h-14.827l-7.413 12.841 7.413 12.84zm-.001-179.769l-14.827-25.681h-14.827l-7.413 12.841 7.413 12.84zm177.925 25.684l-14.827-25.682h-14.827l-7.413 12.842 7.413 12.84zm-266.887 51.36l-14.827-25.682H12.872l-7.413 12.842 7.413 12.84zm44.482 51.362l-14.827-25.681H57.354l-7.414 12.841 7.414 12.84zM64.767 133.892l-14.828-25.681H35.112l-7.413 12.841 7.413 12.84zm44.481 51.364l-14.827-25.682H79.594l-7.413 12.842 7.413 12.84zm133.443-25.68l-14.827-25.682h-14.827l-7.413 12.842 7.413 12.84zm-66.721 12.84l-14.827-25.682h-14.828l-7.413 12.842 7.413 12.84zm344.279 64.202l14.827-25.682-7.414-12.84h-14.827l-7.413 12.84zm0 0h-29.654l-7.413 12.84 7.413 12.842h14.827zm44.481-128.406l-14.827-25.681h-14.827l-7.413 12.841 7.413 12.84zm22.241-64.202l14.827-25.681-7.414-12.84h-14.827l-7.413 12.84zm0 0h-29.655l-7.413 12.84 7.413 12.841h14.828zm-66.722 192.608l14.827 25.682h14.826l7.414-12.84-7.413-12.842zm44.481-128.406l-14.827 25.681 7.413 12.841h14.828l7.414-12.841zm0 0h29.655l7.413-12.84-7.413-12.84-14.827-.001zm22.241-64.202l14.827 25.681h14.826l7.414-12.84-7.413-12.841zm0 179.767l-14.827-25.681h-14.828l-7.413 12.84 7.413 12.841zm22.24-64.203l14.827-25.681-7.414-12.84h-14.827l-7.413 12.84zm0 0h-29.654l-7.413 12.84 7.413 12.842h14.827zm-22.24 64.203l-14.827 25.681 7.413 12.842h14.827l7.414-12.842zm0 0h29.654l7.413-12.841-7.413-12.84h-14.827zm22.24-64.203l14.827 25.682h14.826l7.414-12.84-7.413-12.842zm22.24 115.566l14.827-25.682-7.414-12.84h-14.827l-7.413 12.84zm0 0h-29.654l-7.413 12.839 7.413 12.842h14.827zm44.482-128.406l-14.828-25.682h-14.827l-7.413 12.841 7.413 12.841zM631.451 275.14l14.827 25.681h14.826l7.415-12.84-7.414-12.841zM498.009 121.052l14.827-25.681-7.414-12.84h-14.827l-7.413 12.84zm0 0h-29.655l-7.413 12.84 7.413 12.842h14.828zm0 0l14.827 25.682h14.826l7.414-12.84-7.413-12.842zm177.924 25.682l-14.828 25.68 7.414 12.842h14.827l7.414-12.842zm0 0h29.654L713 133.893l-7.413-12.84-14.827-.001zm-266.887 51.362l14.827-25.682-7.414-12.84h-14.827l-7.413 12.84zm0 0h-29.654l-7.413 12.84 7.413 12.841h14.827zM453.527 69.69L438.7 44.008h-14.827l-7.413 12.841 7.413 12.841zm-44.481 128.406l14.827 25.681h14.826l7.414-12.839-7.413-12.842zM453.527 69.69L438.7 95.371l7.413 12.84h14.827l7.414-12.84zm0 0h29.655l7.413-12.841-7.413-12.84-14.828-.001zm22.241 115.566l-14.828-25.682h-14.827l-7.413 12.84 7.413 12.842zm0 0l-14.828 25.68 7.414 12.841h14.827l7.414-12.841zm0 0h29.654l7.413-12.842-7.413-12.84h-14.827zm22.24 115.565l-14.827-25.681h-14.827l-7.414 12.839 7.414 12.842zm0 0l-14.827 25.68 7.413 12.842h14.827l7.414-12.842zm0 0h29.654l7.413-12.842-7.413-12.839h-14.827z" fill="red" stroke="#000"/></svg>