<svg xmlns="http://www.w3.org/2000/svg" width="573.96" height="172.17"><path d="M458.99 3.2c0-.82-.33-1.6-.9-2.17-.58-.57-1.35-.9-2.17-.89-.81 0-1.59.32-2.17.9s-.9 1.35-.9 2.17.32 1.59.9 2.17 1.35.9 2.17.9c.81 0 1.59-.32 2.17-.89.58-.57.9-1.35.9-2.16z" fill="red"/><path fill="none" stroke="#000" stroke-width="1.42" d="M399.82 3.2h53.15"/><path d="M399.99 3.2c0-.83-.33-1.63-.92-2.21-.59-.59-1.38-.91-2.21-.91-.83 0-1.62.33-2.21.92a3.118 3.118 0 0 0 0 4.42c.59.59 1.38.92 2.21.92.83 0 1.62-.33 2.21-.91.59-.59.92-1.38.92-2.21zm-59.01 0c0-.85-.34-1.65-.93-2.25-.6-.59-1.4-.93-2.24-.93s-1.65.34-2.24.93c-.59.59-.93 1.4-.93 2.24s.33 1.65.93 2.24c.59.59 1.4.93 2.24.93s1.65-.33 2.24-.93c.6-.59.93-1.4.93-2.24z" fill="red"/><path fill="none" stroke="#000" stroke-width="1.42" d="M281.71 3.2h53.15"/><path d="M281.96 3.2c0-.85-.34-1.67-.94-2.26-.6-.6-1.42-.94-2.27-.94-.85 0-1.66.34-2.26.94-.6.6-.94 1.41-.94 2.26s.34 1.66.94 2.26c.6.6 1.41.94 2.26.94.85 0 1.66-.34 2.26-.93.6-.6.94-1.41.94-2.26zm-177.22 0c0-.84-.33-1.64-.92-2.23a3.147 3.147 0 0 0-5.37 2.23c0 .84.33 1.63.92 2.23.59.59 1.39.92 2.22.92a3.142 3.142 0 0 0 3.15-3.14z" fill="red"/><path fill="none" stroke="#000" stroke-width="1.42" d="M45.49 3.2h53.15"/><path d="M45.63 3.2a3.087 3.087 0 0 0-3.1-3.09c-.82 0-1.61.33-2.18.91s-.9 1.37-.9 2.19.33 1.61.9 2.19 1.37.91 2.18.91 1.61-.32 2.19-.9.91-1.36.91-2.18zm472.29 59.05c0-.79-.31-1.53-.87-2.09a2.944 2.944 0 0 0-4.16 0 2.944 2.944 0 0 0 0 4.16 2.944 2.944 0 0 0 4.16 0c.55-.55.86-1.3.87-2.08z" fill="red"/><path fill="none" stroke="#000" stroke-width="1.42" d="M455.92 59.3V6.15m2.95 56.1h53.15"/><path d="M458.94 62.25c0-.81-.32-1.57-.89-2.14s-1.33-.88-2.13-.88c-.8 0-1.57.32-2.13.89a3.02 3.02 0 0 0 2.13 5.15 3.02 3.02 0 0 0 3.02-3.01z" fill="red"/><path fill="none" stroke="#000" stroke-width="1.42" d="M337.81 59.3V6.15"/><path d="M340.93 62.25c0-.83-.33-1.63-.92-2.21s-1.38-.91-2.21-.91-1.62.33-2.21.92-.91 1.38-.91 2.21.33 1.62.91 2.21c.58.59 1.38.91 2.21.92s1.62-.33 2.21-.91c.59-.58.92-1.38.92-2.2z" fill="red"/><path fill="none" stroke="#000" stroke-width="1.42" d="M278.76 59.3V6.15m2.95 56.1h53.15"/><path d="M281.9 62.25a3.142 3.142 0 0 0-5.36-2.23 3.142 3.142 0 0 0 0 4.44 3.142 3.142 0 0 0 4.44 0c.59-.59.92-1.39.92-2.22zm-118.12 0c0-.84-.33-1.63-.92-2.22a3.09 3.09 0 0 0-2.22-.91c-.83 0-1.63.33-2.21.92a3.118 3.118 0 0 0 0 4.42c.59.59 1.38.92 2.21.92.83 0 1.63-.33 2.22-.91s.92-1.38.92-2.21z" fill="red"/><path fill="none" stroke="#000" stroke-width="1.42" d="M42.54 59.3V6.15m2.95 56.1h112.2"/><path d="M45.58 62.25c0-.81-.32-1.59-.89-2.16-.57-.57-1.35-.89-2.15-.89s-1.58.32-2.15.89-.89 1.34-.89 2.15.32 1.58.89 2.15 1.34.89 2.15.89 1.58-.32 2.15-.89c.57-.57.89-1.34.89-2.15z" fill="red"/><path fill="none" stroke="#000" stroke-width="1.42" d="M514.98 118.36V65.21"/><path d="M517.87 121.31c0-.77-.31-1.5-.85-2.05-.54-.54-1.28-.84-2.04-.84a2.901 2.901 0 0 0-2.89 2.89c0 .76.3 1.5.85 2.04.54.54 1.28.85 2.04.85s1.5-.3 2.04-.84.85-1.27.85-2.04z" fill="red"/><path fill="none" stroke="#000" stroke-width="1.42" d="M396.87 118.36V6.15m2.95 115.16h112.2"/><path d="M399.88 121.31c0-.8-.32-1.57-.89-2.13-.57-.56-1.33-.88-2.13-.88-.8 0-1.56.32-2.13.88-.56.57-.88 1.33-.88 2.13s.32 1.56.88 2.13c.56.57 1.33.88 2.13.88a3.02 3.02 0 0 0 3.02-3.01z" fill="red"/><path fill="none" stroke="#000" stroke-width="1.42" d="M160.65 118.36V65.21"/><path d="M163.71 121.31c0-.82-.33-1.6-.9-2.17-.58-.57-1.35-.9-2.17-.89-.81 0-1.59.32-2.17.9s-.9 1.35-.9 2.17.32 1.59.9 2.17 1.35.9 2.17.9c.81 0 1.59-.32 2.17-.89.58-.57.9-1.35.9-2.16z" fill="red"/><path fill="none" stroke="#000" stroke-width="1.42" d="M101.59 118.36V6.15m2.95 115.16h53.15"/><path d="M104.62 121.31c0-.81-.32-1.58-.89-2.15-.57-.57-1.34-.89-2.14-.89s-1.57.32-2.14.89c-.57.57-.89 1.34-.89 2.14s.32 1.57.89 2.14c.57.57 1.34.89 2.14.89s1.57-.32 2.14-.89c.57-.57.89-1.34.89-2.14zm438.8-107.37c0-.86-.34-1.67-.94-2.28s-1.42-.94-2.27-.94-1.67.34-2.27.94-.94 1.42-.94 2.27.34 1.67.94 2.27 1.42.94 2.27.94 1.67-.34 2.27-.94c.6-.6.94-1.42.94-2.27z" fill="red"/><path fill="none" stroke="#000" stroke-width="1.42" d="M474.71 13.35l-17.87-9.66m22.17 10.25h57.98"/><path d="M479.1 13.94c0-.88-.35-1.72-.97-2.34a3.307 3.307 0 0 0-4.68 0 3.307 3.307 0 0 0 0 4.68 3.307 3.307 0 0 0 4.68 0c.62-.62.97-1.46.97-2.34z" fill="red"/><path fill="none" stroke="#000" stroke-width="1.42" d="M346.44 13.35l-8.21-9.66"/><path d="M350.38 13.94c0-.92-.37-1.8-1.01-2.44a3.452 3.452 0 0 0-5.89 2.44c0 .92.36 1.79 1.01 2.44.65.65 1.52 1.01 2.44 1.01s1.79-.36 2.44-1.01c.65-.65 1.01-1.52 1.01-2.43z" fill="red"/><path fill="none" stroke="#000" stroke-width="1.42" d="M282.31 13.35l-3.38-9.66m6.81 10.25h57.98"/><path d="M285.99 13.94c0-.93-.37-1.81-1.02-2.46s-1.54-1.02-2.46-1.02c-.92 0-1.81.37-2.46 1.02-.65.65-1.02 1.54-1.02 2.46s.37 1.81 1.02 2.46a3.49 3.49 0 0 0 2.46 1.02c.92 0 1.81-.36 2.46-1.02s1.02-1.54 1.02-2.46zm-128.86 0a3.467 3.467 0 0 0-3.47-3.46 3.467 3.467 0 0 0-3.46 3.47c0 .92.36 1.8 1.01 2.45.65.65 1.53 1.01 2.45 1.02s1.8-.36 2.45-1.01 1.02-1.53 1.02-2.45z" fill="red"/><path fill="none" stroke="#000" stroke-width="1.42" d="M25.78 13.35l15.94-9.66M28.04 13.94h122.41"/><path d="M28.16 13.94a3.345 3.345 0 0 0-3.34-3.35c-.88 0-1.74.35-2.36.98-.63.63-.98 1.48-.98 2.36s.35 1.74.98 2.36 1.48.98 2.36.98c.89 0 1.74-.35 2.36-.98.63-.63.98-1.48.98-2.36z" fill="red"/><path fill="none" stroke="#000" stroke-width="1.42" d="M538.84 77.49l-22.7-14.5m24.07 12.15V17.16"/><path d="M543.37 78.36c0-.84-.34-1.65-.93-2.24-.59-.59-1.4-.92-2.23-.92-.84 0-1.64.33-2.23.93s-.92 1.4-.92 2.23.33 1.64.92 2.23 1.4.93 2.23.93a3.157 3.157 0 0 0 3.16-3.15z" fill="red"/><path fill="none" stroke="#000" stroke-width="1.42" d="M414.58 78.36h122.41"/><path d="M414.69 78.36a3.33 3.33 0 0 0-3.33-3.33c-.88 0-1.73.35-2.35.98s-.97 1.47-.97 2.35.35 1.73.97 2.35c.62.62 1.47.97 2.35.98a3.33 3.33 0 0 0 3.33-3.32z" fill="red"/><path fill="none" stroke="#000" stroke-width="1.42" d="M346.44 77.49l-8.21-14.5m8.71 12.15V17.16"/><path d="M350.32 78.36a3.383 3.383 0 0 0-3.38-3.38 3.383 3.383 0 0 0-3.38 3.38 3.383 3.383 0 0 0 3.38 3.38c.9 0 1.76-.35 2.39-.99.63-.63.99-1.49.99-2.39z" fill="red"/><path fill="none" stroke="#000" stroke-width="1.42" d="M221.31 78.36h122.41"/><path d="M221.51 78.36c0-.91-.36-1.78-1-2.42-.64-.64-1.51-1-2.42-1-.91 0-1.77.36-2.41 1-.64.64-1 1.51-1 2.42s.36 1.77 1 2.42a3.415 3.415 0 0 0 5.83-2.41z" fill="red"/><path fill="none" stroke="#000" stroke-width="1.42" d="M475.79 139.56V17.16"/><path d="M478.96 142.78c0-.85-.34-1.65-.93-2.25-.6-.59-1.4-.93-2.25-.93-.84 0-1.65.34-2.24.93-.59.6-.93 1.4-.93 2.24s.33 1.65.93 2.24a3.179 3.179 0 0 0 5.42-2.24z" fill="red"/><path fill="none" stroke="#000" stroke-width="1.42" d="M410.58 141.62l-13.05-19.32m13.83 17.26V81.58m3.22 61.2h57.98"/><path d="M414.61 142.78c0-.87-.34-1.69-.95-2.3a3.232 3.232 0 0 0-4.58 0 3.232 3.232 0 0 0 0 4.58c.61.61 1.43.95 2.29.95.86 0 1.69-.34 2.29-.95.61-.61.95-1.43.95-2.29z" fill="red"/><path fill="none" stroke="#000" stroke-width="1.42" d="M282.51 139.56V17.16"/><path d="M285.84 142.78c0-.89-.35-1.73-.98-2.35a3.33 3.33 0 0 0-4.7 0 3.33 3.33 0 0 0 0 4.7 3.33 3.33 0 0 0 5.68-2.35z" fill="red"/><path fill="none" stroke="#000" stroke-width="1.42" d="M218.09 139.56V81.58m3.22 61.2h57.98"/><path d="M221.42 142.78a3.33 3.33 0 0 0-3.33-3.33 3.33 3.33 0 0 0 0 6.66 3.33 3.33 0 0 0 3.33-3.32z" fill="red"/><path fill="none" stroke="#000" stroke-width="1.42" d="M154.05 141.62l6.28-19.32m-6.66 17.26V17.16"/><path d="M156.98 142.78c0-.88-.35-1.72-.97-2.34a3.307 3.307 0 0 0-4.68 0 3.307 3.307 0 0 0 0 4.68 3.307 3.307 0 0 0 4.68 0c.62-.62.97-1.46.97-2.34z" fill="red"/><path fill="none" stroke="#000" stroke-width="1.42" d="M24.82 139.56V17.16m3.22 125.62h122.41"/><path d="M28.02 142.78a3.2 3.2 0 0 0-.94-2.27c-.6-.6-1.42-.94-2.27-.94s-1.66.34-2.26.94c-.6.6-.94 1.42-.94 2.27s.34 1.66.94 2.27c.6.6 1.41.94 2.26.94s1.66-.34 2.27-.94c.6-.6.94-1.41.94-2.26z" fill="red"/><path fill="none" stroke="#000" stroke-width="1.42" d="M568.83 26.12l-27.24-11.6"/><path d="M573.96 26.82c0-.93-.37-1.81-1.02-2.46s-1.53-1.01-2.45-1.01c-.92 0-1.8.37-2.45 1.02-.65.65-1.02 1.53-1.02 2.45s.37 1.8 1.02 2.45a3.467 3.467 0 0 0 4.9.01c.65-.65 1.02-1.53 1.02-2.45z" fill="red"/><path fill="none" stroke="#000" stroke-width="1.42" d="M427.8 26.12L397.53 3.69m34.77 23.13h134.65"/><path d="M432.45 26.82c0-.99-.39-1.92-1.09-2.62s-1.63-1.08-2.61-1.08-1.92.39-2.61 1.08a3.694 3.694 0 0 0 0 5.22 3.694 3.694 0 0 0 5.22 0c.69-.69 1.08-1.63 1.09-2.61z" fill="red"/><path fill="none" stroke="#000" stroke-width="1.42" d="M145.75 26.12l7.53-11.6"/><path d="M149.08 26.82c0-1.01-.4-1.97-1.11-2.68a3.801 3.801 0 0 0-2.68-1.11c-1 0-1.97.4-2.68 1.11s-1.11 1.67-1.11 2.68.4 1.97 1.11 2.68c.71.71 1.67 1.11 2.68 1.11 1 0 1.97-.4 2.68-1.11.71-.71 1.11-1.67 1.11-2.68z" fill="red"/><path fill="none" stroke="#000" stroke-width="1.42" d="M75.24 26.12l25.78-22.43M77.97 26.82h63.78"/><path d="M78.15 26.82a3.74 3.74 0 0 0-3.74-3.73c-.99 0-1.94.39-2.63 1.09-.7.7-1.09 1.65-1.09 2.64s.39 1.94 1.09 2.64a3.73 3.73 0 0 0 5.27 0c.7-.7 1.09-1.65 1.1-2.63z" fill="red"/><path fill="none" stroke="#000" stroke-width="1.42" d="M498.32 96.63l-41.48-33.64"/><path d="M503.14 97.69c0-.94-.37-1.83-1.03-2.49a3.528 3.528 0 0 0-4.98 0c-.66.66-1.03 1.55-1.03 2.49s.37 1.83 1.03 2.49a3.528 3.528 0 0 0 4.98 0 3.51 3.51 0 0 0 1.03-2.49z" fill="red"/><path fill="none" stroke="#000" stroke-width="1.42" d="M427.8 96.63l-15.64-17.39m16.6 14.9V30.36m3.54 67.33h63.78"/><path d="M432.37 97.69a3.618 3.618 0 0 0-3.62-3.62c-.96 0-1.88.38-2.55 1.06s-1.06 1.6-1.06 2.55.38 1.88 1.06 2.55 1.6 1.06 2.55 1.06a3.618 3.618 0 0 0 3.62-3.61z" fill="red"/><path fill="none" stroke="#000" stroke-width="1.42" d="M286.78 96.63l-7.85-33.64"/><path d="M290.75 97.69c0-.99-.4-1.94-1.09-2.64-.7-.7-1.65-1.09-2.63-1.09a3.725 3.725 0 0 0-3.72 3.72 3.725 3.725 0 0 0 3.72 3.72c.99 0 1.93-.39 2.63-1.09.7-.7 1.09-1.64 1.09-2.63z" fill="red"/><path fill="none" stroke="#000" stroke-width="1.42" d="M216.26 96.63L218 79.24m1.7 18.45h63.78"/><path d="M219.89 97.69c0-1-.4-1.94-1.1-2.64a3.73 3.73 0 0 0-2.64-1.09c-.99 0-1.94.39-2.64 1.09-.7.7-1.09 1.65-1.09 2.64s.39 1.94 1.09 2.64c.7.7 1.65 1.09 2.64 1.09.99 0 1.94-.39 2.64-1.09.7-.7 1.09-1.65 1.1-2.64z" fill="red"/><path fill="none" stroke="#000" stroke-width="1.42" d="M145.75 96.63l14.58-33.64m-15.04 31.15V30.36"/><path d="M149 97.69c0-.99-.39-1.93-1.09-2.62a3.702 3.702 0 0 0-6.32 2.63c0 .98.39 1.92 1.08 2.62.69.69 1.64 1.09 2.62 1.09.98 0 1.92-.39 2.62-1.08S149 98.7 149 97.71z" fill="red"/><path fill="none" stroke="#000" stroke-width="1.42" d="M4.72 96.63l37-33.64M7.1 97.69h134.65"/><path d="M7.12 97.69c0-.95-.38-1.85-1.05-2.52a3.548 3.548 0 0 0-2.52-1.04c-.94 0-1.85.38-2.52 1.04-.67.67-1.04 1.57-1.04 2.52a3.548 3.548 0 0 0 3.56 3.56 3.565 3.565 0 0 0 3.57-3.55z" fill="red"/><path fill="none" stroke="#000" stroke-width="1.42" d="M568.83 167.14l-52.69-44.84m54.35 42.71V30.36"/><path d="M573.81 168.55c0-.88-.35-1.73-.97-2.35a3.33 3.33 0 0 0-2.35-.97c-.88 0-1.72.35-2.34.97-.62.62-.97 1.47-.97 2.34s.35 1.72.97 2.34 1.46.97 2.34.97 1.72-.35 2.35-.97c.62-.62.97-1.46.97-2.34z" fill="red"/><path fill="none" stroke="#000" stroke-width="1.42" d="M498.32 167.14l-21.45-23.18m22.75 21.05v-63.78m3.55 67.32h63.78"/><path d="M503.05 168.55c0-.91-.36-1.78-1.01-2.42-.64-.64-1.51-1-2.42-1-.91 0-1.78.36-2.42 1-.64.64-1 1.51-1 2.42s.36 1.78 1 2.42 1.51 1 2.42 1c.91 0 1.78-.36 2.42-1 .64-.64 1-1.51 1.01-2.42z" fill="red"/><path fill="none" stroke="#000" stroke-width="1.42" d="M286.78 167.14l-4.06-23.18m4.3 21.05v-63.78"/><path d="M290.64 168.55c0-.96-.38-1.88-1.06-2.56-.68-.68-1.6-1.06-2.55-1.05s-1.87.38-2.55 1.06a3.595 3.595 0 0 0 0 5.1 3.61 3.61 0 0 0 5.1.01c.68-.68 1.06-1.59 1.06-2.55z" fill="red"/><path fill="none" stroke="#000" stroke-width="1.42" d="M216.26 167.14l1.74-23.18m-1.84 21.05v-63.78m3.54 67.32h63.78"/><path d="M219.78 168.55a3.618 3.618 0 0 0-6.18-2.56 3.618 3.618 0 0 0 0 5.12 3.618 3.618 0 0 0 5.12 0c.68-.68 1.06-1.6 1.06-2.55z" fill="red"/><path fill="none" stroke="#000" stroke-width="1.42" d="M75.24 167.14l25.78-44.84m-26.59 42.71V30.36"/><path d="M77.96 168.55c0-.94-.38-1.84-1.04-2.51s-1.56-1.03-2.5-1.03-1.84.37-2.5 1.04c-.66.66-1.04 1.56-1.04 2.5s.37 1.84 1.04 2.5a3.534 3.534 0 0 0 6.04-2.49z" fill="red"/><path fill="none" stroke="#000" stroke-width="1.42" d="M4.72 167.14l19.13-23.18M3.56 165.01v-63.78m3.54 67.32h63.78"/><path d="M7.02 168.55a3.467 3.467 0 0 0-3.47-3.46c-.92 0-1.8.37-2.44 1.01-.65.65-1.01 1.53-1.01 2.45s.36 1.8 1.01 2.45c.65.65 1.53 1.01 2.44 1.01a3.462 3.462 0 0 0 3.47-3.45z" fill="red"/></svg>