<svg xmlns="http://www.w3.org/2000/svg" width="666" height="252">
    <path d="M378 126l54-108 54 108m108 108V126H486v108M126 126L72 18m54 108H18M72 18h108m54 108v108m-108 0V126" fill="none" stroke="#B2B2B2" stroke-width="1.5" stroke-dasharray="3"/>
    <path fill="none" stroke="#666" stroke-width="1.5" d="M486 126h-92.5"/>
    <path fill="#666" d="M388.974 126c2.13-.79 4.772-2.139 6.41-3.566l-1.29 3.566 1.29 3.566c-1.638-1.427-4.28-2.776-6.41-3.566z"/>
    <path fill="none" stroke="#666" stroke-width="1.5" d="M378 126l.5 39"/>
    <path fill="#666" d="M378.558 169.526c-.817-2.12-2.199-4.745-3.647-6.364l3.582 1.244 3.55-1.336c-1.407 1.657-2.723 4.316-3.485 6.456z"/>
    <path fill="none" stroke="#666" stroke-width="1.5" d="M378 180l44 45.5"/>
    <path fill="#666" d="M425.146 228.754c-2.049-.981-4.855-1.944-7.02-2.129l3.46-1.552 1.667-3.406c.113 2.169.98 5.007 1.893 7.087z"/>
    <path fill="none" stroke="#666" stroke-width="1.5" d="M432 234h40"/>
    <path fill="#666" d="M476.526 234c-2.13.79-4.772 2.139-6.41 3.566l1.29-3.566-1.29-3.566c1.638 1.427 4.28 2.776 6.41 3.566z"/>
    <path fill="none" stroke="#666" stroke-width="1.5" d="M486 234l95-.5"/>
    <path fill="#666" d="M585.526 233.477c-2.126.801-4.761 2.163-6.392 3.6l1.271-3.573-1.309-3.56c1.646 1.418 4.297 2.753 6.43 3.533z"/>
    <path fill="none" stroke="#666" stroke-width="1.5" d="M594 234l44.5-43.5"/>
    <path fill="#666" d="M641.736 187.336c-.971 2.054-1.917 4.865-2.091 7.031l-1.57-3.452-3.415-1.648c2.169-.124 5.001-1.007 7.076-1.931z"/>
    <path fill="none" stroke="#666" stroke-width="1.5" d="M647.999 180L603.5 135"/>
    <path fill="#666" d="M600.317 131.782c2.06.958 4.876 1.89 7.043 2.05l-3.442 1.59-1.629 3.425c-.137-2.168-1.036-4.995-1.972-7.065z"/>
    <path fill="none" stroke="#666" stroke-width="1.5" d="M540 18l-93.5-.5"/>
    <path fill="#666" d="M441.974 17.476c2.134-.779 4.784-2.113 6.429-3.532l-1.309 3.559 1.271 3.573c-1.631-1.436-4.265-2.799-6.391-3.6z"/>
    <path fill="none" stroke="#666" stroke-width="1.5" d="M594 126l-46.5-95"/>
    <path fill="#666" d="M545.51 26.935c1.646 1.565 4.02 3.346 6.021 4.189l-3.771.41-2.636 2.726c.564-2.099.613-5.065.386-7.325z"/>
    <path fill="none" stroke="#666" stroke-width="1.5" d="M126 126l94.5.5"/>
    <path fill="#666" d="M225.026 126.524c-2.134.779-4.784 2.113-6.429 3.532l1.309-3.559-1.271-3.573c1.63 1.436 4.265 2.799 6.391 3.6z"/>
    <path fill="none" stroke="#666" stroke-width="1.5" d="M180 18l46.5 95.5"/>
    <path fill="#666" d="M228.481 117.57c-1.643-1.569-4.012-3.355-6.012-4.202l3.771-.402 2.642-2.721c-.567 2.097-.623 5.064-.401 7.325z"/>
    <path fill="none" stroke="#666" stroke-width="1.5" d="M234 126l46 45"/>
    <path fill="#666" d="M283.236 174.165c-2.075-.924-4.907-1.809-7.076-1.934l3.416-1.646 1.572-3.451c.172 2.165 1.118 4.977 2.088 7.031z"/>
    <path fill="none" stroke="#666" stroke-width="1.5" d="M287.999 180L243.5 224"/>
    <path fill="#666" d="M240.281 227.183c.959-2.06 1.89-4.876 2.051-7.043l1.59 3.442 3.424 1.629c-2.167.137-4.995 1.036-7.065 1.972z"/>
    <path fill="none" stroke="#666" stroke-width="1.5" d="M234 234l-92 .5"/>
    <path fill="#666" d="M137.474 234.524c2.125-.802 4.761-2.164 6.391-3.601l-1.271 3.573 1.31 3.559c-1.646-1.417-4.296-2.752-6.43-3.531z"/>
    <path fill="none" stroke="#666" stroke-width="1.5" d="M126 234l-39-.5"/>
    <path fill="#666" d="M82.474 233.442c2.14-.764 4.799-2.078 6.455-3.484l-1.335 3.55 1.244 3.582c-1.619-1.448-4.244-2.831-6.364-3.648z"/>
    <g>
        <path fill="none" stroke="#666" stroke-width="1.5" d="M72 234l-44-43.5"/>
        <path fill="#666" d="M24.781 187.317c2.07.936 4.897 1.835 7.065 1.971l-3.424 1.63-1.59 3.442c-.161-2.166-1.092-4.983-2.051-7.043z"/>
    </g>
    <g>
        <path fill="none" stroke="#666" stroke-width="1.5" d="M18 180v-39"/>
        <path fill="#666" d="M18 136.474c.79 2.13 2.139 4.772 3.566 6.41L18 141.594l-3.566 1.29c1.427-1.638 2.776-4.28 3.566-6.41z"/>
    </g>
    <g>
        <path fill="none" stroke="#666" stroke-width="1.5" d="M18 126l46.5-94"/>
        <path fill="#666" d="M66.507 27.943c-.236 2.259-.199 5.226.354 7.327l-2.625-2.737-3.769-.425c2.007-.836 4.387-2.606 6.04-4.165z"/>
    </g>
    <g fill="#FFF" stroke="#666" stroke-width="1.5">
        <circle cx="18" cy="126" r="6.75"/>
        <circle cx="18" cy="180" r="6.75"/>
        <circle cx="72" cy="234" r="6.75"/>
        <circle cx="126" cy="234" r="6.75"/>
        <circle cx="126" cy="126" r="6.75"/>
        <circle cx="234" cy="126" r="6.75"/>
        <circle cx="234" cy="234" r="6.75"/>
        <circle cx="287.999" cy="180" r="6.75"/>
        <circle cx="72" cy="18" r="6.75"/>
        <circle cx="180" cy="18" r="6.75"/>
        <circle cx="378" cy="126" r="6.75"/>
        <circle cx="378" cy="180" r="6.75"/>
        <circle cx="432" cy="234" r="6.75"/>
        <circle cx="486" cy="234" r="6.75"/>
        <circle cx="486" cy="126" r="6.75"/>
        <circle cx="594" cy="126" r="6.75"/>
        <circle cx="594" cy="234" r="6.75"/>
        <circle cx="647.999" cy="180" r="6.75"/>
        <circle cx="432" cy="18" r="6.75"/>
        <circle cx="540" cy="18" r="6.75"/>
    </g>
</svg>
