<svg xmlns="http://www.w3.org/2000/svg" width="631" height="531">
    <path fill="#FFF5F5" d="M297 342l27-126-126 63 63-198 360 189-108 252L9 342 216 9l-54 306 216 90 126-45-99-117z"/>
    <g fill="none" stroke="#B2B2B2">
        <path d="M308.314 289.197c11.164 2.381 21.049 8.206 28.488 16.316m-6.633 6.083l6.634-6.082c-7.439-8.11-17.324-13.936-28.488-16.316l-1.886 8.801c9.302 1.982 17.541 6.837 23.74 13.597z"/>
        <path d="M306.429 297.998l-1.886 8.8a35.963 35.963 0 0 1 18.992 10.878l6.634-6.08c-6.199-6.76-14.438-11.615-23.74-13.598z"/>
        <path d="M316.901 323.757l6.634-6.081a35.963 35.963 0 0 0-18.992-10.878l-1.886 8.8a26.962 26.962 0 0 1 14.244 8.159z"/>
        <path d="M302.657 315.598l-1.887 8.805a17.948 17.948 0 0 1 9.483 5.448l6.647-6.094a26.956 26.956 0 0 0-14.243-8.159z"/>
        <path d="M310.254 329.851a17.951 17.951 0 0 0-9.483-5.448L297 342l13.254-12.149z"/>
    </g>
    <path fill="none" stroke="#00C" stroke-width="2" d="M441 342.001L378 333l36-36 54 54-81 27-90-36 108-99 99 117-126 45-216-90L216 9 9 342"/>
    <path fill="none" stroke="#00C" stroke-width="2" d="M297 342l27-126-126 63 63-198 360 189-107.175 253.541L9 342 81 54"/>
    <path fill="none" stroke="#000" stroke-dasharray="4" d="M81 54l360 288.001"/>
    <circle fill="#FFF" stroke="#000" cx="81" cy="54" r="6"/>
    <circle fill="#FFF" stroke="#000" cx="441" cy="342.001" r="6"/>
    <path fill="none" stroke="#000" d="M54 27v18m-7.795-13.5l15.588 9m-15.588 0l15.587-9"/>
    <g fill="none" stroke="#00F" stroke-width=".5">
        <path d="M9 342l99-27 18 36 378 135 81-207-306-153-36 90 90-9-36 135 63-135-54-18 36-18 216 144-81 153-333-135-9-117z"/>
        <path d="M9 342l172.168-235.849L153 324l270 108 108-81-153-144 9 36-90 99"/>
    </g>
</svg>
