<svg xmlns="http://www.w3.org/2000/svg" width="477" height="405">
    <g fill="#FFFFEB" stroke="#000">
        <path d="M63 236.293c-72 36-72 108 36 72.001l-36-72.001z"/>
        <path d="M63 236.293c-72-36-72-108 36-108l36 72-72 36zm144-180c-36-72-180-72-108 72h72l36-72zm0 0c36-72 179.999-72 108 72l-108-72zm-36 288.001c-36 72-144 71.999-72-36l72 36zm216-108.001c36-108-.002-108-72.001-108l-35.999 72 72 72 36-36z"/>
        <path d="M387 308.294c108 36 108-108 0-72.001v72.001zm-108 36c36 72 144 71.999 108-36l-36-36.001-72 72.001zm-108 0c36 72 72 72.001 108 0l-72-72.001-36 72.001zm36-72.001l72-72-108-72-36 72z"/>
    </g>
    <g fill="none" stroke="#B2B2B2" stroke-width="2">
        <path d="M207 344.294V200.293h144v144.001M135 56.293l72 144H63"/>
        <path d="M63 200.293l72-144h144l72 144 71.999 72L351 344.294H135l-72-72.001z"/>
    </g>
    <g fill="#FFF" stroke="#B2B2B2" stroke-width="2">
        <circle cx="63" cy="200.293" r="9"/>
        <circle cx="63" cy="272.293" r="9"/>
        <circle cx="135" cy="344.294" r="9"/>
        <circle cx="207" cy="344.294" r="9"/>
        <circle cx="207" cy="200.293" r="9"/>
        <circle cx="351" cy="200.293" r="9"/>
        <circle cx="351" cy="344.294" r="9"/>
        <circle cx="422.999" cy="272.293" r="9"/>
        <circle cx="135" cy="56.293" r="9"/>
        <circle cx="279" cy="56.293" r="9"/>
    </g>
    <g fill="red" stroke="#000">
        <circle cx="99" cy="128.293" r="6"/>
        <circle cx="171" cy="128.293" r="6"/>
        <circle cx="207" cy="56.293" r="6"/>
        <circle cx="314.999" cy="128.293" r="6"/>
        <circle cx="279" cy="200.293" r="6"/>
        <circle cx="135" cy="200.293" r="6"/>
        <circle cx="63" cy="236.293" r="6"/>
        <circle cx="99" cy="308.294" r="6"/>
        <circle cx="171" cy="344.294" r="6"/>
        <circle cx="207" cy="272.293" r="6"/>
        <circle cx="279" cy="344.294" r="6"/>
        <circle cx="351" cy="272.293" r="6"/>
        <circle cx="387" cy="236.293" r="6"/>
        <circle cx="387" cy="308.294" r="6"/>
    </g>
</svg>
