<svg xmlns="http://www.w3.org/2000/svg" width="351" height="387">
    <path fill="#FFF0F5" d="M66.499 47.501v108l54 108h121.5l-27-67.5-27-94.5z"/>
    <path fill="none" stroke="#0060B6" stroke-width="3" d="M241.999 263.501h-121.5"/>
    <path fill="none" stroke="red" stroke-width="4" stroke-dasharray="3,2" d="M241.999 263.501l-27-67.5"/>
    <path fill="none" stroke="#000" stroke-width="2" d="M336.5 196.001L188 101.5m148.5 189.001l-94.501-27m-27-67.5L188 101.5 66.499 47.501m135 297.001l-81-81.001m-108 0l54-108 54 108v108.001m-54-216.001v-108"/>
    <circle fill="#FFF" stroke="#000" cx="66.499" cy="47.501" r="9"/>
    <path fill="none" stroke="#000" d="M39.499 7.001v27M27.807 13.75l23.383 13.5m-23.383.002L51.188 13.75"/>
    <circle fill="#FFF" stroke="#000" cx="66.499" cy="155.501" r="9"/>
    <circle fill="#FFF" stroke="#000" cx="12.499" cy="263.501" r="9"/>
    <circle fill="#FFF" stroke="#000" cx="120.499" cy="263.501" r="9"/>
    <circle fill="#FFF" stroke="#000" cx="120.499" cy="371.502" r="9"/>
    <circle fill="#FFF" stroke="#000" cx="201.499" cy="344.502" r="9"/>
    <circle fill="#FFF" stroke="#000" cx="241.999" cy="263.501" r="9"/>
    <circle fill="#FFF" stroke="#000" cx="214.999" cy="196.001" r="9"/>
    <circle fill="#FFF" stroke="#000" cx="188" cy="101.5" r="9"/>
    <circle fill="#FFF" stroke="#000" cx="336.5" cy="196.001" r="9"/>
    <circle fill="#FFF" stroke="#000" cx="336.5" cy="290.501" r="9"/>
    <path fill="none" stroke="#00A0C6" d="M188.562 255.823c0-16.911 9.72-31.554 23.877-38.646"/>
    <path fill="#00A0C6" d="M214.867 215.96c-.93.997-1.986 2.43-2.481 3.636l-.267-2.26-1.649-1.566c1.262.326 3.043.338 4.397.19z"/>
    <path fill="none" stroke="#00A0C6" d="M214.853 222.008c-12.387 6.205-20.892 19.018-20.892 33.815"/>
    <path fill="#00A0C6" d="M217.281 220.791c-.93.997-1.984 2.43-2.479 3.636l-.267-2.26-1.651-1.566c1.262.326 3.043.338 4.397.19z"/>
    <path fill="none" stroke="#00A0C6" d="M217.271 226.837c-10.619 5.319-17.911 16.302-17.911 28.986"/>
    <path fill="#00A0C6" d="M219.7 225.621c-.931.996-1.986 2.429-2.48 3.635l-.267-2.259-1.65-1.567c1.262.326 3.042.34 4.397.191z"/>
    <g>
        <path fill="none" stroke="#00A0C6" d="M219.689 231.667c-8.852 4.433-14.928 13.585-14.928 24.156"/>
        <path fill="#00A0C6" d="M222.118 230.451c-.932.996-1.986 2.43-2.481 3.636l-.267-2.261-1.649-1.565c1.261.325 3.041.339 4.397.19z"/>
    </g>
</svg>
