<svg xmlns="http://www.w3.org/2000/svg" width="684" height="306">
    <path d="M51 178.47c-54 27-54 81 27 54.001L51 178.47zm0 0c-54-27-54-81 27-81l27 54-54 27zm108-135c-27-54-135.001-54-81 54h54l27-54zm0 0c27-54 134.998-54 80.999 54L159 43.47zm-27 216.001c-27 54-108 53.999-54-27l54 27zm162-81.001c27-81-.002-81-54.001-81l-26.999 54 54 54 27-27zm0 54.001c81 27 81-81 0-54.001v54.001zm-81 27c27 54 108 53.999 81-27l-27-27.001-54 54.001zm-81 0c27 54 54 54 81 0l-54-54.001-27 54.001zm27-54.001l54-54-81-54-27 54z" fill="#FFFFEB" stroke="#000" stroke-width=".75"/>
    <path fill="none" stroke="#666" stroke-width="1.5" d="M668.999 200.75l-40.499-40.5"/>
    <path fill="#666" d="M625.299 157.049c2.065.947 4.887 1.863 7.055 2.011l-3.434 1.609-1.609 3.434c-.149-2.167-1.064-4.989-2.012-7.054z"/>
    <path fill="none" stroke="#666" stroke-width="1.5" d="M564 41.75l47.25 94.5"/>
    <path fill="#666" d="M613.274 140.298c-1.659-1.551-4.048-3.312-6.057-4.138l3.767-.441 2.613-2.749c-.544 2.103-.569 5.071-.323 7.328z"/>
    <path d="M456 41.75h108m54 216l53.999-54M402 149.749h216M402 203.75l54 54" fill="none" stroke="#B2B2B2" stroke-width="1.5" stroke-dasharray="3"/>
    <path fill="none" stroke="#666" stroke-width="1.5" d="M618 149.749v94.501"/>
    <path fill="#666" d="M618 248.776c-.79-2.13-2.139-4.772-3.566-6.41l3.566 1.29 3.566-1.29c-1.427 1.638-2.777 4.28-3.566 6.41z"/>
    <path fill="none" stroke="#666" stroke-width="1.5" d="M618 257.75h-94.5"/>
    <path fill="#666" d="M518.974 257.75c2.13-.79 4.772-2.139 6.41-3.566l-1.29 3.566 1.29 3.566c-1.638-1.427-4.28-2.776-6.41-3.566z"/>
    <path fill="none" stroke="#666" stroke-width="1.5" d="M510 257.75v-94.5"/>
    <path fill="#666" d="M510 158.724c.79 2.13 2.139 4.772 3.566 6.41l-3.566-1.29-3.566 1.29c1.427-1.638 2.777-4.28 3.566-6.41z"/>
    <path fill="none" stroke="#666" stroke-width="1.5" d="M456 257.75h40.5"/>
    <path fill="#666" d="M501.026 257.75c-2.13.79-4.772 2.139-6.41 3.566l1.29-3.566-1.29-3.566c1.638 1.427 4.28 2.777 6.41 3.566z"/>
    <path fill="none" stroke="#666" stroke-width="1.5" d="M402 203.75v-40.5"/>
    <path fill="#666" d="M402 158.724c.79 2.13 2.139 4.772 3.566 6.41l-3.566-1.29-3.566 1.29c1.427-1.638 2.777-4.28 3.566-6.41z"/>
    <path fill="none" stroke="#666" stroke-width="1.5" d="M510 149.749L462.75 55.25"/>
    <path fill="#666" d="M460.726 51.202c1.659 1.551 4.048 3.312 6.057 4.138l-3.767.441-2.613 2.749c.544-2.103.569-5.07.323-7.328z"/>
    <path fill="none" stroke="#666" stroke-width="1.5" d="M402 149.749l47.25-94.499"/>
    <path fill="#666" d="M451.274 51.202c-.246 2.258-.222 5.225.323 7.328l-2.613-2.749-3.767-.441c2.01-.826 4.398-2.587 6.057-4.138z"/>
    <g fill="#FFF" stroke="#666" stroke-width="1.5">
        <circle cx="402" cy="149.749" r="6.75"/>
        <circle cx="402" cy="203.749" r="6.75"/>
        <circle cx="456" cy="257.75" r="6.75"/>
        <circle cx="510" cy="257.75" r="6.75"/>
        <circle cx="510" cy="149.75" r="6.75"/>
        <circle cx="618" cy="149.75" r="6.75"/>
        <circle cx="618" cy="257.75" r="6.75"/>
        <circle cx="671.999" cy="203.749" r="6.75"/>
        <circle cx="456" cy="41.75" r="6.75"/>
        <circle cx="564" cy="41.75" r="6.75"/>
    </g>
    <g fill="red" stroke="#000" stroke-width=".75">
        <circle cx="78" cy="97.47" r="4.5"/>
        <circle cx="132" cy="97.47" r="4.5"/>
        <circle cx="159" cy="43.47" r="4.5"/>
        <circle cx="239.999" cy="97.47" r="4.5"/>
        <circle cx="213" cy="151.47" r="4.5"/>
        <circle cx="105" cy="151.47" r="4.5"/>
        <circle cx="51" cy="178.47" r="4.5"/>
        <circle cx="78" cy="232.471" r="4.5"/>
        <circle cx="132" cy="259.471" r="4.5"/>
        <circle cx="159" cy="205.47" r="4.5"/>
        <circle cx="213" cy="259.471" r="4.5"/>
        <circle cx="267" cy="205.47" r="4.5"/>
        <circle cx="294" cy="178.47" r="4.5"/>
        <circle cx="294" cy="232.471" r="4.5"/>
    </g>
    <g fill="none" stroke="#000" stroke-width="1.5">
        <path d="M91.5 57.059h27M98.25 68.75l13.5-23.383m0 23.383l-13.5-23.383M10.5 57.059h27M17.25 68.75l13.5-23.383m0 23.383l-13.5-23.383"/>
    </g>
    <g>
        <path d="M128.57 119.244l4.839-15.811 11.273 12.095zm-66.038-5.73l12.715-10.571 2.797 16.296zM35.291 193.8l13.412-9.67 1.669 16.45zm73.593 65.05l16.306 2.736-10.523 12.754zm-24.44-30.336l6.848-15.049 9.61 13.455zm120.771-54.765l8.267-14.318 8.268 14.318zM154.85 65.63l6.736-15.1 9.709 13.382zm119.897 119.799l-8.263 14.322-8.273-14.315zm-161.5-57l-8.263 14.322-8.273-14.316zm178.947 94.385l-14.37-8.179 14.268-8.356zm11.388-24.294l-4.834-15.813 16.11 3.719zm-82.435 61.497l13.418-9.663 1.66 16.452zm-68.227-32.103l7.309-14.832 9.191 13.744zm71.637-150.81l15.85-4.711-3.844 16.082z"/>
    </g>
</svg>
