<svg xmlns="http://www.w3.org/2000/svg" width="675" height="630"><path d="M293.25 149.75l-54 108m-33.75-54l-54 108m33.75-216l-54 108m-33.75-54l-54 108m54-108l87.75-54 108 54-87.75 54zm54 162l-108-54 87.75-54 108 54zm499.5-243l-54 108m-33.75-54l-54 108m33.75-216l-54 108m-33.75-54l-54 108m54-108l87.75-54 108 54-87.75 54zm54 162l-108-54 87.75-54 108 54zM279.75 453.5l-54 108m-33.75-54l-54 108m33.75-216l-54 108M84 453.5l-54 108m54-108l87.75-54 108 54-87.75 54zm54 162l-108-54 87.75-54 108 54zm499.5-243l-54 108m-33.75-54l-54 108m33.75-216l-54 108m-33.75-54l-54 108m54-108l87.75-54 108 54-87.75 54zm54 162l-108-54 87.75-54 108 54z" fill="none" stroke="#000" stroke-width=".75"/><path d="M43.5 257.75L30 561.5m67.5-411.75L84 453.5m47.25-249.75l-13.5 303.75m67.5-411.75l-13.5 303.75m-20.25-87.75L138 615.5m67.5-411.75L192 507.5m47.25-249.75l-13.5 303.75m67.5-411.75l-13.5 303.75m121.5-276.75l-13.5 303.75m67.5-411.75l-13.5 303.75M489 122.75L475.5 426.5M543 14.75L529.5 318.5m-20.25-87.75l-13.5 303.75m67.5-411.75l-13.5 303.75M597 176.75L583.5 480.5M651 68.75L637.5 372.5" fill="none" stroke="#BF0000" stroke-width=".75" stroke-dasharray="1.5,1.5"/><path d="M637.5 372.5l-519.75 135m432-81l-324 135m357.75-81L30 561.5m445.5-135L84 453.5m303.75 27L192 507.5m249.75-135l-162 81M43.5 257.75l357.75-81m-162 81l357.75-81m-445.5 135l357.75-81m-324-135l357.75-81m-445.5 135l357.75-81m-324 135l357.75-81m-195.75 27l357.75-81m-445.5 135l357.75-81M138 615.5l357.75-81m-324-135l357.75-81" fill="none" stroke="#0060B6" stroke-width=".75" stroke-dasharray="3"/><path d="M171.75 311.75a6.75 6.75 0 0 1-6.75 6.75h-27a6.75 6.75 0 0 1-6.75-6.75A6.75 6.75 0 0 1 138 305h27a6.75 6.75 0 0 1 6.75 6.75zm-108-54A6.75 6.75 0 0 1 57 264.5H30a6.75 6.75 0 0 1-6.75-6.75A6.75 6.75 0 0 1 30 251h27a6.75 6.75 0 0 1 6.75 6.75zm54-108a6.75 6.75 0 0 1-6.75 6.75H84a6.75 6.75 0 1 1 0-13.5h27a6.75 6.75 0 0 1 6.75 6.75zm108 54a6.75 6.75 0 0 1-6.75 6.75h-27a6.75 6.75 0 1 1 0-13.5h27a6.75 6.75 0 0 1 6.75 6.75zm33.75 54a6.75 6.75 0 0 1-6.75 6.75h-27a6.75 6.75 0 0 1-6.75-6.75 6.75 6.75 0 0 1 6.75-6.75h27a6.75 6.75 0 0 1 6.75 6.75zm-108-54a6.75 6.75 0 0 1-6.75 6.75h-27a6.75 6.75 0 1 1 0-13.5h27a6.75 6.75 0 0 1 6.75 6.75zm54-108a6.75 6.75 0 0 1-6.75 6.75h-27a6.75 6.75 0 1 1 0-13.5h27a6.75 6.75 0 0 1 6.75 6.75zm108 54a6.75 6.75 0 0 1-6.75 6.75h-27a6.75 6.75 0 1 1 0-13.5h27a6.75 6.75 0 0 1 6.75 6.75zm216 81a6.749 6.749 0 0 1-6.75 6.75h-27a6.749 6.749 0 0 1-6.75-6.75 6.749 6.749 0 0 1 6.75-6.75h27a6.749 6.749 0 0 1 6.75 6.75zm-108-54a6.75 6.75 0 0 1-6.75 6.75h-27a6.75 6.75 0 0 1-6.75-6.75 6.75 6.75 0 0 1 6.75-6.75h27a6.75 6.75 0 0 1 6.75 6.75zm54-108a6.75 6.75 0 0 1-6.75 6.75h-27a6.75 6.75 0 0 1-6.75-6.75 6.75 6.75 0 0 1 6.75-6.75h27a6.75 6.75 0 0 1 6.75 6.75zm108 54a6.75 6.75 0 0 1-6.75 6.75h-27a6.75 6.75 0 0 1-6.75-6.75 6.75 6.75 0 0 1 6.75-6.75h27a6.75 6.75 0 0 1 6.75 6.75zm33.75 54a6.75 6.75 0 0 1-6.75 6.75h-27a6.75 6.75 0 0 1-6.75-6.75 6.75 6.75 0 0 1 6.75-6.75h27a6.75 6.75 0 0 1 6.75 6.75zm-108-54a6.75 6.75 0 0 1-6.75 6.75h-27a6.75 6.75 0 0 1-6.75-6.75 6.75 6.75 0 0 1 6.75-6.75h27a6.75 6.75 0 0 1 6.75 6.75zm54-108a6.75 6.75 0 0 1-6.75 6.75h-27a6.75 6.75 0 0 1-6.75-6.75A6.75 6.75 0 0 1 529.5 8h27a6.75 6.75 0 0 1 6.75 6.75zm108 54a6.75 6.75 0 0 1-6.75 6.75h-27a6.75 6.75 0 0 1-6.75-6.75A6.75 6.75 0 0 1 637.5 62h27a6.75 6.75 0 0 1 6.75 6.75zm-513 546.75a6.75 6.75 0 0 1-6.75 6.75h-27a6.75 6.75 0 0 1-6.75-6.75 6.75 6.75 0 0 1 6.75-6.75h27a6.75 6.75 0 0 1 6.75 6.75zm-108-54a6.75 6.75 0 0 1-6.75 6.75h-27a6.75 6.75 0 0 1-6.75-6.75 6.75 6.75 0 0 1 6.75-6.75h27a6.75 6.75 0 0 1 6.75 6.75zm54-108a6.75 6.75 0 0 1-6.75 6.75h-27a6.75 6.75 0 0 1-6.75-6.75 6.75 6.75 0 0 1 6.75-6.75h27a6.75 6.75 0 0 1 6.75 6.75zm108 54a6.75 6.75 0 0 1-6.75 6.75h-27a6.75 6.75 0 0 1-6.75-6.75 6.75 6.75 0 0 1 6.75-6.75h27a6.75 6.75 0 0 1 6.75 6.75zm33.75 54a6.75 6.75 0 0 1-6.75 6.75h-27a6.75 6.75 0 0 1-6.75-6.75 6.75 6.75 0 0 1 6.75-6.75h27a6.75 6.75 0 0 1 6.75 6.75zm-108-54a6.75 6.75 0 0 1-6.75 6.75h-27a6.75 6.75 0 0 1-6.75-6.75 6.75 6.75 0 0 1 6.75-6.75h27a6.75 6.75 0 0 1 6.75 6.75zm54-108a6.75 6.75 0 0 1-6.75 6.75h-27a6.75 6.75 0 0 1-6.75-6.75 6.75 6.75 0 0 1 6.75-6.75h27a6.75 6.75 0 0 1 6.75 6.75zm108 54a6.75 6.75 0 0 1-6.75 6.75h-27a6.75 6.75 0 0 1-6.75-6.75 6.75 6.75 0 0 1 6.75-6.75h27a6.75 6.75 0 0 1 6.75 6.75zm216 81a6.749 6.749 0 0 1-6.75 6.75h-27a6.749 6.749 0 0 1-6.75-6.75 6.749 6.749 0 0 1 6.75-6.75h27a6.749 6.749 0 0 1 6.75 6.75zm-108-54a6.749 6.749 0 0 1-6.75 6.75h-27a6.749 6.749 0 0 1-6.75-6.75 6.749 6.749 0 0 1 6.75-6.75h27a6.749 6.749 0 0 1 6.75 6.75zm54-108a6.749 6.749 0 0 1-6.75 6.75h-27a6.749 6.749 0 0 1-6.75-6.75 6.749 6.749 0 0 1 6.75-6.75h27a6.749 6.749 0 0 1 6.75 6.75zm108 54a6.749 6.749 0 0 1-6.75 6.75h-27a6.749 6.749 0 0 1-6.75-6.75 6.749 6.749 0 0 1 6.75-6.75h27a6.749 6.749 0 0 1 6.75 6.75zm33.75 54a6.749 6.749 0 0 1-6.75 6.75h-27a6.749 6.749 0 0 1-6.75-6.75 6.749 6.749 0 0 1 6.75-6.75h27a6.749 6.749 0 0 1 6.75 6.75zm-108-54a6.749 6.749 0 0 1-6.75 6.75h-27a6.749 6.749 0 0 1-6.75-6.75 6.749 6.749 0 0 1 6.75-6.75h27a6.749 6.749 0 0 1 6.75 6.75zm54-108a6.749 6.749 0 0 1-6.75 6.75h-27a6.749 6.749 0 0 1-6.75-6.75 6.749 6.749 0 0 1 6.75-6.75h27a6.749 6.749 0 0 1 6.75 6.75zm108 54a6.749 6.749 0 0 1-6.75 6.75h-27a6.749 6.749 0 0 1-6.75-6.75 6.749 6.749 0 0 1 6.75-6.75h27a6.749 6.749 0 0 1 6.75 6.75z" fill="#FFF" stroke="#000" stroke-width=".75"/><g font-family="Times,serif" font-size="14"><text transform="translate(141.785 316.749)">abc</text><text transform="translate(31.837 262.749)">Abc</text><text transform="translate(84.275 154.75)">AbC</text><text transform="translate(194.223 208.75)">abC</text><text transform="translate(228.366 262.749)">aBc</text><text transform="translate(118.418 208.75)">ABc</text><text transform="translate(170.856 100.75)">ABC</text><text transform="translate(280.804 154.75)">aBC</text><text transform="translate(499.143 235.749)">bcd</text><text transform="translate(389.587 181.75)">bcD</text><text transform="translate(442.025 73.75)">bCD</text><text transform="translate(551.58 127.75)">bCd</text><text transform="translate(585.723 181.75)">Bcd</text><text transform="translate(476.168 127.75)">BcD</text><text transform="translate(528.606 19.75)">BCD</text><text transform="translate(638.161 73.75)">BCd</text><text transform="translate(127.892 620.499)">dab</text><text transform="translate(17.944 566.499)">dAb</text><text transform="translate(70.389 458.499)">DAb</text><text transform="translate(180.337 512.499)">Dab</text><text transform="translate(214.473 566.499)">daB</text><text transform="translate(104.525 512.499)">dAB</text><text transform="translate(156.97 404.499)">DAB</text><text transform="translate(266.918 458.499)">DaB</text><text transform="translate(486.035 539.499)">cda</text><text transform="translate(376.48 485.499)">cDa</text><text transform="translate(428.918 377.499)">CDa</text><text transform="translate(538.473 431.499)">Cda</text><text transform="translate(571.837 485.499)">cdA</text><text transform="translate(462.281 431.499)">cDA</text><text transform="translate(514.72 323.499)">CDA</text><text transform="translate(624.275 377.499)">CdA</text></g></svg>