<svg xmlns="http://www.w3.org/2000/svg" width="657" height="576"><path fill="none" stroke="#0000E1" stroke-width="2" d="M478.086 398.25c-54 18-108 27-90-18s126-99 144-45S519.042 434.676 459 441c-64.087 6.75-172.087-11.25-243-108-37.622-51.329-54-189 19.087-186.75 160.685 4.947-1.026 203.128 18 108 9-45 0-99-18-54s-18 180 72 81c186.015-204.616-153.056-233.213-162-108-9 126 13.587 174.034 88.913 240.75 274.812 243.4 441-117 289.087-141.75-62.812-10.233-153 99-189 81s58.523-76.681 90-117c96.071-123.062-274.336-272.007-315-99C56.198 362.269 211.364 590.868 477 522 999.801 386.459 139.386-290.969 55.086 164.25c-45 243-72.001-17.999-9-54"/><path fill="none" stroke="#000" stroke-dasharray="4" d="M46.086 110.25l432 288"/><circle fill="#FFF" stroke="#000" cx="46.086" cy="110.25" r="6"/><circle fill="#FFF" stroke="#000" cx="478.086" cy="398.25" r="6"/><path fill="none" stroke="#000" d="M28.086 83.25v18m-7.793-13.5l15.588 9m-15.588-.001l15.588-9"/><text transform="translate(418 357)" fill="red" font-family="'AGaramondPro-Semibold'" font-size="24">+1</text><text transform="translate(157 219)" fill="red" font-family="'AGaramondPro-Semibold'" font-size="24">+1</text><text transform="translate(258 250)" fill="red" font-family="'AGaramondPro-Semibold'" font-size="24">+1</text><text transform="translate(313 287)" fill="red" font-family="'AGaramondPro-Semibold'" font-size="24">+1</text><text transform="translate(312 320)" fill="red" font-family="'AGaramondPro-Semibold'" font-size="24">+1</text><text transform="translate(264 289)" fill="red" font-family="'AGaramondPro-Semibold'" font-size="24">–1</text><text transform="translate(206 220)" fill="red" font-family="'AGaramondPro-Semibold'" font-size="24">–1</text><text transform="translate(151 179)" fill="red" font-family="'AGaramondPro-Semibold'" font-size="24">–1</text><text transform="translate(110 154)" fill="red" font-family="'AGaramondPro-Semibold'" font-size="24">–1</text><text transform="translate(72 126)" fill="red" font-family="'AGaramondPro-Semibold'" font-size="24">–1</text><text transform="translate(373 330)" fill="red" font-family="'AGaramondPro-Semibold'" font-size="24">–1</text><text transform="translate(162 567)" fill="red" font-family="'AGaramondPro-Semibold'" font-size="24">–1–1–1+1–1+1–1+1+1–1+1 = –1</text></svg>