<?xml version="1.0" encoding="utf-8"?>
<!-- Generator: Adobe Illustrator 10, SVG Export Plug-In . SVG Version: 3.0.0 Build 76)  -->
<!DOCTYPE svg PUBLIC "-//W3C//DTD SVG 1.0//EN"    "http://www.w3.org/TR/2001/REC-SVG-20010904/DTD/svg10.dtd" [
	<!ENTITY ns_flows "http://ns.adobe.com/Flows/1.0/">
	<!ENTITY ns_extend "http://ns.adobe.com/Extensibility/1.0/">
	<!ENTITY ns_ai "http://ns.adobe.com/AdobeIllustrator/10.0/">
	<!ENTITY ns_graphs "http://ns.adobe.com/Graphs/1.0/">
	<!ENTITY ns_vars "http://ns.adobe.com/Variables/1.0/">
	<!ENTITY ns_imrep "http://ns.adobe.com/ImageReplacement/1.0/">
	<!ENTITY ns_sfw "http://ns.adobe.com/SaveForWeb/1.0/">
	<!ENTITY ns_custom "http://ns.adobe.com/GenericCustomNamespace/1.0/">
	<!ENTITY ns_adobe_xpath "http://ns.adobe.com/XPath/1.0/">
	<!ENTITY ns_svg "http://www.w3.org/2000/svg">
	<!ENTITY ns_xlink "http://www.w3.org/1999/xlink">
	<!ENTITY st0 "fill:none;stroke:#999999;">
	<!ENTITY st1 "fill:none;stroke:#000000;">
	<!ENTITY st2 "font-size:11.9999;">
	<!ENTITY st3 "font-family:'Times-Bold';">
	<!ENTITY st4 "fill:#FF0000;">
	<!ENTITY st5 "font-family:'Times-Italic';">
	<!ENTITY st6 "font-size:23.9998;">
]>
<svg 
	 xmlns:x="&ns_extend;" xmlns:i="&ns_ai;" xmlns:graph="&ns_graphs;" i:viewOrigin="108.0034 527.9985" i:rulerOrigin="0 0" i:pageBounds="0 612 792 0"
	 xmlns="&ns_svg;" xmlns:xlink="&ns_xlink;" xmlns:a="http://ns.adobe.com/AdobeSVGViewerExtensions/3.0/"
	 width="642.494" height="366.497" viewBox="0 0 642.494 366.497"
	 style="overflow:visible;enable-background:new 0 0 642.494 366.497" xml:space="preserve">
	<metadata>
		<variableSets  xmlns="&ns_vars;">
			<variableSet  varSetName="binding1" locked="none">
				<variables></variables>
				<v:sampleDataSets  xmlns="&ns_custom;" xmlns:v="&ns_vars;"></v:sampleDataSets>
			</variableSet>
		</variableSets>
		<sfw  xmlns="&ns_sfw;">
			<slices></slices>
			<sliceSourceBounds  y="161.502" x="108.003" width="642.494" height="366.497" bottomLeftOrigin="true"></sliceSourceBounds>
		</sfw>
	</metadata>
	<g id="Layer_1" i:layer="yes" i:dimmedPercent="50" i:rgbTrio="#4F008000FFFF">
		<switch i:knockout="Off" i:objectNS="&ns_flows;" i:objectType="pointText">
			<foreignObject requiredExtensions="&ns_flows;" x="0" y="0" width="1" height="1" style="overflow:visible;">
				<flowDef  xmlns="&ns_flows;">
					<region>
						<path d="M54,143.999"/>
					</region>
					<flow  xmlns="&ns_flows;"  style="&st4; &st3; &st2;">
						<p><span>?</span></p>
					</flow>
				</flowDef>
				<x:targetRef  xlink:href="#XMLID_1_" />
			</foreignObject>
			<text id="XMLID_1_" transform="matrix(1 0 0 1 53.9995 143.999)"><tspan x="0" y="0" style="&st4; &st3; &st2;">?</tspan></text>
		</switch>
		<switch i:knockout="Off" i:objectNS="&ns_flows;" i:objectType="pointText">
			<foreignObject requiredExtensions="&ns_flows;" x="0" y="0" width="1" height="1" style="overflow:visible;">
				<flowDef  xmlns="&ns_flows;">
					<region>
						<path d="M54,155.999"/>
					</region>
					<flow  xmlns="&ns_flows;"  style="&st4; &st3; &st2;">
						<p><span>?</span></p>
					</flow>
				</flowDef>
				<x:targetRef  xlink:href="#XMLID_2_" />
			</foreignObject>
			<text id="XMLID_2_" transform="matrix(1 0 0 1 53.9995 155.999)"><tspan x="0" y="0" style="&st4; &st3; &st2;">?</tspan></text>
		</switch>
		<switch i:knockout="Off" i:objectNS="&ns_flows;" i:objectType="pointText">
			<foreignObject requiredExtensions="&ns_flows;" x="0" y="0" width="1" height="1" style="overflow:visible;">
				<flowDef  xmlns="&ns_flows;">
					<region>
						<path d="M65.999,155.999"/>
					</region>
					<flow  xmlns="&ns_flows;"  style="&st4; &st3; &st2;">
						<p><span>?</span></p>
					</flow>
				</flowDef>
				<x:targetRef  xlink:href="#XMLID_3_" />
			</foreignObject>
			<text id="XMLID_3_" transform="matrix(1 0 0 1 65.999 155.999)"><tspan x="0" y="0" style="&st4; &st3; &st2;">?</tspan></text>
		</switch>
		<path i:knockout="Off" style="&st1;" d="M101.999,185.999H48v-54h54V185.999z"/>
		<switch i:knockout="Off" i:objectNS="&ns_flows;" i:objectType="pointText">
			<foreignObject requiredExtensions="&ns_flows;" x="0" y="0" width="1" height="1" style="overflow:visible;">
				<flowDef  xmlns="&ns_flows;">
					<region>
						<path d="M113.999,143.999"/>
					</region>
					<flow  xmlns="&ns_flows;"  style="&st4; &st3; &st2;">
						<p><span>?</span></p>
					</flow>
				</flowDef>
				<x:targetRef  xlink:href="#XMLID_4_" />
			</foreignObject>
			<text id="XMLID_4_" transform="matrix(1 0 0 1 113.9985 143.999)"><tspan x="0" y="0" style="&st4; &st3; &st2;">?</tspan></text>
		</switch>
		<switch i:knockout="Off" i:objectNS="&ns_flows;" i:objectType="pointText">
			<foreignObject requiredExtensions="&ns_flows;" x="0" y="0" width="1" height="1" style="overflow:visible;">
				<flowDef  xmlns="&ns_flows;">
					<region>
						<path d="M113.999,167.999"/>
					</region>
					<flow  xmlns="&ns_flows;"  style="&st4; &st3; &st2;">
						<p><span>?</span></p>
					</flow>
				</flowDef>
				<x:targetRef  xlink:href="#XMLID_5_" />
			</foreignObject>
			<text id="XMLID_5_" transform="matrix(1 0 0 1 113.9985 167.999)"><tspan x="0" y="0" style="&st4; &st3; &st2;">?</tspan></text>
		</switch>
		<switch i:knockout="Off" i:objectNS="&ns_flows;" i:objectType="pointText">
			<foreignObject requiredExtensions="&ns_flows;" x="0" y="0" width="1" height="1" style="overflow:visible;">
				<flowDef  xmlns="&ns_flows;">
					<region>
						<path d="M125.999,167.999"/>
					</region>
					<flow  xmlns="&ns_flows;"  style="&st4; &st3; &st2;">
						<p><span>?</span></p>
					</flow>
				</flowDef>
				<x:targetRef  xlink:href="#XMLID_6_" />
			</foreignObject>
			<text id="XMLID_6_" transform="matrix(1 0 0 1 125.9985 167.999)"><tspan x="0" y="0" style="&st4; &st3; &st2;">?</tspan></text>
		</switch>
		<path i:knockout="Off" style="&st1;" d="M161.999,185.999h-54v-54h54V185.999z"/>
		<switch i:knockout="Off" i:objectNS="&ns_flows;" i:objectType="pointText">
			<foreignObject requiredExtensions="&ns_flows;" x="0" y="0" width="1" height="1" style="overflow:visible;">
				<flowDef  xmlns="&ns_flows;">
					<region>
						<path d="M173.998,143.999"/>
					</region>
					<flow  xmlns="&ns_flows;"  style="&st4; &st3; &st2;">
						<p><span>?</span></p>
					</flow>
				</flowDef>
				<x:targetRef  xlink:href="#XMLID_7_" />
			</foreignObject>
			<text id="XMLID_7_" transform="matrix(1 0 0 1 173.998 143.999)"><tspan x="0" y="0" style="&st4; &st3; &st2;">?</tspan></text>
		</switch>
		<switch i:knockout="Off" i:objectNS="&ns_flows;" i:objectType="pointText">
			<foreignObject requiredExtensions="&ns_flows;" x="0" y="0" width="1" height="1" style="overflow:visible;">
				<flowDef  xmlns="&ns_flows;">
					<region>
						<path d="M173.998,179.999"/>
					</region>
					<flow  xmlns="&ns_flows;"  style="&st4; &st3; &st2;">
						<p><span>?</span></p>
					</flow>
				</flowDef>
				<x:targetRef  xlink:href="#XMLID_8_" />
			</foreignObject>
			<text id="XMLID_8_" transform="matrix(1 0 0 1 173.998 179.9985)"><tspan x="0" y="0" style="&st4; &st3; &st2;">?</tspan></text>
		</switch>
		<switch i:knockout="Off" i:objectNS="&ns_flows;" i:objectType="pointText">
			<foreignObject requiredExtensions="&ns_flows;" x="0" y="0" width="1" height="1" style="overflow:visible;">
				<flowDef  xmlns="&ns_flows;">
					<region>
						<path d="M185.998,179.999"/>
					</region>
					<flow  xmlns="&ns_flows;"  style="&st4; &st3; &st2;">
						<p><span>?</span></p>
					</flow>
				</flowDef>
				<x:targetRef  xlink:href="#XMLID_9_" />
			</foreignObject>
			<text id="XMLID_9_" transform="matrix(1 0 0 1 185.998 179.9985)"><tspan x="0" y="0" style="&st4; &st3; &st2;">?</tspan></text>
		</switch>
		<path i:knockout="Off" style="&st1;" d="M221.998,185.999h-54v-54h54V185.999z"/>
		<path i:knockout="Off" style="&st1;" d="M101.999,191.999H48v54h54V191.999z"/>
		<path i:knockout="Off" style="&st1;" d="M281.997,191.999h-54v54h54V191.999z"/>
		<path i:knockout="Off" style="&st1;" d="M461.995,191.999h-53.999v54h53.999V191.999z"/>
		<switch i:knockout="Off" i:objectNS="&ns_flows;" i:objectType="pointText">
			<foreignObject requiredExtensions="&ns_flows;" x="0" y="0" width="1" height="1" style="overflow:visible;">
				<flowDef  xmlns="&ns_flows;">
					<region>
						<path d="M54,203.999"/>
					</region>
					<flow  xmlns="&ns_flows;"  style="&st4; &st3; &st2;">
						<p><span>?</span></p>
					</flow>
				</flowDef>
				<x:targetRef  xlink:href="#XMLID_10_" />
			</foreignObject>
			<text id="XMLID_10_" transform="matrix(1 0 0 1 53.9995 203.9985)"><tspan x="0" y="0" style="&st4; &st3; &st2;">?</tspan></text>
		</switch>
		<switch i:knockout="Off" i:objectNS="&ns_flows;" i:objectType="pointText">
			<foreignObject requiredExtensions="&ns_flows;" x="0" y="0" width="1" height="1" style="overflow:visible;">
				<flowDef  xmlns="&ns_flows;">
					<region>
						<path d="M65.999,215.999"/>
					</region>
					<flow  xmlns="&ns_flows;"  style="&st4; &st3; &st2;">
						<p><span>?</span></p>
					</flow>
				</flowDef>
				<x:targetRef  xlink:href="#XMLID_11_" />
			</foreignObject>
			<text id="XMLID_11_" transform="matrix(1 0 0 1 65.999 215.9985)"><tspan x="0" y="0" style="&st4; &st3; &st2;">?</tspan></text>
		</switch>
		<switch i:knockout="Off" i:objectNS="&ns_flows;" i:objectType="pointText">
			<foreignObject requiredExtensions="&ns_flows;" x="0" y="0" width="1" height="1" style="overflow:visible;">
				<flowDef  xmlns="&ns_flows;">
					<region>
						<path d="M233.998,215.999"/>
					</region>
					<flow  xmlns="&ns_flows;"  style="&st4; &st3; &st2;">
						<p><span>?</span></p>
					</flow>
				</flowDef>
				<x:targetRef  xlink:href="#XMLID_12_" />
			</foreignObject>
			<text id="XMLID_12_" transform="matrix(1 0 0 1 233.9976 215.9985)"><tspan x="0" y="0" style="&st4; &st3; &st2;">?</tspan></text>
		</switch>
		<switch i:knockout="Off" i:objectNS="&ns_flows;" i:objectType="pointText">
			<foreignObject requiredExtensions="&ns_flows;" x="0" y="0" width="1" height="1" style="overflow:visible;">
				<flowDef  xmlns="&ns_flows;">
					<region>
						<path d="M245.998,227.999"/>
					</region>
					<flow  xmlns="&ns_flows;"  style="&st4; &st3; &st2;">
						<p><span>?</span></p>
					</flow>
				</flowDef>
				<x:targetRef  xlink:href="#XMLID_13_" />
			</foreignObject>
			<text id="XMLID_13_" transform="matrix(1 0 0 1 245.9976 227.9985)"><tspan x="0" y="0" style="&st4; &st3; &st2;">?</tspan></text>
		</switch>
		<switch i:knockout="Off" i:objectNS="&ns_flows;" i:objectType="pointText">
			<foreignObject requiredExtensions="&ns_flows;" x="0" y="0" width="1" height="1" style="overflow:visible;">
				<flowDef  xmlns="&ns_flows;">
					<region>
						<path d="M425.996,203.999"/>
					</region>
					<flow  xmlns="&ns_flows;"  style="&st4; &st3; &st2;">
						<p><span>?</span></p>
					</flow>
				</flowDef>
				<x:targetRef  xlink:href="#XMLID_14_" />
			</foreignObject>
			<text id="XMLID_14_" transform="matrix(1 0 0 1 425.9956 203.9985)"><tspan x="0" y="0" style="&st4; &st3; &st2;">?</tspan></text>
		</switch>
		<switch i:knockout="Off" i:objectNS="&ns_flows;" i:objectType="pointText">
			<foreignObject requiredExtensions="&ns_flows;" x="0" y="0" width="1" height="1" style="overflow:visible;">
				<flowDef  xmlns="&ns_flows;">
					<region>
						<path d="M413.996,227.999"/>
					</region>
					<flow  xmlns="&ns_flows;"  style="&st4; &st3; &st2;">
						<p><span>?</span></p>
					</flow>
				</flowDef>
				<x:targetRef  xlink:href="#XMLID_15_" />
			</foreignObject>
			<text id="XMLID_15_" transform="matrix(1 0 0 1 413.9956 227.9985)"><tspan x="0" y="0" style="&st4; &st3; &st2;">?</tspan></text>
		</switch>
		<switch i:knockout="Off" i:objectNS="&ns_flows;" i:objectType="pointText">
			<foreignObject requiredExtensions="&ns_flows;" x="0" y="0" width="1" height="1" style="overflow:visible;">
				<flowDef  xmlns="&ns_flows;">
					<region>
						<path d="M617.994,155.999"/>
					</region>
					<flow  xmlns="&ns_flows;"  style="&st4; &st3; &st2;">
						<p><span>?</span></p>
					</flow>
				</flowDef>
				<x:targetRef  xlink:href="#XMLID_16_" />
			</foreignObject>
			<text id="XMLID_16_" transform="matrix(1 0 0 1 617.9937 155.999)"><tspan x="0" y="0" style="&st4; &st3; &st2;">?</tspan></text>
		</switch>
		<switch i:knockout="Off" i:objectNS="&ns_flows;" i:objectType="pointText">
			<foreignObject requiredExtensions="&ns_flows;" x="0" y="0" width="1" height="1" style="overflow:visible;">
				<flowDef  xmlns="&ns_flows;">
					<region>
						<path d="M617.994,167.999"/>
					</region>
					<flow  xmlns="&ns_flows;"  style="&st4; &st3; &st2;">
						<p><span>?</span></p>
					</flow>
				</flowDef>
				<x:targetRef  xlink:href="#XMLID_17_" />
			</foreignObject>
			<text id="XMLID_17_" transform="matrix(1 0 0 1 617.9937 167.999)"><tspan x="0" y="0" style="&st4; &st3; &st2;">?</tspan></text>
		</switch>
		<switch i:knockout="Off" i:objectNS="&ns_flows;" i:objectType="pointText">
			<foreignObject requiredExtensions="&ns_flows;" x="0" y="0" width="1" height="1" style="overflow:visible;">
				<flowDef  xmlns="&ns_flows;">
					<region>
						<path d="M617.994,179.999"/>
					</region>
					<flow  xmlns="&ns_flows;"  style="&st4; &st3; &st2;">
						<p><span>?</span></p>
					</flow>
				</flowDef>
				<x:targetRef  xlink:href="#XMLID_18_" />
			</foreignObject>
			<text id="XMLID_18_" transform="matrix(1 0 0 1 617.9937 179.9985)"><tspan x="0" y="0" style="&st4; &st3; &st2;">?</tspan></text>
		</switch>
		<path i:knockout="Off" style="&st0;" d="M60,197.999h365.996"/>
		<path i:knockout="Off" style="&st0;" d="M71.999,209.999h161.999"/>
		<path i:knockout="Off" style="&st0;" d="M251.998,221.998h161.998"/>
		<path i:knockout="Off" style="&st1;" d="M161.999,251.999h-54v53.999h54V251.999z"/>
		<path i:knockout="Off" style="&st1;" d="M341.997,251.999h-54v53.999h54V251.999z"/>
		<path i:knockout="Off" style="&st1;" d="M521.995,251.999h-54v53.999h54V251.999z"/>
		<switch i:knockout="Off" i:objectNS="&ns_flows;" i:objectType="pointText">
			<foreignObject requiredExtensions="&ns_flows;" x="0" y="0" width="1" height="1" style="overflow:visible;">
				<flowDef  xmlns="&ns_flows;">
					<region>
						<path d="M113.999,263.999"/>
					</region>
					<flow  xmlns="&ns_flows;"  style="&st4; &st3; &st2;">
						<p><span>?</span></p>
					</flow>
				</flowDef>
				<x:targetRef  xlink:href="#XMLID_19_" />
			</foreignObject>
			<text id="XMLID_19_" transform="matrix(1 0 0 1 113.9985 263.9985)"><tspan x="0" y="0" style="&st4; &st3; &st2;">?</tspan></text>
		</switch>
		<switch i:knockout="Off" i:objectNS="&ns_flows;" i:objectType="pointText">
			<foreignObject requiredExtensions="&ns_flows;" x="0" y="0" width="1" height="1" style="overflow:visible;">
				<flowDef  xmlns="&ns_flows;">
					<region>
						<path d="M125.999,275.998"/>
					</region>
					<flow  xmlns="&ns_flows;"  style="&st4; &st3; &st2;">
						<p><span>?</span></p>
					</flow>
				</flowDef>
				<x:targetRef  xlink:href="#XMLID_20_" />
			</foreignObject>
			<text id="XMLID_20_" transform="matrix(1 0 0 1 125.9985 275.9976)"><tspan x="0" y="0" style="&st4; &st3; &st2;">?</tspan></text>
		</switch>
		<switch i:knockout="Off" i:objectNS="&ns_flows;" i:objectType="pointText">
			<foreignObject requiredExtensions="&ns_flows;" x="0" y="0" width="1" height="1" style="overflow:visible;">
				<flowDef  xmlns="&ns_flows;">
					<region>
						<path d="M293.997,275.998"/>
					</region>
					<flow  xmlns="&ns_flows;"  style="&st4; &st3; &st2;">
						<p><span>?</span></p>
					</flow>
				</flowDef>
				<x:targetRef  xlink:href="#XMLID_21_" />
			</foreignObject>
			<text id="XMLID_21_" transform="matrix(1 0 0 1 293.9966 275.9976)"><tspan x="0" y="0" style="&st4; &st3; &st2;">?</tspan></text>
		</switch>
		<switch i:knockout="Off" i:objectNS="&ns_flows;" i:objectType="pointText">
			<foreignObject requiredExtensions="&ns_flows;" x="0" y="0" width="1" height="1" style="overflow:visible;">
				<flowDef  xmlns="&ns_flows;">
					<region>
						<path d="M305.997,287.998"/>
					</region>
					<flow  xmlns="&ns_flows;"  style="&st4; &st3; &st2;">
						<p><span>?</span></p>
					</flow>
				</flowDef>
				<x:targetRef  xlink:href="#XMLID_22_" />
			</foreignObject>
			<text id="XMLID_22_" transform="matrix(1 0 0 1 305.9966 287.9976)"><tspan x="0" y="0" style="&st4; &st3; &st2;">?</tspan></text>
		</switch>
		<switch i:knockout="Off" i:objectNS="&ns_flows;" i:objectType="pointText">
			<foreignObject requiredExtensions="&ns_flows;" x="0" y="0" width="1" height="1" style="overflow:visible;">
				<flowDef  xmlns="&ns_flows;">
					<region>
						<path d="M485.995,263.999"/>
					</region>
					<flow  xmlns="&ns_flows;"  style="&st4; &st3; &st2;">
						<p><span>?</span></p>
					</flow>
				</flowDef>
				<x:targetRef  xlink:href="#XMLID_23_" />
			</foreignObject>
			<text id="XMLID_23_" transform="matrix(1 0 0 1 485.9946 263.9985)"><tspan x="0" y="0" style="&st4; &st3; &st2;">?</tspan></text>
		</switch>
		<switch i:knockout="Off" i:objectNS="&ns_flows;" i:objectType="pointText">
			<foreignObject requiredExtensions="&ns_flows;" x="0" y="0" width="1" height="1" style="overflow:visible;">
				<flowDef  xmlns="&ns_flows;">
					<region>
						<path d="M473.995,287.998"/>
					</region>
					<flow  xmlns="&ns_flows;"  style="&st4; &st3; &st2;">
						<p><span>?</span></p>
					</flow>
				</flowDef>
				<x:targetRef  xlink:href="#XMLID_24_" />
			</foreignObject>
			<text id="XMLID_24_" transform="matrix(1 0 0 1 473.9946 287.9976)"><tspan x="0" y="0" style="&st4; &st3; &st2;">?</tspan></text>
		</switch>
		<path i:knockout="Off" style="&st0;" d="M119.999,257.999h365.996"/>
		<path i:knockout="Off" style="&st0;" d="M131.999,269.998h161.998"/>
		<path i:knockout="Off" style="&st0;" d="M311.997,281.998h161.998"/>
		<path i:knockout="Off" style="&st1;" d="M221.998,311.998h-54v53.999h54V311.998z"/>
		<path i:knockout="Off" style="&st1;" d="M401.997,311.998h-54v53.999h54V311.998z"/>
		<path i:knockout="Off" style="&st1;" d="M581.995,311.998h-54v53.999h54V311.998z"/>
		<path i:knockout="Off" style="&st1;" d="M641.994,131.999h-53.999v54h53.999V131.999z"/>
		<switch i:knockout="Off" i:objectNS="&ns_flows;" i:objectType="pointText">
			<foreignObject requiredExtensions="&ns_flows;" x="0" y="0" width="1" height="1" style="overflow:visible;">
				<flowDef  xmlns="&ns_flows;">
					<region>
						<path d="M173.998,323.997"/>
					</region>
					<flow  xmlns="&ns_flows;"  style="&st4; &st3; &st2;">
						<p><span>?</span></p>
					</flow>
				</flowDef>
				<x:targetRef  xlink:href="#XMLID_25_" />
			</foreignObject>
			<text id="XMLID_25_" transform="matrix(1 0 0 1 173.998 323.9966)"><tspan x="0" y="0" style="&st4; &st3; &st2;">?</tspan></text>
		</switch>
		<switch i:knockout="Off" i:objectNS="&ns_flows;" i:objectType="pointText">
			<foreignObject requiredExtensions="&ns_flows;" x="0" y="0" width="1" height="1" style="overflow:visible;">
				<flowDef  xmlns="&ns_flows;">
					<region>
						<path d="M185.998,335.997"/>
					</region>
					<flow  xmlns="&ns_flows;"  style="&st4; &st3; &st2;">
						<p><span>?</span></p>
					</flow>
				</flowDef>
				<x:targetRef  xlink:href="#XMLID_26_" />
			</foreignObject>
			<text id="XMLID_26_" transform="matrix(1 0 0 1 185.998 335.9966)"><tspan x="0" y="0" style="&st4; &st3; &st2;">?</tspan></text>
		</switch>
		<switch i:knockout="Off" i:objectNS="&ns_flows;" i:objectType="pointText">
			<foreignObject requiredExtensions="&ns_flows;" x="0" y="0" width="1" height="1" style="overflow:visible;">
				<flowDef  xmlns="&ns_flows;">
					<region>
						<path d="M353.997,335.997"/>
					</region>
					<flow  xmlns="&ns_flows;"  style="&st4; &st3; &st2;">
						<p><span>?</span></p>
					</flow>
				</flowDef>
				<x:targetRef  xlink:href="#XMLID_27_" />
			</foreignObject>
			<text id="XMLID_27_" transform="matrix(1 0 0 1 353.9966 335.9966)"><tspan x="0" y="0" style="&st4; &st3; &st2;">?</tspan></text>
		</switch>
		<switch i:knockout="Off" i:objectNS="&ns_flows;" i:objectType="pointText">
			<foreignObject requiredExtensions="&ns_flows;" x="0" y="0" width="1" height="1" style="overflow:visible;">
				<flowDef  xmlns="&ns_flows;">
					<region>
						<path d="M365.997,347.997"/>
					</region>
					<flow  xmlns="&ns_flows;"  style="&st4; &st3; &st2;">
						<p><span>?</span></p>
					</flow>
				</flowDef>
				<x:targetRef  xlink:href="#XMLID_28_" />
			</foreignObject>
			<text id="XMLID_28_" transform="matrix(1 0 0 1 365.9966 347.9966)"><tspan x="0" y="0" style="&st4; &st3; &st2;">?</tspan></text>
		</switch>
		<switch i:knockout="Off" i:objectNS="&ns_flows;" i:objectType="pointText">
			<foreignObject requiredExtensions="&ns_flows;" x="0" y="0" width="1" height="1" style="overflow:visible;">
				<flowDef  xmlns="&ns_flows;">
					<region>
						<path d="M545.995,323.997"/>
					</region>
					<flow  xmlns="&ns_flows;"  style="&st4; &st3; &st2;">
						<p><span>?</span></p>
					</flow>
				</flowDef>
				<x:targetRef  xlink:href="#XMLID_29_" />
			</foreignObject>
			<text id="XMLID_29_" transform="matrix(1 0 0 1 545.9946 323.9966)"><tspan x="0" y="0" style="&st4; &st3; &st2;">?</tspan></text>
		</switch>
		<switch i:knockout="Off" i:objectNS="&ns_flows;" i:objectType="pointText">
			<foreignObject requiredExtensions="&ns_flows;" x="0" y="0" width="1" height="1" style="overflow:visible;">
				<flowDef  xmlns="&ns_flows;">
					<region>
						<path d="M533.995,347.997"/>
					</region>
					<flow  xmlns="&ns_flows;"  style="&st4; &st3; &st2;">
						<p><span>?</span></p>
					</flow>
				</flowDef>
				<x:targetRef  xlink:href="#XMLID_30_" />
			</foreignObject>
			<text id="XMLID_30_" transform="matrix(1 0 0 1 533.9946 347.9966)"><tspan x="0" y="0" style="&st4; &st3; &st2;">?</tspan></text>
		</switch>
		<path i:knockout="Off" style="&st0;" d="M179.998,317.997h365.997"/>
		<path i:knockout="Off" style="&st0;" d="M191.998,329.997h161.999"/>
		<path i:knockout="Off" style="&st0;" d="M371.997,341.997h161.998"/>
		<path i:knockout="Off" style="&st0;" d="M62.666,138.666l51.333-0.667"/>
		<path i:knockout="Off" style="&st0;" d="M119.999,137.999h54"/>
		<path i:knockout="Off" style="&st0;" d="M71.999,149.999h545.995"/>
		<path i:knockout="Off" style="&st0;" d="M131.999,161.999h485.995"/>
		<path i:knockout="Off" style="&st0;" d="M191.998,173.999h425.996"/>
		<switch i:knockout="Off" i:objectNS="&ns_flows;" i:objectType="pointText">
			<foreignObject requiredExtensions="&ns_flows;" x="0" y="0" width="1" height="1" style="overflow:visible;">
				<flowDef  xmlns="&ns_flows;">
					<region>
						<path d="M233.998,84"/>
					</region>
					<flow  xmlns="&ns_flows;"  style="&st4; &st3; &st2;">
						<p><span>?</span></p>
					</flow>
				</flowDef>
				<x:targetRef  xlink:href="#XMLID_31_" />
			</foreignObject>
			<text id="XMLID_31_" transform="matrix(1 0 0 1 233.9976 83.9995)"><tspan x="0" y="0" style="&st4; &st3; &st2;">?</tspan></text>
		</switch>
		<switch i:knockout="Off" i:objectNS="&ns_flows;" i:objectType="pointText">
			<foreignObject requiredExtensions="&ns_flows;" x="0" y="0" width="1" height="1" style="overflow:visible;">
				<flowDef  xmlns="&ns_flows;">
					<region>
						<path d="M233.998,96"/>
					</region>
					<flow  xmlns="&ns_flows;"  style="&st4; &st3; &st2;">
						<p><span>?</span></p>
					</flow>
				</flowDef>
				<x:targetRef  xlink:href="#XMLID_32_" />
			</foreignObject>
			<text id="XMLID_32_" transform="matrix(1 0 0 1 233.9976 95.9995)"><tspan x="0" y="0" style="&st4; &st3; &st2;">?</tspan></text>
		</switch>
		<switch i:knockout="Off" i:objectNS="&ns_flows;" i:objectType="pointText">
			<foreignObject requiredExtensions="&ns_flows;" x="0" y="0" width="1" height="1" style="overflow:visible;">
				<flowDef  xmlns="&ns_flows;">
					<region>
						<path d="M245.998,96"/>
					</region>
					<flow  xmlns="&ns_flows;"  style="&st4; &st3; &st2;">
						<p><span>?</span></p>
					</flow>
				</flowDef>
				<x:targetRef  xlink:href="#XMLID_33_" />
			</foreignObject>
			<text id="XMLID_33_" transform="matrix(1 0 0 1 245.9976 95.9995)"><tspan x="0" y="0" style="&st4; &st3; &st2;">?</tspan></text>
		</switch>
		<path i:knockout="Off" style="&st1;" d="M281.997,125.999h-54V72h54V125.999z"/>
		<switch i:knockout="Off" i:objectNS="&ns_flows;" i:objectType="pointText">
			<foreignObject requiredExtensions="&ns_flows;" x="0" y="0" width="1" height="1" style="overflow:visible;">
				<flowDef  xmlns="&ns_flows;">
					<region>
						<path d="M305.997,84"/>
					</region>
					<flow  xmlns="&ns_flows;"  style="&st4; &st3; &st2;">
						<p><span>?</span></p>
					</flow>
				</flowDef>
				<x:targetRef  xlink:href="#XMLID_34_" />
			</foreignObject>
			<text id="XMLID_34_" transform="matrix(1 0 0 1 305.9966 83.9995)"><tspan x="0" y="0" style="&st4; &st3; &st2;">?</tspan></text>
		</switch>
		<switch i:knockout="Off" i:objectNS="&ns_flows;" i:objectType="pointText">
			<foreignObject requiredExtensions="&ns_flows;" x="0" y="0" width="1" height="1" style="overflow:visible;">
				<flowDef  xmlns="&ns_flows;">
					<region>
						<path d="M293.997,108"/>
					</region>
					<flow  xmlns="&ns_flows;"  style="&st4; &st3; &st2;">
						<p><span>?</span></p>
					</flow>
				</flowDef>
				<x:targetRef  xlink:href="#XMLID_35_" />
			</foreignObject>
			<text id="XMLID_35_" transform="matrix(1 0 0 1 293.9966 107.9995)"><tspan x="0" y="0" style="&st4; &st3; &st2;">?</tspan></text>
		</switch>
		<switch i:knockout="Off" i:objectNS="&ns_flows;" i:objectType="pointText">
			<foreignObject requiredExtensions="&ns_flows;" x="0" y="0" width="1" height="1" style="overflow:visible;">
				<flowDef  xmlns="&ns_flows;">
					<region>
						<path d="M305.997,108"/>
					</region>
					<flow  xmlns="&ns_flows;"  style="&st4; &st3; &st2;">
						<p><span>?</span></p>
					</flow>
				</flowDef>
				<x:targetRef  xlink:href="#XMLID_36_" />
			</foreignObject>
			<text id="XMLID_36_" transform="matrix(1 0 0 1 305.9966 107.9995)"><tspan x="0" y="0" style="&st4; &st3; &st2;">?</tspan></text>
		</switch>
		<path i:knockout="Off" style="&st1;" d="M341.997,125.999h-54V72h54V125.999z"/>
		<switch i:knockout="Off" i:objectNS="&ns_flows;" i:objectType="pointText">
			<foreignObject requiredExtensions="&ns_flows;" x="0" y="0" width="1" height="1" style="overflow:visible;">
				<flowDef  xmlns="&ns_flows;">
					<region>
						<path d="M365.997,84"/>
					</region>
					<flow  xmlns="&ns_flows;"  style="&st4; &st3; &st2;">
						<p><span>?</span></p>
					</flow>
				</flowDef>
				<x:targetRef  xlink:href="#XMLID_37_" />
			</foreignObject>
			<text id="XMLID_37_" transform="matrix(1 0 0 1 365.9966 83.9995)"><tspan x="0" y="0" style="&st4; &st3; &st2;">?</tspan></text>
		</switch>
		<switch i:knockout="Off" i:objectNS="&ns_flows;" i:objectType="pointText">
			<foreignObject requiredExtensions="&ns_flows;" x="0" y="0" width="1" height="1" style="overflow:visible;">
				<flowDef  xmlns="&ns_flows;">
					<region>
						<path d="M353.997,120"/>
					</region>
					<flow  xmlns="&ns_flows;"  style="&st4; &st3; &st2;">
						<p><span>?</span></p>
					</flow>
				</flowDef>
				<x:targetRef  xlink:href="#XMLID_38_" />
			</foreignObject>
			<text id="XMLID_38_" transform="matrix(1 0 0 1 353.9966 119.9995)"><tspan x="0" y="0" style="&st4; &st3; &st2;">?</tspan></text>
		</switch>
		<switch i:knockout="Off" i:objectNS="&ns_flows;" i:objectType="pointText">
			<foreignObject requiredExtensions="&ns_flows;" x="0" y="0" width="1" height="1" style="overflow:visible;">
				<flowDef  xmlns="&ns_flows;">
					<region>
						<path d="M365.997,120"/>
					</region>
					<flow  xmlns="&ns_flows;"  style="&st4; &st3; &st2;">
						<p><span>?</span></p>
					</flow>
				</flowDef>
				<x:targetRef  xlink:href="#XMLID_39_" />
			</foreignObject>
			<text id="XMLID_39_" transform="matrix(1 0 0 1 365.9966 119.9995)"><tspan x="0" y="0" style="&st4; &st3; &st2;">?</tspan></text>
		</switch>
		<path i:knockout="Off" style="&st1;" d="M401.997,125.999h-54V72h54V125.999z"/>
		<switch i:knockout="Off" i:objectNS="&ns_flows;" i:objectType="pointText">
			<foreignObject requiredExtensions="&ns_flows;" x="0" y="0" width="1" height="1" style="overflow:visible;">
				<flowDef  xmlns="&ns_flows;">
					<region>
						<path d="M605.994,96"/>
					</region>
					<flow  xmlns="&ns_flows;"  style="&st4; &st3; &st2;">
						<p><span>?</span></p>
					</flow>
				</flowDef>
				<x:targetRef  xlink:href="#XMLID_40_" />
			</foreignObject>
			<text id="XMLID_40_" transform="matrix(1 0 0 1 605.9937 95.9995)"><tspan x="0" y="0" style="&st4; &st3; &st2;">?</tspan></text>
		</switch>
		<switch i:knockout="Off" i:objectNS="&ns_flows;" i:objectType="pointText">
			<foreignObject requiredExtensions="&ns_flows;" x="0" y="0" width="1" height="1" style="overflow:visible;">
				<flowDef  xmlns="&ns_flows;">
					<region>
						<path d="M605.994,108"/>
					</region>
					<flow  xmlns="&ns_flows;"  style="&st4; &st3; &st2;">
						<p><span>?</span></p>
					</flow>
				</flowDef>
				<x:targetRef  xlink:href="#XMLID_41_" />
			</foreignObject>
			<text id="XMLID_41_" transform="matrix(1 0 0 1 605.9937 107.9995)"><tspan x="0" y="0" style="&st4; &st3; &st2;">?</tspan></text>
		</switch>
		<switch i:knockout="Off" i:objectNS="&ns_flows;" i:objectType="pointText">
			<foreignObject requiredExtensions="&ns_flows;" x="0" y="0" width="1" height="1" style="overflow:visible;">
				<flowDef  xmlns="&ns_flows;">
					<region>
						<path d="M605.994,120"/>
					</region>
					<flow  xmlns="&ns_flows;"  style="&st4; &st3; &st2;">
						<p><span>?</span></p>
					</flow>
				</flowDef>
				<x:targetRef  xlink:href="#XMLID_42_" />
			</foreignObject>
			<text id="XMLID_42_" transform="matrix(1 0 0 1 605.9937 119.9995)"><tspan x="0" y="0" style="&st4; &st3; &st2;">?</tspan></text>
		</switch>
		<path i:knockout="Off" style="&st1;" d="M641.994,72h-53.999v53.999h53.999V72z"/>
		<path i:knockout="Off" style="&st0;" d="M242.664,78.667L305.997,78"/>
		<path i:knockout="Off" style="&st0;" d="M311.997,78h54"/>
		<path i:knockout="Off" style="&st0;" d="M251.998,90h353.996"/>
		<path i:knockout="Off" style="&st0;" d="M311.997,102h293.997"/>
		<path i:knockout="Off" style="&st0;" d="M371.997,114h233.997"/>
		<switch i:knockout="Off" i:objectNS="&ns_flows;" i:objectType="pointText">
			<foreignObject requiredExtensions="&ns_flows;" x="0" y="0" width="1" height="1" style="overflow:visible;">
				<flowDef  xmlns="&ns_flows;">
					<region>
						<path d="M425.996,24"/>
					</region>
					<flow  xmlns="&ns_flows;"  style="&st4; &st3; &st2;">
						<p><span>?</span></p>
					</flow>
				</flowDef>
				<x:targetRef  xlink:href="#XMLID_43_" />
			</foreignObject>
			<text id="XMLID_43_" transform="matrix(1 0 0 1 425.9956 24)"><tspan x="0" y="0" style="&st4; &st3; &st2;">?</tspan></text>
		</switch>
		<switch i:knockout="Off" i:objectNS="&ns_flows;" i:objectType="pointText">
			<foreignObject requiredExtensions="&ns_flows;" x="0" y="0" width="1" height="1" style="overflow:visible;">
				<flowDef  xmlns="&ns_flows;">
					<region>
						<path d="M413.996,36"/>
					</region>
					<flow  xmlns="&ns_flows;"  style="&st4; &st3; &st2;">
						<p><span>?</span></p>
					</flow>
				</flowDef>
				<x:targetRef  xlink:href="#XMLID_44_" />
			</foreignObject>
			<text id="XMLID_44_" transform="matrix(1 0 0 1 413.9956 36)"><tspan x="0" y="0" style="&st4; &st3; &st2;">?</tspan></text>
		</switch>
		<switch i:knockout="Off" i:objectNS="&ns_flows;" i:objectType="pointText">
			<foreignObject requiredExtensions="&ns_flows;" x="0" y="0" width="1" height="1" style="overflow:visible;">
				<flowDef  xmlns="&ns_flows;">
					<region>
						<path d="M425.996,36"/>
					</region>
					<flow  xmlns="&ns_flows;"  style="&st4; &st3; &st2;">
						<p><span>?</span></p>
					</flow>
				</flowDef>
				<x:targetRef  xlink:href="#XMLID_45_" />
			</foreignObject>
			<text id="XMLID_45_" transform="matrix(1 0 0 1 425.9956 36)"><tspan x="0" y="0" style="&st4; &st3; &st2;">?</tspan></text>
		</switch>
		<path i:knockout="Off" style="&st1;" d="M461.995,66h-53.999V12h53.999V66z"/>
		<switch i:knockout="Off" i:objectNS="&ns_flows;" i:objectType="pointText">
			<foreignObject requiredExtensions="&ns_flows;" x="0" y="0" width="1" height="1" style="overflow:visible;">
				<flowDef  xmlns="&ns_flows;">
					<region>
						<path d="M485.995,24"/>
					</region>
					<flow  xmlns="&ns_flows;"  style="&st4; &st3; &st2;">
						<p><span>?</span></p>
					</flow>
				</flowDef>
				<x:targetRef  xlink:href="#XMLID_46_" />
			</foreignObject>
			<text id="XMLID_46_" transform="matrix(1 0 0 1 485.9946 24)"><tspan x="0" y="0" style="&st4; &st3; &st2;">?</tspan></text>
		</switch>
		<switch i:knockout="Off" i:objectNS="&ns_flows;" i:objectType="pointText">
			<foreignObject requiredExtensions="&ns_flows;" x="0" y="0" width="1" height="1" style="overflow:visible;">
				<flowDef  xmlns="&ns_flows;">
					<region>
						<path d="M473.995,48"/>
					</region>
					<flow  xmlns="&ns_flows;"  style="&st4; &st3; &st2;">
						<p><span>?</span></p>
					</flow>
				</flowDef>
				<x:targetRef  xlink:href="#XMLID_47_" />
			</foreignObject>
			<text id="XMLID_47_" transform="matrix(1 0 0 1 473.9946 48)"><tspan x="0" y="0" style="&st4; &st3; &st2;">?</tspan></text>
		</switch>
		<switch i:knockout="Off" i:objectNS="&ns_flows;" i:objectType="pointText">
			<foreignObject requiredExtensions="&ns_flows;" x="0" y="0" width="1" height="1" style="overflow:visible;">
				<flowDef  xmlns="&ns_flows;">
					<region>
						<path d="M485.995,48"/>
					</region>
					<flow  xmlns="&ns_flows;"  style="&st4; &st3; &st2;">
						<p><span>?</span></p>
					</flow>
				</flowDef>
				<x:targetRef  xlink:href="#XMLID_48_" />
			</foreignObject>
			<text id="XMLID_48_" transform="matrix(1 0 0 1 485.9946 48)"><tspan x="0" y="0" style="&st4; &st3; &st2;">?</tspan></text>
		</switch>
		<path i:knockout="Off" style="&st1;" d="M521.995,66h-54V12h54V66z"/>
		<switch i:knockout="Off" i:objectNS="&ns_flows;" i:objectType="pointText">
			<foreignObject requiredExtensions="&ns_flows;" x="0" y="0" width="1" height="1" style="overflow:visible;">
				<flowDef  xmlns="&ns_flows;">
					<region>
						<path d="M533.995,24"/>
					</region>
					<flow  xmlns="&ns_flows;"  style="&st4; &st3; &st2;">
						<p><span>?</span></p>
					</flow>
				</flowDef>
				<x:targetRef  xlink:href="#XMLID_49_" />
			</foreignObject>
			<text id="XMLID_49_" transform="matrix(1 0 0 1 533.9946 24)"><tspan x="0" y="0" style="&st4; &st3; &st2;">?</tspan></text>
		</switch>
		<switch i:knockout="Off" i:objectNS="&ns_flows;" i:objectType="pointText">
			<foreignObject requiredExtensions="&ns_flows;" x="0" y="0" width="1" height="1" style="overflow:visible;">
				<flowDef  xmlns="&ns_flows;">
					<region>
						<path d="M533.995,60"/>
					</region>
					<flow  xmlns="&ns_flows;"  style="&st4; &st3; &st2;">
						<p><span>?</span></p>
					</flow>
				</flowDef>
				<x:targetRef  xlink:href="#XMLID_50_" />
			</foreignObject>
			<text id="XMLID_50_" transform="matrix(1 0 0 1 533.9946 60)"><tspan x="0" y="0" style="&st4; &st3; &st2;">?</tspan></text>
		</switch>
		<switch i:knockout="Off" i:objectNS="&ns_flows;" i:objectType="pointText">
			<foreignObject requiredExtensions="&ns_flows;" x="0" y="0" width="1" height="1" style="overflow:visible;">
				<flowDef  xmlns="&ns_flows;">
					<region>
						<path d="M545.995,60"/>
					</region>
					<flow  xmlns="&ns_flows;"  style="&st4; &st3; &st2;">
						<p><span>?</span></p>
					</flow>
				</flowDef>
				<x:targetRef  xlink:href="#XMLID_51_" />
			</foreignObject>
			<text id="XMLID_51_" transform="matrix(1 0 0 1 545.9946 60)"><tspan x="0" y="0" style="&st4; &st3; &st2;">?</tspan></text>
		</switch>
		<path i:knockout="Off" style="&st1;" d="M581.995,66h-54V12h54V66z"/>
		<switch i:knockout="Off" i:objectNS="&ns_flows;" i:objectType="pointText">
			<foreignObject requiredExtensions="&ns_flows;" x="0" y="0" width="1" height="1" style="overflow:visible;">
				<flowDef  xmlns="&ns_flows;">
					<region>
						<path d="M593.995,36"/>
					</region>
					<flow  xmlns="&ns_flows;"  style="&st4; &st3; &st2;">
						<p><span>?</span></p>
					</flow>
				</flowDef>
				<x:targetRef  xlink:href="#XMLID_52_" />
			</foreignObject>
			<text id="XMLID_52_" transform="matrix(1 0 0 1 593.9946 36)"><tspan x="0" y="0" style="&st4; &st3; &st2;">?</tspan></text>
		</switch>
		<switch i:knockout="Off" i:objectNS="&ns_flows;" i:objectType="pointText">
			<foreignObject requiredExtensions="&ns_flows;" x="0" y="0" width="1" height="1" style="overflow:visible;">
				<flowDef  xmlns="&ns_flows;">
					<region>
						<path d="M593.995,48"/>
					</region>
					<flow  xmlns="&ns_flows;"  style="&st4; &st3; &st2;">
						<p><span>?</span></p>
					</flow>
				</flowDef>
				<x:targetRef  xlink:href="#XMLID_53_" />
			</foreignObject>
			<text id="XMLID_53_" transform="matrix(1 0 0 1 593.9946 48)"><tspan x="0" y="0" style="&st4; &st3; &st2;">?</tspan></text>
		</switch>
		<switch i:knockout="Off" i:objectNS="&ns_flows;" i:objectType="pointText">
			<foreignObject requiredExtensions="&ns_flows;" x="0" y="0" width="1" height="1" style="overflow:visible;">
				<flowDef  xmlns="&ns_flows;">
					<region>
						<path d="M593.995,60"/>
					</region>
					<flow  xmlns="&ns_flows;"  style="&st4; &st3; &st2;">
						<p><span>?</span></p>
					</flow>
				</flowDef>
				<x:targetRef  xlink:href="#XMLID_54_" />
			</foreignObject>
			<text id="XMLID_54_" transform="matrix(1 0 0 1 593.9946 60)"><tspan x="0" y="0" style="&st4; &st3; &st2;">?</tspan></text>
		</switch>
		<path i:knockout="Off" style="&st1;" d="M641.994,12h-53.999v54h53.999V12z"/>
		<path i:knockout="Off" style="&st0;" d="M434.663,18.667L485.995,18"/>
		<path i:knockout="Off" style="&st0;" d="M491.995,18h42"/>
		<path i:knockout="Off" style="&st0;" d="M431.996,30h161.999"/>
		<path i:knockout="Off" style="&st0;" d="M491.995,42h102"/>
		<path i:knockout="Off" style="&st0;" d="M551.995,54h42"/>
		<path i:knockout="Off" style="&st0;" d="M56.666,157.999v36"/>
		<path i:knockout="Off" style="&st0;" d="M116.666,145.999v12"/>
		<path i:knockout="Off" style="&st0;" d="M116.666,169.999v84"/>
		<path i:knockout="Off" style="&st0;" d="M176.665,145.999v24"/>
		<path i:knockout="Off" style="&st0;" d="M176.665,181.999v131.999"/>
		<path i:knockout="Off" style="&st0;" d="M188.665,181.999v143.998"/>
		<path i:knockout="Off" style="&st0;" d="M128.666,169.999v96"/>
		<path i:knockout="Off" style="&st0;" d="M68.666,157.999v48"/>
		<path i:knockout="Off" style="&st0;" d="M236.664,98v107.999"/>
		<path i:knockout="Off" style="&st0;" d="M248.664,98v119.999"/>
		<path i:knockout="Off" style="&st0;" d="M296.664,110v155.999"/>
		<path i:knockout="Off" style="&st0;" d="M308.664,110v167.998"/>
		<path i:knockout="Off" style="&st0;" d="M308.664,86v12"/>
		<path i:knockout="Off" style="&st0;" d="M356.663,121.999v203.998"/>
		<path i:knockout="Off" style="&st0;" d="M368.663,86v24"/>
		<path i:knockout="Off" style="&st0;" d="M368.663,121.999v215.998"/>
		<path i:knockout="Off" style="&st0;" d="M416.663,38v179.999"/>
		<path i:knockout="Off" style="&st0;" d="M428.663,38v155.999"/>
		<path i:knockout="Off" style="&st0;" d="M476.662,50v227.998"/>
		<path i:knockout="Off" style="&st0;" d="M488.662,50v203.999"/>
		<path i:knockout="Off" style="&st0;" d="M488.662,26v12"/>
		<path i:knockout="Off" style="&st0;" d="M536.661,26v24"/>
		<path i:knockout="Off" style="&st0;" d="M536.661,62v275.997"/>
		<path i:knockout="Off" style="&st0;" d="M548.661,62v251.998"/>
		<switch i:knockout="Off" i:objectNS="&ns_flows;" i:objectType="pointText">
			<foreignObject requiredExtensions="&ns_flows;" x="0" y="0" width="1" height="1" style="overflow:visible;">
				<flowDef  xmlns="&ns_flows;">
					<region>
						<path d="M18,221.998"/>
					</region>
					<flow  xmlns="&ns_flows;"  style="&st5; &st6;">
						<p><span>x</span><span>:</span></p>
					</flow>
				</flowDef>
				<x:targetRef  xlink:href="#XMLID_55_" />
			</foreignObject>
			<text id="XMLID_55_" transform="matrix(1 0 0 1 17.9995 221.998)"><tspan x="0" y="0" style="&st5; &st6;">x</tspan><tspan x="10.652" y="0" style="&st5; &st6;">:</tspan></text>
		</switch>
		<switch i:knockout="Off" i:objectNS="&ns_flows;" i:objectType="pointText">
			<foreignObject requiredExtensions="&ns_flows;" x="0" y="0" width="1" height="1" style="overflow:visible;">
				<flowDef  xmlns="&ns_flows;">
					<region>
						<path d="M18,281.998"/>
					</region>
					<flow  xmlns="&ns_flows;"  style="&st5; &st6;">
						<p><span>y:</span></p>
					</flow>
				</flowDef>
				<x:targetRef  xlink:href="#XMLID_56_" />
			</foreignObject>
			<text id="XMLID_56_" transform="matrix(1 0 0 1 17.9995 281.9976)"><tspan x="0" y="0" style="&st5; &st6;">y:</tspan></text>
		</switch>
		<switch i:knockout="Off" i:objectNS="&ns_flows;" i:objectType="pointText">
			<foreignObject requiredExtensions="&ns_flows;" x="0" y="0" width="1" height="1" style="overflow:visible;">
				<flowDef  xmlns="&ns_flows;">
					<region>
						<path d="M18,341.997"/>
					</region>
					<flow  xmlns="&ns_flows;"  style="&st5; &st6;">
						<p><span>z:</span></p>
					</flow>
				</flowDef>
				<x:targetRef  xlink:href="#XMLID_57_" />
			</foreignObject>
			<text id="XMLID_57_" transform="matrix(1 0 0 1 17.9995 341.9966)"><tspan x="0" y="0" style="&st5; &st6;">z:</tspan></text>
		</switch>
		<switch i:knockout="Off" i:objectNS="&ns_flows;" i:objectType="pointText">
			<foreignObject requiredExtensions="&ns_flows;" x="0" y="0" width="1" height="1" style="overflow:visible;">
				<flowDef  xmlns="&ns_flows;">
					<region>
						<path d="M0,167.999"/>
					</region>
					<flow  xmlns="&ns_flows;"  style="&st5; &st6;">
						<p><span>xyz:</span></p>
					</flow>
				</flowDef>
				<x:targetRef  xlink:href="#XMLID_58_" />
			</foreignObject>
			<text id="XMLID_58_" transform="matrix(1 0 0 1 0 167.999)"><tspan x="0" y="0" style="&st5; &st6;">xyz:</tspan></text>
		</switch>
		<switch i:knockout="Off" i:objectNS="&ns_flows;" i:objectType="pointText">
			<foreignObject requiredExtensions="&ns_flows;" x="0" y="0" width="1" height="1" style="overflow:visible;">
				<flowDef  xmlns="&ns_flows;">
					<region>
						<path d="M0,102"/>
					</region>
					<flow  xmlns="&ns_flows;"  style="&st5; &st6;">
						<p><span>xyz:</span></p>
					</flow>
				</flowDef>
				<x:targetRef  xlink:href="#XMLID_59_" />
			</foreignObject>
			<text id="XMLID_59_" transform="matrix(1 0 0 1 0 101.9995)"><tspan x="0" y="0" style="&st5; &st6;">xyz:</tspan></text>
		</switch>
		<switch i:knockout="Off" i:objectNS="&ns_flows;" i:objectType="pointText">
			<foreignObject requiredExtensions="&ns_flows;" x="0" y="0" width="1" height="1" style="overflow:visible;">
				<flowDef  xmlns="&ns_flows;">
					<region>
						<path d="M0,42"/>
					</region>
					<flow  xmlns="&ns_flows;"  style="&st5; &st6;">
						<p><span>xyz:</span></p>
					</flow>
				</flowDef>
				<x:targetRef  xlink:href="#XMLID_60_" />
			</foreignObject>
			<text id="XMLID_60_" transform="matrix(1 0 0 1 0 42)"><tspan x="0" y="0" style="&st5; &st6;">xyz:</tspan></text>
		</switch>
		<switch i:knockout="Off" i:objectNS="&ns_flows;" i:objectType="pointText">
			<foreignObject requiredExtensions="&ns_flows;" x="0" y="0" width="1" height="1" style="overflow:visible;">
				<flowDef  xmlns="&ns_flows;">
					<region>
						<path d="M12,84"/>
					</region>
					<flow  xmlns="&ns_flows;"  style="&st5; &st6;">
						<p><span>__</span></p>
					</flow>
				</flowDef>
				<x:targetRef  xlink:href="#XMLID_61_" />
			</foreignObject>
			<text id="XMLID_61_" transform="matrix(1 0 0 1 12 83.9995)"><tspan x="0" y="0" style="&st5; &st6;">__</tspan></text>
		</switch>
		<switch i:knockout="Off" i:objectNS="&ns_flows;" i:objectType="pointText">
			<foreignObject requiredExtensions="&ns_flows;" x="0" y="0" width="1" height="1" style="overflow:visible;">
				<flowDef  xmlns="&ns_flows;">
					<region>
						<path d="M0,24"/>
					</region>
					<flow  xmlns="&ns_flows;"  style="&st5; &st6;">
						<p><span>__</span></p>
					</flow>
				</flowDef>
				<x:targetRef  xlink:href="#XMLID_62_" />
			</foreignObject>
			<text id="XMLID_62_" transform="matrix(1 0 0 1 0 24)"><tspan x="0" y="0" style="&st5; &st6;">__</tspan></text>
		</switch>
	</g>
</svg>
