<?xml version="1.0"?>
<!DOCTYPE svg PUBLIC "-//W3C//DTD SVG 1.1//EN" 
  "http://www.w3.org/Graphics/SVG/1.1/DTD/svg11.dtd">
<svg width="600" height="600" viewBox="0 0 600 600"
     xmlns="http://www.w3.org/2000/svg" version="1.1">
  <g style="fill:none; stroke:#000000">
    <polygon points="20,300 25,375 30,425 45,525 80,725 155,1125 310,1925 625,3525 1260,6725 2535,13125 5090,25925 10205,51525 20440,102725 40915,205125 400020,300 40915,-204525 20440,-102125 10205,-50925 5090,-25325 2535,-12525 1260,-6125 625,-2925 310,-1325 155,-525 80,-125 45,75 30,175 25,225 20,300"/>
    <line x1="20" y1="300" x2="36.1521" y2="300"/>
    <line x1="25" y1="375" x2="36.1521" y2="300"/>
    <line x1="30" y1="425" x2="36.1521" y2="300"/>
    <line x1="45" y1="525" x2="36.1521" y2="300"/>
    <line x1="80" y1="725" x2="36.1521" y2="300"/>
    <line x1="155" y1="1125" x2="36.1521" y2="300"/>
    <line x1="310" y1="1925" x2="36.1521" y2="300"/>
    <line x1="625" y1="3525" x2="36.1521" y2="300"/>
    <line x1="1260" y1="6725" x2="36.1521" y2="300"/>
    <line x1="2535" y1="13125" x2="36.1521" y2="300"/>
    <line x1="5090" y1="25925" x2="36.1521" y2="300"/>
    <line x1="10205" y1="51525" x2="36.1521" y2="300"/>
    <line x1="20440" y1="102725" x2="36.1521" y2="300"/>
    <line x1="40915" y1="205125" x2="36.1521" y2="300"/>
    <line x1="400020" y1="300" x2="36.1521" y2="300"/>
    <line x1="40915" y1="-204525" x2="36.1521" y2="300"/>
    <line x1="20440" y1="-102125" x2="36.1521" y2="300"/>
    <line x1="10205" y1="-50925" x2="36.1521" y2="300"/>
    <line x1="5090" y1="-25325" x2="36.1521" y2="300"/>
    <line x1="2535" y1="-12525" x2="36.1521" y2="300"/>
    <line x1="1260" y1="-6125" x2="36.1521" y2="300"/>
    <line x1="625" y1="-2925" x2="36.1521" y2="300"/>
    <line x1="310" y1="-1325" x2="36.1521" y2="300"/>
    <line x1="155" y1="-525" x2="36.1521" y2="300"/>
    <line x1="80" y1="-125" x2="36.1521" y2="300"/>
    <line x1="45" y1="75" x2="36.1521" y2="300"/>
    <line x1="30" y1="175" x2="36.1521" y2="300"/>
    <line x1="25" y1="225" x2="36.1521" y2="300"/>
  </g>
  <g style="fill:#BC1E46; stroke:#000000">
    <circle cx="20" cy="300" r="4"/>
    <circle cx="25" cy="375" r="4"/>
    <circle cx="30" cy="425" r="4"/>
    <circle cx="45" cy="525" r="4"/>
    <circle cx="80" cy="725" r="4"/>
    <circle cx="155" cy="1125" r="4"/>
    <circle cx="310" cy="1925" r="4"/>
    <circle cx="625" cy="3525" r="4"/>
    <circle cx="1260" cy="6725" r="4"/>
    <circle cx="2535" cy="13125" r="4"/>
    <circle cx="5090" cy="25925" r="4"/>
    <circle cx="10205" cy="51525" r="4"/>
    <circle cx="20440" cy="102725" r="4"/>
    <circle cx="40915" cy="205125" r="4"/>
    <circle cx="400020" cy="300" r="4"/>
    <circle cx="40915" cy="-204525" r="4"/>
    <circle cx="20440" cy="-102125" r="4"/>
    <circle cx="10205" cy="-50925" r="4"/>
    <circle cx="5090" cy="-25325" r="4"/>
    <circle cx="2535" cy="-12525" r="4"/>
    <circle cx="1260" cy="-6125" r="4"/>
    <circle cx="625" cy="-2925" r="4"/>
    <circle cx="310" cy="-1325" r="4"/>
    <circle cx="155" cy="-525" r="4"/>
    <circle cx="80" cy="-125" r="4"/>
    <circle cx="45" cy="75" r="4"/>
    <circle cx="30" cy="175" r="4"/>
    <circle cx="25" cy="225" r="4"/>
  </g>
  <circle cx="36.1521" cy="300" r="4" style="fill:#0081CD; stroke:#000000"/>
</svg>
