<svg xmlns="http://www.w3.org/2000/svg" width="666" height="586.8"><g stroke="#000"><path fill="none" stroke-width="2" d="M189 540L45 324l72-144L261 36l360 144-72 288-360 72z"/><path opacity=".6" d="M45 324l504 144-360 72L45 324zM261 36L45 324l576-144L261 36z" fill="#dd8ea2"/><path opacity=".6" d="M153 324l36 216 360-72-396-144zm0 0L261 36l360 144-468 144zm-108 0h108l-36-144-72 144z" fill="#7fc0e6"/><g fill="#bc1e46"><circle cx="45" cy="324" r="9"/><circle cx="117" cy="180" r="9"/><circle cx="261" cy="36" r="9"/><circle cx="189" cy="540" r="9"/><circle cx="549" cy="468" r="9"/><circle cx="621" cy="180" r="9"/></g><circle cx="153" cy="324" r="9" fill="#0081cd"/></g><g font-family="Times-Italic, Times" font-size="36" font-style="italic"><text transform="translate(5.59 318.06)">A</text><text transform="translate(72 180)">B</text><text transform="translate(210.94 40.07)">C</text><text transform="translate(624.29 164.95)">D</text><text transform="translate(558 491.46)">E</text><text transform="translate(144 567)">F</text><text transform="translate(173.02 352.86)">S</text></g></svg>