<?xml version="1.0"?>
<!DOCTYPE svg PUBLIC "-//W3C//DTD SVG 1.1//EN" 
  "http://www.w3.org/Graphics/SVG/1.1/DTD/svg11.dtd">
<svg width="840" height="840" viewBox="0 0 840 840"
     xmlns="http://www.w3.org/2000/svg" version="1.1">
  <polygon points="20,420 20.01,420.15 20.02,420.25 20.05,420.45 20.12,420.85 20.27,421.65 20.58,423.25 21.21,426.45 22.48,432.85 25.03,445.65 30.14,471.25 40.37,522.45 60.84,624.85 101.79,829.65 820,420 101.79,10.35 60.84,215.15 40.37,317.55 30.14,368.75 25.03,394.35 22.48,407.15 21.21,413.55 20.58,416.75 20.27,418.35 20.12,419.15 20.05,419.55 20.02,419.75 20.01,419.85 20,420" style="fill:none; stroke:#000000"/>
  <g style="fill:#BC1E46; stroke:#000000">
    <circle cx="20" cy="420" r="4"/>
    <circle cx="20.01" cy="420.15" r="4"/>
    <circle cx="20.02" cy="420.25" r="4"/>
    <circle cx="20.05" cy="420.45" r="4"/>
    <circle cx="20.12" cy="420.85" r="4"/>
    <circle cx="20.27" cy="421.65" r="4"/>
    <circle cx="20.58" cy="423.25" r="4"/>
    <circle cx="21.21" cy="426.45" r="4"/>
    <circle cx="22.48" cy="432.85" r="4"/>
    <circle cx="25.03" cy="445.65" r="4"/>
    <circle cx="30.14" cy="471.25" r="4"/>
    <circle cx="40.37" cy="522.45" r="4"/>
    <circle cx="60.84" cy="624.85" r="4"/>
    <circle cx="101.79" cy="829.65" r="4"/>
    <circle cx="820" cy="420" r="4"/>
    <circle cx="101.79" cy="10.35" r="4"/>
    <circle cx="60.84" cy="215.15" r="4"/>
    <circle cx="40.37" cy="317.55" r="4"/>
    <circle cx="30.14" cy="368.75" r="4"/>
    <circle cx="25.03" cy="394.35" r="4"/>
    <circle cx="22.48" cy="407.15" r="4"/>
    <circle cx="21.21" cy="413.55" r="4"/>
    <circle cx="20.58" cy="416.75" r="4"/>
    <circle cx="20.27" cy="418.35" r="4"/>
    <circle cx="20.12" cy="419.15" r="4"/>
    <circle cx="20.05" cy="419.55" r="4"/>
    <circle cx="20.02" cy="419.75" r="4"/>
    <circle cx="20.01" cy="419.85" r="4"/>
  </g>
</svg>
