<svg xmlns="http://www.w3.org/2000/svg" width="253" height="165" viewBox="-306 294 253 165">
    <g fill="none" stroke="#000" stroke-width="2">
        <path d="M-148.059 437.245c-16.539 16.538-43.353 16.538-59.892 0m0-118.692c16.539-16.538 43.354-16.538 59.893 0m-83.486 31.698a125.276 125.276 0 0 1 23.529-31.845m-23.529 31.845a149.15 149.15 0 0 0 22.478 28.411"/>
        <path d="M-231.343 349.867a51.96 51.96 0 0 0-13.813-1.859c-28.613 0-51.808 23.139-51.808 51.682s23.195 51.682 51.808 51.682c14.027 0 26.751-5.562 36.08-14.594m-22.468-31.614a125.254 125.254 0 0 0 23.529 31.844m-23.529-31.844a149.124 149.124 0 0 1 22.478-28.412"/>
        <path d="M-231.343 405.548a51.96 51.96 0 0 1-13.813 1.857c-28.613 0-51.808-23.139-51.808-51.681s23.195-51.681 51.808-51.681c14.027 0 26.751 5.56 36.08 14.593m1.371-.191l59.4 59.4-59.4 59.4"/>
        <path d="M-148.305 437.245l-59.4-59.4 59.4-59.4m23.565 31.806a125.3 125.3 0 0 0-23.529-31.845m23.529 31.845a149.15 149.15 0 0 1-22.478 28.411"/>
        <path d="M-124.942 349.867a51.967 51.967 0 0 1 13.814-1.859c28.613 0 51.808 23.139 51.808 51.682s-23.195 51.682-51.808 51.682c-14.027 0-26.752-5.562-36.08-14.594m22.468-31.614a125.278 125.278 0 0 1-23.529 31.844m23.529-31.844a149.124 149.124 0 0 0-22.478-28.412"/>
        <path d="M-124.942 405.548a51.967 51.967 0 0 0 13.814 1.857c28.613 0 51.808-23.139 51.808-51.681s-23.195-51.681-51.808-51.681c-14.027 0-26.752 5.56-36.08 14.593"/>
    </g>
    <g fill="red" stroke="#000" stroke-width="2">
        <circle cx="-231.544" cy="350.251" r="9.9"/>
        <circle cx="-207.705" cy="318.445" r="9.9"/>
        <circle cx="-207.705" cy="377.845" r="9.9"/>
        <circle cx="-231.544" cy="405.164" r="9.9"/>
        <circle cx="-124.74" cy="350.251" r="9.9"/>
        <circle cx="-124.74" cy="405.164" r="9.9"/>
        <circle cx="-207.705" cy="437.245" r="9.9"/>
        <circle cx="-148.305" cy="318.445" r="9.9"/>
        <circle cx="-148.305" cy="377.845" r="9.9"/>
        <circle cx="-148.305" cy="437.245" r="9.9"/>
    </g>
</svg>
