<?xml version="1.0" encoding="utf-8"?>
<!-- Generator: Adobe Illustrator 15.1.0, SVG Export Plug-In . SVG Version: 6.00 Build 0)  -->
<!DOCTYPE svg PUBLIC "-//W3C//DTD SVG 1.1//EN" "http://www.w3.org/Graphics/SVG/1.1/DTD/svg11.dtd">
<svg version="1.1" id="Layer_1" xmlns="http://www.w3.org/2000/svg" xmlns:xlink="http://www.w3.org/1999/xlink" x="0px" y="0px"
	 width="253px" height="165px" viewBox="-306 294 253 165" enable-background="new -306 294 253 165" xml:space="preserve">
<g>
	<path fill="none" stroke="#000000" stroke-width="2" d="M-148.059,437.245c-16.539,16.538-43.353,16.538-59.892,0"/>
	<path fill="none" stroke="#000000" stroke-width="2" d="M-207.951,318.553c16.539-16.538,43.354-16.538,59.893,0"/>
	<path fill="none" stroke="#000000" stroke-width="2" d="M-231.544,350.251c6.125-11.844,14.094-22.585,23.529-31.845"/>
	<path fill="none" stroke="#000000" stroke-width="2" d="M-231.544,350.251c6.322,10.372,13.883,19.911,22.478,28.411"/>
	<path fill="none" stroke="#000000" stroke-width="2" d="M-231.343,349.867c-4.397-1.211-9.03-1.859-13.813-1.859
		c-28.613,0-51.808,23.139-51.808,51.682s23.195,51.682,51.808,51.682c14.027,0,26.751-5.562,36.08-14.594"/>
	<path fill="none" stroke="#000000" stroke-width="2" d="M-231.544,405.164c6.125,11.844,14.094,22.585,23.529,31.844"/>
	<path fill="none" stroke="#000000" stroke-width="2" d="M-231.544,405.164c6.322-10.373,13.883-19.912,22.478-28.412"/>
	<path fill="none" stroke="#000000" stroke-width="2" d="M-231.343,405.548c-4.397,1.211-9.03,1.857-13.813,1.857
		c-28.613,0-51.808-23.139-51.808-51.681s23.195-51.681,51.808-51.681c14.027,0,26.751,5.56,36.08,14.593"/>
	<polyline fill="none" stroke="#000000" stroke-width="2" points="-207.705,318.445 -148.305,377.845 -207.705,437.245 	"/>
	<polyline fill="none" stroke="#000000" stroke-width="2" points="-148.305,437.245 -207.705,377.845 -148.305,318.445 	"/>
	<path fill="none" stroke="#000000" stroke-width="2" d="M-124.74,350.251c-6.125-11.844-14.095-22.585-23.529-31.845"/>
	<path fill="none" stroke="#000000" stroke-width="2" d="M-124.74,350.251c-6.322,10.372-13.883,19.911-22.478,28.411"/>
	<path fill="none" stroke="#000000" stroke-width="2" d="M-124.942,349.867c4.398-1.211,9.03-1.859,13.814-1.859
		c28.613,0,51.808,23.139,51.808,51.682s-23.195,51.682-51.808,51.682c-14.027,0-26.752-5.562-36.08-14.594"/>
	<path fill="none" stroke="#000000" stroke-width="2" d="M-124.74,405.164c-6.125,11.844-14.095,22.585-23.529,31.844"/>
	<path fill="none" stroke="#000000" stroke-width="2" d="M-124.74,405.164c-6.322-10.373-13.883-19.912-22.478-28.412"/>
	<path fill="none" stroke="#000000" stroke-width="2" d="M-124.942,405.548c4.398,1.211,9.03,1.857,13.814,1.857
		c28.613,0,51.808-23.139,51.808-51.681s-23.195-51.681-51.808-51.681c-14.027,0-26.752,5.56-36.08,14.593"/>
</g>
<g>
	<circle fill="#FF0000" stroke="#000000" stroke-width="2" cx="-231.544" cy="350.251" r="9.9"/>
	<circle fill="#FF0000" stroke="#000000" stroke-width="2" cx="-207.705" cy="318.445" r="9.9"/>
	<circle fill="#FF0000" stroke="#000000" stroke-width="2" cx="-207.705" cy="377.845" r="9.9"/>
	<circle fill="#FF0000" stroke="#000000" stroke-width="2" cx="-231.544" cy="405.164" r="9.9"/>
	<circle fill="#FF0000" stroke="#000000" stroke-width="2" cx="-124.74" cy="350.251" r="9.9"/>
	<circle fill="#FF0000" stroke="#000000" stroke-width="2" cx="-124.74" cy="405.164" r="9.9"/>
	<circle fill="#FF0000" stroke="#000000" stroke-width="2" cx="-207.705" cy="437.245" r="9.9"/>
	<circle fill="#FF0000" stroke="#000000" stroke-width="2" cx="-148.305" cy="318.445" r="9.9"/>
	<circle fill="#FF0000" stroke="#000000" stroke-width="2" cx="-148.305" cy="377.845" r="9.9"/>
	<circle fill="#FF0000" stroke="#000000" stroke-width="2" cx="-148.305" cy="437.245" r="9.9"/>
</g>
</svg>
