<svg xmlns="http://www.w3.org/2000/svg" width="360" height="396"><path opacity=".8" fill="#FFF" stroke="#000" stroke-width=".5" d="M63 9h288v288H63z"/><path fill="none" stroke="#0060B6" stroke-width="3" stroke-linejoin="bevel" d="M63 153L206.998 9.002l144 143.998-144 144z"/><path opacity=".8" fill="#FFF" stroke="#000" stroke-width=".5" d="M63 9L9 99v288l54-90z"/><path fill="none" stroke="#0060B6" stroke-width="3" stroke-linejoin="bevel" d="M36 54l27 99-27 189-27-99z"/><path opacity=".8" fill="#FFF" stroke="#000" stroke-width=".5" d="M9 387h288l54-90H63z"/><path fill="none" stroke="#0060B6" stroke-width="3" stroke-linejoin="bevel" d="M36 342l171-45 117 45-171 45z"/><path opacity=".8" fill="#FFF" stroke="#000" stroke-width=".5" d="M9 99h288l54-90H63z"/><path fill="none" stroke="#0060B6" stroke-width="3" stroke-linejoin="bevel" d="M36 54L207 9l117 45-171 45z"/><path opacity=".8" fill="#FFF" stroke="#000" stroke-width=".5" d="M351 9l-54 90v288l54-90z"/><path fill="none" stroke="#0060B6" stroke-width="3" stroke-linejoin="bevel" d="M324 54l27 99-27 189-27-99z"/><path opacity=".8" fill="#FFF" stroke="#000" stroke-width=".5" d="M9 99h288v288H9z"/><path fill="none" stroke="#0060B6" stroke-width="3" stroke-linejoin="bevel" d="M9 243L152.997 99l143.999 144-143.999 143.998z"/></svg>