<svg xmlns="http://www.w3.org/2000/svg" width="432" height="414"><g fill="#FFF" stroke="#000" stroke-width=".5"><path d="M199.053 155.937l13.993 26.126 20.144 1.295 26.293-23.537z"/><path d="M199.053 155.937l.002 61.761 13.991-15.046v-20.589zm13.993 26.126v20.589l20.144 1.296v-20.59z"/><path d="M213.046 202.652l-13.991 15.046 60.427 3.889-26.292-17.639z"/><path d="M233.19 183.358v20.59l26.292 17.639.001-61.766z"/></g><g fill="#FFF"><path opacity=".67" d="M202 189.142v20.59l20.146 1.296v-20.59z"/><path opacity=".67" d="M202 189.142l6.151-4.244 20.145 1.295-6.15 4.245z"/><path opacity=".67" d="M222.146 190.438v20.59l6.15-4.244v-20.591z"/></g><g fill="none" stroke="#000" stroke-width=".5"><path d="M202 189.142v20.59l20.146 1.296v-20.59z"/><path d="M202 189.142l6.151-4.244 20.145 1.296-6.15 4.244z"/><path d="M222.146 190.438v20.59l6.15-4.244v-20.59z"/></g><g fill="#FFF"><path opacity=".67" d="M164.659 171.497l26.301 17.645v20.59l-26.298 23.541z"/><path opacity=".67" d="M164.659 171.497l26.301 17.645 6.151-4.244-13.993-26.126z"/><path opacity=".67" d="M190.96 189.142l6.151-4.244v20.589l-6.151 4.245z"/><path opacity=".67" d="M197.111 205.487l-6.151 4.245-26.298 23.541 18.458-12.74z"/></g><g fill="none" stroke="#000" stroke-width=".5"><path d="M164.659 171.497l26.301 17.645v20.59l-26.298 23.541z"/><path d="M164.659 171.497l26.301 17.645 6.151-4.244-13.993-26.126z"/><path d="M190.96 189.142l6.151-4.244v20.589l-6.151 4.245z"/><path d="M197.111 205.487l-6.151 4.245-26.298 23.541 18.458-12.74z"/></g><g fill="#FFF"><path opacity=".67" d="M175.699 159.18L202 176.825l20.146 1.295 13.999-15.054z"/><path opacity=".67" d="M175.699 159.18l60.446 3.886 18.444-12.727-60.43-3.884z"/><path opacity=".67" d="M222.146 178.12l13.999-15.054 18.444-12.727-26.293 23.537z"/></g><g fill="none" stroke="#000" stroke-width=".5"><path d="M175.699 159.18L202 176.825l20.146 1.295 13.999-15.054z"/><path d="M175.699 159.18l60.446 3.886 18.444-12.727-60.43-3.884z"/><path d="M222.146 178.12l13.999-15.054 18.444-12.727-26.293 23.537z"/></g><g fill="#FFF"><path opacity=".67" d="M175.702 243.873L202 220.332l20.146 1.297 13.998 26.136z"/><path opacity=".67" d="M202 220.332l20.146 1.297 6.15-4.245-20.145-1.297z"/><path opacity=".67" d="M228.296 217.384l-6.15 4.245 13.998 26.136 18.444-12.743z"/></g><g fill="none" stroke="#000" stroke-width=".5"><path d="M175.702 243.873L202 220.333l20.146 1.296 13.998 26.136z"/><path d="M202 220.333l20.146 1.296 6.15-4.245-20.145-1.297z"/><path d="M228.296 217.384l-6.15 4.245 13.998 26.136 18.444-12.743z"/></g><path opacity=".67" d="M235.96 189.732l13.998-15.053v61.781l-13.998-26.135zm13.998-15.053v61.781l18.443-12.742.002-61.766z" fill="#FFF"/><path d="M235.96 189.732l13.998-15.053v61.781l-13.998-26.135zm13.998-15.053v61.781l18.443-12.742.002-61.766z" fill="none" stroke="#000" stroke-width=".5"/><path opacity=".67" fill="#FFF" d="M179.67 170.482l.003 61.777 60.441 3.891.001-61.781z"/><path fill="none" stroke="#000" stroke-width=".5" d="M179.67 170.482l.003 61.777 60.441 3.891.001-61.781z"/><g fill="#FFF" stroke="#000"><path d="M146.211 42.748l55.973 104.506 80.578 5.18 105.172-94.149zm0 0l.008 247.045 55.965-60.184v-82.355z"/><path d="M202.184 147.254v82.355l80.578 5.184v-82.359zm0 82.355l-55.965 60.184 241.711 15.555-105.168-70.555z"/><path d="M282.762 152.434v82.359l105.168 70.555.004-247.063z"/></g><g fill="#FFF"><path opacity=".67" d="M158 175.566v82.364l80.586 5.183V180.75z"/><path opacity=".67" d="M158 175.566l24.605-16.972 80.579 5.179-24.598 16.977zm80.586 5.184v82.363l24.598-16.976v-82.364z"/></g><g fill="none" stroke="#000"><path d="M158 175.568v82.362l80.586 5.183V180.75z"/><path d="M158 175.568l24.605-16.974 80.579 5.181-24.598 16.975zm80.586 5.182v82.363l24.598-16.976v-82.362z"/></g><g fill="#FFF"><path opacity=".67" d="M8.637 104.988l105.203 70.578v82.364L8.648 352.094z"/><path opacity=".67" d="M8.637 104.988l105.203 70.578 24.605-16.972L82.473 54.09z"/><path opacity=".67" d="M113.84 175.566l24.605-16.972v82.355L113.84 257.93z"/><path opacity=".67" d="M138.445 240.949L113.84 257.93 8.648 352.094l73.832-50.961z"/></g><g fill="none" stroke="#000"><path d="M8.637 104.988l105.203 70.578v82.364L8.648 352.094z"/><path d="M8.637 104.988l105.203 70.578 24.605-16.972L82.473 54.09z"/><path d="M113.84 175.566l24.605-16.972v82.355L113.84 257.93z"/><path d="M138.445 240.949L113.84 257.93 8.648 352.094l73.832-50.961z"/></g><g fill="#FFF"><path opacity=".67" d="M52.797 55.719L158 126.299l80.586 5.181 55.992-60.216zm0 0l241.781 15.545 73.777-50.909L126.637 4.82z"/><path opacity=".67" d="M238.586 131.48l55.992-60.216 73.777-50.909-105.171 94.151z"/></g><g fill="none" stroke="#000"><path d="M52.797 55.719L158 126.299l80.586 5.181 55.992-60.216zm0 0l241.781 15.545 73.777-50.909L126.637 4.82z"/><path d="M238.586 131.48l55.992-60.216 73.777-50.909-105.171 94.151z"/></g><g fill="#FFF"><path opacity=".67" d="M52.809 394.492L158 300.328l80.586 5.188 55.988 104.543z"/><path opacity=".67" d="M158 300.328l80.586 5.188 24.598-16.981-80.579-5.187zm105.184-11.793l-24.598 16.981 55.988 104.543 73.778-50.969z"/></g><g fill="none" stroke="#000"><path d="M52.809 394.492L158 300.332l80.586 5.184 55.988 104.543z"/><path d="M158 300.332l80.586 5.184 24.598-16.981-80.579-5.187z"/><path d="M263.184 288.535l-24.598 16.981 55.988 104.543 73.778-50.969z"/></g><path opacity=".67" d="M293.84 177.93l55.992-60.215V364.84L293.84 260.301zm55.992-60.215V364.84l73.773-50.969.008-247.064z" fill="#FFF"/><path d="M293.84 177.93l55.992-60.215V364.84L293.84 260.301zm55.992-60.215V364.84l73.773-50.969.008-247.064z" fill="none" stroke="#000"/><path opacity=".67" fill="#FFF" d="M68.68 100.93l.011 247.105 241.766 15.567.004-247.125z"/><path fill="none" stroke="#000" d="M68.68 100.93l.011 247.105 241.766 15.567.004-247.125z"/></svg>