<svg xmlns="http://www.w3.org/2000/svg" xmlns:xlink="http://www.w3.org/1999/xlink" width="342" height="345"><defs><path id="a" d="M4.572 6.49h333.385v333.385H4.572z"/></defs><clipPath id="b"><use xlink:href="#a" overflow="visible"/></clipPath><path opacity=".3" clip-path="url(#b)" fill="none" stroke="#0060B6" stroke-width="3" stroke-linecap="round" d="M6.494 174.514l.488-2.31 1.502-2.302 2.506-2.282 3.494-2.248 4.46-2.2 5.399-2.138 6.307-2.062 7.172-1.976 7.996-1.878 8.768-1.765 9.488-1.642 10.147-1.51 10.748-1.368 11.278-1.218 11.742-1.062 12.132-.896 12.446-.727 12.686-.552 12.846-.376 12.929-.193 12.929-.015 12.848.168 12.693.349 12.459.523 12.143.7 11.76.872 11.295 1.036 10.768 1.193 10.172 1.345 9.512 1.489 8.799 1.622 8.021 1.746 7.203 1.86 6.34 1.962 5.434 2.05 4.494 2.128 3.531 2.192 2.541 2.242 1.539 2.277.527 2.3m-99.231 152.515l-2.902.705-3.297-.23-3.656-1.166-4-2.092-4.32-3.006-4.615-3.904-4.877-4.779-5.109-5.617-5.312-6.428-5.479-7.195-5.615-7.92-5.717-8.598-5.783-9.217-5.813-9.783-5.808-10.289-5.764-10.73-5.688-11.107-5.576-11.414-5.428-11.65-5.25-11.816-5.036-11.906-4.792-11.927-4.52-11.87-4.219-11.744-3.892-11.544-3.542-11.27-3.166-10.931-2.776-10.521-2.365-10.05-1.942-9.513-1.506-8.92-1.061-8.27-.609-7.572-.152-6.824.304-6.033.759-5.211 1.206-4.352 1.651-3.466 2.082-2.561 2.502-1.638m152.046 10.934l5.904 4.238 5.332 5.078 4.73 5.882 4.102 6.656 3.441 7.386 2.766 8.068 2.066 8.704 1.359 9.284.648 9.81-.078 10.271-.795 10.672-1.512 11.006-2.217 11.271-2.906 11.469-3.586 11.596-4.234 11.65-4.863 11.631-5.457 11.545-6.02 11.385-6.543 11.15-7.031 10.854-7.469 10.488-7.867 10.059-8.213 9.562-8.51 9.014-8.754 8.406-8.941 7.746-9.078 7.041-9.16 6.289-9.179 5.502-9.145 4.676-9.054 3.828-8.91 2.949-8.704 2.059-8.451 1.152-8.145.236-7.788-.676-7.38-1.586-6.93-2.488-6.438-3.375M66.47 300.34l-9.323-8.342-8.622-9.076-7.864-9.75-7.061-10.367-6.21-10.926-5.323-11.402-4.402-11.822-3.458-12.162-2.488-12.43-1.504-12.623-.512-12.729.483-12.771 1.479-12.722 2.462-12.6 3.43-12.398 4.378-12.122 5.301-11.768 6.186-11.346 7.036-10.851 7.842-10.29 8.6-9.663 9.306-8.979 9.954-8.24 10.54-7.45L97.762 30.9l11.515-5.738 11.897-4.822 12.206-3.882 12.438-2.914 12.598-1.93 12.674-.937 12.676.068 12.602 1.07 12.445 2.062 12.211 3.046 11.906 4.01 11.527 4.948 11.074 5.856 10.557 6.729 9.971 7.559"/><path clip-path="url(#b)" fill="none" stroke="#292526" stroke-linecap="round" d="M331.691 210.789c20.758-88.555-34.266-177.275-122.82-198.033C120.314-8.002 31.596 47.02 10.836 135.576c-20.758 88.557 34.266 177.275 122.822 198.033s177.274-34.263 198.033-122.82"/><path clip-path="url(#b)" fill="none" stroke="#0060B6" stroke-width="3" stroke-linecap="round" d="M336.035 171.852l-.492 2.309-1.5 2.305-2.508 2.279-3.492 2.25-4.461 2.201-5.4 2.137-6.303 2.064-7.172 1.975-7.996 1.877-8.77 1.762-9.488 1.643-10.148 1.512-10.746 1.367-11.277 1.219-11.742 1.061-12.133.896-12.445.725-12.688.555-12.846.373-12.926.195-12.93.014-12.851-.166-12.691-.348-12.458-.523-12.145-.703-11.758-.871-11.296-1.035-10.768-1.193-10.173-1.35-9.512-1.484-8.796-1.625-8.026-1.746-7.201-1.859-6.339-1.961-5.434-2.051-4.494-2.129-3.53-2.191-2.544-2.24-1.538-2.277-.525-2.301M105.72 22.004l2.908-.706 3.292.229 3.658 1.166 4.002 2.092 4.32 3.008 4.613 3.904 4.876 4.775 5.11 5.62 5.31 6.428 5.482 7.196 5.616 7.92 5.716 8.597 5.784 9.218 5.811 9.784 5.809 10.287 5.766 10.73 5.689 11.108 5.576 11.414 5.426 11.649 5.25 11.814 5.035 11.908 4.793 11.924 4.52 11.875 4.219 11.742 3.891 11.543 3.541 11.27 3.168 10.932 2.773 10.521 2.365 10.049 1.945 9.514 1.506 8.918 1.057 8.273.613 7.57.152 6.822-.305 6.033-.758 5.211-1.207 4.352-1.652 3.469-2.082 2.559-2.504 1.641M84.76 313.426l-5.903-4.24-5.334-5.076-4.73-5.881-4.1-6.656-3.442-7.385-2.764-8.07-2.068-8.701-1.362-9.287-.644-9.807.076-10.271.796-10.672 1.512-11.008 2.216-11.271 2.91-11.467 3.582-11.594 4.236-11.651 4.859-11.634 5.458-11.542 6.021-11.384 6.544-11.154 7.03-10.852 7.47-10.488 7.868-10.058 8.212-9.564 8.51-9.014 8.754-8.406 8.942-7.746 9.078-7.04 9.157-6.29 9.181-5.5 9.145-4.678 9.055-3.828 8.906-2.948 8.707-2.06 8.451-1.15 8.145-.237 7.785.676 7.383 1.588 6.932 2.488 6.436 3.371m18.289 13.085l9.324 8.342 8.621 9.076 7.863 9.752 7.059 10.368 6.211 10.922 5.324 11.405 4.402 11.82 3.459 12.164 2.486 12.43 1.506 12.62.512 12.732-.484 12.768-1.479 12.725-2.461 12.6-3.43 12.398-4.379 12.121-5.301 11.768-6.184 11.344-7.037 10.854-7.846 10.287-8.598 9.664-9.309 8.98-9.953 8.242-10.539 7.449-11.064 6.613-11.512 5.734-11.9 4.824-12.203 3.883-12.438 2.912-12.598 1.93-12.678.936-12.674-.066-12.6-1.07-12.446-2.062-12.212-3.047-11.906-4.01-11.527-4.947-11.074-5.855-10.554-6.73-9.971-7.561"/></svg>