<svg xmlns="http://www.w3.org/2000/svg" width="360" height="396"><g stroke="#000"><path opacity=".8" fill="#00A0C6" d="M207.002 153l-144 143.998-27-98.998z"/><path opacity=".8" fill="#047391" d="M207.002 153l-144 143.998 117 45.002z"/><path opacity=".8" fill="#00A0C6" d="M180.002 342l-144-144 171-45z"/><path opacity=".8" fill="#047391" d="M180.002 342l-117-45.002-27-98.998z"/></g><g stroke="#000"><path opacity=".8" fill="#00A0C6" d="M63 9l144.002 144-27-99z"/><path opacity=".8" fill="#047391" d="M63 9L36.002 198l171-45z"/><path opacity=".8" fill="#00A0C6" d="M36.002 198l144-144L63 9z"/><path opacity=".8" fill="#047391" d="M36.002 198l144-144 27 99z"/></g><g stroke="#000"><path opacity=".8" fill="#00A0C6" d="M207 153.001L351.002 297l-27-98.999z"/><path opacity=".8" fill="#047391" d="M207 153.001L180.002 342l171-45z"/><path opacity=".8" fill="#00A0C6" d="M180.002 342l144-143.999-117.002-45z"/><path opacity=".8" fill="#047391" d="M180.002 342l144-143.999 27 98.999z"/></g><g stroke="#000"><path opacity=".8" fill="#00A0C6" d="M351.002 9l-144 144-27-99z"/><path opacity=".8" fill="#047391" d="M351.002 9l-144 144 117 45.001z"/><path opacity=".8" fill="#00A0C6" d="M324.002 198.001L180.002 54l171-45z"/><path opacity=".8" fill="#047391" d="M324.002 198.001l-117-45.001-27-99z"/></g><g stroke="#000"><path opacity=".8" fill="#00A0C6" d="M36.002 198l144.002 143.998-27-98.998z"/><path opacity=".8" fill="#047391" d="M36.002 198L9.004 386.998l171-45z"/><path opacity=".8" fill="#00A0C6" d="M9.004 386.998l144-143.998-117.002-45z"/><path opacity=".8" fill="#047391" d="M9.004 386.998l144-143.998 27 98.998z"/></g><g stroke="#000"><path opacity=".8" fill="#00A0C6" d="M180.002 54l-144 144-27-99z"/><path opacity=".8" fill="#047391" d="M180.002 54l-144 144 117 45.001z"/><path opacity=".8" fill="#00A0C6" d="M153.002 243.001L9.002 99l171-45z"/><path opacity=".8" fill="#047391" d="M153.002 243.001L36.002 198l-27-99z"/></g><g stroke="#000"><path opacity=".8" fill="#00A0C6" d="M324.004 198l-144 143.998-27-98.998z"/><path opacity=".8" fill="#047391" d="M324.004 198l-144 143.998 117 45.002z"/><path opacity=".8" fill="#00A0C6" d="M297.004 387l-144-144 171-45z"/><path opacity=".8" fill="#047391" d="M297.004 387l-117-45.002-27-98.998z"/></g><g stroke="#000"><path opacity=".8" fill="#00A0C6" d="M180 54.002l144.002 143.999-27-98.999z"/><path opacity=".8" fill="#047391" d="M180 54.002l-26.998 188.999 171-45z"/><path opacity=".8" fill="#00A0C6" d="M153.002 243.001l144-143.999-117.002-45z"/><path opacity=".8" fill="#047391" d="M153.002 243.001l144-143.999 27 98.999z"/></g></svg>