<svg xmlns="http://www.w3.org/2000/svg" width="558" height="504">
    <g fill="none" stroke="#000">
        <path d="M135 153l72-72 72-72 72 72 72 72M63 225l36-36 36-36 36 36 36 36M9 279l2.25 2.25c4.5 4.5 6.75 9 6.75 15.75v54c0 72 261 144 261 144"/>
        <path d="M45 279l-2.25 2.25c-4.5 4.5-6.75 9-6.75 15.75v54c0 72 243 144 243 144"/>
        <path d="M81 279l2.25 2.25c4.5 4.5 6.75 9 6.75 15.75v54c0 72 189 144 189 144"/>
        <path d="M117 279l-2.25 2.25c-4.5 4.5-6.75 9-6.75 15.75v54c0 72 171 144 171 144"/>
        <path d="M45 243l2.25 2.25c4.5 4.5 6.75 9 6.75 15.75v90c0 72 225 144 225 144M207 81l15.75 15.75c31.5 31.5 47.25 63 47.25 110.25v144c0 72 9 144 9 144m72-414l-15.75 15.75c-31.5 31.5-47.25 63-47.25 110.25v144c0 72-9 144-9 144"/>
        <path d="M99 189l6.75 6.75c13.5 13.5 20.25 27 20.25 47.25v108c0 72 153 144 153 144"/>
        <path d="M171 189l-6.75 6.75c-13.5 13.5-20.25 27-20.25 47.25v108c0 72 135 144 135 144"/>
        <path d="M81 243l-2.25 2.25c-4.5 4.5-6.75 9-6.75 15.75v90c0 72 207 144 207 144"/>
        <path d="M27 261l18-18 18-18 18 18 18 18M9 279l18-18 18 18m36 0l18-18 18 18m36 0l2.25 2.25c4.5 4.5 6.75 9 6.75 15.75v54c0 72 117 144 117 144"/>
        <path d="M189 279l-2.25 2.25c-4.5 4.5-6.75 9-6.75 15.75v54c0 72 99 144 99 144"/>
        <path d="M225 279l2.25 2.25c4.5 4.5 6.75 9 6.75 15.75v54c0 72 45 144 45 144"/>
        <path d="M261 279l-2.25 2.25c-4.5 4.5-6.75 9-6.75 15.75v54c0 72 27 144 27 144"/>
        <path d="M189 243l2.25 2.25c4.5 4.5 6.75 9 6.75 15.75v90c0 72 81 144 81 144"/>
        <path d="M225 243l-2.25 2.25c-4.5 4.5-6.75 9-6.75 15.75v90c0 72 63 144 63 144"/>
        <path d="M171 261l18-18 18-18 18 18 18 18m-90 18l18-18 18 18m36 0l18-18 18 18m90-54l36-36 36-36 36 36 36 36m-198 54l2.25 2.25c4.5 4.5 6.75 9 6.75 15.75v54c0 72-27 144-27 144"/>
        <path d="M333 279l-2.25 2.25c-4.5 4.5-6.75 9-6.75 15.75v54c0 72-45 144-45 144"/>
        <path d="M369 279l2.25 2.25c4.5 4.5 6.75 9 6.75 15.75v54c0 72-99 144-99 144"/>
        <path d="M405 279l-2.25 2.25c-4.5 4.5-6.75 9-6.75 15.75v54c0 72-117 144-117 144"/>
        <path d="M333 243l2.25 2.25c4.5 4.5 6.75 9 6.75 15.75v90c0 72-63 144-63 144"/>
        <path d="M387 189l6.75 6.75c13.5 13.5 20.25 27 20.25 47.25v108c0 72-135 144-135 144"/>
        <path d="M459 189l-6.75 6.75c-13.5 13.5-20.25 27-20.25 47.25v108c0 72-153 144-153 144"/>
        <path d="M369 243l-2.25 2.25c-4.5 4.5-6.75 9-6.75 15.75v90c0 72-81 144-81 144"/>
        <path d="M315 261l18-18 18-18 18 18 18 18m-90 18l18-18 18 18m36 0l18-18 18 18m36 0l2.25 2.25c4.5 4.5 6.75 9 6.75 15.75v54c0 72-171 144-171 144"/>
        <path d="M477 279l-2.25 2.25c-4.5 4.5-6.75 9-6.75 15.75v54c0 72-189 144-189 144"/>
        <path d="M513 279l2.25 2.25c4.5 4.5 6.75 9 6.75 15.75v54c0 72-243 144-243 144"/>
        <path d="M549 279l-2.25 2.25c-4.5 4.5-6.75 9-6.75 15.75v54c0 72-261 144-261 144"/>
        <path d="M477 243l2.25 2.25c4.5 4.5 6.75 9 6.75 15.75v90c0 72-207 144-207 144"/>
        <path d="M513 243l-2.25 2.25c-4.5 4.5-6.75 9-6.75 15.75v90c0 72-225 144-225 144"/>
        <path d="M459 261l18-18 18-18 18 18 18 18m-90 18l18-18 18 18m36 0l18-18 18 18"/>
    </g>
    <circle fill="#BC1E47" stroke="#000" cx="279" cy="495" r="4.5"/>
    <g fill="#FEC200" stroke="#000">
        <circle cx="27" cy="261" r="4.5"/>
        <circle cx="63" cy="225" r="4.5"/>
        <circle cx="135" cy="153" r="4.5"/>
        <circle cx="99" cy="261" r="4.5"/>
        <circle cx="171" cy="261" r="4.5"/>
        <circle cx="207" cy="225" r="4.5"/>
        <circle cx="279" cy="9" r="4.5"/>
        <circle cx="243" cy="261" r="4.5"/>
        <circle cx="315" cy="261" r="4.5"/>
        <circle cx="351" cy="225" r="4.5"/>
        <circle cx="423" cy="153" r="4.5"/>
        <circle cx="387" cy="261" r="4.5"/>
        <circle cx="459" cy="261" r="4.5"/>
        <circle cx="495" cy="225" r="4.5"/>
        <circle cx="531" cy="261" r="4.5"/>
    </g>
    <g fill="#0081CD" stroke="#000">
        <circle cx="9" cy="279" r="4.5"/>
        <circle cx="45" cy="279" r="4.5"/>
        <circle cx="45" cy="243" r="4.5"/>
        <circle cx="81" cy="279" r="4.5"/>
        <circle cx="81" cy="243" r="4.5"/>
        <circle cx="99" cy="189" r="4.5"/>
        <circle cx="171" cy="189" r="4.5"/>
        <circle cx="207" cy="81" r="4.5"/>
        <circle cx="351" cy="81" r="4.5"/>
        <circle cx="117" cy="279" r="4.5"/>
        <circle cx="153" cy="279" r="4.5"/>
        <circle cx="189" cy="279" r="4.5"/>
        <circle cx="189" cy="243" r="4.5"/>
        <circle cx="225" cy="279" r="4.5"/>
        <circle cx="225" cy="243" r="4.5"/>
        <circle cx="261" cy="279" r="4.5"/>
        <circle cx="297" cy="279" r="4.5"/>
        <circle cx="333" cy="279" r="4.5"/>
        <circle cx="333" cy="243" r="4.5"/>
        <circle cx="369" cy="279" r="4.5"/>
        <circle cx="369" cy="243" r="4.5"/>
        <circle cx="387" cy="189" r="4.5"/>
        <circle cx="459" cy="189" r="4.5"/>
        <circle cx="405" cy="279" r="4.5"/>
        <circle cx="441" cy="279" r="4.5"/>
        <circle cx="477" cy="279" r="4.5"/>
        <circle cx="477" cy="243" r="4.5"/>
        <circle cx="513" cy="279" r="4.5"/>
        <circle cx="513" cy="243" r="4.5"/>
        <circle cx="549" cy="279" r="4.5"/>
    </g>
</svg>
