<?xml version="1.0"?>
<!DOCTYPE svg PUBLIC "-//W3C//DTD SVG 1.1//EN" 
  "http://www.w3.org/Graphics/SVG/1.1/DTD/svg11.dtd">
<svg width="450" height="450" viewBox="0 0 450 450"
     xmlns="http://www.w3.org/2000/svg" version="1.1">
  <g style="stroke:#0081CD; fill:none">
    <circle cx="-536.4878" cy="225" r="765.1723"/>
    <circle cx="986.4878" cy="225" r="765.1723"/>
    <circle cx="-22.2419" cy="225" r="258.3671"/>
    <circle cx="472.2419" cy="225" r="258.3671"/>
    <circle cx="84.6849" cy="225" r="159.1017"/>
    <circle cx="365.3151" cy="225" r="159.1017"/>
    <circle cx="133.6122" cy="225" r="118.2232"/>
    <circle cx="316.3878" cy="225" r="118.2232"/>
    <circle cx="163.4491" cy="225" r="97.0233"/>
    <circle cx="286.5509" cy="225" r="97.0233"/>
    <circle cx="184.9117" cy="225" r="85.0416"/>
    <circle cx="265.0883" cy="225" r="85.0416"/>
    <circle cx="202.249" cy="225" r="78.3748"/>
    <circle cx="247.751" cy="225" r="78.3748"/>
    <circle cx="217.6131" cy="225" r="75.3629"/>
    <circle cx="232.3869" cy="225" r="75.3629"/>
  </g>
  <g style="stroke:#BC1E46; fill:none">
    <circle cx="225" cy="-564.2857" r="785.7143"/>
    <circle cx="225" cy="1014.2857" r="785.7143"/>
    <circle cx="225" cy="-44.4111" r="258.7611"/>
    <circle cx="225" cy="494.4111" r="258.7611"/>
    <circle cx="225" cy="55.8819" r="151.5781"/>
    <circle cx="225" cy="394.1181" r="151.5781"/>
    <circle cx="225" cy="96.3807" r="104.4889"/>
    <circle cx="225" cy="353.6193" r="104.4889"/>
    <circle cx="225" cy="117.1047" r="77.5655"/>
    <circle cx="225" cy="332.8953" r="77.5655"/>
    <circle cx="225" cy="128.9924" r="59.9371"/>
    <circle cx="225" cy="321.0076" r="59.9371"/>
    <circle cx="225" cy="136.2614" r="47.4292"/>
    <circle cx="225" cy="313.7386" r="47.4292"/>
    <circle cx="225" cy="140.8811" r="38.0918"/>
    <circle cx="225" cy="309.1189" r="38.0918"/>
    <circle cx="225" cy="143.8894" r="30.8856"/>
    <circle cx="225" cy="306.1106" r="30.8856"/>
    <circle cx="225" cy="145.8796" r="25.1999"/>
    <circle cx="225" cy="304.1204" r="25.1999"/>
    <circle cx="225" cy="147.21" r="20.6466"/>
    <circle cx="225" cy="302.79" r="20.6466"/>
    <circle cx="225" cy="148.1056" r="16.9633"/>
    <circle cx="225" cy="301.8944" r="16.9633"/>
    <circle cx="225" cy="148.7112" r="13.9633"/>
    <circle cx="225" cy="301.2888" r="13.9633"/>
    <circle cx="225" cy="149.1221" r="11.5086"/>
    <circle cx="225" cy="300.8779" r="11.5086"/>
    <circle cx="225" cy="149.4015" r="9.4936"/>
    <circle cx="225" cy="300.5985" r="9.4936"/>
    <circle cx="225" cy="149.5918" r="7.8361"/>
    <circle cx="225" cy="300.4082" r="7.8361"/>
    <circle cx="225" cy="149.7214" r="6.4705"/>
    <circle cx="225" cy="300.2786" r="6.4705"/>
    <circle cx="225" cy="149.8098" r="5.3444"/>
    <circle cx="225" cy="300.1902" r="5.3444"/>
    <circle cx="225" cy="149.8702" r="4.4151"/>
    <circle cx="225" cy="300.1298" r="4.4151"/>
    <circle cx="225" cy="149.9113" r="3.6478"/>
    <circle cx="225" cy="300.0887" r="3.6478"/>
  </g>
</svg>
