<svg xmlns="http://www.w3.org/2000/svg" width="324" height="324">
    <g fill="#BC1E47">
        <circle cx="54" cy="54" r="9"/>
        <circle cx="54" cy="18" r="9"/>
        <circle cx="54" cy="90" r="9"/>
        <circle cx="90" cy="90" r="9"/>
        <circle cx="90" cy="126" r="9"/>
        <circle cx="234" cy="18" r="9"/>
        <circle cx="234" cy="54" r="9"/>
        <circle cx="270" cy="54" r="9"/>
        <circle cx="270" cy="18" r="9"/>
        <circle cx="234" cy="90" r="9"/>
        <circle cx="270" cy="90" r="9"/>
        <circle cx="198" cy="270" r="9"/>
        <circle cx="198" cy="234" r="9"/>
        <circle cx="18" cy="18" r="9"/>
        <circle cx="18" cy="54" r="9"/>
        <circle cx="18" cy="90" r="9"/>
        <circle cx="18" cy="126" r="9"/>
        <circle cx="54" cy="126" r="9"/>
        <circle cx="90" cy="18" r="9"/>
        <circle cx="90" cy="54" r="9"/>
        <circle cx="18" cy="162" r="9"/>
        <circle cx="18" cy="198" r="9"/>
        <circle cx="54" cy="198" r="9"/>
        <circle cx="54" cy="162" r="9"/>
        <circle cx="90" cy="162" r="9"/>
        <circle cx="90" cy="198" r="9"/>
        <circle cx="126" cy="270" r="9"/>
        <circle cx="126" cy="234" r="9"/>
        <circle cx="162" cy="234" r="9"/>
        <circle cx="162" cy="270" r="9"/>
        <circle cx="306" cy="54" r="9"/>
        <circle cx="306" cy="18" r="9"/>
        <circle cx="306" cy="90" r="9"/>
        <circle cx="198" cy="306" r="9"/>
        <circle cx="126" cy="306" r="9"/>
        <circle cx="162" cy="306" r="9"/>
    </g>
    <g fill="#0081CD">
        <circle cx="126" cy="54" r="9"/>
        <circle cx="162" cy="18" r="9"/>
        <circle cx="162" cy="54" r="9"/>
        <circle cx="198" cy="54" r="9"/>
        <circle cx="198" cy="18" r="9"/>
        <circle cx="162" cy="90" r="9"/>
        <circle cx="162" cy="126" r="9"/>
        <circle cx="198" cy="126" r="9"/>
        <circle cx="198" cy="90" r="9"/>
        <circle cx="234" cy="126" r="9"/>
        <circle cx="270" cy="126" r="9"/>
        <circle cx="162" cy="198" r="9"/>
        <circle cx="198" cy="162" r="9"/>
        <circle cx="234" cy="198" r="9"/>
        <circle cx="234" cy="234" r="9"/>
        <circle cx="270" cy="270" r="9"/>
        <circle cx="126" cy="18" r="9"/>
        <circle cx="126" cy="126" r="9"/>
        <circle cx="126" cy="90" r="9"/>
        <circle cx="18" cy="234" r="9"/>
        <circle cx="18" cy="270" r="9"/>
        <circle cx="54" cy="270" r="9"/>
        <circle cx="54" cy="234" r="9"/>
        <circle cx="126" cy="198" r="9"/>
        <circle cx="126" cy="162" r="9"/>
        <circle cx="90" cy="234" r="9"/>
        <circle cx="90" cy="270" r="9"/>
        <circle cx="162" cy="162" r="9"/>
        <circle cx="198" cy="198" r="9"/>
        <circle cx="234" cy="162" r="9"/>
        <circle cx="270" cy="198" r="9"/>
        <circle cx="270" cy="162" r="9"/>
        <circle cx="234" cy="270" r="9"/>
        <circle cx="270" cy="234" r="9"/>
        <circle cx="306" cy="126" r="9"/>
        <circle cx="306" cy="270" r="9"/>
        <circle cx="270" cy="306" r="9"/>
        <circle cx="18" cy="306" r="9"/>
        <circle cx="54" cy="306" r="9"/>
        <circle cx="90" cy="306" r="9"/>
        <circle cx="234" cy="306" r="9"/>
        <circle cx="306" cy="306" r="9"/>
        <circle cx="306" cy="198" r="9"/>
        <circle cx="306" cy="162" r="9"/>
        <circle cx="306" cy="234" r="9"/>
    </g>
    <path d="M108 324V0m108 324V0M0 108h324M0 216h324" fill="none" stroke="#231F20"/>
</svg>
