<svg xmlns="http://www.w3.org/2000/svg" width="526" height="546.333">
    <path opacity=".15" d="M282.932 471.433c-153.481 240.174 104.648 286.954 35.52 5.868l-35.52-5.868zm168.123-337.149c284.738 12.832 196.188-234.106-12.678-33.694l12.678 33.694zM75.016 157.259C-56.24-95.746-225.819 104.408 52.175 185.084l22.841-27.825z" fill="gray"/>
    <path opacity=".2" d="M349.121 284.256c-.289 29.482 40.354 35.707 36.822 68.862l6.861 35.341c312.867 165.677 210.111-117.781-8.389-111.295l-35.294 7.092zm-93.258-113.707c25.678-14.489 10.747-52.799 41.227-66.32l27.173-23.611c-12.953-353.791-207.056-123.071-92.188 62.911l23.788 27.02zM204.02 308.168c-25.387-14.995-51.099 17.091-78.047-2.546l-34.036-11.727c-299.915 188.112-3.055 240.854 100.577 48.383l11.506-34.11z" fill="#BC1E47"/>
    <g fill="#FFF6CC">
        <circle cx="303.625" cy="456.606" r="45"/>
        <circle cx="371.704" cy="374.22" r="45"/>
        <circle cx="240.906" cy="339.605" r="71.999"/>
        <path d="M412.023 81.658c23.26-8.751 49.212 3.011 57.962 26.271 8.755 23.262-3.009 49.215-26.269 57.965-23.262 8.752-49.213-3.011-57.965-26.271s3.011-49.213 26.272-57.965z"/>
        <circle cx="322.481" cy="106.013" r="45"/>
        <circle cx="357.902" cy="236.592" r="71.999"/>
        <circle cx="77.508" cy="182.593" r="45"/>
        <circle cx="114.818" cy="282.745" r="45"/>
        <path d="M278.418 209.785c-12.707 37.681-53.554 57.925-91.234 45.217-37.679-12.71-57.921-53.557-45.214-91.233 12.707-37.679 53.554-57.924 91.234-45.217 37.678 12.708 57.921 53.555 45.214 91.233z"/>
    </g>
    <g fill="none" stroke="#000" stroke-width="2">
        <path d="M282.932 471.433l41.388-29.653-5.869 35.521"/>
        <path d="M282.932 471.433l5.868-35.522 29.651 41.39"/>
        <path d="M282.932 471.433c-153.481 240.174 104.648 286.954 35.52 5.868l-35.52-5.868zm168.123-337.149l-46.369-21.015 33.691-12.679"/>
        <path d="M451.055 134.284l-33.696 12.679 21.018-46.373"/>
        <path d="M451.055 134.284c284.738 12.832 196.188-234.106-12.678-33.694l12.678 33.694zM75.016 157.259l4.985 50.668-27.826-22.843"/>
        <path d="M75.016 157.259l27.827 22.842-50.668 4.983"/>
        <path d="M75.016 157.259C-56.24-95.746-225.819 104.408 52.175 185.084l22.841-27.825z"/>
    </g>
    <path d="M277.795 371.042l-39.564-79.83m-28.761 85.281l-16.956-34.213m164.949 53.039l35.342-6.86m-45.147-27.909l6.862 35.342m28.478-42.202l6.861 35.34m-188.684-81.82l-11.504 34.111m96.786-5.35l-11.504 34.112m-66.442 9.253l34.113 11.504m-5.352-96.785l34.113 11.505m.958-2.843c30.395-10.329 67.954 31.361 78.26 57.264m-107.02 28.017c11.51 22.194 39.225 24.371 45.217 47.913m35.52 5.869c-18.166-42.177-6.662-76.29-35.021-104.851m77.385-148l-49.352 74.177m88.236-17.731l-21.152 31.79m-36.541-169.371l-23.613-27.176m-1.596 53.052l27.176-23.612m-50.786-3.562l27.173-23.613m23.484 204.315l35.295-7.092m-53.028-81.143l35.295-7.093m41.233 52.913l-7.092-35.296m-81.143 53.029l-7.093-35.296m-2.941.591c-24.143-21.157-6.818-74.528 10.458-96.404m77.778 78.672c13.465-21.066 1.496-46.158 18.885-63.116m-12.674-33.694c-27.446 36.819-62.741 43.913-73.297 82.752m-166.865 6.984l88.918 5.651m-59.475-67.55l38.106 2.423M103.665 259.861l-11.728 34.036m46.741-25.142l-34.036-11.729m22.307 45.762l-34.036-11.726m165.201-122.495l-23.79-27.02m-43.759 86.494l-23.79-27.02m25.209-62.166l-27.021 23.791m86.495 43.759l-27.019 23.789m1.982 2.251c-6.252 31.487-61.135 43.169-88.721 39.146m29.246-106.695c-24.977-1.128-40.721 21.785-64.103 15.204m-22.842 27.827c45.61 5.358 69.4 32.377 108.313 22.098m160.807 54.232c-.289 29.482 40.354 35.706 36.822 68.862M255.864 170.548c25.678-14.488 10.747-52.799 41.227-66.317m-93.073 203.937c-25.386-14.995-51.098 17.091-78.045-2.546" fill="none" stroke="#0081CD" stroke-width="2"/>
    <path d="M204.018 308.169l34.213-16.957m51.068 45.718l-16.956-34.213m-28.76 85.281l34.212-16.956m-33.254 14.111l-34.112-11.503m140.175-13.67l35.339-6.862m-25.533 41.629l-6.861-35.34m35.34-6.86l6.859 35.341M206.86 309.126l-11.503 34.113m96.785-5.35l-11.505 34.112M239.19 288.37l34.112 11.504m-63.832 76.619c-8.788 26.058 43.542 65.924 79.331 59.418m35.519 5.869c15.847-2.213 30.309-31.012 33.143-46.461m-8.342-111.061l-31.789-21.152m14.057-67.085l-21.15 31.79m88.236-17.732l-31.791-21.15m28.849 21.741l7.092 35.295m-81.928-114.559l-23.61-27.176m48.819 1.299l-27.174 23.612m-23.612-27.176l27.175-23.611m26.235 202.963l35.295-7.094m-53.026-81.144l35.295-7.093m-51.704 77.712l-7.093-35.295m98.271 16.972c26.959-5.419 35.318-70.671 11.791-98.412m-12.673-33.694c-9.844-12.618-42.014-10.744-56.811-5.475m-92.012 62.756l-2.421 38.106m-65.128 21.368l38.107 2.421m-59.475-67.549l-2.422 38.109m4.404-35.857l27.021-23.788m-58.248 128.232l-11.728 34.033m-23.286-42.926l34.036 11.729m-11.728 34.034l-34.036-11.729M253.61 172.532l-23.789-27.02m-43.759 86.495l-23.789-27.021m93.15 5.922l-27.02 23.79m-34.436-93.592c-18.173-20.639-78.861 4.748-91.124 38.994m-22.842 27.827c-6.007 14.83 11.702 41.755 23.664 51.935m280.751 17.302c218.5-6.486 321.256 276.972 8.389 111.295m-160.73-244.931C117.207-42.454 311.31-273.174 324.263 80.617M192.514 342.278C88.882 534.749-207.978 482.008 91.937 293.896" fill="none" stroke="#BC1E47" stroke-width="2"/>
    <g fill="#FEC200" stroke="#000">
        <circle cx="282.931" cy="471.432" r="6"/>
        <circle cx="303.625" cy="456.606" r="6.001"/>
        <circle cx="318.45" cy="477.3" r="6"/>
        <path d="M398.695 387.314a6 6 0 0 1-4.749 7.033 5.996 5.996 0 0 1-7.03-4.745 6 6 0 1 1 11.779-2.288z"/>
        <circle cx="192.514" cy="342.281" r="6"/>
        <circle cx="204.019" cy="308.168" r="6"/>
        <circle cx="277.795" cy="371.042" r="6"/>
        <circle cx="238.231" cy="291.212" r="6"/>
        <circle cx="209.47" cy="376.494" r="6"/>
        <circle cx="350.603" cy="359.979" r="6"/>
        <circle cx="272.344" cy="302.717" r="6"/>
        <circle cx="243.582" cy="387.998" r="6"/>
        <circle cx="288.801" cy="435.911" r="6"/>
        <circle cx="289.299" cy="336.93" r="6"/>
        <circle cx="357.465" cy="395.318" r="6.001"/>
        <circle cx="324.318" cy="441.781" r="6"/>
        <circle cx="451.055" cy="134.284" r="6"/>
        <circle cx="427.869" cy="123.775" r="6.001"/>
        <circle cx="438.378" cy="100.591" r="6"/>
        <circle cx="324.262" cy="80.619" r="6"/>
        <circle cx="297.088" cy="104.23" r="6"/>
        <circle cx="384.417" cy="277.164" r="6"/>
        <circle cx="366.685" cy="188.929" r="6"/>
        <circle cx="317.332" cy="263.106" r="6"/>
        <path d="M399.686 246.557a6 6 0 1 1 11.763-2.366 6 6 0 0 1-11.763 2.366z"/>
        <circle cx="320.699" cy="131.405" r="6"/>
        <circle cx="310.239" cy="227.812" r="6"/>
        <path d="M392.592 211.26a6 6 0 0 1 4.701-7.062 6 6 0 1 1-4.701 7.062z"/>
        <circle cx="417.361" cy="146.962" r="6"/>
        <circle cx="331.39" cy="196.022" r="6.001"/>
        <circle cx="347.873" cy="107.793" r="6"/>
        <path d="M402.571 107.651a6.002 6.002 0 0 1 7.729 3.503 6.002 6.002 0 0 1-3.504 7.73 6.002 6.002 0 0 1-7.729-3.503 6.004 6.004 0 0 1 3.504-7.73z"/>
        <circle cx="75.015" cy="157.258" r="6"/>
        <circle cx="77.508" cy="182.592" r="6"/>
        <circle cx="52.174" cy="185.084" r="6"/>
        <circle cx="91.937" cy="293.898" r="6"/>
        <circle cx="125.971" cy="305.625" r="6"/>
        <circle cx="232.072" cy="143.529" r="6"/>
        <circle cx="255.862" cy="170.55" r="6.001"/>
        <circle cx="164.525" cy="203.005" r="6"/>
        <circle cx="253.441" cy="208.656" r="6.001"/>
        <circle cx="193.967" cy="141.108" r="6"/>
        <circle cx="137.7" cy="271.59" r="6"/>
        <circle cx="226.421" cy="232.446" r="6"/>
        <circle cx="166.946" cy="164.898" r="6"/>
        <circle cx="102.843" cy="180.101" r="6"/>
        <circle cx="188.315" cy="230.024" r="6"/>
        <circle cx="103.665" cy="259.863" r="6"/>
        <circle cx="80" cy="207.926" r="6"/>
        <path d="M391.834 351.975a6.002 6.002 0 0 1-4.746 7.035 6 6 0 1 1 4.746-7.035z"/>
        <circle cx="349.122" cy="284.257" r="6.001"/>
    </g>
</svg>
