<svg width="455" height="720" xmlns="http://www.w3.org/2000/svg">
    <g stroke="#000" fill="#fec200">
        <circle cx="30" cy="55" r="25"/>
        <circle cx="200" cy="85" r="35"/>
        <circle cx="400" cy="665" r="50"/>
        <circle cx="370" cy="575" r="35"/>
        <circle cx="370" cy="55" r="50"/>
        <circle cx="290" cy="535" r="50"/>
        <circle cx="290" cy="135" r="50"/>
        <circle cx="230" cy="235" r="50"/>
        <circle cx="400" cy="265" r="50"/>
        <circle cx="370" cy="175" r="35"/>
        <circle cx="200" cy="485" r="35"/>
        <circle cx="230" cy="635" r="50"/>
        <circle cx="370" cy="455" r="50"/>
        <circle cx="30" cy="455" r="25"/>
        <circle cx="140" cy="545" r="35"/>
        <circle cx="140" cy="145" r="35"/>
    </g>
    <path d="M391.31 314.24a50 50 0 0 0 58.188-56.311m-228.187 26.31l170 30M239.303 185.873a50 50 0 1 0-17.992 98.366m142.177-74.85l-124.185-23.516m124.185 23.516a35 35 0 0 0 27.193-62.626m-71.137-52.101l71.137 52.101m-71.137-52.101a50 50 0 0 0-60.495 1.07m-97.383 76.756l97.383-76.757m-143.063 74.731a35 35 0 0 0 45.68 2.026M12.847 73.187l103.139 97.275M42.63 33.425a25 25 0 0 0-29.783 39.762m169.47 42.017L42.631 33.425m139.686 81.779a35 35 0 0 0 39.948-3.2m115.927-95.582l-115.926 95.583m197.232-64.076a50 50 0 0 0-81.306-31.507m111.306 241.507l-30-210m-24.836 551.906a35 35 0 1 0-54.055-43.836M271.99 662.144l68.617-106.145M190.724 665.942a50 50 0 0 0 81.266-3.798M112.507 566.66l78.217 99.282M157.825 514.88a35 35 0 0 0-45.318 51.78m152.028 11.37l-106.71-63.151m106.71 63.151a50 50 0 1 0 43.12-89.81m-95.296-35.965l95.296 35.966m-95.296-35.966a35 35 0 0 0-18.636-1.688m-159.24 29.028l159.24-29.028M28.162 430.068a25 25 0 1 0 6.321 49.527m331.841-74.46L28.162 430.068m391.336 17.861a50 50 0 0 0-53.174-42.794m83.174 252.794l-30-210m-54.73 181.593a50 50 0 1 0 84.73 28.407m-54.836-58.094l-29.894 29.687" stroke="#0081cd" stroke-width="3" fill="none"/>
</svg>
