<svg xmlns="http://www.w3.org/2000/svg" width="468" height="72">
    <g fill="#FEC200" stroke="#000">
        <circle cx="54" cy="36" r="9"/>
        <circle cx="126" cy="36" r="9"/>
        <circle cx="198" cy="36" r="9"/>
        <circle cx="270" cy="36" r="9"/>
        <circle cx="342" cy="36" r="9"/>
        <circle cx="414" cy="36" r="9"/>
    </g>
    <circle cx="441" cy="36" r="2"/>
    <circle cx="450" cy="36" r="2"/>
    <circle cx="459" cy="36" r="2"/>
    <circle cx="27" cy="36" r="2"/>
    <circle cx="18" cy="36" r="2"/>
    <circle cx="9" cy="36" r="2"/>
    <path fill="none" stroke="#000" d="M72 36h29.965"/>
    <path d="M108 36c-2.84 1.054-6.363 2.852-8.547 4.756l1.72-4.756-1.72-4.755c2.184 1.904 5.707 3.702 8.547 4.755z"/>
    <path fill="none" stroke="#000" d="M144 36h29.965"/>
    <path d="M180 36c-2.84 1.054-6.363 2.852-8.547 4.756l1.72-4.756-1.72-4.755c2.184 1.904 5.707 3.702 8.547 4.755z"/>
    <path fill="none" stroke="#000" d="M216 36h29.965"/>
    <path d="M252 36c-2.84 1.054-6.363 2.852-8.547 4.756l1.72-4.756-1.72-4.755c2.184 1.904 5.707 3.702 8.547 4.755z"/>
    <path fill="none" stroke="#000" d="M288 36h29.965"/>
    <path d="M324 36c-2.84 1.054-6.363 2.852-8.547 4.756l1.72-4.756-1.72-4.755c2.184 1.904 5.707 3.702 8.547 4.755z"/>
    <path fill="none" stroke="#000" d="M360 36h29.965"/>
    <path d="M396 36c-2.84 1.054-6.363 2.852-8.547 4.756l1.72-4.756-1.72-4.755c2.184 1.904 5.707 3.702 8.547 4.755z"/>
    <path fill="none" stroke="#000" d="M72 27C106.364 1.227 140.729.056 175.093 23.486"/>
    <path d="M180 27c-2.929-.771-6.846-1.327-9.728-1.025l4.143-2.901 1.328-4.879c.691 2.813 2.539 6.311 4.257 8.805z"/>
    <g>
        <path fill="none" stroke="#000" d="M216 27C250.364 1.227 284.729.056 319.093 23.486"/>
        <path d="M324 27c-2.929-.771-6.846-1.327-9.728-1.025l4.143-2.901 1.328-4.879c.692 2.813 2.539 6.311 4.257 8.805z"/>
    </g>
    <g>
        <path fill="none" stroke="#000" d="M144 45c34.364 25.773 68.729 26.944 103.093 3.514"/>
        <path d="M252 45c-1.717 2.495-3.565 5.992-4.257 8.807l-1.328-4.88-4.142-2.9c2.882.301 6.798-.255 9.727-1.027z"/>
    </g>
    <g>
        <path fill="none" stroke="#000" d="M288 45c34.364 25.773 68.729 26.944 103.093 3.514"/>
        <path d="M396 45c-1.717 2.495-3.565 5.992-4.257 8.807l-1.328-4.88-4.142-2.9c2.882.301 6.798-.255 9.727-1.027z"/>
    </g>
</svg>
