<svg xmlns="http://www.w3.org/2000/svg" width="750.42" height="751.26" viewBox="-3.756 -4.159 750.42 751.26">
    <g fill="none" stroke="#000">
        <path d="M156.248 453.82a86.091 86.091 0 0 0-21.747-52.516m-35.712 6.495a710.695 710.695 0 0 0 35.712-6.494m0 0a76.79 76.79 0 0 0-.57-49.701m510.152-5.629a669.81 669.81 0 0 0-35.956 5.625m0 0a76.77 76.77 0 0 0-.568 49.703m54.967-36.146a78.815 78.815 0 0 0-.343 24.007m-18.1-43.189a116.787 116.787 0 0 0 18.443 19.182M154.625 298.36a730.446 730.446 0 0 0 89.972-56.551M133.932 351.604a86.781 86.781 0 0 0 20.693-53.244m89.972-56.551a465.546 465.546 0 0 0-42.995-150.141m169.427 214.111a1284.838 1284.838 0 0 0-126.433-63.97m252.865 0a1283.722 1283.722 0 0 0-126.432 63.97m0 0l-.001 138.432M540.455 91.667a465.466 465.466 0 0 0-42.994 150.143m0-.001a730.408 730.408 0 0 0 89.97 56.549M54.292 332.272a134.447 134.447 0 0 0 4.228 26.145m21.01 6.742a241.422 241.422 0 0 0-21.011-6.742m-4.227-26.145a164.023 164.023 0 0 0-39.315-13.662m67.906 2.365a73.936 73.936 0 0 0-28.591 11.297m45.728-48.867a289.606 289.606 0 0 0-17.137 37.57m15.091 25.002a99.383 99.383 0 0 0-15.091-25.002m17.137-37.57a149.224 149.224 0 0 0-51.7-50.879m106.305 65.834a98.461 98.461 0 0 0-54.604-14.955M79.53 365.159a116.665 116.665 0 0 0 18.443-19.182m35.959 5.627a665.068 665.068 0 0 0-35.958-5.627m.815 61.822a115.653 115.653 0 0 0-18.918-18.637m0 0a78.729 78.729 0 0 0-.341-24.003m562.506-81.756a98.491 98.491 0 0 0-54.605 14.955m0 0a86.777 86.777 0 0 0 20.696 53.242m85.611-119.075a149.21 149.21 0 0 0-51.702 50.878m17.138 37.571a289.442 289.442 0 0 0-17.138-37.571M246.218 508.316a1428.47 1428.47 0 0 0 124.81-64.105m-124.81 64.105a682.42 682.42 0 0 0-89.97-54.496M9.298 378.279c-10.7 19.309-7.57 43.342 7.723 59.266m0 0a165.559 165.559 0 0 0 38.654-14.855m-38.654 14.855c-9.556 32.977 5.399 68.129 35.785 84.113M48.32 232.526c-30.189 17.101-44.138 53.111-33.343 86.084m0 0C.196 335.098-2.107 359.298 9.298 378.279"/>
        <path d="M540.455 91.667c-63.983-93.571-191.71-117.557-285.28-53.57a205.201 205.201 0 0 0-53.574 53.572"/>
        <path d="M201.602 91.668c-78.444-5.986-146.888 52.751-152.873 131.195a141.65 141.65 0 0 0-.409 9.662m678.761 86.083c10.795-32.973-3.153-68.984-33.343-86.083m0 0c-.65-78.668-64.952-141.917-143.621-141.266a140.32 140.32 0 0 0-9.662.407M732.76 378.277c11.404-18.981 9.102-43.182-5.679-59.669m-64.897 70.556a115.635 115.635 0 0 0-18.915 18.631m-272.241 36.416a1429.496 1429.496 0 0 0 124.812 64.107m89.97-54.498a681.693 681.693 0 0 0-89.969 54.498m111.718-107.015a86.11 86.11 0 0 0-21.749 52.518m-49.919 202.232c77.272 7.152 145.715-49.688 152.871-126.959.229-2.475.395-4.953.488-7.439m-49.65-51.739a148.984 148.984 0 0 0 49.65 51.738m35.787-84.111c15.293-15.928 18.426-39.957 7.723-59.266m-43.51 143.377c30.387-15.984 45.342-51.133 35.787-84.111m-38.655-14.855a165.788 165.788 0 0 0 38.655 14.855M52.806 521.658c3.048 77.541 68.38 137.93 145.924 134.883 2.482-.098 4.964-.26 7.438-.49m0 0a461.592 461.592 0 0 0 40.05-147.734m-40.05 147.734c64.447 91.053 190.502 112.615 281.549 48.168a201.891 201.891 0 0 0 48.174-48.166m-40.05-147.735a461.735 461.735 0 0 0 40.05 147.734M84.44 433.092a290.917 290.917 0 0 0 18.018 36.828m0 0a98.502 98.502 0 0 0 53.79-16.1M52.806 521.658a148.998 148.998 0 0 0 49.652-51.738m-43.363-73.412a134.161 134.161 0 0 0-3.419 26.182m0-.001a74.042 74.042 0 0 0 28.765 10.402m-.001.001a99.384 99.384 0 0 0 14.349-25.293m-54.873-30.098c-11.539.184-23.079.377-34.617.578m49.221-19.862a86.476 86.476 0 0 0-14.604 19.285m0-.001a86.83 86.83 0 0 0 15.179 18.807m0 0a245.366 245.366 0 0 0 20.776-7.346m647.21-70.554a163.97 163.97 0 0 0-39.314 13.662m-4.229 26.145a135.235 135.235 0 0 0 4.229-26.145m0 0a74.015 74.015 0 0 0-28.593-11.296m0 0a99.506 99.506 0 0 0-15.091 25.001M585.81 453.82a98.531 98.531 0 0 0 53.79 16.096m0 0a290.917 290.917 0 0 0 18.016-36.824m-14.347-25.297a99.419 99.419 0 0 0 14.347 25.297m-.001 0a74.063 74.063 0 0 0 28.767-10.404m0 0a134.15 134.15 0 0 0-3.418-26.18m-20.78-7.344a248.733 248.733 0 0 0 20.78 7.344m49.796-18.231c-11.541-.205-23.08-.396-34.618-.578m-15.178 18.809a86.855 86.855 0 0 0 15.178-18.809m0 0a86.476 86.476 0 0 0-14.604-19.285m0 .001a241.102 241.102 0 0 0-21.012 6.742m-54.967 36.146a707.941 707.941 0 0 0 35.71 6.492"/>
    </g>
    <g fill="#00F" stroke="#000">
        <circle cx="644.083" cy="345.975" r="4.999"/>
        <path d="M158.54 449.375a4.999 4.999 0 0 1 2.15 6.736 4.992 4.992 0 0 1-6.734 2.152 5 5 0 1 1 4.584-8.888z"/>
        <circle cx="133.931" cy="351.604" r="4.998"/>
        <circle cx="134.5" cy="401.304" r="5"/>
        <circle cx="608.127" cy="351.601" r="5.001"/>
        <path d="M664.478 384.721a4.998 4.998 0 1 1-4.583 8.884 4.998 4.998 0 0 1-2.152-6.732 4.992 4.992 0 0 1 6.735-2.152z"/>
        <circle cx="662.524" cy="365.157" r="5"/>
        <circle cx="154.624" cy="298.36" r="5"/>
        <path d="M246.89 237.364a5 5 0 1 1-4.586 8.888 5 5 0 0 1 4.586-8.888z"/>
        <circle cx="371.028" cy="305.778" r="5"/>
        <circle cx="497.46" cy="241.807" r="5"/>
        <circle cx="58.521" cy="358.415" r="5"/>
        <path d="M56.582 327.828a4.996 4.996 0 0 1 2.152 6.734 5 5 0 1 1-2.152-6.734zm28.592-11.296a5.002 5.002 0 0 1 2.152 6.738 5.002 5.002 0 0 1-6.736 2.149 5 5 0 1 1 4.584-8.887z"/>
        <circle cx="100.02" cy="283.407" r="5"/>
        <circle cx="79.53" cy="365.159" r="4.999"/>
        <path d="M100.265 341.532a5 5 0 0 1 2.153 6.736 4.998 4.998 0 0 1-6.736 2.15 4.997 4.997 0 0 1-2.151-6.734 4.999 4.999 0 0 1 6.734-2.152z"/>
        <circle cx="98.791" cy="407.799" r="5"/>
        <path d="M82.161 384.721a4.998 4.998 0 0 1 2.152 6.734 4.996 4.996 0 0 1-6.735 2.152 5 5 0 1 1 4.583-8.886z"/>
        <circle cx="587.432" cy="298.358" r="5"/>
        <circle cx="642.038" cy="283.405" r="5"/>
        <circle cx="371.028" cy="444.21" r="5.001"/>
        <path d="M248.51 503.875a5 5 0 0 1-4.583 8.886 4.997 4.997 0 0 1-2.152-6.734 4.997 4.997 0 0 1 6.735-2.152zM19.313 433.104a4.993 4.993 0 0 1 2.15 6.732 4.998 4.998 0 0 1-6.735 2.154 5.001 5.001 0 0 1-2.152-6.736 4.995 4.995 0 0 1 6.737-2.15z"/>
        <circle cx="14.976" cy="318.61" r="5"/>
        <path d="M11.591 373.836a4.995 4.995 0 0 1 2.152 6.734 5.006 5.006 0 0 1-6.735 2.156 5.008 5.008 0 0 1-2.152-6.742 5 5 0 0 1 6.735-2.148zM203.894 87.225a5 5 0 1 1-4.586 8.886 5 5 0 0 1 4.586-8.886z"/>
        <circle cx="48.32" cy="232.526" r="5"/>
        <path d="M696.03 228.083c2.45 1.264 3.415 4.279 2.15 6.734s-4.28 3.416-6.735 2.15a4.996 4.996 0 0 1-2.15-6.734 4.994 4.994 0 0 1 6.735-2.15z"/>
        <circle cx="540.455" cy="91.667" r="4.999"/>
        <path d="M735.051 373.83a5 5 0 1 1-4.584 8.888 4.997 4.997 0 0 1-2.15-6.738 5 5 0 0 1 6.734-2.15zm-5.678-59.665a4.996 4.996 0 0 1 2.15 6.735 4.996 4.996 0 0 1-6.733 2.151 4.996 4.996 0 0 1-2.151-6.736 4.996 4.996 0 0 1 6.734-2.15z"/>
        <circle cx="643.268" cy="407.797" r="5"/>
        <path d="M498.133 503.873a5.002 5.002 0 0 1 2.152 6.736 5 5 0 1 1-8.888-4.582 5 5 0 0 1 6.736-2.154zm89.967-54.498a4.998 4.998 0 0 1 2.154 6.734 5.001 5.001 0 0 1-8.89-4.584 4.998 4.998 0 0 1 6.736-2.15zm103.443 67.836a4.993 4.993 0 0 1 2.15 6.736 4.994 4.994 0 0 1-6.732 2.15 4.998 4.998 0 0 1-2.153-6.732 4.998 4.998 0 0 1 6.735-2.154zm35.786-84.111a5 5 0 0 1 2.15 6.734 4.996 4.996 0 0 1-6.734 2.148 4.991 4.991 0 0 1-2.149-6.732 4.996 4.996 0 0 1 6.733-2.15zM208.458 651.611a4.998 4.998 0 0 1-4.582 8.882 4.998 4.998 0 0 1 4.582-8.882zm329.724-.002a4.997 4.997 0 0 1 2.152 6.732 5.002 5.002 0 0 1-6.736 2.152 4.993 4.993 0 0 1-2.15-6.73 4.993 4.993 0 0 1 6.734-2.154zm-433.433-186.13a4.997 4.997 0 0 1 2.151 6.734 4.996 4.996 0 0 1-6.736 2.148 4.997 4.997 0 1 1 4.585-8.882z"/>
        <circle cx="52.806" cy="521.657" r="4.999"/>
        <circle cx="55.675" cy="422.688" r="5"/>
        <path d="M86.734 428.65a4.996 4.996 0 0 1 2.152 6.734 5 5 0 0 1-6.737 2.152 4.997 4.997 0 0 1-2.151-6.732 4.999 4.999 0 0 1 6.736-2.154zm-40.526-55.392a4.999 4.999 0 1 1-4.585 8.884 5 5 0 0 1-2.152-6.736 5.003 5.003 0 0 1 6.737-2.148zm15.181 18.808a5 5 0 1 1-4.585 8.886 5 5 0 1 1 4.585-8.886z"/>
        <circle cx="687.766" cy="332.27" r="5.001"/>
        <path d="M661.467 316.53a5.004 5.004 0 0 1 2.152 6.736 5 5 0 1 1-2.152-6.736zm-19.575 148.947a4.999 4.999 0 1 1-4.584 8.884 5.002 5.002 0 0 1-2.151-6.736 5 5 0 0 1 6.735-2.148zm18.014-36.829a4.993 4.993 0 0 1 2.152 6.734 4.996 4.996 0 0 1-6.733 2.15 4.998 4.998 0 1 1 4.581-8.884zm28.768-10.406a4.996 4.996 0 0 1 2.151 6.736 5.003 5.003 0 0 1-6.735 2.152 5 5 0 0 1 4.584-8.888z"/>
        <circle cx="682.963" cy="396.506" r="4.999"/>
        <circle cx="698.142" cy="377.699" r="4.999"/>
        <circle cx="683.537" cy="358.413" r="4.999"/>
        <path d="M609.852 396.859a4.996 4.996 0 0 1 2.15 6.734 5.003 5.003 0 0 1-6.738 2.152 5.004 5.004 0 0 1-2.15-6.736 5.003 5.003 0 0 1 6.738-2.15z"/>
    </g>
</svg>
