<svg xmlns="http://www.w3.org/2000/svg" width="468" height="252">
    <path fill="none" stroke="#000" d="M90 90v144m0-216v72m-72 0V18h72zM90 89.999l72 71.999-72 71.999-71.999-72zM306 72V42.035"/>
    <path d="M306 36c1.054 2.84 2.852 6.363 4.756 8.547L306 42.827l-4.755 1.72c1.904-2.184 3.702-5.707 4.755-8.547z"/>
    <path fill="none" stroke="#000" d="M324 18h29.965"/>
    <path d="M360 18c-2.84 1.054-6.363 2.852-8.547 4.756l1.72-4.756-1.72-4.755c2.184 1.904 5.707 3.702 8.547 4.755z"/>
    <path fill="none" stroke="#000" d="M378 36v29.965"/>
    <path d="M378 72c-1.054-2.84-2.852-6.363-4.756-8.547l4.756 1.72 4.755-1.72C380.851 65.637 379.053 69.16 378 72z"/>
    <path fill="none" stroke="#000" d="M378 108v101.965"/>
    <path d="M378 216c-1.054-2.84-2.852-6.363-4.756-8.547l4.756 1.72 4.755-1.72c-1.904 2.184-3.702 5.707-4.755 8.547z"/>
    <path fill="none" stroke="#000" d="M364 32l-40.732 40.732"/>
    <path d="M319 77c1.263-2.753 2.483-6.516 2.681-9.407l2.146 4.579 4.579 2.146c-2.89.198-6.653 1.418-9.406 2.682z"/>
    <path fill="none" stroke="#000" d="M364 104l-40.732 40.732"/>
    <path d="M319 149c1.263-2.753 2.483-6.516 2.681-9.407l2.146 4.579 4.579 2.146c-2.89.198-6.653 1.418-9.406 2.682z"/>
    <path fill="none" stroke="#000" d="M320 176l40.732 40.732"/>
    <path d="M365 221c-2.753-1.263-6.516-2.483-9.407-2.681l4.58-2.146 2.146-4.579c.198 2.89 1.417 6.653 2.681 9.406z"/>
    <path fill="none" stroke="#000" d="M392 220l40.732-40.732"/>
    <path d="M437 175c-1.263 2.753-2.483 6.516-2.681 9.407l-2.146-4.58-4.579-2.146c2.89-.198 6.654-1.417 9.406-2.681z"/>
    <g>
        <path fill="none" stroke="#000" d="M436 148l-40.732-40.732"/>
        <path d="M391 103c2.753 1.263 6.516 2.483 9.407 2.681l-4.58 2.146-2.146 4.579c-.198-2.891-1.417-6.654-2.681-9.406z"/>
    </g>
    <g>
        <path fill="none" stroke="#AAD5EF" stroke-width="10" d="M198 126h50.877"/>
        <path fill="#AAD5EF" d="M270 126c-9.939 3.688-22.271 9.98-29.916 16.646L246.105 126l-6.021-16.642c7.645 6.665 19.977 12.957 29.916 16.642z"/>
    </g>
    <g fill="#FEC200" stroke="#000">
        <circle cx="18" cy="18" r="9"/>
        <circle cx="18" cy="90" r="9"/>
        <circle cx="90" cy="90" r="9"/>
        <circle cx="90" cy="18" r="9"/>
        <circle cx="18" cy="162" r="9"/>
        <circle cx="162" cy="162" r="9"/>
        <circle cx="90" cy="234" r="9"/>
        <circle cx="306" cy="18" r="9"/>
        <circle cx="306" cy="90" r="9"/>
        <circle cx="378" cy="90" r="9"/>
        <circle cx="378" cy="18" r="9"/>
        <circle cx="306" cy="162" r="9"/>
        <circle cx="450" cy="162" r="9"/>
        <circle cx="378" cy="234" r="9"/>
    </g>
</svg>
