<svg xmlns="http://www.w3.org/2000/svg" width="392.771" height="243.374">
    <g fill="#CCC" stroke="#999">
        <ellipse cx="319.278" cy="59.771" rx="69.276" ry="54.687"/>
        <ellipse cx="325.858" cy="125.301" rx="19.793" ry="8.434"/>
        <ellipse cx="336.651" cy="147.59" rx="14.202" ry="9.639"/>
        <ellipse cx="332.151" cy="166.265" rx="8.211" ry="7.006"/>
        <ellipse cx="80.778" cy="62.277" rx="69.276" ry="54.687"/>
        <ellipse cx="87.358" cy="127.807" rx="19.793" ry="8.434"/>
        <ellipse cx="98.151" cy="150.096" rx="14.202" ry="9.639"/>
        <ellipse cx="93.651" cy="168.771" rx="8.211" ry="7.006"/>
    </g>
    <path fill="none" stroke="#000" d="M286.901 54.771l43.697-12.485"/>
    <path d="M336.401 40.628c-2.441 1.793-5.335 4.49-6.912 6.921l.348-5.045-2.96-4.099c2.623 1.23 6.504 1.991 9.524 2.223z"/>
    <path fill="none" stroke="#000" d="M306.666 78.481l44.187-12.625"/>
    <path d="M300.863 80.139c3.021.233 6.901.994 9.525 2.225l-2.961-4.1.348-5.044c-1.577 2.43-4.471 5.127-6.912 6.919z"/>
    <path fill="none" stroke="#000" d="M174.651 204.771l-18-36 9-27m-108 72h-27m54 18l-27-18-9 27m-45-90l36 9-27 27m27-27l54 27-36 27m36-27l63-18m225 36l-18-36 9-27m-108 72h-27m54 18l-27-18-9 27m-45-90l36 9-27 27m27-27l54 27-36 27m36-27l63-18M30.688 33.123l23.296 11.648-18 13.5m18-13.5l24.689-7.054m10.384 7.406l23.296 11.648-18 13.5m18-13.5l24.689-7.054M49.021 70.456l23.296 11.648-18 13.5m18-13.5l24.689-7.054"/>
    <g fill="#FFF" stroke="#000">
        <circle cx="93.651" cy="186.771" r="9"/>
        <circle cx="39.651" cy="159.771" r="9"/>
        <circle cx="57.651" cy="213.771" r="9"/>
        <circle cx="156.651" cy="168.771" r="9"/>
        <circle cx="300.651" cy="186.771" r="9"/>
        <circle cx="246.651" cy="159.771" r="9"/>
        <circle cx="264.651" cy="213.771" r="9"/>
        <circle cx="363.651" cy="168.771" r="9"/>
        <circle cx="282.651" cy="55.771" r="9"/>
        <circle cx="345.651" cy="37.771" r="9"/>
        <circle cx="291.651" cy="82.771" r="9"/>
        <circle cx="354.651" cy="64.771" r="9"/>
    </g>
    <circle fill="#0081CD" stroke="#000" cx="53.984" cy="44.771" r="9"/>
    <circle fill="#FEC200" stroke="#000" cx="112.353" cy="56.771" r="9"/>
    <circle fill="#BC1E47" stroke="#000" cx="72.317" cy="82.104" r="9"/>
</svg>
