<svg xmlns="http://www.w3.org/2000/svg" width="468" height="513">
    <path d="M162 0v108M198 0v108M234 0v108M270 0v108M306 0v108m18-90H144m180 36H144m180 36H144" fill="none" stroke="#AAD5EF"/>
    <g fill="#FFEBAA" stroke="gray">
        <path d="M393 378h-30c-6.627 0-12 5.373-12 12v60h-60c-6.627 0-12 5.373-12 12v30c0 6.627 5.373 12 12 12h102c6.627 0 12-5.373 12-12V390c0-6.627-5.373-12-12-12zm-144 72H117v-60c0-6.627-5.373-12-12-12H75c-6.627 0-12 5.373-12 12v102c0 6.627 5.373 12 12 12h174c6.627 0 12-5.373 12-12v-30c0-6.627-5.373-12-12-12z"/>
        <path d="M333 420c0 6.627-5.373 12-12 12H219c-6.627 0-12-5.373-12-12v-30c0-6.627 5.373-12 12-12h102c6.627 0 12 5.373 12 12v30zm-144 0c0 6.627-5.373 12-12 12h-30c-6.627 0-12-5.373-12-12v-30c0-6.627 5.373-12 12-12h30c6.627 0 12 5.373 12 12v30zm216-72c0 6.627-5.373 12-12 12H75c-6.627 0-12-5.373-12-12v-30c0-6.627 5.373-12 12-12h318c6.627 0 12 5.373 12 12v30z"/>
    </g>
    <g fill="none" stroke="#231F20" stroke-width="2">
        <path d="M90 405h288m-216-72v144m72-144v144m72-144v144M90 333h288v144H90zM198 54h36m0 0l-72 36 36-36V18l36 36 72 36"/>
        <path d="M198 18l-36 72h144zM54 162l-36 72m72 0l36-36v-36m72 0l36 36m0 0l-72 36m108-72l36 36 72 36m72 0l-108-72"/>
    </g>
    <g fill="#0081CD" stroke="#231F20">
        <circle cx="198" cy="18" r="9"/>
        <circle cx="54" cy="162" r="9"/>
        <circle cx="126" cy="162" r="9"/>
        <circle cx="198" cy="162" r="9"/>
        <circle cx="270" cy="162" r="9"/>
        <circle cx="342" cy="162" r="9"/>
        <circle cx="90" cy="333" r="9"/>
        <circle cx="162" cy="333" r="9"/>
        <circle cx="234" cy="333" r="9"/>
        <circle cx="306" cy="333" r="9"/>
        <circle cx="378" cy="333" r="9"/>
    </g>
    <g fill="#009246" stroke="#231F20">
        <circle cx="198" cy="54" r="9"/>
        <circle cx="126" cy="198" r="9"/>
        <circle cx="162" cy="405" r="9"/>
    </g>
    <g fill="#FEC200" stroke="#231F20">
        <circle cx="234" cy="54" r="9"/>
        <circle cx="234" cy="198" r="9"/>
        <circle cx="306" cy="198" r="9"/>
        <circle cx="234" cy="405" r="9"/>
        <circle cx="306" cy="405" r="9"/>
    </g>
    <g fill="#BC1E47" stroke="#231F20">
        <circle cx="162" cy="90" r="9"/>
        <circle cx="18" cy="234" r="9"/>
        <circle cx="90" cy="234" r="9"/>
        <circle cx="162" cy="234" r="9"/>
        <circle cx="90" cy="405" r="9"/>
        <circle cx="90" cy="477" r="9"/>
        <circle cx="162" cy="477" r="9"/>
        <circle cx="234" cy="477" r="9"/>
    </g>
    <g fill="#FFF" stroke="#231F20">
        <circle cx="306" cy="90" r="9"/>
        <circle cx="378" cy="234" r="9"/>
        <circle cx="450" cy="234" r="9"/>
        <circle cx="378" cy="405" r="9"/>
        <circle cx="306" cy="477" r="9"/>
        <circle cx="378" cy="477" r="9"/>
    </g>
</svg>
