<?xml version="1.0" standalone="no"?>
<!DOCTYPE svg PUBLIC "-//W3C//DTD SVG 1.1//EN" 
  "http://www.w3.org/Graphics/SVG/1.1/DTD/svg11.dtd">
<svg width="429.0" height="429.0" viewBox="0 0 429.0 429.0"
     xmlns="http://www.w3.org/2000/svg" version="1.1">
  <g style="stroke:black; fill:none">
    <path d="M 216.0538,22.0894 A 88.7506,88.7506 0 0 0 87.9594,68.0536"/>
    <path d="M 343.6275,69.4796 A 88.7506,88.7506 0 0 0 216.0538,22.0894"/>
    <path d="M 258.9850,129.2849 A -338.8203,-338.8203 0 0 0 215.6239,99.1614"/>
    <line x1="215.6239" y1="99.1614" x2="216.0538" y2="22.0894"/>
    <path d="M 299.9465,124.2450 A -86.9500,-86.9500 0 0 0 258.9850,129.2849"/>
    <path d="M 258.9850,129.2849 A -116.9667,-116.9667 0 0 0 258.7017,165.0870"/>
    <path d="M 282.3187,176.5979 A -173.7923,-173.7923 0 0 0 258.7017,165.0870"/>
    <path d="M 258.7017,165.0870 A -69.9133,-69.9133 0 0 0 240.2225,187.3355"/>
    <line x1="282.3187" y1="176.5979" x2="307.6490" y2="162.1612"/>
    <path d="M 148.0694,175.8491 A -173.7923,-173.7923 0 0 0 149.9092,202.0574"/>
    <path d="M 149.9092,202.0574 A 69.9133,69.9133 0 0 0 178.4166,206.9366"/>
    <path d="M 171.8133,164.6023 A 173.7923,173.7923 0 0 0 148.0694,175.8491"/>
    <line x1="148.0694" y1="175.8491" x2="122.9017" y2="161.1307"/>
    <path d="M 171.8133,164.6023 A -116.9667,-116.9667 0 0 0 171.9294,128.7994"/>
    <path d="M 190.0432,187.0556 A -69.9133,-69.9133 0 0 0 171.8133,164.6023"/>
    <path d="M 215.6239,99.1614 A -338.8203,-338.8203 0 0 0 171.9294,128.7994"/>
    <path d="M 171.9294,128.7994 A -86.9500,-86.9500 0 0 0 131.0267,123.3028"/>
    <path d="M 343.6275,69.4796 A -1078.0467,-1078.0467 0 0 0 299.9465,124.2450"/>
    <path d="M 336.3465,188.1116 A 94.5782,94.5782 0 0 0 307.6490,162.1612"/>
    <path d="M 307.6490,162.1612 A 94.5782,94.5782 0 0 0 299.9465,124.2450"/>
    <path d="M 336.3465,188.1116 A 1078.0467,1078.0467 0 0 0 405.7274,178.4388"/>
    <path d="M 131.0267,123.3028 A -94.5782,-94.5782 0 0 0 122.9017,161.1307"/>
    <path d="M 131.0267,123.3028 A -1078.0467,-1078.0467 0 0 0 87.9594,68.0536"/>
    <path d="M 226.2946,250.6616 A -55.0699,-55.0699 0 0 0 232.6387,225.3061"/>
    <path d="M 232.6387,225.3061 A -55.0699,-55.0699 0 0 0 251.6267,207.3450"/>
    <line x1="214.9779" y1="214.9779" x2="232.6387" y2="225.3061"/>
    <line x1="214.9779" y1="214.9779" x2="197.2030" y2="225.1085"/>
    <line x1="214.9779" y1="214.9779" x2="215.0920" y2="194.5191"/>
    <path d="M 197.2030,225.1085 A -55.0699,-55.0699 0 0 0 203.2639,250.5331"/>
    <path d="M 203.2639,250.5331 A 259.3828,259.3828 0 0 0 226.2946,250.6616"/>
    <path d="M 190.0432,187.0556 A -259.3828,-259.3828 0 0 0 178.4166,206.9366"/>
    <path d="M 178.4166,206.9366 A -55.0699,-55.0699 0 0 0 197.2030,225.1085"/>
    <path d="M 240.2225,187.3355 A -55.0699,-55.0699 0 0 0 215.0920,194.5191"/>
    <path d="M 215.0920,194.5191 A -55.0699,-55.0699 0 0 0 190.0432,187.0556"/>
    <path d="M 251.6267,207.3450 A -259.3828,-259.3828 0 0 0 240.2225,187.3355"/>
    <path d="M 122.9017,161.1307 A -94.5782,-94.5782 0 0 0 93.9166,186.7594"/>
    <path d="M 87.9594,68.0536 A 81.9999,81.9999 0 0 0 24.6479,176.3133"/>
    <path d="M 24.6479,176.3133 A 1078.0467,1078.0467 0 0 0 93.9166,186.7594"/>
    <path d="M 311.1349,220.7861 A 86.9500,86.9500 0 0 0 336.3465,188.1116"/>
    <path d="M 314.9550,273.4456 A -338.8203,-338.8203 0 0 0 311.1349,220.7861"/>
    <path d="M 280.1867,202.7841 A 173.7923,173.7923 0 0 0 282.3187,176.5979"/>
    <path d="M 280.1867,202.7841 A 116.9667,116.9667 0 0 0 311.1349,220.7861"/>
    <path d="M 251.6267,207.3450 A 69.9133,69.9133 0 0 0 280.1867,202.7841"/>
    <path d="M 251.0707,333.9293 A -86.9500,-86.9500 0 0 0 267.1867,295.9357"/>
    <path d="M 267.1867,295.9357 A -116.9667,-116.9667 0 0 0 236.3228,277.7893"/>
    <path d="M 267.1867,295.9357 A 338.8203,338.8203 0 0 0 314.9550,273.4456"/>
    <line x1="314.9550" y1="273.4456" x2="381.4864" y2="312.3539"/>
    <path d="M 192.9337,277.5473 A 173.7923,173.7923 0 0 0 214.5456,292.4868"/>
    <line x1="214.5456" y1="292.4868" x2="214.3830" y2="321.6418"/>
    <path d="M 214.5456,292.4868 A 173.7923,173.7923 0 0 0 236.3228,277.7893"/>
    <path d="M 236.3228,277.7893 A -69.9133,-69.9133 0 0 0 226.2946,250.6616"/>
    <path d="M 114.3548,272.3268 A 338.8203,338.8203 0 0 0 161.8694,295.3483"/>
    <path d="M 161.8694,295.3483 A 86.9500,86.9500 0 0 0 177.5605,333.5193"/>
    <path d="M 192.9337,277.5473 A -116.9667,-116.9667 0 0 0 161.8694,295.3483"/>
    <path d="M 203.2639,250.5331 A -69.9133,-69.9133 0 0 0 192.9337,277.5473"/>
    <path d="M 93.9166,186.7594 A 86.9500,86.9500 0 0 0 118.7621,219.7131"/>
    <path d="M 118.7621,219.7131 A 116.9667,116.9667 0 0 0 149.9092,202.0574"/>
    <path d="M 118.7621,219.7131 A 338.8203,338.8203 0 0 0 114.3548,272.3268"/>
    <line x1="114.3548" y1="272.3268" x2="47.3936" y2="310.4905"/>
    <path d="M 276.6584,399.1409 A 88.7506,88.7506 0 0 0 381.4864,312.3539"/>
    <path d="M 381.4864,312.3539 A 88.7506,88.7506 0 0 0 405.7274,178.4388"/>
    <path d="M 405.7274,178.4388 A 81.9999,81.9999 0 0 0 343.6275,69.4796"/>
    <path d="M 24.6479,176.3133 A 88.7506,88.7506 0 0 0 47.3936,310.4905"/>
    <path d="M 47.3936,310.4905 A 88.7506,88.7506 0 0 0 151.2470,398.4414"/>
    <path d="M 177.5605,333.5193 A -1078.0467,-1078.0467 0 0 0 151.2470,398.4414"/>
    <path d="M 177.5605,333.5193 A 94.5782,94.5782 0 0 0 214.3830,321.6418"/>
    <path d="M 214.3830,321.6418 A 94.5782,94.5782 0 0 0 251.0707,333.9293"/>
    <path d="M 151.2470,398.4414 A 81.9999,81.9999 0 0 0 276.6584,399.1409"/>
    <path d="M 276.6584,399.1409 A -1078.0467,-1078.0467 0 0 0 251.0707,333.9293"/>
  </g>
  <g style="stroke:black; fill:blue">
    <circle cx="87.9594" cy="68.0536" r="5.0000"/>
    <circle cx="216.0538" cy="22.0894" r="5.0000"/>
    <circle cx="215.6239" cy="99.1614" r="5.0000"/>
    <circle cx="258.9850" cy="129.2849" r="5.0000"/>
    <circle cx="258.7017" cy="165.0870" r="5.0000"/>
    <circle cx="282.3187" cy="176.5979" r="5.0000"/>
    <circle cx="149.9092" cy="202.0574" r="5.0000"/>
    <circle cx="148.0694" cy="175.8491" r="5.0000"/>
    <circle cx="171.8133" cy="164.6023" r="5.0000"/>
    <circle cx="171.9294" cy="128.7994" r="5.0000"/>
    <circle cx="343.6275" cy="69.4796" r="5.0000"/>
    <circle cx="307.6490" cy="162.1612" r="5.0000"/>
    <circle cx="336.3465" cy="188.1116" r="5.0000"/>
    <circle cx="122.9017" cy="161.1307" r="5.0000"/>
    <circle cx="131.0267" cy="123.3028" r="5.0000"/>
    <circle cx="232.6387" cy="225.3061" r="5.0000"/>
    <circle cx="214.9779" cy="214.9779" r="5.0000"/>
    <circle cx="203.2639" cy="250.5331" r="5.0000"/>
    <circle cx="226.2946" cy="250.6616" r="5.0000"/>
    <circle cx="178.4166" cy="206.9366" r="5.0000"/>
    <circle cx="197.2030" cy="225.1085" r="5.0000"/>
    <circle cx="215.0920" cy="194.5191" r="5.0000"/>
    <circle cx="190.0432" cy="187.0556" r="5.0000"/>
    <circle cx="251.6267" cy="207.3450" r="5.0000"/>
    <circle cx="240.2225" cy="187.3355" r="5.0000"/>
    <circle cx="93.9166" cy="186.7594" r="5.0000"/>
    <circle cx="24.6479" cy="176.3133" r="5.0000"/>
    <circle cx="299.9465" cy="124.2450" r="5.0000"/>
    <circle cx="311.1349" cy="220.7861" r="5.0000"/>
    <circle cx="280.1867" cy="202.7841" r="5.0000"/>
    <circle cx="267.1867" cy="295.9357" r="5.0000"/>
    <circle cx="314.9550" cy="273.4456" r="5.0000"/>
    <circle cx="214.5456" cy="292.4868" r="5.0000"/>
    <circle cx="236.3228" cy="277.7893" r="5.0000"/>
    <circle cx="161.8694" cy="295.3483" r="5.0000"/>
    <circle cx="192.9337" cy="277.5473" r="5.0000"/>
    <circle cx="118.7621" cy="219.7131" r="5.0000"/>
    <circle cx="114.3548" cy="272.3268" r="5.0000"/>
    <circle cx="381.4864" cy="312.3539" r="5.0000"/>
    <circle cx="405.7274" cy="178.4388" r="5.0000"/>
    <circle cx="47.3936" cy="310.4905" r="5.0000"/>
    <circle cx="151.2470" cy="398.4414" r="5.0000"/>
    <circle cx="177.5605" cy="333.5193" r="5.0000"/>
    <circle cx="214.3830" cy="321.6418" r="5.0000"/>
    <circle cx="251.0707" cy="333.9293" r="5.0000"/>
    <circle cx="276.6584" cy="399.1409" r="5.0000"/>
  </g>
</svg>
