<svg xmlns="http://www.w3.org/2000/svg" width="666" height="612">
    <g stroke="#000">
        <path fill="#2E3F73" d="M346.5 306v67.5l40.5 27V333z"/>
        <path fill="#7C98EB" d="M387 333l67.5-13.5V387L387 400.5z"/>
        <path fill="#DEE5FA" d="M346.5 306l67.5-13.5 40.5 27L387 333z"/>
    </g>
    <g stroke="#000">
        <path fill="#2E3F73" d="M346.5 238.5V306l40.5 27v-67.5z"/>
        <path fill="#7C98EB" d="M387 265.5l67.5-13.5v67.5L387 333z"/>
        <path fill="#DEE5FA" d="M346.5 238.5L414 225l40.5 27-67.5 13.5z"/>
    </g>
    <g stroke="#000">
        <path fill="#2E3F73" d="M346.5 171v67.5l40.5 27V198z"/>
        <path fill="#7C98EB" d="M387 198l67.5-13.5V252L387 265.5z"/>
        <path fill="#DEE5FA" d="M346.5 171l67.5-13.5 40.5 27L387 198z"/>
    </g>
    <g stroke="#000">
        <path fill="#73732E" d="M387 333v67.5l40.5 27V360z"/>
        <path fill="#E6E65C" d="M427.5 360l67.5-13.5V414l-67.5 13.5z"/>
        <path fill="#F5F5BE" d="M387 333l67.5-13.5 40.5 27-67.5 13.5z"/>
    </g>
    <g stroke="#000">
        <path fill="#73732E" d="M387 265.5V333l40.5 27v-67.5z"/>
        <path fill="#E6E65C" d="M427.5 292.5L495 279v67.5L427.5 360z"/>
        <path fill="#F5F5BE" d="M387 265.5l67.5-13.5 40.5 27-67.5 13.5z"/>
    </g>
    <g stroke="#000">
        <path fill="#73732E" d="M387 198v67.5l40.5 27V225z"/>
        <path fill="#E6E65C" d="M427.5 225l67.5-13.5V279l-67.5 13.5z"/>
        <path fill="#F5F5BE" d="M387 198l67.5-13.5 40.5 27-67.5 13.5z"/>
    </g>
    <g stroke="#000">
        <path fill="#733939" d="M427.5 360v67.5l40.5 27V387z"/>
        <path fill="#E67373" d="M468 387l67.5-13.5V441L468 454.5z"/>
        <path fill="#F5C7C7" d="M427.5 360l67.5-13.5 40.5 27L468 387z"/>
    </g>
    <g stroke="#000">
        <path fill="#733939" d="M427.5 292.5V360l40.5 27v-67.5z"/>
        <path fill="#E67373" d="M468 319.5l67.5-13.5v67.5L468 387z"/>
        <path fill="#F5C7C7" d="M427.5 292.5L495 279l40.5 27-67.5 13.5z"/>
    </g>
    <g stroke="#000">
        <path fill="#733939" d="M427.5 225v67.5l40.5 27V252z"/>
        <path fill="#E67373" d="M468 252l67.5-13.5V306L468 319.5z"/>
        <path fill="#F5C7C7" d="M427.5 225l67.5-13.5 40.5 27L468 252z"/>
    </g>
    <g stroke="#000">
        <path fill="#733939" d="M427.5 157.5V225l40.5 27v-67.5z"/>
        <path fill="#E67373" d="M468 184.5l67.5-13.5v67.5L468 252z"/>
        <path fill="#F5C7C7" d="M427.5 157.5L495 144l40.5 27-67.5 13.5z"/>
    </g>
    <g stroke="#000">
        <path fill="#73732E" d="M468 387v67.5l40.5 27V414z"/>
        <path fill="#E6E65C" d="M508.5 414l67.5-13.5V468l-67.5 13.5z"/>
        <path fill="#F5F5BE" d="M468 387l67.5-13.5 40.5 27-67.5 13.5z"/>
    </g>
    <g stroke="#000">
        <path fill="#73732E" d="M468 319.5V387l40.5 27v-67.5z"/>
        <path fill="#E6E65C" d="M508.5 346.5L576 333v67.5L508.5 414z"/>
        <path fill="#F5F5BE" d="M468 319.5l67.5-13.5 40.5 27-67.5 13.5z"/>
    </g>
    <g stroke="#000">
        <path fill="#73732E" d="M468 252v67.5l40.5 27V279z"/>
        <path fill="#E6E65C" d="M508.5 279l67.5-13.5V333l-67.5 13.5z"/>
        <path fill="#F5F5BE" d="M468 252l67.5-13.5 40.5 27-67.5 13.5z"/>
    </g>
    <g stroke="#000">
        <path fill="#733939" d="M508.5 414v67.5l40.5 27V441z"/>
        <path fill="#E67373" d="M549 441l67.5-13.5V495L549 508.5z"/>
        <path fill="#F5C7C7" d="M508.5 414l67.5-13.5 40.5 27L549 441z"/>
    </g>
    <g stroke="#000">
        <path fill="#733939" d="M508.5 346.5V414l40.5 27v-67.5z"/>
        <path fill="#E67373" d="M549 373.5l67.5-13.5v67.5L549 441z"/>
        <path fill="#F5C7C7" d="M508.5 346.5L576 333l40.5 27-67.5 13.5z"/>
    </g>
    <g stroke="#000">
        <path fill="#733939" d="M508.5 279v67.5l40.5 27V306z"/>
        <path fill="#E67373" d="M549 306l67.5-13.5V360L549 373.5z"/>
        <path fill="#F5C7C7" d="M508.5 279l67.5-13.5 40.5 27L549 306z"/>
    </g>
    <g stroke="#000">
        <path fill="#733939" d="M508.5 211.5V279l40.5 27v-67.5z"/>
        <path fill="#E67373" d="M549 238.5l67.5-13.5v67.5L549 306z"/>
        <path fill="#F5C7C7" d="M508.5 211.5L576 198l40.5 27-67.5 13.5z"/>
    </g>
    <g stroke="#000">
        <path fill="#2E3F73" d="M549 441v67.5l40.5 27V468z"/>
        <path fill="#7C98EB" d="M589.5 468l67.5-13.5V522l-67.5 13.5z"/>
        <path fill="#DEE5FA" d="M549 441l67.5-13.5 40.5 27-67.5 13.5z"/>
    </g>
    <g stroke="#000">
        <path fill="#2E3F73" d="M549 373.5V441l40.5 27v-67.5z"/>
        <path fill="#7C98EB" d="M589.5 400.5L657 387v67.5L589.5 468z"/>
        <path fill="#DEE5FA" d="M549 373.5l67.5-13.5 40.5 27-67.5 13.5z"/>
    </g>
    <g stroke="#000">
        <path fill="#2E3F73" d="M549 306v67.5l40.5 27V333z"/>
        <path fill="#7C98EB" d="M589.5 333l67.5-13.5V387l-67.5 13.5z"/>
        <path fill="#DEE5FA" d="M549 306l67.5-13.5 40.5 27-67.5 13.5z"/>
    </g>
    <g stroke="#000">
        <path fill="#2E3F73" d="M549 238.5V306l40.5 27v-67.5z"/>
        <path fill="#7C98EB" d="M589.5 265.5L657 252v67.5L589.5 333z"/>
        <path fill="#DEE5FA" d="M549 238.5l67.5-13.5 40.5 27-67.5 13.5z"/>
    </g>
    <g stroke="#000">
        <path fill="#2E3F73" d="M549 171v67.5l40.5 27V198z"/>
        <path fill="#7C98EB" d="M589.5 198l67.5-13.5V252l-67.5 13.5z"/>
        <path fill="#DEE5FA" d="M549 171l67.5-13.5 40.5 27-67.5 13.5z"/>
    </g>
    <g stroke="#000">
        <path fill="#73732E" d="M279 319.5V387l40.5 27v-67.5z"/>
        <path fill="#E6E65C" d="M319.5 346.5L387 333v67.5L319.5 414z"/>
        <path fill="#F5F5BE" d="M279 319.5l67.5-13.5 40.5 27-67.5 13.5z"/>
    </g>
    <g stroke="#000">
        <path fill="#73732E" d="M279 252v67.5l40.5 27V279z"/>
        <path fill="#E6E65C" d="M319.5 279l67.5-13.5V333l-67.5 13.5z"/>
        <path fill="#F5F5BE" d="M279 252l67.5-13.5 40.5 27-67.5 13.5z"/>
    </g>
    <g stroke="#000">
        <path fill="#73732E" d="M279 184.5V252l40.5 27v-67.5z"/>
        <path fill="#E6E65C" d="M319.5 211.5L387 198v67.5L319.5 279z"/>
        <path fill="#F5F5BE" d="M279 184.5l67.5-13.5 40.5 27-67.5 13.5z"/>
    </g>
    <g stroke="#000">
        <path fill="#733939" d="M319.5 346.5V414l40.5 27v-67.5z"/>
        <path fill="#E67373" d="M360 373.5l67.5-13.5v67.5L360 441z"/>
        <path fill="#F5C7C7" d="M319.5 346.5L387 333l40.5 27-67.5 13.5z"/>
    </g>
    <g stroke="#000">
        <path fill="#733939" d="M319.5 279v67.5l40.5 27V306z"/>
        <path fill="#E67373" d="M360 306l67.5-13.5V360L360 373.5z"/>
        <path fill="#F5C7C7" d="M319.5 279l67.5-13.5 40.5 27L360 306z"/>
    </g>
    <g stroke="#000">
        <path fill="#733939" d="M319.5 211.5V279l40.5 27v-67.5z"/>
        <path fill="#E67373" d="M360 238.5l67.5-13.5v67.5L360 306z"/>
        <path fill="#F5C7C7" d="M319.5 211.5L387 198l40.5 27-67.5 13.5z"/>
    </g>
    <g stroke="#000">
        <path fill="#733939" d="M319.5 144v67.5l40.5 27V171z"/>
        <path fill="#E67373" d="M360 171l67.5-13.5V225L360 238.5z"/>
        <path fill="#F5C7C7" d="M319.5 144l67.5-13.5 40.5 27L360 171z"/>
    </g>
    <g stroke="#000">
        <path fill="#73732E" d="M360 373.5V441l40.5 27v-67.5z"/>
        <path fill="#E6E65C" d="M400.5 400.5L468 387v67.5L400.5 468z"/>
        <path fill="#F5F5BE" d="M360 373.5l67.5-13.5 40.5 27-67.5 13.5z"/>
    </g>
    <g stroke="#000">
        <path fill="#73732E" d="M360 306v67.5l40.5 27V333z"/>
        <path fill="#E6E65C" d="M400.5 333l67.5-13.5V387l-67.5 13.5z"/>
        <path fill="#F5F5BE" d="M360 306l67.5-13.5 40.5 27-67.5 13.5z"/>
    </g>
    <g stroke="#000">
        <path fill="#73732E" d="M360 238.5V306l40.5 27v-67.5z"/>
        <path fill="#E6E65C" d="M400.5 265.5L468 252v67.5L400.5 333z"/>
        <path fill="#F5F5BE" d="M360 238.5l67.5-13.5 40.5 27-67.5 13.5z"/>
    </g>
    <g stroke="#000">
        <path fill="#733939" d="M400.5 400.5V468l40.5 27v-67.5z"/>
        <path fill="#E67373" d="M441 427.5l67.5-13.5v67.5L441 495z"/>
        <path fill="#F5C7C7" d="M400.5 400.5L468 387l40.5 27-67.5 13.5z"/>
    </g>
    <g stroke="#000">
        <path fill="#733939" d="M400.5 333v67.5l40.5 27V360z"/>
        <path fill="#E67373" d="M441 360l67.5-13.5V414L441 427.5z"/>
        <path fill="#F5C7C7" d="M400.5 333l67.5-13.5 40.5 27L441 360z"/>
    </g>
    <g stroke="#000">
        <path fill="#733939" d="M400.5 265.5V333l40.5 27v-67.5z"/>
        <path fill="#E67373" d="M441 292.5l67.5-13.5v67.5L441 360z"/>
        <path fill="#F5C7C7" d="M400.5 265.5L468 252l40.5 27-67.5 13.5z"/>
    </g>
    <g stroke="#000">
        <path fill="#733939" d="M400.5 198v67.5l40.5 27V225z"/>
        <path fill="#E67373" d="M441 225l67.5-13.5V279L441 292.5z"/>
        <path fill="#F5C7C7" d="M400.5 198l67.5-13.5 40.5 27L441 225z"/>
    </g>
    <g stroke="#000">
        <path fill="#73732E" d="M441 427.5V495l40.5 27v-67.5z"/>
        <path fill="#E6E65C" d="M481.5 454.5L549 441v67.5L481.5 522z"/>
        <path fill="#F5F5BE" d="M441 427.5l67.5-13.5 40.5 27-67.5 13.5z"/>
    </g>
    <g stroke="#000">
        <path fill="#73732E" d="M441 360v67.5l40.5 27V387z"/>
        <path fill="#E6E65C" d="M481.5 387l67.5-13.5V441l-67.5 13.5z"/>
        <path fill="#F5F5BE" d="M441 360l67.5-13.5 40.5 27-67.5 13.5z"/>
    </g>
    <g stroke="#000">
        <path fill="#73732E" d="M441 292.5V360l40.5 27v-67.5z"/>
        <path fill="#E6E65C" d="M481.5 319.5L549 306v67.5L481.5 387z"/>
        <path fill="#F5F5BE" d="M441 292.5l67.5-13.5 40.5 27-67.5 13.5z"/>
    </g>
    <g stroke="#000">
        <path fill="#733939" d="M481.5 454.5V522l40.5 27v-67.5z"/>
        <path fill="#E67373" d="M522 481.5l67.5-13.5v67.5L522 549z"/>
        <path fill="#F5C7C7" d="M481.5 454.5L549 441l40.5 27-67.5 13.5z"/>
    </g>
    <g stroke="#000">
        <path fill="#733939" d="M481.5 387v67.5l40.5 27V414z"/>
        <path fill="#E67373" d="M522 414l67.5-13.5V468L522 481.5z"/>
        <path fill="#F5C7C7" d="M481.5 387l67.5-13.5 40.5 27L522 414z"/>
    </g>
    <g stroke="#000">
        <path fill="#733939" d="M481.5 319.5V387l40.5 27v-67.5z"/>
        <path fill="#E67373" d="M522 346.5l67.5-13.5v67.5L522 414z"/>
        <path fill="#F5C7C7" d="M481.5 319.5L549 306l40.5 27-67.5 13.5z"/>
    </g>
    <g stroke="#000">
        <path fill="#733939" d="M481.5 252v67.5l40.5 27V279z"/>
        <path fill="#E67373" d="M522 279l67.5-13.5V333L522 346.5z"/>
        <path fill="#F5C7C7" d="M481.5 252l67.5-13.5 40.5 27L522 279z"/>
    </g>
    <g stroke="#000">
        <path fill="#733939" d="M211.5 333v67.5l40.5 27V360z"/>
        <path fill="#E67373" d="M252 360l67.5-13.5V414L252 427.5z"/>
        <path fill="#F5C7C7" d="M211.5 333l67.5-13.5 40.5 27L252 360z"/>
    </g>
    <g stroke="#000">
        <path fill="#733939" d="M211.5 265.5V333l40.5 27v-67.5z"/>
        <path fill="#E67373" d="M252 292.5l67.5-13.5v67.5L252 360z"/>
        <path fill="#F5C7C7" d="M211.5 265.5L279 252l40.5 27-67.5 13.5z"/>
    </g>
    <g stroke="#000">
        <path fill="#733939" d="M211.5 198v67.5l40.5 27V225z"/>
        <path fill="#E67373" d="M252 225l67.5-13.5V279L252 292.5z"/>
        <path fill="#F5C7C7" d="M211.5 198l67.5-13.5 40.5 27L252 225z"/>
    </g>
    <g stroke="#000">
        <path fill="#733939" d="M211.5 130.5V198l40.5 27v-67.5z"/>
        <path fill="#E67373" d="M252 157.5l67.5-13.5v67.5L252 225z"/>
        <path fill="#F5C7C7" d="M211.5 130.5L279 117l40.5 27-67.5 13.5z"/>
    </g>
    <g stroke="#000">
        <path fill="#2E3F73" d="M252 360v67.5l40.5 27V387z"/>
        <path fill="#7C98EB" d="M292.5 387l67.5-13.5V441l-67.5 13.5z"/>
        <path fill="#DEE5FA" d="M252 360l67.5-13.5 40.5 27-67.5 13.5z"/>
    </g>
    <g stroke="#000">
        <path fill="#2E3F73" d="M252 292.5V360l40.5 27v-67.5z"/>
        <path fill="#7C98EB" d="M292.5 319.5L360 306v67.5L292.5 387z"/>
        <path fill="#DEE5FA" d="M252 292.5l67.5-13.5 40.5 27-67.5 13.5z"/>
    </g>
    <g stroke="#000">
        <path fill="#2E3F73" d="M252 225v67.5l40.5 27V252z"/>
        <path fill="#7C98EB" d="M292.5 252l67.5-13.5V306l-67.5 13.5z"/>
        <path fill="#DEE5FA" d="M252 225l67.5-13.5 40.5 27-67.5 13.5z"/>
    </g>
    <g stroke="#000">
        <path fill="#2E3F73" d="M252 157.5V225l40.5 27v-67.5z"/>
        <path fill="#7C98EB" d="M292.5 184.5L360 171v67.5L292.5 252z"/>
        <path fill="#DEE5FA" d="M252 157.5l67.5-13.5 40.5 27-67.5 13.5z"/>
    </g>
    <g stroke="#000">
        <path fill="#2E3F73" d="M252 90v67.5l40.5 27V117z"/>
        <path fill="#7C98EB" d="M292.5 117l67.5-13.5V171l-67.5 13.5z"/>
        <path fill="#DEE5FA" d="M252 90l67.5-13.5 40.5 27-67.5 13.5z"/>
    </g>
    <g stroke="#000">
        <path fill="#733939" d="M292.5 387v67.5l40.5 27V414z"/>
        <path fill="#E67373" d="M333 414l67.5-13.5V468L333 481.5z"/>
        <path fill="#F5C7C7" d="M292.5 387l67.5-13.5 40.5 27L333 414z"/>
    </g>
    <g stroke="#000">
        <path fill="#733939" d="M292.5 319.5V387l40.5 27v-67.5z"/>
        <path fill="#E67373" d="M333 346.5l67.5-13.5v67.5L333 414z"/>
        <path fill="#F5C7C7" d="M292.5 319.5L360 306l40.5 27-67.5 13.5z"/>
    </g>
    <g stroke="#000">
        <path fill="#733939" d="M292.5 252v67.5l40.5 27V279z"/>
        <path fill="#E67373" d="M333 279l67.5-13.5V333L333 346.5z"/>
        <path fill="#F5C7C7" d="M292.5 252l67.5-13.5 40.5 27L333 279z"/>
    </g>
    <g stroke="#000">
        <path fill="#733939" d="M292.5 184.5V252l40.5 27v-67.5z"/>
        <path fill="#E67373" d="M333 211.5l67.5-13.5v67.5L333 279z"/>
        <path fill="#F5C7C7" d="M292.5 184.5L360 171l40.5 27-67.5 13.5z"/>
    </g>
    <g stroke="#000">
        <path fill="#73732E" d="M333 414v67.5l40.5 27V441z"/>
        <path fill="#E6E65C" d="M373.5 441l67.5-13.5V495l-67.5 13.5z"/>
        <path fill="#F5F5BE" d="M333 414l67.5-13.5 40.5 27-67.5 13.5z"/>
    </g>
    <g stroke="#000">
        <path fill="#73732E" d="M333 346.5V414l40.5 27v-67.5z"/>
        <path fill="#E6E65C" d="M373.5 373.5L441 360v67.5L373.5 441z"/>
        <path fill="#F5F5BE" d="M333 346.5l67.5-13.5 40.5 27-67.5 13.5z"/>
    </g>
    <g stroke="#000">
        <path fill="#73732E" d="M333 279v67.5l40.5 27V306z"/>
        <path fill="#E6E65C" d="M373.5 306l67.5-13.5V360l-67.5 13.5z"/>
        <path fill="#F5F5BE" d="M333 279l67.5-13.5 40.5 27-67.5 13.5z"/>
    </g>
    <g stroke="#000">
        <path fill="#2E3F73" d="M373.5 441v67.5l40.5 27V468z"/>
        <path fill="#7C98EB" d="M414 468l67.5-13.5V522L414 535.5z"/>
        <path fill="#DEE5FA" d="M373.5 441l67.5-13.5 40.5 27L414 468z"/>
    </g>
    <g stroke="#000">
        <path fill="#2E3F73" d="M373.5 373.5V441l40.5 27v-67.5z"/>
        <path fill="#7C98EB" d="M414 400.5l67.5-13.5v67.5L414 468z"/>
        <path fill="#DEE5FA" d="M373.5 373.5L441 360l40.5 27-67.5 13.5z"/>
    </g>
    <g stroke="#000">
        <path fill="#73732E" d="M414 468v67.5l40.5 27V495z"/>
        <path fill="#E6E65C" d="M454.5 495l67.5-13.5V549l-67.5 13.5z"/>
        <path fill="#F5F5BE" d="M414 468l67.5-13.5 40.5 27-67.5 13.5z"/>
    </g>
    <g stroke="#000">
        <path fill="#73732E" d="M414 400.5V468l40.5 27v-67.5z"/>
        <path fill="#E6E65C" d="M454.5 427.5L522 414v67.5L454.5 495z"/>
        <path fill="#F5F5BE" d="M414 400.5l67.5-13.5 40.5 27-67.5 13.5z"/>
    </g>
    <g stroke="#000">
        <path fill="#73732E" d="M414 333v67.5l40.5 27V360z"/>
        <path fill="#E6E65C" d="M454.5 360l67.5-13.5V414l-67.5 13.5z"/>
        <path fill="#F5F5BE" d="M414 333l67.5-13.5 40.5 27-67.5 13.5z"/>
    </g>
    <g stroke="#000">
        <path fill="#2E3F73" d="M144 346.5V414l40.5 27v-67.5z"/>
        <path fill="#7C98EB" d="M184.5 373.5L252 360v67.5L184.5 441z"/>
        <path fill="#DEE5FA" d="M144 346.5l67.5-13.5 40.5 27-67.5 13.5z"/>
    </g>
    <g stroke="#000">
        <path fill="#2E3F73" d="M144 279v67.5l40.5 27V306z"/>
        <path fill="#7C98EB" d="M184.5 306l67.5-13.5V360l-67.5 13.5z"/>
        <path fill="#DEE5FA" d="M144 279l67.5-13.5 40.5 27-67.5 13.5z"/>
    </g>
    <g stroke="#000">
        <path fill="#2E3F73" d="M144 211.5V279l40.5 27v-67.5z"/>
        <path fill="#7C98EB" d="M184.5 238.5L252 225v67.5L184.5 306z"/>
        <path fill="#DEE5FA" d="M144 211.5l67.5-13.5 40.5 27-67.5 13.5z"/>
    </g>
    <g stroke="#000">
        <path fill="#2E3F73" d="M144 144v67.5l40.5 27V171z"/>
        <path fill="#7C98EB" d="M184.5 171l67.5-13.5V225l-67.5 13.5z"/>
        <path fill="#DEE5FA" d="M144 144l67.5-13.5 40.5 27-67.5 13.5z"/>
    </g>
    <g stroke="#000">
        <path fill="#2E3F73" d="M144 76.5V144l40.5 27v-67.5z"/>
        <path fill="#7C98EB" d="M184.5 103.5L252 90v67.5L184.5 171z"/>
        <path fill="#DEE5FA" d="M144 76.5L211.5 63 252 90l-67.5 13.5z"/>
    </g>
    <g stroke="#000">
        <path fill="#733939" d="M184.5 373.5V441l40.5 27v-67.5z"/>
        <path fill="#E67373" d="M225 400.5l67.5-13.5v67.5L225 468z"/>
        <path fill="#F5C7C7" d="M184.5 373.5L252 360l40.5 27-67.5 13.5z"/>
    </g>
    <g stroke="#000">
        <path fill="#733939" d="M184.5 306v67.5l40.5 27V333z"/>
        <path fill="#E67373" d="M225 333l67.5-13.5V387L225 400.5z"/>
        <path fill="#F5C7C7" d="M184.5 306l67.5-13.5 40.5 27L225 333z"/>
    </g>
    <g stroke="#000">
        <path fill="#733939" d="M184.5 238.5V306l40.5 27v-67.5z"/>
        <path fill="#E67373" d="M225 265.5l67.5-13.5v67.5L225 333z"/>
        <path fill="#F5C7C7" d="M184.5 238.5L252 225l40.5 27-67.5 13.5z"/>
    </g>
    <g stroke="#000">
        <path fill="#733939" d="M184.5 171v67.5l40.5 27V198z"/>
        <path fill="#E67373" d="M225 198l67.5-13.5V252L225 265.5z"/>
        <path fill="#F5C7C7" d="M184.5 171l67.5-13.5 40.5 27L225 198z"/>
    </g>
    <g stroke="#000">
        <path fill="#73732E" d="M225 400.5V468l40.5 27v-67.5z"/>
        <path fill="#E6E65C" d="M265.5 427.5L333 414v67.5L265.5 495z"/>
        <path fill="#F5F5BE" d="M225 400.5l67.5-13.5 40.5 27-67.5 13.5z"/>
    </g>
    <g stroke="#000">
        <path fill="#73732E" d="M225 333v67.5l40.5 27V360z"/>
        <path fill="#E6E65C" d="M265.5 360l67.5-13.5V414l-67.5 13.5z"/>
        <path fill="#F5F5BE" d="M225 333l67.5-13.5 40.5 27-67.5 13.5z"/>
    </g>
    <g stroke="#000">
        <path fill="#73732E" d="M225 265.5V333l40.5 27v-67.5z"/>
        <path fill="#E6E65C" d="M265.5 292.5L333 279v67.5L265.5 360z"/>
        <path fill="#F5F5BE" d="M225 265.5l67.5-13.5 40.5 27-67.5 13.5z"/>
    </g>
    <g stroke="#000">
        <path fill="#2E3F73" d="M265.5 427.5V495l40.5 27v-67.5z"/>
        <path fill="#7C98EB" d="M306 454.5l67.5-13.5v67.5L306 522z"/>
        <path fill="#DEE5FA" d="M265.5 427.5L333 414l40.5 27-67.5 13.5z"/>
    </g>
    <g stroke="#000">
        <path fill="#2E3F73" d="M265.5 360v67.5l40.5 27V387z"/>
        <path fill="#7C98EB" d="M306 387l67.5-13.5V441L306 454.5z"/>
        <path fill="#DEE5FA" d="M265.5 360l67.5-13.5 40.5 27L306 387z"/>
    </g>
    <g stroke="#000">
        <path fill="#733939" d="M306 454.5V522l40.5 27v-67.5z"/>
        <path fill="#E67373" d="M346.5 481.5L414 468v67.5L346.5 549z"/>
        <path fill="#F5C7C7" d="M306 454.5l67.5-13.5 40.5 27-67.5 13.5z"/>
    </g>
    <g stroke="#000">
        <path fill="#2E3F73" d="M346.5 481.5V549l40.5 27v-67.5z"/>
        <path fill="#7C98EB" d="M387 508.5l67.5-13.5v67.5L387 576z"/>
        <path fill="#DEE5FA" d="M346.5 481.5L414 468l40.5 27-67.5 13.5z"/>
    </g>
    <g stroke="#000">
        <path fill="#2E3F73" d="M346.5 414v67.5l40.5 27V441z"/>
        <path fill="#7C98EB" d="M387 441l67.5-13.5V495L387 508.5z"/>
        <path fill="#DEE5FA" d="M346.5 414l67.5-13.5 40.5 27L387 441z"/>
    </g>
    <g stroke="#000">
        <path fill="#73732E" d="M76.5 360v67.5l40.5 27V387z"/>
        <path fill="#E6E65C" d="M117 387l67.5-13.5V441L117 454.5z"/>
        <path fill="#F5F5BE" d="M76.5 360l67.5-13.5 40.5 27L117 387z"/>
    </g>
    <g stroke="#000">
        <path fill="#73732E" d="M76.5 292.5V360l40.5 27v-67.5z"/>
        <path fill="#E6E65C" d="M117 319.5l67.5-13.5v67.5L117 387z"/>
        <path fill="#F5F5BE" d="M76.5 292.5L144 279l40.5 27-67.5 13.5z"/>
    </g>
    <g stroke="#000">
        <path fill="#73732E" d="M76.5 225v67.5l40.5 27V252z"/>
        <path fill="#E6E65C" d="M117 252l67.5-13.5V306L117 319.5z"/>
        <path fill="#F5F5BE" d="M76.5 225l67.5-13.5 40.5 27L117 252z"/>
    </g>
    <g stroke="#000">
        <path fill="#73732E" d="M76.5 157.5V225l40.5 27v-67.5z"/>
        <path fill="#E6E65C" d="M117 184.5l67.5-13.5v67.5L117 252z"/>
        <path fill="#F5F5BE" d="M76.5 157.5L144 144l40.5 27-67.5 13.5z"/>
    </g>
    <g stroke="#000">
        <path fill="#73732E" d="M76.5 90v67.5l40.5 27V117z"/>
        <path fill="#E6E65C" d="M117 117l67.5-13.5V171L117 184.5z"/>
        <path fill="#F5F5BE" d="M76.5 90L144 76.5l40.5 27L117 117z"/>
    </g>
    <g stroke="#000">
        <path fill="#73732E" d="M76.5 22.5V90l40.5 27V49.5z"/>
        <path fill="#E6E65C" d="M117 49.5L184.5 36v67.5L117 117z"/>
        <path fill="#F5F5BE" d="M76.5 22.5L144 9l40.5 27L117 49.5z"/>
    </g>
    <g stroke="#000">
        <path fill="#2E3F73" d="M117 387v67.5l40.5 27V414z"/>
        <path fill="#7C98EB" d="M157.5 414l67.5-13.5V468l-67.5 13.5z"/>
        <path fill="#DEE5FA" d="M117 387l67.5-13.5 40.5 27-67.5 13.5z"/>
    </g>
    <g stroke="#000">
        <path fill="#2E3F73" d="M117 319.5V387l40.5 27v-67.5z"/>
        <path fill="#7C98EB" d="M157.5 346.5L225 333v67.5L157.5 414z"/>
        <path fill="#DEE5FA" d="M117 319.5l67.5-13.5 40.5 27-67.5 13.5z"/>
    </g>
    <g stroke="#000">
        <path fill="#2E3F73" d="M117 252v67.5l40.5 27V279z"/>
        <path fill="#7C98EB" d="M157.5 279l67.5-13.5V333l-67.5 13.5z"/>
        <path fill="#DEE5FA" d="M117 252l67.5-13.5 40.5 27-67.5 13.5z"/>
    </g>
    <g stroke="#000">
        <path fill="#2E3F73" d="M117 184.5V252l40.5 27v-67.5z"/>
        <path fill="#7C98EB" d="M157.5 211.5L225 198v67.5L157.5 279z"/>
        <path fill="#DEE5FA" d="M117 184.5l67.5-13.5 40.5 27-67.5 13.5z"/>
    </g>
    <g stroke="#000">
        <path fill="#2E3F73" d="M117 117v67.5l40.5 27V144z"/>
        <path fill="#7C98EB" d="M157.5 144l67.5-13.5V198l-67.5 13.5z"/>
        <path fill="#DEE5FA" d="M117 117l67.5-13.5 40.5 27-67.5 13.5z"/>
    </g>
    <g stroke="#000">
        <path fill="#733939" d="M157.5 414v67.5l40.5 27V441z"/>
        <path fill="#E67373" d="M198 441l67.5-13.5V495L198 508.5z"/>
        <path fill="#F5C7C7" d="M157.5 414l67.5-13.5 40.5 27L198 441z"/>
    </g>
    <g stroke="#000">
        <path fill="#733939" d="M157.5 346.5V414l40.5 27v-67.5z"/>
        <path fill="#E67373" d="M198 373.5l67.5-13.5v67.5L198 441z"/>
        <path fill="#F5C7C7" d="M157.5 346.5L225 333l40.5 27-67.5 13.5z"/>
    </g>
    <g stroke="#000">
        <path fill="#733939" d="M157.5 279v67.5l40.5 27V306z"/>
        <path fill="#E67373" d="M198 306l67.5-13.5V360L198 373.5z"/>
        <path fill="#F5C7C7" d="M157.5 279l67.5-13.5 40.5 27L198 306z"/>
    </g>
    <g stroke="#000">
        <path fill="#733939" d="M157.5 211.5V279l40.5 27v-67.5z"/>
        <path fill="#E67373" d="M198 238.5l67.5-13.5v67.5L198 306z"/>
        <path fill="#F5C7C7" d="M157.5 211.5L225 198l40.5 27-67.5 13.5z"/>
    </g>
    <g stroke="#000">
        <path fill="#73732E" d="M198 441v67.5l40.5 27V468z"/>
        <path fill="#E6E65C" d="M238.5 468l67.5-13.5V522l-67.5 13.5z"/>
        <path fill="#F5F5BE" d="M198 441l67.5-13.5 40.5 27-67.5 13.5z"/>
    </g>
    <g stroke="#000">
        <path fill="#73732E" d="M198 373.5V441l40.5 27v-67.5z"/>
        <path fill="#E6E65C" d="M238.5 400.5L306 387v67.5L238.5 468z"/>
        <path fill="#F5F5BE" d="M198 373.5l67.5-13.5 40.5 27-67.5 13.5z"/>
    </g>
    <g stroke="#000">
        <path fill="#73732E" d="M198 306v67.5l40.5 27V333z"/>
        <path fill="#E6E65C" d="M238.5 333l67.5-13.5V387l-67.5 13.5z"/>
        <path fill="#F5F5BE" d="M198 306l67.5-13.5 40.5 27-67.5 13.5z"/>
    </g>
    <g stroke="#000">
        <path fill="#2E3F73" d="M238.5 468v67.5l40.5 27V495z"/>
        <path fill="#7C98EB" d="M279 495l67.5-13.5V549L279 562.5z"/>
        <path fill="#DEE5FA" d="M238.5 468l67.5-13.5 40.5 27L279 495z"/>
    </g>
    <g stroke="#000">
        <path fill="#2E3F73" d="M238.5 400.5V468l40.5 27v-67.5z"/>
        <path fill="#7C98EB" d="M279 427.5l67.5-13.5v67.5L279 495z"/>
        <path fill="#DEE5FA" d="M238.5 400.5L306 387l40.5 27-67.5 13.5z"/>
    </g>
    <g stroke="#000">
        <path fill="#733939" d="M279 495v67.5l40.5 27V522z"/>
        <path fill="#E67373" d="M319.5 522l67.5-13.5V576l-67.5 13.5z"/>
        <path fill="#F5C7C7" d="M279 495l67.5-13.5 40.5 27-67.5 13.5z"/>
    </g>
    <g stroke="#000">
        <path fill="#2E3F73" d="M9 373.5V441l40.5 27v-67.5z"/>
        <path fill="#7C98EB" d="M49.5 400.5L117 387v67.5L49.5 468z"/>
        <path fill="#DEE5FA" d="M9 373.5L76.5 360l40.5 27-67.5 13.5z"/>
    </g>
    <g stroke="#000">
        <path fill="#2E3F73" d="M9 306v67.5l40.5 27V333z"/>
        <path fill="#7C98EB" d="M49.5 333l67.5-13.5V387l-67.5 13.5z"/>
        <path fill="#DEE5FA" d="M9 306l67.5-13.5 40.5 27L49.5 333z"/>
    </g>
    <g stroke="#000">
        <path fill="#2E3F73" d="M9 238.5V306l40.5 27v-67.5z"/>
        <path fill="#7C98EB" d="M49.5 265.5L117 252v67.5L49.5 333z"/>
        <path fill="#DEE5FA" d="M9 238.5L76.5 225l40.5 27-67.5 13.5z"/>
    </g>
    <g stroke="#000">
        <path fill="#2E3F73" d="M9 171v67.5l40.5 27V198z"/>
        <path fill="#7C98EB" d="M49.5 198l67.5-13.5V252l-67.5 13.5z"/>
        <path fill="#DEE5FA" d="M9 171l67.5-13.5 40.5 27L49.5 198z"/>
    </g>
    <g stroke="#000">
        <path fill="#2E3F73" d="M9 103.5V171l40.5 27v-67.5z"/>
        <path fill="#7C98EB" d="M49.5 130.5L117 117v67.5L49.5 198z"/>
        <path fill="#DEE5FA" d="M9 103.5L76.5 90l40.5 27-67.5 13.5z"/>
    </g>
    <g stroke="#000">
        <path fill="#733939" d="M49.5 400.5V468L90 495v-67.5z"/>
        <path fill="#E67373" d="M90 427.5l67.5-13.5v67.5L90 495z"/>
        <path fill="#F5C7C7" d="M49.5 400.5L117 387l40.5 27L90 427.5z"/>
    </g>
    <g stroke="#000">
        <path fill="#733939" d="M49.5 333v67.5l40.5 27V360z"/>
        <path fill="#E67373" d="M90 360l67.5-13.5V414L90 427.5z"/>
        <path fill="#F5C7C7" d="M49.5 333l67.5-13.5 40.5 27L90 360z"/>
    </g>
    <g stroke="#000">
        <path fill="#733939" d="M49.5 265.5V333L90 360v-67.5z"/>
        <path fill="#E67373" d="M90 292.5l67.5-13.5v67.5L90 360z"/>
        <path fill="#F5C7C7" d="M49.5 265.5L117 252l40.5 27L90 292.5z"/>
    </g>
    <g stroke="#000">
        <path fill="#733939" d="M49.5 198v67.5l40.5 27V225z"/>
        <path fill="#E67373" d="M90 225l67.5-13.5V279L90 292.5z"/>
        <path fill="#F5C7C7" d="M49.5 198l67.5-13.5 40.5 27L90 225z"/>
    </g>
    <g stroke="#000">
        <path fill="#73732E" d="M90 427.5V495l40.5 27v-67.5z"/>
        <path fill="#E6E65C" d="M130.5 454.5L198 441v67.5L130.5 522z"/>
        <path fill="#F5F5BE" d="M90 427.5l67.5-13.5 40.5 27-67.5 13.5z"/>
    </g>
    <g stroke="#000">
        <path fill="#73732E" d="M90 360v67.5l40.5 27V387z"/>
        <path fill="#E6E65C" d="M130.5 387l67.5-13.5V441l-67.5 13.5z"/>
        <path fill="#F5F5BE" d="M90 360l67.5-13.5 40.5 27-67.5 13.5z"/>
    </g>
    <g stroke="#000">
        <path fill="#73732E" d="M90 292.5V360l40.5 27v-67.5z"/>
        <path fill="#E6E65C" d="M130.5 319.5L198 306v67.5L130.5 387z"/>
        <path fill="#F5F5BE" d="M90 292.5l67.5-13.5 40.5 27-67.5 13.5z"/>
    </g>
    <g stroke="#000">
        <path fill="#2E3F73" d="M130.5 454.5V522l40.5 27v-67.5z"/>
        <path fill="#7C98EB" d="M171 481.5l67.5-13.5v67.5L171 549z"/>
        <path fill="#DEE5FA" d="M130.5 454.5L198 441l40.5 27-67.5 13.5z"/>
    </g>
    <g stroke="#000">
        <path fill="#2E3F73" d="M130.5 387v67.5l40.5 27V414z"/>
        <path fill="#7C98EB" d="M171 414l67.5-13.5V468L171 481.5z"/>
        <path fill="#DEE5FA" d="M130.5 387l67.5-13.5 40.5 27L171 414z"/>
    </g>
    <g stroke="#000">
        <path fill="#73732E" d="M171 481.5V549l40.5 27v-67.5z"/>
        <path fill="#E6E65C" d="M211.5 508.5L279 495v67.5L211.5 576z"/>
        <path fill="#F5F5BE" d="M171 481.5l67.5-13.5 40.5 27-67.5 13.5z"/>
    </g>
    <g stroke="#000">
        <path fill="#73732E" d="M171 414v67.5l40.5 27V441z"/>
        <path fill="#E6E65C" d="M211.5 441l67.5-13.5V495l-67.5 13.5z"/>
        <path fill="#F5F5BE" d="M171 414l67.5-13.5 40.5 27-67.5 13.5z"/>
    </g>
    <g stroke="#000">
        <path fill="#73732E" d="M171 346.5V414l40.5 27v-67.5z"/>
        <path fill="#E6E65C" d="M211.5 373.5L279 360v67.5L211.5 441z"/>
        <path fill="#F5F5BE" d="M171 346.5l67.5-13.5 40.5 27-67.5 13.5z"/>
    </g>
    <g stroke="#000">
        <path fill="#2E3F73" d="M211.5 508.5V576l40.5 27v-67.5z"/>
        <path fill="#7C98EB" d="M252 535.5l67.5-13.5v67.5L252 603z"/>
        <path fill="#DEE5FA" d="M211.5 508.5L279 495l40.5 27-67.5 13.5z"/>
    </g>
    <g stroke="#000">
        <path fill="#2E3F73" d="M211.5 441v67.5l40.5 27V468z"/>
        <path fill="#7C98EB" d="M252 468l67.5-13.5V522L252 535.5z"/>
        <path fill="#DEE5FA" d="M211.5 441l67.5-13.5 40.5 27L252 468z"/>
    </g>
</svg>
