<svg xmlns="http://www.w3.org/2000/svg" width="486" height="468">
    <path d="M176.659 438.176L69.317 360.188 28.316 234l41.001-126.188 107.342-77.988h132.682l107.342 77.988L457.684 234l-41.001 126.188-107.342 77.988zM28.316 234h429.368M176.659 438.176L309.341 29.824m107.341 330.364L69.317 107.812m347.365.001L69.317 360.188M176.659 29.825L309.34 438.176" fill="none" stroke="#000" stroke-width="2"/>
    <g fill="#FEC200" stroke="#000">
        <circle cx="457.684" cy="234" r="18"/>
        <circle cx="28.316" cy="234" r="18"/>
        <circle cx="309.341" cy="29.824" r="18"/>
        <circle cx="176.659" cy="438.176" r="18"/>
        <circle cx="69.317" cy="107.812" r="18"/>
        <circle cx="416.682" cy="360.188" r="18"/>
        <circle cx="69.317" cy="360.188" r="18"/>
        <circle cx="416.682" cy="107.812" r="18"/>
        <circle cx="309.341" cy="438.177" r="18"/>
        <circle cx="176.659" cy="29.824" r="18"/>
    </g>
</svg>
