<svg xmlns="http://www.w3.org/2000/svg" width="630" height="396">
    <g fill="none" stroke="#000">
        <path d="M261 288v18c0 39.766 24.177 72 54 72s54-32.234 54-72v-18"/>
        <path d="M297 198v108c0 39.766 8.059 72 18 72s18-32.234 18-72V198"/>
        <path d="M153 288v18c0 39.766 72.53 72 162 72s162-32.234 162-72v-18"/>
        <path d="M117 198v108c0 39.766 88.647 72 198 72s198-32.234 198-72V198"/>
        <path d="M81 198v108c0 39.766 104.765 72 234 72 129.234 0 234-32.234 234-72V198"/>
        <path d="M45 288v18c0 39.766 120.883 72 270 72 149.117 0 270-32.234 270-72v-18M36 126l45 72m-63-36l63 36-54-54"/>
        <path d="M9 180l9-18 9-18 9-18 9-18 36 90zm27 90l45-72m-63 36l63-36-54 54"/>
        <path d="M9 216l9 18 9 18 9 18 9 18 36-90zm153-90l-45 72m63-36l-63 36 54-54"/>
        <path d="M189 180l-9-18-9-18-9-18-9-18-36 90zm-27 90l-45-72m63 36l-63-36 54 54"/>
        <path d="M189 216l-9 18-9 18-9 18-9 18-36-90zm63-90l45 72m-63-36l63 36-54-54"/>
        <path d="M225 180l9-18 9-18 9-18 9-18 36 90zm27 90l45-72m-63 36l63-36-54 54"/>
        <path d="M225 216l9 18 9 18 9 18 9 18 36-90zm153-90l-45 72m63-36l-63 36 54-54"/>
        <path d="M405 180l-9-18-9-18-9-18-9-18-36 90zm-27 90l-45-72m63 36l-63-36 54 54"/>
        <path d="M405 216l-9 18-9 18-9 18-9 18-36-90zm63-90l45 72m-63-36l63 36-54-54"/>
        <path d="M441 180l9-18 9-18 9-18 9-18 36 90zm27 90l45-72m-63 36l63-36-54 54"/>
        <path d="M441 216l9 18 9 18 9 18 9 18 36-90zm153-90l-45 72m63-36l-63 36 54-54"/>
        <path d="M621 180l-9-18-9-18-9-18-9-18-36 90zm-27 90l-45-72m63 36l-63-36 54 54"/>
        <path d="M621 216l-9 18-9 18-9 18-9 18-36-90zM261 108V90c0-39.765 24.177-72 54-72s54 32.235 54 72v18"/>
        <path d="M297 198V90c0-39.765 8.059-72 18-72s18 32.235 18 72v108"/>
        <path d="M153 108V90c0-39.765 72.53-72 162-72s162 32.235 162 72v18"/>
        <path d="M117 198V90c0-39.765 88.647-72 198-72s198 32.235 198 72v108"/>
        <path d="M81 198V90c0-39.765 104.765-72 234-72 129.234 0 234 32.235 234 72v108"/>
        <path d="M45 108V90c0-39.765 120.883-72 270-72 149.117 0 270 32.235 270 72v18"/>
    </g>
    <g fill="#BC1E47" stroke="#000">
        <circle cx="45" cy="108" r="4.5"/>
        <circle cx="36" cy="126" r="4.5"/>
        <circle cx="27" cy="144" r="4.5"/>
        <circle cx="18" cy="162" r="4.5"/>
        <circle cx="9" cy="180" r="4.5"/>
        <circle cx="45" cy="288" r="4.5"/>
        <circle cx="36" cy="270" r="4.5"/>
        <circle cx="27" cy="252" r="4.5"/>
        <circle cx="18" cy="234" r="4.5"/>
        <circle cx="9" cy="216" r="4.5"/>
        <circle cx="153" cy="108" r="4.5"/>
        <circle cx="162" cy="126" r="4.5"/>
        <circle cx="171" cy="144" r="4.5"/>
        <circle cx="180" cy="162" r="4.5"/>
        <circle cx="189" cy="180" r="4.5"/>
        <circle cx="153" cy="288" r="4.5"/>
        <circle cx="162" cy="270" r="4.5"/>
        <circle cx="171" cy="252" r="4.5"/>
        <circle cx="180" cy="234" r="4.5"/>
        <circle cx="189" cy="216" r="4.5"/>
        <circle cx="261" cy="108" r="4.5"/>
        <circle cx="252" cy="126" r="4.5"/>
        <circle cx="243" cy="144" r="4.5"/>
        <circle cx="234" cy="162" r="4.5"/>
        <circle cx="225" cy="180" r="4.5"/>
        <circle cx="261" cy="288" r="4.5"/>
        <circle cx="252" cy="270" r="4.5"/>
        <circle cx="243" cy="252" r="4.5"/>
        <circle cx="234" cy="234" r="4.5"/>
        <circle cx="225" cy="216" r="4.5"/>
        <circle cx="369" cy="108" r="4.5"/>
        <circle cx="378" cy="126" r="4.5"/>
        <circle cx="387" cy="144" r="4.5"/>
        <circle cx="396" cy="162" r="4.5"/>
        <circle cx="405" cy="180" r="4.5"/>
        <circle cx="369" cy="288" r="4.5"/>
        <circle cx="378" cy="270" r="4.5"/>
        <circle cx="387" cy="252" r="4.5"/>
        <circle cx="396" cy="234" r="4.5"/>
        <circle cx="405" cy="216" r="4.5"/>
        <circle cx="477" cy="108" r="4.5"/>
        <circle cx="468" cy="126" r="4.5"/>
        <circle cx="459" cy="144" r="4.5"/>
        <circle cx="450" cy="162" r="4.5"/>
        <circle cx="441" cy="180" r="4.5"/>
        <circle cx="477" cy="288" r="4.5"/>
        <circle cx="468" cy="270" r="4.5"/>
        <circle cx="459" cy="252" r="4.5"/>
        <circle cx="450" cy="234" r="4.5"/>
        <circle cx="441" cy="216" r="4.5"/>
        <circle cx="585" cy="108" r="4.5"/>
        <circle cx="594" cy="126" r="4.5"/>
        <circle cx="603" cy="144" r="4.5"/>
        <circle cx="612" cy="162" r="4.5"/>
        <circle cx="621" cy="180" r="4.5"/>
        <circle cx="585" cy="288" r="4.5"/>
        <circle cx="594" cy="270" r="4.5"/>
        <circle cx="603" cy="252" r="4.5"/>
        <circle cx="612" cy="234" r="4.5"/>
        <circle cx="621" cy="216" r="4.5"/>
    </g>
    <g fill="#0081CD" stroke="#000">
        <circle cx="81" cy="198" r="6"/>
        <circle cx="117" cy="198" r="6"/>
        <circle cx="297" cy="198" r="6"/>
        <circle cx="333" cy="198" r="6"/>
        <circle cx="513" cy="198" r="6"/>
        <circle cx="549" cy="198" r="6"/>
    </g>
    <g fill="#FEC200" stroke="#000">
        <circle cx="315" cy="378" r="9"/>
        <circle cx="315" cy="18" r="9"/>
    </g>
</svg>
