<svg xmlns="http://www.w3.org/2000/svg" width="306" height="234">
    <path fill="#BC1E47" stroke="#000" d="M9 9h72v72H9z"/>
    <path fill="#FEC200" stroke="#000" d="M9 81h72v72H9z"/>
    <path fill="#BC1E47" stroke="#000" d="M9 153h72v72H9z"/>
    <path fill="#0081CD" stroke="#000" d="M81 9h72v72H81z"/>
    <path fill="#BC1E47" stroke="#000" d="M81 81h72v72H81z"/>
    <path fill="#FEC200" stroke="#000" d="M81 153h72v72H81z"/>
    <path fill="#BC1E47" stroke="#000" d="M153 9h72v72h-72z"/>
    <path fill="#FFF" stroke="#000" d="M153 81h72v72h-72z"/>
    <path fill="#0081CD" stroke="#000" d="M153 153h72v72h-72z"/>
    <path fill="#FFF" stroke="#000" d="M225 9h72v72h-72zm0 72h72v72h-72zm0 72h72v72h-72z"/>
</svg>
