<svg xmlns="http://www.w3.org/2000/svg" width="738" height="612">
    <g fill="none" stroke="#0081CD" stroke-width="8" stroke-linecap="round" stroke-linejoin="round">
        <path d="M216 306l72-126h162l72 126-72 126H288l-72-126zm-72-126l72 126-72 126m450-252l-72 126 72 126"/>
        <path d="M72 306l72-126L369 54l225 126 72 126-72 126-225 126-225-126z"/>
    </g>
    <path fill="#FFF" d="M432 567c0 19.883-16.117 36-36 36h-54c-19.883 0-36-16.117-36-36v-18c0-19.883 16.117-36 36-36h54c19.883 0 36 16.117 36 36v18zM207 441c0 19.883-16.117 36-36 36h-54c-19.883 0-36-16.117-36-36v-18c0-19.883 16.117-36 36-36h54c19.883 0 36 16.117 36 36v18zm144 0c0 19.883-16.117 36-36 36h-54c-19.883 0-36-16.117-36-36v-18c0-19.883 16.117-36 36-36h54c19.883 0 36 16.117 36 36v18zm162 0c0 19.883-16.117 36-36 36h-54c-19.883 0-36-16.117-36-36v-18c0-19.883 16.117-36 36-36h54c19.883 0 36 16.117 36 36v18zm144 0c0 19.883-16.117 36-36 36h-54c-19.883 0-36-16.117-36-36v-18c0-19.883 16.117-36 36-36h54c19.883 0 36 16.117 36 36v18zm72-126c0 19.883-16.117 36-36 36h-54c-19.883 0-36-16.117-36-36v-18c0-19.883 16.117-36 36-36h54c19.883 0 36 16.117 36 36v18zm-144 0c0 19.883-16.117 36-36 36h-54c-19.883 0-36-16.117-36-36v-18c0-19.883 16.117-36 36-36h54c19.883 0 36 16.117 36 36v18zm-306 0c0 19.883-16.117 36-36 36h-54c-19.883 0-36-16.117-36-36v-18c0-19.883 16.117-36 36-36h54c19.883 0 36 16.117 36 36v18zm-144 0c0 19.883-16.117 36-36 36H45c-19.883 0-36-16.117-36-36v-18c0-19.883 16.117-36 36-36h54c19.883 0 36 16.117 36 36v18zm72-126c0 19.883-16.117 36-36 36h-54c-19.883 0-36-16.117-36-36v-18c0-19.883 16.117-36 36-36h54c19.883 0 36 16.117 36 36v18zm450 0c0 19.883-16.117 36-36 36h-54c-19.883 0-36-16.117-36-36v-18c0-19.883 16.117-36 36-36h54c19.883 0 36 16.117 36 36v18zm-306 0c0 19.883-16.117 36-36 36h-54c-19.883 0-36-16.117-36-36v-18c0-19.883 16.117-36 36-36h54c19.883 0 36 16.117 36 36v18zm162 0c0 19.883-16.117 36-36 36h-54c-19.883 0-36-16.117-36-36v-18c0-19.883 16.117-36 36-36h54c19.883 0 36 16.117 36 36v18zM432 63c0 19.883-16.117 36-36 36h-54c-19.883 0-36-16.117-36-36V45c0-19.883 16.117-36 36-36h54c19.883 0 36 16.117 36 36v18z"/>
    <path fill="none" stroke="#0081CD" stroke-linecap="round" stroke-linejoin="round" d="M432 567c0 19.883-16.117 36-36 36h-54c-19.883 0-36-16.117-36-36v-18c0-19.883 16.117-36 36-36h54c19.883 0 36 16.117 36 36v18zM207 441c0 19.883-16.117 36-36 36h-54c-19.883 0-36-16.117-36-36v-18c0-19.883 16.117-36 36-36h54c19.883 0 36 16.117 36 36v18zm144 0c0 19.883-16.117 36-36 36h-54c-19.883 0-36-16.117-36-36v-18c0-19.883 16.117-36 36-36h54c19.883 0 36 16.117 36 36v18zm162 0c0 19.883-16.117 36-36 36h-54c-19.883 0-36-16.117-36-36v-18c0-19.883 16.117-36 36-36h54c19.883 0 36 16.117 36 36v18zm144 0c0 19.883-16.117 36-36 36h-54c-19.883 0-36-16.117-36-36v-18c0-19.883 16.117-36 36-36h54c19.883 0 36 16.117 36 36v18zm72-126c0 19.883-16.117 36-36 36h-54c-19.883 0-36-16.117-36-36v-18c0-19.883 16.117-36 36-36h54c19.883 0 36 16.117 36 36v18zm-144 0c0 19.883-16.117 36-36 36h-54c-19.883 0-36-16.117-36-36v-18c0-19.883 16.117-36 36-36h54c19.883 0 36 16.117 36 36v18zm-306 0c0 19.883-16.117 36-36 36h-54c-19.883 0-36-16.117-36-36v-18c0-19.883 16.117-36 36-36h54c19.883 0 36 16.117 36 36v18zm-144 0c0 19.883-16.117 36-36 36H45c-19.883 0-36-16.117-36-36v-18c0-19.883 16.117-36 36-36h54c19.883 0 36 16.117 36 36v18zm72-126c0 19.883-16.117 36-36 36h-54c-19.883 0-36-16.117-36-36v-18c0-19.883 16.117-36 36-36h54c19.883 0 36 16.117 36 36v18zm450 0c0 19.883-16.117 36-36 36h-54c-19.883 0-36-16.117-36-36v-18c0-19.883 16.117-36 36-36h54c19.883 0 36 16.117 36 36v18zm-306 0c0 19.883-16.117 36-36 36h-54c-19.883 0-36-16.117-36-36v-18c0-19.883 16.117-36 36-36h54c19.883 0 36 16.117 36 36v18zm162 0c0 19.883-16.117 36-36 36h-54c-19.883 0-36-16.117-36-36v-18c0-19.883 16.117-36 36-36h54c19.883 0 36 16.117 36 36v18zM432 63c0 19.883-16.117 36-36 36h-54c-19.883 0-36-16.117-36-36V45c0-19.883 16.117-36 36-36h54c19.883 0 36 16.117 36 36v18z"/>
    <path fill="none" stroke="#000" d="M630 288h72v36h-72v-36zm36 0v36m-180-36h72v36h-72v-36zm36 0v36M36 288h72v36H36v-36zm36 0v36m108-36h72v36h-72v-36zm36 0v36m342 90h72v36h-72v-36zm36 0v36m-180-36h72v36h-72v-36zm36 0v36m-342-36h72v36h-72v-36zm36 0v36m108-36h72v36h-72v-36zm36 0v36m270-288h72v36h-72v-36zm36 0v36m-180-36h72v36h-72v-36zm36 0v36m-342-36h72v36h-72v-36zm36 0v36m189 342h72v36h-72v-36zm36 0v36M333 36h72v36h-72V36zm36 0v36m-117 90h72v36h-72v-36zm36 0v36"/>
    <path fill="none" stroke="#BC1E47" stroke-width="8" stroke-linecap="round" stroke-linejoin="round" d="M378 576h18m-27-27v18m-27-27h18m126-99v-18m-27 27h18m-54 0h18m-144 0h18m-54 0h18m-27-27v18m378 0v-18m-27 27h18m-27-27v18m-450-18v18m-27-27h18m-27 27v-18m567-99h18m-27-27v18m27-27h-18m-126 36h-18m27-27v18m-27-27h18m-360 36h18m-27-27v18m27-27h-18M63 324H45m27-27v18m-27-27h18m567-117v18m-27-27h18m-27 27v-18m-108 0v18m-27-27h18m-54 0h18m-144 0h18m-54 0h18m-27 27v-18m-108 18v-18m-27 27h18m-27-9v-18M378 36h18m-27 27V45m-27 27h18"/>
    <g fill="#FEC200" stroke="#000">
        <circle cx="252" cy="162" r="6"/>
        <circle cx="288" cy="162" r="6"/>
        <circle cx="324" cy="162" r="6"/>
        <circle cx="252" cy="198" r="6"/>
        <circle cx="288" cy="198" r="6"/>
        <circle cx="324" cy="198" r="6"/>
        <circle cx="333" cy="36" r="6"/>
        <circle cx="369" cy="36" r="6"/>
        <circle cx="405" cy="36" r="6"/>
        <circle cx="333" cy="72" r="6"/>
        <circle cx="369" cy="72" r="6"/>
        <circle cx="405" cy="72" r="6"/>
        <circle cx="333" cy="540" r="6"/>
        <circle cx="369" cy="540" r="6"/>
        <circle cx="405" cy="540" r="6"/>
        <circle cx="333" cy="576" r="6"/>
        <circle cx="369" cy="576" r="6"/>
        <circle cx="405" cy="576" r="6"/>
        <circle cx="108" cy="162" r="6"/>
        <circle cx="144" cy="162" r="6"/>
        <circle cx="180" cy="162" r="6"/>
        <circle cx="108" cy="198" r="6"/>
        <circle cx="144" cy="198" r="6"/>
        <circle cx="180" cy="198" r="6"/>
        <circle cx="414" cy="162" r="6"/>
        <circle cx="450" cy="162" r="6"/>
        <circle cx="486" cy="162" r="6"/>
        <circle cx="414" cy="198" r="6"/>
        <circle cx="450" cy="198" r="6"/>
        <circle cx="486" cy="198" r="6"/>
        <circle cx="558" cy="162" r="6"/>
        <circle cx="594" cy="162" r="6"/>
        <circle cx="630" cy="162" r="6"/>
        <circle cx="558" cy="198" r="6"/>
        <circle cx="594" cy="198" r="6"/>
        <circle cx="630" cy="198" r="6"/>
        <circle cx="252" cy="414" r="6"/>
        <circle cx="288" cy="414" r="6"/>
        <circle cx="324" cy="414" r="6"/>
        <circle cx="252" cy="450" r="6"/>
        <circle cx="288" cy="450" r="6"/>
        <circle cx="324" cy="450" r="6"/>
        <circle cx="108" cy="414" r="6"/>
        <circle cx="144" cy="414" r="6"/>
        <circle cx="180" cy="414" r="6"/>
        <circle cx="108" cy="450" r="6"/>
        <circle cx="144" cy="450" r="6"/>
        <circle cx="180" cy="450" r="6"/>
        <circle cx="414" cy="414" r="6"/>
        <circle cx="450" cy="414" r="6"/>
        <circle cx="486" cy="414" r="6"/>
        <circle cx="414" cy="450" r="6"/>
        <circle cx="450" cy="450" r="6"/>
        <circle cx="486" cy="450" r="6"/>
        <circle cx="558" cy="414" r="6"/>
        <circle cx="594" cy="414" r="6"/>
        <circle cx="630" cy="414" r="6"/>
        <circle cx="558" cy="450" r="6"/>
        <circle cx="594" cy="450" r="6"/>
        <circle cx="630" cy="450" r="6"/>
        <circle cx="180" cy="288" r="6"/>
        <circle cx="216" cy="288" r="6"/>
        <circle cx="252" cy="288" r="6"/>
        <circle cx="180" cy="324" r="6"/>
        <circle cx="216" cy="324" r="6"/>
        <circle cx="252" cy="324" r="6"/>
        <circle cx="36" cy="288" r="6"/>
        <circle cx="72" cy="288" r="6"/>
        <circle cx="108" cy="288" r="6"/>
        <circle cx="36" cy="324" r="6"/>
        <circle cx="72" cy="324" r="6"/>
        <circle cx="108" cy="324" r="6"/>
        <circle cx="486" cy="288" r="6"/>
        <circle cx="522" cy="288" r="6"/>
        <circle cx="558" cy="288" r="6"/>
        <circle cx="486" cy="324" r="6"/>
        <circle cx="522" cy="324" r="6"/>
        <circle cx="558" cy="324" r="6"/>
        <circle cx="630" cy="288" r="6"/>
        <circle cx="666" cy="288" r="6"/>
        <circle cx="702" cy="288" r="6"/>
        <circle cx="630" cy="324" r="6"/>
        <circle cx="666" cy="324" r="6"/>
        <circle cx="702" cy="324" r="6"/>
    </g>
</svg>
