<svg xmlns="http://www.w3.org/2000/svg" width="504" height="522"><g stroke="#000"><path d="M179.999 55.292h142.708M126 396l126 72 124.707-72.001L252 324zm0-.001L55.292 271.291m393.414.001V127.291l-126-72.001 1.293 144.001zm0 0l-71.999 124.707M179.999 55.292L55.291 127.293l.001 143.999 124.706-71.999z" fill="none" stroke-width="2"/><g fill="#FFF"><circle cx="252" cy="468" r="45"/><circle cx="252" cy="324" r="45"/><circle cx="126" cy="396" r="45"/><circle cx="376.707" cy="395.999" r="45"/><circle cx="448.707" cy="127.291" r="45"/><circle cx="324" cy="199.291" r="45"/><circle cx="448.707" cy="271.291" r="45"/><circle cx="322.707" cy="55.291" r="45"/><circle cx="55.291" cy="127.292" r="45"/><circle cx="179.998" cy="199.292" r="45"/><circle cx="179.999" cy="55.291" r="45"/><circle cx="55.292" cy="271.292" r="45"/></g><path d="M225 468h54m-54-144h54M99 396h54m196.707-.001h54m18-268.708h54m-178.708 72h54m70.708 72l53.999-.001M295.707 55.291h54M28.291 127.292h54m70.707 72h54M153 55.291l53.998.001m-178.706 216h54" fill="none" stroke-width="2"/><g fill="#FEC200"><circle cx="252" cy="468" r="9"/><circle cx="252" cy="324" r="9"/><circle cx="126" cy="396" r="9"/><circle cx="376.707" cy="395.999" r="9"/><circle cx="421.707" cy="127.291" r="9"/><circle cx="351" cy="199.291" r="9"/><circle cx="295.707" cy="55.291" r="9"/><circle cx="349.707" cy="55.29" r="9"/><circle cx="82.291" cy="127.292" r="9.001"/><circle cx="152.999" cy="199.292" r="9"/><circle cx="152.999" cy="55.292" r="9"/><circle cx="206.999" cy="55.291" r="9"/></g><g fill="#0081CD"><circle cx="225" cy="468" r="9"/><circle cx="279" cy="324" r="9"/><circle cx="349.707" cy="395.999" r="9"/><circle cx="403.707" cy="395.999" r="9"/><circle cx="475.707" cy="127.291" r="9"/><circle cx="297" cy="199.291" r="9"/><circle cx="421.707" cy="271.291" r="9"/><circle cx="475.707" cy="271.291" r="9"/><circle cx="55.292" cy="127.292" r="9"/><circle cx="179.999" cy="199.292" r="9"/><circle cx="179.999" cy="55.292" r="9"/><circle cx="55.292" cy="271.292" r="9.001"/></g><g fill="#BC1E47"><circle cx="279" cy="468" r="9"/><circle cx="225" cy="324" r="9"/><circle cx="99" cy="396" r="9"/><circle cx="153" cy="396" r="9"/><circle cx="448.707" cy="127.291" r="9"/><circle cx="324" cy="199.291" r="9"/><circle cx="448.707" cy="271.291" r="9"/><circle cx="322.707" cy="55.291" r="9"/><circle cx="28.292" cy="127.292" r="9"/><circle cx="206.999" cy="199.292" r="9.001"/><circle cx="28.291" cy="271.292" r="9.001"/><circle cx="82.291" cy="271.292" r="9"/></g></g></svg>