<svg xmlns="http://www.w3.org/2000/svg" width="900" height="207">
    <g fill="#FFEBAA" stroke="#000">
        <circle cx="27" cy="108" r="18"/>
        <circle cx="126" cy="36" r="18"/>
        <circle cx="270" cy="36" r="18"/>
        <circle cx="378" cy="36" r="18"/>
        <circle cx="522" cy="36" r="18"/>
        <circle cx="630" cy="36" r="18"/>
        <circle cx="774" cy="39" r="18"/>
        <circle cx="873" cy="108" r="18"/>
        <circle cx="369" cy="171" r="18"/>
        <circle cx="225" cy="171" r="18"/>
        <circle cx="513" cy="171" r="18"/>
        <circle cx="657" cy="171" r="18"/>
    </g>
    <path d="M99 54c-3.557 4.904-7.426 11.805-8.948 17.396l-2.413-9.822-8.138-6.004c5.748.745 13.605-.172 19.499-1.57zm99 108c-6.011.751-13.694 2.637-18.819 5.344l5.527-8.471-1.171-10.045c3.38 4.707 9.417 9.821 14.463 13.172z"/>
    <path d="M243 35.916L210.207 3.109V18H153v36h57.207v14.717zm219.207 32.801L495 35.916 462.207 3.109V18H405v36h57.207zM747 35.916L714.207 3.109V18H657v36h57.207v14.717zM597.207 153H540v36h57.207v14.717L630 170.916l-32.793-32.807zm-288 50.717L342 170.916l-32.793-32.807V153H252v36h57.207z" fill="#AAD5EF" stroke="#000"/>
    <path d="M351 27c-5.68 2.107-12.727 5.703-17.095 9.512l3.44-9.512-3.44-9.51C338.273 21.299 345.32 24.895 351 27zm135 135c-5.938-1.197-13.823-1.85-19.542-.91l7.933-6.277 2.08-9.896c1.709 5.537 5.808 12.304 9.529 17.083zm0 18c-5.68 2.107-12.727 5.703-17.095 9.512l3.44-9.512-3.44-9.51c4.368 3.809 11.415 7.405 17.095 9.51zM603 27c-5.667 2.141-12.692 5.778-17.038 9.612l3.384-9.531-3.496-9.489c4.39 3.782 11.458 7.336 17.15 9.408zm0 18c-3.907 4.629-8.273 11.228-10.202 16.692l-1.685-9.974-7.675-6.586c5.677 1.167 13.582.83 19.562-.132zm243 45c-5.895-1.397-13.753-2.314-19.5-1.568l8.139-6.006 2.413-9.821c1.521 5.592 5.39 12.493 8.948 17.395zm0 27c-4.908 3.551-10.736 8.901-13.926 13.74l.77-10.086-5.86-8.242c5.228 2.501 12.98 4.079 19.016 4.588z"/>
    <path d="M45 90l43.957-29.305M45 126l141.25 33.235M297 27h41.93M297 45l178.737 110.646M396 162L592.492 50.939M396 180h77.93m72.736-152.667l44.264-.262M684 162l150.37-41.77M792 54l43.957 29.305" fill="none" stroke="#000" stroke-width="2"/>
    <g font-family="Times,serif" font-size="36">
        <text transform="translate(428.994 46)">B</text>
        <text transform="translate(680.994 46)">C</text>
        <text transform="translate(275.001 181)">D</text>
        <text transform="translate(565.005 181)">E</text>
        <text transform="translate(176.001 46)">A</text>
    </g>
</svg>
