<svg xmlns="http://www.w3.org/2000/svg" width="324" height="180">
    <g fill="#AAD5EF" stroke="#000">
        <circle cx="36" cy="36" r="27"/>
        <circle cx="162" cy="36" r="27"/>
        <circle cx="288" cy="36" r="27"/>
        <circle cx="99" cy="144" r="27"/>
        <circle cx="225" cy="144" r="27"/>
    </g>
    <path d="M126 36c-5.68 2.107-12.727 5.703-17.095 9.512l3.44-9.512-3.44-9.51C113.273 30.299 120.32 33.895 126 36zm63 99c-5.869-1.5-13.71-2.555-19.47-1.91l8.243-5.862 2.584-9.777c1.424 5.617 5.171 12.585 8.643 17.549zm0 18c-5.68 2.107-12.727 5.703-17.095 9.512l3.44-9.512-3.44-9.51c4.368 3.809 11.415 7.405 17.095 9.51zm63-117c-5.68 2.107-12.727 5.703-17.095 9.512l3.44-9.512-3.44-9.51C239.273 30.299 246.32 33.895 252 36zm0 18c-3.471 4.966-7.218 11.933-8.641 17.551l-2.586-9.779-8.241-5.86c5.759.645 13.6-.41 19.468-1.912z"/>
    <path d="M72 36h41.93M72 54l107.076 74.13M135 135l107.076-74.129M135 153h41.93M198 36h41.93" fill="none" stroke="#000" stroke-width="2"/>
    <g font-family="Times,serif" font-size="36">
        <text transform="translate(23.001 46)">A</text>
        <text transform="translate(149.994 46)">B</text>
        <text transform="translate(275.994 46)">C</text>
        <text transform="translate(86.001 154)">D</text>
        <text transform="translate(214.005 154)">E</text>
    </g>
</svg>
