<svg xmlns="http://www.w3.org/2000/svg" width="414" height="279">
    <path d="M57.729 138.728l48.811-48.811 10.406 10.406-.005-46.382-46.386-.01L81.084 64.46l-48.812 48.813zm161.479-70.011L252 35.917 219.208 3.11V18H162v36h57.208zm90.52-27.444l-25.455 25.455 48.811 48.812-10.406 10.407 46.382-.006.01-46.386-10.53 10.529zM117.06 233.941l.009-46.386-10.529 10.529-48.811-48.811-25.457 25.455 48.812 48.813-10.406 10.406zm192.668 12.787l48.812-48.811 10.407 10.406-.006-46.382-46.386-.01 10.529 10.53-48.811 48.812z" fill="#AAD5EF" stroke="#000"/>
    <g fill="#FFEBAA" stroke="#000">
        <circle cx="27" cy="144" r="18"/>
        <circle cx="135" cy="36" r="18"/>
        <circle cx="279" cy="36" r="18"/>
        <circle cx="387" cy="144" r="18"/>
        <circle cx="135" cy="252" r="18"/>
        <circle cx="279" cy="252" r="18"/>
    </g>
    <path d="M252 252c-5.68 2.107-12.727 5.703-17.095 9.512l3.44-9.512-3.44-9.51c4.369 3.809 11.416 7.405 17.095 9.51zm9-198c-1.115 5.954-1.657 13.848-.639 19.553l-6.387-7.845-9.924-1.942C249.564 61.98 256.273 57.788 261 54zm0 180c-4.729-3.786-11.438-7.979-16.951-9.765l9.926-1.943 6.385-7.844c-1.019 5.707-.477 13.599.64 19.552z"/>
    <path d="M153 54l101.791 169.65M153 234L254.791 64.351M162 252h77.93" fill="none" stroke="#000" stroke-width="2"/>
    <g font-family="Times,serif" font-size="36">
        <text transform="translate(185.995 48)">B</text>
        <text transform="translate(316.995 100)">C</text>
        <text transform="translate(60.002 199)">D</text>
        <text transform="translate(316.005 217)">E</text>
        <text transform="translate(55.002 109)">A</text>
    </g>
</svg>
