<svg xmlns="http://www.w3.org/2000/svg" width="414" height="279">
    <path d="M106.54 89.917l10.406 10.406-.005-46.382-46.386-.01L81.084 64.46l-48.812 48.813 25.457 25.455zm145.46-54L219.208 3.11V18H162v36h57.208v14.717zm57.728 5.356l-25.455 25.455 48.811 48.812-10.406 10.407 46.382-.006.01-46.386-10.53 10.529zM153.15 210.126l-98.416-63.267-19.467 30.283 98.415 63.268-7.958 12.378 45.321-9.859-9.843-45.328zm178.532-45.534l-98.415 63.267 19.467 30.283 98.416-63.267 7.958 12.378 9.847-45.324-45.325-9.862z" fill="#AAD5EF" stroke="#000"/>
    <g fill="#FFEBAA" stroke="#000">
        <circle cx="27" cy="144" r="18"/>
        <circle cx="135" cy="36" r="18"/>
        <circle cx="279" cy="36" r="18"/>
        <circle cx="387" cy="144" r="18"/>
        <circle cx="207" cy="252" r="18"/>
    </g>
    <path d="M189 234c-3.18-5.156-8.088-11.361-12.68-14.897l10.002 1.509 8.65-5.239c-2.877 5.03-5.02 12.645-5.972 18.627zm72-180c.952 5.982 3.097 13.598 5.975 18.628l-8.652-5.239-10 1.509C252.915 65.362 257.822 59.157 261 54z"/>
    <path fill="none" stroke="#000" stroke-width="2" d="M153 54l33.633 168.165M225 234l33.633-168.164"/>
    <g font-family="Times,serif" font-size="36">
        <text transform="translate(185.995 48)">B</text>
        <text transform="translate(316.995 100)">C</text>
        <text transform="translate(86.001 208)">D</text>
        <text transform="translate(304.005 208)">E</text>
        <text transform="translate(55.002 109)">A</text>
    </g>
</svg>
