<svg xmlns="http://www.w3.org/2000/svg" width="661.467" height="575.972">
    <g fill="none">
        <path stroke="#000" d="M414.814 376.394l228.634 180.002-353.341-108.003L19.905 556.397l311.548-36.003.223-504.001m-83.138 360.001L19.905 556.397"/>
        <path stroke="#000" d="M643.448 556.396L206.969 304.394 331.676 16.393l124.709 288-436.48 252.004"/>
        <path stroke="#000" d="M331.676 16.393L19.905 556.397l623.543-.001z"/>
        <path stroke="#000" d="M331.453 520.394l311.995 36.002-270.202-108.003m0-144l-41.57-288-41.57 288"/>
        <path stroke="#231F20" d="M290.106 304.393l83.14 144m0-144l-83.138 144m-41.57-71.999h166.276m228.634 180.002L373.246 304.393m-41.57-288l-83.138 360.001m394.91 180.002L456.385 304.393M19.905 556.397l270.201-252.004m41.57-288l83.138 360.001m-207.845-72L19.905 556.397l353.341-108.004"/>
    </g>
    <path d="M209.969 304.394a3 3 0 1 1-6 0 3 3 0 0 1 6 0m83.137-.001a3 3 0 1 1-6 0 3 3 0 0 1 6 0m-41.568 72.001a3 3 0 1 1-6 0 3 3 0 0 1 6 0m124.708-72.001a3 3 0 1 1-6 0 3 3 0 0 1 6 0m41.568 72.001a3 3 0 1 1-6 0 3 3 0 0 1 6 0m41.571-72.001a3 3 0 1 1-6 0 3 3 0 0 1 6 0m-83.139 144a3 3 0 1 1-6 0 3 3 0 0 1 6 0m-83.138 0a3 3 0 1 1-6 0 3 3 0 0 1 6 0m41.345 72.001a3 3 0 1 1-6 0 3 3 0 0 1 6 0m6.223-504.001a9 9 0 0 1-9 9c-4.971 0-9-4.029-9-9s4.029-9 9-9a9 9 0 0 1 9 9M15.405 548.603a9 9 0 0 1 12.294 3.294c2.485 4.305 1.011 9.81-3.294 12.294a9 9 0 0 1-12.294-3.294 8.999 8.999 0 0 1 3.294-12.294m623.543 15.587c-4.305-2.485-5.779-7.989-3.295-12.294a9 9 0 1 1 3.295 12.294M338.319 376.394a7.5 7.5 0 0 1-7.5 7.5c-4.143 0-7.5-3.357-7.5-7.5s3.357-7.5 7.5-7.5a7.5 7.5 0 0 1 7.5 7.5m-75.001-42.353a5 5 0 1 1-10 0 5 5 0 0 1 10 0m146.715.001a5 5 0 1 1-10 0 5 5 0 0 1 10 0m-73.357 127.057a5 5 0 1 1-10.001-.001 5 5 0 0 1 10.001.001" fill="#FEC200" stroke="#000"/>
</svg>
