<svg xmlns="http://www.w3.org/2000/svg" width="370.481" height="300">
    <path fill="#FFEBAA" stroke="#231F20" d="M85.153 191.611a115.524 115.524 0 0 1-1.258-17.042c0-63.328 51.338-114.666 114.667-114.666s114.666 51.338 114.666 114.666c0 63.329-53.005 114.487-116.333 114.487-3.597 0-7.154-.166-10.666-.489l1.521.141c4.65.461 9.367.697 14.139.697 78.154 0 140.245-62.464 140.245-140.616 0-78.154-63.354-141.509-141.509-141.509 11.529 1.243 20.507 11.006 20.507 22.866 0 12.703-10.298 23-23 23s-23-10.297-23-23c0-8.581 4.699-16.063 11.663-20.016l-.566.155c-60.87 24.178-103.906 83.61-103.906 153.093 0 8.498.644 16.844 1.885 24.995"/>
    <path fill="#E9B4C2" stroke="#231F20" d="M288.667 106.817a115.66 115.66 0 0 1 1.258 17.042c0 63.328-50.701 115.09-114.029 115.09S61.229 187.611 61.229 124.283c0-63.329 51.193-114.705 114.521-114.705 3.597 0 7.154.166 10.666.489l-1.521-.141c-4.65-.461-9.367-.697-14.139-.697-78.154 0-138.434 62.682-138.434 140.834 0 78.154 63.354 141.51 141.509 141.51-11.529-1.243-20.507-11.007-20.507-22.867 0-12.702 10.298-23 23-23s23 10.298 23 23c0 8.581-4.699 16.063-11.663 20.017l.566-.155c60.87-24.178 103.905-83.609 103.905-153.093 0-8.498-1.279-17.268-2.521-25.418"/>
    <g fill="none" stroke="#0081CD">
        <circle cx="150.917" cy="149.567" r="144"/>
        <circle cx="222.917" cy="149.567" r="144"/>
    </g>
</svg>
