<?xml version="1.0" encoding="utf-8"?>
<!DOCTYPE svg PUBLIC "-//W3C//DTD SVG 1.1//EN" "http://www.w3.org/Graphics/SVG/1.1/DTD/svg11.dtd">
<svg  version="1.1" id="Layer_1" xmlns="http://www.w3.org/2000/svg" xmlns:xlink="http://www.w3.org/1999/xlink" width="882" height="378" viewBox="0 0 882 378"
	 overflow="visible" enable-background="new 0 0 882 378" xml:space="preserve">
<rect fill="#FFFFFF" width="882" height="378"/>
<polyline fill="none" stroke="#000000" points="9,225 80.999,153.001 152.999,81 296.999,225.001 512.998,9 657,153.001 729,81
	801,153.001 873,81 "/>
<g>
	<polygon fill="#666666" stroke="#000000" points="259.249,199.648 257.288,202.995 255.055,206.533 252.867,210.001
		250.006,213.634 245.616,215.56 242.598,218.293 238.45,217.038 235.095,213.712 231.034,211.261 229.684,205.367 226.943,199.835
		228.004,194.929 228.063,190.126 228.238,185.331 232.957,184.123 237.931,185.191 242.628,183.783 246.941,185.09
		251.216,186.613 256.175,186.148 256.322,191.191 259.484,195.104 	"/>
	<polygon stroke="#000000" points="255.03,235.603 253.356,239.578 256.217,244.068 255.739,248.025 252.68,252.536
		253.985,256.998 254.054,261.508 254.228,265.51 250.023,268.462 244.222,268.865 239.813,271.617 234.616,272.656
		230.074,268.906 224.639,269.734 218.946,269.07 214.013,271.558 209.217,272.703 206.991,268.365 202.985,264.881 197.45,262.498
		198.038,256.617 194.829,253.031 192.691,249.056 193.283,244.734 190.101,240.243 193.96,235.516 191.94,230.812 190.481,226.115
		188.139,221.088 193.311,217.045 195.669,212.34 195.839,206.913 200.981,205.801 204.471,200.938 209.917,201.714
		214.375,202.537 220.238,201.158 224.47,206.441 229.534,205.472 233.709,201.969 238.548,201.803 243.785,202.599
		247.586,206.898 253.22,207.101 253.391,212.885 255.173,217.65 258.737,221.503 257.013,226.006 257.939,231.322 	"/>
	<polygon fill="#E4BC96" stroke="#000000" points="281,217.617 278.563,222.626 277.758,227.712 275.403,232.477 269.92,233.295
		265.866,237.133 260.646,237.445 256.353,235.243 251.315,233.972 246.557,231.772 244.236,227.253 243.063,222.481
		241.063,217.613 243.75,213.541 247.485,210.824 250.46,207.575 253.22,204.321 257.69,203.549 260.662,200.892 264.714,201.978
		268.858,203.396 272.533,205.824 274.14,210.294 277.478,213.724 	"/>
	<polygon fill="#D59758" stroke="#000000" points="246.043,208.646 243.455,213.922 245.016,219.59 242.101,224.001
		238.923,227.649 235.263,231.821 229.765,233.316 227.226,237.376 222.576,237.78 219.761,241.539 215.844,241.099 212.79,239.542
		207.86,238.538 205.796,234.288 203.387,229.951 198.451,230.01 194.722,227.498 190.076,227.668 186.629,225.376 186.495,221.466
		184.904,217.282 183.856,213.066 186.114,208.76 187.229,203.418 188.194,197.988 187.817,192.676 192.043,189.637
		197.085,187.276 200.733,182.919 205.699,182.099 210.668,181.447 215.771,184.592 220.041,183.358 224.091,181.869
		228.52,182.315 232.102,180 232.402,184.242 236.201,187.383 235.524,192.154 236.588,196.529 239.233,200.872 243.999,203.853
		"/>
	<polygon fill="#5A3D1C" stroke="#000000" points="235.33,226.283 234.613,231.681 230.055,234.503 225.514,237.345
		221.894,242.101 218.833,247.498 213.366,247.943 209.809,251.012 206.305,253.348 201.519,253.334 196.332,253.105
		191.43,253.022 187.456,249.457 182.217,247.133 177.144,243.728 175.978,237.793 177.683,231.976 176.054,226.722
		176.435,221.297 179.399,216.341 180.139,211.478 182.483,206.487 188.138,205.142 192.571,202.486 196.608,198.948
		201.64,197.642 206.686,195.86 210.587,199.469 215.02,202.069 218.184,206.823 224.005,207.191 228.465,210.536 235.02,210.08
		236.483,215.897 236.786,221.414 	"/>
	<polygon fill="#8B5C29" stroke="#000000" points="259.85,244.479 259.284,249.077 257.111,253.266 255.745,257.826
		250.894,259.745 246.821,262.87 242.851,267.021 238.566,264.502 234.104,264.6 230.205,262.694 226.746,260.517 225.053,256.606
		223.174,252.42 219.261,249.243 219.247,244.687 220.708,240.729 222.499,236.375 223.167,231.556 225.146,227.215
		229.542,226.729 233.943,227.146 238.208,225.454 242.655,226.998 247.244,226.553 251.861,226.439 256.484,226.423
		261.947,225.412 260.713,230.859 260.618,235.477 260.479,240.021 	"/>

	<polygon fill="#D59758" stroke="#000000" points="269.014,208.832 266.124,211.974 264.231,216.302 260.467,219.017
		258.164,223.34 254.174,225.76 250.404,229.387 246.587,225.486 242.874,222.484 238.935,220.276 235.762,216.777 232.057,213.374
		230.363,208.899 232.112,204.46 235.465,200.879 238.413,196.931 242.041,194.14 246.27,192.568 250.284,189.633 255.037,191.668
		259.261,193.892 263.857,195.376 265.586,200.037 267.874,204.361 	"/>
	<polygon fill="#3F3F3F" stroke="#000000" points="251.205,217.697 250.011,222.521 249.065,227.33 248.349,232.442
		243.318,233.522 238.247,233.113 233.628,234.521 228.684,234.674 223.863,233.676 219.449,231.882 217.768,227.41 216.15,222.662
		214.622,217.736 215.959,212.595 218.133,207.777 218.075,202.217 223.33,200.078 228.408,198.146 233.719,195.935 237.16,200.157
		240.816,203.585 245.961,205.533 247.953,209.599 249.893,213.419 	"/>
</g>
<g>
	<polygon fill="#666666" stroke="#000000" stroke-dasharray="2" points="331.248,127.646 329.287,130.994 327.055,134.532
		324.866,138 322.007,141.633 317.615,143.56 314.598,146.293 310.45,145.037 307.095,141.712 303.034,139.26 301.684,133.366
		298.943,127.835 300.004,122.93 300.063,118.126 300.238,113.33 304.957,112.122 309.931,113.19 314.628,111.782 318.941,113.09
		323.217,114.612 328.176,114.146 328.322,119.19 331.484,123.104 	"/>
	<polygon stroke="#000000" stroke-dasharray="2" points="327.03,163.603 325.356,167.578 328.218,172.068 327.739,176.025
		324.68,180.535 325.985,184.998 326.054,189.508 326.228,193.51 322.023,196.462 316.222,196.865 311.813,199.617 306.616,200.656
		302.074,196.906 296.639,197.734 290.946,197.07 286.013,199.558 281.217,200.703 278.991,196.365 274.985,192.881 269.45,190.498
		270.038,184.617 266.829,181.031 264.691,177.056 265.283,172.734 262.101,168.242 265.96,163.515 263.94,158.812 262.481,154.115
		260.139,149.088 265.311,145.045 267.669,140.34 267.839,134.912 272.981,133.801 276.471,128.938 281.917,129.714
		286.375,130.536 292.238,129.157 296.47,134.44 301.534,133.472 305.709,129.969 310.548,129.803 315.784,130.599 319.587,134.896
		325.22,135.101 325.391,140.885 327.174,145.65 330.737,149.503 329.013,154.006 329.939,159.322 	"/>
	<polygon fill="#E4BC96" stroke="#000000" stroke-dasharray="2" points="352.999,145.617 350.563,150.626 349.759,155.712
		347.403,160.476 341.921,161.295 337.865,165.133 332.646,165.445 328.353,163.242 323.315,161.972 318.557,159.773
		316.236,155.253 315.063,150.482 313.063,145.613 315.749,141.541 319.485,138.824 322.461,135.574 325.22,132.32 329.69,131.549
		332.661,128.892 336.715,129.978 340.858,131.396 344.532,133.823 346.14,138.294 349.478,141.724 	"/>
	<polygon fill="#D59758" stroke="#000000" stroke-dasharray="2" points="318.044,136.646 315.455,141.922 317.016,147.59
		314.101,152.001 310.923,155.648 307.263,159.82 301.765,161.316 299.226,165.376 294.576,165.779 291.761,169.539
		287.844,169.099 284.79,167.541 279.86,166.537 277.796,162.287 275.387,157.951 270.451,158.01 266.722,155.498 262.076,155.668
		258.629,153.375 258.495,149.465 256.904,145.281 255.856,141.066 258.114,136.76 259.229,131.417 260.194,125.987
		259.817,120.676 264.043,117.637 269.085,115.275 272.733,110.919 277.699,110.099 282.668,109.446 287.771,112.592
		292.041,111.357 296.091,109.868 300.52,110.313 304.102,107.999 304.402,112.241 308.201,115.383 307.524,120.153
		308.588,124.528 311.233,128.871 315.998,131.853 	"/>
	<polygon fill="#5A3D1C" stroke="#000000" stroke-dasharray="2" points="307.33,154.283 306.613,159.681 302.055,162.503
		297.514,165.344 293.894,170.101 290.833,175.498 285.366,175.943 281.809,179.012 278.305,181.347 273.519,181.334
		268.332,181.104 263.43,181.023 259.456,177.457 254.217,175.133 249.144,171.728 247.978,165.793 249.683,159.976
		248.054,154.722 248.435,149.297 251.399,144.34 252.139,139.478 254.483,134.486 260.138,133.142 264.571,130.485
		268.608,126.947 273.64,125.642 278.686,123.859 282.587,127.469 287.02,130.068 290.184,134.822 296.005,135.191 300.465,138.535
		307.02,138.08 308.483,143.898 308.786,149.414 	"/>
	<polygon fill="#8B5C29" stroke="#000000" stroke-dasharray="2" points="331.85,172.479 331.283,177.076 329.111,181.265
		327.744,185.826 322.894,187.744 318.821,190.869 314.851,195.021 310.566,192.501 306.104,192.599 302.205,190.693
		298.746,188.517 297.053,184.607 295.174,180.42 291.261,177.242 291.247,172.687 292.708,168.728 294.499,164.375
		295.167,159.556 297.146,155.215 301.542,154.729 305.943,155.146 310.208,153.453 314.655,154.998 319.243,154.553
		323.861,154.438 328.484,154.422 333.947,153.412 332.714,158.859 332.617,163.476 332.479,168.021 	"/>

	<polygon fill="#D59758" stroke="#000000" stroke-dasharray="2" points="341.014,136.832 338.123,139.974 336.231,144.301
		332.468,147.017 330.163,151.34 326.175,153.76 322.404,157.387 318.588,153.486 314.874,150.484 310.935,148.275 307.762,144.777
		304.057,141.373 302.363,136.898 304.112,132.46 307.465,128.879 310.413,124.931 314.041,122.14 318.27,120.567 322.283,117.633
		327.036,119.667 331.261,121.892 335.857,123.376 337.587,128.036 339.873,132.36 	"/>
	<polygon fill="#3F3F3F" stroke="#000000" stroke-dasharray="2" points="323.204,145.697 322.011,150.521 321.065,155.33
		320.349,160.441 315.318,161.523 310.247,161.113 305.628,162.521 300.684,162.674 295.863,161.676 291.449,159.881
		289.768,155.41 288.15,150.662 286.622,145.736 287.959,140.594 290.133,135.777 290.075,130.217 295.33,128.077 300.408,126.146
		305.719,123.935 309.16,128.156 312.816,131.585 317.962,133.532 319.952,137.599 321.893,141.419 	"/>
</g>
<g>
	<polygon fill="#666666" stroke="#000000" stroke-dasharray="2" points="691.25,55.647 689.289,58.995 687.054,62.533 684.867,66
		682.007,69.634 677.617,71.561 674.599,74.293 670.451,73.037 667.095,69.712 663.035,67.261 661.685,61.367 658.945,55.835
		660.005,50.93 660.062,46.126 660.24,41.331 664.958,40.123 669.931,41.191 674.63,39.783 678.943,41.09 683.218,42.613
		688.177,42.147 688.324,47.191 691.486,51.104 	"/>
	<polygon stroke="#000000" stroke-dasharray="2" points="687.031,91.604 685.357,95.578 688.218,100.068 687.74,104.025
		684.681,108.535 685.986,112.998 686.054,117.509 686.228,121.511 682.025,124.462 676.222,124.865 671.814,127.617
		666.617,128.656 662.074,124.906 656.638,125.734 650.947,125.07 646.013,127.559 641.218,128.703 638.992,124.365
		634.986,120.882 629.451,118.498 630.039,112.617 626.83,109.031 624.693,105.057 625.283,100.734 622.101,96.242 625.96,91.516
		623.941,86.812 622.482,82.115 620.138,77.089 625.312,73.046 627.671,68.341 627.839,62.913 632.982,61.801 636.472,56.938
		641.917,57.714 646.375,58.537 652.24,57.158 656.47,62.441 661.535,61.472 665.71,57.969 670.548,57.803 675.785,58.599
		679.587,62.898 685.22,63.102 685.39,68.886 687.173,73.65 690.738,77.504 689.013,82.007 689.941,87.322 	"/>
	<polygon fill="#E4BC96" stroke="#000000" stroke-dasharray="2" points="713,73.617 710.564,78.627 709.759,83.712 707.404,88.477
		701.921,89.296 697.867,93.134 692.648,93.445 688.353,91.242 683.316,89.973 678.556,87.773 676.238,83.254 675.064,78.482
		673.064,73.613 675.75,69.541 679.486,66.824 682.46,63.574 685.22,60.321 689.691,59.549 692.662,56.892 696.716,57.978
		700.859,59.396 704.533,61.824 706.14,66.295 709.478,69.725 	"/>
	<polygon fill="#D59758" stroke="#000000" stroke-dasharray="2" points="678.044,64.646 675.455,69.923 677.015,75.591
		674.101,80.002 670.925,83.648 667.263,87.82 661.765,89.316 659.226,93.377 654.576,93.779 651.761,97.539 647.845,97.1
		644.791,95.541 639.861,94.537 637.796,90.287 635.388,85.951 630.451,86.011 626.722,83.498 622.076,83.668 618.63,81.375
		618.496,77.466 616.906,73.281 615.857,69.066 618.115,64.761 619.23,59.418 620.195,53.988 619.818,48.676 624.044,45.637
		629.087,43.276 632.734,38.919 637.699,38.099 642.669,37.447 647.771,40.592 652.041,39.358 656.093,37.869 660.521,38.315
		664.101,36 664.404,40.242 668.201,43.383 667.525,48.154 668.589,52.529 671.234,56.872 676,59.853 	"/>
	<polygon fill="#5A3D1C" stroke="#000000" stroke-dasharray="2" points="667.33,82.283 666.615,87.682 662.054,90.504
		657.515,93.345 653.894,98.102 650.833,103.498 645.367,103.943 641.81,107.014 638.306,109.348 633.519,109.334 628.332,109.104
		623.429,109.023 619.457,105.457 614.218,103.134 609.144,99.729 607.978,93.793 609.683,87.977 608.054,82.723 608.435,77.298
		611.4,72.341 612.14,67.479 614.484,62.487 620.138,61.142 624.572,58.486 628.609,54.948 633.64,53.642 638.685,51.86
		642.587,55.469 647.019,58.069 650.183,62.823 656.005,63.191 660.466,66.535 667.021,66.08 668.484,71.898 668.787,77.414 	"/>
	<polygon fill="#8B5C29" stroke="#000000" stroke-dasharray="2" points="691.849,100.48 691.285,105.076 689.113,109.266
		687.746,113.826 682.894,115.744 678.822,118.869 674.851,123.021 670.568,120.502 666.105,120.6 662.205,118.693 658.746,116.518
		657.054,112.607 655.175,108.421 651.261,105.242 651.248,100.688 652.708,96.729 654.5,92.375 655.169,87.557 657.146,83.216
		661.544,82.73 665.945,83.146 670.208,81.453 674.656,82.998 679.244,82.555 683.863,82.438 688.486,82.423 693.949,81.412
		692.714,86.859 692.619,91.477 692.48,96.021 	"/>

	<polygon fill="#D59758" stroke="#000000" stroke-dasharray="2" points="701.015,64.832 698.125,67.975 696.232,72.302
		692.468,75.018 690.164,79.341 686.175,81.761 682.406,85.389 678.589,81.486 674.875,78.484 670.935,76.275 667.761,72.777
		664.056,69.373 662.365,64.898 664.113,60.46 667.466,56.879 670.414,52.931 674.041,50.14 678.271,48.568 682.285,45.633
		687.037,47.668 691.261,49.892 695.859,51.376 697.587,56.037 699.875,60.361 	"/>
	<polygon fill="#3F3F3F" stroke="#000000" stroke-dasharray="2" points="683.205,73.697 682.011,78.521 681.066,83.33
		680.349,88.441 675.32,89.523 670.248,89.113 665.628,90.521 660.685,90.675 655.865,89.677 651.449,87.882 649.769,83.41
		648.152,78.662 646.623,73.736 647.96,68.595 650.134,63.777 650.076,58.217 655.33,56.078 660.408,54.146 665.718,51.935
		669.16,56.157 672.818,59.585 677.962,61.533 679.953,65.6 681.892,69.42 	"/>
</g>
<g>
	<polygon fill="#666666" stroke="#000000" points="403.248,199.648 401.287,202.995 399.055,206.533 396.866,210.001
		394.007,213.634 389.615,215.56 386.598,218.293 382.449,217.038 379.095,213.712 375.033,211.261 373.684,205.367
		370.943,199.835 372.005,194.929 372.063,190.126 372.238,185.331 376.956,184.123 381.931,185.191 386.629,183.783
		390.941,185.09 395.217,186.613 400.176,186.148 400.322,191.191 403.484,195.104 	"/>
	<polygon stroke="#000000" points="399.03,235.603 397.356,239.578 400.218,244.068 399.739,248.025 396.68,252.536
		397.985,256.998 398.054,261.508 398.228,265.51 394.023,268.462 388.222,268.865 383.813,271.617 378.615,272.656
		374.073,268.906 368.639,269.734 362.946,269.07 358.013,271.558 353.218,272.703 350.99,268.365 346.985,264.881 341.449,262.498
		342.037,256.617 338.828,253.031 336.691,249.056 337.282,244.734 334.101,240.243 337.961,235.516 335.94,230.812
		334.481,226.115 332.139,221.088 337.311,217.045 339.67,212.34 339.84,206.913 344.981,205.801 348.471,200.938 353.917,201.714
		358.374,202.537 364.238,201.158 368.47,206.441 373.533,205.472 377.71,201.969 382.549,201.803 387.784,202.599 391.587,206.898
		397.22,207.101 397.391,212.885 399.174,217.65 402.737,221.503 401.013,226.006 401.939,231.322 	"/>
	<polygon fill="#E4BC96" stroke="#000000" points="424.999,217.617 422.563,222.626 421.759,227.712 419.403,232.477
		413.921,233.295 409.865,237.133 404.646,237.445 400.353,235.243 395.315,233.972 390.557,231.772 388.236,227.253
		387.063,222.481 385.063,217.613 387.749,213.541 391.485,210.824 394.461,207.575 397.22,204.321 401.69,203.549 404.661,200.892
		408.715,201.978 412.858,203.396 416.532,205.824 418.14,210.294 421.478,213.724 	"/>
	<polygon fill="#D59758" stroke="#000000" points="390.044,208.646 387.454,213.922 389.016,219.59 386.101,224.001
		382.924,227.649 379.263,231.821 373.765,233.316 371.226,237.376 366.575,237.78 363.761,241.539 359.844,241.099
		356.789,239.542 351.86,238.538 349.797,234.288 347.387,229.951 342.45,230.01 338.722,227.498 334.075,227.668 330.63,225.376
		330.494,221.466 328.904,217.282 327.856,213.066 330.114,208.76 331.229,203.418 332.194,197.988 331.817,192.676
		336.044,189.637 341.086,187.276 344.733,182.919 349.698,182.099 354.669,181.447 359.771,184.592 364.04,183.358
		368.092,181.869 372.52,182.315 376.102,180 376.402,184.242 380.2,187.383 379.524,192.154 380.589,196.529 383.233,200.872
		387.998,203.853 	"/>
	<polygon fill="#5A3D1C" stroke="#000000" points="379.329,226.283 378.613,231.681 374.055,234.503 369.514,237.345
		365.894,242.101 362.833,247.498 357.365,247.943 353.809,251.012 350.305,253.348 345.519,253.334 340.331,253.105
		335.43,253.022 331.455,249.457 326.218,247.133 321.144,243.728 319.978,237.793 321.683,231.976 320.054,226.722
		320.435,221.297 323.399,216.341 324.139,211.478 326.483,206.487 332.138,205.142 336.571,202.486 340.608,198.948
		345.64,197.642 350.686,195.86 354.588,199.469 359.02,202.069 362.184,206.823 368.006,207.191 372.466,210.536 379.02,210.08
		380.483,215.897 380.785,221.414 	"/>
	<polygon fill="#8B5C29" stroke="#000000" points="403.85,244.479 403.283,249.077 401.111,253.266 399.744,257.826
		394.894,259.745 390.821,262.87 386.851,267.021 382.566,264.502 378.104,264.6 374.204,262.694 370.745,260.517 369.053,256.606
		367.175,252.42 363.261,249.243 363.246,244.687 364.708,240.729 366.498,236.375 367.168,231.556 369.146,227.215
		373.543,226.729 377.943,227.146 382.208,225.454 386.655,226.998 391.243,226.553 395.861,226.439 400.484,226.423
		405.947,225.412 404.714,230.859 404.617,235.477 404.479,240.021 	"/>

	<polygon fill="#D59758" stroke="#000000" points="413.014,208.832 410.123,211.974 408.231,216.302 404.468,219.017
		402.163,223.34 398.175,225.76 394.404,229.387 390.588,225.486 386.873,222.484 382.935,220.276 379.762,216.777 376.057,213.374
		374.363,208.899 376.112,204.46 379.466,200.879 382.412,196.931 386.04,194.14 390.27,192.568 394.283,189.633 399.036,191.668
		403.261,193.892 407.857,195.376 409.587,200.037 411.873,204.361 	"/>
	<polygon fill="#3F3F3F" stroke="#000000" points="395.204,217.697 394.011,222.521 393.065,227.33 392.349,232.442
		387.318,233.522 382.246,233.113 377.629,234.521 372.684,234.674 367.863,233.676 363.448,231.882 361.768,227.41 360.15,222.662
		358.621,217.736 359.96,212.595 362.134,207.777 362.074,202.217 367.329,200.078 372.407,198.146 377.719,195.935
		381.159,200.157 384.816,203.585 389.962,205.533 391.952,209.599 393.893,213.419 	"/>
</g>
<g>
	<polygon fill="#666666" stroke="#000000" points="547.25,199.648 545.289,202.995 543.054,206.533 540.867,210.001
		538.007,213.634 533.617,215.56 530.599,218.293 526.451,217.038 523.095,213.712 519.035,211.261 517.685,205.367
		514.945,199.835 516.005,194.929 516.062,190.126 516.24,185.331 520.958,184.123 525.931,185.191 530.63,183.783 534.943,185.09
		539.218,186.613 544.177,186.148 544.324,191.191 547.486,195.104 	"/>
	<polygon stroke="#000000" points="543.031,235.603 541.357,239.578 544.218,244.068 543.74,248.025 540.681,252.536
		541.986,256.998 542.054,261.508 542.228,265.51 538.025,268.462 532.222,268.865 527.814,271.617 522.617,272.656
		518.074,268.906 512.638,269.734 506.947,269.07 502.013,271.558 497.218,272.703 494.992,268.365 490.986,264.881
		485.451,262.498 486.039,256.617 482.83,253.031 480.693,249.056 481.283,244.734 478.101,240.243 481.96,235.516 479.941,230.812
		478.482,226.115 476.138,221.088 481.312,217.045 483.671,212.34 483.839,206.913 488.982,205.801 492.472,200.938
		497.917,201.714 502.375,202.537 508.24,201.158 512.47,206.441 517.535,205.472 521.71,201.969 526.548,201.803 531.785,202.599
		535.587,206.898 541.22,207.101 541.39,212.885 543.173,217.65 546.738,221.503 545.013,226.006 545.941,231.322 	"/>
	<polygon fill="#E4BC96" stroke="#000000" points="569,217.617 566.564,222.626 565.759,227.712 563.404,232.477 557.921,233.295
		553.867,237.133 548.648,237.445 544.353,235.243 539.316,233.972 534.556,231.772 532.238,227.253 531.064,222.481
		529.064,217.613 531.75,213.541 535.486,210.824 538.46,207.575 541.22,204.321 545.691,203.549 548.662,200.892 552.716,201.978
		556.859,203.396 560.533,205.824 562.14,210.294 565.478,213.724 	"/>
	<polygon fill="#D59758" stroke="#000000" points="534.044,208.646 531.455,213.922 533.015,219.59 530.101,224.001
		526.925,227.649 523.263,231.821 517.765,233.316 515.226,237.376 510.576,237.78 507.761,241.539 503.845,241.099
		500.791,239.542 495.861,238.538 493.796,234.288 491.388,229.951 486.451,230.01 482.722,227.498 478.076,227.668 474.63,225.376
		474.496,221.466 472.906,217.282 471.857,213.066 474.115,208.76 475.23,203.418 476.195,197.988 475.818,192.676 480.044,189.637
		485.087,187.276 488.734,182.919 493.699,182.099 498.669,181.447 503.771,184.592 508.041,183.358 512.093,181.869
		516.521,182.315 520.101,180 520.404,184.242 524.201,187.383 523.525,192.154 524.589,196.529 527.234,200.872 532,203.853 	"/>
	<polygon fill="#5A3D1C" stroke="#000000" points="523.33,226.283 522.615,231.681 518.054,234.503 513.515,237.345
		509.894,242.101 506.833,247.498 501.367,247.943 497.81,251.012 494.306,253.348 489.519,253.334 484.332,253.105
		479.429,253.022 475.457,249.457 470.218,247.133 465.144,243.728 463.978,237.793 465.683,231.976 464.054,226.722
		464.435,221.297 467.4,216.341 468.14,211.478 470.484,206.487 476.138,205.142 480.572,202.486 484.609,198.948 489.64,197.642
		494.685,195.86 498.587,199.469 503.019,202.069 506.183,206.823 512.005,207.191 516.466,210.536 523.021,210.08 524.484,215.897
		524.787,221.414 	"/>
	<polygon fill="#8B5C29" stroke="#000000" points="547.849,244.479 547.285,249.077 545.113,253.266 543.746,257.826
		538.894,259.745 534.822,262.87 530.851,267.021 526.568,264.502 522.105,264.6 518.205,262.694 514.746,260.517 513.054,256.606
		511.175,252.42 507.261,249.243 507.248,244.687 508.708,240.729 510.5,236.375 511.169,231.556 513.146,227.215 517.544,226.729
		521.945,227.146 526.208,225.454 530.656,226.998 535.244,226.553 539.863,226.439 544.486,226.423 549.949,225.412
		548.714,230.859 548.619,235.477 548.48,240.021 	"/>

	<polygon fill="#D59758" stroke="#000000" points="557.015,208.832 554.125,211.974 552.232,216.302 548.468,219.017
		546.164,223.34 542.175,225.76 538.406,229.387 534.589,225.486 530.875,222.484 526.935,220.276 523.761,216.777 520.056,213.374
		518.365,208.899 520.113,204.46 523.466,200.879 526.414,196.931 530.041,194.14 534.271,192.568 538.285,189.633 543.037,191.668
		547.261,193.892 551.859,195.376 553.587,200.037 555.875,204.361 	"/>
	<polygon fill="#3F3F3F" stroke="#000000" points="539.205,217.697 538.011,222.521 537.066,227.33 536.349,232.442 531.32,233.522
		526.248,233.113 521.628,234.521 516.685,234.674 511.865,233.676 507.449,231.882 505.769,227.41 504.152,222.662
		502.623,217.736 503.96,212.595 506.134,207.777 506.076,202.217 511.33,200.078 516.408,198.146 521.718,195.935 525.16,200.157
		528.818,203.585 533.962,205.533 535.953,209.599 537.892,213.419 	"/>
</g>
<g>
	<polygon fill="#666666" stroke="#000000" points="691.25,199.648 689.289,202.995 687.054,206.533 684.867,210.001
		682.007,213.634 677.617,215.56 674.599,218.293 670.451,217.038 667.095,213.712 663.035,211.261 661.685,205.367
		658.945,199.835 660.005,194.929 660.062,190.126 660.24,185.331 664.958,184.123 669.931,185.191 674.63,183.783 678.943,185.09
		683.218,186.613 688.177,186.148 688.324,191.191 691.486,195.104 	"/>
	<polygon stroke="#000000" points="687.031,235.603 685.357,239.578 688.218,244.068 687.74,248.025 684.681,252.536
		685.986,256.998 686.054,261.508 686.228,265.51 682.025,268.462 676.222,268.865 671.814,271.617 666.617,272.656
		662.074,268.906 656.638,269.734 650.947,269.07 646.013,271.558 641.218,272.703 638.992,268.365 634.986,264.881
		629.451,262.498 630.039,256.617 626.83,253.031 624.693,249.056 625.283,244.734 622.101,240.243 625.96,235.516 623.941,230.812
		622.482,226.115 620.138,221.088 625.312,217.045 627.671,212.34 627.839,206.913 632.982,205.801 636.472,200.938
		641.917,201.714 646.375,202.537 652.24,201.158 656.47,206.441 661.535,205.472 665.71,201.969 670.548,201.803 675.785,202.599
		679.587,206.898 685.22,207.101 685.39,212.885 687.173,217.65 690.738,221.503 689.013,226.006 689.941,231.322 	"/>
	<polygon fill="#E4BC96" stroke="#000000" points="713,217.617 710.564,222.626 709.759,227.712 707.404,232.477 701.921,233.295
		697.867,237.133 692.648,237.445 688.353,235.243 683.316,233.972 678.556,231.772 676.238,227.253 675.064,222.481
		673.064,217.613 675.75,213.541 679.486,210.824 682.46,207.575 685.22,204.321 689.691,203.549 692.662,200.892 696.716,201.978
		700.859,203.396 704.533,205.824 706.14,210.294 709.478,213.724 	"/>
	<polygon fill="#D59758" stroke="#000000" points="678.044,208.646 675.455,213.922 677.015,219.59 674.101,224.001
		670.925,227.649 667.263,231.821 661.765,233.316 659.226,237.376 654.576,237.78 651.761,241.539 647.845,241.099
		644.791,239.542 639.861,238.538 637.796,234.288 635.388,229.951 630.451,230.01 626.722,227.498 622.076,227.668 618.63,225.376
		618.496,221.466 616.906,217.282 615.857,213.066 618.115,208.76 619.23,203.418 620.195,197.988 619.818,192.676 624.044,189.637
		629.087,187.276 632.734,182.919 637.699,182.099 642.669,181.447 647.771,184.592 652.041,183.358 656.093,181.869
		660.521,182.315 664.101,180 664.404,184.242 668.201,187.383 667.525,192.154 668.589,196.529 671.234,200.872 676,203.853 	"/>
	<polygon fill="#5A3D1C" stroke="#000000" points="667.33,226.283 666.615,231.681 662.054,234.503 657.515,237.345
		653.894,242.101 650.833,247.498 645.367,247.943 641.81,251.012 638.306,253.348 633.519,253.334 628.332,253.105
		623.429,253.022 619.457,249.457 614.218,247.133 609.144,243.728 607.978,237.793 609.683,231.976 608.054,226.722
		608.435,221.297 611.4,216.341 612.14,211.478 614.484,206.487 620.138,205.142 624.572,202.486 628.609,198.948 633.64,197.642
		638.685,195.86 642.587,199.469 647.019,202.069 650.183,206.823 656.005,207.191 660.466,210.536 667.021,210.08 668.484,215.897
		668.787,221.414 	"/>
	<polygon fill="#8B5C29" stroke="#000000" points="691.849,244.479 691.285,249.077 689.113,253.266 687.746,257.826
		682.894,259.745 678.822,262.87 674.851,267.021 670.568,264.502 666.105,264.6 662.205,262.694 658.746,260.517 657.054,256.606
		655.175,252.42 651.261,249.243 651.248,244.687 652.708,240.729 654.5,236.375 655.169,231.556 657.146,227.215 661.544,226.729
		665.945,227.146 670.208,225.454 674.656,226.998 679.244,226.553 683.863,226.439 688.486,226.423 693.949,225.412
		692.714,230.859 692.619,235.477 692.48,240.021 	"/>

	<polygon fill="#D59758" stroke="#000000" points="701.015,208.832 698.125,211.974 696.232,216.302 692.468,219.017
		690.164,223.34 686.175,225.76 682.406,229.387 678.589,225.486 674.875,222.484 670.935,220.276 667.761,216.777 664.056,213.374
		662.365,208.899 664.113,204.46 667.466,200.879 670.414,196.931 674.041,194.14 678.271,192.568 682.285,189.633 687.037,191.668
		691.261,193.892 695.859,195.376 697.587,200.037 699.875,204.361 	"/>
	<polygon fill="#3F3F3F" stroke="#000000" points="683.205,217.697 682.011,222.521 681.066,227.33 680.349,232.442 675.32,233.522
		670.248,233.113 665.628,234.521 660.685,234.674 655.865,233.676 651.449,231.882 649.769,227.41 648.152,222.662
		646.623,217.736 647.96,212.595 650.134,207.777 650.076,202.217 655.33,200.078 660.408,198.146 665.718,195.935 669.16,200.157
		672.818,203.585 677.962,205.533 679.953,209.599 681.892,213.419 	"/>
</g>
<g>
	<polygon fill="#666666" stroke="#000000" points="835.25,199.648 833.289,202.995 831.054,206.533 828.867,210.001
		826.007,213.634 821.617,215.56 818.599,218.293 814.451,217.038 811.095,213.712 807.035,211.261 805.685,205.367
		802.945,199.835 804.005,194.929 804.062,190.126 804.24,185.331 808.958,184.123 813.931,185.191 818.63,183.783 822.943,185.09
		827.218,186.613 832.177,186.148 832.324,191.191 835.486,195.104 	"/>
	<polygon stroke="#000000" points="831.031,235.603 829.357,239.578 832.218,244.068 831.74,248.025 828.681,252.536
		829.986,256.998 830.054,261.508 830.228,265.51 826.025,268.462 820.222,268.865 815.814,271.617 810.617,272.656
		806.074,268.906 800.638,269.734 794.947,269.07 790.013,271.558 785.218,272.703 782.992,268.365 778.986,264.881
		773.451,262.498 774.039,256.617 770.83,253.031 768.693,249.056 769.283,244.734 766.101,240.243 769.96,235.516 767.941,230.812
		766.482,226.115 764.138,221.088 769.312,217.045 771.671,212.34 771.839,206.913 776.982,205.801 780.472,200.938
		785.917,201.714 790.375,202.537 796.24,201.158 800.47,206.441 805.535,205.472 809.71,201.969 814.548,201.803 819.785,202.599
		823.587,206.898 829.22,207.101 829.39,212.885 831.173,217.65 834.738,221.503 833.013,226.006 833.941,231.322 	"/>
	<polygon fill="#E4BC96" stroke="#000000" points="857,217.617 854.564,222.626 853.759,227.712 851.404,232.477 845.921,233.295
		841.867,237.133 836.648,237.445 832.353,235.243 827.316,233.972 822.556,231.772 820.238,227.253 819.064,222.481
		817.064,217.613 819.75,213.541 823.486,210.824 826.46,207.575 829.22,204.321 833.691,203.549 836.662,200.892 840.716,201.978
		844.859,203.396 848.533,205.824 850.14,210.294 853.478,213.724 	"/>
	<polygon fill="#D59758" stroke="#000000" points="822.044,208.646 819.455,213.922 821.015,219.59 818.101,224.001
		814.925,227.649 811.263,231.821 805.765,233.316 803.226,237.376 798.576,237.78 795.761,241.539 791.845,241.099
		788.791,239.542 783.861,238.538 781.796,234.288 779.388,229.951 774.451,230.01 770.722,227.498 766.076,227.668 762.63,225.376
		762.496,221.466 760.906,217.282 759.857,213.066 762.115,208.76 763.23,203.418 764.195,197.988 763.818,192.676 768.044,189.637
		773.087,187.276 776.734,182.919 781.699,182.099 786.669,181.447 791.771,184.592 796.041,183.358 800.093,181.869
		804.521,182.315 808.101,180 808.404,184.242 812.201,187.383 811.525,192.154 812.589,196.529 815.234,200.872 820,203.853 	"/>
	<polygon fill="#5A3D1C" stroke="#000000" points="811.33,226.283 810.615,231.681 806.054,234.503 801.515,237.345
		797.894,242.101 794.833,247.498 789.367,247.943 785.81,251.012 782.306,253.348 777.519,253.334 772.332,253.105
		767.429,253.022 763.457,249.457 758.218,247.133 753.144,243.728 751.978,237.793 753.683,231.976 752.054,226.722
		752.435,221.297 755.4,216.341 756.14,211.478 758.484,206.487 764.138,205.142 768.572,202.486 772.609,198.948 777.64,197.642
		782.685,195.86 786.587,199.469 791.019,202.069 794.183,206.823 800.005,207.191 804.466,210.536 811.021,210.08 812.484,215.897
		812.787,221.414 	"/>
	<polygon fill="#8B5C29" stroke="#000000" points="835.849,244.479 835.285,249.077 833.113,253.266 831.746,257.826
		826.894,259.745 822.822,262.87 818.851,267.021 814.568,264.502 810.105,264.6 806.205,262.694 802.746,260.517 801.054,256.606
		799.175,252.42 795.261,249.243 795.248,244.687 796.708,240.729 798.5,236.375 799.169,231.556 801.146,227.215 805.544,226.729
		809.945,227.146 814.208,225.454 818.656,226.998 823.244,226.553 827.863,226.439 832.486,226.423 837.949,225.412
		836.714,230.859 836.619,235.477 836.48,240.021 	"/>

	<polygon fill="#D59758" stroke="#000000" points="845.015,208.832 842.125,211.974 840.232,216.302 836.468,219.017
		834.164,223.34 830.175,225.76 826.406,229.387 822.589,225.486 818.875,222.484 814.935,220.276 811.761,216.777 808.056,213.374
		806.365,208.899 808.113,204.46 811.466,200.879 814.414,196.931 818.041,194.14 822.271,192.568 826.285,189.633 831.037,191.668
		835.261,193.892 839.859,195.376 841.587,200.037 843.875,204.361 	"/>
	<polygon fill="#3F3F3F" stroke="#000000" points="827.205,217.697 826.011,222.521 825.066,227.33 824.349,232.442 819.32,233.522
		814.248,233.113 809.628,234.521 804.685,234.674 799.865,233.676 795.449,231.882 793.769,227.41 792.152,222.662
		790.623,217.736 791.96,212.595 794.134,207.777 794.076,202.217 799.33,200.078 804.408,198.146 809.718,195.935 813.16,200.157
		816.818,203.585 821.962,205.533 823.953,209.599 825.892,213.419 	"/>
</g>
<g>
	<polygon fill="#666666" stroke="#000000" points="761.759,126.159 759.798,129.504 757.566,133.043 755.376,136.51
		752.517,140.146 748.126,142.071 745.109,144.802 740.96,143.547 737.605,140.223 733.544,137.773 732.195,131.877
		729.455,126.345 730.515,121.441 730.574,116.636 730.75,111.84 735.468,110.632 740.441,111.702 745.14,110.293 749.453,111.602
		753.728,113.124 758.687,112.659 758.833,117.702 761.996,121.615 	"/>
	<polygon stroke="#000000" points="757.542,162.114 755.869,166.087 758.728,170.579 758.251,174.536 755.191,179.045
		756.498,183.507 756.564,188.02 756.738,192.021 752.535,194.974 746.732,195.376 742.326,198.127 737.126,199.167
		732.583,195.417 727.15,196.245 721.458,195.581 716.523,198.069 711.728,199.212 709.501,194.876 705.498,191.393 699.96,189.007
		700.548,183.127 697.339,179.542 695.203,175.567 695.794,171.245 692.611,166.753 696.472,162.027 694.453,157.323
		692.994,152.626 690.65,147.6 695.822,143.557 698.181,138.852 698.351,133.422 703.492,132.312 706.982,127.449 712.427,128.226
		716.884,129.046 722.75,127.668 726.98,132.952 732.044,131.983 736.22,128.48 741.06,128.315 746.294,129.11 750.097,133.409
		755.73,133.612 755.902,139.396 757.685,144.161 761.25,148.014 759.523,152.518 760.451,157.833 	"/>
	<polygon fill="#E4BC96" stroke="#000000" points="783.509,144.127 781.074,149.136 780.269,154.223 777.914,158.988
		772.431,159.807 768.376,163.645 763.158,163.956 758.863,161.753 753.826,160.483 749.068,158.284 746.75,153.764
		745.574,148.993 743.576,144.124 746.261,140.05 749.998,137.335 752.972,134.085 755.73,130.832 760.201,130.061 763.171,127.403
		767.226,128.489 771.371,129.907 775.042,132.335 776.65,136.804 779.988,140.235 	"/>
	<polygon fill="#D59758" stroke="#000000" points="748.554,135.157 745.966,140.434 747.527,146.102 744.611,150.511
		741.435,154.16 737.773,158.332 732.275,159.827 729.736,163.886 725.087,164.291 722.271,168.048 718.355,167.61 715.3,166.051
		710.373,165.047 708.308,160.797 705.898,156.461 700.96,156.521 697.232,154.007 692.587,154.177 689.14,151.885 689.005,147.978
		687.417,143.793 686.367,139.577 688.626,135.271 689.74,129.927 690.707,124.499 690.328,119.188 694.554,116.149
		699.597,113.787 703.244,109.43 708.208,108.61 713.179,107.958 718.281,111.104 722.55,109.869 726.603,108.379 731.031,108.826
		734.613,106.509 734.914,110.752 738.71,113.895 738.037,118.665 739.099,123.04 741.746,127.381 746.509,130.364 	"/>
	<polygon fill="#5A3D1C" stroke="#000000" points="737.839,152.793 737.125,158.192 732.566,161.014 728.025,163.857
		724.404,168.612 721.343,174.007 715.876,174.454 712.32,177.524 708.816,179.859 704.029,179.843 698.841,179.617
		693.941,179.534 689.966,175.966 684.728,173.645 679.654,170.239 678.488,164.302 680.193,158.487 678.564,153.233
		678.945,147.809 681.912,142.853 682.65,137.989 684.996,132.998 690.648,131.653 695.083,128.997 699.121,125.459 704.15,124.153
		709.197,122.371 713.099,125.98 717.531,128.58 720.695,133.334 726.517,133.702 730.976,137.045 737.531,136.589 738.996,142.409
		739.296,147.923 	"/>
	<polygon fill="#8B5C29" stroke="#000000" points="762.361,170.991 761.794,175.587 759.625,179.777 758.255,184.336
		753.404,186.254 749.333,189.379 745.361,193.532 741.078,191.012 736.615,191.111 732.716,189.205 729.255,187.028
		727.564,183.118 725.685,178.932 721.771,175.753 721.757,171.198 723.218,167.24 725.009,162.884 725.679,158.067
		727.658,153.727 732.054,153.241 736.455,153.657 740.718,151.963 745.167,153.507 749.753,153.065 754.375,152.951
		758.996,152.935 764.458,151.921 763.224,157.37 763.128,161.988 762.99,166.532 	"/>

	<polygon fill="#D59758" stroke="#000000" points="771.525,135.341 768.634,138.485 766.744,142.813 762.978,145.528
		760.673,149.852 756.685,152.271 752.917,155.899 749.099,151.997 745.384,148.995 741.445,146.787 738.273,143.288
		734.568,139.883 732.875,135.41 734.625,130.97 737.976,127.391 740.923,123.442 744.55,120.651 748.781,119.079 752.794,116.145
		757.546,118.177 761.771,120.403 766.369,121.886 768.097,126.546 770.384,130.872 	"/>
	<polygon fill="#3F3F3F" stroke="#000000" points="753.716,144.208 752.521,149.032 751.578,153.839 750.859,158.953
		745.83,160.034 740.757,159.624 736.14,161.032 731.195,161.186 726.375,160.188 721.958,158.394 720.279,153.92 718.662,149.171
		717.132,144.247 718.47,139.107 720.644,134.288 720.585,128.729 725.839,126.587 730.917,124.657 736.23,122.446 739.669,126.668
		743.328,130.095 748.472,132.043 750.464,136.11 752.404,139.929 	"/>
</g>
<g>
	<polygon fill="#666666" stroke="#000000" points="616.271,126.159 614.31,129.504 612.076,133.043 609.888,136.51 607.029,140.146
		602.638,142.071 599.621,144.802 595.472,143.547 592.117,140.223 588.056,137.773 586.707,131.877 583.966,126.345
		585.027,121.441 585.083,116.636 585.261,111.84 589.978,110.632 594.953,111.702 599.652,110.293 603.964,111.602 608.24,113.124
		613.199,112.659 613.345,117.702 616.507,121.615 	"/>
	<polygon stroke="#000000" points="612.052,162.114 610.378,166.087 613.24,170.579 612.761,174.536 609.703,179.045
		611.007,183.507 611.076,188.02 611.25,192.021 607.046,194.974 601.244,195.376 596.835,198.127 591.638,199.167 587.095,195.417
		581.66,196.245 575.968,195.581 571.035,198.069 566.24,199.212 564.013,194.876 560.007,191.393 554.472,189.007 555.06,183.127
		551.851,179.542 549.714,175.567 550.304,171.245 547.123,166.753 550.982,162.027 548.962,157.323 547.503,152.626 545.16,147.6
		550.333,143.557 552.693,138.852 552.861,133.422 558.003,132.312 561.494,127.449 566.939,128.226 571.396,129.046
		577.261,127.668 581.492,132.952 586.556,131.983 590.732,128.48 595.57,128.315 600.806,129.11 604.609,133.409 610.242,133.612
		610.412,139.396 612.195,144.161 615.759,148.014 614.035,152.518 614.962,157.833 	"/>
	<polygon fill="#E4BC96" stroke="#000000" points="638.021,144.127 635.585,149.136 634.781,154.223 632.425,158.988
		626.943,159.807 622.888,163.645 617.669,163.956 613.375,161.753 608.337,160.483 603.578,158.284 601.259,153.764
		600.085,148.993 598.085,144.124 600.771,140.05 604.507,137.335 607.482,134.085 610.242,130.832 614.712,130.061
		617.683,127.403 621.738,128.489 625.88,129.907 629.554,132.335 631.162,136.804 634.5,140.235 	"/>
	<polygon fill="#D59758" stroke="#000000" points="603.066,135.157 600.476,140.434 602.037,146.102 599.123,150.511
		595.947,154.16 592.285,158.332 586.787,159.827 584.248,163.886 579.597,164.291 576.783,168.048 572.867,167.61 569.812,166.051
		564.882,165.047 562.818,160.797 560.41,156.461 555.472,156.521 551.744,154.007 547.097,154.177 543.652,151.885
		543.517,147.978 541.927,143.793 540.878,139.577 543.136,135.271 544.251,129.927 545.216,124.499 544.839,119.188
		549.066,116.149 554.109,113.787 557.755,109.43 562.72,108.61 567.691,107.958 572.792,111.104 577.062,109.869 581.115,108.379
		585.542,108.826 589.125,106.509 589.425,110.752 593.222,113.895 592.546,118.665 593.611,123.04 596.255,127.381
		601.021,130.364 	"/>
	<polygon fill="#5A3D1C" stroke="#000000" points="592.351,152.793 591.636,158.192 587.076,161.014 582.537,163.857
		578.916,168.612 575.855,174.007 570.388,174.454 566.832,177.524 563.328,179.859 558.541,179.843 553.353,179.617
		548.451,179.534 544.478,175.966 539.24,173.645 534.166,170.239 533,164.302 534.705,158.487 533.076,153.233 533.457,147.809
		536.421,142.853 537.162,137.989 539.505,132.998 545.16,131.653 549.593,128.997 553.63,125.459 558.662,124.153 563.708,122.371
		567.609,125.98 572.042,128.58 575.205,133.334 581.027,133.702 585.488,137.045 592.042,136.589 593.505,142.409 593.808,147.923
			"/>
	<polygon fill="#8B5C29" stroke="#000000" points="616.871,170.991 616.306,175.587 614.134,179.777 612.767,184.336
		607.916,186.254 603.843,189.379 599.873,193.532 595.589,191.012 591.126,191.111 587.226,189.205 583.767,187.028
		582.076,183.118 580.197,178.932 576.283,175.753 576.269,171.198 577.73,167.24 579.521,162.884 580.191,158.067 582.167,153.727
		586.566,153.241 590.966,153.657 595.23,151.963 599.677,153.507 604.265,153.065 608.884,152.951 613.507,152.935 618.97,151.921
		617.736,157.37 617.64,161.988 617.501,166.532 	"/>

	<polygon fill="#D59758" stroke="#000000" points="626.037,135.341 623.146,138.485 621.253,142.813 617.49,145.528
		615.185,149.852 611.197,152.271 607.427,155.899 603.611,151.997 599.896,148.995 595.957,146.787 592.783,143.288
		589.078,139.883 587.386,135.41 589.134,130.97 592.488,127.391 595.435,123.442 599.062,120.651 603.292,119.079 607.306,116.145
		612.058,118.177 616.283,120.403 620.88,121.886 622.609,126.546 624.896,130.872 	"/>
	<polygon fill="#3F3F3F" stroke="#000000" points="608.226,144.208 607.033,149.032 606.087,153.839 605.371,158.953
		600.341,160.034 595.269,159.624 590.65,161.032 585.707,161.186 580.886,160.188 576.47,158.394 574.791,153.92 573.173,149.171
		571.644,144.247 572.982,139.107 575.156,134.288 575.097,128.729 580.351,126.587 585.429,124.657 590.74,122.446
		594.181,126.668 597.839,130.095 602.984,132.043 604.974,136.11 606.914,139.929 	"/>
</g>
<g>
	<polygon fill="#666666" stroke="#000000" points="115.25,199.648 113.289,202.995 111.055,206.533 108.867,210.001
		106.006,213.634 101.617,215.56 98.599,218.293 94.451,217.038 91.095,213.712 87.035,211.261 85.685,205.367 82.944,199.835
		84.004,194.929 84.063,190.126 84.24,185.331 88.958,184.123 93.931,185.191 98.629,183.783 102.942,185.09 107.217,186.613
		112.176,186.148 112.324,191.191 115.485,195.104 	"/>
	<polygon stroke="#000000" points="111.03,235.603 109.357,239.578 112.217,244.068 111.741,248.025 108.681,252.536
		109.986,256.998 110.054,261.508 110.228,265.51 106.024,268.462 100.222,268.865 95.814,271.617 90.617,272.656 86.074,268.906
		80.639,269.734 74.946,269.07 70.013,271.558 65.217,272.703 62.992,268.365 58.986,264.881 53.451,262.498 54.039,256.617
		50.83,253.031 48.692,249.056 49.284,244.734 46.101,240.243 49.96,235.516 47.941,230.812 46.482,226.115 44.139,221.088
		49.312,217.045 51.67,212.34 51.839,206.913 56.981,205.801 60.472,200.938 65.917,201.714 70.375,202.537 76.24,201.158
		80.47,206.441 85.535,205.472 89.709,201.969 94.548,201.803 99.785,202.599 103.586,206.898 109.22,207.101 109.391,212.885
		111.173,217.65 114.737,221.503 113.013,226.006 113.94,231.322 	"/>
	<polygon fill="#E4BC96" stroke="#000000" points="137,217.617 134.563,222.626 133.758,227.712 131.403,232.477 125.92,233.295
		121.867,237.133 116.647,237.445 112.353,235.243 107.315,233.972 102.557,231.772 100.237,227.253 99.063,222.481 97.064,217.613
		99.75,213.541 103.486,210.824 106.46,207.575 109.22,204.321 113.69,203.549 116.662,200.892 120.715,201.978 124.859,203.396
		128.533,205.824 130.14,210.294 133.478,213.724 	"/>
	<polygon fill="#D59758" stroke="#000000" points="102.043,208.646 99.456,213.922 101.016,219.59 98.101,224.001 94.924,227.649
		91.263,231.821 85.765,233.316 83.226,237.376 78.577,237.78 75.761,241.539 71.845,241.099 68.791,239.542 63.861,238.538
		61.796,234.288 59.388,229.951 54.451,230.01 50.722,227.498 46.077,227.668 42.629,225.376 42.496,221.466 40.905,217.282
		39.856,213.066 42.116,208.76 43.229,203.418 44.195,197.988 43.817,192.676 48.043,189.637 53.086,187.276 56.733,182.919
		61.699,182.099 66.668,181.447 71.771,184.592 76.041,183.358 80.092,181.869 84.521,182.315 88.102,180 88.403,184.242
		92.201,187.383 91.525,192.154 92.588,196.529 95.234,200.872 100,203.853 	"/>
	<polygon fill="#5A3D1C" stroke="#000000" points="91.33,226.283 90.615,231.681 86.055,234.503 81.515,237.345 77.894,242.101
		74.834,247.498 69.367,247.943 65.81,251.012 62.306,253.348 57.519,253.334 52.332,253.105 47.43,253.022 43.457,249.457
		38.217,247.133 33.144,243.728 31.978,237.793 33.683,231.976 32.054,226.722 32.435,221.297 35.4,216.341 36.14,211.478
		38.484,206.487 44.138,205.142 48.572,202.486 52.609,198.948 57.64,197.642 62.686,195.86 66.587,199.469 71.02,202.069
		74.184,206.823 80.005,207.191 84.465,210.536 91.021,210.08 92.484,215.897 92.787,221.414 	"/>
	<polygon fill="#8B5C29" stroke="#000000" points="115.85,244.479 115.285,249.077 113.112,253.266 111.746,257.826
		106.894,259.745 102.821,262.87 98.851,267.021 94.567,264.502 90.104,264.6 86.206,262.694 82.746,260.517 81.054,256.606
		79.174,252.42 75.261,249.243 75.248,244.687 76.708,240.729 78.5,236.375 79.168,231.556 81.146,227.215 85.543,226.729
		89.944,227.146 94.208,225.454 98.655,226.998 103.244,226.553 107.862,226.439 112.485,226.423 117.949,225.412 116.713,230.859
		116.619,235.477 116.479,240.021 	"/>

	<polygon fill="#D59758" stroke="#000000" points="125.015,208.832 122.125,211.974 120.232,216.302 116.467,219.017
		114.164,223.34 110.174,225.76 106.405,229.387 102.588,225.486 98.875,222.484 94.935,220.276 91.762,216.777 88.057,213.374
		86.365,208.899 88.112,204.46 91.465,200.879 94.414,196.931 98.041,194.14 102.271,192.568 106.285,189.633 111.037,191.668
		115.261,193.892 119.858,195.376 121.586,200.037 123.875,204.361 	"/>
	<polygon fill="#3F3F3F" stroke="#000000" points="107.206,217.697 106.011,222.521 105.066,227.33 104.349,232.442 99.319,233.522
		94.248,233.113 89.628,234.521 84.685,234.674 79.865,233.676 75.449,231.882 73.769,227.41 72.151,222.662 70.623,217.736
		71.959,212.595 74.133,207.777 74.076,202.217 79.33,200.078 84.408,198.146 89.719,195.935 93.16,200.157 96.817,203.585
		101.961,205.533 103.954,209.599 105.893,213.419 	"/>
</g>
<g>
	<polygon fill="#666666" stroke="#000000" points="187.25,127.648 185.289,130.995 183.055,134.533 180.867,138.001
		178.006,141.634 173.617,143.56 170.599,146.293 166.451,145.038 163.095,141.712 159.035,139.261 157.685,133.367
		154.944,127.835 156.004,122.93 156.063,118.126 156.239,113.331 160.958,112.123 165.931,113.191 170.629,111.783 174.942,113.09
		179.217,114.613 184.177,114.148 184.324,119.191 187.485,123.104 	"/>
	<polygon stroke="#000000" points="183.03,163.603 181.357,167.578 184.217,172.068 183.741,176.025 180.681,180.536
		181.986,184.998 182.054,189.508 182.228,193.51 178.024,196.462 172.222,196.865 167.814,199.617 162.617,200.656
		158.074,196.906 152.639,197.734 146.946,197.07 142.013,199.558 137.217,200.703 134.992,196.365 130.986,192.881
		125.451,190.498 126.039,184.617 122.83,181.031 120.692,177.056 121.284,172.734 118.101,168.243 121.96,163.516 119.941,158.812
		118.482,154.115 116.139,149.088 121.312,145.045 123.67,140.34 123.839,134.913 128.981,133.801 132.472,128.938 137.917,129.714
		142.375,130.537 148.239,129.158 152.47,134.441 157.535,133.472 161.709,129.969 166.548,129.803 171.785,130.599
		175.586,134.898 181.22,135.101 181.391,140.885 183.173,145.65 186.737,149.503 185.013,154.006 185.94,159.322 	"/>
	<polygon fill="#E4BC96" stroke="#000000" points="209,145.617 206.563,150.626 205.758,155.712 203.403,160.477 197.92,161.295
		193.867,165.133 188.647,165.445 184.353,163.243 179.315,161.972 174.557,159.773 172.237,155.253 171.063,150.482
		169.064,145.613 171.75,141.541 175.486,138.824 178.46,135.575 181.22,132.321 185.69,131.549 188.662,128.892 192.715,129.978
		196.859,131.396 200.533,133.824 202.14,138.294 205.478,141.724 	"/>
	<polygon fill="#D59758" stroke="#000000" points="174.043,136.646 171.456,141.922 173.016,147.59 170.101,152.001
		166.924,155.649 163.263,159.821 157.765,161.316 155.226,165.376 150.577,165.78 147.761,169.539 143.845,169.099
		140.791,167.542 135.861,166.538 133.796,162.288 131.388,157.951 126.451,158.01 122.722,155.498 118.077,155.668
		114.629,153.376 114.496,149.466 112.905,145.282 111.856,141.066 114.116,136.76 115.229,131.418 116.195,125.988
		115.817,120.676 120.043,117.637 125.086,115.276 128.733,110.919 133.699,110.099 138.668,109.447 143.771,112.592
		148.041,111.358 152.092,109.869 156.521,110.315 160.102,108 160.403,112.242 164.201,115.383 163.525,120.154 164.588,124.529
		167.234,128.872 172,131.853 	"/>
	<polygon fill="#5A3D1C" stroke="#000000" points="163.33,154.283 162.614,159.681 158.055,162.503 153.515,165.345
		149.894,170.101 146.834,175.498 141.367,175.943 137.81,179.012 134.306,181.348 129.519,181.334 124.332,181.105 119.43,181.023
		115.457,177.457 110.217,175.133 105.144,171.728 103.978,165.793 105.683,159.976 104.054,154.722 104.435,149.297 107.4,144.341
		108.14,139.478 110.484,134.487 116.138,133.142 120.572,130.486 124.609,126.948 129.64,125.642 134.686,123.86 138.587,127.469
		143.02,130.069 146.184,134.823 152.005,135.191 156.465,138.536 163.021,138.08 164.484,143.898 164.787,149.414 	"/>
	<polygon fill="#8B5C29" stroke="#000000" points="187.85,172.479 187.285,177.077 185.112,181.266 183.746,185.826
		178.894,187.745 174.821,190.87 170.851,195.021 166.567,192.502 162.104,192.6 158.206,190.694 154.746,188.517 153.054,184.607
		151.174,180.42 147.261,177.243 147.248,172.687 148.708,168.729 150.5,164.375 151.168,159.556 153.146,155.215 157.543,154.729
		161.944,155.146 166.208,153.454 170.655,154.998 175.244,154.553 179.862,154.44 184.485,154.423 189.949,153.412
		188.713,158.859 188.619,163.477 188.479,168.021 	"/>

	<polygon fill="#D59758" stroke="#000000" points="197.015,136.832 194.125,139.974 192.232,144.302 188.467,147.017
		186.164,151.34 182.174,153.76 178.405,157.387 174.588,153.486 170.875,150.484 166.935,148.276 163.762,144.777 160.057,141.374
		158.364,136.899 160.112,132.46 163.465,128.879 166.414,124.931 170.041,122.14 174.271,120.568 178.285,117.633 183.037,119.668
		187.261,121.892 191.858,123.376 193.586,128.037 195.875,132.361 	"/>
	<polygon fill="#3F3F3F" stroke="#000000" points="179.206,145.697 178.011,150.521 177.066,155.33 176.349,160.442
		171.319,161.523 166.248,161.113 161.628,162.521 156.685,162.674 151.864,161.676 147.449,159.882 145.769,155.41
		144.151,150.662 142.623,145.736 143.959,140.595 146.133,135.777 146.076,130.217 151.33,128.078 156.408,126.146
		161.719,123.935 165.16,128.157 168.817,131.585 173.961,133.533 175.954,137.599 177.893,141.419 	"/>
</g>
<g>
	<polygon fill="#666666" stroke="#000000" points="475.25,127.648 473.289,130.995 471.054,134.533 468.867,138.001
		466.007,141.634 461.617,143.56 458.599,146.293 454.45,145.038 451.095,141.712 447.034,139.261 445.685,133.367 442.944,127.835
		444.005,122.93 444.063,118.126 444.239,113.331 448.958,112.123 453.931,113.191 458.63,111.783 462.943,113.09 467.218,114.613
		472.177,114.148 472.324,119.191 475.486,123.104 	"/>
	<polygon stroke="#000000" points="471.031,163.603 469.357,167.578 472.218,172.068 471.74,176.025 468.681,180.536
		469.986,184.998 470.054,189.508 470.228,193.51 466.025,196.462 460.222,196.865 455.814,199.617 450.616,200.656
		446.073,196.906 440.639,197.734 434.946,197.07 430.013,199.558 425.218,200.703 422.991,196.365 418.986,192.881 413.45,190.498
		414.038,184.617 410.829,181.031 408.692,177.056 409.283,172.734 406.101,168.243 409.961,163.516 407.941,158.812
		406.482,154.115 404.139,149.088 409.312,145.045 411.671,140.34 411.84,134.913 416.981,133.801 420.472,128.938 425.917,129.714
		430.374,130.537 436.239,129.158 440.47,134.441 445.534,133.472 449.71,129.969 454.549,129.803 459.784,130.599 463.587,134.898
		469.22,135.101 469.39,140.885 471.173,145.65 474.738,149.503 473.013,154.006 473.941,159.322 	"/>
	<polygon fill="#E4BC96" stroke="#000000" points="497,145.617 494.564,150.626 493.759,155.712 491.404,160.477 485.921,161.295
		481.867,165.133 476.648,165.445 472.353,163.243 467.316,161.972 462.556,159.773 460.238,155.253 459.063,150.482
		457.064,145.613 459.749,141.541 463.486,138.824 466.46,135.575 469.22,132.321 473.691,131.549 476.662,128.892 480.716,129.978
		484.859,131.396 488.533,133.824 490.14,138.294 493.478,141.724 	"/>
	<polygon fill="#D59758" stroke="#000000" points="462.044,136.646 459.455,141.922 461.015,147.59 458.101,152.001
		454.925,155.649 451.263,159.821 445.765,161.316 443.226,165.376 438.576,165.78 435.761,169.539 431.845,169.099 428.79,167.542
		423.861,166.538 421.797,162.288 419.388,157.951 414.45,158.01 410.722,155.498 406.076,155.668 402.63,153.376 402.495,149.466
		400.905,145.282 399.856,141.066 402.115,136.76 403.229,131.418 404.195,125.988 403.817,120.676 408.044,117.637
		413.087,115.276 416.733,110.919 421.698,110.099 426.669,109.447 431.771,112.592 436.04,111.358 440.093,109.869
		444.521,110.315 448.102,108 448.403,112.242 452.2,115.383 451.525,120.154 452.589,124.529 455.234,128.872 459.999,131.853 	"/>
	<polygon fill="#5A3D1C" stroke="#000000" points="451.329,154.283 450.614,159.681 446.055,162.503 441.515,165.345
		437.894,170.101 434.833,175.498 429.366,175.943 425.81,179.012 422.306,181.348 417.519,181.334 412.331,181.105 407.43,181.023
		403.456,177.457 398.218,175.133 393.144,171.728 391.978,165.793 393.683,159.976 392.054,154.722 392.435,149.297 395.4,144.341
		396.14,139.478 398.484,134.487 404.138,133.142 408.572,130.486 412.609,126.948 417.64,125.642 422.686,123.86 426.588,127.469
		431.02,130.069 434.184,134.823 440.006,135.191 444.466,138.536 451.021,138.08 452.484,143.898 452.786,149.414 	"/>
	<polygon fill="#8B5C29" stroke="#000000" points="475.849,172.479 475.285,177.077 473.113,181.266 471.746,185.826
		466.894,187.745 462.822,190.87 458.851,195.021 454.567,192.502 450.104,192.6 446.205,190.694 442.745,188.517 441.054,184.607
		439.175,180.42 435.261,177.243 435.247,172.687 436.708,168.729 438.499,164.375 439.169,159.556 441.146,155.215
		445.544,154.729 449.944,155.146 454.208,153.454 458.655,154.998 463.244,154.553 467.863,154.44 472.486,154.423
		477.949,153.412 476.714,158.859 476.619,163.477 476.48,168.021 	"/>

	<polygon fill="#D59758" stroke="#000000" points="485.015,136.832 482.125,139.974 480.232,144.302 476.468,147.017
		474.164,151.34 470.175,153.76 466.406,157.387 462.589,153.486 458.874,150.484 454.935,148.276 451.762,144.777 448.057,141.374
		446.364,136.899 448.112,132.46 451.466,128.879 454.413,124.931 458.04,122.14 462.271,120.568 466.285,117.633 471.037,119.668
		475.261,121.892 479.859,123.376 481.587,128.037 483.875,132.361 	"/>
	<polygon fill="#3F3F3F" stroke="#000000" points="467.205,145.697 466.011,150.521 465.066,155.33 464.349,160.442
		459.319,161.523 454.247,161.113 449.629,162.521 444.685,162.674 439.864,161.676 435.448,159.882 433.769,155.41
		432.151,150.662 430.622,145.736 431.96,140.595 434.134,135.777 434.075,130.217 439.329,128.078 444.407,126.146
		449.719,123.935 453.159,128.157 456.817,131.585 461.962,133.533 463.953,137.599 465.892,141.419 	"/>
</g>
<g>
	<polygon fill="#666666" stroke="#000000" points="547.113,55.786 545.152,59.131 542.917,62.67 540.73,66.137 537.871,69.773
		533.48,71.698 530.462,74.43 526.314,73.174 522.958,69.85 518.898,67.4 517.548,61.504 514.808,55.973 515.869,51.068
		515.925,46.264 516.103,41.467 520.82,40.259 525.794,41.329 530.494,39.92 534.806,41.229 539.082,42.751 544.041,42.286
		544.187,47.329 547.349,51.242 	"/>
	<polygon stroke="#000000" points="542.894,91.741 541.22,95.714 544.082,100.206 543.603,104.163 540.544,108.672 541.849,113.134
		541.917,117.646 542.091,121.649 537.888,124.601 532.085,125.002 527.677,127.754 522.48,128.793 517.937,125.043
		512.501,125.872 506.81,125.208 501.876,127.696 497.082,128.839 494.855,124.502 490.849,121.02 485.314,118.634 485.902,112.754
		482.693,109.168 480.556,105.194 481.146,100.872 477.964,96.379 481.824,91.654 479.804,86.95 478.345,82.252 476.001,77.227
		481.175,73.184 483.535,68.479 483.703,63.049 488.845,61.94 492.335,57.076 497.781,57.853 502.238,58.673 508.103,57.295
		512.333,62.579 517.398,61.61 521.574,58.108 526.412,57.942 531.648,58.737 535.451,63.036 541.083,63.239 541.253,69.024
		543.037,73.788 546.601,77.641 544.876,82.145 545.804,87.46 	"/>
	<polygon fill="#E4BC96" stroke="#000000" points="568.863,73.754 566.427,78.764 565.623,83.85 563.267,88.615 557.785,89.434
		553.73,93.271 548.511,93.583 544.216,91.379 539.179,90.11 534.419,87.911 532.101,83.391 530.927,78.62 528.927,73.751
		531.613,69.677 535.349,66.961 538.324,63.712 541.083,60.459 545.554,59.688 548.525,57.03 552.58,58.116 556.722,59.534
		560.396,61.961 562.003,66.432 565.341,69.862 	"/>
	<polygon fill="#D59758" stroke="#000000" points="533.908,64.784 531.318,70.061 532.878,75.729 529.964,80.139 526.789,83.787
		523.126,87.959 517.628,89.454 515.089,93.514 510.439,93.918 507.625,97.675 503.708,97.237 500.654,95.678 495.724,94.674
		493.66,90.424 491.251,86.087 486.314,86.149 482.585,83.634 477.939,83.805 474.494,81.512 474.359,77.604 472.769,73.419
		471.72,69.204 473.978,64.899 475.093,59.555 476.058,54.126 475.681,48.815 479.908,45.776 484.951,43.414 488.597,39.057
		493.562,38.237 498.533,37.585 503.634,40.73 507.904,39.496 511.957,38.005 516.384,38.453 519.964,36.136 520.267,40.379
		524.064,43.521 523.388,48.292 524.453,52.667 527.097,57.008 531.863,59.991 	"/>
	<polygon fill="#5A3D1C" stroke="#000000" points="523.193,82.42 522.478,87.819 517.917,90.641 513.378,93.484 509.757,98.239
		506.697,103.634 501.23,104.081 497.673,107.151 494.169,109.486 489.382,109.47 484.195,109.244 479.292,109.161 475.32,105.593
		470.082,103.271 465.007,99.866 463.841,93.93 465.546,88.114 463.917,82.86 464.298,77.436 467.263,72.479 468.003,67.616
		470.347,62.625 476.001,61.28 480.435,58.624 484.472,55.085 489.503,53.78 494.548,51.998 498.451,55.608 502.882,58.207
		506.046,62.96 511.869,63.329 516.33,66.672 522.884,66.216 524.347,72.036 524.65,77.55 	"/>
	<polygon fill="#8B5C29" stroke="#000000" points="547.712,100.618 547.148,105.213 544.976,109.404 543.609,113.962
		538.757,115.881 534.685,119.006 530.714,123.159 526.431,120.64 521.968,120.738 518.068,118.832 514.609,116.655
		512.917,112.745 511.039,108.559 507.125,105.379 507.111,100.825 508.572,96.867 510.363,92.511 511.033,87.694 513.009,83.354
		517.408,82.868 521.808,83.284 526.072,81.59 530.519,83.134 535.107,82.692 539.726,82.578 544.349,82.562 549.812,81.548
		548.578,86.997 548.482,91.615 548.343,96.159 	"/>

	<polygon fill="#D59758" stroke="#000000" points="556.878,64.968 553.988,68.112 552.095,72.441 548.332,75.155 546.027,79.479
		542.039,81.899 538.269,85.526 534.453,81.624 530.738,78.622 526.798,76.414 523.625,72.915 519.919,69.51 518.228,65.037
		519.976,60.598 523.33,57.018 526.277,53.069 529.904,50.278 534.134,48.706 538.148,45.771 542.9,47.805 547.125,50.03
		551.722,51.514 553.451,56.173 555.738,60.499 	"/>
	<polygon fill="#3F3F3F" stroke="#000000" points="539.068,73.835 537.875,78.659 536.929,83.466 536.212,88.58 531.183,89.661
		526.111,89.251 521.492,90.659 516.548,90.812 511.728,89.815 507.312,88.021 505.632,83.546 504.015,78.798 502.486,73.874
		503.824,68.734 505.998,63.915 505.939,58.355 511.193,56.214 516.271,54.284 521.582,52.073 525.023,56.294 528.681,59.723
		533.826,61.67 535.816,65.737 537.755,69.557 	"/>
</g>
<polygon opacity="0.5" fill="#FFFFFF" enable-background="new    " points="253.999,108 235.999,162.001 253.999,180.001
	289.999,216.001 314.5,205.75 327.499,193.25 334.998,180.001 361.998,153.001 334.998,99 "/>
<polygon opacity="0.5" fill="#FFFFFF" enable-background="new    " points="614,36 596,90 614,108 650,144 675.25,133.25
	687.5,121.25 695,108 722,81 695,27 "/>
<g>
	<polygon fill="#666666" stroke="#000000" stroke-dasharray="2" points="835.25,55.647 833.289,58.995 831.054,62.533 828.867,66
		826.007,69.634 821.617,71.561 818.599,74.293 814.451,73.037 811.095,69.712 807.035,67.261 805.685,61.367 802.945,55.835
		804.005,50.93 804.062,46.126 804.24,41.331 808.958,40.123 813.931,41.191 818.63,39.783 822.943,41.09 827.218,42.613
		832.177,42.147 832.324,47.191 835.486,51.104 	"/>
	<polygon stroke="#000000" stroke-dasharray="2" points="831.031,91.604 829.357,95.578 832.218,100.068 831.74,104.025
		828.681,108.535 829.986,112.998 830.054,117.509 830.228,121.511 826.025,124.462 820.222,124.865 815.814,127.617
		810.617,128.656 806.074,124.906 800.638,125.734 794.947,125.07 790.013,127.559 785.218,128.703 782.992,124.365
		778.986,120.882 773.451,118.498 774.039,112.617 770.83,109.031 768.693,105.057 769.283,100.734 766.101,96.242 769.96,91.516
		767.941,86.812 766.482,82.115 764.138,77.089 769.312,73.046 771.671,68.341 771.839,62.913 776.982,61.801 780.472,56.938
		785.917,57.714 790.375,58.537 796.24,57.158 800.47,62.441 805.535,61.472 809.71,57.969 814.548,57.803 819.785,58.599
		823.587,62.898 829.22,63.102 829.39,68.886 831.173,73.65 834.738,77.504 833.013,82.007 833.941,87.322 	"/>
	<polygon fill="#E4BC96" stroke="#000000" stroke-dasharray="2" points="857,73.617 854.564,78.627 853.759,83.712 851.404,88.477
		845.921,89.296 841.867,93.134 836.648,93.445 832.353,91.242 827.316,89.973 822.556,87.773 820.238,83.254 819.064,78.482
		817.064,73.613 819.75,69.541 823.486,66.824 826.46,63.574 829.22,60.321 833.691,59.549 836.662,56.892 840.716,57.978
		844.859,59.396 848.533,61.824 850.14,66.295 853.478,69.725 	"/>
	<polygon fill="#D59758" stroke="#000000" stroke-dasharray="2" points="822.044,64.646 819.455,69.923 821.015,75.591
		818.101,80.002 814.925,83.648 811.263,87.82 805.765,89.316 803.226,93.377 798.576,93.779 795.761,97.539 791.845,97.1
		788.791,95.541 783.861,94.537 781.796,90.287 779.388,85.951 774.451,86.011 770.722,83.498 766.076,83.668 762.63,81.375
		762.496,77.466 760.906,73.281 759.857,69.066 762.115,64.761 763.23,59.418 764.195,53.988 763.818,48.676 768.044,45.637
		773.087,43.276 776.734,38.919 781.699,38.099 786.669,37.447 791.771,40.592 796.041,39.358 800.093,37.869 804.521,38.315
		808.101,36 808.404,40.242 812.201,43.383 811.525,48.154 812.589,52.529 815.234,56.872 820,59.853 	"/>
	<polygon fill="#5A3D1C" stroke="#000000" stroke-dasharray="2" points="811.33,82.283 810.615,87.682 806.054,90.504
		801.515,93.345 797.894,98.102 794.833,103.498 789.367,103.943 785.81,107.014 782.306,109.348 777.519,109.334 772.332,109.104
		767.429,109.023 763.457,105.457 758.218,103.134 753.144,99.729 751.978,93.793 753.683,87.977 752.054,82.723 752.435,77.298
		755.4,72.341 756.14,67.479 758.484,62.487 764.138,61.142 768.572,58.486 772.609,54.948 777.64,53.642 782.685,51.86
		786.587,55.469 791.019,58.069 794.183,62.823 800.005,63.191 804.466,66.535 811.021,66.08 812.484,71.898 812.787,77.414 	"/>

	<polygon fill="#8B5C29" stroke="#000000" stroke-dasharray="2" points="835.849,100.48 835.285,105.076 833.113,109.266
		831.746,113.826 826.894,115.744 822.822,118.869 818.851,123.021 814.568,120.502 810.105,120.6 806.205,118.693 802.746,116.518
		801.054,112.607 799.175,108.421 795.261,105.242 795.248,100.688 796.708,96.729 798.5,92.375 799.169,87.557 801.146,83.216
		805.544,82.73 809.945,83.146 814.208,81.453 818.656,82.998 823.244,82.555 827.863,82.438 832.486,82.423 837.949,81.412
		836.714,86.859 836.619,91.477 836.48,96.021 	"/>
	<polygon fill="#D59758" stroke="#000000" stroke-dasharray="2" points="845.015,64.832 842.125,67.975 840.232,72.302
		836.468,75.018 834.164,79.341 830.175,81.761 826.406,85.389 822.589,81.486 818.875,78.484 814.935,76.275 811.761,72.777
		808.056,69.373 806.365,64.898 808.113,60.46 811.466,56.879 814.414,52.931 818.041,50.14 822.271,48.568 826.285,45.633
		831.037,47.668 835.261,49.892 839.859,51.376 841.587,56.037 843.875,60.361 	"/>
	<polygon fill="#3F3F3F" stroke="#000000" stroke-dasharray="2" points="827.205,73.697 826.011,78.521 825.066,83.33
		824.349,88.441 819.32,89.523 814.248,89.113 809.628,90.521 804.685,90.675 799.865,89.677 795.449,87.882 793.769,83.41
		792.152,78.662 790.623,73.736 791.96,68.595 794.134,63.777 794.076,58.217 799.33,56.078 804.408,54.146 809.718,51.935
		813.16,56.157 816.818,59.585 821.962,61.533 823.953,65.6 825.892,69.42 	"/>
</g>
<polygon opacity="0.5" fill="#FFFFFF" enable-background="new    " points="758,36 740,90 758,108 794,144 818.75,133.5
	831.5,121.25 839,108 866,81 839,27 "/>
<path fill="none" stroke="#000000" d="M289.999,225.001"/>
<line fill="none" stroke="#000000" x1="9" y1="297" x2="873" y2="297"/>
<path fill="none" stroke="#000000" d="M873,369"/>
<line fill="none" stroke="#000000" x1="9" y1="369" x2="873" y2="369"/>
<line fill="none" stroke="#000000" x1="801" y1="297" x2="801" y2="369"/>
<line fill="none" stroke="#000000" x1="729" y1="297" x2="729" y2="369"/>
<line fill="none" stroke="#000000" x1="657" y1="297" x2="657" y2="369"/>
<line fill="none" stroke="#000000" x1="585" y1="297" x2="585" y2="369"/>
<line fill="none" stroke="#000000" x1="513" y1="297" x2="513" y2="369"/>

<line fill="none" stroke="#000000" x1="440.999" y1="297" x2="440.999" y2="369"/>
<line fill="none" stroke="#000000" x1="368.999" y1="297" x2="368.999" y2="369"/>
<line fill="none" stroke="#000000" x1="297" y1="297" x2="297" y2="369"/>
<line fill="none" stroke="#000000" x1="225" y1="297" x2="225" y2="369"/>
<line fill="none" stroke="#000000" x1="153" y1="297" x2="153" y2="369"/>
<line fill="none" stroke="#000000" x1="81" y1="297" x2="81" y2="369"/>
<text transform="matrix(1 0 0 1 26.999 350.999)" font-family="Liberation Serif" font-size="60">0</text>
<text transform="matrix(1 0 0 1 98.999 350.999)" font-family="Liberation Serif" font-size="60">0</text>
<text transform="matrix(1 0 0 1 170.999 350.999)" font-family="Liberation Serif" font-size="60">1</text>
<text transform="matrix(1 0 0 1 242.999 350.999)" font-family="Liberation Serif" font-size="60">1</text>
<text transform="matrix(1 0 0 1 314.999 350.999)" font-family="Liberation Serif" font-size="60">0</text>
<text transform="matrix(1 0 0 1 530.9995 350.999)" font-family="Liberation Serif" font-size="60">1</text>

<text transform="matrix(1 0 0 1 602.9995 350.999)" font-family="Liberation Serif" font-size="60">1</text>
<text transform="matrix(1 0 0 1 674.9995 350.999)" font-family="Liberation Serif" font-size="60">0</text>
<text transform="matrix(1 0 0 1 746.9995 350.999)" font-family="Liberation Serif" font-size="60">1</text>
<text transform="matrix(1 0 0 1 818.9995 350.999)" font-family="Liberation Serif" font-size="60">0</text>
<text transform="matrix(1 0 0 1 386.999 350.999)" font-family="Liberation Serif" font-size="60">0</text>
<text transform="matrix(1 0 0 1 458.9995 350.999)" font-family="Liberation Serif" font-size="60">0</text>
</svg>
