<svg xmlns="http://www.w3.org/2000/svg" width="576" height="576">
    <path d="M270 558h36M18 270v36m540-36v36M270 18h36m0 252l-36 36m0-36l36 36M126 126l36 36m-36 0l36-36m-144 0v36m108 108h36m108-144v36M126 18h36M54 90l36-36m-36 0l36 36m-72 0V54m72 72H54m72-72v36M54 18h36m0 108l36-36m-36 0l36 36M90 90h36v36H90zm0-36l36-36m-36 0l36 36M90 18h36v36H90zM18 126l36-36m-36 0l36 36M18 90h36v36H18zm0-36l36-36m-36 0l36 36M18 18h36v36H18zm36 216l36-36m-36 0l36 36m-72 0v-36m72 72H54m72-72v36m-72-72h36m0 108l36-36m-36 0l36 36m-36-36h36v36H90zm0-36l36-36m-36 0l36 36m-36-36h36v36H90zM18 270l36-36m-36 0l36 36m-36-36h36v36H18zm0-36l36-36m-36 0l36 36m-36-36h36v36H18zm180-72l36-36m-36 0l36 36m-72 0V54m72 72h-36m72-72v36m-72-72h36m0 108l36-36m-36 0l36 36m-36-36h36v36h-36zm0-36l36-36m-36 0l36 36m-36-36h36v36h-36zm-72 108l36-36m-36 0l36 36m-36-36h36v36h-36zm0-36l36-36m-36 0l36 36m-36-36h36v36h-36zm36 216l36-36m-36 0l36 36m-72 0v-36m72 72h-36m72-72v36m-72-72h36m0 108l36-36m-36 0l36 36m-36-36h36v36h-36zm0-36l36-36m-36 0l36 36m-36-36h36v36h-36zm-72 108l36-36m-36 0l36 36m-36-36h36v36h-36zm0-36l36-36m-36 0l36 36m-36-36h36v36h-36zm252-36l36 36m-36 0l36-36m-144 0v36m108 108h36m108-144v36M414 18h36M342 90l36-36m-36 0l36 36m-72 0V54m72 72h-36m72-72v36m-72-72h36m0 108l36-36m-36 0l36 36m-36-36h36v36h-36zm0-36l36-36m-36 0l36 36m-36-36h36v36h-36zm-72 108l36-36m-36 0l36 36m-36-36h36v36h-36zm0-36l36-36m-36 0l36 36m-36-36h36v36h-36zm36 216l36-36m-36 0l36 36m-72 0v-36m72 72h-36m72-72v36m-72-72h36m0 108l36-36m-36 0l36 36m-36-36h36v36h-36zm0-36l36-36m-36 0l36 36m-36-36h36v36h-36zm-72 108l36-36m-36 0l36 36m-36-36h36v36h-36zm0-36l36-36m-36 0l36 36m-36-36h36v36h-36zm180-72l36-36m-36 0l36 36m-72 0V54m72 72h-36m72-72v36m-72-72h36m0 108l36-36m-36 0l36 36m-36-36h36v36h-36zm0-36l36-36m-36 0l36 36m-36-36h36v36h-36zm-72 108l36-36m-36 0l36 36m-36-36h36v36h-36zm0-36l36-36m-36 0l36 36m-36-36h36v36h-36zm36 216l36-36m-36 0l36 36m-72 0v-36m72 72h-36m72-72v36m-72-72h36m0 108l36-36m-36 0l36 36m-36-36h36v36h-36zm0-36l36-36m-36 0l36 36m-36-36h36v36h-36zm-72 108l36-36m-36 0l36 36m-36-36h36v36h-36zm0-36l36-36m-36 0l36 36m-36-36h36v36h-36zM126 414l36 36m-36 0l36-36m-144 0v36m108 108h36m108-144v36M126 306h36M54 378l36-36m-36 0l36 36m-72 0v-36m72 72H54m72-72v36m-72-72h36m0 108l36-36m-36 0l36 36m-36-36h36v36H90zm0-36l36-36m-36 0l36 36m-36-36h36v36H90zM18 414l36-36m-36 0l36 36m-36-36h36v36H18zm0-36l36-36m-36 0l36 36m-36-36h36v36H18zm36 216l36-36m-36 0l36 36m-72 0v-36m72 72H54m72-72v36m-72-72h36m0 108l36-36m-36 0l36 36m-36-36h36v36H90zm0-36l36-36m-36 0l36 36m-36-36h36v36H90zM18 558l36-36m-36 0l36 36m-36-36h36v36H18zm0-36l36-36m-36 0l36 36m-36-36h36v36H18zm180-72l36-36m-36 0l36 36m-72 0v-36m72 72h-36m72-72v36m-72-72h36m0 108l36-36m-36 0l36 36m-36-36h36v36h-36zm0-36l36-36m-36 0l36 36m-36-36h36v36h-36zm-72 108l36-36m-36 0l36 36m-36-36h36v36h-36zm0-36l36-36m-36 0l36 36m-36-36h36v36h-36zm36 216l36-36m-36 0l36 36m-72 0v-36m72 72h-36m72-72v36m-72-72h36m0 108l36-36m-36 0l36 36m-36-36h36v36h-36zm0-36l36-36m-36 0l36 36m-36-36h36v36h-36zm-72 108l36-36m-36 0l36 36m-36-36h36v36h-36zm0-36l36-36m-36 0l36 36m-36-36h36v36h-36zm252-36l36 36m-36 0l36-36m-144 0v36m108 108h36m108-144v36M414 306h36m-108 72l36-36m-36 0l36 36m-72 0v-36m72 72h-36m72-72v36m-72-72h36m0 108l36-36m-36 0l36 36m-36-36h36v36h-36zm0-36l36-36m-36 0l36 36m-36-36h36v36h-36zm-72 108l36-36m-36 0l36 36m-36-36h36v36h-36zm0-36l36-36m-36 0l36 36m-36-36h36v36h-36zm36 216l36-36m-36 0l36 36m-72 0v-36m72 72h-36m72-72v36m-72-72h36m0 108l36-36m-36 0l36 36m-36-36h36v36h-36zm0-36l36-36m-36 0l36 36m-36-36h36v36h-36zm-72 108l36-36m-36 0l36 36m-36-36h36v36h-36zm0-36l36-36m-36 0l36 36m-36-36h36v36h-36zm180-72l36-36m-36 0l36 36m-72 0v-36m72 72h-36m72-72v36m-72-72h36m0 108l36-36m-36 0l36 36m-36-36h36v36h-36zm0-36l36-36m-36 0l36 36m-36-36h36v36h-36zm-72 108l36-36m-36 0l36 36m-36-36h36v36h-36zm0-36l36-36m-36 0l36 36m-36-36h36v36h-36zm36 216l36-36m-36 0l36 36m-72 0v-36m72 72h-36m72-72v36m-72-72h36m0 108l36-36m-36 0l36 36m-36-36h36v36h-36zm0-36l36-36m-36 0l36 36m-36-36h36v36h-36zm-72 108l36-36m-36 0l36 36m-36-36h36v36h-36zm0-36l36-36m-36 0l36 36m-36-36h36v36h-36z" fill="none" stroke="#000" stroke-width="2"/>
    <g fill="#FEC200" stroke="#000">
        <circle cx="90" cy="90" r="9"/>
        <circle cx="126" cy="90" r="9"/>
        <circle cx="126" cy="126" r="9"/>
        <circle cx="90" cy="126" r="9"/>
        <circle cx="90" cy="18" r="9"/>
        <circle cx="126" cy="18" r="9"/>
        <circle cx="126" cy="54" r="9"/>
        <circle cx="90" cy="54" r="9"/>
        <circle cx="18" cy="90" r="9"/>
        <circle cx="54" cy="90" r="9"/>
        <circle cx="54" cy="126" r="9"/>
        <circle cx="18" cy="126" r="9"/>
        <circle cx="18" cy="18" r="9"/>
        <circle cx="54" cy="18" r="9"/>
        <circle cx="54" cy="54" r="9"/>
        <circle cx="18" cy="54" r="9"/>
        <circle cx="90" cy="234" r="9"/>
        <circle cx="126" cy="234" r="9"/>
        <circle cx="126" cy="270" r="9"/>
        <circle cx="90" cy="270" r="9"/>
        <circle cx="90" cy="162" r="9"/>
        <circle cx="126" cy="162" r="9"/>
        <circle cx="126" cy="198" r="9"/>
        <circle cx="90" cy="198" r="9"/>
        <circle cx="18" cy="234" r="9"/>
        <circle cx="54" cy="234" r="9"/>
        <circle cx="54" cy="270" r="9"/>
        <circle cx="18" cy="270" r="9"/>
        <circle cx="18" cy="162" r="9"/>
        <circle cx="54" cy="162" r="9"/>
        <circle cx="54" cy="198" r="9"/>
        <circle cx="18" cy="198" r="9"/>
        <circle cx="234" cy="90" r="9"/>
        <circle cx="270" cy="90" r="9"/>
        <circle cx="270" cy="126" r="9"/>
        <circle cx="234" cy="126" r="9"/>
        <circle cx="234" cy="18" r="9"/>
        <circle cx="270" cy="18" r="9"/>
        <circle cx="270" cy="54" r="9"/>
        <circle cx="234" cy="54" r="9"/>
        <circle cx="162" cy="90" r="9"/>
        <circle cx="198" cy="90" r="9"/>
        <circle cx="198" cy="126" r="9"/>
        <circle cx="162" cy="126" r="9"/>
        <circle cx="162" cy="18" r="9"/>
        <circle cx="198" cy="18" r="9"/>
        <circle cx="198" cy="54" r="9"/>
        <circle cx="162" cy="54" r="9"/>
        <circle cx="234" cy="234" r="9"/>
        <circle cx="270" cy="234" r="9"/>
        <circle cx="270" cy="270" r="9"/>
        <circle cx="234" cy="270" r="9"/>
        <circle cx="234" cy="162" r="9"/>
        <circle cx="270" cy="162" r="9"/>
        <circle cx="270" cy="198" r="9"/>
        <circle cx="234" cy="198" r="9"/>
        <circle cx="162" cy="234" r="9"/>
        <circle cx="198" cy="234" r="9"/>
        <circle cx="198" cy="270" r="9"/>
        <circle cx="162" cy="270" r="9"/>
        <circle cx="162" cy="162" r="9"/>
        <circle cx="198" cy="162" r="9"/>
        <circle cx="198" cy="198" r="9"/>
        <circle cx="162" cy="198" r="9"/>
        <circle cx="378" cy="90" r="9"/>
        <circle cx="414" cy="90" r="9"/>
        <circle cx="414" cy="126" r="9"/>
        <circle cx="378" cy="126" r="9"/>
        <circle cx="378" cy="18" r="9"/>
        <circle cx="414" cy="18" r="9"/>
        <circle cx="414" cy="54" r="9"/>
        <circle cx="378" cy="54" r="9"/>
        <circle cx="306" cy="90" r="9"/>
        <circle cx="342" cy="90" r="9"/>
        <circle cx="342" cy="126" r="9"/>
        <circle cx="306" cy="126" r="9"/>
        <circle cx="306" cy="18" r="9"/>
        <circle cx="342" cy="18" r="9"/>
        <circle cx="342" cy="54" r="9"/>
        <circle cx="306" cy="54" r="9"/>
        <circle cx="378" cy="234" r="9"/>
        <circle cx="414" cy="234" r="9"/>
        <circle cx="414" cy="270" r="9"/>
        <circle cx="378" cy="270" r="9"/>
        <circle cx="378" cy="162" r="9"/>
        <circle cx="414" cy="162" r="9"/>
        <circle cx="414" cy="198" r="9"/>
        <circle cx="378" cy="198" r="9"/>
        <circle cx="306" cy="234" r="9"/>
        <circle cx="342" cy="234" r="9"/>
        <circle cx="342" cy="270" r="9"/>
        <circle cx="306" cy="270" r="9"/>
        <circle cx="306" cy="162" r="9"/>
        <circle cx="342" cy="162" r="9"/>
        <circle cx="342" cy="198" r="9"/>
        <circle cx="306" cy="198" r="9"/>
        <circle cx="522" cy="90" r="9"/>
        <circle cx="558" cy="90" r="9"/>
        <circle cx="558" cy="126" r="9"/>
        <circle cx="522" cy="126" r="9"/>
        <circle cx="522" cy="18" r="9"/>
        <circle cx="558" cy="18" r="9"/>
        <circle cx="558" cy="54" r="9"/>
        <circle cx="522" cy="54" r="9"/>
        <circle cx="450" cy="90" r="9"/>
        <circle cx="486" cy="90" r="9"/>
        <circle cx="486" cy="126" r="9"/>
        <circle cx="450" cy="126" r="9"/>
        <circle cx="450" cy="18" r="9"/>
        <circle cx="486" cy="18" r="9"/>
        <circle cx="486" cy="54" r="9"/>
        <circle cx="450" cy="54" r="9"/>
        <circle cx="522" cy="234" r="9"/>
        <circle cx="558" cy="234" r="9"/>
        <circle cx="558" cy="270" r="9"/>
        <circle cx="522" cy="270" r="9"/>
        <circle cx="522" cy="162" r="9"/>
        <circle cx="558" cy="162" r="9"/>
        <circle cx="558" cy="198" r="9"/>
        <circle cx="522" cy="198" r="9"/>
        <circle cx="450" cy="234" r="9"/>
        <circle cx="486" cy="234" r="9"/>
        <circle cx="486" cy="270" r="9"/>
        <circle cx="450" cy="270" r="9"/>
        <circle cx="450" cy="162" r="9"/>
        <circle cx="486" cy="162" r="9"/>
        <circle cx="486" cy="198" r="9"/>
        <circle cx="450" cy="198" r="9"/>
        <circle cx="90" cy="378" r="9"/>
        <circle cx="126" cy="378" r="9"/>
        <circle cx="126" cy="414" r="9"/>
        <circle cx="90" cy="414" r="9"/>
        <circle cx="90" cy="306" r="9"/>
        <circle cx="126" cy="306" r="9"/>
        <circle cx="126" cy="342" r="9"/>
        <circle cx="90" cy="342" r="9"/>
        <circle cx="18" cy="378" r="9"/>
        <circle cx="54" cy="378" r="9"/>
        <circle cx="54" cy="414" r="9"/>
        <circle cx="18" cy="414" r="9"/>
        <circle cx="18" cy="306" r="9"/>
        <circle cx="54" cy="306" r="9"/>
        <circle cx="54" cy="342" r="9"/>
        <circle cx="18" cy="342" r="9"/>
        <circle cx="90" cy="522" r="9"/>
        <circle cx="126" cy="522" r="9"/>
        <circle cx="126" cy="558" r="9"/>
        <circle cx="90" cy="558" r="9"/>
        <circle cx="90" cy="450" r="9"/>
        <circle cx="126" cy="450" r="9"/>
        <circle cx="126" cy="486" r="9"/>
        <circle cx="90" cy="486" r="9"/>
        <circle cx="18" cy="522" r="9"/>
        <circle cx="54" cy="522" r="9"/>
        <circle cx="54" cy="558" r="9"/>
        <circle cx="18" cy="558" r="9"/>
        <circle cx="18" cy="450" r="9"/>
        <circle cx="54" cy="450" r="9"/>
        <circle cx="54" cy="486" r="9"/>
        <circle cx="18" cy="486" r="9"/>
        <circle cx="234" cy="378" r="9"/>
        <circle cx="270" cy="378" r="9"/>
        <circle cx="270" cy="414" r="9"/>
        <circle cx="234" cy="414" r="9"/>
        <circle cx="234" cy="306" r="9"/>
        <circle cx="270" cy="306" r="9"/>
        <circle cx="270" cy="342" r="9"/>
        <circle cx="234" cy="342" r="9"/>
        <circle cx="162" cy="378" r="9"/>
        <circle cx="198" cy="378" r="9"/>
        <circle cx="198" cy="414" r="9"/>
        <circle cx="162" cy="414" r="9"/>
        <circle cx="162" cy="306" r="9"/>
        <circle cx="198" cy="306" r="9"/>
        <circle cx="198" cy="342" r="9"/>
        <circle cx="162" cy="342" r="9"/>
        <circle cx="234" cy="522" r="9"/>
        <circle cx="270" cy="522" r="9"/>
        <circle cx="270" cy="558" r="9"/>
        <circle cx="234" cy="558" r="9"/>
        <circle cx="234" cy="450" r="9"/>
        <circle cx="270" cy="450" r="9"/>
        <circle cx="270" cy="486" r="9"/>
        <circle cx="234" cy="486" r="9"/>
        <circle cx="162" cy="522" r="9"/>
        <circle cx="198" cy="522" r="9"/>
        <circle cx="198" cy="558" r="9"/>
        <circle cx="162" cy="558" r="9"/>
        <circle cx="162" cy="450" r="9"/>
        <circle cx="198" cy="450" r="9"/>
        <circle cx="198" cy="486" r="9"/>
        <circle cx="162" cy="486" r="9"/>
        <circle cx="378" cy="378" r="9"/>
        <circle cx="414" cy="378" r="9"/>
        <circle cx="414" cy="414" r="9"/>
        <circle cx="378" cy="414" r="9"/>
        <circle cx="378" cy="306" r="9"/>
        <circle cx="414" cy="306" r="9"/>
        <circle cx="414" cy="342" r="9"/>
        <circle cx="378" cy="342" r="9"/>
        <circle cx="306" cy="378" r="9"/>
        <circle cx="342" cy="378" r="9"/>
        <circle cx="342" cy="414" r="9"/>
        <circle cx="306" cy="414" r="9"/>
        <circle cx="306" cy="306" r="9"/>
        <circle cx="342" cy="306" r="9"/>
        <circle cx="342" cy="342" r="9"/>
        <circle cx="306" cy="342" r="9"/>
        <circle cx="378" cy="522" r="9"/>
        <circle cx="414" cy="522" r="9"/>
        <circle cx="414" cy="558" r="9"/>
        <circle cx="378" cy="558" r="9"/>
        <circle cx="378" cy="450" r="9"/>
        <circle cx="414" cy="450" r="9"/>
        <circle cx="414" cy="486" r="9"/>
        <circle cx="378" cy="486" r="9"/>
        <circle cx="306" cy="522" r="9"/>
        <circle cx="342" cy="522" r="9"/>
        <circle cx="342" cy="558" r="9"/>
        <circle cx="306" cy="558" r="9"/>
        <circle cx="306" cy="450" r="9"/>
        <circle cx="342" cy="450" r="9"/>
        <circle cx="342" cy="486" r="9"/>
        <circle cx="306" cy="486" r="9"/>
        <circle cx="522" cy="378" r="9"/>
        <circle cx="558" cy="378" r="9"/>
        <circle cx="558" cy="414" r="9"/>
        <circle cx="522" cy="414" r="9"/>
        <circle cx="522" cy="306" r="9"/>
        <circle cx="558" cy="306" r="9"/>
        <circle cx="558" cy="342" r="9"/>
        <circle cx="522" cy="342" r="9"/>
        <circle cx="450" cy="378" r="9"/>
        <circle cx="486" cy="378" r="9"/>
        <circle cx="486" cy="414" r="9"/>
        <circle cx="450" cy="414" r="9"/>
        <circle cx="450" cy="306" r="9"/>
        <circle cx="486" cy="306" r="9"/>
        <circle cx="486" cy="342" r="9"/>
        <circle cx="450" cy="342" r="9"/>
        <circle cx="522" cy="522" r="9"/>
        <circle cx="558" cy="522" r="9"/>
        <circle cx="558" cy="558" r="9"/>
        <circle cx="522" cy="558" r="9"/>
        <circle cx="522" cy="450" r="9"/>
        <circle cx="558" cy="450" r="9"/>
        <circle cx="558" cy="486" r="9"/>
        <circle cx="522" cy="486" r="9"/>
        <circle cx="450" cy="522" r="9"/>
        <circle cx="486" cy="522" r="9"/>
        <circle cx="486" cy="558" r="9"/>
        <circle cx="450" cy="558" r="9"/>
        <circle cx="450" cy="450" r="9"/>
        <circle cx="486" cy="450" r="9"/>
        <circle cx="486" cy="486" r="9"/>
        <circle cx="450" cy="486" r="9"/>
    </g>
</svg>
