<svg xmlns="http://www.w3.org/2000/svg" width="1141" height="1085.564" viewBox="-139 -115.846 1141 1085.564">
    <g fill="none" stroke="#000">
        <path d="M7.71 706.902C-129 799.154-200.331 429.767-44 191.656 140.817-89.846 432.5-105.846 432.5-105.846m0 0s291.682 16 476.5 297.502c156.33 238.111 85 607.498-51.711 515.246m-502.738 123.75l77.941 45.002 77.942-45 .002-90-77.942-45-77.943 44.998z"/>
        <path d="M370.139 821.652l62.354 36.002 62.354-36v-72l-62.353-36-62.354 35.998v72z"/>
        <path d="M385.727 812.654l46.766 27 46.766-27v-54l-46.765-27-46.766 26.998-.001 54.002z"/>
        <path d="M401.316 803.654l31.177 18 31.178-18v-36l-31.177-18-31.177 17.998-.001 36.002z"/>
        <path d="M432.493 803.654l15.588-9v-18l-13.588-9-17.588 8.998v18.002zm-.001 72l.007 81.998m-.006-99.998v-18m0-18v-18m.001-18v-18m0-18v-18m0-18v-18m77.942 45.002l15.588-9.002m-31.178 18l-15.588 9m-15.588 9l-15.587 9m-15.589 9l-15.588 9m-15.59 9l-15.588 9m-15.588 9l-15.589 9m.001-90.002l-15.589-9m31.177 18.002l15.588 8.998m15.589 9l15.589 9m15.588 9.002l15.587 9m15.589 9l15.588 9m15.588 9l15.588 9M167.496 182.65l77.94 45.002 77.943-45 .001-90-77.942-45-77.943 44.998z"/>
        <path d="M183.083 173.65l62.354 36.002 62.354-36 .001-72-62.353-36-62.355 35.998v72z"/>
        <path d="M198.671 164.652l46.766 27 46.766-27v-54l-46.764-27-46.766 26.998-.002 54.002z"/>
        <path d="M214.26 155.652l31.177 18 31.178-18v-36l-31.176-18-31.177 17.998-.002 36.002z"/>
        <path d="M245.437 155.652l15.589-9v-18l-13.588-9-17.589 8.998v18.002zm-.001 72l.001 18m0-36v-18m0-18v-18m.001-18v-18m0-18v-18m0-18v-18m77.943 45.002l15.588-9.002m-31.177 18l-15.588 9m-15.589 9l-15.588 9m-15.589 9l-15.589 9m-15.589 9l-15.588 9m-15.588 9l-15.589 9m.001-90.002l-15.589-9m31.177 18.002l15.588 8.998m15.589 9l15.589 9m15.588 9.002l15.588 9m15.59 9l15.588 9m15.588 9l15.587 9m31.178 0l77.941 45.002 77.942-45 .002-90-77.942-45-77.943 44.998z"/>
        <path d="M370.145 173.652l62.354 36.002 62.354-36v-72l-62.353-36-62.354 35.998v72z"/>
        <path d="M385.733 164.654l46.766 27 46.766-27v-54l-46.765-27-46.766 26.998-.001 54.002z"/>
        <path d="M401.322 155.654l31.177 18 31.178-18v-36l-31.177-18-31.178 17.998v36.002z"/>
        <path d="M432.499 155.654l15.587-9v-18l-13.587-9-17.588 8.998v18.002zm-.001 72l.001 18m0-36v-18m0-18v-18m.001-18v-18m0-18v-18m0-112.5v-77m0 171.5v-18m77.942 45.002l15.588-9.002m-31.178 18l-15.588 9m-15.588 9l-15.588 9m-15.588 9l-15.589 9m-15.589 9l-15.588 9m-15.588 9l-15.589 9m.001-90.002l-15.589-9c0-62.998 93.53-112.498 93.53-112.498m.001 0s93.53 49.5 93.53 112.498l-15.589 9m-140.295 9.002l15.588 8.998m15.589 9l15.589 9m15.588 9.002l15.586 9m15.59 9l15.588 9m15.588 9l15.588 9M167.489 830.65l77.941 45.002 77.944-45 .001-90-77.943-45-77.943 44.998z"/>
        <path d="M183.077 821.65l62.354 36.002 62.354-36 .001-72-62.354-36-62.355 35.998v72z"/>
        <path d="M198.666 812.652l46.766 27 46.766-27v-54l-46.765-27-46.766 26.998-.001 54.002z"/>
        <path d="M214.254 803.652l31.177 18 31.178-18v-36l-31.177-18-31.177 17.998-.001 36.002z"/>
        <path d="M245.431 803.652l15.589-9v-18l-13.588-9-17.589 8.998v18.002zm-.001 72l.001 18c0 70.667 187.067 64 187.067 64"/>
        <path d="M432.495 957.652s187.066 6.667 187.066-64l.002-18m-374.132-18v-18m0-18v-18m.001-18v-18m0-18v-18m0-18v-18m77.943 45.002l15.588-9.002m-31.177 18l-15.589 9m-15.587 9l-15.589 9m-15.589 9l-15.589 9m-15.589 9l-15.587 9m-15.589 9l-15.589 9m.001-90.002l-15.588-9m31.176 18.002l15.589 8.998m15.588 9l15.589 9m15.588 9.002l15.588 9m15.59 9l15.587 9m15.589 9l15.588 9m-62.353-162l77.941 45 77.944-45 .001-89.998-77.943-45.002-77.943 45z"/>
        <path d="M276.61 659.652l62.354 36 62.354-36 .001-72-62.354-36-62.354 36v72z"/>
        <path d="M292.199 650.652l46.765 27 46.766-27v-54l-46.765-27-46.766 27v54z"/>
        <path d="M307.787 641.652l31.177 18 31.178-18v-36l-31.177-18-31.177 18-.001 36z"/>
        <path d="M338.963 641.652l15.589-9v-18l-13.588-9-17.589 9v18zm-.001 72l.001 18m0-36v-18m0-18v-18m.001-18v-18m0-18v-18m0-18v-18m77.944 45.002l15.588-9m-31.178 18l-15.588 9m-15.588 9l-15.589 9m-15.589 8.998l-15.589 9m-15.588 9l-15.588 9m-15.588 9l-15.589 9m.001-90.002l-15.589-8.998m31.177 18l15.588 9m15.589 9l15.588 9m15.588 9l15.588 9m15.59 9.002l15.588 8.998m15.588 9l15.588 9m31.177.002l77.941 45 77.943-45v-89.998l-77.941-45.002-77.943 45z"/>
        <path d="M463.67 659.654l62.354 36 62.354-36 .002-72-62.354-36-62.354 36-.002 72z"/>
        <path d="M479.26 650.654l46.764 27 46.766-27v-54l-46.764-27-46.766 27v54z"/>
        <path d="M494.848 641.654l31.176 18 31.178-18v-36l-31.176-18-31.178 18v36z"/>
        <path d="M526.024 641.654l15.59-9v-18l-13.588-9-17.59 9v18zm0 72v18m0-36v-18m0-18v-18m.002-18v-18m0-18v-18m0-18v-18m77.943 45.002l15.588-9m-31.178 18l-15.587 9m-15.588 9l-15.59 9m-15.588 8.998l-15.59 9m-15.588 9l-15.588 9m-15.588 9l-15.589 9m.001-90.002l-15.588-8.998m31.176 18l15.588 9m15.588 9l15.59 9m15.588 9l15.588 9m15.59 9.002l15.588 8.998m15.587 9l15.588 9m-62.351-162l77.939 45.002 77.944-45 .001-90-77.943-45-77.943 44.998z"/>
        <path d="M557.204 497.654l62.354 36.002 62.354-36v-72l-62.354-36-62.354 35.998v72z"/>
        <path d="M572.792 488.656l46.766 27 46.764-27v-54l-46.764-27-46.766 26.998v54.002z"/>
        <path d="M588.379 479.656l31.178 18 31.178-18v-36l-31.178-18-31.176 17.998-.002 36.002z"/>
        <path d="M619.557 479.656l15.588-9v-18l-13.588-9-17.588 8.998v18.002zm-.002 72l.002 18m0-36v-18m0-18v-18m0-18v-18m0-18v-18m0-18v-18m77.943 45.002l15.588-9.002m-31.177 18l-15.588 9m-15.588 9l-15.588 9m-15.59 9l-15.588 9m-15.59 9l-15.587 9m-15.588 9l-15.588 9m0-90.002l-15.588-9m31.176 18.002l15.588 8.998m15.589 9l15.588 9m15.588 9.002l15.588 9m15.59 9l15.588 9m15.588 9l15.588 9M541.612 830.654l77.941 45.002 77.944-45v-90l-77.942-45-77.943 44.998z"/>
        <path d="M557.2 821.654l62.354 36.002 62.354-36 .002-72-62.354-36-62.356 35.998v72z"/>
        <path d="M572.788 812.656l46.766 27 46.766-27v-54l-46.764-27-46.766 26.998-.002 54.002z"/>
        <path d="M588.377 803.656l31.176 18 31.178-18v-36l-31.176-18-31.178 17.998v36.002z"/>
        <path d="M619.553 803.656l15.59-9v-18l-13.588-9-17.59 8.998v18.002zm0 72v18m0-36v-18m0-18v-18m.002-18v-18m0-18v-18m0-18v-18m77.944 45.002l15.587-9.002m-31.177 18l-15.588 9m-15.588 9l-15.59 9m-15.588 9l-15.59 9m-15.588 9l-15.587 9m-15.588 9l-15.59 9m.002-90.002l-15.59-9m31.178 18.002l15.588 8.998m15.587 9l15.59 9m15.588 9.002l15.588 9m15.59 9l15.588 9m15.588 9l15.588 9m-62.354-162l77.941 45 77.944-45 .002-89.998-77.944-45.002-77.943 45z"/>
        <path d="M650.733 659.656l62.354 36 62.354-36v-72l-62.354-36-62.354 36v72z"/>
        <path d="M666.321 650.656l46.766 27 46.766-27v-54l-46.766-27-46.766 27v54z"/>
        <path d="M681.909 641.656l31.178 18 31.178-18v-36l-31.178-18-31.178 18v36z"/>
        <path d="M713.086 641.656l15.588-9v-18l-13.588-9-17.587 9-.002 18zm-.002 72l.002 18m0-36v-18m0-18v-18m0-18v-18m0-18v-18m0-18v-18m77.944 45.002l15.588-9m-31.178 18l-15.588 9m-15.588 9l-15.588 9m-15.59 8.998l-15.587 9m-15.59 9l-15.588 9m-15.588 9l-15.588 9m0-90.002l-15.588-8.998m31.176 18l15.588 9m15.59 9l15.588 9m15.587 9l15.588 9m15.59 9.002l15.588 8.998m15.588 9l15.59 9m-62.354-162l77.942 45.002 77.943-45v-90l-77.941-45-77.944 44.998z"/>
        <path d="M744.264 497.656l62.354 36.002 62.354-36 .002-72-62.354-36-62.355 35.998v72z"/>
        <path d="M759.852 488.658l46.766 27 46.766-27v-54l-46.764-27-46.766 26.998-.002 54.002z"/>
        <path d="M775.442 479.658l31.176 18 31.178-18v-36l-31.176-18-31.178 17.998v36.002z"/>
        <path d="M806.618 479.658l15.59-9v-18l-13.588-9-17.59 8.998v18.002zm0 72v18m0-36v-18m0-18v-18m.002-18v-18m0-18v-18m0-18v-18m77.943 45.002l15.588-9.002m-31.178 18l-15.588 9m-15.588 9l-15.589 9m-15.588 9l-15.59 9m-15.588 9l-15.588 9m-15.588 9l-15.59 9m.002-90.002l-15.59-9m31.178 18.002l15.588 8.998m15.588 9l15.588 9m15.59 9.002l15.588 9m15.589 9l15.588 9m15.588 9l15.588 9m-530.007-.006l77.941 45.002 77.943-45v-90l-77.941-45-77.943 44.998z"/>
        <path d="M370.142 497.652l62.354 36.002 62.353-36 .002-72-62.354-36-62.354 35.998v72z"/>
        <path d="M385.73 488.654l46.766 27 46.765-27v-54l-46.764-27-46.766 26.998-.001 54.002z"/>
        <path d="M401.319 479.654l31.177 18 31.177-18v-36l-31.176-18-31.177 17.998-.001 36.002z"/>
        <path d="M432.496 479.654l15.588-9v-18l-13.587-9-17.589 8.998v18.002zm-.001 72l.001 18m0-36v-18m0-18v-18m.001-18v-18m0-18v-18m0-18v-18m77.943 45.002l15.588-9.002m-31.178 18l-15.588 9m-15.588 9l-15.59 9m-15.587 9l-15.589 9m-15.588 9l-15.589 9m-15.588 9l-15.589 9m.001-90.002l-15.589-9m31.177 18.002l15.588 8.998m15.589 9l15.589 9m15.588 9.002l15.587 9m15.59 9l15.588 9m15.588 9l15.588 9M73.959 668.65l77.942 45 77.943-45 .001-89.998-77.942-45.002-77.944 45z"/>
        <path d="M89.548 659.65l62.354 36 62.353-36 .001-72-62.353-36-62.354 36-.001 72z"/>
        <path d="M105.137 650.65l46.765 27 46.765-27v-54l-46.764-27-46.766 27v54z"/>
        <path d="M120.725 641.65l31.177 18 31.177-18v-36l-31.176-18-31.178 18v36z"/>
        <path d="M151.902 641.65l15.588-9v-18l-13.587-9-17.589 9-.001 18zm-.001 72l.001 18m0-36v-18m0-18v-18m.001-18v-18m0-18v-18m0-18v-18m77.943 45.002l15.588-9m-31.178 18l-15.588 9m-15.588 9l-15.589 9m-15.588 8.998l-15.589 9m-15.589 9l-15.588 9m-15.588 9l-15.589 9m.001-90.002l-15.589-8.998m31.177 18l15.588 9m15.589 9l15.589 9m15.588 9l15.587 9m15.59 9.002l15.588 8.998m15.588 9l15.588 9m-62.352-162l77.941 45.002 77.943-45 .001-90-77.942-45-77.943 44.998z"/>
        <path d="M183.08 497.65l62.354 36.002 62.354-36 .001-72-62.354-36-62.355 35.998v72z"/>
        <path d="M198.668 488.652l46.766 27 46.766-27v-54l-46.765-27-46.766 26.998-.001 54.002z"/>
        <path d="M214.257 479.652l31.177 18 31.178-18v-36l-31.177-18-31.177 17.998-.001 36.002z"/>
        <path d="M245.434 479.652l15.589-9v-18l-13.588-9-17.589 8.998v18.002zm-.001 72l.001 18m0-36v-18m0-18v-18m.001-18v-18m0-18v-18m0-18v-18m77.943 45.002l15.588-9.002m-31.177 18l-15.588 9m-15.588 9l-15.589 9m-15.589 9l-15.589 9m-15.589 9l-15.588 9m-15.587 9l-15.59 9m.001-90.002l-15.588-9m31.176 18.002l15.588 8.998m15.589 9l15.589 9m15.588 9.002l15.588 9m15.59 9l15.588 9m15.588 9l15.587 9m-342.945-.004l77.94 45.002 77.944-45 .001-90-77.942-45-77.943 44.998z"/>
        <path d="M-3.981 497.648l62.353 36.002 62.354-36 .001-72-62.354-36-62.354 35.998v72z"/>
        <path d="M11.607 488.65l46.765 27 46.766-27v-54l-46.765-27-46.765 26.998-.001 54.002z"/>
        <path d="M27.196 479.65l31.176 18 31.178-18v-36l-31.177-18-31.176 17.998-.001 36.002z"/>
        <path d="M58.372 479.65l15.589-9v-18l-13.588-9-17.589 8.998v18.002zm-.001 72l.001 18m0-36v-18m0-18v-18m.002-18v-18m0-18v-18m0-18v-18m77.943 45.002l15.588-9.002m-31.178 18l-15.588 9m-15.588 9l-15.589 9m-15.588 9l-15.59 9m-15.588 9l-15.588 9m-15.588 9l-15.589 9m.001-90.002l-15.589-9M-3.98 425.65l15.588 8.998m15.589 9l15.588 9m15.589 9.002l15.587 9m15.59 9l15.588 9m15.588 9l15.588 9m-62.352-162l77.941 45 77.943-45 .001-89.998-77.943-45.002-77.942 45z"/>
        <path d="M89.551 335.65l62.354 36 62.353-36 .001-72-62.354-36-62.354 36v72z"/>
        <path d="M105.139 326.65l46.766 27 46.765-27v-54l-46.765-27-46.765 27-.001 54z"/>
        <path d="M120.728 317.65l31.177 18 31.177-18v-36l-31.177-18-31.177 18v36z"/>
        <path d="M151.905 317.65l15.588-9v-18l-13.588-9-17.588 9-.001 18zm-.001 72l.001 18m0-36v-18m0-18v-18m0-18v-18m0-18v-18m0-18v-18m77.944 45.002l15.588-9m-31.178 18l-15.588 9m-15.588 9l-15.589 9m-15.589 8.998l-15.588 9m-15.589 9l-15.588 9m-15.588 9l-15.589 9m.001-90.002l-15.589-8.998m31.177 18l15.588 9m15.589 9l15.589 9m15.587 9l15.588 9m15.59 9.002l15.588 8.998m15.588 9l15.588 9m31.177.002l77.941 45 77.944-45 .001-89.998-77.943-45.002-77.943 45z"/>
        <path d="M276.613 335.652l62.354 36 62.354-36 .001-72-62.354-36-62.354 36v72z"/>
        <path d="M292.202 326.652l46.765 27 46.766-27v-54l-46.765-27-46.766 27v54z"/>
        <path d="M307.79 317.652l31.177 18 31.178-18v-36l-31.177-18-31.177 18-.001 36z"/>
        <path d="M338.966 317.652l15.589-9v-18l-13.588-9-17.589 9v18zm-.001 72l.001 18m0-36v-18m0-18v-18m.001-18v-18m0-18v-18m0-18v-18m77.944 45.002l15.588-9m-31.178 18l-15.588 9m-15.588 9l-15.589 9m-15.589 8.998l-15.589 9m-15.588 9l-15.588 9m-15.587 9l-15.59 9m.001-90.002l-15.589-8.998m31.178 18l15.587 9m15.589 9l15.588 9m15.588 9l15.588 9m15.59 9.002l15.588 8.998m15.589 9l15.587 9m31.177.002l77.94 45 77.943-45 .002-89.998-77.943-45.002-77.942 45z"/>
        <path d="M463.674 335.654l62.354 36 62.354-36v-72l-62.354-36-62.354 36v72z"/>
        <path d="M479.262 326.654l46.766 27 46.766-27v-54l-46.766-27-46.766 27v54z"/>
        <path d="M494.85 317.654l31.178 18 31.178-18v-36l-31.178-18-31.176 18-.002 36z"/>
        <path d="M526.028 317.654l15.588-9v-18l-13.588-9-17.588 9v18zm-.002 72l.002 18m0-36v-18m0-18v-18m0-18v-18m0-18v-18m0-18v-18m77.943 45.002l15.588-9m-31.178 18l-15.588 9m-15.587 9l-15.588 9m-15.59 8.998l-15.588 9m-15.59 9l-15.588 9m-15.588 9l-15.588 9m0-90.002l-15.587-8.998m31.175 18l15.588 9m15.59 9l15.588 9m15.588 9l15.588 9m15.59 9.002l15.587 8.998m15.588 9l15.588 9m-62.351-162l77.941 45.002 77.943-45v-90l-77.941-45-77.943 44.998z"/>
        <path d="M557.206 173.654l62.354 36.002 62.354-36 .002-72-62.354-36-62.355 35.998v72z"/>
        <path d="M572.793 164.656l46.766 27 46.766-27v-54l-46.764-27-46.766 26.998-.002 54.002z"/>
        <path d="M588.383 155.656l31.176 18 31.178-18v-36l-31.176-18-31.178 17.998v36.002z"/>
        <path d="M619.559 155.656l15.59-9v-18l-13.588-9-17.59 8.998v18.002zm0 72v18m0-36v-18m0-18v-18m.002-18v-18m0-18v-18m0-18v-18m77.943 45.002l15.588-9.002m-31.177 18l-15.588 9m-15.588 9l-15.59 9m-15.588 9l-15.59 9m-15.588 9l-15.588 9m-15.587 9l-15.59 9m.002-90.002l-15.59-9m31.178 18.002l15.587 8.998m15.588 9l15.59 9m15.588 9.002l15.588 9m15.59 9l15.588 9m15.588 9l15.587 9m31.174 324l77.942 45.002 77.943-45v-90l-77.941-45-77.944 44.998z"/>
        <path d="M744.264 497.656l62.354 36.002 62.354-36 .002-72-62.354-36-62.355 35.998v72z"/>
        <path d="M759.852 488.658l46.766 27 46.766-27v-54l-46.764-27-46.766 26.998-.002 54.002z"/>
        <path d="M775.442 479.658l31.176 18 31.178-18v-36l-31.176-18-31.178 17.998v36.002z"/>
        <path d="M806.618 479.658l15.59-9v-18l-13.588-9-17.59 8.998v18.002zm0 72v18m0-36v-18m0-18v-18m.002-18v-18m0-18v-18m0-18v-18m77.943 45.002l15.588-9.002m-31.178 18l-15.588 9m-15.588 9l-15.589 9m-15.588 9l-15.59 9m-15.588 9l-15.588 9m-15.588 9l-15.59 9m.002-90.002l-15.59-9m31.178 18.002l15.588 8.998m15.588 9l15.588 9m15.59 9.002l15.588 9m15.589 9l15.588 9m15.588 9l15.588 9M635.147 344.656l77.941 45 77.944-45v-89.998l-77.942-45.002-77.943 45z"/>
        <path d="M650.735 335.656l62.354 36 62.354-36 .002-72-62.354-36-62.355 36v72z"/>
        <path d="M666.323 326.656l46.766 27 46.766-27v-54l-46.764-27-46.768 27v54z"/>
        <path d="M681.913 317.656l31.176 18 31.178-18v-36l-31.176-18-31.178 18v36z"/>
        <path d="M713.088 317.656l15.59-9v-18l-13.588-9-17.59 9v18zm0 72v18m0-36v-18m0-18v-18m.002-18v-18m0-18v-18m0-18v-18m77.942 45.002l15.59-9m-31.178 18l-15.588 9m-15.588 9l-15.59 9m-15.588 8.998l-15.59 9m-15.587 9l-15.59 9m-15.586 9l-15.59 9m.002-90.002l-15.59-8.998m31.178 18l15.586 9m15.59 9l15.589 9m15.588 9l15.588 9m15.59 9.002l15.588 8.998m15.588 9l15.586 9m.004-89.998l71.008-41.006m22.519 203.007l15.588-9c61.201-35.334-38.107-194.007-38.107-194.007"/>
        <path d="M862.045 213.657S774.283 48.318 713.084 83.652l-15.59 8.998m-623.53 162L2.948 213.658M167.497 92.652l-15.588-9C90.708 48.318 2.948 213.658 2.948 213.658"/>
        <path d="M2.95 213.652s-99.307 158.673-38.107 194.006l15.588 9.002M89.549 659.652l-15.588 9m77.94 45v18c-54.558 31.5-144.191-24.75-144.191-24.75m0 0s-3.897-105.75 50.661-137.248l15.588 9m701.483 81.002l15.588 9m.001-89.998l15.589-9c54.559 31.499 50.661 137.248 50.661 137.248m0 0s-89.633 56.25-144.19 24.75v-18"/>
    </g>
    <g fill="#FEC200" stroke="#000">
        <circle cx="432.493" cy="785.654" r="4.5"/>
        <circle cx="432.493" cy="767.654" r="4.5"/>
        <circle cx="432.493" cy="749.654" r="4.5"/>
        <circle cx="432.493" cy="731.654" r="4.5"/>
        <circle cx="432.493" cy="713.654" r="4.5"/>
        <circle cx="432.493" cy="695.654" r="4.5"/>
        <circle cx="416.906" cy="776.654" r="4.5"/>
        <circle cx="401.316" cy="767.654" r="4.5"/>
        <circle cx="385.728" cy="758.654" r="4.5"/>
        <circle cx="370.139" cy="749.654" r="4.5"/>
        <circle cx="354.551" cy="740.654" r="4.5"/>
        <circle cx="416.904" cy="794.654" r="4.5"/>
        <circle cx="401.316" cy="803.654" r="4.5"/>
        <circle cx="385.727" cy="812.654" r="4.5"/>
        <circle cx="370.139" cy="821.654" r="4.5"/>
        <circle cx="354.551" cy="830.654" r="4.5"/>
        <circle cx="432.493" cy="803.654" r="4.5"/>
        <circle cx="432.493" cy="821.654" r="4.5"/>
        <circle cx="432.493" cy="839.654" r="4.5"/>
        <circle cx="432.493" cy="857.654" r="4.5"/>
        <circle cx="432.493" cy="875.654" r="4.5"/>
        <circle cx="432.493" cy="957.652" r="4.5"/>
        <circle cx="862.045" cy="213.657" r="4.5"/>
        <circle cx="2.95" cy="213.652" r="4.499"/>
        <circle cx="448.081" cy="794.654" r="4.5"/>
        <circle cx="463.67" cy="803.654" r="4.5"/>
        <circle cx="479.258" cy="812.654" r="4.5"/>
        <circle cx="494.846" cy="821.654" r="4.5"/>
        <circle cx="510.436" cy="830.654" r="4.5"/>
        <circle cx="448.081" cy="776.654" r="4.5"/>
        <circle cx="463.67" cy="767.654" r="4.5"/>
        <circle cx="479.258" cy="758.654" r="4.5"/>
        <circle cx="494.846" cy="749.654" r="4.5"/>
        <circle cx="510.436" cy="740.652" r="4.5"/>
        <circle cx="245.438" cy="137.652" r="4.5"/>
        <circle cx="245.438" cy="119.652" r="4.5"/>
        <circle cx="245.438" cy="101.652" r="4.5"/>
        <circle cx="245.438" cy="83.652" r="4.5"/>
        <circle cx="245.438" cy="65.652" r="4.5"/>
        <circle cx="245.438" cy="47.652" r="4.5"/>
        <circle cx="229.849" cy="128.652" r="4.5"/>
        <circle cx="214.26" cy="119.652" r="4.5"/>
        <circle cx="198.672" cy="110.652" r="4.5"/>
        <circle cx="183.084" cy="101.652" r="4.5"/>
        <circle cx="167.495" cy="92.652" r="4.5"/>
        <circle cx="229.848" cy="146.652" r="4.5"/>
        <circle cx="214.26" cy="155.652" r="4.5"/>
        <circle cx="198.672" cy="164.652" r="4.5"/>
        <circle cx="183.083" cy="173.652" r="4.5"/>
        <circle cx="167.495" cy="182.652" r="4.5"/>
        <circle cx="245.437" cy="155.652" r="4.5"/>
        <circle cx="245.438" cy="173.652" r="4.5"/>
        <circle cx="245.438" cy="191.652" r="4.5"/>
        <circle cx="245.437" cy="209.652" r="4.5"/>
        <circle cx="245.438" cy="227.652" r="4.5"/>
        <circle cx="245.438" cy="245.652" r="4.5"/>
        <circle cx="261.026" cy="146.652" r="4.5"/>
        <circle cx="276.615" cy="155.652" r="4.5"/>
        <circle cx="292.204" cy="164.652" r="4.5"/>
        <circle cx="307.792" cy="173.652" r="4.5"/>
        <circle cx="323.38" cy="182.652" r="4.5"/>
        <circle cx="261.026" cy="128.652" r="4.5"/>
        <circle cx="276.615" cy="119.652" r="4.5"/>
        <circle cx="292.204" cy="110.652" r="4.5"/>
        <circle cx="307.792" cy="101.652" r="4.5"/>
        <circle cx="323.38" cy="92.652" r="4.5"/>
        <circle cx="432.499" cy="137.654" r="4.5"/>
        <circle cx="432.499" cy="119.654" r="4.5"/>
        <circle cx="432.499" cy="101.654" r="4.5"/>
        <circle cx="432.499" cy="83.654" r="4.5"/>
        <circle cx="432.499" cy="65.654" r="4.5"/>
        <circle cx="432.499" cy="47.654" r="4.5"/>
        <circle cx="432.499" cy="-28.846" r="4.5"/>
        <circle cx="432.499" cy="-105.846" r="4.5"/>
        <circle cx="7.71" cy="706.902" r="4.499"/>
        <circle cx="857.281" cy="706.906" r="4.499"/>
        <circle cx="416.912" cy="128.654" r="4.5"/>
        <circle cx="401.322" cy="119.654" r="4.5"/>
        <circle cx="385.734" cy="110.654" r="4.5"/>
        <circle cx="370.145" cy="101.654" r="4.5"/>
        <circle cx="354.556" cy="92.654" r="4.5"/>
        <circle cx="338.968" cy="83.654" r="4.5"/>
        <circle cx="526.03" cy="83.656" r="4.5"/>
        <circle cx="416.911" cy="146.654" r="4.5"/>
        <circle cx="401.322" cy="155.654" r="4.5"/>
        <circle cx="385.733" cy="164.654" r="4.5"/>
        <circle cx="370.145" cy="173.654" r="4.5"/>
        <circle cx="354.556" cy="182.654" r="4.5"/>
        <circle cx="432.499" cy="155.654" r="4.5"/>
        <circle cx="432.499" cy="173.654" r="4.5"/>
        <circle cx="432.499" cy="191.654" r="4.5"/>
        <circle cx="432.499" cy="209.654" r="4.5"/>
        <circle cx="432.499" cy="227.654" r="4.5"/>
        <circle cx="432.499" cy="245.654" r="4.5"/>
        <circle cx="448.086" cy="146.654" r="4.5"/>
        <circle cx="463.676" cy="155.654" r="4.5"/>
        <circle cx="479.264" cy="164.654" r="4.5"/>
        <circle cx="494.852" cy="173.654" r="4.5"/>
        <circle cx="510.442" cy="182.654" r="4.5"/>
        <circle cx="448.086" cy="128.654" r="4.5"/>
        <circle cx="463.676" cy="119.654" r="4.5"/>
        <circle cx="479.264" cy="110.654" r="4.5"/>
        <circle cx="494.852" cy="101.654" r="4.5"/>
        <circle cx="510.442" cy="92.652" r="4.5"/>
        <circle cx="245.432" cy="785.652" r="4.5"/>
        <circle cx="245.432" cy="767.652" r="4.5"/>
        <circle cx="245.432" cy="749.652" r="4.5"/>
        <circle cx="245.432" cy="731.652" r="4.5"/>
        <circle cx="245.432" cy="713.652" r="4.5"/>
        <circle cx="245.432" cy="695.652" r="4.5"/>
        <circle cx="229.843" cy="776.652" r="4.5"/>
        <circle cx="214.255" cy="767.652" r="4.5"/>
        <circle cx="198.667" cy="758.652" r="4.5"/>
        <circle cx="183.078" cy="749.652" r="4.5"/>
        <circle cx="167.489" cy="740.652" r="4.5"/>
        <circle cx="229.843" cy="794.652" r="4.5"/>
        <circle cx="214.255" cy="803.652" r="4.5"/>
        <circle cx="198.667" cy="812.652" r="4.5"/>
        <circle cx="183.077" cy="821.652" r="4.5"/>
        <circle cx="167.489" cy="830.652" r="4.5"/>
        <circle cx="245.431" cy="803.652" r="4.5"/>
        <circle cx="245.432" cy="821.652" r="4.5"/>
        <circle cx="245.432" cy="839.652" r="4.5"/>
        <circle cx="245.431" cy="857.652" r="4.5"/>
        <circle cx="245.432" cy="875.652" r="4.5"/>
        <circle cx="261.02" cy="794.652" r="4.5"/>
        <circle cx="276.609" cy="803.652" r="4.5"/>
        <circle cx="292.197" cy="812.652" r="4.5"/>
        <circle cx="307.786" cy="821.652" r="4.5"/>
        <circle cx="323.375" cy="830.652" r="4.5"/>
        <circle cx="261.02" cy="776.652" r="4.5"/>
        <circle cx="276.609" cy="767.652" r="4.5"/>
        <circle cx="292.197" cy="758.652" r="4.5"/>
        <circle cx="307.786" cy="749.652" r="4.5"/>
        <circle cx="323.375" cy="740.652" r="4.5"/>
        <circle cx="338.964" cy="623.652" r="4.5"/>
        <circle cx="338.964" cy="605.652" r="4.5"/>
        <circle cx="338.964" cy="587.652" r="4.5"/>
        <circle cx="338.964" cy="569.652" r="4.5"/>
        <circle cx="338.964" cy="551.652" r="4.5"/>
        <circle cx="338.964" cy="533.652" r="4.5"/>
        <circle cx="323.375" cy="614.652" r="4.5"/>
        <circle cx="307.788" cy="605.652" r="4.5"/>
        <circle cx="292.199" cy="596.652" r="4.5"/>
        <circle cx="276.61" cy="587.652" r="4.5"/>
        <circle cx="261.021" cy="578.652" r="4.5"/>
        <circle cx="323.375" cy="632.652" r="4.5"/>
        <circle cx="307.788" cy="641.652" r="4.5"/>
        <circle cx="292.199" cy="650.652" r="4.5"/>
        <circle cx="276.61" cy="659.652" r="4.5"/>
        <circle cx="261.021" cy="668.652" r="4.5"/>
        <circle cx="338.964" cy="641.652" r="4.5"/>
        <circle cx="338.964" cy="659.652" r="4.5"/>
        <circle cx="338.964" cy="677.652" r="4.5"/>
        <circle cx="338.964" cy="695.652" r="4.5"/>
        <circle cx="338.964" cy="713.652" r="4.5"/>
        <circle cx="338.964" cy="731.652" r="4.5"/>
        <circle cx="354.552" cy="632.652" r="4.5"/>
        <circle cx="370.141" cy="641.652" r="4.5"/>
        <circle cx="385.729" cy="650.652" r="4.5"/>
        <circle cx="401.318" cy="659.652" r="4.5"/>
        <circle cx="416.906" cy="668.652" r="4.5"/>
        <circle cx="354.552" cy="614.652" r="4.5"/>
        <circle cx="370.141" cy="605.652" r="4.5"/>
        <circle cx="385.729" cy="596.652" r="4.5"/>
        <circle cx="401.318" cy="587.652" r="4.5"/>
        <circle cx="416.906" cy="578.652" r="4.5"/>
        <circle cx="526.026" cy="623.654" r="4.5"/>
        <circle cx="526.026" cy="605.654" r="4.5"/>
        <circle cx="526.026" cy="587.654" r="4.5"/>
        <circle cx="526.026" cy="569.654" r="4.5"/>
        <circle cx="526.026" cy="551.654" r="4.5"/>
        <circle cx="526.026" cy="533.654" r="4.5"/>
        <circle cx="510.436" cy="614.654" r="4.5"/>
        <circle cx="494.848" cy="605.654" r="4.5"/>
        <circle cx="479.26" cy="596.654" r="4.5"/>
        <circle cx="463.67" cy="587.654" r="4.5"/>
        <circle cx="448.083" cy="578.654" r="4.5"/>
        <circle cx="510.436" cy="632.654" r="4.5"/>
        <circle cx="494.848" cy="641.654" r="4.5"/>
        <circle cx="479.26" cy="650.654" r="4.5"/>
        <circle cx="463.67" cy="659.654" r="4.5"/>
        <circle cx="448.083" cy="668.654" r="4.5"/>
        <circle cx="526.024" cy="641.654" r="4.5"/>
        <circle cx="526.026" cy="659.654" r="4.5"/>
        <circle cx="526.026" cy="677.654" r="4.5"/>
        <circle cx="526.024" cy="695.654" r="4.5"/>
        <circle cx="526.026" cy="713.654" r="4.5"/>
        <circle cx="526.026" cy="731.654" r="4.5"/>
        <circle cx="541.614" cy="632.654" r="4.5"/>
        <circle cx="557.202" cy="641.654" r="4.5"/>
        <circle cx="572.792" cy="650.654" r="4.5"/>
        <circle cx="588.379" cy="659.654" r="4.5"/>
        <circle cx="603.967" cy="668.654" r="4.5"/>
        <circle cx="541.614" cy="614.654" r="4.5"/>
        <circle cx="557.202" cy="605.654" r="4.5"/>
        <circle cx="572.792" cy="596.654" r="4.5"/>
        <circle cx="588.379" cy="587.654" r="4.5"/>
        <circle cx="603.967" cy="578.654" r="4.5"/>
        <circle cx="619.557" cy="461.656" r="4.5"/>
        <circle cx="619.557" cy="443.656" r="4.5"/>
        <circle cx="619.557" cy="425.656" r="4.5"/>
        <circle cx="619.557" cy="407.656" r="4.5"/>
        <circle cx="619.557" cy="389.656" r="4.5"/>
        <circle cx="619.557" cy="371.656" r="4.5"/>
        <circle cx="603.969" cy="452.656" r="4.5"/>
        <circle cx="588.381" cy="443.656" r="4.5"/>
        <circle cx="572.792" cy="434.656" r="4.5"/>
        <circle cx="557.204" cy="425.656" r="4.5"/>
        <circle cx="541.614" cy="416.656" r="4.5"/>
        <circle cx="603.967" cy="470.656" r="4.5"/>
        <circle cx="588.381" cy="479.656" r="4.5"/>
        <circle cx="572.792" cy="488.656" r="4.5"/>
        <circle cx="557.204" cy="497.656" r="4.5"/>
        <circle cx="541.614" cy="506.656" r="4.5"/>
        <circle cx="619.557" cy="479.656" r="4.5"/>
        <circle cx="619.557" cy="497.656" r="4.5"/>
        <circle cx="619.557" cy="515.656" r="4.5"/>
        <circle cx="619.557" cy="533.656" r="4.5"/>
        <circle cx="619.557" cy="551.656" r="4.5"/>
        <circle cx="619.557" cy="569.656" r="4.5"/>
        <circle cx="635.145" cy="470.656" r="4.5"/>
        <circle cx="650.735" cy="479.656" r="4.5"/>
        <circle cx="666.323" cy="488.656" r="4.5"/>
        <circle cx="681.911" cy="497.656" r="4.5"/>
        <circle cx="697.5" cy="506.656" r="4.5"/>
        <circle cx="635.145" cy="452.656" r="4.5"/>
        <circle cx="650.735" cy="443.656" r="4.5"/>
        <circle cx="666.323" cy="434.656" r="4.5"/>
        <circle cx="681.911" cy="425.656" r="4.5"/>
        <circle cx="697.5" cy="416.654" r="4.5"/>
        <circle cx="619.555" cy="785.656" r="4.5"/>
        <circle cx="619.555" cy="767.656" r="4.5"/>
        <circle cx="619.555" cy="749.656" r="4.5"/>
        <circle cx="619.555" cy="731.656" r="4.5"/>
        <circle cx="619.555" cy="713.656" r="4.5"/>
        <circle cx="619.555" cy="695.656" r="4.5"/>
        <circle cx="603.967" cy="776.656" r="4.5"/>
        <circle cx="588.377" cy="767.656" r="4.5"/>
        <circle cx="572.79" cy="758.656" r="4.5"/>
        <circle cx="557.202" cy="749.656" r="4.5"/>
        <circle cx="541.612" cy="740.656" r="4.5"/>
        <circle cx="603.965" cy="794.656" r="4.5"/>
        <circle cx="588.377" cy="803.656" r="4.5"/>
        <circle cx="572.79" cy="812.656" r="4.5"/>
        <circle cx="557.2" cy="821.656" r="4.5"/>
        <circle cx="541.612" cy="830.656" r="4.5"/>
        <circle cx="619.553" cy="803.656" r="4.5"/>
        <circle cx="619.555" cy="821.656" r="4.5"/>
        <circle cx="619.555" cy="839.656" r="4.5"/>
        <circle cx="619.553" cy="857.656" r="4.5"/>
        <circle cx="619.555" cy="875.656" r="4.5"/>
        <circle cx="635.143" cy="794.656" r="4.5"/>
        <circle cx="650.731" cy="803.656" r="4.5"/>
        <circle cx="666.319" cy="812.656" r="4.5"/>
        <circle cx="681.909" cy="821.656" r="4.5"/>
        <circle cx="697.497" cy="830.656" r="4.5"/>
        <circle cx="635.143" cy="776.656" r="4.5"/>
        <circle cx="650.731" cy="767.656" r="4.5"/>
        <circle cx="666.319" cy="758.656" r="4.5"/>
        <circle cx="681.909" cy="749.656" r="4.5"/>
        <circle cx="697.497" cy="740.654" r="4.5"/>
        <circle cx="713.086" cy="623.656" r="4.5"/>
        <circle cx="713.086" cy="605.656" r="4.5"/>
        <circle cx="713.086" cy="587.656" r="4.5"/>
        <circle cx="713.086" cy="569.656" r="4.5"/>
        <circle cx="713.086" cy="551.656" r="4.5"/>
        <circle cx="713.086" cy="533.656" r="4.5"/>
        <circle cx="697.499" cy="614.656" r="4.5"/>
        <circle cx="681.911" cy="605.656" r="4.5"/>
        <circle cx="666.321" cy="596.656" r="4.5"/>
        <circle cx="650.733" cy="587.656" r="4.5"/>
        <circle cx="635.145" cy="578.656" r="4.5"/>
        <circle cx="697.499" cy="632.656" r="4.5"/>
        <circle cx="681.911" cy="641.656" r="4.5"/>
        <circle cx="666.321" cy="650.656" r="4.5"/>
        <circle cx="650.733" cy="659.656" r="4.5"/>
        <circle cx="635.143" cy="668.656" r="4.5"/>
        <circle cx="713.086" cy="641.656" r="4.5"/>
        <circle cx="713.086" cy="659.656" r="4.5"/>
        <circle cx="713.086" cy="677.656" r="4.5"/>
        <circle cx="713.086" cy="695.656" r="4.5"/>
        <circle cx="713.086" cy="713.656" r="4.5"/>
        <circle cx="713.086" cy="731.656" r="4.5"/>
        <circle cx="728.674" cy="632.656" r="4.5"/>
        <circle cx="744.264" cy="641.656" r="4.5"/>
        <circle cx="759.852" cy="650.656" r="4.5"/>
        <circle cx="775.44" cy="659.656" r="4.5"/>
        <circle cx="791.03" cy="668.656" r="4.5"/>
        <circle cx="728.674" cy="614.656" r="4.5"/>
        <circle cx="744.264" cy="605.656" r="4.5"/>
        <circle cx="759.852" cy="596.656" r="4.5"/>
        <circle cx="775.44" cy="587.656" r="4.5"/>
        <circle cx="791.03" cy="578.656" r="4.5"/>
        <circle cx="806.62" cy="461.658" r="4.5"/>
        <circle cx="806.62" cy="443.658" r="4.5"/>
        <circle cx="806.62" cy="425.658" r="4.5"/>
        <circle cx="806.62" cy="407.658" r="4.5"/>
        <circle cx="806.62" cy="389.658" r="4.5"/>
        <circle cx="806.62" cy="371.658" r="4.5"/>
        <circle cx="791.03" cy="452.658" r="4.5"/>
        <circle cx="775.442" cy="443.658" r="4.5"/>
        <circle cx="759.854" cy="434.658" r="4.5"/>
        <circle cx="744.264" cy="425.658" r="4.5"/>
        <circle cx="728.676" cy="416.658" r="4.5"/>
        <circle cx="791.03" cy="470.658" r="4.5"/>
        <circle cx="775.442" cy="479.658" r="4.5"/>
        <circle cx="759.852" cy="488.658" r="4.5"/>
        <circle cx="744.264" cy="497.658" r="4.5"/>
        <circle cx="728.676" cy="506.658" r="4.5"/>
        <circle cx="806.62" cy="479.658" r="4.5"/>
        <circle cx="806.62" cy="497.658" r="4.5"/>
        <circle cx="806.62" cy="515.658" r="4.5"/>
        <circle cx="806.62" cy="533.658" r="4.5"/>
        <circle cx="806.62" cy="551.658" r="4.5"/>
        <circle cx="806.62" cy="569.658" r="4.5"/>
        <circle cx="822.208" cy="470.658" r="4.5"/>
        <circle cx="837.795" cy="479.658" r="4.5"/>
        <circle cx="853.385" cy="488.658" r="4.5"/>
        <circle cx="868.973" cy="497.658" r="4.5"/>
        <circle cx="884.561" cy="506.658" r="4.5"/>
        <circle cx="822.208" cy="452.658" r="4.5"/>
        <circle cx="837.795" cy="443.658" r="4.5"/>
        <circle cx="853.385" cy="434.658" r="4.5"/>
        <circle cx="868.973" cy="425.658" r="4.5"/>
        <circle cx="884.561" cy="416.656" r="4.5"/>
        <circle cx="432.497" cy="461.654" r="4.5"/>
        <circle cx="432.497" cy="443.654" r="4.5"/>
        <circle cx="432.497" cy="425.654" r="4.5"/>
        <circle cx="432.497" cy="407.654" r="4.5"/>
        <circle cx="432.497" cy="389.654" r="4.5"/>
        <circle cx="432.497" cy="371.654" r="4.5"/>
        <circle cx="416.909" cy="452.654" r="4.5"/>
        <circle cx="401.319" cy="443.654" r="4.5"/>
        <circle cx="385.731" cy="434.654" r="4.5"/>
        <circle cx="370.142" cy="425.654" r="4.5"/>
        <circle cx="354.553" cy="416.654" r="4.5"/>
        <circle cx="416.908" cy="470.654" r="4.5"/>
        <circle cx="401.319" cy="479.654" r="4.5"/>
        <circle cx="385.73" cy="488.654" r="4.5"/>
        <circle cx="370.142" cy="497.654" r="4.5"/>
        <circle cx="354.553" cy="506.654" r="4.5"/>
        <circle cx="432.497" cy="479.654" r="4.5"/>
        <circle cx="432.497" cy="497.654" r="4.5"/>
        <circle cx="432.497" cy="515.654" r="4.5"/>
        <circle cx="432.497" cy="533.654" r="4.5"/>
        <circle cx="432.497" cy="551.654" r="4.5"/>
        <circle cx="432.497" cy="569.654" r="4.5"/>
        <circle cx="448.084" cy="470.654" r="4.5"/>
        <circle cx="463.672" cy="479.654" r="4.5"/>
        <circle cx="479.26" cy="488.654" r="4.5"/>
        <circle cx="494.85" cy="497.654" r="4.5"/>
        <circle cx="510.438" cy="506.654" r="4.5"/>
        <circle cx="448.084" cy="452.654" r="4.5"/>
        <circle cx="463.672" cy="443.654" r="4.5"/>
        <circle cx="479.26" cy="434.654" r="4.5"/>
        <circle cx="494.85" cy="425.654" r="4.5"/>
        <circle cx="510.438" cy="416.652" r="4.5"/>
        <circle cx="151.903" cy="623.65" r="4.5"/>
        <circle cx="151.903" cy="605.65" r="4.5"/>
        <circle cx="151.903" cy="587.65" r="4.5"/>
        <circle cx="151.903" cy="569.65" r="4.5"/>
        <circle cx="151.903" cy="551.65" r="4.5"/>
        <circle cx="151.903" cy="533.65" r="4.5"/>
        <circle cx="136.314" cy="614.65" r="4.5"/>
        <circle cx="120.725" cy="605.65" r="4.5"/>
        <circle cx="105.137" cy="596.65" r="4.5"/>
        <circle cx="89.548" cy="587.65" r="4.5"/>
        <circle cx="73.96" cy="578.65" r="4.5"/>
        <circle cx="136.314" cy="632.65" r="4.5"/>
        <circle cx="120.725" cy="641.65" r="4.5"/>
        <circle cx="105.136" cy="650.65" r="4.5"/>
        <circle cx="89.548" cy="659.65" r="4.5"/>
        <circle cx="73.96" cy="668.65" r="4.5"/>
        <circle cx="151.902" cy="641.65" r="4.5"/>
        <circle cx="151.903" cy="659.65" r="4.5"/>
        <circle cx="151.903" cy="677.65" r="4.5"/>
        <circle cx="151.902" cy="695.65" r="4.5"/>
        <circle cx="151.903" cy="713.65" r="4.5"/>
        <circle cx="151.903" cy="731.65" r="4.5"/>
        <circle cx="167.49" cy="632.65" r="4.5"/>
        <circle cx="183.079" cy="641.65" r="4.5"/>
        <circle cx="198.668" cy="650.65" r="4.5"/>
        <circle cx="214.256" cy="659.65" r="4.5"/>
        <circle cx="229.845" cy="668.65" r="4.5"/>
        <circle cx="167.49" cy="614.65" r="4.5"/>
        <circle cx="183.079" cy="605.65" r="4.5"/>
        <circle cx="198.668" cy="596.65" r="4.5"/>
        <circle cx="214.256" cy="587.65" r="4.5"/>
        <circle cx="229.845" cy="578.65" r="4.5"/>
        <circle cx="245.435" cy="461.652" r="4.5"/>
        <circle cx="245.435" cy="443.652" r="4.5"/>
        <circle cx="245.435" cy="425.652" r="4.5"/>
        <circle cx="245.435" cy="407.652" r="4.5"/>
        <circle cx="245.435" cy="389.652" r="4.5"/>
        <circle cx="245.435" cy="371.652" r="4.5"/>
        <circle cx="229.846" cy="452.652" r="4.5"/>
        <circle cx="214.258" cy="443.652" r="4.5"/>
        <circle cx="198.669" cy="434.652" r="4.5"/>
        <circle cx="183.081" cy="425.652" r="4.5"/>
        <circle cx="167.492" cy="416.652" r="4.5"/>
        <circle cx="229.845" cy="470.652" r="4.5"/>
        <circle cx="214.258" cy="479.652" r="4.5"/>
        <circle cx="198.669" cy="488.652" r="4.5"/>
        <circle cx="183.08" cy="497.652" r="4.5"/>
        <circle cx="167.492" cy="506.652" r="4.5"/>
        <circle cx="245.434" cy="479.652" r="4.5"/>
        <circle cx="245.435" cy="497.652" r="4.5"/>
        <circle cx="245.435" cy="515.652" r="4.5"/>
        <circle cx="245.434" cy="533.652" r="4.5"/>
        <circle cx="245.435" cy="551.652" r="4.5"/>
        <circle cx="245.435" cy="569.652" r="4.5"/>
        <circle cx="261.023" cy="470.652" r="4.5"/>
        <circle cx="276.612" cy="479.652" r="4.5"/>
        <circle cx="292.201" cy="488.652" r="4.5"/>
        <circle cx="307.789" cy="497.652" r="4.5"/>
        <circle cx="323.377" cy="506.652" r="4.5"/>
        <circle cx="261.023" cy="452.652" r="4.5"/>
        <circle cx="276.612" cy="443.652" r="4.5"/>
        <circle cx="292.201" cy="434.652" r="4.5"/>
        <circle cx="307.789" cy="425.652" r="4.5"/>
        <circle cx="323.377" cy="416.652" r="4.5"/>
        <circle cx="58.373" cy="461.65" r="4.5"/>
        <circle cx="58.373" cy="443.65" r="4.5"/>
        <circle cx="58.373" cy="425.65" r="4.5"/>
        <circle cx="58.373" cy="407.65" r="4.5"/>
        <circle cx="58.373" cy="389.65" r="4.5"/>
        <circle cx="58.373" cy="371.65" r="4.5"/>
        <circle cx="42.785" cy="452.65" r="4.5"/>
        <circle cx="27.196" cy="443.65" r="4.5"/>
        <circle cx="11.608" cy="434.65" r="4.5"/>
        <circle cx="-3.981" cy="425.65" r="4.5"/>
        <circle cx="-19.57" cy="416.65" r="4.5"/>
        <circle cx="42.784" cy="470.65" r="4.5"/>
        <circle cx="27.196" cy="479.65" r="4.5"/>
        <circle cx="11.607" cy="488.65" r="4.5"/>
        <circle cx="-3.981" cy="497.65" r="4.5"/>
        <circle cx="-19.57" cy="506.65" r="4.5"/>
        <circle cx="58.373" cy="479.65" r="4.5"/>
        <circle cx="58.373" cy="497.65" r="4.5"/>
        <circle cx="58.373" cy="515.65" r="4.5"/>
        <circle cx="58.373" cy="533.65" r="4.5"/>
        <circle cx="58.373" cy="551.65" r="4.5"/>
        <circle cx="58.373" cy="569.65" r="4.5"/>
        <circle cx="73.961" cy="470.65" r="4.5"/>
        <circle cx="89.55" cy="479.65" r="4.5"/>
        <circle cx="105.138" cy="488.65" r="4.5"/>
        <circle cx="120.727" cy="497.65" r="4.5"/>
        <circle cx="136.316" cy="506.65" r="4.5"/>
        <circle cx="73.961" cy="452.65" r="4.5"/>
        <circle cx="89.55" cy="443.65" r="4.5"/>
        <circle cx="105.138" cy="434.65" r="4.5"/>
        <circle cx="120.727" cy="425.65" r="4.5"/>
        <circle cx="136.316" cy="416.65" r="4.5"/>
        <circle cx="151.905" cy="299.65" r="4.5"/>
        <circle cx="151.905" cy="281.65" r="4.5"/>
        <circle cx="151.905" cy="263.65" r="4.5"/>
        <circle cx="151.905" cy="245.65" r="4.5"/>
        <circle cx="151.905" cy="227.65" r="4.5"/>
        <circle cx="151.905" cy="209.65" r="4.5"/>
        <circle cx="136.317" cy="290.65" r="4.5"/>
        <circle cx="120.728" cy="281.65" r="4.5"/>
        <circle cx="105.14" cy="272.65" r="4.5"/>
        <circle cx="89.551" cy="263.65" r="4.5"/>
        <circle cx="73.963" cy="254.65" r="4.5"/>
        <circle cx="136.316" cy="308.65" r="4.5"/>
        <circle cx="120.728" cy="317.65" r="4.5"/>
        <circle cx="105.139" cy="326.65" r="4.5"/>
        <circle cx="89.551" cy="335.65" r="4.5"/>
        <circle cx="73.963" cy="344.65" r="4.5"/>
        <circle cx="151.905" cy="317.65" r="4.5"/>
        <circle cx="151.905" cy="335.65" r="4.5"/>
        <circle cx="151.905" cy="353.65" r="4.5"/>
        <circle cx="151.905" cy="371.65" r="4.5"/>
        <circle cx="151.905" cy="389.65" r="4.5"/>
        <circle cx="151.905" cy="407.65" r="4.5"/>
        <circle cx="167.493" cy="308.65" r="4.5"/>
        <circle cx="183.083" cy="317.65" r="4.5"/>
        <circle cx="198.671" cy="326.65" r="4.5"/>
        <circle cx="214.259" cy="335.65" r="4.5"/>
        <circle cx="229.848" cy="344.65" r="4.5"/>
        <circle cx="167.493" cy="290.65" r="4.5"/>
        <circle cx="183.083" cy="281.65" r="4.5"/>
        <circle cx="198.671" cy="272.65" r="4.5"/>
        <circle cx="214.259" cy="263.65" r="4.5"/>
        <circle cx="229.848" cy="254.65" r="4.5"/>
        <circle cx="338.967" cy="299.652" r="4.5"/>
        <circle cx="338.967" cy="281.652" r="4.5"/>
        <circle cx="338.967" cy="263.652" r="4.5"/>
        <circle cx="338.967" cy="245.652" r="4.5"/>
        <circle cx="338.967" cy="227.652" r="4.5"/>
        <circle cx="338.967" cy="209.652" r="4.5"/>
        <circle cx="323.378" cy="290.652" r="4.5"/>
        <circle cx="307.791" cy="281.652" r="4.5"/>
        <circle cx="292.202" cy="272.652" r="4.5"/>
        <circle cx="276.613" cy="263.652" r="4.5"/>
        <circle cx="261.024" cy="254.652" r="4.5"/>
        <circle cx="323.378" cy="308.652" r="4.5"/>
        <circle cx="307.791" cy="317.652" r="4.5"/>
        <circle cx="292.202" cy="326.652" r="4.5"/>
        <circle cx="276.613" cy="335.652" r="4.5"/>
        <circle cx="261.024" cy="344.652" r="4.5"/>
        <circle cx="338.967" cy="317.652" r="4.5"/>
        <circle cx="338.967" cy="335.652" r="4.5"/>
        <circle cx="338.967" cy="353.652" r="4.5"/>
        <circle cx="338.967" cy="371.652" r="4.5"/>
        <circle cx="338.967" cy="389.652" r="4.5"/>
        <circle cx="338.967" cy="407.652" r="4.5"/>
        <circle cx="354.555" cy="308.652" r="4.5"/>
        <circle cx="370.144" cy="317.652" r="4.5"/>
        <circle cx="385.732" cy="326.652" r="4.5"/>
        <circle cx="401.321" cy="335.652" r="4.5"/>
        <circle cx="416.91" cy="344.652" r="4.5"/>
        <circle cx="354.555" cy="290.652" r="4.5"/>
        <circle cx="370.144" cy="281.652" r="4.5"/>
        <circle cx="385.732" cy="272.652" r="4.5"/>
        <circle cx="401.321" cy="263.652" r="4.5"/>
        <circle cx="416.91" cy="254.652" r="4.5"/>
        <circle cx="526.028" cy="299.654" r="4.5"/>
        <circle cx="526.028" cy="281.654" r="4.5"/>
        <circle cx="526.028" cy="263.654" r="4.5"/>
        <circle cx="526.028" cy="245.654" r="4.5"/>
        <circle cx="526.028" cy="227.654" r="4.5"/>
        <circle cx="526.028" cy="209.654" r="4.5"/>
        <circle cx="510.44" cy="290.654" r="4.5"/>
        <circle cx="494.85" cy="281.654" r="4.5"/>
        <circle cx="479.262" cy="272.654" r="4.5"/>
        <circle cx="463.674" cy="263.654" r="4.5"/>
        <circle cx="448.086" cy="254.654" r="4.5"/>
        <circle cx="510.438" cy="308.654" r="4.5"/>
        <circle cx="494.85" cy="317.654" r="4.5"/>
        <circle cx="479.262" cy="326.654" r="4.5"/>
        <circle cx="463.674" cy="335.654" r="4.5"/>
        <circle cx="448.086" cy="344.654" r="4.5"/>
        <circle cx="526.028" cy="317.654" r="4.5"/>
        <circle cx="526.028" cy="335.654" r="4.5"/>
        <circle cx="526.028" cy="353.654" r="4.5"/>
        <circle cx="526.028" cy="371.654" r="4.5"/>
        <circle cx="526.028" cy="389.654" r="4.5"/>
        <circle cx="526.028" cy="407.654" r="4.5"/>
        <circle cx="541.616" cy="308.654" r="4.5"/>
        <circle cx="557.206" cy="317.654" r="4.5"/>
        <circle cx="572.793" cy="326.654" r="4.5"/>
        <circle cx="588.381" cy="335.654" r="4.5"/>
        <circle cx="603.971" cy="344.654" r="4.5"/>
        <circle cx="541.616" cy="290.654" r="4.5"/>
        <circle cx="557.206" cy="281.654" r="4.5"/>
        <circle cx="572.793" cy="272.654" r="4.5"/>
        <circle cx="588.381" cy="263.654" r="4.5"/>
        <circle cx="603.971" cy="254.654" r="4.5"/>
        <circle cx="619.561" cy="137.656" r="4.5"/>
        <circle cx="619.561" cy="119.656" r="4.5"/>
        <circle cx="619.561" cy="101.656" r="4.5"/>
        <circle cx="619.561" cy="83.656" r="4.5"/>
        <circle cx="619.561" cy="65.656" r="4.5"/>
        <circle cx="619.561" cy="47.656" r="4.5"/>
        <circle cx="603.971" cy="128.656" r="4.5"/>
        <circle cx="588.383" cy="119.656" r="4.5"/>
        <circle cx="572.795" cy="110.656" r="4.5"/>
        <circle cx="557.208" cy="101.656" r="4.5"/>
        <circle cx="541.618" cy="92.656" r="4.5"/>
        <circle cx="603.971" cy="146.656" r="4.5"/>
        <circle cx="588.383" cy="155.656" r="4.5"/>
        <circle cx="572.795" cy="164.656" r="4.5"/>
        <circle cx="557.206" cy="173.656" r="4.5"/>
        <circle cx="541.618" cy="182.656" r="4.5"/>
        <circle cx="619.559" cy="155.656" r="4.5"/>
        <circle cx="619.561" cy="173.656" r="4.5"/>
        <circle cx="619.561" cy="191.656" r="4.5"/>
        <circle cx="619.559" cy="209.656" r="4.5"/>
        <circle cx="619.561" cy="227.656" r="4.5"/>
        <circle cx="619.561" cy="245.656" r="4.5"/>
        <circle cx="635.149" cy="146.656" r="4.5"/>
        <circle cx="650.737" cy="155.656" r="4.5"/>
        <circle cx="666.327" cy="164.656" r="4.5"/>
        <circle cx="681.915" cy="173.656" r="4.5"/>
        <circle cx="697.502" cy="182.656" r="4.5"/>
        <circle cx="635.149" cy="128.656" r="4.5"/>
        <circle cx="650.737" cy="119.656" r="4.5"/>
        <circle cx="666.327" cy="110.656" r="4.5"/>
        <circle cx="681.915" cy="101.656" r="4.5"/>
        <circle cx="697.502" cy="92.654" r="4.5"/>
        <circle cx="806.62" cy="461.658" r="4.5"/>
        <circle cx="806.62" cy="443.658" r="4.5"/>
        <circle cx="806.62" cy="425.658" r="4.5"/>
        <circle cx="806.62" cy="407.658" r="4.5"/>
        <circle cx="806.62" cy="389.658" r="4.5"/>
        <circle cx="806.62" cy="371.658" r="4.5"/>
        <circle cx="791.03" cy="452.658" r="4.5"/>
        <circle cx="775.442" cy="443.658" r="4.5"/>
        <circle cx="759.854" cy="434.658" r="4.5"/>
        <circle cx="744.264" cy="425.658" r="4.5"/>
        <circle cx="728.676" cy="416.658" r="4.5"/>
        <circle cx="791.03" cy="470.658" r="4.5"/>
        <circle cx="775.442" cy="479.658" r="4.5"/>
        <circle cx="759.852" cy="488.658" r="4.5"/>
        <circle cx="744.264" cy="497.658" r="4.5"/>
        <circle cx="728.676" cy="506.658" r="4.5"/>
        <circle cx="806.62" cy="479.658" r="4.5"/>
        <circle cx="806.62" cy="497.658" r="4.5"/>
        <circle cx="806.62" cy="515.658" r="4.5"/>
        <circle cx="806.62" cy="533.658" r="4.5"/>
        <circle cx="806.62" cy="551.658" r="4.5"/>
        <circle cx="806.62" cy="569.658" r="4.5"/>
        <circle cx="822.208" cy="470.658" r="4.5"/>
        <circle cx="837.795" cy="479.658" r="4.5"/>
        <circle cx="853.385" cy="488.658" r="4.5"/>
        <circle cx="868.973" cy="497.658" r="4.5"/>
        <circle cx="884.561" cy="506.658" r="4.5"/>
        <circle cx="822.208" cy="452.658" r="4.5"/>
        <circle cx="837.795" cy="443.658" r="4.5"/>
        <circle cx="853.385" cy="434.658" r="4.5"/>
        <circle cx="868.973" cy="425.658" r="4.5"/>
        <circle cx="884.561" cy="416.656" r="4.5"/>
        <circle cx="713.09" cy="299.656" r="4.5"/>
        <circle cx="713.09" cy="281.656" r="4.5"/>
        <circle cx="713.09" cy="263.656" r="4.5"/>
        <circle cx="713.09" cy="245.656" r="4.5"/>
        <circle cx="713.09" cy="227.656" r="4.5"/>
        <circle cx="713.09" cy="209.656" r="4.5"/>
        <circle cx="697.502" cy="290.656" r="4.5"/>
        <circle cx="681.913" cy="281.656" r="4.5"/>
        <circle cx="666.325" cy="272.656" r="4.5"/>
        <circle cx="650.735" cy="263.656" r="4.5"/>
        <circle cx="635.147" cy="254.656" r="4.5"/>
        <circle cx="697.5" cy="308.656" r="4.5"/>
        <circle cx="681.913" cy="317.656" r="4.5"/>
        <circle cx="666.325" cy="326.656" r="4.5"/>
        <circle cx="650.735" cy="335.656" r="4.5"/>
        <circle cx="635.147" cy="344.656" r="4.5"/>
        <circle cx="713.09" cy="317.656" r="4.5"/>
        <circle cx="713.09" cy="335.656" r="4.5"/>
        <circle cx="713.09" cy="353.656" r="4.5"/>
        <circle cx="713.09" cy="371.656" r="4.5"/>
        <circle cx="713.09" cy="389.656" r="4.5"/>
        <circle cx="713.09" cy="407.656" r="4.5"/>
        <circle cx="728.678" cy="308.656" r="4.5"/>
        <circle cx="744.266" cy="317.656" r="4.5"/>
        <circle cx="759.854" cy="326.656" r="4.5"/>
        <circle cx="775.444" cy="335.656" r="4.5"/>
        <circle cx="791.032" cy="344.656" r="4.5"/>
        <circle cx="728.678" cy="290.656" r="4.5"/>
        <circle cx="744.266" cy="281.656" r="4.5"/>
        <circle cx="759.854" cy="272.656" r="4.5"/>
        <circle cx="775.444" cy="263.656" r="4.5"/>
        <circle cx="791.032" cy="254.656" r="4.5"/>
    </g>
</svg>
