<svg xmlns="http://www.w3.org/2000/svg" width="753" height="391">
    <g fill="#28E6FA">
        <path d="M480.015 194.617l-76.366-.748-37.804-38.558 76.362.75zm-37.808-38.556l.75-76.366 38.557-37.805-.75 76.364zm38.557-37.807l76.365.75 37.806 38.556-76.365-.75zm-.749 76.363l-.75 76.363 38.555-37.805.75-76.365zm77.114-75.613l.748-76.364 38.558-37.807-.75 76.362z"/>
        <path d="M517.07 309.539l-76.363-.75-37.808-38.557 76.366.748zm0 0l-.748 76.363 38.557-37.807.75-76.365z"/>
        <path d="M631.992 272.48l-76.363-.75-37.809-38.555 76.365.75zm-37.807-38.555l.75-76.365 38.557-37.806-.75 76.363z"/>
        <path d="M632.742 196.117l76.368.75 37.8 38.557-76.365-.75zM595.685 81.195l76.36.75 37.815 38.557-76.368-.748zm36.307 191.285l-.748 76.365 38.551-37.808.75-76.363zM131.153 117.752l-40.57 40.711h162.281l-40.569-40.711z"/>
        <path d="M90.637 35.761l-.054 41.281 40.57 40.71V35.761zM8.879 77.042h81.704l-40.569 40.71H8.879zm0 203.669l41.135-.116 40.569 40.708H8.879z"/>
        <path d="M50.014 117.752l40.569 40.711v81.421l-40.569 40.711zm202.85 40.711v81.421l40.571 40.711V117.752zm0-81.421l82.265-.781v40.5l-41.694.991zm-40.569 40.71V35.761l40.569-.144v41.425zm81.14 162.843l-40.571 40.708 82.265.586V281.26zm-81.14 0l40.569 40.708-.962 40.708-40.253.02z"/>
        <path d="M131.153 280.595l81.142.237 40.569-40.948H90.583zm0 0v81.416l-41.028-.105.458-40.603z"/>
    </g>
    <g fill="none" stroke="#000" stroke-width="1.5">
        <path d="M480.03 194.625l-37.806-38.556 38.556-37.805 37.806 38.556zm-.015-.008l-76.366-.748-37.804-38.558 76.362.75zm-37.808-38.556l.75-76.366 38.557-37.805-.75 76.364z"/>
        <path d="M480.764 118.254l76.363.75 37.808 38.556-76.365-.75zm-.749 76.363l-.75 76.363 38.555-37.805.75-76.365z"/>
        <path d="M442.96 79.714l-.748 76.37-76.366-.75.749-76.368zM672.807 5.612l-.748 76.366-76.364-.748.748-76.366zM557.885 42.663l-.748 76.37-76.367-.75.748-76.368z"/>
        <path d="M594.962 157.564l-37.806-38.556 38.556-37.805 37.806 38.556zm-37.835-38.56l.75-76.365 38.558-37.806-.75 76.362zm-77.113 75.638l-.748 76.367-76.37-.748.75-76.367z"/>
        <path d="M517.059 309.56l-37.806-38.556 38.558-37.807 37.805 38.556z"/>
        <path d="M517.07 309.539l-76.363-.75-37.807-38.557 76.365.748zm0 0l-.75 76.363 38.559-37.807.75-76.365zm-.005.028l-.749 76.367-76.367-.749.749-76.367zm229.848-74.106l-.749 76.367-76.369-.748.749-76.367zm-37.046-114.925l-.748 76.37-76.372-.75.748-76.368z"/>
        <path d="M632.02 272.49l-37.805-38.557 38.553-37.803 37.806 38.556zm-.028-.01l-76.363-.75-37.809-38.555 76.365.75zm-37.807-38.555l.75-76.365 38.557-37.806-.75 76.363z"/>
        <path d="M632.742 196.117l76.368.75 37.8 38.557-76.365-.75zM595.685 81.195l76.36.75 37.815 38.557-76.368-.748zm36.307 191.285l-.748 76.365 38.551-37.808.75-76.363zm-37.054-114.892l-.749 76.369-76.368-.749.749-76.369zm37.039 114.917l-.749 76.368-76.367-.748.749-76.368zM8.879 35.76h326.25v326.251H8.879z"/>
        <path d="M131.153 117.752l-40.57 40.711h162.281l-40.569-40.711z"/>
        <path d="M90.637 35.76l-.054 41.282 40.57 40.71V35.76zM8.879 77.042h81.704l-40.569 40.71H8.879zm0 203.669l41.135-.116 40.569 40.708H8.879z"/>
        <path d="M50.014 117.752l40.569 40.711v81.42l-40.569 40.712zm202.85 40.711v81.42l40.571 40.712V117.752z"/>
        <path d="M252.864 77.042l82.265-.782v40.5l-41.694.992zm-40.569 40.71V35.76l40.569-.143v41.425zm81.14 162.843l-40.571 40.708 82.265.586V281.26zm-81.14 0l40.569 40.708-.962 40.708-40.253.02z"/>
        <path d="M131.153 280.595l81.142.237 40.569-40.949H90.583zm0 0v81.416l-41.028-.105.458-40.603z"/>
    </g>
</svg>
