<svg xmlns="http://www.w3.org/2000/svg" width="1377" height="526">
    <path d="M468 373l-216 9c9 45 9 81 0 126l216 9m144-147h216M612 520h216m144-147l216 9c-9 45-9 81 0 126l-216 9" fill="none" stroke="#0081CD" stroke-width="3"/>
    <path d="M288 13L72 22c9 45 9 81 0 126l216 9M432 9l216-2M432 161l216 2m504-150l216 9c-9 45-9 81 0 126l-216 9M1008 9L792 7m216 154l-216 2" fill="none" stroke="#BC1E47" stroke-width="3"/>
    <g fill="#FEC200" stroke="#000">
        <circle cx="72" cy="22" r="3"/>
        <circle cx="288" cy="13" r="3"/>
        <circle cx="432" cy="9" r="3"/>
        <circle cx="648" cy="7" r="3"/>
        <circle cx="792" cy="7" r="3"/>
        <circle cx="1008" cy="9" r="3"/>
        <circle cx="1152" cy="13" r="3"/>
        <circle cx="1368" cy="22" r="3"/>
        <circle cx="73.688" cy="30.938" r="3"/>
        <circle cx="75.245" cy="40.397" r="3"/>
        <circle cx="76.688" cy="49.667" r="3"/>
        <circle cx="77.467" cy="58.321" r="3"/>
        <circle cx="78.245" cy="67" r="3"/>
        <circle cx="78.611" cy="76.335" r="3"/>
        <circle cx="72" cy="148" r="3"/>
        <circle cx="288" cy="157" r="3"/>
        <circle cx="432" cy="161" r="3"/>
        <circle cx="648" cy="163" r="3"/>
        <circle cx="792" cy="163" r="3"/>
        <circle cx="1008" cy="161" r="3"/>
        <circle cx="1152" cy="157" r="3"/>
        <circle cx="1368" cy="148" r="3"/>
        <circle cx="73.688" cy="139.062" r="3"/>
        <circle cx="75.245" cy="129.603" r="3"/>
        <circle cx="76.688" cy="120.333" r="3"/>
        <circle cx="77.467" cy="111.679" r="3"/>
        <circle cx="78.245" cy="103" r="3"/>
        <circle cx="78.611" cy="93.665" r="3"/>
        <circle cx="78.75" cy="85" r="3"/>
        <circle cx="1365.644" cy="30.938" r="3"/>
        <circle cx="1364.087" cy="40.397" r="3"/>
        <circle cx="1362.644" cy="49.667" r="3"/>
        <circle cx="1361.865" cy="58.321" r="3"/>
        <circle cx="1361.087" cy="67" r="3"/>
        <circle cx="1360.721" cy="76.335" r="3"/>
        <circle cx="1365.644" cy="139.062" r="3"/>
        <circle cx="1364.087" cy="129.603" r="3"/>
        <circle cx="1362.644" cy="120.333" r="3"/>
        <circle cx="1361.865" cy="111.679" r="3"/>
        <circle cx="1361.087" cy="103" r="3"/>
        <circle cx="1360.721" cy="93.665" r="3"/>
        <circle cx="1360.582" cy="85" r="3"/>
        <circle cx="252" cy="508" r="3"/>
        <circle cx="468" cy="517" r="3"/>
        <circle cx="612" cy="520" r="3"/>
        <circle cx="828" cy="520" r="3"/>
        <circle cx="972" cy="517" r="3"/>
        <circle cx="1188" cy="508" r="3"/>
        <circle cx="253.688" cy="499.062" r="3"/>
        <circle cx="255.245" cy="489.603" r="3"/>
        <circle cx="256.688" cy="480.334" r="3"/>
        <circle cx="257.466" cy="471.679" r="3"/>
        <circle cx="258.245" cy="463" r="3"/>
        <circle cx="258.61" cy="453.664" r="3"/>
        <circle cx="252" cy="382" r="3"/>
        <circle cx="468" cy="373" r="3"/>
        <circle cx="612" cy="370" r="3"/>
        <circle cx="828" cy="370" r="3"/>
        <circle cx="972" cy="373" r="3"/>
        <circle cx="1188" cy="382" r="3"/>
        <circle cx="253.688" cy="390.938" r="3"/>
        <circle cx="255.245" cy="400.397" r="3"/>
        <circle cx="256.688" cy="409.666" r="3"/>
        <circle cx="257.466" cy="418.321" r="3"/>
        <circle cx="258.245" cy="427" r="3"/>
        <circle cx="258.61" cy="436.336" r="3"/>
        <circle cx="258.75" cy="445" r="3"/>
        <circle cx="1185.643" cy="499.062" r="3"/>
        <circle cx="1184.086" cy="489.603" r="3"/>
        <circle cx="1182.643" cy="480.334" r="3"/>
        <circle cx="1181.865" cy="471.679" r="3"/>
        <circle cx="1181.086" cy="463" r="3"/>
        <circle cx="1180.721" cy="453.664" r="3"/>
        <circle cx="1185.643" cy="390.938" r="3"/>
        <circle cx="1184.086" cy="400.397" r="3"/>
        <circle cx="1182.643" cy="409.666" r="3"/>
        <circle cx="1181.865" cy="418.321" r="3"/>
        <circle cx="1181.086" cy="427" r="3"/>
        <circle cx="1180.721" cy="436.336" r="3"/>
        <circle cx="1180.582" cy="445" r="3"/>
    </g>
</svg>
