<svg xmlns="http://www.w3.org/2000/svg" width="864" height="504">
    <path opacity=".2" d="M504 252c-27 27-36 252-36 252H360V349.456L457.457 252H504zm-288 0c27-27 36-252 36-252h108v154.544L262.544 252H216z" fill="#BC1E47"/>
    <g fill="#FFF6CC">
        <circle cx="360" cy="324" r="45"/>
        <circle cx="360" cy="180" r="45"/>
        <circle cx="432" cy="252" r="45"/>
        <circle cx="288" cy="252" r="45"/>
    </g>
    <path opacity=".15" d="M612 504s9-225 36-252C621 225 612 0 612 0h-72s-9 225-36 252c27 27 36 252 36 252h72zm-432 0s9-225 36-252C189 225 180 0 180 0h-72s-9 225-36 252c27 27 36 252 36 252h72zm576 0s9-225 36-252C765 225 756 0 756 0h-72s-9 225-36 252c27 27 36 252 36 252h72z" fill="gray"/>
    <path d="M216 252c27-27 36-252 36-252m108 154.544V0m144 252c-27 27-36 252-36 252M360 349.456V504m-25.456-180L360 298.544m-2.121 53.032l-25.456-25.455m50.911 0l-25.455-25.455M457.455 252L432 226.545m27.576 27.576l-25.455 25.456m0-50.911l-25.455 25.455M385.457 180L360 205.456m2.122-53.032l25.456 25.455m-50.911 0l25.455 25.455M262.545 252L288 277.455m-27.576-27.576l25.455-25.456m0 50.911l25.455-25.455m74.121 74.12L432 277.456m-144-50.912L334.545 180m72 72h-93.088" fill="none" stroke="#BC1E47" stroke-width="2"/>
    <path d="M360 349.455L385.455 324m-23.333 23.334l-25.456-25.455m50.91 0l-25.454-25.456M432 277.456L406.545 252m48.789-2.121l-25.455 25.456m0-50.911l-25.455 25.455M360 154.545L334.545 180m23.334-23.334l25.457 25.455m-50.912 0l25.455 25.456M288 226.544L313.457 252m-48.79 2.121l25.455-25.456m0 50.911l25.456-25.455M334.544 324l-46.543-46.545M432 226.545L385.455 180M360 298.544v-93.088M216 252h46.544m194.913 0H504" fill="none" stroke="#0081CD" stroke-width="2"/>
    <circle cx="819" cy="252" r="2"/>
    <circle cx="837" cy="252" r="2"/>
    <circle cx="855" cy="252" r="2"/>
    <circle cx="45" cy="252" r="2"/>
    <circle cx="27" cy="252" r="2"/>
    <circle cx="9" cy="252" r="2"/>
    <path d="M540 504s-9-225-36-252c27-27 36-252 36-252m72 504s9-225 36-252C621 225 612 0 612 0M108 504s-9-225-36-252C99 225 108 0 108 0m72 504s9-225 36-252C189 225 180 0 180 0m504 504s-9-225-36-252c27-27 36-252 36-252m72 504s9-225 36-252C765 225 756 0 756 0" fill="none" stroke="#231F20" stroke-width="2"/>
    <g fill="#FEC200" stroke="#000">
        <circle cx="360" cy="349.456" r="6"/>
        <circle cx="334.545" cy="324" r="6"/>
        <circle cx="385.455" cy="324" r="6"/>
        <circle cx="360" cy="298.544" r="5.999"/>
        <circle cx="457.457" cy="252" r="6"/>
        <circle cx="432" cy="277.456" r="6"/>
        <circle cx="432" cy="226.545" r="6"/>
        <circle cx="406.544" cy="252" r="5.999"/>
        <circle cx="360" cy="154.544" r="6"/>
        <circle cx="385.456" cy="180" r="6"/>
        <circle cx="334.545" cy="180" r="6"/>
        <circle cx="360" cy="205.456" r="5.999"/>
        <circle cx="262.544" cy="252" r="6"/>
        <circle cx="288" cy="226.544" r="6"/>
        <circle cx="288.001" cy="277.455" r="6"/>
        <circle cx="313.457" cy="252" r="5.999"/>
        <circle cx="360" cy="252" r="6"/>
        <circle cx="216" cy="252" r="6"/>
        <circle cx="504" cy="252" r="6"/>
        <circle cx="72" cy="252" r="6"/>
        <circle cx="648" cy="252" r="6"/>
        <circle cx="792" cy="252" r="6"/>
    </g>
</svg>
