<?xml version="1.0" standalone="no"?>
<!DOCTYPE svg PUBLIC "-//W3C//DTD SVG 1.1//EN" 
  "http://www.w3.org/Graphics/SVG/1.1/DTD/svg11.dtd">
<svg width="431" height="431" viewBox="-0 -0 431 431"
     xmlns="http://www.w3.org/2000/svg" version="1.1">
  <g style="fill:none; stroke:black">
    <path d="M 247.12,19.51 A 273.82,273.82 1 0 0 393.26,306.32" />
    <path d="M 306.32,38.74 A 273.82,273.82 1 0 0 356.67,356.67" />
    <path d="M 38.74,125.68 A 273.82,273.82 1 0 0 356.67,75.33" />
    <path d="M 75.33,75.33 A 273.82,273.82 1 0 0 393.26,125.68" />
    <path d="M 412.49,184.88 A 273.82,273.82 1 0 0 184.88,412.49" />
    <path d="M 412.49,247.12 A 273.82,273.82 1 0 0 125.68,393.26" />
    <path d="M 306.32,393.26 A 273.82,273.82 1 0 0 19.51,247.12" />
    <path d="M 247.12,412.49 A 273.82,273.82 1 0 0 19.51,184.88" />
    <path d="M 75.33,356.67 A 273.82,273.82 1 0 0 125.68,38.74" />
    <path d="M 38.74,306.32 A 273.82,273.82 1 0 0 184.88,19.51" />
    <path d="M 247.12,19.51 A 49.45,49.45 1 0 0 184.88,19.51" />
    <path d="M 306.32,38.74 A 49.45,49.45 1 0 0 247.12,19.51" />
    <path d="M 356.67,75.33 A 49.45,49.45 1 0 0 306.32,38.74" />
    <path d="M 393.26,125.68 A 49.45,49.45 1 0 0 356.67,75.33" />
    <path d="M 412.49,184.88 A 49.45,49.45 1 0 0 393.26,125.68" />
    <path d="M 412.49,247.12 A 49.45,49.45 1 0 0 412.49,184.88" />
    <path d="M 393.26,306.32 A 49.45,49.45 1 0 0 412.49,247.12" />
    <path d="M 356.67,356.67 A 49.45,49.45 1 0 0 393.26,306.32" />
    <path d="M 306.32,393.26 A 49.45,49.45 1 0 0 356.67,356.67" />
    <path d="M 247.12,412.49 A 49.45,49.45 1 0 0 306.32,393.26" />
    <path d="M 184.88,412.49 A 49.45,49.45 1 0 0 247.12,412.49" />
    <path d="M 125.68,393.26 A 49.45,49.45 1 0 0 184.88,412.49" />
    <path d="M 75.33,356.67 A 49.45,49.45 1 0 0 125.68,393.26" />
    <path d="M 38.74,306.32 A 49.45,49.45 1 0 0 75.33,356.67" />
    <path d="M 19.51,247.12 A 49.45,49.45 1 0 0 38.74,306.32" />
    <path d="M 19.51,184.88 A 49.45,49.45 1 0 0 19.51,247.12" />
    <path d="M 38.74,125.68 A 49.45,49.45 1 0 0 19.51,184.88" />
    <path d="M 75.33,75.33 A 49.45,49.45 1 0 0 38.74,125.68" />
    <path d="M 125.68,38.74 A 49.45,49.45 1 0 0 75.33,75.33" />
    <path d="M 184.88,19.51 A 49.45,49.45 1 0 0 125.68,38.74" />
  </g>
  <g style="fill:red; stroke:black">
    <circle cx="247.12" cy="19.51" r="6.25" />
    <circle cx="306.32" cy="38.74" r="6.25" />
    <circle cx="356.67" cy="75.33" r="6.25" />
    <circle cx="393.26" cy="125.68" r="6.25" />
    <circle cx="412.49" cy="184.88" r="6.25" />
    <circle cx="412.49" cy="247.12" r="6.25" />
    <circle cx="393.26" cy="306.32" r="6.25" />
    <circle cx="356.67" cy="356.67" r="6.25" />
    <circle cx="306.32" cy="393.26" r="6.25" />
    <circle cx="247.12" cy="412.49" r="6.25" />
    <circle cx="184.88" cy="412.49" r="6.25" />
    <circle cx="125.68" cy="393.26" r="6.25" />
    <circle cx="75.33" cy="356.67" r="6.25" />
    <circle cx="38.74" cy="306.32" r="6.25" />
    <circle cx="19.51" cy="247.12" r="6.25" />
    <circle cx="19.51" cy="184.88" r="6.25" />
    <circle cx="38.74" cy="125.68" r="6.25" />
    <circle cx="75.33" cy="75.33" r="6.25" />
    <circle cx="125.68" cy="38.74" r="6.25" />
    <circle cx="184.88" cy="19.51" r="6.25" />
  </g>
</svg>
