<svg width="707.107" height="500" xmlns="http://www.w3.org/2000/svg"><path d="M176.777 250H530.33M176.777 125v250M88.388 125h176.777M88.388 62.5v125m-44.194-125h88.389M44.194 31.25v62.5m-22.097-62.5h44.194M22.097 15.625v31.25m-11.048-31.25h22.097M11.049 7.813v15.625M5.524 7.813h11.049M5.524 3.906v7.813m11.049-7.813v7.813M5.524 23.438h11.049M5.524 19.531v7.813m11.049-7.813v7.813M33.146 7.813v15.625M27.621 7.813H38.67M27.621 3.906v7.813M38.67 3.906v7.813M27.621 23.438H38.67m-11.049-3.907v7.813m11.049-7.813v7.813M11.049 46.875h22.097m-22.097-7.812v15.625M5.524 39.063h11.049M5.524 35.156v7.813m11.049-7.813v7.813M5.524 54.688h11.049M5.524 50.781v7.813m11.049-7.813v7.813m16.573-19.531v15.625m-5.525-15.625H38.67m-11.049-3.907v7.813m11.049-7.813v7.813M27.621 54.688H38.67m-11.049-3.907v7.813m11.049-7.813v7.813m27.621-42.969v31.25m-11.048-31.25H77.34M55.243 7.813v15.625M49.718 7.813h11.049M49.718 3.906v7.813m11.049-7.813v7.813M49.718 23.438h11.049m-11.049-3.907v7.813m11.049-7.813v7.813M77.34 7.813v15.625M71.816 7.813h11.048M71.816 3.906v7.813m11.048-7.813v7.813M71.816 23.438h11.048m-11.048-3.907v7.813m11.048-7.813v7.813M55.243 46.875H77.34m-22.097-7.812v15.625m-5.525-15.625h11.049m-11.049-3.907v7.813m11.049-7.813v7.813M49.718 54.688h11.049m-11.049-3.907v7.813m11.049-7.813v7.813M77.34 39.063v15.625m-5.524-15.625h11.048m-11.048-3.907v7.813m11.048-7.813v7.813M71.816 54.688h11.048m-11.048-3.907v7.813m11.048-7.813v7.813M22.097 93.75h44.194M22.097 78.125v31.25m-11.048-31.25h22.097m-22.097-7.812v15.625M5.524 70.313h11.049M5.524 66.406v7.813m11.049-7.813v7.813M5.524 85.938h11.049M5.524 82.031v7.813m11.049-7.813v7.813m16.573-19.531v15.625m-5.525-15.625H38.67m-11.049-3.907v7.813m11.049-7.813v7.813M27.621 85.938H38.67m-11.049-3.907v7.813m11.049-7.813v7.813m-27.621 19.531h22.097m-22.097-7.812v15.625m-5.525-15.625h11.049M5.524 97.656v7.813m11.049-7.813v7.813M5.524 117.188h11.049m-11.049-3.907v7.813m11.049-7.813v7.813m16.573-19.531v15.625m-5.525-15.625H38.67m-11.049-3.907v7.813m11.049-7.813v7.813m-11.049 11.719H38.67m-11.049-3.907v7.813m11.049-7.813v7.813m27.621-42.969v31.25m-11.048-31.25H77.34m-22.097-7.812v15.625m-5.525-15.625h11.049m-11.049-3.907v7.813m11.049-7.813v7.813M49.718 85.938h11.049m-11.049-3.907v7.813m11.049-7.813v7.813M77.34 70.313v15.625m-5.524-15.625h11.048m-11.048-3.907v7.813m11.048-7.813v7.813M71.816 85.938h11.048m-11.048-3.907v7.813m11.048-7.813v7.813m-27.621 19.531H77.34m-22.097-7.812v15.625m-5.525-15.625h11.049m-11.049-3.907v7.813m11.049-7.813v7.813m-11.049 11.719h11.049m-11.049-3.907v7.813m11.049-7.813v7.813m16.573-19.531v15.625m-5.524-15.625h11.048m-11.048-3.907v7.813m11.048-7.813v7.813m-11.048 11.719h11.048m-11.048-3.907v7.813m11.048-7.813v7.813m49.719-89.844v62.5m-22.098-62.5h44.195m-44.195-15.625v31.25m-11.048-31.25h22.097M99.437 7.813v15.625M93.913 7.813h11.048M93.913 3.906v7.813m11.048-7.813v7.813M93.913 23.438h11.048m-11.048-3.907v7.813m11.048-7.813v7.813m16.573-19.531v15.625M116.01 7.813h11.048M116.01 3.906v7.813m11.048-7.813v7.813M116.01 23.438h11.048m-11.048-3.907v7.813m11.048-7.813v7.813M99.437 46.875h22.097m-22.097-7.812v15.625m-5.524-15.625h11.048m-11.048-3.907v7.813m11.048-7.813v7.813M93.913 54.688h11.048m-11.048-3.907v7.813m11.048-7.813v7.813m16.573-19.531v15.625m-5.524-15.625h11.048m-11.048-3.907v7.813m11.048-7.813v7.813M116.01 54.688h11.048m-11.048-3.907v7.813m11.048-7.813v7.813m27.622-42.969v31.25m-11.049-31.25h22.097m-22.097-7.812v15.625m-5.524-15.625h11.048m-11.048-3.907v7.813m11.048-7.813v7.813m-11.048 11.719h11.048m-11.048-3.907v7.813m11.048-7.813v7.813m16.573-19.531v15.625m-5.524-15.625h11.048m-11.048-3.907v7.813m11.048-7.813v7.813m-11.048 11.719h11.048m-11.048-3.907v7.813m11.048-7.813v7.813m-27.621 19.531h22.097m-22.097-7.812v15.625m-5.524-15.625h11.048m-11.048-3.907v7.813m11.048-7.813v7.813m-11.048 11.719h11.048m-11.048-3.907v7.813m11.048-7.813v7.813m16.573-19.531v15.625m-5.524-15.625h11.048m-11.048-3.907v7.813m11.048-7.813v7.813m-11.048 11.719h11.048m-11.048-3.907v7.813m11.048-7.813v7.813M110.485 93.75h44.195m-44.195-15.625v31.25m-11.048-31.25h22.097m-22.097-7.812v15.625m-5.524-15.625h11.048m-11.048-3.907v7.813m11.048-7.813v7.813M93.913 85.938h11.048m-11.048-3.907v7.813m11.048-7.813v7.813m16.573-19.531v15.625m-5.524-15.625h11.048m-11.048-3.907v7.813m11.048-7.813v7.813M116.01 85.938h11.048m-11.048-3.907v7.813m11.048-7.813v7.813m-27.621 19.531h22.097m-22.097-7.812v15.625m-5.524-15.625h11.048m-11.048-3.907v7.813m11.048-7.813v7.813m-11.048 11.719h11.048m-11.048-3.907v7.813m11.048-7.813v7.813m16.573-19.531v15.625m-5.524-15.625h11.048m-11.048-3.907v7.813m11.048-7.813v7.813m-11.048 11.719h11.048m-11.048-3.907v7.813m11.048-7.813v7.813m27.622-42.969v31.25m-11.049-31.25h22.097m-22.097-7.812v15.625m-5.524-15.625h11.048m-11.048-3.907v7.813m11.048-7.813v7.813m-11.048 11.719h11.048m-11.048-3.907v7.813m11.048-7.813v7.813m16.573-19.531v15.625m-5.524-15.625h11.048m-11.048-3.907v7.813m11.048-7.813v7.813m-11.048 11.719h11.048m-11.048-3.907v7.813m11.048-7.813v7.813m-27.621 19.531h22.097m-22.097-7.812v15.625m-5.524-15.625h11.048m-11.048-3.907v7.813m11.048-7.813v7.813m-11.048 11.719h11.048m-11.048-3.907v7.813m11.048-7.813v7.813m16.573-19.531v15.625m-5.524-15.625h11.048m-11.048-3.907v7.813m11.048-7.813v7.813m-11.048 11.719h11.048m-11.048-3.907v7.813m11.048-7.813v7.813M44.194 187.5h88.389m-88.389-31.25v62.5m-22.097-62.5h44.194m-44.194-15.625v31.25m-11.048-31.25h22.097m-22.097-7.812v15.625m-5.525-15.625h11.049m-11.049-3.907v7.813m11.049-7.813v7.813M5.524 148.438h11.049m-11.049-3.907v7.813m11.049-7.813v7.813m16.573-19.531v15.625m-5.525-15.625H38.67m-11.049-3.907v7.813m11.049-7.813v7.813m-11.049 11.719H38.67m-11.049-3.907v7.813m11.049-7.813v7.813m-27.621 19.531h22.097m-22.097-7.812v15.625m-5.525-15.625h11.049m-11.049-3.907v7.813m11.049-7.813v7.813M5.524 179.688h11.049m-11.049-3.907v7.813m11.049-7.813v7.813m16.573-19.531v15.625m-5.525-15.625H38.67m-11.049-3.907v7.813m11.049-7.813v7.813m-11.049 11.719H38.67m-11.049-3.907v7.813m11.049-7.813v7.813m27.621-42.969v31.25m-11.048-31.25H77.34m-22.097-7.812v15.625m-5.525-15.625h11.049m-11.049-3.907v7.813m11.049-7.813v7.813m-11.049 11.719h11.049m-11.049-3.907v7.813m11.049-7.813v7.813m16.573-19.531v15.625m-5.524-15.625h11.048m-11.048-3.907v7.813m11.048-7.813v7.813m-11.048 11.719h11.048m-11.048-3.907v7.813m11.048-7.813v7.813m-27.621 19.531H77.34m-22.097-7.812v15.625m-5.525-15.625h11.049m-11.049-3.907v7.813m11.049-7.813v7.813m-11.049 11.719h11.049m-11.049-3.907v7.813m11.049-7.813v7.813m16.573-19.531v15.625m-5.524-15.625h11.048m-11.048-3.907v7.813m11.048-7.813v7.813m-11.048 11.719h11.048m-11.048-3.907v7.813m11.048-7.813v7.813M22.097 218.75h44.194m-44.194-15.625v31.25m-11.048-31.25h22.097m-22.097-7.812v15.625m-5.525-15.625h11.049m-11.049-3.907v7.813m11.049-7.813v7.813M5.524 210.938h11.049m-11.049-3.907v7.813m11.049-7.813v7.813m16.573-19.531v15.625m-5.525-15.625H38.67m-11.049-3.907v7.813m11.049-7.813v7.813m-11.049 11.719H38.67m-11.049-3.907v7.813m11.049-7.813v7.813m-27.621 19.531h22.097m-22.097-7.812v15.625m-5.525-15.625h11.049m-11.049-3.907v7.813m11.049-7.813v7.813M5.524 242.188h11.049m-11.049-3.907v7.813m11.049-7.813v7.813m16.573-19.531v15.625m-5.525-15.625H38.67m-11.049-3.907v7.813m11.049-7.813v7.813m-11.049 11.719H38.67m-11.049-3.907v7.813m11.049-7.813v7.813m27.621-42.969v31.25m-11.048-31.25H77.34m-22.097-7.812v15.625m-5.525-15.625h11.049m-11.049-3.907v7.813m11.049-7.813v7.813m-11.049 11.719h11.049m-11.049-3.907v7.813m11.049-7.813v7.813m16.573-19.531v15.625m-5.524-15.625h11.048m-11.048-3.907v7.813m11.048-7.813v7.813m-11.048 11.719h11.048m-11.048-3.907v7.813m11.048-7.813v7.813m-27.621 19.531H77.34m-22.097-7.812v15.625m-5.525-15.625h11.049m-11.049-3.907v7.813m11.049-7.813v7.813m-11.049 11.719h11.049m-11.049-3.907v7.813m11.049-7.813v7.813m16.573-19.531v15.625m-5.524-15.625h11.048m-11.048-3.907v7.813m11.048-7.813v7.813m-11.048 11.719h11.048m-11.048-3.907v7.813m11.048-7.813v7.813m49.719-89.844v62.5m-22.098-62.5h44.195m-44.195-15.625v31.25m-11.048-31.25h22.097m-22.097-7.812v15.625m-5.524-15.625h11.048m-11.048-3.907v7.813m11.048-7.813v7.813m-11.048 11.719h11.048m-11.048-3.907v7.813m11.048-7.813v7.813m16.573-19.531v15.625m-5.524-15.625h11.048m-11.048-3.907v7.813m11.048-7.813v7.813m-11.048 11.719h11.048m-11.048-3.907v7.813m11.048-7.813v7.813m-27.621 19.531h22.097m-22.097-7.812v15.625m-5.524-15.625h11.048m-11.048-3.907v7.813m11.048-7.813v7.813m-11.048 11.719h11.048m-11.048-3.907v7.813m11.048-7.813v7.813m16.573-19.531v15.625m-5.524-15.625h11.048m-11.048-3.907v7.813m11.048-7.813v7.813m-11.048 11.719h11.048m-11.048-3.907v7.813m11.048-7.813v7.813m27.622-42.969v31.25m-11.049-31.25h22.097m-22.097-7.812v15.625m-5.524-15.625h11.048m-11.048-3.907v7.813m11.048-7.813v7.813m-11.048 11.719h11.048m-11.048-3.907v7.813m11.048-7.813v7.813m16.573-19.531v15.625m-5.524-15.625h11.048m-11.048-3.907v7.813m11.048-7.813v7.813m-11.048 11.719h11.048m-11.048-3.907v7.813m11.048-7.813v7.813m-27.621 19.531h22.097m-22.097-7.812v15.625m-5.524-15.625h11.048m-11.048-3.907v7.813m11.048-7.813v7.813m-11.048 11.719h11.048m-11.048-3.907v7.813m11.048-7.813v7.813m16.573-19.531v15.625m-5.524-15.625h11.048m-11.048-3.907v7.813m11.048-7.813v7.813m-11.048 11.719h11.048m-11.048-3.907v7.813m11.048-7.813v7.813m-60.767 35.156h44.195m-44.195-15.625v31.25m-11.048-31.25h22.097m-22.097-7.812v15.625m-5.524-15.625h11.048m-11.048-3.907v7.813m11.048-7.813v7.813m-11.048 11.719h11.048m-11.048-3.907v7.813m11.048-7.813v7.813m16.573-19.531v15.625m-5.524-15.625h11.048m-11.048-3.907v7.813m11.048-7.813v7.813m-11.048 11.719h11.048m-11.048-3.907v7.813m11.048-7.813v7.813m-27.621 19.531h22.097m-22.097-7.812v15.625m-5.524-15.625h11.048m-11.048-3.907v7.813m11.048-7.813v7.813m-11.048 11.719h11.048m-11.048-3.907v7.813m11.048-7.813v7.813m16.573-19.531v15.625m-5.524-15.625h11.048m-11.048-3.907v7.813m11.048-7.813v7.813m-11.048 11.719h11.048m-11.048-3.907v7.813m11.048-7.813v7.813m27.622-42.969v31.25m-11.049-31.25h22.097m-22.097-7.812v15.625m-5.524-15.625h11.048m-11.048-3.907v7.813m11.048-7.813v7.813m-11.048 11.719h11.048m-11.048-3.907v7.813m11.048-7.813v7.813m16.573-19.531v15.625m-5.524-15.625h11.048m-11.048-3.907v7.813m11.048-7.813v7.813m-11.048 11.719h11.048m-11.048-3.907v7.813m11.048-7.813v7.813m-27.621 19.531h22.097m-22.097-7.812v15.625m-5.524-15.625h11.048m-11.048-3.907v7.813m11.048-7.813v7.813m-11.048 11.719h11.048m-11.048-3.907v7.813m11.048-7.813v7.813m16.573-19.531v15.625m-5.524-15.625h11.048m-11.048-3.907v7.813m11.048-7.813v7.813m-11.048 11.719h11.048m-11.048-3.907v7.813m11.048-7.813v7.813M265.165 62.5v125m-44.194-125h88.388m-88.388-31.25v62.5m-22.097-62.5h44.194m-44.194-15.625v31.25m-11.049-31.25h22.097m-22.097-7.812v15.625m-5.524-15.625h11.049m-11.049-3.907v7.813m11.049-7.813v7.813m-11.049 11.719h11.049m-11.049-3.907v7.813m11.049-7.813v7.813m16.572-19.531v15.625m-5.524-15.625h11.049m-11.049-3.907v7.813m11.049-7.813v7.813m-11.049 11.719h11.049m-11.049-3.907v7.813m11.049-7.813v7.813m-27.622 19.531h22.097m-22.097-7.812v15.625m-5.524-15.625h11.049m-11.049-3.907v7.813m11.049-7.813v7.813m-11.049 11.719h11.049m-11.049-3.907v7.813m11.049-7.813v7.813m16.572-19.531v15.625m-5.524-15.625h11.049m-11.049-3.907v7.813m11.049-7.813v7.813m-11.049 11.719h11.049m-11.049-3.907v7.813m11.049-7.813v7.813m27.621-42.969v31.25m-11.049-31.25h22.098m-22.098-7.812v15.625m-5.524-15.625h11.049m-11.049-3.907v7.813m11.049-7.813v7.813m-11.049 11.719h11.049m-11.049-3.907v7.813m11.049-7.813v7.813m16.573-19.531v15.625m-5.525-15.625h11.049m-11.049-3.907v7.813m11.049-7.813v7.813m-11.049 11.719h11.049m-11.049-3.907v7.813m11.049-7.813v7.813m-27.622 19.531h22.098m-22.098-7.812v15.625m-5.524-15.625h11.049m-11.049-3.907v7.813m11.049-7.813v7.813m-11.049 11.719h11.049m-11.049-3.907v7.813m11.049-7.813v7.813m16.573-19.531v15.625m-5.525-15.625h11.049m-11.049-3.907v7.813m11.049-7.813v7.813m-11.049 11.719h11.049m-11.049-3.907v7.813m11.049-7.813v7.813M198.874 93.75h44.194m-44.194-15.625v31.25m-11.049-31.25h22.097m-22.097-7.812v15.625m-5.524-15.625h11.049m-11.049-3.907v7.813m11.049-7.813v7.813m-11.049 11.719h11.049m-11.049-3.907v7.813m11.049-7.813v7.813m16.572-19.531v15.625m-5.524-15.625h11.049m-11.049-3.907v7.813m11.049-7.813v7.813m-11.049 11.719h11.049m-11.049-3.907v7.813m11.049-7.813v7.813m-27.622 19.531h22.097m-22.097-7.812v15.625m-5.524-15.625h11.049m-11.049-3.907v7.813m11.049-7.813v7.813m-11.049 11.719h11.049m-11.049-3.907v7.813m11.049-7.813v7.813m16.572-19.531v15.625m-5.524-15.625h11.049m-11.049-3.907v7.813m11.049-7.813v7.813m-11.049 11.719h11.049m-11.049-3.907v7.813m11.049-7.813v7.813m27.621-42.969v31.25m-11.049-31.25h22.098m-22.098-7.812v15.625m-5.524-15.625h11.049m-11.049-3.907v7.813m11.049-7.813v7.813m-11.049 11.719h11.049m-11.049-3.907v7.813m11.049-7.813v7.813m16.573-19.531v15.625m-5.525-15.625h11.049m-11.049-3.907v7.813m11.049-7.813v7.813m-11.049 11.719h11.049m-11.049-3.907v7.813m11.049-7.813v7.813m-27.622 19.531h22.098m-22.098-7.812v15.625m-5.524-15.625h11.049m-11.049-3.907v7.813m11.049-7.813v7.813m-11.049 11.719h11.049m-11.049-3.907v7.813m11.049-7.813v7.813m16.573-19.531v15.625m-5.525-15.625h11.049m-11.049-3.907v7.813m11.049-7.813v7.813m-11.049 11.719h11.049m-11.049-3.907v7.813m11.049-7.813v7.813m49.718-89.844v62.5m-22.097-62.5h44.194m-44.194-15.625v31.25m-11.048-31.25h22.097m-22.097-7.812v15.625m-5.525-15.625h11.049m-11.049-3.907v7.813m11.049-7.813v7.813m-11.049 11.719h11.049m-11.049-3.907v7.813m11.049-7.813v7.813m16.573-19.531v15.625m-5.525-15.625h11.049m-11.049-3.907v7.813m11.049-7.813v7.813m-11.049 11.719h11.049m-11.049-3.907v7.813m11.049-7.813v7.813m-27.621 19.531h22.097m-22.097-7.812v15.625m-5.525-15.625h11.049m-11.049-3.907v7.813m11.049-7.813v7.813m-11.049 11.719h11.049m-11.049-3.907v7.813m11.049-7.813v7.813m16.573-19.531v15.625m-5.525-15.625h11.049m-11.049-3.907v7.813m11.049-7.813v7.813m-11.049 11.719h11.049m-11.049-3.907v7.813m11.049-7.813v7.813m27.621-42.969v31.25m-11.048-31.25h22.097m-22.097-7.812v15.625m-5.524-15.625h11.048m-11.048-3.907v7.813m11.048-7.813v7.813m-11.048 11.719h11.048m-11.048-3.907v7.813m11.048-7.813v7.813m16.573-19.531v15.625m-5.524-15.625h11.048m-11.048-3.907v7.813m11.048-7.813v7.813m-11.048 11.719h11.048m-11.048-3.907v7.813m11.048-7.813v7.813m-27.621 19.531h22.097m-22.097-7.812v15.625m-5.524-15.625h11.048m-11.048-3.907v7.813m11.048-7.813v7.813m-11.048 11.719h11.048m-11.048-3.907v7.813m11.048-7.813v7.813m16.573-19.531v15.625m-5.524-15.625h11.048m-11.048-3.907v7.813m11.048-7.813v7.813m-11.048 11.719h11.048m-11.048-3.907v7.813m11.048-7.813v7.813M287.262 93.75h44.194m-44.194-15.625v31.25m-11.048-31.25h22.097m-22.097-7.812v15.625m-5.525-15.625h11.049m-11.049-3.907v7.813m11.049-7.813v7.813m-11.049 11.719h11.049m-11.049-3.907v7.813m11.049-7.813v7.813m16.573-19.531v15.625m-5.525-15.625h11.049m-11.049-3.907v7.813m11.049-7.813v7.813m-11.049 11.719h11.049m-11.049-3.907v7.813m11.049-7.813v7.813m-27.621 19.531h22.097m-22.097-7.812v15.625m-5.525-15.625h11.049m-11.049-3.907v7.813m11.049-7.813v7.813m-11.049 11.719h11.049m-11.049-3.907v7.813m11.049-7.813v7.813m16.573-19.531v15.625m-5.525-15.625h11.049m-11.049-3.907v7.813m11.049-7.813v7.813m-11.049 11.719h11.049m-11.049-3.907v7.813m11.049-7.813v7.813m27.621-42.969v31.25m-11.048-31.25h22.097m-22.097-7.812v15.625m-5.524-15.625h11.048m-11.048-3.907v7.813m11.048-7.813v7.813m-11.048 11.719h11.048m-11.048-3.907v7.813m11.048-7.813v7.813m16.573-19.531v15.625m-5.524-15.625h11.048m-11.048-3.907v7.813m11.048-7.813v7.813m-11.048 11.719h11.048m-11.048-3.907v7.813m11.048-7.813v7.813m-27.621 19.531h22.097m-22.097-7.812v15.625m-5.524-15.625h11.048m-11.048-3.907v7.813m11.048-7.813v7.813m-11.048 11.719h11.048m-11.048-3.907v7.813m11.048-7.813v7.813m16.573-19.531v15.625m-5.524-15.625h11.048m-11.048-3.907v7.813m11.048-7.813v7.813m-11.048 11.719h11.048m-11.048-3.907v7.813m11.048-7.813v7.813M220.971 187.5h88.388m-88.388-31.25v62.5m-22.097-62.5h44.194m-44.194-15.625v31.25m-11.049-31.25h22.097m-22.097-7.812v15.625m-5.524-15.625h11.049m-11.049-3.907v7.813m11.049-7.813v7.813m-11.049 11.719h11.049m-11.049-3.907v7.813m11.049-7.813v7.813m16.572-19.531v15.625m-5.524-15.625h11.049m-11.049-3.907v7.813m11.049-7.813v7.813m-11.049 11.719h11.049m-11.049-3.907v7.813m11.049-7.813v7.813m-27.622 19.531h22.097m-22.097-7.812v15.625m-5.524-15.625h11.049m-11.049-3.907v7.813m11.049-7.813v7.813m-11.049 11.719h11.049m-11.049-3.907v7.813m11.049-7.813v7.813m16.572-19.531v15.625m-5.524-15.625h11.049m-11.049-3.907v7.813m11.049-7.813v7.813m-11.049 11.719h11.049m-11.049-3.907v7.813m11.049-7.813v7.813m27.621-42.969v31.25m-11.049-31.25h22.098m-22.098-7.812v15.625m-5.524-15.625h11.049m-11.049-3.907v7.813m11.049-7.813v7.813m-11.049 11.719h11.049m-11.049-3.907v7.813m11.049-7.813v7.813m16.573-19.531v15.625m-5.525-15.625h11.049m-11.049-3.907v7.813m11.049-7.813v7.813m-11.049 11.719h11.049m-11.049-3.907v7.813m11.049-7.813v7.813m-27.622 19.531h22.098m-22.098-7.812v15.625m-5.524-15.625h11.049m-11.049-3.907v7.813m11.049-7.813v7.813m-11.049 11.719h11.049m-11.049-3.907v7.813m11.049-7.813v7.813m16.573-19.531v15.625m-5.525-15.625h11.049m-11.049-3.907v7.813m11.049-7.813v7.813m-11.049 11.719h11.049m-11.049-3.907v7.813m11.049-7.813v7.813m-60.767 35.156h44.194m-44.194-15.625v31.25m-11.049-31.25h22.097m-22.097-7.812v15.625m-5.524-15.625h11.049m-11.049-3.907v7.813m11.049-7.813v7.813m-11.049 11.719h11.049m-11.049-3.907v7.813m11.049-7.813v7.813m16.572-19.531v15.625m-5.524-15.625h11.049m-11.049-3.907v7.813m11.049-7.813v7.813m-11.049 11.719h11.049m-11.049-3.907v7.813m11.049-7.813v7.813m-27.622 19.531h22.097m-22.097-7.812v15.625m-5.524-15.625h11.049m-11.049-3.907v7.813m11.049-7.813v7.813m-11.049 11.719h11.049m-11.049-3.907v7.813m11.049-7.813v7.813m16.572-19.531v15.625m-5.524-15.625h11.049m-11.049-3.907v7.813m11.049-7.813v7.813m-11.049 11.719h11.049m-11.049-3.907v7.813m11.049-7.813v7.813m27.621-42.969v31.25m-11.049-31.25h22.098m-22.098-7.812v15.625m-5.524-15.625h11.049m-11.049-3.907v7.813m11.049-7.813v7.813m-11.049 11.719h11.049m-11.049-3.907v7.813m11.049-7.813v7.813m16.573-19.531v15.625m-5.525-15.625h11.049m-11.049-3.907v7.813m11.049-7.813v7.813m-11.049 11.719h11.049m-11.049-3.907v7.813m11.049-7.813v7.813m-27.622 19.531h22.098m-22.098-7.812v15.625m-5.524-15.625h11.049m-11.049-3.907v7.813m11.049-7.813v7.813m-11.049 11.719h11.049m-11.049-3.907v7.813m11.049-7.813v7.813m16.573-19.531v15.625m-5.525-15.625h11.049m-11.049-3.907v7.813m11.049-7.813v7.813m-11.049 11.719h11.049m-11.049-3.907v7.813m11.049-7.813v7.813m49.718-89.844v62.5m-22.097-62.5h44.194m-44.194-15.625v31.25m-11.048-31.25h22.097m-22.097-7.812v15.625m-5.525-15.625h11.049m-11.049-3.907v7.813m11.049-7.813v7.813m-11.049 11.719h11.049m-11.049-3.907v7.813m11.049-7.813v7.813m16.573-19.531v15.625m-5.525-15.625h11.049m-11.049-3.907v7.813m11.049-7.813v7.813m-11.049 11.719h11.049m-11.049-3.907v7.813m11.049-7.813v7.813m-27.621 19.531h22.097m-22.097-7.812v15.625m-5.525-15.625h11.049m-11.049-3.907v7.813m11.049-7.813v7.813m-11.049 11.719h11.049m-11.049-3.907v7.813m11.049-7.813v7.813m16.573-19.531v15.625m-5.525-15.625h11.049m-11.049-3.907v7.813m11.049-7.813v7.813m-11.049 11.719h11.049m-11.049-3.907v7.813m11.049-7.813v7.813m27.621-42.969v31.25m-11.048-31.25h22.097m-22.097-7.812v15.625m-5.524-15.625h11.048m-11.048-3.907v7.813m11.048-7.813v7.813m-11.048 11.719h11.048m-11.048-3.907v7.813m11.048-7.813v7.813m16.573-19.531v15.625m-5.524-15.625h11.048m-11.048-3.907v7.813m11.048-7.813v7.813m-11.048 11.719h11.048m-11.048-3.907v7.813m11.048-7.813v7.813m-27.621 19.531h22.097m-22.097-7.812v15.625m-5.524-15.625h11.048m-11.048-3.907v7.813m11.048-7.813v7.813m-11.048 11.719h11.048m-11.048-3.907v7.813m11.048-7.813v7.813m16.573-19.531v15.625m-5.524-15.625h11.048m-11.048-3.907v7.813m11.048-7.813v7.813m-11.048 11.719h11.048m-11.048-3.907v7.813m11.048-7.813v7.813m-60.767 35.156h44.194m-44.194-15.625v31.25m-11.048-31.25h22.097m-22.097-7.812v15.625m-5.525-15.625h11.049m-11.049-3.907v7.813m11.049-7.813v7.813m-11.049 11.719h11.049m-11.049-3.907v7.813m11.049-7.813v7.813m16.573-19.531v15.625m-5.525-15.625h11.049m-11.049-3.907v7.813m11.049-7.813v7.813m-11.049 11.719h11.049m-11.049-3.907v7.813m11.049-7.813v7.813m-27.621 19.531h22.097m-22.097-7.812v15.625m-5.525-15.625h11.049m-11.049-3.907v7.813m11.049-7.813v7.813m-11.049 11.719h11.049m-11.049-3.907v7.813m11.049-7.813v7.813m16.573-19.531v15.625m-5.525-15.625h11.049m-11.049-3.907v7.813m11.049-7.813v7.813m-11.049 11.719h11.049m-11.049-3.907v7.813m11.049-7.813v7.813m27.621-42.969v31.25m-11.048-31.25h22.097m-22.097-7.812v15.625m-5.524-15.625h11.048m-11.048-3.907v7.813m11.048-7.813v7.813m-11.048 11.719h11.048m-11.048-3.907v7.813m11.048-7.813v7.813m16.573-19.531v15.625m-5.524-15.625h11.048m-11.048-3.907v7.813m11.048-7.813v7.813m-11.048 11.719h11.048m-11.048-3.907v7.813m11.048-7.813v7.813m-27.621 19.531h22.097m-22.097-7.812v15.625m-5.524-15.625h11.048m-11.048-3.907v7.813m11.048-7.813v7.813m-11.048 11.719h11.048m-11.048-3.907v7.813m11.048-7.813v7.813m16.573-19.531v15.625m-5.524-15.625h11.048m-11.048-3.907v7.813m11.048-7.813v7.813m-11.048 11.719h11.048m-11.048-3.907v7.813m11.048-7.813v7.813M88.388 375h176.777M88.388 312.5v125m-44.194-125h88.389m-88.389-31.25v62.5m-22.097-62.5h44.194m-44.194-15.625v31.25m-11.048-31.25h22.097m-22.097-7.812v15.625m-5.525-15.625h11.049m-11.049-3.907v7.813m11.049-7.813v7.813M5.524 273.438h11.049m-11.049-3.907v7.813m11.049-7.813v7.813m16.573-19.531v15.625m-5.525-15.625H38.67m-11.049-3.907v7.813m11.049-7.813v7.813m-11.049 11.719H38.67m-11.049-3.907v7.813m11.049-7.813v7.813m-27.621 19.531h22.097m-22.097-7.812v15.625m-5.525-15.625h11.049m-11.049-3.907v7.813m11.049-7.813v7.813M5.524 304.688h11.049m-11.049-3.907v7.813m11.049-7.813v7.813m16.573-19.531v15.625m-5.525-15.625H38.67m-11.049-3.907v7.813m11.049-7.813v7.813m-11.049 11.719H38.67m-11.049-3.907v7.813m11.049-7.813v7.813m27.621-42.969v31.25m-11.048-31.25H77.34m-22.097-7.812v15.625m-5.525-15.625h11.049m-11.049-3.907v7.813m11.049-7.813v7.813m-11.049 11.719h11.049m-11.049-3.907v7.813m11.049-7.813v7.813m16.573-19.531v15.625m-5.524-15.625h11.048m-11.048-3.907v7.813m11.048-7.813v7.813m-11.048 11.719h11.048m-11.048-3.907v7.813m11.048-7.813v7.813m-27.621 19.531H77.34m-22.097-7.812v15.625m-5.525-15.625h11.049m-11.049-3.907v7.813m11.049-7.813v7.813m-11.049 11.719h11.049m-11.049-3.907v7.813m11.049-7.813v7.813m16.573-19.531v15.625m-5.524-15.625h11.048m-11.048-3.907v7.813m11.048-7.813v7.813m-11.048 11.719h11.048m-11.048-3.907v7.813m11.048-7.813v7.813M22.097 343.75h44.194m-44.194-15.625v31.25m-11.048-31.25h22.097m-22.097-7.812v15.625m-5.525-15.625h11.049m-11.049-3.907v7.813m11.049-7.813v7.813M5.524 335.938h11.049m-11.049-3.907v7.813m11.049-7.813v7.813m16.573-19.531v15.625m-5.525-15.625H38.67m-11.049-3.907v7.813m11.049-7.813v7.813m-11.049 11.719H38.67m-11.049-3.907v7.813m11.049-7.813v7.813m-27.621 19.531h22.097m-22.097-7.812v15.625m-5.525-15.625h11.049m-11.049-3.907v7.813m11.049-7.813v7.813M5.524 367.188h11.049m-11.049-3.907v7.813m11.049-7.813v7.813m16.573-19.531v15.625m-5.525-15.625H38.67m-11.049-3.907v7.813m11.049-7.813v7.813m-11.049 11.719H38.67m-11.049-3.907v7.813m11.049-7.813v7.813m27.621-42.969v31.25m-11.048-31.25H77.34m-22.097-7.812v15.625m-5.525-15.625h11.049m-11.049-3.907v7.813m11.049-7.813v7.813m-11.049 11.719h11.049m-11.049-3.907v7.813m11.049-7.813v7.813m16.573-19.531v15.625m-5.524-15.625h11.048m-11.048-3.907v7.813m11.048-7.813v7.813m-11.048 11.719h11.048m-11.048-3.907v7.813m11.048-7.813v7.813m-27.621 19.531H77.34m-22.097-7.812v15.625m-5.525-15.625h11.049m-11.049-3.907v7.813m11.049-7.813v7.813m-11.049 11.719h11.049m-11.049-3.907v7.813m11.049-7.813v7.813m16.573-19.531v15.625m-5.524-15.625h11.048m-11.048-3.907v7.813m11.048-7.813v7.813m-11.048 11.719h11.048m-11.048-3.907v7.813m11.048-7.813v7.813m49.719-89.844v62.5m-22.098-62.5h44.195m-44.195-15.625v31.25m-11.048-31.25h22.097m-22.097-7.812v15.625m-5.524-15.625h11.048m-11.048-3.907v7.813m11.048-7.813v7.813m-11.048 11.719h11.048m-11.048-3.907v7.813m11.048-7.813v7.813m16.573-19.531v15.625m-5.524-15.625h11.048m-11.048-3.907v7.813m11.048-7.813v7.813m-11.048 11.719h11.048m-11.048-3.907v7.813m11.048-7.813v7.813m-27.621 19.531h22.097m-22.097-7.812v15.625m-5.524-15.625h11.048m-11.048-3.907v7.813m11.048-7.813v7.813m-11.048 11.719h11.048m-11.048-3.907v7.813m11.048-7.813v7.813m16.573-19.531v15.625m-5.524-15.625h11.048m-11.048-3.907v7.813m11.048-7.813v7.813m-11.048 11.719h11.048m-11.048-3.907v7.813m11.048-7.813v7.813m27.622-42.969v31.25m-11.049-31.25h22.097m-22.097-7.812v15.625m-5.524-15.625h11.048m-11.048-3.907v7.813m11.048-7.813v7.813m-11.048 11.719h11.048m-11.048-3.907v7.813m11.048-7.813v7.813m16.573-19.531v15.625m-5.524-15.625h11.048m-11.048-3.907v7.813m11.048-7.813v7.813m-11.048 11.719h11.048m-11.048-3.907v7.813m11.048-7.813v7.813m-27.621 19.531h22.097m-22.097-7.812v15.625m-5.524-15.625h11.048m-11.048-3.907v7.813m11.048-7.813v7.813m-11.048 11.719h11.048m-11.048-3.907v7.813m11.048-7.813v7.813m16.573-19.531v15.625m-5.524-15.625h11.048m-11.048-3.907v7.813m11.048-7.813v7.813m-11.048 11.719h11.048m-11.048-3.907v7.813m11.048-7.813v7.813m-60.767 35.156h44.195m-44.195-15.625v31.25m-11.048-31.25h22.097m-22.097-7.812v15.625m-5.524-15.625h11.048m-11.048-3.907v7.813m11.048-7.813v7.813m-11.048 11.719h11.048m-11.048-3.907v7.813m11.048-7.813v7.813m16.573-19.531v15.625m-5.524-15.625h11.048m-11.048-3.907v7.813m11.048-7.813v7.813m-11.048 11.719h11.048m-11.048-3.907v7.813m11.048-7.813v7.813m-27.621 19.531h22.097m-22.097-7.812v15.625m-5.524-15.625h11.048m-11.048-3.907v7.813m11.048-7.813v7.813m-11.048 11.719h11.048m-11.048-3.907v7.813m11.048-7.813v7.813m16.573-19.531v15.625m-5.524-15.625h11.048m-11.048-3.907v7.813m11.048-7.813v7.813m-11.048 11.719h11.048m-11.048-3.907v7.813m11.048-7.813v7.813m27.622-42.969v31.25m-11.049-31.25h22.097m-22.097-7.812v15.625m-5.524-15.625h11.048m-11.048-3.907v7.813m11.048-7.813v7.813m-11.048 11.719h11.048m-11.048-3.907v7.813m11.048-7.813v7.813m16.573-19.531v15.625m-5.524-15.625h11.048m-11.048-3.907v7.813m11.048-7.813v7.813m-11.048 11.719h11.048m-11.048-3.907v7.813m11.048-7.813v7.813m-27.621 19.531h22.097m-22.097-7.812v15.625m-5.524-15.625h11.048m-11.048-3.907v7.813m11.048-7.813v7.813m-11.048 11.719h11.048m-11.048-3.907v7.813m11.048-7.813v7.813m16.573-19.531v15.625m-5.524-15.625h11.048m-11.048-3.907v7.813m11.048-7.813v7.813m-11.048 11.719h11.048m-11.048-3.907v7.813m11.048-7.813v7.813M44.194 437.5h88.389m-88.389-31.25v62.5m-22.097-62.5h44.194m-44.194-15.625v31.25m-11.048-31.25h22.097m-22.097-7.812v15.625m-5.525-15.625h11.049m-11.049-3.907v7.813m11.049-7.813v7.813M5.524 398.438h11.049m-11.049-3.907v7.813m11.049-7.813v7.813m16.573-19.531v15.625m-5.525-15.625H38.67m-11.049-3.907v7.813m11.049-7.813v7.813m-11.049 11.719H38.67m-11.049-3.907v7.813m11.049-7.813v7.813m-27.621 19.531h22.097m-22.097-7.812v15.625m-5.525-15.625h11.049m-11.049-3.907v7.813m11.049-7.813v7.813M5.524 429.688h11.049m-11.049-3.907v7.813m11.049-7.813v7.813m16.573-19.531v15.625m-5.525-15.625H38.67m-11.049-3.907v7.813m11.049-7.813v7.813m-11.049 11.719H38.67m-11.049-3.907v7.813m11.049-7.813v7.813m27.621-42.969v31.25m-11.048-31.25H77.34m-22.097-7.812v15.625m-5.525-15.625h11.049m-11.049-3.907v7.813m11.049-7.813v7.813m-11.049 11.719h11.049m-11.049-3.907v7.813m11.049-7.813v7.813m16.573-19.531v15.625m-5.524-15.625h11.048m-11.048-3.907v7.813m11.048-7.813v7.813m-11.048 11.719h11.048m-11.048-3.907v7.813m11.048-7.813v7.813m-27.621 19.531H77.34m-22.097-7.812v15.625m-5.525-15.625h11.049m-11.049-3.907v7.813m11.049-7.813v7.813m-11.049 11.719h11.049m-11.049-3.907v7.813m11.049-7.813v7.813m16.573-19.531v15.625m-5.524-15.625h11.048m-11.048-3.907v7.813m11.048-7.813v7.813m-11.048 11.719h11.048m-11.048-3.907v7.813m11.048-7.813v7.813M22.097 468.75h44.194m-44.194-15.625v31.25m-11.048-31.25h22.097m-22.097-7.812v15.625m-5.525-15.625h11.049m-11.049-3.907v7.813m11.049-7.813v7.813M5.524 460.938h11.049m-11.049-3.907v7.813m11.049-7.813v7.813m16.573-19.531v15.625m-5.525-15.625H38.67m-11.049-3.907v7.813m11.049-7.813v7.813m-11.049 11.719H38.67m-11.049-3.907v7.813m11.049-7.813v7.813m-27.621 19.531h22.097m-22.097-7.812v15.625m-5.525-15.625h11.049m-11.049-3.907v7.813m11.049-7.813v7.813M5.524 492.188h11.049m-11.049-3.907v7.813m11.049-7.813v7.813m16.573-19.531v15.625m-5.525-15.625H38.67m-11.049-3.907v7.813m11.049-7.813v7.813m-11.049 11.719H38.67m-11.049-3.907v7.813m11.049-7.813v7.813m27.621-42.969v31.25m-11.048-31.25H77.34m-22.097-7.812v15.625m-5.525-15.625h11.049m-11.049-3.907v7.813m11.049-7.813v7.813m-11.049 11.719h11.049m-11.049-3.907v7.813m11.049-7.813v7.813m16.573-19.531v15.625m-5.524-15.625h11.048m-11.048-3.907v7.813m11.048-7.813v7.813m-11.048 11.719h11.048m-11.048-3.907v7.813m11.048-7.813v7.813m-27.621 19.531H77.34m-22.097-7.812v15.625m-5.525-15.625h11.049m-11.049-3.907v7.813m11.049-7.813v7.813m-11.049 11.719h11.049m-11.049-3.907v7.813m11.049-7.813v7.813m16.573-19.531v15.625m-5.524-15.625h11.048m-11.048-3.907v7.813m11.048-7.813v7.813m-11.048 11.719h11.048m-11.048-3.907v7.813m11.048-7.813v7.813m49.719-89.844v62.5m-22.098-62.5h44.195m-44.195-15.625v31.25m-11.048-31.25h22.097m-22.097-7.812v15.625m-5.524-15.625h11.048m-11.048-3.907v7.813m11.048-7.813v7.813m-11.048 11.719h11.048m-11.048-3.907v7.813m11.048-7.813v7.813m16.573-19.531v15.625m-5.524-15.625h11.048m-11.048-3.907v7.813m11.048-7.813v7.813m-11.048 11.719h11.048m-11.048-3.907v7.813m11.048-7.813v7.813m-27.621 19.531h22.097m-22.097-7.812v15.625m-5.524-15.625h11.048m-11.048-3.907v7.813m11.048-7.813v7.813m-11.048 11.719h11.048m-11.048-3.907v7.813m11.048-7.813v7.813m16.573-19.531v15.625m-5.524-15.625h11.048m-11.048-3.907v7.813m11.048-7.813v7.813m-11.048 11.719h11.048m-11.048-3.907v7.813m11.048-7.813v7.813m27.622-42.969v31.25m-11.049-31.25h22.097m-22.097-7.812v15.625m-5.524-15.625h11.048m-11.048-3.907v7.813m11.048-7.813v7.813m-11.048 11.719h11.048m-11.048-3.907v7.813m11.048-7.813v7.813m16.573-19.531v15.625m-5.524-15.625h11.048m-11.048-3.907v7.813m11.048-7.813v7.813m-11.048 11.719h11.048m-11.048-3.907v7.813m11.048-7.813v7.813m-27.621 19.531h22.097m-22.097-7.812v15.625m-5.524-15.625h11.048m-11.048-3.907v7.813m11.048-7.813v7.813m-11.048 11.719h11.048m-11.048-3.907v7.813m11.048-7.813v7.813m16.573-19.531v15.625m-5.524-15.625h11.048m-11.048-3.907v7.813m11.048-7.813v7.813m-11.048 11.719h11.048m-11.048-3.907v7.813m11.048-7.813v7.813m-60.767 35.156h44.195m-44.195-15.625v31.25m-11.048-31.25h22.097m-22.097-7.812v15.625m-5.524-15.625h11.048m-11.048-3.907v7.813m11.048-7.813v7.813m-11.048 11.719h11.048m-11.048-3.907v7.813m11.048-7.813v7.813m16.573-19.531v15.625m-5.524-15.625h11.048m-11.048-3.907v7.813m11.048-7.813v7.813m-11.048 11.719h11.048m-11.048-3.907v7.813m11.048-7.813v7.813m-27.621 19.531h22.097m-22.097-7.812v15.625m-5.524-15.625h11.048m-11.048-3.907v7.813m11.048-7.813v7.813m-11.048 11.719h11.048m-11.048-3.907v7.813m11.048-7.813v7.813m16.573-19.531v15.625m-5.524-15.625h11.048m-11.048-3.907v7.813m11.048-7.813v7.813m-11.048 11.719h11.048m-11.048-3.907v7.813m11.048-7.813v7.813m27.622-42.969v31.25m-11.049-31.25h22.097m-22.097-7.812v15.625m-5.524-15.625h11.048m-11.048-3.907v7.813m11.048-7.813v7.813m-11.048 11.719h11.048m-11.048-3.907v7.813m11.048-7.813v7.813m16.573-19.531v15.625m-5.524-15.625h11.048m-11.048-3.907v7.813m11.048-7.813v7.813m-11.048 11.719h11.048m-11.048-3.907v7.813m11.048-7.813v7.813m-27.621 19.531h22.097m-22.097-7.812v15.625m-5.524-15.625h11.048m-11.048-3.907v7.813m11.048-7.813v7.813m-11.048 11.719h11.048m-11.048-3.907v7.813m11.048-7.813v7.813m16.573-19.531v15.625m-5.524-15.625h11.048m-11.048-3.907v7.813m11.048-7.813v7.813m-11.048 11.719h11.048m-11.048-3.907v7.813m11.048-7.813v7.813M265.165 312.5v125m-44.194-125h88.388m-88.388-31.25v62.5m-22.097-62.5h44.194m-44.194-15.625v31.25m-11.049-31.25h22.097m-22.097-7.812v15.625m-5.524-15.625h11.049m-11.049-3.907v7.813m11.049-7.813v7.813m-11.049 11.719h11.049m-11.049-3.907v7.813m11.049-7.813v7.813m16.572-19.531v15.625m-5.524-15.625h11.049m-11.049-3.907v7.813m11.049-7.813v7.813m-11.049 11.719h11.049m-11.049-3.907v7.813m11.049-7.813v7.813m-27.622 19.531h22.097m-22.097-7.812v15.625m-5.524-15.625h11.049m-11.049-3.907v7.813m11.049-7.813v7.813m-11.049 11.719h11.049m-11.049-3.907v7.813m11.049-7.813v7.813m16.572-19.531v15.625m-5.524-15.625h11.049m-11.049-3.907v7.813m11.049-7.813v7.813m-11.049 11.719h11.049m-11.049-3.907v7.813m11.049-7.813v7.813m27.621-42.969v31.25m-11.049-31.25h22.098m-22.098-7.812v15.625m-5.524-15.625h11.049m-11.049-3.907v7.813m11.049-7.813v7.813m-11.049 11.719h11.049m-11.049-3.907v7.813m11.049-7.813v7.813m16.573-19.531v15.625m-5.525-15.625h11.049m-11.049-3.907v7.813m11.049-7.813v7.813m-11.049 11.719h11.049m-11.049-3.907v7.813m11.049-7.813v7.813m-27.622 19.531h22.098m-22.098-7.812v15.625m-5.524-15.625h11.049m-11.049-3.907v7.813m11.049-7.813v7.813m-11.049 11.719h11.049m-11.049-3.907v7.813m11.049-7.813v7.813m16.573-19.531v15.625m-5.525-15.625h11.049m-11.049-3.907v7.813m11.049-7.813v7.813m-11.049 11.719h11.049m-11.049-3.907v7.813m11.049-7.813v7.813m-60.767 35.156h44.194m-44.194-15.625v31.25m-11.049-31.25h22.097m-22.097-7.812v15.625m-5.524-15.625h11.049m-11.049-3.907v7.813m11.049-7.813v7.813m-11.049 11.719h11.049m-11.049-3.907v7.813m11.049-7.813v7.813m16.572-19.531v15.625m-5.524-15.625h11.049m-11.049-3.907v7.813m11.049-7.813v7.813m-11.049 11.719h11.049m-11.049-3.907v7.813m11.049-7.813v7.813m-27.622 19.531h22.097m-22.097-7.812v15.625m-5.524-15.625h11.049m-11.049-3.907v7.813m11.049-7.813v7.813m-11.049 11.719h11.049m-11.049-3.907v7.813m11.049-7.813v7.813m16.572-19.531v15.625m-5.524-15.625h11.049m-11.049-3.907v7.813m11.049-7.813v7.813m-11.049 11.719h11.049m-11.049-3.907v7.813m11.049-7.813v7.813m27.621-42.969v31.25m-11.049-31.25h22.098m-22.098-7.812v15.625m-5.524-15.625h11.049m-11.049-3.907v7.813m11.049-7.813v7.813m-11.049 11.719h11.049m-11.049-3.907v7.813m11.049-7.813v7.813m16.573-19.531v15.625m-5.525-15.625h11.049m-11.049-3.907v7.813m11.049-7.813v7.813m-11.049 11.719h11.049m-11.049-3.907v7.813m11.049-7.813v7.813m-27.622 19.531h22.098m-22.098-7.812v15.625m-5.524-15.625h11.049m-11.049-3.907v7.813m11.049-7.813v7.813m-11.049 11.719h11.049m-11.049-3.907v7.813m11.049-7.813v7.813m16.573-19.531v15.625m-5.525-15.625h11.049m-11.049-3.907v7.813m11.049-7.813v7.813m-11.049 11.719h11.049m-11.049-3.907v7.813m11.049-7.813v7.813m49.718-89.844v62.5m-22.097-62.5h44.194m-44.194-15.625v31.25m-11.048-31.25h22.097m-22.097-7.812v15.625m-5.525-15.625h11.049m-11.049-3.907v7.813m11.049-7.813v7.813m-11.049 11.719h11.049m-11.049-3.907v7.813m11.049-7.813v7.813m16.573-19.531v15.625m-5.525-15.625h11.049m-11.049-3.907v7.813m11.049-7.813v7.813m-11.049 11.719h11.049m-11.049-3.907v7.813m11.049-7.813v7.813m-27.621 19.531h22.097m-22.097-7.812v15.625m-5.525-15.625h11.049m-11.049-3.907v7.813m11.049-7.813v7.813m-11.049 11.719h11.049m-11.049-3.907v7.813m11.049-7.813v7.813m16.573-19.531v15.625m-5.525-15.625h11.049m-11.049-3.907v7.813m11.049-7.813v7.813m-11.049 11.719h11.049m-11.049-3.907v7.813m11.049-7.813v7.813m27.621-42.969v31.25m-11.048-31.25h22.097m-22.097-7.812v15.625m-5.524-15.625h11.048m-11.048-3.907v7.813m11.048-7.813v7.813m-11.048 11.719h11.048m-11.048-3.907v7.813m11.048-7.813v7.813m16.573-19.531v15.625m-5.524-15.625h11.048m-11.048-3.907v7.813m11.048-7.813v7.813m-11.048 11.719h11.048m-11.048-3.907v7.813m11.048-7.813v7.813m-27.621 19.531h22.097m-22.097-7.812v15.625m-5.524-15.625h11.048m-11.048-3.907v7.813m11.048-7.813v7.813m-11.048 11.719h11.048m-11.048-3.907v7.813m11.048-7.813v7.813m16.573-19.531v15.625m-5.524-15.625h11.048m-11.048-3.907v7.813m11.048-7.813v7.813m-11.048 11.719h11.048m-11.048-3.907v7.813m11.048-7.813v7.813m-60.767 35.156h44.194m-44.194-15.625v31.25m-11.048-31.25h22.097m-22.097-7.812v15.625m-5.525-15.625h11.049m-11.049-3.907v7.813m11.049-7.813v7.813m-11.049 11.719h11.049m-11.049-3.907v7.813m11.049-7.813v7.813m16.573-19.531v15.625m-5.525-15.625h11.049m-11.049-3.907v7.813m11.049-7.813v7.813m-11.049 11.719h11.049m-11.049-3.907v7.813m11.049-7.813v7.813m-27.621 19.531h22.097m-22.097-7.812v15.625m-5.525-15.625h11.049m-11.049-3.907v7.813m11.049-7.813v7.813m-11.049 11.719h11.049m-11.049-3.907v7.813m11.049-7.813v7.813m16.573-19.531v15.625m-5.525-15.625h11.049m-11.049-3.907v7.813m11.049-7.813v7.813m-11.049 11.719h11.049m-11.049-3.907v7.813m11.049-7.813v7.813m27.621-42.969v31.25m-11.048-31.25h22.097m-22.097-7.812v15.625m-5.524-15.625h11.048m-11.048-3.907v7.813m11.048-7.813v7.813m-11.048 11.719h11.048m-11.048-3.907v7.813m11.048-7.813v7.813m16.573-19.531v15.625m-5.524-15.625h11.048m-11.048-3.907v7.813m11.048-7.813v7.813m-11.048 11.719h11.048m-11.048-3.907v7.813m11.048-7.813v7.813m-27.621 19.531h22.097m-22.097-7.812v15.625m-5.524-15.625h11.048m-11.048-3.907v7.813m11.048-7.813v7.813m-11.048 11.719h11.048m-11.048-3.907v7.813m11.048-7.813v7.813m16.573-19.531v15.625m-5.524-15.625h11.048m-11.048-3.907v7.813m11.048-7.813v7.813m-11.048 11.719h11.048m-11.048-3.907v7.813m11.048-7.813v7.813M220.971 437.5h88.388m-88.388-31.25v62.5m-22.097-62.5h44.194m-44.194-15.625v31.25m-11.049-31.25h22.097m-22.097-7.812v15.625m-5.524-15.625h11.049m-11.049-3.907v7.813m11.049-7.813v7.813m-11.049 11.719h11.049m-11.049-3.907v7.813m11.049-7.813v7.813m16.572-19.531v15.625m-5.524-15.625h11.049m-11.049-3.907v7.813m11.049-7.813v7.813m-11.049 11.719h11.049m-11.049-3.907v7.813m11.049-7.813v7.813m-27.622 19.531h22.097m-22.097-7.812v15.625m-5.524-15.625h11.049m-11.049-3.907v7.813m11.049-7.813v7.813m-11.049 11.719h11.049m-11.049-3.907v7.813m11.049-7.813v7.813m16.572-19.531v15.625m-5.524-15.625h11.049m-11.049-3.907v7.813m11.049-7.813v7.813m-11.049 11.719h11.049m-11.049-3.907v7.813m11.049-7.813v7.813m27.621-42.969v31.25m-11.049-31.25h22.098m-22.098-7.812v15.625m-5.524-15.625h11.049m-11.049-3.907v7.813m11.049-7.813v7.813m-11.049 11.719h11.049m-11.049-3.907v7.813m11.049-7.813v7.813m16.573-19.531v15.625m-5.525-15.625h11.049m-11.049-3.907v7.813m11.049-7.813v7.813m-11.049 11.719h11.049m-11.049-3.907v7.813m11.049-7.813v7.813m-27.622 19.531h22.098m-22.098-7.812v15.625m-5.524-15.625h11.049m-11.049-3.907v7.813m11.049-7.813v7.813m-11.049 11.719h11.049m-11.049-3.907v7.813m11.049-7.813v7.813m16.573-19.531v15.625m-5.525-15.625h11.049m-11.049-3.907v7.813m11.049-7.813v7.813m-11.049 11.719h11.049m-11.049-3.907v7.813m11.049-7.813v7.813m-60.767 35.156h44.194m-44.194-15.625v31.25m-11.049-31.25h22.097m-22.097-7.812v15.625m-5.524-15.625h11.049m-11.049-3.907v7.813m11.049-7.813v7.813m-11.049 11.719h11.049m-11.049-3.907v7.813m11.049-7.813v7.813m16.572-19.531v15.625m-5.524-15.625h11.049m-11.049-3.907v7.813m11.049-7.813v7.813m-11.049 11.719h11.049m-11.049-3.907v7.813m11.049-7.813v7.813m-27.622 19.531h22.097m-22.097-7.812v15.625m-5.524-15.625h11.049m-11.049-3.907v7.813m11.049-7.813v7.813m-11.049 11.719h11.049m-11.049-3.907v7.813m11.049-7.813v7.813m16.572-19.531v15.625m-5.524-15.625h11.049m-11.049-3.907v7.813m11.049-7.813v7.813m-11.049 11.719h11.049m-11.049-3.907v7.813m11.049-7.813v7.813m27.621-42.969v31.25m-11.049-31.25h22.098m-22.098-7.812v15.625m-5.524-15.625h11.049m-11.049-3.907v7.813m11.049-7.813v7.813m-11.049 11.719h11.049m-11.049-3.907v7.813m11.049-7.813v7.813m16.573-19.531v15.625m-5.525-15.625h11.049m-11.049-3.907v7.813m11.049-7.813v7.813m-11.049 11.719h11.049m-11.049-3.907v7.813m11.049-7.813v7.813m-27.622 19.531h22.098m-22.098-7.812v15.625m-5.524-15.625h11.049m-11.049-3.907v7.813m11.049-7.813v7.813m-11.049 11.719h11.049m-11.049-3.907v7.813m11.049-7.813v7.813m16.573-19.531v15.625m-5.525-15.625h11.049m-11.049-3.907v7.813m11.049-7.813v7.813m-11.049 11.719h11.049m-11.049-3.907v7.813m11.049-7.813v7.813m49.718-89.844v62.5m-22.097-62.5h44.194m-44.194-15.625v31.25m-11.048-31.25h22.097m-22.097-7.812v15.625m-5.525-15.625h11.049m-11.049-3.907v7.813m11.049-7.813v7.813m-11.049 11.719h11.049m-11.049-3.907v7.813m11.049-7.813v7.813m16.573-19.531v15.625m-5.525-15.625h11.049m-11.049-3.907v7.813m11.049-7.813v7.813m-11.049 11.719h11.049m-11.049-3.907v7.813m11.049-7.813v7.813m-27.621 19.531h22.097m-22.097-7.812v15.625m-5.525-15.625h11.049m-11.049-3.907v7.813m11.049-7.813v7.813m-11.049 11.719h11.049m-11.049-3.907v7.813m11.049-7.813v7.813m16.573-19.531v15.625m-5.525-15.625h11.049m-11.049-3.907v7.813m11.049-7.813v7.813m-11.049 11.719h11.049m-11.049-3.907v7.813m11.049-7.813v7.813m27.621-42.969v31.25m-11.048-31.25h22.097m-22.097-7.812v15.625m-5.524-15.625h11.048m-11.048-3.907v7.813m11.048-7.813v7.813m-11.048 11.719h11.048m-11.048-3.907v7.813m11.048-7.813v7.813m16.573-19.531v15.625m-5.524-15.625h11.048m-11.048-3.907v7.813m11.048-7.813v7.813m-11.048 11.719h11.048m-11.048-3.907v7.813m11.048-7.813v7.813m-27.621 19.531h22.097m-22.097-7.812v15.625m-5.524-15.625h11.048m-11.048-3.907v7.813m11.048-7.813v7.813m-11.048 11.719h11.048m-11.048-3.907v7.813m11.048-7.813v7.813m16.573-19.531v15.625m-5.524-15.625h11.048m-11.048-3.907v7.813m11.048-7.813v7.813m-11.048 11.719h11.048m-11.048-3.907v7.813m11.048-7.813v7.813m-60.767 35.156h44.194m-44.194-15.625v31.25m-11.048-31.25h22.097m-22.097-7.812v15.625m-5.525-15.625h11.049m-11.049-3.907v7.813m11.049-7.813v7.813m-11.049 11.719h11.049m-11.049-3.907v7.813m11.049-7.813v7.813m16.573-19.531v15.625m-5.525-15.625h11.049m-11.049-3.907v7.813m11.049-7.813v7.813m-11.049 11.719h11.049m-11.049-3.907v7.813m11.049-7.813v7.813m-27.621 19.531h22.097m-22.097-7.812v15.625m-5.525-15.625h11.049m-11.049-3.907v7.813m11.049-7.813v7.813m-11.049 11.719h11.049m-11.049-3.907v7.813m11.049-7.813v7.813m16.573-19.531v15.625m-5.525-15.625h11.049m-11.049-3.907v7.813m11.049-7.813v7.813m-11.049 11.719h11.049m-11.049-3.907v7.813m11.049-7.813v7.813m27.621-42.969v31.25m-11.048-31.25h22.097m-22.097-7.812v15.625m-5.524-15.625h11.048m-11.048-3.907v7.813m11.048-7.813v7.813m-11.048 11.719h11.048m-11.048-3.907v7.813m11.048-7.813v7.813m16.573-19.531v15.625m-5.524-15.625h11.048m-11.048-3.907v7.813m11.048-7.813v7.813m-11.048 11.719h11.048m-11.048-3.907v7.813m11.048-7.813v7.813m-27.621 19.531h22.097m-22.097-7.812v15.625m-5.524-15.625h11.048m-11.048-3.907v7.813m11.048-7.813v7.813m-11.048 11.719h11.048m-11.048-3.907v7.813m11.048-7.813v7.813m16.573-19.531v15.625m-5.524-15.625h11.048m-11.048-3.907v7.813m11.048-7.813v7.813m-11.048 11.719h11.048m-11.048-3.907v7.813m11.048-7.813v7.813M530.33 125v250m-88.388-250h176.776M441.942 62.5v125m-44.194-125h88.388m-88.388-31.25v62.5m-22.097-62.5h44.194m-44.194-15.625v31.25m-11.049-31.25h22.097m-22.097-7.812v15.625m-5.524-15.625h11.048m-11.048-3.907v7.813m11.048-7.813v7.813m-11.048 11.719h11.048m-11.048-3.907v7.813m11.048-7.813v7.813m16.573-19.531v15.625m-5.524-15.625h11.048m-11.048-3.907v7.813m11.048-7.813v7.813m-11.048 11.719h11.048m-11.048-3.907v7.813m11.048-7.813v7.813m-27.621 19.531h22.097m-22.097-7.812v15.625m-5.524-15.625h11.048m-11.048-3.907v7.813m11.048-7.813v7.813m-11.048 11.719h11.048m-11.048-3.907v7.813m11.048-7.813v7.813m16.573-19.531v15.625m-5.524-15.625h11.048m-11.048-3.907v7.813m11.048-7.813v7.813m-11.048 11.719h11.048m-11.048-3.907v7.813m11.048-7.813v7.813m27.622-42.969v31.25m-11.049-31.25h22.097m-22.097-7.812v15.625m-5.524-15.625h11.048m-11.048-3.907v7.813m11.048-7.813v7.813m-11.048 11.719h11.048m-11.048-3.907v7.813m11.048-7.813v7.813m16.573-19.531v15.625m-5.524-15.625h11.049m-11.049-3.907v7.813m11.049-7.813v7.813m-11.049 11.719h11.049m-11.049-3.907v7.813m11.049-7.813v7.813m-27.622 19.531h22.097m-22.097-7.812v15.625m-5.524-15.625h11.048m-11.048-3.907v7.813m11.048-7.813v7.813m-11.048 11.719h11.048m-11.048-3.907v7.813m11.048-7.813v7.813m16.573-19.531v15.625m-5.524-15.625h11.049m-11.049-3.907v7.813m11.049-7.813v7.813m-11.049 11.719h11.049m-11.049-3.907v7.813m11.049-7.813v7.813M375.651 93.75h44.194m-44.194-15.625v31.25m-11.049-31.25h22.097m-22.097-7.812v15.625m-5.524-15.625h11.048m-11.048-3.907v7.813m11.048-7.813v7.813m-11.048 11.719h11.048m-11.048-3.907v7.813m11.048-7.813v7.813m16.573-19.531v15.625m-5.524-15.625h11.048m-11.048-3.907v7.813m11.048-7.813v7.813m-11.048 11.719h11.048m-11.048-3.907v7.813m11.048-7.813v7.813m-27.621 19.531h22.097m-22.097-7.812v15.625m-5.524-15.625h11.048m-11.048-3.907v7.813m11.048-7.813v7.813m-11.048 11.719h11.048m-11.048-3.907v7.813m11.048-7.813v7.813m16.573-19.531v15.625m-5.524-15.625h11.048m-11.048-3.907v7.813m11.048-7.813v7.813m-11.048 11.719h11.048m-11.048-3.907v7.813m11.048-7.813v7.813m27.622-42.969v31.25m-11.049-31.25h22.097m-22.097-7.812v15.625m-5.524-15.625h11.048m-11.048-3.907v7.813m11.048-7.813v7.813m-11.048 11.719h11.048m-11.048-3.907v7.813m11.048-7.813v7.813m16.573-19.531v15.625m-5.524-15.625h11.049m-11.049-3.907v7.813m11.049-7.813v7.813m-11.049 11.719h11.049m-11.049-3.907v7.813m11.049-7.813v7.813m-27.622 19.531h22.097m-22.097-7.812v15.625m-5.524-15.625h11.048m-11.048-3.907v7.813m11.048-7.813v7.813m-11.048 11.719h11.048m-11.048-3.907v7.813m11.048-7.813v7.813m16.573-19.531v15.625m-5.524-15.625h11.049m-11.049-3.907v7.813m11.049-7.813v7.813m-11.049 11.719h11.049m-11.049-3.907v7.813m11.049-7.813v7.813m49.718-89.844v62.5m-22.097-62.5h44.194m-44.194-15.625v31.25m-11.049-31.25h22.097M452.99 7.813v15.625m-5.524-15.625h11.049m-11.049-3.907v7.813m11.049-7.813v7.813m-11.049 11.719h11.049m-11.049-3.907v7.813m11.049-7.813v7.813m16.572-19.531v15.625m-5.524-15.625h11.049m-11.049-3.907v7.813m11.049-7.813v7.813m-11.049 11.719h11.049m-11.049-3.907v7.813m11.049-7.813v7.813M452.99 46.875h22.097m-22.097-7.812v15.625m-5.524-15.625h11.049m-11.049-3.907v7.813m11.049-7.813v7.813m-11.049 11.719h11.049m-11.049-3.907v7.813m11.049-7.813v7.813m16.572-19.531v15.625m-5.524-15.625h11.049m-11.049-3.907v7.813m11.049-7.813v7.813m-11.049 11.719h11.049m-11.049-3.907v7.813m11.049-7.813v7.813m27.621-42.969v31.25m-11.048-31.25h22.097m-22.097-7.812v15.625M491.66 7.813h11.049M491.66 3.906v7.813m11.049-7.813v7.813M491.66 23.438h11.049m-11.049-3.907v7.813m11.049-7.813v7.813m16.573-19.531v15.625m-5.525-15.625h11.049m-11.049-3.907v7.813m11.049-7.813v7.813m-11.049 11.719h11.049m-11.049-3.907v7.813m11.049-7.813v7.813m-27.621 19.531h22.097m-22.097-7.812v15.625m-5.525-15.625h11.049m-11.049-3.907v7.813m11.049-7.813v7.813M491.66 54.688h11.049m-11.049-3.907v7.813m11.049-7.813v7.813m16.573-19.531v15.625m-5.525-15.625h11.049m-11.049-3.907v7.813m11.049-7.813v7.813m-11.049 11.719h11.049m-11.049-3.907v7.813m11.049-7.813v7.813M464.039 93.75h44.194m-44.194-15.625v31.25m-11.049-31.25h22.097m-22.097-7.812v15.625m-5.524-15.625h11.049m-11.049-3.907v7.813m11.049-7.813v7.813m-11.049 11.719h11.049m-11.049-3.907v7.813m11.049-7.813v7.813m16.572-19.531v15.625m-5.524-15.625h11.049m-11.049-3.907v7.813m11.049-7.813v7.813m-11.049 11.719h11.049m-11.049-3.907v7.813m11.049-7.813v7.813m-27.622 19.531h22.097m-22.097-7.812v15.625m-5.524-15.625h11.049m-11.049-3.907v7.813m11.049-7.813v7.813m-11.049 11.719h11.049m-11.049-3.907v7.813m11.049-7.813v7.813m16.572-19.531v15.625m-5.524-15.625h11.049m-11.049-3.907v7.813m11.049-7.813v7.813m-11.049 11.719h11.049m-11.049-3.907v7.813m11.049-7.813v7.813m27.621-42.969v31.25m-11.048-31.25h22.097m-22.097-7.812v15.625m-5.525-15.625h11.049m-11.049-3.907v7.813m11.049-7.813v7.813M491.66 85.938h11.049m-11.049-3.907v7.813m11.049-7.813v7.813m16.573-19.531v15.625m-5.525-15.625h11.049m-11.049-3.907v7.813m11.049-7.813v7.813m-11.049 11.719h11.049m-11.049-3.907v7.813m11.049-7.813v7.813m-27.621 19.531h22.097m-22.097-7.812v15.625m-5.525-15.625h11.049m-11.049-3.907v7.813m11.049-7.813v7.813m-11.049 11.719h11.049m-11.049-3.907v7.813m11.049-7.813v7.813m16.573-19.531v15.625m-5.525-15.625h11.049m-11.049-3.907v7.813m11.049-7.813v7.813m-11.049 11.719h11.049m-11.049-3.907v7.813m11.049-7.813v7.813M397.748 187.5h88.388m-88.388-31.25v62.5m-22.097-62.5h44.194m-44.194-15.625v31.25m-11.049-31.25h22.097m-22.097-7.812v15.625m-5.524-15.625h11.048m-11.048-3.907v7.813m11.048-7.813v7.813m-11.048 11.719h11.048m-11.048-3.907v7.813m11.048-7.813v7.813m16.573-19.531v15.625m-5.524-15.625h11.048m-11.048-3.907v7.813m11.048-7.813v7.813m-11.048 11.719h11.048m-11.048-3.907v7.813m11.048-7.813v7.813m-27.621 19.531h22.097m-22.097-7.812v15.625m-5.524-15.625h11.048m-11.048-3.907v7.813m11.048-7.813v7.813m-11.048 11.719h11.048m-11.048-3.907v7.813m11.048-7.813v7.813m16.573-19.531v15.625m-5.524-15.625h11.048m-11.048-3.907v7.813m11.048-7.813v7.813m-11.048 11.719h11.048m-11.048-3.907v7.813m11.048-7.813v7.813m27.622-42.969v31.25m-11.049-31.25h22.097m-22.097-7.812v15.625m-5.524-15.625h11.048m-11.048-3.907v7.813m11.048-7.813v7.813m-11.048 11.719h11.048m-11.048-3.907v7.813m11.048-7.813v7.813m16.573-19.531v15.625m-5.524-15.625h11.049m-11.049-3.907v7.813m11.049-7.813v7.813m-11.049 11.719h11.049m-11.049-3.907v7.813m11.049-7.813v7.813m-27.622 19.531h22.097m-22.097-7.812v15.625m-5.524-15.625h11.048m-11.048-3.907v7.813m11.048-7.813v7.813m-11.048 11.719h11.048m-11.048-3.907v7.813m11.048-7.813v7.813m16.573-19.531v15.625m-5.524-15.625h11.049m-11.049-3.907v7.813m11.049-7.813v7.813m-11.049 11.719h11.049m-11.049-3.907v7.813m11.049-7.813v7.813m-60.767 35.156h44.194m-44.194-15.625v31.25m-11.049-31.25h22.097m-22.097-7.812v15.625m-5.524-15.625h11.048m-11.048-3.907v7.813m11.048-7.813v7.813m-11.048 11.719h11.048m-11.048-3.907v7.813m11.048-7.813v7.813m16.573-19.531v15.625m-5.524-15.625h11.048m-11.048-3.907v7.813m11.048-7.813v7.813m-11.048 11.719h11.048m-11.048-3.907v7.813m11.048-7.813v7.813m-27.621 19.531h22.097m-22.097-7.812v15.625m-5.524-15.625h11.048m-11.048-3.907v7.813m11.048-7.813v7.813m-11.048 11.719h11.048m-11.048-3.907v7.813m11.048-7.813v7.813m16.573-19.531v15.625m-5.524-15.625h11.048m-11.048-3.907v7.813m11.048-7.813v7.813m-11.048 11.719h11.048m-11.048-3.907v7.813m11.048-7.813v7.813m27.622-42.969v31.25m-11.049-31.25h22.097m-22.097-7.812v15.625m-5.524-15.625h11.048m-11.048-3.907v7.813m11.048-7.813v7.813m-11.048 11.719h11.048m-11.048-3.907v7.813m11.048-7.813v7.813m16.573-19.531v15.625m-5.524-15.625h11.049m-11.049-3.907v7.813m11.049-7.813v7.813m-11.049 11.719h11.049m-11.049-3.907v7.813m11.049-7.813v7.813m-27.622 19.531h22.097m-22.097-7.812v15.625m-5.524-15.625h11.048m-11.048-3.907v7.813m11.048-7.813v7.813m-11.048 11.719h11.048m-11.048-3.907v7.813m11.048-7.813v7.813m16.573-19.531v15.625m-5.524-15.625h11.049m-11.049-3.907v7.813m11.049-7.813v7.813m-11.049 11.719h11.049m-11.049-3.907v7.813m11.049-7.813v7.813m49.718-89.844v62.5m-22.097-62.5h44.194m-44.194-15.625v31.25m-11.049-31.25h22.097m-22.097-7.812v15.625m-5.524-15.625h11.049m-11.049-3.907v7.813m11.049-7.813v7.813m-11.049 11.719h11.049m-11.049-3.907v7.813m11.049-7.813v7.813m16.572-19.531v15.625m-5.524-15.625h11.049m-11.049-3.907v7.813m11.049-7.813v7.813m-11.049 11.719h11.049m-11.049-3.907v7.813m11.049-7.813v7.813m-27.622 19.531h22.097m-22.097-7.812v15.625m-5.524-15.625h11.049m-11.049-3.907v7.813m11.049-7.813v7.813m-11.049 11.719h11.049m-11.049-3.907v7.813m11.049-7.813v7.813m16.572-19.531v15.625m-5.524-15.625h11.049m-11.049-3.907v7.813m11.049-7.813v7.813m-11.049 11.719h11.049m-11.049-3.907v7.813m11.049-7.813v7.813m27.621-42.969v31.25m-11.048-31.25h22.097m-22.097-7.812v15.625m-5.525-15.625h11.049m-11.049-3.907v7.813m11.049-7.813v7.813m-11.049 11.719h11.049m-11.049-3.907v7.813m11.049-7.813v7.813m16.573-19.531v15.625m-5.525-15.625h11.049m-11.049-3.907v7.813m11.049-7.813v7.813m-11.049 11.719h11.049m-11.049-3.907v7.813m11.049-7.813v7.813m-27.621 19.531h22.097m-22.097-7.812v15.625m-5.525-15.625h11.049m-11.049-3.907v7.813m11.049-7.813v7.813m-11.049 11.719h11.049m-11.049-3.907v7.813m11.049-7.813v7.813m16.573-19.531v15.625m-5.525-15.625h11.049m-11.049-3.907v7.813m11.049-7.813v7.813m-11.049 11.719h11.049m-11.049-3.907v7.813m11.049-7.813v7.813m-60.767 35.156h44.194m-44.194-15.625v31.25m-11.049-31.25h22.097m-22.097-7.812v15.625m-5.524-15.625h11.049m-11.049-3.907v7.813m11.049-7.813v7.813m-11.049 11.719h11.049m-11.049-3.907v7.813m11.049-7.813v7.813m16.572-19.531v15.625m-5.524-15.625h11.049m-11.049-3.907v7.813m11.049-7.813v7.813m-11.049 11.719h11.049m-11.049-3.907v7.813m11.049-7.813v7.813m-27.622 19.531h22.097m-22.097-7.812v15.625m-5.524-15.625h11.049m-11.049-3.907v7.813m11.049-7.813v7.813m-11.049 11.719h11.049m-11.049-3.907v7.813m11.049-7.813v7.813m16.572-19.531v15.625m-5.524-15.625h11.049m-11.049-3.907v7.813m11.049-7.813v7.813m-11.049 11.719h11.049m-11.049-3.907v7.813m11.049-7.813v7.813m27.621-42.969v31.25m-11.048-31.25h22.097m-22.097-7.812v15.625m-5.525-15.625h11.049m-11.049-3.907v7.813m11.049-7.813v7.813m-11.049 11.719h11.049m-11.049-3.907v7.813m11.049-7.813v7.813m16.573-19.531v15.625m-5.525-15.625h11.049m-11.049-3.907v7.813m11.049-7.813v7.813m-11.049 11.719h11.049m-11.049-3.907v7.813m11.049-7.813v7.813m-27.621 19.531h22.097m-22.097-7.812v15.625m-5.525-15.625h11.049m-11.049-3.907v7.813m11.049-7.813v7.813m-11.049 11.719h11.049m-11.049-3.907v7.813m11.049-7.813v7.813m16.573-19.531v15.625m-5.525-15.625h11.049m-11.049-3.907v7.813m11.049-7.813v7.813m-11.049 11.719h11.049m-11.049-3.907v7.813m11.049-7.813v7.813M618.718 62.5v125m-44.194-125h88.389m-88.389-31.25v62.5m-22.097-62.5h44.194m-44.194-15.625v31.25m-11.048-31.25h22.097m-22.097-7.812v15.625m-5.525-15.625h11.049m-11.049-3.907v7.813m11.049-7.813v7.813m-11.049 11.719h11.049m-11.049-3.907v7.813m11.049-7.813v7.813m16.573-19.531v15.625m-5.525-15.625H569m-11.049-3.907v7.813M569 3.906v7.813m-11.049 11.719H569m-11.049-3.907v7.813M569 19.531v7.813m-27.621 19.531h22.097m-22.097-7.812v15.625m-5.525-15.625h11.049m-11.049-3.907v7.813m11.049-7.813v7.813m-11.049 11.719h11.049m-11.049-3.907v7.813m11.049-7.813v7.813m16.573-19.531v15.625m-5.525-15.625H569m-11.049-3.907v7.813M569 35.156v7.813m-11.049 11.719H569m-11.049-3.907v7.813M569 50.781v7.813m27.621-42.969v31.25m-11.048-31.25h22.097m-22.097-7.812v15.625m-5.525-15.625h11.049m-11.049-3.907v7.813m11.049-7.813v7.813m-11.049 11.719h11.049m-11.049-3.907v7.813m11.049-7.813v7.813M607.67 7.813v15.625m-5.524-15.625h11.048m-11.048-3.907v7.813m11.048-7.813v7.813m-11.048 11.719h11.048m-11.048-3.907v7.813m11.048-7.813v7.813m-27.621 19.531h22.097m-22.097-7.812v15.625m-5.525-15.625h11.049m-11.049-3.907v7.813m11.049-7.813v7.813m-11.049 11.719h11.049m-11.049-3.907v7.813m11.049-7.813v7.813m16.573-19.531v15.625m-5.524-15.625h11.048m-11.048-3.907v7.813m11.048-7.813v7.813m-11.048 11.719h11.048m-11.048-3.907v7.813m11.048-7.813v7.813M552.427 93.75h44.194m-44.194-15.625v31.25m-11.048-31.25h22.097m-22.097-7.812v15.625m-5.525-15.625h11.049m-11.049-3.907v7.813m11.049-7.813v7.813m-11.049 11.719h11.049m-11.049-3.907v7.813m11.049-7.813v7.813m16.573-19.531v15.625m-5.525-15.625H569m-11.049-3.907v7.813M569 66.406v7.813m-11.049 11.719H569m-11.049-3.907v7.813M569 82.031v7.813m-27.621 19.531h22.097m-22.097-7.812v15.625m-5.525-15.625h11.049m-11.049-3.907v7.813m11.049-7.813v7.813m-11.049 11.719h11.049m-11.049-3.907v7.813m11.049-7.813v7.813m16.573-19.531v15.625m-5.525-15.625H569m-11.049-3.907v7.813M569 97.656v7.813m-11.049 11.719H569m-11.049-3.907v7.813M569 113.281v7.813m27.621-42.969v31.25m-11.048-31.25h22.097m-22.097-7.812v15.625m-5.525-15.625h11.049m-11.049-3.907v7.813m11.049-7.813v7.813m-11.049 11.719h11.049m-11.049-3.907v7.813m11.049-7.813v7.813m16.573-19.531v15.625m-5.524-15.625h11.048m-11.048-3.907v7.813m11.048-7.813v7.813m-11.048 11.719h11.048m-11.048-3.907v7.813m11.048-7.813v7.813m-27.621 19.531h22.097m-22.097-7.812v15.625m-5.525-15.625h11.049m-11.049-3.907v7.813m11.049-7.813v7.813m-11.049 11.719h11.049m-11.049-3.907v7.813m11.049-7.813v7.813m16.573-19.531v15.625m-5.524-15.625h11.048m-11.048-3.907v7.813m11.048-7.813v7.813m-11.048 11.719h11.048m-11.048-3.907v7.813m11.048-7.813v7.813m49.719-89.844v62.5m-22.097-62.5h44.194m-44.194-15.625v31.25m-11.049-31.25h22.097m-22.097-7.812v15.625m-5.524-15.625h11.048m-11.048-3.907v7.813m11.048-7.813v7.813m-11.048 11.719h11.048m-11.048-3.907v7.813m11.048-7.813v7.813m16.573-19.531v15.625M646.34 7.813h11.048M646.34 3.906v7.813m11.048-7.813v7.813M646.34 23.438h11.048m-11.048-3.907v7.813m11.048-7.813v7.813m-27.621 19.531h22.097m-22.097-7.812v15.625m-5.524-15.625h11.048m-11.048-3.907v7.813m11.048-7.813v7.813m-11.048 11.719h11.048m-11.048-3.907v7.813m11.048-7.813v7.813m16.573-19.531v15.625m-5.524-15.625h11.048m-11.048-3.907v7.813m11.048-7.813v7.813M646.34 54.688h11.048m-11.048-3.907v7.813m11.048-7.813v7.813m27.622-42.969v31.25m-11.049-31.25h22.097m-22.097-7.812v15.625m-5.524-15.625h11.048m-11.048-3.907v7.813m11.048-7.813v7.813m-11.048 11.719h11.048m-11.048-3.907v7.813m11.048-7.813v7.813m16.573-19.531v15.625m-5.524-15.625h11.048m-11.048-3.907v7.813m11.048-7.813v7.813m-11.048 11.719h11.048m-11.048-3.907v7.813m11.048-7.813v7.813m-27.621 19.531h22.097m-22.097-7.812v15.625m-5.524-15.625h11.048m-11.048-3.907v7.813m11.048-7.813v7.813m-11.048 11.719h11.048m-11.048-3.907v7.813m11.048-7.813v7.813m16.573-19.531v15.625m-5.524-15.625h11.048m-11.048-3.907v7.813m11.048-7.813v7.813m-11.048 11.719h11.048m-11.048-3.907v7.813m11.048-7.813v7.813M640.816 93.75h44.194m-44.194-15.625v31.25m-11.049-31.25h22.097m-22.097-7.812v15.625m-5.524-15.625h11.048m-11.048-3.907v7.813m11.048-7.813v7.813m-11.048 11.719h11.048m-11.048-3.907v7.813m11.048-7.813v7.813m16.573-19.531v15.625m-5.524-15.625h11.048m-11.048-3.907v7.813m11.048-7.813v7.813M646.34 85.938h11.048m-11.048-3.907v7.813m11.048-7.813v7.813m-27.621 19.531h22.097m-22.097-7.812v15.625m-5.524-15.625h11.048m-11.048-3.907v7.813m11.048-7.813v7.813m-11.048 11.719h11.048m-11.048-3.907v7.813m11.048-7.813v7.813m16.573-19.531v15.625m-5.524-15.625h11.048m-11.048-3.907v7.813m11.048-7.813v7.813m-11.048 11.719h11.048m-11.048-3.907v7.813m11.048-7.813v7.813m27.622-42.969v31.25m-11.049-31.25h22.097m-22.097-7.812v15.625m-5.524-15.625h11.048m-11.048-3.907v7.813m11.048-7.813v7.813m-11.048 11.719h11.048m-11.048-3.907v7.813m11.048-7.813v7.813m16.573-19.531v15.625m-5.524-15.625h11.048m-11.048-3.907v7.813m11.048-7.813v7.813m-11.048 11.719h11.048m-11.048-3.907v7.813m11.048-7.813v7.813m-27.621 19.531h22.097m-22.097-7.812v15.625m-5.524-15.625h11.048m-11.048-3.907v7.813m11.048-7.813v7.813m-11.048 11.719h11.048m-11.048-3.907v7.813m11.048-7.813v7.813m16.573-19.531v15.625m-5.524-15.625h11.048m-11.048-3.907v7.813m11.048-7.813v7.813m-11.048 11.719h11.048m-11.048-3.907v7.813m11.048-7.813v7.813M574.524 187.5h88.389m-88.389-31.25v62.5m-22.097-62.5h44.194m-44.194-15.625v31.25m-11.048-31.25h22.097m-22.097-7.812v15.625m-5.525-15.625h11.049m-11.049-3.907v7.813m11.049-7.813v7.813m-11.049 11.719h11.049m-11.049-3.907v7.813m11.049-7.813v7.813m16.573-19.531v15.625m-5.525-15.625H569m-11.049-3.907v7.813M569 128.906v7.813m-11.049 11.719H569m-11.049-3.907v7.813M569 144.531v7.813m-27.621 19.531h22.097m-22.097-7.812v15.625m-5.525-15.625h11.049m-11.049-3.907v7.813m11.049-7.813v7.813m-11.049 11.719h11.049m-11.049-3.907v7.813m11.049-7.813v7.813m16.573-19.531v15.625m-5.525-15.625H569m-11.049-3.907v7.813M569 160.156v7.813m-11.049 11.719H569m-11.049-3.907v7.813M569 175.781v7.813m27.621-42.969v31.25m-11.048-31.25h22.097m-22.097-7.812v15.625m-5.525-15.625h11.049m-11.049-3.907v7.813m11.049-7.813v7.813m-11.049 11.719h11.049m-11.049-3.907v7.813m11.049-7.813v7.813m16.573-19.531v15.625m-5.524-15.625h11.048m-11.048-3.907v7.813m11.048-7.813v7.813m-11.048 11.719h11.048m-11.048-3.907v7.813m11.048-7.813v7.813m-27.621 19.531h22.097m-22.097-7.812v15.625m-5.525-15.625h11.049m-11.049-3.907v7.813m11.049-7.813v7.813m-11.049 11.719h11.049m-11.049-3.907v7.813m11.049-7.813v7.813m16.573-19.531v15.625m-5.524-15.625h11.048m-11.048-3.907v7.813m11.048-7.813v7.813m-11.048 11.719h11.048m-11.048-3.907v7.813m11.048-7.813v7.813m-60.767 35.156h44.194m-44.194-15.625v31.25m-11.048-31.25h22.097m-22.097-7.812v15.625m-5.525-15.625h11.049m-11.049-3.907v7.813m11.049-7.813v7.813m-11.049 11.719h11.049m-11.049-3.907v7.813m11.049-7.813v7.813m16.573-19.531v15.625m-5.525-15.625H569m-11.049-3.907v7.813M569 191.406v7.813m-11.049 11.719H569m-11.049-3.907v7.813M569 207.031v7.813m-27.621 19.531h22.097m-22.097-7.812v15.625m-5.525-15.625h11.049m-11.049-3.907v7.813m11.049-7.813v7.813m-11.049 11.719h11.049m-11.049-3.907v7.813m11.049-7.813v7.813m16.573-19.531v15.625m-5.525-15.625H569m-11.049-3.907v7.813M569 222.656v7.813m-11.049 11.719H569m-11.049-3.907v7.813M569 238.281v7.813m27.621-42.969v31.25m-11.048-31.25h22.097m-22.097-7.812v15.625m-5.525-15.625h11.049m-11.049-3.907v7.813m11.049-7.813v7.813m-11.049 11.719h11.049m-11.049-3.907v7.813m11.049-7.813v7.813m16.573-19.531v15.625m-5.524-15.625h11.048m-11.048-3.907v7.813m11.048-7.813v7.813m-11.048 11.719h11.048m-11.048-3.907v7.813m11.048-7.813v7.813m-27.621 19.531h22.097m-22.097-7.812v15.625m-5.525-15.625h11.049m-11.049-3.907v7.813m11.049-7.813v7.813m-11.049 11.719h11.049m-11.049-3.907v7.813m11.049-7.813v7.813m16.573-19.531v15.625m-5.524-15.625h11.048m-11.048-3.907v7.813m11.048-7.813v7.813m-11.048 11.719h11.048m-11.048-3.907v7.813m11.048-7.813v7.813m49.719-89.844v62.5m-22.097-62.5h44.194m-44.194-15.625v31.25m-11.049-31.25h22.097m-22.097-7.812v15.625m-5.524-15.625h11.048m-11.048-3.907v7.813m11.048-7.813v7.813m-11.048 11.719h11.048m-11.048-3.907v7.813m11.048-7.813v7.813m16.573-19.531v15.625m-5.524-15.625h11.048m-11.048-3.907v7.813m11.048-7.813v7.813m-11.048 11.719h11.048m-11.048-3.907v7.813m11.048-7.813v7.813m-27.621 19.531h22.097m-22.097-7.812v15.625m-5.524-15.625h11.048m-11.048-3.907v7.813m11.048-7.813v7.813m-11.048 11.719h11.048m-11.048-3.907v7.813m11.048-7.813v7.813m16.573-19.531v15.625m-5.524-15.625h11.048m-11.048-3.907v7.813m11.048-7.813v7.813m-11.048 11.719h11.048m-11.048-3.907v7.813m11.048-7.813v7.813m27.622-42.969v31.25m-11.049-31.25h22.097m-22.097-7.812v15.625m-5.524-15.625h11.048m-11.048-3.907v7.813m11.048-7.813v7.813m-11.048 11.719h11.048m-11.048-3.907v7.813m11.048-7.813v7.813m16.573-19.531v15.625m-5.524-15.625h11.048m-11.048-3.907v7.813m11.048-7.813v7.813m-11.048 11.719h11.048m-11.048-3.907v7.813m11.048-7.813v7.813m-27.621 19.531h22.097m-22.097-7.812v15.625m-5.524-15.625h11.048m-11.048-3.907v7.813m11.048-7.813v7.813m-11.048 11.719h11.048m-11.048-3.907v7.813m11.048-7.813v7.813m16.573-19.531v15.625m-5.524-15.625h11.048m-11.048-3.907v7.813m11.048-7.813v7.813m-11.048 11.719h11.048m-11.048-3.907v7.813m11.048-7.813v7.813m-60.766 35.156h44.194m-44.194-15.625v31.25m-11.049-31.25h22.097m-22.097-7.812v15.625m-5.524-15.625h11.048m-11.048-3.907v7.813m11.048-7.813v7.813m-11.048 11.719h11.048m-11.048-3.907v7.813m11.048-7.813v7.813m16.573-19.531v15.625m-5.524-15.625h11.048m-11.048-3.907v7.813m11.048-7.813v7.813m-11.048 11.719h11.048m-11.048-3.907v7.813m11.048-7.813v7.813m-27.621 19.531h22.097m-22.097-7.812v15.625m-5.524-15.625h11.048m-11.048-3.907v7.813m11.048-7.813v7.813m-11.048 11.719h11.048m-11.048-3.907v7.813m11.048-7.813v7.813m16.573-19.531v15.625m-5.524-15.625h11.048m-11.048-3.907v7.813m11.048-7.813v7.813m-11.048 11.719h11.048m-11.048-3.907v7.813m11.048-7.813v7.813m27.622-42.969v31.25m-11.049-31.25h22.097m-22.097-7.812v15.625m-5.524-15.625h11.048m-11.048-3.907v7.813m11.048-7.813v7.813m-11.048 11.719h11.048m-11.048-3.907v7.813m11.048-7.813v7.813m16.573-19.531v15.625m-5.524-15.625h11.048m-11.048-3.907v7.813m11.048-7.813v7.813m-11.048 11.719h11.048m-11.048-3.907v7.813m11.048-7.813v7.813m-27.621 19.531h22.097m-22.097-7.812v15.625m-5.524-15.625h11.048m-11.048-3.907v7.813m11.048-7.813v7.813m-11.048 11.719h11.048m-11.048-3.907v7.813m11.048-7.813v7.813m16.573-19.531v15.625m-5.524-15.625h11.048m-11.048-3.907v7.813m11.048-7.813v7.813m-11.048 11.719h11.048m-11.048-3.907v7.813m11.048-7.813v7.813M441.942 375h176.776m-176.776-62.5v125m-44.194-125h88.388m-88.388-31.25v62.5m-22.097-62.5h44.194m-44.194-15.625v31.25m-11.049-31.25h22.097m-22.097-7.812v15.625m-5.524-15.625h11.048m-11.048-3.907v7.813m11.048-7.813v7.813m-11.048 11.719h11.048m-11.048-3.907v7.813m11.048-7.813v7.813m16.573-19.531v15.625m-5.524-15.625h11.048m-11.048-3.907v7.813m11.048-7.813v7.813m-11.048 11.719h11.048m-11.048-3.907v7.813m11.048-7.813v7.813m-27.621 19.531h22.097m-22.097-7.812v15.625m-5.524-15.625h11.048m-11.048-3.907v7.813m11.048-7.813v7.813m-11.048 11.719h11.048m-11.048-3.907v7.813m11.048-7.813v7.813m16.573-19.531v15.625m-5.524-15.625h11.048m-11.048-3.907v7.813m11.048-7.813v7.813m-11.048 11.719h11.048m-11.048-3.907v7.813m11.048-7.813v7.813m27.622-42.969v31.25m-11.049-31.25h22.097m-22.097-7.812v15.625m-5.524-15.625h11.048m-11.048-3.907v7.813m11.048-7.813v7.813m-11.048 11.719h11.048m-11.048-3.907v7.813m11.048-7.813v7.813m16.573-19.531v15.625m-5.524-15.625h11.049m-11.049-3.907v7.813m11.049-7.813v7.813m-11.049 11.719h11.049m-11.049-3.907v7.813m11.049-7.813v7.813m-27.622 19.531h22.097m-22.097-7.812v15.625m-5.524-15.625h11.048m-11.048-3.907v7.813m11.048-7.813v7.813m-11.048 11.719h11.048m-11.048-3.907v7.813m11.048-7.813v7.813m16.573-19.531v15.625m-5.524-15.625h11.049m-11.049-3.907v7.813m11.049-7.813v7.813m-11.049 11.719h11.049m-11.049-3.907v7.813m11.049-7.813v7.813m-60.767 35.156h44.194m-44.194-15.625v31.25m-11.049-31.25h22.097m-22.097-7.812v15.625m-5.524-15.625h11.048m-11.048-3.907v7.813m11.048-7.813v7.813m-11.048 11.719h11.048m-11.048-3.907v7.813m11.048-7.813v7.813m16.573-19.531v15.625m-5.524-15.625h11.048m-11.048-3.907v7.813m11.048-7.813v7.813m-11.048 11.719h11.048m-11.048-3.907v7.813m11.048-7.813v7.813m-27.621 19.531h22.097m-22.097-7.812v15.625m-5.524-15.625h11.048m-11.048-3.907v7.813m11.048-7.813v7.813m-11.048 11.719h11.048m-11.048-3.907v7.813m11.048-7.813v7.813m16.573-19.531v15.625m-5.524-15.625h11.048m-11.048-3.907v7.813m11.048-7.813v7.813m-11.048 11.719h11.048m-11.048-3.907v7.813m11.048-7.813v7.813m27.622-42.969v31.25m-11.049-31.25h22.097m-22.097-7.812v15.625m-5.524-15.625h11.048m-11.048-3.907v7.813m11.048-7.813v7.813m-11.048 11.719h11.048m-11.048-3.907v7.813m11.048-7.813v7.813m16.573-19.531v15.625m-5.524-15.625h11.049m-11.049-3.907v7.813m11.049-7.813v7.813m-11.049 11.719h11.049m-11.049-3.907v7.813m11.049-7.813v7.813m-27.622 19.531h22.097m-22.097-7.812v15.625m-5.524-15.625h11.048m-11.048-3.907v7.813m11.048-7.813v7.813m-11.048 11.719h11.048m-11.048-3.907v7.813m11.048-7.813v7.813m16.573-19.531v15.625m-5.524-15.625h11.049m-11.049-3.907v7.813m11.049-7.813v7.813m-11.049 11.719h11.049m-11.049-3.907v7.813m11.049-7.813v7.813m49.718-89.844v62.5m-22.097-62.5h44.194m-44.194-15.625v31.25m-11.049-31.25h22.097m-22.097-7.812v15.625m-5.524-15.625h11.049m-11.049-3.907v7.813m11.049-7.813v7.813m-11.049 11.719h11.049m-11.049-3.907v7.813m11.049-7.813v7.813m16.572-19.531v15.625m-5.524-15.625h11.049m-11.049-3.907v7.813m11.049-7.813v7.813m-11.049 11.719h11.049m-11.049-3.907v7.813m11.049-7.813v7.813m-27.622 19.531h22.097m-22.097-7.812v15.625m-5.524-15.625h11.049m-11.049-3.907v7.813m11.049-7.813v7.813m-11.049 11.719h11.049m-11.049-3.907v7.813m11.049-7.813v7.813m16.572-19.531v15.625m-5.524-15.625h11.049m-11.049-3.907v7.813m11.049-7.813v7.813m-11.049 11.719h11.049m-11.049-3.907v7.813m11.049-7.813v7.813m27.621-42.969v31.25m-11.048-31.25h22.097m-22.097-7.812v15.625m-5.525-15.625h11.049m-11.049-3.907v7.813m11.049-7.813v7.813m-11.049 11.719h11.049m-11.049-3.907v7.813m11.049-7.813v7.813m16.573-19.531v15.625m-5.525-15.625h11.049m-11.049-3.907v7.813m11.049-7.813v7.813m-11.049 11.719h11.049m-11.049-3.907v7.813m11.049-7.813v7.813m-27.621 19.531h22.097m-22.097-7.812v15.625m-5.525-15.625h11.049m-11.049-3.907v7.813m11.049-7.813v7.813m-11.049 11.719h11.049m-11.049-3.907v7.813m11.049-7.813v7.813m16.573-19.531v15.625m-5.525-15.625h11.049m-11.049-3.907v7.813m11.049-7.813v7.813m-11.049 11.719h11.049m-11.049-3.907v7.813m11.049-7.813v7.813m-60.767 35.156h44.194m-44.194-15.625v31.25m-11.049-31.25h22.097m-22.097-7.812v15.625m-5.524-15.625h11.049m-11.049-3.907v7.813m11.049-7.813v7.813m-11.049 11.719h11.049m-11.049-3.907v7.813m11.049-7.813v7.813m16.572-19.531v15.625m-5.524-15.625h11.049m-11.049-3.907v7.813m11.049-7.813v7.813m-11.049 11.719h11.049m-11.049-3.907v7.813m11.049-7.813v7.813m-27.622 19.531h22.097m-22.097-7.812v15.625m-5.524-15.625h11.049m-11.049-3.907v7.813m11.049-7.813v7.813m-11.049 11.719h11.049m-11.049-3.907v7.813m11.049-7.813v7.813m16.572-19.531v15.625m-5.524-15.625h11.049m-11.049-3.907v7.813m11.049-7.813v7.813m-11.049 11.719h11.049m-11.049-3.907v7.813m11.049-7.813v7.813m27.621-42.969v31.25m-11.048-31.25h22.097m-22.097-7.812v15.625m-5.525-15.625h11.049m-11.049-3.907v7.813m11.049-7.813v7.813m-11.049 11.719h11.049m-11.049-3.907v7.813m11.049-7.813v7.813m16.573-19.531v15.625m-5.525-15.625h11.049m-11.049-3.907v7.813m11.049-7.813v7.813m-11.049 11.719h11.049m-11.049-3.907v7.813m11.049-7.813v7.813m-27.621 19.531h22.097m-22.097-7.812v15.625m-5.525-15.625h11.049m-11.049-3.907v7.813m11.049-7.813v7.813m-11.049 11.719h11.049m-11.049-3.907v7.813m11.049-7.813v7.813m16.573-19.531v15.625m-5.525-15.625h11.049m-11.049-3.907v7.813m11.049-7.813v7.813m-11.049 11.719h11.049m-11.049-3.907v7.813m11.049-7.813v7.813M397.748 437.5h88.388m-88.388-31.25v62.5m-22.097-62.5h44.194m-44.194-15.625v31.25m-11.049-31.25h22.097m-22.097-7.812v15.625m-5.524-15.625h11.048m-11.048-3.907v7.813m11.048-7.813v7.813m-11.048 11.719h11.048m-11.048-3.907v7.813m11.048-7.813v7.813m16.573-19.531v15.625m-5.524-15.625h11.048m-11.048-3.907v7.813m11.048-7.813v7.813m-11.048 11.719h11.048m-11.048-3.907v7.813m11.048-7.813v7.813m-27.621 19.531h22.097m-22.097-7.812v15.625m-5.524-15.625h11.048m-11.048-3.907v7.813m11.048-7.813v7.813m-11.048 11.719h11.048m-11.048-3.907v7.813m11.048-7.813v7.813m16.573-19.531v15.625m-5.524-15.625h11.048m-11.048-3.907v7.813m11.048-7.813v7.813m-11.048 11.719h11.048m-11.048-3.907v7.813m11.048-7.813v7.813m27.622-42.969v31.25m-11.049-31.25h22.097m-22.097-7.812v15.625m-5.524-15.625h11.048m-11.048-3.907v7.813m11.048-7.813v7.813m-11.048 11.719h11.048m-11.048-3.907v7.813m11.048-7.813v7.813m16.573-19.531v15.625m-5.524-15.625h11.049m-11.049-3.907v7.813m11.049-7.813v7.813m-11.049 11.719h11.049m-11.049-3.907v7.813m11.049-7.813v7.813m-27.622 19.531h22.097m-22.097-7.812v15.625m-5.524-15.625h11.048m-11.048-3.907v7.813m11.048-7.813v7.813m-11.048 11.719h11.048m-11.048-3.907v7.813m11.048-7.813v7.813m16.573-19.531v15.625m-5.524-15.625h11.049m-11.049-3.907v7.813m11.049-7.813v7.813m-11.049 11.719h11.049m-11.049-3.907v7.813m11.049-7.813v7.813m-60.767 35.156h44.194m-44.194-15.625v31.25m-11.049-31.25h22.097m-22.097-7.812v15.625m-5.524-15.625h11.048m-11.048-3.907v7.813m11.048-7.813v7.813m-11.048 11.719h11.048m-11.048-3.907v7.813m11.048-7.813v7.813m16.573-19.531v15.625m-5.524-15.625h11.048m-11.048-3.907v7.813m11.048-7.813v7.813m-11.048 11.719h11.048m-11.048-3.907v7.813m11.048-7.813v7.813m-27.621 19.531h22.097m-22.097-7.812v15.625m-5.524-15.625h11.048m-11.048-3.907v7.813m11.048-7.813v7.813m-11.048 11.719h11.048m-11.048-3.907v7.813m11.048-7.813v7.813m16.573-19.531v15.625m-5.524-15.625h11.048m-11.048-3.907v7.813m11.048-7.813v7.813m-11.048 11.719h11.048m-11.048-3.907v7.813m11.048-7.813v7.813m27.622-42.969v31.25m-11.049-31.25h22.097m-22.097-7.812v15.625m-5.524-15.625h11.048m-11.048-3.907v7.813m11.048-7.813v7.813m-11.048 11.719h11.048m-11.048-3.907v7.813m11.048-7.813v7.813m16.573-19.531v15.625m-5.524-15.625h11.049m-11.049-3.907v7.813m11.049-7.813v7.813m-11.049 11.719h11.049m-11.049-3.907v7.813m11.049-7.813v7.813m-27.622 19.531h22.097m-22.097-7.812v15.625m-5.524-15.625h11.048m-11.048-3.907v7.813m11.048-7.813v7.813m-11.048 11.719h11.048m-11.048-3.907v7.813m11.048-7.813v7.813m16.573-19.531v15.625m-5.524-15.625h11.049m-11.049-3.907v7.813m11.049-7.813v7.813m-11.049 11.719h11.049m-11.049-3.907v7.813m11.049-7.813v7.813m49.718-89.844v62.5m-22.097-62.5h44.194m-44.194-15.625v31.25m-11.049-31.25h22.097m-22.097-7.812v15.625m-5.524-15.625h11.049m-11.049-3.907v7.813m11.049-7.813v7.813m-11.049 11.719h11.049m-11.049-3.907v7.813m11.049-7.813v7.813m16.572-19.531v15.625m-5.524-15.625h11.049m-11.049-3.907v7.813m11.049-7.813v7.813m-11.049 11.719h11.049m-11.049-3.907v7.813m11.049-7.813v7.813m-27.622 19.531h22.097m-22.097-7.812v15.625m-5.524-15.625h11.049m-11.049-3.907v7.813m11.049-7.813v7.813m-11.049 11.719h11.049m-11.049-3.907v7.813m11.049-7.813v7.813m16.572-19.531v15.625m-5.524-15.625h11.049m-11.049-3.907v7.813m11.049-7.813v7.813m-11.049 11.719h11.049m-11.049-3.907v7.813m11.049-7.813v7.813m27.621-42.969v31.25m-11.048-31.25h22.097m-22.097-7.812v15.625m-5.525-15.625h11.049m-11.049-3.907v7.813m11.049-7.813v7.813m-11.049 11.719h11.049m-11.049-3.907v7.813m11.049-7.813v7.813m16.573-19.531v15.625m-5.525-15.625h11.049m-11.049-3.907v7.813m11.049-7.813v7.813m-11.049 11.719h11.049m-11.049-3.907v7.813m11.049-7.813v7.813m-27.621 19.531h22.097m-22.097-7.812v15.625m-5.525-15.625h11.049m-11.049-3.907v7.813m11.049-7.813v7.813m-11.049 11.719h11.049m-11.049-3.907v7.813m11.049-7.813v7.813m16.573-19.531v15.625m-5.525-15.625h11.049m-11.049-3.907v7.813m11.049-7.813v7.813m-11.049 11.719h11.049m-11.049-3.907v7.813m11.049-7.813v7.813m-60.767 35.156h44.194m-44.194-15.625v31.25m-11.049-31.25h22.097m-22.097-7.812v15.625m-5.524-15.625h11.049m-11.049-3.907v7.813m11.049-7.813v7.813m-11.049 11.719h11.049m-11.049-3.907v7.813m11.049-7.813v7.813m16.572-19.531v15.625m-5.524-15.625h11.049m-11.049-3.907v7.813m11.049-7.813v7.813m-11.049 11.719h11.049m-11.049-3.907v7.813m11.049-7.813v7.813m-27.622 19.531h22.097m-22.097-7.812v15.625m-5.524-15.625h11.049m-11.049-3.907v7.813m11.049-7.813v7.813m-11.049 11.719h11.049m-11.049-3.907v7.813m11.049-7.813v7.813m16.572-19.531v15.625m-5.524-15.625h11.049m-11.049-3.907v7.813m11.049-7.813v7.813m-11.049 11.719h11.049m-11.049-3.907v7.813m11.049-7.813v7.813m27.621-42.969v31.25m-11.048-31.25h22.097m-22.097-7.812v15.625m-5.525-15.625h11.049m-11.049-3.907v7.813m11.049-7.813v7.813m-11.049 11.719h11.049m-11.049-3.907v7.813m11.049-7.813v7.813m16.573-19.531v15.625m-5.525-15.625h11.049m-11.049-3.907v7.813m11.049-7.813v7.813m-11.049 11.719h11.049m-11.049-3.907v7.813m11.049-7.813v7.813m-27.621 19.531h22.097m-22.097-7.812v15.625m-5.525-15.625h11.049m-11.049-3.907v7.813m11.049-7.813v7.813m-11.049 11.719h11.049m-11.049-3.907v7.813m11.049-7.813v7.813m16.573-19.531v15.625m-5.525-15.625h11.049m-11.049-3.907v7.813m11.049-7.813v7.813m-11.049 11.719h11.049m-11.049-3.907v7.813m11.049-7.813v7.813M618.718 312.5v125m-44.194-125h88.389m-88.389-31.25v62.5m-22.097-62.5h44.194m-44.194-15.625v31.25m-11.048-31.25h22.097m-22.097-7.812v15.625m-5.525-15.625h11.049m-11.049-3.907v7.813m11.049-7.813v7.813m-11.049 11.719h11.049m-11.049-3.907v7.813m11.049-7.813v7.813m16.573-19.531v15.625m-5.525-15.625H569m-11.049-3.907v7.813M569 253.906v7.813m-11.049 11.719H569m-11.049-3.907v7.813M569 269.531v7.813m-27.621 19.531h22.097m-22.097-7.812v15.625m-5.525-15.625h11.049m-11.049-3.907v7.813m11.049-7.813v7.813m-11.049 11.719h11.049m-11.049-3.907v7.813m11.049-7.813v7.813m16.573-19.531v15.625m-5.525-15.625H569m-11.049-3.907v7.813M569 285.156v7.813m-11.049 11.719H569m-11.049-3.907v7.813M569 300.781v7.813m27.621-42.969v31.25m-11.048-31.25h22.097m-22.097-7.812v15.625m-5.525-15.625h11.049m-11.049-3.907v7.813m11.049-7.813v7.813m-11.049 11.719h11.049m-11.049-3.907v7.813m11.049-7.813v7.813m16.573-19.531v15.625m-5.524-15.625h11.048m-11.048-3.907v7.813m11.048-7.813v7.813m-11.048 11.719h11.048m-11.048-3.907v7.813m11.048-7.813v7.813m-27.621 19.531h22.097m-22.097-7.812v15.625m-5.525-15.625h11.049m-11.049-3.907v7.813m11.049-7.813v7.813m-11.049 11.719h11.049m-11.049-3.907v7.813m11.049-7.813v7.813m16.573-19.531v15.625m-5.524-15.625h11.048m-11.048-3.907v7.813m11.048-7.813v7.813m-11.048 11.719h11.048m-11.048-3.907v7.813m11.048-7.813v7.813m-60.767 35.156h44.194m-44.194-15.625v31.25m-11.048-31.25h22.097m-22.097-7.812v15.625m-5.525-15.625h11.049m-11.049-3.907v7.813m11.049-7.813v7.813m-11.049 11.719h11.049m-11.049-3.907v7.813m11.049-7.813v7.813m16.573-19.531v15.625m-5.525-15.625H569m-11.049-3.907v7.813M569 316.406v7.813m-11.049 11.719H569m-11.049-3.907v7.813M569 332.031v7.813m-27.621 19.531h22.097m-22.097-7.812v15.625m-5.525-15.625h11.049m-11.049-3.907v7.813m11.049-7.813v7.813m-11.049 11.719h11.049m-11.049-3.907v7.813m11.049-7.813v7.813m16.573-19.531v15.625m-5.525-15.625H569m-11.049-3.907v7.813M569 347.656v7.813m-11.049 11.719H569m-11.049-3.907v7.813M569 363.281v7.813m27.621-42.969v31.25m-11.048-31.25h22.097m-22.097-7.812v15.625m-5.525-15.625h11.049m-11.049-3.907v7.813m11.049-7.813v7.813m-11.049 11.719h11.049m-11.049-3.907v7.813m11.049-7.813v7.813m16.573-19.531v15.625m-5.524-15.625h11.048m-11.048-3.907v7.813m11.048-7.813v7.813m-11.048 11.719h11.048m-11.048-3.907v7.813m11.048-7.813v7.813m-27.621 19.531h22.097m-22.097-7.812v15.625m-5.525-15.625h11.049m-11.049-3.907v7.813m11.049-7.813v7.813m-11.049 11.719h11.049m-11.049-3.907v7.813m11.049-7.813v7.813m16.573-19.531v15.625m-5.524-15.625h11.048m-11.048-3.907v7.813m11.048-7.813v7.813m-11.048 11.719h11.048m-11.048-3.907v7.813m11.048-7.813v7.813m49.719-89.844v62.5m-22.097-62.5h44.194m-44.194-15.625v31.25m-11.049-31.25h22.097m-22.097-7.812v15.625m-5.524-15.625h11.048m-11.048-3.907v7.813m11.048-7.813v7.813m-11.048 11.719h11.048m-11.048-3.907v7.813m11.048-7.813v7.813m16.573-19.531v15.625m-5.524-15.625h11.048m-11.048-3.907v7.813m11.048-7.813v7.813m-11.048 11.719h11.048m-11.048-3.907v7.813m11.048-7.813v7.813m-27.621 19.531h22.097m-22.097-7.812v15.625m-5.524-15.625h11.048m-11.048-3.907v7.813m11.048-7.813v7.813m-11.048 11.719h11.048m-11.048-3.907v7.813m11.048-7.813v7.813m16.573-19.531v15.625m-5.524-15.625h11.048m-11.048-3.907v7.813m11.048-7.813v7.813m-11.048 11.719h11.048m-11.048-3.907v7.813m11.048-7.813v7.813m27.622-42.969v31.25m-11.049-31.25h22.097m-22.097-7.812v15.625m-5.524-15.625h11.048m-11.048-3.907v7.813m11.048-7.813v7.813m-11.048 11.719h11.048m-11.048-3.907v7.813m11.048-7.813v7.813m16.573-19.531v15.625m-5.524-15.625h11.048m-11.048-3.907v7.813m11.048-7.813v7.813m-11.048 11.719h11.048m-11.048-3.907v7.813m11.048-7.813v7.813m-27.621 19.531h22.097m-22.097-7.812v15.625m-5.524-15.625h11.048m-11.048-3.907v7.813m11.048-7.813v7.813m-11.048 11.719h11.048m-11.048-3.907v7.813m11.048-7.813v7.813m16.573-19.531v15.625m-5.524-15.625h11.048m-11.048-3.907v7.813m11.048-7.813v7.813m-11.048 11.719h11.048m-11.048-3.907v7.813m11.048-7.813v7.813m-60.766 35.156h44.194m-44.194-15.625v31.25m-11.049-31.25h22.097m-22.097-7.812v15.625m-5.524-15.625h11.048m-11.048-3.907v7.813m11.048-7.813v7.813m-11.048 11.719h11.048m-11.048-3.907v7.813m11.048-7.813v7.813m16.573-19.531v15.625m-5.524-15.625h11.048m-11.048-3.907v7.813m11.048-7.813v7.813m-11.048 11.719h11.048m-11.048-3.907v7.813m11.048-7.813v7.813m-27.621 19.531h22.097m-22.097-7.812v15.625m-5.524-15.625h11.048m-11.048-3.907v7.813m11.048-7.813v7.813m-11.048 11.719h11.048m-11.048-3.907v7.813m11.048-7.813v7.813m16.573-19.531v15.625m-5.524-15.625h11.048m-11.048-3.907v7.813m11.048-7.813v7.813m-11.048 11.719h11.048m-11.048-3.907v7.813m11.048-7.813v7.813m27.622-42.969v31.25m-11.049-31.25h22.097m-22.097-7.812v15.625m-5.524-15.625h11.048m-11.048-3.907v7.813m11.048-7.813v7.813m-11.048 11.719h11.048m-11.048-3.907v7.813m11.048-7.813v7.813m16.573-19.531v15.625m-5.524-15.625h11.048m-11.048-3.907v7.813m11.048-7.813v7.813m-11.048 11.719h11.048m-11.048-3.907v7.813m11.048-7.813v7.813m-27.621 19.531h22.097m-22.097-7.812v15.625m-5.524-15.625h11.048m-11.048-3.907v7.813m11.048-7.813v7.813m-11.048 11.719h11.048m-11.048-3.907v7.813m11.048-7.813v7.813m16.573-19.531v15.625m-5.524-15.625h11.048m-11.048-3.907v7.813m11.048-7.813v7.813m-11.048 11.719h11.048m-11.048-3.907v7.813m11.048-7.813v7.813M574.524 437.5h88.389m-88.389-31.25v62.5m-22.097-62.5h44.194m-44.194-15.625v31.25m-11.048-31.25h22.097m-22.097-7.812v15.625m-5.525-15.625h11.049m-11.049-3.907v7.813m11.049-7.813v7.813m-11.049 11.719h11.049m-11.049-3.907v7.813m11.049-7.813v7.813m16.573-19.531v15.625m-5.525-15.625H569m-11.049-3.907v7.813M569 378.906v7.813m-11.049 11.719H569m-11.049-3.907v7.813M569 394.531v7.813m-27.621 19.531h22.097m-22.097-7.812v15.625m-5.525-15.625h11.049m-11.049-3.907v7.813m11.049-7.813v7.813m-11.049 11.719h11.049m-11.049-3.907v7.813m11.049-7.813v7.813m16.573-19.531v15.625m-5.525-15.625H569m-11.049-3.907v7.813M569 410.156v7.813m-11.049 11.719H569m-11.049-3.907v7.813M569 425.781v7.813m27.621-42.969v31.25m-11.048-31.25h22.097m-22.097-7.812v15.625m-5.525-15.625h11.049m-11.049-3.907v7.813m11.049-7.813v7.813m-11.049 11.719h11.049m-11.049-3.907v7.813m11.049-7.813v7.813m16.573-19.531v15.625m-5.524-15.625h11.048m-11.048-3.907v7.813m11.048-7.813v7.813m-11.048 11.719h11.048m-11.048-3.907v7.813m11.048-7.813v7.813m-27.621 19.531h22.097m-22.097-7.812v15.625m-5.525-15.625h11.049m-11.049-3.907v7.813m11.049-7.813v7.813m-11.049 11.719h11.049m-11.049-3.907v7.813m11.049-7.813v7.813m16.573-19.531v15.625m-5.524-15.625h11.048m-11.048-3.907v7.813m11.048-7.813v7.813m-11.048 11.719h11.048m-11.048-3.907v7.813m11.048-7.813v7.813m-60.767 35.156h44.194m-44.194-15.625v31.25m-11.048-31.25h22.097m-22.097-7.812v15.625m-5.525-15.625h11.049m-11.049-3.907v7.813m11.049-7.813v7.813m-11.049 11.719h11.049m-11.049-3.907v7.813m11.049-7.813v7.813m16.573-19.531v15.625m-5.525-15.625H569m-11.049-3.907v7.813M569 441.406v7.813m-11.049 11.719H569m-11.049-3.907v7.813M569 457.031v7.813m-27.621 19.531h22.097m-22.097-7.812v15.625m-5.525-15.625h11.049m-11.049-3.907v7.813m11.049-7.813v7.813m-11.049 11.719h11.049m-11.049-3.907v7.813m11.049-7.813v7.813m16.573-19.531v15.625m-5.525-15.625H569m-11.049-3.907v7.813M569 472.656v7.813m-11.049 11.719H569m-11.049-3.907v7.813M569 488.281v7.813m27.621-42.969v31.25m-11.048-31.25h22.097m-22.097-7.812v15.625m-5.525-15.625h11.049m-11.049-3.907v7.813m11.049-7.813v7.813m-11.049 11.719h11.049m-11.049-3.907v7.813m11.049-7.813v7.813m16.573-19.531v15.625m-5.524-15.625h11.048m-11.048-3.907v7.813m11.048-7.813v7.813m-11.048 11.719h11.048m-11.048-3.907v7.813m11.048-7.813v7.813m-27.621 19.531h22.097m-22.097-7.812v15.625m-5.525-15.625h11.049m-11.049-3.907v7.813m11.049-7.813v7.813m-11.049 11.719h11.049m-11.049-3.907v7.813m11.049-7.813v7.813m16.573-19.531v15.625m-5.524-15.625h11.048m-11.048-3.907v7.813m11.048-7.813v7.813m-11.048 11.719h11.048m-11.048-3.907v7.813m11.048-7.813v7.813m49.719-89.844v62.5m-22.097-62.5h44.194m-44.194-15.625v31.25m-11.049-31.25h22.097m-22.097-7.812v15.625m-5.524-15.625h11.048m-11.048-3.907v7.813m11.048-7.813v7.813m-11.048 11.719h11.048m-11.048-3.907v7.813m11.048-7.813v7.813m16.573-19.531v15.625m-5.524-15.625h11.048m-11.048-3.907v7.813m11.048-7.813v7.813m-11.048 11.719h11.048m-11.048-3.907v7.813m11.048-7.813v7.813m-27.621 19.531h22.097m-22.097-7.812v15.625m-5.524-15.625h11.048m-11.048-3.907v7.813m11.048-7.813v7.813m-11.048 11.719h11.048m-11.048-3.907v7.813m11.048-7.813v7.813m16.573-19.531v15.625m-5.524-15.625h11.048m-11.048-3.907v7.813m11.048-7.813v7.813m-11.048 11.719h11.048m-11.048-3.907v7.813m11.048-7.813v7.813m27.622-42.969v31.25m-11.049-31.25h22.097m-22.097-7.812v15.625m-5.524-15.625h11.048m-11.048-3.907v7.813m11.048-7.813v7.813m-11.048 11.719h11.048m-11.048-3.907v7.813m11.048-7.813v7.813m16.573-19.531v15.625m-5.524-15.625h11.048m-11.048-3.907v7.813m11.048-7.813v7.813m-11.048 11.719h11.048m-11.048-3.907v7.813m11.048-7.813v7.813m-27.621 19.531h22.097m-22.097-7.812v15.625m-5.524-15.625h11.048m-11.048-3.907v7.813m11.048-7.813v7.813m-11.048 11.719h11.048m-11.048-3.907v7.813m11.048-7.813v7.813m16.573-19.531v15.625m-5.524-15.625h11.048m-11.048-3.907v7.813m11.048-7.813v7.813m-11.048 11.719h11.048m-11.048-3.907v7.813m11.048-7.813v7.813m-60.766 35.156h44.194m-44.194-15.625v31.25m-11.049-31.25h22.097m-22.097-7.812v15.625m-5.524-15.625h11.048m-11.048-3.907v7.813m11.048-7.813v7.813m-11.048 11.719h11.048m-11.048-3.907v7.813m11.048-7.813v7.813m16.573-19.531v15.625m-5.524-15.625h11.048m-11.048-3.907v7.813m11.048-7.813v7.813m-11.048 11.719h11.048m-11.048-3.907v7.813m11.048-7.813v7.813m-27.621 19.531h22.097m-22.097-7.812v15.625m-5.524-15.625h11.048m-11.048-3.907v7.813m11.048-7.813v7.813m-11.048 11.719h11.048m-11.048-3.907v7.813m11.048-7.813v7.813m16.573-19.531v15.625m-5.524-15.625h11.048m-11.048-3.907v7.813m11.048-7.813v7.813m-11.048 11.719h11.048m-11.048-3.907v7.813m11.048-7.813v7.813m27.622-42.969v31.25m-11.049-31.25h22.097m-22.097-7.812v15.625m-5.524-15.625h11.048m-11.048-3.907v7.813m11.048-7.813v7.813m-11.048 11.719h11.048m-11.048-3.907v7.813m11.048-7.813v7.813m16.573-19.531v15.625m-5.524-15.625h11.048m-11.048-3.907v7.813m11.048-7.813v7.813m-11.048 11.719h11.048m-11.048-3.907v7.813m11.048-7.813v7.813m-27.621 19.531h22.097m-22.097-7.812v15.625m-5.524-15.625h11.048m-11.048-3.907v7.813m11.048-7.813v7.813m-11.048 11.719h11.048m-11.048-3.907v7.813m11.048-7.813v7.813m16.573-19.531v15.625m-5.524-15.625h11.048m-11.048-3.907v7.813m11.048-7.813v7.813m-11.048 11.719h11.048m-11.048-3.907v7.813m11.048-7.813v7.813" stroke="#0081cd"/></svg>