<?xml version="1.0" encoding="UTF-8"?>
<svg viewBox="-102.56 -119.73 1000.4 1350.4" xmlns="http://www.w3.org/2000/svg" xmlns:xlink="http://www.w3.org/1999/xlink" width="908.56mm" height="1226.4mm">
 <linearGradient id="a" gradientUnits="userSpaceOnUse">
  <stop stop-color="#acc8d7" offset="0"/>
  <stop stop-color="#f2f6ff" stop-opacity="0" offset="1"/>
 </linearGradient>
 <linearGradient id="b" x1="129.78" x2="332.64" y1="924.07" y2="926.92" gradientUnits="userSpaceOnUse">
  <stop stop-color="#fff" offset="0"/>
  <stop stop-color="#fff" stop-opacity="0" offset="1"/>
 </linearGradient>
 <linearGradient id="c" x1="-317.36" x2="505.49" y1="1385.5" y2="851.21" xlink:href="#a"/>
 <linearGradient id="d" x1="23.22" x2="119.39" y1="125.49" y2="76.17" xlink:href="#a"/>
 <linearGradient id="e" x1="128.24" x2="211.21" y1="34.96" y2="151.01" xlink:href="#a"/>
 <linearGradient id="f" x1="249.36" x2="390.95" y1=".09" y2="267.5" gradientTransform="matrix(.98491 0 0 1 2.96 -.22)" xlink:href="#a"/>
 <linearGradient id="g" x1="-.22" x2="202.99" y1="290.81" y2="158.1" xlink:href="#a"/>
 <linearGradient id="h" x1="174.56" x2="704.63" y1="-342.36" y2="439.49" xlink:href="#a"/>
 <linearGradient id="i" x1="-187.27" x2="351.42" y1="593.75" y2="395.06" xlink:href="#a"/>
 <linearGradient id="j" x1="80.34" x2="109.89" y1="31.44" y2="85.27" xlink:href="#a"/>
 <linearGradient id="k" x1="53.92" x2="66.04" y1="76.16" y2="86.26" xlink:href="#a"/>
 <g stroke="#000">
  <g fill-rule="evenodd">
   <path d="m.5.5h841v1189h-841z" fill="url(#b)"/>
   <path d="m.5 593.45h840.64v595.78h-840.64z" fill="url(#c)"/>
   <path d="m.77 76.89h106.22v74.09h-106.22z" fill="url(#d)"/>
   <path d="m106.75.48h104.2v150.26h-104.2z" fill="url(#e)" stroke-width=".97"/>
   <path d="m210.82.59h208.75v297.78h-208.75z" fill="url(#f)"/>
   <path d="m.5 150.67h210.07v148.3h-210.07z" fill="url(#g)"/>
   <path d="m419.72.49h421.79v593.02h-421.79z" fill="url(#h)" stroke-width=".98"/>
   <path d="m.48 298.62h419.24v294.87h-419.24z" fill="url(#i)" stroke-width=".97"/>
   <path d="m54.61.69h51.9v76.09h-51.9z" fill="url(#j)" stroke-width=".84"/>
  </g>
  <path d="m.505 2.692v-58.095m841.04 58.095v-58.095m-830.98 56h-58.095m46.095 76.288h-58.095m58.095 73.775h-58.095m58.095 147.96h-58.095m27.791 294.82h-27.791m58.095 596.06h-58.095m926.12-596.06h-32.864m32.864 596.06h-32.864m-779.11-1186.8v-58.095m52.028 58.095v-58.095m104.17 58.095v-58.095m208.97 23.75v-23.75" fill="none"/>
 </g>
 <g fill-rule="evenodd">
  <path d="m16.452-26.291-15.375 4.625 15.375 4.656v-3.188h809.15v3.188l15.375-4.656-15.375-4.625v3.156h-809.15zm419.21-23.839-15.375 4.625 15.375 4.656v-3.188h389.93v3.188l15.375-4.656-15.375-4.625v3.156h-389.93zm-208.82 0-15.375 4.625 15.375 4.656v-3.188h177.06v3.188l15.375-4.656-15.375-4.625v3.156h-177.06zm-156.18 0-15.375 4.625 15.375 4.656v-3.188h20.985v3.188l15.375-4.656-15.375-4.625v3.156h-20.985zm52 0-15.375 4.625 15.375 4.656v-3.188h72.251v3.188l15.375-4.656-15.375-4.625v3.156h-72.251z"/>
  <g fill="#fff">
   <path d="m352.82-36.32h136.4v28.81h-136.4z"/>
   <path d="m577.58-62.58h106.1v28.81h-106.1z"/>
   <path d="m262.32-59.89h106.1v28.81h-106.1z"/>
  </g>
  <path d="m-11.477 16.381-4.625-15.375-4.656 15.375h3.188v1157.4h-3.188l4.656 15.375 4.625-15.375h-3.156v-1157.4zm-30 297.86-4.625-15.375-4.656 15.375h3.188v263.82h-3.188l4.656 15.375 4.625-15.375h-3.156v-263.82zm0-147.5-4.625-15.375-4.656 15.375h3.188v116.32h-3.188l4.656 15.375 4.625-15.375h-3.156v-116.32zm0-73.93-4.625-15.375-4.656 15.375h3.188v42.397h-3.188l4.656 15.375 4.625-15.375h-3.156v-42.397z"/>
  <path d="m-41.477 608.74-4.625-15.375-4.656 15.375h3.188v564.9h-3.188l4.656 15.375 4.625-15.375h-3.156v-564.9z"/>
  <g fill="#fff">
   <path d="m-28 663.28v-136.4h23.76v136.4z"/>
   <path d="m-58 948.67v-114.97h23.76v114.97z"/>
   <path d="m-58 499.35v-106.4h23.76v106.4z"/>
   <path d="m-58 274.17v-98.54h23.76v98.54z"/>
  </g>
  <path d="m.99 1h53.15v75.38h-53.15z" fill="url(#k)"/>
 </g>
 <path d="m866.594.477h-32.864" fill="none" stroke="#000"/>
 <g font-family="DejaVu Sans,Bitstream Vera Sans">
  <g font-size="18.03">
   <text x="383.51" y="-13.66"><tspan x="383.51" y="-13.66">841 mm</tspan></text>
   <text x="593.29" y="-39.37"><tspan x="593.29" y="-39.37">420 mm</tspan></text>
   <text x="277.81" y="-38.92"><tspan x="277.81" y="-38.92">210 mm</tspan></text>
   <text x="120.89" y="-65.64"><tspan x="120.89" y="-65.64">105 mm</tspan></text>
   <text x="49.3" y="-65.64"><tspan x="49.3" y="-65.64">52 mm</tspan></text>
   <g transform="rotate(-90)">
    <text x="-638.71" y="-9.55"><tspan x="-638.71" y="-9.55">1189 mm</tspan></text>
    <text x="-928.78" y="-39.55"><tspan x="-928.78" y="-39.55">594 mm</tspan></text>
    <text x="-483.71" y="-39.55"><tspan x="-483.71" y="-39.55">297 mm</tspan></text>
    <text x="-262.79" y="-39.55"><tspan x="-262.79" y="-39.55">148 mm</tspan></text>
    <text x="-145.91" y="-65.82"><tspan x="-145.91" y="-65.82">74 mm</tspan></text>
   </g>
  </g>
  <text x="61.32" y="49.86" font-size="30.56"><tspan x="61.32" y="49.86">A8</tspan></text>
  <text x="127.81" y="93.48" font-size="49.07"><tspan x="127.81" y="93.48">A6</tspan></text>
  <text x="29.4" y="128.3" font-size="39.4"><tspan x="29.4" y="128.3">A7</tspan></text>
  <text x="64.33" y="248.57" font-size="66.45"><tspan x="64.33" y="248.57">A5</tspan></text>
  <text x="262.49" y="180.62" font-size="85.42"><tspan x="262.49" y="180.62">A4</tspan></text>
  <text x="143.62" y="484.85" font-size="106.58"><tspan x="143.62" y="484.85">A3</tspan></text>
  <text x="546.06" y="348.12" font-size="137.75"><tspan x="546.06" y="348.12">A2</tspan></text>
  <text x="311.08" y="956.05" font-size="177.95"><tspan x="311.08" y="956.05">A1</tspan></text>
  <text x="234.81" y="683.38" fill="#fff" fill-opacity=".82" font-size="290.73" stroke="#000"><tspan x="234.81" y="683.38">A0</tspan></text>
 </g>
</svg>
