<svg width="600" height="600" xmlns="http://www.w3.org/2000/svg"><path d="M0 0l600 600m0-600L0 600M18.75 0L600 581.25M581.25 0L0 581.25m0-562.5L581.25 600M600 18.75L18.75 600M37.5 0L600 562.5M562.5 0L0 562.5m0-525L562.5 600M600 37.5L37.5 600M56.25 0L600 543.75M543.75 0L0 543.75m0-487.5L543.75 600M600 56.25L56.25 600M75 0l525 525M525 0L0 525M0 75l525 525m75-525L75 600M93.75 0L600 506.25M506.25 0L0 506.25m0-412.5L506.25 600M600 93.75L93.75 600M112.5 0L600 487.5M487.5 0L0 487.5m0-375L487.5 600M600 112.5L112.5 600M131.25 0L600 468.75M468.75 0L0 468.75m0-337.5L468.75 600M600 131.25L131.25 600M150 0l450 450M450 0L0 450m0-300l450 450m150-450L150 600M168.75 0L600 431.25M431.25 0L0 431.25m0-262.5L431.25 600M600 168.75L168.75 600M187.5 0L600 412.5M412.5 0L0 412.5m0-225L412.5 600M600 187.5L187.5 600M206.25 0L600 393.75M393.75 0L0 393.75m0-187.5L393.75 600M600 206.25L206.25 600M225 0l375 375M375 0L0 375m0-150l375 375m225-375L225 600M243.75 0L600 356.25M356.25 0L0 356.25m0-112.5L356.25 600M600 243.75L243.75 600M262.5 0L600 337.5M337.5 0L0 337.5m0-75L337.5 600M600 262.5L262.5 600M281.25 0L600 318.75M318.75 0L0 318.75m0-37.5L318.75 600M600 281.25L281.25 600M300 0l300 300M300 0L0 300m0 0l300 300m300-300L300 600M318.75 0L600 281.25M281.25 0L0 281.25m0 37.5L281.25 600M600 318.75L318.75 600M337.5 0L600 262.5M262.5 0L0 262.5m0 75L262.5 600M600 337.5L337.5 600M356.25 0L600 243.75M243.75 0L0 243.75m0 112.5L243.75 600M600 356.25L356.25 600M375 0l225 225M225 0L0 225m0 150l225 225m375-225L375 600M393.75 0L600 206.25M206.25 0L0 206.25m0 187.5L206.25 600M600 393.75L393.75 600M412.5 0L600 187.5M187.5 0L0 187.5m0 225L187.5 600M600 412.5L412.5 600M431.25 0L600 168.75M168.75 0L0 168.75m0 262.5L168.75 600M600 431.25L431.25 600M450 0l150 150M150 0L0 150m0 300l150 150m450-150L450 600M468.75 0L600 131.25M131.25 0L0 131.25m0 337.5L131.25 600M600 468.75L468.75 600M487.5 0L600 112.5M112.5 0L0 112.5m0 375L112.5 600M600 487.5L487.5 600M506.25 0L600 93.75M93.75 0L0 93.75m0 412.5L93.75 600M600 506.25L506.25 600M525 0l75 75M75 0L0 75m0 450l75 75m525-75l-75 75M543.75 0L600 56.25M56.25 0L0 56.25m0 487.5L56.25 600M600 543.75L543.75 600M562.5 0L600 37.5M37.5 0L0 37.5m0 525L37.5 600M600 562.5L562.5 600M581.25 0L600 18.75M18.75 0L0 18.75m0 562.5L18.75 600M600 581.25L581.25 600" stroke="#009246"/><g fill="#fff"><circle cy="18.75" r="4"/><circle cy="37.5" r="4"/><circle cy="56.25" r="4"/><circle cy="75" r="4"/><circle cy="93.75" r="4"/><circle cy="112.5" r="4"/><circle cy="131.25" r="4"/><circle cy="150" r="4"/><circle cy="168.75" r="4"/><circle cy="187.5" r="4"/><circle cy="206.25" r="4"/><circle cy="225" r="4"/><circle cy="243.75" r="4"/><circle cy="262.5" r="4"/><circle cy="281.25" r="4"/><circle cy="300" r="4"/><circle cy="318.75" r="4"/><circle cy="337.5" r="4"/><circle cy="356.25" r="4"/><circle cy="375" r="4"/><circle cy="393.75" r="4"/><circle cy="412.5" r="4"/><circle cy="431.25" r="4"/><circle cy="450" r="4"/><circle cy="468.75" r="4"/><circle cy="487.5" r="4"/><circle cy="506.25" r="4"/><circle cy="525" r="4"/><circle cy="543.75" r="4"/><circle cy="562.5" r="4"/><circle cy="581.25" r="4"/><circle cy="600" r="4"/><circle cx="18.75" r="4"/><circle cx="18.75" cy="37.5" r="4"/><circle cx="18.75" cy="75" r="4"/><circle cx="18.75" cy="112.5" r="4"/><circle cx="18.75" cy="150" r="4"/><circle cx="18.75" cy="187.5" r="4"/><circle cx="18.75" cy="225" r="4"/><circle cx="18.75" cy="262.5" r="4"/><circle cx="18.75" cy="300" r="4"/><circle cx="18.75" cy="337.5" r="4"/><circle cx="18.75" cy="375" r="4"/><circle cx="18.75" cy="412.5" r="4"/><circle cx="18.75" cy="450" r="4"/><circle cx="18.75" cy="487.5" r="4"/><circle cx="18.75" cy="525" r="4"/><circle cx="18.75" cy="562.5" r="4"/><circle cx="18.75" cy="600" r="4"/><circle cx="37.5" r="4"/><circle cx="37.5" cy="18.75" r="4"/><circle cx="37.5" cy="56.25" r="4"/><circle cx="37.5" cy="75" r="4"/><circle cx="37.5" cy="93.75" r="4"/><circle cx="37.5" cy="131.25" r="4"/><circle cx="37.5" cy="150" r="4"/><circle cx="37.5" cy="168.75" r="4"/><circle cx="37.5" cy="206.25" r="4"/><circle cx="37.5" cy="225" r="4"/><circle cx="37.5" cy="243.75" r="4"/><circle cx="37.5" cy="281.25" r="4"/><circle cx="37.5" cy="300" r="4"/><circle cx="37.5" cy="318.75" r="4"/><circle cx="37.5" cy="356.25" r="4"/><circle cx="37.5" cy="375" r="4"/><circle cx="37.5" cy="393.75" r="4"/><circle cx="37.5" cy="431.25" r="4"/><circle cx="37.5" cy="450" r="4"/><circle cx="37.5" cy="468.75" r="4"/><circle cx="37.5" cy="506.25" r="4"/><circle cx="37.5" cy="525" r="4"/><circle cx="37.5" cy="543.75" r="4"/><circle cx="37.5" cy="581.25" r="4"/><circle cx="37.5" cy="600" r="4"/><circle cx="56.25" r="4"/><circle cx="56.25" cy="37.5" r="4"/><circle cx="56.25" cy="75" r="4"/><circle cx="56.25" cy="112.5" r="4"/><circle cx="56.25" cy="150" r="4"/><circle cx="56.25" cy="187.5" r="4"/><circle cx="56.25" cy="225" r="4"/><circle cx="56.25" cy="262.5" r="4"/><circle cx="56.25" cy="300" r="4"/><circle cx="56.25" cy="337.5" r="4"/><circle cx="56.25" cy="375" r="4"/><circle cx="56.25" cy="412.5" r="4"/><circle cx="56.25" cy="450" r="4"/><circle cx="56.25" cy="487.5" r="4"/><circle cx="56.25" cy="525" r="4"/><circle cx="56.25" cy="562.5" r="4"/><circle cx="56.25" cy="600" r="4"/><circle cx="75" r="4"/><circle cx="75" cy="18.75" r="4"/><circle cx="75" cy="37.5" r="4"/><circle cx="75" cy="56.25" r="4"/><circle cx="75" cy="93.75" r="4"/><circle cx="75" cy="112.5" r="4"/><circle cx="75" cy="131.25" r="4"/><circle cx="75" cy="150" r="4"/><circle cx="75" cy="168.75" r="4"/><circle cx="75" cy="187.5" r="4"/><circle cx="75" cy="206.25" r="4"/><circle cx="75" cy="243.75" r="4"/><circle cx="75" cy="262.5" r="4"/><circle cx="75" cy="281.25" r="4"/><circle cx="75" cy="300" r="4"/><circle cx="75" cy="318.75" r="4"/><circle cx="75" cy="337.5" r="4"/><circle cx="75" cy="356.25" r="4"/><circle cx="75" cy="393.75" r="4"/><circle cx="75" cy="412.5" r="4"/><circle cx="75" cy="431.25" r="4"/><circle cx="75" cy="450" r="4"/><circle cx="75" cy="468.75" r="4"/><circle cx="75" cy="487.5" r="4"/><circle cx="75" cy="506.25" r="4"/><circle cx="75" cy="543.75" r="4"/><circle cx="75" cy="562.5" r="4"/><circle cx="75" cy="581.25" r="4"/><circle cx="75" cy="600" r="4"/><circle cx="93.75" r="4"/><circle cx="93.75" cy="37.5" r="4"/><circle cx="93.75" cy="75" r="4"/><circle cx="93.75" cy="112.5" r="4"/><circle cx="93.75" cy="150" r="4"/><circle cx="93.75" cy="187.5" r="4"/><circle cx="93.75" cy="225" r="4"/><circle cx="93.75" cy="262.5" r="4"/><circle cx="93.75" cy="300" r="4"/><circle cx="93.75" cy="337.5" r="4"/><circle cx="93.75" cy="375" r="4"/><circle cx="93.75" cy="412.5" r="4"/><circle cx="93.75" cy="450" r="4"/><circle cx="93.75" cy="487.5" r="4"/><circle cx="93.75" cy="525" r="4"/><circle cx="93.75" cy="562.5" r="4"/><circle cx="93.75" cy="600" r="4"/><circle cx="112.5" r="4"/><circle cx="112.5" cy="18.75" r="4"/><circle cx="112.5" cy="56.25" r="4"/><circle cx="112.5" cy="75" r="4"/><circle cx="112.5" cy="93.75" r="4"/><circle cx="112.5" cy="131.25" r="4"/><circle cx="112.5" cy="150" r="4"/><circle cx="112.5" cy="168.75" r="4"/><circle cx="112.5" cy="206.25" r="4"/><circle cx="112.5" cy="225" r="4"/><circle cx="112.5" cy="243.75" r="4"/><circle cx="112.5" cy="281.25" r="4"/><circle cx="112.5" cy="300" r="4"/><circle cx="112.5" cy="318.75" r="4"/><circle cx="112.5" cy="356.25" r="4"/><circle cx="112.5" cy="375" r="4"/><circle cx="112.5" cy="393.75" r="4"/><circle cx="112.5" cy="431.25" r="4"/><circle cx="112.5" cy="450" r="4"/><circle cx="112.5" cy="468.75" r="4"/><circle cx="112.5" cy="506.25" r="4"/><circle cx="112.5" cy="525" r="4"/><circle cx="112.5" cy="543.75" r="4"/><circle cx="112.5" cy="581.25" r="4"/><circle cx="112.5" cy="600" r="4"/><circle cx="131.25" r="4"/><circle cx="131.25" cy="37.5" r="4"/><circle cx="131.25" cy="75" r="4"/><circle cx="131.25" cy="112.5" r="4"/><circle cx="131.25" cy="150" r="4"/><circle cx="131.25" cy="187.5" r="4"/><circle cx="131.25" cy="225" r="4"/><circle cx="131.25" cy="262.5" r="4"/><circle cx="131.25" cy="300" r="4"/><circle cx="131.25" cy="337.5" r="4"/><circle cx="131.25" cy="375" r="4"/><circle cx="131.25" cy="412.5" r="4"/><circle cx="131.25" cy="450" r="4"/><circle cx="131.25" cy="487.5" r="4"/><circle cx="131.25" cy="525" r="4"/><circle cx="131.25" cy="562.5" r="4"/><circle cx="131.25" cy="600" r="4"/><circle cx="150" r="4"/><circle cx="150" cy="18.75" r="4"/><circle cx="150" cy="37.5" r="4"/><circle cx="150" cy="56.25" r="4"/><circle cx="150" cy="75" r="4"/><circle cx="150" cy="93.75" r="4"/><circle cx="150" cy="112.5" r="4"/><circle cx="150" cy="131.25" r="4"/><circle cx="150" cy="168.75" r="4"/><circle cx="150" cy="187.5" r="4"/><circle cx="150" cy="206.25" r="4"/><circle cx="150" cy="225" r="4"/><circle cx="150" cy="243.75" r="4"/><circle cx="150" cy="262.5" r="4"/><circle cx="150" cy="281.25" r="4"/><circle cx="150" cy="300" r="4"/><circle cx="150" cy="318.75" r="4"/><circle cx="150" cy="337.5" r="4"/><circle cx="150" cy="356.25" r="4"/><circle cx="150" cy="375" r="4"/><circle cx="150" cy="393.75" r="4"/><circle cx="150" cy="412.5" r="4"/><circle cx="150" cy="431.25" r="4"/><circle cx="150" cy="468.75" r="4"/><circle cx="150" cy="487.5" r="4"/><circle cx="150" cy="506.25" r="4"/><circle cx="150" cy="525" r="4"/><circle cx="150" cy="543.75" r="4"/><circle cx="150" cy="562.5" r="4"/><circle cx="150" cy="581.25" r="4"/><circle cx="150" cy="600" r="4"/><circle cx="168.75" r="4"/><circle cx="168.75" cy="37.5" r="4"/><circle cx="168.75" cy="75" r="4"/><circle cx="168.75" cy="112.5" r="4"/><circle cx="168.75" cy="150" r="4"/><circle cx="168.75" cy="187.5" r="4"/><circle cx="168.75" cy="225" r="4"/><circle cx="168.75" cy="262.5" r="4"/><circle cx="168.75" cy="300" r="4"/><circle cx="168.75" cy="337.5" r="4"/><circle cx="168.75" cy="375" r="4"/><circle cx="168.75" cy="412.5" r="4"/><circle cx="168.75" cy="450" r="4"/><circle cx="168.75" cy="487.5" r="4"/><circle cx="168.75" cy="525" r="4"/><circle cx="168.75" cy="562.5" r="4"/><circle cx="168.75" cy="600" r="4"/><circle cx="187.5" r="4"/><circle cx="187.5" cy="18.75" r="4"/><circle cx="187.5" cy="56.25" r="4"/><circle cx="187.5" cy="75" r="4"/><circle cx="187.5" cy="93.75" r="4"/><circle cx="187.5" cy="131.25" r="4"/><circle cx="187.5" cy="150" r="4"/><circle cx="187.5" cy="168.75" r="4"/><circle cx="187.5" cy="206.25" r="4"/><circle cx="187.5" cy="225" r="4"/><circle cx="187.5" cy="243.75" r="4"/><circle cx="187.5" cy="281.25" r="4"/><circle cx="187.5" cy="300" r="4"/><circle cx="187.5" cy="318.75" r="4"/><circle cx="187.5" cy="356.25" r="4"/><circle cx="187.5" cy="375" r="4"/><circle cx="187.5" cy="393.75" r="4"/><circle cx="187.5" cy="431.25" r="4"/><circle cx="187.5" cy="450" r="4"/><circle cx="187.5" cy="468.75" r="4"/><circle cx="187.5" cy="506.25" r="4"/><circle cx="187.5" cy="525" r="4"/><circle cx="187.5" cy="543.75" r="4"/><circle cx="187.5" cy="581.25" r="4"/><circle cx="187.5" cy="600" r="4"/><circle cx="206.25" r="4"/><circle cx="206.25" cy="37.5" r="4"/><circle cx="206.25" cy="75" r="4"/><circle cx="206.25" cy="112.5" r="4"/><circle cx="206.25" cy="150" r="4"/><circle cx="206.25" cy="187.5" r="4"/><circle cx="206.25" cy="225" r="4"/><circle cx="206.25" cy="262.5" r="4"/><circle cx="206.25" cy="300" r="4"/><circle cx="206.25" cy="337.5" r="4"/><circle cx="206.25" cy="375" r="4"/><circle cx="206.25" cy="412.5" r="4"/><circle cx="206.25" cy="450" r="4"/><circle cx="206.25" cy="487.5" r="4"/><circle cx="206.25" cy="525" r="4"/><circle cx="206.25" cy="562.5" r="4"/><circle cx="206.25" cy="600" r="4"/><circle cx="225" r="4"/><circle cx="225" cy="18.75" r="4"/><circle cx="225" cy="37.5" r="4"/><circle cx="225" cy="56.25" r="4"/><circle cx="225" cy="93.75" r="4"/><circle cx="225" cy="112.5" r="4"/><circle cx="225" cy="131.25" r="4"/><circle cx="225" cy="150" r="4"/><circle cx="225" cy="168.75" r="4"/><circle cx="225" cy="187.5" r="4"/><circle cx="225" cy="206.25" r="4"/><circle cx="225" cy="243.75" r="4"/><circle cx="225" cy="262.5" r="4"/><circle cx="225" cy="281.25" r="4"/><circle cx="225" cy="300" r="4"/><circle cx="225" cy="318.75" r="4"/><circle cx="225" cy="337.5" r="4"/><circle cx="225" cy="356.25" r="4"/><circle cx="225" cy="393.75" r="4"/><circle cx="225" cy="412.5" r="4"/><circle cx="225" cy="431.25" r="4"/><circle cx="225" cy="450" r="4"/><circle cx="225" cy="468.75" r="4"/><circle cx="225" cy="487.5" r="4"/><circle cx="225" cy="506.25" r="4"/><circle cx="225" cy="543.75" r="4"/><circle cx="225" cy="562.5" r="4"/><circle cx="225" cy="581.25" r="4"/><circle cx="225" cy="600" r="4"/><circle cx="243.75" r="4"/><circle cx="243.75" cy="37.5" r="4"/><circle cx="243.75" cy="75" r="4"/><circle cx="243.75" cy="112.5" r="4"/><circle cx="243.75" cy="150" r="4"/><circle cx="243.75" cy="187.5" r="4"/><circle cx="243.75" cy="225" r="4"/><circle cx="243.75" cy="262.5" r="4"/><circle cx="243.75" cy="300" r="4"/><circle cx="243.75" cy="337.5" r="4"/><circle cx="243.75" cy="375" r="4"/><circle cx="243.75" cy="412.5" r="4"/><circle cx="243.75" cy="450" r="4"/><circle cx="243.75" cy="487.5" r="4"/><circle cx="243.75" cy="525" r="4"/><circle cx="243.75" cy="562.5" r="4"/><circle cx="243.75" cy="600" r="4"/><circle cx="262.5" r="4"/><circle cx="262.5" cy="18.75" r="4"/><circle cx="262.5" cy="56.25" r="4"/><circle cx="262.5" cy="75" r="4"/><circle cx="262.5" cy="93.75" r="4"/><circle cx="262.5" cy="131.25" r="4"/><circle cx="262.5" cy="150" r="4"/><circle cx="262.5" cy="168.75" r="4"/><circle cx="262.5" cy="206.25" r="4"/><circle cx="262.5" cy="225" r="4"/><circle cx="262.5" cy="243.75" r="4"/><circle cx="262.5" cy="281.25" r="4"/><circle cx="262.5" cy="300" r="4"/><circle cx="262.5" cy="318.75" r="4"/><circle cx="262.5" cy="356.25" r="4"/><circle cx="262.5" cy="375" r="4"/><circle cx="262.5" cy="393.75" r="4"/><circle cx="262.5" cy="431.25" r="4"/><circle cx="262.5" cy="450" r="4"/><circle cx="262.5" cy="468.75" r="4"/><circle cx="262.5" cy="506.25" r="4"/><circle cx="262.5" cy="525" r="4"/><circle cx="262.5" cy="543.75" r="4"/><circle cx="262.5" cy="581.25" r="4"/><circle cx="262.5" cy="600" r="4"/><circle cx="281.25" r="4"/><circle cx="281.25" cy="37.5" r="4"/><circle cx="281.25" cy="75" r="4"/><circle cx="281.25" cy="112.5" r="4"/><circle cx="281.25" cy="150" r="4"/><circle cx="281.25" cy="187.5" r="4"/><circle cx="281.25" cy="225" r="4"/><circle cx="281.25" cy="262.5" r="4"/><circle cx="281.25" cy="300" r="4"/><circle cx="281.25" cy="337.5" r="4"/><circle cx="281.25" cy="375" r="4"/><circle cx="281.25" cy="412.5" r="4"/><circle cx="281.25" cy="450" r="4"/><circle cx="281.25" cy="487.5" r="4"/><circle cx="281.25" cy="525" r="4"/><circle cx="281.25" cy="562.5" r="4"/><circle cx="281.25" cy="600" r="4"/><circle cx="300" r="4"/><circle cx="300" cy="18.75" r="4"/><circle cx="300" cy="37.5" r="4"/><circle cx="300" cy="56.25" r="4"/><circle cx="300" cy="75" r="4"/><circle cx="300" cy="93.75" r="4"/><circle cx="300" cy="112.5" r="4"/><circle cx="300" cy="131.25" r="4"/><circle cx="300" cy="150" r="4"/><circle cx="300" cy="168.75" r="4"/><circle cx="300" cy="187.5" r="4"/><circle cx="300" cy="206.25" r="4"/><circle cx="300" cy="225" r="4"/><circle cx="300" cy="243.75" r="4"/><circle cx="300" cy="262.5" r="4"/><circle cx="300" cy="281.25" r="4"/><circle cx="300" cy="318.75" r="4"/><circle cx="300" cy="337.5" r="4"/><circle cx="300" cy="356.25" r="4"/><circle cx="300" cy="375" r="4"/><circle cx="300" cy="393.75" r="4"/><circle cx="300" cy="412.5" r="4"/><circle cx="300" cy="431.25" r="4"/><circle cx="300" cy="450" r="4"/><circle cx="300" cy="468.75" r="4"/><circle cx="300" cy="487.5" r="4"/><circle cx="300" cy="506.25" r="4"/><circle cx="300" cy="525" r="4"/><circle cx="300" cy="543.75" r="4"/><circle cx="300" cy="562.5" r="4"/><circle cx="300" cy="581.25" r="4"/><circle cx="300" cy="600" r="4"/><circle cx="318.75" r="4"/><circle cx="318.75" cy="37.5" r="4"/><circle cx="318.75" cy="75" r="4"/><circle cx="318.75" cy="112.5" r="4"/><circle cx="318.75" cy="150" r="4"/><circle cx="318.75" cy="187.5" r="4"/><circle cx="318.75" cy="225" r="4"/><circle cx="318.75" cy="262.5" r="4"/><circle cx="318.75" cy="300" r="4"/><circle cx="318.75" cy="337.5" r="4"/><circle cx="318.75" cy="375" r="4"/><circle cx="318.75" cy="412.5" r="4"/><circle cx="318.75" cy="450" r="4"/><circle cx="318.75" cy="487.5" r="4"/><circle cx="318.75" cy="525" r="4"/><circle cx="318.75" cy="562.5" r="4"/><circle cx="318.75" cy="600" r="4"/><circle cx="337.5" r="4"/><circle cx="337.5" cy="18.75" r="4"/><circle cx="337.5" cy="56.25" r="4"/><circle cx="337.5" cy="75" r="4"/><circle cx="337.5" cy="93.75" r="4"/><circle cx="337.5" cy="131.25" r="4"/><circle cx="337.5" cy="150" r="4"/><circle cx="337.5" cy="168.75" r="4"/><circle cx="337.5" cy="206.25" r="4"/><circle cx="337.5" cy="225" r="4"/><circle cx="337.5" cy="243.75" r="4"/><circle cx="337.5" cy="281.25" r="4"/><circle cx="337.5" cy="300" r="4"/><circle cx="337.5" cy="318.75" r="4"/><circle cx="337.5" cy="356.25" r="4"/><circle cx="337.5" cy="375" r="4"/><circle cx="337.5" cy="393.75" r="4"/><circle cx="337.5" cy="431.25" r="4"/><circle cx="337.5" cy="450" r="4"/><circle cx="337.5" cy="468.75" r="4"/><circle cx="337.5" cy="506.25" r="4"/><circle cx="337.5" cy="525" r="4"/><circle cx="337.5" cy="543.75" r="4"/><circle cx="337.5" cy="581.25" r="4"/><circle cx="337.5" cy="600" r="4"/><circle cx="356.25" r="4"/><circle cx="356.25" cy="37.5" r="4"/><circle cx="356.25" cy="75" r="4"/><circle cx="356.25" cy="112.5" r="4"/><circle cx="356.25" cy="150" r="4"/><circle cx="356.25" cy="187.5" r="4"/><circle cx="356.25" cy="225" r="4"/><circle cx="356.25" cy="262.5" r="4"/><circle cx="356.25" cy="300" r="4"/><circle cx="356.25" cy="337.5" r="4"/><circle cx="356.25" cy="375" r="4"/><circle cx="356.25" cy="412.5" r="4"/><circle cx="356.25" cy="450" r="4"/><circle cx="356.25" cy="487.5" r="4"/><circle cx="356.25" cy="525" r="4"/><circle cx="356.25" cy="562.5" r="4"/><circle cx="356.25" cy="600" r="4"/><circle cx="375" r="4"/><circle cx="375" cy="18.75" r="4"/><circle cx="375" cy="37.5" r="4"/><circle cx="375" cy="56.25" r="4"/><circle cx="375" cy="93.75" r="4"/><circle cx="375" cy="112.5" r="4"/><circle cx="375" cy="131.25" r="4"/><circle cx="375" cy="150" r="4"/><circle cx="375" cy="168.75" r="4"/><circle cx="375" cy="187.5" r="4"/><circle cx="375" cy="206.25" r="4"/><circle cx="375" cy="243.75" r="4"/><circle cx="375" cy="262.5" r="4"/><circle cx="375" cy="281.25" r="4"/><circle cx="375" cy="300" r="4"/><circle cx="375" cy="318.75" r="4"/><circle cx="375" cy="337.5" r="4"/><circle cx="375" cy="356.25" r="4"/><circle cx="375" cy="393.75" r="4"/><circle cx="375" cy="412.5" r="4"/><circle cx="375" cy="431.25" r="4"/><circle cx="375" cy="450" r="4"/><circle cx="375" cy="468.75" r="4"/><circle cx="375" cy="487.5" r="4"/><circle cx="375" cy="506.25" r="4"/><circle cx="375" cy="543.75" r="4"/><circle cx="375" cy="562.5" r="4"/><circle cx="375" cy="581.25" r="4"/><circle cx="375" cy="600" r="4"/><circle cx="393.75" r="4"/><circle cx="393.75" cy="37.5" r="4"/><circle cx="393.75" cy="75" r="4"/><circle cx="393.75" cy="112.5" r="4"/><circle cx="393.75" cy="150" r="4"/><circle cx="393.75" cy="187.5" r="4"/><circle cx="393.75" cy="225" r="4"/><circle cx="393.75" cy="262.5" r="4"/><circle cx="393.75" cy="300" r="4"/><circle cx="393.75" cy="337.5" r="4"/><circle cx="393.75" cy="375" r="4"/><circle cx="393.75" cy="412.5" r="4"/><circle cx="393.75" cy="450" r="4"/><circle cx="393.75" cy="487.5" r="4"/><circle cx="393.75" cy="525" r="4"/><circle cx="393.75" cy="562.5" r="4"/><circle cx="393.75" cy="600" r="4"/><circle cx="412.5" r="4"/><circle cx="412.5" cy="18.75" r="4"/><circle cx="412.5" cy="56.25" r="4"/><circle cx="412.5" cy="75" r="4"/><circle cx="412.5" cy="93.75" r="4"/><circle cx="412.5" cy="131.25" r="4"/><circle cx="412.5" cy="150" r="4"/><circle cx="412.5" cy="168.75" r="4"/><circle cx="412.5" cy="206.25" r="4"/><circle cx="412.5" cy="225" r="4"/><circle cx="412.5" cy="243.75" r="4"/><circle cx="412.5" cy="281.25" r="4"/><circle cx="412.5" cy="300" r="4"/><circle cx="412.5" cy="318.75" r="4"/><circle cx="412.5" cy="356.25" r="4"/><circle cx="412.5" cy="375" r="4"/><circle cx="412.5" cy="393.75" r="4"/><circle cx="412.5" cy="431.25" r="4"/><circle cx="412.5" cy="450" r="4"/><circle cx="412.5" cy="468.75" r="4"/><circle cx="412.5" cy="506.25" r="4"/><circle cx="412.5" cy="525" r="4"/><circle cx="412.5" cy="543.75" r="4"/><circle cx="412.5" cy="581.25" r="4"/><circle cx="412.5" cy="600" r="4"/><circle cx="431.25" r="4"/><circle cx="431.25" cy="37.5" r="4"/><circle cx="431.25" cy="75" r="4"/><circle cx="431.25" cy="112.5" r="4"/><circle cx="431.25" cy="150" r="4"/><circle cx="431.25" cy="187.5" r="4"/><circle cx="431.25" cy="225" r="4"/><circle cx="431.25" cy="262.5" r="4"/><circle cx="431.25" cy="300" r="4"/><circle cx="431.25" cy="337.5" r="4"/><circle cx="431.25" cy="375" r="4"/><circle cx="431.25" cy="412.5" r="4"/><circle cx="431.25" cy="450" r="4"/><circle cx="431.25" cy="487.5" r="4"/><circle cx="431.25" cy="525" r="4"/><circle cx="431.25" cy="562.5" r="4"/><circle cx="431.25" cy="600" r="4"/><circle cx="450" r="4"/><circle cx="450" cy="18.75" r="4"/><circle cx="450" cy="37.5" r="4"/><circle cx="450" cy="56.25" r="4"/><circle cx="450" cy="75" r="4"/><circle cx="450" cy="93.75" r="4"/><circle cx="450" cy="112.5" r="4"/><circle cx="450" cy="131.25" r="4"/><circle cx="450" cy="168.75" r="4"/><circle cx="450" cy="187.5" r="4"/><circle cx="450" cy="206.25" r="4"/><circle cx="450" cy="225" r="4"/><circle cx="450" cy="243.75" r="4"/><circle cx="450" cy="262.5" r="4"/><circle cx="450" cy="281.25" r="4"/><circle cx="450" cy="300" r="4"/><circle cx="450" cy="318.75" r="4"/><circle cx="450" cy="337.5" r="4"/><circle cx="450" cy="356.25" r="4"/><circle cx="450" cy="375" r="4"/><circle cx="450" cy="393.75" r="4"/><circle cx="450" cy="412.5" r="4"/><circle cx="450" cy="431.25" r="4"/><circle cx="450" cy="468.75" r="4"/><circle cx="450" cy="487.5" r="4"/><circle cx="450" cy="506.25" r="4"/><circle cx="450" cy="525" r="4"/><circle cx="450" cy="543.75" r="4"/><circle cx="450" cy="562.5" r="4"/><circle cx="450" cy="581.25" r="4"/><circle cx="450" cy="600" r="4"/><circle cx="468.75" r="4"/><circle cx="468.75" cy="37.5" r="4"/><circle cx="468.75" cy="75" r="4"/><circle cx="468.75" cy="112.5" r="4"/><circle cx="468.75" cy="150" r="4"/><circle cx="468.75" cy="187.5" r="4"/><circle cx="468.75" cy="225" r="4"/><circle cx="468.75" cy="262.5" r="4"/><circle cx="468.75" cy="300" r="4"/><circle cx="468.75" cy="337.5" r="4"/><circle cx="468.75" cy="375" r="4"/><circle cx="468.75" cy="412.5" r="4"/><circle cx="468.75" cy="450" r="4"/><circle cx="468.75" cy="487.5" r="4"/><circle cx="468.75" cy="525" r="4"/><circle cx="468.75" cy="562.5" r="4"/><circle cx="468.75" cy="600" r="4"/><circle cx="487.5" r="4"/><circle cx="487.5" cy="18.75" r="4"/><circle cx="487.5" cy="56.25" r="4"/><circle cx="487.5" cy="75" r="4"/><circle cx="487.5" cy="93.75" r="4"/><circle cx="487.5" cy="131.25" r="4"/><circle cx="487.5" cy="150" r="4"/><circle cx="487.5" cy="168.75" r="4"/><circle cx="487.5" cy="206.25" r="4"/><circle cx="487.5" cy="225" r="4"/><circle cx="487.5" cy="243.75" r="4"/><circle cx="487.5" cy="281.25" r="4"/><circle cx="487.5" cy="300" r="4"/><circle cx="487.5" cy="318.75" r="4"/><circle cx="487.5" cy="356.25" r="4"/><circle cx="487.5" cy="375" r="4"/><circle cx="487.5" cy="393.75" r="4"/><circle cx="487.5" cy="431.25" r="4"/><circle cx="487.5" cy="450" r="4"/><circle cx="487.5" cy="468.75" r="4"/><circle cx="487.5" cy="506.25" r="4"/><circle cx="487.5" cy="525" r="4"/><circle cx="487.5" cy="543.75" r="4"/><circle cx="487.5" cy="581.25" r="4"/><circle cx="487.5" cy="600" r="4"/><circle cx="506.25" r="4"/><circle cx="506.25" cy="37.5" r="4"/><circle cx="506.25" cy="75" r="4"/><circle cx="506.25" cy="112.5" r="4"/><circle cx="506.25" cy="150" r="4"/><circle cx="506.25" cy="187.5" r="4"/><circle cx="506.25" cy="225" r="4"/><circle cx="506.25" cy="262.5" r="4"/><circle cx="506.25" cy="300" r="4"/><circle cx="506.25" cy="337.5" r="4"/><circle cx="506.25" cy="375" r="4"/><circle cx="506.25" cy="412.5" r="4"/><circle cx="506.25" cy="450" r="4"/><circle cx="506.25" cy="487.5" r="4"/><circle cx="506.25" cy="525" r="4"/><circle cx="506.25" cy="562.5" r="4"/><circle cx="506.25" cy="600" r="4"/><circle cx="525" r="4"/><circle cx="525" cy="18.75" r="4"/><circle cx="525" cy="37.5" r="4"/><circle cx="525" cy="56.25" r="4"/><circle cx="525" cy="93.75" r="4"/><circle cx="525" cy="112.5" r="4"/><circle cx="525" cy="131.25" r="4"/><circle cx="525" cy="150" r="4"/><circle cx="525" cy="168.75" r="4"/><circle cx="525" cy="187.5" r="4"/><circle cx="525" cy="206.25" r="4"/><circle cx="525" cy="243.75" r="4"/><circle cx="525" cy="262.5" r="4"/><circle cx="525" cy="281.25" r="4"/><circle cx="525" cy="300" r="4"/><circle cx="525" cy="318.75" r="4"/><circle cx="525" cy="337.5" r="4"/><circle cx="525" cy="356.25" r="4"/><circle cx="525" cy="393.75" r="4"/><circle cx="525" cy="412.5" r="4"/><circle cx="525" cy="431.25" r="4"/><circle cx="525" cy="450" r="4"/><circle cx="525" cy="468.75" r="4"/><circle cx="525" cy="487.5" r="4"/><circle cx="525" cy="506.25" r="4"/><circle cx="525" cy="543.75" r="4"/><circle cx="525" cy="562.5" r="4"/><circle cx="525" cy="581.25" r="4"/><circle cx="525" cy="600" r="4"/><circle cx="543.75" r="4"/><circle cx="543.75" cy="37.5" r="4"/><circle cx="543.75" cy="75" r="4"/><circle cx="543.75" cy="112.5" r="4"/><circle cx="543.75" cy="150" r="4"/><circle cx="543.75" cy="187.5" r="4"/><circle cx="543.75" cy="225" r="4"/><circle cx="543.75" cy="262.5" r="4"/><circle cx="543.75" cy="300" r="4"/><circle cx="543.75" cy="337.5" r="4"/><circle cx="543.75" cy="375" r="4"/><circle cx="543.75" cy="412.5" r="4"/><circle cx="543.75" cy="450" r="4"/><circle cx="543.75" cy="487.5" r="4"/><circle cx="543.75" cy="525" r="4"/><circle cx="543.75" cy="562.5" r="4"/><circle cx="543.75" cy="600" r="4"/><circle cx="562.5" r="4"/><circle cx="562.5" cy="18.75" r="4"/><circle cx="562.5" cy="56.25" r="4"/><circle cx="562.5" cy="75" r="4"/><circle cx="562.5" cy="93.75" r="4"/><circle cx="562.5" cy="131.25" r="4"/><circle cx="562.5" cy="150" r="4"/><circle cx="562.5" cy="168.75" r="4"/><circle cx="562.5" cy="206.25" r="4"/><circle cx="562.5" cy="225" r="4"/><circle cx="562.5" cy="243.75" r="4"/><circle cx="562.5" cy="281.25" r="4"/><circle cx="562.5" cy="300" r="4"/><circle cx="562.5" cy="318.75" r="4"/><circle cx="562.5" cy="356.25" r="4"/><circle cx="562.5" cy="375" r="4"/><circle cx="562.5" cy="393.75" r="4"/><circle cx="562.5" cy="431.25" r="4"/><circle cx="562.5" cy="450" r="4"/><circle cx="562.5" cy="468.75" r="4"/><circle cx="562.5" cy="506.25" r="4"/><circle cx="562.5" cy="525" r="4"/><circle cx="562.5" cy="543.75" r="4"/><circle cx="562.5" cy="581.25" r="4"/><circle cx="562.5" cy="600" r="4"/><circle cx="581.25" r="4"/><circle cx="581.25" cy="37.5" r="4"/><circle cx="581.25" cy="75" r="4"/><circle cx="581.25" cy="112.5" r="4"/><circle cx="581.25" cy="150" r="4"/><circle cx="581.25" cy="187.5" r="4"/><circle cx="581.25" cy="225" r="4"/><circle cx="581.25" cy="262.5" r="4"/><circle cx="581.25" cy="300" r="4"/><circle cx="581.25" cy="337.5" r="4"/><circle cx="581.25" cy="375" r="4"/><circle cx="581.25" cy="412.5" r="4"/><circle cx="581.25" cy="450" r="4"/><circle cx="581.25" cy="487.5" r="4"/><circle cx="581.25" cy="525" r="4"/><circle cx="581.25" cy="562.5" r="4"/><circle cx="581.25" cy="600" r="4"/><circle cx="600" r="4"/><circle cx="600" cy="18.75" r="4"/><circle cx="600" cy="37.5" r="4"/><circle cx="600" cy="56.25" r="4"/><circle cx="600" cy="75" r="4"/><circle cx="600" cy="93.75" r="4"/><circle cx="600" cy="112.5" r="4"/><circle cx="600" cy="131.25" r="4"/><circle cx="600" cy="150" r="4"/><circle cx="600" cy="168.75" r="4"/><circle cx="600" cy="187.5" r="4"/><circle cx="600" cy="206.25" r="4"/><circle cx="600" cy="225" r="4"/><circle cx="600" cy="243.75" r="4"/><circle cx="600" cy="262.5" r="4"/><circle cx="600" cy="281.25" r="4"/><circle cx="600" cy="300" r="4"/><circle cx="600" cy="318.75" r="4"/><circle cx="600" cy="337.5" r="4"/><circle cx="600" cy="356.25" r="4"/><circle cx="600" cy="375" r="4"/><circle cx="600" cy="393.75" r="4"/><circle cx="600" cy="412.5" r="4"/><circle cx="600" cy="431.25" r="4"/><circle cx="600" cy="450" r="4"/><circle cx="600" cy="468.75" r="4"/><circle cx="600" cy="487.5" r="4"/><circle cx="600" cy="506.25" r="4"/><circle cx="600" cy="525" r="4"/><circle cx="600" cy="543.75" r="4"/><circle cx="600" cy="562.5" r="4"/><circle cx="600" cy="581.25" r="4"/></g></svg>