<svg xmlns="http://www.w3.org/2000/svg" width="576" height="162">
    <path fill="none" stroke="#000" stroke-dasharray="4,4" d="M153 151v2h-2m-4 0H13m-2 0H9v-2m0-4V13m0-2V9h2m4 0h134m2 0h2v2m0 4v134m98.579 3.859h-2l-1-1.733m-2.078-3.599L210.13 84.532m-1.039-1.8l-1-1.732 1-1.732m2.078-3.6l36.371-62.996m1.039-1.799l1-1.732h2m4.157 0h72.741m2.078 0h2l1 1.732m2.078 3.6l36.37 62.995m1.039 1.8l1 1.732-1 1.732m-2.078 3.6l-36.37 62.995m-1.039 1.799l-1 1.733h-2m-4.156 0h-72.742m310.875-1.733l1 1.733h-2m-3.95 0H403.554m-1.974 0h-2l1-1.733m1.974-3.42l78.014-135.123m.987-1.71l1-1.732 1 1.732m1.975 3.42l78.014 135.124"/>
    <path fill="#F33" stroke="#000" d="M9 9h144L9 153h144z"/>
    <path fill="#2E62FF" stroke="#000" d="M249.579 9.141h82.976l-82.976 143.718h82.976z"/>
    <path fill="#29FF5E" stroke="#000" d="M399.58 152.859L524.042 81l41.49 71.859L441.067 81z"/>
</svg>
