<svg xmlns="http://www.w3.org/2000/svg" width="522" height="90">
    <path fill="none" stroke="#00F" stroke-width="2" d="M9 9l63 63M9 81l63-63M9 9h54M9 81h54M81 9l63 63M81 81l63-63M81 81h54m18-72l63 63m-63 9l63-63M81 9h54m18 0h54m-54 72h54m18-72l63 63m-63 9l63-63m-63-9h54m-54 72h54m18-72l63 63m-63 9l63-63m-63-9h54m-54 72h54m18-72l63 63m-63 9l63-63m-63-9h54m-54 72h54m18-72l63 63m-63 9l63-63m-63-9h54m-54 72h54"/>
    <path fill="#00F" d="M76.268 76.268c-2.753-1.263-6.516-2.483-9.406-2.682l4.578-2.146 2.146-4.579c.198 2.891 1.418 6.654 2.682 9.407zM76.268 13.732c-1.263 2.753-2.483 6.516-2.682 9.406L71.44 18.56l-4.578-2.146c2.889-.198 6.653-1.418 9.406-2.682zM69.035 9c-2.84 1.054-6.363 2.852-8.547 4.755L62.208 9l-1.72-4.755C62.672 6.148 66.195 7.947 69.035 9zm0 72c-2.84 1.054-6.363 2.852-8.547 4.755L62.208 81l-1.72-4.755c2.184 1.903 5.707 3.702 8.547 4.755zm79.233-4.732c-2.753-1.263-6.516-2.483-9.406-2.682l4.578-2.146 2.146-4.579c.198 2.891 1.418 6.654 2.682 9.407zm0-62.536c-1.263 2.753-2.483 6.516-2.682 9.406l-2.146-4.578-4.578-2.146c2.889-.198 6.653-1.418 9.406-2.682zM141.035 9c-2.84 1.054-6.363 2.852-8.547 4.755L134.208 9l-1.72-4.755c2.184 1.903 5.707 3.702 8.547 4.755zm0 72c-2.84 1.054-6.363 2.852-8.547 4.755l1.72-4.755-1.72-4.755c2.184 1.903 5.707 3.702 8.547 4.755zm79.233-4.732c-2.753-1.263-6.516-2.483-9.406-2.682l4.578-2.146 2.146-4.579c.198 2.891 1.418 6.654 2.682 9.407zm0-62.536c-1.263 2.753-2.483 6.516-2.682 9.406l-2.146-4.578-4.578-2.146c2.889-.198 6.653-1.418 9.406-2.682zM213.035 9c-2.84 1.054-6.363 2.852-8.547 4.755L206.208 9l-1.72-4.755c2.184 1.903 5.707 3.702 8.547 4.755zm0 72c-2.84 1.054-6.363 2.852-8.547 4.755l1.72-4.755-1.72-4.755c2.184 1.903 5.707 3.702 8.547 4.755zm79.233-4.732c-2.754-1.263-6.516-2.483-9.406-2.682l4.578-2.146 2.146-4.579c.198 2.891 1.418 6.654 2.682 9.407zm0-62.536c-1.264 2.753-2.483 6.516-2.682 9.406l-2.146-4.578-4.578-2.146c2.89-.198 6.653-1.418 9.406-2.682zM285.035 9c-2.84 1.054-6.363 2.852-8.547 4.755L278.208 9l-1.72-4.755c2.184 1.903 5.707 3.702 8.547 4.755zm0 72c-2.84 1.054-6.363 2.852-8.547 4.755l1.72-4.755-1.72-4.755c2.184 1.903 5.707 3.702 8.547 4.755zm79.233-4.732c-2.754-1.263-6.516-2.483-9.406-2.682l4.578-2.146 2.146-4.579c.198 2.891 1.418 6.654 2.682 9.407zm0-62.536c-1.264 2.753-2.483 6.516-2.682 9.406l-2.146-4.578-4.578-2.146c2.89-.198 6.653-1.418 9.406-2.682zM357.035 9c-2.84 1.054-6.363 2.852-8.547 4.755L350.208 9l-1.72-4.755c2.184 1.903 5.707 3.702 8.547 4.755zm0 72c-2.84 1.054-6.363 2.852-8.547 4.755l1.72-4.755-1.72-4.755c2.184 1.903 5.707 3.702 8.547 4.755zm79.233-4.732c-2.754-1.263-6.516-2.483-9.406-2.682l4.578-2.146 2.146-4.579c.198 2.891 1.418 6.654 2.682 9.407zm0-62.536c-1.264 2.753-2.483 6.516-2.682 9.406l-2.146-4.578-4.578-2.146c2.89-.198 6.653-1.418 9.406-2.682zM429.035 9c-2.84 1.054-6.363 2.852-8.547 4.755L422.208 9l-1.72-4.755c2.184 1.903 5.707 3.702 8.547 4.755zm0 72c-2.84 1.054-6.363 2.852-8.547 4.755l1.72-4.755-1.72-4.755c2.184 1.903 5.707 3.702 8.547 4.755zm79.233-4.732c-2.754-1.263-6.516-2.483-9.406-2.682l4.578-2.146 2.146-4.579c.198 2.891 1.418 6.654 2.682 9.407zm0-62.536c-1.264 2.753-2.483 6.516-2.682 9.406l-2.146-4.578-4.578-2.146c2.89-.198 6.653-1.418 9.406-2.682zM501.035 9c-2.84 1.054-6.363 2.852-8.547 4.755L494.208 9l-1.72-4.755c2.184 1.903 5.707 3.702 8.547 4.755zm0 72c-2.84 1.054-6.363 2.852-8.547 4.755l1.72-4.755-1.72-4.755c2.184 1.903 5.707 3.702 8.547 4.755z"/>
    <path fill="none" stroke="#F66" d="M9 9v72M81 9v72m72-72v72m72-72v72m72-72v72m72-72v72m72-72v72m72-72v72"/>
    <g fill="#FFF" stroke="#000">
        <circle cx="9" cy="9" r="6"/>
        <circle cx="9" cy="81" r="6"/>
        <circle cx="81" cy="9" r="6"/>
        <circle cx="81" cy="81" r="6"/>
        <circle cx="153" cy="9" r="6"/>
        <circle cx="153" cy="81" r="6"/>
        <circle cx="225" cy="9" r="6"/>
        <circle cx="225" cy="81" r="6"/>
        <circle cx="297" cy="9" r="6"/>
        <circle cx="297" cy="81" r="6"/>
        <circle cx="369" cy="9" r="6"/>
        <circle cx="369" cy="81" r="6"/>
        <circle cx="441" cy="9" r="6"/>
        <circle cx="441" cy="81" r="6"/>
        <circle cx="513" cy="9" r="6"/>
        <circle cx="513" cy="81" r="6"/>
    </g>
</svg>
