<svg xmlns="http://www.w3.org/2000/svg" width="630" height="423">
    <g stroke="#231F20">
        <path fill="#1247E5" d="M189 54h72l-72 90h72zm0 180h72l-72 90h72zM297 99h72l-72 90h72zm0 180h72l-72 90h72zm108-135h72l-72 90h72zm0 180h72l-72 90h72zM513 9h72l-72 90h72zm0 180h72l-72 90h72z"/>
        <path fill="#E5E512" d="M225 99h72l-72 90h72zm0 180h72l-72 90h72zm108-135h72l-72 90h72zm0 180h72l-72 90h72zM441 9h72l-72 90h72zm0 180h72l-72 90h72zM549 54h72l-72 90h72zm0 180h72l-72 90h72z"/>
        <path fill="#F66" d="M153 99h72l-72 90h72zm0 180h72l-72 90h72zm108-135h72l-72 90h72zm0 180h72l-72 90h72zM369 9h72l-72 90h72zm0 180h72l-72 90h72zM477 54h72l-72 90h72zm0 180h72l-72 90h72z"/>
        <path fill="#8C0B67" d="M189 144h72l-72 90h72zm0 180h72l-72 90h72zM297 9h72l-72 90h72zm0 180h72l-72 90h72zM405 54h72l-72 90h72zm0 180h72l-72 90h72zM513 99h72l-72 90h72zm0 180h72l-72 90h72z"/>
        <path fill="#9FF" d="M225 9h72l-72 90h72zm0 180h72l-72 90h72zM333 54h72l-72 90h72zm0 180h72l-72 90h72zM441 99h72l-72 90h72zm0 180h72l-72 90h72zm108-135h72l-72 90h72zm0 180h72l-72 90h72z"/>
        <path fill="#62E512" d="M9 144h72L9 234h72zM153 9h72l-72 90h72zm0 180h72l-72 90h72zM261 54h72l-72 90h72zm0 180h72l-72 90h72zM369 99h72l-72 90h72zm0 180h72l-72 90h72zm108-135h72l-72 90h72zm0 180h72l-72 90h72z"/>
    </g>
</svg>
