<svg xmlns="http://www.w3.org/2000/svg" width="577" height="575">
    <g stroke="#000" stroke-width=".5">
        <path fill="#C1272D" d="M84.854 185.677l106.065 301.228 296.985-93.338-97.58-318.199z"/>
        <g fill="#47D7BD">
            <path d="M220.618 185.677h-16.97l-.001 33.941h-21.213v8.485H177.131v2.122l-1.061-.001h-.265v.531l-.265-.001-.531.531h-.53v1.061h-2.651v4.242H161.221v16.971h-8.486v16.971h33.941v21.213h8.486v5.302h2.121v1.327h.53v.265l.531.53v.531h1.06v2.65l4.243.002v10.606h16.971v8.486h16.97V287.5h21.213v-8.486h5.304v-2.121h1.325v-.529h.266l.53-.531h.53v-1.061h2.652v-4.242H280.015v-16.971h8.485v-16.971h-33.941v-21.213h-8.485v-5.303h-2.121v-1.326h-.531v-.265l-.531-.53v-.531h-1.059l-.001-.53.001-2.121h-4.244v-10.607h-16.97z"/>
            <path d="M118.794 219.618h-16.97v33.941H80.611v8.484h-5.304v2.122h-1.326l.001.531h-.266l-.53.531h-.53v1.061l-.531-.002-2.121.002v4.242H59.398v16.97h-8.486v16.971h33.942v21.213h8.484v5.303h2.122v1.326h.53v.266l.53.529v.531h1.062v2.651h4.242V346.897h16.97v8.484h16.971v-33.939h21.214v-8.486h5.303l-.001-2.122h1.326v-.529l.266-.002.53-.529h.53v-1.061h2.652l-.001-4.242 2.123-.002 8.484.002V287.5h8.485v-16.97h-33.941v-16.971l.001-4.242h-8.486v-5.305h-2.121v-1.324l-.531-.002v-.264l-.53-.531v-.529h-1.06l-.001-.531v-2.122h-4.242v-10.606h-16.97z"/>
            <path d="M84.854 117.794H67.882l.001 33.941H46.669l.001 8.486h-5.303v2.121h-1.326v.53l-.266.001-.53.53-.531-.001.001 1.061h-2.652v4.243H25.457v16.971h-8.486v16.97h33.941v21.213h8.486v5.304h2.121v1.325h.53v.266l.531.53v.53h1.06v2.652h4.242l.001 2.121v8.485h16.971v8.486h16.97v-33.941h21.213v-8.485l4.242-.001h1.061v-2.121h1.326v-.531h.266l.529-.53h.531v-1.06h2.652v-4.243h10.606v-16.97h8.485v-16.971h-33.941v-21.213h-8.485v-5.304h-2.121v-1.326l-.53.001-.001-.265-.53-.531v-.53h-1.061v-.53l.001-2.122h-4.243V126.279h-16.97z"/>
            <path d="M186.676 83.853h-16.969v33.941H148.493v8.486l-4.243-.001-1.061.001v2.121H141.864v.53h-.266l-.53.53h-.53l.001 1.061h-2.653v4.243H127.279v16.97h-8.485v16.971h33.941v16.971l.001 4.242h8.485v5.304h2.121V196.548h.531v.265l.53.531v.53h1.06v2.652l4.244-.001v10.607h16.969v8.486h16.971l.001-33.941h21.212l.001-8.486h5.303v-2.121h1.326v-.53h.264l.531-.531h.531v-1.06l.53-.001 2.121.001v-4.243H246.074v-16.971h8.485v-16.97h-33.941v-21.213h-8.486v-5.304l-2.121.001v-1.327l-.53.001v-.266l-.53-.53v-.53h-1.061v-2.652h-4.243l.001-2.121-.001-8.486h-16.971zM288.5 389.323h-16.971v33.941h-21.213v8.486h-5.303v2.122h-1.326v.529h-.265l-.531.531h-.53v1.061h-2.652v4.242h-10.605l-.001 16.971h-8.485v16.97h33.941v21.213h8.485v5.303h2.122v1.326h.53v.266l.53.529v.531h1.061v2.653h4.242v10.605H288.5v8.486h16.971v-33.941h21.213v-8.486h5.302v-2.121h1.326v-.53h.266l.531-.531h.53v-1.061h2.652v-4.242h10.605v-16.97h8.487v-16.971h-33.942v-21.213h-8.486v-5.303h-2.121v-1.326h-.529v-.266l-.532-.529v-.531h-1.06v-2.652h-4.242v-10.606H288.5z"/>
            <path d="M186.676 423.264h-16.969v33.942h-21.214v8.484l-4.243.002h-1.061v2.121H141.864v.529h-.266l-.53.532h-.53v1.06h-2.652v4.242H127.279v16.971h-8.484v16.971h33.94l.001 16.97v4.243h8.485v5.302h2.121v1.326h.531v.266l.53.529v.532h1.06v2.652h4.244v10.605h16.969v8.485l16.971.002v-33.942h21.213v-8.486h5.304v-2.121h1.326v-.529h.264l.531-.532h.531l-.001-1.06h2.652v-4.242H246.074v-16.971h8.485v-16.971h-33.941v-21.213h-8.486v-5.302h-2.121v-1.327h-.53v-.265l-.53-.531-.001-.53h-1.06v-2.652h-4.242l-.001-2.121v-8.485h-16.971z"/>
            <path d="M152.735 321.442h-16.97v33.939h-16.971l-4.243.002v8.485h-5.303l.001 2.121h-1.327v.531h-.265l-.53.529h-.53v1.061h-2.652v4.242H93.338v16.971h-8.484v16.97h33.941v16.971l-.001 4.242 8.485.002v4.242l.001 1.061h2.121v1.061l-.001.265h.532v.264l.529.531v.529h1.061l.001.532-.001 2.121h4.243V448.721l16.97-.002.001 8.487h16.971v-33.942H190.919v-8.484h5.304v-2.121h1.06l.266-.002-.001-.53h.266l.53-.529h.531v-1.062h2.65v-4.243h10.607v-16.97h8.486v-16.971h-33.942v-21.213h-8.485v-5.303h-2.121v-1.326h-.53v-.265l-.53-.53v-.531h-1.061v-2.65l-4.242-.002v-10.606h-16.971z"/>
            <path d="M254.559 287.5h-16.971v33.942h-21.213v8.484H211.072v2.121h-1.326v.532h-.265l-.53.529h-.531v1.06h-2.651v4.243H195.162v16.972h-8.486v16.969h33.942v21.215h8.486v5.303h2.121v1.326h.529v.263l.531.532v.529h1.061v2.652h4.242v10.608h16.971v8.484h16.97v-33.941h21.213v-8.485h5.305v-2.121h1.324v-.531h.266l.531-.529h.529v-1.063l.532.002 2.121-.002v-4.242h10.605l.002-16.969h8.484v-16.972l-33.941.002v-21.215h-8.485v-5.303h-2.122v-1.061l.001-.265h-.531v-.264l-.53-.531v-.531h-1.061v-2.651h-4.243V295.985h-16.97zM424.266 117.794h-16.973v33.941H386.08v8.486h-5.303v2.121h-1.326v.531h-.263l-.532.53h-.531v1.06h-2.65v4.243h-10.608v16.971h-8.484v16.97h33.941v21.213h8.485v5.304h2.121v1.326l.531-.001v.265l.529.531v.53h1.061v2.652h4.242v10.606h16.973v8.486h16.968v-33.941h21.215v-8.486h5.303v-2.121h1.326v-.53h.264l.531-.531h.529v-1.06h2.653v-4.243H483.662v-16.97h8.484v-16.971h-33.941v-21.213h-8.484v-5.304H447.6V140.864l-.532-.001v-.264l-.529-.531v-.53h-1.062l.002-.53-.002-2.122h-4.243V126.28l-16.968-.001z"/>
            <path d="M322.441 151.735h-16.97v33.942l-16.971-.001-4.243.001v8.485h-5.303v2.121h-1.326v.53h-.265l-.53.531h-.53v1.06h-2.653v4.243h-10.606v16.971h-8.485v16.97H288.5v21.213h8.484v5.305l2.123-.002-.002 1.061v.265h.532v.266l.531.531v.529h1.061v2.653h4.242v10.605h16.97v8.486h16.971v-33.941h21.213v-8.486h5.303v-2.121h1.326v-.53h.266l.529-.531h.531v-1.06h2.65v-4.243h10.608v-16.97h8.486v-16.971h-33.941v-21.213h-8.487V176.131l-2.121-.001V174.805h-.529v-.265l-.531-.531v-.53h-1.061v-2.652h-4.242v-10.606h-16.971z"/>
            <path d="M288.5 49.912h-16.971v33.942l-16.97-.001-4.243.001v8.484h-5.303l-.001 2.122h-1.325v.53h-.265l-.531.531h-.53v1.06h-2.652v4.243h-10.605v16.97h-8.486v16.971h33.941v21.213h8.484l.001 4.243-.001 1.06h2.123v1.326h.53v.265l.53.53v.531h1.061v2.652h4.242v10.606H288.5v8.485l16.971.001v-33.942h21.213v-8.485h5.304l-.002-2.121h1.326v-.53h.266l.531-.531h.53v-1.06l.529-.001 2.123.001v-4.243h10.605v-16.971h8.487v-16.97h-33.942V79.61h-8.486l.002-4.242-.002-1.061h-2.121v-1.326h-.529v-.265l-.532-.53v-.53h-1.06v-2.652h-4.242V58.397H288.5z"/>
            <path d="M390.324 15.971h-16.97v33.941h-21.213v8.485h-5.305v2.122h-1.326l.002.53h-.266l-.531.53h-.529l-.002 1.061h-2.651v4.243H330.926v16.971l-8.485-.001v16.971h33.942v21.213h8.484v5.303h2.121v1.326h.532v.265l.529.53v.531h1.06v2.652h4.245v2.121l-.002 8.485h16.972v8.485h16.969v-33.941h21.215v-8.485h5.303v-2.121h1.326v-.531h.265l.53-.53h.529l.002-1.061h2.65v-4.242h10.608V83.853l8.484.001V66.883h-33.941V49.912l.002-4.243h-8.487v-5.303h-2.121V39.041l-.531-.001v-.265l-.529-.53v-.531h-1.061v-2.651l-4.244-.001V24.457l-16.969-.001zM492.146 321.442h-16.97v33.941l-16.971-.002h-4.242v8.487h-5.303v2.121h-1.326v.531h-.266l-.529.529h-.531v1.061h-2.653v4.242H432.75v16.971h-8.486l.002 16.97h33.939v21.213h8.486v5.305h2.121v1.326h.532l-.002.264.531.531v.529h1.061v2.653h4.242v10.605h16.97v8.487h16.971v-33.942h21.213v-8.484h5.305l-.002-2.123h1.062l.264.002v-.532h.266l.529-.529h.531v-1.062h2.653v-4.243h10.605v-16.97h8.486v-16.971h-33.941v-21.213h-8.486l.002-4.242-.002-1.061h-2.122v-1.326h-.529v-.265l-.531-.53v-.531h-1.061v-2.65h-4.242v-10.608h-16.971z"/>
            <path d="M390.324 355.383l-16.97-.002v33.942h-21.213v8.486h-5.305v2.121H345.512l-.002.529h-.264l-.531.532h-.531l.002 1.06h-2.653v4.242H330.926v16.971h-8.485v16.971h33.942v21.213h8.484v5.302h2.121v1.327l.532.002v.263l.529.532.002.529h1.058v2.652h4.243l.002 2.121v8.485h16.97v8.486h16.969v-33.941h21.215v-8.485l4.242-.002h1.061v-2.121h1.326v-.529h.265l.53-.531h.531v-1.061h2.65v-4.242h10.608v-16.971h8.484v-16.971h-33.939l-.002-16.97v-4.242h-8.485V379.778h-2.121v-1.326h-.531v-.266l-.529-.529v-.532h-1.061v-2.652h-4.244v-10.605h-16.969z"/>
            <path d="M356.383 253.559h-16.971V287.5h-21.213v8.485h-5.304v2.121h-1.325v.531h-.265l-.532.53h-.529v1.06h-2.652v4.244h-10.608v16.971H288.5v16.971l33.941-.002V359.625h8.485V364.928h2.121v1.326h.531v.266l.531.529v.53h1.059v2.652h4.244V380.838h16.971v8.485h16.971v-33.942l16.97.002h4.242v-8.486H399.869v-2.121h1.326v-.531h.266l.529-.53h.531v-1.06h2.651v-4.244H415.779v-16.969h8.487l-.002-16.971h-33.94v-21.213h-8.486v-5.304h-2.121v-1.327l-.529.002v-.265l-.532-.531v-.532h-1.06v-2.65h-4.242v-10.608h-16.971z"/>
            <path d="M458.205 219.618h-16.971v33.941h-21.213v8.484h-5.302v2.122h-1.326v.531h-.266l-.529.531h-.532v1.059h-.529l-2.121.002-.002 4.242h-10.605v16.97h-8.485v16.971h33.94l.002 16.971v4.242h8.484v5.303h2.121v1.326h.531v.266l.53.529v.531h1.06v2.651h4.242V346.897h16.971v8.484l16.971.002v-33.941h21.213v-8.486h5.304v-2.122h1.325l.002-.529h.263l.531-.531h.53v-1.061h2.652v-4.242h10.608l-.002-16.971h8.486v-16.97h-33.942v-21.215l-8.484.002v-5.305h-2.121v-1.06l-.002-.266h-.529v-.264l-.53-.531v-.529h-1.062v-2.653h-4.242v-10.606h-16.971z"/>
        </g>
    </g>
</svg>
