<svg xmlns="http://www.w3.org/2000/svg" width="331" height="313">
    <g fill="none" stroke="#231F20">
        <path d="M202 50c-9.941 0-18 8.059-18 18s-8.059 18-18 18-18-8.059-18-18-8.059-18-18-18m72 0c-9.941 0-18-8.059-18-18s-8.059-18-18-18-18 8.059-18 18-8.059 18-18 18m0 0h72m-72 0c-31.997 0-59.104 20.878-68.479 49.75m0 0c-3.071 9.454 2.102 19.609 11.557 22.682 9.454 3.072 14.628 13.227 11.557 22.681-3.072 9.455-13.227 14.629-22.681 11.558-9.455-3.072-19.609 2.102-22.682 11.557"/>
        <path d="M61.521 99.75c-3.071 9.454-13.227 14.629-22.682 11.557-9.454-3.071-19.609 2.103-22.681 11.557-3.072 9.455 2.103 19.609 11.557 22.682 9.455 3.072 14.629 13.227 11.557 22.682m-.001-.001l22.25-68.477m-22.25 68.477c-9.888 30.431 1.592 62.662 26.153 80.501m.001 0c8.043 5.843 19.3 4.061 25.144-3.982 5.843-8.041 17.099-9.824 25.141-3.982 8.044 5.845 9.826 17.101 3.984 25.143-5.844 8.043-4.062 19.299 3.981 25.143"/>
        <path d="M65.425 248.728c8.043 5.843 9.826 17.1 3.982 25.143-5.843 8.043-4.061 19.3 3.981 25.143 8.044 5.844 19.3 4.06 25.144-3.982 5.844-8.043 17.1-9.826 25.143-3.982m0-.002l-58.25-42.32m58.25 42.32c25.886 18.808 60.087 17.85 84.643.003m0 0c8.042-5.844 9.826-17.101 3.982-25.144-5.842-8.042-4.061-19.298 3.98-25.141 8.045-5.845 19.301-4.061 25.144 3.979 5.844 8.043 17.099 9.827 25.143 3.983"/>
        <path d="M208.318 291.051c8.042-5.844 19.299-4.062 25.143 3.981s17.1 9.826 25.142 3.983c8.044-5.845 9.825-17.101 3.982-25.144s-4.062-19.299 3.982-25.143m0 .001l-58.249 42.322m58.249-42.322c25.886-18.807 35.544-51.631 26.158-80.499m.001 0c-3.073-9.455-13.228-14.63-22.683-11.558-9.454 3.07-19.608-2.102-22.68-11.555-3.073-9.457 2.102-19.611 11.554-22.683 9.455-3.072 14.63-13.226 11.559-22.682"/>
        <path d="M292.726 168.23c-3.073-9.455 2.101-19.609 11.556-22.682s14.629-13.227 11.558-22.681c-3.073-9.456-13.228-14.628-22.683-11.558-9.454 3.071-19.609-2.101-22.681-11.557m0 .002l22.25 68.476m-22.25-68.476C260.588 69.323 232.355 49.995 202 50"/>
    </g>
    <g fill="#ED1C24" stroke="#231F20">
        <circle cx="166" cy="86" r="9"/>
        <circle cx="166" cy="14" r="9"/>
        <circle cx="166" cy="50" r="9"/>
        <circle cx="84.634" cy="145.112" r="9"/>
        <circle cx="16.158" cy="122.863" r="9"/>
        <circle cx="50.396" cy="133.988" r="9"/>
        <circle cx="115.709" cy="240.764" r="9"/>
        <circle cx="73.389" cy="299.013" r="9"/>
        <circle cx="94.55" cy="269.888" r="9"/>
        <circle cx="216.283" cy="240.767" r="9"/>
        <circle cx="258.603" cy="299.016" r="9"/>
        <circle cx="237.443" cy="269.89" r="9"/>
        <circle cx="247.363" cy="145.117" r="9.001"/>
        <circle cx="315.839" cy="122.868" r="9"/>
        <circle cx="281.6" cy="133.992" r="9"/>
    </g>
</svg>
