<svg xmlns="http://www.w3.org/2000/svg" width="539" height="539">
    <g fill="none" stroke="#000">
        <path d="M270 329.68a22.78 22.78 0 0 0-24.28-5.16m0 0a22.78 22.78 0 0 0-20.07-14.579m0-.001a22.782 22.782 0 0 0-12.41-21.501m0 0a22.782 22.782 0 0 0-2.6-24.68m0 .001a22.78 22.78 0 0 0 7.67-23.6m0 0a22.78 22.78 0 0 0 16.61-18.44m0 0a22.781 22.781 0 0 0 22.67-10.1m0 0a22.78 22.78 0 0 0 24.82 0m0 0a22.78 22.78 0 0 0 22.67 10.1m0 0a22.78 22.78 0 0 0 16.609 18.44m0 0a22.783 22.783 0 0 0 7.67 23.6m0 0a22.781 22.781 0 0 0-2.6 24.68m.001-.001a22.782 22.782 0 0 0-12.41 21.501m0 0a22.782 22.782 0 0 0-20.07 14.579m-.001.001A22.78 22.78 0 0 0 270 329.68m-60.23 75.59A148.073 148.073 0 0 0 270 418.071M159.96 369.08a148.05 148.05 0 0 0 49.81 36.189m-80.59-89.509a148.075 148.075 0 0 0 30.78 53.32m-37.22-114.56a148.055 148.055 0 0 0 6.44 61.24m12.59-119.8a148.07 148.07 0 0 0-19.03 58.56m60.23-104.31a148.073 148.073 0 0 0-41.2 45.75m97.44-70.8a148.062 148.062 0 0 0-56.24 25.05m117.82-25.05a148.088 148.088 0 0 0-61.58 0m117.819 25.05a148.066 148.066 0 0 0-56.239-25.05m97.44 70.8a148.089 148.089 0 0 0-41.201-45.75m60.231 104.31a148.085 148.085 0 0 0-19.029-58.56m12.589 119.8a148.07 148.07 0 0 0 6.439-61.24M380.04 369.08a148.09 148.09 0 0 0 30.78-53.32m-80.59 89.51a148.073 148.073 0 0 0 49.81-36.189M270 418.07a148.06 148.06 0 0 0 60.23-12.801M172.02 490.07c11.819 30.792 46.362 46.172 77.154 34.353A59.722 59.722 0 0 0 270 510.901M90.98 431.19c-1.727 32.937 23.574 61.037 56.511 62.765a59.733 59.733 0 0 0 24.529-3.885M40.89 344.44c-14.974 29.388-3.288 65.349 26.1 80.322a59.726 59.726 0 0 0 23.99 6.428"/>
        <path d="M30.42 244.82C4.789 265.577.837 303.183 21.594 328.815a59.724 59.724 0 0 0 19.296 15.626M61.38 149.55c-31.859 8.534-50.769 41.278-42.236 73.138A59.722 59.722 0 0 0 30.42 244.82m97.99-169.71c-32.576-5.161-63.168 17.064-68.329 49.64a59.713 59.713 0 0 0 1.299 24.8M219.92 34.37c-27.661-17.964-64.647-10.102-82.611 17.56a59.723 59.723 0 0 0-8.898 23.18M320.08 34.37c-17.969-27.659-54.956-35.514-82.614-17.546A59.719 59.719 0 0 0 219.92 34.37m191.67 40.74c-5.161-32.576-35.754-54.8-68.33-49.639a59.725 59.725 0 0 0-23.18 8.899m158.54 115.18c8.536-31.858-10.371-64.605-42.229-73.141a59.718 59.718 0 0 0-24.801-1.299"/>
        <path d="M509.58 244.82c20.757-25.632 16.805-63.237-8.827-83.994a59.734 59.734 0 0 0-22.133-11.276"/>
        <path d="M499.11 344.44c29.387-14.976 41.07-50.938 26.095-80.325a59.719 59.719 0 0 0-15.625-19.296M449.02 431.19c32.938-1.725 58.241-29.822 56.518-62.76a59.725 59.725 0 0 0-6.427-23.99M367.98 490.07c30.791 11.819 65.335-3.561 77.154-34.352a59.712 59.712 0 0 0 3.885-24.528M270 510.9c23.323 23.32 61.136 23.318 84.457-.005a59.744 59.744 0 0 0 13.523-20.825m-113.3-147.98A94.29 94.29 0 0 0 270 329.68m0 0a94.29 94.29 0 0 0 15.32 12.41m-58.64-12.46a94.282 94.282 0 0 0 19.04-5.11m0 0a94.237 94.237 0 0 0 8.96 17.57m-48.51-35.24a94.36 94.36 0 0 0 19.48 3.091m0-.001a94.36 94.36 0 0 0 1.03 19.689M196.7 277.7a94.39 94.39 0 0 0 16.54 10.739m0 0a94.298 94.298 0 0 0-7.07 18.41m-6.27-59.629a94.338 94.338 0 0 0 10.74 16.54m0 0a94.309 94.309 0 0 0-13.94 13.94m18.53-57.02a94.287 94.287 0 0 0 3.08 19.48m0 0a94.327 94.327 0 0 0-18.41 7.06m40.12-44.55a94.332 94.332 0 0 0-5.1 19.05m0 0a94.307 94.307 0 0 0-19.69-1.04M270 196.3a94.29 94.29 0 0 0-12.41 15.32m0 0a94.316 94.316 0 0 0-17.57-8.95m59.96 0a94.255 94.255 0 0 0-17.57 8.95m0 0A94.343 94.343 0 0 0 270 196.3m54.77 24.38a94.297 94.297 0 0 0-19.689 1.04m-.001 0a94.266 94.266 0 0 0-5.1-19.05m40.12 44.55a94.327 94.327 0 0 0-18.41-7.06m-.001 0a94.287 94.287 0 0 0 3.08-19.48M343.3 277.7a94.309 94.309 0 0 0-13.94-13.94m-.001 0a94.3 94.3 0 0 0 10.74-16.54m-6.269 59.63a94.322 94.322 0 0 0-7.07-18.41m0-.001A94.353 94.353 0 0 0 343.3 277.7m-29.98 51.93a94.363 94.363 0 0 0 1.029-19.689m.001-.001a94.35 94.35 0 0 0 19.48-3.091m-48.51 35.241a94.233 94.233 0 0 0 8.959-17.57m0 0a94.274 94.274 0 0 0 19.041 5.11m-80.34 23.52a116.463 116.463 0 0 0 21.7-11.061m0 .001A116.455 116.455 0 0 0 270 361.02m-67.64-30.12c8.129.428 16.28.002 24.32-1.271m0 .001a116.452 116.452 0 0 0 6.3 23.521m-49.54-55.021a116.544 116.544 0 0 0 22.73 8.72m0 0a116.456 116.456 0 0 0-3.81 24.051m-22.88-70.411a116.545 116.545 0 0 0 17.22 17.21m0 0a116.427 116.427 0 0 0-13.26 20.43m7.74-73.64a116.417 116.417 0 0 0 8.72 22.73m0 0a116.436 116.436 0 0 0-20.42 13.27m37.02-64.12a116.494 116.494 0 0 0-1.27 24.31m0 0a116.447 116.447 0 0 0-24.05 3.81m59.9-43.52a116.459 116.459 0 0 0-11.06 21.7m0 0a116.491 116.491 0 0 0-23.52-6.3m72.42-15.4A116.537 116.537 0 0 0 270 196.3m0 0a116.494 116.494 0 0 0-18.92-15.33m72.42 15.4a116.425 116.425 0 0 0-23.52 6.3m0 0a116.402 116.402 0 0 0-11.061-21.7m59.901 43.52a116.435 116.435 0 0 0-24.051-3.81m.001 0c.428-8.125.002-16.273-1.27-24.31m37.02 64.12a116.4 116.4 0 0 0-20.42-13.27m0 0a116.547 116.547 0 0 0 8.721-22.73m7.74 73.64A116.433 116.433 0 0 0 343.3 277.7m0 0a116.545 116.545 0 0 0 17.22-17.21m-22.879 70.41a116.468 116.468 0 0 0-3.811-24.051m0 .001a116.417 116.417 0 0 0 22.73-8.72m-49.54 55.02a116.569 116.569 0 0 0 6.301-23.521m-.001.001a116.514 116.514 0 0 0 24.32 1.271M270 361.02a116.455 116.455 0 0 0 15.32-18.93m0 0a116.454 116.454 0 0 0 21.699 11.061M246.63 379.94A143.798 143.798 0 0 0 270 361.019m0 .001a143.85 143.85 0 0 0 23.37 18.921m-89.43-19.011a143.832 143.832 0 0 0 29.04-7.779m0-.001a143.909 143.909 0 0 0 13.65 26.79m-73.97-53.74a143.852 143.852 0 0 0 29.7 4.7m0 0a143.792 143.792 0 0 0 1.58 30.029m-45.72-79.179a143.85 143.85 0 0 0 25.22 16.38m0 0a143.842 143.842 0 0 0-10.78 28.07m-9.55-90.93a143.835 143.835 0 0 0 16.37 25.22m0 0a143.73 143.73 0 0 0-21.26 21.26m28.25-86.96a143.8 143.8 0 0 0 4.71 29.7m0 0a143.842 143.842 0 0 0-28.07 10.78m61.18-67.95a143.802 143.802 0 0 0-7.79 29.05m0 0a143.801 143.801 0 0 0-30.03-1.58M270 157.61a143.813 143.813 0 0 0-18.92 23.36m0 0a143.787 143.787 0 0 0-26.79-13.65m91.42 0a143.909 143.909 0 0 0-26.79 13.65m0 0A143.76 143.76 0 0 0 270 157.61m83.529 37.18a143.795 143.795 0 0 0-30.029 1.58m0 0a143.85 143.85 0 0 0-7.79-29.05m61.181 67.95a143.89 143.89 0 0 0-28.07-10.78m-.001 0a143.73 143.73 0 0 0 4.709-29.7m28.25 86.96a143.682 143.682 0 0 0-21.26-21.26m.001 0a143.82 143.82 0 0 0 16.371-25.22m-9.551 90.93a143.902 143.902 0 0 0-10.779-28.07m0 0a143.822 143.822 0 0 0 25.219-16.38m-45.719 79.18a143.863 143.863 0 0 0 1.58-30.029m0-.001a143.92 143.92 0 0 0 29.699-4.7m-73.97 53.74a143.783 143.783 0 0 0 13.649-26.79m.001 0a143.758 143.758 0 0 0 29.041 7.779M246.63 379.94a855.27 855.27 0 0 0-36.86 25.329M270 418.07a854.667 854.667 0 0 0-23.37-38.13m-42.69-19.01a854.894 854.894 0 0 0-43.98 8.15m49.81 36.19a854.243 854.243 0 0 0-5.83-44.34m-31.28-34.73a854.07 854.07 0 0 0-43.48-10.44m30.78 53.32a853.83 853.83 0 0 0 12.7-42.88m-14.44-44.45a854.706 854.706 0 0 0-35.48-27.23m6.44 61.24a854.639 854.639 0 0 0 29.04-34.01m4.89-46.48a854.205 854.205 0 0 0-21.34-39.31m-19.03 58.56a854.38 854.38 0 0 0 40.37-19.25m23.36-40.48a855.355 855.355 0 0 0-3.5-44.58m-41.2 45.75c14.908 0 29.813-.39 44.7-1.17m37.82-27.47a854.916 854.916 0 0 0 14.92-42.16m-56.24 25.05a854.297 854.297 0 0 0 41.32 17.11m45.71-9.71a853.512 853.512 0 0 0 30.79-32.45m-61.58 0A855.058 855.058 0 0 0 270 157.61m45.71 9.71a853.843 853.843 0 0 0 41.319-17.11m-56.239-25.05a853.22 853.22 0 0 0 14.92 42.16m37.819 27.47c14.888.78 29.793 1.17 44.701 1.17m-41.201-45.75a855.355 855.355 0 0 0-3.5 44.58m23.362 40.48a853.404 853.404 0 0 0 40.369 19.25m-19.03-58.56a854.205 854.205 0 0 0-21.34 39.31m4.889 46.48a854.664 854.664 0 0 0 29.041 34.01m6.44-61.24a854.706 854.706 0 0 0-35.48 27.23m-14.44 44.45a854.88 854.88 0 0 0 12.7 42.88m30.78-53.32a855.135 855.135 0 0 0-43.48 10.44m-31.279 34.73a854.243 854.243 0 0 0-5.83 44.34m49.809-36.19a854.179 854.179 0 0 0-43.979-8.15m-42.691 19.01A853.735 853.735 0 0 0 270 418.07m60.23-12.8a855.27 855.27 0 0 0-36.86-25.329m-63.93 80.869A126.204 126.204 0 0 0 270 418.071m0-.001a126.188 126.188 0 0 0 40.561 42.739M155.34 427.82a126.2 126.2 0 0 0 54.43-22.551m0 .001a126.199 126.199 0 0 0 19.67 55.54m-128.38-93.27a126.197 126.197 0 0 0 58.9 1.54m0 0a126.209 126.209 0 0 0-4.62 58.74M76 290.391a126.206 126.206 0 0 0 53.18 25.369m0 0a126.2 126.2 0 0 0-28.12 51.78M84.47 209.72a126.2 126.2 0 0 0 38.27 44.8m0 0A126.2 126.2 0 0 0 76 290.391m49.03-150.921a126.204 126.204 0 0 0 16.74 56.49m0 0a126.195 126.195 0 0 0-57.3 13.76M190.66 91.79a126.21 126.21 0 0 0-7.69 58.42m0 0a126.205 126.205 0 0 0-57.94-10.74M270 74.93a126.204 126.204 0 0 0-30.79 50.23m0 0a126.189 126.189 0 0 0-48.55-33.37m158.68 0a126.189 126.189 0 0 0-48.55 33.37m0 0A126.215 126.215 0 0 0 270 74.93m144.97 64.54a126.205 126.205 0 0 0-57.94 10.74m-.001 0a126.21 126.21 0 0 0-7.689-58.42m106.19 117.93a126.199 126.199 0 0 0-57.3-13.76m0 0a126.216 126.216 0 0 0 16.739-56.49M464 290.391a126.192 126.192 0 0 0-46.74-35.871m0 0a126.203 126.203 0 0 0 38.271-44.8M438.94 367.54a126.212 126.212 0 0 0-28.12-51.78m0 0A126.224 126.224 0 0 0 464 290.391M384.66 427.82a126.209 126.209 0 0 0-4.62-58.74m0 0a126.198 126.198 0 0 0 58.9-1.54m-128.379 93.27a126.199 126.199 0 0 0 19.67-55.54m-.001 0a126.196 126.196 0 0 0 54.43 22.551M172.02 490.07a308.219 308.219 0 0 0 57.42-29.261m0 .001A308.368 308.368 0 0 0 270 510.901M90.98 431.19a308.37 308.37 0 0 0 64.36-3.37m0 0a308.27 308.27 0 0 0 16.68 62.25M40.89 344.44a308.31 308.31 0 0 0 60.17 23.1m0 0a308.25 308.25 0 0 0-10.08 63.65M30.42 244.82A308.372 308.372 0 0 0 76 290.391m0 0a308.233 308.233 0 0 0-35.11 54.05M61.38 149.55a308.212 308.212 0 0 0 23.09 60.17m0 0a308.16 308.16 0 0 0-54.05 35.1m97.99-169.71a308.235 308.235 0 0 0-3.38 64.36m0 0a308.239 308.239 0 0 0-63.65 10.08M219.92 34.37a308.275 308.275 0 0 0-29.26 57.42m0 0a308.27 308.27 0 0 0-62.25-16.68m191.67-40.74A308.296 308.296 0 0 0 270 74.93m0 0a308.244 308.244 0 0 0-50.08-40.56m191.67 40.74a308.27 308.27 0 0 0-62.25 16.68m0 0a308.275 308.275 0 0 0-29.26-57.42m158.54 115.18a308.317 308.317 0 0 0-63.65-10.08m0 0a308.3 308.3 0 0 0-3.38-64.36m97.99 169.71a308.312 308.312 0 0 0-54.05-35.1m0 0a308.324 308.324 0 0 0 23.09-60.17m20.49 194.89A308.327 308.327 0 0 0 464 290.39m0 .001a308.323 308.323 0 0 0 45.58-45.571m-60.56 186.37a308.294 308.294 0 0 0-10.079-63.65m-.001 0a308.182 308.182 0 0 0 60.17-23.1M367.98 490.07a308.335 308.335 0 0 0 16.68-62.25m0 0a308.36 308.36 0 0 0 64.359 3.37M270 510.9a308.394 308.394 0 0 0 40.561-50.091m0 .001a308.249 308.249 0 0 0 57.42 29.261"/>
    </g>
    <g fill="red" stroke="#000">
        <circle cx="270" cy="418.07" r="5"/>
        <circle cx="209.77" cy="405.27" r="5"/>
        <circle cx="159.96" cy="369.08" r="5"/>
        <circle cx="129.18" cy="315.76" r="5"/>
        <circle cx="122.74" cy="254.52" r="5"/>
        <circle cx="141.77" cy="195.96" r="5"/>
        <circle cx="182.97" cy="150.21" r="5"/>
        <circle cx="239.21" cy="125.16" r="5"/>
        <circle cx="300.79" cy="125.16" r="5"/>
        <circle cx="357.029" cy="150.21" r="5"/>
        <circle cx="398.23" cy="195.96" r="5"/>
        <circle cx="417.26" cy="254.52" r="5"/>
        <circle cx="410.82" cy="315.76" r="5"/>
        <circle cx="380.04" cy="369.08" r="5"/>
        <circle cx="330.23" cy="405.27" r="5"/>
    </g>
</svg>
