<svg xmlns="http://www.w3.org/2000/svg" width="477.119" height="326.271">
    <g fill="#FFFAF5" stroke="#666">
        <path d="M44.183 131.806h66.736v66.738H44.183zm113.925-47.189h66.735v66.735h-66.735zm208.307 47.189h66.738v66.738h-66.738z"/>
        <path d="M110.919 198.54l47.189-47.19 47.188 47.188-47.189 47.19zm161.11-.006l47.19-47.19 47.188 47.188-47.19 47.19z"/>
        <path d="M224.842 245.726l47.19-47.19 47.187 47.188-47.19 47.19zm.001-161.11l47.188-47.188 47.188 47.188-47.189 47.188z"/>
        <path d="M272.034 198.544l-47.191 47.188h-66.735l47.19-47.188zm113.926 47.188l-47.189 47.19h-66.739l47.192-47.19zM158.109 84.617l-47.19 47.189H44.183l47.19-47.189zm47.189-47.191l-47.19 47.188H91.371l47.19-47.188z"/>
        <path d="M272.034 37.426l-47.191 47.191h-66.735l47.19-47.191zm161.119 161.118l-47.195 47.188h-66.734l47.191-47.188zM319.224 84.614l47.191 47.192v66.738l-47.191-47.191zm-94.378 0l47.188 47.192v66.738l-47.188-47.191zm-66.738 0v66.739l-47.189 47.191v-66.738z"/>
        <path d="M319.224 84.614v66.739l-47.19 47.191v-66.738zM158.108 245.732h66.737l47.187 47.19h-66.734zM319.224 84.617h66.738l47.189 47.189h-66.736zm-47.19-47.191h66.737l47.189 47.188h-66.736z"/>
        <path d="M91.373 245.732h66.736l47.189 47.19h-66.736zm66.735-94.379h66.737l47.187 47.191h-66.734z"/>
        <path d="M44.181 198.544h66.738l47.189 47.188H91.373z"/>
    </g>
    <g fill="none" stroke-width="6">
        <path stroke="#2B3990" d="M169.492 0c0 29.661 2.097 37.766-21.157 61.02s-25.497 25.5-47.188 47.191-23.595 23.594-23.595 56.963 3.47 36.84 23.593 56.963l47.191 47.189c20.257 20.256 21.205 28.131 21.205 56.944M234.746 0c0 28.813 4.595 41.173-15.254 61.021-19.849 19.849-28.016 30.88-28.016 56.963s2.383 35.751 23.595 56.963 18.078 29.113.001 47.189-20.365 26.825-.001 47.189 21.489 28.131 21.489 56.944M304.237 0c0 32.204 3.309 39.568 24.76 61.02l47.19 47.191c20.313 20.314 23.597 28.917 23.597 56.963s-2.941 36.309-23.596 56.963-25.559 25.555-47.192 47.189S304.237 300 304.237 326.27"/>
        <path stroke="#BE1E2D" d="M0 165.175h77.551c29.228 0 36.24-2.874 56.962-23.596s29.793-23.594 56.962-23.594 37.567 4.197 56.965 23.594 28.874 18.314 47.188 0 28.372-18.818 47.19 0 28.782 23.596 56.965 23.596h77.335"/>
        <path stroke="#006838" d="M406.78 305.933c-26.271-26.271-47.367-36.605-77.784-36.605s-37.485-4.117-56.962-23.594-28.135-23.596-56.963-23.596-38.383-5.016-56.962-23.596-23.595-30.638-23.595-56.963-2.42-33.368-33.368-33.368-38.007-15.408-69.79-47.19M455.085 253.39c-32.203-32.203-49.594-31.252-78.896-31.252s-38.335-4.967-56.964-23.596-23.596-27.474-23.596-56.963-5.438-38.808-23.594-56.963-22.882-23.594-52.543-23.594l-71.157-.001c-28.561 0-35.821-5.719-70.783-40.681"/>
        <path stroke="#603913" d="M16.949 253.39c49.938-32.141 53.305-31.252 84.195-31.252s33.37-.002 56.964-23.596 26.387-23.594 56.961-23.594 33.37-2.185 33.37-33.369.001-33.37 23.595-56.963 27.235-23.596 56.962-23.596 45.679-11.335 70.787-36.444M68.645 305.933c37.712-37.712 48.533-36.605 79.691-36.605h66.735c29.994 0 37.911-4.541 56.964-23.594s23.596-23.598 47.19-47.191 23.595-29.791 23.595-56.963 5.069-33.368 33.368-33.368 38.219-9.907 68.728-40.415"/>
    </g>
</svg>
