<svg xmlns="http://www.w3.org/2000/svg" width="589" height="186">
    <g fill="#9FF" stroke="#231F20">
        <path d="M82.529 39.406h44.49v44.49h-44.49zM127.021 39.404l31.459 31.461v44.492l-31.459-31.461z"/>
        <path d="M82.529 83.896h44.492l31.458 31.461h-44.49zM431.164 70.865h44.49v44.492h-44.49zM399.705 39.404l31.459 31.461v44.492l-31.459-31.461z"/>
        <path d="M399.704 39.406h44.491l31.459 31.459h-44.49z"/>
    </g>
    <g fill="#FFFFEB" stroke="#231F20">
        <path d="M6.579 70.865H51.07v44.492H6.579zM221.401 70.865h44.491v44.492h-44.491z"/>
        <path d="M51.07 115.355l31.46-31.459 31.458 31.46-31.459 31.458zM158.478 115.352l31.46-31.46 31.458 31.46-31.46 31.459zM127.018 146.817l31.46-31.46 31.458 31.46-31.46 31.459zM127.02 39.405l31.458-31.46 31.46 31.46-31.46 31.459z" stroke-width=".99999"/>
        <path d="M158.48 115.357l-31.46 31.459H82.529l31.46-31.459zM234.431 146.816l-31.46 31.46h-44.492l31.46-31.46zM82.53 39.406L51.07 70.865H6.579l31.46-31.459zM113.989 7.945l-31.46 31.459H38.038l31.46-31.459z"/>
        <path d="M158.48 7.945l-31.46 31.461H82.529l31.46-31.461zM265.893 115.357l-31.463 31.459h-44.491l31.461-31.459zM189.94 39.404l31.46 31.461v44.492l-31.46-31.461zM82.529 39.404v44.492L51.07 115.357V70.865zM189.939 39.404v44.492l-31.459 31.461V70.865zM82.529 146.816h44.492l31.458 31.46h-44.49z"/>
        <path d="M189.94 39.406h44.493l31.459 31.459h-44.491zM158.48 7.945h44.492l31.459 31.459H189.94zM38.039 146.816H82.53l31.459 31.46h-44.49zM6.578 115.357H51.07l31.459 31.459h-44.49zM323.755 70.865h44.49v44.492h-44.49zM538.577 70.865h44.49v44.492h-44.49z"/>
        <path d="M368.24 115.355l31.458-31.46 31.459 31.46-31.46 31.458zM475.645 115.347l31.46-31.46 31.458 31.46-31.46 31.459zM444.187 146.812l31.46-31.46 31.46 31.459-31.46 31.46zM444.194 39.41l31.458-31.46 31.46 31.46-31.46 31.458z" stroke-width=".99999"/>
        <path d="M475.656 115.357l-31.462 31.459h-44.49l31.46-31.459zM551.605 146.816l-31.459 31.46h-44.492l31.461-31.46zM399.705 39.406l-31.46 31.459h-44.49l31.459-31.459zM431.164 7.945l-31.46 31.459h-44.49l31.459-31.459z"/>
        <path d="M475.656 7.945l-31.462 31.461h-44.49l31.46-31.461zM583.067 115.357l-31.462 31.459h-44.49l31.461-31.459zM507.115 39.404l31.461 31.461v44.492l-31.461-31.461zM399.704 39.404v44.492l-31.459 31.461V70.865zM507.115 39.404v44.492l-31.459 31.461V70.865zM399.704 146.816h44.491l31.459 31.46h-44.49z"/>
        <path d="M507.115 39.406h44.493l31.459 31.459h-44.49zM475.656 7.945h44.49l31.459 31.459h-44.49zM355.214 146.816h44.491l31.459 31.46h-44.49zM323.754 115.357h44.491l31.459 31.459h-44.49z"/>
    </g>
</svg>
