<svg width="800" height="800" xmlns="http://www.w3.org/2000/svg"><path d="M127.688 672.312l181.541-181.541m0 0L127.688 672.312m363.083-363.083l181.541-181.541m0 0L490.771 309.229" stroke="#000"/><g fill="#bc1e46"><circle cx="127.688" cy="672.312" r="6.899"/><circle cx="309.229" cy="490.771" r="6.899"/><circle cx="490.771" cy="309.229" r="6.899"/><circle cx="672.312" cy="127.688" r="6.899"/></g><path d="M100.168 499.944l27.52 172.368m-27.52-172.368l209.061-9.173m-209.061 9.173l199.888 199.888M100.168 499.944l399.776-399.776M127.688 672.312l-27.52-172.368m27.52 172.368l172.368 27.52m9.173-209.061l-209.061 9.173m209.061-9.173l-9.173 209.061m0 0L100.168 499.944m199.888 199.888l-172.368-27.52m172.368 27.52l9.173-209.061m-9.173 209.061l399.776-399.776M499.944 100.168L100.168 499.944m399.776-399.776l-9.173 209.061m9.173-209.061l172.368 27.52m-172.368-27.52l199.888 199.888m-209.061 9.173l9.173-209.061m-9.173 209.061l209.061-9.173m-27.52-172.368l-172.368-27.52m172.368 27.52l27.52 172.368m0 0L300.056 699.832m399.776-399.776L499.944 100.168m199.888 199.888l-209.061 9.173m209.061-9.173l-27.52-172.368" stroke="#000"/><g fill="#bc1e46"><circle cx="100.168" cy="499.944" r="7.596"/><circle cx="300.056" cy="699.832" r="7.596"/><circle cx="499.944" cy="100.168" r="7.596"/><circle cx="699.832" cy="300.056" r="7.596"/></g><path d="M66.459 288.82L288.82 66.459M66.459 288.82l424.312 20.409M66.459 288.82L511.18 733.541M288.82 66.459L66.459 288.82M288.82 66.459l20.409 424.312M288.82 66.459L733.541 511.18m-424.312-20.409L288.82 66.459m20.409 424.312l424.312 20.409m-242.77-201.951L66.459 288.82m424.312 20.409l20.409 424.312m0 0L66.459 288.82M511.18 733.541l-20.409-424.312m20.409 424.312L733.541 511.18m0 0L288.82 66.459M733.541 511.18l-424.312-20.409m424.312 20.409L511.18 733.541" stroke="#000"/><g fill="#bc1e46"><circle cx="66.459" cy="288.82" r="8.45"/><circle cx="288.82" cy="66.459" r="8.45"/><circle cx="511.18" cy="733.541" r="8.45"/><circle cx="733.541" cy="511.18" r="8.45"/></g><path d="M24.211 24.211L66.459 288.82M24.211 24.211L288.82 66.459M24.211 24.211l250.526 250.526M66.459 288.82L24.211 24.211M66.459 288.82l208.278-14.083M100.168 499.944l425.095 25.319M288.82 66.459L24.211 24.211M288.82 66.459l-14.083 208.278m0 0L24.211 24.211m250.526 250.526L66.459 288.82m208.278-14.083L288.82 66.459m-14.083 208.278l25.319 425.095m-25.319-425.095l425.095 25.319M300.056 699.832l-25.319-425.095m225.207-174.569l25.319 425.095m0 0l-425.095-25.319m425.095 25.319l-25.319-425.095m25.319 425.095L511.18 733.541m14.083-208.278l208.278-14.083m-208.278 14.083l250.526 250.526M511.18 733.541l14.083-208.278M511.18 733.541l264.609 42.248m-75.957-475.733l-425.095-25.319M733.541 511.18l-208.278 14.083m208.278-14.083l42.248 264.609m0 0L525.263 525.263m250.526 250.526L511.18 733.541m264.609 42.248L733.541 511.18" stroke="#000"/><g fill="#bc1e46"><circle cx="24.211" cy="24.211" r="9.52"/><circle cx="274.737" cy="274.737" r="9.52"/><circle cx="525.263" cy="525.263" r="9.52"/><circle cx="775.789" cy="775.789" r="9.52"/></g></svg>