<svg width="800" height="800" xmlns="http://www.w3.org/2000/svg"><path d="M127.688 672.312l60.514-60.514m0 0l-60.514 60.514m121.028-121.028l60.513-60.513m0 0l-60.513 60.513m242.055-242.055l60.513-60.513m0 0l-60.513 60.513m121.027-121.027l60.514-60.514m0 0l-60.514 60.514" stroke="#000"/><g fill="#bc1e46"><circle cx="127.688" cy="672.312" r="6.899"/><circle cx="188.202" cy="611.798" r="6.899"/><circle cx="248.716" cy="551.284" r="6.899"/><circle cx="309.229" cy="490.771" r="6.899"/><circle cx="490.771" cy="309.229" r="6.899"/><circle cx="551.284" cy="248.716" r="6.899"/><circle cx="611.798" cy="188.202" r="6.899"/><circle cx="672.312" cy="127.688" r="6.899"/></g><path d="M119.094 618.483l8.594 53.829m-8.594-53.829l69.108-6.685m-69.108 6.685l62.423 62.423m-62.423-62.423l124.847-124.848M127.688 672.312l-8.594-53.829m8.594 53.829l53.829 8.594m6.685-69.108l-69.108 6.685m69.108-6.685l-6.685 69.108m0 0l-62.423-62.423m62.423 62.423l-53.829-8.594m53.829 8.594l6.685-69.108m-6.685 69.108l124.848-124.847m-62.424-62.424L119.094 618.483m124.847-124.848l4.775 57.649m-4.775-57.649l65.288-2.864m-65.288 2.864l62.424 62.424m-57.649-4.775l-4.775-57.649m4.775 57.649l57.649 4.775m2.864-65.288l-65.288 2.864m65.288-2.864l-2.864 65.288m0 0L181.517 680.906m124.848-124.847l-62.424-62.424m62.424 62.424l-57.649-4.775m57.649 4.775l2.864-65.288m184.406-246.83l-2.864 65.288m2.864-65.288l57.649 4.775m-57.649-4.775l62.424 62.424m-62.424-62.424l124.848-124.847M490.771 309.229l2.864-65.288m-2.864 65.288l65.288-2.864m-4.775-57.649l-57.649-4.775m57.649 4.775l4.775 57.649m0 0l-62.424-62.424m62.424 62.424l-65.288 2.864m65.288-2.864l-4.775-57.649m4.775 57.649l124.847-124.848m-62.423-62.423L493.635 243.941m124.848-124.847l-6.685 69.108m6.685-69.108l53.829 8.594m-53.829-8.594l62.423 62.423m-69.108 6.685l6.685-69.108m-6.685 69.108l69.108-6.685m-8.594-53.829l-53.829-8.594m53.829 8.594l8.594 53.829m0 0L556.059 306.365m124.847-124.848l-62.423-62.423m62.423 62.423l-69.108 6.685m69.108-6.685l-8.594-53.829" stroke="#000"/><g fill="#bc1e46"><circle cx="119.094" cy="618.483" r="7.116"/><circle cx="181.517" cy="680.906" r="7.116"/><circle cx="243.941" cy="493.635" r="7.116"/><circle cx="306.365" cy="556.059" r="7.116"/><circle cx="493.635" cy="243.941" r="7.116"/><circle cx="556.059" cy="306.365" r="7.116"/><circle cx="618.483" cy="119.094" r="7.116"/><circle cx="680.906" cy="181.517" r="7.116"/></g><path d="M109.939 561.145l64.458-64.458m-64.458 64.458l138.777-9.861m-138.777 9.861l128.916 128.916m-64.458-193.374l-64.458 64.458m64.458-64.458l13.805 115.111m-13.805-115.111l128.916 128.916m-115.111-13.805l-13.805-115.111m13.805 115.111l115.111 13.805m-54.597-74.319l-138.777 9.861m138.777-9.861l-9.861 138.777m0 0L109.939 561.145m128.916 128.916l9.861-138.777m-9.861 138.777l64.458-64.458m0 0L174.397 496.687m128.916 128.916l-115.111-13.805m115.111 13.805l-64.458 64.458m257.832-515.664l64.458-64.458m-64.458 64.458l115.111 13.805m-115.111-13.805l128.916 128.916m-64.458-193.374l-64.458 64.458m64.458-64.458l-9.861 138.777m9.861-138.777l128.916 128.916m-138.777 9.861l9.861-138.777m-9.861 138.777l138.777-9.861m-78.263-50.653l-115.111-13.805m115.111 13.805l13.805 115.111m0 0L496.687 174.397m128.916 128.916l-13.805-115.111m13.805 115.111l64.458-64.458m0 0L561.145 109.939m128.916 128.916l-138.777 9.861m138.777-9.861l-64.458 64.458" stroke="#000"/><g fill="#bc1e46"><circle cx="109.939" cy="561.145" r="7.348"/><circle cx="174.397" cy="496.687" r="7.348"/><circle cx="238.855" cy="690.061" r="7.348"/><circle cx="303.313" cy="625.603" r="7.348"/><circle cx="496.687" cy="174.397" r="7.348"/><circle cx="561.145" cy="109.939" r="7.348"/><circle cx="625.603" cy="303.313" r="7.348"/><circle cx="690.061" cy="238.855" r="7.348"/></g><path d="M100.168 499.944l9.771 61.201m-9.771-61.201l74.229-3.257m-74.229 3.257l66.629 66.629m-66.629-66.629l399.776-399.776M109.939 561.145l-9.771-61.201m9.771 61.201l56.858 5.428m-47.703 51.91l114.333 14.72m-59.03-136.516l-74.229 3.257m74.229-3.257l-7.6 69.886m0 0l-66.629-66.629m66.629 66.629l-56.858-5.428m56.858 5.428l7.6-69.886m-7.6 69.886l14.72 114.333m-14.72-114.333l139.568-10.514m-139.568 10.514l399.776-399.776M181.517 680.906l-14.72-114.333m77.144-72.938l-10.514 139.568m0 0l-114.333-14.72m114.333 14.72l10.514-139.568m-10.514 139.568l5.428 56.858m-5.428-56.858l69.886-7.6m-69.886 7.6l66.629 66.629m-66.629-66.629l399.776-399.776M238.855 690.061l-5.428-56.858m5.428 56.858l61.201 9.771m6.309-143.773l-139.568 10.514m136.516 59.03l-69.886 7.6m69.886-7.6l-3.257 74.229m0 0l-66.629-66.629m66.629 66.629l-61.201-9.771m61.201 9.771l3.257-74.229m-3.257 74.229l399.776-399.776M499.944 100.168L100.168 499.944m399.776-399.776l-3.257 74.229m3.257-74.229l61.201 9.771m-61.201-9.771l66.629 66.629m-69.886 7.6l3.257-74.229m-3.257 74.229l69.886-7.6m-72.938 77.144l139.568-10.514m-72.058-123.488l-61.201-9.771m61.201 9.771l5.428 56.858m0 0L166.797 566.573m399.776-399.776l-66.629-66.629m66.629 66.629l-69.886 7.6m69.886-7.6l-5.428-56.858m5.428 56.858l-10.514 139.568m10.514-139.568l114.333 14.72M556.059 306.365l10.514-139.568m51.91-47.703l14.72 114.333m0 0L233.427 633.203m399.776-399.776l-139.568 10.514m139.568-10.514l-14.72-114.333m14.72 114.333l-7.6 69.886m7.6-69.886l56.858 5.428m-56.858-5.428l66.629 66.629m-74.229 3.257l7.6-69.886m-7.6 69.886l74.229-3.257m-18.926-118.539l-114.333-14.72m123.488 72.058l-56.858-5.428m56.858 5.428l9.771 61.201m0 0L300.056 699.832m399.776-399.776l-66.629-66.629m66.629 66.629l-74.229 3.257m74.229-3.257l-9.771-61.201" stroke="#000"/><g fill="#bc1e46"><circle cx="100.168" cy="499.944" r="7.596"/><circle cx="166.797" cy="566.573" r="7.596"/><circle cx="233.427" cy="633.203" r="7.596"/><circle cx="300.056" cy="699.832" r="7.596"/><circle cx="499.944" cy="100.168" r="7.596"/><circle cx="566.573" cy="166.797" r="7.596"/><circle cx="633.203" cy="233.427" r="7.596"/><circle cx="699.832" cy="300.056" r="7.596"/></g><path d="M66.459 288.82l74.12-74.12m-74.12 74.12l424.312 20.409M66.459 288.82L511.18 733.541M140.579 214.7l-74.12 74.12m74.12-74.12L585.3 659.421M214.7 140.579l74.12-74.12m-74.12 74.12L659.421 585.3M288.82 66.459l-74.12 74.12m74.12-74.12l20.409 424.312M288.82 66.459L733.541 511.18m-424.312-20.409L288.82 66.459m20.409 424.312l424.312 20.409m-242.77-201.951L66.459 288.82m424.312 20.409l20.409 424.312m0 0L66.459 288.82M511.18 733.541l-20.409-424.312m20.409 424.312l74.12-74.12m0 0L140.579 214.7M585.3 659.421l-74.12 74.12M659.421 585.3L214.7 140.579M659.421 585.3l74.12-74.12m0 0L288.82 66.459M733.541 511.18l-424.312-20.409m424.312 20.409l-74.12 74.12" stroke="#000"/><g fill="#bc1e46"><circle cx="66.459" cy="288.82" r="8.45"/><circle cx="140.579" cy="214.7" r="8.45"/><circle cx="214.7" cy="140.579" r="8.45"/><circle cx="288.82" cy="66.459" r="8.45"/><circle cx="511.18" cy="733.541" r="8.45"/><circle cx="585.3" cy="659.421" r="8.45"/><circle cx="659.421" cy="585.3" r="8.45"/><circle cx="733.541" cy="511.18" r="8.45"/></g><path d="M53.473 207.485l12.986 81.335m-12.986-81.335l87.106 7.215m-87.106-7.215l77.006 77.006m-77.006-77.006L207.485 53.473M66.459 288.82l-12.986-81.335m12.986 81.335l64.02-4.329m10.1-69.791l-87.106-7.215m87.106 7.215l-10.1 69.791m0 0l-77.006-77.006m77.006 77.006l-64.02 4.329m64.02-4.329l10.1-69.791m-10.1 69.791l154.012-154.012M130.479 284.491l425.58 21.874M207.485 53.473L53.473 207.485M207.485 53.473l7.215 87.106m-7.215-87.106l81.335 12.986m-81.335-12.986l77.006 77.006m-69.791 10.1l-7.215-87.106m7.215 87.106l69.791-10.1m-40.55 363.156l425.58 21.874M288.82 66.459l-81.335-12.986m81.335 12.986l-4.329 64.02m0 0L130.479 284.491m154.012-154.012l-77.006-77.006m77.006 77.006l-69.791 10.1m69.791-10.1l4.329-64.02m-4.329 64.02l21.874 425.58m0 0l-21.874-425.58m209.144 113.462l21.874 425.58m0 0l-21.874-425.58m21.874 425.58l-4.329 64.02m4.329-64.02l69.791-10.1m-69.791 10.1l77.006 77.006m-77.006-77.006l154.012-154.012M511.18 733.541l4.329-64.02m-4.329 64.02l81.335 12.986m-36.456-440.162l-425.58-21.874M585.3 659.421l-69.791 10.1m69.791-10.1l7.215 87.106m0 0l-77.006-77.006m77.006 77.006l-81.335-12.986m81.335 12.986l-7.215-87.106m7.215 87.106l154.012-154.012m-77.006-77.006l-425.58-21.874m425.58 21.874L515.509 669.521m154.012-154.012l-10.1 69.791m10.1-69.791l64.02-4.329m-64.02 4.329l77.006 77.006m-87.106-7.215l10.1-69.791m-10.1 69.791l87.106 7.215m-12.986-81.335l-64.02 4.329m64.02-4.329l12.986 81.335m0 0L592.515 746.527m154.012-154.012l-77.006-77.006m77.006 77.006l-87.106-7.215m87.106 7.215l-12.986-81.335" stroke="#000"/><g fill="#bc1e46"><circle cx="53.473" cy="207.485" r="8.779"/><circle cx="130.479" cy="284.491" r="8.779"/><circle cx="207.485" cy="53.473" r="8.779"/><circle cx="284.491" cy="130.479" r="8.779"/><circle cx="515.509" cy="669.521" r="8.779"/><circle cx="592.515" cy="746.527" r="8.779"/><circle cx="669.521" cy="515.509" r="8.779"/><circle cx="746.527" cy="592.515" r="8.779"/></g><path d="M39.435 119.561l80.126-80.126m-80.126 80.126L214.7 140.579M39.435 119.561l160.251 160.251M119.561 39.435l-80.126 80.126m80.126-80.126L140.579 214.7M119.561 39.435l160.251 160.251M140.579 214.7L119.561 39.435M140.579 214.7l139.233-15.014M174.397 496.687l425.917 23.501M214.7 140.579L39.435 119.561M214.7 140.579l-15.014 139.233m0 0L39.435 119.561m160.251 160.251L214.7 140.579m-15.014 139.233l80.126-80.126m-80.126 80.126l425.917 23.501M279.812 199.686L119.561 39.435m160.251 160.251L140.579 214.7m139.233-15.014l-80.126 80.126m80.126-80.126l23.501 425.917m0 0l-23.501-425.917m216.875-25.289l23.501 425.917m0 0l-23.501-425.917m23.501 425.917l80.126-80.126m-80.126 80.126L659.421 585.3m-139.233 15.014l160.251 160.251m-80.125-240.377l-425.917-23.501m425.917 23.501l-80.126 80.126m80.126-80.126L585.3 659.421m15.014-139.233l160.251 160.251M585.3 659.421l15.014-139.233M585.3 659.421l175.265 21.018M625.603 303.313l-425.917-23.501M659.421 585.3l-139.233 15.014M659.421 585.3l21.018 175.265m0 0L520.188 600.314m160.251 160.251L659.421 585.3m21.018 175.265l80.126-80.126m0 0L600.314 520.188m160.251 160.251L585.3 659.421m175.265 21.018l-80.126 80.126" stroke="#000"/><g fill="#bc1e46"><circle cx="39.435" cy="119.561" r="9.134"/><circle cx="119.561" cy="39.435" r="9.134"/><circle cx="199.686" cy="279.812" r="9.134"/><circle cx="279.812" cy="199.686" r="9.134"/><circle cx="520.188" cy="600.314" r="9.134"/><circle cx="600.314" cy="520.188" r="9.134"/><circle cx="680.439" cy="760.565" r="9.134"/><circle cx="760.565" cy="680.439" r="9.134"/></g><path d="M24.211 24.211l15.224 95.35m-15.224-95.35l95.35 15.224m-95.35-15.224l83.509 83.509m-68.285 11.841l-15.224-95.35m15.224 95.35l68.285-11.841m-54.247 99.765l137.756-16.256m-91.061 308.715l425.095 25.319M119.561 39.435l-95.35-15.224m95.35 15.224L107.72 107.72m0 0L24.211 24.211m83.509 83.509l-68.285 11.841m68.285-11.841l11.841-68.285M107.72 107.72l22.759 176.771M107.72 107.72l176.771 22.759M130.479 284.491L107.72 107.72m99.765-54.247l-16.256 137.756m0 0L53.473 207.485m137.756-16.256l16.256-137.756m-16.256 137.756l8.457 88.583m-8.457-88.583l88.583 8.457m-88.583-8.457l83.508 83.508m-75.051 5.075l-8.457-88.583m8.457 88.583l75.051-5.075m9.754-144.258L107.72 107.72m172.092 91.966l-88.583-8.457m88.583 8.457l-5.075 75.051m0 0l-83.508-83.508m83.508 83.508l-75.051 5.075m75.051-5.075l5.075-75.051m-5.075 75.051l25.319 425.095m-25.319-425.095l425.095 25.319M300.056 699.832l-25.319-425.095m225.207-174.569l25.319 425.095m0 0l-425.095-25.319m425.095 25.319l-25.319-425.095m25.319 425.095l-5.075 75.051m5.075-75.051l75.051-5.075m-75.051 5.075l83.508 83.508m-88.583-8.457l5.075-75.051m-5.075 75.051l88.583 8.457m-93.262 60.75L692.28 692.28m-91.966-172.092l-75.051 5.075m75.051-5.075l8.457 88.583m0 0l-83.508-83.508m83.508 83.508l-88.583-8.457m88.583 8.457l-8.457-88.583m8.457 88.583l-16.256 137.756m16.256-137.756l137.756-16.256M592.515 746.527l16.256-137.756m60.75-93.262L692.28 692.28m0 0l-176.771-22.759M692.28 692.28l-22.759-176.771M692.28 692.28l-11.841 68.285m11.841-68.285l68.285-11.841M692.28 692.28l83.509 83.509m-95.35-15.224l11.841-68.285m-11.841 68.285l95.35 15.224m-75.957-475.733l-425.095-25.319m471.79 317.778l-137.756 16.256m151.794 71.668L692.28 692.28m68.285-11.841l15.224 95.35m0 0L692.28 692.28m83.509 83.509l-95.35-15.224m95.35 15.224l-15.224-95.35" stroke="#000"/><g fill="#bc1e46"><circle cx="24.211" cy="24.211" r="9.52"/><circle cx="107.72" cy="107.72" r="9.52"/><circle cx="191.229" cy="191.229" r="9.52"/><circle cx="274.737" cy="274.737" r="9.52"/><circle cx="525.263" cy="525.263" r="9.52"/><circle cx="608.771" cy="608.771" r="9.52"/><circle cx="692.28" cy="692.28" r="9.52"/><circle cx="775.789" cy="775.789" r="9.52"/></g></svg>