<svg width="800" height="800" xmlns="http://www.w3.org/2000/svg"><path d="M127.688 672.312l60.514-60.514m60.514-60.514l60.513-60.513m242.055-242.055l-60.513 60.513m181.541-181.541l-60.514 60.514" stroke="#000"/><g fill="#bc1e46"><circle cx="127.688" cy="672.312" r="6.899"/><circle cx="188.202" cy="611.798" r="6.899"/><circle cx="248.716" cy="551.284" r="6.899"/><circle cx="309.229" cy="490.771" r="6.899"/><circle cx="490.771" cy="309.229" r="6.899"/><circle cx="551.284" cy="248.716" r="6.899"/><circle cx="611.798" cy="188.202" r="6.899"/><circle cx="672.312" cy="127.688" r="6.899"/></g><path d="M119.094 618.483l124.847-124.848M127.688 672.312l-8.594-53.829m8.594 53.829l53.829 8.594m0 0l124.848-124.847m-57.649-4.775l-4.775-57.649m4.775 57.649l57.649 4.775m244.919-307.343l-57.649-4.775m57.649 4.775l4.775 57.649m62.424-187.271L493.635 243.941m178.677-116.253l-53.829-8.594m53.829 8.594l8.594 53.829m0 0L556.059 306.365" stroke="#000"/><g fill="#bc1e46"><circle cx="119.094" cy="618.483" r="7.116"/><circle cx="181.517" cy="680.906" r="7.116"/><circle cx="243.941" cy="493.635" r="7.116"/><circle cx="306.365" cy="556.059" r="7.116"/><circle cx="493.635" cy="243.941" r="7.116"/><circle cx="556.059" cy="306.365" r="7.116"/><circle cx="618.483" cy="119.094" r="7.116"/><circle cx="680.906" cy="181.517" r="7.116"/></g><path d="M109.939 561.145l64.458-64.458m13.805 115.111l-13.805-115.111m13.805 115.111l115.111 13.805m-64.458 64.458l64.458-64.458m257.832-515.664l-64.458 64.458m115.111 13.805l-115.111-13.805m115.111 13.805l13.805 115.111m64.458-64.458l-64.458 64.458" stroke="#000"/><g fill="#bc1e46"><circle cx="109.939" cy="561.145" r="7.348"/><circle cx="174.397" cy="496.687" r="7.348"/><circle cx="238.855" cy="690.061" r="7.348"/><circle cx="303.313" cy="625.603" r="7.348"/><circle cx="496.687" cy="174.397" r="7.348"/><circle cx="561.145" cy="109.939" r="7.348"/><circle cx="625.603" cy="303.313" r="7.348"/><circle cx="690.061" cy="238.855" r="7.348"/></g><path d="M100.168 499.944l399.776-399.776M109.939 561.145l-9.771-61.201m9.771 61.201l56.858 5.428m-47.703 51.91l114.333 14.72m-66.63-66.63l399.776-399.776M181.517 680.906l-14.72-114.333m66.63 66.63l399.776-399.776M238.855 690.061l-5.428-56.858m5.428 56.858l61.201 9.771m0 0l399.776-399.776M499.944 100.168L100.168 499.944m460.977-390.005l-61.201-9.771m61.201 9.771l5.428 56.858m0 0L166.797 566.573m451.686-447.479l14.72 114.333m0 0L233.427 633.203m447.479-451.686l-114.333-14.72m123.488 72.058l-56.858-5.428m56.858 5.428l9.771 61.201m0 0L300.056 699.832" stroke="#000"/><g fill="#bc1e46"><circle cx="100.168" cy="499.944" r="7.596"/><circle cx="166.797" cy="566.573" r="7.596"/><circle cx="233.427" cy="633.203" r="7.596"/><circle cx="300.056" cy="699.832" r="7.596"/><circle cx="499.944" cy="100.168" r="7.596"/><circle cx="566.573" cy="166.797" r="7.596"/><circle cx="633.203" cy="233.427" r="7.596"/><circle cx="699.832" cy="300.056" r="7.596"/></g><path d="M66.459 288.82l424.312 20.409M66.459 288.82L511.18 733.541M140.579 214.7L585.3 659.421M214.7 140.579L659.421 585.3M288.82 66.459l20.409 424.312M288.82 66.459L733.541 511.18m-424.312-20.409L288.82 66.459m20.409 424.312l424.312 20.409m-242.77-201.951L66.459 288.82m424.312 20.409l20.409 424.312m0 0L66.459 288.82M511.18 733.541l-20.409-424.312M585.3 659.421L140.579 214.7m518.842 370.6L214.7 140.579M733.541 511.18L288.82 66.459M733.541 511.18l-424.312-20.409" stroke="#000"/><g fill="#bc1e46"><circle cx="66.459" cy="288.82" r="8.45"/><circle cx="140.579" cy="214.7" r="8.45"/><circle cx="214.7" cy="140.579" r="8.45"/><circle cx="288.82" cy="66.459" r="8.45"/><circle cx="511.18" cy="733.541" r="8.45"/><circle cx="585.3" cy="659.421" r="8.45"/><circle cx="659.421" cy="585.3" r="8.45"/><circle cx="733.541" cy="511.18" r="8.45"/></g><path d="M53.473 207.485l12.986 81.335m-12.986-81.335l87.106 7.215m-87.106-7.215l77.006 77.006m0 0l425.58 21.874M207.485 53.473l7.215 87.106m-7.215-87.106l81.335 12.986m-81.335-12.986l77.006 77.006m-40.55 363.156l425.58 21.874m-385.03-385.03l21.874 425.58m0 0l-21.874-425.58m209.144 113.462l21.874 425.58m0 0l-21.874-425.58m62.424 62.424l-425.58-21.874m462.036 462.036l-77.006-77.006m77.006 77.006l-81.335-12.986m81.335 12.986l-7.215-87.106m84.221-143.912l-425.58-21.874m502.586 98.88l-77.006-77.006m77.006 77.006l-87.106-7.215m87.106 7.215l-12.986-81.335" stroke="#000"/><g fill="#bc1e46"><circle cx="53.473" cy="207.485" r="8.779"/><circle cx="130.479" cy="284.491" r="8.779"/><circle cx="207.485" cy="53.473" r="8.779"/><circle cx="284.491" cy="130.479" r="8.779"/><circle cx="515.509" cy="669.521" r="8.779"/><circle cx="592.515" cy="746.527" r="8.779"/><circle cx="669.521" cy="515.509" r="8.779"/><circle cx="746.527" cy="592.515" r="8.779"/></g><path d="M39.435 119.561L214.7 140.579M39.435 119.561l160.251 160.251M119.561 39.435L140.579 214.7M119.561 39.435l160.251 160.251M174.397 496.687l425.917 23.501M199.686 279.812l425.917 23.501M279.812 199.686l23.501 425.917m0 0l-23.501-425.917m216.875-25.289l23.501 425.917m0 0l-23.501-425.917m103.627 345.791l-425.917-23.501m451.206-193.374l-425.917-23.501m480.753 480.753L520.188 600.314m160.251 160.251L659.421 585.3m101.144 95.139L600.314 520.188m160.251 160.251L585.3 659.421" stroke="#000"/><g fill="#bc1e46"><circle cx="39.435" cy="119.561" r="9.134"/><circle cx="119.561" cy="39.435" r="9.134"/><circle cx="199.686" cy="279.812" r="9.134"/><circle cx="279.812" cy="199.686" r="9.134"/><circle cx="520.188" cy="600.314" r="9.134"/><circle cx="600.314" cy="520.188" r="9.134"/><circle cx="680.439" cy="760.565" r="9.134"/><circle cx="760.565" cy="680.439" r="9.134"/></g><path d="M24.211 24.211l15.224 95.35m-15.224-95.35l95.35 15.224m-95.35-15.224l83.509 83.509m-7.552 392.224l425.095 25.319M107.72 107.72l22.759 176.771M107.72 107.72l176.771 22.759m-93.262 60.75l8.457 88.583m-8.457-88.583l88.583 8.457m-88.583-8.457l83.508 83.508m0 0l25.319 425.095m-25.319-425.095l425.095 25.319M300.056 699.832l-25.319-425.095m225.207-174.569l25.319 425.095m0 0l-425.095-25.319m425.095 25.319l-25.319-425.095m108.827 508.603l-83.508-83.508m83.508 83.508l-88.583-8.457m88.583 8.457l-8.457-88.583M692.28 692.28l-176.771-22.759M692.28 692.28l-22.759-176.771m30.311-215.453l-425.095-25.319m501.052 501.052L692.28 692.28m83.509 83.509l-95.35-15.224m95.35 15.224l-15.224-95.35" stroke="#000"/><g fill="#bc1e46"><circle cx="24.211" cy="24.211" r="9.52"/><circle cx="107.72" cy="107.72" r="9.52"/><circle cx="191.229" cy="191.229" r="9.52"/><circle cx="274.737" cy="274.737" r="9.52"/><circle cx="525.263" cy="525.263" r="9.52"/><circle cx="608.771" cy="608.771" r="9.52"/><circle cx="692.28" cy="692.28" r="9.52"/><circle cx="775.789" cy="775.789" r="9.52"/></g></svg>