<svg xmlns="http://www.w3.org/2000/svg" width="1164.9" height="1024.1"><path d="M642.7 156.4L584.2 55.1l-58.5 101.3m234 202.7l-351 607.8m117-607.8l-58.5-101.3-58.5 101.3m351 607.8l-351-607.8m351 0l-58.5-101.3-58.5 101.3m-117-202.7l117 202.8m-117 0l117-202.8m-351 607.8l-58.5-101.3-58.5 101.3m0 202.7l-58.5-101.3-58.5 101.3m351 0l-58.5-101.3-58.5 101.3m-117-202.7l117 202.8m-117 0l117-202.8m702 0l-58.5-101.3-58.5 101.3m0 202.7l-58.5-101.3-58.5 101.3m351 0l-58.5-101.3-58.5 101.3m-117-202.7l117 202.8m-117 0l117-202.8" fill="none" stroke="#666" stroke-width="20"/><g stroke="#000"><g fill="#ccc"><circle cx="642.7" cy="156.5" r="45"/><circle cx="525.7" cy="156.5" r="45"/><circle cx="584.2" cy="55.1" r="45"/><circle cx="525.7" cy="359.2" r="45"/><circle cx="408.7" cy="359.2" r="45"/><circle cx="467.2" cy="257.8" r="45"/><circle cx="759.7" cy="359.2" r="45"/><circle cx="642.7" cy="359.2" r="45"/><circle cx="701.2" cy="257.8" r="45"/><circle cx="291.7" cy="764.3" r="45"/><circle cx="174.7" cy="764.3" r="45"/><circle cx="233.2" cy="662.9" r="45"/><circle cx="174.7" cy="967" r="45"/><circle cx="57.7" cy="967" r="45"/><circle cx="116.2" cy="865.6" r="45"/><circle cx="408.7" cy="967" r="45"/><circle cx="291.7" cy="967" r="45"/><circle cx="350.2" cy="865.6" r="45"/><circle cx="993.7" cy="764.3" r="45"/><circle cx="876.7" cy="764.3" r="45"/><circle cx="935.2" cy="662.9" r="45"/><circle cx="876.7" cy="967" r="45"/><circle cx="759.7" cy="967" r="45"/><circle cx="818.2" cy="865.6" r="45"/><circle cx="1110.7" cy="967" r="45"/><circle cx="993.7" cy="967" r="45"/><circle cx="1052.2" cy="865.6" r="45"/></g><g fill="#bc1e46"><circle cx="584.2" cy="32.6" r="18"/><circle cx="525.7" cy="134" r="18"/><circle cx="642.7" cy="134" r="18"/><circle cx="701.2" cy="235.3" r="18"/><circle cx="642.7" cy="336.7" r="18"/><circle cx="759.7" cy="336.7" r="18"/><circle cx="467.2" cy="235.3" r="18"/><circle cx="408.7" cy="336.7" r="18"/><circle cx="525.7" cy="336.7" r="18"/><circle cx="954.7" cy="674.6" r="18"/><circle cx="896.2" cy="776" r="18"/><circle cx="1013.2" cy="776" r="18"/><circle cx="1071.7" cy="877.3" r="18"/><circle cx="1013.2" cy="978.7" r="18"/><circle cx="1130.2" cy="978.7" r="18"/><circle cx="837.7" cy="877.3" r="18"/><circle cx="779.2" cy="978.7" r="18"/><circle cx="896.2" cy="978.7" r="18"/><circle cx="213.7" cy="674.4" r="18"/><circle cx="155.2" cy="775.8" r="18"/><circle cx="272.2" cy="775.8" r="18"/><circle cx="330.7" cy="877.1" r="18"/><circle cx="272.2" cy="978.5" r="18"/><circle cx="389.2" cy="978.5" r="18"/><circle cx="96.7" cy="877.1" r="18"/><circle cx="38.2" cy="978.5" r="18"/><circle cx="155.2" cy="978.5" r="18"/></g><g fill="#fec200"><circle cx="584.2" cy="32.6" r="13.5"/><circle cx="525.7" cy="134" r="13.5"/><circle cx="642.7" cy="134" r="13.5"/><circle cx="389.1" cy="370.4" r="13.5"/><circle cx="506.2" cy="370.3" r="13.5"/><circle cx="447.7" cy="269" r="13.5"/><circle cx="779.2" cy="370.4" r="13.5"/><circle cx="720.6" cy="269" r="13.5"/><circle cx="662.1" cy="370.3" r="13.5"/><circle cx="233.2" cy="640.4" r="13.5"/><circle cx="174.7" cy="741.8" r="13.5"/><circle cx="291.7" cy="741.8" r="13.5"/><circle cx="38.1" cy="978.2" r="13.5"/><circle cx="155.2" cy="978.1" r="13.5"/><circle cx="96.7" cy="876.8" r="13.5"/><circle cx="428.2" cy="978.2" r="13.5"/><circle cx="369.6" cy="876.8" r="13.5"/><circle cx="311.1" cy="978.1" r="13.5"/><circle cx="935.2" cy="640.4" r="13.5"/><circle cx="876.7" cy="741.8" r="13.5"/><circle cx="993.7" cy="741.8" r="13.5"/><circle cx="740.1" cy="978.2" r="13.5"/><circle cx="857.2" cy="978.1" r="13.5"/><circle cx="798.7" cy="876.8" r="13.5"/><circle cx="1130.2" cy="978.2" r="13.5"/><circle cx="1071.6" cy="876.8" r="13.5"/><circle cx="1013.1" cy="978.1" r="13.5"/></g><g fill="#0081cd"><circle cx="662.2" cy="167.7" r="9"/><circle cx="506.2" cy="167.7" r="9"/><circle cx="584.2" cy="32.6" r="9"/><circle cx="545.2" cy="370.4" r="9"/><circle cx="389.2" cy="370.4" r="9"/><circle cx="467.2" cy="235.3" r="9"/><circle cx="779.2" cy="370.4" r="9"/><circle cx="623.2" cy="370.4" r="9"/><circle cx="701.2" cy="235.3" r="9"/><circle cx="311.2" cy="775.5" r="9"/><circle cx="155.2" cy="775.5" r="9"/><circle cx="233.2" cy="640.4" r="9"/><circle cx="194.2" cy="978.2" r="9"/><circle cx="38.2" cy="978.2" r="9"/><circle cx="116.2" cy="843.1" r="9"/><circle cx="428.2" cy="978.2" r="9"/><circle cx="272.2" cy="978.2" r="9"/><circle cx="350.2" cy="843.1" r="9"/><circle cx="1013.2" cy="775.5" r="9"/><circle cx="857.2" cy="775.5" r="9"/><circle cx="935.2" cy="640.4" r="9"/><circle cx="896.2" cy="978.2" r="9"/><circle cx="740.2" cy="978.2" r="9"/><circle cx="818.2" cy="843.1" r="9"/><circle cx="1130.2" cy="978.2" r="9"/><circle cx="974.2" cy="978.2" r="9"/><circle cx="1052.2" cy="843.1" r="9"/></g></g><circle cx="642.7" cy="134" r="3"/><circle cx="623.2" cy="167.7" r="3"/><circle cx="662.2" cy="167.7" r="3"/><circle cx="525.7" cy="134" r="3"/><circle cx="506.2" cy="167.7" r="3"/><circle cx="545.2" cy="167.7" r="3"/><circle cx="584.2" cy="32.6" r="3"/><circle cx="564.7" cy="66.4" r="3"/><circle cx="603.7" cy="66.4" r="3"/><circle cx="525.7" cy="336.7" r="3"/><circle cx="506.2" cy="370.4" r="3"/><circle cx="545.2" cy="370.4" r="3"/><circle cx="408.7" cy="336.7" r="3"/><circle cx="389.2" cy="370.4" r="3"/><circle cx="428.2" cy="370.4" r="3"/><circle cx="467.2" cy="235.3" r="3"/><circle cx="447.7" cy="269.1" r="3"/><circle cx="486.7" cy="269.1" r="3"/><circle cx="759.7" cy="336.7" r="3"/><circle cx="740.2" cy="370.4" r="3"/><circle cx="779.2" cy="370.4" r="3"/><circle cx="642.7" cy="336.7" r="3"/><circle cx="623.2" cy="370.4" r="3"/><circle cx="662.2" cy="370.4" r="3"/><circle cx="701.2" cy="235.3" r="3"/><circle cx="681.7" cy="269.1" r="3"/><circle cx="720.7" cy="269.1" r="3"/><circle cx="291.7" cy="741.8" r="3"/><circle cx="272.2" cy="775.5" r="3"/><circle cx="311.2" cy="775.5" r="3"/><circle cx="174.7" cy="741.8" r="3"/><circle cx="155.2" cy="775.5" r="3"/><circle cx="194.2" cy="775.5" r="3"/><circle cx="233.2" cy="640.4" r="3"/><circle cx="213.7" cy="674.2" r="3"/><circle cx="252.7" cy="674.2" r="3"/><circle cx="174.7" cy="944.5" r="3"/><circle cx="155.2" cy="978.2" r="3"/><circle cx="194.2" cy="978.2" r="3"/><circle cx="57.7" cy="944.5" r="3"/><circle cx="38.2" cy="978.2" r="3"/><circle cx="77.2" cy="978.2" r="3"/><circle cx="116.2" cy="843.1" r="3"/><circle cx="96.7" cy="876.9" r="3"/><circle cx="135.7" cy="876.9" r="3"/><circle cx="408.7" cy="944.5" r="3"/><circle cx="389.2" cy="978.2" r="3"/><circle cx="428.2" cy="978.2" r="3"/><circle cx="291.7" cy="944.5" r="3"/><circle cx="272.2" cy="978.2" r="3"/><circle cx="311.2" cy="978.2" r="3"/><circle cx="350.2" cy="843.1" r="3"/><circle cx="330.7" cy="876.9" r="3"/><circle cx="369.7" cy="876.9" r="3"/><circle cx="993.7" cy="741.8" r="3"/><circle cx="974.2" cy="775.5" r="3"/><circle cx="1013.2" cy="775.5" r="3"/><circle cx="876.7" cy="741.8" r="3"/><circle cx="857.2" cy="775.5" r="3"/><circle cx="896.2" cy="775.5" r="3"/><circle cx="935.2" cy="640.4" r="3"/><circle cx="915.7" cy="674.2" r="3"/><circle cx="954.7" cy="674.2" r="3"/><circle cx="876.7" cy="944.5" r="3"/><circle cx="857.2" cy="978.2" r="3"/><circle cx="896.2" cy="978.2" r="3"/><circle cx="759.7" cy="944.5" r="3"/><circle cx="740.2" cy="978.2" r="3"/><circle cx="779.2" cy="978.2" r="3"/><circle cx="818.2" cy="843.1" r="3"/><circle cx="798.7" cy="876.9" r="3"/><circle cx="837.7" cy="876.9" r="3"/><circle cx="1110.7" cy="944.5" r="3"/><circle cx="1091.2" cy="978.2" r="3"/><circle cx="1130.2" cy="978.2" r="3"/><circle cx="993.7" cy="944.5" r="3"/><circle cx="974.2" cy="978.2" r="3"/><circle cx="1013.2" cy="978.2" r="3"/><circle cx="1052.2" cy="843.1" r="3"/><circle cx="1032.7" cy="876.9" r="3"/><circle cx="1071.7" cy="876.9" r="3"/></svg>