<?xml version="1.0" encoding="UTF-8"?>
<svg id="Layer_1" xmlns="http://www.w3.org/2000/svg" version="1.1" viewBox="0 0 1166.8 1010.6">
  <!-- Generator: Adobe Illustrator 29.8.2, SVG Export Plug-In . SVG Version: 2.1.1 Build 3)  -->
  <g>
    <line x1="521" y1="129.5" x2="645.7" y2="345.5" fill="none" stroke="#000" stroke-miterlimit="10"/>
    <line x1="458.6" y1="237.5" x2="708" y2="237.5" fill="none" stroke="#000" stroke-miterlimit="10"/>
    <line x1="521" y1="345.5" x2="645.7" y2="129.5" fill="none" stroke="#000" stroke-miterlimit="10"/>
    <line x1="576.4" y1="57.5" x2="590.3" y2="33.5" fill="none" stroke="#000" stroke-miterlimit="10"/>
    <line x1="569.5" y1="45.5" x2="597.2" y2="45.5" fill="none" stroke="#000" stroke-miterlimit="10"/>
    <line x1="576.4" y1="33.5" x2="590.3" y2="57.5" fill="none" stroke="#000" stroke-miterlimit="10"/>
    <polygon points="583.3 21.5 576.4 33.5 590.3 33.5 583.3 21.5" fill="none" stroke="#000" stroke-miterlimit="10"/>
    <polygon points="597.2 45.5 590.3 57.5 604.1 57.5 597.2 45.5" fill="none" stroke="#000" stroke-miterlimit="10"/>
    <polygon points="569.5 45.5 562.5 57.5 576.4 57.5 569.5 45.5" fill="none" stroke="#000" stroke-miterlimit="10"/>
    <line x1="534.8" y1="129.5" x2="548.7" y2="105.5" fill="none" stroke="#000" stroke-miterlimit="10"/>
    <line x1="527.9" y1="117.5" x2="555.6" y2="117.5" fill="none" stroke="#000" stroke-miterlimit="10"/>
    <line x1="534.8" y1="105.5" x2="548.7" y2="129.5" fill="none" stroke="#000" stroke-miterlimit="10"/>
    <polygon points="541.8 93.5 534.8 105.5 548.7 105.5 541.8 93.5" fill="none" stroke="#000" stroke-miterlimit="10"/>
    <polygon points="555.6 117.5 548.7 129.5 562.5 129.5 555.6 117.5" fill="none" stroke="#000" stroke-miterlimit="10"/>
    <polygon points="527.9 117.5 521 129.5 534.8 129.5 527.9 117.5" fill="none" stroke="#000" stroke-miterlimit="10"/>
    <line x1="618" y1="129.5" x2="631.8" y2="105.5" fill="none" stroke="#000" stroke-miterlimit="10"/>
    <line x1="611" y1="117.5" x2="638.7" y2="117.5" fill="none" stroke="#000" stroke-miterlimit="10"/>
    <line x1="618" y1="105.5" x2="631.8" y2="129.5" fill="none" stroke="#000" stroke-miterlimit="10"/>
    <polygon points="624.9 93.5 618 105.5 631.8 105.5 624.9 93.5" fill="none" stroke="#000" stroke-miterlimit="10"/>
    <polygon points="638.7 117.5 631.8 129.5 645.7 129.5 638.7 117.5" fill="none" stroke="#000" stroke-miterlimit="10"/>
    <polygon points="611 117.5 604.1 129.5 618 129.5 611 117.5" fill="none" stroke="#000" stroke-miterlimit="10"/>
    <line x1="604.1" y1="57.5" x2="562.5" y2="129.5" fill="none" stroke="#000" stroke-miterlimit="10"/>
    <line x1="541.8" y1="93.5" x2="624.9" y2="93.5" fill="none" stroke="#000" stroke-miterlimit="10"/>
    <line x1="604.1" y1="129.5" x2="562.5" y2="57.5" fill="none" stroke="#000" stroke-miterlimit="10"/>
    <line x1="451.7" y1="273.5" x2="465.5" y2="249.5" fill="none" stroke="#000" stroke-miterlimit="10"/>
    <line x1="444.8" y1="261.5" x2="472.5" y2="261.5" fill="none" stroke="#000" stroke-miterlimit="10"/>
    <line x1="451.7" y1="249.5" x2="465.5" y2="273.5" fill="none" stroke="#000" stroke-miterlimit="10"/>
    <polygon points="458.6 237.5 451.7 249.5 465.5 249.5 458.6 237.5" fill="none" stroke="#000" stroke-miterlimit="10"/>
    <polygon points="472.5 261.5 465.5 273.5 479.4 273.5 472.5 261.5" fill="none" stroke="#000" stroke-miterlimit="10"/>
    <polygon points="444.8 261.5 437.8 273.5 451.7 273.5 444.8 261.5" fill="none" stroke="#000" stroke-miterlimit="10"/>
    <line x1="410.1" y1="345.5" x2="424" y2="321.5" fill="none" stroke="#000" stroke-miterlimit="10"/>
    <line x1="403.2" y1="333.5" x2="430.9" y2="333.5" fill="none" stroke="#000" stroke-miterlimit="10"/>
    <line x1="410.1" y1="321.5" x2="424" y2="345.5" fill="none" stroke="#000" stroke-miterlimit="10"/>
    <polygon points="417 309.5 410.1 321.5 424 321.5 417 309.5" fill="none" stroke="#000" stroke-miterlimit="10"/>
    <polygon points="430.9 333.5 424 345.5 437.8 345.5 430.9 333.5" fill="none" stroke="#000" stroke-miterlimit="10"/>
    <polygon points="403.2 333.5 396.3 345.5 410.1 345.5 403.2 333.5" fill="none" stroke="#000" stroke-miterlimit="10"/>
    <line x1="493.3" y1="345.5" x2="507.1" y2="321.5" fill="none" stroke="#000" stroke-miterlimit="10"/>
    <line x1="486.3" y1="333.5" x2="514" y2="333.5" fill="none" stroke="#000" stroke-miterlimit="10"/>
    <line x1="493.3" y1="321.5" x2="507.1" y2="345.5" fill="none" stroke="#000" stroke-miterlimit="10"/>
    <polygon points="500.2 309.5 493.3 321.5 507.1 321.5 500.2 309.5" fill="none" stroke="#000" stroke-miterlimit="10"/>
    <polygon points="514 333.5 507.1 345.5 521 345.5 514 333.5" fill="none" stroke="#000" stroke-miterlimit="10"/>
    <polygon points="486.3 333.5 479.4 345.5 493.3 345.5 486.3 333.5" fill="none" stroke="#000" stroke-miterlimit="10"/>
    <line x1="479.4" y1="273.5" x2="437.8" y2="345.5" fill="none" stroke="#000" stroke-miterlimit="10"/>
    <line x1="417" y1="309.5" x2="500.2" y2="309.5" fill="none" stroke="#000" stroke-miterlimit="10"/>
    <line x1="479.4" y1="345.5" x2="437.8" y2="273.5" fill="none" stroke="#000" stroke-miterlimit="10"/>
    <line x1="701.1" y1="273.5" x2="715" y2="249.5" fill="none" stroke="#000" stroke-miterlimit="10"/>
    <line x1="694.2" y1="261.5" x2="721.9" y2="261.5" fill="none" stroke="#000" stroke-miterlimit="10"/>
    <line x1="701.1" y1="249.5" x2="715" y2="273.5" fill="none" stroke="#000" stroke-miterlimit="10"/>
    <polygon points="708 237.5 701.1 249.5 715 249.5 708 237.5" fill="none" stroke="#000" stroke-miterlimit="10"/>
    <polygon points="721.9 261.5 715 273.5 728.8 273.5 721.9 261.5" fill="none" stroke="#000" stroke-miterlimit="10"/>
    <polygon points="694.2 261.5 687.2 273.5 701.1 273.5 694.2 261.5" fill="none" stroke="#000" stroke-miterlimit="10"/>
    <line x1="659.5" y1="345.5" x2="673.4" y2="321.5" fill="none" stroke="#000" stroke-miterlimit="10"/>
    <line x1="652.6" y1="333.5" x2="680.3" y2="333.5" fill="none" stroke="#000" stroke-miterlimit="10"/>
    <line x1="659.5" y1="321.5" x2="673.4" y2="345.5" fill="none" stroke="#000" stroke-miterlimit="10"/>
    <polygon points="666.5 309.5 659.5 321.5 673.4 321.5 666.5 309.5" fill="none" stroke="#000" stroke-miterlimit="10"/>
    <polygon points="680.3 333.5 673.4 345.5 687.2 345.5 680.3 333.5" fill="none" stroke="#000" stroke-miterlimit="10"/>
    <polygon points="652.6 333.5 645.7 345.5 659.5 345.5 652.6 333.5" fill="none" stroke="#000" stroke-miterlimit="10"/>
    <line x1="742.7" y1="345.5" x2="756.5" y2="321.5" fill="none" stroke="#000" stroke-miterlimit="10"/>
    <line x1="735.7" y1="333.5" x2="763.5" y2="333.5" fill="none" stroke="#000" stroke-miterlimit="10"/>
    <line x1="742.7" y1="321.5" x2="756.5" y2="345.5" fill="none" stroke="#000" stroke-miterlimit="10"/>
    <polygon points="749.6 309.5 742.7 321.5 756.5 321.5 749.6 309.5" fill="none" stroke="#000" stroke-miterlimit="10"/>
    <polygon points="763.5 333.5 756.5 345.5 770.4 345.5 763.5 333.5" fill="none" stroke="#000" stroke-miterlimit="10"/>
    <polygon points="735.7 333.5 728.8 345.5 742.7 345.5 735.7 333.5" fill="none" stroke="#000" stroke-miterlimit="10"/>
    <line x1="728.8" y1="273.5" x2="687.2" y2="345.5" fill="none" stroke="#000" stroke-miterlimit="10"/>
    <line x1="666.5" y1="309.5" x2="749.6" y2="309.5" fill="none" stroke="#000" stroke-miterlimit="10"/>
    <line x1="728.8" y1="345.5" x2="687.2" y2="273.5" fill="none" stroke="#000" stroke-miterlimit="10"/>
    <line x1="146.9" y1="777.5" x2="271.6" y2="993.5" fill="none" stroke="#000" stroke-miterlimit="10"/>
    <line x1="84.5" y1="885.5" x2="333.9" y2="885.5" fill="none" stroke="#000" stroke-miterlimit="10"/>
    <line x1="146.9" y1="993.5" x2="271.6" y2="777.5" fill="none" stroke="#000" stroke-miterlimit="10"/>
    <line x1="202.3" y1="705.5" x2="216.1" y2="681.5" fill="none" stroke="#000" stroke-miterlimit="10"/>
    <line x1="195.3" y1="693.5" x2="223.1" y2="693.5" fill="none" stroke="#000" stroke-miterlimit="10"/>
    <line x1="202.3" y1="681.5" x2="216.1" y2="705.5" fill="none" stroke="#000" stroke-miterlimit="10"/>
    <polygon points="209.2 669.5 202.3 681.5 216.1 681.5 209.2 669.5" fill="none" stroke="#000" stroke-miterlimit="10"/>
    <polygon points="223.1 693.5 216.1 705.5 230 705.5 223.1 693.5" fill="none" stroke="#000" stroke-miterlimit="10"/>
    <polygon points="195.3 693.5 188.4 705.5 202.3 705.5 195.3 693.5" fill="none" stroke="#000" stroke-miterlimit="10"/>
    <line x1="160.7" y1="777.5" x2="174.6" y2="753.5" fill="none" stroke="#000" stroke-miterlimit="10"/>
    <line x1="153.8" y1="765.5" x2="181.5" y2="765.5" fill="none" stroke="#000" stroke-miterlimit="10"/>
    <line x1="160.7" y1="753.5" x2="174.6" y2="777.5" fill="none" stroke="#000" stroke-miterlimit="10"/>
    <polygon points="167.6 741.5 160.7 753.5 174.6 753.5 167.6 741.5" fill="none" stroke="#000" stroke-miterlimit="10"/>
    <polygon points="181.5 765.5 174.6 777.5 188.4 777.5 181.5 765.5" fill="none" stroke="#000" stroke-miterlimit="10"/>
    <polygon points="153.8 765.5 146.9 777.5 160.7 777.5 153.8 765.5" fill="none" stroke="#000" stroke-miterlimit="10"/>
    <line x1="243.8" y1="777.5" x2="257.7" y2="753.5" fill="none" stroke="#000" stroke-miterlimit="10"/>
    <line x1="236.9" y1="765.5" x2="264.6" y2="765.5" fill="none" stroke="#000" stroke-miterlimit="10"/>
    <line x1="243.8" y1="753.5" x2="257.7" y2="777.5" fill="none" stroke="#000" stroke-miterlimit="10"/>
    <polygon points="250.8 741.5 243.8 753.5 257.7 753.5 250.8 741.5" fill="none" stroke="#000" stroke-miterlimit="10"/>
    <polygon points="264.6 765.5 257.7 777.5 271.6 777.5 264.6 765.5" fill="none" stroke="#000" stroke-miterlimit="10"/>
    <polygon points="236.9 765.5 230 777.5 243.8 777.5 236.9 765.5" fill="none" stroke="#000" stroke-miterlimit="10"/>
    <line x1="230" y1="705.5" x2="188.4" y2="777.5" fill="none" stroke="#000" stroke-miterlimit="10"/>
    <line x1="167.6" y1="741.5" x2="250.8" y2="741.5" fill="none" stroke="#000" stroke-miterlimit="10"/>
    <line x1="230" y1="777.5" x2="188.4" y2="705.5" fill="none" stroke="#000" stroke-miterlimit="10"/>
    <line x1="77.6" y1="921.5" x2="91.4" y2="897.5" fill="none" stroke="#000" stroke-miterlimit="10"/>
    <line x1="70.6" y1="909.5" x2="98.4" y2="909.5" fill="none" stroke="#000" stroke-miterlimit="10"/>
    <line x1="77.6" y1="897.5" x2="91.4" y2="921.5" fill="none" stroke="#000" stroke-miterlimit="10"/>
    <polygon points="84.5 885.5 77.6 897.5 91.4 897.5 84.5 885.5" fill="none" stroke="#000" stroke-miterlimit="10"/>
    <polygon points="98.4 909.5 91.4 921.5 105.3 921.5 98.4 909.5" fill="none" stroke="#000" stroke-miterlimit="10"/>
    <polygon points="70.6 909.5 63.7 921.5 77.6 921.5 70.6 909.5" fill="none" stroke="#000" stroke-miterlimit="10"/>
    <line x1="36" y1="993.5" x2="49.9" y2="969.5" fill="none" stroke="#000" stroke-miterlimit="10"/>
    <line x1="29.1" y1="981.5" x2="56.8" y2="981.5" fill="none" stroke="#000" stroke-miterlimit="10"/>
    <line x1="36" y1="969.5" x2="49.9" y2="993.5" fill="none" stroke="#000" stroke-miterlimit="10"/>
    <polygon points="42.9 957.5 36 969.5 49.9 969.5 42.9 957.5" fill="none" stroke="#000" stroke-miterlimit="10"/>
    <polygon points="56.8 981.5 49.9 993.5 63.7 993.5 56.8 981.5" fill="none" stroke="#000" stroke-miterlimit="10"/>
    <polygon points="29.1 981.5 22.1 993.5 36 993.5 29.1 981.5" fill="none" stroke="#000" stroke-miterlimit="10"/>
    <line x1="119.1" y1="993.5" x2="133" y2="969.5" fill="none" stroke="#000" stroke-miterlimit="10"/>
    <line x1="112.2" y1="981.5" x2="139.9" y2="981.5" fill="none" stroke="#000" stroke-miterlimit="10"/>
    <line x1="119.1" y1="969.5" x2="133" y2="993.5" fill="none" stroke="#000" stroke-miterlimit="10"/>
    <polygon points="126.1 957.5 119.1 969.5 133 969.5 126.1 957.5" fill="none" stroke="#000" stroke-miterlimit="10"/>
    <polygon points="139.9 981.5 133 993.5 146.9 993.5 139.9 981.5" fill="none" stroke="#000" stroke-miterlimit="10"/>
    <polygon points="112.2 981.5 105.3 993.5 119.1 993.5 112.2 981.5" fill="none" stroke="#000" stroke-miterlimit="10"/>
    <line x1="105.3" y1="921.5" x2="63.7" y2="993.5" fill="none" stroke="#000" stroke-miterlimit="10"/>
    <line x1="42.9" y1="957.5" x2="126.1" y2="957.5" fill="none" stroke="#000" stroke-miterlimit="10"/>
    <line x1="105.3" y1="993.5" x2="63.7" y2="921.5" fill="none" stroke="#000" stroke-miterlimit="10"/>
    <line x1="327" y1="921.5" x2="340.8" y2="897.5" fill="none" stroke="#000" stroke-miterlimit="10"/>
    <line x1="320.1" y1="909.5" x2="347.8" y2="909.5" fill="none" stroke="#000" stroke-miterlimit="10"/>
    <line x1="327" y1="897.5" x2="340.8" y2="921.5" fill="none" stroke="#000" stroke-miterlimit="10"/>
    <polygon points="333.9 885.5 327 897.5 340.8 897.5 333.9 885.5" fill="none" stroke="#000" stroke-miterlimit="10"/>
    <polygon points="347.8 909.5 340.8 921.5 354.7 921.5 347.8 909.5" fill="none" stroke="#000" stroke-miterlimit="10"/>
    <polygon points="320.1 909.5 313.1 921.5 327 921.5 320.1 909.5" fill="none" stroke="#000" stroke-miterlimit="10"/>
    <line x1="285.4" y1="993.5" x2="299.3" y2="969.5" fill="none" stroke="#000" stroke-miterlimit="10"/>
    <line x1="278.5" y1="981.5" x2="306.2" y2="981.5" fill="none" stroke="#000" stroke-miterlimit="10"/>
    <line x1="285.4" y1="969.5" x2="299.3" y2="993.5" fill="none" stroke="#000" stroke-miterlimit="10"/>
    <polygon points="292.3 957.5 285.4 969.5 299.3 969.5 292.3 957.5" fill="none" stroke="#000" stroke-miterlimit="10"/>
    <polygon points="306.2 981.5 299.3 993.5 313.1 993.5 306.2 981.5" fill="none" stroke="#000" stroke-miterlimit="10"/>
    <polygon points="278.5 981.5 271.6 993.5 285.4 993.5 278.5 981.5" fill="none" stroke="#000" stroke-miterlimit="10"/>
    <line x1="368.6" y1="993.5" x2="382.4" y2="969.5" fill="none" stroke="#000" stroke-miterlimit="10"/>
    <line x1="361.6" y1="981.5" x2="389.3" y2="981.5" fill="none" stroke="#000" stroke-miterlimit="10"/>
    <line x1="368.6" y1="969.5" x2="382.4" y2="993.5" fill="none" stroke="#000" stroke-miterlimit="10"/>
    <polygon points="375.5 957.5 368.6 969.5 382.4 969.5 375.5 957.5" fill="none" stroke="#000" stroke-miterlimit="10"/>
    <polygon points="389.3 981.5 382.4 993.5 396.3 993.5 389.3 981.5" fill="none" stroke="#000" stroke-miterlimit="10"/>
    <polygon points="361.6 981.5 354.7 993.5 368.6 993.5 361.6 981.5" fill="none" stroke="#000" stroke-miterlimit="10"/>
    <line x1="354.7" y1="921.5" x2="313.1" y2="993.5" fill="none" stroke="#000" stroke-miterlimit="10"/>
    <line x1="292.3" y1="957.5" x2="375.5" y2="957.5" fill="none" stroke="#000" stroke-miterlimit="10"/>
    <line x1="354.7" y1="993.5" x2="313.1" y2="921.5" fill="none" stroke="#000" stroke-miterlimit="10"/>
    <line x1="895.1" y1="777.5" x2="1019.8" y2="993.5" fill="none" stroke="#000" stroke-miterlimit="10"/>
    <line x1="832.7" y1="885.5" x2="1082.1" y2="885.5" fill="none" stroke="#000" stroke-miterlimit="10"/>
    <line x1="895.1" y1="993.5" x2="1019.8" y2="777.5" fill="none" stroke="#000" stroke-miterlimit="10"/>
    <line x1="950.5" y1="705.5" x2="964.4" y2="681.5" fill="none" stroke="#000" stroke-miterlimit="10"/>
    <line x1="943.6" y1="693.5" x2="971.3" y2="693.5" fill="none" stroke="#000" stroke-miterlimit="10"/>
    <line x1="950.5" y1="681.5" x2="964.4" y2="705.5" fill="none" stroke="#000" stroke-miterlimit="10"/>
    <polygon points="957.4 669.5 950.5 681.5 964.4 681.5 957.4 669.5" fill="none" stroke="#000" stroke-miterlimit="10"/>
    <polygon points="971.3 693.5 964.4 705.5 978.2 705.5 971.3 693.5" fill="none" stroke="#000" stroke-miterlimit="10"/>
    <polygon points="943.6 693.5 936.7 705.5 950.5 705.5 943.6 693.5" fill="none" stroke="#000" stroke-miterlimit="10"/>
    <line x1="908.9" y1="777.5" x2="922.8" y2="753.5" fill="none" stroke="#000" stroke-miterlimit="10"/>
    <line x1="902" y1="765.5" x2="929.7" y2="765.5" fill="none" stroke="#000" stroke-miterlimit="10"/>
    <line x1="908.9" y1="753.5" x2="922.8" y2="777.5" fill="none" stroke="#000" stroke-miterlimit="10"/>
    <polygon points="915.9 741.5 908.9 753.5 922.8 753.5 915.9 741.5" fill="none" stroke="#000" stroke-miterlimit="10"/>
    <polygon points="929.7 765.5 922.8 777.5 936.7 777.5 929.7 765.5" fill="none" stroke="#000" stroke-miterlimit="10"/>
    <polygon points="902 765.5 895.1 777.5 908.9 777.5 902 765.5" fill="none" stroke="#000" stroke-miterlimit="10"/>
    <line x1="992.1" y1="777.5" x2="1005.9" y2="753.5" fill="none" stroke="#000" stroke-miterlimit="10"/>
    <line x1="985.2" y1="765.5" x2="1012.9" y2="765.5" fill="none" stroke="#000" stroke-miterlimit="10"/>
    <line x1="992.1" y1="753.5" x2="1005.9" y2="777.5" fill="none" stroke="#000" stroke-miterlimit="10"/>
    <polygon points="999 741.5 992.1 753.5 1005.9 753.5 999 741.5" fill="none" stroke="#000" stroke-miterlimit="10"/>
    <polygon points="1012.9 765.5 1005.9 777.5 1019.8 777.5 1012.9 765.5" fill="none" stroke="#000" stroke-miterlimit="10"/>
    <polygon points="985.2 765.5 978.2 777.5 992.1 777.5 985.2 765.5" fill="none" stroke="#000" stroke-miterlimit="10"/>
    <line x1="978.2" y1="705.5" x2="936.7" y2="777.5" fill="none" stroke="#000" stroke-miterlimit="10"/>
    <line x1="915.9" y1="741.5" x2="999" y2="741.5" fill="none" stroke="#000" stroke-miterlimit="10"/>
    <line x1="978.2" y1="777.5" x2="936.7" y2="705.5" fill="none" stroke="#000" stroke-miterlimit="10"/>
    <line x1="825.8" y1="921.5" x2="839.7" y2="897.5" fill="none" stroke="#000" stroke-miterlimit="10"/>
    <line x1="818.9" y1="909.5" x2="846.6" y2="909.5" fill="none" stroke="#000" stroke-miterlimit="10"/>
    <line x1="825.8" y1="897.5" x2="839.7" y2="921.5" fill="none" stroke="#000" stroke-miterlimit="10"/>
    <polygon points="832.7 885.5 825.8 897.5 839.7 897.5 832.7 885.5" fill="none" stroke="#000" stroke-miterlimit="10"/>
    <polygon points="846.6 909.5 839.7 921.5 853.5 921.5 846.6 909.5" fill="none" stroke="#000" stroke-miterlimit="10"/>
    <polygon points="818.9 909.5 812 921.5 825.8 921.5 818.9 909.5" fill="none" stroke="#000" stroke-miterlimit="10"/>
    <line x1="784.2" y1="993.5" x2="798.1" y2="969.5" fill="none" stroke="#000" stroke-miterlimit="10"/>
    <line x1="777.3" y1="981.5" x2="805" y2="981.5" fill="none" stroke="#000" stroke-miterlimit="10"/>
    <line x1="784.2" y1="969.5" x2="798.1" y2="993.5" fill="none" stroke="#000" stroke-miterlimit="10"/>
    <polygon points="791.2 957.5 784.2 969.5 798.1 969.5 791.2 957.5" fill="none" stroke="#000" stroke-miterlimit="10"/>
    <polygon points="805 981.5 798.1 993.5 812 993.5 805 981.5" fill="none" stroke="#000" stroke-miterlimit="10"/>
    <polygon points="777.3 981.5 770.4 993.5 784.2 993.5 777.3 981.5" fill="none" stroke="#000" stroke-miterlimit="10"/>
    <line x1="867.4" y1="993.5" x2="881.2" y2="969.5" fill="none" stroke="#000" stroke-miterlimit="10"/>
    <line x1="860.4" y1="981.5" x2="888.2" y2="981.5" fill="none" stroke="#000" stroke-miterlimit="10"/>
    <line x1="867.4" y1="969.5" x2="881.2" y2="993.5" fill="none" stroke="#000" stroke-miterlimit="10"/>
    <polygon points="874.3 957.5 867.4 969.5 881.2 969.5 874.3 957.5" fill="none" stroke="#000" stroke-miterlimit="10"/>
    <polygon points="888.2 981.5 881.2 993.5 895.1 993.5 888.2 981.5" fill="none" stroke="#000" stroke-miterlimit="10"/>
    <polygon points="860.4 981.5 853.5 993.5 867.4 993.5 860.4 981.5" fill="none" stroke="#000" stroke-miterlimit="10"/>
    <line x1="853.5" y1="921.5" x2="812" y2="993.5" fill="none" stroke="#000" stroke-miterlimit="10"/>
    <line x1="791.2" y1="957.5" x2="874.3" y2="957.5" fill="none" stroke="#000" stroke-miterlimit="10"/>
    <line x1="853.5" y1="993.5" x2="812" y2="921.5" fill="none" stroke="#000" stroke-miterlimit="10"/>
    <line x1="1075.2" y1="921.5" x2="1089.1" y2="897.5" fill="none" stroke="#000" stroke-miterlimit="10"/>
    <line x1="1068.3" y1="909.5" x2="1096" y2="909.5" fill="none" stroke="#000" stroke-miterlimit="10"/>
    <line x1="1075.2" y1="897.5" x2="1089.1" y2="921.5" fill="none" stroke="#000" stroke-miterlimit="10"/>
    <polygon points="1082.1 885.5 1075.2 897.5 1089.1 897.5 1082.1 885.5" fill="none" stroke="#000" stroke-miterlimit="10"/>
    <polygon points="1096 909.5 1089.1 921.5 1102.9 921.5 1096 909.5" fill="none" stroke="#000" stroke-miterlimit="10"/>
    <polygon points="1068.3 909.5 1061.4 921.5 1075.2 921.5 1068.3 909.5" fill="none" stroke="#000" stroke-miterlimit="10"/>
    <line x1="1033.7" y1="993.5" x2="1047.5" y2="969.5" fill="none" stroke="#000" stroke-miterlimit="10"/>
    <line x1="1026.7" y1="981.5" x2="1054.4" y2="981.5" fill="none" stroke="#000" stroke-miterlimit="10"/>
    <line x1="1033.7" y1="969.5" x2="1047.5" y2="993.5" fill="none" stroke="#000" stroke-miterlimit="10"/>
    <polygon points="1040.6 957.5 1033.7 969.5 1047.5 969.5 1040.6 957.5" fill="none" stroke="#000" stroke-miterlimit="10"/>
    <polygon points="1054.4 981.5 1047.5 993.5 1061.4 993.5 1054.4 981.5" fill="none" stroke="#000" stroke-miterlimit="10"/>
    <polygon points="1026.7 981.5 1019.8 993.5 1033.7 993.5 1026.7 981.5" fill="none" stroke="#000" stroke-miterlimit="10"/>
    <line x1="1116.8" y1="993.5" x2="1130.6" y2="969.5" fill="none" stroke="#000" stroke-miterlimit="10"/>
    <line x1="1109.9" y1="981.5" x2="1137.6" y2="981.5" fill="none" stroke="#000" stroke-miterlimit="10"/>
    <line x1="1116.8" y1="969.5" x2="1130.6" y2="993.5" fill="none" stroke="#000" stroke-miterlimit="10"/>
    <polygon points="1123.7 957.5 1116.8 969.5 1130.6 969.5 1123.7 957.5" fill="none" stroke="#000" stroke-miterlimit="10"/>
    <polygon points="1137.6 981.5 1130.6 993.5 1144.5 993.5 1137.6 981.5" fill="none" stroke="#000" stroke-miterlimit="10"/>
    <polygon points="1109.9 981.5 1102.9 993.5 1116.8 993.5 1109.9 981.5" fill="none" stroke="#000" stroke-miterlimit="10"/>
    <line x1="1102.9" y1="921.5" x2="1061.4" y2="993.5" fill="none" stroke="#000" stroke-miterlimit="10"/>
    <line x1="1040.6" y1="957.5" x2="1123.7" y2="957.5" fill="none" stroke="#000" stroke-miterlimit="10"/>
    <line x1="1102.9" y1="993.5" x2="1061.4" y2="921.5" fill="none" stroke="#000" stroke-miterlimit="10"/>
    <line x1="209.2" y1="669.5" x2="957.4" y2="669.5" fill="none" stroke="#000" stroke-miterlimit="10"/>
    <line x1="396.3" y1="345.5" x2="770.4" y2="993.5" fill="none" stroke="#000" stroke-miterlimit="10"/>
    <line x1="770.4" y1="345.5" x2="396.3" y2="993.5" fill="none" stroke="#000" stroke-miterlimit="10"/>
  </g>
  <g>
    <circle cx="576.4" cy="33.5" r="3" fill="#bc1e46"/>
    <circle cx="583.3" cy="21.5" r="3" fill="#bc1e46"/>
    <circle cx="590.3" cy="33.5" r="3" fill="#bc1e46"/>
    <circle cx="590.3" cy="57.5" r="3" fill="#bc1e46"/>
    <circle cx="597.2" cy="45.5" r="3" fill="#bc1e46"/>
    <circle cx="604.1" cy="57.5" r="3" fill="#bc1e46"/>
    <circle cx="562.5" cy="57.5" r="3" fill="#bc1e46"/>
    <circle cx="569.5" cy="45.5" r="3" fill="#bc1e46"/>
    <circle cx="576.4" cy="57.5" r="3" fill="#bc1e46"/>
    <circle cx="534.8" cy="105.5" r="3" fill="#bc1e46"/>
    <circle cx="541.8" cy="93.5" r="3" fill="#bc1e46"/>
    <circle cx="548.7" cy="105.5" r="3" fill="#bc1e46"/>
    <circle cx="548.7" cy="129.5" r="3" fill="#bc1e46"/>
    <circle cx="555.6" cy="117.5" r="3" fill="#bc1e46"/>
    <circle cx="562.5" cy="129.5" r="3" fill="#bc1e46"/>
    <circle cx="521" cy="129.5" r="3" fill="#bc1e46"/>
    <circle cx="527.9" cy="117.5" r="3" fill="#bc1e46"/>
    <circle cx="534.8" cy="129.5" r="3" fill="#bc1e46"/>
    <circle cx="618" cy="105.5" r="3" fill="#bc1e46"/>
    <circle cx="624.9" cy="93.5" r="3" fill="#bc1e46"/>
    <circle cx="631.8" cy="105.5" r="3" fill="#bc1e46"/>
    <circle cx="631.8" cy="129.5" r="3" fill="#bc1e46"/>
    <circle cx="638.7" cy="117.5" r="3" fill="#bc1e46"/>
    <circle cx="645.7" cy="129.5" r="3" fill="#bc1e46"/>
    <circle cx="604.1" cy="129.5" r="3" fill="#bc1e46"/>
    <circle cx="611" cy="117.5" r="3" fill="#bc1e46"/>
    <circle cx="618" cy="129.5" r="3" fill="#bc1e46"/>
    <circle cx="451.7" cy="249.5" r="3" fill="#bc1e46"/>
    <circle cx="458.6" cy="237.5" r="3" fill="#bc1e46"/>
    <circle cx="465.5" cy="249.5" r="3" fill="#bc1e46"/>
    <circle cx="465.5" cy="273.5" r="3" fill="#bc1e46"/>
    <circle cx="472.5" cy="261.5" r="3" fill="#bc1e46"/>
    <circle cx="479.4" cy="273.5" r="3" fill="#bc1e46"/>
    <circle cx="437.8" cy="273.5" r="3" fill="#bc1e46"/>
    <circle cx="444.8" cy="261.5" r="3" fill="#bc1e46"/>
    <circle cx="451.7" cy="273.5" r="3" fill="#bc1e46"/>
    <circle cx="410.1" cy="321.5" r="3" fill="#bc1e46"/>
    <circle cx="417" cy="309.5" r="3" fill="#bc1e46"/>
    <circle cx="424" cy="321.5" r="3" fill="#bc1e46"/>
    <circle cx="424" cy="345.5" r="3" fill="#bc1e46"/>
    <circle cx="430.9" cy="333.5" r="3" fill="#bc1e46"/>
    <circle cx="437.8" cy="345.5" r="3" fill="#bc1e46"/>
    <circle cx="396.3" cy="345.5" r="3" fill="#bc1e46"/>
    <circle cx="403.2" cy="333.5" r="3" fill="#bc1e46"/>
    <circle cx="410.1" cy="345.5" r="3" fill="#bc1e46"/>
    <circle cx="493.3" cy="321.5" r="3" fill="#bc1e46"/>
    <circle cx="500.2" cy="309.5" r="3" fill="#bc1e46"/>
    <circle cx="507.1" cy="321.5" r="3" fill="#bc1e46"/>
    <circle cx="507.1" cy="345.5" r="3" fill="#bc1e46"/>
    <circle cx="514" cy="333.5" r="3" fill="#bc1e46"/>
    <circle cx="521" cy="345.5" r="3" fill="#bc1e46"/>
    <circle cx="479.4" cy="345.5" r="3" fill="#bc1e46"/>
    <circle cx="486.3" cy="333.5" r="3" fill="#bc1e46"/>
    <circle cx="493.3" cy="345.5" r="3" fill="#bc1e46"/>
    <circle cx="701.1" cy="249.5" r="3" fill="#bc1e46"/>
    <circle cx="708" cy="237.5" r="3" fill="#bc1e46"/>
    <circle cx="715" cy="249.5" r="3" fill="#bc1e46"/>
    <circle cx="715" cy="273.5" r="3" fill="#bc1e46"/>
    <circle cx="721.9" cy="261.5" r="3" fill="#bc1e46"/>
    <circle cx="728.8" cy="273.5" r="3" fill="#bc1e46"/>
    <circle cx="687.2" cy="273.5" r="3" fill="#bc1e46"/>
    <circle cx="694.2" cy="261.5" r="3" fill="#bc1e46"/>
    <circle cx="701.1" cy="273.5" r="3" fill="#bc1e46"/>
    <circle cx="659.5" cy="321.5" r="3" fill="#bc1e46"/>
    <circle cx="666.5" cy="309.5" r="3" fill="#bc1e46"/>
    <circle cx="673.4" cy="321.5" r="3" fill="#bc1e46"/>
    <circle cx="673.4" cy="345.5" r="3" fill="#bc1e46"/>
    <circle cx="680.3" cy="333.5" r="3" fill="#bc1e46"/>
    <circle cx="687.2" cy="345.5" r="3" fill="#bc1e46"/>
    <circle cx="645.7" cy="345.5" r="3" fill="#bc1e46"/>
    <circle cx="652.6" cy="333.5" r="3" fill="#bc1e46"/>
    <circle cx="659.5" cy="345.5" r="3" fill="#bc1e46"/>
    <circle cx="742.7" cy="321.5" r="3" fill="#bc1e46"/>
    <circle cx="749.6" cy="309.5" r="3" fill="#bc1e46"/>
    <circle cx="756.5" cy="321.5" r="3" fill="#bc1e46"/>
    <circle cx="756.5" cy="345.5" r="3" fill="#bc1e46"/>
    <circle cx="763.5" cy="333.5" r="3" fill="#bc1e46"/>
    <circle cx="770.4" cy="345.5" r="3" fill="#bc1e46"/>
    <circle cx="728.8" cy="345.5" r="3" fill="#bc1e46"/>
    <circle cx="735.7" cy="333.5" r="3" fill="#bc1e46"/>
    <circle cx="742.7" cy="345.5" r="3" fill="#bc1e46"/>
    <circle cx="202.3" cy="681.5" r="3" fill="#bc1e46"/>
    <circle cx="209.2" cy="669.5" r="3" fill="#bc1e46"/>
    <circle cx="216.1" cy="681.5" r="3" fill="#bc1e46"/>
    <circle cx="216.1" cy="705.5" r="3" fill="#bc1e46"/>
    <circle cx="223.1" cy="693.5" r="3" fill="#bc1e46"/>
    <circle cx="230" cy="705.5" r="3" fill="#bc1e46"/>
    <circle cx="188.4" cy="705.5" r="3" fill="#bc1e46"/>
    <circle cx="195.3" cy="693.5" r="3" fill="#bc1e46"/>
    <circle cx="202.3" cy="705.5" r="3" fill="#bc1e46"/>
    <circle cx="160.7" cy="753.5" r="3" fill="#bc1e46"/>
    <circle cx="167.6" cy="741.5" r="3" fill="#bc1e46"/>
    <circle cx="174.6" cy="753.5" r="3" fill="#bc1e46"/>
    <circle cx="174.6" cy="777.5" r="3" fill="#bc1e46"/>
    <circle cx="181.5" cy="765.5" r="3" fill="#bc1e46"/>
    <circle cx="188.4" cy="777.5" r="3" fill="#bc1e46"/>
    <circle cx="146.9" cy="777.5" r="3" fill="#bc1e46"/>
    <circle cx="153.8" cy="765.5" r="3" fill="#bc1e46"/>
    <circle cx="160.7" cy="777.5" r="3" fill="#bc1e46"/>
    <circle cx="243.8" cy="753.5" r="3" fill="#bc1e46"/>
    <circle cx="250.8" cy="741.5" r="3" fill="#bc1e46"/>
    <circle cx="257.7" cy="753.5" r="3" fill="#bc1e46"/>
    <circle cx="257.7" cy="777.5" r="3" fill="#bc1e46"/>
    <circle cx="264.6" cy="765.5" r="3" fill="#bc1e46"/>
    <circle cx="271.6" cy="777.5" r="3" fill="#bc1e46"/>
    <circle cx="230" cy="777.5" r="3" fill="#bc1e46"/>
    <circle cx="236.9" cy="765.5" r="3" fill="#bc1e46"/>
    <circle cx="243.8" cy="777.5" r="3" fill="#bc1e46"/>
    <circle cx="77.6" cy="897.5" r="3" fill="#bc1e46"/>
    <circle cx="84.5" cy="885.5" r="3" fill="#bc1e46"/>
    <circle cx="91.4" cy="897.5" r="3" fill="#bc1e46"/>
    <circle cx="91.4" cy="921.5" r="3" fill="#bc1e46"/>
    <circle cx="98.4" cy="909.5" r="3" fill="#bc1e46"/>
    <circle cx="105.3" cy="921.5" r="3" fill="#bc1e46"/>
    <circle cx="63.7" cy="921.5" r="3" fill="#bc1e46"/>
    <circle cx="70.6" cy="909.5" r="3" fill="#bc1e46"/>
    <circle cx="77.6" cy="921.5" r="3" fill="#bc1e46"/>
    <circle cx="36" cy="969.5" r="3" fill="#bc1e46"/>
    <circle cx="42.9" cy="957.5" r="3" fill="#bc1e46"/>
    <circle cx="49.9" cy="969.5" r="3" fill="#bc1e46"/>
    <circle cx="49.9" cy="993.5" r="3" fill="#bc1e46"/>
    <circle cx="56.8" cy="981.5" r="3" fill="#bc1e46"/>
    <circle cx="63.7" cy="993.5" r="3" fill="#bc1e46"/>
    <circle cx="22.1" cy="993.5" r="3" fill="#bc1e46"/>
    <circle cx="29.1" cy="981.5" r="3" fill="#bc1e46"/>
    <circle cx="36" cy="993.5" r="3" fill="#bc1e46"/>
    <circle cx="119.1" cy="969.5" r="3" fill="#bc1e46"/>
    <circle cx="126.1" cy="957.5" r="3" fill="#bc1e46"/>
    <circle cx="133" cy="969.5" r="3" fill="#bc1e46"/>
    <circle cx="133" cy="993.5" r="3" fill="#bc1e46"/>
    <circle cx="139.9" cy="981.5" r="3" fill="#bc1e46"/>
    <circle cx="146.9" cy="993.5" r="3" fill="#bc1e46"/>
    <circle cx="105.3" cy="993.5" r="3" fill="#bc1e46"/>
    <circle cx="112.2" cy="981.5" r="3" fill="#bc1e46"/>
    <circle cx="119.1" cy="993.5" r="3" fill="#bc1e46"/>
    <circle cx="327" cy="897.5" r="3" fill="#bc1e46"/>
    <circle cx="333.9" cy="885.5" r="3" fill="#bc1e46"/>
    <circle cx="340.8" cy="897.5" r="3" fill="#bc1e46"/>
    <circle cx="340.8" cy="921.5" r="3" fill="#bc1e46"/>
    <circle cx="347.8" cy="909.5" r="3" fill="#bc1e46"/>
    <circle cx="354.7" cy="921.5" r="3" fill="#bc1e46"/>
    <circle cx="313.1" cy="921.5" r="3" fill="#bc1e46"/>
    <circle cx="320.1" cy="909.5" r="3" fill="#bc1e46"/>
    <circle cx="327" cy="921.5" r="3" fill="#bc1e46"/>
    <circle cx="285.4" cy="969.5" r="3" fill="#bc1e46"/>
    <circle cx="292.3" cy="957.5" r="3" fill="#bc1e46"/>
    <circle cx="299.3" cy="969.5" r="3" fill="#bc1e46"/>
    <circle cx="299.3" cy="993.5" r="3" fill="#bc1e46"/>
    <circle cx="306.2" cy="981.5" r="3" fill="#bc1e46"/>
    <circle cx="313.1" cy="993.5" r="3" fill="#bc1e46"/>
    <circle cx="271.6" cy="993.5" r="3" fill="#bc1e46"/>
    <circle cx="278.5" cy="981.5" r="3" fill="#bc1e46"/>
    <circle cx="285.4" cy="993.5" r="3" fill="#bc1e46"/>
    <circle cx="368.6" cy="969.5" r="3" fill="#bc1e46"/>
    <circle cx="375.5" cy="957.5" r="3" fill="#bc1e46"/>
    <circle cx="382.4" cy="969.5" r="3" fill="#bc1e46"/>
    <circle cx="382.4" cy="993.5" r="3" fill="#bc1e46"/>
    <circle cx="389.3" cy="981.5" r="3" fill="#bc1e46"/>
    <circle cx="396.3" cy="993.5" r="3" fill="#bc1e46"/>
    <circle cx="354.7" cy="993.5" r="3" fill="#bc1e46"/>
    <circle cx="361.6" cy="981.5" r="3" fill="#bc1e46"/>
    <circle cx="368.6" cy="993.5" r="3" fill="#bc1e46"/>
    <circle cx="950.5" cy="681.5" r="3" fill="#bc1e46"/>
    <circle cx="957.4" cy="669.5" r="3" fill="#bc1e46"/>
    <circle cx="964.4" cy="681.5" r="3" fill="#bc1e46"/>
    <circle cx="964.4" cy="705.5" r="3" fill="#bc1e46"/>
    <circle cx="971.3" cy="693.5" r="3" fill="#bc1e46"/>
    <circle cx="978.2" cy="705.5" r="3" fill="#bc1e46"/>
    <circle cx="936.7" cy="705.5" r="3" fill="#bc1e46"/>
    <circle cx="943.6" cy="693.5" r="3" fill="#bc1e46"/>
    <circle cx="950.5" cy="705.5" r="3" fill="#bc1e46"/>
    <circle cx="908.9" cy="753.5" r="3" fill="#bc1e46"/>
    <circle cx="915.9" cy="741.5" r="3" fill="#bc1e46"/>
    <circle cx="922.8" cy="753.5" r="3" fill="#bc1e46"/>
    <circle cx="922.8" cy="777.5" r="3" fill="#bc1e46"/>
    <circle cx="929.7" cy="765.5" r="3" fill="#bc1e46"/>
    <circle cx="936.7" cy="777.5" r="3" fill="#bc1e46"/>
    <circle cx="895.1" cy="777.5" r="3" fill="#bc1e46"/>
    <circle cx="902" cy="765.5" r="3" fill="#bc1e46"/>
    <circle cx="908.9" cy="777.5" r="3" fill="#bc1e46"/>
    <circle cx="992.1" cy="753.5" r="3" fill="#bc1e46"/>
    <circle cx="999" cy="741.5" r="3" fill="#bc1e46"/>
    <circle cx="1005.9" cy="753.5" r="3" fill="#bc1e46"/>
    <circle cx="1005.9" cy="777.5" r="3" fill="#bc1e46"/>
    <circle cx="1012.9" cy="765.5" r="3" fill="#bc1e46"/>
    <circle cx="1019.8" cy="777.5" r="3" fill="#bc1e46"/>
    <circle cx="978.2" cy="777.5" r="3" fill="#bc1e46"/>
    <circle cx="985.2" cy="765.5" r="3" fill="#bc1e46"/>
    <circle cx="992.1" cy="777.5" r="3" fill="#bc1e46"/>
    <circle cx="825.8" cy="897.5" r="3" fill="#bc1e46"/>
    <circle cx="832.7" cy="885.5" r="3" fill="#bc1e46"/>
    <circle cx="839.7" cy="897.5" r="3" fill="#bc1e46"/>
    <circle cx="839.7" cy="921.5" r="3" fill="#bc1e46"/>
    <circle cx="846.6" cy="909.5" r="3" fill="#bc1e46"/>
    <circle cx="853.5" cy="921.5" r="3" fill="#bc1e46"/>
    <circle cx="812" cy="921.5" r="3" fill="#bc1e46"/>
    <circle cx="818.9" cy="909.5" r="3" fill="#bc1e46"/>
    <circle cx="825.8" cy="921.5" r="3" fill="#bc1e46"/>
    <circle cx="784.2" cy="969.5" r="3" fill="#bc1e46"/>
    <circle cx="791.2" cy="957.5" r="3" fill="#bc1e46"/>
    <circle cx="798.1" cy="969.5" r="3" fill="#bc1e46"/>
    <circle cx="798.1" cy="993.5" r="3" fill="#bc1e46"/>
    <circle cx="805" cy="981.5" r="3" fill="#bc1e46"/>
    <circle cx="812" cy="993.5" r="3" fill="#bc1e46"/>
    <circle cx="770.4" cy="993.5" r="3" fill="#bc1e46"/>
    <circle cx="777.3" cy="981.5" r="3" fill="#bc1e46"/>
    <circle cx="784.2" cy="993.5" r="3" fill="#bc1e46"/>
    <circle cx="867.4" cy="969.5" r="3" fill="#bc1e46"/>
    <circle cx="874.3" cy="957.5" r="3" fill="#bc1e46"/>
    <circle cx="881.2" cy="969.5" r="3" fill="#bc1e46"/>
    <circle cx="881.2" cy="993.5" r="3" fill="#bc1e46"/>
    <circle cx="888.2" cy="981.5" r="3" fill="#bc1e46"/>
    <circle cx="895.1" cy="993.5" r="3" fill="#bc1e46"/>
    <circle cx="853.5" cy="993.5" r="3" fill="#bc1e46"/>
    <circle cx="860.4" cy="981.5" r="3" fill="#bc1e46"/>
    <circle cx="867.4" cy="993.5" r="3" fill="#bc1e46"/>
    <circle cx="1075.2" cy="897.5" r="3" fill="#bc1e46"/>
    <circle cx="1082.1" cy="885.5" r="3" fill="#bc1e46"/>
    <circle cx="1089.1" cy="897.5" r="3" fill="#bc1e46"/>
    <circle cx="1089.1" cy="921.5" r="3" fill="#bc1e46"/>
    <circle cx="1096" cy="909.5" r="3" fill="#bc1e46"/>
    <circle cx="1102.9" cy="921.5" r="3" fill="#bc1e46"/>
    <circle cx="1061.4" cy="921.5" r="3" fill="#bc1e46"/>
    <circle cx="1068.3" cy="909.5" r="3" fill="#bc1e46"/>
    <circle cx="1075.2" cy="921.5" r="3" fill="#bc1e46"/>
    <circle cx="1033.7" cy="969.5" r="3" fill="#bc1e46"/>
    <circle cx="1040.6" cy="957.5" r="3" fill="#bc1e46"/>
    <circle cx="1047.5" cy="969.5" r="3" fill="#bc1e46"/>
    <circle cx="1047.5" cy="993.5" r="3" fill="#bc1e46"/>
    <circle cx="1054.4" cy="981.5" r="3" fill="#bc1e46"/>
    <circle cx="1061.4" cy="993.5" r="3" fill="#bc1e46"/>
    <circle cx="1019.8" cy="993.5" r="3" fill="#bc1e46"/>
    <circle cx="1026.7" cy="981.5" r="3" fill="#bc1e46"/>
    <circle cx="1033.7" cy="993.5" r="3" fill="#bc1e46"/>
    <circle cx="1116.8" cy="969.5" r="3" fill="#bc1e46"/>
    <circle cx="1123.7" cy="957.5" r="3" fill="#bc1e46"/>
    <circle cx="1130.6" cy="969.5" r="3" fill="#bc1e46"/>
    <circle cx="1130.6" cy="993.5" r="3" fill="#bc1e46"/>
    <circle cx="1137.6" cy="981.5" r="3" fill="#bc1e46"/>
    <circle cx="1144.5" cy="993.5" r="3" fill="#bc1e46"/>
    <circle cx="1102.9" cy="993.5" r="3" fill="#bc1e46"/>
    <circle cx="1109.9" cy="981.5" r="3" fill="#bc1e46"/>
    <circle cx="1116.8" cy="993.5" r="3" fill="#bc1e46"/>
  </g>
</svg>