<svg xmlns="http://www.w3.org/2000/svg" width="920.6" height="812.3"><path d="M635.2 759.8h117m-351 0h117m-351 0h117m117-405.3h117m-117-202.6l-58.5 101.3m234 0l-58.5-101.3M459.7 50.5l-58.5 101.3h117L459.7 50.5zm-234 405.3l58.5-101.3m58.5-101.3l-58.5 101.3h117l-58.5-101.3zm292.5 101.3l58.5 101.3m-117-202.6l-58.5 101.3h117l-58.5-101.3zm-468 405.3l58.5-101.3m117 0l58.5 101.3m-117-202.7l-58.5 101.3h117l-58.5-101.3zm-117 202.7L50.2 759.8h117l-58.5-101.3zm234 0l-58.5 101.3h117l-58.5-101.3zm234 0l58.5-101.3m175.5 101.3l-58.5-101.3m-58.5-101.4l-58.5 101.3h117l-58.5-101.3zm-117 202.7l-58.5 101.3h117l-58.5-101.3zm234 0l-58.5 101.3h117l-58.5-101.3z" fill="none" stroke="#666" stroke-width="20"/><g stroke="#000"><g fill="#ccc"><circle cx="518.2" cy="151.9" r="45"/><circle cx="401.2" cy="151.9" r="45"/><circle cx="459.7" cy="50.5" r="45"/><circle cx="401.2" cy="354.5" r="45"/><circle cx="284.2" cy="354.5" r="45"/><circle cx="342.7" cy="253.2" r="45"/><circle cx="635.2" cy="354.5" r="45"/><circle cx="518.2" cy="354.5" r="45"/><circle cx="576.7" cy="253.2" r="45"/><circle cx="284.2" cy="557.2" r="45"/><circle cx="167.2" cy="557.2" r="45"/><circle cx="225.7" cy="455.8" r="45"/><circle cx="167.2" cy="759.8" r="45"/><circle cx="50.2" cy="759.8" r="45"/><circle cx="108.7" cy="658.5" r="45"/><circle cx="401.2" cy="759.8" r="45"/><circle cx="284.2" cy="759.8" r="45"/><circle cx="342.7" cy="658.5" r="45"/><circle cx="752.2" cy="557.2" r="45"/><circle cx="635.2" cy="557.2" r="45"/><circle cx="693.7" cy="455.8" r="45"/><circle cx="635.2" cy="759.8" r="45"/><circle cx="518.2" cy="759.8" r="45"/><circle cx="576.7" cy="658.5" r="45"/><circle cx="869.2" cy="759.8" r="45"/><circle cx="752.2" cy="759.8" r="45"/><circle cx="810.7" cy="658.5" r="45"/></g><g fill="#bc1e46"><circle cx="518.2" cy="129.4" r="18"/><circle cx="401.2" cy="129.4" r="18"/><circle cx="459.7" cy="28" r="18"/><circle cx="401.2" cy="332" r="18"/><circle cx="284.2" cy="332" r="18"/><circle cx="342.7" cy="230.7" r="18"/><circle cx="635.2" cy="332" r="18"/><circle cx="518.2" cy="332" r="18"/><circle cx="576.7" cy="230.7" r="18"/><circle cx="264.7" cy="568.4" r="18"/><circle cx="147.7" cy="568.4" r="18"/><circle cx="206.2" cy="467.1" r="18"/><circle cx="147.7" cy="771.1" r="18"/><circle cx="30.7" cy="771.1" r="18"/><circle cx="89.2" cy="669.7" r="18"/><circle cx="381.7" cy="771.1" r="18"/><circle cx="264.7" cy="771.1" r="18"/><circle cx="323.2" cy="669.7" r="18"/><circle cx="771.7" cy="568.4" r="18"/><circle cx="654.7" cy="568.4" r="18"/><circle cx="713.2" cy="467.1" r="18"/><circle cx="654.7" cy="771.1" r="18"/><circle cx="537.7" cy="771.1" r="18"/><circle cx="596.2" cy="669.7" r="18"/><circle cx="888.7" cy="771.1" r="18"/><circle cx="771.7" cy="771.1" r="18"/><circle cx="830.2" cy="669.7" r="18"/></g><g fill="#fec200"><circle cx="518.2" cy="129.4" r="13.5"/><circle cx="401.2" cy="129.4" r="13.5"/><circle cx="459.7" cy="28" r="13.5"/><circle cx="420.7" cy="365.8" r="13.5"/><circle cx="303.7" cy="365.8" r="13.5"/><circle cx="362.2" cy="264.4" r="13.5"/><circle cx="615.7" cy="365.8" r="13.5"/><circle cx="498.7" cy="365.8" r="13.5"/><circle cx="557.2" cy="264.4" r="13.5"/><circle cx="303.7" cy="568.4" r="13.5"/><circle cx="186.7" cy="568.4" r="13.5"/><circle cx="245.2" cy="467.1" r="13.5"/><circle cx="147.7" cy="771.1" r="13.5"/><circle cx="30.7" cy="771.1" r="13.5"/><circle cx="89.2" cy="669.7" r="13.5"/><circle cx="401.2" cy="737.3" r="13.5"/><circle cx="284.2" cy="737.3" r="13.5"/><circle cx="342.7" cy="636" r="13.5"/><circle cx="732.7" cy="568.4" r="13.5"/><circle cx="615.7" cy="568.4" r="13.5"/><circle cx="674.2" cy="467.1" r="13.5"/><circle cx="635.2" cy="737.3" r="13.5"/><circle cx="518.2" cy="737.3" r="13.5"/><circle cx="576.7" cy="636" r="13.5"/><circle cx="888.7" cy="771.1" r="13.5"/><circle cx="771.7" cy="771.1" r="13.5"/><circle cx="830.2" cy="669.7" r="13.5"/></g><g fill="#0081cd"><circle cx="537.7" cy="163.1" r="9"/><circle cx="381.7" cy="163.1" r="9"/><circle cx="459.7" cy="28" r="9"/><circle cx="401.2" cy="332" r="9"/><circle cx="303.7" cy="365.8" r="9"/><circle cx="323.2" cy="264.4" r="9"/><circle cx="615.7" cy="365.8" r="9"/><circle cx="518.2" cy="332" r="9"/><circle cx="596.2" cy="264.4" r="9"/><circle cx="264.7" cy="568.4" r="9"/><circle cx="167.2" cy="534.7" r="9"/><circle cx="245.2" cy="467.1" r="9"/><circle cx="186.7" cy="771.1" r="9"/><circle cx="30.7" cy="771.1" r="9"/><circle cx="108.7" cy="636" r="9"/><circle cx="401.2" cy="737.3" r="9"/><circle cx="303.7" cy="771.1" r="9"/><circle cx="323.2" cy="669.7" r="9"/><circle cx="752.2" cy="534.7" r="9"/><circle cx="654.7" cy="568.4" r="9"/><circle cx="674.2" cy="467.1" r="9"/><circle cx="615.7" cy="771.1" r="9"/><circle cx="518.2" cy="737.3" r="9"/><circle cx="596.2" cy="669.7" r="9"/><circle cx="888.7" cy="771.1" r="9"/><circle cx="732.7" cy="771.1" r="9"/><circle cx="810.7" cy="636" r="9"/></g></g><circle cx="518.2" cy="129.4" r="3"/><circle cx="498.7" cy="163.1" r="3"/><circle cx="537.7" cy="163.1" r="3"/><circle cx="401.2" cy="129.4" r="3"/><circle cx="381.7" cy="163.1" r="3"/><circle cx="420.7" cy="163.1" r="3"/><circle cx="459.7" cy="28" r="3"/><circle cx="440.2" cy="61.8" r="3"/><circle cx="479.2" cy="61.8" r="3"/><circle cx="401.2" cy="332" r="3"/><circle cx="381.7" cy="365.8" r="3"/><circle cx="420.7" cy="365.8" r="3"/><circle cx="284.2" cy="332" r="3"/><circle cx="264.7" cy="365.8" r="3"/><circle cx="303.7" cy="365.8" r="3"/><circle cx="342.7" cy="230.7" r="3"/><circle cx="323.2" cy="264.4" r="3"/><circle cx="362.2" cy="264.4" r="3"/><circle cx="635.2" cy="332" r="3"/><circle cx="615.7" cy="365.8" r="3"/><circle cx="654.7" cy="365.8" r="3"/><circle cx="518.2" cy="332" r="3"/><circle cx="498.7" cy="365.8" r="3"/><circle cx="537.7" cy="365.8" r="3"/><circle cx="576.7" cy="230.7" r="3"/><circle cx="557.2" cy="264.4" r="3"/><circle cx="596.2" cy="264.4" r="3"/><circle cx="284.2" cy="534.7" r="3"/><circle cx="264.7" cy="568.4" r="3"/><circle cx="303.7" cy="568.4" r="3"/><circle cx="167.2" cy="534.7" r="3"/><circle cx="147.7" cy="568.4" r="3"/><circle cx="186.7" cy="568.4" r="3"/><circle cx="225.7" cy="433.3" r="3"/><circle cx="206.2" cy="467.1" r="3"/><circle cx="245.2" cy="467.1" r="3"/><circle cx="167.2" cy="737.3" r="3"/><circle cx="147.7" cy="771.1" r="3"/><circle cx="186.7" cy="771.1" r="3"/><circle cx="50.2" cy="737.3" r="3"/><circle cx="30.7" cy="771.1" r="3"/><circle cx="69.7" cy="771.1" r="3"/><circle cx="108.7" cy="636" r="3"/><circle cx="89.2" cy="669.7" r="3"/><circle cx="128.2" cy="669.7" r="3"/><circle cx="401.2" cy="737.3" r="3"/><circle cx="381.7" cy="771.1" r="3"/><circle cx="420.7" cy="771.1" r="3"/><circle cx="284.2" cy="737.3" r="3"/><circle cx="264.7" cy="771.1" r="3"/><circle cx="303.7" cy="771.1" r="3"/><circle cx="342.7" cy="636" r="3"/><circle cx="323.2" cy="669.7" r="3"/><circle cx="362.2" cy="669.7" r="3"/><circle cx="752.2" cy="534.7" r="3"/><circle cx="732.7" cy="568.4" r="3"/><circle cx="771.7" cy="568.4" r="3"/><circle cx="635.2" cy="534.7" r="3"/><circle cx="615.7" cy="568.4" r="3"/><circle cx="654.7" cy="568.4" r="3"/><circle cx="693.7" cy="433.3" r="3"/><circle cx="674.2" cy="467.1" r="3"/><circle cx="635.2" cy="737.3" r="3"/><circle cx="615.7" cy="771.1" r="3"/><circle cx="654.7" cy="771.1" r="3"/><circle cx="518.2" cy="737.3" r="3"/><circle cx="498.7" cy="771.1" r="3"/><circle cx="537.7" cy="771.1" r="3"/><circle cx="576.7" cy="636" r="3"/><circle cx="557.2" cy="669.7" r="3"/><circle cx="596.2" cy="669.7" r="3"/><circle cx="869.2" cy="737.3" r="3"/><circle cx="849.7" cy="771.1" r="3"/><circle cx="888.7" cy="771.1" r="3"/><circle cx="752.2" cy="737.3" r="3"/><circle cx="732.7" cy="771.1" r="3"/><circle cx="771.7" cy="771.1" r="3"/><circle cx="810.7" cy="636" r="3"/><circle cx="791.2" cy="669.7" r="3"/><circle cx="830.2" cy="669.7" r="3"/><circle cx="713.2" cy="467.1" r="3"/></svg>