<svg xmlns="http://www.w3.org/2000/svg" width="2931.4" height="1072.3"><path d="M492.2 1009c0-537.6 435.9-973.5 973.5-973.5s973.5 435.9 973.5 973.5m-1618.5 0c0-180.6-146.4-327-327-327s-327 146.4-327 327m1626 0c0-180.6-146.4-327-327-327s-327 146.4-327 327m1626 0c0-180.6-146.4-327-327-327s-327 146.4-327 327m-2052 0h2811" fill="none" stroke="#666" stroke-width="20"/><path d="M2872.7 1009c0-61.3-49.7-111-111-111s-111 49.7-111 111m-102 0c0-61.3-49.7-111-111-111s-111 49.7-111 111m-102 0c0-61.3-49.7-111-111-111s-111 49.7-111 111m-102 0c0-61.3-49.7-111-111-111s-111 49.7-111 111m-102 0c0-61.3-49.7-111-111-111s-111 49.7-111 111m-102 0c0-61.3-49.7-111-111-111s-111 49.7-111 111m-102 0c0-61.3-49.7-111-111-111s-111 49.7-111 111m-102 0c0-61.3-49.7-111-111-111s-111 49.7-111 111m-102 0c0-61.3-49.7-111-111-111s-111 49.7-111 111" fill="none" stroke="#666" stroke-width="20"/><g stroke="#000"><g fill="#ccc"><circle cx="1573.7" cy="1009" r="45"/><circle cx="1357.7" cy="1009" r="45"/><circle cx="1465.7" cy="1009" r="45"/><circle cx="1681.7" cy="1009" r="45"/><circle cx="1897.7" cy="1009" r="45"/><circle cx="1789.7" cy="1009" r="45"/><circle cx="1033.7" cy="1009" r="45"/><circle cx="1249.7" cy="1009" r="45"/><circle cx="1141.7" cy="1009" r="45"/><circle cx="385.7" cy="1009" r="45"/><circle cx="601.7" cy="1009" r="45"/><circle cx="493.7" cy="1009" r="45"/><circle cx="277.7" cy="1009" r="45"/><circle cx="61.7" cy="1009" r="45"/><circle cx="169.7" cy="1009" r="45"/><circle cx="925.7" cy="1009" r="45"/><circle cx="709.7" cy="1009" r="45"/><circle cx="817.7" cy="1009" r="45"/><circle cx="2329.7" cy="1009" r="45"/><circle cx="2545.7" cy="1009" r="45"/><circle cx="2437.7" cy="1009" r="45"/><circle cx="2221.7" cy="1009" r="45"/><circle cx="2005.7" cy="1009" r="45"/><circle cx="2113.7" cy="1009" r="45"/><circle cx="2869.7" cy="1009" r="45"/><circle cx="2653.7" cy="1009" r="45"/><circle cx="2761.7" cy="1009" r="45"/></g><g fill="#bc1e46"><circle cx="1465.7" cy="986.5" r="18"/><circle cx="1357.7" cy="986.5" r="18"/><circle cx="1573.7" cy="986.5" r="18"/><circle cx="1141.7" cy="986.6" r="18"/><circle cx="1249.7" cy="986.6" r="18"/><circle cx="1033.7" cy="986.6" r="18"/><circle cx="1789.7" cy="986.6" r="18"/><circle cx="1897.7" cy="986.6" r="18"/><circle cx="1681.7" cy="986.6" r="18"/><circle cx="2457.2" cy="1020.7" r="18"/><circle cx="2565.2" cy="1020.7" r="18"/><circle cx="2349.2" cy="1020.7" r="18"/><circle cx="2781.2" cy="1020.8" r="18"/><circle cx="2673.2" cy="1020.8" r="18"/><circle cx="2889.2" cy="1020.8" r="18"/><circle cx="2133.2" cy="1020.8" r="18"/><circle cx="2025.2" cy="1020.8" r="18"/><circle cx="2241.2" cy="1020.8" r="18"/><circle cx="474.2" cy="1020.5" r="18"/><circle cx="582.2" cy="1020.5" r="18"/><circle cx="366.2" cy="1020.5" r="18"/><circle cx="798.2" cy="1020.5" r="18"/><circle cx="690.2" cy="1020.5" r="18"/><circle cx="906.2" cy="1020.5" r="18"/><circle cx="150.2" cy="1020.5" r="18"/><circle cx="42.2" cy="1020.5" r="18"/><circle cx="258.2" cy="1020.5" r="18"/></g><g fill="#fec200"><circle cx="1465.7" cy="986.5" r="13.5"/><circle cx="1357.7" cy="986.5" r="13.5"/><circle cx="1573.7" cy="986.5" r="13.5"/><circle cx="1878.2" cy="1020.2" r="13.5"/><circle cx="1662.3" cy="1020.2" r="13.5"/><circle cx="1770.3" cy="1020.3" r="13.5"/><circle cx="1053.3" cy="1020.2" r="13.5"/><circle cx="1161.2" cy="1020.3" r="13.5"/><circle cx="1269.2" cy="1020.2" r="13.5"/><circle cx="493.7" cy="986.5" r="13.5"/><circle cx="601.7" cy="986.5" r="13.5"/><circle cx="385.7" cy="986.5" r="13.5"/><circle cx="42.2" cy="1020.2" r="13.5"/><circle cx="258.3" cy="1020.2" r="13.5"/><circle cx="150.3" cy="1020.3" r="13.5"/><circle cx="945.3" cy="1020.2" r="13.5"/><circle cx="837.2" cy="1020.3" r="13.5"/><circle cx="729.2" cy="1020.2" r="13.5"/><circle cx="2437.7" cy="986.5" r="13.5"/><circle cx="2545.7" cy="986.5" r="13.5"/><circle cx="2329.7" cy="986.5" r="13.5"/><circle cx="1986.2" cy="1020.2" r="13.5"/><circle cx="2202.3" cy="1020.2" r="13.5"/><circle cx="2094.3" cy="1020.3" r="13.5"/><circle cx="2889.3" cy="1020.2" r="13.5"/><circle cx="2781.2" cy="1020.3" r="13.5"/><circle cx="2673.2" cy="1020.2" r="13.5"/></g><g fill="#0081cd"><circle cx="1593.2" cy="1020.2" r="9"/><circle cx="1338.2" cy="1020.2" r="9"/><circle cx="1465.7" cy="986.5" r="9"/><circle cx="1701.2" cy="1020.2" r="9"/><circle cx="1878.2" cy="1020.2" r="9"/><circle cx="1789.7" cy="986.5" r="9"/><circle cx="1053.2" cy="1020.2" r="9"/><circle cx="1230.2" cy="1020.2" r="9"/><circle cx="1141.7" cy="986.5" r="9"/><circle cx="405.2" cy="1020.2" r="9"/><circle cx="582.2" cy="1020.2" r="9"/><circle cx="493.7" cy="986.5" r="9"/><circle cx="297.2" cy="1020.2" r="9"/><circle cx="42.2" cy="1020.2" r="9"/><circle cx="169.7" cy="986.5" r="9"/><circle cx="945.2" cy="1020.2" r="9"/><circle cx="690.2" cy="1020.2" r="9"/><circle cx="817.7" cy="986.5" r="9"/><circle cx="2349.2" cy="1020.2" r="9"/><circle cx="2526.2" cy="1020.2" r="9"/><circle cx="2437.7" cy="986.5" r="9"/><circle cx="2241.2" cy="1020.2" r="9"/><circle cx="1986.2" cy="1020.2" r="9"/><circle cx="2113.7" cy="986.5" r="9"/><circle cx="2889.2" cy="1020.2" r="9"/><circle cx="2634.2" cy="1020.2" r="9"/><circle cx="2761.7" cy="986.5" r="9"/></g></g><circle cx="1573.7" cy="986.5" r="3"/><circle cx="1554.2" cy="1020.2" r="3"/><circle cx="1593.2" cy="1020.2" r="3"/><circle cx="1357.7" cy="986.5" r="3"/><circle cx="1338.2" cy="1020.2" r="3"/><circle cx="1377.2" cy="1020.2" r="3"/><circle cx="1465.7" cy="986.5" r="3"/><circle cx="1446.2" cy="1020.3" r="3"/><circle cx="1485.2" cy="1020.3" r="3"/><circle cx="1681.7" cy="986.5" r="3"/><circle cx="1662.2" cy="1020.2" r="3"/><circle cx="1701.2" cy="1020.2" r="3"/><circle cx="1897.7" cy="986.5" r="3"/><circle cx="1878.2" cy="1020.2" r="3"/><circle cx="1917.2" cy="1020.2" r="3"/><circle cx="1789.7" cy="986.5" r="3"/><circle cx="1770.2" cy="1020.3" r="3"/><circle cx="1809.2" cy="1020.3" r="3"/><circle cx="1033.7" cy="986.5" r="3"/><circle cx="1014.2" cy="1020.2" r="3"/><circle cx="1053.2" cy="1020.2" r="3"/><circle cx="1249.7" cy="986.5" r="3"/><circle cx="1230.2" cy="1020.2" r="3"/><circle cx="1269.2" cy="1020.2" r="3"/><circle cx="1141.7" cy="986.5" r="3"/><circle cx="1122.2" cy="1020.3" r="3"/><circle cx="1161.2" cy="1020.3" r="3"/><circle cx="385.7" cy="986.5" r="3"/><circle cx="366.2" cy="1020.2" r="3"/><circle cx="405.2" cy="1020.2" r="3"/><circle cx="601.7" cy="986.5" r="3"/><circle cx="582.2" cy="1020.2" r="3"/><circle cx="621.2" cy="1020.2" r="3"/><circle cx="493.7" cy="986.5" r="3"/><circle cx="474.2" cy="1020.3" r="3"/><circle cx="513.2" cy="1020.3" r="3"/><circle cx="277.7" cy="986.5" r="3"/><circle cx="258.2" cy="1020.2" r="3"/><circle cx="297.2" cy="1020.2" r="3"/><circle cx="61.7" cy="986.5" r="3"/><circle cx="42.2" cy="1020.2" r="3"/><circle cx="81.2" cy="1020.2" r="3"/><circle cx="169.7" cy="986.5" r="3"/><circle cx="150.2" cy="1020.3" r="3"/><circle cx="189.2" cy="1020.3" r="3"/><circle cx="925.7" cy="986.5" r="3"/><circle cx="906.2" cy="1020.2" r="3"/><circle cx="945.2" cy="1020.2" r="3"/><circle cx="709.7" cy="986.5" r="3"/><circle cx="690.2" cy="1020.2" r="3"/><circle cx="729.2" cy="1020.2" r="3"/><circle cx="817.7" cy="986.5" r="3"/><circle cx="798.2" cy="1020.3" r="3"/><circle cx="837.2" cy="1020.3" r="3"/><circle cx="2329.7" cy="986.5" r="3"/><circle cx="2310.2" cy="1020.2" r="3"/><circle cx="2349.2" cy="1020.2" r="3"/><circle cx="2545.7" cy="986.5" r="3"/><circle cx="2526.2" cy="1020.2" r="3"/><circle cx="2565.2" cy="1020.2" r="3"/><circle cx="2437.7" cy="986.5" r="3"/><circle cx="2418.2" cy="1020.3" r="3"/><circle cx="2457.2" cy="1020.3" r="3"/><circle cx="2221.7" cy="986.5" r="3"/><circle cx="2202.2" cy="1020.2" r="3"/><circle cx="2241.2" cy="1020.2" r="3"/><circle cx="2005.7" cy="986.5" r="3"/><circle cx="1986.2" cy="1020.2" r="3"/><circle cx="2025.2" cy="1020.2" r="3"/><circle cx="2113.7" cy="986.5" r="3"/><circle cx="2094.2" cy="1020.3" r="3"/><circle cx="2133.2" cy="1020.3" r="3"/><circle cx="2869.7" cy="986.5" r="3"/><circle cx="2850.2" cy="1020.2" r="3"/><circle cx="2889.2" cy="1020.2" r="3"/><circle cx="2653.7" cy="986.5" r="3"/><circle cx="2634.2" cy="1020.2" r="3"/><circle cx="2673.2" cy="1020.2" r="3"/><circle cx="2761.7" cy="986.5" r="3"/><circle cx="2742.2" cy="1020.3" r="3"/><circle cx="2781.2" cy="1020.3" r="3"/></svg>