<svg xmlns="http://www.w3.org/2000/svg" width="936" height="504">
    <path d="M72 0v504M144 0v504M216 0v504M288 0v504M360 0v504M432 0v504M504 0v504M576 0v504M648 0v504M720 0v504M792 0v504M864 0v504M0 72h936M0 144h936M0 216h936M0 288h936M0 360h936M0 432h936" fill="none" stroke="#AAD5EF"/>
    <path d="M72 144V81.053M576 360v-62.947M72 288l65.599-65.599M648 144l65.599-65.599M360 216l67.951-135.903M576 288l67.951-135.903M288 216l-65.599 65.599M864 216l-65.599 65.599M288 432l-65.599-65.599M720 288l-65.599-65.599M72 360l65.599 65.599M792 72l65.599 65.599M144 72v62.947M864 144v62.947M792 288h-62.947M216 72h62.947M288 144h-62.947M720 72h62.947" fill="none" stroke="#000" stroke-width="2"/>
    <path d="M72 72c1.581 4.26 4.277 9.545 7.134 12.821L72 82.241l-7.132 2.581C67.724 81.545 70.421 76.26 72 72zm504 216c1.58 4.26 4.277 9.545 7.134 12.821L576 298.24l-7.133 2.581c2.858-3.276 5.554-8.561 7.133-12.821zm-432-72c-1.895 4.13-3.725 9.773-4.021 14.11l-3.22-6.869-6.868-3.219c4.336-.296 9.98-2.126 14.109-4.022zM720 72c-1.895 4.13-3.725 9.774-4.021 14.11l-3.22-6.869-6.868-3.219c4.337-.296 9.98-2.126 14.109-4.022zm-288 0c-.491 4.517-.442 10.45.646 14.658l-5.227-5.498-7.533-.882c4.021-1.653 8.797-5.174 12.114-8.278zm216 72c-.491 4.517-.443 10.45.646 14.658l-5.227-5.498-7.533-.882c4.021-1.653 8.797-5.174 12.114-8.278zM216 288c1.895-4.13 3.725-9.773 4.021-14.11l3.22 6.869 6.868 3.219c-4.336.296-9.98 2.126-14.109 4.022zm576 0c1.895-4.13 3.725-9.773 4.021-14.11l3.22 6.869 6.868 3.219c-4.337.296-9.98 2.126-14.109 4.022zm-576 72c4.13 1.895 9.774 3.725 14.11 4.021l-6.869 3.22-3.219 6.868c-.296-4.337-2.126-9.98-4.022-14.109zm432-144c4.13 1.895 9.773 3.725 14.11 4.021l-6.869 3.22-3.219 6.868c-.296-4.337-2.126-9.98-4.022-14.109zM144 432c-4.13-1.895-9.774-3.725-14.11-4.021l6.869-3.22 3.219-6.868c.296 4.337 2.126 9.98 4.022 14.109zm720-288c-4.13-1.895-9.773-3.725-14.11-4.021l6.869-3.22 3.219-6.868c.296 4.336 2.126 9.98 4.022 14.109zm-720 0c-1.581-4.26-4.277-9.545-7.134-12.821L144 133.76l7.132-2.581c-2.856 3.276-5.553 8.561-7.132 12.821zm720 72c-1.58-4.26-4.277-9.545-7.134-12.821L864 205.76l7.133-2.581c-2.858 3.276-5.554 8.561-7.133 12.821zm-144 72c4.26-1.58 9.545-4.277 12.821-7.134L730.24 288l2.581 7.133c-3.276-2.858-8.561-5.554-12.821-7.133zM288 72c-4.26 1.581-9.545 4.277-12.821 7.134l2.58-7.134-2.581-7.132C278.455 67.724 283.74 70.421 288 72zm-72 72c4.26-1.581 9.545-4.277 12.821-7.134l-2.58 7.134 2.581 7.132c-3.277-2.856-8.562-5.553-12.822-7.132zm576-72c-4.26 1.581-9.545 4.277-12.821 7.134L781.76 72l-2.581-7.132C782.455 67.724 787.74 70.421 792 72z"/>
    <path fill="none" stroke="#FEC200" stroke-width="10" d="M405 252h104.877"/>
    <path fill="#FEC200" d="M531 252c-9.939 3.688-22.271 9.98-29.916 16.646L507.105 252l-6.021-16.643c7.645 6.666 19.977 12.958 29.916 16.643z"/>
    <g fill="#BC1E47" stroke="#000">
        <circle cx="72" cy="144" r="3"/>
        <circle cx="72" cy="72" r="3"/>
        <circle cx="576" cy="360" r="3"/>
        <circle cx="72" cy="288" r="3"/>
        <circle cx="144" cy="216" r="3"/>
        <circle cx="648" cy="144" r="3"/>
        <circle cx="360" cy="216" r="3"/>
        <circle cx="432" cy="72" r="3"/>
        <circle cx="576" cy="288" r="3"/>
        <circle cx="288" cy="216" r="3"/>
        <circle cx="216" cy="288" r="3"/>
        <circle cx="864" cy="216" r="3"/>
        <circle cx="288" cy="432" r="3"/>
        <circle cx="216" cy="360" r="3"/>
        <circle cx="720" cy="288" r="3"/>
        <circle cx="648" cy="216" r="3"/>
        <circle cx="72" cy="360" r="3"/>
        <circle cx="144" cy="432" r="3"/>
        <circle cx="792" cy="72" r="3"/>
        <circle cx="144" cy="72" r="3"/>
        <circle cx="144" cy="144" r="3"/>
        <circle cx="864" cy="144" r="3"/>
        <circle cx="792" cy="288" r="3"/>
        <circle cx="216" cy="72" r="3"/>
        <circle cx="288" cy="72" r="3"/>
        <circle cx="288" cy="144" r="3"/>
        <circle cx="216" cy="144" r="3"/>
        <circle cx="720" cy="72" r="3"/>
    </g>
</svg>
