<svg xmlns="http://www.w3.org/2000/svg" width="599" height="570">
    <g fill="#0081CD" stroke="#000" stroke-width="2">
        <path d="M269.41 314.059l-19.064-58.674 49.91-36.262 49.91 36.262-19.064 58.674zm161.512 0l-19.065-58.674 49.911-36.262 49.91 36.262-19.065 58.674zm-30.846-94.936l-19.064-58.674 49.91-36.261 49.91 36.261-19.064 58.674zm0 189.871l-19.064-58.674 49.91-36.261 49.91 36.261-19.064 58.674zM219.5 467.666l-19.064-58.674 49.91-36.262 49.91 36.262-19.065 58.674zM107.898 314.057l-19.064-58.674 49.91-36.262 49.91 36.262-19.064 58.674zM219.5 160.449l-19.064-58.674 49.91-36.261 49.91 36.261-19.065 58.674zm99.82 0l-19.064-58.674 49.91-36.261 49.91 36.261-19.064 58.674z"/>
        <path d="M138.744 219.121l-19.064-58.674 49.91-36.261 49.91 36.261-19.064 58.674zm0 189.871l-19.064-58.674 49.91-36.261 49.91 36.261-19.064 58.674zm180.576 58.674l-19.064-58.674 49.91-36.262 49.91 36.262-19.064 58.674z"/>
        <path d="M331.102 314.059l19.064 58.671-49.91 36.262-49.91-36.262 19.064-58.671zm0-307.215l19.064 58.672-49.91 36.261-49.91-36.261L269.41 6.844zm130.666 402.15l19.064 58.672-49.91 36.262-49.91-36.262 19.064-58.672zM119.68 160.449l19.064 58.672-49.91 36.262-49.91-36.262 19.064-58.672zm422.843.002l19.065 58.672-49.91 36.262-49.91-36.262 19.064-58.672zm0 189.869l19.065 58.672-49.91 36.262-49.91-36.262 19.064-58.672zm30.846-94.933l19.065 58.672-49.911 36.261-49.91-36.261 19.065-58.672zM281.191 467.666l19.065 58.672-49.91 36.262-49.91-36.262 19.064-58.672zm99.821 0l19.064 58.672-49.91 36.262-49.91-36.262 19.064-58.672zM88.832 255.387l19.064 58.672-49.91 36.261-49.91-36.261 19.065-58.672z"/>
        <path d="M119.678 350.32l19.064 58.672-49.91 36.262-49.91-36.262 19.064-58.672zM231.279 6.842l19.065 58.672-49.91 36.261-49.911-36.261 19.065-58.672z"/>
        <path d="M150.523 65.514l19.065 58.672-49.91 36.261-49.91-36.261 19.064-58.672zm361.155 0l19.064 58.672-49.91 36.261-49.91-36.261 19.064-58.672zM430.922 6.842l19.064 58.672-49.91 36.261-49.91-36.261L369.23 6.842zm-230.486 402.15l19.064 58.672-49.91 36.262-49.91-36.262 19.064-58.672zm180.576-248.543l19.064 58.674-49.91 36.262-49.91-36.262 19.064-58.674zm30.845 94.936l19.065 58.674-49.91 36.261-49.91-36.261 19.064-58.674zm-130.666-94.936l19.065 58.674-49.91 36.262-49.91-36.262 19.064-58.674zm-30.845 94.936l19.064 58.674-49.91 36.261-49.91-36.261 19.064-58.674z"/>
    </g>
    <path d="M300.256 101.777l-19.065 58.674 19.065 58.672 19.064-58.672zm0 307.215l-19.065 58.674 19.065 58.672 19.064-58.672zM138.742 219.123l49.91 36.262h61.694l-49.91-36.262zm292.178 94.936l49.91 36.261h61.693l-49.91-36.261zm-230.482 94.933l49.908-36.26 19.064-58.673-49.91 36.261zm180.576-248.545l49.908-36.259 19.064-58.674-49.91 36.261zm19.062 248.545l-19.062-58.672-49.912-36.261 19.064 58.671zM219.498 160.447l-19.062-58.672-49.913-36.261 19.065 58.672zm242.272 58.674h-61.692l-49.912 36.264 61.693-.002zm-292.18 94.936h-61.692L57.986 350.32l61.694-.002z" fill="#BC1E47" stroke="#000" stroke-width="2"/>
    <path d="M300.256 271.602v-45m0 45l-42.797-13.907m42.797 13.907l-26.451 36.406m26.451-36.406l26.449 36.406m-26.449-36.406l42.797-13.907m118.715 13.907v-45m0 45l-42.797-13.907m42.797 13.907l-26.452 36.406m26.452-36.406l26.449 36.406m-26.449-36.406l42.796-13.907m-73.642-81.029v-45m0 45l-42.797-13.906m42.797 13.906l-26.451 36.406m26.451-36.406l26.449 36.406m-26.449-36.406l42.797-13.906m-42.797 203.777v-45m0 45l-42.797-13.906m42.797 13.906l-26.451 36.406m26.451-36.406l26.449 36.406m-26.449-36.406l42.797-13.906m-223.373 72.578v-45m0 45l-42.797-13.906m42.797 13.906l-26.451 36.406m26.451-36.406l26.449 36.406m-26.449-36.406l42.797-13.906M138.744 271.6v-45m0 45l-42.797-13.907m42.797 13.907l-26.451 36.406m26.451-36.406l26.449 36.406M138.744 271.6l42.797-13.907m68.805-139.701v-45m0 45l-42.797-13.906m42.797 13.906l-26.451 36.406m26.451-36.406l26.449 36.406m-26.449-36.406l42.797-13.906m57.023 13.906v-45m0 45l-42.797-13.906m42.797 13.906l-26.451 36.406m26.451-36.406l26.449 36.406m-26.449-36.406l42.797-13.906M169.59 176.664v-45m0 45l-42.797-13.906m42.797 13.906l-26.451 36.406m26.451-36.406l26.449 36.406m-26.449-36.406l42.797-13.906M169.59 366.535v-45m0 45l-42.797-13.906m42.797 13.906l-26.451 36.406m26.451-36.406l26.449 36.406m-26.449-36.406l42.797-13.906m137.779 72.58v-45m0 45l-42.797-13.906m42.797 13.906l-26.451 36.406m26.451-36.406l26.449 36.406m-26.449-36.406l42.797-13.906m-92.707-54.789v45m0-45l42.797 13.906m-42.797-13.906l26.451-36.407m-26.451 36.407l-26.449-36.407m26.449 36.407l-42.797 13.904m42.797-321.119v45m0-45l42.797 13.906m-42.797-13.906l26.451-36.406m-26.451 36.406l-26.449-36.406m26.449 36.406l-42.797 13.904m173.463 388.246v45m0-45l42.797 13.906m-42.797-13.906l26.451-36.406m-26.451 36.406l-26.449-36.406m26.449 36.406l-42.797 13.905M88.834 202.904v45m0-45l42.797 13.907m-42.797-13.907l26.451-36.406m-26.451 36.406l-26.449-36.406m26.449 36.406l-42.797 13.905m465.641-13.903v45m0-45l42.797 13.906m-42.797-13.906l26.451-36.406m-26.451 36.406L485.229 166.5m26.449 36.406l-42.797 13.905m42.797 175.964v45m0-45l42.797 13.907m-42.797-13.907l26.451-36.406m-26.451 36.406l-26.449-36.406m26.449 36.406l-42.797 13.905m73.642-108.838v45m0-45l42.797 13.906m-42.797-13.906l26.452-36.406m-26.452 36.406l-26.449-36.406m26.449 36.406l-42.796 13.904M250.346 510.121v45m0-45l42.797 13.906m-42.797-13.906l26.451-36.406m-26.451 36.406l-26.45-36.406m26.45 36.406l-42.797 13.904m142.617-13.904v45m0-45l42.797 13.906m-42.797-13.906l26.451-36.406m-26.451 36.406l-26.449-36.406m26.449 36.406l-42.797 13.904M57.986 297.842v45m0-45l42.797 13.906m-42.797-13.906l26.452-36.406m-26.452 36.406l-26.449-36.406m26.449 36.406l-42.797 13.904m73.643 81.029v45m0-45l42.797 13.907m-42.797-13.907l26.451-36.406m-26.451 36.406l-26.449-36.406m26.449 36.406L46.035 406.68M200.434 49.297v45m0-45l42.796 13.906m-42.796-13.906l26.451-36.406m-26.451 36.406l-26.45-36.406m26.45 36.406l-42.797 13.904m-37.959 44.768v45m0-45l42.797 13.906m-42.797-13.906l26.451-36.407m-26.451 36.407L93.229 71.562m26.449 36.407l-42.797 13.904m403.951-13.904v45m0-45l42.797 13.906m-42.797-13.906l26.451-36.407m-26.451 36.407l-26.449-36.407m26.449 36.407l-42.797 13.904m-37.959-72.576v45m0-45l42.797 13.906m-42.797-13.906l26.451-36.406m-26.451 36.406l-26.449-36.406m26.449 36.406l-42.797 13.904M169.59 451.447v45m0-45l42.797 13.907m-42.797-13.907l26.451-36.406m-26.451 36.406l-26.449-36.406m26.449 36.406l-42.797 13.905m223.373-262.446v45m0-45l42.797 13.906m-42.797-13.906l26.451-36.406m-26.451 36.406L323.717 166.5m26.449 36.406l-42.797 13.906m73.643 81.03v45m0-45l42.797 13.906m-42.797-13.906l26.451-36.406m-26.451 36.406l-26.45-36.406m26.45 36.406l-42.797 13.906m-87.869-108.842v45m0-45l42.797 13.906m-42.797-13.906l26.451-36.406m-26.451 36.406l-26.45-36.406m26.45 36.406l-42.797 13.906m11.951 81.03v45m0-45l42.797 13.906M219.5 297.842l26.451-36.406M219.5 297.842l-26.449-36.406m26.449 36.406l-42.797 13.906" fill="none" stroke="#AAD5EF" stroke-width="10"/>
</svg>
