<svg xmlns="http://www.w3.org/2000/svg" width="570.748" height="482.75" viewBox="0 0 285.374 241.375"><path d="M142.874 179.388c-10.591-6.126-22.886-9.635-36-9.635s-25.409 3.508-36 9.635v31.193a35.832 35.832 0 0 1 18.001-4.828c6.56 0 12.703 1.763 18 4.828a35.818 35.818 0 0 1 18-4.828 35.82 35.82 0 0 1 17.999 4.828v-31.193zm144.001-.001c-10.591-6.126-22.886-9.635-36-9.635s-25.409 3.508-36 9.635v31.193a35.832 35.832 0 0 1 18.001-4.828c6.56 0 12.703 1.763 18 4.828a35.818 35.818 0 0 1 18-4.828 35.82 35.82 0 0 1 17.999 4.828v-31.193zm-279 58.489c-.662-.383-1.431-.603-2.25-.603s-1.588.22-2.25.603v1.949a2.245 2.245 0 0 1 2.25 0 2.245 2.245 0 0 1 2.25 0v-1.949zm9 0c-.662-.383-1.431-.603-2.25-.603s-1.588.22-2.25.603v1.949a2.245 2.245 0 0 1 2.25 0 2.245 2.245 0 0 1 2.25 0v-1.949zm18-11.698a17.925 17.925 0 0 0-9-2.408 17.92 17.92 0 0 0-9 2.408v7.799c1.324-.767 2.86-1.207 4.5-1.207s3.176.44 4.5 1.207c1.324-.767 2.86-1.207 4.5-1.207s3.176.44 4.5 1.207v-7.799zm-9 11.698c-.662-.383-1.431-.603-2.25-.603s-1.588.22-2.25.603v1.949a2.245 2.245 0 0 1 2.25 0 2.245 2.245 0 0 1 2.25 0v-1.949zm9 0c-.662-.383-1.431-.603-2.25-.603s-1.588.22-2.25.603v1.949a2.245 2.245 0 0 1 2.25 0 2.245 2.245 0 0 1 2.25 0v-1.949zm9 0c-.662-.383-1.431-.603-2.25-.603s-1.588.22-2.25.603v1.949a2.245 2.245 0 0 1 2.25 0 2.245 2.245 0 0 1 2.25 0v-1.949zm9 0c-.662-.383-1.431-.603-2.25-.603s-1.588.22-2.25.603v1.949a2.245 2.245 0 0 1 2.25 0 2.245 2.245 0 0 1 2.25 0v-1.949zm18-11.698a17.925 17.925 0 0 0-9-2.408 17.92 17.92 0 0 0-9 2.408v7.799c1.324-.767 2.86-1.207 4.5-1.207s3.176.44 4.5 1.207c1.324-.767 2.86-1.207 4.5-1.207s3.176.44 4.5 1.207v-7.799zm-9 11.698c-.662-.383-1.431-.603-2.25-.603s-1.588.22-2.25.603v1.949a2.245 2.245 0 0 1 2.25 0 2.245 2.245 0 0 1 2.25 0v-1.949zm9 0c-.662-.383-1.431-.603-2.25-.603s-1.588.22-2.25.603v1.949a2.245 2.245 0 0 1 2.25 0 2.245 2.245 0 0 1 2.25 0v-1.949zm9 0c-.662-.383-1.431-.603-2.25-.603s-1.588.22-2.25.603v1.949a2.245 2.245 0 0 1 2.25 0 2.245 2.245 0 0 1 2.25 0v-1.949zm9 0c-.662-.383-1.431-.603-2.25-.603s-1.588.22-2.25.603v1.949a2.245 2.245 0 0 1 2.25 0 2.245 2.245 0 0 1 2.25 0v-1.949zm18-11.698a17.928 17.928 0 0 0-9-2.408c-3.279 0-6.354.877-9 2.408v7.799a8.95 8.95 0 0 1 4.5-1.207 8.95 8.95 0 0 1 4.5 1.207 8.944 8.944 0 0 1 4.5-1.207 8.95 8.95 0 0 1 4.5 1.207v-7.799zm-9 11.698a4.484 4.484 0 0 0-2.25-.603c-.82 0-1.588.22-2.25.603v1.949a2.242 2.242 0 0 1 2.25 0 2.242 2.242 0 0 1 2.25 0v-1.949zm9 0a4.484 4.484 0 0 0-2.25-.603c-.82 0-1.588.22-2.25.603v1.949a2.242 2.242 0 0 1 2.25 0 2.242 2.242 0 0 1 2.25 0v-1.949zm9 0a4.484 4.484 0 0 0-2.25-.603c-.82 0-1.588.22-2.25.603v1.949a2.242 2.242 0 0 1 2.25 0 2.242 2.242 0 0 1 2.25 0v-1.949zm9 0a4.484 4.484 0 0 0-2.25-.603c-.82 0-1.588.22-2.25.603v1.949a2.242 2.242 0 0 1 2.25 0 2.242 2.242 0 0 1 2.25 0v-1.949zm18-11.698a17.928 17.928 0 0 0-9-2.408c-3.279 0-6.354.877-9 2.408v7.799a8.944 8.944 0 0 1 4.5-1.207 8.95 8.95 0 0 1 4.5 1.207 8.944 8.944 0 0 1 4.5-1.207 8.95 8.95 0 0 1 4.5 1.207v-7.799zm-9 11.698a4.484 4.484 0 0 0-2.25-.603c-.82 0-1.588.22-2.25.603v1.949a2.242 2.242 0 0 1 2.25 0 2.242 2.242 0 0 1 2.25 0v-1.949zm9 0a4.484 4.484 0 0 0-2.25-.603c-.82 0-1.588.22-2.25.603v1.949a2.242 2.242 0 0 1 2.25 0 2.242 2.242 0 0 1 2.25 0v-1.949zm9.002-.001c-.662-.383-1.431-.603-2.25-.603s-1.588.22-2.25.603v1.949a2.245 2.245 0 0 1 2.25 0 2.245 2.245 0 0 1 2.25 0v-1.949zm9 0c-.662-.383-1.431-.603-2.25-.603s-1.588.22-2.25.603v1.949a2.245 2.245 0 0 1 2.25 0 2.245 2.245 0 0 1 2.25 0v-1.949zm18-11.698a17.925 17.925 0 0 0-9-2.408 17.92 17.92 0 0 0-9 2.408v7.799c1.324-.767 2.86-1.207 4.5-1.207s3.176.44 4.5 1.207c1.324-.767 2.86-1.207 4.5-1.207s3.176.44 4.5 1.207v-7.799zm-9 11.698c-.662-.383-1.431-.603-2.25-.603s-1.588.22-2.25.603v1.949a2.245 2.245 0 0 1 2.25 0 2.245 2.245 0 0 1 2.25 0v-1.949zm9 0c-.662-.383-1.431-.603-2.25-.603s-1.588.22-2.25.603v1.949a2.245 2.245 0 0 1 2.25 0 2.245 2.245 0 0 1 2.25 0v-1.949zm9 0c-.662-.383-1.431-.603-2.25-.603s-1.588.22-2.25.603v1.949a2.245 2.245 0 0 1 2.25 0 2.245 2.245 0 0 1 2.25 0v-1.949zm9 0c-.662-.383-1.431-.603-2.25-.603s-1.588.22-2.25.603v1.949a2.245 2.245 0 0 1 2.25 0 2.245 2.245 0 0 1 2.25 0v-1.949zm18-11.698a17.925 17.925 0 0 0-9-2.408 17.92 17.92 0 0 0-9 2.408v7.799c1.324-.767 2.86-1.207 4.5-1.207s3.176.44 4.5 1.207c1.324-.767 2.86-1.207 4.5-1.207s3.176.44 4.5 1.207v-7.799zm-9 11.698c-.662-.383-1.431-.603-2.25-.603s-1.588.22-2.25.603v1.949a2.245 2.245 0 0 1 2.25 0 2.245 2.245 0 0 1 2.25 0v-1.949zm9 0c-.662-.383-1.431-.603-2.25-.603s-1.588.22-2.25.603v1.949a2.245 2.245 0 0 1 2.25 0 2.245 2.245 0 0 1 2.25 0v-1.949zm9 0c-.662-.383-1.431-.603-2.25-.603s-1.588.22-2.25.603v1.949a2.245 2.245 0 0 1 2.25 0 2.245 2.245 0 0 1 2.25 0v-1.949zm9 0c-.662-.383-1.431-.603-2.25-.603s-1.588.22-2.25.603v1.949a2.245 2.245 0 0 1 2.25 0 2.245 2.245 0 0 1 2.25 0v-1.949zm18-11.698a17.928 17.928 0 0 0-9-2.408c-3.279 0-6.354.877-9 2.408v7.799a8.944 8.944 0 0 1 4.5-1.207 8.95 8.95 0 0 1 4.5 1.207 8.944 8.944 0 0 1 4.5-1.207 8.95 8.95 0 0 1 4.5 1.207v-7.799zm-9 11.698a4.484 4.484 0 0 0-2.25-.603c-.82 0-1.588.22-2.25.603v1.949a2.242 2.242 0 0 1 2.25 0 2.242 2.242 0 0 1 2.25 0v-1.949zm9 0a4.484 4.484 0 0 0-2.25-.603c-.82 0-1.588.22-2.25.603v1.949a2.242 2.242 0 0 1 2.25 0 2.242 2.242 0 0 1 2.25 0v-1.949zm9 0a4.484 4.484 0 0 0-2.25-.603c-.82 0-1.588.22-2.25.603v1.949a2.242 2.242 0 0 1 2.25 0 2.242 2.242 0 0 1 2.25 0v-1.949zm9 0a4.484 4.484 0 0 0-2.25-.603c-.82 0-1.588.22-2.25.603v1.949a2.242 2.242 0 0 1 2.25 0 2.242 2.242 0 0 1 2.25 0v-1.949zm18-11.698a17.928 17.928 0 0 0-9-2.408c-3.279 0-6.354.877-9 2.408v7.799a8.944 8.944 0 0 1 4.5-1.207 8.95 8.95 0 0 1 4.5 1.207 8.944 8.944 0 0 1 4.5-1.207 8.95 8.95 0 0 1 4.5 1.207v-7.799zm-9 11.698a4.484 4.484 0 0 0-2.25-.603c-.82 0-1.588.22-2.25.603v1.949a2.242 2.242 0 0 1 2.25 0 2.242 2.242 0 0 1 2.25 0v-1.949zm9 0a4.484 4.484 0 0 0-2.25-.603c-.82 0-1.588.22-2.25.603v1.949a2.242 2.242 0 0 1 2.25 0 2.242 2.242 0 0 1 2.25 0v-1.949z" fill="#009246" stroke="#000" stroke-miterlimit="10"/><path d="M286.874 117c-21.182-12.253-45.771-19.269-72-19.269s-50.818 7.016-72 19.269v62.388a71.64 71.64 0 0 1 36.002-9.657 71.645 71.645 0 0 1 36 9.656 71.64 71.64 0 0 1 36-9.656 71.652 71.652 0 0 1 35.998 9.655V117zM70.875 210.581c-5.295-3.063-11.442-4.817-18-4.817s-12.705 1.754-18 4.817v15.597a17.917 17.917 0 0 1 9-2.414c3.28 0 6.352.882 9 2.414 2.648-1.532 5.721-2.414 9-2.414s6.352.882 9 2.414v-15.597zm72 0c-5.295-3.063-11.442-4.817-18-4.817s-12.705 1.754-18 4.817v15.597a17.917 17.917 0 0 1 9-2.414c3.28 0 6.352.882 9 2.414 2.648-1.532 5.721-2.414 9-2.414s6.352.882 9 2.414v-15.597zm72.001-.001c-5.295-3.063-11.442-4.817-18-4.817s-12.705 1.754-18 4.817v15.597a17.917 17.917 0 0 1 9-2.414c3.28 0 6.352.882 9 2.414 2.648-1.532 5.721-2.414 9-2.414s6.352.882 9 2.414V210.58zm72 0c-5.295-3.063-11.442-4.817-18-4.817s-12.705 1.754-18 4.817v15.597a17.917 17.917 0 0 1 9-2.414c3.28 0 6.352.882 9 2.414 2.648-1.532 5.721-2.414 9-2.414s6.352.882 9 2.414V210.58zM16.875 233.977c-1.324-.766-2.86-1.204-4.5-1.204s-3.176.438-4.5 1.204v3.899c.662-.384 1.43-.604 2.25-.604s1.588.22 2.25.604c.662-.384 1.43-.604 2.25-.604s1.588.22 2.25.604v-3.899zm-13.5 5.848a2.244 2.244 0 0 0-2.25 0v.975a1.123 1.123 0 0 1 1.124 0 1.123 1.123 0 0 1 1.124 0v-.975zm4.5 0a2.244 2.244 0 0 0-2.25 0v.975a1.123 1.123 0 0 1 1.124 0 1.123 1.123 0 0 1 1.124 0v-.975zm4.5 0a2.244 2.244 0 0 0-2.25 0v.975a1.123 1.123 0 0 1 1.124 0 1.123 1.123 0 0 1 1.124 0v-.975zm4.5 0a2.244 2.244 0 0 0-2.25 0v.975a1.123 1.123 0 0 1 1.124 0 1.123 1.123 0 0 1 1.124 0v-.975zm18-5.848c-1.324-.766-2.86-1.204-4.5-1.204s-3.176.438-4.5 1.204v3.899c.662-.384 1.43-.604 2.25-.604s1.588.22 2.25.604c.662-.384 1.43-.604 2.25-.604s1.588.22 2.25.604v-3.899zm-13.5 5.848a2.244 2.244 0 0 0-2.25 0v.975a1.123 1.123 0 0 1 1.124 0 1.123 1.123 0 0 1 1.124 0v-.975zm4.5 0a2.244 2.244 0 0 0-2.25 0v.975a1.123 1.123 0 0 1 1.124 0 1.123 1.123 0 0 1 1.124 0v-.975zm4.5 0a2.244 2.244 0 0 0-2.25 0v.975a1.123 1.123 0 0 1 1.124 0 1.123 1.123 0 0 1 1.124 0v-.975zm4.5 0a2.244 2.244 0 0 0-2.25 0v.975a1.123 1.123 0 0 1 1.124 0 1.123 1.123 0 0 1 1.124 0v-.975zm18-5.848c-1.324-.766-2.86-1.204-4.5-1.204s-3.176.438-4.5 1.204v3.899c.662-.384 1.43-.604 2.25-.604s1.588.22 2.25.604c.662-.384 1.43-.604 2.25-.604s1.588.22 2.25.604v-3.899zm-13.5 5.848a2.244 2.244 0 0 0-2.25 0v.975a1.123 1.123 0 0 1 1.124 0 1.123 1.123 0 0 1 1.124 0v-.975zm4.5 0a2.244 2.244 0 0 0-2.25 0v.975a1.123 1.123 0 0 1 1.124 0 1.123 1.123 0 0 1 1.124 0v-.975zm4.5 0a2.244 2.244 0 0 0-2.25 0v.975a1.123 1.123 0 0 1 1.124 0 1.123 1.123 0 0 1 1.124 0v-.975zm4.5 0a2.244 2.244 0 0 0-2.25 0v.975a1.123 1.123 0 0 1 1.124 0 1.123 1.123 0 0 1 1.124 0v-.975zm18-5.848c-1.324-.766-2.86-1.204-4.5-1.204s-3.176.438-4.5 1.204v3.899c.662-.384 1.43-.604 2.25-.604s1.588.22 2.25.604c.662-.384 1.43-.604 2.25-.604s1.588.22 2.25.604v-3.899zm-13.5 5.848a2.244 2.244 0 0 0-2.25 0v.975a1.123 1.123 0 0 1 1.124 0 1.123 1.123 0 0 1 1.124 0v-.975zm4.5 0a2.244 2.244 0 0 0-2.25 0v.975a1.123 1.123 0 0 1 1.124 0 1.123 1.123 0 0 1 1.124 0v-.975zm4.5 0a2.244 2.244 0 0 0-2.25 0v.975a1.123 1.123 0 0 1 1.124 0 1.123 1.123 0 0 1 1.124 0v-.975zm4.5 0a2.244 2.244 0 0 0-2.25 0v.975a1.123 1.123 0 0 1 1.124 0 1.123 1.123 0 0 1 1.124 0v-.975zm18-5.848c-1.324-.766-2.86-1.204-4.5-1.204s-3.176.438-4.5 1.204v3.899c.662-.384 1.43-.604 2.25-.604s1.588.22 2.25.604c.662-.384 1.43-.604 2.25-.604s1.588.22 2.25.604v-3.899zm-13.5 5.848a2.244 2.244 0 0 0-2.25 0v.975a1.123 1.123 0 0 1 1.124 0 1.123 1.123 0 0 1 1.124 0v-.975zm4.5 0a2.244 2.244 0 0 0-2.25 0v.975a1.123 1.123 0 0 1 1.124 0 1.123 1.123 0 0 1 1.124 0v-.975zm4.5 0a2.244 2.244 0 0 0-2.25 0v.975a1.123 1.123 0 0 1 1.124 0 1.123 1.123 0 0 1 1.124 0v-.975zm4.5 0a2.244 2.244 0 0 0-2.25 0v.975a1.123 1.123 0 0 1 1.124 0 1.123 1.123 0 0 1 1.124 0v-.975zm18-5.848a8.958 8.958 0 0 0-4.5-1.204 8.952 8.952 0 0 0-4.5 1.204v3.899c.662-.384 1.43-.604 2.25-.604s1.588.22 2.25.604c.662-.384 1.43-.604 2.25-.604s1.588.22 2.25.604v-3.899zm-13.5 5.848a2.247 2.247 0 0 0-2.25 0v.975a1.126 1.126 0 0 1 1.124 0 1.126 1.126 0 0 1 1.124 0v-.975zm4.5 0a2.247 2.247 0 0 0-2.25 0v.975a1.126 1.126 0 0 1 1.124 0 1.126 1.126 0 0 1 1.124 0v-.975zm4.5 0a2.247 2.247 0 0 0-2.25 0v.975a1.126 1.126 0 0 1 1.124 0 1.126 1.126 0 0 1 1.124 0v-.975zm4.5 0a2.247 2.247 0 0 0-2.25 0v.975a1.126 1.126 0 0 1 1.124 0 1.126 1.126 0 0 1 1.124 0v-.975zm18-5.848a8.958 8.958 0 0 0-4.5-1.204 8.952 8.952 0 0 0-4.5 1.204v3.899c.662-.384 1.43-.604 2.25-.604s1.588.22 2.25.604c.662-.384 1.43-.604 2.25-.604s1.588.22 2.25.604v-3.899zm-13.5 5.848a2.247 2.247 0 0 0-2.25 0v.975a1.126 1.126 0 0 1 1.124 0 1.126 1.126 0 0 1 1.124 0v-.975zm4.5 0a2.247 2.247 0 0 0-2.25 0v.975a1.126 1.126 0 0 1 1.124 0 1.126 1.126 0 0 1 1.124 0v-.975zm4.5 0a2.247 2.247 0 0 0-2.25 0v.975a1.126 1.126 0 0 1 1.124 0 1.126 1.126 0 0 1 1.124 0v-.975zm4.5 0a2.247 2.247 0 0 0-2.25 0v.975a1.126 1.126 0 0 1 1.124 0 1.126 1.126 0 0 1 1.124 0v-.975zm18-5.848a8.958 8.958 0 0 0-4.5-1.204 8.952 8.952 0 0 0-4.5 1.204v3.899c.662-.384 1.43-.604 2.25-.604s1.588.22 2.25.604c.662-.384 1.43-.604 2.25-.604s1.588.22 2.25.604v-3.899zm-13.5 5.848a2.247 2.247 0 0 0-2.25 0v.975a1.126 1.126 0 0 1 1.124 0 1.126 1.126 0 0 1 1.124 0v-.975zm4.5 0a2.247 2.247 0 0 0-2.25 0v.975a1.126 1.126 0 0 1 1.124 0 1.126 1.126 0 0 1 1.124 0v-.975zm4.5 0a2.247 2.247 0 0 0-2.25 0v.975a1.126 1.126 0 0 1 1.124 0 1.126 1.126 0 0 1 1.124 0v-.975zm4.5 0a2.247 2.247 0 0 0-2.25 0v.975a1.126 1.126 0 0 1 1.124 0 1.126 1.126 0 0 1 1.124 0v-.975zm18.002-5.849c-1.324-.766-2.86-1.204-4.5-1.204s-3.176.438-4.5 1.204v3.899c.662-.384 1.43-.604 2.25-.604s1.588.22 2.25.604c.662-.384 1.43-.604 2.25-.604s1.588.22 2.25.604v-3.899zm-13.5 5.848a2.244 2.244 0 0 0-2.25 0v.975a1.123 1.123 0 0 1 1.124 0 1.123 1.123 0 0 1 1.124 0v-.975zm4.5 0a2.244 2.244 0 0 0-2.25 0v.975a1.123 1.123 0 0 1 1.124 0 1.123 1.123 0 0 1 1.124 0v-.975zm4.5 0a2.244 2.244 0 0 0-2.25 0v.975a1.123 1.123 0 0 1 1.124 0 1.123 1.123 0 0 1 1.124 0v-.975zm4.5 0a2.244 2.244 0 0 0-2.25 0v.975a1.123 1.123 0 0 1 1.124 0 1.123 1.123 0 0 1 1.124 0v-.975zm18-5.848c-1.324-.766-2.86-1.204-4.5-1.204s-3.176.438-4.5 1.204v3.899c.662-.384 1.43-.604 2.25-.604s1.588.22 2.25.604c.662-.384 1.43-.604 2.25-.604s1.588.22 2.25.604v-3.899zm-13.5 5.848a2.244 2.244 0 0 0-2.25 0v.975a1.123 1.123 0 0 1 1.124 0 1.123 1.123 0 0 1 1.124 0v-.975zm4.5 0a2.244 2.244 0 0 0-2.25 0v.975a1.123 1.123 0 0 1 1.124 0 1.123 1.123 0 0 1 1.124 0v-.975zm4.5 0a2.244 2.244 0 0 0-2.25 0v.975a1.123 1.123 0 0 1 1.124 0 1.123 1.123 0 0 1 1.124 0v-.975zm4.5 0a2.244 2.244 0 0 0-2.25 0v.975a1.123 1.123 0 0 1 1.124 0 1.123 1.123 0 0 1 1.124 0v-.975zm18-5.848c-1.324-.766-2.86-1.204-4.5-1.204s-3.176.438-4.5 1.204v3.899c.662-.384 1.43-.604 2.25-.604s1.588.22 2.25.604c.662-.384 1.43-.604 2.25-.604s1.588.22 2.25.604v-3.899zm-13.5 5.848a2.244 2.244 0 0 0-2.25 0v.975a1.123 1.123 0 0 1 1.124 0 1.123 1.123 0 0 1 1.124 0v-.975zm4.5 0a2.244 2.244 0 0 0-2.25 0v.975a1.123 1.123 0 0 1 1.124 0 1.123 1.123 0 0 1 1.124 0v-.975zm4.5 0a2.244 2.244 0 0 0-2.25 0v.975a1.123 1.123 0 0 1 1.124 0 1.123 1.123 0 0 1 1.124 0v-.975zm4.5 0a2.244 2.244 0 0 0-2.25 0v.975a1.123 1.123 0 0 1 1.124 0 1.123 1.123 0 0 1 1.124 0v-.975zm18-5.848c-1.324-.766-2.86-1.204-4.5-1.204s-3.176.438-4.5 1.204v3.899c.662-.384 1.43-.604 2.25-.604s1.588.22 2.25.604c.662-.384 1.43-.604 2.25-.604s1.588.22 2.25.604v-3.899zm-13.5 5.848a2.244 2.244 0 0 0-2.25 0v.975a1.123 1.123 0 0 1 1.124 0 1.123 1.123 0 0 1 1.124 0v-.975zm4.5 0a2.244 2.244 0 0 0-2.25 0v.975a1.123 1.123 0 0 1 1.124 0 1.123 1.123 0 0 1 1.124 0v-.975zm4.5 0a2.244 2.244 0 0 0-2.25 0v.975a1.123 1.123 0 0 1 1.124 0 1.123 1.123 0 0 1 1.124 0v-.975zm4.5 0a2.244 2.244 0 0 0-2.25 0v.975a1.123 1.123 0 0 1 1.124 0 1.123 1.123 0 0 1 1.124 0v-.975zm18-5.848c-1.324-.766-2.86-1.204-4.5-1.204s-3.176.438-4.5 1.204v3.899c.662-.384 1.43-.604 2.25-.604s1.588.22 2.25.604c.662-.384 1.43-.604 2.25-.604s1.588.22 2.25.604v-3.899zm-13.5 5.848a2.244 2.244 0 0 0-2.25 0v.975a1.123 1.123 0 0 1 1.124 0 1.123 1.123 0 0 1 1.124 0v-.975zm4.5 0a2.244 2.244 0 0 0-2.25 0v.975a1.123 1.123 0 0 1 1.124 0 1.123 1.123 0 0 1 1.124 0v-.975zm4.5 0a2.244 2.244 0 0 0-2.25 0v.975a1.123 1.123 0 0 1 1.124 0 1.123 1.123 0 0 1 1.124 0v-.975zm4.5 0a2.244 2.244 0 0 0-2.25 0v.975a1.123 1.123 0 0 1 1.124 0 1.123 1.123 0 0 1 1.124 0v-.975zm18-5.848a8.958 8.958 0 0 0-4.5-1.204 8.952 8.952 0 0 0-4.5 1.204v3.899c.662-.384 1.43-.604 2.25-.604s1.588.22 2.25.604c.662-.384 1.43-.604 2.25-.604s1.588.22 2.25.604v-3.899zm-13.5 5.848a2.247 2.247 0 0 0-2.25 0v.975a1.126 1.126 0 0 1 1.124 0 1.126 1.126 0 0 1 1.124 0v-.975zm4.5 0a2.247 2.247 0 0 0-2.25 0v.975a1.126 1.126 0 0 1 1.124 0 1.126 1.126 0 0 1 1.124 0v-.975zm4.5 0a2.247 2.247 0 0 0-2.25 0v.975a1.126 1.126 0 0 1 1.124 0 1.126 1.126 0 0 1 1.124 0v-.975zm4.5 0a2.247 2.247 0 0 0-2.25 0v.975a1.126 1.126 0 0 1 1.124 0 1.126 1.126 0 0 1 1.124 0v-.975zm18-5.848a8.958 8.958 0 0 0-4.5-1.204 8.952 8.952 0 0 0-4.5 1.204v3.899c.662-.384 1.43-.604 2.25-.604s1.588.22 2.25.604c.662-.384 1.43-.604 2.25-.604s1.588.22 2.25.604v-3.899zm-13.5 5.848a2.247 2.247 0 0 0-2.25 0v.975a1.126 1.126 0 0 1 1.124 0 1.126 1.126 0 0 1 1.124 0v-.975zm4.5 0a2.247 2.247 0 0 0-2.25 0v.975a1.126 1.126 0 0 1 1.124 0 1.126 1.126 0 0 1 1.124 0v-.975zm4.5 0a2.247 2.247 0 0 0-2.25 0v.975a1.126 1.126 0 0 1 1.124 0 1.126 1.126 0 0 1 1.124 0v-.975zm4.5 0a2.247 2.247 0 0 0-2.25 0v.975a1.126 1.126 0 0 1 1.124 0 1.126 1.126 0 0 1 1.124 0v-.975zm18-5.848a8.958 8.958 0 0 0-4.5-1.204 8.952 8.952 0 0 0-4.5 1.204v3.899c.662-.384 1.43-.604 2.25-.604s1.588.22 2.25.604c.662-.384 1.43-.604 2.25-.604s1.588.22 2.25.604v-3.899zm-13.5 5.848a2.247 2.247 0 0 0-2.25 0v.975a1.126 1.126 0 0 1 1.124 0 1.126 1.126 0 0 1 1.124 0v-.975zm4.5 0a2.247 2.247 0 0 0-2.25 0v.975a1.126 1.126 0 0 1 1.124 0 1.126 1.126 0 0 1 1.124 0v-.975zm4.5 0a2.247 2.247 0 0 0-2.25 0v.975a1.126 1.126 0 0 1 1.124 0 1.126 1.126 0 0 1 1.124 0v-.975zm4.5 0a2.247 2.247 0 0 0-2.25 0v.975a1.126 1.126 0 0 1 1.124 0 1.126 1.126 0 0 1 1.124 0v-.975z" fill="#BC1E47" stroke="#000" stroke-miterlimit="10"/><path d="M286.87-7.773c-42.363-24.506-91.541-38.538-144-38.538S41.233-32.279-1.13-7.773v124.775c21.188-12.262 45.764-19.314 72.004-19.314 26.238 0 50.812 7.052 72 19.312 21.184-12.261 45.762-19.312 72-19.312 26.234 0 50.809 7.052 71.996 19.311V-7.773zM70.874 179.388c-10.591-6.126-22.886-9.635-36-9.635-13.115 0-25.409 3.508-36 9.635v31.193a35.835 35.835 0 0 1 18.001-4.828c6.56 0 12.703 1.763 18 4.828a35.818 35.818 0 0 1 18-4.828 35.82 35.82 0 0 1 17.999 4.828v-31.193zm144.001-.001c-10.591-6.126-22.886-9.635-36-9.635-13.115 0-25.409 3.508-36 9.635v31.193c5.297-3.064 11.441-4.828 18.001-4.828s12.703 1.763 18 4.828a35.818 35.818 0 0 1 18-4.828 35.82 35.82 0 0 1 17.999 4.828v-31.193zm-198 46.791a17.925 17.925 0 0 0-9-2.408 17.92 17.92 0 0 0-9 2.408v7.799c1.324-.767 2.86-1.207 4.5-1.207s3.176.44 4.5 1.207c1.324-.767 2.86-1.207 4.5-1.207s3.176.44 4.5 1.207v-7.799zm-13.5 11.698c-.662-.383-1.431-.603-2.25-.603s-1.588.22-2.25.603v1.949a2.245 2.245 0 0 1 2.25 0 2.245 2.245 0 0 1 2.25 0v-1.949zm9 0c-.662-.383-1.431-.603-2.25-.603s-1.588.22-2.25.603v1.949a2.245 2.245 0 0 1 2.25 0 2.245 2.245 0 0 1 2.25 0v-1.949zm9 0c-.662-.383-1.431-.603-2.25-.603s-1.588.22-2.25.603v1.949a2.245 2.245 0 0 1 2.25 0 2.245 2.245 0 0 1 2.25 0v-1.949zm9 0c-.662-.383-1.431-.603-2.25-.603s-1.588.22-2.25.603v1.949a2.245 2.245 0 0 1 2.25 0 2.245 2.245 0 0 1 2.25 0v-1.949zm22.5-11.698a17.925 17.925 0 0 0-9-2.408 17.92 17.92 0 0 0-9 2.408v7.799c1.324-.767 2.86-1.207 4.5-1.207s3.176.44 4.5 1.207c1.324-.767 2.86-1.207 4.5-1.207s3.176.44 4.5 1.207v-7.799zm-13.5 11.698c-.662-.383-1.431-.603-2.25-.603s-1.588.22-2.25.603v1.949a2.245 2.245 0 0 1 2.25 0 2.245 2.245 0 0 1 2.25 0v-1.949zm9 0c-.662-.383-1.431-.603-2.25-.603s-1.588.22-2.25.603v1.949a2.245 2.245 0 0 1 2.25 0 2.245 2.245 0 0 1 2.25 0v-1.949zm9 0c-.662-.383-1.431-.603-2.25-.603s-1.588.22-2.25.603v1.949a2.245 2.245 0 0 1 2.25 0 2.245 2.245 0 0 1 2.25 0v-1.949zm9 0c-.662-.383-1.431-.603-2.25-.603s-1.588.22-2.25.603v1.949a2.245 2.245 0 0 1 2.25 0 2.245 2.245 0 0 1 2.25 0v-1.949zm22.5-11.698a17.925 17.925 0 0 0-9-2.408 17.92 17.92 0 0 0-9 2.408v7.799c1.324-.767 2.86-1.207 4.5-1.207s3.176.44 4.5 1.207c1.324-.767 2.86-1.207 4.5-1.207s3.176.44 4.5 1.207v-7.799zm-13.5 11.698c-.662-.383-1.431-.603-2.25-.603s-1.588.22-2.25.603v1.949a2.245 2.245 0 0 1 2.25 0 2.245 2.245 0 0 1 2.25 0v-1.949zm9 0c-.662-.383-1.431-.603-2.25-.603s-1.588.22-2.25.603v1.949a2.245 2.245 0 0 1 2.25 0 2.245 2.245 0 0 1 2.25 0v-1.949zm9 0a4.484 4.484 0 0 0-2.25-.603c-.82 0-1.588.22-2.25.603v1.949a2.245 2.245 0 0 1 2.25 0 2.242 2.242 0 0 1 2.25 0v-1.949zm9 0a4.484 4.484 0 0 0-2.25-.603c-.82 0-1.588.22-2.25.603v1.949a2.242 2.242 0 0 1 2.25 0 2.242 2.242 0 0 1 2.25 0v-1.949zm22.5-11.698a17.928 17.928 0 0 0-9-2.408c-3.279 0-6.354.877-9 2.408v7.799a8.944 8.944 0 0 1 4.5-1.207 8.95 8.95 0 0 1 4.5 1.207 8.944 8.944 0 0 1 4.5-1.207 8.95 8.95 0 0 1 4.5 1.207v-7.799zm-13.5 11.698a4.484 4.484 0 0 0-2.25-.603c-.82 0-1.588.22-2.25.603v1.949a2.242 2.242 0 0 1 2.25 0 2.242 2.242 0 0 1 2.25 0v-1.949zm9 0a4.484 4.484 0 0 0-2.25-.603c-.82 0-1.588.22-2.25.603v1.949a2.242 2.242 0 0 1 2.25 0 2.242 2.242 0 0 1 2.25 0v-1.949zm9 0a4.484 4.484 0 0 0-2.25-.603c-.82 0-1.588.22-2.25.603v1.949a2.242 2.242 0 0 1 2.25 0 2.242 2.242 0 0 1 2.25 0v-1.949zm9 0a4.484 4.484 0 0 0-2.25-.603c-.82 0-1.588.22-2.25.603v1.949a2.242 2.242 0 0 1 2.25 0 2.242 2.242 0 0 1 2.25 0v-1.949zm22.502-11.699a17.925 17.925 0 0 0-9-2.408 17.92 17.92 0 0 0-9 2.408v7.799c1.324-.767 2.86-1.207 4.5-1.207s3.176.44 4.5 1.207c1.324-.767 2.86-1.207 4.5-1.207s3.176.44 4.5 1.207v-7.799zm-13.5 11.698c-.662-.383-1.431-.603-2.25-.603s-1.588.22-2.25.603v1.949a2.245 2.245 0 0 1 2.25 0 2.245 2.245 0 0 1 2.25 0v-1.949zm9 0c-.662-.383-1.431-.603-2.25-.603s-1.588.22-2.25.603v1.949a2.245 2.245 0 0 1 2.25 0 2.245 2.245 0 0 1 2.25 0v-1.949zm9 0c-.662-.383-1.431-.603-2.25-.603s-1.588.22-2.25.603v1.949a2.245 2.245 0 0 1 2.25 0 2.245 2.245 0 0 1 2.25 0v-1.949zm9 0c-.662-.383-1.431-.603-2.25-.603s-1.588.22-2.25.603v1.949a2.245 2.245 0 0 1 2.25 0 2.245 2.245 0 0 1 2.25 0v-1.949zm22.5-11.698a17.925 17.925 0 0 0-9-2.408 17.92 17.92 0 0 0-9 2.408v7.799c1.324-.767 2.86-1.207 4.5-1.207s3.176.44 4.5 1.207c1.324-.767 2.86-1.207 4.5-1.207s3.176.44 4.5 1.207v-7.799zm-13.5 11.698c-.662-.383-1.431-.603-2.25-.603s-1.588.22-2.25.603v1.949a2.245 2.245 0 0 1 2.25 0 2.245 2.245 0 0 1 2.25 0v-1.949zm9 0c-.662-.383-1.431-.603-2.25-.603s-1.588.22-2.25.603v1.949a2.245 2.245 0 0 1 2.25 0 2.245 2.245 0 0 1 2.25 0v-1.949zm9 0c-.662-.383-1.431-.603-2.25-.603s-1.588.22-2.25.603v1.949a2.245 2.245 0 0 1 2.25 0 2.245 2.245 0 0 1 2.25 0v-1.949zm9 0c-.662-.383-1.431-.603-2.25-.603s-1.588.22-2.25.603v1.949a2.245 2.245 0 0 1 2.25 0 2.245 2.245 0 0 1 2.25 0v-1.949zm22.5-11.698a17.925 17.925 0 0 0-9-2.408 17.92 17.92 0 0 0-9 2.408v7.799c1.324-.767 2.86-1.207 4.5-1.207s3.176.44 4.5 1.207c1.324-.767 2.86-1.207 4.5-1.207s3.176.44 4.5 1.207v-7.799zm-13.5 11.698c-.662-.383-1.431-.603-2.25-.603s-1.588.22-2.25.603v1.949a2.245 2.245 0 0 1 2.25 0 2.245 2.245 0 0 1 2.25 0v-1.949zm9 0c-.662-.383-1.431-.603-2.25-.603s-1.588.22-2.25.603v1.949a2.245 2.245 0 0 1 2.25 0 2.245 2.245 0 0 1 2.25 0v-1.949zm9 0a4.484 4.484 0 0 0-2.25-.603c-.82 0-1.588.22-2.25.603v1.949a2.245 2.245 0 0 1 2.25 0 2.242 2.242 0 0 1 2.25 0v-1.949zm9 0a4.484 4.484 0 0 0-2.25-.603c-.82 0-1.588.22-2.25.603v1.949a2.242 2.242 0 0 1 2.25 0 2.242 2.242 0 0 1 2.25 0v-1.949zm22.5-11.698a17.928 17.928 0 0 0-9-2.408c-3.279 0-6.354.877-9 2.408v7.799a8.944 8.944 0 0 1 4.5-1.207 8.95 8.95 0 0 1 4.5 1.207 8.944 8.944 0 0 1 4.5-1.207 8.95 8.95 0 0 1 4.5 1.207v-7.799zm-13.5 11.698a4.484 4.484 0 0 0-2.25-.603c-.82 0-1.588.22-2.25.603v1.949a2.242 2.242 0 0 1 2.25 0 2.242 2.242 0 0 1 2.25 0v-1.949zm9 0a4.484 4.484 0 0 0-2.25-.603c-.82 0-1.588.22-2.25.603v1.949a2.242 2.242 0 0 1 2.25 0 2.242 2.242 0 0 1 2.25 0v-1.949zm9 0a4.484 4.484 0 0 0-2.25-.603c-.82 0-1.588.22-2.25.603v1.949a2.242 2.242 0 0 1 2.25 0 2.242 2.242 0 0 1 2.25 0v-1.949zm9 0a4.484 4.484 0 0 0-2.25-.603c-.82 0-1.588.22-2.25.603v1.949a2.242 2.242 0 0 1 2.25 0 2.242 2.242 0 0 1 2.25 0v-1.949z" fill="#FFEBAA" stroke="#000" stroke-miterlimit="10"/><path d="M142.874 117c-21.182-12.253-45.771-19.269-72-19.269s-50.818 7.016-72 19.269v62.388a71.64 71.64 0 0 1 36.002-9.657 71.645 71.645 0 0 1 36 9.656 71.64 71.64 0 0 1 36-9.656 71.652 71.652 0 0 1 35.998 9.655V117zM34.875 210.581c-5.295-3.063-11.442-4.817-18-4.817s-12.705 1.754-18 4.817v15.597c2.648-1.532 5.721-2.414 9-2.414s6.352.882 9 2.414a17.914 17.914 0 0 1 9-2.414c3.279 0 6.351.882 9 2.414v-15.597zm72 0c-5.295-3.063-11.442-4.817-18-4.817s-12.705 1.754-18 4.817v15.597a17.917 17.917 0 0 1 9-2.414c3.28 0 6.352.882 9 2.414 2.648-1.532 5.721-2.414 9-2.414s6.352.882 9 2.414v-15.597zm72.001-.001c-5.295-3.063-11.442-4.817-18-4.817s-12.704 1.754-18 4.817v15.597a17.918 17.918 0 0 1 9.001-2.414c3.279 0 6.352.882 9 2.414a17.911 17.911 0 0 1 9-2.414c3.278 0 6.351.882 8.999 2.414V210.58zm72 0c-5.295-3.063-11.442-4.817-18-4.817s-12.705 1.754-18 4.817v15.597a17.917 17.917 0 0 1 9-2.414c3.28 0 6.352.882 9 2.414 2.648-1.532 5.721-2.414 9-2.414s6.352.882 9 2.414V210.58zM7.875 233.977c-1.324-.766-2.86-1.204-4.5-1.204s-3.176.438-4.5 1.204v3.899c.662-.384 1.43-.604 2.25-.604s1.588.22 2.25.604c.662-.384 1.43-.604 2.25-.604s1.588.22 2.25.604v-3.899zm-6.75 5.848a2.244 2.244 0 0 0-2.25 0v.975a1.123 1.123 0 0 1 1.124 0 1.123 1.123 0 0 1 1.124 0v-.975zm4.5 0a2.244 2.244 0 0 0-2.25 0v.975a1.123 1.123 0 0 1 1.124 0 1.123 1.123 0 0 1 1.124 0v-.975zm4.5 0a2.244 2.244 0 0 0-2.25 0v.975c.166-.096.357-.15.562-.15s.398.054.563.15a1.123 1.123 0 0 1 1.124 0v-.975zm4.5 0a2.244 2.244 0 0 0-2.25 0v.975a1.123 1.123 0 0 1 1.124 0 1.123 1.123 0 0 1 1.124 0v-.975zm11.25-5.848c-1.324-.766-2.86-1.204-4.5-1.204s-3.176.438-4.5 1.204v3.899c.662-.384 1.43-.604 2.25-.604s1.588.22 2.25.604c.662-.384 1.43-.604 2.25-.604s1.588.22 2.25.604v-3.899zm-6.75 5.848a2.244 2.244 0 0 0-2.25 0v.975a1.123 1.123 0 0 1 1.124 0 1.123 1.123 0 0 1 1.124 0v-.975zm4.5 0a2.244 2.244 0 0 0-2.25 0v.975a1.123 1.123 0 0 1 1.124 0 1.123 1.123 0 0 1 1.124 0v-.975zm4.5 0a2.244 2.244 0 0 0-2.25 0v.975a1.123 1.123 0 0 1 1.124 0 1.123 1.123 0 0 1 1.124 0v-.975zm4.5 0a2.244 2.244 0 0 0-2.25 0v.975a1.123 1.123 0 0 1 1.124 0 1.123 1.123 0 0 1 1.124 0v-.975zm11.25-5.848c-1.324-.766-2.86-1.204-4.5-1.204s-3.176.438-4.5 1.204v3.899c.662-.384 1.43-.604 2.25-.604s1.588.22 2.25.604c.662-.384 1.43-.604 2.25-.604s1.588.22 2.25.604v-3.899zm-6.75 5.848a2.244 2.244 0 0 0-2.25 0v.975a1.123 1.123 0 0 1 1.124 0 1.123 1.123 0 0 1 1.124 0v-.975zm4.5 0a2.244 2.244 0 0 0-2.25 0v.975a1.123 1.123 0 0 1 1.124 0 1.123 1.123 0 0 1 1.124 0v-.975zm4.5 0a2.244 2.244 0 0 0-2.25 0v.975a1.123 1.123 0 0 1 1.124 0 1.123 1.123 0 0 1 1.124 0v-.975zm4.5 0a2.244 2.244 0 0 0-2.25 0v.975a1.123 1.123 0 0 1 1.124 0 1.123 1.123 0 0 1 1.124 0v-.975zm11.25-5.848c-1.324-.766-2.86-1.204-4.5-1.204s-3.176.438-4.5 1.204v3.899c.662-.384 1.43-.604 2.25-.604s1.588.22 2.25.604c.662-.384 1.43-.604 2.25-.604s1.588.22 2.25.604v-3.899zm-6.75 5.848a2.244 2.244 0 0 0-2.25 0v.975a1.123 1.123 0 0 1 1.124 0 1.123 1.123 0 0 1 1.124 0v-.975zm4.5 0a2.244 2.244 0 0 0-2.25 0v.975a1.123 1.123 0 0 1 1.124 0 1.123 1.123 0 0 1 1.124 0v-.975zm4.5 0a2.244 2.244 0 0 0-2.25 0v.975a1.123 1.123 0 0 1 1.124 0 1.123 1.123 0 0 1 1.124 0v-.975zm4.5 0a2.244 2.244 0 0 0-2.25 0v.975a1.123 1.123 0 0 1 1.124 0 1.123 1.123 0 0 1 1.124 0v-.975zm11.25-5.848c-1.324-.766-2.86-1.204-4.5-1.204s-3.176.438-4.5 1.204v3.899c.662-.384 1.43-.604 2.25-.604s1.588.22 2.25.604c.662-.384 1.43-.604 2.25-.604s1.588.22 2.25.604v-3.899zm-6.75 5.848a2.244 2.244 0 0 0-2.25 0v.975a1.123 1.123 0 0 1 1.124 0 1.123 1.123 0 0 1 1.124 0v-.975zm4.5 0a2.244 2.244 0 0 0-2.25 0v.975a1.123 1.123 0 0 1 1.124 0 1.123 1.123 0 0 1 1.124 0v-.975zm4.5 0a2.244 2.244 0 0 0-2.25 0v.975a1.123 1.123 0 0 1 1.124 0 1.123 1.123 0 0 1 1.124 0v-.975zm4.5 0a2.244 2.244 0 0 0-2.25 0v.975a1.123 1.123 0 0 1 1.124 0 1.123 1.123 0 0 1 1.124 0v-.975zm11.25-5.848a8.958 8.958 0 0 0-4.5-1.204 8.952 8.952 0 0 0-4.5 1.204v3.899c.662-.384 1.43-.604 2.25-.604s1.588.22 2.25.604c.662-.384 1.43-.604 2.25-.604s1.588.22 2.25.604v-3.899zm-6.75 5.848a2.247 2.247 0 0 0-2.25 0v.975a1.13 1.13 0 0 1 1.125 0 1.126 1.126 0 0 1 1.124 0v-.975zm4.5 0a2.247 2.247 0 0 0-2.25 0v.975a1.126 1.126 0 0 1 1.124 0 1.126 1.126 0 0 1 1.124 0v-.975zm4.5 0a2.247 2.247 0 0 0-2.25 0v.975a1.126 1.126 0 0 1 1.124 0 1.126 1.126 0 0 1 1.124 0v-.975zm4.5 0a2.247 2.247 0 0 0-2.25 0v.975a1.126 1.126 0 0 1 1.124 0 1.126 1.126 0 0 1 1.124 0v-.975zm11.25-5.848a8.958 8.958 0 0 0-4.5-1.204 8.952 8.952 0 0 0-4.5 1.204v3.899c.662-.384 1.43-.604 2.25-.604s1.588.22 2.25.604c.662-.384 1.43-.604 2.25-.604s1.588.22 2.25.604v-3.899zm-6.75 5.848a2.247 2.247 0 0 0-2.25 0v.975a1.126 1.126 0 0 1 1.124 0 1.126 1.126 0 0 1 1.124 0v-.975zm4.5 0a2.247 2.247 0 0 0-2.25 0v.975a1.126 1.126 0 0 1 1.124 0 1.126 1.126 0 0 1 1.124 0v-.975zm4.5 0a2.247 2.247 0 0 0-2.25 0v.975a1.126 1.126 0 0 1 1.124 0 1.126 1.126 0 0 1 1.124 0v-.975zm4.5 0a2.247 2.247 0 0 0-2.25 0v.975a1.126 1.126 0 0 1 1.124 0 1.126 1.126 0 0 1 1.124 0v-.975zm11.25-5.848a8.958 8.958 0 0 0-4.5-1.204 8.952 8.952 0 0 0-4.5 1.204v3.899c.662-.384 1.43-.604 2.25-.604s1.588.22 2.25.604c.662-.384 1.43-.604 2.25-.604s1.588.22 2.25.604v-3.899zm-6.75 5.848a2.247 2.247 0 0 0-2.25 0v.975a1.126 1.126 0 0 1 1.124 0 1.126 1.126 0 0 1 1.124 0v-.975zm4.5 0a2.247 2.247 0 0 0-2.25 0v.975a1.126 1.126 0 0 1 1.124 0 1.126 1.126 0 0 1 1.124 0v-.975zm4.5 0a2.247 2.247 0 0 0-2.25 0v.975a1.126 1.126 0 0 1 1.124 0 1.126 1.126 0 0 1 1.124 0v-.975zm4.5 0a2.247 2.247 0 0 0-2.25 0v.975a1.126 1.126 0 0 1 1.124 0 1.126 1.126 0 0 1 1.124 0v-.975zm11.252-5.849c-1.324-.766-2.86-1.204-4.5-1.204s-3.176.438-4.5 1.204v3.899c.662-.384 1.43-.604 2.25-.604s1.588.22 2.25.604c.662-.384 1.43-.604 2.25-.604s1.588.22 2.25.604v-3.899zm-6.75 5.848a2.244 2.244 0 0 0-2.25 0v.975a1.123 1.123 0 0 1 1.124 0 1.123 1.123 0 0 1 1.124 0v-.975zm4.5 0a2.244 2.244 0 0 0-2.25 0v.975a1.123 1.123 0 0 1 1.124 0 1.123 1.123 0 0 1 1.124 0v-.975zm4.5 0a2.244 2.244 0 0 0-2.25 0v.975a1.123 1.123 0 0 1 1.124 0 1.123 1.123 0 0 1 1.124 0v-.975zm4.5 0a2.244 2.244 0 0 0-2.25 0v.975a1.123 1.123 0 0 1 1.124 0 1.123 1.123 0 0 1 1.124 0v-.975zm11.25-5.848c-1.324-.766-2.86-1.204-4.5-1.204s-3.176.438-4.5 1.204v3.899c.662-.384 1.43-.604 2.25-.604s1.588.22 2.25.604c.662-.384 1.43-.604 2.25-.604s1.588.22 2.25.604v-3.899zm-6.75 5.848a2.244 2.244 0 0 0-2.25 0v.975a1.123 1.123 0 0 1 1.124 0 1.123 1.123 0 0 1 1.124 0v-.975zm4.5 0a2.244 2.244 0 0 0-2.25 0v.975a1.123 1.123 0 0 1 1.124 0 1.123 1.123 0 0 1 1.124 0v-.975zm4.5 0a2.244 2.244 0 0 0-2.25 0v.975a1.123 1.123 0 0 1 1.124 0 1.123 1.123 0 0 1 1.124 0v-.975zm4.5 0a2.244 2.244 0 0 0-2.25 0v.975a1.123 1.123 0 0 1 1.124 0 1.123 1.123 0 0 1 1.124 0v-.975zm11.25-5.848c-1.324-.766-2.86-1.204-4.5-1.204s-3.176.438-4.5 1.204v3.899c.662-.384 1.43-.604 2.25-.604s1.588.22 2.25.604c.662-.384 1.43-.604 2.25-.604s1.588.22 2.25.604v-3.899zm-6.75 5.848a2.244 2.244 0 0 0-2.25 0v.975a1.123 1.123 0 0 1 1.124 0 1.123 1.123 0 0 1 1.124 0v-.975zm4.5 0a2.244 2.244 0 0 0-2.25 0v.975a1.123 1.123 0 0 1 1.124 0 1.123 1.123 0 0 1 1.124 0v-.975zm4.5 0a2.244 2.244 0 0 0-2.25 0v.975a1.123 1.123 0 0 1 1.124 0 1.123 1.123 0 0 1 1.124 0v-.975zm4.5 0a2.244 2.244 0 0 0-2.25 0v.975a1.123 1.123 0 0 1 1.124 0 1.123 1.123 0 0 1 1.124 0v-.975zm11.25-5.848c-1.324-.766-2.86-1.204-4.5-1.204s-3.176.438-4.5 1.204v3.899c.662-.384 1.43-.604 2.25-.604s1.588.22 2.25.604c.662-.384 1.43-.604 2.25-.604s1.588.22 2.25.604v-3.899zm-6.75 5.848a2.244 2.244 0 0 0-2.25 0v.975a1.123 1.123 0 0 1 1.124 0 1.123 1.123 0 0 1 1.124 0v-.975zm4.5 0a2.244 2.244 0 0 0-2.25 0v.975a1.123 1.123 0 0 1 1.124 0 1.123 1.123 0 0 1 1.124 0v-.975zm4.5 0a2.244 2.244 0 0 0-2.25 0v.975a1.123 1.123 0 0 1 1.124 0 1.123 1.123 0 0 1 1.124 0v-.975zm4.5 0a2.244 2.244 0 0 0-2.25 0v.975a1.123 1.123 0 0 1 1.124 0 1.123 1.123 0 0 1 1.124 0v-.975zm11.25-5.848c-1.324-.766-2.86-1.204-4.5-1.204s-3.176.438-4.5 1.204v3.899c.662-.384 1.43-.604 2.25-.604s1.588.22 2.25.604c.662-.384 1.43-.604 2.25-.604s1.588.22 2.25.604v-3.899zm-6.75 5.848a2.244 2.244 0 0 0-2.25 0v.975a1.123 1.123 0 0 1 1.124 0 1.123 1.123 0 0 1 1.124 0v-.975zm4.5 0a2.244 2.244 0 0 0-2.25 0v.975a1.123 1.123 0 0 1 1.124 0 1.123 1.123 0 0 1 1.124 0v-.975zm4.5 0a2.244 2.244 0 0 0-2.25 0v.975a1.123 1.123 0 0 1 1.124 0 1.123 1.123 0 0 1 1.124 0v-.975zm4.5 0a2.244 2.244 0 0 0-2.25 0v.975a1.123 1.123 0 0 1 1.124 0 1.123 1.123 0 0 1 1.124 0v-.975zm11.25-5.848a8.958 8.958 0 0 0-4.5-1.204 8.952 8.952 0 0 0-4.5 1.204v3.899c.662-.384 1.43-.604 2.25-.604s1.588.22 2.25.604c.662-.384 1.43-.604 2.25-.604s1.588.22 2.25.604v-3.899zm-6.75 5.848a2.247 2.247 0 0 0-2.25 0v.975a1.123 1.123 0 0 1 1.124 0 1.126 1.126 0 0 1 1.124 0v-.975zm4.5 0a2.247 2.247 0 0 0-2.25 0v.975a1.126 1.126 0 0 1 1.124 0 1.126 1.126 0 0 1 1.124 0v-.975zm4.5 0a2.247 2.247 0 0 0-2.25 0v.975a1.126 1.126 0 0 1 1.124 0 1.126 1.126 0 0 1 1.124 0v-.975zm4.5 0a2.247 2.247 0 0 0-2.25 0v.975a1.126 1.126 0 0 1 1.124 0 1.126 1.126 0 0 1 1.124 0v-.975zm11.25-5.848a8.958 8.958 0 0 0-4.5-1.204 8.952 8.952 0 0 0-4.5 1.204v3.899c.662-.384 1.43-.604 2.25-.604s1.588.22 2.25.604c.662-.384 1.43-.604 2.25-.604s1.588.22 2.25.604v-3.899zm-6.75 5.848a2.247 2.247 0 0 0-2.25 0v.975a1.126 1.126 0 0 1 1.124 0 1.126 1.126 0 0 1 1.124 0v-.975zm4.5 0a2.247 2.247 0 0 0-2.25 0v.975a1.126 1.126 0 0 1 1.124 0 1.126 1.126 0 0 1 1.124 0v-.975zm4.5 0a2.247 2.247 0 0 0-2.25 0v.975a1.126 1.126 0 0 1 1.124 0 1.126 1.126 0 0 1 1.124 0v-.975zm4.5 0a2.247 2.247 0 0 0-2.25 0v.975a1.126 1.126 0 0 1 1.124 0 1.126 1.126 0 0 1 1.124 0v-.975zm11.25-5.848a8.958 8.958 0 0 0-4.5-1.204 8.952 8.952 0 0 0-4.5 1.204v3.899c.662-.384 1.43-.604 2.25-.604s1.588.22 2.25.604c.662-.384 1.43-.604 2.25-.604s1.588.22 2.25.604v-3.899zm-6.75 5.848a2.247 2.247 0 0 0-2.25 0v.975a1.126 1.126 0 0 1 1.124 0 1.126 1.126 0 0 1 1.124 0v-.975zm4.5 0a2.247 2.247 0 0 0-2.25 0v.975a1.126 1.126 0 0 1 1.124 0 1.126 1.126 0 0 1 1.124 0v-.975zm4.5 0a2.247 2.247 0 0 0-2.25 0v.975a1.126 1.126 0 0 1 1.124 0 1.126 1.126 0 0 1 1.124 0v-.975zm4.5 0a2.247 2.247 0 0 0-2.25 0v.975a1.126 1.126 0 0 1 1.124 0 1.126 1.126 0 0 1 1.124 0v-.975z" fill="#AAD5EF" stroke="#000" stroke-miterlimit="10"/></svg>