<svg xmlns="http://www.w3.org/2000/svg" width="888" height="624">
    <path opacity=".6" fill="#4664AA" d="M196.387 451.602c76.172-.934 179.215-1.762 228.301 10.66 49.084 12.418 44.219 38.09-19.848 52.898-64.07 14.809-187.34 18.754-261.08 6.852s-97.949-39.658-85.4-54.051c12.548-14.395 61.853-15.43 138.027-16.359z"/>
    <path opacity=".6" fill="#A01E28" d="M103.246 360.719c19.254 47.883 33.764 65.736 93.766 74.777 60 9.039 165.496 9.273 180.912-23.385 15.42-32.654-59.242-98.201-131.242-146.201s-141.34-78.455-164.014-54.725c-22.672 23.731 1.324 101.649 20.578 149.534z"/>
    <path opacity=".6" fill="#FF4500" d="M668.242 342.277c32.24 1.275 72.723 19.828 103.227 58.584 30.508 38.754 51.031 97.713 36.217 123.674-14.814 25.963-64.975 18.932-107.479-11.824-42.508-30.756-77.355-85.234-82.785-120.473C612 357 636 341 668.242 342.277z"/>
    <path opacity=".4" fill="#FAE614" d="M757.234 117.268c-40.613 26.834-95.02 93.4-139.02 177.4-44 83.998-77.594 185.434-42.387 248.148 35.203 62.715 139.199 86.715 203.203 46.715 63.998-40 87.998-144 93.406-233.547 5.406-89.551-7.785-164.65-27.781-208.65-20.001-44.002-46.813-56.9-87.421-30.066z"/>
    <path opacity=".6" fill="#009682" d="M384.258 148.508c51.434 38.309 79.588 107.402 53.996 120.977-25.59 13.576-104.928-28.361-156.359-66.672-51.432-38.309-74.961-72.992-49.371-86.566 25.589-13.577 100.302-6.05 151.734 32.261z"/>
    <path opacity=".4" fill="#DCA01E" d="M329.008 37.625c75.998 36 167.496 113.688 191.531 165.281 24.037 51.594-19.391 77.098-75.391 85.094-55.998 8.002-124.574-1.5-178.861-50.25S172 101 182.25 54.156c10.254-46.844 70.754-52.531 146.758-16.531z"/>
    <g fill="none" stroke="#000" stroke-width="2">
        <path opacity=".6" d="M668.242 342.277c32.24 1.275 72.723 19.828 103.227 58.584 30.508 38.754 51.031 97.713 36.217 123.674-14.814 25.963-64.975 18.932-107.479-11.824-42.508-30.756-77.355-85.234-82.785-120.473C612 357 636 341 668.242 342.277z"/>
        <path d="M255.738 42.803L372 181l116.184 31.371m142.023 320.52L708 445l106.984-86.432"/>
        <path d="M398.746 485.844L492 565l138.207-32.109 148.398-21.03 36.43-153.304-43.947-185.034L588 253l-99.816-40.629M660 373l-29.793 159.891M339.682 404.215l59.064 81.629m-228.348-81.957l-59.378 81.396m7.378-242.492l-95.761-31.318"/>
        <path d="M488.184 212.371L255.738 42.803 22.637 211.475l88.383 273.808 287.726.557z"/>
        <path d="M392.303 243.318l-136.76-99.763-137.145 99.236 52 161.1 169.286.328zm0 0l95.881-30.947M660 373l155.035-14.443"/>
    </g>
    <path opacity=".6" fill="none" stroke="#000" stroke-width="2.4" d="M384.258 148.508c51.434 38.309 79.588 107.402 53.996 120.977-25.59 13.576-104.928-28.361-156.359-66.672-51.432-38.309-74.961-72.992-49.371-86.566 25.589-13.577 100.302-6.05 151.734 32.261z"/>
    <path opacity=".4" fill="none" stroke="#DCA01E" stroke-width="2.4" d="M757.234 117.268c-40.613 26.834-95.02 93.4-139.02 177.4-44 83.998-77.594 185.434-42.387 248.148 35.203 62.715 139.199 86.715 203.203 46.715 63.998-40 87.998-144 93.406-233.547 5.406-89.551-7.785-164.65-27.781-208.65-20.001-44.002-46.813-56.9-87.421-30.066z"/>
    <path opacity=".6" fill="none" stroke="#4664AA" stroke-width="2.4" d="M196.387 451.602c76.172-.934 179.215-1.762 228.301 10.66 49.084 12.418 44.219 38.09-19.848 52.898-64.07 14.809-187.34 18.754-261.08 6.852s-97.949-39.658-85.4-54.051c12.548-14.395 61.853-15.43 138.027-16.359z"/>
    <path opacity=".6" fill="none" stroke="#A01E28" stroke-width="2.4" d="M103.246 360.719c19.254 47.883 33.764 65.736 93.766 74.777 60 9.039 165.496 9.273 180.912-23.385 15.42-32.654-59.242-98.201-131.242-146.201s-141.34-78.455-164.014-54.725c-22.672 23.731 1.324 101.649 20.578 149.534z"/>
    <path opacity=".4" fill="none" stroke="#000" stroke-width="2.4" d="M329.008 37.625c75.998 36 167.496 113.688 191.531 165.281 24.037 51.594-19.391 77.098-75.391 85.094-55.998 8.002-124.574-1.5-178.861-50.25S172 101 182.25 54.156c10.254-46.844 70.754-52.531 146.758-16.531z"/>
    <path d="M411.346 485.844c0-6.961-5.639-12.602-12.6-12.602s-12.602 5.641-12.602 12.602c0 6.957 5.641 12.6 12.602 12.6s12.6-5.643 12.6-12.6m-287.725-.561c0-6.959-5.641-12.6-12.602-12.6-6.959 0-12.598 5.641-12.598 12.6 0 6.961 5.639 12.6 12.598 12.6 6.961 0 12.602-5.639 12.602-12.6" fill="#4664AA"/>
    <path d="M268.338 42.803c0-6.959-5.641-12.602-12.6-12.602-6.961 0-12.602 5.643-12.602 12.602s5.641 12.6 12.602 12.6c6.959-.001 12.6-5.641 12.6-12.6m232.445 169.568c0-6.959-5.639-12.602-12.6-12.602-6.959 0-12.598 5.643-12.598 12.602s5.639 12.602 12.598 12.602c6.962 0 12.6-5.643 12.6-12.602" fill="#DCA01E"/>
    <path d="M642.863 532.883c0-6.959-5.641-12.602-12.6-12.602-6.961 0-12.6 5.643-12.6 12.602 0 6.961 5.639 12.6 12.6 12.6 6.96-.001 12.6-5.639 12.6-12.6m184.778-174.326c0-6.955-5.645-12.6-12.602-12.6s-12.598 5.645-12.598 12.6c0 6.961 5.641 12.6 12.598 12.6s12.602-5.639 12.602-12.6m-43.955-185.034c0-6.957-5.643-12.6-12.598-12.6-6.961 0-12.6 5.643-12.6 12.6 0 6.961 5.639 12.602 12.6 12.602 6.955 0 12.598-5.641 12.598-12.602" fill="gold"/>
    <path d="M791.207 511.861c0-6.959-5.646-12.6-12.602-12.6-6.961 0-12.602 5.641-12.602 12.6 0 6.961 5.641 12.6 12.602 12.6 6.956 0 12.602-5.639 12.602-12.6M672.602 373c0-6.961-5.641-12.602-12.602-12.602s-12.602 5.641-12.602 12.602 5.641 12.602 12.602 12.602 12.602-5.641 12.602-12.602m48 72c0-6.961-5.641-12.602-12.602-12.602s-12.602 5.641-12.602 12.602 5.641 12.602 12.602 12.602 12.602-5.641 12.602-12.602" fill="#FF4500"/>
    <path d="M384.602 181c0-6.959-5.641-12.602-12.602-12.602-6.959 0-12.602 5.643-12.602 12.602s5.643 12.602 12.602 12.602c6.961 0 12.602-5.643 12.602-12.602m-116.459-37.445c0-6.961-5.639-12.602-12.6-12.602s-12.6 5.641-12.6 12.602c0 6.959 5.639 12.598 12.6 12.598s12.6-5.639 12.6-12.598m136.759 99.763c0-6.959-5.639-12.6-12.6-12.6-6.959 0-12.598 5.641-12.598 12.6s5.639 12.602 12.598 12.602c6.962 0 12.6-5.643 12.6-12.602" fill="#009682"/>
    <path d="M130.998 242.791c0-6.961-5.639-12.6-12.6-12.6s-12.6 5.639-12.6 12.6c0 6.959 5.639 12.6 12.6 12.6s12.6-5.641 12.6-12.6m221.283 161.424c0-6.961-5.641-12.6-12.6-12.6s-12.602 5.639-12.602 12.6c0 6.959 5.643 12.602 12.602 12.602s12.6-5.643 12.6-12.602M183 403.887c0-6.961-5.641-12.6-12.602-12.6-6.959 0-12.598 5.639-12.598 12.6s5.639 12.602 12.598 12.602c6.961-.001 12.602-5.641 12.602-12.602" fill="brown"/>
    <path d="M35.238 211.473c0-6.961-5.641-12.602-12.602-12.602-6.959 0-12.598 5.641-12.598 12.602 0 6.959 5.639 12.598 12.598 12.598 6.962-.001 12.602-5.639 12.602-12.598M600.602 253c0-6.959-5.641-12.602-12.602-12.602s-12.602 5.643-12.602 12.602 5.641 12.602 12.602 12.602 12.602-5.643 12.602-12.602m-96 312c0-6.961-5.641-12.602-12.602-12.602s-12.602 5.641-12.602 12.602 5.641 12.602 12.602 12.602 12.602-5.641 12.602-12.602"/>
</svg>
