<svg xmlns="http://www.w3.org/2000/svg" width="360" height="321.998">
    <path d="M180 137.344c21.515-12.451 36-35.698 36-62.344m-83.334 144.328c-21.54-12.406-48.915-13.327-71.991-.004m166.659.004c.025 24.857 12.916 49.025 35.992 62.349M180 54.215L216 75M60.675 260.893v-41.569m238.65 41.569l-35.999 20.784M144 75c0 26.646 14.485 49.893 36 62.344m0-124.698c17.219-9.941 39.236-4.042 49.178 13.176C239.118 43.041 233.219 65.059 216 75m-72 0c-17.219-9.94-23.119-31.958-13.178-49.177C140.764 8.604 162.781 2.705 180 12.646m0 124.698V192M144 75l36-20.785m0 0V12.646M96.675 281.678c23.076-13.323 35.965-37.491 35.991-62.35m-107.991 62.35C7.457 271.736 1.557 249.719 11.497 232.5c9.942-17.218 31.959-23.117 49.178-13.176m36 62.354c0 19.882-16.118 36-36 36.001-19.883-.001-36-16.118-36-36.001m107.992-62.35L180 192m-83.325 89.678l-36-20.785m0 0l-36 20.785m274.651-62.356c-23.076-13.322-50.451-12.4-71.992.006m107.992 62.349c-.001 19.883-16.119 36.001-36 36.001-19.883 0-36-16.119-36-36.001m36-62.355c17.217-9.94 39.235-4.041 49.178 13.177 9.939 17.22 4.041 39.235-13.178 49.178m-107.992-62.349L180 192m119.326 27.322l-.001 41.571m0 0l36.001 20.784" fill="none" stroke="#0081CD" stroke-width="5"/>
    <g fill="#FEC200" stroke="#000">
        <circle cx="180" cy="54.215" r="9"/>
        <circle cx="180" cy="12.646" r="9"/>
        <circle cx="144" cy="75" r="9"/>
        <circle cx="216" cy="75" r="9"/>
        <circle cx="180" cy="137.344" r="9"/>
        <circle cx="60.675" cy="260.893" r="9"/>
        <circle cx="24.675" cy="281.677" r="9"/>
        <circle cx="96.675" cy="281.677" r="9"/>
        <circle cx="60.675" cy="219.323" r="9"/>
        <circle cx="132.667" cy="219.329" r="9"/>
        <circle cx="299.326" cy="260.892" r="9"/>
        <circle cx="335.325" cy="281.677" r="9"/>
        <circle cx="299.325" cy="219.323" r="9"/>
        <circle cx="263.325" cy="281.677" r="9"/>
        <circle cx="227.334" cy="219.328" r="9"/>
        <circle cx="180" cy="192" r="9"/>
    </g>
</svg>
