<svg xmlns="http://www.w3.org/2000/svg" width="657" height="513">
    <path fill="#0081CD" d="M0 0h657v513H0z"/>
    <path fill="#009246" d="M152.497 246.484c.049-.887 1-1.334 1.013-2.15.014-.883-1.406-1.712-1.43-2.534-.026-.875-.175-1.672-.239-2.502-.065-.857-.339-1.635-.438-2.474-.099-.837 1.013-1.819.887-2.669-.121-.821 1.135-1.883.995-2.743-.132-.811-1.938-1.371-2.083-2.239-.134-.806.876-1.828.735-2.702-.165-1.027-2.356-1.422-2.537-2.105-.297-1.12.241-1.922-.22-2.41-.552-.584-.877-1.82-1.902-2.068-.69-.167-1.662.276-2.664.025-.731-.183-1.971.861-2.905.546-.544-.184-.758-1.978-1.572-2.312-.675-.278-2.007.52-2.644.112-.666-.427-1.975-.844-2.373-1.439-.412-.616 1.324-1.989 1.45-2.814.094-.62-.468-1.467.057-2.22.513-.737 1.058-1.885 1.787-2.032.713-.143 1.742-.025 2.552.05.767.071 1.448.106 2.208.076.777-.031 1.483.525 2.156.081.554-.367 1.508-.614 1.95-1.363.353-.599-.593-1.845-.311-2.62.247-.68.634-1.274.828-2.046.181-.72.128-1.455.263-2.221.131-.746 1.694-1.282 1.783-2.041.089-.768-.712-1.616-.666-2.366.049-.789.387-1.537.389-2.27.002-.817.354-1.616.298-2.315-.07-.882.05-1.776-.109-2.379-.224-.845-1.416-.818-2.034-.876-.681-.064-.979-.16-1.196-.913-.215-.745.136-1.471.07-2.252-.065-.767.229-1.402.276-2.187.046-.771.367-1.393.49-2.166.123-.77-.747-1.675-.577-2.431.173-.769.297-1.531.489-2.27.201-.776 1.42-1.27 1.606-1.994.201-.781-2.362-2.202-2.197-2.976.168-.786.785-1.432.921-2.212.138-.79 1.451-1.379 1.559-2.166.109-.793-.474-1.663-.392-2.454.083-.794 1.308-1.489 1.368-2.283.06-.795-.011-1.613.029-2.41.041-.794-1.036-1.637-1.011-2.436.024-.794 1.044-1.567 1.057-2.367.013-.792.504-1.589.509-2.388.005-.794-2.225-1.599-2.224-2.401 0-.793 2.101-1.59 2.101-2.394 0-.761-1.225-1.539-1.237-2.333-.012-.772.541-1.573.497-2.355-.044-.781-1.017-1.462-1.113-2.231-.098-.784 1.172-1.805.999-2.555-.179-.773-.416-1.632-.699-2.345-.292-.734-1.062-1.334-1.488-1.979-.429-.646-2.032-.13-2.623-.66-.559-.501.154-2.877-.573-3.25-.653-.335-3.021 1.302-3.826 1.086-.034-.817.368-2.68.504-3.483.135-.792.843-1.547 1.119-2.327.266-.752 1.694-.984 2.069-1.724.361-.712.36-1.575.801-2.275.428-.678.695-1.452 1.18-2.119.474-.652 1.7-.701 2.211-1.342.506-.634-.512-2.516.014-3.139.527-.624 2.552.037 3.083-.576.538-.621.341-1.872.866-2.481.541-.627 1.197-1.149 1.705-1.763.533-.644 1.71-.795 2.186-1.424.509-.673-.8-2.589-.381-3.245.415-.648 2.635-.192 3.027-.857.39-.662.052-1.763.429-2.436.375-.67-.255-1.896.115-2.572.37-.673 2.469-.393 2.844-1.067.373-.671.943-1.206 1.33-1.873.385-.665.009-1.753.416-2.408.405-.652.415-1.551.85-2.188.443-.649 1.986-.481 2.451-1.111.466-.631-.906-2.655-.421-3.271.485-.616 2.422-.061 2.921-.665.499-.604.388-1.71.896-2.307s1.26-.981 1.773-1.574.077-2.005.589-2.598.752-1.411 1.26-2.008 1.516-.757 2.015-1.361c.499-.604.434-1.638.919-2.253.484-.615 2.693.09 3.159-.541.465-.629.746-1.431 1.189-2.079.44-.646-.864-2.414-.451-3.082.448-.723.907-1.332 1.269-1.892.447-.69 2.839.107 3.266-.456.439-.578.875-.98 1.425-1.566.457-.487.629-1.26 1.247-1.844.611-.578.581-1.824 1.216-2.312.665-.51 1.024-1.525 1.712-1.943.711-.432 1.567-.738 2.303-1.08.75-.349 2.266 1.345 3.038 1.081.778-.266 1.182-1.487 1.98-1.675.796-.187 1.643.199 2.458.082.808-.117 1.558-.113 2.38-.17.813-.056 1.567-.234 2.393-.24.814-.006 1.576.337 2.4.373.814.036 1.616-.276 2.438-.208.813.068 1.629-.075 2.448.018.812.092 1.725-.635 2.54-.525.812.11 1.599.409 2.412.529.812.12 1.745-.548 2.555-.424.812.124 1.399 1.727 2.208 1.847.814.122 1.869-1.474 2.678-1.362.796.109 1.425 1.247 2.174 1.338.8.097 1.447 1.513 2.198 1.584.804.077 1.709-1.248 2.46-1.207.807.044 1.575-.644 2.326-.649.806-.006 1.615 1.019 2.366.947.797-.076 1.258-1.762 2.001-1.923.771-.167 1.891 1.155 2.613.882.724-.273 2.026.365 2.711-.026.658-.375.422-2.26 1.054-2.757.588-.462 2.175.072 2.747-.504.523-.528.888-1.375 1.404-2.006.471-.576.001-1.932.47-2.6.429-.61 1.452-.868 1.882-1.559.414-.665 1.208-1.131 1.586-1.805.383-.682.636-1.43 1.014-2.104.383-.681.856-1.26 1.268-1.916.413-.66.899-1.162 1.374-1.778.47-.609.12-1.883.684-2.434.583-.57.447-2.009 1.041-2.493.63-.514 2.268.297 2.91-.126.675-.445 1.603-.292 2.29-.646.714-.368.99-1.571 1.716-1.849.745-.285 1.6-.168 2.356-.368.767-.203 1.615.287 2.393.162.779-.126 1.456-.566 2.245-.625.784-.059 1.529-.915 2.322-.917.785-.002 1.614-.461 2.406-.418.784.042 1.564.494 2.354.571.781.076 1.521.602 2.307.702.78.1 1.629-.266 2.413-.151.778.114 1.486.72 2.268.841.779.12 1.447.988 2.229 1.105.781.117 1.742-1.009 2.524-.903.783.106 1.595-.139 2.378-.053.786.086 1.578-.276 2.363-.218.789.058 1.494 1.186 2.282 1.206.79.02 1.527-1.384 2.315-1.411.789-.027 1.705 2.142 2.49 2.059.783-.083 1.481-.957 2.26-1.103.771-.145 1.92 1.033 2.686.816.751-.212.642-3.035 1.388-3.324.734-.285 1.515-.255 2.221-.583.712-.33 1.443-.541 2.139-.893.699-.353 1.923.333 2.619-.022.696-.355 1.404-.665 2.111-1 .704-.334.892-1.895 1.619-2.189.719-.291 1.837.402 2.592.17.736-.226 1.566-.007 2.349-.157.781-.15 1.507-1.513 2.372-1.538.813-.023 1.675 1.014 2.519 1.029.835.015 1.706 1.301 2.531 1.285.853-.017 1.751-.939 2.549-1.063.85-.132 1.279-1.534 2.014-1.877.729-.34 1.061-1.011 1.635-1.375.658-.416 1.218-.759 1.792-1.173.594-.428 1.122-1.094 1.765-1.484.587-.357 2.232 1.261 2.973.964.73-.292 1.47-.474 2.22-.742.741-.265 1.14-1.509 1.897-1.751.751-.24 1.418-.795 2.183-1.014.759-.217 1.684.161 2.454-.036.766-.195 1.207-1.805 1.981-1.98.771-.175 1.966 1.586 2.743 1.43.776-.157 1.446-.824 2.227-.963.781-.139 1.481-.763 2.264-.885.784-.123 1.672.473 2.455.366.788-.107 1.407-1.566 2.191-1.658.791-.092 1.813 2.012 2.599 1.935.793-.078 1.551-.263 2.335-.326.796-.065 1.554-.334 2.338-.385.792-.051 1.532-.802 2.317-.846.792-.044 1.53-1.13 2.316-1.166.791-.036 1.586-.179 2.371-.206.792-.026 1.604.564 2.391.549.792-.016 1.587.278 2.373.273.791-.005 1.579.101 2.365.109.791.008 1.604-.867 2.391-.845.79.022 1.604-.151 2.39-.114.789.037 1.453 2.212 2.238 2.265.788.053 1.561.002 2.346.072.785.07 1.549.125 2.333.213.783.088 1.779-1.544 2.561-1.438.78.107 1.573.262 2.353.389.777.126 1.718-.506 2.494-.359.772.146 1.476.811 2.248.978.769.167 1.505.585 2.273.774.763.188 1.144 1.853 1.907 2.063.756.208 1.909-.939 2.667-.708.75.23 1.567.333 2.319.587.743.25 1.288 1.117 2.033 1.392.754.278 1.854-.361 2.592-.078.748.288.771 2.431 1.509 2.719.747.292 1.877-.412 2.618-.125.744.288.97 1.952 1.714 2.229.746.278 1.461.724 2.213.985.749.261 2.209-1.595 2.971-1.356.755.237 1.562.182 2.335.393.761.208.94 2.8 1.724 2.977.779.176 1.739-.533 2.494-.346.775.191 1.764-.484 2.514-.28.771.209 1.462.681 2.207.904.763.229 1.355.958 2.095 1.203.755.251 1.539.369 2.271.639.746.275 1.815-.274 2.538.023.733.302 1.013 1.646 1.725 1.972.719.33 1.433.625 2.131.981.703.358 1.459.586 2.143.974.685.388 2.124-.443 2.792-.023.663.417.024 2.814.674 3.265.643.446 1.514.518 2.145.998.619.473 1.794.245 2.403.753.598.498 1.305.904 1.895 1.438.577.522.757 1.486 1.327 2.043.555.542 1.11 1.089 1.661 1.666.535.562.988 1.207 1.521 1.804.518.579 1.586.699 2.102 1.312.576.686.056 2.301.628 2.958.589.677 2.72-.151 3.351.449.646.614.322 2.325 1.06 2.807.634.414 1.809.953 2.894 1.078 1.012.117 1.917-.042 2.663.317.709.342.883 1.479 1.566 1.899.67.411 2.4-.802 3.048-.327.635.464 1.767.407 2.381.921.604.506 1.221 1.107 1.809 1.65.58.537.891 1.419 1.456 1.982.562.561-.106 2.326.442 2.902.549.577 2.611-.26 3.148.323.541.588-.544 2.658-.014 3.242.54.595 2.004.341 2.534.92.544.594-.085 2.275.45 2.842.557.589 1.748.576 2.298 1.123.587.584 2.252.042 2.841.605.599.571.689 1.658 1.287 2.213.605.562 1.64.645 2.241 1.197.609.559 1.176 1.158 1.777 1.711.607.559-.406 2.851.189 3.41.601.563 2.633-.387 3.219.184.59.574-.071 2.385.5 2.972.572.589 2.352.031 2.901.64.549.608 1.431.978 1.953 1.611.52.631-.09 2.167.4 2.829.484.655.771 1.417 1.222 2.109.443.68.453 1.571.861 2.292.398.705 3.021.273 3.383 1.023.352.73-1.52 2.53-1.174 3.187.376.715 2.651.325 3.032.967.407.689-.536 2.175-.111 2.799.443.651.601 1.551 1.078 2.151.48.604.866 1.38 1.396 1.954.515.557.938 1.326 1.515 1.875.542.516 2.293-.237 2.901.288.563.486.81 1.388 1.44 1.896.711.572 1.437 1.03 2.057 1.55.691.58.848 1.616 1.427 2.201.612.617.913 1.287 1.403 1.995.469.675.864 1.227 1.226 2.062.314.729 2.154.997 2.389 1.901.199.77-1.166 1.877-1.036 2.661.131.783 2.201 1.343 2.27 2.136.068.789-.985 1.689-.97 2.485.016.792-.233 1.586-.264 2.383-.029.792-1.28 1.479-1.348 2.272-.067.791.316 1.59.219 2.38-.098.789.256 1.623.135 2.408-.121.787 1.117 1.806.979 2.586-.139.785.056 1.648-.094 2.425-.151.786-2.189 1.201-2.344 1.975-.156.786.28 1.683.129 2.454-.155.789.774 1.767.633 2.537-.153.829-.744 1.583-.941 2.279-.229.812-.635 1.59-.924 2.255-.332.764-2.392.455-2.801 1.072-.442.668.048 1.877-.482 2.437-.527.557-.533 1.72-1.146 2.235-.573.481-1.681.358-2.327.857-.586.452-1.216.905-1.861 1.413-.581.458-1.754.281-2.383.814-.626.531-.502 1.906-1.058 2.471-.573.583-2.144.322-2.648.937-.516.628-.825 1.521-1.277 2.18-.459.667.028 1.964-.373 2.658-.404.699-1.821.888-2.176 1.609-.355.723-.084 1.774-.397 2.517-.313.74-1.647 1.121-1.928 1.878-.278.753.896 2.042.642 2.809-.254.763-.52 1.521-.756 2.293-.236.769-.94 1.401-1.167 2.174-.228.772-1.369 1.279-1.595 2.052-.227.773-.528 1.51-.762 2.28-.233.772 1.339 2.099 1.091 2.863-.249.767-1.501 1.188-1.773 1.944-.272.759-.524 1.497-.828 2.241-.305.746.708 2.081.364 2.808-.345.728-2.749.376-3.141 1.081-.295.53-.166 1.428-.733 2.213-.425.588-.87 1.216-1.41 1.891-.477.596-1.14 1.048-1.683 1.675-.513.593-.974 1.212-1.526 1.805-.547.586.578 2.819.012 3.377-.582.573-1.451.927-2.035 1.441-.631.554-1.459.943-2.067 1.392-.706.521-1.313 1.422-1.953 1.747-.852.432-2.255.287-2.909.252-.764-.041-1.889-.707-2.508-1.313-.512-.501.669-2.404.209-3.114-.414-.64-1.679-.756-2.084-1.442-.409-.693-1.865-.684-2.297-1.302-.487-.7-.848-1.078-1.408-1.518-.643-.504-.595-1.912-1.277-2.335-.689-.428-1.214-1.244-1.938-1.6-.727-.356-2.042.637-2.798.344-.75-.292-.873-2.447-1.647-2.688-.77-.239-1.759.092-2.544-.105-.783-.196-1.764.41-2.557.246-.791-.164-1.51-.719-2.307-.86-.797-.143-1.473-1.057-2.271-1.187-.802-.13-1.71.397-2.506.269-.803-.128-1.847 1.2-2.638 1.065-.804-.138-1.509-.886-2.295-1.042-.801-.158-1.64-.21-2.416-.397-.795-.191-1.504-.756-2.266-.989-.584-.179-1.231.762-2.001.793-.755.03-2.623-.374-3.235-.412.023-.857 2.407-2.708 2.219-3.417-.211-.799-1.518-1.449-1.964-2.076-.452-.635-.743-1.863-1.399-2.337-.614-.443-1.67-.68-2.432-.996-.697-.291-1.68-.198-2.478-.392-.741-.18-1.772 1.158-2.579 1.052-.764-.1-1.486.061-2.292.021-.774-.039-1.492-.097-2.291-.086-.783.01-1.625-1.652-2.417-1.601-.787.051-1.388 2.068-2.171 2.154-.791.086-1.574-.166-2.347-.05-.795.119-1.713-.687-2.474-.543-.799.151-1.534.476-2.278.647-.807.185-1.381 1.045-2.103 1.244-.823.227-1.56.359-2.242.591-.871.296-1.586.412-2.166.689-.743.356-2.094-.4-2.687.041-.646.48-.793 1.559-1.318 2.102-.551.569-1.014 1.186-1.5 1.779-.496.607-1.859.458-2.361 1.043-.506.589.2 2.329-.386 2.846-.565.5-1.377.902-2.087 1.288-.639.348-1.878-.86-2.686-.638-.785.215-1.412.003-2.193.079-.798.077-1.422.786-2.217.749-.794-.038-1.793 1.74-2.584 1.62-.784-.119-1.22-2.215-2.002-2.384-.777-.168-1.549-.292-2.324-.48-.776-.188-1.604-.191-2.379-.368-.781-.178-1.801.863-2.582.728-.79-.137-1.475-.792-2.266-.853-.795-.062-1.655-1.366-2.452-1.318-.786.047-1.469 1.487-2.257 1.673-.78.185-1.669.197-2.537.437-.805.222-1.187 1.896-2.018 2.158-.818.257-1.683.236-2.482.523-.829.298-2.225-.944-2.984-.622-.842.357-1.791.527-2.484.903-.803.438-.99 1.6-1.502 1.999-.672.523-1.123 1.12-1.746 1.515-.559.354-1.348.313-2.259.511-.615.134-1.3.81-2.218.854-.807.038-1.605-1.225-2.386-1.238-.804-.013-1.632 1.212-2.416 1.168-.798-.044-1.487-1.652-2.274-1.706-.792-.054-1.676 1.363-2.467 1.324-.789-.039-1.563-.384-2.36-.384-.784 0-1.625-.665-2.426-.604-.775.059-1.579.422-2.378.559-.76.131-1.3 1.289-2.087 1.509-.747.209-1.851-.747-2.595-.506-.736.239-.785 2.446-1.52 2.714-.729.267-1.783-.395-2.509-.102-.719.291-1.968-.646-2.684-.331-.71.313-.597 2.433-1.303 2.767-.702.332-1.237.944-1.935 1.295-.694.35-2.625-1.684-3.314-1.317-.687.366-.567 2.231-1.248 2.612-.68.38-2.146-.603-2.82-.21-.674.393-1.227 1.021-1.894 1.423-.669.404-.416 2.31-1.076 2.722-.663.414-1.195 1.011-1.851 1.431-.658.421-2.437-.892-3.086-.467-.654.429-.677 1.816-1.322 2.247-.651.435-2.104-.325-2.745.108-.649.439-.8 1.613-1.438 2.049-.637.435-.412 2.324-1.173 2.83-.686.456-1.294.987-1.996 1.5-.689.503-1.742.418-2.373.976-.657.582-.538 1.627-1.049 2.268-.556.697-2.068.54-2.346 1.306-.271.748.912 1.627.843 2.447-.066.781-2.654 1.547-2.599 2.372.052.788 1.89 1.437 2 2.246.107.795-.962 1.76-.851 2.557.113.808 1.124 1.5 1.189 2.292.068.822.174 1.673.134 2.457-.042.824-.806 1.517-1.033 2.275-.266.887-1.283 1.164-1.667 1.822-.45.771.652 2.688.061 3.229-.615.562-1.453 1.22-2.198 1.63-.705.389-1.513.889-2.315 1.229-.736.312-2.491-1.7-3.292-1.36-.737.312-.473 2.896-1.253 3.284-.734.365-2.255-1.024-3.005-.73-.76.297-1.219 1.37-1.994 1.603-.779.233-1.459.938-2.251 1.116-.792.177-1.791-.689-2.593-.56-.799.13-1.52.797-2.329.89-.804.092-1.558.921-2.369.985-.807.063-1.688-.782-2.501-.737-.81.044-1.627-.064-2.44-.03-.81.035-1.581 1.01-2.393 1.044-.811.033-1.652-.659-2.463-.618-.812.041-1.653-.374-2.463-.317-.811.058-1.64.052-2.447.134-.809.082-1.365 2.057-2.168 2.172-.804.116-1.701-.622-2.498-.464-.795.158-1.546.359-2.333.568-1.061.281-1.407 1.295-2.012 1.561-.929.408-1.439-.052-1.938.688-.375.557-.542 1.296-1.061 2.263-.338.63-1.775.799-2.291 1.67a14.998 14.998 0 0 1-1.483 2.116c-.548.644-1.185 1.275-1.77 1.946-.596.682-.666 1.77-1.158 2.438-.588.799-.412 1.625-.626 2.339-.209.698-.354 1.258-.422 2.081-.062.738-2.061 1.48-2.029 2.29.03.753.62 1.553.716 2.344.092.759.05 1.59.19 2.365.138.762.085 1.605.257 2.365.173.766 2.139 1.091 2.333 1.834.202.771-.075 1.64.137 2.365.228.78 1.016 1.342 1.238 2.044.254.805-.928 2.008-.706 2.673.29.867 1.44 1.341 1.803 2.096.385.804.362 1.782.811 2.515.452.738 1.444 1.109 1.941 1.835.48.701 1.168 1.282 1.674 2.026.472.692 1.532 1.095 2.011 1.87.416.672-1.107 2.426-.778 3.114.337.706 2.597.602 2.873 1.32.279.726.401 1.561.648 2.293.248.734.023 1.628.271 2.362.246.732-.292 1.735-.015 2.463.273.718 1.498 1.007 1.83 1.716.323.69-1.346 2.49-.938 3.166.413.684.875 1.497 1.346 2.127.475.637 2.967-.34 3.487.254.522.596.44 1.702.994 2.268.553.565.807 1.434 1.378 1.981.571.548 1.115 1.128 1.69 1.67.577.543 1.412.815 1.979 1.366.569.552 1.411.848 1.956 1.419.546.573 1.138 1.149 1.647 1.754.508.604 1.261 1.099 1.717 1.748.448.637.581 1.502 1.022 2.145.44.642-.345 2.119.092 2.765.437.645 2.046.496 2.482 1.142.436.646.71 1.4 1.148 2.045.438.644 1.168 1.083 1.613 1.723.444.641.676 1.424 1.129 2.058s.949 1.229 1.414 1.855c.465.625.883 1.276 1.363 1.891.479.613.011 2.003.508 2.604.496.599 1.116 1.133 1.633 1.718.516.582 2.329-.028 2.868.536.536.561.916 1.234 1.479 1.776.559.539 1.554.538 2.143 1.056.582.512.83 1.343 1.443 1.832.636.507.014 2.732.689 3.2.668.463 2.661-1.103 3.364-.677.695.421.787 1.854 1.514 2.238.719.381 1.53.582 2.275.928.738.343 1.232 1.283 1.994 1.593.754.306 2.155-1.124 2.929-.85.768.272 1.141 1.654 1.926 1.896.779.24 1.248 1.646 2.041 1.857.788.209 1.883-.732 2.683-.552.796.18 1.384 1.463 2.188 1.616.803.151 2.004-2.015 2.813-1.889.808.125 1.396 1.709 2.209 1.809s1.707-.607 2.521-.533c.816.074 1.592.522 2.406.572.819.049 1.604.991 2.419 1.017.821.024 1.663-1.81 2.478-1.809.823.001 1.607-.035 2.421-.059.824-.024 1.606-.087 2.417-.135.823-.049 1.685.791 2.491.718.824-.074 1.809 1.288 2.613 1.188.82-.101 1.592-.713 2.389-.839.819-.129 1.522-.922 2.312-1.076.785-.152 1.328-1.586 2.092-1.723.787-.142 1.645.124 2.412-.004.787-.132 1.612.005 2.381-.118.786-.127 1.5-.659 2.27-.781.784-.125 1.775 1.08 2.546.952.781-.13 1.607-.003 2.378-.142.777-.14 1.378-1.195 2.147-1.351.771-.155 1.771.717 2.537.539.764-.176 1.643-.025 2.405-.23.755-.202 1.524-.514 2.281-.748.743-.232.97-2.052 1.719-2.321.73-.264 2.123 1.129 2.861.824.715-.296.767-2.164 1.492-2.504.699-.328 1.114-1.174 1.825-1.548.75-.395 2.133.53 2.876.22.773-.323 1.552-.532 2.319-.801.783-.275 1.169-1.693 1.945-1.951.781-.261 2.289 1.541 3.063 1.257.766-.28 1.501-.88 2.26-1.223.734-.332.786-2.081 1.515-2.509.672-.395 1.462-.613 2.149-1.01.68-.392 1.384-.766 2.078-1.14.695-.376 2.111.729 2.819.39.716-.343.554-2.64 1.282-2.926.74-.291 2.061 1.207 2.812.995.764-.215 1.201-1.72 1.976-1.831.78-.113 1.614-.091 2.404-.077.778.014 1.681-.297 2.467-.14.751.15 1.866-.23 2.624.07.703.278.209 3.047.917 3.47.729.436 2.862-1.016 3.448-.435.594.588-.039 2.332.484 2.977.532.655 1.801.682 2.34 1.298.56.639.902 1.389 1.56 1.878.655.488 1.254 1.06 2.096 1.291.791.217 1.601.396 2.404.369.793-.025 1.359-1.147 2.154-1.354.766-.197 1.523-.154 2.281-.467.739-.305 1.036-1.408 1.76-1.774.725-.367 1.858.109 2.559-.271.726-.396 2.009.295 2.699-.063.752-.391.75-2.37 1.449-2.651.717-.289 1.947.681 2.677.391.721-.287 1.038-1.611 1.768-1.897.722-.283 1.582-.231 2.312-.513.725-.28 2.079 1.087 2.811.81.729-.275.774-2.37 1.508-2.642.731-.271 1.331-.925 2.066-1.189.733-.266 1.946.804 2.683.546.738-.26 1.55-.291 2.288-.543.741-.252 1.156-1.471 1.896-1.714.743-.244 1.969 1.033 2.711.801.748-.235 1.388-.769 2.132-.992.752-.225.896-2.532 1.642-2.744.755-.214 1.741.372 2.49.174.742-.197 1.66.506 2.417.428.758-.078 1.484-.598 2.246-.614.765-.017 1.533.208 2.292.195.77-.013 1.467-.811 2.219-.879.765-.069 1.583.533 2.319.345.831-.214 1.009-1.442 1.643-1.811.701-.407 1.117-.77 1.689-1.29.577-.525 1.893-.243 2.459-.804.543-.538 1.446-.621 2.087-1.117.651-.504.649-1.843 1.272-2.234.693-.438 1.391-.895 2.059-1.214.73-.348 1.748.06 2.463-.178.751-.249 1.332-1.102 2.083-1.262.758-.162 1.571-.151 2.346-.26.756-.104 1.539-.127 2.328-.213.751-.083 1.692 1.286 2.487 1.19.745-.089 1.484-.643 2.28-.767.739-.115 1.219-1.805 2.012-1.97.601-.125 1.985 1.836 2.894 1.545.678-.218 1.163-1.342 1.976-1.623.704-.243 1.512-.342 2.295-.615.721-.252.844-2.325 1.613-2.59.732-.252 1.578-.264 2.341-.516.744-.246 1.538-.422 2.299-.657.756-.235 1.392-.984 2.151-1.2.769-.217 1.783.376 2.543.188.784-.192 1.604-.273 2.364-.424.801-.158 1.803 1.169 2.561 1.071.823-.106 1.497-.723 2.249-.741.846-.021 1.783-1.456 2.512-1.344.849.13 2.086.189 2.73.536.716.384 1.153 1.808 1.555 2.507.354.616.295 1.439.355 2.339.727-.078 1.058-1.435 1.828-1.543.745-.104 1.804 2.323 2.561 2.257.766-.068 1.469-1.855 2.215-1.817.771.039 1.737.04 2.453.265.713.223 1.374 2.408 2 2.887.396-.704 1.836-1.592 2.317-2.274.468-.665.834-1.331 1.344-1.984.506-.646.335-1.821.845-2.466.516-.649-.171-2.201.312-2.855.496-.675.737-1.393 1.157-2.081.438-.718 2.273-.646 2.583-1.39.319-.769-1.022-1.922-.892-2.729.129-.795.873-1.374.769-2.218-.095-.77-.223-1.473-.551-2.291-.282-.706-1.487-.812-1.97-1.561-.413-.641 1.38-3.001.804-3.677-.502-.589-1.765-.822-2.478-1.374-.632-.488-2.281.379-3.012-.099-.686-.448-.151-2.849-.871-3.304-.708-.447-1.736-.354-2.428-.822-.707-.478-1.909-.22-2.548-.733-.676-.544-.756-1.619-1.295-2.222-.58-.648-2.892-.272-3.237-1.01-.354-.752 2.099-2.23 2.071-3.099-.025-.771-.326-1.253-.033-2.133.227-.683-1.185-2.38-.643-3.11.45-.607 2.499.009 3.092-.621.537-.57.609-1.622 1.209-2.204.579-.561 1.896-.37 2.487-.937.596-.57.323-2.039.886-2.607.596-.602 2.146-.353 2.649-.945.566-.666.586-1.844.963-2.489.388-.664 1.321-1.071 1.672-1.748.354-.682.298-1.593.632-2.279.336-.69.522-1.45.857-2.136.338-.689.564-1.417.921-2.092.357-.679.985-1.163 1.381-1.817.396-.653.376-1.536.828-2.156.446-.613.941-1.162 1.463-1.733.507-.556 1.433-.594 2.027-1.101.607-.518 1.08-1.044 1.765-1.48.671-.427 1.584-.19 2.316-.545.715-.347.854-1.902 1.616-2.185.747-.277 1.163-1.76 1.944-1.982.768-.217 1.947 1.044 2.738.875.784-.167 1.732.771 2.529.647.796-.124 1.369-1.748 2.167-1.833.805-.086 1.57-.869 2.368-.921.812-.053 1.687 1.085 2.481 1.062.818-.023 1.614.066 2.403.069.824.004 1.637-.294 2.416-.268.258-.264.005-.569-.342-.397.808.096 1.252 1.035 1.998 1.242.773.215 1.288.828 2.001 1.152.723.329 2.022-.453 2.688-.023.66.427.626 1.788 1.234 2.304.598.506 1.657.495 2.211 1.074.538.564 1.756.612 2.259 1.237.489.607.978 1.313 1.438 1.971.448.64 1.04 1.263 1.465 1.94.416.664-.433 2.115-.035 2.807.392.682.264 1.638.641 2.339.373.693 2.371.537 2.734 1.243.362.702-.678 2.123-.321 2.83.356.709 1.984.777 2.338 1.482.357.711.224 1.664.582 2.365.363.712 1.074 1.228 1.443 1.921.376.707-.174 1.912.213 2.594.396.698.769 1.419 1.179 2.081.426.685 1.598.863 2.044 1.499.464.661.303 1.778.795 2.375.515.624 1.275 1.038 1.826 1.58.575.565.526 1.714 1.05 2.225.581.567 2.766-.528 3.273-.011.572.584.257 1.981.724 2.529.533.625 1.675.845 2.051 1.458.419.686-1.196 2.169-1.001 2.892.194.719 1.812 1.191 1.756 2.002-.049.7.182 1.663-.072 2.47-.21.665-1.99.787-2.352 1.547-.305.64-.728 1.204-1.146 1.923-.443.763-1.327 1.219-1.732 1.915-.442.758-.628 1.646-1.021 2.353-.424.759.818 2.37.453 3.103-.381.763-.478 1.564-.792 2.338-.312.771-.362 1.526-.605 2.346-.23.78-3.01.979-3.174 1.838-.15.787 1.443 1.921 1.352 2.801-.083.793-.217 1.609-.25 2.498-.031.839-.613 1.679-.542 2.459.075.827.024 1.722.197 2.493.18.803.32 1.687.586 2.438.271.77 1.627 1.108 1.965 1.837.342.735 1.531.976 1.92 1.684.389.71-.031 1.846.382 2.541.414.695 1.689.872 2.104 1.566.416.693.636 1.543 1.03 2.248.396.705.571 1.594.923 2.322.351.726-.231 1.891.054 2.652.28.748-.482 1.753-.286 2.549.19.769.399 1.406.492 2.229.053.47 1.504 1.184 1.431 2.167-.051.678-.368 1.434-.47 2.237-.092.725-.668 1.41-.794 2.162-.127.756 1.4 1.86 1.243 2.572-.176.796-1.784 1.227-1.989 1.872-.295.931-.452 1.787-.789 2.156-.724.792-1.427 1.841-1.972 1.824-.58-.019-1.125-1.215-1.975-.769-.727.382-1.248 1.104-1.947 1.504-.71.405-1.858.059-2.549.48-.693.424-.84 1.715-1.522 2.154-.682.438-1.419.778-2.1 1.229-.671.444-.812 1.688-1.491 2.143-.668.447-1.793.228-2.477.683-.667.444-2.437-.773-3.128-.323-.703.459-1.25.771-1.905 1.106-.745.38-1.237.732-1.937.975-.778.27-1.298.613-2.039.744-.789.139-1.364 1.708-2.139 1.729-.778.021-1.509-1.298-2.301-1.353-.763-.053-1.547.247-2.348.162-.754-.081-1.553.021-2.361-.056-.75-.072-1.566.346-2.381.303-.751-.039-1.523-.269-2.343-.263-.871.006-1.757-.402-2.538-.3-.854.112-1.755.188-2.523.398-.817.225-1.259 1.492-2.007 1.807-.766.321-1.494.61-2.219 1.003-.721.391-1.288.998-1.998 1.437-.69.426-1.567.561-2.274 1.01-.684.433-1.803.184-2.527.619-.689.414-1.65.304-2.4.703-.673.358-1.525.404-2.367.787-.743.338-.85 2.225-1.674 2.524-.795.288-1.955-.731-2.781-.527-.84.207-1.502.516-2.331.586-.876.075-1.693 1.187-2.506 1.052-.855-.143-.845-1.923-1.57-2.365-.834-.509-2.643.335-3.098-.449-.455-.785.765-2.391.402-3.235-.37-.86-2.742-.503-3.317-1.2-.514-.623-1.065-.863-1.614-1.343-.596-.521-.032-2.481-.678-2.856-.663-.384-2.093 1.067-2.817.81-.703-.249-.975-1.772-1.745-1.929-.723-.146-1.458-.49-2.247-.574-.73-.078-1.493-.424-2.287-.465-.735-.038-1.547 1.214-2.342 1.193-.824-.021-1.744-1.901-2.471-1.803-.803.109-1.772.363-2.481.602-.747.252-.394 2.92-1.065 3.294-.672.373-1.76-.106-2.387.367-.604.457-1.014 1.109-1.604 1.64-.561.504-1.883.218-2.454.771-.541.524-1.688.454-2.259 1.007-.541.525-.595 1.556-1.181 2.095-.555.511-.781 1.397-1.391 1.91-.621.522-1.265 1.033-1.888 1.573-.614.532-1.314.981-1.928 1.53-.607.542-1.455.839-2.058 1.397-.598.554-1.565.751-2.156 1.32-.587.567-.4 1.941-.978 2.523-.576.58-.252 2.014-.814 2.609-.562.595-2.279.115-2.825.726-.545.611-.004 2.152-.53 2.778-.527.627-.865 1.362-1.37 2.005-.507.645-1.847.627-2.329 1.287-.482.663-.914 1.354-1.368 2.032-.457.682-1.949.724-2.374 1.421-.427.701.729 2.322.338 3.039-.393.721-2.385.628-2.738 1.364-.355.739-1.081 1.39-1.394 2.145-.312.757 1.337 2.284 1.07 3.058-.269.778-1.974 1.126-2.19 1.923-.217.793-.771 1.562-.948 2.37-.177.804.894 1.884.742 2.696-.149.81.934 1.826.798 2.642-.136.812-.409 1.602-.543 2.415-.135.814-.871 1.535-1.016 2.346-.145.813-1.167 1.457-1.334 2.263-.168.81.929 1.92.727 2.718-.203.801-.407 1.657-.657 2.441-.25.786-.588 1.614-.897 2.378-.309.762-2.62.586-3 1.321-.376.727.092 1.857-.364 2.555-.446.679-.328 1.799-.862 2.445-.512.619-2.003.36-2.568.953-.556.581.37 2.704-.231 3.259-.592.545-1.351 1.018-1.981 1.536-.623.512-1.86.306-2.517.79-.649.479-2.222-.394-2.899.059-.674.449-.942 1.46-1.638 1.882-.693.42-.58 2.255-1.291 2.646-.712.392-1.321 1.074-2.047 1.438-.728.364-2.615-1.705-3.352-1.37-.743.337-.823 2.146-1.569 2.453-.758.311-1.392.972-2.147 1.25-.77.282-1.385 1.097-2.146 1.345-.782.254-2.126-1.343-2.895-1.126-.757.213-.908 2.234-1.632 2.493-.737.265-2.273-1.525-2.981-1.221-.717.31-1.568.466-2.262.81-.697.346-.939 1.63-1.618 2.004-.681.375-1.975-.27-2.643.126-.668.396.186 3.301-.475 3.71-.659.408-2.018-.312-2.675.103-.655.413-1.065 1.223-1.725 1.635-.658.41-1.186 1.058-1.853 1.458-.664.399-1.661.262-2.34.645-.674.38-2.074-.628-2.768-.271-.688.354-.872 1.671-1.584 1.994-.702.318-.816 2.148-1.548 2.431-.741.286-1.896-.541-2.611-.258-.738.292-1.998-.693-2.705-.393-.73.311-1.376.891-2.069 1.224-.713.344-.299 2.766-.969 3.147-.685.39-2.243-.719-2.877-.272-.639.448-1.387.827-1.971 1.35-.574.514.08 2.179-.437 2.779-.497.577-2.889-.245-3.328.427-.413.631.55 2.858.191 3.585-.72-.324-1.395-2.394-2.113-2.703-.726-.312-1.505-.522-2.229-.82-.729-.301-1.489-.549-2.219-.837-.733-.289-2.018.854-2.75.577-.738-.278-.894-2.132-1.632-2.397-.741-.268-1.599-.228-2.341-.483-.744-.257-1.428-.718-2.173-.964-.747-.247-2.05 1.229-2.798.992-.75-.237-1.558-.245-2.309-.474-.753-.229-1.381-.834-2.135-1.054-.754-.221-1.072-1.965-1.828-2.178-.756-.212-1.807.636-2.565.43-.758-.205-1.578-.165-2.338-.365-.76-.199-1.716.39-2.479.195-.759-.193-1.231-1.509-1.993-1.698-.761-.188-1.226-1.594-1.989-1.778-.761-.185-1.712.401-2.478.22-.762-.181-1.729.501-2.495.322-.764-.179-1.408-.876-2.177-1.054-.764-.177-1.778.727-2.548.55-.763-.175-1.223-1.681-1.991-1.855-.765-.175-1.428-.813-2.198-.989-.765-.175-1.561-.227-2.331-.403-.766-.176-1.567-.248-2.369-.45-.765-.193-1.862.812-2.655.602-.767-.203-.965-2.577-1.754-2.791-.77-.208-2.289 2.327-3.076 2.115-.771-.208-1.358-1.119-2.144-1.326-.776-.204-1.609-.17-2.396-.368-.78-.196-1.094-2.323-1.881-2.509-.785-.185-1.494-.829-2.283-.998-.791-.17-2.106 2.255-2.898 2.106-.796-.149-1.418-1.175-2.212-1.298-.802-.125-1.503-1.012-2.3-1.104-.809-.094-1.76 1.572-2.559 1.516-.812-.057-1.546-.546-2.345-.558-.815-.012-1.56.255-2.357.296-.813.043-1.704-1.148-2.495-1.045-.808.106-1.692-.043-2.472.134-.794.181-1.044 1.885-1.769 2.188-.74.311-2.488-1.312-3.167-.896-.678.415-1.118 1.387-1.747 1.886-.619.492-.245 2.138-.829 2.69-.575.544-1.597.617-2.147 1.2-.546.577-.773 1.442-1.305 2.038s-1.479.822-2.008 1.417c-.533.6-.452 1.767-.993 2.345-.55.588-2.463-.194-3.032.352-.583.558-1.149.963-1.764 1.454-.703.562-.802 1.728-1.437 2.162-.753.516-1.213 1.332-1.886 1.679-.819.423-1.824-.07-2.551.123-.868.23-1.572 1.93-2.358 1.869-.821-.063-1.106-2.229-1.896-2.566-.716-.306-2.345 1.018-3.083.523-.646-.432-1.004-1.425-1.699-1.977-.612-.486-.973-1.356-1.645-1.92-.606-.508-2.086-.03-2.756-.589-.64-.533-1.121-1.287-1.795-1.843-.65-.535-.671-1.862-1.35-2.396-.668-.527-2.085-.047-2.778-.552s-.548-2.193-1.263-2.656c-.725-.469-1.796-.35-2.541-.754-.762-.414-1.167-1.582-1.946-1.906-.801-.334-1.479-1.431-2.294-1.645-.772-.202-1.925 1.085-2.721.965-.788-.119-1.496-1.219-2.299-1.283-.794-.063-1.703 1.625-2.506 1.59-.799-.034-1.613.373-2.415.343-.801-.03-1.549-1.4-2.347-1.45-.802-.051-1.635.217-2.426.122-.798-.095-1.842.863-2.623.697-.737-.156-1.225-1.486-1.969-1.632-.74-.146-1.591.301-2.334.161-.743-.139-1.497-.21-2.24-.348s-1.614.36-2.356.219c-.744-.143-1.223-1.669-1.963-1.819-.743-.151-1.797 1.09-2.532.925-.74-.166-1.034-2.25-1.764-2.435-.746-.189-1.43-.314-2.102-.57-.708-.27-1.928.582-2.576.247-.662-.342-1.392-.73-2.015-1.132a35.978 35.978 0 0 1-1.881-1.294c-.584-.434.108-2.542-.484-3.013-.565-.451-1.665-.253-2.256-.731-.621-.502-.819-1.534-1.437-2.022-.626-.494-1.67-.459-2.296-.938-.633-.484-.99-1.346-1.625-1.812-.642-.471-2.041.118-2.688-.332-.652-.454-.45-2.184-1.111-2.615-.665-.435-1.641-.418-2.317-.827-.678-.411-1.805-.05-2.498-.434-.691-.383-1.473-.553-2.182-.907-.706-.353-.802-2.021-1.528-2.343-.72-.319-1.766.073-2.508-.215-.732-.283-1.824.482-2.581.231-.745-.247-1.36-.81-2.132-1.023-.754-.21-1.567-.065-2.35-.241-.763-.172-1.154-2.224-1.944-2.368-.77-.141-1.843 1.48-2.635 1.364-.776-.113-1.567.05-2.361-.042-.781-.089-1.528-.312-2.323-.382-.785-.068-1.477-1.353-2.272-1.401-.788-.048-1.648 1.527-2.443 1.497-.791-.029-1.526-1.872-2.321-1.886-.792-.012-1.6-.93-2.393-.927-.794.003-1.563 2.268-2.355 2.286-.795.019-1.661-2.058-2.451-2.025-.796.033-1.598.312-2.386.357-.796.047-1.459 2.032-2.245 2.093-.798.061-1.594-.078-2.377-.005-.797.074-1.516.691-2.294.777-.798.088-1.667-.62-2.441-.521-.826.106-1.502.816-2.323.983-.815.166-1.831-.632-2.643-.424-.806.206-1.249 1.697-2.054 1.928-.801.229-1.68.173-2.482.407-.802.235-1.572.638-2.375.861-.807.225-1.681.336-2.491.531-.814.197-1.713.257-2.533.406-.823.15-1.69.595-2.521.679-.83.085-1.79-2.572-2.628-2.571-.845.001-1.694 1.847-2.413 1.729-.83-.137-1.333-1.215-2.015-1.494-.758-.31-2.342.685-2.945.223-.625-.479-.586-1.876-1.076-2.491-.478-.601-1.608-.913-1.99-1.616-.364-.671-.392-1.619-.696-2.36-.291-.709-.453-1.518-.712-2.271-.251-.729-1.261-1.236-1.504-1.989-.24-.74 1.949-2.293 1.696-3.039-.251-.741-2.354-.824-2.639-1.554-.285-.731.07-1.715-.269-2.419-.341-.708.418-2.111.003-2.773-.352-.562-2.709-.021-3.391-.825-.528-.622.491-2.761-.145-3.433-.601-.634-1.852-.718-2.48-1.323-.667-.644-1.975-.544-2.598-1.072-.803-.681-1.109-1.822-1.687-2.151-.673-.383-1.696 1.155-2.701 1.252-.973.093-2.4.09-3.133-.128-.757-.226-1.134-1.698-1.877-1.966-.742-.268-2.08.917-2.81.615-.729-.302-.606-2.604-1.326-2.93-.719-.326-1.909.361-2.621.02-.712-.343-.705-2.148-1.411-2.499-.709-.352-2.482 1.443-3.187 1.093-.717-.356-.55-2.504-1.268-2.854-.72-.352-1.364-.875-2.085-1.219-.723-.345-1.323-.973-2.047-1.309-.726-.338-2.031.574-2.758.245-.729-.331-1.26-1.105-1.991-1.427-.732-.323-1.711-.078-2.445-.393-.736-.314-1.311-1.01-2.048-1.314-.739-.306-2.093.923-2.834.627-.743-.296-1.252-1.147-1.998-1.434-.747-.287-1.223-1.272-1.972-1.548-.75-.276-1.651-.123-2.404-.388-.754-.266-1.426-.752-2.184-1.006-.757-.255-1.648-.073-2.41-.315-.761-.242-1.632-.084-2.397-.314-.765-.23-1.117-1.853-1.886-2.07-.768-.218-1.459-.753-2.232-.958-.771-.204-1.842.754-2.619.562-.775-.191-1.136-2.161-1.916-2.338-.778-.178-1.599-.27-2.382-.434-.781-.162-1.768.632-2.555.482-.783-.148-1.417-1.208-2.207-1.343-.786-.134-1.718.534-2.51.415-.788-.119-1.817 1.52-2.612 1.415-.794-.104-1.401-1.728-2.21-1.803-.8-.075-1.652.451-2.46.392-.805-.06-1.562-.789-2.368-.846-.808-.058-1.71 1.061-2.512.992-.81-.067-1.648-.111-2.445-.203-.809-.093-1.498-1.177-2.287-1.308-.805-.134-1.755.363-2.532.176-.793-.191-.936-2.431-1.691-2.693-.768-.268-1.952.718-2.672.361-.722-.357-1.511-.606-2.177-1.071-.653-.455-1.918-.326-2.508-.899-.563-.547-.935-1.467-1.434-2.135-.464-.623-.1-1.846-.503-2.585-.356-.654-.817-1.271-1.154-1.987-.321-.682-1.842-.874-2.144-1.596-.293-.704 1.552-2.264 1.28-2.99-.269-.721-2.076-.889-2.321-1.618-.247-.738 1.273-2.02 1.054-2.75-.225-.752-3.027-.765-3.22-1.493-.203-.768 2.377-2.192 2.215-2.916-.184-.817-1.129-1.324-1.187-2.079-.063-.829.046-1.505.119-2.267.078-.814.312-1.432.528-2.18.222-.771-.296-1.743.052-2.456.346-.711 1.218-1.078 1.668-1.743.44-.649.098-1.899.617-2.517.505-.599 2.001-.301 2.563-.879.547-.563 1.274-.902 1.859-1.455.572-.541.116-2.191.708-2.732.584-.532 1.589-.613 2.177-1.153.584-.536 1.663-.568 2.237-1.12.574-.551 1.372-.942 1.921-1.517.55-.576-.605-2.685-.093-3.293.513-.608 1.915-.478 2.374-1.127.458-.647-.228-1.954.163-2.65.411-.732 3.158-.26 3.507-1.001.357-.758-1.016-2.294-.709-3.057.311-.775 1.794-1.113 2.068-1.891.277-.785-.915-2.066-.662-2.851.256-.793.308-1.64.556-2.427.25-.793.371-1.637.628-2.421.26-.79 1.734-1.168 2.018-1.944.285-.778-.194-1.868.132-2.629.326-.76 1.984-.878 2.367-1.615.379-.729.857-1.309 1.309-2.013.44-.688.821-1.309 1.346-1.968.504-.634 1.229-.937 1.825-1.541.578-.587-.066-2.354.486-2.959.555-.607 1.891-.521 2.428-1.141.539-.621.757-1.523 1.284-2.149.53-.63 1.898-.558 2.423-1.186.528-.632.344-1.852.874-2.474.534-.627 1.52-.835 2.064-1.445.547-.615 1.123-1.149 1.688-1.741.568-.595.356-1.93.95-2.493.595-.565 1.454-.816 2.083-1.343.627-.526.339-2.278 1.008-2.759.616-.443 1.409-.611 2.042-1.129.595-.487 2.655.656 3.252.109.572-.523-.125-2.421.438-2.994.546-.557 1.491-.747 2.019-1.345.52-.588-.052-2.058.44-2.681.49-.618 2.079-.381 2.533-1.029.453-.648-.49-2.159-.081-2.832.412-.68 1.342-.973 1.698-1.672.362-.71 1.118-1.184 1.413-1.909.301-.739-.159-1.667.062-2.417.226-.767 1.526-1.221 1.657-1.992.134-.785.268-1.586.292-2.371.025-.791-.233-1.532-.331-2.316-.762-.174-1.525-.606-2.27-.499-.764.11-1.586.44-2.261.778-.702.351-1.576 1.773-2.1 2.292-.008-.807.502-2.301.578-3.107.076-.801-1.378-1.892-1.225-2.689.151-.788 2.903-.981 3.126-1.763.22-.771.409-1.467.694-2.229.281-.751.388-1.503.728-2.243a34.96 34.96 0 0 1 1.05-2.117c.382-.705.655-1.422 1.085-2.112.424-.682.281-1.718.748-2.383.462-.658 1.892-.56 2.392-1.199.496-.634 1.061-1.131 1.592-1.745.526-.609-.585-2.688-.027-3.275.555-.585 2.7.42 3.282-.143.581-.562-.303-2.685.302-3.221s1.928-.24 2.555-.75c.628-.512.422-2.114 1.068-2.598.65-.485 1.357-.962 2.022-1.416.67-.459 2.531.918 3.213.493.691-.43.128-2.977.828-3.37.71-.399 2.245.714 2.961.355.73-.367 1.274-1.092 2.006-1.415.748-.33 1.036-1.862 1.782-2.145.767-.29 1.871.262 2.63.025.784-.244 1.846.589 2.618.406.8-.19 1.493-.678 2.275-.801.832-.131 1.639.166 2.459.136.835-.031 1.589.212 2.414.261.831.049 1.845-1.805 2.666-1.7.825.105 1.729-.022 2.545.114.822.136 1.218 2.771 2.034 2.912.821.142 1.769-.4 2.585-.28.825.121 1.746-.572 2.567-.5.829.072 1.638 1.37 2.465 1.363.827-.007 1.713-.509 2.54-.623.863-.119 1.67-.66 2.42-.969.788-.326 1.62-.539 2.364-.878.774-.353 1.48-.427 2.296-.572.773-.137 1.612-1.219 2.503-.969.695.195 1.415 1.646 2.225 2.182.323-.731 1.746-1.394 2.113-2.058.377-.681.602-1.401.993-2.069.385-.657.043-1.365.411-2.065.88.057 1.595-.969 2.31-1.099-.497.574-.914 1.414-1.208 2.019.619-.386 1.343-.375 2.008-.672.182.738-.617 2.048-.217 2.905.433.898 1.768.785 1.972 1.429z"/>
    <path fill="none" stroke="#FFEBAA" stroke-width="3" d="M152.497 246.484c.049-.887 1-1.334 1.013-2.15.014-.883-1.406-1.712-1.43-2.534-.026-.875-.175-1.672-.239-2.502-.065-.857-.339-1.635-.438-2.474-.099-.837 1.013-1.819.887-2.669-.121-.821 1.135-1.883.995-2.743-.132-.811-1.938-1.371-2.083-2.239-.134-.806.876-1.828.735-2.702-.165-1.027-2.356-1.422-2.537-2.105-.297-1.12.241-1.922-.22-2.41-.552-.584-.877-1.82-1.902-2.068-.69-.167-1.662.276-2.664.025-.731-.183-1.971.861-2.905.546-.544-.184-.758-1.978-1.572-2.312-.675-.278-2.007.52-2.644.112-.666-.427-1.975-.844-2.373-1.439-.412-.616 1.324-1.989 1.45-2.814.094-.62-.468-1.467.057-2.22.513-.737 1.058-1.885 1.787-2.032.713-.143 1.742-.025 2.552.05.767.071 1.448.106 2.208.076.777-.031 1.483.525 2.156.081.554-.367 1.508-.614 1.95-1.363.353-.599-.593-1.845-.311-2.62.247-.68.634-1.274.828-2.046.181-.72.128-1.455.263-2.221.131-.746 1.694-1.282 1.783-2.041.089-.768-.712-1.616-.666-2.366.049-.789.387-1.537.389-2.27.002-.817.354-1.616.298-2.315-.07-.882.05-1.776-.109-2.379-.224-.845-1.416-.818-2.034-.876-.681-.064-.979-.16-1.196-.913-.215-.745.136-1.471.07-2.252-.065-.767.229-1.402.276-2.187.046-.771.367-1.393.49-2.166.123-.77-.747-1.675-.577-2.431.173-.769.297-1.531.489-2.27.201-.776 1.42-1.27 1.606-1.994.201-.781-2.362-2.202-2.197-2.976.168-.786.785-1.432.921-2.212.138-.79 1.451-1.379 1.559-2.166.109-.793-.474-1.663-.392-2.454.083-.794 1.308-1.489 1.368-2.283.06-.795-.011-1.613.029-2.41.041-.794-1.036-1.637-1.011-2.436.024-.794 1.044-1.567 1.057-2.367.013-.792.504-1.589.509-2.388.005-.794-2.225-1.599-2.224-2.401 0-.793 2.101-1.59 2.101-2.394 0-.761-1.225-1.539-1.237-2.333-.012-.772.541-1.573.497-2.355-.044-.781-1.017-1.462-1.113-2.231-.098-.784 1.172-1.805.999-2.555-.179-.773-.416-1.632-.699-2.345-.292-.734-1.062-1.334-1.488-1.979-.429-.646-2.032-.13-2.623-.66-.559-.501.154-2.877-.573-3.25-.653-.335-3.021 1.302-3.826 1.086-.034-.817.368-2.68.504-3.483.135-.792.843-1.547 1.119-2.327.266-.752 1.694-.984 2.069-1.724.361-.712.36-1.575.801-2.275.428-.678.695-1.452 1.18-2.119.474-.652 1.7-.701 2.211-1.342.506-.634-.512-2.516.014-3.139.527-.624 2.552.037 3.083-.576.538-.621.341-1.872.866-2.481.541-.627 1.197-1.149 1.705-1.763.533-.644 1.71-.795 2.186-1.424.509-.673-.8-2.589-.381-3.245.415-.648 2.635-.192 3.027-.857.39-.662.052-1.763.429-2.436.375-.67-.255-1.896.115-2.572.37-.673 2.469-.393 2.844-1.067.373-.671.943-1.206 1.33-1.873.385-.665.009-1.753.416-2.408.405-.652.415-1.551.85-2.188.443-.649 1.986-.481 2.451-1.111.466-.631-.906-2.655-.421-3.271.485-.616 2.422-.061 2.921-.665.499-.604.388-1.71.896-2.307s1.26-.981 1.773-1.574.077-2.005.589-2.598.752-1.411 1.26-2.008 1.516-.757 2.015-1.361c.499-.604.434-1.638.919-2.253.484-.615 2.693.09 3.159-.541.465-.629.746-1.431 1.189-2.079.44-.646-.864-2.414-.451-3.082.448-.723.907-1.332 1.269-1.892.447-.69 2.839.107 3.266-.456.439-.578.875-.98 1.425-1.566.457-.487.629-1.26 1.247-1.844.611-.578.581-1.824 1.216-2.312.665-.51 1.024-1.525 1.712-1.943.711-.432 1.567-.738 2.303-1.08.75-.349 2.266 1.345 3.038 1.081.778-.266 1.182-1.487 1.98-1.675.796-.187 1.643.199 2.458.082.808-.117 1.558-.113 2.38-.17.813-.056 1.567-.234 2.393-.24.814-.006 1.576.337 2.4.373.814.036 1.616-.276 2.438-.208.813.068 1.629-.075 2.448.018.812.092 1.725-.635 2.54-.525.812.11 1.599.409 2.412.529.812.12 1.745-.548 2.555-.424.812.124 1.399 1.727 2.208 1.847.814.122 1.869-1.474 2.678-1.362.796.109 1.425 1.247 2.174 1.338.8.097 1.447 1.513 2.198 1.584.804.077 1.709-1.248 2.46-1.207.807.044 1.575-.644 2.326-.649.806-.006 1.615 1.019 2.366.947.797-.076 1.258-1.762 2.001-1.923.771-.167 1.891 1.155 2.613.882.724-.273 2.026.365 2.711-.026.658-.375.422-2.26 1.054-2.757.588-.462 2.175.072 2.747-.504.523-.528.888-1.375 1.404-2.006.471-.576.001-1.932.47-2.6.429-.61 1.452-.868 1.882-1.559.414-.665 1.208-1.131 1.586-1.805.383-.682.636-1.43 1.014-2.104.383-.681.856-1.26 1.268-1.916.413-.66.899-1.162 1.374-1.778.47-.609.12-1.883.684-2.434.583-.57.447-2.009 1.041-2.493.63-.514 2.268.297 2.91-.126.675-.445 1.603-.292 2.29-.646.714-.368.99-1.571 1.716-1.849.745-.285 1.6-.168 2.356-.368.767-.203 1.615.287 2.393.162.779-.126 1.456-.566 2.245-.625.784-.059 1.529-.915 2.322-.917.785-.002 1.614-.461 2.406-.418.784.042 1.564.494 2.354.571.781.076 1.521.602 2.307.702.78.1 1.629-.266 2.413-.151.778.114 1.486.72 2.268.841.779.12 1.447.988 2.229 1.105.781.117 1.742-1.009 2.524-.903.783.106 1.595-.139 2.378-.053.786.086 1.578-.276 2.363-.218.789.058 1.494 1.186 2.282 1.206.79.02 1.527-1.384 2.315-1.411.789-.027 1.705 2.142 2.49 2.059.783-.083 1.481-.957 2.26-1.103.771-.145 1.92 1.033 2.686.816.751-.212.642-3.035 1.388-3.324.734-.285 1.515-.255 2.221-.583.712-.33 1.443-.541 2.139-.893.699-.353 1.923.333 2.619-.022.696-.355 1.404-.665 2.111-1 .704-.334.892-1.895 1.619-2.189.719-.291 1.837.402 2.592.17.736-.226 1.566-.007 2.349-.157.781-.15 1.507-1.513 2.372-1.538.813-.023 1.675 1.014 2.519 1.029.835.015 1.706 1.301 2.531 1.285.853-.017 1.751-.939 2.549-1.063.85-.132 1.279-1.534 2.014-1.877.729-.34 1.061-1.011 1.635-1.375.658-.416 1.218-.759 1.792-1.173.594-.428 1.122-1.094 1.765-1.484.587-.357 2.232 1.261 2.973.964.73-.292 1.47-.474 2.22-.742.741-.265 1.14-1.509 1.897-1.751.751-.24 1.418-.795 2.183-1.014.759-.217 1.684.161 2.454-.036.766-.195 1.207-1.805 1.981-1.98.771-.175 1.966 1.586 2.743 1.43.776-.157 1.446-.824 2.227-.963.781-.139 1.481-.763 2.264-.885.784-.123 1.672.473 2.455.366.788-.107 1.407-1.566 2.191-1.658.791-.092 1.813 2.012 2.599 1.935.793-.078 1.551-.263 2.335-.326.796-.065 1.554-.334 2.338-.385.792-.051 1.532-.802 2.317-.846.792-.044 1.53-1.13 2.316-1.166.791-.036 1.586-.179 2.371-.206.792-.026 1.604.564 2.391.549.792-.016 1.587.278 2.373.273.791-.005 1.579.101 2.365.109.791.008 1.604-.867 2.391-.845.79.022 1.604-.151 2.39-.114.789.037 1.453 2.212 2.238 2.265.788.053 1.561.002 2.346.072.785.07 1.549.125 2.333.213.783.088 1.779-1.544 2.561-1.438.78.107 1.573.262 2.353.389.777.126 1.718-.506 2.494-.359.772.146 1.476.811 2.248.978.769.167 1.505.585 2.273.774.763.188 1.144 1.853 1.907 2.063.756.208 1.909-.939 2.667-.708.75.23 1.567.333 2.319.587.743.25 1.288 1.117 2.033 1.392.754.278 1.854-.361 2.592-.078.748.288.771 2.431 1.509 2.719.747.292 1.877-.412 2.618-.125.744.288.97 1.952 1.714 2.229.746.278 1.461.724 2.213.985.749.261 2.209-1.595 2.971-1.356.755.237 1.562.182 2.335.393.761.208.94 2.8 1.724 2.977.779.176 1.739-.533 2.494-.346.775.191 1.764-.484 2.514-.28.771.209 1.462.681 2.207.904.763.229 1.355.958 2.095 1.203.755.251 1.539.369 2.271.639.746.275 1.815-.274 2.538.023.733.302 1.013 1.646 1.725 1.972.719.33 1.433.625 2.131.981.703.358 1.459.586 2.143.974.685.388 2.124-.443 2.792-.023.663.417.024 2.814.674 3.265.643.446 1.514.518 2.145.998.619.473 1.794.245 2.403.753.598.498 1.305.904 1.895 1.438.577.522.757 1.486 1.327 2.043.555.542 1.11 1.089 1.661 1.666.535.562.988 1.207 1.521 1.804.518.579 1.586.699 2.102 1.312.576.686.056 2.301.628 2.958.589.677 2.72-.151 3.351.449.646.614.322 2.325 1.06 2.807.634.414 1.809.953 2.894 1.078 1.012.117 1.917-.042 2.663.317.709.342.883 1.479 1.566 1.899.67.411 2.4-.802 3.048-.327.635.464 1.767.407 2.381.921.604.506 1.221 1.107 1.809 1.65.58.537.891 1.419 1.456 1.982.562.561-.106 2.326.442 2.902.549.577 2.611-.26 3.148.323.541.588-.544 2.658-.014 3.242.54.595 2.004.341 2.534.92.544.594-.085 2.275.45 2.842.557.589 1.748.576 2.298 1.123.587.584 2.252.042 2.841.605.599.571.689 1.658 1.287 2.213.605.562 1.64.645 2.241 1.197.609.559 1.176 1.158 1.777 1.711.607.559-.406 2.851.189 3.41.601.563 2.633-.387 3.219.184.59.574-.071 2.385.5 2.972.572.589 2.352.031 2.901.64.549.608 1.431.978 1.953 1.611.52.631-.09 2.167.4 2.829.484.655.771 1.417 1.222 2.109.443.68.453 1.571.861 2.292.398.705 3.021.273 3.383 1.023.352.73-1.52 2.53-1.174 3.187.376.715 2.651.325 3.032.967.407.689-.536 2.175-.111 2.799.443.651.601 1.551 1.078 2.151.48.604.866 1.38 1.396 1.954.515.557.938 1.326 1.515 1.875.542.516 2.293-.237 2.901.288.563.486.81 1.388 1.44 1.896.711.572 1.437 1.03 2.057 1.55.691.58.848 1.616 1.427 2.201.612.617.913 1.287 1.403 1.995.469.675.864 1.227 1.226 2.062.314.729 2.154.997 2.389 1.901.199.77-1.166 1.877-1.036 2.661.131.783 2.201 1.343 2.27 2.136.068.789-.985 1.689-.97 2.485.016.792-.233 1.586-.264 2.383-.029.792-1.28 1.479-1.348 2.272-.067.791.316 1.59.219 2.38-.098.789.256 1.623.135 2.408-.121.787 1.117 1.806.979 2.586-.139.785.056 1.648-.094 2.425-.151.786-2.189 1.201-2.344 1.975-.156.786.28 1.683.129 2.454-.155.789.774 1.767.633 2.537-.153.829-.744 1.583-.941 2.279-.229.812-.635 1.59-.924 2.255-.332.764-2.392.455-2.801 1.072-.442.668.048 1.877-.482 2.437-.527.557-.533 1.72-1.146 2.235-.573.481-1.681.358-2.327.857-.586.452-1.216.905-1.861 1.413-.581.458-1.754.281-2.383.814-.626.531-.502 1.906-1.058 2.471-.573.583-2.144.322-2.648.937-.516.628-.825 1.521-1.277 2.18-.459.667.028 1.964-.373 2.658-.404.699-1.821.888-2.176 1.609-.355.723-.084 1.774-.397 2.517-.313.74-1.647 1.121-1.928 1.878-.278.753.896 2.042.642 2.809-.254.763-.52 1.521-.756 2.293-.236.769-.94 1.401-1.167 2.174-.228.772-1.369 1.279-1.595 2.052-.227.773-.528 1.51-.762 2.28-.233.772 1.339 2.099 1.091 2.863-.249.767-1.501 1.188-1.773 1.944-.272.759-.524 1.497-.828 2.241-.305.746.708 2.081.364 2.808-.345.728-2.749.376-3.141 1.081-.295.53-.166 1.428-.733 2.213-.425.588-.87 1.216-1.41 1.891-.477.596-1.14 1.048-1.683 1.675-.513.593-.974 1.212-1.526 1.805-.547.586.578 2.819.012 3.377-.582.573-1.451.927-2.035 1.441-.631.554-1.459.943-2.067 1.392-.706.521-1.313 1.422-1.953 1.747-.852.432-2.255.287-2.909.252-.764-.041-1.889-.707-2.508-1.313-.512-.501.669-2.404.209-3.114-.414-.64-1.679-.756-2.084-1.442-.409-.693-1.865-.684-2.297-1.302-.487-.7-.848-1.078-1.408-1.518-.643-.504-.595-1.912-1.277-2.335-.689-.428-1.214-1.244-1.938-1.6-.727-.356-2.042.637-2.798.344-.75-.292-.873-2.447-1.647-2.688-.77-.239-1.759.092-2.544-.105-.783-.196-1.764.41-2.557.246-.791-.164-1.51-.719-2.307-.86-.797-.143-1.473-1.057-2.271-1.187-.802-.13-1.71.397-2.506.269-.803-.128-1.847 1.2-2.638 1.065-.804-.138-1.509-.886-2.295-1.042-.801-.158-1.64-.21-2.416-.397-.795-.191-1.504-.756-2.266-.989-.584-.179-1.231.762-2.001.793-.755.03-2.623-.374-3.235-.412.023-.857 2.407-2.708 2.219-3.417-.211-.799-1.518-1.449-1.964-2.076-.452-.635-.743-1.863-1.399-2.337-.614-.443-1.67-.68-2.432-.996-.697-.291-1.68-.198-2.478-.392-.741-.18-1.772 1.158-2.579 1.052-.764-.1-1.486.061-2.292.021-.774-.039-1.492-.097-2.291-.086-.783.01-1.625-1.652-2.417-1.601-.787.051-1.388 2.068-2.171 2.154-.791.086-1.574-.166-2.347-.05-.795.119-1.713-.687-2.474-.543-.799.151-1.534.476-2.278.647-.807.185-1.381 1.045-2.103 1.244-.823.227-1.56.359-2.242.591-.871.296-1.586.412-2.166.689-.743.356-2.094-.4-2.687.041-.646.48-.793 1.559-1.318 2.102-.551.569-1.014 1.186-1.5 1.779-.496.607-1.859.458-2.361 1.043-.506.589.2 2.329-.386 2.846-.565.5-1.377.902-2.087 1.288-.639.348-1.878-.86-2.686-.638-.785.215-1.412.003-2.193.079-.798.077-1.422.786-2.217.749-.794-.038-1.793 1.74-2.584 1.62-.784-.119-1.22-2.215-2.002-2.384-.777-.168-1.549-.292-2.324-.48-.776-.188-1.604-.191-2.379-.368-.781-.178-1.801.863-2.582.728-.79-.137-1.475-.792-2.266-.853-.795-.062-1.655-1.366-2.452-1.318-.786.047-1.469 1.487-2.257 1.673-.78.185-1.669.197-2.537.437-.805.222-1.187 1.896-2.018 2.158-.818.257-1.683.236-2.482.523-.829.298-2.225-.944-2.984-.622-.842.357-1.791.527-2.484.903-.803.438-.99 1.6-1.502 1.999-.672.523-1.123 1.12-1.746 1.515-.559.354-1.348.313-2.259.511-.615.134-1.3.81-2.218.854-.807.038-1.605-1.225-2.386-1.238-.804-.013-1.632 1.212-2.416 1.168-.798-.044-1.487-1.652-2.274-1.706-.792-.054-1.676 1.363-2.467 1.324-.789-.039-1.563-.384-2.36-.384-.784 0-1.625-.665-2.426-.604-.775.059-1.579.422-2.378.559-.76.131-1.3 1.289-2.087 1.509-.747.209-1.851-.747-2.595-.506-.736.239-.785 2.446-1.52 2.714-.729.267-1.783-.395-2.509-.102-.719.291-1.968-.646-2.684-.331-.71.313-.597 2.433-1.303 2.767-.702.332-1.237.944-1.935 1.295-.694.35-2.625-1.684-3.314-1.317-.687.366-.567 2.231-1.248 2.612-.68.38-2.146-.603-2.82-.21-.674.393-1.227 1.021-1.894 1.423-.669.404-.416 2.31-1.076 2.722-.663.414-1.195 1.011-1.851 1.431-.658.421-2.437-.892-3.086-.467-.654.429-.677 1.816-1.322 2.247-.651.435-2.104-.325-2.745.108-.649.439-.8 1.613-1.438 2.049-.637.435-.412 2.324-1.173 2.83-.686.456-1.294.987-1.996 1.5-.689.503-1.742.418-2.373.976-.657.582-.538 1.627-1.049 2.268-.556.697-2.068.54-2.346 1.306-.271.748.912 1.627.843 2.447-.066.781-2.654 1.547-2.599 2.372.052.788 1.89 1.437 2 2.246.107.795-.962 1.76-.851 2.557.113.808 1.124 1.5 1.189 2.292.068.822.174 1.673.134 2.457-.042.824-.806 1.517-1.033 2.275-.266.887-1.283 1.164-1.667 1.822-.45.771.652 2.688.061 3.229-.615.562-1.453 1.22-2.198 1.63-.705.389-1.513.889-2.315 1.229-.736.312-2.491-1.7-3.292-1.36-.737.312-.473 2.896-1.253 3.284-.734.365-2.255-1.024-3.005-.73-.76.297-1.219 1.37-1.994 1.603-.779.233-1.459.938-2.251 1.116-.792.177-1.791-.689-2.593-.56-.799.13-1.52.797-2.329.89-.804.092-1.558.921-2.369.985-.807.063-1.688-.782-2.501-.737-.81.044-1.627-.064-2.44-.03-.81.035-1.581 1.01-2.393 1.044-.811.033-1.652-.659-2.463-.618-.812.041-1.653-.374-2.463-.317-.811.058-1.64.052-2.447.134-.809.082-1.365 2.057-2.168 2.172-.804.116-1.701-.622-2.498-.464-.795.158-1.546.359-2.333.568-1.061.281-1.407 1.295-2.012 1.561-.929.408-1.439-.052-1.938.688-.375.557-.542 1.296-1.061 2.263-.338.63-1.775.799-2.291 1.67a14.998 14.998 0 0 1-1.483 2.116c-.548.644-1.185 1.275-1.77 1.946-.596.682-.666 1.77-1.158 2.438-.588.799-.412 1.625-.626 2.339-.209.698-.354 1.258-.422 2.081-.062.738-2.061 1.48-2.029 2.29.03.753.62 1.553.716 2.344.092.759.05 1.59.19 2.365.138.762.085 1.605.257 2.365.173.766 2.139 1.091 2.333 1.834.202.771-.075 1.64.137 2.365.228.78 1.016 1.342 1.238 2.044.254.805-.928 2.008-.706 2.673.29.867 1.44 1.341 1.803 2.096.385.804.362 1.782.811 2.515.452.738 1.444 1.109 1.941 1.835.48.701 1.168 1.282 1.674 2.026.472.692 1.532 1.095 2.011 1.87.416.672-1.107 2.426-.778 3.114.337.706 2.597.602 2.873 1.32.279.726.401 1.561.648 2.293.248.734.023 1.628.271 2.362.246.732-.292 1.735-.015 2.463.273.718 1.498 1.007 1.83 1.716.323.69-1.346 2.49-.938 3.166.413.684.875 1.497 1.346 2.127.475.637 2.967-.34 3.487.254.522.596.44 1.702.994 2.268.553.565.807 1.434 1.378 1.981.571.548 1.115 1.128 1.69 1.67.577.543 1.412.815 1.979 1.366.569.552 1.411.848 1.956 1.419.546.573 1.138 1.149 1.647 1.754.508.604 1.261 1.099 1.717 1.748.448.637.581 1.502 1.022 2.145.44.642-.345 2.119.092 2.765.437.645 2.046.496 2.482 1.142.436.646.71 1.4 1.148 2.045.438.644 1.168 1.083 1.613 1.723.444.641.676 1.424 1.129 2.058s.949 1.229 1.414 1.855c.465.625.883 1.276 1.363 1.891.479.613.011 2.003.508 2.604.496.599 1.116 1.133 1.633 1.718.516.582 2.329-.028 2.868.536.536.561.916 1.234 1.479 1.776.559.539 1.554.538 2.143 1.056.582.512.83 1.343 1.443 1.832.636.507.014 2.732.689 3.2.668.463 2.661-1.103 3.364-.677.695.421.787 1.854 1.514 2.238.719.381 1.53.582 2.275.928.738.343 1.232 1.283 1.994 1.593.754.306 2.155-1.124 2.929-.85.768.272 1.141 1.654 1.926 1.896.779.24 1.248 1.646 2.041 1.857.788.209 1.883-.732 2.683-.552.796.18 1.384 1.463 2.188 1.616.803.151 2.004-2.015 2.813-1.889.808.125 1.396 1.709 2.209 1.809s1.707-.607 2.521-.533c.816.074 1.592.522 2.406.572.819.049 1.604.991 2.419 1.017.821.024 1.663-1.81 2.478-1.809.823.001 1.607-.035 2.421-.059.824-.024 1.606-.087 2.417-.135.823-.049 1.685.791 2.491.718.824-.074 1.809 1.288 2.613 1.188.82-.101 1.592-.713 2.389-.839.819-.129 1.522-.922 2.312-1.076.785-.152 1.328-1.586 2.092-1.723.787-.142 1.645.124 2.412-.004.787-.132 1.612.005 2.381-.118.786-.127 1.5-.659 2.27-.781.784-.125 1.775 1.08 2.546.952.781-.13 1.607-.003 2.378-.142.777-.14 1.378-1.195 2.147-1.351.771-.155 1.771.717 2.537.539.764-.176 1.643-.025 2.405-.23.755-.202 1.524-.514 2.281-.748.743-.232.97-2.052 1.719-2.321.73-.264 2.123 1.129 2.861.824.715-.296.767-2.164 1.492-2.504.699-.328 1.114-1.174 1.825-1.548.75-.395 2.133.53 2.876.22.773-.323 1.552-.532 2.319-.801.783-.275 1.169-1.693 1.945-1.951.781-.261 2.289 1.541 3.063 1.257.766-.28 1.501-.88 2.26-1.223.734-.332.786-2.081 1.515-2.509.672-.395 1.462-.613 2.149-1.01.68-.392 1.384-.766 2.078-1.14.695-.376 2.111.729 2.819.39.716-.343.554-2.64 1.282-2.926.74-.291 2.061 1.207 2.812.995.764-.215 1.201-1.72 1.976-1.831.78-.113 1.614-.091 2.404-.077.778.014 1.681-.297 2.467-.14.751.15 1.866-.23 2.624.07.703.278.209 3.047.917 3.47.729.436 2.862-1.016 3.448-.435.594.588-.039 2.332.484 2.977.532.655 1.801.682 2.34 1.298.56.639.902 1.389 1.56 1.878.655.488 1.254 1.06 2.096 1.291.791.217 1.601.396 2.404.369.793-.025 1.359-1.147 2.154-1.354.766-.197 1.523-.154 2.281-.467.739-.305 1.036-1.408 1.76-1.774.725-.367 1.858.109 2.559-.271.726-.396 2.009.295 2.699-.063.752-.391.75-2.37 1.449-2.651.717-.289 1.947.681 2.677.391.721-.287 1.038-1.611 1.768-1.897.722-.283 1.582-.231 2.312-.513.725-.28 2.079 1.087 2.811.81.729-.275.774-2.37 1.508-2.642.731-.271 1.331-.925 2.066-1.189.733-.266 1.946.804 2.683.546.738-.26 1.55-.291 2.288-.543.741-.252 1.156-1.471 1.896-1.714.743-.244 1.969 1.033 2.711.801.748-.235 1.388-.769 2.132-.992.752-.225.896-2.532 1.642-2.744.755-.214 1.741.372 2.49.174.742-.197 1.66.506 2.417.428.758-.078 1.484-.598 2.246-.614.765-.017 1.533.208 2.292.195.77-.013 1.467-.811 2.219-.879.765-.069 1.583.533 2.319.345.831-.214 1.009-1.442 1.643-1.811.701-.407 1.117-.77 1.689-1.29.577-.525 1.893-.243 2.459-.804.543-.538 1.446-.621 2.087-1.117.651-.504.649-1.843 1.272-2.234.693-.438 1.391-.895 2.059-1.214.73-.348 1.748.06 2.463-.178.751-.249 1.332-1.102 2.083-1.262.758-.162 1.571-.151 2.346-.26.756-.104 1.539-.127 2.328-.213.751-.083 1.692 1.286 2.487 1.19.745-.089 1.484-.643 2.28-.767.739-.115 1.219-1.805 2.012-1.97.601-.125 1.985 1.836 2.894 1.545.678-.218 1.163-1.342 1.976-1.623.704-.243 1.512-.342 2.295-.615.721-.252.844-2.325 1.613-2.59.732-.252 1.578-.264 2.341-.516.744-.246 1.538-.422 2.299-.657.756-.235 1.392-.984 2.151-1.2.769-.217 1.783.376 2.543.188.784-.192 1.604-.273 2.364-.424.801-.158 1.803 1.169 2.561 1.071.823-.106 1.497-.723 2.249-.741.846-.021 1.783-1.456 2.512-1.344.849.13 2.086.189 2.73.536.716.384 1.153 1.808 1.555 2.507.354.616.295 1.439.355 2.339.727-.078 1.058-1.435 1.828-1.543.745-.104 1.804 2.323 2.561 2.257.766-.068 1.469-1.855 2.215-1.817.771.039 1.737.04 2.453.265.713.223 1.374 2.408 2 2.887.396-.704 1.836-1.592 2.317-2.274.468-.665.834-1.331 1.344-1.984.506-.646.335-1.821.845-2.466.516-.649-.171-2.201.312-2.855.496-.675.737-1.393 1.157-2.081.438-.718 2.273-.646 2.583-1.39.319-.769-1.022-1.922-.892-2.729.129-.795.873-1.374.769-2.218-.095-.77-.223-1.473-.551-2.291-.282-.706-1.487-.812-1.97-1.561-.413-.641 1.38-3.001.804-3.677-.502-.589-1.765-.822-2.478-1.374-.632-.488-2.281.379-3.012-.099-.686-.448-.151-2.849-.871-3.304-.708-.447-1.736-.354-2.428-.822-.707-.478-1.909-.22-2.548-.733-.676-.544-.756-1.619-1.295-2.222-.58-.648-2.892-.272-3.237-1.01-.354-.752 2.099-2.23 2.071-3.099-.025-.771-.326-1.253-.033-2.133.227-.683-1.185-2.38-.643-3.11.45-.607 2.499.009 3.092-.621.537-.57.609-1.622 1.209-2.204.579-.561 1.896-.37 2.487-.937.596-.57.323-2.039.886-2.607.596-.602 2.146-.353 2.649-.945.566-.666.586-1.844.963-2.489.388-.664 1.321-1.071 1.672-1.748.354-.682.298-1.593.632-2.279.336-.69.522-1.45.857-2.136.338-.689.564-1.417.921-2.092.357-.679.985-1.163 1.381-1.817.396-.653.376-1.536.828-2.156.446-.613.941-1.162 1.463-1.733.507-.556 1.433-.594 2.027-1.101.607-.518 1.08-1.044 1.765-1.48.671-.427 1.584-.19 2.316-.545.715-.347.854-1.902 1.616-2.185.747-.277 1.163-1.76 1.944-1.982.768-.217 1.947 1.044 2.738.875.784-.167 1.732.771 2.529.647.796-.124 1.369-1.748 2.167-1.833.805-.086 1.57-.869 2.368-.921.812-.053 1.687 1.085 2.481 1.062.818-.023 1.614.066 2.403.069.824.004 1.637-.294 2.416-.268.258-.264.005-.569-.342-.397.808.096 1.252 1.035 1.998 1.242.773.215 1.288.828 2.001 1.152.723.329 2.022-.453 2.688-.023.66.427.626 1.788 1.234 2.304.598.506 1.657.495 2.211 1.074.538.564 1.756.612 2.259 1.237.489.607.978 1.313 1.438 1.971.448.64 1.04 1.263 1.465 1.94.416.664-.433 2.115-.035 2.807.392.682.264 1.638.641 2.339.373.693 2.371.537 2.734 1.243.362.702-.678 2.123-.321 2.83.356.709 1.984.777 2.338 1.482.357.711.224 1.664.582 2.365.363.712 1.074 1.228 1.443 1.921.376.707-.174 1.912.213 2.594.396.698.769 1.419 1.179 2.081.426.685 1.598.863 2.044 1.499.464.661.303 1.778.795 2.375.515.624 1.275 1.038 1.826 1.58.575.565.526 1.714 1.05 2.225.581.567 2.766-.528 3.273-.011.572.584.257 1.981.724 2.529.533.625 1.675.845 2.051 1.458.419.686-1.196 2.169-1.001 2.892.194.719 1.812 1.191 1.756 2.002-.049.7.182 1.663-.072 2.47-.21.665-1.99.787-2.352 1.547-.305.64-.728 1.204-1.146 1.923-.443.763-1.327 1.219-1.732 1.915-.442.758-.628 1.646-1.021 2.353-.424.759.818 2.37.453 3.103-.381.763-.478 1.564-.792 2.338-.312.771-.362 1.526-.605 2.346-.23.78-3.01.979-3.174 1.838-.15.787 1.443 1.921 1.352 2.801-.083.793-.217 1.609-.25 2.498-.031.839-.613 1.679-.542 2.459.075.827.024 1.722.197 2.493.18.803.32 1.687.586 2.438.271.77 1.627 1.108 1.965 1.837.342.735 1.531.976 1.92 1.684.389.71-.031 1.846.382 2.541.414.695 1.689.872 2.104 1.566.416.693.636 1.543 1.03 2.248.396.705.571 1.594.923 2.322.351.726-.231 1.891.054 2.652.28.748-.482 1.753-.286 2.549.19.769.399 1.406.492 2.229.053.47 1.504 1.184 1.431 2.167-.051.678-.368 1.434-.47 2.237-.092.725-.668 1.41-.794 2.162-.127.756 1.4 1.86 1.243 2.572-.176.796-1.784 1.227-1.989 1.872-.295.931-.452 1.787-.789 2.156-.724.792-1.427 1.841-1.972 1.824-.58-.019-1.125-1.215-1.975-.769-.727.382-1.248 1.104-1.947 1.504-.71.405-1.858.059-2.549.48-.693.424-.84 1.715-1.522 2.154-.682.438-1.419.778-2.1 1.229-.671.444-.812 1.688-1.491 2.143-.668.447-1.793.228-2.477.683-.667.444-2.437-.773-3.128-.323-.703.459-1.25.771-1.905 1.106-.745.38-1.237.732-1.937.975-.778.27-1.298.613-2.039.744-.789.139-1.364 1.708-2.139 1.729-.778.021-1.509-1.298-2.301-1.353-.763-.053-1.547.247-2.348.162-.754-.081-1.553.021-2.361-.056-.75-.072-1.566.346-2.381.303-.751-.039-1.523-.269-2.343-.263-.871.006-1.757-.402-2.538-.3-.854.112-1.755.188-2.523.398-.817.225-1.259 1.492-2.007 1.807-.766.321-1.494.61-2.219 1.003-.721.391-1.288.998-1.998 1.437-.69.426-1.567.561-2.274 1.01-.684.433-1.803.184-2.527.619-.689.414-1.65.304-2.4.703-.673.358-1.525.404-2.367.787-.743.338-.85 2.225-1.674 2.524-.795.288-1.955-.731-2.781-.527-.84.207-1.502.516-2.331.586-.876.075-1.693 1.187-2.506 1.052-.855-.143-.845-1.923-1.57-2.365-.834-.509-2.643.335-3.098-.449-.455-.785.765-2.391.402-3.235-.37-.86-2.742-.503-3.317-1.2-.514-.623-1.065-.863-1.614-1.343-.596-.521-.032-2.481-.678-2.856-.663-.384-2.093 1.067-2.817.81-.703-.249-.975-1.772-1.745-1.929-.723-.146-1.458-.49-2.247-.574-.73-.078-1.493-.424-2.287-.465-.735-.038-1.547 1.214-2.342 1.193-.824-.021-1.744-1.901-2.471-1.803-.803.109-1.772.363-2.481.602-.747.252-.394 2.92-1.065 3.294-.672.373-1.76-.106-2.387.367-.604.457-1.014 1.109-1.604 1.64-.561.504-1.883.218-2.454.771-.541.524-1.688.454-2.259 1.007-.541.525-.595 1.556-1.181 2.095-.555.511-.781 1.397-1.391 1.91-.621.522-1.265 1.033-1.888 1.573-.614.532-1.314.981-1.928 1.53-.607.542-1.455.839-2.058 1.397-.598.554-1.565.751-2.156 1.32-.587.567-.4 1.941-.978 2.523-.576.58-.252 2.014-.814 2.609-.562.595-2.279.115-2.825.726-.545.611-.004 2.152-.53 2.778-.527.627-.865 1.362-1.37 2.005-.507.645-1.847.627-2.329 1.287-.482.663-.914 1.354-1.368 2.032-.457.682-1.949.724-2.374 1.421-.427.701.729 2.322.338 3.039-.393.721-2.385.628-2.738 1.364-.355.739-1.081 1.39-1.394 2.145-.312.757 1.337 2.284 1.07 3.058-.269.778-1.974 1.126-2.19 1.923-.217.793-.771 1.562-.948 2.37-.177.804.894 1.884.742 2.696-.149.81.934 1.826.798 2.642-.136.812-.409 1.602-.543 2.415-.135.814-.871 1.535-1.016 2.346-.145.813-1.167 1.457-1.334 2.263-.168.81.929 1.92.727 2.718-.203.801-.407 1.657-.657 2.441-.25.786-.588 1.614-.897 2.378-.309.762-2.62.586-3 1.321-.376.727.092 1.857-.364 2.555-.446.679-.328 1.799-.862 2.445-.512.619-2.003.36-2.568.953-.556.581.37 2.704-.231 3.259-.592.545-1.351 1.018-1.981 1.536-.623.512-1.86.306-2.517.79-.649.479-2.222-.394-2.899.059-.674.449-.942 1.46-1.638 1.882-.693.42-.58 2.255-1.291 2.646-.712.392-1.321 1.074-2.047 1.438-.728.364-2.615-1.705-3.352-1.37-.743.337-.823 2.146-1.569 2.453-.758.311-1.392.972-2.147 1.25-.77.282-1.385 1.097-2.146 1.345-.782.254-2.126-1.343-2.895-1.126-.757.213-.908 2.234-1.632 2.493-.737.265-2.273-1.525-2.981-1.221-.717.31-1.568.466-2.262.81-.697.346-.939 1.63-1.618 2.004-.681.375-1.975-.27-2.643.126-.668.396.186 3.301-.475 3.71-.659.408-2.018-.312-2.675.103-.655.413-1.065 1.223-1.725 1.635-.658.41-1.186 1.058-1.853 1.458-.664.399-1.661.262-2.34.645-.674.38-2.074-.628-2.768-.271-.688.354-.872 1.671-1.584 1.994-.702.318-.816 2.148-1.548 2.431-.741.286-1.896-.541-2.611-.258-.738.292-1.998-.693-2.705-.393-.73.311-1.376.891-2.069 1.224-.713.344-.299 2.766-.969 3.147-.685.39-2.243-.719-2.877-.272-.639.448-1.387.827-1.971 1.35-.574.514.08 2.179-.437 2.779-.497.577-2.889-.245-3.328.427-.413.631.55 2.858.191 3.585-.72-.324-1.395-2.394-2.113-2.703-.726-.312-1.505-.522-2.229-.82-.729-.301-1.489-.549-2.219-.837-.733-.289-2.018.854-2.75.577-.738-.278-.894-2.132-1.632-2.397-.741-.268-1.599-.228-2.341-.483-.744-.257-1.428-.718-2.173-.964-.747-.247-2.05 1.229-2.798.992-.75-.237-1.558-.245-2.309-.474-.753-.229-1.381-.834-2.135-1.054-.754-.221-1.072-1.965-1.828-2.178-.756-.212-1.807.636-2.565.43-.758-.205-1.578-.165-2.338-.365-.76-.199-1.716.39-2.479.195-.759-.193-1.231-1.509-1.993-1.698-.761-.188-1.226-1.594-1.989-1.778-.761-.185-1.712.401-2.478.22-.762-.181-1.729.501-2.495.322-.764-.179-1.408-.876-2.177-1.054-.764-.177-1.778.727-2.548.55-.763-.175-1.223-1.681-1.991-1.855-.765-.175-1.428-.813-2.198-.989-.765-.175-1.561-.227-2.331-.403-.766-.176-1.567-.248-2.369-.45-.765-.193-1.862.812-2.655.602-.767-.203-.965-2.577-1.754-2.791-.77-.208-2.289 2.327-3.076 2.115-.771-.208-1.358-1.119-2.144-1.326-.776-.204-1.609-.17-2.396-.368-.78-.196-1.094-2.323-1.881-2.509-.785-.185-1.494-.829-2.283-.998-.791-.17-2.106 2.255-2.898 2.106-.796-.149-1.418-1.175-2.212-1.298-.802-.125-1.503-1.012-2.3-1.104-.809-.094-1.76 1.572-2.559 1.516-.812-.057-1.546-.546-2.345-.558-.815-.012-1.56.255-2.357.296-.813.043-1.704-1.148-2.495-1.045-.808.106-1.692-.043-2.472.134-.794.181-1.044 1.885-1.769 2.188-.74.311-2.488-1.312-3.167-.896-.678.415-1.118 1.387-1.747 1.886-.619.492-.245 2.138-.829 2.69-.575.544-1.597.617-2.147 1.2-.546.577-.773 1.442-1.305 2.038s-1.479.822-2.008 1.417c-.533.6-.452 1.767-.993 2.345-.55.588-2.463-.194-3.032.352-.583.558-1.149.963-1.764 1.454-.703.562-.802 1.728-1.437 2.162-.753.516-1.213 1.332-1.886 1.679-.819.423-1.824-.07-2.551.123-.868.23-1.572 1.93-2.358 1.869-.821-.063-1.106-2.229-1.896-2.566-.716-.306-2.345 1.018-3.083.523-.646-.432-1.004-1.425-1.699-1.977-.612-.486-.973-1.356-1.645-1.92-.606-.508-2.086-.03-2.756-.589-.64-.533-1.121-1.287-1.795-1.843-.65-.535-.671-1.862-1.35-2.396-.668-.527-2.085-.047-2.778-.552s-.548-2.193-1.263-2.656c-.725-.469-1.796-.35-2.541-.754-.762-.414-1.167-1.582-1.946-1.906-.801-.334-1.479-1.431-2.294-1.645-.772-.202-1.925 1.085-2.721.965-.788-.119-1.496-1.219-2.299-1.283-.794-.063-1.703 1.625-2.506 1.59-.799-.034-1.613.373-2.415.343-.801-.03-1.549-1.4-2.347-1.45-.802-.051-1.635.217-2.426.122-.798-.095-1.842.863-2.623.697-.737-.156-1.225-1.486-1.969-1.632-.74-.146-1.591.301-2.334.161-.743-.139-1.497-.21-2.24-.348s-1.614.36-2.356.219c-.744-.143-1.223-1.669-1.963-1.819-.743-.151-1.797 1.09-2.532.925-.74-.166-1.034-2.25-1.764-2.435-.746-.189-1.43-.314-2.102-.57-.708-.27-1.928.582-2.576.247-.662-.342-1.392-.73-2.015-1.132a35.978 35.978 0 0 1-1.881-1.294c-.584-.434.108-2.542-.484-3.013-.565-.451-1.665-.253-2.256-.731-.621-.502-.819-1.534-1.437-2.022-.626-.494-1.67-.459-2.296-.938-.633-.484-.99-1.346-1.625-1.812-.642-.471-2.041.118-2.688-.332-.652-.454-.45-2.184-1.111-2.615-.665-.435-1.641-.418-2.317-.827-.678-.411-1.805-.05-2.498-.434-.691-.383-1.473-.553-2.182-.907-.706-.353-.802-2.021-1.528-2.343-.72-.319-1.766.073-2.508-.215-.732-.283-1.824.482-2.581.231-.745-.247-1.36-.81-2.132-1.023-.754-.21-1.567-.065-2.35-.241-.763-.172-1.154-2.224-1.944-2.368-.77-.141-1.843 1.48-2.635 1.364-.776-.113-1.567.05-2.361-.042-.781-.089-1.528-.312-2.323-.382-.785-.068-1.477-1.353-2.272-1.401-.788-.048-1.648 1.527-2.443 1.497-.791-.029-1.526-1.872-2.321-1.886-.792-.012-1.6-.93-2.393-.927-.794.003-1.563 2.268-2.355 2.286-.795.019-1.661-2.058-2.451-2.025-.796.033-1.598.312-2.386.357-.796.047-1.459 2.032-2.245 2.093-.798.061-1.594-.078-2.377-.005-.797.074-1.516.691-2.294.777-.798.088-1.667-.62-2.441-.521-.826.106-1.502.816-2.323.983-.815.166-1.831-.632-2.643-.424-.806.206-1.249 1.697-2.054 1.928-.801.229-1.68.173-2.482.407-.802.235-1.572.638-2.375.861-.807.225-1.681.336-2.491.531-.814.197-1.713.257-2.533.406-.823.15-1.69.595-2.521.679-.83.085-1.79-2.572-2.628-2.571-.845.001-1.694 1.847-2.413 1.729-.83-.137-1.333-1.215-2.015-1.494-.758-.31-2.342.685-2.945.223-.625-.479-.586-1.876-1.076-2.491-.478-.601-1.608-.913-1.99-1.616-.364-.671-.392-1.619-.696-2.36-.291-.709-.453-1.518-.712-2.271-.251-.729-1.261-1.236-1.504-1.989-.24-.74 1.949-2.293 1.696-3.039-.251-.741-2.354-.824-2.639-1.554-.285-.731.07-1.715-.269-2.419-.341-.708.418-2.111.003-2.773-.352-.562-2.709-.021-3.391-.825-.528-.622.491-2.761-.145-3.433-.601-.634-1.852-.718-2.48-1.323-.667-.644-1.975-.544-2.598-1.072-.803-.681-1.109-1.822-1.687-2.151-.673-.383-1.696 1.155-2.701 1.252-.973.093-2.4.09-3.133-.128-.757-.226-1.134-1.698-1.877-1.966-.742-.268-2.08.917-2.81.615-.729-.302-.606-2.604-1.326-2.93-.719-.326-1.909.361-2.621.02-.712-.343-.705-2.148-1.411-2.499-.709-.352-2.482 1.443-3.187 1.093-.717-.356-.55-2.504-1.268-2.854-.72-.352-1.364-.875-2.085-1.219-.723-.345-1.323-.973-2.047-1.309-.726-.338-2.031.574-2.758.245-.729-.331-1.26-1.105-1.991-1.427-.732-.323-1.711-.078-2.445-.393-.736-.314-1.311-1.01-2.048-1.314-.739-.306-2.093.923-2.834.627-.743-.296-1.252-1.147-1.998-1.434-.747-.287-1.223-1.272-1.972-1.548-.75-.276-1.651-.123-2.404-.388-.754-.266-1.426-.752-2.184-1.006-.757-.255-1.648-.073-2.41-.315-.761-.242-1.632-.084-2.397-.314-.765-.23-1.117-1.853-1.886-2.07-.768-.218-1.459-.753-2.232-.958-.771-.204-1.842.754-2.619.562-.775-.191-1.136-2.161-1.916-2.338-.778-.178-1.599-.27-2.382-.434-.781-.162-1.768.632-2.555.482-.783-.148-1.417-1.208-2.207-1.343-.786-.134-1.718.534-2.51.415-.788-.119-1.817 1.52-2.612 1.415-.794-.104-1.401-1.728-2.21-1.803-.8-.075-1.652.451-2.46.392-.805-.06-1.562-.789-2.368-.846-.808-.058-1.71 1.061-2.512.992-.81-.067-1.648-.111-2.445-.203-.809-.093-1.498-1.177-2.287-1.308-.805-.134-1.755.363-2.532.176-.793-.191-.936-2.431-1.691-2.693-.768-.268-1.952.718-2.672.361-.722-.357-1.511-.606-2.177-1.071-.653-.455-1.918-.326-2.508-.899-.563-.547-.935-1.467-1.434-2.135-.464-.623-.1-1.846-.503-2.585-.356-.654-.817-1.271-1.154-1.987-.321-.682-1.842-.874-2.144-1.596-.293-.704 1.552-2.264 1.28-2.99-.269-.721-2.076-.889-2.321-1.618-.247-.738 1.273-2.02 1.054-2.75-.225-.752-3.027-.765-3.22-1.493-.203-.768 2.377-2.192 2.215-2.916-.184-.817-1.129-1.324-1.187-2.079-.063-.829.046-1.505.119-2.267.078-.814.312-1.432.528-2.18.222-.771-.296-1.743.052-2.456.346-.711 1.218-1.078 1.668-1.743.44-.649.098-1.899.617-2.517.505-.599 2.001-.301 2.563-.879.547-.563 1.274-.902 1.859-1.455.572-.541.116-2.191.708-2.732.584-.532 1.589-.613 2.177-1.153.584-.536 1.663-.568 2.237-1.12.574-.551 1.372-.942 1.921-1.517.55-.576-.605-2.685-.093-3.293.513-.608 1.915-.478 2.374-1.127.458-.647-.228-1.954.163-2.65.411-.732 3.158-.26 3.507-1.001.357-.758-1.016-2.294-.709-3.057.311-.775 1.794-1.113 2.068-1.891.277-.785-.915-2.066-.662-2.851.256-.793.308-1.64.556-2.427.25-.793.371-1.637.628-2.421.26-.79 1.734-1.168 2.018-1.944.285-.778-.194-1.868.132-2.629.326-.76 1.984-.878 2.367-1.615.379-.729.857-1.309 1.309-2.013.44-.688.821-1.309 1.346-1.968.504-.634 1.229-.937 1.825-1.541.578-.587-.066-2.354.486-2.959.555-.607 1.891-.521 2.428-1.141.539-.621.757-1.523 1.284-2.149.53-.63 1.898-.558 2.423-1.186.528-.632.344-1.852.874-2.474.534-.627 1.52-.835 2.064-1.445.547-.615 1.123-1.149 1.688-1.741.568-.595.356-1.93.95-2.493.595-.565 1.454-.816 2.083-1.343.627-.526.339-2.278 1.008-2.759.616-.443 1.409-.611 2.042-1.129.595-.487 2.655.656 3.252.109.572-.523-.125-2.421.438-2.994.546-.557 1.491-.747 2.019-1.345.52-.588-.052-2.058.44-2.681.49-.618 2.079-.381 2.533-1.029.453-.648-.49-2.159-.081-2.832.412-.68 1.342-.973 1.698-1.672.362-.71 1.118-1.184 1.413-1.909.301-.739-.159-1.667.062-2.417.226-.767 1.526-1.221 1.657-1.992.134-.785.268-1.586.292-2.371.025-.791-.233-1.532-.331-2.316-.762-.174-1.525-.606-2.27-.499-.764.11-1.586.44-2.261.778-.702.351-1.576 1.773-2.1 2.292-.008-.807.502-2.301.578-3.107.076-.801-1.378-1.892-1.225-2.689.151-.788 2.903-.981 3.126-1.763.22-.771.409-1.467.694-2.229.281-.751.388-1.503.728-2.243a34.96 34.96 0 0 1 1.05-2.117c.382-.705.655-1.422 1.085-2.112.424-.682.281-1.718.748-2.383.462-.658 1.892-.56 2.392-1.199.496-.634 1.061-1.131 1.592-1.745.526-.609-.585-2.688-.027-3.275.555-.585 2.7.42 3.282-.143.581-.562-.303-2.685.302-3.221s1.928-.24 2.555-.75c.628-.512.422-2.114 1.068-2.598.65-.485 1.357-.962 2.022-1.416.67-.459 2.531.918 3.213.493.691-.43.128-2.977.828-3.37.71-.399 2.245.714 2.961.355.73-.367 1.274-1.092 2.006-1.415.748-.33 1.036-1.862 1.782-2.145.767-.29 1.871.262 2.63.025.784-.244 1.846.589 2.618.406.8-.19 1.493-.678 2.275-.801.832-.131 1.639.166 2.459.136.835-.031 1.589.212 2.414.261.831.049 1.845-1.805 2.666-1.7.825.105 1.729-.022 2.545.114.822.136 1.218 2.771 2.034 2.912.821.142 1.769-.4 2.585-.28.825.121 1.746-.572 2.567-.5.829.072 1.638 1.37 2.465 1.363.827-.007 1.713-.509 2.54-.623.863-.119 1.67-.66 2.42-.969.788-.326 1.62-.539 2.364-.878.774-.353 1.48-.427 2.296-.572.773-.137 1.612-1.219 2.503-.969.695.195 1.415 1.646 2.225 2.182.323-.731 1.746-1.394 2.113-2.058.377-.681.602-1.401.993-2.069.385-.657.043-1.365.411-2.065.88.057 1.595-.969 2.31-1.099-.497.574-.914 1.414-1.208 2.019.619-.386 1.343-.375 2.008-.672.182.738-.617 2.048-.217 2.905.433.898 1.768.785 1.972 1.429z"/>
    <path fill="none" stroke="#AADBC2" stroke-width="3" d="M155.333 244.356c.837 0 1.674-.346 2.516-.353.839-.007 1.688 1.234 2.528 1.229.841-.006 1.68-2.006 2.519-2.002.842.004 1.703.076 2.54.098.843.021 1.332 1.352 2.167 1.4-.176.676-1.14.643-1.44 1.345-.289.673.331 1.736-.045 2.364-.393.655-.114 1.148-.573 1.678.412-.703.245-1.152.78-1.635.585-.528 1.516-.119 2.235-.357.698-.229 1.921-1.682 2.73-1.61-.024.896-.904 2.496-.476 3.05.448.579 1.166 1.561 1.933 1.852.675.256 1.769-.44 2.561-.344.757.093 1.54 1.18 2.295 1.181.82.001.717-.581 1.405-.625-.167.929 2.231.84 2.482 1.649.267.86-1.391 2.74-1.383 3.593.805-.009 2.313-1.123 3.047-1.028.788.103 1.102 2.113 1.825 2.312.756.209 1.386.248 2.088.537.716.297 1.562.104 2.242.458a48.37 48.37 0 0 1 2.001 1.088c.663.385 1.243.914 1.911 1.304.661.385 2.329-1.046 3.013-.683.673.357.398 2.668 1.112 2.979.693.303 1.53-.038 2.278.198.262.803 1.199 1.063 1.509 1.689.377.76.224 1.738.671 2.279.523.634 1.356.852 1.971 1.252.644.42 1.187 1.056 1.926 1.3.702.232 1.407.747 2.191.895.724.136 1.384 1.002 2.174 1.124.729.112 1.458.155 2.241.302.727.137 1.44.093 2.212.295.638.167 2.061-2.02 2.891-1.797.744.199 1.554.691 2.271.954.805.294.674 2.375 1.22 2.774.776.566 2.667.695 2.761 1.571.106.994-.873 1.637-.141 2.062.619.36 1.294-.075 2.181.048.75.104 1.413.396 2.259.395.796 0 1.621.891 2.428.846.832-.046 1.575-1.548 2.342-1.587.896-.047 2.179.856 2.871.897.408.908-.151 3.048.527 3.539.709.513 2.2.244 3.117.413.834.154 1.844.4 2.78.359"/>
    <path fill="none" stroke="#AAD5EF" stroke-width="3" d="M513.705 209.607c.615.315-.129 2.57.422 3.045.535.463 1.232.476 1.674 1.032.453.571 1.082.368 1.399.978-.663.295-.115 1.503-.606 2.049-.497.553-1.871.509-2.12 1.171-.274.731-.695 1.746-.574 2.416.129.714 1.701.367 2.394.776.519.307.668 1.382 1.562 1.397-.066.873 1.015 1.506 1.058 2.144.062.929-.406 1.506-.14 2.055.363.747.874.659 1.546 1.001.604.308.653 2.186 1.445 2.432.657.205 1.316.302 2.066.623.637.272 2.385-1.299 3.064-.846.633.421.001 2.488.532 3.007.534.522 1.368.704 1.824 1.301.451.589 1.922.532 2.323 1.169.396.63-.869 2.267-.497 2.922.368.649.248 1.575.615 2.227.368.653 2.155.494 2.547 1.127.395.639.548 1.39.99 1.987-.814.719-1.658 1.239-1.957 1.973-.314.772-1.17 2.121-1.704 2.974.842.141 2.7.146 3.417.322.835.206 1.979-.671 2.665-.415.806.301 1.375 1.211 2.009 1.586.722.426.627 1.776 1.175 2.305.572.551 2.658-.088 3.101.582.42.636-.629 2.201-.273 2.95.322.679 2.339.699 2.647 1.477.277.698-1.95 2.41-1.654 3.19.267.706.739 1.384 1.043 2.16.238.608.14 1.48.425 2.493.219.781 1.958 1.219 2.208 2.101.236.837-.744 2.083-.478 2.904.285.88.631 1.818.952 2.557.419.96 1.92 1.255 2.403 1.727.598.583 1.377 1.159 2.273 1.231.893.071 1.982-1.22 2.718-1.109.928.14.434 1.335.301 2.516-.066.586.441 1.374-.054 2.419"/>
    <path d="M145 236h18v18h-18zm93 43h18v18h-18zm312.822-4.984h18v18h-18zm-46.489-77.634h18v18h-18zM149.5 236v18m4.5-18v18m4.5-18v18M145 240.5h18m-18 4.5h18m-18 4.5h18m79.5 29.5v18m4.5-18v18m4.5-18v18M238 283.5h18m-18 4.5h18m-18 4.5h18m299.322-18.484v18m4.5-18v18m4.5-18v18m-13.5-13.5h18m-18 4.5h18m-18 4.5h18m-59.989-91.134v18m4.5-18v18m4.5-18v18m-13.5-13.5h18m-18 4.5h18m-18 4.5h18" fill="#BC1E47" stroke="#000"/>
</svg>
