<svg xmlns="http://www.w3.org/2000/svg" width="461" height="452" viewBox="-146 -137 461 452">
    <path fill="none" stroke="#BC1E47" stroke-width="4" d="M83 194.432v75M-10.029 33.301l-64.951-37.5m251.009 37.5l64.951-37.5M13.939 169.289a211.568 211.568 0 0 0-36.75-63.627M46.25-13.949a211.73 211.73 0 0 0 73.5 0m69.059 119.611a211.55 211.55 0 0 0-36.75 63.627M20.602-84.42C-47.281-96.375-112-51.037-123.951 16.846A124.804 124.804 0 0 0-96.67 118.682m359.342 0c44.285-52.811 37.377-131.531-15.438-175.814a124.786 124.786 0 0 0-101.832-27.281M-34.27 226.74c23.576 64.768 95.195 98.156 159.961 74.572a124.786 124.786 0 0 0 74.572-74.572"/>
    <path fill="none" stroke="#FFF" stroke-width="12" d="M-96.67 118.682c-23.562 64.77 9.846 136.377 74.619 159.943a124.826 124.826 0 0 0 105.055-9.193M145.398-84.42c-44.316-52.787-123.037-59.652-175.826-15.334A124.803 124.803 0 0 0-74.98-4.199M200.27 226.74c67.871-12.012 113.156-76.764 101.15-144.635A124.803 124.803 0 0 0 240.984-4.2"/>
    <path fill="none" stroke="#FEC200" stroke-width="4" d="M13.939 169.289L-34.27 226.74"/>
    <path fill="none" stroke="#0081CD" stroke-width="4" d="M-22.811 105.662l-73.859 13.02"/>
    <path fill="none" stroke="#FEC200" stroke-width="4" d="M46.25-13.949L20.602-84.42"/>
    <path fill="none" stroke="#0081CD" stroke-width="4" d="M119.75-13.949l25.648-70.471"/>
    <path fill="none" stroke="#FEC200" stroke-width="4" d="M188.809 105.662l73.863 13.02"/>
    <path fill="none" stroke="#0081CD" stroke-width="4" d="M152.059 169.289l48.211 57.451M83 194.432a211.609 211.609 0 0 0-69.061-25.143"/>
    <path fill="none" stroke="#FEC200" stroke-width="4" d="M-22.811 105.662A211.633 211.633 0 0 0-10.03 33.301"/>
    <path fill="none" stroke="#0081CD" stroke-width="4" d="M-10.029 33.301a211.71 211.71 0 0 0 56.279-47.25"/>
    <path fill="none" stroke="#FEC200" stroke-width="4" d="M119.75-13.949a211.742 211.742 0 0 0 56.279 47.25"/>
    <path fill="none" stroke="#0081CD" stroke-width="4" d="M176.029 33.301a211.635 211.635 0 0 0 12.779 72.361"/>
    <path fill="none" stroke="#FEC200" stroke-width="4" d="M152.059 169.289A211.598 211.598 0 0 0 83 194.432m-179.67-75.75c-23.562 64.77 9.846 136.383 74.619 159.943a124.823 124.823 0 0 0 105.055-9.193M145.398-84.42c-44.316-52.787-123.037-59.652-175.826-15.334A124.803 124.803 0 0 0-74.98-4.199M200.27 226.74c67.871-12.01 113.156-76.764 101.15-144.635A124.803 124.803 0 0 0 240.984-4.2"/>
    <path fill="none" stroke="#FFF" stroke-width="12" d="M240.98-4.199c-.018-68.926-55.904-124.789-124.828-124.773a124.786 124.786 0 0 0-95.551 44.553"/>
    <path fill="none" stroke="#0081CD" stroke-width="4" d="M240.98-4.199c-.018-68.926-55.904-124.789-124.828-124.773a124.783 124.783 0 0 0-95.551 44.553"/>
    <path fill="none" stroke="#FFF" stroke-width="12" d="M-74.98-4.199c-59.672 34.494-80.088 110.828-45.594 170.5a124.805 124.805 0 0 0 86.309 60.439M83 269.432c59.695 34.453 136.02 13.992 170.477-45.691a124.825 124.825 0 0 0 9.195-105.059"/>
    <path fill="none" stroke="#0081CD" stroke-width="4" d="M-74.98-4.199c-59.672 34.494-80.088 110.828-45.594 170.5a124.79 124.79 0 0 0 86.309 60.439M83 269.432c59.695 34.453 136.02 13.998 170.477-45.691a124.825 124.825 0 0 0 9.195-105.059"/>
    <circle fill="#FFF" stroke="#000" stroke-width="2" cx="83" cy="194.432" r="15"/>
    <circle fill="#FFF" stroke="#000" stroke-width="2" cx="13.939" cy="169.289" r="15"/>
    <circle fill="#FFF" stroke="#000" stroke-width="2" cx="-22.811" cy="105.662" r="15"/>
    <circle fill="#FFF" stroke="#000" stroke-width="2" cx="-10.029" cy="33.301" r="15"/>
    <circle fill="#FFF" stroke="#000" stroke-width="2" cx="46.25" cy="-13.949" r="15"/>
    <circle fill="#FFF" stroke="#000" stroke-width="2" cx="119.75" cy="-13.949" r="15"/>
    <circle fill="#FFF" stroke="#000" stroke-width="2" cx="176.029" cy="33.301" r="15"/>
    <path fill="#FFF" stroke="#000" stroke-width="2" d="M188.809 90.662c8.285 0 15 6.715 15 15 0 8.283-6.715 15-15 15-8.281 0-15-6.717-15-15 0-8.285 6.718-15 15-15zm-36.75 63.627c8.285 0 15 6.715 15 15s-6.715 15-15 15c-8.281 0-15-6.715-15-15s6.718-15 15-15z"/>
    <circle fill="#FFF" stroke="#000" stroke-width="2" cx="83" cy="269.432" r="15"/>
    <circle fill="#FFF" stroke="#000" stroke-width="2" cx="-34.27" cy="226.74" r="15"/>
    <circle fill="#FFF" stroke="#000" stroke-width="2" cx="-96.67" cy="118.682" r="15"/>
    <circle fill="#FFF" stroke="#000" stroke-width="2" cx="-74.98" cy="-4.199" r="15"/>
    <circle fill="#FFF" stroke="#000" stroke-width="2" cx="20.602" cy="-84.42" r="15"/>
    <path fill="#FFF" stroke="#000" stroke-width="2" d="M145.398-99.42c8.285 0 15 6.717 15 15 0 8.285-6.715 15-15 15-8.281 0-15-6.715-15-15 0-8.283 6.719-15 15-15z"/>
    <circle fill="#FFF" stroke="#000" stroke-width="2" cx="240.98" cy="-4.199" r="15"/>
    <circle fill="#FFF" stroke="#000" stroke-width="2" cx="262.672" cy="118.682" r="15"/>
    <circle fill="#FFF" stroke="#000" stroke-width="2" cx="200.27" cy="226.74" r="15"/>
</svg>
