<?xml version="1.0" encoding="UTF-8" standalone="no"?>
<svg xmlns="http://www.w3.org/2000/svg" version="1.0" width="800" height="800" id="girlbert">
<g style="stroke:#000000;stroke-width:2;stroke-linecap:round;fill:none">
<line x1="687.34" y1="258.88" x2="573.18" y2="240.30"/>
<line x1="693.41" y1="403.15" x2="651.22" y2="386.02"/>
<line x1=" 62.53" y1="483.21" x2=" 93.86" y2="376.42"/>
<line x1="765.31" y1="716.16" x2="800.00" y2="654.66"/>
<line x1="551.04" y1="170.26" x2="576.96" y2="142.08"/>
<line x1="509.68" y1="507.92" x2="349.63" y2="441.26"/>
<line x1="666.41" y1="277.81" x2="468.47" y2="198.16"/>
<line x1="643.86" y1="503.56" x2="700.54" y2="427.04"/>
<line x1="672.98" y1="744.84" x2="747.01" y2="581.45"/>
<line x1="696.80" y1=" 27.08" x2="800.00" y2=" 12.70"/>
<line x1="648.92" y1="530.88" x2="748.88" y2="450.13"/>
<line x1="389.05" y1=" 29.30" x2="388.50" y2="  0.00"/>
<line x1="413.28" y1="160.09" x2="489.78" y2=" 89.30"/>
<line x1="105.09" y1="767.40" x2="134.53" y2="674.16"/>
<line x1="627.05" y1="800.00" x2="639.64" y2="776.08"/>
<line x1="621.44" y1="248.15" x2="593.66" y2="137.15"/>
<line x1="250.81" y1="252.92" x2="231.04" y2="193.91"/>
<line x1="643.46" y1="409.03" x2="403.89" y2="334.81"/>
<line x1="732.61" y1="230.37" x2="742.41" y2="115.68"/>
<line x1="472.04" y1="679.98" x2="364.80" y2="678.59"/>
<line x1="385.06" y1="800.00" x2="483.79" y2="723.08"/>
<line x1="402.14" y1="131.10" x2="275.94" y2=" 21.46"/>
<line x1="683.54" y1="690.57" x2="701.39" y2="501.89"/>
<line x1="800.00" y1="221.42" x2="770.35" y2="205.96"/>
<line x1="543.85" y1="378.17" x2="693.03" y2="332.43"/>
<line x1="362.79" y1="330.78" x2="360.72" y2="243.44"/>
<line x1="686.22" y1="662.23" x2="581.79" y2="494.36"/>
<line x1="129.75" y1=" 61.47" x2=" 33.17" y2=" 54.50"/>
<line x1="289.46" y1="775.38" x2="390.57" y2="707.98"/>
<line x1="228.84" y1="344.03" x2="330.89" y2="256.97"/>
<line x1="455.86" y1="800.00" x2="515.49" y2="635.77"/>
<line x1="569.61" y1="770.01" x2="656.40" y2="675.28"/>
<line x1="643.03" y1="298.96" x2="463.35" y2="259.54"/>
<line x1="118.29" y1="359.80" x2="165.43" y2="307.65"/>
<line x1="480.45" y1="488.27" x2="588.47" y2="477.68"/>
<line x1="265.97" y1="503.69" x2="254.35" y2="435.10"/>
<line x1="548.87" y1="800.00" x2="533.47" y2="765.67"/>
<line x1="183.92" y1="159.05" x2=" 97.78" y2="138.52"/>
<line x1="319.49" y1="596.35" x2="275.17" y2="514.65"/>
<line x1=" 51.21" y1="545.22" x2="  0.00" y2="425.82"/>
<line x1="344.13" y1="425.72" x2="382.97" y2="361.08"/>
<line x1="261.79" y1="479.03" x2="265.75" y2="440.74"/>
<line x1="414.96" y1="234.52" x2="394.43" y2=" 68.92"/>
<line x1="385.62" y1="702.34" x2="502.28" y2="672.16"/>
<line x1="691.40" y1="704.20" x2="627.35" y2="593.17"/>
<line x1=" 72.64" y1="706.67" x2="124.49" y2="705.96"/>
<line x1="512.82" y1="584.62" x2="534.31" y2="513.02"/>
<line x1="652.52" y1="636.81" x2="595.98" y2="635.47"/>
<line x1="357.38" y1="160.65" x2="203.42" y2=" 71.26"/>
<line x1="244.56" y1="189.40" x2="191.65" y2=" 82.35"/>
<line x1="109.91" y1="471.87" x2="246.02" y2="430.98"/>
<line x1="396.64" y1="322.42" x2="386.25" y2="210.76"/>
<line x1="774.82" y1="727.13" x2="713.20" y2="656.07"/>
<line x1="635.13" y1="433.70" x2="666.56" y2="340.55"/>
<line x1="647.61" y1="800.00" x2="622.87" y2="725.71"/>
<line x1="554.47" y1="374.92" x2="391.96" y2="272.10"/>
<line x1="594.74" y1="243.80" x2="602.58" y2="172.80"/>
<line x1="103.74" y1="694.15" x2="  0.00" y2="620.40"/>
<line x1=" 98.98" y1="764.97" x2="116.30" y2="706.07"/>
<line x1="187.06" y1="800.00" x2=" 48.02" y2="744.69"/>
<line x1="403.01" y1="537.39" x2="546.31" y2="510.80"/>
<line x1="538.67" y1="138.05" x2="446.14" y2=" 45.79"/>
<line x1="108.09" y1="706.19" x2=" 61.06" y2="576.03"/>
<line x1="543.93" y1="705.67" x2="636.00" y2="581.50"/>
<line x1="225.17" y1="338.21" x2="174.06" y2="306.60"/>
<line x1="423.92" y1="800.00" x2="436.92" y2="759.60"/>
<line x1="686.99" y1="381.62" x2="697.14" y2="298.86"/>
<line x1="800.00" y1="245.43" x2="718.23" y2="227.16"/>
<line x1="561.77" y1="544.32" x2="605.98" y2="433.96"/>
<line x1="258.03" y1="298.73" x2="117.25" y2="253.30"/>
<line x1="286.06" y1="119.24" x2="273.72" y2="  0.00"/>
<line x1="381.59" y1=" 75.19" x2="403.10" y2=" 52.51"/>
<line x1="236.72" y1="356.55" x2="307.64" y2="303.04"/>
<line x1="657.17" y1="485.60" x2="741.57" y2="418.39"/>
<line x1="241.21" y1="265.51" x2="282.89" y2="210.84"/>
<line x1="414.70" y1="629.13" x2="478.78" y2="564.01"/>
<line x1="431.33" y1="532.13" x2="349.80" y2="441.71"/>
<line x1="186.42" y1="686.11" x2="292.71" y2="643.95"/>
<line x1="675.82" y1="460.42" x2="556.56" y2="382.11"/>
<line x1="367.07" y1="490.49" x2="338.85" y2="410.79"/>
<line x1="747.06" y1="581.46" x2="694.58" y2="573.84"/>
<line x1="405.82" y1="160.77" x2="511.08" y2="151.21"/>
<line x1="272.35" y1="800.00" x2="360.31" y2="673.48"/>
<line x1="533.81" y1="652.99" x2="475.61" y2="598.29"/>
<line x1="126.30" y1="241.15" x2=" 39.39" y2="189.60"/>
<line x1="195.32" y1="205.81" x2="145.12" y2=" -0.00"/>
<line x1="262.74" y1="237.27" x2="203.03" y2=" 71.27"/>
<line x1="  0.00" y1="582.62" x2="178.44" y2="563.36"/>
<line x1="257.68" y1="514.83" x2=" 91.23" y2="495.22"/>
<line x1="800.00" y1="255.63" x2="607.94" y2="194.21"/>
<line x1="252.35" y1="381.39" x2="309.28" y2="305.87"/>
<line x1="160.45" y1="114.60" x2="106.15" y2=" 20.65"/>
<line x1="558.64" y1=" 39.57" x2="476.32" y2="  0.00"/>
<line x1="475.95" y1="457.90" x2="361.15" y2="261.80"/>
<line x1="397.77" y1="212.47" x2="211.72" y2=" 95.42"/>
<line x1=" 66.38" y1="488.65" x2="115.10" y2="465.39"/>
<line x1="539.00" y1="147.29" x2="536.08" y2=" 63.65"/>
<line x1="204.65" y1="202.70" x2="190.51" y2=" 71.76"/>
<line x1="122.03" y1="377.76" x2="  0.00" y2="371.97"/>
<line x1="689.83" y1="358.51" x2="754.38" y2="329.64"/>
<line x1="219.24" y1="328.78" x2="322.42" y2="248.83"/>
<line x1="171.52" y1="227.74" x2="159.03" y2="153.12"/>
<line x1="741.71" y1="771.08" x2="613.48" y2="722.13"/>
<line x1=" 80.51" y1="508.61" x2="  2.50" y2="398.44"/>
<line x1="577.03" y1="156.10" x2="645.64" y2=" 77.92"/>
<line x1="163.57" y1=" 75.65" x2=" 84.59" y2="  0.00"/>
<line x1="717.16" y1="660.63" x2="794.47" y2="455.94"/>
<line x1="139.75" y1="462.91" x2="110.57" y2="322.73"/>
<line x1="609.05" y1="800.00" x2="631.23" y2="750.82"/>
<line x1="377.84" y1="786.94" x2="413.42" y2="710.04"/>
<line x1="407.74" y1="588.81" x2="461.26" y2="572.34"/>
<line x1=" 71.39" y1="706.10" x2="  4.71" y2="688.29"/>
<line x1="462.47" y1="316.71" x2="464.21" y2="202.84"/>
<line x1=" 42.83" y1=" 76.05" x2="  8.75" y2="  0.00"/>
<line x1="739.46" y1="800.00" x2="747.58" y2="695.71"/>
<line x1="210.08" y1="666.25" x2="277.35" y2="577.30"/>
<line x1="495.34" y1=" 76.51" x2="594.94" y2=" 18.39"/>
<line x1="359.53" y1="800.00" x2="489.53" y2="707.28"/>
<line x1="263.70" y1="508.85" x2="255.47" y2="441.74"/>
<line x1="644.26" y1="297.84" x2="465.38" y2="201.56"/>
<line x1="706.33" y1="446.45" x2="674.06" y2="338.25"/>
<line x1=" 98.16" y1=" 59.19" x2=" 47.11" y2="  9.41"/>
<line x1="285.73" y1="686.23" x2="311.87" y2="628.73"/>
<line x1="361.36" y1="395.77" x2="297.47" y2="285.48"/>
<line x1="367.03" y1="723.67" x2="497.49" y2="685.33"/>
<line x1=" 62.92" y1="187.20" x2="130.76" y2=" 92.46"/>
<line x1=" 84.66" y1="156.84" x2=" 92.60" y2=" 64.01"/>
<line x1="708.53" y1="145.64" x2="787.10" y2=" 76.16"/>
<line x1="654.14" y1=" 86.25" x2="598.98" y2="  0.00"/>
<line x1="647.94" y1=" 39.41" x2="664.78" y2="  0.00"/>
<line x1="546.52" y1="647.71" x2="581.97" y2="578.63"/>
<line x1=" 49.31" y1="547.59" x2="135.08" y2="440.43"/>
<line x1="703.18" y1=" 43.29" x2="623.07" y2=" 37.67"/>
<line x1="370.49" y1="103.60" x2="283.15" y2=" 91.10"/>
<line x1="474.16" y1="484.04" x2="482.72" y2="359.23"/>
<line x1="782.55" y1="305.99" x2="677.65" y2="238.18"/>
<line x1=" 80.61" y1="302.49" x2="  0.00" y2="200.91"/>
<line x1="493.27" y1="591.80" x2="522.39" y2="552.74"/>
<line x1="353.56" y1=" 88.89" x2="415.46" y2=" 58.65"/>
<line x1="300.54" y1="457.95" x2="203.06" y2="303.07"/>
<line x1="299.30" y1="288.64" x2="387.46" y2="223.75"/>
<line x1="195.85" y1="278.66" x2="132.89" y2="146.89"/>
<line x1="603.83" y1=" 36.92" x2="586.13" y2="  0.00"/>
<line x1="800.00" y1="599.78" x2="760.85" y2="596.88"/>
<line x1="504.88" y1="664.99" x2="604.85" y2="623.50"/>
<line x1="718.52" y1="229.58" x2="696.29" y2=" 42.81"/>
<line x1="297.17" y1="555.21" x2="233.37" y2="515.08"/>
<line x1="  0.00" y1="311.87" x2=" 42.33" y2="254.25"/>
<line x1="115.43" y1="313.75" x2="252.72" y2="297.01"/>
<line x1="396.69" y1="714.96" x2="311.05" y2="617.31"/>
<line x1="765.90" y1="678.09" x2="800.00" y2="628.71"/>
<line x1="117.58" y1="569.93" x2="  0.00" y2="531.46"/>
<line x1="250.10" y1="719.70" x2="363.65" y2="517.86"/>
<line x1="427.74" y1="615.88" x2="540.38" y2="574.49"/>
<line x1="706.49" y1="302.33" x2="658.85" y2="284.65"/>
<line x1="239.56" y1="219.34" x2="169.86" y2="217.86"/>
<line x1="485.39" y1=" 93.36" x2="297.30" y2="  0.00"/>
<line x1="361.91" y1="396.13" x2="281.02" y2="343.36"/>
<line x1="262.85" y1="510.80" x2="288.64" y2="452.06"/>
<line x1="671.80" y1="465.84" x2="510.83" y2="367.94"/>
<line x1="800.00" y1="796.30" x2="769.53" y2="739.64"/>
<line x1="527.62" y1="221.96" x2="600.95" y2="187.56"/>
<line x1=" 55.17" y1="336.63" x2="147.45" y2="212.76"/>
<line x1="520.96" y1="515.50" x2="356.58" y2="405.01"/>
<line x1="768.74" y1="238.44" x2="776.33" y2=" 85.69"/>
<line x1="666.50" y1="473.00" x2="497.06" y2="363.68"/>
<line x1="269.94" y1="494.65" x2="305.08" y2="460.19"/>
<line x1="135.90" y1="779.65" x2="219.98" y2="623.96"/>
<line x1="238.24" y1=" 69.89" x2="232.29" y2=" -0.00"/>
<line x1="751.57" y1="650.53" x2="800.00" y2="619.27"/>
<line x1="800.00" y1=" 79.32" x2="708.54" y2=" 56.90"/>
<line x1=" 40.65" y1=" 55.04" x2=" 48.44" y2=" -0.00"/>
<line x1="658.77" y1="522.92" x2="800.00" y2="453.21"/>
<line x1="315.21" y1="588.44" x2="227.64" y2="562.66"/>
<line x1="540.76" y1="756.52" x2="495.74" y2="690.16"/>
<line x1="738.55" y1="413.36" x2="800.00" y2="372.30"/>
<line x1="800.00" y1="293.49" x2="611.46" y2="208.25"/>
<line x1="506.13" y1="800.00" x2="586.44" y2="699.17"/>
<line x1="165.65" y1="724.58" x2="271.13" y2="682.31"/>
<line x1="212.54" y1="583.06" x2="253.49" y2="527.74"/>
<line x1="753.70" y1="476.07" x2="743.64" y2="421.84"/>
<line x1="278.27" y1="791.49" x2="288.16" y2="652.04"/>
<line x1="403.75" y1=" 52.84" x2="539.36" y2=" 30.30"/>
<line x1="424.44" y1="246.67" x2="528.65" y2="131.84"/>
<line x1="237.11" y1=" 69.94" x2="228.55" y2=" -0.00"/>
<line x1="109.96" y1="220.39" x2="  0.00" y2="142.80"/>
<line x1="417.18" y1="357.50" x2="308.16" y2="303.94"/>
<line x1="167.13" y1="218.55" x2="139.41" y2="210.39"/>
<line x1="693.37" y1="329.66" x2="718.05" y2="278.23"/>
<line x1="577.25" y1="198.67" x2="576.83" y2="115.92"/>
<line x1="  0.00" y1="697.13" x2=" 29.67" y2="641.50"/>
<line x1="162.89" y1=" 72.84" x2="280.78" y2=" 68.23"/>
<line x1="667.75" y1="632.54" x2="634.37" y2="452.27"/>
<line x1="230.48" y1="639.27" x2="135.28" y2="500.41"/>
<line x1="349.32" y1="417.09" x2="264.11" y2="365.80"/>
<line x1="741.27" y1="323.65" x2="800.00" y2="298.53"/>
<line x1="689.38" y1="708.65" x2="617.56" y2="635.98"/>
<line x1="175.88" y1="126.09" x2=" 84.84" y2=" 58.23"/>
<line x1="481.37" y1=" 80.92" x2="607.95" y2=" 40.97"/>
<line x1=" 98.09" y1="224.42" x2="159.91" y2="203.44"/>
<line x1="557.93" y1="800.00" x2="597.89" y2="697.42"/>
<line x1="509.81" y1="710.89" x2="642.35" y2="690.61"/>
<line x1="193.17" y1="673.59" x2="302.87" y2="625.89"/>
<line x1="423.03" y1="584.10" x2="379.58" y2="482.74"/>
<line x1="349.04" y1="481.94" x2="129.23" y2="373.22"/>
<line x1="800.00" y1=" 63.14" x2="703.36" y2=" 43.75"/>
<line x1="319.33" y1="732.42" x2="310.67" y2="612.04"/>
<line x1="475.04" y1="471.20" x2="354.05" y2="326.49"/>
<line x1="707.71" y1="138.76" x2="588.66" y2=" 22.05"/>
<line x1="800.00" y1="350.48" x2="704.35" y2="306.79"/>
<line x1="504.49" y1=" 13.54" x2="516.86" y2=" -0.00"/>
<line x1="771.00" y1="467.53" x2="702.35" y2="352.91"/>
<line x1="775.92" y1="697.35" x2="733.84" y2="616.46"/>
<line x1="164.76" y1="726.22" x2=" 76.60" y2="574.35"/>
<line x1="397.18" y1=" 49.58" x2="377.29" y2="  0.00"/>
<line x1="594.94" y1="575.57" x2="622.40" y2="559.65"/>
<line x1="288.47" y1="539.18" x2="384.21" y2="479.87"/>
<line x1="800.00" y1="613.95" x2="744.01" y2="589.53"/>
<line x1="251.49" y1="611.48" x2="171.34" y2="553.00"/>
<line x1="544.61" y1="213.99" x2="568.23" y2=" 53.50"/>
<line x1=" 10.83" y1="451.07" x2="  0.00" y2="382.68"/>
<line x1="577.40" y1="578.18" x2="533.51" y2="483.07"/>
<line x1="768.46" y1="312.02" x2="618.26" y2="211.33"/>
<line x1="335.85" y1="261.74" x2="237.56" y2="167.27"/>
<line x1="486.24" y1="608.28" x2="568.29" y2="605.29"/>
<line x1="425.79" y1="617.86" x2="352.32" y2="499.63"/>
<line x1="  0.00" y1=" 54.76" x2=" 27.74" y2=" 42.38"/>
<line x1="412.05" y1="595.74" x2="525.70" y2="541.70"/>
<line x1=" 96.82" y1="139.86" x2="107.68" y2=" 75.25"/>
<line x1="105.41" y1="264.46" x2="  6.56" y2="209.18"/>
<line x1="336.56" y1="509.39" x2="357.47" y2="463.40"/>
<line x1="744.01" y1="800.00" x2="800.00" y2="667.58"/>
<line x1="600.18" y1="580.45" x2="516.57" y2="572.12"/>
<line x1="734.46" y1="122.71" x2="686.14" y2="  0.00"/>
<line x1="561.42" y1="372.79" x2="688.12" y2="258.17"/>
<line x1="169.30" y1="214.48" x2="245.42" y2="189.12"/>
<line x1=" 33.18" y1="122.18" x2="  0.00" y2="103.09"/>
<line x1="147.49" y1="327.49" x2=" 96.54" y2="320.92"/>
<line x1="  0.00" y1="357.58" x2="202.33" y2="280.75"/>
<line x1="513.50" y1="633.90" x2="317.29" y2="624.43"/>
<line x1="551.65" y1="166.17" x2="521.01" y2="120.44"/>
<line x1="197.45" y1="279.18" x2="315.61" y2="242.28"/>
<line x1="284.99" y1="212.85" x2="394.77" y2="210.58"/>
<line x1="537.86" y1="226.08" x2="600.91" y2="187.95"/>
<line x1="148.70" y1="755.95" x2="284.23" y2="707.49"/>
<line x1="553.86" y1="151.10" x2="618.81" y2=" 51.61"/>
<line x1="621.84" y1="600.59" x2="562.10" y2="545.02"/>
<line x1="107.32" y1="266.63" x2="  0.00" y2="144.93"/>
<line x1="462.79" y1="295.87" x2="305.68" y2=" 94.33"/>
<line x1="145.97" y1="515.99" x2="328.97" y2="514.09"/>
<line x1="122.66" y1="380.81" x2="182.37" y2="311.74"/>
<line x1="267.60" y1="514.73" x2="187.48" y2="448.57"/>
<line x1=" 51.47" y1="800.00" x2=" 45.17" y2="699.10"/>
<line x1=" 25.16" y1="160.55" x2=" 47.12" y2=" 55.51"/>
<line x1="102.71" y1="227.16" x2="145.08" y2="212.06"/>
<line x1="111.03" y1="723.99" x2="  9.99" y2="678.39"/>
</g>
</svg>
