<?xml version="1.0" encoding="UTF-8" standalone="no"?>
<svg xmlns="http://www.w3.org/2000/svg" version="1.0" width="800" height="800" id="girlbert">
<g style="stroke:#000000;stroke-width:2;stroke-linecap:round;fill:none">
<line x1="776.41" y1="313.32" x2="776.41" y2="174.70"/>
<line x1="331.71" y1="531.95" x2="164.51" y2="531.95"/>
<line x1="627.05" y1="396.04" x2="389.82" y2="396.04"/>
<line x1="154.33" y1="175.51" x2="154.33" y2=" 28.25"/>
<line x1="572.96" y1="800.00" x2="572.96" y2="620.58"/>
<line x1="418.53" y1="239.07" x2="285.39" y2="239.07"/>
<line x1="  7.47" y1="758.34" x2="  7.47" y2="539.73"/>
<line x1="541.16" y1="396.04" x2="541.16" y2="365.62"/>
<line x1="795.77" y1="780.97" x2="795.77" y2="690.89"/>
<line x1="627.05" y1="365.62" x2="389.82" y2="365.62"/>
<line x1="696.88" y1="204.75" x2="537.61" y2="204.75"/>
<line x1="348.02" y1="593.41" x2="169.67" y2="593.41"/>
<line x1="491.49" y1="800.00" x2="491.49" y2="587.49"/>
<line x1="537.61" y1="102.03" x2="417.36" y2="102.03"/>
<line x1=" 77.17" y1="525.85" x2="  0.00" y2="525.85"/>
<line x1="428.02" y1="284.19" x2="428.02" y2="102.03"/>
<line x1=" 90.58" y1="175.51" x2=" 90.58" y2=" 28.25"/>
<line x1="174.91" y1="175.51" x2=" 47.65" y2="175.51"/>
<line x1=" 93.12" y1="666.46" x2=" 93.12" y2="491.29"/>
<line x1=" 13.75" y1="525.85" x2=" 13.75" y2="354.98"/>
<line x1=" 43.95" y1="734.15" x2=" 43.95" y2="539.73"/>
<line x1="782.46" y1="174.70" x2="782.46" y2="  0.00"/>
<line x1=" 95.82" y1="175.51" x2=" 95.82" y2=" 28.25"/>
<line x1="417.36" y1="239.07" x2="417.36" y2=" 89.05"/>
<line x1="618.75" y1="800.00" x2="618.75" y2="620.58"/>
<line x1="800.00" y1="365.65" x2="639.22" y2="365.65"/>
<line x1="223.61" y1="224.12" x2=" 99.33" y2="224.12"/>
<line x1="348.66" y1="234.97" x2="348.66" y2=" 23.65"/>
<line x1="419.95" y1=" 89.05" x2="419.95" y2="  0.00"/>
<line x1="800.00" y1="212.54" x2="776.41" y2="212.54"/>
<line x1="456.28" y1="444.38" x2="332.08" y2="444.38"/>
<line x1="747.46" y1="365.65" x2="747.46" y2="174.70"/>
<line x1="174.91" y1="203.75" x2="174.91" y2="  0.00"/>
<line x1="800.00" y1=" 62.37" x2="782.46" y2=" 62.37"/>
<line x1="164.51" y1="666.46" x2=" 43.95" y2="666.46"/>
<line x1="164.31" y1="  7.77" x2="  0.00" y2="  7.77"/>
<line x1="240.10" y1="234.97" x2="240.10" y2=" 65.22"/>
<line x1="348.02" y1="601.21" x2="169.67" y2="601.21"/>
<line x1="627.05" y1="399.57" x2="317.62" y2="399.57"/>
<line x1="113.07" y1="467.01" x2=" 13.75" y2="467.01"/>
<line x1="752.34" y1="752.70" x2="656.67" y2="752.70"/>
<line x1=" 46.74" y1="354.98" x2="  0.00" y2="354.98"/>
<line x1="752.34" y1="780.97" x2="752.34" y2="690.89"/>
<line x1="308.37" y1="710.75" x2="240.58" y2="710.75"/>
<line x1="326.24" y1=" 43.43" x2="192.21" y2=" 43.43"/>
<line x1="233.35" y1="573.99" x2="233.35" y2="531.95"/>
<line x1="698.33" y1=" 77.50" x2="698.33" y2="  0.00"/>
<line x1=" 89.75" y1="350.41" x2=" 89.75" y2="222.63"/>
<line x1="627.05" y1="448.96" x2="494.49" y2="448.96"/>
<line x1="800.00" y1="392.48" x2="639.22" y2="392.48"/>
<line x1="223.61" y1="222.63" x2=" 47.65" y2="222.63"/>
<line x1="706.72" y1="173.35" x2="706.72" y2=" 78.58"/>
<line x1="164.84" y1="175.51" x2="164.84" y2="  0.00"/>
<line x1="268.66" y1="303.31" x2="151.97" y2="303.31"/>
<line x1="746.04" y1="293.78" x2="746.04" y2="174.70"/>
<line x1="308.37" y1="767.80" x2="308.37" y2="601.21"/>
<line x1="261.31" y1="783.86" x2="130.54" y2="783.86"/>
<line x1="113.07" y1="491.29" x2=" 13.75" y2="491.29"/>
<line x1="669.30" y1="539.10" x2="669.30" y2="398.46"/>
<line x1="749.49" y1="752.70" x2="749.49" y2="583.31"/>
<line x1="481.52" y1="713.74" x2="308.37" y2="713.74"/>
<line x1=" 86.77" y1="800.00" x2=" 86.77" y2="753.48"/>
<line x1="575.25" y1=" 89.40" x2="575.25" y2=" 14.05"/>
<line x1="317.62" y1="432.29" x2="317.62" y2="285.71"/>
<line x1="728.78" y1="752.70" x2="728.78" y2="583.31"/>
<line x1="800.00" y1="398.46" x2="639.22" y2="398.46"/>
<line x1="358.60" y1="234.97" x2="358.60" y2="  6.03"/>
<line x1="638.68" y1="800.00" x2="638.68" y2="694.50"/>
<line x1="223.61" y1="255.08" x2="223.61" y2=" 65.22"/>
<line x1="575.26" y1="800.00" x2="575.26" y2="620.58"/>
<line x1="565.85" y1="204.75" x2="565.85" y2=" 14.05"/>
<line x1="522.85" y1="800.00" x2="522.85" y2="587.49"/>
<line x1="752.40" y1="174.70" x2="752.40" y2="  0.00"/>
<line x1=" 57.74" y1="734.15" x2=" 57.74" y2="672.11"/>
<line x1=" 86.12" y1="151.09" x2="  0.00" y2="151.09"/>
<line x1="772.72" y1="174.70" x2="772.72" y2="  0.00"/>
<line x1="456.28" y1="587.49" x2="456.28" y2="399.57"/>
<line x1="358.60" y1=" 23.65" x2="192.21" y2=" 23.65"/>
<line x1="268.66" y1="270.66" x2="151.97" y2="270.66"/>
<line x1="223.61" y1="213.34" x2=" 47.65" y2="213.34"/>
<line x1=" 77.17" y1="666.46" x2=" 77.17" y2="491.29"/>
<line x1="760.71" y1="499.13" x2="760.71" y2="398.46"/>
<line x1="159.42" y1="666.46" x2="159.42" y2="456.46"/>
<line x1="236.26" y1="778.17" x2="236.26" y2="601.21"/>
<line x1="800.00" y1="690.89" x2="749.49" y2="690.89"/>
<line x1=" 42.88" y1="734.15" x2=" 42.88" y2="539.73"/>
<line x1="130.54" y1="800.00" x2="130.54" y2="704.67"/>
<line x1="121.85" y1="666.46" x2="121.85" y2="224.12"/>
<line x1="777.50" y1="174.70" x2="777.50" y2="  0.00"/>
<line x1=" 90.58" y1="115.15" x2=" 25.46" y2="115.15"/>
<line x1="800.00" y1="174.70" x2="745.63" y2="174.70"/>
<line x1="647.11" y1="234.05" x2="498.09" y2="234.05"/>
<line x1="278.09" y1="234.97" x2="278.09" y2=" 65.22"/>
<line x1="382.69" y1="239.07" x2="382.69" y2="  6.03"/>
<line x1="782.17" y1="690.89" x2="782.17" y2="398.46"/>
<line x1="120.58" y1="753.48" x2="  7.47" y2="753.48"/>
<line x1="696.88" y1="293.78" x2="696.88" y2="173.35"/>
<line x1="634.14" y1="173.35" x2="634.14" y2="  0.00"/>
<line x1="681.94" y1="740.94" x2="681.94" y2="583.31"/>
<line x1="331.71" y1="526.66" x2="225.55" y2="526.66"/>
<line x1="575.69" y1=" 89.40" x2="575.69" y2=" 14.05"/>
<line x1="740.69" y1=" 78.58" x2="634.14" y2=" 78.58"/>
<line x1="455.78" y1="285.71" x2="285.39" y2="285.71"/>
<line x1="622.79" y1=" 89.40" x2="565.85" y2=" 89.40"/>
<line x1="222.88" y1="704.67" x2=" 57.74" y2="704.67"/>
<line x1="513.45" y1=" 48.04" x2="462.93" y2=" 48.04"/>
<line x1="192.21" y1="203.75" x2="192.21" y2="  0.00"/>
<line x1="544.83" y1="365.62" x2="544.83" y2="317.66"/>
<line x1="120.58" y1="734.15" x2="  7.47" y2="734.15"/>
<line x1="669.30" y1="495.90" x2="532.06" y2="495.90"/>
<line x1="120.58" y1="800.00" x2="120.58" y2="704.67"/>
<line x1="529.87" y1="317.66" x2="529.87" y2="282.96"/>
<line x1="740.69" y1=" 77.50" x2="634.14" y2=" 77.50"/>
<line x1="565.85" y1=" 28.13" x2="462.93" y2=" 28.13"/>
<line x1="557.28" y1="800.00" x2="557.28" y2="595.39"/>
<line x1="529.87" y1="301.35" x2="467.72" y2="301.35"/>
<line x1="349.71" y1="797.20" x2="349.71" y2="713.74"/>
<line x1="164.51" y1="704.67" x2="164.51" y2="456.46"/>
<line x1="782.17" y1="583.31" x2="532.06" y2="583.31"/>
<line x1="627.05" y1="412.91" x2="456.28" y2="412.91"/>
<line x1="647.11" y1="365.65" x2="647.11" y2="204.75"/>
<line x1=" 45.34" y1="666.46" x2=" 45.34" y2="525.85"/>
<line x1="121.85" y1="350.41" x2=" 46.74" y2="350.41"/>
<line x1=" 19.65" y1="354.98" x2=" 19.65" y2="151.09"/>
<line x1="418.53" y1="284.19" x2="418.53" y2="102.03"/>
<line x1="656.67" y1="800.00" x2="656.67" y2="740.94"/>
<line x1="268.66" y1="432.29" x2="268.66" y2="234.97"/>
<line x1="223.61" y1="223.57" x2=" 99.33" y2="223.57"/>
<line x1="672.15" y1="694.50" x2="618.75" y2="694.50"/>
<line x1="347.30" y1="800.00" x2="347.30" y2="713.74"/>
<line x1="183.89" y1="394.02" x2="183.89" y2="303.31"/>
<line x1="800.00" y1="313.32" x2="747.46" y2="313.32"/>
<line x1="422.91" y1="312.86" x2="317.62" y2="312.86"/>
<line x1="348.02" y1="661.95" x2="348.02" y2="464.52"/>
<line x1="513.45" y1=" 89.05" x2="382.69" y2=" 89.05"/>
<line x1="728.78" y1="740.94" x2="638.68" y2="740.94"/>
<line x1="204.25" y1="783.86" x2="204.25" y2="704.67"/>
<line x1=" 95.65" y1="666.46" x2=" 95.65" y2="491.29"/>
<line x1="455.78" y1="295.35" x2="317.62" y2="295.35"/>
<line x1="348.02" y1="532.02" x2="233.35" y2="532.02"/>
<line x1="672.15" y1="595.39" x2="532.06" y2="595.39"/>
<line x1="151.97" y1="394.02" x2="151.97" y2="224.12"/>
<line x1="459.60" y1="329.47" x2="422.91" y2="329.47"/>
<line x1="222.88" y1="778.17" x2="222.88" y2="601.21"/>
<line x1=" 86.64" y1="350.41" x2=" 86.64" y2="222.63"/>
<line x1="261.12" y1="394.02" x2="121.85" y2="394.02"/>
<line x1="306.92" y1="432.29" x2="306.92" y2="285.71"/>
<line x1="169.67" y1="704.67" x2="169.67" y2="531.95"/>
<line x1="541.16" y1="388.50" x2="389.82" y2="388.50"/>
<line x1="225.55" y1="531.95" x2="225.55" y2="456.46"/>
<line x1="326.24" y1=" 37.25" x2="192.21" y2=" 37.25"/>
<line x1="456.28" y1="432.29" x2="261.12" y2="432.29"/>
<line x1="745.63" y1="173.35" x2="565.85" y2="173.35"/>
<line x1="268.66" y1="255.08" x2="151.97" y2="255.08"/>
<line x1="423.02" y1="661.95" x2="308.37" y2="661.95"/>
<line x1="717.51" y1="293.78" x2="717.51" y2="233.44"/>
<line x1="634.14" y1=" 14.05" x2="462.93" y2=" 14.05"/>
<line x1="423.02" y1="713.74" x2="423.02" y2="501.95"/>
<line x1="332.08" y1="532.02" x2="332.08" y2="432.29"/>
<line x1="291.53" y1="519.68" x2="225.55" y2="519.68"/>
<line x1="268.66" y1="258.94" x2="151.97" y2="258.94"/>
<line x1="347.30" y1="767.80" x2="266.88" y2="767.80"/>
<line x1="498.09" y1="282.96" x2="498.09" y2="102.03"/>
<line x1="308.37" y1="715.19" x2="240.58" y2="715.19"/>
<line x1="268.66" y1="292.88" x2="151.97" y2="292.88"/>
<line x1="422.91" y1="363.30" x2="422.91" y2="302.26"/>
<line x1="631.30" y1="800.00" x2="631.30" y2="694.50"/>
<line x1="291.53" y1="505.87" x2="225.55" y2="505.87"/>
<line x1="752.40" y1=" 31.08" x2="698.33" y2=" 31.08"/>
<line x1="261.12" y1="359.19" x2="183.89" y2="359.19"/>
<line x1="782.17" y1="499.13" x2="669.30" y2="499.13"/>
<line x1="459.60" y1="363.30" x2="459.60" y2="217.24"/>
<line x1="513.45" y1="102.03" x2="513.45" y2=" 28.13"/>
<line x1="299.62" y1="432.29" x2="299.62" y2="285.71"/>
<line x1="672.15" y1="620.58" x2="557.28" y2="620.58"/>
<line x1="308.37" y1="717.15" x2="240.58" y2="717.15"/>
<line x1="467.72" y1="363.30" x2="467.72" y2="217.24"/>
<line x1="672.15" y1="740.94" x2="672.15" y2="583.31"/>
<line x1="782.17" y1="539.10" x2="532.06" y2="539.10"/>
<line x1="800.00" y1="780.97" x2="656.67" y2="780.97"/>
<line x1="261.12" y1="505.87" x2="261.12" y2="303.31"/>
<line x1="164.51" y1="672.11" x2=" 43.95" y2="672.11"/>
<line x1="261.12" y1="407.13" x2="121.85" y2="407.13"/>
<line x1="331.71" y1="532.02" x2="331.71" y2="432.29"/>
<line x1="627.05" y1="330.30" x2="544.83" y2="330.30"/>
<line x1="544.83" y1="363.30" x2="389.82" y2="363.30"/>
<line x1=" 36.69" y1="354.98" x2=" 36.69" y2="151.09"/>
<line x1="498.09" y1="217.24" x2="428.02" y2="217.24"/>
<line x1="196.60" y1="359.19" x2="196.60" y2="303.31"/>
<line x1="532.06" y1="587.49" x2="423.02" y2="587.49"/>
<line x1=" 25.46" y1="151.09" x2=" 25.46" y2=" 28.25"/>
<line x1="532.06" y1="800.00" x2="532.06" y2="448.96"/>
<line x1="382.69" y1="234.97" x2="223.61" y2="234.97"/>
<line x1=" 49.93" y1="734.15" x2=" 49.93" y2="672.11"/>
<line x1="747.46" y1="293.78" x2="665.37" y2="293.78"/>
<line x1="407.78" y1="464.52" x2="407.78" y2="444.38"/>
<line x1="665.37" y1="365.65" x2="665.37" y2="204.75"/>
<line x1="745.63" y1="233.44" x2="745.63" y2=" 31.08"/>
<line x1="484.71" y1="217.24" x2="484.71" y2="102.03"/>
<line x1="455.78" y1="284.19" x2="285.39" y2="284.19"/>
<line x1="481.52" y1="797.20" x2="347.30" y2="797.20"/>
<line x1="547.03" y1="448.96" x2="547.03" y2="412.91"/>
<line x1="455.78" y1="329.47" x2="455.78" y2="217.24"/>
<line x1="266.88" y1="800.00" x2="266.88" y2="717.15"/>
<line x1="782.17" y1="547.77" x2="532.06" y2="547.77"/>
<line x1="455.78" y1="302.26" x2="317.62" y2="302.26"/>
<line x1="164.31" y1="175.51" x2="164.31" y2="  0.00"/>
<line x1="746.04" y1="233.44" x2="696.88" y2="233.44"/>
<line x1="164.31" y1=" 28.25" x2="  0.00" y2=" 28.25"/>
<line x1="537.61" y1="234.05" x2="537.61" y2=" 28.13"/>
<line x1="419.95" y1="  6.03" x2="192.21" y2="  6.03"/>
<line x1="513.45" y1=" 58.86" x2="462.93" y2=" 58.86"/>
<line x1="494.70" y1="217.24" x2="494.70" y2="102.03"/>
<line x1="348.66" y1="105.52" x2="278.09" y2="105.52"/>
<line x1="701.03" y1="740.94" x2="701.03" y2="583.31"/>
<line x1="291.53" y1="526.66" x2="291.53" y2="432.29"/>
<line x1="261.12" y1="456.46" x2="121.85" y2="456.46"/>
<line x1="422.91" y1="325.35" x2="317.62" y2="325.35"/>
<line x1="312.91" y1="432.29" x2="312.91" y2="285.71"/>
<line x1="782.18" y1="690.89" x2="782.18" y2="398.46"/>
<line x1="647.11" y1="282.96" x2="467.72" y2="282.96"/>
<line x1=" 86.12" y1="175.51" x2=" 86.12" y2="115.15"/>
<line x1="481.52" y1="754.97" x2="349.71" y2="754.97"/>
<line x1="481.52" y1="800.00" x2="481.52" y2="587.49"/>
<line x1="494.49" y1="587.49" x2="494.49" y2="412.91"/>
<line x1="627.05" y1="495.90" x2="627.05" y2="282.96"/>
<line x1="456.28" y1="501.95" x2="348.02" y2="501.95"/>
<line x1="462.93" y1=" 89.05" x2="462.93" y2="  0.00"/>
<line x1="623.52" y1="173.35" x2="623.52" y2=" 14.05"/>
<line x1="627.05" y1="317.66" x2="467.72" y2="317.66"/>
<line x1=" 45.34" y1="539.73" x2="  0.00" y2="539.73"/>
<line x1="639.22" y1="495.90" x2="639.22" y2="282.96"/>
<line x1=" 47.65" y1="350.41" x2=" 47.65" y2="151.09"/>
<line x1="240.58" y1="778.17" x2="240.58" y2="601.21"/>
<line x1="669.30" y1="516.32" x2="532.06" y2="516.32"/>
<line x1=" 46.74" y1="467.01" x2=" 46.74" y2="151.09"/>
<line x1=" 99.33" y1="350.41" x2=" 99.33" y2="222.63"/>
<line x1="456.28" y1="464.52" x2="332.08" y2="464.52"/>
<line x1=" 86.77" y1="798.08" x2="  0.00" y2="798.08"/>
<line x1="113.07" y1="666.46" x2="113.07" y2="350.41"/>
<line x1="223.61" y1="203.75" x2=" 47.65" y2="203.75"/>
<line x1="348.02" y1="573.99" x2="169.67" y2="573.99"/>
<line x1="261.31" y1="778.17" x2="204.25" y2="778.17"/>
<line x1="285.39" y1="432.29" x2="285.39" y2="234.97"/>
<line x1="211.25" y1="203.75" x2="211.25" y2=" 65.22"/>
<line x1="261.31" y1="800.00" x2="261.31" y2="717.15"/>
<line x1=" 65.09" y1="666.46" x2=" 65.09" y2="525.85"/>
<line x1="740.69" y1="173.35" x2="740.69" y2=" 31.08"/>
<line x1="408.66" y1="661.95" x2="408.66" y2="501.95"/>
<line x1="326.24" y1=" 65.22" x2="192.21" y2=" 65.22"/>
<line x1="622.79" y1="173.35" x2="622.79" y2=" 14.05"/>
<line x1=" 86.77" y1="758.34" x2="  0.00" y2="758.34"/>
<line x1="790.35" y1="690.89" x2="790.35" y2="398.46"/>
<line x1="326.24" y1="105.52" x2="326.24" y2=" 23.65"/>
<line x1="268.66" y1="273.90" x2="151.97" y2="273.90"/>
<line x1="389.82" y1="399.57" x2="389.82" y2="325.35"/>
</g>
</svg>
