<svg xmlns="http://www.w3.org/2000/svg" width="684" height="684">
    <path d="M578.496 578.496L105.504 105.504M493.84 43.997L672.339 394.32m-32.336 99.52L289.68 11.662m-99.52 628.341L11.661 289.68m32.336-99.52L394.32 672.338" fill="none" stroke="#0081CD" stroke-width="2"/>
    <path d="M190.16 43.997L11.661 394.32m32.336 99.52L394.32 11.662m99.52 628.341L672.339 289.68m-32.336-99.52L289.68 672.338m288.816-566.834L105.504 578.496" fill="none" stroke="#FFF" stroke-width="12"/>
    <path d="M493.84 640.003l-99.52 32.336M640.003 493.84l-61.507 84.656m93.843-288.816v104.64m-93.843-288.816l61.507 84.656M394.32 11.662l99.52 32.335m-303.68 0l99.52-32.335M43.997 190.16l61.507-84.656M11.662 394.32V289.68m93.842 288.816L43.997 493.84M289.68 672.339l-99.52-32.336" fill="none" stroke="#FEC200" stroke-width="2"/>
    <path d="M394.32 672.339H289.68m288.816-93.843l-84.656 61.507M672.339 394.32l-32.336 99.52m0-303.68l32.336 99.52M493.84 43.997l84.656 61.507M289.68 11.662h104.64m-288.816 93.842l84.656-61.507M11.662 289.68l32.335-99.52m0 303.68l-32.335-99.52M190.16 640.003l-84.656-61.507" fill="none" stroke="#BC1E47" stroke-width="2"/>
    <path fill="none" stroke="#0081CD" stroke-width="2" d="M105.504 578.496l472.992-472.992M190.16 43.997L11.661 394.32m32.336 99.52L394.32 11.662m99.52 628.341L672.339 289.68m-32.336-99.52L289.68 672.338m288.816-566.834L105.504 578.496"/>
    <g fill="#FFF" stroke="#000">
        <circle cx="190.16" cy="43.997" r="9"/>
        <circle cx="289.68" cy="11.662" r="9"/>
        <circle cx="394.32" cy="11.662" r="9"/>
        <circle cx="493.84" cy="43.997" r="9"/>
        <circle cx="578.496" cy="105.504" r="9"/>
        <circle cx="640.003" cy="190.16" r="9"/>
        <circle cx="672.339" cy="289.68" r="9"/>
        <circle cx="672.339" cy="394.32" r="9"/>
        <circle cx="640.003" cy="493.84" r="9"/>
        <circle cx="578.496" cy="578.496" r="9"/>
        <circle cx="493.84" cy="640.003" r="9"/>
        <circle cx="394.32" cy="672.338" r="9"/>
        <circle cx="289.68" cy="672.338" r="9"/>
        <circle cx="190.16" cy="640.003" r="9"/>
        <circle cx="105.504" cy="578.496" r="9"/>
        <circle cx="43.997" cy="493.84" r="9"/>
        <circle cx="11.662" cy="394.32" r="9"/>
        <circle cx="11.662" cy="289.68" r="9"/>
        <circle cx="43.997" cy="190.16" r="9"/>
        <circle cx="105.504" cy="105.504" r="9"/>
    </g>
</svg>
