<svg xmlns="http://www.w3.org/2000/svg" width="556" height="405" viewBox="-10.311 -9.781 556 405">
    <g fill="#FEC200" stroke="#000">
        <path d="M274.574 227.342l32.434-15.623 32.435 15.616 8.014 35.097-22.445 28.146h-36l-22.45-28.142 8.004-35.1m64.883 126.476l-32.433 15.626-32.436-15.618-8.013-35.095 22.445-28.147h36l22.45 28.143-8.006 35.099m11.228-223.711l32.432-15.624 32.436 15.617 8.013 35.096-22.445 28.146h-36l-22.45-28.143 8.006-35.099"/>
        <path d="M415.558 256.58l-32.434 15.623-32.436-15.617-8.012-35.096 22.444-28.146h36l22.45 28.142-8.006 35.1m-64.873 67.242l32.433-15.625 32.436 15.617 8.013 35.096-22.445 28.146h-36l-22.45-28.142 8.006-35.1"/>
        <path d="M415.565 450.299l-32.433 15.623-32.437-15.617-8.011-35.096 22.444-28.147h36l22.45 28.143-8.006 35.1m11.272-222.963l32.432-15.623 32.436 15.616 8.014 35.097-22.446 28.146h-36l-22.45-28.142 8.006-35.1m64.882 126.476l-32.434 15.626-32.435-15.618-8.013-35.095 22.444-28.147h36l22.45 28.143-8.005 35.099m12.227-223.711l32.433-15.624 32.435 15.617 8.014 35.096-22.445 28.146h-36l-22.451-28.143 8.006-35.099"/>
        <path d="M568.826 256.58l-32.433 15.623-32.436-15.617-8.013-35.096 22.445-28.146h36l22.45 28.142-8.006 35.1m-64.873 67.242l32.433-15.625 32.435 15.617 8.014 35.096-22.446 28.146h-36l-22.45-28.142 8.006-35.1m64.882 126.479L536.4 465.922l-32.435-15.617-8.013-35.096 22.444-28.147h36l22.451 28.143-8.006 35.1M-32.425 227.342L.008 211.719l32.435 15.616 8.014 35.097-22.445 28.146h-36l-22.45-28.142 8.005-35.1m64.882 126.476L.016 369.438-32.42 353.82l-8.013-35.095 22.445-28.147h36l22.45 28.143-8.006 35.099m12.228-223.711l32.432-15.624 32.436 15.617 8.013 35.096-22.445 28.146h-36l-22.45-28.143 8.006-35.099"/>
        <path d="M109.558 256.58l-32.434 15.623-32.436-15.617-8.012-35.096 22.444-28.146h36l22.45 28.142-8.006 35.1m-64.873 67.242l32.433-15.625 32.436 15.617 8.013 35.096-22.445 28.146h-36l-22.45-28.142 8.006-35.1"/>
        <path d="M109.565 450.299l-32.433 15.623-32.436-15.617-8.012-35.096 22.444-28.147h36l22.45 28.143-8.006 35.1m11.272-222.963l32.432-15.623 32.436 15.616 8.014 35.097-22.446 28.146h-36l-22.45-28.142 8.006-35.1m64.882 126.476l-32.434 15.626-32.435-15.618-8.013-35.095 22.444-28.147h36l22.45 28.143-8.005 35.099m12.227-223.711l32.433-15.624 32.435 15.617 8.014 35.096-22.445 28.146h-36l-22.451-28.143 8.006-35.099"/>
        <path d="M262.826 256.58l-32.433 15.623-32.436-15.617-8.013-35.096 22.445-28.146h36l22.45 28.142-8.006 35.1m11.733-222.962L307 18l32.436 15.616 8.013 35.096-22.445 28.147h-36l-22.45-28.143 8.007-35.099m64.88 126.477l-32.433 15.624-32.436-15.617-8.013-35.096 22.445-28.146h36l22.45 28.142-8.006 35.1M350.676-63.61l32.431-15.624 32.437 15.617 8.014 35.096L401.112-.375h-36.001l-22.449-28.143 8.006-35.099"/>
        <path d="M415.55 62.861l-32.434 15.624-32.434-15.617-8.014-35.096L365.111-.375h36.001l22.45 28.143-8.005 35.1m11.279-29.244L459.269 18l32.435 15.616 8.014 35.096-22.446 28.147h-36l-22.45-28.143 8.006-35.099m64.882 126.477l-32.434 15.624-32.435-15.617-8.013-35.096 22.444-28.146h36l22.451 28.142-8.006 35.1M503.944-63.61l32.433-15.624 32.435 15.617 8.014 35.096L554.381-.375h-36l-22.45-28.143 8.007-35.099"/>
        <path d="M568.818 62.861l-32.433 15.624-32.436-15.617-8.011-35.096L518.381-.375h36l22.45 28.143-8.006 35.1M-32.433 33.624L0 18l32.436 15.616 8.013 35.096-22.445 28.147h-36l-22.45-28.143 8.006-35.099m64.881 126.477L.008 175.718l-32.436-15.617-8.013-35.096 22.445-28.146h36l22.45 28.142-8.006 35.1M44.676-63.61l32.432-15.624 32.436 15.617 8.014 35.096L95.112-.375h-36l-22.45-28.143 8.006-35.099"/>
        <path d="M109.55 62.861L77.116 78.485 44.681 62.868l-8.013-35.096L59.112-.375h36l22.45 28.143-8.005 35.1m11.279-29.244L153.269 18l32.435 15.616 8.014 35.096-22.446 28.147h-36l-22.45-28.143 8.006-35.099m64.882 126.477l-32.434 15.624-32.435-15.617-8.013-35.096 22.444-28.146h36l22.451 28.142-8.006 35.1M197.944-63.61l32.433-15.624 32.435 15.617 8.014 35.096L248.381-.375h-36l-22.45-28.143 8.006-35.099"/>
        <path d="M262.818 62.861l-32.433 15.624-32.436-15.617-8.012-35.096L212.381-.375h36l22.45 28.143-8.006 35.1m-64.865 260.96l32.433-15.625 32.435 15.617 8.014 35.096-22.446 28.146h-36l-22.45-28.142 8.006-35.1m64.882 126.479L230.4 465.922l-32.435-15.617-8.013-35.096 22.444-28.147h36l22.452 28.143-8.007 35.1"/>
    </g>
    <g fill="#0081CD" stroke="#000">
        <path d="M327.727 290.203l21.159-29.124 34.238 11.124v36l-34.237 11.125zm110.794 0l-21.159 29.125-34.238-11.125v-36l34.237-11.123zM251.61 193.718l21.16-29.124 34.238 11.124v36.001l-34.237 11.123z"/>
        <path d="M362.404 193.718l-21.158 29.126-34.238-11.125v-36.001l34.237-11.124zm-110.786 193.72l21.159-29.126 34.239 11.126v36l-34.239 11.123zm110.795 0l-21.159 29.124-34.238-11.124v-36l34.237-11.126zm118.582-97.235l21.159-29.124 34.239 11.124v36l-34.238 11.125zm110.795 0l-21.159 29.125-34.238-11.125v-36l34.237-11.123zm-187.911-96.485l21.159-29.124 34.238 11.124v36.001l-34.237 11.123zm110.795 0l-21.159 29.126-34.239-11.125v-36.001l34.238-11.124zm-110.787 193.72l21.159-29.126 34.238 11.126v36l-34.237 11.123zm110.795 0l-21.16 29.124-34.238-11.124v-36l34.237-11.126zM21.727 290.203l21.159-29.124 34.238 11.124v36l-34.237 11.125zm110.794 0l-21.159 29.125-34.238-11.125v-36l34.237-11.123zM-55.39 193.718l21.16-29.124L.008 175.718v36.001l-34.237 11.123zm110.795 0l-21.159 29.126L.008 211.719v-36.001l34.237-11.124zm-110.787 193.72l21.159-29.126L.016 369.438v36l-34.238 11.123zm110.795 0l-21.159 29.124L.016 405.438v-36l34.237-11.126zm119.582-97.235l21.159-29.124 34.239 11.124v36l-34.238 11.125zm110.795 0l-21.159 29.125-34.238-11.125v-36l34.237-11.123zM97.879 193.718l21.159-29.124 34.238 11.124v36.001l-34.237 11.123zm110.795 0l-21.159 29.126-34.239-11.125v-36.001l34.238-11.124zM97.887 387.438l21.159-29.126 34.238 11.126v36l-34.237 11.123zm110.795 0l-21.16 29.124-34.238-11.124v-36l34.237-11.126zM327.719 96.485l21.159-29.125 34.238 11.125v36l-34.237 11.124zm110.795 0l-21.16 29.125-34.238-11.125v-36l34.238-11.124zM251.603 0l21.159-29.125L307-18v36l-34.236 11.124zm110.793 0l-21.158 29.125L307 18v-36l34.236-11.125zm118.591 96.485l21.159-29.125 34.239 11.125v36l-34.238 11.124zm110.795 0l-21.159 29.125-34.238-11.125v-36l34.237-11.124zM403.871 0l21.159-29.125L459.269-18v36l-34.238 11.124zm110.795 0l-21.159 29.125L459.269 18v-36l34.237-11.125zM21.719 96.485L42.878 67.36l34.238 11.125v36l-34.237 11.124zm110.795 0l-21.16 29.125-34.238-11.125v-36l34.238-11.124zM-55.397 0l21.159-29.125L0-18v36l-34.237 11.124zM55.397 0L34.238 29.125 0 18v-36l34.237-11.125zm119.59 96.485l21.159-29.125 34.239 11.125v36l-34.238 11.124zm110.795 0l-21.159 29.125-34.238-11.125v-36l34.237-11.124zM97.871 0l21.159-29.125L153.269-18v36l-34.238 11.124zm110.795 0l-21.159 29.125L153.269 18v-36l34.237-11.125z"/>
    </g>
</svg>
