<svg xmlns="http://www.w3.org/2000/svg" width="515.646" height="522.449">
    <g fill="none" stroke="#BC1E47" stroke-width="8">
        <path d="M361.186 261.904c0 54.678-47.854 94.063-102.532 94.063-54.677 0-99.002-44.324-99.002-99.002 0-54.677 44.325-99.002 99.002-99.002 54.677.001 102.532 49.264 102.532 103.941z"/>
        <path d="M102.918 347.226c53.839 80.886 277.476 89.843 311.62-.258 47.75-126.002-56.883-219.077-155.736-215.743-128.117 4.32-210.863 133.403-155.884 216.001z"/>
    </g>
    <g fill="none" stroke="#0081CD" stroke-width="8">
        <path d="M451.347 256.966c0 106.422-86.271 192.693-192.693 192.693-90.136 0-192.693-89.277-192.693-192.693 0-106.421 88.037-181.796 194.458-181.796 106.422 0 190.928 75.374 190.928 181.796z"/>
        <path d="M258.802 142.857c118.042-2.593 188.768 116.966 145.094 197.965-46.432 86.113-205.656 47.15-241.525-28.269-35.412-74.455 3.532-167.656 96.431-169.696z"/>
    </g>
    <g fill="none" stroke="#000" stroke-width="2">
        <path d="M258.654 76.965c-69.431-62.311-134.966 53.675-218.238 54.001m217.938-54.001c69.431-62.311 134.965 53.675 218.239 54.001m-373.825 216c-19.247 91.285 113.967 90.047 155.886 162m-155.736-161.74c-88.679-28.974-20.999-143.721-62.354-216.001m373.974 215.743c88.68-28.975 21-143.723 62.354-216.002m-62.204 215.741c19.247 91.285-113.967 90.046-155.886 162.001m-31.325-269.742c-40.401-53.252 31.177-90.001 31.177-90.001s71.353 36 31.176 90m-31.176 54.001c-25.917 61.615-93.532 18-93.532 18s-4.499-79.793 62.354-72"/>
        <path d="M289.83 238.966c66.319-8.363 62.354 72.001 62.354 72.001s-66.853 43.792-93.531-18.001m93.532 18.001l62.354 36m-249.417-36.001l-62.354 36m155.886-198.001v-72"/>
        <circle cx="258.654" cy="256.966" r="252"/>
        <circle cx="258.654" cy="256.966" r="180"/>
        <circle cx="258.654" cy="256.966" r="108"/>
        <circle cx="258.654" cy="256.966" r="36"/>
    </g>
    <g fill="#FEC200" stroke="#000">
        <circle cx="258.654" cy="292.966" r="9"/>
        <circle cx="258.654" cy="148.965" r="9"/>
        <circle cx="258.654" cy="76.965" r="9"/>
        <circle cx="258.654" cy="508.966" r="9"/>
        <circle cx="289.83" cy="238.966" r="9.001"/>
        <circle cx="165.122" cy="310.966" r="9"/>
        <circle cx="102.769" cy="346.966" r="9"/>
        <circle cx="476.892" cy="130.966" r="9.001"/>
        <circle cx="227.477" cy="238.966" r="9.001"/>
        <circle cx="352.185" cy="310.967" r="9"/>
        <circle cx="414.539" cy="346.966" r="9"/>
        <circle cx="40.415" cy="130.966" r="9.001"/>
    </g>
</svg>
