<svg xmlns="http://www.w3.org/2000/svg" width="666" height="666">
    <g fill="none" stroke="#0081CD">
        <path d="M9 9h648v648H9zm0 108h648M9 225h648M9 333h648M9 441h648M9 549h648"/>
        <path d="M9 9h648v648H9zm108 648V9m108 648V9m108 648V9m108 648V9m108 648V9"/>
    </g>
    <path d="M63 630V45m108 0v99m108-54v540M387 45v45m108-45v207m0 54v207m0 72v45M161 261v144m442 0V189s27-18 27-45-27-63-27-63m0 387v162m-216-9v-36m0-72V306M198 630V513m0-36V360m216-99c0-63-9-99-45-117m45-63c0 63-9 99-45 117M603 36v45l-27 63M99 414V261m252 252v-99" fill="none" stroke="#000" stroke-width="3"/>
    <path d="M306 40.5c0 7.456-6.044 13.5-13.5 13.5h-243C42.044 54 36 47.956 36 40.5S42.044 27 49.5 27h243c7.456 0 13.5 6.044 13.5 13.5zm-216 45C90 92.956 83.956 99 76.5 99h-27C42.044 99 36 92.956 36 85.5S42.044 72 49.5 72h27C83.956 72 90 78.044 90 85.5zm432 0c0 7.456-6.044 13.5-13.5 13.5h-351c-7.456 0-13.5-6.044-13.5-13.5S150.044 72 157.5 72h351c7.456 0 13.5 6.044 13.5 13.5zm-108-45c0 7.456-6.044 13.5-13.5 13.5h-27c-7.456 0-13.5-6.044-13.5-13.5S366.044 27 373.5 27h27c7.456 0 13.5 6.044 13.5 13.5zm216 0c0 7.456-6.044 13.5-13.5 13.5h-135c-7.456 0-13.5-6.044-13.5-13.5S474.044 27 481.5 27h135c7.456 0 13.5 6.044 13.5 13.5zm0 45c0 7.456-6.044 13.5-13.5 13.5h-27c-7.456 0-13.5-6.044-13.5-13.5S582.044 72 589.5 72h27c7.456 0 13.5 6.044 13.5 13.5zm-432 63c0 7.456-6.044 13.5-13.5 13.5h-135c-7.456 0-13.5-6.044-13.5-13.5S42.044 135 49.5 135h135c7.456 0 13.5 6.044 13.5 13.5zm0 45c0 7.456-6.044 13.5-13.5 13.5h-135c-7.456 0-13.5-6.044-13.5-13.5S42.044 180 49.5 180h135c7.456 0 13.5 6.044 13.5 13.5zm189-45c0 7.456-6.044 13.5-13.5 13.5h-108c-7.456 0-13.5-6.044-13.5-13.5s6.044-13.5 13.5-13.5h108c7.456 0 13.5 6.044 13.5 13.5zm0 45c0 7.456-6.044 13.5-13.5 13.5h-108c-7.456 0-13.5-6.044-13.5-13.5s6.044-13.5 13.5-13.5h108c7.456 0 13.5 6.044 13.5 13.5zm216-45c0 7.456-6.044 13.5-13.5 13.5h-108c-7.456 0-13.5-6.044-13.5-13.5s6.044-13.5 13.5-13.5h108c7.456 0 13.5 6.044 13.5 13.5zm27 45c0 7.456-6.044 13.5-13.5 13.5h-135c-7.456 0-13.5-6.044-13.5-13.5s6.044-13.5 13.5-13.5h135c7.456 0 13.5 6.044 13.5 13.5zm-108 63c0 7.456-6.044 13.5-13.5 13.5h-459c-7.456 0-13.5-6.044-13.5-13.5S42.044 243 49.5 243h459c7.456 0 13.5 6.044 13.5 13.5zm108 45c0 7.456-6.044 13.5-13.5 13.5h-351c-7.456 0-13.5-6.044-13.5-13.5s6.044-13.5 13.5-13.5h351c7.456 0 13.5 6.044 13.5 13.5zm-549 63c0 7.456-6.044 13.5-13.5 13.5h-18c-7.456 0-13.5-6.044-13.5-13.5S42.044 351 49.5 351h18c7.456 0 13.5 6.044 13.5 13.5zm103.5 45c0 7.456-6.044 13.5-13.5 13.5H49.5c-7.456 0-13.5-6.044-13.5-13.5S42.044 396 49.5 396H171c7.456 0 13.5 6.044 13.5 13.5zm229.5 0c0 7.456-6.044 13.5-13.5 13.5h-135c-7.456 0-13.5-6.044-13.5-13.5s6.044-13.5 13.5-13.5h135c7.456 0 13.5 6.044 13.5 13.5zm108-45c0 7.456-6.044 13.5-13.5 13.5h-135c-7.456 0-13.5-6.044-13.5-13.5s6.044-13.5 13.5-13.5h135c7.456 0 13.5 6.044 13.5 13.5zm108 45c0 7.456-6.044 13.5-13.5 13.5h-144c-7.456 0-13.5-6.044-13.5-13.5s6.044-13.5 13.5-13.5h144c7.456 0 13.5 6.044 13.5 13.5zm0-45c0 7.456-6.044 13.5-13.5 13.5h-27c-7.456 0-13.5-6.044-13.5-13.5s6.044-13.5 13.5-13.5h27c7.456 0 13.5 6.044 13.5 13.5zm-324 108c0 7.456-6.044 13.5-13.5 13.5h-243c-7.456 0-13.5-6.044-13.5-13.5S42.044 459 49.5 459h243c7.456 0 13.5 6.044 13.5 13.5zm216 45c0 7.456-6.044 13.5-13.5 13.5h-351c-7.456 0-13.5-6.044-13.5-13.5s6.044-13.5 13.5-13.5h351c7.456 0 13.5 6.044 13.5 13.5zm-99-45c0 7.456-6.044 13.5-13.5 13.5h-27c-7.456 0-13.5-6.044-13.5-13.5s6.044-13.5 13.5-13.5h27c7.456 0 13.5 6.044 13.5 13.5zm207 0c0 7.456-6.044 13.5-13.5 13.5h-135c-7.456 0-13.5-6.044-13.5-13.5s6.044-13.5 13.5-13.5h135c7.456 0 13.5 6.044 13.5 13.5zm-450 108c0 7.456-6.044 13.5-13.5 13.5h-117c-7.456 0-13.5-6.044-13.5-13.5S42.044 567 49.5 567h117c7.456 0 13.5 6.044 13.5 13.5zm126 45c0 7.456-6.044 13.5-13.5 13.5h-243c-7.456 0-13.5-6.044-13.5-13.5S42.044 612 49.5 612h243c7.456 0 13.5 6.044 13.5 13.5zm216-45c0 7.456-6.044 13.5-13.5 13.5h-243c-7.456 0-13.5-6.044-13.5-13.5s6.044-13.5 13.5-13.5h243c7.456 0 13.5 6.044 13.5 13.5zm-108 45c0 7.456-6.044 13.5-13.5 13.5h-27c-7.456 0-13.5-6.044-13.5-13.5s6.044-13.5 13.5-13.5h27c7.456 0 13.5 6.044 13.5 13.5zm216-45c0 7.456-6.044 13.5-13.5 13.5h-27c-7.456 0-13.5-6.044-13.5-13.5s6.044-13.5 13.5-13.5h27c7.456 0 13.5 6.044 13.5 13.5zm0 45c0 7.456-6.044 13.5-13.5 13.5h-135c-7.456 0-13.5-6.044-13.5-13.5s6.044-13.5 13.5-13.5h135c7.456 0 13.5 6.044 13.5 13.5zm-324-261c0 7.456-6.044 13.5-13.5 13.5h-135c-7.456 0-13.5-6.044-13.5-13.5s6.044-13.5 13.5-13.5h135c7.456 0 13.5 6.044 13.5 13.5z" fill="#FEC200" stroke="#000"/>
</svg>
