<svg xmlns="http://www.w3.org/2000/svg" width="445.807" height="438.064">
    <g fill="none" stroke="#000">
        <path d="M154.816 399.336L66.331 348.25l-51.087-88.486V157.59l51.087-88.486 88.485-51.086H256.99l88.486 51.087 51.087 88.485v102.174l-51.087 88.486-88.486 51.087z"/>
        <path d="M345.476 69.105L205.903 208.677 256.99 18.018M396.563 157.59l-190.66 51.087"/>
        <path d="M66.331 69.105l139.572 139.572L15.244 157.59M154.816 18.017l51.087 190.66"/>
        <path d="M66.331 348.25l139.572-139.573-51.087 190.66M15.243 259.764l190.66-51.087"/>
        <path d="M345.476 348.25L205.903 208.677l190.66 51.087M256.99 399.337l-51.087-190.66"/>
    </g>
    <path fill="none" stroke="#BC1E47" stroke-width="6" d="M205.903 208.677s132.32-107.841 190.66-51.087 27.673 142.087-29.66 206.087-158.174 91.985-212.087 35.659 51.087-190.659 51.087-190.659z"/>
    <path fill="none" stroke="#0081CD" stroke-width="6" d="M205.903 208.677S198.41 36.358 256.99 18.017 358.236 2.344 400.903 91.011s54.653 126.173-4.34 168.753-190.66-51.087-190.66-51.087z"/>
    <g fill="#FEC200" stroke="#000">
        <circle cx="205.903" cy="208.677" r="9"/>
        <circle cx="154.816" cy="18.018" r="9"/>
        <circle cx="256.99" cy="18.018" r="9"/>
        <circle cx="345.476" cy="69.105" r="9"/>
        <circle cx="15.244" cy="259.764" r="9"/>
        <circle cx="15.244" cy="157.59" r="9"/>
        <circle cx="66.331" cy="69.105" r="9"/>
        <circle cx="256.99" cy="399.337" r="9"/>
        <circle cx="154.816" cy="399.337" r="9"/>
        <circle cx="66.331" cy="348.25" r="9"/>
        <circle cx="396.563" cy="157.59" r="9"/>
        <circle cx="396.563" cy="259.764" r="9"/>
        <circle cx="345.476" cy="348.25" r="9"/>
    </g>
</svg>
