<svg xmlns="http://www.w3.org/2000/svg" width="578" height="570">
    <g fill="#006837" stroke="#000">
        <path d="M273.896 230.91l-10.686-32.887 27.976-20.325 27.976 20.325-10.686 32.887zm-90.53 0l-10.686-32.887 27.975-20.325 27.976 20.325-10.686 32.887zm-10.685 139.313l-10.686-32.888 27.975-20.325 27.976 20.325-10.686 32.888z"/>
        <path d="M319.16 198.023l-10.685-32.887 27.974-20.325 27.977 20.325-10.686 32.887zm55.951 0l-10.685-32.887 27.974-20.325 27.977 20.325-10.686 32.887zm17.291 118.987l-10.685-32.887 27.974-20.326 27.977 20.326-10.686 32.887zM256.607 456.322l-10.685-32.886 27.974-20.327 27.977 20.327-10.685 32.886zM127.415 337.335l-10.686-32.887 27.975-20.326 27.976 20.326-10.685 32.887z"/>
        <path d="M110.127 284.122l-10.686-32.887 27.975-20.326 27.977 20.326-10.686 32.887zm90.528-106.424l-10.686-32.887 27.975-20.326 27.976 20.326-10.685 32.887zM92.836 230.909L82.15 198.022l27.975-20.326 27.977 20.326-10.686 32.887zm34.578-106.426l-10.685-32.886 27.974-20.326 27.977 20.326-10.686 32.886z"/>
        <path d="M172.679 91.597L161.993 58.71l27.975-20.326 27.976 20.326-10.685 32.887z"/>
        <path d="M217.942 58.71l-10.685-32.886 27.974-20.326 27.977 20.326-10.686 32.886zm73.244 53.214L280.5 79.037l27.975-20.326 27.976 20.326-10.685 32.887zm111.902 0l-10.686-32.887 27.975-20.326 27.977 20.326-10.686 32.887zm90.528 65.774l-10.685-32.887 27.974-20.326 27.977 20.326-10.686 32.887z"/>
        <path d="M448.352 144.811l-10.686-32.887 27.975-20.326 27.976 20.326-10.685 32.887zm17.291 118.986l-10.686-32.887 27.975-20.326 27.976 20.326-10.685 32.887z"/>
        <path d="M482.934 317.01l-10.686-32.887 27.975-20.326 27.976 20.326-10.685 32.887zm17.291 53.213l-10.686-32.887 27.975-20.326 27.976 20.326-10.685 32.887zm-17.291 53.213l-10.686-32.887 27.975-20.326 27.976 20.326-10.685 32.887z"/>
        <path d="M465.643 476.646l-10.686-32.887 27.975-20.326 27.976 20.326-10.685 32.887zM347.137 111.924l-10.686-32.887 27.975-20.326 27.976 20.326-10.685 32.887zm-237.012 65.772L99.439 144.81l27.975-20.327 27.977 20.327-10.686 32.886zm135.794-32.885l-10.685-32.887 27.974-20.326 27.978 20.326-10.686 32.887zm174.458 86.099l-10.686-32.887 27.975-20.326 27.977 20.326-10.686 32.887zm-27.975 192.524l-10.685-32.887 27.974-20.326 27.977 20.326-10.686 32.887zm-191.745 32.889l-10.685-32.886 27.974-20.327 27.977 20.327-10.686 32.886z"/>
        <path d="M409.693 370.223l-10.685-32.887 27.974-20.326 27.977 20.326-10.686 32.887zm-107.82 53.213l-10.685-32.888 27.974-20.325 27.977 20.325-10.686 32.888zm73.24 53.21l-10.685-32.887 27.974-20.325 27.977 20.325-10.686 32.887zm-146.482 65.776l-10.686-32.888 27.975-20.325 27.976 20.325-10.685 32.888zm-55.951 0l-10.686-32.888 27.975-20.325 27.976 20.325-10.685 32.888zm-27.974-86.098l-10.685-32.887 27.974-20.326 27.977 20.326-10.686 32.887zM36.884 337.336l-10.686-32.888 27.975-20.325 27.976 20.325-10.685 32.888zm17.291 53.213l-10.686-32.888 27.975-20.325 27.976 20.325-10.685 32.888zm-34.58-106.426L8.91 251.235l27.974-20.325 27.977 20.325-10.686 32.888zM99.44 423.437l-10.685-32.888 27.974-20.325 27.977 20.325-10.685 32.888zm185.142 118.985l-10.686-32.888 27.975-20.325 27.977 20.325-10.686 32.888z"/>
        <path d="M329.848 509.534l-10.686-32.888 27.975-20.325 27.976 20.325-10.685 32.888zm17.29-225.411l-10.687-32.888 27.976-20.325 27.976 20.325-10.686 32.888zm-27.976 86.1l-10.686-32.888 27.975-20.325 27.977 20.325-10.687 32.888zm-90.53 0l-10.687-32.888 27.976-20.325 27.976 20.325-10.686 32.888zm-27.976-86.1l-10.686-32.888 27.975-20.325 27.977 20.325-10.687 32.888z"/>
        <path d="M353.74 198.023l10.687 32.887-27.976 20.325-27.975-20.325 10.686-32.887zm27.975-86.1l10.686 32.888-27.975 20.325-27.976-20.325 10.687-32.888zM207.258 91.598l10.686 32.887-27.975 20.325-27.976-20.325 10.687-32.887z"/>
        <path d="M252.522 58.71l10.686 32.888-27.975 20.325-27.975-20.325 10.686-32.888zm27.978 86.101l10.686 32.887-27.976 20.325-27.975-20.325 10.686-32.887z"/>
        <path d="M297.787 25.823l10.686 32.887-27.974 20.326-27.977-20.326 10.687-32.887zm55.953.001l10.686 32.887-27.974 20.325-27.976-20.325 10.686-32.887zm55.95.001l10.686 32.887-27.974 20.325-27.976-20.325 10.686-32.887zm27.975 86.098l10.687 32.888-27.976 20.325-27.976-20.325 10.687-32.888zM545.487 230.91l10.687 32.887-27.976 20.325-27.975-20.325 10.686-32.887zm17.291 53.213l10.687 32.887-27.976 20.325-27.975-20.325 10.686-32.887zM454.957 443.759l10.687 32.887-27.976 20.326-27.976-20.326 10.687-32.887zm-45.266 32.887l10.687 32.888-27.976 20.325-27.975-20.325 10.686-32.888zm-45.265 32.888l10.686 32.888-27.975 20.325-27.976-20.325 10.687-32.888zm125.111-172.198l10.687 32.887-27.976 20.326-27.976-20.326 10.687-32.887zM291.188 456.322l10.686 32.887-27.976 20.326-27.975-20.326 10.686-32.887zm-174.46-151.874l10.687 32.887-27.976 20.326-27.976-20.326 10.687-32.887z"/>
        <path d="M99.439 251.235l10.686 32.887-27.975 20.326-27.976-20.326 10.687-32.887zM82.15 198.022l10.686 32.887-27.975 20.326-27.976-20.326 10.687-32.887zm17.288-53.212l10.687 32.886-27.976 20.326-27.975-20.326L64.86 144.81zm17.29-53.213l10.686 32.886-27.976 20.327-27.975-20.327 10.686-32.886zm118.508 364.725l10.687 32.887-27.976 20.326-27.975-20.326 10.686-32.887z"/>
        <path d="M179.286 456.324l10.687 32.887-27.976 20.326-27.976-20.326 10.687-32.887zm292.962-65.775l10.687 32.887-27.976 20.326-27.976-20.326 10.687-32.887zm10.682-245.738l10.686 32.887-27.975 20.325-27.976-20.325 10.687-32.887z"/>
        <path d="M528.194 177.698l10.687 32.887-27.976 20.325-27.975-20.325 10.686-32.887zm-118.503 20.325l10.686 32.887-27.975 20.325-27.975-20.325 10.686-32.887zm-10.685 139.312l10.685 32.888-27.974 20.324-27.976-20.324 10.687-32.888zm-17.289 53.212l10.685 32.888-27.974 20.324-27.976-20.324 10.687-32.888zm-118.506-20.324l10.685 32.887-27.974 20.325-27.976-20.325 10.687-32.887zm-55.95 0l10.685 32.887-27.974 20.325-27.976-20.325 10.687-32.887zM88.755 390.549l10.685 32.888-27.974 20.324-27.976-20.324 10.687-32.888zm45.266 32.888l10.685 32.887-27.975 20.324-27.975-20.324 10.686-32.887zm27.974-86.102l10.685 32.888-27.974 20.324-27.976-20.324 10.687-32.888zm174.456 86.101l10.686 32.887-27.975 20.324-27.975-20.324 10.686-32.887zm-146.48-172.201l10.685 32.888-27.974 20.324-27.976-20.324 10.687-32.888z"/>
        <path d="M172.682 198.023l10.685 32.888-27.974 20.324-27.976-20.324 10.687-32.888z"/>
        <path d="M189.969 144.811l10.686 32.888-27.975 20.324-27.975-20.324 10.686-32.888zm264.986 86.099l10.686 32.887-27.975 20.326-27.976-20.326 10.687-32.887zm17.292 53.213l10.686 32.887-27.975 20.326-27.976-20.326 10.687-32.887zm-146.483-172.2l10.686 32.888-27.975 20.325-27.975-20.325 10.686-32.888zm55.953 172.2l10.686 32.887-27.975 20.325-27.976-20.325 10.687-32.887zm-73.241 53.213l10.686 32.887-27.975 20.325-27.976-20.325 10.686-32.887zm-73.242-53.213l10.687 32.887-27.976 20.325-27.975-20.325 10.686-32.887zm27.976-86.1l10.686 32.887-27.975 20.325-27.976-20.325 10.687-32.887z"/>
    </g>
</svg>
