<svg xmlns="http://www.w3.org/2000/svg" width="242" height="232">
    <g fill="none" stroke="#000" stroke-width="1.5">
        <circle cx="68" cy="96" r="36"/>
        <circle cx="176" cy="96" r="36"/>
        <circle cx="121.994" cy="189.537" r="36"/>
        <path d="M68 60c0-29.823 24.177-54 54-54s54 24.177 54 54M90.817 207.537c-25.827 14.911-58.854 6.062-73.766-19.766-14.911-25.828-6.062-58.854 19.766-73.766m170.366.001c25.827 14.911 34.676 47.938 19.766 73.766-14.912 25.827-47.938 34.677-73.766 19.765"/>
        <path d="M36.744 113.805C61.824 99.301 90.939 91 121.994 91c31.29 0 60.611 8.426 85.818 23.134"/>
        <path d="M153.252 208.314c-25.101-14.467-46.847-35.531-62.375-62.427C75.232 118.79 67.869 89.184 68.002 60"/>
        <path d="M175.843 60.164c.021 28.971-7.349 58.337-22.876 85.23-15.646 27.098-37.603 48.278-62.943 62.755"/>
    </g>
    <g fill="red" stroke="#000">
        <circle cx="68.002" cy="60" r="9"/>
        <circle cx="36.744" cy="113.805" r="9"/>
        <circle cx="82.34" cy="129.023" r="9"/>
        <circle cx="104" cy="91.969" r="9"/>
        <circle cx="175.843" cy="60.164" r="9"/>
        <circle cx="140.231" cy="91.969" r="9"/>
        <circle cx="207.812" cy="114.134" r="9"/>
        <circle cx="161.663" cy="129.023" r="9"/>
        <circle cx="143.199" cy="160.445" r="9"/>
        <circle cx="100.285" cy="160.445" r="9"/>
        <circle cx="90.023" cy="208.149" r="9"/>
        <circle cx="153.252" cy="208.314" r="9"/>
    </g>
</svg>
