<svg xmlns="http://www.w3.org/2000/svg" width="471" height="462" viewBox="82 77 471 462">
    <g fill="none" stroke="#76B3DF" stroke-width="3">
        <path d="M281.584 266.296A133.37 133.37 0 0 0 319 381.464m37.416-115.168a133.368 133.368 0 0 0-97.96 71.176m121.088 0a133.368 133.368 0 0 0-97.96-71.176M319 381.464a133.365 133.365 0 0 0 37.416-115.168m-97.96 71.176a133.368 133.368 0 0 0 121.088 0"/>
        <path d="M245.56 418.879c-72.75 11.527-141.069-38.103-152.596-110.852-11.527-72.75 38.104-141.069 110.853-152.597A133.37 133.37 0 0 1 319 192.855"/>
        <path d="M200.168 279.192c-33.439-65.629-7.345-145.94 58.285-179.379 65.628-33.439 145.94-7.344 179.379 58.285a133.37 133.37 0 0 1 0 121.095"/>
        <path d="M319 192.855c52.08-52.086 136.524-52.092 188.611-.012 52.086 52.08 52.092 136.523.012 188.611a133.371 133.371 0 0 1-115.184 37.424"/>
        <path d="M437.832 279.192c65.63 33.438 91.727 113.748 58.289 179.378-33.438 65.629-113.748 91.727-179.378 58.288a133.367 133.367 0 0 1-71.183-97.979"/>
        <path d="M392.439 418.879c-11.518 72.752-79.831 122.391-152.582 110.874-72.751-11.519-122.39-79.831-110.873-152.582a133.367 133.367 0 0 1 71.183-97.979m45.393 139.687A133.362 133.362 0 0 0 319 381.464m0 0a133.362 133.362 0 0 0 73.439 37.415M200.168 279.192a133.362 133.362 0 0 0 58.288 58.28m0 0a133.36 133.36 0 0 0-12.896 81.407M319 192.855a133.373 133.373 0 0 0-37.416 73.44m0 .001a133.365 133.365 0 0 0-81.416 12.896m237.664 0a133.364 133.364 0 0 0-81.416-12.896m0 0A133.373 133.373 0 0 0 319 192.856m73.439 226.023a133.36 133.36 0 0 0-12.896-81.407m.001 0a133.362 133.362 0 0 0 58.288-58.28"/>
    </g>
    <g fill="#FFF" stroke="#000">
        <circle cx="319" cy="381.464" r="20"/>
        <circle cx="258.456" cy="337.472" r="20"/>
        <circle cx="281.584" cy="266.296" r="20"/>
        <circle cx="356.416" cy="266.296" r="20"/>
        <circle cx="379.544" cy="337.472" r="20"/>
        <circle cx="245.56" cy="418.879" r="20"/>
        <circle cx="200.168" cy="279.192" r="20"/>
        <circle cx="319" cy="192.855" r="20"/>
        <circle cx="437.832" cy="279.192" r="20"/>
        <circle cx="392.439" cy="418.879" r="20"/>
    </g>
    <g font-family="Times,serif" font-size="14">
        <text transform="translate(301.5 196.856)">00001</text>
        <text transform="translate(182.668 283.192)">00100</text>
        <text transform="translate(420.332 283.192)">01000</text>
        <text transform="translate(362.044 341.472)">11011</text>
        <text transform="translate(240.956 341.472)">10111</text>
        <text transform="translate(338.916 270.296)">01111</text>
        <text transform="translate(301.5 385.464)">11110</text>
        <text transform="translate(264.084 270.296)">11101</text>
        <text transform="translate(228.06 422.879)">10000</text>
        <text transform="translate(374.94 422.879)">00010</text>
    </g>
</svg>
