<svg xmlns="http://www.w3.org/2000/svg" width="774" height="360">
    <g fill="none" stroke="#000">
        <path d="M358 12l36 18-36 24m0 42l36-66m-36-18l-36 18 36 24m0 42l-36-66m36 66l36-18-36-24m0-42l36 66m-36 18l-36-18 36-24m0-42l-36 66m36 60l36 18-36 24m0 42l36-66m-36-18l-36 18 36 24m0 42l-36-66m36 66l36-18-36-24m0-42l36 66m-36 18l-36-18 36-24m0-42l-36 66M196 330l-72-48 36-18 36 18v48l-36 18-36-18 72-48m-36 66v-84m198 0l36 18-36 24m0 42l36-66m-36-18l-36 18 36 24m0 42l-36-66m36 66l36-18-36-24m0-42l36 66m-36 18l-36-18 36-24m0-42l-36 66m-36-66l-36 42h36m0 42l-36-42m36-42l36 18-36 24m0 42l36-66m-36 66l36-18-36-24m0-42l36 66M196 204l-72-48 36-18 36 18v48l-36 18-36-18 72-48m-36 66v-84M16 156l72 48-36 18-36-18v-48l36-18 36 18-72 48m36-66v84m72-144l78-24-78-24"/>
        <path d="M124 78l48 18 30-42-30-42-48 18"/>
        <path d="M124 78l48-66v84l-48-66M88 78l36-48H88L40 12 10 54l30 42 48-18h36L88 30 10 54z"/>
        <path d="M88 30L40 96V12l48 66m234-48l-78 24 78 24"/>
        <path d="M322 30l-48-18-30 42 30 42 48-18"/>
        <path d="M322 30l-48 66V12l48 66M88 330l36-48H88l-48-18-30 42 30 42 48-18h36l-36-48-78 24z"/>
        <path d="M88 282l-48 66v-84l48 66m0-126l36-48H88"/>
        <path d="M88 204h36l-36-48m162 0l72 48-36 18-36-18v-48l36-18 36 18-72 48m36-66v84m199.951-60.431l-52.178-18.372M530.305 162l52.175-18.373-31.175-18m21-36.373l10.175 54.373"/>
        <path d="M530.305 162l-22.178-33.588 43.178-2.785m21-36.373l-64.178 39.158m64.178-39.158l-40.178-2.411 19.178 38.784m-21 36.373l1.822-75.157m-88.176 1.98l-10.178 54.374 31.178-18m-21-36.374l40.176-2.411-19.176 38.785m21 36.372l-1.824-75.157m1.824 75.157l22.176-33.588-43.176-2.784m-21-36.374l64.176 39.158m42-77.569l-42-36v36m-42 0l42-36m42 36l-18 36-24-36m-42 0l66 36"/>
        <path d="M466.127 50.412l18 36 24-36m42 0l-66 36m24.002 224.999l79.549 18.216-55.551-59.785"/>
        <path d="M508.129 311.411L540.697 351l46.981-21.373-4.981-51.373-50.57-8.412"/>
        <path d="M508.129 311.411l74.568-33.157-42 72.746-8.57-81.158m-48 0l-55.551 59.784 79.551-18.216"/>
        <path d="M484.127 269.842l-50.568 8.411-4.983 51.373 46.983 21.373 32.568-39.589"/>
        <path d="M484.127 269.842l-8.568 81.157-42-72.746 74.568 33.157m24-41.568l-24-78-24 78"/>
        <path d="M532.127 269.842l18-48-42-30-42 30 18 48"/>
        <path d="M532.127 269.842l-66-48h84l-66 48M735 254.999l-38.354-77.569 40.176 2.411L759 213.431l-24 41.568-40.178-2.411-22.176-33.589L759 213.431m-64.178 39.157l42-72.747"/>
        <path d="M586.291 213.43l86.355 5.569-22.177 33.588-40.178 2.412-24-41.569 22.178-33.589 40.177-2.411-38.355 77.569m-1.822-75.158l42 72.746m46.177-147.157l-48 72-18-36 18-36h48l18 36-18 36-48-72m66 36h-84"/>
    </g>
    <g fill="red" stroke="#000">
        <circle cx="358" cy="12" r="6"/>
        <circle cx="358" cy="54" r="6"/>
        <circle cx="358" cy="96" r="6"/>
        <circle cx="394" cy="78" r="6"/>
        <circle cx="394" cy="30" r="6"/>
        <circle cx="358" cy="138" r="6"/>
        <circle cx="358" cy="180" r="6"/>
        <circle cx="358" cy="222" r="6"/>
        <circle cx="394" cy="204" r="6"/>
        <circle cx="394" cy="156" r="6"/>
        <circle cx="160" cy="348" r="6"/>
        <circle cx="160" cy="264" r="6"/>
        <circle cx="196" cy="282" r="6"/>
        <circle cx="196" cy="330" r="6"/>
        <circle cx="358" cy="264" r="6"/>
        <circle cx="358" cy="306" r="6"/>
        <circle cx="358" cy="348" r="6"/>
        <circle cx="394" cy="330" r="6"/>
        <circle cx="394" cy="282" r="6"/>
        <circle cx="160" cy="222" r="6"/>
        <circle cx="160" cy="138" r="6"/>
        <circle cx="196" cy="156" r="6"/>
        <circle cx="196" cy="204" r="6"/>
        <circle cx="172" cy="96" r="6"/>
        <circle cx="172" cy="12" r="6"/>
        <circle cx="202" cy="54" r="6"/>
        <circle cx="124" cy="30" r="6"/>
        <circle cx="124" cy="78" r="6"/>
        <circle cx="88" cy="30" r="6"/>
        <circle cx="88" cy="78" r="6"/>
        <circle cx="40" cy="12" r="6"/>
        <circle cx="40" cy="96" r="6"/>
        <circle cx="10" cy="54" r="6"/>
        <circle cx="322" cy="30" r="6"/>
        <circle cx="322" cy="78" r="6"/>
        <circle cx="274" cy="12" r="6"/>
        <circle cx="274" cy="96" r="6"/>
        <circle cx="244" cy="54" r="6"/>
        <circle cx="124" cy="282" r="6"/>
        <circle cx="124" cy="330" r="6"/>
        <circle cx="88" cy="282" r="6"/>
        <circle cx="88" cy="330" r="6"/>
        <circle cx="40" cy="264" r="6"/>
        <circle cx="40" cy="348" r="6"/>
        <circle cx="10" cy="306" r="6"/>
        <circle cx="124" cy="156" r="6"/>
        <circle cx="124" cy="204" r="6"/>
        <circle cx="88" cy="156" r="6"/>
        <circle cx="88" cy="204" r="6"/>
        <circle cx="52" cy="138" r="6"/>
        <circle cx="52" cy="222" r="6"/>
        <circle cx="16" cy="204" r="6"/>
        <circle cx="16" cy="156" r="6"/>
        <circle cx="322" cy="156" r="6"/>
        <circle cx="322" cy="204" r="6"/>
        <circle cx="286" cy="138" r="6"/>
        <circle cx="286" cy="222" r="6"/>
        <circle cx="250" cy="204" r="6"/>
        <circle cx="250" cy="156" r="6"/>
        <circle cx="322" cy="282" r="6"/>
        <circle cx="322" cy="330" r="6"/>
        <circle cx="286" cy="264" r="6"/>
        <circle cx="286" cy="306" r="6"/>
        <circle cx="286" cy="348" r="6"/>
        <circle cx="250" cy="306" r="6"/>
        <circle cx="530.304" cy="162" r="6"/>
        <circle cx="551.305" cy="125.627" r="5.999"/>
        <circle cx="572.304" cy="89.255" r="6"/>
        <circle cx="582.481" cy="143.627" r="6"/>
        <circle cx="464.95" cy="125.197" r="6"/>
        <circle cx="433.772" cy="143.197" r="6"/>
        <circle cx="532.127" cy="86.412" r="6"/>
        <circle cx="484.127" cy="86.412" r="6"/>
        <circle cx="550.127" cy="50.412" r="6"/>
        <circle cx="508.127" cy="50.412" r="6"/>
        <circle cx="466.127" cy="50.412" r="6"/>
        <circle cx="508.127" cy="14.412" r="6"/>
        <circle cx="508.127" cy="127.981" r="5.999"/>
        <circle cx="443.95" cy="88.823" r="6"/>
        <circle cx="485.95" cy="161.569" r="6"/>
        <circle cx="540.696" cy="351" r="6"/>
        <circle cx="582.696" cy="278.254" r="6"/>
        <circle cx="587.678" cy="329.627" r="5.999"/>
        <circle cx="433.558" cy="278.253" r="6"/>
        <circle cx="475.558" cy="350.999" r="6"/>
        <circle cx="428.577" cy="329.626" r="6"/>
        <circle cx="508.127" cy="311.41" r="5.999"/>
        <circle cx="550.127" cy="221.842" r="6"/>
        <circle cx="466.127" cy="221.842" r="6"/>
        <circle cx="508.127" cy="191.842" r="6"/>
        <circle cx="484.127" cy="269.842" r="6"/>
        <circle cx="532.127" cy="269.842" r="6"/>
        <path d="M696.646 177.43l-24 41.569"/>
        <circle cx="694.821" cy="252.587" r="6"/>
        <circle cx="736.821" cy="179.841" r="6"/>
        <circle cx="758.999" cy="213.43" r="6"/>
        <circle cx="734.999" cy="254.999" r="6"/>
        <path d="M672.646 218.999l-24-41.569"/>
        <circle cx="608.469" cy="179.841" r="6"/>
        <circle cx="650.469" cy="252.587" r="6"/>
        <circle cx="610.292" cy="254.999" r="6"/>
        <circle cx="586.292" cy="213.43" r="6"/>
        <circle cx="672.646" cy="218.999" r="6"/>
        <path d="M648.646 177.43h48"/>
        <circle cx="714.646" cy="141.43" r="6"/>
        <circle cx="630.646" cy="141.43" r="6"/>
        <circle cx="648.646" cy="105.43" r="6"/>
        <circle cx="696.646" cy="105.43" r="6"/>
        <circle cx="648.646" cy="177.43" r="6"/>
        <circle cx="696.646" cy="177.43" r="6"/>
    </g>
    <path fill="#FFF" stroke="#000" d="M532.127 269.842l-23.998 41.569m-.002-.001l-24-41.568m0 0h48"/>
</svg>
