<svg xmlns="http://www.w3.org/2000/svg" width="538" height="469">
    <path d="M529.219 235.133l-114.039-84.16m114.039 84.16l-114.039 84.16m-27.696-84.16l-141.105-13.297m141.105 13.297L246.379 248.43m282.84-13.297H387.484m27.696-84.16l-122.746 70.863M399.312 10.129l-129.906 56.68m129.906-56.68l15.868 140.844m-86.735-18.102L246.379 248.43m82.066-115.559l-59.039 128.856M399.312 10.129l-70.867 122.742m-59.039-66.062v141.73M139.5 10.129l-15.867 140.844M139.5 10.129l129.906 56.68m-59.039 66.062l59.039 128.856m-59.039-128.856l82.067 115.559M139.5 10.129l70.867 122.742m-86.734 18.102l122.746 70.863M9.594 235.133l114.039 84.16M9.594 235.133l114.039-84.16m27.695 84.16l141.106 13.297m-141.106-13.297l141.106-13.297M9.594 235.133h141.734m-27.695 84.16l122.746-70.863M139.5 460.137l129.906-56.68M139.5 460.137l-15.867-140.844m86.734 18.102l82.067-115.559m-82.067 115.559l59.039-128.856M139.5 460.137l70.867-122.742m59.039 66.062v-141.73m129.906 198.41l15.868-140.844m-15.868 140.844l-129.906-56.68m59.039-66.062l-59.039-128.856m59.039 128.856l-82.066-115.559m152.933 238.301l-70.867-122.742m86.735-18.102L292.434 248.43" fill="none" stroke="#000" stroke-miterlimit="10"/>
    <path d="M533.469 235.133v-.008a4.28 4.28 0 0 0-1.246-3.004 4.265 4.265 0 0 0-3.008-1.242 4.232 4.232 0 0 0-3.004 1.25 4.245 4.245 0 0 0 0 6.008 4.232 4.232 0 0 0 3.004 1.25 4.265 4.265 0 0 0 3.008-1.242 4.28 4.28 0 0 0 1.246-3.004v-.008zm-236.781-13.297v-.004a4.25 4.25 0 0 0-8.504.004c0 1.129.445 2.207 1.242 3.008a4.252 4.252 0 0 0 3.004 1.246 4.264 4.264 0 0 0 3.008-1.238 4.28 4.28 0 0 0 1.25-3.004v-.012zM403.562 10.129v-.004a4.225 4.225 0 0 0-1.25-3.004 4.245 4.245 0 0 0-7.25 3.008 4.25 4.25 0 0 0 4.246 4.254 4.248 4.248 0 0 0 3.004-1.242 4.232 4.232 0 0 0 1.25-3.004v-.008zM273.66 208.539v-.004a4.266 4.266 0 0 0-1.25-3.004 4.275 4.275 0 0 0-3.008-1.242 4.256 4.256 0 0 0-3.004 1.25 4.243 4.243 0 0 0 0 6.008 4.252 4.252 0 0 0 3.004 1.246 4.254 4.254 0 0 0 3.008-1.238 4.28 4.28 0 0 0 1.25-3.004v-.012zM143.75 10.129v-.004a4.238 4.238 0 0 0-1.246-3.004 4.252 4.252 0 0 0-6.012.004 4.248 4.248 0 0 0-1.242 3.004 4.25 4.25 0 0 0 1.242 3.008 4.25 4.25 0 0 0 7.258-3v-.008zm106.879 211.707v-.004a4.25 4.25 0 0 0-1.25-3.004 4.248 4.248 0 0 0-6.012.008 4.249 4.249 0 0 0-1.242 3c0 1.129.449 2.207 1.242 3.008a4.262 4.262 0 0 0 6.012.008 4.263 4.263 0 0 0 1.25-3.004v-.012zM13.848 235.133v-.008a4.255 4.255 0 0 0-4.254-4.246 4.242 4.242 0 0 0-3.008 1.25c-.797.797-1.242 1.875-1.242 3.004s.445 2.207 1.242 3.004a4.242 4.242 0 0 0 3.008 1.25 4.255 4.255 0 0 0 4.254-4.246v-.008zm236.781 13.297v-.012a4.263 4.263 0 0 0-1.25-3.004 4.261 4.261 0 0 0-6.012.008 4.275 4.275 0 0 0-1.242 3.008c0 1.125.449 2.207 1.242 3a4.248 4.248 0 0 0 6.012.008 4.25 4.25 0 0 0 1.25-3.004v-.004zM143.75 460.137v-.008a4.245 4.245 0 0 0-4.254-4.246 4.27 4.27 0 0 0-3.004 1.246 4.25 4.25 0 0 0-1.242 3.008 4.248 4.248 0 0 0 7.254 3.008 4.238 4.238 0 0 0 1.246-3.004v-.004zm129.91-198.41v-.012a4.28 4.28 0 0 0-1.25-3.004 4.254 4.254 0 0 0-3.008-1.238 4.252 4.252 0 0 0-4.25 4.254c0 1.125.449 2.203 1.246 3a4.256 4.256 0 0 0 3.004 1.25 4.275 4.275 0 0 0 3.008-1.242 4.266 4.266 0 0 0 1.25-3.004v-.004zm129.902 198.41v-.008a4.232 4.232 0 0 0-1.25-3.004 4.248 4.248 0 0 0-7.25 3.012 4.248 4.248 0 0 0 7.25 3.008 4.225 4.225 0 0 0 1.25-3.004v-.004zM296.688 248.43v-.012a4.28 4.28 0 0 0-1.25-3.004 4.264 4.264 0 0 0-3.008-1.238 4.252 4.252 0 0 0-3.004 1.246 4.258 4.258 0 0 0 0 6.008 4.25 4.25 0 0 0 7.262-2.996v-.004z" fill="red"/>
    <path d="M419.43 150.973v-.012a4.23 4.23 0 0 0-1.25-3 4.248 4.248 0 0 0-6.008.004 4.245 4.245 0 0 0 3.004 7.254 4.211 4.211 0 0 0 3.004-1.238 4.232 4.232 0 0 0 1.25-3.004v-.004zm-27.692 84.16v-.008a4.255 4.255 0 0 0-4.254-4.246 4.242 4.242 0 0 0-3.008 1.25 4.245 4.245 0 0 0 0 6.008 4.242 4.242 0 0 0 3.008 1.25 4.255 4.255 0 0 0 4.254-4.246v-.008zM273.66 66.809v-.004a4.259 4.259 0 0 0-1.25-3.004 4.252 4.252 0 1 0 1.25 3.016v-.008zm59.035 66.062v-.004a4.232 4.232 0 0 0-1.25-3.004 4.214 4.214 0 0 0-3.004-1.238 4.241 4.241 0 0 0-4.246 4.246 4.244 4.244 0 0 0 4.246 4.254 4.234 4.234 0 0 0 3.004-1.242 4.223 4.223 0 0 0 1.25-3v-.012zm-204.808 18.102v-.012a4.25 4.25 0 0 0-8.504.012 4.241 4.241 0 0 0 4.246 4.246c1.129.008 2.211-.441 3.008-1.238s1.246-1.875 1.25-3.004v-.004zm86.73-18.102v-.004a4.232 4.232 0 0 0-1.25-3.004 4.22 4.22 0 0 0-3.004-1.238 4.241 4.241 0 0 0-4.246 4.246 4.244 4.244 0 0 0 4.246 4.254 4.241 4.241 0 0 0 3.004-1.242 4.223 4.223 0 0 0 1.25-3v-.012zm-86.73 186.422v-.004c-.004-1.129-.453-2.207-1.25-3.004s-1.879-1.246-3.008-1.238a4.241 4.241 0 0 0-4.246 4.246 4.25 4.25 0 0 0 7.254 3.012 4.264 4.264 0 0 0 1.25-3v-.012zm27.695-84.16v-.008a4.266 4.266 0 0 0-1.25-3.004 4.265 4.265 0 0 0-3.008-1.242 4.232 4.232 0 0 0-3.004 1.25 4.245 4.245 0 0 0 0 6.008 4.232 4.232 0 0 0 3.004 1.25 4.265 4.265 0 0 0 3.008-1.242 4.266 4.266 0 0 0 1.25-3.004v-.008zM273.66 403.457v-.008a4.258 4.258 0 0 0-4.258-4.246 4.255 4.255 0 0 0-4.25 4.254 4.252 4.252 0 0 0 4.25 4.25 4.24 4.24 0 0 0 3.008-1.242 4.259 4.259 0 0 0 1.25-3.004v-.004zm-59.043-66.062v-.012a4.223 4.223 0 0 0-1.25-3 4.245 4.245 0 0 0-7.25 3.012 4.241 4.241 0 0 0 4.246 4.246 4.22 4.22 0 0 0 3.004-1.238 4.232 4.232 0 0 0 1.25-3.004v-.004zm204.813-18.102v-.004a4.232 4.232 0 0 0-1.25-3.004 4.211 4.211 0 0 0-3.004-1.238 4.245 4.245 0 0 0-3.004 7.254 4.245 4.245 0 0 0 6.008.004 4.23 4.23 0 0 0 1.25-3v-.012zm-86.735 18.102v-.012a4.223 4.223 0 0 0-1.25-3 4.234 4.234 0 0 0-3.004-1.242 4.245 4.245 0 0 0-4.246 4.254 4.241 4.241 0 0 0 4.246 4.246 4.214 4.214 0 0 0 3.004-1.238 4.232 4.232 0 0 0 1.25-3.004v-.004z" fill="#00F"/>
</svg>
