<svg xmlns="http://www.w3.org/2000/svg" width="632" height="630">
    <g fill="none" stroke="#76B3DF" stroke-width="4">
        <path d="M316.567 314.972l-40.095 188.625m40.095-188.625L203.22 470.979m113.347-156.007l-167.002 96.42m167.002-96.42l-191.782 20.16m191.782-20.16L133.17 255.384m183.397 59.588l-143.31-129.037m143.31 129.037l-78.435-176.167m78.435 176.167v-192.84m0 192.84l78.436-176.167m-78.436 176.167l143.311-129.037M316.567 314.972l183.397-59.588m-183.397 59.588l191.783 20.16m-191.783-20.16l167.002 96.42m-167.002-96.42l113.348 156.007M316.567 314.972l40.095 188.625m-40.095-188.625v112.5m0-112.5l-45.756 102.771m45.756-102.771l-83.603 75.277m83.603-75.277l-106.995 34.761m106.995-34.761l-111.884-11.76m111.884 11.76l-97.424-56.25m97.424 56.25l-66.127-91.013m66.127 91.013l-23.392-110.04m23.392 110.04l23.393-110.04m-23.393 110.04l66.127-91.013m-66.127 91.013l97.426-56.25m-97.426 56.25l111.885-11.76m-111.885 11.76l106.995 34.761m-106.995-34.761l83.604 75.277m-83.604-75.277l45.758 102.771m-45.758 9.729a75.7 75.7 0 0 0-45.757-9.729m.001 0a75.688 75.688 0 0 0-37.845-27.494m-.002 0a75.687 75.687 0 0 0-23.393-40.517m.001.001a75.689 75.689 0 0 0-4.89-46.521m.001 0a75.7 75.7 0 0 0 14.46-44.49m0 0a75.687 75.687 0 0 0 31.297-34.763m0 0a75.702 75.702 0 0 0 42.735-19.027m0 0a75.682 75.682 0 0 0 46.784 0m.001 0a75.695 75.695 0 0 0 42.734 19.027m0 0a75.697 75.697 0 0 0 31.299 34.763m0 0a75.68 75.68 0 0 0 14.459 44.49m0 0a75.69 75.69 0 0 0-4.89 46.521m0 0a75.7 75.7 0 0 0-23.394 40.517m.003-.001a75.682 75.682 0 0 0-37.846 27.495m0-.001a75.675 75.675 0 0 0-45.758 9.729m-40.095 76.125c-60.122 54.155-152.762 49.317-206.917-10.805-54.156-60.122-49.319-152.764 10.804-206.918a146.498 146.498 0 0 1 52.811-30.49"/>
        <path d="M203.22 470.979c-76.953 25.014-159.613-17.093-184.627-94.047-25.014-76.953 17.092-159.613 94.046-184.626a146.517 146.517 0 0 1 60.619-6.372"/>
        <path d="M149.565 411.392c-80.475-8.449-138.863-80.535-130.414-161.01 8.449-80.474 80.536-138.862 161.01-130.414a146.51 146.51 0 0 1 57.973 18.836"/>
        <path d="M124.785 335.132c-70.08-40.453-94.096-130.058-53.644-200.136C111.593 64.917 201.198 40.9 271.277 81.353a146.52 146.52 0 0 1 45.29 40.779"/>
        <path d="M133.17 255.384C85.599 189.929 100.096 98.302 165.552 50.73c65.457-47.572 157.083-33.074 204.654 32.381a146.543 146.543 0 0 1 24.797 55.692"/>
        <path d="M173.257 185.935c-16.826-79.148 33.697-156.95 112.844-173.776 79.147-16.825 156.95 33.697 173.775 112.845a146.482 146.482 0 0 1 0 60.932"/>
        <path d="M238.132 138.805C254.945 59.655 332.741 9.12 411.891 25.934c79.149 16.813 129.685 94.608 112.871 173.759a146.518 146.518 0 0 1-24.798 55.691"/>
        <path d="M316.567 122.132c47.558-65.466 139.182-79.983 204.646-32.426 65.467 47.558 79.982 139.181 32.426 204.646a146.486 146.486 0 0 1-45.29 40.779"/>
        <path d="M395.003 138.805c70.071-40.466 159.681-16.465 200.146 53.606 40.466 70.071 16.466 159.68-53.605 200.146a146.52 146.52 0 0 1-57.973 18.836"/>
        <path d="M459.878 185.935c80.474-8.466 152.57 49.907 161.036 130.38 8.466 80.474-49.906 152.571-130.38 161.036a146.514 146.514 0 0 1-60.619-6.371"/>
        <path d="M499.964 255.384c76.963 24.989 119.095 107.637 94.105 184.598s-107.636 119.094-184.598 94.104a146.545 146.545 0 0 1-52.812-30.489"/>
        <path d="M508.35 335.132c60.14 54.137 65.005 146.774 10.868 206.915-54.138 60.138-146.776 65.005-206.915 10.867a146.494 146.494 0 0 1-35.831-49.317"/>
        <path d="M483.569 411.392c32.923 73.916-.311 160.526-74.227 193.448s-160.526-.312-193.448-74.229a146.49 146.49 0 0 1-12.675-59.633"/>
        <path d="M429.915 470.979c.014 80.916-65.571 146.522-146.489 146.535-80.917.014-146.522-65.572-146.535-146.488a146.516 146.516 0 0 1 12.675-59.635"/>
        <path d="M356.662 503.597c-32.9 73.926-119.502 107.182-193.428 74.28C89.31 544.975 56.052 458.375 88.955 384.448a146.494 146.494 0 0 1 35.831-49.316m78.434 135.847c43.314 14.074 90.573-4.065 113.348-43.508m-.001.001c22.773 39.441 70.032 57.582 113.348 43.508m-280.35-59.588c33.848 30.475 84.398 33.123 121.245 6.354m.001-.003c4.761 45.298 40.556 81.092 85.852 85.854M124.785 335.132c18.526 41.605 63.63 64.587 108.181 55.117m-.002 0c-14.073 43.314 4.066 90.573 43.508 113.348M133.17 255.384c.003 45.542 31.856 84.879 76.402 94.35m0-.001c-30.474 33.85-33.123 84.398-6.353 121.246m-29.962-285.044c-18.525 41.608-5.423 90.505 31.425 117.277m.001 0c-41.606 18.525-64.586 63.63-55.117 108.18m88.566-272.587c-33.844 30.477-41.763 80.474-18.989 119.917m0 0c-45.548 0-84.889 31.858-94.357 76.41m191.781-213c-43.316 14.074-70.889 56.53-66.127 101.827m0 0c-41.607-18.521-90.5-5.419-117.27 31.425m261.833-116.579c-45.298-4.761-87.753 22.81-101.827 66.127m-.001 0c-30.477-33.848-80.474-41.769-119.917-18.997m286.62 0c-39.444-22.771-89.441-14.851-119.918 18.997m0 0c-14.073-43.318-56.529-70.889-101.828-66.127m261.832 116.579c-26.771-36.844-75.662-49.946-117.271-31.425m.001 0c4.762-45.297-22.81-87.752-66.127-101.827m191.783 213c-9.47-44.552-48.811-76.41-94.356-76.41m-.001 0c22.771-39.443 14.854-89.44-18.99-119.917m88.566 272.587c9.47-44.55-13.51-89.653-55.117-108.18m0 0c36.849-26.772 49.95-75.669 31.426-117.277m-29.963 285.044c26.771-36.848 24.121-87.396-6.353-121.246m0 0c44.546-9.471 76.398-48.807 76.401-94.35M356.662 503.597c39.442-22.773 57.582-70.032 43.509-113.348m0 0c44.55 9.47 89.652-13.511 108.18-55.117M276.472 503.597c45.297-4.762 81.092-40.556 85.854-85.854m-.001 0c36.848 26.771 87.397 24.122 121.244-6.353"/>
    </g>
    <g stroke="#000">
        <circle fill="#FFF" cx="316.567" cy="427.472" r="16.875"/>
        <circle fill="#FFF" cx="270.811" cy="417.743" r="16.875"/>
        <circle fill="#FFF" cx="232.964" cy="390.249" r="16.875"/>
        <circle fill="#FFF" cx="209.572" cy="349.733" r="16.875"/>
        <circle fill="#FFF" cx="204.683" cy="303.212" r="16.875"/>
        <circle fill="#FFF" cx="219.143" cy="258.722" r="16.875"/>
        <circle fill="#FFF" cx="250.44" cy="223.959" r="16.875"/>
        <circle fill="#FFF" cx="293.175" cy="204.932" r="16.875"/>
        <circle fill="#FFF" cx="339.96" cy="204.932" r="16.875"/>
        <circle fill="#FFF" cx="382.694" cy="223.959" r="16.875"/>
        <circle fill="#FFF" cx="413.993" cy="258.722" r="16.875"/>
        <circle fill="#FFF" cx="428.452" cy="303.212" r="16.875"/>
        <circle fill="#FFF" cx="423.562" cy="349.733" r="16.875"/>
        <circle fill="#FFF" cx="400.171" cy="390.249" r="16.875"/>
        <circle fill="#FFF" cx="362.325" cy="417.743" r="16.875"/>
        <circle fill="#FFF" cx="276.472" cy="503.597" r="16.875"/>
        <circle fill="#FFF" cx="203.22" cy="470.979" r="16.875"/>
        <circle fill="#FFF" cx="149.565" cy="411.392" r="16.875"/>
        <circle fill="#FFF" cx="124.785" cy="335.132" r="16.875"/>
        <circle fill="#FFF" cx="133.17" cy="255.384" r="16.875"/>
        <circle fill="#FFF" cx="173.257" cy="185.935" r="16.875"/>
        <circle fill="#FFF" cx="238.132" cy="138.805" r="16.875"/>
        <circle fill="#FFF" cx="316.567" cy="122.132" r="16.875"/>
        <circle fill="#FFF" cx="395.003" cy="138.805" r="16.875"/>
        <circle fill="#FFF" cx="459.878" cy="185.935" r="16.875"/>
        <circle fill="#FFF" cx="499.964" cy="255.384" r="16.875"/>
        <circle fill="#FFF" cx="508.35" cy="335.132" r="16.875"/>
        <circle fill="#FFF" cx="483.569" cy="411.392" r="16.875"/>
        <circle fill="#FFF" cx="429.915" cy="470.979" r="16.875"/>
        <circle fill="#FFF" cx="356.662" cy="503.597" r="16.875"/>
        <path fill="none" stroke="#603" stroke-width="2" d="M335.194 212.972l-3.482-10.72 9.119-6.625 9.119 6.625-3.484 10.72z"/>
        <circle fill="red" cx="340.831" cy="195.627" r="4.5"/>
        <circle fill="#0C0" cx="335.194" cy="212.972" r="4.5"/>
        <circle fill="#00F" cx="346.466" cy="212.972" r="4.5"/>
        <circle fill="#0C0" cx="349.95" cy="202.252" r="4.5"/>
        <circle fill="#00F" cx="331.712" cy="202.252" r="4.5"/>
        <path fill="none" stroke="#603" stroke-width="2" d="M377.923 231.997l-3.483-10.721 9.12-6.625 9.118 6.625-3.483 10.721z"/>
        <circle fill="red" cx="383.56" cy="214.651" r="4.5"/>
        <circle fill="#0C0" cx="377.923" cy="231.997" r="4.5"/>
        <circle fill="red" cx="389.195" cy="231.997" r="4.5"/>
        <circle fill="#0C0" cx="392.678" cy="221.276" r="4.5"/>
        <circle fill="#00F" cx="374.44" cy="221.276" r="4.5"/>
        <path fill="none" stroke="#603" stroke-width="2" d="M409.233 266.764l-3.482-10.72 9.118-6.625 9.119 6.625-3.483 10.72z"/>
        <circle fill="red" cx="414.869" cy="249.419" r="4.5"/>
        <circle fill="#0C0" cx="409.233" cy="266.764" r="4.5"/>
        <circle fill="red" cx="420.505" cy="266.764" r="4.5"/>
        <circle fill="#00F" cx="423.988" cy="256.044" r="4.5"/>
        <circle fill="#00F" cx="405.751" cy="256.044" r="4.5"/>
        <path fill="none" stroke="#603" stroke-width="2" d="M423.561 311.211l-3.484-10.721 9.119-6.625 9.119 6.625-3.483 10.721z"/>
        <circle fill="#0C0" cx="429.196" cy="293.865" r="4.5"/>
        <circle fill="#0C0" cx="423.561" cy="311.211" r="4.5"/>
        <circle fill="red" cx="434.832" cy="311.211" r="4.5"/>
        <circle fill="#00F" cx="438.315" cy="300.49" r="4.5"/>
        <circle fill="#00F" cx="420.077" cy="300.49" r="4.5"/>
        <path fill="none" stroke="#603" stroke-width="2" d="M418.429 357.654l-3.484-10.719 9.119-6.625 9.119 6.625-3.483 10.719z"/>
        <circle fill="#0C0" cx="424.064" cy="340.31" r="4.5"/>
        <circle fill="#0C0" cx="418.429" cy="357.654" r="4.5"/>
        <circle fill="red" cx="429.7" cy="357.654" r="4.5"/>
        <circle fill="#00F" cx="433.183" cy="346.935" r="4.5"/>
        <circle fill="red" cx="414.945" cy="346.935" r="4.5"/>
        <path fill="none" stroke="#603" stroke-width="2" d="M394.277 397.923l-3.482-10.72 9.118-6.626 9.119 6.626-3.482 10.72z"/>
        <circle fill="#0C0" cx="399.913" cy="380.577" r="4.5"/>
        <circle fill="#00F" cx="394.277" cy="397.923" r="4.5"/>
        <circle fill="red" cx="405.55" cy="397.923" r="4.5"/>
        <circle fill="#00F" cx="409.032" cy="387.203" r="4.5"/>
        <circle fill="red" cx="390.795" cy="387.203" r="4.5"/>
        <path fill="none" stroke="#603" stroke-width="2" d="M357.493 425.763l-3.482-10.721 9.119-6.625 9.117 6.625-3.482 10.721z"/>
        <circle fill="#0C0" cx="363.13" cy="408.417" r="4.5"/>
        <circle fill="#00F" cx="357.493" cy="425.763" r="4.5"/>
        <circle fill="#0C0" cx="368.765" cy="425.763" r="4.5"/>
        <circle fill="#00F" cx="372.247" cy="415.042" r="4.5"/>
        <circle fill="red" cx="354.011" cy="415.042" r="4.5"/>
        <path fill="none" stroke="#603" stroke-width="2" d="M311.814 435.515l-3.483-10.719 9.119-6.626 9.118 6.626-3.482 10.719z"/>
        <circle fill="#0C0" cx="317.45" cy="418.17" r="4.5"/>
        <circle fill="#00F" cx="311.814" cy="435.515" r="4.5"/>
        <circle fill="#0C0" cx="323.086" cy="435.515" r="4.5"/>
        <circle fill="red" cx="326.568" cy="424.796" r="4.5"/>
        <circle fill="red" cx="308.331" cy="424.796" r="4.5"/>
        <path fill="none" stroke="#603" stroke-width="2" d="M266.044 425.784l-3.482-10.72 9.119-6.626 9.119 6.626-3.484 10.72z"/>
        <circle fill="#00F" cx="271.681" cy="408.438" r="4.5"/>
        <circle fill="#00F" cx="266.044" cy="425.784" r="4.5"/>
        <circle fill="#0C0" cx="277.316" cy="425.784" r="4.5"/>
        <circle fill="red" cx="280.8" cy="415.064" r="4.5"/>
        <circle fill="red" cx="262.562" cy="415.064" r="4.5"/>
        <path fill="none" stroke="#603" stroke-width="2" d="M227.861 398.179l-3.483-10.719 9.119-6.626 9.118 6.626-3.481 10.719z"/>
        <circle fill="#00F" cx="233.497" cy="380.834" r="4.5"/>
        <circle fill="#00F" cx="227.861" cy="398.179" r="4.5"/>
        <circle fill="#0C0" cx="239.134" cy="398.179" r="4.5"/>
        <circle fill="red" cx="242.615" cy="387.46" r="4.5"/>
        <circle fill="#0C0" cx="224.378" cy="387.46" r="4.5"/>
        <path fill="none" stroke="#603" stroke-width="2" d="M204.472 357.665l-3.483-10.721 9.118-6.625 9.12 6.625-3.484 10.721z"/>
        <circle fill="#00F" cx="210.107" cy="340.319" r="4.5"/>
        <circle fill="red" cx="204.472" cy="357.665" r="4.5"/>
        <circle fill="#0C0" cx="215.743" cy="357.665" r="4.5"/>
        <circle fill="red" cx="219.227" cy="346.944" r="4.5"/>
        <circle fill="#0C0" cx="200.989" cy="346.944" r="4.5"/>
        <path fill="none" stroke="#603" stroke-width="2" d="M199.584 311.144l-3.481-10.719 9.117-6.626 9.119 6.626-3.483 10.719z"/>
        <circle fill="#00F" cx="205.22" cy="293.799" r="4.5"/>
        <circle fill="red" cx="199.584" cy="311.144" r="4.5"/>
        <circle fill="#00F" cx="210.856" cy="311.144" r="4.5"/>
        <circle fill="red" cx="214.339" cy="300.425" r="4.5"/>
        <circle fill="#0C0" cx="196.103" cy="300.425" r="4.5"/>
        <path fill="none" stroke="#603" stroke-width="2" d="M214.05 266.656l-3.483-10.719 9.12-6.626 9.119 6.626-3.484 10.719z"/>
        <circle fill="#00F" cx="219.687" cy="249.311" r="4.5"/>
        <circle fill="red" cx="214.05" cy="266.656" r="4.5"/>
        <circle fill="#00F" cx="225.322" cy="266.656" r="4.5"/>
        <circle fill="#0C0" cx="228.806" cy="255.937" r="4.5"/>
        <circle fill="#0C0" cx="210.567" cy="255.937" r="4.5"/>
        <path fill="none" stroke="#603" stroke-width="2" d="M245.341 231.891l-3.482-10.72 9.12-6.625 9.118 6.625-3.484 10.72z"/>
        <circle fill="red" cx="250.979" cy="214.546" r="4.5"/>
        <circle fill="red" cx="245.341" cy="231.891" r="4.5"/>
        <circle fill="#00F" cx="256.613" cy="231.891" r="4.5"/>
        <circle fill="#0C0" cx="260.097" cy="221.171" r="4.5"/>
        <circle fill="#0C0" cx="241.859" cy="221.171" r="4.5"/>
        <path fill="none" stroke="#603" stroke-width="2" d="M311.482 130.068l-3.483-10.72 9.119-6.626 9.119 6.626-3.484 10.72z"/>
        <circle fill="red" cx="317.118" cy="112.722" r="4.5"/>
        <circle fill="#00F" cx="311.482" cy="130.068" r="4.5"/>
        <circle fill="red" cx="322.753" cy="130.068" r="4.5"/>
        <circle fill="#0C0" cx="326.237" cy="119.348" r="4.5"/>
        <circle fill="#0C0" cx="307.999" cy="119.348" r="4.5"/>
        <path fill="none" stroke="#603" stroke-width="2" d="M503.461 343.131l-3.482-10.72 9.119-6.625 9.118 6.625-3.483 10.72z"/>
        <circle fill="red" cx="509.098" cy="325.786" r="4.5"/>
        <circle fill="#00F" cx="503.461" cy="343.131" r="4.5"/>
        <circle fill="red" cx="514.733" cy="343.131" r="4.5"/>
        <circle fill="#00F" cx="518.216" cy="332.411" r="4.5"/>
        <circle fill="#0C0" cx="499.979" cy="332.411" r="4.5"/>
        <path fill="none" stroke="#603" stroke-width="2" d="M271.589 511.599l-3.483-10.72 9.12-6.626 9.118 6.626-3.484 10.72z"/>
        <circle fill="red" cx="277.226" cy="494.253" r="4.5"/>
        <circle fill="#00F" cx="271.589" cy="511.599" r="4.5"/>
        <circle fill="#0C0" cx="282.86" cy="511.599" r="4.5"/>
        <circle fill="#00F" cx="286.344" cy="500.879" r="4.5"/>
        <circle fill="#0C0" cx="268.106" cy="500.879" r="4.5"/>
        <path fill="none" stroke="#603" stroke-width="2" d="M128.29 263.387l-3.482-10.72 9.118-6.626 9.119 6.626-3.483 10.72z"/>
        <circle fill="red" cx="133.926" cy="246.041" r="4.5"/>
        <circle fill="red" cx="128.29" cy="263.387" r="4.5"/>
        <circle fill="#0C0" cx="139.562" cy="263.387" r="4.5"/>
        <circle fill="#00F" cx="143.045" cy="252.667" r="4.5"/>
        <circle fill="#0C0" cx="124.808" cy="252.667" r="4.5"/>
        <path fill="none" stroke="#603" stroke-width="2" d="M390.122 146.807l-3.482-10.72 9.119-6.625 9.118 6.625-3.483 10.72z"/>
        <circle fill="red" cx="395.759" cy="129.462" r="4.5"/>
        <circle fill="red" cx="390.122" cy="146.807" r="4.5"/>
        <circle fill="#0C0" cx="401.394" cy="146.807" r="4.5"/>
        <circle fill="#00F" cx="404.877" cy="136.087" r="4.5"/>
        <circle fill="#00F" cx="386.64" cy="136.087" r="4.5"/>
        <path fill="none" stroke="#603" stroke-width="2" d="M478.688 419.394l-3.481-10.72 9.118-6.625 9.119 6.625-3.483 10.72z"/>
        <circle fill="#0C0" cx="484.325" cy="402.049" r="4.5"/>
        <circle fill="red" cx="478.688" cy="419.394" r="4.5"/>
        <circle fill="#0C0" cx="489.961" cy="419.394" r="4.5"/>
        <circle fill="#00F" cx="493.444" cy="408.674" r="4.5"/>
        <circle fill="#00F" cx="475.207" cy="408.674" r="4.5"/>
        <path fill="none" stroke="#603" stroke-width="2" d="M198.338 478.981l-3.481-10.719 9.119-6.626 9.119 6.626-3.484 10.719z"/>
        <circle fill="#0C0" cx="203.976" cy="461.636" r="4.5"/>
        <circle fill="red" cx="198.338" cy="478.981" r="4.5"/>
        <circle fill="#0C0" cx="209.611" cy="478.981" r="4.5"/>
        <circle fill="red" cx="213.095" cy="468.262" r="4.5"/>
        <circle fill="#00F" cx="194.857" cy="468.262" r="4.5"/>
        <path fill="none" stroke="#603" stroke-width="2" d="M168.376 193.937l-3.481-10.72 9.118-6.625 9.118 6.625-3.483 10.72z"/>
        <circle fill="#0C0" cx="174.013" cy="176.592" r="4.5"/>
        <circle fill="red" cx="168.376" cy="193.937" r="4.5"/>
        <circle fill="#00F" cx="179.648" cy="193.937" r="4.5"/>
        <circle fill="red" cx="183.131" cy="183.217" r="4.5"/>
        <circle fill="#00F" cx="164.895" cy="183.217" r="4.5"/>
        <path fill="none" stroke="#603" stroke-width="2" d="M454.997 193.937l-3.482-10.72 9.119-6.625 9.118 6.625-3.483 10.72z"/>
        <circle fill="#0C0" cx="460.634" cy="176.592" r="4.5"/>
        <circle fill="#0C0" cx="454.997" cy="193.937" r="4.5"/>
        <circle fill="#00F" cx="466.269" cy="193.937" r="4.5"/>
        <circle fill="red" cx="469.752" cy="183.217" r="4.5"/>
        <circle fill="#00F" cx="451.515" cy="183.217" r="4.5"/>
        <path fill="none" stroke="#603" stroke-width="2" d="M425.034 478.981l-3.482-10.719 9.119-6.626 9.118 6.626-3.483 10.719z"/>
        <circle fill="#0C0" cx="430.671" cy="461.636" r="4.5"/>
        <circle fill="#0C0" cx="425.034" cy="478.981" r="4.5"/>
        <circle fill="#00F" cx="436.306" cy="478.981" r="4.5"/>
        <circle fill="red" cx="439.789" cy="468.262" r="4.5"/>
        <circle fill="red" cx="421.552" cy="468.262" r="4.5"/>
        <path fill="none" stroke="#603" stroke-width="2" d="M144.685 419.394l-3.482-10.72 9.118-6.625 9.119 6.625-3.482 10.72z"/>
        <circle fill="#00F" cx="150.321" cy="402.049" r="4.5"/>
        <circle fill="#0C0" cx="144.685" cy="419.394" r="4.5"/>
        <circle fill="#00F" cx="155.958" cy="419.394" r="4.5"/>
        <circle fill="red" cx="159.44" cy="408.674" r="4.5"/>
        <circle fill="red" cx="141.203" cy="408.674" r="4.5"/>
        <path fill="none" stroke="#603" stroke-width="2" d="M233.251 146.807l-3.481-10.72 9.118-6.625 9.119 6.625-3.484 10.72z"/>
        <circle fill="#00F" cx="238.888" cy="129.462" r="4.5"/>
        <circle fill="#0C0" cx="233.251" cy="146.807" r="4.5"/>
        <circle fill="#00F" cx="244.523" cy="146.807" r="4.5"/>
        <circle fill="#0C0" cx="248.007" cy="136.087" r="4.5"/>
        <circle fill="red" cx="229.77" cy="136.087" r="4.5"/>
        <path fill="none" stroke="#603" stroke-width="2" d="M495.085 263.387l-3.482-10.72 9.119-6.626 9.119 6.626-3.485 10.72z"/>
        <circle fill="#00F" cx="500.722" cy="246.041" r="4.5"/>
        <circle fill="#0C0" cx="495.085" cy="263.387" r="4.5"/>
        <circle fill="red" cx="506.356" cy="263.387" r="4.5"/>
        <circle fill="#0C0" cx="509.841" cy="252.667" r="4.5"/>
        <circle fill="red" cx="491.603" cy="252.667" r="4.5"/>
        <path fill="none" stroke="#603" stroke-width="2" d="M351.028 511.354l-3.482-10.719 9.119-6.626 9.118 6.626-3.483 10.719z"/>
        <circle fill="#00F" cx="356.665" cy="494.009" r="4.5"/>
        <circle fill="#00F" cx="351.028" cy="511.354" r="4.5"/>
        <circle fill="red" cx="362.3" cy="511.354" r="4.5"/>
        <circle fill="#0C0" cx="365.783" cy="500.635" r="4.5"/>
        <circle fill="red" cx="347.546" cy="500.635" r="4.5"/>
        <path fill="none" stroke="#603" stroke-width="2" d="M119.15 342.89l-3.482-10.72 9.12-6.626 9.117 6.626-3.483 10.72z"/>
        <circle fill="#00F" cx="124.788" cy="325.544" r="4.5"/>
        <circle fill="#00F" cx="119.15" cy="342.89" r="4.5"/>
        <circle fill="red" cx="130.422" cy="342.89" r="4.5"/>
        <circle fill="#0C0" cx="133.905" cy="332.17" r="4.5"/>
        <circle fill="#0C0" cx="115.668" cy="332.17" r="4.5"/>
        <path fill="none" stroke="#603" stroke-width="2" d="M288.077 212.863l-3.482-10.719 9.119-6.625 9.117 6.625-3.482 10.719z"/>
        <circle fill="red" cx="293.714" cy="195.519" r="4.5"/>
        <circle fill="red" cx="288.077" cy="212.863" r="4.5"/>
        <circle fill="#00F" cx="299.349" cy="212.863" r="4.5"/>
        <circle fill="#0C0" cx="302.831" cy="202.144" r="4.5"/>
        <circle fill="#00F" cx="284.595" cy="202.144" r="4.5"/>
    </g>
</svg>
