<svg xmlns="http://www.w3.org/2000/svg" width="958.4" height="794.6"><path fill="#ffe07f" d="M251.8 107.9h166.4l207.7-72 249.4 144 41.7 216-124.7 216-124.7 72h-83.1l-208.3 72-290.7-216-41.2-216 207.5-216z"/><g fill="#009246"><path d="M251.8 107.9h166.4l-83.3 144-83.1-144z"/><path d="M418.2 107.9l207.7-72-41.6 216-166.1-144zm207.7-72v288l249.4-144-249.4-144zm-374.1 72l83.1 288-290.6-72 207.5-216z"/><path d="M44.3 323.9l207.5 72-166.3 144-41.2-216zm831-144l-166.2 144 207.9 72-41.7-216zm-789.8 360l332.7-144-42 360-290.7-216zm831.5-144H667.5l124.8 216 124.7-216z"/><path d="M376.2 755.9l42-215.8 166.3 143.8-208.3 72zm416.1-144l-124.9-71.8.2 143.8 124.7-72z"/><path d="M584.5 683.9l41.8-72.8 41.3 72.8h-83.1z"/></g><path fill="none" stroke="#7fc0e6" d="M-764.4 35.9h2304m0 72h-2304m0 72h2304m0 72h-2304m0 72h2304m0 72h-2304m0 72h2304m0 72h-2304m0 72h2304m0 72h-2304m0 72h2304M-516.8-215.4l1152 1995.3m62.3-36l-1152-1995.3m62.4-36l1152 1995.3m62.3-36l-1152-1995.3m62.4-36l1152 1995.3m62.3-36l-1152-1995.3m62.4-36l1152 1995.3m62.3-36L-80.4-467.4m62.4-36l1152 1995.3m62.3-36L44.3-539.4m62.4-36l1152 1995.3m62.4-36L169.1-611.4m62.3-36l1152 1995.3m62.4-36L293.8-683.4m62.3-36l1152 1995.3m62.4-36L418.5-755.4m62.3-36l1152 1995.3m-62.3-1508l-1152 1995.3m-62.4-36l1152-1995.3m-62.3-36l-1152 1995.3m-62.4-36l1152-1995.3m-62.3-36l-1152 1995.3m-62.4-36l1152-1995.3m-62.4-36L44.3 1475.2m-62.3-36L1134-556.1m-62.4-36l-1152 1995.3m-62.3-36l1152-1995.3m-62.4-36l-1152 1995.3m-62.3-36l1152-1995.3m-62.4-36l-1152 1995.3m-62.3-36l1152-1995.3m-62.4-36l-1152 1995.3m-62.3-36l1152-1995.3m-62.4-36l-1152 1995.3"/></svg>