<svg xmlns="http://www.w3.org/2000/svg" width="1170" height="1134"><path fill="none" stroke="#000" stroke-width="2" d="M9 1017h144v72H9zm144 0h144v72H153zm144 0h144v72H297zm144 0h144v72H441zM9 873h288v144H9zm288 0h288v144H297zM9 585h576v288H9zm576 0h576v288H585zm0 288h288v144H585zm288 0h288v144H873zm-288 144h144v72H585zm144 0h144v72H729zm144 0h144v72H873zm144 0h144v72h-144zM9 1089h72v36H9zm72 0h72v36H81zm72 0h72v36h-72zm72 0h72v36h-72zm72 0h72v36h-72zm72 0h72v36h-72zm72 0h72v36h-72zm72 0h72v36h-72zm72 0h72v36h-72zm72 0h72v36h-72zm72 0h72v36h-72zm72 0h72v36h-72zm72 0h72v36h-72zm72 0h72v36h-72zm72 0h72v36h-72zm72 0h72v36h-72z"/><text transform="translate(15 1116)" font-family="Times-Roman, Times" font-size="20"><tspan x="0" y="0">...0000</tspan></text><text transform="translate(87 1116)" font-family="Times-Roman, Times" font-size="20"><tspan x="0" y="0">...0001</tspan></text><text transform="translate(159 1116)" font-family="Times-Roman, Times" font-size="20"><tspan x="0" y="0">...0010</tspan></text><text transform="translate(231 1116)" font-family="Times-Roman, Times" font-size="20"><tspan x="0" y="0">...0011</tspan></text><text transform="translate(303 1116)" font-family="Times-Roman, Times" font-size="20"><tspan x="0" y="0">...0100</tspan></text><text transform="translate(375 1116)" font-family="Times-Roman, Times" font-size="20"><tspan x="0" y="0">...0101</tspan></text><text transform="translate(447 1116)" font-family="Times-Roman, Times" font-size="20"><tspan x="0" y="0">...0110</tspan></text><text transform="translate(519 1116)" font-family="Times-Roman, Times" font-size="20"><tspan x="0" y="0">...0111</tspan></text><text transform="translate(591 1116)" font-family="Times-Roman, Times" font-size="20"><tspan x="0" y="0">...1000</tspan></text><text transform="translate(663 1116)" font-family="Times-Roman, Times" font-size="20"><tspan x="0" y="0">...1001</tspan></text><text transform="translate(735 1116)" font-family="Times-Roman, Times" font-size="20"><tspan x="0" y="0">...1010</tspan></text><text transform="translate(807 1116)" font-family="Times-Roman, Times" font-size="20"><tspan x="0" y="0">...1011</tspan></text><text transform="translate(879 1116)" font-family="Times-Roman, Times" font-size="20"><tspan x="0" y="0">...1100</tspan></text><text transform="translate(951 1116)" font-family="Times-Roman, Times" font-size="20"><tspan x="0" y="0">...1101</tspan></text><text transform="translate(1023 1116)" font-family="Times-Roman, Times" font-size="20"><tspan x="0" y="0">...1110</tspan></text><text transform="translate(1095 1116)" font-family="Times-Roman, Times" font-size="20"><tspan x="0" y="0">...1111</tspan></text><text transform="translate(36 1071)" font-family="Times-Roman, Times" font-size="40"><tspan x="0" y="0">...000</tspan></text><text transform="translate(180 1071)" font-family="Times-Roman, Times" font-size="40"><tspan x="0" y="0">...001</tspan></text><text transform="translate(324 1071)" font-family="Times-Roman, Times" font-size="40"><tspan x="0" y="0">...010</tspan></text><text transform="translate(468 1071)" font-family="Times-Roman, Times" font-size="40"><tspan x="0" y="0">...011</tspan></text><text transform="translate(612 1071)" font-family="Times-Roman, Times" font-size="40"><tspan x="0" y="0">...100</tspan></text><text transform="translate(756 1071)" font-family="Times-Roman, Times" font-size="40"><tspan x="0" y="0">...101</tspan></text><text transform="translate(900 1071)" font-family="Times-Roman, Times" font-size="40"><tspan x="0" y="0">...110</tspan></text><text transform="translate(1044 1071)" font-family="Times-Roman, Times" font-size="40"><tspan x="0" y="0">...111</tspan></text><text transform="translate(83 990)" font-family="Times-Roman, Times" font-size="80"><tspan x="0" y="0">...00</tspan></text><text transform="translate(371 990)" font-family="Times-Roman, Times" font-size="80"><tspan x="0" y="0">...01</tspan></text><text transform="translate(659 981)" font-family="Times-Roman, Times" font-size="80"><tspan x="0" y="0">...10</tspan></text><text transform="translate(947 981)" font-family="Times-Roman, Times" font-size="80"><tspan x="0" y="0">...11</tspan></text><text transform="translate(197 801)" font-family="Times-Roman, Times" font-size="160"><tspan x="0" y="0">...0</tspan></text><text transform="translate(773 801)" font-family="Times-Roman, Times" font-size="160"><tspan x="0" y="0">...1</tspan></text><path fill="none" stroke="#000" stroke-width="2" d="M9 9h1152v576H9z"/><text transform="translate(465 441)" font-family="Times-Roman, Times" font-size="320"><tspan x="0" y="0">...</tspan></text></svg>