<svg data-name="Layer 1" xmlns="http://www.w3.org/2000/svg" width="558" height="504"><g fill="none" stroke="#000"><path d="M444.5 331.7L351 279m72-126V45H135v108m0 0l-93.5 54 144 249.4 93.5-54"/><path d="M279.013 402.353l144-249.416 93.53 54-144 249.416z"/><g fill="#bfdff2"><circle cx="135" cy="45" r="36"/><circle cx="135" cy="153" r="36"/><circle cx="423" cy="153" r="36"/><circle cx="423" cy="45" r="36"/><circle cx="185.5" cy="456.4" r="36"/><circle cx="279" cy="402.4" r="36"/><circle cx="41.5" cy="207" r="36"/><circle cx="516.5" cy="207" r="36"/><circle cx="351" cy="277.7" r="36"/><circle cx="372.5" cy="456.4" r="36"/></g><g fill="#ffefbf"><circle cx="279" cy="45" r="36"/><circle cx="113.5" cy="331.7" r="36"/><circle cx="135" cy="153" r="36"/><circle cx="423" cy="153" r="36"/><circle cx="444.5" cy="331.7" r="36"/><circle cx="279" cy="402.4" r="36"/></g></g><g font-family="Times-Roman,Times" font-size="36"><text transform="translate(324 289)"><tspan x="0" y="0">112</tspan></text><text transform="translate(414 343)"><tspan x="0" y="0">113</tspan></text><text transform="translate(90 343)"><tspan x="0" y="0">311</tspan></text><text transform="translate(252 55)"><tspan x="0" y="0">131</tspan></text><text transform="translate(108 163)"><tspan x="0" y="0">221</tspan></text><text transform="translate(396 163)"><tspan x="0" y="0">122</tspan></text><text transform="translate(252 415)"><tspan x="0" y="0">212</tspan></text><text transform="translate(14.5 217)"><tspan x="0" y="0">321</tspan></text><text transform="translate(108 55)"><tspan x="0" y="0">231</tspan></text><text transform="translate(396 55)"><tspan x="0" y="0">132</tspan></text><text transform="translate(489.5 217)"><tspan x="0" y="0">123</tspan></text><text transform="translate(345.5 466.4)"><tspan x="0" y="0">213</tspan></text><text transform="translate(158.5 466.4)"><tspan x="0" y="0">312</tspan></text></g></svg>