<svg xmlns="http://www.w3.org/2000/svg" width="828" height="468"><g fill="none" stroke="#000"><path d="M414 18v432M270 306c108 0 144-288 144-288M270 162c108 0 144 288 144 288m144-144C450 306 414 18 414 18m144 144c-108 0-144 288-144 288m0-432c-48 0-648 72-288 288m288 144c-48 0-648-72-288-288"/><path d="M126 162h144v144H126z"/><path d="M270 306L126 162 414 18 270 162 126 306l288 144-144-144zM414 18c48 0 648 72 288 288M414 450c48 0 648-72 288-288"/><path d="M558 162h144v144H558z"/><path d="M558 306l144-144L414 18l144 144 144 144-288 144 144-144z"/><g fill="#7fc0e6"><circle cx="126" cy="306" r="9"/><circle cx="126" cy="162" r="9"/><circle cx="270" cy="306" r="9"/><circle cx="270" cy="162" r="9"/><circle cx="702" cy="162" r="9"/><circle cx="558" cy="306" r="9"/><circle cx="414" cy="450" r="9"/><circle cx="414" cy="18" r="9"/><circle cx="558" cy="162" r="9"/><circle cx="702" cy="306" r="9"/></g></g></svg>