<svg xmlns="http://www.w3.org/2000/svg" width="2016" height="1206"><g fill="#0081cd"><path d="M90 144c0-29.8-24.2-54-54-54v108c29.8 0 54-24.2 54-54zm270 54c-29.8 0-54 24.2-54 54h108c0-29.8-24.2-54-54-54z"/><circle cx="1404" cy="1080" r="18"/><circle cx="1512" cy="1116" r="18"/><path d="M972 324c0-79.5-64.5-144-144-144v288c79.5 0 144-64.5 144-144zm-72 432c0-39.8-32.2-72-72-72v144c39.8 0 72-32.2 72-72zm-72 306v36c9.9 0 18-8.1 18-18s-8.1-18-18-18z"/><circle cx="936" cy="1116" r="18"/><path d="M828 936v72c19.9 0 36-16.1 36-36s-16.1-36-36-36z"/><circle cx="1044" cy="1044" r="36"/><path d="M252 432c59.6 0 108-48.4 108-108H144c0 59.6 48.4 108 108 108zM36 378v108c29.8 0 54-24.2 54-54s-24.2-54-54-54z"/><circle cx="1692" cy="1080" r="18"/><circle cx="1548" cy="900" r="72"/><circle cx="1404" cy="972" r="36"/><circle cx="1116" cy="1080" r="18"/><path d="M414 720c0 29.8 24.2 54 54 54V666c-29.8 0-54 24.2-54 54zM306 828h108c0-29.8-24.2-54-54-54s-54 24.2-54 54zm-108 0c0-29.8-24.2-54-54-54s-54 24.2-54 54h108z"/><circle cx="1656" cy="1116" r="18"/><circle cx="1584" cy="1116" r="18"/><path d="M1944 972c0 19.9 16.1 36 36 36v-72c-19.9 0-36 16.1-36 36z"/><circle cx="1908" cy="1044" r="36"/><circle cx="1764" cy="1044" r="36"/><circle cx="1368" cy="1116" r="18"/><circle cx="1296" cy="1116" r="18"/><path d="M252 1008c59.6 0 108-48.4 108-108H144c0 59.6 48.4 108 108 108zm162 0c0 29.8 24.2 54 54 54V954c-29.8 0-54 24.2-54 54zm-270 54c-29.8 0-54 24.2-54 54h108c0-29.8-24.2-54-54-54zm1818 18c0 9.9 8.1 18 18 18v-36c-9.9 0-18 8.1-18 18z"/><circle cx="1872" cy="1116" r="18"/><circle cx="1692" cy="612" r="144"/><path d="M1908 756c0 39.8 32.2 72 72 72V684c-39.8 0-72 32.2-72 72z"/><circle cx="1260" cy="900" r="72"/><circle cx="1188" cy="1044" r="36"/><circle cx="1008" cy="1116" r="18"/><circle cx="1116" cy="1134" r="9"/><circle cx="1170" cy="1152" r="9"/><path d="M828 1125v18c5 0 9-4 9-9s-4-9-9-9z"/><circle cx="882" cy="1152" r="9"/><circle cx="1260" cy="1134" r="9"/><circle cx="972" cy="1134" r="9"/><circle cx="1242" cy="1152" r="9"/><circle cx="1206" cy="1152" r="9"/><circle cx="1098" cy="1152" r="9"/><circle cx="1062" cy="1152" r="9"/><circle cx="1350" cy="1152" r="9"/><circle cx="918" cy="1152" r="9"/><circle cx="1404" cy="1134" r="9"/><circle cx="1458" cy="1152" r="9"/><circle cx="1692" cy="1134" r="9"/><circle cx="1746" cy="1152" r="9"/><circle cx="1548" cy="1134" r="9"/><circle cx="1836" cy="1134" r="9"/><circle cx="1818" cy="1152" r="9"/><circle cx="1782" cy="1152" r="9"/><path d="M1971 1134c0 5 4 9 9 9v-18c-5 0-9 4-9 9z"/><circle cx="1962" cy="1152" r="9"/><circle cx="1926" cy="1152" r="9"/><circle cx="1494" cy="1152" r="9"/><circle cx="1638" cy="1152" r="9"/><circle cx="972" cy="1161" r="4.5"/><path d="M999 1165.5c-2.5 0-4.5 2-4.5 4.5h9c0-2.5-2-4.5-4.5-4.5zm-171-9v9c2.5 0 4.5-2 4.5-4.5s-2-4.5-4.5-4.5zm27 9c-2.5 0-4.5 2-4.5 4.5h9c0-2.5-2-4.5-4.5-4.5z"/><circle cx="1044" cy="1161" r="4.5"/><circle cx="900" cy="1161" r="4.5"/><path d="M1035 1165.5c-2.5 0-4.5 2-4.5 4.5h9c0-2.5-2-4.5-4.5-4.5zm-18 0c-2.5 0-4.5 2-4.5 4.5h9c0-2.5-2-4.5-4.5-4.5zm-54 0c-2.5 0-4.5 2-4.5 4.5h9c0-2.5-2-4.5-4.5-4.5zm-18 0c-2.5 0-4.5 2-4.5 4.5h9c0-2.5-2-4.5-4.5-4.5zm144 0c-2.5 0-4.5 2-4.5 4.5h9c0-2.5-2-4.5-4.5-4.5zm-216 0c-2.5 0-4.5 2-4.5 4.5h9c0-2.5-2-4.5-4.5-4.5z"/><circle cx="1548" cy="1161" r="4.5"/><path d="M1575 1165.5c-2.5 0-4.5 2-4.5 4.5h9c0-2.5-2-4.5-4.5-4.5z"/><circle cx="1404" cy="1161" r="4.5"/><path d="M1431 1165.5c-2.5 0-4.5 2-4.5 4.5h9c0-2.5-2-4.5-4.5-4.5z"/><circle cx="1476" cy="1161" r="4.5"/><path d="M1611 1165.5c-2.5 0-4.5 2-4.5 4.5h9c0-2.5-2-4.5-4.5-4.5zm-18 0c-2.5 0-4.5 2-4.5 4.5h9c0-2.5-2-4.5-4.5-4.5zm-54 0c-2.5 0-4.5 2-4.5 4.5h9c0-2.5-2-4.5-4.5-4.5zm-18 0c-2.5 0-4.5 2-4.5 4.5h9c0-2.5-2-4.5-4.5-4.5zm-72 0c-2.5 0-4.5 2-4.5 4.5h9c0-2.5-2-4.5-4.5-4.5z"/><circle cx="1116" cy="1161" r="4.5"/><path d="M1143 1165.5c-2.5 0-4.5 2-4.5 4.5h9c0-2.5-2-4.5-4.5-4.5z"/><circle cx="1260" cy="1161" r="4.5"/><path d="M1287 1165.5c-2.5 0-4.5 2-4.5 4.5h9c0-2.5-2-4.5-4.5-4.5z"/><circle cx="1188" cy="1161" r="4.5"/><circle cx="1332" cy="1161" r="4.5"/><path d="M1323 1165.5c-2.5 0-4.5 2-4.5 4.5h9c0-2.5-2-4.5-4.5-4.5zm-18 0c-2.5 0-4.5 2-4.5 4.5h9c0-2.5-2-4.5-4.5-4.5zm90 0c-2.5 0-4.5 2-4.5 4.5h9c0-2.5-2-4.5-4.5-4.5zm-18 0c-2.5 0-4.5 2-4.5 4.5h9c0-2.5-2-4.5-4.5-4.5z"/><circle cx="1692" cy="1161" r="4.5"/><path d="M1719 1165.5c-2.5 0-4.5 2-4.5 4.5h9c0-2.5-2-4.5-4.5-4.5zm18 0c-2.5 0-4.5 2-4.5 4.5h9c0-2.5-2-4.5-4.5-4.5z"/><circle cx="1620" cy="1161" r="4.5"/><path d="M1683 1165.5c-2.5 0-4.5 2-4.5 4.5h9c0-2.5-2-4.5-4.5-4.5zm-18 0c-2.5 0-4.5 2-4.5 4.5h9c0-2.5-2-4.5-4.5-4.5zm-504 0c-2.5 0-4.5 2-4.5 4.5h9c0-2.5-2-4.5-4.5-4.5zm72 0c-2.5 0-4.5 2-4.5 4.5h9c0-2.5-2-4.5-4.5-4.5z"/><circle cx="1836" cy="1161" r="4.5"/><path d="M1863 1165.5c-2.5 0-4.5 2-4.5 4.5h9c0-2.5-2-4.5-4.5-4.5z"/><circle cx="1764" cy="1161" r="4.5"/><path d="M1899 1165.5c-2.5 0-4.5 2-4.5 4.5h9c0-2.5-2-4.5-4.5-4.5zm-18 0c-2.5 0-4.5 2-4.5 4.5h9c0-2.5-2-4.5-4.5-4.5zm-72 0c-2.5 0-4.5 2-4.5 4.5h9c0-2.5-2-4.5-4.5-4.5z"/><circle cx="1908" cy="1161" r="4.5"/><path d="M1975.5 1161c0 2.5 2 4.5 4.5 4.5v-9c-2.5 0-4.5 2-4.5 4.5zm-22.5 4.5c-2.5 0-4.5 2-4.5 4.5h9c0-2.5-2-4.5-4.5-4.5z"/></g><g fill="#fec200"><path d="M252 144c59.6 0 108-48.4 108-108H144c0 59.6 48.4 108 108 108zm162 0c0 29.8 24.2 54 54 54V90c-29.8 0-54 24.2-54 54zm-270 54c-29.8 0-54 24.2-54 54h108c0-29.8-24.2-54-54-54z"/><circle cx="1440" cy="1116" r="18"/><path d="M1404 324c159.1 0 288-128.9 288-288h-576c0 159.1 128.9 288 288 288zm432 0c0 79.5 64.5 144 144 144V180c-79.5 0-144 64.5-144 144z"/><circle cx="1116" cy="612" r="144"/><circle cx="900" cy="1044" r="36"/><circle cx="864" cy="1116" r="18"/><circle cx="972" cy="900" r="72"/><path d="M414 432c0 29.8 24.2 54 54 54V378c-29.8 0-54 24.2-54 54zm-54 54c-29.8 0-54 24.2-54 54h108c0-29.8-24.2-54-54-54zm-216 0c-29.8 0-54 24.2-54 54h108c0-29.8-24.2-54-54-54z"/><circle cx="1800" cy="1116" r="18"/><circle cx="1728" cy="1116" r="18"/><circle cx="1620" cy="1044" r="36"/><circle cx="1476" cy="1044" r="36"/><circle cx="1224" cy="1116" r="18"/><circle cx="1152" cy="1116" r="18"/><path d="M360 612H144c0 59.6 48.4 108 108 108s108-48.4 108-108zM36 666v108c29.8 0 54-24.2 54-54s-24.2-54-54-54z"/><circle cx="1548" cy="1080" r="18"/><circle cx="1836" cy="900" r="72"/><circle cx="1692" cy="972" r="36"/><circle cx="1332" cy="1044" r="36"/><circle cx="1260" cy="1080" r="18"/><path d="M36 954v108c29.8 0 54-24.2 54-54s-24.2-54-54-54zm324 108c-29.8 0-54 24.2-54 54h108c0-29.8-24.2-54-54-54z"/><circle cx="1836" cy="1080" r="18"/><circle cx="1944" cy="1116" r="18"/><circle cx="1404" cy="756" r="72"/><circle cx="1116" cy="972" r="36"/><circle cx="972" cy="1080" r="18"/><circle cx="1080" cy="1116" r="18"/><circle cx="1134" cy="1152" r="9"/><circle cx="846" cy="1152" r="9"/><circle cx="1314" cy="1152" r="9"/><circle cx="1278" cy="1152" r="9"/><circle cx="1026" cy="1152" r="9"/><circle cx="990" cy="1152" r="9"/><circle cx="1188" cy="1134" r="9"/><circle cx="1044" cy="1134" r="9"/><circle cx="1332" cy="1134" r="9"/><circle cx="1386" cy="1152" r="9"/><circle cx="900" cy="1134" r="9"/><circle cx="954" cy="1152" r="9"/><circle cx="1422" cy="1152" r="9"/><circle cx="1710" cy="1152" r="9"/><circle cx="1602" cy="1152" r="9"/><circle cx="1566" cy="1152" r="9"/><circle cx="1890" cy="1152" r="9"/><circle cx="1854" cy="1152" r="9"/><circle cx="1764" cy="1134" r="9"/><circle cx="1908" cy="1134" r="9"/><circle cx="1476" cy="1134" r="9"/><circle cx="1530" cy="1152" r="9"/><circle cx="1620" cy="1134" r="9"/><circle cx="1674" cy="1152" r="9"/><path d="M981 1165.5c-2.5 0-4.5 2-4.5 4.5h9c0-2.5-2-4.5-4.5-4.5zm-144 0c-2.5 0-4.5 2-4.5 4.5h9c0-2.5-2-4.5-4.5-4.5zm234 0c-2.5 0-4.5 2-4.5 4.5h9c0-2.5-2-4.5-4.5-4.5zm-18 0c-2.5 0-4.5 2-4.5 4.5h9c0-2.5-2-4.5-4.5-4.5zm-126 0c-2.5 0-4.5 2-4.5 4.5h9c0-2.5-2-4.5-4.5-4.5zm-18 0c-2.5 0-4.5 2-4.5 4.5h9c0-2.5-2-4.5-4.5-4.5z"/><circle cx="1008" cy="1161" r="4.5"/><circle cx="936" cy="1161" r="4.5"/><circle cx="1080" cy="1161" r="4.5"/><path d="M1107 1165.5c-2.5 0-4.5 2-4.5 4.5h9c0-2.5-2-4.5-4.5-4.5z"/><circle cx="864" cy="1161" r="4.5"/><path d="M891 1165.5c-2.5 0-4.5 2-4.5 4.5h9c0-2.5-2-4.5-4.5-4.5zm666 0c-2.5 0-4.5 2-4.5 4.5h9c0-2.5-2-4.5-4.5-4.5zm-144 0c-2.5 0-4.5 2-4.5 4.5h9c0-2.5-2-4.5-4.5-4.5zm90 0c-2.5 0-4.5 2-4.5 4.5h9c0-2.5-2-4.5-4.5-4.5zm-18 0c-2.5 0-4.5 2-4.5 4.5h9c0-2.5-2-4.5-4.5-4.5z"/><circle cx="1584" cy="1161" r="4.5"/><circle cx="1512" cy="1161" r="4.5"/><circle cx="1440" cy="1161" r="4.5"/><path d="M1467 1165.5c-2.5 0-4.5 2-4.5 4.5h9c0-2.5-2-4.5-4.5-4.5zm-342 0c-2.5 0-4.5 2-4.5 4.5h9c0-2.5-2-4.5-4.5-4.5zm144 0c-2.5 0-4.5 2-4.5 4.5h9c0-2.5-2-4.5-4.5-4.5zm-54 0c-2.5 0-4.5 2-4.5 4.5h9c0-2.5-2-4.5-4.5-4.5zm-18 0c-2.5 0-4.5 2-4.5 4.5h9c0-2.5-2-4.5-4.5-4.5zm162 0c-2.5 0-4.5 2-4.5 4.5h9c0-2.5-2-4.5-4.5-4.5zm-18 0c-2.5 0-4.5 2-4.5 4.5h9c0-2.5-2-4.5-4.5-4.5z"/><circle cx="1296" cy="1161" r="4.5"/><circle cx="1368" cy="1161" r="4.5"/><path d="M1701 1165.5c-2.5 0-4.5 2-4.5 4.5h9c0-2.5-2-4.5-4.5-4.5z"/><circle cx="1728" cy="1161" r="4.5"/><path d="M1755 1165.5c-2.5 0-4.5 2-4.5 4.5h9c0-2.5-2-4.5-4.5-4.5zm-108 0c-2.5 0-4.5 2-4.5 4.5h9c0-2.5-2-4.5-4.5-4.5zm-18 0c-2.5 0-4.5 2-4.5 4.5h9c0-2.5-2-4.5-4.5-4.5z"/><circle cx="1656" cy="1161" r="4.5"/><circle cx="1152" cy="1161" r="4.5"/><path d="M1179 1165.5c-2.5 0-4.5 2-4.5 4.5h9c0-2.5-2-4.5-4.5-4.5z"/><circle cx="1224" cy="1161" r="4.5"/><path d="M1251 1165.5c-2.5 0-4.5 2-4.5 4.5h9c0-2.5-2-4.5-4.5-4.5zm594 0c-2.5 0-4.5 2-4.5 4.5h9c0-2.5-2-4.5-4.5-4.5zm-54 0c-2.5 0-4.5 2-4.5 4.5h9c0-2.5-2-4.5-4.5-4.5zm-18 0c-2.5 0-4.5 2-4.5 4.5h9c0-2.5-2-4.5-4.5-4.5z"/><circle cx="1872" cy="1161" r="4.5"/><circle cx="1800" cy="1161" r="4.5"/><path d="M1827 1165.5c-2.5 0-4.5 2-4.5 4.5h9c0-2.5-2-4.5-4.5-4.5zm108 0c-2.5 0-4.5 2-4.5 4.5h9c0-2.5-2-4.5-4.5-4.5zm-18 0c-2.5 0-4.5 2-4.5 4.5h9c0-2.5-2-4.5-4.5-4.5z"/><circle cx="1944" cy="1161" r="4.5"/><path d="M1971 1165.5c-2.5 0-4.5 2-4.5 4.5h9c0-2.5-2-4.5-4.5-4.5z"/></g><path d="M36 36h432v216H36zm1368 1008h144v72h-144zM828 36h1152v576H828zm0 576h576v288H828zm0 432h144v72H828zm0-144h288v144H828zM36 324h432v216H36zm1656 720h144v72h-144zm-288-144h288v144h-288zm-288 144h144v72h-144zM36 612h432v216H36zm1512 432h144v72h-144zm144-144h288v144h-288zm-432 144h144v72h-144zM36 900h432v216H36zm1800 144h144v72h-144zm-432-432h576v288h-576zm-288 288h288v144h-288zm-144 144h144v72H972zm144 72h72v36h-72zm-288 0h72v36h-72zm432 0h72v36h-72zm-288 0h72v36h-72zm216 0h72v36h-72zm-144 0h72v36h-72zm288 0h72v36h-72zm-432 0h72v36h-72zm504 0h72v36h-72zm288 0h72v36h-72zm-144 0h72v36h-72zm288 0h72v36h-72zm-72 0h72v36h-72zm144 0h72v36h-72zm-432 0h72v36h-72zm144 0h72v36h-72zm-648 36h36v18h-36zm-144 0h36v18h-36zm216 0h36v18h-36zm-144 0h36v18h-36zm108 0h36v18h-36zm-72 0h36v18h-36zm144 0h36v18h-36zm-216 0h36v18h-36zm684 0h36v18h-36zm-144 0h36v18h-36zm72 0h36v18h-36zm108 0h36v18h-36zm-72 0h36v18h-36zm-72 0h36v18h-36zm-324 0h36v18h-36zm144 0h36v18h-36zm-72 0h36v18h-36zm144 0h36v18h-36zm-36 0h36v18h-36zm72 0h36v18h-36zm324 0h36v18h-36zm36 0h36v18h-36zm-108 0h36v18h-36zm36 0h36v18h-36zm-504 0h36v18h-36zm72 0h36v18h-36zm612 0h36v18h-36zm-72 0h36v18h-36zm108 0h36v18h-36zm-72 0h36v18h-36zm108 0h36v18h-36zm36 0h36v18h-36z" fill="none" stroke="#000" stroke-width="2"/></svg>