<svg xmlns="http://www.w3.org/2000/svg" width="3510" height="2223"><g stroke="#000"><path d="M18 1476h2169v729H18v-729zm3474 9V756l-729 729V756l729 729zM18 747h2169v729H18V747zm0-729h2169v729H18V18z" fill="#7fc0e6"/><g fill="none"><path d="M1098 2196h-9v-9h9"/><path d="M1098 2178l-9 9-9-9v27l9-9 9 9"/><path d="M1089 2205l-9-9-9 9m18-27l-9 9-9-9m27-9h-9v-9h9"/><path d="M1098 2151l-9 9-9-9v27l9-9 9 9"/><path d="M1089 2178l-9-9-9 9m18-27l-9 9-9-9m27-9h-9v-9h9"/><path d="M1098 2124l-9 9-9-9v27l9-9 9 9"/><path d="M1089 2151l-9-9-9 9m18-27l-9 9-9-9m27 54h-54v-27h54"/><path d="M1071 2124l-27 27-27-27v81l27-27 27 27"/><path d="M1044 2205l-27-27-27 27m54-81l-27 27-27-27m108-9h-9v-9h9"/><path d="M1098 2097l-9 9-9-9v27l9-9 9 9"/><path d="M1089 2124l-9-9-9 9m18-27l-9 9-9-9m27-9h-9v-9h9"/><path d="M1098 2070l-9 9-9-9v27l9-9 9 9"/><path d="M1089 2097l-9-9-9 9m18-27l-9 9-9-9m27-9h-9v-9h9"/><path d="M1098 2043l-9 9-9-9v27l9-9 9 9"/><path d="M1089 2070l-9-9-9 9m18-27l-9 9-9-9m27 54h-54v-27h54"/><path d="M1071 2043l-27 27-27-27v81l27-27 27 27"/><path d="M1044 2124l-27-27-27 27m54-81l-27 27-27-27m108-9h-9v-9h9"/><path d="M1098 2016l-9 9-9-9v27l9-9 9 9"/><path d="M1089 2043l-9-9-9 9m18-27l-9 9-9-9m27-9h-9v-9h9"/><path d="M1098 1989l-9 9-9-9v27l9-9 9 9"/><path d="M1089 2016l-9-9-9 9m18-27l-9 9-9-9m27-9h-9v-9h9"/><path d="M1098 1962l-9 9-9-9v27l9-9 9 9"/><path d="M1089 1989l-9-9-9 9m18-27l-9 9-9-9m27 54h-54v-27h54"/><path d="M1071 1962l-27 27-27-27v81l27-27 27 27"/><path d="M1044 2043l-27-27-27 27m54-81l-27 27-27-27m108 162H909v-81h189"/><path d="M990 1962l-81 81-81-81v243l81-81 81 81"/><path d="M909 2205l-81-81-81 81m162-243l-81 81-81-81m351-9h-9v-9h9"/><path d="M1098 1935l-9 9-9-9v27l9-9 9 9"/><path d="M1089 1962l-9-9-9 9m18-27l-9 9-9-9m27-9h-9v-9h9"/><path d="M1098 1908l-9 9-9-9v27l9-9 9 9"/><path d="M1089 1935l-9-9-9 9m18-27l-9 9-9-9m27-9h-9v-9h9"/><path d="M1098 1881l-9 9-9-9v27l9-9 9 9"/><path d="M1089 1908l-9-9-9 9m18-27l-9 9-9-9m27 54h-54v-27h54"/><path d="M1071 1881l-27 27-27-27v81l27-27 27 27"/><path d="M1044 1962l-27-27-27 27m54-81l-27 27-27-27m108-9h-9v-9h9"/><path d="M1098 1854l-9 9-9-9v27l9-9 9 9"/><path d="M1089 1881l-9-9-9 9m18-27l-9 9-9-9m27-9h-9v-9h9"/><path d="M1098 1827l-9 9-9-9v27l9-9 9 9"/><path d="M1089 1854l-9-9-9 9m18-27l-9 9-9-9m27-9h-9v-9h9"/><path d="M1098 1800l-9 9-9-9v27l9-9 9 9"/><path d="M1089 1827l-9-9-9 9m18-27l-9 9-9-9m27 54h-54v-27h54"/><path d="M1071 1800l-27 27-27-27v81l27-27 27 27"/><path d="M1044 1881l-27-27-27 27m54-81l-27 27-27-27m108-9h-9v-9h9"/><path d="M1098 1773l-9 9-9-9v27l9-9 9 9"/><path d="M1089 1800l-9-9-9 9m18-27l-9 9-9-9m27-9h-9v-9h9"/><path d="M1098 1746l-9 9-9-9v27l9-9 9 9"/><path d="M1089 1773l-9-9-9 9m18-27l-9 9-9-9m27-9h-9v-9h9"/><path d="M1098 1719l-9 9-9-9v27l9-9 9 9"/><path d="M1089 1746l-9-9-9 9m18-27l-9 9-9-9m27 54h-54v-27h54"/><path d="M1071 1719l-27 27-27-27v81l27-27 27 27"/><path d="M1044 1800l-27-27-27 27m54-81l-27 27-27-27m108 162H909v-81h189"/><path d="M990 1719l-81 81-81-81v243l81-81 81 81"/><path d="M909 1962l-81-81-81 81m162-243l-81 81-81-81m351-9h-9v-9h9"/><path d="M1098 1692l-9 9-9-9v27l9-9 9 9"/><path d="M1089 1719l-9-9-9 9m18-27l-9 9-9-9m27-9h-9v-9h9"/><path d="M1098 1665l-9 9-9-9v27l9-9 9 9"/><path d="M1089 1692l-9-9-9 9m18-27l-9 9-9-9m27-9h-9v-9h9"/><path d="M1098 1638l-9 9-9-9v27l9-9 9 9"/><path d="M1089 1665l-9-9-9 9m18-27l-9 9-9-9m27 54h-54v-27h54"/><path d="M1071 1638l-27 27-27-27v81l27-27 27 27"/><path d="M1044 1719l-27-27-27 27m54-81l-27 27-27-27m108-9h-9v-9h9"/><path d="M1098 1611l-9 9-9-9v27l9-9 9 9"/><path d="M1089 1638l-9-9-9 9m18-27l-9 9-9-9m27-9h-9v-9h9"/><path d="M1098 1584l-9 9-9-9v27l9-9 9 9"/><path d="M1089 1611l-9-9-9 9m18-27l-9 9-9-9m27-9h-9v-9h9"/><path d="M1098 1557l-9 9-9-9v27l9-9 9 9"/><path d="M1089 1584l-9-9-9 9m18-27l-9 9-9-9m27 54h-54v-27h54"/><path d="M1071 1557l-27 27-27-27v81l27-27 27 27"/><path d="M1044 1638l-27-27-27 27m54-81l-27 27-27-27m108-9h-9v-9h9"/><path d="M1098 1530l-9 9-9-9v27l9-9 9 9"/><path d="M1089 1557l-9-9-9 9m18-27l-9 9-9-9m27-9h-9v-9h9"/><path d="M1098 1503l-9 9-9-9v27l9-9 9 9"/><path d="M1089 1530l-9-9-9 9m18-27l-9 9-9-9m27-9h-9v-9h9"/><path d="M1098 1476l-9 9-9-9v27l9-9 9 9"/><path d="M1089 1503l-9-9-9 9m18-27l-9 9-9-9m27 54h-54v-27h54"/><path d="M1071 1476l-27 27-27-27v81l27-27 27 27"/><path d="M1044 1557l-27-27-27 27m54-81l-27 27-27-27m108 162H909v-81h189"/><path d="M990 1476l-81 81-81-81v243l81-81 81 81"/><path d="M909 1719l-81-81-81 81m162-243l-81 81-81-81m351 486H504v-243h594"/><path d="M261 1476v729l243-243 243 243m0-729l-243 243-243-243"/><path d="M504 2205l-243-243-243 243m486-729l-243 243-243-243m1089 720h9v-9h-9"/><path d="M1107 2178l9 9 9-9v27l-9-9-9 9"/><path d="M1116 2205l9-9 9 9m-18-27l9 9 9-9m-27-9h9v-9h-9"/><path d="M1107 2151l9 9 9-9v27l-9-9-9 9"/><path d="M1116 2178l9-9 9 9m-18-27l9 9 9-9m-27-9h9v-9h-9"/><path d="M1107 2124l9 9 9-9v27l-9-9-9 9"/><path d="M1116 2151l9-9 9 9m-18-27l9 9 9-9m-27 54h54v-27h-54"/><path d="M1134 2124l27 27 27-27v81l-27-27-27 27"/><path d="M1161 2205l27-27 27 27m-54-81l27 27 27-27m-108-9h9v-9h-9"/><path d="M1107 2097l9 9 9-9v27l-9-9-9 9"/><path d="M1116 2124l9-9 9 9m-18-27l9 9 9-9m-27-9h9v-9h-9"/><path d="M1107 2070l9 9 9-9v27l-9-9-9 9"/><path d="M1116 2097l9-9 9 9m-18-27l9 9 9-9m-27-9h9v-9h-9"/><path d="M1107 2043l9 9 9-9v27l-9-9-9 9"/><path d="M1116 2070l9-9 9 9m-18-27l9 9 9-9m-27 54h54v-27h-54"/><path d="M1134 2043l27 27 27-27v81l-27-27-27 27"/><path d="M1161 2124l27-27 27 27m-54-81l27 27 27-27m-108-9h9v-9h-9"/><path d="M1107 2016l9 9 9-9v27l-9-9-9 9"/><path d="M1116 2043l9-9 9 9m-18-27l9 9 9-9m-27-9h9v-9h-9"/><path d="M1107 1989l9 9 9-9v27l-9-9-9 9"/><path d="M1116 2016l9-9 9 9m-18-27l9 9 9-9m-27-9h9v-9h-9"/><path d="M1107 1962l9 9 9-9v27l-9-9-9 9"/><path d="M1116 1989l9-9 9 9m-18-27l9 9 9-9m-27 54h54v-27h-54"/><path d="M1134 1962l27 27 27-27v81l-27-27-27 27"/><path d="M1161 2043l27-27 27 27m-54-81l27 27 27-27m-108 162h189v-81h-189"/><path d="M1215 1962l81 81 81-81v243l-81-81-81 81"/><path d="M1296 2205l81-81 81 81m-162-243l81 81 81-81m-351-9h9v-9h-9"/><path d="M1107 1935l9 9 9-9v27l-9-9-9 9"/><path d="M1116 1962l9-9 9 9m-18-27l9 9 9-9m-27-9h9v-9h-9"/><path d="M1107 1908l9 9 9-9v27l-9-9-9 9"/><path d="M1116 1935l9-9 9 9m-18-27l9 9 9-9m-27-9h9v-9h-9"/><path d="M1107 1881l9 9 9-9v27l-9-9-9 9"/><path d="M1116 1908l9-9 9 9m-18-27l9 9 9-9m-27 54h54v-27h-54"/><path d="M1134 1881l27 27 27-27v81l-27-27-27 27"/><path d="M1161 1962l27-27 27 27m-54-81l27 27 27-27m-108-9h9v-9h-9"/><path d="M1107 1854l9 9 9-9v27l-9-9-9 9"/><path d="M1116 1881l9-9 9 9m-18-27l9 9 9-9m-27-9h9v-9h-9"/><path d="M1107 1827l9 9 9-9v27l-9-9-9 9"/><path d="M1116 1854l9-9 9 9m-18-27l9 9 9-9m-27-9h9v-9h-9"/><path d="M1107 1800l9 9 9-9v27l-9-9-9 9"/><path d="M1116 1827l9-9 9 9m-18-27l9 9 9-9m-27 54h54v-27h-54"/><path d="M1134 1800l27 27 27-27v81l-27-27-27 27"/><path d="M1161 1881l27-27 27 27m-54-81l27 27 27-27m-108-9h9v-9h-9"/><path d="M1107 1773l9 9 9-9v27l-9-9-9 9"/><path d="M1116 1800l9-9 9 9m-18-27l9 9 9-9m-27-9h9v-9h-9"/><path d="M1107 1746l9 9 9-9v27l-9-9-9 9"/><path d="M1116 1773l9-9 9 9m-18-27l9 9 9-9m-27-9h9v-9h-9"/><path d="M1107 1719l9 9 9-9v27l-9-9-9 9"/><path d="M1116 1746l9-9 9 9m-18-27l9 9 9-9m-27 54h54v-27h-54"/><path d="M1134 1719l27 27 27-27v81l-27-27-27 27"/><path d="M1161 1800l27-27 27 27m-54-81l27 27 27-27m-108 162h189v-81h-189"/><path d="M1215 1719l81 81 81-81v243l-81-81-81 81"/><path d="M1296 1962l81-81 81 81m-162-243l81 81 81-81m-351-9h9v-9h-9"/><path d="M1107 1692l9 9 9-9v27l-9-9-9 9"/><path d="M1116 1719l9-9 9 9m-18-27l9 9 9-9m-27-9h9v-9h-9"/><path d="M1107 1665l9 9 9-9v27l-9-9-9 9"/><path d="M1116 1692l9-9 9 9m-18-27l9 9 9-9m-27-9h9v-9h-9"/><path d="M1107 1638l9 9 9-9v27l-9-9-9 9"/><path d="M1116 1665l9-9 9 9m-18-27l9 9 9-9m-27 54h54v-27h-54"/><path d="M1134 1638l27 27 27-27v81l-27-27-27 27"/><path d="M1161 1719l27-27 27 27m-54-81l27 27 27-27m-108-9h9v-9h-9"/><path d="M1107 1611l9 9 9-9v27l-9-9-9 9"/><path d="M1116 1638l9-9 9 9m-18-27l9 9 9-9m-27-9h9v-9h-9"/><path d="M1107 1584l9 9 9-9v27l-9-9-9 9"/><path d="M1116 1611l9-9 9 9m-18-27l9 9 9-9m-27-9h9v-9h-9"/><path d="M1107 1557l9 9 9-9v27l-9-9-9 9"/><path d="M1116 1584l9-9 9 9m-18-27l9 9 9-9m-27 54h54v-27h-54"/><path d="M1134 1557l27 27 27-27v81l-27-27-27 27"/><path d="M1161 1638l27-27 27 27m-54-81l27 27 27-27m-108-9h9v-9h-9"/><path d="M1107 1530l9 9 9-9v27l-9-9-9 9"/><path d="M1116 1557l9-9 9 9m-18-27l9 9 9-9m-27-9h9v-9h-9"/><path d="M1107 1503l9 9 9-9v27l-9-9-9 9"/><path d="M1116 1530l9-9 9 9m-18-27l9 9 9-9m-27-9h9v-9h-9"/><path d="M1107 1476l9 9 9-9v27l-9-9-9 9"/><path d="M1116 1503l9-9 9 9m-18-27l9 9 9-9m-27 54h54v-27h-54"/><path d="M1134 1476l27 27 27-27v81l-27-27-27 27"/><path d="M1161 1557l27-27 27 27m-54-81l27 27 27-27m-108 162h189v-81h-189"/><path d="M1215 1476l81 81 81-81v243l-81-81-81 81"/><path d="M1296 1719l81-81 81 81m-162-243l81 81 81-81m-351 486h594v-243h-594"/><path d="M1944 1476v729l-243-243-243 243m0-729l243 243 243-243"/><path d="M1701 2205l243-243 243 243m-486-729l243 243 243-243m-1080 729l-9-9 9-9-9-9 9-9-9-9 9-9-9-9 9-9-9-9 9-9-9-9 9-9-9-9 9-9-9-9 9-9-9-9 9-9-9-9 9-9-9-9 9-9-9-9 9-9-9-9 9-9-9-9 9-9-9-9 9-9-9-9 9-9-9-9 9-9-9-9 9-9-9-9 9-9-9-9 9-9-9-9 9-9-9-9 9-9-9-9 9-9-9-9 9-9-9-9 9-9-9-9 9-9-9-9 9-9-9-9 9-9-9-9 9-9-9-9 9-9-9-9 9-9-9-9 9-9-9-9 9-9-9-9 9-9-9-9 9-9-9-9 9-9-9-9 9-9-9-9 9-9-9-9 9-9-9-9 9-9-9-9v729l9-9-9-9 9-9-9-9 9-9-9-9 9-9-9-9 9-9-9-9 9-9-9-9 9-9-9-9 9-9-9-9 9-9-9-9 9-9-9-9 9-9-9-9 9-9-9-9 9-9-9-9 9-9-9-9 9-9-9-9 9-9-9-9 9-9-9-9 9-9-9-9 9-9-9-9 9-9-9-9 9-9-9-9 9-9-9-9 9-9-9-9 9-9-9-9 9-9-9-9 9-9-9-9 9-9-9-9 9-9-9-9 9-9-9-9 9-9-9-9 9-9-9-9 9-9-9-9 9-9-9-9 9-9-9-9 9-9-9-9 9-9-9-9 9-9-9-9 9-9-9-9 9-9-9-9 9-9-9-9 9-9v729zm-9-738h-9v-9h9"/><path d="M1098 1449l-9 9-9-9v27l9-9 9 9"/><path d="M1089 1476l-9-9-9 9m18-27l-9 9-9-9m27-9h-9v-9h9"/><path d="M1098 1422l-9 9-9-9v27l9-9 9 9"/><path d="M1089 1449l-9-9-9 9m18-27l-9 9-9-9m27-9h-9v-9h9"/><path d="M1098 1395l-9 9-9-9v27l9-9 9 9"/><path d="M1089 1422l-9-9-9 9m18-27l-9 9-9-9m27 54h-54v-27h54"/><path d="M1071 1395l-27 27-27-27v81l27-27 27 27"/><path d="M1044 1476l-27-27-27 27m54-81l-27 27-27-27m108-9h-9v-9h9"/><path d="M1098 1368l-9 9-9-9v27l9-9 9 9"/><path d="M1089 1395l-9-9-9 9m18-27l-9 9-9-9m27-9h-9v-9h9"/><path d="M1098 1341l-9 9-9-9v27l9-9 9 9"/><path d="M1089 1368l-9-9-9 9m18-27l-9 9-9-9m27-9h-9v-9h9"/><path d="M1098 1314l-9 9-9-9v27l9-9 9 9"/><path d="M1089 1341l-9-9-9 9m18-27l-9 9-9-9m27 54h-54v-27h54"/><path d="M1071 1314l-27 27-27-27v81l27-27 27 27"/><path d="M1044 1395l-27-27-27 27m54-81l-27 27-27-27m108-9h-9v-9h9"/><path d="M1098 1287l-9 9-9-9v27l9-9 9 9"/><path d="M1089 1314l-9-9-9 9m18-27l-9 9-9-9m27-9h-9v-9h9"/><path d="M1098 1260l-9 9-9-9v27l9-9 9 9"/><path d="M1089 1287l-9-9-9 9m18-27l-9 9-9-9m27-9h-9v-9h9"/><path d="M1098 1233l-9 9-9-9v27l9-9 9 9"/><path d="M1089 1260l-9-9-9 9m18-27l-9 9-9-9m27 54h-54v-27h54"/><path d="M1071 1233l-27 27-27-27v81l27-27 27 27"/><path d="M1044 1314l-27-27-27 27m54-81l-27 27-27-27m108 162H909v-81h189"/><path d="M990 1233l-81 81-81-81v243l81-81 81 81"/><path d="M909 1476l-81-81-81 81m162-243l-81 81-81-81m351-9h-9v-9h9"/><path d="M1098 1206l-9 9-9-9v27l9-9 9 9"/><path d="M1089 1233l-9-9-9 9m18-27l-9 9-9-9m27-9h-9v-9h9"/><path d="M1098 1179l-9 9-9-9v27l9-9 9 9"/><path d="M1089 1206l-9-9-9 9m18-27l-9 9-9-9m27-9h-9v-9h9"/><path d="M1098 1152l-9 9-9-9v27l9-9 9 9"/><path d="M1089 1179l-9-9-9 9m18-27l-9 9-9-9m27 54h-54v-27h54"/><path d="M1071 1152l-27 27-27-27v81l27-27 27 27"/><path d="M1044 1233l-27-27-27 27m54-81l-27 27-27-27m108-9h-9v-9h9"/><path d="M1098 1125l-9 9-9-9v27l9-9 9 9"/><path d="M1089 1152l-9-9-9 9m18-27l-9 9-9-9m27-9h-9v-9h9"/><path d="M1098 1098l-9 9-9-9v27l9-9 9 9"/><path d="M1089 1125l-9-9-9 9m18-27l-9 9-9-9m27-9h-9v-9h9"/><path d="M1098 1071l-9 9-9-9v27l9-9 9 9"/><path d="M1089 1098l-9-9-9 9m18-27l-9 9-9-9m27 54h-54v-27h54"/><path d="M1071 1071l-27 27-27-27v81l27-27 27 27"/><path d="M1044 1152l-27-27-27 27m54-81l-27 27-27-27m108-9h-9v-9h9"/><path d="M1098 1044l-9 9-9-9v27l9-9 9 9"/><path d="M1089 1071l-9-9-9 9m18-27l-9 9-9-9m27-9h-9v-9h9"/><path d="M1098 1017l-9 9-9-9v27l9-9 9 9"/><path d="M1089 1044l-9-9-9 9m18-27l-9 9-9-9m27-9h-9v-9h9"/><path d="M1098 990l-9 9-9-9v27l9-9 9 9"/><path d="M1089 1017l-9-9-9 9m18-27l-9 9-9-9m27 54h-54v-27h54"/><path d="M1071 990l-27 27-27-27v81l27-27 27 27"/><path d="M1044 1071l-27-27-27 27m54-81l-27 27-27-27m108 162H909v-81h189"/><path d="M990 990l-81 81-81-81v243l81-81 81 81"/><path d="M909 1233l-81-81-81 81m162-243l-81 81-81-81m351-9h-9v-9h9"/><path d="M1098 963l-9 9-9-9v27l9-9 9 9"/><path d="M1089 990l-9-9-9 9m18-27l-9 9-9-9m27-9h-9v-9h9"/><path d="M1098 936l-9 9-9-9v27l9-9 9 9"/><path d="M1089 963l-9-9-9 9m18-27l-9 9-9-9m27-9h-9v-9h9"/><path d="M1098 909l-9 9-9-9v27l9-9 9 9"/><path d="M1089 936l-9-9-9 9m18-27l-9 9-9-9m27 54h-54v-27h54"/><path d="M1071 909l-27 27-27-27v81l27-27 27 27"/><path d="M1044 990l-27-27-27 27m54-81l-27 27-27-27m108-9h-9v-9h9"/><path d="M1098 882l-9 9-9-9v27l9-9 9 9"/><path d="M1089 909l-9-9-9 9m18-27l-9 9-9-9m27-9h-9v-9h9"/><path d="M1098 855l-9 9-9-9v27l9-9 9 9"/><path d="M1089 882l-9-9-9 9m18-27l-9 9-9-9m27-9h-9v-9h9"/><path d="M1098 828l-9 9-9-9v27l9-9 9 9"/><path d="M1089 855l-9-9-9 9m18-27l-9 9-9-9m27 54h-54v-27h54"/><path d="M1071 828l-27 27-27-27v81l27-27 27 27"/><path d="M1044 909l-27-27-27 27m54-81l-27 27-27-27m108-9h-9v-9h9"/><path d="M1098 801l-9 9-9-9v27l9-9 9 9"/><path d="M1089 828l-9-9-9 9m18-27l-9 9-9-9m27-9h-9v-9h9"/><path d="M1098 774l-9 9-9-9v27l9-9 9 9"/><path d="M1089 801l-9-9-9 9m18-27l-9 9-9-9m27-9h-9v-9h9"/><path d="M1098 747l-9 9-9-9v27l9-9 9 9"/><path d="M1089 774l-9-9-9 9m18-27l-9 9-9-9m27 54h-54v-27h54"/><path d="M1071 747l-27 27-27-27v81l27-27 27 27"/><path d="M1044 828l-27-27-27 27m54-81l-27 27-27-27m108 162H909v-81h189"/><path d="M990 747l-81 81-81-81v243l81-81 81 81"/><path d="M909 990l-81-81-81 81m162-243l-81 81-81-81m351 486H504V990h594"/><path d="M261 747v729l243-243 243 243m0-729L504 990 261 747"/><path d="M504 1476l-243-243-243 243m486-729L261 990 18 747m1089 720h9v-9h-9"/><path d="M1107 1449l9 9 9-9v27l-9-9-9 9"/><path d="M1116 1476l9-9 9 9m-18-27l9 9 9-9m-27-9h9v-9h-9"/><path d="M1107 1422l9 9 9-9v27l-9-9-9 9"/><path d="M1116 1449l9-9 9 9m-18-27l9 9 9-9m-27-9h9v-9h-9"/><path d="M1107 1395l9 9 9-9v27l-9-9-9 9"/><path d="M1116 1422l9-9 9 9m-18-27l9 9 9-9m-27 54h54v-27h-54"/><path d="M1134 1395l27 27 27-27v81l-27-27-27 27"/><path d="M1161 1476l27-27 27 27m-54-81l27 27 27-27m-108-9h9v-9h-9"/><path d="M1107 1368l9 9 9-9v27l-9-9-9 9"/><path d="M1116 1395l9-9 9 9m-18-27l9 9 9-9m-27-9h9v-9h-9"/><path d="M1107 1341l9 9 9-9v27l-9-9-9 9"/><path d="M1116 1368l9-9 9 9m-18-27l9 9 9-9m-27-9h9v-9h-9"/><path d="M1107 1314l9 9 9-9v27l-9-9-9 9"/><path d="M1116 1341l9-9 9 9m-18-27l9 9 9-9m-27 54h54v-27h-54"/><path d="M1134 1314l27 27 27-27v81l-27-27-27 27"/><path d="M1161 1395l27-27 27 27m-54-81l27 27 27-27m-108-9h9v-9h-9"/><path d="M1107 1287l9 9 9-9v27l-9-9-9 9"/><path d="M1116 1314l9-9 9 9m-18-27l9 9 9-9m-27-9h9v-9h-9"/><path d="M1107 1260l9 9 9-9v27l-9-9-9 9"/><path d="M1116 1287l9-9 9 9m-18-27l9 9 9-9m-27-9h9v-9h-9"/><path d="M1107 1233l9 9 9-9v27l-9-9-9 9"/><path d="M1116 1260l9-9 9 9m-18-27l9 9 9-9m-27 54h54v-27h-54"/><path d="M1134 1233l27 27 27-27v81l-27-27-27 27"/><path d="M1161 1314l27-27 27 27m-54-81l27 27 27-27m-108 162h189v-81h-189"/><path d="M1215 1233l81 81 81-81v243l-81-81-81 81"/><path d="M1296 1476l81-81 81 81m-162-243l81 81 81-81m-351-9h9v-9h-9"/><path d="M1107 1206l9 9 9-9v27l-9-9-9 9"/><path d="M1116 1233l9-9 9 9m-18-27l9 9 9-9m-27-9h9v-9h-9"/><path d="M1107 1179l9 9 9-9v27l-9-9-9 9"/><path d="M1116 1206l9-9 9 9m-18-27l9 9 9-9m-27-9h9v-9h-9"/><path d="M1107 1152l9 9 9-9v27l-9-9-9 9"/><path d="M1116 1179l9-9 9 9m-18-27l9 9 9-9m-27 54h54v-27h-54"/><path d="M1134 1152l27 27 27-27v81l-27-27-27 27"/><path d="M1161 1233l27-27 27 27m-54-81l27 27 27-27m-108-9h9v-9h-9"/><path d="M1107 1125l9 9 9-9v27l-9-9-9 9"/><path d="M1116 1152l9-9 9 9m-18-27l9 9 9-9m-27-9h9v-9h-9"/><path d="M1107 1098l9 9 9-9v27l-9-9-9 9"/><path d="M1116 1125l9-9 9 9m-18-27l9 9 9-9m-27-9h9v-9h-9"/><path d="M1107 1071l9 9 9-9v27l-9-9-9 9"/><path d="M1116 1098l9-9 9 9m-18-27l9 9 9-9m-27 54h54v-27h-54"/><path d="M1134 1071l27 27 27-27v81l-27-27-27 27"/><path d="M1161 1152l27-27 27 27m-54-81l27 27 27-27m-108-9h9v-9h-9"/><path d="M1107 1044l9 9 9-9v27l-9-9-9 9"/><path d="M1116 1071l9-9 9 9m-18-27l9 9 9-9m-27-9h9v-9h-9"/><path d="M1107 1017l9 9 9-9v27l-9-9-9 9"/><path d="M1116 1044l9-9 9 9m-18-27l9 9 9-9m-27-9h9v-9h-9"/><path d="M1107 990l9 9 9-9v27l-9-9-9 9"/><path d="M1116 1017l9-9 9 9m-18-27l9 9 9-9m-27 54h54v-27h-54"/><path d="M1134 990l27 27 27-27v81l-27-27-27 27"/><path d="M1161 1071l27-27 27 27m-54-81l27 27 27-27m-108 162h189v-81h-189"/><path d="M1215 990l81 81 81-81v243l-81-81-81 81"/><path d="M1296 1233l81-81 81 81m-162-243l81 81 81-81m-351-9h9v-9h-9"/><path d="M1107 963l9 9 9-9v27l-9-9-9 9"/><path d="M1116 990l9-9 9 9m-18-27l9 9 9-9m-27-9h9v-9h-9"/><path d="M1107 936l9 9 9-9v27l-9-9-9 9"/><path d="M1116 963l9-9 9 9m-18-27l9 9 9-9m-27-9h9v-9h-9"/><path d="M1107 909l9 9 9-9v27l-9-9-9 9"/><path d="M1116 936l9-9 9 9m-18-27l9 9 9-9m-27 54h54v-27h-54"/><path d="M1134 909l27 27 27-27v81l-27-27-27 27"/><path d="M1161 990l27-27 27 27m-54-81l27 27 27-27m-108-9h9v-9h-9"/><path d="M1107 882l9 9 9-9v27l-9-9-9 9"/><path d="M1116 909l9-9 9 9m-18-27l9 9 9-9m-27-9h9v-9h-9"/><path d="M1107 855l9 9 9-9v27l-9-9-9 9"/><path d="M1116 882l9-9 9 9m-18-27l9 9 9-9m-27-9h9v-9h-9"/><path d="M1107 828l9 9 9-9v27l-9-9-9 9"/><path d="M1116 855l9-9 9 9m-18-27l9 9 9-9m-27 54h54v-27h-54"/><path d="M1134 828l27 27 27-27v81l-27-27-27 27"/><path d="M1161 909l27-27 27 27m-54-81l27 27 27-27m-108-9h9v-9h-9"/><path d="M1107 801l9 9 9-9v27l-9-9-9 9"/><path d="M1116 828l9-9 9 9m-18-27l9 9 9-9m-27-9h9v-9h-9"/><path d="M1107 774l9 9 9-9v27l-9-9-9 9"/><path d="M1116 801l9-9 9 9m-18-27l9 9 9-9m-27-9h9v-9h-9"/><path d="M1107 747l9 9 9-9v27l-9-9-9 9"/><path d="M1116 774l9-9 9 9m-18-27l9 9 9-9m-27 54h54v-27h-54"/><path d="M1134 747l27 27 27-27v81l-27-27-27 27"/><path d="M1161 828l27-27 27 27m-54-81l27 27 27-27m-108 162h189v-81h-189"/><path d="M1215 747l81 81 81-81v243l-81-81-81 81"/><path d="M1296 990l81-81 81 81m-162-243l81 81 81-81m-351 486h594V990h-594"/><path d="M1944 747v729l-243-243-243 243m0-729l243 243 243-243"/><path d="M1701 1476l243-243 243 243m-486-729l243 243 243-243m-1080 729l-9-9 9-9-9-9 9-9-9-9 9-9-9-9 9-9-9-9 9-9-9-9 9-9-9-9 9-9-9-9 9-9-9-9 9-9-9-9 9-9-9-9 9-9-9-9 9-9-9-9 9-9-9-9 9-9-9-9 9-9-9-9 9-9-9-9 9-9-9-9 9-9-9-9 9-9-9-9 9-9-9-9 9-9-9-9 9-9-9-9 9-9-9-9 9-9-9-9 9-9-9-9 9-9-9-9 9-9-9-9 9-9-9-9 9-9-9-9 9-9-9-9 9-9-9-9 9-9-9-9 9-9-9-9 9-9-9-9 9-9-9-9 9-9-9-9 9-9-9-9 9-9-9-9 9-9-9-9 9-9-9-9v729l9-9-9-9 9-9-9-9 9-9-9-9 9-9-9-9 9-9-9-9 9-9-9-9 9-9-9-9 9-9-9-9 9-9-9-9 9-9-9-9 9-9-9-9 9-9-9-9 9-9-9-9 9-9-9-9 9-9-9-9 9-9-9-9 9-9-9-9 9-9-9-9 9-9-9-9 9-9-9-9 9-9-9-9 9-9-9-9 9-9-9-9 9-9-9-9 9-9-9-9 9-9-9-9 9-9-9-9 9-9-9-9 9-9-9-9 9-9-9-9 9-9-9-9 9-9-9-9 9-9-9-9 9-9-9-9 9-9-9-9 9-9-9-9 9-9-9-9 9-9-9-9 9-9-9-9 9-9-9-9 9-9v729zm-9-738h-9v-9h9"/><path d="M1098 720l-9 9-9-9v27l9-9 9 9"/><path d="M1089 747l-9-9-9 9m18-27l-9 9-9-9m27-9h-9v-9h9"/><path d="M1098 693l-9 9-9-9v27l9-9 9 9"/><path d="M1089 720l-9-9-9 9m18-27l-9 9-9-9m27-9h-9v-9h9"/><path d="M1098 666l-9 9-9-9v27l9-9 9 9"/><path d="M1089 693l-9-9-9 9m18-27l-9 9-9-9m27 54h-54v-27h54"/><path d="M1071 666l-27 27-27-27v81l27-27 27 27"/><path d="M1044 747l-27-27-27 27m54-81l-27 27-27-27m108-9h-9v-9h9"/><path d="M1098 639l-9 9-9-9v27l9-9 9 9"/><path d="M1089 666l-9-9-9 9m18-27l-9 9-9-9m27-9h-9v-9h9"/><path d="M1098 612l-9 9-9-9v27l9-9 9 9"/><path d="M1089 639l-9-9-9 9m18-27l-9 9-9-9m27-9h-9v-9h9"/><path d="M1098 585l-9 9-9-9v27l9-9 9 9"/><path d="M1089 612l-9-9-9 9m18-27l-9 9-9-9m27 54h-54v-27h54"/><path d="M1071 585l-27 27-27-27v81l27-27 27 27"/><path d="M1044 666l-27-27-27 27m54-81l-27 27-27-27m108-9h-9v-9h9"/><path d="M1098 558l-9 9-9-9v27l9-9 9 9"/><path d="M1089 585l-9-9-9 9m18-27l-9 9-9-9m27-9h-9v-9h9"/><path d="M1098 531l-9 9-9-9v27l9-9 9 9"/><path d="M1089 558l-9-9-9 9m18-27l-9 9-9-9m27-9h-9v-9h9"/><path d="M1098 504l-9 9-9-9v27l9-9 9 9"/><path d="M1089 531l-9-9-9 9m18-27l-9 9-9-9m27 54h-54v-27h54"/><path d="M1071 504l-27 27-27-27v81l27-27 27 27"/><path d="M1044 585l-27-27-27 27m54-81l-27 27-27-27m108 162H909v-81h189"/><path d="M990 504l-81 81-81-81v243l81-81 81 81"/><path d="M909 747l-81-81-81 81m162-243l-81 81-81-81m351-9h-9v-9h9"/><path d="M1098 477l-9 9-9-9v27l9-9 9 9"/><path d="M1089 504l-9-9-9 9m18-27l-9 9-9-9m27-9h-9v-9h9"/><path d="M1098 450l-9 9-9-9v27l9-9 9 9"/><path d="M1089 477l-9-9-9 9m18-27l-9 9-9-9m27-9h-9v-9h9"/><path d="M1098 423l-9 9-9-9v27l9-9 9 9"/><path d="M1089 450l-9-9-9 9m18-27l-9 9-9-9m27 54h-54v-27h54"/><path d="M1071 423l-27 27-27-27v81l27-27 27 27"/><path d="M1044 504l-27-27-27 27m54-81l-27 27-27-27m108-9h-9v-9h9"/><path d="M1098 396l-9 9-9-9v27l9-9 9 9"/><path d="M1089 423l-9-9-9 9m18-27l-9 9-9-9m27-9h-9v-9h9"/><path d="M1098 369l-9 9-9-9v27l9-9 9 9"/><path d="M1089 396l-9-9-9 9m18-27l-9 9-9-9m27-9h-9v-9h9"/><path d="M1098 342l-9 9-9-9v27l9-9 9 9"/><path d="M1089 369l-9-9-9 9m18-27l-9 9-9-9m27 54h-54v-27h54"/><path d="M1071 342l-27 27-27-27v81l27-27 27 27"/><path d="M1044 423l-27-27-27 27m54-81l-27 27-27-27m108-9h-9v-9h9"/><path d="M1098 315l-9 9-9-9v27l9-9 9 9"/><path d="M1089 342l-9-9-9 9m18-27l-9 9-9-9m27-9h-9v-9h9"/><path d="M1098 288l-9 9-9-9v27l9-9 9 9"/><path d="M1089 315l-9-9-9 9m18-27l-9 9-9-9m27-9h-9v-9h9"/><path d="M1098 261l-9 9-9-9v27l9-9 9 9"/><path d="M1089 288l-9-9-9 9m18-27l-9 9-9-9m27 54h-54v-27h54"/><path d="M1071 261l-27 27-27-27v81l27-27 27 27"/><path d="M1044 342l-27-27-27 27m54-81l-27 27-27-27m108 162H909v-81h189"/><path d="M990 261l-81 81-81-81v243l81-81 81 81"/><path d="M909 504l-81-81-81 81m162-243l-81 81-81-81m351-9h-9v-9h9"/><path d="M1098 234l-9 9-9-9v27l9-9 9 9"/><path d="M1089 261l-9-9-9 9m18-27l-9 9-9-9m27-9h-9v-9h9"/><path d="M1098 207l-9 9-9-9v27l9-9 9 9"/><path d="M1089 234l-9-9-9 9m18-27l-9 9-9-9m27-9h-9v-9h9"/><path d="M1098 180l-9 9-9-9v27l9-9 9 9"/><path d="M1089 207l-9-9-9 9m18-27l-9 9-9-9m27 54h-54v-27h54"/><path d="M1071 180l-27 27-27-27v81l27-27 27 27"/><path d="M1044 261l-27-27-27 27m54-81l-27 27-27-27m108-9h-9v-9h9"/><path d="M1098 153l-9 9-9-9v27l9-9 9 9"/><path d="M1089 180l-9-9-9 9m18-27l-9 9-9-9m27-9h-9v-9h9"/><path d="M1098 126l-9 9-9-9v27l9-9 9 9"/><path d="M1089 153l-9-9-9 9m18-27l-9 9-9-9m27-9h-9v-9h9"/><path d="M1098 99l-9 9-9-9v27l9-9 9 9"/><path d="M1089 126l-9-9-9 9m18-27l-9 9-9-9m27 54h-54v-27h54"/><path d="M1071 99l-27 27-27-27v81l27-27 27 27"/><path d="M1044 180l-27-27-27 27m54-81l-27 27-27-27m108-9h-9v-9h9"/><path d="M1098 72l-9 9-9-9v27l9-9 9 9"/><path d="M1089 99l-9-9-9 9m18-27l-9 9-9-9m27-9h-9v-9h9"/><path d="M1098 45l-9 9-9-9v27l9-9 9 9"/><path d="M1089 72l-9-9-9 9m18-27l-9 9-9-9m27-9h-9v-9h9"/><path d="M1098 18l-9 9-9-9v27l9-9 9 9"/><path d="M1089 45l-9-9-9 9m18-27l-9 9-9-9m27 54h-54V45h54"/><path d="M1071 18l-27 27-27-27v81l27-27 27 27"/><path d="M1044 99l-27-27-27 27m54-81l-27 27-27-27m108 162H909V99h189"/><path d="M990 18l-81 81-81-81v243l81-81 81 81"/><path d="M909 261l-81-81-81 81M909 18l-81 81-81-81m351 486H504V261h594"/><path d="M261 18v729l243-243 243 243m0-729L504 261 261 18"/><path d="M504 747L261 504 18 747M504 18L261 261 18 18m1089 720h9v-9h-9"/><path d="M1107 720l9 9 9-9v27l-9-9-9 9"/><path d="M1116 747l9-9 9 9m-18-27l9 9 9-9m-27-9h9v-9h-9"/><path d="M1107 693l9 9 9-9v27l-9-9-9 9"/><path d="M1116 720l9-9 9 9m-18-27l9 9 9-9m-27-9h9v-9h-9"/><path d="M1107 666l9 9 9-9v27l-9-9-9 9"/><path d="M1116 693l9-9 9 9m-18-27l9 9 9-9m-27 54h54v-27h-54"/><path d="M1134 666l27 27 27-27v81l-27-27-27 27"/><path d="M1161 747l27-27 27 27m-54-81l27 27 27-27m-108-9h9v-9h-9"/><path d="M1107 639l9 9 9-9v27l-9-9-9 9"/><path d="M1116 666l9-9 9 9m-18-27l9 9 9-9m-27-9h9v-9h-9"/><path d="M1107 612l9 9 9-9v27l-9-9-9 9"/><path d="M1116 639l9-9 9 9m-18-27l9 9 9-9m-27-9h9v-9h-9"/><path d="M1107 585l9 9 9-9v27l-9-9-9 9"/><path d="M1116 612l9-9 9 9m-18-27l9 9 9-9m-27 54h54v-27h-54"/><path d="M1134 585l27 27 27-27v81l-27-27-27 27"/><path d="M1161 666l27-27 27 27m-54-81l27 27 27-27m-108-9h9v-9h-9"/><path d="M1107 558l9 9 9-9v27l-9-9-9 9"/><path d="M1116 585l9-9 9 9m-18-27l9 9 9-9m-27-9h9v-9h-9"/><path d="M1107 531l9 9 9-9v27l-9-9-9 9"/><path d="M1116 558l9-9 9 9m-18-27l9 9 9-9m-27-9h9v-9h-9"/><path d="M1107 504l9 9 9-9v27l-9-9-9 9"/><path d="M1116 531l9-9 9 9m-18-27l9 9 9-9m-27 54h54v-27h-54"/><path d="M1134 504l27 27 27-27v81l-27-27-27 27"/><path d="M1161 585l27-27 27 27m-54-81l27 27 27-27m-108 162h189v-81h-189"/><path d="M1215 504l81 81 81-81v243l-81-81-81 81"/><path d="M1296 747l81-81 81 81m-162-243l81 81 81-81m-351-9h9v-9h-9"/><path d="M1107 477l9 9 9-9v27l-9-9-9 9"/><path d="M1116 504l9-9 9 9m-18-27l9 9 9-9m-27-9h9v-9h-9"/><path d="M1107 450l9 9 9-9v27l-9-9-9 9"/><path d="M1116 477l9-9 9 9m-18-27l9 9 9-9m-27-9h9v-9h-9"/><path d="M1107 423l9 9 9-9v27l-9-9-9 9"/><path d="M1116 450l9-9 9 9m-18-27l9 9 9-9m-27 54h54v-27h-54"/><path d="M1134 423l27 27 27-27v81l-27-27-27 27"/><path d="M1161 504l27-27 27 27m-54-81l27 27 27-27m-108-9h9v-9h-9"/><path d="M1107 396l9 9 9-9v27l-9-9-9 9"/><path d="M1116 423l9-9 9 9m-18-27l9 9 9-9m-27-9h9v-9h-9"/><path d="M1107 369l9 9 9-9v27l-9-9-9 9"/><path d="M1116 396l9-9 9 9m-18-27l9 9 9-9m-27-9h9v-9h-9"/><path d="M1107 342l9 9 9-9v27l-9-9-9 9"/><path d="M1116 369l9-9 9 9m-18-27l9 9 9-9m-27 54h54v-27h-54"/><path d="M1134 342l27 27 27-27v81l-27-27-27 27"/><path d="M1161 423l27-27 27 27m-54-81l27 27 27-27m-108-9h9v-9h-9"/><path d="M1107 315l9 9 9-9v27l-9-9-9 9"/><path d="M1116 342l9-9 9 9m-18-27l9 9 9-9m-27-9h9v-9h-9"/><path d="M1107 288l9 9 9-9v27l-9-9-9 9"/><path d="M1116 315l9-9 9 9m-18-27l9 9 9-9m-27-9h9v-9h-9"/><path d="M1107 261l9 9 9-9v27l-9-9-9 9"/><path d="M1116 288l9-9 9 9m-18-27l9 9 9-9m-27 54h54v-27h-54"/><path d="M1134 261l27 27 27-27v81l-27-27-27 27"/><path d="M1161 342l27-27 27 27m-54-81l27 27 27-27m-108 162h189v-81h-189"/><path d="M1215 261l81 81 81-81v243l-81-81-81 81"/><path d="M1296 504l81-81 81 81m-162-243l81 81 81-81m-351-9h9v-9h-9"/><path d="M1107 234l9 9 9-9v27l-9-9-9 9"/><path d="M1116 261l9-9 9 9m-18-27l9 9 9-9m-27-9h9v-9h-9"/><path d="M1107 207l9 9 9-9v27l-9-9-9 9"/><path d="M1116 234l9-9 9 9m-18-27l9 9 9-9m-27-9h9v-9h-9"/><path d="M1107 180l9 9 9-9v27l-9-9-9 9"/><path d="M1116 207l9-9 9 9m-18-27l9 9 9-9m-27 54h54v-27h-54"/><path d="M1134 180l27 27 27-27v81l-27-27-27 27"/><path d="M1161 261l27-27 27 27m-54-81l27 27 27-27m-108-9h9v-9h-9"/><path d="M1107 153l9 9 9-9v27l-9-9-9 9"/><path d="M1116 180l9-9 9 9m-18-27l9 9 9-9m-27-9h9v-9h-9"/><path d="M1107 126l9 9 9-9v27l-9-9-9 9"/><path d="M1116 153l9-9 9 9m-18-27l9 9 9-9m-27-9h9v-9h-9"/><path d="M1107 99l9 9 9-9v27l-9-9-9 9"/><path d="M1116 126l9-9 9 9m-18-27l9 9 9-9m-27 54h54v-27h-54"/><path d="M1134 99l27 27 27-27v81l-27-27-27 27"/><path d="M1161 180l27-27 27 27m-54-81l27 27 27-27m-108-9h9v-9h-9"/><path d="M1107 72l9 9 9-9v27l-9-9-9 9"/><path d="M1116 99l9-9 9 9m-18-27l9 9 9-9m-27-9h9v-9h-9"/><path d="M1107 45l9 9 9-9v27l-9-9-9 9"/><path d="M1116 72l9-9 9 9m-18-27l9 9 9-9m-27-9h9v-9h-9"/><path d="M1107 18l9 9 9-9v27l-9-9-9 9"/><path d="M1116 45l9-9 9 9m-18-27l9 9 9-9m-27 54h54V45h-54"/><path d="M1134 18l27 27 27-27v81l-27-27-27 27"/><path d="M1161 99l27-27 27 27m-54-81l27 27 27-27m-108 162h189V99h-189"/><path d="M1215 18l81 81 81-81v243l-81-81-81 81"/><path d="M1296 261l81-81 81 81M1296 18l81 81 81-81m-351 486h594V261h-594"/><path d="M1944 18v729l-243-243-243 243m0-729l243 243 243-243"/><path d="M1701 747l243-243 243 243M1701 18l243 243 243-243M1107 747l-9-9 9-9-9-9 9-9-9-9 9-9-9-9 9-9-9-9 9-9-9-9 9-9-9-9 9-9-9-9 9-9-9-9 9-9-9-9 9-9-9-9 9-9-9-9 9-9-9-9 9-9-9-9 9-9-9-9 9-9-9-9 9-9-9-9 9-9-9-9 9-9-9-9 9-9-9-9 9-9-9-9 9-9-9-9 9-9-9-9 9-9-9-9 9-9-9-9 9-9-9-9 9-9-9-9 9-9-9-9 9-9-9-9 9-9-9-9 9-9-9-9 9-9-9-9 9-9-9-9 9-9-9-9 9-9-9-9 9-9-9-9 9-9-9-9 9-9-9-9 9-9-9-9 9-9-9-9 9-9-9-9v729l9-9-9-9 9-9-9-9 9-9-9-9 9-9-9-9 9-9-9-9 9-9-9-9 9-9-9-9 9-9-9-9 9-9-9-9 9-9-9-9 9-9-9-9 9-9-9-9 9-9-9-9 9-9-9-9 9-9-9-9 9-9-9-9 9-9-9-9 9-9-9-9 9-9-9-9 9-9-9-9 9-9-9-9 9-9-9-9 9-9-9-9 9-9-9-9 9-9-9-9 9-9-9-9 9-9-9-9 9-9-9-9 9-9-9-9 9-9-9-9 9-9-9-9 9-9-9-9 9-9-9-9 9-9-9-9 9-9-9-9 9-9-9-9 9-9-9-9 9-9-9-9 9-9-9-9 9-9-9-9 9-9v729zm1656 495h243V999h-243m729 0h-243v243h243m-486-81h81v-81h-81m243 0h-81v81h81m-162-27h27v-27h-27m81 0h-27v27h27m-54-9h9v-9h-9m27 0h-9v9h9m-378-126l121.5-121.5M3492 999l-121.5-121.5M2763 1242l121.5 121.5M3492 1242l-121.5 121.5M3006 1080l40.5-40.5M3249 1080l-40.5-40.5M3006 1161l40.5 40.5M3249 1161l-40.5 40.5M3087 1107l13.5-13.5m67.5 13.5l-13.5-13.5M3087 1134l13.5 13.5m67.5-13.5l-13.5 13.5M3114 1116l4.5-4.5m22.5 4.5l-4.5-4.5M3114 1125l4.5 4.5m22.5-4.5l-4.5 4.5"/></g></g></svg>