<svg xmlns="http://www.w3.org/2000/svg" width="743.7" height="186.1"><g fill="none" stroke="#000"><path d="M50.7 108l-36 62.4h72zm72-9h72v72h-72zm166.2-38.8l-58.2 42.3 22.2 68.5h72l22.3-68.5zm202.8-13.9h-72l-36 62.3 36 62.4h72l36-62.4zm153.1-33l-64.9 31.2-16 70.2 44.9 56.3h72l44.9-56.3-16-70.2z"/><path d="M86.7 170.4l36 .6 72-72"/><path d="M122.7 99l72 72h58.2l36-110.8 36 110.8h94.8l72-124.7-108 62.3h144l-108-62.3 72 124.7h117.1l36-157.7 80.9 101.4H563.9l145.8-70.2H579.9L680.8 171h62.6"/><path d="M324.9 171l-94.2-68.5h116.5L252.9 171M419.7 46.3V171l108-62.4"/><path d="M491.7 46.3V171l-108-62.4M608.8 171L579.9 44.5l145.8 70.2L608.8 171 709.7 44.5 680.8 171l-36-157.7-80.9 101.4L680.8 171"/><g fill="#0081CD"><circle cx="14.7" cy="170.4" r="9"/><circle cx="50.7" cy="108" r="9"/><circle cx="86.7" cy="170.4" r="9"/><circle cx="122.7" cy="171" r="9"/><circle cx="122.7" cy="99" r="9"/><circle cx="194.7" cy="99" r="9"/><circle cx="194.1" cy="170.4" r="9"/><circle cx="252.9" cy="171" r="9"/><circle cx="230.7" cy="102.5" r="9"/><circle cx="288.9" cy="60.2" r="9"/><circle cx="347.2" cy="102.5" r="9"/><circle cx="324.9" cy="171" r="9"/><circle cx="419.7" cy="171" r="9"/><circle cx="383.7" cy="108.6" r="9"/><circle cx="419.7" cy="46.3" r="9"/><circle cx="491.7" cy="46.3" r="9"/><circle cx="527.7" cy="108.6" r="9"/><circle cx="491.7" cy="171" r="9"/><circle cx="610.2" cy="170.4" r="9"/><circle cx="563.9" cy="114.7" r="9"/><circle cx="579.9" cy="44.5" r="9"/><circle cx="644.8" cy="13.3" r="9"/><circle cx="709.7" cy="44.5" r="9"/><circle cx="723.8" cy="115.6" r="9"/><circle cx="680.8" cy="171" r="9"/></g></g></svg>