<svg xmlns="http://www.w3.org/2000/svg" width="1476" height="990"><path fill="#bc1e46" d="M1098.5 117.5h359v359h-359z"/><path d="M1457 118v358h-358V118h358m1-1h-360v360h360V117z"/><g opacity=".8"><path fill="#ccc" d="M1089.5 126.5h17v341h-17z"/><path d="M1106 127v340h-16V127h16m1-1h-18v342h18V126z"/></g><path fill="#bc1e46" d="M882.5 9.5h359v359h-359z"/><path d="M1241 10v358H883V10h358m1-1H882v360h360V9z"/><g opacity=".8"><path fill="#ccc" d="M873.5 18.5h17v341h-17z"/><path d="M890 19v340h-16V19h16m1-1h-18v342h18V18z"/></g><path fill="#bc1e46" d="M1098.5 621.5h359v359h-359z"/><path d="M1457 622v358h-358V622h358m1-1h-360v360h360V621z"/><g opacity=".8"><path fill="#ccc" d="M1089.5 630.5h17v341h-17z"/><path d="M1106 631v340h-16V631h16m1-1h-18v342h18V630z"/></g><path fill="#bc1e46" d="M882.5 513.5h359v359h-359z"/><path d="M1241 514v358H883V514h358m1-1H882v360h360V513z"/><g opacity=".8"><path fill="#ccc" d="M873.5 522.5h17v341h-17z"/><path d="M890 523v340h-16V523h16m1-1h-18v342h18V522z"/></g><path fill="#bc1e46" d="M666.5 81.5h359v359h-359z"/><path d="M1025 82v358H667V82h358m1-1H666v360h360V81z"/><g opacity=".8"><path fill="#ccc" d="M657.5 90.5h17v341h-17z"/><path d="M674 91v340h-16V91h16m1-1h-18v342h18V90z"/></g><g><path fill="#bc1e46" d="M666.5 585.5h359v359h-359z"/><path d="M1025 586v358H667V586h358m1-1H666v360h360V585z"/><g opacity=".8"><path fill="#ccc" d="M657.5 594.5h17v341h-17z"/><path d="M674 595v340h-16V595h16m1-1h-18v342h18V594z"/></g></g><g><path fill="#0081cd" d="M443.1 297.8h359v359h-359z"/><path d="M801.6 298.3v358h-358v-358h358m1-1h-360v360h360v-360z"/><g opacity=".8"><path fill="#ccc" d="M434.1 306.8h17v341h-17z"/><path d="M450.6 307.3v340h-16v-340h16m1-1h-18v342h18v-342z"/></g></g><g><path fill="#0081cd" d="M234.5 441.5h359v359h-359z"/><path d="M593 442v358H235V442h358m1-1H234v360h360V441z"/><g opacity=".8"><path fill="#ccc" d="M225.5 450.5h17v341h-17z"/><path d="M242 451v340h-16V451h16m1-1h-18v342h18V450z"/></g></g><g><path fill="#0081cd" d="M18.5 369.5h359v359h-359z"/><path d="M377 370v358H19V370h358m1-1H18v360h360V369z"/><g opacity=".8"><path fill="#ccc" d="M9.5 378.5h17v341h-17z"/><path d="M26 379v340H10V379h16m1-1H9v342h18V378z"/></g></g></svg>