<svg xmlns="http://www.w3.org/2000/svg" width="1467" height="621"><path fill="#0081cd" d="M1098.5 108.5h359v359h-359z"/><path d="M1457 109v358h-358V109h358m1-1h-360v360h360V108z"/><g opacity=".8"><path fill="#ccc" d="M1089.5 117.5h17v341h-17z"/><path d="M1106 118v340h-16V118h16m1-1h-18v342h18V117z"/></g><path fill="#0081cd" d="M882.5 36.5h359v359h-359z"/><path d="M1241 37v358H883V37h358m1-1H882v360h360V36z"/><g opacity=".8"><path fill="#ccc" d="M873.5 45.5h17v341h-17z"/><path d="M890 46v340h-16V46h16m1-1h-18v342h18V45z"/></g><path fill="#0081cd" d="M666.5 180.5h359v359h-359z"/><path d="M1025 181v358H667V181h358m1-1H666v360h360V180z"/><g opacity=".8"><path fill="#ccc" d="M657.5 189.5h17v341h-17z"/><path d="M674 190v340h-16V190h16m1-1h-18v342h18V189z"/></g><path fill="#0081cd" d="M450.5 108.5h359v359h-359z"/><path d="M809 109v358H451V109h358m1-1H450v360h360V108z"/><g opacity=".8"><path fill="#ccc" d="M441.5 117.5h17v341h-17z"/><path d="M458 118v340h-16V118h16m1-1h-18v342h18V117z"/></g><g><path fill="#0081cd" d="M261.5 9.5h359v359h-359z"/><path d="M620 10v358H262V10h358m1-1H261v360h360V9z"/><g opacity=".8"><path fill="#ccc" d="M252.5 18.5h17v341h-17z"/><path d="M269 19v340h-16V19h16m1-1h-18v342h18V18z"/></g></g><g><path fill="#0081cd" d="M18.5 252.5h359v359h-359z"/><path d="M377 253v358H19V253h358m1-1H18v360h360V252z"/><g opacity=".8"><path fill="#ccc" d="M9.5 261.5h17v341h-17z"/><path d="M26 262v340H10V262h16m1-1H9v342h18V261z"/></g></g></svg>