<svg xmlns="http://www.w3.org/2000/svg" width="1764" height="675"><g opacity=".5"><path fill="#0081cd" d="M122.5 19.5h359v359h-359z"/><path d="M481 20v358H123V20h358m1-1H122v360h360V19z"/><g opacity=".8"><path fill="#ccc" d="M113.5 28.5h17v341h-17z"/><path d="M130 29v340h-16V29h16m1-1h-18v342h18V28z"/></g></g><g opacity=".5"><path fill="#0081cd" d="M10.664 351.194l310.903-179.5 179.5 310.904-310.903 179.5z"/><path d="M321.5 172.4l179 310-310 179-179.1-310 310-179m.4-1.4L10 351l180 311.8 311.8-180-180-311.8z"/><g opacity=".8"><path fill="#ccc" d="M194.05 650.698l295.316-170.5 8.5 14.723-295.315 170.5z"/><path d="M489.2 480.8l8 13.9-294.4 170-8-13.9 294.4-170m.3-1.3l-296.2 171 9 15.6 296.2-171-9-15.6z"/></g></g><g opacity=".5"><path fill="#0081cd" d="M222.452 413.461l179.5-310.903 310.903 179.5-179.5 310.903z"/><path d="M402.1 103.3l310 179-179 310-310-179 179-310m-.3-1.3l-180 311.8 311.8 180 180-311.8-311.8-180z"/><g opacity=".8"><path fill="#ccc" d="M405.82 114.029l8.5-14.723 295.314 170.5-8.5 14.723z"/><path d="M414.4 100l294.4 170-8 13.9-294.4-170 8-13.9m-.3-1.3l-9 15.6 296.2 171 9-15.6-296.2-171z"/></g></g><path fill="#0081cd" d="M810.5 9.5h359v359h-359z"/><path d="M1169 10v358H811V10h358m1-1H810v360h360V9z"/><g opacity=".8"><path fill="#ccc" d="M1161.5 18.5h17v341h-17z"/><path d="M1178 19v340h-16V19h16m1-1h-18v342h18V18z"/></g><path fill="#0081cd" d="M1058.759 341.234l310.903-179.5 179.5 310.903-310.903 179.5z"/><path d="M1369.5 162.4l179 310-310 179-179-310 310-179m.3-1.4L1058 341l180 311.8 311.8-180-180-311.8z"/><g opacity=".8"><path fill="#ccc" d="M1242.045 640.738l295.315-170.5 8.5 14.722-295.315 170.5z"/><path d="M1537.2 470.8l8 13.9-294.4 170-8-13.9 294.4-170m.3-1.3l-296.2 171 9 15.6 296.2-171-9-15.6z"/></g><g><path fill="#0081cd" d="M1270.492 403.467l179.5-310.903 310.903 179.5-179.5 310.903z"/><path d="M1450.1 93.3l310 179-179 310-310-179 179-310m-.3-1.3l-180 311.8 311.8 180 180-311.8-311.8-180z"/><g opacity=".8"><path fill="#ccc" d="M1453.76 104.034l8.5-14.722 295.314 170.5-8.5 14.722z"/><path d="M1462.4 90l294.4 170-8 13.9-294.4-170 8-13.9m-.3-1.3l-9 15.6 296.2 171 9-15.6-296.2-171z"/></g></g></svg>