<svg xmlns="http://www.w3.org/2000/svg" width="300.2" height="180"><g fill="none"><path d="M50.2 30v10m0 10v10m-40-30v10m0 10v10m30-30h-20m-10 60V80m0-10V60m40 30V80m0-10V60m-30 30h20m50 40h10m10 0h10m-30 40h10m10 0h10m-30-30v20m60 10h-10m-10 0h-10m30-40h-10m-10 0h-10m30 30v-20m80-110v10m0 10v10m-40-30v10m0 10v10m30-30h-20m-10 60V80m0-10V60m40 30V80m0-10V60m-30 30h20m70-60v10m0 10v10m-40-30v10m0 10v10m30-30h-20m-10 60V80m0-10V60m40 30V80m0-10V60m-30 30h20m-230-80l10 10m-20 20l-10 10m10-50v40m20 0h-20m-30-30L.2 20m20 20l10 10m-10-50v40m-20 0h20m40-20H.2m10 90l-10-10m20-20l10-10m-10 50V80m-20 0h20m30 30l10-10m-20-20l-10-10m10 50V80m20 0h-20m-40 20h60m-50 30h10m-20 10h10m0 30h10m-20-10h10m10-20h20m-20-20v60m30-50h-10m20 10h-10m0 30h-10m20-10h-10m-30 0h20m0-40v60m30-170h10m-20 10h10m0 30h10m-20-10h10m10-20h20m-20-20v60m30-50h-10m20 10h-10m0 30h-10m20-10h-10m-30 0h20m0-40v60m-30 10h10m-20 10h10m0 30h10m-20-10h10m10-20h20m-20-20v60m30-50h-10m20 10h-10m0 30h-10m20-10h-10m-30 0h20m0-40v60m-30 10l10-10m20 20l10 10m-50-10h40m0-20v20m-30 30l10 10m20-20l10-10m-50 10h40m0 20v-20m-20-40v60m50-170h10m-20 10h10m0 30h10m-20-10h10m10-20h20m-20-20v60m30-50h-10m20 10h-10m0 30h-10m20-10h-10m-30 0h20m0-40v60m-30 10h10m-20 10h10m0 30h10m-20-10h10m10-20h20m-20-20v60m30-50h-10m20 10h-10m0 30h-10m20-10h-10m-30 0h20m0-40v60m10 50l-10 10m-20-20l-10-10m50 10h-40m0 20v-20m30-30l-10-10m-20 20l-10 10m50-10h-40m0-20v20m20 40v-60m70-110l10 10m-20 20l-10 10m10-50v40m20 0h-20m-30-30l-10 10m20 20l10 10m-10-50v40m-20 0h20m40-20h-60m10 90l-10-10m20-20l10-10m-10 50V80m-20 0h20m30 30l10-10m-20-20l-10-10m10 50V80m20 0h-20m-40 20h60m-50 30h10m-20 10h10m0 30h10m-20-10h10m10-20h20m-20-20v60m30-50h-10m20 10h-10m0 30h-10m20-10h-10m-30 0h20m0-40v60m70-170l10 10m-20 20l-10 10m10-50v40m20 0h-20m-30-30l-10 10m20 20l10 10m-10-50v40m-20 0h20m40-20h-60m10 90l-10-10m20-20l10-10m-10 50V80m-20 0h20m30 30l10-10m-20-20l-10-10m10 50V80m20 0h-20m-40 20h60m-50 30h10m-20 10h10m0 30h10m-20-10h10m10-20h20m-20-20v60m30-50h-10m20 10h-10m0 30h-10m20-10h-10m-30 0h20m0-40v60" stroke="#0081cd"/><path d="M50.2 0v10m10 0h-10m0 0l-20 20m30-10l-20 20m-30-40v10m-10 0h10m0 0l20 20M.2 20l20 20m40 10H.2m30-20v30m-20 60v-10m-10 0h10m0 0l20-20m-30 10l20-20m30 40v-10m10 0h-10m0 0l-20-20m30 10l-20-20M.2 70h60m-30 20V60m-30 70h10m0 10h10m-20 30h10m0-10h10m0-30h20m-30-10v60m50-50h-10m0 10h-10m20 30h-10m0-10h-10m-20 10h20m10-50v60m10-170h10m0 10h10m-20 30h10m0-10h10m0-30h20m-30-10v60m50-50h-10m0 10h-10m20 30h-10m0-10h-10m-20 10h20m10-50v60m-50 10h10m0 10h10m-20 30h10m0-10h10m0-30h20m-30-10v60m50-50h-10m0 10h-10m20 30h-10m0-10h-10m-20 10h20m10-50v60m-50 10h10m0-10v10m0 0l20 20m-10-30l20 20m-40 30h10m0 10v-10m0 0l20-20m-10 30l20-20m10-40v60m-20-30h30m0-140h10m0 10h10m-20 30h10m0-10h10m0-30h20m-30-10v60m50-50h-10m0 10h-10m20 30h-10m0-10h-10m-20 10h20m10-50v60m-50 10h10m0 10h10m-20 30h10m0-10h10m0-30h20m-30-10v60m50-50h-10m0 10h-10m20 30h-10m0-10h-10m-20 10h20m10-50v60m10 50h-10m0 10v-10m0 0l-20-20m10 30l-20-20m40-30h-10m0-10v10m0 0l-20 20m10-30l-20 20m-10 40v-60m20 30h-30m110-150v10m10 0h-10m0 0l-20 20m30-10l-20 20m-30-40v10m-10 0h10m0 0l20 20m-30-10l20 20m40 10h-60m30-20v30m-20 60v-10m-10 0h10m0 0l20-20m-30 10l20-20m30 40v-10m10 0h-10m0 0l-20-20m30 10l-20-20m-40-10h60m-30 20V60m-30 70h10m0 10h10m-20 30h10m0-10h10m0-30h20m-30-10v60m50-50h-10m0 10h-10m20 30h-10m0-10h-10m-20 10h20m10-50v60m60-180v10m10 0h-10m0 0l-20 20m30-10l-20 20m-30-40v10m-10 0h10m0 0l20 20m-30-10l20 20m40 10h-60m30-20v30m-20 60v-10m-10 0h10m0 0l20-20m-30 10l20-20m30 40v-10m10 0h-10m0 0l-20-20m30 10l-20-20m-40-10h60m-30 20V60m-30 70h10m0 10h10m-20 30h10m0-10h10m0-30h20m-30-10v60m50-50h-10m0 10h-10m20 30h-10m0-10h-10m-20 10h20m10-50v60M50.2 30h-10m10 10v10m-40-20h10m-10 10v10m0 40h10m-10-10V70m40 20h-10m10-10V70m40 60v10m10-10h10m-20 40v-10m10 10h10m40 0v-10m-10 10h-10m20-40v10m-10-10h-10m100-100h-10m10 10v10m-40-20h10m-10 10v10m0 40h10m-10-10V70m40 20h-10m10-10V70m60-40h-10m10 10v10m-40-20h10m-10 10v10m0 40h10m-10-10V70m40 20h-10m10-10V70" stroke="#bc1e46"/><path d="M.2 0h300v180H.2V0z" stroke="#000"/></g></svg>