<svg xmlns="http://www.w3.org/2000/svg" width="2491" height="2196"><g fill="silver" stroke="#00f" stroke-width="2"><path d="M842.7 2165.6l407-287.8-407-287.8-407 287.8 407 287.8z"/><path d="M1249.7 1877.8l407-287.8-407-287.8-407 287.8 407 287.8zm-814 0l407-287.8-407-287.8-407 287.8 407 287.8z"/><path d="M842.7 1590l407-287.8-407-287.8-407 287.8 407 287.8z"/><path d="M1656.7 1590l407-287.8-407-287.8-407 287.8 407 287.8z"/><path d="M1249.7 1302.2l407-287.8-407-287.8-407 287.8 407 287.8z"/><path d="M1656.7 1014.4l407-287.8-407-287.8-407 287.8 407 287.8zm407 287.8l407-287.8-407-287.8-407 287.8 407 287.8z"/></g><path d="M28.7 1590l407 287.8v-407L28.7 1183v407zm1221 287.8l407-287.8v-407l-407 287.8v407zm0-1151.2l407 287.8v-407l-407-287.8v407zm407-287.8l407 287.8v-407l-407-287.8v407z" fill="#ff0" stroke="#000" stroke-width="2"/></svg>