<svg xmlns="http://www.w3.org/2000/svg" width="486" height="432"><path fill="#ffe07f" d="M93.2 412.5L15.5 277.8 165.2 18.3h155.6l149.7 259.5-77.7 134.7H93.2z"/><path d="M315 28.3l144 249.4-72 124.7H99L27 277.7 171 28.3h144m11.5-20H159.4l-5.8 10L9.7 267.8l-5.8 10 5.8 10 72 124.7 5.8 10h311.1l5.8-10 72-124.7 5.8-10-5.8-10L332.3 18.3l-5.8-10z" fill="#fec200"/><path d="M171.5 28.8h143v143h-143zm77.01 336.057l37.011-138.127 138.129 37.01-37.011 138.127zM62.37 263.735l138.127-37.01 37.011 138.127-138.127 37.01zM57.7 225.6l71.1-123.2L200 225.6H57.7zm228.3 0l71.2-123.2 71.1 123.2H286zm-114.1-52.8h142.2L243 296.1l-71.1-123.3z" fill="#0081cd"/><path d="M314 29.3v142H172v-142h142m1-1H171v144h144v-144zm-29.1 199l137.2 36.8-36.8 137.2-137.2-36.8 36.8-137.2m-.7-1.2l-37.3 139.1L387 402.5l37.3-139.1-139.1-37.3zm-85.1 1.2l36.8 137.2-137.2 36.8-36.8-137.2 137.2-36.8m.7-1.2L61.7 263.4 99 402.5l139.1-37.3-37.3-139.1z"/><path d="M128.8 103.4l70.3 121.7H58.6l70.3-121.7m-.1-2l-72 124.7h144l-72-124.7zm228.4 2l70.3 121.7H287l70.3-121.7m-.1-2l-72 124.7h144l-72-124.7zm-43.9 71.9L243 295l-70.3-121.7h140.5m1.8-1H171L243 297l72-124.7z"/></svg>