<svg xmlns="http://www.w3.org/2000/svg" width="1818" height="1179"><g fill="#0081cd"><path d="M934.6 594V18C617.1 18.8 360 276.4 360 594c129.7 0 249.3 42.9 345.6 115.2 52.3-69.6 135.3-114.7 228.9-115.2zM803 1081.4c-7.1-17-11-35.8-11-55.4-32.4 0-62.3 10.7-86.4 28.8-14.3-19-26.2-39.8-35.5-62-31.8 13.3-59.3 34.9-79.7 62.1-18.1-13.6-35.3-28.2-51.6-43.7-19.3 20.3-35 44.1-46 70.4-15.1-6.3-30-12.9-44.8-19.8-7.8 16.6-13.8 34.2-17.9 52.5 16.4 3.7 32.9 7.2 49.5 10.5 3-14.9 7.4-29.4 13.1-43.1 22.8 9.5 45.9 18.3 69.4 26.4 6.6-19.3 16.1-37.2 28.1-53.2 23.5 17.7 48.4 33.5 74.5 47.5 10-18.7 23.9-34.9 40.7-47.5 16.4 21.8 35.8 41.2 57.6 57.6-6 8-10.8 16.9-14.1 26.6-5.3-1.8-10.6-3.8-15.9-5.8-2.2 5.8-3.8 11.8-5 18.1l17.1 3c.9-5.2 2.2-10.3 3.8-15.3 8.4 2.9 16.9 5.6 25.5 8.1 2.1-7.3 5.2-14.2 9.2-20.5-7.1-4.4-14-9.1-20.7-14.1 10.2-13.6 23.9-24.4 39.8-31zm62.1 79.8c2.5.6 5.1 1.3 7.7 1.8.5-2.3 1.3-4.5 2.2-6.6-2.3-1.1-4.6-2.2-6.8-3.4-1.4 2.5-2.4 5.3-3.1 8.1zM188.5 1046c33.7 11.6 67.8 22.4 102.3 32.4 8.5-29.3 20.9-56.9 36.7-82.2-28.4-17.7-56-36.5-82.6-56.5-24 32-43.1 67.8-56.3 106.4z"/><path d="M14.4 709.2c65.5 87.2 143.2 164.9 230.4 230.4 40.8-54.4 95.8-97.6 159.4-124.1-28.4-68.2-44.2-143-44.2-221.5-129.7 0-249.4 42.9-345.6 115.2zm638 425.6c10.2 2.6 20.4 5 30.7 7.3 2-9.2 5-18 8.9-26.3-9.2-4.3-18.2-8.8-27.1-13.6-5.4 10.2-9.7 21.1-12.6 32.5zM935.6 1026V882c-79.4.2-143.6 64.6-143.6 144 32.4 0 62.3 10.7 86.4 28.8 13.1-17.4 33.8-28.7 57.2-28.8zm-57.2 115.2c-3.6-4.7-6.6-10-8.9-15.5-8 3.3-14.8 8.7-19.9 15.5-4.5-3.4-8.8-7-12.9-10.9-4.8 5.1-8.8 11-11.5 17.6-3.8-1.6-7.5-3.2-11.2-5a72.3 72.3 0 0 0-4.5 13.1c4.1.9 8.2 1.8 12.4 2.6.7-3.7 1.9-7.3 3.3-10.8 5.7 2.4 11.5 4.6 17.4 6.6 1.6-4.8 4-9.3 7-13.3 5.9 4.4 12.1 8.4 18.6 11.9 2.5-4.7 6-8.7 10.2-11.9 4.1 5.5 8.9 10.3 14.4 14.4 2.6-3.4 6-6.1 10-7.8-1.8-4.3-2.8-8.9-2.8-13.8-8.1 0-15.6 2.7-21.6 7.2z"/><path d="M935.9 1098c-19.8 0-35.9 16.1-35.9 36 8.1 0 15.6 2.7 21.6 7.2 3.3-4.3 8.5-7.2 14.3-7.2v-36zm-8.9 63c2 0 3.9.7 5.4 1.8.8-1.1 2.1-1.8 3.6-1.8v-9c-5 0-9 4-9 9zm27-9h9v9h-9zm27 0h9v9h-9zm-45-18h18v18h-18zm72 18h9v9h-9zm27 0h9v9h-9zm-45-18h18v18h-18zm18-36h36v36h-36zm54 54h9v9h-9zm27 0h9v9h-9zm-45-18h18v18h-18zm72 18h9v9h-9zm27 0h9v9h-9zm-45-18h18v18h-18zm18-36h36v36h-36zm-180-72h72v72h-72zm234 126h9v9h-9zm27 0h9v9h-9zm-45-18h18v18h-18zm72 18h9v9h-9zm27 0h9v9h-9zm-45-18h18v18h-18zm18-36h36v36h-36zm54 54h9v9h-9zm27 0h9v9h-9zm-45-18h18v18h-18zm72 18h9v9h-9zm27 0h9v9h-9zm-45-18h18v18h-18zm18-36h36v36h-36zm-180-72h72v72h-72zm72-144h144v144h-144zm162 270h9v9h-9zm27 0h9v9h-9zm-45-18h18v18h-18zm72 18h9v9h-9zm27 0h9v9h-9zm-45-18h18v18h-18zm18-36h36v36h-36zm54 54h9v9h-9zm27 0h9v9h-9zm-45-18h18v18h-18zm72 18h9v9h-9zm27 0h9v9h-9zm-45-18h18v18h-18zm18-36h36v36h-36zm-180-72h72v72h-72zm234 126h9v9h-9zm27 0h9v9h-9zm-45-18h18v18h-18zm72 18h9v9h-9zm27 0h9v9h-9zm-45-18h18v18h-18zm18-36h36v36h-36zm54 54h9v9h-9zm27 0h9v9h-9zm-45-18h18v18h-18zm72 18h9v9h-9zm27 0h9v9h-9zm-45-18h18v18h-18zm18-36h36v36h-36zm-180-72h72v72h-72zm72-144h144v144h-144zM936 594h288v288H936z"/></g><g fill="#fec200"><path d="M360 594c0 129.7 42.9 249.3 115.2 345.6-33.6 25.2-61.5 57.6-81.4 94.9-22.6-12.1-44.7-24.9-66.4-38.4-15.8 25.3-28.2 52.9-36.7 82.2 25.8 7.5 51.8 14.6 78 21.2 5.7-22.9 14.2-44.6 25.1-64.9 32.1 17.2 65.2 32.9 99 47 10.9-26.3 26.6-50.2 46-70.5-23.1-22-44.4-45.9-63.6-71.5 48.1-36.2 108-57.6 172.8-57.6 0-64.9 21.4-124.7 57.6-172.8C609.3 636.9 489.7 594 360 594zm461.9 564.7c3.4.7 6.8 1.3 10.2 2 .6-3.1 1.4-6.1 2.5-9-3.2-1.2-6.3-2.4-9.4-3.7-1.4 3.4-2.5 7.1-3.3 10.8z"/><path d="M648 882c0 64.8 21.4 124.7 57.6 172.8-16.8 12.6-30.7 28.8-40.7 47.5-11.3-6-22.4-12.4-33.2-19.2-7.9 12.7-14.1 26.5-18.3 41.1 12.9 3.8 25.9 7.3 39 10.6 2.9-11.4 7.1-22.3 12.5-32.5 16.1 8.6 32.6 16.4 49.5 23.5 5.5-13.2 13.3-25.1 23-35.3-11.6-11-22.2-23-31.8-35.7 24.1-18.1 54-28.8 86.4-28.8 0-32.4 10.7-62.3 28.8-86.4-48.1-36.2-108-57.6-172.8-57.6zm-168.3 242.7c13.6 2.7 27.2 5.4 40.8 7.8 2.2-12.5 5.6-24.5 9.9-36.1-12.6-4.8-25.2-9.7-37.6-14.9-5.7 13.8-10.2 28.2-13.2 43.2z"/><path d="M707.8 1147.4c6.8 1.4 13.6 2.7 20.4 3.9 1.1-6.2 2.8-12.3 5-18.1-6.3-2.4-12.6-4.9-18.8-7.5-2.9 6.9-5.1 14.1-6.6 21.6zM792 1026c0 32.4 10.7 62.3 28.8 86.4-8.4 6.3-15.4 14.4-20.3 23.7-5.6-3-11.2-6.2-16.6-9.6-3.9 6.3-7 13.2-9.2 20.5 6.5 1.9 12.9 3.6 19.5 5.3 1.4-5.7 3.6-11.2 6.3-16.2 8 4.3 16.3 8.2 24.7 11.7 2.7-6.6 6.7-12.6 11.5-17.6-5.8-5.5-11.1-11.5-15.9-17.9 12-9 27-14.4 43.2-14.4 0-16.2 5.4-31.2 14.4-43.2-24.1-18.1-54-28.8-86.4-28.8zm72 72c0 16.2 5.4 31.2 14.4 43.2-4.2 3.2-7.7 7.2-10.2 11.9-2.8-1.5-5.6-3.1-8.3-4.8-2 3.2-3.5 6.6-4.6 10.3 3.2.9 6.5 1.8 9.7 2.7.7-2.9 1.8-5.6 3.1-8.1 4 2.1 8.1 4.1 12.4 5.9 1.4-3.3 3.3-6.3 5.8-8.8-2.9-2.8-5.5-5.7-7.9-8.9 6-4.5 13.5-7.2 21.6-7.2 0-8.1 2.7-15.6 7.2-21.6-12-9-27-14.4-43.2-14.4z"/><path d="M900 1134c0 8.1 2.7 15.6 7.2 21.6 3-2.3 6.7-3.6 10.8-3.6 0-4.1 1.3-7.8 3.6-10.8-6-4.5-13.5-7.2-21.6-7.2zm21.6 28.8c1.5-1.1 3.4-1.8 5.4-1.8 0-2 .7-3.9 1.8-5.4-3-2.3-6.7-3.6-10.8-3.6 0 4.1 1.3 7.8 3.6 10.8zM945 1152h9v9h-9zm27 0h9v9h-9zm-18-18h18v18h-18zm45 18h9v9h-9zm27 0h9v9h-9zm-18-18h18v18h-18zm-36-36h36v36h-36zm81 54h9v9h-9zm27 0h9v9h-9zm-18-18h18v18h-18zm45 18h9v9h-9zm27 0h9v9h-9zm-18-18h18v18h-18zm-36-36h36v36h-36zm-72-72h72v72h-72zm153 126h9v9h-9zm27 0h9v9h-9zm-18-18h18v18h-18zm45 18h9v9h-9zm27 0h9v9h-9zm-18-18h18v18h-18zm-36-36h36v36h-36zm81 54h9v9h-9zm27 0h9v9h-9zm-18-18h18v18h-18zm45 18h9v9h-9zm27 0h9v9h-9zm-18-18h18v18h-18zm-36-36h36v36h-36zm-72-72h72v72h-72zm-144-144h144v144h-144zm297 270h9v9h-9zm27 0h9v9h-9zm-18-18h18v18h-18zm45 18h9v9h-9zm27 0h9v9h-9zm-18-18h18v18h-18zm-36-36h36v36h-36zm81 54h9v9h-9zm27 0h9v9h-9zm-18-18h18v18h-18zm45 18h9v9h-9zm27 0h9v9h-9zm-18-18h18v18h-18zm-36-36h36v36h-36zm-72-72h72v72h-72zm153 126h9v9h-9zm27 0h9v9h-9zm-18-18h18v18h-18zm45 18h9v9h-9zm27 0h9v9h-9zm-18-18h18v18h-18zm-36-36h36v36h-36zm81 54h9v9h-9zm27 0h9v9h-9zm-18-18h18v18h-18zm45 18h9v9h-9zm27 0h9v9h-9zm-18-18h18v18h-18zm-36-36h36v36h-36zm-72-72h72v72h-72zm-144-144h144v144h-144zm-288-288h288v288h-288z"/></g><g fill="#bc1e46"><path d="M670.1 992.8C655.9 958.7 648 921.3 648 882c-64.8 0-124.7 21.4-172.8 57.6-28.5-38-52.5-79.6-71-124.1-63.6 26.6-118.5 69.7-159.4 124.1-36.1-27.1-70.6-56.3-103.2-87.4-38.7 40.7-70.1 88.4-92 141.1 45.6 19 91.9 36.6 138.9 52.7 13.2-38.6 32.3-74.4 56.3-106.3 47 35.3 96.8 67.1 149 95 19.9-37.3 47.8-69.8 81.4-95 32.8 43.6 71.6 82.4 115.2 115.2-12 16-21.6 33.9-28.1 53.2-10.7-3.7-21.3-7.5-31.8-11.5-4.3 11.6-7.7 23.7-9.9 36.1 11.3 2.1 22.7 4 34.1 5.9 1.7-10.5 4.3-20.7 7.7-30.5 16.9 5.8 33.9 11.2 51.1 16.2 4.2-14.6 10.4-28.4 18.3-41.1-14.2-8.8-28-18.3-41.3-28.3 20.4-27.2 47.9-48.8 79.7-62.1zm124.1 159.6c5.1 1.3 10.2 2.5 15.4 3.7 1-4.6 2.5-9 4.5-13.1-4.6-2.1-9.1-4.4-13.6-6.8-2.7 5.1-4.8 10.5-6.3 16.3zM935.3 882V594C776.6 594.4 648 723.2 648 882c64.8 0 124.7 21.4 172.8 57.6 26.1-34.8 67.7-57.3 114.5-57.6z"/><path d="M368.7 1099.6c20.4 5.2 40.9 10.1 61.5 14.7 4.1-18.3 10.1-35.9 17.9-52.5-18.3-8.6-36.4-17.6-54.2-27.2-10.9 20.3-19.4 42.1-25.1 65zm500.8 26.1c-3.6-8.5-5.5-17.9-5.5-27.7-16.2 0-31.2 5.4-43.2 14.4-7.1-9.5-13.1-19.9-17.8-31-15.9 6.6-29.6 17.4-39.8 31-9-6.8-17.6-14.1-25.8-21.9-9.7 10.2-17.5 22.1-23 35.2-7.5-3.1-15-6.5-22.4-9.9-3.9 8.3-6.9 17.1-8.9 26.3 8.2 1.8 16.5 3.6 24.8 5.3 1.5-7.5 3.7-14.7 6.6-21.6 11.4 4.8 23 9.2 34.7 13.2 3.3-9.6 8.1-18.6 14.1-26.6 11.8 8.8 24.2 16.8 37.2 23.7 5-9.3 12-17.4 20.4-23.8 8.2 10.9 17.9 20.6 28.8 28.8-3 4-5.4 8.5-7 13.3-2.7-.9-5.3-1.9-8-2.9-1.1 2.9-1.9 5.9-2.5 9 2.8.5 5.7 1 8.5 1.5.4-2.6 1.1-5.2 1.9-7.6 4.2 1.4 8.5 2.8 12.8 4 1.1-3.7 2.6-7.1 4.6-10.3-3.5-2.2-7-4.6-10.3-7.1 5.1-6.8 12-12.2 19.9-15.5zm66.3-27.7v-72c-39.7 0-71.8 32.3-71.8 72 16.2 0 31.2 5.4 43.2 14.4 6.5-8.7 16.9-14.3 28.6-14.4zm-28.6 57.6c-1.8-2.4-3.3-5-4.4-7.8-4 1.7-7.4 4.4-10 7.8-2.3-1.7-4.4-3.5-6.5-5.5-2.4 2.5-4.4 5.5-5.8 8.8 2.8 1.2 5.7 2.3 8.7 3.3.8-2.4 2-4.6 3.5-6.6 2.9 2.2 6.1 4.2 9.3 5.9 1.2-2.3 3-4.4 5.1-5.9 2 2.7 4.5 5.2 7.2 7.2 1.3-1.7 3-3 5-3.9-.9-2.1-1.4-4.5-1.4-6.9-4.1 0-7.8 1.3-10.8 3.6zm10.8-3.6c4.1 0 7.8 1.3 10.8 3.6 1.6-2.2 4.2-3.6 7.2-3.6v-18c-9.9 0-18 8.1-18 18zm18 0h9v9h-9zm27 0h9v9h-9zm9-18h18v18h-18zm18 18h9v9h-9zm27 0h9v9h-9zm9-18h18v18h-18zm-90-36h36v36h-36zm108 54h9v9h-9zm27 0h9v9h-9zm9-18h18v18h-18zm18 18h9v9h-9zm27 0h9v9h-9zm9-18h18v18h-18zm-90-36h36v36h-36zm36-72h72v72h-72zm72 126h9v9h-9zm27 0h9v9h-9zm9-18h18v18h-18zm18 18h9v9h-9zm27 0h9v9h-9zm9-18h18v18h-18zm-90-36h36v36h-36zm108 54h9v9h-9zm27 0h9v9h-9zm9-18h18v18h-18zm18 18h9v9h-9zm27 0h9v9h-9zm9-18h18v18h-18zm-90-36h36v36h-36zm36-72h72v72h-72zM936 882h144v144H936zm432 270h9v9h-9zm27 0h9v9h-9zm9-18h18v18h-18zm18 18h9v9h-9zm27 0h9v9h-9zm9-18h18v18h-18zm-90-36h36v36h-36zm108 54h9v9h-9zm27 0h9v9h-9zm9-18h18v18h-18zm18 18h9v9h-9zm27 0h9v9h-9zm9-18h18v18h-18zm-90-36h36v36h-36zm36-72h72v72h-72zm72 126h9v9h-9zm27 0h9v9h-9zm9-18h18v18h-18zm18 18h9v9h-9zm27 0h9v9h-9zm9-18h18v18h-18zm-90-36h36v36h-36zm108 54h9v9h-9zm27 0h9v9h-9zm9-18h18v18h-18zm18 18h9v9h-9zm27 0h9v9h-9zm9-18h18v18h-18zm-90-36h36v36h-36zm36-72h72v72h-72zm-360-144h144v144h-144zm144-288h288v288h-288zM936 18h576v576H936z"/></g><path d="M934.6 1170h1.4-1.4z" fill="#fff" stroke="#000"/><path d="M0 1170h1818m-882 0V0M122.5 1170c0-449.3 364.2-813.5 813.5-813.5s813.5 364.2 813.5 813.5" fill="none" stroke="#000" stroke-width="3"/></svg>