<svg xmlns="http://www.w3.org/2000/svg" width="557.7" height="518.3"><path d="M-578.5 404.4h1512m-1512-72h1512m-1512-72h1512m-1512-72h1512m-1512 180h1512m-1512-72h1512m-1512-72h1512m-1512-72h1512m-1512-36h1512m-1512-72h1512m-1512 36h1512m-1512-72h1512m-1512 468h1512m-1512-36h1512M648.8 897.5l-756-1309.4M586.4 933.5l-756-1309.4M524.1 969.5l-756-1309.4m693.6 1345.4l-756-1309.4M617.6 915.5l-756-1309.4M555.2 951.5l-756-1309.4M492.9 987.5l-756-1309.4m693.6 1345.4l-756-1309.4m724.9 1327.4l-756-1309.4M337 1077.5L-419-231.9m787.2 1291.4l-756-1309.4m1286 1003.4l-756-1309.4M835.8 789.5L79.8-519.9M773.5 825.5L17.5-483.9M711.1 861.5l-756-1309.4M867 771.5L111-537.9M804.7 807.5L48.7-501.9M742.3 843.5l-756-1309.4M679.9 879.5l-756-1309.4M929.8 735.3l-756-1309.5m290.3 157.3l-756 1309.4M526.5-380.9l-756 1309.4M588.8-344.9l-756 1309.4M651.2-308.9l-756 1309.4M495.3-398.9l-756 1309.4M557.7-362.9l-756 1309.4M620-326.9L-136 982.5M682.4-290.9l-756 1309.4M713.6-272.9l-756 1309.4M775.9-236.9l-756 1309.4M838.3-200.9l-756 1309.4M900.6-164.9l-756 1309.4M744.7-254.9l-756 1309.4M807.1-218.9l-756 1309.4M869.4-182.9l-756 1309.4M931.8-146.9l-756 1309.4M339.4-488.9l-756 1309.4M401.8-452.9l-756 1309.4M308.3-506.9l-756 1309.4M370.6-470.9l-756 1309.4M433-434.9L-323 874.5" fill="none" stroke="#7fc0e6" stroke-width=".5"/><g fill="#ffe07f" stroke="#000"><path d="M239.4 116.4l-62.4 108 62.4 36 62.3-36-62.3-108z"/><path d="M239.4 116.4H114.6v72l62.4 36 62.4-108z"/><path d="M114.6 332.4h124.7l.1-72-62.4-36-62.4 108zm0 0l62.4 108 62.3-35.9v-72.1H114.6zm249.5.1l-62.4-108-62.3 35.9v72.1h124.7zm0 0H239.4l-.1 72 62.4 36 62.4-108zm0 0l124.7-.1v-71.9l-62.4-36-62.3 108z"/><path d="M364.1 332.5l62.3-108.1-62.3-36-62.4 36.1 62.4 108z"/></g><g fill="none" stroke="#bc1e46"><circle cx="239.4" cy="260.4" r="36"/><circle cx="239.4" cy="404.4" r="36"/><circle cx="488.8" cy="260.5" r="36"/><circle cx="364.1" cy="188.4" r="36"/><circle cx="114.6" cy="188.4" r="36"/><circle cx="364.1" cy="332.5" r="108"/><circle cx="114.6" cy="332.4" r="108"/><circle cx="239.4" cy="116.4" r="108"/></g><g fill="none" stroke="#0081cd"><circle cx="177" cy="224.4" r="62.1"/><circle cx="114.6" cy="116.4" r="62.1"/><circle cx="239.3" cy="332.4" r="62.1"/><circle cx="177" cy="440.4" r="62.1"/><circle cx="301.7" cy="440.5" r="62.1"/><circle cx="301.7" cy="224.5" r="62.1"/><circle cx="426.4" cy="224.4" r="62.1"/><circle cx="488.8" cy="332.4" r="62.1"/></g></svg>