<svg xmlns="http://www.w3.org/2000/svg" width="396" height="324"><g stroke="#000" fill="none"><path d="M322.708 45C450-27 351 387 198 297M73.292 45C-54-27 45 387 198 297M198 261v36M198 153c62.999 0 159.417-27.001 124.708-108"/><path fill="#fff" stroke="none" d="M275.292 134.745l7.963-.765.765 7.963-7.963.765z"/><path d="M198 225c72 0 106.709-63.002 62.354-144M229.178 99c-31.5-54.559-103.093-124.559-155.886-54"/><path fill="#fff" stroke="none" d="M174.712 41.183l-4.645-6.513 6.514-4.645 4.644 6.514z"/><path d="M291.531 63c-36-62.354-107.916-60.912-155.886 18M166.822 98.999c-31.499 54.56-56.324 151.562 31.178 162.002"/><path fill="#fff" stroke="none" d="M143.992 175.075l-3.318 7.28-7.28-3.319 3.32-7.279z"/><path d="M104.469 63c-36 62.354 1.207 123.914 93.531 126M198 117v144M73.292 45L198 117l124.708-72"/><g fill="#7fc0e6"><circle cx="198" cy="153" r="9"/><circle cx="198" cy="189" r="9"/><circle cx="198" cy="225" r="9"/><circle cx="198" cy="297" r="9"/><circle cx="198" cy="261" r="9"/><circle cx="229.178" cy="99" r="9"/><circle cx="260.354" cy="81" r="9"/><circle cx="291.531" cy="63" r="9"/><circle cx="322.709" cy="45" r="9"/><circle cx="166.823" cy="99" r="9"/><circle cx="135.645" cy="81" r="9"/><circle cx="104.469" cy="63" r="9"/><circle cx="73.291" cy="45" r="9"/><circle cx="198" cy="117" r="9"/></g></g></svg>