<svg xmlns="http://www.w3.org/2000/svg" width="1071" height="1053"><path d="M459 693l-72 72-144 144-72 72L27 837l72-72 144-144 72-72 144 144zM396 72H108v288h288V72zm180 108L720 36H576v144zm288 72l72-72V36H792l-72 72 144 144zm72 0L792 396h144V252zm-288-72l-72 72v144h144l72-72-144-144zm180 756l144-144H828v144zm-144 72l72-72V792H612l-72 72 144 144zm72-432L612 720h144V576zm144-72l-72 72v144h144l72-72-144-144z" fill="#ffe07f"/><path d="M108 216l72-72 144 144 72-72M252 360l72-72M180 144l72-72m324 108L720 36m72 0l-72 72 144 144 72-72m0 72L792 396m-72 0l72-72-144-144-72 72m252 684l144-144m-360 0l-72 72 144 144 72-72m0-360L612 720m360 0l72-72-144-144-72 72M99 765l-72 72 144 144 72-72m0-288L99 765m144 144l144-144m0 0l72-72-144-144-72 72" fill="none" stroke="#000" stroke-width="2" stroke-miterlimit="10"/><g stroke="#000" fill="#fff"><circle cx="180" cy="144" r="18"/><circle cx="324" cy="288" r="18"/><circle cx="648" cy="108" r="18"/><circle cx="720" cy="108" r="18"/><circle cx="864" cy="252" r="18"/><circle cx="864" cy="324" r="18"/><circle cx="792" cy="324" r="18"/><circle cx="648" cy="180" r="18"/><circle cx="900" cy="864" r="18"/><circle cx="540" cy="864" r="18"/><circle cx="684" cy="1008" r="18"/><circle cx="684" cy="648" r="18"/><circle cx="1044" cy="648" r="18"/><circle cx="900" cy="504" r="18"/><circle cx="27" cy="837" r="18"/><circle cx="171" cy="981" r="18"/><circle cx="171" cy="693" r="18"/><circle cx="315" cy="837" r="18"/><circle cx="459" cy="693" r="18"/><circle cx="315" cy="549" r="18"/><g fill="#bc1e46"><circle cx="108" cy="216" r="18"/><circle cx="396" cy="216" r="18"/><circle cx="576" cy="180" r="18"/><circle cx="936" cy="180" r="18"/><circle cx="936" cy="252" r="18"/><circle cx="576" cy="252" r="18"/><circle cx="828" cy="936" r="18"/><circle cx="756" cy="936" r="18"/><circle cx="756" cy="576" r="18"/><circle cx="828" cy="576" r="18"/><circle cx="243" cy="909" r="18"/><circle cx="243" cy="621" r="18"/></g><g fill="#009246"><circle cx="252" cy="216" r="18"/><circle cx="792" cy="180" r="18"/><circle cx="720" cy="252" r="18"/><circle cx="612" cy="936" r="18"/><circle cx="972" cy="576" r="18"/><circle cx="99" cy="909" r="18"/><circle cx="387" cy="621" r="18"/></g><g fill="#0081cd"><circle cx="252" cy="72" r="18"/><circle cx="252" cy="360" r="18"/><circle cx="720" cy="36" r="18"/><circle cx="792" cy="36" r="18"/><circle cx="792" cy="396" r="18"/><circle cx="720" cy="396" r="18"/><circle cx="972" cy="792" r="18"/><circle cx="612" cy="792" r="18"/><circle cx="612" cy="720" r="18"/><circle cx="972" cy="720" r="18"/><circle cx="99" cy="765" r="18"/><circle cx="387" cy="765" r="18"/></g></g></svg>