<svg xmlns="http://www.w3.org/2000/svg" width="1656" height="1287"><path d="M0 1206h1656M0 1188h1656m0-36H0m0-72h1656m0-144H0m664.3-288H0m1656 0H664.3M1656 72H0" fill="none" stroke="#7fc0e6"/><path d="M828 1296V0M0 1215h1656" fill="none" stroke="#0081cd" stroke-width="2"/><path fill="none" stroke="#dd8ea2" stroke-linejoin="bevel" stroke-width="9" d="M936 72L504 648l648 288-864 144 1080 72-1296 36 1512 18-864 9"/><g fill="#bc1e46" stroke="#000"><circle cx="936" cy="72" r="9"/><circle cx="504" cy="648" r="9"/><circle cx="720" cy="1215" r="9"/><circle cx="1152" cy="936" r="9"/><circle cx="288" cy="1080" r="9"/><circle cx="1368" cy="1152" r="9"/><circle cx="72" cy="1188" r="9"/><circle cx="1584" cy="1206" r="9"/></g></svg>