<svg xmlns="http://www.w3.org/2000/svg" width="1431" height="1440"><g fill="none" stroke="#000"><path d="M1152.5 180v288m-864-288v288M864 180v288M576 180v288M143 180h1154v288H143zM432.5 37l-.5 575m576-216H432m0-144h576m-288 0v144"/><path d="M432 108h576v432H432m720.5 432v288m-864-288v288M864 972v288M576 972v288M143 972h1154v288H143z"/><path stroke="#0081cd" stroke-width="10" d="M432 36v72h576v288H720V252H432v648h576v288H720v-144H432v360"/><path d="M576.5 323.5L576 468h721l-.5-143.5M288 324v144H0m576.5 647.5L576 1260h721l-.5-143.5M288 1116v144H0" stroke="#dd8ea2" stroke-width="10"/><path d="M143.5 323.5L143 180h721l.5 143.5m287.5.5V180h288M143.5 1115.5L143 972h721l.5 143.5m287.5.5V972h288" stroke="#bc1e46" stroke-width="10"/><g fill="#bc1e46"><circle cx="143.5" cy="323.5" r="18"/><circle cx="864.5" cy="323.5" r="18"/><circle cx="1152.5" cy="323.5" r="18"/><circle cx="143.5" cy="1115.5" r="18"/><circle cx="864.5" cy="1115.5" r="18"/><circle cx="1152.5" cy="1115.5" r="18"/></g><g fill="#dd8ea2"><circle cx="576.5" cy="323.5" r="18"/><circle cx="287.5" cy="324.5" r="18"/><circle cx="1296.5" cy="324.5" r="18"/><circle cx="576.5" cy="1115.5" r="18"/><circle cx="287.5" cy="1116.5" r="18"/><circle cx="1296.5" cy="1116.5" r="18"/></g><g fill="#0081cd"><circle cx="432.5" cy="35.5" r="18"/><circle cx="432.5" cy="1403.5" r="18"/></g></g></svg>