<svg xmlns="http://www.w3.org/2000/svg" width="1170" height="1170"><g stroke="#000" stroke-width="2"><path d="M13.5 1156.5H18v2.2h-4.5zm4.5 0h4.5v2.2H18zm4.5 0H27v2.2h-4.5zM18 1152h9v4.5h-9zm9 4.5h4.5v2.2H27zm4.5 0H36v2.2h-4.5zm4.5 0h4.5v2.2H36zm4.5 0H45v2.2h-4.5zM27 1152h9v4.5h-9zm9 0h9v4.5h-9zm-9-9h18v9H27zm-18 15.8h36v2.2H9zm36-2.3h4.5v2.2H45zm4.5 0H54v2.2h-4.5zm4.5 0h4.5v2.2H54zm4.5 0H63v2.2h-4.5zM45 1152h9v4.5h-9zm9 0h9v4.5h-9zm9 4.5h4.5v2.2H63zm4.5 0H72v2.2h-4.5zm4.5 0h4.5v2.2H72zm4.5 0H81v2.2h-4.5zM63 1152h9v4.5h-9zm9 0h9v4.5h-9zm-27-9h18v9H45zm18 0h18v9H63zm-18 15.8h36v2.2H45zm0-33.8h36v18H45zm36 31.5h4.5v2.2H81zm4.5 0H90v2.2h-4.5zm4.5 0h4.5v2.2H90zm4.5 0H99v2.2h-4.5zM81 1152h9v4.5h-9zm9 0h9v4.5h-9zm9 4.5h4.5v2.2H99zm4.5 0h4.5v2.2h-4.5zm4.5 0h4.5v2.2H108zm4.5 0h4.5v2.2h-4.5zM99 1152h9v4.5h-9zm9 0h9v4.5h-9zm-27-9h18v9H81zm18 0h18v9H99zm-18 15.8h36v2.2H81zm36-2.3h4.5v2.2H117zm4.5 0h4.5v2.2h-4.5zm4.5 0h4.5v2.2H126zm4.5 0h4.5v2.2h-4.5zM117 1152h9v4.5h-9zm9 0h9v4.5h-9zm9 4.5h4.5v2.2H135zm4.5 0h4.5v2.2h-4.5zm4.5 0h4.5v2.2H144zm4.5 0h4.5v2.2h-4.5zM135 1152h9v4.5h-9zm9 0h9v4.5h-9zm-27-9h18v9h-18zm18 0h18v9h-18zm-18 15.8h36v2.2h-36zM81 1125h36v18H81zm36 0h36v18h-36zm-36-36h72v36H81zm72 67.5h4.5v2.2H153zm4.5 0h4.5v2.2h-4.5zm4.5 0h4.5v2.2H162zm4.5 0h4.5v2.2h-4.5zM153 1152h9v4.5h-9zm9 0h9v4.5h-9zm9 4.5h4.5v2.2H171zm4.5 0h4.5v2.2h-4.5zm4.5 0h4.5v2.2H180zm4.5 0h4.5v2.2h-4.5zM171 1152h9v4.5h-9zm9 0h9v4.5h-9zm-27-9h18v9h-18zm18 0h18v9h-18zm-18 15.8h36v2.2h-36zm36-2.3h4.5v2.2H189zm4.5 0h4.5v2.2h-4.5zm4.5 0h4.5v2.2H198zm4.5 0h4.5v2.2h-4.5zM189 1152h9v4.5h-9zm9 0h9v4.5h-9zm9 4.5h4.5v2.2H207zm4.5 0h4.5v2.2h-4.5zm4.5 0h4.5v2.2H216zm4.5 0h4.5v2.2h-4.5zM207 1152h9v4.5h-9zm9 0h9v4.5h-9zm-27-9h18v9h-18zm18 0h18v9h-18zm-18 15.8h36v2.2h-36zm-36-33.8h36v18h-36zm36 0h36v18h-36zm36 31.5h4.5v2.2H225zm4.5 0h4.5v2.2h-4.5zm4.5 0h4.5v2.2H234zm4.5 0h4.5v2.2h-4.5zM225 1152h9v4.5h-9zm9 0h9v4.5h-9zm9 4.5h4.5v2.2H243zm4.5 0h4.5v2.2h-4.5zm4.5 0h4.5v2.2H252zm4.5 0h4.5v2.2h-4.5zM243 1152h9v4.5h-9zm9 0h9v4.5h-9zm-27-9h18v9h-18zm18 0h18v9h-18zm-18 15.8h36v2.2h-36zm36-2.3h4.5v2.2H261zm4.5 0h4.5v2.2h-4.5zm4.5 0h4.5v2.2H270zm4.5 0h4.5v2.2h-4.5zM261 1152h9v4.5h-9zm9 0h9v4.5h-9zm9 4.5h4.5v2.2H279zm4.5 0h4.5v2.2h-4.5zm4.5 0h4.5v2.2H288zm4.5 0h4.5v2.2h-4.5zM279 1152h9v4.5h-9zm9 0h9v4.5h-9zm-27-9h18v9h-18zm18 0h18v9h-18zm-18 15.8h36v2.2h-36zm-36-33.8h36v18h-36zm36 0h36v18h-36zm-108-36h72v36h-72zm72 0h72v36h-72zm-72-72h144v72H153zm144 139.5h4.5v2.2H297zm4.5 0h4.5v2.2h-4.5zm4.5 0h4.5v2.2H306zm4.5 0h4.5v2.2h-4.5zM297 1152h9v4.5h-9zm9 0h9v4.5h-9zm9 4.5h4.5v2.2H315zm4.5 0h4.5v2.2h-4.5zm4.5 0h4.5v2.2H324zm4.5 0h4.5v2.2h-4.5zM315 1152h9v4.5h-9zm9 0h9v4.5h-9zm-27-9h18v9h-18zm18 0h18v9h-18zm-18 15.8h36v2.2h-36zm36-2.3h4.5v2.2H333zm4.5 0h4.5v2.2h-4.5zm4.5 0h4.5v2.2H342zm4.5 0h4.5v2.2h-4.5zM333 1152h9v4.5h-9zm9 0h9v4.5h-9zm9 4.5h4.5v2.2H351zm4.5 0h4.5v2.2h-4.5zm4.5 0h4.5v2.2H360zm4.5 0h4.5v2.2h-4.5zM351 1152h9v4.5h-9zm9 0h9v4.5h-9zm-27-9h18v9h-18zm18 0h18v9h-18zm-18 15.8h36v2.2h-36zm-36-33.8h36v18h-36zm36 0h36v18h-36zm36 31.5h4.5v2.2H369zm4.5 0h4.5v2.2h-4.5zm4.5 0h4.5v2.2H378zm4.5 0h4.5v2.2h-4.5zM369 1152h9v4.5h-9zm9 0h9v4.5h-9zm9 4.5h4.5v2.2H387zm4.5 0h4.5v2.2h-4.5zm4.5 0h4.5v2.2H396zm4.5 0h4.5v2.2h-4.5zM387 1152h9v4.5h-9zm9 0h9v4.5h-9zm-27-9h18v9h-18zm18 0h18v9h-18zm-18 15.8h36v2.2h-36zm36-2.3h4.5v2.2H405zm4.5 0h4.5v2.2h-4.5zm4.5 0h4.5v2.2H414zm4.5 0h4.5v2.2h-4.5zM405 1152h9v4.5h-9zm9 0h9v4.5h-9zm9 4.5h4.5v2.2H423zm4.5 0h4.5v2.2h-4.5zm4.5 0h4.5v2.2H432zm4.5 0h4.5v2.2h-4.5zM423 1152h9v4.5h-9zm9 0h9v4.5h-9zm-27-9h18v9h-18zm18 0h18v9h-18zm-18 15.8h36v2.2h-36zm-36-33.8h36v18h-36zm36 0h36v18h-36zm-108-36h72v36h-72zm72 0h72v36h-72zm72 67.5h4.5v2.2H441zm4.5 0h4.5v2.2h-4.5zm4.5 0h4.5v2.2H450zm4.5 0h4.5v2.2h-4.5zM441 1152h9v4.5h-9zm9 0h9v4.5h-9zm9 4.5h4.5v2.2H459zm4.5 0h4.5v2.2h-4.5zm4.5 0h4.5v2.2H468zm4.5 0h4.5v2.2h-4.5zM459 1152h9v4.5h-9zm9 0h9v4.5h-9zm-27-9h18v9h-18zm18 0h18v9h-18zm-18 15.8h36v2.2h-36zm36-2.3h4.5v2.2H477zm4.5 0h4.5v2.2h-4.5zm4.5 0h4.5v2.2H486zm4.5 0h4.5v2.2h-4.5zM477 1152h9v4.5h-9zm9 0h9v4.5h-9zm9 4.5h4.5v2.2H495zm4.5 0h4.5v2.2h-4.5zm4.5 0h4.5v2.2H504zm4.5 0h4.5v2.2h-4.5zM495 1152h9v4.5h-9zm9 0h9v4.5h-9zm-27-9h18v9h-18zm18 0h18v9h-18zm-18 15.8h36v2.2h-36zm-36-33.8h36v18h-36zm36 0h36v18h-36zm36 31.5h4.5v2.2H513zm4.5 0h4.5v2.2h-4.5zm4.5 0h4.5v2.2H522zm4.5 0h4.5v2.2h-4.5zM513 1152h9v4.5h-9zm9 0h9v4.5h-9zm9 4.5h4.5v2.2H531zm4.5 0h4.5v2.2h-4.5zm4.5 0h4.5v2.2H540zm4.5 0h4.5v2.2h-4.5zM531 1152h9v4.5h-9zm9 0h9v4.5h-9zm-27-9h18v9h-18zm18 0h18v9h-18zm-18 15.8h36v2.2h-36zm36-2.3h4.5v2.2H549zm4.5 0h4.5v2.2h-4.5zm4.5 0h4.5v2.2H558zm4.5 0h4.5v2.2h-4.5zM549 1152h9v4.5h-9zm9 0h9v4.5h-9zm9 4.5h4.5v2.2H567zm4.5 0h4.5v2.2h-4.5zm4.5 0h4.5v2.2H576zm4.5 0h4.5v2.2h-4.5zM567 1152h9v4.5h-9zm9 0h9v4.5h-9zm-27-9h18v9h-18zm18 0h18v9h-18zm-18 15.8h36v2.2h-36zm-36-33.8h36v18h-36zm36 0h36v18h-36zm-108-36h72v36h-72zm72 0h72v36h-72zm-216-72h144v72H297zm144 0h144v72H441zM297 873h288v144H297zm292.5 283.5h4.5v2.2h-4.5zm4.5 0h4.5v2.2H594zm4.5 0h4.5v2.2h-4.5zm-4.5-4.5h9v4.5h-9zm9 4.5h4.5v2.2H603zm4.5 0h4.5v2.2h-4.5zm4.5 0h4.5v2.2H612zm4.5 0h4.5v2.2h-4.5zM603 1152h9v4.5h-9zm9 0h9v4.5h-9zm-9-9h18v9h-18zm-18 15.8h36v2.2h-36zm36-2.3h4.5v2.2H621zm4.5 0h4.5v2.2h-4.5zm4.5 0h4.5v2.2H630zm4.5 0h4.5v2.2h-4.5zM621 1152h9v4.5h-9zm9 0h9v4.5h-9zm9 4.5h4.5v2.2H639zm4.5 0h4.5v2.2h-4.5zm4.5 0h4.5v2.2H648zm4.5 0h4.5v2.2h-4.5zM639 1152h9v4.5h-9zm9 0h9v4.5h-9zm-27-9h18v9h-18zm18 0h18v9h-18zm-18 15.8h36v2.2h-36zm0-33.8h36v18h-36zm36 31.5h4.5v2.2H657zm4.5 0h4.5v2.2h-4.5zm4.5 0h4.5v2.2H666zm4.5 0h4.5v2.2h-4.5zM657 1152h9v4.5h-9zm9 0h9v4.5h-9zm9 4.5h4.5v2.2H675zm4.5 0h4.5v2.2h-4.5zm4.5 0h4.5v2.2H684zm4.5 0h4.5v2.2h-4.5zM675 1152h9v4.5h-9zm9 0h9v4.5h-9zm-27-9h18v9h-18zm18 0h18v9h-18zm-18 15.8h36v2.2h-36zm36-2.3h4.5v2.2H693zm4.5 0h4.5v2.2h-4.5zm4.5 0h4.5v2.2H702zm4.5 0h4.5v2.2h-4.5zM693 1152h9v4.5h-9zm9 0h9v4.5h-9zm9 4.5h4.5v2.2H711zm4.5 0h4.5v2.2h-4.5zm4.5 0h4.5v2.2H720zm4.5 0h4.5v2.2h-4.5zM711 1152h9v4.5h-9zm9 0h9v4.5h-9zm-27-9h18v9h-18zm18 0h18v9h-18zm-18 15.8h36v2.2h-36zm-36-33.8h36v18h-36zm36 0h36v18h-36zm-36-36h72v36h-72zm72 67.5h4.5v2.2H729zm4.5 0h4.5v2.2h-4.5zm4.5 0h4.5v2.2H738zm4.5 0h4.5v2.2h-4.5zM729 1152h9v4.5h-9zm9 0h9v4.5h-9zm9 4.5h4.5v2.2H747zm4.5 0h4.5v2.2h-4.5zm4.5 0h4.5v2.2H756zm4.5 0h4.5v2.2h-4.5zM747 1152h9v4.5h-9zm9 0h9v4.5h-9zm-27-9h18v9h-18zm18 0h18v9h-18zm-18 15.8h36v2.2h-36zm36-2.3h4.5v2.2H765zm4.5 0h4.5v2.2h-4.5zm4.5 0h4.5v2.2H774zm4.5 0h4.5v2.2h-4.5zM765 1152h9v4.5h-9zm9 0h9v4.5h-9zm9 4.5h4.5v2.2H783zm4.5 0h4.5v2.2h-4.5zm4.5 0h4.5v2.2H792zm4.5 0h4.5v2.2h-4.5zM783 1152h9v4.5h-9zm9 0h9v4.5h-9zm-27-9h18v9h-18zm18 0h18v9h-18zm-18 15.8h36v2.2h-36zm-36-33.8h36v18h-36zm36 0h36v18h-36zm36 31.5h4.5v2.2H801zm4.5 0h4.5v2.2h-4.5zm4.5 0h4.5v2.2H810zm4.5 0h4.5v2.2h-4.5zM801 1152h9v4.5h-9zm9 0h9v4.5h-9zm9 4.5h4.5v2.2H819zm4.5 0h4.5v2.2h-4.5zm4.5 0h4.5v2.2H828zm4.5 0h4.5v2.2h-4.5zM819 1152h9v4.5h-9zm9 0h9v4.5h-9zm-27-9h18v9h-18zm18 0h18v9h-18zm-18 15.8h36v2.2h-36zm36-2.3h4.5v2.2H837zm4.5 0h4.5v2.2h-4.5zm4.5 0h4.5v2.2H846zm4.5 0h4.5v2.2h-4.5zM837 1152h9v4.5h-9zm9 0h9v4.5h-9zm9 4.5h4.5v2.2H855zm4.5 0h4.5v2.2h-4.5zm4.5 0h4.5v2.2H864zm4.5 0h4.5v2.2h-4.5zM855 1152h9v4.5h-9zm9 0h9v4.5h-9zm-27-9h18v9h-18zm18 0h18v9h-18zm-18 15.8h36v2.2h-36zm-36-33.8h36v18h-36zm36 0h36v18h-36zm-108-36h72v36h-72zm72 0h72v36h-72zm-72-72h144v72H729zm148.5 139.5h4.5v2.2h-4.5zm4.5 0h4.5v2.2H882zm4.5 0h4.5v2.2h-4.5zm-4.5-4.5h9v4.5h-9zm9 4.5h4.5v2.2H891zm4.5 0h4.5v2.2h-4.5zm4.5 0h4.5v2.2H900zm4.5 0h4.5v2.2h-4.5zM891 1152h9v4.5h-9zm9 0h9v4.5h-9zm-9-9h18v9h-18zm-18 15.8h36v2.2h-36zm36-2.3h4.5v2.2H909zm4.5 0h4.5v2.2h-4.5zm4.5 0h4.5v2.2H918zm4.5 0h4.5v2.2h-4.5zM909 1152h9v4.5h-9zm9 0h9v4.5h-9zm9 4.5h4.5v2.2H927zm4.5 0h4.5v2.2h-4.5zm4.5 0h4.5v2.2H936zm4.5 0h4.5v2.2h-4.5zM927 1152h9v4.5h-9zm9 0h9v4.5h-9zm-27-9h18v9h-18zm18 0h18v9h-18zm-18 15.8h36v2.2h-36zm0-33.8h36v18h-36zm36 31.5h4.5v2.2H945zm4.5 0h4.5v2.2h-4.5zm4.5 0h4.5v2.2H954zm4.5 0h4.5v2.2h-4.5zM945 1152h9v4.5h-9zm9 0h9v4.5h-9zm9 4.5h4.5v2.2H963zm4.5 0h4.5v2.2h-4.5zm4.5 0h4.5v2.2H972zm4.5 0h4.5v2.2h-4.5zM963 1152h9v4.5h-9zm9 0h9v4.5h-9zm-27-9h18v9h-18zm18 0h18v9h-18zm-18 15.8h36v2.2h-36zm36-2.3h4.5v2.2H981zm4.5 0h4.5v2.2h-4.5zm4.5 0h4.5v2.2H990zm4.5 0h4.5v2.2h-4.5zM981 1152h9v4.5h-9zm9 0h9v4.5h-9zm9 4.5h4.5v2.2H999zm4.5 0h4.5v2.2h-4.5zm4.5 0h4.5v2.2h-4.5zm4.5 0h4.5v2.2h-4.5zM999 1152h9v4.5h-9zm9 0h9v4.5h-9zm-27-9h18v9h-18zm18 0h18v9h-18zm-18 15.8h36v2.2h-36zm-36-33.8h36v18h-36zm36 0h36v18h-36zm-36-36h72v36h-72zm76.5 67.5h4.5v2.2h-4.5zm4.5 0h4.5v2.2h-4.5zm4.5 0h4.5v2.2h-4.5zm-4.5-4.5h9v4.5h-9zm9 4.5h4.5v2.2h-4.5zm4.5 0h4.5v2.2h-4.5zm4.5 0h4.5v2.2h-4.5zm4.5 0h4.5v2.2h-4.5zm-13.5-4.5h9v4.5h-9zm9 0h9v4.5h-9zm-9-9h18v9h-18zm-18 15.8h36v2.2h-36zm36-2.3h4.5v2.2h-4.5zm4.5 0h4.5v2.2h-4.5zm4.5 0h4.5v2.2h-4.5zm4.5 0h4.5v2.2h-4.5zm-13.5-4.5h9v4.5h-9zm9 0h9v4.5h-9zm9 4.5h4.5v2.2h-4.5zm4.5 0h4.5v2.2h-4.5zm4.5 0h4.5v2.2h-4.5zm4.5 0h4.5v2.2h-4.5zm-13.5-4.5h9v4.5h-9zm9 0h9v4.5h-9zm-27-9h18v9h-18zm18 0h18v9h-18zm-18 15.8h36v2.2h-36zm0-33.8h36v18h-36zm40.5 31.5h4.5v2.2h-4.5zm4.5 0h4.5v2.2h-4.5zm4.5 0h4.5v2.2h-4.5zm-4.5-4.5h9v4.5h-9zm9 4.5h4.5v2.2h-4.5zm4.5 0h4.5v2.2h-4.5zm4.5 0h4.5v2.2h-4.5zm4.5 0h4.5v2.2h-4.5zm-13.5-4.5h9v4.5h-9zm9 0h9v4.5h-9zm-9-9h18v9h-18zm-18 15.8h36v2.2h-36zm40.5-2.3h4.5v2.2h-4.5zm4.5 0h4.5v2.2h-4.5zm4.5 0h4.5v2.2h-4.5zm-4.5-4.5h9v4.5h-9zm13.5 4.5h4.5v2.2h-4.5zm9 0h4.5v2.2h-4.5zm-31.5 2.3h36v2.2h-36z" fill="#7fc0e6"/><path d="M585 1156.5h4.5v2.2H585zm0-4.5h9v4.5h-9zm0-9h18v9h-18zm0-18h36v18h-36zm0-36h72v36h-72zm0-72h144v72H585zm432 139.5h4.5v2.2h-4.5zm0-4.5h9v4.5h-9zm0-9h18v9h-18zm0-18h36v18h-36zm108 31.5h4.5v2.2h-4.5zm0-4.5h9v4.5h-9zm27 4.5h4.5v2.2h-4.5zm0-4.5h9v4.5h-9zm-27-9h18v9h-18zm0-18h36v18h-36zm-108-36h72v36h-72zm0-72h144v72h-144zM585 873h288v144H585zm0-288h576v288H585z" fill="#dd8ea2"/><path d="M9 1156.5h4.5v2.2H9zm0-4.5h9v4.5H9zm0-9h18v9H9zm0-18h36v18H9zm0-36h72v36H9zm0-72h144v72H9zm0-144h288v144H9zm864 283.5h4.5v2.2H873zm0-4.5h9v4.5h-9zm0-9h18v9h-18zm0-18h36v18h-36zm0-36h72v36h-72zm216 67.5h4.5v2.2h-4.5zm0-4.5h9v4.5h-9zm0-9h18v9h-18zm54 13.5h4.5v2.2h-4.5zm0-4.5h9v4.5h-9zm0-9h18v9h-18zm-54-18h36v18h-36zm0-36h72v36h-72zm-216-72h144v72H873zm0-144h288v144H873zM9 585h576v288H9zM9 9h1152v576H9z" fill="#bc1e46"/></g></svg>