<svg xmlns="http://www.w3.org/2000/svg" width="1015" height="1015"><path d="M469.5 513.5c-.6-4.2-2.2-8.3-4.9-11.8m87.6 44.6c-.5-6.9-2-13.6-4.4-20.1m18.1-9.9c-4.1-5.5-9-10.4-14.5-14.6m9.8-18c-6.5-2.4-13.2-3.9-20.1-4.4m44.2 17.6c-7.4-5.5-15.5-10-24.1-13.2m17.8 56.7c-3.2-8.6-7.7-16.7-13.2-24.1m-15.6 57.4c2-9 2.6-18.2 2-27.4m-14.8 61.8c5.9-10.8 10.2-22.4 12.8-34.4M508 647.4c11.6-11.6 21.5-24.8 29.4-39.3m105.1 109.1c6.2-28.7 8.3-58.1 6.2-87.3m-61.9-53.6c-.9-12.3-3.5-24.4-7.8-35.9m55.8 25.5c-5.7-15.4-13.7-29.9-23.5-43.1m-28 102.4c3.5-16.1 4.7-32.5 3.5-48.9m61.9 53.6c-1.6-21.9-6.3-43.5-13.9-64m-74.3 120.7c10.5-19.3 18.2-39.9 22.9-61.4m27.9-102.4c-7.4-9.9-16.1-18.6-26-26" fill="none" stroke="#000"/><circle cx="561.2" cy="483.7" r="7.5" fill="#fff"/><path d="M40 644.3c16.4 21.9 38.7 38.6 64.3 48.1m351.2-5.8c19.3-10.5 36.9-23.7 52.5-39.3m-134.5 69.9c28.7-6.2 56.3-16.5 82-30.6m52.5 70.1c20.7-20.7 38.4-44.3 52.5-70.1M414.4 826.8c34.4-18.8 65.9-42.4 93.6-70.1m-251.1-31.1c39.1 2.8 78.3 0 116.6-8.4m228.1 109.6c18.8-34.4 32.5-71.3 40.9-109.6M268.1 881.4c51.1-11.1 100.4-29.5 146.3-54.6M104.3 692.4c49 18.3 100.4 29.5 152.6 33.2m491 155.8c11.1-51.1 14.9-103.6 11.1-155.8M508 951.8c37-37 68.5-79.1 93.6-125M383 82.2c-25.1 45.9-43.5 95.2-54.6 146.3m196.1 335.6c3.3-6.1 5.7-12.5 7.2-19.3M508 586.1c6.5-6.5 12.1-13.9 16.5-22m-45.9 44c10.8-5.9 20.7-13.3 29.4-22m-75.4 39.1c16.1-3.5 31.5-9.3 46-17.1m-111.3 21.8c21.9 1.6 43.9 0 65.4-4.7m-150.9-13.9c27.5 10.2 56.3 16.5 85.5 18.6m-188.2-74.6c31.4 23.5 65.9 42.3 102.6 56m-213-166.5c31.4 41.9 68.5 79.1 110.4 110.4m312.4 8.9c6-3.3 11.6-7.5 16.5-12.3m-44.2-5.5c6.9.5 13.8 0 20.5-1.5m-34.2-28.5c5.5 4.1 11.6 7.5 18.1 9.9m-13.4-42.5c2.4 6.5 5.7 12.5 9.9 18.1m1.1 71.9c9-2 17.7-5.2 25.8-9.6M437 540.4c8.6 3.2 17.7 5.2 26.9 5.8m-33.2-49.3c5.5 7.4 12.1 13.9 19.4 19.4m-21 60c12.3.9 24.6 0 36.6-2.6m-61-50.9c9.8 7.4 20.7 13.3 32.2 17.6m-55.7 25.5c15.4 5.7 31.5 9.2 47.9 10.4M370 488.2c9.8 13.2 21.5 24.8 34.7 34.7m-81 11.6c17.6 13.2 36.9 23.7 57.5 31.4m-42.6-135.2c7.7 20.6 18.2 39.9 31.4 57.5m-108.2-15.6c17.6 23.5 38.4 44.3 61.9 61.9M320 345.1c2.1 29.3 8.4 58.1 18.6 85.5M205.8 370c13.7 36.7 32.6 71.3 56 102.6m66.6-244.1c-8.3 38.3-11.1 77.5-8.3 116.6M172.6 217.4c3.7 52.2 14.9 103.6 33.2 152.6m333.8 88.8c-6.7 1.5-13.2 3.9-19.3 7.2m-43.9-7.2c-1.5 6.7-2 13.7-1.5 20.5m33.1-29.8c-4.9 4.9-9 10.4-12.3 16.5m-46.7-9.1c.7 9.2 2.6 18.2 5.9 26.9m31.1-50.7c-4.4 8.1-7.7 16.8-9.6 25.8m53.6-25.8c-8.1 4.4-15.5 10-22 16.5m59 7.3c-9.2-.7-18.4 0-27.4 2m-126.5 5.8c4.3 11.5 10.2 22.4 17.6 32.2m20.9-76.7c-2.6 12-3.5 24.4-2.6 36.6m59-53.1c-8.7 8.7-16.1 18.6-22 29.4m78.4-12.9c-12 2.6-23.6 6.9-34.4 12.8m72.9 31.7c-11.5-4.3-23.6-6.9-35.9-7.8m-164.3-40.2c1.2 16.4 4.7 32.5 10.4 47.9m55.6-90.3c-7.9 14.4-13.6 29.9-17.1 46m95.7-46c-14.4 7.9-27.6 17.8-39.3 29.4m105.3 13c-16.4-1.2-32.9 0-48.9 3.5m81.6 68c-13.2-9.8-27.7-17.8-43-23.5M407.3 351.4c-4.7 21.4-6.2 43.5-4.7 65.4m105.4-95c-15.5 15.5-28.7 33.2-39.3 52.4m140-22.8c-21.5 4.7-42.1 12.4-61.4 22.9m130 56.4c-20.6-7.7-42.1-12.4-64-13.9m79 117.7c-13.2-17.6-28.8-33.2-46.3-46.3M437.9 269.4c-14.1 25.7-24.4 53.4-30.6 82m170.8-82c-25.7 14.1-49.3 31.7-70.1 52.5m188 23.2c-29.2-2.1-58.6 0-87.3 6.2m145.5 121.3c-23.5-17.6-49.3-31.7-76.8-41.9m56.8 180.6c-10.2-27.5-24.4-53.3-41.9-76.8M508 175.8c-27.7 27.7-51.3 59.2-70.1 93.6m249.7-40.9c-38.3 8.3-75.2 22.1-109.5 40.9M810.2 370c-36.7-13.7-75.2-22.1-114.2-24.9m140.8 210.2c-23.5-31.4-51.3-59.2-82.7-82.7m5 253c-2.8-39.1-11.2-77.5-24.9-114.2M633 82.2c-45.9 25.1-88 56.6-125 93.6m335.4 41.6c-52.2-3.7-104.7 0-155.8 11.1m259.7 216.3c-41.9-31.4-88.1-56.6-137.1-74.9m101.5 322.5c-18.3-49-43.5-95.2-74.9-137.1" fill="none" stroke="#000"/><circle cx="464.7" cy="501.8" r="7.5" fill="#fff"/><circle cx="491.5" cy="564.1" r="7.5" fill="#fff"/><circle cx="463.8" cy="546.3" r="7.5" fill="#fff"/><circle cx="450.1" cy="516.3" r="7.5" fill="#fff"/><circle cx="454.8" cy="483.7" r="7.5" fill="#fff"/><circle cx="476.4" cy="458.8" r="7.5" fill="#fff"/><circle cx="508" cy="449.5" r="7.5" fill="#fff"/><circle cx="539.6" cy="458.8" r="7.5" fill="#fff"/><circle cx="565.9" cy="516.3" r="7.5" fill="#fff"/><circle cx="552.2" cy="546.3" r="7.5" fill="#fff"/><circle cx="524.5" cy="564.1" r="7.5" fill="#fff"/><circle cx="508" cy="586.1" r="7.5" fill="#fff"/><circle cx="465.8" cy="573.7" r="7.5" fill="#fff"/><circle cx="437" cy="540.4" r="7.5" fill="#fff"/><circle cx="430.7" cy="496.9" r="7.5" fill="#fff"/><circle cx="449" cy="456.9" r="7.5" fill="#fff"/><circle cx="486" cy="433.1" r="7.5" fill="#fff"/><circle cx="530" cy="433.1" r="7.5" fill="#fff"/><circle cx="567" cy="456.9" r="7.5" fill="#fff"/><circle cx="585.3" cy="496.9" r="7.5" fill="#fff"/><circle cx="579" cy="540.4" r="7.5" fill="#fff"/><circle cx="550.2" cy="573.7" r="7.5" fill="#fff"/><circle cx="478.6" cy="608.1" r="7.5" fill="#fff"/><circle cx="429.1" cy="576.3" r="7.5" fill="#fff"/><circle cx="404.7" cy="522.8" r="7.5" fill="#fff"/><circle cx="413.1" cy="464.7" r="7.5" fill="#fff"/><circle cx="451.6" cy="420.2" r="7.5" fill="#fff"/><circle cx="508" cy="403.7" r="7.5" fill="#fff"/><circle cx="564.4" cy="420.2" r="7.5" fill="#fff"/><circle cx="602.9" cy="464.7" r="7.5" fill="#fff"/><circle cx="611.3" cy="522.8" r="7.5" fill="#fff"/><circle cx="586.8" cy="576.3" r="7.5" fill="#fff"/><circle cx="537.4" cy="608.1" r="7.5" fill="#fff"/><circle cx="508" cy="647.4" r="7.5" fill="#fff"/><circle cx="432.6" cy="625.2" r="7.5" fill="#fff"/><circle cx="381.2" cy="565.9" r="7.5" fill="#fff"/><circle cx="370" cy="488.2" r="7.5" fill="#fff"/><circle cx="402.7" cy="416.7" r="7.5" fill="#fff"/><circle cx="468.7" cy="374.3" r="7.5" fill="#fff"/><circle cx="547.3" cy="374.3" r="7.5" fill="#fff"/><circle cx="613.3" cy="416.7" r="7.5" fill="#fff"/><circle cx="646" cy="488.2" r="7.5" fill="#fff"/><circle cx="634.8" cy="565.9" r="7.5" fill="#fff"/><circle cx="583.3" cy="625.2" r="7.5" fill="#fff"/><circle cx="455.5" cy="686.6" r="7.5" fill="#fff"/><circle cx="367.3" cy="629.9" r="7.5" fill="#fff"/><circle cx="323.7" cy="534.5" r="7.5" fill="#fff"/><circle cx="338.6" cy="430.7" r="7.5" fill="#fff"/><circle cx="407.3" cy="351.4" r="7.5" fill="#fff"/><circle cx="508" cy="321.8" r="7.5" fill="#fff"/><circle cx="608.7" cy="351.4" r="7.5" fill="#fff"/><circle cx="677.3" cy="430.7" r="7.5" fill="#fff"/><circle cx="692.3" cy="534.5" r="7.5" fill="#fff"/><circle cx="648.7" cy="629.9" r="7.5" fill="#fff"/><circle cx="560.5" cy="686.6" r="7.5" fill="#fff"/><circle cx="508" cy="756.7" r="7.5" fill="#fff"/><circle cx="373.5" cy="717.2" r="7.5" fill="#fff"/><circle cx="281.8" cy="611.3" r="7.5" fill="#fff"/><circle cx="261.8" cy="472.6" r="7.5" fill="#fff"/><circle cx="320" cy="345.1" r="7.5" fill="#fff"/><circle cx="437.9" cy="269.4" r="7.5" fill="#fff"/><circle cx="578.1" cy="269.4" r="7.5" fill="#fff"/><circle cx="696" cy="345.1" r="7.5" fill="#fff"/><circle cx="754.2" cy="472.6" r="7.5" fill="#fff"/><circle cx="734.2" cy="611.3" r="7.5" fill="#fff"/><circle cx="642.5" cy="717.2" r="7.5" fill="#fff"/><circle cx="414.4" cy="826.8" r="7.5" fill="#fff"/><circle cx="256.9" cy="725.6" r="7.5" fill="#fff"/><circle cx="179.1" cy="555.3" r="7.5" fill="#fff"/><circle cx="205.8" cy="370" r="7.5" fill="#fff"/><circle cx="328.4" cy="228.5" r="7.5" fill="#fff"/><circle cx="508" cy="175.8" r="7.5" fill="#fff"/><circle cx="687.6" cy="228.5" r="7.5" fill="#fff"/><circle cx="810.2" cy="370" r="7.5" fill="#fff"/><circle cx="836.8" cy="555.3" r="7.5" fill="#fff"/><circle cx="759.1" cy="725.6" r="7.5" fill="#fff"/><circle cx="601.6" cy="826.8" r="7.5" fill="#fff"/><path d="M464.7 501.8c7-5.2 10.9-13.7 10.2-22.4m-10.2 22.4c-5.5 4.1-10.4 9-14.5 14.6m41.3 47.7c4.4 8.1 10 15.5 16.5 22m-44.2-39.8c-.7 9.2 0 18.4 2 27.4m-15.7-57.4c-5.5 7.4-10 15.5-13.2 24.1m17.9-56.7c-8.6 3.2-16.8 7.7-24.1 13.2m45.7-38.1c-9-2-18.2-2.6-27.4-2m75.5 107.3c8.1 4.4 16.8 7.6 25.8 9.6M508 586.1c8.7 8.7 18.6 16.1 29.4 22m-71.6-34.4c2.6 12 6.9 23.6 12.8 34.4M437 540.4c-4.3 11.5-6.9 23.6-7.8 35.9m1.5-79.4c-9.8 7.4-18.6 16.1-26 26m44.3-66c-12.3.9-24.3 3.5-35.9 7.8m172.2 32.2c7.4-9.8 13.3-20.7 17.6-32.2M478.6 608.1c7.9 14.4 17.8 27.6 29.4 39.3m-78.9-71.1c-1.2 16.4 0 32.9 3.5 48.9m-27.9-102.4c-9.8 13.2-17.8 27.7-23.5 43.1m31.9-101.2c-15.4 5.7-29.9 13.7-43.1 23.5m232.9-23.5c5.7-15.4 9.3-31.5 10.4-47.9m-2 106c13.2-9.8 24.8-21.5 34.7-34.7M432.6 625.2c4.7 21.5 12.4 42.1 22.9 61.4m-74.3-120.7c-7.7 20.6-12.4 42.1-13.9 64m2.7-141.7c-17.6 13.2-33.2 28.8-46.3 46.3m289.6-117.8c1.6-21.9 0-43.9-4.7-65.4M646 488.2c13.2-17.6 23.7-36.9 31.4-57.5m-42.6 135.2c20.6-7.7 39.9-18.2 57.5-31.4m-325 95.4c-2.1 29.2 0 58.6 6.2 87.3m-49.8-182.7c-17.6 23.5-31.7 49.3-42 76.8m327-259.9c-6.2-28.7-16.5-56.3-30.6-82m99.2 161.3c10.2-27.5 16.5-56.3 18.6-85.5m-3.6 189.3c23.5-17.6 44.3-38.4 61.9-61.9M648.7 629.9c29.3-2.1 58.1-8.4 85.5-18.6m-452.4 0c-13.7 36.7-22.1 75.2-24.8 114.2m321.1-456.1c-18.8-34.4-42.4-65.9-70.1-93.6m188 169.3c2.8-39.1 0-78.3-8.3-116.6m66.5 244.1c23.5-31.4 42.3-65.9 56-102.6m-76 241.3c36.7-13.7 71.3-32.6 102.6-56M642.5 717.2c38.3 8.3 77.5 11.1 116.6 8.4M508 449.5c-6.5-6.5-13.9-12.1-22-16.5m0 .1c-10.8-5.9-22.4-10.2-34.4-12.8m0-.1c-16.1-3.5-32.5-4.7-48.9-3.5m0 0c-21.9 1.6-43.5 6.3-64 13.9m-.1.1c-27.5 10.2-53.3 24.4-76.8 41.9m0 0c-31.4 23.5-59.2 51.3-82.7 82.7M508 647.4c15.5 15.5 33.2 28.7 52.5 39.3m-105-.1c14.1 25.7 31.7 49.3 52.5 70.1m52.5-70.1c25.7 14.1 53.4 24.3 82 30.6M508 756.7c27.7 27.7 59.2 51.3 93.6 70.1M373.5 717.2c8.3 38.3 22.1 75.2 40.9 109.6m151.5-310.5c7.4-5.5 13.9-12.1 19.4-19.4m-33.1 49.4c9.2-.7 18.2-2.6 26.8-5.8m0-.1c11.5-4.3 22.4-10.2 32.2-17.6m-61 50.9c12 2.6 24.4 3.5 36.6 2.6m0 0c16.4-1.2 32.5-4.7 47.9-10.4m-97.3 42.2c14.4 7.9 29.9 13.6 46 17.1m-.1 0c21.4 4.7 43.5 6.2 65.4 4.7M539.6 458.8c-2-9-5.2-17.7-9.6-25.8m31.2 50.7c3.2-8.6 5.2-17.7 5.9-26.9M530 433.1c-5.9-10.8-13.3-20.7-22-29.4m59 53.2c.9-12.3 0-24.6-2.6-36.6m0-.1c-3.5-16.1-9.3-31.5-17.1-46M508 403.7c-11.6-11.6-24.8-21.5-39.3-29.4m0 0c-19.3-10.5-39.9-18.2-61.4-22.9m140 22.9c-10.5-19.3-23.7-36.9-39.3-52.4m-100.7 29.5c-28.7-6.2-58.1-8.3-87.3-6.2m188-23.4c-20.7-20.7-44.3-38.4-70.1-52.5m0 .1c-34.4-18.8-71.3-32.5-109.5-40.9M320 345.1c-39.1 2.8-77.5 11.2-114.3 24.9" fill="none" stroke="#000"/><circle cx="104.3" cy="692.4" r="7.5" fill="#fff"/><path d="M104.3 692.4c-27.5 73.7 10 155.8 83.7 183.3 25.6 9.5 53.4 11.5 80.1 5.7m-89-326.1c-31.4 41.9-56.6 88.1-74.8 137.1" fill="none" stroke="#000"/><circle cx="268.1" cy="881.4" r="7.5" fill="#fff"/><path d="M268.1 881.4c16.7 76.9 92.6 125.6 169.5 108.9 26.7-5.8 51.1-19.2 70.5-38.5M256.9 725.6c-3.7 52.2 0 104.7 11.1 155.8" fill="none" stroke="#000"/><circle cx="508" cy="951.8" r="7.5" fill="#fff"/><path d="M414.4 826.8c25.1 45.9 56.6 88 93.6 125m0 0c55.6 55.6 145.8 55.6 201.5 0 19.3-19.3 32.7-43.8 38.5-70.5" fill="none" stroke="#000"/><circle cx="747.9" cy="881.4" r="7.5" fill="#fff"/><path d="M747.9 881.4c76.9 16.7 152.8-32 169.5-108.9 5.8-26.7 3.8-54.5-5.7-80.1M601.6 826.8c45.9 25.1 95.2 43.5 146.3 54.6" fill="none" stroke="#000"/><circle cx="911.7" cy="692.4" r="7.5" fill="#fff"/><path d="M911.7 692.4c73.7-27.5 111.2-109.5 83.7-183.3-9.5-25.6-26.2-47.9-48.1-64.3M759.1 725.6c52.2-3.7 103.6-14.9 152.6-33.2" fill="none" stroke="#000"/><circle cx="947.3" cy="444.8" r="7.5" fill="#fff"/><path d="M836.8 555.3c41.9-31.4 79.1-68.5 110.4-110.4m.1-.1c47.2-63 34.3-152.3-28.7-199.4-21.9-16.4-48-26.1-75.2-28.1" fill="none" stroke="#000"/><circle cx="843.4" cy="217.4" r="7.5" fill="#fff"/><path d="M843.4 217.4c5.6-78.5-53.5-146.6-131.9-152.3-27.2-1.9-54.5 4-78.4 17.1M810.2 370c18.3-49 29.5-100.4 33.2-152.6" fill="none" stroke="#000"/><circle cx="633" cy="82.2" r="7.5" fill="#fff"/><path d="M633 82.2c-37.7-69.1-124.2-94.5-193.3-56.8-24 13.1-43.7 32.8-56.8 56.8m304.7 146.3c-11.1-51.1-29.5-100.4-54.6-146.3" fill="none" stroke="#000"/><circle cx="383" cy="82.2" r="7.5" fill="#fff"/><path d="M383 82.2C313.9 44.5 227.4 69.9 189.7 139c-13.1 24-19 51.2-17.1 78.4M508 175.8c-37-37-79.1-68.5-125-93.6" fill="none" stroke="#000"/><circle cx="172.6" cy="217.4" r="7.5" fill="#fff"/><path d="M328.4 228.5c-51.1-11.1-103.6-14.9-155.8-11.1m0 0C94.1 223 35.1 291.2 40.7 369.7c1.9 27.2 11.7 53.3 28.1 75.2" fill="none" stroke="#000"/><circle cx="68.7" cy="444.8" r="7.5" fill="#fff"/><path d="M205.8 370c-49 18.3-95.2 43.5-137.1 74.9m0-.1C5.7 491.9-7.1 581.2 40 644.2" fill="none" stroke="#000"/><circle cx="474.9" cy="479.3" r="7.5" fill="#fff"/><path d="M474.9 479.3c8.7-.6 16.6-5.6 20.8-13.3m-20.8 13.3c-6.9.5-13.6 2-20.1 4.4" fill="none" stroke="#000"/><circle cx="495.7" cy="466" r="7.5" fill="#fff"/><path d="M495.7 466c7.7 4.2 17 4.2 24.7 0m-24.7 0c-6.1-3.3-12.5-5.7-19.3-7.2" fill="none" stroke="#000"/><circle cx="520.3" cy="466" r="7.5" fill="#fff"/><path d="M520.3 466c4.2 7.7 12 12.7 20.8 13.3M520.3 466c-3.3-6.1-7.5-11.6-12.3-16.5" fill="none" stroke="#000"/><circle cx="541.1" cy="479.3" r="7.5" fill="#fff"/><path d="M541.1 479.3c-.6 8.7 3.2 17.2 10.2 22.4m-10.2-22.4c.5-6.9 0-13.8-1.5-20.5" fill="none" stroke="#000"/><circle cx="551.3" cy="501.8" r="7.5" fill="#fff"/><path d="M551.3 501.8c-5.2 7-6.6 16.2-3.5 24.4m3.5-24.4c4.1-5.5 7.5-11.6 9.9-18.1" fill="none" stroke="#000"/><circle cx="547.8" cy="526.2" r="7.5" fill="#fff"/><path d="M547.8 526.2c-8.2 3.1-14.3 10.1-16.2 18.6m16.2-18.6c6.5-2.4 12.5-5.7 18.1-9.9" fill="none" stroke="#000"/><circle cx="531.7" cy="544.8" r="7.5" fill="#fff"/><path d="M531.7 544.8c-8.6-1.9-17.5.8-23.7 7m23.7-7c6.7 1.5 13.7 2 20.5 1.5" fill="none" stroke="#000"/><circle cx="508" cy="551.8" r="7.5" fill="#fff"/><path d="M508 551.8c-6.2-6.2-15.1-8.8-23.7-7m23.7 7c4.9 4.9 10.4 9 16.5 12.3" fill="none" stroke="#000"/><circle cx="484.3" cy="544.8" r="7.5" fill="#fff"/><path d="M484.3 544.8c-1.9-8.6-7.9-15.6-16.1-18.6m16.1 18.6c1.5 6.7 3.9 13.2 7.2 19.3" fill="none" stroke="#000"/><circle cx="468.2" cy="526.2" r="7.5" fill="#fff"/><path d="M468.2 526.2c1.5-4.1 2-8.5 1.4-12.7m-1.4 12.7c-2.4 6.5-3.9 13.2-4.4 20.1" fill="none" stroke="#000"/></svg>