<?xml version="1.0" encoding="utf-8"?>
<!-- Generator: Adobe Illustrator 15.1.0, SVG Export Plug-In . SVG Version: 6.00 Build 0)  -->
<!DOCTYPE svg PUBLIC "-//W3C//DTD SVG 1.1//EN" "http://www.w3.org/Graphics/SVG/1.1/DTD/svg11.dtd">
<svg version="1.1" id="Layer_1" xmlns="http://www.w3.org/2000/svg" xmlns:xlink="http://www.w3.org/1999/xlink" x="0px" y="0px"
	 width="512.245px" height="512.245px" viewBox="0 0 512.245 512.245" enable-background="new 0 0 512.245 512.245"
	 xml:space="preserve">
<polygon fill="#E6E65C" stroke="#754C24" stroke-linejoin="bevel" points="256.001,328.463 318.356,364.463 318.356,292.463 
	256.001,256.463 "/>
<polygon fill="#E67373" stroke="#754C24" stroke-linejoin="bevel" points="318.356,292.463 380.71,256.463 318.356,220.462 
	256.002,256.463 "/>
<polygon fill="#5C7EE6" stroke="#754C24" stroke-linejoin="bevel" points="380.71,328.463 380.71,256.463 318.356,292.463 
	318.356,364.463 "/>
<polygon fill="#E6E65C" stroke="#754C24" stroke-linejoin="bevel" points="380.71,328.463 443.065,364.463 443.065,292.463 
	380.71,256.463 "/>
<polygon fill="#E6E65C" stroke="#754C24" stroke-linejoin="bevel" points="443.065,220.462 505.419,256.463 505.419,184.462 
	443.065,148.462 "/>
<polygon fill="#E6E65C" stroke="#754C24" stroke-linejoin="bevel" points="380.71,112.462 443.065,148.463 443.065,76.462 
	380.71,40.462 "/>
<polygon fill="#E67373" stroke="#754C24" stroke-linejoin="bevel" points="443.065,292.463 505.419,256.463 443.065,220.462 
	380.71,256.463 "/>
<polygon fill="#5C7EE6" stroke="#754C24" stroke-linejoin="bevel" points="505.419,328.463 505.419,256.463 443.065,292.463 
	443.065,364.463 "/>
<polygon fill="#E6E65C" stroke="#754C24" stroke-linejoin="bevel" points="6.583,328.463 68.938,364.463 68.938,292.463 
	6.583,256.463 "/>
<polygon fill="#E67373" stroke="#754C24" stroke-linejoin="bevel" points="68.938,292.463 131.292,256.463 68.938,220.462 
	6.584,256.463 "/>
<polygon fill="#5C7EE6" stroke="#754C24" stroke-linejoin="bevel" points="131.292,328.463 131.292,256.463 68.938,292.463 
	68.938,364.463 "/>
<polygon fill="#5C7EE6" stroke="#754C24" stroke-linejoin="bevel" points="68.938,220.462 68.938,148.462 6.584,184.462 
	6.584,256.463 "/>
<polygon fill="#5C7EE6" stroke="#754C24" stroke-linejoin="bevel" points="131.292,112.462 131.292,40.462 68.938,76.462 
	68.938,148.463 "/>
<polygon fill="#E6E65C" stroke="#754C24" stroke-linejoin="bevel" points="131.292,328.463 193.647,364.463 193.647,292.463 
	131.292,256.463 "/>
<polygon fill="#E67373" stroke="#754C24" stroke-linejoin="bevel" points="193.647,292.463 256.001,256.463 193.647,220.462 
	131.292,256.463 "/>
<polygon fill="#5C7EE6" stroke="#754C24" stroke-linejoin="bevel" points="256.001,328.463 256.001,256.463 193.647,292.463 
	193.647,364.463 "/>
<polygon fill="#E6E65C" stroke="#754C24" stroke-linejoin="bevel" points="318.356,436.463 380.71,472.463 380.71,400.463 
	318.356,364.463 "/>
<polygon fill="#E67373" stroke="#754C24" stroke-linejoin="bevel" points="380.71,400.463 443.065,364.463 380.71,328.463 
	318.356,364.463 "/>
<polygon fill="#5C7EE6" stroke="#754C24" stroke-linejoin="bevel" points="443.065,436.463 443.065,364.463 380.71,400.463 
	380.71,472.463 "/>
<polygon fill="#E6E65C" stroke="#754C24" stroke-linejoin="bevel" points="68.938,436.463 131.293,472.463 131.293,400.463 
	68.938,364.463 "/>
<polygon fill="#E67373" stroke="#754C24" stroke-linejoin="bevel" points="131.293,400.463 193.647,364.463 131.293,328.463 
	68.938,364.463 "/>
<polygon fill="#5C7EE6" stroke="#754C24" stroke-linejoin="bevel" points="193.647,436.463 193.647,364.463 131.293,400.463 
	131.293,472.463 "/>
<polygon fill="#E6E65C" stroke="#754C24" stroke-linejoin="bevel" points="193.647,436.463 256.001,472.463 256.001,400.463 
	193.647,364.463 "/>
<polygon fill="#E67373" stroke="#754C24" stroke-linejoin="bevel" points="256.001,400.463 318.356,364.463 256.001,328.463 
	193.647,364.463 "/>
<polygon fill="#5C7EE6" stroke="#754C24" stroke-linejoin="bevel" points="318.356,436.463 318.356,364.463 256.001,400.463 
	256.001,472.463 "/>
<polygon fill="#E6E65C" stroke="#754C24" stroke-linejoin="bevel" points="131.292,112.462 193.647,148.462 193.647,76.462 
	131.292,40.462 "/>
<polygon fill="#E67373" stroke="#754C24" stroke-linejoin="bevel" points="193.647,76.462 256.001,40.462 193.647,4.462 
	131.293,40.462 "/>
<polygon fill="#E67373" stroke="#754C24" stroke-linejoin="bevel" points="193.647,508.463 256.001,472.463 193.647,436.463 
	131.292,472.463 "/>
<polygon fill="#E67373" stroke="#754C24" stroke-linejoin="bevel" points="318.356,508.463 380.71,472.463 318.356,436.463 
	256.001,472.463 "/>
<polygon fill="#5C7EE6" stroke="#754C24" stroke-linejoin="bevel" points="256.001,112.462 256.001,40.462 193.647,76.462 
	193.647,148.462 "/>
<polygon fill="#E6E65C" stroke="#754C24" stroke-linejoin="bevel" points="256.001,112.462 318.356,148.462 318.356,76.462 
	256.001,40.462 "/>
<polygon fill="#E67373" stroke="#754C24" stroke-linejoin="bevel" points="318.356,76.462 380.71,40.462 318.356,4.462 
	256.001,40.462 "/>
<polygon fill="#5C7EE6" stroke="#754C24" stroke-linejoin="bevel" points="380.71,112.462 380.71,40.462 318.356,76.462 
	318.356,148.462 "/>
<polygon fill="#E6E65C" stroke="#754C24" stroke-linejoin="bevel" points="193.647,220.462 256.001,256.463 256.001,184.462 
	193.647,148.462 "/>
<polygon fill="#E67373" stroke="#754C24" stroke-linejoin="bevel" points="256.001,184.462 318.356,148.462 256.001,112.462 
	193.647,148.462 "/>
<polygon fill="#5C7EE6" stroke="#754C24" stroke-linejoin="bevel" points="318.356,220.462 318.356,148.462 256.001,184.462 
	256.001,256.463 "/>
<polygon fill="#E6E65C" stroke="#754C24" stroke-linejoin="bevel" points="318.356,220.462 380.71,256.463 380.71,184.462 
	318.356,148.462 "/>
<polygon fill="#E67373" stroke="#754C24" stroke-linejoin="bevel" points="380.71,184.462 443.065,148.462 380.71,112.462 
	318.356,148.462 "/>
<polygon fill="#5C7EE6" stroke="#754C24" stroke-linejoin="bevel" points="443.065,220.462 443.065,148.462 380.71,184.462 
	380.71,256.463 "/>
<polygon fill="#E6E65C" stroke="#754C24" stroke-linejoin="bevel" points="68.938,220.462 131.292,256.463 131.292,184.462 
	68.938,148.462 "/>
<polygon fill="#E67373" stroke="#754C24" stroke-linejoin="bevel" points="131.292,184.462 193.647,148.462 131.292,112.462 
	68.938,148.462 "/>
<polygon fill="#5C7EE6" stroke="#754C24" stroke-linejoin="bevel" points="193.647,220.462 193.647,148.462 131.292,184.462 
	131.292,256.463 "/>
<polygon fill="#E6E65C" stroke="#754C24" stroke-linejoin="bevel" points="297.57,256.461 318.353,220.459 276.785,220.459 
	256,256.461 "/>
<polygon fill="#E67373" stroke="#754C24" stroke-linejoin="bevel" points="276.785,220.459 256,184.459 235.215,220.459 
	256,256.461 "/>
<polygon fill="#E67373" stroke="#754C24" stroke-linejoin="bevel" points="276.785,292.461 256,256.461 235.215,292.461 
	256,328.461 "/>
<polygon fill="#5C7EE6" stroke="#754C24" stroke-linejoin="bevel" points="297.57,256.461 256,256.461 276.785,292.461 
	318.353,292.461 "/>
<polygon fill="#E6E65C" stroke="#754C24" stroke-linejoin="bevel" points="235.215,292.461 256,256.461 214.431,256.461 
	193.647,292.461 "/>
<polygon fill="#5C7EE6" stroke="#754C24" stroke-linejoin="bevel" points="235.215,220.459 193.647,220.459 214.431,256.461 
	256,256.461 "/>
<polygon fill="#E6E65C" stroke="#754C24" stroke-linejoin="bevel" points="422.28,256.463 443.063,220.461 401.495,220.461 
	380.711,256.463 "/>
<polygon fill="#E67373" stroke="#754C24" stroke-linejoin="bevel" points="401.495,220.461 380.71,184.461 359.926,220.461 
	380.71,256.463 "/>
<polygon fill="#E67373" stroke="#754C24" stroke-linejoin="bevel" points="401.495,292.463 380.71,256.463 359.926,292.463 
	380.71,328.463 "/>
<polygon fill="#5C7EE6" stroke="#754C24" stroke-linejoin="bevel" points="422.28,256.463 380.711,256.463 401.495,292.463 
	443.063,292.463 "/>
<polygon fill="#E6E65C" stroke="#754C24" stroke-linejoin="bevel" points="359.925,292.463 380.71,256.463 339.141,256.463 
	318.358,292.463 "/>
<polygon fill="#5C7EE6" stroke="#754C24" stroke-linejoin="bevel" points="359.925,220.461 318.358,220.461 339.141,256.463 
	380.71,256.463 "/>
<polygon fill="#E6E65C" stroke="#754C24" stroke-linejoin="bevel" points="359.925,148.462 380.708,112.461 339.14,112.461 
	318.357,148.462 "/>
<polygon fill="#E67373" stroke="#754C24" stroke-linejoin="bevel" points="339.14,112.461 318.356,76.461 297.572,112.461 
	318.356,148.462 "/>
<polygon fill="#E67373" stroke="#754C24" stroke-linejoin="bevel" points="339.14,184.462 318.356,148.462 297.572,184.462 
	318.356,220.462 "/>
<polygon fill="#5C7EE6" stroke="#754C24" stroke-linejoin="bevel" points="359.925,148.462 318.357,148.462 339.14,184.462 
	380.708,184.462 "/>
<polygon fill="#E6E65C" stroke="#754C24" stroke-linejoin="bevel" points="297.571,184.462 318.356,148.462 276.787,148.462 
	256.003,184.462 "/>
<polygon fill="#5C7EE6" stroke="#754C24" stroke-linejoin="bevel" points="297.571,112.461 256.003,112.461 276.787,148.462 
	318.356,148.462 "/>
<polygon fill="#E6E65C" stroke="#754C24" stroke-linejoin="bevel" points="235.216,148.462 256,112.461 214.431,112.461 
	193.648,148.462 "/>
<polygon fill="#E67373" stroke="#754C24" stroke-linejoin="bevel" points="214.431,112.461 193.647,76.461 172.863,112.461 
	193.647,148.462 "/>
<polygon fill="#E67373" stroke="#754C24" stroke-linejoin="bevel" points="214.431,184.462 193.647,148.462 172.863,184.462 
	193.647,220.462 "/>
<polygon fill="#5C7EE6" stroke="#754C24" stroke-linejoin="bevel" points="235.216,148.462 193.648,148.462 214.431,184.462 
	256,184.462 "/>
<polygon fill="#E6E65C" stroke="#754C24" stroke-linejoin="bevel" points="172.862,184.462 193.647,148.462 152.078,148.462 
	131.294,184.462 "/>
<polygon fill="#5C7EE6" stroke="#754C24" stroke-linejoin="bevel" points="172.862,112.461 131.294,112.461 152.078,148.462 
	193.647,148.462 "/>
<g>
	<polygon fill="#E6E65C" stroke="#754C24" stroke-linejoin="bevel" points="297.572,136.463 318.356,148.462 318.356,124.463 
		297.572,112.463 	"/>
	<polygon fill="#5C7EE6" stroke="#754C24" stroke-linejoin="bevel" points="339.14,136.463 339.14,112.463 318.356,124.463 
		318.356,148.462 	"/>
	<polygon fill="#E67373" stroke="#754C24" stroke-linejoin="bevel" points="297.572,160.462 318.356,148.462 297.572,136.463 
		276.787,148.462 	"/>
	<polygon fill="#5C7EE6" stroke="#754C24" stroke-linejoin="bevel" points="318.356,172.462 318.356,148.462 297.572,160.462 
		297.572,184.462 	"/>
	<polygon fill="#E6E65C" stroke="#754C24" stroke-linejoin="bevel" points="318.356,172.462 339.14,184.462 339.14,160.462 
		318.356,148.462 	"/>
	<polygon fill="#E67373" stroke="#754C24" stroke-linejoin="bevel" points="339.14,160.462 359.925,148.462 339.14,136.463 
		318.356,148.462 	"/>
</g>
<g>
	<polygon fill="#E6E65C" stroke="#754C24" stroke-linejoin="bevel" points="297.569,208.46 318.353,220.459 318.353,196.46 
		297.569,184.46 	"/>
	<polygon fill="#5C7EE6" stroke="#754C24" stroke-linejoin="bevel" points="339.137,208.46 339.137,184.46 318.353,196.46 
		318.353,220.459 	"/>
	<polygon fill="#E67373" stroke="#754C24" stroke-linejoin="bevel" points="297.569,232.459 318.353,220.459 297.569,208.46 
		276.784,220.459 	"/>
	<polygon fill="#5C7EE6" stroke="#754C24" stroke-linejoin="bevel" points="318.353,244.459 318.353,220.459 297.569,232.459 
		297.569,256.459 	"/>
	<polygon fill="#E6E65C" stroke="#754C24" stroke-linejoin="bevel" points="318.353,244.459 339.137,256.459 339.137,232.459 
		318.353,220.459 	"/>
	<polygon fill="#E67373" stroke="#754C24" stroke-linejoin="bevel" points="339.137,232.459 359.922,220.459 339.137,208.46 
		318.353,220.459 	"/>
</g>
<g>
	<polygon fill="#E6E65C" stroke="#754C24" stroke-linejoin="bevel" points="235.219,172.463 256.003,184.462 256.003,160.463 
		235.219,148.463 	"/>
	<polygon fill="#5C7EE6" stroke="#754C24" stroke-linejoin="bevel" points="276.788,172.463 276.788,148.463 256.003,160.463 
		256.003,184.462 	"/>
	<polygon fill="#E67373" stroke="#754C24" stroke-linejoin="bevel" points="235.219,196.462 256.003,184.462 235.219,172.463 
		214.434,184.462 	"/>
	<polygon fill="#5C7EE6" stroke="#754C24" stroke-linejoin="bevel" points="256.003,208.462 256.003,184.462 235.219,196.462 
		235.219,220.462 	"/>
	<polygon fill="#E6E65C" stroke="#754C24" stroke-linejoin="bevel" points="256.003,208.462 276.788,220.462 276.788,196.462 
		256.003,184.462 	"/>
	<polygon fill="#E67373" stroke="#754C24" stroke-linejoin="bevel" points="276.788,196.462 297.573,184.462 276.788,172.463 
		256.003,184.462 	"/>
</g>
<g>
	<polygon fill="#E6E65C" stroke="#754C24" stroke-linejoin="bevel" points="332.213,148.462 339.141,136.462 325.286,136.462 
		318.358,148.462 	"/>
	<polygon fill="#E67373" stroke="#754C24" stroke-linejoin="bevel" points="325.286,136.462 318.357,124.462 311.429,136.462 
		318.357,148.462 	"/>
	<polygon fill="#E67373" stroke="#754C24" stroke-linejoin="bevel" points="325.286,160.462 318.357,148.462 311.429,160.462 
		318.357,172.462 	"/>
	<polygon fill="#5C7EE6" stroke="#754C24" stroke-linejoin="bevel" points="332.213,148.462 318.358,148.462 325.286,160.462 
		339.141,160.462 	"/>
	<polygon fill="#E6E65C" stroke="#754C24" stroke-linejoin="bevel" points="311.429,160.462 318.357,148.462 304.501,148.462 
		297.574,160.462 	"/>
	<polygon fill="#5C7EE6" stroke="#754C24" stroke-linejoin="bevel" points="311.429,136.462 297.574,136.462 304.501,148.462 
		318.357,148.462 	"/>
</g>
<g>
	<polygon fill="#E6E65C" stroke="#754C24" stroke-linejoin="bevel" points="332.214,220.461 339.142,208.461 325.287,208.461 
		318.359,220.461 	"/>
	<polygon fill="#E67373" stroke="#754C24" stroke-linejoin="bevel" points="325.287,208.461 318.358,196.461 311.43,208.461 
		318.358,220.461 	"/>
	<polygon fill="#E67373" stroke="#754C24" stroke-linejoin="bevel" points="325.287,232.461 318.358,220.461 311.43,232.461 
		318.358,244.461 	"/>
	<polygon fill="#5C7EE6" stroke="#754C24" stroke-linejoin="bevel" points="332.214,220.461 318.359,220.461 325.287,232.461 
		339.142,232.461 	"/>
	<polygon fill="#E6E65C" stroke="#754C24" stroke-linejoin="bevel" points="311.43,232.461 318.358,220.461 304.502,220.461 
		297.575,232.461 	"/>
	<polygon fill="#5C7EE6" stroke="#754C24" stroke-linejoin="bevel" points="311.43,208.461 297.575,208.461 304.502,220.461 
		318.358,220.461 	"/>
</g>
</svg>
