<?xml version="1.0" encoding="utf-8"?>
<!-- Generator: Adobe Illustrator 15.1.0, SVG Export Plug-In . SVG Version: 6.00 Build 0)  -->
<!DOCTYPE svg PUBLIC "-//W3C//DTD SVG 1.1//EN" "http://www.w3.org/Graphics/SVG/1.1/DTD/svg11.dtd">
<svg version="1.1" id="Layer_1" xmlns="http://www.w3.org/2000/svg" xmlns:xlink="http://www.w3.org/1999/xlink" x="0px" y="0px"
	 width="468px" height="468px" viewBox="0 0 468 468" enable-background="new 0 0 468 468" xml:space="preserve">
<polyline fill="none" stroke="#000000" points="421.061,126 407.867,187.412 450,233.999 "/>
<polyline fill="none" stroke="#000000" points="389.884,144 407.867,187.412 414,233.999 "/>
<polyline fill="none" stroke="#000000" points="358.707,162 407.867,187.412 378,233.999 "/>
<polyline fill="none" stroke="#000000" points="341.998,46.939 361.279,106.72 421.061,126 "/>
<polyline fill="none" stroke="#000000" points="324,78.116 361.279,106.72 389.885,144 "/>
<polyline fill="none" stroke="#000000" points="306,109.292 361.279,106.72 358.707,162 "/>
<polyline fill="none" stroke="#000000" points="233.999,18.001 280.586,60.133 341.998,46.939 "/>
<polyline fill="none" stroke="#000000" points="234,54 280.586,60.133 324,78.115 "/>
<polyline fill="none" stroke="#000000" points="234,90 280.586,60.133 306,109.292 "/>
<polyline fill="none" stroke="#000000" points="126,46.94 187.411,60.134 233.999,18.001 "/>
<polyline fill="none" stroke="#000000" points="144,78.116 187.411,60.134 234,54 "/>
<polyline fill="none" stroke="#000000" points="162,109.293 187.411,60.134 234,90 "/>
<polyline fill="none" stroke="#000000" points="46.939,126.002 106.719,106.723 126,46.94 "/>
<polyline fill="none" stroke="#000000" points="78.116,144.001 106.719,106.723 144,78.115 "/>
<polyline fill="none" stroke="#000000" points="109.293,162.001 106.719,106.723 162,109.293 "/>
<polyline fill="none" stroke="#000000" points="18.001,234.002 60.133,187.415 46.939,126.002 "/>
<polyline fill="none" stroke="#000000" points="54,234.001 60.133,187.415 78.116,144 "/>
<polyline fill="none" stroke="#000000" points="90.001,234.001 60.133,187.415 109.293,162.001 "/>
<polyline fill="none" stroke="#000000" points="46.941,342.001 60.135,280.59 18.001,234.002 "/>
<polyline fill="none" stroke="#000000" points="78.116,324.001 60.135,280.59 54,234 "/>
<polyline fill="none" stroke="#000000" points="109.293,306 60.135,280.59 90.001,234.001 "/>
<polyline fill="none" stroke="#000000" points="126.002,421.062 106.723,361.28 46.941,342.001 "/>
<polyline fill="none" stroke="#000000" points="144,389.886 106.723,361.28 78.116,324 "/>
<polyline fill="none" stroke="#000000" points="162,358.707 106.723,361.28 109.293,306 "/>
<polyline fill="none" stroke="#000000" points="234.002,449.999 187.415,407.866 126.002,421.062 "/>
<polyline fill="none" stroke="#000000" points="234,414.001 187.415,407.866 144,389.885 "/>
<polyline fill="none" stroke="#000000" points="234,377.999 187.415,407.866 162,358.707 "/>
<polyline fill="none" stroke="#000000" points="342.002,421.06 280.588,407.865 234.002,449.999 "/>
<polyline fill="none" stroke="#000000" points="324,389.886 280.588,407.865 234,414 "/>
<polyline fill="none" stroke="#000000" points="306,358.707 280.588,407.865 234,377.999 "/>
<polyline fill="none" stroke="#000000" points="421.062,341.998 361.279,361.277 342.002,421.06 "/>
<polyline fill="none" stroke="#000000" points="389.885,324.002 361.279,361.277 324,389.885 "/>
<polyline fill="none" stroke="#000000" points="358.707,306 361.279,361.277 306,358.707 "/>
<polyline fill="none" stroke="#000000" points="450,233.998 407.865,280.586 421.062,341.998 "/>
<polyline fill="none" stroke="#000000" points="414,234.002 407.865,280.586 389.885,324 "/>
<polyline fill="none" stroke="#000000" points="378,234 407.865,280.586 358.707,306 "/>
<circle fill="#BC1E47" stroke="#000000" cx="378" cy="233.999" r="9"/>
<circle fill="#0081CD" stroke="#000000" cx="414" cy="233.999" r="9"/>
<circle fill="#009246" stroke="#000000" cx="450" cy="233.999" r="9"/>
<circle fill="#FFFFFF" stroke="#000000" cx="407.867" cy="187.412" r="9"/>
<circle fill="#BC1E47" stroke="#000000" cx="358.707" cy="162" r="9.001"/>
<circle fill="#0081CD" stroke="#000000" cx="389.884" cy="144" r="9"/>
<circle fill="#009246" stroke="#000000" cx="421.061" cy="126" r="9.001"/>
<path fill="#FFFFFF" stroke="#000000" d="M367.643,100.356c3.516,3.514,3.516,9.213,0.002,12.727c-3.518,3.516-9.213,3.515-12.729,0
	c-3.516-3.514-3.516-9.213-0.002-12.728C358.432,96.841,364.127,96.841,367.643,100.356z"/>
<circle fill="#BC1E47" stroke="#000000" cx="305.999" cy="109.292" r="9.001"/>
<circle fill="#0081CD" stroke="#000000" cx="323.999" cy="78.116" r="8.999"/>
<circle fill="#009246" stroke="#000000" cx="341.999" cy="46.939" r="9.001"/>
<circle fill="#FFFFFF" stroke="#000000" cx="280.587" cy="60.133" r="8.999"/>
<circle fill="#BC1E47" stroke="#000000" cx="234" cy="90.001" r="9.001"/>
<circle fill="#0081CD" stroke="#000000" cx="234" cy="54.001" r="8.999"/>
<circle fill="#009246" stroke="#000000" cx="233.999" cy="18.001" r="9.001"/>
<path fill="#FFFFFF" stroke="#000000" d="M185.083,51.441c4.801-1.287,9.736,1.562,11.023,6.362
	c1.285,4.804-1.562,9.736-6.364,11.023c-4.801,1.288-9.735-1.562-11.023-6.362C177.433,57.66,180.28,52.728,185.083,51.441z"/>
<circle fill="#BC1E47" stroke="#000000" cx="162" cy="109.293" r="9.001"/>
<path fill="#0081CD" stroke="#000000" d="M139.5,70.324c4.305-2.488,9.81-1.013,12.295,3.291c2.485,4.306,1.011,9.812-3.294,12.295
	c-4.306,2.487-9.809,1.01-12.295-3.294C133.72,78.311,135.196,72.807,139.5,70.324z"/>
<circle fill="#009246" stroke="#000000" cx="126" cy="46.94" r="9.001"/>
<path fill="#FFFFFF" stroke="#000000" d="M100.357,100.358c3.514-3.516,9.213-3.516,12.728-0.002c3.515,3.518,3.515,9.212,0,12.729
	c-3.514,3.516-9.213,3.515-12.728,0.002C96.842,109.569,96.841,103.874,100.357,100.358z"/>
<circle fill="#BC1E47" stroke="#000000" cx="109.293" cy="162.001" r="9.001"/>
<circle fill="#0081CD" stroke="#000000" cx="78.117" cy="144.001" r="8.999"/>
<circle fill="#009246" stroke="#000000" cx="46.939" cy="126.002" r="9.001"/>
<path fill="#FFFFFF" stroke="#000000" d="M51.441,185.085c1.285-4.802,6.221-7.651,11.021-6.365
	c4.803,1.289,7.649,6.22,6.364,11.022c-1.285,4.802-6.221,7.65-11.021,6.366C53.002,194.819,50.155,189.888,51.441,185.085z"/>
<circle fill="#BC1E47" stroke="#000000" cx="90.001" cy="234.001" r="9.001"/>
<circle fill="#0081CD" stroke="#000000" cx="54.001" cy="234.001" r="8.999"/>
<circle fill="#009246" stroke="#000000" cx="18.001" cy="234.001" r="9.001"/>
<path fill="#FFFFFF" stroke="#000000" d="M51.442,282.918c-1.288-4.801,1.562-9.736,6.362-11.023
	c4.804-1.284,9.734,1.562,11.022,6.364c1.288,4.801-1.562,9.735-6.361,11.023C57.661,290.567,52.729,287.721,51.442,282.918z"/>
<path fill="#BC1E47" stroke="#000000" d="M101.499,310.5c-2.483-4.306-1.01-9.809,3.296-12.293
	c4.304-2.486,9.808-1.011,12.296,3.294c2.482,4.304,1.009,9.811-3.297,12.294C109.491,316.28,103.986,314.806,101.499,310.5z"/>
<path fill="#0081CD" stroke="#000000" d="M70.325,328.501c-2.488-4.305-1.014-9.809,3.291-12.295
	c4.305-2.484,9.811-1.011,12.295,3.294c2.487,4.306,1.01,9.809-3.295,12.295C78.311,334.28,72.807,332.805,70.325,328.501z"/>
<circle fill="#009246" stroke="#000000" cx="46.94" cy="342.001" r="9.001"/>
<path fill="#FFFFFF" stroke="#000000" d="M100.359,367.644c-3.516-3.514-3.516-9.213-0.001-12.728c3.518-3.515,9.211-3.515,12.727,0
	c3.517,3.514,3.516,9.213,0.004,12.728C109.569,371.159,103.875,371.159,100.359,367.644z"/>
<path fill="#BC1E47" stroke="#000000" d="M157.5,366.502c-4.304-2.487-5.779-7.989-3.293-12.294
	c2.484-4.305,7.988-5.779,12.297-3.295c4.301,2.485,5.778,7.991,3.291,12.295C167.312,367.512,161.807,368.987,157.5,366.502z"/>
<path fill="#0081CD" stroke="#000000" d="M139.503,397.678c-4.308-2.483-5.782-7.987-3.298-12.293
	c2.486-4.304,7.991-5.78,12.295-3.295c4.307,2.485,5.779,7.99,3.295,12.296C149.309,398.69,143.805,400.164,139.503,397.678z"/>
<path fill="#009246" stroke="#000000" d="M121.5,428.856c-4.303-2.485-5.781-7.99-3.292-12.295c2.485-4.306,7.987-5.78,12.295-3.295
	c4.302,2.485,5.778,7.992,3.294,12.295C131.311,429.868,125.809,431.34,121.5,428.856z"/>
<path fill="#FFFFFF" stroke="#000000" d="M185.085,416.56c-4.802-1.285-7.651-6.221-6.364-11.021
	c1.289-4.803,6.219-7.649,11.021-6.363c4.802,1.284,7.65,6.221,6.367,11.02C194.819,414.999,189.889,417.846,185.085,416.56z"/>
<path fill="#BC1E47" stroke="#000000" d="M234,387c-4.971-0.002-9-4.029-8.998-9c-0.002-4.971,4.027-8.999,9.002-9.002
	c4.967,0.002,8.999,4.031,8.997,9.002C243.002,382.969,238.973,386.999,234,387z"/>
<circle fill="#0081CD" stroke="#000000" cx="234.001" cy="413.999" r="8.999"/>
<circle fill="#009246" stroke="#000000" cx="234.001" cy="450" r="9.001"/>
<path fill="#FFFFFF" stroke="#000000" d="M282.918,416.559c-4.801,1.288-9.736-1.562-11.021-6.362
	c-1.285-4.804,1.561-9.734,6.363-11.021c4.801-1.289,9.734,1.562,11.023,6.359C290.568,410.341,287.721,415.271,282.918,416.559z"/>
<path fill="#BC1E47" stroke="#000000" d="M310.5,366.502c-4.305,2.483-9.809,1.011-12.293-3.295
	c-2.486-4.304-1.012-9.808,3.295-12.297c4.303-2.482,9.811-1.009,12.293,3.297C316.281,358.51,314.807,364.015,310.5,366.502z"/>
<path fill="#0081CD" stroke="#000000" d="M328.5,397.676c-4.305,2.489-9.807,1.014-12.293-3.29
	c-2.484-4.306-1.012-9.811,3.293-12.295c4.307-2.487,9.809-1.011,12.295,3.294C334.281,389.69,332.805,395.193,328.5,397.676z"/>
<path fill="#009246" stroke="#000000" d="M346.5,428.856c-4.303,2.483-9.811,1.012-12.293-3.297
	c-2.486-4.306-1.012-9.808,3.293-12.295c4.305-2.483,9.811-1.008,12.295,3.295C352.281,420.866,350.805,426.367,346.5,428.856z"/>
<path fill="#FFFFFF" stroke="#000000" d="M367.643,367.642c-3.514,3.517-9.213,3.517-12.725,0.001
	c-3.516-3.518-3.516-9.211,0-12.727c3.512-3.517,9.211-3.516,12.725-0.004C371.16,358.432,371.158,364.125,367.643,367.642z"/>
<path fill="#BC1E47" stroke="#000000" d="M366.502,310.5c-2.486,4.303-7.99,5.779-12.293,3.293
	c-4.307-2.483-5.781-7.987-3.295-12.297c2.484-4.301,7.99-5.778,12.293-3.291C367.512,300.688,368.988,306.193,366.502,310.5z"/>
<circle fill="#0081CD" stroke="#000000" cx="389.884" cy="323.999" r="8.999"/>
<path fill="#009246" stroke="#000000" d="M428.855,346.501c-2.484,4.302-7.99,5.781-12.295,3.291
	c-4.305-2.485-5.779-7.987-3.295-12.294c2.486-4.303,7.992-5.778,12.295-3.294C429.867,336.69,431.34,342.193,428.855,346.501z"/>
<path fill="#FFFFFF" stroke="#000000" d="M416.559,282.916c-1.285,4.803-6.221,7.652-11.02,6.363
	c-4.803-1.289-7.65-6.219-6.363-11.021c1.283-4.802,6.219-7.65,11.018-6.365C415,273.182,417.846,278.113,416.559,282.916z"/>
</svg>
