<?xml version="1.0" encoding="utf-8"?>
<!-- Generator: Adobe Illustrator 15.1.0, SVG Export Plug-In . SVG Version: 6.00 Build 0)  -->
<!DOCTYPE svg PUBLIC "-//W3C//DTD SVG 1.1//EN" "http://www.w3.org/Graphics/SVG/1.1/DTD/svg11.dtd">
<svg version="1.1" id="Layer_1" xmlns="http://www.w3.org/2000/svg" xmlns:xlink="http://www.w3.org/1999/xlink" x="0px" y="0px"
	 width="630px" height="270px" viewBox="0 0 630 270" enable-background="new 0 0 630 270" xml:space="preserve">
<g>
	<rect x="450" y="88.5" transform="matrix(-0.8 0.6 -0.6 -0.8 971.1 -56.7)" fill="none" stroke="#000000" width="90" height="90"/>
	<polygon fill="none" stroke="#000000" points="369,7.5 369,97.5 432,124.5 459,7.5 	"/>
	<polygon fill="none" stroke="#000000" points="531,7.5 504,70.5 621,97.5 621,7.5 	"/>
	<polygon fill="none" stroke="#000000" points="369,169.5 369,259.5 459,259.5 486,196.5 	"/>
	<polygon fill="none" stroke="#000000" points="558,142.5 531,259.5 621,259.5 621,169.5 	"/>
	<line fill="none" stroke="#000000" x1="459" y1="259.5" x2="531" y2="259.5"/>
	<line fill="none" stroke="#000000" x1="621" y1="169.5" x2="621" y2="97.5"/>
	<line fill="none" stroke="#000000" x1="531" y1="7.5" x2="459" y2="7.5"/>
	<line fill="none" stroke="#000000" x1="369" y1="97.5" x2="369" y2="169.5"/>
</g>
<g>
	<rect x="9" y="12" fill="none" stroke="#000000" width="243" height="243"/>
	<line fill="none" stroke="#000000" x1="9" y1="93" x2="252" y2="93"/>
	<line fill="none" stroke="#000000" x1="9" y1="174" x2="252" y2="174"/>
	<line fill="none" stroke="#000000" x1="90" y1="12" x2="90" y2="255"/>
	<line fill="none" stroke="#000000" x1="171" y1="12" x2="171" y2="255"/>
	<g>
		<path d="M23.003,66v-0.972c3.24-0.252,3.456-0.54,3.456-3.132V48.039c0-1.835-0.144-2.016-1.728-2.087l-1.728-0.072v-0.864
			c2.268-0.396,4.428-1.08,6.407-1.872v18.753c0,2.592,0.216,2.88,3.492,3.132V66H23.003z"/>
		<path d="M52.306,54.77c0,5.255-1.908,11.663-7.307,11.663c-5.435,0-7.379-5.939-7.379-11.663c0-5.219,1.944-11.626,7.415-11.626
			C50.398,43.144,52.306,49.227,52.306,54.77z M40.823,54.734c0,5.04,1.008,10.475,4.175,10.475c3.24,0,4.104-5.399,4.104-10.438
			c0-5.111-0.9-10.439-4.175-10.439C41.687,44.331,40.823,49.694,40.823,54.734z"/>
		<path d="M69.585,54.77c0,5.255-1.908,11.663-7.307,11.663c-5.436,0-7.379-5.939-7.379-11.663c0-5.219,1.944-11.626,7.415-11.626
			C67.678,43.144,69.585,49.227,69.585,54.77z M58.103,54.734c0,5.04,1.008,10.475,4.176,10.475c3.239,0,4.103-5.399,4.103-10.438
			c0-5.111-0.9-10.439-4.175-10.439C58.967,44.331,58.103,49.694,58.103,54.734z"/>
	</g>
	<g>
		<path d="M185.003,66v-0.972c3.24-0.252,3.456-0.54,3.456-3.132V48.039c0-1.835-0.144-2.016-1.728-2.087l-1.728-0.072v-0.864
			c2.268-0.396,4.428-1.08,6.407-1.872v18.753c0,2.592,0.216,2.88,3.492,3.132V66H185.003z"/>
		<path d="M214.306,54.77c0,5.255-1.908,11.663-7.307,11.663c-5.435,0-7.379-5.939-7.379-11.663c0-5.219,1.944-11.626,7.415-11.626
			C212.398,43.144,214.306,49.227,214.306,54.77z M202.823,54.734c0,5.04,1.008,10.475,4.175,10.475
			c3.24,0,4.104-5.399,4.104-10.438c0-5.111-0.9-10.439-4.175-10.439C203.687,44.331,202.823,49.694,202.823,54.734z"/>
		<path d="M231.585,54.77c0,5.255-1.908,11.663-7.307,11.663c-5.436,0-7.379-5.939-7.379-11.663c0-5.219,1.944-11.626,7.415-11.626
			C229.678,43.144,231.585,49.227,231.585,54.77z M220.103,54.734c0,5.04,1.008,10.475,4.176,10.475
			c3.239,0,4.103-5.399,4.103-10.438c0-5.111-0.9-10.439-4.175-10.439C220.967,44.331,220.103,49.694,220.103,54.734z"/>
	</g>
	<g>
		<path d="M23.003,228v-0.971c3.24-0.252,3.456-0.541,3.456-3.133v-13.857c0-1.836-0.144-2.016-1.728-2.088l-1.728-0.072v-0.864
			c2.268-0.396,4.428-1.08,6.407-1.872v18.753c0,2.592,0.216,2.881,3.492,3.133V228H23.003z"/>
		<path d="M52.306,216.77c0,5.256-1.908,11.663-7.307,11.663c-5.435,0-7.379-5.939-7.379-11.663c0-5.219,1.944-11.626,7.415-11.626
			C50.398,205.144,52.306,211.227,52.306,216.77z M40.823,216.734c0,5.039,1.008,10.475,4.175,10.475c3.24,0,4.104-5.4,4.104-10.439
			c0-5.111-0.9-10.438-4.175-10.438C41.687,206.331,40.823,211.694,40.823,216.734z"/>
		<path d="M69.585,216.77c0,5.256-1.908,11.663-7.307,11.663c-5.436,0-7.379-5.939-7.379-11.663c0-5.219,1.944-11.626,7.415-11.626
			C67.678,205.144,69.585,211.227,69.585,216.77z M58.103,216.734c0,5.039,1.008,10.475,4.176,10.475
			c3.239,0,4.103-5.4,4.103-10.439c0-5.111-0.9-10.438-4.175-10.438C58.967,206.331,58.103,211.694,58.103,216.734z"/>
	</g>
	<g>
		<path d="M185.003,228v-0.971c3.24-0.252,3.456-0.541,3.456-3.133v-13.857c0-1.836-0.144-2.016-1.728-2.088l-1.728-0.072v-0.864
			c2.268-0.396,4.428-1.08,6.407-1.872v18.753c0,2.592,0.216,2.881,3.492,3.133V228H185.003z"/>
		<path d="M214.306,216.77c0,5.256-1.908,11.663-7.307,11.663c-5.435,0-7.379-5.939-7.379-11.663c0-5.219,1.944-11.626,7.415-11.626
			C212.398,205.144,214.306,211.227,214.306,216.77z M202.823,216.734c0,5.039,1.008,10.475,4.175,10.475
			c3.24,0,4.104-5.4,4.104-10.439c0-5.111-0.9-10.438-4.175-10.438C203.687,206.331,202.823,211.694,202.823,216.734z"/>
		<path d="M231.585,216.77c0,5.256-1.908,11.663-7.307,11.663c-5.436,0-7.379-5.939-7.379-11.663c0-5.219,1.944-11.626,7.415-11.626
			C229.678,205.144,231.585,211.227,231.585,216.77z M220.103,216.734c0,5.039,1.008,10.475,4.176,10.475
			c3.239,0,4.103-5.4,4.103-10.439c0-5.111-0.9-10.438-4.175-10.438C220.967,206.331,220.103,211.694,220.103,216.734z"/>
	</g>
	<g>
		<path d="M104.003,147v-0.972c3.24-0.252,3.456-0.54,3.456-3.132v-13.858c0-1.835-0.144-2.016-1.728-2.087l-1.728-0.072v-0.864
			c2.268-0.396,4.428-1.08,6.407-1.872v18.753c0,2.592,0.216,2.88,3.492,3.132V147H104.003z"/>
		<path d="M133.306,135.769c0,5.255-1.908,11.663-7.307,11.663c-5.435,0-7.379-5.939-7.379-11.663
			c0-5.219,1.944-11.626,7.415-11.626C131.398,124.143,133.306,130.226,133.306,135.769z M121.823,135.733
			c0,5.04,1.008,10.475,4.175,10.475c3.24,0,4.104-5.399,4.104-10.438c0-5.111-0.9-10.439-4.175-10.439
			C122.687,125.33,121.823,130.693,121.823,135.733z"/>
		<path d="M150.585,135.769c0,5.255-1.908,11.663-7.307,11.663c-5.436,0-7.379-5.939-7.379-11.663
			c0-5.219,1.944-11.626,7.415-11.626C148.678,124.143,150.585,130.226,150.585,135.769z M139.103,135.733
			c0,5.04,1.008,10.475,4.176,10.475c3.239,0,4.103-5.399,4.103-10.438c0-5.111-0.9-10.439-4.175-10.439
			C139.967,125.33,139.103,130.693,139.103,135.733z"/>
	</g>
	<g>
		<path d="M125.099,44.007c-3.419,7.307-6.731,14.65-10.187,22.065l-2.664,0.36l-0.252-0.396c3.78-6.155,7.811-13.57,10.691-19.833
			h-7.775c-2.376,0-2.592,0.324-3.456,2.7h-1.044c0.324-1.98,0.504-3.78,0.648-5.328h13.75L125.099,44.007z"/>
		<path d="M129.924,66v-0.972c3.24-0.252,3.456-0.54,3.456-3.132V48.039c0-1.835-0.144-2.016-1.728-2.087l-1.728-0.072v-0.864
			c2.268-0.396,4.428-1.08,6.407-1.872v18.753c0,2.592,0.216,2.88,3.492,3.132V66H129.924z"/>
	</g>
	<g>
		<path d="M44.098,125.006c-3.419,7.307-6.731,14.65-10.187,22.065l-2.664,0.36l-0.252-0.396c3.78-6.155,7.811-13.57,10.691-19.833
			h-7.775c-2.376,0-2.592,0.324-3.456,2.7h-1.044c0.324-1.98,0.504-3.78,0.648-5.328h13.75L44.098,125.006z"/>
		<path d="M48.923,147v-0.972c3.24-0.252,3.456-0.54,3.456-3.132v-13.858c0-1.835-0.144-2.016-1.728-2.087l-1.728-0.072v-0.864
			c2.268-0.396,4.428-1.08,6.407-1.872v18.753c0,2.592,0.216,2.88,3.492,3.132V147H48.923z"/>
	</g>
	<g>
		<path d="M206.098,125.006c-3.419,7.307-6.731,14.65-10.187,22.065l-2.664,0.36l-0.252-0.396c3.78-6.155,7.811-13.57,10.691-19.833
			h-7.775c-2.376,0-2.592,0.324-3.456,2.7h-1.044c0.324-1.98,0.504-3.78,0.648-5.328h13.75L206.098,125.006z"/>
		<path d="M210.923,147v-0.972c3.24-0.252,3.456-0.54,3.456-3.132v-13.858c0-1.835-0.144-2.016-1.728-2.087l-1.728-0.072v-0.864
			c2.268-0.396,4.428-1.08,6.407-1.872v18.753c0,2.592,0.216,2.88,3.492,3.132V147H210.923z"/>
	</g>
	<g>
		<path d="M125.098,206.007c-3.419,7.307-6.731,14.65-10.187,22.065l-2.664,0.36l-0.252-0.396c3.78-6.156,7.811-13.57,10.691-19.834
			h-7.775c-2.376,0-2.592,0.324-3.456,2.699h-1.044c0.324-1.979,0.504-3.779,0.648-5.327h13.75L125.098,206.007z"/>
		<path d="M129.923,228v-0.971c3.24-0.252,3.456-0.541,3.456-3.133v-13.857c0-1.836-0.144-2.016-1.728-2.088l-1.728-0.072v-0.864
			c2.268-0.396,4.428-1.08,6.407-1.872v18.753c0,2.592,0.216,2.881,3.492,3.133V228H129.923z"/>
	</g>
</g>
<g>
	<g>
		<line fill="none" stroke="#B3B3B3" stroke-width="10" x1="270" y1="133.5" x2="324" y2="133.5"/>
		<path fill="#B3B3B3" d="M354.176,133.5c-14.199,5.269-31.816,14.258-42.734,23.774l8.599-23.774l-8.599-23.774
			C322.359,119.242,339.977,128.234,354.176,133.5z"/>
	</g>
</g>
</svg>
