<?xml version="1.0" encoding="utf-8"?>
<!-- Generator: Adobe Illustrator 15.1.0, SVG Export Plug-In . SVG Version: 6.00 Build 0)  -->
<!DOCTYPE svg PUBLIC "-//W3C//DTD SVG 1.1//EN" "http://www.w3.org/Graphics/SVG/1.1/DTD/svg11.dtd">
<svg version="1.1" id="Layer_1" xmlns="http://www.w3.org/2000/svg" xmlns:xlink="http://www.w3.org/1999/xlink" x="0px" y="0px"
	 width="495px" height="494px" viewBox="-185 -184 495 494" enable-background="new -185 -184 495 494" xml:space="preserve">
<path fill="#FFEECC" stroke="#CCCCCC" stroke-width="3" d="M61.635-176.213c132.441,0,239.812,107.367,239.812,239.812
	S194.076,303.412,61.635,303.412c-132.445,0-239.812-107.367-239.812-239.812S-70.811-176.213,61.635-176.213z"/>
<circle fill="#FFFFFF" stroke="#CCCCCC" stroke-width="3" cx="214.654" cy="107.314" r="80.668"/>
<circle fill="#FFFFFF" stroke="#CCCCCC" stroke-width="3" cx="247.979" cy="-8.62" r="39.96"/>
<path fill="#FFFFFF" stroke="#CCCCCC" stroke-width="3" d="M95.443-171.393c65.605,0,118.789,53.184,118.789,118.791
	S161.049,66.193,95.443,66.193C29.836,66.193-23.35,13.006-23.35-52.602S29.836-171.393,95.443-171.393z"/>
<path fill="#FFFFFF" stroke="#CCCCCC" stroke-width="3" d="M25.291,55.699c66.832,0,121.008,54.178,121.008,121.01
	c0,66.828-54.176,121.008-121.008,121.008s-121.008-54.18-121.008-121.008C-95.717,109.877-41.541,55.699,25.291,55.699z"/>
<path fill="#FFFFFF" stroke="#CCCCCC" stroke-width="3" d="M180.045,182.943c22.488,0,40.719,18.227,40.719,40.715
	s-18.23,40.715-40.719,40.715c-22.484,0-40.715-18.227-40.715-40.715S157.561,182.943,180.045,182.943z"/>
<circle fill="#FFFFFF" stroke="#CCCCCC" stroke-width="3" cx="-91.074" cy="13.799" r="79.191"/>
<circle fill="#FFFFFF" stroke="#CCCCCC" stroke-width="3" cx="-127.854" cy="127.131" r="39.961"/>
<path fill="none" stroke="#000000" stroke-width="3" d="M204.904,16.635c23.246,12.668,49.305,19.312,75.781,19.312"/>
<path fill="none" stroke="#000000" stroke-width="3" d="M232.42,203.115c58.984-31.086,81.605-104.102,50.523-163.084
	c-0.727-1.377-1.477-2.736-2.254-4.084"/>
<path fill="none" stroke="#000000" stroke-width="3" d="M234.576-65.525c-28.398-83.023-118.727-127.312-201.75-98.916
	C-3.77-151.924-34.545-126.488-53.727-92.9"/>
<path fill="none" stroke="#000000" stroke-width="3" d="M280.689,35.947c18.918-32.764,7.691-74.664-25.074-93.58
	c-6.531-3.771-13.641-6.436-21.039-7.893"/>
<path fill="none" stroke="#000000" stroke-width="3" d="M234.576-65.525c-19.828,22.709-30.418,52.029-29.672,82.164"/>
<path fill="none" stroke="#000000" stroke-width="3" d="M232.42,203.115c-22.688-14.289-48.523-22.816-75.254-24.836"/>
<path fill="none" stroke="#000000" stroke-width="3" d="M157.166,178.279c-17.336,25.398-24.508,56.375-20.09,86.805"/>
<path fill="none" stroke="#000000" stroke-width="3" d="M122.287,79.67c8.031,34.031,19.727,67.094,34.879,98.609"/>
<path fill="none" stroke="#000000" stroke-width="3" d="M-0.59,42.08c40.896,12.73,81.854,25.262,122.877,37.586"/>
<path fill="none" stroke="#000000" stroke-width="3" d="M204.904,16.635c-29.641,18.1-57.328,39.225-82.617,63.031"/>
<path fill="none" stroke="#000000" stroke-width="3" d="M-116.682,184.693C-91.322,269.834-1.746,318.295,83.396,292.939
	c19.492-5.805,37.711-15.254,53.68-27.852"/>
<path fill="none" stroke="#000000" stroke-width="3" d="M137.076,265.084c35.707,14.242,76.195-3.156,90.438-38.867
	c2.938-7.367,4.598-15.18,4.906-23.102"/>
<path fill="none" stroke="#000000" stroke-width="3" d="M-116.682,184.693c20.84-22.023,32.512-51.156,32.645-81.477"/>
<path fill="none" stroke="#000000" stroke-width="3" d="M-84.037,103.217c-22.721-13.254-48.332-20.754-74.613-21.836"/>
<path fill="none" stroke="#000000" stroke-width="3" d="M-84.037,103.217C-54.002,86.053-26.006,65.545-0.586,42.08"/>
<path fill="none" stroke="#000000" stroke-width="3" d="M-0.59,42.08C-11.289-5.369-29.209-50.893-53.73-92.904"/>
<path fill="none" stroke="#000000" stroke-width="3" d="M-53.727-92.9c-65.756,0.309-118.811,53.863-118.504,119.619
	c0.088,19.045,4.748,37.787,13.58,54.662"/>
<path fill="none" stroke="#000000" stroke-width="3" d="M-158.654,81.381c-20.252,31.953-10.768,74.277,21.186,94.539
	c6.395,4.051,13.416,7.016,20.783,8.773"/>
</svg>
