<?xml version="1.0" encoding="utf-8"?>
<!-- Generator: Adobe Illustrator 15.1.0, SVG Export Plug-In . SVG Version: 6.00 Build 0)  -->
<!DOCTYPE svg PUBLIC "-//W3C//DTD SVG 1.1//EN" "http://www.w3.org/Graphics/SVG/1.1/DTD/svg11.dtd">
<svg version="1.1" id="Layer_1" xmlns="http://www.w3.org/2000/svg" xmlns:xlink="http://www.w3.org/1999/xlink" x="0px" y="0px"
	 width="144px" height="162px" viewBox="0 0 144 162" enable-background="new 0 0 144 162" xml:space="preserve">
<line fill="none" stroke="#000000" x1="90" y1="117" x2="90" y2="153"/>
<line fill="none" stroke="#000000" x1="54" y1="117" x2="54" y2="153"/>
<line fill="none" stroke="#000000" x1="90" y1="9" x2="90" y2="45"/>
<line fill="none" stroke="#000000" x1="54" y1="9" x2="54" y2="45"/>
<polygon fill="none" stroke="#000000" points="18,81 54,45 90,45 126,81 90,117 54,117 "/>
<circle fill="#FFFFFF" stroke="#000000" cx="18" cy="81" r="9"/>
<circle fill="#FFFFFF" stroke="#000000" cx="126" cy="81" r="9"/>
<circle fill="#FFFFFF" stroke="#000000" cx="54" cy="45" r="6"/>
<circle fill="#FFFFFF" stroke="#000000" cx="54" cy="9" r="6"/>
<circle fill="#FFFFFF" stroke="#000000" cx="90" cy="45" r="6"/>
<circle fill="#FFFFFF" stroke="#000000" cx="90" cy="9" r="6"/>
<circle fill="#FFFFFF" stroke="#000000" cx="54" cy="153" r="6"/>
<circle fill="#FFFFFF" stroke="#000000" cx="54" cy="117" r="6"/>
<circle fill="#FFFFFF" stroke="#000000" cx="90" cy="153" r="6"/>
<circle fill="#FFFFFF" stroke="#000000" cx="90" cy="117" r="6"/>
</svg>
