<?xml version="1.0" standalone="no"?>
<!DOCTYPE svg PUBLIC "-//W3C//DTD SVG 1.1//EN" 
  "http://www.w3.org/Graphics/SVG/1.1/DTD/svg11.dtd">
<svg width="468" height="432" viewBox="0 0 468 432"
     xmlns="http://www.w3.org/2000/svg" version="1.1">
  <g style="stroke:#009246; fill:none">
    <line x1="270" y1="198" x2="234" y2="234"/>
    <line x1="270" y1="198" x2="234" y2="162"/>
    <line x1="198" y1="198" x2="234" y2="234"/>
    <line x1="198" y1="198" x2="234" y2="162"/>
    <line x1="306" y1="198" x2="234" y2="162"/>
    <line x1="306" y1="198" x2="234" y2="234"/>
    <line x1="306" y1="198" x2="234" y2="270"/>
    <line x1="162" y1="198" x2="234" y2="162"/>
    <line x1="162" y1="198" x2="234" y2="234"/>
    <line x1="162" y1="198" x2="234" y2="270"/>
    <line x1="162" y1="198" x2="234" y2="126"/>
    <line x1="162" y1="198" x2="234" y2="306"/>
    <line x1="342" y1="198" x2="234" y2="270"/>
    <line x1="342" y1="198" x2="234" y2="162"/>
    <line x1="342" y1="198" x2="234" y2="126"/>
    <line x1="342" y1="198" x2="234" y2="306"/>
    <line x1="126" y1="198" x2="234" y2="306"/>
    <line x1="126" y1="198" x2="234" y2="126"/>
    <line x1="126" y1="198" x2="234" y2="90"/>
    <line x1="378" y1="198" x2="234" y2="90"/>
    <line x1="378" y1="198" x2="234" y2="342"/>
    <line x1="90" y1="198" x2="234" y2="90"/>
    <line x1="90" y1="198" x2="234" y2="342"/>
    <line x1="90" y1="198" x2="234" y2="54"/>
    <line x1="90" y1="198" x2="234" y2="378"/>
    <line x1="414" y1="198" x2="234" y2="378"/>
    <line x1="414" y1="198" x2="234" y2="18"/>
    <line x1="54" y1="198" x2="234" y2="378"/>
    <line x1="54" y1="198" x2="234" y2="18"/>
    <line x1="450" y1="198" x2="234" y2="18"/>
    <line x1="450" y1="198" x2="234" y2="378"/>
    <line x1="18" y1="198" x2="234" y2="18"/>
    <line x1="18" y1="198" x2="234" y2="378"/>
    <line x1="18" y1="198" x2="234" y2="414"/>
  </g>
  <g style="stroke:#000000; fill:#BC1E46">
    <circle cx="270" cy="198" r="6"/>
    <circle cx="198" cy="198" r="6"/>
    <circle cx="306" cy="198" r="6"/>
    <circle cx="162" cy="198" r="6"/>
    <circle cx="342" cy="198" r="6"/>
    <circle cx="126" cy="198" r="6"/>
    <circle cx="378" cy="198" r="6"/>
    <circle cx="90" cy="198" r="6"/>
    <circle cx="414" cy="198" r="6"/>
    <circle cx="54" cy="198" r="6"/>
    <circle cx="450" cy="198" r="6"/>
    <circle cx="18" cy="198" r="6"/>
  </g>
  <g style="stroke:#000000; fill:#0081CD">
    <circle cx="234" cy="234" r="6"/>
    <circle cx="234" cy="162" r="6"/>
    <circle cx="234" cy="270" r="6"/>
    <circle cx="234" cy="126" r="6"/>
    <circle cx="234" cy="306" r="6"/>
    <circle cx="234" cy="90" r="6"/>
    <circle cx="234" cy="342" r="6"/>
    <circle cx="234" cy="54" r="6"/>
    <circle cx="234" cy="378" r="6"/>
    <circle cx="234" cy="18" r="6"/>
    <circle cx="234" cy="414" r="6"/>
  </g>
</svg>
