<?xml version="1.0" encoding="utf-8"?>
<!-- Generator: Adobe Illustrator 15.1.0, SVG Export Plug-In . SVG Version: 6.00 Build 0)  -->
<!DOCTYPE svg PUBLIC "-//W3C//DTD SVG 1.1//EN" "http://www.w3.org/Graphics/SVG/1.1/DTD/svg11.dtd">
<svg version="1.1" id="Layer_1" xmlns="http://www.w3.org/2000/svg" xmlns:xlink="http://www.w3.org/1999/xlink" x="0px" y="0px"
	 width="360px" height="321.998px" viewBox="0 0 360 321.998" enable-background="new 0 0 360 321.998" xml:space="preserve">
<path fill="none" stroke="#000000" d="M144,75c0,26.646,14.485,49.893,36,62.344c21.515-12.451,36-35.698,36-62.344"/>
<path fill="none" stroke="#000000" d="M180,12.646c17.219-9.941,39.236-4.042,49.178,13.176C239.118,43.041,233.219,65.059,216,75"
	/>
<path fill="none" stroke="#000000" d="M144,75c-17.219-9.94-23.119-31.958-13.178-49.177C140.764,8.604,162.781,2.705,180,12.646"/>
<line fill="none" stroke="#000000" x1="180" y1="137.344" x2="180" y2="192"/>
<polyline fill="none" stroke="#000000" points="144,75 180,54.215 216,75 "/>
<line fill="none" stroke="#000000" x1="180" y1="54.215" x2="180" y2="12.646"/>
<path fill="none" stroke="#000000" d="M96.675,281.678c23.076-13.323,35.965-37.491,35.991-62.35
	c-21.541-12.406-48.916-13.327-71.991-0.004"/>
<path fill="none" stroke="#000000" d="M24.675,281.678C7.457,271.736,1.557,249.719,11.497,232.5
	c9.942-17.218,31.959-23.117,49.178-13.176"/>
<path fill="none" stroke="#000000" d="M96.675,281.678c0,19.882-16.118,36-36,36.001c-19.883-0.001-36-16.118-36-36.001"/>
<line fill="none" stroke="#000000" x1="132.667" y1="219.328" x2="180" y2="192"/>
<polyline fill="none" stroke="#000000" points="96.675,281.678 60.675,260.893 60.675,219.324 "/>
<line fill="none" stroke="#000000" x1="60.675" y1="260.893" x2="24.675" y2="281.678"/>
<path fill="none" stroke="#000000" d="M299.326,219.322c-23.076-13.322-50.451-12.4-71.992,0.006
	c0.025,24.857,12.916,49.025,35.992,62.349"/>
<path fill="none" stroke="#000000" d="M335.326,281.677c-0.001,19.883-16.119,36.001-36,36.001c-19.883,0-36-16.119-36-36.001"/>
<path fill="none" stroke="#000000" d="M299.326,219.322c17.217-9.94,39.235-4.041,49.178,13.177
	c9.939,17.22,4.041,39.235-13.178,49.178"/>
<line fill="none" stroke="#000000" x1="227.334" y1="219.328" x2="180" y2="192"/>
<polyline fill="none" stroke="#000000" points="299.326,219.322 299.325,260.893 263.326,281.677 "/>
<line fill="none" stroke="#000000" x1="299.325" y1="260.893" x2="335.326" y2="281.677"/>
</svg>
