<svg xmlns="http://www.w3.org/2000/svg" width="738" height="741"><path d="M369 13c48.5 0 95.5 9.5 139.7 28.2 42.7 18.1 81.1 44 114.1 76.9s58.9 71.4 76.9 114.1C718.5 276.5 728 323.5 728 372s-9.5 95.5-28.2 139.7c-18.1 42.7-44 81.1-76.9 114.1s-71.4 58.9-114.1 76.9C464.5 721.5 417.5 731 369 731s-95.5-9.5-139.7-28.2c-42.7-18.1-81.1-44-114.1-76.9s-58.9-71.4-76.9-114.1C19.5 467.5 10 420.5 10 372s9.5-95.5 28.2-139.7c18.1-42.7 44-81.1 76.9-114.1s71.4-58.9 114.1-76.9C273.5 22.5 320.5 13 369 13m0-1C170.2 12 9 173.2 9 372s161.2 360 360 360 360-161.2 360-360S567.8 12 369 12z"/><g fill="#0081CD" stroke="#000"><path d="M369 372h288V156z"/><path opacity=".33" d="M369 372l230.4-172.8L469.8 26.4zm0 0l80.6-276.5L242.3 35zm0 0L267.6 102.4 65.4 178.5z"/><path opacity=".33" d="M369 372L126.2 217.2 10 399.3z"/><path opacity=".33" d="M369 372L81.8 393.8l16.4 215.4zm0 0L152.4 561.8l142.3 162.4zm0 0l-59.4 281.8 211.3 44.6z"/><path opacity=".33" d="M369 372l121.5 261.1L686.4 542z"/><path opacity=".33" d="M369 372l253.9 136 102-190.4zm0 0l284.7-43.6L621 114.9zm0 0l201.6-205.7L416.4 15.1zm0 0l37.9-285.5-214.1-28.4zm0 0L228 120.9 39.7 226.6zm0 0L105.5 255.7 18.3 453.3z"/><path opacity=".33" d="M369 372L88.4 437l48.8 210.4zm0 0L183.6 592.4l165.2 139zm0 0l-16.1 287.5 215.6 12.1z"/><path opacity=".33" d="M369 372l159.6 239.7L708.4 492z"/><path opacity=".33" d="M369 372l271.5 96 72-203.6zm0 0l274.8-86.1-64.6-206.1z"/><path opacity=".33" d="M369 372l168.2-233.8L361.9 12.1zm0 0l-5.7-287.9-216 4.2z"/><path opacity=".33" d="M369 372L191.7 145.1l-170.2 133zm0 0L91 296.9 34.6 505.4z"/><path opacity=".33" d="M369 372L101.5 478.7l80 200.6zm0 0L219 617.9l184.4 112.5z"/><path opacity=".33" d="M369 372l27.5 286.7 215-20.7zm0 0l194 212.8 159.7-145.5z"/></g><g fill="#BC1E46" stroke="#000"><circle cx="657" cy="156" r="6"/><circle cx="469.8" cy="26.4" r="6"/><circle cx="242.3" cy="35" r="6"/><circle cx="65.4" cy="178.5" r="6"/><circle cx="10" cy="399.3" r="6"/><circle cx="98.2" cy="609.2" r="6"/><circle cx="294.7" cy="724.2" r="6"/><circle cx="520.9" cy="698.4" r="6"/><circle cx="686.4" cy="542" r="6"/><circle cx="724.9" cy="317.6" r="6"/><circle cx="621" cy="114.9" r="6"/><circle cx="416.4" cy="15.1" r="6"/><circle cx="192.8" cy="58.1" r="6"/><circle cx="39.7" cy="226.6" r="6"/><circle cx="18.3" cy="453.3" r="6"/><circle cx="137.2" cy="647.4" r="6"/><circle cx="348.8" cy="731.4" r="6"/><circle cx="568.5" cy="671.6" r="6"/><circle cx="708.4" cy="492" r="6"/><circle cx="712.5" cy="264.4" r="6"/><circle cx="579.2" cy="79.8" r="6"/><circle cx="361.9" cy="12.1" r="6"/><circle cx="147.3" cy="88.3" r="6"/><circle cx="21.5" cy="278.1" r="6"/><circle cx="34.6" cy="505.4" r="6"/><circle cx="181.5" cy="679.3" r="6"/><circle cx="403.4" cy="730.4" r="6"/><circle cx="611.5" cy="638" r="6"/><circle cx="722.7" cy="439.3" r="6"/><circle cx="729" cy="372" r="6"/></g></svg>