<svg xmlns="http://www.w3.org/2000/svg" width="1116" height="612"><path fill="#FFE07F" d="M18 450c0 79.5 64.5 144 144 144 154 0 564.1-91.5 786.9-144C726.1 397.5 316 306 162 306c-79.5 0-144 64.5-144 144z"/><path fill="none" stroke="#000" stroke-width="2" d="M1098 414S378 594 162 594c-79.5 0-144-64.5-144-144s64.5-144 144-144c216 0 936 180 936 180"/><path fill="#FFE07F" stroke="#000" stroke-width="2" d="M522 18c0 99.4-80.6 180-180 180h-72c-39.8 0-72-32.2-72-72m432 144c0-39.8 32.2-72 72-72h72c99.4 0 180-80.6 180-180"/></svg>