<svg xmlns="http://www.w3.org/2000/svg" width="864" height="432"><g stroke="#000"><path d="M36 36h144l-72 72h72v72H36zm360 0v144l-72-72v72h-72V36zm216 144H468l72-72h-72V36h144zm72 0V36l72 72V36h72v144zM36 396h144l-72-72h72v-72H36zm360 0V252l-72 72v-72h-72v144zm216-144H468l72 72h-72v72h144zm72 0v144l72-72v72h72V252z" fill="#7FC0E6"/><g fill="#FEC200"><circle cx="36" cy="36" r="6"/><circle cx="36" cy="108" r="6"/><circle cx="36" cy="180" r="6"/><circle cx="36" cy="252" r="6"/><circle cx="36" cy="324" r="6"/><circle cx="36" cy="396" r="6"/><circle cx="108" cy="36" r="6"/><circle cx="108" cy="108" r="6"/><circle cx="108" cy="180" r="6"/><circle cx="108" cy="252" r="6"/><circle cx="108" cy="324" r="6"/><circle cx="108" cy="396" r="6"/><circle cx="180" cy="36" r="6"/><circle cx="180" cy="108" r="6"/><circle cx="180" cy="180" r="6"/><circle cx="180" cy="252" r="6"/><circle cx="180" cy="324" r="6"/><circle cx="180" cy="396" r="6"/><circle cx="252" cy="36" r="6"/><circle cx="252" cy="108" r="6"/><circle cx="252" cy="180" r="6"/><circle cx="252" cy="252" r="6"/><circle cx="252" cy="324" r="6"/><circle cx="252" cy="396" r="6"/><circle cx="324" cy="36" r="6"/><circle cx="324" cy="108" r="6"/><circle cx="324" cy="180" r="6"/><circle cx="324" cy="252" r="6"/><circle cx="324" cy="324" r="6"/><circle cx="324" cy="396" r="6"/><circle cx="396" cy="36" r="6"/><circle cx="396" cy="108" r="6"/><circle cx="396" cy="180" r="6"/><circle cx="396" cy="252" r="6"/><circle cx="396" cy="324" r="6"/><circle cx="396" cy="396" r="6"/><circle cx="468" cy="36" r="6"/><circle cx="468" cy="108" r="6"/><circle cx="468" cy="180" r="6"/><circle cx="468" cy="252" r="6"/><circle cx="468" cy="324" r="6"/><circle cx="468" cy="396" r="6"/><circle cx="540" cy="36" r="6"/><circle cx="540" cy="108" r="6"/><circle cx="540" cy="180" r="6"/><circle cx="540" cy="252" r="6"/><circle cx="540" cy="324" r="6"/><circle cx="540" cy="396" r="6"/><circle cx="612" cy="36" r="6"/><circle cx="612" cy="108" r="6"/><circle cx="612" cy="180" r="6"/><circle cx="612" cy="252" r="6"/><circle cx="612" cy="324" r="6"/><circle cx="612" cy="396" r="6"/><circle cx="684" cy="36" r="6"/><circle cx="684" cy="108" r="6"/><circle cx="684" cy="180" r="6"/><circle cx="684" cy="252" r="6"/><circle cx="684" cy="324" r="6"/><circle cx="684" cy="396" r="6"/><circle cx="756" cy="36" r="6"/><circle cx="756" cy="108" r="6"/><circle cx="756" cy="180" r="6"/><circle cx="756" cy="252" r="6"/><circle cx="756" cy="324" r="6"/><circle cx="756" cy="396" r="6"/><circle cx="828" cy="36" r="6"/><circle cx="828" cy="108" r="6"/><circle cx="828" cy="180" r="6"/><circle cx="828" cy="252" r="6"/><circle cx="828" cy="324" r="6"/><circle cx="828" cy="396" r="6"/></g></g></svg>