<svg xmlns="http://www.w3.org/2000/svg" width="1410.1" height="600.5"><g stroke="#000"><g fill="#FEC200"><path d="M262.7 157.3l-41.5 72 41.5 72 41.6-72zm41.6 72l-41.6 72 41.6 72 41.6-72zm124.7 216h83.1l41.6-72h-83.1l-41.6 72z"/><path d="M512.1 445.3h83.2l41.5-72h-83.1zm-207.8-72h83.1l41.6-72h-83.1zm166.3 0h83.1l41.6-72h-83.2zm124.7-72l-41.6-72h-83.1l41.5 72zm-41.6-72l-41.6-72H429l41.6 72z"/><path d="M470.6 229.3l-41.6-72h-83.1l41.5 72zm-41.6 72l-41.6-72h-83.1l41.6 72z"/><path d="M387.4 229.3l-41.5-72h-83.2l41.6 72zm432.3 72l-41.5 72 41.5 72 41.6-72z"/></g><path d="M345.9 589.3H429l41.6-72h-83.2zm640.1 0h83.1l41.6-72h-83.1l-41.6 72zm-432.3-216h83.1l41.6-72h-83.1zm124.7-72l-41.6-72h-83.1l41.6 72zm-41.6-72l-41.5-72h-83.2l41.6 72zm182.9-72l-41.5 72 41.5 72 41.6-72zm-41.5 72l-41.6 72 41.6 72 41.5-72z"/><path d="M861.3 229.3l-41.6 72 41.6 72 41.6-72zm41.6 72l-41.6 72 41.6 72 41.5-72zm41.5 72l-41.5 72 41.5 72 41.6-72z"/><path d="M944.4 517.3h83.2l41.5-72H986l-41.6 72z"/><path d="M1027.6 517.3h83.1l41.6-72h-83.2l-41.5 72z"/><g fill="#BC1E46"><path d="M429 589.3h83.1l41.6-72h-83.1zm-41.6-72h83.2l41.5-72H429zm515.5-72l-41.6 72 41.6 72 41.5-72z"/><path d="M902.9 589.3H986l41.6-72h-83.2l-41.5 72zM138 373.3l-41.6 72 41.6 72 41.6-72zm166.3 144h83.1l41.6-72h-83.1zm889.5 0h83.2l41.6-72h-83.2zm-723.2 0h83.1l41.6-72h-83.2zm390.7-144l-41.6 72 41.6 72 41.6-72zm-598.6 216h83.2l41.5-72h-83.1zm806.4 0h83.2l41.5-72h-83.1z"/><path d="M1110.7 517.3h83.1l41.6-72h-83.1z"/></g><g fill="#CCC"><path d="M96.4 157.3l-41.5 72 41.5 72 41.6-72-41.6-72zm41.6 72l-41.6 72 41.6 72 41.6-72zm41.6 72l-41.6 72 41.6 72 41.6-72zm41.6 72l-41.6 72 41.6 72 41.5-72z"/><path d="M221.2 517.3h83.1l41.6-72h-83.2zm1138.9-288l-41.5-72h-83.2l41.6 72zm-1180.5 216l-41.6 72 41.6 72 41.6-72z"/><path d="M179.6 589.3h83.1l41.6-72h-83.1zm972.7 0h83.1l41.6-72h-83.2zm41.5-216h83.2l41.6-72h-83.2zm124.8-72l-41.6-72h-83.2l41.6 72zm-41.6-72l-41.6-72h-83.1l41.5 72z"/></g><g fill="#009246"><path d="M54.9 229.3l-41.6 72 41.6 72 41.5-72zm1222.1 144h83.1l41.6-72h-83.1zm124.7-72l-41.6-72H1277l41.6 72zm-332.6 144h83.2l41.5-72h-83.1zm41.6-72h83.1l41.6-72h-83.1zm124.7-72l-41.6-72h-83.1l41.6 72zm-1139 0l-41.5 72 41.5 72 41.6-72zm889.6-144l-41.6 72 41.6 72 41.6-72z"/><path d="M1152.3 445.3h83.1l41.6-72h-83.2zm83.1 0h83.2l41.5-72H1277zm-41.6-216l-41.5-72h-83.2l41.6 72z"/><path d="M1110.7 229.3l-41.6-72H986l41.6 72h83.1z"/></g><g fill="#FFF"><path d="M345.9 445.3H429l41.6-72h-83.2zm41.5-72h83.2l41.5-72H429zm124.7-72l-41.5-72h-83.2l41.6 72zm-332.5-288l-41.6 72 41.6 72 41.6-72-41.6-72z"/><path d="M138 85.3l-41.6 72 41.6 72 41.6-72zm166.3 0l-41.6-72h-83.1l41.6 72zm1014.3 72l-41.6-72h-83.2l41.6 72zm-41.6-72l-41.6-72h-83.1l41.5 72zm-1097.4 72l-41.6 72 41.6 72 41.6-72zm41.6 72l-41.6 72 41.6 72 41.5-72zm41.5 72l-41.5 72 41.5 72 41.6-72zm0 144h83.2l41.5-72h-83.1z"/></g><g fill="#E49AE4"><path d="M1027.6 229.3l-41.6 72 41.6 72 41.5-72z"/><path d="M1027.6 373.3h83.1l41.6-72h-83.2zm124.7-72l-41.6-72h-83.1l41.5 72zm-681.7-216l-41.6-72h-83.1l41.5 72zm432.3 72l-41.6 72 41.6 72 41.5-72zm41.5 72l-41.5 72 41.5 72 41.6-72zm41.6 72l-41.6 72 41.6 72 41.6-72z"/><path d="M986 445.3h83.1l41.6-72h-83.1zm124.7-360l-41.6-72H986l41.6 72zm-515.4 72l-41.6-72h-83.1l41.5 72z"/><path d="M512.1 157.3l-41.5-72h-83.2l41.6 72zm349.2-72l-41.6 72 41.6 72 41.6-72z"/></g><g fill="#0081CD"><path d="M944.4 85.3l-41.5 72 41.5 72 41.6-72zm291 72l-41.6-72h-83.1l41.6 72zm-83.1 0l-41.6-72h-83.1l41.5 72z"/><path d="M1069.1 157.3l-41.5-72h-83.2l41.6 72zm-847.9-72l-41.6 72 41.6 72 41.5-72-41.5-72zm332.5 0l-41.6-72H429l41.6 72zm-124.7 72l-41.6-72h-83.1l41.6 72zm-41.6-72l-41.5-72h-83.2l41.6 72z"/><path d="M345.9 157.3l-41.6-72h-83.1l41.5 72zm557-144l-41.6 72 41.6 72 41.5-72zm290.9 72l-41.5-72h-83.2l41.6 72z"/><path d="M1027.6 85.3l-41.6-72h-83.1l41.5 72z"/></g></g></svg>