<svg xmlns="http://www.w3.org/2000/svg" width="846" height="630"><g fill="none" stroke="#000"><g stroke-width="2"><path d="M225 495L423 27l198 468"/><path d="M27 603L135 99l288 360L711 99l108 504"/><path d="M27 603l108-324 90 216 90-108 108 72 108-72 90 108 90-216 108 324"/></g><g stroke="#FEC200"><path d="M711 99l-90 396M423 27v432M135 99l90 396m-90-216L711 99 315 387 423 27l108 360L135 99l576 180z"/><path d="M135 279L423 27l288 252-396 108L135 99h576L531 387zM27 603l594-108H225l594 108-396-144z"/><path d="M27 603l198-108 198-36 198 36 198 108zm108-324l180 108h216l180-108V99L423 27 135 99z"/></g><g fill="#BC1E46"><circle cx="135" cy="279" r="18"/><circle cx="135" cy="99" r="18"/><circle cx="315" cy="387" r="18"/><circle cx="423" cy="27" r="18"/><circle cx="531" cy="387" r="18"/><circle cx="711" cy="99" r="18"/><circle cx="711" cy="279" r="18"/></g><g fill="#0081CD"><circle cx="423" cy="459" r="18"/><circle cx="225" cy="495" r="18"/><circle cx="621" cy="495" r="18"/><circle cx="27" cy="603" r="18"/><circle cx="819" cy="603" r="18"/></g></g></svg>