<svg xmlns="http://www.w3.org/2000/svg" width="2826" height="1170"><path d="M1953 513h144m-72-72v144m0 288V729m-72 72h144m-144 216h288m-144-145.9v288M2745 585V441m-216 216h144m-720-72V9m-288 288h576m-144 0v288m-36 72v72m-36-36h72m-108-108v72m-36-36h72m72 36h144m-72-72v144m-360 144V297m144 432h-288m216 0V585m-72 72h144m-288-216h576m144-144V9m-144 144h288m0 432v567m-288-279h567m-423 0V585m288 288V585m135 144h-567m360-144v144m72-216h144m-216-72V297m-72 72h144" fill="none" stroke="#BC1E46" stroke-width="2"/><path fill="#0081CD" d="M1156 14v1142H14V14h1142m5-5H9v1152h1152V9z"/><path fill="none" stroke="#0081CD" stroke-width="5" d="M585 9v1152M9 585h1152m-864 576V585M9 873h576m288-288V9M585 297h576M441 585v288M297 729h288M369 585v144m-72-72h144m-108 72v-72m-36 36h72m-18-36v36m-18-18h36m216-234h576m-144 144V9m144 144H873M729 297v288m-72-288v144m-72-72h144m0 144h288m-216-72v144m144-144v144m144-432v144m-72-72h144M981 441v72m-36-36h72m-108 36v72m-36-36h72"/><path fill="#0081CD" d="M2812 14v1142H1670V14h1142m5-5H1665v1152h1152V9z"/><path fill="none" stroke="#0081CD" stroke-width="5" d="M2241 9v1152m-576-576h1152m-864 576V585m-288 288h576m288-288V9m-288 288h576m-720 288v288m-144-144h288m-216-144v144m-72-72h144m-108 72v-72m-36 36h72m-18-36v36m-18-18h36m216-234h576m-144 144V9m144 144h-288m-144 144v288m-72-288v144m-72-72h144m0 144h288m-216-72v144m144-144v144m144-432v144m-72-72h144m-180 216v72m-36-36h72m-108 36v72m-36-36h72"/><path fill="none" stroke="#FEC200" stroke-width="40" d="M1233 585h239.3"/><path fill="#FEC200" d="M1593 585c-56.8 21.1-127.3 57-170.9 95.1l34.4-95.1-34.4-95.1c43.6 38.1 114.1 74 170.9 95.1z"/></svg>