<svg xmlns="http://www.w3.org/2000/svg" width="1152" height="648"><g fill="none" stroke="#000"><path d="M288 36l153 234-153 342 252-288z"/><path d="M288 36l27 216-27 360 135-234zm0 0L153 270l135 342-27-225z"/><path d="M288 612L36 324 288 36 135 378z"/><path d="M36 324l117-54 162-18 126 18 99 54-117 54-162 18-126-18zM864 36l153 234-153 342 252-288z"/><path d="M864 36l27 216-27 360 135-234zm0 0L729 270l135 342-27-225z"/><path d="M864 612L612 324 864 36 711 378z"/><path d="M612 324l117-54 162-18 126 18 99 54-117 54-162 18-126-18z"/><g fill="#FFE07F"><circle cx="288" cy="36" r="18"/><circle cx="288" cy="612" r="18"/><circle cx="864" cy="36" r="18"/><circle cx="864" cy="612" r="18"/></g><g fill="#7FC0E6"><circle cx="36" cy="324" r="18"/><circle cx="315" cy="252" r="18"/><circle cx="540" cy="324" r="18"/><circle cx="261" cy="396" r="18"/><circle cx="612" cy="324" r="18"/><circle cx="891" cy="252" r="18"/><circle cx="1116" cy="324" r="18"/><circle cx="837" cy="396" r="18"/></g><g fill="#DD8EA2"><circle cx="153" cy="270" r="18"/><circle cx="441" cy="270" r="18"/><circle cx="423" cy="378" r="18"/><circle cx="135" cy="378" r="18"/><circle cx="729" cy="270" r="18"/><circle cx="1017" cy="270" r="18"/><circle cx="999" cy="378" r="18"/><circle cx="711" cy="378" r="18"/></g></g><g font-family="Times,serif" font-size="24"><text transform="translate(276.674 45)">a1</text><text transform="translate(276.674 621)">a2</text><text transform="translate(24 333)">b1</text><text transform="translate(303 261)">b2</text><text transform="translate(528 333)">b3</text><text transform="translate(249 405)">b4</text><text transform="translate(141.674 279)">c1</text><text transform="translate(429.674 279)">c2</text><text transform="translate(411.674 387)">c3</text><text transform="translate(123.674 387)">c4</text><text transform="translate(852.674 45)">a3</text><text transform="translate(852.674 621)">a4</text><text transform="translate(600 333)">b1</text><text transform="translate(879 261)">b2</text><text transform="translate(1104 333)">b3</text><text transform="translate(825 405)">b4</text><text transform="translate(717.674 279)">c3</text><text transform="translate(1005.674 279)">c4</text><text transform="translate(987.674 387)">c1</text><text transform="translate(699.674 387)">c2</text></g></svg>