<svg xmlns="http://www.w3.org/2000/svg" width="540" height="540"><g fill="none" stroke="#000" stroke-width="1.5"><path d="M270 198v144m-72-72c-39.8 0-72-32.2-72-72s32.2-72 72-72 72 32.2 72 72m0 144c0 39.8-32.2 72-72 72s-72-32.2-72-72 32.2-72 72-72m144 0c39.8 0 72 32.2 72 72s-32.2 72-72 72-72-32.2-72-72m0-144c0-39.8 32.2-72 72-72s72 32.2 72 72-32.2 72-72 72M198 126c0-39.8 32.2-72 72-72s72 32.2 72 72M126 342c-39.8 0-72-32.2-72-72s32.2-72 72-72m216 216c0 39.8-32.2 72-72 72s-72-32.2-72-72m216-216c39.8 0 72 32.2 72 72s-32.2 72-72 72"/><path d="M53.8 270.2C-6 210.4-6 113.6 53.8 53.8s156.6-59.8 216.4 0"/><path d="M270.2 486.2c-59.8 59.8-156.6 59.8-216.4 0s-59.8-156.6 0-216.4"/><path d="M486.2 269.8c59.8 59.8 59.8 156.6 0 216.4s-156.6 59.8-216.4 0"/><path d="M269.8 53.8C329.6-6 426.4-6 486.2 53.8s59.8 156.6 0 216.4"/><circle fill="#FFF" stroke="none" cx="270" cy="270" r="9"/><path d="M342 270H198"/></g><g fill="#0081CD" stroke="#000"><circle cx="270" cy="54" r="12"/><circle cx="342" cy="126" r="12"/><circle cx="198" cy="126" r="12"/><circle cx="54" cy="270" r="12"/><circle cx="126" cy="198" r="12"/><circle cx="126" cy="342" r="12"/><circle cx="270" cy="486" r="12"/><circle cx="198" cy="414" r="12"/><circle cx="342" cy="414" r="12"/><circle cx="486" cy="270" r="12"/><circle cx="414" cy="342" r="12"/><circle cx="414" cy="198" r="12"/></g></svg>