<svg xmlns="http://www.w3.org/2000/svg" width="738" height="741"><path fill="#FEC200" d="M369 13c48.5 0 95.5 9.5 139.7 28.2 42.7 18.1 81.1 44 114.1 76.9s58.9 71.4 76.9 114.1C718.5 276.5 728 323.5 728 372s-9.5 95.5-28.2 139.7c-18.1 42.7-44 81.1-76.9 114.1s-71.4 58.9-114.1 76.9C464.5 721.5 417.5 731 369 731s-95.5-9.5-139.7-28.2c-42.7-18.1-81.1-44-114.1-76.9s-58.9-71.4-76.9-114.1C19.5 467.5 10 420.5 10 372s9.5-95.5 28.2-139.7c18.1-42.7 44-81.1 76.9-114.1s71.4-58.9 114.1-76.9C273.5 22.5 320.5 13 369 13m0-1C170.2 12 9 173.2 9 372s161.2 360 360 360 360-161.2 360-360S567.8 12 369 12z"/><path d="M34 504.1V239.9m281.9 488.3L87.1 596.1m563.8 0L422.1 728.2M704 239.9v264.2M422.1 15.8l228.8 132.1m-563.8 0L315.9 15.8" fill="none" stroke="#0081CD" stroke-width="4"/><path d="M725.2 425.1L593.1 653.9m0-563.8l132.1 228.8M236.9 37h264.2M12.8 318.9L144.9 90.1m0 563.8L12.8 425.1M9 372h720M189 60.2l360 623.6m0-623.6L189 683.8m-21.8-13.6V73.8M9.9 346.4L526.4 48.2m-314.8 0l516.5 298.2M570.8 73.8v596.4" fill="none" stroke="#BC1E46" stroke-width="4"/></svg>