<svg xmlns="http://www.w3.org/2000/svg" width="1134" height="909"><circle fill="none" stroke="#FEC200" cx="567" cy="666" r="234"/><g fill="#0081CD"><circle opacity=".2" cx="911.7" cy="376.7" r="216"/><circle opacity=".2" cx="792" cy="276.3" r="216"/><circle opacity=".2" cx="645.1" cy="222.8" r="216"/><circle opacity=".2" cx="488.9" cy="222.8" r="216"/><circle opacity=".2" cx="342" cy="276.3" r="216"/><circle opacity=".2" cx="222.3" cy="376.7" r="216"/></g><g fill="none" stroke="#0081CD"><circle cx="911.7" cy="376.7" r="216"/><circle cx="792" cy="276.3" r="216"/><circle cx="645.1" cy="222.8" r="216"/><circle cx="488.9" cy="222.8" r="216"/><circle cx="342" cy="276.3" r="216"/><circle cx="222.3" cy="376.7" r="216"/></g><g fill="#BC1E46"><circle opacity=".2" cx="567" cy="642" r="216"/><circle opacity=".2" cx="558.8" cy="643.4" r="216"/><circle opacity=".2" cx="575.2" cy="643.4" r="216"/><circle opacity=".2" cx="567" cy="646.8" r="216"/><circle opacity=".2" cx="573.6" cy="648" r="216"/><circle opacity=".2" cx="579.3" cy="651.3" r="216"/><circle opacity=".2" cx="560.4" cy="648" r="216"/><circle opacity=".2" cx="554.7" cy="651.3" r="216"/><circle opacity=".2" cx="563.2" cy="644.4" r="216"/><circle opacity=".2" cx="556.1" cy="647" r="216"/><circle opacity=".2" cx="570.9" cy="644.4" r="216"/></g><g fill="none" stroke="#BC1E46"><circle cx="567" cy="642" r="216"/><circle cx="558.8" cy="643.4" r="216"/><circle cx="575.2" cy="643.4" r="216"/><circle cx="567" cy="646.8" r="216"/><circle cx="573.6" cy="648" r="216"/><circle cx="579.3" cy="651.3" r="216"/><circle cx="560.4" cy="648" r="216"/><circle cx="554.7" cy="651.3" r="216"/><circle cx="563.2" cy="644.4" r="216"/><circle cx="556.1" cy="647" r="216"/><circle cx="570.9" cy="644.4" r="216"/></g></svg>