<svg width="574" height="574" xmlns="http://www.w3.org/2000/svg"><path d="M7 567l14-280M7 567l35-112M7 567l91-42M7 567l231-14M14 231l7 56m-7-56l35-112M14 231l63 28m-63-28l91-42m-91 42l203 14M14 231l231-14M14 231l539 7M21 287l7 140m-7-140L35 91M21 287l28-168M21 287l35 28m-35-28l49-112M21 287l56-28m-56 28l140-14M21 287l175 14M21 287l336-7m-336 7l511 7M28 427l14 28m-14-28l21-308M28 427l28-112M28 427l84-42m-84 42l154 14M28 427l224-14M28 427l490 7M35 91l7 364M35 91l14 28M35 91l84-42M35 91l154 14M35 91l224-14M35 91l490 7M42 455l7-336m-7 336l14-140M42 455l21 56m-21-56l42-84m-42 84l70-70m-70 70l84 14m-84-14l126-49M42 455l140-14M42 455l336-7m-336 7l420 7M49 119l7 196m-7-196l21 56m-21-56l42-84m-42 84l70-70m-70 70l84 14m-84-14l126-49M49 119l140-14M49 119l336-7m-336 7l420 7M56 315l7 196m-7-196l14-140M56 315l21-56m-21 56l28 56m-28-56l84 14m-84-14l105-42M56 315l140-14M56 315l336-7m-336 7l420 7M63 511l14-252M63 511l35 14m-35-14l49-126M63 511l63-42m-63 42l203-14M63 511l371 7M70 175l7 84m-7-84l35 14m-35-14l49-126M70 175l63-42m-63 42l203-14M70 175l371 7M77 259l7 112m-7-112L91 35M77 259l28-70m-28 70l63 70m-63-70l77-49m-77 49l84 14m-84-14l140-14M77 259l336-7m-336 7l420 7M84 371l14 154M84 371l21-182M84 371l28 14m-28-14l56-42m-56 42l196-14M84 371l364 7M91 35l7 490M91 35l14 154M91 35l28 14M91 35l196-14M91 35l364 7M98 525l7-336m-7 336l14-140M98 525l28-56m-28 56l49 21m-49-21l105-35M98 525l168-28M98 525l196 7m-196-7l301-21M98 525l336-7M105 189l7 196m-7-196l14-140m-14 140l28-56m-28 56l35 140m-35-140l49 21m-49-21l105-35m-105 35l168-28m-168 28l196 7m-196-7l301-21m-301 21l336-7M112 385l7-336m-7 336l14 84m-14-84l21-252m-21 252l28-56m-28 56l56 21m-56-21l112-35m-112 35l168-28m-168 28l196 7m-196-7l308-21m-308 21l336-7M119 49l7 420m-7-420l14 84m-14-84l56 21m-56-21l112-35M119 49l168-28M119 49l196 7m-196-7l308-21M119 49l336-7M126 469l7-336m-7 336l14-140m-14 140l21 77m-21-77l42-63m-42 63l56-28m-56 28l77 21m-77-21l196 7m-196-7l252-21m-252 21l336-7M133 133l7 196m-7-196l21 77m-21-77l42-63m-42 63l56-28m-56 28l77 21m-77-21l196 7m-196-7l252-21m-252 21l336-7M140 329l7 217m-7-217l14-119m-14 119l21-56m-21 56l28 77m-28-77l56-28m-56 28l84 21m-84-21l196 7m-196-7l252-21m-252 21l336-7M147 546l14-273m-14 273l35-105m-35 105l91 7m-91-7l119-49m-119 49l147-14M154 210l7 63m-7-63l35-105m-35 105l63 35m-63-35l91 7m-91-7l119-49m-119 49l147-14m-140 77l7 133m-7-133l14-203m-14 203l28-168m-28 168l35 28m-35-28l49-119m-49 119l56-28m-56 28l196 7m-196-7l252-21m-252 21l336-7M168 406l14 35m-14-35l21-301m-21 301l28-105m-28 105l84 7m-84-7l112-49m-112 49l140-14M175 70l7 371m-7-371l14 35m-14-35l84 7m-84-7l112-49M175 70l140-14M182 441l7-336m-7 336l14-140m-14 140l21 49m-21-49l42-91m-42 91l70-28m-70 28l140 35m-140-35l182-21m-182 21l196 7m-196-7l336-7M189 105l7 196m-7-196l21 49m-21-49l42-91m-42 91l70-28m-70 28l140 35m-140-35l182-21m-182 21l196 7m-196-7l336-7M196 301l7 189m-7-189l14-147m-14 147l21-56m-21 56l28 49m-28-49l140 35m-140-35l161-21m-161 21l196 7m-196-7l336-7M203 490l14-245m-14 245l35 63m-35-63l49-77m-49 77l63 7m-63-7l119-14M210 154l7 91m-7-91l35 63m-35-63l49-77m-49 77l63 7m-63-7l119-14M217 245l7 105m-7-105l14-231m-14 231l28-28m-28 28l119 91m-119-91l133-21m-133 21l140 35m-140-35l196 7m-196-7l336-7M224 350l14 203m-14-203l21-133m-21 133l28 63m-28-63l56 7m-56-7l112-14M231 14l7 539m-7-539l14 203M231 14l28 63m-28-63l56 7m-49 532l7-336m-7 336l14-140m-14 140l28-56m-28 56l56-21m-56 21l105 7m-105-7l245-14M245 217l7 196m-7-196l14-140m-14 140l28-56m-28 56l35 140m-35-140l56-21m-56 21l91 119m-91-119l105 7m-105-7l245-14M252 413l7-336m-7 336l14 84m-14-84l21-252m-21 252l28-56m-28 56l56-21m-56 21l70 63m-70-63l112 7m-112-7l252-14M259 77l7 420m-7-420l14 84m-14-84l28-56m-28 56l56-21m-56 21l70 63m-70-63l112 7m-112-7l252-14M266 497l7-336m-7 336l14-140m-14 140l28 35m-28-35l42-105m-42 105l56-21m-56 21l133 7m-133-7l273-14M273 161l7 196m-7-196l14-140m-14 140l28 35m-28-35l42-105m-42 105l56-21m-56 21l133 7m-133-7l273-14M280 357l7-336m-7 336l14 175m-14-175l21-161m-21 161l28 35m-28-35l56-21m-56 21l140 7m-140-7l280-14M287 21l7 511m-7-511l14 175M287 21l28 35m-28-35l140 7m-140-7L567 7M294 532l7-336m-7 336l14-140m-14 140l28-56m-28 56l49 28m-49-28l105-28m-105 28l140-14m-140 14l189 7M301 196l7 196m-7-196l14-140m-14 140l28-56m-28 56l35 140m-35-140l49 28m-49-28l105-28m-105 28l140-14m-140 14l189 7M308 392l7-336m-7 336l14 84m-14-84l21-252m-21 252l28-56m-28 56l56 28m-56-28l112-28m-112 28l140-14m-140 14l196 7M315 56l7 420m-7-420l14 84m-14-84l56 28m-56-28l112-28M315 56l140-14M315 56l196 7M322 476l7-336m-7 336l14-140m-14 140l21 84m-21-84l42-56m-42 56l56-28m-56 28l77 28m-77-28l140-14m-140 14l217 7M329 140l7 196m-7-196l21 84m-21-84l42-56m-42 56l56-28m-56 28l77 28m-77-28l140-14m-140 14l217 7M336 336l7 224m-7-224l14-112m-14 112l21-56m-21 56l28 84m-28-84l56-28m-56 28l84 28m-84-28l140-14m-140 14l224 7M343 560l14-280m-14 280l35-112m-35 112l91-42m-84-294l7 56m-7-56l35-112m-35 112l63 28m-63-28l91-42m-91 42l203 14m-196 42l7 140m-7-140l14-196m-14 196l28-168m-28 168l35 28m-35-28l49-112m-49 112l56-28m-56 28l140-14m-140 14l175 14M364 420l14 28m-14-28l21-308m-21 308l28-112m-28 112l84-42m-84 42l154 14M371 84l7 364m-7-364l14 28m-14-28l84-42m-84 42l154 14M378 448l7-336m-7 336l14-140m-14 140l21 56m-21-56l42-84m-42 84l70-70m-70 70l84 14m-84-14l126-49m-126 49l140-14M385 112l7 196m-7-196l21 56m-21-56l42-84m-42 84l70-70m-70 70l84 14m-84-14l126-49m-126 49l140-14M392 308l7 196m-7-196l14-140m-14 140l21-56m-21 56l28 56m-28-56l84 14m-84-14l105-42m-105 42l140-14M399 504l14-252m-14 252l35 14m-35-14l49-126m-49 126l63-42m-56-294l7 84m-7-84l35 14m-35-14l49-126m-49 126l63-42m-56 126l7 112m-7-112l14-224m-14 224l28-70m-28 70l63 70m-63-70l77-49m-77 49l84 14m-84-14l140-14M420 364l14 154m-14-154l21-182m-21 182l28 14m-28-14l56-42M427 28l7 490m-7-490l14 154M427 28l28 14m-21 476l7-336m-7 336l14-140m-14 140l28-56m-28 56l49 21m-49-21l105-35m-98-301l7 196m-7-196l14-140m-14 140l28-56m-28 56l35 140m-35-140l49 21m-49-21l105-35m-98 231l7-336m-7 336l14 84m-14-84l21-252m-21 252l28-56m-28 56l56 21m-56-21l112-35M455 42l7 420m-7-420l14 84m-14-84l56 21m-56-21L567 7M462 462l7-336m-7 336l14-140m-14 140l21 77m-21-77l42-63m-42 63l56-28m-56 28l77 21m-70-357l7 196m-7-196l21 77m-21-77l42-63m-42 63l56-28m-56 28l77 21m-70 175l7 217m-7-217l14-119m-14 119l21-56m-21 56l28 77m-28-77l56-28m-56 28l84 21m-77 196l14-273m-14 273l35-105m-28-231l7 63m-7-63l35-105m-35 105l63 35m-56 28l7 133m-7-133l14-203m-14 203l28-168m-28 168l35 28m-35-28l49-119m-49 119l56-28m-49 161l14 35m-14-35l21-301m-21 301l28-105M511 63l7 371m-7-371l14 35m-7 336l7-336m-7 336l14-140m-14 140l21 49m-21-49l42-91M525 98l7 196m-7-196l21 49m-21-49l42-91m-35 287l7 189m-7-189l14-147m-14 147l21-56m-21 56l28 49m-21 140l14-245m-7-91l7 91m0 0l7 105m-7-105L567 7" stroke-width=".5" fill="none" stroke="#fec200"/><path d="M7 567l7-336M7 567l21-140M7 567l56-56M7 567l140-21M7 567l336-7M14 231L35 91M14 231l56-56m-56 56l140-21M14 231l336-7M28 427l7-336m-7 336l56-56m-56 56l140-21M28 427l336-7M35 91l56-56M35 91l140-21M35 91l336-7M63 511l7-336m-7 336l21-140M63 511l140-21M63 511l336-7M70 175L91 35M70 175l140-21M70 175l336-7M84 371l7-336m-7 336l140-21M84 371l336-7M91 35l140-21M91 35l336-7M147 546l7-336m-7 336l21-140m-21 140l56-56m-56 56l336-7M154 210l21-140m-21 140l56-56m-56 56l336-7M168 406l7-336m-7 336l56-56m-56 56l336-7M175 70l56-56m-56 56l336-7M203 490l7-336m-7 336l21-140m-21 140l336-7M210 154l21-140m-21 140l336-7M224 350l7-336m-7 336l336-7M231 14l336-7M343 560l7-336m-7 336l21-140m-21 140l56-56m-56 56l140-21M350 224l21-140m-21 140l56-56m-56 56l140-21M364 420l7-336m-7 336l56-56m-56 56l140-21M371 84l56-56m-56 56l140-21M399 504l7-336m-7 336l21-140m-21 140l140-21M406 168l21-140m-21 140l140-21M420 364l7-336m-7 336l140-21M427 28L567 7m-84 532l7-336m-7 336l21-140m-21 140l56-56m-49-280l21-140m-21 140l56-56m-42 252l7-336m-7 336l56-56M511 63l56-56m-28 476l7-336m-7 336l21-140m-14-196L567 7m-7 336l7-336" fill="none" stroke="#000"/><g fill="#bc1e46" stroke="#000"><circle cx="7" cy="567" r="6"/><circle cx="14" cy="231" r="6"/><circle cx="28" cy="427" r="6"/><circle cx="35" cy="91" r="6"/><circle cx="63" cy="511" r="6"/><circle cx="70" cy="175" r="6"/><circle cx="84" cy="371" r="6"/><circle cx="91" cy="35" r="6"/><circle cx="147" cy="546" r="6"/><circle cx="154" cy="210" r="6"/><circle cx="168" cy="406" r="6"/><circle cx="175" cy="70" r="6"/><circle cx="203" cy="490" r="6"/><circle cx="210" cy="154" r="6"/><circle cx="224" cy="350" r="6"/><circle cx="231" cy="14" r="6"/><circle cx="343" cy="560" r="6"/><circle cx="350" cy="224" r="6"/><circle cx="364" cy="420" r="6"/><circle cx="371" cy="84" r="6"/><circle cx="399" cy="504" r="6"/><circle cx="406" cy="168" r="6"/><circle cx="420" cy="364" r="6"/><circle cx="427" cy="28" r="6"/><circle cx="483" cy="539" r="6"/><circle cx="490" cy="203" r="6"/><circle cx="504" cy="399" r="6"/><circle cx="511" cy="63" r="6"/><circle cx="539" cy="483" r="6"/><circle cx="546" cy="147" r="6"/><circle cx="560" cy="343" r="6"/><circle cx="567" cy="7" r="6"/></g><g fill="#0081cd" stroke="#000"><circle cx="21" cy="287" r="4"/><circle cx="42" cy="455" r="4"/><circle cx="49" cy="119" r="4"/><circle cx="56" cy="315" r="4"/><circle cx="77" cy="259" r="4"/><circle cx="98" cy="525" r="4"/><circle cx="105" cy="189" r="4"/><circle cx="112" cy="385" r="4"/><circle cx="119" cy="49" r="4"/><circle cx="126" cy="469" r="4"/><circle cx="133" cy="133" r="4"/><circle cx="140" cy="329" r="4"/><circle cx="161" cy="273" r="4"/><circle cx="182" cy="441" r="4"/><circle cx="189" cy="105" r="4"/><circle cx="196" cy="301" r="4"/><circle cx="217" cy="245" r="4"/><circle cx="238" cy="553" r="4"/><circle cx="245" cy="217" r="4"/><circle cx="252" cy="413" r="4"/><circle cx="259" cy="77" r="4"/><circle cx="266" cy="497" r="4"/><circle cx="273" cy="161" r="4"/><circle cx="280" cy="357" r="4"/><circle cx="287" cy="21" r="4"/><circle cx="294" cy="532" r="4"/><circle cx="301" cy="196" r="4"/><circle cx="308" cy="392" r="4"/><circle cx="315" cy="56" r="4"/><circle cx="322" cy="476" r="4"/><circle cx="329" cy="140" r="4"/><circle cx="336" cy="336" r="4"/><circle cx="357" cy="280" r="4"/><circle cx="378" cy="448" r="4"/><circle cx="385" cy="112" r="4"/><circle cx="392" cy="308" r="4"/><circle cx="413" cy="252" r="4"/><circle cx="434" cy="518" r="4"/><circle cx="441" cy="182" r="4"/><circle cx="448" cy="378" r="4"/><circle cx="455" cy="42" r="4"/><circle cx="462" cy="462" r="4"/><circle cx="469" cy="126" r="4"/><circle cx="476" cy="322" r="4"/><circle cx="497" cy="266" r="4"/><circle cx="518" cy="434" r="4"/><circle cx="525" cy="98" r="4"/><circle cx="532" cy="294" r="4"/><circle cx="553" cy="238" r="4"/></g></svg>