<svg xmlns="http://www.w3.org/2000/svg" width="1161" height="297"><path d="M193.8 22.2C185 13.4 173.5 9 162 9H54C29.1 9 9 29.1 9 54v108c0 11.5 4.4 23 13.2 31.8 17.6 17.6 46.1 17.6 63.6 0l108-108c17.6-17.6 17.6-46 0-63.6zm324 171.6c-17.6 17.6-46.1 17.6-63.6 0-17.6-17.6-17.6-46.1 0-63.6l108-108c17.6-17.6 46.1-17.6 63.6 0 17.6 17.6 17.6 46.1 0 63.6l-108 108z" fill="#FFE07F"/><path fill="none" stroke="#FEC200" stroke-width="30" d="M315 162h71.7m360.3 0h71.7"/><path fill="#FEC200" d="M432 162c-21.3 7.9-47.7 21.4-64.1 35.7l12.9-35.7-12.9-35.7c16.4 14.3 42.8 27.8 64.1 35.7zm432 0c-21.3 7.9-47.7 21.4-64.1 35.7l12.9-35.7-12.9-35.7c16.4 14.3 42.8 27.8 64.1 35.7z"/><g fill="none" stroke="#000"><path d="M1026 270V54h108v216H918V162h216m-648 0h108V54m0 216V162h108"/><path d="M594 54L486 162v108h216V54zM54 162h216M162 54v216M54 54h216v216H54z"/><g fill="#BC1E46"><circle cx="54" cy="54" r="18"/><circle cx="486" cy="54" r="18"/><circle cx="918" cy="54" r="18"/></g><g fill="#0081CD"><circle cx="54" cy="162" r="18"/><circle cx="54" cy="270" r="18"/><circle cx="162" cy="270" r="18"/><circle cx="162" cy="162" r="18"/><circle cx="162" cy="54" r="18"/><circle cx="270" cy="54" r="18"/><circle cx="270" cy="162" r="18"/><circle cx="270" cy="270" r="18"/><circle cx="486" cy="162" r="18"/><circle cx="486" cy="270" r="18"/><circle cx="594" cy="270" r="18"/><circle cx="594" cy="162" r="18"/><circle cx="594" cy="54" r="18"/><circle cx="702" cy="54" r="18"/><circle cx="702" cy="162" r="18"/><circle cx="702" cy="270" r="18"/><circle cx="918" cy="162" r="18"/><circle cx="918" cy="270" r="18"/><circle cx="1026" cy="270" r="18"/><circle cx="1026" cy="162" r="18"/><circle cx="1026" cy="54" r="18"/><circle cx="1134" cy="54" r="18"/><circle cx="1134" cy="162" r="18"/><circle cx="1134" cy="270" r="18"/></g></g></svg>