<svg xmlns="http://www.w3.org/2000/svg" width="673" height="673"><g stroke="#000"><g fill="#7FC0E6"><path d="M352.4 366.8c8.8 6.9 16.3 15.8 21.7 26.4 7.4-3.8 14.2-8.7 20.1-14.6-10.7-10.7-22.8-19.7-35.9-26.8-2.4 4.8-4.4 9.8-5.9 15zm19.9-54.8c3.8 3.8 7.9 7.3 12.5 10.3 9.3-6.2 20-10.6 31.8-12.5-1.3-8.2-3.9-16.2-7.7-23.7-13.6 6.9-25.9 15.7-36.6 25.9z"/><path d="M372.3 332.6c10.8 10.2 23 18.9 36.5 25.8 3.8-7.4 6.4-15.4 7.7-23.7-11.8-1.9-22.5-6.2-31.8-12.5-4.5 3.1-8.7 6.6-12.4 10.4zm-19.9 34.2c-4.3-3.4-8.8-6.3-13.6-8.7-6.4 13.4-10.9 27.7-13.3 42.7 8.2 1.3 16.7 1.3 24.9 0-1.9-11.7-1.1-23.2 2-34zm-48.3-32.6c-14.7-1.9-29.8-1.8-44.7.6 1.3 8.2 3.9 16.2 7.7 23.7 10.6-5.4 21.9-8.2 33-8.6 1.8-5.2 3.2-10.4 4-15.7zm14 2.5c-.4 4.7-1.1 9.5-2 14.2 7.8 1.3 15.5 3.8 22.6 7.3 2.1-4.3 4.3-8.5 6.7-12.6-8.8-3.9-17.9-6.8-27.3-8.9zm40.2-43.9c-4.2 2.3-8.5 4.4-12.9 6.3 4.9 8.3 10.6 16 16.9 23.2 3.1-3.6 6.5-7 9.9-10.3-5.5-5.7-10.2-12.2-13.9-19.2zm4.1 29.5c-6.3 7.2-12 15-16.9 23.2 4.4 1.9 8.7 4 12.9 6.3 3.7-7.1 8.4-13.5 13.9-19.2-3.5-3.3-6.8-6.7-9.9-10.3zM345.5 299c-2.4-4.1-4.7-8.3-6.7-12.6-7.1 3.6-14.7 6-22.6 7.3.9 4.7 1.5 9.4 2 14.2 9.3-2.1 18.4-5.1 27.3-8.9zm-27.4 8.9c-4.6 1-9.3 1.9-14.1 2.5 1.2 7.9 1.2 15.9 0 23.7 4.7.6 9.4 1.5 14.1 2.5.9-9.5.9-19.1 0-28.7z"/><path d="M304.1 310.4c-.8-5.3-2.1-10.6-4-15.7-11.2-.4-22.4-3.2-33-8.6-3.8 7.4-6.4 15.4-7.7 23.7 14.9 2.4 30 2.6 44.7.6z"/><path d="M316.2 293.8c-2.7-14.6-7.5-28.8-14.4-42.4-7.4 3.8-14.2 8.7-20.1 14.6 8.4 8.4 14.5 18.3 18.4 28.8 5.4.2 10.8-.2 16.1-1zm36.2-16c1.5 5.2 3.5 10.3 5.9 15 13-7.1 25.1-16 35.9-26.8-5.9-5.9-12.7-10.8-20.1-14.6-5.5 10.6-12.9 19.5-21.7 26.4zm-52.4 72c-3.9 10.5-10 20.3-18.4 28.8 5.9 5.9 12.7 10.8 20.1 14.6 6.9-13.5 11.7-27.8 14.4-42.4-5.2-.9-10.6-1.2-16.1-1z"/><path d="M352.4 277.8c-3-10.8-3.9-22.3-2-34.1-8.2-1.3-16.7-1.3-24.9 0 2.4 15 6.9 29.4 13.3 42.7 4.7-2.4 9.3-5.3 13.6-8.6zm56.4 8.4c18.6-9.5 39.1-10.9 57.7-5.7 12.7-16.1 19.1-37 16.5-58.7-32.5 4.5-63.9 19.3-88.9 44.3 6 5.8 10.9 12.6 14.7 20.1zm-20.1-133c1-.2 2-.4 3-.5 43.4-6.9 84.2 22.7 91.1 66.1.2 1 .3 2 .4 3 34.6-4.8 70.5 2 101.4 20.4 17.7-41.2 17.6-89.6-4.3-132.6C540.9 32.7 446.9 2.2 370 41.3c-11.8 6-22.6 13.4-32.1 21.8 25.8 22.6 44.3 53.8 50.8 90.1zm77.9 127.3c-12 15.2-29.4 26.1-50 29.4 1.3 8.2 1.3 16.7 0 24.9 32.6 5.2 65.9-.1 95.3-15.1.9-.4 1.7-.9 2.6-1.4-10.7-19.1-28.2-32.3-47.9-37.8zm-57.8 77.9c-3.8 7.4-8.7 14.2-14.6 20.1 14.7 14.7 22.5 33.8 23.2 53.2 19.2 7.1 41.1 6.8 60.9-2.4-14.3-29.6-38-54.8-69.5-70.9zm-14.6 132.7c-31.1 31.1-81.5 31.1-112.5 0-.7-.7-1.4-1.4-2.1-2.2-25.2 24.2-58.2 39.8-94 43.1 9.9 43.7 38.4 82.8 81.4 104.7 76.9 39.2 170.9 8.6 210.1-68.3 6-11.8 10.4-24.1 13.2-36.5-34.2-3.1-67.5-17.5-94-43.1-.7.9-1.4 1.6-2.1 2.3z"/><path d="M350.4 243.7c8.2 1.3 16.2 3.9 23.7 7.7 15-29.4 20.3-62.8 15.1-95.3-.2-1-.3-1.9-.5-2.9-21.5 4.2-39.4 16.8-50.7 33.8 10.7 16.1 15.6 36.1 12.4 56.7zm234-1.5c-13.5 31.5-37.5 58.8-70 76.1.5.9 1 1.7 1.4 2.6 20 39.2 4.4 87.1-34.8 107-.9.5-1.8.9-2.7 1.3 15.2 31.4 19.9 67.6 11.9 102.7 44.6 4.1 90.6-10.9 124.8-45.1 61-61 61-159.9 0-220.9-9.3-9.3-19.7-17.2-30.6-23.7zm-317.4 44c3.8-7.4 8.7-14.2 14.6-20.1-23.3-23.3-53.4-38.7-86-43.8-1-.2-1.9-.3-2.9-.4-2.6 21.7 3.8 42.6 16.5 58.7 18.7-5.4 39.2-3.9 57.8 5.6z"/><path d="M259.3 334.7c-1.3-8.2-1.3-16.7 0-24.9-20.6-3.3-38.1-14.2-50-29.4-19.7 5.6-37.2 18.7-47.9 37.8 29 15.6 63 22.1 97.9 16.5zm42.5-83.3c7.4-3.8 15.4-6.4 23.7-7.7-3.3-20.6 1.7-40.6 12.5-56.7-11.4-17-29.3-29.6-50.8-33.8-5.8 32.3-1.5 66.7 14.6 98.2zM197.5 429.3c-.9-.4-1.8-.8-2.7-1.3-39.2-20-54.7-67.9-34.8-107 .5-.9.9-1.8 1.4-2.6-30.8-16.5-55.8-43-70-76.1-38.5 22.8-66.9 62-74.5 109.7-13.4 85.2 44.7 165.2 129.9 178.7 13.1 2.1 26.1 2.5 38.8 1.3-7.6-33.5-4.3-69.6 11.9-102.7z"/><path d="M281.6 378.6c-5.9-5.9-10.8-12.7-14.6-20.1-29.4 15-53.3 38.9-68.3 68.3-.4.9-.9 1.7-1.3 2.6 19.9 9.2 41.7 9.5 60.9 2.4.9-19.4 8.6-38.5 23.3-53.2zm43.9 22.3c-8.2-1.3-16.2-3.9-23.7-7.7-9.5 18.6-25.2 31.8-43.4 38.5-.8 20.5 6.3 41.2 21.2 57.2 23.6-22.7 40.3-53.1 45.9-88zM192.8 221.8c.1-1 .2-2 .4-3 6.9-43.4 47.6-73 91.1-66.2 1 .2 2 .4 2.9.5 6.1-34.4 23.7-66.4 50.7-90.1-33.7-29.5-79.7-44.4-127.4-36.9-85.2 13.6-143.4 93.6-129.9 178.8 2.1 13.1 5.7 25.6 10.8 37.3 29.5-17.5 64.9-25.5 101.4-20.4zM374 393.2c-7.4 3.8-15.4 6.4-23.7 7.7 5.2 32.6 20.5 62.7 43.8 86 .7.7 1.4 1.4 2.1 2 14.9-16.1 22-36.7 21.2-57.2-18.1-6.7-33.9-19.9-43.4-38.5z"/></g><path d="M478.4 429.3c-19.9 9.2-41.7 9.5-60.9 2.4.8 20.5-6.3 41.2-21.2 57.2 26.5 25.6 59.9 39.9 94 43.1 7.9-35.1 3.3-71.3-11.9-102.7zm-220 2.4c-19.2 7.1-41.1 6.8-60.9-2.4-16.1 33.1-19.5 69.3-11.9 102.7 35.8-3.3 68.8-18.9 94-43.1-14.9-16-22-36.7-21.2-57.2zm28.8-278.5c21.5 4.2 39.4 16.8 50.8 33.8 11.4-17 29.3-29.6 50.7-33.8-6.4-36.3-25-67.5-50.8-90.1-27.1 23.7-44.6 55.7-50.7 90.1zm195.9 68.6c2.6 21.7-3.8 42.6-16.5 58.7 19.7 5.6 37.2 18.7 47.9 37.8 32.5-17.3 56.5-44.6 70-76.1-31-18.4-66.9-25.2-101.4-20.4zm-321.7 96.5c10.7-19.1 28.2-32.2 47.9-37.8-12.7-16.1-19.1-37-16.5-58.7-36.5-5.1-71.9 2.9-101.4 20.4 14.2 33.1 39.2 59.6 70 76.1zm156.7 18.4c9.4 2.1 18.5 5.1 27.3 8.9 4.9-8.3 10.6-16 16.9-23.2-6.3-7.2-12-15-16.9-23.2-8.8 3.8-18 6.8-27.3 8.9.9 9.4.9 19 0 28.6zm34.3 30.1c-3 10.8-3.9 22.3-2 34.1 8.2-1.3 16.2-3.9 23.7-7.7-5.5-10.6-12.9-19.5-21.7-26.4zm-85.4-8.4c3.8 7.4 8.7 14.2 14.6 20.1 8.4-8.4 14.5-18.3 18.4-28.8-11.1.5-22.4 3.3-33 8.7zm49.2-7.6c-2.7 14.6-7.5 28.8-14.4 42.4 7.4 3.8 15.4 6.4 23.7 7.7 2.4-15 6.9-29.4 13.3-42.7-7.2-3.6-14.8-6.1-22.6-7.4zm100.3-16.1c1.3-8.2 1.3-16.7 0-24.9-11.8 1.9-22.5 6.2-31.8 12.5 9.3 6.2 20 10.6 31.8 12.4zm-58.2 17.1c13 7.1 25.1 16 35.9 26.8 5.9-5.9 10.8-12.7 14.6-20.1-13.5-6.9-25.8-15.6-36.5-25.8-5.6 5.6-10.3 12-14 19.1zm14-39.8c10.8-10.2 23-18.9 36.5-25.8-3.8-7.4-8.7-14.2-14.6-20.1-10.7 10.7-22.8 19.7-35.9 26.8 3.7 6.9 8.4 13.4 14 19.1zm-68.2 22.2c1.2-7.9 1.2-15.9 0-23.7-14.7 1.9-29.8 1.8-44.7-.6-1.3 8.2-1.3 16.7 0 24.9 14.9-2.4 30-2.6 44.7-.6zm34.6-47.8c-6.4-13.4-10.9-27.7-13.3-42.7-8.2 1.3-16.2 3.9-23.7 7.7 6.9 13.5 11.7 27.8 14.4 42.4 7.9-1.4 15.5-3.8 22.6-7.4zm13.7-8.6c8.8-6.9 16.3-15.8 21.7-26.4-7.4-3.8-15.4-6.4-23.7-7.7-1.9 11.8-1.1 23.3 2 34.1zM281.6 266c-5.9 5.9-10.8 12.7-14.6 20.1 10.6 5.4 21.9 8.2 33 8.6-3.8-10.4-9.9-20.3-18.4-28.7z" fill="#0081CD"/></g></svg>