<svg xmlns="http://www.w3.org/2000/svg" width="1170" height="594">
    <g stroke="#000">
        <path fill="#7FC0E6" d="M1161 585C1161 266.9 903.1 9 585 9S9 266.9 9 585"/>
        <path fill="#FFE07F" d="M9 585c0-159.1 128.9-288 288-288s288 128.9 288 288m0 0c0-159.1 128.9-288 288-288s288 128.9 288 288"/>
        <path fill="#7FC0E6" d="M297 585c0-79.5-64.5-144-144-144S9 505.5 9 585"/>
        <path fill="#FFE07F" d="M9 585c0-39.8 32.2-72 72-72s72 32.2 72 72m0 0c0-39.8 32.2-72 72-72s72 32.2 72 72"/>
        <path fill="#7FC0E6" d="M585 585c0-79.5-64.5-144-144-144s-144 64.5-144 144"/>
        <path fill="#FFE07F" d="M297 585c0-39.8 32.2-72 72-72s72 32.2 72 72m0 0c0-39.8 32.2-72 72-72s72 32.2 72 72"/>
        <path fill="#7FC0E6" d="M873 585c0-79.5-64.5-144-144-144s-144 64.5-144 144"/>
        <path fill="#FFE07F" d="M585 585c0-39.8 32.2-72 72-72s72 32.2 72 72m0 0c0-39.8 32.2-72 72-72s72 32.2 72 72"/>
        <path fill="#7FC0E6" d="M1161 585c0-79.5-64.5-144-144-144s-144 64.5-144 144"/>
        <path fill="#FFE07F" d="M873 585c0-39.8 32.2-72 72-72s72 32.2 72 72m0 0c0-39.8 32.2-72 72-72s72 32.2 72 72"/>
        <path fill="#7FC0E6" d="M81 585c0-19.9-16.1-36-36-36S9 565.1 9 585"/>
        <path fill="#FFE07F" d="M9 585c0-9.9 8.1-18 18-18s18 8.1 18 18m0 0c0-9.9 8.1-18 18-18s18 8.1 18 18"/>
        <path fill="#7FC0E6" d="M27 585c0-5-4-9-9-9s-9 4-9 9"/>
        <path fill="#FFE07F" d="M9 585c0-2.5 2-4.5 4.5-4.5s4.5 2 4.5 4.5m0 0c0-2.5 2-4.5 4.5-4.5s4.5 2 4.5 4.5"/>
        <path fill="#7FC0E6" d="M45 585c0-5-4-9-9-9s-9 4-9 9"/>
        <path fill="#FFE07F" d="M27 585c0-2.5 2-4.5 4.5-4.5s4.5 2 4.5 4.5m0 0c0-2.5 2-4.5 4.5-4.5s4.5 2 4.5 4.5"/>
        <path fill="#7FC0E6" d="M63 585c0-5-4-9-9-9s-9 4-9 9"/>
        <path fill="#FFE07F" d="M45 585c0-2.5 2-4.5 4.5-4.5s4.5 2 4.5 4.5m0 0c0-2.5 2-4.5 4.5-4.5s4.5 2 4.5 4.5"/>
        <path fill="#7FC0E6" d="M81 585c0-5-4-9-9-9s-9 4-9 9"/>
        <path fill="#FFE07F" d="M63 585c0-2.5 2-4.5 4.5-4.5s4.5 2 4.5 4.5m0 0c0-2.5 2-4.5 4.5-4.5s4.5 2 4.5 4.5"/>
        <path fill="#7FC0E6" d="M153 585c0-19.9-16.1-36-36-36s-36 16.1-36 36"/>
        <path fill="#FFE07F" d="M81 585c0-9.9 8.1-18 18-18s18 8.1 18 18m0 0c0-9.9 8.1-18 18-18s18 8.1 18 18"/>
        <path fill="#7FC0E6" d="M99 585c0-5-4-9-9-9s-9 4-9 9"/>
        <path fill="#FFE07F" d="M81 585c0-2.5 2-4.5 4.5-4.5s4.5 2 4.5 4.5m0 0c0-2.5 2-4.5 4.5-4.5s4.5 2 4.5 4.5"/>
        <path fill="#7FC0E6" d="M117 585c0-5-4-9-9-9s-9 4-9 9"/>
        <path fill="#FFE07F" d="M99 585c0-2.5 2-4.5 4.5-4.5s4.5 2 4.5 4.5m0 0c0-2.5 2-4.5 4.5-4.5s4.5 2 4.5 4.5"/>
        <path fill="#7FC0E6" d="M135 585c0-5-4-9-9-9s-9 4-9 9"/>
        <path fill="#FFE07F" d="M117 585c0-2.5 2-4.5 4.5-4.5s4.5 2 4.5 4.5m0 0c0-2.5 2-4.5 4.5-4.5s4.5 2 4.5 4.5"/>
        <path fill="#7FC0E6" d="M153 585c0-5-4-9-9-9s-9 4-9 9"/>
        <path fill="#FFE07F" d="M135 585c0-2.5 2-4.5 4.5-4.5s4.5 2 4.5 4.5m0 0c0-2.5 2-4.5 4.5-4.5s4.5 2 4.5 4.5"/>
        <path fill="#7FC0E6" d="M225 585c0-19.9-16.1-36-36-36s-36 16.1-36 36"/>
        <path fill="#FFE07F" d="M153 585c0-9.9 8.1-18 18-18s18 8.1 18 18m0 0c0-9.9 8.1-18 18-18s18 8.1 18 18"/>
        <path fill="#7FC0E6" d="M171 585c0-5-4-9-9-9s-9 4-9 9"/>
        <path fill="#FFE07F" d="M153 585c0-2.5 2-4.5 4.5-4.5s4.5 2 4.5 4.5m0 0c0-2.5 2-4.5 4.5-4.5s4.5 2 4.5 4.5"/>
        <path fill="#7FC0E6" d="M189 585c0-5-4-9-9-9s-9 4-9 9"/>
        <path fill="#FFE07F" d="M171 585c0-2.5 2-4.5 4.5-4.5s4.5 2 4.5 4.5m0 0c0-2.5 2-4.5 4.5-4.5s4.5 2 4.5 4.5"/>
        <path fill="#7FC0E6" d="M207 585c0-5-4-9-9-9s-9 4-9 9"/>
        <path fill="#FFE07F" d="M189 585c0-2.5 2-4.5 4.5-4.5s4.5 2 4.5 4.5m0 0c0-2.5 2-4.5 4.5-4.5s4.5 2 4.5 4.5"/>
        <path fill="#7FC0E6" d="M225 585c0-5-4-9-9-9s-9 4-9 9"/>
        <path fill="#FFE07F" d="M207 585c0-2.5 2-4.5 4.5-4.5s4.5 2 4.5 4.5m0 0c0-2.5 2-4.5 4.5-4.5s4.5 2 4.5 4.5"/>
        <path fill="#7FC0E6" d="M297 585c0-19.9-16.1-36-36-36s-36 16.1-36 36"/>
        <path fill="#FFE07F" d="M225 585c0-9.9 8.1-18 18-18s18 8.1 18 18m0 0c0-9.9 8.1-18 18-18s18 8.1 18 18"/>
        <path fill="#7FC0E6" d="M243 585c0-5-4-9-9-9s-9 4-9 9"/>
        <path fill="#FFE07F" d="M225 585c0-2.5 2-4.5 4.5-4.5s4.5 2 4.5 4.5m0 0c0-2.5 2-4.5 4.5-4.5s4.5 2 4.5 4.5"/>
        <path fill="#7FC0E6" d="M261 585c0-5-4-9-9-9s-9 4-9 9"/>
        <path fill="#FFE07F" d="M243 585c0-2.5 2-4.5 4.5-4.5s4.5 2 4.5 4.5m0 0c0-2.5 2-4.5 4.5-4.5s4.5 2 4.5 4.5"/>
        <path fill="#7FC0E6" d="M279 585c0-5-4-9-9-9s-9 4-9 9"/>
        <path fill="#FFE07F" d="M261 585c0-2.5 2-4.5 4.5-4.5s4.5 2 4.5 4.5m0 0c0-2.5 2-4.5 4.5-4.5s4.5 2 4.5 4.5"/>
        <path fill="#7FC0E6" d="M297 585c0-5-4-9-9-9s-9 4-9 9"/>
        <path fill="#FFE07F" d="M279 585c0-2.5 2-4.5 4.5-4.5s4.5 2 4.5 4.5m0 0c0-2.5 2-4.5 4.5-4.5s4.5 2 4.5 4.5"/>
        <path fill="#7FC0E6" d="M369 585c0-19.9-16.1-36-36-36s-36 16.1-36 36"/>
        <path fill="#FFE07F" d="M297 585c0-9.9 8.1-18 18-18s18 8.1 18 18m0 0c0-9.9 8.1-18 18-18s18 8.1 18 18"/>
        <path fill="#7FC0E6" d="M315 585c0-5-4-9-9-9s-9 4-9 9"/>
        <path fill="#FFE07F" d="M297 585c0-2.5 2-4.5 4.5-4.5s4.5 2 4.5 4.5m0 0c0-2.5 2-4.5 4.5-4.5s4.5 2 4.5 4.5"/>
        <path fill="#7FC0E6" d="M333 585c0-5-4-9-9-9s-9 4-9 9"/>
        <path fill="#FFE07F" d="M315 585c0-2.5 2-4.5 4.5-4.5s4.5 2 4.5 4.5m0 0c0-2.5 2-4.5 4.5-4.5s4.5 2 4.5 4.5"/>
        <path fill="#7FC0E6" d="M351 585c0-5-4-9-9-9s-9 4-9 9"/>
        <path fill="#FFE07F" d="M333 585c0-2.5 2-4.5 4.5-4.5s4.5 2 4.5 4.5m0 0c0-2.5 2-4.5 4.5-4.5s4.5 2 4.5 4.5"/>
        <path fill="#7FC0E6" d="M369 585c0-5-4-9-9-9s-9 4-9 9"/>
        <path fill="#FFE07F" d="M351 585c0-2.5 2-4.5 4.5-4.5s4.5 2 4.5 4.5m0 0c0-2.5 2-4.5 4.5-4.5s4.5 2 4.5 4.5"/>
        <path fill="#7FC0E6" d="M441 585c0-19.9-16.1-36-36-36s-36 16.1-36 36"/>
        <path fill="#FFE07F" d="M369 585c0-9.9 8.1-18 18-18s18 8.1 18 18m0 0c0-9.9 8.1-18 18-18s18 8.1 18 18"/>
        <path fill="#7FC0E6" d="M387 585c0-5-4-9-9-9s-9 4-9 9"/>
        <path fill="#FFE07F" d="M369 585c0-2.5 2-4.5 4.5-4.5s4.5 2 4.5 4.5m0 0c0-2.5 2-4.5 4.5-4.5s4.5 2 4.5 4.5"/>
        <path fill="#7FC0E6" d="M405 585c0-5-4-9-9-9s-9 4-9 9"/>
        <path fill="#FFE07F" d="M387 585c0-2.5 2-4.5 4.5-4.5s4.5 2 4.5 4.5m0 0c0-2.5 2-4.5 4.5-4.5s4.5 2 4.5 4.5"/>
        <path fill="#7FC0E6" d="M423 585c0-5-4-9-9-9s-9 4-9 9"/>
        <path fill="#FFE07F" d="M405 585c0-2.5 2-4.5 4.5-4.5s4.5 2 4.5 4.5m0 0c0-2.5 2-4.5 4.5-4.5s4.5 2 4.5 4.5"/>
        <path fill="#7FC0E6" d="M441 585c0-5-4-9-9-9s-9 4-9 9"/>
        <path fill="#FFE07F" d="M423 585c0-2.5 2-4.5 4.5-4.5s4.5 2 4.5 4.5m0 0c0-2.5 2-4.5 4.5-4.5s4.5 2 4.5 4.5"/>
        <path fill="#7FC0E6" d="M513 585c0-19.9-16.1-36-36-36s-36 16.1-36 36"/>
        <path fill="#FFE07F" d="M441 585c0-9.9 8.1-18 18-18s18 8.1 18 18m0 0c0-9.9 8.1-18 18-18s18 8.1 18 18"/>
        <path fill="#7FC0E6" d="M459 585c0-5-4-9-9-9s-9 4-9 9"/>
        <path fill="#FFE07F" d="M441 585c0-2.5 2-4.5 4.5-4.5s4.5 2 4.5 4.5m0 0c0-2.5 2-4.5 4.5-4.5s4.5 2 4.5 4.5"/>
        <path fill="#7FC0E6" d="M477 585c0-5-4-9-9-9s-9 4-9 9"/>
        <path fill="#FFE07F" d="M459 585c0-2.5 2-4.5 4.5-4.5s4.5 2 4.5 4.5m0 0c0-2.5 2-4.5 4.5-4.5s4.5 2 4.5 4.5"/>
        <path fill="#7FC0E6" d="M495 585c0-5-4-9-9-9s-9 4-9 9"/>
        <path fill="#FFE07F" d="M477 585c0-2.5 2-4.5 4.5-4.5s4.5 2 4.5 4.5m0 0c0-2.5 2-4.5 4.5-4.5s4.5 2 4.5 4.5"/>
        <path fill="#7FC0E6" d="M513 585c0-5-4-9-9-9s-9 4-9 9"/>
        <path fill="#FFE07F" d="M495 585c0-2.5 2-4.5 4.5-4.5s4.5 2 4.5 4.5m0 0c0-2.5 2-4.5 4.5-4.5s4.5 2 4.5 4.5"/>
        <path fill="#7FC0E6" d="M585 585c0-19.9-16.1-36-36-36s-36 16.1-36 36"/>
        <path fill="#FFE07F" d="M513 585c0-9.9 8.1-18 18-18s18 8.1 18 18m0 0c0-9.9 8.1-18 18-18s18 8.1 18 18"/>
        <path fill="#7FC0E6" d="M531 585c0-5-4-9-9-9s-9 4-9 9"/>
        <path fill="#FFE07F" d="M513 585c0-2.5 2-4.5 4.5-4.5s4.5 2 4.5 4.5m0 0c0-2.5 2-4.5 4.5-4.5s4.5 2 4.5 4.5"/>
        <path fill="#7FC0E6" d="M549 585c0-5-4-9-9-9s-9 4-9 9"/>
        <path fill="#FFE07F" d="M531 585c0-2.5 2-4.5 4.5-4.5s4.5 2 4.5 4.5m0 0c0-2.5 2-4.5 4.5-4.5s4.5 2 4.5 4.5"/>
        <path fill="#7FC0E6" d="M567 585c0-5-4-9-9-9s-9 4-9 9"/>
        <path fill="#FFE07F" d="M549 585c0-2.5 2-4.5 4.5-4.5s4.5 2 4.5 4.5m0 0c0-2.5 2-4.5 4.5-4.5s4.5 2 4.5 4.5"/>
        <path fill="#7FC0E6" d="M585 585c0-5-4-9-9-9s-9 4-9 9"/>
        <path fill="#FFE07F" d="M567 585c0-2.5 2-4.5 4.5-4.5s4.5 2 4.5 4.5m0 0c0-2.5 2-4.5 4.5-4.5s4.5 2 4.5 4.5"/>
        <path fill="#7FC0E6" d="M657 585c0-19.9-16.1-36-36-36s-36 16.1-36 36"/>
        <path fill="#FFE07F" d="M585 585c0-9.9 8.1-18 18-18s18 8.1 18 18m0 0c0-9.9 8.1-18 18-18s18 8.1 18 18"/>
        <path fill="#7FC0E6" d="M603 585c0-5-4-9-9-9s-9 4-9 9"/>
        <path fill="#FFE07F" d="M585 585c0-2.5 2-4.5 4.5-4.5s4.5 2 4.5 4.5m0 0c0-2.5 2-4.5 4.5-4.5s4.5 2 4.5 4.5"/>
        <path fill="#7FC0E6" d="M621 585c0-5-4-9-9-9s-9 4-9 9"/>
        <path fill="#FFE07F" d="M603 585c0-2.5 2-4.5 4.5-4.5s4.5 2 4.5 4.5m0 0c0-2.5 2-4.5 4.5-4.5s4.5 2 4.5 4.5"/>
        <path fill="#7FC0E6" d="M639 585c0-5-4-9-9-9s-9 4-9 9"/>
        <path fill="#FFE07F" d="M621 585c0-2.5 2-4.5 4.5-4.5s4.5 2 4.5 4.5m0 0c0-2.5 2-4.5 4.5-4.5s4.5 2 4.5 4.5"/>
        <path fill="#7FC0E6" d="M657 585c0-5-4-9-9-9s-9 4-9 9"/>
        <path fill="#FFE07F" d="M639 585c0-2.5 2-4.5 4.5-4.5s4.5 2 4.5 4.5m0 0c0-2.5 2-4.5 4.5-4.5s4.5 2 4.5 4.5"/>
        <path fill="#7FC0E6" d="M729 585c0-19.9-16.1-36-36-36s-36 16.1-36 36"/>
        <path fill="#FFE07F" d="M657 585c0-9.9 8.1-18 18-18s18 8.1 18 18m0 0c0-9.9 8.1-18 18-18s18 8.1 18 18"/>
        <path fill="#7FC0E6" d="M675 585c0-5-4-9-9-9s-9 4-9 9"/>
        <path fill="#FFE07F" d="M657 585c0-2.5 2-4.5 4.5-4.5s4.5 2 4.5 4.5m0 0c0-2.5 2-4.5 4.5-4.5s4.5 2 4.5 4.5"/>
        <path fill="#7FC0E6" d="M693 585c0-5-4-9-9-9s-9 4-9 9"/>
        <path fill="#FFE07F" d="M675 585c0-2.5 2-4.5 4.5-4.5s4.5 2 4.5 4.5m0 0c0-2.5 2-4.5 4.5-4.5s4.5 2 4.5 4.5"/>
        <path fill="#7FC0E6" d="M711 585c0-5-4-9-9-9s-9 4-9 9"/>
        <path fill="#FFE07F" d="M693 585c0-2.5 2-4.5 4.5-4.5s4.5 2 4.5 4.5m0 0c0-2.5 2-4.5 4.5-4.5s4.5 2 4.5 4.5"/>
        <path fill="#7FC0E6" d="M729 585c0-5-4-9-9-9s-9 4-9 9"/>
        <path fill="#FFE07F" d="M711 585c0-2.5 2-4.5 4.5-4.5s4.5 2 4.5 4.5m0 0c0-2.5 2-4.5 4.5-4.5s4.5 2 4.5 4.5"/>
        <path fill="#7FC0E6" d="M801 585c0-19.9-16.1-36-36-36s-36 16.1-36 36"/>
        <path fill="#FFE07F" d="M729 585c0-9.9 8.1-18 18-18s18 8.1 18 18m0 0c0-9.9 8.1-18 18-18s18 8.1 18 18"/>
        <path fill="#7FC0E6" d="M747 585c0-5-4-9-9-9s-9 4-9 9"/>
        <path fill="#FFE07F" d="M729 585c0-2.5 2-4.5 4.5-4.5s4.5 2 4.5 4.5m0 0c0-2.5 2-4.5 4.5-4.5s4.5 2 4.5 4.5"/>
        <path fill="#7FC0E6" d="M765 585c0-5-4-9-9-9s-9 4-9 9"/>
        <path fill="#FFE07F" d="M747 585c0-2.5 2-4.5 4.5-4.5s4.5 2 4.5 4.5m0 0c0-2.5 2-4.5 4.5-4.5s4.5 2 4.5 4.5"/>
        <path fill="#7FC0E6" d="M783 585c0-5-4-9-9-9s-9 4-9 9"/>
        <path fill="#FFE07F" d="M765 585c0-2.5 2-4.5 4.5-4.5s4.5 2 4.5 4.5m0 0c0-2.5 2-4.5 4.5-4.5s4.5 2 4.5 4.5"/>
        <path fill="#7FC0E6" d="M801 585c0-5-4-9-9-9s-9 4-9 9"/>
        <path fill="#FFE07F" d="M783 585c0-2.5 2-4.5 4.5-4.5s4.5 2 4.5 4.5m0 0c0-2.5 2-4.5 4.5-4.5s4.5 2 4.5 4.5"/>
        <path fill="#7FC0E6" d="M873 585c0-19.9-16.1-36-36-36s-36 16.1-36 36"/>
        <path fill="#FFE07F" d="M801 585c0-9.9 8.1-18 18-18s18 8.1 18 18m0 0c0-9.9 8.1-18 18-18s18 8.1 18 18"/>
        <path fill="#7FC0E6" d="M819 585c0-5-4-9-9-9s-9 4-9 9"/>
        <path fill="#FFE07F" d="M801 585c0-2.5 2-4.5 4.5-4.5s4.5 2 4.5 4.5m0 0c0-2.5 2-4.5 4.5-4.5s4.5 2 4.5 4.5"/>
        <path fill="#7FC0E6" d="M837 585c0-5-4-9-9-9s-9 4-9 9"/>
        <path fill="#FFE07F" d="M819 585c0-2.5 2-4.5 4.5-4.5s4.5 2 4.5 4.5m0 0c0-2.5 2-4.5 4.5-4.5s4.5 2 4.5 4.5"/>
        <path fill="#7FC0E6" d="M855 585c0-5-4-9-9-9s-9 4-9 9"/>
        <path fill="#FFE07F" d="M837 585c0-2.5 2-4.5 4.5-4.5s4.5 2 4.5 4.5m0 0c0-2.5 2-4.5 4.5-4.5s4.5 2 4.5 4.5"/>
        <path fill="#7FC0E6" d="M873 585c0-5-4-9-9-9s-9 4-9 9"/>
        <path fill="#FFE07F" d="M855 585c0-2.5 2-4.5 4.5-4.5s4.5 2 4.5 4.5m0 0c0-2.5 2-4.5 4.5-4.5s4.5 2 4.5 4.5"/>
        <path fill="#7FC0E6" d="M945 585c0-19.9-16.1-36-36-36s-36 16.1-36 36"/>
        <path fill="#FFE07F" d="M873 585c0-9.9 8.1-18 18-18s18 8.1 18 18m0 0c0-9.9 8.1-18 18-18s18 8.1 18 18"/>
        <path fill="#7FC0E6" d="M891 585c0-5-4-9-9-9s-9 4-9 9"/>
        <path fill="#FFE07F" d="M873 585c0-2.5 2-4.5 4.5-4.5s4.5 2 4.5 4.5m0 0c0-2.5 2-4.5 4.5-4.5s4.5 2 4.5 4.5"/>
        <path fill="#7FC0E6" d="M909 585c0-5-4-9-9-9s-9 4-9 9"/>
        <path fill="#FFE07F" d="M891 585c0-2.5 2-4.5 4.5-4.5s4.5 2 4.5 4.5m0 0c0-2.5 2-4.5 4.5-4.5s4.5 2 4.5 4.5"/>
        <path fill="#7FC0E6" d="M927 585c0-5-4-9-9-9s-9 4-9 9"/>
        <path fill="#FFE07F" d="M909 585c0-2.5 2-4.5 4.5-4.5s4.5 2 4.5 4.5m0 0c0-2.5 2-4.5 4.5-4.5s4.5 2 4.5 4.5"/>
        <path fill="#7FC0E6" d="M945 585c0-5-4-9-9-9s-9 4-9 9"/>
        <path fill="#FFE07F" d="M927 585c0-2.5 2-4.5 4.5-4.5s4.5 2 4.5 4.5m0 0c0-2.5 2-4.5 4.5-4.5s4.5 2 4.5 4.5"/>
        <path fill="#7FC0E6" d="M1017 585c0-19.9-16.1-36-36-36s-36 16.1-36 36"/>
        <path fill="#FFE07F" d="M945 585c0-9.9 8.1-18 18-18s18 8.1 18 18m0 0c0-9.9 8.1-18 18-18s18 8.1 18 18"/>
        <path fill="#7FC0E6" d="M963 585c0-5-4-9-9-9s-9 4-9 9"/>
        <path fill="#FFE07F" d="M945 585c0-2.5 2-4.5 4.5-4.5s4.5 2 4.5 4.5m0 0c0-2.5 2-4.5 4.5-4.5s4.5 2 4.5 4.5"/>
        <path fill="#7FC0E6" d="M981 585c0-5-4-9-9-9s-9 4-9 9"/>
        <path fill="#FFE07F" d="M963 585c0-2.5 2-4.5 4.5-4.5s4.5 2 4.5 4.5m0 0c0-2.5 2-4.5 4.5-4.5s4.5 2 4.5 4.5"/>
        <path fill="#7FC0E6" d="M999 585c0-5-4-9-9-9s-9 4-9 9"/>
        <path fill="#FFE07F" d="M981 585c0-2.5 2-4.5 4.5-4.5s4.5 2 4.5 4.5m0 0c0-2.5 2-4.5 4.5-4.5s4.5 2 4.5 4.5"/>
        <path fill="#7FC0E6" d="M1017 585c0-5-4-9-9-9s-9 4-9 9"/>
        <path fill="#FFE07F" d="M999 585c0-2.5 2-4.5 4.5-4.5s4.5 2 4.5 4.5m0 0c0-2.5 2-4.5 4.5-4.5s4.5 2 4.5 4.5"/>
        <path fill="#7FC0E6" d="M1089 585c0-19.9-16.1-36-36-36s-36 16.1-36 36"/>
        <path fill="#FFE07F" d="M1017 585c0-9.9 8.1-18 18-18s18 8.1 18 18m0 0c0-9.9 8.1-18 18-18s18 8.1 18 18"/>
        <path fill="#7FC0E6" d="M1035 585c0-5-4-9-9-9s-9 4-9 9"/>
        <path fill="#FFE07F" d="M1017 585c0-2.5 2-4.5 4.5-4.5s4.5 2 4.5 4.5m0 0c0-2.5 2-4.5 4.5-4.5s4.5 2 4.5 4.5"/>
        <path fill="#7FC0E6" d="M1053 585c0-5-4-9-9-9s-9 4-9 9"/>
        <path fill="#FFE07F" d="M1035 585c0-2.5 2-4.5 4.5-4.5s4.5 2 4.5 4.5m0 0c0-2.5 2-4.5 4.5-4.5s4.5 2 4.5 4.5"/>
        <path fill="#7FC0E6" d="M1071 585c0-5-4-9-9-9s-9 4-9 9"/>
        <path fill="#FFE07F" d="M1053 585c0-2.5 2-4.5 4.5-4.5s4.5 2 4.5 4.5m0 0c0-2.5 2-4.5 4.5-4.5s4.5 2 4.5 4.5"/>
        <path fill="#7FC0E6" d="M1089 585c0-5-4-9-9-9s-9 4-9 9"/>
        <path fill="#FFE07F" d="M1071 585c0-2.5 2-4.5 4.5-4.5s4.5 2 4.5 4.5m0 0c0-2.5 2-4.5 4.5-4.5s4.5 2 4.5 4.5"/>
        <path fill="#7FC0E6" d="M1161 585c0-19.9-16.1-36-36-36s-36 16.1-36 36"/>
        <path fill="#FFE07F" d="M1089 585c0-9.9 8.1-18 18-18s18 8.1 18 18m0 0c0-9.9 8.1-18 18-18s18 8.1 18 18"/>
        <path fill="#7FC0E6" d="M1107 585c0-5-4-9-9-9s-9 4-9 9"/>
        <path fill="#FFE07F" d="M1089 585c0-2.5 2-4.5 4.5-4.5s4.5 2 4.5 4.5m0 0c0-2.5 2-4.5 4.5-4.5s4.5 2 4.5 4.5"/>
        <path fill="#7FC0E6" d="M1125 585c0-5-4-9-9-9s-9 4-9 9"/>
        <path fill="#FFE07F" d="M1107 585c0-2.5 2-4.5 4.5-4.5s4.5 2 4.5 4.5m0 0c0-2.5 2-4.5 4.5-4.5s4.5 2 4.5 4.5"/>
        <path fill="#7FC0E6" d="M1143 585c0-5-4-9-9-9s-9 4-9 9"/>
        <path fill="#FFE07F" d="M1125 585c0-2.5 2-4.5 4.5-4.5s4.5 2 4.5 4.5m0 0c0-2.5 2-4.5 4.5-4.5s4.5 2 4.5 4.5"/>
        <path fill="#7FC0E6" d="M1161 585c0-5-4-9-9-9s-9 4-9 9"/>
        <path fill="#FFE07F" d="M1143 585c0-2.5 2-4.5 4.5-4.5s4.5 2 4.5 4.5m0 0c0-2.5 2-4.5 4.5-4.5s4.5 2 4.5 4.5"/>
        <path fill="#7FC0E6" d="M1161 585c0-1.2-1-2.2-2.2-2.2s-2.2 1-2.2 2.2"/>
        <path fill="#FFE07F" d="M1156.5 585c0-.6.5-1.1 1.1-1.1s1.1.5 1.1 1.1m.1 0c0-.6.5-1.1 1.1-1.1s1.1.5 1.1 1.1"/>
        <path fill="#7FC0E6" d="M1156.5 585c0-1.2-1-2.2-2.2-2.2s-2.2 1-2.2 2.2"/>
        <path fill="#FFE07F" d="M1152 585c0-.6.5-1.1 1.1-1.1s1.1.5 1.1 1.1m0 0c0-.6.5-1.1 1.1-1.1s1.1.5 1.1 1.1"/>
        <path fill="#7FC0E6" d="M1152 585c0-1.2-1-2.2-2.2-2.2s-2.2 1-2.2 2.2"/>
        <path fill="#FFE07F" d="M1147.5 585c0-.6.5-1.1 1.1-1.1s1.1.5 1.1 1.1m.1 0c0-.6.5-1.1 1.1-1.1s1.1.5 1.1 1.1"/>
        <path fill="#7FC0E6" d="M1147.5 585c0-1.2-1-2.2-2.2-2.2s-2.2 1-2.2 2.2"/>
        <path fill="#FFE07F" d="M1143 585c0-.6.5-1.1 1.1-1.1s1.1.5 1.1 1.1m0 0c0-.6.5-1.1 1.1-1.1s1.1.5 1.1 1.1"/>
        <path fill="#7FC0E6" d="M1143 585c0-1.2-1-2.2-2.2-2.2s-2.2 1-2.2 2.2"/>
        <path fill="#FFE07F" d="M1138.5 585c0-.6.5-1.1 1.1-1.1s1.1.5 1.1 1.1m.1 0c0-.6.5-1.1 1.1-1.1s1.1.5 1.1 1.1"/>
        <path fill="#7FC0E6" d="M1138.5 585c0-1.2-1-2.2-2.2-2.2s-2.2 1-2.2 2.2"/>
        <path fill="#FFE07F" d="M1134 585c0-.6.5-1.1 1.1-1.1s1.1.5 1.1 1.1m0 0c0-.6.5-1.1 1.1-1.1s1.1.5 1.1 1.1"/>
        <path fill="#7FC0E6" d="M1134 585c0-1.2-1-2.2-2.2-2.2s-2.2 1-2.2 2.2"/>
        <path fill="#FFE07F" d="M1129.5 585c0-.6.5-1.1 1.1-1.1s1.1.5 1.1 1.1m.1 0c0-.6.5-1.1 1.1-1.1s1.1.5 1.1 1.1"/>
        <path fill="#7FC0E6" d="M1129.5 585c0-1.2-1-2.2-2.2-2.2s-2.2 1-2.2 2.2"/>
        <path fill="#FFE07F" d="M1125 585c0-.6.5-1.1 1.1-1.1s1.1.5 1.1 1.1m0 0c0-.6.5-1.1 1.1-1.1s1.1.5 1.1 1.1"/>
        <path fill="#7FC0E6" d="M1125 585c0-1.2-1-2.2-2.2-2.2s-2.2 1-2.2 2.2"/>
        <path fill="#FFE07F" d="M1120.5 585c0-.6.5-1.1 1.1-1.1s1.1.5 1.1 1.1m.1 0c0-.6.5-1.1 1.1-1.1s1.1.5 1.1 1.1"/>
        <path fill="#7FC0E6" d="M1120.5 585c0-1.2-1-2.2-2.2-2.2s-2.2 1-2.2 2.2"/>
        <path fill="#FFE07F" d="M1116 585c0-.6.5-1.1 1.1-1.1s1.1.5 1.1 1.1m0 0c0-.6.5-1.1 1.1-1.1s1.1.5 1.1 1.1"/>
        <path fill="#7FC0E6" d="M1116 585c0-1.2-1-2.2-2.2-2.2s-2.2 1-2.2 2.2"/>
        <path fill="#FFE07F" d="M1111.5 585c0-.6.5-1.1 1.1-1.1s1.1.5 1.1 1.1m.1 0c0-.6.5-1.1 1.1-1.1s1.1.5 1.1 1.1"/>
        <path fill="#7FC0E6" d="M1111.5 585c0-1.2-1-2.2-2.2-2.2s-2.2 1-2.2 2.2"/>
        <path fill="#FFE07F" d="M1107 585c0-.6.5-1.1 1.1-1.1s1.1.5 1.1 1.1m0 0c0-.6.5-1.1 1.1-1.1s1.1.5 1.1 1.1"/>
        <path fill="#7FC0E6" d="M1107 585c0-1.2-1-2.2-2.2-2.2s-2.2 1-2.2 2.2"/>
        <path fill="#FFE07F" d="M1102.5 585c0-.6.5-1.1 1.1-1.1s1.1.5 1.1 1.1m.1 0c0-.6.5-1.1 1.1-1.1s1.1.5 1.1 1.1"/>
        <path fill="#7FC0E6" d="M1102.5 585c0-1.2-1-2.2-2.2-2.2s-2.2 1-2.2 2.2"/>
        <path fill="#FFE07F" d="M1098 585c0-.6.5-1.1 1.1-1.1s1.1.5 1.1 1.1m0 0c0-.6.5-1.1 1.1-1.1s1.1.5 1.1 1.1"/>
        <path fill="#7FC0E6" d="M1098 585c0-1.2-1-2.2-2.2-2.2s-2.2 1-2.2 2.2"/>
        <path fill="#FFE07F" d="M1093.5 585c0-.6.5-1.1 1.1-1.1s1.1.5 1.1 1.1m.1 0c0-.6.5-1.1 1.1-1.1s1.1.5 1.1 1.1"/>
        <path fill="#7FC0E6" d="M1093.5 585c0-1.2-1-2.2-2.2-2.2s-2.2 1-2.2 2.2"/>
        <path fill="#FFE07F" d="M1089 585c0-.6.5-1.1 1.1-1.1s1.1.5 1.1 1.1m0 0c0-.6.5-1.1 1.1-1.1s1.1.5 1.1 1.1"/>
        <path fill="#7FC0E6" d="M1089 585c0-1.2-1-2.2-2.2-2.2s-2.2 1-2.2 2.2"/>
        <path fill="#FFE07F" d="M1084.5 585c0-.6.5-1.1 1.1-1.1s1.1.5 1.1 1.1m.1 0c0-.6.5-1.1 1.1-1.1s1.1.5 1.1 1.1"/>
        <path fill="#7FC0E6" d="M1084.5 585c0-1.2-1-2.2-2.2-2.2s-2.2 1-2.2 2.2"/>
        <path fill="#FFE07F" d="M1080 585c0-.6.5-1.1 1.1-1.1s1.1.5 1.1 1.1m0 0c0-.6.5-1.1 1.1-1.1s1.1.5 1.1 1.1"/>
        <path fill="#7FC0E6" d="M1080 585c0-1.2-1-2.2-2.2-2.2s-2.2 1-2.2 2.2"/>
        <path fill="#FFE07F" d="M1075.5 585c0-.6.5-1.1 1.1-1.1s1.1.5 1.1 1.1m.1 0c0-.6.5-1.1 1.1-1.1s1.1.5 1.1 1.1"/>
        <path fill="#7FC0E6" d="M1075.5 585c0-1.2-1-2.2-2.2-2.2s-2.2 1-2.2 2.2"/>
        <path fill="#FFE07F" d="M1071 585c0-.6.5-1.1 1.1-1.1s1.1.5 1.1 1.1m0 0c0-.6.5-1.1 1.1-1.1s1.1.5 1.1 1.1"/>
        <path fill="#7FC0E6" d="M1071 585c0-1.2-1-2.2-2.2-2.2s-2.2 1-2.2 2.2"/>
        <path fill="#FFE07F" d="M1066.5 585c0-.6.5-1.1 1.1-1.1s1.1.5 1.1 1.1m.1 0c0-.6.5-1.1 1.1-1.1s1.1.5 1.1 1.1"/>
        <path fill="#7FC0E6" d="M1066.5 585c0-1.2-1-2.2-2.2-2.2s-2.2 1-2.2 2.2"/>
        <path fill="#FFE07F" d="M1062 585c0-.6.5-1.1 1.1-1.1s1.1.5 1.1 1.1m0 0c0-.6.5-1.1 1.1-1.1s1.1.5 1.1 1.1"/>
        <path fill="#7FC0E6" d="M1062 585c0-1.2-1-2.2-2.2-2.2s-2.2 1-2.2 2.2"/>
        <path fill="#FFE07F" d="M1057.5 585c0-.6.5-1.1 1.1-1.1s1.1.5 1.1 1.1m.1 0c0-.6.5-1.1 1.1-1.1s1.1.5 1.1 1.1"/>
        <path fill="#7FC0E6" d="M1057.5 585c0-1.2-1-2.2-2.2-2.2s-2.2 1-2.2 2.2"/>
        <path fill="#FFE07F" d="M1053 585c0-.6.5-1.1 1.1-1.1s1.1.5 1.1 1.1m0 0c0-.6.5-1.1 1.1-1.1s1.1.5 1.1 1.1"/>
        <path fill="#7FC0E6" d="M1053 585c0-1.2-1-2.2-2.2-2.2s-2.2 1-2.2 2.2"/>
        <path fill="#FFE07F" d="M1048.5 585c0-.6.5-1.1 1.1-1.1s1.1.5 1.1 1.1m.1 0c0-.6.5-1.1 1.1-1.1s1.1.5 1.1 1.1"/>
        <path fill="#7FC0E6" d="M1048.5 585c0-1.2-1-2.2-2.2-2.2s-2.2 1-2.2 2.2"/>
        <path fill="#FFE07F" d="M1044 585c0-.6.5-1.1 1.1-1.1s1.1.5 1.1 1.1m0 0c0-.6.5-1.1 1.1-1.1s1.1.5 1.1 1.1"/>
        <path fill="#7FC0E6" d="M1044 585c0-1.2-1-2.2-2.2-2.2s-2.2 1-2.2 2.2"/>
        <path fill="#FFE07F" d="M1039.5 585c0-.6.5-1.1 1.1-1.1s1.1.5 1.1 1.1m.1 0c0-.6.5-1.1 1.1-1.1s1.1.5 1.1 1.1"/>
        <path fill="#7FC0E6" d="M1039.5 585c0-1.2-1-2.2-2.2-2.2s-2.2 1-2.2 2.2"/>
        <path fill="#FFE07F" d="M1035 585c0-.6.5-1.1 1.1-1.1s1.1.5 1.1 1.1m0 0c0-.6.5-1.1 1.1-1.1s1.1.5 1.1 1.1"/>
        <path fill="#7FC0E6" d="M1035 585c0-1.2-1-2.2-2.2-2.2s-2.2 1-2.2 2.2"/>
        <path fill="#FFE07F" d="M1030.5 585c0-.6.5-1.1 1.1-1.1s1.1.5 1.1 1.1m.1 0c0-.6.5-1.1 1.1-1.1s1.1.5 1.1 1.1"/>
        <path fill="#7FC0E6" d="M1030.5 585c0-1.2-1-2.2-2.2-2.2s-2.2 1-2.2 2.2"/>
        <path fill="#FFE07F" d="M1026 585c0-.6.5-1.1 1.1-1.1s1.1.5 1.1 1.1m0 0c0-.6.5-1.1 1.1-1.1s1.1.5 1.1 1.1"/>
        <path fill="#7FC0E6" d="M1026 585c0-1.2-1-2.2-2.2-2.2-1.2 0-2.2 1-2.2 2.2"/>
        <path fill="#FFE07F" d="M1021.5 585c0-.6.5-1.1 1.1-1.1s1.1.5 1.1 1.1m.1 0c0-.6.5-1.1 1.1-1.1s1.1.5 1.1 1.1"/>
        <path fill="#7FC0E6" d="M1021.5 585c0-1.2-1-2.2-2.2-2.2s-2.2 1-2.2 2.2"/>
        <path fill="#FFE07F" d="M1017 585c0-.6.5-1.1 1.1-1.1s1.1.5 1.1 1.1m0 0c0-.6.5-1.1 1.1-1.1s1.1.5 1.1 1.1"/>
        <path fill="#7FC0E6" d="M1017 585c0-1.2-1-2.2-2.2-2.2s-2.2 1-2.2 2.2"/>
        <path fill="#FFE07F" d="M1012.5 585c0-.6.5-1.1 1.1-1.1s1.1.5 1.1 1.1m.1 0c0-.6.5-1.1 1.1-1.1s1.1.5 1.1 1.1"/>
        <path fill="#7FC0E6" d="M1012.5 585c0-1.2-1-2.2-2.2-2.2s-2.2 1-2.2 2.2"/>
        <path fill="#FFE07F" d="M1008 585c0-.6.5-1.1 1.1-1.1s1.1.5 1.1 1.1m0 0c0-.6.5-1.1 1.1-1.1s1.1.5 1.1 1.1"/>
        <path fill="#7FC0E6" d="M1008 585c0-1.2-1-2.2-2.2-2.2s-2.2 1-2.2 2.2"/>
        <path fill="#FFE07F" d="M1003.5 585c0-.6.5-1.1 1.1-1.1s1.1.5 1.1 1.1m.1 0c0-.6.5-1.1 1.1-1.1s1.1.5 1.1 1.1"/>
        <path fill="#7FC0E6" d="M1003.5 585c0-1.2-1-2.2-2.2-2.2s-2.2 1-2.2 2.2"/>
        <path fill="#FFE07F" d="M999 585c0-.6.5-1.1 1.1-1.1s1.1.5 1.1 1.1m0 0c0-.6.5-1.1 1.1-1.1s1.1.5 1.1 1.1"/>
        <path fill="#7FC0E6" d="M999 585c0-1.2-1-2.2-2.2-2.2s-2.2 1-2.2 2.2"/>
        <path fill="#FFE07F" d="M994.5 585c0-.6.5-1.1 1.1-1.1s1.1.5 1.1 1.1m.1 0c0-.6.5-1.1 1.1-1.1s1.1.5 1.1 1.1"/>
        <path fill="#7FC0E6" d="M994.5 585c0-1.2-1-2.2-2.2-2.2s-2.2 1-2.2 2.2"/>
        <path fill="#FFE07F" d="M990 585c0-.6.5-1.1 1.1-1.1s1.1.5 1.1 1.1m0 0c0-.6.5-1.1 1.1-1.1s1.1.5 1.1 1.1"/>
        <path fill="#7FC0E6" d="M990 585c0-1.2-1-2.2-2.2-2.2s-2.2 1-2.2 2.2"/>
        <path fill="#FFE07F" d="M985.5 585c0-.6.5-1.1 1.1-1.1s1.1.5 1.1 1.1m.1 0c0-.6.5-1.1 1.1-1.1s1.1.5 1.1 1.1"/>
        <path fill="#7FC0E6" d="M985.5 585c0-1.2-1-2.2-2.2-2.2s-2.2 1-2.2 2.2"/>
        <path fill="#FFE07F" d="M981 585c0-.6.5-1.1 1.1-1.1s1.1.5 1.1 1.1m0 0c0-.6.5-1.1 1.1-1.1s1.1.5 1.1 1.1"/>
        <path fill="#7FC0E6" d="M981 585c0-1.2-1-2.2-2.2-2.2s-2.2 1-2.2 2.2"/>
        <path fill="#FFE07F" d="M976.5 585c0-.6.5-1.1 1.1-1.1s1.1.5 1.1 1.1m.1 0c0-.6.5-1.1 1.1-1.1s1.1.5 1.1 1.1"/>
        <path fill="#7FC0E6" d="M976.5 585c0-1.2-1-2.2-2.2-2.2s-2.2 1-2.2 2.2"/>
        <path fill="#FFE07F" d="M972 585c0-.6.5-1.1 1.1-1.1s1.1.5 1.1 1.1m0 0c0-.6.5-1.1 1.1-1.1s1.1.5 1.1 1.1"/>
        <path fill="#7FC0E6" d="M972 585c0-1.2-1-2.2-2.2-2.2s-2.2 1-2.2 2.2"/>
        <path fill="#FFE07F" d="M967.5 585c0-.6.5-1.1 1.1-1.1s1.1.5 1.1 1.1m.1 0c0-.6.5-1.1 1.1-1.1s1.1.5 1.1 1.1"/>
        <path fill="#7FC0E6" d="M967.5 585c0-1.2-1-2.2-2.2-2.2s-2.2 1-2.2 2.2"/>
        <path fill="#FFE07F" d="M963 585c0-.6.5-1.1 1.1-1.1s1.1.5 1.1 1.1m0 0c0-.6.5-1.1 1.1-1.1s1.1.5 1.1 1.1"/>
        <path fill="#7FC0E6" d="M963 585c0-1.2-1-2.2-2.2-2.2s-2.2 1-2.2 2.2"/>
        <path fill="#FFE07F" d="M958.5 585c0-.6.5-1.1 1.1-1.1s1.1.5 1.1 1.1m.1 0c0-.6.5-1.1 1.1-1.1s1.1.5 1.1 1.1"/>
        <path fill="#7FC0E6" d="M958.5 585c0-1.2-1-2.2-2.2-2.2s-2.2 1-2.2 2.2"/>
        <path fill="#FFE07F" d="M954 585c0-.6.5-1.1 1.1-1.1s1.1.5 1.1 1.1m0 0c0-.6.5-1.1 1.1-1.1s1.1.5 1.1 1.1"/>
        <path fill="#7FC0E6" d="M954 585c0-1.2-1-2.2-2.2-2.2s-2.2 1-2.2 2.2"/>
        <path fill="#FFE07F" d="M949.5 585c0-.6.5-1.1 1.1-1.1s1.1.5 1.1 1.1m.1 0c0-.6.5-1.1 1.1-1.1s1.1.5 1.1 1.1"/>
        <path fill="#7FC0E6" d="M949.5 585c0-1.2-1-2.2-2.2-2.2s-2.2 1-2.2 2.2"/>
        <path fill="#FFE07F" d="M945 585c0-.6.5-1.1 1.1-1.1s1.1.5 1.1 1.1m0 0c0-.6.5-1.1 1.1-1.1s1.1.5 1.1 1.1"/>
        <path fill="#7FC0E6" d="M945 585c0-1.2-1-2.2-2.2-2.2s-2.2 1-2.2 2.2"/>
        <path fill="#FFE07F" d="M940.5 585c0-.6.5-1.1 1.1-1.1s1.1.5 1.1 1.1m.1 0c0-.6.5-1.1 1.1-1.1s1.1.5 1.1 1.1"/>
        <path fill="#7FC0E6" d="M940.5 585c0-1.2-1-2.2-2.2-2.2s-2.2 1-2.2 2.2"/>
        <path fill="#FFE07F" d="M936 585c0-.6.5-1.1 1.1-1.1s1.1.5 1.1 1.1m0 0c0-.6.5-1.1 1.1-1.1s1.1.5 1.1 1.1"/>
        <path fill="#7FC0E6" d="M936 585c0-1.2-1-2.2-2.2-2.2s-2.2 1-2.2 2.2"/>
        <path fill="#FFE07F" d="M931.5 585c0-.6.5-1.1 1.1-1.1s1.1.5 1.1 1.1m.1 0c0-.6.5-1.1 1.1-1.1s1.1.5 1.1 1.1"/>
        <path fill="#7FC0E6" d="M931.5 585c0-1.2-1-2.2-2.2-2.2s-2.2 1-2.2 2.2"/>
        <path fill="#FFE07F" d="M927 585c0-.6.5-1.1 1.1-1.1s1.1.5 1.1 1.1m0 0c0-.6.5-1.1 1.1-1.1s1.1.5 1.1 1.1"/>
        <path fill="#7FC0E6" d="M927 585c0-1.2-1-2.2-2.2-2.2s-2.2 1-2.2 2.2"/>
        <path fill="#FFE07F" d="M922.5 585c0-.6.5-1.1 1.1-1.1s1.1.5 1.1 1.1m.1 0c0-.6.5-1.1 1.1-1.1s1.1.5 1.1 1.1"/>
        <path fill="#7FC0E6" d="M922.5 585c0-1.2-1-2.2-2.2-2.2s-2.2 1-2.2 2.2"/>
        <path fill="#FFE07F" d="M918 585c0-.6.5-1.1 1.1-1.1s1.1.5 1.1 1.1m0 0c0-.6.5-1.1 1.1-1.1s1.1.5 1.1 1.1"/>
        <path fill="#7FC0E6" d="M918 585c0-1.2-1-2.2-2.2-2.2s-2.2 1-2.2 2.2"/>
        <path fill="#FFE07F" d="M913.5 585c0-.6.5-1.1 1.1-1.1s1.1.5 1.1 1.1m.1 0c0-.6.5-1.1 1.1-1.1s1.1.5 1.1 1.1"/>
        <path fill="#7FC0E6" d="M913.5 585c0-1.2-1-2.2-2.2-2.2s-2.2 1-2.2 2.2"/>
        <path fill="#FFE07F" d="M909 585c0-.6.5-1.1 1.1-1.1s1.1.5 1.1 1.1m0 0c0-.6.5-1.1 1.1-1.1s1.1.5 1.1 1.1"/>
        <path fill="#7FC0E6" d="M909 585c0-1.2-1-2.2-2.2-2.2s-2.2 1-2.2 2.2"/>
        <path fill="#FFE07F" d="M904.5 585c0-.6.5-1.1 1.1-1.1s1.1.5 1.1 1.1m.1 0c0-.6.5-1.1 1.1-1.1s1.1.5 1.1 1.1"/>
        <path fill="#7FC0E6" d="M904.5 585c0-1.2-1-2.2-2.2-2.2s-2.2 1-2.2 2.2"/>
        <path fill="#FFE07F" d="M900 585c0-.6.5-1.1 1.1-1.1s1.1.5 1.1 1.1m0 0c0-.6.5-1.1 1.1-1.1s1.1.5 1.1 1.1"/>
        <path fill="#7FC0E6" d="M900 585c0-1.2-1-2.2-2.2-2.2s-2.2 1-2.2 2.2"/>
        <path fill="#FFE07F" d="M895.5 585c0-.6.5-1.1 1.1-1.1s1.1.5 1.1 1.1m.1 0c0-.6.5-1.1 1.1-1.1s1.1.5 1.1 1.1"/>
        <path fill="#7FC0E6" d="M895.5 585c0-1.2-1-2.2-2.2-2.2s-2.2 1-2.2 2.2"/>
        <path fill="#FFE07F" d="M891 585c0-.6.5-1.1 1.1-1.1s1.1.5 1.1 1.1m0 0c0-.6.5-1.1 1.1-1.1s1.1.5 1.1 1.1"/>
        <path fill="#7FC0E6" d="M891 585c0-1.2-1-2.2-2.2-2.2s-2.2 1-2.2 2.2"/>
        <path fill="#FFE07F" d="M886.5 585c0-.6.5-1.1 1.1-1.1s1.1.5 1.1 1.1m.1 0c0-.6.5-1.1 1.1-1.1s1.1.5 1.1 1.1"/>
        <path fill="#7FC0E6" d="M886.5 585c0-1.2-1-2.2-2.2-2.2s-2.2 1-2.2 2.2"/>
        <path fill="#FFE07F" d="M882 585c0-.6.5-1.1 1.1-1.1s1.1.5 1.1 1.1m0 0c0-.6.5-1.1 1.1-1.1s1.1.5 1.1 1.1"/>
        <path fill="#7FC0E6" d="M882 585c0-1.2-1-2.2-2.2-2.2s-2.2 1-2.2 2.2"/>
        <path fill="#FFE07F" d="M877.5 585c0-.6.5-1.1 1.1-1.1s1.1.5 1.1 1.1m.1 0c0-.6.5-1.1 1.1-1.1s1.1.5 1.1 1.1"/>
        <path fill="#7FC0E6" d="M877.5 585c0-1.2-1-2.2-2.2-2.2s-2.2 1-2.2 2.2"/>
        <path fill="#FFE07F" d="M873 585c0-.6.5-1.1 1.1-1.1s1.1.5 1.1 1.1m0 0c0-.6.5-1.1 1.1-1.1s1.1.5 1.1 1.1"/>
        <path fill="#7FC0E6" d="M873 585c0-1.2-1-2.2-2.2-2.2s-2.2 1-2.2 2.2"/>
        <path fill="#FFE07F" d="M868.5 585c0-.6.5-1.1 1.1-1.1s1.1.5 1.1 1.1m.1 0c0-.6.5-1.1 1.1-1.1s1.1.5 1.1 1.1"/>
        <path fill="#7FC0E6" d="M868.5 585c0-1.2-1-2.2-2.2-2.2s-2.2 1-2.2 2.2"/>
        <path fill="#FFE07F" d="M864 585c0-.6.5-1.1 1.1-1.1s1.1.5 1.1 1.1m0 0c0-.6.5-1.1 1.1-1.1s1.1.5 1.1 1.1"/>
        <path fill="#7FC0E6" d="M864 585c0-1.2-1-2.2-2.2-2.2s-2.2 1-2.2 2.2"/>
        <path fill="#FFE07F" d="M859.5 585c0-.6.5-1.1 1.1-1.1s1.1.5 1.1 1.1m.1 0c0-.6.5-1.1 1.1-1.1s1.1.5 1.1 1.1"/>
        <path fill="#7FC0E6" d="M859.5 585c0-1.2-1-2.2-2.2-2.2s-2.2 1-2.2 2.2"/>
        <path fill="#FFE07F" d="M855 585c0-.6.5-1.1 1.1-1.1s1.1.5 1.1 1.1m0 0c0-.6.5-1.1 1.1-1.1s1.1.5 1.1 1.1"/>
        <path fill="#7FC0E6" d="M855 585c0-1.2-1-2.2-2.2-2.2s-2.2 1-2.2 2.2"/>
        <path fill="#FFE07F" d="M850.5 585c0-.6.5-1.1 1.1-1.1s1.1.5 1.1 1.1m.1 0c0-.6.5-1.1 1.1-1.1s1.1.5 1.1 1.1"/>
        <path fill="#7FC0E6" d="M850.5 585c0-1.2-1-2.2-2.2-2.2s-2.2 1-2.2 2.2"/>
        <path fill="#FFE07F" d="M846 585c0-.6.5-1.1 1.1-1.1s1.1.5 1.1 1.1m0 0c0-.6.5-1.1 1.1-1.1s1.1.5 1.1 1.1"/>
        <path fill="#7FC0E6" d="M846 585c0-1.2-1-2.2-2.2-2.2s-2.2 1-2.2 2.2"/>
        <path fill="#FFE07F" d="M841.5 585c0-.6.5-1.1 1.1-1.1s1.1.5 1.1 1.1m.1 0c0-.6.5-1.1 1.1-1.1s1.1.5 1.1 1.1"/>
        <path fill="#7FC0E6" d="M841.5 585c0-1.2-1-2.2-2.2-2.2s-2.2 1-2.2 2.2"/>
        <path fill="#FFE07F" d="M837 585c0-.6.5-1.1 1.1-1.1s1.1.5 1.1 1.1m0 0c0-.6.5-1.1 1.1-1.1s1.1.5 1.1 1.1"/>
        <path fill="#7FC0E6" d="M837 585c0-1.2-1-2.2-2.2-2.2s-2.2 1-2.2 2.2"/>
        <path fill="#FFE07F" d="M832.5 585c0-.6.5-1.1 1.1-1.1s1.1.5 1.1 1.1m.1 0c0-.6.5-1.1 1.1-1.1s1.1.5 1.1 1.1"/>
        <path fill="#7FC0E6" d="M832.5 585c0-1.2-1-2.2-2.2-2.2s-2.2 1-2.2 2.2"/>
        <path fill="#FFE07F" d="M828 585c0-.6.5-1.1 1.1-1.1s1.1.5 1.1 1.1m0 0c0-.6.5-1.1 1.1-1.1s1.1.5 1.1 1.1"/>
        <path fill="#7FC0E6" d="M828 585c0-1.2-1-2.2-2.2-2.2s-2.2 1-2.2 2.2"/>
        <path fill="#FFE07F" d="M823.5 585c0-.6.5-1.1 1.1-1.1s1.1.5 1.1 1.1m.1 0c0-.6.5-1.1 1.1-1.1s1.1.5 1.1 1.1"/>
        <path fill="#7FC0E6" d="M823.5 585c0-1.2-1-2.2-2.2-2.2s-2.2 1-2.2 2.2"/>
        <path fill="#FFE07F" d="M819 585c0-.6.5-1.1 1.1-1.1s1.1.5 1.1 1.1m0 0c0-.6.5-1.1 1.1-1.1s1.1.5 1.1 1.1"/>
        <path fill="#7FC0E6" d="M819 585c0-1.2-1-2.2-2.2-2.2s-2.2 1-2.2 2.2"/>
        <path fill="#FFE07F" d="M814.5 585c0-.6.5-1.1 1.1-1.1s1.1.5 1.1 1.1m.1 0c0-.6.5-1.1 1.1-1.1s1.1.5 1.1 1.1"/>
        <path fill="#7FC0E6" d="M814.5 585c0-1.2-1-2.2-2.2-2.2s-2.2 1-2.2 2.2"/>
        <path fill="#FFE07F" d="M810 585c0-.6.5-1.1 1.1-1.1s1.1.5 1.1 1.1m0 0c0-.6.5-1.1 1.1-1.1s1.1.5 1.1 1.1"/>
        <path fill="#7FC0E6" d="M810 585c0-1.2-1-2.2-2.2-2.2s-2.2 1-2.2 2.2"/>
        <path fill="#FFE07F" d="M805.5 585c0-.6.5-1.1 1.1-1.1s1.1.5 1.1 1.1m.1 0c0-.6.5-1.1 1.1-1.1s1.1.5 1.1 1.1"/>
        <path fill="#7FC0E6" d="M805.5 585c0-1.2-1-2.2-2.2-2.2s-2.2 1-2.2 2.2"/>
        <path fill="#FFE07F" d="M801 585c0-.6.5-1.1 1.1-1.1s1.1.5 1.1 1.1m0 0c0-.6.5-1.1 1.1-1.1s1.1.5 1.1 1.1"/>
        <path fill="#7FC0E6" d="M801 585c0-1.2-1-2.2-2.2-2.2s-2.2 1-2.2 2.2"/>
        <path fill="#FFE07F" d="M796.5 585c0-.6.5-1.1 1.1-1.1s1.1.5 1.1 1.1m.1 0c0-.6.5-1.1 1.1-1.1s1.1.5 1.1 1.1"/>
        <path fill="#7FC0E6" d="M796.5 585c0-1.2-1-2.2-2.2-2.2s-2.2 1-2.2 2.2"/>
        <path fill="#FFE07F" d="M792 585c0-.6.5-1.1 1.1-1.1s1.1.5 1.1 1.1m0 0c0-.6.5-1.1 1.1-1.1s1.1.5 1.1 1.1"/>
        <path fill="#7FC0E6" d="M792 585c0-1.2-1-2.2-2.2-2.2s-2.2 1-2.2 2.2"/>
        <path fill="#FFE07F" d="M787.5 585c0-.6.5-1.1 1.1-1.1s1.1.5 1.1 1.1m.1 0c0-.6.5-1.1 1.1-1.1s1.1.5 1.1 1.1"/>
        <path fill="#7FC0E6" d="M787.5 585c0-1.2-1-2.2-2.2-2.2s-2.2 1-2.2 2.2"/>
        <path fill="#FFE07F" d="M783 585c0-.6.5-1.1 1.1-1.1s1.1.5 1.1 1.1m0 0c0-.6.5-1.1 1.1-1.1s1.1.5 1.1 1.1"/>
        <path fill="#7FC0E6" d="M783 585c0-1.2-1-2.2-2.2-2.2s-2.2 1-2.2 2.2"/>
        <path fill="#FFE07F" d="M778.5 585c0-.6.5-1.1 1.1-1.1s1.1.5 1.1 1.1m.1 0c0-.6.5-1.1 1.1-1.1s1.1.5 1.1 1.1"/>
        <path fill="#7FC0E6" d="M778.5 585c0-1.2-1-2.2-2.2-2.2s-2.2 1-2.2 2.2"/>
        <path fill="#FFE07F" d="M774 585c0-.6.5-1.1 1.1-1.1s1.1.5 1.1 1.1m0 0c0-.6.5-1.1 1.1-1.1s1.1.5 1.1 1.1"/>
        <path fill="#7FC0E6" d="M774 585c0-1.2-1-2.2-2.2-2.2s-2.2 1-2.2 2.2"/>
        <path fill="#FFE07F" d="M769.5 585c0-.6.5-1.1 1.1-1.1s1.1.5 1.1 1.1m.1 0c0-.6.5-1.1 1.1-1.1s1.1.5 1.1 1.1"/>
        <path fill="#7FC0E6" d="M769.5 585c0-1.2-1-2.2-2.2-2.2s-2.2 1-2.2 2.2"/>
        <path fill="#FFE07F" d="M765 585c0-.6.5-1.1 1.1-1.1s1.1.5 1.1 1.1m0 0c0-.6.5-1.1 1.1-1.1s1.1.5 1.1 1.1"/>
        <path fill="#7FC0E6" d="M765 585c0-1.2-1-2.2-2.2-2.2s-2.2 1-2.2 2.2"/>
        <path fill="#FFE07F" d="M760.5 585c0-.6.5-1.1 1.1-1.1s1.1.5 1.1 1.1m.1 0c0-.6.5-1.1 1.1-1.1s1.1.5 1.1 1.1"/>
        <path fill="#7FC0E6" d="M760.5 585c0-1.2-1-2.2-2.2-2.2s-2.2 1-2.2 2.2"/>
        <path fill="#FFE07F" d="M756 585c0-.6.5-1.1 1.1-1.1s1.1.5 1.1 1.1m0 0c0-.6.5-1.1 1.1-1.1s1.1.5 1.1 1.1"/>
        <path fill="#7FC0E6" d="M756 585c0-1.2-1-2.2-2.2-2.2s-2.2 1-2.2 2.2"/>
        <path fill="#FFE07F" d="M751.5 585c0-.6.5-1.1 1.1-1.1s1.1.5 1.1 1.1m.1 0c0-.6.5-1.1 1.1-1.1s1.1.5 1.1 1.1"/>
        <path fill="#7FC0E6" d="M751.5 585c0-1.2-1-2.2-2.2-2.2s-2.2 1-2.2 2.2"/>
        <path fill="#FFE07F" d="M747 585c0-.6.5-1.1 1.1-1.1s1.1.5 1.1 1.1m0 0c0-.6.5-1.1 1.1-1.1s1.1.5 1.1 1.1"/>
        <path fill="#7FC0E6" d="M747 585c0-1.2-1-2.2-2.2-2.2s-2.2 1-2.2 2.2"/>
        <path fill="#FFE07F" d="M742.5 585c0-.6.5-1.1 1.1-1.1s1.1.5 1.1 1.1m.1 0c0-.6.5-1.1 1.1-1.1s1.1.5 1.1 1.1"/>
        <path fill="#7FC0E6" d="M742.5 585c0-1.2-1-2.2-2.2-2.2s-2.2 1-2.2 2.2"/>
        <path fill="#FFE07F" d="M738 585c0-.6.5-1.1 1.1-1.1s1.1.5 1.1 1.1m0 0c0-.6.5-1.1 1.1-1.1s1.1.5 1.1 1.1"/>
        <path fill="#7FC0E6" d="M738 585c0-1.2-1-2.2-2.2-2.2s-2.2 1-2.2 2.2"/>
        <path fill="#FFE07F" d="M733.5 585c0-.6.5-1.1 1.1-1.1s1.1.5 1.1 1.1m.1 0c0-.6.5-1.1 1.1-1.1s1.1.5 1.1 1.1"/>
        <path fill="#7FC0E6" d="M733.5 585c0-1.2-1-2.2-2.2-2.2s-2.2 1-2.2 2.2"/>
        <path fill="#FFE07F" d="M729 585c0-.6.5-1.1 1.1-1.1s1.1.5 1.1 1.1m0 0c0-.6.5-1.1 1.1-1.1s1.1.5 1.1 1.1"/>
        <path fill="#7FC0E6" d="M729 585c0-1.2-1-2.2-2.2-2.2s-2.2 1-2.2 2.2"/>
        <path fill="#FFE07F" d="M724.5 585c0-.6.5-1.1 1.1-1.1s1.1.5 1.1 1.1m.1 0c0-.6.5-1.1 1.1-1.1s1.1.5 1.1 1.1"/>
        <path fill="#7FC0E6" d="M724.5 585c0-1.2-1-2.2-2.2-2.2s-2.2 1-2.2 2.2"/>
        <path fill="#FFE07F" d="M720 585c0-.6.5-1.1 1.1-1.1s1.1.5 1.1 1.1m0 0c0-.6.5-1.1 1.1-1.1s1.1.5 1.1 1.1"/>
        <path fill="#7FC0E6" d="M720 585c0-1.2-1-2.2-2.2-2.2s-2.2 1-2.2 2.2"/>
        <path fill="#FFE07F" d="M715.5 585c0-.6.5-1.1 1.1-1.1s1.1.5 1.1 1.1m.1 0c0-.6.5-1.1 1.1-1.1s1.1.5 1.1 1.1"/>
        <path fill="#7FC0E6" d="M715.5 585c0-1.2-1-2.2-2.2-2.2s-2.2 1-2.2 2.2"/>
        <path fill="#FFE07F" d="M711 585c0-.6.5-1.1 1.1-1.1s1.1.5 1.1 1.1m0 0c0-.6.5-1.1 1.1-1.1s1.1.5 1.1 1.1"/>
        <path fill="#7FC0E6" d="M711 585c0-1.2-1-2.2-2.2-2.2s-2.2 1-2.2 2.2"/>
        <path fill="#FFE07F" d="M706.5 585c0-.6.5-1.1 1.1-1.1s1.1.5 1.1 1.1m.1 0c0-.6.5-1.1 1.1-1.1s1.1.5 1.1 1.1"/>
        <path fill="#7FC0E6" d="M706.5 585c0-1.2-1-2.2-2.2-2.2s-2.2 1-2.2 2.2"/>
        <path fill="#FFE07F" d="M702 585c0-.6.5-1.1 1.1-1.1s1.1.5 1.1 1.1m0 0c0-.6.5-1.1 1.1-1.1s1.1.5 1.1 1.1"/>
        <path fill="#7FC0E6" d="M702 585c0-1.2-1-2.2-2.2-2.2s-2.2 1-2.2 2.2"/>
        <path fill="#FFE07F" d="M697.5 585c0-.6.5-1.1 1.1-1.1s1.1.5 1.1 1.1m.1 0c0-.6.5-1.1 1.1-1.1s1.1.5 1.1 1.1"/>
        <path fill="#7FC0E6" d="M697.5 585c0-1.2-1-2.2-2.2-2.2s-2.2 1-2.2 2.2"/>
        <path fill="#FFE07F" d="M693 585c0-.6.5-1.1 1.1-1.1s1.1.5 1.1 1.1m0 0c0-.6.5-1.1 1.1-1.1s1.1.5 1.1 1.1"/>
        <path fill="#7FC0E6" d="M693 585c0-1.2-1-2.2-2.2-2.2s-2.2 1-2.2 2.2"/>
        <path fill="#FFE07F" d="M688.5 585c0-.6.5-1.1 1.1-1.1s1.1.5 1.1 1.1m.1 0c0-.6.5-1.1 1.1-1.1s1.1.5 1.1 1.1"/>
        <path fill="#7FC0E6" d="M688.5 585c0-1.2-1-2.2-2.2-2.2s-2.2 1-2.2 2.2"/>
        <path fill="#FFE07F" d="M684 585c0-.6.5-1.1 1.1-1.1s1.1.5 1.1 1.1m0 0c0-.6.5-1.1 1.1-1.1s1.1.5 1.1 1.1"/>
        <path fill="#7FC0E6" d="M684 585c0-1.2-1-2.2-2.2-2.2s-2.2 1-2.2 2.2"/>
        <path fill="#FFE07F" d="M679.5 585c0-.6.5-1.1 1.1-1.1s1.1.5 1.1 1.1m.1 0c0-.6.5-1.1 1.1-1.1s1.1.5 1.1 1.1"/>
        <path fill="#7FC0E6" d="M679.5 585c0-1.2-1-2.2-2.2-2.2s-2.2 1-2.2 2.2"/>
        <path fill="#FFE07F" d="M675 585c0-.6.5-1.1 1.1-1.1s1.1.5 1.1 1.1m0 0c0-.6.5-1.1 1.1-1.1s1.1.5 1.1 1.1"/>
        <path fill="#7FC0E6" d="M675 585c0-1.2-1-2.2-2.2-2.2s-2.2 1-2.2 2.2"/>
        <path fill="#FFE07F" d="M670.5 585c0-.6.5-1.1 1.1-1.1s1.1.5 1.1 1.1m.1 0c0-.6.5-1.1 1.1-1.1s1.1.5 1.1 1.1"/>
        <path fill="#7FC0E6" d="M670.5 585c0-1.2-1-2.2-2.2-2.2s-2.2 1-2.2 2.2"/>
        <path fill="#FFE07F" d="M666 585c0-.6.5-1.1 1.1-1.1s1.1.5 1.1 1.1m0 0c0-.6.5-1.1 1.1-1.1s1.1.5 1.1 1.1"/>
        <path fill="#7FC0E6" d="M666 585c0-1.2-1-2.2-2.2-2.2s-2.2 1-2.2 2.2"/>
        <path fill="#FFE07F" d="M661.5 585c0-.6.5-1.1 1.1-1.1s1.1.5 1.1 1.1m.1 0c0-.6.5-1.1 1.1-1.1s1.1.5 1.1 1.1"/>
        <path fill="#7FC0E6" d="M661.5 585c0-1.2-1-2.2-2.2-2.2s-2.2 1-2.2 2.2"/>
        <path fill="#FFE07F" d="M657 585c0-.6.5-1.1 1.1-1.1s1.1.5 1.1 1.1m0 0c0-.6.5-1.1 1.1-1.1s1.1.5 1.1 1.1"/>
        <path fill="#7FC0E6" d="M657 585c0-1.2-1-2.2-2.2-2.2s-2.2 1-2.2 2.2"/>
        <path fill="#FFE07F" d="M652.5 585c0-.6.5-1.1 1.1-1.1s1.1.5 1.1 1.1m.1 0c0-.6.5-1.1 1.1-1.1s1.1.5 1.1 1.1"/>
        <path fill="#7FC0E6" d="M652.5 585c0-1.2-1-2.2-2.2-2.2s-2.2 1-2.2 2.2"/>
        <path fill="#FFE07F" d="M648 585c0-.6.5-1.1 1.1-1.1s1.1.5 1.1 1.1m0 0c0-.6.5-1.1 1.1-1.1s1.1.5 1.1 1.1"/>
        <path fill="#7FC0E6" d="M648 585c0-1.2-1-2.2-2.2-2.2s-2.2 1-2.2 2.2"/>
        <path fill="#FFE07F" d="M643.5 585c0-.6.5-1.1 1.1-1.1s1.1.5 1.1 1.1m.1 0c0-.6.5-1.1 1.1-1.1s1.1.5 1.1 1.1"/>
        <path fill="#7FC0E6" d="M643.5 585c0-1.2-1-2.2-2.2-2.2s-2.2 1-2.2 2.2"/>
        <path fill="#FFE07F" d="M639 585c0-.6.5-1.1 1.1-1.1s1.1.5 1.1 1.1m0 0c0-.6.5-1.1 1.1-1.1s1.1.5 1.1 1.1"/>
        <path fill="#7FC0E6" d="M639 585c0-1.2-1-2.2-2.2-2.2s-2.2 1-2.2 2.2"/>
        <path fill="#FFE07F" d="M634.5 585c0-.6.5-1.1 1.1-1.1s1.1.5 1.1 1.1m.1 0c0-.6.5-1.1 1.1-1.1s1.1.5 1.1 1.1"/>
        <path fill="#7FC0E6" d="M634.5 585c0-1.2-1-2.2-2.2-2.2s-2.2 1-2.2 2.2"/>
        <path fill="#FFE07F" d="M630 585c0-.6.5-1.1 1.1-1.1s1.1.5 1.1 1.1m0 0c0-.6.5-1.1 1.1-1.1s1.1.5 1.1 1.1"/>
        <path fill="#7FC0E6" d="M630 585c0-1.2-1-2.2-2.2-2.2s-2.2 1-2.2 2.2"/>
        <path fill="#FFE07F" d="M625.5 585c0-.6.5-1.1 1.1-1.1s1.1.5 1.1 1.1m.1 0c0-.6.5-1.1 1.1-1.1s1.1.5 1.1 1.1"/>
        <path fill="#7FC0E6" d="M625.5 585c0-1.2-1-2.2-2.2-2.2s-2.2 1-2.2 2.2"/>
        <path fill="#FFE07F" d="M621 585c0-.6.5-1.1 1.1-1.1s1.1.5 1.1 1.1m0 0c0-.6.5-1.1 1.1-1.1s1.1.5 1.1 1.1"/>
        <path fill="#7FC0E6" d="M621 585c0-1.2-1-2.2-2.2-2.2s-2.2 1-2.2 2.2"/>
        <path fill="#FFE07F" d="M616.5 585c0-.6.5-1.1 1.1-1.1s1.1.5 1.1 1.1m.1 0c0-.6.5-1.1 1.1-1.1s1.1.5 1.1 1.1"/>
        <path fill="#7FC0E6" d="M616.5 585c0-1.2-1-2.2-2.2-2.2s-2.2 1-2.2 2.2"/>
        <path fill="#FFE07F" d="M612 585c0-.6.5-1.1 1.1-1.1s1.1.5 1.1 1.1m0 0c0-.6.5-1.1 1.1-1.1s1.1.5 1.1 1.1"/>
        <path fill="#7FC0E6" d="M612 585c0-1.2-1-2.2-2.2-2.2s-2.2 1-2.2 2.2"/>
        <path fill="#FFE07F" d="M607.5 585c0-.6.5-1.1 1.1-1.1s1.1.5 1.1 1.1m.1 0c0-.6.5-1.1 1.1-1.1s1.1.5 1.1 1.1"/>
        <path fill="#7FC0E6" d="M607.5 585c0-1.2-1-2.2-2.2-2.2s-2.2 1-2.2 2.2"/>
        <path fill="#FFE07F" d="M603 585c0-.6.5-1.1 1.1-1.1s1.1.5 1.1 1.1m0 0c0-.6.5-1.1 1.1-1.1s1.1.5 1.1 1.1"/>
        <path fill="#7FC0E6" d="M603 585c0-1.2-1-2.2-2.2-2.2s-2.2 1-2.2 2.2"/>
        <path fill="#FFE07F" d="M598.5 585c0-.6.5-1.1 1.1-1.1s1.1.5 1.1 1.1m.1 0c0-.6.5-1.1 1.1-1.1s1.1.5 1.1 1.1"/>
        <path fill="#7FC0E6" d="M598.5 585c0-1.2-1-2.2-2.2-2.2s-2.2 1-2.2 2.2"/>
        <path fill="#FFE07F" d="M594 585c0-.6.5-1.1 1.1-1.1s1.1.5 1.1 1.1m0 0c0-.6.5-1.1 1.1-1.1s1.1.5 1.1 1.1"/>
        <path fill="#7FC0E6" d="M594 585c0-1.2-1-2.2-2.2-2.2s-2.2 1-2.2 2.2"/>
        <path fill="#FFE07F" d="M589.5 585c0-.6.5-1.1 1.1-1.1s1.1.5 1.1 1.1m.1 0c0-.6.5-1.1 1.1-1.1s1.1.5 1.1 1.1"/>
        <path fill="#7FC0E6" d="M589.5 585c0-1.2-1-2.2-2.2-2.2s-2.2 1-2.2 2.2"/>
        <path fill="#FFE07F" d="M585 585c0-.6.5-1.1 1.1-1.1s1.1.5 1.1 1.1m0 0c0-.6.5-1.1 1.1-1.1s1.1.5 1.1 1.1"/>
        <path fill="#7FC0E6" d="M585 585c0-1.2-1-2.2-2.2-2.2s-2.2 1-2.2 2.2"/>
        <path fill="#FFE07F" d="M580.5 585c0-.6.5-1.1 1.1-1.1s1.1.5 1.1 1.1m.1 0c0-.6.5-1.1 1.1-1.1s1.1.5 1.1 1.1"/>
        <path fill="#7FC0E6" d="M580.5 585c0-1.2-1-2.2-2.2-2.2s-2.2 1-2.2 2.2"/>
        <path fill="#FFE07F" d="M576 585c0-.6.5-1.1 1.1-1.1s1.1.5 1.1 1.1m0 0c0-.6.5-1.1 1.1-1.1s1.1.5 1.1 1.1"/>
        <path fill="#7FC0E6" d="M576 585c0-1.2-1-2.2-2.2-2.2s-2.2 1-2.2 2.2"/>
        <path fill="#FFE07F" d="M571.5 585c0-.6.5-1.1 1.1-1.1s1.1.5 1.1 1.1m.1 0c0-.6.5-1.1 1.1-1.1s1.1.5 1.1 1.1"/>
        <path fill="#7FC0E6" d="M571.5 585c0-1.2-1-2.2-2.2-2.2s-2.2 1-2.2 2.2"/>
        <path fill="#FFE07F" d="M567 585c0-.6.5-1.1 1.1-1.1s1.1.5 1.1 1.1m0 0c0-.6.5-1.1 1.1-1.1s1.1.5 1.1 1.1"/>
        <path fill="#7FC0E6" d="M567 585c0-1.2-1-2.2-2.2-2.2s-2.2 1-2.2 2.2"/>
        <path fill="#FFE07F" d="M562.5 585c0-.6.5-1.1 1.1-1.1s1.1.5 1.1 1.1m.1 0c0-.6.5-1.1 1.1-1.1s1.1.5 1.1 1.1"/>
        <path fill="#7FC0E6" d="M562.5 585c0-1.2-1-2.2-2.2-2.2s-2.2 1-2.2 2.2"/>
        <path fill="#FFE07F" d="M558 585c0-.6.5-1.1 1.1-1.1s1.1.5 1.1 1.1m0 0c0-.6.5-1.1 1.1-1.1s1.1.5 1.1 1.1"/>
        <path fill="#7FC0E6" d="M558 585c0-1.2-1-2.2-2.2-2.2s-2.2 1-2.2 2.2"/>
        <path fill="#FFE07F" d="M553.5 585c0-.6.5-1.1 1.1-1.1s1.1.5 1.1 1.1m.1 0c0-.6.5-1.1 1.1-1.1s1.1.5 1.1 1.1"/>
        <path fill="#7FC0E6" d="M553.5 585c0-1.2-1-2.2-2.2-2.2s-2.2 1-2.2 2.2"/>
        <path fill="#FFE07F" d="M549 585c0-.6.5-1.1 1.1-1.1s1.1.5 1.1 1.1m0 0c0-.6.5-1.1 1.1-1.1s1.1.5 1.1 1.1"/>
        <path fill="#7FC0E6" d="M549 585c0-1.2-1-2.2-2.2-2.2s-2.2 1-2.2 2.2"/>
        <path fill="#FFE07F" d="M544.5 585c0-.6.5-1.1 1.1-1.1s1.1.5 1.1 1.1m.1 0c0-.6.5-1.1 1.1-1.1s1.1.5 1.1 1.1"/>
        <path fill="#7FC0E6" d="M544.5 585c0-1.2-1-2.2-2.2-2.2s-2.2 1-2.2 2.2"/>
        <path fill="#FFE07F" d="M540 585c0-.6.5-1.1 1.1-1.1s1.1.5 1.1 1.1m0 0c0-.6.5-1.1 1.1-1.1s1.1.5 1.1 1.1"/>
        <path fill="#7FC0E6" d="M540 585c0-1.2-1-2.2-2.2-2.2s-2.2 1-2.2 2.2"/>
        <path fill="#FFE07F" d="M535.5 585c0-.6.5-1.1 1.1-1.1s1.1.5 1.1 1.1m.1 0c0-.6.5-1.1 1.1-1.1s1.1.5 1.1 1.1"/>
        <path fill="#7FC0E6" d="M535.5 585c0-1.2-1-2.2-2.2-2.2s-2.2 1-2.2 2.2"/>
        <path fill="#FFE07F" d="M531 585c0-.6.5-1.1 1.1-1.1s1.1.5 1.1 1.1m0 0c0-.6.5-1.1 1.1-1.1s1.1.5 1.1 1.1"/>
        <path fill="#7FC0E6" d="M531 585c0-1.2-1-2.2-2.2-2.2s-2.2 1-2.2 2.2"/>
        <path fill="#FFE07F" d="M526.5 585c0-.6.5-1.1 1.1-1.1s1.1.5 1.1 1.1m.1 0c0-.6.5-1.1 1.1-1.1s1.1.5 1.1 1.1"/>
        <path fill="#7FC0E6" d="M526.5 585c0-1.2-1-2.2-2.2-2.2s-2.2 1-2.2 2.2"/>
        <path fill="#FFE07F" d="M522 585c0-.6.5-1.1 1.1-1.1s1.1.5 1.1 1.1m0 0c0-.6.5-1.1 1.1-1.1s1.1.5 1.1 1.1"/>
        <path fill="#7FC0E6" d="M522 585c0-1.2-1-2.2-2.2-2.2s-2.2 1-2.2 2.2"/>
        <path fill="#FFE07F" d="M517.5 585c0-.6.5-1.1 1.1-1.1s1.1.5 1.1 1.1m.1 0c0-.6.5-1.1 1.1-1.1s1.1.5 1.1 1.1"/>
        <path fill="#7FC0E6" d="M517.5 585c0-1.2-1-2.2-2.2-2.2s-2.2 1-2.2 2.2"/>
        <path fill="#FFE07F" d="M513 585c0-.6.5-1.1 1.1-1.1s1.1.5 1.1 1.1m0 0c0-.6.5-1.1 1.1-1.1s1.1.5 1.1 1.1"/>
        <path fill="#7FC0E6" d="M513 585c0-1.2-1-2.2-2.2-2.2s-2.2 1-2.2 2.2"/>
        <path fill="#FFE07F" d="M508.5 585c0-.6.5-1.1 1.1-1.1s1.1.5 1.1 1.1m.1 0c0-.6.5-1.1 1.1-1.1.6 0 1.1.5 1.1 1.1"/>
        <path fill="#7FC0E6" d="M508.5 585c0-1.2-1-2.2-2.2-2.2s-2.2 1-2.2 2.2"/>
        <path fill="#FFE07F" d="M504 585c0-.6.5-1.1 1.1-1.1s1.1.5 1.1 1.1"/>
        <path fill="#FFE07F" d="M506.2 585c0-.6.5-1.1 1.1-1.1s1.1.5 1.1 1.1"/>
        <path fill="#7FC0E6" d="M504 585c0-1.2-1-2.2-2.2-2.2s-2.2 1-2.2 2.2"/>
        <path fill="#FFE07F" d="M499.5 585c0-.6.5-1.1 1.1-1.1s1.1.5 1.1 1.1m.1 0c0-.6.5-1.1 1.1-1.1s1.1.5 1.1 1.1"/>
        <path fill="#7FC0E6" d="M499.5 585c0-1.2-1-2.2-2.2-2.2s-2.2 1-2.2 2.2"/>
        <path fill="#FFE07F" d="M495 585c0-.6.5-1.1 1.1-1.1s1.1.5 1.1 1.1"/>
        <path fill="#FFE07F" d="M497.2 585c0-.6.5-1.1 1.1-1.1s1.1.5 1.1 1.1"/>
        <path fill="#7FC0E6" d="M495 585c0-1.2-1-2.2-2.2-2.2s-2.2 1-2.2 2.2"/>
        <path fill="#FFE07F" d="M490.5 585c0-.6.5-1.1 1.1-1.1s1.1.5 1.1 1.1m.1 0c0-.6.5-1.1 1.1-1.1s1.1.5 1.1 1.1"/>
        <path fill="#7FC0E6" d="M490.5 585c0-1.2-1-2.2-2.2-2.2s-2.2 1-2.2 2.2"/>
        <path fill="#FFE07F" d="M486 585c0-.6.5-1.1 1.1-1.1s1.1.5 1.1 1.1"/>
        <path fill="#FFE07F" d="M488.2 585c0-.6.5-1.1 1.1-1.1s1.1.5 1.1 1.1"/>
        <path fill="#7FC0E6" d="M486 585c0-1.2-1-2.2-2.2-2.2s-2.2 1-2.2 2.2"/>
        <path fill="#FFE07F" d="M481.5 585c0-.6.5-1.1 1.1-1.1s1.1.5 1.1 1.1m.1 0c0-.6.5-1.1 1.1-1.1s1.1.5 1.1 1.1"/>
        <path fill="#7FC0E6" d="M481.5 585c0-1.2-1-2.2-2.2-2.2s-2.2 1-2.2 2.2"/>
        <path fill="#FFE07F" d="M477 585c0-.6.5-1.1 1.1-1.1s1.1.5 1.1 1.1"/>
        <path fill="#FFE07F" d="M479.2 585c0-.6.5-1.1 1.1-1.1s1.1.5 1.1 1.1"/>
        <path fill="#7FC0E6" d="M477 585c0-1.2-1-2.2-2.2-2.2s-2.2 1-2.2 2.2"/>
        <path fill="#FFE07F" d="M472.5 585c0-.6.5-1.1 1.1-1.1s1.1.5 1.1 1.1m.1 0c0-.6.5-1.1 1.1-1.1s1.1.5 1.1 1.1"/>
        <path fill="#7FC0E6" d="M472.5 585c0-1.2-1-2.2-2.2-2.2s-2.2 1-2.2 2.2"/>
        <path fill="#FFE07F" d="M468 585c0-.6.5-1.1 1.1-1.1s1.1.5 1.1 1.1"/>
        <path fill="#FFE07F" d="M470.2 585c0-.6.5-1.1 1.1-1.1s1.1.5 1.1 1.1"/>
        <path fill="#7FC0E6" d="M468 585c0-1.2-1-2.2-2.2-2.2s-2.2 1-2.2 2.2"/>
        <path fill="#FFE07F" d="M463.5 585c0-.6.5-1.1 1.1-1.1s1.1.5 1.1 1.1m.1 0c0-.6.5-1.1 1.1-1.1s1.1.5 1.1 1.1"/>
        <path fill="#7FC0E6" d="M463.5 585c0-1.2-1-2.2-2.2-2.2s-2.2 1-2.2 2.2"/>
        <path fill="#FFE07F" d="M459 585c0-.6.5-1.1 1.1-1.1s1.1.5 1.1 1.1"/>
        <path fill="#FFE07F" d="M461.2 585c0-.6.5-1.1 1.1-1.1s1.1.5 1.1 1.1"/>
        <path fill="#7FC0E6" d="M459 585c0-1.2-1-2.2-2.2-2.2s-2.2 1-2.2 2.2"/>
        <path fill="#FFE07F" d="M454.5 585c0-.6.5-1.1 1.1-1.1s1.1.5 1.1 1.1m.1 0c0-.6.5-1.1 1.1-1.1s1.1.5 1.1 1.1"/>
        <path fill="#7FC0E6" d="M454.5 585c0-1.2-1-2.2-2.2-2.2s-2.2 1-2.2 2.2"/>
        <path fill="#FFE07F" d="M450 585c0-.6.5-1.1 1.1-1.1s1.1.5 1.1 1.1"/>
        <path fill="#FFE07F" d="M452.2 585c0-.6.5-1.1 1.1-1.1s1.1.5 1.1 1.1"/>
        <path fill="#7FC0E6" d="M450 585c0-1.2-1-2.2-2.2-2.2s-2.2 1-2.2 2.2"/>
        <path fill="#FFE07F" d="M445.5 585c0-.6.5-1.1 1.1-1.1s1.1.5 1.1 1.1m.1 0c0-.6.5-1.1 1.1-1.1s1.1.5 1.1 1.1"/>
        <path fill="#7FC0E6" d="M445.5 585c0-1.2-1-2.2-2.2-2.2s-2.2 1-2.2 2.2"/>
        <path fill="#FFE07F" d="M441 585c0-.6.5-1.1 1.1-1.1s1.1.5 1.1 1.1"/>
        <path fill="#FFE07F" d="M443.2 585c0-.6.5-1.1 1.1-1.1s1.1.5 1.1 1.1"/>
        <path fill="#7FC0E6" d="M441 585c0-1.2-1-2.2-2.2-2.2s-2.2 1-2.2 2.2"/>
        <path fill="#FFE07F" d="M436.5 585c0-.6.5-1.1 1.1-1.1s1.1.5 1.1 1.1m.1 0c0-.6.5-1.1 1.1-1.1s1.1.5 1.1 1.1"/>
        <path fill="#7FC0E6" d="M436.5 585c0-1.2-1-2.2-2.2-2.2s-2.2 1-2.2 2.2"/>
        <path fill="#FFE07F" d="M432 585c0-.6.5-1.1 1.1-1.1s1.1.5 1.1 1.1"/>
        <path fill="#FFE07F" d="M434.2 585c0-.6.5-1.1 1.1-1.1s1.1.5 1.1 1.1"/>
        <path fill="#7FC0E6" d="M432 585c0-1.2-1-2.2-2.2-2.2s-2.2 1-2.2 2.2"/>
        <path fill="#FFE07F" d="M427.5 585c0-.6.5-1.1 1.1-1.1s1.1.5 1.1 1.1m.1 0c0-.6.5-1.1 1.1-1.1s1.1.5 1.1 1.1"/>
        <path fill="#7FC0E6" d="M427.5 585c0-1.2-1-2.2-2.2-2.2s-2.2 1-2.2 2.2"/>
        <path fill="#FFE07F" d="M423 585c0-.6.5-1.1 1.1-1.1s1.1.5 1.1 1.1"/>
        <path fill="#FFE07F" d="M425.2 585c0-.6.5-1.1 1.1-1.1s1.1.5 1.1 1.1"/>
        <path fill="#7FC0E6" d="M423 585c0-1.2-1-2.2-2.2-2.2s-2.2 1-2.2 2.2"/>
        <path fill="#FFE07F" d="M418.5 585c0-.6.5-1.1 1.1-1.1s1.1.5 1.1 1.1m.1 0c0-.6.5-1.1 1.1-1.1s1.1.5 1.1 1.1"/>
        <path fill="#7FC0E6" d="M418.5 585c0-1.2-1-2.2-2.2-2.2s-2.2 1-2.2 2.2"/>
        <path fill="#FFE07F" d="M414 585c0-.6.5-1.1 1.1-1.1s1.1.5 1.1 1.1"/>
        <path fill="#FFE07F" d="M416.2 585c0-.6.5-1.1 1.1-1.1s1.1.5 1.1 1.1"/>
        <path fill="#7FC0E6" d="M414 585c0-1.2-1-2.2-2.2-2.2s-2.2 1-2.2 2.2"/>
        <path fill="#FFE07F" d="M409.5 585c0-.6.5-1.1 1.1-1.1s1.1.5 1.1 1.1m.1 0c0-.6.5-1.1 1.1-1.1s1.1.5 1.1 1.1"/>
        <path fill="#7FC0E6" d="M409.5 585c0-1.2-1-2.2-2.2-2.2s-2.2 1-2.2 2.2"/>
        <path fill="#FFE07F" d="M405 585c0-.6.5-1.1 1.1-1.1s1.1.5 1.1 1.1"/>
        <path fill="#FFE07F" d="M407.2 585c0-.6.5-1.1 1.1-1.1s1.1.5 1.1 1.1"/>
        <path fill="#7FC0E6" d="M405 585c0-1.2-1-2.2-2.2-2.2s-2.2 1-2.2 2.2"/>
        <path fill="#FFE07F" d="M400.5 585c0-.6.5-1.1 1.1-1.1s1.1.5 1.1 1.1m.1 0c0-.6.5-1.1 1.1-1.1s1.1.5 1.1 1.1"/>
        <path fill="#7FC0E6" d="M400.5 585c0-1.2-1-2.2-2.2-2.2s-2.2 1-2.2 2.2"/>
        <path fill="#FFE07F" d="M396 585c0-.6.5-1.1 1.1-1.1s1.1.5 1.1 1.1"/>
        <path fill="#FFE07F" d="M398.2 585c0-.6.5-1.1 1.1-1.1s1.1.5 1.1 1.1"/>
        <path fill="#7FC0E6" d="M396 585c0-1.2-1-2.2-2.2-2.2s-2.2 1-2.2 2.2"/>
        <path fill="#FFE07F" d="M391.5 585c0-.6.5-1.1 1.1-1.1s1.1.5 1.1 1.1m.1 0c0-.6.5-1.1 1.1-1.1s1.1.5 1.1 1.1"/>
        <path fill="#7FC0E6" d="M391.5 585c0-1.2-1-2.2-2.2-2.2s-2.2 1-2.2 2.2"/>
        <path fill="#FFE07F" d="M387 585c0-.6.5-1.1 1.1-1.1s1.1.5 1.1 1.1"/>
        <path fill="#FFE07F" d="M389.2 585c0-.6.5-1.1 1.1-1.1s1.1.5 1.1 1.1"/>
        <path fill="#7FC0E6" d="M387 585c0-1.2-1-2.2-2.2-2.2s-2.2 1-2.2 2.2"/>
        <path fill="#FFE07F" d="M382.5 585c0-.6.5-1.1 1.1-1.1s1.1.5 1.1 1.1m.1 0c0-.6.5-1.1 1.1-1.1s1.1.5 1.1 1.1"/>
        <path fill="#7FC0E6" d="M382.5 585c0-1.2-1-2.2-2.2-2.2s-2.2 1-2.2 2.2"/>
        <path fill="#FFE07F" d="M378 585c0-.6.5-1.1 1.1-1.1s1.1.5 1.1 1.1"/>
        <path fill="#FFE07F" d="M380.2 585c0-.6.5-1.1 1.1-1.1s1.1.5 1.1 1.1"/>
        <path fill="#7FC0E6" d="M378 585c0-1.2-1-2.2-2.2-2.2s-2.2 1-2.2 2.2"/>
        <path fill="#FFE07F" d="M373.5 585c0-.6.5-1.1 1.1-1.1s1.1.5 1.1 1.1m.1 0c0-.6.5-1.1 1.1-1.1s1.1.5 1.1 1.1"/>
        <path fill="#7FC0E6" d="M373.5 585c0-1.2-1-2.2-2.2-2.2s-2.2 1-2.2 2.2"/>
        <path fill="#FFE07F" d="M369 585c0-.6.5-1.1 1.1-1.1s1.1.5 1.1 1.1"/>
        <path fill="#FFE07F" d="M371.2 585c0-.6.5-1.1 1.1-1.1s1.1.5 1.1 1.1"/>
        <path fill="#7FC0E6" d="M369 585c0-1.2-1-2.2-2.2-2.2s-2.2 1-2.2 2.2"/>
        <path fill="#FFE07F" d="M364.5 585c0-.6.5-1.1 1.1-1.1s1.1.5 1.1 1.1m.1 0c0-.6.5-1.1 1.1-1.1s1.1.5 1.1 1.1"/>
        <path fill="#7FC0E6" d="M364.5 585c0-1.2-1-2.2-2.2-2.2s-2.2 1-2.2 2.2"/>
        <path fill="#FFE07F" d="M360 585c0-.6.5-1.1 1.1-1.1s1.1.5 1.1 1.1"/>
        <path fill="#FFE07F" d="M362.2 585c0-.6.5-1.1 1.1-1.1s1.1.5 1.1 1.1"/>
        <path fill="#7FC0E6" d="M360 585c0-1.2-1-2.2-2.2-2.2s-2.2 1-2.2 2.2"/>
        <path fill="#FFE07F" d="M355.5 585c0-.6.5-1.1 1.1-1.1s1.1.5 1.1 1.1m.1 0c0-.6.5-1.1 1.1-1.1s1.1.5 1.1 1.1"/>
        <path fill="#7FC0E6" d="M355.5 585c0-1.2-1-2.2-2.2-2.2s-2.2 1-2.2 2.2"/>
        <path fill="#FFE07F" d="M351 585c0-.6.5-1.1 1.1-1.1s1.1.5 1.1 1.1"/>
        <path fill="#FFE07F" d="M353.2 585c0-.6.5-1.1 1.1-1.1s1.1.5 1.1 1.1"/>
        <path fill="#7FC0E6" d="M351 585c0-1.2-1-2.2-2.2-2.2s-2.2 1-2.2 2.2"/>
        <path fill="#FFE07F" d="M346.5 585c0-.6.5-1.1 1.1-1.1s1.1.5 1.1 1.1m.1 0c0-.6.5-1.1 1.1-1.1s1.1.5 1.1 1.1"/>
        <path fill="#7FC0E6" d="M346.5 585c0-1.2-1-2.2-2.2-2.2s-2.2 1-2.2 2.2"/>
        <path fill="#FFE07F" d="M342 585c0-.6.5-1.1 1.1-1.1s1.1.5 1.1 1.1"/>
        <path fill="#FFE07F" d="M344.2 585c0-.6.5-1.1 1.1-1.1s1.1.5 1.1 1.1"/>
        <path fill="#7FC0E6" d="M342 585c0-1.2-1-2.2-2.2-2.2s-2.2 1-2.2 2.2"/>
        <path fill="#FFE07F" d="M337.5 585c0-.6.5-1.1 1.1-1.1s1.1.5 1.1 1.1m.1 0c0-.6.5-1.1 1.1-1.1s1.1.5 1.1 1.1"/>
        <path fill="#7FC0E6" d="M337.5 585c0-1.2-1-2.2-2.2-2.2s-2.2 1-2.2 2.2"/>
        <path fill="#FFE07F" d="M333 585c0-.6.5-1.1 1.1-1.1s1.1.5 1.1 1.1"/>
        <path fill="#FFE07F" d="M335.2 585c0-.6.5-1.1 1.1-1.1s1.1.5 1.1 1.1"/>
        <path fill="#7FC0E6" d="M333 585c0-1.2-1-2.2-2.2-2.2s-2.2 1-2.2 2.2"/>
        <path fill="#FFE07F" d="M328.5 585c0-.6.5-1.1 1.1-1.1s1.1.5 1.1 1.1m.1 0c0-.6.5-1.1 1.1-1.1s1.1.5 1.1 1.1"/>
        <path fill="#7FC0E6" d="M328.5 585c0-1.2-1-2.2-2.2-2.2s-2.2 1-2.2 2.2"/>
        <path fill="#FFE07F" d="M324 585c0-.6.5-1.1 1.1-1.1s1.1.5 1.1 1.1"/>
        <path fill="#FFE07F" d="M326.2 585c0-.6.5-1.1 1.1-1.1s1.1.5 1.1 1.1"/>
        <path fill="#7FC0E6" d="M324 585c0-1.2-1-2.2-2.2-2.2s-2.2 1-2.2 2.2"/>
        <path fill="#FFE07F" d="M319.5 585c0-.6.5-1.1 1.1-1.1s1.1.5 1.1 1.1m.1 0c0-.6.5-1.1 1.1-1.1s1.1.5 1.1 1.1"/>
        <path fill="#7FC0E6" d="M319.5 585c0-1.2-1-2.2-2.2-2.2s-2.2 1-2.2 2.2"/>
        <path fill="#FFE07F" d="M315 585c0-.6.5-1.1 1.1-1.1s1.1.5 1.1 1.1"/>
        <path fill="#FFE07F" d="M317.2 585c0-.6.5-1.1 1.1-1.1s1.1.5 1.1 1.1"/>
        <path fill="#7FC0E6" d="M315 585c0-1.2-1-2.2-2.2-2.2s-2.2 1-2.2 2.2"/>
        <path fill="#FFE07F" d="M310.5 585c0-.6.5-1.1 1.1-1.1s1.1.5 1.1 1.1m.1 0c0-.6.5-1.1 1.1-1.1s1.1.5 1.1 1.1"/>
        <path fill="#7FC0E6" d="M310.5 585c0-1.2-1-2.2-2.2-2.2s-2.2 1-2.2 2.2"/>
        <path fill="#FFE07F" d="M306 585c0-.6.5-1.1 1.1-1.1s1.1.5 1.1 1.1"/>
        <path fill="#FFE07F" d="M308.2 585c0-.6.5-1.1 1.1-1.1s1.1.5 1.1 1.1"/>
        <path fill="#7FC0E6" d="M306 585c0-1.2-1-2.2-2.2-2.2s-2.2 1-2.2 2.2"/>
        <path fill="#FFE07F" d="M301.5 585c0-.6.5-1.1 1.1-1.1s1.1.5 1.1 1.1m.1 0c0-.6.5-1.1 1.1-1.1s1.1.5 1.1 1.1"/>
        <path fill="#7FC0E6" d="M301.5 585c0-1.2-1-2.2-2.2-2.2s-2.2 1-2.2 2.2"/>
        <path fill="#FFE07F" d="M297 585c0-.6.5-1.1 1.1-1.1s1.1.5 1.1 1.1"/>
        <path fill="#FFE07F" d="M299.2 585c0-.6.5-1.1 1.1-1.1s1.1.5 1.1 1.1"/>
        <path fill="#7FC0E6" d="M297 585c0-1.2-1-2.2-2.2-2.2s-2.2 1-2.2 2.2"/>
        <path fill="#FFE07F" d="M292.5 585c0-.6.5-1.1 1.1-1.1s1.1.5 1.1 1.1m.1 0c0-.6.5-1.1 1.1-1.1s1.1.5 1.1 1.1"/>
        <path fill="#7FC0E6" d="M292.5 585c0-1.2-1-2.2-2.2-2.2s-2.2 1-2.2 2.2"/>
        <path fill="#FFE07F" d="M288 585c0-.6.5-1.1 1.1-1.1s1.1.5 1.1 1.1"/>
        <path fill="#FFE07F" d="M290.2 585c0-.6.5-1.1 1.1-1.1s1.1.5 1.1 1.1"/>
        <path fill="#7FC0E6" d="M288 585c0-1.2-1-2.2-2.2-2.2s-2.2 1-2.2 2.2"/>
        <path fill="#FFE07F" d="M283.5 585c0-.6.5-1.1 1.1-1.1s1.1.5 1.1 1.1m.1 0c0-.6.5-1.1 1.1-1.1s1.1.5 1.1 1.1"/>
        <path fill="#7FC0E6" d="M283.5 585c0-1.2-1-2.2-2.2-2.2s-2.2 1-2.2 2.2"/>
        <path fill="#FFE07F" d="M279 585c0-.6.5-1.1 1.1-1.1s1.1.5 1.1 1.1"/>
        <path fill="#FFE07F" d="M281.2 585c0-.6.5-1.1 1.1-1.1s1.1.5 1.1 1.1"/>
        <path fill="#7FC0E6" d="M279 585c0-1.2-1-2.2-2.2-2.2s-2.2 1-2.2 2.2"/>
        <path fill="#FFE07F" d="M274.5 585c0-.6.5-1.1 1.1-1.1s1.1.5 1.1 1.1m.1 0c0-.6.5-1.1 1.1-1.1s1.1.5 1.1 1.1"/>
        <path fill="#7FC0E6" d="M274.5 585c0-1.2-1-2.2-2.2-2.2s-2.2 1-2.2 2.2"/>
        <path fill="#FFE07F" d="M270 585c0-.6.5-1.1 1.1-1.1s1.1.5 1.1 1.1"/>
        <path fill="#FFE07F" d="M272.2 585c0-.6.5-1.1 1.1-1.1s1.1.5 1.1 1.1"/>
        <path fill="#7FC0E6" d="M270 585c0-1.2-1-2.2-2.2-2.2s-2.2 1-2.2 2.2"/>
        <path fill="#FFE07F" d="M265.5 585c0-.6.5-1.1 1.1-1.1s1.1.5 1.1 1.1m.1 0c0-.6.5-1.1 1.1-1.1s1.1.5 1.1 1.1"/>
        <path fill="#7FC0E6" d="M265.5 585c0-1.2-1-2.2-2.2-2.2s-2.2 1-2.2 2.2"/>
        <path fill="#FFE07F" d="M261 585c0-.6.5-1.1 1.1-1.1s1.1.5 1.1 1.1"/>
        <path fill="#FFE07F" d="M263.2 585c0-.6.5-1.1 1.1-1.1s1.1.5 1.1 1.1"/>
        <path fill="#7FC0E6" d="M261 585c0-1.2-1-2.2-2.2-2.2s-2.2 1-2.2 2.2"/>
        <path fill="#FFE07F" d="M256.5 585c0-.6.5-1.1 1.1-1.1s1.1.5 1.1 1.1m.1 0c0-.6.5-1.1 1.1-1.1s1.1.5 1.1 1.1"/>
        <path fill="#7FC0E6" d="M256.5 585c0-1.2-1-2.2-2.2-2.2s-2.2 1-2.2 2.2"/>
        <path fill="#FFE07F" d="M252 585c0-.6.5-1.1 1.1-1.1s1.1.5 1.1 1.1m0 0c0-.6.5-1.1 1.1-1.1s1.1.5 1.1 1.1"/>
        <path fill="#7FC0E6" d="M252 585c0-1.2-1-2.2-2.2-2.2s-2.2 1-2.2 2.2"/>
        <path fill="#FFE07F" d="M247.5 585c0-.6.5-1.1 1.1-1.1s1.1.5 1.1 1.1m.1 0c0-.6.5-1.1 1.1-1.1s1.1.5 1.1 1.1"/>
        <path fill="#7FC0E6" d="M247.5 585c0-1.2-1-2.2-2.2-2.2s-2.2 1-2.2 2.2"/>
        <path fill="#FFE07F" d="M243 585c0-.6.5-1.1 1.1-1.1s1.1.5 1.1 1.1m0 0c0-.6.5-1.1 1.1-1.1s1.1.5 1.1 1.1"/>
        <path fill="#7FC0E6" d="M243 585c0-1.2-1-2.2-2.2-2.2s-2.2 1-2.2 2.2"/>
        <path fill="#FFE07F" d="M238.5 585c0-.6.5-1.1 1.1-1.1s1.1.5 1.1 1.1m.1 0c0-.6.5-1.1 1.1-1.1s1.1.5 1.1 1.1"/>
        <path fill="#7FC0E6" d="M238.5 585c0-1.2-1-2.2-2.2-2.2s-2.2 1-2.2 2.2"/>
        <path fill="#FFE07F" d="M234 585c0-.6.5-1.1 1.1-1.1s1.1.5 1.1 1.1m0 0c0-.6.5-1.1 1.1-1.1s1.1.5 1.1 1.1"/>
        <path fill="#7FC0E6" d="M234 585c0-1.2-1-2.2-2.2-2.2s-2.2 1-2.2 2.2"/>
        <path fill="#FFE07F" d="M229.5 585c0-.6.5-1.1 1.1-1.1s1.1.5 1.1 1.1m.1 0c0-.6.5-1.1 1.1-1.1s1.1.5 1.1 1.1"/>
        <path fill="#7FC0E6" d="M229.5 585c0-1.2-1-2.2-2.2-2.2s-2.2 1-2.2 2.2"/>
        <path fill="#FFE07F" d="M225 585c0-.6.5-1.1 1.1-1.1s1.1.5 1.1 1.1m0 0c0-.6.5-1.1 1.1-1.1s1.1.5 1.1 1.1"/>
        <path fill="#7FC0E6" d="M225 585c0-1.2-1-2.2-2.2-2.2s-2.2 1-2.2 2.2"/>
        <path fill="#FFE07F" d="M220.5 585c0-.6.5-1.1 1.1-1.1s1.1.5 1.1 1.1m.1 0c0-.6.5-1.1 1.1-1.1s1.1.5 1.1 1.1"/>
        <path fill="#7FC0E6" d="M220.5 585c0-1.2-1-2.2-2.2-2.2s-2.2 1-2.2 2.2"/>
        <path fill="#FFE07F" d="M216 585c0-.6.5-1.1 1.1-1.1s1.1.5 1.1 1.1m0 0c0-.6.5-1.1 1.1-1.1s1.1.5 1.1 1.1"/>
        <path fill="#7FC0E6" d="M216 585c0-1.2-1-2.2-2.2-2.2s-2.2 1-2.2 2.2"/>
        <path fill="#FFE07F" d="M211.5 585c0-.6.5-1.1 1.1-1.1s1.1.5 1.1 1.1m.1 0c0-.6.5-1.1 1.1-1.1s1.1.5 1.1 1.1"/>
        <path fill="#7FC0E6" d="M211.5 585c0-1.2-1-2.2-2.2-2.2s-2.2 1-2.2 2.2"/>
        <path fill="#FFE07F" d="M207 585c0-.6.5-1.1 1.1-1.1s1.1.5 1.1 1.1m0 0c0-.6.5-1.1 1.1-1.1s1.1.5 1.1 1.1"/>
        <path fill="#7FC0E6" d="M207 585c0-1.2-1-2.2-2.2-2.2s-2.2 1-2.2 2.2"/>
        <path fill="#FFE07F" d="M202.5 585c0-.6.5-1.1 1.1-1.1s1.1.5 1.1 1.1m.1 0c0-.6.5-1.1 1.1-1.1s1.1.5 1.1 1.1"/>
        <path fill="#7FC0E6" d="M202.5 585c0-1.2-1-2.2-2.2-2.2s-2.2 1-2.2 2.2"/>
        <path fill="#FFE07F" d="M198 585c0-.6.5-1.1 1.1-1.1s1.1.5 1.1 1.1m0 0c0-.6.5-1.1 1.1-1.1s1.1.5 1.1 1.1"/>
        <path fill="#7FC0E6" d="M198 585c0-1.2-1-2.2-2.2-2.2s-2.2 1-2.2 2.2"/>
        <path fill="#FFE07F" d="M193.5 585c0-.6.5-1.1 1.1-1.1s1.1.5 1.1 1.1m.1 0c0-.6.5-1.1 1.1-1.1s1.1.5 1.1 1.1"/>
        <path fill="#7FC0E6" d="M193.5 585c0-1.2-1-2.2-2.2-2.2s-2.2 1-2.2 2.2"/>
        <path fill="#FFE07F" d="M189 585c0-.6.5-1.1 1.1-1.1s1.1.5 1.1 1.1m0 0c0-.6.5-1.1 1.1-1.1s1.1.5 1.1 1.1"/>
        <path fill="#7FC0E6" d="M189 585c0-1.2-1-2.2-2.2-2.2s-2.2 1-2.2 2.2"/>
        <path fill="#FFE07F" d="M184.5 585c0-.6.5-1.1 1.1-1.1s1.1.5 1.1 1.1m.1 0c0-.6.5-1.1 1.1-1.1s1.1.5 1.1 1.1"/>
        <path fill="#7FC0E6" d="M184.5 585c0-1.2-1-2.2-2.2-2.2s-2.2 1-2.2 2.2"/>
        <path fill="#FFE07F" d="M180 585c0-.6.5-1.1 1.1-1.1s1.1.5 1.1 1.1m0 0c0-.6.5-1.1 1.1-1.1s1.1.5 1.1 1.1"/>
        <path fill="#7FC0E6" d="M180 585c0-1.2-1-2.2-2.2-2.2s-2.2 1-2.2 2.2"/>
        <path fill="#FFE07F" d="M175.5 585c0-.6.5-1.1 1.1-1.1s1.1.5 1.1 1.1m.1 0c0-.6.5-1.1 1.1-1.1s1.1.5 1.1 1.1"/>
        <path fill="#7FC0E6" d="M175.5 585c0-1.2-1-2.2-2.2-2.2s-2.2 1-2.2 2.2"/>
        <path fill="#FFE07F" d="M171 585c0-.6.5-1.1 1.1-1.1s1.1.5 1.1 1.1m0 0c0-.6.5-1.1 1.1-1.1s1.1.5 1.1 1.1"/>
        <path fill="#7FC0E6" d="M171 585c0-1.2-1-2.2-2.2-2.2s-2.2 1-2.2 2.2"/>
        <path fill="#FFE07F" d="M166.5 585c0-.6.5-1.1 1.1-1.1s1.1.5 1.1 1.1m.1 0c0-.6.5-1.1 1.1-1.1s1.1.5 1.1 1.1"/>
        <path fill="#7FC0E6" d="M166.5 585c0-1.2-1-2.2-2.2-2.2s-2.2 1-2.2 2.2"/>
        <path fill="#FFE07F" d="M162 585c0-.6.5-1.1 1.1-1.1s1.1.5 1.1 1.1m0 0c0-.6.5-1.1 1.1-1.1s1.1.5 1.1 1.1"/>
        <path fill="#7FC0E6" d="M162 585c0-1.2-1-2.2-2.2-2.2s-2.2 1-2.2 2.2"/>
        <path fill="#FFE07F" d="M157.5 585c0-.6.5-1.1 1.1-1.1s1.1.5 1.1 1.1m.1 0c0-.6.5-1.1 1.1-1.1s1.1.5 1.1 1.1"/>
        <path fill="#7FC0E6" d="M157.5 585c0-1.2-1-2.2-2.2-2.2s-2.2 1-2.2 2.2"/>
        <path fill="#FFE07F" d="M153 585c0-.6.5-1.1 1.1-1.1s1.1.5 1.1 1.1m0 0c0-.6.5-1.1 1.1-1.1s1.1.5 1.1 1.1"/>
        <path fill="#7FC0E6" d="M153 585c0-1.2-1-2.2-2.2-2.2s-2.2 1-2.2 2.2"/>
        <path fill="#FFE07F" d="M148.5 585c0-.6.5-1.1 1.1-1.1s1.1.5 1.1 1.1m.1 0c0-.6.5-1.1 1.1-1.1s1.1.5 1.1 1.1"/>
        <path fill="#7FC0E6" d="M148.5 585c0-1.2-1-2.2-2.2-2.2s-2.2 1-2.2 2.2"/>
        <path fill="#FFE07F" d="M144 585c0-.6.5-1.1 1.1-1.1s1.1.5 1.1 1.1m0 0c0-.6.5-1.1 1.1-1.1s1.1.5 1.1 1.1"/>
        <path fill="#7FC0E6" d="M144 585c0-1.2-1-2.2-2.2-2.2s-2.2 1-2.2 2.2"/>
        <path fill="#FFE07F" d="M139.5 585c0-.6.5-1.1 1.1-1.1s1.1.5 1.1 1.1m.1 0c0-.6.5-1.1 1.1-1.1s1.1.5 1.1 1.1"/>
        <path fill="#7FC0E6" d="M139.5 585c0-1.2-1-2.2-2.2-2.2s-2.2 1-2.2 2.2"/>
        <path fill="#FFE07F" d="M135 585c0-.6.5-1.1 1.1-1.1s1.1.5 1.1 1.1m0 0c0-.6.5-1.1 1.1-1.1s1.1.5 1.1 1.1"/>
        <path fill="#7FC0E6" d="M135 585c0-1.2-1-2.2-2.2-2.2s-2.2 1-2.2 2.2"/>
        <path fill="#FFE07F" d="M130.5 585c0-.6.5-1.1 1.1-1.1s1.1.5 1.1 1.1m.1 0c0-.6.5-1.1 1.1-1.1s1.1.5 1.1 1.1"/>
        <path fill="#7FC0E6" d="M130.5 585c0-1.2-1-2.2-2.2-2.2-1.2 0-2.2 1-2.2 2.2"/>
        <path fill="#FFE07F" d="M126 585c0-.6.5-1.1 1.1-1.1s1.1.5 1.1 1.1m0 0c0-.6.5-1.1 1.1-1.1s1.1.5 1.1 1.1"/>
        <path fill="#7FC0E6" d="M126 585c0-1.2-1-2.2-2.2-2.2s-2.2 1-2.2 2.2"/>
        <path fill="#FFE07F" d="M121.5 585c0-.6.5-1.1 1.1-1.1s1.1.5 1.1 1.1m.1 0c0-.6.5-1.1 1.1-1.1s1.1.5 1.1 1.1"/>
        <path fill="#7FC0E6" d="M121.5 585c0-1.2-1-2.2-2.2-2.2s-2.2 1-2.2 2.2"/>
        <path fill="#FFE07F" d="M117 585c0-.6.5-1.1 1.1-1.1s1.1.5 1.1 1.1m0 0c0-.6.5-1.1 1.1-1.1s1.1.5 1.1 1.1"/>
        <path fill="#7FC0E6" d="M117 585c0-1.2-1-2.2-2.2-2.2s-2.2 1-2.2 2.2"/>
        <path fill="#FFE07F" d="M112.5 585c0-.6.5-1.1 1.1-1.1s1.1.5 1.1 1.1m.1 0c0-.6.5-1.1 1.1-1.1s1.1.5 1.1 1.1"/>
        <path fill="#7FC0E6" d="M112.5 585c0-1.2-1-2.2-2.2-2.2s-2.2 1-2.2 2.2"/>
        <path fill="#FFE07F" d="M108 585c0-.6.5-1.1 1.1-1.1s1.1.5 1.1 1.1m0 0c0-.6.5-1.1 1.1-1.1s1.1.5 1.1 1.1"/>
        <path fill="#7FC0E6" d="M108 585c0-1.2-1-2.2-2.2-2.2s-2.2 1-2.2 2.2"/>
        <path fill="#FFE07F" d="M103.5 585c0-.6.5-1.1 1.1-1.1s1.1.5 1.1 1.1m.1 0c0-.6.5-1.1 1.1-1.1s1.1.5 1.1 1.1"/>
        <path fill="#7FC0E6" d="M103.5 585c0-1.2-1-2.2-2.2-2.2s-2.2 1-2.2 2.2"/>
        <path fill="#FFE07F" d="M99 585c0-.6.5-1.1 1.1-1.1s1.1.5 1.1 1.1m0 0c0-.6.5-1.1 1.1-1.1s1.1.5 1.1 1.1"/>
        <path fill="#7FC0E6" d="M99 585c0-1.2-1-2.2-2.2-2.2s-2.2 1-2.2 2.2"/>
        <path fill="#FFE07F" d="M94.5 585c0-.6.5-1.1 1.1-1.1s1.1.5 1.1 1.1m.1 0c0-.6.5-1.1 1.1-1.1s1.1.5 1.1 1.1"/>
        <path fill="#7FC0E6" d="M94.5 585c0-1.2-1-2.2-2.2-2.2s-2.2 1-2.2 2.2"/>
        <path fill="#FFE07F" d="M90 585c0-.6.5-1.1 1.1-1.1s1.1.5 1.1 1.1m0 0c0-.6.5-1.1 1.1-1.1s1.1.5 1.1 1.1"/>
        <path fill="#7FC0E6" d="M90 585c0-1.2-1-2.2-2.2-2.2s-2.2 1-2.2 2.2"/>
        <path fill="#FFE07F" d="M85.5 585c0-.6.5-1.1 1.1-1.1s1.1.5 1.1 1.1m.1 0c0-.6.5-1.1 1.1-1.1s1.1.5 1.1 1.1"/>
        <path fill="#7FC0E6" d="M85.5 585c0-1.2-1-2.2-2.2-2.2s-2.2 1-2.2 2.2"/>
        <path fill="#FFE07F" d="M81 585c0-.6.5-1.1 1.1-1.1s1.1.5 1.1 1.1m0 0c0-.6.5-1.1 1.1-1.1s1.1.5 1.1 1.1"/>
        <path fill="#7FC0E6" d="M81 585c0-1.2-1-2.2-2.2-2.2s-2.2 1-2.2 2.2"/>
        <path fill="#FFE07F" d="M76.5 585c0-.6.5-1.1 1.1-1.1s1.1.5 1.1 1.1m.1 0c0-.6.5-1.1 1.1-1.1s1.1.5 1.1 1.1"/>
        <path fill="#7FC0E6" d="M76.5 585c0-1.2-1-2.2-2.2-2.2s-2.2 1-2.2 2.2"/>
        <path fill="#FFE07F" d="M72 585c0-.6.5-1.1 1.1-1.1s1.1.5 1.1 1.1m0 0c0-.6.5-1.1 1.1-1.1s1.1.5 1.1 1.1"/>
        <path fill="#7FC0E6" d="M72 585c0-1.2-1-2.2-2.2-2.2s-2.2 1-2.2 2.2"/>
        <path fill="#FFE07F" d="M67.5 585c0-.6.5-1.1 1.1-1.1s1.1.5 1.1 1.1m.1 0c0-.6.5-1.1 1.1-1.1s1.1.5 1.1 1.1"/>
        <path fill="#7FC0E6" d="M67.5 585c0-1.2-1-2.2-2.2-2.2s-2.2 1-2.2 2.2"/>
        <path fill="#FFE07F" d="M63 585c0-.6.5-1.1 1.1-1.1.6 0 1.1.5 1.1 1.1m0 0c0-.6.5-1.1 1.1-1.1s1.1.5 1.1 1.1"/>
        <path fill="#7FC0E6" d="M63 585c0-1.2-1-2.2-2.2-2.2s-2.2 1-2.2 2.2"/>
        <path fill="#FFE07F" d="M58.5 585c0-.6.5-1.1 1.1-1.1s1.1.5 1.1 1.1m.1 0c0-.6.5-1.1 1.1-1.1s1.1.5 1.1 1.1"/>
        <path fill="#7FC0E6" d="M58.5 585c0-1.2-1-2.2-2.2-2.2s-2.2 1-2.2 2.2"/>
        <path fill="#FFE07F" d="M54 585c0-.6.5-1.1 1.1-1.1s1.1.5 1.1 1.1m0 0c0-.6.5-1.1 1.1-1.1s1.1.5 1.1 1.1"/>
        <path fill="#7FC0E6" d="M54 585c0-1.2-1-2.2-2.2-2.2s-2.2 1-2.2 2.2"/>
        <path fill="#FFE07F" d="M49.5 585c0-.6.5-1.1 1.1-1.1s1.1.5 1.1 1.1m.1 0c0-.6.5-1.1 1.1-1.1s1.1.5 1.1 1.1"/>
        <path fill="#7FC0E6" d="M49.5 585c0-1.2-1-2.2-2.2-2.2s-2.2 1-2.2 2.2"/>
        <path fill="#FFE07F" d="M45 585c0-.6.5-1.1 1.1-1.1s1.1.5 1.1 1.1m0 0c0-.6.5-1.1 1.1-1.1s1.1.5 1.1 1.1"/>
        <path fill="#7FC0E6" d="M45 585c0-1.2-1-2.2-2.2-2.2s-2.2 1-2.2 2.2"/>
        <path fill="#FFE07F" d="M40.5 585c0-.6.5-1.1 1.1-1.1s1.1.5 1.1 1.1m.1 0c0-.6.5-1.1 1.1-1.1s1.1.5 1.1 1.1"/>
        <path fill="#7FC0E6" d="M40.5 585c0-1.2-1-2.2-2.2-2.2s-2.2 1-2.2 2.2"/>
        <path fill="#FFE07F" d="M36 585c0-.6.5-1.1 1.1-1.1s1.1.5 1.1 1.1m0 0c0-.6.5-1.1 1.1-1.1s1.1.5 1.1 1.1"/>
        <path fill="#7FC0E6" d="M36 585c0-1.2-1-2.2-2.2-2.2s-2.2 1-2.2 2.2"/>
        <path fill="#FFE07F" d="M31.5 585c0-.6.5-1.1 1.1-1.1s1.1.5 1.1 1.1m.1 0c0-.6.5-1.1 1.1-1.1s1.1.5 1.1 1.1"/>
        <path fill="#7FC0E6" d="M31.5 585c0-1.2-1-2.2-2.2-2.2s-2.2 1-2.2 2.2"/>
        <path fill="#FFE07F" d="M27 585c0-.6.5-1.1 1.1-1.1s1.1.5 1.1 1.1"/>
        <path fill="#FFE07F" d="M29.2 585c0-.6.5-1.1 1.1-1.1s1.1.5 1.1 1.1"/>
        <path fill="#7FC0E6" d="M27 585c0-1.2-1-2.2-2.2-2.2s-2.2 1-2.2 2.2"/>
        <path fill="#FFE07F" d="M22.5 585c0-.6.5-1.1 1.1-1.1s1.1.5 1.1 1.1m.1 0c0-.6.5-1.1 1.1-1.1s1.1.5 1.1 1.1"/>
        <path fill="#7FC0E6" d="M22.5 585c0-1.2-1-2.2-2.2-2.2s-2.2 1-2.2 2.2"/>
        <path fill="#FFE07F" d="M18 585c0-.6.5-1.1 1.1-1.1s1.1.5 1.1 1.1"/>
        <path fill="#FFE07F" d="M20.2 585c0-.6.5-1.1 1.1-1.1s1.1.5 1.1 1.1"/>
        <path fill="#7FC0E6" d="M18 585c0-1.2-1-2.2-2.2-2.2s-2.2 1-2.2 2.2"/>
        <path fill="#FFE07F" d="M13.5 585c0-.6.5-1.1 1.1-1.1s1.1.5 1.1 1.1m.1 0c0-.6.5-1.1 1.1-1.1s1.1.5 1.1 1.1"/>
        <path fill="#7FC0E6" d="M13.5 585c0-1.2-1-2.2-2.2-2.2S9 583.8 9 585"/>
        <path fill="#FFE07F" d="M9 585c0-.6.5-1.1 1.1-1.1s1.1.5 1.1 1.1m0 0c0-.6.5-1.1 1.1-1.1s1.1.5 1.1 1.1"/>
    </g>
</svg>
