<?xml version="1.0" encoding="utf-8"?>
<!DOCTYPE svg PUBLIC "-//W3C//DTD SVG 1.1//EN" "http://www.w3.org/Graphics/SVG/1.1/DTD/svg11.dtd">
<svg  version="1.1" id="Layer_1" xmlns="http://www.w3.org/2000/svg" xmlns:xlink="http://www.w3.org/1999/xlink" width="326.977" height="268.27"
	 viewBox="0 0 326.977 268.27" overflow="visible" enable-background="new 0 0 326.977 268.27" xml:space="preserve">
<polygon fill="#00FF00" points="120.465,89.425 103.255,59.619 120.464,29.812 154.882,29.811 172.092,59.617 154.884,89.425 "/>
<polygon fill="#888888" points="120.465,149.04 103.256,119.233 120.465,89.425 154.883,89.424 172.093,119.231 154.885,149.039 "/>
<polygon fill="#00FFFF" points="120.466,208.653 103.256,178.847 120.465,149.04 154.883,149.039 172.093,178.845 154.885,208.653
	"/>
<polygon fill="#0000FF" points="120.466,268.268 103.257,238.461 120.466,208.653 154.884,208.652 172.094,238.459 154.886,268.267
	"/>
<polygon fill="#FF00FF" points="172.092,59.617 154.882,29.811 172.091,0.003 206.51,0.002 223.719,29.809 206.511,59.617 "/>
<polygon fill="#FF0000" points="172.092,119.231 154.883,89.424 172.092,59.617 206.51,59.616 223.72,89.423 206.512,119.23 "/>
<polygon fill="#FFFF00" points="172.093,178.845 154.883,149.039 172.092,119.231 206.511,119.23 223.72,149.037 206.512,178.845
	"/>
<polygon fill="#00FF00" points="172.093,238.459 154.884,208.652 172.093,178.845 206.511,178.844 223.721,208.651 206.513,238.458
	"/>
<polygon fill="#00FFFF" points="223.72,89.423 206.511,59.617 223.72,29.81 258.138,29.808 275.348,59.615 258.14,89.423 "/>
<polygon fill="#0000FF" points="223.721,149.038 206.512,119.23 223.72,89.423 258.139,89.422 275.349,119.229 258.14,149.037 "/>
<polygon fill="#FF00FF" points="223.721,208.651 206.512,178.845 223.721,149.038 258.139,149.036 275.349,178.843 258.141,208.651
	"/>
<polygon fill="#FF0000" points="223.722,268.266 206.513,238.458 223.721,208.651 258.14,208.65 275.35,238.457 258.141,268.265 "/>
<polygon fill="#FFFF00" points="275.347,59.615 258.138,29.808 275.347,0.001 309.765,0 326.975,29.807 309.767,59.614 "/>
<polygon fill="#00FF00" points="275.348,119.229 258.139,89.422 275.347,59.615 309.766,59.614 326.976,89.421 309.767,119.229 "/>
<polygon fill="#888888" points="275.349,178.843 258.139,149.036 275.348,119.229 309.766,119.228 326.976,149.035 309.768,178.843
	"/>
<polygon fill="#00FFFF" points="275.349,238.457 258.14,208.65 275.349,178.843 309.767,178.842 326.977,208.649 309.769,238.457
	"/>
<polygon fill="#00FFFF" points="68.836,59.62 51.627,29.813 68.836,0.006 103.254,0.005 120.464,29.812 103.256,59.619 "/>
<polygon fill="#0000FF" points="68.837,119.234 51.628,89.427 68.836,59.62 103.255,59.619 120.465,89.425 103.256,119.233 "/>
<polygon fill="#FF00FF" points="68.837,178.848 51.628,149.041 68.837,119.234 103.255,119.233 120.465,149.04 103.257,178.847 "/>
<polygon fill="#FF0000" points="68.838,238.462 51.629,208.655 68.837,178.848 103.256,178.847 120.466,208.653 103.257,238.461 "/>
<polygon fill="#FF0000" points="17.209,89.428 0,59.622 17.208,29.814 51.627,29.813 68.836,59.62 51.628,89.428 "/>
<polygon fill="#FFFF00" points="17.209,149.042 0,119.235 17.209,89.428 51.627,89.427 68.837,119.234 51.629,149.042 "/>
<polygon fill="#00FF00" points="17.21,208.656 0.001,178.85 17.209,149.042 51.628,149.041 68.837,178.848 51.629,208.656 "/>
<polygon fill="#888888" points="17.21,268.27 0.001,238.463 17.21,208.656 51.628,208.655 68.838,238.462 51.63,268.27 "/>
<g>
	<line fill="none" stroke="#000000" stroke-width="2" x1="78.305" y1="78.864" x2="82.838" y2="152.513"/>
	<line fill="none" stroke="#000000" stroke-width="2" x1="144.354" y1="111.762" x2="148.887" y2="185.411"/>
	<line fill="none" stroke="#000000" stroke-width="2" x1="78.305" y1="78.864" x2="144.354" y2="111.762"/>
	<polyline fill="none" stroke="#000000" stroke-width="2" points="82.838,152.513 148.887,185.411 196.566,127.325 123.446,137.233
			"/>
	<line fill="none" stroke="#000000" stroke-width="2" x1="82.838" y1="152.513" x2="144.354" y2="111.762"/>
	<line fill="none" stroke="#000000" stroke-width="2" x1="78.305" y1="78.864" x2="123.446" y2="137.233"/>
	<line fill="none" stroke="#000000" stroke-width="2" x1="151.425" y1="68.955" x2="196.566" y2="127.324"/>
	<line fill="none" stroke="#000000" stroke-width="2" x1="78.305" y1="78.864" x2="151.425" y2="68.955"/>
	<line fill="none" stroke="#000000" stroke-width="2" x1="123.446" y1="137.233" x2="151.425" y2="68.955"/>
</g>
</svg>
