<svg xmlns="http://www.w3.org/2000/svg" width="396" height="612"><path fill="#FEC200" d="M9 9h27v567h324V9h27v594H9z"/><path fill="#7FC8A2" d="M306 117h27v27h-27v-27zm0 54h27v27h-27v-27zm0 54h27v27h-27v-27zm-27 81h27v27h-27v-27zm-27 54h27v27h-27v-27zm-27-54h27v27h-27v-27zm0-81h27v27h-27v-27zm0-54h27v27h-27v-27z"/><g fill="#7FC0E6"><path d="M225 117v27h-27v270h27v27h-54V117h54z"/><path d="M279 63v27H144v378h135v27H117V63h162z"/><path d="M333 9v27H90v486h243v27H63V9h270z"/></g><g fill="none" stroke="#000"><path d="M225 144v-27h-54v324h54v-27h-27V144h27zm0 0v270m0-243h27v27h-27m0 27h27v27h-27M9 279h378m-162 27h27v27h-27"/><path d="M198 117v27h-27m0 27h27m-27 27h27m-27 27h27m-27 27h27m-27 54h27m-27 27h27m-27 27h27m-27 27h27m-27 27h27v27"/><path d="M144 90h135v378H144V90z"/><path d="M279 468v27H117V63h162v27m-27 378v27m-27-27v27m-27-27v27m-27-27v27"/><path d="M144 495v-27h-27m27-27h-27m27-27h-27m0-27h27m0-27h-27m0-27h27m0-27h-27m0-54h27m0-27h-27m0-27h27m0-27h-27m0-27h27m0-27h-27m-54 81h27m0-27H63m0 81h27m0-27H63m0 270h27m0-27H63m0-324h27m0-27H63m0-27h27m0-27H63m0 378h27m0-27H63m0-27h27m0-27H63m0-27h27m0-27H63m54-216h27V63m27 27V63m27 27V63m27 27V63m27 27V63m27 270h27v-27h-27m0 54h-27v27h27"/><path d="M333 522H90V36h243"/><path d="M63 9h270v540H63V9z"/><path d="M333 117h-27v27h27m0 27h-27v27h27m0 27h-27v27h27M63 36h27V9m27 0v27m27-27v27m27-27v27m27-27v27m27-27v27m27-27v27m27-27v27m27-27v27M117 522v27m27-27v27m27-27v27m27-27v27m27-27v27m27-27v27m27-27v27m27-27v27m-216 0v-27H63"/><path d="M36 9H9v594h378V9h-27v567H36V9zM9 36h27M9 63h27M9 90h27M9 117h27M9 144h27M9 171h27M9 306h27M9 333h27M9 360h27M9 198h27M9 225h27M9 252h27M9 387h27M9 414h27M9 441h27M9 468h27M9 495h27M9 522h27M360 36h27m-27 27h27m-27 27h27m-27 27h27m-27 27h27m-27 27h27m-27 135h27m-27 27h27m-27 27h27m-27-162h27m-27 27h27m-27 27h27m-27 135h27m-27 27h27m-27 27h27m-27 27h27m-27 27h27m-27 27h27M9 549h27m324 0h27"/><path d="M9 576h27v27m27-27v27m27-27v27m27-27v27m27-27v27m27-27v27m27-27v27m27-27v27m27-27v27m27-27v27m27-27v27m27-27v27m27 0v-27h27"/><g fill="#BC1E46"><circle cx="225" cy="279" r="6"/><circle cx="225" cy="252" r="6"/><circle cx="252" cy="252" r="6"/><circle cx="252" cy="225" r="6"/><circle cx="225" cy="225" r="6"/><circle cx="225" cy="198" r="6"/><circle cx="252" cy="198" r="6"/><circle cx="252" cy="171" r="6"/><circle cx="225" cy="171" r="6"/><circle cx="225" cy="306" r="6"/><circle cx="252" cy="306" r="6"/><circle cx="252" cy="333" r="6"/><circle cx="225" cy="333" r="6"/><circle cx="225" cy="144" r="6"/><circle cx="225" cy="360" r="6"/><circle cx="225" cy="387" r="6"/><circle cx="225" cy="414" r="6"/><circle cx="225" cy="117" r="6"/><circle cx="198" cy="117" r="6"/><circle cx="171" cy="117" r="6"/><circle cx="198" cy="144" r="6"/><circle cx="171" cy="144" r="6"/><circle cx="198" cy="171" r="6"/><circle cx="171" cy="171" r="6"/><circle cx="198" cy="198" r="6"/><circle cx="171" cy="198" r="6"/><circle cx="198" cy="225" r="6"/><circle cx="171" cy="225" r="6"/><circle cx="198" cy="252" r="6"/><circle cx="171" cy="252" r="6"/><circle cx="198" cy="279" r="6"/><circle cx="171" cy="279" r="6"/><circle cx="198" cy="306" r="6"/><circle cx="171" cy="306" r="6"/><circle cx="198" cy="333" r="6"/><circle cx="171" cy="333" r="6"/><circle cx="198" cy="360" r="6"/><circle cx="171" cy="360" r="6"/><circle cx="198" cy="387" r="6"/><circle cx="171" cy="387" r="6"/><circle cx="198" cy="414" r="6"/><circle cx="171" cy="414" r="6"/><circle cx="225" cy="441" r="6"/><circle cx="198" cy="441" r="6"/><circle cx="171" cy="441" r="6"/><circle cx="279" cy="279" r="6"/><circle cx="252" cy="279" r="6"/><circle cx="279" cy="252" r="6"/><circle cx="279" cy="225" r="6"/><circle cx="279" cy="198" r="6"/><circle cx="279" cy="171" r="6"/><circle cx="279" cy="306" r="6"/><circle cx="306" cy="306" r="6"/><circle cx="306" cy="333" r="6"/><circle cx="279" cy="333" r="6"/><circle cx="279" cy="144" r="6"/><circle cx="279" cy="360" r="6"/><circle cx="279" cy="387" r="6"/><circle cx="252" cy="360" r="6"/><circle cx="252" cy="387" r="6"/><circle cx="279" cy="414" r="6"/><circle cx="279" cy="117" r="6"/><circle cx="306" cy="252" r="6"/><circle cx="306" cy="225" r="6"/><circle cx="306" cy="198" r="6"/><circle cx="306" cy="171" r="6"/><circle cx="306" cy="144" r="6"/><circle cx="306" cy="117" r="6"/><circle cx="279" cy="441" r="6"/><circle cx="279" cy="468" r="6"/><circle cx="252" cy="468" r="6"/><circle cx="225" cy="468" r="6"/><circle cx="279" cy="495" r="6"/><circle cx="252" cy="495" r="6"/><circle cx="225" cy="495" r="6"/><circle cx="198" cy="468" r="6"/><circle cx="171" cy="468" r="6"/><circle cx="144" cy="468" r="6"/><circle cx="198" cy="495" r="6"/><circle cx="171" cy="495" r="6"/><circle cx="144" cy="495" r="6"/><circle cx="117" cy="468" r="6"/><circle cx="117" cy="495" r="6"/><circle cx="279" cy="63" r="6"/><circle cx="252" cy="63" r="6"/><circle cx="225" cy="63" r="6"/><circle cx="279" cy="90" r="6"/><circle cx="252" cy="90" r="6"/><circle cx="225" cy="90" r="6"/><circle cx="198" cy="63" r="6"/><circle cx="171" cy="63" r="6"/><circle cx="144" cy="63" r="6"/><circle cx="198" cy="90" r="6"/><circle cx="171" cy="90" r="6"/><circle cx="144" cy="90" r="6"/><circle cx="117" cy="63" r="6"/><circle cx="117" cy="90" r="6"/><circle cx="144" cy="117" r="6"/><circle cx="117" cy="117" r="6"/><circle cx="144" cy="144" r="6"/><circle cx="117" cy="144" r="6"/><circle cx="144" cy="171" r="6"/><circle cx="117" cy="171" r="6"/><circle cx="144" cy="198" r="6"/><circle cx="117" cy="198" r="6"/><circle cx="144" cy="225" r="6"/><circle cx="117" cy="225" r="6"/><circle cx="144" cy="252" r="6"/><circle cx="117" cy="252" r="6"/><circle cx="144" cy="279" r="6"/><circle cx="117" cy="279" r="6"/><circle cx="144" cy="306" r="6"/><circle cx="117" cy="306" r="6"/><circle cx="144" cy="333" r="6"/><circle cx="117" cy="333" r="6"/><circle cx="144" cy="360" r="6"/><circle cx="117" cy="360" r="6"/><circle cx="144" cy="387" r="6"/><circle cx="117" cy="387" r="6"/><circle cx="144" cy="414" r="6"/><circle cx="117" cy="414" r="6"/><circle cx="144" cy="441" r="6"/><circle cx="117" cy="441" r="6"/><circle cx="90" cy="468" r="6"/><circle cx="90" cy="495" r="6"/><circle cx="63" cy="468" r="6"/><circle cx="63" cy="495" r="6"/><circle cx="90" cy="63" r="6"/><circle cx="90" cy="90" r="6"/><circle cx="63" cy="63" r="6"/><circle cx="63" cy="90" r="6"/><circle cx="279" cy="9" r="6"/><circle cx="252" cy="9" r="6"/><circle cx="225" cy="9" r="6"/><circle cx="279" cy="36" r="6"/><circle cx="252" cy="36" r="6"/><circle cx="225" cy="36" r="6"/><circle cx="198" cy="9" r="6"/><circle cx="171" cy="9" r="6"/><circle cx="144" cy="9" r="6"/><circle cx="198" cy="36" r="6"/><circle cx="171" cy="36" r="6"/><circle cx="144" cy="36" r="6"/><circle cx="117" cy="9" r="6"/><circle cx="117" cy="36" r="6"/><circle cx="90" cy="9" r="6"/><circle cx="90" cy="36" r="6"/><circle cx="63" cy="9" r="6"/><circle cx="63" cy="36" r="6"/><circle cx="279" cy="522" r="6"/><circle cx="252" cy="522" r="6"/><circle cx="225" cy="522" r="6"/><circle cx="279" cy="549" r="6"/><circle cx="333" cy="279" r="6"/><circle cx="333" cy="252" r="6"/><circle cx="333" cy="225" r="6"/><circle cx="333" cy="198" r="6"/><circle cx="333" cy="171" r="6"/><circle cx="333" cy="306" r="6"/><circle cx="333" cy="333" r="6"/><circle cx="333" cy="144" r="6"/><circle cx="333" cy="360" r="6"/><circle cx="333" cy="387" r="6"/><circle cx="333" cy="414" r="6"/><circle cx="333" cy="117" r="6"/><circle cx="333" cy="441" r="6"/><circle cx="333" cy="468" r="6"/><circle cx="333" cy="495" r="6"/><circle cx="333" cy="63" r="6"/><circle cx="333" cy="90" r="6"/><circle cx="333" cy="9" r="6"/><circle cx="333" cy="36" r="6"/><circle cx="306" cy="9" r="6"/><circle cx="306" cy="36" r="6"/><circle cx="333" cy="522" r="6"/><circle cx="333" cy="549" r="6"/><circle cx="306" cy="522" r="6"/><circle cx="306" cy="549" r="6"/><circle cx="252" cy="549" r="6"/><circle cx="225" cy="549" r="6"/><circle cx="198" cy="522" r="6"/><circle cx="171" cy="522" r="6"/><circle cx="144" cy="522" r="6"/><circle cx="198" cy="549" r="6"/><circle cx="171" cy="549" r="6"/><circle cx="144" cy="549" r="6"/><circle cx="117" cy="522" r="6"/><circle cx="117" cy="549" r="6"/><circle cx="90" cy="522" r="6"/><circle cx="90" cy="549" r="6"/><circle cx="63" cy="522" r="6"/><circle cx="63" cy="549" r="6"/><circle cx="90" cy="117" r="6"/><circle cx="63" cy="117" r="6"/><circle cx="90" cy="144" r="6"/><circle cx="63" cy="144" r="6"/><circle cx="90" cy="171" r="6"/><circle cx="63" cy="171" r="6"/><circle cx="90" cy="198" r="6"/><circle cx="63" cy="198" r="6"/><circle cx="90" cy="225" r="6"/><circle cx="63" cy="225" r="6"/><circle cx="90" cy="252" r="6"/><circle cx="63" cy="252" r="6"/><circle cx="90" cy="279" r="6"/><circle cx="63" cy="279" r="6"/><circle cx="90" cy="306" r="6"/><circle cx="63" cy="306" r="6"/><circle cx="90" cy="333" r="6"/><circle cx="63" cy="333" r="6"/><circle cx="90" cy="360" r="6"/><circle cx="63" cy="360" r="6"/><circle cx="90" cy="387" r="6"/><circle cx="63" cy="387" r="6"/><circle cx="90" cy="414" r="6"/><circle cx="63" cy="414" r="6"/><circle cx="90" cy="441" r="6"/><circle cx="63" cy="441" r="6"/><circle cx="36" cy="468" r="6"/><circle cx="36" cy="495" r="6"/><circle cx="9" cy="468" r="6"/><circle cx="9" cy="495" r="6"/><circle cx="36" cy="63" r="6"/><circle cx="36" cy="90" r="6"/><circle cx="9" cy="63" r="6"/><circle cx="9" cy="90" r="6"/><circle cx="36" cy="9" r="6"/><circle cx="36" cy="36" r="6"/><circle cx="9" cy="9" r="6"/><circle cx="9" cy="36" r="6"/><circle cx="36" cy="522" r="6"/><circle cx="36" cy="549" r="6"/><circle cx="9" cy="522" r="6"/><circle cx="9" cy="549" r="6"/><circle cx="36" cy="117" r="6"/><circle cx="9" cy="117" r="6"/><circle cx="36" cy="144" r="6"/><circle cx="9" cy="144" r="6"/><circle cx="36" cy="171" r="6"/><circle cx="9" cy="171" r="6"/><circle cx="36" cy="198" r="6"/><circle cx="9" cy="198" r="6"/><circle cx="36" cy="225" r="6"/><circle cx="9" cy="225" r="6"/><circle cx="36" cy="252" r="6"/><circle cx="9" cy="252" r="6"/><circle cx="36" cy="279" r="6"/><circle cx="9" cy="279" r="6"/><circle cx="36" cy="306" r="6"/><circle cx="9" cy="306" r="6"/><circle cx="36" cy="333" r="6"/><circle cx="9" cy="333" r="6"/><circle cx="36" cy="360" r="6"/><circle cx="9" cy="360" r="6"/><circle cx="36" cy="387" r="6"/><circle cx="9" cy="387" r="6"/><circle cx="36" cy="414" r="6"/><circle cx="9" cy="414" r="6"/><circle cx="36" cy="441" r="6"/><circle cx="9" cy="441" r="6"/><circle cx="387" cy="468" r="6"/><circle cx="387" cy="495" r="6"/><circle cx="360" cy="468" r="6"/><circle cx="360" cy="495" r="6"/><circle cx="387" cy="63" r="6"/><circle cx="387" cy="90" r="6"/><circle cx="360" cy="63" r="6"/><circle cx="360" cy="90" r="6"/><circle cx="387" cy="9" r="6"/><circle cx="387" cy="36" r="6"/><circle cx="360" cy="9" r="6"/><circle cx="360" cy="36" r="6"/><circle cx="387" cy="522" r="6"/><circle cx="387" cy="549" r="6"/><circle cx="360" cy="522" r="6"/><circle cx="360" cy="549" r="6"/><circle cx="279" cy="576" r="6"/><circle cx="252" cy="576" r="6"/><circle cx="225" cy="576" r="6"/><circle cx="279" cy="603" r="6"/><circle cx="333" cy="576" r="6"/><circle cx="333" cy="603" r="6"/><circle cx="306" cy="576" r="6"/><circle cx="306" cy="603" r="6"/><circle cx="252" cy="603" r="6"/><circle cx="225" cy="603" r="6"/><circle cx="198" cy="576" r="6"/><circle cx="171" cy="576" r="6"/><circle cx="144" cy="576" r="6"/><circle cx="198" cy="603" r="6"/><circle cx="171" cy="603" r="6"/><circle cx="144" cy="603" r="6"/><circle cx="117" cy="576" r="6"/><circle cx="117" cy="603" r="6"/><circle cx="90" cy="576" r="6"/><circle cx="90" cy="603" r="6"/><circle cx="63" cy="576" r="6"/><circle cx="63" cy="603" r="6"/><circle cx="36" cy="576" r="6"/><circle cx="36" cy="603" r="6"/><circle cx="9" cy="576" r="6"/><circle cx="9" cy="603" r="6"/><circle cx="387" cy="576" r="6"/><circle cx="387" cy="603" r="6"/><circle cx="360" cy="576" r="6"/><circle cx="360" cy="603" r="6"/><circle cx="387" cy="117" r="6"/><circle cx="360" cy="117" r="6"/><circle cx="387" cy="144" r="6"/><circle cx="360" cy="144" r="6"/><circle cx="387" cy="171" r="6"/><circle cx="360" cy="171" r="6"/><circle cx="387" cy="198" r="6"/><circle cx="360" cy="198" r="6"/><circle cx="387" cy="225" r="6"/><circle cx="360" cy="225" r="6"/><circle cx="387" cy="252" r="6"/><circle cx="360" cy="252" r="6"/><circle cx="387" cy="279" r="6"/><circle cx="360" cy="279" r="6"/><circle cx="387" cy="306" r="6"/><circle cx="360" cy="306" r="6"/><circle cx="387" cy="333" r="6"/><circle cx="360" cy="333" r="6"/><circle cx="387" cy="360" r="6"/><circle cx="360" cy="360" r="6"/><circle cx="387" cy="387" r="6"/><circle cx="360" cy="387" r="6"/><circle cx="387" cy="414" r="6"/><circle cx="360" cy="414" r="6"/><circle cx="387" cy="441" r="6"/><circle cx="360" cy="441" r="6"/></g></g></svg>