<svg xmlns="http://www.w3.org/2000/svg" width="792" height="504"><g fill="none" stroke="#000"><path d="M108 324h144l72 72-144 72-144-72zm0-144h144l72-72-144-72-144 72z"/><path d="M36 108h288v288H36z"/><path d="M108 180l216-72-72 216-216 72z"/><path d="M108 180l72 36 72-36v144l-72-36-72 36zm432 144h144l72 72-144 72-144-72zm0-144h144l72-72-144-72-144 72z"/><path d="M468 108h288v288H468z"/><path d="M540 180l216-72-72 216-216 72z"/><path d="M540 180l72 36 72-36v144l-72-36-72 36z"/><g fill="#FFE07F"><circle cx="180" cy="216" r="18"/><circle cx="180" cy="288" r="18"/><circle cx="36" cy="396" r="18"/><circle cx="324" cy="108" r="18"/><circle cx="612" cy="216" r="18"/><circle cx="612" cy="288" r="18"/><circle cx="468" cy="396" r="18"/><circle cx="756" cy="108" r="18"/></g><g fill="#7FC0E6"><circle cx="108" cy="180" r="18"/><circle cx="252" cy="324" r="18"/><circle cx="180" cy="36" r="18"/><circle cx="180" cy="468" r="18"/><circle cx="540" cy="180" r="18"/><circle cx="684" cy="324" r="18"/><circle cx="612" cy="36" r="18"/><circle cx="612" cy="468" r="18"/></g><g fill="#DD8EA2"><circle cx="252" cy="180" r="18"/><circle cx="108" cy="324" r="18"/><circle cx="36" cy="108" r="18"/><circle cx="324" cy="396" r="18"/><circle cx="684" cy="180" r="18"/><circle cx="540" cy="324" r="18"/><circle cx="468" cy="108" r="18"/><circle cx="756" cy="396" r="18"/></g></g><g font-family="Times,serif" font-size="24"><text transform="translate(168.674 225)">a1</text><text transform="translate(168.674 297)">a3</text><text transform="translate(24.674 405)">a4</text><text transform="translate(312.674 117)">a2</text><text transform="translate(96 189)">b1</text><text transform="translate(240 333)">b3</text><text transform="translate(168 45)">b2</text><text transform="translate(168 477)">b4</text><text transform="translate(240.674 189)">c1</text><text transform="translate(96.674 333)">c3</text><text transform="translate(24.674 117)">c2</text><text transform="translate(312.674 405)">c4</text><text transform="translate(600.674 225)">a2</text><text transform="translate(600.674 297)">a4</text><text transform="translate(456.674 405)">a3</text><text transform="translate(744.674 117)">a1</text><text transform="translate(528 189)">b4</text><text transform="translate(672 333)">b2</text><text transform="translate(600 45)">b3</text><text transform="translate(600 477)">b1</text><text transform="translate(672.674 189)">c3</text><text transform="translate(528.674 333)">c1</text><text transform="translate(456.674 117)">c2</text><text transform="translate(744.674 405)">c4</text></g></svg>