<svg xmlns="http://www.w3.org/2000/svg" width="1458" height="909"><g fill="none" stroke="#000"><path d="M27 868.8zm0 0zm9 15.6c-5.8-3.3-9-9.4-9-15.6 0 6.2-3.2 12.3-9 15.6M45 900c0-9.9-8.1-18-18-18s-18 8.1-18 18m72 0c0-9.9-8.1-18-18-18s-18 8.1-18 18m72 0c0-9.9-8.1-18-18-18s-18 8.1-18 18m54-31.2zm0 0zm9 15.6c-5.8-3.3-9-9.4-9-15.6 0 6.2-3.2 12.3-9 15.6m27 15.6c0-9.9-8.1-18-18-18s-18 8.1-18 18M81 775.3zm0 0zm27 46.8c-17.3-10-27-28.1-27-46.8 0 18.6-9.7 36.8-27 46.8m81 46.7c0-29.8-24.2-54-54-54s-54 24.2-54 54m216 0c0-29.8-24.2-54-54-54s-54 24.2-54 54m216 0c0-29.8-24.2-54-54-54s-54 24.2-54 54m162-93.5zm0 0zm27 46.8c-17.3-10-27-28.1-27-46.8 0 18.6-9.7 36.8-27 46.8m81 46.7c0-29.8-24.2-54-54-54s-54 24.2-54 54M243 494.7zm0 0zM324 635c-51.9-30-80.9-84.3-80.9-140.3-.1 55.9-29.1 110.3-81 140.3M405 775.3c0-89.5-72.5-162-162-162s-162 72.5-162 162m648 0c0-89.5-72.5-162-162-162s-162 72.5-162 162m810-280.6c0-268.4-217.6-486-486-486s-486 217.6-486 486m810 280.6c0-89.5-72.5-162-162-162s-162 72.5-162 162m486-280.6zm0 0zm81 140.3c-51.9-30-80.9-84.3-80.9-140.3-.1 55.9-29.1 110.3-81 140.3M1377 775.3c0-89.5-72.5-162-162-162s-162 72.5-162 162m-486 93.5c0-29.8-24.2-54-54-54s-54 24.2-54 54m216 0c0-29.8-24.2-54-54-54s-54 24.2-54 54m162-93.5zm0 0zm27 46.8c-17.3-10-27-28.1-27-46.8 0 18.6-9.7 36.8-27 46.8m81 46.7c0-29.8-24.2-54-54-54s-54 24.2-54 54m216 0c0-29.8-24.2-54-54-54s-54 24.2-54 54m216 0c0-29.8-24.2-54-54-54s-54 24.2-54 54m162-93.5zm0 0zm27 46.8c-17.3-10-27-28.1-27-46.8 0 18.6-9.7 36.8-27 46.8m81 46.7c0-29.8-24.2-54-54-54s-54 24.2-54 54M189 900c0-9.9-8.1-18-18-18s-18 8.1-18 18m72 0c0-9.9-8.1-18-18-18s-18 8.1-18 18m54-31.2zm0 0zm9 15.6c-5.8-3.3-9-9.4-9-15.6 0 6.2-3.2 12.3-9 15.6m27 15.6c0-9.9-8.1-18-18-18s-18 8.1-18 18m72 0c0-9.9-8.1-18-18-18s-18 8.1-18 18m72 0c0-9.9-8.1-18-18-18s-18 8.1-18 18m54-31.2zm0 0zm9 15.6c-5.8-3.3-9-9.4-9-15.6 0 6.2-3.2 12.3-9 15.6m27 15.6c0-9.9-8.1-18-18-18s-18 8.1-18 18m72 0c0-9.9-8.1-18-18-18s-18 8.1-18 18m72 0c0-9.9-8.1-18-18-18s-18 8.1-18 18m54-31.2zm0 0zm9 15.6c-5.8-3.3-9-9.4-9-15.6 0 6.2-3.2 12.3-9 15.6m27 15.6c0-9.9-8.1-18-18-18s-18 8.1-18 18m72 0c0-9.9-8.1-18-18-18s-18 8.1-18 18m72 0c0-9.9-8.1-18-18-18s-18 8.1-18 18m54-31.2zm0 0zm9 15.6c-5.8-3.3-9-9.4-9-15.6 0 6.2-3.2 12.3-9 15.6m27 15.6c0-9.9-8.1-18-18-18s-18 8.1-18 18m72 0c0-9.9-8.1-18-18-18s-18 8.1-18 18m72 0c0-9.9-8.1-18-18-18s-18 8.1-18 18m54-31.2zm0 0zm9 15.6c-5.8-3.3-9-9.4-9-15.6 0 6.2-3.2 12.3-9 15.6m27 15.6c0-9.9-8.1-18-18-18s-18 8.1-18 18m72 0c0-9.9-8.1-18-18-18s-18 8.1-18 18m72 0c0-9.9-8.1-18-18-18s-18 8.1-18 18m54-31.2zm0 0zm9 15.6c-5.8-3.3-9-9.4-9-15.6 0 6.2-3.2 12.3-9 15.6m27 15.6c0-9.9-8.1-18-18-18s-18 8.1-18 18m126-31.2zm0 0zm9 15.6c-5.8-3.3-9-9.4-9-15.6 0 6.2-3.2 12.3-9 15.6m27 15.6c0-9.9-8.1-18-18-18s-18 8.1-18 18m72 0c0-9.9-8.1-18-18-18s-18 8.1-18 18m72 0c0-9.9-8.1-18-18-18s-18 8.1-18 18m54-31.2zm0 0zm9 15.6c-5.8-3.3-9-9.4-9-15.6 0 6.2-3.2 12.3-9 15.6m27 15.6c0-9.9-8.1-18-18-18s-18 8.1-18 18m72 0c0-9.9-8.1-18-18-18s-18 8.1-18 18m72 0c0-9.9-8.1-18-18-18s-18 8.1-18 18m54-31.2zm0 0zm9 15.6c-5.8-3.3-9-9.4-9-15.6 0 6.2-3.2 12.3-9 15.6m27 15.6c0-9.9-8.1-18-18-18s-18 8.1-18 18m-252 0c0-9.9-8.1-18-18-18s-18 8.1-18 18m72 0c0-9.9-8.1-18-18-18s-18 8.1-18 18m378-31.2c0-29.8-24.2-54-54-54s-54 24.2-54 54m216 0c0-29.8-24.2-54-54-54s-54 24.2-54 54m162-93.5zm0 0zm27 46.8c-17.3-10-27-28.1-27-46.8 0 18.6-9.7 36.8-27 46.8m81 46.7c0-29.8-24.2-54-54-54s-54 24.2-54 54m-108 0zm0 0zm9 15.6c-5.8-3.3-9-9.4-9-15.6 0 6.2-3.2 12.3-9 15.6m27 15.6c0-9.9-8.1-18-18-18s-18 8.1-18 18m72 0c0-9.9-8.1-18-18-18s-18 8.1-18 18m72 0c0-9.9-8.1-18-18-18s-18 8.1-18 18m54-31.2zm0 0zm9 15.6c-5.8-3.3-9-9.4-9-15.6 0 6.2-3.2 12.3-9 15.6m27 15.6c0-9.9-8.1-18-18-18s-18 8.1-18 18m72 0c0-9.9-8.1-18-18-18s-18 8.1-18 18m72 0c0-9.9-8.1-18-18-18s-18 8.1-18 18m54-31.2zm0 0zm9 15.6c-5.8-3.3-9-9.4-9-15.6 0 6.2-3.2 12.3-9 15.6m27 15.6c0-9.9-8.1-18-18-18s-18 8.1-18 18m-252 0c0-9.9-8.1-18-18-18s-18 8.1-18 18m72 0c0-9.9-8.1-18-18-18s-18 8.1-18 18M9 900h1440"/><g fill="#FEC200"><circle cx="27" cy="900" r="6"/><circle cx="63" cy="900" r="6"/><circle cx="99" cy="900" r="6"/><circle cx="135" cy="900" r="6"/><circle cx="171" cy="900" r="6"/><circle cx="207" cy="900" r="6"/><circle cx="243" cy="900" r="6"/><circle cx="279" cy="900" r="6"/><circle cx="315" cy="900" r="6"/><circle cx="351" cy="900" r="6"/><circle cx="387" cy="900" r="6"/><circle cx="423" cy="900" r="6"/><circle cx="459" cy="900" r="6"/><circle cx="495" cy="900" r="6"/><circle cx="531" cy="900" r="6"/><circle cx="567" cy="900" r="6"/><circle cx="603" cy="900" r="6"/><circle cx="639" cy="900" r="6"/><circle cx="675" cy="900" r="6"/><circle cx="711" cy="900" r="6"/><circle cx="747" cy="900" r="6"/><circle cx="783" cy="900" r="6"/><circle cx="819" cy="900" r="6"/><circle cx="855" cy="900" r="6"/><circle cx="891" cy="900" r="6"/><circle cx="927" cy="900" r="6"/><circle cx="963" cy="900" r="6"/><circle cx="999" cy="900" r="6"/><circle cx="1035" cy="900" r="6"/><circle cx="1071" cy="900" r="6"/><circle cx="1107" cy="900" r="6"/><circle cx="1143" cy="900" r="6"/><circle cx="1179" cy="900" r="6"/><circle cx="1215" cy="900" r="6"/><circle cx="1251" cy="900" r="6"/><circle cx="1287" cy="900" r="6"/><circle cx="1323" cy="900" r="6"/><circle cx="1359" cy="900" r="6"/><circle cx="1395" cy="900" r="6"/><circle cx="1431" cy="900" r="6"/></g><g fill="#0081CD"><circle cx="9" cy="900" r="6"/><circle cx="45" cy="900" r="6"/><circle cx="81" cy="900" r="6"/><circle cx="117" cy="900" r="6"/><circle cx="153" cy="900" r="6"/><circle cx="189" cy="900" r="6"/><circle cx="225" cy="900" r="6"/><circle cx="261" cy="900" r="6"/><circle cx="297" cy="900" r="6"/><circle cx="333" cy="900" r="6"/><circle cx="369" cy="900" r="6"/><circle cx="405" cy="900" r="6"/><circle cx="441" cy="900" r="6"/><circle cx="477" cy="900" r="6"/><circle cx="513" cy="900" r="6"/><circle cx="549" cy="900" r="6"/><circle cx="585" cy="900" r="6"/><circle cx="621" cy="900" r="6"/><circle cx="657" cy="900" r="6"/><circle cx="693" cy="900" r="6"/><circle cx="729" cy="900" r="6"/><circle cx="765" cy="900" r="6"/><circle cx="801" cy="900" r="6"/><circle cx="837" cy="900" r="6"/><circle cx="873" cy="900" r="6"/><circle cx="909" cy="900" r="6"/><circle cx="945" cy="900" r="6"/><circle cx="981" cy="900" r="6"/><circle cx="1017" cy="900" r="6"/><circle cx="1053" cy="900" r="6"/><circle cx="1089" cy="900" r="6"/><circle cx="1125" cy="900" r="6"/><circle cx="1161" cy="900" r="6"/><circle cx="1197" cy="900" r="6"/><circle cx="1233" cy="900" r="6"/><circle cx="1269" cy="900" r="6"/><circle cx="1305" cy="900" r="6"/><circle cx="1341" cy="900" r="6"/><circle cx="1377" cy="900" r="6"/><circle cx="1413" cy="900" r="6"/><circle cx="1449" cy="900" r="6"/></g></g></svg>