<svg xmlns="http://www.w3.org/2000/svg" width="1215" height="621"><path fill="#7FC0E6" stroke="#000" d="M1179 585C1179 266.9 921.1 9 603 9S27 266.9 27 585"/><path fill="#FFE07F" stroke="#000" d="M27 585c0-159.1 128.9-288 288-288s288 128.9 288 288m0 0c0-159.1 128.9-288 288-288s288 128.9 288 288"/><path fill="#7FC0E6" stroke="#000" d="M315 585c0-79.5-64.5-144-144-144S27 505.5 27 585"/><path fill="#FFE07F" stroke="#000" d="M27 585c0-39.8 32.2-72 72-72s72 32.2 72 72m0 0c0-39.8 32.2-72 72-72s72 32.2 72 72"/><path fill="#7FC0E6" stroke="#000" d="M603 585c0-79.5-64.5-144-144-144s-144 64.5-144 144"/><path fill="#FFE07F" stroke="#000" d="M315 585c0-39.8 32.2-72 72-72s72 32.2 72 72m0 0c0-39.8 32.2-72 72-72s72 32.2 72 72"/><path fill="#7FC0E6" stroke="#000" d="M891 585c0-79.5-64.5-144-144-144s-144 64.5-144 144"/><path fill="#FFE07F" stroke="#000" d="M603 585c0-39.8 32.2-72 72-72s72 32.2 72 72m0 0c0-39.8 32.2-72 72-72s72 32.2 72 72"/><path fill="#7FC0E6" stroke="#000" d="M1179 585c0-79.5-64.5-144-144-144s-144 64.5-144 144"/><path fill="#FFE07F" stroke="#000" d="M891 585c0-39.8 32.2-72 72-72s72 32.2 72 72m0 0c0-39.8 32.2-72 72-72s72 32.2 72 72"/><path fill="#7FC0E6" stroke="#000" d="M99 585c0-19.9-16.1-36-36-36s-36 16.1-36 36m144 0c0-19.9-16.1-36-36-36s-36 16.1-36 36m144 0c0-19.9-16.1-36-36-36s-36 16.1-36 36m144 0c0-19.9-16.1-36-36-36s-36 16.1-36 36m144 0c0-19.9-16.1-36-36-36s-36 16.1-36 36m144 0c0-19.9-16.1-36-36-36s-36 16.1-36 36m144 0c0-19.9-16.1-36-36-36s-36 16.1-36 36m144 0c0-19.9-16.1-36-36-36s-36 16.1-36 36m144 0c0-19.9-16.1-36-36-36s-36 16.1-36 36m144 0c0-19.9-16.1-36-36-36s-36 16.1-36 36m144 0c0-19.9-16.1-36-36-36s-36 16.1-36 36m144 0c0-19.9-16.1-36-36-36s-36 16.1-36 36m144 0c0-19.9-16.1-36-36-36s-36 16.1-36 36m144 0c0-19.9-16.1-36-36-36s-36 16.1-36 36m144 0c0-19.9-16.1-36-36-36s-36 16.1-36 36m144 0c0-19.9-16.1-36-36-36s-36 16.1-36 36"/><text transform="translate(3 612)" font-family="Times,serif" font-size="24">0000</text><text transform="translate(75 612)" font-family="Times,serif" font-size="24">0001</text><text transform="translate(147 612)" font-family="Times,serif" font-size="24">0010</text><text transform="translate(219 612)" font-family="Times,serif" font-size="24">0011</text><text transform="translate(291 612)" font-family="Times,serif" font-size="24">0100</text><text transform="translate(363 612)" font-family="Times,serif" font-size="24">0101</text><text transform="translate(723 612)" font-family="Times,serif" font-size="24">1010</text><text transform="translate(792 612)" font-family="Times,serif" font-size="24">1011</text><text transform="translate(867 612)" font-family="Times,serif" font-size="24">1100</text><text transform="translate(939 612)" font-family="Times,serif" font-size="24">1101</text><text transform="translate(1011 612)" font-family="Times,serif" font-size="24">1110</text><text transform="translate(1083 612)" font-family="Times,serif" font-size="24">1111</text><text transform="translate(435 612)" font-family="Times,serif" font-size="24">0110</text><text transform="translate(507 612)" font-family="Times,serif" font-size="24">0111</text><text transform="translate(579 612)" font-family="Times,serif" font-size="24">1000</text><text transform="translate(651 612)" font-family="Times,serif" font-size="24">1001</text><text transform="translate(1149 612)" font-family="Times,serif" font-size="24">10000</text></svg>