<svg xmlns="http://www.w3.org/2000/svg" width="954" height="414"><g stroke="#000" fill="#7FC0E6"><path d="M335 371.1l-2 6.9-63 27h144l-63-27zm34-56.1l2.5-8.8-11.5 4.9zM225 9h144v144H225zm0 144h-72V81H9V9h216zM369 9h72v72h144v72H369z" fill="#0081CD"/><path d="M335 371.1L288 351l-2.3-1-15.7 55 63-27zM432 225l-63 27-63 27-2.3 8 2.3 1 54 23.1 11.5-4.9L414 288l21-9 7.5-3.2L477 261l18-63z"/><path d="M442.5 275.8L435 279l-21 9-42.5 18.2-2.5 8.8-9-3.9-54-23.1-2.3-1-60.7-26-18 63 60.7 26 2.3 1 47 20.1 16 6.9 63 27 18-63 18-63zM729 261h216v72H729zm-72 72h216v72H657z"/></g><path d="M45 333h98.7m333.3 0h98.7" fill="none" stroke="#FFE07F" stroke-width="30"/><path d="M189 333c-21.3 7.9-47.7 21.4-64.1 35.7l12.9-35.7-12.9-35.7c16.4 14.3 42.8 27.8 64.1 35.7zm432 0c-21.3 7.9-47.7 21.4-64.1 35.7l12.9-35.7-12.9-35.7c16.4 14.3 42.8 27.8 64.1 35.7z" fill="#FFE07F"/></svg>