<svg xmlns="http://www.w3.org/2000/svg" xmlns:xlink="http://www.w3.org/1999/xlink" width="521" height="588"><defs><path id="a" d="M9.6 150v288L259 582l249.4-144V150L259 6z"/></defs><clipPath id="b"><use xlink:href="#a" overflow="visible"/></clipPath><g clip-path="url(#b)" stroke="#000"><path fill="none" d="M-209 150h936m-936 144h936m-936 144h936M368.3 771.3l-468-810.6M493 699.3L25-111.3m592.7 738.6l-468-810.6m468 144l-468 810.6M493-111.3L25 699.3m343.3-882.6l-468 810.6"/><circle fill="#BC1E46" cx="259" cy="6" r="12"/><circle fill="#BC1E46" cx="342.1" cy="150" r="12"/><circle fill="#BC1E46" cx="508.4" cy="150" r="12"/><circle fill="#BC1E46" cx="425.3" cy="294" r="12"/><circle fill="#BC1E46" cx="508.4" cy="438" r="12"/><circle fill="#BC1E46" cx="342.1" cy="438" r="12"/><circle fill="#BC1E46" cx="259" cy="582" r="12"/><circle fill="#BC1E46" cx="175.9" cy="438" r="12"/><circle fill="#BC1E46" cx="9.6" cy="438" r="12"/><circle fill="#BC1E46" cx="92.7" cy="294" r="12"/><circle fill="#BC1E46" cx="259" cy="294" r="12"/><circle fill="#BC1E46" cx="175.9" cy="150" r="12"/><circle fill="#BC1E46" cx="9.6" cy="150" r="12"/></g><g fill="none" stroke="#7FC0E6" stroke-width="2"><path d="M12.2 148.5L9.6 150v3"/><path stroke-dasharray="6,6" d="M9.6 159v273"/><path d="M9.6 435v3l2.6 1.5"/><path stroke-dasharray="6,6" d="M17.4 442.5L253.8 579"/><path d="M256.4 580.5l2.6 1.5 2.6-1.5"/><path stroke-dasharray="6,6" d="M266.8 577.5L503.2 441"/><path d="M505.8 439.5l2.6-1.5v-3"/><path stroke-dasharray="6,6" d="M508.4 429V156"/><path d="M508.4 153v-3l-2.6-1.5"/><path stroke-dasharray="6,6" d="M500.6 145.5L264.2 9"/><path d="M261.6 7.5L259 6l-2.6 1.5"/><path stroke-dasharray="6,6" d="M251.2 10.5L14.8 147"/></g></svg>