<svg xmlns="http://www.w3.org/2000/svg" width="783" height="342"><path fill="#7FC0E6" d="M36.5 99.5h71v143h-71z"/><path d="M107 100v142H37V100h70m1-1H36v144h72V99z"/><path fill="#7FC0E6" stroke="#000" d="M36 171h72"/><path fill="#FFE07F" d="M126.5 99.5h71v143h-71z"/><path d="M197 100v142h-70V100h70m1-1h-72v144h72V99z"/><path fill="#7FC0E6" stroke="#000" d="M126 171h72"/><path fill="#DD8EA2" d="M216.5 99.5h71v143h-71z"/><path d="M287 100v142h-70V100h70m1-1h-72v144h72V99z"/><path fill="#7FC0E6" stroke="#000" d="M216 171h72"/><path fill="none" stroke="#999" stroke-width="20" d="M324 171h77.8"/><path fill="#999" d="M432 171c-14.2 5.3-31.8 14.3-42.7 23.8l8.6-23.8-8.6-23.8c10.9 9.5 28.5 18.5 42.7 23.8z"/><path fill="#151514" d="M679.9 273.2c-1.8 1.7 2.2 9.9 3.8 15 .8 2.6 2.1 10.2 2.5 11.2-.3.1-.6.3-.8.4 1.8-7-7.3 1-16.5 1.7-1.3-2.1-9.4-15.4-10.1-16-.1-.5.2-1 .6-1.3 7-3.7 13.9-6.7 20.5-11zM739 150.9l3 18.8c.5.3.5.3 1.1.6l14.6-4c-.4-5 .9-11.1-.8-15.4 1.4.1 2.9-.2 4.2.6.8 7.8.8 7.8 1.7 15.6-.4 1.4-23.2 6-26.4 6.5-.5 2.5-2.2 13.2-.4 14.3 1 .7 19.6 5.5 23.4 8.2-2.1 7.2-2.1 7.2-4.2 14.3-1.2 1.4-21.6-2.5-24.9-2.3 5.1-17.7 6.3-39.4 3.4-57.6l-3-12.2c-3.6-7.4-6.5-15-10.1-22.4 0-.1.9-.2 0-1.9 1.2-.4 2.6-.5 3.8-.8 4.2 8.8 4.2 8.8 8.4 17.5.5.1.5.1 1.1.2 7.1-4.7 7.1-4.7 14.1-9.5-2.1-4.4-3.1-9.3-5.9-13.3 1-.2 2.5-1.4 3.8-.6 3.2 7.2 3.2 7.2 6.3 14.3-10.8 7.2-10.8 7.2-21.5 14.3 1.7 7.2 1.7 7.2 3.4 14.3.4.8 3.8.4 4.9.5zm-30.8 104.2c1.7 2.3 13.5 15.8 13.5 17.1l-10.8 11.6c-2 .4-18.4-14.4-20.9-16.9.1-.1-.4-.9.6-1.7 7.3-5.7 13.4-12.1 14.3-12.2 1.4-.2 2.4 3.1 3.3 2.1zm16.9-32.1c1.5 0 18.6 12.6 21.1 15-1.2 1.7-7 12.7-8.2 12.9-6-1.7-21.5-9.3-22.8-9.7-.4-.1-1.5-.1-1.5.4 0 0-.8-.1-.4-.6.4-.6 1.7-1.2 2.5-2.5 2.4-4 7.1-15.5 9.3-15.5z"/><path fill="#4C4448" d="M528.9 270.7c-5.4 4.6-10.8 9.1-16.7 13.1-1 0-11.6-10.3-11.6-11.2 4.1-4.9 7.5-10.4 11.4-15.4 1.1-1.4 2.5-2.9 3.8-4.2.7 3.2 13.6 14.8 13.9 15.8.2.7-1.1 1-.8 1.9z"/><path fill="#312F30" d="M741.9 108.3c2.8 4 3.8 8.9 5.9 13.3-7.1 4.7-7.1 4.7-14.1 9.5-.5-.1-.5-.1-1.1-.2-4.2-8.8-4.2-8.8-8.4-17.5 5.9-1.8 11.7-4 17.7-5.1zm14.8 42.6c1.7 4.3.5 10.4.8 15.4l-14.6 4c-.5-.3-.5-.3-1.1-.6l-3-18.8c5.7.3 12.7-.5 17.9 0zM548.3 305.7c-.3-.2-1.2-.5-2.5-1.3-1.1-.7-2.3-1.1-3.4-1.7-.8-.5-6.2-3.2-6.3-3.6 2.5-6.9 4.5-13.9 6.8-20.9 9.1 5.6 9.1 5.6 18.1 11.2-6.4 8.2-6.4 8.2-12.7 16.3z"/><path fill="#151514" d="M562.6 283.8c3.1 1.2 2.8 1.6 3 1.7-7.2 10.5-7.2 10.5-14.3 21.1-.4.1-.5.4-.8.4-.1-.1-1.4-.8-2.1-1.3 6.3-8.1 6.3-8.1 12.7-16.2-9.1-5.6-9.1-5.6-18.1-11.2.3-1 .9-1.9.8-3 .3.2.6-.7 1.1-.4 5.7 3.3 11.5 6.4 17.7 8.9z"/><linearGradient id="a" gradientUnits="userSpaceOnUse" x1="581.361" y1="35.425" x2="591.875" y2="48.08"><stop offset="0" stop-color="#a59a9e"/><stop offset="1" stop-color="#8c8384"/></linearGradient><path fill="url(#a)" d="M593 27.3c1.1 5.9 4.1 18.8 6.3 23.6-1.3-.1-2.6.5-3.8.8-5 1.6-10.4 2.9-15.2 4.6-.9-5.7-.4-11.6 0-17.3.2-3 0-6.1.4-9.1l1.1-1.1c2.8.1 9.5-1.7 11.2-1.5z"/><path fill="#312F30" d="M599.8 41.2c1.4 3.9 2.7 7.8 3.8 11.8-1.1 0-2 .7-3.2.4-1.1-.9-1-2.3-1.1-2.5-2.2-4.8-5.2-17.7-6.3-23.6 2.3.2 5.8 11.3 6.8 13.9z"/><path fill="#958A8C" d="M489.2 151.3c-.3 5.7-2.6 15-3 19.8-12.7-3-12.7-3-25.3-5.9 0-2 .8-11.6 1.3-12 1.6-.6 3.4-.4 5.1-.6 7.2-1 14.7-1.1 21.9-1.3z"/><path fill="#312F30" d="M486.3 171.1c-.1.8 0 1.7 0 2.5-5.7-1.4-11.7-2.2-17.3-3.8-2.7-.8-5.4-1.9-8.2-2.5.1-.7.2-1.4.2-2.1 12.6 3 12.6 3 25.3 5.9z"/><path fill="#958A8C" d="M484.6 110.4c6.2 1.1 12.1 2.9 18.1 4.6-5.7 8.2-6.8 9.1-9.3 19-11.4-6.3-11.4-6.3-22.8-12.7 1.4-4.4 4.5-8.5 6.5-12.7 2.5.8 5 1.3 7.5 1.8z"/><path fill="#312F30" d="M493.5 134c-.1.3 0 1.3-.4 3-4.7-2.9-9.7-5.4-14.3-8.4-2.9-1.9-5.5-4.1-8.6-5.5-.8-1.3.6-1.6.6-1.7 11.3 6.3 11.3 6.3 22.7 12.6z"/><linearGradient id="b" gradientUnits="userSpaceOnUse" x1="538.8" y1="50.03" x2="546.267" y2="63.737"><stop offset="0" stop-color="#b2a7ab"/><stop offset="1" stop-color="#8f8886"/></linearGradient><path fill="url(#b)" d="M544.1 42c7.2 10.8 7.2 10.8 14.3 21.5-2.6.6-14.8 8.4-19 10.1-.8-2.5-4.7-9.5-6.3-13.9-.6-1.6-3.2-7.7-3-8.6 3.7-2.4 10.2-7.7 14-9.1z"/><path fill="#312F30" d="M550 47.5c4.2 5.1 7.9 10.5 11.4 16-4 1.1-2.8 0-3 0-7.2-10.8-7.2-10.8-14.3-21.5 0 0-.3-1 .6-.8 2 1.9 3.5 4.2 5.3 6.3z"/><linearGradient id="c" gradientUnits="userSpaceOnUse" x1="628.079" y1="38.045" x2="640.215" y2="45.691"><stop offset="0" stop-color="#908589"/><stop offset="1" stop-color="#6b6669"/></linearGradient><path fill="url(#c)" d="M642.8 29v25.9l-8.4-.6c-.8-.1-1.6-.4-2.1-.4-3.1-.4-6.4-.7-9.5-.8-.3 0-.2-.8-.2-.8 1.1-5.4 2.6-10.8 4.2-16 .4-1.3 2.1-8.5 2.7-8.9 2.9 0 11.5.3 13.3 1.6z"/><path fill="#312F30" d="M644.9 45.4c.1 3.7-.1 7.3 0 11-3.3-.9-7.1-1.5-10.5-2.1l8.4.6V29c.1.1.6-.4 1.3 1.1.2 5.1.7 10.2.8 15.3z"/><path fill="#7E7377" d="M486.3 187.2c0 .1 1.2.7 1.3 1.1.3 2.9 1.6 15.9 2.1 17.1-.5 0-.4.4-.4.4-4 1-18.1 1-24 3-.7-1.1-3.6-11.6-3.4-12.4 1.8-1.4 4.2-1.9 6.3-2.7 5.8-2.7 12-4.4 18.1-6.5z"/><path fill="#312F30" d="M489.2 205.7c1.1 1 .4 2.4.4 2.5-2.3-.3-3.9.4-4.6.4-6.4.5-12.8.6-19.2 1.3-.8-.6-.6-1.2-.6-1.3 6-1.9 20-1.9 24-2.9z"/><path fill="#4C4448" d="M718.7 69c1.5 1.5 8.7 9.7 9.3 11-7.1 7.8-7.1 7.8-14.1 15.6-4-3.7-7.7-8-11.6-11.8 0 0-.2-.8-.8-.8 3.6-2.4 11.9-11.1 17.2-14z"/><path fill="#151514" d="M728 80c0 .1 1.1.1.8 1.9-1.9 3.4-15.6 18.2-16 19.4-.2.6.2 1 .4 1.5-.1-.1-1 .2-1.3-.2-.3-2.4-1.8-4.2-3-6.1-2.3-3.8-7.5-11.1-6.8-12.7 3.9 3.8 7.6 8.1 11.6 11.8 7.2-7.8 7.2-7.8 14.3-15.6z"/><path fill="#868687" d="M718.7 69c-5.4 2.8-13.6 11.5-17.3 13.9-.4.3-.8.6-1.3.8-3-1.9 12.8-12.7 16.7-16.9.3.1 1.6 1.9 1.9 2.2z"/><path fill="#312F30" d="M508.2 241.2c-2.8 1.5-5.9 2.7-8.9 3.8-5.1 1.9-10.3 3.7-15.4 5.5-.9-.6-.6-1.2-.6-1.3 2.9-1.6 23.4-9.2 24.7-8.9.4.2.1.8.2.9z"/><path fill="#645A5E" d="M691.7 48l-8.4 22.8c-3.5-1.9-7.3-3.4-11-5.1-2.2-1.7-4.8-2.8-7.2-4.2.6-.5 6.4-9.4 8-11.8 2.1-3 4.1-6.2 6.1-9.3.8-.2 11.4 6.6 12.5 7.6z"/><path fill="#312F30" d="M685 71.6c-.8.1-1.1-.5-1.7-.8l8.4-22.8c.5.4 1.3.4 1.7 1.1-2.1 7.5-5.1 15.2-8.4 22.5z"/><path fill="#312F30" d="M683.3 70.7c.6.3.9 1 1.7.8-.4.9-.6 2.1-1.3 3-5.1-3.5-7.4-5.8-11.4-8.9 3.7 1.7 7.5 3.2 11 5.1zm-37.1 235.4c0 .1-.1.6.4 1.3-6.4.6-12.8 2-19.2 2.1-.5.3-.5.3-1.1.6 1.2 5.9-1-.2-1.7-2.7-.6-2.2-.7-4.9-1.3-7.2 10.7-1.1 10.7-1.1 21.3-2.1.4.3.4 6.7.6 7.8.2.4.9.2 1 .2z"/><path fill="#151514" d="M645.3 288c-1.6 2.3.2 11 .8 16v2.1c0-.1-.8.2-.8-.2-.3-1.1-.2-7.5-.6-7.8-10.7 1.1-10.7 1.1-21.3 2.1-.3-1.1-.6-2.5-.8-3.4-.5-1.6-.4-2.4-.4-2.5 2-2.5 13.7-3.4 18.8-4.6 1-.3 1.8-1.1 4.3-1.7zm-45.5 21.5c-1.2 2.2-2.2 4.5-4 6.3h-14.6c-.1-1.4.1-2.8 0-4.2 0-.8.1-1.7 0-2.5 6.2.3 12.4-.7 18.6.4z"/><path fill="#312F30" d="M602.7 300.7c-.4 2-.3 4.3-.8 6.3-1 .7-1.5 1.5-2.1 2.5-6.1-1.1-12.3-.1-18.6-.4-.1-1-.4-2.1-.4-3-.2-3.8.1-7.6 0-11.4 11 3 11 3 21.9 6z"/><path fill="#151514" d="M591.8 291c4.3.7 11.2 1.1 13.1 3-.6.3-.6.3-1.3.6-.1.6.1 1.4 0 1.9-.4 1.4-.5 2.8-.8 4.2-11-3-11-3-21.9-5.9v-5.1c3.2-.5 7.4.7 10.9 1.3z"/><linearGradient id="d" gradientUnits="userSpaceOnUse" x1="506.463" y1="75.817" x2="513.37" y2="90.283"><stop offset="0" stop-color="#b6aaae"/><stop offset="1" stop-color="#918889"/></linearGradient><path fill="url(#d)" d="M523.4 80.9c.4.3.8.5 1.3.8l-.4 4.2c-2.3.9-11.8 11-12.7 13.5l-17.7-17.7c7-6.3 7-6.3 13.9-12.7 4.1 4.6 10.6 8.4 15.6 11.9z"/><path fill="#312F30" d="M511.6 99.4c-.1.2.7.5 0 2.1-3.7-3.7-13.7-13.7-16-16.9-1.3-1.7-2.6-3-1.7-3 8.8 9 8.8 9 17.7 17.8zm7.2-23.6c1.4 1.9 3.3 3.2 4.6 5.1-5-3.5-11.5-7.3-15.6-11.8-.5-.6-1.6-.7-1.3-1.9.7-1.2 10.8 8 12.3 8.6zm9.2 9.3c-1.6.8-3.1.6-3.8.8l.4-4.2c1.3.9 2.5 2.1 3.4 3.4zM713.2 102.8c2.2 3.7 6.6 10.2 7.2 11.4.9 1.7 0 1.8 0 1.9 3.6 7.4 6.5 15 10.1 22.4l3 12.2c2.9 18.1 1.7 39.9-3.4 57.6-1.6 5.7-5.5 11.8-5.1 14.8-2.1 0-6.8 11.5-9.3 15.4-.8 1.3-2.2 1.9-2.5 2.5-.3.5.4.6.4.6-2.2 3.5-5.4 7.1-8 10.3.2.9 1.4 1.7 2.5 3.2-.9 1-1.8-2.2-3.2-2.1-.9.1-7 6.6-14.3 12.2-1 .8-.6 1.6-.6 1.7-2.9 2.3-6.9 4.3-10.1 6.3-6.7 4.3-13.6 7.2-20.5 11-.4.2-.7.7-.6 1.3-.5-.4-1.1-1-1.9-.8-3.7 1.8-7.7 2.4-11.6 3.4-2.5.6-3.3 1.4-4.4 1.7-5.1 1.2-16.8 2.1-18.8 4.6 0-.1-.4.2-.6-1.3-8.3.4-8.3.4-16.7.8-1.9-1.8-8.8-2.3-13.1-3 2-2.4 9.3-1.3 15.8-3 4.9-1.2 9.3-4.9 14.3-5.9 3.8-5 14-9.1 12-14.3 4.4-.9 8.9-2.3 13.1-3.8 34.6-12.4 64.7-46.7 65.8-84.4 5.6 1.4 4-4.8 8-7.4l-.4-11c4.6-7.2-.6-8.7-.8-10.5-.2-1.2 3.3-7.3-.4-21.1-5.3-8.3-4.4-12-4.6-12.7-.3-1-2.1-3-2.5-4.2 0-.1.8-.7.4-2.1-1.3-4.3-5.1-9.5-3.4-14.1 1.2 1.9 2.7 3.7 3 6.1.2.5 1.2.2 1.2.3z"/><path fill="#312F30" d="M700.2 83.8c.5-.2.8-.6 1.3-.8.6.1.8.8.8.8-.7 1.6 4.4 8.9 6.8 12.7-1.7 4.7 2.1 9.9 3.4 14.1.4 1.4-.5 2-.4 2.1.4 1.3 2.2 3.3 2.5 4.2.2.7-.6 4.4 4.6 12.7 3.7 13.8.2 19.9.4 21.1.3 1.9 5.5 3.4.8 10.5l.4 11c-4 2.6-2.5 8.8-8 7.4.7-25.7-10.6-57.4-28.3-76.4l.4-27.4c4.3 2.9 9.1 5.3 13.3 8.4 1.8.5 1.9-.3 2-.4z"/><path fill="#645A5E" d="M634.4 54.3c3.4.6 7.2 1.2 10.5 2.1 3.2.8 16.5 6.3 17.9 6.3 1.8.1 1.3-.3 2.3-1.3 2.4 1.5 4.9 2.5 7.2 4.2 4 3 6.3 5.3 11.4 8.9 1 .7 1.2 1.2 1.3 1.3l-.4 27.4c-7.9-8.5-17.8-14.2-28.3-19-12.6-5.8-25.3-10.1-39.2-10.5.4-.8 1-.2 1.3-.6.4-.5 1.6-4 2.1-4.6 1.2-1.5 4.4-1.7 4.2-5.1 3.2-2.2 7.8-5.4 7.6-9.5.4 0 1.3.2 2.1.4z"/><path fill="#645A5E" d="M656.3 84.2c10.4 4.8 20.4 10.5 28.3 19 17.6 19 29 50.6 28.3 76.4-1.1 37.7-31.2 72-65.8 84.4 0-.5 1.1-1.9 1.5-2.1 4.4-3.1 20.2-11.6 26.6-16.5 7.6-5.9 12.1-11.5 17.5-19.2.4-.5 2.8-1.8 3-2.1.2-.4 1.4-7.1 0-6.5 3.9-6.3 6.5-12 8.9-19 2.8-8.2 4.3-13.5 4.6-22.4.2-5.1-.4-9.7-.8-14.8-1.3-14.5-3.2-23.4-13.3-35.4-3.8-.5-4-2.1-4.9.4-4.6-8.6-9.4-15.2-16.5-21.9-6.2-5.9-7.5-6.1-13.5-10.5-.6-.4-4.4-5.4-11.8-8.9 2.2-1.5 5.9 1.1 7.8.4.3-.1.1-.9.1-1.3z"/><path fill="#312F30" d="M633.9 267.8c2 5.3-8.3 9.4-12 14.3-5 1-9.4 4.7-14.3 5.9-6.5 1.6-13.8.5-15.8 3-3.5-.6-7.6-1.7-11-1.3-4.8-1.9-10.3-2.5-15.2-4.2-.2-.1.2-.4-3-1.7 7.3-3.2 14.3 1.5 24.7-2.1 3-1 15.9-8.4 16.2-12.2 2.3.2 4.4.4 6.8.4 7.9.1 15.9-.6 23.6-2.1z"/><path fill="#645A5E" d="M647 264c-4.2 1.5-8.7 2.9-13.1 3.8-7.7 1.5-15.8 2.2-23.6 2.1-.8-1.9 5.8-1.6 11.2-2.5 6.8-1.2 24.2-5.9 29.5-9.7 1.1-.8 1.8-1.1 1.5-2.5 17.8-7.6 32.7-21.1 43-37.5 1.4-.6.2 6.1 0 6.5-.1.3-2.6 1.6-3 2.1-5.4 7.7-9.9 13.3-17.5 19.2-6.4 4.9-22.2 13.3-26.6 16.5-.2.1-1.4 1.4-1.4 2z"/><path fill="#7E7377" d="M544.9 235.7c2.3 2.5 3.4 3 3.8 3.4 4.7 4.4 4.7 4.4 10.1 8 5.7 3.8 6.1 4.2 12.7 6.8 7 2.7 14.9 5 22.4 5.9-.7 1.3 4.1 3.1 5.3 3.4 11.2 2.9 32.4-.7 43.7-4.2 3.2-1 6.6-2.5 9.7-3.8.3 1.4-.4 1.7-1.5 2.5-5.3 3.8-22.7 8.5-29.5 9.7-5.4 1-12 .6-11.2 2.5-2.3 0-4.5-.3-6.8-.4-25.2-1.8-46.5-11.3-64.1-29.5 3.1-.3 1.9-2.6 2.1-5.1 1.1.8 2.9 2.7 3.3.8z"/><path fill="#958A8C" d="M515.4 197.7c.4 1.3.8 2.5 1.3 3.8-8.5.5-17.3 2.8-25.1 5.5-1.5-2.1-1.8-1.6-1.9-1.7-.5-1.2-1.8-14.2-2.1-17.1 0-.4-1.3-1-1.3-1.1-.2-1.5.1-3.1 0-4.6 3.5-.8 6.4.5 9.5-1.7 6.7.8 12.7-2.4 16.5-.8 0 6.1 1.4 11.9 3.1 17.7z"/><path fill="#7E7377" d="M520.9 199c3.4 13.7 9 27 20.7 35.9-.2 2.4.9 4.7-2.1 5.1-10.6-11-18-24-22.8-38.4-.4-1.3-.9-2.5-1.3-3.8 3.6 4.2 1.5-.3 5.5 1.2z"/><path fill="#645A5E" d="M516.7 201.5c4.8 14.4 12.2 27.4 22.8 38.4 17.6 18.2 38.9 27.8 64.1 29.5-.3 3.8-13.3 11.2-16.2 12.2-10.4 3.6-17.3-1.1-24.7 2.1-6.3-2.5-12.1-5.6-17.9-8.9-.4-.3-.8.6-1.1.4l-11-7.6c-.2-.2.5-.6.4-.6-5.1-4.1-12.2-10.2-16.5-15-2.4-2.7-5.7-9-8.4-11-.1-.1.2-.7-.2-.8-1.3-.3-21.8 7.3-24.7 8.9-1-.9-7.4-11.8-7.2-12.4 4.9-3.4 9.6-7.1 14.3-10.8 1.2-.9 5.1-2.1 5.1-4-2.2-3.9-3.1-8.5-4.6-12.7-.5-1.4-1.2-1-1.3-1.1 0-.1.6-1.6-.4-2.5 0 0-.1-.5.4-.4.1.1.4-.4 1.9 1.7 7.9-2.6 16.6-4.9 25.2-5.4z"/><path fill="#151514" d="M532.7 267.8c-1.2 1.1-2.6 1.9-3.8 3-.2-.9 1-1.2.8-1.9-.3-1-13.2-12.6-13.9-15.8 0 0 .2-.8.8-.8 4.2 4.8 11.4 10.9 16.5 15 0-.2-.6.3-.4.5z"/><path fill="#241E20" d="M498.7 227.7c1.2 1.6 5.4 6.5 5.7 7.4 1.8 5-7.6-6.2-5.7-7.4z"/><path fill="#958A8C" d="M632.2 53.9c.2 4.1-4.4 7.3-7.6 9.5.2 3.3-3.1 3.5-4.2 5.1-.5.6-1.7 4.1-2.1 4.6-.3.4-.8-.1-1.3.6-4.4-.2-10.8 0-15.2.4 7.2-4.3 8.3-13.6 10.5-21.1 3.2 0 6.3-.1 9.5 0 .3 0 0-.9.6-.8 0 0-.1.8.2.8 3.3.2 6.5.4 9.6.9z"/><path fill="#7E7377" d="M656.3 84.2c0 .4.2 1.1-.2 1.3-1.9.7-5.6-1.9-7.8-.4-9.5-4.4-28-7.2-38.4-6.8-.8-.4-.8-.4-1.7-.8 3.2-.4 6.8.6 9.5-1.3 8.6.2 6.3-1.1-.6-1.3 0-.5-.1-1.1 0-1.3 13.9.6 26.6 4.8 39.2 10.6z"/><path fill="#B8ACB0" d="M601.9 74.1c4.4-.4 10.8-.6 15.2-.4-.1.1 0 .8 0 1.3-4-.1-11.3-.1-13.9 3-9.3 1.3-18.3 3.2-27 6.8-1.2.6-3.8-2.1-4-2.1-2.5-.2-20.7 13-23.6 15.6-3.9 3.5-13.6 13.8-16.7 17.9-2.5 3.3-10.7 14.5-5.5 13.7-1.3 2.6-2.8 6.8-3.8 9.7-1.7 4.9-3.3 10.6-4.2 15.6-.1.8-.3 1.7-.4 2.5-4.8.2-2.8-6.4-1.3-12 1.8-6.5 5.4-12.4 5.5-13.1.3-4.7-5.9 2.2-7 2.7-4.8 2.7-11.4 3.9-16 6.3-6.1-.4-5.2-1.7-5.5-1.7-.4.1.2 1.6-1.1 1.3.7-3 .4-4 .4-4.2.4-1.6.3-2.7.4-3 2.4-9.9 3.6-10.8 9.3-19 .1-.1 1 .2 1.3-.2 1.8-2.6 7.2-10.3 8-12.2.2-.5-.5-.8-.4-1.1.7-1.7-.1-1.9 0-2.1.8-2.5 10.4-12.6 12.7-13.5.7-.3 2.2-.1 3.8-.8 4.1-2 8.1-6.4 12.2-8.6.2-.4-.6-2-.8-2.7 4.2-1.7 16.4-9.5 19-10.1.2 0-1 1.1 3 0 .1 0 0 .7 1.1.4 4-1.2 11.8-4.5 16.9-6.3.6-.2.5-1.1 1.1-1.3 4.8-1.8 10.2-3.1 15.2-4.6 2.3 5.1-.1 3.8-1.3 6.5-1.8 4.2-3 8.5-5.1 12.7-1 2-3.2 2.3-3 5.9.4.4 13.4-2.7 15.5-2.9z"/><path fill="#B8ACB0" d="M517.9 157.6c-2 13.8-1.2 20.4 1.3 33.8.5 2.5 1.1 5.1 1.7 7.6-3.9-1.5-1.8 3-5.5-1.3-1.7-5.8-3.1-11.6-3.2-17.7-3.8-1.5-9.7 1.7-16.5.8-3.1 2.2-6 .9-9.5 1.7-.2-2.4-.1-6.4 0-8.9 0-.8-.1-1.7 0-2.5.4-4.8 2.7-14.1 3-19.8 1.3-2.6 2.7-7.3 3.4-10.1 1.3.3.6-1.2 1.1-1.3.3-.1-.6 1.3 5.5 1.7 4.7-2.4 11.2-3.6 16-6.3 1-.6 7.3-7.5 7-2.7 0 .7-3.7 6.6-5.5 13.1-1.6 5.5-3.6 12.2 1.2 11.9z"/><path fill="#958A8C" d="M599.3 50.9c.1.2-.1 1.7 1.1 2.5 1.1.2 2.1-.5 3.2-.4 2.9.1 5.9 0 8.9 0-2.3 7.5-3.3 16.8-10.5 21.1-2.1.2-15 3.3-15.6 2.7-.2-3.6 2-3.9 3-5.9 2-4.1 3.3-8.5 5.1-12.7 1.2-2.8 3.6-1.4 1.3-6.5 1-.3 2.2-.8 3.5-.8z"/><path fill="#151514" d="M660.1 93.9c6 4.4 7.3 4.6 13.5 10.5.7 3.1-3.9 2.5-3.8 4.6-3.1-2.6-3.7-3.6-7.6-6.3-6.5-4.5-13.3-7.9-20.9-10.1-.4.6-.4.6-.8 1.3-1.5-1-14.3 2.5-14.6 3.2-.8 2.2 5.8 1.9 11 3.6 9.7 3.1 20.7 9.2 28.3 16 7.5 6.7 9.6 11 14.3 19.4-4.7-5.3-4.7-5.3-9.5-10.5-.5 4-.5 4-1.1 8-1.7-2.7-3.7-4.9-5.9-7.2-1.9-1.9-2.7-2.6-4.6-4.2-.7-.6-1.4-1.1-2.1-1.7-1.3-1-2.8-2-4.2-3-11.4-7.6-19.8-10.7-33.5-12.7-1.1.7-.5 2.5-.6 4.2-2.1-1-6-.4-6.3-.4-.3 0-1.9-2.1-5.9 0-.8-3.6.8-5.4-13.3-1.3-7.3 2.1-15 6.5-21.3 10.8.8 2.5 1.3 4.3 3 6.5-1 .1-3.1 0-3.2-.8-1.1 2.2-4.3 4.3-6.8 5.5l-.2 4.6c-.9-.6-5.5-3.5-6.1-3.4-8.2 9.5-12.7 21.1-15.8 33.1 0 1 3.1 2.5 3.8 2.7.4 8.1-2.2 12.5 7.6 10.8.3-.4-1.8-3.2-2.5-6.1 2.7 1.8 2.7 6.4 6.3 6.8-5.5.1-11.3-.4-16.5 1.9 2.3 13 7.6 21.9 15.6 31.9 1.1 1.4 8.4 10.8 9.1 11 .1 0 2.2-1.2 1.9-2.1.1.1.3-.1.4 0 5 4.3 6.7 6.5 13.1 9.7-.4 3.8-9.2-2.6-9.3 5.9-5.7-3.2-9.9-6.1-14.8-10.5-5.4-4.9-10.6-11.1-14.3-17.3-3.2-5.4-5.4-11.4-8-17.1.1 7.9 5.6 16.7 4.6 25.7 2.2 4.6 5.6 8.3 8.4 12.4 1.8 2.6 4.3 5 5.9 7.4.5.7.3 1.9.8 2.7-2.7-.2-2.7-.2-5.5-.4-.4-.4-1.4-.9-3.8-3.4-11.3-11.8-21.2-29.5-24.5-45.6-2.6-12.7-2-22.4.8-35 6.3-27.6 26.5-52.7 52.3-64.5 30.6-13.9 57.1-11.3 86.6 3.4z"/><path fill="#B8ACB0" d="M704.4 198.6c-2.4 7-4.9 12.7-8.9 19-10.3 16.5-25.2 29.9-43 37.5-3.1 1.3-6.5 2.8-9.7 3.8-1.5-3.2-4.4.7-5.1-2.5 10.8-3.1 19.3-6.9 28.7-13.1 6.9-4.6 9.6-7.1 15.2-13.1.5-.6 1.1-1 1.7-1.7 2.1-2.4 3.2-3.7 5.1-6.3 2.2-3.1 3.7-5.1 5.5-8.4.2-.3.3-.6.4-.8 3.2-6.1 6.7-14.4 8-21.1 1 3.3 1 3.3 2.1 6.7z"/><path fill="#4C4448" d="M609.9 78.3c10.4-.4 28.9 2.4 38.4 6.8 7.4 3.4 11.2 8.4 11.8 8.9-29.5-14.7-56-17.4-86.5-3.4.2-1.5 3.2-2.9 4.9-3.8.4-.2.8.4.8.4.3-.2-.1-1.3 4.2-3 5.2-2.1 14.5-3.7 20.2-4.6.3-.1.1-.8.4-.8 2 .3 3.9-.4 5.8-.5z"/><path fill="#645A5E" d="M708.2 161.4c-2.6-1-4.1-8.9-5.9-11.2-1.3-1.7-2.8-2.2-3-2.3-2.1-7-5.5-13.4-8.9-19.8-.1-.3-.3-1.4-.4-1.7.9-2.5 1.1-1 4.9-.4 10.1 12.1 12 20.9 13.3 35.4z"/><path fill="#312F30" d="M690 126.4c.1.2.3 1.4.4 1.7.6 1-.5 2-1.7 2.5-1.1-2.4-6.8-10-8.9-12.2-3.1-3.5-6.6-6.3-10.1-9.3-.1-2.1 4.5-1.6 3.8-4.6 7.1 6.7 11.9 13.4 16.5 21.9z"/><path fill="#7E7377" d="M708.2 161.4c.4 5 1.1 9.7.8 14.8-2.1.5-1.5-4.1-5.5-4.2-.2-4.4-.9-8.7-1.7-13.1-.6-3.7-1.4-7.4-2.5-11 .1.1 1.6.6 3 2.3 1.8 2.4 3.3 10.2 5.9 11.2z"/><path fill="#958A8C" d="M709 176.2c-.4 8.9-1.8 14.1-4.6 22.4-1.1-3.4-1.1-3.4-2.1-6.8 1.3-6.6 1.6-13.1 1.3-19.8 4 .1 3.3 4.7 5.4 4.2z"/><path fill="#645A5E" d="M683.3 228.5l-1.7 1.7c-2.2 1-3.7 3.5-6.5 2.5-1 3.2-7.1 3.8-8.6 10.5-9.4 6.2-17.9 9.9-28.7 13.1-5.4 1.6-10.9 3.1-16.5 3.8-3.5-3.8-6.1-.1-6.5 0-2.9.4-6.9.4-9.9.4-3.4 0-7.6-.4-11-.8-7.4-.9-15.4-3.2-22.4-5.9-2.2-5.3-8.3-8.2-12.7-16.7-3-5.8-2.5-6.1-2.5-11 0-.1-2-.6.4-.6 4.8 4.4 9.1 7.3 14.8 10.5 6.7 3.8 13.9 7.2 21.5 8.9l.6 3c15.7 2.7 30.9-.4 46.4-1.7 6.6-1.3 15.4-6.3 17.3-6.8 2.1-.5 5.3.6 8-.8.4-3-3-2.6-2.7-7.2 1.2-.9 3.5-2.7 4.6-3.8h8.2c-3.4-1.5-3.7-1.8-.2-3.8 2.9 3.6 4.6 3.2 8.1 4.7z"/><path fill="#312F30" d="M556.7 225.6c-2.4 0-.4.5-.4.6 0 4.8-.4 5.2 2.5 11 4.3 8.5 10.5 11.3 12.7 16.7-6.6-2.5-6.9-3-12.7-6.8 1.1-1.6-1.2-2.3-4.6-7.6-.6-.9-.4-2-.8-2.7-1.6-2.4-4.1-4.7-5.9-7.4 1.4-2.5-1.1-7-3-8.6 2.2-1.1-3.5-8.7-2.1-12.4 3.7 6.1 9 12.2 14.3 17.2z"/><path fill="#958A8C" d="M642.8 258.9c-11.2 3.5-32.5 7.2-43.7 4.2-1.2-.3-6-2.1-5.3-3.4 3.4.4 7.6.9 11 .8 5.5 1 11 .3 16.5-.4 5.6-.7 11-2.2 16.5-3.8.6 3.3 3.5-.6 5 2.6z"/><path fill="#645A5E" d="M544.9 235.7c-.4 1.9-2.2 0-3.4-.8-11.7-8.8-17.2-22.2-20.7-35.9-.6-2.5-1.2-5.1-1.7-7.6l1.3-1.3c3.3 16.1 13.2 33.8 24.5 45.6z"/><path fill="#312F30" d="M554.2 239.5c3.5 5.3 5.7 6 4.6 7.6-5.4-3.6-5.4-3.7-10.1-8 2.8.2 2.8.2 5.5.4z"/><path fill="#645A5E" d="M608.2 77.5c.8.4.8.4 1.7.8-1.9.1-3.8.7-5.7.4-.3.1-.1.8-.4.8-5.7.9-15.1 2.6-20.2 4.6-4.3 1.7-3.9 2.8-4.2 3 0 0-.4-.7-.8-.4-1.6.9-4.6 2.3-4.9 3.8-25.8 11.8-46 36.9-52.3 64.5h-3c.9-5.1 2.5-10.7 4.2-15.6 5-2.5 9.4-13.4 13.1-19.2 2-3.1 8.4-7.3 5.1-10.3 9.4-10.2 22.5-20 35.4-25.3 8.7-3.6 17.7-5.5 27-6.8 1.7-.1 3.3-.1 5-.3z"/><path fill="#958A8C" d="M617.1 75c7 .2 9.3 1.5.6 1.3-2.7 1.9-6.3.9-9.5 1.3-1.7.2-3.3.2-5.1.4 2.7-3.2 9.9-3.1 14-3z"/><path fill="#BDB9BA" d="M576.1 84.7c-12.9 5.3-26 15.1-35.4 25.3-5.1 5.5-11 13.2-14.3 19.8-5.2.8 3-10.4 5.5-13.7 3.1-4.1 12.7-14.5 16.7-17.9 3-2.6 21.1-15.8 23.6-15.6.2 0 2.8 2.6 3.9 2.1z"/><path fill="#645A5E" d="M522.6 139.5c1-2.9 2.5-7.1 3.8-9.7 3.3-6.6 9.3-14.4 14.3-19.8 3.4 3.1-3.1 7.2-5.1 10.3-3.7 5.8-8 16.7-13 19.2z"/><path fill="#7E7377" d="M521.3 155.1c-2.9 12.6-3.4 22.3-.8 35l-1.3 1.3c-2.5-13.4-3.3-19.9-1.3-33.8.1-.9.3-1.7.4-2.5h3z"/><path fill="#312F30" d="M605.2 237c.1.7-.1 1.6 0 2.3 5 2.1 10.9 2.3 15.6 5.3-.1.1.5.4 0 1.7-9.3 1.2-18.6.8-27.8-1.3-7.6-1.7-14.8-5.1-21.5-8.9 0-8.5 8.8-2.1 9.3-5.9 7.4 3.8 16.1 6.4 24.4 6.8zm57-134.2c3.9 2.7 4.5 3.7 7.6 6.3 3.5 3 7 5.8 10.1 9.3-3.5 1.1-3.5 1.1-7 2.1-2.1-1.7-5-4.9-7.8-3.8-7.6-6.8-18.6-12.9-28.3-16 4.5-2.5 19.1 2.6 23.4 3 1.4 0 1.3 0 2-.9z"/><path fill="#312F30" d="M662.2 102.8c-.7.9-.6.9-1.9.8-4.3-.3-18.9-5.4-23.4-3-5.2-1.7-11.8-1.3-11-3.6.3-.7 13-4.2 14.6-3.2.4-.6.4-.6.8-1.3 7.6 2.4 14.4 5.8 20.9 10.3zM542.4 208.3c-1.4 3.8 4.3 11.3 2.1 12.4 1.9 1.6 4.3 6.1 3 8.6-2.8-4.1-6.3-7.9-8.4-12.4 1-9-4.5-17.8-4.6-25.7 2.5 5.7 4.7 11.7 7.9 17.1zm75.5-99.2c-.2 3.2.4 6.5-.4 9.7l-.4.4c.8-2.8-2-3.7-4.6-5.1 2.2.6 2.2.6 4.4 1.3.4-3.8-5.3-3.1-7.8-5.1 6.6-.7-2.2.2 2.5-1.7.3.1 4.2-.5 6.3.5z"/><path fill="#312F30" d="M611.6 108.7c-4.7 1.9 4.1 1-2.5 1.7-1.4.1-2.1-.5-3 .8-.1-.7-.3-1.9-.4-2.5 4-2.1 5.6 0 5.9 0zm91.9 63.3c.3 6.7 0 13.3-1.3 19.8-1.3 6.7-4.8 15-8 21.1.4-3.2-.6.5-1.3-4.2 0-.2.3-1.4 0-3 3.1.6 2.8-2.7 3-3 2.1-3.5 5-3.7 3-7-.1-.1-1.6-1.5-1.7-1.5 1.9-3.7-1.4-6.6 3-7.8-.9-7 3.7-6.3 2.5-13.5-.1-.7-3.7-2.4-.8-14.1.7 4.4 1.5 8.8 1.6 13.2zm-15.1 50.2c-1.9 2.6-2.9 3.9-5.1 6.3-3.5-1.6-5.2-1.2-8-4.6v-.4c12 3.7 4-7.7 13.1-1.3z"/><path fill="#4C4448" d="M681.6 230.2c-5.6 6-8.3 8.5-15.2 13.1 1.6-6.8 7.7-7.4 8.6-10.5 2.9.9 4.4-1.6 6.6-2.6z"/><path fill="#312F30" d="M694.3 212.9c-.1.3-.3.5-.4.8-2.3-1.9-3.2-1.6-3.4-1.7.2-1.7.9-3.1 2.5-3.4.6 4.8 1.7 1.1 1.3 4.3z"/><path fill="#4C4448" d="M699.3 147.9c-.1-.1-.9.1-2.1-1.1-1.7-1.6-2.2-6.3-5.9-4.9-.1-2.2-.8-2.6-.8-3-.3-1.9.5-3.4-1.7-8.4 1.2-.5 2.3-1.5 1.7-2.5 3.3 6.5 6.7 12.9 8.8 19.9z"/><path fill="#BDB9BA" d="M672.8 221.8c-1.6 1.9-3.6 4.2-5.5 5.9-1.2 1-3.4 2.9-4.6 3.8-4.6 3.4-14.6 8.7-20 9.7-.2 0-.6 2.1-.6-.8 3.7-1.5 7.6-3.7 11-5.9 1.9-1.3 6.2-2.6 3.4-4.6 2-1 3.1-3.4 3.8-5.5 2.1.7 4.2 1.3 6.3.4 6.1-2.5 6.4-11 2.5-14.8 4.2-7.5 7.4-15.1 10.5-23.2.4.6.9 1.2 1.5 1.7 2.9-1.4 8.7-1.4 8.6-3.4 0 .3.8.6-.4 6.1-2.2 9.3-10.3 23.2-16.5 30.6z"/><path fill="#958A8C" d="M662.6 231.5c-.2 4.5 3.1 4.1 2.7 7.2-2.7 1.5-5.9.3-8 .8-1.9.5-10.7 5.5-17.3 6.8-15.5 1.3-30.7 4.4-46.4 1.7l-.6-3c9.2 2.1 18.5 2.5 27.8 1.3 5.1-.7 9.9-2.2 14.8-3.8 2.1-.7 4.3-1.2 6.3-2.1 0 3 .4.9.6.8 5.5-1 15.5-6.4 20.1-9.7zm12.7-8v.4c-3.5 2-3.2 2.3.2 3.8h-8.2c1.9-1.7 3.8-4 5.5-5.9-.2 1.4 1.5 1.3 2.5 1.7z"/><path fill="#312F30" d="M621.3 260.2c-5.4.7-11 1.4-16.5.4 3 0 7 0 9.9-.4.4-.1 3.1-3.8 6.6 0z"/><path fill="#7E7377" d="M679.5 136.1c1.7 3 3.3 5.7 4.6 8.9-3.2-2-7-3.6-11-3-1.2-2.7-2.6-5.9-4.2-8.4.5-4 .5-4 1.1-8 4.8 5.3 4.8 5.3 9.5 10.5z"/><path fill="#969698" d="M684.1 145c1.7 4 3.6 8.2 4.6 12.4.4 1.5-.4 1.4-.4 1.5-1.2 1.5-3.2 1.9-4.6 3 .5-.8.5-.8 1.1-1.7-2.6.6-2.6.6-5.3 1.3-.1-4.4-4.3-14.9-6.3-19.4 3.9-.8 7.7.9 10.9 2.9z"/><path fill="#474848" d="M696 202.8c-1.2-.6-2.7 1.8-3 3 .3 1.6 0 2.7 0 3-1.6.3-2.4 1.7-2.5 3.4-.2-.1-.5.3-.6.4-.3-.5-.3-.5-.6-1.1-.1-.9 4.4-13.2 5.1-14.6.9-.5 2.6-1.8 3-2.5.1 0 1.6 1.4 1.7 1.5 1.8 3.2-1 3.4-3.1 6.9z"/><path fill="#645A5E" d="M679.9 118.4c2 2.3 7.8 9.8 8.9 12.2 2.2 5 1.4 6.6 1.7 8.4-4.3-1.4-1.9.7-1.7 2.1.4 2.4.8 2.5 1.9 5.1.2-1.5.7-2.3.6-3.8v-.4c3.7-1.4 4.2 3.2 5.9 4.9 1.2 1.2 2 1 2.1 1.1 1.1 3.6 1.9 7.3 2.5 11-2.9 11.7.7 13.4.8 14.1 1.2 7.2-3.4 6.5-2.5 13.5-4.3 1.2-1.1 4.1-3 7.8-1.9-.4-2.4 1.4-3 2.5-.7 1.4-5.1 13.7-5.1 14.6.3.5.3.5.6 1.1.2-.1.4-.5.6-.4.2.1 1.1-.2 3.4 1.7-1.8 3.4-3.2 5.4-5.5 8.4-9-6.4-1.1 5.1-13.1 1.3-1-.3-2.6-.2-2.5-1.7 6.3-7.3 14.3-21.3 16.5-30.6 1.3-5.5.4-5.8.4-6.1.3-2.3.7-4.7 1.3-7v-8.4c-.4-3.7-1.8-7.2-2.5-10.8 0-.1.8 0 .4-1.5-1-4.3-2.9-8.4-4.6-12.4-1.4-3.2-3-5.9-4.6-8.9-4.7-8.4-6.9-12.7-14.3-19.4 2.8-1.1 5.7 2.1 7.8 3.8l7-2.2z"/><path fill="#D8D0D1" d="M690.5 139.1c0 .3.7.7.8 3v.4c0 1.8-.9-.2-2.5-1.3-.3-1.5-2.6-3.5 1.7-2.1zm6.3 21.9c-.8-.4-.8-.4-1.7-.8-.2-.7-2.1-1.1.6-5.5 1 2.1.5 4 1.1 6.3z"/><path fill="#312F30" d="M696.8 161c0 .2 1.5 2 1.7 2.7-4.8-.4-3.3-3.3-3.4-3.6.9.5.9.5 1.7.9z"/><path fill="#3A3034" d="M691.3 142.5c0 1.5-.4 2.3-.6 3.8-1.1-2.6-1.5-2.6-1.9-5.1 1.6 1 2.6 3.1 2.5 1.3z"/><path fill="#B8ACB0" d="M699.5 174.5c.8-.3-.9 4.2-1.3 4.2-2.3-.1.2-3.7 1.3-4.2z"/><path fill="#969698" d="M697.2 194.3c-.4.8-2.1 2-3 2.5.7-1.1 1.1-2.8 3-2.5z"/><linearGradient id="e" gradientUnits="userSpaceOnUse" x1="677.787" y1="168.376" x2="684.215" y2="174.473"><stop offset="0" stop-color="#7c777c"/><stop offset="1" stop-color="#5e595d"/></linearGradient><path fill="url(#e)" d="M689.6 185.1c0 1.9-5.8 2-8.6 3.4-.6-.5-1-1.1-1.5-1.7-.7-1-2.5-6.8-4.4-8.4-2 0-4.1-.1-6.1 0-3.4.3-2.8-4.2-2.5-7.4 0-.4 1.3 1.3.4-3.6 2.7.3 9.1 1.1 11.4 0 1.8-1.9 3.4-3.9 5.5-5.5 1.4-1.1 3.4-1.5 4.6-3 .8 3.6 2.1 7.1 2.5 10.8v8.4c-.6 2.3-1 4.7-1.3 7z"/><path fill="#312F30" d="M683.7 161.9c-2.1 1.6-3.7 3.6-5.5 5.5.3-2 1.3-3.8 1.3-5.9 2.6-.6 2.6-.6 5.3-1.3-.6.8-.6.8-1.1 1.7zM574 124.7l.8.8c-2.3 2.4-4.8 6-7.4 8-.2.2-1.9-.4-1.9 1.7-1-.7-1.6-1.2-1.7-1.3l.2-4.6c2.4-1.2 5.6-3.3 6.8-5.5.1 1 2.2 1 3.2.9z"/><path fill="#4C4448" d="M579.1 129.4c-2 1.2-7.9 6.9-9.3 8.9-1.5-.8-2.8-2-4.2-3 0-2 1.7-1.5 1.9-1.7 2.6-2 5-5.6 7.4-8 1.2 1.4 3.1 2.3 4.2 3.8z"/><path fill="#646767" d="M612.4 114.2c2.6 1.4 5.4 2.2 4.6 5.1-2.7-.4-8.1-1.2-10.5-.8.1-2.2-.2-4.5-.4-6.8 5.1 2.5 2.7.6 3.6.4.1-.1.1.7 2.7 2.1z"/><path fill="#474848" d="M609 110.4c2.5 1.9 8.2 1.2 7.8 5.1-2.2-.6-2.2-.6-4.4-1.3-2.6-1.4-2.6-2.1-2.7-2.1-.9.2 1.6 2-3.6-.4v-.4c.8-1.4 1.6-.8 2.9-.9z"/><path fill="#312F30" d="M649.5 229.4c-3.5 1-13.9 8.4-13.9 13.1-4.9 1.6-9.6 3.1-14.8 3.8.5-1.3-.1-1.6 0-1.7 1-1.9 9.1-5.2 11.6-6.3 1.1-2.7 6.5-4 7.4-7.6 2-.9 5-2 6.8-3.4 1.8 0 2 1 2.9 2.1zm46.5-26.6c-.1.2.1 3.6-3 3 .3-1.2 1.8-3.7 3-3z"/><path fill="#474848" d="M650 229.8c1 1.1 3 3.5 3 4.6-3.4 2.2-7.3 4.4-11 5.9-2.1.9-4.2 1.4-6.3 2.1 0-4.7 10.5-12.1 13.9-13.1 0 .1.1.2.4.5z"/><path fill="#7E7377" d="M666.4 224.7c-.4-4.6-.4-4.6-.8-9.3-.2-2.1 2.3-3.5 3.4-5.5 3.9 3.9 3.5 12.4-2.6 14.8zm-109.2-57.4c3 6.1 12 3.9 13.9 9.7 1.2 7 6 11.9 10.5 16.9 3.7 4 7.8 8.5 12.7 11 .2 2.1-.5.6-2.1.4-9.3-4.1-18.5-10.1-28.7-11.4-3-6-5.2-14.8-6.3-16-3.7-.4-3.6-4.9-6.3-6.8-.3-1.1-.8-2.9-.4-3.8 2.1.2 4.4-.1 6.7 0z"/><path fill="#474848" d="M592.2 205.3c1.6.2 2.3 1.7 2.1-.4 6.8 3.5 16.5 5.1 24 3.8-2.9 4.4-21.8 4.5-28.1 4.2-3.8-.2-9.5-2.7-9.5 0-.9-.5-1.5-1.6-2.7-1.7-5.2 4.6-5.2 4.6-10.3 9.3-.1-.1-.3.1-.4 0-3.5-3-6.5-6.9-10.1-9.3.9-.5 4.7-3.6 5.9-4.6-.6 3 9.8.4 9.7-1.1-.1-.7-4.4-3.4-4.6-3.6-.6-.7-1.1-1.7-1.7-2.5 7.7.5 20.8 8 25.7 5.9z"/><path fill="#7E7377" d="M656.3 120.5c-2.3 3.1-5.8 5.9-8.4 9.1-3.6 4.4-6.3 9.5-10.1 13.7-4.9-5.8-12-9.6-19.4-11 2.3-3.5.3-8.2.8-12.2 7.8 2.7 15.9 4.6 23.4 8 4.7-5.3 4.7-5.3 9.5-10.5 1.4.9 2.9 1.9 4.2 2.9z"/><path fill="#474848" d="M663 126.4l-11.8 12.4c-.1.6 3.7 5.9 5.9 10.8-1.5-.1-2.1 2.5-4.6 5.3-1.8 1.9-4 3.5-5.9 5.3-.4-1.1-3.8-6.9-4.6-8 1.2-.9-.7-3.9-1.7-5.5 6-8.2 11.7-16.5 18.1-24.5 2 1.7 2.8 2.3 4.6 4.2z"/><path fill="#645A5E" d="M658.4 122.2c-6.5 7.9-12.1 16.3-18.1 24.5-.7-1.2-1.6-2.3-2.5-3.4 3.8-4.2 6.5-9.3 10.1-13.7 2.6-3.2 6.2-6 8.4-9.1.7.6 1.4 1.1 2.1 1.7z"/><path fill="#312F30" d="M550.4 167.3c-.4.9.1 2.7.4 3.8.8 2.9 2.9 5.7 2.5 6.1-9.8 1.7-7.2-2.6-7.6-10.8.7.3 3.9.9 4.7.9z"/><path fill="#151514" d="M666.8 167.3c.9 4.9-.4 3.2-.4 3.6-.2 3.2-.8 7.7 2.5 7.4-1.2 0-4.9-.2-5.5.2-2.6 9.6-6.7 18.7-11.4 27.4 3.3 2.9 6.9 5.4 10.5 7.8-2 2.5-1.6 7.5-2.5 10.5-.7 2.1-1.8 4.5-3.8 5.5-3 1.5-3.1-.1-6.3 0l-.4-.4c-1-1.1-1.2-2.1-3-2.1 8.5-6.8.8-8.6-6.1-15.2-7.1 4.5-15.1 7.3-23 9.9-.8 14.4.5 15.8 14.1 12 2.8-.8 5.6-2.2 8.2-3.4-.9 3.6-6.3 4.9-7.4 7.6-2.5 1.1-10.6 4.4-11.6 6.3-4.7-3-10.6-3.1-15.6-5.3-.1-.8.1-1.6 0-2.3-.5-3.4-.5-13.3-.8-14.1-.3-.5-.3-.5-.6-1.1-.8.1-1.6-.2-2.3-.4 2.2-2.2 9.6-.9 13.3-1.7 3.8-.8 23.1-9.3 26.6-11.8 10.6-7.7 15.4-22.4 17.1-34.8.6-4.4-.3-13.8 1.7-15.2-1.1-1.3-2.4-5.3-2.5-7.4 2.4 5.5 4.2 10.8 5.5 16.7 1.9 1 3 .3 3.7.3z"/><path fill="#312F30" d="M657.1 149.6c.1.3.3.5.4.8.1 2.1 1.5 6.1 2.5 7.4-2 1.4-1.1 10.8-1.7 15.2-1.7 12.4-6.5 27.1-17.1 34.8-3.5 2.5-22.8 11-26.6 11.8-3.7.8-11.1-.6-13.3 1.7-11-3.7-9.5-2.5-20.7-8.4 0-2.7 5.7-.2 9.5 0 6.3.3 25.1.2 28.1-4.2 20.9-3.5 35.5-28 28.3-48.5 1.9-1.8 4.1-3.4 5.9-5.3 2.7-2.8 3.3-5.4 4.7-5.3z"/><path fill="#B8ACB0" d="M596.4 122.2c4 3.6 1.6 5.9 3.8 10.5-12.7 3.1-24.1 14.5-27.8 27-.9-1.5-1.5 0-3.6-.4-.5-.1-3-1.8-8.2-1.3 2.7-7.6 4.9-11.6 9.3-18.4.6-1-.1-1.3 0-1.5 1.4-2 7.3-7.7 9.3-8.9.3-.2.6.7 1.1.4 5.1-2.9 10.3-5.3 16.1-7.4z"/><path fill="#969698" d="M572.3 159.8c-1.7 5.7-2.3 11.3-1.3 17.3-1.9-5.8-10.9-3.6-13.9-9.7 1.3-3 2.3-6.2 3.4-9.3 5.2-.6 7.7 1.2 8.2 1.3 2.1.3 2.8-1.2 3.6.4z"/><path fill="#645A5E" d="M592.2 205.3c-4.9 2.1-18-5.4-25.7-5.9-1.2-1.7-2.1-3.6-3-5.5 10.2 1.3 19.3 7.4 28.7 11.4z"/><path fill="#312F30" d="M557.2 211.2c3.6 2.4 6.6 6.2 10.1 9.3.3.9-1.8 2.1-1.9 2.1-.7-.1-8-9.6-9.1-11 0-.6.7-.3.9-.4z"/><path fill="#55535A" d="M563.1 206.6c1.7-1.4 3.5-3 5.1-4.6.2.2 4.6 2.9 4.6 3.6.1 1.4-10.4 4-9.7 1z"/><path fill="#969698" d="M617.1 119.2l.4-.4c.5.6.9 1 1.7 1.3-.5 4 1.5 8.8-.8 12.2-7-1.3-11.2-1.3-18.1.4-2.2-4.6.2-7-3.8-10.5 1.6-.6 9.6-3.7 10.1-3.8 2.4-.4 7.7.4 10.5.8z"/><path fill="#151514" d="M618.3 132.3c7.4 1.4 14.5 5.1 19.4 11 .9 1.1 1.8 2.2 2.5 3.4 1 1.6 2.9 4.5 1.7 5.5-1.1-1.5-3.8-4.2-5.3-5.5-32.7-28.4-76.6 8.6-55.1 47.2-4.6-5-9.3-9.9-10.5-16.9-1.1-6-.4-11.6 1.3-17.3 3.7-12.5 15.1-23.9 27.8-27 7-1.7 11.2-1.7 18.2-.4z"/><path fill="#312F30" d="M665.6 215.4c.4 4.6.4 4.6.8 9.3-2.2.9-4.2.2-6.3-.4.9-3 .5-8 2.5-10.5.9.5 2 1.5 3 1.6zm-9.3 14.4c2.9 2-1.5 3.4-3.4 4.6.1-1.2-2-3.5-3-4.6 3.3-.1 3.4 1.5 6.4 0z"/><path fill="#7FC0E6" d="M675.6 234.6c-35.1 35.1-92.1 35.1-127.3 0L612 171l63.6 63.6z"/><path fill="#FFE07F" d="M675.6 107.4c35.1 35.1 35.1 92.1 0 127.3L612 171l63.6-63.6z"/><path fill="#7FC0E6" d="M548.4 107.4c35.1-35.1 92.1-35.1 127.3 0L612 171l-63.6-63.6z"/><path fill="#DD8EA2" d="M548.4 234.6c-35.1-35.1-35.1-92.1 0-127.3L612 171l-63.6 63.6z"/><g font-family="Times,serif" font-size="48"><text transform="translate(54.668 153)">A</text><text transform="translate(60 225)">2</text><text transform="translate(145.992 153)">B</text><text transform="translate(150 225)">4</text><text transform="translate(235.992 153)">C</text><text transform="translate(240 225)">5</text><text transform="translate(594.668 135)">A</text><text transform="rotate(-90 381.504 -194.496)">C</text><text transform="rotate(180 314.666 103.5)">A</text><text transform="rotate(90 246.504 401.496)">B</text></g></svg>