<svg xmlns="http://www.w3.org/2000/svg" width="576" height="576"><path fill="#0081CD" d="M0 0h576v576H0z"/><path fill="#FEC200" d="M72 576H36V0h36v576zM144 0h-36v576h36V0zm72 0h-36v576h36V0zm72 0h-36v576h36V0zm72 0h-36v576h36V0zm72 0h-36v576h36V0zm72 0h-36v576h36V0zm72 0h-36v576h36V0z"/><path opacity=".667" fill="#FFF" d="M576 72H-.9V36H576v36zm0 36H-.9v36H576v-36zm0 72H-.9v36H576v-36zm0 72H-.9v36H576v-36zm0 72H-.9v36H576v-36zm0 72H-.9v36H576v-36zm0 72H-.9v36H576v-36zm0 72H-.9v36H576v-36z"/></svg>