<svg xmlns="http://www.w3.org/2000/svg" width="1260" height="540"><g stroke="#000"><path fill="#FFE07F" d="M90 495l171-198L18 522l243-279L18 18l72 27 63 36 1089 189L207 405l-54 54-63 36z"/><g fill="#0081CD"><circle cx="18" cy="18" r="9"/><circle cx="90" cy="45" r="9"/><circle cx="153" cy="81" r="9"/><circle cx="18" cy="522" r="9"/><circle cx="90" cy="495" r="9"/><circle cx="153" cy="459" r="9"/><circle cx="207" cy="405" r="9"/><circle cx="261" cy="297" r="9"/><circle cx="261" cy="243" r="9"/><circle cx="1242" cy="270" r="9"/></g><g fill="#BC1E46"><circle cx="207" cy="135" r="9"/><circle cx="243" cy="351" r="9"/><circle cx="243" cy="189" r="9"/></g></g></svg>