<svg xmlns="http://www.w3.org/2000/svg" width="594" height="594"><path fill="#7FC0E6" stroke="#0081CD" stroke-width="2" d="M126 144l18-18L558 18l18 18-90 234-18 9-45-72-171 279-54 36-126-45z"/><path fill="#BC1E46" d="M584 10v574H10V10h574m1-1H9v576h576V9z"/><path fill="none" stroke="#BC1E46" d="M297 9v576M9 297h576M153 9v576M9 153h576m-504 0V9M9 81h144m-36 0v72m-36-36h72m-18 0v36m-18-18h36M9 441h288m144-144V9m72 288V9m-72 72h144m-36 0V9m-36 36h72m-18 0V9m-18 18h36M225 441v144m-72-72h144m-108-72v72m-36-36h72m216-252h144m-108 0v72m-36-36h72"/></svg>