<svg xmlns="http://www.w3.org/2000/svg" width="756" height="342"><path d="M387 99h360M387 243h360" fill="none" stroke="#0081CD" stroke-width="2"/><g fill="#0081CD"><path d="M9 9h324v324H9z" opacity=".333"/><circle cx="99" cy="99" r="72" opacity=".333"/><circle cx="243" cy="99" r="72" opacity=".333"/><circle cx="243" cy="243" r="72" opacity=".333"/><circle cx="99" cy="243" r="72" opacity=".333"/><circle cx="171" cy="171" r="36" opacity=".333"/><circle cx="567" cy="135" r="36" opacity=".333"/><circle cx="567" cy="207" r="36" opacity=".333"/><circle cx="465.2" cy="171" r="72" opacity=".333"/><circle cx="668.8" cy="171" r="72" opacity=".333"/><circle cx="567" cy="171" r="72" opacity=".333"/></g><g fill="none" stroke="#333"><circle cx="99" cy="99" r="72" opacity=".333"/><circle cx="243" cy="99" r="72" opacity=".333"/><circle cx="243" cy="243" r="72" opacity=".333"/><circle cx="99" cy="243" r="72" opacity=".333"/><circle cx="171" cy="171" r="36" opacity=".333"/><circle cx="567" cy="135" r="36" opacity=".333"/><circle cx="567" cy="207" r="36" opacity=".333"/><circle cx="465.2" cy="171" r="72" opacity=".333"/><circle cx="668.8" cy="171" r="72" opacity=".333"/><circle cx="567" cy="171" r="72" opacity=".333"/></g></svg>