<svg xmlns="http://www.w3.org/2000/svg" width="612" height="612"><g fill="none" stroke-width="2"><path d="M555.4 450L306 594l-144-38.6M555.4 162L306 18 56.6 162 18 306" stroke="#7FC0E6"/><g stroke="#000"><path d="M56.6 450L306 18l249.4 432z"/><path d="M56.6 162v288L306 594l144-38.6M162 56.6L306 18m249.4 144v288L594 306"/></g><path d="M306 18l144 38.6L555.4 162 594 306m-38.6 144L450 555.4m-288 0L56.6 450 18 306m38.6-144L162 56.6" stroke="#BC1E46"/></g><g stroke="#000" fill="#FEC200"><circle cx="306" cy="18" r="9"/><circle cx="162" cy="56.6" r="9"/><circle cx="56.6" cy="162" r="9"/><circle cx="18" cy="306" r="9"/><circle cx="56.6" cy="450" r="9"/><circle cx="162" cy="555.4" r="9"/><circle cx="306" cy="594" r="9"/><circle cx="450" cy="555.4" r="9"/><circle cx="555.4" cy="450" r="9"/><circle cx="594" cy="306" r="9"/><circle cx="555.4" cy="162" r="9"/><circle cx="450" cy="56.6" r="9"/></g></svg>