<svg xmlns="http://www.w3.org/2000/svg" width="954" height="594"><g fill="#DD8EA2" stroke="#BC1E46" stroke-width="10"><path d="M509 59h314v116H509z"/><path d="M419 158h116v278H419zm-360 0h116v278H59z"/></g><g fill="#FFE07F" stroke="#FEC200" stroke-width="10"><path d="M491 419h314v116H491zm-333 0h314v116H158zm18-360h314v116H176z"/><path d="M779 158h116v278H779z"/><circle cx="477" cy="117" r="103"/><circle cx="117" cy="117" r="103"/><circle cx="117" cy="477" r="103"/><circle cx="477" cy="477" r="103"/><circle cx="837" cy="477" r="103"/><circle cx="837" cy="117" r="103"/></g><g fill="none" stroke="#0081CD" stroke-width="4"><path d="M855 153l-18 324-27-405z"/><path d="M837 477l-387 36 63-63 324 27 63-369-396 36 351 9"/><path d="M117 477l396-27-9-306"/><path d="M504 144l306-72-369 9 9 432-333-36 18-333h369L81 81h360l-306 63-54-63"/></g><g fill="#7FC0E6" stroke="#000" stroke-width="1.5"><circle cx="90" cy="81" r="26"/><circle cx="135" cy="144" r="26"/><circle cx="837" cy="477" r="26"/><circle cx="810" cy="72" r="26"/><circle cx="855" cy="153" r="26"/><circle cx="900" cy="108" r="26"/><circle cx="441" cy="81" r="26"/><circle cx="504" cy="144" r="26"/><circle cx="450" cy="513" r="26"/><circle cx="513" cy="450" r="26"/><circle cx="117" cy="477" r="26"/></g></svg>