<svg xmlns="http://www.w3.org/2000/svg" width="1377" height="414"><path fill="none" stroke="#0081CD" stroke-width="6" d="M186 23.7L23.7 174.2m211.5 65.3L72.9 390M186 23.7l49.2 215.8"/><path fill="none" stroke="#FFE07F" stroke-width="3" d="M72.9 390l225.4.3M23.7 174.2l211.5 65.3"/><path fill="none" stroke="#0081CD" stroke-width="6" d="M186 23.7l-49.7 215.7M348 174.6l-49.7 215.7M186 23.7l162 150.9"/><path fill="none" stroke="#FFE07F" stroke-width="3" d="M136.3 239.4L348 174.6"/><path fill="none" stroke="#0081CD" stroke-width="6" d="M23.7 174.2L72.9 390m225.4.3l-162-150.9"/><circle fill="#C936C9" stroke="#000" cx="136.3" cy="239.4" r="18"/><circle fill="#C936C9" stroke="#000" cx="235.2" cy="239.5" r="18"/><circle fill="#C936C9" stroke="#000" cx="23.7" cy="174.2" r="18"/><circle fill="#7FC0E6" stroke="#000" cx="186" cy="23.7" r="18"/><circle fill="#C936C9" stroke="#000" cx="348" cy="174.6" r="18"/><circle fill="#7FC0E6" stroke="#000" cx="298" cy="390" r="18"/><circle fill="#7FC0E6" stroke="#000" cx="72.9" cy="390" r="18"/><path fill="none" stroke="#7FC0E6" stroke-width="2" d="M686.2 23.7L523.8 174.2m211.5 65.3L573 390M686.2 23.7l49.1 215.8"/><path fill="none" stroke="#FEC200" stroke-width="6" d="M573 390l225.4.3M523.8 174.2l211.5 65.3"/><path fill="none" stroke="#7FC0E6" stroke-width="2" d="M686.2 23.7l-49.7 215.7m211.6-64.8l-49.7 215.7M686.2 23.7l161.9 150.9"/><path fill="none" stroke="#FEC200" stroke-width="6" d="M636.5 239.4l211.6-64.8"/><path fill="none" stroke="#7FC0E6" stroke-width="2" d="M523.8 174.2L573 390m225.4.3L636.5 239.4"/><circle fill="#FFE07F" stroke="#000" cx="636.5" cy="239.4" r="18"/><circle fill="#009246" stroke="#000" cx="735.3" cy="239.5" r="18"/><circle fill="#FFE07F" stroke="#000" cx="523.8" cy="174.2" r="18"/><circle fill="#009246" stroke="#000" cx="686.2" cy="23.7" r="18"/><circle fill="#009246" stroke="#000" cx="848.1" cy="174.6" r="18"/><circle fill="#009246" stroke="#000" cx="798.1" cy="390" r="18"/><circle fill="#FFE07F" stroke="#000" cx="573" cy="390" r="18"/><path fill="none" stroke="#000" stroke-width="3" d="M1190.2 23.7l-162.4 150.5m211.5 65.3L1077 390m113.2-366.3l49.1 215.8M1077 390l225.4.3m-274.6-216.1l211.5 65.3m-49.1-215.8l-49.7 215.7m211.6-64.8l-49.7 215.7M1190.2 23.7l161.9 150.9m-211.6 64.8l211.6-64.8m-324.3-.4L1077 390m225.4.3l-161.9-150.9"/><path fill="none" stroke="#666" stroke-width="6" d="M429 174v72m-36-36h72m414 0h71.8"/><path fill="#666" d="M978 210c-12.8 4.7-28.6 12.8-38.5 21.4l7.7-21.4-7.7-21.4c9.9 8.6 25.7 16.7 38.5 21.4z"/><path fill="#7FC0E6" stroke="#000" d="M1190.2 41.7c-9.9 0-18-8.1-18-18s8.1-18 18-18"/><path fill="#009246" stroke="#000" d="M1190.2 5.7c9.9 0 18 8.1 18 18s-8.1 18-18 18"/><path fill="#7FC0E6" stroke="#000" d="M1302.1 408c-9.9 0-18-8.1-18-18s8.1-18 18-18"/><path fill="#009246" stroke="#000" d="M1302.1 372c9.9 0 18 8.1 18 18s-8.1 18-18 18"/><path fill="#7FC0E6" stroke="#000" d="M1077 408c-9.9 0-18-8.1-18-18s8.1-18 18-18"/><path fill="#FFE07F" stroke="#000" d="M1077 372c9.9 0 18 8.1 18 18s-8.1 18-18 18"/><path fill="#C936C9" stroke="#000" d="M1140.5 257.4c-9.9 0-18-8.1-18-18s8.1-18 18-18"/><path fill="#FFE07F" stroke="#000" d="M1140.5 221.4c9.9 0 18 8.1 18 18s-8.1 18-18 18"/><path fill="#C936C9" stroke="#000" d="M1027.8 192.2c-9.9 0-18-8.1-18-18s8.1-18 18-18"/><path fill="#FFE07F" stroke="#000" d="M1027.8 156.2c9.9 0 18 8.1 18 18s-8.1 18-18 18"/><path fill="#C936C9" stroke="#000" d="M1239.3 257.5c-9.9 0-18-8.1-18-18s8.1-18 18-18"/><path fill="#009246" stroke="#000" d="M1239.3 221.5c9.9 0 18 8.1 18 18s-8.1 18-18 18"/><path fill="#C936C9" stroke="#000" d="M1352.1 192.6c-9.9 0-18-8.1-18-18s8.1-18 18-18"/><path fill="#009246" stroke="#000" d="M1352.1 156.6c9.9 0 18 8.1 18 18s-8.1 18-18 18"/></svg>