<svg xmlns="http://www.w3.org/2000/svg" width="882" height="873"><path fill="none" stroke="#FEC200" d="M54 0l864 864"/><g fill="#BC1E46"><path opacity=".2" d="M369 9h360v360H369z"/><path opacity=".2" d="M405 45h360v360H405z"/><path opacity=".2" d="M441 81h360v360H441z"/><path opacity=".2" d="M477 117h360v360H477z"/><path opacity=".2" d="M513 153h360v360H513z"/><path opacity=".2" d="M360 54h360v360H360z"/><path opacity=".2" d="M396 90h360v360H396z"/><path opacity=".2" d="M432 126h360v360H432z"/><path opacity=".2" d="M468 162h360v360H468z"/><path opacity=".2" d="M351 99h360v360H351z"/><path opacity=".2" d="M387 135h360v360H387z"/><path opacity=".2" d="M423 171h360v360H423z"/></g><g fill="#0081CD"><path opacity=".2" d="M54 360h360v360H54z"/><path opacity=".2" d="M198 504h360v360H198z"/><path opacity=".2" d="M162 468h360v360H162z"/><path opacity=".2" d="M126 432h360v360H126z"/><path opacity=".2" d="M90 396h360v360H90z"/><path opacity=".2" d="M18 324h360v360H18z"/></g><g fill="none" stroke="#0081CD"><path d="M54 360h360v360H54z"/><path d="M198 504h360v360H198z"/><path d="M162 468h360v360H162z"/><path d="M126 432h360v360H126z"/><path d="M90 396h360v360H90z"/><path d="M18 324h360v360H18z"/></g><g fill="none" stroke="#BC1E46"><path d="M369 9h360v360H369z"/><path d="M405 45h360v360H405z"/><path d="M441 81h360v360H441z"/><path d="M477 117h360v360H477z"/><path d="M513 153h360v360H513z"/><path d="M360 54h360v360H360z"/><path d="M396 90h360v360H396z"/><path d="M432 126h360v360H432z"/><path d="M468 162h360v360H468z"/><path d="M351 99h360v360H351z"/><path d="M387 135h360v360H387z"/><path d="M423 171h360v360H423z"/></g></svg>