<svg xmlns="http://www.w3.org/2000/svg" width="1295.8" height="997.8"><g fill="#FEC200"><circle cx="144" cy="498.9" r="144" opacity=".5"/><circle cx="360" cy="374.2" r="144" opacity=".5"/><circle cx="360" cy="623.7" r="144" opacity=".5"/><circle cx="-71.7" cy="124.9" r="144" opacity=".5"/><circle cx="-71.7" cy="374.4" r="144" opacity=".5"/><circle cx="-71.7" cy="623.8" r="144" opacity=".5"/><circle cx="-71.7" cy="873.3" r="144" opacity=".5"/><circle cx="144" cy="997.8" r="144" opacity=".5"/><circle cx="360" cy="873.1" r="144" opacity=".5"/><circle cx="360" cy="1122.6" r="144" opacity=".5"/><circle cx="1007.7" cy="997.7" r="144" opacity=".5"/><circle cx="1223.7" cy="872.9" r="144" opacity=".5"/><circle cx="1223.7" cy="1122.4" r="144" opacity=".5"/><circle cx="576" cy="748.4" r="144" opacity=".5"/><circle cx="792" cy="623.7" r="144" opacity=".5"/><circle cx="792" cy="873.1" r="144" opacity=".5"/><circle cx="576" cy="1247.3" r="144" opacity=".5"/><circle cx="792" cy="1122.6" r="144" opacity=".5"/><circle cx="144" r="144" opacity=".5"/><circle cx="360" cy="-124.7" r="144" opacity=".5"/><circle cx="360" cy="124.7" r="144" opacity=".5"/><circle cx="1007.7" cy="-.2" r="144" opacity=".5"/><circle cx="1223.7" cy="-124.9" r="144" opacity=".5"/><circle cx="1223.7" cy="124.5" r="144" opacity=".5"/><circle cx="792" cy="-124.7" r="144" opacity=".5"/><circle cx="576" cy="249.5" r="144" opacity=".5"/><circle cx="792" cy="124.7" r="144" opacity=".5"/><circle cx="792" cy="374.2" r="144" opacity=".5"/><circle cx="1007.7" cy="498.7" r="144" opacity=".5"/><circle cx="1223.7" cy="374" r="144" opacity=".5"/><circle cx="1223.7" cy="623.5" r="144" opacity=".5"/></g><g fill="#0081CD"><circle cx="288.3" cy="249.7" r="144" opacity=".5"/><circle cx="72.3" cy="374.4" r="144" opacity=".5"/><circle cx="72.3" cy="124.9" r="144" opacity=".5"/><circle cx="288" cy="748.4" r="144" opacity=".5"/><circle cx="72" cy="873.1" r="144" opacity=".5"/><circle cx="72" cy="623.7" r="144" opacity=".5"/><circle cx="720" cy="498.9" r="144" opacity=".5"/><circle cx="504" cy="623.7" r="144" opacity=".5"/><circle cx="504" cy="374.2" r="144" opacity=".5"/><circle cx="720" cy="997.8" r="144" opacity=".5"/><circle cx="504" cy="1122.6" r="144" opacity=".5"/><circle cx="504" cy="873.1" r="144" opacity=".5"/><circle cx="1152" cy="748.4" r="144" opacity=".5"/><circle cx="936" cy="873.1" r="144" opacity=".5"/><circle cx="936" cy="623.7" r="144" opacity=".5"/><circle cx="1151.7" cy="1247.1" r="144" opacity=".5"/><circle cx="935.7" cy="1122.4" r="144" opacity=".5"/><circle cx="1367.7" cy="872.9" r="144" opacity=".5"/><circle cx="720" r="144" opacity=".5"/><circle cx="504" cy="124.7" r="144" opacity=".5"/><circle cx="504" cy="-124.7" r="144" opacity=".5"/><circle cx="936" cy="-124.7" r="144" opacity=".5"/><circle cx="1151.7" cy="249.3" r="144" opacity=".5"/><circle cx="935.7" cy="374" r="144" opacity=".5"/><circle cx="935.7" cy="124.5" r="144" opacity=".5"/><circle cx="1367.7" cy="124.5" r="144" opacity=".5"/><circle cx="1367.7" cy="623.5" r="144" opacity=".5"/><circle cx="1367.7" cy="374" r="144" opacity=".5"/></g><g fill="none" stroke="#000" stroke-width="2"><path d="M0 498.9l216-124.7 72 124.7-72 124.8z"/><path d="M432 249.5L216 374.2l72 124.7h144zm0 498.9L216 623.7l72-124.8h144zM.3.2l-216 124.7 72 124.7H.3zm0 498.9l-216-124.7 72-124.7H.3zm0 0l-216 124.7 72 124.8H.3z"/><path d="M.3 998l-216-124.7 72-124.7H.3zM432 249.5L216.3 124.9l-72 124.8 72 124.7zM.3 499.1l.3-249.3 143.7-.1 72 124.7zM.6.4L.3 249.7h144l71.7-125zm431.1 747.8L216 623.7l-72 124.7 72 124.7z"/><path d="M0 997.8l.3-249.2 143.7-.2 72 124.7z"/><path d="M.3 499.1L0 748.4h144l71.7-124.9zm863.4-.4L648 374.2l-72 124.7 72 124.8z"/><path d="M432 748.4l.3-249.3 143.7-.2 72 124.8zm.3-498.7l-.3 249.2h144L647.7 374zM0 997.8l216-124.7 72 124.7-72 124.8z"/><path d="M432 748.4L216 873.1l72 124.7h144z"/><path d="M432 1247.3l-216-124.7 72-124.8h144zm431.7-249.6l216-124.8 72 124.8-72 124.7z"/><path d="M1295.7 748.2l-216 124.7 72 124.8h144z"/><path d="M1295.7 1247.1l-216-124.7 72-124.7h144zM432 748.4l216-124.7 72 124.7-72 124.7z"/><path d="M864 498.9L648 623.7l72 124.7h144z"/><path d="M864 997.8L648 873.1l72-124.7h144zm-432 249.5l216-124.7 72 124.7-72 124.7z"/><path d="M864 997.8l-216 124.8 72 124.7h144z"/><path d="M863.7 997.7L648 873.1l-72 124.7 72 124.8z"/><path d="M432 1247.3l.3-249.3 143.7-.2 72 124.8zm.3-498.7l-.3 249.2h144l71.7-124.9zm863.4-.4L1080 623.7l-72 124.7 72 124.7z"/><path d="M864 997.8l.3-249.2 143.7-.2 72 124.7z"/><path d="M864.3 499.1l-.3 249.3h144l71.7-124.9zm431.1 747.8l-215.7-124.5-72 124.7 72 124.7zM864 997.8l-.3 249.3h144l71.7-124.9zm432-249.4l-.3 249.3h144l71.7-125zM0 0l216-124.7L288 0l-72 124.7z"/><path d="M432-249.5L216-124.7 288 0h144zm0 499L216 124.7 288 0h144zM863.7-.2l216-124.7 72 124.7-72 124.7z"/><path d="M1295.7-249.7l-216 124.8 72 124.7h144zm0 499l-216-124.8 72-124.7h144zM864 0L648-124.7l72-124.8h144zM432 249.5l216-124.8 72 124.8-72 124.7z"/><path d="M864 0L648 124.7l72 124.8h144zm0 498.9L648 374.2l72-124.7h144zM863.7-.2L648-124.7 576 0l72 124.7z"/><path d="M432 249.5L432.3.2 576 0l72 124.7zm.3-498.8L432 0h144l71.7-124.9zM864 0l.3-249.3 143.7-.2 72 124.8zm431.4 249.1l-215.7-124.6-72 124.8 72 124.7z"/><path d="M863.7 498.7l.3-249.2 143.7-.2 72 124.7zM864 0l-.3 249.3h144l71.7-125zm431.7 249.3L1296 0l143.7-.2 72 124.7z"/><path d="M863.7 498.7l216-124.7 72 124.7-72 124.8z"/><path d="M1295.7 249.3l-216 124.7 72 124.7h144zm0 498.9l-216-124.7 72-124.8h144zm0 0l.3-249.3 143.7-.2 72 124.8zm.3-498.7l-.3 249.2h144l71.7-124.9z"/></g></svg>