<svg xmlns="http://www.w3.org/2000/svg" width="2826" height="1170"><g fill="none" stroke="#BC1E46" stroke-width="2"><path d="M369 585V441m-72 72h144m-108 72v72m-36-36h72m-72 396h288M440.1 869.9v288M296 800.4h144M369.5 729v144M1089 585V441M873 657h144m-720-72V9M9 297h576m-144 0v288m-36 72v72m-36-36h72m0-36h144m-72-72v144M153 873V297m144 432H9m216 0V585m-72 72h144M9 441h576m144-144V9M585 153h288m0 432v576M585 873h576m-432 0V585m288 288V585m144 144H585m360-144v144m72-216h144m-216-72V297m-72 72h144M1665 9l1152 1152M1664.977 585.011L2240.981 9.008l576.003 576.003-576.003 576.004z"/><path d="M2817 729l-576-576L2385 9l432 432-432 432-576-576-144 144 576 576-144 144-144-144 864-864L2673 9l-864 864-144-144 432-432 576 576z"/><path d="M2672.997 225.017l71.983-71.983 71.983 71.983L2744.98 297zM2529 657l72 72 72-72-216-216-72 72 72 72 216-216-72-72-72 72 216 216 72-72-72-72zM2240.999 369.013l71.983-71.983 71.983 71.983-71.983 71.983z"/><path d="M1665.048 297.01L1953.05 9.007l864.005 864.005-288.002 288.002zm323.973 377.999l18.032-18.031 18.03 18.031-18.03 18.031z"/><path d="M2061 729l-108-108 36-36 36 36-72 72 36 36 72-72 36 36z"/><path d="M2241 657l-72-72-216 216 72 72 71.6-71.8L1881 585l-72 72 72 72 216-216-72-72-72 72 216 216z"/><path d="M1665.048 873.013L2529.053 9.008l288.002 288.001-864.005 864.006zM1665 1161L2817 9"/><path d="M2600.917 477.015l35.991-35.992 35.992 35.992-35.992 35.991zm-72 71.999l35.991-35.992 35.992 35.992-35.992 35.991z"/><path d="M1809 153v144m288 0V153h144m360 144v-72h72m72-72V81m0 216v144m0-72h-72m-144 0h-144m72 0v72m-216-72h-72m-144 72v-72m-144 216v-72h72m144 0h72v72m216-72h-72v-72m0-144v-72m180 324h36m36-36v-36h36m36-36v-36m36 72h36m-72 36v36h-36m72 108h72v-72m-216 72h-72v-72m-216 72h72m-216 36h36m-72-36v-36h-36m0 54h18m-36 18v18m-18-36h-18m36-18v-18m-18-54v-36m-36 72h-36m36 72h-36m-108-36h-72m144 72v72h72m143.6.2l72.4-.2v-72m432 0v72m72 72v144m-288-144v144h-144m-216-144v72m-72 72h-144V873"/></g><path fill="none" stroke="#FEC200" stroke-width="40" d="M1233 585h239.3"/><path fill="#FEC200" d="M1593 585c-56.8 21.1-127.3 57-170.9 95.1l34.4-95.1-34.4-95.1c43.6 38.1 114.1 74 170.9 95.1z"/><path fill="none" stroke="#0081CD" stroke-width="5" d="M2025 441v144m-72-72h144m-108 72v72m-36-36h72m70.9 252v288m-143.3-359.8h144m-72.7-73v144M2745 585V441m-216 216h144m-720-72V9m-288 288h576m-144 0v288m-36 72v72m-36-36h72m0-36h144m-72-72v144m-360 144V297m144 432h-288m216 0V585m-72 72h144m-288-216h576m144-144V9m-144 144h288m0 432v576m-288-288h576m-432 0V585m288 288V585m144 144h-576m360-144v144m72-216h144m-216-72V297m-72 72h144"/><path fill="#0081CD" d="M2812 14v1142H1670V14h1142m5-5H1665v1152h1152V9z"/><path fill="none" stroke="#0081CD" stroke-width="5" d="M2241 9v1152m-576-576h1152m-864 576V585m-288 288h576m288-288V9m-288 288h576m-720 288v288m-144-144h288m-216-144v144m-72-72h144m-108 72v-72m-36 36h72m-18-36v36m-18-18h36m216-234h576m-144 144V9m144 144h-288m-144 144v288m-72-288v144m-72-72h144m0 144h288m-216-72v144m144-144v144m144-432v144m-72-72h144m-180 216v72m-36-36h72m-108 36v72m-36-36h72"/><path fill="#0081CD" d="M1156 14v1142H14V14h1142m5-5H9v1152h1152V9z"/><path fill="none" stroke="#0081CD" stroke-width="5" d="M585 9v1152M9 585h1152m-864 576V585M9 873h576m288-288V9M585 297h576M441 585v288M297 729h288M369 585v144m-72-72h144m-108 72v-72m-36 36h72m-18-36v36m-18-18h36m216-234h576m-144 144V9m144 144H873M729 297v288m-72-288v144m-72-72h144m0 144h288m-216-72v144m144-144v144m144-432v144m-72-72h144M981 441v72m-36-36h72m-108 36v72m-36-36h72m1008 468h288"/></svg>