<svg xmlns="http://www.w3.org/2000/svg" width="864" height="459"><g fill="none" stroke="#FEC200"><circle cx="252" cy="234" r="216"/><circle cx="324" cy="234" r="216"/><circle cx="396" cy="234" r="216"/><circle cx="468" cy="234" r="216"/><circle cx="540" cy="234" r="216"/><circle cx="612" cy="234" r="216"/><path d="M0 234h864"/></g><g fill="none" stroke="#000"><path d="M252 234L360 46.9 468 234"/><path d="M612 234L504 46.9 396 234 324 30.3 252 234l36-213 36 213 36-216 36 216 36-213 36 213 37.8-212.7L540 234l37.8-212.7L612 234 540 30.3 468 234 396 30.3 324 234 432 46.9 540 234 468 30.3 396 234"/></g><g fill="#0081CD" stroke="#000"><circle cx="252" cy="234" r="9"/><circle cx="324" cy="234" r="9"/><circle cx="396" cy="234" r="9"/><circle cx="468" cy="234" r="9"/><circle cx="540" cy="234" r="9"/><circle cx="612" cy="234" r="9"/></g><g fill="#BC1E46" stroke="#000"><circle cx="360" cy="46.9" r="9"/><circle cx="432" cy="46.9" r="9"/><circle cx="504" cy="46.9" r="9"/><circle cx="324" cy="30.3" r="9"/><circle cx="396" cy="30.3" r="9"/><circle cx="468" cy="30.3" r="9"/><circle cx="540" cy="30.3" r="9"/><circle cx="577.8" cy="21.3" r="9"/><circle cx="505.8" cy="21.3" r="9"/><circle cx="432" cy="21" r="9"/><circle cx="360" cy="18" r="9"/><circle cx="288" cy="21" r="9"/></g></svg>