<?xml version="1.0" encoding="utf-8"?>
<svg version="1.1" id="Layer_1" xmlns="http://www.w3.org/2000/svg" xmlns:xlink="http://www.w3.org/1999/xlink" x="0px" y="0px"
	 width="756px" height="324px" viewBox="0 0 756 324" enable-background="new 0 0 756 324" xml:space="preserve">
<polygon fill="#FFEFBF" stroke="#000000" points="738,90 666,18 594,90 522,18 450,90 378,18 306,90 234,18
	162,90 90,18 18,90 162,306 190.8,262.8 234,306 277.2,262.8 306,306 334.8,262.8 378,306 421.2,262.8 450,306 478.8,262.8 522,306
	565.2,262.8 594,306 "/>
<polygon opacity="0.1" fill="#0081CD" points="306,90 234,18 162,90 306,306 450,90 378,18 "/>
<polygon opacity="0.1" fill="#BC1E46" points="306,90 378,18 450,90 522,18 594,90 666,18 738,90 522,306 "/>
<g>
	<circle fill="#0081CD" stroke="#000000" cx="18" cy="90" r="9"/>
	<circle fill="#0081CD" stroke="#000000" cx="162" cy="90" r="9"/>
	<circle fill="#0081CD" stroke="#000000" cx="306" cy="90" r="9"/>
	<circle fill="#0081CD" stroke="#000000" cx="450" cy="90" r="9"/>
	<circle fill="#0081CD" stroke="#000000" cx="594" cy="90" r="9"/>
	<circle fill="#0081CD" stroke="#000000" cx="738" cy="90" r="9"/>
</g>
<g>
	<circle fill="#BC1E46" stroke="#000000" cx="90" cy="18" r="9"/>
	<circle fill="#BC1E46" stroke="#000000" cx="234" cy="18" r="9"/>
	<circle fill="#BC1E46" stroke="#000000" cx="378" cy="18" r="9"/>
	<circle fill="#BC1E46" stroke="#000000" cx="522" cy="18" r="9"/>
	<circle fill="#BC1E46" stroke="#000000" cx="666" cy="18" r="9"/>
	<circle fill="#BC1E46" stroke="#000000" cx="162" cy="306" r="9"/>
	<circle fill="#BC1E46" stroke="#000000" cx="234" cy="306" r="9"/>
	<circle fill="#BC1E46" stroke="#000000" cx="306" cy="306" r="9"/>
	<circle fill="#BC1E46" stroke="#000000" cx="378" cy="306" r="9"/>
	<circle fill="#BC1E46" stroke="#000000" cx="450" cy="306" r="9"/>
	<circle fill="#BC1E46" stroke="#000000" cx="522" cy="306" r="9"/>
	<circle fill="#BC1E46" stroke="#000000" cx="594" cy="306" r="9"/>
</g>
</svg>
