<svg xmlns="http://www.w3.org/2000/svg" width="738" height="738"><g fill="none" stroke="#000" stroke-linejoin="bevel"><circle cx="369" cy="369" r="360"/><path d="M585.003 81.001c-60.167 45.194-134.956 71.975-216 71.975-81.045 0-155.835-26.782-216.003-71.976l432.003.001zM81.001 152.997c45.194 60.167 71.975 134.956 71.975 216 0 81.045-26.781 155.835-71.976 216.003l.001-432.003zm71.996 504.002c60.167-45.194 134.956-71.975 216-71.975 81.045 0 155.835 26.781 216.003 71.976l-432.003-.001zm504.002-71.996c-45.194-60.167-71.975-134.956-71.975-216 0-81.045 26.781-155.835 71.976-216.003l-.001 432.003zM153 81c-.024 287.997 432.024 288.003 432 576M81 585c287.997.024 288.003-432.024 576-432"/></g><g fill="#0081CD" stroke="#000" stroke-linejoin="bevel"><circle cx="81" cy="153" r="9"/><circle cx="153" cy="81" r="9"/><circle cx="153" cy="657" r="9"/><circle cx="81" cy="585" r="9"/><circle cx="657" cy="585" r="9"/><circle cx="585" cy="657" r="9"/><circle cx="585" cy="81" r="9"/><circle cx="657" cy="153" r="9"/></g><g fill="#FEC200" stroke="#000" stroke-linejoin="bevel"><circle cx="180" cy="63" r="6"/><circle cx="180" cy="81" r="6"/><circle cx="180" cy="99" r="6"/><circle cx="207.037" cy="47.407" r="6"/><circle cx="207.037" cy="81" r="6"/><circle cx="207.037" cy="114.57" r="6"/><circle cx="234.175" cy="35.1" r="6"/><circle cx="234.175" cy="81" r="6"/><circle cx="234.175" cy="126.875" r="6"/><circle cx="261.138" cy="25.439" r="6"/><circle cx="261.138" cy="81" r="6"/><circle cx="261.138" cy="136.535" r="6"/><circle cx="288.422" cy="18.054" r="6"/><circle cx="288.422" cy="81" r="6"/><circle cx="288.422" cy="144" r="6"/><circle cx="315.378" cy="12.968" r="6"/><circle cx="315.378" cy="81" r="6"/><circle cx="315.378" cy="149.007" r="6"/><circle cx="342" cy="9.999" r="6"/><circle cx="342" cy="81" r="6"/><circle cx="342" cy="151.977" r="6"/><circle cx="558" cy="63" r="6"/><circle cx="558" cy="81" r="6"/><circle cx="558" cy="99" r="6"/><circle cx="530.963" cy="47.407" r="6"/><circle cx="530.963" cy="81" r="6"/><circle cx="530.963" cy="114.57" r="6"/><circle cx="503.825" cy="35.1" r="6"/><circle cx="503.825" cy="81" r="6"/><circle cx="503.825" cy="126.875" r="6"/><circle cx="476.861" cy="25.439" r="6"/><circle cx="476.861" cy="81" r="6"/><circle cx="476.861" cy="136.535" r="6"/><circle cx="449.578" cy="18.054" r="6"/><circle cx="449.578" cy="81" r="6"/><circle cx="449.578" cy="144" r="6"/><circle cx="422.621" cy="12.968" r="6"/><circle cx="422.621" cy="81" r="6"/><circle cx="422.621" cy="149.007" r="6"/><circle cx="396" cy="9.999" r="6"/><circle cx="396" cy="81" r="6"/><circle cx="396" cy="151.977" r="6"/><circle cx="369" cy="9" r="6"/><circle cx="369" cy="81" r="6"/><circle cx="369" cy="153" r="6"/><circle cx="63" cy="558" r="6"/><circle cx="81" cy="558" r="6"/><circle cx="99" cy="558" r="6"/><circle cx="47.407" cy="530.963" r="6"/><circle cx="81" cy="530.963" r="6"/><circle cx="114.57" cy="530.963" r="6"/><circle cx="35.1" cy="503.825" r="6"/><circle cx="81" cy="503.825" r="6"/><circle cx="126.875" cy="503.825" r="6"/><circle cx="25.439" cy="476.861" r="6"/><circle cx="81" cy="476.861" r="6"/><circle cx="136.535" cy="476.861" r="6"/><circle cx="18.054" cy="449.578" r="6"/><circle cx="81" cy="449.578" r="6"/><circle cx="144" cy="449.578" r="6"/><circle cx="12.968" cy="422.621" r="6"/><circle cx="81" cy="422.621" r="6"/><circle cx="149.007" cy="422.621" r="6"/><circle cx="9.999" cy="396" r="6"/><circle cx="81" cy="396" r="6"/><circle cx="151.977" cy="396" r="6"/><circle cx="63" cy="180" r="6"/><circle cx="81" cy="180" r="6"/><circle cx="99" cy="180" r="6"/><circle cx="47.407" cy="207.037" r="6"/><circle cx="81" cy="207.037" r="6"/><circle cx="114.57" cy="207.037" r="6"/><circle cx="35.1" cy="234.175" r="6"/><circle cx="81" cy="234.175" r="6"/><circle cx="126.875" cy="234.175" r="6"/><circle cx="25.439" cy="261.139" r="6"/><circle cx="81" cy="261.139" r="6"/><circle cx="136.535" cy="261.139" r="6"/><circle cx="18.054" cy="288.422" r="6"/><circle cx="81" cy="288.422" r="6"/><circle cx="144" cy="288.422" r="6"/><circle cx="12.968" cy="315.379" r="6"/><circle cx="81" cy="315.379" r="6"/><circle cx="149.007" cy="315.379" r="6"/><circle cx="9.999" cy="342" r="6"/><circle cx="81" cy="342" r="6"/><circle cx="151.977" cy="342" r="6"/><circle cx="9" cy="369" r="6"/><circle cx="81" cy="369" r="6"/><circle cx="153" cy="369" r="6"/><circle cx="558" cy="675" r="6"/><circle cx="558" cy="657" r="6"/><circle cx="558" cy="639" r="6"/><circle cx="530.963" cy="690.593" r="6"/><circle cx="530.963" cy="657" r="6"/><circle cx="530.963" cy="623.43" r="6"/><circle cx="503.825" cy="702.9" r="6"/><circle cx="503.825" cy="657" r="6"/><circle cx="503.825" cy="611.125" r="6"/><circle cx="476.861" cy="712.561" r="6"/><circle cx="476.861" cy="657" r="6"/><circle cx="476.861" cy="601.465" r="6"/><circle cx="449.578" cy="719.946" r="6"/><circle cx="449.578" cy="657" r="6"/><circle cx="449.578" cy="594" r="6"/><circle cx="422.621" cy="725.031" r="6"/><circle cx="422.621" cy="657" r="6"/><circle cx="422.621" cy="588.993" r="6"/><circle cx="396" cy="728.002" r="6"/><circle cx="396" cy="657" r="6"/><circle cx="396" cy="586.023" r="6"/><circle cx="180" cy="675" r="6"/><circle cx="180" cy="657" r="6"/><circle cx="180" cy="639" r="6"/><circle cx="207.037" cy="690.593" r="6"/><circle cx="207.037" cy="657" r="6"/><circle cx="207.037" cy="623.43" r="6"/><circle cx="234.175" cy="702.9" r="6"/><circle cx="234.175" cy="657" r="6"/><circle cx="234.175" cy="611.125" r="6"/><circle cx="261.139" cy="712.561" r="6"/><circle cx="261.139" cy="657" r="6"/><circle cx="261.139" cy="601.465" r="6"/><circle cx="288.422" cy="719.946" r="6"/><circle cx="288.422" cy="657" r="6"/><circle cx="288.422" cy="594" r="6"/><circle cx="315.379" cy="725.031" r="6"/><circle cx="315.379" cy="657" r="6"/><circle cx="315.379" cy="588.993" r="6"/><circle cx="342" cy="728.002" r="6"/><circle cx="342" cy="657" r="6"/><circle cx="342" cy="586.023" r="6"/><circle cx="369" cy="729" r="6"/><circle cx="369" cy="657" r="6"/><circle cx="369" cy="585" r="6"/><circle cx="675" cy="180" r="6"/><circle cx="657" cy="180" r="6"/><circle cx="639" cy="180" r="6"/><circle cx="690.593" cy="207.037" r="6"/><circle cx="657" cy="207.037" r="6"/><circle cx="623.43" cy="207.037" r="6"/><circle cx="702.9" cy="234.175" r="6"/><circle cx="657" cy="234.175" r="6"/><circle cx="611.125" cy="234.175" r="6"/><circle cx="712.561" cy="261.139" r="6"/><circle cx="657" cy="261.139" r="6"/><circle cx="601.465" cy="261.139" r="6"/><circle cx="719.946" cy="288.422" r="6"/><circle cx="657" cy="288.422" r="6"/><circle cx="594" cy="288.422" r="6"/><circle cx="725.031" cy="315.379" r="6"/><circle cx="657" cy="315.379" r="6"/><circle cx="588.993" cy="315.379" r="6"/><circle cx="728.002" cy="342" r="6"/><circle cx="657" cy="342" r="6"/><circle cx="586.023" cy="342" r="6"/><circle cx="675" cy="558" r="6"/><circle cx="657" cy="558" r="6"/><circle cx="639" cy="558" r="6"/><circle cx="690.593" cy="530.963" r="6"/><circle cx="657" cy="530.963" r="6"/><circle cx="623.43" cy="530.963" r="6"/><circle cx="702.9" cy="503.825" r="6"/><circle cx="657" cy="503.825" r="6"/><circle cx="611.125" cy="503.825" r="6"/><circle cx="712.561" cy="476.861" r="6"/><circle cx="657" cy="476.861" r="6"/><circle cx="601.465" cy="476.861" r="6"/><circle cx="719.946" cy="449.578" r="6"/><circle cx="657" cy="449.578" r="6"/><circle cx="594" cy="449.578" r="6"/><circle cx="725.031" cy="422.621" r="6"/><circle cx="657" cy="422.621" r="6"/><circle cx="588.993" cy="422.621" r="6"/><circle cx="728.002" cy="396" r="6"/><circle cx="657" cy="396" r="6"/><circle cx="586.023" cy="396" r="6"/><circle cx="729" cy="369" r="6"/><circle cx="657" cy="369" r="6"/><circle cx="585" cy="369" r="6"/></g></svg>