<svg xmlns="http://www.w3.org/2000/svg" width="1242" height="414"><g fill="none" stroke="#231F20"><path d="M1142.5 170.833L998 45m36 279l180-81-71.5-72.167L1070 45"/><path d="M1070 243l-36 81 108-81 .5-72.167zm-144-36l144-162-72 162 36 117"/><path d="M998 45L854 207l180 117-108-117z"/></g><path d="M693 333h-36v72h-36v-72h-36v-36h180v36h-36v72h-36zm359 0h-36v72h-36v-72h-36v-36h180v36h-36v72h-36z" fill="#E9B4C2" stroke="#231F20"/><path d="M766 116.667L585 117V81l181-.333zm467 72L1052 189v-36l181-.333zM657 9h36v36h-36zm-72 0h36v36h-36zm144 0h36v36h-36zm179 180h36v36h-36zm-72 0h36v36h-36zm144 0h36v36h-36z" fill="#FFEBAA" stroke="#231F20"/><path d="M81 45v36M45 45v36M81 9H45M9 9v36M189 9v36M9 81v36m180-36v36M9 153h36m0-36h36m72 36h36M153 45v36m-36-36v36m36-72h-36m0 108h36m-72 36h36M9 297v36m180-36v36m-144 0v36m36-36v36m-72 0v36m180-36v36M9 261h36m0 36h36M45 405h36m0-144h36m36 0h36m-72 72v36m36-36v36m-36-72h36m-36 108h36" fill="none" stroke="#231F20" stroke-width="2"/><path d="M405 9h36v72h-36zm-72 0h36v72h-36zm719 0h36v72h-36zm-72 0h36v72h-36z" fill="#AAD5EF" stroke="#231F20"/><path d="M441 369h36v36h-36zm-72 0h36v36h-36zm-72 0h36v36h-36zm899-144h36v36h-36zm-72 0h36v36h-36zm-72 0h36v36h-36z" fill="#AADBC2" stroke="#231F20"/><g fill="#0081CD" stroke="#000"><circle cx="9" cy="9" r="6"/><circle cx="45" cy="9" r="6"/><circle cx="81" cy="9" r="6"/><circle cx="189" cy="9" r="6"/><circle cx="9" cy="45" r="6"/><circle cx="45" cy="45" r="6"/><circle cx="81" cy="45" r="6"/><circle cx="189" cy="45" r="6"/><circle cx="9" cy="81" r="6"/><circle cx="45" cy="81" r="6"/><circle cx="81" cy="81" r="6"/><circle cx="189" cy="81" r="6"/><circle cx="9" cy="117" r="6"/><circle cx="45" cy="117" r="6"/><circle cx="81" cy="117" r="6"/><circle cx="117" cy="9" r="6"/><circle cx="153" cy="9" r="6"/><circle cx="117" cy="45" r="6"/><circle cx="153" cy="45" r="6"/><circle cx="117" cy="81" r="6"/><circle cx="153" cy="81" r="6"/><circle cx="117" cy="117" r="6"/><circle cx="153" cy="117" r="6"/><circle cx="189" cy="117" r="6"/><circle cx="9" cy="153" r="6"/><circle cx="45" cy="153" r="6"/><circle cx="153" cy="153" r="6"/><circle cx="189" cy="153" r="6"/><circle cx="81" cy="153" r="6"/><circle cx="117" cy="153" r="6"/><circle cx="297" cy="9" r="6"/><circle cx="405" cy="9" r="6"/><circle cx="441" cy="9" r="6"/><circle cx="477" cy="9" r="6"/><circle cx="297" cy="45" r="6"/><circle cx="405" cy="45" r="6"/><circle cx="441" cy="45" r="6"/><circle cx="477" cy="45" r="6"/><circle cx="297" cy="81" r="6"/><circle cx="405" cy="81" r="6"/><circle cx="441" cy="81" r="6"/><circle cx="477" cy="81" r="6"/><circle cx="297" cy="117" r="6"/><circle cx="405" cy="117" r="6"/><circle cx="441" cy="117" r="6"/><circle cx="477" cy="117" r="6"/><circle cx="297" cy="153" r="6"/><circle cx="405" cy="153" r="6"/><circle cx="441" cy="153" r="6"/><circle cx="477" cy="153" r="6"/><circle cx="585" cy="9" r="6"/><circle cx="621" cy="9" r="6"/><circle cx="657" cy="9" r="6"/><circle cx="693" cy="9" r="6"/><circle cx="585" cy="45" r="6"/><circle cx="621" cy="45" r="6"/><circle cx="657" cy="45" r="6"/><circle cx="693" cy="45" r="6"/><circle cx="585" cy="81" r="6"/><circle cx="621" cy="81" r="6"/><circle cx="657" cy="81" r="6"/><circle cx="693" cy="81" r="6"/><circle cx="585" cy="117" r="6"/><circle cx="621" cy="117" r="6"/><circle cx="657" cy="117" r="6"/><circle cx="693" cy="117" r="6"/><circle cx="585" cy="153" r="6"/><circle cx="621" cy="153" r="6"/><circle cx="657" cy="153" r="6"/><circle cx="693" cy="153" r="6"/><circle cx="729" cy="9" r="6"/><circle cx="765" cy="9" r="6"/><circle cx="729" cy="45" r="6"/><circle cx="765" cy="45" r="6"/><circle cx="729" cy="81" r="6"/><circle cx="765" cy="81" r="6"/><circle cx="729" cy="117" r="6"/><circle cx="765" cy="117" r="6"/><circle cx="729" cy="153" r="6"/><circle cx="765" cy="153" r="6"/><circle cx="369" cy="261" r="6"/><circle cx="405" cy="261" r="6"/><circle cx="441" cy="261" r="6"/><circle cx="477" cy="261" r="6"/><circle cx="369" cy="297" r="6"/><circle cx="405" cy="297" r="6"/><circle cx="441" cy="297" r="6"/><circle cx="477" cy="297" r="6"/><circle cx="369" cy="333" r="6"/><circle cx="405" cy="333" r="6"/><circle cx="441" cy="333" r="6"/><circle cx="477" cy="333" r="6"/><circle cx="369" cy="369" r="6"/><circle cx="405" cy="369" r="6"/><circle cx="441" cy="369" r="6"/><circle cx="477" cy="369" r="6"/><circle cx="369" cy="405" r="6"/><circle cx="405" cy="405" r="6"/><circle cx="441" cy="405" r="6"/><circle cx="477" cy="405" r="6"/><circle cx="729" cy="261" r="6"/><circle cx="765" cy="261" r="6"/><circle cx="729" cy="297" r="6"/><circle cx="765" cy="297" r="6"/><circle cx="729" cy="333" r="6"/><circle cx="765" cy="333" r="6"/><circle cx="729" cy="369" r="6"/><circle cx="765" cy="369" r="6"/><circle cx="729" cy="405" r="6"/><circle cx="765" cy="405" r="6"/><circle cx="585" cy="261" r="6"/><circle cx="621" cy="261" r="6"/><circle cx="657" cy="261" r="6"/><circle cx="693" cy="261" r="6"/><circle cx="585" cy="297" r="6"/><circle cx="621" cy="297" r="6"/><circle cx="657" cy="297" r="6"/><circle cx="693" cy="297" r="6"/><circle cx="585" cy="333" r="6"/><circle cx="621" cy="333" r="6"/><circle cx="657" cy="333" r="6"/><circle cx="693" cy="333" r="6"/><circle cx="585" cy="369" r="6"/><circle cx="621" cy="369" r="6"/><circle cx="657" cy="369" r="6"/><circle cx="693" cy="369" r="6"/><circle cx="585" cy="405" r="6"/><circle cx="621" cy="405" r="6"/><circle cx="657" cy="405" r="6"/><circle cx="693" cy="405" r="6"/><circle cx="9" cy="261" r="6"/><circle cx="45" cy="261" r="6"/><circle cx="81" cy="261" r="6"/><circle cx="117" cy="261" r="6"/><circle cx="153" cy="261" r="6"/><circle cx="189" cy="261" r="6"/><circle cx="9" cy="297" r="6"/><circle cx="45" cy="297" r="6"/><circle cx="81" cy="297" r="6"/><circle cx="189" cy="297" r="6"/><circle cx="9" cy="333" r="6"/><circle cx="45" cy="333" r="6"/><circle cx="81" cy="333" r="6"/><circle cx="189" cy="333" r="6"/><circle cx="9" cy="369" r="6"/><circle cx="45" cy="369" r="6"/><circle cx="81" cy="369" r="6"/><circle cx="189" cy="369" r="6"/><circle cx="9" cy="405" r="6"/><circle cx="45" cy="405" r="6"/><circle cx="81" cy="405" r="6"/><circle cx="117" cy="297" r="6"/><circle cx="153" cy="297" r="6"/><circle cx="117" cy="333" r="6"/><circle cx="153" cy="333" r="6"/><circle cx="117" cy="369" r="6"/><circle cx="153" cy="369" r="6"/><circle cx="117" cy="405" r="6"/><circle cx="153" cy="405" r="6"/><circle cx="189" cy="405" r="6"/><circle cx="333" cy="9" r="6"/><circle cx="369" cy="9" r="6"/><circle cx="333" cy="45" r="6"/><circle cx="369" cy="45" r="6"/><circle cx="333" cy="81" r="6"/><circle cx="369" cy="81" r="6"/><circle cx="333" cy="117" r="6"/><circle cx="369" cy="117" r="6"/><circle cx="333" cy="153" r="6"/><circle cx="369" cy="153" r="6"/><circle cx="297" cy="261" r="6"/><circle cx="333" cy="261" r="6"/><circle cx="297" cy="297" r="6"/><circle cx="333" cy="297" r="6"/><circle cx="297" cy="333" r="6"/><circle cx="333" cy="333" r="6"/><circle cx="297" cy="369" r="6"/><circle cx="333" cy="369" r="6"/><circle cx="297" cy="405" r="6"/><circle cx="333" cy="405" r="6"/></g></svg>