<svg xmlns="http://www.w3.org/2000/svg" width="342" height="342"><path d="M9 9h324v324H9zm108 0v324M225 9v324M9 117h324M9 225h324" fill="none" stroke="#0081CD" stroke-width="3"/><path d="M45 9v324M81 9v324M153 9v324M189 9v324M261 9v324M297 9v324M9 297h324M9 261h324M9 189h324M9 153h324M9 81h324M9 45h324" fill="none" stroke="#0081CD" stroke-width=".5"/><g font-family="Times,serif" font-size="36"><text transform="translate(18 39)">3</text><text transform="translate(54 147)">3</text><text transform="translate(90 291)">3</text><text transform="translate(54 75)">6</text><text transform="translate(90 75)">5</text><text transform="translate(54 327)">5</text><text transform="translate(54 111)">9</text><text transform="translate(270 75)">9</text><text transform="translate(306 183)">6</text><text transform="translate(270 291)">6</text><text transform="translate(234 111)">6</text><text transform="translate(306 219)">9</text><text transform="translate(126 111)">4</text><text transform="translate(306 147)">4</text><text transform="translate(270 327)">4</text><text transform="translate(306 111)">1</text><text transform="translate(270 183)">1</text><text transform="translate(126 147)">1</text><text transform="translate(270 39)">5</text><text transform="translate(306 39)">8</text><text transform="translate(270 147)">8</text><text transform="translate(18 147)">5</text><text transform="translate(162 183)">7</text><text transform="translate(198 75)">7</text><text transform="translate(270 111)">7</text><text transform="translate(234 147)">7</text><text transform="translate(270 219)">2</text><text transform="translate(18 255)">8</text><text transform="translate(90 111)">8</text><text transform="translate(54 183)">8</text><text transform="translate(54 291)">4</text><text transform="translate(90 255)">1</text><text transform="translate(126 255)">7</text><text transform="translate(18 291)">7</text><text transform="translate(306 327)">7</text><text transform="translate(126 291)">5</text><text transform="translate(306 255)">5</text><text transform="translate(162 291)">9</text><text transform="translate(234 255)">9</text><text transform="translate(198 327)">2</text><text transform="translate(54 255)">2</text><text transform="translate(306 291)">2</text><text transform="translate(18 111)">2</text><text transform="translate(270 255)">3</text><text transform="translate(306 75)">3</text></g><path fill="#BC1E47" d="M162 90h18v18h-18zm36 0h18v18h-18zm-36 108h18v18h-18zm36-36h18v18h-18zm36 0h18v18h-18zm0 36h18v18h-18z"/></svg>