<svg xmlns="http://www.w3.org/2000/svg" width="342" height="342"><path d="M9 9h324v324H9zm108 0v324M225 9v324M9 117h324M9 225h324" fill="none" stroke="#0081CD" stroke-width="3"/><path d="M45 9v324M81 9v324M153 9v324M189 9v324M261 9v324M297 9v324M9 297h324M9 261h324M9 189h324M9 153h324M9 81h324M9 45h324" fill="none" stroke="#0081CD" stroke-width=".5"/><text transform="translate(18 39)" font-family="Times,serif" font-size="36">3</text><text transform="translate(54 147)" font-family="Times,serif" font-size="36">3</text><text transform="translate(90 291)" font-family="Times,serif" font-size="36">3</text><text transform="translate(54 75)" font-family="Times,serif" font-size="36">6</text><text transform="translate(90 75)" font-family="Times,serif" font-size="36">5</text><text transform="translate(54 327)" font-family="Times,serif" font-size="36">5</text><text transform="translate(54 111)" font-family="Times,serif" font-size="36">9</text><text transform="translate(270 75)" font-family="Times,serif" font-size="36">9</text><text transform="translate(306 183)" font-family="Times,serif" font-size="36">6</text><text transform="translate(270 291)" font-family="Times,serif" font-size="36">6</text><text transform="translate(234 111)" font-family="Times,serif" font-size="36">6</text><text transform="translate(306 219)" font-family="Times,serif" font-size="36">9</text><text transform="translate(126 111)" font-family="Times,serif" font-size="36">4</text><text transform="translate(306 147)" font-family="Times,serif" font-size="36">4</text><text transform="translate(270 327)" font-family="Times,serif" font-size="36">4</text><text transform="translate(306 111)" font-family="Times,serif" font-size="36">1</text><text transform="translate(270 183)" font-family="Times,serif" font-size="36">1</text><text transform="translate(126 147)" font-family="Times,serif" font-size="36">1</text><text transform="translate(270 39)" font-family="Times,serif" font-size="36">5</text><text transform="translate(306 39)" font-family="Times,serif" font-size="36">8</text><text transform="translate(270 147)" font-family="Times,serif" font-size="36">8</text><text transform="translate(18 147)" font-family="Times,serif" font-size="36">5</text><text transform="translate(162 183)" font-family="Times,serif" font-size="36">7</text><text transform="translate(198 75)" font-family="Times,serif" font-size="36">7</text><text transform="translate(270 111)" font-family="Times,serif" font-size="36">7</text><text transform="translate(234 147)" font-family="Times,serif" font-size="36">7</text><text transform="translate(270 219)" font-family="Times,serif" font-size="36">2</text><text transform="translate(18 255)" font-family="Times,serif" font-size="36">8</text><text transform="translate(90 111)" font-family="Times,serif" font-size="36">8</text><text transform="translate(54 183)" font-family="Times,serif" font-size="36">8</text><text transform="translate(54 291)" font-family="Times,serif" font-size="36">4</text><text transform="translate(90 255)" font-family="Times,serif" font-size="36">1</text><text transform="translate(126 255)" font-family="Times,serif" font-size="36">7</text><text transform="translate(18 291)" font-family="Times,serif" font-size="36">7</text><text transform="translate(306 327)" font-family="Times,serif" font-size="36">7</text><text transform="translate(126 291)" font-family="Times,serif" font-size="36">5</text><text transform="translate(306 255)" font-family="Times,serif" font-size="36">5</text><text transform="translate(162 291)" font-family="Times,serif" font-size="36">9</text><text transform="translate(234 255)" font-family="Times,serif" font-size="36">9</text><text transform="translate(198 327)" font-family="Times,serif" font-size="36">2</text><text transform="translate(54 255)" font-family="Times,serif" font-size="36">2</text><text transform="translate(306 291)" font-family="Times,serif" font-size="36">2</text><text transform="translate(18 111)" font-family="Times,serif" font-size="36">2</text><text transform="translate(270 255)" font-family="Times,serif" font-size="36">3</text><text transform="translate(306 75)" font-family="Times,serif" font-size="36">3</text></svg>