<svg xmlns="http://www.w3.org/2000/svg" width="920" height="321" viewBox="-111.5 79.5 920 321"><g fill="#D8F0FF" fill-opacity=".8" stroke="#000" stroke-linejoin="round"><path d="M298.006 394.167l60.293-273.725-73.77-.942zm0 0L284.529 119.5l-73.523 2.018zm0 0l132.945-269.823-72.652-3.902zm0 0l-87-272.649-71.915 4.986z"/><path d="M298.006 394.167l203.14-262.993-70.195-6.83zm0 0L139.091 126.504l-68.946 7.875zm0-308.408l60.293 34.683-73.77-.942zm0 0L284.529 119.5l-73.523 2.018z"/><path d="M298.006 85.759l132.945 38.585-72.652-3.902zm0 308.408L567.471 140.86l-66.325-9.686zm0-308.408l-87 35.759-71.915 4.986zm0 308.408L70.145 134.379l-64.563 10.7z"/><path d="M298.006 85.759l203.14 45.415-70.195-6.83zm0 0l-158.915 40.745-68.946 7.875zm0 308.408l330.496-240.886-61.031-12.421z"/><path d="M298.006 85.759l269.465 55.101-66.325-9.686zm0 308.408L5.582 145.079l-58.737 13.395zm0-308.408l-227.861 48.62-64.563 10.7z"/><path d="M298.006 85.759l330.496 67.522-61.031-12.421z"/><path d="M298.006 394.167l384.777-225.863-54.281-15.023zm0-308.408L5.582 145.079l-58.737 13.395z"/><path d="M298.006 394.167L-53.155 158.474l-51.456 15.922zm0-308.408l384.777 82.545-54.281-15.023z"/><path d="M298.006 394.167l430.828-208.466-46.051-17.397zm0-308.408l-351.161 72.715-51.456 15.922z"/><path d="M298.006 85.759l430.828 99.942-46.051-17.397z"/><path d="M298.006 394.167l467.158-188.958-36.33-19.508z"/><path d="M298.006 85.759l467.158 119.45-36.33-19.508zm-402.617 88.637l360.52 220.642 42.097-.871z"/><path d="M298.006 394.167l492.34-167.73-25.182-21.228z"/><path d="M298.006 85.759l492.34 140.678-25.182-21.228zm-402.617 88.637l328.469 179.466 32.051 41.176z"/><path d="M-104.611 174.396l402.617-88.637-42.937 37.98zm402.617 219.771l505.015-145.203-12.675-22.527zm-402.617-219.771l316.099 106.035 12.37 73.431zm0 0l359.68-50.657-32.071 71.659z"/><path d="M298.006 85.759l505.015 163.205-12.675-22.527zm-402.617 88.637l327.609 21.002-11.51 85.033zm402.617 219.771L802.09 272.229l.931-23.265z"/><path d="M298.006 85.759l504.084 186.47.931-23.265zm0 308.408l488.683-98.568 15.401-23.37z"/><path d="M756.41 318.341l-500.501 76.697 42.097-.871zM298.006 85.759l488.683 209.84 15.401-23.37zM756.41 318.341l-532.552 35.521 32.051 41.176z"/><path d="M298.006 394.167l458.404-75.826 30.279-22.742z"/><path d="M756.41 318.341L298.006 85.759l-42.937 37.98zm0 0l-544.922-37.91 12.37 73.431z"/><path d="M298.006 85.759L756.41 318.341l30.279-22.742zM756.41 318.341L255.069 123.739l-32.071 71.659z"/><path d="M756.41 318.341L222.998 195.398l-11.51 85.033z"/></g></svg>