<svg xmlns="http://www.w3.org/2000/svg" width="468" height="396">
    <path d="M36 432V0m72 432V0m36 432V0m36 432V0m144 432V0m36 432V0M-36 72h531m-531 36h531M-36 216h531m-531 36h531m-531 36h531m-531 36h531" fill="none" stroke="#FEC200" stroke-width=".5"/>
    <g fill="#BC1E47" stroke="#231F20">
        <circle cx="36" cy="72" r="3"/>
        <circle cx="108" cy="108" r="3"/>
        <circle cx="144" cy="216" r="3"/>
        <circle cx="180" cy="252" r="3"/>
        <circle cx="324" cy="288" r="3"/>
        <circle cx="360" cy="324" r="3"/>
    </g>
    <path d="M-36 144L165.6 43.2 198 0m18 432l204-204 75-30M84 312L396 0M165.6 43.2L74.77 315.692 84 312l336-84M-54 423L74.77 315.692" fill="none" stroke="#0081CD" stroke-width="2"/>
</svg>
