<svg xmlns="http://www.w3.org/2000/svg" width="450" height="450"><path d="M9 81h72v72H9zm144 216h72v72h-72zM81 153h72v72H81zm144 0h72v72h-72zM81 369h72v72H81zm72-288h72v72h-72zm72-72h72v72h-72zm72 72h72v72h-72zm0 144h72v72h-72zm0 144h72v72h-72zm72-216h72v72h-72zm0 144h72v72h-72z" fill="#E9B4C2"/><path d="M9 153h72v72H9zm216 72h72v72h-72zM297 9h72v72h-72zm-72 360h72v72h-72zM9 297h72v72H9zM81 9h72v72H81zm0 216h72v72H81zm216-72h72v72h-72zm0 144h72v72h-72zm72-216h72v72h-72zm0 144h72v72h-72zm-216-72h72v72h-72z" fill="#FFEBAA"/><path d="M9 9h72v72H9zm0 216h72v72H9zm0 144h72v72H9zm216-72h72v72h-72zM81 81h72v72H81zm0 216h72v72H81zM153 9h72v72h-72zm0 216h72v72h-72zm0 144h72v72h-72zm72-288h72v72h-72zM369 9h72v72h-72zm0 360h72v72h-72z" fill="#AAD5EF"/><g fill="none" stroke="#000" stroke-width="3"><path d="M9 153l54 18 18 18 18 18h36l18-18 18-18h36l18 18 18 18 54 18 18-54 54-18-18-54-18-18-18-18-18-54"/><path d="M369 297l-54-18-18-54h72v-72h72v72"/><path d="M369 225h72v72h-72zm0 72l-18 54-18 18-18 18-18 54"/></g><g fill="none" stroke="#000"><path d="M9 9l108 108 72-72V9"/><path d="M81 9l18 54h36l18-54"/><path d="M9 81l54 18 18 18 18 18h36l18-18 18-18 54-18 18 54h36V99l-54-18V9"/><path d="M153 153l36-36 36 36 36 36 36-36 36-36-36-36-36-36V9M9 117h36l36 36m72 0H81l36 36z"/><path d="M153 153h144V81M90 153v9h54v-9"/><path d="M99 153v18h36v-18"/><path d="M108 153v27h18v-27m-9 0v36m117-36v9h54v-9"/><path d="M243 153v18h36v-18"/><path d="M252 153v27h18v-27m-9 0v36m36-99h9v54h-9"/><path d="M297 99h18v36h-18"/><path d="M297 108h27v18h-27m36-9h-36m108 288l36 36m-72 0l18-54 54-18m-108 72v-36l72-72h36m0-216h-36l-72-72V9m36 0l18 54 54 18m0-72l-36 36M261 441v-36l72-72-144-144-72 72-72-72H9"/><path d="M225 441l18-54 36-36v-36l-72-72h-36l-36 36-54 18-18-54-54-18v72"/><path d="M81 297H9v72l54-18zM9 441l180-180 72 72-72 72v36"/><path d="M153 441v-72l54-18v-36h-36l-18 54-54 18-18 54zm9-288v-9h54v9"/><path d="M171 153v-18h36v18"/><path d="M180 153v-27h18v27m-9 0v-36M81 225h144m72 72v72m-144-72h72v72M81 81h72m-63 0v9h54v-9"/><path d="M99 81v18h36V81"/><path d="M108 81v27h18V81m-9 0v36m45 180v-9h54v9"/><path d="M171 297v-18h36v18"/><path d="M180 297v-27h18v27m-9 0v-36m36 45h9v54h-9"/><path d="M225 351h18v-36h-18"/><path d="M225 324h27v18h-27m0-9h36m-99-108v-9h54v9"/><path d="M171 225v-18h36v18"/><path d="M180 225v-27h18v27m-9 0v-36m108 117h9v54h-9"/><path d="M297 315h18v36h-18"/><path d="M297 324h27v18h-27m0-9h36M90 225v9h54v-9"/><path d="M99 225v18h36v-18"/><path d="M108 225v27h18v-27m-9 0v36"/></g><circle cx="261" cy="117" r="2"/><circle cx="333" cy="261" r="2"/><circle cx="405" cy="189" r="2"/><circle cx="117" cy="36" r="2"/><circle cx="405" cy="261" r="2"/><circle cx="333" cy="189" r="2"/><circle cx="45" cy="333" r="2"/><circle cx="189" cy="333" r="2"/><circle cx="117" cy="405" r="2"/><circle cx="45" cy="261" r="2"/></svg>