<svg xmlns="http://www.w3.org/2000/svg" width="576" height="792"><g fill="none" stroke="#000"><path d="M288 126c0 9.941-8.059 18-18 18h-90c-9.941 0-18-8.059-18-18V90c0-9.941 8.059-18 18-18h90c9.941 0 18 8.059 18 18v36zm126 0c0 9.941-8.059 18-18 18h-36c-9.941 0-18-8.059-18-18V90c0-9.941 8.059-18 18-18h36c9.941 0 18 8.059 18 18v36z"/><path d="M468 180c0 9.941-8.059 18-18 18H126c-9.941 0-18-8.059-18-18V36c0-9.941 8.059-18 18-18h324c9.941 0 18 8.059 18 18v144zM261 414c0 9.941-8.059 18-18 18h-90c-9.941 0-18-8.059-18-18v-36c0-9.941 8.059-18 18-18h90c9.941 0 18 8.059 18 18v36zm180 0c0 9.941-8.059 18-18 18h-90c-9.941 0-18-8.059-18-18v-36c0-9.941 8.059-18 18-18h90c9.941 0 18 8.059 18 18v36z"/><path d="M495 468c0 9.941-8.059 18-18 18H99c-9.941 0-18-8.059-18-18V324c0-9.941 8.059-18 18-18h378c9.941 0 18 8.059 18 18v144zM198 702c0 9.941-8.059 18-18 18H90c-9.941 0-18-8.059-18-18v-36c0-9.941 8.059-18 18-18h90c9.941 0 18 8.059 18 18v36zm180 0c0 9.941-8.059 18-18 18h-90c-9.941 0-18-8.059-18-18v-36c0-9.941 8.059-18 18-18h90c9.941 0 18 8.059 18 18v36zm126 0c0 9.941-8.059 18-18 18h-36c-9.941 0-18-8.059-18-18v-36c0-9.941 8.059-18 18-18h36c9.941 0 18 8.059 18 18v36z"/><path d="M558 756c0 9.941-8.059 18-18 18H36c-9.941 0-18-8.059-18-18V612c0-9.941 8.059-18 18-18h504c9.941 0 18 8.059 18 18v144zM108 108h54m36-36V18m54 54V18m126 54V18M198 198v-54m54 54v-54m126 54v-54m36-36h54M171 306v54m54-54v54m126-54v54m54-54v54m-234 72v54m54-54v54m126-54v54m54-54v54M81 396h54m306 0h54M108 594v54m54-54v54m126-54v54m54-54v54m126-54v54m-360 72v54m54-54v54m126-54v54m54-54v54m126-54v54M18 684h54m432 0h54m-126 0h-54m-126 0h-54m63-288h54m-27-288h54"/></g><g fill="#BC1E47" stroke="#000"><circle cx="162" cy="108" r="9"/><circle cx="198" cy="72" r="9"/><circle cx="198" cy="144" r="9"/><circle cx="252" cy="72" r="9"/><circle cx="252" cy="144" r="9"/><circle cx="288" cy="108" r="9"/><circle cx="432" cy="684" r="9"/><circle cx="468" cy="648" r="9"/><circle cx="504" cy="684" r="9"/><circle cx="468" cy="720" r="9"/><circle cx="135" cy="396" r="9"/><circle cx="171" cy="360" r="9"/><circle cx="171" cy="432" r="9"/><circle cx="225" cy="360" r="9"/><circle cx="225" cy="432" r="9"/><circle cx="261" cy="396" r="9"/><circle cx="72" cy="684" r="9"/><circle cx="108" cy="648" r="9"/><circle cx="108" cy="720" r="9"/><circle cx="162" cy="648" r="9"/><circle cx="162" cy="720" r="9"/><circle cx="198" cy="684" r="9"/></g><g fill="#0081CD" stroke="#000"><circle cx="342" cy="108" r="9"/><circle cx="378" cy="72" r="9"/><circle cx="414" cy="108" r="9"/><circle cx="378" cy="144" r="9"/><circle cx="315" cy="396" r="9"/><circle cx="351" cy="360" r="9"/><circle cx="441" cy="396" r="9"/><circle cx="351" cy="432" r="9"/><circle cx="405" cy="360" r="9"/><circle cx="405" cy="432" r="9"/><circle cx="252" cy="684" r="9"/><circle cx="288" cy="648" r="9"/><circle cx="378" cy="684" r="9"/><circle cx="288" cy="720" r="9"/><circle cx="342" cy="648" r="9"/><circle cx="342" cy="720" r="9"/></g><g fill="#FEC200" stroke="#000"><circle cx="108" cy="108" r="9"/><circle cx="198" cy="18" r="9"/><circle cx="252" cy="18" r="9"/><circle cx="378" cy="18" r="9"/><circle cx="198" cy="198" r="9"/><circle cx="252" cy="198" r="9"/><circle cx="378" cy="198" r="9"/><circle cx="468" cy="108" r="9"/><circle cx="468" cy="594" r="9"/><circle cx="468" cy="774" r="9"/><circle cx="558" cy="684" r="9"/><circle cx="81" cy="396" r="9"/><circle cx="171" cy="306" r="9"/><circle cx="225" cy="306" r="9"/><circle cx="351" cy="306" r="9"/><circle cx="171" cy="486" r="9"/><circle cx="225" cy="486" r="9"/><circle cx="351" cy="486" r="9"/><circle cx="405" cy="306" r="9"/><circle cx="405" cy="486" r="9"/><circle cx="495" cy="396" r="9"/><circle cx="18" cy="684" r="9"/><circle cx="108" cy="594" r="9"/><circle cx="162" cy="594" r="9"/><circle cx="288" cy="594" r="9"/><circle cx="108" cy="774" r="9"/><circle cx="162" cy="774" r="9"/><circle cx="288" cy="774" r="9"/><circle cx="342" cy="594" r="9"/><circle cx="342" cy="774" r="9"/></g></svg>