<svg xmlns="http://www.w3.org/2000/svg" width="612" height="603"><g fill="none" stroke="#000"><path d="M306 306l143.452-12.551 140.173-37.459-144.532 12.74"/><path d="M306 306l139.094-37.27 131.538-61.231-140.124 37.644"/><path d="M306 306l130.509-60.857L555.416 162l-131.46 61.404M306 306l117.957-82.597 102.665-102.525-118.801 83.298M306 306l101.821-101.825L491.124 85.38 388.593 188.042M306 306l82.592-117.959L450 56.585l-83.145 118.907M306 306l60.853-130.509 37.649-140.122-61.233 131.538M306 306l37.266-139.093 12.745-144.531-37.462 140.173M306 306l12.546-143.451L305.999 18l-12.552 144.549M306 306l-12.556-143.45-37.456-140.174 12.74 144.532M306 306l-37.275-139.091L207.497 35.37l37.643 140.123M306 306l-60.863-130.505-83.139-118.909 61.403 131.458M306 306l-82.602-117.954L120.874 85.381l83.299 118.799M306 306L204.171 204.182 85.376 120.879l102.663 102.529M306 306l-117.962-82.588-131.457-61.409 118.907 83.143M306 306l-130.512-60.85-140.123-37.648 131.538 61.233M306 306l-139.096-37.262-144.532-12.744 140.173 37.461M306 306l-143.453-12.541-144.549 12.547 144.548 12.551M306 306l-143.452 12.561-140.174 37.455 144.531-12.739M306 306l-139.091 37.28-131.542 61.228 140.125-37.645M306 306l-130.505 60.867-118.91 83.14 131.458-61.405M306 306l-117.953 82.605L85.38 491.129l118.798-83.299M306 306L204.183 407.832l-83.305 118.795 102.528-102.664M306 306l-82.588 117.965-61.411 131.457 83.145-118.908M306 306l-60.85 130.515-37.65 140.122 61.233-131.539M306 306l-37.261 139.098-12.747 144.531 37.462-140.173M306 306l-12.541 143.455M306 306l12.56 143.453 37.454 140.176-12.74-144.533M306 306l37.278 139.094 61.228 131.54-37.644-140.125M306 306l60.865 130.506 83.139 118.912L388.6 423.957M306 306l82.603 117.955 102.523 102.668-83.298-118.803M306 306l101.83 101.818 118.794 83.307-102.662-102.533M306 306l117.964 82.59 131.455 61.412-118.907-83.148M306 306l130.514 60.852 140.121 37.65-131.538-61.236M306 306l139.097 37.263 144.531 12.748-140.174-37.466M306 306l143.453 12.543 144.55-12.544-144.55-12.556"/></g><g fill="#FEC200" stroke="#000"><circle cx="306" cy="306" r="9"/><circle cx="449.452" cy="293.45" r="9"/><circle cx="589.625" cy="255.99" r="9"/><circle cx="445.093" cy="268.73" r="9"/><circle cx="576.632" cy="207.498" r="9"/><circle cx="436.509" cy="245.143" r="8.999"/><circle cx="555.416" cy="162" r="9"/><circle cx="423.958" cy="223.405" r="9"/><path d="M533.516 115.092c3.194 3.807 2.698 9.485-1.107 12.68a9.007 9.007 0 0 1-12.683-1.109c-3.193-3.808-2.698-9.485 1.11-12.679a9 9 0 0 1 12.68 1.108z"/><circle cx="407.823" cy="204.177" r="8.999"/><circle cx="491.123" cy="85.379" r="9.001"/><path d="M393.757 180.67c4.068 2.851 5.061 8.463 2.21 12.533a9 9 0 0 1-12.534 2.211 9.002 9.002 0 0 1-2.212-12.535 9.003 9.003 0 0 1 12.536-2.209z"/><circle cx="449.999" cy="56.584" r="9"/><circle cx="366.856" cy="175.492" r="9"/><path d="M407.579 26.911a9.003 9.003 0 0 1 5.381 11.536 9 9 0 1 1-16.916-6.155c1.699-4.671 6.865-7.081 11.535-5.381z"/><circle cx="343.27" cy="166.907" r="9"/><circle cx="356.01" cy="22.375" r="9.001"/><path d="M319.333 153.583c4.951.435 8.614 4.8 8.182 9.749-.433 4.953-4.799 8.616-9.749 8.183a9.003 9.003 0 0 1-8.184-9.75c.437-4.953 4.8-8.615 9.751-8.182z"/><circle cx="305.999" cy="18" r="9"/><path d="M292.664 153.583c4.949-.431 9.316 3.231 9.75 8.18.433 4.952-3.23 9.318-8.181 9.751a9.003 9.003 0 0 1-9.753-8.18c-.429-4.953 3.232-9.317 8.184-9.751z"/><circle cx="255.988" cy="22.376" r="9.001"/><path d="M266.399 158.214c4.8-1.284 9.736 1.564 11.021 6.363 1.287 4.802-1.562 9.737-6.361 11.023a9.002 9.002 0 0 1-11.026-6.362c-1.283-4.802 1.566-9.737 6.366-11.024z"/><circle cx="207.497" cy="35.37" r="9.001"/><path d="M241.338 167.336c4.505-2.098 9.86-.15 11.959 4.352a8.998 8.998 0 0 1-4.351 11.96 9.003 9.003 0 0 1-11.964-4.351 9.005 9.005 0 0 1 4.356-11.961z"/><circle cx="161.998" cy="56.586" r="9.001"/><path d="M218.241 180.671c4.072-2.848 9.685-1.86 12.533 2.209a8.998 8.998 0 0 1-2.208 12.534 9.003 9.003 0 0 1-12.538-2.208c-2.846-4.072-1.858-9.683 2.213-12.535z"/><circle cx="120.875" cy="85.381" r="9"/><path d="M197.812 197.814c3.516-3.511 9.214-3.513 12.727 0a8.998 8.998 0 0 1 .002 12.727c-3.516 3.516-9.214 3.518-12.73.004a9.004 9.004 0 0 1 .001-12.731z"/><circle cx="85.378" cy="120.879" r="9"/><path d="M180.668 218.244c2.854-4.068 8.464-5.06 12.534-2.21 4.072 2.852 5.062 8.464 2.212 12.534a9.006 9.006 0 0 1-12.537 2.215c-4.069-2.855-5.06-8.466-2.209-12.539z"/><circle cx="56.583" cy="162.003" r="9"/><path d="M167.334 241.342c2.103-4.502 7.456-6.453 11.959-4.354 4.505 2.102 6.454 7.457 4.355 11.959-2.103 4.506-7.456 6.457-11.963 4.358-4.502-2.104-6.452-7.459-4.351-11.963z"/><circle cx="35.367" cy="207.501" r="9"/><path d="M158.212 266.404c1.289-4.799 6.224-7.65 11.021-6.365 4.802 1.286 7.652 6.223 6.366 11.021-1.288 4.803-6.222 7.654-11.023 6.369-4.801-1.29-7.65-6.225-6.364-11.025z"/><circle cx="22.374" cy="255.992" r="9"/><path d="M153.581 292.67c.438-4.951 4.801-8.615 9.748-8.184 4.953.434 8.616 4.801 8.184 9.75-.435 4.951-4.798 8.616-9.75 8.187-4.952-.441-8.615-4.804-8.182-9.753z"/><circle cx="17.999" cy="306.003" r="9.001"/><path d="M153.581 319.339c-.43-4.95 3.232-9.319 8.18-9.751a9.002 9.002 0 0 1 1.571 17.936c-4.953.427-9.317-3.235-9.751-8.185z"/><circle cx="22.375" cy="356.014" r="9"/><path d="M158.213 345.604c-1.282-4.801 1.564-9.738 6.362-11.023 4.802-1.286 9.738 1.562 11.024 6.361 1.285 4.805-1.562 9.74-6.362 11.029-4.803 1.282-9.737-1.569-11.024-6.367zM26.91 407.584c-1.7-4.671.71-9.838 5.378-11.535a9 9 0 0 1 11.537 5.379 9.004 9.004 0 0 1-5.379 11.537c-4.672 1.696-9.837-.713-11.536-5.381zm140.426-36.918a9.002 9.002 0 1 1 11.962 4.356c-4.509 2.095-9.863.146-11.962-4.356zM48.79 454.504c-2.486-4.303-1.01-9.811 3.293-12.295 4.306-2.484 9.81-1.012 12.296 3.295a9.005 9.005 0 0 1-3.294 12.297c-4.306 2.482-9.812 1.006-12.295-3.297zm131.881-60.742c-2.848-4.072-1.862-9.688 2.208-12.533 4.072-2.852 9.685-1.863 12.535 2.205a9.01 9.01 0 0 1-2.206 12.542c-4.076 2.846-9.687 1.854-12.537-2.214zM78.484 496.912a9.002 9.002 0 1 1 12.681 1.111c-3.81 3.192-9.487 2.696-12.681-1.111zm119.329-82.722c-3.511-3.516-3.516-9.216-.002-12.726 3.516-3.516 9.215-3.516 12.729-.004a9.01 9.01 0 0 1 .006 12.734c-3.521 3.511-9.219 3.51-12.733-.004zm-82.72 119.33c-3.809-3.193-4.305-8.875-1.111-12.68a9.004 9.004 0 0 1 12.683-1.111c3.806 3.196 4.303 8.874 1.109 12.684-3.198 3.804-8.876 4.3-12.681 1.107zm103.151-102.188c-4.068-2.852-5.063-8.463-2.212-12.53 2.852-4.072 8.464-5.063 12.534-2.216a9.012 9.012 0 0 1 2.217 12.541c-2.856 4.068-8.47 5.057-12.539 2.205zm-60.743 131.881c-4.305-2.484-5.779-7.992-3.297-12.293a9.002 9.002 0 0 1 15.593 9.002 9.005 9.005 0 0 1-12.296 3.291zm83.84-118.546c-4.502-2.102-6.457-7.456-4.354-11.956 2.101-4.506 7.457-6.457 11.96-4.358 4.506 2.104 6.457 7.457 4.359 11.964-2.107 4.503-7.462 6.452-11.965 4.35zm-36.919 140.424c-4.671-1.696-7.08-6.866-5.383-11.532a9.003 9.003 0 0 1 16.919 6.156 9 9 0 0 1-11.536 5.376zm61.98-131.302c-4.799-1.289-7.653-6.222-6.364-11.021 1.286-4.8 6.222-7.651 11.021-6.368a9.01 9.01 0 0 1 6.372 11.026c-1.294 4.803-6.23 7.65-11.029 6.363zM254.429 598.49c-4.895-.859-8.166-5.532-7.303-10.424.865-4.896 5.531-8.166 10.428-7.303 4.896.864 8.163 5.531 7.302 10.43-.867 4.895-5.535 8.16-10.427 7.297zm38.238-140.07c-4.949-.436-8.617-4.799-8.182-9.748.434-4.951 4.799-8.615 9.748-8.185 4.954.437 8.617 4.8 8.189 9.752-.44 4.952-4.805 8.615-9.755 8.181zm26.669 0c-4.948.431-9.319-3.229-9.75-8.18a9.006 9.006 0 0 1 8.18-9.753 9.011 9.011 0 0 1 9.759 8.182c.425 4.954-3.238 9.317-8.189 9.751zm38.239 140.07c-4.893.865-9.565-2.406-10.428-7.298a9.002 9.002 0 1 1 17.731-3.126 9.002 9.002 0 0 1-7.303 10.424zm-11.974-144.701c-4.799 1.283-9.739-1.562-11.021-6.362-1.286-4.801 1.562-9.735 6.36-11.026 4.805-1.283 9.74 1.563 11.031 6.363 1.28 4.805-1.57 9.738-6.37 11.025zm61.981 131.303c-4.669 1.699-9.839-.711-11.537-5.377a9.001 9.001 0 0 1 5.382-11.538c4.669-1.7 9.835.708 11.536 5.38 1.699 4.672-.712 9.834-5.381 11.535zm-36.92-140.426c-4.503 2.097-9.862.154-11.959-4.351a9.006 9.006 0 0 1 4.35-11.963 9.012 9.012 0 0 1 11.968 4.352c2.095 4.509.145 9.862-4.359 11.962zm83.841 118.545c-4.304 2.486-9.813 1.011-12.296-3.291-2.484-4.309-1.011-9.811 3.297-12.297 4.302-2.484 9.807-1.01 12.294 3.296 2.484 4.304 1.006 9.808-3.295 12.292zm-60.744-131.879c-4.071 2.846-9.687 1.863-12.533-2.209a9.007 9.007 0 0 1 2.207-12.537c4.073-2.848 9.687-1.86 12.541 2.208 2.846 4.077 1.855 9.686-2.215 12.538zM496.91 533.517c-3.806 3.194-9.487 2.698-12.681-1.105a9.005 9.005 0 0 1 1.11-12.683c3.807-3.195 9.484-2.699 12.682 1.11 3.195 3.807 2.694 9.483-1.111 12.678zm-82.721-119.328c-3.515 3.51-9.216 3.516-12.728 0a9.005 9.005 0 0 1-.003-12.729c3.517-3.512 9.216-3.516 12.734-.006 3.512 3.523 3.511 9.22-.003 12.735zm119.329 82.719c-3.193 3.807-8.875 4.307-12.681 1.114a9.005 9.005 0 0 1-1.108-12.685c3.194-3.807 8.871-4.303 12.682-1.107 3.806 3.195 4.299 8.874 1.107 12.678zm-102.186-103.15c-2.853 4.066-8.466 5.064-12.533 2.211a9.006 9.006 0 0 1-2.214-12.535 9.018 9.018 0 0 1 12.541-2.217c4.067 2.859 5.057 8.471 2.206 12.541zM563.211 454.5c-2.483 4.305-7.991 5.783-12.294 3.299a9.007 9.007 0 0 1-3.295-12.299c2.484-4.305 7.99-5.779 12.296-3.294s5.777 7.991 3.293 12.294zm-118.544-83.84c-2.104 4.502-7.458 6.459-11.959 4.354-4.505-2.1-6.454-7.454-4.357-11.961a9.016 9.016 0 0 1 11.966-4.358c4.502 2.108 6.45 7.463 4.35 11.965zm140.422 36.92c-1.697 4.67-6.865 7.082-11.534 5.383a9.002 9.002 0 0 1-5.378-11.539c1.699-4.671 6.863-7.078 11.535-5.38 4.673 1.701 7.077 6.868 5.377 11.536zm-131.301-61.982c-1.29 4.799-6.223 7.656-11.021 6.366-4.8-1.286-7.65-6.222-6.367-11.024 1.289-4.799 6.224-7.648 11.026-6.369 4.801 1.294 7.647 6.228 6.362 11.027zm144.7 11.976c-.861 4.894-5.532 8.166-10.425 7.304a9.006 9.006 0 0 1-7.301-10.432 9 9 0 0 1 17.726 3.128zm-140.07-38.24c-.437 4.949-4.8 8.62-9.748 8.182-4.95-.432-8.614-4.797-8.185-9.75.438-4.949 4.801-8.615 9.751-8.188 4.954.442 8.616 4.807 8.182 9.756zm144.583-13.335c.001 4.97-4.03 9.005-8.999 9.005a9.006 9.006 0 0 1-9.002-9.006c0-4.968 4.029-8.998 9.001-9 4.973.001 8.999 4.035 9 9.001z"/></g></svg>