<svg xmlns="http://www.w3.org/2000/svg" width="450" height="468">
    <g fill="none" stroke="#0081CD" stroke-width="3">
        <path d="M37.715 350.684c-.167-.289-.332-.577-.497-.867"/>
        <path stroke-dasharray="2.0001,2.0001" d="M36.236 348.075C18.886 316.975 9 281.143 9 243 9 124.373 104.63 28.081 223.004 27.009"/>
        <path d="M224 27.002l1-.002v1"/>
        <path stroke-dasharray="2,2" d="M225 30v211"/>
        <path d="M225 242v1"/>
    </g>
    <path fill="none" stroke="#BC1E47" stroke-width="3" d="M412.749 349.875C375.564 415.058 305.414 459 225 459c-80.081 0-149.983-43.579-187.285-108.316l.223.316L225 243"/>
    <g fill="none" stroke="#009246" stroke-width="3">
        <path d="M225 27c.667 0 1.334.003 2 .009"/>
        <path stroke-dasharray="1.0032,3.0095" d="M230.009 27.057c.838.019 1.675.042 2.51.071"/>
        <path stroke-dasharray="4.0126,3.0095,1.0032,3.0095" d="M234.021 27.185C349.132 31.914 441 126.729 441 243c0 38.099-9.864 73.895-27.178 104.972"/>
        <path d="M413.085 349.283l-.336.592-.688 1.125-1.732-1"/>
        <path stroke-dasharray="0.9815,2.9444" d="M407.778 348.527l-2.125-1.226"/>
        <path stroke-dasharray="3.9259,2.9444,0.9815,2.9444" d="M404.379 346.564L228.007 244.736"/>
        <path d="M226.732 244L225 243"/>
    </g>
    <g fill="#FFEBAA" stroke="#231F20">
        <circle cx="225" cy="27" r="18"/>
        <circle cx="225" cy="243" r="18"/>
        <circle cx="37.938" cy="351" r="18"/>
        <circle cx="412.062" cy="351" r="17.999"/>
    </g>
</svg>
