<svg xmlns="http://www.w3.org/2000/svg" width="828" height="495">
    <path d="M72 54l72-36 72 36M36 90l36-36 36 36m72 0l36-36 18 72m-72 0l18-36 18 36m-108 0l18-36 18 36m-108 0l18-36 18 36m306-72l72-36 72 36M324 90l36-36 36 36m72 0l36-36 18 72m-72 0l18-36 18 36m-108 0l18-36 18 36m-108 0l18-36 18 36m306-72l72-36 72 36M612 90l36-36 36 36m72 0l36-36 18 72m-72 0l18-36 18 36m-108 0l18-36 18 36m-108 0l18-36 18 36M72 306l72-36 72 36M36 342l36-36 36 36m72 0l36-36 18 72m-72 0l18-36 18 36m-108 0l18-36 18 36m-108 0l18-36 18 36m306-72l72-36 72 36m-180 36l36-36 36 36m72 0l36-36 18 72m-72 0l18-36 18 36m-108 0l18-36 18 36m-108 0l18-36 18 36m306-72l72-36 72 36m-180 36l36-36 36 36m72 0l36-36 18 72m-72 0l18-36 18 36m-108 0l18-36 18 36m-108 0l18-36 18 36" fill="none" stroke="#000" stroke-width="2"/>
    <g fill="none" stroke="#BC1E47" stroke-width="2">
        <path d="M234 378c0 49.706-40.294 90-90 90s-90-40.294-90-90"/>
        <path d="M234 378c0 39.765-32.235 72-72 72s-72-32.235-72-72"/>
        <path d="M234 378c0 29.823-24.177 54-54 54s-54-24.177-54-54"/>
        <path d="M234 378c0 59.646-48.353 108-108 108S18 437.646 18 378"/>
        <path d="M198 378c0 29.823-24.177 54-54 54s-54-24.177-54-54"/>
        <path d="M198 378c0 19.882-16.118 36-36 36s-36-16.118-36-36"/>
        <path d="M162 378c0 9.941-8.059 18-18 18s-18-8.059-18-18"/>
        <path d="M162 378c0 19.882-16.118 36-36 36s-36-16.118-36-36"/>
        <path d="M198 378c0 39.765-32.235 72-72 72s-72-32.235-72-72"/>
        <path d="M162 378c0 29.823-24.177 54-54 54s-54-24.177-54-54"/>
        <path d="M198 378c0 49.706-40.294 90-90 90s-90-40.294-90-90"/>
        <path d="M162 378c0 39.765-32.235 72-72 72s-72-32.235-72-72m792 0c0 9.941-8.059 18-18 18s-18-8.059-18-18"/>
        <path d="M810 378c0 19.882-16.118 36-36 36s-36-16.118-36-36m-252 0c0 9.941-8.059 18-18 18s-18-8.059-18-18m252-252c0 9.941-8.059 18-18 18s-18-8.059-18-18m-288 0c0 19.882-16.118 36-36 36s-36-16.118-36-36"/>
        <path d="M414 126c0 19.882-16.118 36-36 36s-36-16.118-36-36"/>
        <path d="M414 126c0 29.823-24.177 54-54 54s-54-24.177-54-54"/>
        <path d="M378 126c0 9.941-8.059 18-18 18s-18-8.059-18-18m-288 0c0 9.941-8.059 18-18 18s-18-8.059-18-18"/>
    </g>
    <g fill="#FFEBAA" stroke="#000">
        <circle cx="18" cy="126" r="9"/>
        <circle cx="54" cy="126" r="9"/>
        <circle cx="90" cy="126" r="9"/>
        <circle cx="126" cy="126" r="9"/>
        <circle cx="162" cy="126" r="9"/>
        <circle cx="198" cy="126" r="9"/>
        <circle cx="234" cy="126" r="9"/>
        <circle cx="306" cy="126" r="9"/>
        <circle cx="342" cy="126" r="9"/>
        <circle cx="378" cy="126" r="9"/>
        <circle cx="414" cy="126" r="9"/>
        <circle cx="450" cy="126" r="9"/>
        <circle cx="486" cy="126" r="9"/>
        <circle cx="522" cy="126" r="9"/>
        <circle cx="594" cy="126" r="9"/>
        <circle cx="630" cy="126" r="9"/>
        <circle cx="666" cy="126" r="9"/>
        <circle cx="702" cy="126" r="9"/>
        <circle cx="738" cy="126" r="9"/>
        <circle cx="774" cy="126" r="9"/>
        <circle cx="810" cy="126" r="9"/>
        <circle cx="18" cy="378" r="9"/>
        <circle cx="54" cy="378" r="9"/>
        <circle cx="90" cy="378" r="9"/>
        <circle cx="126" cy="378" r="9"/>
        <circle cx="162" cy="378" r="9"/>
        <circle cx="198" cy="378" r="9"/>
        <circle cx="234" cy="378" r="9"/>
        <circle cx="306" cy="378" r="9"/>
        <circle cx="342" cy="378" r="9"/>
        <circle cx="378" cy="378" r="9"/>
        <circle cx="414" cy="378" r="9"/>
        <circle cx="450" cy="378" r="9"/>
        <circle cx="486" cy="378" r="9"/>
        <circle cx="522" cy="378" r="9"/>
        <circle cx="594" cy="378" r="9"/>
        <circle cx="630" cy="378" r="9"/>
        <circle cx="666" cy="378" r="9"/>
        <circle cx="702" cy="378" r="9"/>
        <circle cx="738" cy="378" r="9"/>
        <circle cx="774" cy="378" r="9"/>
        <circle cx="810" cy="378" r="9"/>
    </g>
    <g fill="#AAD5EF" stroke="#000">
        <circle cx="108" cy="90" r="9"/>
        <circle cx="72" cy="54" r="9"/>
        <circle cx="180" cy="90" r="9"/>
        <circle cx="216" cy="54" r="9"/>
        <circle cx="144" cy="18" r="9"/>
        <circle cx="324" cy="90" r="9"/>
        <circle cx="396" cy="90" r="9"/>
        <circle cx="468" cy="90" r="9"/>
        <circle cx="504" cy="54" r="9"/>
        <circle cx="432" cy="18" r="9"/>
        <circle cx="612" cy="90" r="9"/>
        <circle cx="648" cy="54" r="9"/>
        <circle cx="756" cy="90" r="9"/>
        <circle cx="792" cy="54" r="9"/>
        <circle cx="720" cy="18" r="9"/>
        <circle cx="36" cy="342" r="9"/>
        <circle cx="108" cy="342" r="9"/>
        <circle cx="72" cy="306" r="9"/>
        <circle cx="180" cy="342" r="9"/>
        <circle cx="216" cy="306" r="9"/>
        <circle cx="324" cy="342" r="9"/>
        <circle cx="396" cy="342" r="9"/>
        <circle cx="360" cy="306" r="9"/>
        <circle cx="504" cy="306" r="9"/>
        <circle cx="432" cy="270" r="9"/>
        <circle cx="612" cy="342" r="9"/>
        <circle cx="684" cy="342" r="9"/>
        <circle cx="648" cy="306" r="9"/>
        <circle cx="756" cy="342" r="9"/>
        <circle cx="720" cy="270" r="9"/>
    </g>
    <g fill="#BC1E47" stroke="#000">
        <circle cx="36" cy="90" r="9"/>
        <circle cx="360" cy="54" r="9"/>
        <circle cx="684" cy="90" r="9"/>
        <circle cx="144" cy="270" r="9"/>
        <circle cx="468" cy="342" r="9"/>
        <circle cx="792" cy="306" r="9"/>
    </g>
</svg>
