<svg width="600" height="600" xmlns="http://www.w3.org/2000/svg">
    <path d="M495.124 179.184l-20.338 25.432m20.338-25.432l-10.849-39.799m10.849 39.799l41.253 18.989m-41.253-18.989l28.79-49.356m-28.79 49.356l-79.994 15.794m79.994-15.794l85.245-40.798m-85.245 40.798l-133.65-66.414m133.65 66.414l44.926 153.032M221.047 116.197l15.818-9.407m-15.818 9.407l-35.737 13.697m35.737-13.697l48.456 42.407m-48.456-42.407l-37.142 55.293m37.142-55.293l-26.791-86.606m26.791 86.606l-70.791-60.829m70.791 60.829l-99.913-35.181m99.913 35.181l35.079 102.179m-35.079-102.179l-.259 123.621M339.605 97.013l21.869 15.757m-21.869-15.757l-37.244-8.125m37.244 8.125l-41.965 13.9m41.965-13.9l37.968-56.241m-37.968 56.241l-57.461-69.57m57.461 69.57l87.401-49.875m-87.401 49.875l-7.672 115.928M74.56 259.762l-33.936 16.54m33.936-16.54L57.524 303.1m17.036-43.338l60.635-37.689M74.56 259.762l74.804-11.812M74.56 259.762l-29.27-79.256m29.27 79.256l65.013 54.397M74.56 259.762l23.566-86.785M74.56 259.762l54.662 76.981M74.56 259.762l36.937 93.403M74.56 259.762l-1.174-100.61m258.547 53.789l-75.807 5.435m75.807-5.435l-62.43-54.337m62.43 54.337l79.608 28.134m-79.608-28.134l83.197-17.963m-83.197 17.963l-9.661 98.827m9.661-98.827l29.541-100.171m-29.541 100.171L297.64 110.913m34.293 102.028l76.028 98.019m-76.028-98.019l-85.851 101.453m85.851-101.453l99.447-98.958m143.459-59.207l-14.511-36.413m14.511 36.413l5.53 83.61m-5.53-83.61l-50.925 75.052m50.925-75.052L470.496 24.271m104.343 30.505L466.688 90.961m-164.327-2.073l-4.721 22.025m4.721-22.025l-20.217-61.445m20.217 61.445l-65.496 17.902m65.496-17.902l75.212-48.116m-75.212 48.116L194.256 29.591m237.124 84.392l35.308-23.022m-35.308 23.022l52.895 25.402m-52.895-25.402l-4.374-66.845m4.374 66.845l-69.906-1.213m69.906 1.213l-16.25 80.995m16.25-80.995l-53.807-73.211m53.807 73.211l39.116-89.712m-39.116 89.712l43.406 90.633M203.711 580.49l3.332-27.895m-3.332 27.895l48.786-8.971m-48.786 8.971l45.009-49.168m-45.009 49.168l-57.75-53.406m57.75 53.406l-99.242-16.445M522.46 462.501l16.72-46.21m-16.72 46.21l-49.163.942m49.163-.942l-3.456 85.872m3.456-85.872l25.694 83.658m-25.694-83.658l-43.671-85.033m43.671 85.033l-116.773-87.14M107.324 59.7l13.81 21.316M107.324 59.7l42.932-4.332M107.324 59.7L65.068 18.077M107.324 59.7L48.028 98.971M107.324 59.7l-73.293 6.195m73.293-6.195l-17.161 77.768M248.72 531.322l3.777 40.197m-3.777-40.197l-41.677 21.273m41.677-21.273l-36.603-41.562m36.603 41.562l-5.037-57.05m5.037 57.05l62.224 43.875m-62.224-43.875l-78.254-17.554m78.254 17.554l89.357-57.772m-89.357 57.772l61.192-99.021m-61.192 99.021l148.814-10.504m-50.682-78.869l-8.775 31.601m8.775-31.601l-36.94-9.648m36.94 9.648l17.648 37.129m-17.648-37.129l-17.167-47.571m17.167 47.571l69.177-39.351m-69.177 39.351l58.835-66.588m-58.835 66.588l126.445 21.494M139.573 314.159l-10.351 22.584m10.351-22.584l35.81 8.796m-35.81-8.796l42.659 25.559m-42.659-25.559l9.791-66.209m-9.791 66.209l-64.297 25.063m64.297-25.063L57.524 303.1m82.049 11.059l81.215-74.341M425.632 494.9l-28.098 25.918m28.098-25.918l47.665-31.457M425.632 494.9L364.5 479.078m61.132 15.822l-9.603-92.302m9.603 92.302l93.372 53.473M425.632 494.9l53.157-117.432M425.632 494.9l-95.947-100.522m154.59-254.993l39.639-9.557m-39.639 9.557l-17.587-48.424m17.587 48.424l-9.489 65.231m9.489-65.231l52.102 58.788m-52.102-58.788l-69.145 55.593m69.145-55.593l76.053-121.022m-36.414 111.465l56.455 8.558m-56.455-8.558l-57.226-38.867m57.226 38.867l12.463 68.345m-12.463-68.345l36.414-111.465m-36.414 111.465L470.496 24.271m10.643 308.78l-20.309 3.297m20.309-3.297l-2.35 44.417m2.35-44.417l-24.384-44.585m24.384 44.585l58.911-.835m-58.911.835l77.374 50.865m-77.374-50.865l58.041 83.24m-58.041-83.24l91.737-83.02m-91.737 83.02l55.238-134.878m-424.88 154.992l5.542 19.623m-5.542-19.623l17.725-16.422m-17.725 16.422l-34.455 12.521m34.455-12.521l-36.221-13.943m36.221 13.943l83.96 12.888m-83.96-12.888l111.233 71.973m88.214 150.059l-58.447-3.678m58.447 3.678l86.59-54.379m-86.59 54.379l27.133-101.647m-27.133 101.647l53.556-96.119M24.924 98.483l23.104.488m-23.104-.488l9.107-32.588m-9.107 32.588l10.411 33.549m54.828 5.436l-16.777 21.684m16.777-21.684l7.963 35.509m-7.963-35.509l-54.828-5.436m54.828 5.436L48.028 98.971m42.135 38.497l30.971-56.452m-30.971 56.452l95.147-7.574m-95.147 7.574l93.742 34.022m-93.742-34.022L65.068 18.077m129.188 11.514l-44 25.777m44-25.777l87.888-2.148m-87.888 2.148l42.609 77.199m-42.609-77.199l-8.946 100.303m8.946-100.303L65.068 18.077m129.188 11.514l103.384 81.322M194.256 29.591l-96.13 143.386m328.88-125.839l43.49-22.867m-43.49 22.867l-49.433-6.366m49.433 6.366l39.682 43.823m-39.682-43.823l-65.532 65.632m111.823 350.673l65.883-47.152m-65.883 47.152l-57.268-60.845m57.268 60.845l5.492-85.975m-5.492 85.975l45.707 84.93m-45.707-84.93l74.857 82.716m-74.857-82.716l-54.16-129.505m54.16 129.505l66.753-131.227m-319.399 75.008l2.079 17.914m-2.079-17.914l-25.194-41.171m25.194 41.171l89.261 25.077m-89.261-25.077l-87.38 39.864m87.38-39.864l25.431-92.83m-25.431 92.83l-103.612-34.436m103.612 34.436l89.361-62.796m-89.361 62.796l109.034-12.846m127.07-105.912l4.075 47.882m-4.075-47.882l-48.794 22.494m48.794-22.494l-37.618 45.472m37.618-45.472l-45.214-47.391m45.214 47.391l18.031-83.85m-18.031 83.85l83.295 43.75m-83.295-43.75l79.622-90.293m-79.622 90.293l116.121-38.435M36.915 375.662l40.127-9.976m-40.127 9.976l38.361-36.44m-38.361 36.44l-15.719 72.081m15.719-72.081L57.524 303.1m-20.609 72.562l58.72 63.747m99.822-73.356l-13.225-26.335m13.225 26.335l50.625-51.659m-50.625 51.659l-66.235-29.31m66.235 29.31l-78.418 6.735m78.418-6.735l-62.186 81.035m62.186-81.035l-7.524 114.33m7.524-114.33l114.555-21.625m-114.555 21.625l-99.822 73.356m99.822-73.356l25.331-126.235m-25.331 126.235l134.228 28.325m-77.188 177.141l-45.454-18.924m45.454 18.924l85.58-97.969m-217.12-12.236l12.314-14.226m-12.314 14.226l-25.322-21.905m25.322 21.905l66.976 19.069m-66.976-19.069l25.004 65.77m-25.004-65.77l49.509 52.454m-49.509-52.454l-16.488 102.731m314.668-230.107l-11.176-22.978m11.176 22.978l41.693 2.41m-41.693-2.41l-13.45 41.423m13.45-41.423l59.652 43.53m-59.652-43.53l-96.865-22.17m96.865 22.17l-89.452 60.44m89.452-60.44l-109.125 10.49M48.028 98.971l-12.693 33.061m12.693-33.061L34.031 65.895m13.997 33.076l25.358 60.181M48.028 98.971l73.106-17.955M48.028 98.971l17.04-80.894m515.301 120.309l-43.992 59.787m43.992-59.787l1.504 92.521m-1.504-92.521L470.496 24.271M98.126 172.977l-24.74-13.825m24.74 13.825l-52.836 7.529m52.836-7.529l37.069 49.096m-37.069-49.096l85.779-1.487m-85.779 1.487l87.184-43.083m136.962 181.874l-12.26 32.66m12.26-32.66l-76.19 2.626m76.19-2.626l85.689-.808m-85.689.808l83.415 63.593m-83.415-63.593l89.269-70.693m-89.269 70.693l-66.146-93.392m66.146 93.392l-101.484-71.95m76.852-128.905l-28.137 47.691m28.137-47.691l-60.775-4.123m60.775 4.123l63.834 1.857m-63.834-1.857L183.905 171.49m113.735-60.577l117.49 84.065m-117.49-84.065l113.901 130.162M364.5 479.078l-26.423-5.528m26.423 5.528l33.034 41.74m-33.034-41.74l51.529-76.48m-51.529 76.48l194.013-95.162M57.524 303.1l-16.9-26.798m16.9 26.798l17.752 36.122M57.524 303.1l71.698 33.643M57.524 303.1l91.84-55.15m94.319 226.322l-31.566 15.488m31.566-15.488l-20.953-49.134m20.953 49.134l66.229-41.971m-66.229 41.971l-36.64 78.323m36.64-78.323l94.394-.722m-94.394.722l-110.412-27.184m110.412 27.184l66.329-129.844m-66.329 129.844L117.039 372.788m455.837-122.757l8.997-19.124m-8.997 19.124l-36.499-51.858m36.499 51.858l-32.826 82.185m32.826-82.185l-98.09-45.415m98.09 45.415l-161.335-8.956m-265.58 286.009l24.505-13.316m-24.505 13.316l-41.492 36.961m41.492-36.961l61.082 25.511m-61.082-25.511l-12.69-79.996m12.69 79.996L21.196 447.743M236.865 106.79l32.638 51.814m-32.638-51.814l45.279-79.347m-45.279 79.347l-86.609-51.422M407.961 310.96l52.869 25.388m-52.869-25.388l3.58-69.885m-3.58 69.885l-97.949 33.468m97.949-33.468l-78.276 83.418m78.276-83.418l66.825-106.344M407.961 310.96l-151.835-92.584M149.364 247.95l-14.169-25.877m14.169 25.877l71.424-8.132m-71.424 8.132l26.019 75.005m-26.019-75.005l34.541-76.46m-34.541 76.46l96.718 66.444m-96.718-66.444l-74.088 91.272m74.088-91.272l120.139-89.346m145.627 36.374l-3.589 46.097m3.589-46.097l59.656 9.638m-59.656-9.638l-53.656-82.208m53.656 82.208l-145.627-36.374M40.624 276.302l4.666-95.796m71.749 192.282l12.183-36.045m-12.183 36.045l-39.997-7.102m39.997 7.102l-41.763-33.566m41.763 33.566l-21.404 66.621m21.404-66.621l65.193-33.07m-65.193 33.07l16.232 74.3m-16.232-74.3l58.344-49.833m-58.344 49.833l-95.843 74.955m95.843-74.955l95.078 116.972M121.134 81.016l29.122-25.648m-29.122 25.648l64.176 48.878m-64.176-48.878L34.031 65.895m87.103 15.121l-85.799 51.016m85.799-51.016l62.771 90.474m-62.771-90.474l14.061 141.057m401.182-23.9l45.496 32.734m-45.496-32.734l-61.591 6.443m61.591-6.443l3.673 134.043m-364.667-9.261l6.849 16.763m-6.849-16.763l-46.161 13.788m46.161-13.788l70.699-8.561m-70.699 8.561l45.405-83.137m195.241 162.78l-10.342-27.237m10.342 27.237l62.76-25.13m-62.76 25.13l44.801-66.25m-44.801 66.25l-86.344-8.22m86.344 8.22l123.151 13.693M256.126 218.376l-35.338 21.442m35.338-21.442l13.377-59.772m-13.377 59.772l-72.221-46.886m72.221 46.886l-10.044 96.018m10.044-96.018l-70.816-88.482m124.702 214.534l19.673 49.95m-19.673-49.95l-63.93-30.034m63.93 30.034l95.675 30.933m-95.675-30.933l-40.509-185.824m108.07-117.832l-16.099 71.998m16.099-71.998l-95.429-13.329M222.73 425.138l-34.797 55.245m34.797-55.245l-10.613 64.622m10.613-64.622l87.182 7.163m-87.182-7.163l-89.459 21.95m89.459-21.95l106.955-30.76M21.196 447.743l74.439-8.334m-74.439 8.334l55.846-82.057m-55.846 82.057l83.273 116.302m307.072-322.97l63.245-36.459m-205.283-46.012l-85.598 12.886m85.598-12.886l-84.193-28.71m84.193 28.71l91.971-45.834M207.043 552.595l-36.577-38.827m36.577 38.827l5.074-62.835m-5.074 62.835l-19.11-72.212m19.11 72.212l-102.574 11.45m301.218-188.684l55.143-39.013m-55.143 39.013l73.102 2.107m-73.102-2.107l-76.002 19.017M560.328 18.363l-89.832 5.908m89.832-5.908l-93.64 72.598M45.29 180.506l28.096-21.354M45.29 180.506l-9.955-48.474m9.955 48.474l89.905 41.567M470.496 24.271l-3.808 66.69m8.098 113.655l65.264 127.6M170.466 513.768l17.467-33.385m-17.467 33.385l41.651-24.008m-41.651 24.008l-37.195-66.68m196.414-52.71l-19.773 37.923m-63.83-117.907l-63.85 25.324m63.85-25.324l-25.294-74.576m25.294 74.576l63.83 117.907m87.622 88.517l121.47 27.555M212.117 489.76l-24.184-9.377m0 0l-54.662-33.295m54.662 33.295l-58.711-143.64m-53.946 2.479l1.766 26.464m-1.766-26.464l53.946-2.479m-53.946 2.479l59.919-117.149M34.031 65.895l31.037-47.818m39.401 545.968l-8.834-124.636m89.675-309.515l-1.405 41.596m1.405-41.596l-35.054-74.526M35.335 132.032l38.051 27.12m59.885 287.936l-37.636-7.679m37.636 7.679l-56.229-81.402m56.229 81.402l48.961-107.37m357.818-7.502l18.463 51.7m-18.463-51.7l-61.261 45.252m61.261-45.252l-.87 84.075m19.333-32.375l-19.333 32.375m19.333-32.375l-79.724-6.448M95.635 439.409l-18.593-73.723m383.788-29.338l17.959 41.12M135.195 222.073l48.71-50.583m-48.71 50.583l85.593 17.745m298.216 308.555l29.15-2.214M65.068 18.077l85.188 37.291m70.532 184.45l-36.883-68.328m-1.673 168.228l-53.01-2.975m349.567 40.725l60.391 38.823m-229.268 16.01l28.165 41.249" stroke="#000"/>
    <g stroke="#000" fill="#bc1e46">
        <circle cx="495.124" cy="179.184" r="3"/>
        <circle cx="221.047" cy="116.197" r="3"/>
        <circle cx="339.605" cy="97.013" r="3"/>
        <circle cx="74.56" cy="259.762" r="3"/>
        <circle cx="331.933" cy="212.941" r="3"/>
        <circle cx="574.839" cy="54.776" r="3"/>
        <circle cx="302.361" cy="88.888" r="3"/>
        <circle cx="431.38" cy="113.983" r="3"/>
        <circle cx="203.711" cy="580.49" r="3"/>
        <circle cx="522.46" cy="462.501" r="3"/>
        <circle cx="107.324" cy="59.7" r="3"/>
        <circle cx="248.72" cy="531.322" r="3"/>
        <circle cx="346.852" cy="441.949" r="3"/>
        <circle cx="139.573" cy="314.159" r="3"/>
        <circle cx="425.632" cy="494.9" r="3"/>
        <circle cx="484.275" cy="139.385" r="3"/>
        <circle cx="523.914" cy="129.828" r="3"/>
        <circle cx="481.139" cy="333.051" r="3"/>
        <circle cx="111.497" cy="353.165" r="3"/>
        <circle cx="310.944" cy="575.197" r="3"/>
        <circle cx="24.924" cy="98.483" r="3"/>
        <circle cx="90.163" cy="137.468" r="3"/>
        <circle cx="194.256" cy="29.591" r="3"/>
        <circle cx="427.006" cy="47.138" r="3"/>
        <circle cx="473.297" cy="463.443" r="3"/>
        <circle cx="220.651" cy="407.224" r="3"/>
        <circle cx="456.755" cy="288.466" r="3"/>
        <circle cx="36.915" cy="375.662" r="3"/>
        <circle cx="195.457" cy="366.053" r="3"/>
        <circle cx="252.497" cy="571.519" r="3"/>
        <circle cx="120.957" cy="461.314" r="3"/>
        <circle cx="419.137" cy="333.938" r="3"/>
        <circle cx="48.028" cy="98.971" r="3"/>
        <circle cx="580.369" cy="138.386" r="3"/>
        <circle cx="98.126" cy="172.977" r="3"/>
        <circle cx="322.272" cy="311.768" r="3"/>
        <circle cx="297.64" cy="110.913" r="3"/>
        <circle cx="364.5" cy="479.078" r="3"/>
        <circle cx="57.524" cy="303.1" r="3"/>
        <circle cx="243.683" cy="474.272" r="3"/>
        <circle cx="572.876" cy="250.031" r="3"/>
        <circle cx="145.961" cy="527.084" r="3"/>
        <circle cx="236.865" cy="106.79" r="3"/>
        <circle cx="407.961" cy="310.96" r="3"/>
        <circle cx="149.364" cy="247.95" r="3"/>
        <circle cx="415.13" cy="194.978" r="3"/>
        <circle cx="40.624" cy="276.302" r="3"/>
        <circle cx="117.039" cy="372.788" r="3"/>
        <circle cx="121.134" cy="81.016" r="3"/>
        <circle cx="536.377" cy="198.173" r="3"/>
        <circle cx="175.383" cy="322.955" r="3"/>
        <circle cx="416.029" cy="402.598" r="3"/>
        <circle cx="256.126" cy="218.376" r="3"/>
        <circle cx="310.012" cy="344.428" r="3"/>
        <circle cx="377.573" cy="40.772" r="3"/>
        <circle cx="222.73" cy="425.138" r="3"/>
        <circle cx="21.196" cy="447.743" r="3"/>
        <circle cx="411.541" cy="241.075" r="3"/>
        <circle cx="269.503" cy="158.604" r="3"/>
        <circle cx="207.043" cy="552.595" r="3"/>
        <circle cx="405.687" cy="375.361" r="3"/>
        <circle cx="560.328" cy="18.363" r="3"/>
        <circle cx="361.474" cy="112.77" r="3"/>
        <circle cx="45.29" cy="180.506" r="3"/>
        <circle cx="470.496" cy="24.271" r="3"/>
        <circle cx="474.786" cy="204.616" r="3"/>
        <circle cx="170.466" cy="513.768" r="3"/>
        <circle cx="329.685" cy="394.378" r="3"/>
        <circle cx="246.082" cy="314.394" r="3"/>
        <circle cx="466.688" cy="90.961" r="3"/>
        <circle cx="397.534" cy="520.818" r="3"/>
        <circle cx="212.117" cy="489.76" r="3"/>
        <circle cx="282.144" cy="27.443" r="3"/>
        <circle cx="187.933" cy="480.383" r="3"/>
        <circle cx="75.276" cy="339.222" r="3"/>
        <circle cx="34.031" cy="65.895" r="3"/>
        <circle cx="104.469" cy="564.045" r="3"/>
        <circle cx="185.31" cy="129.894" r="3"/>
        <circle cx="35.335" cy="132.032" r="3"/>
        <circle cx="133.271" cy="447.088" r="3"/>
        <circle cx="540.05" cy="332.216" r="3"/>
        <circle cx="558.513" cy="383.916" r="3"/>
        <circle cx="95.635" cy="439.409" r="3"/>
        <circle cx="460.83" cy="336.348" r="3"/>
        <circle cx="73.386" cy="159.152" r="3"/>
        <circle cx="135.195" cy="222.073" r="3"/>
        <circle cx="519.004" cy="548.373" r="3"/>
        <circle cx="65.068" cy="18.077" r="3"/>
        <circle cx="548.154" cy="546.159" r="3"/>
        <circle cx="220.788" cy="239.818" r="3"/>
        <circle cx="182.232" cy="339.718" r="3"/>
        <circle cx="581.873" cy="230.907" r="3"/>
        <circle cx="478.789" cy="377.468" r="3"/>
        <circle cx="309.912" cy="432.301" r="3"/>
        <circle cx="539.18" cy="416.291" r="3"/>
        <circle cx="129.222" cy="336.743" r="3"/>
        <circle cx="150.256" cy="55.368" r="3"/>
        <circle cx="338.077" cy="473.55" r="3"/>
        <circle cx="77.042" cy="365.686" r="3"/>
        <circle cx="183.905" cy="171.49" r="3"/>
    </g>
</svg>
