<svg width="600" height="600" xmlns="http://www.w3.org/2000/svg">
    <path d="M495.124 179.184l-20.338 25.432m20.338-25.432l-10.849-39.799m10.849 39.799l41.253 18.989m-315.33-81.976l15.818-9.407m-15.818 9.407l-35.737 13.697m35.737-13.697l48.456 42.407m70.102-61.591l21.869 15.757m-21.869-15.757l-37.244-8.125m37.244 8.125l37.968-56.241M74.56 259.762l-33.936 16.54m33.936-16.54l60.635-37.689M74.56 259.762l-29.27-79.256m29.27 79.256l54.662 76.981m202.711-123.802l-75.807 5.435m75.807-5.435l79.608 28.134m-79.608-28.134l-9.661 98.827m9.661-98.827l29.541-100.171m213.365-57.994l-14.511-36.413m14.511 36.413l5.53 83.61m-5.53-83.61L466.688 90.961m-164.327-2.073l-4.721 22.025m4.721-22.025l-20.217-61.445m149.236 86.54l35.308-23.022m-35.308 23.022l-69.906-1.213m69.906 1.213l-16.25 80.995M203.711 580.49l3.332-27.895m-3.332 27.895l48.786-8.971M522.46 462.501l16.72-46.21m-16.72 46.21l-49.163.942m49.163-.942l-3.456 85.872M107.324 59.7l13.81 21.316M107.324 59.7L65.068 18.077M107.324 59.7L48.028 98.971M248.72 531.322l3.777 40.197m-3.777-40.197l-41.677 21.273m41.677-21.273l-36.603-41.562m36.603 41.562l89.357-57.772m8.775-31.601l-8.775 31.601m8.775-31.601l-36.94-9.648m36.94 9.648l69.177-39.351m-276.456-88.439l-10.351 22.584m10.351-22.584l35.81 8.796m-35.81-8.796l9.791-66.209M425.632 494.9l-28.098 25.918m28.098-25.918l47.665-31.457m10.978-324.058l39.639-9.557m-39.639 9.557l-17.587-48.424m57.226 38.867l56.455 8.558m-99.23 194.665l-20.309 3.297m20.309-3.297l-2.35 44.417m2.35-44.417l58.911-.835m-428.553 20.949l5.542 19.623m-5.542-19.623l17.725-16.422m-17.725 16.422l-34.455 12.521m233.902 209.511l-58.447-3.678m58.447 3.678l86.59-54.379M24.924 98.483l23.104.488m-23.104-.488l9.107-32.588m-9.107 32.588l10.411 33.549m54.828 5.436l-16.777 21.684m16.777-21.684L48.028 98.971m42.135 38.497l30.971-56.452m73.122-51.425l-44 25.777m44-25.777l87.888-2.148m-87.888 2.148l42.609 77.199m190.141-59.652l43.49-22.867m-43.49 22.867l-49.433-6.366m49.433 6.366l39.682 43.823m6.609 372.482l-57.268-60.845m-195.378 4.626l2.079 17.914m-2.079-17.914l-25.194-41.171m25.194 41.171l-87.38 39.864m323.484-158.622l4.075 47.882m-4.075-47.882l-48.794 22.494m48.794-22.494l-45.214-47.391m45.214 47.391l18.031-83.85M36.915 375.662l40.127-9.976m-40.127 9.976l-15.719 72.081m174.261-81.69l-13.225-26.335m-61.275 121.596l12.314-14.226m-12.314 14.226l-25.322-21.905m25.322 21.905l25.004 65.77m273.176-193.146l-11.176-22.978m11.176 22.978l41.693 2.41m-41.693-2.41l-13.45 41.423m174.682-236.975l-43.992 59.787M98.126 172.977l-24.74-13.825m24.74 13.825l37.069 49.096m187.077 89.695l-12.26 32.66m12.26-32.66l85.689-.808M297.64 110.913l-28.137 47.691m28.137-47.691l-60.775-4.123M364.5 479.078l-26.423-5.528m26.423 5.528l33.034 41.74M57.524 303.1l-16.9-26.798m16.9 26.798l17.752 36.122m168.407 135.05l-31.566 15.488m31.566-15.488l-20.953-49.134m20.953 49.134l66.229-41.971m262.964-182.27l8.997-19.124m-8.997 19.124l-32.826 82.185M145.961 527.084l24.505-13.316m-24.505 13.316l-41.492 36.961m44.895-316.095l-14.169-25.877m14.169 25.877l71.424-8.132m194.342-44.84l-3.589 46.097m3.589-46.097l59.656 9.638M117.039 372.788l-21.404 66.621m25.499-358.393l29.122-25.648m-29.122 25.648l64.176 48.878m351.067 68.279l45.496 32.734m-406.49 92.048l6.849 16.763m233.797 62.88l-10.342-27.237m10.342 27.237l62.76-25.13M256.126 218.376l-35.338 21.442m35.338-21.442l13.377-59.772m40.509 185.824l19.673 49.95m-19.673-49.95l-63.93-30.034M21.196 447.743l74.439-8.334m111.408 113.186l-36.577-38.827m235.221-138.407l-76.002 19.017M560.328 18.363l-89.832 5.908M45.29 180.506l28.096-21.354m97.08 354.616l17.467-33.385m141.752-86.005l-19.773 37.923m-63.83-117.907l-63.85 25.324m63.85-25.324l-25.294-74.576m-8.671 249.942l-24.184-9.377m0 0l-54.662-33.295M75.276 339.222l1.766 26.464M34.031 65.895l31.037-47.818M185.31 129.894l-1.405 41.596m-148.57-39.458l38.051 27.12M540.05 332.216l18.463 51.7m0 0l-19.333 32.375M135.195 222.073l48.71-50.583m335.099 376.883l29.15-2.214M220.788 239.818l-36.883-68.328m294.884 205.978l60.391 38.823" stroke="#000"/>
    <g stroke="#000" fill="#bc1e46">
        <circle cx="495.124" cy="179.184" r="3"/>
        <circle cx="221.047" cy="116.197" r="3"/>
        <circle cx="339.605" cy="97.013" r="3"/>
        <circle cx="74.56" cy="259.762" r="3"/>
        <circle cx="331.933" cy="212.941" r="3"/>
        <circle cx="574.839" cy="54.776" r="3"/>
        <circle cx="302.361" cy="88.888" r="3"/>
        <circle cx="431.38" cy="113.983" r="3"/>
        <circle cx="203.711" cy="580.49" r="3"/>
        <circle cx="522.46" cy="462.501" r="3"/>
        <circle cx="107.324" cy="59.7" r="3"/>
        <circle cx="248.72" cy="531.322" r="3"/>
        <circle cx="346.852" cy="441.949" r="3"/>
        <circle cx="139.573" cy="314.159" r="3"/>
        <circle cx="425.632" cy="494.9" r="3"/>
        <circle cx="484.275" cy="139.385" r="3"/>
        <circle cx="523.914" cy="129.828" r="3"/>
        <circle cx="481.139" cy="333.051" r="3"/>
        <circle cx="111.497" cy="353.165" r="3"/>
        <circle cx="310.944" cy="575.197" r="3"/>
        <circle cx="24.924" cy="98.483" r="3"/>
        <circle cx="90.163" cy="137.468" r="3"/>
        <circle cx="194.256" cy="29.591" r="3"/>
        <circle cx="427.006" cy="47.138" r="3"/>
        <circle cx="473.297" cy="463.443" r="3"/>
        <circle cx="220.651" cy="407.224" r="3"/>
        <circle cx="456.755" cy="288.466" r="3"/>
        <circle cx="36.915" cy="375.662" r="3"/>
        <circle cx="195.457" cy="366.053" r="3"/>
        <circle cx="252.497" cy="571.519" r="3"/>
        <circle cx="120.957" cy="461.314" r="3"/>
        <circle cx="419.137" cy="333.938" r="3"/>
        <circle cx="48.028" cy="98.971" r="3"/>
        <circle cx="580.369" cy="138.386" r="3"/>
        <circle cx="98.126" cy="172.977" r="3"/>
        <circle cx="322.272" cy="311.768" r="3"/>
        <circle cx="297.64" cy="110.913" r="3"/>
        <circle cx="364.5" cy="479.078" r="3"/>
        <circle cx="57.524" cy="303.1" r="3"/>
        <circle cx="243.683" cy="474.272" r="3"/>
        <circle cx="572.876" cy="250.031" r="3"/>
        <circle cx="145.961" cy="527.084" r="3"/>
        <circle cx="236.865" cy="106.79" r="3"/>
        <circle cx="407.961" cy="310.96" r="3"/>
        <circle cx="149.364" cy="247.95" r="3"/>
        <circle cx="415.13" cy="194.978" r="3"/>
        <circle cx="40.624" cy="276.302" r="3"/>
        <circle cx="117.039" cy="372.788" r="3"/>
        <circle cx="121.134" cy="81.016" r="3"/>
        <circle cx="536.377" cy="198.173" r="3"/>
        <circle cx="175.383" cy="322.955" r="3"/>
        <circle cx="416.029" cy="402.598" r="3"/>
        <circle cx="256.126" cy="218.376" r="3"/>
        <circle cx="310.012" cy="344.428" r="3"/>
        <circle cx="377.573" cy="40.772" r="3"/>
        <circle cx="222.73" cy="425.138" r="3"/>
        <circle cx="21.196" cy="447.743" r="3"/>
        <circle cx="411.541" cy="241.075" r="3"/>
        <circle cx="269.503" cy="158.604" r="3"/>
        <circle cx="207.043" cy="552.595" r="3"/>
        <circle cx="405.687" cy="375.361" r="3"/>
        <circle cx="560.328" cy="18.363" r="3"/>
        <circle cx="361.474" cy="112.77" r="3"/>
        <circle cx="45.29" cy="180.506" r="3"/>
        <circle cx="470.496" cy="24.271" r="3"/>
        <circle cx="474.786" cy="204.616" r="3"/>
        <circle cx="170.466" cy="513.768" r="3"/>
        <circle cx="329.685" cy="394.378" r="3"/>
        <circle cx="246.082" cy="314.394" r="3"/>
        <circle cx="466.688" cy="90.961" r="3"/>
        <circle cx="397.534" cy="520.818" r="3"/>
        <circle cx="212.117" cy="489.76" r="3"/>
        <circle cx="282.144" cy="27.443" r="3"/>
        <circle cx="187.933" cy="480.383" r="3"/>
        <circle cx="75.276" cy="339.222" r="3"/>
        <circle cx="34.031" cy="65.895" r="3"/>
        <circle cx="104.469" cy="564.045" r="3"/>
        <circle cx="185.31" cy="129.894" r="3"/>
        <circle cx="35.335" cy="132.032" r="3"/>
        <circle cx="133.271" cy="447.088" r="3"/>
        <circle cx="540.05" cy="332.216" r="3"/>
        <circle cx="558.513" cy="383.916" r="3"/>
        <circle cx="95.635" cy="439.409" r="3"/>
        <circle cx="460.83" cy="336.348" r="3"/>
        <circle cx="73.386" cy="159.152" r="3"/>
        <circle cx="135.195" cy="222.073" r="3"/>
        <circle cx="519.004" cy="548.373" r="3"/>
        <circle cx="65.068" cy="18.077" r="3"/>
        <circle cx="548.154" cy="546.159" r="3"/>
        <circle cx="220.788" cy="239.818" r="3"/>
        <circle cx="182.232" cy="339.718" r="3"/>
        <circle cx="581.873" cy="230.907" r="3"/>
        <circle cx="478.789" cy="377.468" r="3"/>
        <circle cx="309.912" cy="432.301" r="3"/>
        <circle cx="539.18" cy="416.291" r="3"/>
        <circle cx="129.222" cy="336.743" r="3"/>
        <circle cx="150.256" cy="55.368" r="3"/>
        <circle cx="338.077" cy="473.55" r="3"/>
        <circle cx="77.042" cy="365.686" r="3"/>
        <circle cx="183.905" cy="171.49" r="3"/>
    </g>
</svg>
