<svg xmlns="http://www.w3.org/2000/svg" width="450" height="549"><path d="M346 462l48 24h-48v24h96v-24h-24l24-24zm-168 24v24l24-24v24h48v-24l24 24v-48h-24l-24 24v-24h-48zM10 462v48h48v-24h24v24h24v-48H58l-24 24v-24zm336-72l72-24-48 24h72v-48l-48 24h-24l48-24h-72zm-72-48l-24 24h24v24l-48-24 24 24-48-24 24 24h-48v-48zm-264 0l24 24H10v24h24l24-24v24h48v-48H82v24l-24-24zm336-120l72 24h-72v24h96v-48zm-168 0l24 24v-24l48 24-24-24h48v48h-72l24-24-48 24zm-168 0v24h48l-48 24h96v-48H58l24 24-48-24z" fill="none" stroke="#000" stroke-width="2" stroke-linejoin="bevel"/><g fill="#BC1E47" font-family="Times,serif" font-style="italic" font-size="24"><text transform="translate(102.665 61.999)">l</text><text transform="translate(147.999 17.999)">a</text><text transform="translate(195.999 17.999)">b</text><text transform="translate(244.673 17.999)">c</text><text transform="translate(291.999 17.999)">d</text><text transform="translate(341.33 61.999)">r</text></g><g fill="#0081CD" font-family="Times,serif" font-style="italic" font-size="24"><text transform="translate(99.325 109.999)">L</text><text transform="translate(146.669 149.999)">A</text><text transform="translate(194.669 149.999)">B</text><text transform="translate(241.995 149.999)">C</text><text transform="translate(289.333 149.999)">D</text><text transform="translate(338.669 109.999)">R</text></g><path d="M130 90v24m12 12h24m24 0h24m24 0h24m24 0h24m12-12V90" fill="none" stroke="#0081CD" stroke-width="2"/><path d="M130 66V42m12-12h24m24 0h24m24 0h24m24 0h24m12 12v24" fill="none" stroke="#BC1E47" stroke-width="2"/><g font-family="Times,serif" font-style="italic" font-size="24"><text transform="translate(38.651 301.999)">LLb</text><text transform="translate(206.669 301.999)">aAb</text><text transform="translate(383.997 301.999)">lll</text><text transform="translate(42.009 421.999)">lBc</text><text transform="translate(204.66 421.999)">CDr</text><text transform="translate(374.669 421.999)">ddA</text><text transform="translate(35.991 541.999)">bCC</text><text transform="translate(204.677 541.999)">AcD</text><text transform="translate(382.661 541.999)">llr</text></g><g fill="#FEC200" stroke="#000"><circle cx="130" cy="30" r="4"/><circle cx="130" cy="78" r="4"/><circle cx="130" cy="126" r="4"/><circle cx="178" cy="30" r="4"/><circle cx="178" cy="78" r="4"/><circle cx="178" cy="126" r="4"/><circle cx="226" cy="30" r="4"/><circle cx="226" cy="78" r="4"/><circle cx="226" cy="126" r="4"/><circle cx="274" cy="30" r="4"/><circle cx="274" cy="78" r="4"/><circle cx="274" cy="126" r="4"/><circle cx="322" cy="30" r="4"/><circle cx="322" cy="78" r="4"/><circle cx="322" cy="126" r="4"/><circle cx="10" cy="222" r="4"/><circle cx="10" cy="246" r="4"/><circle cx="10" cy="270" r="4"/><circle cx="34" cy="222" r="4"/><circle cx="34" cy="246" r="4"/><circle cx="34" cy="270" r="4"/><circle cx="58" cy="222" r="4"/><circle cx="58" cy="246" r="4"/><circle cx="58" cy="270" r="4"/><circle cx="82" cy="222" r="4"/><circle cx="82" cy="246" r="4"/><circle cx="82" cy="270" r="4"/><circle cx="106" cy="222" r="4"/><circle cx="106" cy="246" r="4"/><circle cx="106" cy="270" r="4"/><circle cx="346" cy="222" r="4"/><circle cx="346" cy="246" r="4"/><circle cx="346" cy="270" r="4"/><circle cx="370" cy="222" r="4"/><circle cx="370" cy="246" r="4"/><circle cx="370" cy="270" r="4"/><circle cx="394" cy="222" r="4"/><circle cx="394" cy="246" r="4"/><circle cx="394" cy="270" r="4"/><circle cx="418" cy="222" r="4"/><circle cx="418" cy="246" r="4"/><circle cx="418" cy="270" r="4"/><circle cx="442" cy="222" r="4"/><circle cx="442" cy="246" r="4"/><circle cx="442" cy="270" r="4"/><circle cx="178" cy="222" r="4"/><circle cx="178" cy="246" r="4"/><circle cx="178" cy="270" r="4"/><circle cx="202" cy="222" r="4"/><circle cx="202" cy="246" r="4"/><circle cx="202" cy="270" r="4"/><circle cx="226" cy="222" r="4"/><circle cx="226" cy="246" r="4"/><circle cx="226" cy="270" r="4"/><circle cx="250" cy="222" r="4"/><circle cx="250" cy="246" r="4"/><circle cx="250" cy="270" r="4"/><circle cx="274" cy="222" r="4"/><circle cx="274" cy="246" r="4"/><circle cx="274" cy="270" r="4"/><circle cx="10" cy="342" r="4"/><circle cx="10" cy="366" r="4"/><circle cx="10" cy="390" r="4"/><circle cx="34" cy="342" r="4"/><circle cx="34" cy="366" r="4"/><circle cx="34" cy="390" r="4"/><circle cx="58" cy="342" r="4"/><circle cx="58" cy="366" r="4"/><circle cx="58" cy="390" r="4"/><circle cx="82" cy="342" r="4"/><circle cx="82" cy="366" r="4"/><circle cx="82" cy="390" r="4"/><circle cx="106" cy="342" r="4"/><circle cx="106" cy="366" r="4"/><circle cx="106" cy="390" r="4"/><circle cx="346" cy="342" r="4"/><circle cx="346" cy="366" r="4"/><circle cx="346" cy="390" r="4"/><circle cx="370" cy="342" r="4"/><circle cx="370" cy="366" r="4"/><circle cx="370" cy="390" r="4"/><circle cx="394" cy="342" r="4"/><circle cx="394" cy="366" r="4"/><circle cx="394" cy="390" r="4"/><circle cx="418" cy="342" r="4"/><circle cx="418" cy="366" r="4"/><circle cx="418" cy="390" r="4"/><circle cx="442" cy="342" r="4"/><circle cx="442" cy="366" r="4"/><circle cx="442" cy="390" r="4"/><circle cx="178" cy="342" r="4"/><circle cx="178" cy="366" r="4"/><circle cx="178" cy="390" r="4"/><circle cx="202" cy="342" r="4"/><circle cx="202" cy="366" r="4"/><circle cx="202" cy="390" r="4"/><circle cx="226" cy="342" r="4"/><circle cx="226" cy="366" r="4"/><circle cx="226" cy="390" r="4"/><circle cx="250" cy="342" r="4"/><circle cx="250" cy="366" r="4"/><circle cx="250" cy="390" r="4"/><circle cx="274" cy="342" r="4"/><circle cx="274" cy="366" r="4"/><circle cx="274" cy="390" r="4"/><circle cx="10" cy="462" r="4"/><circle cx="10" cy="486" r="4"/><circle cx="10" cy="510" r="4"/><circle cx="34" cy="462" r="4"/><circle cx="34" cy="486" r="4"/><circle cx="34" cy="510" r="4"/><circle cx="58" cy="462" r="4"/><circle cx="58" cy="486" r="4"/><circle cx="58" cy="510" r="4"/><circle cx="82" cy="462" r="4"/><circle cx="82" cy="486" r="4"/><circle cx="82" cy="510" r="4"/><circle cx="106" cy="462" r="4"/><circle cx="106" cy="486" r="4"/><circle cx="106" cy="510" r="4"/><circle cx="346" cy="462" r="4"/><circle cx="346" cy="486" r="4"/><circle cx="346" cy="510" r="4"/><circle cx="370" cy="462" r="4"/><circle cx="370" cy="486" r="4"/><circle cx="370" cy="510" r="4"/><circle cx="394" cy="462" r="4"/><circle cx="394" cy="486" r="4"/><circle cx="394" cy="510" r="4"/><circle cx="418" cy="462" r="4"/><circle cx="418" cy="486" r="4"/><circle cx="418" cy="510" r="4"/><circle cx="442" cy="462" r="4"/><circle cx="442" cy="486" r="4"/><circle cx="442" cy="510" r="4"/><circle cx="178" cy="462" r="4"/><circle cx="178" cy="486" r="4"/><circle cx="178" cy="510" r="4"/><circle cx="202" cy="462" r="4"/><circle cx="202" cy="486" r="4"/><circle cx="202" cy="510" r="4"/><circle cx="226" cy="462" r="4"/><circle cx="226" cy="486" r="4"/><circle cx="226" cy="510" r="4"/><circle cx="250" cy="462" r="4"/><circle cx="250" cy="486" r="4"/><circle cx="250" cy="510" r="4"/><circle cx="274" cy="462" r="4"/><circle cx="274" cy="486" r="4"/><circle cx="274" cy="510" r="4"/></g></svg>