<svg xmlns="http://www.w3.org/2000/svg" width="448.5" height="401" viewBox="0 40.5 448.5 401"><g fill="#D8F0FF" fill-opacity=".8" stroke="#000" stroke-linejoin="round"><path d="M214.32 89.469l17.193-12.427 199.695 289.792z"/><path d="M231.513 77.042l17.812-11.565 181.883 301.357z"/><path d="M249.325 65.477l18.386-10.661 163.497 312.018z"/><path d="M267.711 54.816l18.893-9.712 144.604 321.73zm18.893-9.712l144.604 321.73zM3.565 341.639L214.32 89.469zM214.32 89.469l216.888 277.365-359.111 29.098zm216.888 277.365l4.859 17.577-363.97 11.521z"/><path d="M72.097 395.932l-18.463-11.597L214.32 89.469z"/><path d="M436.067 384.411l3.799 17.403-367.769-5.882zm-382.433-.076l-17.639-12.949L214.32 89.469z"/><path d="M35.995 371.386l-16.722-14.249L214.32 89.469zm403.871 30.428l2.688 17.163-370.457-23.045z"/><path d="M19.273 357.137L3.565 341.639 214.32 89.469zm423.281 61.84l1.542 16.854-371.999-39.899zM214.32 89.469l17.193-12.427 73.523 91.014z"/><path d="M231.513 77.042l17.812-11.565 55.711 102.579z"/><path d="M249.325 65.477l18.386-10.661 37.325 113.24zm18.386-10.661l18.893-9.712 18.432 122.952zm176.385 381.015L72.097 395.932z"/><path d="M286.604 45.104l144.604 321.73-126.172-198.778z"/><path d="M431.208 366.834l4.859 17.577-131.031-216.355zm4.859 17.577l3.799 17.403-134.83-233.758z"/><path d="M3.565 341.639L214.32 89.469l90.716 78.587zm436.301 60.175l2.688 17.163-137.518-250.921z"/><path d="M442.554 418.977l1.542 16.854-139.06-267.775z"/><path d="M444.096 435.831L72.097 395.932l232.939-227.876z"/><path d="M72.097 395.932l-18.463-11.597 251.402-216.279zm-18.463-11.597l-17.639-12.949 269.041-203.33zM35.995 371.386l-16.722-14.249 285.763-189.081z"/><path d="M19.273 357.137L3.565 341.639l301.471-173.583z"/></g></svg>