<svg xmlns="http://www.w3.org/2000/svg" width="427.5" height="440.625"><g fill="none" stroke="#000"><path d="M162.065 106.633c15.523-7.61 32.98-11.883 51.435-11.883 19.11 0 37.15 4.582 53.082 12.707M150.498 310.355C118.024 289.564 96.5 253.171 96.5 211.75m234 0c0 40.743-20.825 76.621-52.412 97.571"/><circle cx="213.5" cy="211.75" r="207"/><path d="M150.823 248.31l-51.745-29.875m114.745-79.245l-54.559-31.5M276.5 247.75v59.75m-126-59.75v63m62.677-171.56l51.745-29.875m11.255 138.995l54.559-31.5M213.5 346.75v72m0-72l62.354-36m-62.354 36l-62.354-36m179.59-166.5v72.56m0-72.56l62.839-36.28m-62.839 36.28l-62.839-36.28M97.741 144.25v72.56m0-72.56l62.839-36.279M97.741 144.25l-62.838-36.28M213.5 139.75v72m-62.354 36l62.354-36m62.354 36l-62.354-36m54.236-104.06l63 109.12 62.032-108.56zm8.764 203.06h-126l63 108zM96.586 216.81l64.664-108.56H34.233zm53.914 30.94l63-108 63 108z"/></g><g fill="#FFEBAA" stroke="#000"><circle cx="213.5" cy="211.75" r="18"/><circle cx="213.5" cy="346.75" r="18"/><circle cx="150.5" cy="247.75" r="18"/><circle cx="276.5" cy="247.75" r="18"/><circle cx="150.5" cy="310.75" r="18"/><circle cx="276.5" cy="310.75" r="18"/><circle cx="213.5" cy="139.75" r="18"/><circle cx="213.5" cy="418.75" r="18"/><circle cx="330.414" cy="144.25" r="18"/><circle cx="330.736" cy="216.81" r="18"/><circle cx="267.736" cy="107.69" r="18"/><circle cx="392.768" cy="108.25" r="18"/><circle cx="96.586" cy="144.25" r="18"/><circle cx="159.263" cy="107.69" r="18"/><circle cx="96.263" cy="216.81" r="18"/><circle cx="34.232" cy="108.25" r="17.999"/></g><g font-family="Times,serif" font-size="24"><text transform="translate(199.508 217.75)">Aa</text><text transform="translate(199.496 352.75)">Bb</text><text transform="translate(136.508 253.75)">Ac</text><text transform="translate(261.834 253.75)">Ad</text><text transform="translate(137.17 316.75)">Bc</text><text transform="translate(262.496 316.75)">Bd</text><text transform="translate(198.834 145.75)">Ab</text><text transform="translate(200.17 424.75)">Ba</text><text transform="translate(82.272 222.81)">Dc</text><text transform="translate(146.584 114.25)">Db</text><text transform="translate(81.92 150.25)">Dd</text><text transform="translate(20.24 114.25)">Da</text><text transform="translate(253.732 113.69)">Cb</text><text transform="translate(316.732 222.81)">Cd</text><text transform="translate(317.083 150.25)">Cc</text><text transform="translate(379.438 114.25)">Ca</text></g></svg>