<svg xmlns="http://www.w3.org/2000/svg" width="828" height="693"><path d="M128.411 90h31.177L144 63zm432 0h31.177L576 63zM112.822 204.75H144l-15.589-27zm31.178 0h31.177l-15.589-27zm-15.589-27h31.177l-15.588-27zm62.354 324h31.177l-15.588-27zm-124.709 0h31.177l-15.588-27zm46.765 81h31.177l-15.588-27zm-15.588-135h31.178l-15.589-27zm46.766 27h31.177l-15.588-27zm15.589-27h31.177l-15.588-27zm-46.766-27H144l-15.589-27zm31.178 0h31.177l-15.589-27zm-15.589-27h31.177l-15.588-27zm-46.766 81h31.177l-15.589-27zm31.177 0h31.177l-15.588-27zm62.354 0h31.178l-15.589-27zm-15.589 81h31.177l-15.588-27zm46.766 27h31.177l-15.589-27zm15.588-27h31.178l-15.589-27zm-46.765-27h31.177l-15.588-27zm31.177 0h31.177l-15.588-27zm-62.355 54h31.177l-15.588-27zm31.177 0h31.178l-15.589-27zm62.355 0h31.177l-15.588-27zm-202.652-27h31.177l-15.588-27zm46.766 27h31.177l-15.589-27zm15.588-27h31.178l-15.589-27zm-46.765-27h31.177l-15.588-27zm31.177 0h31.177l-15.588-27zm-62.355 54h31.177l-15.588-27zm31.177 0h31.178l-15.589-27zm509.945-418.5h31.177l-15.588-27zm0 0l-15.589 27m62.355 0l-15.588-27m-31.178 54h31.177m-62.355 0h31.177l-15.588-27zm62.355 0h31.177l-15.588-27zm-31.177 459h31.177m-124.71-216l-15.589 27m249.417 0l-15.588-27m-124.707 0h31.177m-93.532-54h31.176l-15.587-27zm0 0l-15.589 27m62.354 0l-15.588-27m-31.177 54h31.176m-62.354 0h31.177l-15.588-27zm62.354 0h31.177l-15.588-27zm93.533-54h31.176l-15.587-27zm0 0l-15.589 27m62.354 0l-15.588-27m-31.177 54h31.176m-62.354 0h31.177l-15.588-27zm62.354 0h31.177l-15.588-27zm-93.53-162h31.177l-15.588-27zm0 0l-15.589 27m62.355 0l-15.588-27m-31.178 54h31.177m-62.355 0h31.177l-15.588-27zm109.121 27l-15.588-27m-93.533 0l-15.588 27m77.943-27h31.177l-15.588-27zm-155.888 324h31.177m-93.532-54h31.176l-15.587-27zm0 0l-15.589 27m62.354 0l-15.588-27m-31.177 54h31.176m-62.354 0h31.177l-15.588-27zm62.354 0h31.177l-15.588-27zm93.533-54h31.176l-15.587-27zm0 0l-15.589 27m62.354 0l-15.588-27m-31.177 54h31.176m-62.354 0h31.177l-15.588-27zm62.354 0h31.177l-15.588-27zm-93.53-162h31.177l-15.588-27zm0 0l-15.589 27m62.355 0l-15.588-27m-31.178 54h31.177m-62.355 0h31.177l-15.588-27zm109.121 27l-15.588-27m-93.533 0l-15.588 27m77.943-27h31.177l-15.588-27zm218.24 108h31.177m-93.532-54h31.176l-15.587-27zm0 0l-15.589 27m62.354 0l-15.588-27m-31.177 54h31.176m-62.354 0h31.177l-15.588-27zm62.354 0h31.177l-15.588-27zm93.533-54h31.176l-15.587-27zm0 0l-15.589 27m62.354 0l-15.588-27m-31.177 54h31.176m-62.354 0h31.177l-15.588-27zm62.354 0h31.177l-15.588-27zm-93.53-162h31.177l-15.588-27zm0 0l-15.589 27m62.355 0l-15.588-27m-31.178 54h31.177m-62.355 0h31.177l-15.588-27zm109.121 27l-15.588-27m-93.533 0l-15.588 27m77.943-27h31.177l-15.588-27z" fill="none" stroke="#000"/><g fill="#FFEBAA" stroke="#000"><circle cx="144" cy="18" r="9"/><circle cx="144" cy="63" r="9"/><circle cx="128.412" cy="90" r="9"/><circle cx="159.589" cy="90" r="9"/><circle cx="576" cy="18" r="9"/><circle cx="576" cy="63" r="9"/><circle cx="560.412" cy="90" r="9"/><circle cx="591.589" cy="90" r="9"/><circle cx="144" cy="150.75" r="9"/><circle cx="128.412" cy="177.75" r="9"/><circle cx="159.589" cy="177.75" r="9"/><circle cx="112.823" cy="204.75" r="9"/><circle cx="144" cy="204.75" r="9"/><circle cx="175.177" cy="204.75" r="9"/><circle cx="144" cy="366.75" r="9"/><circle cx="128.412" cy="393.75" r="9"/><circle cx="159.589" cy="393.75" r="9"/><circle cx="112.823" cy="420.75" r="9"/><circle cx="144" cy="420.75" r="9"/><circle cx="175.177" cy="420.75" r="9"/><circle cx="97.234" cy="447.75" r="9"/><circle cx="128.411" cy="447.75" r="9"/><circle cx="81.645" cy="474.75" r="9"/><circle cx="112.822" cy="474.75" r="9"/><circle cx="144" cy="474.75" r="9"/><circle cx="159.588" cy="447.75" r="9"/><circle cx="190.766" cy="447.75" r="9"/><circle cx="175.177" cy="474.75" r="9"/><circle cx="206.354" cy="474.75" r="9"/><circle cx="190.765" cy="501.75" r="9"/><circle cx="221.942" cy="501.75" r="9"/><circle cx="175.176" cy="528.75" r="9"/><circle cx="206.354" cy="528.75" r="9"/><circle cx="237.531" cy="528.75" r="9"/><circle cx="159.587" cy="555.75" r="9"/><circle cx="190.765" cy="555.75" r="9"/><circle cx="143.999" cy="582.75" r="9"/><circle cx="175.176" cy="582.75" r="9"/><circle cx="206.353" cy="582.75" r="9"/><circle cx="221.942" cy="555.75" r="9"/><circle cx="253.119" cy="555.75" r="9"/><circle cx="237.53" cy="582.75" r="9"/><circle cx="268.708" cy="582.75" r="9"/><circle cx="66.056" cy="501.75" r="9"/><circle cx="97.233" cy="501.75" r="9"/><circle cx="50.467" cy="528.75" r="9"/><circle cx="81.645" cy="528.75" r="9"/><circle cx="112.822" cy="528.75" r="9"/><circle cx="34.878" cy="555.75" r="9"/><circle cx="66.056" cy="555.75" r="9"/><circle cx="19.29" cy="582.75" r="9"/><circle cx="50.467" cy="582.75" r="9"/><circle cx="81.644" cy="582.75" r="9"/><circle cx="97.233" cy="555.75" r="9"/><circle cx="128.41" cy="555.75" r="9"/><circle cx="112.821" cy="582.75" r="9"/><circle cx="576" cy="137.25" r="9"/><circle cx="560.412" cy="164.25" r="9"/><circle cx="591.589" cy="164.25" r="9"/><circle cx="544.822" cy="191.25" r="9"/><circle cx="529.234" cy="218.25" r="9"/><circle cx="560.411" cy="218.25" r="9"/><circle cx="607.177" cy="191.25" r="9"/><circle cx="591.589" cy="218.25" r="9"/><circle cx="622.766" cy="218.25" r="9"/><circle cx="498.057" cy="407.25" r="9"/><circle cx="529.233" cy="407.25" r="9"/><circle cx="482.467" cy="434.25" r="9"/><circle cx="466.879" cy="461.25" r="9"/><circle cx="498.056" cy="461.25" r="9"/><circle cx="544.821" cy="434.25" r="9"/><circle cx="529.233" cy="461.25" r="9"/><circle cx="560.41" cy="461.25" r="9"/><circle cx="622.766" cy="407.25" r="9"/><circle cx="653.942" cy="407.25" r="9"/><circle cx="607.176" cy="434.25" r="9"/><circle cx="591.588" cy="461.25" r="9"/><circle cx="622.765" cy="461.25" r="9"/><circle cx="669.53" cy="434.25" r="9"/><circle cx="653.942" cy="461.25" r="9"/><circle cx="685.119" cy="461.25" r="9"/><circle cx="576" cy="272.25" r="9"/><circle cx="560.412" cy="299.25" r="9"/><circle cx="591.589" cy="299.25" r="9"/><circle cx="544.822" cy="326.25" r="9"/><circle cx="529.234" cy="353.25" r="9"/><circle cx="560.411" cy="353.25" r="9"/><circle cx="607.177" cy="326.25" r="9"/><circle cx="591.589" cy="353.25" r="9"/><circle cx="622.766" cy="353.25" r="9"/><circle cx="513.645" cy="380.25" r="9"/><circle cx="638.354" cy="380.25" r="9"/><circle cx="373.346" cy="623.25" r="9"/><circle cx="404.522" cy="623.25" r="9"/><circle cx="357.756" cy="650.25" r="9"/><circle cx="342.168" cy="677.25" r="9"/><circle cx="373.345" cy="677.25" r="9"/><circle cx="420.11" cy="650.25" r="9"/><circle cx="404.522" cy="677.25" r="9"/><circle cx="435.699" cy="677.25" r="9"/><circle cx="498.055" cy="623.25" r="9"/><circle cx="529.231" cy="623.25" r="9"/><circle cx="482.465" cy="650.25" r="9"/><circle cx="466.877" cy="677.25" r="9"/><circle cx="498.054" cy="677.25" r="9"/><circle cx="544.819" cy="650.25" r="9"/><circle cx="529.231" cy="677.25" r="9"/><circle cx="560.408" cy="677.25" r="9"/><circle cx="451.289" cy="488.25" r="9"/><circle cx="435.701" cy="515.25" r="9"/><circle cx="466.878" cy="515.25" r="9"/><circle cx="420.111" cy="542.25" r="9"/><circle cx="404.523" cy="569.25" r="9"/><circle cx="435.7" cy="569.25" r="9"/><circle cx="482.466" cy="542.25" r="9"/><circle cx="466.878" cy="569.25" r="9"/><circle cx="498.055" cy="569.25" r="9"/><circle cx="388.934" cy="596.25" r="9"/><circle cx="513.643" cy="596.25" r="9"/><circle cx="622.763" cy="623.25" r="9"/><circle cx="653.939" cy="623.25" r="9"/><circle cx="607.173" cy="650.25" r="9"/><circle cx="591.585" cy="677.25" r="9"/><circle cx="622.762" cy="677.25" r="9"/><circle cx="669.527" cy="650.25" r="9"/><circle cx="653.939" cy="677.25" r="9"/><circle cx="685.116" cy="677.25" r="9"/><circle cx="747.472" cy="623.25" r="9"/><circle cx="778.648" cy="623.25" r="9"/><circle cx="731.882" cy="650.25" r="9"/><circle cx="716.294" cy="677.25" r="9"/><circle cx="747.471" cy="677.25" r="9"/><circle cx="794.236" cy="650.25" r="9"/><circle cx="778.648" cy="677.25" r="9"/><circle cx="809.825" cy="677.25" r="9"/><circle cx="700.706" cy="488.25" r="9"/><circle cx="685.118" cy="515.25" r="9"/><circle cx="716.295" cy="515.25" r="9"/><circle cx="669.528" cy="542.25" r="9"/><circle cx="653.94" cy="569.25" r="9"/><circle cx="685.117" cy="569.25" r="9"/><circle cx="731.883" cy="542.25" r="9"/><circle cx="716.295" cy="569.25" r="9"/><circle cx="747.472" cy="569.25" r="9"/><circle cx="638.351" cy="596.25" r="9"/><circle cx="763.06" cy="596.25" r="9"/></g></svg>