<svg xmlns="http://www.w3.org/2000/svg" width="645" height="642"><g fill="#FFEBAA"><path d="M247.127 17.338c-.09-.353-.179-.706-.265-1.06l-.051.012c.454 1.885.904 3.771 1.349 5.66a138.102 138.102 0 0 0-1.033-4.612z"/><path d="M108.433 193.648c78.801 0 142.682-63.881 142.682-142.682 0-9.943-1.019-19.647-2.954-29.017-.445-1.888-.895-3.775-1.349-5.66C157.676 37.81 83.329 97.235 41.784 176.551a81.753 81.753 0 0 1 6.409 3.795c18.301 8.535 38.713 13.302 60.24 13.302z"/><path d="M45.381 178.995c.932.459 1.869.911 2.812 1.351a81.88 81.88 0 0 0-6.409-3.795l-.11.211a31.55 31.55 0 0 1 3.707 2.233zM235.652 553.19c0-122.797-99.013-222.465-221.558-223.532a81.931 81.931 0 0 1-7.997.639c3.326 136.887 93.976 252.123 218.364 292.13a377.208 377.208 0 0 1 2.71-8.038c5.524-19.45 8.481-39.979 8.481-61.199z"/><path d="M12.107 329.646c-.477 0-.953.007-1.429.009-1.499.238-3.03.38-4.586.418l.004.225a81.931 81.931 0 0 0 7.997-.639c-.661-.007-1.322-.013-1.986-.013zm543.514-209.303a52.59 52.59 0 0 1 3.82-3.69.178.178 0 0 1-.022-.026 143.745 143.745 0 0 0-5.461 5.04c.557-.438 1.112-.879 1.663-1.324zM226.46 616.834c.481-1.326.978-2.646 1.492-3.956.472-1.525.943-3.052 1.409-4.58a364.172 364.172 0 0 0-2.19 6.091c-.232.817-.47 1.632-.711 2.445z"/><path d="M227.171 614.389a366.291 366.291 0 0 0-2.71 8.038l.082.026a157.336 157.336 0 0 1 1.918-5.619c.24-.813.478-1.628.71-2.445zm21.638-591.311a193.57 193.57 0 0 1-1.818-6.831l-.125.03c.088.353.176.707.262 1.061a88.264 88.264 0 0 0 1.681 5.74z"/><path d="M246.866 16.277l-.003.001c.086.354.174.707.265 1.06-.086-.354-.174-.708-.262-1.061zM333.115 84c38.4 0 71.104-24.386 83.474-58.516a29.23 29.23 0 0 1 .796-2.96C387.006 12.771 354.619 7.5 321 7.5c-25.491 0-50.272 3.032-74.009 8.748a194.15 194.15 0 0 0 1.818 6.831C260.487 58.462 293.818 84 333.115 84zm188.57 46.625c14.41 0 27.575-5.321 37.644-14.104-24.698-28.553-54.442-52.62-87.845-70.818-4.519 8.193-7.093 17.609-7.093 27.627 0 31.644 25.651 57.295 57.294 57.295z"/><path d="M416.589 25.484a29.585 29.585 0 0 0-.651 6.185c0 16.291 13.206 29.497 29.497 29.497 11.228 0 20.989-6.273 25.973-15.504a313.204 313.204 0 0 0-53.824-23.075 85.91 85.91 0 0 1-.995 2.897z"/><path d="M417.583 22.587l-.198-.063a29.495 29.495 0 0 0-.796 2.96c.348-.958.68-1.923.994-2.897zM321 637.5c69.301 0 133.373-22.379 185.388-60.304a47.626 47.626 0 0 1-1.974-2.963c-29.267-38.291-75.412-62.992-127.328-62.992-67.801 0-125.761 42.129-149.133 101.637a1123.49 1123.49 0 0 1-3.049 9.689C255.199 632.262 287.487 637.5 321 637.5z"/><path d="M224.697 622.502l.206.065c1.03-3.224 2.047-6.453 3.049-9.689a160.592 160.592 0 0 0-1.492 3.956 221.5 221.5 0 0 1-1.763 5.668z"/><path d="M224.542 622.453l.155.049a221.5 221.5 0 0 0 1.763-5.668 159.355 159.355 0 0 0-1.918 5.619zm315.483-175.522c0 25.362 11.621 48.008 29.825 62.911a46.832 46.832 0 0 1 2.909 2.002c31.359-41.632 52.636-91.287 60.191-145.341a81.836 81.836 0 0 0-11.661-.836c-44.88 0-81.264 36.383-81.264 81.264z"/><path d="M572.627 512.019a81.269 81.269 0 0 1-2.776-2.177 46.899 46.899 0 0 0-25.226-7.316c-26.026 0-47.125 21.1-47.125 47.125a46.9 46.9 0 0 0 6.914 24.583c.72.941 1.43 1.891 2.129 2.849a316.864 316.864 0 0 0 66.084-65.064z"/><path d="M506.543 577.082a159.722 159.722 0 0 0-2.129-2.849 47.184 47.184 0 0 0 1.974 2.963l.155-.114zm66.217-65.238a46.832 46.832 0 0 0-2.909-2.002 81.269 81.269 0 0 0 2.776 2.177c.043-.059.088-.118.133-.175zm20.84-303.969a51.885 51.885 0 0 0 18.322-3.323c.348-.165.701-.32 1.059-.468-12.989-31.997-31.086-61.375-53.277-87.125a194.157 194.157 0 0 1-4.082 3.384c-8.699 9.297-14.028 21.788-14.028 35.525-.001 28.723 23.283 52.007 52.006 52.007z"/><path d="M555.621 120.343a197.303 197.303 0 0 0 4.082-3.384l-.262-.306a52.59 52.59 0 0 0-3.82 3.69zm72.008 245.136c1.752.386 3.529.697 5.335.925l.005-.041a140.136 140.136 0 0 1-5.34-.884z"/><path d="M580.948 307.341c0 28.466 19.98 52.262 46.681 58.139 1.77.327 3.549.622 5.34.884A317.64 317.64 0 0 0 636 322.5c0-25.221-2.97-49.748-8.568-73.255-26.602 5.951-46.484 29.7-46.484 58.096zm30.974-102.789c-8.059 3.802-13.636 11.999-13.636 21.5 0 13.123 10.638 23.761 23.761 23.761 1.849 0 3.647-.211 5.374-.61A312.36 312.36 0 0 0 613 204.133c-.357.143-.717.283-1.078.419z"/><path d="M613 204.132a1.009 1.009 0 0 0-.02-.049c-.357.148-.711.304-1.059.468.362-.135.722-.275 1.079-.419zm-554.085.811c0-10.74-5.353-20.229-13.534-25.948a146.32 146.32 0 0 1-3.844-1.97 312.944 312.944 0 0 0-23.299 58.247 31.642 31.642 0 0 0 9.037 1.312c17.475-.001 31.64-14.167 31.64-31.641z"/><path d="M45.381 178.995a31.55 31.55 0 0 0-3.707-2.233l-.137.263c1.271.675 2.551 1.332 3.844 1.97zm-5.566 116.504c0-16.314-11.297-29.988-26.494-33.63a13.61 13.61 0 0 1-1.438-.244 316.532 316.532 0 0 0-5.797 68.102c1.527-.04 3.059-.062 4.593-.072 16.511-2.613 29.136-16.909 29.136-34.156z"/><path d="M6.086 329.727l.006.346a34.613 34.613 0 0 0 4.586-.418 226.14 226.14 0 0 0-4.592.072zm7.235-67.859c.507.058 1.021.09 1.543.09 7.465 0 13.518-6.052 13.518-13.518 0-6.308-4.321-11.606-10.165-13.098a313.105 313.105 0 0 0-6.322 26.215c.48.095.955.198 1.426.311z"/><path d="M11.896 261.559l-.013.065c.471.106.951.188 1.438.244a33.369 33.369 0 0 0-1.425-.309z"/></g><path fill="#0081CD" stroke="#231F20" d="M510.5 224.495c0-40.332 16.653-76.774 43.458-102.827C521.092 147.554 479.618 163 434.535 163c-88.213 0-162.612-59.133-185.726-139.922a87.648 87.648 0 0 1-1.682-5.74c.369 1.528.714 3.065 1.033 4.612 19.528 82.944 29.864 169.435 29.864 258.34 0 114.111-17.022 224.247-48.663 328.008C282.261 465.097 419.996 363 581.577 363c17.429 0 34.578 1.189 51.376 3.488l.011-.084a59.293 59.293 0 0 1-5.335-.925C560.979 353.145 510.5 294.716 510.5 224.495z"/><path fill="#BC1E47" stroke="#231F20" d="M108.433 193.648c-21.526 0-41.938-4.767-60.24-13.303 22.254 14.586 36.956 39.744 36.956 68.339 0 41.505-30.966 75.775-71.055 80.973 122.545 1.067 221.558 100.735 221.558 223.532 0 21.22-2.957 41.749-8.48 61.198a376.74 376.74 0 0 1 2.19-6.091c31.641-103.761 48.663-213.896 48.663-328.008 0-88.905-10.336-175.396-29.864-258.34a143.282 143.282 0 0 1 2.954 29.017c0 78.803-63.882 142.683-142.682 142.683z"/><path fill="#0081CD" stroke="#231F20" d="M28.382 248.441c0 7.465-6.052 13.518-13.518 13.518a13.78 13.78 0 0 1-1.543-.09c15.197 3.643 26.494 17.316 26.494 33.63 0 17.247-12.625 31.543-29.137 34.156.476-.002.952-.009 1.429-.009.663 0 1.325.007 1.986.013 40.089-5.198 71.055-39.468 71.055-80.973 0-28.595-14.702-53.753-36.956-68.339-.943-.44-1.88-.891-2.812-1.351 8.182 5.719 13.534 15.208 13.534 25.948 0 17.474-14.166 31.64-31.64 31.64-3.141 0-6.173-.46-9.037-1.312l-.021.072c5.845 1.49 10.166 6.789 10.166 13.097z"/><path fill="#BC1E47" stroke="#231F20" d="M445.435 61.167c-16.291 0-29.497-13.207-29.497-29.497 0-2.122.226-4.19.651-6.185C404.22 59.614 371.516 84 333.115 84c-39.297 0-72.628-25.538-84.306-60.922C271.923 103.867 346.322 163 434.535 163c45.083 0 86.557-15.446 119.423-41.333a143.745 143.745 0 0 1 5.461-5.04l-.091-.106c-10.068 8.782-23.233 14.104-37.644 14.104-31.643 0-57.294-25.651-57.294-57.294 0-10.018 2.574-19.434 7.093-27.627l-.076-.042c-4.983 9.232-14.745 15.505-25.972 15.505z"/><path fill="#BC1E47" stroke="#231F20" d="M598.286 226.052c0-9.501 5.577-17.698 13.636-21.5a51.885 51.885 0 0 1-18.322 3.323c-28.723 0-52.007-23.284-52.007-52.007 0-13.737 5.329-26.228 14.028-35.525-.551.445-1.106.885-1.663 1.324-26.805 26.053-43.458 62.495-43.458 102.827 0 70.221 50.479 128.65 117.129 140.985-26.7-5.877-46.681-29.673-46.681-58.139 0-28.396 19.882-52.145 46.483-58.096l-.011-.043c-1.727.399-3.525.61-5.374.61-13.122.001-23.76-10.637-23.76-23.759zM229.362 608.298c-.466 1.528-.937 3.055-1.409 4.58 23.373-59.508 81.333-101.637 149.133-101.637 51.916 0 98.062 24.701 127.328 62.992a46.9 46.9 0 0 1-6.914-24.583c0-26.025 21.099-47.125 47.125-47.125a46.91 46.91 0 0 1 25.226 7.316c-18.204-14.903-29.825-37.549-29.825-62.911 0-44.881 36.384-81.264 81.265-81.264 3.96 0 7.853.288 11.661.836l.002-.015a378.722 378.722 0 0 0-51.376-3.488C419.996 363 282.261 465.097 229.362 608.298z"/><path fill="none" stroke="#231F20" d="M10.679 329.654l-4.587.418m7.229-68.204l-1.425-.309m33.485-82.564l-3.844-1.97m205.59-159.687l-.315-1.048m169.777 9.194l.796-2.96m194.537 182.028l1.058-.469m-43.129 305.759l2.909 2.002m-68.346 62.389l2.129 2.849m-279.372 37.307l-2.71 8.038"/></svg>