<svg xmlns="http://www.w3.org/2000/svg" width="738" height="441" overflow="visible"><g stroke-width="3" fill="none" stroke="#000"><path d="M549 108l72 72m-324 72l252-144-144-72"/><path d="M405 36l72 216H297L405 36H189"/><path d="M189 36l-72 144 180 72z"/><path stroke="#2210D2" d="M45 396v18m0-9h216m0-9v18"/><path stroke="#8B5C29" d="M333 396v18m0-9h72m0-9v18"/><path stroke="red" d="M477 396v18m0-9h180m0-9v18"/><path stroke="#00A33D" d="M117 369v18m0-9h432m0-9v18"/><path stroke="#00A0C6" d="M621 369v18m0-9h72m0-9v18"/><path stroke="#FF7F00" d="M153 360v-18m0 9H81m0-9v18"/><path stroke="#D010B1" d="M225 342v18m0-9h288m0-9v18"/><circle fill="#2210D2" cx="189" cy="36" r="13.5"/><circle fill="#FF7F00" cx="117" cy="180" r="13.5"/><circle fill="#00A33D" cx="297" cy="252" r="13.5"/><circle fill="#D010B1" cx="405" cy="36" r="13.5"/><circle fill="#8B5C29" cx="477" cy="252" r="13.5"/><circle fill="#00A0C6" cx="621" cy="180" r="13.5"/><circle fill="red" cx="549" cy="108" r="13.5"/></g><path fill="none" stroke="#000" stroke-width="2" stroke-dasharray="4" d="M9 432h720"/><path d="M735.035 432c-2.84 1.054-6.363 2.852-8.547 4.755l1.72-4.755-1.72-4.755c2.184 1.903 5.707 3.702 8.547 4.755zm-732.07 0c2.84-1.054 6.363-2.852 8.547-4.755L9.792 432l1.72 4.755c-2.184-1.903-5.707-3.701-8.547-4.755z"/><g font-family="Times" font-size="24"><text transform="translate(18.668 414)">A</text><text transform="translate(55.992 360)">B</text><text transform="translate(91.992 387)">C</text><text transform="translate(198.668 360)">D</text><text transform="translate(309.34 414)">E</text><text transform="translate(454.652 414)">F</text><text transform="translate(594.668 387)">G</text><text transform="translate(82.992 189)">B</text><text transform="translate(153.668 45)">A</text><text transform="translate(262.992 279)">C</text><text transform="translate(369.668 27)">D</text><text transform="translate(444.34 279)">E</text><text transform="translate(535.652 90)">F</text><text transform="translate(585.668 198)">G</text></g></svg>