<svg xmlns="http://www.w3.org/2000/svg" width="440" height="489" viewBox="24.5 14.5 440 489"><g fill="#D8F0FF" fill-opacity=".8" stroke="#000" stroke-linejoin="round"><path d="M79.193 325.394l195.036-130.095 34.882 233.979z"/><path d="M312.404 20.098l-3.293 409.18-34.882-233.979zM73.914 122.8l200.315 72.499 38.175-175.201zm238.49-102.702l-3.293 409.18L452.83 221.759zM30.748 293.931l243.481-98.632L79.193 325.394z"/><path d="M452.84 399.715L79.193 325.394l229.918 103.884z"/><path d="M452.84 399.715l-.01-177.956-143.719 207.519zM30.748 293.931l243.481-98.632L73.914 122.8z"/><path d="M452.84 399.715L79.193 325.394l117.601 172.963zm6.636-225.08l-6.646 47.124L312.404 20.098z"/><path d="M79.193 325.394l-48.445-31.463 166.046 204.426zm380.283-150.759L73.914 122.8l238.49-102.702zM231.559 332.453L452.83 221.759l.01 177.956z"/><path d="M459.476 174.635L73.914 122.8l118.907-70.467zM231.559 332.453L452.83 221.759l6.646-47.124z"/><path d="M192.821 52.333l3.973 446.024L30.748 293.931z"/><path d="M452.84 399.715l-221.281-67.262-34.765 165.904z"/><path d="M192.821 52.333l3.973 446.024 34.765-165.904z"/><path d="M459.476 174.635L231.559 332.453l-38.738-280.12zM73.914 122.8L30.748 293.931 192.821 52.333z"/></g></svg>