<svg xmlns="http://www.w3.org/2000/svg" width="497.5" height="493.5"><g fill="#D8F0FF" fill-opacity=".8" stroke="#000" stroke-linejoin="round"><path d="M202.907 195.893l123.715 120.535-65.516 15.509z"/><path d="M326.622 316.428L202.907 195.893l135.997 54.083zM136.45 330.487l66.457-134.594-6.435 140.902zm66.457-134.594l125.701-68.475 11.08 58.281zM255.5 488.88l-52.593-292.987 58.199 136.044z"/><path d="M202.907 195.893L255.5 488.88l-59.028-152.085zm0 0l289.869 43.94-153.872 10.143zm0 0L136.45 330.487l-21.11-65.745z"/><path d="M492.776 239.833l-289.869-43.94 136.781-10.194z"/><path d="M328.608 127.418l-125.701 68.475 58.378-85.719zm-1.986 189.01L255.5 488.88l5.606-156.943zm166.154-76.595l-166.154 76.595 12.282-66.452zM133.05 137.428l69.857 58.465-88.924 2.96z"/><path d="M202.907 195.893l-69.857-58.465 61.471-24.003zM255.5 488.88l71.122-172.452 33.92 34.396zm0 0L136.45 330.487l60.022 6.308z"/><path d="M326.622 316.428l166.154-76.595-132.234 110.991z"/><path d="M328.608 127.418l164.168 112.415-153.088-54.134zM3.97 272.109l198.937-76.216-87.567 68.849z"/><path d="M202.907 195.893L3.97 272.109l110.013-73.256zm0 0L255.5 5.02l5.785 105.154zm289.869 43.94L255.5 488.88l105.042-138.056zM255.5 5.02l-52.593 190.873-8.386-82.468zM136.45 330.487L255.5 488.88 131.146 368.811zm356.326-90.654L328.608 127.418l35.488-4.593zM255.5 488.88l237.276-249.047-112.189 132.91zM136.45 330.487L3.97 272.109l111.37-7.367z"/><path d="M255.5 5.02l73.108 122.398-67.323-17.244zM3.97 272.109l132.48 58.378-5.304 38.324zm0 0l129.08-134.681-19.067 61.425zm379.811 107.09L255.5 488.88l125.087-116.137z"/><path d="M255.5 488.88L3.97 272.109l127.176 96.702zm73.108-361.462L255.5 5.02l108.596 117.805zm-195.558 10.01L255.5 5.02l-60.979 108.405zm359.726 102.405L383.781 379.199l-3.194-6.456z"/><path d="M255.5 5.02l237.276 234.813-128.68-117.008zM3.97 272.109L255.5 488.88l-111.708-96.897zm129.08-134.681L3.97 272.109l122.849-137.221z"/><path d="M255.5 5.02L133.05 137.428l-6.231-2.54zm0 483.86l128.281-109.681-62.571 29.394zm237.276-249.047L255.5 5.02l129.469 132.51zM255.5 488.88l-80.379-92.56-31.329-4.337zm128.281-109.681l108.995-139.366-84.136 76.969zm3.958-206.996l105.037 67.63L384.969 137.53zM175.121 396.32l80.379 92.56-6.338-74.168z"/><path d="M492.776 239.833l-105.037-67.63 22.513 73.093zM3.97 272.109L255.5 5.02 126.819 134.888zM175.121 396.32L3.97 272.109l139.822 119.874zM255.5 5.02l132.239 167.183-2.77-34.673zm0 0L3.97 272.109l135.792-121.641zm67.041 326.466L255.5 488.88l65.71-80.287zm170.235-91.653l-170.235 91.653 86.099-14.684z"/><path d="M255.5 488.88l67.041-157.394-73.379 83.226zM3.97 272.109L175.121 396.32l-16.046-60.871zm318.571 59.377l170.235-91.653-82.524 5.463zM3.97 272.109l168.607-87.644-32.815-33.997zm383.769-99.906L255.5 5.02l68.137 156.641z"/><path d="M172.577 184.465L255.5 5.02 139.762 150.468zm0 0L3.97 272.109l154.055-10.152zm211.204 194.734l-61.24-47.713-1.331 77.107z"/><path d="M322.541 331.486l61.24 47.713 24.859-62.397zM255.5 5.02l-82.923 179.445 76.344-18.673zm67.041 326.466l-147.42 64.834 74.041 18.392zm0 0L3.97 272.109l155.105 63.34zm65.198-159.283l-65.198 159.283 87.711-86.19zM255.5 5.02l67.041 326.466 1.096-169.825z"/><path d="M3.97 272.109l318.571 59.377-164.516-69.529zM175.121 396.32l147.42-64.834-163.466 3.963z"/><path d="M322.541 331.486L255.5 5.02l-6.579 160.772zm0 0l65.198-159.283-64.102-10.542zm0 0L172.577 184.465l-14.552 77.492z"/><path d="M172.577 184.465l149.964 147.021-73.62-165.694z"/></g></svg>