<svg xmlns="http://www.w3.org/2000/svg" xmlns:xlink="http://www.w3.org/1999/xlink" width="729" height="423"><path fill="none" stroke="#000" d="M162 90l27-27 63-54"/><defs><path id="a" d="M0 0h729v423H0z"/></defs><clipPath id="b"><use xlink:href="#a" overflow="visible"/></clipPath><path clip-path="url(#b)" fill="none" stroke="#000" d="M126 54l27-27 36-27"/><path fill="none" stroke="#000" d="M81 54L54 27 18 9"/><defs><path id="c" d="M0 0h729v423H0z"/></defs><clipPath id="d"><use xlink:href="#c" overflow="visible"/></clipPath><path clip-path="url(#d)" fill="none" stroke="#000" d="M45 90L18 63 0 27"/><path fill="none" stroke="#000" d="M207 216l-45-9-36-36m135 9l-45-36-54-9M45 90v45m81-81H81m81 81V90m-81 81h45"/><path fill="none" stroke="#000" stroke-width="6" stroke-dasharray="2,2" d="M81 171l-36-36m36-81L45 90m117 0l-36-36m0 117l36-36"/><path fill="none" stroke="#000" d="M657 333l36 27 18 36"/><defs><path id="e" d="M0 0h729v423H0z"/></defs><clipPath id="f"><use xlink:href="#e" overflow="visible"/></clipPath><path clip-path="url(#f)" fill="none" stroke="#000" d="M621 360l27 36 27 27"/><path fill="none" stroke="#000" d="M657 108l45-45 9-36"/><defs><path id="g" d="M0 0h729v423H0z"/></defs><clipPath id="h"><use xlink:href="#g" overflow="visible"/></clipPath><path clip-path="url(#h)" fill="none" stroke="#000" d="M621 81l27-63 27-18"/><path fill="none" stroke="#000" stroke-width="6" stroke-dasharray="2,2" d="M207 270l54 36m54-90v54m-108-54l54-36"/><path fill="none" stroke="#000" d="M315 216l-54-36m-54 90v-54m108 54l-54 36"/><path fill="none" stroke="#000" stroke-width="6" stroke-dasharray="2,2" d="M621 360l36-27M621 81l36 27"/><path fill="none" stroke="#000" d="M657 333l27-18 27-18m-144 99l27-18 27-18m36-252l27 18 27 18M567 45l27 18 27 18"/><path fill="none" stroke="#000" stroke-width="6" stroke-dasharray="2,2" d="M423 198v45"/><path fill="none" stroke="#000" d="M423 297v-54m0-99v54m0 45l-54 36-54-9m108-72l-54-9-54 27m252-27V45m0 207v144m-144-99l144-108 144 108"/><path fill="none" stroke="#000" d="M423 144l144 108 144-108m0 0v153M423 144l144-99m0 351l-144-99"/><defs><path id="i" d="M0 0h729v423H0z"/></defs><clipPath id="j"><use xlink:href="#i" overflow="visible"/></clipPath><path clip-path="url(#j)" fill="#E9B4C2" d="M576 396c0 4.971-4.029 9-9 9s-9-4.029-9-9 4.029-9 9-9 9 4.029 9 9"/><circle clip-path="url(#j)" fill="none" stroke="#000" cx="567" cy="396" r="9"/><path clip-path="url(#j)" fill="#BC1E47" d="M432 297c0 4.971-4.029 9-9 9s-9-4.029-9-9 4.029-9 9-9 9 4.029 9 9"/><circle clip-path="url(#j)" fill="none" stroke="#000" cx="423" cy="297" r="9"/><path clip-path="url(#j)" fill="#BC1E47" d="M432 171c0 4.971-4.029 9-9 9s-9-4.029-9-9 4.029-9 9-9 9 4.029 9 9"/><circle clip-path="url(#j)" fill="none" stroke="#000" cx="423" cy="171" r="9"/><path clip-path="url(#j)" fill="#E9B4C2" d="M603 63c0 4.971-4.029 9-9 9s-9-4.029-9-9 4.029-9 9-9 9 4.029 9 9"/><circle clip-path="url(#j)" fill="none" stroke="#000" cx="594" cy="63" r="9"/><path clip-path="url(#j)" fill="#BC1E47" d="M630 81c0 4.971-4.029 9-9 9s-9-4.029-9-9 4.029-9 9-9 9 4.029 9 9"/><circle clip-path="url(#j)" fill="none" stroke="#000" cx="621" cy="81" r="9"/><path clip-path="url(#j)" fill="#BC1E47" d="M693 126c0 4.971-4.029 9-9 9s-9-4.029-9-9 4.029-9 9-9 9 4.029 9 9"/><circle clip-path="url(#j)" fill="none" stroke="#000" cx="684" cy="126" r="9"/><path clip-path="url(#j)" fill="#E9B4C2" d="M693 315c0 4.971-4.029 9-9 9s-9-4.029-9-9 4.029-9 9-9 9 4.029 9 9"/><circle clip-path="url(#j)" fill="none" stroke="#000" cx="684" cy="315" r="9"/><path clip-path="url(#j)" fill="#BC1E47" d="M666 333c0 4.971-4.029 9-9 9s-9-4.029-9-9 4.029-9 9-9 9 4.029 9 9"/><circle clip-path="url(#j)" fill="none" stroke="#000" cx="657" cy="333" r="9"/><path clip-path="url(#j)" fill="#BC1E47" d="M603 378c0 4.971-4.029 9-9 9s-9-4.029-9-9 4.029-9 9-9 9 4.029 9 9"/><circle clip-path="url(#j)" fill="none" stroke="#000" cx="594" cy="378" r="9"/><path clip-path="url(#j)" fill="#E9B4C2" d="M630 360c0 4.971-4.029 9-9 9s-9-4.029-9-9 4.029-9 9-9 9 4.029 9 9"/><circle clip-path="url(#j)" fill="none" stroke="#000" cx="621" cy="360" r="9"/><path clip-path="url(#j)" fill="#E9B4C2" d="M666 108c0 4.971-4.029 9-9 9s-9-4.029-9-9 4.029-9 9-9 9 4.029 9 9"/><circle clip-path="url(#j)" fill="none" stroke="#000" cx="657" cy="108" r="9"/><path clip-path="url(#j)" fill="#BC1E47" d="M576 252c0 4.971-4.029 9-9 9s-9-4.029-9-9 4.029-9 9-9 9 4.029 9 9"/><circle clip-path="url(#j)" fill="none" stroke="#000" cx="567" cy="252" r="9"/><path clip-path="url(#j)" fill="#BC1E47" d="M720 297c0 4.971-4.029 9-9 9s-9-4.029-9-9 4.029-9 9-9 9 4.029 9 9"/><circle clip-path="url(#j)" fill="none" stroke="#000" cx="711" cy="297" r="9"/><path clip-path="url(#j)" fill="#E9B4C2" d="M432 144c0 4.971-4.029 9-9 9s-9-4.029-9-9 4.029-9 9-9 9 4.029 9 9"/><circle clip-path="url(#j)" fill="none" stroke="#000" cx="423" cy="144" r="9"/><path clip-path="url(#j)" fill="#E9B4C2" d="M432 198c0 4.971-4.029 9-9 9s-9-4.029-9-9 4.029-9 9-9 9 4.029 9 9"/><circle clip-path="url(#j)" fill="none" stroke="#000" cx="423" cy="198" r="9"/><path clip-path="url(#j)" fill="#BC1E47" d="M432 243c0 4.971-4.029 9-9 9s-9-4.029-9-9 4.029-9 9-9 9 4.029 9 9"/><circle clip-path="url(#j)" fill="none" stroke="#000" cx="423" cy="243" r="9"/><path clip-path="url(#j)" fill="#E9B4C2" d="M432 270c0 4.971-4.029 9-9 9s-9-4.029-9-9 4.029-9 9-9 9 4.029 9 9"/><circle clip-path="url(#j)" fill="none" stroke="#000" cx="423" cy="270" r="9"/><path clip-path="url(#j)" fill="#E9B4C2" d="M576 189c0 4.971-4.029 9-9 9s-9-4.029-9-9 4.029-9 9-9 9 4.029 9 9"/><circle clip-path="url(#j)" fill="none" stroke="#000" cx="567" cy="189" r="9"/><path clip-path="url(#j)" fill="#E9B4C2" d="M720 144c0 4.971-4.029 9-9 9s-9-4.029-9-9 4.029-9 9-9 9 4.029 9 9"/><circle clip-path="url(#j)" fill="none" stroke="#000" cx="711" cy="144" r="9"/><path clip-path="url(#j)" fill="#BC1E47" d="M576 45c0 4.971-4.029 9-9 9s-9-4.029-9-9 4.029-9 9-9 9 4.029 9 9"/><circle clip-path="url(#j)" fill="none" stroke="#000" cx="567" cy="45" r="9"/><path clip-path="url(#j)" fill="#FEC200" d="M378 189c0 4.971-4.029 9-9 9s-9-4.029-9-9 4.029-9 9-9 9 4.029 9 9"/><circle clip-path="url(#j)" fill="none" stroke="#000" cx="369" cy="189" r="9"/><path clip-path="url(#j)" fill="#FEC200" d="M171 207c0 4.971-4.029 9-9 9s-9-4.029-9-9 4.029-9 9-9 9 4.029 9 9"/><circle clip-path="url(#j)" fill="none" stroke="#000" cx="162" cy="207" r="9"/><path clip-path="url(#j)" fill="#FEC200" d="M198 63c0 4.971-4.029 9-9 9s-9-4.029-9-9 4.029-9 9-9 9 4.029 9 9"/><circle clip-path="url(#j)" fill="none" stroke="#000" cx="189" cy="63" r="9"/><path clip-path="url(#j)" fill="#FEC200" d="M63 27c0 4.971-4.029 9-9 9s-9-4.029-9-9 4.029-9 9-9 9 4.029 9 9"/><circle clip-path="url(#j)" fill="none" stroke="#000" cx="54" cy="27" r="9"/><path clip-path="url(#j)" fill="#FEC200" d="M711 63c0 4.971-4.029 9-9 9s-9-4.029-9-9 4.029-9 9-9 9 4.029 9 9"/><circle clip-path="url(#j)" fill="none" stroke="#000" cx="702" cy="63" r="9"/><path clip-path="url(#j)" fill="#FEC200" d="M657 396c0 4.971-4.029 9-9 9s-9-4.029-9-9 4.029-9 9-9 9 4.029 9 9"/><circle clip-path="url(#j)" fill="none" stroke="#000" cx="648" cy="396" r="9"/><path clip-path="url(#j)" fill="#FFEBAA" d="M378 279c0 4.971-4.029 9-9 9s-9-4.029-9-9 4.029-9 9-9 9 4.029 9 9"/><circle clip-path="url(#j)" fill="none" stroke="#000" cx="369" cy="279" r="9"/><path clip-path="url(#j)" fill="#FFEBAA" d="M225 144c0 4.971-4.029 9-9 9s-9-4.029-9-9 4.029-9 9-9 9 4.029 9 9"/><circle clip-path="url(#j)" fill="none" stroke="#000" cx="216" cy="144" r="9"/><path clip-path="url(#j)" fill="#FFEBAA" d="M162 27c0 4.971-4.029 9-9 9s-9-4.029-9-9 4.029-9 9-9 9 4.029 9 9"/><circle clip-path="url(#j)" fill="none" stroke="#000" cx="153" cy="27" r="9"/><path clip-path="url(#j)" fill="#FFEBAA" d="M27 63c0 4.971-4.029 9-9 9s-9-4.029-9-9 4.029-9 9-9 9 4.029 9 9"/><circle clip-path="url(#j)" fill="none" stroke="#000" cx="18" cy="63" r="9"/><path clip-path="url(#j)" fill="#FFEBAA" d="M657 18c0 4.971-4.029 9-9 9s-9-4.029-9-9 4.029-9 9-9 9 4.029 9 9"/><circle clip-path="url(#j)" fill="none" stroke="#000" cx="648" cy="18" r="9"/><path clip-path="url(#j)" fill="#FFEBAA" d="M702 360c0 4.971-4.029 9-9 9s-9-4.029-9-9 4.029-9 9-9 9 4.029 9 9"/><circle clip-path="url(#j)" fill="none" stroke="#000" cx="693" cy="360" r="9"/><path clip-path="url(#j)" fill="#0081CD" d="M324 270c0 4.971-4.029 9-9 9s-9-4.029-9-9 4.029-9 9-9 9 4.029 9 9"/><circle clip-path="url(#j)" fill="none" stroke="#000" cx="315" cy="270" r="9"/><path clip-path="url(#j)" fill="#AAD5EF" d="M324 216c0 4.971-4.029 9-9 9s-9-4.029-9-9 4.029-9 9-9 9 4.029 9 9"/><circle clip-path="url(#j)" fill="none" stroke="#000" cx="315" cy="216" r="9"/><path clip-path="url(#j)" fill="#0081CD" d="M270 180c0 4.971-4.029 9-9 9s-9-4.029-9-9 4.029-9 9-9 9 4.029 9 9"/><circle clip-path="url(#j)" fill="none" stroke="#000" cx="261" cy="180" r="9"/><path clip-path="url(#j)" fill="#0081CD" d="M171 135c0 4.971-4.029 9-9 9s-9-4.029-9-9 4.029-9 9-9 9 4.029 9 9"/><circle clip-path="url(#j)" fill="none" stroke="#000" cx="162" cy="135" r="9"/><path clip-path="url(#j)" fill="#0081CD" d="M135 54c0 4.971-4.029 9-9 9s-9-4.029-9-9 4.029-9 9-9 9 4.029 9 9"/><circle clip-path="url(#j)" fill="none" stroke="#000" cx="126" cy="54" r="9"/><path clip-path="url(#j)" fill="#0081CD" d="M90 171c0 4.971-4.029 9-9 9s-9-4.029-9-9 4.029-9 9-9 9 4.029 9 9"/><circle clip-path="url(#j)" fill="none" stroke="#000" cx="81" cy="171" r="9"/><path clip-path="url(#j)" fill="#0081CD" d="M54 90c0 4.971-4.029 9-9 9s-9-4.029-9-9 4.029-9 9-9 9 4.029 9 9"/><circle clip-path="url(#j)" fill="none" stroke="#000" cx="45" cy="90" r="9"/><path clip-path="url(#j)" fill="#AAD5EF" d="M216 216c0 4.971-4.029 9-9 9s-9-4.029-9-9 4.029-9 9-9 9 4.029 9 9"/><circle clip-path="url(#j)" fill="none" stroke="#000" cx="207" cy="216" r="9"/><path clip-path="url(#j)" fill="#AAD5EF" d="M135 171c0 4.971-4.029 9-9 9s-9-4.029-9-9 4.029-9 9-9 9 4.029 9 9"/><circle clip-path="url(#j)" fill="none" stroke="#000" cx="126" cy="171" r="9"/><path clip-path="url(#j)" fill="#AAD5EF" d="M54 135c0 4.971-4.029 9-9 9s-9-4.029-9-9 4.029-9 9-9 9 4.029 9 9"/><circle clip-path="url(#j)" fill="none" stroke="#000" cx="45" cy="135" r="9"/><path clip-path="url(#j)" fill="#AAD5EF" d="M171 90c0 4.971-4.029 9-9 9s-9-4.029-9-9 4.029-9 9-9 9 4.029 9 9"/><circle clip-path="url(#j)" fill="none" stroke="#000" cx="162" cy="90" r="9"/><path clip-path="url(#j)" fill="#AAD5EF" d="M90 54c0 4.971-4.029 9-9 9s-9-4.029-9-9 4.029-9 9-9 9 4.029 9 9"/><circle clip-path="url(#j)" fill="none" stroke="#000" cx="81" cy="54" r="9"/><path clip-path="url(#j)" fill="#0081CD" d="M216 270c0 4.971-4.029 9-9 9s-9-4.029-9-9 4.029-9 9-9 9 4.029 9 9"/><circle clip-path="url(#j)" fill="none" stroke="#000" cx="207" cy="270" r="9"/><path clip-path="url(#j)" fill="#AAD5EF" d="M270 306c0 4.971-4.029 9-9 9s-9-4.029-9-9 4.029-9 9-9 9 4.029 9 9"/><circle clip-path="url(#j)" fill="none" stroke="#000" cx="261" cy="306" r="9"/><path clip-path="url(#j)" fill="none" stroke="#009246" d="M216 288l-108 54"/><text transform="translate(25.541 360)" fill="#009246" font-family="Times,serif" font-size="18">unconnected terminal edges</text><text transform="translate(455.273 144)" fill="#009246" font-family="Times,serif" font-size="18">clause gadget</text><text transform="translate(472.643 165.6)" fill="#009246" font-family="Times,serif" font-size="18">(</text><text transform="translate(478.637 165.6)" fill="#009246" font-family="Times,serif" font-style="italic" font-size="18">x</text><text transform="translate(486.629 165.6)" fill="#009246" font-family="Times,serif" font-size="18">,</text><text transform="translate(495.629 165.6)" fill="#009246" font-family="Times,serif" font-style="italic" font-size="18">y</text><text transform="translate(503.621 165.6)" fill="#009246" font-family="Times,serif" font-size="18">, ~</text><text transform="translate(522.36 165.6)" fill="#009246" font-family="Times,serif" font-style="italic" font-size="18">z</text><text transform="translate(529.361 165.6)" fill="#009246" font-family="Times,serif" font-size="18">)</text><text transform="translate(244.511 234)" fill="#009246" font-family="Times,serif" font-size="18">term</text><text transform="translate(230.777 255.6)" fill="#009246" font-family="Times,serif" font-size="18">gadget</text><text transform="translate(283.265 255.6)" fill="#009246" font-family="Times,serif" font-style="italic" font-size="18">x</text><text transform="translate(91.529 99)" fill="#009246" font-family="Times,serif" font-size="18">term</text><text transform="translate(72.917 120.6)" fill="#009246" font-family="Times,serif" font-size="18">gadget ~</text><text transform="translate(135.143 120.6)" fill="#009246" font-family="Times,serif" font-style="italic" font-size="18">x</text><text transform="translate(329.543 225)"><tspan x="0" y="0" fill="#009246" font-family="Times,serif" font-size="18">connecti</tspan><tspan x="60.97" y="0" fill="#009246" font-family="Times,serif" font-size="18">o</tspan><tspan x="69.952" y="0" fill="#009246" font-family="Times,serif" font-size="18">n</tspan></text><text transform="translate(345.041 246.6)" fill="#009246" font-family="Times,serif" font-size="18">gadget</text><text transform="translate(149.543 171)" fill="#009246" font-family="Times,serif" font-size="18">connection</text><text transform="translate(165.041 192.6)" fill="#009246" font-family="Times,serif" font-size="18">gadget</text><defs><path id="k" d="M0 0h729v423H0z"/></defs><clipPath id="l"><use xlink:href="#k" overflow="visible"/></clipPath><g clip-path="url(#l)"><text transform="translate(679.755 18)" fill="#009246" font-family="Times,serif" font-size="18">to</text></g><g clip-path="url(#l)"><text transform="translate(698.259 18)" fill="#009246" font-family="Times,serif" font-style="italic" font-size="18">y</text></g><text transform="translate(684.378 414)" fill="#009246" font-family="Times,serif" font-size="18">to ~</text><text transform="translate(712.62 414)" fill="#009246" font-family="Times,serif" font-style="italic" font-size="18">z</text><g><defs><path id="m" d="M0 0h729v423H0z"/></defs><clipPath id="n"><use xlink:href="#m" overflow="visible"/></clipPath><path clip-path="url(#n)" fill="none" stroke="#009246" d="M81 342L63 162"/></g></svg>