<svg xmlns="http://www.w3.org/2000/svg" width="465.333" height="176" viewBox="38.5 174.5 465.333 176"><g fill="#D8F0FF" fill-opacity=".8" stroke="#000" stroke-linejoin="round"><path d="M43.112 219.993l166.584 62.136 163.963-32.199z"/><path d="M43.112 219.993l330.547 29.937L209 178.106zm0 0l291.109 126.371-124.525-64.235zm0 0l106.02 89.538 185.089 36.833z"/><path d="M499.182 296.24l-289.486-14.111 163.963-32.199z"/><path d="M499.182 296.24l-125.523-46.31L209 178.106zm0 0l-164.961 50.124-124.525-64.235z"/><path d="M499.182 296.24L209 178.106l127.053 11.346z"/><path d="M43.112 219.993l292.941-30.541-188.621 11.5z"/><path d="M43.112 219.993L209 178.106l127.053 11.346zm0 0l250.726 69.054-144.706 20.484z"/><path d="M43.112 219.993l104.32-19.041 146.406 88.095zm456.07 76.247l-350.05 13.291 185.089 36.833zm0 0L336.053 189.452l-188.621 11.5z"/><path d="M499.182 296.24l-205.344-7.193-144.706 20.484z"/><path d="M499.182 296.24l-351.75-95.288 146.406 88.095z"/></g></svg>