<svg xmlns="http://www.w3.org/2000/svg" width="1224" height="783"><g fill="none" stroke="#000" stroke-width="1.5"><path d="M117 486c0-54.676 44.324-99 99-99s99 44.324 99 99c0 59.646-48.353 108-108 108S99 545.646 99 486"/><path d="M99 486c0-89.47 72.53-162 162-162s162 72.53 162 162c0 99.411-80.589 180-180 180S63 585.411 63 486"/><path d="M81 486c0-124.264 100.736-225 225-225s225 100.736 225 225c0 139.176-112.824 252-252 252S27 625.176 27 486"/><path d="M63 486c0-159.058 128.942-288 288-288s288 128.942 288 288 128.941 288 288 288 288-128.942 288-288"/><path d="M45 486c0-193.852 157.148-351 351-351s351 157.148 351 351c0 119.294 96.707 216 216 216s216-96.706 216-216"/><path d="M27 486C27 257.354 212.354 72 441 72s414 185.354 414 414c0 79.529 64.471 144 144 144s144-64.471 144-144"/><path d="M9 486C9 222.56 222.56 9 486 9c263.439 0 477 213.56 477 477 0 39.765 32.235 72 72 72s72-32.235 72-72"/><path d="M1107 486c0-54.676-44.324-99-99-99s-99 44.324-99 99c0 59.646 48.354 108 108 108s108-48.354 108-108"/><path d="M1125 486c0-89.47-72.529-162-162-162s-162 72.53-162 162c0 99.411 80.589 180 180 180s180-80.589 180-180"/><path d="M1143 486c0-124.264-100.736-225-225-225S693 361.736 693 486c0 139.176 112.824 252 252 252s252-112.824 252-252"/><path d="M1161 486c0-159.058-128.941-288-288-288S585 326.942 585 486 456.058 774 297 774 9 645.058 9 486"/><path d="M1179 486c0-193.852-157.148-351-351-351S477 292.148 477 486c0 119.294-96.707 216-216 216S45 605.294 45 486"/><path d="M1197 486c0-228.646-185.354-414-414-414S369 257.354 369 486c0 79.529-64.471 144-144 144S81 565.529 81 486"/><path d="M1215 486c0-263.44-213.561-477-477-477S261 222.56 261 486c0 39.765-32.235 72-72 72s-72-32.235-72-72m90 0h54m54 0h54m54 0h54m54 0h54m54 0h54m54 0h54m54 0h54m54 0h54"/><circle cx="1053" cy="486" r="36"/><circle cx="171" cy="486" r="36"/></g><path d="M227.52 485.5c0 8.5-6.89 15.391-15.39 15.391h-10.26c-8.5 0-15.39-6.891-15.39-15.391s6.89-15.391 15.39-15.391h10.26c8.5 0 15.39 6.891 15.39 15.391zm54 0c0 8.5-6.89 15.391-15.39 15.391h-10.26c-8.5 0-15.39-6.891-15.39-15.391s6.89-15.391 15.39-15.391h10.26c8.5 0 15.39 6.891 15.39 15.391zm54 0c0 8.5-6.89 15.391-15.39 15.391h-10.26c-8.5 0-15.39-6.891-15.39-15.391s6.89-15.391 15.39-15.391h10.26c8.5 0 15.39 6.891 15.39 15.391zm54 0c0 8.5-6.89 15.391-15.39 15.391h-10.26c-8.5 0-15.39-6.891-15.39-15.391s6.89-15.391 15.39-15.391h10.26c8.5 0 15.39 6.891 15.39 15.391zm54 0c0 8.5-6.89 15.391-15.39 15.391h-10.26c-8.5 0-15.39-6.891-15.39-15.391s6.89-15.391 15.39-15.391h10.26c8.5 0 15.39 6.891 15.39 15.391zm54 0c0 8.5-6.89 15.391-15.39 15.391h-10.26c-8.5 0-15.39-6.891-15.39-15.391s6.89-15.391 15.39-15.391h10.26c8.5 0 15.39 6.891 15.39 15.391zm54 0c0 8.5-6.89 15.391-15.39 15.391h-10.261c-8.499 0-15.389-6.891-15.389-15.391s6.89-15.391 15.389-15.391h10.261c8.5 0 15.39 6.891 15.39 15.391zm54 0c0 8.5-6.89 15.391-15.389 15.391h-10.262c-8.499 0-15.389-6.891-15.389-15.391s6.89-15.391 15.389-15.391h10.262c8.499 0 15.389 6.891 15.389 15.391zm54 0c0 8.5-6.89 15.391-15.389 15.391h-10.262c-8.499 0-15.389-6.891-15.389-15.391s6.89-15.391 15.389-15.391h10.262c8.499 0 15.389 6.891 15.389 15.391zm54 0c0 8.5-6.89 15.391-15.389 15.391h-10.262c-8.499 0-15.389-6.891-15.389-15.391s6.89-15.391 15.389-15.391h10.262c8.499 0 15.389 6.891 15.389 15.391zm54 0c0 8.5-6.89 15.391-15.389 15.391h-10.262c-8.499 0-15.389-6.891-15.389-15.391s6.89-15.391 15.389-15.391h10.262c8.499 0 15.389 6.891 15.389 15.391zm54 0c0 8.5-6.89 15.391-15.389 15.391h-10.262c-8.499 0-15.389-6.891-15.389-15.391s6.89-15.391 15.389-15.391h10.262c8.499 0 15.389 6.891 15.389 15.391zm54 0c0 8.5-6.89 15.391-15.389 15.391h-10.262c-8.499 0-15.389-6.891-15.389-15.391s6.89-15.391 15.389-15.391h10.262c8.499 0 15.389 6.891 15.389 15.391zm54 0c0 8.5-6.89 15.391-15.389 15.391h-10.262c-8.499 0-15.389-6.891-15.389-15.391s6.89-15.391 15.389-15.391h10.262c8.499 0 15.389 6.891 15.389 15.391zm54 0c0 8.5-6.89 15.391-15.389 15.391h-10.262c-8.499 0-15.389-6.891-15.389-15.391s6.89-15.391 15.389-15.391h10.262c8.499 0 15.389 6.891 15.389 15.391zm54 0c0 8.5-6.89 15.391-15.389 15.391h-10.262c-8.499 0-15.389-6.891-15.389-15.391s6.89-15.391 15.389-15.391h10.262c8.499 0 15.389 6.891 15.389 15.391z" fill="#FFEBAA" stroke="#000"/><g font-family="Times,serif" font-size="18"><text transform="translate(188.999 490.604)">0000</text><text transform="translate(242.999 490.604)">0001</text><text transform="translate(297 490.604)">0010</text><text transform="translate(351 490.604)">0011</text><text transform="translate(405 490.604)">0100</text><text transform="translate(458.999 490.604)">0101</text><text transform="translate(512.999 490.604)">0110</text><text transform="translate(567 490.604)">0111</text><text transform="translate(621 490.604)">1000</text><text transform="translate(675.001 490.604)">1001</text><text transform="translate(728.999 490.604)">1010</text><text transform="translate(782.999 490.604)">1011</text><text transform="translate(837 490.604)">1100</text><text transform="translate(891 490.604)">1101</text><text transform="translate(945 490.604)">1110</text><text transform="translate(998.999 490.604)">1111</text></g></svg>