<svg xmlns="http://www.w3.org/2000/svg" width="855" height="378"><path fill="#507990" stroke="#231F20" d="M9 117v180l27 16.838v-180z"/><path fill="#88B4CC" stroke="#231F20" d="M36 133.838l324-94.935v179.999L36 313.838z"/><path fill="#507990" stroke="#231F20" d="M360 38.903v179.999l243 151.549v-180z"/><path fill="#88B4CC" stroke="#231F20" d="M603 190.451l36-10.549v180l-36 10.549z"/><path fill="#A6C7D9" stroke="#231F20" d="M396 28.354l-27-16.838-72 21.097L9 117l27 16.838 324-94.935 243 151.548 36-10.549z"/><path fill="#507990" stroke="#231F20" d="M72 159.29v144l27 16.839v-144z"/><path fill="#88B4CC" stroke="#231F20" d="M99 176.129l252-73.839v144L99 320.129z"/><path fill="#507990" stroke="#231F20" d="M351 102.29v144l189 117.871v-144z"/><path fill="#88B4CC" stroke="#231F20" d="M540 220.161l36-10.548v144l-36 10.548z"/><path fill="#A6C7D9" stroke="#231F20" d="M387 91.742l-27-16.839L288 96 72 159.29l27 16.839 252-73.839 189 117.871 36-10.548z"/><path fill="#507990" stroke="#231F20" d="M135 201.58v108l27 16.839v-108z"/><path fill="#88B4CC" stroke="#231F20" d="M162 218.419l180-52.741v108l-180 52.741z"/><path fill="#507990" stroke="#231F20" d="M342 165.678v108l135 84.193v-108z"/><path fill="#88B4CC" stroke="#231F20" d="M477 249.871l36-10.549v108l-36 10.549z"/><path fill="#A6C7D9" stroke="#231F20" d="M378 155.129l-27-16.839-72 21.097-144 42.193 27 16.839 180-52.741 135 84.193 36-10.549z"/><path fill="#507990" stroke="#231F20" d="M198 243.871v72l27 16.838v-72z"/><path fill="#88B4CC" stroke="#231F20" d="M225 260.709l108-31.645v72l-108 31.645z"/><path fill="#507990" stroke="#231F20" d="M333 229.064v72l81 50.516v-72z"/><path fill="#88B4CC" stroke="#231F20" d="M414 279.58l36-10.548v72l-36 10.548z"/><path fill="#A6C7D9" stroke="#231F20" d="M369 218.516l-27-16.838-72 21.095-72 21.098 27 16.838 108-31.645 81 50.516 36-10.548z"/><path fill="#507990" stroke="#231F20" d="M261 286.161v36L288 339v-36z"/><path fill="#88B4CC" stroke="#231F20" d="M288 303l36-10.549v36L288 339z"/><path fill="#507990" stroke="#231F20" d="M324 292.451v36l27 16.839v-36z"/><path fill="#88B4CC" stroke="#231F20" d="M351 309.29l36-10.548v36l-36 10.548z"/><path fill="#A6C7D9" stroke="#231F20" d="M360 281.902l-27-16.838-36 10.549-36 10.548L288 303l36-10.549 27 16.839 36-10.548z"/><path fill="#507990" stroke="#231F20" d="M720 32.419v36l54 33.678v-36z"/><path fill="#88B4CC" stroke="#231F20" d="M774 66.097v36L846 81V45z"/><path fill="#507990" stroke="#231F20" d="M720 32.419v72l54 33.678v-72"/><path fill="#88B4CC" stroke="#231F20" d="M774 66.097v72L846 117V45"/><path fill="#507990" stroke="#231F20" d="M720 32.419v144l54 33.678v-144"/><path fill="#88B4CC" stroke="#231F20" d="M774 66.097v144L846 189V45"/><path fill="#90735E" stroke="#231F20" d="M720 32.419v180l54 33.678v-180"/><path fill="#CCAE98" stroke="#231F20" d="M774 66.097v180L846 225V45"/><path fill="#D9C2B1" stroke="#231F20" d="M819 28.161l-27-16.839-36 10.549-36 10.548 54 33.678L846 45z"/><path fill="#507990" stroke="#231F20" d="M711 95.806v36l54 33.678v-36z"/><path fill="#88B4CC" stroke="#231F20" d="M765 129.484v36l72-21.097v-36z"/><path fill="#507990" stroke="#231F20" d="M711 95.806v72.001l54 33.677v-72"/><path fill="#88B4CC" stroke="#231F20" d="M765 129.484v72l72-21.097v-72"/><path fill="#90735E" stroke="#231F20" d="M711 95.806v144.001l54 33.677v-144"/><path fill="#CCAE98" stroke="#231F20" d="M765 129.484v144l72-21.097v-144"/><path fill="#D9C2B1" stroke="#231F20" d="M810 91.548l-36 10.549-27-16.839-36 10.548 54 33.678 72-21.097z"/><path fill="#507990" stroke="#231F20" d="M702 159.193v36l54 33.678v-36z"/><path fill="#88B4CC" stroke="#231F20" d="M756 192.871v36l72-21.098v-36z"/><path fill="#507990" stroke="#231F20" d="M702 159.193v72l54 33.678v-72"/><path fill="#88B4CC" stroke="#231F20" d="M756 192.871v72l72-21.098v-72"/><path fill="#90735E" stroke="#231F20" d="M702 159.193v108l54 33.678v-108"/><path fill="#CCAE98" stroke="#231F20" d="M756 192.871v108l72-21.098v-108"/><path fill="#D9C2B1" stroke="#231F20" d="M801 154.936l-36 10.548-27-16.839-36 10.548 54 33.678 72-21.098z"/><path fill="#507990" stroke="#231F20" d="M693 222.58v36l54 33.678v-36z"/><path fill="#88B4CC" stroke="#231F20" d="M747 256.258v36l72-21.097v-36z"/><path fill="#90735E" stroke="#231F20" d="M693 222.58v72l54 33.678v-72"/><path fill="#CCAE98" stroke="#231F20" d="M747 256.258v72l72-21.097v-72"/><path fill="#D9C2B1" stroke="#231F20" d="M792 218.322l-36 10.549-27-16.839-36 10.548 54 33.678 72-21.097z"/><path fill="#90735E" stroke="#231F20" d="M684 285.968v36l54 33.677v-36z"/><path fill="#CCAE98" stroke="#231F20" d="M738 319.645v36l72-21.096v-36z"/><path fill="#D9C2B1" stroke="#231F20" d="M783 281.709l-36 10.549-27-16.839-36 10.549 54 33.677 72-21.096z"/></svg>