<svg xmlns="http://www.w3.org/2000/svg" width="612" height="306"><path fill="none" stroke="#E9B4C2" stroke-width="7" d="M18 18l36 216 18 54"/><path fill="none" stroke="#AAD5EF" stroke-width="7" d="M90 180l72-54 144-54"/><g fill="none" stroke="#000"><path d="M18 18l18 270 18-54 18 54 18-108 18 108 18-54 18 54 18-162 18 162 18-54 18 54 18-108 18 108 18-54 18 54 18-216 18 216 18-54 18 54 18-108 18 108 18-54 18 54 18-162 18 162 18-54 18 54 18-108 18 108 18-54 18 54 18-270"/><path d="M18 18l36 216 36-54 36 54 36-108 36 108 36-54 36 54 36-162 36 162 36-54 36 54 36-108 36 108 36-54 36 54 36-216"/><path d="M18 18h576L306 72z"/><path d="M594 18L450 126 306 72l-144 54L18 18l72 162 72-54 72 54 72-108 72 108 72-54 72 54z"/></g><g fill="#0081CD" stroke="#000"><circle cx="36" cy="288" r="9"/><circle cx="90" cy="180" r="9"/><circle cx="162" cy="126" r="9"/><circle cx="306" cy="72" r="9"/><circle cx="594" cy="18" r="9"/><circle cx="144" cy="288" r="9"/><circle cx="180" cy="288" r="9"/><circle cx="216" cy="288" r="9"/><circle cx="252" cy="288" r="9"/><circle cx="288" cy="288" r="9"/><circle cx="324" cy="288" r="9"/><circle cx="360" cy="288" r="9"/><circle cx="414" cy="234" r="9"/><circle cx="522" cy="180" r="9"/></g><g fill="#BC1E47" stroke="#000"><circle cx="18" cy="18" r="9"/><circle cx="54" cy="234" r="9"/><circle cx="72" cy="288" r="9"/><circle cx="108" cy="288" r="9"/><circle cx="126" cy="234" r="9"/><circle cx="198" cy="234" r="9"/><circle cx="234" cy="180" r="9"/><circle cx="342" cy="234" r="9"/><circle cx="378" cy="180" r="9"/><circle cx="450" cy="126" r="9"/><circle cx="558" cy="234" r="9"/><circle cx="486" cy="234" r="9"/><circle cx="270" cy="234" r="9"/><circle cx="396" cy="288" r="9"/><circle cx="432" cy="288" r="9"/><circle cx="468" cy="288" r="9"/><circle cx="504" cy="288" r="9"/><circle cx="540" cy="288" r="9"/><circle cx="576" cy="288" r="9"/></g></svg>