<svg xmlns="http://www.w3.org/2000/svg" width="532.215" height="362.417">
    <path d="M137.94 98.241l-10.004-30.792 26.192-19.031 26.194 19.031-10.004 30.792zm251.93 99.646l-10.004-30.792 26.193-19.031 26.193 19.031-10.004 30.792z" fill="#C1272D" stroke="#000"/>
    <g fill="#FF5A24" stroke="#000">
        <path d="M170.318 98.241l10.005 30.792-26.194 19.031-26.193-19.031 10.005-30.792zm-42.382-30.792l10.005 30.792-26.193 19.031-26.194-19.031 10.005-30.792z"/>
        <path d="M212.7 67.449l10.005 30.792-26.194 19.031-26.193-19.031 10.005-30.792z"/>
    </g>
    <g fill="#FBB03B" stroke="#000">
        <path d="M164.134 178.855l-10.004-30.791 26.193-19.031 26.193 19.031-10.004 30.791zm-52.386 0l-10.005-30.791 26.193-19.031 26.193 19.031-10.004 30.791zm26.194 80.616l-10.005-30.793 26.193-19.03 26.194 19.03-10.004 30.793z"/>
        <path d="M69.366 148.064l-10.005-30.792 26.193-19.031 26.194 19.031-10.004 30.792zm16.189 111.407L75.55 228.678l26.193-19.03 26.194 19.03-10.004 30.793z"/>
        <path d="M43.173 228.678l-10.005-30.791 26.193-19.032 26.194 19.032-10.004 30.791zm100.952-49.823l10.005 30.793-26.193 19.03-26.194-19.03 10.005-30.793zm94.768-30.791l10.005 30.791-26.193 19.032-26.194-19.032 10.005-30.791zm-32.377 0l-10.005-30.792 26.194-19.031 26.193 19.031-10.004 30.792zm-16.188 111.407l-10.004-30.793 26.192-19.03 26.193 19.03-10.003 30.793z"/>
        <path d="M232.709 228.678l-10.004-30.791 26.193-19.032 26.193 19.032-10.004 30.791zm-36.197-49.823l10.005 30.793-26.193 19.03-26.194-19.03 10.005-30.793zM111.75 340.084l-10.005-30.791 26.192-19.031 26.194 19.031-10.004 30.791zm-52.387 0l-10.005-30.791 26.192-19.031 26.194 19.031-10.004 30.791zM16.98 309.293L6.975 278.5l26.192-19.031L59.361 278.5l-10.004 30.793zm241.924 0l-10.005-30.791 26.192-19.031 26.194 19.031-10.004 30.791zm-140.971-49.822l10.004 30.791-26.193 19.031-26.194-19.031 10.006-30.791z"/>
        <path d="M75.55 228.678l10.004 30.791L59.361 278.5l-26.194-19.031 10.006-30.791zm189.538.002l10.004 30.791-26.193 19.031-26.193-19.031 10.005-30.791zm26.193 80.613l10.004 30.791-26.194 19.032-26.193-19.032 10.006-30.791zm-241.922 0l10.004 30.791-26.194 19.032-26.193-19.032 10.006-30.791zm114.776 30.791l-10.004-30.791 26.193-19.031 26.193 19.031-10.004 30.791z"/>
        <path d="M170.32 259.471l10.005 30.791-26.194 19.031-26.193-19.031 10.005-30.791zm46.2 80.613l-10.004-30.791 26.192-19.031 26.194 19.031-10.004 30.791z"/>
        <path d="M222.705 259.471l10.004 30.791-26.193 19.031-26.193-19.031 10.005-30.791zM101.743 148.064l10.005 30.791-26.193 19.032-26.194-19.032 10.005-30.791zm235.74 49.823l-10.004-30.792 26.193-19.031 26.193 19.031-10.004 30.792zm26.195 80.614l-10.005-30.792 26.193-19.031 26.194 19.031-10.004 30.792z"/>
        <path d="M396.054 117.272l10.005 30.792-26.194 19.031-26.193-19.031 10.005-30.792zm-26.194 80.615l10.006 30.791-26.193 19.031-26.194-19.031 10.004-30.791zm-58.571-80.615L301.285 86.48l26.194-19.03 26.193 19.03-10.004 30.792z"/>
        <path d="M343.666 117.272l10.006 30.792-26.193 19.031-26.194-19.031 10.004-30.792zm120.963 49.823l10.005 30.792-26.194 19.03-26.193-19.03 10.005-30.792zm-32.377 0l-10.005-30.792 26.193-19.031 26.194 19.031-10.004 30.792zm-68.576-49.823L353.671 86.48l26.193-19.031 26.194 19.031-10.004 30.792zm52.387 161.229l-10.003-30.792 26.192-19.031 26.193 19.031-10.004 30.792z"/>
        <path d="M458.445 247.709l-10.005-30.792 26.194-19.03 26.193 19.03-10.004 30.792zM438.436 86.48l10.004 30.792-26.193 19.031-26.193-19.031 10.005-30.792z"/>
        <path d="M406.058 86.48l-10.005-30.792 26.193-19.031 26.193 19.031-10.003 30.792z"/>
        <path d="M412.241 5.865l10.005 30.792-26.193 19.031-26.194-19.031 10.005-30.792zm10.007 192.022l10.005 30.791-26.193 19.031-26.194-19.031 10.005-30.791zM369.859 36.658l10.006 30.791-26.193 19.031-26.193-19.031 10.003-30.791zM484.64 328.325l-10.005-30.791 26.192-19.033 26.194 19.033-10.004 30.791z"/>
        <path d="M490.824 247.71l10.004 30.791-26.193 19.033-26.194-19.033 10.006-30.791zM389.871 359.116l-10.004-30.791 26.193-19.032 26.193 19.032-10.004 30.791z"/>
        <path d="M396.056 278.501l10.005 30.792-26.194 19.032-26.193-19.032 10.005-30.792zm46.2 80.615l-10.004-30.791 26.192-19.032 26.194 19.032-10.004 30.791z"/>
        <path d="M448.44 278.501l10.005 30.792-26.193 19.032-26.193-19.032 10.004-30.792z"/>
    </g>
</svg>
