<svg xmlns="http://www.w3.org/2000/svg" width="630" height="630"><path d="M9 45h36v36H9zM45 9h36v36H45zm72 0h36v36h-36zm36 36h36v36h-36zm36 36h36v36h-36zm252-36h36v36h-36zm36-36h36v36h-36zm72 0h36v36h-36zm36 36h36v36h-36zm-360 0h36v36h-36zm36-36h36v36h-36zm72 0h36v36h-36zm36 36h36v36h-36zm36 36h36v36h-36zM297 189h36v36h-36zm252-36h36v36h-36zm36-36h36v36h-36zm-252 36h36v36h-36zm36-36h36v36h-36zm72 0h36v36h-36zm36 36h36v36h-36zm36 36h36v36h-36zm-432 0h36v36H81zm36-36h36v36h-36zm36-36h36v36h-36zm72 0h36v36h-36zm36 36h36v36h-36zM9 117h36v36H9zm36 36h36v36H45zM9 477h36v36H9zm36-36h36v36H45zm72 0h36v36h-36zm36 36h36v36h-36zm36 36h36v36h-36zm252-36h36v36h-36zm36-36h36v36h-36zm72 0h36v36h-36zm36 36h36v36h-36zm-360 0h36v36h-36zm36-36h36v36h-36zm72 0h36v36h-36zm36 36h36v36h-36zm36 36h36v36h-36zm144 72h36v36h-36zm36-36h36v36h-36zm-252 36h36v36h-36zm36-36h36v36h-36zm72 0h36v36h-36zm36 36h36v36h-36zm-360 0h36v36h-36zm36-36h36v36h-36zm72 0h36v36h-36zm36 36h36v36h-36zM9 549h36v36H9zm36 36h36v36H45zM9 261h36v36H9zm36-36h36v36H45zm72 0h36v36h-36zm36 36h36v36h-36zm36 36h36v36h-36zm252-36h36v36h-36zm36-36h36v36h-36zm72 0h36v36h-36zm36 36h36v36h-36zm-360 0h36v36h-36zm36-36h36v36h-36zm72 0h36v36h-36zm36 36h36v36h-36zm36 36h36v36h-36zM297 405h36v36h-36zm252-36h36v36h-36zm36-36h36v36h-36zm-252 36h36v36h-36zm36-36h36v36h-36zm72 0h36v36h-36zm36 36h36v36h-36zm36 36h36v36h-36zm-432 0h36v36H81zm36-36h36v36h-36zm36-36h36v36h-36zm72 0h36v36h-36zm36 36h36v36h-36zM9 333h36v36H9zm36 36h36v36H45z" fill="#BC1E47" stroke="#000"/><path d="M117 45h36v36h-36zM81 81h36v36H81zm72-72h36v36h-36zM9 9h36v36H9zm36 36h36v36H45zm504 0h36v36h-36zm-36 36h36v36h-36zm72-72h36v36h-36zM441 9h36v36h-36zm36 36h36v36h-36zm-144 0h36v36h-36zm-36 36h36v36h-36zm72-72h36v36h-36zM225 9h36v36h-36zm36 36h36v36h-36zm288 72h36v36h-36zm36 36h36v36h-36zm-144 0h36v36h-36zm-36 36h36v36h-36zm72-72h36v36h-36zm-144 0h36v36h-36zm36 36h36v36h-36zm-144 0h36v36h-36zm-36 36h36v36h-36zm72-72h36v36h-36zm-144 0h36v36h-36zm36 36h36v36h-36zM9 153h36v36H9zm36-36h36v36H45zm72 360h36v36h-36zm-36 36h36v36H81zm72-72h36v36h-36zM9 441h36v36H9zm36 36h36v36H45zm504 0h36v36h-36zm-36 36h36v36h-36zm72-72h36v36h-36zm-144 0h36v36h-36zm36 36h36v36h-36zm-144 0h36v36h-36zm-36 36h36v36h-36zm72-72h36v36h-36zm-144 0h36v36h-36zm36 36h36v36h-36zm288 72h36v36h-36zm36 36h36v36h-36zm-144 0h36v36h-36zm36-36h36v36h-36zm-144 0h36v36h-36zm36 36h36v36h-36zm-144 0h36v36h-36zm36-36h36v36h-36zm-144 0h36v36h-36zm36 36h36v36h-36zM9 585h36v36H9zm36-36h36v36H45zm72-288h36v36h-36zm-36 36h36v36H81zm72-72h36v36h-36zM9 225h36v36H9zm36 36h36v36H45zm504 0h36v36h-36zm-36 36h36v36h-36zm72-72h36v36h-36zm-144 0h36v36h-36zm36 36h36v36h-36zm-144 0h36v36h-36zm-36 36h36v36h-36zm72-72h36v36h-36zm-144 0h36v36h-36zm36 36h36v36h-36zm288 72h36v36h-36zm36 36h36v36h-36zm-144 0h36v36h-36zm-36 36h36v36h-36zm72-72h36v36h-36zm-144 0h36v36h-36zm36 36h36v36h-36zm-144 0h36v36h-36zm-36 36h36v36h-36zm72-72h36v36h-36zm-144 0h36v36h-36zm36 36h36v36h-36zM9 369h36v36H9zm36-36h36v36H45z" fill="#FEC200" stroke="#000"/><g fill="#0081CD" stroke="#000"><path d="M81 9h36v36H81zm0 36h36v36H81zM189 8.999h36v36h-36zm0 36h36v36h-36zM297 9h36v36h-36zm0 36h36v36h-36zM405 9h36v36h-36zm0 36h36v36h-36zM513 8.999h36v36h-36zm0 36h36v36h-36zM81 117h36v36H81zm0 36h36v36H81zm108-36.001h36v36h-36zm0 36h36v36h-36zM297 117h36v36h-36zm0 36h36v36h-36zm108-36h36v36h-36zm0 36h36v36h-36zm108-36.001h36v36h-36zm0 36h36v36h-36zM81 225h36v36H81zm0 36h36v36H81zm108-36h36v36h-36zm0 36h36v36h-36zm108-36h36v36h-36zm0 36h36v36h-36zm108-36h36v36h-36zm0 36h36v36h-36zm108-36h36v36h-36zm0 36h36v36h-36zM81 333h36v36H81zm0 36h36v36H81zm108-36h36v36h-36zm0 36h36v36h-36zm108-36h36v36h-36zm0 36h36v36h-36zm108-36h36v36h-36zm0 36h36v36h-36zm108-36h36v36h-36zm0 36h36v36h-36zM81 441h36v36H81zm0 36h36v36H81zm108-36h36v36h-36zm0 36h36v36h-36zm108-36h36v36h-36zm0 36h36v36h-36zm108-36h36v36h-36zm0 36h36v36h-36zm108-36h36v36h-36zm0 36h36v36h-36zM81 549h36v36H81zm0 36h36v36H81zm108-36h36v36h-36zm0 36h36v36h-36zm108-36h36v36h-36zm0 36h36v36h-36zm108-36h36v36h-36zm0 36h36v36h-36zm108-36h36v36h-36zm0 36h36v36h-36zM8.999 513h36v36h-36z"/><path d="M44.999 513h36v36h-36zm-36-108h36v36h-36z"/><path d="M44.999 405h36v36h-36zm-36-108h36v36h-36z"/><path d="M44.999 297h36v36h-36zm-36-108h36v36h-36z"/><path d="M44.999 189h36v36h-36zm-36-108h36v36h-36z"/><path d="M44.999 81h36v36h-36zm72 432h36v36h-36zm36 0h36v36h-36zm-36-108h36v36h-36zm36 0h36v36h-36zm-36-108h36v36h-36zm36 0h36v36h-36zm-36-108h36v36h-36zm36 0h36v36h-36zm-36-108h36v36h-36zm36 0h36v36h-36zm72 432h36v36h-36zm36 0h36v36h-36zm-36-108h36v36h-36zm36 0h36v36h-36zm-36-108h36v36h-36zm36 0h36v36h-36zm-36-108h36v36h-36zm36 0h36v36h-36zm-36-108h36v36h-36zm36 0h36v36h-36zm72 432h36v36h-36zM369 513h36v36h-36zm-36.001-108h36v36h-36zM369 405h36v36h-36zm-36.001-108h36v36h-36zM369 297h36v36h-36zm-36.001-108h36v36h-36zM369 189h36v36h-36zM332.999 81h36v36h-36zM369 81h36v36h-36zm72 432h36v36h-36zm36 0h36v36h-36zm-36-108h36v36h-36zm36 0h36v36h-36zm-36-108h36v36h-36zm36 0h36v36h-36zm-36-108h36v36h-36zm36 0h36v36h-36zM441 81h36v36h-36zm36 0h36v36h-36zm72 432h36v36h-36zm36 0h36v36h-36zm-36-108h36v36h-36zm36 0h36v36h-36zm-36-108h36v36h-36zm36 0h36v36h-36zm-36-108h36v36h-36zm36 0h36v36h-36zM549 81h36v36h-36zm36 0h36v36h-36z"/></g></svg>