<svg xmlns="http://www.w3.org/2000/svg" width="594" height="594"><path d="M9 9h36v36H9zm36 36h36v36H45zm36 36h36v36H81zm36 36h36v36h-36zM9 153h36v36H9zm36 36h36v36H45zm36 36h36v36H81zm36 36h36v36h-36zM153 9h36v36h-36zm36 36h36v36h-36zm36 36h36v36h-36zm36 36h36v36h-36zm-108 36h36v36h-36zm36 36h36v36h-36zm36 36h36v36h-36zm36 36h36v36h-36zM297 9h36v36h-36zm36 36h36v36h-36zm36 36h36v36h-36zm36 36h36v36h-36zm-108 36h36v36h-36zm36 36h36v36h-36zm36 36h36v36h-36zm36 36h36v36h-36zM441 9h36v36h-36zm36 36h36v36h-36zm36 36h36v36h-36zm36 36h36v36h-36zm-108 36h36v36h-36zm36 36h36v36h-36zm36 36h36v36h-36zm36 36h36v36h-36zM9 297h36v36H9zm36 36h36v36H45zm36 36h36v36H81zm36 36h36v36h-36zM9 441h36v36H9zm36 36h36v36H45zm36 36h36v36H81zm36 36h36v36h-36zm36-252h36v36h-36zm36 36h36v36h-36zm36 36h36v36h-36zm36 36h36v36h-36zm-108 36h36v36h-36zm36 36h36v36h-36zm36 36h36v36h-36zm36 36h36v36h-36zm36-252h36v36h-36zm36 36h36v36h-36zm36 36h36v36h-36zm36 36h36v36h-36zm-108 36h36v36h-36zm36 36h36v36h-36zm36 36h36v36h-36zm36 36h36v36h-36zm36-252h36v36h-36zm36 36h36v36h-36zm36 36h36v36h-36zm36 36h36v36h-36zm-108 36h36v36h-36zm36 36h36v36h-36zm36 36h36v36h-36zm36 36h36v36h-36z" fill="#FEC200" stroke="#000"/><path d="M81 9h36v36H81zm36 36h36v36h-36zM9 81h36v36H9zm36 36h36v36H45zm36 36h36v36H81zm36 36h36v36h-36zM9 225h36v36H9zm36 36h36v36H45zM225 9h36v36h-36zm36 36h36v36h-36zM153 81h36v36h-36zm36 36h36v36h-36zm36 36h36v36h-36zm36 36h36v36h-36zm-108 36h36v36h-36zm36 36h36v36h-36zM369 9h36v36h-36zm36 36h36v36h-36zM297 81h36v36h-36zm36 36h36v36h-36zm36 36h36v36h-36zm36 36h36v36h-36zm-108 36h36v36h-36zm36 36h36v36h-36zM513 9h36v36h-36zm36 36h36v36h-36zM441 81h36v36h-36zm36 36h36v36h-36zm36 36h36v36h-36zm36 36h36v36h-36zm-108 36h36v36h-36zm36 36h36v36h-36zM81 297h36v36H81zm36 36h36v36h-36zM9 369h36v36H9zm36 36h36v36H45zm36 36h36v36H81zm36 36h36v36h-36zM9 513h36v36H9zm36 36h36v36H45zm180-252h36v36h-36zm36 36h36v36h-36zm-108 36h36v36h-36zm36 36h36v36h-36zm36 36h36v36h-36zm36 36h36v36h-36zm-108 36h36v36h-36zm36 36h36v36h-36zm180-252h36v36h-36zm36 36h36v36h-36zm-108 36h36v36h-36zm36 36h36v36h-36zm36 36h36v36h-36zm36 36h36v36h-36zm-108 36h36v36h-36zm36 36h36v36h-36zm180-252h36v36h-36zm36 36h36v36h-36zm-108 36h36v36h-36zm36 36h36v36h-36zm36 36h36v36h-36zm36 36h36v36h-36zm-108 36h36v36h-36zm36 36h36v36h-36z" fill="#0081CD" stroke="#000"/><path d="M9 117h36v36H9zm36-36h36v36H45zm36-36h36v36H81zm36-36h36v36h-36zM9 261h36v36H9zm36-36h36v36H45zm36-36h36v36H81zm36-36h36v36h-36zm36-36h36v36h-36zm36-36h36v36h-36zm36-36h36v36h-36zm36-36h36v36h-36zM153 261h36v36h-36zm36-36h36v36h-36zm36-36h36v36h-36zm36-36h36v36h-36zm36-36h36v36h-36zm36-36h36v36h-36zm36-36h36v36h-36zm36-36h36v36h-36zM297 261h36v36h-36zm36-36h36v36h-36zm36-36h36v36h-36zm36-36h36v36h-36zm36-36h36v36h-36zm36-36h36v36h-36zm36-36h36v36h-36zm36-36h36v36h-36zM441 261h36v36h-36zm36-36h36v36h-36zm36-36h36v36h-36zm36-36h36v36h-36zM9 405h36v36H9zm36-36h36v36H45zm36-36h36v36H81zm36-36h36v36h-36zM9 549h36v36H9zm36-36h36v36H45zm36-36h36v36H81zm36-36h36v36h-36zm36-36h36v36h-36zm36-36h36v36h-36zm36-36h36v36h-36zm36-36h36v36h-36zM153 549h36v36h-36zm36-36h36v36h-36zm36-36h36v36h-36zm36-36h36v36h-36zm36-36h36v36h-36zm36-36h36v36h-36zm36-36h36v36h-36zm36-36h36v36h-36zM297 549h36v36h-36zm36-36h36v36h-36zm36-36h36v36h-36zm36-36h36v36h-36zm36-36h36v36h-36zm36-36h36v36h-36zm36-36h36v36h-36zm36-36h36v36h-36zM441 549h36v36h-36zm36-36h36v36h-36zm36-36h36v36h-36zm36-36h36v36h-36z" fill="#BC1E47" stroke="#000"/><path d="M45 9h36v36H45zM9 45h36v36H9zm108 36h36v36h-36zm-36 36h36v36H81zm-36 36h36v36H45zM9 189h36v36H9zm108 36h36v36h-36zm-36 36h36v36H81zM189 9h36v36h-36zm-36 36h36v36h-36zm108 36h36v36h-36zm-36 36h36v36h-36zm-36 36h36v36h-36zm-36 36h36v36h-36zm108 36h36v36h-36zm-36 36h36v36h-36zM333 9h36v36h-36zm-36 36h36v36h-36zm108 36h36v36h-36zm-36 36h36v36h-36zm-36 36h36v36h-36zm-36 36h36v36h-36zm108 36h36v36h-36zm-36 36h36v36h-36zM477 9h36v36h-36zm-36 36h36v36h-36zm108 36h36v36h-36zm-36 36h36v36h-36zm-36 36h36v36h-36zm-36 36h36v36h-36zm108 36h36v36h-36zm-36 36h36v36h-36zM45 297h36v36H45zM9 333h36v36H9zm108 36h36v36h-36zm-36 36h36v36H81zm-36 36h36v36H45zM9 477h36v36H9zm108 36h36v36h-36zm-36 36h36v36H81zm108-252h36v36h-36zm-36 36h36v36h-36zm108 36h36v36h-36zm-36 36h36v36h-36zm-36 36h36v36h-36zm-36 36h36v36h-36zm108 36h36v36h-36zm-36 36h36v36h-36zm108-252h36v36h-36zm-36 36h36v36h-36zm108 36h36v36h-36zm-36 36h36v36h-36zm-36 36h36v36h-36zm-36 36h36v36h-36zm108 36h36v36h-36zm-36 36h36v36h-36zm108-252h36v36h-36zm-36 36h36v36h-36zm108 36h36v36h-36zm-36 36h36v36h-36zm-36 36h36v36h-36zm-36 36h36v36h-36zm108 36h36v36h-36zm-36 36h36v36h-36z" stroke="#000"/></svg>