<svg xmlns="http://www.w3.org/2000/svg" width="423" height="342"><path fill="none" stroke="#000" d="M374.875 89.765l-65.822 11.224M71.161 146.454l-54 81 54 81 54-81zm0 162v-162m303.714-56.689l31.401 59.021m-52.223-2.332l20.822-56.689m-110.822 56.689h90v90h-90zm0 90l90-90m-90 0l90 90m-149.607-46.693l36.839-113.378M71.161 146.454L48.393 76.383 108 33.076l59.607 43.307-22.768 70.071z"/><path fill="none" stroke="#000" d="M241.285 76.383l22.768 70.071-59.607 43.307-59.607-43.307 22.768-70.071z"/><path fill="none" stroke="#000" d="M71.161 146.454L108 33.076l36.839 113.378-96.446-70.071h119.214z"/><circle fill="#FEC200" stroke="#000" cx="48.393" cy="76.383" r="9"/><circle fill="#FEC200" stroke="#000" cx="71.161" cy="146.454" r="9"/><circle fill="#FEC200" stroke="#000" cx="108" cy="33.076" r="9"/><circle fill="#FEC200" stroke="#000" cx="167.607" cy="76.383" r="9"/><circle fill="#FEC200" stroke="#000" cx="144.839" cy="146.454" r="9"/><circle fill="#AAD5EF" stroke="#000" cx="204.446" cy="189.761" r="9"/><circle fill="#BC1E47" stroke="#000" cx="264.053" cy="146.454" r="9"/><circle fill="#AAD5EF" stroke="#000" cx="241.285" cy="76.383" r="9"/><circle fill="#BC1E47" stroke="#000" cx="264.053" cy="236.454" r="9"/><circle fill="#BC1E47" stroke="#000" cx="309.053" cy="189.761" r="9"/><circle fill="#BC1E47" stroke="#000" cx="354.053" cy="146.454" r="9"/><circle fill="#BC1E47" stroke="#000" cx="354.053" cy="236.454" r="9"/><path fill="none" stroke="#000" d="M359.469 13.667l-50.416 87.322-50.416-87.322z"/><circle fill="#AAD5EF" stroke="#000" cx="258.637" cy="13.667" r="9"/><circle fill="#AAD5EF" stroke="#000" cx="309.053" cy="100.989" r="9"/><circle fill="#AAD5EF" stroke="#000" cx="359.469" cy="13.667" r="9"/><circle fill="#AAD5EF" stroke="#000" cx="374.875" cy="89.765" r="9"/><circle fill="#AAD5EF" stroke="#000" cx="406.276" cy="148.786" r="9"/><path fill="none" stroke="#000" d="M354.053 236.454v90h-90v-90m0 90l90-90m-90 0l90 90"/><path fill="#FEC200" stroke="#000" d="M273.053 236.454c0 4.971-4.029 9-9 9s-9-4.029-9-9"/><circle fill="#FEC200" stroke="#000" cx="264.053" cy="326.454" r="9"/><circle fill="#FEC200" stroke="#000" cx="309.053" cy="279.761" r="9"/><path fill="#FEC200" stroke="#000" d="M363.053 236.454c0 4.971-4.029 9-9 9s-9-4.029-9-9"/><circle fill="#FEC200" stroke="#000" cx="354.053" cy="326.454" r="9"/><path fill="none" stroke="#000" d="M17.161 227.454h108l-54 18z"/><path fill="#BC1E47" stroke="#000" d="M80.161 146.454c0 4.971-4.029 9-9 9s-9-4.029-9-9"/><circle fill="#BC1E47" stroke="#000" cx="125.161" cy="227.454" r="9"/><circle fill="#BC1E47" stroke="#000" cx="71.161" cy="245.454" r="9"/><circle fill="#BC1E47" stroke="#000" cx="17.161" cy="227.454" r="9"/><circle fill="#BC1E47" stroke="#000" cx="71.161" cy="308.454" r="9"/></svg>