<svg xmlns="http://www.w3.org/2000/svg" width="486" height="198"><path d="M279 99h194.7M327.676 14.692l97.349 168.616m-97.349 0l97.349-168.616M12.3 99H207m-48.675-84.308v168.616M60.975 14.692v168.616m0 0L12.3 99l48.675-84.308h97.35L207 99l-48.675 84.308zm266.701 0L279 99l48.676-84.308h97.349L473.7 99l-48.675 84.308z" fill="none" stroke="#000"/><g fill="#0081CD" stroke="#000"><circle cx="60.975" cy="14.692" r="9"/><circle cx="158.325" cy="14.692" r="9"/><circle cx="207" cy="99" r="9"/><circle cx="158.325" cy="183.308" r="9"/><circle cx="60.975" cy="183.308" r="9"/><circle cx="12.3" cy="99" r="9"/><circle cx="279" cy="99" r="9"/><circle cx="327.676" cy="14.692" r="9"/><circle cx="425.025" cy="14.692" r="9"/><circle cx="473.7" cy="99" r="9"/><circle cx="425.025" cy="183.308" r="9"/><circle cx="327.676" cy="183.308" r="9"/></g></svg>