<svg xmlns="http://www.w3.org/2000/svg" width="756" height="756"><g fill="none" stroke="#000"><path d="M234 378l144-144-72 144m72-72l-72 72m-72 0L378 18M234 378L378 90"/><path d="M234 378l144-216-72 216"/></g><g fill="none" stroke="#0081CD"><path d="M378 522l72-144m72 0L378 522m0-72l72-72m72 0L378 738m144-360L378 666m0-72l72-216m72 0L378 594m360-216L378 234m216 144L378 234l288 144m72 0L378 162"/><path d="M594 378L378 162l288 216"/><path d="M666 378l-288-72 360 72m-216 0l-144-72 216 72"/><path d="M666 378L378 90l360 288m-288 0L378 90l216 288"/><path d="M666 378L378 18l360 360m-288 0L378 18l216 360m-360 0l144 72-216-72 216 144"/><path d="M162 378l216 360-72-360 72 288-216-288 216 216"/><path d="M378 450L90 378l288 144m0 144L90 378l288 216M90 378l288 360"/><path d="M378 450L18 378l360 144m0 144L18 378l360 216M18 378l360 360"/></g><g fill="#E9B4C2" stroke="#000"><circle cx="18" cy="378" r="9"/><circle cx="90" cy="378" r="9"/><circle cx="162" cy="378" r="9"/></g><g fill="#BC1E47" stroke="#000"><circle cx="378" cy="90" r="9"/><circle cx="306" cy="378" r="9"/><circle cx="234" cy="378" r="9"/><circle cx="378" cy="234" r="9"/><circle cx="378" cy="306" r="9"/><circle cx="378" cy="18" r="9"/><circle cx="378" cy="162" r="9"/></g><g fill="#AAD5EF" stroke="#000"><circle cx="378" cy="450" r="9"/><circle cx="378" cy="522" r="9"/><circle cx="450" cy="378" r="9"/><circle cx="378" cy="594" r="9"/><circle cx="378" cy="666" r="9"/><circle cx="378" cy="738" r="9"/><circle cx="522" cy="378" r="9"/><circle cx="594" cy="378" r="9"/><circle cx="666" cy="378" r="9"/><circle cx="738" cy="378" r="9"/></g></svg>