<svg xmlns="http://www.w3.org/2000/svg" width="342" height="342"><path d="M323.775 298.277a142.918 142.918 0 0 0 9.224-28.422l.001-.103c0-10.225-1.073-20.196-3.099-29.818a143.863 143.863 0 0 0-15.256-26.321 144.405 144.405 0 0 0-24.171-17.547 143.331 143.331 0 0 0-29.363-6.259 143.297 143.297 0 0 0-30.137 6.438 144.363 144.363 0 0 0-23.331 16.972 143.814 143.814 0 0 0-15.545 26.718 144.687 144.687 0 0 0-3.099 29.786 142.935 142.935 0 0 0 9.297 28.655 144.86 144.86 0 0 0 20.246 22.459 143.233 143.233 0 0 0 27.299 12.159c4.981.521 10.038.793 15.158.793s10.177-.272 15.158-.793a143.19 143.19 0 0 0 27.295-12.157 144.674 144.674 0 0 0 20.323-22.56zM80.999 189.798c-29.216 9.513-54.326 28.109-71.998 52.462.035 31.59 10.248 60.792 27.527 84.519 14.007 4.544 28.951 7.01 44.472 7.01s30.463-2.466 44.469-7.009c17.28-23.727 27.494-52.93 27.528-84.521-17.672-24.352-42.782-42.948-71.998-52.461zM261 8.977c-43.04 24.898-71.999 71.429-72 124.728 21.191 12.27 45.797 19.296 72.046 19.296 26.21 0 50.783-7.006 71.953-19.241l.001-.052c0-53.3-28.959-99.832-72-124.731zM149.841 129.049a144.511 144.511 0 0 0 3.157-30.053c-6.433-30.301-22.392-57.077-44.6-77.048A143.219 143.219 0 0 0 81.106 9.793L81 9.781l-.102.011a143.219 143.219 0 0 0-27.306 12.163C31.387 41.93 15.429 68.71 9 99.015a144.566 144.566 0 0 0 3.15 30 144.427 144.427 0 0 0 24.328 17.707c14.058 4.581 29.061 7.067 44.647 7.067 15.432 0 30.293-2.438 44.23-6.932a144.398 144.398 0 0 0 24.429-17.73l.057-.078z" fill="#231F20" stroke="#000" stroke-width="1.5"/><path d="M189 133.708l3.146-29.939 9.303-28.63 15.052-26.073 20.145-22.371L261 9l24.355 17.694 20.143 22.372 15.053 26.072 9.302 28.631L333 133.708l-27.502 12.245-29.446 6.259h-30.105l-29.446-6.26zM65.949 153h30.105l29.446-6.259 24.354-17.696 3.147-29.938-9.302-28.63-15.053-26.073-20.143-22.371L81.002 9.789 53.499 22.033 33.355 44.406l-15.052 26.07L9 99.107l3.148 29.94 24.355 17.693zm126.197 86.813l15.053-26.071 24.355-17.694 29.446-6.26 29.446 6.26 24.355 17.695 15.053 26.07 3.146 29.94-9.303 28.631-20.142 22.371-27.502 12.244-30.105.001-27.502-12.244-20.143-22.372L189 269.753zM8.999 242.1l20.145-22.372 24.354-17.694L81 189.788l27.503 12.245 24.353 17.696 20.143 22.37-3.147 29.941-9.303 28.629-15.05 26.072-29.446 6.258-30.105.001-29.445-6.259-15.056-26.072-9.301-28.631z" fill="#FFEBAA"/><g fill="none" stroke="#0081CD" stroke-linejoin="round"><path d="M81.002 9.789L65.949 153M81.002 9.789L36.503 146.74m72-124.707l-72 124.707M81.002 9.789L96.054 153M81.002 9.789L125.5 146.741M261 9.001l-15.053 143.211M261 9.001l-44.499 136.951M261 9.001l-72 124.707M261 9.001l15.052 143.211M261 9.001l44.498 136.952M189 133.708l131.551-58.57M189 133.708l140.853-29.939M189 133.708h144m-144 0l116.498-84.642M189 133.708l96.355-107.014M333 133.708L216.501 49.066M333 133.708L236.646 26.695M333 133.708L261 9m72 124.708L201.449 75.139M333 133.708l-140.854-29.939M53.5 22.033l72 124.708M12.148 129.047l131.551-58.57m-131.551 58.57l140.853-29.94m-144 0h144m-140.853 29.94l116.498-84.643M12.148 129.047l96.355-107.014m41.351 107.012L33.355 44.406m116.499 84.639L53.499 22.033m96.355 107.012L18.303 70.476m131.551 58.569L9 99.107m144.001 0H9m72 90.681l44.499 136.953M81 189.788l15.053 143.211M81 189.788L65.948 333M8.999 242.1l144-.001m-144 .001l140.853 29.94M8.999 242.1l131.55 58.569M36.503 326.741L81 189.788M36.503 326.741l72-124.708m-72 124.708l96.353-107.012m-7.357 107.012L8.999 242.1m116.5 84.641L29.144 219.728m96.355 107.013L53.498 202.034m99.501 40.065L36.5 326.741m116.499-84.642l-131.552 58.57m131.552-58.57L12.146 272.038M189 269.753h144m-144 0l140.854-29.94m-137.708 0l131.551 58.571m-131.551-58.571L333 269.753m-114.554 51.003l96.355-107.013m-96.355 107.013l72-124.708m-92.143 102.336l131.551-58.571m-131.551 58.571l116.498-84.641M245.948 333l44.498-136.952M245.948 333L261 189.788m42.555 130.967l-72.001-124.707m72.001 124.707l-96.356-107.013m116.498 84.642l-116.498-84.642m68.854 119.257L261 189.788m15.053 143.211l-44.499-136.951"/></g></svg>