<svg width="600" height="600" xmlns="http://www.w3.org/2000/svg">
    <path d="M590 300l-4.425-7.664M590 300l-4.425 7.664m0-15.328l-8.787-1.059m0 0l3.477-8.139m0 0l-4.425-7.664m0 0l-8.787-1.059m0 0l-6.119 6.394m0 0l-4.425-7.664m0 0l-8.786-1.059m0 0l3.476-8.138m0 0l-4.425-7.665m0 0l8.597-2.102m0 0l3.477-8.138m0 0l-4.425-7.665m0 0l-8.787-1.058m0 0l3.476-8.139m0 0l-4.424-7.665m0 0l-8.787-1.058m0 0l-6.119 6.394m0 0l-4.425-7.664m0 0l-8.786-1.059m0 0l-6.119 6.394m0 0l1.444 8.732m0 0l-8.787-1.059m0 0l-6.119 6.394m0 0l-4.425-7.664m0 0l-8.786-1.059m0 0l3.476-8.139m0 0l-4.425-7.664m0 0l-8.786-1.059m0 0l-6.119 6.394m0 0l-4.425-7.664m0 0l-8.787-1.059m0 0l3.477-8.138m-3.477 8.138L145.287 389.324M458.19 202.538l-4.425-7.665m0 0l8.596-2.102m0 0l3.477-8.139m0 0l-4.425-7.664m0 0l-8.787-1.058m0 0l3.477-8.139m0 0l-4.425-7.665m0 0l8.597-2.102m0 0l3.476-8.138m0 0l6.84 5.616m0 0l8.597-2.102m0 0l3.476-8.139m0 0l-4.425-7.664m0 0l8.597-2.102m0 0l3.477-8.139m0 0l-4.426-7.664m0 0l-8.786-1.059m0 0l3.476-8.138m0 0l-4.425-7.665m0 0l-8.786-1.059m0 0l-6.119 6.394m0 0l-4.425-7.664m0 0l-8.787-1.059m0 0l3.477-8.138m0 0l-4.425-7.665m0 0l8.597-2.102m0 0l3.476-8.138m0 0l-4.425-7.665m0 0l-8.786-1.058m0 0l3.476-8.139m0 0L445 48.853m0 0h-8.85m0 0l-5.31 7.08m0 0l-5.31-7.08m0 0h-8.85m0 0l-5.31 7.08m0 0l2.478 8.496m0 0h-8.85m0 0l-5.31 7.08m0 0l-5.311-7.08m0 0h-8.85m0 0l2.478-8.496m0 0l-5.31-7.08m0 0h-8.85m0 0l-5.31 7.08m0 0l-5.31-7.08m0 0h-8.85m0 0l-5.31 7.08m0 0l2.478 8.496m0 0h-8.85m0 0l-5.31 7.08m0 0l2.478 8.496m0 0l8.283 3.115m0 0l-5.31 7.08m0 0l2.479 8.496m0 0h-8.851m0 0l-5.31 7.08m0 0l-5.31-7.08m0 0h-8.85m0 0l-5.31 7.08m0 0l2.478 8.497m0 0h-8.85m0 0l-5.31 7.08m0 0l-5.31-7.08m5.31 7.08v357.294m-5.31-364.374h-8.85m0 0l2.478-8.497m0 0l-5.31-7.08m0 0h-8.85m0 0l-5.31 7.08m0 0l-5.31-7.08m0 0h-8.85m0 0l2.478-8.496m0 0l-5.31-7.08m0 0l8.283-3.115m0 0l2.478-8.496m0 0l-5.31-7.08m0 0h-8.85m0 0l2.478-8.496m0 0l-5.31-7.08m0 0h-8.85m0 0l-5.31 7.08m0 0l-5.31-7.08m0 0h-8.85m0 0l-5.31 7.08m0 0l2.478 8.496m0 0h-8.85m0 0l-5.31 7.08m0 0l-5.311-7.08m0 0h-8.85m0 0l2.478-8.496m0 0l-5.31-7.08m0 0h-8.85m0 0l-5.31 7.08m0 0l-5.31-7.08m0 0H155m0 0l-4.425 7.664m0 0l3.476 8.139m0 0l-8.786 1.058m0 0l-4.425 7.665m0 0l3.476 8.138m0 0l8.597 2.102m0 0l-4.425 7.665m0 0l3.477 8.138m0 0l-8.787 1.059m0 0l-4.425 7.664m0 0l-6.119-6.394m0 0l-8.786 1.059m0 0l-4.425 7.665m0 0l3.476 8.138m0 0l-8.787 1.059m0 0l-4.424 7.664m0 0l3.476 8.139m0 0l8.597 2.102m0 0l-4.425 7.664m0 0l3.476 8.139m0 0l8.597 2.102m0 0l6.84-5.616m0 0l3.476 8.138m0 0l8.597 2.102m0 0l-4.425 7.665m0 0l3.477 8.139m0 0l-8.787 1.058m0 0l-4.425 7.664m0 0l3.476 8.139m0 0l8.597 2.102m0 0l-4.425 7.665m0 0l3.477 8.138m0 0l-8.787 1.059m8.787-1.059l309.426 178.648M136.5 211.735l-4.425 7.664m0 0l-6.119-6.394m0 0l-8.786 1.059m0 0l-4.425 7.664m0 0l3.476 8.139m0 0l-8.786 1.059m0 0l-4.425 7.664m0 0l-6.119-6.394m0 0l-8.787 1.059m0 0l1.444-8.732m0 0l-6.118-6.394m0 0l-8.787 1.059m0 0l-4.425 7.664m0 0l-6.119-6.394m0 0l-8.786 1.058m0 0l-4.425 7.665m0 0l3.476 8.139m0 0l-8.787 1.058m0 0l-4.425 7.665m0 0l3.477 8.138m0 0l8.597 2.102m0 0l-4.425 7.665m0 0l3.476 8.138m0 0l-8.786 1.059m0 0l-4.425 7.664m0 0l-6.119-6.394m0 0l-8.787 1.059m0 0l-4.425 7.664m0 0l3.477 8.139m0 0l-8.787 1.059m0 0L10 300m0 0l4.425 7.664m0 0l8.787 1.059m0 0l-3.477 8.139m0 0l4.425 7.664m0 0l8.787 1.059m0 0l6.119-6.394m0 0l4.425 7.664m0 0l8.786 1.059m0 0l-3.476 8.138m0 0l4.425 7.665m0 0l-8.597 2.102m0 0l-3.477 8.138m0 0l4.425 7.665m0 0l8.787 1.058m0 0l-3.476 8.139m0 0l4.425 7.665m0 0l8.786 1.058m0 0l6.119-6.394m0 0l4.425 7.665m0 0l8.787 1.058m0 0l6.118-6.394m0 0l-1.444-8.732m0 0l8.787 1.059m0 0l6.119-6.394m0 0l4.425 7.664m0 0l8.786 1.059m0 0l-3.476 8.139m0 0l4.425 7.664m0 0l8.786 1.059m0 0l6.119-6.394m0 0l4.425 7.664m0 0l8.787 1.059m0 0l-3.477 8.138m0 0l4.425 7.665m0 0l-8.597 2.102m0 0l-3.476 8.139m0 0l4.425 7.664m0 0l8.787 1.059m0 0l-3.477 8.138m0 0l4.425 7.665m0 0l-8.597 2.102m0 0l-3.476 8.138m0 0l-6.84-5.616m0 0l-8.597 2.102m0 0l-3.476 8.139m0 0l4.425 7.664m0 0l-8.597 2.102m0 0l-3.476 8.139m0 0l4.424 7.664m0 0l8.787 1.059m0 0l-3.476 8.139m0 0l4.425 7.664m0 0l8.786 1.058m0 0l6.119-6.394m0 0l4.425 7.665m0 0l8.787 1.058m0 0l-3.477 8.139m0 0l4.425 7.665m0 0l-8.597 2.102m0 0l-3.476 8.138m0 0l4.425 7.665m0 0l8.786 1.058m0 0l-3.476 8.139m0 0l4.425 7.664m0 0h8.85m0 0l5.31-7.08m0 0l5.31 7.08m0 0h8.85m0 0l5.31-7.08m0 0l-2.478-8.496m0 0h8.85m0 0l5.311-7.08m0 0l5.31 7.08m0 0h8.85m0 0l-2.478 8.496m0 0l5.31 7.08m0 0h8.85m0 0l5.31-7.08m0 0l5.31 7.08m0 0h8.85m0 0l5.31-7.08m0 0l-2.478-8.496m0 0h8.85m0 0l5.31-7.08m0 0l-2.478-8.496m0 0l-8.283-3.115m0 0l5.31-7.08m0 0l-2.478-8.496m0 0h8.85m0 0l5.31-7.08m0 0l5.31 7.08m0 0h8.85m0 0l5.31-7.08m0 0l-2.478-8.497m0 0h8.85m0 0l5.31-7.08m0 0l5.31 7.08m0 0h8.85m0 0l-2.478 8.497m0 0l5.31 7.08m0 0h8.85m0 0l5.31-7.08m0 0l5.31 7.08m0 0h8.851m0 0l-2.479 8.496m0 0l5.31 7.08m0 0l-8.283 3.115m0 0l-2.478 8.496m0 0l5.31 7.08m0 0h8.85m0 0l-2.478 8.496m0 0l5.31 7.08m0 0h8.85m0 0l5.31-7.08m0 0l5.31 7.08m0 0h8.85m0 0l5.31-7.08m0 0l-2.478-8.496m0 0h8.85m0 0l5.311-7.08m0 0l5.31 7.08m0 0h8.85m0 0l-2.478 8.496m0 0l5.31 7.08m0 0h8.85m0 0l5.31-7.08m0 0l5.31 7.08m0 0H445m0 0l4.425-7.664m0 0l-3.476-8.139m0 0l8.786-1.058m0 0l4.425-7.665m0 0l-3.476-8.138m0 0l-8.597-2.102m0 0l4.425-7.665m0 0l-3.477-8.139m0 0l8.787-1.058m0 0l4.425-7.665m0 0l6.119 6.394m0 0l8.786-1.058m0 0l4.425-7.664m0 0l-3.476-8.139m0 0l8.786-1.059m0 0l4.426-7.664m0 0l-3.477-8.139m0 0l-8.597-2.102m0 0l4.425-7.664m0 0l-3.476-8.139m0 0l-8.597-2.102m0 0l-6.84 5.616m0 0l-3.476-8.138m0 0l-8.597-2.102m0 0l4.425-7.665m0 0l-3.477-8.138m0 0l8.787-1.059m0 0l4.425-7.664m0 0l-3.477-8.139m0 0l-8.596-2.102m0 0l4.425-7.665m0 0l-3.477-8.138m0 0l8.787-1.059m0 0l4.425-7.664m0 0l6.119 6.394m0 0l8.786-1.059m0 0l4.425-7.664m0 0l-3.476-8.139m0 0l8.786-1.059m0 0l4.425-7.664m0 0l6.119 6.394m0 0l8.787-1.059m0 0l-1.444 8.732m0 0l6.119 6.394m0 0l8.786-1.058m0 0l4.425-7.665m0 0l6.119 6.394m0 0l8.787-1.058m0 0l4.424-7.665m0 0l-3.476-8.139m0 0l8.787-1.058m0 0l4.425-7.665m0 0l-3.477-8.138m0 0l-8.597-2.102m0 0l4.425-7.665m0 0l-3.476-8.138m0 0l8.786-1.059m0 0l4.425-7.664m0 0l6.119 6.394m0 0l8.787-1.059m0 0l4.425-7.664m0 0l-3.477-8.139m0 0l8.787-1.059" stroke="#000"/>
    <g stroke="#000" fill="#bc1e46">
        <circle cx="590" cy="300" r="3"/>
        <circle cx="585.575" cy="292.336" r="3"/>
        <circle cx="576.788" cy="291.277" r="3"/>
        <circle cx="580.265" cy="283.138" r="3"/>
        <circle cx="575.84" cy="275.474" r="3"/>
        <circle cx="567.053" cy="274.415" r="3"/>
        <circle cx="560.934" cy="280.809" r="3"/>
        <circle cx="556.509" cy="273.145" r="3"/>
        <circle cx="547.723" cy="272.086" r="3"/>
        <circle cx="551.199" cy="263.948" r="3"/>
        <circle cx="546.774" cy="256.283" r="3"/>
        <circle cx="555.371" cy="254.181" r="3"/>
        <circle cx="558.848" cy="246.043" r="3"/>
        <circle cx="554.423" cy="238.378" r="3"/>
        <circle cx="545.636" cy="237.32" r="3"/>
        <circle cx="549.112" cy="229.181" r="3"/>
        <circle cx="544.688" cy="221.516" r="3"/>
        <circle cx="535.901" cy="220.458" r="3"/>
        <circle cx="529.782" cy="226.852" r="3"/>
        <circle cx="525.357" cy="219.188" r="3"/>
        <circle cx="516.571" cy="218.129" r="3"/>
        <circle cx="510.452" cy="224.523" r="3"/>
        <circle cx="511.896" cy="233.255" r="3"/>
        <circle cx="503.109" cy="232.196" r="3"/>
        <circle cx="496.99" cy="238.59" r="3"/>
        <circle cx="492.565" cy="230.926" r="3"/>
        <circle cx="483.779" cy="229.867" r="3"/>
        <circle cx="487.255" cy="221.728" r="3"/>
        <circle cx="482.83" cy="214.064" r="3"/>
        <circle cx="474.044" cy="213.005" r="3"/>
        <circle cx="467.925" cy="219.399" r="3"/>
        <circle cx="463.5" cy="211.735" r="3"/>
        <circle cx="454.713" cy="210.676" r="3"/>
        <circle cx="458.19" cy="202.538" r="3"/>
        <circle cx="453.765" cy="194.873" r="3"/>
        <circle cx="462.361" cy="192.771" r="3"/>
        <circle cx="465.838" cy="184.632" r="3"/>
        <circle cx="461.413" cy="176.968" r="3"/>
        <circle cx="452.626" cy="175.91" r="3"/>
        <circle cx="456.103" cy="167.771" r="3"/>
        <circle cx="451.678" cy="160.106" r="3"/>
        <circle cx="460.275" cy="158.004" r="3"/>
        <circle cx="463.751" cy="149.866" r="3"/>
        <circle cx="470.591" cy="155.482" r="3"/>
        <circle cx="479.188" cy="153.38" r="3"/>
        <circle cx="482.664" cy="145.241" r="3"/>
        <circle cx="478.239" cy="137.577" r="3"/>
        <circle cx="486.836" cy="135.475" r="3"/>
        <circle cx="490.313" cy="127.336" r="3"/>
        <circle cx="485.887" cy="119.672" r="3"/>
        <circle cx="477.101" cy="118.613" r="3"/>
        <circle cx="480.577" cy="110.475" r="3"/>
        <circle cx="476.152" cy="102.81" r="3"/>
        <circle cx="467.366" cy="101.751" r="3"/>
        <circle cx="461.247" cy="108.145" r="3"/>
        <circle cx="456.822" cy="100.481" r="3"/>
        <circle cx="448.035" cy="99.422" r="3"/>
        <circle cx="451.512" cy="91.284" r="3"/>
        <circle cx="447.087" cy="83.619" r="3"/>
        <circle cx="455.684" cy="81.517" r="3"/>
        <circle cx="459.16" cy="73.379" r="3"/>
        <circle cx="454.735" cy="65.714" r="3"/>
        <circle cx="445.949" cy="64.656" r="3"/>
        <circle cx="449.425" cy="56.517" r="3"/>
        <circle cx="445" cy="48.853" r="3"/>
        <circle cx="436.15" cy="48.853" r="3"/>
        <circle cx="430.84" cy="55.933" r="3"/>
        <circle cx="425.53" cy="48.853" r="3"/>
        <circle cx="416.68" cy="48.853" r="3"/>
        <circle cx="411.37" cy="55.933" r="3"/>
        <circle cx="413.848" cy="64.429" r="3"/>
        <circle cx="404.998" cy="64.429" r="3"/>
        <circle cx="399.688" cy="71.509" r="3"/>
        <circle cx="394.377" cy="64.429" r="3"/>
        <circle cx="385.527" cy="64.429" r="3"/>
        <circle cx="388.005" cy="55.933" r="3"/>
        <circle cx="382.695" cy="48.853" r="3"/>
        <circle cx="373.845" cy="48.853" r="3"/>
        <circle cx="368.535" cy="55.933" r="3"/>
        <circle cx="363.225" cy="48.853" r="3"/>
        <circle cx="354.375" cy="48.853" r="3"/>
        <circle cx="349.065" cy="55.933" r="3"/>
        <circle cx="351.543" cy="64.429" r="3"/>
        <circle cx="342.693" cy="64.429" r="3"/>
        <circle cx="337.383" cy="71.509" r="3"/>
        <circle cx="339.861" cy="80.005" r="3"/>
        <circle cx="348.144" cy="83.12" r="3"/>
        <circle cx="342.834" cy="90.2" r="3"/>
        <circle cx="345.313" cy="98.696" r="3"/>
        <circle cx="336.462" cy="98.696" r="3"/>
        <circle cx="331.152" cy="105.776" r="3"/>
        <circle cx="325.842" cy="98.696" r="3"/>
        <circle cx="316.992" cy="98.696" r="3"/>
        <circle cx="311.682" cy="105.776" r="3"/>
        <circle cx="314.16" cy="114.273" r="3"/>
        <circle cx="305.31" cy="114.273" r="3"/>
        <circle cx="300" cy="121.353" r="3"/>
        <circle cx="294.69" cy="114.273" r="3"/>
        <circle cx="285.84" cy="114.273" r="3"/>
        <circle cx="288.318" cy="105.776" r="3"/>
        <circle cx="283.008" cy="98.696" r="3"/>
        <circle cx="274.158" cy="98.696" r="3"/>
        <circle cx="268.848" cy="105.776" r="3"/>
        <circle cx="263.538" cy="98.696" r="3"/>
        <circle cx="254.688" cy="98.696" r="3"/>
        <circle cx="257.166" cy="90.2" r="3"/>
        <circle cx="251.856" cy="83.12" r="3"/>
        <circle cx="260.139" cy="80.005" r="3"/>
        <circle cx="262.617" cy="71.509" r="3"/>
        <circle cx="257.307" cy="64.429" r="3"/>
        <circle cx="248.457" cy="64.429" r="3"/>
        <circle cx="250.935" cy="55.933" r="3"/>
        <circle cx="245.625" cy="48.853" r="3"/>
        <circle cx="236.775" cy="48.853" r="3"/>
        <circle cx="231.465" cy="55.933" r="3"/>
        <circle cx="226.155" cy="48.853" r="3"/>
        <circle cx="217.305" cy="48.853" r="3"/>
        <circle cx="211.995" cy="55.933" r="3"/>
        <circle cx="214.473" cy="64.429" r="3"/>
        <circle cx="205.623" cy="64.429" r="3"/>
        <circle cx="200.313" cy="71.509" r="3"/>
        <circle cx="195.002" cy="64.429" r="3"/>
        <circle cx="186.152" cy="64.429" r="3"/>
        <circle cx="188.63" cy="55.933" r="3"/>
        <circle cx="183.32" cy="48.853" r="3"/>
        <circle cx="174.47" cy="48.853" r="3"/>
        <circle cx="169.16" cy="55.933" r="3"/>
        <circle cx="163.85" cy="48.853" r="3"/>
        <circle cx="155" cy="48.853" r="3"/>
        <circle cx="150.575" cy="56.517" r="3"/>
        <circle cx="154.051" cy="64.656" r="3"/>
        <circle cx="145.265" cy="65.714" r="3"/>
        <circle cx="140.84" cy="73.379" r="3"/>
        <circle cx="144.316" cy="81.517" r="3"/>
        <circle cx="152.913" cy="83.619" r="3"/>
        <circle cx="148.488" cy="91.284" r="3"/>
        <circle cx="151.965" cy="99.422" r="3"/>
        <circle cx="143.178" cy="100.481" r="3"/>
        <circle cx="138.753" cy="108.145" r="3"/>
        <circle cx="132.634" cy="101.751" r="3"/>
        <circle cx="123.848" cy="102.81" r="3"/>
        <circle cx="119.423" cy="110.475" r="3"/>
        <circle cx="122.899" cy="118.613" r="3"/>
        <circle cx="114.112" cy="119.672" r="3"/>
        <circle cx="109.688" cy="127.336" r="3"/>
        <circle cx="113.164" cy="135.475" r="3"/>
        <circle cx="121.761" cy="137.577" r="3"/>
        <circle cx="117.336" cy="145.241" r="3"/>
        <circle cx="120.812" cy="153.38" r="3"/>
        <circle cx="129.409" cy="155.482" r="3"/>
        <circle cx="136.249" cy="149.866" r="3"/>
        <circle cx="139.725" cy="158.004" r="3"/>
        <circle cx="148.322" cy="160.106" r="3"/>
        <circle cx="143.897" cy="167.771" r="3"/>
        <circle cx="147.374" cy="175.91" r="3"/>
        <circle cx="138.587" cy="176.968" r="3"/>
        <circle cx="134.162" cy="184.632" r="3"/>
        <circle cx="137.638" cy="192.771" r="3"/>
        <circle cx="146.235" cy="194.873" r="3"/>
        <circle cx="141.81" cy="202.538" r="3"/>
        <circle cx="145.287" cy="210.676" r="3"/>
        <circle cx="136.5" cy="211.735" r="3"/>
        <circle cx="132.075" cy="219.399" r="3"/>
        <circle cx="125.956" cy="213.005" r="3"/>
        <circle cx="117.17" cy="214.064" r="3"/>
        <circle cx="112.745" cy="221.728" r="3"/>
        <circle cx="116.221" cy="229.867" r="3"/>
        <circle cx="107.435" cy="230.926" r="3"/>
        <circle cx="103.01" cy="238.59" r="3"/>
        <circle cx="96.891" cy="232.196" r="3"/>
        <circle cx="88.104" cy="233.255" r="3"/>
        <circle cx="89.548" cy="224.523" r="3"/>
        <circle cx="83.43" cy="218.129" r="3"/>
        <circle cx="74.643" cy="219.188" r="3"/>
        <circle cx="70.218" cy="226.852" r="3"/>
        <circle cx="64.099" cy="220.458" r="3"/>
        <circle cx="55.313" cy="221.516" r="3"/>
        <circle cx="50.888" cy="229.181" r="3"/>
        <circle cx="54.364" cy="237.32" r="3"/>
        <circle cx="45.577" cy="238.378" r="3"/>
        <circle cx="41.152" cy="246.043" r="3"/>
        <circle cx="44.629" cy="254.181" r="3"/>
        <circle cx="53.226" cy="256.283" r="3"/>
        <circle cx="48.801" cy="263.948" r="3"/>
        <circle cx="52.277" cy="272.086" r="3"/>
        <circle cx="43.491" cy="273.145" r="3"/>
        <circle cx="39.066" cy="280.809" r="3"/>
        <circle cx="32.947" cy="274.415" r="3"/>
        <circle cx="24.16" cy="275.474" r="3"/>
        <circle cx="19.735" cy="283.138" r="3"/>
        <circle cx="23.212" cy="291.277" r="3"/>
        <circle cx="14.425" cy="292.336" r="3"/>
        <circle cx="10" cy="300" r="3"/>
        <circle cx="14.425" cy="307.664" r="3"/>
        <circle cx="23.212" cy="308.723" r="3"/>
        <circle cx="19.735" cy="316.862" r="3"/>
        <circle cx="24.16" cy="324.526" r="3"/>
        <circle cx="32.947" cy="325.585" r="3"/>
        <circle cx="39.066" cy="319.191" r="3"/>
        <circle cx="43.491" cy="326.855" r="3"/>
        <circle cx="52.277" cy="327.914" r="3"/>
        <circle cx="48.801" cy="336.052" r="3"/>
        <circle cx="53.226" cy="343.717" r="3"/>
        <circle cx="44.629" cy="345.819" r="3"/>
        <circle cx="41.152" cy="353.957" r="3"/>
        <circle cx="45.577" cy="361.622" r="3"/>
        <circle cx="54.364" cy="362.68" r="3"/>
        <circle cx="50.888" cy="370.819" r="3"/>
        <circle cx="55.313" cy="378.484" r="3"/>
        <circle cx="64.099" cy="379.542" r="3"/>
        <circle cx="70.218" cy="373.148" r="3"/>
        <circle cx="74.643" cy="380.813" r="3"/>
        <circle cx="83.43" cy="381.871" r="3"/>
        <circle cx="89.548" cy="375.477" r="3"/>
        <circle cx="88.104" cy="366.745" r="3"/>
        <circle cx="96.891" cy="367.804" r="3"/>
        <circle cx="103.01" cy="361.41" r="3"/>
        <circle cx="107.435" cy="369.074" r="3"/>
        <circle cx="116.221" cy="370.133" r="3"/>
        <circle cx="112.745" cy="378.272" r="3"/>
        <circle cx="117.17" cy="385.936" r="3"/>
        <circle cx="125.956" cy="386.995" r="3"/>
        <circle cx="132.075" cy="380.601" r="3"/>
        <circle cx="136.5" cy="388.265" r="3"/>
        <circle cx="145.287" cy="389.324" r="3"/>
        <circle cx="141.81" cy="397.462" r="3"/>
        <circle cx="146.235" cy="405.127" r="3"/>
        <circle cx="137.638" cy="407.229" r="3"/>
        <circle cx="134.162" cy="415.368" r="3"/>
        <circle cx="138.587" cy="423.032" r="3"/>
        <circle cx="147.374" cy="424.091" r="3"/>
        <circle cx="143.897" cy="432.229" r="3"/>
        <circle cx="148.322" cy="439.894" r="3"/>
        <circle cx="139.725" cy="441.996" r="3"/>
        <circle cx="136.249" cy="450.134" r="3"/>
        <circle cx="129.409" cy="444.518" r="3"/>
        <circle cx="120.812" cy="446.62" r="3"/>
        <circle cx="117.336" cy="454.759" r="3"/>
        <circle cx="121.761" cy="462.423" r="3"/>
        <circle cx="113.164" cy="464.525" r="3"/>
        <circle cx="109.688" cy="472.664" r="3"/>
        <circle cx="114.112" cy="480.328" r="3"/>
        <circle cx="122.899" cy="481.387" r="3"/>
        <circle cx="119.423" cy="489.526" r="3"/>
        <circle cx="123.848" cy="497.19" r="3"/>
        <circle cx="132.634" cy="498.248" r="3"/>
        <circle cx="138.753" cy="491.854" r="3"/>
        <circle cx="143.178" cy="499.519" r="3"/>
        <circle cx="151.965" cy="500.577" r="3"/>
        <circle cx="148.488" cy="508.716" r="3"/>
        <circle cx="152.913" cy="516.381" r="3"/>
        <circle cx="144.316" cy="518.483" r="3"/>
        <circle cx="140.84" cy="526.621" r="3"/>
        <circle cx="145.265" cy="534.286" r="3"/>
        <circle cx="154.051" cy="535.344" r="3"/>
        <circle cx="150.575" cy="543.483" r="3"/>
        <circle cx="155" cy="551.147" r="3"/>
        <circle cx="163.85" cy="551.147" r="3"/>
        <circle cx="169.16" cy="544.067" r="3"/>
        <circle cx="174.47" cy="551.147" r="3"/>
        <circle cx="183.32" cy="551.147" r="3"/>
        <circle cx="188.63" cy="544.067" r="3"/>
        <circle cx="186.152" cy="535.571" r="3"/>
        <circle cx="195.002" cy="535.571" r="3"/>
        <circle cx="200.313" cy="528.491" r="3"/>
        <circle cx="205.623" cy="535.571" r="3"/>
        <circle cx="214.473" cy="535.571" r="3"/>
        <circle cx="211.995" cy="544.067" r="3"/>
        <circle cx="217.305" cy="551.147" r="3"/>
        <circle cx="226.155" cy="551.147" r="3"/>
        <circle cx="231.465" cy="544.067" r="3"/>
        <circle cx="236.775" cy="551.147" r="3"/>
        <circle cx="245.625" cy="551.147" r="3"/>
        <circle cx="250.935" cy="544.067" r="3"/>
        <circle cx="248.457" cy="535.571" r="3"/>
        <circle cx="257.307" cy="535.571" r="3"/>
        <circle cx="262.617" cy="528.491" r="3"/>
        <circle cx="260.139" cy="519.995" r="3"/>
        <circle cx="251.856" cy="516.88" r="3"/>
        <circle cx="257.166" cy="509.8" r="3"/>
        <circle cx="254.688" cy="501.304" r="3"/>
        <circle cx="263.538" cy="501.304" r="3"/>
        <circle cx="268.848" cy="494.224" r="3"/>
        <circle cx="274.158" cy="501.304" r="3"/>
        <circle cx="283.008" cy="501.304" r="3"/>
        <circle cx="288.318" cy="494.224" r="3"/>
        <circle cx="285.84" cy="485.727" r="3"/>
        <circle cx="294.69" cy="485.727" r="3"/>
        <circle cx="300" cy="478.647" r="3"/>
        <circle cx="305.31" cy="485.727" r="3"/>
        <circle cx="314.16" cy="485.727" r="3"/>
        <circle cx="311.682" cy="494.224" r="3"/>
        <circle cx="316.992" cy="501.304" r="3"/>
        <circle cx="325.842" cy="501.304" r="3"/>
        <circle cx="331.152" cy="494.224" r="3"/>
        <circle cx="336.462" cy="501.304" r="3"/>
        <circle cx="345.313" cy="501.304" r="3"/>
        <circle cx="342.834" cy="509.8" r="3"/>
        <circle cx="348.144" cy="516.88" r="3"/>
        <circle cx="339.861" cy="519.995" r="3"/>
        <circle cx="337.383" cy="528.491" r="3"/>
        <circle cx="342.693" cy="535.571" r="3"/>
        <circle cx="351.543" cy="535.571" r="3"/>
        <circle cx="349.065" cy="544.067" r="3"/>
        <circle cx="354.375" cy="551.147" r="3"/>
        <circle cx="363.225" cy="551.147" r="3"/>
        <circle cx="368.535" cy="544.067" r="3"/>
        <circle cx="373.845" cy="551.147" r="3"/>
        <circle cx="382.695" cy="551.147" r="3"/>
        <circle cx="388.005" cy="544.067" r="3"/>
        <circle cx="385.527" cy="535.571" r="3"/>
        <circle cx="394.377" cy="535.571" r="3"/>
        <circle cx="399.688" cy="528.491" r="3"/>
        <circle cx="404.998" cy="535.571" r="3"/>
        <circle cx="413.848" cy="535.571" r="3"/>
        <circle cx="411.37" cy="544.067" r="3"/>
        <circle cx="416.68" cy="551.147" r="3"/>
        <circle cx="425.53" cy="551.147" r="3"/>
        <circle cx="430.84" cy="544.067" r="3"/>
        <circle cx="436.15" cy="551.147" r="3"/>
        <circle cx="445" cy="551.147" r="3"/>
        <circle cx="449.425" cy="543.483" r="3"/>
        <circle cx="445.949" cy="535.344" r="3"/>
        <circle cx="454.735" cy="534.286" r="3"/>
        <circle cx="459.16" cy="526.621" r="3"/>
        <circle cx="455.684" cy="518.483" r="3"/>
        <circle cx="447.087" cy="516.381" r="3"/>
        <circle cx="451.512" cy="508.716" r="3"/>
        <circle cx="448.035" cy="500.577" r="3"/>
        <circle cx="456.822" cy="499.519" r="3"/>
        <circle cx="461.247" cy="491.854" r="3"/>
        <circle cx="467.366" cy="498.248" r="3"/>
        <circle cx="476.152" cy="497.19" r="3"/>
        <circle cx="480.577" cy="489.526" r="3"/>
        <circle cx="477.101" cy="481.387" r="3"/>
        <circle cx="485.887" cy="480.328" r="3"/>
        <circle cx="490.313" cy="472.664" r="3"/>
        <circle cx="486.836" cy="464.525" r="3"/>
        <circle cx="478.239" cy="462.423" r="3"/>
        <circle cx="482.664" cy="454.759" r="3"/>
        <circle cx="479.188" cy="446.62" r="3"/>
        <circle cx="470.591" cy="444.518" r="3"/>
        <circle cx="463.751" cy="450.134" r="3"/>
        <circle cx="460.275" cy="441.996" r="3"/>
        <circle cx="451.678" cy="439.894" r="3"/>
        <circle cx="456.103" cy="432.229" r="3"/>
        <circle cx="452.626" cy="424.091" r="3"/>
        <circle cx="461.413" cy="423.032" r="3"/>
        <circle cx="465.838" cy="415.368" r="3"/>
        <circle cx="462.361" cy="407.229" r="3"/>
        <circle cx="453.765" cy="405.127" r="3"/>
        <circle cx="458.19" cy="397.462" r="3"/>
        <circle cx="454.713" cy="389.324" r="3"/>
        <circle cx="463.5" cy="388.265" r="3"/>
        <circle cx="467.925" cy="380.601" r="3"/>
        <circle cx="474.044" cy="386.995" r="3"/>
        <circle cx="482.83" cy="385.936" r="3"/>
        <circle cx="487.255" cy="378.272" r="3"/>
        <circle cx="483.779" cy="370.133" r="3"/>
        <circle cx="492.565" cy="369.074" r="3"/>
        <circle cx="496.99" cy="361.41" r="3"/>
        <circle cx="503.109" cy="367.804" r="3"/>
        <circle cx="511.896" cy="366.745" r="3"/>
        <circle cx="510.452" cy="375.477" r="3"/>
        <circle cx="516.571" cy="381.871" r="3"/>
        <circle cx="525.357" cy="380.813" r="3"/>
        <circle cx="529.782" cy="373.148" r="3"/>
        <circle cx="535.901" cy="379.542" r="3"/>
        <circle cx="544.688" cy="378.484" r="3"/>
        <circle cx="549.112" cy="370.819" r="3"/>
        <circle cx="545.636" cy="362.68" r="3"/>
        <circle cx="554.423" cy="361.622" r="3"/>
        <circle cx="558.848" cy="353.957" r="3"/>
        <circle cx="555.371" cy="345.819" r="3"/>
        <circle cx="546.774" cy="343.717" r="3"/>
        <circle cx="551.199" cy="336.052" r="3"/>
        <circle cx="547.723" cy="327.914" r="3"/>
        <circle cx="556.509" cy="326.855" r="3"/>
        <circle cx="560.934" cy="319.191" r="3"/>
        <circle cx="567.053" cy="325.585" r="3"/>
        <circle cx="575.84" cy="324.526" r="3"/>
        <circle cx="580.265" cy="316.862" r="3"/>
        <circle cx="576.788" cy="308.723" r="3"/>
        <circle cx="585.575" cy="307.664" r="3"/>
    </g>
</svg>
