<svg xmlns="http://www.w3.org/2000/svg" width="918" height="785.075" viewBox="0 -179.5 918 785.075"><g fill="#FEC200" stroke="#000"><circle cx="198.5" cy="-129.5" r="4.5"/><circle cx="446.772" cy="-151.227" r="4.5"/><circle cx="446.772" cy="-100.314" r="4.5"/><circle cx="36" cy="234" r="4.5"/><circle cx="108" cy="234" r="4.5"/><circle cx="72" cy="171" r="4.5"/><circle cx="504" cy="90" r="4.5"/><circle cx="576" cy="90" r="4.5"/><circle cx="540" cy="27" r="4.5"/><circle cx="36" cy="387" r="4.5"/><circle cx="108" cy="387" r="4.5"/><circle cx="72" cy="324" r="4.5"/><circle cx="504" cy="387" r="4.5"/><circle cx="576" cy="387" r="4.5"/><circle cx="540" cy="324" r="4.5"/><circle cx="554.772" cy="-151.227" r="4.5"/><circle cx="554.772" cy="-100.314" r="4.5"/><circle cx="662.772" cy="-100.314" r="4.5"/><circle cx="662.772" cy="-151.227" r="4.5"/><circle cx="36.5" cy="90.503" r="4.5"/><circle cx="108.5" cy="90.503" r="4.5"/><circle cx="72.5" cy="27.503" r="4.5"/><circle cx="252.5" cy="89.857" r="4.5"/><circle cx="216.5" cy="27.503" r="4.499"/><circle cx="179.94" cy="90.18" r="4.5"/><circle cx="360.504" cy="27.823" r="4.5"/><circle cx="324.504" cy="90.177" r="4.5"/><circle cx="397.062" cy="90.5" r="4.5"/><circle cx="719.995" cy="386.995" r="4.5"/><circle cx="683.995" cy="324.641" r="4.499"/><circle cx="647.436" cy="387.317" r="4.5"/><circle cx="828" cy="324" r="4.5"/><circle cx="792" cy="386.354" r="4.5"/><circle cx="864.56" cy="386.677" r="4.5"/><circle cx="863.995" cy="539.359" r="4.5"/><circle cx="791.995" cy="539.359" r="4.5"/><circle cx="827.995" cy="476.359" r="4.5"/><circle cx="648" cy="539.354" r="4.5"/><circle cx="684" cy="477" r="4.499"/><circle cx="720.56" cy="539.677" r="4.5"/><circle cx="539.995" cy="476.359" r="4.5"/><circle cx="575.995" cy="538.713" r="4.5"/><circle cx="503.436" cy="539.036" r="4.5"/><circle cx="719.832" cy="89.165" r="4.5"/><circle cx="683.832" cy="26.811" r="4.5"/><circle cx="647.271" cy="89.488" r="4.5"/><circle cx="827.995" cy="27.269" r="4.5"/><circle cx="791.995" cy="89.623" r="4.5"/><circle cx="864.555" cy="89.946" r="4.5"/><circle cx="865" cy="234.396" r="4.5"/><circle cx="793" cy="234.396" r="4.5"/><circle cx="829" cy="171.396" r="4.5"/><circle cx="649.168" cy="233.561" r="4.5"/><circle cx="685.168" cy="171.208" r="4.5"/><circle cx="721.729" cy="233.884" r="4.5"/><circle cx="541.005" cy="171.666" r="4.5"/><circle cx="577.005" cy="234.019" r="4.5"/><circle cx="504.445" cy="234.342" r="4.5"/><circle cx="252" cy="387.352" r="4.5"/><circle cx="216" cy="324.998" r="4.5"/><circle cx="179.44" cy="387.675" r="4.5"/><circle cx="360.004" cy="324.565" r="4.5"/><circle cx="324.004" cy="386.919" r="4.5"/><circle cx="396.562" cy="387.242" r="4.499"/><circle cx="396" cy="540" r="4.5"/><circle cx="324" cy="540" r="4.5"/><circle cx="360" cy="477" r="4.5"/><circle cx="180" cy="540.352" r="4.5"/><circle cx="216" cy="477.998" r="4.5"/><circle cx="252.56" cy="540.675" r="4.5"/><circle cx="71.996" cy="477.565" r="4.5"/><circle cx="107.996" cy="539.919" r="4.5"/><circle cx="35.438" cy="540.242" r="4.499"/><circle cx="252.862" cy="234.067" r="4.5"/><circle cx="216.862" cy="171.714" r="4.5"/><circle cx="180.303" cy="234.39" r="4.5"/><circle cx="369.728" cy="171.64" r="4.5"/><circle cx="333.728" cy="233.994" r="4.5"/><circle cx="406.287" cy="234.317" r="4.499"/></g><g fill="none" stroke="#000"><circle cx="198.5" cy="-129.5" r="18"/><path d="M434.043-138.498c-7.029-7.03-7.029-18.427 0-25.457 7.029-7.029 18.427-7.029 25.456.001 7.03 7.029 7.029 18.426 0 25.455l-25.456 25.456c-7.029 7.029-7.029 18.427 0 25.456 7.03 7.029 18.427 7.03 25.457 0 7.029-7.029 7.029-18.427 0-25.456l-25.457-25.455zM567.5-87.586c7.029-7.029 7.03-18.427 0-25.456-7.028-7.029-18.427-7.029-25.455 0-7.029 7.029-7.029 18.427 0 25.456"/><path d="M567.5-87.586c-14.059 14.059-36.853 14.06-50.91 0-14.061-14.059-14.061-36.853 0-50.912l12.727-12.728c14.059-14.059 36.854-14.059 50.911 0l12.729 12.729c14.059 14.059 14.059 36.853 0 50.911-14.06 14.058-36.854 14.059-50.912 0m108-76.37c-7.03 7.029-7.03 18.427 0 25.456 7.028 7.03 18.426 7.029 25.455 0s7.029-18.426 0-25.456"/><path d="M650.045-163.956c14.059-14.059 36.853-14.059 50.91 0 14.061 14.06 14.06 36.854 0 50.912l-12.728 12.728c-14.06 14.06-36.853 14.06-50.912 0l-12.728-12.728c-14.06-14.059-14.06-36.853 0-50.912 14.059-14.059 36.853-14.059 50.912 0M589.5 387c0 17.396-14.104 31.5-31.5 31.5h-54c-17.396 0-31.5-14.104-31.5-31.5v-54c0-17.396 14.104-31.5 31.5-31.5"/><path d="M589.5 387c0-7.456-6.044-13.5-13.5-13.5h-72c-7.456 0-13.5 6.044-13.5 13.5s6.044 13.5 13.5 13.5h36c7.456 0 13.5-6.044 13.5-13.5v-54c0-12.426-10.073-22.5-22.5-22.5h-27c-12.427 0-22.5 10.074-22.5 22.5v54c0 12.426 10.073 22.5 22.5 22.5h36c12.427 0 22.5-10.074 22.5-22.5v-54c0-17.396-14.104-31.5-31.5-31.5h-27m173.245 11.449c15.064-8.698 34.331-3.536 43.03 11.528l27 46.767c8.696 15.065 3.534 34.332-11.53 43.03l-46.765 27c-15.066 8.697-34.332 3.535-43.03-11.53"/><path d="M677.245 312.949c-6.457 3.729-8.669 11.983-4.941 18.44l36 62.354c3.729 6.457 11.984 8.67 18.441 4.94 6.458-3.728 8.669-11.983 4.94-18.44l-18-31.176c-3.728-6.457-11.982-8.67-18.44-4.941l-15.589 9-31.178 18c-10.761 6.213-14.447 19.973-8.234 30.734l13.5 23.383c6.213 10.762 19.975 14.449 30.736 8.236l46.765-27c10.761-6.214 14.448-19.976 8.235-30.736l-18-31.176c-6.214-10.764-19.976-14.449-30.735-8.236l-46.766 27c-15.065 8.699-20.229 27.963-11.529 43.029l13.5 23.383m139.3-31.698c-15.066-8.698-20.229-27.963-11.529-43.029l27-46.766c8.697-15.066 27.963-20.229 43.029-11.529l46.766 27c15.066 8.698 20.229 27.963 11.529 43.029"/><path d="M785.25 398.045c6.457 3.729 14.713 1.516 18.441-4.941l36-62.354c3.729-6.457 1.516-14.713-4.941-18.441-6.457-3.728-14.713-1.516-18.441 4.941l-18 31.177c-3.729 6.457-1.516 14.714 4.941 18.441l15.588 9 31.178 18c10.763 6.213 24.521 2.525 30.735-8.235l13.5-23.383c6.214-10.762 2.526-24.521-8.235-30.735l-46.766-27c-10.762-6.214-24.521-2.525-30.736 8.235l-18 31.177c-6.213 10.763-2.524 24.522 8.236 30.735l46.766 27c15.066 8.699 34.331 3.537 43.029-11.529l13.5-23.383m-123.55 172.609c0 17.396 14.103 31.5 31.5 31.5h54c17.396 0 31.5-14.104 31.5-31.5v-54c0-17.396-14.104-31.5-31.5-31.5"/><path d="M778.495 539.359c0-7.456 6.044-13.5 13.5-13.5h72c7.456 0 13.5 6.044 13.5 13.5s-6.044 13.5-13.5 13.5h-36c-7.456 0-13.5-6.044-13.5-13.5v-54c0-12.427 10.073-22.5 22.5-22.5h27c12.427 0 22.5 10.073 22.5 22.5v54c0 12.426-10.073 22.5-22.5 22.5h-36c-12.427 0-22.5-10.074-22.5-22.5v-54c0-17.396 14.103-31.5 31.5-31.5h27m-173.245 11.45c-15.066-8.697-34.332-3.535-43.029 11.529l-27 46.766c-8.698 15.066-3.537 34.332 11.529 43.03l46.766 27c15.066 8.698 34.331 3.536 43.029-11.53"/><path d="M690.75 465.309c6.457 3.729 8.67 11.984 4.941 18.441l-36 62.354c-3.729 6.457-11.984 8.671-18.441 4.941-6.457-3.728-8.67-11.984-4.941-18.441l18-31.176c3.729-6.457 11.984-8.67 18.441-4.94l15.588 9 31.178 18c10.763 6.213 14.449 19.973 8.235 30.733l-13.5 23.383c-6.214 10.763-19.974 14.449-30.735 8.236l-46.766-27c-10.762-6.213-14.449-19.975-8.236-30.736l18-31.176c6.215-10.763 19.976-14.449 30.736-8.235l46.766 27c15.066 8.698 20.229 27.963 11.529 43.028l-13.5 23.383m-139.3-31.7c15.064-8.698 20.228-27.963 11.53-43.029l-27-46.766c-8.699-15.066-27.966-20.229-43.03-11.529l-46.765 27c-15.066 8.698-20.229 27.963-11.531 43.029"/><path d="M582.745 550.404c-6.457 3.729-14.714 1.516-18.441-4.941l-36-62.354c-3.728-6.457-1.516-14.713 4.941-18.441 6.458-3.729 14.714-1.516 18.44 4.941l18 31.177c3.729 6.457 1.518 14.714-4.94 18.44l-15.589 9-31.176 18c-10.763 6.214-24.523 2.526-30.736-8.234l-13.5-23.383c-6.213-10.763-2.525-24.522 8.236-30.735l46.765-27c10.761-6.214 24.521-2.526 30.735 8.235l18 31.177c6.213 10.762 2.524 24.521-8.235 30.735l-46.765 27c-15.066 8.698-34.332 3.536-43.031-11.529l-13.5-23.383M576 108c9.941 0 18-8.059 18-18s-8.059-18-18-18c-31.5 0-49.5 36-72 36-40.5 0-27.16-99 36-99 36 0 67.473 45.248 63 85.5-4.5 40.5-76.5 31.5-99 31.5s-39.84-34.354-4.5-49.5C531 63 535.5 108 576 108zm123.42-90.189c-4.97-8.608-15.979-11.559-24.588-6.588-8.609 4.971-11.559 15.979-6.589 24.588 15.75 27.28 55.927 24.869 67.177 44.354 20.25 35.074-72.156 73.021-103.736 18.323-18-31.178 5.449-81.058 42.545-97.31 37.324-16.354 65.53 50.501 76.78 69.986s-9.832 51.679-40.618 28.646c-27.442-20.528 9.279-46.925-10.971-81.999zm76.986 62.811c-4.972 8.609-2.021 19.618 6.589 24.589 8.607 4.97 19.618 2.021 24.588-6.589 15.75-27.279-6.427-60.868 4.823-80.354 20.25-35.074 99.315 25.979 67.735 80.677-18 31.177-72.922 35.81-105.545 11.81-32.823-24.146 10.972-82.001 22.222-101.486s49.671-17.325 45.117 20.853c-4.058 34.029-45.279 15.427-65.529 50.5zM793 252.396c-9.941 0-18-8.059-18-18 0-9.94 8.059-18 18-18 31.5 0 49.5 36 72 36 40.5 0 27.16-99-36-99-36 0-67.473 45.248-63 85.5 4.5 40.5 76.5 31.5 99 31.5s39.84-34.354 4.5-49.5c-31.5-13.5-36 31.5-76.5 31.5zm-123.42-90.189c4.97-8.608 15.979-11.559 24.588-6.588 8.609 4.971 11.559 15.979 6.589 24.588-15.75 27.28-55.927 24.869-67.177 44.354-20.25 35.074 72.156 73.021 103.736 18.323 18-31.178-5.449-81.057-42.545-97.31-37.324-16.354-65.53 50.501-76.78 69.986s9.832 51.679 40.618 28.646c27.442-20.527-9.279-46.925 10.971-81.999zm-76.986 62.813c4.972 8.608 2.021 19.617-6.589 24.588-8.607 4.97-19.618 2.021-24.588-6.589-15.75-27.279 6.427-60.868-4.823-80.354-20.25-35.073-99.315 25.979-67.735 80.677 18 31.177 72.922 35.81 105.545 11.81 32.823-24.146-10.972-82.001-22.222-101.486s-49.671-17.324-45.116 20.854c4.057 34.028 45.278 15.425 65.528 50.5zM20.688 372.453C53.688 333.5 89.312 409 112.5 405c52.251-9.014-36.281-180.668-57.312-81-7.145 33.857 35.985 36.463 34 .318-2.103-38.253-64.146-26.546-44 35.682 27.36 84.511-47.626 39.75-24.5 12.453zm226.37 35.433c-50.234-9.103-2.661-77.704-17.72-95.785-33.931-40.744-138.322 121.756-41.491 90.135 32.894-10.742 13.584-49.396-16.725-29.604-32.077 20.945 9.083 68.824 52.901 20.264 59.508-65.951 58.238 21.369 23.035 14.99zm133.2-89.308c17.234 48.055-65.963 41.156-74.092 63.238-18.32 49.757 174.604 58.914 98.803-9.136-25.75-23.114-49.57 12.935-17.275 29.287 34.18 17.307 55.062-42.278-8.9-55.946-86.87-18.56-10.613-61.119 1.464-27.443z"/><path d="M411.312 525.453C378.312 486.5 342.688 562 319.5 558c-52.251-9.014 36.281-180.668 57.312-81 7.145 33.857-35.985 36.463-34 .318 2.103-38.253 64.146-26.546 44 35.682-27.36 84.511 47.626 39.75 24.5 12.453zm-226.37 35.433c50.234-9.103 2.661-77.704 17.72-95.785 33.931-40.743 138.322 121.755 41.491 90.135-32.894-10.742-13.584-49.396 16.725-29.604 32.077 20.945-9.083 68.824-52.901 20.264-59.508-65.951-58.238 21.369-23.035 14.99zm-133.2-89.308c-17.234 48.055 65.963 41.156 74.092 63.238 18.32 49.757-174.604 58.914-98.803-9.136 25.75-23.114 49.57 12.935 17.275 29.287-34.18 17.306-55.062-42.278 8.9-55.947 86.87-18.559 10.613-61.118-1.464-27.442zM36.5 72.503c-9.941 0-18 8.059-18 18s8.059 18 18 18 18-8.059 18-18v-63c0-9.941 8.059-18 18-18s18 8.059 18 18v63c0 9.941 8.059 18 18 18s18-8.059 18-18-8.059-18-18-18h-72zm200.412 26.354c4.971 8.609 15.979 11.559 24.588 6.589 8.609-4.97 11.559-15.979 6.588-24.589-4.971-8.61-15.979-11.559-24.588-6.588l-54.56 31.5c-8.609 4.971-19.618 2.021-24.589-6.588s-2.021-19.619 6.589-24.59l54.56-31.5c8.609-4.97 11.559-15.979 6.588-24.588-4.971-8.609-15.979-11.559-24.588-6.588-8.609 4.971-11.559 15.979-6.588 24.588l36 62.354zm139.18-62.034c4.971-8.609 2.021-19.618-6.588-24.589-8.609-4.97-19.619-2.021-24.59 6.589s-2.02 19.618 6.59 24.588l54.559 31.5c8.609 4.971 11.56 15.979 6.589 24.589-4.972 8.61-15.979 11.56-24.588 6.589l-54.559-31.5c-8.609-4.971-19.619-2.021-24.59 6.588s-2.02 19.618 6.59 24.589c8.608 4.97 19.617 2.021 24.588-6.589l35.999-62.354zM18.5 234.5c0-27 9-81 54-81s54 54 54 81-63 9-27-18 81 54-27 54-45-81-18-54-36 45-36 18zm243.545 14.473c-23.383 13.5-74.648 32.706-97.148-6.265-22.5-38.972 19.765-73.766 43.148-87.266s39.294 50.059-2.088 32.383c-41.383-17.678 6.265-97.148 60.265-3.617 54 93.53-47.648 79.471-37.765 42.588s56.971 8.677 33.588 22.177zm116-92.738c23.383 13.5 65.647 48.294 43.147 87.265s-73.765 19.766-97.147 6.266 23.705-59.06 29.088-14.383-87.266 43.148-33.266-50.383 92.648 1.529 55.766 11.412-20.971-53.677 2.412-40.177z"/></g></svg>