<svg xmlns="http://www.w3.org/2000/svg" width="918" height="612"><g fill="none" stroke="#000"><circle cx="36" cy="63" r="18"/><path d="M131.271 48.729c-7.029-7.03-7.029-18.427 0-25.457 7.029-7.029 18.427-7.029 25.456.001 7.03 7.029 7.029 18.426 0 25.455l-25.456 25.456c-7.029 7.029-7.029 18.427 0 25.456 7.03 7.029 18.427 7.03 25.457 0 7.029-7.029 7.029-18.427-.001-25.456l-25.456-25.455zM264.728 99.64c7.029-7.029 7.03-18.427 0-25.456-7.029-7.029-18.427-7.029-25.456 0s-7.029 18.427 0 25.456"/><path d="M264.728 99.64c-14.059 14.059-36.853 14.06-50.911 0-14.06-14.059-14.06-36.853 0-50.912L226.544 36c14.059-14.059 36.853-14.059 50.911 0l12.729 12.729c14.059 14.059 14.059 36.853 0 50.911s-36.853 14.059-50.912 0m108-76.369c-7.03 7.029-7.03 18.427 0 25.456 7.029 7.03 18.426 7.029 25.456 0 7.029-7.029 7.029-18.426 0-25.456"/><path d="M347.272 23.271c14.059-14.059 36.853-14.059 50.911 0 14.06 14.06 14.059 36.854 0 50.912l-12.728 12.728c-14.06 14.06-36.853 14.06-50.912 0l-12.728-12.728c-14.059-14.059-14.059-36.853 0-50.912 14.059-14.059 36.853-14.059 50.912 0M36 234c-9.941 0-18 8.059-18 18s8.059 18 18 18 18-8.059 18-18v-63c0-9.941 8.059-18 18-18s18 8.059 18 18v63c0 9.941 8.059 18 18 18s18-8.059 18-18-8.059-18-18-18H36zm200.412 26.354c4.971 8.609 15.979 11.559 24.588 6.589s11.559-15.979 6.588-24.589-15.979-11.559-24.588-6.588l-54.56 31.5c-8.609 4.971-19.618 2.021-24.589-6.588s-2.021-19.619 6.589-24.59l54.56-31.5c8.609-4.97 11.559-15.979 6.588-24.588s-15.979-11.559-24.588-6.588-11.559 15.979-6.588 24.588l36 62.354zm139.18-62.034c4.971-8.609 2.021-19.618-6.588-24.589-8.609-4.97-19.619-2.021-24.59 6.589s-2.02 19.618 6.59 24.588l54.559 31.5c8.609 4.971 11.559 15.979 6.588 24.589s-15.979 11.56-24.588 6.589l-54.559-31.5c-8.609-4.971-19.619-2.021-24.59 6.588s-2.02 19.618 6.59 24.589c8.608 4.97 19.617 2.021 24.588-6.589l36-62.354zM589.5 396c0 17.396-14.104 31.5-31.5 31.5h-54c-17.396 0-31.5-14.104-31.5-31.5v-54c0-17.396 14.104-31.5 31.5-31.5"/><path d="M589.5 396c0-7.456-6.044-13.5-13.5-13.5h-72c-7.456 0-13.5 6.044-13.5 13.5s6.044 13.5 13.5 13.5h36c7.456 0 13.5-6.044 13.5-13.5v-54c0-12.426-10.073-22.5-22.5-22.5h-27c-12.427 0-22.5 10.074-22.5 22.5v54c0 12.426 10.073 22.5 22.5 22.5h36c12.427 0 22.5-10.074 22.5-22.5v-54c0-17.396-14.104-31.5-31.5-31.5h-27m173.245 11.449c15.065-8.698 34.331-3.536 43.03 11.529l27 46.766c8.697 15.066 3.535 34.332-11.53 43.03l-46.765 27c-15.066 8.698-34.332 3.536-43.03-11.53"/><path d="M677.245 321.949c-6.457 3.729-8.669 11.984-4.941 18.441l36 62.354c3.728 6.457 11.984 8.67 18.441 4.941 6.458-3.728 8.669-11.984 4.941-18.441l-18-31.176c-3.728-6.457-11.983-8.67-18.441-4.941l-15.589 9-31.177 18c-10.761 6.213-14.448 19.973-8.235 30.734l13.5 23.383c6.213 10.762 19.975 14.449 30.736 8.236l46.765-27c10.761-6.213 14.448-19.975 8.235-30.736l-18-31.176c-6.213-10.763-19.975-14.449-30.735-8.236l-46.766 27c-15.065 8.699-20.228 27.963-11.529 43.029l13.5 23.383m139.3-31.699c-15.066-8.698-20.229-27.963-11.529-43.029l27-46.766c8.697-15.066 27.963-20.229 43.029-11.529l46.766 27c15.066 8.698 20.229 27.963 11.529 43.029"/><path d="M785.25 407.045c6.457 3.729 14.713 1.516 18.441-4.941l36-62.354c3.729-6.457 1.516-14.713-4.941-18.441s-14.713-1.516-18.441 4.941l-18 31.177c-3.729 6.457-1.516 14.714 4.941 18.441l15.588 9 31.178 18c10.762 6.213 24.521 2.526 30.735-8.235l13.5-23.383c6.214-10.762 2.526-24.522-8.235-30.735l-46.766-27c-10.762-6.214-24.521-2.526-30.736 8.235l-18 31.177c-6.213 10.762-2.525 24.522 8.236 30.735l46.766 27c15.066 8.699 34.331 3.537 43.029-11.529l13.5-23.383m-123.55 172.609c0 17.396 14.103 31.5 31.5 31.5h54c17.397 0 31.5-14.104 31.5-31.5v-54c0-17.396-14.103-31.5-31.5-31.5"/><path d="M778.495 548.359c0-7.456 6.044-13.5 13.5-13.5h72c7.456 0 13.5 6.044 13.5 13.5s-6.044 13.5-13.5 13.5h-36c-7.456 0-13.5-6.044-13.5-13.5v-54c0-12.426 10.073-22.5 22.5-22.5h27c12.427 0 22.5 10.074 22.5 22.5v54c0 12.426-10.073 22.5-22.5 22.5h-36c-12.427 0-22.5-10.074-22.5-22.5v-54c0-17.396 14.103-31.5 31.5-31.5h27m-173.245 11.45c-15.066-8.698-34.332-3.536-43.029 11.529l-27 46.766c-8.699 15.066-3.537 34.332 11.529 43.03l46.766 27c15.066 8.698 34.331 3.536 43.029-11.53"/><path d="M690.75 474.309c6.457 3.729 8.67 11.984 4.941 18.441l-36 62.354c-3.729 6.457-11.984 8.67-18.441 4.941-6.457-3.728-8.67-11.984-4.941-18.441l18-31.176c3.729-6.457 11.984-8.67 18.441-4.941l15.588 9 31.178 18c10.762 6.213 14.449 19.973 8.235 30.734l-13.5 23.383c-6.214 10.762-19.974 14.449-30.735 8.236l-46.766-27c-10.762-6.213-14.449-19.975-8.236-30.736l18-31.176c6.215-10.763 19.975-14.449 30.736-8.236l46.766 27c15.066 8.699 20.229 27.963 11.529 43.029l-13.5 23.383m-139.3-31.7c15.065-8.698 20.228-27.963 11.53-43.029l-27-46.766c-8.699-15.066-27.965-20.229-43.03-11.529l-46.765 27c-15.066 8.698-20.229 27.963-11.531 43.029"/><path d="M582.745 559.404c-6.457 3.729-14.714 1.516-18.441-4.941l-36-62.354c-3.728-6.457-1.516-14.713 4.941-18.441 6.458-3.729 14.714-1.516 18.441 4.941l18 31.177c3.728 6.457 1.517 14.714-4.941 18.441l-15.589 9-31.176 18c-10.762 6.213-24.523 2.526-30.736-8.235l-13.5-23.383c-6.213-10.762-2.525-24.522 8.236-30.735l46.765-27c10.761-6.214 24.522-2.526 30.735 8.235l18 31.177c6.213 10.762 2.525 24.522-8.235 30.735l-46.765 27c-15.066 8.699-34.332 3.537-43.031-11.529l-13.5-23.383M576 117c9.941 0 18-8.059 18-18s-8.059-18-18-18c-31.5 0-49.5 36-72 36-40.5 0-27.16-99 36-99 36 0 67.473 45.248 63 85.5-4.5 40.5-76.5 31.5-99 31.5s-39.84-34.354-4.5-49.5C531 72 535.5 117 576 117zm123.42-90.189c-4.97-8.608-15.979-11.559-24.588-6.588s-11.559 15.979-6.589 24.588c15.75 27.28 55.927 24.869 67.177 44.354 20.25 35.074-72.156 73.021-103.736 18.323-18-31.178 5.449-81.058 42.545-97.31 37.324-16.354 65.53 50.501 76.78 69.986s-9.832 51.679-40.618 28.646c-27.442-20.528 9.279-46.925-10.971-81.999zm76.986 62.811c-4.971 8.609-2.021 19.618 6.589 24.589 8.608 4.97 19.618 2.021 24.588-6.589 15.75-27.279-6.427-60.868 4.823-80.354 20.25-35.074 99.316 25.979 67.736 80.677-18 31.177-72.922 35.81-105.545 11.81-32.824-24.146 10.971-82.001 22.221-101.486S846.489.944 841.935 39.122c-4.058 34.029-45.279 15.427-65.529 50.5zM793 261.396c-9.941 0-18-8.059-18-18 0-9.94 8.059-18 18-18 31.5 0 49.5 36 72 36 40.5 0 27.16-99-36-99-36 0-67.473 45.248-63 85.5 4.5 40.5 76.5 31.5 99 31.5s39.84-34.354 4.5-49.5c-31.5-13.5-36 31.5-76.5 31.5zm-123.42-90.189c4.97-8.608 15.979-11.559 24.588-6.588s11.559 15.979 6.589 24.588c-15.75 27.28-55.927 24.869-67.177 44.354-20.25 35.074 72.156 73.021 103.736 18.323 18-31.178-5.449-81.057-42.545-97.31-37.324-16.354-65.53 50.501-76.78 69.986s9.832 51.679 40.618 28.646c27.442-20.527-9.279-46.925 10.971-81.999zm-76.986 62.813c4.971 8.608 2.021 19.617-6.589 24.588-8.608 4.97-19.618 2.021-24.588-6.589-15.75-27.279 6.427-60.868-4.823-80.354-20.25-35.073-99.316 25.979-67.736 80.677 18 31.177 72.922 35.81 105.545 11.81 32.824-24.146-10.971-82.001-22.221-101.486s-49.671-17.324-45.117 20.854c4.058 34.028 45.279 15.425 65.529 50.5zM20.688 381.453C53.688 342.5 89.312 418 112.5 414c52.251-9.014-36.281-180.668-57.312-81-7.145 33.857 35.985 36.463 34 .318-2.103-38.253-64.146-26.546-44 35.682 27.36 84.511-47.626 39.75-24.5 12.453zm226.37 35.433c-50.234-9.103-2.661-77.704-17.72-95.785-33.931-40.744-138.322 121.755-41.491 90.134 32.894-10.742 13.584-49.396-16.725-29.604-32.077 20.945 9.083 68.824 52.901 20.264 59.508-65.95 58.238 21.37 23.035 14.991zm133.2-89.308c17.234 48.055-65.963 41.156-74.092 63.238-18.32 49.757 174.604 58.914 98.803-9.135-25.75-23.115-49.57 12.934-17.275 29.287 34.18 17.306 55.062-42.279-8.9-55.947-86.87-18.56-10.613-61.119 1.464-27.443z"/><path d="M411.312 534.453C378.312 495.5 342.688 571 319.5 567c-52.251-9.014 36.281-180.668 57.312-81 7.145 33.857-35.985 36.463-34 .318 2.103-38.253 64.146-26.546 44 35.682-27.36 84.511 47.626 39.75 24.5 12.453zm-226.37 35.433c50.234-9.103 2.661-77.704 17.72-95.785 33.931-40.744 138.322 121.755 41.491 90.134-32.894-10.742-13.584-49.396 16.725-29.604 32.077 20.945-9.083 68.824-52.901 20.264-59.508-65.95-58.238 21.37-23.035 14.991zm-133.2-89.308c-17.234 48.055 65.963 41.156 74.092 63.238 18.32 49.757-174.604 58.914-98.803-9.135 25.75-23.115 49.57 12.934 17.275 29.287-34.18 17.306-55.062-42.279 8.9-55.947 86.87-18.56 10.613-61.119-1.464-27.443z"/></g><g fill="#FEC200" stroke="#000"><circle cx="36" cy="63" r="4.5"/><circle cx="144" cy="36" r="4.5"/><circle cx="144" cy="86.912" r="4.5"/><circle cx="36" cy="252" r="4.5"/><circle cx="108" cy="252" r="4.5"/><circle cx="72" cy="189" r="4.5"/><circle cx="504" cy="99" r="4.5"/><circle cx="576" cy="99" r="4.5"/><circle cx="540" cy="36" r="4.5"/><circle cx="36" cy="396" r="4.5"/><circle cx="108" cy="396" r="4.5"/><circle cx="72" cy="333" r="4.5"/><circle cx="504" cy="396" r="4.5"/><circle cx="576" cy="396" r="4.5"/><circle cx="540" cy="333" r="4.5"/><circle cx="252" cy="36" r="4.5"/><circle cx="252" cy="86.912" r="4.5"/><circle cx="360" cy="86.912" r="4.5"/><circle cx="360" cy="36" r="4.5"/><circle cx="252" cy="251.354" r="4.5"/><circle cx="216" cy="189" r="4.499"/><circle cx="179.44" cy="251.677" r="4.5"/><circle cx="360.004" cy="189.32" r="4.5"/><circle cx="324.004" cy="251.674" r="4.5"/><circle cx="396.562" cy="251.997" r="4.5"/><circle cx="719.995" cy="395.995" r="4.5"/><circle cx="683.995" cy="333.641" r="4.499"/><circle cx="647.436" cy="396.317" r="4.5"/><circle cx="828" cy="333" r="4.5"/><circle cx="792" cy="395.354" r="4.5"/><circle cx="864.56" cy="395.677" r="4.5"/><circle cx="863.995" cy="548.359" r="4.5"/><circle cx="791.995" cy="548.359" r="4.5"/><circle cx="827.995" cy="485.359" r="4.5"/><circle cx="648" cy="548.354" r="4.5"/><circle cx="684" cy="486" r="4.499"/><circle cx="720.56" cy="548.677" r="4.5"/><circle cx="539.995" cy="485.359" r="4.5"/><circle cx="575.995" cy="547.713" r="4.5"/><circle cx="503.436" cy="548.036" r="4.5"/><circle cx="719.832" cy="98.165" r="4.5"/><circle cx="683.832" cy="35.811" r="4.5"/><circle cx="647.272" cy="98.488" r="4.5"/><circle cx="827.995" cy="36.269" r="4.5"/><circle cx="791.995" cy="98.623" r="4.5"/><circle cx="864.555" cy="98.946" r="4.5"/><circle cx="865" cy="243.396" r="4.5"/><circle cx="793" cy="243.396" r="4.5"/><circle cx="829" cy="180.396" r="4.5"/><circle cx="649.168" cy="242.561" r="4.5"/><circle cx="685.168" cy="180.208" r="4.5"/><circle cx="721.728" cy="242.884" r="4.5"/><circle cx="541.005" cy="180.666" r="4.5"/><circle cx="577.005" cy="243.019" r="4.5"/><circle cx="504.445" cy="243.342" r="4.5"/><circle cx="252" cy="396.352" r="4.5"/><circle cx="216" cy="333.998" r="4.5"/><circle cx="179.44" cy="396.675" r="4.5"/><circle cx="360.004" cy="333.565" r="4.5"/><circle cx="324.004" cy="395.919" r="4.5"/><circle cx="396.562" cy="396.242" r="4.499"/><circle cx="396" cy="549" r="4.5"/><circle cx="324" cy="549" r="4.5"/><circle cx="360" cy="486" r="4.5"/><circle cx="180" cy="549.352" r="4.5"/><circle cx="216" cy="486.998" r="4.5"/><circle cx="252.56" cy="549.675" r="4.5"/><circle cx="71.996" cy="486.565" r="4.5"/><circle cx="107.996" cy="548.919" r="4.5"/><circle cx="35.438" cy="549.242" r="4.499"/></g></svg>