<svg xmlns="http://www.w3.org/2000/svg" width="768.375" height="687"><g fill="none" stroke="#0081CD"><path d="M98.302 339.429h288l-144-249.414z"/><path d="M136.435 301.193h288l-144-249.414z"/><path d="M151.971 345.402h288l-144-249.413z"/><path d="M127.095 385.114h288l-144-249.413z"/><path d="M82 390.424h288L226 141.01z"/><path d="M47.354 357.33h288l-144-249.413z"/><path d="M52.542 310.757h287.999l-144-249.413z"/><path d="M92.189 285.775h287.999l-144-249.414zm294.112 53.655h288l-144-249.415z"/><path d="M424.434 301.193h288l-144-249.414z"/><path d="M439.97 345.402h288l-144-249.413z"/><path d="M415.095 385.115h287.999l-144-249.414z"/><path d="M369.999 390.424h288l-144-249.414z"/><path d="M335.354 357.33h288l-144-249.413z"/><path d="M340.54 310.757h288l-144-249.413z"/><path d="M380.188 285.775h288l-144-249.414zM242.3 591.07h288l-144-249.414z"/><path d="M280.433 552.834h288l-144-249.414z"/><path d="M295.969 597.043h288l-144-249.413z"/><path d="M271.094 636.756h287.999l-144-249.414z"/><path d="M225.998 642.064h288l-144-249.413z"/><path d="M191.353 608.971h288l-144-249.413z"/><path d="M196.539 562.398h288l-144-249.413z"/><path d="M236.188 537.416h287.999l-144-249.414zm5.841-446.071h288M280.162 53.108h288M295.698 97.317h288M270.823 137.03h287.999m-333.094 5.309h288m-322.646-33.094h288M196.269 62.673h288M235.917 37.69h287.999M242.3 591.07l-144-249.415m182.133 211.179l-144-249.414m159.536 293.623l-144-249.413m119.124 289.126l-144-249.415m98.905 254.723l-144-249.413m109.355 216.32l-144-249.413m149.186 202.84l-144-249.414m183.648 224.432l-144-249.414m582.114 51.428l-144 249.413m182.133-287.65l-144 249.414M727.97 345.402l-144 249.414m119.124-209.701L559.095 634.528m98.904-244.104l-144 249.414M623.354 357.33l-144 249.414M628.54 310.758l-144 249.414m183.648-274.397l-144 249.414"/></g><path d="M98.302 339.428l-6.113-53.653m6.113 53.653l-45.76-28.671m45.76 28.671L47.354 357.33m50.948-17.902l-17.767 50.996m17.767-50.996l28.792 45.686m-28.792-45.686l53.669 5.974m-53.669-5.974l38.133-38.235m249.867 38.235l-6.113-53.653m6.113 53.653l-45.76-28.671m45.76 28.671l-50.948 17.902m50.948-17.902l-17.767 50.996m17.767-50.996l28.792 45.686m-28.792-45.686l53.669 5.974m-53.669-5.974l38.133-38.235M242.302 90.015l-6.113-53.653m6.113 53.653l-45.76-28.671m45.76 28.671l-50.948 17.902m50.948-17.902l-17.767 50.995m17.767-50.995l28.792 45.686m-28.792-45.686l53.669 5.975m-53.669-5.975l38.133-38.235M530.3 90.015l-6.112-53.653m6.112 53.653l-45.76-28.671m45.76 28.671l-50.947 17.902M530.3 90.015l-17.767 50.995M530.3 90.015l28.792 45.686M530.3 90.015l53.669 5.974M530.3 90.015l38.133-38.236M674.3 339.428l-6.112-53.653m6.112 53.653l-45.76-28.671m45.76 28.671l-50.947 17.902m50.947-17.902l-17.767 50.996m17.767-50.996l28.792 45.686M674.3 339.428l53.669 5.974m-53.669-5.974l38.133-38.235M530.3 591.068l-6.112-53.652m6.112 53.652l-45.76-28.671m45.76 28.671l-50.947 17.903m50.947-17.903l-17.767 50.996m17.767-50.996l28.792 45.687M530.3 591.068l53.669 5.975m-53.669-5.975l38.133-38.234m-326.131 36.009l-6.113-53.653m6.113 53.653l-45.76-28.671m45.76 28.671l-50.948 17.902m50.948-17.902l-17.767 50.996m17.767-50.996l28.792 45.686m-28.792-45.686l53.669 5.974m-53.669-5.974l38.133-38.235" fill="none" stroke="#000" stroke-width="1.5"/><g fill="#FEC200" stroke="#000"><circle cx="98.302" cy="339.428" r="7.2"/><circle cx="92.189" cy="285.775" r="7.2"/><circle cx="52.542" cy="310.758" r="7.2"/><circle cx="47.356" cy="357.331" r="7.199"/><circle cx="80.535" cy="390.423" r="7.199"/><circle cx="127.095" cy="385.113" r="7.199"/><circle cx="151.971" cy="345.4" r="7.199"/><path d="M141.531 306.274a7.201 7.201 0 1 1-10.194-10.168 7.201 7.201 0 0 1 10.194 10.168z"/><circle cx="386.302" cy="339.428" r="7.2"/><circle cx="380.189" cy="285.775" r="7.2"/><circle cx="340.542" cy="310.758" r="7.2"/><circle cx="335.356" cy="357.331" r="7.199"/><circle cx="368.535" cy="390.423" r="7.199"/><circle cx="415.094" cy="385.113" r="7.199"/><circle cx="439.971" cy="345.4" r="7.199"/><path d="M429.531 306.274a7.202 7.202 0 0 1-10.182.015 7.2 7.2 0 1 1 10.168-10.196 7.197 7.197 0 0 1 .014 10.181z"/><circle cx="242.302" cy="90.015" r="7.2"/><circle cx="236.189" cy="36.362" r="7.2"/><circle cx="196.542" cy="61.344" r="7.2"/><circle cx="191.356" cy="107.918" r="7.2"/><circle cx="224.535" cy="141.01" r="7.199"/><circle cx="271.094" cy="135.7" r="7.199"/><circle cx="295.971" cy="95.987" r="7.2"/><path d="M285.531 56.861a7.202 7.202 0 0 1-10.182.015 7.2 7.2 0 1 1 10.168-10.196 7.197 7.197 0 0 1 .014 10.181z"/><circle cx="530.3" cy="90.015" r="7.2"/><circle cx="524.187" cy="36.362" r="7.2"/><circle cx="484.54" cy="61.344" r="7.2"/><circle cx="479.354" cy="107.917" r="7.2"/><circle cx="512.533" cy="141.009" r="7.199"/><circle cx="559.092" cy="135.7" r="7.199"/><circle cx="583.969" cy="95.987" r="7.2"/><path d="M573.528 56.861a7.202 7.202 0 0 1-10.182.015 7.2 7.2 0 1 1 10.169-10.196 7.196 7.196 0 0 1 .013 10.181z"/><circle cx="674.3" cy="339.428" r="7.2"/><circle cx="668.187" cy="285.775" r="7.2"/><circle cx="628.54" cy="310.758" r="7.2"/><circle cx="623.354" cy="357.331" r="7.199"/><circle cx="656.533" cy="390.423" r="7.199"/><circle cx="703.092" cy="385.113" r="7.199"/><circle cx="727.969" cy="345.4" r="7.199"/><path d="M717.528 306.274a7.202 7.202 0 0 1-10.182.015 7.2 7.2 0 1 1 10.169-10.196 7.196 7.196 0 0 1 .013 10.181z"/><circle cx="530.3" cy="591.069" r="7.2"/><circle cx="524.187" cy="537.416" r="7.2"/><circle cx="484.54" cy="562.398" r="7.199"/><circle cx="479.354" cy="608.972" r="7.199"/><circle cx="512.533" cy="642.063" r="7.199"/><circle cx="559.092" cy="636.754" r="7.199"/><circle cx="583.969" cy="597.041" r="7.199"/><path d="M573.528 557.914a7.202 7.202 0 0 1-10.182.017 7.2 7.2 0 1 1 10.169-10.197 7.195 7.195 0 0 1 .013 10.18z"/><circle cx="242.302" cy="588.843" r="7.2"/><circle cx="236.189" cy="535.19" r="7.2"/><circle cx="196.542" cy="560.173" r="7.199"/><circle cx="191.356" cy="606.746" r="7.2"/><circle cx="224.535" cy="639.838" r="7.199"/><circle cx="271.094" cy="634.528" r="7.199"/><circle cx="295.971" cy="594.815" r="7.199"/><path d="M285.531 555.688a7.203 7.203 0 0 1-10.183.017 7.2 7.2 0 1 1 10.169-10.197 7.196 7.196 0 0 1 .014 10.18z"/></g></svg>