<svg xmlns="http://www.w3.org/2000/svg" width="630" height="477"><g fill="none" stroke="#000"><path d="M342 306c0 14.912-12.088 27-27 27s-27-12.088-27-27"/><path d="M342 306c0 29.823-24.177 54-54 54s-54-24.177-54-54"/><path d="M342 306c0 44.735-36.265 81-81 81s-81-36.265-81-81"/><path d="M342 306c0 59.646-48.353 108-108 108s-108-48.354-108-108"/><path d="M342 306c0 89.47-72.53 162-162 162S18 395.47 18 306"/><path d="M342 306c0 74.559-60.441 135-135 135S72 380.559 72 306m54 0c0-14.912 12.088-27 27-27s27 12.088 27 27"/><path d="M72 306c0-29.823 24.177-54 54-54s54 24.177 54 54"/><path d="M18 306c0-44.735 36.265-81 81-81s81 36.265 81 81m378 0c0-14.912 12.088-27 27-27s27 12.088 27 27"/><path d="M504 306c0-29.823 24.177-54 54-54s54 24.177 54 54"/><path d="M450 306c0-44.735 36.265-81 81-81s81 36.265 81 81"/><path d="M396 306c0-59.647 48.354-108 108-108s108 48.353 108 108"/><path d="M342 306c0-74.559 60.441-135 135-135s135 60.441 135 135"/><path d="M288 306c0-89.47 72.53-162 162-162s162 72.53 162 162"/><path d="M234 306c0-104.382 84.618-189 189-189s189 84.618 189 189"/><path d="M180 306c0-119.293 96.707-216 216-216 119.294 0 216 96.707 216 216"/><path d="M126 306c0-134.205 108.795-243 243-243s243 108.795 243 243"/><path d="M72 306C72 156.883 192.883 36 342 36c149.117 0 270 120.883 270 270"/><path d="M18 306C18 141.971 150.971 9 315 9c164.028 0 297 132.971 297 297"/></g><g fill="#FEC200" stroke="#000"><circle cx="18" cy="306" r="9"/><circle cx="72" cy="306" r="9"/><circle cx="126" cy="306" r="9"/><circle cx="234" cy="306" r="9"/><circle cx="288" cy="306" r="9"/><circle cx="396" cy="306" r="9"/><circle cx="450" cy="306" r="9"/><circle cx="504" cy="306" r="9"/><circle cx="558" cy="306" r="9"/></g><g fill="#0081CD" stroke="#000"><circle cx="180" cy="306" r="9"/><circle cx="342" cy="306" r="9"/><circle cx="612" cy="306" r="9"/></g></svg>