<svg xmlns="http://www.w3.org/2000/svg" width="464" height="493.5" viewBox="28.5 0 464 493.5"><g fill="#D8F0FF" fill-opacity=".8" stroke="#000" stroke-linejoin="round"><path d="M82.393 338.623l196.689-77.731-22.107-43.044zm0 0l212.321-32.384-15.632-45.347zm0 0l174.582-120.775-27.536-38.661zm0 0l220.646 13.107-8.325-45.491z"/><path d="M279.082 260.892l166.094-107.357-188.201 64.313z"/><path d="M294.714 306.239l171.075-105.287-186.707 59.94zM82.393 338.623l147.046-159.436-31.723-32.313zm174.582-120.775L419.13 109.232l-189.691 69.955zM82.393 338.623l221.045 56.479-.399-43.372z"/><path d="M303.039 351.73l176.938-102.456-185.263 56.965zM82.393 338.623l115.323-191.749-34.432-24.125z"/><path d="M229.439 179.187L388.83 70.176l-191.114 76.698zM82.393 338.623l213.181 95.37 7.864-38.891zm221.045 56.479l183.481-98.903-183.88 55.531zM82.393 338.623l80.891-215.874-35.43-14.27zm383.396-137.671l-186.707 59.94 166.094-107.357zm-20.613-47.417l-188.201 64.313L419.13 109.232z"/><path d="M197.716 146.874L355.627 38.412l-192.343 84.337zm282.261 102.4l-185.263 56.965 171.075-105.287zM82.393 338.623L279.446 466.02l16.128-32.027zM419.13 109.232l-189.691 69.955L388.83 70.176zM82.393 338.623l45.461-230.144-34.479-3.067zm213.181 95.37l190.434-94.674-182.57 55.783zm191.345-137.794l-183.88 55.531 176.938-102.456z"/><path d="M388.83 70.176l-191.114 76.698L355.627 38.412zm-225.546 52.573l157.814-106.88-193.244 92.61zM82.393 338.623L255.5 488.88l23.946-22.86zM255.5 488.88L56.972 353.559l25.421-14.936zM62 114.464l20.393 224.159 10.982-233.206z"/><path d="M56.972 353.559L62 114.464l20.393 224.159zm429.036-14.24l-182.57 55.783 183.481-98.903zM279.446 466.02l197.443-89.857-181.315 57.83zm76.181-427.608l-192.343 84.337 157.814-106.88z"/><path d="M255.5 488.88L42.687 370.506l14.285-16.947zM127.854 108.479L287.055 4.277 93.375 105.412zm349.035 267.684l-181.315 57.83 190.434-94.674zM41.028 125.094l15.944 228.465L62 114.464z"/><path d="M42.687 370.506l-1.659-245.412 15.944 228.465zM321.098 15.869l-193.244 92.61L287.055 4.277zM255.5 488.88l204.083-84.629-180.137 61.769zm0 0L41.305 388.574l1.382-18.068zm0-483.86L62 114.464l31.375-9.047z"/><path d="M459.583 404.251L279.446 466.02l197.443-89.857zm-3.395-245.12l9.601 41.821-20.613-47.417z"/><path d="M456.188 159.131l-11.012-5.596-26.046-44.303zm0 0l23.789 90.143-14.188-48.322z"/><path d="M456.188 159.131l-37.058-49.899-30.3-39.056zM255.5 488.88L53.961 406.643l-12.656-18.069zM287.055 4.277L93.375 105.412 255.5 5.02zm169.133 154.854l30.731 137.068-6.942-46.925zM32.514 136.808l10.173 233.698-1.659-245.412z"/><path d="M41.305 388.574l-8.791-251.766 10.173 233.698zM255.5 5.02L41.028 125.094 62 114.464zm200.688 154.111L388.83 70.176l-33.203-31.764zm0 0l29.82 180.188.911-43.12z"/><path d="M456.188 159.131L355.627 38.412l-34.529-22.543zm-21.616 262.144L255.5 488.88l204.083-84.629zM255.5 488.88L80.862 423.405l-26.901-16.762zm0-483.86L32.514 136.808l8.514-11.714zm200.688 154.111l20.701 217.032 9.119-36.844z"/><path d="M456.188 159.131L321.098 15.869 287.055 4.277zm-418.14-10.199l3.257 239.642-8.791-251.766z"/><path d="M53.961 406.643L38.048 148.932l3.257 239.642zM255.5 488.88l179.072-67.605-38.43 14.521zm0 0l-134.543-51.39-40.095-14.085zm200.688-329.749l3.395 245.12 17.306-28.088zM255.5 5.02L38.048 148.932l-5.534-12.124z"/><path d="M255.5 488.88l140.642-53.084-49.573 10.716zm200.688-329.749L287.055 4.277 255.5 5.02zM255.5 488.88l-83.717-41.277-50.826-10.113z"/><path d="M255.5 488.88l91.069-42.368-57.083 5.847zm0 0l-25.963-36.148-57.754-5.129zm200.688-329.749l-21.616 262.144 25.011-17.024z"/><path d="M255.5 488.88l33.986-36.521-59.949.373zM80.862 423.405L58.426 160.657l-4.465 245.986z"/><path d="M58.426 160.657l-4.465 245.986-15.913-257.711z"/><path d="M255.5 5.02L58.426 160.657l-20.378-11.725zm0 0l200.688 154.111-32.982 10.645z"/><path d="M255.5 5.02L93.293 171.071l-34.867-10.414zm179.072 416.255l-11.366-251.499-27.064 266.02z"/><path d="M456.188 159.131l-21.616 262.144-11.366-251.499zM120.957 437.49L93.293 171.071 80.862 423.405z"/><path d="M93.293 171.071L80.862 423.405 58.426 160.657zM255.5 5.02l167.706 164.756-46.018 8.54zm0 0L140.863 179.263l-47.57-8.192z"/><path d="M396.142 435.796l-18.954-257.48-30.619 268.196zm-224.359 11.807l-30.92-268.34-19.906 258.227z"/><path d="M255.5 5.02l121.688 173.296-55.962 5.617zm0 0l-57.651 179.415-56.986-5.172zm167.706 164.756l-27.064 266.02-18.954-257.48zm-282.343 9.487L120.957 437.49 93.293 171.071zM255.5 5.02l65.726 178.913-61.507 2.114z"/><path d="M255.5 5.02l4.219 181.027-61.87-1.612zm91.069 441.492l-25.343-262.579-31.74 268.426z"/><path d="M229.537 452.732l-31.688-268.297-26.066 263.168zm59.949-.373l-29.767-266.312-30.182 266.685zm87.702-274.043l-30.619 268.196-25.343-262.579zm-179.339 6.119l-26.066 263.168-30.92-268.34z"/><path d="M321.226 183.933l-31.74 268.426-29.767-266.312zm-61.507 2.114l-30.182 266.685-31.688-268.297z"/></g></svg>