<?xml version="1.0" encoding="utf-8"?>
<!-- Generator: Adobe Illustrator 15.1.0, SVG Export Plug-In . SVG Version: 6.00 Build 0)  -->
<!DOCTYPE svg PUBLIC "-//W3C//DTD SVG 1.1//EN" "http://www.w3.org/Graphics/SVG/1.1/DTD/svg11.dtd">
<svg version="1.1" id="Layer_1" xmlns="http://www.w3.org/2000/svg" xmlns:xlink="http://www.w3.org/1999/xlink" x="0px" y="0px"
	 width="350px" height="333.334px" viewBox="0 0 350 333.334" enable-background="new 0 0 350 333.334" xml:space="preserve">
<polyline fill="none" stroke="#5000C8" stroke-width="1.7008" stroke-miterlimit="10" points="145.552,172.726 145.552,172.726 
	288.423,279.379 "/>
<polyline fill="none" stroke="#669900" stroke-width="1.7008" stroke-miterlimit="10" points="118.257,320.357 118.257,320.357 
	175.14,12.682 "/>
<polyline fill="none" stroke="#C81414" stroke-width="1.7008" stroke-miterlimit="10" points="175.14,12.682 175.14,12.682 
	13.386,130.203 "/>
<polyline fill="none" stroke="#5000C8" stroke-width="1.7008" stroke-miterlimit="10" points="156.448,207.799 156.448,207.799 
	302.034,104.879 "/>
<polyline fill="none" stroke="#669900" stroke-width="1.7008" stroke-miterlimit="10" points="288.423,279.379 288.423,279.379 
	13.386,130.203 "/>
<polyline fill="none" stroke="#C81414" stroke-width="1.7008" stroke-miterlimit="10" points="13.386,130.203 13.386,130.203 
	75.169,320.357 "/>
<polyline fill="none" stroke="#5000C8" stroke-width="1.7008" stroke-miterlimit="10" points="193.175,208.272 193.175,208.272 
	140.282,38.008 "/>
<polyline fill="none" stroke="#669900" stroke-width="1.7008" stroke-miterlimit="10" points="302.034,104.879 302.034,104.879 
	75.169,320.357 "/>
<polyline fill="none" stroke="#C81414" stroke-width="1.7008" stroke-miterlimit="10" points="75.169,320.357 75.169,320.357 
	275.109,320.357 "/>
<polyline fill="none" stroke="#5000C8" stroke-width="1.7008" stroke-miterlimit="10" points="204.979,173.492 204.979,173.492 
	26.7,171.185 "/>
<polyline fill="none" stroke="#669900" stroke-width="1.7008" stroke-miterlimit="10" points="140.282,38.008 140.282,38.008 
	275.109,320.357 "/>
<polyline fill="none" stroke="#C81414" stroke-width="1.7008" stroke-miterlimit="10" points="275.109,320.357 275.109,320.357 
	336.893,130.203 "/>
<polyline fill="none" stroke="#5000C8" stroke-width="1.7008" stroke-miterlimit="10" points="175.544,151.52 175.544,151.52 
	118.257,320.357 "/>
<polyline fill="none" stroke="#669900" stroke-width="1.7008" stroke-miterlimit="10" points="26.7,171.185 26.7,171.185 
	336.893,130.203 "/>
<polyline fill="none" stroke="#C81414" stroke-width="1.7008" stroke-miterlimit="10" points="336.893,130.203 336.893,130.203 
	175.14,12.682 "/>
<path fill="#788CDC" stroke="#000000" stroke-width="0.5625" d="M145.552,167.938L145.552,167.938h-0.008
	c-1.268,0.004-2.484,0.51-3.38,1.405c-0.895,0.897-1.397,2.114-1.396,3.384c0.001,1.269,0.506,2.482,1.402,3.379
	c0.896,0.896,2.112,1.399,3.382,1.399c1.268,0,2.484-0.505,3.38-1.399c0.897-0.896,1.402-2.11,1.402-3.379
	c0.002-1.27-0.501-2.484-1.396-3.384c-0.895-0.896-2.111-1.401-3.378-1.405H145.552z"/>
<path fill="#788CDC" stroke="#000000" stroke-width="0.5625" d="M118.257,315.576L118.257,315.576h-0.009
	c-1.267,0.002-2.483,0.507-3.379,1.402c-0.894,0.898-1.397,2.115-1.397,3.386c0.002,1.266,0.507,2.481,1.403,3.379
	c0.897,0.896,2.113,1.398,3.382,1.398c1.266,0,2.483-0.503,3.382-1.398c0.896-0.896,1.4-2.112,1.402-3.379
	c0-1.27-0.501-2.485-1.397-3.386c-0.894-0.896-2.109-1.4-3.379-1.402H118.257z"/>
<path fill="#788CDC" stroke="#000000" stroke-width="0.5625" d="M175.14,7.9L175.14,7.9h-0.009
	c-1.267,0.003-2.483,0.508-3.379,1.404c-0.896,0.9-1.397,2.116-1.397,3.382c0.002,1.269,0.507,2.484,1.403,3.381
	c0.897,0.896,2.114,1.4,3.382,1.4c1.267,0,2.483-0.503,3.381-1.4c0.896-0.896,1.4-2.113,1.401-3.381
	c0-1.266-0.501-2.482-1.397-3.382c-0.894-0.896-2.109-1.401-3.377-1.404H175.14z"/>
<path fill="#788CDC" stroke="#000000" stroke-width="0.5625" d="M156.448,203.019L156.448,203.019h-0.009
	c-1.267,0.002-2.483,0.508-3.379,1.402c-0.894,0.898-1.397,2.116-1.397,3.383c0.002,1.27,0.507,2.484,1.404,3.383
	c0.896,0.896,2.112,1.397,3.381,1.397c1.269,0,2.483-0.503,3.382-1.397c0.896-0.896,1.4-2.112,1.402-3.383
	c0-1.267-0.501-2.482-1.397-3.383c-0.894-0.896-2.109-1.4-3.379-1.402H156.448z"/>
<path fill="#788CDC" stroke="#000000" stroke-width="0.5625" d="M288.423,274.597L288.423,274.597h-0.007
	c-1.27,0.004-2.484,0.508-3.379,1.405c-0.896,0.897-1.4,2.114-1.396,3.384c0,1.266,0.504,2.481,1.4,3.379
	c0.896,0.896,2.111,1.399,3.382,1.399s2.485-0.505,3.382-1.399c0.896-0.896,1.4-2.111,1.4-3.379c0.004-1.27-0.5-2.484-1.395-3.384
	c-0.896-0.897-2.111-1.401-3.377-1.405H288.423z"/>
<path fill="#788CDC" stroke="#000000" stroke-width="0.5625" d="M13.385,125.421L13.385,125.421h-0.009
	c-1.269,0-2.483,0.507-3.378,1.404c-0.896,0.899-1.399,2.116-1.397,3.383s0.506,2.484,1.403,3.381s2.113,1.398,3.382,1.398
	c1.267,0,2.483-0.501,3.379-1.398c0.898-0.896,1.403-2.113,1.403-3.381c0.001-1.266-0.501-2.483-1.396-3.383
	c-0.894-0.896-2.111-1.403-3.378-1.404H13.385z"/>
<path fill="#788CDC" stroke="#000000" stroke-width="0.5625" d="M193.176,203.491L193.176,203.491h-0.01
	c-1.266,0-2.48,0.508-3.377,1.404c-0.895,0.897-1.398,2.114-1.396,3.381c0,1.269,0.506,2.484,1.401,3.383
	c0.896,0.896,2.112,1.398,3.381,1.398s2.483-0.504,3.382-1.398c0.896-0.896,1.399-2.113,1.402-3.383
	c0-1.266-0.501-2.482-1.396-3.381c-0.896-0.896-2.109-1.404-3.379-1.404H193.176z"/>
<path fill="#788CDC" stroke="#000000" stroke-width="0.5625" d="M302.035,100.095L302.035,100.095h-0.008
	c-1.269,0-2.483,0.509-3.377,1.405c-0.896,0.897-1.397,2.115-1.397,3.382c0,1.269,0.505,2.484,1.399,3.382
	c0.899,0.896,2.117,1.397,3.383,1.397c1.27,0,2.484-0.501,3.382-1.397c0.896-0.896,1.399-2.112,1.403-3.382
	c0-1.266-0.504-2.484-1.396-3.382c-0.896-0.896-2.111-1.404-3.379-1.405H302.035z"/>
<path fill="#788CDC" stroke="#000000" stroke-width="0.5625" d="M75.169,315.576L75.169,315.576h-0.007
	c-1.268,0.002-2.484,0.507-3.379,1.402c-0.896,0.898-1.397,2.115-1.397,3.386c0.001,1.266,0.505,2.481,1.402,3.379
	c0.898,0.896,2.115,1.398,3.381,1.398c1.268,0,2.484-0.503,3.382-1.398c0.896-0.896,1.401-2.112,1.403-3.379
	c0-1.27-0.501-2.485-1.397-3.386c-0.896-0.896-2.111-1.4-3.379-1.402H75.169z"/>
<path fill="#788CDC" stroke="#000000" stroke-width="0.5625" d="M204.979,168.708L204.979,168.708h-0.011
	c-1.269,0.003-2.481,0.508-3.378,1.404c-0.895,0.897-1.398,2.115-1.396,3.383c0,1.27,0.506,2.484,1.402,3.381
	c0.896,0.896,2.112,1.398,3.383,1.398c1.266,0,2.481-0.502,3.377-1.398c0.899-0.896,1.404-2.111,1.404-3.381
	c0-1.268-0.501-2.484-1.396-3.383c-0.893-0.896-2.109-1.401-3.379-1.404H204.979z"/>
<path fill="#788CDC" stroke="#000000" stroke-width="0.5625" d="M140.282,33.225L140.282,33.225h-0.009
	c-1.269,0.004-2.483,0.508-3.378,1.406c-0.896,0.898-1.399,2.114-1.397,3.383c0.002,1.266,0.506,2.482,1.403,3.378
	s2.113,1.401,3.382,1.401c1.267,0,2.483-0.505,3.379-1.401c0.898-0.896,1.403-2.111,1.403-3.378
	c0.001-1.269-0.501-2.484-1.396-3.383c-0.894-0.898-2.111-1.402-3.378-1.406H140.282z"/>
<path fill="#788CDC" stroke="#000000" stroke-width="0.5625" d="M275.109,315.576L275.109,315.576h-0.012
	c-1.266,0.002-2.481,0.507-3.379,1.402c-0.896,0.898-1.396,2.115-1.396,3.386c0.003,1.266,0.507,2.481,1.403,3.379
	c0.896,0.896,2.112,1.398,3.383,1.398c1.266,0,2.48-0.503,3.381-1.398c0.896-0.896,1.4-2.112,1.4-3.379
	c0-1.27-0.5-2.485-1.396-3.386c-0.895-0.896-2.109-1.4-3.379-1.402H275.109z"/>
<path fill="#788CDC" stroke="#000000" stroke-width="0.5625" d="M175.544,146.737L175.544,146.737h-0.009
	c-1.268,0-2.483,0.507-3.379,1.404c-0.894,0.898-1.397,2.115-1.397,3.382c0.002,1.269,0.507,2.485,1.404,3.382
	c0.896,0.896,2.112,1.396,3.381,1.396c1.269,0,2.483-0.501,3.382-1.396c0.896-0.896,1.4-2.113,1.401-3.382
	c0-1.267-0.501-2.484-1.397-3.382c-0.894-0.896-2.107-1.404-3.378-1.404H175.544z"/>
<path fill="#788CDC" stroke="#000000" stroke-width="0.5625" d="M26.7,166.4L26.7,166.4h-0.01c-1.266,0-2.482,0.507-3.378,1.404
	c-0.894,0.898-1.397,2.115-1.396,3.383c0.001,1.27,0.506,2.484,1.402,3.381s2.112,1.397,3.382,1.397c1.268,0,2.484-0.501,3.38-1.397
	c0.896-0.896,1.402-2.111,1.402-3.381c0.002-1.267-0.501-2.483-1.396-3.383c-0.896-0.896-2.111-1.404-3.378-1.404H26.7z"/>
<path fill="#788CDC" stroke="#000000" stroke-width="0.5625" d="M336.893,125.421L336.893,125.421h-0.006
	c-1.27,0-2.484,0.507-3.379,1.404c-0.896,0.899-1.396,2.116-1.396,3.383s0.505,2.484,1.404,3.381
	c0.896,0.896,2.111,1.398,3.377,1.398c1.271,0,2.485-0.501,3.383-1.398c0.896-0.896,1.4-2.113,1.404-3.381
	c0-1.266-0.502-2.483-1.396-3.383c-0.896-0.896-2.108-1.403-3.379-1.404H336.893z"/>
<g enable-background="new    ">
	<path d="M122.675,30.901c0.121,0.115,0.216,0.266,0.285,0.454l0.04,0.109l0.175-0.589c0.021-0.067,0.04-0.112,0.056-0.136
		c0.016-0.023,0.053-0.038,0.112-0.043l0.9-0.101c0.048,0,0.076,0.009,0.084,0.027s0.006,0.051-0.004,0.098
		c-0.022,0.067-0.039,0.121-0.051,0.16c-0.011,0.039-0.028,0.095-0.05,0.168l-0.773,2.796c-0.168,0.608-0.311,1.135-0.429,1.577
		c-0.192,0.799-0.289,1.256-0.289,1.37c0,0.072,0.02,0.126,0.059,0.159c0.039,0.034,0.087,0.051,0.145,0.051
		c0.047,0,0.099-0.016,0.156-0.047c0.058-0.031,0.127-0.078,0.209-0.141l0.14-0.109c0.044-0.036,0.093-0.079,0.148-0.129
		c0.055-0.05,0.121-0.11,0.197-0.184l0.51-0.5l0.188,0.164c-0.557,0.692-1.003,1.163-1.34,1.41
		c-0.337,0.247-0.658,0.371-0.963,0.371c-0.198,0-0.351-0.067-0.457-0.203c-0.107-0.135-0.16-0.304-0.16-0.506
		c0-0.188,0.035-0.456,0.105-0.807s0.139-0.646,0.207-0.885c-0.094,0.156-0.251,0.385-0.472,0.684
		c-0.221,0.301-0.493,0.591-0.815,0.872c-0.379,0.339-0.744,0.579-1.092,0.72c-0.271,0.094-0.531,0.141-0.78,0.141
		c-0.421,0-0.803-0.174-1.147-0.52c-0.343-0.348-0.515-0.839-0.515-1.475c0-1.095,0.495-2.237,1.485-3.426
		c1.021-1.235,2.08-1.854,3.175-1.854C122.128,30.581,122.449,30.688,122.675,30.901z M122.422,31.198
		c-0.174-0.177-0.384-0.266-0.631-0.266c-0.858,0-1.655,0.652-2.392,1.955c-0.647,1.147-0.971,2.136-0.971,2.965
		c0,0.418,0.09,0.722,0.269,0.912s0.401,0.285,0.667,0.285c0.785,0,1.541-0.634,2.269-1.9c0.701-1.153,1.051-2.193,1.051-3.122
		C122.682,31.652,122.595,31.376,122.422,31.198z"/>
	<path d="M127.568,28.3c0.031-0.114,0.053-0.218,0.066-0.309c0.013-0.091,0.02-0.168,0.02-0.23c0-0.067-0.017-0.134-0.051-0.199
		c-0.034-0.065-0.113-0.116-0.238-0.152c-0.037-0.011-0.098-0.019-0.184-0.023s-0.272-0.016-0.559-0.031v-0.273
		c0.167-0.026,0.349-0.05,0.546-0.07c0.196-0.021,0.462-0.058,0.797-0.109c0.037-0.005,0.195-0.039,0.475-0.102
		s0.48-0.094,0.601-0.094c0.026,0,0.051,0.011,0.074,0.031s0.036,0.052,0.036,0.094l-0.016,0.102l-1.595,5.906
		c0.466-0.667,0.862-1.151,1.188-1.453c0.569-0.526,1.157-0.789,1.763-0.789c0.57,0,1.027,0.188,1.371,0.566
		s0.517,0.845,0.517,1.402c0,1.297-0.565,2.511-1.695,3.641c-1.099,1.099-2.237,1.648-3.414,1.648c-0.536,0-1.028-0.12-1.477-0.359
		c-0.448-0.234-0.653-0.422-0.617-0.562L127.568,28.3z M129.939,35.69c0.721-1.078,1.082-2.065,1.082-2.961
		c0-0.406-0.106-0.73-0.319-0.973s-0.48-0.363-0.802-0.363c-0.825,0-1.613,0.739-2.366,2.219c-0.653,1.286-0.98,2.354-0.98,3.203
		c0,0.203,0.065,0.366,0.194,0.488c0.13,0.122,0.335,0.184,0.615,0.184C128.281,37.487,129.14,36.889,129.939,35.69z"/>
</g>
<g enable-background="new    ">
	<path d="M311.865,89.901c0.121,0.115,0.216,0.266,0.285,0.454l0.039,0.109l0.175-0.589c0.021-0.067,0.04-0.112,0.056-0.136
		s0.053-0.038,0.111-0.043l0.9-0.101c0.048,0,0.076,0.009,0.084,0.027s0.006,0.051-0.004,0.098c-0.022,0.067-0.039,0.121-0.051,0.16
		c-0.011,0.039-0.027,0.095-0.051,0.168l-0.772,2.796c-0.168,0.608-0.312,1.135-0.429,1.577c-0.192,0.799-0.289,1.256-0.289,1.37
		c0,0.072,0.02,0.126,0.059,0.159c0.039,0.034,0.088,0.051,0.145,0.051c0.047,0,0.1-0.016,0.156-0.047
		c0.058-0.031,0.127-0.078,0.209-0.141l0.141-0.109c0.044-0.036,0.093-0.079,0.148-0.129c0.055-0.05,0.12-0.11,0.197-0.184l0.51-0.5
		l0.188,0.164c-0.557,0.692-1.004,1.163-1.34,1.41c-0.338,0.247-0.658,0.371-0.964,0.371c-0.198,0-0.351-0.067-0.457-0.203
		c-0.106-0.135-0.16-0.304-0.16-0.506c0-0.188,0.035-0.456,0.105-0.807s0.14-0.646,0.207-0.885
		c-0.094,0.156-0.251,0.385-0.472,0.684c-0.222,0.301-0.493,0.591-0.816,0.872c-0.379,0.339-0.743,0.579-1.092,0.72
		c-0.27,0.094-0.53,0.141-0.779,0.141c-0.422,0-0.804-0.174-1.147-0.52c-0.343-0.348-0.515-0.839-0.515-1.475
		c0-1.095,0.495-2.237,1.484-3.426c1.021-1.235,2.08-1.854,3.176-1.854C311.318,89.581,311.639,89.688,311.865,89.901z
		 M311.611,90.198c-0.174-0.177-0.384-0.266-0.631-0.266c-0.858,0-1.655,0.652-2.393,1.955c-0.646,1.147-0.971,2.136-0.971,2.965
		c0,0.418,0.09,0.722,0.27,0.912c0.179,0.19,0.4,0.285,0.666,0.285c0.785,0,1.541-0.634,2.269-1.9
		c0.7-1.153,1.051-2.193,1.051-3.122C311.872,90.652,311.785,90.376,311.611,90.198z"/>
	<path d="M320.375,90.04c0.281,0.286,0.422,0.563,0.422,0.833c0,0.244-0.073,0.434-0.219,0.568
		c-0.146,0.135-0.318,0.202-0.516,0.202c-0.193,0-0.354-0.06-0.484-0.18c-0.131-0.12-0.195-0.269-0.195-0.445
		c0-0.136,0.043-0.281,0.129-0.438s0.129-0.258,0.129-0.305c0-0.094-0.054-0.173-0.16-0.238c-0.107-0.065-0.277-0.098-0.512-0.098
		c-0.839,0-1.566,0.478-2.184,1.432s-0.926,1.955-0.926,3.004c0,0.589,0.125,1.051,0.375,1.384c0.25,0.334,0.625,0.501,1.125,0.501
		c0.4,0,0.79-0.116,1.168-0.348c0.377-0.231,0.725-0.527,1.043-0.887l0.055-0.062l0.227,0.172c-0.365,0.464-0.717,0.82-1.055,1.07
		c-0.6,0.433-1.264,0.648-1.992,0.648c-0.698,0-1.264-0.223-1.695-0.668c-0.433-0.445-0.648-1.054-0.648-1.824
		c0-1.183,0.481-2.271,1.445-3.266c0.953-0.989,1.984-1.484,3.094-1.484C319.635,89.612,320.094,89.755,320.375,90.04z"/>
</g>
<g enable-background="new    ">
	<path d="M301.198,281.141c0.121,0.115,0.216,0.266,0.284,0.454l0.04,0.109l0.175-0.589c0.021-0.067,0.04-0.112,0.056-0.136
		c0.017-0.023,0.054-0.038,0.112-0.043l0.899-0.101c0.048,0,0.076,0.009,0.084,0.027s0.007,0.051-0.004,0.098
		c-0.022,0.067-0.039,0.121-0.051,0.16c-0.011,0.039-0.028,0.095-0.05,0.168l-0.773,2.796c-0.168,0.608-0.311,1.135-0.429,1.577
		c-0.192,0.799-0.289,1.256-0.289,1.37c0,0.072,0.02,0.126,0.059,0.159c0.039,0.034,0.087,0.051,0.145,0.051
		c0.047,0,0.099-0.016,0.156-0.047s0.128-0.078,0.21-0.141l0.14-0.109c0.044-0.036,0.093-0.079,0.147-0.129s0.121-0.11,0.197-0.184
		l0.511-0.5l0.188,0.164c-0.557,0.692-1.003,1.163-1.341,1.41c-0.337,0.247-0.658,0.371-0.963,0.371
		c-0.197,0-0.351-0.067-0.457-0.203c-0.107-0.135-0.16-0.304-0.16-0.506c0-0.188,0.035-0.456,0.105-0.807s0.139-0.646,0.207-0.885
		c-0.094,0.156-0.251,0.385-0.473,0.684c-0.221,0.301-0.492,0.591-0.814,0.872c-0.38,0.339-0.744,0.579-1.092,0.72
		c-0.271,0.094-0.531,0.141-0.781,0.141c-0.421,0-0.803-0.174-1.146-0.52c-0.343-0.348-0.515-0.839-0.515-1.475
		c0-1.095,0.495-2.237,1.485-3.426c1.021-1.235,2.079-1.854,3.174-1.854C300.65,280.82,300.972,280.928,301.198,281.141z
		 M300.945,281.438c-0.174-0.177-0.385-0.266-0.632-0.266c-0.858,0-1.655,0.652-2.392,1.955c-0.648,1.147-0.972,2.136-0.972,2.965
		c0,0.418,0.09,0.722,0.269,0.912c0.18,0.19,0.402,0.285,0.667,0.285c0.784,0,1.541-0.634,2.269-1.9
		c0.701-1.153,1.051-2.193,1.051-3.122C301.205,281.892,301.118,281.615,300.945,281.438z"/>
	<path d="M309.068,281.117c0.1,0.114,0.179,0.31,0.236,0.585l0.918-3.202c0.025-0.089,0.043-0.168,0.051-0.238
		s0.012-0.132,0.012-0.184c0-0.203-0.038-0.331-0.113-0.383c-0.076-0.052-0.184-0.078-0.324-0.078c-0.089,0-0.171,0.003-0.246,0.008
		c-0.076,0.005-0.176,0.013-0.301,0.023v-0.258c0.591-0.078,1.41-0.214,2.457-0.406l0.07,0.078l-0.016,0.086l-1.542,5.615
		l-1.05,3.714c-0.021,0.084-0.037,0.161-0.051,0.232c-0.013,0.071-0.02,0.136-0.02,0.193c0,0.142,0.035,0.233,0.105,0.276
		c0.07,0.041,0.131,0.062,0.184,0.062c0.153,0,0.369-0.134,0.648-0.4c0.163-0.162,0.387-0.414,0.672-0.754l0.18,0.171l-0.11,0.165
		c-0.194,0.287-0.443,0.58-0.747,0.878c-0.54,0.528-1.025,0.792-1.455,0.792c-0.142,0-0.27-0.031-0.385-0.094
		c-0.215-0.125-0.322-0.349-0.322-0.672c0-0.109,0.016-0.283,0.047-0.523c0.031-0.239,0.079-0.502,0.143-0.787
		c-0.396,0.604-0.83,1.098-1.301,1.482c-0.473,0.386-0.986,0.578-1.545,0.578c-0.453,0-0.85-0.161-1.188-0.483
		c-0.34-0.323-0.509-0.819-0.509-1.491c0-1.134,0.524-2.3,1.571-3.496c1.043-1.191,2.06-1.787,3.05-1.787
		C308.603,280.82,308.896,280.919,309.068,281.117z M305.177,286.918c0.146,0.237,0.394,0.355,0.743,0.355
		c0.745,0,1.462-0.598,2.15-1.795c0.662-1.123,0.994-2.187,0.994-3.191c0-0.316-0.053-0.579-0.158-0.787
		c-0.104-0.208-0.316-0.312-0.637-0.312c-0.797,0-1.568,0.64-2.312,1.92c-0.666,1.144-0.999,2.138-0.999,2.98
		C304.958,286.404,305.031,286.682,305.177,286.918z"/>
</g>
<g enable-background="new    ">
	<path d="M130.865,307.178c0.121,0.115,0.216,0.266,0.285,0.454l0.04,0.109l0.175-0.589c0.021-0.067,0.04-0.112,0.056-0.136
		c0.016-0.023,0.053-0.038,0.112-0.043l0.9-0.101c0.048,0,0.076,0.009,0.084,0.027s0.006,0.051-0.004,0.098
		c-0.022,0.067-0.039,0.121-0.051,0.16c-0.011,0.039-0.028,0.095-0.05,0.168l-0.773,2.796c-0.168,0.608-0.311,1.135-0.429,1.577
		c-0.192,0.799-0.289,1.256-0.289,1.37c0,0.072,0.02,0.126,0.059,0.159c0.039,0.034,0.087,0.051,0.145,0.051
		c0.047,0,0.099-0.016,0.156-0.047c0.058-0.031,0.127-0.078,0.209-0.141l0.14-0.109c0.044-0.036,0.093-0.079,0.148-0.129
		c0.055-0.05,0.121-0.11,0.197-0.184l0.51-0.5l0.188,0.164c-0.557,0.692-1.003,1.163-1.34,1.41
		c-0.337,0.247-0.658,0.371-0.963,0.371c-0.198,0-0.351-0.067-0.457-0.203c-0.107-0.135-0.16-0.304-0.16-0.506
		c0-0.188,0.035-0.456,0.105-0.807s0.139-0.646,0.207-0.885c-0.094,0.156-0.251,0.385-0.472,0.684
		c-0.221,0.301-0.493,0.591-0.815,0.872c-0.379,0.339-0.744,0.579-1.092,0.72c-0.271,0.094-0.531,0.141-0.78,0.141
		c-0.421,0-0.803-0.174-1.147-0.52c-0.343-0.348-0.515-0.839-0.515-1.475c0-1.095,0.495-2.237,1.485-3.426
		c1.021-1.235,2.08-1.854,3.175-1.854C130.318,306.857,130.639,306.965,130.865,307.178z M130.612,307.475
		c-0.174-0.177-0.384-0.266-0.631-0.266c-0.858,0-1.655,0.652-2.392,1.955c-0.647,1.147-0.971,2.136-0.971,2.965
		c0,0.418,0.09,0.722,0.269,0.912s0.401,0.285,0.667,0.285c0.785,0,1.541-0.634,2.269-1.9c0.701-1.153,1.051-2.193,1.051-3.122
		C130.872,307.929,130.785,307.652,130.612,307.475z"/>
	<path d="M135.062,308.512c1.031-1.082,2.096-1.623,3.195-1.623c0.406,0,0.729,0.094,0.969,0.281
		c0.239,0.187,0.359,0.465,0.359,0.834c0,0.748-0.439,1.389-1.316,1.922c-0.878,0.533-1.801,0.859-2.77,0.979l-0.445,0.055
		c-0.068,0.214-0.115,0.384-0.141,0.512c-0.026,0.128-0.039,0.288-0.039,0.48c0,0.458,0.149,0.815,0.449,1.07
		c0.299,0.255,0.655,0.383,1.066,0.383c0.391,0,0.805-0.13,1.242-0.391c0.25-0.151,0.612-0.422,1.086-0.812l0.203,0.18
		c-0.234,0.297-0.57,0.602-1.008,0.914c-0.776,0.558-1.555,0.836-2.336,0.836c-0.552,0-1.037-0.195-1.453-0.585
		c-0.417-0.391-0.625-0.95-0.625-1.679C133.5,310.713,134.021,309.594,135.062,308.512z M137.594,309.559
		c0.625-0.553,0.938-1.103,0.938-1.648c0-0.197-0.047-0.354-0.141-0.471c-0.094-0.117-0.232-0.176-0.414-0.176
		c-0.339,0-0.671,0.145-0.996,0.433c-0.326,0.288-0.619,0.614-0.879,0.979c-0.276,0.426-0.495,0.834-0.656,1.224
		c-0.089,0.208-0.183,0.444-0.281,0.709C136.159,310.462,136.969,310.112,137.594,309.559z"/>
</g>
<g enable-background="new    ">
	<path d="M14.527,182.401c0.121,0.115,0.216,0.266,0.285,0.454l0.04,0.109l0.175-0.589c0.021-0.067,0.04-0.112,0.056-0.136
		c0.016-0.023,0.053-0.038,0.112-0.043l0.9-0.101c0.048,0,0.076,0.009,0.084,0.027s0.006,0.051-0.004,0.098
		c-0.022,0.067-0.039,0.121-0.051,0.16c-0.011,0.039-0.028,0.095-0.05,0.168l-0.773,2.796c-0.168,0.608-0.311,1.135-0.429,1.577
		c-0.192,0.799-0.289,1.256-0.289,1.37c0,0.072,0.02,0.126,0.059,0.159c0.039,0.034,0.087,0.051,0.145,0.051
		c0.047,0,0.099-0.016,0.156-0.047c0.058-0.031,0.127-0.078,0.209-0.141l0.14-0.109c0.044-0.036,0.093-0.079,0.148-0.129
		c0.055-0.05,0.121-0.11,0.197-0.184l0.51-0.5l0.188,0.164c-0.557,0.692-1.003,1.163-1.34,1.41
		c-0.337,0.247-0.658,0.371-0.963,0.371c-0.198,0-0.351-0.067-0.457-0.203c-0.107-0.135-0.16-0.304-0.16-0.506
		c0-0.188,0.035-0.456,0.105-0.807s0.139-0.646,0.207-0.885c-0.094,0.156-0.251,0.385-0.472,0.684
		c-0.221,0.301-0.493,0.591-0.815,0.872c-0.379,0.339-0.744,0.579-1.092,0.72c-0.271,0.094-0.531,0.141-0.78,0.141
		c-0.421,0-0.803-0.174-1.147-0.52c-0.343-0.348-0.515-0.839-0.515-1.475c0-1.095,0.495-2.237,1.485-3.426
		c1.021-1.235,2.08-1.854,3.175-1.854C13.979,182.081,14.3,182.188,14.527,182.401z M14.273,182.698
		c-0.174-0.177-0.384-0.266-0.631-0.266c-0.858,0-1.655,0.652-2.392,1.955c-0.647,1.147-0.971,2.136-0.971,2.965
		c0,0.418,0.09,0.722,0.269,0.912s0.401,0.285,0.667,0.285c0.785,0,1.541-0.634,2.269-1.9c0.701-1.153,1.051-2.193,1.051-3.122
		C14.534,183.152,14.447,182.876,14.273,182.698z"/>
	<path d="M23.263,179.784c-0.115,0.146-0.273,0.219-0.477,0.219c-0.177,0-0.323-0.057-0.438-0.169
		c-0.115-0.112-0.172-0.245-0.172-0.396c0-0.105,0.049-0.286,0.148-0.542c0-0.068-0.034-0.129-0.102-0.182
		c-0.059-0.047-0.131-0.07-0.214-0.07c-0.391,0-0.718,0.42-0.981,1.261c-0.147,0.485-0.313,1.302-0.497,2.45h1.742l-0.109,0.523
		h-1.777l-1.495,5.104c-0.316,1.35-0.74,2.44-1.272,3.273c-0.532,0.832-1.213,1.248-2.042,1.248c-0.38,0-0.691-0.102-0.935-0.305
		c-0.244-0.203-0.365-0.43-0.365-0.68c0-0.156,0.051-0.302,0.152-0.438s0.254-0.203,0.457-0.203c0.177,0,0.327,0.059,0.449,0.176
		c0.123,0.117,0.184,0.262,0.184,0.434c0,0.094-0.027,0.188-0.082,0.285s-0.082,0.163-0.082,0.199c0,0.047,0.03,0.086,0.09,0.117
		c0.06,0.031,0.137,0.047,0.23,0.047c0.443,0,0.819-0.349,1.127-1.047c0.162-0.364,0.311-0.867,0.446-1.508l1.856-6.703h-1.445
		l0.109-0.523h1.513c0.285-1.214,0.604-2.112,0.959-2.695c0.527-0.896,1.179-1.344,1.953-1.344c0.355,0,0.65,0.102,0.886,0.305
		c0.235,0.203,0.354,0.435,0.354,0.695C23.435,179.482,23.377,179.639,23.263,179.784z"/>
</g>
<g enable-background="new    ">
	<path d="M191.236,7.395c0.099,0.114,0.178,0.31,0.235,0.585l0.918-3.202c0.026-0.089,0.043-0.168,0.051-0.238
		s0.012-0.132,0.012-0.184c0-0.203-0.038-0.331-0.113-0.383s-0.184-0.078-0.324-0.078c-0.089,0-0.171,0.003-0.246,0.008
		s-0.176,0.013-0.301,0.023V3.668c0.591-0.078,1.41-0.214,2.457-0.406l0.07,0.078l-0.016,0.086l-1.542,5.615l-1.05,3.714
		c-0.021,0.084-0.038,0.161-0.051,0.232s-0.02,0.136-0.02,0.193c0,0.142,0.035,0.233,0.105,0.276
		c0.069,0.041,0.132,0.062,0.185,0.062c0.152,0,0.368-0.134,0.647-0.4c0.163-0.162,0.388-0.414,0.671-0.754l0.18,0.171l-0.109,0.165
		c-0.194,0.287-0.443,0.58-0.747,0.878c-0.54,0.528-1.024,0.792-1.455,0.792c-0.142,0-0.271-0.031-0.386-0.094
		c-0.214-0.125-0.321-0.349-0.321-0.672c0-0.109,0.016-0.283,0.047-0.523c0.031-0.239,0.079-0.502,0.144-0.787
		c-0.396,0.604-0.83,1.098-1.303,1.482c-0.471,0.386-0.986,0.578-1.543,0.578c-0.454,0-0.851-0.161-1.189-0.483
		c-0.338-0.323-0.508-0.819-0.508-1.491c0-1.134,0.523-2.3,1.572-3.496c1.042-1.191,2.059-1.787,3.049-1.787
		C190.77,7.098,191.062,7.196,191.236,7.395z M187.344,13.195c0.146,0.237,0.394,0.355,0.743,0.355c0.745,0,1.462-0.598,2.149-1.795
		c0.663-1.123,0.994-2.187,0.994-3.191c0-0.316-0.053-0.579-0.157-0.787s-0.317-0.312-0.637-0.312c-0.798,0-1.567,0.64-2.312,1.92
		c-0.666,1.144-0.999,2.138-0.999,2.98C187.125,12.682,187.197,12.959,187.344,13.195z"/>
	<path d="M200.102,4.801c-0.115,0.146-0.273,0.219-0.477,0.219c-0.178,0-0.323-0.057-0.438-0.169
		c-0.115-0.112-0.172-0.245-0.172-0.396c0-0.105,0.049-0.286,0.148-0.542c0-0.068-0.034-0.129-0.102-0.182
		c-0.059-0.047-0.131-0.07-0.215-0.07c-0.391,0-0.718,0.42-0.98,1.261c-0.148,0.485-0.313,1.302-0.497,2.45h1.742l-0.109,0.523
		h-1.777l-1.495,5.104c-0.315,1.35-0.739,2.44-1.271,3.273c-0.532,0.832-1.213,1.248-2.042,1.248c-0.38,0-0.691-0.102-0.935-0.305
		c-0.244-0.203-0.365-0.43-0.365-0.68c0-0.156,0.051-0.302,0.152-0.438s0.254-0.203,0.457-0.203c0.178,0,0.327,0.059,0.449,0.176
		c0.123,0.117,0.184,0.262,0.184,0.434c0,0.094-0.027,0.188-0.082,0.285s-0.082,0.163-0.082,0.199c0,0.047,0.03,0.086,0.09,0.117
		c0.061,0.031,0.137,0.047,0.23,0.047c0.443,0,0.819-0.349,1.127-1.047c0.162-0.364,0.311-0.867,0.445-1.508l1.857-6.703H194.5
		l0.109-0.523h1.513c0.284-1.214,0.604-2.112,0.959-2.695c0.527-0.896,1.179-1.344,1.953-1.344c0.354,0,0.649,0.102,0.886,0.305
		c0.235,0.203,0.354,0.435,0.354,0.695C200.273,4.499,200.216,4.655,200.102,4.801z"/>
</g>
<g enable-background="new    ">
	<path d="M317.359,136.276c0.031-0.114,0.054-0.218,0.066-0.309c0.014-0.091,0.02-0.168,0.02-0.23c0-0.067-0.017-0.134-0.051-0.199
		c-0.033-0.065-0.113-0.116-0.238-0.152c-0.036-0.011-0.098-0.019-0.184-0.023s-0.271-0.016-0.559-0.031v-0.273
		c0.168-0.026,0.35-0.05,0.547-0.07c0.195-0.021,0.461-0.058,0.797-0.109c0.037-0.005,0.195-0.039,0.475-0.102
		c0.281-0.062,0.48-0.094,0.602-0.094c0.025,0,0.051,0.011,0.074,0.031s0.035,0.052,0.035,0.094l-0.016,0.102l-1.595,5.906
		c0.466-0.667,0.862-1.151,1.188-1.453c0.569-0.526,1.157-0.789,1.763-0.789c0.569,0,1.026,0.188,1.371,0.566
		s0.517,0.845,0.517,1.402c0,1.297-0.565,2.511-1.695,3.641c-1.099,1.099-2.236,1.648-3.414,1.648c-0.536,0-1.028-0.12-1.477-0.359
		c-0.447-0.234-0.653-0.422-0.617-0.562L317.359,136.276z M319.73,143.667c0.721-1.078,1.082-2.065,1.082-2.961
		c0-0.406-0.106-0.73-0.319-0.973s-0.479-0.363-0.802-0.363c-0.824,0-1.613,0.739-2.366,2.219c-0.653,1.286-0.98,2.354-0.98,3.203
		c0,0.203,0.065,0.366,0.194,0.488c0.13,0.122,0.335,0.184,0.615,0.184C318.072,145.464,318.932,144.865,319.73,143.667z"/>
	<path d="M324.664,140.212c1.031-1.082,2.096-1.623,3.195-1.623c0.406,0,0.729,0.094,0.969,0.281
		c0.239,0.187,0.359,0.465,0.359,0.834c0,0.748-0.439,1.389-1.316,1.922c-0.878,0.533-1.801,0.859-2.77,0.979l-0.445,0.055
		c-0.068,0.214-0.115,0.384-0.141,0.512c-0.026,0.128-0.039,0.288-0.039,0.48c0,0.458,0.149,0.815,0.449,1.07
		c0.299,0.255,0.654,0.383,1.066,0.383c0.391,0,0.805-0.13,1.242-0.391c0.25-0.151,0.611-0.422,1.086-0.812l0.203,0.18
		c-0.234,0.297-0.57,0.602-1.008,0.914c-0.776,0.558-1.555,0.836-2.336,0.836c-0.553,0-1.037-0.195-1.453-0.585
		c-0.417-0.391-0.625-0.95-0.625-1.679C323.102,142.413,323.622,141.294,324.664,140.212z M327.195,141.259
		c0.625-0.553,0.938-1.103,0.938-1.648c0-0.197-0.047-0.354-0.141-0.471c-0.094-0.117-0.232-0.176-0.414-0.176
		c-0.339,0-0.671,0.145-0.996,0.433c-0.326,0.288-0.619,0.614-0.879,0.979c-0.276,0.426-0.495,0.834-0.656,1.224
		c-0.089,0.208-0.183,0.444-0.281,0.709C325.76,142.162,326.57,141.812,327.195,141.259z"/>
</g>
<g enable-background="new    ">
	<path d="M256.392,307.854c0.281,0.286,0.422,0.563,0.422,0.833c0,0.244-0.073,0.434-0.219,0.568s-0.317,0.202-0.516,0.202
		c-0.192,0-0.354-0.06-0.484-0.18s-0.195-0.269-0.195-0.445c0-0.136,0.043-0.281,0.129-0.438s0.129-0.258,0.129-0.305
		c0-0.094-0.054-0.173-0.16-0.238s-0.277-0.098-0.512-0.098c-0.839,0-1.566,0.478-2.184,1.432s-0.926,1.955-0.926,3.004
		c0,0.589,0.125,1.051,0.375,1.384c0.25,0.334,0.625,0.501,1.125,0.501c0.401,0,0.79-0.116,1.168-0.348s0.726-0.527,1.043-0.887
		l0.055-0.062l0.227,0.172c-0.364,0.464-0.716,0.82-1.055,1.07c-0.599,0.433-1.263,0.648-1.992,0.648
		c-0.698,0-1.263-0.223-1.695-0.668s-0.648-1.054-0.648-1.824c0-1.183,0.481-2.271,1.445-3.266c0.953-0.989,1.984-1.484,3.094-1.484
		C255.652,307.427,256.11,307.569,256.392,307.854z"/>
	<path d="M263.72,305.099c-0.114,0.146-0.273,0.219-0.477,0.219c-0.177,0-0.323-0.057-0.438-0.169s-0.172-0.245-0.172-0.396
		c0-0.105,0.05-0.286,0.148-0.542c0-0.068-0.034-0.129-0.102-0.182c-0.06-0.047-0.131-0.07-0.214-0.07
		c-0.392,0-0.719,0.42-0.982,1.261c-0.146,0.485-0.312,1.302-0.496,2.45h1.742l-0.109,0.523h-1.777l-1.494,5.104
		c-0.316,1.35-0.74,2.44-1.272,3.273c-0.532,0.832-1.213,1.248-2.042,1.248c-0.38,0-0.691-0.102-0.935-0.305s-0.365-0.43-0.365-0.68
		c0-0.156,0.051-0.302,0.152-0.438s0.254-0.203,0.457-0.203c0.177,0,0.327,0.059,0.449,0.176s0.184,0.262,0.184,0.434
		c0,0.094-0.027,0.188-0.082,0.285s-0.082,0.163-0.082,0.199c0,0.047,0.03,0.086,0.09,0.117s0.137,0.047,0.23,0.047
		c0.443,0,0.819-0.349,1.127-1.047c0.161-0.364,0.311-0.867,0.446-1.508l1.855-6.703h-1.445l0.109-0.523h1.514
		c0.285-1.214,0.604-2.112,0.959-2.695c0.527-0.896,1.179-1.344,1.953-1.344c0.355,0,0.65,0.102,0.886,0.305
		s0.354,0.435,0.354,0.695C263.892,304.797,263.834,304.953,263.72,305.099z"/>
</g>
<g enable-background="new    ">
	<path d="M52.758,313.216c0.031-0.114,0.053-0.218,0.066-0.309c0.013-0.091,0.02-0.168,0.02-0.23c0-0.067-0.017-0.134-0.051-0.199
		c-0.034-0.065-0.113-0.116-0.238-0.152c-0.037-0.011-0.098-0.019-0.184-0.023s-0.272-0.016-0.559-0.031v-0.273
		c0.167-0.026,0.349-0.05,0.546-0.07c0.196-0.021,0.462-0.058,0.797-0.109c0.037-0.005,0.195-0.039,0.475-0.102
		s0.48-0.094,0.601-0.094c0.026,0,0.051,0.011,0.074,0.031s0.036,0.052,0.036,0.094l-0.016,0.102l-1.595,5.906
		c0.466-0.667,0.862-1.151,1.188-1.453c0.569-0.526,1.157-0.789,1.763-0.789c0.57,0,1.027,0.188,1.371,0.566
		s0.517,0.845,0.517,1.402c0,1.297-0.565,2.511-1.695,3.641c-1.099,1.099-2.237,1.648-3.414,1.648c-0.536,0-1.028-0.12-1.477-0.359
		c-0.448-0.234-0.653-0.422-0.617-0.562L52.758,313.216z M55.129,320.606c0.721-1.078,1.082-2.065,1.082-2.961
		c0-0.406-0.106-0.73-0.319-0.973s-0.48-0.363-0.802-0.363c-0.825,0-1.613,0.739-2.366,2.219c-0.653,1.286-0.98,2.354-0.98,3.203
		c0,0.203,0.065,0.366,0.194,0.488c0.13,0.122,0.335,0.184,0.615,0.184C53.471,322.403,54.33,321.805,55.129,320.606z"/>
	<path d="M63.736,315.794c0.099,0.114,0.178,0.31,0.236,0.585l0.918-3.202c0.026-0.089,0.043-0.168,0.051-0.238
		s0.012-0.132,0.012-0.184c0-0.203-0.038-0.331-0.113-0.383c-0.076-0.052-0.184-0.078-0.324-0.078c-0.089,0-0.171,0.003-0.246,0.008
		c-0.076,0.005-0.176,0.013-0.301,0.023v-0.258c0.591-0.078,1.41-0.214,2.457-0.406l0.07,0.078l-0.016,0.086l-1.542,5.615
		l-1.05,3.714c-0.021,0.084-0.038,0.161-0.051,0.232c-0.013,0.071-0.02,0.136-0.02,0.193c0,0.142,0.035,0.233,0.105,0.276
		c0.07,0.041,0.131,0.062,0.184,0.062c0.153,0,0.369-0.134,0.648-0.4c0.163-0.162,0.387-0.414,0.671-0.754l0.18,0.171l-0.11,0.165
		c-0.194,0.287-0.443,0.58-0.747,0.878c-0.54,0.528-1.025,0.792-1.455,0.792c-0.142,0-0.27-0.031-0.385-0.094
		c-0.214-0.125-0.322-0.349-0.322-0.672c0-0.109,0.016-0.283,0.047-0.523c0.031-0.239,0.079-0.502,0.143-0.787
		c-0.396,0.604-0.83,1.098-1.302,1.482c-0.472,0.386-0.986,0.578-1.544,0.578c-0.454,0-0.85-0.161-1.188-0.483
		c-0.339-0.323-0.508-0.819-0.508-1.491c0-1.134,0.524-2.3,1.572-3.496c1.042-1.191,2.059-1.787,3.049-1.787
		C63.27,315.497,63.562,315.596,63.736,315.794z M59.844,321.595c0.146,0.237,0.394,0.355,0.743,0.355
		c0.745,0,1.462-0.598,2.15-1.795c0.663-1.123,0.994-2.187,0.994-3.191c0-0.316-0.053-0.579-0.158-0.787
		c-0.104-0.208-0.317-0.312-0.637-0.312c-0.797,0-1.568,0.64-2.312,1.92c-0.666,1.144-0.999,2.138-0.999,2.98
		C59.625,321.081,59.698,321.358,59.844,321.595z"/>
</g>
<g enable-background="new    ">
	<path d="M11.138,113.729c0.281,0.286,0.422,0.563,0.422,0.833c0,0.244-0.073,0.434-0.219,0.568
		c-0.146,0.135-0.318,0.202-0.516,0.202c-0.193,0-0.354-0.06-0.484-0.18c-0.13-0.12-0.195-0.269-0.195-0.445
		c0-0.136,0.043-0.281,0.129-0.438s0.129-0.258,0.129-0.305c0-0.094-0.054-0.173-0.16-0.238c-0.107-0.065-0.277-0.098-0.512-0.098
		c-0.839,0-1.566,0.478-2.184,1.432s-0.926,1.955-0.926,3.004c0,0.589,0.125,1.051,0.375,1.384c0.25,0.334,0.625,0.501,1.125,0.501
		c0.401,0,0.79-0.116,1.168-0.348c0.377-0.231,0.725-0.527,1.043-0.887l0.055-0.062l0.227,0.172c-0.365,0.464-0.716,0.82-1.055,1.07
		c-0.599,0.433-1.263,0.648-1.992,0.648c-0.698,0-1.263-0.223-1.695-0.668c-0.433-0.445-0.648-1.054-0.648-1.824
		c0-1.183,0.481-2.271,1.445-3.266c0.953-0.989,1.984-1.484,3.094-1.484C10.398,113.302,10.857,113.444,11.138,113.729z"/>
	<path d="M13.927,114.925c1.031-1.082,2.096-1.623,3.195-1.623c0.406,0,0.729,0.094,0.969,0.281
		c0.239,0.187,0.359,0.465,0.359,0.834c0,0.748-0.439,1.389-1.316,1.922c-0.878,0.533-1.801,0.859-2.77,0.979l-0.445,0.055
		c-0.068,0.214-0.115,0.384-0.141,0.512c-0.026,0.128-0.039,0.288-0.039,0.48c0,0.458,0.149,0.815,0.449,1.07
		c0.299,0.255,0.655,0.383,1.066,0.383c0.391,0,0.805-0.13,1.242-0.391c0.25-0.151,0.612-0.422,1.086-0.812l0.203,0.18
		c-0.234,0.297-0.57,0.602-1.008,0.914c-0.776,0.558-1.555,0.836-2.336,0.836c-0.552,0-1.037-0.195-1.453-0.585
		c-0.417-0.391-0.625-0.95-0.625-1.679C12.365,117.126,12.885,116.007,13.927,114.925z M16.458,115.972
		c0.625-0.553,0.938-1.103,0.938-1.648c0-0.197-0.047-0.354-0.141-0.471c-0.094-0.117-0.232-0.176-0.414-0.176
		c-0.339,0-0.671,0.145-0.996,0.433c-0.326,0.288-0.619,0.614-0.879,0.979c-0.276,0.426-0.495,0.834-0.656,1.224
		c-0.089,0.208-0.183,0.444-0.281,0.709C15.023,116.875,15.833,116.525,16.458,115.972z"/>
</g>
<g enable-background="new    ">
	<path d="M160.375,141.04c0.281,0.286,0.422,0.563,0.422,0.833c0,0.244-0.073,0.434-0.219,0.568
		c-0.146,0.135-0.318,0.202-0.516,0.202c-0.193,0-0.354-0.06-0.484-0.18c-0.13-0.12-0.195-0.269-0.195-0.445
		c0-0.136,0.043-0.281,0.129-0.438s0.129-0.258,0.129-0.305c0-0.094-0.054-0.173-0.16-0.238c-0.107-0.065-0.277-0.098-0.512-0.098
		c-0.839,0-1.566,0.478-2.184,1.432s-0.926,1.955-0.926,3.004c0,0.589,0.125,1.051,0.375,1.384c0.25,0.334,0.625,0.501,1.125,0.501
		c0.401,0,0.79-0.116,1.168-0.348c0.377-0.231,0.725-0.527,1.043-0.887l0.055-0.062l0.227,0.172c-0.365,0.464-0.716,0.82-1.055,1.07
		c-0.599,0.433-1.263,0.648-1.992,0.648c-0.698,0-1.263-0.223-1.695-0.668c-0.433-0.445-0.648-1.054-0.648-1.824
		c0-1.183,0.481-2.271,1.445-3.266c0.953-0.989,1.984-1.484,3.094-1.484C159.635,140.612,160.094,140.755,160.375,141.04z"/>
	<path d="M166.837,140.878c0.099,0.114,0.178,0.31,0.236,0.585l0.918-3.202c0.026-0.089,0.043-0.168,0.051-0.238
		s0.012-0.132,0.012-0.184c0-0.203-0.038-0.331-0.113-0.383c-0.076-0.052-0.184-0.078-0.324-0.078c-0.089,0-0.171,0.003-0.246,0.008
		c-0.076,0.005-0.176,0.013-0.301,0.023v-0.258c0.591-0.078,1.41-0.214,2.457-0.406l0.07,0.078l-0.016,0.086l-1.542,5.615
		l-1.05,3.714c-0.021,0.084-0.038,0.161-0.051,0.232c-0.013,0.071-0.02,0.136-0.02,0.193c0,0.142,0.035,0.233,0.105,0.276
		c0.07,0.041,0.131,0.062,0.184,0.062c0.153,0,0.369-0.134,0.648-0.4c0.163-0.162,0.387-0.414,0.671-0.754l0.18,0.171l-0.11,0.165
		c-0.194,0.287-0.443,0.58-0.747,0.878c-0.54,0.528-1.025,0.792-1.455,0.792c-0.142,0-0.27-0.031-0.385-0.094
		c-0.214-0.125-0.322-0.349-0.322-0.672c0-0.109,0.016-0.283,0.047-0.523c0.031-0.239,0.079-0.502,0.143-0.787
		c-0.396,0.604-0.83,1.098-1.302,1.482c-0.472,0.386-0.986,0.578-1.544,0.578c-0.454,0-0.85-0.161-1.188-0.483
		c-0.339-0.323-0.508-0.819-0.508-1.491c0-1.134,0.524-2.3,1.572-3.496c1.042-1.191,2.059-1.787,3.049-1.787
		C166.371,140.581,166.664,140.68,166.837,140.878z M162.945,146.679c0.146,0.237,0.394,0.355,0.743,0.355
		c0.745,0,1.462-0.598,2.15-1.795c0.663-1.123,0.994-2.187,0.994-3.191c0-0.316-0.053-0.579-0.158-0.787
		c-0.104-0.208-0.317-0.312-0.637-0.312c-0.797,0-1.568,0.64-2.312,1.92c-0.666,1.144-0.999,2.138-0.999,2.98
		C162.727,146.165,162.799,146.442,162.945,146.679z"/>
</g>
<g enable-background="new    ">
	<path d="M207.736,155.378c0.099,0.114,0.178,0.31,0.235,0.585l0.918-3.202c0.026-0.089,0.043-0.168,0.051-0.238
		s0.012-0.132,0.012-0.184c0-0.203-0.038-0.331-0.113-0.383s-0.184-0.078-0.324-0.078c-0.089,0-0.171,0.003-0.246,0.008
		s-0.176,0.013-0.301,0.023v-0.258c0.591-0.078,1.41-0.214,2.457-0.406l0.07,0.078l-0.016,0.086l-1.542,5.615l-1.05,3.714
		c-0.021,0.084-0.038,0.161-0.051,0.232s-0.02,0.136-0.02,0.193c0,0.142,0.035,0.233,0.105,0.276
		c0.069,0.041,0.132,0.062,0.185,0.062c0.152,0,0.368-0.134,0.647-0.4c0.163-0.162,0.388-0.414,0.671-0.754l0.18,0.171l-0.109,0.165
		c-0.194,0.287-0.443,0.58-0.747,0.878c-0.54,0.528-1.024,0.792-1.455,0.792c-0.142,0-0.271-0.031-0.386-0.094
		c-0.214-0.125-0.321-0.349-0.321-0.672c0-0.109,0.016-0.283,0.047-0.523c0.031-0.239,0.079-0.502,0.144-0.787
		c-0.396,0.604-0.83,1.098-1.303,1.482c-0.471,0.386-0.986,0.578-1.543,0.578c-0.454,0-0.851-0.161-1.189-0.483
		c-0.338-0.323-0.508-0.819-0.508-1.491c0-1.134,0.523-2.3,1.572-3.496c1.042-1.191,2.059-1.787,3.049-1.787
		C207.27,155.081,207.562,155.18,207.736,155.378z M203.844,161.179c0.146,0.237,0.394,0.355,0.743,0.355
		c0.745,0,1.462-0.598,2.149-1.795c0.663-1.123,0.994-2.187,0.994-3.191c0-0.316-0.053-0.579-0.157-0.787s-0.317-0.312-0.637-0.312
		c-0.798,0-1.567,0.64-2.312,1.92c-0.666,1.144-0.999,2.138-0.999,2.98C203.625,160.665,203.697,160.942,203.844,161.179z"/>
	<path d="M212.062,156.735c1.031-1.082,2.096-1.623,3.195-1.623c0.406,0,0.729,0.094,0.969,0.281
		c0.239,0.187,0.359,0.465,0.359,0.834c0,0.748-0.439,1.389-1.316,1.922c-0.878,0.533-1.801,0.859-2.77,0.979l-0.445,0.055
		c-0.068,0.214-0.115,0.384-0.141,0.512c-0.026,0.128-0.039,0.288-0.039,0.48c0,0.458,0.149,0.815,0.449,1.07
		c0.299,0.255,0.654,0.383,1.066,0.383c0.391,0,0.805-0.13,1.242-0.391c0.25-0.151,0.611-0.422,1.086-0.812l0.203,0.18
		c-0.234,0.297-0.57,0.602-1.008,0.914c-0.776,0.558-1.555,0.836-2.336,0.836c-0.553,0-1.037-0.195-1.453-0.585
		c-0.417-0.391-0.625-0.95-0.625-1.679C210.5,158.937,211.021,157.817,212.062,156.735z M214.594,157.782
		c0.625-0.553,0.938-1.103,0.938-1.648c0-0.197-0.047-0.354-0.141-0.471c-0.094-0.117-0.232-0.176-0.414-0.176
		c-0.339,0-0.671,0.145-0.996,0.433c-0.326,0.288-0.619,0.614-0.879,0.979c-0.276,0.426-0.495,0.834-0.656,1.224
		c-0.089,0.208-0.183,0.444-0.281,0.709C213.158,158.686,213.969,158.336,214.594,157.782z"/>
</g>
<g enable-background="new    ">
	<path d="M203.258,204.843c1.031-1.082,2.096-1.623,3.195-1.623c0.406,0,0.729,0.094,0.969,0.281
		c0.239,0.187,0.359,0.465,0.359,0.834c0,0.748-0.439,1.389-1.316,1.922c-0.878,0.533-1.801,0.859-2.77,0.979l-0.445,0.055
		c-0.068,0.214-0.115,0.384-0.141,0.512c-0.026,0.128-0.039,0.288-0.039,0.48c0,0.458,0.149,0.815,0.449,1.07
		c0.299,0.255,0.654,0.383,1.066,0.383c0.391,0,0.805-0.13,1.242-0.391c0.25-0.151,0.611-0.422,1.086-0.812l0.203,0.18
		c-0.234,0.297-0.57,0.602-1.008,0.914c-0.776,0.558-1.555,0.836-2.336,0.836c-0.553,0-1.037-0.195-1.453-0.585
		c-0.417-0.391-0.625-0.95-0.625-1.679C201.695,207.044,202.216,205.925,203.258,204.843z M205.789,205.89
		c0.625-0.553,0.938-1.103,0.938-1.648c0-0.197-0.047-0.354-0.141-0.471c-0.094-0.117-0.232-0.176-0.414-0.176
		c-0.339,0-0.671,0.145-0.996,0.433c-0.326,0.288-0.619,0.614-0.879,0.979c-0.276,0.426-0.495,0.834-0.656,1.224
		c-0.089,0.208-0.183,0.444-0.281,0.709C204.354,206.793,205.164,206.443,205.789,205.89z"/>
	<path d="M214.898,200.892c-0.115,0.146-0.273,0.219-0.477,0.219c-0.178,0-0.323-0.057-0.438-0.169
		c-0.115-0.112-0.172-0.245-0.172-0.396c0-0.105,0.049-0.286,0.148-0.542c0-0.068-0.034-0.129-0.102-0.182
		c-0.059-0.047-0.131-0.07-0.215-0.07c-0.391,0-0.718,0.42-0.98,1.261c-0.148,0.485-0.313,1.302-0.497,2.45h1.742l-0.109,0.523
		h-1.777l-1.495,5.104c-0.315,1.35-0.739,2.44-1.271,3.273c-0.532,0.832-1.213,1.248-2.042,1.248c-0.38,0-0.691-0.102-0.935-0.305
		c-0.244-0.203-0.365-0.43-0.365-0.68c0-0.156,0.051-0.302,0.152-0.438s0.254-0.203,0.457-0.203c0.178,0,0.327,0.059,0.449,0.176
		c0.123,0.117,0.184,0.262,0.184,0.434c0,0.094-0.027,0.188-0.082,0.285s-0.082,0.163-0.082,0.199c0,0.047,0.03,0.086,0.09,0.117
		c0.061,0.031,0.137,0.047,0.23,0.047c0.443,0,0.819-0.349,1.127-1.047c0.162-0.364,0.311-0.867,0.445-1.508l1.857-6.703h-1.445
		l0.109-0.523h1.513c0.284-1.214,0.604-2.112,0.959-2.695c0.527-0.896,1.179-1.344,1.953-1.344c0.354,0,0.649,0.102,0.886,0.305
		c0.235,0.203,0.354,0.435,0.354,0.695C215.07,200.59,215.013,200.746,214.898,200.892z"/>
</g>
<g enable-background="new    ">
	<path d="M156.538,218.3c0.035-0.114,0.059-0.217,0.073-0.309c0.014-0.091,0.021-0.168,0.021-0.23c0-0.067-0.019-0.134-0.056-0.199
		c-0.037-0.064-0.125-0.115-0.262-0.152c-0.04-0.01-0.107-0.018-0.202-0.023c-0.095-0.005-0.3-0.016-0.615-0.031v-0.273
		c0.184-0.025,0.385-0.049,0.601-0.07c0.216-0.021,0.509-0.057,0.878-0.109c0.04-0.005,0.215-0.039,0.523-0.102
		s0.529-0.094,0.662-0.094c0.028,0,0.056,0.011,0.082,0.031c0.026,0.021,0.039,0.053,0.039,0.094l-0.017,0.102l-1.757,5.906
		c0.513-0.666,0.949-1.15,1.309-1.453c0.627-0.525,1.274-0.789,1.942-0.789c0.627,0,1.131,0.189,1.51,0.566
		c0.379,0.378,0.569,0.846,0.569,1.402c0,1.297-0.623,2.511-1.868,3.641c-1.21,1.1-2.464,1.648-3.76,1.648
		c-0.591,0-1.133-0.12-1.626-0.359c-0.493-0.234-0.72-0.422-0.68-0.562L156.538,218.3z M159.149,225.69
		c0.794-1.078,1.192-2.064,1.192-2.961c0-0.406-0.117-0.73-0.352-0.973s-0.529-0.363-0.883-0.363c-0.909,0-1.778,0.74-2.606,2.219
		c-0.72,1.287-1.081,2.354-1.081,3.203c0,0.203,0.072,0.366,0.214,0.488c0.143,0.123,0.369,0.184,0.677,0.184
		C157.323,227.487,158.27,226.889,159.149,225.69z"/>
	<path d="M169.583,218.284c-0.126,0.146-0.301,0.219-0.525,0.219c-0.195,0-0.355-0.057-0.482-0.169
		c-0.126-0.112-0.189-0.245-0.189-0.397c0-0.104,0.054-0.285,0.163-0.541c0-0.068-0.037-0.129-0.112-0.182
		c-0.065-0.047-0.144-0.07-0.236-0.07c-0.431,0-0.791,0.42-1.081,1.261c-0.163,0.485-0.345,1.302-0.547,2.45h1.919l-0.121,0.523
		h-1.958l-1.646,5.104c-0.348,1.35-0.814,2.44-1.4,3.273c-0.586,0.832-1.336,1.248-2.25,1.248c-0.418,0-0.762-0.102-1.03-0.305
		s-0.402-0.43-0.402-0.68c0-0.156,0.056-0.303,0.167-0.438c0.112-0.136,0.28-0.203,0.503-0.203c0.195,0,0.36,0.059,0.495,0.176
		s0.202,0.262,0.202,0.434c0,0.094-0.03,0.188-0.09,0.285c-0.061,0.096-0.09,0.162-0.09,0.199c0,0.047,0.033,0.086,0.099,0.117
		c0.066,0.031,0.151,0.047,0.254,0.047c0.488,0,0.902-0.35,1.241-1.047c0.178-0.365,0.342-0.867,0.491-1.508l2.044-6.703h-1.592
		l0.121-0.523h1.667c0.314-1.213,0.666-2.111,1.057-2.695c0.581-0.896,1.298-1.344,2.151-1.344c0.391,0,0.716,0.102,0.976,0.305
		c0.259,0.203,0.389,0.436,0.389,0.695C169.773,217.982,169.71,218.139,169.583,218.284z"/>
</g>
<g enable-background="new    ">
	<path d="M127.661,177.868c0.031-0.114,0.053-0.218,0.066-0.309c0.013-0.091,0.02-0.168,0.02-0.23c0-0.067-0.017-0.134-0.051-0.199
		c-0.034-0.065-0.113-0.116-0.238-0.152c-0.037-0.011-0.098-0.019-0.184-0.023s-0.272-0.016-0.559-0.031v-0.273
		c0.167-0.026,0.349-0.05,0.546-0.07c0.196-0.021,0.462-0.058,0.797-0.109c0.037-0.005,0.195-0.039,0.475-0.102
		s0.48-0.094,0.601-0.094c0.026,0,0.051,0.011,0.074,0.031s0.036,0.052,0.036,0.094l-0.016,0.102l-1.595,5.906
		c0.466-0.667,0.862-1.151,1.188-1.453c0.569-0.526,1.157-0.789,1.763-0.789c0.57,0,1.027,0.188,1.371,0.566
		s0.517,0.845,0.517,1.402c0,1.297-0.565,2.511-1.695,3.641c-1.099,1.099-2.237,1.648-3.414,1.648c-0.536,0-1.028-0.12-1.477-0.359
		c-0.448-0.234-0.653-0.422-0.617-0.562L127.661,177.868z M130.032,185.259c0.721-1.078,1.082-2.065,1.082-2.961
		c0-0.406-0.106-0.73-0.319-0.973s-0.48-0.363-0.802-0.363c-0.825,0-1.613,0.739-2.366,2.219c-0.653,1.286-0.98,2.354-0.98,3.203
		c0,0.203,0.065,0.366,0.194,0.488c0.13,0.122,0.335,0.184,0.615,0.184C128.374,187.056,129.233,186.457,130.032,185.259z"/>
	<path d="M139.278,180.608c0.281,0.286,0.422,0.563,0.422,0.833c0,0.244-0.073,0.434-0.219,0.568
		c-0.146,0.135-0.318,0.202-0.516,0.202c-0.193,0-0.354-0.06-0.484-0.18c-0.13-0.12-0.195-0.269-0.195-0.445
		c0-0.136,0.043-0.281,0.129-0.438s0.129-0.258,0.129-0.305c0-0.094-0.054-0.173-0.16-0.238c-0.107-0.065-0.277-0.098-0.512-0.098
		c-0.839,0-1.566,0.478-2.184,1.432s-0.926,1.955-0.926,3.004c0,0.589,0.125,1.051,0.375,1.384c0.25,0.334,0.625,0.501,1.125,0.501
		c0.401,0,0.79-0.116,1.168-0.348c0.377-0.231,0.725-0.527,1.043-0.887l0.055-0.062l0.227,0.172c-0.365,0.464-0.716,0.82-1.055,1.07
		c-0.599,0.433-1.263,0.648-1.992,0.648c-0.698,0-1.263-0.223-1.695-0.668c-0.433-0.445-0.648-1.054-0.648-1.824
		c0-1.183,0.481-2.271,1.445-3.266c0.953-0.989,1.984-1.484,3.094-1.484C138.538,180.181,138.997,180.323,139.278,180.608z"/>
</g>
</svg>
