<?xml version="1.0" encoding="utf-8"?>
<!DOCTYPE svg PUBLIC "-//W3C//DTD SVG 1.1//EN" "http://www.w3.org/Graphics/SVG/1.1/DTD/svg11.dtd">
<svg version="1.1" id="Layer_1" xmlns="http://www.w3.org/2000/svg" xmlns:xlink="http://www.w3.org/1999/xlink" x="0px" y="0px"
	 width="635px" height="612px" viewBox="0 0 635 612" enable-background="new 0 0 635 612" xml:space="preserve">
<polyline fill="none" stroke="#0000FF" stroke-miterlimit="10" points="190.836,422.535 190.836,422.535 291.074,341.812 "/>
<polyline fill="none" stroke="#0000FF" stroke-miterlimit="10" points="291.074,341.812 291.074,341.812 474.695,341.812 "/>
<polyline fill="none" stroke="#0000FF" stroke-miterlimit="10" points="291.074,341.812 291.074,341.812 291.074,158.191 "/>
<polyline fill="none" stroke="#000000" stroke-width="1.5" stroke-miterlimit="10" points="85.928,250.777 85.928,250.777
	347.254,296.57 "/>
<polyline fill="none" stroke="#000000" stroke-width="1.5" stroke-miterlimit="10" points="190.836,39.102 190.836,39.102
	291.074,479.527 "/>
<polyline fill="none" stroke="#000000" stroke-width="1.5" stroke-miterlimit="10" points="153.359,341.812 153.359,341.812
	574.268,422.535 "/>
<polyline fill="none" stroke="#000000" stroke-width="1.5" stroke-miterlimit="10" points="612.41,158.191 612.41,158.191
	153.359,341.812 "/>
<polyline fill="none" stroke="#000000" stroke-width="1.5" stroke-miterlimit="10" points="347.254,296.57 347.254,296.57
	342.166,507.02 "/>
<polyline fill="none" stroke="#000000" stroke-width="1.5" stroke-miterlimit="10" points="474.695,20.477 474.695,20.477
	291.074,479.527 "/>
<path fill="#FF0000" d="M350.99,378.617L350.99,378.617v-0.012c-0.002-1.516-0.607-2.969-1.68-4.039
	c-1.074-1.07-2.529-1.672-4.045-1.672c-1.516,0.004-2.971,0.605-4.041,1.68c-1.072,1.07-1.674,2.527-1.674,4.043
	s0.602,2.969,1.674,4.043c1.07,1.07,2.525,1.676,4.041,1.676c1.516,0.004,2.971-0.598,4.045-1.668
	c1.072-1.07,1.678-2.523,1.68-4.043V378.617z"/>
<path fill="#FF0000" d="M296.365,286.727L296.365,286.727v-0.012c-0.002-1.402-0.562-2.746-1.555-3.734
	c-0.992-0.992-2.338-1.547-3.74-1.547s-2.748,0.559-3.738,1.551c-0.992,0.992-1.549,2.34-1.549,3.742s0.557,2.746,1.549,3.738
	c0.99,0.992,2.336,1.551,3.738,1.551s2.748-0.555,3.74-1.543c0.992-0.992,1.553-2.336,1.555-3.738V286.727z"/>
<path fill="#FF0000" d="M251.055,278.719L251.055,278.719v-0.012c-0.002-1.508-0.604-2.949-1.67-4.016
	c-1.066-1.062-2.512-1.66-4.02-1.66c-1.506,0.004-2.951,0.602-4.016,1.668s-1.662,2.512-1.662,4.02c0,1.504,0.598,2.949,1.662,4.016
	s2.51,1.664,4.016,1.668c1.508,0,2.953-0.598,4.02-1.66c1.066-1.066,1.668-2.508,1.67-4.016V278.719z"/>
<path fill="#FF0000" d="M158.355,341.812L158.355,341.812v-0.008c-0.004-1.328-0.531-2.594-1.469-3.531
	c-0.938-0.934-2.209-1.461-3.533-1.457c-1.324,0-2.594,0.527-3.529,1.465s-1.463,2.207-1.463,3.531s0.527,2.594,1.463,3.531
	s2.205,1.461,3.529,1.465c1.324,0,2.596-0.523,3.533-1.461c0.938-0.934,1.465-2.203,1.469-3.527V341.812z"/>
<path fill="#FF0000" d="M388.361,250L388.361,250v-0.008c-0.004-1.453-0.582-2.844-1.609-3.867c-1.027-1.027-2.42-1.602-3.873-1.602
	c-1.451,0.004-2.842,0.582-3.869,1.605c-1.025,1.027-1.602,2.422-1.602,3.871c0,1.453,0.576,2.844,1.602,3.871
	c1.027,1.027,2.418,1.605,3.869,1.605c1.453,0.004,2.846-0.574,3.873-1.598c1.027-1.027,1.605-2.418,1.609-3.867V250z"/>
<path fill="#FF0000" d="M296.107,479.527L296.107,479.527v-0.008c-0.002-1.336-0.535-2.613-1.479-3.555
	c-0.945-0.945-2.225-1.473-3.559-1.473c-1.334,0.004-2.613,0.535-3.557,1.477c-0.943,0.945-1.473,2.223-1.473,3.559
	c0,1.332,0.529,2.613,1.473,3.559c0.943,0.941,2.223,1.473,3.557,1.473c1.334,0.004,2.613-0.527,3.559-1.469
	c0.943-0.941,1.477-2.219,1.479-3.555V479.527z"/>
<path fill="#FF0000" d="M351.469,341.812L351.469,341.812v-0.012c-0.002-1.406-0.562-2.754-1.561-3.746
	c-0.996-0.996-2.346-1.555-3.752-1.551c-1.408,0-2.756,0.559-3.752,1.555c-0.994,0.996-1.553,2.348-1.553,3.754
	s0.559,2.754,1.553,3.75c0.996,0.996,2.344,1.555,3.752,1.559c1.406,0,2.756-0.559,3.752-1.551c0.998-0.992,1.559-2.344,1.561-3.75
	V341.812z"/>
<path fill="#FF0000" d="M270.006,363.145L270.006,363.145v-0.012c-0.004-1.438-0.576-2.812-1.594-3.828
	c-1.016-1.012-2.395-1.582-3.83-1.582c-1.438,0.004-2.814,0.574-3.83,1.59s-1.586,2.395-1.586,3.832c0,1.434,0.57,2.812,1.586,3.828
	s2.393,1.59,3.83,1.59c1.436,0,2.814-0.566,3.83-1.582c1.018-1.016,1.59-2.391,1.594-3.828V363.145z"/>
<path fill="#FF0000" d="M352.041,296.57L352.041,296.57v-0.008c-0.002-1.27-0.508-2.484-1.406-3.383
	c-0.898-0.895-2.115-1.398-3.385-1.398c-1.27,0.004-2.484,0.508-3.383,1.406c-0.896,0.895-1.4,2.113-1.4,3.383
	c0,1.266,0.504,2.484,1.4,3.383c0.898,0.898,2.113,1.402,3.383,1.402s2.486-0.5,3.385-1.398c0.898-0.895,1.404-2.109,1.406-3.379
	V296.57z"/>
<polygon opacity="0.65" fill="#FFFFFF" points="291.074,158.191 190.836,203.43 190.836,422.535 409.939,422.535 474.695,341.812
	474.695,158.191 "/>
<polygon opacity="0.15" fill="#0066FF" points="291.074,158.191 190.836,203.43 190.836,422.535 409.939,422.535 474.695,341.812
	474.695,158.191 "/>
<polyline fill="none" stroke="#000000" stroke-width="1.5" stroke-miterlimit="10" points="574.268,422.535 574.268,422.535
	26.51,203.43 "/>
<polyline fill="none" stroke="#000000" stroke-width="1.5" stroke-miterlimit="10" points="409.939,586.859 409.939,586.859
	190.836,39.102 "/>
<path fill="#FF0000" d="M580.77,422.535L580.77,422.535v-0.012c-0.004-1.727-0.689-3.375-1.91-4.594s-2.875-1.898-4.598-1.898
	c-1.725,0-3.377,0.688-4.596,1.906c-1.217,1.219-1.902,2.871-1.902,4.598c0,1.723,0.686,3.375,1.902,4.594
	c1.219,1.219,2.871,1.906,4.596,1.906c1.723,0.004,3.377-0.68,4.598-1.898c1.221-1.215,1.906-2.867,1.91-4.59V422.535z"/>
<path fill="#FF0000" d="M306.684,312.98L306.684,312.98v-0.008c-0.004-1.672-0.67-3.27-1.85-4.449
	c-1.182-1.176-2.783-1.836-4.451-1.836s-3.268,0.664-4.447,1.844c-1.18,1.184-1.842,2.781-1.842,4.449
	c0,1.672,0.662,3.27,1.842,4.449c1.18,1.184,2.779,1.844,4.447,1.848c1.668,0,3.27-0.66,4.451-1.84
	c1.18-1.176,1.846-2.777,1.85-4.445V312.98z"/>
<path fill="#FF0000" d="M197.158,39.102L197.158,39.102v-0.008c-0.004-1.676-0.672-3.281-1.857-4.465s-2.795-1.848-4.469-1.848
	c-1.676,0.004-3.283,0.668-4.467,1.855c-1.186,1.184-1.85,2.789-1.85,4.465s0.664,3.285,1.85,4.469
	c1.184,1.188,2.791,1.852,4.467,1.855c1.674,0,3.283-0.664,4.469-1.848s1.854-2.789,1.857-4.465V39.102z"/>
<polyline fill="none" stroke="#0000FF" stroke-miterlimit="10" points="190.836,422.535 190.836,422.535 409.939,422.535 "/>
<polyline fill="none" stroke="#0000FF" stroke-miterlimit="10" points="190.836,422.535 190.836,422.535 190.836,203.43 "/>
<polyline fill="none" stroke="#0000FF" stroke-miterlimit="10" points="190.836,203.43 190.836,203.43 409.939,203.43 "/>
<polyline fill="none" stroke="#0000FF" stroke-miterlimit="10" points="409.939,422.535 409.939,422.535 409.939,203.43 "/>
<polyline fill="none" stroke="#0000FF" stroke-miterlimit="10" points="409.939,422.535 409.939,422.535 474.695,341.812 "/>
<polyline fill="none" stroke="#0000FF" stroke-miterlimit="10" points="190.836,203.43 190.836,203.43 291.074,158.191 "/>
<polyline fill="none" stroke="#0000FF" stroke-miterlimit="10" points="291.074,158.191 291.074,158.191 474.695,158.191 "/>
<polyline fill="none" stroke="#0000FF" stroke-miterlimit="10" points="474.695,341.812 474.695,341.812 474.695,158.191 "/>
<polyline fill="none" stroke="#0000FF" stroke-miterlimit="10" points="409.939,203.43 409.939,203.43 474.695,158.191 "/>
<path fill="#FF0000" d="M350.404,422.535L350.404,422.535v-0.012c-0.002-1.645-0.658-3.219-1.82-4.375
	c-1.162-1.16-2.738-1.812-4.381-1.812c-1.643,0.004-3.217,0.656-4.377,1.82c-1.162,1.16-1.812,2.734-1.812,4.379
	c0,1.641,0.65,3.215,1.812,4.379c1.16,1.16,2.734,1.812,4.377,1.816c1.643,0,3.219-0.648,4.381-1.809s1.818-2.734,1.82-4.379
	V422.535z"/>
<path fill="#FF0000" d="M196.969,269.16L196.969,269.16v-0.008c-0.004-1.625-0.652-3.184-1.803-4.332s-2.709-1.793-4.334-1.789
	c-1.625,0-3.184,0.648-4.332,1.797c-1.15,1.148-1.795,2.707-1.795,4.332s0.645,3.184,1.795,4.336
	c1.148,1.148,2.707,1.797,4.332,1.797s3.184-0.641,4.334-1.789s1.799-2.707,1.803-4.332V269.16z"/>
<polyline fill="none" stroke="#000000" stroke-width="1.5" stroke-miterlimit="10" points="510.988,132.836 510.988,132.836
	85.928,250.777 "/>
<path fill="#FF0000" d="M425.232,158.191L425.232,158.191v-0.012c-0.002-1.488-0.598-2.918-1.652-3.969
	c-1.055-1.055-2.486-1.645-3.977-1.645c-1.49,0.004-2.92,0.594-3.973,1.648c-1.055,1.055-1.646,2.484-1.646,3.977
	c0,1.488,0.592,2.918,1.646,3.973c1.053,1.055,2.482,1.648,3.973,1.648c1.49,0.004,2.922-0.586,3.977-1.641
	c1.055-1.051,1.65-2.48,1.652-3.973V158.191z"/>
<path fill="#FF0000" d="M92.854,250.777L92.854,250.777v-0.012c-0.004-1.836-0.736-3.594-2.035-4.891
	c-1.301-1.297-3.061-2.023-4.896-2.023c-1.836,0.004-3.598,0.734-4.895,2.031c-1.297,1.301-2.025,3.059-2.025,4.895
	s0.729,3.598,2.025,4.898c1.297,1.297,3.059,2.027,4.895,2.031c1.836,0,3.596-0.727,4.896-2.023
	c1.299-1.297,2.031-3.055,2.035-4.891V250.777z"/>
<path fill="#FF0000" d="M262.912,203.43L262.912,203.43v-0.012c-0.002-1.68-0.674-3.293-1.863-4.48
	c-1.191-1.188-2.805-1.852-4.486-1.852s-3.295,0.672-4.482,1.859c-1.189,1.191-1.857,2.805-1.857,4.484
	c0,1.684,0.668,3.297,1.857,4.484c1.188,1.191,2.801,1.859,4.482,1.859c1.682,0.004,3.295-0.664,4.486-1.852
	c1.189-1.188,1.861-2.797,1.863-4.48V203.43z"/>
<polyline fill="none" stroke="#000000" stroke-width="1.5" stroke-miterlimit="10" points="612.41,158.191 612.41,158.191
	26.51,203.43 "/>
<path fill="#FF0000" d="M618.26,158.191L618.26,158.191v-0.012c-0.002-1.551-0.621-3.035-1.719-4.133
	c-1.098-1.094-2.586-1.707-4.135-1.707c-1.551,0.004-3.039,0.621-4.135,1.715c-1.096,1.098-1.711,2.586-1.711,4.137
	s0.615,3.035,1.711,4.133s2.584,1.715,4.135,1.715c1.549,0.004,3.037-0.613,4.135-1.707s1.717-2.582,1.719-4.133V158.191z"/>
<path fill="#FF0000" d="M230.699,188.125L230.699,188.125v-0.012c-0.002-1.578-0.631-3.086-1.746-4.199
	c-1.117-1.113-2.629-1.738-4.205-1.738s-3.088,0.629-4.203,1.742c-1.113,1.117-1.74,2.629-1.74,4.207
	c0,1.574,0.627,3.086,1.74,4.203c1.115,1.113,2.627,1.742,4.203,1.742s3.088-0.621,4.205-1.734c1.115-1.113,1.744-2.625,1.746-4.203
	V188.125z"/>
<path fill="#FF0000" d="M351.244,178.816L351.244,178.816v-0.008c-0.002-1.586-0.635-3.102-1.756-4.219
	c-1.121-1.121-2.639-1.746-4.223-1.746s-3.102,0.633-4.221,1.75c-1.119,1.121-1.748,2.641-1.748,4.223
	c0,1.586,0.629,3.102,1.748,4.223s2.637,1.75,4.221,1.754c1.584,0,3.102-0.629,4.223-1.746s1.754-2.637,1.756-4.219V178.816z"/>
<path fill="#FF0000" d="M32.34,203.43L32.34,203.43v-0.008c-0.002-1.547-0.619-3.027-1.713-4.121
	c-1.094-1.09-2.578-1.703-4.123-1.699c-1.545,0-3.027,0.613-4.119,1.707s-1.705,2.578-1.705,4.121c0,1.547,0.613,3.027,1.705,4.121
	s2.574,1.707,4.119,1.711c1.545,0,3.029-0.613,4.123-1.703s1.711-2.574,1.713-4.117V203.43z"/>
<polyline fill="none" stroke="#000000" stroke-width="1.5" stroke-miterlimit="10" points="510.988,132.836 510.988,132.836
	342.166,507.02 "/>
<path fill="#FF0000" d="M480.34,213.277L480.34,213.277v-0.012c-0.004-1.496-0.6-2.93-1.658-3.984
	c-1.061-1.059-2.496-1.648-3.992-1.648s-2.93,0.598-3.988,1.656c-1.057,1.059-1.65,2.492-1.65,3.988s0.594,2.93,1.65,3.988
	c1.059,1.059,2.492,1.656,3.988,1.656s2.932-0.59,3.992-1.648c1.059-1.055,1.654-2.492,1.658-3.988V213.277z"/>
<path fill="#FF0000" d="M349.227,507.02L349.227,507.02v-0.012c-0.004-1.875-0.75-3.668-2.074-4.988
	c-1.326-1.32-3.121-2.062-4.992-2.062c-1.871,0.004-3.666,0.746-4.988,2.07s-2.066,3.121-2.066,4.992s0.744,3.664,2.066,4.988
	s3.117,2.07,4.988,2.07c1.871,0.004,3.666-0.738,4.992-2.062c1.324-1.32,2.07-3.113,2.074-4.984V507.02z"/>
<path fill="#FF0000" d="M416.355,356.805L416.355,356.805v-0.012c-0.002-1.703-0.682-3.332-1.885-4.531
	c-1.205-1.203-2.836-1.875-4.537-1.875c-1.699,0-3.33,0.68-4.533,1.883c-1.201,1.203-1.877,2.832-1.877,4.535
	c0,1.699,0.676,3.328,1.877,4.531c1.203,1.203,2.834,1.883,4.533,1.883c1.701,0,3.332-0.672,4.537-1.875
	c1.203-1.199,1.883-2.828,1.885-4.531V356.805z"/>
<path fill="#FF0000" d="M516.133,132.836L516.133,132.836v-0.012c-0.004-1.363-0.547-2.668-1.512-3.633
	c-0.965-0.961-2.273-1.5-3.637-1.5s-2.672,0.543-3.635,1.508c-0.965,0.965-1.506,2.273-1.506,3.637s0.541,2.672,1.506,3.637
	c0.963,0.961,2.271,1.504,3.635,1.508c1.363,0,2.672-0.539,3.637-1.504c0.965-0.961,1.508-2.27,1.512-3.633V132.836z"/>
<polyline fill="none" stroke="#000000" stroke-width="1.5" stroke-miterlimit="10" points="474.695,20.477 474.695,20.477
	409.939,586.859 "/>
<path fill="#FF0000" d="M480.486,20.477L480.486,20.477v-0.012c-0.002-1.535-0.615-3.008-1.701-4.09
	c-1.088-1.086-2.561-1.691-4.096-1.691s-3.006,0.613-4.092,1.699s-1.695,2.559-1.695,4.094s0.609,3.008,1.695,4.094
	s2.557,1.695,4.092,1.695c1.535,0.004,3.008-0.605,4.096-1.691c1.086-1.082,1.699-2.555,1.701-4.09V20.477z"/>
<path fill="#FF0000" d="M451.186,278.719L451.186,278.719v-0.012c-0.002-1.594-0.639-3.125-1.768-4.25s-2.658-1.758-4.254-1.754
	c-1.594,0-3.123,0.633-4.25,1.762s-1.76,2.656-1.76,4.254c0,1.594,0.633,3.121,1.76,4.25s2.656,1.762,4.25,1.766
	c1.596,0,3.125-0.633,4.254-1.758s1.766-2.656,1.768-4.25V278.719z"/>
<path fill="#FF0000" d="M437.881,395.223L437.881,395.223v-0.012c-0.002-1.598-0.639-3.133-1.771-4.262s-2.666-1.762-4.266-1.762
	c-1.598,0.004-3.131,0.641-4.262,1.77c-1.129,1.133-1.764,2.664-1.764,4.266c0,1.598,0.635,3.129,1.764,4.262
	c1.131,1.129,2.664,1.766,4.262,1.77c1.6,0,3.133-0.633,4.266-1.762s1.77-2.66,1.771-4.262V395.223z"/>
<path fill="#FF0000" d="M415.912,586.859L415.912,586.859v-0.008c-0.004-1.582-0.635-3.102-1.756-4.219s-2.639-1.746-4.223-1.742
	c-1.582,0-3.1,0.629-4.219,1.75s-1.746,2.637-1.746,4.219c0,1.586,0.627,3.102,1.746,4.223s2.637,1.75,4.219,1.75
	c1.584,0,3.102-0.625,4.223-1.742s1.752-2.637,1.756-4.219V586.859z"/>
<path fill="#FF0000" d="M463.539,170.145L463.539,170.145v-0.008c-0.004-1.582-0.633-3.094-1.75-4.207
	c-1.117-1.117-2.633-1.742-4.211-1.738c-1.578,0-3.092,0.629-4.209,1.746c-1.115,1.117-1.742,2.629-1.742,4.207
	s0.627,3.094,1.742,4.211c1.117,1.117,2.631,1.746,4.209,1.746s3.094-0.625,4.211-1.738c1.117-1.117,1.746-2.629,1.75-4.207V170.145
	z"/>
</svg>
