<?xml version="1.0" encoding="utf-8"?>
<!DOCTYPE svg PUBLIC "-//W3C//DTD SVG 1.1//EN" "http://www.w3.org/Graphics/SVG/1.1/DTD/svg11.dtd">
<svg version="1.1" id="Layer_1" xmlns="http://www.w3.org/2000/svg" xmlns:xlink="http://www.w3.org/1999/xlink" x="0px" y="0px"
	 width="546.941px" height="344.621px" viewBox="0 0 546.941 344.621" enable-background="new 0 0 546.941 344.621"
	 xml:space="preserve">
<g>
	<defs>
		<rect id="SVGID_1_" width="546.941" height="344.621"/>
	</defs>
	<clipPath id="SVGID_2_">
		<use xlink:href="#SVGID_1_"  overflow="visible"/>
	</clipPath>
	<g clip-path="url(#SVGID_2_)">
			<line fill="none" stroke="#006837" stroke-width="0.75" stroke-miterlimit="10" x1="-8.827" y1="347.405" x2="459.675" y2="-97.166"/>
		<polyline fill="none" stroke="#000000" stroke-width="1.5" stroke-miterlimit="10" points="209.807,139.939 209.807,139.939
			241.041,110.3 		"/>
			<line fill="none" stroke="#0071BC" stroke-width="0.75" stroke-miterlimit="10" x1="-181.191" y1="-99.37" x2="563.563" y2="356.448"/>
		<polyline fill="none" stroke="#000000" stroke-width="1.5" stroke-miterlimit="10" points="209.807,139.939 209.807,139.939
			172.569,117.148 		"/>
			<line fill="none" stroke="#FF00FF" stroke-width="0.75" stroke-miterlimit="10" x1="27.098" y1="477.018" x2="304.188" y2="-208.448"/>
			<line fill="none" stroke="#FF00FF" stroke-width="0.75" stroke-miterlimit="10" x1="373.45" y1="464.743" x2="121.24" y2="-210.388"/>
			<line fill="none" stroke="#FF00FF" stroke-width="0.75" stroke-miterlimit="10" x1="210.916" y1="528.028" x2="208.801" y2="-211.188"/>
			<line fill="none" stroke="#006837" stroke-width="0.75" stroke-miterlimit="10" x1="-26.571" y1="383.423" x2="400.165" y2="-187.169"/>
			<line fill="none" stroke="#006837" stroke-width="0.75" stroke-miterlimit="10" x1="-108.915" y1="478.257" x2="464.581" y2="-222.097"/>
			<line fill="none" stroke="#006837" stroke-width="0.75" stroke-miterlimit="10" x1="-96.253" y1="406.797" x2="559.819" y2="-85.838"/>
			<line fill="none" stroke="#0071BC" stroke-width="0.75" stroke-miterlimit="10" x1="-327.665" y1="-90.625" x2="696.294" y2="418.946"/>
			<line fill="none" stroke="#0071BC" stroke-width="0.75" stroke-miterlimit="10" x1="-341.729" y1="-268.868" x2="792.333" y2="517.665"/>
			<line fill="none" stroke="#0071BC" stroke-width="0.75" stroke-miterlimit="10" x1="-179.192" y1="-217.218" x2="621.253" y2="406.628"/>
			<line fill="none" stroke="#F15A24" stroke-width="0.75" stroke-miterlimit="10" x1="196.949" y1="104.731" x2="209.807" y2="139.939"/>
			<line fill="none" stroke="#F15A24" stroke-width="0.75" stroke-miterlimit="10" x1="201.019" y1="79.109" x2="209.914" y2="176.9"/>
			<line fill="none" stroke="#F15A24" stroke-width="0.75" stroke-miterlimit="10" x1="158.715" y1="151.422" x2="241.041" y2="110.3"/>
			<line fill="none" stroke="#F15A24" stroke-width="0.75" stroke-miterlimit="10" x1="253.651" y1="144.058" x2="172.569" y2="117.148"/>
		<polyline fill="none" stroke="#000000" stroke-width="1.5" stroke-miterlimit="10" points="209.807,139.939 209.807,139.939
			209.914,176.9 		"/>
		<polyline fill="none" stroke="#000000" stroke-width="1.5" stroke-miterlimit="10" points="241.041,110.3 241.041,110.3
			253.651,144.058 		"/>
		<polyline fill="none" stroke="#000000" stroke-width="1.5" stroke-miterlimit="10" points="209.914,176.9 209.914,176.9
			253.651,144.058 		"/>
		<polyline fill="none" stroke="#000000" stroke-width="1.5" stroke-miterlimit="10" points="209.914,176.9 209.914,176.9
			158.715,151.422 		"/>
		<polyline fill="none" stroke="#000000" stroke-width="1.5" stroke-miterlimit="10" points="172.569,117.148 172.569,117.148
			158.715,151.422 		"/>
		<polyline fill="none" stroke="#000000" stroke-width="1.5" stroke-miterlimit="10" points="172.569,117.148 172.569,117.148
			201.019,79.109 		"/>
		<polyline fill="none" stroke="#000000" stroke-width="1.5" stroke-miterlimit="10" points="241.041,110.3 241.041,110.3
			201.019,79.109 		"/>
			<line fill="none" stroke="#FFFFFF" stroke-width="4" stroke-miterlimit="10" x1="170.329" y1="137.239" x2="192.365" y2="110.33"/>
			<line fill="none" stroke="#FFFFFF" stroke-width="4" stroke-miterlimit="10" x1="253.651" y1="144.058" x2="253.651" y2="144.058"/>
		<polyline fill="none" stroke="#000000" stroke-width="1.5" stroke-miterlimit="10" points="158.715,151.422 158.715,151.422
			196.949,104.731 		"/>
			<line fill="none" stroke="#FFFFFF" stroke-width="4" stroke-miterlimit="10" x1="235.762" y1="131.651" x2="200.275" y2="107.042"/>
		<polyline fill="none" stroke="#000000" stroke-width="1.5" stroke-miterlimit="10" points="253.651,144.058 253.651,144.058
			196.949,104.731 		"/>
			<line fill="none" stroke="#FF00FF" stroke-width="0.75" stroke-miterlimit="10" x1="158.281" y1="348.145" x2="239.687" y2="-164.304"/>
		<polyline fill="none" stroke="#000000" stroke-width="1.5" stroke-miterlimit="10" points="201.019,79.109 201.019,79.109
			196.949,104.731 		"/>
		<circle fill="#FFFFFF" stroke="#000000" stroke-width="0.5" stroke-miterlimit="10" cx="209.48" cy="25.841" r="2"/>
		<circle fill="#FFFFFF" stroke="#000000" stroke-width="0.5" stroke-miterlimit="10" cx="201.019" cy="79.109" r="2"/>
		<circle fill="#FFFFFF" stroke="#000000" stroke-width="0.5" stroke-miterlimit="10" cx="196.948" cy="104.731" r="2"/>
		<circle fill="#FFFFFF" stroke="#000000" stroke-width="0.5" stroke-miterlimit="10" cx="205.389" cy="128.04" r="2"/>
		<circle fill="#FFFFFF" stroke="#000000" stroke-width="0.5" stroke-miterlimit="10" cx="172.57" cy="117.148" r="2"/>
		<circle fill="#FFFFFF" stroke="#000000" stroke-width="0.5" stroke-miterlimit="10" cx="158.715" cy="151.421" r="2"/>
		<circle fill="#FFFFFF" stroke="#000000" stroke-width="0.5" stroke-miterlimit="10" cx="209.914" cy="176.9" r="2"/>
		<circle fill="#FFFFFF" stroke="#000000" stroke-width="0.5" stroke-miterlimit="10" cx="253.65" cy="144.058" r="2"/>
		<circle fill="#FFFFFF" stroke="#000000" stroke-width="0.5" stroke-miterlimit="10" cx="241.041" cy="110.301" r="2"/>
		<circle fill="#FFFFFF" stroke="#000000" stroke-width="0.5" stroke-miterlimit="10" cx="209.807" cy="139.939" r="2"/>
		<circle fill="#FFFFFF" stroke="#000000" stroke-width="0.5" stroke-miterlimit="10" cx="22.767" cy="317.424" r="2"/>
		<circle fill="#FFFFFF" stroke="#000000" stroke-width="0.5" stroke-miterlimit="10" cx="532.249" cy="337.282" r="1.999"/>
	</g>
</g>
</svg>
