<?xml version="1.0" encoding="utf-8"?>
<!-- Generator: Adobe Illustrator 15.1.0, SVG Export Plug-In . SVG Version: 6.00 Build 0)  -->
<!DOCTYPE svg PUBLIC "-//W3C//DTD SVG 1.1//EN" "http://www.w3.org/Graphics/SVG/1.1/DTD/svg11.dtd">
<svg version="1.1" id="Layer_1" xmlns="http://www.w3.org/2000/svg" xmlns:xlink="http://www.w3.org/1999/xlink" x="0px" y="0px"
	 width="384px" height="336px" viewBox="0 0 384 336" enable-background="new 0 0 384 336" xml:space="preserve">
<polygon fill="#0081CD" stroke="#231F20" stroke-miterlimit="10" points="192.004,4.998 379.064,329 4.941,329 "/>
<polygon fill="#FFFFFF" stroke="#231F20" stroke-linejoin="bevel" stroke-miterlimit="10" points="192.004,221.002 212.786,256.998 
	233.572,221 "/>
<polygon fill="#FFFFFF" stroke="#231F20" stroke-linejoin="bevel" stroke-miterlimit="10" points="150.436,221.004 171.218,257 
	192.004,221.002 "/>
<polygon fill="#FFFFFF" stroke="#231F20" stroke-linejoin="bevel" stroke-miterlimit="10" points="171.22,185.003 192.002,221 
	212.788,185.001 "/>
<polygon fill="#FFFFFF" stroke="#231F20" stroke-linejoin="bevel" stroke-miterlimit="10" points="233.572,256.998 150.435,257.001 
	192.003,329 "/>
<polygon fill="#FFFFFF" stroke="#231F20" stroke-linejoin="bevel" stroke-miterlimit="10" points="285.534,167 202.396,167.002 
	243.965,239.001 "/>
<polygon fill="#FFFFFF" stroke="#231F20" stroke-linejoin="bevel" stroke-miterlimit="10" points="181.61,167 98.473,167.002 
	140.041,239.001 "/>
<polygon fill="#FFFFFF" stroke="#231F20" stroke-linejoin="bevel" stroke-miterlimit="10" points="160.826,239.001 108.865,329 
	56.903,239.001 "/>
<polygon fill="#FFFFFF" stroke="#231F20" stroke-linejoin="bevel" stroke-miterlimit="10" points="327.104,239.001 275.144,329 
	223.182,239.001 "/>
<polygon fill="#FFFFFF" stroke="#231F20" stroke-linejoin="bevel" stroke-miterlimit="10" points="243.965,95.001 192.004,185 
	140.042,95.001 "/>
</svg>
