<svg xmlns="http://www.w3.org/2000/svg" width="580" height="580">
    <path fill="#7DFF00" d="M373.139 338.999a47.83 47.83 0 0 1-11.881 13.716v.002c.48 3.359.743 6.79.743 10.282a71.642 71.642 0 0 1-9.651 35.992c24.854-.022 49.019-12.905 62.346-35.972l.013-.02.012-.021a144.696 144.696 0 0 0-35.642-41.128h-.001a47.882 47.882 0 0 1-5.939 17.149z" opacity=".5"/>
    <path fill="#FF4000" d="M331.565 362.993l20.784 35.998A71.642 71.642 0 0 0 362 362.999c0-3.492-.263-6.923-.743-10.282h-.002a144.302 144.302 0 0 1-23.303-11.855 47.7 47.7 0 0 1-6.387 22.131z" opacity=".5"/>
    <path fill="#00A0C6" d="M352.358 326.99l-.005.009-.005.007a35.812 35.812 0 0 1-14.396 13.84v.016a144.222 144.222 0 0 0 23.303 11.855l.002-.002c4.666-3.67 8.731-8.261 11.881-13.716s5.093-11.272 5.938-17.148a71.498 71.498 0 0 1-26.718 5.139z" opacity=".5"/>
    <path fill="#F6C" d="M342.706 94.291c-68.821 39.734-92.435 127.699-52.797 196.55l.088.154.001.002h.001l-.001.002c.829 0 1.652.021 2.471.062 25.604.865 47.804 15.088 59.869 35.929h.019a71.488 71.488 0 0 0 26.719-5.14v-.001l.001.001a144.712 144.712 0 0 1 35.667 41.17c24.461.017 49.255-6.202 71.962-19.312 68.874-39.766 92.473-127.835 52.708-196.709S411.581 54.526 342.706 94.291z" opacity=".5"/>
    <path fill="#E4BC96" d="M290.003 291.003l.088.153-.092-.155c-.311.538-.59 1.085-.885 1.627-.098.181-.198.36-.295.542-11.567 22.607-3.49 50.558 18.751 63.398a47.763 47.763 0 0 0 23.995 6.425 47.728 47.728 0 0 0 6.388-22.132l-.015-.009.015-.007a35.818 35.818 0 0 0 14.396-13.84l-.009-.016c-12.065-20.841-34.266-35.063-59.869-35.929-.821-.027-1.642-.062-2.471-.062l.003.005z" opacity=".5"/>
    <path fill="none" stroke="#0FF" stroke-width=".5" d="M2 290.999h576.001"/>
    <circle fill="none" stroke="#0FF" stroke-width=".5" cx="290" cy="218.999" r="72"/>
    <circle fill="none" stroke="#0FF" stroke-width=".5" cx="290" cy="147" r="144.001"/>
    <circle fill="none" stroke="#0FF" stroke-width=".5" cx="290" cy="254.999" r="36"/>
    <circle fill="none" stroke="#0FF" stroke-width=".5" cx="290.001" cy="194.999" r="96"/>
    <circle fill="none" stroke="#0FF" stroke-width=".5" cx="290" cy="242.999" r="48"/>
    <circle fill="none" stroke="#0FF" stroke-width=".5" cx="290" cy="362.999" r="72"/>
    <circle fill="none" stroke="#0FF" stroke-width=".5" cx="290" cy="434.998" r="144.001"/>
    <circle fill="none" stroke="#0FF" stroke-width=".5" cx="290" cy="326.999" r="36"/>
    <circle fill="none" stroke="#0FF" stroke-width=".5" cx="290.001" cy="386.999" r="96"/>
    <circle fill="none" stroke="#0FF" stroke-width=".5" cx="290" cy="338.999" r="48"/>
    <path fill="none" stroke="#0FF" stroke-width=".5" d="M434 540.414L146 41.583"/>
    <circle fill="none" stroke="#0FF" stroke-width=".5" cx="227.646" cy="326.999" r="72"/>
    <circle fill="none" stroke="#0FF" stroke-width=".5" cx="165.293" cy="362.999" r="144.001"/>
    <circle fill="none" stroke="#0FF" stroke-width=".5" cx="258.823" cy="308.999" r="36"/>
    <circle fill="none" stroke="#0FF" stroke-width=".5" cx="206.861" cy="338.999" r="96"/>
    <circle fill="none" stroke="#0FF" stroke-width=".5" cx="248.431" cy="314.999" r="48"/>
    <circle fill="none" stroke="#0FF" stroke-width=".5" cx="352.354" cy="254.999" r="72"/>
    <circle fill="none" stroke="#0FF" stroke-width=".5" cx="414.707" cy="219" r="144.001"/>
    <circle fill="none" stroke="#0FF" stroke-width=".5" cx="321.177" cy="272.999" r="36"/>
    <circle fill="none" stroke="#0FF" stroke-width=".5" cx="373.138" cy="242.999" r="96"/>
    <circle fill="none" stroke="#0FF" stroke-width=".5" cx="331.569" cy="266.999" r="48"/>
    <path fill="none" stroke="#0FF" stroke-width=".5" d="M434 41.584L146 540.415"/>
    <circle fill="none" stroke="#0FF" stroke-width=".5" cx="352.354" cy="327" r="72"/>
    <circle fill="none" stroke="#0FF" stroke-width=".5" cx="414.707" cy="362.999" r="144.001"/>
    <circle fill="none" stroke="#0FF" stroke-width=".5" cx="321.177" cy="308.999" r="36"/>
    <circle fill="none" stroke="#0FF" stroke-width=".5" cx="373.138" cy="339" r="96"/>
    <circle fill="none" stroke="#0FF" stroke-width=".5" cx="331.569" cy="315" r="48"/>
    <circle fill="none" stroke="#0FF" stroke-width=".5" cx="227.646" cy="254.999" r="72"/>
    <circle fill="none" stroke="#0FF" stroke-width=".5" cx="165.293" cy="219" r="144.001"/>
    <circle fill="none" stroke="#0FF" stroke-width=".5" cx="258.823" cy="272.999" r="36"/>
    <circle fill="none" stroke="#0FF" stroke-width=".5" cx="206.862" cy="242.999" r="96"/>
    <circle fill="none" stroke="#0FF" stroke-width=".5" cx="248.431" cy="266.999" r="48"/>
    <path fill="none" stroke="#000" d="M373.139 338.999a47.83 47.83 0 0 1-11.881 13.716v.002c.48 3.359.743 6.79.743 10.282a71.642 71.642 0 0 1-9.651 35.992c24.854-.022 49.019-12.905 62.346-35.972l.013-.02.012-.021a144.696 144.696 0 0 0-35.642-41.128h-.001a47.882 47.882 0 0 1-5.939 17.149z"/>
    <path fill="none" stroke="#000" d="M331.565 362.993l20.784 35.998A71.642 71.642 0 0 0 362 362.999c0-3.492-.263-6.923-.743-10.282h-.002a144.302 144.302 0 0 1-23.303-11.855 47.7 47.7 0 0 1-6.387 22.131z"/>
    <path fill="none" stroke="#000" d="M352.358 326.99l-.005.009-.005.007a35.812 35.812 0 0 1-14.396 13.84v.016a144.222 144.222 0 0 0 23.303 11.855l.002-.002c4.666-3.67 8.731-8.261 11.881-13.716s5.093-11.272 5.938-17.148a71.498 71.498 0 0 1-26.718 5.139z"/>
    <path fill="none" stroke="#000" d="M342.706 94.291c-68.821 39.734-92.435 127.699-52.797 196.55l.088.154.001.002h.001l-.001.002c.829 0 1.652.021 2.471.062 25.604.865 47.804 15.088 59.869 35.929h.019a71.488 71.488 0 0 0 26.719-5.14v-.001l.001.001a144.712 144.712 0 0 1 35.667 41.17c24.461.017 49.255-6.202 71.962-19.312 68.874-39.766 92.473-127.835 52.708-196.709S411.581 54.526 342.706 94.291z"/>
    <path fill="none" stroke="#000" d="M290.003 291.003l.088.153-.092-.155c-.311.538-.59 1.085-.885 1.627-.098.181-.198.36-.295.542-11.567 22.607-3.49 50.558 18.751 63.398a47.763 47.763 0 0 0 23.995 6.425 47.728 47.728 0 0 0 6.388-22.132l-.015-.009.015-.007a35.818 35.818 0 0 0 14.396-13.84l-.009-.016c-12.065-20.841-34.266-35.063-59.869-35.929-.821-.027-1.642-.062-2.471-.062l.003.005z"/>
</svg>
