<svg xmlns="http://www.w3.org/2000/svg" width="335" height="290">
    <path opacity=".5" fill="#00A0C6" d="M113.295 131.057l54.001 31.176 54.001-31.177-54.001-31.176z"/>
    <path opacity=".5" fill="#FF4000" d="M167.296 162.233l-54.001-31.176v62.354l54.003 31.177z"/>
    <path opacity=".5" fill="#7DFF00" d="M167.296 162.233l.002 62.355 53.999-31.177v-62.355z"/>
    <path opacity=".5" fill="#E4BC96" d="M113.295 193.411l-.249-62.178 54.249-31.354V20.482c-78.287.001-141.75 63.464-141.75 141.751 0 25.824 6.909 50.032 18.974 70.885l68.776-39.707z"/>
    <path fill="none" stroke="#0FF" stroke-width=".5" d="M221.296 270.233V.232m-54 270.001V.232m-54.001 270.001V.232m120.532 61.236L0 196.468m260.827-88.235L27 243.233m260.827-88.234L54 290m-7.235-135.001l233.827 135M73.765 108.233l233.827 135M100.766 61.468l233.828 135"/>
    <path opacity=".5" fill="#F6C" d="M221.299 193.411l68.773 39.707c12.065-20.853 18.975-45.061 18.975-70.885 0-78.287-63.465-141.751-141.751-141.751v79.397l54 31.177.003 62.355z"/>
    <path fill="none" stroke="#000" d="M113.047 131.233l54.249 31 54-31.176-54-31.177z"/>
    <path fill="none" stroke="#000" d="M113.047 131.233l.248 62.178 54.003 31.177-.002-62.355m.002 62.355l54.001-31.177-.003-62.354m-108.001 62.354l-86.248 49.822M167.296 99.88V.232m54.003 193.179l86.293 49.822"/>
</svg>
