<svg xmlns="http://www.w3.org/2000/svg" xmlns:xlink="http://www.w3.org/1999/xlink" width="330" height="330">
    <defs>
        <circle id="a" cx="165" cy="164.999" r="164"/>
    </defs>
    <clipPath id="b">
        <use xlink:href="#a" overflow="visible"/>
    </clipPath>
    <g clip-path="url(#b)">
        <path fill="none" stroke="#0FF" stroke-width=".5" d="M-116.157 329.846l529.09-305.472M-11.838 357.796C38.334 170.548 230.8 59.428 418.048 109.602"/>
        <path fill="none" stroke="#0FF" stroke-width=".5" d="M182.828 465.861C82.002 438.846 22.168 335.209 49.184 234.385 76.2 133.561 179.835 73.727 280.66 100.742s160.66 130.652 133.644 231.477M341.683-22.672C291.509 164.574 99.043 275.695-88.205 225.521"/>
        <path fill="none" stroke="#0FF" stroke-width=".5" d="M147.017-130.738C247.84-103.723 307.675-.086 280.658 100.738c-27.016 100.824-130.65 160.659-231.477 133.643C-51.644 207.365-111.477 103.73-84.461 2.905M446 329.842L-83.088 24.371m501.137 201.15C230.803 275.695 38.336 164.576-11.838-22.672"/>
        <path fill="none" stroke="#0FF" stroke-width=".5" d="M414.304 2.904c27.015 100.824-32.817 204.461-133.644 231.477-100.825 27.016-204.461-32.817-231.476-133.643S82.002-103.724 182.826-130.74M-88.207 109.6C99.04 59.426 291.508 170.547 341.68 357.796"/>
        <path fill="none" stroke="#0FF" stroke-width=".5" d="M-84.461 332.219c-27.016-100.826 32.817-204.462 133.643-231.477 100.824-27.018 204.461 32.816 231.479 133.644 27.015 100.823-32.821 204.46-133.644 231.476M164.92-157v610.939M88.553-80.635c137.076 137.076 137.074 359.316 0 496.391"/>
        <path fill="none" stroke="#0FF" stroke-width=".5" d="M-102.368 33.919c73.81-73.81 193.477-73.811 267.286 0 73.81 73.81 73.811 193.477 0 267.287-73.807 73.81-193.478 73.81-267.286 0m343.656 114.552c-137.074-137.074-137.074-359.316.001-496.39"/>
        <path fill="none" stroke="#0FF" stroke-width=".5" d="M432.21 301.206c-73.811 73.808-193.479 73.808-267.287-.001-73.81-73.81-73.809-193.477 0-267.287 73.81-73.809 193.477-73.809 267.286 0"/>
        <path fill="#F6C" d="M409.061 117.449a247.5 247.5 0 0 0-28.055-74.059c-13.231-22.977-30.03-43.636-49.627-61.241-25.467-22.877-55.668-40.577-88.96-51.462-24.394-7.977-50.438-12.307-77.499-12.307l-.184.002v188.811l.004.001a190.065 190.065 0 0 1 52.875 30.528l.002.001-.002.001a190.131 190.131 0 0 1 0 61.055h.001l62.859 36.292 99.926 57.692a247.566 247.566 0 0 0 28.477-74.223 250.24 250.24 0 0 0 5.227-50.976 250.353 250.353 0 0 0-5.044-50.115z" opacity=".5"/>
        <path fill="#E4BC96" d="M86.918-69.148C53.865-58.264 23.873-40.654-1.444-17.934-21.126-.271-37.99 20.47-51.258 43.545a247.536 247.536 0 0 0-28.091 74.566 250.298 250.298 0 0 0-4.916 49.454c0 17.251 1.755 34.093 5.093 50.355 5.479 26.706 15.24 51.847 28.52 74.689l99.653-57.534.004-.004 62.856-36.289v-.002a190.1 190.1 0 0 1 0-61.059 190.087 190.087 0 0 1 52.875-30.527V-81.617c-27.179.019-53.334 4.404-77.818 12.469z" opacity=".5"/>
        <path fill="#00A0C6" d="M164.74 107.194l-.004.001a190.087 190.087 0 0 0-52.875 30.527l52.875 30.527.005.002 52.874-30.527v-.002a190.09 190.09 0 0 0-52.875-30.528z" opacity=".5"/>
        <path fill="#7DFF00" d="M217.615 137.725l-52.874 30.527-.005.002v61.055h.002a190.09 190.09 0 0 0 52.877-30.529 190.131 190.131 0 0 0 0-61.055z" opacity=".5"/>
        <path fill="#FF4000" d="M111.861 137.723a190.1 190.1 0 0 0 0 61.059h.002a190.111 190.111 0 0 0 52.873 30.527V168.25l-52.875-30.527z" opacity=".5"/>
        <path fill="#FFF" stroke="#0FF" stroke-width=".5" d="M164.736 34.61zm0 267.285l.002-.002-.002-.001zm52.879-103.116h.001-.001zm.002-61.055l-.002-.001v.002zm-52.881 91.585h.002-.002zm-52.875-30.528v.002l.002-.002zm52.879-91.587l-.004-.001v.002zm-52.879 30.529zm52.875 30.531l.005-.002-.005-.002z"/>
        <path fill="none" stroke="#000" d="M164.923 106.506h-.003a190.122 190.122 0 0 0-52.875 30.527l52.875 30.527.004.004 52.874-30.527v-.004a190.087 190.087 0 0 0-52.875-30.527z"/>
        <path fill="none" stroke="#000" d="M217.798 137.037l-52.874 30.527-.004.001v61.055h.002a190.042 190.042 0 0 0 52.876-30.528 190.074 190.074 0 0 0 0-61.055zm-105.753-.004v.002a190.036 190.036 0 0 0 0 61.058h.002a190.047 190.047 0 0 0 52.873 30.527v-61.06l-52.875-30.527zm-228.202 192.813l228.204-131.753m52.873-91.587V-157m52.878 355.092L446 329.842"/>
    </g>
</svg>
