<svg xmlns="http://www.w3.org/2000/svg" width="300" height="290">
    <path opacity=".5" fill="#FF4000" d="M100.038 89.155l12.605 50.413L150 175.69V118z"/>
    <path opacity=".5" fill="#00A0C6" d="M100.038 89.155L150 118l49.961-28.845L150 74.863z"/>
    <path opacity=".5" fill="#7DFF00" d="M150 118v57.69l37.357-36.122 12.604-50.413z"/>
    <path opacity=".5" fill="#F6C" d="M150 3.26v71.603l49.961 14.292-12.604 50.414 62.024 35.81c9.766-16.879 15.358-36.475 15.358-57.378C264.74 54.631 213.369 3.26 150 3.26z"/>
    <path opacity=".5" fill="#E4BC96" d="M112.643 139.568l-12.604-50.414L150 74.863V3.26C86.631 3.26 35.26 54.631 35.26 118c0 20.903 5.593 40.499 15.358 57.378l62.025-35.81z"/>
    <path fill="none" stroke="#0FF" stroke-width=".5" d="M78 1l72 288.001L221.999 1M150 1v288.001"/>
    <path fill="none" stroke="#0FF" stroke-width=".5" d="M84.676 238.854L298.091 32.499 12.676 114.146m36 62.354L298.091 32.499"/>
    <path fill="none" stroke="#0FF" stroke-width=".5" d="M287.324 114.146L1.908 32.5l213.416 206.353m36-62.354L1.908 32.5"/>
    <path fill="none" stroke="#000" d="M150 1v73.863l-49.962 14.292 12.605 50.413L48.676 176.5m202.648-.001l-63.967-36.93 12.604-50.414L150 74.863m-37.357 64.705L150 175.69l37.357-36.121"/>
    <path fill="none" stroke="#000" d="M150 175.69V118l49.961-28.845M150 118l-49.962-28.845"/>
</svg>
