<svg xmlns="http://www.w3.org/2000/svg" width="393" height="393">
    <path fill="none" stroke="#0060B6" stroke-width="3" d="M105.981 351.638l180.598-309.2M18.1 197.444h356.48M107.593 42.438L288.32 351.694m-92.826 24.736l1.802-358.075M42.29 286.835l308.721-178.24m-308.721-.746l311.143 177.46"/>
    <path fill="none" stroke="#FFF" stroke-width="10" d="M18.1 197.444L286.579 42.438l-.001 310.012L16.523 198.851"/>
    <path fill="none" stroke="#0060B6" stroke-width="3" d="M18.1 197.444L286.579 42.438l-.001 310.012L16.523 198.851"/>
    <path fill="none" stroke="#FFF" stroke-width="10" d="M107.593 42.438l268.581 153.205-270.193 155.995z"/>
    <path fill="none" stroke="#0060B6" stroke-width="3" d="M107.593 352.451L42.08 286.938 18.1 197.444l23.98-89.493 65.513-65.513 89.493-23.98 89.493 23.98 65.513 65.512 23.98 89.493-23.979 89.495-65.515 65.512-89.492 23.981z"/>
    <path fill="none" stroke="#0060B6" stroke-width="3" d="M107.593 42.438l268.581 153.205-270.193 155.995z"/>
    <g fill="#D59758" stroke="#000">
        <circle cx="197.086" cy="18.458" r="12"/>
        <circle cx="286.579" cy="42.438" r="12"/>
        <circle cx="352.092" cy="107.95" r="12"/>
        <circle cx="374.58" cy="195.206" r="12"/>
        <circle cx="352.093" cy="286.938" r="12"/>
        <circle cx="288.32" cy="351.694" r="12"/>
        <circle cx="199.008" cy="376.122" r="12"/>
        <circle cx="105.981" cy="351.638" r="12"/>
        <circle cx="42.08" cy="286.938" r="12"/>
        <circle cx="18.1" cy="197.444" r="12"/>
        <circle cx="40.992" cy="105.893" r="12"/>
        <circle cx="107.593" cy="42.438" r="12"/>
    </g>
</svg>
