<?xml version="1.0" encoding="utf-8"?>
<!-- Generator: Adobe Illustrator 15.1.0, SVG Export Plug-In . SVG Version: 6.00 Build 0)  -->
<!DOCTYPE svg PUBLIC "-//W3C//DTD SVG 1.1//EN" "http://www.w3.org/Graphics/SVG/1.1/DTD/svg11.dtd">
<svg version="1.1" id="Layer_1" xmlns="http://www.w3.org/2000/svg" xmlns:xlink="http://www.w3.org/1999/xlink" x="0px" y="0px"
	 width="288px" height="288px" viewBox="0 0 288 288" enable-background="new 0 0 288 288" xml:space="preserve">
<rect x="0" y="0" fill="#0081CD" stroke="#000000" width="18" height="18"/>
<rect x="18" y="18" fill="#0081CD" stroke="#000000" width="18" height="18"/>
<rect x="18" y="0" fill="#FEC200" stroke="#000000" width="18" height="18"/>
<rect y="18" fill="#FEC200" stroke="#000000" width="18" height="18"/>
<rect x="36" y="0" fill="#0081CD" stroke="#000000" width="18" height="18"/>
<rect x="54" y="18" fill="#0081CD" stroke="#000000" width="18" height="18"/>
<rect x="54" y="0" fill="#FEC200" stroke="#000000" width="18" height="18"/>
<rect x="36" y="18" fill="#FEC200" stroke="#000000" width="18" height="18"/>
<rect x="72" y="0" fill="#0081CD" stroke="#000000" width="18" height="18"/>
<rect x="90" y="18" fill="#0081CD" stroke="#000000" width="18" height="18"/>
<rect x="90" y="0" fill="#FEC200" stroke="#000000" width="18" height="18"/>
<rect x="72" y="18" fill="#FEC200" stroke="#000000" width="18" height="18"/>
<rect x="108" y="0" fill="#0081CD" stroke="#000000" width="18" height="18"/>
<rect x="126" y="18" fill="#0081CD" stroke="#000000" width="18" height="18"/>
<rect x="126" y="0" fill="#FEC200" stroke="#000000" width="18" height="18"/>
<rect x="108" y="18" fill="#FEC200" stroke="#000000" width="18" height="18"/>
<rect x="144" y="0" fill="#0081CD" stroke="#000000" width="18" height="18"/>
<rect x="162" y="18" fill="#0081CD" stroke="#000000" width="18" height="18"/>
<rect x="162" y="0" fill="#FEC200" stroke="#000000" width="18" height="18"/>
<rect x="144" y="18" fill="#FEC200" stroke="#000000" width="18" height="18"/>
<rect x="180" y="0" fill="#0081CD" stroke="#000000" width="18" height="18"/>
<rect x="198" y="18" fill="#0081CD" stroke="#000000" width="18" height="18"/>
<rect x="198" y="0" fill="#FEC200" stroke="#000000" width="18" height="18"/>
<rect x="180" y="18" fill="#FEC200" stroke="#000000" width="18" height="18"/>
<rect x="216" y="0" fill="#0081CD" stroke="#000000" width="18" height="18"/>
<rect x="234" y="18" fill="#0081CD" stroke="#000000" width="18" height="18"/>
<rect x="234" y="0" fill="#FEC200" stroke="#000000" width="18" height="18"/>
<rect x="216" y="18" fill="#FEC200" stroke="#000000" width="18" height="18"/>
<rect x="252" y="0" fill="#0081CD" stroke="#000000" width="18" height="18"/>
<rect x="270" y="18" fill="#0081CD" stroke="#000000" width="18" height="18"/>
<rect x="270" y="0" fill="#FEC200" stroke="#000000" width="18" height="18"/>
<rect x="252" y="18" fill="#FEC200" stroke="#000000" width="18" height="18"/>
<rect y="36" fill="#0081CD" stroke="#000000" width="18" height="18"/>
<rect x="18" y="54" fill="#0081CD" stroke="#000000" width="18" height="18"/>
<rect x="18" y="36" fill="#FEC200" stroke="#000000" width="18" height="18"/>
<rect x="0" y="54" fill="#FEC200" stroke="#000000" width="18" height="18"/>
<rect x="36" y="36" fill="#0081CD" stroke="#000000" width="18" height="18"/>
<rect x="54" y="54" fill="#0081CD" stroke="#000000" width="18" height="18"/>
<rect x="54" y="36" fill="#FEC200" stroke="#000000" width="18" height="18"/>
<rect x="36" y="54" fill="#FEC200" stroke="#000000" width="18" height="18"/>
<rect x="72" y="36" fill="#0081CD" stroke="#000000" width="18" height="18"/>
<rect x="90" y="54" fill="#0081CD" stroke="#000000" width="18" height="18"/>
<rect x="90" y="36" fill="#FEC200" stroke="#000000" width="18" height="18"/>
<rect x="72" y="54" fill="#FEC200" stroke="#000000" width="18" height="18"/>
<rect x="108" y="36" fill="#0081CD" stroke="#000000" width="18" height="18"/>
<rect x="126" y="54" fill="#0081CD" stroke="#000000" width="18" height="18"/>
<rect x="126" y="36" fill="#FEC200" stroke="#000000" width="18" height="18"/>
<rect x="108" y="54" fill="#FEC200" stroke="#000000" width="18" height="18"/>
<rect x="144" y="36" fill="#0081CD" stroke="#000000" width="18" height="18"/>
<rect x="162" y="54" fill="#0081CD" stroke="#000000" width="18" height="18"/>
<rect x="162" y="36" fill="#FEC200" stroke="#000000" width="18" height="18"/>
<rect x="144" y="54" fill="#FEC200" stroke="#000000" width="18" height="18"/>
<rect x="180" y="36" fill="#0081CD" stroke="#000000" width="18" height="18"/>
<rect x="198" y="54" fill="#0081CD" stroke="#000000" width="18" height="18"/>
<rect x="198" y="36" fill="#FEC200" stroke="#000000" width="18" height="18"/>
<rect x="180" y="54" fill="#FEC200" stroke="#000000" width="18" height="18"/>
<rect x="216" y="36" fill="#0081CD" stroke="#000000" width="18" height="18"/>
<rect x="234" y="54" fill="#0081CD" stroke="#000000" width="18" height="18"/>
<rect x="234" y="36" fill="#FEC200" stroke="#000000" width="18" height="18"/>
<rect x="216" y="54" fill="#FEC200" stroke="#000000" width="18" height="18"/>
<rect x="252" y="36" fill="#0081CD" stroke="#000000" width="18" height="18"/>
<rect x="270" y="54" fill="#0081CD" stroke="#000000" width="18" height="18"/>
<rect x="270" y="36" fill="#FEC200" stroke="#000000" width="18" height="18"/>
<rect x="252" y="54" fill="#FEC200" stroke="#000000" width="18" height="18"/>
<rect x="0" y="72" fill="#0081CD" stroke="#000000" width="18" height="18"/>
<rect x="18" y="90" fill="#0081CD" stroke="#000000" width="18" height="18"/>
<rect x="18" y="72" fill="#FEC200" stroke="#000000" width="18" height="18"/>
<rect y="90" fill="#FEC200" stroke="#000000" width="18" height="18"/>
<rect x="36" y="72" fill="#0081CD" stroke="#000000" width="18" height="18"/>
<rect x="54" y="90" fill="#0081CD" stroke="#000000" width="18" height="18"/>
<rect x="54" y="72" fill="#FEC200" stroke="#000000" width="18" height="18"/>
<rect x="36" y="90" fill="#FEC200" stroke="#000000" width="18" height="18"/>
<rect x="72" y="72" fill="#0081CD" stroke="#000000" width="18" height="18"/>
<rect x="90" y="90" fill="#0081CD" stroke="#000000" width="18" height="18"/>
<rect x="90" y="72" fill="#FEC200" stroke="#000000" width="18" height="18"/>
<rect x="72" y="90" fill="#FEC200" stroke="#000000" width="18" height="18"/>
<rect x="108" y="72" fill="#0081CD" stroke="#000000" width="18" height="18"/>
<rect x="126" y="90" fill="#0081CD" stroke="#000000" width="18" height="18"/>
<rect x="126" y="72" fill="#FEC200" stroke="#000000" width="18" height="18"/>
<rect x="108" y="90" fill="#FEC200" stroke="#000000" width="18" height="18"/>
<rect x="144" y="72" fill="#0081CD" stroke="#000000" width="18" height="18"/>
<rect x="162" y="90" fill="#0081CD" stroke="#000000" width="18" height="18"/>
<rect x="162" y="72" fill="#FEC200" stroke="#000000" width="18" height="18"/>
<rect x="144" y="90" fill="#FEC200" stroke="#000000" width="18" height="18"/>
<rect x="180" y="72" fill="#0081CD" stroke="#000000" width="18" height="18"/>
<rect x="198" y="90" fill="#0081CD" stroke="#000000" width="18" height="18"/>
<rect x="198" y="72" fill="#FEC200" stroke="#000000" width="18" height="18"/>
<rect x="180" y="90" fill="#FEC200" stroke="#000000" width="18" height="18"/>
<rect x="216" y="72" fill="#0081CD" stroke="#000000" width="18" height="18"/>
<rect x="234" y="90" fill="#0081CD" stroke="#000000" width="18" height="18"/>
<rect x="234" y="72" fill="#FEC200" stroke="#000000" width="18" height="18"/>
<rect x="216" y="90" fill="#FEC200" stroke="#000000" width="18" height="18"/>
<rect x="252" y="72" fill="#0081CD" stroke="#000000" width="18" height="18"/>
<rect x="270" y="90" fill="#0081CD" stroke="#000000" width="18" height="18"/>
<rect x="270" y="72" fill="#FEC200" stroke="#000000" width="18" height="18"/>
<rect x="252" y="90" fill="#FEC200" stroke="#000000" width="18" height="18"/>
<rect y="108" fill="#0081CD" stroke="#000000" width="18" height="18"/>
<rect x="18" y="126.001" fill="#0081CD" stroke="#000000" width="18" height="18"/>
<rect x="18" y="108" fill="#FEC200" stroke="#000000" width="18" height="18"/>
<rect x="0" y="126.001" fill="#FEC200" stroke="#000000" width="18" height="18"/>
<rect x="36" y="108" fill="#0081CD" stroke="#000000" width="18" height="18"/>
<rect x="54" y="126.001" fill="#0081CD" stroke="#000000" width="18" height="18"/>
<rect x="54" y="108" fill="#FEC200" stroke="#000000" width="18" height="18"/>
<rect x="36" y="126.001" fill="#FEC200" stroke="#000000" width="18" height="18"/>
<rect x="72" y="108" fill="#0081CD" stroke="#000000" width="18" height="18"/>
<rect x="90" y="126.001" fill="#0081CD" stroke="#000000" width="18" height="18"/>
<rect x="90" y="108" fill="#FEC200" stroke="#000000" width="18" height="18"/>
<rect x="72" y="126.001" fill="#FEC200" stroke="#000000" width="18" height="18"/>
<rect x="108" y="108" fill="#0081CD" stroke="#000000" width="18" height="18"/>
<rect x="126" y="126.001" fill="#0081CD" stroke="#000000" width="18" height="18"/>
<rect x="126" y="108" fill="#FEC200" stroke="#000000" width="18" height="18"/>
<rect x="108" y="126.001" fill="#FEC200" stroke="#000000" width="18" height="18"/>
<rect x="144" y="108" fill="#0081CD" stroke="#000000" width="18" height="18"/>
<rect x="162" y="126.001" fill="#0081CD" stroke="#000000" width="18" height="18"/>
<rect x="162" y="108" fill="#FEC200" stroke="#000000" width="18" height="18"/>
<rect x="144" y="126.001" fill="#FEC200" stroke="#000000" width="18" height="18"/>
<rect x="180" y="108" fill="#0081CD" stroke="#000000" width="18" height="18"/>
<rect x="198" y="126.001" fill="#0081CD" stroke="#000000" width="18" height="18"/>
<rect x="198" y="108" fill="#FEC200" stroke="#000000" width="18" height="18"/>
<rect x="180" y="126.001" fill="#FEC200" stroke="#000000" width="18" height="18"/>
<rect x="216" y="108" fill="#0081CD" stroke="#000000" width="18" height="18"/>
<rect x="234" y="126.001" fill="#0081CD" stroke="#000000" width="18" height="18"/>
<rect x="234" y="108" fill="#FEC200" stroke="#000000" width="18" height="18"/>
<rect x="216" y="126.001" fill="#FEC200" stroke="#000000" width="18" height="18"/>
<rect x="252" y="108" fill="#0081CD" stroke="#000000" width="18" height="18"/>
<rect x="270" y="126.001" fill="#0081CD" stroke="#000000" width="18" height="18"/>
<rect x="270" y="108" fill="#FEC200" stroke="#000000" width="18" height="18"/>
<rect x="252" y="126.001" fill="#FEC200" stroke="#000000" width="18" height="18"/>
<rect y="144" fill="#0081CD" stroke="#000000" width="18" height="18"/>
<rect x="18" y="162" fill="#0081CD" stroke="#000000" width="18" height="18"/>
<rect x="18" y="144" fill="#FEC200" stroke="#000000" width="18" height="18"/>
<rect x="0" y="162" fill="#FEC200" stroke="#000000" width="18" height="18"/>
<rect x="36" y="144" fill="#0081CD" stroke="#000000" width="18" height="18"/>
<rect x="54" y="162" fill="#0081CD" stroke="#000000" width="18" height="18"/>
<rect x="54" y="144" fill="#FEC200" stroke="#000000" width="18" height="18"/>
<rect x="36" y="162" fill="#FEC200" stroke="#000000" width="18" height="18"/>
<rect x="72" y="144" fill="#0081CD" stroke="#000000" width="18" height="18"/>
<rect x="90" y="162" fill="#0081CD" stroke="#000000" width="18" height="18"/>
<rect x="90" y="144" fill="#FEC200" stroke="#000000" width="18" height="18"/>
<rect x="72" y="162" fill="#FEC200" stroke="#000000" width="18" height="18"/>
<rect x="108" y="144" fill="#0081CD" stroke="#000000" width="18" height="18"/>
<rect x="126" y="162" fill="#0081CD" stroke="#000000" width="18" height="18"/>
<rect x="126" y="144" fill="#FEC200" stroke="#000000" width="18" height="18"/>
<rect x="108" y="162" fill="#FEC200" stroke="#000000" width="18" height="18"/>
<rect x="144" y="144" fill="#0081CD" stroke="#000000" width="18" height="18"/>
<rect x="162" y="162" fill="#0081CD" stroke="#000000" width="18" height="18"/>
<rect x="162" y="144" fill="#FEC200" stroke="#000000" width="18" height="18"/>
<rect x="144" y="162" fill="#FEC200" stroke="#000000" width="18" height="18"/>
<rect x="180" y="144" fill="#0081CD" stroke="#000000" width="18" height="18"/>
<rect x="198" y="162" fill="#0081CD" stroke="#000000" width="18" height="18"/>
<rect x="198" y="144" fill="#FEC200" stroke="#000000" width="18" height="18"/>
<rect x="180" y="162" fill="#FEC200" stroke="#000000" width="18" height="18"/>
<rect x="216" y="144" fill="#0081CD" stroke="#000000" width="18" height="18"/>
<rect x="234" y="162" fill="#0081CD" stroke="#000000" width="18" height="18"/>
<rect x="234" y="144" fill="#FEC200" stroke="#000000" width="18" height="18"/>
<rect x="216" y="162" fill="#FEC200" stroke="#000000" width="18" height="18"/>
<rect x="252" y="144" fill="#0081CD" stroke="#000000" width="18" height="18"/>
<rect x="270" y="162" fill="#0081CD" stroke="#000000" width="18" height="18"/>
<rect x="270" y="144" fill="#FEC200" stroke="#000000" width="18" height="18"/>
<rect x="252" y="162" fill="#FEC200" stroke="#000000" width="18" height="18"/>
<rect x="0" y="180" fill="#0081CD" stroke="#000000" width="18" height="18"/>
<rect x="17.999" y="198.001" fill="#0081CD" stroke="#000000" width="18" height="18"/>
<rect x="18" y="180" fill="#FEC200" stroke="#000000" width="18" height="18"/>
<rect x="-0.001" y="198.001" fill="#FEC200" stroke="#000000" width="18" height="18"/>
<rect x="36" y="180" fill="#0081CD" stroke="#000000" width="18" height="18"/>
<rect x="53.999" y="198.001" fill="#0081CD" stroke="#000000" width="18" height="18"/>
<rect x="54" y="180" fill="#FEC200" stroke="#000000" width="18" height="18"/>
<rect x="35.999" y="198.001" fill="#FEC200" stroke="#000000" width="18" height="18"/>
<rect x="72" y="180" fill="#0081CD" stroke="#000000" width="18" height="18"/>
<rect x="89.999" y="198.001" fill="#0081CD" stroke="#000000" width="18" height="18"/>
<rect x="90" y="180" fill="#FEC200" stroke="#000000" width="18" height="18"/>
<rect x="71.999" y="198.001" fill="#FEC200" stroke="#000000" width="18" height="18"/>
<rect x="108" y="180" fill="#0081CD" stroke="#000000" width="18" height="18"/>
<rect x="125.999" y="198.001" fill="#0081CD" stroke="#000000" width="18" height="18"/>
<rect x="126" y="180" fill="#FEC200" stroke="#000000" width="18" height="18"/>
<rect x="107.999" y="198.001" fill="#FEC200" stroke="#000000" width="18" height="18"/>
<rect x="144" y="180" fill="#0081CD" stroke="#000000" width="18" height="18"/>
<rect x="161.999" y="198.001" fill="#0081CD" stroke="#000000" width="18" height="18"/>
<rect x="162" y="180" fill="#FEC200" stroke="#000000" width="18" height="18"/>
<rect x="143.999" y="198.001" fill="#FEC200" stroke="#000000" width="18" height="18"/>
<rect x="180" y="180" fill="#0081CD" stroke="#000000" width="18" height="18"/>
<rect x="197.999" y="198.001" fill="#0081CD" stroke="#000000" width="18" height="18"/>
<rect x="198" y="180" fill="#FEC200" stroke="#000000" width="18" height="18"/>
<rect x="179.999" y="198.001" fill="#FEC200" stroke="#000000" width="18" height="18"/>
<rect x="216" y="180" fill="#0081CD" stroke="#000000" width="18" height="18"/>
<rect x="233.999" y="198.001" fill="#0081CD" stroke="#000000" width="18" height="18"/>
<rect x="234" y="180" fill="#FEC200" stroke="#000000" width="18" height="18"/>
<rect x="215.999" y="198.001" fill="#FEC200" stroke="#000000" width="18" height="18"/>
<rect x="252" y="180" fill="#0081CD" stroke="#000000" width="18" height="18"/>
<rect x="270" y="198.001" fill="#0081CD" stroke="#000000" width="18" height="18"/>
<rect x="270" y="180" fill="#FEC200" stroke="#000000" width="18" height="18"/>
<rect x="251.999" y="198.001" fill="#FEC200" stroke="#000000" width="18.001" height="18"/>
<rect y="216" fill="#0081CD" stroke="#000000" width="18" height="18"/>
<rect x="18" y="234.001" fill="#0081CD" stroke="#000000" width="18" height="18"/>
<rect x="18" y="216" fill="#FEC200" stroke="#000000" width="18" height="18"/>
<rect x="0" y="234.001" fill="#FEC200" stroke="#000000" width="18" height="18"/>
<rect x="36" y="216" fill="#0081CD" stroke="#000000" width="18" height="18"/>
<rect x="54" y="234.001" fill="#0081CD" stroke="#000000" width="18" height="18"/>
<rect x="54" y="216" fill="#FEC200" stroke="#000000" width="18" height="18"/>
<rect x="36" y="234.001" fill="#FEC200" stroke="#000000" width="18" height="18"/>
<rect x="72" y="216" fill="#0081CD" stroke="#000000" width="18" height="18"/>
<rect x="90" y="234.001" fill="#0081CD" stroke="#000000" width="18" height="18"/>
<rect x="90" y="216" fill="#FEC200" stroke="#000000" width="18" height="18"/>
<rect x="72" y="234.001" fill="#FEC200" stroke="#000000" width="18" height="18"/>
<rect x="108" y="216" fill="#0081CD" stroke="#000000" width="18" height="18"/>
<rect x="126" y="234.001" fill="#0081CD" stroke="#000000" width="18" height="18"/>
<rect x="126" y="216" fill="#FEC200" stroke="#000000" width="18" height="18"/>
<rect x="108" y="234.001" fill="#FEC200" stroke="#000000" width="18" height="18"/>
<rect x="144" y="216" fill="#0081CD" stroke="#000000" width="18" height="18"/>
<rect x="162" y="234.001" fill="#0081CD" stroke="#000000" width="18" height="18"/>
<rect x="162" y="216" fill="#FEC200" stroke="#000000" width="18" height="18"/>
<rect x="144" y="234.001" fill="#FEC200" stroke="#000000" width="18" height="18"/>
<rect x="180" y="216" fill="#0081CD" stroke="#000000" width="18" height="18"/>
<rect x="198" y="234.001" fill="#0081CD" stroke="#000000" width="18" height="18"/>
<rect x="198" y="216" fill="#FEC200" stroke="#000000" width="18" height="18"/>
<rect x="180" y="234.001" fill="#FEC200" stroke="#000000" width="18" height="18"/>
<rect x="216" y="216" fill="#0081CD" stroke="#000000" width="18" height="18"/>
<rect x="234" y="234.001" fill="#0081CD" stroke="#000000" width="18" height="18"/>
<rect x="234" y="216" fill="#FEC200" stroke="#000000" width="18" height="18"/>
<rect x="216" y="234.001" fill="#FEC200" stroke="#000000" width="18" height="18"/>
<rect x="252" y="216" fill="#0081CD" stroke="#000000" width="18" height="18"/>
<rect x="270" y="234.001" fill="#0081CD" stroke="#000000" width="18" height="18"/>
<rect x="270" y="216" fill="#FEC200" stroke="#000000" width="18" height="18"/>
<rect x="252" y="234.001" fill="#FEC200" stroke="#000000" width="18" height="18"/>
<rect x="0" y="252.001" fill="#0081CD" stroke="#000000" width="18" height="18"/>
<rect x="17.999" y="270.002" fill="#0081CD" stroke="#000000" width="18" height="18"/>
<rect x="18" y="252.001" fill="#FEC200" stroke="#000000" width="18" height="18"/>
<rect x="-0.001" y="270.002" fill="#FEC200" stroke="#000000" width="18" height="18"/>
<rect x="36" y="252.001" fill="#0081CD" stroke="#000000" width="18" height="18"/>
<rect x="53.999" y="270.002" fill="#0081CD" stroke="#000000" width="18" height="18"/>
<rect x="54" y="252.001" fill="#FEC200" stroke="#000000" width="18" height="18"/>
<rect x="35.999" y="270.002" fill="#FEC200" stroke="#000000" width="18" height="18"/>
<rect x="72" y="252.001" fill="#0081CD" stroke="#000000" width="18" height="18"/>
<rect x="89.999" y="270.002" fill="#0081CD" stroke="#000000" width="18" height="18"/>
<rect x="90" y="252.001" fill="#FEC200" stroke="#000000" width="18" height="18"/>
<rect x="71.999" y="270.002" fill="#FEC200" stroke="#000000" width="18" height="18"/>
<rect x="108" y="252.001" fill="#0081CD" stroke="#000000" width="18" height="18"/>
<rect x="125.999" y="270.002" fill="#0081CD" stroke="#000000" width="18" height="18"/>
<rect x="126" y="252.001" fill="#FEC200" stroke="#000000" width="18" height="18"/>
<rect x="107.999" y="270.002" fill="#FEC200" stroke="#000000" width="18" height="18"/>
<rect x="144" y="252.001" fill="#0081CD" stroke="#000000" width="18" height="18"/>
<rect x="161.999" y="270.002" fill="#0081CD" stroke="#000000" width="18" height="18"/>
<rect x="162" y="252.001" fill="#FEC200" stroke="#000000" width="18" height="18"/>
<rect x="143.999" y="270.002" fill="#FEC200" stroke="#000000" width="18" height="18"/>
<rect x="180" y="252.001" fill="#0081CD" stroke="#000000" width="18" height="18"/>
<rect x="197.999" y="270.002" fill="#0081CD" stroke="#000000" width="18" height="18"/>
<rect x="198" y="252.001" fill="#FEC200" stroke="#000000" width="18" height="18"/>
<rect x="179.999" y="270.002" fill="#FEC200" stroke="#000000" width="18" height="18"/>
<rect x="216" y="252.001" fill="#0081CD" stroke="#000000" width="18" height="18"/>
<rect x="233.999" y="270.002" fill="#0081CD" stroke="#000000" width="18" height="18"/>
<rect x="234" y="252.001" fill="#FEC200" stroke="#000000" width="18" height="18"/>
<rect x="215.999" y="270.002" fill="#FEC200" stroke="#000000" width="18" height="18"/>
<rect x="252" y="252.001" fill="#0081CD" stroke="#000000" width="18" height="18"/>
<rect x="270" y="270.002" fill="#0081CD" stroke="#000000" width="18" height="18"/>
<rect x="270" y="252.001" fill="#FEC200" stroke="#000000" width="18" height="18"/>
<rect x="251.999" y="270.002" fill="#FEC200" stroke="#000000" width="18.001" height="18"/>
</svg>
