<?xml version="1.0" encoding="utf-8"?>
<!-- Generator: Adobe Illustrator 15.1.0, SVG Export Plug-In . SVG Version: 6.00 Build 0)  -->
<!DOCTYPE svg PUBLIC "-//W3C//DTD SVG 1.1//EN" "http://www.w3.org/Graphics/SVG/1.1/DTD/svg11.dtd">
<svg version="1.1" id="Layer_1" xmlns="http://www.w3.org/2000/svg" xmlns:xlink="http://www.w3.org/1999/xlink" x="0px" y="0px"
	 width="288px" height="288px" viewBox="0 0 288 288" enable-background="new 0 0 288 288" xml:space="preserve">
<rect fill="#0081CD" stroke="#000000" width="18" height="18"/>
<rect x="36" y="18" fill="#0081CD" stroke="#000000" width="18" height="18"/>
<rect x="18" y="36" fill="#0081CD" stroke="#000000" width="18" height="18"/>
<rect x="18" fill="#FEC200" stroke="#000000" width="18" height="18"/>
<rect x="36" y="36" fill="#FEC200" stroke="#000000" width="18" height="18"/>
<rect y="18" fill="#FEC200" stroke="#000000" width="18" height="18"/>
<rect x="36" fill="#BC1E47" stroke="#000000" width="18" height="18"/>
<rect x="18" y="18" fill="#BC1E47" stroke="#000000" width="18" height="18"/>
<rect y="36" fill="#BC1E47" stroke="#000000" width="18" height="18"/>
<rect x="54" y="0" fill="#0081CD" stroke="#000000" width="18" height="18"/>
<rect x="89.999" y="18.001" fill="#0081CD" stroke="#000000" width="18" height="18"/>
<rect x="71.999" y="36.001" fill="#0081CD" stroke="#000000" width="18" height="18"/>
<rect x="72" y="0" fill="#FEC200" stroke="#000000" width="18" height="18"/>
<rect x="89.999" y="36.001" fill="#FEC200" stroke="#000000" width="18" height="18"/>
<rect x="54" y="18" fill="#FEC200" stroke="#000000" width="18" height="18"/>
<rect x="90" y="0" fill="#BC1E47" stroke="#000000" width="18" height="18"/>
<rect x="72" y="18" fill="#BC1E47" stroke="#000000" width="18" height="18"/>
<rect x="54" y="36" fill="#BC1E47" stroke="#000000" width="18" height="18"/>
<rect x="108" y="0" fill="#0081CD" stroke="#000000" width="18" height="18"/>
<rect x="143.999" y="18.001" fill="#0081CD" stroke="#000000" width="18" height="18"/>
<rect x="125.999" y="36.001" fill="#0081CD" stroke="#000000" width="18" height="18"/>
<rect x="126" y="0" fill="#FEC200" stroke="#000000" width="18" height="18"/>
<rect x="143.999" y="36.001" fill="#FEC200" stroke="#000000" width="18" height="18"/>
<rect x="108" y="18" fill="#FEC200" stroke="#000000" width="18" height="18"/>
<rect x="144" y="0" fill="#BC1E47" stroke="#000000" width="18" height="18"/>
<rect x="126" y="18" fill="#BC1E47" stroke="#000000" width="18" height="18"/>
<rect x="108" y="36" fill="#BC1E47" stroke="#000000" width="18" height="18"/>
<rect x="216" y="0" fill="#0081CD" stroke="#000000" width="18" height="18"/>
<rect x="251.999" y="18.001" fill="#0081CD" stroke="#000000" width="18" height="18"/>
<rect x="233.999" y="36.001" fill="#0081CD" stroke="#000000" width="18" height="18"/>
<rect x="234" y="0" fill="#FEC200" stroke="#000000" width="18" height="18"/>
<rect x="251.999" y="36.001" fill="#FEC200" stroke="#000000" width="18" height="18"/>
<rect x="216" y="18" fill="#FEC200" stroke="#000000" width="18" height="18"/>
<rect x="252" y="0" fill="#BC1E47" stroke="#000000" width="18" height="18"/>
<rect x="234" y="18" fill="#BC1E47" stroke="#000000" width="18" height="18"/>
<rect x="216" y="36" fill="#BC1E47" stroke="#000000" width="18" height="18"/>
<rect x="270" y="0.001" fill="#0081CD" stroke="#000000" width="18" height="18"/>
<rect x="270" y="18.001" fill="#FEC200" stroke="#000000" width="18" height="18"/>
<rect x="270" y="36.001" fill="#BC1E47" stroke="#000000" width="18" height="18"/>
<rect x="161.999" y="0.001" fill="#0081CD" stroke="#000000" width="18" height="18"/>
<rect x="197.999" y="18.001" fill="#0081CD" stroke="#000000" width="18" height="18"/>
<rect x="179.999" y="36.001" fill="#0081CD" stroke="#000000" width="18" height="18"/>
<rect x="179.999" y="0.001" fill="#FEC200" stroke="#000000" width="18" height="18"/>
<rect x="197.999" y="36.001" fill="#FEC200" stroke="#000000" width="18" height="18"/>
<rect x="161.999" y="18.001" fill="#FEC200" stroke="#000000" width="18" height="18"/>
<rect x="197.999" y="0.001" fill="#BC1E47" stroke="#000000" width="18" height="18"/>
<rect x="179.999" y="18.001" fill="#BC1E47" stroke="#000000" width="18" height="18"/>
<rect x="161.999" y="36.001" fill="#BC1E47" stroke="#000000" width="18" height="18"/>
<rect x="0" y="54" fill="#0081CD" stroke="#000000" width="18" height="18"/>
<rect x="35.999" y="72.001" fill="#0081CD" stroke="#000000" width="18" height="18"/>
<rect x="17.999" y="90.001" fill="#0081CD" stroke="#000000" width="18" height="18"/>
<rect x="18" y="54" fill="#FEC200" stroke="#000000" width="18" height="18"/>
<rect x="35.999" y="90.001" fill="#FEC200" stroke="#000000" width="18" height="18"/>
<rect x="0" y="72" fill="#FEC200" stroke="#000000" width="18" height="18"/>
<rect x="36" y="54" fill="#BC1E47" stroke="#000000" width="18" height="18"/>
<rect x="18" y="72" fill="#BC1E47" stroke="#000000" width="18" height="18"/>
<rect x="0" y="90" fill="#BC1E47" stroke="#000000" width="18" height="18"/>
<rect x="53.999" y="54.001" fill="#0081CD" stroke="#000000" width="18" height="18"/>
<rect x="89.999" y="72.001" fill="#0081CD" stroke="#000000" width="18" height="18"/>
<rect x="71.999" y="90.001" fill="#0081CD" stroke="#000000" width="18" height="18"/>
<rect x="71.999" y="54.001" fill="#FEC200" stroke="#000000" width="18" height="18"/>
<rect x="89.999" y="90.001" fill="#FEC200" stroke="#000000" width="18" height="18"/>
<rect x="53.999" y="72.001" fill="#FEC200" stroke="#000000" width="18" height="18"/>
<rect x="89.999" y="54.001" fill="#BC1E47" stroke="#000000" width="18" height="18"/>
<rect x="71.999" y="72.001" fill="#BC1E47" stroke="#000000" width="18" height="18"/>
<rect x="53.999" y="90.001" fill="#BC1E47" stroke="#000000" width="18" height="18"/>
<rect x="107.999" y="54.001" fill="#0081CD" stroke="#000000" width="18" height="18"/>
<rect x="143.999" y="72.001" fill="#0081CD" stroke="#000000" width="18" height="18"/>
<rect x="125.999" y="90.001" fill="#0081CD" stroke="#000000" width="18" height="18"/>
<rect x="125.999" y="54.001" fill="#FEC200" stroke="#000000" width="18" height="18"/>
<rect x="143.999" y="90.001" fill="#FEC200" stroke="#000000" width="18" height="18"/>
<rect x="107.999" y="72.001" fill="#FEC200" stroke="#000000" width="18" height="18"/>
<rect x="143.999" y="54.001" fill="#BC1E47" stroke="#000000" width="18" height="18"/>
<rect x="125.999" y="72.001" fill="#BC1E47" stroke="#000000" width="18" height="18"/>
<rect x="107.999" y="90.001" fill="#BC1E47" stroke="#000000" width="18" height="18"/>
<rect x="215.999" y="54.001" fill="#0081CD" stroke="#000000" width="18" height="18"/>
<rect x="251.999" y="72.001" fill="#0081CD" stroke="#000000" width="18.001" height="18"/>
<rect x="233.999" y="90.001" fill="#0081CD" stroke="#000000" width="18" height="18"/>
<rect x="233.999" y="54.001" fill="#FEC200" stroke="#000000" width="18" height="18"/>
<rect x="251.999" y="90.001" fill="#FEC200" stroke="#000000" width="18.001" height="18"/>
<rect x="215.999" y="72.001" fill="#FEC200" stroke="#000000" width="18" height="18"/>
<rect x="251.999" y="54.001" fill="#BC1E47" stroke="#000000" width="18" height="18"/>
<rect x="233.999" y="72.001" fill="#BC1E47" stroke="#000000" width="18" height="18"/>
<rect x="215.999" y="90.001" fill="#BC1E47" stroke="#000000" width="18" height="18"/>
<rect x="270" y="54.001" fill="#0081CD" stroke="#000000" width="18" height="18"/>
<rect x="270" y="72.001" fill="#FEC200" stroke="#000000" width="18" height="18"/>
<rect x="270" y="90.001" fill="#BC1E47" stroke="#000000" width="18" height="18"/>
<rect x="161.999" y="54.001" fill="#0081CD" stroke="#000000" width="18" height="18"/>
<rect x="197.998" y="72.002" fill="#0081CD" stroke="#000000" width="18" height="18"/>
<rect x="179.998" y="90.002" fill="#0081CD" stroke="#000000" width="18" height="18"/>
<rect x="179.999" y="54.001" fill="#FEC200" stroke="#000000" width="18" height="18"/>
<rect x="197.998" y="90.002" fill="#FEC200" stroke="#000000" width="18" height="18"/>
<rect x="161.999" y="72.001" fill="#FEC200" stroke="#000000" width="18" height="18"/>
<rect x="197.999" y="54.001" fill="#BC1E47" stroke="#000000" width="18" height="18"/>
<rect x="0" y="216" fill="#0081CD" stroke="#000000" width="18" height="18"/>
<rect x="35.999" y="234" fill="#0081CD" stroke="#000000" width="18" height="18"/>
<rect x="17.999" y="252" fill="#0081CD" stroke="#000000" width="18" height="18"/>
<rect x="18" y="216" fill="#FEC200" stroke="#000000" width="18" height="18"/>
<rect x="35.999" y="252" fill="#FEC200" stroke="#000000" width="18" height="18"/>
<rect x="0" y="234" fill="#FEC200" stroke="#000000" width="18" height="18"/>
<rect x="36" y="216" fill="#BC1E47" stroke="#000000" width="18" height="18"/>
<rect x="18" y="234" fill="#BC1E47" stroke="#000000" width="18" height="18"/>
<rect x="0" y="252" fill="#BC1E47" stroke="#000000" width="18" height="18"/>
<rect x="53.999" y="216" fill="#0081CD" stroke="#000000" width="18" height="18"/>
<rect x="89.999" y="234.001" fill="#0081CD" stroke="#000000" width="18" height="18"/>
<rect x="71.999" y="252.001" fill="#0081CD" stroke="#000000" width="18" height="18"/>
<rect x="71.999" y="216" fill="#FEC200" stroke="#000000" width="18" height="18"/>
<rect x="89.999" y="252.001" fill="#FEC200" stroke="#000000" width="18" height="18"/>
<rect x="53.999" y="234" fill="#FEC200" stroke="#000000" width="18" height="18"/>
<rect x="89.999" y="216" fill="#BC1E47" stroke="#000000" width="18" height="18"/>
<rect x="71.999" y="234" fill="#BC1E47" stroke="#000000" width="18" height="18"/>
<rect x="53.999" y="252" fill="#BC1E47" stroke="#000000" width="18" height="18"/>
<rect x="107.999" y="216" fill="#0081CD" stroke="#000000" width="18" height="18"/>
<rect x="143.999" y="234.001" fill="#0081CD" stroke="#000000" width="18" height="18"/>
<rect x="125.999" y="252.001" fill="#0081CD" stroke="#000000" width="18" height="18"/>
<rect x="125.999" y="216" fill="#FEC200" stroke="#000000" width="18" height="18"/>
<rect x="143.999" y="252.001" fill="#FEC200" stroke="#000000" width="18" height="18"/>
<rect x="107.999" y="234" fill="#FEC200" stroke="#000000" width="18" height="18"/>
<rect x="143.999" y="216" fill="#BC1E47" stroke="#000000" width="18" height="18"/>
<rect x="125.999" y="234" fill="#BC1E47" stroke="#000000" width="18" height="18"/>
<rect x="107.999" y="252" fill="#BC1E47" stroke="#000000" width="18" height="18"/>
<rect x="215.999" y="216" fill="#0081CD" stroke="#000000" width="18" height="18"/>
<rect x="251.999" y="234.001" fill="#0081CD" stroke="#000000" width="18.001" height="18"/>
<rect x="233.999" y="252.001" fill="#0081CD" stroke="#000000" width="18" height="18"/>
<rect x="233.999" y="216" fill="#FEC200" stroke="#000000" width="18" height="18"/>
<rect x="251.999" y="252.001" fill="#FEC200" stroke="#000000" width="18.001" height="18"/>
<rect x="215.999" y="234" fill="#FEC200" stroke="#000000" width="18" height="18"/>
<rect x="251.999" y="216" fill="#BC1E47" stroke="#000000" width="18" height="18"/>
<rect x="233.999" y="234" fill="#BC1E47" stroke="#000000" width="18" height="18"/>
<rect x="215.999" y="252" fill="#BC1E47" stroke="#000000" width="18" height="18"/>
<rect x="270" y="216.001" fill="#0081CD" stroke="#000000" width="18" height="18"/>
<rect x="270" y="234.001" fill="#FEC200" stroke="#000000" width="18" height="18"/>
<rect x="270" y="252.001" fill="#BC1E47" stroke="#000000" width="18" height="18"/>
<rect x="161.999" y="216.001" fill="#0081CD" stroke="#000000" width="18" height="18"/>
<rect x="197.998" y="234.002" fill="#0081CD" stroke="#000000" width="18" height="18"/>
<rect x="179.998" y="252.002" fill="#0081CD" stroke="#000000" width="18" height="18"/>
<rect x="179.999" y="216.001" fill="#FEC200" stroke="#000000" width="18" height="18"/>
<rect x="197.998" y="252.002" fill="#FEC200" stroke="#000000" width="18" height="18"/>
<rect x="161.999" y="234.001" fill="#FEC200" stroke="#000000" width="18" height="18"/>
<rect x="197.999" y="216.001" fill="#BC1E47" stroke="#000000" width="18" height="18"/>
<rect x="179.999" y="234.001" fill="#BC1E47" stroke="#000000" width="18" height="18"/>
<rect x="161.999" y="252.001" fill="#BC1E47" stroke="#000000" width="18" height="18"/>
<rect x="-0.001" y="270" fill="#0081CD" stroke="#000000" width="18" height="18"/>
<rect x="17.999" y="270" fill="#FEC200" stroke="#000000" width="18" height="18"/>
<rect x="35.999" y="270" fill="#BC1E47" stroke="#000000" width="18" height="18"/>
<rect x="53.999" y="270.001" fill="#0081CD" stroke="#000000" width="18" height="18"/>
<rect x="71.999" y="270.001" fill="#FEC200" stroke="#000000" width="18" height="18"/>
<rect x="89.999" y="270.001" fill="#BC1E47" stroke="#000000" width="18" height="18"/>
<rect x="107.999" y="270.001" fill="#0081CD" stroke="#000000" width="18" height="18"/>
<rect x="125.999" y="270.001" fill="#FEC200" stroke="#000000" width="18" height="18"/>
<rect x="143.999" y="270.001" fill="#BC1E47" stroke="#000000" width="18" height="18"/>
<rect x="215.999" y="270.001" fill="#0081CD" stroke="#000000" width="18" height="18"/>
<rect x="233.999" y="270.001" fill="#FEC200" stroke="#000000" width="18" height="18"/>
<rect x="251.999" y="270.001" fill="#BC1E47" stroke="#000000" width="18.001" height="18"/>
<rect x="270" y="270.002" fill="#0081CD" stroke="#000000" width="18" height="18"/>
<rect x="161.998" y="270.002" fill="#0081CD" stroke="#000000" width="18" height="18"/>
<rect x="179.998" y="270.002" fill="#FEC200" stroke="#000000" width="18" height="18"/>
<rect x="197.998" y="270.002" fill="#BC1E47" stroke="#000000" width="18" height="18"/>
<rect x="179.999" y="72.001" fill="#BC1E47" stroke="#000000" width="18" height="18"/>
<rect x="161.999" y="90.001" fill="#BC1E47" stroke="#000000" width="18" height="18"/>
<rect x="0" y="108" fill="#0081CD" stroke="#000000" width="18" height="18"/>
<rect x="35.999" y="126.001" fill="#0081CD" stroke="#000000" width="18" height="18"/>
<rect x="17.999" y="144.001" fill="#0081CD" stroke="#000000" width="18" height="18"/>
<rect x="18" y="108" fill="#FEC200" stroke="#000000" width="18" height="18"/>
<rect x="35.999" y="144.001" fill="#FEC200" stroke="#000000" width="18" height="18"/>
<rect x="0" y="126" fill="#FEC200" stroke="#000000" width="18" height="18"/>
<rect x="36" y="108" fill="#BC1E47" stroke="#000000" width="18" height="18"/>
<rect x="18" y="126" fill="#BC1E47" stroke="#000000" width="18" height="18"/>
<rect x="0" y="144" fill="#BC1E47" stroke="#000000" width="18" height="18"/>
<rect x="53.999" y="108.001" fill="#0081CD" stroke="#000000" width="18" height="18"/>
<rect x="89.999" y="126.001" fill="#0081CD" stroke="#000000" width="18" height="18"/>
<rect x="71.999" y="144.001" fill="#0081CD" stroke="#000000" width="18" height="18"/>
<rect x="71.999" y="108.001" fill="#FEC200" stroke="#000000" width="18" height="18"/>
<rect x="89.999" y="144.001" fill="#FEC200" stroke="#000000" width="18" height="18"/>
<rect x="53.999" y="126.001" fill="#FEC200" stroke="#000000" width="18" height="18"/>
<rect x="89.999" y="108.001" fill="#BC1E47" stroke="#000000" width="18" height="18"/>
<rect x="71.999" y="126.001" fill="#BC1E47" stroke="#000000" width="18" height="18"/>
<rect x="53.999" y="144.001" fill="#BC1E47" stroke="#000000" width="18" height="18"/>
<rect x="107.999" y="108.001" fill="#0081CD" stroke="#000000" width="18" height="18"/>
<rect x="143.999" y="126.001" fill="#0081CD" stroke="#000000" width="18" height="18"/>
<rect x="125.999" y="144.001" fill="#0081CD" stroke="#000000" width="18" height="18"/>
<rect x="125.999" y="108.001" fill="#FEC200" stroke="#000000" width="18" height="18"/>
<rect x="143.999" y="144.001" fill="#FEC200" stroke="#000000" width="18" height="18"/>
<rect x="107.999" y="126.001" fill="#FEC200" stroke="#000000" width="18" height="18"/>
<rect x="143.999" y="108.001" fill="#BC1E47" stroke="#000000" width="18" height="18"/>
<rect x="125.999" y="126.001" fill="#BC1E47" stroke="#000000" width="18" height="18"/>
<rect x="107.999" y="144.001" fill="#BC1E47" stroke="#000000" width="18" height="18"/>
<rect x="215.999" y="108.001" fill="#0081CD" stroke="#000000" width="18" height="18"/>
<rect x="251.999" y="126.001" fill="#0081CD" stroke="#000000" width="18.001" height="18"/>
<rect x="233.999" y="144.001" fill="#0081CD" stroke="#000000" width="18" height="18"/>
<rect x="233.999" y="108.001" fill="#FEC200" stroke="#000000" width="18" height="18"/>
<rect x="251.999" y="144.001" fill="#FEC200" stroke="#000000" width="18.001" height="18"/>
<rect x="215.999" y="126.001" fill="#FEC200" stroke="#000000" width="18" height="18"/>
<rect x="251.999" y="108.001" fill="#BC1E47" stroke="#000000" width="18" height="18"/>
<rect x="233.999" y="126.001" fill="#BC1E47" stroke="#000000" width="18" height="18"/>
<rect x="215.999" y="144.001" fill="#BC1E47" stroke="#000000" width="18" height="18"/>
<rect x="270" y="108.001" fill="#0081CD" stroke="#000000" width="18" height="18"/>
<rect x="270" y="126.001" fill="#FEC200" stroke="#000000" width="18" height="18"/>
<rect x="270" y="144.001" fill="#BC1E47" stroke="#000000" width="18" height="18"/>
<rect x="161.999" y="108.001" fill="#0081CD" stroke="#000000" width="18" height="18"/>
<rect x="197.998" y="126.002" fill="#0081CD" stroke="#000000" width="18" height="18"/>
<rect x="179.998" y="144.002" fill="#0081CD" stroke="#000000" width="18" height="18"/>
<rect x="179.999" y="108.001" fill="#FEC200" stroke="#000000" width="18" height="18"/>
<rect x="197.998" y="144.002" fill="#FEC200" stroke="#000000" width="18" height="18"/>
<rect x="161.999" y="126.001" fill="#FEC200" stroke="#000000" width="18" height="18"/>
<rect x="197.999" y="108.001" fill="#BC1E47" stroke="#000000" width="18" height="18"/>
<rect x="179.999" y="126.001" fill="#BC1E47" stroke="#000000" width="18" height="18"/>
<rect x="161.999" y="144.001" fill="#BC1E47" stroke="#000000" width="18" height="18"/>
<rect x="-0.001" y="162.001" fill="#0081CD" stroke="#000000" width="18" height="18"/>
<rect x="35.999" y="180.001" fill="#0081CD" stroke="#000000" width="18" height="18"/>
<rect x="17.999" y="198.001" fill="#0081CD" stroke="#000000" width="18" height="18"/>
<rect x="17.999" y="162.001" fill="#FEC200" stroke="#000000" width="18" height="18"/>
<rect x="35.999" y="198.001" fill="#FEC200" stroke="#000000" width="18" height="18"/>
<rect x="-0.001" y="180.001" fill="#FEC200" stroke="#000000" width="18" height="18"/>
<rect x="35.999" y="162.001" fill="#BC1E47" stroke="#000000" width="18" height="18"/>
<rect x="17.999" y="180.001" fill="#BC1E47" stroke="#000000" width="18" height="18"/>
<rect x="-0.001" y="198.001" fill="#BC1E47" stroke="#000000" width="18" height="18"/>
<rect x="53.999" y="162.001" fill="#0081CD" stroke="#000000" width="18" height="18"/>
<rect x="89.998" y="180.002" fill="#0081CD" stroke="#000000" width="18" height="18"/>
<rect x="71.998" y="198.002" fill="#0081CD" stroke="#000000" width="18" height="18"/>
<rect x="71.999" y="162.001" fill="#FEC200" stroke="#000000" width="18" height="18"/>
<rect x="89.998" y="198.002" fill="#FEC200" stroke="#000000" width="18" height="18"/>
<rect x="53.999" y="180.001" fill="#FEC200" stroke="#000000" width="18" height="18"/>
<rect x="89.999" y="162.001" fill="#BC1E47" stroke="#000000" width="18" height="18"/>
<rect x="71.999" y="180.001" fill="#BC1E47" stroke="#000000" width="18" height="18"/>
<rect x="53.999" y="198.001" fill="#BC1E47" stroke="#000000" width="18" height="18"/>
<rect x="107.999" y="162.001" fill="#0081CD" stroke="#000000" width="18" height="18"/>
<rect x="143.998" y="180.002" fill="#0081CD" stroke="#000000" width="18" height="18"/>
<rect x="125.998" y="198.002" fill="#0081CD" stroke="#000000" width="18" height="18"/>
<rect x="125.999" y="162.001" fill="#FEC200" stroke="#000000" width="18" height="18"/>
<rect x="143.998" y="198.002" fill="#FEC200" stroke="#000000" width="18" height="18"/>
<rect x="107.999" y="180.001" fill="#FEC200" stroke="#000000" width="18" height="18"/>
<rect x="143.999" y="162.001" fill="#BC1E47" stroke="#000000" width="18" height="18"/>
<rect x="125.999" y="180.001" fill="#BC1E47" stroke="#000000" width="18" height="18"/>
<rect x="107.999" y="198.001" fill="#BC1E47" stroke="#000000" width="18" height="18"/>
<rect x="215.999" y="162.001" fill="#0081CD" stroke="#000000" width="18" height="18"/>
<rect x="251.998" y="180.002" fill="#0081CD" stroke="#000000" width="18.001" height="18"/>
<rect x="233.998" y="198.002" fill="#0081CD" stroke="#000000" width="18" height="18"/>
<rect x="233.999" y="162.001" fill="#FEC200" stroke="#000000" width="18" height="18"/>
<rect x="251.998" y="198.002" fill="#FEC200" stroke="#000000" width="18.001" height="18"/>
<rect x="215.999" y="180.001" fill="#FEC200" stroke="#000000" width="18" height="18"/>
<rect x="251.999" y="162.001" fill="#BC1E47" stroke="#000000" width="18.001" height="18"/>
<rect x="233.999" y="180.001" fill="#BC1E47" stroke="#000000" width="18" height="18"/>
<rect x="215.999" y="198.001" fill="#BC1E47" stroke="#000000" width="18" height="18"/>
<rect x="270" y="162.002" fill="#0081CD" stroke="#000000" width="18" height="18"/>
<rect x="270" y="180.002" fill="#FEC200" stroke="#000000" width="18" height="18"/>
<rect x="270" y="198.002" fill="#BC1E47" stroke="#000000" width="18" height="18"/>
<rect x="161.998" y="162.002" fill="#0081CD" stroke="#000000" width="18" height="18"/>
<rect x="197.998" y="180.002" fill="#0081CD" stroke="#000000" width="18" height="18"/>
<rect x="179.998" y="198.002" fill="#0081CD" stroke="#000000" width="18" height="18"/>
<rect x="179.998" y="162.002" fill="#FEC200" stroke="#000000" width="18" height="18"/>
<rect x="197.998" y="198.002" fill="#FEC200" stroke="#000000" width="18" height="18"/>
<rect x="161.998" y="180.002" fill="#FEC200" stroke="#000000" width="18" height="18"/>
<rect x="197.998" y="162.002" fill="#BC1E47" stroke="#000000" width="18" height="18"/>
<rect x="179.998" y="180.002" fill="#BC1E47" stroke="#000000" width="18" height="18"/>
<rect x="161.998" y="198.002" fill="#BC1E47" stroke="#000000" width="18" height="18"/>
</svg>
