<?xml version="1.0" encoding="utf-8"?>
<!-- Generator: Adobe Illustrator 15.1.0, SVG Export Plug-In . SVG Version: 6.00 Build 0)  -->
<!DOCTYPE svg PUBLIC "-//W3C//DTD SVG 1.1//EN" "http://www.w3.org/Graphics/SVG/1.1/DTD/svg11.dtd">
<svg version="1.1" id="Layer_1" xmlns="http://www.w3.org/2000/svg" xmlns:xlink="http://www.w3.org/1999/xlink" x="0px" y="0px"
	 width="732px" height="298px" viewBox="0 0 732 298" enable-background="new 0 0 732 298" xml:space="preserve">
<ellipse fill="#FFF566" stroke="#0081CD" stroke-width="2" cx="259" cy="148.999" rx="19.5" ry="4.501"/>
<path fill="none" stroke="#0081CD" stroke-width="2" d="M559.85,23c0,0,2.811-15,22.98-15s23.578,15,23.578,15"/>
<path fill="#FFF566" stroke="#0081CD" stroke-width="2" d="M559.85,23l22.981,0.5l23.577-0.5c0,27-6.408,41-23.408,41
	S559.85,50,559.85,23z"/>
<line fill="none" stroke="#0081CD" stroke-width="2" x1="457" y1="23" x2="493" y2="23"/>
<path fill="#FFF566" stroke="#0081CD" stroke-width="2" d="M493,23l-20.247,17.999L457,23c-18,17.999-7.5,41,18,41S510.5,41,493,23z
	"/>
<circle fill="#FFF566" stroke="#0081CD" stroke-width="2" cx="693" cy="151.111" r="27.889"/>
<path fill="none" stroke="#0081CD" stroke-width="2" d="M565,170c-18-20-18-43,18-43s36,22.957,18,43.479"/>
<polygon fill="#FFF566" stroke="#0081CD" stroke-width="2" points="583,127 570,147 565,170 601,170 596,147 "/>
<path fill="none" stroke="#0081CD" stroke-width="2" d="M457,129c0,24.5,1,40.956,18,40.956S493,157.5,493,129"/>
<line fill="none" stroke="#0081CD" stroke-width="2" x1="475" y1="147" x2="475" y2="169.956"/>
<polygon fill="#FFF566" stroke="#0081CD" stroke-width="2" points="385,140 349,140 367,167 "/>
<circle fill="#FFFFFF" stroke="#000000" cx="151" cy="149" r="9"/>
<g>
	<path d="M150.752,146.188h-0.024l-1.355,0.731l-0.204-0.803l1.703-0.912h0.9V153h-1.02V146.188z"/>
</g>
<circle fill="#FFFFFF" stroke="#000000" cx="241" cy="149" r="9"/>
<g>
	<path d="M240.752,146.188h-0.024l-1.355,0.731l-0.204-0.803l1.703-0.912h0.9V153h-1.02V146.188z"/>
</g>
<circle fill="#FFFFFF" stroke="#000000" cx="277" cy="149" r="9"/>
<g>
	<path d="M274.461,153v-0.647l0.828-0.804c1.991-1.895,2.902-2.902,2.902-4.078c0-0.791-0.372-1.522-1.535-1.522
		c-0.708,0-1.295,0.359-1.655,0.659l-0.336-0.743c0.528-0.444,1.307-0.792,2.195-0.792c1.679,0,2.387,1.151,2.387,2.267
		c0,1.439-1.043,2.603-2.687,4.186l-0.612,0.576v0.023h3.49V153H274.461z"/>
</g>
<circle fill="#FFFFFF" stroke="#000000" cx="349" cy="140" r="9"/>
<g>
	<path d="M348.752,137.188h-0.024l-1.355,0.731l-0.204-0.803l1.703-0.912h0.9V144h-1.02V137.188z"/>
</g>
<circle fill="#FFFFFF" stroke="#000000" cx="583" cy="44" r="9"/>
<g>
	<path d="M582.752,41.188h-0.023l-1.355,0.731l-0.204-0.803l1.703-0.912h0.899V48h-1.02V41.188z"/>
</g>
<circle fill="#FFFFFF" stroke="#000000" cx="691" cy="165.435" r="9"/>
<g>
	<path d="M690.752,162.622h-0.023l-1.355,0.731l-0.204-0.803l1.703-0.912h0.899v7.796h-1.02V162.622z"/>
</g>
<circle fill="#FFFFFF" stroke="#000000" cx="385" cy="140" r="9"/>
<g>
	<path d="M382.461,144v-0.647l0.828-0.804c1.991-1.895,2.902-2.902,2.902-4.078c0-0.791-0.371-1.522-1.535-1.522
		c-0.707,0-1.295,0.359-1.654,0.659l-0.336-0.743c0.527-0.444,1.307-0.792,2.194-0.792c1.679,0,2.387,1.151,2.387,2.267
		c0,1.439-1.044,2.603-2.687,4.186l-0.611,0.576v0.023h3.49V144H382.461z"/>
</g>
<circle fill="#FFFFFF" stroke="#000000" cx="701" cy="147" r="9"/>
<g>
	<path d="M698.461,151v-0.647l0.828-0.804c1.991-1.895,2.902-2.902,2.902-4.078c0-0.791-0.371-1.522-1.535-1.522
		c-0.707,0-1.295,0.359-1.654,0.659l-0.336-0.743c0.527-0.444,1.307-0.792,2.194-0.792c1.679,0,2.387,1.151,2.387,2.267
		c0,1.439-1.044,2.603-2.687,4.186l-0.611,0.576v0.023h3.49V151H698.461z"/>
</g>
<circle fill="#FFFFFF" stroke="#000000" cx="367" cy="167" r="9"/>
<g>
	<path d="M364.713,169.801c0.3,0.18,0.983,0.479,1.727,0.479c1.343,0,1.774-0.852,1.763-1.511c-0.012-1.092-0.995-1.56-2.015-1.56
		h-0.587v-0.791h0.587c0.768,0,1.739-0.396,1.739-1.319c0-0.624-0.396-1.176-1.367-1.176c-0.624,0-1.224,0.276-1.559,0.516
		l-0.288-0.768c0.42-0.3,1.211-0.6,2.051-0.6c1.535,0,2.231,0.911,2.231,1.859c0,0.815-0.491,1.499-1.439,1.847v0.024
		c0.96,0.18,1.728,0.899,1.739,1.99c0,1.248-0.983,2.339-2.842,2.339c-0.875,0-1.643-0.275-2.027-0.527L364.713,169.801z"/>
</g>
<circle fill="#FFFFFF" stroke="#000000" cx="475" cy="64" r="9"/>
<g>
	<path d="M472.713,66.801c0.301,0.18,0.984,0.479,1.728,0.479c1.343,0,1.774-0.852,1.763-1.511c-0.012-1.092-0.995-1.56-2.015-1.56
		h-0.587v-0.791h0.587c0.768,0,1.739-0.396,1.739-1.319c0-0.624-0.396-1.176-1.367-1.176c-0.624,0-1.224,0.276-1.559,0.516
		l-0.289-0.768c0.42-0.3,1.212-0.6,2.051-0.6c1.535,0,2.231,0.911,2.231,1.859c0,0.815-0.491,1.499-1.439,1.847v0.024
		c0.96,0.18,1.728,0.899,1.739,1.99c0,1.248-0.983,2.339-2.842,2.339c-0.876,0-1.644-0.275-2.027-0.527L472.713,66.801z"/>
</g>
<circle fill="#FFFFFF" stroke="#000000" cx="680.019" cy="148" r="9"/>
<g>
	<path d="M677.732,150.801c0.299,0.18,0.982,0.479,1.727,0.479c1.344,0,1.775-0.852,1.764-1.511c-0.013-1.092-0.996-1.56-2.016-1.56
		h-0.588v-0.791h0.588c0.768,0,1.739-0.396,1.739-1.319c0-0.624-0.396-1.176-1.367-1.176c-0.624,0-1.224,0.276-1.56,0.516
		l-0.287-0.768c0.42-0.3,1.211-0.6,2.051-0.6c1.535,0,2.23,0.911,2.23,1.859c0,0.815-0.492,1.499-1.439,1.847v0.024
		c0.959,0.18,1.727,0.899,1.739,1.99c0,1.248-0.983,2.339-2.843,2.339c-0.875,0-1.643-0.275-2.026-0.527L677.732,150.801z"/>
</g>
<polygon fill="#FFF566" stroke="#0081CD" stroke-width="2" points="493,129 457,129 475,147 "/>
<circle fill="#FFFFFF" stroke="#000000" cx="457" cy="129" r="9"/>
<g>
	<path d="M454.461,133v-0.647l0.828-0.804c1.991-1.895,2.902-2.902,2.902-4.078c0-0.791-0.371-1.522-1.535-1.522
		c-0.707,0-1.295,0.359-1.654,0.659l-0.336-0.743c0.527-0.444,1.307-0.792,2.194-0.792c1.679,0,2.387,1.151,2.387,2.267
		c0,1.439-1.044,2.603-2.687,4.186l-0.611,0.576v0.023h3.49V133H454.461z"/>
</g>
<circle fill="#FFFFFF" stroke="#000000" cx="475" cy="41" r="9"/>
<g>
	<path d="M474.752,38.188h-0.023l-1.355,0.731l-0.204-0.803l1.703-0.912h0.899V45h-1.02V38.188z"/>
</g>
<circle fill="#FFFFFF" stroke="#000000" cx="493" cy="129" r="9"/>
<g>
	<path d="M490.713,131.801c0.301,0.18,0.984,0.479,1.728,0.479c1.343,0,1.774-0.852,1.763-1.511c-0.012-1.092-0.995-1.56-2.015-1.56
		h-0.587v-0.791h0.587c0.768,0,1.739-0.396,1.739-1.319c0-0.624-0.396-1.176-1.367-1.176c-0.624,0-1.224,0.276-1.559,0.516
		l-0.289-0.768c0.42-0.3,1.212-0.6,2.051-0.6c1.535,0,2.231,0.911,2.231,1.859c0,0.815-0.491,1.499-1.439,1.847v0.024
		c0.96,0.18,1.728,0.899,1.739,1.99c0,1.248-0.983,2.339-2.842,2.339c-0.876,0-1.644-0.275-2.027-0.527L490.713,131.801z"/>
</g>
<circle fill="#FFFFFF" stroke="#000000" cx="493" cy="23" r="9"/>
<g>
	<path d="M490.461,27v-0.647l0.828-0.804c1.991-1.895,2.902-2.902,2.902-4.078c0-0.791-0.371-1.522-1.535-1.522
		c-0.707,0-1.295,0.359-1.654,0.659l-0.336-0.743c0.527-0.444,1.307-0.792,2.194-0.792c1.679,0,2.387,1.151,2.387,2.267
		c0,1.439-1.044,2.603-2.687,4.186l-0.611,0.576v0.023h3.49V27H490.461z"/>
</g>
<circle fill="#FFFFFF" stroke="#000000" cx="475" cy="147" r="9"/>
<g>
	<path d="M474.752,144.188h-0.023l-1.355,0.731l-0.204-0.803l1.703-0.912h0.899V151h-1.02V144.188z"/>
</g>
<circle fill="#FFFFFF" stroke="#000000" cx="475" cy="169.956" r="9"/>
<g>
	<path d="M475.724,173.956v-2.135h-3.622v-0.684l3.479-4.978h1.139v4.846h1.092v0.815h-1.092v2.135H475.724z M475.724,171.006
		v-2.603c0-0.408,0.013-0.815,0.036-1.224h-0.036c-0.239,0.456-0.432,0.792-0.647,1.151l-1.907,2.65v0.024H475.724z"/>
</g>
<circle fill="#FFFFFF" stroke="#000000" cx="583" cy="64" r="9"/>
<g>
	<path d="M583.724,68v-2.135h-3.622v-0.684l3.479-4.978h1.139v4.846h1.092v0.815h-1.092V68H583.724z M583.724,65.05v-2.603
		c0-0.408,0.013-0.815,0.036-1.224h-0.036c-0.239,0.456-0.432,0.792-0.647,1.151l-1.907,2.65v0.024H583.724z"/>
</g>
<circle fill="#FFFFFF" stroke="#000000" cx="457" cy="23" r="9"/>
<g>
	<path d="M457.724,27v-2.135h-3.622v-0.684l3.479-4.978h1.139v4.846h1.092v0.815h-1.092V27H457.724z M457.724,24.05v-2.603
		c0-0.408,0.013-0.815,0.036-1.224h-0.036c-0.239,0.456-0.432,0.792-0.647,1.151l-1.907,2.65v0.024H457.724z"/>
</g>
<circle fill="#FFFFFF" stroke="#000000" cx="596" cy="147" r="9"/>
<g>
	<path d="M595.752,144.188h-0.023l-1.355,0.731l-0.204-0.803l1.703-0.912h0.899V151h-1.02V144.188z"/>
</g>
<circle fill="#FFFFFF" stroke="#000000" cx="570" cy="147" r="9"/>
<g>
	<path d="M567.461,151v-0.647l0.828-0.804c1.991-1.895,2.902-2.902,2.902-4.078c0-0.791-0.371-1.522-1.535-1.522
		c-0.707,0-1.295,0.359-1.654,0.659l-0.336-0.743c0.527-0.444,1.307-0.792,2.194-0.792c1.679,0,2.387,1.151,2.387,2.267
		c0,1.439-1.044,2.603-2.687,4.186l-0.611,0.576v0.023h3.49V151H567.461z"/>
</g>
<circle fill="#FFFFFF" stroke="#000000" cx="583" cy="127" r="9"/>
<g>
	<path d="M580.713,129.801c0.301,0.18,0.984,0.479,1.728,0.479c1.343,0,1.774-0.852,1.763-1.511c-0.012-1.092-0.995-1.56-2.015-1.56
		h-0.587v-0.791h0.587c0.768,0,1.739-0.396,1.739-1.319c0-0.624-0.396-1.176-1.367-1.176c-0.624,0-1.224,0.276-1.559,0.516
		l-0.289-0.768c0.42-0.3,1.212-0.6,2.051-0.6c1.535,0,2.231,0.911,2.231,1.859c0,0.815-0.491,1.499-1.439,1.847v0.024
		c0.96,0.18,1.728,0.899,1.739,1.99c0,1.248-0.983,2.339-2.842,2.339c-0.876,0-1.644-0.275-2.027-0.527L580.713,129.801z"/>
</g>
<circle fill="#FFFFFF" stroke="#000000" cx="606.408" cy="23" r="9"/>
<g>
	<path d="M604.121,25.801c0.301,0.18,0.984,0.479,1.728,0.479c1.343,0,1.774-0.852,1.763-1.511c-0.012-1.092-0.995-1.56-2.015-1.56
		h-0.587v-0.791h0.587c0.768,0,1.739-0.396,1.739-1.319c0-0.624-0.396-1.176-1.367-1.176c-0.624,0-1.224,0.276-1.559,0.516
		l-0.289-0.768c0.42-0.3,1.212-0.6,2.051-0.6c1.535,0,2.231,0.911,2.231,1.859c0,0.815-0.491,1.499-1.439,1.847v0.024
		c0.96,0.18,1.728,0.899,1.739,1.99c0,1.248-0.983,2.339-2.842,2.339c-0.876,0-1.644-0.275-2.027-0.527L604.121,25.801z"/>
</g>
<circle fill="#FFFFFF" stroke="#000000" cx="601" cy="170" r="9"/>
<g>
	<path d="M601.724,174v-2.135h-3.622v-0.684l3.479-4.978h1.139v4.846h1.092v0.815h-1.092V174H601.724z M601.724,171.05v-2.603
		c0-0.408,0.013-0.815,0.036-1.224h-0.036c-0.239,0.456-0.432,0.792-0.647,1.151l-1.907,2.65v0.024H601.724z"/>
</g>
<circle fill="#FFFFFF" stroke="#000000" cx="713.5" cy="167" r="9"/>
<g>
	<path d="M714.224,171v-2.135h-3.622v-0.684l3.479-4.978h1.139v4.846h1.092v0.815h-1.092V171H714.224z M714.224,168.05v-2.603
		c0-0.408,0.013-0.815,0.036-1.224h-0.036c-0.239,0.456-0.432,0.792-0.647,1.151l-1.907,2.65v0.024H714.224z"/>
</g>
<circle fill="#FFFFFF" stroke="#000000" cx="565" cy="170" r="9"/>
<g>
	<path d="M567.115,167.092h-2.975l-0.3,2.003c0.18-0.024,0.348-0.036,0.636-0.036c0.611,0,1.199,0.12,1.68,0.42
		c0.611,0.336,1.115,1.02,1.115,1.991c0,1.522-1.212,2.662-2.902,2.662c-0.852,0-1.56-0.24-1.943-0.479l0.264-0.804
		c0.324,0.192,0.959,0.432,1.68,0.432c0.982,0,1.846-0.647,1.834-1.691c0-1.007-0.684-1.715-2.23-1.715
		c-0.455,0-0.804,0.036-1.092,0.072l0.504-3.742h3.73V167.092z"/>
</g>
<circle fill="#FFFFFF" stroke="#000000" cx="559.85" cy="23" r="9"/>
<g>
	<path d="M561.965,20.092h-2.975l-0.3,2.003c0.18-0.024,0.348-0.036,0.636-0.036c0.611,0,1.199,0.12,1.68,0.42
		c0.611,0.336,1.115,1.02,1.115,1.991c0,1.522-1.212,2.662-2.902,2.662c-0.852,0-1.56-0.24-1.943-0.479l0.264-0.804
		c0.324,0.192,0.959,0.432,1.68,0.432c0.982,0,1.846-0.647,1.834-1.691c0-1.007-0.684-1.715-2.23-1.715
		c-0.455,0-0.804,0.036-1.092,0.072l0.504-3.742h3.73V20.092z"/>
</g>
<circle fill="#FFFFFF" stroke="#000000" cx="582.831" cy="23.5" r="9"/>
<g>
	<path d="M580.293,27.5v-0.647l0.827-0.804c1.991-1.895,2.902-2.902,2.902-4.078c0-0.791-0.372-1.522-1.535-1.522
		c-0.708,0-1.295,0.359-1.655,0.659l-0.336-0.743c0.528-0.444,1.308-0.792,2.195-0.792c1.68,0,2.387,1.151,2.387,2.267
		c0,1.439-1.043,2.603-2.687,4.186l-0.612,0.576v0.023h3.49V27.5H580.293z"/>
</g>
<path fill="none" stroke="#009246" d="M79,172.999c0,6.627-5.373,12-12,12H19c-6.627,0-12-5.373-12-12v-48c0-6.627,5.373-12,12-12
	h48c6.627,0,12,5.373,12,12V172.999z"/>
<path fill="none" stroke="#009246" d="M187,172.999c0,6.627-5.373,12-12,12h-48c-6.627,0-12-5.373-12-12v-48c0-6.627,5.373-12,12-12
	h48c6.627,0,12,5.373,12,12V172.999z"/>
<path fill="none" stroke="#009246" d="M295,172.999c0,6.627-5.373,12-12,12h-48c-6.627,0-12-5.373-12-12v-48c0-6.627,5.373-12,12-12
	h48c6.627,0,12,5.373,12,12V172.999z"/>
<path fill="none" stroke="#009246" d="M403,172.999c0,6.627-5.373,12-12,12h-48c-6.627,0-12-5.373-12-12v-48c0-6.627,5.373-12,12-12
	h48c6.627,0,12,5.373,12,12V172.999z"/>
<path fill="none" stroke="#009246" d="M511,172.999c0,6.627-5.373,12-12,12h-48c-6.627,0-12-5.373-12-12v-48c0-6.627,5.373-12,12-12
	h48c6.627,0,12,5.373,12,12V172.999z"/>
<path fill="none" stroke="#009246" d="M511,281c0,6.627-5.373,12-12,12h-48c-6.627,0-12-5.373-12-12v-48c0-6.627,5.373-12,12-12h48
	c6.627,0,12,5.373,12,12V281z"/>
<path fill="none" stroke="#009246" d="M619,281c0,6.627-5.373,12-12,12h-48c-6.627,0-12-5.373-12-12v-48c0-6.627,5.373-12,12-12h48
	c6.627,0,12,5.373,12,12V281z"/>
<path fill="none" stroke="#009246" d="M511,65c0,6.627-5.373,12-12,12h-48c-6.627,0-12-5.373-12-12V17c0-6.627,5.373-12,12-12h48
	c6.627,0,12,5.373,12,12V65z"/>
<path fill="none" stroke="#009246" d="M619,65c0,6.627-5.373,12-12,12h-48c-6.627,0-12-5.373-12-12V17c0-6.627,5.373-12,12-12h48
	c6.627,0,12,5.373,12,12V65z"/>
<path fill="none" stroke="#009246" d="M619,173c0,6.627-5.373,12-12,12h-48c-6.627,0-12-5.373-12-12v-48c0-6.627,5.373-12,12-12h48
	c6.627,0,12,5.373,12,12V173z"/>
<path fill="none" stroke="#009246" d="M727,173c0,6.627-5.373,12-12,12h-48c-6.627,0-12-5.373-12-12v-48c0-6.627,5.373-12,12-12h48
	c6.627,0,12,5.373,12,12V173z"/>
<g>
	<g>
		<line fill="none" stroke="#009246" stroke-width="2" x1="79" y1="140" x2="106" y2="140"/>
		<path fill="#009246" d="M115.053,140c-4.26,1.58-9.545,4.277-12.82,7.133l2.58-7.133l-2.58-7.133
			C105.508,135.723,110.793,138.42,115.053,140z"/>
	</g>
</g>
<g>
	<g>
		<line fill="none" stroke="#009246" stroke-width="2" x1="187" y1="140" x2="214" y2="140"/>
		<path fill="#009246" d="M223.053,140c-4.26,1.58-9.545,4.277-12.82,7.133l2.58-7.133l-2.58-7.133
			C213.508,135.723,218.793,138.42,223.053,140z"/>
	</g>
</g>
<g>
	<g>
		<line fill="none" stroke="#009246" stroke-width="2" x1="115" y1="157.999" x2="88" y2="157.999"/>
		<path fill="#009246" d="M78.948,157.999c4.26-1.581,9.545-4.277,12.82-7.133l-2.58,7.133l2.58,7.132
			C88.493,162.276,83.208,159.579,78.948,157.999z"/>
	</g>
</g>
<g>
	<g>
		<line fill="none" stroke="#009246" stroke-width="2" x1="223" y1="157.999" x2="196" y2="157.999"/>
		<path fill="#009246" d="M186.948,157.999c4.26-1.581,9.545-4.277,12.82-7.133l-2.58,7.133l2.58,7.132
			C196.493,162.276,191.208,159.579,186.948,157.999z"/>
	</g>
</g>
<g>
	<g>
		<line fill="none" stroke="#009246" stroke-width="2" x1="295" y1="139.999" x2="322" y2="139.999"/>
		<path fill="#009246" d="M331.053,139.999c-4.26,1.581-9.545,4.277-12.82,7.132l2.58-7.132l-2.58-7.132
			C321.508,135.722,326.793,138.419,331.053,139.999z"/>
	</g>
</g>
<g>
	<g>
		<line fill="none" stroke="#009246" stroke-width="2" x1="331" y1="157.999" x2="304" y2="157.999"/>
		<path fill="#009246" d="M294.948,157.999c4.26-1.581,9.545-4.277,12.82-7.133l-2.58,7.133l2.58,7.132
			C304.493,162.276,299.208,159.579,294.948,157.999z"/>
	</g>
</g>
<g>
	<g>
		<line fill="none" stroke="#009246" stroke-width="2" x1="403" y1="139.999" x2="430" y2="139.999"/>
		<path fill="#009246" d="M439.053,139.999c-4.26,1.581-9.545,4.277-12.82,7.132l2.58-7.132l-2.58-7.132
			C429.508,135.722,434.793,138.419,439.053,139.999z"/>
	</g>
</g>
<g>
	<g>
		<line fill="none" stroke="#009246" stroke-width="2" x1="439" y1="157.999" x2="412" y2="157.999"/>
		<path fill="#009246" d="M402.947,157.999c4.26-1.581,9.545-4.277,12.82-7.133l-2.58,7.133l2.58,7.132
			C412.492,162.276,407.207,159.579,402.947,157.999z"/>
	</g>
</g>
<g>
	<g>
		<line fill="none" stroke="#009246" stroke-width="2" x1="511" y1="148.999" x2="538" y2="148.999"/>
		<path fill="#009246" d="M547.053,148.999c-4.26,1.581-9.545,4.277-12.82,7.132l2.58-7.132l-2.58-7.132
			C537.508,144.722,542.793,147.419,547.053,148.999z"/>
	</g>
</g>
<g>
	<g>
		<line fill="none" stroke="#009246" stroke-width="2" x1="619" y1="148.999" x2="646" y2="148.999"/>
		<path fill="#009246" d="M655.053,148.999c-4.26,1.581-9.545,4.277-12.82,7.132l2.58-7.132l-2.58-7.132
			C645.508,144.722,650.793,147.419,655.053,148.999z"/>
	</g>
</g>
<g>
	<g>
		<line fill="none" stroke="#009246" stroke-width="2" x1="547" y1="256.999" x2="520" y2="256.999"/>
		<path fill="#009246" d="M510.947,256.999c4.26-1.581,9.545-4.277,12.82-7.133l-2.58,7.133l2.58,7.132
			C520.492,261.276,515.207,258.579,510.947,256.999z"/>
	</g>
</g>
<g>
	<g>
		<line fill="none" stroke="#009246" stroke-width="2" x1="511" y1="31.999" x2="538" y2="31.999"/>
		<path fill="#009246" d="M547.053,31.999c-4.26,1.581-9.545,4.277-12.82,7.132l2.58-7.132l-2.58-7.132
			C537.508,27.722,542.793,30.419,547.053,31.999z"/>
	</g>
</g>
<g>
	<g>
		<line fill="none" stroke="#009246" stroke-width="2" x1="547" y1="49.999" x2="520" y2="49.999"/>
		<path fill="#009246" d="M510.947,49.999c4.26-1.581,9.545-4.277,12.82-7.133l-2.58,7.133l2.58,7.132
			C520.492,54.276,515.207,51.579,510.947,49.999z"/>
	</g>
</g>
<g>
	<g>
		<path fill="none" stroke="#009246" stroke-width="2" d="M547,130.999c-27,0,0-63-27-63"/>
		<path fill="#009246" d="M510.947,67.999c4.26-1.581,9.545-4.277,12.82-7.133l-2.58,7.133l2.58,7.132
			C520.492,72.276,515.207,69.579,510.947,67.999z"/>
	</g>
</g>
<g>
	<g>
		<path fill="none" stroke="#009246" stroke-width="2" d="M439,40.999c-27,0,0,81-27,81"/>
		<path fill="#009246" d="M402.947,121.999c4.26-1.581,9.545-4.277,12.82-7.133l-2.58,7.133l2.58,7.132
			C412.492,126.276,407.207,123.579,402.947,121.999z"/>
	</g>
</g>
<g>
	<g>
		<path fill="none" stroke="#009246" stroke-width="2" d="M439,256.999c-27,0,0-81-27-81"/>
		<path fill="#009246" d="M402.947,175.999c4.26-1.581,9.545-4.277,12.82-7.133l-2.58,7.133l2.58,7.132
			C412.492,180.276,407.207,177.579,402.947,175.999z"/>
	</g>
</g>
<g>
	<g>
		<path fill="none" stroke="#009246" stroke-width="2" d="M655,166.999c-27,0,0,90-27,90"/>
		<path fill="#009246" d="M618.947,256.999c4.26-1.581,9.545-4.277,12.82-7.133l-2.58,7.133l2.58,7.132
			C628.492,261.276,623.207,258.579,618.947,256.999z"/>
	</g>
</g>
<circle fill="#FFFFFF" stroke="#000000" cx="668.019" cy="167.479" r="9"/>
<g>
	<path d="M670.134,164.57h-2.975l-0.3,2.003c0.18-0.024,0.348-0.036,0.636-0.036c0.611,0,1.199,0.12,1.679,0.42
		c0.611,0.336,1.115,1.02,1.115,1.991c0,1.522-1.211,2.662-2.902,2.662c-0.852,0-1.559-0.24-1.942-0.479l0.264-0.804
		c0.323,0.192,0.96,0.432,1.679,0.432c0.984,0,1.848-0.647,1.836-1.691c0-1.007-0.684-1.715-2.231-1.715
		c-0.456,0-0.804,0.036-1.091,0.072l0.504-3.742h3.729V164.57z"/>
</g>
<circle fill="#FFFFFF" stroke="#000000" cx="691" cy="125" r="9"/>
<g>
	<path d="M692.911,121.948c-0.216-0.013-0.491,0.012-0.792,0.06c-1.666,0.264-2.53,1.463-2.71,2.759h0.024
		c0.371-0.504,1.031-0.912,1.895-0.912c1.379,0,2.351,1.008,2.351,2.519c0,1.439-0.972,2.759-2.603,2.759
		c-1.655,0-2.746-1.295-2.746-3.322c0-1.535,0.539-2.746,1.318-3.514c0.648-0.636,1.512-1.031,2.495-1.151
		c0.312-0.048,0.575-0.061,0.768-0.061V121.948z M692.611,126.445c0-1.115-0.636-1.787-1.607-1.787c-0.635,0-1.234,0.384-1.523,0.96
		c-0.06,0.12-0.107,0.264-0.107,0.455c0.012,1.283,0.611,2.243,1.727,2.243C692,128.316,692.611,127.561,692.611,126.445z"/>
</g>
<g>
</g>
<circle fill="#FFF566" stroke="#0081CD" stroke-width="2" cx="584.831" cy="259.047" r="27.889"/>
<circle fill="#FFFFFF" stroke="#000000" cx="592.831" cy="256.936" r="9"/>
<g>
	<path d="M592.584,254.123h-0.024l-1.355,0.731L591,254.052l1.703-0.912h0.9v7.796h-1.02V254.123z"/>
</g>
<circle fill="#FFFFFF" stroke="#000000" cx="571.85" cy="257.936" r="9"/>
<g>
	<path d="M569.311,261.936v-0.647l0.828-0.804c1.991-1.895,2.902-2.902,2.902-4.078c0-0.791-0.371-1.522-1.535-1.522
		c-0.707,0-1.295,0.359-1.654,0.659l-0.336-0.743c0.527-0.444,1.307-0.792,2.194-0.792c1.679,0,2.387,1.151,2.387,2.267
		c0,1.439-1.044,2.603-2.687,4.186l-0.611,0.576v0.023h3.49v0.876H569.311z"/>
</g>
<circle fill="#FFFFFF" stroke="#000000" cx="605.331" cy="274.936" r="9"/>
<g>
	<path d="M603.045,277.736c0.299,0.18,0.982,0.479,1.727,0.479c1.344,0,1.775-0.852,1.764-1.511c-0.013-1.092-0.996-1.56-2.016-1.56
		h-0.588v-0.791h0.588c0.768,0,1.739-0.396,1.739-1.319c0-0.624-0.396-1.176-1.367-1.176c-0.624,0-1.224,0.276-1.56,0.516
		l-0.287-0.768c0.42-0.3,1.211-0.6,2.051-0.6c1.535,0,2.23,0.911,2.23,1.859c0,0.815-0.492,1.499-1.439,1.847v0.024
		c0.959,0.18,1.727,0.899,1.739,1.99c0,1.248-0.983,2.339-2.843,2.339c-0.875,0-1.643-0.275-2.026-0.527L603.045,277.736z"/>
</g>
<circle fill="#FFFFFF" stroke="#000000" cx="559.85" cy="275.414" r="9"/>
<g>
	<path d="M560.573,279.414v-2.135h-3.622v-0.684l3.479-4.978h1.139v4.846h1.092v0.815h-1.092v2.135H560.573z M560.573,276.464
		v-2.603c0-0.408,0.013-0.815,0.036-1.224h-0.036c-0.239,0.456-0.432,0.792-0.647,1.151l-1.907,2.65v0.024H560.573z"/>
</g>
<circle fill="#FFFFFF" stroke="#000000" cx="582.831" cy="232.936" r="9"/>
<g>
	<path d="M584.946,230.027h-2.975l-0.3,2.003c0.18-0.024,0.348-0.036,0.636-0.036c0.611,0,1.199,0.12,1.679,0.42
		c0.611,0.336,1.115,1.02,1.115,1.991c0,1.522-1.211,2.662-2.902,2.662c-0.852,0-1.559-0.24-1.942-0.479l0.264-0.804
		c0.323,0.192,0.96,0.432,1.679,0.432c0.984,0,1.848-0.647,1.836-1.691c0-1.007-0.684-1.715-2.231-1.715
		c-0.456,0-0.804,0.036-1.091,0.072l0.504-3.742h3.729V230.027z"/>
</g>
<g>
</g>
<circle fill="#FFF566" stroke="#0081CD" stroke-width="2" cx="477.831" cy="259.047" r="27.889"/>
<circle fill="#FFFFFF" stroke="#000000" cx="475.831" cy="256.936" r="9"/>
<g>
	<path d="M475.584,254.123h-0.024l-1.355,0.731L474,254.052l1.703-0.912h0.9v7.796h-1.02V254.123z"/>
</g>
<circle fill="#FFFFFF" stroke="#000000" cx="498.331" cy="274.936" r="9"/>
<g>
	<path d="M495.793,278.936v-0.647l0.827-0.804c1.991-1.895,2.902-2.902,2.902-4.078c0-0.791-0.372-1.522-1.535-1.522
		c-0.708,0-1.295,0.359-1.655,0.659l-0.336-0.743c0.528-0.444,1.308-0.792,2.195-0.792c1.68,0,2.387,1.151,2.387,2.267
		c0,1.439-1.043,2.603-2.687,4.186l-0.612,0.576v0.023h3.49v0.876H495.793z"/>
</g>
<circle fill="#FFFFFF" stroke="#000000" cx="452.85" cy="275.414" r="9"/>
<g>
	<path d="M450.562,278.215c0.301,0.18,0.984,0.479,1.728,0.479c1.343,0,1.774-0.852,1.763-1.511c-0.012-1.092-0.995-1.56-2.015-1.56
		h-0.587v-0.791h0.587c0.768,0,1.739-0.396,1.739-1.319c0-0.624-0.396-1.176-1.367-1.176c-0.624,0-1.224,0.276-1.559,0.516
		l-0.289-0.768c0.42-0.3,1.212-0.6,2.051-0.6c1.535,0,2.231,0.911,2.231,1.859c0,0.815-0.491,1.499-1.439,1.847v0.024
		c0.96,0.18,1.728,0.899,1.739,1.99c0,1.248-0.983,2.339-2.842,2.339c-0.876,0-1.644-0.275-2.027-0.527L450.562,278.215z"/>
</g>
<circle fill="#FFFFFF" stroke="#000000" cx="475.831" cy="232.936" r="9"/>
<g>
	<path d="M476.555,236.936v-2.135h-3.622v-0.684l3.479-4.978h1.14v4.846h1.091v0.815h-1.091v2.135H476.555z M476.555,233.985v-2.603
		c0-0.408,0.012-0.815,0.036-1.224h-0.036c-0.24,0.456-0.432,0.792-0.647,1.151l-1.907,2.65v0.024H476.555z"/>
</g>
<g>
</g>
</svg>
