<?xml version="1.0" encoding="utf-8"?>
<!-- Generator: Adobe Illustrator 15.1.0, SVG Export Plug-In . SVG Version: 6.00 Build 0)  -->
<!DOCTYPE svg PUBLIC "-//W3C//DTD SVG 1.1//EN" "http://www.w3.org/Graphics/SVG/1.1/DTD/svg11.dtd">
<svg version="1.1" id="Layer_1" xmlns="http://www.w3.org/2000/svg" xmlns:xlink="http://www.w3.org/1999/xlink" x="0px" y="0px"
	 width="475.75px" height="612px" viewBox="0 0 475.75 612" enable-background="new 0 0 475.75 612" xml:space="preserve">
<g>
	
		<line fill="none" stroke="#0081CD" stroke-width="3" stroke-linejoin="bevel" stroke-miterlimit="10" x1="367.75" y1="603" x2="475.75" y2="603"/>
	
		<line fill="none" stroke="#009246" stroke-width="3" stroke-linejoin="bevel" stroke-miterlimit="10" x1="354.25" y1="589.5" x2="354.25" y2="481.5"/>
	
		<line fill="none" stroke="#FEC200" stroke-linejoin="bevel" stroke-miterlimit="10" x1="381.25" y1="481.5" x2="381.25" y2="589.5"/>
	
		<line fill="none" stroke="#FEC200" stroke-linejoin="bevel" stroke-miterlimit="10" x1="408.25" y1="481.5" x2="408.25" y2="589.5"/>
	
		<line fill="none" stroke="#FEC200" stroke-linejoin="bevel" stroke-miterlimit="10" x1="435.25" y1="481.5" x2="435.25" y2="589.5"/>
	
		<line fill="none" stroke="#FEC200" stroke-linejoin="bevel" stroke-miterlimit="10" x1="462.25" y1="481.5" x2="462.25" y2="589.5"/>
	<line fill="none" stroke="#FEC200" stroke-linejoin="bevel" stroke-miterlimit="10" x1="367.75" y1="576" x2="475.75" y2="576"/>
	<line fill="none" stroke="#FEC200" stroke-linejoin="bevel" stroke-miterlimit="10" x1="367.75" y1="549" x2="475.75" y2="549"/>
	<line fill="none" stroke="#FEC200" stroke-linejoin="bevel" stroke-miterlimit="10" x1="367.75" y1="522" x2="475.75" y2="522"/>
	<line fill="none" stroke="#FEC200" stroke-linejoin="bevel" stroke-miterlimit="10" x1="367.75" y1="495" x2="475.75" y2="495"/>
	<polygon fill="none" stroke="#000000" stroke-width="2" stroke-linejoin="bevel" stroke-miterlimit="10" points="381.25,522 
		381.25,576 435.25,576 462.25,549 462.25,495 408.25,495 	"/>
	<circle fill="#BC1E47" stroke="#000000" stroke-linejoin="bevel" stroke-miterlimit="10" cx="408.25" cy="495" r="3.375"/>
	<circle fill="#BC1E47" stroke="#000000" stroke-linejoin="bevel" stroke-miterlimit="10" cx="462.25" cy="495" r="3.375"/>
	<circle fill="#BC1E47" stroke="#000000" stroke-linejoin="bevel" stroke-miterlimit="10" cx="462.25" cy="549" r="3.375"/>
	<circle fill="#BC1E47" stroke="#000000" stroke-linejoin="bevel" stroke-miterlimit="10" cx="435.25" cy="576" r="3.375"/>
	<circle fill="#BC1E47" stroke="#000000" stroke-linejoin="bevel" stroke-miterlimit="10" cx="381.25" cy="576" r="3.375"/>
	<circle fill="#BC1E47" stroke="#000000" stroke-linejoin="bevel" stroke-miterlimit="10" cx="381.25" cy="522" r="3.375"/>
	<circle fill="#009246" stroke="#000000" stroke-linejoin="bevel" stroke-miterlimit="10" cx="354.25" cy="549" r="3.375"/>
	<circle fill="#009246" stroke="#000000" stroke-linejoin="bevel" stroke-miterlimit="10" cx="354.25" cy="522" r="3.375"/>
	<circle fill="#009246" stroke="#000000" stroke-linejoin="bevel" stroke-miterlimit="10" cx="354.25" cy="495" r="3.375"/>
	<circle fill="#009246" stroke="#000000" stroke-linejoin="bevel" stroke-miterlimit="10" cx="354.25" cy="576" r="3.375"/>
	<circle fill="#0081CD" stroke="#000000" stroke-linejoin="bevel" stroke-miterlimit="10" cx="381.25" cy="603" r="3.375"/>
	<circle fill="#0081CD" stroke="#000000" stroke-linejoin="bevel" stroke-miterlimit="10" cx="408.25" cy="603" r="3.375"/>
	<circle fill="#0081CD" stroke="#000000" stroke-linejoin="bevel" stroke-miterlimit="10" cx="435.25" cy="603" r="3.375"/>
	<circle fill="#0081CD" stroke="#000000" stroke-linejoin="bevel" stroke-miterlimit="10" cx="462.25" cy="603" r="3.375"/>
</g>
<g>
	<polygon fill="#FFFFEB" points="199,481.5 199,603 280,562.5 280,522 	"/>
	<g>
		<g>
			<line fill="none" stroke="#808285" stroke-width="1.5" stroke-linejoin="bevel" x1="253" y1="576" x2="252.504" y2="575.132"/>
			
				<line fill="none" stroke="#808285" stroke-width="1.5" stroke-linejoin="bevel" stroke-dasharray="2.0159,2.0159" x1="251.504" y1="573.382" x2="199.996" y2="483.243"/>
			<line fill="none" stroke="#808285" stroke-width="1.5" stroke-linejoin="bevel" x1="199.496" y1="482.368" x2="199" y2="481.5"/>
		</g>
	</g>
	<g>
		<g>
			<line fill="none" stroke="#808285" stroke-width="1.5" stroke-linejoin="bevel" x1="226" y1="495" x2="226.625" y2="495.781"/>
			
				<line fill="none" stroke="#808285" stroke-width="1.5" stroke-linejoin="bevel" stroke-dasharray="1.9638,1.9638" x1="227.852" y1="497.314" x2="278.762" y2="560.952"/>
			<line fill="none" stroke="#808285" stroke-width="1.5" stroke-linejoin="bevel" x1="279.375" y1="561.719" x2="280" y2="562.5"/>
		</g>
	</g>
	<path fill="none" stroke="#000000" stroke-width="1.5" stroke-linejoin="bevel" stroke-miterlimit="10" d="M280,562.5"/>
	
		<line fill="none" stroke="#000000" stroke-width="1.5" stroke-linejoin="bevel" stroke-miterlimit="10" x1="226" y1="589.5" x2="280" y2="522"/>
	
		<line fill="none" stroke="#009246" stroke-width="3" stroke-linejoin="bevel" stroke-miterlimit="10" x1="199" y1="481.5" x2="280" y2="522"/>
	
		<line fill="none" stroke="#0081CD" stroke-width="3" stroke-linejoin="bevel" stroke-miterlimit="10" x1="280" y1="562.5" x2="199" y2="603"/>
	<path fill="none" stroke="#000000" stroke-width="1.5" stroke-linejoin="bevel" stroke-miterlimit="10" d="M280,522"/>
	<polyline fill="none" stroke="#000000" stroke-width="1.5" stroke-linejoin="bevel" stroke-miterlimit="10" points="199,481.5 
		199,603 253,508.5 	"/>
	
		<line fill="none" stroke="#000000" stroke-width="1.5" stroke-linejoin="bevel" stroke-miterlimit="10" x1="280" y1="522" x2="280" y2="562.5"/>
	<circle fill="#009246" stroke="#000000" stroke-linejoin="bevel" stroke-miterlimit="10" cx="226" cy="495" r="3.375"/>
	<circle fill="#009246" stroke="#000000" stroke-linejoin="bevel" stroke-miterlimit="10" cx="253" cy="508.5" r="3.375"/>
	<circle fill="#009246" stroke="#000000" stroke-linejoin="bevel" stroke-miterlimit="10" cx="199" cy="481.5" r="3.375"/>
	<circle fill="#009246" stroke="#000000" stroke-linejoin="bevel" stroke-miterlimit="10" cx="280" cy="522" r="3.375"/>
	<circle fill="#0081CD" stroke="#000000" stroke-linejoin="bevel" stroke-miterlimit="10" cx="253" cy="576" r="3.375"/>
	<circle fill="#0081CD" stroke="#000000" stroke-linejoin="bevel" stroke-miterlimit="10" cx="226" cy="589.5" r="3.375"/>
	<circle fill="#0081CD" stroke="#000000" stroke-linejoin="bevel" stroke-miterlimit="10" cx="199" cy="603" r="3.375"/>
	<circle fill="#0081CD" stroke="#000000" stroke-linejoin="bevel" stroke-miterlimit="10" cx="280" cy="562.5" r="3.375"/>
</g>
<g>
	<polygon fill="#FFFFEB" stroke="#000000" stroke-width="1.5" stroke-linejoin="bevel" stroke-miterlimit="10" points="10,522 
		10,589.5 70.75,603 124.75,569.25 124.75,501.75 64,488.25 	"/>
	<polyline fill="none" stroke="#000000" stroke-width="1.5" stroke-linejoin="bevel" stroke-miterlimit="10" points="10,522 
		70.75,535.5 124.75,501.75 	"/>
	
		<line fill="none" stroke="#000000" stroke-width="1.5" stroke-linejoin="bevel" stroke-miterlimit="10" x1="70.75" y1="535.5" x2="70.75" y2="603"/>
	
		<polyline fill="none" stroke="#808285" stroke-width="1.5" stroke-linejoin="bevel" stroke-miterlimit="10" stroke-dasharray="2" points="
		64,488.25 64,555.75 10,589.5 	"/>
	
		<line fill="none" stroke="#808285" stroke-width="1.5" stroke-linejoin="bevel" stroke-miterlimit="10" stroke-dasharray="2" x1="64" y1="555.75" x2="124.75" y2="569.25"/>
	<polyline fill="none" stroke="#0081CD" stroke-width="3" stroke-linejoin="bevel" stroke-miterlimit="10" points="10,589.5 
		70.75,603 124.75,569.25 124.75,501.75 	"/>
	<path fill="none" stroke="#009246" stroke-width="3" stroke-linejoin="bevel" stroke-miterlimit="10" d="M70.75,535.5"/>
	<polyline fill="none" stroke="#009246" stroke-width="3" stroke-linejoin="bevel" stroke-miterlimit="10" points="64,555.75 
		64,488.25 10,522 	"/>
	<circle fill="#FFFFEB" cx="64" cy="534" r="3.037"/>
	
		<line fill="none" stroke="#009246" stroke-width="3" stroke-linejoin="bevel" stroke-miterlimit="10" x1="10" y1="522" x2="70.75" y2="535.5"/>
	<circle fill="#009246" stroke="#000000" stroke-linejoin="bevel" stroke-miterlimit="10" cx="64" cy="488.25" r="3.375"/>
	<circle fill="#009246" stroke="#000000" stroke-linejoin="bevel" stroke-miterlimit="10" cx="64" cy="555.75" r="3.375"/>
	<circle fill="#009246" stroke="#000000" stroke-linejoin="bevel" stroke-miterlimit="10" cx="10" cy="522" r="3.375"/>
	<circle fill="#009246" stroke="#000000" stroke-linejoin="bevel" stroke-miterlimit="10" cx="70.75" cy="535.5" r="3.375"/>
	<circle fill="#0081CD" stroke="#000000" stroke-linejoin="bevel" stroke-miterlimit="10" cx="10" cy="589.5" r="3.375"/>
	<circle fill="#0081CD" stroke="#000000" stroke-linejoin="bevel" stroke-miterlimit="10" cx="70.75" cy="603" r="3.375"/>
	<circle fill="#0081CD" stroke="#000000" stroke-linejoin="bevel" stroke-miterlimit="10" cx="124.75" cy="569.25" r="3.375"/>
	<circle fill="#0081CD" stroke="#000000" stroke-linejoin="bevel" stroke-miterlimit="10" cx="124.75" cy="501.75" r="3.375"/>
</g>
<polygon fill="#FFFFEB" stroke="#000000" stroke-width="1.5" stroke-linejoin="bevel" stroke-miterlimit="10" points="219.25,9 
	273.25,36 273.25,76.5 219.25,103.5 "/>
<line fill="none" stroke="#808285" stroke-width="1.5" stroke-linejoin="bevel" stroke-miterlimit="10" stroke-dasharray="2" x1="219.25" y1="9" x2="273.25" y2="76.5"/>
<line fill="none" stroke="#000000" stroke-width="1.5" stroke-linejoin="bevel" stroke-miterlimit="10" x1="219.25" y1="103.5" x2="273.25" y2="36"/>
<line fill="none" stroke="#009246" stroke-width="3" stroke-linejoin="bevel" stroke-miterlimit="10" x1="219.25" y1="9" x2="273.25" y2="36"/>
<line fill="none" stroke="#0081CD" stroke-width="3" stroke-linejoin="bevel" stroke-miterlimit="10" x1="219.25" y1="103.5" x2="273.25" y2="76.5"/>
<polygon fill="#FFFFEB" stroke="#000000" stroke-width="1.5" stroke-linejoin="bevel" stroke-miterlimit="10" points="219.25,157.5 
	273.25,184.5 273.25,225 219.25,252 "/>
<line fill="none" stroke="#808285" stroke-width="1.5" stroke-linejoin="bevel" stroke-miterlimit="10" stroke-dasharray="2" x1="219.25" y1="157.5" x2="273.25" y2="225"/>
<line fill="none" stroke="#009246" stroke-width="3" stroke-linejoin="bevel" stroke-miterlimit="10" x1="219.25" y1="157.5" x2="273.25" y2="184.5"/>
<line fill="none" stroke="#0081CD" stroke-width="3" stroke-linejoin="bevel" stroke-miterlimit="10" x1="219.25" y1="252" x2="273.25" y2="225"/>
<g>
	
		<line fill="none" stroke="#0081CD" stroke-width="3" stroke-linejoin="bevel" stroke-miterlimit="10" x1="394.75" y1="90" x2="448.75" y2="90"/>
	<line fill="none" stroke="#FEC200" stroke-linejoin="bevel" stroke-miterlimit="10" x1="394.75" y1="63" x2="448.75" y2="63"/>
	<line fill="none" stroke="#FEC200" stroke-linejoin="bevel" stroke-miterlimit="10" x1="394.75" y1="36" x2="448.75" y2="36"/>
	<line fill="none" stroke="#FEC200" stroke-linejoin="bevel" stroke-miterlimit="10" x1="408.25" y1="76.5" x2="408.25" y2="22.5"/>
	<line fill="none" stroke="#FEC200" stroke-linejoin="bevel" stroke-miterlimit="10" x1="435.25" y1="76.5" x2="435.25" y2="22.5"/>
	
		<rect x="408.25" y="36" fill="none" stroke="#000000" stroke-width="2" stroke-linejoin="bevel" stroke-miterlimit="10" width="27" height="27"/>
	<circle fill="#BC1E47" stroke="#000000" stroke-linejoin="bevel" stroke-miterlimit="10" cx="408.25" cy="63" r="3.375"/>
	<circle fill="#BC1E47" stroke="#000000" stroke-linejoin="bevel" stroke-miterlimit="10" cx="435.25" cy="63" r="3.375"/>
	<circle fill="#BC1E47" stroke="#000000" stroke-linejoin="bevel" stroke-miterlimit="10" cx="435.25" cy="36" r="3.375"/>
	<circle fill="#BC1E47" stroke="#000000" stroke-linejoin="bevel" stroke-miterlimit="10" cx="408.25" cy="36" r="3.375"/>
	
		<line fill="none" stroke="#009246" stroke-width="3" stroke-linejoin="bevel" stroke-miterlimit="10" x1="381.25" y1="76.5" x2="381.25" y2="22.5"/>
	<circle fill="#009246" stroke="#000000" stroke-linejoin="bevel" stroke-miterlimit="10" cx="381.25" cy="63" r="3.375"/>
	<circle fill="#009246" stroke="#000000" stroke-linejoin="bevel" stroke-miterlimit="10" cx="381.25" cy="36" r="3.375"/>
	<circle fill="#0081CD" stroke="#000000" stroke-linejoin="bevel" stroke-miterlimit="10" cx="408.25" cy="90" r="3.375"/>
	<circle fill="#0081CD" stroke="#000000" stroke-linejoin="bevel" stroke-miterlimit="10" cx="435.25" cy="90" r="3.375"/>
</g>
<g>
	<polygon fill="#FFFFEB" stroke="#000000" stroke-width="1.5" stroke-linejoin="bevel" stroke-miterlimit="10" points="
		30.25,164.25 10,245.25 77.5,252 131.5,225 97.75,171 	"/>
	<path fill="#FFFFEB" stroke="#000000" stroke-width="1.5" stroke-linejoin="bevel" stroke-miterlimit="10" d="M10,245.25"/>
	
		<line fill="none" stroke="#000000" stroke-width="1.5" stroke-linejoin="bevel" stroke-miterlimit="10" x1="77.5" y1="252" x2="97.75" y2="171"/>
	
		<polyline fill="none" stroke="#808285" stroke-width="1.5" stroke-linejoin="bevel" stroke-miterlimit="10" stroke-dasharray="2" points="
		10,245.25 64,218.25 30.25,164.25 	"/>
	
		<line fill="none" stroke="#808285" stroke-width="1.5" stroke-linejoin="bevel" stroke-miterlimit="10" stroke-dasharray="2" x1="64" y1="218.25" x2="131.5" y2="225"/>
	<polyline fill="none" stroke="#0081CD" stroke-width="3" stroke-linejoin="bevel" stroke-miterlimit="10" points="10,245.25 
		77.5,252 131.5,225 	"/>
	<polyline fill="none" stroke="#009246" stroke-width="3" stroke-linejoin="bevel" stroke-miterlimit="10" points="64,218.25 
		30.25,164.25 97.75,171 	"/>
	<circle fill="#009246" stroke="#000000" stroke-linejoin="bevel" stroke-miterlimit="10" cx="64" cy="218.25" r="3.375"/>
	<circle fill="#009246" stroke="#000000" stroke-linejoin="bevel" stroke-miterlimit="10" cx="30.25" cy="164.25" r="3.375"/>
	<circle fill="#009246" stroke="#000000" stroke-linejoin="bevel" stroke-miterlimit="10" cx="97.75" cy="171" r="3.375"/>
	<circle fill="#0081CD" stroke="#000000" stroke-linejoin="bevel" stroke-miterlimit="10" cx="10" cy="245.25" r="3.375"/>
	<circle fill="#0081CD" stroke="#000000" stroke-linejoin="bevel" stroke-miterlimit="10" cx="77.5" cy="252" r="3.375"/>
	<circle fill="#0081CD" stroke="#000000" stroke-linejoin="bevel" stroke-miterlimit="10" cx="131.5" cy="225" r="3.375"/>
</g>
<line fill="none" stroke="#000000" stroke-width="1.5" stroke-linejoin="bevel" stroke-miterlimit="10" x1="219.25" y1="252" x2="246.25" y2="171"/>
<line fill="none" stroke="#000000" stroke-width="1.5" stroke-linejoin="bevel" stroke-miterlimit="10" x1="246.25" y1="238.5" x2="273.25" y2="184.5"/>
<line fill="none" stroke="#FEC200" stroke-linejoin="bevel" stroke-miterlimit="10" x1="394.75" y1="157.5" x2="394.75" y2="238.5"/>
<line fill="none" stroke="#FEC200" stroke-linejoin="bevel" stroke-miterlimit="10" x1="421.75" y1="157.5" x2="421.75" y2="238.5"/>
<line fill="none" stroke="#FEC200" stroke-linejoin="bevel" stroke-miterlimit="10" x1="448.75" y1="157.5" x2="448.75" y2="238.5"/>
<line fill="none" stroke="#FEC200" stroke-linejoin="bevel" stroke-miterlimit="10" x1="381.25" y1="171" x2="462.25" y2="171"/>
<line fill="none" stroke="#FEC200" stroke-linejoin="bevel" stroke-miterlimit="10" x1="381.25" y1="198" x2="462.25" y2="198"/>
<line fill="none" stroke="#FEC200" stroke-linejoin="bevel" stroke-miterlimit="10" x1="381.25" y1="225" x2="462.25" y2="225"/>
<polygon fill="none" stroke="#000000" stroke-width="2" stroke-linejoin="bevel" stroke-miterlimit="10" points="394.75,225 
	394.75,198 421.75,171 448.75,171 448.75,225 "/>
<circle fill="#BC1E47" stroke="#000000" stroke-linejoin="bevel" stroke-miterlimit="10" cx="394.75" cy="225" r="3.375"/>
<circle fill="#BC1E47" stroke="#000000" stroke-linejoin="bevel" stroke-miterlimit="10" cx="394.75" cy="198" r="3.375"/>
<circle fill="#BC1E47" stroke="#000000" stroke-linejoin="bevel" stroke-miterlimit="10" cx="421.75" cy="171" r="3.375"/>
<circle fill="#BC1E47" stroke="#000000" stroke-linejoin="bevel" stroke-miterlimit="10" cx="448.75" cy="171" r="3.375"/>
<circle fill="#BC1E47" stroke="#000000" stroke-linejoin="bevel" stroke-miterlimit="10" cx="448.75" cy="225" r="3.375"/>
<line fill="none" stroke="#0081CD" stroke-width="3" stroke-linejoin="bevel" stroke-miterlimit="10" x1="381.25" y1="252" x2="462.25" y2="252"/>
<line fill="none" stroke="#009246" stroke-width="3" stroke-linejoin="bevel" stroke-miterlimit="10" x1="367.75" y1="238.5" x2="367.75" y2="157.5"/>
<line fill="none" stroke="#FEC200" stroke-linejoin="bevel" stroke-miterlimit="10" x1="394.75" y1="319.5" x2="394.75" y2="400.5"/>
<line fill="none" stroke="#FEC200" stroke-linejoin="bevel" stroke-miterlimit="10" x1="421.75" y1="319.5" x2="421.75" y2="400.5"/>
<line fill="none" stroke="#FEC200" stroke-linejoin="bevel" stroke-miterlimit="10" x1="448.75" y1="319.5" x2="448.75" y2="400.5"/>
<line fill="none" stroke="#FEC200" stroke-linejoin="bevel" stroke-miterlimit="10" x1="381.25" y1="333" x2="462.25" y2="333"/>
<line fill="none" stroke="#FEC200" stroke-linejoin="bevel" stroke-miterlimit="10" x1="381.25" y1="360" x2="462.25" y2="360"/>
<line fill="none" stroke="#FEC200" stroke-linejoin="bevel" stroke-miterlimit="10" x1="381.25" y1="387" x2="462.25" y2="387"/>
<line fill="none" stroke="#0081CD" stroke-width="3" stroke-linejoin="bevel" stroke-miterlimit="10" x1="381.25" y1="414" x2="462.25" y2="414"/>
<line fill="none" stroke="#009246" stroke-width="3" stroke-linejoin="bevel" stroke-miterlimit="10" x1="367.75" y1="400.5" x2="367.75" y2="319.5"/>
<polygon fill="none" stroke="#000000" stroke-width="2" stroke-linejoin="bevel" stroke-miterlimit="10" points="421.75,333 
	448.75,333 448.75,387 394.75,387 394.75,360 394.75,333 "/>
<circle fill="#BC1E47" stroke="#000000" stroke-linejoin="bevel" stroke-miterlimit="10" cx="394.75" cy="360" r="3.375"/>
<circle fill="#BC1E47" stroke="#000000" stroke-linejoin="bevel" stroke-miterlimit="10" cx="421.75" cy="333" r="3.375"/>
<circle fill="#BC1E47" stroke="#000000" stroke-linejoin="bevel" stroke-miterlimit="10" cx="448.75" cy="360" r="3.375"/>
<circle fill="#BC1E47" stroke="#000000" stroke-linejoin="bevel" stroke-miterlimit="10" cx="421.75" cy="387" r="3.375"/>
<circle fill="#BC1E47" stroke="#000000" stroke-linejoin="bevel" stroke-miterlimit="10" cx="394.75" cy="387" r="3.375"/>
<circle fill="#BC1E47" stroke="#000000" stroke-linejoin="bevel" stroke-miterlimit="10" cx="448.75" cy="333" r="3.375"/>
<circle fill="#BC1E47" stroke="#000000" stroke-linejoin="bevel" stroke-miterlimit="10" cx="448.75" cy="387" r="3.375"/>
<circle fill="#BC1E47" stroke="#000000" stroke-linejoin="bevel" stroke-miterlimit="10" cx="394.75" cy="333" r="3.375"/>
<circle fill="#009246" stroke="#000000" stroke-linejoin="bevel" stroke-miterlimit="10" cx="219.25" cy="9" r="3.375"/>
<circle fill="#009246" stroke="#000000" stroke-linejoin="bevel" stroke-miterlimit="10" cx="273.25" cy="36" r="3.375"/>
<circle fill="#009246" stroke="#000000" stroke-linejoin="bevel" stroke-miterlimit="10" cx="219.25" cy="157.5" r="3.375"/>
<circle fill="#009246" stroke="#000000" stroke-linejoin="bevel" stroke-miterlimit="10" cx="246.25" cy="171" r="3.375"/>
<circle fill="#009246" stroke="#000000" stroke-linejoin="bevel" stroke-miterlimit="10" cx="273.25" cy="184.5" r="3.375"/>
<circle fill="#009246" stroke="#000000" stroke-linejoin="bevel" stroke-miterlimit="10" cx="367.75" cy="171" r="3.375"/>
<circle fill="#009246" stroke="#000000" stroke-linejoin="bevel" stroke-miterlimit="10" cx="367.75" cy="198" r="3.375"/>
<circle fill="#009246" stroke="#000000" stroke-linejoin="bevel" stroke-miterlimit="10" cx="367.75" cy="225" r="3.375"/>
<circle fill="#009246" stroke="#000000" stroke-linejoin="bevel" stroke-miterlimit="10" cx="367.75" cy="333" r="3.375"/>
<circle fill="#009246" stroke="#000000" stroke-linejoin="bevel" stroke-miterlimit="10" cx="367.75" cy="360" r="3.375"/>
<circle fill="#009246" stroke="#000000" stroke-linejoin="bevel" stroke-miterlimit="10" cx="367.75" cy="387" r="3.375"/>
<circle fill="#0081CD" stroke="#000000" stroke-linejoin="bevel" stroke-miterlimit="10" cx="273.25" cy="76.5" r="3.375"/>
<circle fill="#0081CD" stroke="#000000" stroke-linejoin="bevel" stroke-miterlimit="10" cx="219.25" cy="103.5" r="3.375"/>
<circle fill="#0081CD" stroke="#000000" stroke-linejoin="bevel" stroke-miterlimit="10" cx="273.25" cy="225" r="3.375"/>
<circle fill="#0081CD" stroke="#000000" stroke-linejoin="bevel" stroke-miterlimit="10" cx="219.25" cy="252" r="3.375"/>
<circle fill="#0081CD" stroke="#000000" stroke-linejoin="bevel" stroke-miterlimit="10" cx="246.25" cy="238.5" r="3.375"/>
<circle fill="#0081CD" stroke="#000000" stroke-linejoin="bevel" stroke-miterlimit="10" cx="394.75" cy="252" r="3.375"/>
<circle fill="#0081CD" stroke="#000000" stroke-linejoin="bevel" stroke-miterlimit="10" cx="421.75" cy="252" r="3.375"/>
<circle fill="#0081CD" stroke="#000000" stroke-linejoin="bevel" stroke-miterlimit="10" cx="448.75" cy="252" r="3.375"/>
<g>
	<polygon fill="#FFFFEB" stroke="#000000" stroke-width="1.5" stroke-linejoin="bevel" stroke-miterlimit="10" points="
		219.25,319.5 273.25,346.5 273.25,387 219.25,414 	"/>
	
		<line fill="none" stroke="#009246" stroke-width="3" stroke-linejoin="bevel" stroke-miterlimit="10" x1="219.25" y1="319.5" x2="273.25" y2="346.5"/>
	
		<line fill="none" stroke="#0081CD" stroke-width="3" stroke-linejoin="bevel" stroke-miterlimit="10" x1="219.25" y1="414" x2="273.25" y2="387"/>
	<polyline fill="none" stroke="#000000" stroke-width="1.5" stroke-linejoin="bevel" stroke-miterlimit="10" points="246.25,400.5 
		273.25,346.5 219.25,414 246.25,333 	"/>
	
		<polyline fill="none" stroke="#808285" stroke-width="1.5" stroke-linejoin="bevel" stroke-miterlimit="10" stroke-dasharray="2" points="
		246.25,333 273.25,387 219.25,319.5 246.25,400.5 	"/>
	<circle fill="#009246" stroke="#000000" stroke-linejoin="bevel" stroke-miterlimit="10" cx="219.25" cy="319.5" r="3.375"/>
	<circle fill="#009246" stroke="#000000" stroke-linejoin="bevel" stroke-miterlimit="10" cx="246.25" cy="333" r="3.375"/>
	<circle fill="#009246" stroke="#000000" stroke-linejoin="bevel" stroke-miterlimit="10" cx="273.25" cy="346.5" r="3.375"/>
	<circle fill="#0081CD" stroke="#000000" stroke-linejoin="bevel" stroke-miterlimit="10" cx="273.25" cy="387" r="3.375"/>
	<circle fill="#0081CD" stroke="#000000" stroke-linejoin="bevel" stroke-miterlimit="10" cx="219.25" cy="414" r="3.375"/>
	<circle fill="#0081CD" stroke="#000000" stroke-linejoin="bevel" stroke-miterlimit="10" cx="246.25" cy="400.5" r="3.375"/>
</g>
<circle fill="#0081CD" stroke="#000000" stroke-linejoin="bevel" stroke-miterlimit="10" cx="394.75" cy="414" r="3.375"/>
<circle fill="#0081CD" stroke="#000000" stroke-linejoin="bevel" stroke-miterlimit="10" cx="421.75" cy="414" r="3.375"/>
<circle fill="#0081CD" stroke="#000000" stroke-linejoin="bevel" stroke-miterlimit="10" cx="448.75" cy="414" r="3.375"/>
<g>
	<polygon fill="#FFFFEB" points="70.75,306 16.75,373.5 70.75,420.75 124.75,353.25 	"/>
	<path fill="none" stroke="#000000" stroke-width="1.5" stroke-linejoin="bevel" stroke-miterlimit="10" d="M57.25,346.5"/>
	<path fill="none" stroke="#000000" stroke-width="1.5" stroke-linejoin="bevel" stroke-miterlimit="10" d="M57.25,346.5"/>
	
		<line fill="none" stroke="#808285" stroke-width="1.5" stroke-linejoin="bevel" stroke-miterlimit="10" stroke-dasharray="2" x1="57.25" y1="346.5" x2="16.75" y2="373.5"/>
	
		<line fill="none" stroke="#808285" stroke-width="1.5" stroke-linejoin="bevel" stroke-miterlimit="10" stroke-dasharray="2" x1="124.75" y1="353.25" x2="57.25" y2="346.5"/>
	
		<line fill="none" stroke="#808285" stroke-width="1.5" stroke-linejoin="bevel" stroke-miterlimit="10" stroke-dasharray="2" x1="57.25" y1="346.5" x2="70.75" y2="420.75"/>
	
		<line fill="none" stroke="#808285" stroke-width="1.5" stroke-linejoin="bevel" stroke-miterlimit="10" stroke-dasharray="2" x1="70.75" y1="306" x2="57.25" y2="346.5"/>
	<polyline fill="none" stroke="#000000" stroke-width="1.5" stroke-linejoin="bevel" stroke-miterlimit="10" points="16.75,373.5 
		84.25,380.25 124.75,353.25 	"/>
	<polyline fill="none" stroke="#000000" stroke-width="1.5" stroke-linejoin="bevel" stroke-miterlimit="10" points="70.75,420.75 
		124.75,353.25 70.75,306 16.75,373.5 70.75,420.75 84.25,380.25 70.75,306 	"/>
	<polyline fill="none" stroke="#0081CD" stroke-width="3" stroke-linejoin="bevel" stroke-miterlimit="10" points="16.75,373.5 
		70.75,420.75 124.75,353.25 	"/>
	<polyline fill="none" stroke="#009246" stroke-width="3" stroke-linejoin="bevel" stroke-miterlimit="10" points="57.25,346.5 
		70.75,306 84.25,380.25 	"/>
	<circle fill="#009246" stroke="#000000" stroke-linejoin="bevel" stroke-miterlimit="10" cx="57.25" cy="346.5" r="3.375"/>
	<circle fill="#009246" stroke="#000000" stroke-linejoin="bevel" stroke-miterlimit="10" cx="70.75" cy="306" r="3.375"/>
	<circle fill="#009246" stroke="#000000" stroke-linejoin="bevel" stroke-miterlimit="10" cx="84.25" cy="380.25" r="3.375"/>
	<circle fill="#0081CD" stroke="#000000" stroke-linejoin="bevel" stroke-miterlimit="10" cx="16.75" cy="373.5" r="3.375"/>
	<circle fill="#0081CD" stroke="#000000" stroke-linejoin="bevel" stroke-miterlimit="10" cx="70.75" cy="420.75" r="3.375"/>
	<circle fill="#0081CD" stroke="#000000" stroke-linejoin="bevel" stroke-miterlimit="10" cx="124.75" cy="353.25" r="3.375"/>
</g>
</svg>
