<?xml version="1.0" encoding="utf-8"?>
<!-- Generator: Adobe Illustrator 15.1.0, SVG Export Plug-In . SVG Version: 6.00 Build 0)  -->
<!DOCTYPE svg PUBLIC "-//W3C//DTD SVG 1.1//EN" "http://www.w3.org/Graphics/SVG/1.1/DTD/svg11.dtd">
<svg version="1.1" id="Layer_1" xmlns="http://www.w3.org/2000/svg" xmlns:xlink="http://www.w3.org/1999/xlink" x="0px" y="0px"
	 width="480px" height="399px" viewBox="0 0 480 399" enable-background="new 0 0 480 399" xml:space="preserve">
<circle opacity="0.2" fill="#009246" cx="265.271" cy="222.002" r="90.05"/>
<g>
	<rect x="-126" y="303.053" opacity="0.2" fill="#0081CD" width="648" height="18"/>
	<rect x="-126" y="294.053" opacity="0.2" fill="#0081CD" width="648" height="36"/>
	<rect x="-126" y="285.053" opacity="0.2" fill="#0081CD" width="648" height="54.001"/>
	<rect x="-126" y="276.053" opacity="0.2" fill="#0081CD" width="648" height="72.001"/>
	<line fill="none" stroke="#000000" stroke-dasharray="4" x1="-126" y1="312.054" x2="522" y2="312.052"/>
</g>
<g>
	
		<rect x="-136.162" y="164.33" transform="matrix(0.6712 -0.7412 0.7412 0.6712 -66.7252 196.2199)" opacity="0.2" fill="#BC1E47" width="647.999" height="18"/>
	
		<rect x="-136.162" y="155.33" transform="matrix(0.6712 -0.7413 0.7413 0.6712 -66.7255 196.2198)" opacity="0.2" fill="#BC1E47" width="647.998" height="36.001"/>
	
		<rect x="-136.163" y="146.329" transform="matrix(0.6712 -0.7412 0.7412 0.6712 -66.7253 196.2195)" opacity="0.2" fill="#BC1E47" width="647.999" height="54.001"/>
	
		<rect x="-136.163" y="137.329" transform="matrix(0.6712 -0.7412 0.7412 0.6712 -66.7253 196.2195)" opacity="0.2" fill="#BC1E47" width="647.999" height="72"/>
	<line fill="none" stroke="#000000" stroke-dasharray="4" x1="-29.642" y1="413.494" x2="405.314" y2="-66.835"/>
</g>
<g>
	
		<rect x="20.627" y="164.525" transform="matrix(0.2907 0.9568 -0.9568 0.2907 410.4818 -206.6596)" opacity="0.2" fill="#FEC200" width="647.998" height="18.001"/>
	
		<rect x="20.626" y="155.526" transform="matrix(0.2907 0.9568 -0.9568 0.2907 410.483 -206.6591)" opacity="0.2" fill="#FEC200" width="647.998" height="36"/>
	
		<rect x="20.625" y="146.527" transform="matrix(0.2907 0.9568 -0.9568 0.2907 410.4839 -206.6582)" opacity="0.2" fill="#FEC200" width="648" height="54"/>
	
		<rect x="20.625" y="137.527" transform="matrix(0.2907 0.9568 -0.9568 0.2907 410.4838 -206.6582)" opacity="0.2" fill="#FEC200" width="647.999" height="71.999"/>
	<line fill="none" stroke="#000000" stroke-dasharray="4" x1="250.445" y1="-136.483" x2="438.807" y2="483.535"/>
</g>
<polygon fill="none" stroke="#000000" stroke-width="3" points="305.194,43.73 62.218,312.052 386.711,312.054 "/>
<line fill="none" stroke="#009246" stroke-width="2" x1="-323.892" y1="483.145" x2="265.271" y2="222.002"/>
<line fill="none" stroke="#009246" stroke-width="2" x1="403.595" y1="-396.516" x2="265.271" y2="222.002"/>
<line fill="none" stroke="#009246" stroke-width="2" x1="265.271" y1="222.002" x2="762.34" y2="590.244"/>
<line fill="none" stroke="#009246" stroke-width="2" x1="164.257" y1="542.262" x2="-96.885" y2="-46.901"/>
<line fill="none" stroke="#009246" stroke-width="2" x1="-16.869" y1="-28.295" x2="601.648" y2="110.028"/>
<line fill="none" stroke="#009246" stroke-width="2" x1="200.098" y1="563.951" x2="568.34" y2="66.884"/>
<circle fill="#FFFFFF" stroke="#000000" cx="386.711" cy="312.054" r="3"/>
<circle fill="#FFFFFF" stroke="#000000" cx="62.218" cy="312.052" r="3"/>
<circle fill="#FFFFFF" stroke="#000000" cx="305.194" cy="43.73" r="3"/>
<circle fill="#009246" stroke="#000000" cx="265.271" cy="222.002" r="3"/>
</svg>
