<?xml version="1.0" encoding="utf-8"?>
<!-- Generator: Adobe Illustrator 15.1.0, SVG Export Plug-In . SVG Version: 6.00 Build 0)  -->
<!DOCTYPE svg PUBLIC "-//W3C//DTD SVG 1.1//EN" "http://www.w3.org/Graphics/SVG/1.1/DTD/svg11.dtd">
<svg version="1.1" id="Layer_1" xmlns="http://www.w3.org/2000/svg" xmlns:xlink="http://www.w3.org/1999/xlink" x="0px" y="0px"
	 width="900px" height="396px" viewBox="0 0 900 396" enable-background="new 0 0 900 396" xml:space="preserve">
<line fill="none" stroke="#000000" stroke-width="2" stroke-miterlimit="10" x1="18" y1="126" x2="18" y2="234"/>
<line fill="none" stroke="#000000" stroke-width="2" stroke-miterlimit="10" x1="54" y1="126" x2="54" y2="234"/>
<line fill="none" stroke="#000000" stroke-width="2" stroke-miterlimit="10" x1="90" y1="126" x2="90" y2="234"/>
<line fill="none" stroke="#000000" stroke-width="2" stroke-miterlimit="10" x1="0" y1="144" x2="108" y2="144"/>
<line fill="none" stroke="#000000" stroke-width="2" stroke-miterlimit="10" x1="0" y1="180" x2="108" y2="180"/>
<line fill="none" stroke="#000000" stroke-width="2" stroke-miterlimit="10" x1="0" y1="216" x2="108" y2="216"/>
<line fill="none" stroke="#FEC200" stroke-miterlimit="10" x1="198" y1="36" x2="198" y2="324"/>
<line fill="none" stroke="#FEC200" stroke-miterlimit="10" x1="234" y1="36" x2="234" y2="324"/>
<line fill="none" stroke="#FEC200" stroke-miterlimit="10" x1="270" y1="36" x2="270" y2="324"/>
<line fill="none" stroke="#FEC200" stroke-miterlimit="10" x1="306" y1="36" x2="306" y2="324"/>
<line fill="none" stroke="#FEC200" stroke-miterlimit="10" x1="342" y1="36" x2="342" y2="324"/>
<line fill="none" stroke="#FEC200" stroke-miterlimit="10" x1="378" y1="36" x2="378" y2="324"/>
<line fill="none" stroke="#FEC200" stroke-miterlimit="10" x1="414" y1="36" x2="414" y2="324"/>
<line fill="none" stroke="#FEC200" stroke-miterlimit="10" x1="450" y1="36" x2="450" y2="324"/>
<line fill="none" stroke="#FEC200" stroke-miterlimit="10" x1="180" y1="54" x2="468" y2="54"/>
<line fill="none" stroke="#FEC200" stroke-miterlimit="10" x1="180" y1="90" x2="468" y2="90"/>
<line fill="none" stroke="#FEC200" stroke-miterlimit="10" x1="180" y1="126" x2="468" y2="126"/>
<line fill="none" stroke="#FEC200" stroke-miterlimit="10" x1="180" y1="162" x2="468" y2="162"/>
<line fill="none" stroke="#FEC200" stroke-miterlimit="10" x1="180" y1="198" x2="468" y2="198"/>
<line fill="none" stroke="#FEC200" stroke-miterlimit="10" x1="180" y1="234" x2="468" y2="234"/>
<line fill="none" stroke="#FEC200" stroke-miterlimit="10" x1="468" y1="270" x2="180" y2="270"/>
<line fill="none" stroke="#FEC200" stroke-miterlimit="10" x1="180" y1="306" x2="468" y2="306"/>
<text transform="matrix(1 0 0 1 192 350.9995)" fill="#0081CD" font-family="'Times-Roman'" font-size="24">0</text>
<text transform="matrix(1 0 0 1 228 350.9995)" fill="#0081CD" font-family="'Times-Roman'" font-size="24">1</text>
<text transform="matrix(1 0 0 1 264 350.9995)" fill="#0081CD" font-family="'Times-Roman'" font-size="24">3</text>
<text transform="matrix(1 0 0 1 300 350.9995)" fill="#0081CD" font-family="'Times-Roman'" font-size="24">7</text>
<text transform="matrix(1 0 0 1 338.0039 350.9995)" fill="#0081CD" font-family="'Times-Roman'" font-size="24">f</text>
<text transform="matrix(1 0 0 1 372.6738 350.9995)" fill="#0081CD" font-family="'Times-Roman'" font-size="24">e</text>
<text transform="matrix(1 0 0 1 408.6738 350.9995)" fill="#0081CD" font-family="'Times-Roman'" font-size="24">c</text>
<text transform="matrix(1 0 0 1 444 350.9995)" fill="#0081CD" font-family="'Times-Roman'" font-size="24">8</text>
<text transform="matrix(1 0 0 1 156 314.9995)" fill="#009246" font-family="'Times-Roman'" font-size="24">5</text>
<text transform="matrix(1 0 0 1 156 278.9995)" fill="#009246" font-family="'Times-Roman'" font-size="24">4</text>
<text transform="matrix(1 0 0 1 156 242.9995)" fill="#009246" font-family="'Times-Roman'" font-size="24">6</text>
<text transform="matrix(1 0 0 1 156 206.9995)" fill="#009246" font-family="'Times-Roman'" font-size="24">2</text>
<text transform="matrix(1 0 0 1 156.6738 170.9995)" fill="#009246" font-family="'Times-Roman'" font-size="24">a</text>
<text transform="matrix(1 0 0 1 156 134.9995)" fill="#009246" font-family="'Times-Roman'" font-size="24">b</text>
<text transform="matrix(1 0 0 1 156 62.9995)" fill="#009246" font-family="'Times-Roman'" font-size="24">d</text>
<text transform="matrix(1 0 0 1 156 98.9995)" fill="#009246" font-family="'Times-Roman'" font-size="24">9</text>
<polygon fill="none" stroke="#000000" stroke-width="2" stroke-miterlimit="10" points="234,306 306,306 306,234 270,198 198,198 
	198,270 "/>
<polyline fill="none" stroke="#000000" stroke-width="2" stroke-miterlimit="10" points="270,198 270,126 342,126 378,162 378,234 
	306,234 "/>
<polyline fill="none" stroke="#000000" stroke-width="2" stroke-miterlimit="10" points="342,126 342,54 414,54 450,90 450,162 
	378,162 "/>
<polyline fill="none" stroke="#000000" stroke-width="2" stroke-miterlimit="10" points="378,234 414,270 468,270 "/>
<line fill="none" stroke="#000000" stroke-width="2" stroke-miterlimit="10" x1="450" y1="162" x2="468" y2="180"/>
<line fill="none" stroke="#000000" stroke-width="2" stroke-miterlimit="10" x1="450" y1="90" x2="468" y2="90"/>
<line fill="none" stroke="#000000" stroke-width="2" stroke-miterlimit="10" x1="414" y1="54" x2="414" y2="36"/>
<line fill="none" stroke="#000000" stroke-width="2" stroke-miterlimit="10" x1="414" y1="270" x2="414" y2="324"/>
<line fill="none" stroke="#000000" stroke-width="2" stroke-miterlimit="10" x1="306" y1="306" x2="324" y2="324"/>
<line fill="none" stroke="#000000" stroke-width="2" stroke-miterlimit="10" x1="234" y1="306" x2="234" y2="324"/>
<line fill="none" stroke="#000000" stroke-width="2" stroke-miterlimit="10" x1="198" y1="270" x2="180" y2="270"/>
<line fill="none" stroke="#000000" stroke-width="2" stroke-miterlimit="10" x1="198" y1="198" x2="180" y2="180"/>
<polyline fill="none" stroke="#000000" stroke-width="2" stroke-miterlimit="10" points="270,126 234,90 180,90 "/>
<line fill="none" stroke="#000000" stroke-width="2" stroke-miterlimit="10" x1="234" y1="90" x2="234" y2="36"/>
<line fill="none" stroke="#000000" stroke-width="2" stroke-miterlimit="10" x1="342" y1="54" x2="324" y2="36"/>
<line fill="none" stroke="#FEC200" stroke-miterlimit="10" x1="558" y1="360" x2="558" y2="0"/>
<line fill="none" stroke="#FEC200" stroke-miterlimit="10" x1="594" y1="0" x2="594" y2="360"/>
<line fill="none" stroke="#FEC200" stroke-miterlimit="10" x1="630" y1="360" x2="630" y2="0"/>
<line fill="none" stroke="#FEC200" stroke-miterlimit="10" x1="666" y1="0" x2="666" y2="360"/>
<line fill="none" stroke="#FEC200" stroke-miterlimit="10" x1="702" y1="360" x2="702" y2="0"/>
<line fill="none" stroke="#FEC200" stroke-miterlimit="10" x1="738" y1="0" x2="738" y2="360"/>
<line fill="none" stroke="#FEC200" stroke-miterlimit="10" x1="774" y1="360" x2="774" y2="0"/>
<line fill="none" stroke="#FEC200" stroke-miterlimit="10" x1="810" y1="0" x2="810" y2="360"/>
<line fill="none" stroke="#FEC200" stroke-miterlimit="10" x1="846" y1="360" x2="846" y2="0"/>
<line fill="none" stroke="#FEC200" stroke-miterlimit="10" x1="882" y1="0" x2="882" y2="360"/>
<line fill="none" stroke="#FEC200" stroke-miterlimit="10" x1="900" y1="342" x2="540" y2="342"/>
<line fill="none" stroke="#FEC200" stroke-miterlimit="10" x1="540" y1="306" x2="900" y2="306"/>
<line fill="none" stroke="#FEC200" stroke-miterlimit="10" x1="900" y1="270" x2="540" y2="270"/>
<line fill="none" stroke="#FEC200" stroke-miterlimit="10" x1="540" y1="234" x2="900" y2="234"/>
<line fill="none" stroke="#FEC200" stroke-miterlimit="10" x1="900" y1="198" x2="540" y2="198"/>
<line fill="none" stroke="#FEC200" stroke-miterlimit="10" x1="540" y1="162" x2="900" y2="162"/>
<line fill="none" stroke="#FEC200" stroke-miterlimit="10" x1="900" y1="126" x2="540" y2="126"/>
<line fill="none" stroke="#FEC200" stroke-miterlimit="10" x1="540" y1="90" x2="900" y2="90"/>
<line fill="none" stroke="#FEC200" stroke-miterlimit="10" x1="900" y1="54" x2="540" y2="54"/>
<line fill="none" stroke="#FEC200" stroke-miterlimit="10" x1="540" y1="18" x2="900" y2="18"/>
<text transform="matrix(1 0 0 1 546 386.9995)" fill="#0081CD" font-family="'Times-Roman'" font-size="24">12</text>
<text transform="matrix(1 0 0 1 582 386.9995)" fill="#0081CD" font-family="'Times-Roman'" font-size="24">21</text>
<text transform="matrix(1 0 0 1 618 386.9995)" fill="#0081CD" font-family="'Times-Roman'" font-size="24">23</text>
<text transform="matrix(1 0 0 1 654 386.9995)" fill="#0081CD" font-family="'Times-Roman'" font-size="24">32</text>
<text transform="matrix(1 0 0 1 690 386.9995)" fill="#0081CD" font-family="'Times-Roman'" font-size="24">34</text>
<text transform="matrix(1 0 0 1 726 386.9995)" fill="#0081CD" font-family="'Times-Roman'" font-size="24">43</text>
<text transform="matrix(1 0 0 1 762 386.9995)" fill="#0081CD" font-family="'Times-Roman'" font-size="24">45</text>
<text transform="matrix(1 0 0 1 798 386.9995)" fill="#0081CD" font-family="'Times-Roman'" font-size="24">54</text>
<text transform="matrix(1 0 0 1 834 386.9995)" fill="#0081CD" font-family="'Times-Roman'" font-size="24">51</text>
<text transform="matrix(1 0 0 1 870 386.9995)" fill="#0081CD" font-family="'Times-Roman'" font-size="24">15</text>
<text transform="matrix(1 0 0 1 510 350.9995)" fill="#009246" font-family="'Times-Roman'" font-size="24">13</text>
<text transform="matrix(1 0 0 1 510 314.9995)" fill="#009246" font-family="'Times-Roman'" font-size="24">31</text>
<text transform="matrix(1 0 0 1 510 278.9995)" fill="#009246" font-family="'Times-Roman'" font-size="24">35</text>
<text transform="matrix(1 0 0 1 510 242.9995)" fill="#009246" font-family="'Times-Roman'" font-size="24">53</text>
<text transform="matrix(1 0 0 1 510 206.9995)" fill="#009246" font-family="'Times-Roman'" font-size="24">52</text>
<text transform="matrix(1 0 0 1 510 170.9995)" fill="#009246" font-family="'Times-Roman'" font-size="24">25</text>
<text transform="matrix(1 0 0 1 510 134.9995)" fill="#009246" font-family="'Times-Roman'" font-size="24">24</text>
<text transform="matrix(1 0 0 1 510 98.9995)" fill="#009246" font-family="'Times-Roman'" font-size="24">42</text>
<text transform="matrix(1 0 0 1 510 62.9995)" fill="#009246" font-family="'Times-Roman'" font-size="24">41</text>
<text transform="matrix(1 0 0 1 510 26.9995)" fill="#009246" font-family="'Times-Roman'" font-size="24">14</text>
<polyline fill="none" stroke="#000000" stroke-width="2" stroke-miterlimit="10" points="540,18 558,18 558,0 "/>
<polyline fill="none" stroke="#000000" stroke-width="2" stroke-miterlimit="10" points="882,0 882,18 900,18 "/>
<rect x="738" y="54" fill="none" stroke="#000000" stroke-width="2" stroke-miterlimit="10" width="36" height="36"/>
<rect x="810" y="198" fill="none" stroke="#000000" stroke-width="2" stroke-miterlimit="10" width="36" height="36"/>
<rect x="594" y="126" fill="none" stroke="#000000" stroke-width="2" stroke-miterlimit="10" width="36" height="36"/>
<rect x="666" y="270" fill="none" stroke="#000000" stroke-width="2" stroke-miterlimit="10" width="36" height="36"/>
<polyline fill="none" stroke="#000000" stroke-width="2" stroke-miterlimit="10" points="882,360 882,342 900,342 "/>
<polyline fill="none" stroke="#000000" stroke-width="2" stroke-miterlimit="10" points="558,360 558,342 540,342 "/>
<line fill="none" stroke="#000000" stroke-width="2" stroke-miterlimit="10" x1="558" y1="18" x2="594" y2="126"/>
<line fill="none" stroke="#000000" stroke-width="2" stroke-miterlimit="10" x1="630" y1="126" x2="738" y2="90"/>
<line fill="none" stroke="#000000" stroke-width="2" stroke-miterlimit="10" x1="630" y1="162" x2="666" y2="270"/>
<line fill="none" stroke="#000000" stroke-width="2" stroke-miterlimit="10" x1="702" y1="270" x2="810" y2="234"/>
<line fill="none" stroke="#000000" stroke-width="2" stroke-miterlimit="10" x1="810" y1="198" x2="774" y2="90"/>
<line fill="none" stroke="#000000" stroke-width="2" stroke-miterlimit="10" x1="774" y1="54" x2="882" y2="18"/>
<line fill="none" stroke="#000000" stroke-width="2" stroke-miterlimit="10" x1="846" y1="234" x2="882" y2="342"/>
<line fill="none" stroke="#000000" stroke-width="2" stroke-miterlimit="10" x1="558" y1="342" x2="666" y2="306"/>
<line fill="none" stroke="#000000" stroke-width="2" stroke-miterlimit="10" x1="594" y1="162" x2="540" y2="180"/>
<line fill="none" stroke="#000000" stroke-width="2" stroke-miterlimit="10" x1="738" y1="54" x2="720" y2="0"/>
<line fill="none" stroke="#000000" stroke-width="2" stroke-miterlimit="10" x1="846" y1="198" x2="900" y2="180"/>
<line fill="none" stroke="#000000" stroke-width="2" stroke-miterlimit="10" x1="702" y1="306" x2="720" y2="360"/>
<circle fill="#BC1E47" stroke="#000000" stroke-miterlimit="10" cx="18" cy="144" r="4.5"/>
<circle fill="#BC1E47" stroke="#000000" stroke-miterlimit="10" cx="54" cy="144" r="4.5"/>
<circle fill="#BC1E47" stroke="#000000" stroke-miterlimit="10" cx="90" cy="144" r="4.5"/>
<circle fill="#BC1E47" stroke="#000000" stroke-miterlimit="10" cx="90" cy="180" r="4.5"/>
<circle fill="#BC1E47" stroke="#000000" stroke-miterlimit="10" cx="54" cy="180" r="4.5"/>
<circle fill="#BC1E47" stroke="#000000" stroke-miterlimit="10" cx="18" cy="180" r="4.5"/>
<circle fill="#BC1E47" stroke="#000000" stroke-miterlimit="10" cx="18" cy="216" r="4.5"/>
<circle fill="#BC1E47" stroke="#000000" stroke-miterlimit="10" cx="54" cy="216" r="4.5"/>
<circle fill="#BC1E47" stroke="#000000" stroke-miterlimit="10" cx="90" cy="216" r="4.5"/>
<circle fill="#BC1E47" stroke="#000000" stroke-miterlimit="10" cx="198" cy="270" r="4.5"/>
<circle fill="#BC1E47" stroke="#000000" stroke-miterlimit="10" cx="198" cy="198" r="4.5"/>
<circle fill="#BC1E47" stroke="#000000" stroke-miterlimit="10" cx="234" cy="306" r="4.5"/>
<circle fill="#BC1E47" stroke="#000000" stroke-miterlimit="10" cx="234" cy="90" r="4.5"/>
<circle fill="#BC1E47" stroke="#000000" stroke-miterlimit="10" cx="270" cy="198" r="4.5"/>
<circle fill="#BC1E47" stroke="#000000" stroke-miterlimit="10" cx="270" cy="126" r="4.5"/>
<circle fill="#BC1E47" stroke="#000000" stroke-miterlimit="10" cx="306" cy="234" r="4.5"/>
<circle fill="#BC1E47" stroke="#000000" stroke-miterlimit="10" cx="306" cy="306" r="4.5"/>
<circle fill="#BC1E47" stroke="#000000" stroke-miterlimit="10" cx="342" cy="126" r="4.5"/>
<circle fill="#BC1E47" stroke="#000000" stroke-miterlimit="10" cx="342" cy="54" r="4.5"/>
<circle fill="#BC1E47" stroke="#000000" stroke-miterlimit="10" cx="378" cy="162" r="4.5"/>
<circle fill="#BC1E47" stroke="#000000" stroke-miterlimit="10" cx="378" cy="234" r="4.5"/>
<circle fill="#BC1E47" stroke="#000000" stroke-miterlimit="10" cx="414" cy="270" r="4.5"/>
<circle fill="#BC1E47" stroke="#000000" stroke-miterlimit="10" cx="414" cy="54" r="4.5"/>
<circle fill="#BC1E47" stroke="#000000" stroke-miterlimit="10" cx="450" cy="90" r="4.5"/>
<circle fill="#BC1E47" stroke="#000000" stroke-miterlimit="10" cx="450" cy="162" r="4.5"/>
<circle fill="#BC1E47" stroke="#000000" stroke-miterlimit="10" cx="558" cy="342" r="4.5"/>
<circle fill="#BC1E47" stroke="#000000" stroke-miterlimit="10" cx="558" cy="18" r="4.5"/>
<circle fill="#BC1E47" stroke="#000000" stroke-miterlimit="10" cx="594" cy="162" r="4.5"/>
<circle fill="#BC1E47" stroke="#000000" stroke-miterlimit="10" cx="594" cy="126" r="4.5"/>
<circle fill="#BC1E47" stroke="#000000" stroke-miterlimit="10" cx="630" cy="162" r="4.5"/>
<circle fill="#BC1E47" stroke="#000000" stroke-miterlimit="10" cx="630" cy="126" r="4.5"/>
<circle fill="#BC1E47" stroke="#000000" stroke-miterlimit="10" cx="666" cy="306" r="4.5"/>
<circle fill="#BC1E47" stroke="#000000" stroke-miterlimit="10" cx="666" cy="270" r="4.5"/>
<circle fill="#BC1E47" stroke="#000000" stroke-miterlimit="10" cx="702" cy="306" r="4.5"/>
<circle fill="#BC1E47" stroke="#000000" stroke-miterlimit="10" cx="702" cy="270" r="4.5"/>
<circle fill="#BC1E47" stroke="#000000" stroke-miterlimit="10" cx="738" cy="90" r="4.5"/>
<circle fill="#BC1E47" stroke="#000000" stroke-miterlimit="10" cx="738" cy="54" r="4.5"/>
<circle fill="#BC1E47" stroke="#000000" stroke-miterlimit="10" cx="774" cy="90" r="4.5"/>
<circle fill="#BC1E47" stroke="#000000" stroke-miterlimit="10" cx="774" cy="54" r="4.5"/>
<circle fill="#BC1E47" stroke="#000000" stroke-miterlimit="10" cx="810" cy="234" r="4.5"/>
<circle fill="#BC1E47" stroke="#000000" stroke-miterlimit="10" cx="810" cy="198" r="4.5"/>
<circle fill="#BC1E47" stroke="#000000" stroke-miterlimit="10" cx="846" cy="234" r="4.5"/>
<circle fill="#BC1E47" stroke="#000000" stroke-miterlimit="10" cx="846" cy="198" r="4.5"/>
<circle fill="#BC1E47" stroke="#000000" stroke-miterlimit="10" cx="882" cy="18" r="4.5"/>
<circle fill="#BC1E47" stroke="#000000" stroke-miterlimit="10" cx="882" cy="342" r="4.5"/>
</svg>
