<?xml version="1.0" encoding="utf-8"?>
<!-- Generator: Adobe Illustrator 15.1.0, SVG Export Plug-In . SVG Version: 6.00 Build 0)  -->
<!DOCTYPE svg PUBLIC "-//W3C//DTD SVG 1.1//EN" "http://www.w3.org/Graphics/SVG/1.1/DTD/svg11.dtd">
<svg version="1.1" id="Layer_1" xmlns="http://www.w3.org/2000/svg" xmlns:xlink="http://www.w3.org/1999/xlink" x="0px" y="0px"
	 width="522px" height="369px" viewBox="0 0 522 369" enable-background="new 0 0 522 369" xml:space="preserve">
<line fill="none" stroke="#BC1E47" stroke-width="2" stroke-miterlimit="10" x1="260.999" y1="9" x2="188.999" y2="63"/>
<line fill="none" stroke="#BC1E47" stroke-width="2" stroke-miterlimit="10" x1="332.999" y1="63" x2="305.999" y2="144"/>
<line fill="none" stroke="#0081CD" stroke-width="2" stroke-miterlimit="10" x1="188.999" y1="63" x2="215.999" y2="144"/>
<line fill="none" stroke="#0081CD" stroke-width="2" stroke-miterlimit="10" x1="260.999" y1="9" x2="332.999" y2="63"/>
<line fill="none" stroke="#BC1E47" stroke-width="2" stroke-miterlimit="10" x1="441" y1="9" x2="369" y2="63"/>
<line fill="none" stroke="#BC1E47" stroke-width="2" stroke-miterlimit="10" x1="513" y1="63" x2="486" y2="144"/>
<line fill="none" stroke="#0081CD" stroke-width="2" stroke-miterlimit="10" x1="369" y1="63" x2="396" y2="144"/>
<line fill="none" stroke="#0081CD" stroke-width="2" stroke-miterlimit="10" x1="441" y1="9" x2="513" y2="63"/>
<line fill="none" stroke="#BC1E47" stroke-width="2" stroke-miterlimit="10" x1="171" y1="197.999" x2="99" y2="252"/>
<line fill="none" stroke="#BC1E47" stroke-width="2" stroke-miterlimit="10" x1="243" y1="252" x2="216" y2="333"/>
<line fill="none" stroke="#0081CD" stroke-width="2" stroke-miterlimit="10" x1="99" y1="252" x2="126" y2="333"/>
<line fill="none" stroke="#0081CD" stroke-width="2" stroke-miterlimit="10" x1="171" y1="197.999" x2="243" y2="252"/>
<line fill="none" stroke="#BC1E47" stroke-width="2" stroke-miterlimit="10" x1="351" y1="198" x2="279" y2="252"/>
<line fill="none" stroke="#BC1E47" stroke-width="2" stroke-miterlimit="10" x1="423" y1="252" x2="396" y2="333"/>
<line fill="none" stroke="#0081CD" stroke-width="2" stroke-miterlimit="10" x1="279" y1="252" x2="306" y2="333"/>
<line fill="none" stroke="#0081CD" stroke-width="2" stroke-miterlimit="10" x1="351" y1="198" x2="423" y2="252"/>
<path fill="none" stroke="#FEC200" stroke-width="2" stroke-miterlimit="10" d="M261,9c9,36,36,54,72,54"/>
<line fill="none" stroke="#FEC200" stroke-width="2" stroke-miterlimit="10" x1="306" y1="144" x2="216" y2="144"/>
<path fill="none" stroke="#FEC200" stroke-width="2" stroke-miterlimit="10" d="M369,63"/>
<path fill="none" stroke="#FEC200" stroke-width="2" stroke-miterlimit="10" d="M369,63c36,27,36,36,27,81"/>
<line fill="none" stroke="#FEC200" stroke-width="2" stroke-miterlimit="10" x1="441" y1="9" x2="486" y2="144"/>
<line fill="none" stroke="#FEC200" stroke-width="2" stroke-miterlimit="10" x1="126" y1="333" x2="216" y2="333"/>
<line fill="none" stroke="#FEC200" stroke-width="2" stroke-miterlimit="10" x1="99" y1="252" x2="243" y2="252"/>
<line fill="none" stroke="#FEC200" stroke-width="2" stroke-miterlimit="10" x1="279" y1="252" x2="396" y2="333"/>
<line fill="none" stroke="#FEC200" stroke-width="2" stroke-miterlimit="10" x1="423" y1="252" x2="306" y2="333"/>
<g>
	<path d="M227.893,156.886c-0.432-0.024-0.984,0.024-1.584,0.12c-3.336,0.528-5.064,2.928-5.425,5.521h0.048
		c0.744-1.008,2.064-1.824,3.792-1.824c2.76,0,4.705,2.016,4.705,5.041c0,2.88-1.944,5.521-5.208,5.521
		c-3.312,0-5.497-2.592-5.497-6.649c0-3.072,1.08-5.496,2.641-7.032c1.296-1.272,3.024-2.064,4.992-2.304
		c0.624-0.096,1.152-0.12,1.536-0.12V156.886z M227.293,165.887c0-2.232-1.272-3.577-3.216-3.577c-1.272,0-2.472,0.768-3.048,1.92
		c-0.12,0.24-0.216,0.528-0.216,0.912c0.024,2.568,1.224,4.488,3.456,4.488C226.069,169.631,227.293,168.119,227.293,165.887z"/>
	<path d="M230.604,173.976c0.528-1.44,1.176-4.008,1.44-5.76l2.352-0.24c-0.576,2.041-1.632,4.705-2.304,5.833L230.604,173.976z"/>
	<path d="M240.852,157.366h-0.048l-2.712,1.464l-0.408-1.608l3.408-1.824h1.8V171h-2.04V157.366z"/>
	<path d="M258.972,163.031c0,5.305-1.992,8.233-5.425,8.233c-3.048,0-5.136-2.856-5.184-8.017c0-5.257,2.28-8.113,5.448-8.113
		C257.076,155.134,258.972,158.062,258.972,163.031z M250.5,163.271c0,4.056,1.248,6.36,3.168,6.36c2.136,0,3.168-2.52,3.168-6.504
		c0-3.84-0.96-6.361-3.168-6.361C251.843,156.766,250.5,159.022,250.5,163.271z"/>
	<path d="M260.195,173.976c0.528-1.44,1.176-4.008,1.44-5.76l2.352-0.24c-0.576,2.041-1.632,4.705-2.304,5.833L260.195,173.976z"/>
	<path d="M270.443,157.366h-0.048l-2.712,1.464l-0.408-1.608l3.408-1.824h1.8V171h-2.04V157.366z"/>
	<path d="M288.563,163.031c0,5.305-1.992,8.233-5.425,8.233c-3.048,0-5.136-2.856-5.184-8.017c0-5.257,2.28-8.113,5.448-8.113
		C286.667,155.134,288.563,158.062,288.563,163.031z M280.09,163.271c0,4.056,1.248,6.36,3.168,6.36c2.136,0,3.168-2.52,3.168-6.504
		c0-3.84-0.96-6.361-3.168-6.361C281.434,156.766,280.09,159.022,280.09,163.271z"/>
	<path d="M293.842,165.911l-1.68,5.088h-2.16l5.521-16.177h2.496L303.539,171h-2.232l-1.728-5.088H293.842z M299.17,164.279
		l-1.608-4.656c-0.36-1.056-0.6-2.016-0.84-2.952h-0.048c-0.24,0.936-0.48,1.944-0.816,2.928l-1.584,4.68H299.17z"/>
</g>
<g>
	<path d="M408.734,156.886c-0.433-0.024-0.984,0.024-1.584,0.12c-3.337,0.528-5.064,2.928-5.426,5.521h0.049
		c0.744-1.008,2.064-1.824,3.792-1.824c2.761,0,4.704,2.016,4.704,5.041c0,2.88-1.943,5.521-5.208,5.521
		c-3.312,0-5.497-2.592-5.497-6.649c0-3.072,1.08-5.496,2.641-7.032c1.297-1.272,3.024-2.064,4.992-2.304
		c0.625-0.096,1.152-0.12,1.537-0.12V156.886z M408.133,165.887c0-2.232-1.272-3.577-3.216-3.577c-1.272,0-2.473,0.768-3.049,1.92
		c-0.119,0.24-0.216,0.528-0.216,0.912c0.024,2.568,1.224,4.488,3.456,4.488C406.91,169.631,408.133,168.119,408.133,165.887z"/>
	<path d="M411.444,173.976c0.528-1.44,1.177-4.008,1.44-5.76l2.352-0.24c-0.576,2.041-1.631,4.705-2.304,5.833L411.444,173.976z"/>
	<path d="M421.693,157.366h-0.049l-2.712,1.464l-0.408-1.608l3.408-1.824h1.8V171h-2.039V157.366z"/>
	<path d="M439.812,163.031c0,5.305-1.992,8.233-5.424,8.233c-3.049,0-5.137-2.856-5.185-8.017c0-5.257,2.28-8.113,5.448-8.113
		C437.916,155.134,439.812,158.062,439.812,163.031z M431.339,163.271c0,4.056,1.248,6.36,3.168,6.36
		c2.137,0,3.169-2.52,3.169-6.504c0-3.84-0.96-6.361-3.169-6.361C432.683,156.766,431.339,159.022,431.339,163.271z"/>
	<path d="M441.035,173.976c0.528-1.44,1.176-4.008,1.44-5.76l2.353-0.24c-0.576,2.041-1.633,4.705-2.305,5.833L441.035,173.976z"/>
	<path d="M451.283,157.366h-0.047l-2.713,1.464l-0.408-1.608l3.408-1.824h1.801V171h-2.041V157.366z"/>
	<path d="M469.404,163.031c0,5.305-1.992,8.233-5.426,8.233c-3.047,0-5.136-2.856-5.184-8.017c0-5.257,2.279-8.113,5.448-8.113
		C467.507,155.134,469.404,158.062,469.404,163.031z M460.931,163.271c0,4.056,1.248,6.36,3.168,6.36
		c2.136,0,3.168-2.52,3.168-6.504c0-3.84-0.96-6.361-3.168-6.361C462.275,156.766,460.931,159.022,460.931,163.271z"/>
	<path d="M472.066,155.062c0.912-0.216,2.376-0.36,3.816-0.36c2.088,0,3.432,0.36,4.416,1.176c0.84,0.624,1.368,1.584,1.368,2.856
		c0,1.584-1.056,2.952-2.735,3.552v0.072c1.535,0.36,3.336,1.632,3.336,4.032c0,1.392-0.553,2.472-1.393,3.24
		c-1.104,1.032-2.928,1.512-5.568,1.512c-1.439,0-2.545-0.096-3.24-0.192V155.062z M474.154,161.687h1.896
		c2.184,0,3.48-1.176,3.48-2.736c0-1.873-1.416-2.641-3.528-2.641c-0.96,0-1.513,0.072-1.849,0.144V161.687z M474.154,169.416
		c0.432,0.072,1.008,0.096,1.752,0.096c2.16,0,4.152-0.792,4.152-3.144c0-2.184-1.896-3.12-4.176-3.12h-1.729V169.416z"/>
</g>
<g>
	<path d="M127.417,346.367h-0.048l-2.712,1.464l-0.408-1.608l3.408-1.824h1.801V360h-2.041V346.367z"/>
	<path d="M145.538,352.031c0,5.305-1.992,8.232-5.424,8.232c-3.049,0-5.137-2.855-5.185-8.016c0-5.258,2.28-8.113,5.448-8.113
		C143.642,344.134,145.538,347.062,145.538,352.031z M137.065,352.271c0,4.057,1.248,6.36,3.169,6.36
		c2.136,0,3.168-2.521,3.168-6.505c0-3.84-0.96-6.36-3.168-6.36C138.41,345.766,137.065,348.023,137.065,352.271z"/>
	<path d="M146.76,362.976c0.528-1.44,1.177-4.009,1.44-5.761l2.353-0.24c-0.576,2.04-1.633,4.704-2.305,5.833L146.76,362.976z"/>
	<path d="M157.008,346.367h-0.048l-2.712,1.464l-0.408-1.608l3.408-1.824h1.801V360h-2.041V346.367z"/>
	<path d="M175.128,352.031c0,5.305-1.992,8.232-5.424,8.232c-3.049,0-5.137-2.855-5.185-8.016c0-5.258,2.28-8.113,5.448-8.113
		C173.233,344.134,175.128,347.062,175.128,352.031z M166.656,352.271c0,4.057,1.248,6.36,3.169,6.36
		c2.136,0,3.168-2.521,3.168-6.505c0-3.84-0.96-6.36-3.168-6.36C168,345.766,166.656,348.023,166.656,352.271z"/>
	<path d="M176.351,362.976c0.528-1.44,1.177-4.009,1.44-5.761l2.353-0.24c-0.576,2.04-1.633,4.704-2.305,5.833L176.351,362.976z"/>
	<path d="M186.599,346.367h-0.048l-2.712,1.464l-0.408-1.608l3.408-1.824h1.801V360h-2.041V346.367z"/>
	<path d="M204.719,352.031c0,5.305-1.992,8.232-5.424,8.232c-3.049,0-5.137-2.855-5.185-8.016c0-5.258,2.28-8.113,5.448-8.113
		C202.824,344.134,204.719,347.062,204.719,352.031z M196.247,352.271c0,4.057,1.248,6.36,3.169,6.36
		c2.136,0,3.168-2.521,3.168-6.505c0-3.84-0.96-6.36-3.168-6.36C197.591,345.766,196.247,348.023,196.247,352.271z"/>
	<path d="M209.999,354.912L208.318,360h-2.16l5.521-16.178h2.497L219.696,360h-2.232l-1.729-5.088H209.999z M215.327,353.279
		l-1.607-4.656c-0.36-1.057-0.601-2.016-0.841-2.952h-0.048c-0.24,0.937-0.479,1.944-0.815,2.929l-1.585,4.68H215.327z"/>
</g>
<line fill="none" stroke="#BC1E47" stroke-width="2" stroke-miterlimit="10" x1="81" y1="9" x2="9" y2="63"/>
<line fill="none" stroke="#BC1E47" stroke-width="2" stroke-miterlimit="10" x1="153" y1="63" x2="126" y2="144"/>
<line fill="none" stroke="#0081CD" stroke-width="2" stroke-miterlimit="10" x1="9" y1="63" x2="36" y2="144"/>
<line fill="none" stroke="#0081CD" stroke-width="2" stroke-miterlimit="10" x1="81" y1="9" x2="153" y2="63"/>
<line fill="none" stroke="#FEC200" stroke-width="2" stroke-miterlimit="10" x1="9" y1="63" x2="153" y2="63"/>
<line fill="none" stroke="#FEC200" stroke-width="2" stroke-miterlimit="10" x1="81" y1="9" x2="36" y2="144"/>
<g>
	<path d="M52.861,171v-4.272h-7.248v-1.368l6.96-9.961h2.28v9.697h2.185v1.632h-2.185V171H52.861z M52.861,165.095v-5.209
		c0-0.815,0.024-1.632,0.072-2.448h-0.072c-0.479,0.912-0.864,1.585-1.296,2.305l-3.816,5.305v0.048H52.861z"/>
	<path d="M57.948,173.976c0.528-1.44,1.177-4.009,1.44-5.761l2.353-0.24c-0.576,2.04-1.633,4.704-2.305,5.833L57.948,173.976z"/>
	<path d="M68.196,157.367h-0.048l-2.712,1.464l-0.408-1.608l3.408-1.824h1.801V171h-2.041V157.367z"/>
	<path d="M86.316,163.031c0,5.305-1.992,8.232-5.424,8.232c-3.049,0-5.137-2.855-5.185-8.017c0-5.256,2.28-8.112,5.448-8.112
		C84.42,155.134,86.316,158.062,86.316,163.031z M77.843,163.271c0,4.057,1.248,6.36,3.169,6.36c2.136,0,3.168-2.521,3.168-6.505
		c0-3.84-0.96-6.36-3.168-6.36C79.188,156.766,77.843,159.023,77.843,163.271z"/>
	<path d="M87.539,173.976c0.528-1.44,1.177-4.009,1.44-5.761l2.353-0.24c-0.576,2.04-1.633,4.704-2.305,5.833L87.539,173.976z"/>
	<path d="M97.787,157.367h-0.048l-2.712,1.464l-0.408-1.608l3.408-1.824h1.801V171h-2.041V157.367z"/>
	<path d="M115.907,163.031c0,5.305-1.992,8.232-5.424,8.232c-3.049,0-5.137-2.855-5.185-8.017c0-5.256,2.28-8.112,5.448-8.112
		C114.011,155.134,115.907,158.062,115.907,163.031z M107.434,163.271c0,4.057,1.248,6.36,3.169,6.36
		c2.136,0,3.168-2.521,3.168-6.505c0-3.84-0.96-6.36-3.168-6.36C108.779,156.766,107.434,159.023,107.434,163.271z"/>
</g>
<g>
	<path d="M308.257,346.367h-0.048l-2.712,1.464l-0.408-1.608l3.408-1.824h1.801V360h-2.041V346.367z"/>
	<path d="M326.377,352.031c0,5.305-1.992,8.232-5.424,8.232c-3.049,0-5.137-2.855-5.185-8.017c0-5.256,2.28-8.112,5.448-8.112
		C324.482,344.134,326.377,347.062,326.377,352.031z M317.905,352.271c0,4.057,1.248,6.36,3.169,6.36
		c2.136,0,3.168-2.521,3.168-6.505c0-3.84-0.96-6.36-3.168-6.36C319.25,345.766,317.905,348.023,317.905,352.271z"/>
	<path d="M327.6,362.976c0.528-1.44,1.177-4.009,1.44-5.761l2.353-0.24c-0.576,2.04-1.633,4.704-2.305,5.833L327.6,362.976z"/>
	<path d="M337.848,346.367H337.8l-2.712,1.464l-0.408-1.608l3.408-1.824h1.801V360h-2.041V346.367z"/>
	<path d="M355.968,352.031c0,5.305-1.992,8.232-5.424,8.232c-3.049,0-5.137-2.855-5.185-8.017c0-5.256,2.28-8.112,5.448-8.112
		C354.073,344.134,355.968,347.062,355.968,352.031z M347.496,352.271c0,4.057,1.248,6.36,3.169,6.36
		c2.136,0,3.168-2.521,3.168-6.505c0-3.84-0.96-6.36-3.168-6.36C348.84,345.766,347.496,348.023,347.496,352.271z"/>
	<path d="M357.191,362.976c0.528-1.44,1.177-4.009,1.44-5.761l2.353-0.24c-0.576,2.04-1.633,4.704-2.305,5.833L357.191,362.976z"/>
	<path d="M367.439,346.367h-0.048l-2.712,1.464l-0.408-1.608l3.408-1.824h1.801V360h-2.041V346.367z"/>
	<path d="M385.559,352.031c0,5.305-1.992,8.232-5.424,8.232c-3.049,0-5.137-2.855-5.185-8.017c0-5.256,2.28-8.112,5.448-8.112
		C383.664,344.134,385.559,347.062,385.559,352.031z M377.086,352.271c0,4.057,1.248,6.36,3.169,6.36
		c2.136,0,3.168-2.521,3.168-6.505c0-3.84-0.96-6.36-3.168-6.36C378.431,345.766,377.086,348.023,377.086,352.271z"/>
	<path d="M388.222,344.062c0.912-0.216,2.376-0.36,3.816-0.36c2.088,0,3.433,0.36,4.416,1.177c0.84,0.624,1.368,1.584,1.368,2.856
		c0,1.584-1.056,2.952-2.736,3.552v0.072c1.536,0.36,3.337,1.632,3.337,4.032c0,1.393-0.553,2.473-1.393,3.24
		c-1.104,1.032-2.928,1.512-5.568,1.512c-1.44,0-2.544-0.096-3.24-0.191V344.062z M390.31,350.687h1.896
		c2.185,0,3.48-1.177,3.48-2.736c0-1.872-1.416-2.641-3.528-2.641c-0.96,0-1.513,0.072-1.849,0.145V350.687z M390.31,358.416
		c0.433,0.072,1.009,0.096,1.752,0.096c2.16,0,4.152-0.792,4.152-3.145c0-2.184-1.896-3.12-4.176-3.12h-1.729V358.416z"/>
</g>
<circle fill="#FFFFFF" stroke="#000000" stroke-miterlimit="10" cx="80.999" cy="9" r="6"/>
<circle fill="#FFFFFF" stroke="#000000" stroke-miterlimit="10" cx="152.999" cy="63" r="6"/>
<circle fill="#FFFFFF" stroke="#000000" stroke-miterlimit="10" cx="8.999" cy="63" r="6"/>
<circle fill="#FFFFFF" stroke="#000000" stroke-miterlimit="10" cx="35.999" cy="144" r="6"/>
<circle fill="#FFFFFF" stroke="#000000" stroke-miterlimit="10" cx="125.999" cy="144" r="6"/>
<circle fill="#FFFFFF" stroke="#000000" stroke-miterlimit="10" cx="260.999" cy="9.5" r="6"/>
<circle fill="#FFFFFF" stroke="#000000" stroke-miterlimit="10" cx="332.999" cy="63.5" r="6"/>
<circle fill="#FFFFFF" stroke="#000000" stroke-miterlimit="10" cx="188.999" cy="63.5" r="6"/>
<circle fill="#FFFFFF" stroke="#000000" stroke-miterlimit="10" cx="215.999" cy="144.5" r="6"/>
<circle fill="#FFFFFF" stroke="#000000" stroke-miterlimit="10" cx="305.999" cy="144.5" r="6"/>
<circle fill="#FFFFFF" stroke="#000000" stroke-miterlimit="10" cx="171" cy="198" r="6"/>
<circle fill="#FFFFFF" stroke="#000000" stroke-miterlimit="10" cx="243" cy="252" r="6"/>
<circle fill="#FFFFFF" stroke="#000000" stroke-miterlimit="10" cx="99" cy="252" r="6"/>
<circle fill="#FFFFFF" stroke="#000000" stroke-miterlimit="10" cx="126" cy="333" r="6"/>
<circle fill="#FFFFFF" stroke="#000000" stroke-miterlimit="10" cx="216" cy="333" r="6"/>
<circle fill="#FFFFFF" stroke="#000000" stroke-miterlimit="10" cx="351" cy="198.5" r="6"/>
<circle fill="#FFFFFF" stroke="#000000" stroke-miterlimit="10" cx="423" cy="252.5" r="6"/>
<circle fill="#FFFFFF" stroke="#000000" stroke-miterlimit="10" cx="279" cy="252.5" r="6"/>
<circle fill="#FFFFFF" stroke="#000000" stroke-miterlimit="10" cx="306" cy="333.5" r="6"/>
<circle fill="#FFFFFF" stroke="#000000" stroke-miterlimit="10" cx="396" cy="333.5" r="6"/>
<circle fill="#FFFFFF" stroke="#000000" stroke-miterlimit="10" cx="441" cy="9" r="6"/>
<circle fill="#FFFFFF" stroke="#000000" stroke-miterlimit="10" cx="513" cy="63" r="6"/>
<circle fill="#FFFFFF" stroke="#000000" stroke-miterlimit="10" cx="369" cy="63" r="6"/>
<circle fill="#FFFFFF" stroke="#000000" stroke-miterlimit="10" cx="396" cy="144" r="6"/>
<circle fill="#FFFFFF" stroke="#000000" stroke-miterlimit="10" cx="486" cy="144" r="6"/>
</svg>
