<?xml version="1.0" encoding="utf-8"?>
<!-- Generator: Adobe Illustrator 15.1.0, SVG Export Plug-In . SVG Version: 6.00 Build 0)  -->
<!DOCTYPE svg PUBLIC "-//W3C//DTD SVG 1.1//EN" "http://www.w3.org/Graphics/SVG/1.1/DTD/svg11.dtd">
<svg version="1.1" id="Layer_1" xmlns="http://www.w3.org/2000/svg" xmlns:xlink="http://www.w3.org/1999/xlink" x="0px" y="0px"
	 width="535.499px" height="362.25px" viewBox="-119.627 -76.202 535.499 362.25"
	 enable-background="new -119.627 -76.202 535.499 362.25" xml:space="preserve">
<line fill="none" stroke="#0A50A1" stroke-width="3.5" stroke-dasharray="7" x1="237.372" y1="112.796" x2="-119.627" y2="112.798"/>
<line fill="none" stroke="#0A50A1" stroke-width="3.5" stroke-dasharray="7" x1="290.747" y1="113.671" x2="415.872" y2="112.798"/>
<polyline fill="none" stroke="#FFFFFF" stroke-width="14" points="-103.002,271.173 -87.252,223.923 -71.502,239.673 
	-55.752,160.923 -40.002,192.423 -24.252,208.173 -8.502,129.421 7.248,97.921 22.998,50.671 38.748,66.421 54.498,19.171 
	70.248,129.421 85.998,-28.079 101.748,3.421 117.498,-12.329 133.248,-59.579 148.998,3.421 164.747,50.671 180.497,34.921 
	196.247,82.171 211.997,66.421 227.747,145.173 243.497,129.421 259.247,160.923 274.997,113.671 290.747,129.421 306.497,66.421 
	322.247,97.921 337.997,50.671 353.747,34.921 369.497,-12.329 385.247,3.421 400.997,-43.829 "/>
<polyline fill="none" stroke="#8A5B29" stroke-width="2.625" points="-103.002,271.173 -87.252,223.923 -71.502,239.673 
	-55.752,160.923 -40.002,192.423 -24.252,208.173 -8.502,129.421 7.248,97.921 22.998,50.671 38.748,66.421 54.498,19.171 
	70.248,129.421 85.998,-28.079 101.748,3.421 117.498,-12.329 133.248,-59.579 148.998,3.421 164.747,50.671 180.497,34.921 
	196.247,82.171 211.997,66.421 227.747,145.173 243.497,129.421 259.247,160.923 274.997,113.671 290.747,129.421 306.497,66.421 
	322.247,97.921 337.997,50.671 353.747,34.921 369.497,-12.329 385.247,3.421 400.997,-43.829 "/>
<circle fill="#3333FF" stroke="#000000" stroke-width="1.75" cx="274.997" cy="113.671" r="7.35"/>
<line fill="none" stroke="#F00000" stroke-width="5.25" x1="7.248" y1="97.921" x2="-8.502" y2="129.421"/>
<polyline fill="none" stroke="#F00000" stroke-width="5.25" points="54.498,19.171 70.248,129.421 85.998,-28.079 "/>
<line fill="none" stroke="#F00000" stroke-width="5.25" x1="211.997" y1="66.421" x2="227.747" y2="145.173"/>
<line fill="none" stroke="#F00000" stroke-width="5.25" x1="290.747" y1="129.421" x2="306.497" y2="66.421"/>
<circle fill="#CCCCF0" stroke="#000000" stroke-width="1.75" cx="-103.002" cy="271.173" r="6.125"/>
<circle fill="#CCCCF0" stroke="#000000" stroke-width="1.75" cx="-87.252" cy="223.923" r="6.125"/>
<circle fill="#CCCCF0" stroke="#000000" stroke-width="1.75" cx="-71.502" cy="239.673" r="6.125"/>
<circle fill="#CCCCF0" stroke="#000000" stroke-width="1.75" cx="-55.752" cy="160.923" r="6.125"/>
<circle fill="#CCCCF0" stroke="#000000" stroke-width="1.75" cx="-40.002" cy="192.423" r="6.125"/>
<circle fill="#CCCCF0" stroke="#000000" stroke-width="1.75" cx="-24.252" cy="208.173" r="6.125"/>
<circle fill="#CCCCF0" stroke="#000000" stroke-width="1.75" cx="-8.502" cy="129.423" r="6.125"/>
<circle fill="#CCCCF0" stroke="#000000" stroke-width="1.75" cx="7.248" cy="97.921" r="6.125"/>
<circle fill="#CCCCF0" stroke="#000000" stroke-width="1.75" cx="22.998" cy="50.671" r="6.125"/>
<circle fill="#CCCCF0" stroke="#000000" stroke-width="1.75" cx="38.748" cy="66.421" r="6.125"/>
<circle fill="#CCCCF0" stroke="#000000" stroke-width="1.75" cx="54.498" cy="19.171" r="6.125"/>
<circle fill="#CCCCF0" stroke="#000000" stroke-width="1.75" cx="70.248" cy="129.423" r="6.125"/>
<circle fill="#CCCCF0" stroke="#000000" stroke-width="1.75" cx="85.998" cy="-28.079" r="6.125"/>
<circle fill="#CCCCF0" stroke="#000000" stroke-width="1.75" cx="101.748" cy="3.421" r="6.125"/>
<circle fill="#CCCCF0" stroke="#000000" stroke-width="1.75" cx="117.498" cy="-12.329" r="6.125"/>
<circle fill="#CCCCF0" stroke="#000000" stroke-width="1.75" cx="133.248" cy="-59.579" r="6.125"/>
<circle fill="#CCCCF0" stroke="#000000" stroke-width="1.75" cx="164.747" cy="50.671" r="6.125"/>
<circle fill="#CCCCF0" stroke="#000000" stroke-width="1.75" cx="180.497" cy="34.921" r="6.125"/>
<circle fill="#CCCCF0" stroke="#000000" stroke-width="1.75" cx="196.247" cy="82.171" r="6.125"/>
<circle fill="#CCCCF0" stroke="#000000" stroke-width="1.75" cx="211.997" cy="66.421" r="6.125"/>
<circle fill="#CCCCF0" stroke="#000000" stroke-width="1.75" cx="227.747" cy="145.173" r="6.125"/>
<circle fill="#CCCCF0" stroke="#000000" stroke-width="1.75" cx="243.497" cy="129.423" r="6.125"/>
<circle fill="#CCCCF0" stroke="#000000" stroke-width="1.75" cx="259.247" cy="160.923" r="6.125"/>
<circle fill="#CCCCF0" stroke="#000000" stroke-width="1.75" cx="290.747" cy="129.423" r="6.125"/>
<circle fill="#CCCCF0" stroke="#000000" stroke-width="1.75" cx="306.497" cy="66.421" r="6.125"/>
<circle fill="#CCCCF0" stroke="#000000" stroke-width="1.75" cx="322.247" cy="97.921" r="6.125"/>
<circle fill="#CCCCF0" stroke="#000000" stroke-width="1.75" cx="337.997" cy="50.671" r="6.125"/>
<circle fill="#CCCCF0" stroke="#000000" stroke-width="1.75" cx="353.747" cy="34.921" r="6.125"/>
<circle fill="#CCCCF0" stroke="#000000" stroke-width="1.75" cx="369.497" cy="-12.329" r="6.125"/>
<circle fill="#CCCCF0" stroke="#000000" stroke-width="1.75" cx="385.247" cy="3.421" r="6.125"/>
<circle fill="#CCCCF0" stroke="#000000" stroke-width="1.75" cx="400.997" cy="-43.829" r="6.125"/>
<rect x="-119.627" y="-76.202" fill="none" width="535.499" height="362.25"/>
</svg>
