<svg xmlns="http://www.w3.org/2000/svg" version="1.1" width="320pt" height="320pt" viewBox="0 0 320 320">
	<g fill="none" stroke="black" stroke-dasharray="2,4">
		<circle cx="160" cy="160" r="150.0" />
	</g>
	<g fill="none" stroke="blue">
		<path d="M310,160 A336,336 0 0,0 59,271" />
		<path d="M306,191 A206,206 0 0,0 85,289" />
		<path d="M297,221 A135,135 0 0,0 113,302" />
		<path d="M281,248 A135,135 0 0,1 260,48" />
		<path d="M260,271 A206,206 0 0,1 235,30" />
		<path d="M235,289 A336,336 0 0,1 206,17" />
		<path d="M206,302 A336,336 0 0,0 22,98" />
		<path d="M175,309 A206,206 0 0,0 13,128" />
		<path d="M144,309 A135,135 0 0,0 10,160" />
		<path d="M38,248 A336,336 0 0,0 175,10" />
		<path d="M22,221 A206,206 0 0,0 144,10" />
		<path d="M13,191 A135,135 0 0,0 113,17" />
		<path d="M38,71 A336,336 0 0,0 306,128" />
		<path d="M59,48 A206,206 0 0,0 297,98" />
		<path d="M84,30 A135,135 0 0,0 281,71" />
	</g>
</svg>
