<?xml version="1.0" encoding="utf-8"?>
<!-- Generator: Adobe Illustrator 15.1.0, SVG Export Plug-In . SVG Version: 6.00 Build 0)  -->
<!DOCTYPE svg PUBLIC "-//W3C//DTD SVG 1.1//EN" "http://www.w3.org/Graphics/SVG/1.1/DTD/svg11.dtd">
<svg version="1.1" id="Layer_1" xmlns="http://www.w3.org/2000/svg" xmlns:xlink="http://www.w3.org/1999/xlink" x="0px" y="0px"
	 width="430.5px" height="430.5px" viewBox="0 0 430.5 430.5" enable-background="new 0 0 430.5 430.5" xml:space="preserve">
<radialGradient id="SVGID_1_" cx="214.9985" cy="214.9995" r="322.3359" gradientUnits="userSpaceOnUse">
	<stop  offset="0" style="stop-color:#00FFFF"/>
	<stop  offset="0.0169" style="stop-color:#0DFFFF"/>
	<stop  offset="0.0911" style="stop-color:#3FFFFF"/>
	<stop  offset="0.1708" style="stop-color:#6DFFFF"/>
	<stop  offset="0.2541" style="stop-color:#94FFFF"/>
	<stop  offset="0.342" style="stop-color:#B5FFFF"/>
	<stop  offset="0.4357" style="stop-color:#D0FFFF"/>
	<stop  offset="0.5374" style="stop-color:#E5FFFF"/>
	<stop  offset="0.6512" style="stop-color:#F4FFFF"/>
	<stop  offset="0.7866" style="stop-color:#FCFFFF"/>
	<stop  offset="1" style="stop-color:#FFFFFF"/>
</radialGradient>
<circle fill="url(#SVGID_1_)" cx="214.999" cy="215" r="322.336"/>
<path fill="none" stroke="#000000" d="M214.999,139.353c0,38.367,12.5,71.586,68.967,53.238"/>
<line fill="none" stroke="#000000" x1="214.999" y1="139.353" x2="214.999" y2="57.501"/>
<path fill="none" stroke="#000000" d="M214.999,139.353c0-46.667,34.833-31.625,48.669-74.176"/>
<path fill="none" stroke="#000000" d="M283.966,192.591c45.854-14.898,23.903-45.065,58.453-70.167"/>
<path fill="none" stroke="#000000" d="M263.679,65.177c-25.299,77.863-3.516,87.658,43.896,22.403"/>
<path fill="none" stroke="#000000" d="M307.575,87.581c-48.111,66.219-30.86,82.585,34.845,34.845"/>
<line fill="none" stroke="#000000" x1="214.999" y1="57.501" x2="214.999" y2="19.501"/>
<line fill="none" stroke="#000000" x1="263.668" y1="65.177" x2="275.272" y2="28.972"/>
<line fill="none" stroke="#000000" x1="307.575" y1="87.581" x2="329.917" y2="56.83"/>
<line fill="none" stroke="#000000" x1="342.419" y1="122.424" x2="372.499" y2="99.167"/>
<path fill="none" stroke="#000000" d="M263.668,65.177c5.638-17.319-7.867-20.133-3.021-40.315"/>
<path fill="none" stroke="#000000" d="M263.679,65.177c6.825-21.005,18.054-11.285,26.153-30.839"/>
<path fill="none" stroke="#000000" d="M307.575,87.581c10.826-14.9-2.24-19.995,9.585-39.291"/>
<path fill="none" stroke="#000000" d="M307.575,87.581c11.906-16.387,20.332-4.779,34.391-21.239"/>
<path fill="none" stroke="#000000" d="M342.419,122.424c14.989-10.891,5.83-21.231,21.238-34.391"/>
<path fill="none" stroke="#000000" d="M342.419,122.426c16.655-12.103,21.012,1.266,39.213-9.713"/>
<path fill="none" stroke="#000000" d="M289.833,34.338c-14.545,35.114-3.477,40.615,13.938,6.437"/>
<path fill="none" stroke="#000000" d="M303.771,40.775c-17.254,34.887-6.567,40.078,13.389,7.514"/>
<path fill="none" stroke="#000000" d="M341.965,66.342c-24.678,28.894-15.091,37.58,11.471,10.62"/>
<path fill="none" stroke="#000000" d="M353.436,76.961c-27.068,26.67-18.693,35.767,10.222,11.072"/>
<path fill="none" stroke="#000000" d="M214.999,19.501c0,38,18.457,38.765,23.353,1.382"/>
<path fill="none" stroke="#000000" d="M238.352,20.884c-5.081,37.669,13.443,40.848,22.295,3.979"/>
<path fill="none" stroke="#000000" d="M381.632,112.712c-32.327,19.984-23.862,35.95,10.752,19.995"/>
<path fill="none" stroke="#000000" d="M392.384,132.707c-34.407,16.151-27.687,33.998,8.644,22.021"/>
<path fill="none" stroke="#000000" d="M143.055,191.625C179.545,203.48,215,201.858,215,142.484"/>
<line fill="none" stroke="#000000" x1="143.055" y1="191.625" x2="65.209" y2="166.331"/>
<path fill="none" stroke="#000000" d="M143.055,191.625c-44.383-14.421-19.312-42.901-55.505-69.209"/>
<path fill="none" stroke="#000000" d="M215,142.484c0-48.214-35.474-36.659-48.67-77.275"/>
<path fill="none" stroke="#000000" d="M87.553,122.405c66.234,48.122,82.281,30.431,34.871-34.824"/>
<path fill="none" stroke="#000000" d="M122.425,87.582c48.111,66.219,69.007,54.87,43.906-22.372"/>
<line fill="none" stroke="#000000" x1="65.209" y1="166.331" x2="29.07" y2="154.588"/>
<line fill="none" stroke="#000000" x1="87.55" y1="122.416" x2="56.703" y2="100.192"/>
<line fill="none" stroke="#000000" x1="122.424" y1="87.582" x2="100.083" y2="56.83"/>
<line fill="none" stroke="#000000" x1="166.331" y1="65.208" x2="153.506" y2="29.415"/>
<path fill="none" stroke="#000000" d="M87.55,122.416c-14.729-10.714-21.579,1.261-39.275-9.584"/>
<path fill="none" stroke="#000000" d="M87.553,122.405c-17.868-12.982-5.154-20.658-21.248-34.403"/>
<path fill="none" stroke="#000000" d="M122.424,87.582c-10.825-14.901-19.709-4.049-34.405-21.258"/>
<path fill="none" stroke="#000000" d="M122.425,87.582c-11.905-16.388,1.737-20.814-9.573-39.271"/>
<path fill="none" stroke="#000000" d="M166.331,65.208c-5.726-17.62-18.391-12.105-26.145-30.826"/>
<path fill="none" stroke="#000000" d="M166.332,65.209c-6.363-19.58,7.698-19.592,2.88-40.295"/>
<path fill="none" stroke="#000000" d="M66.305,88.002c28.9,24.684,37.554,15.857,10.43-11.267"/>
<path fill="none" stroke="#000000" d="M76.735,76.735c27.848,27.19,36.087,18.631,11.284-10.411"/>
<path fill="none" stroke="#000000" d="M112.852,48.311c19.854,32.398,31.078,25.965,13.646-7.627"/>
<path fill="none" stroke="#000000" d="M126.498,40.683c16.999,33.984,28.239,28.831,13.688-6.301"/>
<path fill="none" stroke="#000000" d="M29.07,154.588c36.14,11.742,42.571-5.575,8.531-21.783"/>
<path fill="none" stroke="#000000" d="M37.601,132.805c34.256,16.473,43.003-0.162,10.674-19.974"/>
<path fill="none" stroke="#000000" d="M169.211,24.915c9.017,36.92,26.817,33.803,22.339-4.047"/>
<path fill="none" stroke="#000000" d="M191.55,20.868c4.729,37.714,23.778,36.837,23.614-1.416"/>
<path fill="none" stroke="#000000" d="M170.537,276.2c22.552-31.04,31.965-65.262-24.503-83.609"/>
<line fill="none" stroke="#000000" x1="170.537" y1="276.2" x2="122.425" y2="342.419"/>
<path fill="none" stroke="#000000" d="M170.537,276.2c-27.43,37.754-46.77,5.11-82.974,31.401"/>
<path fill="none" stroke="#000000" d="M146.034,192.59C100.18,177.691,100.207,215,57.5,214.999"/>
<path fill="none" stroke="#000000" d="M87.554,307.595c66.234-48.122,54.368-68.851-22.343-43.926"/>
<path fill="none" stroke="#000000" d="M65.211,263.669c77.845-25.294,73.508-48.674-7.709-48.671"/>
<line fill="none" stroke="#000000" x1="122.425" y1="342.419" x2="100.09" y2="373.162"/>
<line fill="none" stroke="#000000" x1="87.563" y1="307.601" x2="56.895" y2="330.072"/>
<line fill="none" stroke="#000000" x1="65.211" y1="263.669" x2="29.06" y2="275.416"/>
<line fill="none" stroke="#000000" x1="57.5" y1="214.999" x2="19.496" y2="216.134"/>
<path fill="none" stroke="#000000" d="M87.563,307.601c-14.741,10.698-5.469,20.912-21.252,34.392"/>
<path fill="none" stroke="#000000" d="M87.554,307.595c-17.868,12.982-21.239-1.481-39.285,9.577"/>
<path fill="none" stroke="#000000" d="M65.211,263.669c-17.518,5.691-9.941,17.493-30.85,26.152"/>
<path fill="none" stroke="#000000" d="M65.211,263.669c-19.265,6.258-19.259-8.085-40.308-3.031"/>
<path fill="none" stroke="#000000" d="M57.5,214.999C38.973,215,40.305,228.75,20.104,230.337"/>
<path fill="none" stroke="#000000" d="M57.502,214.999c-20.589,0.001-16.255-13.376-37.434-15.19"/>
<path fill="none" stroke="#000000" d="M48.269,317.172c32.407-19.858,26.686-30.815-7.493-13.401"/>
<path fill="none" stroke="#000000" d="M40.776,303.771c34.466-18.082,28.871-28.563-6.414-13.949"/>
<path fill="none" stroke="#000000" d="M24.904,260.638c36.948-8.871,34.298-21.533-3.037-15.335"/>
<path fill="none" stroke="#000000" d="M21.867,245.303c37.574-5.665,36.146-17.947-1.763-14.966"/>
<path fill="none" stroke="#000000" d="M100.09,373.162c22.335-30.742,7.854-42.21-18.081-14.845"/>
<path fill="none" stroke="#000000" d="M82.009,358.317c26.252-27.489,13.134-40.948-15.698-16.324"/>
<path fill="none" stroke="#000000" d="M20.069,199.808c37.9,2.833,40.436-15.06,3.055-22.497"/>
<path fill="none" stroke="#000000" d="M23.124,177.312c37.329,7.157,42.382-11.231,5.95-22.896"/>
<path fill="none" stroke="#000000" d="M259.465,276.199c-22.553-31.04-52.19-50.567-87.09-2.533"/>
<line fill="none" stroke="#000000" x1="259.465" y1="276.199" x2="307.577" y2="342.418"/>
<path fill="none" stroke="#000000" d="M259.465,276.199c27.43,37.754-9.593,46.06,4.224,88.616"/>
<path fill="none" stroke="#000000" d="M172.375,273.666c-28.339,39.005,7.151,50.509-6.047,91.125"/>
<path fill="none" stroke="#000000" d="M263.681,364.822c-25.3-77.863-48.681-72.984-48.681,7.675"/>
<path fill="none" stroke="#000000" d="M215,372.497c0-81.851-23.576-84.951-48.671-7.708"/>
<line fill="none" stroke="#000000" x1="307.577" y1="342.418" x2="329.913" y2="373.16"/>
<line fill="none" stroke="#000000" x1="263.689" y1="364.815" x2="275.583" y2="400.925"/>
<line fill="none" stroke="#000000" x1="215" y1="372.497" x2="215" y2="410.508"/>
<line fill="none" stroke="#000000" x1="166.329" y1="364.791" x2="155.665" y2="401.286"/>
<path fill="none" stroke="#000000" d="M263.689,364.815c5.62,17.325,18.198,11.663,26.142,30.839"/>
<path fill="none" stroke="#000000" d="M263.681,364.822c6.825,21.005-7.973,19.741-3.031,40.321"/>
<path fill="none" stroke="#000000" d="M215,372.497c0,18.419,13.564,14.86,15.34,37.421"/>
<path fill="none" stroke="#000000" d="M215,372.497c-0.002,20.256-13.641,15.818-15.338,37.398"/>
<path fill="none" stroke="#000000" d="M166.329,364.791c-5.724,17.62,7.765,20.603,3.032,40.306"/>
<path fill="none" stroke="#000000" d="M166.33,364.789c-6.361,19.581-17.744,11.325-26.015,30.907"/>
<path fill="none" stroke="#000000" d="M260.65,405.143c-8.872-36.958-21.062-34.901-15.062,2.985"/>
<path fill="none" stroke="#000000" d="M245.588,408.128c-6.546-38.366-18.244-36.285-15.248,1.789"/>
<path fill="none" stroke="#000000" d="M199.663,409.895c2.98-37.882-9.881-39.273-15.523-1.851"/>
<path fill="none" stroke="#000000" d="M184.139,408.044c6.223-37.485-5.898-39.923-14.778-2.948"/>
<path fill="none" stroke="#000000" d="M329.913,373.16c-22.336-30.741-37.718-20.512-19.706,12.609"/>
<path fill="none" stroke="#000000" d="M310.207,385.769c-18.031-33.462-34.886-25.146-20.376,9.885"/>
<path fill="none" stroke="#000000" d="M140.315,395.696c14.406-35.17-1.827-43.11-20.451-9.857"/>
<path fill="none" stroke="#000000" d="M119.864,385.838c18.342-33.29,2.415-43.778-19.937-12.733"/>
<path fill="none" stroke="#000000" d="M286.945,191.622c-36.49,11.857-64.221,34.011-29.321,82.045"/>
<line fill="none" stroke="#000000" x1="286.945" y1="191.622" x2="364.791" y2="166.329"/>
<path fill="none" stroke="#000000" d="M286.945,191.622c44.382-14.42,40.841,23.356,85.584,23.367"/>
<path fill="none" stroke="#000000" d="M257.624,273.667c28.338,39.005,50.246,8.807,84.796,33.91"/>
<path fill="none" stroke="#000000" d="M372.533,214.999c-81.87,0.001-84.456,23.744-7.744,48.669"/>
<path fill="none" stroke="#000000" d="M364.789,263.667c-77.845-25.293-88.079-3.828-22.37,43.908"/>
<line fill="none" stroke="#000000" x1="364.791" y1="166.329" x2="400.929" y2="154.585"/>
<line fill="none" stroke="#000000" x1="372.529" y1="214.989" x2="410.547" y2="214.835"/>
<line fill="none" stroke="#000000" x1="364.789" y1="263.667" x2="400.94" y2="275.415"/>
<line fill="none" stroke="#000000" x1="342.419" y1="307.577" x2="373.833" y2="328.997"/>
<path fill="none" stroke="#000000" d="M372.529,214.989c18.214,0.009,16.716-13.703,37.407-15.332"/>
<path fill="none" stroke="#000000" d="M372.533,214.999c22.086,0,16.312,13.683,37.411,15.343"/>
<path fill="none" stroke="#000000" d="M364.789,263.667c17.518,5.692,18.325-8.308,40.329-3.024"/>
<path fill="none" stroke="#000000" d="M364.789,263.667c19.265,6.262,10.829,17.861,30.829,26.145"/>
<path fill="none" stroke="#000000" d="M342.419,307.577c14.989,10.889,21.994-1.019,39.271,9.571"/>
<path fill="none" stroke="#000000" d="M342.418,307.576c16.656,12.1,5.287,20.375,21.355,34.291"/>
<path fill="none" stroke="#000000" d="M409.944,230.341c-37.891-2.982-39.701,9.246-1.814,15.247"/>
<path fill="none" stroke="#000000" d="M408.129,245.588c-38.512-5.631-40.147,6.139-3.012,15.055"/>
<path fill="none" stroke="#000000" d="M395.618,289.812c-35.107-14.541-40.405-2.738-6.558,14.191"/>
<path fill="none" stroke="#000000" d="M389.06,304.003c-33.728-17.501-39.792-6.727-7.37,13.145"/>
<path fill="none" stroke="#000000" d="M400.929,154.585c-36.139,11.743-31.163,29.533,5.903,22.638"/>
<path fill="none" stroke="#000000" d="M406.833,177.224c-37.396,6.808-34.695,25.408,3.104,22.433"/>
<path fill="none" stroke="#000000" d="M363.774,341.867c-28.997-24.568-41.565-11.584-15.695,16.404"/>
<path fill="none" stroke="#000000" d="M348.079,358.271c-25.992-27.73-40.89-15.824-18.271,15.026"/>
<circle fill="#FF0000" stroke="#000000" cx="214.999" cy="19.501" r="4.5"/>
<circle fill="#FF0000" stroke="#000000" cx="238.352" cy="20.884" r="4.5"/>
<circle fill="#FF0000" stroke="#000000" cx="260.647" cy="24.862" r="4.5"/>
<circle fill="#FF0000" stroke="#000000" cx="275.272" cy="28.972" r="4.5"/>
<circle fill="#FF0000" stroke="#000000" cx="289.833" cy="34.338" r="4.5"/>
<circle fill="#FF0000" stroke="#000000" cx="303.771" cy="40.775" r="4.5"/>
<circle fill="#FF0000" stroke="#000000" cx="317.16" cy="48.29" r="4.5"/>
<circle fill="#FF0000" stroke="#000000" cx="329.917" cy="56.83" r="4.5"/>
<circle fill="#FF0000" stroke="#000000" cx="341.965" cy="66.342" r="4.5"/>
<circle fill="#FF0000" stroke="#000000" cx="353.436" cy="74.667" r="4.5"/>
<circle fill="#FF0000" stroke="#000000" cx="363.658" cy="88.033" r="4.5"/>
<circle fill="#FF0000" stroke="#000000" cx="372.499" cy="99.167" r="4.5"/>
<circle fill="#FF0000" stroke="#000000" cx="381.632" cy="112.712" r="4.5"/>
<circle fill="#FF0000" stroke="#000000" cx="392.384" cy="132.707" r="4.5"/>
<circle fill="#FF0000" stroke="#000000" cx="401.028" cy="154.728" r="4.5"/>
<circle fill="#FF0000" stroke="#000000" cx="406.833" cy="177.224" r="4.5"/>
<circle fill="#FF0000" stroke="#000000" cx="409.936" cy="199.657" r="4.5"/>
<circle fill="#FF0000" stroke="#000000" cx="29.07" cy="154.588" r="4.5"/>
<circle fill="#FF0000" stroke="#000000" cx="37.601" cy="132.805" r="4.5"/>
<circle fill="#FF0000" stroke="#000000" cx="48.274" cy="112.831" r="4.5"/>
<circle fill="#FF0000" stroke="#000000" cx="56.703" cy="100.192" r="4.5"/>
<circle fill="#FF0000" stroke="#000000" cx="66.305" cy="88.002" r="4.5"/>
<circle fill="#FF0000" stroke="#000000" cx="76.735" cy="76.735" r="4.5"/>
<circle fill="#FF0000" stroke="#000000" cx="88.019" cy="66.324" r="4.499"/>
<circle fill="#FF0000" stroke="#000000" cx="100.083" cy="56.83" r="4.5"/>
<circle fill="#FF0000" stroke="#000000" cx="112.852" cy="48.311" r="4.5"/>
<circle fill="#FF0000" stroke="#000000" cx="124.315" cy="39.974" r="4.5"/>
<circle fill="#FF0000" stroke="#000000" cx="140.186" cy="34.383" r="4.5"/>
<circle fill="#FF0000" stroke="#000000" cx="153.506" cy="29.415" r="4.5"/>
<circle fill="#FF0000" stroke="#000000" cx="169.211" cy="24.914" r="4.5"/>
<circle fill="#FF0000" stroke="#000000" cx="191.55" cy="20.867" r="4.5"/>
<circle fill="#FF0000" stroke="#000000" cx="215.165" cy="19.451" r="4.5"/>
<circle fill="#FF0000" stroke="#000000" cx="238.353" cy="20.883" r="4.5"/>
<circle fill="#FF0000" stroke="#000000" cx="260.647" cy="24.863" r="4.5"/>
<circle fill="#FF0000" stroke="#000000" cx="100.09" cy="373.161" r="4.5"/>
<circle fill="#FF0000" stroke="#000000" cx="82.009" cy="358.316" r="4.5"/>
<circle fill="#FF0000" stroke="#000000" cx="66.311" cy="341.994" r="4.5"/>
<circle fill="#FF0000" stroke="#000000" cx="56.895" cy="330.072" r="4.5"/>
<circle fill="#FF0000" stroke="#000000" cx="48.269" cy="317.172" r="4.5"/>
<circle fill="#FF0000" stroke="#000000" cx="40.776" cy="303.771" r="4.5"/>
<circle fill="#FF0000" stroke="#000000" cx="34.361" cy="289.823" r="4.499"/>
<circle fill="#FF0000" stroke="#000000" cx="29.06" cy="275.416" r="4.5"/>
<circle fill="#FF0000" stroke="#000000" cx="24.904" cy="260.638" r="4.5"/>
<circle fill="#FF0000" stroke="#000000" cx="20.517" cy="247.16" r="4.5"/>
<circle fill="#FF0000" stroke="#000000" cx="20.105" cy="230.338" r="4.5"/>
<circle fill="#FF0000" stroke="#000000" cx="19.496" cy="216.135" r="4.5"/>
<circle fill="#FF0000" stroke="#000000" cx="20.069" cy="199.807" r="4.5"/>
<circle fill="#FF0000" stroke="#000000" cx="23.123" cy="177.311" r="4.5"/>
<circle fill="#FF0000" stroke="#000000" cx="29.073" cy="154.415" r="4.5"/>
<circle fill="#FF0000" stroke="#000000" cx="37.6" cy="132.805" r="4.5"/>
<circle fill="#FF0000" stroke="#000000" cx="48.276" cy="112.831" r="4.5"/>
<circle fill="#FF0000" stroke="#000000" cx="329.912" cy="373.16" r="4.5"/>
<circle fill="#FF0000" stroke="#000000" cx="310.207" cy="385.769" r="4.5"/>
<circle fill="#FF0000" stroke="#000000" cx="289.831" cy="395.654" r="4.5"/>
<circle fill="#FF0000" stroke="#000000" cx="275.583" cy="400.925" r="4.5"/>
<circle fill="#FF0000" stroke="#000000" cx="260.649" cy="405.143" r="4.5"/>
<circle fill="#FF0000" stroke="#000000" cx="245.589" cy="408.128" r="4.499"/>
<circle fill="#FF0000" stroke="#000000" cx="230.341" cy="409.919" r="4.5"/>
<circle fill="#FF0000" stroke="#000000" cx="215" cy="410.508" r="4.5"/>
<circle fill="#FF0000" stroke="#000000" cx="199.662" cy="409.895" r="4.5"/>
<circle fill="#FF0000" stroke="#000000" cx="185.488" cy="409.902" r="4.499"/>
<circle fill="#FF0000" stroke="#000000" cx="169.362" cy="405.096" r="4.5"/>
<circle fill="#FF0000" stroke="#000000" cx="155.666" cy="401.286" r="4.5"/>
<circle fill="#FF0000" stroke="#000000" cx="140.314" cy="395.695" r="4.5"/>
<circle fill="#FF0000" stroke="#000000" cx="119.863" cy="385.839" r="4.5"/>
<circle fill="#FF0000" stroke="#000000" cx="99.926" cy="373.105" r="4.5"/>
<circle fill="#FF0000" stroke="#000000" cx="82.009" cy="358.317" r="4.5"/>
<circle fill="#FF0000" stroke="#000000" cx="66.311" cy="341.992" r="4.5"/>
<circle fill="#FF0000" stroke="#000000" cx="400.929" cy="154.586" r="4.5"/>
<circle fill="#FF0000" stroke="#000000" cx="406.832" cy="177.223" r="4.501"/>
<circle fill="#FF0000" stroke="#000000" cx="409.937" cy="199.656" r="4.499"/>
<circle fill="#FF0000" stroke="#000000" cx="410.547" cy="214.835" r="4.5"/>
<circle fill="#FF0000" stroke="#000000" cx="409.943" cy="230.342" r="4.501"/>
<circle fill="#FF0000" stroke="#000000" cx="408.129" cy="245.587" r="4.5"/>
<circle fill="#FF0000" stroke="#000000" cx="405.12" cy="260.643" r="4.5"/>
<path fill="#FF0000" stroke="#000000" d="M402.331,279.695c-2.363,0.768-4.902-0.526-5.67-2.891
	c-0.769-2.363,0.525-4.902,2.888-5.669c2.366-0.769,4.902,0.525,5.671,2.89C405.987,276.387,404.694,278.926,402.331,279.695z"/>
<circle fill="#FF0000" stroke="#000000" cx="395.617" cy="289.812" r="4.5"/>
<circle fill="#FF0000" stroke="#000000" cx="391.243" cy="303.294" r="4.499"/>
<circle fill="#FF0000" stroke="#000000" cx="381.69" cy="317.147" r="4.501"/>
<circle fill="#FF0000" stroke="#000000" cx="373.834" cy="328.996" r="4.499"/>
<circle fill="#FF0000" stroke="#000000" cx="363.773" cy="341.868" r="4.501"/>
<circle fill="#FF0000" stroke="#000000" cx="348.08" cy="358.272" r="4.5"/>
<circle fill="#FF0000" stroke="#000000" cx="329.808" cy="373.299" r="4.5"/>
<circle fill="#FF0000" stroke="#000000" cx="310.206" cy="385.769" r="4.5"/>
<circle fill="#FF0000" stroke="#000000" cx="289.83" cy="395.654" r="4.5"/>
</svg>
