<?xml version="1.0" encoding="utf-8"?>
<!-- Generator: Adobe Illustrator 15.1.0, SVG Export Plug-In . SVG Version: 6.00 Build 0)  -->
<!DOCTYPE svg PUBLIC "-//W3C//DTD SVG 1.1//EN" "http://www.w3.org/Graphics/SVG/1.1/DTD/svg11.dtd">
<svg version="1.1" id="Layer_1" xmlns="http://www.w3.org/2000/svg" xmlns:xlink="http://www.w3.org/1999/xlink" x="0px" y="0px"
	 width="432px" height="108px" viewBox="0 0 432 108" enable-background="new 0 0 432 108" xml:space="preserve">
<line fill="none" stroke="#0081CD" stroke-width="2" stroke-miterlimit="10" x1="36" y1="54" x2="36" y2="72"/>
<line fill="none" stroke="#0081CD" stroke-width="2" stroke-miterlimit="10" x1="0" y1="63" x2="432" y2="63"/>
<line fill="none" stroke="#0081CD" stroke-width="2" stroke-miterlimit="10" x1="396" y1="54" x2="396" y2="72"/>
<line fill="none" stroke="#0081CD" stroke-width="2" stroke-miterlimit="10" x1="324" y1="54" x2="324" y2="72"/>
<line fill="none" stroke="#0081CD" stroke-width="2" stroke-miterlimit="10" x1="252" y1="54" x2="252" y2="72"/>
<line fill="none" stroke="#0081CD" stroke-width="2" stroke-miterlimit="10" x1="180" y1="54" x2="180" y2="72"/>
<line fill="none" stroke="#0081CD" stroke-width="2" stroke-miterlimit="10" x1="108" y1="54" x2="108" y2="72"/>
<g enable-background="new    ">
	<path d="M109.154,82.986c0.004,0.02,0.006,0.064,0.006,0.135V97.23c0,0.602,0.161,0.984,0.483,1.148s0.922,0.262,1.802,0.293V99
		h-6.621v-0.352c0.945-0.047,1.562-0.176,1.852-0.387s0.434-0.668,0.434-1.371V86.039c0-0.375-0.047-0.66-0.141-0.855
		s-0.297-0.293-0.609-0.293c-0.203,0-0.467,0.057-0.791,0.17s-0.627,0.232-0.908,0.357V85.09l4.301-2.191h0.141
		C109.133,82.938,109.15,82.967,109.154,82.986z"/>
</g>
<g enable-background="new    ">
	<path d="M39.891,85.699c0.789,1.523,1.184,3.273,1.184,5.25c0,1.555-0.242,3.02-0.727,4.395c-0.914,2.586-2.496,3.879-4.746,3.879
		c-1.539,0-2.805-0.699-3.797-2.098c-1.062-1.492-1.594-3.52-1.594-6.082c0-2.016,0.355-3.75,1.066-5.203
		c0.961-1.977,2.438-2.965,4.43-2.965C37.504,82.875,38.898,83.816,39.891,85.699z M38.109,96.67
		c0.43-1.258,0.645-3.076,0.645-5.457c0-1.897-0.129-3.411-0.387-4.543c-0.484-2.108-1.391-3.162-2.719-3.162
		s-2.238,1.085-2.73,3.255c-0.258,1.155-0.387,2.678-0.387,4.567c0,1.771,0.133,3.188,0.398,4.25c0.5,1.983,1.438,2.975,2.812,2.975
		C36.891,98.555,37.68,97.926,38.109,96.67z"/>
</g>
<g enable-background="new    ">
	<path d="M174.715,98.73c2.859-2.967,4.801-5.145,5.824-6.534s1.535-2.744,1.535-4.062c0-1.155-0.312-2.035-0.938-2.641
		c-0.625-0.604-1.371-0.907-2.238-0.907c-1.07,0-1.938,0.391-2.602,1.171c-0.367,0.43-0.719,1.089-1.055,1.979l-0.504-0.105
		c0.391-1.796,1.053-3.043,1.986-3.742c0.934-0.698,1.936-1.048,3.006-1.048c1.32,0,2.389,0.416,3.205,1.247s1.225,1.849,1.225,3.05
		c0,1.28-0.441,2.514-1.325,3.7s-2.802,3.298-5.756,6.335h5.38c0.75,0,1.278-0.09,1.583-0.27c0.305-0.179,0.649-0.616,1.032-1.311
		l0.305,0.14L184.078,99h-9.363V98.73z"/>
</g>
<g enable-background="new    ">
	<path d="M249.568,97.635c0.707,0.449,1.307,0.674,1.799,0.674c1.094,0,1.906-0.37,2.438-1.109s0.797-1.543,0.797-2.412
		c0-0.837-0.215-1.572-0.645-2.206c-0.727-1.072-1.953-1.608-3.68-1.608c-0.102,0-0.199,0.002-0.293,0.006s-0.203,0.014-0.328,0.029
		l-0.023-0.305c1.25-0.453,2.234-0.973,2.953-1.559s1.078-1.359,1.078-2.32c0-0.852-0.283-1.5-0.85-1.945s-1.213-0.668-1.939-0.668
		c-0.859,0-1.617,0.316-2.273,0.949c-0.359,0.344-0.746,0.875-1.16,1.594l-0.363-0.082c0.312-1.188,0.895-2.137,1.746-2.848
		s1.836-1.066,2.953-1.066c1.195,0,2.119,0.328,2.771,0.984s0.979,1.414,0.979,2.273c0,0.758-0.27,1.453-0.809,2.086
		c-0.305,0.359-0.777,0.762-1.418,1.207c0.75,0.32,1.352,0.695,1.805,1.125c0.852,0.82,1.277,1.859,1.277,3.117
		c0,1.484-0.584,2.793-1.752,3.926s-2.83,1.699-4.986,1.699c-0.961,0-1.635-0.143-2.021-0.428s-0.58-0.592-0.58-0.92
		c0-0.203,0.064-0.398,0.193-0.586s0.338-0.281,0.627-0.281C248.293,96.961,248.861,97.186,249.568,97.635z"/>
</g>
<g enable-background="new    ">
	<path d="M325.77,82.898h1.113v10.547h2.449v1.559h-2.449V99h-1.863v-3.996h-6.75v-1.559L325.77,82.898z M324.996,85.317
		l-5.751,8.128h5.751V85.317z"/>
</g>
<g enable-background="new    ">
	<path d="M393.549,97.611c0.725,0.504,1.281,0.756,1.673,0.756c0.899,0,1.687-0.396,2.358-1.189c0.674-0.793,1.01-1.768,1.01-2.924
		c0-2.023-1.08-3.48-3.238-4.371c-1.197-0.492-2.312-0.738-3.346-0.738c-0.172,0-0.279-0.006-0.322-0.018s-0.096-0.053-0.158-0.123
		c0.016-0.062,0.029-0.115,0.041-0.158s0.025-0.084,0.041-0.123l2.556-5.602h5.024c0.25,0,0.443-0.043,0.58-0.129
		s0.314-0.246,0.533-0.48l0.188,0.164l-0.902,2.168c-0.031,0.07-0.117,0.115-0.258,0.135s-0.294,0.029-0.458,0.029h-4.54
		l-0.998,2.051c1.283,0.219,2.221,0.426,2.815,0.621c0.978,0.328,1.795,0.812,2.452,1.453c0.562,0.555,0.989,1.178,1.279,1.869
		c0.289,0.691,0.434,1.424,0.434,2.197c0,1.727-0.616,3.168-1.848,4.324c-1.232,1.156-2.791,1.734-4.676,1.734
		c-0.767,0-1.385-0.074-1.854-0.223c-0.783-0.242-1.174-0.676-1.174-1.301c0-0.234,0.084-0.439,0.252-0.615s0.429-0.264,0.781-0.264
		C392.24,96.855,392.825,97.107,393.549,97.611z"/>
</g>
<g>
	<path fill="none" stroke="#000000" stroke-width="3" stroke-miterlimit="10" d="M315,45c0,17.396,14.104,31.5,31.5,31.5
		S378,62.396,378,45"/>
	<path fill="none" stroke="#000000" stroke-width="3" stroke-miterlimit="10" d="M225,45c0,17.396,14.104,31.5,31.5,31.5
		S288,62.396,288,45"/>
	<path fill="none" stroke="#000000" stroke-width="3" stroke-miterlimit="10" d="M270,45c0,17.396,14.104,31.5,31.5,31.5
		S333,62.396,333,45"/>
	<line fill="none" stroke="#000000" stroke-width="3" stroke-miterlimit="10" x1="225" y1="44.5" x2="396" y2="44.5"/>
	<line fill="none" stroke="#000000" stroke-width="3" stroke-miterlimit="10" x1="147" y1="45.75" x2="36" y2="45"/>
	<path fill="none" stroke="#000000" stroke-width="3" stroke-miterlimit="10" d="M396,44c0-17.397-14.104-31.5-31.5-31.5
		S333,26.603,333,44"/>
	<path fill="none" stroke="#000000" stroke-width="3" stroke-miterlimit="10" d="M331.5,44c0-12.426-10.073-22.5-22.5-22.5
		c-12.426,0-22.5,10.074-22.5,22.5"/>
	<path fill="none" stroke="#000000" stroke-width="3" stroke-miterlimit="10" d="M147,45.25c0-17.397-14.103-31.5-31.5-31.5
		S84,27.853,84,45.25"/>
	<path fill="none" stroke="#000000" stroke-width="3" stroke-miterlimit="10" d="M315,44c0-12.426-10.073-22.5-22.5-22.5
		C280.074,21.5,270,31.574,270,44"/>
	<circle fill="#BC1E47" stroke="#000000" stroke-miterlimit="10" cx="36" cy="45" r="6"/>
	<circle fill="#BC1E47" stroke="#000000" stroke-miterlimit="10" cx="84" cy="45.75" r="6"/>
	<circle fill="#BC1E47" stroke="#000000" stroke-miterlimit="10" cx="120" cy="45.75" r="6"/>
	<circle fill="#BC1E47" stroke="#000000" stroke-miterlimit="10" cx="147" cy="45.75" r="6"/>
	<circle fill="#BC1E47" stroke="#000000" stroke-miterlimit="10" cx="225" cy="44.5" r="6"/>
	<circle fill="#BC1E47" stroke="#000000" stroke-miterlimit="10" cx="270" cy="44.5" r="6"/>
	<circle fill="#BC1E47" stroke="#000000" stroke-miterlimit="10" cx="288" cy="44.5" r="6"/>
	<circle fill="#BC1E47" stroke="#000000" stroke-miterlimit="10" cx="315" cy="44.5" r="6"/>
	<circle fill="#BC1E47" stroke="#000000" stroke-miterlimit="10" cx="333" cy="44.5" r="6"/>
	<circle fill="#BC1E47" stroke="#000000" stroke-miterlimit="10" cx="378" cy="44.5" r="6"/>
	<circle fill="#BC1E47" stroke="#000000" stroke-miterlimit="10" cx="396" cy="44.5" r="6"/>
</g>
</svg>
