<?xml version="1.0" encoding="utf-8"?>
<!-- Generator: Adobe Illustrator 15.1.0, SVG Export Plug-In . SVG Version: 6.00 Build 0)  -->
<!DOCTYPE svg PUBLIC "-//W3C//DTD SVG 1.1//EN" "http://www.w3.org/Graphics/SVG/1.1/DTD/svg11.dtd">
<svg version="1.1" id="Layer_1" xmlns="http://www.w3.org/2000/svg" xmlns:xlink="http://www.w3.org/1999/xlink" x="0px" y="0px"
	 width="538.473px" height="553.472px" viewBox="0 0 538.473 553.472" enable-background="new 0 0 538.473 553.472"
	 xml:space="preserve">
<line fill="none" stroke="#000000" stroke-width="3" stroke-miterlimit="10" x1="176.105" y1="324.865" x2="168.7" y2="17.068"/>
<circle fill="#FFFFFF" cx="173.637" cy="222.267" r="6"/>
<line fill="none" stroke="#009246" stroke-width="5" stroke-miterlimit="10" x1="294.916" y1="341.02" x2="370.647" y2="535.392"/>
<line fill="none" stroke="#0081CD" stroke-width="5" stroke-miterlimit="10" x1="246.281" y1="288.388" x2="176.105" y2="324.865"/>
<line fill="none" stroke="#000000" stroke-width="3" stroke-miterlimit="10" x1="331.604" y1="290.787" x2="517.392" y2="334.457"/>
<line fill="none" stroke="#000000" stroke-width="3" stroke-miterlimit="10" x1="329.752" y1="213.837" x2="509.986" y2="26.66"/>
<line fill="none" stroke="#009246" stroke-width="5" stroke-miterlimit="10" x1="244.431" y1="211.439" x2="168.7" y2="17.068"/>
<line fill="none" stroke="#000000" stroke-width="3" stroke-miterlimit="10" x1="29.361" y1="525.8" x2="209.595" y2="338.623"/>
<line fill="none" stroke="#0081CD" stroke-width="5" stroke-miterlimit="10" x1="331.604" y1="290.787" x2="329.752" y2="213.837"/>
<line fill="none" stroke="#000000" stroke-width="3" stroke-miterlimit="10" x1="246.281" y1="288.388" x2="244.431" y2="211.439"/>
<line fill="none" stroke="#009246" stroke-width="5" stroke-miterlimit="10" x1="294.916" y1="341.02" x2="209.595" y2="338.623"/>
<line fill="none" stroke="#0081CD" stroke-width="5" stroke-miterlimit="10" x1="246.281" y1="288.388" x2="331.604" y2="290.787"/>
<line fill="none" stroke="#000000" stroke-width="3" stroke-miterlimit="10" x1="293.066" y1="264.07" x2="207.744" y2="261.673"/>
<line fill="none" stroke="#0081CD" stroke-width="5" stroke-miterlimit="10" x1="329.752" y1="213.837" x2="293.066" y2="264.07"/>
<line fill="none" stroke="#000000" stroke-width="3" stroke-miterlimit="10" x1="244.431" y1="211.439" x2="329.752" y2="213.837"/>
<line fill="none" stroke="#009246" stroke-width="5" stroke-miterlimit="10" x1="207.744" y1="261.673" x2="244.431" y2="211.439"/>
<line fill="none" stroke="#009246" stroke-width="5" stroke-miterlimit="10" x1="517.392" y1="334.457" x2="509.986" y2="26.66"/>
<line fill="none" stroke="#0081CD" stroke-width="5" stroke-miterlimit="10" x1="29.361" y1="525.8" x2="21.955" y2="218.003"/>
<line fill="none" stroke="#000000" stroke-width="3" stroke-miterlimit="10" x1="370.647" y1="535.392" x2="29.361" y2="525.8"/>
<line fill="none" stroke="#009246" stroke-width="5" stroke-miterlimit="10" x1="517.392" y1="334.457" x2="370.647" y2="535.392"/>
<line fill="none" stroke="#000000" stroke-width="3" stroke-miterlimit="10" x1="176.105" y1="324.865" x2="517.392" y2="334.457"/>
<line fill="none" stroke="#0081CD" stroke-width="5" stroke-miterlimit="10" x1="29.361" y1="525.8" x2="176.105" y2="324.865"/>
<line fill="none" stroke="#000000" stroke-width="3" stroke-miterlimit="10" x1="509.986" y1="26.66" x2="363.241" y2="227.595"/>
<line fill="none" stroke="#009246" stroke-width="5" stroke-miterlimit="10" x1="168.7" y1="17.068" x2="509.986" y2="26.66"/>
<line fill="none" stroke="#000000" stroke-width="3" stroke-miterlimit="10" x1="21.955" y1="218.003" x2="168.7" y2="17.068"/>
<path fill="none" stroke="#000000" stroke-width="3" stroke-miterlimit="10" d="M121.637,160.996"/>
<circle fill="#FFFFFF" cx="174.396" cy="253.835" r="6"/>
<circle fill="#FFFFFF" cx="235.258" cy="223.998" r="6"/>
<circle fill="#FFFFFF" cx="245.356" cy="224.282" r="6"/>
<circle fill="#FFFFFF" cx="320.75" cy="226.164" r="6"/>
<circle fill="#FFFFFF" cx="330.061" cy="226.663" r="6"/>
<circle fill="#FFFFFF" cx="330.678" cy="244.521" r="6"/>
<circle fill="#FFFFFF" cx="293.683" cy="289.72" r="6"/>
<circle fill="#FFFFFF" cx="207.744" cy="308.419" r="6"/>
<circle fill="#FFFFFF" cx="209.596" cy="325.806" r="6"/>
<circle fill="#FFFFFF" cx="218.598" cy="326.059" r="6"/>
<circle fill="#FFFFFF" cx="294.607" cy="328.195" r="6"/>
<circle fill="#FFFFFF" cx="303.92" cy="328.195" r="6"/>
<circle fill="#FFFFFF" cx="365.71" cy="330.194" r="6"/>
<circle fill="#FFFFFF" cx="364.95" cy="298.625" r="6"/>
<line fill="none" stroke="#000000" stroke-width="3" stroke-miterlimit="10" x1="21.955" y1="218.003" x2="207.744" y2="261.673"/>
<line fill="none" stroke="#000000" stroke-width="3" stroke-miterlimit="10" x1="294.916" y1="341.02" x2="293.066" y2="264.07"/>
<line fill="none" stroke="#009246" stroke-width="5" stroke-miterlimit="10" x1="209.595" y1="338.623" x2="207.744" y2="261.673"/>
<line fill="none" stroke="#0081CD" stroke-width="5" stroke-miterlimit="10" x1="363.241" y1="227.595" x2="21.955" y2="218.003"/>
<line fill="none" stroke="#0081CD" stroke-width="5" stroke-miterlimit="10" x1="293.066" y1="264.07" x2="363.241" y2="227.595"/>
<line fill="none" stroke="#000000" stroke-width="3" stroke-miterlimit="10" x1="209.595" y1="338.623" x2="246.281" y2="288.388"/>
<line fill="none" stroke="#000000" stroke-width="3" stroke-miterlimit="10" x1="331.604" y1="290.787" x2="294.916" y2="341.02"/>
<line fill="none" stroke="#000000" stroke-width="3" stroke-miterlimit="10" x1="370.647" y1="535.392" x2="363.241" y2="227.595"/>
<circle fill="#BC1E47" stroke="#231F20" stroke-miterlimit="10" cx="207.744" cy="261.672" r="9.9"/>
<circle fill="#BC1E47" stroke="#231F20" stroke-miterlimit="10" cx="293.065" cy="264.071" r="9.9"/>
<circle fill="#BC1E47" stroke="#231F20" stroke-miterlimit="10" cx="244.43" cy="211.439" r="8.91"/>
<circle fill="#BC1E47" stroke="#231F20" stroke-miterlimit="10" cx="329.752" cy="213.837" r="8.909"/>
<circle fill="#BC1E47" stroke="#231F20" stroke-miterlimit="10" cx="209.596" cy="338.623" r="9"/>
<circle fill="#BC1E47" stroke="#231F20" stroke-miterlimit="10" cx="294.917" cy="341.02" r="9"/>
<circle fill="#BC1E47" stroke="#231F20" stroke-miterlimit="10" cx="246.282" cy="288.389" r="8.101"/>
<circle fill="#BC1E47" stroke="#231F20" stroke-miterlimit="10" cx="331.603" cy="290.787" r="8.1"/>
<circle fill="#BC1E47" stroke="#231F20" stroke-miterlimit="10" cx="21.954" cy="218.004" r="11.25"/>
<circle fill="#BC1E47" stroke="#231F20" stroke-miterlimit="10" cx="363.242" cy="227.595" r="11.25"/>
<circle fill="#BC1E47" stroke="#231F20" stroke-miterlimit="10" cx="168.7" cy="17.068" r="8.168"/>
<circle fill="#BC1E47" stroke="#231F20" stroke-miterlimit="10" cx="509.986" cy="26.659" r="8.169"/>
<circle fill="#BC1E47" stroke="#231F20" stroke-miterlimit="10" cx="29.36" cy="525.801" r="10.125"/>
<path fill="#BC1E47" stroke="#231F20" stroke-miterlimit="10" d="M380.364,532.552c1.571,5.367-1.509,10.988-6.878,12.56
	c-5.366,1.569-10.988-1.512-12.557-6.881c-1.571-5.366,1.51-10.99,6.879-12.559C373.175,524.106,378.798,527.183,380.364,532.552z"
	/>
<circle fill="#BC1E47" stroke="#231F20" stroke-miterlimit="10" cx="176.107" cy="324.865" r="6.075"/>
<circle fill="#BC1E47" stroke="#231F20" stroke-miterlimit="10" cx="517.393" cy="334.457" r="6.075"/>
</svg>
