<?xml version="1.0" encoding="utf-8"?>
<!-- Generator: Adobe Illustrator 15.1.0, SVG Export Plug-In . SVG Version: 6.00 Build 0)  -->
<!DOCTYPE svg PUBLIC "-//W3C//DTD SVG 1.1//EN" "http://www.w3.org/Graphics/SVG/1.1/DTD/svg11.dtd">
<svg version="1.1" id="Layer_1" xmlns="http://www.w3.org/2000/svg" xmlns:xlink="http://www.w3.org/1999/xlink" x="0px" y="0px"
	 width="324px" height="468px" viewBox="0 0 324 468" enable-background="new 0 0 324 468" xml:space="preserve">
<line fill="none" stroke="#000000" stroke-width="3" stroke-miterlimit="10" x1="18" y1="18" x2="306" y2="378"/>
<circle fill="#FFFFFF" cx="162" cy="198" r="6"/>
<line fill="none" stroke="#000000" stroke-width="3" stroke-miterlimit="10" x1="18" y1="18" x2="162" y2="162"/>
<line fill="none" stroke="#000000" stroke-width="3" stroke-miterlimit="10" x1="162" y1="162" x2="306" y2="90"/>
<line fill="none" stroke="#000000" stroke-width="3" stroke-miterlimit="10" x1="162" y1="162" x2="162" y2="306"/>
<line fill="none" stroke="#000000" stroke-width="3" stroke-miterlimit="10" x1="18" y1="450" x2="162" y2="306"/>
<line fill="none" stroke="#000000" stroke-width="3" stroke-miterlimit="10" x1="162" y1="306" x2="306" y2="378"/>
<line fill="none" stroke="#000000" stroke-width="3" stroke-miterlimit="10" x1="306" y1="90" x2="306" y2="378"/>
<line fill="none" stroke="#000000" stroke-width="3" stroke-miterlimit="10" x1="18" y1="18" x2="18" y2="450"/>
<line fill="none" stroke="#009246" stroke-width="5" stroke-miterlimit="10" x1="306" y1="378" x2="162" y2="162"/>
<line fill="none" stroke="#0081CD" stroke-width="5" stroke-miterlimit="10" x1="18" y1="18" x2="162" y2="306"/>
<line fill="none" stroke="#0081CD" stroke-width="5" stroke-miterlimit="10" x1="306" y1="90" x2="18" y2="18"/>
<line fill="none" stroke="#009246" stroke-width="5" stroke-miterlimit="10" x1="306" y1="378" x2="18" y2="450"/>
<circle fill="#FFFFFF" cx="126" cy="234" r="6"/>
<circle fill="#FFFFFF" cx="150.923" cy="184.154" r="6"/>
<circle fill="#FFFFFF" cx="190.8" cy="234" r="6"/>
<circle fill="#FFFFFF" cx="199.8" cy="218.699" r="6"/>
<circle fill="#FFFFFF" cx="212" cy="234" r="6"/>
<circle fill="#FFFFFF" cx="201.273" cy="247.09" r="6"/>
<circle fill="#FFFFFF" cx="162" cy="270" r="6"/>
<circle fill="#FFFFFF" cx="150.923" cy="283.846" r="6"/>
<line fill="none" stroke="#009246" stroke-width="5" stroke-miterlimit="10" x1="18" y1="450" x2="162" y2="162"/>
<line fill="none" stroke="#0081CD" stroke-width="5" stroke-miterlimit="10" x1="162" y1="306" x2="306" y2="90"/>
<line fill="none" stroke="#000000" stroke-width="3" stroke-miterlimit="10" x1="18" y1="450" x2="306" y2="90"/>
<circle fill="#BC1E47" stroke="#231F20" stroke-miterlimit="10" cx="18" cy="18" r="7.65"/>
<circle fill="#BC1E47" stroke="#231F20" stroke-miterlimit="10" cx="306" cy="90" r="11.25"/>
<circle fill="#BC1E47" stroke="#231F20" stroke-miterlimit="10" cx="162" cy="162" r="9"/>
<circle fill="#BC1E47" stroke="#231F20" stroke-miterlimit="10" cx="162" cy="306" r="9"/>
<circle fill="#BC1E47" stroke="#231F20" stroke-miterlimit="10" cx="306" cy="378" r="7.65"/>
<circle fill="#BC1E47" stroke="#231F20" stroke-miterlimit="10" cx="18" cy="450" r="11.25"/>
</svg>
