<?xml version="1.0" encoding="utf-8"?>
<!-- Generator: Adobe Illustrator 15.1.0, SVG Export Plug-In . SVG Version: 6.00 Build 0)  -->
<!DOCTYPE svg PUBLIC "-//W3C//DTD SVG 1.1//EN" "http://www.w3.org/Graphics/SVG/1.1/DTD/svg11.dtd">
<svg version="1.1" id="Layer_1" xmlns="http://www.w3.org/2000/svg" xmlns:xlink="http://www.w3.org/1999/xlink" x="0px" y="0px"
	 width="765px" height="531px" viewBox="0 0 765 531" enable-background="new 0 0 765 531" xml:space="preserve">
<line fill="none" stroke="#000000" stroke-width="3" x1="54" y1="405" x2="162" y2="342"/>
<line fill="none" stroke="#000000" stroke-width="3" x1="54" y1="342" x2="162" y2="405"/>
<line fill="none" stroke="#000000" stroke-width="3" x1="108" y1="306" x2="108" y2="441"/>
<polygon fill="none" stroke="#000000" stroke-width="3" points="108,306 54,342 54,405 108,441 162,405 162,342 "/>
<polygon fill="#F7931E" points="288,396 288,477 234,513 225,513 225,432 279,396 "/>
<circle fill="#F7931E" cx="351" cy="477" r="18"/>
<circle fill="#F7931E" cx="54" cy="342" r="18"/>
<circle fill="#F7931E" cx="162" cy="342" r="18"/>
<circle fill="#F7931E" cx="108" cy="441" r="18"/>
<circle fill="#F7931E" cx="306" cy="432" r="18"/>
<polygon fill="#00FFFF" points="369,432 369,513 378,513 432,477 432,396 423,396 "/>
<circle fill="#00FFFF" cx="306" cy="504" r="18"/>
<circle fill="#00FFFF" cx="351" cy="405" r="18"/>
<circle fill="#00FFFF" cx="108" cy="306" r="18"/>
<circle fill="#00FFFF" cx="54" cy="405" r="18"/>
<circle fill="#00FFFF" cx="162" cy="405" r="18"/>
<g>
	<line fill="none" stroke="#000000" x1="53.999" y1="207" x2="98.999" y2="180"/>
	<rect x="53.999" y="135" fill="#998675" stroke="#000000" width="72" height="72"/>
	<polygon fill="#736357" stroke="#000000" points="125.999,135 171,108 171,180 125.999,207 	"/>
	<polygon fill="#C7B299" stroke="#000000" points="53.999,135 99,108 171,108 125.999,135 	"/>
</g>
<g>
	<line fill="none" stroke="#000000" x1="170.999" y1="108" x2="215.999" y2="81"/>
	<rect x="170.999" y="36.001" fill="#998675" stroke="#000000" width="72" height="72"/>
	<polygon fill="#736357" stroke="#000000" points="242.999,36.001 288,9 288,81 242.999,108 	"/>
	<polygon fill="#C7B299" stroke="#000000" points="170.999,36.001 216,9 288,9 242.999,36.001 	"/>
</g>
<g>
	<line fill="none" stroke="#000000" x1="242.999" y1="180" x2="287.999" y2="153"/>
	<rect x="242.999" y="108.001" fill="#998675" stroke="#000000" width="72" height="72"/>
	<polygon fill="#736357" stroke="#000000" points="314.999,108.001 360,81 360,153 314.999,180 	"/>
	<polygon fill="#C7B299" stroke="#000000" points="242.999,108.001 288,81 360,81 314.999,108.001 	"/>
</g>
<g>
	<line fill="none" stroke="#000000" x1="242.999" y1="108" x2="287.999" y2="81"/>
	<rect x="242.999" y="36.001" fill="#998675" stroke="#000000" width="72" height="72"/>
	<polygon fill="#736357" stroke="#000000" points="314.999,36.001 360,9 360,81 314.999,108 	"/>
	<polygon fill="#C7B299" stroke="#000000" points="242.999,36.001 288,9 360,9 314.999,36.001 	"/>
</g>
<g>
	<line fill="none" stroke="#000000" x1="197.999" y1="207" x2="242.999" y2="180"/>
	<rect x="197.999" y="135" fill="#998675" stroke="#000000" width="72" height="72"/>
	<polygon fill="#736357" stroke="#000000" points="269.999,135 315,108 315,180 269.999,207 	"/>
	<polygon fill="#C7B299" stroke="#000000" points="197.999,135 243,108 315,108 269.999,135 	"/>
</g>
<g>
	<rect x="405" y="162" fill="none" stroke="#000000" width="72" height="72"/>
	<rect x="450" y="135" fill="none" stroke="#000000" width="72" height="72"/>
	<line fill="none" stroke="#000000" x1="405" y1="162" x2="450" y2="135"/>
	<line fill="none" stroke="#000000" x1="477" y1="162" x2="522" y2="135"/>
	<line fill="none" stroke="#000000" x1="477" y1="234" x2="522" y2="207"/>
	<line fill="none" stroke="#000000" x1="405" y1="234" x2="450" y2="207"/>
</g>
<g>
	<rect x="450" y="135" fill="none" stroke="#000000" width="72" height="72"/>
	<rect x="495" y="108" fill="none" stroke="#000000" width="72" height="72"/>
	<line fill="none" stroke="#000000" x1="450" y1="135" x2="495" y2="108"/>
	<line fill="none" stroke="#000000" x1="522" y1="135" x2="567" y2="108"/>
	<line fill="none" stroke="#000000" x1="522" y1="207" x2="567" y2="180"/>
	<line fill="none" stroke="#000000" x1="450" y1="207" x2="495" y2="180"/>
</g>
<g>
	<rect x="477" y="162" fill="none" stroke="#000000" width="72" height="72"/>
	<rect x="522" y="135" fill="none" stroke="#000000" width="72" height="72"/>
	<line fill="none" stroke="#000000" x1="477" y1="162" x2="522" y2="135"/>
	<line fill="none" stroke="#000000" x1="549" y1="162" x2="594" y2="135"/>
	<line fill="none" stroke="#000000" x1="549" y1="234" x2="594" y2="207"/>
	<line fill="none" stroke="#000000" x1="477" y1="234" x2="522" y2="207"/>
</g>
<g>
	<rect x="549" y="162" fill="none" stroke="#000000" width="72" height="72"/>
	<rect x="594" y="135" fill="none" stroke="#000000" width="72" height="72"/>
	<line fill="none" stroke="#000000" x1="549" y1="162" x2="594" y2="135"/>
	<line fill="none" stroke="#000000" x1="621" y1="162" x2="666" y2="135"/>
	<line fill="none" stroke="#000000" x1="621" y1="234" x2="666" y2="207"/>
	<line fill="none" stroke="#000000" x1="549" y1="234" x2="594" y2="207"/>
</g>
<g>
	<rect x="594" y="135" fill="none" stroke="#000000" width="72" height="72"/>
	<rect x="639" y="108" fill="none" stroke="#000000" width="72" height="72"/>
	<line fill="none" stroke="#000000" x1="594" y1="135" x2="639" y2="108"/>
	<line fill="none" stroke="#000000" x1="666" y1="135" x2="711" y2="108"/>
	<line fill="none" stroke="#000000" x1="666" y1="207" x2="711" y2="180"/>
	<line fill="none" stroke="#000000" x1="594" y1="207" x2="639" y2="180"/>
</g>
<g>
	<rect x="639" y="108" fill="none" stroke="#000000" width="72" height="72"/>
	<rect x="684" y="81" fill="none" stroke="#000000" width="72" height="72"/>
	<line fill="none" stroke="#000000" x1="639" y1="108" x2="684" y2="81"/>
	<line fill="none" stroke="#000000" x1="711" y1="108" x2="756" y2="81"/>
	<line fill="none" stroke="#000000" x1="711" y1="180" x2="756" y2="153"/>
	<line fill="none" stroke="#000000" x1="639" y1="180" x2="684" y2="153"/>
</g>
<g>
	<rect x="639" y="36" fill="none" stroke="#000000" width="72" height="72"/>
	<rect x="684" y="9" fill="none" stroke="#000000" width="72" height="72"/>
	<line fill="none" stroke="#000000" x1="639" y1="36" x2="684" y2="9"/>
	<line fill="none" stroke="#000000" x1="711" y1="36" x2="756" y2="9"/>
	<line fill="none" stroke="#000000" x1="711" y1="108" x2="756" y2="81"/>
	<line fill="none" stroke="#000000" x1="639" y1="108" x2="684" y2="81"/>
</g>
<g>
	<rect x="567" y="36" fill="none" stroke="#000000" width="72" height="72"/>
	<rect x="612" y="9" fill="none" stroke="#000000" width="72" height="72"/>
	<line fill="none" stroke="#000000" x1="567" y1="36" x2="612" y2="9"/>
	<line fill="none" stroke="#000000" x1="639" y1="36" x2="684" y2="9"/>
	<line fill="none" stroke="#000000" x1="639" y1="108" x2="684" y2="81"/>
	<line fill="none" stroke="#000000" x1="567" y1="108" x2="612" y2="81"/>
</g>
<g>
	<line fill="none" stroke="#000000" x1="513" y1="423" x2="513" y2="495"/>
	<line fill="none" stroke="#000000" x1="558" y1="396" x2="558" y2="468"/>
	<line fill="none" stroke="#000000" x1="513" y1="423" x2="558" y2="396"/>
	<line fill="none" stroke="#000000" x1="513" y1="495" x2="558" y2="468"/>
</g>
<g>
	<line fill="none" stroke="#000000" x1="558" y1="396" x2="558" y2="468"/>
	<line fill="none" stroke="#000000" x1="603" y1="369" x2="603" y2="441"/>
	<line fill="none" stroke="#000000" x1="558" y1="468" x2="603" y2="441"/>
</g>
<g>
	<rect x="513" y="423" fill="none" stroke="#000000" width="72" height="72"/>
	<rect x="558" y="396" fill="none" stroke="#000000" width="72" height="72"/>
	<line fill="none" stroke="#000000" x1="513" y1="423" x2="558" y2="396"/>
	<line fill="none" stroke="#000000" x1="585" y1="423" x2="630" y2="396"/>
	<line fill="none" stroke="#000000" x1="585" y1="495" x2="630" y2="468"/>
	<line fill="none" stroke="#000000" x1="513" y1="495" x2="558" y2="468"/>
</g>
<g>
	<rect x="585" y="423" fill="none" stroke="#000000" width="72" height="72"/>
	<rect x="630" y="396" fill="none" stroke="#000000" width="72" height="72"/>
	<line fill="none" stroke="#000000" x1="585" y1="423" x2="630" y2="396"/>
	<line fill="none" stroke="#000000" x1="657" y1="423" x2="702" y2="396"/>
	<line fill="none" stroke="#000000" x1="657" y1="495" x2="702" y2="468"/>
	<line fill="none" stroke="#000000" x1="585" y1="495" x2="630" y2="468"/>
</g>
<g>
	<rect x="630" y="396" fill="none" stroke="#000000" width="72" height="72"/>
	<line fill="none" stroke="#000000" x1="702" y1="396" x2="747" y2="369"/>
</g>
<g>
	<polyline fill="none" stroke="#000000" points="675,297 747,297 747,369 	"/>
	<line fill="none" stroke="#000000" x1="720" y1="342" x2="720" y2="270"/>
	<line fill="none" stroke="#000000" x1="675" y1="297" x2="720" y2="270"/>
</g>
<g>
	<polyline fill="none" stroke="#000000" points="720,270 720,342 648,342 	"/>
	<line fill="none" stroke="#000000" x1="675" y1="297" x2="720" y2="270"/>
	<line fill="none" stroke="#000000" x1="603" y1="369" x2="648" y2="342"/>
</g>
<g>
	<line fill="none" stroke="#000000" x1="234" y1="432" x2="234" y2="504"/>
	<line fill="none" stroke="#000000" x1="279" y1="405" x2="279" y2="477"/>
	<line fill="none" stroke="#000000" x1="234" y1="432" x2="279" y2="405"/>
	<line fill="none" stroke="#000000" x1="234" y1="504" x2="279" y2="477"/>
</g>
<g>
	<line fill="none" stroke="#000000" x1="279" y1="405" x2="279" y2="477"/>
	<line fill="none" stroke="#000000" x1="324" y1="378" x2="324" y2="450"/>
	<line fill="none" stroke="#000000" x1="279" y1="477" x2="324" y2="450"/>
</g>
<g>
	<polyline fill="none" stroke="#000000" points="306,432 306,504 234,504 234,432 	"/>
	<polyline fill="none" stroke="#000000" points="279,477 279,405 351,405 351,477 	"/>
	<line fill="none" stroke="#000000" x1="234" y1="432" x2="279" y2="405"/>
	<line fill="none" stroke="#000000" x1="306" y1="432" x2="351" y2="405"/>
	<line fill="none" stroke="#000000" x1="306" y1="504" x2="351" y2="477"/>
	<line fill="none" stroke="#000000" x1="234" y1="504" x2="279" y2="477"/>
</g>
<g>
	<polyline fill="none" stroke="#000000" points="306,504 306,432 378,432 378,504 	"/>
	<polyline fill="none" stroke="#000000" points="423,405 423,477 351,477 351,405 	"/>
	<line fill="none" stroke="#000000" x1="306" y1="432" x2="351" y2="405"/>
	<line fill="none" stroke="#000000" x1="378" y1="432" x2="423" y2="405"/>
	<line fill="none" stroke="#000000" x1="378" y1="504" x2="423" y2="477"/>
	<line fill="none" stroke="#000000" x1="306" y1="504" x2="351" y2="477"/>
</g>
<g>
	<polyline fill="none" stroke="#000000" points="423,405 423,477 351,477 351,405 	"/>
	<line fill="none" stroke="#000000" x1="423" y1="405" x2="468" y2="378"/>
</g>
<g>
	<polyline fill="none" stroke="#000000" points="396,306 468,306 468,378 	"/>
	<line fill="none" stroke="#000000" x1="441" y1="351" x2="441" y2="279"/>
	<line fill="none" stroke="#000000" x1="396" y1="306" x2="441" y2="279"/>
</g>
<g>
	<polyline fill="none" stroke="#000000" points="441,279 441,351 369,351 	"/>
	<line fill="none" stroke="#000000" x1="396" y1="306" x2="441" y2="279"/>
	<line fill="none" stroke="#000000" x1="324" y1="378" x2="369" y2="351"/>
</g>
<g>
	<line fill="none" stroke="#000000" x1="9" y1="234" x2="54" y2="207"/>
	<rect x="9" y="162" fill="#998675" stroke="#000000" width="72" height="72"/>
	<polygon fill="#736357" stroke="#000000" points="81,162 126,135 126,207 81,234 	"/>
	<polygon fill="#C7B299" stroke="#000000" points="9,162 54,135 126,135 81,162 	"/>
</g>
<g>
	<line fill="none" stroke="#000000" x1="81" y1="234" x2="126" y2="207"/>
	<rect x="81" y="162" fill="#998675" stroke="#000000" width="72" height="72"/>
	<polygon fill="#736357" stroke="#000000" points="153,162 198,135 198,207 153,234 	"/>
	<polygon fill="#C7B299" stroke="#000000" points="81,162 126,135 198,135 153,162 	"/>
</g>
<g>
	<line fill="none" stroke="#000000" x1="153" y1="234" x2="198" y2="207"/>
	<rect x="153" y="162" fill="#998675" stroke="#000000" width="72" height="72"/>
	<polygon fill="#736357" stroke="#000000" points="225,162 270,135 270,207 225,234 	"/>
	<polygon fill="#C7B299" stroke="#000000" points="153,162 198,135 270,135 225,162 	"/>
</g>
<g>
	<g>
		<line fill="none" stroke="#00FF00" stroke-width="10" x1="369" y1="108" x2="405" y2="108"/>
		<path fill="#00FF00" d="M426.123,108c-9.939,3.688-22.271,9.98-29.914,16.642l6.02-16.642l-6.02-16.642
			C403.851,98.02,416.183,104.314,426.123,108z"/>
	</g>
</g>
<g>
	<g>
		<line fill="none" stroke="#00FF00" stroke-width="10" x1="648" y1="243" x2="648" y2="288"/>
		<path fill="#00FF00" d="M648,309.124c-3.688-9.939-9.98-22.271-16.643-29.914l16.643,6.02l16.643-6.02
			C657.98,286.852,651.686,299.184,648,309.124z"/>
	</g>
</g>
<g>
	<g>
		<line fill="none" stroke="#00FF00" stroke-width="10" x1="540" y1="369" x2="504" y2="369"/>
		<path fill="#00FF00" d="M482.876,369c9.939-3.688,22.271-9.98,29.914-16.643L506.771,369l6.02,16.642
			C505.148,378.981,492.816,372.687,482.876,369z"/>
	</g>
</g>
<g>
	<g>
		<line fill="none" stroke="#00FF00" stroke-width="10" x1="288" y1="369" x2="234" y2="369"/>
		<path fill="#00FF00" d="M212.876,369c9.939-3.688,22.271-9.98,29.914-16.643L236.771,369l6.019,16.642
			C235.148,378.981,222.816,372.687,212.876,369z"/>
	</g>
</g>
</svg>
