<?xml version="1.0" encoding="utf-8"?>
<!-- Generator: Adobe Illustrator 15.1.0, SVG Export Plug-In . SVG Version: 6.00 Build 0)  -->
<!DOCTYPE svg PUBLIC "-//W3C//DTD SVG 1.1//EN" "http://www.w3.org/Graphics/SVG/1.1/DTD/svg11.dtd">
<svg version="1.1" id="Layer_1" xmlns="http://www.w3.org/2000/svg" xmlns:xlink="http://www.w3.org/1999/xlink" x="0px" y="0px"
	 width="944.5px" height="432px" viewBox="-512.5 0 944.5 432" enable-background="new -512.5 0 944.5 432" xml:space="preserve">
<line fill="none" stroke="#000000" stroke-width="2" x1="-414" y1="261" x2="-495" y2="342"/>
<line fill="none" stroke="#000000" stroke-width="2" x1="-324" y1="261" x2="-243" y2="342"/>
<line fill="none" stroke="#000000" stroke-width="2" x1="-243" y1="90" x2="-324" y2="171"/>
<line fill="none" stroke="#000000" stroke-width="2" x1="-495" y1="90" x2="-414" y2="171"/>
<rect x="-414" y="171" fill="none" stroke="#000000" stroke-width="2" width="90" height="90"/>
<rect x="-495" y="90" fill="none" stroke="#000000" stroke-width="2" width="252" height="252"/>
<g>
	<path fill="#FEC200" d="M147.367,195.713c-40.978,11.848-68.195,50.607-65.427,93.174C32.426,269.789,4.057,217.611,14.949,165.67
		c12.27-58.513,69.65-96,128.164-83.729c42.566-2.768,81.326,24.449,93.174,65.427c-18.064-2.76-36.177,4.68-47.087,19.34
		c-4.087,10.596-5.021,22.146-2.69,33.26C173.676,197.012,160.537,195.583,147.367,195.713z"/>
	<path fill="#FEC200" d="M350.06,143.113c49.516,19.098,77.884,71.275,66.991,123.217c-12.27,58.514-69.65,96-128.164,83.73
		c-42.566,2.768-81.326-24.449-93.174-65.428c18.064,2.76,36.177-4.68,47.087-19.34c4.087-10.596,5.021-22.146,2.69-33.26
		c12.834,2.955,25.973,4.385,39.143,4.254C325.61,224.439,352.828,185.68,350.06,143.113z"/>
	<path fill="#FEC200" d="M241.235,208.541c8.599-5.691,16.651-12.166,24.058-19.341c-10.596-4.087-22.146-5.021-33.26-2.69
		c-8.061-0.523-16.127,0.938-23.492,4.255c4.958,4.301,9.436,9.126,13.354,14.392c2.097,5.438,3.751,11.035,4.948,16.739
		C232.109,217.977,236.935,213.499,241.235,208.541"/>
	<path fill="#FEC200" d="M199.967,245.49c-11.113,2.33-22.664,1.396-33.26-2.689c7.406-7.176,15.459-13.65,24.058-19.342
		c4.301-4.958,9.126-9.436,14.392-13.354c1.197,5.704,2.852,11.302,4.948,16.739c3.919,5.266,8.396,10.092,13.354,14.393
		C216.094,244.553,208.027,246.014,199.967,245.49z"/>
</g>
<g>
	<path fill="#0081CD" d="M236.287,147.368c-11.848-40.978-50.607-68.195-93.174-65.427c19.098-49.515,71.275-77.884,123.217-66.992
		c58.513,12.271,96,69.651,83.729,128.165c2.768,42.566-24.449,81.326-65.427,93.174c2.76-18.064-4.68-36.177-19.34-47.087
		c-10.596-4.086-22.146-5.021-33.26-2.69C234.988,173.676,236.417,160.537,236.287,147.368z"/>
	<path fill="#0081CD" d="M288.887,350.06c-19.098,49.516-71.275,77.884-123.217,66.991c-58.513-12.27-96-69.65-83.729-128.164
		c-2.769-42.566,24.449-81.326,65.427-93.174c-2.76,18.064,4.68,36.177,19.34,47.087c10.596,4.087,22.146,5.021,33.26,2.69
		c-2.955,12.834-4.384,25.973-4.254,39.143C207.561,325.61,246.32,352.828,288.887,350.06z"/>
	<path fill="#0081CD" d="M223.459,241.235c5.691,8.599,12.166,16.651,19.341,24.058c4.087-10.596,5.021-22.146,2.69-33.26
		c0.523-8.061-0.938-16.127-4.255-23.492c-4.301,4.958-9.126,9.436-14.392,13.354c-5.438,2.097-11.035,3.751-16.739,4.948
		C214.023,232.109,218.501,236.935,223.459,241.235"/>
	<path fill="#0081CD" d="M186.51,199.967c-2.33-11.114-1.396-22.665,2.69-33.259c7.175,7.405,13.649,15.458,19.341,24.057
		c4.958,4.301,9.436,9.126,13.354,14.392c-5.704,1.197-11.302,2.852-16.739,4.948c-5.266,3.919-10.091,8.396-14.392,13.354
		C187.447,216.094,185.986,208.027,186.51,199.967z"/>
</g>
<g>
	<path fill="none" stroke="#000000" stroke-width="2" d="M195.712,284.633c18.065,2.76,36.177-4.68,47.087-19.34"/>
	<path fill="none" stroke="#000000" stroke-width="2" d="M195.712,284.633c11.848,40.978,50.608,68.195,93.174,65.427"/>
	<path fill="none" stroke="#000000" stroke-width="2" d="M208.541,190.765c-5.691-8.599-12.165-16.652-19.34-24.057"/>
	<path fill="none" stroke="#000000" stroke-width="2" d="M208.541,190.765c-1.823,6.306-2.958,12.79-3.384,19.34"/>
	<path fill="none" stroke="#000000" stroke-width="2" d="M208.541,190.765c-7.985,1.22-15.55,4.379-22.03,9.202"/>
	<path fill="none" stroke="#000000" stroke-width="2" d="M288.887,350.06c58.513,12.271,115.895-25.217,128.164-83.729
		c10.893-51.941-17.477-104.119-66.991-123.217"/>
	<line fill="none" stroke="#000000" stroke-width="2" x1="288.887" y1="350.06" x2="242.8" y2="265.293"/>
	<path fill="none" stroke="#000000" stroke-width="2" d="M288.887,350.06c25.466-34.22,23.696-81.549-4.254-113.772"/>
	<line fill="none" stroke="#000000" stroke-width="2" x1="350.06" y1="143.113" x2="265.293" y2="189.2"/>
	<path fill="none" stroke="#000000" stroke-width="2" d="M350.06,143.113C362.33,84.6,324.843,27.219,266.33,14.949
		C214.389,4.057,162.211,32.425,143.113,81.94"/>
	<path fill="none" stroke="#000000" stroke-width="2" d="M350.06,143.113c-34.221-25.466-81.549-23.696-113.772,4.254"/>
	<path fill="none" stroke="#000000" stroke-width="2" d="M199.967,245.49c8.061,0.523,16.127-0.938,23.492-4.255"/>
	<line fill="none" stroke="#000000" stroke-width="2" x1="199.967" y1="245.49" x2="210.104" y2="226.844"/>
	<path fill="none" stroke="#000000" stroke-width="2" d="M199.967,245.49c-2.956,12.834-4.384,25.973-4.254,39.143"/>
	<path fill="none" stroke="#000000" stroke-width="2" d="M189.2,166.708c-4.086,10.595-5.021,22.146-2.69,33.259"/>
	<path fill="none" stroke="#000000" stroke-width="2" d="M189.2,166.708c-18.236,1.186-34.327,12.343-41.833,29.005"/>
	<path fill="none" stroke="#000000" stroke-width="2" d="M232.033,186.51c-8.061-0.524-16.127,0.937-23.493,4.254"/>
	<line fill="none" stroke="#000000" stroke-width="2" x1="232.033" y1="186.51" x2="221.896" y2="205.157"/>
	<path fill="none" stroke="#000000" stroke-width="2" d="M232.033,186.51c2.955-12.834,4.384-25.973,4.254-39.143"/>
	<path fill="none" stroke="#000000" stroke-width="2" d="M265.293,189.2c-10.596-4.086-22.146-5.021-33.26-2.69"/>
	<path fill="none" stroke="#000000" stroke-width="2" d="M265.293,189.2c-1.187-18.236-12.344-34.327-29.006-41.833"/>
	<path fill="none" stroke="#000000" stroke-width="2" d="M143.113,81.94C84.6,69.67,27.219,107.157,14.949,165.67
		C4.057,217.611,32.425,269.789,81.94,288.887"/>
	<line fill="none" stroke="#000000" stroke-width="2" x1="143.113" y1="81.94" x2="189.2" y2="166.708"/>
	<path fill="none" stroke="#000000" stroke-width="2" d="M143.113,81.94c-25.466,34.22-23.696,81.549,4.254,113.772"/>
	<path fill="none" stroke="#000000" stroke-width="2" d="M236.287,147.368c-18.064-2.76-36.177,4.68-47.087,19.34"/>
	<path fill="none" stroke="#000000" stroke-width="2" d="M236.287,147.368c-11.848-40.978-50.608-68.195-93.174-65.427"/>
	<path fill="none" stroke="#000000" stroke-width="2" d="M210.104,226.844c3.919,5.266,8.396,10.091,13.354,14.392"/>
	<path fill="none" stroke="#000000" stroke-width="2" d="M210.104,226.844c5.704-1.197,11.302-2.852,16.739-4.948"/>
	<path fill="none" stroke="#000000" stroke-width="2" d="M81.94,288.887C69.67,347.4,107.157,404.781,165.67,417.051
		c51.941,10.893,104.119-17.476,123.216-66.991"/>
	<line fill="none" stroke="#000000" stroke-width="2" x1="81.94" y1="288.887" x2="166.708" y2="242.8"/>
	<path fill="none" stroke="#000000" stroke-width="2" d="M81.94,288.887c34.22,25.466,81.549,23.696,113.772-4.254"/>
	<path fill="none" stroke="#000000" stroke-width="2" d="M245.49,232.033c0.523-8.061-0.938-16.127-4.255-23.493"/>
	<line fill="none" stroke="#000000" stroke-width="2" x1="245.49" y1="232.033" x2="226.844" y2="221.896"/>
	<path fill="none" stroke="#000000" stroke-width="2" d="M245.49,232.033c12.834,2.955,25.973,4.384,39.143,4.254"/>
	<line fill="none" stroke="#000000" stroke-width="2" x1="186.51" y1="199.967" x2="205.157" y2="210.104"/>
	<path fill="none" stroke="#000000" stroke-width="2" d="M186.51,199.967c-0.524,8.061,0.937,16.127,4.254,23.492"/>
	<path fill="none" stroke="#000000" stroke-width="2" d="M186.51,199.967c-12.834-2.956-25.973-4.384-39.143-4.254"/>
	<path fill="none" stroke="#000000" stroke-width="2" d="M242.8,265.293c4.087-10.596,5.021-22.146,2.69-33.26"/>
	<path fill="none" stroke="#000000" stroke-width="2" d="M242.8,265.293c18.235-1.187,34.327-12.344,41.833-29.006"/>
	<path fill="none" stroke="#000000" stroke-width="2" d="M223.459,241.235c5.691,8.599,12.166,16.651,19.341,24.058"/>
	<path fill="none" stroke="#000000" stroke-width="2" d="M223.459,241.235c1.824-6.306,2.958-12.79,3.385-19.34"/>
	<path fill="none" stroke="#000000" stroke-width="2" d="M223.459,241.235c7.986-1.22,15.551-4.38,22.031-9.202"/>
	<path fill="none" stroke="#000000" stroke-width="2" d="M190.765,223.459c1.22,7.986,4.379,15.551,9.202,22.031"/>
	<path fill="none" stroke="#000000" stroke-width="2" d="M190.765,223.459c6.306,1.824,12.79,2.958,19.34,3.385"/>
	<path fill="none" stroke="#000000" stroke-width="2" d="M190.765,223.459c-8.599,5.691-16.652,12.166-24.057,19.341"/>
	<path fill="none" stroke="#000000" stroke-width="2" d="M166.708,242.8c10.595,4.087,22.146,5.021,33.259,2.69"/>
	<path fill="none" stroke="#000000" stroke-width="2" d="M166.708,242.8c1.186,18.235,12.343,34.327,29.005,41.833"/>
	<path fill="none" stroke="#000000" stroke-width="2" d="M221.896,205.157c-5.704,1.196-11.301,2.851-16.739,4.948"/>
	<path fill="none" stroke="#000000" stroke-width="2" d="M221.896,205.157c-3.919-5.266-8.396-10.091-13.355-14.392"/>
	<path fill="none" stroke="#000000" stroke-width="2" d="M284.633,236.287c2.76-18.064-4.68-36.177-19.34-47.087"/>
	<path fill="none" stroke="#000000" stroke-width="2" d="M284.633,236.287c40.978-11.848,68.194-50.607,65.427-93.174"/>
	<path fill="none" stroke="#000000" stroke-width="2" d="M147.368,195.712c-40.978,11.848-68.195,50.608-65.427,93.174"/>
	<path fill="none" stroke="#000000" stroke-width="2" d="M147.368,195.712c-2.76,18.065,4.68,36.177,19.34,47.087"/>
	<path fill="none" stroke="#000000" stroke-width="2" d="M226.844,221.896c5.266-3.919,10.091-8.396,14.392-13.355"/>
	<path fill="none" stroke="#000000" stroke-width="2" d="M226.844,221.896c-1.197-5.704-2.852-11.301-4.948-16.739"/>
	<path fill="none" stroke="#000000" stroke-width="2" d="M241.235,208.541c8.599-5.691,16.651-12.165,24.058-19.34"/>
	<path fill="none" stroke="#000000" stroke-width="2" d="M241.235,208.541c-6.306-1.823-12.79-2.958-19.34-3.384"/>
	<path fill="none" stroke="#000000" stroke-width="2" d="M241.235,208.541c-1.22-7.985-4.38-15.55-9.202-22.03"/>
	<path fill="none" stroke="#000000" stroke-width="2" d="M205.157,210.104c-5.266,3.919-10.091,8.396-14.392,13.354"/>
	<path fill="none" stroke="#000000" stroke-width="2" d="M205.157,210.104c1.196,5.704,2.851,11.302,4.948,16.739"/>
</g>
<g>
	<circle fill="#BC1E47" stroke="#000000" cx="81.94" cy="288.887" r="4"/>
	<circle fill="#BC1E47" stroke="#000000" cx="189.2" cy="166.708" r="4"/>
	<circle fill="#BC1E47" stroke="#000000" cx="205.157" cy="210.104" r="4"/>
	<circle fill="#BC1E47" stroke="#000000" cx="199.967" cy="245.49" r="4"/>
	<circle fill="#BC1E47" stroke="#000000" cx="223.459" cy="241.235" r="4"/>
	<circle fill="#BC1E47" stroke="#000000" cx="190.765" cy="223.459" r="4"/>
	<circle fill="#BC1E47" stroke="#000000" cx="208.541" cy="190.765" r="4"/>
	<circle fill="#BC1E47" stroke="#000000" cx="241.235" cy="208.541" r="4"/>
	<circle fill="#BC1E47" stroke="#000000" cx="265.293" cy="189.2" r="4"/>
	<circle fill="#BC1E47" stroke="#000000" cx="221.896" cy="205.157" r="4"/>
	<circle fill="#BC1E47" stroke="#000000" cx="186.51" cy="199.967" r="4"/>
	<circle fill="#BC1E47" stroke="#000000" cx="143.113" cy="81.94" r="4"/>
	<circle fill="#BC1E47" stroke="#000000" cx="232.033" cy="186.51" r="4"/>
	<circle fill="#BC1E47" stroke="#000000" cx="350.06" cy="143.113" r="4"/>
	<circle fill="#BC1E47" stroke="#000000" cx="242.8" cy="265.293" r="4"/>
	<circle fill="#BC1E47" stroke="#000000" cx="226.844" cy="221.896" r="4"/>
	<circle fill="#BC1E47" stroke="#000000" cx="210.104" cy="226.844" r="4"/>
	<circle fill="#BC1E47" stroke="#000000" cx="245.49" cy="232.033" r="4"/>
	<circle fill="#BC1E47" stroke="#000000" cx="288.887" cy="350.06" r="4"/>
	<circle fill="#BC1E47" stroke="#000000" cx="166.708" cy="242.8" r="4"/>
	<circle fill="#BC1E47" stroke="#000000" cx="147.368" cy="195.712" r="4"/>
	<circle fill="#BC1E47" stroke="#000000" cx="195.712" cy="284.633" r="4"/>
	<circle fill="#BC1E47" stroke="#000000" cx="284.633" cy="236.287" r="4"/>
	<circle fill="#BC1E47" stroke="#000000" cx="236.287" cy="147.368" r="4"/>
</g>
<circle fill="#0081CD" stroke="#000000" cx="-414" cy="171" r="9"/>
<circle fill="#0081CD" stroke="#000000" cx="-324" cy="261" r="9"/>
<circle fill="#FEC200" stroke="#000000" cx="-324" cy="171" r="9"/>
<circle fill="#FEC200" stroke="#000000" cx="-414" cy="261" r="9"/>
<circle fill="#FEC200" stroke="#000000" cx="-495" cy="90" r="9"/>
<circle fill="#FEC200" stroke="#000000" cx="-243" cy="342" r="9"/>
<circle fill="#0081CD" stroke="#000000" cx="-243" cy="90" r="9"/>
<circle fill="#0081CD" stroke="#000000" cx="-495" cy="342" r="9"/>
<g>
	<g>
		<line fill="none" stroke="#009246" stroke-width="10" x1="-171" y1="216" x2="-75.176" y2="216"/>
		<g>
			<path fill="#009246" d="M-45,216c-14.199,5.269-31.816,14.258-42.737,23.779L-79.136,216l-8.601-23.774
				C-76.816,201.747-59.199,210.736-45,216z"/>
		</g>
	</g>
</g>
</svg>
