<svg xmlns="http://www.w3.org/2000/svg" width="540" height="468">
    <g fill="none" stroke="#000" stroke-width="2">
        <path d="M162 90h216l-144 72-72 72L18 90l216-72-72 72z"/>
        <path d="M234 18l216 72-72 72H234"/>
        <path d="M378 162v72L522 18M378 90l-72 144v72h-72v-72l72-72m-72 72l-72-72V90"/>
        <path d="M18 90l72 288 432 72V18L234 90M90 378l144-72"/>
        <path d="M162 234v72l-72-72-72 216h504M90 234l72-72"/>
        <path d="M162 306l144 72v-72"/>
        <path d="M306 234l144 144-432 72m432-72V90M306 378l72-144"/>
        <g fill="#0081cd">
            <circle cx="522" cy="450" r="9"/>
            <circle cx="234" cy="18" r="9"/>
            <circle cx="162" cy="90" r="9"/>
            <circle cx="234" cy="90" r="9"/>
            <circle cx="378" cy="90" r="9"/>
            <circle cx="234" cy="162" r="9"/>
            <circle cx="162" cy="234" r="9"/>
            <circle cx="18" cy="90" r="9"/>
            <circle cx="90" cy="378" r="9"/>
            <circle cx="162" cy="162" r="9"/>
            <circle cx="234" cy="234" r="9"/>
            <circle cx="306" cy="162" r="9"/>
            <circle cx="378" cy="162" r="9"/>
            <circle cx="378" cy="234" r="9"/>
            <circle cx="306" cy="234" r="9"/>
            <circle cx="306" cy="306" r="9"/>
            <circle cx="234" cy="306" r="9"/>
            <circle cx="162" cy="306" r="9"/>
            <circle cx="90" cy="234" r="9"/>
            <circle cx="306" cy="378" r="9"/>
            <circle cx="18" cy="450" r="9"/>
            <circle cx="450" cy="378" r="9"/>
            <circle cx="522" cy="18" r="9"/>
            <circle cx="450" cy="90" r="9"/>
        </g>
    </g>
</svg>
