<?xml version="1.0" encoding="utf-8"?>
<!-- Generator: Adobe Illustrator 15.1.0, SVG Export Plug-In . SVG Version: 6.00 Build 0)  -->
<!DOCTYPE svg PUBLIC "-//W3C//DTD SVG 1.1//EN" "http://www.w3.org/Graphics/SVG/1.1/DTD/svg11.dtd">
<svg version="1.1" id="Layer_1" xmlns="http://www.w3.org/2000/svg" xmlns:xlink="http://www.w3.org/1999/xlink" x="0px" y="0px"
	 width="523.333px" height="415.333px" viewBox="170.833 4.333 523.333 415.333"
	 enable-background="new 170.833 4.333 523.333 415.333" xml:space="preserve">
<polyline fill="none" stroke="#8C8C8C" points="482.265,81.792 459.385,103.583 436.435,111.684 "/>
<polyline fill="none" stroke="#000000" stroke-width="2" points="175.5,360.004 459,90.004 688.5,9 "/>
<line fill="none" stroke="#8C8C8C" x1="688.5" y1="9" x2="175.5" y2="360.004"/>
<line fill="none" stroke="#000000" stroke-width="2" x1="459" y1="414.004" x2="459" y2="90.004"/>
<polyline fill="none" stroke="#000000" stroke-width="2" points="482.265,81.792 482.265,114.192 459.314,122.293 "/>
<line fill="none" stroke="#000000" stroke-width="2" x1="688.5" y1="9" x2="459" y2="414.004"/>
<line fill="none" stroke="#000000" stroke-width="2" x1="175.5" y1="360.004" x2="459" y2="414.004"/>
<polyline fill="none" stroke="#8C8C8C" points="473.672,388.843 445.321,383.443 430.65,409.333 "/>
<polyline fill="none" stroke="#000000" stroke-width="2" points="459,382.333 430.65,376.934 430.65,409.333 "/>
<text transform="matrix(1 0 0 1 302.8335 406.333)" font-family="'Times-Italic'" font-size="24">a</text>
<text transform="matrix(1 0 0 1 466.3379 238.333)" font-family="'Times-Italic'" font-size="24">b</text>
<text transform="matrix(1 0 0 1 554.1592 45.5698)" font-family="'Times-Italic'" font-size="24">c</text>
<text transform="matrix(1 0 0 1 248.8335 183.8359)"><tspan x="0" y="0" font-family="'Times-Roman'" font-size="24">(</tspan><tspan x="7.992" y="0" font-family="'Times-Italic'" font-size="24">a</tspan><tspan x="19.992" y="-7" font-family="'Times-Roman'" font-size="18">2</tspan><tspan x="28.992" y="0" font-family="'Times-Roman'" font-size="24"> + </tspan><tspan x="54.527" y="0" font-family="'Times-Italic'" font-size="24">b</tspan><tspan x="66.527" y="-7" font-family="'Times-Roman'" font-size="18">2</tspan><tspan x="75.527" y="0" font-family="'Times-Roman'" font-size="24">)</tspan><tspan x="83.52" y="-7" font-family="'Times-Roman'" font-size="18">1/2</tspan></text>
<text transform="matrix(1 0 0 1 582.833 211.502)"><tspan x="0" y="0" font-family="'Times-Roman'" font-size="24">(</tspan><tspan x="7.992" y="0" font-family="'Times-Italic'" font-size="24">b</tspan><tspan x="19.992" y="-7" font-family="'Times-Roman'" font-size="18">2</tspan><tspan x="28.992" y="0" font-family="'Times-Roman'" font-size="24"> + </tspan><tspan x="54.527" y="0" font-family="'Times-Italic'" font-size="24">c</tspan><tspan x="65.18" y="-7" font-family="'Times-Roman'" font-size="18">2</tspan><tspan x="74.18" y="0" font-family="'Times-Roman'" font-size="24">)</tspan><tspan x="82.172" y="-7" font-family="'Times-Roman'" font-size="18">1/2</tspan></text>
<text transform="matrix(1 0 0 1 270.5396 312.6113)"><tspan x="0" y="0" font-family="'Times-Roman'" font-size="24">(</tspan><tspan x="7.992" y="0" font-family="'Times-Italic'" font-size="24">a</tspan><tspan x="19.992" y="-7" font-family="'Times-Roman'" font-size="18">2</tspan><tspan x="28.992" y="0" font-family="'Times-Roman'" font-size="24"> + </tspan><tspan x="54.527" y="0" font-family="'Times-Italic'" font-size="24">b</tspan><tspan x="66.527" y="-7" font-family="'Times-Roman'" font-size="18">2</tspan><tspan x="75.527" y="0" font-family="'Times-Roman'" font-size="24"> + </tspan><tspan x="101.062" y="0" font-family="'Times-Italic'" font-size="24">c</tspan><tspan x="111.715" y="-7" font-family="'Times-Roman'" font-size="18">2</tspan><tspan x="120.715" y="0" font-family="'Times-Roman'" font-size="24">)</tspan><tspan x="128.707" y="-7" font-family="'Times-Roman'" font-size="18">1/2</tspan></text>
</svg>
