<?xml version="1.0" encoding="utf-8"?>
<!-- Generator: Adobe Illustrator 15.1.0, SVG Export Plug-In . SVG Version: 6.00 Build 0)  -->
<!DOCTYPE svg PUBLIC "-//W3C//DTD SVG 1.1//EN" "http://www.w3.org/Graphics/SVG/1.1/DTD/svg11.dtd">
<svg version="1.1" id="Layer_1" xmlns="http://www.w3.org/2000/svg" xmlns:xlink="http://www.w3.org/1999/xlink" x="0px" y="0px"
	 width="810px" height="216px" viewBox="0 0 810 216" enable-background="new 0 0 810 216" xml:space="preserve">
<line fill="none" stroke="#FEC200" stroke-miterlimit="10" x1="612" y1="0" x2="612" y2="216"/>
<line fill="none" stroke="#FEC200" stroke-miterlimit="10" x1="648" y1="0" x2="648" y2="216"/>
<line fill="none" stroke="#FEC200" stroke-miterlimit="10" x1="684" y1="0" x2="684" y2="216"/>
<line fill="none" stroke="#FEC200" stroke-miterlimit="10" x1="720" y1="0" x2="720" y2="216"/>
<line fill="none" stroke="#FEC200" stroke-miterlimit="10" x1="756" y1="0" x2="756" y2="216"/>
<line fill="none" stroke="#FEC200" stroke-miterlimit="10" x1="792" y1="0" x2="792" y2="216"/>
<line fill="none" stroke="#FEC200" stroke-miterlimit="10" x1="594" y1="198" x2="810" y2="198"/>
<line fill="none" stroke="#FEC200" stroke-miterlimit="10" x1="594" y1="162" x2="810" y2="162"/>
<line fill="none" stroke="#FEC200" stroke-miterlimit="10" x1="594" y1="126" x2="810" y2="126"/>
<line fill="none" stroke="#FEC200" stroke-miterlimit="10" x1="594" y1="90" x2="810" y2="90"/>
<line fill="none" stroke="#FEC200" stroke-miterlimit="10" x1="594" y1="54" x2="810" y2="54"/>
<line fill="none" stroke="#FEC200" stroke-miterlimit="10" x1="594" y1="18" x2="810" y2="18"/>
<line fill="none" stroke="#FEC200" stroke-miterlimit="10" x1="36" y1="18" x2="36" y2="198"/>
<line fill="none" stroke="#FEC200" stroke-miterlimit="10" x1="72" y1="18" x2="72" y2="198"/>
<line fill="none" stroke="#FEC200" stroke-miterlimit="10" x1="108" y1="18" x2="108" y2="198"/>
<line fill="none" stroke="#FEC200" stroke-miterlimit="10" x1="144" y1="18" x2="144" y2="198"/>
<line fill="none" stroke="#FEC200" stroke-miterlimit="10" x1="180" y1="18" x2="180" y2="198"/>
<line fill="none" stroke="#FEC200" stroke-miterlimit="10" x1="18" y1="180" x2="198" y2="180"/>
<line fill="none" stroke="#FEC200" stroke-miterlimit="10" x1="18" y1="144" x2="198" y2="144"/>
<line fill="none" stroke="#FEC200" stroke-miterlimit="10" x1="18" y1="108" x2="198" y2="108"/>
<line fill="none" stroke="#FEC200" stroke-miterlimit="10" x1="18" y1="72" x2="198" y2="72"/>
<line fill="none" stroke="#FEC200" stroke-miterlimit="10" x1="18" y1="36" x2="198" y2="36"/>
<line fill="none" stroke="#000000" stroke-width="2" stroke-miterlimit="10" x1="36" y1="18" x2="36" y2="108"/>
<line fill="none" stroke="#000000" stroke-width="2" stroke-miterlimit="10" x1="18" y1="108" x2="108" y2="108"/>
<line fill="none" stroke="#000000" stroke-width="2" stroke-miterlimit="10" x1="108" y1="144" x2="108" y2="36"/>
<line fill="none" stroke="#000000" stroke-width="2" stroke-miterlimit="10" x1="36" y1="36" x2="144" y2="36"/>
<line fill="none" stroke="#000000" stroke-width="2" stroke-miterlimit="10" x1="144" y1="72" x2="144" y2="18"/>
<line fill="none" stroke="#000000" stroke-width="2" stroke-miterlimit="10" x1="108" y1="72" x2="198" y2="72"/>
<line fill="none" stroke="#000000" stroke-width="2" stroke-miterlimit="10" x1="180" y1="72" x2="180" y2="180"/>
<line fill="none" stroke="#000000" stroke-width="2" stroke-miterlimit="10" x1="180" y1="144" x2="72" y2="144"/>
<line fill="none" stroke="#000000" stroke-width="2" stroke-miterlimit="10" x1="72" y1="108" x2="72" y2="198"/>
<line fill="none" stroke="#000000" stroke-width="2" stroke-miterlimit="10" x1="72" y1="180" x2="18" y2="180"/>
<line fill="none" stroke="#000000" stroke-width="2" stroke-miterlimit="10" x1="36" y1="180" x2="36" y2="198"/>
<line fill="none" stroke="#000000" stroke-width="2" stroke-miterlimit="10" x1="144" y1="144" x2="144" y2="198"/>
<line fill="none" stroke="#000000" stroke-width="2" stroke-miterlimit="10" x1="144" y1="180" x2="198" y2="180"/>
<circle fill="#BC1E47" stroke="#000000" stroke-miterlimit="10" cx="36" cy="36" r="4.5"/>
<circle fill="#BC1E47" stroke="#000000" stroke-miterlimit="10" cx="108" cy="36" r="4.5"/>
<circle fill="#BC1E47" stroke="#000000" stroke-miterlimit="10" cx="144" cy="36" r="4.5"/>
<circle fill="#BC1E47" stroke="#000000" stroke-miterlimit="10" cx="108" cy="72" r="4.5"/>
<circle fill="#BC1E47" stroke="#000000" stroke-miterlimit="10" cx="144" cy="72" r="4.5"/>
<circle fill="#BC1E47" stroke="#000000" stroke-miterlimit="10" cx="180" cy="72" r="4.5"/>
<circle fill="#BC1E47" stroke="#000000" stroke-miterlimit="10" cx="108" cy="108" r="4.5"/>
<circle fill="#BC1E47" stroke="#000000" stroke-miterlimit="10" cx="72" cy="108" r="4.5"/>
<circle fill="#BC1E47" stroke="#000000" stroke-miterlimit="10" cx="36" cy="108" r="4.5"/>
<circle fill="#BC1E47" stroke="#000000" stroke-miterlimit="10" cx="72" cy="144" r="4.5"/>
<circle fill="#BC1E47" stroke="#000000" stroke-miterlimit="10" cx="108" cy="144" r="4.5"/>
<circle fill="#BC1E47" stroke="#000000" stroke-miterlimit="10" cx="144" cy="144" r="4.5"/>
<circle fill="#BC1E47" stroke="#000000" stroke-miterlimit="10" cx="180" cy="144" r="4.5"/>
<circle fill="#BC1E47" stroke="#000000" stroke-miterlimit="10" cx="180" cy="180" r="4.5"/>
<circle fill="#BC1E47" stroke="#000000" stroke-miterlimit="10" cx="144" cy="180" r="4.5"/>
<circle fill="#BC1E47" stroke="#000000" stroke-miterlimit="10" cx="72" cy="180" r="4.5"/>
<circle fill="#BC1E47" stroke="#000000" stroke-miterlimit="10" cx="36" cy="180" r="4.5"/>
<line fill="none" stroke="#000000" stroke-width="2" stroke-miterlimit="10" x1="180" y1="108" x2="198" y2="108"/>
<line fill="none" stroke="#000000" stroke-width="2" stroke-miterlimit="10" x1="36" y1="72" x2="18" y2="72"/>
<line fill="none" stroke="#000000" stroke-width="2" stroke-miterlimit="10" x1="72" y1="36" x2="72" y2="18"/>
<circle fill="#BC1E47" stroke="#000000" stroke-miterlimit="10" cx="180" cy="108" r="4.5"/>
<circle fill="#BC1E47" stroke="#000000" stroke-miterlimit="10" cx="36" cy="72" r="4.5"/>
<circle fill="#BC1E47" stroke="#000000" stroke-miterlimit="10" cx="72" cy="36" r="4.5"/>
<line fill="none" stroke="#000000" stroke-width="2" stroke-miterlimit="10" x1="594" y1="18" x2="684" y2="18"/>
<line fill="none" stroke="#000000" stroke-width="2" stroke-miterlimit="10" x1="612" y1="0" x2="612" y2="90"/>
<polyline fill="none" stroke="#000000" stroke-width="2" stroke-miterlimit="10" points="684,0 684,54 756,54 756,0 "/>
<polyline fill="none" stroke="#000000" stroke-width="2" stroke-miterlimit="10" points="594,90 648,90 648,162 594,162 "/>
<polyline fill="none" stroke="#000000" stroke-width="2" stroke-miterlimit="10" points="684,216 684,198 756,198 756,216 "/>
<polyline fill="none" stroke="#000000" stroke-width="2" stroke-miterlimit="10" points="810,162 792,162 792,90 810,90 "/>
<line fill="none" stroke="#000000" stroke-width="2" stroke-miterlimit="10" x1="756" y1="54" x2="792" y2="90"/>
<line fill="none" stroke="#000000" stroke-width="2" stroke-miterlimit="10" x1="684" y1="54" x2="648" y2="90"/>
<line fill="none" stroke="#000000" stroke-width="2" stroke-miterlimit="10" x1="648" y1="162" x2="684" y2="198"/>
<line fill="none" stroke="#000000" stroke-width="2" stroke-miterlimit="10" x1="756" y1="198" x2="792" y2="162"/>
<line fill="none" stroke="#000000" stroke-width="2" stroke-miterlimit="10" x1="720" y1="198" x2="720" y2="54"/>
<line fill="none" stroke="#000000" stroke-width="2" stroke-miterlimit="10" x1="648" y1="126" x2="792" y2="126"/>
<line fill="none" stroke="#000000" stroke-width="2" stroke-miterlimit="10" x1="756" y1="18" x2="810" y2="18"/>
<line fill="none" stroke="#000000" stroke-width="2" stroke-miterlimit="10" x1="612" y1="162" x2="612.5" y2="216"/>
<circle fill="#BC1E47" stroke="#000000" stroke-miterlimit="10" cx="612" cy="18" r="4.5"/>
<circle fill="#BC1E47" stroke="#000000" stroke-miterlimit="10" cx="684" cy="18" r="4.5"/>
<circle fill="#BC1E47" stroke="#000000" stroke-miterlimit="10" cx="684" cy="54" r="4.5"/>
<circle fill="#BC1E47" stroke="#000000" stroke-miterlimit="10" cx="648" cy="90" r="4.5"/>
<circle fill="#BC1E47" stroke="#000000" stroke-miterlimit="10" cx="612" cy="90" r="4.5"/>
<circle fill="#BC1E47" stroke="#000000" stroke-miterlimit="10" cx="648" cy="126" r="4.5"/>
<circle fill="#BC1E47" stroke="#000000" stroke-miterlimit="10" cx="720" cy="126" r="4.5"/>
<circle fill="#BC1E47" stroke="#000000" stroke-miterlimit="10" cx="720" cy="54" r="4.5"/>
<circle fill="#BC1E47" stroke="#000000" stroke-miterlimit="10" cx="756" cy="54" r="4.5"/>
<circle fill="#BC1E47" stroke="#000000" stroke-miterlimit="10" cx="792" cy="90" r="4.5"/>
<circle fill="#BC1E47" stroke="#000000" stroke-miterlimit="10" cx="756" cy="18" r="4.5"/>
<circle fill="#BC1E47" stroke="#000000" stroke-miterlimit="10" cx="792" cy="126" r="4.5"/>
<circle fill="#BC1E47" stroke="#000000" stroke-miterlimit="10" cx="792" cy="162" r="4.5"/>
<circle fill="#BC1E47" stroke="#000000" stroke-miterlimit="10" cx="756" cy="198" r="4.5"/>
<circle fill="#BC1E47" stroke="#000000" stroke-miterlimit="10" cx="720" cy="198" r="4.5"/>
<circle fill="#BC1E47" stroke="#000000" stroke-miterlimit="10" cx="684" cy="198" r="4.5"/>
<circle fill="#BC1E47" stroke="#000000" stroke-miterlimit="10" cx="648" cy="162" r="4.5"/>
<circle fill="#BC1E47" stroke="#000000" stroke-miterlimit="10" cx="612" cy="162" r="4.5"/>
<line fill="none" stroke="#FEC200" stroke-miterlimit="10" x1="324" y1="36" x2="324" y2="180"/>
<line fill="none" stroke="#FEC200" stroke-miterlimit="10" x1="360" y1="36" x2="360" y2="180"/>
<line fill="none" stroke="#FEC200" stroke-miterlimit="10" x1="396" y1="36" x2="396" y2="180"/>
<line fill="none" stroke="#FEC200" stroke-miterlimit="10" x1="432" y1="36" x2="432" y2="180"/>
<line fill="none" stroke="#FEC200" stroke-miterlimit="10" x1="468" y1="36" x2="468" y2="180"/>
<line fill="none" stroke="#FEC200" stroke-miterlimit="10" x1="504" y1="36" x2="504" y2="180"/>
<line fill="none" stroke="#000000" stroke-width="2" stroke-miterlimit="10" x1="306" y1="162" x2="522" y2="162"/>
<line fill="none" stroke="#000000" stroke-width="2" stroke-miterlimit="10" x1="306" y1="126" x2="522" y2="126"/>
<line fill="none" stroke="#000000" stroke-width="2" stroke-miterlimit="10" x1="306" y1="90" x2="522" y2="90"/>
<line fill="none" stroke="#000000" stroke-width="2" stroke-miterlimit="10" x1="306" y1="54" x2="522" y2="54"/>
<line fill="none" stroke="#000000" stroke-width="2" stroke-miterlimit="10" x1="324" y1="162" x2="324" y2="180"/>
<line fill="none" stroke="#000000" stroke-width="2" stroke-miterlimit="10" x1="396" y1="162" x2="396" y2="180"/>
<line fill="none" stroke="#000000" stroke-width="2" stroke-miterlimit="10" x1="468" y1="162" x2="468" y2="180"/>
<line fill="none" stroke="#000000" stroke-width="2" stroke-miterlimit="10" x1="360" y1="126" x2="360" y2="162"/>
<line fill="none" stroke="#000000" stroke-width="2" stroke-miterlimit="10" x1="432" y1="126" x2="432" y2="162"/>
<line fill="none" stroke="#000000" stroke-width="2" stroke-miterlimit="10" x1="504" y1="126" x2="504" y2="162"/>
<line fill="none" stroke="#000000" stroke-width="2" stroke-miterlimit="10" x1="324" y1="90" x2="324" y2="126"/>
<line fill="none" stroke="#000000" stroke-width="2" stroke-miterlimit="10" x1="396" y1="90" x2="396" y2="126"/>
<line fill="none" stroke="#000000" stroke-width="2" stroke-miterlimit="10" x1="468" y1="90" x2="468" y2="126"/>
<line fill="none" stroke="#000000" stroke-width="2" stroke-miterlimit="10" x1="360" y1="54" x2="360" y2="90"/>
<line fill="none" stroke="#000000" stroke-width="2" stroke-miterlimit="10" x1="432" y1="54" x2="432" y2="90"/>
<line fill="none" stroke="#000000" stroke-width="2" stroke-miterlimit="10" x1="504" y1="54" x2="504" y2="90"/>
<line fill="none" stroke="#000000" stroke-width="2" stroke-miterlimit="10" x1="324" y1="36" x2="324" y2="54"/>
<line fill="none" stroke="#000000" stroke-width="2" stroke-miterlimit="10" x1="396" y1="36" x2="396" y2="54"/>
<line fill="none" stroke="#000000" stroke-width="2" stroke-miterlimit="10" x1="468" y1="36" x2="468" y2="54"/>
<circle fill="#BC1E47" stroke="#000000" stroke-miterlimit="10" cx="324" cy="54" r="4.5"/>
<circle fill="#BC1E47" stroke="#000000" stroke-miterlimit="10" cx="360" cy="54" r="4.5"/>
<circle fill="#BC1E47" stroke="#000000" stroke-miterlimit="10" cx="396" cy="54" r="4.5"/>
<circle fill="#BC1E47" stroke="#000000" stroke-miterlimit="10" cx="432" cy="54" r="4.5"/>
<circle fill="#BC1E47" stroke="#000000" stroke-miterlimit="10" cx="468" cy="54" r="4.5"/>
<circle fill="#BC1E47" stroke="#000000" stroke-miterlimit="10" cx="504" cy="54" r="4.5"/>
<circle fill="#BC1E47" stroke="#000000" stroke-miterlimit="10" cx="504" cy="90" r="4.5"/>
<circle fill="#BC1E47" stroke="#000000" stroke-miterlimit="10" cx="468" cy="90" r="4.5"/>
<circle fill="#BC1E47" stroke="#000000" stroke-miterlimit="10" cx="432" cy="90" r="4.5"/>
<circle fill="#BC1E47" stroke="#000000" stroke-miterlimit="10" cx="396" cy="90" r="4.5"/>
<circle fill="#BC1E47" stroke="#000000" stroke-miterlimit="10" cx="360" cy="90" r="4.5"/>
<circle fill="#BC1E47" stroke="#000000" stroke-miterlimit="10" cx="324" cy="90" r="4.5"/>
<circle fill="#BC1E47" stroke="#000000" stroke-miterlimit="10" cx="324" cy="126" r="4.5"/>
<circle fill="#BC1E47" stroke="#000000" stroke-miterlimit="10" cx="360" cy="126" r="4.5"/>
<circle fill="#BC1E47" stroke="#000000" stroke-miterlimit="10" cx="396" cy="126" r="4.5"/>
<circle fill="#BC1E47" stroke="#000000" stroke-miterlimit="10" cx="432" cy="126" r="4.5"/>
<circle fill="#BC1E47" stroke="#000000" stroke-miterlimit="10" cx="468" cy="126" r="4.5"/>
<circle fill="#BC1E47" stroke="#000000" stroke-miterlimit="10" cx="504" cy="126" r="4.5"/>
<circle fill="#BC1E47" stroke="#000000" stroke-miterlimit="10" cx="504" cy="162" r="4.5"/>
<circle fill="#BC1E47" stroke="#000000" stroke-miterlimit="10" cx="468" cy="162" r="4.5"/>
<circle fill="#BC1E47" stroke="#000000" stroke-miterlimit="10" cx="432" cy="162" r="4.5"/>
<circle fill="#BC1E47" stroke="#000000" stroke-miterlimit="10" cx="396" cy="162" r="4.5"/>
<circle fill="#BC1E47" stroke="#000000" stroke-miterlimit="10" cx="360" cy="162" r="4.5"/>
<circle fill="#BC1E47" stroke="#000000" stroke-miterlimit="10" cx="324" cy="162" r="4.5"/>
</svg>
