<?xml version="1.0" encoding="UTF-8" standalone="no"?>
<svg xmlns:svg="http://www.w3.org/2000/svg" xmlns="http://www.w3.org/2000/svg" version="1.0" width="693" height="690" > 
<g transform="translate(4,-66)" > 
<g style="fill:none;stroke:#000000;stroke-width:2.5;"> 
 
<path d="M 704.285,478.790 A 197.857,197.857 0 1 1 308.571,478.790 A 197.857,197.857 0 1 1 704.285,478.790 z" transform="matrix(1.054,0,0,1.054,-189.646,-119.935)"/>
<path d="M 100.005,521.021 L 161.624,487.686"/>
<path d="M 344.462,105.849 L 343.451,176.559"/>
<path d="M 344.462,590.722 L 342.441,524.052"/>
<path d="M 554.573,384.651 L 483.863,384.651"/>
<path d="M 206.071,383.641 L 133.340,382.631"/>
<path d="M 344.462,177.570 L 343.451,244.240"/>
<path d="M 343.451,245.250 L 525.279,489.707"/>
<path d="M 201.020,383.641 L 448.507,205.854"/>
<path d="M 342.441,524.052 L 161.624,278.585"/>
<path d="M 482.852,383.641 L 240.416,202.823"/>
<path d="M 342.441,525.062 L 524.269,284.646"/>
<path d="M 481.842,383.641 C 203.040,384.651 204.050,383.641 204.050,383.641"/>
<path d="M 343.451,245.250 C 341.431,524.052 341.431,524.052 341.431,524.052"/>
<path d="M 203.040,385.661 L 446.487,563.448"/>
<path d="M 239.406,565.468 L 481.842,383.641"/>
<path d="M 163.644,486.676 L 344.462,243.229"/>
<path d="M 588.918,525.062 L 526.289,487.686"/>
<path d="M 240.416,566.478 C 240.416,566.478 301.497,676.928 400.020,659.412 C 498.543,641.897 587.908,524.052 587.908,524.052"/>
<path d="M 554.171,384.521 C 554.171,384.521 621.106,276.281 556.536,199.832 C 491.966,123.383 345.193,105.181 345.193,105.181"/>
<path d="M 242.473,203.200 C 242.473,203.200 114.621,198.432 75.000,290.322 C 35.380,382.213 102.739,519.674 102.739,519.674"/>
<path d="M 134.241,383.910 C 134.241,383.910 69.327,275.669 133.897,199.221 C 198.466,122.772 345.239,104.570 345.239,104.570"/>
<path d="M 448.219,203.806 C 448.219,203.806 574.393,200.660 609.095,294.519 C 643.798,388.377 587.309,525.061 587.309,525.061"/>
<path d="M 448.498,568.945 C 448.498,568.945 383.310,678.943 284.242,664.833 C 185.173,650.723 103.007,521.565 103.007,521.565"/>
<path d="M 343.451,105.849 C 343.451,105.849 685.858,7.359 686.903,329.092 C 687.949,650.825 346.482,592.742 346.482,592.742"/>
<path d="M 585.829,524.997 C 585.829,524.997 476.422,878.995 204.214,707.482 C -67.991,535.970 163.007,281.814 163.007,281.814"/>
<path d="M 100.261,518.515 C 100.261,518.515 -149.447,264.374 132.937,110.190 C 415.320,-43.992 526.916,283.909 526.916,283.909"/></g> 

<g style="fill:blue;stroke:black;stroke-width:2;"> 
<circle cx="105" cy="526" r="7" transform="matrix(1.428,0,0,1.428,-46.034,-231.520)"/>
<circle cx="105" cy="526" r="7" transform="matrix(1.428,0,0,1.428,12.554,-264.350)"/>
<circle cx="105" cy="526" r="7" transform="matrix(1.428,0,0,1.428,-15.729,-368.396)"/>
<circle cx="105" cy="526" r="7" transform="matrix(1.428,0,0,1.428,52.960,-368.396)"/>
<circle cx="105" cy="526" r="7" transform="matrix(1.428,0,0,1.428,193.372,-506.282)"/>
<circle cx="105" cy="526" r="7" transform="matrix(1.428,0,0,1.428,193.372,-228.490)"/>
<circle cx="105" cy="526" r="7" transform="matrix(1.428,0,0,1.428,193.372,-158.789)"/>
<circle cx="105" cy="526" r="7" transform="matrix(1.428,0,0,1.428,89.326,-187.073)"/>
<circle cx="105" cy="526" r="7" transform="matrix(1.428,0,0,1.428,296.407,-187.073)"/>
<circle cx="105" cy="526" r="7" transform="matrix(1.428,0,0,1.428,376.209,-264.350)"/>
<circle cx="105" cy="526" r="7" transform="matrix(1.428,0,0,1.428,435.788,-227.48)"/>
<circle cx="105" cy="526" r="7" transform="matrix(1.428,0,0,1.428,375.199,-470.421)"/>
<circle cx="105" cy="526" r="7" transform="matrix(1.428,0,0,1.428,297.417,-546.688)"/>
<circle cx="105" cy="526" r="7" transform="matrix(1.428,0,0,1.428,402.473,-368.396)"/>
<circle cx="105" cy="526" r="7" transform="matrix(1.428,0,0,1.428,331.762,-368.396)"/>
<circle cx="105" cy="526" r="7" transform="matrix(1.428,0,0,1.428,91.346,-547.698)"/>
<circle cx="105" cy="526" r="7" transform="matrix(1.428,0,0,1.428,12.554,-470.421)"/>
<circle cx="105" cy="526" r="7" transform="matrix(1.428,0,0,1.428,193.372,-575.982)"/>
<circle cx="105" cy="526" r="7" transform="matrix(1.428,0,0,1.428,193.372,-645.683)"/></g> 
</g></svg>