<?xml version="1.0" encoding="utf-8"?>
<!-- Generator: Adobe Illustrator 15.1.0, SVG Export Plug-In . SVG Version: 6.00 Build 0)  -->
<!DOCTYPE svg PUBLIC "-//W3C//DTD SVG 1.1//EN" "http://www.w3.org/Graphics/SVG/1.1/DTD/svg11.dtd">
<svg version="1.1" id="Layer_1" xmlns="http://www.w3.org/2000/svg" xmlns:xlink="http://www.w3.org/1999/xlink" x="0px" y="0px"
	 width="720.383px" height="578.403px" viewBox="0 0 720.383 578.403" enable-background="new 0 0 720.383 578.403"
	 xml:space="preserve">
<rect x="69.545" y="328.479" fill-rule="evenodd" clip-rule="evenodd" fill="#FEC200" width="282" height="48"/>
<polyline fill="none" stroke="#000000" stroke-width="0.9" stroke-miterlimit="10" points="69.545,328.478 69.545,376.479 
	351.545,376.479 351.545,328.478 "/>
<rect x="69.545" y="376.478" fill-rule="evenodd" clip-rule="evenodd" fill="#CC33CC" width="102.001" height="102.001"/>
<rect x="69.545" y="376.478" fill="none" stroke="#000000" stroke-width="0.9" stroke-miterlimit="10" width="102.001" height="102.001"/>
<rect x="177.545" y="376.479" fill-rule="evenodd" clip-rule="evenodd" fill="#009246" width="66" height="66"/>
<rect x="177.545" y="376.479" fill="none" stroke="#000000" stroke-width="0.9" stroke-miterlimit="10" width="66" height="66"/>
<rect x="177.545" y="442.478" fill-rule="evenodd" clip-rule="evenodd" fill="#CC33CC" width="24" height="24.001"/>
<rect x="177.545" y="442.478" fill="none" stroke="#000000" stroke-width="0.9" stroke-miterlimit="10" width="24" height="24.001"/>
<rect x="207.545" y="442.478" fill-rule="evenodd" clip-rule="evenodd" fill="#0081CD" width="30" height="30.001"/>
<rect x="207.545" y="442.478" fill="none" stroke="#000000" stroke-width="0.9" stroke-miterlimit="10" width="30" height="30.001"/>
<rect x="207.545" y="472.479" fill-rule="evenodd" clip-rule="evenodd" fill="#FEC200" width="24" height="24"/>
<rect x="207.545" y="472.479" fill="none" stroke="#000000" stroke-width="0.9" stroke-miterlimit="10" width="24" height="24"/>
<rect x="69.545" y="478.479" fill-rule="evenodd" clip-rule="evenodd" fill="#BC1E47" width="24" height="24"/>
<rect x="69.545" y="478.479" fill="none" stroke="#000000" stroke-width="0.9" stroke-miterlimit="10" width="24" height="24"/>
<rect x="99.545" y="478.479" fill-rule="evenodd" clip-rule="evenodd" fill="#FEC200" width="24" height="24"/>
<rect x="99.545" y="478.479" fill="none" stroke="#000000" stroke-width="0.9" stroke-miterlimit="10" width="24" height="24"/>
<rect x="129.545" y="478.479" fill-rule="evenodd" clip-rule="evenodd" fill="#009246" width="36" height="36"/>
<rect x="129.545" y="478.479" fill="none" stroke="#000000" stroke-width="0.9" stroke-miterlimit="10" width="36" height="36"/>
<rect x="129.545" y="514.479" fill-rule="evenodd" clip-rule="evenodd" fill="#0081CD" width="30" height="29.998"/>
<rect x="129.545" y="514.479" fill="none" stroke="#000000" stroke-width="0.9" stroke-miterlimit="10" width="30" height="29.998"/>
<rect x="129.545" y="544.477" fill-rule="evenodd" clip-rule="evenodd" fill="#FEC200" width="24" height="24.002"/>
<rect x="129.545" y="544.477" fill="none" stroke="#000000" stroke-width="0.9" stroke-miterlimit="10" width="24" height="24.002"/>
<rect x="249.545" y="376.478" fill-rule="evenodd" clip-rule="evenodd" fill="#0081CD" width="96" height="96.001"/>
<rect x="249.545" y="376.478" fill="none" stroke="#000000" stroke-width="0.9" stroke-miterlimit="10" width="96" height="96.001"/>
<rect x="249.545" y="472.479" fill-rule="evenodd" clip-rule="evenodd" fill="#FEC200" width="24" height="24"/>
<rect x="249.545" y="472.479" fill="none" stroke="#000000" stroke-width="0.9" stroke-miterlimit="10" width="24" height="24"/>
<rect x="279.545" y="472.479" fill-rule="evenodd" clip-rule="evenodd" fill="#BC1E47" width="60" height="60"/>
<rect x="279.545" y="472.479" fill="none" stroke="#000000" stroke-width="0.9" stroke-miterlimit="10" width="60" height="60"/>
<rect x="279.545" y="532.479" fill-rule="evenodd" clip-rule="evenodd" fill="#009246" width="24" height="23.998"/>
<rect x="279.545" y="532.479" fill="none" stroke="#000000" stroke-width="0.9" stroke-miterlimit="10" width="24" height="23.998"/>
<rect x="309.545" y="532.479" fill-rule="evenodd" clip-rule="evenodd" fill="#CC33CC" width="24" height="23.998"/>
<rect x="309.545" y="532.479" fill="none" stroke="#000000" stroke-width="0.9" stroke-miterlimit="10" width="24" height="23.998"/>
<rect x="279.544" y="532.479" fill="none" stroke="#000000" stroke-miterlimit="10" width="24" height="23.998"/>
<rect x="279.544" y="472.479" fill="none" stroke="#000000" stroke-miterlimit="10" width="60" height="60"/>
<rect x="429.384" y="15.336" fill-rule="evenodd" clip-rule="evenodd" fill="#FEC200" width="282" height="48"/>
<polyline fill="none" stroke="#000000" stroke-miterlimit="10" points="429.384,15.336 429.384,63.336 711.383,63.336 
	711.383,15.336 "/>
<rect x="429.384" y="63.336" fill-rule="evenodd" clip-rule="evenodd" fill="#CC33CC" width="102" height="102"/>
<rect x="429.384" y="63.336" fill="none" stroke="#000000" stroke-miterlimit="10" width="102" height="102"/>
<rect x="537.383" y="63.336" fill-rule="evenodd" clip-rule="evenodd" fill="#009246" width="66" height="66"/>
<rect x="537.383" y="63.336" fill="none" stroke="#000000" stroke-miterlimit="10" width="66" height="66"/>
<rect x="537.383" y="129.336" fill-rule="evenodd" clip-rule="evenodd" fill="#CC33CC" width="24" height="24"/>
<rect x="537.383" y="129.336" fill="none" stroke="#000000" stroke-miterlimit="10" width="24" height="24"/>
<rect x="567.383" y="129.336" fill-rule="evenodd" clip-rule="evenodd" fill="#0081CD" width="30" height="30"/>
<rect x="567.383" y="129.336" fill="none" stroke="#000000" stroke-miterlimit="10" width="30" height="30"/>
<rect x="567.383" y="159.336" fill-rule="evenodd" clip-rule="evenodd" fill="#FEC200" width="24" height="24"/>
<rect x="567.383" y="159.336" fill="none" stroke="#000000" stroke-miterlimit="10" width="24" height="24"/>
<rect x="429.384" y="165.336" fill-rule="evenodd" clip-rule="evenodd" fill="#BC1E47" width="24" height="24"/>
<rect x="429.384" y="165.336" fill="none" stroke="#000000" stroke-miterlimit="10" width="24" height="24"/>
<rect x="459.383" y="165.336" fill-rule="evenodd" clip-rule="evenodd" fill="#FEC200" width="24" height="24"/>
<rect x="459.383" y="165.336" fill="none" stroke="#000000" stroke-miterlimit="10" width="24" height="24"/>
<rect x="489.383" y="165.336" fill-rule="evenodd" clip-rule="evenodd" fill="#009246" width="36" height="36"/>
<rect x="489.383" y="165.336" fill="none" stroke="#000000" stroke-miterlimit="10" width="36" height="36"/>
<rect x="489.383" y="201.336" fill-rule="evenodd" clip-rule="evenodd" fill="#0081CD" width="30" height="29.999"/>
<rect x="489.383" y="201.336" fill="none" stroke="#000000" stroke-miterlimit="10" width="30" height="29.999"/>
<rect x="489.383" y="231.335" fill-rule="evenodd" clip-rule="evenodd" fill="#FEC200" width="24" height="24.001"/>
<rect x="489.383" y="231.335" fill="none" stroke="#000000" stroke-miterlimit="10" width="24" height="24.001"/>
<rect x="609.383" y="63.336" fill-rule="evenodd" clip-rule="evenodd" fill="#0081CD" width="96" height="96"/>
<rect x="609.383" y="63.336" fill="none" stroke="#000000" stroke-miterlimit="10" width="96" height="96"/>
<rect x="609.383" y="159.336" fill-rule="evenodd" clip-rule="evenodd" fill="#FEC200" width="24" height="24"/>
<rect x="609.383" y="159.336" fill="none" stroke="#000000" stroke-miterlimit="10" width="24" height="24"/>
<rect x="639.383" y="159.336" fill-rule="evenodd" clip-rule="evenodd" fill="#BC1E47" width="60" height="60"/>
<rect x="639.383" y="159.336" fill="none" stroke="#000000" stroke-miterlimit="10" width="60" height="60"/>
<rect x="639.383" y="219.336" fill-rule="evenodd" clip-rule="evenodd" fill="#009246" width="24" height="23.999"/>
<rect x="639.383" y="219.336" fill="none" stroke="#000000" stroke-miterlimit="10" width="24" height="23.999"/>
<rect x="669.383" y="219.336" fill-rule="evenodd" clip-rule="evenodd" fill="#CC33CC" width="24" height="23.999"/>
<rect x="669.383" y="219.336" fill="none" stroke="#000000" stroke-miterlimit="10" width="24" height="23.999"/>
<polyline fill="none" stroke="#000000" stroke-miterlimit="10" points="69.545,328.478 69.545,376.479 351.545,376.479 
	351.545,328.478 "/>
<rect x="69.545" y="376.478" fill="none" stroke="#000000" stroke-miterlimit="10" width="102.001" height="102.001"/>
<rect x="69.545" y="478.479" fill="none" stroke="#000000" stroke-miterlimit="10" width="24" height="24"/>
<rect x="99.542" y="478.479" fill="none" stroke="#000000" stroke-miterlimit="10" width="24" height="24"/>
<rect x="129.546" y="478.479" fill="none" stroke="#000000" stroke-miterlimit="10" width="36" height="36"/>
<rect x="129.546" y="514.479" fill="none" stroke="#000000" stroke-miterlimit="10" width="30" height="29.998"/>
<line fill="none" stroke="#000000" stroke-miterlimit="10" x1="189.384" y1="39.336" x2="69.384" y2="87.336"/>
<line fill="none" stroke="#000000" stroke-miterlimit="10" x1="189.384" y1="39.336" x2="189.384" y2="87.336"/>
<line fill="none" stroke="#000000" stroke-miterlimit="10" x1="189.384" y1="39.336" x2="333.384" y2="87.336"/>
<line fill="none" stroke="#000000" stroke-miterlimit="10" x1="69.384" y1="87.336" x2="21.384" y2="135.336"/>
<line fill="none" stroke="#000000" stroke-miterlimit="10" x1="69.384" y1="87.336" x2="117.383" y2="135.336"/>
<line fill="none" stroke="#000000" stroke-miterlimit="10" x1="69.384" y1="87.336" x2="69.384" y2="135.336"/>
<line fill="none" stroke="#000000" stroke-miterlimit="10" x1="117.383" y1="135.336" x2="117.383" y2="183.336"/>
<line fill="none" stroke="#000000" stroke-miterlimit="10" x1="117.383" y1="183.336" x2="117.383" y2="231.335"/>
<line fill="none" stroke="#000000" stroke-miterlimit="10" x1="189.384" y1="87.336" x2="165.384" y2="135.336"/>
<line fill="none" stroke="#000000" stroke-miterlimit="10" x1="189.384" y1="87.336" x2="237.384" y2="135.336"/>
<line fill="none" stroke="#000000" stroke-miterlimit="10" x1="333.384" y1="87.336" x2="285.384" y2="135.336"/>
<line fill="none" stroke="#000000" stroke-miterlimit="10" x1="333.384" y1="87.336" x2="381.384" y2="135.336"/>
<line fill="none" stroke="#000000" stroke-miterlimit="10" x1="381.384" y1="135.336" x2="333.384" y2="183.336"/>
<line fill="none" stroke="#000000" stroke-miterlimit="10" x1="381.384" y1="135.336" x2="381.384" y2="183.336"/>
<line fill="none" stroke="#000000" stroke-miterlimit="10" x1="237.384" y1="135.336" x2="237.384" y2="183.336"/>
<rect x="129.546" y="544.477" fill="none" stroke="#000000" stroke-miterlimit="10" width="24" height="24.002"/>
<rect x="177.547" y="442.478" fill="none" stroke="#000000" stroke-miterlimit="10" width="24" height="24.001"/>
<rect x="177.547" y="376.479" fill="none" stroke="#000000" stroke-miterlimit="10" width="66" height="66"/>
<rect x="207.543" y="442.478" fill="none" stroke="#000000" stroke-miterlimit="10" width="30" height="30.001"/>
<rect x="249.547" y="376.478" fill="none" stroke="#000000" stroke-miterlimit="10" width="96.001" height="96.001"/>
<rect x="249.547" y="472.479" fill="none" stroke="#000000" stroke-miterlimit="10" width="24" height="24"/>
<rect x="207.543" y="472.479" fill="none" stroke="#000000" stroke-miterlimit="10" width="24" height="24"/>
<rect x="309.548" y="532.479" fill="none" stroke="#000000" stroke-miterlimit="10" width="24" height="23.998"/>
<path fill="#FFFFFF" stroke="#000000" stroke-miterlimit="10" d="M159.543,529.479c0,8.283-6.717,14.998-14.995,14.998
	c-8.285,0-15.002-6.715-15.002-14.998s6.717-15,15.002-15C152.826,514.479,159.543,521.196,159.543,529.479z"/>
<path fill="#FFFFFF" stroke="#000000" stroke-miterlimit="10" d="M93.546,316.478c27.066,37.668,70.617,60.001,116.999,60.001
	c46.383,0,89.934-22.333,117-60.001"/>
<path fill="#FFFFFF" stroke="#000000" stroke-miterlimit="10" d="M171.543,427.478c0,28.167-22.831,51.001-50.995,51.001
	c-28.171,0-51.003-22.834-51.003-51.001s22.832-50.999,51.003-50.999C148.712,376.479,171.543,399.311,171.543,427.478z"/>
<circle fill="#FFFFFF" stroke="#000000" stroke-miterlimit="10" cx="210.545" cy="409.479" r="32.442"/>
<path fill="#FFFFFF" stroke="#000000" stroke-miterlimit="10" d="M344.985,424.478c0,26.2-21.241,47.44-47.438,47.44
	c-26.204,0-47.444-21.24-47.444-47.44s21.24-47.44,47.444-47.44C323.744,377.038,344.985,398.278,344.985,424.478z"/>
<path fill="#FFFFFF" stroke="#000000" stroke-miterlimit="10" d="M333.904,544.477c0,6.826-5.533,12.361-12.356,12.361
	c-6.831,0-12.363-5.535-12.363-12.361c0-6.824,5.532-12.359,12.363-12.359C328.371,532.118,333.904,537.653,333.904,544.477z"/>
<path fill="#FFFFFF" stroke="#000000" stroke-miterlimit="10" d="M231.907,484.479c0,6.826-5.533,12.359-12.364,12.359
	c-6.823,0-12.356-5.533-12.356-12.359s5.533-12.361,12.356-12.361C226.374,472.118,231.907,477.653,231.907,484.479z"/>
<path fill="#FFFFFF" stroke="#000000" stroke-miterlimit="10" d="M201.903,454.479c0,6.826-5.533,12.359-12.356,12.359
	c-6.831,0-12.364-5.533-12.364-12.359s5.533-12.36,12.364-12.36C196.37,442.119,201.903,447.653,201.903,454.479z"/>
<path fill="#FFFFFF" stroke="#000000" stroke-miterlimit="10" d="M93.902,490.479c0,6.826-5.533,12.359-12.355,12.359
	c-6.824,0-12.365-5.533-12.365-12.359s5.541-12.361,12.365-12.361C88.369,478.118,93.902,483.653,93.902,490.479z"/>
<path fill="#FFFFFF" stroke="#000000" stroke-miterlimit="10" d="M123.906,490.479c0,6.826-5.533,12.359-12.364,12.359
	c-6.823,0-12.356-5.533-12.356-12.359s5.533-12.361,12.356-12.361C118.373,478.118,123.906,483.653,123.906,490.479z"/>
<path fill="#FFFFFF" stroke="#000000" stroke-miterlimit="10" d="M153.902,556.477c0,6.826-5.532,12.361-12.356,12.361
	c-6.831,0-12.363-5.535-12.363-12.361c0-6.824,5.532-12.359,12.363-12.359C148.37,544.118,153.902,549.653,153.902,556.477z"/>
<path fill="#FFFFFF" stroke="#000000" stroke-miterlimit="10" d="M273.904,484.479c0,6.826-5.533,12.359-12.357,12.359
	c-6.83,0-12.363-5.533-12.363-12.359s5.533-12.361,12.363-12.361C268.371,472.118,273.904,477.653,273.904,484.479z"/>
<path fill="#FFFFFF" stroke="#000000" stroke-miterlimit="10" d="M303.908,544.477c0,6.826-5.541,12.361-12.363,12.361
	c-6.824,0-12.357-5.535-12.357-12.361c0-6.824,5.533-12.359,12.357-12.359C298.367,532.118,303.908,537.653,303.908,544.477z"/>
<path fill="#FFFFFF" stroke="#000000" stroke-miterlimit="10" d="M339.103,502.479c0,16.324-13.233,29.561-29.555,29.561
	c-16.328,0-29.562-13.236-29.562-29.561c0-16.326,13.233-29.561,29.562-29.561C325.869,472.918,339.103,486.153,339.103,502.479z"/>
<circle fill="#FFFFFF" stroke="#000000" stroke-miterlimit="10" cx="147.546" cy="496.479" r="17.479"/>
<circle fill="#FFFFFF" stroke="#000000" stroke-miterlimit="10" cx="222.545" cy="457.479" r="15.002"/>
<path fill-rule="evenodd" clip-rule="evenodd" fill="#FEC200" d="M202.104,39.336c0,7.024-5.695,12.72-12.72,12.72
	c-7.025,0-12.72-5.696-12.72-12.72c0-7.025,5.695-12.721,12.72-12.721C196.409,26.616,202.104,32.311,202.104,39.336"/>
<circle fill="none" stroke="#000000" stroke-miterlimit="10" cx="189.384" cy="39.336" r="12.72"/>
<path fill-rule="evenodd" clip-rule="evenodd" fill="#009246" d="M202.104,87.336c0,7.025-5.695,12.72-12.72,12.72
	c-7.025,0-12.72-5.695-12.72-12.72c0-7.024,5.695-12.72,12.72-12.72C196.409,74.616,202.104,80.312,202.104,87.336"/>
<circle fill="none" stroke="#000000" stroke-miterlimit="10" cx="189.384" cy="87.336" r="12.72"/>
<path fill-rule="evenodd" clip-rule="evenodd" fill="#CC33CC" d="M178.104,135.336c0,7.025-5.695,12.719-12.719,12.719
	c-7.025,0-12.721-5.693-12.721-12.719s5.695-12.72,12.721-12.72C172.409,122.616,178.104,128.311,178.104,135.336"/>
<circle fill="none" stroke="#000000" stroke-miterlimit="10" cx="165.384" cy="135.336" r="12.72"/>
<path fill-rule="evenodd" clip-rule="evenodd" fill="#0081CD" d="M250.104,135.336c0,7.025-5.695,12.719-12.719,12.719
	c-7.025,0-12.721-5.693-12.721-12.719s5.695-12.72,12.721-12.72C244.409,122.616,250.104,128.311,250.104,135.336"/>
<circle fill="none" stroke="#000000" stroke-miterlimit="10" cx="237.384" cy="135.336" r="12.72"/>
<path fill-rule="evenodd" clip-rule="evenodd" fill="#FEC200" d="M298.104,135.336c0,7.025-5.696,12.719-12.72,12.719
	c-7.025,0-12.72-5.693-12.72-12.719s5.695-12.72,12.72-12.72C292.408,122.616,298.104,128.311,298.104,135.336"/>
<circle fill="none" stroke="#000000" stroke-miterlimit="10" cx="285.384" cy="135.336" r="12.72"/>
<path fill-rule="evenodd" clip-rule="evenodd" fill="#BC1E47" d="M394.104,135.336c0,7.025-5.695,12.719-12.72,12.719
	c-7.025,0-12.72-5.693-12.72-12.719s5.695-12.72,12.72-12.72C388.409,122.616,394.104,128.311,394.104,135.336"/>
<circle fill="none" stroke="#000000" stroke-miterlimit="10" cx="381.384" cy="135.336" r="12.72"/>
<path fill-rule="evenodd" clip-rule="evenodd" fill="#CC33CC" d="M394.104,183.336c0,7.025-5.695,12.719-12.72,12.719
	c-7.025,0-12.72-5.693-12.72-12.719s5.695-12.721,12.72-12.721C388.409,170.616,394.104,176.311,394.104,183.336"/>
<circle fill="none" stroke="#000000" stroke-miterlimit="10" cx="381.384" cy="183.336" r="12.72"/>
<path fill-rule="evenodd" clip-rule="evenodd" fill="#009246" d="M346.104,183.336c0,7.025-5.694,12.719-12.72,12.719
	c-7.025,0-12.72-5.693-12.72-12.719s5.695-12.721,12.72-12.721C340.409,170.616,346.104,176.311,346.104,183.336"/>
<circle fill="none" stroke="#000000" stroke-miterlimit="10" cx="333.384" cy="183.336" r="12.72"/>
<path fill-rule="evenodd" clip-rule="evenodd" fill="#FEC200" d="M250.104,183.336c0,7.025-5.695,12.719-12.719,12.719
	c-7.025,0-12.721-5.693-12.721-12.719s5.695-12.721,12.721-12.721C244.409,170.616,250.104,176.311,250.104,183.336"/>
<circle fill="none" stroke="#000000" stroke-miterlimit="10" cx="237.384" cy="183.336" r="12.72"/>
<path fill-rule="evenodd" clip-rule="evenodd" fill="#0081CD" d="M130.104,183.336c0,7.025-5.695,12.719-12.721,12.719
	c-7.024,0-12.719-5.693-12.719-12.719s5.695-12.721,12.719-12.721C124.409,170.616,130.104,176.311,130.104,183.336"/>
<circle fill="none" stroke="#000000" stroke-miterlimit="10" cx="117.384" cy="183.336" r="12.72"/>
<path fill-rule="evenodd" clip-rule="evenodd" fill="#009246" d="M130.104,135.336c0,7.025-5.695,12.719-12.721,12.719
	c-7.024,0-12.719-5.693-12.719-12.719s5.695-12.72,12.719-12.72C124.409,122.616,130.104,128.311,130.104,135.336"/>
<circle fill="none" stroke="#000000" stroke-miterlimit="10" cx="117.384" cy="135.336" r="12.72"/>
<path fill-rule="evenodd" clip-rule="evenodd" fill="#CC33CC" d="M82.104,87.336c0,7.025-5.695,12.72-12.72,12.72
	c-7.024,0-12.72-5.695-12.72-12.72c0-7.024,5.695-12.72,12.72-12.72C76.409,74.616,82.104,80.312,82.104,87.336"/>
<circle fill="none" stroke="#000000" stroke-miterlimit="10" cx="69.384" cy="87.336" r="12.72"/>
<path fill-rule="evenodd" clip-rule="evenodd" fill="#BC1E47" d="M34.104,135.336c0,7.025-5.695,12.719-12.72,12.719
	c-7.024,0-12.72-5.693-12.72-12.719s5.695-12.72,12.72-12.72C28.409,122.616,34.104,128.311,34.104,135.336"/>
<circle fill="none" stroke="#000000" stroke-miterlimit="10" cx="21.384" cy="135.336" r="12.72"/>
<path fill-rule="evenodd" clip-rule="evenodd" fill="#FEC200" d="M82.104,135.336c0,7.025-5.695,12.719-12.72,12.719
	c-7.024,0-12.72-5.693-12.72-12.719s5.695-12.72,12.72-12.72C76.409,122.616,82.104,128.311,82.104,135.336"/>
<circle fill="none" stroke="#000000" stroke-miterlimit="10" cx="69.384" cy="135.336" r="12.72"/>
<path fill-rule="evenodd" clip-rule="evenodd" fill="#FEC200" d="M130.104,231.335c0,7.025-5.695,12.721-12.721,12.721
	c-7.024,0-12.719-5.695-12.719-12.721c0-7.024,5.695-12.72,12.719-12.72C124.409,218.616,130.104,224.311,130.104,231.335"/>
<circle fill="none" stroke="#000000" stroke-miterlimit="10" cx="117.384" cy="231.335" r="12.72"/>
<path fill-rule="evenodd" clip-rule="evenodd" fill="#0081CD" d="M346.104,87.336c0,7.025-5.694,12.72-12.72,12.72
	c-7.025,0-12.72-5.695-12.72-12.72c0-7.024,5.695-12.72,12.72-12.72C340.409,74.616,346.104,80.312,346.104,87.336"/>
<circle fill="none" stroke="#000000" stroke-miterlimit="10" cx="333.384" cy="87.336" r="12.72"/>
<text transform="matrix(1 0 0 1 315.5454 550.4771)" font-family="'Times-Italic'" font-size="26.6668">o</text>
<text transform="matrix(1 0 0 1 327.3838 96.3364)" font-family="'Times-Italic'" font-size="26.6668">d</text>
<text transform="matrix(1 0 0 1 63.3838 96.3364)" font-family="'Times-Italic'" font-size="26.6668">b</text>
<text transform="matrix(1 0 0 1 183.3838 93.3364)" font-family="'Times-Italic'" font-size="26.6668">c</text>
<text transform="matrix(1 0 0 1 15.3838 141.3364)"><tspan x="0" y="0" font-family="'Times-Italic'" font-size="26.6668" letter-spacing="36">e</tspan><tspan x="47.996" y="0" font-family="'Times-Italic'" font-size="26.6668">f</tspan></text>
<text transform="matrix(1 0 0 1 111.3838 138.3364)" font-family="'Times-Italic'" font-size="26.6668">g</text>
<text transform="matrix(1 0 0 1 111.3838 192.3364)" font-family="'Times-Italic'" font-size="26.6668">l</text>
<text transform="matrix(1 0 0 1 111.3838 234.3354)" font-family="'Times-Italic'" font-size="26.6668">p</text>
<text transform="matrix(1 0 0 1 159.3838 144.3364)"><tspan x="0" y="0" font-family="'Times-Italic'" font-size="26.6668" letter-spacing="58">h</tspan><tspan x="71.974" y="0" font-family="'Times-Italic'" font-size="26.6668">i</tspan></text>
<text transform="matrix(1 0 0 1 282.3838 141.3364)" font-family="'Times-Italic'" font-size="26.6668">j</text>
<text transform="matrix(1 0 0 1 228.3838 189.3364)"><tspan x="0" y="0" font-family="'Times-Italic'" font-size="26.6668" letter-spacing="79">m</tspan><tspan x="98.992" y="0" font-family="'Times-Italic'" font-size="26.6668" letter-spacing="34">n</tspan><tspan x="146.965" y="0" font-family="'Times-Italic'" font-size="26.6668">o</tspan></text>
<text transform="matrix(1 0 0 1 375.3838 144.3364)" font-family="'Times-Italic'" font-size="26.6668">k</text>
<text transform="matrix(1 0 0 1 558.3833 42.3364)" font-family="'Times-Italic'" font-size="26.6668">a</text>
<text transform="matrix(1 0 0 1 477.3833 117.3364)" font-family="'Times-Italic'" font-size="26.6668">b</text>
<text transform="matrix(1 0 0 1 561.3833 96.3364)" font-family="'Times-Italic'" font-size="26.6668">c</text>
<text transform="matrix(1 0 0 1 651.3833 111.3364)" font-family="'Times-Italic'" font-size="26.6668">d</text>
<text transform="matrix(1 0 0 1 435.3838 183.3364)"><tspan x="0" y="0" font-family="'Times-Italic'" font-size="26.6668" letter-spacing="21">e</tspan><tspan x="32.983" y="0" font-family="'Times-Italic'" font-size="26.6668">f</tspan></text>
<text transform="matrix(1 0 0 1 498.3833 186.3364)" font-family="'Times-Italic'" font-size="26.6668">g</text>
<text transform="matrix(1 0 0 1 540.3833 150.3364)" font-family="'Times-Italic'" font-size="26.6668">h</text>
<text transform="matrix(1 0 0 1 576.3833 153.3364)" font-family="'Times-Italic'" font-size="26.6668">i</text>
<text transform="matrix(1 0 0 1 618.3833 177.3364)" font-family="'Times-Italic'" font-size="26.6668">j</text>
<text transform="matrix(1 0 0 1 660.3833 192.3364)" font-family="'Times-Italic'" font-size="26.6668">k</text>
<text transform="matrix(1 0 0 1 498.3833 222.3354)" font-family="'Times-Italic'" font-size="26.6668">l</text>
<text transform="matrix(1 0 0 1 570.3833 177.3364)" font-family="'Times-Italic'" font-size="26.6668">m</text>
<text transform="matrix(1 0 0 1 642.3833 237.3354)"><tspan x="0" y="0" font-family="'Times-Italic'" font-size="26.6668" letter-spacing="19">n</tspan><tspan x="32.986" y="0" font-family="'Times-Italic'" font-size="26.6668">o</tspan></text>
<text transform="matrix(1 0 0 1 495.3833 246.3354)" font-family="'Times-Italic'" font-size="26.6668">p</text>
<text transform="matrix(1 0 0 1 201.5454 349.479)" font-family="'Times-Italic'" font-size="26.6668">a</text>
<text transform="matrix(1 0 0 1 117.5454 433.479)" font-family="'Times-Italic'" font-size="26.6668">b</text>
<text transform="matrix(1 0 0 1 204.5454 415.479)" font-family="'Times-Italic'" font-size="26.6668">c</text>
<text transform="matrix(1 0 0 1 291.5454 433.479)" font-family="'Times-Italic'" font-size="26.6668">d</text>
<text transform="matrix(1 0 0 1 75.5454 496.479)"><tspan x="0" y="0" font-family="'Times-Italic'" font-size="26.6668" letter-spacing="21">e</tspan><tspan x="32.982" y="0" font-family="'Times-Italic'" font-size="26.6668">f</tspan></text>
<text transform="matrix(1 0 0 1 141.5454 499.479)" font-family="'Times-Italic'" font-size="26.6668">g</text>
<text transform="matrix(1 0 0 1 138.5454 538.4771)" font-family="'Times-Italic'" font-size="26.6668">l</text>
<text transform="matrix(1 0 0 1 135.5454 559.4771)" font-family="'Times-Italic'" font-size="26.6668">p</text>
<text transform="matrix(1 0 0 1 183.5454 463.479)" font-family="'Times-Italic'" font-size="26.6668">h</text>
<text transform="matrix(1 0 0 1 216.5454 466.479)" font-family="'Times-Italic'" font-size="26.6668">i</text>
<text transform="matrix(1 0 0 1 210.5454 490.479)"><tspan x="0" y="0" font-family="'Times-Italic'" font-size="26.6668" letter-spacing="28">m</tspan><tspan x="48.005" y="0" font-family="'Times-Italic'" font-size="26.6668">j</tspan></text>
<text transform="matrix(1 0 0 1 306.5454 508.479)" font-family="'Times-Italic'" font-size="26.6668">k</text>
<text transform="matrix(1 0 0 1 285.5454 550.4771)" font-family="'Times-Italic'" font-size="26.6668">n</text>
<path fill="#0081CD" stroke="#000000" stroke-miterlimit="10" d="M522.939,501.479c0,8.283-6.717,14.998-14.995,14.998
	c-8.285,0-15.002-6.715-15.002-14.998s6.717-15,15.002-15C516.223,486.479,522.939,493.196,522.939,501.479z"/>
<path fill="#FEC200" stroke="#000000" stroke-miterlimit="10" d="M456.942,316.478c27.066,37.668,70.617,60.001,117,60.001
	c46.383,0,89.934-22.333,117-60.001"/>
<path fill="#CC33CC" stroke="#000000" stroke-miterlimit="10" d="M534.94,405.478c0,28.167-22.832,51.001-50.996,51.001
	c-28.171,0-51.003-22.834-51.003-51.001s22.832-50.999,51.003-50.999C512.108,354.479,534.94,377.311,534.94,405.478z"/>
<circle fill="#009246" stroke="#000000" stroke-miterlimit="10" cx="573.941" cy="409.479" r="32.442"/>
<path fill="#0081CD" stroke="#000000" stroke-miterlimit="10" d="M708.381,403.478c0,26.2-21.24,47.44-47.438,47.44
	c-26.203,0-47.443-21.24-47.443-47.44s21.24-47.44,47.443-47.44C687.141,356.038,708.381,377.278,708.381,403.478z"/>
<path fill="#CC33CC" stroke="#000000" stroke-miterlimit="10" d="M697.301,519.477c0,6.826-5.533,12.361-12.357,12.361
	c-6.83,0-12.363-5.535-12.363-12.361c0-6.824,5.533-12.359,12.363-12.359C691.768,507.118,697.301,512.653,697.301,519.477z"/>
<path fill="#FEC200" stroke="#000000" stroke-miterlimit="10" d="M595.303,482.479c0,6.826-5.533,12.359-12.363,12.359
	c-6.824,0-12.357-5.533-12.357-12.359s5.533-12.361,12.357-12.361C589.77,470.118,595.303,475.653,595.303,482.479z"/>
<path fill="#CC33CC" stroke="#000000" stroke-miterlimit="10" d="M565.299,449.479c0,6.826-5.533,12.359-12.355,12.359
	c-6.832,0-12.365-5.533-12.365-12.359s5.533-12.36,12.365-12.36C559.766,437.119,565.299,442.653,565.299,449.479z"/>
<path fill="#BC1E47" stroke="#000000" stroke-miterlimit="10" d="M457.299,455.479c0,6.826-5.533,12.359-12.355,12.359
	c-6.824,0-12.365-5.533-12.365-12.359s5.541-12.361,12.365-12.361C451.766,443.118,457.299,448.653,457.299,455.479z"/>
<path fill="#FEC200" stroke="#000000" stroke-miterlimit="10" d="M487.303,468.479c0,6.826-5.533,12.359-12.364,12.359
	c-6.823,0-12.356-5.533-12.356-12.359s5.533-12.361,12.356-12.361C481.77,456.118,487.303,461.653,487.303,468.479z"/>
<path fill="#FEC200" stroke="#000000" stroke-miterlimit="10" d="M517.299,528.477c0,6.826-5.532,12.361-12.356,12.361
	c-6.831,0-12.363-5.535-12.363-12.361c0-6.824,5.532-12.359,12.363-12.359C511.767,516.118,517.299,521.653,517.299,528.477z"/>
<path fill="#FEC200" stroke="#000000" stroke-miterlimit="10" d="M637.301,451.479c0,6.826-5.533,12.359-12.357,12.359
	c-6.83,0-12.363-5.533-12.363-12.359s5.533-12.361,12.363-12.361C631.768,439.118,637.301,444.653,637.301,451.479z"/>
<path fill="#009246" stroke="#000000" stroke-miterlimit="10" d="M667.305,517.477c0,6.826-5.541,12.361-12.363,12.361
	c-6.824,0-12.357-5.535-12.357-12.361c0-6.824,5.533-12.359,12.357-12.359C661.764,505.118,667.305,510.653,667.305,517.477z"/>
<path fill="#BC1E47" stroke="#000000" stroke-miterlimit="10" d="M702.499,479.479c0,16.324-13.232,29.561-29.555,29.561
	c-16.328,0-29.561-13.236-29.561-29.561c0-16.326,13.232-29.561,29.561-29.561C689.266,449.918,702.499,463.153,702.499,479.479z"/>
<circle fill="#009246" stroke="#000000" stroke-miterlimit="10" cx="510.942" cy="468.479" r="17.479"/>
<circle fill="#0081CD" stroke="#000000" stroke-miterlimit="10" cx="585.942" cy="455.479" r="15.002"/>
<text transform="matrix(1 0 0 1 678.9419 525.4771)" font-family="'Times-Italic'" font-size="26.6668">o</text>
<text transform="matrix(1 0 0 1 564.9419 349.479)" font-family="'Times-Italic'" font-size="26.6668">a</text>
<text transform="matrix(1 0 0 1 480.9419 411.479)" font-family="'Times-Italic'" font-size="26.6668">b</text>
<text transform="matrix(1 0 0 1 567.9419 415.479)" font-family="'Times-Italic'" font-size="26.6668">c</text>
<text transform="matrix(1 0 0 1 654.9419 412.479)" font-family="'Times-Italic'" font-size="26.6668">d</text>
<text transform="matrix(1 0 0 1 470.9419 476.0552)" font-family="'Times-Italic'" font-size="26.6668">f</text>
<text transform="matrix(1 0 0 1 504.9419 471.479)" font-family="'Times-Italic'" font-size="26.6668">g</text>
<text transform="matrix(1 0 0 1 501.9419 510.4771)" font-family="'Times-Italic'" font-size="26.6668">l</text>
<text transform="matrix(1 0 0 1 498.9419 531.4771)" font-family="'Times-Italic'" font-size="26.6668">p</text>
<text transform="matrix(1 0 0 1 546.9419 458.479)" font-family="'Times-Italic'" font-size="26.6668">h</text>
<text transform="matrix(1 0 0 1 579.9419 464.479)" font-family="'Times-Italic'" font-size="26.6668">i</text>
<text transform="matrix(1 0 0 1 573.9419 488.479)" font-family="'Times-Italic'" font-size="26.6668" letter-spacing="28">m</text>
<text transform="matrix(1 0 0 1 621.4995 458.0532)" font-family="'Times-Italic'" font-size="26.6668">j</text>
<text transform="matrix(1 0 0 1 669.9419 485.479)" font-family="'Times-Italic'" font-size="26.6668">k</text>
<text transform="matrix(1 0 0 1 648.9419 523.4771)" font-family="'Times-Italic'" font-size="26.6668">n</text>
<text transform="matrix(1 0 0 1 183.3838 45.3364)" font-family="'Times-Italic'" font-size="26.6668">a</text>
<text transform="matrix(1 0 0 1 438.9419 461.479)" font-family="'Times-Italic'" font-size="26.6668" letter-spacing="21">e</text>
</svg>
