<?xml version="1.0" encoding="utf-8"?>
<!-- Generator: Adobe Illustrator 15.1.0, SVG Export Plug-In . SVG Version: 6.00 Build 0)  -->
<!DOCTYPE svg PUBLIC "-//W3C//DTD SVG 1.1//EN" "http://www.w3.org/Graphics/SVG/1.1/DTD/svg11.dtd">
<svg version="1.1" id="Layer_1" xmlns="http://www.w3.org/2000/svg" xmlns:xlink="http://www.w3.org/1999/xlink" x="0px" y="0px"
	 width="633.331px" height="183.333px" viewBox="0 0 633.331 183.333" enable-background="new 0 0 633.331 183.333"
	 xml:space="preserve">
<polygon fill="#FCC210" points="12.402,99.562 12.402,179.562 71.398,141.189 145.152,141.189 145.188,67.586 92.402,99.562 "/>
<polygon fill="#FFFFFF" points="12.402,99.562 92.402,99.562 232.652,14.602 169.402,14.602 "/>
<polygon fill="#BC1F48" points="145.152,93.523 169.402,77.852 169.168,53.059 145.188,67.587 "/>
<g>
	<path fill="#BC1F48" d="M254.725,142.478l46.968-104.252l98.54,58.727c-23.518,38.599-69.621,56.355-116.641,52.076
		C273.349,148.097,263.69,146.461,254.725,142.478"/>
	<path fill="none" stroke="#231F20" stroke-linejoin="round" stroke-miterlimit="10" d="M254.725,142.478l46.968-104.252
		l98.54,58.727c-23.518,38.599-69.621,56.355-116.641,52.076C273.349,148.097,263.69,146.461,254.725,142.478z"/>
	<path fill="#FFFFFF" d="M400.256,96.969c-17.484,22-40.461,31.244-60.028,38.2c-0.002,0-38.535-96.944-38.535-96.944"/>
	<path fill="none" stroke="#231F20" stroke-linejoin="round" stroke-miterlimit="10" d="M400.256,96.969
		c-17.484,22-40.461,31.244-60.028,38.2c-0.002,0-38.535-96.944-38.535-96.944"/>
	<path fill="#BC1F48" d="M301.693,38.225l38.535,96.944c25.536-14.096,44.782-31.428,53.612-48.797"/>
	<path fill="none" stroke="#231F20" stroke-linejoin="round" stroke-miterlimit="10" d="M301.693,38.225l38.535,96.944
		c25.536-14.096,44.782-31.428,53.612-48.797"/>
	
		<line fill="none" stroke="#000000" stroke-linejoin="round" stroke-miterlimit="10" stroke-dasharray="3,3" x1="301.693" y1="38.225" x2="393.84" y2="86.372"/>
	
		<line fill="none" stroke="#000000" stroke-linejoin="round" stroke-miterlimit="10" x1="301.693" y1="38.225" x2="336.882" y2="126.754"/>
	<path fill="#FCC210" d="M254.725,142.478l46.968-104.252l92.147,48.148c0,0-23.373,33.379-77.674,49.201
		C280.444,145.983,254.725,142.478,254.725,142.478"/>
	<path fill="none" stroke="#231F20" stroke-linejoin="round" stroke-miterlimit="10" d="M254.725,142.478l46.968-104.252
		l92.147,48.148c0,0-23.373,33.379-77.674,49.201C280.444,145.983,254.725,142.478,254.725,142.478z"/>
	<path fill="#FFFFFF" d="M393.717,86.144c-18.535,21.538-36.059,27.216-55.6,35.56L301.57,37.998L393.717,86.144z"/>
	<path fill="none" stroke="#231F20" stroke-linejoin="round" stroke-miterlimit="10" d="M393.717,86.144
		c-18.535,21.538-36.059,27.216-55.6,35.56L301.57,37.998L393.717,86.144z"/>
	<path fill="#FCC210" d="M386.898,74.857c-8.83,17.369-23.246,32.75-48.782,46.847l-36.547-83.706L386.898,74.857z"/>
	<path fill="none" stroke="#231F20" stroke-linejoin="round" stroke-miterlimit="10" d="M386.898,74.857
		c-8.83,17.369-23.246,32.75-48.782,46.847l-36.547-83.706L386.898,74.857z"/>
	<path fill="#FFFFFF" d="M254.725,142.478l46.968-104.252l85.206,36.632c0,0-26.996,35.332-74.946,54.338
		C283.152,140.611,254.725,142.478,254.725,142.478"/>
	<path fill="none" stroke="#231F20" stroke-linejoin="round" stroke-miterlimit="10" d="M254.725,142.478l46.968-104.252
		l85.206,36.632c0,0-26.996,35.332-74.946,54.338C283.152,140.611,254.725,142.478,254.725,142.478z"/>
	<line fill="none" stroke="#231F20" stroke-miterlimit="10" x1="400.232" y1="96.952" x2="390.971" y2="91.433"/>
	
		<line fill="none" stroke="#231F20" stroke-width="0.5" stroke-linejoin="round" stroke-miterlimit="10" stroke-dasharray="3,3" x1="336.229" y1="117.379" x2="301.693" y2="38.225"/>
</g>
<g>
	<defs>
		<path id="SVGID_1_" d="M52.59,48.626c-10.388,10.388-10.389,27.23,0,37.618c6.968,6.969,16.841,9.263,25.722,6.882
			c4.238-1.53,8.266-3.816,11.872-6.859c0.007-0.008,0.015-0.016,0.023-0.023c10.389-10.388,10.389-27.23,0.001-37.618
			c-5.195-5.194-12.002-7.791-18.809-7.791C64.591,40.835,57.784,43.433,52.59,48.626"/>
	</defs>
	<radialGradient id="SVGID_2_" cx="71.3989" cy="67.4351" r="26.6001" gradientUnits="userSpaceOnUse">
		<stop  offset="0" style="stop-color:#FFFFFF"/>
		<stop  offset="1" style="stop-color:#1B80C4"/>
	</radialGradient>
	<use xlink:href="#SVGID_1_"  overflow="visible" fill="url(#SVGID_2_)"/>
	<clipPath id="SVGID_3_">
		<use xlink:href="#SVGID_1_"  overflow="visible"/>
	</clipPath>
	<defs>
		<filter id="Adobe_OpacityMaskFilter" filterUnits="userSpaceOnUse" x="14.865" y="11.638" width="113.067" height="113.066">
			<feColorMatrix  type="matrix" values="1 0 0 0 0  0 1 0 0 0  0 0 1 0 0  0 0 0 1 0"/>
		</filter>
	</defs>
	<mask maskUnits="userSpaceOnUse" x="14.865" y="11.638" width="113.067" height="113.066" id="SVGID_4_">
		<g filter="url(#Adobe_OpacityMaskFilter)">
			
				<radialGradient id="SVGID_5_" cx="-0.0049" cy="183.3467" r="1.0002" gradientTransform="matrix(-27.6105 -27.6105 -24.8494 24.8494 4620.9341 -4499.7573)" gradientUnits="userSpaceOnUse">
				<stop  offset="0" style="stop-color:#B3B3B3"/>
				<stop  offset="0.0475" style="stop-color:#B3B3B3"/>
				<stop  offset="0.078" style="stop-color:#ADADAD"/>
				<stop  offset="0.331" style="stop-color:#838383"/>
				<stop  offset="0.5604" style="stop-color:#656565"/>
				<stop  offset="0.7562" style="stop-color:#535353"/>
				<stop  offset="0.8956" style="stop-color:#4D4D4D"/>
				<stop  offset="1" style="stop-color:#4D4D4D"/>
			</radialGradient>
			<polygon clip-path="url(#SVGID_3_)" fill="url(#SVGID_5_)" points="71.398,124.704 14.865,68.171 71.398,11.638 127.932,68.171 
							"/>
		</g>
	</mask>
	
		<radialGradient id="SVGID_6_" cx="-0.0049" cy="183.3467" r="1.0002" gradientTransform="matrix(-27.6105 -27.6105 -24.8494 24.8494 4620.9341 -4499.7573)" gradientUnits="userSpaceOnUse">
		<stop  offset="0" style="stop-color:#FFFFFF"/>
		<stop  offset="1" style="stop-color:#1B80C4"/>
	</radialGradient>
	<polygon clip-path="url(#SVGID_3_)" mask="url(#SVGID_4_)" fill="url(#SVGID_6_)" points="71.398,124.704 14.865,68.171 
		71.398,11.638 127.932,68.171 	"/>
</g>
<g>
	<defs>
		<path id="SVGID_7_" d="M52.59,48.626c-10.388,10.388-10.389,27.23,0,37.618c10.387,10.388,27.229,10.388,37.617,0
			c10.389-10.388,10.389-27.23,0.001-37.618c-5.194-5.194-12.002-7.791-18.809-7.791C64.591,40.835,57.784,43.432,52.59,48.626"/>
	</defs>
	<clipPath id="SVGID_8_">
		<use xlink:href="#SVGID_7_"  overflow="visible"/>
	</clipPath>
	
		<circle clip-path="url(#SVGID_8_)" fill="none" stroke="#000000" stroke-width="0.25" stroke-miterlimit="10" cx="65.032" cy="56.396" r="39.047"/>
</g>
<g>
	<circle fill="none" stroke="#000000" stroke-width="0.25" stroke-miterlimit="10" cx="71.398" cy="67.435" r="26.6"/>
	<line fill="none" stroke="#000000" stroke-miterlimit="10" x1="12.402" y1="99.562" x2="169.402" y2="14.602"/>
	<polyline fill="none" stroke="#000000" stroke-miterlimit="10" points="12.402,179.562 12.402,99.562 92.402,99.562 	"/>
	<polyline fill="none" stroke="#000000" stroke-linejoin="round" stroke-miterlimit="10" points="71.398,67.435 145.152,67.435 
		145.152,141.189 71.398,141.189 71.398,99.562 	"/>
	<line fill="none" stroke="#000000" stroke-miterlimit="10" x1="92.402" y1="99.562" x2="232.765" y2="14.791"/>
	<line fill="none" stroke="#000000" stroke-miterlimit="10" x1="12.402" y1="179.562" x2="71.398" y2="141.189"/>
	
		<line fill="none" stroke="#000000" stroke-miterlimit="10" stroke-dasharray="6,3" x1="71.398" y1="141.189" x2="145.152" y2="93.524"/>
	<line fill="none" stroke="#000000" stroke-miterlimit="10" x1="145.152" y1="93.523" x2="169.402" y2="77.852"/>
	
		<line fill="none" stroke="#000000" stroke-miterlimit="10" stroke-dasharray="6,3" x1="71.398" y1="99.562" x2="71.398" y2="67.435"/>
	<line fill="none" stroke="#000000" stroke-miterlimit="10" x1="169.402" y1="14.602" x2="232.652" y2="14.602"/>
	
		<line fill="none" stroke="#000000" stroke-miterlimit="10" stroke-dasharray="6,3" x1="169.402" y1="53.059" x2="169.402" y2="14.602"/>
	<line fill="none" stroke="#000000" stroke-miterlimit="10" x1="169.402" y1="77.852" x2="169.402" y2="53.059"/>
	
		<line fill="none" stroke="#BE1E2D" stroke-miterlimit="10" stroke-dasharray="3,3" x1="71.398" y1="67.435" x2="188.833" y2="41.325"/>
	
		<line fill="none" stroke="#BE1E2D" stroke-miterlimit="10" stroke-dasharray="3,3" x1="71.398" y1="67.435" x2="92.402" y2="99.562"/>
</g>
<text transform="matrix(1 0 0 1 68.1943 64.9561)" fill="#010101" font-family="'Times-Italic'" font-size="14">o</text>
<text transform="matrix(1 0 0 1 3.3604 101.1738)" fill="#010101" font-family="'Times-Italic'" font-size="14">b</text>
<text transform="matrix(1 0 0 1 71.4004 152.3301)" fill="#010101" font-family="'Times-Italic'" font-size="14">a</text>
<text transform="matrix(1 0 0 1 294.3784 32.1118)" fill="#010101" font-family="'Times-Italic'" font-size="14">o</text>
<text transform="matrix(1 0 0 1 386.9043 69.3799)" fill="#010101" font-family="'Times-Italic'" font-size="14">b</text>
<text transform="matrix(1 0 0 1 243.1382 146.3662)" fill="#010101" font-family="'Times-Italic'" font-size="14">a</text>
<text transform="matrix(1 0 0 1 393.7227 82.498)" fill="#010101" font-family="'Times-Italic'" font-size="14">c</text>
<text transform="matrix(1 0 0 1 140.4624 64.9702)" fill="#010101" font-family="'Times-Italic'" font-size="14">c</text>
<g>
	<text transform="matrix(1 0 0 1 156.9517 14.7915)" fill="#010101" font-family="'Times-Italic'" font-size="14">d</text>
</g>
<text transform="matrix(1 0 0 1 403.1318 98.3857)" fill="#010101" font-family="'Times-Italic'" font-size="14">d</text>
<g>
	<path fill="#010101" d="M455.132,96.117c0-1.356,1.099-2.455,2.455-2.455c1.355,0,2.455,1.099,2.455,2.455
		c0,1.355-1.1,2.455-2.455,2.455C456.23,98.572,455.132,97.473,455.132,96.117"/>
	<circle fill="none" stroke="#010101" stroke-width="2" cx="457.587" cy="96.117" r="2.455"/>
	<path fill="#010101" d="M607.831,96.117c0-1.356,1.099-2.455,2.455-2.455s2.455,1.099,2.455,2.455c0,1.355-1.099,2.455-2.455,2.455
		S607.831,97.473,607.831,96.117"/>
	<circle fill="none" stroke="#010101" stroke-width="2" cx="610.286" cy="96.117" r="2.455"/>
	<path fill="#FCC210" d="M607.831,96.117H458.042c0,0,41.542-27.107,89.745-29.654c50.699-2.679,64.954,1.177,64.954,1.177
		s-16.751,1.654-38.074,7.361c-18.271,4.891-35.564,10.584-35.564,10.584s13.555,0.546,32.064,2.333
		C592.751,90.001,607.831,96.117,607.831,96.117"/>
	<path fill="none" stroke="#231F20" stroke-linejoin="round" stroke-miterlimit="10" d="M607.831,96.117H458.042
		c0,0,41.542-27.107,89.745-29.654c50.699-2.679,64.954,1.177,64.954,1.177s-16.751,1.654-38.074,7.361
		c-18.271,4.891-35.564,10.584-35.564,10.584s13.555,0.546,32.064,2.333C592.751,90.001,607.831,96.117,607.831,96.117z"/>
	<path d="M535.392,85.585c0-2.05,1.661-3.71,3.71-3.71s3.71,1.66,3.71,3.71c0,2.048-1.661,3.71-3.71,3.71
		S535.392,87.633,535.392,85.585"/>
	<path fill="#010101" d="M609.545,67.972c0-1.356,1.099-2.455,2.455-2.455c1.355,0,2.455,1.099,2.455,2.455
		c0,1.355-1.1,2.455-2.455,2.455C610.644,70.427,609.545,69.327,609.545,67.972"/>
	<circle fill="none" stroke="#010101" stroke-width="2" cx="612" cy="67.972" r="2.455"/>
	<path fill="#BC1F48" d="M607.831,96.117H458.042c0,0,41.534,27.269,89.745,29.654c44.94,2.223,63.607-8.944,63.607-8.944
		s-22.722,0.21-35.395-1.809c-14.918-2.376-37.572-7.639-37.572-7.639s34.618-2.475,46.736-5.212
		C595.164,99.909,607.831,96.117,607.831,96.117"/>
	<path fill="none" stroke="#231F20" stroke-linejoin="round" stroke-miterlimit="10" d="M607.831,96.117H458.042
		c0,0,41.534,27.269,89.745,29.654c44.94,2.223,63.607-8.944,63.607-8.944s-22.722,0.21-35.395-1.809
		c-14.918-2.376-37.572-7.639-37.572-7.639s34.618-2.475,46.736-5.212C595.164,99.909,607.831,96.117,607.831,96.117z"/>
	<path fill="#010101" d="M607.831,117.474c0,1.356,1.099,2.455,2.455,2.455s2.455-1.099,2.455-2.455
		c0-1.355-1.099-2.455-2.455-2.455S607.831,116.118,607.831,117.474"/>
	<circle fill="none" stroke="#010101" stroke-width="2" cx="610.286" cy="117.474" r="2.455"/>
</g>
<text transform="matrix(1 0 0 1 618.9023 70.4268)" fill="#010101" font-family="'Times-Italic'" font-size="14">b</text>
<text transform="matrix(1 0 0 1 443.1182 100.5547)" fill="#010101" font-family="'Times-Italic'" font-size="14">a</text>
<text transform="matrix(1 0 0 1 619.2939 97.4326)" fill="#010101" font-family="'Times-Italic'" font-size="14">c</text>
<text transform="matrix(1 0 0 1 618.6924 123.6963)" fill="#010101" font-family="'Times-Italic'" font-size="14">d</text>
<g>
	<path d="M534.718,107.381c0-2.051,1.661-3.71,3.71-3.71s3.71,1.659,3.71,3.71c0,2.048-1.661,3.71-3.71,3.71
		S534.718,109.429,534.718,107.381"/>
</g>
</svg>
