<svg xmlns="http://www.w3.org/2000/svg" width="333" height="287">
    <g fill="none" stroke="#E4BC96" stroke-dasharray="3">
        <path d="M91.621 143.713l224.104 128.961m-149.279.639V14.112M15.461 273.346L241.27 143.713M16.798 273.311L166.446 14.112l149.279 258.562z"/>
        <path d="M91.621 143.713H241.27l-74.824 129.6z"/>
    </g>
    <g stroke="#000">
        <g fill="#003CFF">
            <circle cx="166.446" cy="186.911" r="5.4"/>
            <circle cx="91.621" cy="143.713" r="5.4"/>
            <circle cx="166.446" cy="273.313" r="5.4"/>
            <circle cx="241.27" cy="143.713" r="5.4"/>
            <circle cx="166.446" cy="14.113" r="5.4"/>
            <circle cx="315.725" cy="272.674" r="5.4"/>
            <circle cx="16.798" cy="273.311" r="5.4"/>
        </g>
        <g fill="red">
            <circle cx="166.445" cy="143.711" r="3.6"/>
            <circle cx="203.857" cy="208.514" r="3.6"/>
            <circle cx="129.033" cy="208.512" r="3.6"/>
            <circle cx="41.737" cy="230.111" r="3.6"/>
            <circle cx="291.153" cy="230.112" r="3.601"/>
            <circle cx="216.328" cy="273.311" r="3.6"/>
        </g>
    </g>
</svg>
