<svg xmlns="http://www.w3.org/2000/svg" width="524.25" height="524.25">
    <g fill="none" stroke="#0072BC" stroke-width="2">
        <path d="M263.25 206.804c20.25 0 30.446 14.541 41.186-.243C315.176 191.778 297 189 290.25 189s-27-.5-27-13.633m0 31.437c-20.25 0-30.446 14.541-41.186-.243C211.323 191.778 229.499 189 236.249 189s27-.5 27-13.633m-53.682 70.441c6.258-19.259 23.237-24.462 12.496-39.245-10.741-14.783-19 1.645-21.085 8.064-2.086 6.419-8.819 25.524-21.31 21.466m29.899 9.715c-6.258 19.259 4.421 33.449-12.958 39.095-17.379 5.646-14.405-12.498-12.319-18.918 2.086-6.419 7.868-25.833-4.622-29.892"/>
        <path d="M230.073 308.915c-16.383-11.903-16.084-29.659-33.462-24.012-17.379 5.647-4.307 18.578 1.154 22.545 5.46 3.968 21.549 16.274 13.831 26.899"/>
        <path d="M230.073 308.915c16.383 11.903 33.178 6.132 33.178 24.404-.001 18.274-16.338 9.838-21.799 5.87s-22.138-15.467-29.856-4.842m84.833-25.432c-16.384 11.901-33.178 6.131-33.177 24.404 0 18.272 16.337 9.837 21.798 5.868 5.46-3.967 22.138-15.465 29.856-4.841m-18.477-25.431c16.383-11.903 16.084-29.66 33.462-24.013 17.379 5.647 4.309 18.578-1.154 22.545-5.461 3.969-21.549 16.275-13.83 26.899m2.027-88.54c6.257 19.259-4.422 33.449 12.958 39.095 17.378 5.646 14.403-12.498 12.316-18.918-2.085-6.418-7.866-25.833 4.622-29.891m-29.896 9.714c-6.258-19.259-23.238-24.462-12.497-39.245 10.741-14.783 19 1.644 21.085 8.064 2.086 6.42 8.82 25.524 21.309 21.466M243 263.25h40.5m-20.25-13.5c0 7.456-6.044 13.5-13.5 13.5m27 0c-7.456 0-13.5-6.044-13.5-13.5"/>
        <path d="M290.251 226.42c11.317 8.311 18.663 21.712 18.663 36.83 0 25.22-20.444 45.665-45.665 45.665-25.22 0-45.665-20.444-45.665-45.665 0-15.118 7.549-28.252 18.665-36.831 13.5-10.418 27-10.418 27 23.332m-26.84-23.446l-26.842 19.502m10.252 31.554l10.253 31.554m33.178 0h33.177m10.253-31.554l10.252-31.553m-26.841-19.501l-26.841-19.502m0-38.055c0-7.456 6.044-13.5 13.5-13.5m-13.5-6.75c0-7.456 6.044-13.5 13.5-13.5m-13.5-6.75c0-7.456 6.044-13.5 13.5-13.5m-13.5-6.75c0-7.456 6.044-13.5 13.5-13.5m-13.5-6.75c0-7.456 6.044-13.5 13.5-13.5"/>
        <path d="M276.75 54c-7.456 0-13.5 6.044-13.5 13.5v108m27-135c0 7.456-6.044 13.5-13.5 13.5m13.5 6.75c0 7.456-6.044 13.5-13.5 13.5m13.5 6.75c0 7.456-6.044 13.5-13.5 13.5m13.5 6.75c0 7.456-6.044 13.5-13.5 13.5m13.5 6.75c0 7.456-6.044 13.5-13.5 13.5m13.5 6.75c0 7.456-6.044 13.5-13.5 13.5m-103.374 78.798c-7.091-2.304-10.972-9.92-8.667-17.011m-10.592 10.753c-7.091-2.304-10.971-9.92-8.668-17.011m-10.591 10.754c-7.09-2.304-10.971-9.92-8.667-17.011m-10.592 10.753c-7.09-2.304-10.971-9.92-8.667-17.011m-10.591 10.754c-7.092-2.304-10.972-9.92-8.668-17.011"/>
        <path d="M68.414 185.749c-2.304 7.091 1.576 14.707 8.667 17.011l102.714 33.374M59.747 168.738c7.09 2.304 10.971 9.92 8.667 17.011m10.592-10.754c7.09 2.304 10.971 9.92 8.667 17.012m10.592-10.754c7.091 2.304 10.971 9.92 8.667 17.011m10.591-10.753c7.091 2.304 10.972 9.92 8.667 17.011m10.592-10.754c7.09 2.304 10.972 9.92 8.667 17.011m10.592-10.753c7.091 2.304 10.971 9.92 8.667 17.011m42.997 122.664c-4.383 6.033-12.824 7.369-18.856 2.986m6.954 13.397c-4.383 6.031-12.825 7.369-18.857 2.986m6.954 13.397c-4.383 6.031-12.825 7.369-18.857 2.986m6.954 13.397c-4.382 6.031-12.824 7.369-18.856 2.986m6.954 13.395c-4.383 6.032-12.825 7.37-18.856 2.987"/>
        <path d="M129.335 424.602c6.032 4.382 14.475 3.045 18.856-2.987l63.481-87.374m-101.193 93.346c4.382-6.031 12.825-7.368 18.856-2.985m-6.954-13.398c4.382-6.031 12.825-7.368 18.857-2.985m-6.954-13.397c4.382-6.032 12.825-7.369 18.857-2.986m-6.954-13.397c4.382-6.032 12.825-7.369 18.856-2.986m-6.954-13.396c4.382-6.031 12.825-7.369 18.857-2.986m-6.955-13.397c4.382-6.031 12.825-7.368 18.857-2.986m129.949-2.987c4.382 6.032 3.044 14.473-2.987 18.855m14.889-2.473c4.382 6.032 3.044 14.475-2.987 18.856m14.89-2.473c4.382 6.032 3.045 14.474-2.987 18.856m14.889-2.473c4.382 6.032 3.045 14.474-2.986 18.856m14.888-2.475c4.383 6.033 3.047 14.475-2.986 18.857"/>
        <path d="M375.323 440.471c6.031-4.383 7.368-12.825 2.985-18.856l-63.48-87.374m57.508 125.086c-4.383-6.031-3.045-14.475 2.987-18.856m-14.89 2.473c-4.382-6.031-3.044-14.474 2.987-18.856m-14.889 2.474c-4.384-6.032-3.046-14.475 2.986-18.857m-14.889 2.475c-4.383-6.032-3.045-14.475 2.986-18.857m-14.889 2.474c-4.381-6.031-3.045-14.475 2.987-18.857m-14.89 2.474c-4.382-6.031-3.045-14.475 2.987-18.857m37.316-124.511c7.091-2.304 14.705 1.578 17.01 8.668m2.248-14.924c7.092-2.304 14.707 1.577 17.012 8.667m2.248-14.925c7.091-2.303 14.707 1.577 17.011 8.667m2.247-14.925c7.091-2.304 14.707 1.576 17.011 8.667m2.247-14.924c7.093-2.304 14.708 1.576 17.013 8.668"/>
        <path d="M466.431 211.426c-2.305-7.09-9.921-10.972-17.012-8.667l-102.714 33.374m136.736-16.038c-7.091 2.304-14.708-1.577-17.011-8.668m-2.248 14.925c-7.09 2.304-14.707-1.577-17.01-8.667m-2.248 14.924c-7.092 2.305-14.707-1.577-17.012-8.668m-2.248 14.926c-7.091 2.304-14.707-1.577-17.011-8.668m-2.249 14.926c-7.089 2.303-14.707-1.577-17.01-8.668m-2.248 14.926c-7.09 2.303-14.706-1.578-17.011-8.668"/>
        <circle cx="263.25" cy="263.25" r="249.75"/>
        <path d="M290.25 141.75V40.5c0-14.912-12.088-27-27-27m27 27c0-13.5 11.25-25.275 33.375-19.65M156.041 200.025l-96.295-31.288c-14.182-4.607-29.414 3.154-34.022 17.335m34.022-17.335c-12.839-4.171-20.562-18.51-8.375-37.813m118.62 214.75l-59.514 81.914c-8.765 12.063-6.09 28.949 5.974 37.714m-5.973-37.714c-7.934 10.921-23.957 13.836-38.551-3.721m240.895-46.453l59.514 81.914c8.766 12.063 25.65 14.738 37.714 5.973m-37.714-5.973c7.936 10.92 5.756 27.061-15.451 35.515m30.261-243.46s77.037-25.03 96.296-31.289c14.182-4.608 21.943-19.84 17.335-34.022m-17.336 34.022c12.838-4.172 27.515 2.888 29.002 25.669"/>
    </g>
    <g fill="#ED1C24" stroke="#000">
        <circle cx="243" cy="263.25" r="6.75"/>
        <circle cx="283.5" cy="263.25" r="6.75"/>
        <circle cx="263.25" cy="206.804" r="6.75"/>
        <circle cx="209.567" cy="245.807" r="6.75"/>
        <circle cx="230.072" cy="308.914" r="6.75"/>
        <circle cx="296.427" cy="308.914" r="6.75"/>
        <circle cx="316.932" cy="245.807" r="6.75"/>
        <circle cx="276.75" cy="155.25" r="6.75"/>
        <circle cx="276.75" cy="135" r="6.75"/>
        <circle cx="276.75" cy="114.75" r="6.75"/>
        <circle cx="276.75" cy="94.5" r="6.75"/>
        <circle cx="276.75" cy="74.25" r="6.75"/>
        <circle cx="276.75" cy="54" r="6.75"/>
        <circle cx="164.708" cy="217.037" r="6.75"/>
        <circle cx="145.449" cy="210.779" r="6.75"/>
        <circle cx="126.19" cy="204.522" r="6.75"/>
        <circle cx="106.932" cy="198.264" r="6.75"/>
        <circle cx="87.673" cy="192.006" r="6.75"/>
        <circle cx="68.414" cy="185.749" r="6.75"/>
        <circle cx="188.849" cy="342.688" r="6.75"/>
        <circle cx="176.946" cy="359.071" r="6.75"/>
        <circle cx="165.043" cy="375.454" r="6.75"/>
        <circle cx="153.14" cy="391.836" r="6.75"/>
        <circle cx="141.238" cy="408.218" r="6.75"/>
        <circle cx="129.335" cy="424.601" r="6.75"/>
        <circle cx="315.81" cy="358.558" r="6.75"/>
        <circle cx="327.712" cy="374.94" r="6.75"/>
        <circle cx="339.615" cy="391.323" r="6.75"/>
        <circle cx="351.518" cy="407.706" r="6.75"/>
        <circle cx="363.419" cy="424.087" r="6.75"/>
        <circle cx="375.322" cy="440.47" r="6.75"/>
        <circle cx="370.135" cy="242.715" r="6.75"/>
        <circle cx="389.395" cy="236.457" r="6.75"/>
        <circle cx="408.654" cy="230.199" r="6.749"/>
        <circle cx="427.913" cy="223.941" r="6.75"/>
        <circle cx="447.171" cy="217.685" r="6.75"/>
        <circle cx="466.43" cy="211.427" r="6.75"/>
    </g>
</svg>
