<svg xmlns="http://www.w3.org/2000/svg" width="702" height="630"><path d="M306 135h65.8M306 495h65.8" fill="none" stroke="#fec200" stroke-width="20"/><path d="M414 135c-19.9 7.4-44.5 20-59.8 33.3l12-33.3-12-33.3c15.3 13.3 39.9 25.9 59.8 33.3zm0 360c-19.9 7.4-44.5 20-59.8 33.3l12-33.3-12-33.3c15.3 13.3 39.9 25.9 59.8 33.3z" fill="#fec200"/><path d="M27 0v270M99 0v270M171 0v270M243 0v270M0 171h270M0 243h270M0 99h270M0 27h270M459 0v270M531 0v270M603 0v270M675 0v270m-243-99h270m-270 72h270M432 99h270M432 27h270M27 360v270m72-270v270m72-270v270m72-270v270M0 531h270M0 603h270M0 459h270M0 387h270m189-27v270m72-270v270m72-270v270m72-270v270m-243-99h270m-270 72h270M432 459h270m-270-72h270" fill="none" stroke="#0081cd"/><path d="M36 36h54v54H36zm72 0h54v54h-54zm432 72h54v54h-54zM36 396h54v54H36zm72 0h54v54h-54zM36 540h54v54H36zm72 0h54v54h-54zm432-72h54v54h-54z" fill="#bc1e46"/></svg>