<svg xmlns="http://www.w3.org/2000/svg" width="1134" height="342"><path d="M27 0v270M99 0v270M171 0v270M243 0v270M27 0v288M99 0v288M171 0v288M243 0v288M27 18v288M99 18v288m72-288v288m72-288v288M27 36v288M99 36v288m72-288v288m72-288v288M27 54v288M99 54v288m72-288v288m72-288v288M315 0v270M387 0v270M459 0v270M531 0v270M315 0v288M387 0v288M459 0v288M531 0v288M315 18v288m72-288v288m72-288v288m72-288v288M315 36v288m72-288v288m72-288v288m72-288v288M315 54v288m72-288v288m72-288v288m72-288v288M603 0v270M675 0v270M747 0v270M819 0v270M603 0v288M675 0v288M747 0v288M819 0v288M603 18v288m72-288v288m72-288v288m72-288v288M603 36v288m72-288v288m72-288v288m72-288v288M603 54v288m72-288v288m72-288v288m72-288v288M891 0v270M963 0v270m72-270v270m72-270v270M891 0v288M963 0v288m72-288v288m72-288v288M891 18v288m72-288v288m72-288v288m72-288v288M891 36v288m72-288v288m72-288v288m72-288v288M891 54v288m72-288v288m72-288v288m72-288v288M0 171h1134M0 243h1134M0 315h1134M0 99h1134M0 27h1134" fill="none" stroke="#0081cd"/><path d="M36 180h54v54H36zm0-72h54v54H36zm144 72h54v54h-54zm0-72h54v54h-54zm144 72h54v54h-54zm0-72h54v54h-54zm144 72h54v54h-54zm0-72h54v54h-54zm144 72h54v54h-54zm0-72h54v54h-54zm144 72h54v54h-54zm0-72h54v54h-54zm144 72h54v54h-54zm0-72h54v54h-54zm144 72h54v54h-54zm0-72h54v54h-54z" fill="#bc1e46"/></svg>