<svg xmlns="http://www.w3.org/2000/svg" width="513" height="144">
    <path d="M19.143 92.125L54 31.751l34.856 60.374zm105.749-57.232h74.216v74.216h-74.216zm127.352 79.564L233.18 55.784l49.91-36.262L333 55.784l-19.063 58.673zm146.994 14.287L366.478 72l32.76-56.743h65.522L497.521 72l-32.761 56.744z" fill="none" stroke="#000" stroke-width="2"/>
    <g fill="#0F0" stroke="#000" stroke-width="2">
        <circle cx="54" cy="31.751" r="10"/>
        <circle cx="19.143" cy="92.125" r="10"/>
        <circle cx="88.856" cy="92.125" r="10"/>
        <circle cx="124.892" cy="34.893" r="10"/>
        <circle cx="124.892" cy="109.108" r="10"/>
        <circle cx="199.107" cy="34.893" r="10"/>
        <circle cx="198" cy="107" r="10"/>
        <circle cx="231" cy="55" r="10"/>
        <circle cx="283.09" cy="19.522" r="10"/>
        <circle cx="333" cy="55.784" r="10"/>
        <circle cx="313.937" cy="114.457" r="10"/>
        <circle cx="252.244" cy="114.457" r="10"/>
        <circle cx="366.478" cy="72" r="10"/>
        <circle cx="399.238" cy="15.257" r="10"/>
        <circle cx="464.76" cy="15.257" r="10"/>
        <circle cx="497.521" cy="72" r="10"/>
        <circle cx="464.76" cy="128.744" r="10"/>
        <circle cx="399.238" cy="128.744" r="10"/>
    </g>
</svg>
