<svg xmlns="http://www.w3.org/2000/svg" width="504" height="162">
    <g fill="none" stroke="#000" stroke-width="2">
        <path d="M108.001 53.999L72 81l36.001 27m251.998.001l-90-27 90-27.001m.001 0v54.001m38.185 38.185h54.001m0 0l38.184-38.185m-.002.002V54.002m0 0l-38.183-38.184m0 0l-54-.001"/>
        <path d="M398.185 15.817L360 54l-36 27.001 36 27 38.185 38.185"/>
        <path d="M360 54l36 27.001-36 27 90-27zm-252 54L18 81l90-27m.001 0v54m0-54l36 27-36 27 90-27z"/>
    </g>
    <g fill="#0F0" stroke="#000" stroke-width="2">
        <circle cx="269.999" cy="81.001" r="10"/>
        <circle cx="360" cy="54" r="10"/>
        <circle cx="360" cy="108.001" r="10"/>
        <circle cx="396" cy="81.001" r="10"/>
        <circle cx="324" cy="81.001" r="10"/>
        <circle cx="450" cy="81.001" r="10"/>
        <circle cx="398.185" cy="15.817" r="10"/>
        <circle cx="452.185" cy="15.818" r="10"/>
        <circle cx="490.368" cy="54.002" r="10"/>
        <circle cx="490.368" cy="108.003" r="10"/>
        <circle cx="452.186" cy="146.186" r="10"/>
        <circle cx="396.52" cy="145.84" r="10"/>
        <circle cx="18" cy="81" r="10"/>
        <circle cx="108.001" cy="54" r="10"/>
        <circle cx="108.001" cy="108" r="10"/>
        <circle cx="144.001" cy="81" r="10"/>
        <circle cx="72.001" cy="81" r="10"/>
        <circle cx="198.001" cy="81" r="10"/>
    </g>
</svg>
