<?xml version="1.0" encoding="utf-8"?>
<!-- Generator: Adobe Illustrator 15.1.0, SVG Export Plug-In . SVG Version: 6.00 Build 0)  -->
<!DOCTYPE svg PUBLIC "-//W3C//DTD SVG 1.1//EN" "http://www.w3.org/Graphics/SVG/1.1/DTD/svg11.dtd">
<svg version="1.1" id="Layer_1" xmlns="http://www.w3.org/2000/svg" xmlns:xlink="http://www.w3.org/1999/xlink" x="0px" y="0px"
	 width="612px" height="450px" viewBox="0 0 612 450" enable-background="new 0 0 612 450" xml:space="preserve">
<g opacity="0.8">
	<polygon fill="#C49A6C" stroke="#231F20" stroke-miterlimit="10" points="238.5,225 346.5,117 360,117 306,171 	"/>
	<polygon fill="#C49A6C" stroke="#231F20" stroke-miterlimit="10" points="333,252 441,144 454.5,144 400.5,198 	"/>
	<polygon fill="#A97C50" stroke="#231F20" stroke-miterlimit="10" points="144,198 211.5,144 292.5,171 306,252 	"/>
	<polygon fill="#C49A6C" stroke="#231F20" stroke-miterlimit="10" points="144,198 252,90 265.5,90 211.5,144 	"/>
	<path fill="#FFFFFF" stroke="#231F20" stroke-miterlimit="10" d="M211.5,144"/>
	<polygon fill="#8B5E3C" stroke="#231F20" stroke-miterlimit="10" points="292.5,171 346.5,117 414,144 306,252 	"/>
	<polygon fill="#C49A6C" stroke="#231F20" stroke-miterlimit="10" points="211.5,144 292.5,171 346.5,117 265.5,90 	"/>
	<line fill="#FFFFFF" stroke="#231F20" stroke-miterlimit="10" x1="221.625" y1="147.375" x2="275.625" y2="93.375"/>
	<line fill="#FFFFFF" stroke="#231F20" stroke-miterlimit="10" x1="231.75" y1="150.75" x2="285.75" y2="96.75"/>
	<line fill="#FFFFFF" stroke="#231F20" stroke-miterlimit="10" x1="241.875" y1="154.125" x2="295.875" y2="100.125"/>
	<line fill="#FFFFFF" stroke="#231F20" stroke-miterlimit="10" x1="252" y1="157.5" x2="306" y2="103.5"/>
	<line fill="#FFFFFF" stroke="#231F20" stroke-miterlimit="10" x1="262.125" y1="160.875" x2="316.125" y2="106.875"/>
	<line fill="#FFFFFF" stroke="#231F20" stroke-miterlimit="10" x1="272.25" y1="164.25" x2="326.25" y2="110.25"/>
	<line fill="#FFFFFF" stroke="#231F20" stroke-miterlimit="10" x1="282.375" y1="167.625" x2="336.375" y2="113.625"/>
	<line fill="#FFFFFF" stroke="#231F20" stroke-miterlimit="10" x1="299.25" y1="164.25" x2="218.25" y2="137.25"/>
	<line fill="#FFFFFF" stroke="#231F20" stroke-miterlimit="10" x1="306" y1="157.5" x2="225" y2="130.5"/>
	<line fill="#FFFFFF" stroke="#231F20" stroke-miterlimit="10" x1="231.75" y1="123.75" x2="312.75" y2="150.75"/>
	<line fill="#FFFFFF" stroke="#231F20" stroke-miterlimit="10" x1="319.5" y1="144" x2="238.5" y2="117"/>
	<line fill="#FFFFFF" stroke="#231F20" stroke-miterlimit="10" x1="245.25" y1="110.25" x2="326.25" y2="137.25"/>
	<line fill="#FFFFFF" stroke="#231F20" stroke-miterlimit="10" x1="333" y1="130.5" x2="252" y2="103.5"/>
	<line fill="#FFFFFF" stroke="#231F20" stroke-miterlimit="10" x1="339.75" y1="123.75" x2="258.75" y2="96.75"/>
	<polygon fill="#A97C50" stroke="#231F20" stroke-miterlimit="10" points="238.5,225 306,171 387,198 400.5,279 	"/>
	<path fill="#FFFFFF" stroke="#231F20" stroke-miterlimit="10" d="M306,171"/>
	<polygon fill="#8B5E3C" stroke="#231F20" stroke-miterlimit="10" points="387,198 441,144 508.5,171 400.5,279 	"/>
	<polygon fill="#C49A6C" stroke="#231F20" stroke-miterlimit="10" points="306,171 387,198 441,144 360,117 	"/>
	<line fill="#FFFFFF" stroke="#231F20" stroke-miterlimit="10" x1="316.125" y1="174.375" x2="370.125" y2="120.375"/>
	<line fill="#FFFFFF" stroke="#231F20" stroke-miterlimit="10" x1="326.25" y1="177.75" x2="380.25" y2="123.75"/>
	<line fill="#FFFFFF" stroke="#231F20" stroke-miterlimit="10" x1="336.375" y1="181.125" x2="390.375" y2="127.125"/>
	<line fill="#FFFFFF" stroke="#231F20" stroke-miterlimit="10" x1="346.5" y1="184.5" x2="400.5" y2="130.5"/>
	<line fill="#FFFFFF" stroke="#231F20" stroke-miterlimit="10" x1="356.625" y1="187.875" x2="410.625" y2="133.875"/>
	<line fill="#FFFFFF" stroke="#231F20" stroke-miterlimit="10" x1="366.75" y1="191.25" x2="420.75" y2="137.25"/>
	<line fill="#FFFFFF" stroke="#231F20" stroke-miterlimit="10" x1="376.875" y1="194.625" x2="430.875" y2="140.625"/>
	<line fill="#FFFFFF" stroke="#231F20" stroke-miterlimit="10" x1="393.75" y1="191.25" x2="312.75" y2="164.25"/>
	<line fill="#FFFFFF" stroke="#231F20" stroke-miterlimit="10" x1="400.5" y1="184.5" x2="319.5" y2="157.5"/>
	<line fill="#FFFFFF" stroke="#231F20" stroke-miterlimit="10" x1="326.25" y1="150.75" x2="407.25" y2="177.75"/>
	<line fill="#FFFFFF" stroke="#231F20" stroke-miterlimit="10" x1="414" y1="171" x2="333" y2="144"/>
	<line fill="#FFFFFF" stroke="#231F20" stroke-miterlimit="10" x1="339.75" y1="137.25" x2="420.75" y2="164.25"/>
	<line fill="#FFFFFF" stroke="#231F20" stroke-miterlimit="10" x1="427.5" y1="157.5" x2="346.5" y2="130.5"/>
	<line fill="#FFFFFF" stroke="#231F20" stroke-miterlimit="10" x1="434.25" y1="150.75" x2="353.25" y2="123.75"/>
	<polygon fill="#A97C50" stroke="#231F20" stroke-miterlimit="10" points="333,252 400.5,198 481.5,225 495,306 	"/>
	<path fill="#FFFFFF" stroke="#231F20" stroke-miterlimit="10" d="M400.5,198"/>
	<polygon fill="#8B5E3C" stroke="#231F20" stroke-miterlimit="10" points="481.5,225 535.5,171 603,198 495,306 	"/>
	<polygon fill="#C49A6C" stroke="#231F20" stroke-miterlimit="10" points="400.5,198 481.5,225 535.5,171 454.5,144 	"/>
	<line fill="#FFFFFF" stroke="#231F20" stroke-miterlimit="10" x1="410.625" y1="201.375" x2="464.625" y2="147.375"/>
	<line fill="#FFFFFF" stroke="#231F20" stroke-miterlimit="10" x1="420.75" y1="204.75" x2="474.75" y2="150.75"/>
	<line fill="#FFFFFF" stroke="#231F20" stroke-miterlimit="10" x1="430.875" y1="208.125" x2="484.875" y2="154.125"/>
	<line fill="#FFFFFF" stroke="#231F20" stroke-miterlimit="10" x1="441" y1="211.5" x2="495" y2="157.5"/>
	<line fill="#FFFFFF" stroke="#231F20" stroke-miterlimit="10" x1="451.125" y1="214.875" x2="505.125" y2="160.875"/>
	<line fill="#FFFFFF" stroke="#231F20" stroke-miterlimit="10" x1="461.25" y1="218.25" x2="515.25" y2="164.25"/>
	<line fill="#FFFFFF" stroke="#231F20" stroke-miterlimit="10" x1="471.375" y1="221.625" x2="525.375" y2="167.625"/>
	<line fill="#FFFFFF" stroke="#231F20" stroke-miterlimit="10" x1="488.25" y1="218.25" x2="407.25" y2="191.25"/>
	<line fill="#FFFFFF" stroke="#231F20" stroke-miterlimit="10" x1="495" y1="211.5" x2="414" y2="184.5"/>
	<line fill="#FFFFFF" stroke="#231F20" stroke-miterlimit="10" x1="420.75" y1="177.75" x2="501.75" y2="204.75"/>
	<line fill="#FFFFFF" stroke="#231F20" stroke-miterlimit="10" x1="508.5" y1="198" x2="427.5" y2="171"/>
	<line fill="#FFFFFF" stroke="#231F20" stroke-miterlimit="10" x1="434.25" y1="164.25" x2="515.25" y2="191.25"/>
	<line fill="#FFFFFF" stroke="#231F20" stroke-miterlimit="10" x1="522" y1="184.5" x2="441" y2="157.5"/>
	<line fill="#FFFFFF" stroke="#231F20" stroke-miterlimit="10" x1="528.75" y1="177.75" x2="447.75" y2="150.75"/>
	<polygon fill="#C49A6C" stroke="#231F20" stroke-miterlimit="10" points="171,292.5 279,184.5 292.5,184.5 238.5,238.5 	"/>
	<polygon fill="#C49A6C" stroke="#231F20" stroke-miterlimit="10" points="265.5,319.5 373.5,211.5 387,211.5 333,265.5 	"/>
	<polygon fill="#A97C50" stroke="#231F20" stroke-miterlimit="10" points="76.5,265.5 144,211.5 225,238.5 238.5,319.5 	"/>
	<polygon fill="#C49A6C" stroke="#231F20" stroke-miterlimit="10" points="76.5,265.5 184.5,157.5 198,157.5 144,211.5 	"/>
	<path fill="#FFFFFF" stroke="#231F20" stroke-miterlimit="10" d="M144,211.5"/>
	<polygon fill="#8B5E3C" stroke="#231F20" stroke-miterlimit="10" points="225,238.5 279,184.5 346.5,211.5 238.5,319.5 	"/>
	<polygon fill="#C49A6C" stroke="#231F20" stroke-miterlimit="10" points="144,211.5 225,238.5 279,184.5 198,157.5 	"/>
	<line fill="#FFFFFF" stroke="#231F20" stroke-miterlimit="10" x1="154.125" y1="214.875" x2="208.125" y2="160.875"/>
	<line fill="#FFFFFF" stroke="#231F20" stroke-miterlimit="10" x1="164.25" y1="218.25" x2="218.25" y2="164.25"/>
	<line fill="#FFFFFF" stroke="#231F20" stroke-miterlimit="10" x1="174.375" y1="221.625" x2="228.375" y2="167.625"/>
	<line fill="#FFFFFF" stroke="#231F20" stroke-miterlimit="10" x1="184.5" y1="225" x2="238.5" y2="171"/>
	<line fill="#FFFFFF" stroke="#231F20" stroke-miterlimit="10" x1="194.625" y1="228.375" x2="248.625" y2="174.375"/>
	<line fill="#FFFFFF" stroke="#231F20" stroke-miterlimit="10" x1="204.75" y1="231.75" x2="258.75" y2="177.75"/>
	<line fill="#FFFFFF" stroke="#231F20" stroke-miterlimit="10" x1="214.875" y1="235.125" x2="268.875" y2="181.125"/>
	<line fill="#FFFFFF" stroke="#231F20" stroke-miterlimit="10" x1="231.75" y1="231.75" x2="150.75" y2="204.75"/>
	<line fill="#FFFFFF" stroke="#231F20" stroke-miterlimit="10" x1="238.5" y1="225" x2="157.5" y2="198"/>
	<line fill="#FFFFFF" stroke="#231F20" stroke-miterlimit="10" x1="164.25" y1="191.25" x2="245.25" y2="218.25"/>
	<line fill="#FFFFFF" stroke="#231F20" stroke-miterlimit="10" x1="252" y1="211.5" x2="171" y2="184.5"/>
	<line fill="#FFFFFF" stroke="#231F20" stroke-miterlimit="10" x1="177.75" y1="177.75" x2="258.75" y2="204.75"/>
	<line fill="#FFFFFF" stroke="#231F20" stroke-miterlimit="10" x1="265.5" y1="198" x2="184.5" y2="171"/>
	<line fill="#FFFFFF" stroke="#231F20" stroke-miterlimit="10" x1="272.25" y1="191.25" x2="191.25" y2="164.25"/>
	<polygon fill="#A97C50" stroke="#231F20" stroke-miterlimit="10" points="171,292.5 238.5,238.5 319.5,265.5 333,346.5 	"/>
	<path fill="#FFFFFF" stroke="#231F20" stroke-miterlimit="10" d="M238.5,238.5"/>
	<polygon fill="#8B5E3C" stroke="#231F20" stroke-miterlimit="10" points="319.5,265.5 373.5,211.5 441,238.5 333,346.5 	"/>
	<polygon fill="#C49A6C" stroke="#231F20" stroke-miterlimit="10" points="238.5,238.5 319.5,265.5 373.5,211.5 292.5,184.5 	"/>
	<line fill="#FFFFFF" stroke="#231F20" stroke-miterlimit="10" x1="248.625" y1="241.875" x2="302.625" y2="187.875"/>
	<line fill="#FFFFFF" stroke="#231F20" stroke-miterlimit="10" x1="258.75" y1="245.25" x2="312.75" y2="191.25"/>
	<line fill="#FFFFFF" stroke="#231F20" stroke-miterlimit="10" x1="268.875" y1="248.625" x2="322.875" y2="194.625"/>
	<line fill="#FFFFFF" stroke="#231F20" stroke-miterlimit="10" x1="279" y1="252" x2="333" y2="198"/>
	<line fill="#FFFFFF" stroke="#231F20" stroke-miterlimit="10" x1="289.125" y1="255.375" x2="343.125" y2="201.375"/>
	<line fill="#FFFFFF" stroke="#231F20" stroke-miterlimit="10" x1="299.25" y1="258.75" x2="353.25" y2="204.75"/>
	<line fill="#FFFFFF" stroke="#231F20" stroke-miterlimit="10" x1="309.375" y1="262.125" x2="363.375" y2="208.125"/>
	<line fill="#FFFFFF" stroke="#231F20" stroke-miterlimit="10" x1="326.25" y1="258.75" x2="245.25" y2="231.75"/>
	<line fill="#FFFFFF" stroke="#231F20" stroke-miterlimit="10" x1="333" y1="252" x2="252" y2="225"/>
	<line fill="#FFFFFF" stroke="#231F20" stroke-miterlimit="10" x1="258.75" y1="218.25" x2="339.75" y2="245.25"/>
	<line fill="#FFFFFF" stroke="#231F20" stroke-miterlimit="10" x1="346.5" y1="238.5" x2="265.5" y2="211.5"/>
	<line fill="#FFFFFF" stroke="#231F20" stroke-miterlimit="10" x1="272.25" y1="204.75" x2="353.25" y2="231.75"/>
	<line fill="#FFFFFF" stroke="#231F20" stroke-miterlimit="10" x1="360" y1="225" x2="279" y2="198"/>
	<line fill="#FFFFFF" stroke="#231F20" stroke-miterlimit="10" x1="366.75" y1="218.25" x2="285.75" y2="191.25"/>
	<polygon fill="#A97C50" stroke="#231F20" stroke-miterlimit="10" points="265.5,319.5 333,265.5 414,292.5 427.5,373.5 	"/>
	<path fill="#FFFFFF" stroke="#231F20" stroke-miterlimit="10" d="M333,265.5"/>
	<polygon fill="#8B5E3C" stroke="#231F20" stroke-miterlimit="10" points="414,292.5 468,238.5 535.5,265.5 427.5,373.5 	"/>
	<polygon fill="#C49A6C" stroke="#231F20" stroke-miterlimit="10" points="333,265.5 414,292.5 468,238.5 387,211.5 	"/>
	<line fill="#FFFFFF" stroke="#231F20" stroke-miterlimit="10" x1="343.125" y1="268.875" x2="397.125" y2="214.875"/>
	<line fill="#FFFFFF" stroke="#231F20" stroke-miterlimit="10" x1="353.25" y1="272.25" x2="407.25" y2="218.25"/>
	<line fill="#FFFFFF" stroke="#231F20" stroke-miterlimit="10" x1="363.375" y1="275.625" x2="417.375" y2="221.625"/>
	<line fill="#FFFFFF" stroke="#231F20" stroke-miterlimit="10" x1="373.5" y1="279" x2="427.5" y2="225"/>
	<line fill="#FFFFFF" stroke="#231F20" stroke-miterlimit="10" x1="383.625" y1="282.375" x2="437.625" y2="228.375"/>
	<line fill="#FFFFFF" stroke="#231F20" stroke-miterlimit="10" x1="393.75" y1="285.75" x2="447.75" y2="231.75"/>
	<line fill="#FFFFFF" stroke="#231F20" stroke-miterlimit="10" x1="403.875" y1="289.125" x2="457.875" y2="235.125"/>
	<line fill="#FFFFFF" stroke="#231F20" stroke-miterlimit="10" x1="420.75" y1="285.75" x2="339.75" y2="258.75"/>
	<line fill="#FFFFFF" stroke="#231F20" stroke-miterlimit="10" x1="427.5" y1="279" x2="346.5" y2="252"/>
	<line fill="#FFFFFF" stroke="#231F20" stroke-miterlimit="10" x1="353.25" y1="245.25" x2="434.25" y2="272.25"/>
	<line fill="#FFFFFF" stroke="#231F20" stroke-miterlimit="10" x1="441" y1="265.5" x2="360" y2="238.5"/>
	<line fill="#FFFFFF" stroke="#231F20" stroke-miterlimit="10" x1="366.75" y1="231.75" x2="447.75" y2="258.75"/>
	<line fill="#FFFFFF" stroke="#231F20" stroke-miterlimit="10" x1="454.5" y1="252" x2="373.5" y2="225"/>
	<line fill="#FFFFFF" stroke="#231F20" stroke-miterlimit="10" x1="461.25" y1="245.25" x2="380.25" y2="218.25"/>
	<polygon fill="#C49A6C" stroke="#231F20" stroke-miterlimit="10" points="103.5,360 211.5,252 225,252 171,306 	"/>
	<polygon fill="#C49A6C" stroke="#231F20" stroke-miterlimit="10" points="198,387 306,279 319.5,279 265.5,333 	"/>
	<polygon fill="#A97C50" stroke="#231F20" stroke-miterlimit="10" points="9,333 76.5,279 157.5,306 171,387 	"/>
	<polygon fill="#C49A6C" stroke="#231F20" stroke-miterlimit="10" points="9,333 117,225 130.5,225 76.5,279 	"/>
	<path fill="#FFFFFF" stroke="#231F20" stroke-miterlimit="10" d="M76.5,279"/>
	<polygon fill="#8B5E3C" stroke="#231F20" stroke-miterlimit="10" points="157.5,306 211.5,252 279,279 171,387 	"/>
	<polygon fill="#C49A6C" stroke="#231F20" stroke-miterlimit="10" points="76.5,279 157.5,306 211.5,252 130.5,225 	"/>
	<line fill="#FFFFFF" stroke="#231F20" stroke-miterlimit="10" x1="86.625" y1="282.375" x2="140.625" y2="228.375"/>
	<line fill="#FFFFFF" stroke="#231F20" stroke-miterlimit="10" x1="96.75" y1="285.75" x2="150.75" y2="231.75"/>
	<line fill="#FFFFFF" stroke="#231F20" stroke-miterlimit="10" x1="106.875" y1="289.125" x2="160.875" y2="235.125"/>
	<line fill="#FFFFFF" stroke="#231F20" stroke-miterlimit="10" x1="117" y1="292.5" x2="171" y2="238.5"/>
	<line fill="#FFFFFF" stroke="#231F20" stroke-miterlimit="10" x1="127.125" y1="295.875" x2="181.125" y2="241.875"/>
	<line fill="#FFFFFF" stroke="#231F20" stroke-miterlimit="10" x1="137.25" y1="299.25" x2="191.25" y2="245.25"/>
	<line fill="#FFFFFF" stroke="#231F20" stroke-miterlimit="10" x1="147.375" y1="302.625" x2="201.375" y2="248.625"/>
	<line fill="#FFFFFF" stroke="#231F20" stroke-miterlimit="10" x1="164.25" y1="299.25" x2="83.25" y2="272.25"/>
	<line fill="#FFFFFF" stroke="#231F20" stroke-miterlimit="10" x1="171" y1="292.5" x2="90" y2="265.5"/>
	<line fill="#FFFFFF" stroke="#231F20" stroke-miterlimit="10" x1="96.75" y1="258.75" x2="177.75" y2="285.75"/>
	<line fill="#FFFFFF" stroke="#231F20" stroke-miterlimit="10" x1="184.5" y1="279" x2="103.5" y2="252"/>
	<line fill="#FFFFFF" stroke="#231F20" stroke-miterlimit="10" x1="110.25" y1="245.25" x2="191.25" y2="272.25"/>
	<line fill="#FFFFFF" stroke="#231F20" stroke-miterlimit="10" x1="198" y1="265.5" x2="117" y2="238.5"/>
	<line fill="#FFFFFF" stroke="#231F20" stroke-miterlimit="10" x1="204.75" y1="258.75" x2="123.75" y2="231.75"/>
	<polygon fill="#A97C50" stroke="#231F20" stroke-miterlimit="10" points="103.5,360 171,306 252,333 265.5,414 	"/>
	<path fill="#FFFFFF" stroke="#231F20" stroke-miterlimit="10" d="M171,306"/>
	<polygon fill="#8B5E3C" stroke="#231F20" stroke-miterlimit="10" points="252,333 306,279 373.5,306 265.5,414 	"/>
	<polygon fill="#C49A6C" stroke="#231F20" stroke-miterlimit="10" points="171,306 252,333 306,279 225,252 	"/>
	<line fill="#FFFFFF" stroke="#231F20" stroke-miterlimit="10" x1="181.125" y1="309.375" x2="235.125" y2="255.375"/>
	<line fill="#FFFFFF" stroke="#231F20" stroke-miterlimit="10" x1="191.25" y1="312.75" x2="245.25" y2="258.75"/>
	<line fill="#FFFFFF" stroke="#231F20" stroke-miterlimit="10" x1="201.375" y1="316.125" x2="255.375" y2="262.125"/>
	<line fill="#FFFFFF" stroke="#231F20" stroke-miterlimit="10" x1="211.5" y1="319.5" x2="265.5" y2="265.5"/>
	<line fill="#FFFFFF" stroke="#231F20" stroke-miterlimit="10" x1="221.625" y1="322.875" x2="275.625" y2="268.875"/>
	<line fill="#FFFFFF" stroke="#231F20" stroke-miterlimit="10" x1="231.75" y1="326.25" x2="285.75" y2="272.25"/>
	<line fill="#FFFFFF" stroke="#231F20" stroke-miterlimit="10" x1="241.875" y1="329.625" x2="295.875" y2="275.625"/>
	<line fill="#FFFFFF" stroke="#231F20" stroke-miterlimit="10" x1="258.75" y1="326.25" x2="177.75" y2="299.25"/>
	<line fill="#FFFFFF" stroke="#231F20" stroke-miterlimit="10" x1="265.5" y1="319.5" x2="184.5" y2="292.5"/>
	<line fill="#FFFFFF" stroke="#231F20" stroke-miterlimit="10" x1="191.25" y1="285.75" x2="272.25" y2="312.75"/>
	<line fill="#FFFFFF" stroke="#231F20" stroke-miterlimit="10" x1="279" y1="306" x2="198" y2="279"/>
	<line fill="#FFFFFF" stroke="#231F20" stroke-miterlimit="10" x1="204.75" y1="272.25" x2="285.75" y2="299.25"/>
	<line fill="#FFFFFF" stroke="#231F20" stroke-miterlimit="10" x1="292.5" y1="292.5" x2="211.5" y2="265.5"/>
	<line fill="#FFFFFF" stroke="#231F20" stroke-miterlimit="10" x1="299.25" y1="285.75" x2="218.25" y2="258.75"/>
	<polygon fill="#A97C50" stroke="#231F20" stroke-miterlimit="10" points="198,387 265.5,333 346.5,360 360,441 	"/>
	<path fill="#FFFFFF" stroke="#231F20" stroke-miterlimit="10" d="M265.5,333"/>
	<polygon fill="#8B5E3C" stroke="#231F20" stroke-miterlimit="10" points="346.5,360 400.5,306 468,333 360,441 	"/>
	<polygon fill="#C49A6C" stroke="#231F20" stroke-miterlimit="10" points="265.5,333 346.5,360 400.5,306 319.5,279 	"/>
	<line fill="#FFFFFF" stroke="#231F20" stroke-miterlimit="10" x1="275.625" y1="336.375" x2="329.625" y2="282.375"/>
	<line fill="#FFFFFF" stroke="#231F20" stroke-miterlimit="10" x1="285.75" y1="339.75" x2="339.75" y2="285.75"/>
	<line fill="#FFFFFF" stroke="#231F20" stroke-miterlimit="10" x1="295.875" y1="343.125" x2="349.875" y2="289.125"/>
	<line fill="#FFFFFF" stroke="#231F20" stroke-miterlimit="10" x1="306" y1="346.5" x2="360" y2="292.5"/>
	<line fill="#FFFFFF" stroke="#231F20" stroke-miterlimit="10" x1="316.125" y1="349.875" x2="370.125" y2="295.875"/>
	<line fill="#FFFFFF" stroke="#231F20" stroke-miterlimit="10" x1="326.25" y1="353.25" x2="380.25" y2="299.25"/>
	<line fill="#FFFFFF" stroke="#231F20" stroke-miterlimit="10" x1="336.375" y1="356.625" x2="390.375" y2="302.625"/>
	<line fill="#FFFFFF" stroke="#231F20" stroke-miterlimit="10" x1="353.25" y1="353.25" x2="272.25" y2="326.25"/>
	<line fill="#FFFFFF" stroke="#231F20" stroke-miterlimit="10" x1="360" y1="346.5" x2="279" y2="319.5"/>
	<line fill="#FFFFFF" stroke="#231F20" stroke-miterlimit="10" x1="285.75" y1="312.75" x2="366.75" y2="339.75"/>
	<line fill="#FFFFFF" stroke="#231F20" stroke-miterlimit="10" x1="373.5" y1="333" x2="292.5" y2="306"/>
	<line fill="#FFFFFF" stroke="#231F20" stroke-miterlimit="10" x1="299.25" y1="299.25" x2="380.25" y2="326.25"/>
	<line fill="#FFFFFF" stroke="#231F20" stroke-miterlimit="10" x1="387" y1="319.5" x2="306" y2="292.5"/>
	<line fill="#FFFFFF" stroke="#231F20" stroke-miterlimit="10" x1="393.75" y1="312.75" x2="312.75" y2="285.75"/>
</g>
<polygon opacity="0.8" fill="#C49A6C" stroke="#231F20" stroke-miterlimit="10" points="265.5,144 373.5,36 387,36 333,90 "/>
<polygon opacity="0.8" fill="#A97C50" stroke="#231F20" stroke-miterlimit="10" points="171,117 238.5,63 319.5,90 333,171 "/>
<polygon opacity="0.8" fill="#C49A6C" stroke="#231F20" stroke-miterlimit="10" points="171,117 279,9 292.5,9 238.5,63 "/>
<path opacity="0.8" fill="#FFFFFF" stroke="#231F20" stroke-miterlimit="10" d="M238.5,63"/>
<polygon opacity="0.8" fill="#8B5E3C" stroke="#231F20" stroke-miterlimit="10" points="319.5,90 373.5,36 441,63 333,171 "/>
<polygon opacity="0.8" fill="#C49A6C" stroke="#231F20" stroke-miterlimit="10" points="238.5,63 319.5,90 373.5,36 292.5,9 "/>
<line opacity="0.8" fill="#FFFFFF" stroke="#231F20" stroke-miterlimit="10" x1="248.625" y1="66.375" x2="302.625" y2="12.375"/>
<line opacity="0.8" fill="#FFFFFF" stroke="#231F20" stroke-miterlimit="10" x1="258.75" y1="69.75" x2="312.75" y2="15.75"/>
<line opacity="0.8" fill="#FFFFFF" stroke="#231F20" stroke-miterlimit="10" x1="268.875" y1="73.125" x2="322.875" y2="19.125"/>
<line opacity="0.8" fill="#FFFFFF" stroke="#231F20" stroke-miterlimit="10" x1="279" y1="76.5" x2="333" y2="22.5"/>
<line opacity="0.8" fill="#FFFFFF" stroke="#231F20" stroke-miterlimit="10" x1="289.125" y1="79.875" x2="343.125" y2="25.875"/>
<line opacity="0.8" fill="#FFFFFF" stroke="#231F20" stroke-miterlimit="10" x1="299.25" y1="83.25" x2="353.25" y2="29.25"/>
<line opacity="0.8" fill="#FFFFFF" stroke="#231F20" stroke-miterlimit="10" x1="309.375" y1="86.625" x2="363.375" y2="32.625"/>
<line opacity="0.8" fill="#FFFFFF" stroke="#231F20" stroke-miterlimit="10" x1="326.25" y1="83.25" x2="245.25" y2="56.25"/>
<line opacity="0.8" fill="#FFFFFF" stroke="#231F20" stroke-miterlimit="10" x1="333" y1="76.5" x2="252" y2="49.5"/>
<line opacity="0.8" fill="#FFFFFF" stroke="#231F20" stroke-miterlimit="10" x1="258.75" y1="42.75" x2="339.75" y2="69.75"/>
<line opacity="0.8" fill="#FFFFFF" stroke="#231F20" stroke-miterlimit="10" x1="346.5" y1="63" x2="265.5" y2="36"/>
<line opacity="0.8" fill="#FFFFFF" stroke="#231F20" stroke-miterlimit="10" x1="272.25" y1="29.25" x2="353.25" y2="56.25"/>
<line opacity="0.8" fill="#FFFFFF" stroke="#231F20" stroke-miterlimit="10" x1="360" y1="49.5" x2="279" y2="22.5"/>
<line opacity="0.8" fill="#FFFFFF" stroke="#231F20" stroke-miterlimit="10" x1="366.75" y1="42.75" x2="285.75" y2="15.75"/>
<polygon opacity="0.8" fill="#A97C50" stroke="#231F20" stroke-miterlimit="10" points="265.5,144 333,90 414,117 427.5,198 "/>
<path opacity="0.8" fill="#FFFFFF" stroke="#231F20" stroke-miterlimit="10" d="M333,90"/>
<polygon opacity="0.8" fill="#8B5E3C" stroke="#231F20" stroke-miterlimit="10" points="414,117 468,63 535.5,90 427.5,198 "/>
<polygon opacity="0.8" fill="#C49A6C" stroke="#231F20" stroke-miterlimit="10" points="333,90 414,117 468,63 387,36 "/>
<line opacity="0.8" fill="#FFFFFF" stroke="#231F20" stroke-miterlimit="10" x1="343.125" y1="93.375" x2="397.125" y2="39.375"/>
<line opacity="0.8" fill="#FFFFFF" stroke="#231F20" stroke-miterlimit="10" x1="353.25" y1="96.75" x2="407.25" y2="42.75"/>
<line opacity="0.8" fill="#FFFFFF" stroke="#231F20" stroke-miterlimit="10" x1="363.375" y1="100.125" x2="417.375" y2="46.125"/>
<line opacity="0.8" fill="#FFFFFF" stroke="#231F20" stroke-miterlimit="10" x1="373.5" y1="103.5" x2="427.5" y2="49.5"/>
<line opacity="0.8" fill="#FFFFFF" stroke="#231F20" stroke-miterlimit="10" x1="383.625" y1="106.875" x2="437.625" y2="52.875"/>
<line opacity="0.8" fill="#FFFFFF" stroke="#231F20" stroke-miterlimit="10" x1="393.75" y1="110.25" x2="447.75" y2="56.25"/>
<line opacity="0.8" fill="#FFFFFF" stroke="#231F20" stroke-miterlimit="10" x1="403.875" y1="113.625" x2="457.875" y2="59.625"/>
<line opacity="0.8" fill="#FFFFFF" stroke="#231F20" stroke-miterlimit="10" x1="420.75" y1="110.25" x2="339.75" y2="83.25"/>
<line opacity="0.8" fill="#FFFFFF" stroke="#231F20" stroke-miterlimit="10" x1="427.5" y1="103.5" x2="346.5" y2="76.5"/>
<line opacity="0.8" fill="#FFFFFF" stroke="#231F20" stroke-miterlimit="10" x1="353.25" y1="69.75" x2="434.25" y2="96.75"/>
<line opacity="0.8" fill="#FFFFFF" stroke="#231F20" stroke-miterlimit="10" x1="441" y1="90" x2="360" y2="63"/>
<line opacity="0.8" fill="#FFFFFF" stroke="#231F20" stroke-miterlimit="10" x1="366.75" y1="56.25" x2="447.75" y2="83.25"/>
<line opacity="0.8" fill="#FFFFFF" stroke="#231F20" stroke-miterlimit="10" x1="454.5" y1="76.5" x2="373.5" y2="49.5"/>
<line opacity="0.8" fill="#FFFFFF" stroke="#231F20" stroke-miterlimit="10" x1="461.25" y1="69.75" x2="380.25" y2="42.75"/>
<polygon opacity="0.8" fill="#C49A6C" stroke="#231F20" stroke-miterlimit="10" points="198,211.5 306,103.5 319.5,103.5 
	265.5,157.5 "/>
<polygon opacity="0.8" fill="#A97C50" stroke="#231F20" stroke-miterlimit="10" points="103.5,184.5 171,130.5 252,157.5 
	265.5,238.5 "/>
<polygon opacity="0.8" fill="#C49A6C" stroke="#231F20" stroke-miterlimit="10" points="103.5,184.5 211.5,76.5 225,76.5 171,130.5 
	"/>
<path opacity="0.8" fill="#FFFFFF" stroke="#231F20" stroke-miterlimit="10" d="M171,130.5"/>
<polygon opacity="0.8" fill="#8B5E3C" stroke="#231F20" stroke-miterlimit="10" points="252,157.5 306,103.5 373.5,130.5 
	265.5,238.5 "/>
<polygon opacity="0.8" fill="#C49A6C" stroke="#231F20" stroke-miterlimit="10" points="171,130.5 252,157.5 306,103.5 225,76.5 "/>
<line opacity="0.8" fill="#FFFFFF" stroke="#231F20" stroke-miterlimit="10" x1="181.125" y1="133.875" x2="235.125" y2="79.875"/>
<line opacity="0.8" fill="#FFFFFF" stroke="#231F20" stroke-miterlimit="10" x1="191.25" y1="137.25" x2="245.25" y2="83.25"/>
<line opacity="0.8" fill="#FFFFFF" stroke="#231F20" stroke-miterlimit="10" x1="201.375" y1="140.625" x2="255.375" y2="86.625"/>
<line opacity="0.8" fill="#FFFFFF" stroke="#231F20" stroke-miterlimit="10" x1="211.5" y1="144" x2="265.5" y2="90"/>
<line opacity="0.8" fill="#FFFFFF" stroke="#231F20" stroke-miterlimit="10" x1="221.625" y1="147.375" x2="275.625" y2="93.375"/>
<line opacity="0.8" fill="#FFFFFF" stroke="#231F20" stroke-miterlimit="10" x1="231.75" y1="150.75" x2="285.75" y2="96.75"/>
<line opacity="0.8" fill="#FFFFFF" stroke="#231F20" stroke-miterlimit="10" x1="241.875" y1="154.125" x2="295.875" y2="100.125"/>
<line opacity="0.8" fill="#FFFFFF" stroke="#231F20" stroke-miterlimit="10" x1="258.75" y1="150.75" x2="177.75" y2="123.75"/>
<line opacity="0.8" fill="#FFFFFF" stroke="#231F20" stroke-miterlimit="10" x1="265.5" y1="144" x2="184.5" y2="117"/>
<line opacity="0.8" fill="#FFFFFF" stroke="#231F20" stroke-miterlimit="10" x1="191.25" y1="110.25" x2="272.25" y2="137.25"/>
<line opacity="0.8" fill="#FFFFFF" stroke="#231F20" stroke-miterlimit="10" x1="279" y1="130.5" x2="198" y2="103.5"/>
<line opacity="0.8" fill="#FFFFFF" stroke="#231F20" stroke-miterlimit="10" x1="204.75" y1="96.75" x2="285.75" y2="123.75"/>
<line opacity="0.8" fill="#FFFFFF" stroke="#231F20" stroke-miterlimit="10" x1="292.5" y1="117" x2="211.5" y2="90"/>
<line opacity="0.8" fill="#FFFFFF" stroke="#231F20" stroke-miterlimit="10" x1="299.25" y1="110.25" x2="218.25" y2="83.25"/>
<polygon opacity="0.8" fill="#A97C50" stroke="#231F20" stroke-miterlimit="10" points="198,211.5 265.5,157.5 346.5,184.5 
	360,265.5 "/>
<path opacity="0.8" fill="#FFFFFF" stroke="#231F20" stroke-miterlimit="10" d="M265.5,157.5"/>
<polygon opacity="0.8" fill="#8B5E3C" stroke="#231F20" stroke-miterlimit="10" points="346.5,184.5 400.5,130.5 468,157.5 
	360,265.5 "/>
<polygon opacity="0.8" fill="#C49A6C" stroke="#231F20" stroke-miterlimit="10" points="265.5,157.5 346.5,184.5 400.5,130.5 
	319.5,103.5 "/>
<line opacity="0.8" fill="#FFFFFF" stroke="#231F20" stroke-miterlimit="10" x1="275.625" y1="160.875" x2="329.625" y2="106.875"/>
<line opacity="0.8" fill="#FFFFFF" stroke="#231F20" stroke-miterlimit="10" x1="285.75" y1="164.25" x2="339.75" y2="110.25"/>
<line opacity="0.8" fill="#FFFFFF" stroke="#231F20" stroke-miterlimit="10" x1="295.875" y1="167.625" x2="349.875" y2="113.625"/>
<line opacity="0.8" fill="#FFFFFF" stroke="#231F20" stroke-miterlimit="10" x1="306" y1="171" x2="360" y2="117"/>
<line opacity="0.8" fill="#FFFFFF" stroke="#231F20" stroke-miterlimit="10" x1="316.125" y1="174.375" x2="370.125" y2="120.375"/>
<line opacity="0.8" fill="#FFFFFF" stroke="#231F20" stroke-miterlimit="10" x1="326.25" y1="177.75" x2="380.25" y2="123.75"/>
<line opacity="0.8" fill="#FFFFFF" stroke="#231F20" stroke-miterlimit="10" x1="336.375" y1="181.125" x2="390.375" y2="127.125"/>
<line opacity="0.8" fill="#FFFFFF" stroke="#231F20" stroke-miterlimit="10" x1="353.25" y1="177.75" x2="272.25" y2="150.75"/>
<line opacity="0.8" fill="#FFFFFF" stroke="#231F20" stroke-miterlimit="10" x1="360" y1="171" x2="279" y2="144"/>
<line opacity="0.8" fill="#FFFFFF" stroke="#231F20" stroke-miterlimit="10" x1="285.75" y1="137.25" x2="366.75" y2="164.25"/>
<line opacity="0.8" fill="#FFFFFF" stroke="#231F20" stroke-miterlimit="10" x1="373.5" y1="157.5" x2="292.5" y2="130.5"/>
<line opacity="0.8" fill="#FFFFFF" stroke="#231F20" stroke-miterlimit="10" x1="299.25" y1="123.75" x2="380.25" y2="150.75"/>
<line opacity="0.8" fill="#FFFFFF" stroke="#231F20" stroke-miterlimit="10" x1="387" y1="144" x2="306" y2="117"/>
<line opacity="0.8" fill="#FFFFFF" stroke="#231F20" stroke-miterlimit="10" x1="393.75" y1="137.25" x2="312.75" y2="110.25"/>
</svg>
