<?xml version="1.0" encoding="utf-8"?>
<!-- Generator: Adobe Illustrator 15.1.0, SVG Export Plug-In . SVG Version: 6.00 Build 0)  -->
<!DOCTYPE svg PUBLIC "-//W3C//DTD SVG 1.1//EN" "http://www.w3.org/Graphics/SVG/1.1/DTD/svg11.dtd">
<svg version="1.1" id="Layer_1" xmlns="http://www.w3.org/2000/svg" xmlns:xlink="http://www.w3.org/1999/xlink" x="0px" y="0px"
	 width="828px" height="531px" viewBox="0 0 828 531" enable-background="new 0 0 828 531" xml:space="preserve">
<line fill="none" stroke="#0081CD" stroke-miterlimit="10" x1="0.001" y1="207" x2="252.001" y2="207"/>
<line fill="none" stroke="#0081CD" stroke-miterlimit="10" x1="0.001" y1="153" x2="252.001" y2="153"/>
<line fill="none" stroke="#0081CD" stroke-miterlimit="10" x1="0.001" y1="99" x2="252.001" y2="99"/>
<line fill="none" stroke="#0081CD" stroke-miterlimit="10" x1="0" y1="45" x2="252" y2="45"/>
<line fill="none" stroke="#0081CD" stroke-miterlimit="10" x1="207.001" y1="0" x2="207.001" y2="252"/>
<line fill="none" stroke="#0081CD" stroke-miterlimit="10" x1="153.001" y1="252" x2="153.001" y2="0"/>
<line fill="none" stroke="#0081CD" stroke-miterlimit="10" x1="99.001" y1="0" x2="99.001" y2="252"/>
<line fill="none" stroke="#0081CD" stroke-miterlimit="10" x1="45.001" y1="0" x2="45.001" y2="252"/>
<path fill="#FFE180" stroke="#231F20" stroke-miterlimit="10" d="M72,168c0,6.627-5.373,12-12,12H30c-6.627,0-12-5.373-12-12v-30
	c0-6.627,5.373-12,12-12h30c6.627,0,12,5.373,12,12V168z"/>
<path fill="#FFE180" stroke="#231F20" stroke-miterlimit="10" d="M126,60c0,6.627-5.373,12-12,12H84c-6.627,0-12-5.373-12-12V30
	c0-6.627,5.373-12,12-12h30c6.627,0,12,5.373,12,12V60z"/>
<path fill="#FFE180" stroke="#231F20" stroke-miterlimit="10" d="M180,222c0,6.627-5.373,12-12,12h-30c-6.627,0-12-5.373-12-12v-30
	c0-6.627,5.373-12,12-12h30c6.627,0,12,5.373,12,12V222z"/>
<path fill="#FFE180" stroke="#231F20" stroke-miterlimit="10" d="M234,114c0,6.627-5.373,12-12,12h-30c-6.627,0-12-5.373-12-12V84
	c0-6.627,5.373-12,12-12h30c6.627,0,12,5.373,12,12V114z"/>
<g>
	<path d="M46.732,137.979c0.006,0.029,0.009,0.097,0.009,0.202v21.164c0,0.902,0.241,1.477,0.724,1.723s1.384,0.393,2.704,0.439V162
		h-9.932v-0.527c1.418-0.07,2.344-0.264,2.777-0.58s0.65-1.002,0.65-2.057v-16.277c0-0.562-0.07-0.99-0.211-1.283
		s-0.445-0.439-0.914-0.439c-0.305,0-0.7,0.085-1.187,0.255s-0.94,0.349-1.362,0.536v-0.492l6.451-3.287h0.211
		C46.7,137.906,46.726,137.95,46.732,137.979z"/>
</g>
<g>
	<path d="M91.073,53.596c4.289-4.45,7.201-7.717,8.736-9.801c1.535-2.084,2.303-4.116,2.303-6.094c0-1.732-0.469-3.053-1.406-3.96
		c-0.938-0.908-2.057-1.361-3.357-1.361c-1.605,0-2.906,0.585-3.902,1.756c-0.551,0.644-1.078,1.633-1.582,2.968l-0.756-0.158
		c0.586-2.694,1.579-4.565,2.979-5.613c1.4-1.048,2.903-1.572,4.509-1.572c1.98,0,3.583,0.624,4.808,1.871s1.837,2.772,1.837,4.575
		c0,1.92-0.663,3.771-1.987,5.55s-4.202,4.947-8.634,9.502h8.071c1.125,0,1.917-0.135,2.374-0.404
		c0.457-0.269,0.973-0.925,1.547-1.967l0.457,0.211L105.118,54H91.073V53.596z"/>
</g>
<g>
	<path d="M149.353,213.952c1.061,0.674,1.96,1.011,2.698,1.011c1.641,0,2.859-0.555,3.656-1.664s1.195-2.315,1.195-3.618
		c0-1.256-0.322-2.359-0.967-3.31c-1.09-1.608-2.93-2.412-5.52-2.412c-0.152,0-0.299,0.003-0.439,0.009s-0.305,0.021-0.492,0.044
		l-0.035-0.457c1.875-0.68,3.352-1.459,4.43-2.338s1.617-2.039,1.617-3.48c0-1.277-0.425-2.25-1.274-2.918s-1.819-1.002-2.909-1.002
		c-1.289,0-2.426,0.475-3.41,1.424c-0.539,0.516-1.119,1.312-1.74,2.391l-0.545-0.123c0.469-1.781,1.342-3.205,2.619-4.271
		s2.754-1.6,4.43-1.6c1.793,0,3.179,0.492,4.157,1.477s1.468,2.121,1.468,3.41c0,1.137-0.404,2.18-1.213,3.129
		c-0.457,0.539-1.166,1.143-2.127,1.811c1.125,0.48,2.027,1.043,2.707,1.688c1.277,1.23,1.916,2.789,1.916,4.676
		c0,2.227-0.876,4.189-2.628,5.889s-4.245,2.549-7.479,2.549c-1.441,0-2.452-0.214-3.032-0.642s-0.87-0.888-0.87-1.38
		c0-0.305,0.097-0.598,0.29-0.879s0.507-0.422,0.94-0.422C147.44,212.941,148.292,213.278,149.353,213.952z"/>
</g>
<g>
	<path d="M209.655,83.848h1.67v15.82h3.674v2.338h-3.674V108h-2.795v-5.994h-10.125v-2.338L209.655,83.848z M208.495,87.477
		l-8.626,12.191h8.626V87.477z"/>
</g>
<line fill="none" stroke="#0081CD" stroke-miterlimit="10" x1="288" y1="207" x2="540" y2="207"/>
<line fill="none" stroke="#0081CD" stroke-miterlimit="10" x1="288" y1="153" x2="540" y2="153"/>
<line fill="none" stroke="#0081CD" stroke-miterlimit="10" x1="288" y1="99" x2="540" y2="99"/>
<line fill="none" stroke="#0081CD" stroke-miterlimit="10" x1="288" y1="45" x2="540" y2="45"/>
<line fill="none" stroke="#0081CD" stroke-miterlimit="10" x1="495" y1="0" x2="495" y2="252"/>
<line fill="none" stroke="#0081CD" stroke-miterlimit="10" x1="441" y1="252" x2="441" y2="0"/>
<line fill="none" stroke="#0081CD" stroke-miterlimit="10" x1="387" y1="0" x2="387" y2="252"/>
<line fill="none" stroke="#0081CD" stroke-miterlimit="10" x1="333" y1="0" x2="333" y2="252"/>
<path fill="#FFE180" stroke="#231F20" stroke-miterlimit="10" d="M360,168c0,6.627-5.373,12-12,12h-30c-6.627,0-12-5.373-12-12v-30
	c0-6.627,5.373-12,12-12h30c6.627,0,12,5.373,12,12V168z"/>
<path fill="#FFE180" stroke="#231F20" stroke-miterlimit="10" d="M414,60c0,6.627-5.373,12-12,12h-30c-6.628,0-12-5.373-12-12V30
	c0-6.627,5.373-12,12-12h30c6.627,0,12,5.373,12,12V60z"/>
<path fill="#FFE180" stroke="#231F20" stroke-miterlimit="10" d="M468,222c0,6.627-5.373,12-12,12h-30c-6.628,0-12-5.373-12-12v-30
	c0-6.627,5.372-12,12-12h30c6.627,0,12,5.373,12,12V222z"/>
<path fill="#FFE180" stroke="#231F20" stroke-miterlimit="10" d="M522,114c0,6.627-5.373,12-12,12h-30c-6.628,0-12-5.373-12-12V84
	c0-6.627,5.372-12,12-12h30c6.627,0,12,5.373,12,12V114z"/>
<g>
	<path d="M334.731,137.979c0.006,0.029,0.009,0.097,0.009,0.202v21.164c0,0.902,0.241,1.477,0.724,1.723s1.384,0.393,2.704,0.439
		V162h-9.932v-0.527c1.418-0.07,2.344-0.264,2.777-0.58s0.65-1.002,0.65-2.057v-16.277c0-0.562-0.07-0.99-0.211-1.283
		s-0.445-0.439-0.914-0.439c-0.305,0-0.7,0.085-1.187,0.255s-0.94,0.349-1.362,0.536v-0.492l6.451-3.287h0.211
		C334.699,137.906,334.726,137.95,334.731,137.979z"/>
</g>
<g>
	<path d="M383.352,51.952c1.061,0.674,1.961,1.011,2.699,1.011c1.641,0,2.859-0.555,3.656-1.664s1.195-2.315,1.195-3.618
		c0-1.256-0.322-2.359-0.967-3.31c-1.09-1.608-2.93-2.412-5.52-2.412c-0.152,0-0.299,0.003-0.439,0.009s-0.305,0.021-0.492,0.044
		l-0.035-0.457c1.875-0.68,3.352-1.459,4.43-2.338s1.617-2.039,1.617-3.48c0-1.277-0.426-2.25-1.275-2.918s-1.818-1.002-2.908-1.002
		c-1.289,0-2.426,0.475-3.41,1.424c-0.539,0.516-1.119,1.312-1.74,2.391l-0.545-0.123c0.469-1.781,1.342-3.205,2.619-4.271
		s2.754-1.6,4.43-1.6c1.793,0,3.178,0.492,4.156,1.477s1.469,2.121,1.469,3.41c0,1.137-0.404,2.18-1.213,3.129
		c-0.457,0.539-1.166,1.143-2.127,1.811c1.125,0.48,2.027,1.043,2.707,1.688c1.277,1.23,1.916,2.789,1.916,4.676
		c0,2.227-0.877,4.189-2.629,5.889s-4.244,2.549-7.479,2.549c-1.441,0-2.453-0.214-3.033-0.642s-0.869-0.888-0.869-1.38
		c0-0.305,0.096-0.598,0.289-0.879s0.508-0.422,0.941-0.422C381.44,50.941,382.292,51.278,383.352,51.952z"/>
</g>
<g>
	<path d="M433.073,215.596c4.289-4.45,7.201-7.717,8.736-9.801c1.535-2.084,2.303-4.116,2.303-6.094c0-1.732-0.469-3.053-1.406-3.96
		c-0.938-0.908-2.057-1.361-3.357-1.361c-1.605,0-2.906,0.585-3.902,1.756c-0.551,0.644-1.078,1.633-1.582,2.968l-0.756-0.158
		c0.586-2.694,1.578-4.565,2.979-5.613c1.4-1.048,2.904-1.572,4.51-1.572c1.98,0,3.582,0.624,4.807,1.871s1.838,2.772,1.838,4.575
		c0,1.92-0.663,3.771-1.988,5.55c-1.324,1.78-4.201,4.947-8.633,9.502h8.07c1.125,0,1.916-0.135,2.374-0.404
		c0.457-0.269,0.973-0.925,1.548-1.967l0.457,0.211L447.118,216h-14.045V215.596z"/>
</g>
<g>
	<path d="M497.655,83.848h1.67v15.82h3.674v2.338h-3.674V108h-2.795v-5.994h-10.125v-2.338L497.655,83.848z M496.495,87.477
		l-8.627,12.191h8.627V87.477z"/>
</g>
<line fill="none" stroke="#0081CD" stroke-miterlimit="10" x1="576" y1="207" x2="828" y2="207"/>
<line fill="none" stroke="#0081CD" stroke-miterlimit="10" x1="576" y1="153" x2="828" y2="153"/>
<line fill="none" stroke="#0081CD" stroke-miterlimit="10" x1="576" y1="99" x2="828" y2="99"/>
<line fill="none" stroke="#0081CD" stroke-miterlimit="10" x1="576" y1="45" x2="828" y2="45"/>
<line fill="none" stroke="#0081CD" stroke-miterlimit="10" x1="783" y1="0" x2="783" y2="252"/>
<line fill="none" stroke="#0081CD" stroke-miterlimit="10" x1="729" y1="252" x2="729" y2="0"/>
<line fill="none" stroke="#0081CD" stroke-miterlimit="10" x1="675" y1="0" x2="675" y2="252"/>
<line fill="none" stroke="#0081CD" stroke-miterlimit="10" x1="621" y1="0" x2="621" y2="252"/>
<path fill="#FFE180" stroke="#231F20" stroke-miterlimit="10" d="M648,168c0,6.627-5.373,12-12,12h-30c-6.628,0-12-5.373-12-12v-30
	c0-6.627,5.372-12,12-12h30c6.627,0,12,5.373,12,12V168z"/>
<path fill="#FFE180" stroke="#231F20" stroke-miterlimit="10" d="M702,60c0,6.627-5.373,12-12,12h-30c-6.628,0-12-5.373-12-12V30
	c0-6.627,5.372-12,12-12h30c6.627,0,12,5.373,12,12V60z"/>
<path fill="#FFE180" stroke="#231F20" stroke-miterlimit="10" d="M756,222c0,6.627-5.373,12-12,12h-30c-6.628,0-12-5.373-12-12v-30
	c0-6.627,5.372-12,12-12h30c6.627,0,12,5.373,12,12V222z"/>
<path fill="#FFE180" stroke="#231F20" stroke-miterlimit="10" d="M810,114c0,6.627-5.373,12-12,12h-30c-6.628,0-12-5.373-12-12V84
	c0-6.627,5.372-12,12-12h30c6.627,0,12,5.373,12,12V114z"/>
<g>
	<path d="M622.731,137.979c0.006,0.029,0.01,0.097,0.01,0.202v21.164c0,0.902,0.24,1.477,0.724,1.723s1.384,0.393,2.704,0.439V162
		h-9.932v-0.527c1.418-0.07,2.344-0.264,2.777-0.58s0.65-1.002,0.65-2.057v-16.277c0-0.562-0.07-0.99-0.211-1.283
		s-0.445-0.439-0.914-0.439c-0.305,0-0.701,0.085-1.188,0.255s-0.939,0.349-1.361,0.536v-0.492l6.451-3.287h0.211
		C622.7,137.906,622.725,137.95,622.731,137.979z"/>
</g>
<g>
	<path d="M677.655,29.847h1.67v15.82h3.674v2.338h-3.674V54h-2.795v-5.994h-10.125v-2.338L677.655,29.847z M676.495,33.476
		l-8.627,12.191h8.627V33.476z"/>
</g>
<g>
	<path d="M721.073,215.595c4.289-4.45,7.201-7.717,8.736-9.801c1.535-2.084,2.303-4.116,2.303-6.094c0-1.732-0.469-3.053-1.406-3.96
		c-0.938-0.908-2.057-1.361-3.357-1.361c-1.605,0-2.906,0.585-3.902,1.756c-0.551,0.644-1.078,1.633-1.582,2.968l-0.756-0.158
		c0.586-2.694,1.578-4.565,2.979-5.613c1.4-1.048,2.904-1.572,4.51-1.572c1.98,0,3.582,0.624,4.807,1.871s1.838,2.772,1.838,4.575
		c0,1.92-0.663,3.771-1.988,5.55c-1.324,1.78-4.201,4.947-8.633,9.502h8.07c1.125,0,1.916-0.135,2.374-0.404
		c0.457-0.269,0.973-0.925,1.548-1.967l0.457,0.211L735.118,216h-14.045V215.595z"/>
</g>
<g>
	<path d="M779.352,105.952c1.061,0.674,1.961,1.011,2.699,1.011c1.641,0,2.859-0.555,3.656-1.664s1.195-2.315,1.195-3.618
		c0-1.256-0.322-2.359-0.967-3.31c-1.09-1.608-2.93-2.412-5.52-2.412c-0.152,0-0.299,0.003-0.439,0.009s-0.305,0.021-0.492,0.044
		l-0.035-0.457c1.875-0.68,3.352-1.459,4.43-2.338s1.617-2.039,1.617-3.48c0-1.277-0.426-2.25-1.275-2.918s-1.818-1.002-2.908-1.002
		c-1.289,0-2.426,0.475-3.41,1.424c-0.539,0.516-1.119,1.312-1.74,2.391l-0.545-0.123c0.469-1.781,1.342-3.205,2.619-4.271
		s2.754-1.6,4.43-1.6c1.793,0,3.178,0.492,4.156,1.477s1.469,2.121,1.469,3.41c0,1.137-0.404,2.18-1.213,3.129
		c-0.457,0.539-1.166,1.143-2.127,1.811c1.125,0.48,2.027,1.043,2.707,1.688c1.277,1.23,1.916,2.789,1.916,4.676
		c0,2.227-0.877,4.189-2.629,5.889s-4.244,2.549-7.479,2.549c-1.441,0-2.453-0.214-3.033-0.642s-0.869-0.888-0.869-1.38
		c0-0.305,0.096-0.598,0.289-0.879s0.508-0.422,0.941-0.422C777.44,104.941,778.292,105.278,779.352,105.952z"/>
</g>
<line fill="none" stroke="#0081CD" stroke-miterlimit="10" x1="432" y1="486" x2="684" y2="486"/>
<line fill="none" stroke="#0081CD" stroke-miterlimit="10" x1="432" y1="432" x2="684" y2="432"/>
<line fill="none" stroke="#0081CD" stroke-miterlimit="10" x1="432" y1="378" x2="684" y2="378"/>
<line fill="none" stroke="#0081CD" stroke-miterlimit="10" x1="432" y1="324" x2="684" y2="324"/>
<line fill="none" stroke="#0081CD" stroke-miterlimit="10" x1="639" y1="279" x2="639" y2="531"/>
<line fill="none" stroke="#0081CD" stroke-miterlimit="10" x1="585" y1="531" x2="585" y2="279"/>
<line fill="none" stroke="#0081CD" stroke-miterlimit="10" x1="531" y1="279" x2="531" y2="531"/>
<line fill="none" stroke="#0081CD" stroke-miterlimit="10" x1="477" y1="279" x2="477" y2="531"/>
<path fill="#FFE180" stroke="#231F20" stroke-miterlimit="10" d="M504,447c0,6.627-5.373,12-12,12h-30c-6.628,0-12-5.373-12-12v-30
	c0-6.628,5.372-12,12-12h30c6.627,0,12,5.372,12,12V447z"/>
<path fill="#FFE180" stroke="#231F20" stroke-miterlimit="10" d="M558,339c0,6.627-5.373,12-12,12h-30c-6.628,0-12-5.373-12-12v-30
	c0-6.628,5.372-12,12-12h30c6.627,0,12,5.372,12,12V339z"/>
<path fill="#FFE180" stroke="#231F20" stroke-miterlimit="10" d="M612,501c0,6.627-5.373,12-12,12h-30c-6.628,0-12-5.373-12-12v-30
	c0-6.628,5.372-12,12-12h30c6.627,0,12,5.372,12,12V501z"/>
<path fill="#FFE180" stroke="#231F20" stroke-miterlimit="10" d="M666,393c0,6.627-5.373,12-12,12h-30c-6.628,0-12-5.373-12-12v-30
	c0-6.628,5.372-12,12-12h30c6.627,0,12,5.372,12,12V393z"/>
<g>
	<path d="M469.073,440.596c4.289-4.451,7.201-7.718,8.736-9.802c1.535-2.085,2.303-4.116,2.303-6.095
		c0-1.732-0.469-3.053-1.406-3.959c-0.938-0.908-2.057-1.361-3.357-1.361c-1.605,0-2.906,0.585-3.902,1.756
		c-0.551,0.645-1.078,1.633-1.582,2.968l-0.756-0.157c0.586-2.694,1.578-4.565,2.979-5.613c1.4-1.049,2.904-1.572,4.51-1.572
		c1.98,0,3.582,0.623,4.807,1.87s1.838,2.772,1.838,4.575c0,1.92-0.663,3.771-1.988,5.551c-1.324,1.779-4.201,4.947-8.633,9.502
		h8.07c1.125,0,1.916-0.135,2.374-0.404c0.457-0.27,0.973-0.925,1.548-1.967l0.457,0.211L483.118,441h-14.045V440.596z"/>
</g>
<g>
	<path d="M533.655,308.848h1.67v15.82h3.674v2.338h-3.674V333h-2.795v-5.994h-10.125v-2.338L533.655,308.848z M532.495,312.477
		l-8.627,12.191h8.627V312.477z"/>
</g>
<g>
	<path d="M586.731,470.979c0.006,0.029,0.01,0.098,0.01,0.203v21.164c0,0.902,0.24,1.477,0.724,1.723s1.384,0.393,2.704,0.439V495
		h-9.932v-0.527c1.418-0.07,2.344-0.264,2.777-0.58s0.65-1.002,0.65-2.057v-16.277c0-0.562-0.07-0.99-0.211-1.283
		s-0.445-0.439-0.914-0.439c-0.305,0-0.701,0.084-1.188,0.254s-0.939,0.35-1.361,0.537v-0.492l6.451-3.287h0.211
		C586.7,470.906,586.725,470.949,586.731,470.979z"/>
</g>
<g>
	<path d="M635.352,384.951c1.061,0.674,1.961,1.012,2.699,1.012c1.641,0,2.859-0.555,3.656-1.664s1.195-2.315,1.195-3.618
		c0-1.256-0.322-2.359-0.967-3.31c-1.09-1.608-2.93-2.412-5.52-2.412c-0.152,0-0.299,0.002-0.439,0.008s-0.305,0.021-0.492,0.045
		l-0.035-0.457c1.875-0.68,3.352-1.459,4.43-2.338s1.617-2.039,1.617-3.48c0-1.277-0.426-2.25-1.275-2.918s-1.818-1.002-2.908-1.002
		c-1.289,0-2.426,0.475-3.41,1.424c-0.539,0.516-1.119,1.312-1.74,2.391l-0.545-0.123c0.469-1.781,1.342-3.205,2.619-4.271
		s2.754-1.6,4.43-1.6c1.793,0,3.178,0.492,4.156,1.477s1.469,2.121,1.469,3.41c0,1.137-0.404,2.18-1.213,3.129
		c-0.457,0.539-1.166,1.143-2.127,1.811c1.125,0.48,2.027,1.043,2.707,1.688c1.277,1.23,1.916,2.789,1.916,4.676
		c0,2.227-0.877,4.189-2.629,5.889s-4.244,2.549-7.479,2.549c-1.441,0-2.453-0.215-3.033-0.643s-0.869-0.887-0.869-1.379
		c0-0.305,0.096-0.598,0.289-0.879s0.508-0.422,0.941-0.422C633.44,383.941,634.292,384.277,635.352,384.951z"/>
</g>
<line fill="none" stroke="#0081CD" stroke-miterlimit="10" x1="144" y1="486" x2="396" y2="486"/>
<line fill="none" stroke="#0081CD" stroke-miterlimit="10" x1="144" y1="432" x2="396" y2="432"/>
<line fill="none" stroke="#0081CD" stroke-miterlimit="10" x1="144" y1="378" x2="396" y2="378"/>
<line fill="none" stroke="#0081CD" stroke-miterlimit="10" x1="144" y1="324" x2="396" y2="324"/>
<line fill="none" stroke="#0081CD" stroke-miterlimit="10" x1="351" y1="279" x2="351" y2="531"/>
<line fill="none" stroke="#0081CD" stroke-miterlimit="10" x1="297" y1="531" x2="297" y2="279"/>
<line fill="none" stroke="#0081CD" stroke-miterlimit="10" x1="243" y1="279" x2="243" y2="531"/>
<line fill="none" stroke="#0081CD" stroke-miterlimit="10" x1="189" y1="279" x2="189" y2="531"/>
<path fill="#FFE180" stroke="#231F20" stroke-miterlimit="10" d="M216,447c0,6.627-5.373,12-12,12h-30c-6.628,0-12-5.373-12-12v-30
	c0-6.628,5.372-12,12-12h30c6.627,0,12,5.372,12,12V447z"/>
<path fill="#FFE180" stroke="#231F20" stroke-miterlimit="10" d="M270,339c0,6.627-5.373,12-12,12h-30c-6.628,0-12-5.373-12-12v-30
	c0-6.628,5.372-12,12-12h30c6.627,0,12,5.372,12,12V339z"/>
<path fill="#FFE180" stroke="#231F20" stroke-miterlimit="10" d="M324,501c0,6.627-5.373,12-12,12h-30c-6.628,0-12-5.373-12-12v-30
	c0-6.628,5.372-12,12-12h30c6.627,0,12,5.372,12,12V501z"/>
<path fill="#FFE180" stroke="#231F20" stroke-miterlimit="10" d="M378,393c0,6.627-5.373,12-12,12h-30c-6.628,0-12-5.373-12-12v-30
	c0-6.628,5.372-12,12-12h30c6.627,0,12,5.372,12,12V393z"/>
<g>
	<path d="M181.072,440.596c4.289-4.451,7.201-7.718,8.736-9.802c1.535-2.085,2.303-4.116,2.303-6.095
		c0-1.732-0.469-3.053-1.406-3.959c-0.938-0.908-2.057-1.361-3.357-1.361c-1.605,0-2.906,0.585-3.902,1.756
		c-0.551,0.645-1.078,1.633-1.582,2.968l-0.756-0.157c0.586-2.694,1.579-4.565,2.979-5.613c1.4-1.049,2.903-1.572,4.509-1.572
		c1.98,0,3.583,0.623,4.808,1.87s1.837,2.772,1.837,4.575c0,1.92-0.663,3.771-1.987,5.551c-1.325,1.779-4.202,4.947-8.634,9.502
		h8.071c1.125,0,1.917-0.135,2.374-0.404c0.457-0.27,0.973-0.925,1.547-1.967l0.457,0.211L195.117,441h-14.045V440.596z"/>
</g>
<g>
	<path d="M239.353,330.951c1.061,0.674,1.96,1.012,2.698,1.012c1.641,0,2.859-0.555,3.656-1.664s1.195-2.315,1.195-3.618
		c0-1.256-0.322-2.359-0.967-3.31c-1.09-1.608-2.93-2.412-5.52-2.412c-0.152,0-0.299,0.002-0.439,0.008s-0.305,0.021-0.492,0.045
		l-0.035-0.457c1.875-0.68,3.352-1.459,4.43-2.338s1.617-2.039,1.617-3.48c0-1.277-0.425-2.25-1.274-2.918s-1.819-1.002-2.909-1.002
		c-1.289,0-2.426,0.475-3.41,1.424c-0.539,0.516-1.119,1.312-1.74,2.391l-0.545-0.123c0.469-1.781,1.342-3.205,2.619-4.271
		s2.754-1.6,4.43-1.6c1.793,0,3.179,0.492,4.157,1.477s1.468,2.121,1.468,3.41c0,1.137-0.404,2.18-1.213,3.129
		c-0.457,0.539-1.166,1.143-2.127,1.811c1.125,0.48,2.027,1.043,2.707,1.688c1.277,1.23,1.916,2.789,1.916,4.676
		c0,2.227-0.876,4.189-2.628,5.889s-4.245,2.549-7.479,2.549c-1.441,0-2.452-0.215-3.032-0.643s-0.87-0.887-0.87-1.379
		c0-0.305,0.097-0.598,0.29-0.879s0.507-0.422,0.94-0.422C237.439,329.941,238.292,330.277,239.353,330.951z"/>
</g>
<g>
	<path d="M298.731,470.979c0.006,0.029,0.009,0.098,0.009,0.203v21.164c0,0.902,0.241,1.477,0.724,1.723s1.384,0.393,2.704,0.439
		V495h-9.932v-0.527c1.418-0.07,2.344-0.264,2.777-0.58s0.65-1.002,0.65-2.057v-16.277c0-0.562-0.07-0.99-0.211-1.283
		s-0.445-0.439-0.914-0.439c-0.305,0-0.7,0.084-1.187,0.254s-0.94,0.35-1.362,0.537v-0.492l6.451-3.287h0.211
		C298.699,470.906,298.726,470.949,298.731,470.979z"/>
</g>
<g>
	<path d="M353.654,362.848h1.67v15.82h3.674v2.338h-3.674V387h-2.795v-5.994h-10.125v-2.338L353.654,362.848z M352.494,366.477
		l-8.626,12.191h8.626V366.477z"/>
</g>
</svg>
