<?xml version="1.0" encoding="utf-8"?>
<!-- Generator: Adobe Illustrator 15.1.0, SVG Export Plug-In . SVG Version: 6.00 Build 0)  -->
<!DOCTYPE svg PUBLIC "-//W3C//DTD SVG 1.1//EN" "http://www.w3.org/Graphics/SVG/1.1/DTD/svg11.dtd">
<svg version="1.1" id="Layer_1" xmlns="http://www.w3.org/2000/svg" xmlns:xlink="http://www.w3.org/1999/xlink" x="0px" y="0px"
	 width="288px" height="441px" viewBox="0 0 288 441" enable-background="new 0 0 288 441" xml:space="preserve">
<polyline fill="none" stroke="#000000" stroke-miterlimit="10" points="170.735,219.353 170.735,168.442 170.736,117.531 "/>
<polygon fill="none" stroke="#000000" stroke-miterlimit="10" points="170.735,219.353 145.279,168.441 170.736,117.531 
	196.19,168.442 "/>
<polyline fill="none" stroke="#000000" stroke-miterlimit="10" points="119.824,66.619 119.824,117.531 119.824,168.442 "/>
<polygon fill="none" stroke="#000000" stroke-miterlimit="10" points="119.824,372.087 107.095,321.176 119.824,270.265 
	132.551,321.176 "/>
<polyline fill="none" stroke="#000000" stroke-miterlimit="10" points="221.646,372.087 221.646,321.177 221.646,270.265 "/>
<polyline fill="none" stroke="#000000" stroke-miterlimit="10" points="170.735,423 170.735,372.088 170.735,321.176 "/>
<polygon fill="none" stroke="#000000" stroke-miterlimit="10" points="170.735,423 18,270.265 68.912,219.353 18,168.442 
	170.735,15.708 221.646,66.619 170.736,117.531 221.646,168.441 170.735,219.353 272.558,321.176 "/>
<line fill="none" stroke="#000000" stroke-miterlimit="10" x1="119.824" y1="372.087" x2="221.646" y2="270.265"/>
<polyline fill="none" stroke="#000000" stroke-miterlimit="10" points="68.912,321.176 170.735,219.353 68.912,117.531 "/>
<polyline fill="none" stroke="#000000" stroke-miterlimit="10" points="119.824,66.619 170.736,117.531 68.912,219.353 
	221.646,372.087 "/>
<circle fill="#ABDAC2" stroke="#000000" stroke-miterlimit="10" cx="170.735" cy="423" r="9"/>
<circle fill="#ABDAC2" stroke="#000000" stroke-miterlimit="10" cx="221.646" cy="372.088" r="9"/>
<circle fill="#ABDAC2" stroke="#000000" stroke-miterlimit="10" cx="272.558" cy="321.176" r="9"/>
<circle fill="#ABDAC2" stroke="#000000" stroke-miterlimit="10" cx="119.823" cy="372.088" r="9"/>
<circle fill="#ABDAC2" stroke="#000000" stroke-miterlimit="10" cx="170.735" cy="321.176" r="9"/>
<circle fill="#ABDAC2" stroke="#000000" stroke-miterlimit="10" cx="221.646" cy="270.265" r="9"/>
<circle fill="#ABDAC2" stroke="#000000" stroke-miterlimit="10" cx="68.911" cy="321.176" r="9"/>
<circle fill="#ABDAC2" stroke="#000000" stroke-miterlimit="10" cx="119.823" cy="270.265" r="9"/>
<circle fill="#ABDAC2" stroke="#000000" stroke-miterlimit="10" cx="18" cy="270.266" r="9"/>
<circle fill="#ABDAC2" stroke="#000000" stroke-miterlimit="10" cx="68.912" cy="219.354" r="9"/>
<circle fill="#ABDAC2" stroke="#000000" stroke-miterlimit="10" cx="18" cy="168.442" r="9"/>
<circle fill="#ABDAC2" stroke="#000000" stroke-miterlimit="10" cx="68.912" cy="117.53" r="9"/>
<circle fill="#ABDAC2" stroke="#000000" stroke-miterlimit="10" cx="119.823" cy="168.442" r="9"/>
<circle fill="#ABDAC2" stroke="#000000" stroke-miterlimit="10" cx="170.735" cy="219.354" r="9"/>
<circle fill="#ABDAC2" stroke="#000000" stroke-miterlimit="10" cx="221.646" cy="168.441" r="9"/>
<circle fill="#ABDAC2" stroke="#000000" stroke-miterlimit="10" cx="119.824" cy="66.618" r="8.999"/>
<circle fill="#ABDAC2" stroke="#000000" stroke-miterlimit="10" cx="170.735" cy="117.53" r="9"/>
<circle fill="#ABDAC2" stroke="#000000" stroke-miterlimit="10" cx="170.735" cy="15.707" r="9"/>
<circle fill="#ABDAC2" stroke="#000000" stroke-miterlimit="10" cx="221.647" cy="66.619" r="9"/>
<circle fill="#ABDAC2" stroke="#000000" stroke-miterlimit="10" cx="145.28" cy="168.442" r="9"/>
<circle fill="#ABDAC2" stroke="#000000" stroke-miterlimit="10" cx="170.735" cy="168.442" r="9"/>
<circle fill="#ABDAC2" stroke="#000000" stroke-miterlimit="10" cx="196.19" cy="168.442" r="9"/>
<circle fill="#ABDAC2" stroke="#000000" stroke-miterlimit="10" cx="119.823" cy="117.53" r="9"/>
<circle fill="#ABDAC2" stroke="#000000" stroke-miterlimit="10" cx="107.095" cy="321.176" r="9"/>
<circle fill="#ABDAC2" stroke="#000000" stroke-miterlimit="10" cx="132.551" cy="321.176" r="9"/>
<circle fill="#ABDAC2" stroke="#000000" stroke-miterlimit="10" cx="221.647" cy="321.176" r="9"/>
<circle fill="#ABDAC2" stroke="#000000" stroke-miterlimit="10" cx="170.735" cy="372.088" r="9"/>
</svg>
