<?xml version="1.0" encoding="utf-8"?>
<!-- Generator: Adobe Illustrator 15.1.0, SVG Export Plug-In . SVG Version: 6.00 Build 0)  -->
<!DOCTYPE svg PUBLIC "-//W3C//DTD SVG 1.1//EN" "http://www.w3.org/Graphics/SVG/1.1/DTD/svg11.dtd">
<svg version="1.1" id="Layer_1" xmlns="http://www.w3.org/2000/svg" xmlns:xlink="http://www.w3.org/1999/xlink" x="0px" y="0px"
	 width="387px" height="378px" viewBox="0 0 387 378" enable-background="new 0 0 387 378" xml:space="preserve">
<polygon fill="#FCC210" points="297,333 315,351.333 351,315.333 333,297 "/>
<rect x="350.708" y="76.279" transform="matrix(-0.9487 0.3163 -0.3163 -0.9487 736.6344 146.8508)" fill="#FCC210" width="11.385" height="113.842"/>
<polygon fill="none" stroke="#000000" stroke-width="2" stroke-miterlimit="10" points="189,9 297,45 333,81 369,189 333,297 
	297,333 189,369 81,333 45,297 9,189 45,81 81,45 "/>
<circle fill="#ABD5EE" stroke="#000000" stroke-miterlimit="10" cx="9" cy="81" r="4.5"/>
<circle fill="#ABD5EE" stroke="#000000" stroke-miterlimit="10" cx="9" cy="45" r="4.5"/>
<circle fill="#ABD5EE" stroke="#000000" stroke-miterlimit="10" cx="45" cy="45" r="4.5"/>
<circle fill="#BC1F48" stroke="#000000" stroke-miterlimit="10" cx="45" cy="81" r="4.5"/>
<circle fill="#BC1F48" stroke="#000000" stroke-miterlimit="10" cx="81" cy="81" r="4.5"/>
<circle fill="#BC1F48" stroke="#000000" stroke-miterlimit="10" cx="81" cy="45" r="4.5"/>
<circle fill="#ABD5EE" stroke="#000000" stroke-miterlimit="10" cx="81" cy="9" r="4.5"/>
<circle fill="#ABD5EE" stroke="#000000" stroke-miterlimit="10" cx="45" cy="9" r="4.5"/>
<circle fill="#ABD5EE" stroke="#000000" stroke-miterlimit="10" cx="9" cy="9" r="4.5"/>
<circle fill="#BC1F48" stroke="#000000" stroke-miterlimit="10" cx="117" cy="81" r="4.5"/>
<circle fill="#BC1F48" stroke="#000000" stroke-miterlimit="10" cx="117" cy="45" r="4.5"/>
<circle fill="#BC1F48" stroke="#000000" stroke-miterlimit="10" cx="153" cy="45" r="4.5"/>
<circle fill="#BC1F48" stroke="#000000" stroke-miterlimit="10" cx="153" cy="81" r="4.5"/>
<circle fill="#BC1F48" stroke="#000000" stroke-miterlimit="10" cx="189" cy="81" r="4.5"/>
<circle fill="#BC1F48" stroke="#000000" stroke-miterlimit="10" cx="189" cy="45" r="4.5"/>
<circle fill="#BC1F48" stroke="#000000" stroke-miterlimit="10" cx="189" cy="9" r="4.5"/>
<circle fill="#ABD5EE" stroke="#000000" stroke-miterlimit="10" cx="153" cy="9" r="4.5"/>
<circle fill="#ABD5EE" stroke="#000000" stroke-miterlimit="10" cx="117" cy="9" r="4.5"/>
<circle fill="#BC1F48" stroke="#000000" stroke-miterlimit="10" cx="225" cy="81" r="4.5"/>
<circle fill="#BC1F48" stroke="#000000" stroke-miterlimit="10" cx="225" cy="45" r="4.5"/>
<circle fill="#BC1F48" stroke="#000000" stroke-miterlimit="10" cx="261" cy="45" r="4.5"/>
<circle fill="#BC1F48" stroke="#000000" stroke-miterlimit="10" cx="261" cy="81" r="4.5"/>
<circle fill="#BC1F48" stroke="#000000" stroke-miterlimit="10" cx="297" cy="81" r="4.5"/>
<circle fill="#BC1F48" stroke="#000000" stroke-miterlimit="10" cx="297" cy="45" r="4.5"/>
<circle fill="#ABD5EE" stroke="#000000" stroke-miterlimit="10" cx="297" cy="9" r="4.5"/>
<circle fill="#ABD5EE" stroke="#000000" stroke-miterlimit="10" cx="261" cy="9" r="4.5"/>
<circle fill="#ABD5EE" stroke="#000000" stroke-miterlimit="10" cx="225" cy="9" r="4.5"/>
<circle fill="#BC1F48" stroke="#000000" stroke-miterlimit="10" cx="333" cy="81" r="4.5"/>
<circle fill="#ABD5EE" stroke="#000000" stroke-miterlimit="10" cx="333" cy="45" r="4.5"/>
<circle fill="#ABD5EE" stroke="#000000" stroke-miterlimit="10" cx="369" cy="45" r="4.5"/>
<circle fill="#ABD5EE" stroke="#000000" stroke-miterlimit="10" cx="369" cy="81" r="4.5"/>
<circle fill="#ABD5EE" stroke="#000000" stroke-miterlimit="10" cx="369" cy="9" r="4.5"/>
<circle fill="#ABD5EE" stroke="#000000" stroke-miterlimit="10" cx="333" cy="9" r="4.5"/>
<circle fill="#BC1F48" stroke="#000000" stroke-miterlimit="10" cx="9" cy="189" r="4.5"/>
<circle fill="#ABD5EE" stroke="#000000" stroke-miterlimit="10" cx="9" cy="153" r="4.5"/>
<circle fill="#BC1F48" stroke="#000000" stroke-miterlimit="10" cx="45" cy="153" r="4.5"/>
<circle fill="#BC1F48" stroke="#000000" stroke-miterlimit="10" cx="45" cy="189" r="4.5"/>
<circle fill="#BC1F48" stroke="#000000" stroke-miterlimit="10" cx="81" cy="189" r="4.5"/>
<circle fill="#BC1F48" stroke="#000000" stroke-miterlimit="10" cx="81" cy="153" r="4.5"/>
<circle fill="#BC1F48" stroke="#000000" stroke-miterlimit="10" cx="81" cy="117" r="4.5"/>
<circle fill="#BC1F48" stroke="#000000" stroke-miterlimit="10" cx="45" cy="117" r="4.5"/>
<circle fill="#ABD5EE" stroke="#000000" stroke-miterlimit="10" cx="9" cy="117" r="4.5"/>
<circle fill="#BC1F48" stroke="#000000" stroke-miterlimit="10" cx="117" cy="189" r="4.5"/>
<circle fill="#BC1F48" stroke="#000000" stroke-miterlimit="10" cx="117" cy="153" r="4.5"/>
<circle fill="#BC1F48" stroke="#000000" stroke-miterlimit="10" cx="153" cy="153" r="4.5"/>
<circle fill="#BC1F48" stroke="#000000" stroke-miterlimit="10" cx="153" cy="189" r="4.5"/>
<circle fill="#BC1F48" stroke="#000000" stroke-miterlimit="10" cx="189" cy="189" r="4.5"/>
<circle fill="#BC1F48" stroke="#000000" stroke-miterlimit="10" cx="189" cy="153" r="4.5"/>
<circle fill="#BC1F48" stroke="#000000" stroke-miterlimit="10" cx="189" cy="117" r="4.5"/>
<circle fill="#BC1F48" stroke="#000000" stroke-miterlimit="10" cx="153" cy="117" r="4.5"/>
<circle fill="#BC1F48" stroke="#000000" stroke-miterlimit="10" cx="117" cy="117" r="4.5"/>
<circle fill="#BC1F48" stroke="#000000" stroke-miterlimit="10" cx="225" cy="189" r="4.5"/>
<circle fill="#BC1F48" stroke="#000000" stroke-miterlimit="10" cx="225" cy="153" r="4.5"/>
<circle fill="#BC1F48" stroke="#000000" stroke-miterlimit="10" cx="261" cy="153" r="4.5"/>
<circle fill="#BC1F48" stroke="#000000" stroke-miterlimit="10" cx="261" cy="189" r="4.5"/>
<circle fill="#BC1F48" stroke="#000000" stroke-miterlimit="10" cx="297" cy="189" r="4.5"/>
<circle fill="#BC1F48" stroke="#000000" stroke-miterlimit="10" cx="297" cy="153" r="4.5"/>
<circle fill="#BC1F48" stroke="#000000" stroke-miterlimit="10" cx="297" cy="117" r="4.5"/>
<circle fill="#BC1F48" stroke="#000000" stroke-miterlimit="10" cx="261" cy="117" r="4.5"/>
<circle fill="#BC1F48" stroke="#000000" stroke-miterlimit="10" cx="225" cy="117" r="4.5"/>
<circle fill="#BC1F48" stroke="#000000" stroke-miterlimit="10" cx="333" cy="189" r="4.5"/>
<circle fill="#BC1F48" stroke="#000000" stroke-miterlimit="10" cx="333" cy="153" r="4.5"/>
<circle fill="#009247" stroke="#000000" stroke-miterlimit="10" cx="369" cy="153" r="4.5"/>
<circle fill="#BC1F48" stroke="#000000" stroke-miterlimit="10" cx="369" cy="189" r="4.5"/>
<circle fill="#ABD5EE" stroke="#000000" stroke-miterlimit="10" cx="369" cy="117" r="4.5"/>
<circle fill="#BC1F48" stroke="#000000" stroke-miterlimit="10" cx="333" cy="117" r="4.5"/>
<circle fill="#ABD5EE" stroke="#000000" stroke-miterlimit="10" cx="9" cy="297" r="4.5"/>
<circle fill="#ABD5EE" stroke="#000000" stroke-miterlimit="10" cx="9" cy="261" r="4.5"/>
<circle fill="#BC1F48" stroke="#000000" stroke-miterlimit="10" cx="45" cy="261" r="4.5"/>
<circle fill="#BC1F48" stroke="#000000" stroke-miterlimit="10" cx="45" cy="297" r="4.5"/>
<circle fill="#BC1F48" stroke="#000000" stroke-miterlimit="10" cx="81" cy="297" r="4.5"/>
<circle fill="#BC1F48" stroke="#000000" stroke-miterlimit="10" cx="81" cy="261" r="4.5"/>
<circle fill="#BC1F48" stroke="#000000" stroke-miterlimit="10" cx="81" cy="225" r="4.5"/>
<circle fill="#BC1F48" stroke="#000000" stroke-miterlimit="10" cx="45" cy="225" r="4.5"/>
<circle fill="#ABD5EE" stroke="#000000" stroke-miterlimit="10" cx="9" cy="225" r="4.5"/>
<circle fill="#BC1F48" stroke="#000000" stroke-miterlimit="10" cx="117" cy="297" r="4.5"/>
<circle fill="#BC1F48" stroke="#000000" stroke-miterlimit="10" cx="117" cy="261" r="4.5"/>
<circle fill="#BC1F48" stroke="#000000" stroke-miterlimit="10" cx="153" cy="261" r="4.5"/>
<circle fill="#BC1F48" stroke="#000000" stroke-miterlimit="10" cx="153" cy="297" r="4.5"/>
<circle fill="#BC1F48" stroke="#000000" stroke-miterlimit="10" cx="189" cy="297" r="4.5"/>
<circle fill="#BC1F48" stroke="#000000" stroke-miterlimit="10" cx="189" cy="261" r="4.5"/>
<circle fill="#BC1F48" stroke="#000000" stroke-miterlimit="10" cx="189" cy="225" r="4.5"/>
<circle fill="#BC1F48" stroke="#000000" stroke-miterlimit="10" cx="153" cy="225" r="4.5"/>
<circle fill="#BC1F48" stroke="#000000" stroke-miterlimit="10" cx="117" cy="225" r="4.5"/>
<circle fill="#BC1F48" stroke="#000000" stroke-miterlimit="10" cx="225" cy="297" r="4.5"/>
<circle fill="#BC1F48" stroke="#000000" stroke-miterlimit="10" cx="225" cy="261" r="4.5"/>
<circle fill="#BC1F48" stroke="#000000" stroke-miterlimit="10" cx="261" cy="261" r="4.5"/>
<circle fill="#BC1F48" stroke="#000000" stroke-miterlimit="10" cx="261" cy="297" r="4.5"/>
<circle fill="#BC1F48" stroke="#000000" stroke-miterlimit="10" cx="297" cy="297" r="4.5"/>
<circle fill="#BC1F48" stroke="#000000" stroke-miterlimit="10" cx="297" cy="261" r="4.5"/>
<circle fill="#BC1F48" stroke="#000000" stroke-miterlimit="10" cx="297" cy="225" r="4.5"/>
<circle fill="#BC1F48" stroke="#000000" stroke-miterlimit="10" cx="261" cy="225" r="4.5"/>
<circle fill="#BC1F48" stroke="#000000" stroke-miterlimit="10" cx="225" cy="225" r="4.5"/>
<circle fill="#BC1F48" stroke="#000000" stroke-miterlimit="10" cx="333" cy="297" r="4.5"/>
<circle fill="#BC1F48" stroke="#000000" stroke-miterlimit="10" cx="333" cy="261" r="4.5"/>
<circle fill="#ABD5EE" stroke="#000000" stroke-miterlimit="10" cx="369" cy="261" r="4.5"/>
<circle fill="#ABD5EE" stroke="#000000" stroke-miterlimit="10" cx="369" cy="297" r="4.5"/>
<circle fill="#ABD5EE" stroke="#000000" stroke-miterlimit="10" cx="369" cy="225" r="4.5"/>
<circle fill="#BC1F48" stroke="#000000" stroke-miterlimit="10" cx="333" cy="225" r="4.5"/>
<circle fill="#ABD5EE" stroke="#000000" stroke-miterlimit="10" cx="9" cy="369" r="4.5"/>
<circle fill="#ABD5EE" stroke="#000000" stroke-miterlimit="10" cx="45" cy="369" r="4.5"/>
<circle fill="#ABD5EE" stroke="#000000" stroke-miterlimit="10" cx="81" cy="369" r="4.5"/>
<circle fill="#BC1F48" stroke="#000000" stroke-miterlimit="10" cx="81" cy="333" r="4.5"/>
<circle fill="#ABD5EE" stroke="#000000" stroke-miterlimit="10" cx="45" cy="333" r="4.5"/>
<circle fill="#ABD5EE" stroke="#000000" stroke-miterlimit="10" cx="9" cy="333" r="4.5"/>
<circle fill="#ABD5EE" stroke="#000000" stroke-miterlimit="10" cx="117" cy="369" r="4.5"/>
<circle fill="#ABD5EE" stroke="#000000" stroke-miterlimit="10" cx="153" cy="369" r="4.5"/>
<circle fill="#BC1F48" stroke="#000000" stroke-miterlimit="10" cx="189" cy="369" r="4.5"/>
<circle fill="#BC1F48" stroke="#000000" stroke-miterlimit="10" cx="189" cy="333" r="4.5"/>
<circle fill="#BC1F48" stroke="#000000" stroke-miterlimit="10" cx="153" cy="333" r="4.5"/>
<circle fill="#BC1F48" stroke="#000000" stroke-miterlimit="10" cx="117" cy="333" r="4.5"/>
<circle fill="#ABD5EE" stroke="#000000" stroke-miterlimit="10" cx="225" cy="369" r="4.5"/>
<circle fill="#ABD5EE" stroke="#000000" stroke-miterlimit="10" cx="261" cy="369" r="4.5"/>
<circle fill="#ABD5EE" stroke="#000000" stroke-miterlimit="10" cx="297" cy="369" r="4.5"/>
<circle fill="#BC1F48" stroke="#000000" stroke-miterlimit="10" cx="297" cy="333" r="4.5"/>
<circle fill="#BC1F48" stroke="#000000" stroke-miterlimit="10" cx="261" cy="333" r="4.5"/>
<circle fill="#BC1F48" stroke="#000000" stroke-miterlimit="10" cx="225" cy="333" r="4.5"/>
<circle fill="#ABD5EE" stroke="#000000" stroke-miterlimit="10" cx="333" cy="369" r="4.5"/>
<circle fill="#ABD5EE" stroke="#000000" stroke-miterlimit="10" cx="369" cy="369" r="4.5"/>
<circle fill="#ABD5EE" stroke="#000000" stroke-miterlimit="10" cx="369" cy="333" r="4.5"/>
<circle fill="#009247" stroke="#000000" stroke-miterlimit="10" cx="333" cy="333" r="4.5"/>
</svg>
