<?xml version="1.0" encoding="utf-8"?>
<!-- Generator: Adobe Illustrator 15.1.0, SVG Export Plug-In . SVG Version: 6.00 Build 0)  -->
<!DOCTYPE svg PUBLIC "-//W3C//DTD SVG 1.1//EN" "http://www.w3.org/Graphics/SVG/1.1/DTD/svg11.dtd">
<svg version="1.1" id="Layer_1" xmlns="http://www.w3.org/2000/svg" xmlns:xlink="http://www.w3.org/1999/xlink" x="0px" y="0px"
	 width="720px" height="450px" viewBox="0 0 720 450" enable-background="new 0 0 720 450" xml:space="preserve">
<polyline fill="none" stroke="#0081CD" stroke-width="3" stroke-miterlimit="10" points="36,180 108,36 144,108 "/>
<line fill="none" stroke="#0081CD" stroke-width="3" stroke-miterlimit="10" x1="72" y1="108" x2="108" y2="180"/>
<path fill="#FFE180" stroke="#231F20" stroke-miterlimit="10" d="M135,51c0,6.627-5.373,12-12,12H93c-6.627,0-12-5.373-12-12V21
	c0-6.627,5.373-12,12-12h30c6.627,0,12,5.373,12,12V51z"/>
<path fill="#FFE180" stroke="#231F20" stroke-miterlimit="10" d="M99,123c0,6.627-5.373,12-12,12H57c-6.627,0-12-5.373-12-12V93
	c0-6.627,5.373-12,12-12h30c6.627,0,12,5.373,12,12V123z"/>
<path fill="#FFE180" stroke="#231F20" stroke-miterlimit="10" d="M171,123c0,6.627-5.373,12-12,12h-30c-6.627,0-12-5.373-12-12V93
	c0-6.627,5.373-12,12-12h30c6.627,0,12,5.373,12,12V123z"/>
<path fill="#FFE180" stroke="#231F20" stroke-miterlimit="10" d="M63,195c0,6.627-5.373,12-12,12H21c-6.627,0-12-5.373-12-12v-30
	c0-6.627,5.373-12,12-12h30c6.627,0,12,5.373,12,12V195z"/>
<path fill="#FFE180" stroke="#231F20" stroke-miterlimit="10" d="M135,195c0,6.627-5.373,12-12,12H93c-6.627,0-12-5.373-12-12v-30
	c0-6.627,5.373-12,12-12h30c6.627,0,12,5.373,12,12V195z"/>
<polyline fill="none" stroke="#0081CD" stroke-width="3" stroke-miterlimit="10" points="216,180 288,36 324,108 "/>
<line fill="none" stroke="#0081CD" stroke-width="3" stroke-miterlimit="10" x1="252" y1="108" x2="288" y2="180"/>
<path fill="#FFE180" stroke="#231F20" stroke-miterlimit="10" d="M315,51c0,6.627-5.373,12-12,12h-30c-6.627,0-12-5.373-12-12V21
	c0-6.627,5.373-12,12-12h30c6.627,0,12,5.373,12,12V51z"/>
<path fill="#FFE180" stroke="#231F20" stroke-miterlimit="10" d="M279,123c0,6.627-5.373,12-12,12h-30c-6.627,0-12-5.373-12-12V93
	c0-6.627,5.373-12,12-12h30c6.627,0,12,5.373,12,12V123z"/>
<path fill="#FFE180" stroke="#231F20" stroke-miterlimit="10" d="M351,123c0,6.627-5.373,12-12,12h-30c-6.627,0-12-5.373-12-12V93
	c0-6.627,5.373-12,12-12h30c6.627,0,12,5.373,12,12V123z"/>
<path fill="#FFE180" stroke="#231F20" stroke-miterlimit="10" d="M243,195c0,6.627-5.373,12-12,12h-30c-6.627,0-12-5.373-12-12v-30
	c0-6.627,5.373-12,12-12h30c6.627,0,12,5.373,12,12V195z"/>
<path fill="#FFE180" stroke="#231F20" stroke-miterlimit="10" d="M315,195c0,6.627-5.373,12-12,12h-30c-6.627,0-12-5.373-12-12v-30
	c0-6.627,5.373-12,12-12h30c6.627,0,12,5.373,12,12V195z"/>
<polyline fill="none" stroke="#0081CD" stroke-width="3" stroke-miterlimit="10" points="396,180 468,36 504,108 "/>
<line fill="none" stroke="#0081CD" stroke-width="3" stroke-miterlimit="10" x1="432" y1="108" x2="468" y2="180"/>
<path fill="#FFE180" stroke="#231F20" stroke-miterlimit="10" d="M495,51c0,6.627-5.373,12-12,12h-30c-6.627,0-12-5.373-12-12V21
	c0-6.627,5.373-12,12-12h30c6.627,0,12,5.373,12,12V51z"/>
<path fill="#FFE180" stroke="#231F20" stroke-miterlimit="10" d="M459,123c0,6.627-5.373,12-12,12h-30c-6.627,0-12-5.373-12-12V93
	c0-6.627,5.373-12,12-12h30c6.627,0,12,5.373,12,12V123z"/>
<path fill="#FFE180" stroke="#231F20" stroke-miterlimit="10" d="M531,123c0,6.627-5.373,12-12,12h-30c-6.627,0-12-5.373-12-12V93
	c0-6.627,5.373-12,12-12h30c6.627,0,12,5.373,12,12V123z"/>
<path fill="#FFE180" stroke="#231F20" stroke-miterlimit="10" d="M423,195c0,6.627-5.373,12-12,12h-30c-6.627,0-12-5.373-12-12v-30
	c0-6.627,5.373-12,12-12h30c6.627,0,12,5.373,12,12V195z"/>
<path fill="#FFE180" stroke="#231F20" stroke-miterlimit="10" d="M495,195c0,6.627-5.373,12-12,12h-30c-6.627,0-12-5.373-12-12v-30
	c0-6.627,5.373-12,12-12h30c6.627,0,12,5.373,12,12V195z"/>
<polyline fill="none" stroke="#0081CD" stroke-width="3" stroke-miterlimit="10" points="576,180 648,36 684,108 "/>
<line fill="none" stroke="#0081CD" stroke-width="3" stroke-miterlimit="10" x1="612" y1="108" x2="648" y2="180"/>
<path fill="#FFE180" stroke="#231F20" stroke-miterlimit="10" d="M675,51c0,6.627-5.373,12-12,12h-30c-6.627,0-12-5.373-12-12V21
	c0-6.627,5.373-12,12-12h30c6.627,0,12,5.373,12,12V51z"/>
<path fill="#FFE180" stroke="#231F20" stroke-miterlimit="10" d="M639,123c0,6.627-5.373,12-12,12h-30c-6.627,0-12-5.373-12-12V93
	c0-6.627,5.373-12,12-12h30c6.627,0,12,5.373,12,12V123z"/>
<path fill="#FFE180" stroke="#231F20" stroke-miterlimit="10" d="M711,123c0,6.627-5.373,12-12,12h-30c-6.627,0-12-5.373-12-12V93
	c0-6.627,5.373-12,12-12h30c6.627,0,12,5.373,12,12V123z"/>
<path fill="#FFE180" stroke="#231F20" stroke-miterlimit="10" d="M603,195c0,6.627-5.373,12-12,12h-30c-6.627,0-12-5.373-12-12v-30
	c0-6.627,5.373-12,12-12h30c6.627,0,12,5.373,12,12V195z"/>
<path fill="#FFE180" stroke="#231F20" stroke-miterlimit="10" d="M675,195c0,6.627-5.373,12-12,12h-30c-6.627,0-12-5.373-12-12v-30
	c0-6.627,5.373-12,12-12h30c6.627,0,12,5.373,12,12V195z"/>
<polyline fill="none" stroke="#0081CD" stroke-width="3" stroke-miterlimit="10" points="36,414 108,270 144,342 "/>
<line fill="none" stroke="#0081CD" stroke-width="3" stroke-miterlimit="10" x1="72" y1="342" x2="108" y2="414"/>
<path fill="#FFE180" stroke="#231F20" stroke-miterlimit="10" d="M135,285c0,6.627-5.373,12-12,12H93c-6.627,0-12-5.373-12-12v-30
	c0-6.627,5.373-12,12-12h30c6.627,0,12,5.373,12,12V285z"/>
<path fill="#FFE180" stroke="#231F20" stroke-miterlimit="10" d="M99,357c0,6.627-5.373,12-12,12H57c-6.627,0-12-5.373-12-12v-30
	c0-6.627,5.373-12,12-12h30c6.627,0,12,5.373,12,12V357z"/>
<path fill="#FFE180" stroke="#231F20" stroke-miterlimit="10" d="M171,357c0,6.627-5.373,12-12,12h-30c-6.627,0-12-5.373-12-12v-30
	c0-6.627,5.373-12,12-12h30c6.627,0,12,5.373,12,12V357z"/>
<path fill="#FFE180" stroke="#231F20" stroke-miterlimit="10" d="M63,429c0,6.627-5.373,12-12,12H21c-6.627,0-12-5.373-12-12v-30
	c0-6.627,5.373-12,12-12h30c6.627,0,12,5.373,12,12V429z"/>
<path fill="#FFE180" stroke="#231F20" stroke-miterlimit="10" d="M135,429c0,6.627-5.373,12-12,12H93c-6.627,0-12-5.373-12-12v-30
	c0-6.627,5.373-12,12-12h30c6.627,0,12,5.373,12,12V429z"/>
<polyline fill="none" stroke="#0081CD" stroke-width="3" stroke-miterlimit="10" points="216,414 288,270 324,342 "/>
<line fill="none" stroke="#0081CD" stroke-width="3" stroke-miterlimit="10" x1="252" y1="342" x2="288" y2="414"/>
<path fill="#FFE180" stroke="#231F20" stroke-miterlimit="10" d="M315,285c0,6.627-5.373,12-12,12h-30c-6.627,0-12-5.373-12-12v-30
	c0-6.627,5.373-12,12-12h30c6.627,0,12,5.373,12,12V285z"/>
<path fill="#FFE180" stroke="#231F20" stroke-miterlimit="10" d="M279,357c0,6.627-5.373,12-12,12h-30c-6.627,0-12-5.373-12-12v-30
	c0-6.627,5.373-12,12-12h30c6.627,0,12,5.373,12,12V357z"/>
<path fill="#FFE180" stroke="#231F20" stroke-miterlimit="10" d="M351,357c0,6.627-5.373,12-12,12h-30c-6.627,0-12-5.373-12-12v-30
	c0-6.627,5.373-12,12-12h30c6.627,0,12,5.373,12,12V357z"/>
<path fill="#FFE180" stroke="#231F20" stroke-miterlimit="10" d="M243,429c0,6.627-5.373,12-12,12h-30c-6.627,0-12-5.373-12-12v-30
	c0-6.627,5.373-12,12-12h30c6.627,0,12,5.373,12,12V429z"/>
<path fill="#FFE180" stroke="#231F20" stroke-miterlimit="10" d="M315,429c0,6.627-5.373,12-12,12h-30c-6.627,0-12-5.373-12-12v-30
	c0-6.627,5.373-12,12-12h30c6.627,0,12,5.373,12,12V429z"/>
<polyline fill="none" stroke="#0081CD" stroke-width="3" stroke-miterlimit="10" points="396,414 468,270 504,342 "/>
<line fill="none" stroke="#0081CD" stroke-width="3" stroke-miterlimit="10" x1="432" y1="342" x2="468" y2="414"/>
<path fill="#FFE180" stroke="#231F20" stroke-miterlimit="10" d="M495,285c0,6.627-5.373,12-12,12h-30c-6.627,0-12-5.373-12-12v-30
	c0-6.627,5.373-12,12-12h30c6.627,0,12,5.373,12,12V285z"/>
<path fill="#FFE180" stroke="#231F20" stroke-miterlimit="10" d="M459,357c0,6.627-5.373,12-12,12h-30c-6.627,0-12-5.373-12-12v-30
	c0-6.627,5.373-12,12-12h30c6.627,0,12,5.373,12,12V357z"/>
<path fill="#FFE180" stroke="#231F20" stroke-miterlimit="10" d="M531,357c0,6.627-5.373,12-12,12h-30c-6.627,0-12-5.373-12-12v-30
	c0-6.627,5.373-12,12-12h30c6.627,0,12,5.373,12,12V357z"/>
<path fill="#FFE180" stroke="#231F20" stroke-miterlimit="10" d="M423,429c0,6.627-5.373,12-12,12h-30c-6.627,0-12-5.373-12-12v-30
	c0-6.627,5.373-12,12-12h30c6.627,0,12,5.373,12,12V429z"/>
<path fill="#FFE180" stroke="#231F20" stroke-miterlimit="10" d="M495,429c0,6.627-5.373,12-12,12h-30c-6.627,0-12-5.373-12-12v-30
	c0-6.627,5.373-12,12-12h30c6.627,0,12,5.373,12,12V429z"/>
<polyline fill="none" stroke="#0081CD" stroke-width="3" stroke-miterlimit="10" points="576,414 648,270 684,342 "/>
<line fill="none" stroke="#0081CD" stroke-width="3" stroke-miterlimit="10" x1="612" y1="342" x2="648" y2="414"/>
<path fill="#FFE180" stroke="#231F20" stroke-miterlimit="10" d="M675,285c0,6.627-5.373,12-12,12h-30c-6.627,0-12-5.373-12-12v-30
	c0-6.627,5.373-12,12-12h30c6.627,0,12,5.373,12,12V285z"/>
<path fill="#FFE180" stroke="#231F20" stroke-miterlimit="10" d="M639,357c0,6.627-5.373,12-12,12h-30c-6.627,0-12-5.373-12-12v-30
	c0-6.627,5.373-12,12-12h30c6.627,0,12,5.373,12,12V357z"/>
<path fill="#FFE180" stroke="#231F20" stroke-miterlimit="10" d="M711,357c0,6.627-5.373,12-12,12h-30c-6.627,0-12-5.373-12-12v-30
	c0-6.627,5.373-12,12-12h30c6.627,0,12,5.373,12,12V357z"/>
<path fill="#FFE180" stroke="#231F20" stroke-miterlimit="10" d="M603,429c0,6.627-5.373,12-12,12h-30c-6.627,0-12-5.373-12-12v-30
	c0-6.627,5.373-12,12-12h30c6.627,0,12,5.373,12,12V429z"/>
<path fill="#FFE180" stroke="#231F20" stroke-miterlimit="10" d="M675,429c0,6.627-5.373,12-12,12h-30c-6.627,0-12-5.373-12-12v-30
	c0-6.627,5.373-12,12-12h30c6.627,0,12,5.373,12,12V429z"/>
<g>
	<path fill="#009246" d="M109.731,20.979c0.006,0.029,0.009,0.097,0.009,0.202v21.164c0,0.902,0.241,1.477,0.724,1.723
		s1.384,0.393,2.704,0.439V45h-9.932v-0.527c1.418-0.07,2.344-0.264,2.777-0.58s0.65-1.002,0.65-2.057V25.559
		c0-0.562-0.07-0.99-0.211-1.283s-0.445-0.439-0.914-0.439c-0.305,0-0.7,0.085-1.187,0.255s-0.94,0.349-1.362,0.536v-0.492
		l6.451-3.287h0.211C109.699,20.906,109.726,20.95,109.731,20.979z"/>
</g>
<g>
	<path fill="#009246" d="M289.731,20.979c0.006,0.029,0.009,0.097,0.009,0.202v21.164c0,0.902,0.241,1.477,0.724,1.723
		s1.384,0.393,2.704,0.439V45h-9.932v-0.527c1.418-0.07,2.344-0.264,2.777-0.58s0.65-1.002,0.65-2.057V25.559
		c0-0.562-0.07-0.99-0.211-1.283s-0.445-0.439-0.914-0.439c-0.305,0-0.7,0.085-1.187,0.255s-0.94,0.349-1.362,0.536v-0.492
		l6.451-3.287h0.211C289.699,20.906,289.726,20.95,289.731,20.979z"/>
</g>
<g>
	<path fill="#009246" d="M469.731,20.979c0.006,0.029,0.009,0.097,0.009,0.202v21.164c0,0.902,0.241,1.477,0.725,1.723
		c0.482,0.246,1.384,0.393,2.703,0.439V45h-9.932v-0.527c1.418-0.07,2.344-0.264,2.777-0.58s0.65-1.002,0.65-2.057V25.559
		c0-0.562-0.07-0.99-0.211-1.283s-0.445-0.439-0.914-0.439c-0.305,0-0.7,0.085-1.187,0.255s-0.94,0.349-1.362,0.536v-0.492
		l6.451-3.287h0.211C469.699,20.906,469.726,20.95,469.731,20.979z"/>
</g>
<g>
	<path fill="#009246" d="M649.731,20.979c0.006,0.029,0.009,0.097,0.009,0.202v21.164c0,0.902,0.241,1.477,0.725,1.723
		c0.482,0.246,1.384,0.393,2.703,0.439V45h-9.932v-0.527c1.418-0.07,2.344-0.264,2.777-0.58s0.65-1.002,0.65-2.057V25.559
		c0-0.562-0.07-0.99-0.211-1.283s-0.445-0.439-0.914-0.439c-0.305,0-0.7,0.085-1.187,0.255s-0.94,0.349-1.362,0.536v-0.492
		l6.451-3.287h0.211C649.699,20.906,649.726,20.95,649.731,20.979z"/>
</g>
<g>
	<path fill="#009246" d="M109.731,254.979c0.006,0.029,0.009,0.097,0.009,0.202v21.164c0,0.902,0.241,1.477,0.724,1.723
		s1.384,0.393,2.704,0.439V279h-9.932v-0.527c1.418-0.07,2.344-0.264,2.777-0.58s0.65-1.002,0.65-2.057v-16.277
		c0-0.562-0.07-0.99-0.211-1.283s-0.445-0.439-0.914-0.439c-0.305,0-0.7,0.085-1.187,0.255s-0.94,0.349-1.362,0.536v-0.492
		l6.451-3.287h0.211C109.699,254.906,109.726,254.95,109.731,254.979z"/>
</g>
<g>
	<path fill="#009246" d="M289.731,254.979c0.006,0.029,0.009,0.097,0.009,0.202v21.164c0,0.902,0.241,1.477,0.724,1.723
		s1.384,0.393,2.704,0.439V279h-9.932v-0.527c1.418-0.07,2.344-0.264,2.777-0.58s0.65-1.002,0.65-2.057v-16.277
		c0-0.562-0.07-0.99-0.211-1.283s-0.445-0.439-0.914-0.439c-0.305,0-0.7,0.085-1.187,0.255s-0.94,0.349-1.362,0.536v-0.492
		l6.451-3.287h0.211C289.699,254.906,289.726,254.95,289.731,254.979z"/>
</g>
<g>
	<path fill="#009246" d="M469.731,254.979c0.006,0.029,0.009,0.097,0.009,0.202v21.164c0,0.902,0.241,1.477,0.725,1.723
		c0.482,0.246,1.384,0.393,2.703,0.439V279h-9.932v-0.527c1.418-0.07,2.344-0.264,2.777-0.58s0.65-1.002,0.65-2.057v-16.277
		c0-0.562-0.07-0.99-0.211-1.283s-0.445-0.439-0.914-0.439c-0.305,0-0.7,0.085-1.187,0.255s-0.94,0.349-1.362,0.536v-0.492
		l6.451-3.287h0.211C469.699,254.906,469.726,254.95,469.731,254.979z"/>
</g>
<g>
	<path fill="#009246" d="M649.731,254.979c0.006,0.029,0.009,0.097,0.009,0.202v21.164c0,0.902,0.241,1.477,0.725,1.723
		c0.482,0.246,1.384,0.393,2.703,0.439V279h-9.932v-0.527c1.418-0.07,2.344-0.264,2.777-0.58s0.65-1.002,0.65-2.057v-16.277
		c0-0.562-0.07-0.99-0.211-1.283s-0.445-0.439-0.914-0.439c-0.305,0-0.7,0.085-1.187,0.255s-0.94,0.349-1.362,0.536v-0.492
		l6.451-3.287h0.211C649.699,254.906,649.726,254.95,649.731,254.979z"/>
</g>
<g>
	<path d="M136.072,116.596c4.289-4.45,7.201-7.717,8.736-9.801c1.535-2.084,2.303-4.116,2.303-6.094c0-1.732-0.469-3.053-1.406-3.96
		c-0.938-0.908-2.057-1.361-3.357-1.361c-1.605,0-2.906,0.585-3.902,1.756c-0.551,0.644-1.078,1.633-1.582,2.968l-0.756-0.158
		c0.586-2.694,1.579-4.565,2.979-5.613c1.4-1.048,2.903-1.572,4.509-1.572c1.98,0,3.583,0.624,4.808,1.871s1.837,2.772,1.837,4.575
		c0,1.92-0.663,3.771-1.987,5.55s-4.202,4.947-8.634,9.502h8.071c1.125,0,1.917-0.135,2.374-0.404
		c0.457-0.269,0.973-0.925,1.547-1.967l0.457,0.211L150.117,117h-14.045V116.596z"/>
</g>
<g>
	<path d="M320.353,114.952c1.061,0.674,1.96,1.011,2.698,1.011c1.641,0,2.859-0.555,3.656-1.664s1.195-2.315,1.195-3.618
		c0-1.256-0.322-2.359-0.967-3.31c-1.09-1.608-2.93-2.412-5.52-2.412c-0.152,0-0.299,0.003-0.439,0.009s-0.305,0.021-0.492,0.044
		l-0.035-0.457c1.875-0.68,3.352-1.459,4.43-2.338s1.617-2.039,1.617-3.48c0-1.277-0.425-2.25-1.274-2.918s-1.819-1.002-2.909-1.002
		c-1.289,0-2.426,0.475-3.41,1.424c-0.539,0.516-1.119,1.312-1.74,2.391l-0.545-0.123c0.469-1.781,1.342-3.205,2.619-4.271
		s2.754-1.6,4.43-1.6c1.793,0,3.179,0.492,4.157,1.477s1.468,2.121,1.468,3.41c0,1.137-0.404,2.18-1.213,3.129
		c-0.457,0.539-1.166,1.143-2.127,1.811c1.125,0.48,2.027,1.043,2.707,1.688c1.277,1.23,1.916,2.789,1.916,4.676
		c0,2.227-0.876,4.189-2.628,5.889s-4.245,2.549-7.479,2.549c-1.441,0-2.452-0.214-3.032-0.642s-0.87-0.888-0.87-1.38
		c0-0.305,0.097-0.598,0.29-0.879s0.507-0.422,0.94-0.422C318.439,113.941,319.292,114.278,320.353,114.952z"/>
</g>
<g>
	<path d="M506.654,92.848h1.67v15.82h3.674v2.338h-3.674V117h-2.795v-5.994h-10.125v-2.338L506.654,92.848z M505.494,96.477
		l-8.627,12.191h8.627V96.477z"/>
</g>
<g>
	<path d="M680.323,114.917c1.086,0.756,1.922,1.134,2.509,1.134c1.35,0,2.529-0.595,3.539-1.784
		c1.009-1.189,1.514-2.651,1.514-4.386c0-3.035-1.62-5.221-4.858-6.557c-1.796-0.738-3.468-1.107-5.017-1.107
		c-0.258,0-0.42-0.009-0.484-0.026s-0.144-0.079-0.237-0.184c0.023-0.094,0.044-0.173,0.062-0.237
		c0.018-0.064,0.038-0.125,0.062-0.185l3.834-8.403h7.537c0.374,0,0.664-0.064,0.869-0.193s0.472-0.369,0.8-0.721l0.281,0.246
		l-1.354,3.252c-0.046,0.105-0.175,0.173-0.387,0.202c-0.211,0.029-0.439,0.044-0.686,0.044h-6.812l-1.496,3.076
		c1.924,0.328,3.332,0.639,4.224,0.932c1.466,0.492,2.692,1.219,3.678,2.18c0.845,0.832,1.484,1.767,1.918,2.804
		c0.435,1.037,0.651,2.136,0.651,3.296c0,2.59-0.924,4.752-2.772,6.486c-1.848,1.734-4.186,2.602-7.013,2.602
		c-1.15,0-2.077-0.111-2.781-0.334c-1.173-0.363-1.76-1.014-1.76-1.951c0-0.352,0.126-0.659,0.379-0.923
		c0.252-0.264,0.642-0.396,1.17-0.396C678.36,113.783,679.238,114.161,680.323,114.917z"/>
</g>
<g>
	<path fill="#009246" d="M68.353,114.952c1.061,0.674,1.96,1.011,2.698,1.011c1.641,0,2.859-0.555,3.656-1.664
		s1.195-2.315,1.195-3.618c0-1.256-0.322-2.359-0.967-3.31c-1.09-1.608-2.93-2.412-5.52-2.412c-0.152,0-0.299,0.003-0.439,0.009
		s-0.305,0.021-0.492,0.044l-0.035-0.457c1.875-0.68,3.352-1.459,4.43-2.338s1.617-2.039,1.617-3.48c0-1.277-0.425-2.25-1.274-2.918
		s-1.819-1.002-2.909-1.002c-1.289,0-2.426,0.475-3.41,1.424c-0.539,0.516-1.119,1.312-1.74,2.391l-0.545-0.123
		c0.469-1.781,1.342-3.205,2.619-4.271s2.754-1.6,4.43-1.6c1.793,0,3.179,0.492,4.157,1.477s1.468,2.121,1.468,3.41
		c0,1.137-0.404,2.18-1.213,3.129c-0.457,0.539-1.166,1.143-2.127,1.811c1.125,0.48,2.027,1.043,2.707,1.688
		c1.277,1.23,1.916,2.789,1.916,4.676c0,2.227-0.876,4.189-2.628,5.889s-4.245,2.549-7.479,2.549c-1.441,0-2.452-0.214-3.032-0.642
		s-0.87-0.888-0.87-1.38c0-0.305,0.097-0.598,0.29-0.879s0.507-0.422,0.94-0.422C66.439,113.941,67.292,114.278,68.353,114.952z"/>
</g>
<g>
	<path fill="#009246" d="M244.072,116.596c4.289-4.45,7.201-7.717,8.736-9.801c1.535-2.084,2.303-4.116,2.303-6.094
		c0-1.732-0.469-3.053-1.406-3.96c-0.938-0.908-2.057-1.361-3.357-1.361c-1.605,0-2.906,0.585-3.902,1.756
		c-0.551,0.644-1.078,1.633-1.582,2.968l-0.756-0.158c0.586-2.694,1.579-4.565,2.979-5.613c1.4-1.048,2.903-1.572,4.509-1.572
		c1.98,0,3.583,0.624,4.808,1.871s1.837,2.772,1.837,4.575c0,1.92-0.663,3.771-1.987,5.55s-4.202,4.947-8.634,9.502h8.071
		c1.125,0,1.917-0.135,2.374-0.404c0.457-0.269,0.973-0.925,1.547-1.967l0.457,0.211L258.117,117h-14.045V116.596z"/>
</g>
<g>
	<path fill="#009246" d="M424.072,116.596c4.289-4.45,7.201-7.717,8.736-9.801c1.535-2.084,2.303-4.116,2.303-6.094
		c0-1.732-0.469-3.053-1.406-3.96c-0.938-0.908-2.057-1.361-3.357-1.361c-1.605,0-2.906,0.585-3.902,1.756
		c-0.551,0.644-1.078,1.633-1.582,2.968l-0.756-0.158c0.586-2.694,1.579-4.565,2.979-5.613c1.4-1.048,2.903-1.572,4.509-1.572
		c1.98,0,3.583,0.624,4.808,1.871s1.837,2.772,1.837,4.575c0,1.92-0.662,3.771-1.987,5.55c-1.324,1.78-4.202,4.947-8.634,9.502
		h8.071c1.125,0,1.916-0.135,2.373-0.404s0.974-0.925,1.548-1.967l0.457,0.211L438.117,117h-14.045V116.596z"/>
</g>
<g>
	<path fill="#009246" d="M604.072,116.596c4.289-4.45,7.201-7.717,8.736-9.801c1.535-2.084,2.303-4.116,2.303-6.094
		c0-1.732-0.469-3.053-1.406-3.96c-0.938-0.908-2.057-1.361-3.357-1.361c-1.605,0-2.906,0.585-3.902,1.756
		c-0.551,0.644-1.078,1.633-1.582,2.968l-0.756-0.158c0.586-2.694,1.579-4.565,2.979-5.613c1.4-1.048,2.903-1.572,4.509-1.572
		c1.98,0,3.583,0.624,4.808,1.871s1.837,2.772,1.837,4.575c0,1.92-0.662,3.771-1.987,5.55c-1.324,1.78-4.202,4.947-8.634,9.502
		h8.071c1.125,0,1.916-0.135,2.373-0.404s0.974-0.925,1.548-1.967l0.457,0.211L618.117,117h-14.045V116.596z"/>
</g>
<g>
	<path d="M136.072,350.596c4.289-4.45,7.201-7.717,8.736-9.801c1.535-2.085,2.303-4.116,2.303-6.095c0-1.732-0.469-3.053-1.406-3.96
		c-0.938-0.908-2.057-1.361-3.357-1.361c-1.605,0-2.906,0.586-3.902,1.756c-0.551,0.645-1.078,1.634-1.582,2.969l-0.756-0.158
		c0.586-2.693,1.579-4.564,2.979-5.613c1.4-1.048,2.903-1.572,4.509-1.572c1.98,0,3.583,0.623,4.808,1.871
		c1.225,1.246,1.837,2.771,1.837,4.574c0,1.921-0.663,3.771-1.987,5.551s-4.202,4.947-8.634,9.502h8.071
		c1.125,0,1.917-0.135,2.374-0.404c0.457-0.269,0.973-0.924,1.547-1.967l0.457,0.211L150.117,351h-14.045V350.596z"/>
</g>
<g>
	<path d="M320.353,348.952c1.061,0.674,1.96,1.011,2.698,1.011c1.641,0,2.859-0.555,3.656-1.664
		c0.797-1.108,1.195-2.314,1.195-3.617c0-1.256-0.322-2.359-0.967-3.311c-1.09-1.607-2.93-2.412-5.52-2.412
		c-0.152,0-0.299,0.003-0.439,0.009s-0.305,0.021-0.492,0.044l-0.035-0.457c1.875-0.68,3.352-1.459,4.43-2.338
		s1.617-2.039,1.617-3.48c0-1.277-0.425-2.25-1.274-2.918s-1.819-1.002-2.909-1.002c-1.289,0-2.426,0.475-3.41,1.424
		c-0.539,0.516-1.119,1.312-1.74,2.391l-0.545-0.123c0.469-1.781,1.342-3.205,2.619-4.271s2.754-1.6,4.43-1.6
		c1.793,0,3.179,0.492,4.157,1.477s1.468,2.121,1.468,3.41c0,1.137-0.404,2.18-1.213,3.129c-0.457,0.539-1.166,1.143-2.127,1.811
		c1.125,0.48,2.027,1.043,2.707,1.688c1.277,1.23,1.916,2.789,1.916,4.676c0,2.227-0.876,4.189-2.628,5.889
		s-4.245,2.549-7.479,2.549c-1.441,0-2.452-0.214-3.032-0.642s-0.87-0.888-0.87-1.38c0-0.305,0.097-0.598,0.29-0.879
		s0.507-0.422,0.94-0.422C318.439,347.941,319.292,348.278,320.353,348.952z"/>
</g>
<g>
	<path d="M506.654,326.848h1.67v15.82h3.674v2.338h-3.674V351h-2.795v-5.994h-10.125v-2.338L506.654,326.848z M505.494,330.477
		l-8.627,12.191h8.627V330.477z"/>
</g>
<g>
	<path d="M680.323,348.917c1.086,0.756,1.922,1.134,2.509,1.134c1.35,0,2.529-0.595,3.539-1.784
		c1.009-1.189,1.514-2.651,1.514-4.386c0-3.035-1.62-5.221-4.858-6.557c-1.796-0.738-3.468-1.107-5.017-1.107
		c-0.258,0-0.42-0.009-0.484-0.026s-0.144-0.079-0.237-0.185c0.023-0.094,0.044-0.172,0.062-0.236s0.038-0.126,0.062-0.186
		l3.834-8.402h7.537c0.374,0,0.664-0.064,0.869-0.193s0.472-0.369,0.8-0.721l0.281,0.246l-1.354,3.252
		c-0.046,0.105-0.175,0.173-0.387,0.202c-0.211,0.029-0.439,0.044-0.686,0.044h-6.812l-1.496,3.076
		c1.924,0.328,3.332,0.639,4.224,0.932c1.466,0.492,2.692,1.219,3.678,2.18c0.845,0.832,1.484,1.767,1.918,2.804
		c0.435,1.037,0.651,2.136,0.651,3.296c0,2.59-0.924,4.752-2.772,6.486c-1.848,1.734-4.186,2.602-7.013,2.602
		c-1.15,0-2.077-0.111-2.781-0.334c-1.173-0.363-1.76-1.014-1.76-1.951c0-0.352,0.126-0.659,0.379-0.923
		c0.252-0.264,0.642-0.396,1.17-0.396C678.36,347.783,679.238,348.161,680.323,348.917z"/>
</g>
<g>
	<path fill="#009246" d="M68.353,348.952c1.061,0.674,1.96,1.011,2.698,1.011c1.641,0,2.859-0.555,3.656-1.664
		c0.797-1.108,1.195-2.314,1.195-3.617c0-1.256-0.322-2.359-0.967-3.311c-1.09-1.607-2.93-2.412-5.52-2.412
		c-0.152,0-0.299,0.003-0.439,0.009s-0.305,0.021-0.492,0.044l-0.035-0.457c1.875-0.68,3.352-1.459,4.43-2.338
		s1.617-2.039,1.617-3.48c0-1.277-0.425-2.25-1.274-2.918s-1.819-1.002-2.909-1.002c-1.289,0-2.426,0.475-3.41,1.424
		c-0.539,0.516-1.119,1.312-1.74,2.391l-0.545-0.123c0.469-1.781,1.342-3.205,2.619-4.271s2.754-1.6,4.43-1.6
		c1.793,0,3.179,0.492,4.157,1.477s1.468,2.121,1.468,3.41c0,1.137-0.404,2.18-1.213,3.129c-0.457,0.539-1.166,1.143-2.127,1.811
		c1.125,0.48,2.027,1.043,2.707,1.688c1.277,1.23,1.916,2.789,1.916,4.676c0,2.227-0.876,4.189-2.628,5.889
		s-4.245,2.549-7.479,2.549c-1.441,0-2.452-0.214-3.032-0.642s-0.87-0.888-0.87-1.38c0-0.305,0.097-0.598,0.29-0.879
		s0.507-0.422,0.94-0.422C66.439,347.941,67.292,348.278,68.353,348.952z"/>
</g>
<g>
	<path fill="#009246" d="M244.072,350.596c4.289-4.45,7.201-7.717,8.736-9.801c1.535-2.085,2.303-4.116,2.303-6.095
		c0-1.732-0.469-3.053-1.406-3.96c-0.938-0.908-2.057-1.361-3.357-1.361c-1.605,0-2.906,0.586-3.902,1.756
		c-0.551,0.645-1.078,1.634-1.582,2.969l-0.756-0.158c0.586-2.693,1.579-4.564,2.979-5.613c1.4-1.048,2.903-1.572,4.509-1.572
		c1.98,0,3.583,0.623,4.808,1.871c1.225,1.246,1.837,2.771,1.837,4.574c0,1.921-0.663,3.771-1.987,5.551s-4.202,4.947-8.634,9.502
		h8.071c1.125,0,1.917-0.135,2.374-0.404c0.457-0.269,0.973-0.924,1.547-1.967l0.457,0.211L258.117,351h-14.045V350.596z"/>
</g>
<g>
	<path fill="#009246" d="M424.072,350.596c4.289-4.45,7.201-7.717,8.736-9.801c1.535-2.085,2.303-4.116,2.303-6.095
		c0-1.732-0.469-3.053-1.406-3.96c-0.938-0.908-2.057-1.361-3.357-1.361c-1.605,0-2.906,0.586-3.902,1.756
		c-0.551,0.645-1.078,1.634-1.582,2.969l-0.756-0.158c0.586-2.693,1.579-4.564,2.979-5.613c1.4-1.048,2.903-1.572,4.509-1.572
		c1.98,0,3.583,0.623,4.808,1.871c1.225,1.246,1.837,2.771,1.837,4.574c0,1.921-0.662,3.771-1.987,5.551
		c-1.324,1.779-4.202,4.947-8.634,9.502h8.071c1.125,0,1.916-0.135,2.373-0.404c0.457-0.269,0.974-0.924,1.548-1.967l0.457,0.211
		L438.117,351h-14.045V350.596z"/>
</g>
<g>
	<path fill="#009246" d="M604.072,350.596c4.289-4.45,7.201-7.717,8.736-9.801c1.535-2.085,2.303-4.116,2.303-6.095
		c0-1.732-0.469-3.053-1.406-3.96c-0.938-0.908-2.057-1.361-3.357-1.361c-1.605,0-2.906,0.586-3.902,1.756
		c-0.551,0.645-1.078,1.634-1.582,2.969l-0.756-0.158c0.586-2.693,1.579-4.564,2.979-5.613c1.4-1.048,2.903-1.572,4.509-1.572
		c1.98,0,3.583,0.623,4.808,1.871c1.225,1.246,1.837,2.771,1.837,4.574c0,1.921-0.662,3.771-1.987,5.551
		c-1.324,1.779-4.202,4.947-8.634,9.502h8.071c1.125,0,1.916-0.135,2.373-0.404c0.457-0.269,0.974-0.924,1.548-1.967l0.457,0.211
		L618.117,351h-14.045V350.596z"/>
</g>
<g>
	<path d="M38.654,164.848h1.67v15.82h3.674v2.338h-3.674V189h-2.795v-5.994H27.404v-2.338L38.654,164.848z M37.494,168.477
		l-8.626,12.191h8.626V168.477z"/>
</g>
<g>
	<path d="M104.324,186.917c1.085,0.756,1.922,1.134,2.509,1.134c1.35,0,2.529-0.595,3.539-1.784
		c1.009-1.189,1.514-2.651,1.514-4.386c0-3.035-1.62-5.221-4.858-6.557c-1.795-0.738-3.468-1.107-5.017-1.107
		c-0.258,0-0.42-0.009-0.484-0.026s-0.144-0.079-0.237-0.184c0.023-0.094,0.044-0.173,0.062-0.237
		c0.018-0.064,0.038-0.125,0.062-0.185l3.834-8.403h7.537c0.375,0,0.665-0.064,0.87-0.193c0.205-0.129,0.471-0.369,0.799-0.721
		l0.281,0.246l-1.354,3.252c-0.046,0.105-0.175,0.173-0.386,0.202c-0.211,0.029-0.44,0.044-0.686,0.044h-6.812l-1.496,3.076
		c1.924,0.328,3.332,0.639,4.223,0.932c1.467,0.492,2.693,1.219,3.678,2.18c0.845,0.832,1.484,1.767,1.918,2.804
		c0.434,1.037,0.651,2.136,0.651,3.296c0,2.59-0.924,4.752-2.772,6.486c-1.848,1.734-4.186,2.602-7.014,2.602
		c-1.149,0-2.077-0.111-2.781-0.334c-1.173-0.363-1.76-1.014-1.76-1.951c0-0.352,0.126-0.659,0.378-0.923s0.643-0.396,1.17-0.396
		C102.361,185.783,103.238,186.161,104.324,186.917z"/>
</g>
<g>
	<path d="M32.324,420.917c1.085,0.756,1.922,1.134,2.509,1.134c1.35,0,2.529-0.595,3.539-1.784c1.009-1.189,1.514-2.651,1.514-4.386
		c0-3.035-1.62-5.221-4.858-6.557c-1.795-0.738-3.468-1.107-5.017-1.107c-0.258,0-0.42-0.009-0.484-0.026s-0.144-0.079-0.237-0.185
		c0.023-0.094,0.044-0.173,0.062-0.236c0.018-0.064,0.038-0.126,0.062-0.185l3.834-8.403h7.537c0.375,0,0.665-0.064,0.87-0.193
		c0.205-0.129,0.471-0.369,0.799-0.721l0.281,0.246l-1.354,3.252c-0.046,0.105-0.175,0.173-0.386,0.202
		c-0.211,0.029-0.44,0.044-0.686,0.044h-6.812l-1.496,3.076c1.924,0.328,3.332,0.639,4.223,0.932
		c1.467,0.492,2.693,1.219,3.678,2.18c0.845,0.832,1.484,1.767,1.918,2.804c0.434,1.037,0.651,2.136,0.651,3.296
		c0,2.59-0.924,4.752-2.772,6.486c-1.848,1.734-4.186,2.602-7.014,2.602c-1.149,0-2.077-0.111-2.781-0.334
		c-1.173-0.363-1.76-1.014-1.76-1.951c0-0.352,0.126-0.659,0.378-0.923s0.643-0.396,1.17-0.396
		C30.361,419.783,31.238,420.161,32.324,420.917z"/>
</g>
<g>
	<path d="M110.654,398.848h1.67v15.82h3.674v2.338h-3.674V423h-2.795v-5.994H99.404v-2.338L110.654,398.848z M109.494,402.477
		l-8.626,12.191h8.626V402.477z"/>
</g>
<g>
	<path d="M218.654,164.848h1.67v15.82h3.674v2.338h-3.674V189h-2.795v-5.994h-10.125v-2.338L218.654,164.848z M217.494,168.477
		l-8.626,12.191h8.626V168.477z"/>
</g>
<g>
	<path d="M284.324,186.917c1.085,0.756,1.922,1.134,2.509,1.134c1.35,0,2.529-0.595,3.539-1.784
		c1.009-1.189,1.514-2.651,1.514-4.386c0-3.035-1.62-5.221-4.858-6.557c-1.795-0.738-3.468-1.107-5.017-1.107
		c-0.258,0-0.42-0.009-0.484-0.026s-0.144-0.079-0.237-0.184c0.023-0.094,0.044-0.173,0.062-0.237
		c0.018-0.064,0.038-0.125,0.062-0.185l3.834-8.403h7.537c0.375,0,0.665-0.064,0.87-0.193c0.205-0.129,0.471-0.369,0.799-0.721
		l0.281,0.246l-1.354,3.252c-0.046,0.105-0.175,0.173-0.386,0.202c-0.211,0.029-0.44,0.044-0.686,0.044h-6.812l-1.496,3.076
		c1.924,0.328,3.332,0.639,4.223,0.932c1.467,0.492,2.693,1.219,3.678,2.18c0.845,0.832,1.484,1.767,1.918,2.804
		c0.434,1.037,0.651,2.136,0.651,3.296c0,2.59-0.924,4.752-2.772,6.486c-1.848,1.734-4.186,2.602-7.014,2.602
		c-1.149,0-2.077-0.111-2.781-0.334c-1.173-0.363-1.76-1.014-1.76-1.951c0-0.352,0.126-0.659,0.378-0.923s0.643-0.396,1.17-0.396
		C282.361,185.783,283.238,186.161,284.324,186.917z"/>
</g>
<g>
	<path d="M212.324,420.917c1.085,0.756,1.922,1.134,2.509,1.134c1.35,0,2.529-0.595,3.539-1.784
		c1.009-1.189,1.514-2.651,1.514-4.386c0-3.035-1.62-5.221-4.858-6.557c-1.795-0.738-3.468-1.107-5.017-1.107
		c-0.258,0-0.42-0.009-0.484-0.026s-0.144-0.079-0.237-0.185c0.023-0.094,0.044-0.173,0.062-0.236
		c0.018-0.064,0.038-0.126,0.062-0.185l3.834-8.403h7.537c0.375,0,0.665-0.064,0.87-0.193c0.205-0.129,0.471-0.369,0.799-0.721
		l0.281,0.246l-1.354,3.252c-0.046,0.105-0.175,0.173-0.386,0.202c-0.211,0.029-0.44,0.044-0.686,0.044h-6.812l-1.496,3.076
		c1.924,0.328,3.332,0.639,4.223,0.932c1.467,0.492,2.693,1.219,3.678,2.18c0.845,0.832,1.484,1.767,1.918,2.804
		c0.434,1.037,0.651,2.136,0.651,3.296c0,2.59-0.924,4.752-2.772,6.486c-1.848,1.734-4.186,2.602-7.014,2.602
		c-1.149,0-2.077-0.111-2.781-0.334c-1.173-0.363-1.76-1.014-1.76-1.951c0-0.352,0.126-0.659,0.378-0.923s0.643-0.396,1.17-0.396
		C210.361,419.783,211.238,420.161,212.324,420.917z"/>
</g>
<g>
	<path d="M290.654,398.848h1.67v15.82h3.674v2.338h-3.674V423h-2.795v-5.994h-10.125v-2.338L290.654,398.848z M289.494,402.477
		l-8.626,12.191h8.626V402.477z"/>
</g>
<g>
	<path d="M392.353,186.952c1.061,0.674,1.96,1.011,2.698,1.011c1.641,0,2.859-0.555,3.656-1.664s1.195-2.315,1.195-3.618
		c0-1.256-0.322-2.359-0.967-3.31c-1.09-1.608-2.93-2.412-5.52-2.412c-0.152,0-0.299,0.003-0.439,0.009s-0.305,0.021-0.492,0.044
		l-0.035-0.457c1.875-0.68,3.352-1.459,4.43-2.338s1.617-2.039,1.617-3.48c0-1.277-0.425-2.25-1.274-2.918s-1.819-1.002-2.909-1.002
		c-1.289,0-2.426,0.475-3.41,1.424c-0.539,0.516-1.119,1.312-1.74,2.391l-0.545-0.123c0.469-1.781,1.342-3.205,2.619-4.271
		s2.754-1.6,4.43-1.6c1.793,0,3.179,0.492,4.157,1.477s1.468,2.121,1.468,3.41c0,1.137-0.404,2.18-1.213,3.129
		c-0.457,0.539-1.166,1.143-2.127,1.811c1.125,0.48,2.027,1.043,2.707,1.688c1.277,1.23,1.916,2.789,1.916,4.676
		c0,2.227-0.876,4.189-2.628,5.889s-4.245,2.549-7.479,2.549c-1.441,0-2.452-0.214-3.032-0.642s-0.87-0.888-0.87-1.38
		c0-0.305,0.097-0.598,0.29-0.879s0.507-0.422,0.94-0.422C390.439,185.941,391.292,186.278,392.353,186.952z"/>
</g>
<g>
	<path d="M464.324,186.917c1.085,0.756,1.922,1.134,2.508,1.134c1.35,0,2.529-0.595,3.539-1.784
		c1.009-1.189,1.514-2.651,1.514-4.386c0-3.035-1.619-5.221-4.858-6.557c-1.796-0.738-3.468-1.107-5.017-1.107
		c-0.258,0-0.42-0.009-0.484-0.026s-0.144-0.079-0.237-0.184c0.023-0.094,0.044-0.173,0.062-0.237
		c0.018-0.064,0.038-0.125,0.062-0.185l3.834-8.403h7.537c0.374,0,0.665-0.064,0.87-0.193c0.204-0.129,0.471-0.369,0.799-0.721
		l0.281,0.246l-1.354,3.252c-0.046,0.105-0.175,0.173-0.386,0.202c-0.212,0.029-0.44,0.044-0.687,0.044h-6.812l-1.496,3.076
		c1.924,0.328,3.332,0.639,4.223,0.932c1.467,0.492,2.693,1.219,3.679,2.18c0.845,0.832,1.484,1.767,1.918,2.804
		c0.435,1.037,0.651,2.136,0.651,3.296c0,2.59-0.924,4.752-2.771,6.486c-1.849,1.734-4.187,2.602-7.014,2.602
		c-1.15,0-2.077-0.111-2.781-0.334c-1.173-0.363-1.76-1.014-1.76-1.951c0-0.352,0.126-0.659,0.379-0.923
		c0.252-0.264,0.643-0.396,1.17-0.396C462.361,185.783,463.238,186.161,464.324,186.917z"/>
</g>
<g>
	<path d="M392.324,420.917c1.085,0.756,1.922,1.134,2.508,1.134c1.35,0,2.529-0.595,3.539-1.784
		c1.009-1.189,1.514-2.651,1.514-4.386c0-3.035-1.619-5.221-4.858-6.557c-1.796-0.738-3.468-1.107-5.017-1.107
		c-0.258,0-0.42-0.009-0.484-0.026s-0.144-0.079-0.237-0.185c0.023-0.094,0.044-0.173,0.062-0.236
		c0.018-0.064,0.038-0.126,0.062-0.185l3.834-8.403h7.537c0.374,0,0.665-0.064,0.87-0.193c0.204-0.129,0.471-0.369,0.799-0.721
		l0.281,0.246l-1.354,3.252c-0.046,0.105-0.175,0.173-0.386,0.202c-0.212,0.029-0.44,0.044-0.687,0.044h-6.812l-1.496,3.076
		c1.924,0.328,3.332,0.639,4.223,0.932c1.467,0.492,2.693,1.219,3.679,2.18c0.845,0.832,1.484,1.767,1.918,2.804
		c0.435,1.037,0.651,2.136,0.651,3.296c0,2.59-0.924,4.752-2.771,6.486c-1.849,1.734-4.187,2.602-7.014,2.602
		c-1.15,0-2.077-0.111-2.781-0.334c-1.173-0.363-1.76-1.014-1.76-1.951c0-0.352,0.126-0.659,0.379-0.923
		c0.252-0.264,0.643-0.396,1.17-0.396C390.361,419.783,391.238,420.161,392.324,420.917z"/>
</g>
<g>
	<path d="M464.353,420.952c1.061,0.674,1.96,1.011,2.698,1.011c1.641,0,2.859-0.555,3.656-1.664
		c0.797-1.108,1.195-2.314,1.195-3.618c0-1.256-0.322-2.358-0.967-3.31c-1.09-1.607-2.93-2.412-5.52-2.412
		c-0.152,0-0.299,0.003-0.439,0.009s-0.305,0.021-0.492,0.044l-0.035-0.457c1.875-0.68,3.352-1.459,4.43-2.338
		s1.617-2.039,1.617-3.48c0-1.277-0.425-2.25-1.274-2.918s-1.819-1.002-2.909-1.002c-1.289,0-2.426,0.475-3.41,1.424
		c-0.539,0.516-1.119,1.312-1.74,2.391l-0.545-0.123c0.469-1.781,1.342-3.205,2.619-4.271s2.754-1.6,4.43-1.6
		c1.793,0,3.179,0.492,4.157,1.477s1.468,2.121,1.468,3.41c0,1.137-0.404,2.18-1.213,3.129c-0.457,0.539-1.166,1.143-2.127,1.811
		c1.125,0.48,2.027,1.043,2.707,1.688c1.277,1.23,1.916,2.789,1.916,4.676c0,2.227-0.876,4.189-2.628,5.889
		s-4.245,2.549-7.479,2.549c-1.441,0-2.452-0.214-3.032-0.642s-0.87-0.888-0.87-1.38c0-0.305,0.097-0.598,0.29-0.879
		s0.507-0.422,0.94-0.422C462.439,419.941,463.292,420.278,464.353,420.952z"/>
</g>
<g>
	<path d="M572.353,186.952c1.061,0.674,1.96,1.011,2.698,1.011c1.641,0,2.859-0.555,3.656-1.664s1.195-2.315,1.195-3.618
		c0-1.256-0.322-2.359-0.967-3.31c-1.09-1.608-2.93-2.412-5.52-2.412c-0.152,0-0.299,0.003-0.439,0.009s-0.305,0.021-0.492,0.044
		l-0.035-0.457c1.875-0.68,3.352-1.459,4.43-2.338s1.617-2.039,1.617-3.48c0-1.277-0.425-2.25-1.274-2.918s-1.819-1.002-2.909-1.002
		c-1.289,0-2.426,0.475-3.41,1.424c-0.539,0.516-1.119,1.312-1.74,2.391l-0.545-0.123c0.469-1.781,1.342-3.205,2.619-4.271
		s2.754-1.6,4.43-1.6c1.793,0,3.179,0.492,4.157,1.477s1.468,2.121,1.468,3.41c0,1.137-0.404,2.18-1.213,3.129
		c-0.457,0.539-1.166,1.143-2.127,1.811c1.125,0.48,2.027,1.043,2.707,1.688c1.277,1.23,1.916,2.789,1.916,4.676
		c0,2.227-0.876,4.189-2.628,5.889s-4.245,2.549-7.479,2.549c-1.441,0-2.452-0.214-3.032-0.642s-0.87-0.888-0.87-1.38
		c0-0.305,0.097-0.598,0.29-0.879s0.507-0.422,0.94-0.422C570.439,185.941,571.292,186.278,572.353,186.952z"/>
</g>
<g>
	<path d="M650.654,164.848h1.67v15.82h3.674v2.338h-3.674V189h-2.795v-5.994h-10.125v-2.338L650.654,164.848z M649.494,168.477
		l-8.627,12.191h8.627V168.477z"/>
</g>
<g>
	<path d="M578.654,398.848h1.67v15.82h3.674v2.338h-3.674V423h-2.795v-5.994h-10.125v-2.338L578.654,398.848z M577.494,402.477
		l-8.627,12.191h8.627V402.477z"/>
</g>
<g>
	<path d="M644.353,420.952c1.061,0.674,1.96,1.011,2.698,1.011c1.641,0,2.859-0.555,3.656-1.664
		c0.797-1.108,1.195-2.314,1.195-3.618c0-1.256-0.322-2.358-0.967-3.31c-1.09-1.607-2.93-2.412-5.52-2.412
		c-0.152,0-0.299,0.003-0.439,0.009s-0.305,0.021-0.492,0.044l-0.035-0.457c1.875-0.68,3.352-1.459,4.43-2.338
		s1.617-2.039,1.617-3.48c0-1.277-0.425-2.25-1.274-2.918s-1.819-1.002-2.909-1.002c-1.289,0-2.426,0.475-3.41,1.424
		c-0.539,0.516-1.119,1.312-1.74,2.391l-0.545-0.123c0.469-1.781,1.342-3.205,2.619-4.271s2.754-1.6,4.43-1.6
		c1.793,0,3.179,0.492,4.157,1.477s1.468,2.121,1.468,3.41c0,1.137-0.404,2.18-1.213,3.129c-0.457,0.539-1.166,1.143-2.127,1.811
		c1.125,0.48,2.027,1.043,2.707,1.688c1.277,1.23,1.916,2.789,1.916,4.676c0,2.227-0.876,4.189-2.628,5.889
		s-4.245,2.549-7.479,2.549c-1.441,0-2.452-0.214-3.032-0.642s-0.87-0.888-0.87-1.38c0-0.305,0.097-0.598,0.29-0.879
		s0.507-0.422,0.94-0.422C642.439,419.941,643.292,420.278,644.353,420.952z"/>
</g>
</svg>
