<?xml version="1.0" encoding="utf-8"?>
<!-- Generator: Adobe Illustrator 14.0.0, SVG Export Plug-In . SVG Version: 6.00 Build 43363)  -->
<!DOCTYPE svg PUBLIC "-//W3C//DTD SVG 1.1//EN" "http://www.w3.org/Graphics/SVG/1.1/DTD/svg11.dtd">
<svg version="1.1" id="Layer_1" xmlns="http://www.w3.org/2000/svg" xmlns:xlink="http://www.w3.org/1999/xlink" x="0px" y="0px"
	 width="666px" height="468px" viewBox="0 0 666 468" enable-background="new 0 0 666 468" xml:space="preserve">
<g>
	<g>
		<path fill="none" stroke="#0081CD" stroke-width="2" d="M315,117c0,0,45,0,81,0s72-36-36-36c-84.415,0-192.172,90-72,90
			c144,0,0,0,144,0c109.298,0,73.266-108-72-108c-141.523,0-249.523,162-108,162c180,0,0,0,180,0c148.276,0,184.266-180-72-180
			C125.591,45,53.591,279,216,279c216,0,36,0,252,0c188.317,0,224.319-251.077-108-252C42.695,26.119,6.697,333,144,333
			c180,0,180,0,360,0C662.831,333,815.785,9,360,9C-56.064,9-47.064,387,108,387c216,0,540,0,540,0"/>
		<path fill="#0081CD" d="M660.07,387c-5.68,2.107-12.727,5.703-17.094,9.51l3.439-9.51l-3.439-9.51
			C647.344,381.297,654.391,384.894,660.07,387z"/>
		<g>
			<polygon fill="#0081CD" points="308.893,109.893 309.201,110.252 315,116 297.653,116 291.443,109.893 			"/>
			<path fill="#0081CD" d="M291.443,123.955l6.21-5.902H315c-2.258,1.693-4.311,3.695-6.158,5.902H291.443z"/>
		</g>
	</g>
</g>
<circle fill="#FFFFFF" cx="360" cy="117" r="21"/>
<circle fill="#FFFFFF" cx="324" cy="171" r="21"/>
<circle fill="#FFFFFF" cx="378" cy="171" r="21"/>
<circle fill="#FFFFFF" cx="306" cy="225" r="21"/>
<circle fill="#FFFFFF" cx="396" cy="225" r="21"/>
<circle fill="#FFFFFF" cx="270" cy="279" r="21"/>
<circle fill="#FFFFFF" cx="342" cy="279" r="21"/>
<circle fill="#FFFFFF" cx="414" cy="279" r="21"/>
<circle fill="#FFFFFF" cx="216" cy="333" r="21"/>
<circle fill="#FFFFFF" cx="270" cy="333" r="21"/>
<circle fill="#FFFFFF" cx="324" cy="333" r="21"/>
<circle fill="#FFFFFF" cx="378" cy="333" r="21"/>
<circle fill="#FFFFFF" cx="432" cy="333" r="21"/>
<circle fill="#FFFFFF" cx="171" cy="387" r="21"/>
<circle fill="#FFFFFF" cx="216" cy="387" r="21"/>
<circle fill="#FFFFFF" cx="261" cy="387" r="21"/>
<circle fill="#FFFFFF" cx="306" cy="387" r="21"/>
<circle fill="#FFFFFF" cx="351" cy="387" r="21"/>
<circle fill="#FFFFFF" cx="396" cy="387" r="21"/>
<circle fill="#FFFFFF" cx="441" cy="387" r="21"/>
<circle fill="#FFFFFF" cx="486" cy="387" r="21"/>
<polyline fill="none" stroke="#BC1E47" stroke-width="4" points="441,432 441,387 432,333 486,387 486,432 "/>
<line fill="none" stroke="#BC1E47" stroke-width="4" x1="414" y1="432" x2="396" y2="387"/>
<polyline fill="none" stroke="#BC1E47" stroke-width="4" points="378,432 396,387 378,333 342,279 324,333 351,387 351,432 "/>
<line fill="none" stroke="#BC1E47" stroke-width="4" x1="324" y1="432" x2="306" y2="387"/>
<polyline fill="none" stroke="#BC1E47" stroke-width="4" points="288,432 306,387 270,333 261,387 243,432 "/>
<line fill="none" stroke="#BC1E47" stroke-width="4" x1="279" y1="432" x2="261" y2="387"/>
<polyline fill="none" stroke="#BC1E47" stroke-width="4" points="216,432 216,387 216,333 171,387 171,432 "/>
<polyline fill="none" stroke="#BC1E47" stroke-width="4" points="306,225 324,171 360,117 378,171 396,225 414,279 432,333 "/>
<polyline fill="none" stroke="#BC1E47" stroke-width="4" points="270,279 306,225 342,279 "/>
<polyline fill="none" stroke="#BC1E47" stroke-width="4" points="216,333 270,279 270,333 "/>
<circle fill="#FEC200" stroke="#000000" cx="360" cy="117" r="18"/>
<text transform="matrix(1 0 0 1 351 128.9995)" font-family="'Times-Roman'" font-size="36">2</text>
<circle fill="#FEC200" stroke="#000000" cx="306" cy="225" r="18"/>
<text transform="matrix(1 0 0 1 297 237)" font-family="'Times-Roman'" font-size="36">2</text>
<circle fill="#FEC200" stroke="#000000" cx="270" cy="279" r="18"/>
<text transform="matrix(1 0 0 1 261 291)" font-family="'Times-Roman'" font-size="36">2</text>
<circle fill="#FEC200" stroke="#000000" cx="432" cy="333" r="18"/>
<text transform="matrix(1 0 0 1 423 345)" font-family="'Times-Roman'" font-size="36">2</text>
<circle fill="#FEC200" stroke="#000000" cx="342" cy="279" r="18"/>
<text transform="matrix(1 0 0 1 333 291)" font-family="'Times-Roman'" font-size="36">2</text>
<circle fill="#FEC200" stroke="#000000" cx="324" cy="171" r="18"/>
<text transform="matrix(1 0 0 1 315 183)" font-family="'Times-Roman'" font-size="36">1</text>
<circle fill="#FEC200" stroke="#000000" cx="378" cy="171" r="18"/>
<text transform="matrix(1 0 0 1 369 183)" font-family="'Times-Roman'" font-size="36">1</text>
<circle fill="#FEC200" stroke="#000000" cx="441" cy="387" r="18"/>
<text transform="matrix(1 0 0 1 432 399)" font-family="'Times-Roman'" font-size="36">1</text>
<circle fill="#FEC200" stroke="#000000" cx="486" cy="387" r="18"/>
<text transform="matrix(1 0 0 1 477 399)" font-family="'Times-Roman'" font-size="36">1</text>
<circle fill="#FEC200" stroke="#000000" cx="396" cy="225" r="18"/>
<text transform="matrix(1 0 0 1 387 237)" font-family="'Times-Roman'" font-size="36">1</text>
<circle fill="#FEC200" stroke="#000000" cx="414" cy="279" r="18"/>
<text transform="matrix(1 0 0 1 405 291)" font-family="'Times-Roman'" font-size="36">1</text>
<circle fill="#FEC200" stroke="#000000" cx="216" cy="333" r="18"/>
<text transform="matrix(1 0 0 1 207 345)" font-family="'Times-Roman'" font-size="36">2</text>
<circle fill="#FEC200" stroke="#000000" cx="396" cy="387" r="18"/>
<text transform="matrix(1 0 0 1 387 399)" font-family="'Times-Roman'" font-size="36">2</text>
<circle fill="#FEC200" stroke="#000000" cx="270" cy="333" r="18"/>
<text transform="matrix(1 0 0 1 261 345)" font-family="'Times-Roman'" font-size="36">2</text>
<circle fill="#FEC200" stroke="#000000" cx="324" cy="333" r="18"/>
<text transform="matrix(1 0 0 1 315 345)" font-family="'Times-Roman'" font-size="36">1</text>
<circle fill="#FEC200" stroke="#000000" cx="261" cy="387" r="18"/>
<text transform="matrix(1 0 0 1 252 399)" font-family="'Times-Roman'" font-size="36">2</text>
<circle fill="#FEC200" stroke="#000000" cx="306" cy="387" r="18"/>
<text transform="matrix(1 0 0 1 297 399)" font-family="'Times-Roman'" font-size="36">2</text>
<circle fill="#FEC200" stroke="#000000" cx="351" cy="387" r="18"/>
<text transform="matrix(1 0 0 1 342 399)" font-family="'Times-Roman'" font-size="36">1</text>
<circle fill="#FEC200" stroke="#000000" cx="378" cy="333" r="18"/>
<text transform="matrix(1 0 0 1 369 345)" font-family="'Times-Roman'" font-size="36">1</text>
<circle fill="#FEC200" stroke="#000000" cx="171" cy="387" r="18"/>
<text transform="matrix(1 0 0 1 162 399)" font-family="'Times-Roman'" font-size="36">1</text>
<circle fill="#FEC200" stroke="#000000" cx="216" cy="387" r="18"/>
<text transform="matrix(1 0 0 1 207 399)" font-family="'Times-Roman'" font-size="36">1</text>
<circle cx="360" cy="440.667" r="2"/>
<circle cx="360" cy="448.667" r="2"/>
<circle cx="360" cy="458" r="2"/>
</svg>
