<svg xmlns="http://www.w3.org/2000/svg" width="2178" height="1161">
    <path d="M1682.999 899.999h243v234.002h-243V899.999zm0-288h243v234.002h-243V611.999zm0-288h243v234.002h-243V323.999zm0-288h243v234.002h-243V35.999zm-720 864h243v234.002h-243V899.999zm0-288h243v234.002h-243V611.999zm0-288h243v234.002h-243V323.999zm0-288h243v234.002h-243V35.999zm-720.001 864h243v234.002h-243V899.999zm0-288h243v234.002h-243V611.999zm0-288h243v234.002h-243V323.999zm0-288h243v234.002h-243V35.999z" fill="#FFFFEB"/>
    <g fill="none" stroke="#000">
        <path d="M1926.499 2114.999c36 0 440.5-1619.999 476.5-1619.999m-476.5 1593c36 0 440.5-1854 476.5-1854m-476.5 1827c36 0 440.5-2088 476.5-2088"/>
        <path d="M1926.5 1854c36 0 449.501-1386 476.5-1386m-476.501 1358.999c36 0 440.5-1619.999 476.5-1619.999m-476.5 1593c36 0 440.5-1854 476.5-1854m-476.5 1827c36 0 440.5-2088 476.5-2088"/>
        <path d="M1926.499 1620c36 0 440.5-918 476.5-918m-476.5 891c36 0 440.5-1152 476.5-1152M1926.5 1566c36 0 449.501-1386 476.5-1386m-476.501 1359c36 0 440.5-1620 476.5-1620m-476.5 1593c36 0 440.5-1854 476.5-1854m-476.5 1827c36 0 440.5-2088 476.5-2088"/>
        <path d="M1926.499 1386c36 0 440.5-450 476.5-450m-476.5 423c36 0 440.5-684 476.5-684m-476.5 657c36 0 440.5-918 476.5-918m-476.5 891c36 0 440.5-1152 476.5-1152M1926.5 1278c36 0 449.501-1386 476.5-1386m-476.501 1359c36 0 440.5-1620 476.5-1620m-476.5 1593c36 0 440.5-1854 476.5-1854m-476.5 1827c36 0 440.5-2088 476.5-2088m-720 2016c80.822 0 45.004-216.002 126-216.002h117"/>
        <path d="M1682.999 1098c29.25 0 36-108 58.5-108 13.5 0 15.75 27 40.5 27s35.51-81.002 63-81.002h81"/>
        <path d="M1682.999 1071c15.75 0 11.25-27 22.5-27s4.5 54 27 54c110.25 0 108.011-135 148.5-135h45"/>
        <path d="M1682.999 1017c83.156 0 48.822 108 108 108 117.156 0 99-108 135-108"/>
        <path d="M1682.999 990h31.5c15.75 0 31.011 54 45 54 40.495 0 49.677-26.999 63-27 13.323 0 14.344 27 27 27s15.75-27 27-27 15.75 54 27 54 9-27 22.5-27"/>
        <path d="M1682.999 908.999h67.5c44.995 0 72.005 216.002 117 216.002h58.5"/>
        <path d="M1682.999 1044c18 0 16.823 81 45 81 170.822 0 142.49-135 184.5-135h13.5"/>
        <path d="M1682.999 963h49.823c15.75 0 22.172 27 40.172 27 12.99 0 16.829-27 34.829-27s23.677 54 41.677 54 9-27 27-27 31.5 81 49.5 81"/>
        <path d="M1682.999 935.999l56.822.001c18 0 15.178 27 33.178 27s18-27.002 36-27.002c39.49 0 71.994 162.002 99 162.002h18m.5 27c36 0 440.5-216 476.5-216m-476.5 189c36 0 440.5-450 476.5-450m-476.5 423c36 0 440.5-684 476.5-684m-476.5 657c36 0 440.5-918 476.5-918m-476.5 891c36 0 440.5-1152 476.5-1152M1926.5 990c36 0 449.501-1386 476.5-1386M1926.499 963c36 0 440.5-1620 476.5-1620m-476.5 1593c36 0 440.5-1854 476.5-1854m-476.5 1827c36 0 440.5-2088 476.5-2088m-720 2016c80.822 0 45.004-216.002 126-216.002h117"/>
        <path d="M1682.999 810c29.25 0 36-108 58.5-108 13.5 0 15.75 27 40.5 27s35.51-81.002 63-81.002h81"/>
        <path d="M1682.999 783c15.75 0 11.25-27 22.5-27s4.5 54 27 54c110.25 0 108.011-135 148.5-135h45"/>
        <path d="M1682.999 729c83.156 0 48.822 108 108 108 117.156 0 99-108 135-108"/>
        <path d="M1682.999 702h31.5c15.75 0 31.011 54 45 54 40.495 0 49.677-26.999 63-27 13.323 0 14.344 27 27 27s15.75-27 27-27 15.75 54 27 54 9-27 22.5-27"/>
        <path d="M1682.999 620.999h67.5c44.995 0 72.005 216.001 117 216.001h58.5"/>
        <path d="M1682.999 756c18 0 16.823 81 45 81 170.822 0 142.49-135 184.5-135h13.5"/>
        <path d="M1682.999 675h49.823c15.75 0 22.172 27 40.172 27 12.99 0 16.829-27 34.829-27s23.677 54 41.677 54 9-27 27-27 31.5 81 49.5 81"/>
        <path d="M1682.999 647.999l56.822.001c18 0 15.178 27 33.178 27s18-27.002 36-27.002c39.49 0 71.994 162.002 99 162.002h18m.5 27c36 0 440.5-216 476.5-216m-476.5 189c36 0 440.5-450 476.5-450m-476.5 423c36 0 440.5-684 476.5-684m-476.5 657c36 0 440.5-918 476.5-918m-476.5 891c36 0 440.5-1152 476.5-1152M1926.5 702c36 0 449.501-1386 476.5-1386M1926.499 675c36 0 440.5-1620 476.5-1620m-476.5 1593c36 0 440.5-1854 476.5-1854m-476.5 1827c36 0 440.5-2088 476.5-2088m-720 2016c80.822 0 45.004-216.002 126-216.002h117"/>
        <path d="M1682.999 522c29.25 0 36-108 58.5-108 13.5 0 15.75 27 40.5 27s35.51-81.002 63-81.002h81"/>
        <path d="M1682.999 495c15.75 0 11.25-27 22.5-27s4.5 54 27 54c110.25 0 108.011-135 148.5-135h45"/>
        <path d="M1682.999 441c83.156 0 48.822 108 108 108 117.156 0 99-108 135-108"/>
        <path d="M1682.999 414h31.5c15.75 0 31.011 54 45 54 40.495 0 49.677-26.999 63-27 13.323 0 14.344 27 27 27s15.75-27 27-27 15.75 54 27 54 9-27 22.5-27"/>
        <path d="M1682.999 468c18 0 16.823 81 45 81 170.822 0 142.49-135 184.5-135h13.5"/>
        <path d="M1682.999 387h49.823c15.75 0 22.172 27 40.172 27 12.99 0 16.829-27 34.829-27s23.677 54 41.677 54 9-27 27-27 31.5 81 49.5 81"/>
        <path d="M1682.999 359.999l56.822.001c18 0 15.178 27 33.178 27s18-27.002 36-27.002c39.49 0 71.994 162.002 99 162.002h18m.5 0c36 0 440.5-450 476.5-450m-476.5 423c36 0 440.5-684 476.5-684m-476.5 657c36 0 440.5-918 476.5-918m-476.5 891c36 0 440.5-1152 476.5-1152M1926.5 414c36 0 449.501-1386 476.5-1386M1926.499 387c36 0 440.5-1620 476.5-1620m-476.5 1593c36 0 440.5-1854 476.5-1854m-476.5 1827c36 0 440.5-2088 476.5-2088m-720 2016c80.822 0 45.004-216.002 126-216.002h117"/>
        <path d="M1682.999 234c29.25 0 36-108 58.5-108 13.5 0 15.75 27 40.5 27s35.51-81.002 63-81.002h81"/>
        <path d="M1682.999 207c15.75 0 11.25-27 22.5-27s4.5 54 27 54c110.25 0 108.011-135 148.5-135.001s45 0 45 0"/>
        <path d="M1682.999 153c83.156 0 48.822 108 108 108 117.156 0 99-108 135-108"/>
        <path d="M1682.999 126h31.5c15.75 0 31.011 54 45 54 40.495 0 49.677-26.999 63-27s14.344 27 27 27 15.75-27 27-27 15.75 54 27 54 9-27 22.5-27"/>
        <path d="M1682.999 44.999h67.5c44.995 0 72.005 216.001 117 216.001h58.5"/>
        <path d="M1682.999 180c18 0 16.823 81 45 81 170.822 0 142.49-135 184.5-135h13.5"/>
        <path d="M1682.999 99l49.823.001c15.75 0 22.172 27 40.172 27 12.99 0 16.829-27 34.829-27s23.677 54 41.677 54 9-27 27-27 31.5 81 49.5 81m.499 53.999c36 0 440.5-216 476.5-216m-476.5 162c36 0 440.5-684 476.5-684m-476.5 657c36 0 440.5-918 476.5-918m-476.5 891c36 0 440.5-1152 476.5-1152M1926.5 126c36 0 449.501-1386 476.5-1386M1926.499 99c36 0 440.5-1619.999 476.5-1619.999M1926.499 72c36 0 440.5-1854 476.5-1854m-476.5 1827c36 0 440.5-2088 476.5-2088m-1196.5 5256c36 0 440.5-2088 476.5-2088"/>
        <path d="M1206.499 2952c36 0 440.5-1854 476.5-1854m-476.5 1827c36 0 440.5-2088 476.5-2088"/>
        <path d="M1206.499 2690.999c36 0 440.5-1619.999 476.5-1619.999m-476.5 1593c36 0 440.5-1854 476.5-1854m-476.5 1827c36 0 440.5-2088 476.5-2088"/>
        <path d="M1206.5 2430c36 0 449.501-1386 476.5-1386m-476.501 1358.999c36 0 440.5-1619.999 476.5-1619.999m-476.5 1593c36 0 440.5-1854 476.5-1854m-476.5 1827c36 0 440.5-2088 476.5-2088"/>
        <path d="M1206.499 2169c36 0 440.5-1152 476.5-1152M1206.5 2142c36 0 449.501-1386 476.5-1386m-476.501 1358.999c36 0 440.5-1619.999 476.5-1619.999m-476.5 1593c36 0 440.5-1854 476.5-1854m-476.5 1827c36 0 440.5-2088 476.5-2088"/>
        <path d="M1206.499 1908c36 0 440.5-918 476.5-918m-476.5 891c36 0 440.5-1152 476.5-1152M1206.5 1854c36 0 449.501-1386 476.5-1386m-476.501 1358.999c36 0 440.5-1619.999 476.5-1619.999m-476.5 1593c36 0 440.5-1854 476.5-1854m-476.5 1827c36 0 440.5-2088 476.5-2088"/>
        <path d="M1206.499 1647c36 0 440.5-684 476.5-684m-476.5 657c36 0 440.5-918 476.5-918m-476.5 891c36 0 440.5-1152 476.5-1152M1206.5 1566c36 0 449.501-1386 476.5-1386m-476.501 1359c36 0 440.5-1620 476.5-1620m-476.5 1593c36 0 440.5-1854 476.5-1854m-476.5 1827c36 0 440.5-2088 476.5-2088"/>
        <path d="M1206.499 1386c36 0 440.5-450 476.5-450m-476.5 423c36 0 440.5-684 476.5-684m-476.5 657c36 0 440.5-918 476.5-918m-476.5 891c36 0 440.5-1152 476.5-1152M1206.5 1278c36 0 449.501-1386 476.5-1386m-476.501 1359c36 0 440.5-1620 476.5-1620m-476.5 1593c36 0 440.5-1854 476.5-1854m-476.5 1827c36 0 440.5-2088 476.5-2088m-720 2016c80.823 0 45.005-216.002 126-216.002h117"/>
        <path d="M962.999 1098c29.25 0 36-108 58.5-108 13.5 0 15.75 27 40.5 27s35.51-81.002 63-81.002h81"/>
        <path d="M962.999 1071c15.75 0 11.25-27 22.5-27s4.5 54 27 54c110.25 0 108.011-135 148.5-135h45"/>
        <path d="M962.999 1017c83.156 0 48.823 108 108 108 117.156 0 99-108 135-108"/>
        <path d="M962.999 990h31.5c15.75 0 31.011 54 45 54 40.495 0 49.677-26.999 63-27 13.323 0 14.344 27 27 27s15.75-27 27-27 15.75 54 27 54 9-27 22.5-27"/>
        <path d="M962.999 908.999h67.5c44.995 0 72.005 216.002 117 216.002h58.5"/>
        <path d="M962.999 1044c18 0 16.823 81 45 81 170.823 0 142.49-135 184.5-135h13.5"/>
        <path d="M962.999 963h49.823c15.75 0 22.172 27 40.172 27 12.99 0 16.829-27 34.829-27s23.677 54 41.677 54 9-27 27-27 31.5 81 49.5 81"/>
        <path d="M962.999 935.999l56.823.001c18 0 15.177 27 33.177 27s18-27.002 36-27.002c39.49 0 71.994 162.002 99 162.002h18m.5 27c36 0 440.5-216 476.5-216m-476.5 189c36 0 440.5-450 476.5-450m-476.5 423c36 0 440.5-684 476.5-684m-476.5 657c36 0 440.5-918 476.5-918m-476.5 891c36 0 440.5-1152 476.5-1152M1206.5 990c36 0 449.501-1386 476.5-1386M1206.499 963c36 0 440.5-1620 476.5-1620m-476.5 1593c36 0 440.5-1854 476.5-1854m-476.5 1827c36 0 440.5-2088 476.5-2088m-720 2016c80.823 0 45.005-216.002 126-216.002h117"/>
        <path d="M962.999 810c29.25 0 36-108 58.5-108 13.5 0 15.75 27 40.5 27s35.51-81.002 63-81.002h81"/>
        <path d="M962.999 783c15.75 0 11.25-27 22.5-27s4.5 54 27 54c110.25 0 108.011-135 148.5-135h45"/>
        <path d="M962.999 729c83.156 0 48.823 108 108 108 117.156 0 99-108 135-108"/>
        <path d="M962.999 702h31.5c15.75 0 31.011 54 45 54 40.495 0 49.677-26.999 63-27 13.323 0 14.344 27 27 27s15.75-27 27-27 15.75 54 27 54 9-27 22.5-27"/>
        <path d="M962.999 620.999h67.5c44.995 0 72.005 216.002 117 216.002h58.5"/>
        <path d="M962.999 756c18 0 16.823 81 45 81 170.823 0 142.49-135 184.5-135h13.5"/>
        <path d="M962.999 675h49.823c15.75 0 22.172 27 40.172 27 12.99 0 16.829-27 34.829-27s23.677 54 41.677 54 9-27 27-27 31.5 81 49.5 81"/>
        <path d="M962.999 647.999l56.823.001c18 0 15.177 27 33.177 27s18-27.002 36-27.002c39.49 0 71.994 162.002 99 162.002h18m.5 27c36 0 440.5-216 476.5-216m-476.5 189c36 0 440.5-450 476.5-450m-476.5 423c36 0 440.5-684 476.5-684m-476.5 657c36 0 440.5-918 476.5-918m-476.5 891c36 0 440.5-1152 476.5-1152M1206.5 702c36 0 449.501-1386 476.5-1386M1206.499 675c36 0 440.5-1620 476.5-1620m-476.5 1593c36 0 440.5-1854 476.5-1854m-476.5 1827c36 0 440.5-2088 476.5-2088m-720 1728c80.823 0 45.005-216.002 126-216.002h117"/>
        <path d="M962.999 234c29.25 0 36-108 58.5-108 13.5 0 15.75 27 40.5 27s35.51-81.002 63-81.002h81"/>
        <path d="M962.999 207c15.75 0 11.25-27 22.5-27s4.5 54 27 54c110.25 0 108.011-135 148.5-135.001s45 0 45 0"/>
        <path d="M962.999 153c83.156 0 48.823 108 108 108 117.156 0 99-108 135-108"/>
        <path d="M962.999 126h31.5c15.75 0 31.011 54 45 54 40.495 0 49.677-26.999 63-27s14.344 27 27 27 15.75-27 27-27 15.75 54 27 54 9-27 22.5-27"/>
        <path d="M962.999 44.999h67.5c44.995 0 72.005 216.002 117 216.002h58.5"/>
        <path d="M962.999 180c18 0 16.823 81 45 81 170.823 0 142.49-135 184.5-135h13.5"/>
        <path d="M962.999 99l49.823.001c15.75 0 22.172 27 40.172 27 12.99 0 16.829-27 34.829-27s23.677 54 41.677 54 9-27 27-27 31.5 81 49.5 81"/>
        <path d="M962.999 71.999l56.823.001c18 0 15.177 27 33.177 27s18-27.002 36-27.002c39.49-.001 71.994 162.002 99 162.002h18m.5 27c36 0 440.5-216 476.5-216m-476.5 189c36 0 440.5-450 476.5-450m-476.5 423c36 0 440.5-684 476.5-684m-476.5 657c36 0 440.5-918 476.5-918m-476.5 891c36 0 440.5-1152 476.5-1152M1206.5 126c36 0 449.501-1386 476.5-1386M1206.499 99c36 0 440.5-1619.999 476.5-1619.999M1206.499 72c36 0 440.5-1854 476.5-1854m-476.5 1827c36 0 440.5-2088 476.5-2088M486.498 3213c36 0 440.5-2088 476.5-2088"/>
        <path d="M486.498 2952c36 0 440.5-1854 476.5-1854m-476.5 1827c36 0 440.5-2088 476.5-2088"/>
        <path d="M486.498 2690.999c36 0 440.5-1619.999 476.5-1619.999m-476.5 1593c36 0 440.5-1854 476.5-1854"/>
        <path d="M486.499 2430c36 0 449.501-1386 476.5-1386M486.498 2402.999c36 0 440.5-1619.999 476.5-1619.999m-476.5 1566c36 0 440.5-2088 476.5-2088"/>
        <path d="M486.498 2169c36.001 0 440.5-1152 476.5-1152M486.499 2142c36 0 449.501-1386 476.5-1386M486.498 2088c36 0 440.5-1854 476.5-1854m-476.5 1827c36 0 440.5-2088 476.5-2088"/>
        <path d="M486.498 1908c36.001 0 440.5-918 476.5-918m-476.5 891c36.001 0 440.5-1152 476.5-1152m-476.5 1097.999c36 0 440.5-1619.999 476.5-1619.999m-476.5 1593c36 0 440.5-1854 476.5-1854m-476.5 1827c36 0 440.5-2088 476.5-2088"/>
        <path d="M486.498 1647c36.001 0 440.5-684 476.5-684m-476.5 657c36.001 0 440.5-918 476.5-918m-476.499 864c36 0 449.501-1386 476.5-1386M486.498 1539c36 0 440.5-1620 476.5-1620m-476.5 1593c36 0 440.5-1854 476.5-1854m-476.5 1827c36 0 440.5-2088 476.5-2088"/>
        <path d="M486.498 1386c36.001 0 440.5-450 476.5-450m-476.5 423c36.001 0 440.5-684 476.5-684m-476.5 630c36.001 0 440.5-1152 476.5-1152M486.499 1278c36 0 449.501-1386 476.5-1386M486.498 1251c36 0 440.5-1620 476.5-1620m-476.5 1593c36 0 440.5-1854 476.5-1854m-476.5 1827c36 0 440.5-2088 476.5-2088m-720 2016c80.823 0 45.005-216.002 126-216.002h117"/>
        <path d="M242.998 1098c29.25 0 36-108 58.5-108 13.5 0 15.75 27 40.5 27s35.511-81.002 63-81.002h81"/>
        <path d="M242.998 1071c15.75 0 11.25-27 22.5-27s4.5 54 27 54c110.25 0 108.011-135 148.5-135h45"/>
        <path d="M242.998 1017c83.157 0 48.823 108 108 108 117.157 0 99-108 135-108"/>
        <path d="M242.998 990h31.5c15.75 0 31.011 54 45 54 40.496 0 49.677-26.999 63-27 13.324 0 14.344 27 27 27 12.657 0 15.75-27 27-27s15.75 54 27 54 9-27 22.5-27"/>
        <path d="M242.998 908.999h67.5c44.995 0 72.005 216.002 117 216.002h58.5"/>
        <path d="M242.998 1044c18 0 16.823 81 45 81 170.823 0 142.491-135 184.5-135h13.5"/>
        <path d="M242.998 935.999l56.823.001c18 0 15.177 27 33.177 27s18-27.002 36-27.002c39.491 0 71.995 162.002 99 162.002h18m.5 27c36.001 0 440.5-216 476.5-216m-476.5 189c36.001 0 440.5-450 476.5-450m-476.5 396c36.001 0 440.5-918 476.5-918m-476.5 891c36.001 0 440.5-1152 476.5-1152M486.499 990c36 0 449.501-1386 476.5-1386M486.498 963c36 0 440.5-1620 476.5-1620m-476.5 1593c36 0 440.5-1854 476.5-1854m-476.5 1827c36 0 440.5-2088 476.5-2088m-720 2016c80.823 0 45.005-216.002 126-216.002h117"/>
        <path d="M242.998 810c29.25 0 36-108 58.5-108 13.5 0 15.75 27 40.5 27s35.511-81.002 63-81.002h81"/>
        <path d="M242.998 783c15.75 0 11.25-27 22.5-27s4.5 54 27 54c110.25 0 108.011-135 148.5-135h45"/>
        <path d="M242.998 729c83.157 0 48.823 108 108 108 117.157 0 99-108 135-108"/>
        <path d="M242.998 702h31.5c15.75 0 31.011 54 45 54 40.496 0 49.677-26.999 63-27 13.324 0 14.344 27 27 27 12.657 0 15.75-27 27-27s15.75 54 27 54 9-27 22.5-27"/>
        <path d="M242.998 620.999h67.5c44.995 0 72.005 216.002 117 216.002h58.5"/>
        <path d="M242.998 756c18 0 16.823 81 45 81 170.823 0 142.491-135 184.5-135h13.5"/>
        <path d="M242.998 675h49.823c15.75 0 22.172 27 40.172 27 12.99 0 16.829-27 34.829-27s23.676 54 41.676 54 9-27 27-27 31.5 81 49.5 81m.5 54c36.001 0 440.5-216 476.5-216m-476.5 162c36.001 0 440.5-684 476.5-684m-476.5 657c36.001 0 440.5-918 476.5-918m-476.5 891c36.001 0 440.5-1152 476.5-1152M486.499 702c36 0 449.501-1386 476.5-1386M486.498 675c36 0 440.5-1620 476.5-1620m-476.5 1593c36 0 440.5-1854 476.5-1854m-476.5 1827c36 0 440.5-2088 476.5-2088m-720 2016c80.823 0 45.005-216.002 126-216.002h117"/>
        <path d="M242.998 522c29.25 0 36-108 58.5-108 13.5 0 15.75 27 40.5 27s35.511-81.002 63-81.002h81"/>
        <path d="M242.998 495c15.75 0 11.25-27 22.5-27s4.5 54 27 54c110.25 0 108.011-135 148.5-135h45"/>
        <path d="M242.998 441c83.157 0 48.823 108 108 108 117.157 0 99-108 135-108"/>
        <path d="M242.998 414h31.5c15.75 0 31.011 54 45 54 40.496 0 49.677-26.999 63-27 13.324 0 14.344 27 27 27 12.657 0 15.75-27 27-27s15.75 54 27 54 9-27 22.5-27"/>
        <path d="M242.998 468c18 0 16.823 81 45 81 170.823 0 142.491-135 184.5-135h13.5"/>
        <path d="M242.998 387h49.823c15.75 0 22.172 27 40.172 27 12.99 0 16.829-27 34.829-27s23.676 54 41.676 54 9-27 27-27 31.5 81 49.5 81"/>
        <path d="M242.998 359.999l56.823.001c18 0 15.177 27 33.177 27s18-27.002 36-27.002c39.491 0 71.995 162.002 99 162.002h18m.5 0c36.001 0 440.5-450 476.5-450m-476.5 423c36.001 0 440.5-684 476.5-684m-476.5 657c36.001 0 440.5-918 476.5-918m-476.5 891c36.001 0 440.5-1152 476.5-1152M486.499 414c36 0 449.501-1386 476.5-1386M486.498 387c36 0 440.5-1620 476.5-1620m-476.5 1593c36 0 440.5-1854 476.5-1854m-476.5 1827c36 0 440.5-2088 476.5-2088m-720 2016c80.823 0 45.005-216.002 126-216.002h117"/>
        <path d="M242.998 234c29.25 0 36-108 58.5-108 13.5 0 15.75 27 40.5 27s35.511-81.002 63-81.002h81"/>
        <path d="M242.998 207c15.75 0 11.25-27 22.5-27s4.5 54 27 54c110.25 0 108.011-135 148.5-135h45"/>
        <path d="M242.998 153c83.157 0 48.823 108 108 108 117.157 0 99-108 135-108"/>
        <path d="M242.998 126h31.5c15.75 0 31.011 54 45 54 40.496 0 49.677-26.999 63-27 13.324-.001 14.344 27 27 27 12.657 0 15.75-27 27-27s15.75 54 27 54 9-27 22.5-27"/>
        <path d="M242.998 44.999h67.5c44.995 0 72.005 216.002 117 216.002h58.5"/>
        <path d="M242.998 180c18 0 16.823 81 45 81 170.823 0 142.491-135 184.5-135h13.5"/>
        <path d="M242.998 99l49.823.001c15.75 0 22.172 27 40.172 27 12.99 0 16.829-27 34.829-27s23.676 54 41.676 54 9-27 27-27 31.5 81 49.5 81"/>
        <path d="M242.998 71.999l56.823.001c18 0 15.177 27 33.177 27s18-27.002 36-27.002c39.491-.001 71.995 162.002 99 162.002h18m.5 27c36.001 0 440.5-216 476.5-216m-476.5 189c36.001 0 440.5-450 476.5-450m-476.5 423c36.001 0 440.5-684 476.5-684m-476.5 657c36.001 0 440.5-918 476.5-918m-476.5 891c36.001 0 440.5-1152 476.5-1152M486.499 126c36 0 449.501-1386 476.5-1386M486.498 99c36 0 440.5-1619.999 476.5-1619.999M486.498 72c36 0 440.5-1854 476.5-1854M486.498 45c36 0 440.5-2088 476.5-2088m-1196.5 5256c36 0 440.5-2088 476.5-2088"/>
        <path d="M-233.502 2952c36 0 440.5-1854 476.5-1854m-476.5 1827c36 0 440.5-2088 476.5-2088"/>
        <path d="M-233.502 2690.999c36 0 440.5-1619.999 476.5-1619.999m-476.5 1593c36 0 440.5-1854 476.5-1854m-476.5 1827c36 0 440.5-2088 476.5-2088"/>
        <path d="M-233.501 2430c36 0 449.501-1386 476.5-1386m-476.501 1358.999c36 0 440.5-1619.999 476.5-1619.999m-476.5 1593c36 0 440.5-1854 476.5-1854m-476.5 1827c36 0 440.5-2088 476.5-2088"/>
        <path d="M-233.502 2169c36.001 0 440.5-1152 476.5-1152m-476.499 1125c36 0 449.501-1386 476.5-1386m-476.501 1358.999c36 0 440.5-1619.999 476.5-1619.999m-476.5 1593c36 0 440.5-1854 476.5-1854m-476.5 1827c36 0 440.5-2088 476.5-2088"/>
        <path d="M-233.502 1908c36.001 0 440.5-918 476.5-918m-476.5 891c36.001 0 440.5-1152 476.5-1152m-476.499 1125c36 0 449.501-1386 476.5-1386m-476.501 1358.999c36 0 440.5-1619.999 476.5-1619.999m-476.5 1593c36 0 440.5-1854 476.5-1854m-476.5 1827c36 0 440.5-2088 476.5-2088"/>
        <path d="M-233.502 1620c36.001 0 440.5-918 476.5-918m-476.5 891c36.001 0 440.5-1152 476.5-1152m-476.499 1125c36 0 449.501-1386 476.5-1386m-476.501 1359c36 0 440.5-1620 476.5-1620m-476.5 1593c36 0 440.5-1854 476.5-1854m-476.5 1827c36 0 440.5-2088 476.5-2088"/>
        <path d="M-233.502 1386c36.001 0 440.5-450 476.5-450m-476.5 423c36.001 0 440.5-684 476.5-684m-476.5 657c36.001 0 440.5-918 476.5-918m-476.5 891c36.001 0 440.5-1152 476.5-1152m-476.499 1125c36 0 449.501-1386 476.5-1386m-476.501 1359c36 0 440.5-1620 476.5-1620m-476.5 1593c36 0 440.5-1854 476.5-1854m-476.5 1827c36 0 440.5-2088 476.5-2088m-476.5 2016c36.001 0 440.5-216 476.5-216"/>
        <path d="M-233.502 1071c36.001 0 440.5-684 476.5-684m-476.5 657c36.001 0 440.5-918 476.5-918m-476.5 891c36.001 0 440.5-1152 476.5-1152M-233.501 990c36 0 449.501-1386 476.5-1386M-233.502 963c36 0 440.5-1620 476.5-1620m-476.5 1593c36 0 440.5-1854 476.5-1854m-476.5 1827c36 0 440.5-2088 476.5-2088"/>
        <path d="M-233.502 837c36.001 0 440.5-216 476.5-216m-476.5 189c36.001 0 440.5-450 476.5-450m-476.5 423c36.001 0 440.5-684 476.5-684m-476.5 657c36.001 0 440.5-918 476.5-918m-476.5 891c36.001 0 440.5-1152 476.5-1152M-233.501 702c36 0 449.501-1386 476.5-1386M-233.502 675c36 0 440.5-1620 476.5-1620m-476.5 1593c36 0 440.5-1854 476.5-1854m-476.5 1827c36 0 440.5-2088 476.5-2088"/>
        <path d="M-233.502 522c36.001 0 440.5-450 476.5-450m-476.5 423c36.001 0 440.5-684 476.5-684m-476.5 657c36.001 0 440.5-918 476.5-918"/>
        <path d="M-233.502 261c36.001 0 440.5-216 476.5-216m-476.5 189c36.001 0 440.5-450 476.5-450m0-1827"/>
    </g>
    <path fill="none" stroke="#C3C" stroke-width="5" d="M1682.999 332.999h67.5c44.995 0 72.005 216.001 117 216.001h58.5m.5 0c36 0 440.5-216 476.5-216"/>
    <path fill="none" stroke="#BC1E47" stroke-width="5" d="M1682.999 71.999l56.822.001c18 0 15.178 27 33.178 27s18-27.002 36-27.002c39.49-.001 71.994 162.002 99 162.002h18m.5 0c36 0 440.5-450 476.5-450"/>
    <path fill="none" stroke="#662DC8" stroke-width="5" d="M962.999 549c80.823 0 45.005-216.002 126-216.002h117"/>
    <path fill="none" stroke="#00F" stroke-width="5" d="M962.999 522c29.25 0 36-108 58.5-108 13.5 0 15.75 27 40.5 27s35.51-81.002 63-81.002h81"/>
    <path fill="none" stroke="#29ABE2" stroke-width="5" d="M962.999 495c15.75 0 11.25-27 22.5-27s4.5 54 27 54c110.25 0 108.011-135 148.5-135h45"/>
    <path fill="none" stroke="#006837" stroke-width="5" d="M962.999 441c83.156 0 48.823 108 108 108 117.156 0 99-108 135-108"/>
    <path fill="none" stroke="#969600" stroke-width="5" d="M962.999 414h31.5c15.75 0 31.011 54 45 54 40.495 0 49.677-26.999 63-27 13.323 0 14.344 27 27 27s15.75-27 27-27 15.75 54 27 54 9-27 22.5-27"/>
    <path fill="none" stroke="#C3C" stroke-width="5" d="M962.999 332.999h67.5c44.995 0 72.005 216.002 117 216.002h58.5"/>
    <path fill="none" stroke="#22BE64" stroke-width="5" d="M962.999 468c18 0 16.823 81 45 81 170.823 0 142.49-135 184.5-135h13.5"/>
    <path fill="none" stroke="#F7931E" stroke-width="5" d="M962.999 387h49.823c15.75 0 22.172 27 40.172 27 12.99 0 16.829-27 34.829-27s23.677 54 41.677 54 9-27 27-27 31.5 81 49.5 81"/>
    <path fill="none" stroke="#BC1E47" stroke-width="5" d="M962.999 359.999l56.823.001c18 0 15.177 27 33.177 27s18-27.002 36-27.002c39.49 0 71.994 162.002 99 162.002h18"/>
    <path fill="none" stroke="#C3C" stroke-width="5" d="M1206.499 549c36 0 440.5-216 476.5-216"/>
    <path fill="none" stroke="#BC1E47" stroke-width="5" d="M1206.499 522c36 0 440.5-450 476.5-450"/>
    <path fill="none" stroke="#F7931E" stroke-width="5" d="M1206.499 495c36 0 440.5-684 476.5-684"/>
    <path fill="none" stroke="#969600" stroke-width="5" d="M1206.499 468c36 0 440.5-918 476.5-918"/>
    <path fill="none" stroke="#006837" stroke-width="5" d="M1206.499 441c36 0 440.5-1152 476.5-1152"/>
    <path fill="none" stroke="#22BE64" stroke-width="5" d="M1206.5 414c36 0 449.501-1386 476.5-1386"/>
    <path fill="none" stroke="#29ABE2" stroke-width="5" d="M1206.499 387c36 0 440.5-1620 476.5-1620"/>
    <path fill="none" stroke="#00F" stroke-width="5" d="M1206.499 360c36 0 440.5-1854 476.5-1854"/>
    <path fill="none" stroke="#662DC8" stroke-width="5" d="M1206.499 333c36 0 440.5-2088 476.5-2088M486.498 2637c36 0 440.5-2088 476.5-2088"/>
    <path fill="none" stroke="#00F" stroke-width="5" d="M486.498 2376c36 0 440.5-1854 476.5-1854"/>
    <path fill="none" stroke="#29ABE2" stroke-width="5" d="M486.498 2114.999c36 0 440.5-1619.999 476.5-1619.999"/>
    <path fill="none" stroke="#22BE64" stroke-width="5" d="M486.499 1854c36 0 449.501-1386 476.5-1386"/>
    <path fill="none" stroke="#006837" stroke-width="5" d="M486.498 1593c36.001 0 440.5-1152 476.5-1152"/>
    <path fill="none" stroke="#969600" stroke-width="5" d="M486.498 1332c36.001 0 440.5-918 476.5-918"/>
    <path fill="none" stroke="#F7931E" stroke-width="5" d="M242.998 963h49.823c15.75 0 22.172 27 40.172 27 12.99 0 16.829-27 34.829-27s23.676 54 41.676 54 9-27 27-27 31.5 81 49.5 81m.5 0c36.001 0 440.5-684 476.5-684"/>
    <path fill="none" stroke="#BC1E47" stroke-width="5" d="M242.998 647.999l56.823.001c18 0 15.177 27 33.177 27s18-27.002 36-27.002c39.491 0 71.995 162.002 99 162.002h18m.5 0c36.001 0 440.5-450 476.5-450"/>
    <path fill="none" stroke="#C3C" stroke-width="5" d="M242.998 332.999h67.5c44.995 0 72.005 216.002 117 216.002h58.5m.5-.001c36.001 0 440.5-216 476.5-216"/>
    <path fill="none" stroke="#F7931E" stroke-width="5" d="M-233.502 1647c36.001 0 440.5-684 476.5-684"/>
    <path fill="none" stroke="#BC1E47" stroke-width="5" d="M-233.502 1098c36.001 0 440.5-450 476.5-450"/>
    <path fill="none" stroke="#C3C" stroke-width="5" d="M-233.502 549c36.001 0 440.5-216 476.5-216"/>
</svg>
