<?xml version="1.0" encoding="utf-8"?>
<!-- Generator: Adobe Illustrator 15.1.0, SVG Export Plug-In . SVG Version: 6.00 Build 0)  -->
<!DOCTYPE svg PUBLIC "-//W3C//DTD SVG 1.1//EN" "http://www.w3.org/Graphics/SVG/1.1/DTD/svg11.dtd">
<svg version="1.1" id="Layer_1" xmlns="http://www.w3.org/2000/svg" xmlns:xlink="http://www.w3.org/1999/xlink" x="0px" y="0px"
	 width="792px" height="360px" viewBox="0 0 792 360" enable-background="new 0 0 792 360" xml:space="preserve">
<polyline fill="none" stroke="#E9B4C2" stroke-width="8" stroke-miterlimit="10" points="468,180 576,252 648,252 648,180 576,180 
	576,108 648,108 756,180 "/>
<polyline fill="none" stroke="#ABDAC2" stroke-width="8" stroke-miterlimit="10" points="612,324 540,216 540,144 612,144 612,216 
	684,216 684,144 612,36 "/>
<g>
	<line fill="#1B80C4" x1="207" y1="243" x2="149.985" y2="119"/>
	<g>
		<line fill="none" stroke="#FCC210" stroke-width="2" stroke-miterlimit="10" x1="203.723" y1="235.872" x2="149.985" y2="119"/>
		<g>
			<path fill="#FCC210" d="M207,243c-0.298-3.927-0.088-9.064,0.976-12.679l-4.684,4.615l-6.55,0.55
				C200.178,237.032,204.214,240.218,207,243z"/>
		</g>
	</g>
</g>
<g>
	<g>
		<polyline fill="none" stroke="#FCC210" stroke-width="2" stroke-miterlimit="10" points="193.821,252 72,252 72,198 		"/>
		<g>
			<path fill="#FCC210" d="M201.667,252c-3.692-1.37-8.272-3.707-11.111-6.183l2.236,6.183l-2.236,6.182
				C193.395,255.706,197.975,253.368,201.667,252z"/>
		</g>
	</g>
</g>
<g>
	<g>
		<polyline fill="none" stroke="#FCC210" stroke-width="2" stroke-miterlimit="10" points="124.488,108 72,108 72,162 		"/>
		<g>
			<path fill="#FCC210" d="M132.334,108c-3.692-1.37-8.272-3.707-11.111-6.183l2.236,6.183l-2.236,6.181
				C124.062,111.706,128.642,109.369,132.334,108z"/>
		</g>
	</g>
</g>
<g>
	<g>
		<polyline fill="none" stroke="#FCC210" stroke-width="2" stroke-miterlimit="10" points="288,202.846 288,252 229.001,252 		"/>
		<g>
			<path fill="#FCC210" d="M288,195c-1.37,3.691-3.707,8.272-6.183,11.111l6.183-2.236l6.182,2.236
				C291.706,203.272,289.368,198.691,288,195z"/>
		</g>
	</g>
</g>
<g>
	<g>
		<polyline fill="none" stroke="#FCC210" stroke-width="2" stroke-miterlimit="10" points="288,157.154 288,108 157,108 		"/>
		<g>
			<path fill="#FCC210" d="M288,165c1.37-3.692,3.707-8.272,6.183-11.111L288,156.125l-6.182-2.236
				C284.294,156.728,286.632,161.308,288,165z"/>
		</g>
	</g>
</g>
<line fill="none" stroke="#FCC210" stroke-width="2" stroke-miterlimit="10" stroke-dasharray="3" x1="468" y1="180" x2="432" y2="180"/>
<line fill="none" stroke="#FCC210" stroke-width="2" stroke-miterlimit="10" stroke-dasharray="3" x1="792" y1="180" x2="756" y2="180"/>
<polyline fill="none" stroke="#FCC210" stroke-width="2" stroke-miterlimit="10" points="648,252 648,180 648,108 "/>
<polyline fill="none" stroke="#FCC210" stroke-width="2" stroke-miterlimit="10" points="576,252 576,180 576,108 "/>
<polyline fill="none" stroke="#FCC210" stroke-width="2" stroke-miterlimit="10" points="756,180 648,180 576,180 468,180 "/>
<polygon fill="none" stroke="#FCC210" stroke-width="2" stroke-miterlimit="10" points="756,180 648,252 576,252 468,180 576,108 
	648,108 "/>
<circle fill="#BC1F48" stroke="#231F20" stroke-miterlimit="10" cx="648" cy="252" r="6"/>
<circle fill="#BC1F48" stroke="#231F20" stroke-miterlimit="10" cx="576" cy="252" r="6"/>
<circle fill="#BC1F48" stroke="#231F20" stroke-miterlimit="10" cx="576" cy="180" r="6"/>
<circle fill="#BC1F48" stroke="#231F20" stroke-miterlimit="10" cx="576" cy="108" r="6"/>
<circle fill="#BC1F48" stroke="#231F20" stroke-miterlimit="10" cx="648" cy="180" r="6"/>
<circle fill="#BC1F48" stroke="#231F20" stroke-miterlimit="10" cx="648" cy="108" r="6"/>
<circle fill="#BC1F48" stroke="#231F20" stroke-miterlimit="10" cx="756" cy="180" r="9"/>
<circle fill="#BC1F48" stroke="#231F20" stroke-miterlimit="10" cx="468" cy="180" r="9"/>
<line fill="none" stroke="#000000" stroke-width="2" stroke-miterlimit="10" stroke-dasharray="3" x1="612" y1="36" x2="612" y2="0"/>
<line fill="none" stroke="#000000" stroke-width="2" stroke-miterlimit="10" stroke-dasharray="3" x1="612" y1="360" x2="612" y2="324"/>
<polyline fill="none" stroke="#000000" stroke-width="2" stroke-miterlimit="10" points="540,216 612,216 684,216 "/>
<polyline fill="none" stroke="#000000" stroke-width="2" stroke-miterlimit="10" points="540,144 612,144 684,144 "/>
<polyline fill="none" stroke="#000000" stroke-width="2" stroke-miterlimit="10" points="612,324 612,216 612,144 612,36 "/>
<polygon fill="none" stroke="#000000" stroke-width="2" stroke-miterlimit="10" points="612,324 540,216 540,144 612,36 684,144 
	684,216 "/>
<circle fill="#1B80C4" stroke="#000000" stroke-miterlimit="10" cx="180" cy="288" r="9"/>
<circle fill="#1B80C4" stroke="#000000" stroke-miterlimit="10" cx="180" cy="72" r="9"/>
<circle fill="#1B80C4" stroke="#000000" stroke-width="0.665" stroke-miterlimit="10" cx="108" cy="216" r="5.985"/>
<circle fill="#1B80C4" stroke="#000000" stroke-width="0.665" stroke-miterlimit="10" cx="252" cy="144" r="5.985"/>
<g>
	<line fill="#1B80C4" x1="117" y1="207" x2="242.334" y2="149.985"/>
	<g>
		<line fill="none" stroke="#000000" stroke-width="2" stroke-miterlimit="10" x1="117" y1="207" x2="235.083" y2="153.284"/>
		<g>
			<path d="M242.334,149.985c-2.836,2.818-6.087,6.904-7.67,10.386l-0.533-6.655l-4.666-4.773
				C233.13,150.038,238.347,150.272,242.334,149.985z"/>
		</g>
	</g>
</g>
<line fill="#1B80C4" stroke="#000000" stroke-width="2" stroke-miterlimit="10" stroke-dasharray="3" x1="180" y1="306" x2="180" y2="360"/>
<line fill="#1B80C4" stroke="#000000" stroke-width="2" stroke-miterlimit="10" stroke-dasharray="3" x1="180" y1="54" x2="180" y2="0"/>
<g>
	<g>
		<polyline fill="none" stroke="#000000" stroke-width="2" stroke-miterlimit="10" points="108,202.334 108,72 157.155,72 		"/>
		<g>
			<path d="M165,72c-3.692,1.37-8.272,3.707-11.112,6.183L156.125,72l-2.236-6.181C156.728,68.294,161.309,70.631,165,72z"/>
		</g>
	</g>
</g>
<g>
	<g>
		<polyline fill="none" stroke="#ABDAC2" stroke-width="4" stroke-miterlimit="10" points="252,129.667 252,72 207.07,72 		"/>
		<g>
			<path fill="#ABDAC2" d="M195,72c5.679-2.107,12.726-5.703,17.095-9.512L208.654,72l3.441,9.51
				C207.727,77.701,200.68,74.105,195,72z"/>
		</g>
	</g>
</g>
<g>
	<g>
		<polyline fill="none" stroke="#ABDAC2" stroke-width="4" stroke-miterlimit="10" points="165,288 108,288 108,241.07 		"/>
		<g>
			<path fill="#ABDAC2" d="M108,229c2.107,5.68,5.703,12.727,9.512,17.095l-9.512-3.44l-9.51,3.44
				C102.299,241.727,105.895,234.68,108,229z"/>
		</g>
	</g>
</g>
<g>
	<g>
		<polyline fill="none" stroke="#000000" stroke-width="2" stroke-miterlimit="10" points="195,288 252,288 252,163.513 		"/>
		<g>
			<path d="M252,155.667c1.37,3.692,3.707,8.272,6.183,11.111L252,164.542l-6.182,2.236
				C248.294,163.939,250.632,159.359,252,155.667z"/>
		</g>
	</g>
</g>
<circle fill="#BC1F48" stroke="#000000" stroke-miterlimit="10" cx="288" cy="180" r="9"/>
<circle fill="#BC1F48" stroke="#000000" stroke-miterlimit="10" cx="72" cy="180" r="9"/>
<circle fill="#BC1F48" stroke="#000000" stroke-width="0.665" stroke-miterlimit="10" cx="216" cy="252" r="5.985"/>
<circle fill="#BC1F48" stroke="#000000" stroke-width="0.665" stroke-miterlimit="10" cx="144" cy="108" r="5.985"/>
<line fill="none" stroke="#FCC210" stroke-width="2" stroke-miterlimit="10" stroke-dasharray="3" x1="306" y1="180" x2="360" y2="180"/>
<line fill="none" stroke="#FCC210" stroke-width="2" stroke-miterlimit="10" stroke-dasharray="3" x1="54" y1="180" x2="0" y2="180"/>
<circle fill="#1B80C4" stroke="#000000" stroke-miterlimit="10" cx="540" cy="216" r="6"/>
<circle fill="#1B80C4" stroke="#000000" stroke-miterlimit="10" cx="540" cy="144" r="6"/>
<circle fill="#1B80C4" stroke="#000000" stroke-miterlimit="10" cx="612" cy="144" r="6"/>
<circle fill="#1B80C4" stroke="#000000" stroke-miterlimit="10" cx="684" cy="144" r="6"/>
<circle fill="#1B80C4" stroke="#000000" stroke-miterlimit="10" cx="612" cy="216" r="6"/>
<circle fill="#1B80C4" stroke="#000000" stroke-miterlimit="10" cx="684" cy="216" r="6"/>
<circle fill="#1B80C4" stroke="#000000" stroke-miterlimit="10" cx="612" cy="324" r="9"/>
<circle fill="#1B80C4" stroke="#000000" stroke-miterlimit="10" cx="612" cy="36" r="9"/>
</svg>
