<?xml version="1.0" encoding="utf-8"?>
<!-- Generator: Adobe Illustrator 15.1.0, SVG Export Plug-In . SVG Version: 6.00 Build 0)  -->
<!DOCTYPE svg PUBLIC "-//W3C//DTD SVG 1.1//EN" "http://www.w3.org/Graphics/SVG/1.1/DTD/svg11.dtd">
<svg version="1.1" id="Layer_1" xmlns="http://www.w3.org/2000/svg" xmlns:xlink="http://www.w3.org/1999/xlink" x="0px" y="0px"
	 width="521px" height="238px" viewBox="0 0 521 238" enable-background="new 0 0 521 238" xml:space="preserve">
<polygon fill="#FEC200" stroke="#000000" points="77.03,118.703 60.811,90.611 77.03,62.519 109.467,62.519 125.686,90.611 
	109.467,118.703 "/>
<polygon fill="#FEC200" stroke="#000000" points="125.686,146.794 109.467,118.703 125.686,90.611 158.124,90.611 174.342,118.703 
	158.124,146.794 "/>
<polygon fill="#FEC200" stroke="#000000" points="77.03,174.886 60.811,146.794 77.03,118.703 109.467,118.703 125.686,146.794 
	109.467,174.886 "/>
<polygon fill="#FEC200" stroke="#000000" points="222.999,146.794 206.78,118.703 222.999,90.611 255.436,90.611 271.655,118.703 
	255.436,146.794 "/>
<polygon fill="#FEC200" stroke="#000000" points="271.655,174.886 255.436,146.794 271.655,118.703 304.092,118.703 
	320.311,146.794 304.092,174.886 "/>
<polygon fill="#FEC200" stroke="#000000" points="222.999,202.978 206.78,174.886 222.999,146.794 255.436,146.794 271.655,174.886 
	255.436,202.978 "/>
<polygon fill="#FEC200" stroke="#000000" points="271.655,62.519 255.436,34.427 271.655,6.335 304.092,6.335 320.311,34.427 
	304.092,62.519 "/>
<polygon fill="#FEC200" stroke="#000000" points="368.967,231.07 352.748,202.978 368.967,174.886 401.404,174.886 417.623,202.978 
	401.404,231.07 "/>
<polygon fill="#FEC200" stroke="#000000" points="271.655,231.07 255.436,202.978 271.655,174.886 304.092,174.886 320.311,202.978 
	304.092,231.07 "/>
<polygon fill="#FEC200" stroke="#000000" points="77.03,62.519 60.811,34.427 77.03,6.335 109.467,6.335 125.686,34.427 
	109.467,62.519 "/>
<polygon fill="#FEC200" stroke="#000000" points="466.279,231.07 450.061,202.978 466.279,174.886 498.717,174.886 514.936,202.978 
	498.717,231.07 "/>
<polygon fill="#FEC200" stroke="#000000" points="466.279,62.519 450.061,34.427 466.279,6.335 498.717,6.335 514.936,34.427 
	498.717,62.519 "/>
<polygon fill="#FEC200" stroke="#000000" points="320.311,90.611 304.092,62.519 320.311,34.427 352.749,34.427 368.967,62.519 
	352.749,90.611 "/>
<polygon fill="#FEC200" stroke="#000000" points="271.655,118.703 255.436,90.611 271.655,62.519 304.092,62.519 320.311,90.611 
	304.092,118.703 "/>
<polygon fill="#FEC200" stroke="#000000" points="320.311,146.794 304.092,118.703 320.311,90.611 352.749,90.611 368.967,118.703 
	352.749,146.794 "/>
<polygon fill="#FEC200" stroke="#000000" points="368.967,174.886 352.749,146.794 368.967,118.703 401.404,118.703 
	417.623,146.794 401.404,174.886 "/>
<polygon fill="#FEC200" stroke="#000000" points="320.311,202.978 304.092,174.886 320.311,146.794 352.749,146.794 
	368.967,174.886 352.749,202.978 "/>
<polygon fill="#FEC200" stroke="#000000" points="125.686,202.978 109.467,174.886 125.686,146.794 158.124,146.794 
	174.342,174.886 158.124,202.978 "/>
<polygon fill="#FEC200" stroke="#000000" points="174.342,118.703 158.124,90.611 174.342,62.519 206.78,62.519 222.999,90.611 
	206.78,118.703 "/>
<polygon fill="#FEC200" stroke="#000000" points="174.342,62.519 158.124,34.427 174.342,6.335 206.78,6.335 222.999,34.427 
	206.78,62.519 "/>
<polygon fill="#FEC200" stroke="#000000" points="77.03,231.07 60.811,202.978 77.03,174.886 109.467,174.886 125.686,202.978 
	109.467,231.07 "/>
<polygon fill="#FEC200" stroke="#000000" points="28.374,202.978 12.155,174.886 28.374,146.794 60.811,146.794 77.03,174.886 
	60.811,202.978 "/>
<polygon fill="#FEC200" stroke="#000000" points="28.374,146.794 12.155,118.703 28.374,90.611 60.811,90.611 77.03,118.703 
	60.811,146.794 "/>
<polygon fill="#FEC200" stroke="#000000" points="466.279,118.703 450.061,90.611 466.279,62.519 498.717,62.519 514.936,90.611 
	498.717,118.703 "/>
<polygon fill="#FEC200" stroke="#000000" points="466.279,174.886 450.061,146.794 466.279,118.703 498.717,118.703 
	514.936,146.794 498.717,174.886 "/>
<polygon fill="#FEC200" stroke="#000000" points="417.623,146.794 401.404,118.703 417.623,90.611 450.061,90.611 466.279,118.703 
	450.061,146.794 "/>
<polygon fill="#FEC200" stroke="#000000" points="417.623,90.611 401.404,62.519 417.623,34.427 450.061,34.427 466.279,62.519 
	450.061,90.611 "/>
<polygon fill="#FEC200" stroke="#000000" points="417.623,202.978 401.404,174.886 417.623,146.794 450.061,146.794 
	466.279,174.886 450.061,202.978 "/>
<polyline fill="none" stroke="#009246" stroke-width="3" points="93.249,34.427 93.249,90.611 141.905,116.5 93.249,146.794 
	93.249,208.5 "/>
<polyline fill="none" stroke="#009246" stroke-width="3" points="44.592,174.886 93.249,146.794 42,118.703 "/>
<polyline fill="none" stroke="#009246" stroke-width="3" points="141.905,174.886 141.905,116.5 190.561,90.611 190.561,34.427 "/>
<polyline fill="none" stroke="#009246" stroke-width="3" points="239.217,172.5 291,202.978 287.874,146.794 239.217,116.5 
	190.561,90.611 "/>
<polyline fill="none" stroke="#009246" stroke-width="3" points="291,32 289.5,90.611 336.529,61.306 336.529,116.5 
	287.874,146.794 "/>
<polyline fill="none" stroke="#009246" stroke-width="3" points="336.529,174.886 385.186,144 336.529,116.5 "/>
<polyline fill="none" stroke="#009246" stroke-width="3" points="385.186,208.5 433.842,172.5 482.498,145.693 482.498,202.978 "/>
<line fill="none" stroke="#009246" stroke-width="3" x1="385.186" y1="144" x2="433.842" y2="116.5"/>
<polyline fill="none" stroke="#009246" stroke-width="3" points="433.842,114.5 433.842,62.519 482.498,34.427 482.498,89.397 
	482.498,144 "/>
<circle fill="#0081CD" stroke="#000000" cx="482.498" cy="34.427" r="22"/>
<g>
	<path d="M98.492,26.197H98.42l-4.067,2.196l-0.612-2.412l5.111-2.735h2.7v23.397h-3.06V26.197z"/>
</g>
<g>
	<path d="M34.853,130.621v-1.944l2.484-2.412c5.975-5.688,8.711-8.711,8.711-12.238c0-2.376-1.116-4.572-4.607-4.572
		c-2.124,0-3.888,1.08-4.967,1.98l-1.008-2.232c1.583-1.332,3.923-2.375,6.587-2.375c5.04,0,7.163,3.456,7.163,6.803
		c0,4.319-3.131,7.811-8.063,12.562l-1.836,1.728v0.072h10.475v2.627H34.853z"/>
</g>
<g>
	<path d="M229.656,179.286c0.9,0.54,2.952,1.44,5.184,1.44c4.031,0,5.327-2.556,5.292-4.536c-0.036-3.275-2.988-4.679-6.047-4.679
		h-1.764v-2.376h1.764c2.304,0,5.219-1.188,5.219-3.959c0-1.872-1.188-3.527-4.104-3.527c-1.872,0-3.671,0.828-4.679,1.548
		l-0.864-2.304c1.26-0.9,3.636-1.8,6.155-1.8c4.607,0,6.695,2.736,6.695,5.579c0,2.448-1.476,4.5-4.319,5.543v0.072
		c2.879,0.54,5.183,2.7,5.219,5.976c0,3.743-2.952,7.019-8.531,7.019c-2.628,0-4.932-0.828-6.083-1.584L229.656,179.286z"/>
</g>
<g>
	<path d="M290.878,215.934v-6.407h-10.871v-2.052l10.438-14.938h3.42v14.542h3.275v2.448h-3.275v6.407H290.878z M290.878,207.079
		v-7.811c0-1.224,0.036-2.448,0.108-3.671h-0.108c-0.72,1.368-1.296,2.375-1.944,3.456l-5.723,7.955v0.072H290.878z"/>
</g>
<g>
	<path d="M197.646,20.267h-8.927l-0.9,6.011c0.54-0.072,1.044-0.108,1.908-0.108c1.836,0,3.6,0.36,5.04,1.26
		c1.835,1.008,3.348,3.06,3.348,5.975c0,4.572-3.636,7.991-8.711,7.991c-2.556,0-4.68-0.72-5.832-1.44l0.792-2.412
		c0.972,0.576,2.88,1.296,5.04,1.296c2.952,0,5.543-1.944,5.507-5.075c0-3.024-2.052-5.147-6.695-5.147
		c-1.368,0-2.412,0.108-3.275,0.216l1.512-11.23h11.194V20.267z"/>
</g>
<g>
	<path d="M49.974,164.768c-0.648-0.036-1.476,0.036-2.375,0.18c-5.003,0.792-7.595,4.392-8.135,8.279h0.072
		c1.116-1.512,3.095-2.735,5.687-2.735c4.14,0,7.055,3.023,7.055,7.559c0,4.319-2.916,8.279-7.811,8.279
		c-4.967,0-8.243-3.888-8.243-9.971c0-4.607,1.62-8.243,3.96-10.547c1.943-1.908,4.535-3.096,7.487-3.456
		c0.936-0.144,1.728-0.18,2.304-0.18V164.768z M49.074,178.267c0-3.348-1.908-5.363-4.823-5.363c-1.908,0-3.708,1.152-4.572,2.879
		c-0.18,0.36-0.324,0.792-0.324,1.368c0.036,3.852,1.836,6.731,5.183,6.731C47.238,183.882,49.074,181.614,49.074,178.267z"/>
</g>
<g>
	<path d="M112.31,196.037v2.087l-10.187,21.31h-3.275l10.151-20.697v-0.072H97.552v-2.627H112.31z"/>
</g>
<g>
	<path d="M150.439,181.189c-2.628-1.224-3.744-3.239-3.744-5.255c0-3.708,3.131-6.227,7.271-6.227c4.536,0,6.839,2.808,6.839,5.759
		c0,1.979-1.008,4.14-3.888,5.471v0.108c2.916,1.152,4.715,3.24,4.715,6.047c0,4.104-3.492,6.803-7.955,6.803
		c-4.895,0-7.847-2.88-7.847-6.299c0-2.952,1.764-5.075,4.643-6.299L150.439,181.189z M158.43,187.417
		c0-2.808-1.979-4.212-5.147-5.112c-2.735,0.792-4.211,2.628-4.211,4.86c-0.108,2.339,1.692,4.427,4.68,4.427
		C156.595,191.592,158.43,189.829,158.43,187.417z M149.719,175.718c-0.036,2.34,1.764,3.6,4.463,4.319
		c2.016-0.684,3.563-2.124,3.563-4.248c0-1.872-1.116-3.815-3.959-3.815C151.159,171.975,149.719,173.703,149.719,175.718z"/>
</g>
<g>
	<path d="M86.671,157.522c0.684,0.072,1.476,0,2.556-0.108c1.836-0.252,3.563-0.972,4.896-2.268
		c1.548-1.404,2.664-3.456,3.096-6.191H97.11c-1.295,1.584-3.167,2.484-5.543,2.484c-4.176,0-6.875-3.167-6.875-7.163
		c0-4.427,3.204-8.315,7.991-8.315s7.739,3.852,7.739,9.899c0,5.111-1.728,8.71-4.032,10.942c-1.8,1.764-4.283,2.844-6.803,3.132
		c-1.152,0.18-2.16,0.216-2.916,0.18V157.522z M87.823,144.096c0,2.916,1.764,4.968,4.5,4.968c2.124,0,3.779-1.044,4.607-2.448
		c0.18-0.324,0.288-0.648,0.288-1.188c0-3.996-1.476-7.055-4.824-7.055C89.731,138.373,87.823,140.748,87.823,144.096z"/>
</g>
<g>
	<path d="M84.163,83.02h-0.072l-4.067,2.196l-0.612-2.412l5.111-2.735h2.7v23.397h-3.06V83.02z"/>
	<path d="M111.341,91.514c0,7.955-2.988,12.347-8.135,12.347c-4.571,0-7.703-4.284-7.775-12.022c0-7.883,3.419-12.167,8.171-12.167
		C108.498,79.672,111.341,84.063,111.341,91.514z M98.635,91.875c0,6.083,1.872,9.539,4.751,9.539c3.204,0,4.751-3.779,4.751-9.755
		c0-5.759-1.44-9.539-4.751-9.539C100.65,82.12,98.635,85.503,98.635,91.875z"/>
</g>
<g>
	<path d="M133.229,107.902h-0.072l-4.067,2.196l-0.612-2.412l5.111-2.735h2.7v23.397h-3.06V107.902z"/>
	<path d="M151.696,107.902h-0.072l-4.067,2.196l-0.612-2.412l5.111-2.735h2.7v23.397h-3.06V107.902z"/>
</g>
<g>
	<path d="M180.495,84.166h-0.072l-4.067,2.196l-0.612-2.412l5.111-2.735h2.7v23.397h-3.06V84.166z"/>
	<path d="M192.087,104.611v-1.944l2.484-2.412c5.975-5.688,8.711-8.711,8.711-12.238c0-2.376-1.116-4.572-4.607-4.572
		c-2.124,0-3.888,1.08-4.967,1.98l-1.008-2.232c1.583-1.332,3.923-2.375,6.587-2.375c5.04,0,7.163,3.456,7.163,6.803
		c0,4.319-3.131,7.811-8.063,12.562l-1.836,1.728v0.072h10.475v2.627H192.087z"/>
</g>
<g>
	<path d="M227.258,111.121h-0.072l-4.067,2.196l-0.612-2.412l5.111-2.735h2.7v23.397h-3.06V111.121z"/>
	<path d="M239.606,127.966c0.9,0.54,2.952,1.44,5.184,1.44c4.031,0,5.327-2.556,5.292-4.536c-0.036-3.275-2.988-4.679-6.047-4.679
		h-1.764v-2.376h1.764c2.304,0,5.219-1.188,5.219-3.959c0-1.872-1.188-3.527-4.104-3.527c-1.872,0-3.671,0.828-4.679,1.548
		l-0.864-2.304c1.26-0.9,3.636-1.8,6.155-1.8c4.607,0,6.695,2.736,6.695,5.579c0,2.448-1.476,4.5-4.319,5.543v0.072
		c2.879,0.54,5.183,2.7,5.219,5.976c0,3.744-2.952,7.019-8.531,7.019c-2.628,0-4.932-0.828-6.083-1.584L239.606,127.966z"/>
</g>
<g>
	<path d="M375.995,194.422h-0.072l-4.067,2.196l-0.612-2.412l5.111-2.735h2.7v23.397h-3.06V194.422z"/>
	<path d="M397.378,214.867v-6.407h-10.87v-2.052l10.438-14.938h3.42v14.542h3.275v2.448h-3.275v6.407H397.378z M397.378,206.012
		v-7.811c0-1.224,0.036-2.448,0.108-3.671h-0.108c-0.72,1.368-1.296,2.375-1.943,3.456l-5.724,7.955v0.072H397.378z"/>
</g>
<g>
	<path d="M277.995,23.555h-0.072l-4.067,2.196l-0.612-2.412l5.111-2.735h2.7V44h-3.06V23.555z"/>
	<path d="M303.553,23.267h-8.927l-0.9,6.011c0.54-0.072,1.044-0.108,1.908-0.108c1.836,0,3.6,0.36,5.04,1.26
		c1.835,1.008,3.348,3.06,3.348,5.975c0,4.572-3.636,7.991-8.711,7.991c-2.556,0-4.68-0.72-5.832-1.44l0.792-2.412
		c0.972,0.576,2.879,1.296,5.04,1.296c2.952,0,5.543-1.944,5.507-5.075c0-3.024-2.052-5.147-6.695-5.147
		c-1.368,0-2.412,0.108-3.276,0.216l1.512-11.23h11.194V23.267z"/>
</g>
<g>
	<path d="M476.995,195.488h-0.072l-4.067,2.196l-0.612-2.412l5.111-2.735h2.7v23.397h-3.06V195.488z"/>
	<path d="M501.941,194.768c-0.647-0.036-1.476,0.036-2.375,0.18c-5.004,0.792-7.596,4.392-8.135,8.279h0.071
		c1.116-1.512,3.096-2.735,5.688-2.735c4.14,0,7.056,3.023,7.056,7.559c0,4.319-2.916,8.279-7.812,8.279
		c-4.968,0-8.243-3.888-8.243-9.971c0-4.607,1.62-8.243,3.96-10.547c1.943-1.908,4.535-3.096,7.487-3.456
		c0.936-0.144,1.728-0.18,2.303-0.18V194.768z M501.042,208.267c0-3.348-1.908-5.363-4.823-5.363c-1.908,0-3.708,1.152-4.571,2.879
		c-0.181,0.36-0.324,0.792-0.324,1.368c0.036,3.852,1.836,6.731,5.184,6.731C499.206,213.882,501.042,211.614,501.042,208.267z"/>
</g>
<g>
	<path d="M280.196,139.922h-0.072l-4.067,2.196l-0.612-2.412l5.111-2.735h2.7v23.397h-3.06V139.922z"/>
	<path d="M296.108,148.057c-2.628-1.224-3.744-3.239-3.744-5.255c0-3.708,3.131-6.227,7.271-6.227c4.536,0,6.839,2.808,6.839,5.759
		c0,1.979-1.008,4.14-3.888,5.471v0.108c2.916,1.152,4.715,3.24,4.715,6.047c0,4.104-3.492,6.803-7.955,6.803
		c-4.895,0-7.847-2.88-7.847-6.299c0-2.952,1.764-5.075,4.643-6.299L296.108,148.057z M304.099,154.284
		c0-2.808-1.979-4.212-5.147-5.112c-2.735,0.792-4.211,2.628-4.211,4.86c-0.108,2.339,1.692,4.427,4.68,4.427
		C302.263,158.459,304.099,156.696,304.099,154.284z M295.388,142.585c-0.036,2.34,1.764,3.6,4.463,4.319
		c2.016-0.684,3.564-2.124,3.564-4.248c0-1.872-1.116-3.815-3.96-3.815C296.828,138.842,295.388,140.57,295.388,142.585z"/>
</g>
<g>
	<path d="M327.495,53.555h-0.072l-4.067,2.196l-0.612-2.412l5.111-2.735h2.7V74h-3.06V53.555z"/>
	<path d="M340.923,71.768c0.684,0.072,1.476,0,2.556-0.108c1.836-0.252,3.563-0.972,4.896-2.268
		c1.548-1.404,2.664-3.456,3.096-6.191h-0.108c-1.295,1.584-3.167,2.484-5.543,2.484c-4.176,0-6.875-3.167-6.875-7.163
		c0-4.427,3.204-8.315,7.991-8.315s7.739,3.852,7.739,9.899c0,5.111-1.728,8.71-4.032,10.942c-1.8,1.764-4.283,2.844-6.803,3.132
		c-1.152,0.18-2.16,0.216-2.916,0.18V71.768z M342.075,58.342c0,2.916,1.764,4.968,4.5,4.968c2.124,0,3.779-1.044,4.607-2.448
		c0.18-0.324,0.288-0.648,0.288-1.188c0-3.996-1.476-7.055-4.824-7.055C343.982,52.619,342.075,54.994,342.075,58.342z"/>
</g>
<g>
	<path d="M275.62,103.666v-1.944l2.484-2.412c5.975-5.688,8.711-8.711,8.711-12.238c0-2.376-1.116-4.572-4.607-4.572
		c-2.124,0-3.888,1.08-4.967,1.98l-1.008-2.232c1.583-1.332,3.923-2.375,6.587-2.375c5.04,0,7.163,3.456,7.163,6.803
		c0,4.319-3.131,7.811-8.063,12.562l-1.836,1.728v0.072h10.475v2.627H275.62z"/>
	<path d="M309.673,91.715c0,7.955-2.988,12.347-8.135,12.347c-4.571,0-7.703-4.284-7.775-12.022c0-7.883,3.419-12.167,8.171-12.167
		C306.83,79.873,309.673,84.265,309.673,91.715z M296.967,92.076c0,6.083,1.872,9.539,4.751,9.539c3.204,0,4.751-3.779,4.751-9.755
		c0-5.759-1.44-9.539-4.751-9.539C298.982,82.321,296.967,85.704,296.967,92.076z"/>
</g>
<g>
	<path d="M323.891,130.33v-1.944l2.484-2.412c5.975-5.688,8.711-8.711,8.711-12.238c0-2.376-1.116-4.572-4.607-4.572
		c-2.124,0-3.888,1.08-4.967,1.98l-1.008-2.232c1.583-1.332,3.923-2.375,6.587-2.375c5.04,0,7.163,3.456,7.163,6.803
		c0,4.319-3.131,7.811-8.063,12.562l-1.836,1.728v0.072h10.475v2.627H323.891z"/>
	<path d="M349.234,109.885h-0.072l-4.067,2.196l-0.612-2.412l5.111-2.735h2.7v23.397h-3.06V109.885z"/>
</g>
<g>
	<path d="M324.12,186.234v-1.944l2.484-2.412c5.975-5.688,8.711-8.711,8.711-12.238c0-2.376-1.116-4.572-4.607-4.572
		c-2.124,0-3.888,1.08-4.967,1.98l-1.008-2.232c1.583-1.332,3.923-2.375,6.587-2.375c5.04,0,7.163,3.456,7.163,6.803
		c0,4.319-3.131,7.811-8.063,12.562l-1.836,1.728v0.072h10.475v2.627H324.12z"/>
	<path d="M342.587,186.234v-1.944l2.484-2.412c5.975-5.688,8.711-8.711,8.711-12.238c0-2.376-1.116-4.572-4.607-4.572
		c-2.124,0-3.888,1.08-4.967,1.98l-1.008-2.232c1.583-1.332,3.923-2.375,6.587-2.375c5.039,0,7.163,3.456,7.163,6.803
		c0,4.319-3.131,7.811-8.063,12.562l-1.836,1.728v0.072h10.475v2.627H342.587z"/>
</g>
<g>
	<path d="M373.587,157.754v-1.944l2.483-2.412c5.976-5.688,8.711-8.711,8.711-12.238c0-2.376-1.116-4.572-4.607-4.572
		c-2.124,0-3.888,1.08-4.968,1.98l-1.008-2.232c1.584-1.332,3.924-2.375,6.588-2.375c5.039,0,7.163,3.456,7.163,6.803
		c0,4.319-3.132,7.811-8.063,12.562l-1.836,1.728v0.072h10.475v2.627H373.587z"/>
	<path d="M392.811,154.154c0.899,0.54,2.951,1.44,5.183,1.44c4.032,0,5.328-2.556,5.292-4.536c-0.036-3.275-2.988-4.679-6.048-4.679
		h-1.764v-2.376h1.764c2.304,0,5.22-1.188,5.22-3.959c0-1.872-1.188-3.527-4.104-3.527c-1.872,0-3.672,0.828-4.68,1.548
		l-0.863-2.304c1.26-0.9,3.636-1.8,6.155-1.8c4.607,0,6.695,2.736,6.695,5.579c0,2.448-1.477,4.5-4.32,5.543v0.072
		c2.88,0.54,5.184,2.7,5.22,5.976c0,3.743-2.951,7.019-8.531,7.019c-2.627,0-4.931-0.828-6.083-1.584L392.811,154.154z"/>
</g>
<g>
	<path d="M417.992,185.795v-1.944l2.483-2.412c5.976-5.688,8.711-8.711,8.711-12.238c0-2.376-1.116-4.572-4.607-4.572
		c-2.124,0-3.888,1.08-4.968,1.98l-1.008-2.232c1.584-1.332,3.924-2.375,6.588-2.375c5.039,0,7.163,3.456,7.163,6.803
		c0,4.319-3.132,7.811-8.063,12.562l-1.836,1.728v0.072h10.475v2.627H417.992z"/>
	<path d="M446.25,185.795v-6.407h-10.87v-2.052l10.438-14.938h3.42v14.542h3.275v2.448h-3.275v6.407H446.25z M446.25,176.94v-7.811
		c0-1.224,0.036-2.448,0.108-3.671h-0.108c-0.72,1.368-1.296,2.375-1.943,3.456l-5.724,7.955v0.072H446.25z"/>
</g>
<g>
	<path d="M468.701,154.917v-1.944l2.483-2.412c5.976-5.688,8.711-8.711,8.711-12.238c0-2.376-1.116-4.572-4.607-4.572
		c-2.124,0-3.888,1.08-4.968,1.98l-1.008-2.232c1.584-1.332,3.924-2.375,6.588-2.375c5.039,0,7.163,3.456,7.163,6.803
		c0,4.319-3.132,7.811-8.063,12.562l-1.836,1.728v0.072h10.475v2.627H468.701z"/>
	<path d="M501.135,134.183h-8.927l-0.899,6.011c0.539-0.072,1.043-0.108,1.907-0.108c1.836,0,3.6,0.36,5.039,1.26
		c1.836,1.008,3.348,3.06,3.348,5.975c0,4.572-3.636,7.991-8.711,7.991c-2.556,0-4.679-0.72-5.831-1.44l0.792-2.412
		c0.972,0.576,2.88,1.296,5.039,1.296c2.952,0,5.544-1.944,5.508-5.075c0-3.024-2.052-5.147-6.695-5.147
		c-1.368,0-2.412,0.108-3.275,0.216l1.512-11.23h11.194V134.183z"/>
</g>
<g>
	<path d="M416.63,128.052v-1.944l2.483-2.412c5.976-5.688,8.711-8.711,8.711-12.238c0-2.376-1.116-4.572-4.607-4.572
		c-2.124,0-3.888,1.08-4.968,1.98l-1.008-2.232c1.584-1.332,3.924-2.375,6.588-2.375c5.039,0,7.163,3.456,7.163,6.803
		c0,4.319-3.132,7.811-8.063,12.562l-1.836,1.728v0.072h10.475v2.627H416.63z"/>
	<path d="M448.451,106.887c-0.647-0.036-1.476,0.036-2.375,0.18c-5.004,0.792-7.596,4.392-8.135,8.279h0.071
		c1.116-1.512,3.096-2.735,5.688-2.735c4.14,0,7.056,3.023,7.056,7.559c0,4.319-2.916,8.279-7.812,8.279
		c-4.968,0-8.243-3.888-8.243-9.971c0-4.607,1.62-8.243,3.96-10.547c1.943-1.908,4.535-3.096,7.487-3.456
		c0.936-0.144,1.728-0.18,2.303-0.18V106.887z M447.552,120.385c0-3.348-1.908-5.363-4.823-5.363c-1.908,0-3.708,1.152-4.571,2.879
		c-0.181,0.36-0.324,0.792-0.324,1.368c0.036,3.852,1.836,6.731,5.184,6.731C445.716,126,447.552,123.733,447.552,120.385z"/>
</g>
<g>
	<path d="M419.62,75.534V73.59l2.483-2.412c5.976-5.688,8.711-8.711,8.711-12.238c0-2.376-1.116-4.572-4.607-4.572
		c-2.124,0-3.888,1.08-4.968,1.98l-1.008-2.232c1.584-1.332,3.924-2.375,6.588-2.375c5.039,0,7.163,3.456,7.163,6.803
		c0,4.319-3.132,7.811-8.063,12.562l-1.836,1.728v0.072h10.475v2.627H419.62z"/>
	<path d="M453.277,52.137v2.087l-10.187,21.31h-3.275l10.15-20.697v-0.072H438.52v-2.627H453.277z"/>
</g>
<g>
	<path d="M467.62,101.42v-1.944l2.483-2.412c5.976-5.688,8.711-8.711,8.711-12.238c0-2.376-1.116-4.572-4.607-4.572
		c-2.124,0-3.888,1.08-4.968,1.98l-1.008-2.232c1.584-1.332,3.924-2.375,6.588-2.375c5.039,0,7.163,3.456,7.163,6.803
		c0,4.319-3.132,7.811-8.063,12.562l-1.836,1.728v0.072h10.475v2.627H467.62z"/>
	<path d="M490.407,89.109c-2.628-1.224-3.744-3.239-3.744-5.255c0-3.708,3.132-6.227,7.271-6.227c4.535,0,6.839,2.808,6.839,5.759
		c0,1.979-1.008,4.14-3.888,5.471v0.108c2.916,1.152,4.716,3.24,4.716,6.047c0,4.104-3.491,6.803-7.955,6.803
		c-4.896,0-7.847-2.88-7.847-6.299c0-2.952,1.764-5.075,4.644-6.299L490.407,89.109z M498.398,95.337
		c0-2.808-1.98-4.212-5.147-5.112c-2.736,0.792-4.212,2.628-4.212,4.86c-0.107,2.339,1.692,4.427,4.68,4.427
		C496.562,99.512,498.398,97.749,498.398,95.337z M489.688,83.638c-0.036,2.34,1.764,3.6,4.463,4.319
		c2.016-0.684,3.563-2.124,3.563-4.248c0-1.872-1.115-3.815-3.959-3.815C491.127,79.895,489.688,81.623,489.688,83.638z"/>
</g>
</svg>
