<?xml version="1.0" encoding="utf-8"?>
<!-- Generator: Adobe Illustrator 15.1.0, SVG Export Plug-In . SVG Version: 6.00 Build 0)  -->
<!DOCTYPE svg PUBLIC "-//W3C//DTD SVG 1.1//EN" "http://www.w3.org/Graphics/SVG/1.1/DTD/svg11.dtd">
<svg version="1.1" id="Layer_1" xmlns="http://www.w3.org/2000/svg" xmlns:xlink="http://www.w3.org/1999/xlink" x="0px" y="0px"
	 width="521px" height="238px" viewBox="0 0 521 238" enable-background="new 0 0 521 238" xml:space="preserve">
<polygon fill="#FEC200" stroke="#000000" points="77.03,118.703 60.811,90.611 77.03,62.519 109.467,62.519 125.686,90.611 
	109.467,118.703 "/>
<polygon fill="#FEC200" stroke="#000000" points="125.686,146.794 109.467,118.703 125.686,90.611 158.124,90.611 174.342,118.703 
	158.124,146.794 "/>
<polygon fill="#FEC200" stroke="#000000" points="77.03,174.886 60.811,146.794 77.03,118.703 109.467,118.703 125.686,146.794 
	109.467,174.886 "/>
<polygon fill="#FEC200" stroke="#000000" points="222.999,146.794 206.78,118.703 222.999,90.611 255.436,90.611 271.655,118.703 
	255.436,146.794 "/>
<polygon fill="#FEC200" stroke="#000000" points="271.655,174.886 255.436,146.794 271.655,118.703 304.092,118.703 
	320.311,146.794 304.092,174.886 "/>
<polygon fill="#FEC200" stroke="#000000" points="222.999,202.978 206.78,174.886 222.999,146.794 255.436,146.794 271.655,174.886 
	255.436,202.978 "/>
<polygon fill="#FEC200" stroke="#000000" points="271.655,62.519 255.436,34.427 271.655,6.335 304.092,6.335 320.311,34.427 
	304.092,62.519 "/>
<polygon fill="#FEC200" stroke="#000000" points="368.967,231.07 352.748,202.978 368.967,174.886 401.404,174.886 417.623,202.978 
	401.404,231.07 "/>
<polygon fill="#FEC200" stroke="#000000" points="271.655,231.07 255.436,202.978 271.655,174.886 304.092,174.886 320.311,202.978 
	304.092,231.07 "/>
<polygon fill="#FEC200" stroke="#000000" points="77.03,62.519 60.811,34.427 77.03,6.335 109.467,6.335 125.686,34.427 
	109.467,62.519 "/>
<polygon fill="#FEC200" stroke="#000000" points="466.279,231.07 450.061,202.978 466.279,174.886 498.717,174.886 514.936,202.978 
	498.717,231.07 "/>
<polygon fill="#FEC200" stroke="#000000" points="466.279,62.519 450.061,34.427 466.279,6.335 498.717,6.335 514.936,34.427 
	498.717,62.519 "/>
<polygon fill="#FEC200" stroke="#000000" points="320.311,90.611 304.092,62.519 320.311,34.427 352.749,34.427 368.967,62.519 
	352.749,90.611 "/>
<polygon fill="#FEC200" stroke="#000000" points="271.655,118.703 255.436,90.611 271.655,62.519 304.092,62.519 320.311,90.611 
	304.092,118.703 "/>
<polygon fill="#FEC200" stroke="#000000" points="320.311,146.794 304.092,118.703 320.311,90.611 352.749,90.611 368.967,118.703 
	352.749,146.794 "/>
<polygon fill="#FEC200" stroke="#000000" points="368.967,174.886 352.749,146.794 368.967,118.703 401.404,118.703 
	417.623,146.794 401.404,174.886 "/>
<polygon fill="#FEC200" stroke="#000000" points="320.311,202.978 304.092,174.886 320.311,146.794 352.749,146.794 
	368.967,174.886 352.749,202.978 "/>
<polygon fill="#FEC200" stroke="#000000" points="125.686,202.978 109.467,174.886 125.686,146.794 158.124,146.794 
	174.342,174.886 158.124,202.978 "/>
<polygon fill="#FEC200" stroke="#000000" points="174.342,118.703 158.124,90.611 174.342,62.519 206.78,62.519 222.999,90.611 
	206.78,118.703 "/>
<polygon fill="#FEC200" stroke="#000000" points="174.342,62.519 158.124,34.427 174.342,6.335 206.78,6.335 222.999,34.427 
	206.78,62.519 "/>
<polygon fill="#FEC200" stroke="#000000" points="77.03,231.07 60.811,202.978 77.03,174.886 109.467,174.886 125.686,202.978 
	109.467,231.07 "/>
<polygon fill="#FEC200" stroke="#000000" points="28.374,202.978 12.155,174.886 28.374,146.794 60.811,146.794 77.03,174.886 
	60.811,202.978 "/>
<polygon fill="#FEC200" stroke="#000000" points="28.374,146.794 12.155,118.703 28.374,90.611 60.811,90.611 77.03,118.703 
	60.811,146.794 "/>
<polygon fill="#FEC200" stroke="#000000" points="466.279,118.703 450.061,90.611 466.279,62.519 498.717,62.519 514.936,90.611 
	498.717,118.703 "/>
<polygon fill="#FEC200" stroke="#000000" points="466.279,174.886 450.061,146.794 466.279,118.703 498.717,118.703 
	514.936,146.794 498.717,174.886 "/>
<polygon fill="#FEC200" stroke="#000000" points="417.623,146.794 401.404,118.703 417.623,90.611 450.061,90.611 466.279,118.703 
	450.061,146.794 "/>
<polygon fill="#FEC200" stroke="#000000" points="417.623,90.611 401.404,62.519 417.623,34.427 450.061,34.427 466.279,62.519 
	450.061,90.611 "/>
<polygon fill="#FEC200" stroke="#000000" points="417.623,202.978 401.404,174.886 417.623,146.794 450.061,146.794 
	466.279,174.886 450.061,202.978 "/>
<circle fill="#0081CD" stroke="#000000" cx="482.498" cy="34.427" r="22"/>
<circle fill="#BC1E47" stroke="#000000" cx="287.874" cy="146.794" r="22"/>
</svg>
