<?xml version="1.0" encoding="utf-8"?>
<!-- Generator: Adobe Illustrator 15.1.0, SVG Export Plug-In . SVG Version: 6.00 Build 0)  -->
<!DOCTYPE svg PUBLIC "-//W3C//DTD SVG 1.1//EN" "http://www.w3.org/Graphics/SVG/1.1/DTD/svg11.dtd">
<svg version="1.1" id="Layer_1" xmlns="http://www.w3.org/2000/svg" xmlns:xlink="http://www.w3.org/1999/xlink" x="0px" y="0px"
	 width="432px" height="351px" viewBox="0 0 432 351" enable-background="new 0 0 432 351" xml:space="preserve">
<circle opacity="0.5" fill="#FCC210" stroke="#000000" stroke-miterlimit="10" cx="57.667" cy="159.333" r="45"/>
<circle opacity="0.5" fill="#FCC210" stroke="#000000" stroke-miterlimit="10" cx="84.667" cy="195.333" r="45"/>
<circle opacity="0.5" fill="#FCC210" stroke="#000000" stroke-miterlimit="10" cx="84.667" cy="249.333" r="54"/>
<circle opacity="0.5" fill="#FCC210" stroke="#000000" stroke-miterlimit="10" cx="252" cy="225" r="117"/>
<circle opacity="0.5" fill="#FCC210" stroke="#000000" stroke-miterlimit="10" cx="315" cy="117" r="108"/>
<circle opacity="0.5" fill="#FCC210" stroke="#000000" stroke-miterlimit="10" cx="207" cy="117" r="108"/>
<circle opacity="0.5" fill="#FCC210" stroke="#000000" stroke-miterlimit="10" cx="90" cy="63" r="45"/>
<circle opacity="0.5" fill="#FCC210" stroke="#000000" stroke-miterlimit="10" cx="54" cy="90" r="45"/>
<polyline fill="none" stroke="#1B80C4" stroke-width="4" stroke-miterlimit="10" points="207,117 252,225 315,117 207,117 90,63 
	54,90 "/>
<polyline fill="none" stroke="#1B80C4" stroke-width="4" stroke-miterlimit="10" points="54,90 57.667,159.333 84.667,195.333 
	84.667,249.333 252,225 "/>
<line fill="none" stroke="#1B80C4" stroke-width="4" stroke-miterlimit="10" x1="84.667" y1="195.333" x2="207" y2="117"/>
<circle fill="#BC1F48" stroke="#000000" stroke-miterlimit="10" cx="54" cy="90" r="3"/>
<circle fill="#BC1F48" stroke="#000000" stroke-miterlimit="10" cx="90" cy="63" r="3"/>
<circle fill="#BC1F48" stroke="#000000" stroke-miterlimit="10" cx="252" cy="225" r="3"/>
<circle fill="#BC1F48" stroke="#000000" stroke-miterlimit="10" cx="207" cy="117" r="3"/>
<circle fill="#BC1F48" stroke="#000000" stroke-miterlimit="10" cx="315" cy="117" r="3"/>
<circle fill="#BC1F48" stroke="#000000" stroke-miterlimit="10" cx="84.667" cy="195.333" r="3"/>
<line fill="none" stroke="#1B80C4" stroke-width="4" stroke-miterlimit="10" x1="57.667" y1="159.333" x2="84.667" y2="249.333"/>
<circle fill="#BC1F48" stroke="#000000" stroke-miterlimit="10" cx="57.667" cy="159.333" r="3"/>
<circle fill="#BC1F48" stroke="#000000" stroke-miterlimit="10" cx="84.667" cy="249.333" r="3"/>
</svg>
