<?xml version="1.0" encoding="utf-8"?>
<!-- Generator: Adobe Illustrator 15.1.0, SVG Export Plug-In . SVG Version: 6.00 Build 0)  -->
<!DOCTYPE svg PUBLIC "-//W3C//DTD SVG 1.1//EN" "http://www.w3.org/Graphics/SVG/1.1/DTD/svg11.dtd">
<svg version="1.1" id="Layer_1" xmlns="http://www.w3.org/2000/svg" xmlns:xlink="http://www.w3.org/1999/xlink" x="0px" y="0px"
	 width="450px" height="450px" viewBox="0 0 450 450" enable-background="new 0 0 450 450" xml:space="preserve">
<circle fill="none" stroke="#000000" cx="225" cy="225" r="216"/>
<path fill="none" stroke="#0081CD" d="M169.096,433.641C68.271,406.625,11.565,291.312,42.44,176.083
	C73.316,60.854,180.08-10.656,280.905,16.36"/>
<path fill="none" stroke="#0081CD" d="M169.096,433.641C82.674,410.484,37.645,298.3,68.521,183.071
	C99.396,67.843,194.483-6.796,280.905,16.36"/>
<path fill="none" stroke="#0081CD" d="M169.096,433.641c-67.217-18.011-96.678-126.023-65.802-241.251
	C134.169,77.16,213.688-1.65,280.905,16.36"/>
<path fill="none" stroke="#0081CD" d="M169.096,433.641c-43.211-11.578-53.211-114.376-22.335-229.604
	C177.636,88.807,237.694,4.782,280.905,16.36"/>
<line fill="none" stroke="#FEC200" x1="59.534" y1="86.158" x2="390.465" y2="363.842"/>
<path fill="none" stroke="#BC1E47" d="M441,225c0,69.588-96.706,126-216,126C105.707,351,9,294.588,9,225"/>
<path fill="none" stroke="#BC1E47" d="M9,225c0-99.411,96.707-180,216-180c119.294,0,216,80.589,216,180"/>
<path fill="none" stroke="#BC1E47" d="M9,225c0-14.912,96.707-27,216-27c119.294,0,216,12.088,216,27"/>
</svg>
