<?xml version="1.0" encoding="utf-8"?>
<!-- Generator: Adobe Illustrator 15.1.0, SVG Export Plug-In . SVG Version: 6.00 Build 0)  -->
<!DOCTYPE svg PUBLIC "-//W3C//DTD SVG 1.1//EN" "http://www.w3.org/Graphics/SVG/1.1/DTD/svg11.dtd">
<svg version="1.1" id="Layer_1" xmlns="http://www.w3.org/2000/svg" xmlns:xlink="http://www.w3.org/1999/xlink" x="0px" y="0px"
	 width="648px" height="648px" viewBox="0 0 648 648" enable-background="new 0 0 648 648" xml:space="preserve">
<line fill="none" stroke="#000000" stroke-width="3" stroke-miterlimit="10" stroke-dasharray="4.5" x1="324" y1="108" x2="324" y2="0"/>
<g>
	<g>
		<line fill="none" stroke="#000000" stroke-width="3" stroke-miterlimit="10" x1="324" y1="648" x2="324" y2="645.75"/>
		
			<line fill="none" stroke="#000000" stroke-width="3" stroke-miterlimit="10" stroke-dasharray="4.5,4.5" x1="324" y1="641.25" x2="324" y2="544.5"/>
		<line fill="none" stroke="#000000" stroke-width="3" stroke-miterlimit="10" x1="324" y1="542.25" x2="324" y2="540"/>
	</g>
</g>
<g>
	<g>
		<line fill="none" stroke="#FCC210" stroke-width="3" stroke-miterlimit="10" x1="540" y1="432" x2="542.25" y2="432"/>
		
			<line fill="none" stroke="#FCC210" stroke-width="3" stroke-miterlimit="10" stroke-dasharray="4.5,4.5" x1="546.75" y1="432" x2="643.5" y2="432"/>
		<line fill="none" stroke="#FCC210" stroke-width="3" stroke-miterlimit="10" x1="645.75" y1="432" x2="648" y2="432"/>
	</g>
</g>
<g>
	<g>
		<line fill="none" stroke="#FCC210" stroke-width="3" stroke-miterlimit="10" x1="108" y1="432" x2="105.75" y2="432"/>
		
			<line fill="none" stroke="#FCC210" stroke-width="3" stroke-miterlimit="10" stroke-dasharray="4.5,4.5" x1="101.25" y1="432" x2="4.5" y2="432"/>
		<line fill="none" stroke="#FCC210" stroke-width="3" stroke-miterlimit="10" x1="2.25" y1="432" x2="0" y2="432"/>
	</g>
</g>
<line fill="none" stroke="#FCC210" stroke-width="3" stroke-miterlimit="10" x1="270" y1="432" x2="378" y2="432"/>
<ellipse fill="none" stroke="#FCC210" stroke-width="3" stroke-miterlimit="10" cx="189" cy="432" rx="81" ry="54"/>
<ellipse fill="none" stroke="#FCC210" stroke-width="3" stroke-miterlimit="10" cx="459" cy="432" rx="81" ry="54"/>
<path fill="none" stroke="#FCC210" stroke-width="3" stroke-miterlimit="10" d="M108,432c0-89.471,96.707-162,216-162
	c119.294,0,216,72.529,216,162"/>
<path fill="none" stroke="#FCC210" stroke-width="3" stroke-miterlimit="10" d="M108,432c0-149.117,96.707-270,216-270
	c119.294,0,216,120.883,216,270"/>
<circle fill="none" stroke="#000000" stroke-width="3" stroke-miterlimit="10" cx="324" cy="432" r="108"/>
<line fill="none" stroke="#000000" stroke-width="3" stroke-miterlimit="10" x1="324" y1="324" x2="324" y2="540"/>
<line fill="none" stroke="#000000" stroke-width="3" stroke-miterlimit="10" x1="324" y1="216" x2="324" y2="324"/>
<circle fill="none" stroke="#000000" stroke-width="3" stroke-miterlimit="10" cx="324" cy="162" r="54"/>
<circle fill="#1B80C4" stroke="#000000" stroke-width="1.5" stroke-miterlimit="10" cx="324" cy="108" r="13.5"/>
<circle fill="#1B80C4" stroke="#000000" stroke-width="1.5" stroke-miterlimit="10" cx="324" cy="540" r="13.5"/>
<path fill="none" stroke="#000000" stroke-width="3" stroke-miterlimit="10" d="M405,337.5"/>
<circle fill="#BC1F48" stroke="#231F20" stroke-width="1.5" stroke-miterlimit="10" cx="108" cy="432" r="13.5"/>
<circle fill="#BC1F48" stroke="#231F20" stroke-width="1.5" stroke-miterlimit="10" cx="540" cy="432" r="13.5"/>
<circle fill="#BC1F48" stroke="#231F20" stroke-width="1.5" stroke-miterlimit="10" cx="270" cy="432" r="9"/>
<circle fill="#BC1F48" stroke="#231F20" stroke-width="1.5" stroke-miterlimit="10" cx="378" cy="432" r="9"/>
<circle fill="#BC1F48" stroke="#231F20" stroke-width="1.5" stroke-miterlimit="10" cx="324" cy="162" r="9"/>
<circle fill="#1B80C4" stroke="#000000" stroke-width="1.5" stroke-miterlimit="10" cx="324" cy="324" r="9"/>
<circle fill="#1B80C4" stroke="#000000" stroke-width="1.5" stroke-miterlimit="10" cx="216" cy="432" r="9"/>
<circle fill="#1B80C4" stroke="#000000" stroke-width="1.5" stroke-miterlimit="10" cx="432" cy="432" r="9"/>
<circle fill="#1B80C4" stroke="#000000" stroke-width="1.5" stroke-miterlimit="10" cx="324" cy="216" r="9"/>
</svg>
