<?xml version="1.0" encoding="utf-8"?>
<!-- Generator: Adobe Illustrator 15.1.0, SVG Export Plug-In . SVG Version: 6.00 Build 0)  -->
<!DOCTYPE svg PUBLIC "-//W3C//DTD SVG 1.1//EN" "http://www.w3.org/Graphics/SVG/1.1/DTD/svg11.dtd">
<svg version="1.1" id="Layer_1" xmlns="http://www.w3.org/2000/svg" xmlns:xlink="http://www.w3.org/1999/xlink" x="0px" y="0px"
	 width="396px" height="540px" viewBox="0 0 396 540" enable-background="new 0 0 396 540" xml:space="preserve">
<line fill="none" stroke="#000000" stroke-width="4.5" x1="252" y1="364.5" x2="360" y2="175.5"/>
<line fill="none" stroke="#000000" stroke-width="4.5" x1="252" y1="175.5" x2="360" y2="364.5"/>
<line fill="none" stroke="#000000" stroke-width="4.5" x1="144" y1="175.5" x2="36" y2="364.5"/>
<line fill="none" stroke="#000000" stroke-width="4.5" x1="36" y1="175.5" x2="144" y2="364.5"/>
<polygon fill="none" stroke="#000000" stroke-width="4.5" points="198,499.5 144,364.5 252,175.5 198,40.5 144,175.5 252,364.5 "/>
<polygon fill="none" stroke="#000000" stroke-width="4.5" points="198,499.5 360,364.5 360,175.5 198,40.5 36,175.5 36,364.5 "/>
<circle fill="#FFE180" stroke="#808080" stroke-width="1.5" cx="198" cy="40.5" r="27"/>
<rect x="184.5" y="27" fill="#BC1E47" stroke="#000000" stroke-width="1.5" width="27" height="27"/>
<circle fill="#FFE180" stroke="#808080" stroke-width="1.5" cx="198" cy="499.5" r="27"/>
<rect x="184.5" y="486" fill="#FFFFFF" stroke="#000000" stroke-width="1.5" width="27" height="27"/>
<circle fill="#FFE180" stroke="#808080" stroke-width="1.5" cx="144" cy="364.5" r="27"/>
<rect x="130.5" y="351" fill="#FFFFFF" stroke="#000000" stroke-width="1.5" width="27" height="27"/>
<circle fill="#FFE180" stroke="#808080" stroke-width="1.5" cx="36" cy="364.5" r="27"/>
<rect x="22.5" y="351" fill="#FFFFFF" stroke="#000000" stroke-width="1.5" width="27" height="27"/>
<circle fill="#FFE180" stroke="#808080" stroke-width="1.5" cx="252" cy="364.5" r="27"/>
<rect x="238.5" y="351" fill="#FFFFFF" stroke="#000000" stroke-width="1.5" width="27" height="27"/>
<circle fill="#FFE180" stroke="#808080" stroke-width="1.5" cx="360" cy="364.5" r="27"/>
<rect x="346.5" y="351" fill="#FFFFFF" stroke="#000000" stroke-width="1.5" width="27" height="27"/>
<circle fill="#FFE180" stroke="#808080" stroke-width="1.5" cx="144" cy="175.5" r="27"/>
<rect x="130.5" y="162" fill="#FFFFFF" stroke="#000000" stroke-width="1.5" width="27" height="27"/>
<circle fill="#FFE180" stroke="#808080" stroke-width="1.5" cx="360" cy="175.5" r="27"/>
<rect x="346.5" y="162" fill="#FFFFFF" stroke="#000000" stroke-width="1.5" width="27" height="27"/>
<circle fill="#FFE180" stroke="#808080" stroke-width="1.5" cx="252" cy="175.5" r="27"/>
<rect x="238.5" y="162" fill="#FFFFFF" stroke="#000000" stroke-width="1.5" width="27" height="27"/>
<circle fill="#FFE180" stroke="#808080" stroke-width="1.5" cx="36" cy="175.5" r="27"/>
<rect x="22.5" y="162" fill="#FFFFFF" stroke="#000000" stroke-width="1.5" width="27" height="27"/>
<line fill="none" stroke="#BC1E47" stroke-width="6" x1="130.5" y1="189" x2="157.5" y2="189"/>
<line fill="none" stroke="#BC1E47" stroke-width="6" x1="373.5" y1="162" x2="373.5" y2="189"/>
<line fill="none" stroke="#BC1E47" stroke-width="6" x1="265.5" y1="162" x2="238.5" y2="162"/>
<line fill="none" stroke="#BC1E47" stroke-width="6" x1="22.5" y1="189" x2="22.5" y2="162"/>
<circle fill="#BC1E47" cx="130.5" cy="351" r="6"/>
<circle fill="#BC1E47" cx="22.5" cy="378" r="6"/>
<circle fill="#BC1E47" cx="265.5" cy="378" r="6"/>
<circle fill="#BC1E47" cx="373.5" cy="351" r="6"/>
<g>
	<path fill="#FFFFFF" d="M196.454,35.527l-1.71,2.251v0.036l2.719-0.36v1.225l-2.719-0.342v0.054l1.729,2.16l-1.134,0.648
		l-1.099-2.521h-0.036l-1.152,2.539l-1.026-0.648l1.71-2.196v-0.054l-2.665,0.36v-1.225l2.647,0.342V37.76l-1.692-2.215l1.098-0.63
		l1.116,2.521h0.036l1.098-2.539L196.454,35.527z"/>
	<path fill="#FFFFFF" d="M203.923,35.527l-1.71,2.251v0.036l2.719-0.36v1.225l-2.719-0.342v0.054l1.729,2.16l-1.134,0.648
		l-1.099-2.521h-0.036l-1.152,2.539l-1.026-0.648l1.71-2.196v-0.054l-2.665,0.36v-1.225l2.647,0.342V37.76l-1.692-2.215l1.098-0.63
		l1.116,2.521h0.036l1.098-2.539L203.923,35.527z"/>
</g>
<g>
	<path d="M192.933,506.303l1.116-1.566c-1.008-1.098-1.603-2.683-1.603-4.501c0-3.835,2.413-6.338,5.6-6.338
		c1.116,0,2.161,0.324,3.025,0.972l1.062-1.458l0.955,0.648l-1.117,1.548c1.008,1.099,1.567,2.684,1.567,4.466
		c0,4.231-2.611,6.374-5.528,6.374c-1.134,0-2.197-0.342-3.061-0.973l-1.134,1.549L192.933,506.303z M200.297,496.004
		c-0.612-0.522-1.368-0.846-2.287-0.846c-2.629,0-3.961,2.448-3.961,5.005c0,1.351,0.342,2.323,0.882,3.259l0.036-0.018
		L200.297,496.004z M195.724,504.322c0.594,0.559,1.278,0.864,2.269,0.864c2.521,0,3.943-2.341,3.943-5.06
		c0-1.044-0.216-2.124-0.847-3.169h-0.054L195.724,504.322z"/>
</g>
<g>
</g>
<g>
	<path d="M35.372,365.271c0,3.979-1.494,6.176-4.069,6.176c-2.287,0-3.853-2.143-3.889-6.014c0-3.943,1.71-6.086,4.087-6.086
		C33.95,359.348,35.372,361.544,35.372,365.271z M29.016,365.451c0,3.043,0.937,4.771,2.377,4.771c1.603,0,2.376-1.891,2.376-4.879
		c0-2.881-0.72-4.771-2.376-4.771C30.024,360.572,29.016,362.265,29.016,365.451z"/>
	<path d="M44.606,365.271c0,3.979-1.494,6.176-4.069,6.176c-2.287,0-3.854-2.143-3.89-6.014c0-3.943,1.711-6.086,4.087-6.086
		C43.184,359.348,44.606,361.544,44.606,365.271z M38.25,365.451c0,3.043,0.937,4.771,2.377,4.771c1.603,0,2.376-1.891,2.376-4.879
		c0-2.881-0.72-4.771-2.376-4.771C39.258,360.572,38.25,362.265,38.25,365.451z"/>
</g>
<g>
	<path d="M143.372,365.271c0,3.979-1.494,6.176-4.069,6.176c-2.287,0-3.853-2.143-3.889-6.014c0-3.943,1.71-6.086,4.087-6.086
		C141.95,359.348,143.372,361.544,143.372,365.271z M137.016,365.451c0,3.043,0.937,4.771,2.377,4.771
		c1.603,0,2.376-1.891,2.376-4.879c0-2.881-0.72-4.771-2.376-4.771C138.024,360.572,137.016,362.265,137.016,365.451z"/>
	<path d="M148.249,361.021h-0.036l-2.035,1.099l-0.306-1.206l2.557-1.368h1.351v11.703h-1.53V361.021z"/>
</g>
<g>
	<path d="M247.015,361.021h-0.036l-2.035,1.099l-0.306-1.206l2.557-1.368h1.351v11.703h-1.531V361.021z"/>
	<path d="M260.606,365.271c0,3.979-1.494,6.176-4.069,6.176c-2.287,0-3.854-2.143-3.89-6.014c0-3.943,1.711-6.086,4.087-6.086
		C259.184,359.348,260.606,361.544,260.606,365.271z M254.25,365.451c0,3.043,0.937,4.771,2.377,4.771
		c1.603,0,2.376-1.891,2.376-4.879c0-2.881-0.72-4.771-2.376-4.771C255.258,360.572,254.25,362.265,254.25,365.451z"/>
</g>
<g>
	<path d="M355.015,361.021h-0.036l-2.034,1.099l-0.306-1.206l2.557-1.368h1.35v11.703h-1.53V361.021z"/>
	<path d="M364.248,361.021h-0.036l-2.034,1.099l-0.307-1.206l2.558-1.368h1.35v11.703h-1.53V361.021z"/>
</g>
<g>
	<path d="M36.254,176.271c0,3.979-1.494,6.176-4.069,6.176c-2.287,0-3.853-2.143-3.889-6.014c0-3.943,1.71-6.085,4.087-6.085
		C34.832,170.348,36.254,172.544,36.254,176.271z M29.898,176.451c0,3.043,0.937,4.771,2.377,4.771c1.603,0,2.376-1.891,2.376-4.879
		c0-2.881-0.72-4.771-2.376-4.771C30.906,171.572,29.898,173.264,29.898,176.451z"/>
	<path d="M42.805,170.527l-1.71,2.251v0.036l2.719-0.36v1.225l-2.719-0.342v0.054l1.729,2.16l-1.134,0.648l-1.099-2.521h-0.036
		l-1.152,2.539l-1.026-0.648l1.71-2.196v-0.054l-2.665,0.36v-1.225l2.647,0.342v-0.036l-1.692-2.215l1.098-0.63l1.116,2.521h0.036
		l1.098-2.539L42.805,170.527z"/>
</g>
<g>
	<path d="M141.571,170.527l-1.71,2.251v0.036l2.719-0.36v1.225l-2.719-0.342v0.054l1.729,2.16l-1.134,0.648l-1.099-2.521h-0.036
		l-1.152,2.539l-1.026-0.648l1.71-2.196v-0.054l-2.665,0.36v-1.225l2.647,0.342v-0.036l-1.692-2.215l1.098-0.63l1.116,2.521h0.036
		l1.098-2.539L141.571,170.527z"/>
	<path d="M151.724,176.271c0,3.979-1.494,6.176-4.069,6.176c-2.287,0-3.853-2.143-3.889-6.014c0-3.943,1.71-6.085,4.087-6.085
		C150.301,170.348,151.724,172.544,151.724,176.271z M145.368,176.451c0,3.043,0.937,4.771,2.377,4.771
		c1.603,0,2.376-1.891,2.376-4.879c0-2.881-0.72-4.771-2.376-4.771C146.376,171.572,145.368,173.264,145.368,176.451z"/>
</g>
<g>
	<path d="M249.571,170.527l-1.71,2.251v0.036l2.719-0.36v1.225l-2.719-0.342v0.054l1.729,2.16l-1.134,0.648l-1.099-2.521h-0.036
		l-1.152,2.539l-1.026-0.648l1.71-2.196v-0.054l-2.665,0.36v-1.225l2.647,0.342v-0.036l-1.692-2.215l1.098-0.63l1.116,2.521h0.036
		l1.098-2.539L249.571,170.527z"/>
	<path d="M255.366,172.022h-0.036l-2.035,1.098l-0.306-1.206l2.557-1.369h1.351v11.704h-1.531V172.022z"/>
</g>
<g>
	<path d="M355.896,172.022h-0.036l-2.034,1.098l-0.307-1.206l2.558-1.369h1.35v11.704h-1.53V172.022z"/>
	<path d="M366.805,170.527l-1.711,2.251v0.036l2.719-0.36v1.225l-2.719-0.342v0.054l1.729,2.16l-1.134,0.648l-1.099-2.521h-0.036
		l-1.152,2.539l-1.026-0.648l1.711-2.196v-0.054l-2.665,0.36v-1.225l2.646,0.342v-0.036l-1.692-2.215l1.099-0.63l1.116,2.521h0.036
		l1.099-2.539L366.805,170.527z"/>
</g>
</svg>
