<?xml version="1.0" encoding="utf-8"?>
<!-- Generator: Adobe Illustrator 15.1.0, SVG Export Plug-In . SVG Version: 6.00 Build 0)  -->
<!DOCTYPE svg PUBLIC "-//W3C//DTD SVG 1.1//EN" "http://www.w3.org/Graphics/SVG/1.1/DTD/svg11.dtd">
<svg version="1.1" id="Layer_1" xmlns="http://www.w3.org/2000/svg" xmlns:xlink="http://www.w3.org/1999/xlink" x="0px" y="0px"
	 width="558px" height="414px" viewBox="0 0 558 414" enable-background="new 0 0 558 414" xml:space="preserve">
<line fill="none" stroke="#000000" stroke-miterlimit="10" x1="162" y1="252" x2="126" y2="207"/>
<polyline fill="none" stroke="#000000" stroke-miterlimit="10" points="90,288 126,207 108,135 54,90 "/>
<polyline fill="none" stroke="#000000" stroke-miterlimit="10" points="90,396 90,288 54,180 "/>
<polygon fill="none" stroke="#000000" stroke-miterlimit="10" points="90,396 18,324 18,252 54,180 54,90 117,27 180,108 189,180 
	162,252 162,324 "/>
<circle fill="#FCC210" stroke="#000000" stroke-miterlimit="10" cx="90" cy="396" r="9"/>
<circle fill="#FCC210" stroke="#000000" stroke-miterlimit="10" cx="18" cy="324" r="9"/>
<circle fill="#FCC210" stroke="#000000" stroke-miterlimit="10" cx="90" cy="288" r="9"/>
<circle fill="#FCC210" stroke="#000000" stroke-miterlimit="10" cx="18" cy="252" r="9"/>
<circle fill="#FCC210" stroke="#000000" stroke-miterlimit="10" cx="162" cy="324" r="9"/>
<circle fill="#FCC210" stroke="#000000" stroke-miterlimit="10" cx="162" cy="252" r="9"/>
<circle fill="#FCC210" stroke="#000000" stroke-miterlimit="10" cx="54" cy="180" r="9"/>
<circle fill="#FCC210" stroke="#000000" stroke-miterlimit="10" cx="126" cy="207" r="9"/>
<circle fill="#FCC210" stroke="#000000" stroke-miterlimit="10" cx="108" cy="135" r="9"/>
<circle fill="#FCC210" stroke="#000000" stroke-miterlimit="10" cx="189" cy="180" r="9"/>
<circle fill="#FCC210" stroke="#000000" stroke-miterlimit="10" cx="180" cy="108" r="9"/>
<circle fill="#FCC210" stroke="#000000" stroke-miterlimit="10" cx="54" cy="90" r="9"/>
<circle fill="#FCC210" stroke="#000000" stroke-miterlimit="10" cx="117" cy="27" r="9"/>
<polyline fill="none" stroke="#000000" stroke-miterlimit="10" points="432,234 378,180 486,72 "/>
<polyline fill="none" stroke="#000000" stroke-miterlimit="10" points="486,180 378,72 432,18 540,126 324,342 378,396 432,342 
	378,288 "/>
<circle fill="#ABD5EE" stroke="#000000" stroke-miterlimit="10" cx="378" cy="396" r="9"/>
<circle fill="#ABD5EE" stroke="#000000" stroke-miterlimit="10" cx="324" cy="342" r="9"/>
<circle fill="#ABD5EE" stroke="#000000" stroke-miterlimit="10" cx="432" cy="342" r="9"/>
<circle fill="#ABD5EE" stroke="#000000" stroke-miterlimit="10" cx="378" cy="288" r="9"/>
<circle fill="#ABD5EE" stroke="#000000" stroke-miterlimit="10" cx="432" cy="234" r="9"/>
<circle fill="#ABD5EE" stroke="#000000" stroke-miterlimit="10" cx="378" cy="180" r="9"/>
<circle fill="#ABD5EE" stroke="#000000" stroke-miterlimit="10" cx="432" cy="126" r="9"/>
<circle fill="#ABD5EE" stroke="#000000" stroke-miterlimit="10" cx="486" cy="180" r="9"/>
<circle fill="#ABD5EE" stroke="#000000" stroke-miterlimit="10" cx="540" cy="126" r="9"/>
<circle fill="#ABD5EE" stroke="#000000" stroke-miterlimit="10" cx="486" cy="72" r="9"/>
<circle fill="#ABD5EE" stroke="#000000" stroke-miterlimit="10" cx="432" cy="18" r="9"/>
<circle fill="#ABD5EE" stroke="#000000" stroke-miterlimit="10" cx="378" cy="72" r="9"/>
</svg>
