<?xml version="1.0" encoding="utf-8"?>
<!-- Generator: Adobe Illustrator 15.1.0, SVG Export Plug-In . SVG Version: 6.00 Build 0)  -->
<!DOCTYPE svg PUBLIC "-//W3C//DTD SVG 1.1//EN" "http://www.w3.org/Graphics/SVG/1.1/DTD/svg11.dtd">
<svg version="1.1" id="Layer_1" xmlns="http://www.w3.org/2000/svg" xmlns:xlink="http://www.w3.org/1999/xlink" x="0px" y="0px"
	 width="747px" height="639px" viewBox="0 0 747 639" enable-background="new 0 0 747 639" xml:space="preserve">
<line fill="none" stroke="#0081CD" stroke-width="2" x1="434" y1="621" x2="146" y2="44.999"/>
<line fill="none" stroke="#BC1E47" stroke-width="2" x1="434" y1="333" x2="48" y2="45"/>
<path fill="none" stroke="#FEC200" stroke-width="2" d="M204.5,559.5"/>
<path fill="none" stroke="#FEC200" stroke-width="2" d="M232,302.25"/>
<line fill="none" stroke="#FEC200" stroke-width="2" x1="203.334" y1="45" x2="203.334" y2="639"/>
<line fill="none" stroke="#000000" stroke-width="2" x1="2" y1="45" x2="747" y2="45"/>
<circle fill="none" stroke="#000000" stroke-width="2" cx="434" cy="333" r="288"/>
<circle fill="#009246" stroke="#000000" stroke-width="2" cx="203.334" cy="160.53" r="4"/>
<circle fill="#FEC200" stroke="#000000" stroke-width="2" cx="203.334" cy="45" r="4"/>
<circle fill="#0081CD" stroke="#000000" stroke-width="2" cx="146" cy="44.999" r="4"/>
<circle fill="#BC1E47" stroke="#000000" stroke-width="2" cx="48" cy="45" r="4"/>
<circle fill="#BC1E47" stroke="#000000" stroke-width="2" cx="434" cy="333" r="4"/>
<circle fill="#0081CD" stroke="#000000" stroke-width="2" cx="434" cy="621" r="4"/>
<g>
	<path d="M180.114,175.559c0.469,0,0.822-0.088,1.061-0.264s0.412-0.475,0.521-0.896l3.241-11.438
		c0.078-0.283,0.126-0.488,0.146-0.614c0.019-0.126,0.029-0.224,0.029-0.295c0-0.26-0.096-0.453-0.287-0.578
		c-0.192-0.126-0.471-0.189-0.838-0.189c-0.079,0-0.152,0.002-0.223,0.006s-0.145,0.014-0.223,0.029l-0.023-0.387l3.796-0.551
		c0.047-0.008,0.083,0.023,0.107,0.094c-0.036,0.142-0.065,0.248-0.088,0.318l-0.646,2.159c0.512-0.688,0.983-1.212,1.412-1.572
		c0.775-0.658,1.581-0.987,2.417-0.987c0.851,0,1.519,0.26,2.005,0.779c0.485,0.52,0.729,1.314,0.729,2.385
		c0,1.836-0.773,3.586-2.318,5.25c-1.53,1.648-3.118,2.473-4.765,2.473c-0.326,0-0.602-0.033-0.827-0.099s-0.501-0.176-0.827-0.332
		l-0.188,0.72c-0.205,0.799-0.347,1.371-0.425,1.715c-0.203,0.898-0.305,1.406-0.305,1.523c0,0.32,0.102,0.523,0.305,0.609
		s0.605,0.145,1.207,0.176v0.352h-4.994V175.559z M190.916,162.305c-0.229-0.57-0.659-0.855-1.288-0.855
		c-0.541,0-1.129,0.27-1.765,0.809c-0.637,0.539-1.167,1.431-1.59,2.676c-0.341,0.978-0.661,2-0.959,3.068
		c-0.298,1.067-0.448,1.694-0.448,1.88c0,0.298,0.122,0.519,0.365,0.66c0.244,0.142,0.536,0.212,0.876,0.212
		c1.36,0,2.559-0.871,3.595-2.613c0.928-1.555,1.392-3.098,1.392-4.629C191.094,163.004,191.034,162.602,190.916,162.305z"/>
</g>
<g>
	<path d="M200.117,31.84c0.729-0.047,1.193-0.203,1.391-0.469s0.297-0.684,0.297-1.254v-11.25c0-0.594-0.072-0.975-0.217-1.143
		s-0.416-0.252-0.814-0.252c-0.086,0-0.166,0.004-0.24,0.012s-0.182,0.023-0.322,0.047v-0.387l1.113-0.363
		c0.039-0.008,0.824-0.277,2.355-0.809c0.039,0,0.068,0.018,0.088,0.053s0.029,0.076,0.029,0.123v1.582
		c0.516-0.516,0.969-0.898,1.359-1.148c0.703-0.438,1.426-0.656,2.168-0.656c1.078,0,2.006,0.458,2.783,1.375
		s1.166,2.171,1.166,3.764c0,1.561-0.467,2.978-1.4,4.25c-0.934,1.272-2.107,1.908-3.521,1.908c-0.438,0-0.816-0.055-1.137-0.164
		c-0.5-0.164-0.961-0.464-1.383-0.902V30c0,0.789,0.129,1.273,0.387,1.453s0.82,0.301,1.688,0.363v0.41h-5.789V31.84z
		 M204.74,26.022c0.402,0.262,0.877,0.392,1.424,0.392c0.844,0,1.564-0.419,2.162-1.258c0.598-0.838,0.896-2.007,0.896-3.505
		c0-1.436-0.311-2.508-0.932-3.219c-0.621-0.71-1.342-1.065-2.162-1.065c-0.578,0-1.105,0.178-1.582,0.532
		c-0.477,0.355-0.715,0.705-0.715,1.048v5.887C204.035,25.365,204.338,25.761,204.74,26.022z"/>
	<path d="M220.391,17.15c0.828,0.762,1.242,1.842,1.242,3.24h-7.441c0.078,1.809,0.488,3.126,1.23,3.952s1.621,1.239,2.637,1.239
		c0.82,0,1.512-0.214,2.074-0.643s1.082-1.037,1.559-1.824l0.41,0.141c-0.32,0.994-0.92,1.913-1.799,2.758s-1.955,1.268-3.229,1.268
		c-1.469,0-2.604-0.555-3.404-1.664s-1.201-2.387-1.201-3.832c0-1.57,0.465-2.926,1.395-4.066s2.141-1.711,3.633-1.711
		C218.598,16.008,219.562,16.389,220.391,17.15z M214.777,18.047c-0.25,0.422-0.43,0.953-0.539,1.594h4.945
		c-0.086-0.781-0.234-1.363-0.445-1.746c-0.383-0.688-1.023-1.031-1.922-1.031C215.926,16.863,215.246,17.258,214.777,18.047z"/>
	<path d="M222.758,26.613c0.719-0.062,1.195-0.189,1.43-0.381s0.352-0.6,0.352-1.225v-5.285c0-0.773-0.072-1.326-0.217-1.658
		s-0.408-0.498-0.791-0.498c-0.078,0-0.182,0.01-0.311,0.029s-0.264,0.045-0.404,0.076v-0.387c0.444-0.156,0.899-0.316,1.367-0.48
		s0.791-0.281,0.97-0.352c0.389-0.148,0.791-0.316,1.203-0.504c0.054,0,0.087,0.02,0.099,0.059s0.018,0.121,0.018,0.246v1.922
		c0.501-0.695,0.985-1.238,1.451-1.629s0.95-0.586,1.451-0.586c0.4,0,0.725,0.119,0.976,0.357c0.25,0.238,0.376,0.537,0.376,0.896
		c0,0.32-0.096,0.59-0.287,0.809s-0.432,0.328-0.721,0.328c-0.297,0-0.596-0.137-0.896-0.41s-0.537-0.41-0.709-0.41
		c-0.273,0-0.609,0.221-1.008,0.662s-0.598,0.896-0.598,1.365v5.285c0,0.672,0.156,1.139,0.469,1.4s0.832,0.385,1.559,0.369V27
		h-5.777V26.613z"/>
	<path d="M230.762,31.84c0.729-0.047,1.193-0.203,1.391-0.469s0.297-0.684,0.297-1.254v-11.25c0-0.594-0.072-0.975-0.217-1.143
		s-0.416-0.252-0.814-0.252c-0.086,0-0.166,0.004-0.24,0.012s-0.182,0.023-0.322,0.047v-0.387l1.113-0.363
		c0.039-0.008,0.824-0.277,2.355-0.809c0.039,0,0.068,0.018,0.088,0.053s0.029,0.076,0.029,0.123v1.582
		c0.516-0.516,0.969-0.898,1.359-1.148c0.703-0.438,1.426-0.656,2.168-0.656c1.078,0,2.006,0.458,2.783,1.375
		s1.166,2.171,1.166,3.764c0,1.561-0.467,2.978-1.4,4.25c-0.934,1.272-2.107,1.908-3.521,1.908c-0.438,0-0.816-0.055-1.137-0.164
		c-0.5-0.164-0.961-0.464-1.383-0.902V30c0,0.789,0.129,1.273,0.387,1.453s0.82,0.301,1.688,0.363v0.41h-5.789V31.84z
		 M235.385,26.022c0.402,0.262,0.877,0.392,1.424,0.392c0.844,0,1.564-0.419,2.162-1.258c0.598-0.838,0.896-2.007,0.896-3.505
		c0-1.436-0.311-2.508-0.932-3.219c-0.621-0.71-1.342-1.065-2.162-1.065c-0.578,0-1.105,0.178-1.582,0.532
		c-0.477,0.355-0.715,0.705-0.715,1.048v5.887C234.68,25.365,234.982,25.761,235.385,26.022z"/>
	<path d="M251.035,17.15c0.828,0.762,1.242,1.842,1.242,3.24h-7.441c0.078,1.809,0.488,3.126,1.23,3.952s1.621,1.239,2.637,1.239
		c0.82,0,1.512-0.214,2.074-0.643s1.082-1.037,1.559-1.824l0.41,0.141c-0.32,0.994-0.92,1.913-1.799,2.758s-1.955,1.268-3.229,1.268
		c-1.469,0-2.604-0.555-3.404-1.664s-1.201-2.387-1.201-3.832c0-1.57,0.465-2.926,1.395-4.066s2.141-1.711,3.633-1.711
		C249.242,16.008,250.207,16.389,251.035,17.15z M245.422,18.047c-0.25,0.422-0.43,0.953-0.539,1.594h4.945
		c-0.086-0.781-0.234-1.363-0.445-1.746c-0.383-0.688-1.023-1.031-1.922-1.031C246.57,16.863,245.891,17.258,245.422,18.047z"/>
	<path d="M253.73,26.672c0.555-0.07,0.943-0.209,1.166-0.416s0.334-0.67,0.334-1.389v-5.953c0-0.496-0.047-0.845-0.141-1.046
		c-0.148-0.294-0.453-0.442-0.914-0.442c-0.07,0-0.143,0.004-0.217,0.012s-0.166,0.02-0.275,0.035v-0.41
		c0.32-0.094,1.078-0.336,2.273-0.727l1.102-0.363c0.055,0,0.088,0.02,0.1,0.059s0.018,0.094,0.018,0.164v1.723
		c0.717-0.672,1.279-1.133,1.685-1.383c0.608-0.383,1.24-0.574,1.895-0.574c0.53,0,1.014,0.152,1.451,0.457
		c0.842,0.594,1.263,1.652,1.263,3.176v5.473c0,0.562,0.112,0.969,0.337,1.219c0.225,0.25,0.601,0.379,1.128,0.387V27h-5.004v-0.328
		c0.57-0.078,0.969-0.236,1.195-0.475s0.34-0.756,0.34-1.553v-5.004c0-0.672-0.125-1.229-0.373-1.67s-0.707-0.662-1.375-0.662
		c-0.458,0-0.924,0.156-1.398,0.469c-0.264,0.18-0.606,0.477-1.025,0.891v6.562c0,0.562,0.125,0.939,0.375,1.131
		s0.645,0.295,1.184,0.311V27h-5.121V26.672z"/>
	<path d="M272.551,16.301c0.312,0.164,0.613,0.391,0.902,0.68v-3.727c0-0.477-0.053-0.805-0.158-0.984S272.938,12,272.539,12
		c-0.094,0-0.176,0.004-0.246,0.012s-0.227,0.023-0.469,0.047v-0.387l0.961-0.246c0.352-0.094,0.703-0.191,1.055-0.293
		s0.66-0.199,0.926-0.293c0.125-0.039,0.332-0.113,0.621-0.223l0.07,0.023l-0.023,1.23c-0.008,0.445-0.016,0.904-0.023,1.377
		s-0.012,0.939-0.012,1.4l-0.023,9.574c0,0.508,0.062,0.863,0.188,1.066s0.457,0.305,0.996,0.305c0.086,0,0.172-0.002,0.258-0.006
		s0.172-0.014,0.258-0.029v0.387c-0.047,0.016-0.613,0.211-1.699,0.586l-1.84,0.691l-0.082-0.105v-1.441
		c-0.438,0.477-0.816,0.816-1.137,1.02c-0.57,0.352-1.23,0.527-1.98,0.527c-1.328,0-2.404-0.514-3.229-1.541
		s-1.236-2.217-1.236-3.568c0-1.695,0.494-3.15,1.482-4.365s2.197-1.822,3.627-1.822C271.551,15.926,272.074,16.051,272.551,16.301z
		 M272.891,25.418c0.375-0.359,0.562-0.699,0.562-1.02v-5.027c0-1.016-0.271-1.732-0.814-2.15s-1.072-0.627-1.588-0.627
		c-0.984,0-1.75,0.436-2.297,1.307s-0.82,1.943-0.82,3.217c0,1.258,0.291,2.379,0.873,3.363s1.451,1.477,2.607,1.477
		C272.023,25.957,272.516,25.777,272.891,25.418z"/>
	<path d="M277.766,26.672c0.836-0.078,1.363-0.221,1.582-0.428s0.328-0.768,0.328-1.682v-5.59c0-0.508-0.035-0.859-0.105-1.055
		c-0.117-0.32-0.363-0.48-0.738-0.48c-0.086,0-0.17,0.008-0.252,0.023s-0.318,0.078-0.709,0.188v-0.363l0.504-0.164
		c1.367-0.445,2.32-0.781,2.859-1.008c0.219-0.094,0.359-0.141,0.422-0.141c0.016,0.055,0.023,0.113,0.023,0.176v8.414
		c0,0.891,0.107,1.449,0.322,1.676s0.701,0.371,1.459,0.434V27h-5.695V26.672z M279.629,11.002c0.234-0.241,0.523-0.362,0.867-0.362
		c0.336,0,0.623,0.119,0.861,0.356c0.238,0.237,0.357,0.527,0.357,0.869c0,0.334-0.119,0.62-0.357,0.857
		c-0.238,0.237-0.525,0.355-0.861,0.355c-0.344,0-0.633-0.119-0.867-0.355c-0.234-0.237-0.352-0.523-0.352-0.857
		S279.395,11.243,279.629,11.002z"/>
	<path d="M292.455,16.703c0.707,0.502,1.061,1.053,1.061,1.652c0,0.257-0.09,0.497-0.27,0.718c-0.18,0.222-0.457,0.333-0.832,0.333
		c-0.273,0-0.514-0.094-0.721-0.281s-0.357-0.461-0.451-0.82l-0.141-0.562c-0.102-0.414-0.277-0.707-0.527-0.879
		c-0.258-0.164-0.598-0.246-1.02-0.246c-0.891,0-1.643,0.389-2.256,1.167c-0.613,0.779-0.92,1.813-0.92,3.104
		c0,1.181,0.338,2.241,1.014,3.18c0.676,0.939,1.588,1.408,2.736,1.408c0.812,0,1.535-0.266,2.168-0.798
		c0.359-0.305,0.766-0.791,1.219-1.456l0.328,0.2c-0.445,0.938-0.914,1.681-1.406,2.229c-0.945,1.048-2.039,1.572-3.281,1.572
		c-1.219,0-2.297-0.48-3.234-1.441s-1.406-2.266-1.406-3.914c0-1.617,0.512-3.008,1.535-4.172s2.316-1.746,3.879-1.746
		C290.906,15.949,291.748,16.2,292.455,16.703z"/>
	<path d="M298.332,16.148v7.5c0,0.531,0.074,0.957,0.223,1.277c0.289,0.594,0.82,0.891,1.594,0.891c0.531,0,1.051-0.176,1.559-0.527
		c0.289-0.195,0.582-0.465,0.879-0.809v-6.422c0-0.602-0.117-0.996-0.352-1.184s-0.703-0.301-1.406-0.34v-0.387h3.785v8.25
		c0,0.531,0.096,0.896,0.287,1.096s0.596,0.287,1.213,0.264v0.328c-0.43,0.117-0.746,0.205-0.949,0.264s-0.543,0.166-1.02,0.322
		c-0.203,0.07-0.648,0.238-1.336,0.504c-0.039,0-0.062-0.018-0.07-0.053s-0.012-0.076-0.012-0.123v-1.887
		c-0.531,0.633-1.016,1.102-1.453,1.406c-0.664,0.469-1.367,0.703-2.109,0.703c-0.68,0-1.32-0.242-1.922-0.728
		c-0.609-0.477-0.914-1.279-0.914-2.405V18c0-0.62-0.133-1.035-0.398-1.244c-0.172-0.132-0.539-0.225-1.102-0.279v-0.328H298.332z"
		/>
	<path d="M307.109,26.672c0.727-0.07,1.219-0.217,1.477-0.439s0.387-0.658,0.387-1.307V13.477c0-0.516-0.043-0.871-0.129-1.066
		c-0.156-0.328-0.473-0.492-0.949-0.492c-0.109,0-0.229,0.012-0.357,0.035s-0.291,0.059-0.486,0.105v-0.387
		c1.055-0.281,2.324-0.656,3.809-1.125c0.055,0,0.088,0.023,0.1,0.07s0.018,0.148,0.018,0.305v14.051
		c0,0.68,0.117,1.119,0.352,1.318s0.719,0.326,1.453,0.381V27h-5.672V26.672z"/>
	<path d="M315.863,21.832c0.719-0.469,2.152-1.105,4.301-1.91v-0.996c0-0.797-0.078-1.352-0.234-1.664
		c-0.266-0.523-0.816-0.785-1.652-0.785c-0.398,0-0.777,0.102-1.137,0.305c-0.359,0.211-0.539,0.5-0.539,0.867
		c0,0.094,0.02,0.252,0.059,0.475s0.059,0.365,0.059,0.428c0,0.438-0.145,0.742-0.434,0.914c-0.164,0.102-0.359,0.152-0.586,0.152
		c-0.352,0-0.621-0.115-0.809-0.346s-0.281-0.486-0.281-0.768c0-0.547,0.338-1.119,1.014-1.717s1.666-0.896,2.971-0.896
		c1.516,0,2.543,0.492,3.082,1.477c0.289,0.539,0.434,1.324,0.434,2.355v4.699c0,0.453,0.031,0.766,0.094,0.938
		c0.102,0.305,0.312,0.457,0.633,0.457c0.18,0,0.328-0.027,0.445-0.082s0.32-0.188,0.609-0.398v0.609
		c-0.25,0.305-0.52,0.555-0.809,0.75c-0.438,0.297-0.883,0.445-1.336,0.445c-0.531,0-0.916-0.172-1.154-0.516
		s-0.369-0.754-0.393-1.23c-0.594,0.516-1.102,0.898-1.523,1.148c-0.711,0.422-1.387,0.633-2.027,0.633
		c-0.672,0-1.254-0.236-1.746-0.709s-0.738-1.072-0.738-1.799C314.164,23.535,314.73,22.59,315.863,21.832z M320.164,20.508
		c-0.898,0.297-1.641,0.625-2.227,0.984c-1.125,0.695-1.688,1.484-1.688,2.367c0,0.711,0.234,1.234,0.703,1.57
		c0.305,0.219,0.645,0.328,1.02,0.328c0.516,0,1.01-0.145,1.482-0.434s0.709-0.656,0.709-1.102V20.508z"/>
	<path d="M324.043,26.613c0.719-0.062,1.195-0.189,1.43-0.381s0.352-0.6,0.352-1.225v-5.285c0-0.773-0.072-1.326-0.217-1.658
		s-0.408-0.498-0.791-0.498c-0.078,0-0.182,0.01-0.311,0.029s-0.264,0.045-0.404,0.076v-0.387c0.444-0.156,0.899-0.316,1.367-0.48
		s0.791-0.281,0.97-0.352c0.389-0.148,0.791-0.316,1.203-0.504c0.054,0,0.087,0.02,0.099,0.059s0.018,0.121,0.018,0.246v1.922
		c0.501-0.695,0.985-1.238,1.451-1.629s0.95-0.586,1.451-0.586c0.4,0,0.725,0.119,0.976,0.357c0.25,0.238,0.376,0.537,0.376,0.896
		c0,0.32-0.096,0.59-0.287,0.809s-0.432,0.328-0.721,0.328c-0.297,0-0.596-0.137-0.896-0.41s-0.537-0.41-0.709-0.41
		c-0.273,0-0.609,0.221-1.008,0.662s-0.598,0.896-0.598,1.365v5.285c0,0.672,0.156,1.139,0.469,1.4s0.832,0.385,1.559,0.369V27
		h-5.777V26.613z"/>
</g>
<g>
	<path d="M110.117,31.84c0.729-0.047,1.193-0.203,1.391-0.469s0.297-0.684,0.297-1.254v-11.25c0-0.594-0.072-0.975-0.217-1.143
		s-0.416-0.252-0.814-0.252c-0.086,0-0.166,0.004-0.24,0.012s-0.182,0.023-0.322,0.047v-0.387l1.113-0.363
		c0.039-0.008,0.824-0.277,2.355-0.809c0.039,0,0.068,0.018,0.088,0.053s0.029,0.076,0.029,0.123v1.582
		c0.516-0.516,0.969-0.898,1.359-1.148c0.703-0.438,1.426-0.656,2.168-0.656c1.078,0,2.006,0.458,2.783,1.375
		s1.166,2.171,1.166,3.764c0,1.561-0.467,2.978-1.4,4.25c-0.934,1.272-2.107,1.908-3.521,1.908c-0.438,0-0.816-0.055-1.137-0.164
		c-0.5-0.164-0.961-0.464-1.383-0.902V30c0,0.789,0.129,1.273,0.387,1.453s0.82,0.301,1.688,0.363v0.41h-5.789V31.84z
		 M114.74,26.022c0.402,0.262,0.877,0.392,1.424,0.392c0.844,0,1.564-0.419,2.162-1.258c0.598-0.838,0.896-2.007,0.896-3.505
		c0-1.436-0.311-2.508-0.932-3.219c-0.621-0.71-1.342-1.065-2.162-1.065c-0.578,0-1.105,0.178-1.582,0.532
		c-0.477,0.355-0.715,0.705-0.715,1.048v5.887C114.035,25.365,114.338,25.761,114.74,26.022z"/>
	<path d="M124.092,17.619c0.988-1.074,2.26-1.611,3.814-1.611c1.547,0,2.828,0.508,3.844,1.523s1.523,2.367,1.523,4.055
		c0,1.555-0.492,2.906-1.477,4.055s-2.258,1.723-3.82,1.723c-1.5,0-2.77-0.551-3.809-1.652s-1.559-2.484-1.559-4.148
		C122.609,20.008,123.104,18.693,124.092,17.619z M125.963,17.32c-0.783,0.711-1.174,1.938-1.174,3.68
		c0,1.391,0.315,2.688,0.945,3.891c0.63,1.203,1.505,1.805,2.625,1.805c0.876,0,1.552-0.402,2.025-1.207
		c0.474-0.805,0.71-1.859,0.71-3.164c0-1.352-0.301-2.625-0.904-3.82c-0.603-1.195-1.476-1.793-2.619-1.793
		C126.953,16.711,126.417,16.914,125.963,17.32z"/>
	<path d="M134.492,26.672c0.727-0.07,1.219-0.217,1.477-0.439s0.387-0.658,0.387-1.307V13.477c0-0.516-0.043-0.871-0.129-1.066
		c-0.156-0.328-0.473-0.492-0.949-0.492c-0.109,0-0.229,0.012-0.357,0.035s-0.291,0.059-0.486,0.105v-0.387
		c1.055-0.281,2.324-0.656,3.809-1.125c0.055,0,0.088,0.023,0.1,0.07s0.018,0.148,0.018,0.305v14.051
		c0,0.68,0.117,1.119,0.352,1.318s0.719,0.326,1.453,0.381V27h-5.672V26.672z"/>
	<path d="M143.246,21.832c0.719-0.469,2.152-1.105,4.301-1.91v-0.996c0-0.797-0.078-1.352-0.234-1.664
		c-0.266-0.523-0.816-0.785-1.652-0.785c-0.398,0-0.777,0.102-1.137,0.305c-0.359,0.211-0.539,0.5-0.539,0.867
		c0,0.094,0.02,0.252,0.059,0.475s0.059,0.365,0.059,0.428c0,0.438-0.145,0.742-0.434,0.914c-0.164,0.102-0.359,0.152-0.586,0.152
		c-0.352,0-0.621-0.115-0.809-0.346s-0.281-0.486-0.281-0.768c0-0.547,0.338-1.119,1.014-1.717s1.666-0.896,2.971-0.896
		c1.516,0,2.543,0.492,3.082,1.477c0.289,0.539,0.434,1.324,0.434,2.355v4.699c0,0.453,0.031,0.766,0.094,0.938
		c0.102,0.305,0.312,0.457,0.633,0.457c0.18,0,0.328-0.027,0.445-0.082s0.32-0.188,0.609-0.398v0.609
		c-0.25,0.305-0.52,0.555-0.809,0.75c-0.438,0.297-0.883,0.445-1.336,0.445c-0.531,0-0.916-0.172-1.154-0.516
		s-0.369-0.754-0.393-1.23c-0.594,0.516-1.102,0.898-1.523,1.148c-0.711,0.422-1.387,0.633-2.027,0.633
		c-0.672,0-1.254-0.236-1.746-0.709s-0.738-1.072-0.738-1.799C141.547,23.535,142.113,22.59,143.246,21.832z M147.547,20.508
		c-0.898,0.297-1.641,0.625-2.227,0.984c-1.125,0.695-1.688,1.484-1.688,2.367c0,0.711,0.234,1.234,0.703,1.57
		c0.305,0.219,0.645,0.328,1.02,0.328c0.516,0,1.01-0.145,1.482-0.434s0.709-0.656,0.709-1.102V20.508z"/>
	<path d="M151.426,26.613c0.719-0.062,1.195-0.189,1.43-0.381s0.352-0.6,0.352-1.225v-5.285c0-0.773-0.072-1.326-0.217-1.658
		s-0.408-0.498-0.791-0.498c-0.078,0-0.182,0.01-0.311,0.029s-0.264,0.045-0.404,0.076v-0.387c0.444-0.156,0.899-0.316,1.367-0.48
		s0.791-0.281,0.97-0.352c0.389-0.148,0.791-0.316,1.203-0.504c0.054,0,0.087,0.02,0.099,0.059s0.018,0.121,0.018,0.246v1.922
		c0.501-0.695,0.985-1.238,1.451-1.629s0.95-0.586,1.451-0.586c0.4,0,0.725,0.119,0.976,0.357c0.25,0.238,0.376,0.537,0.376,0.896
		c0,0.32-0.096,0.59-0.287,0.809s-0.432,0.328-0.721,0.328c-0.297,0-0.596-0.137-0.896-0.41s-0.537-0.41-0.709-0.41
		c-0.273,0-0.609,0.221-1.008,0.662s-0.598,0.896-0.598,1.365v5.285c0,0.672,0.156,1.139,0.469,1.4s0.832,0.385,1.559,0.369V27
		h-5.777V26.613z"/>
</g>
<g>
	<path d="M28.49,16.703c0.707,0.502,1.061,1.053,1.061,1.652c0,0.257-0.09,0.497-0.27,0.718c-0.18,0.222-0.457,0.333-0.832,0.333
		c-0.273,0-0.514-0.094-0.721-0.281s-0.357-0.461-0.451-0.82l-0.141-0.562c-0.102-0.414-0.277-0.707-0.527-0.879
		c-0.258-0.164-0.598-0.246-1.02-0.246c-0.891,0-1.643,0.389-2.256,1.167c-0.613,0.779-0.92,1.813-0.92,3.104
		c0,1.181,0.338,2.241,1.014,3.18c0.676,0.939,1.588,1.408,2.736,1.408c0.812,0,1.535-0.266,2.168-0.798
		c0.359-0.305,0.766-0.791,1.219-1.456l0.328,0.2c-0.445,0.938-0.914,1.681-1.406,2.229c-0.945,1.048-2.039,1.572-3.281,1.572
		c-1.219,0-2.297-0.48-3.234-1.441s-1.406-2.266-1.406-3.914c0-1.617,0.512-3.008,1.535-4.172s2.316-1.746,3.879-1.746
		C26.941,15.949,27.783,16.2,28.49,16.703z"/>
	<path d="M39.043,17.15c0.828,0.762,1.242,1.842,1.242,3.24h-7.441c0.078,1.809,0.488,3.126,1.23,3.952s1.621,1.239,2.637,1.239
		c0.82,0,1.512-0.214,2.074-0.643s1.082-1.037,1.559-1.824l0.41,0.141c-0.32,0.994-0.92,1.913-1.799,2.758S37,27.281,35.727,27.281
		c-1.469,0-2.604-0.555-3.404-1.664s-1.201-2.387-1.201-3.832c0-1.57,0.465-2.926,1.395-4.066s2.141-1.711,3.633-1.711
		C37.25,16.008,38.215,16.389,39.043,17.15z M33.43,18.047C33.18,18.469,33,19,32.891,19.641h4.945
		c-0.086-0.781-0.234-1.363-0.445-1.746c-0.383-0.688-1.023-1.031-1.922-1.031C34.578,16.863,33.898,17.258,33.43,18.047z"/>
	<path d="M41.738,26.672c0.555-0.07,0.943-0.209,1.166-0.416s0.334-0.67,0.334-1.389v-5.953c0-0.496-0.047-0.845-0.141-1.046
		c-0.148-0.294-0.453-0.442-0.914-0.442c-0.07,0-0.143,0.004-0.217,0.012s-0.166,0.02-0.275,0.035v-0.41
		c0.32-0.094,1.078-0.336,2.273-0.727l1.102-0.363c0.055,0,0.088,0.02,0.1,0.059s0.018,0.094,0.018,0.164v1.723
		c0.717-0.672,1.279-1.133,1.685-1.383c0.608-0.383,1.24-0.574,1.895-0.574c0.53,0,1.014,0.152,1.451,0.457
		c0.842,0.594,1.263,1.652,1.263,3.176v5.473c0,0.562,0.112,0.969,0.337,1.219c0.225,0.25,0.601,0.379,1.128,0.387V27h-5.004v-0.328
		c0.57-0.078,0.969-0.236,1.195-0.475s0.34-0.756,0.34-1.553v-5.004c0-0.672-0.125-1.229-0.373-1.67s-0.707-0.662-1.375-0.662
		c-0.458,0-0.924,0.156-1.398,0.469c-0.264,0.18-0.606,0.477-1.025,0.891v6.562c0,0.562,0.125,0.939,0.375,1.131
		s0.645,0.295,1.184,0.311V27h-5.121V26.672z"/>
	<path d="M59.41,16.195v0.844H57.02l-0.023,6.75c0,0.594,0.051,1.043,0.152,1.348c0.188,0.539,0.555,0.809,1.102,0.809
		c0.281,0,0.525-0.066,0.732-0.199s0.443-0.344,0.709-0.633l0.305,0.258l-0.258,0.352c-0.406,0.547-0.836,0.934-1.289,1.16
		s-0.891,0.34-1.312,0.34c-0.922,0-1.547-0.41-1.875-1.23c-0.18-0.445-0.27-1.062-0.27-1.852v-7.102h-1.277
		c-0.039-0.023-0.068-0.047-0.088-0.07s-0.029-0.055-0.029-0.094c0-0.078,0.018-0.139,0.053-0.182s0.146-0.143,0.334-0.299
		c0.539-0.445,0.928-0.807,1.166-1.084s0.799-1.01,1.682-2.197c0.102,0,0.162,0.008,0.182,0.023s0.029,0.074,0.029,0.176v2.883
		H59.41z"/>
	<path d="M60.078,26.613c0.719-0.062,1.195-0.189,1.43-0.381s0.352-0.6,0.352-1.225v-5.285c0-0.773-0.072-1.326-0.217-1.658
		s-0.408-0.498-0.791-0.498c-0.078,0-0.182,0.01-0.311,0.029s-0.264,0.045-0.404,0.076v-0.387c0.444-0.156,0.899-0.316,1.367-0.48
		s0.791-0.281,0.97-0.352c0.389-0.148,0.791-0.316,1.203-0.504c0.054,0,0.087,0.02,0.099,0.059s0.018,0.121,0.018,0.246v1.922
		c0.501-0.695,0.985-1.238,1.451-1.629s0.95-0.586,1.451-0.586c0.4,0,0.725,0.119,0.976,0.357c0.25,0.238,0.376,0.537,0.376,0.896
		c0,0.32-0.096,0.59-0.287,0.809s-0.432,0.328-0.721,0.328c-0.297,0-0.596-0.137-0.896-0.41s-0.537-0.41-0.709-0.41
		c-0.273,0-0.609,0.221-1.008,0.662s-0.598,0.896-0.598,1.365v5.285c0,0.672,0.156,1.139,0.469,1.4s0.832,0.385,1.559,0.369V27
		h-5.777V26.613z"/>
	<path d="M70.543,21.832c0.719-0.469,2.152-1.105,4.301-1.91v-0.996c0-0.797-0.078-1.352-0.234-1.664
		c-0.266-0.523-0.816-0.785-1.652-0.785c-0.398,0-0.777,0.102-1.137,0.305c-0.359,0.211-0.539,0.5-0.539,0.867
		c0,0.094,0.02,0.252,0.059,0.475s0.059,0.365,0.059,0.428c0,0.438-0.145,0.742-0.434,0.914c-0.164,0.102-0.359,0.152-0.586,0.152
		c-0.352,0-0.621-0.115-0.809-0.346s-0.281-0.486-0.281-0.768c0-0.547,0.338-1.119,1.014-1.717s1.666-0.896,2.971-0.896
		c1.516,0,2.543,0.492,3.082,1.477c0.289,0.539,0.434,1.324,0.434,2.355v4.699c0,0.453,0.031,0.766,0.094,0.938
		c0.102,0.305,0.312,0.457,0.633,0.457c0.18,0,0.328-0.027,0.445-0.082s0.32-0.188,0.609-0.398v0.609
		c-0.25,0.305-0.52,0.555-0.809,0.75c-0.438,0.297-0.883,0.445-1.336,0.445c-0.531,0-0.916-0.172-1.154-0.516
		s-0.369-0.754-0.393-1.23c-0.594,0.516-1.102,0.898-1.523,1.148c-0.711,0.422-1.387,0.633-2.027,0.633
		c-0.672,0-1.254-0.236-1.746-0.709s-0.738-1.072-0.738-1.799C68.844,23.535,69.41,22.59,70.543,21.832z M74.844,20.508
		c-0.898,0.297-1.641,0.625-2.227,0.984c-1.125,0.695-1.688,1.484-1.688,2.367c0,0.711,0.234,1.234,0.703,1.57
		c0.305,0.219,0.645,0.328,1.02,0.328c0.516,0,1.01-0.145,1.482-0.434s0.709-0.656,0.709-1.102V20.508z"/>
	<path d="M79.109,26.672c0.727-0.07,1.219-0.217,1.477-0.439s0.387-0.658,0.387-1.307V13.477c0-0.516-0.043-0.871-0.129-1.066
		c-0.156-0.328-0.473-0.492-0.949-0.492c-0.109,0-0.229,0.012-0.357,0.035s-0.291,0.059-0.486,0.105v-0.387
		c1.055-0.281,2.324-0.656,3.809-1.125c0.055,0,0.088,0.023,0.1,0.07s0.018,0.148,0.018,0.305v14.051
		c0,0.68,0.117,1.119,0.352,1.318s0.719,0.326,1.453,0.381V27h-5.672V26.672z"/>
</g>
</svg>
