<?xml version="1.0" encoding="utf-8"?>
<!-- Generator: Adobe Illustrator 15.1.0, SVG Export Plug-In . SVG Version: 6.00 Build 0)  -->
<!DOCTYPE svg PUBLIC "-//W3C//DTD SVG 1.1//EN" "http://www.w3.org/Graphics/SVG/1.1/DTD/svg11.dtd">
<svg version="1.1" id="Layer_1" xmlns="http://www.w3.org/2000/svg" xmlns:xlink="http://www.w3.org/1999/xlink" x="0px" y="0px"
	 width="513px" height="306px" viewBox="0 0 513 306" enable-background="new 0 0 513 306" xml:space="preserve">
<g>
	<g>
		<line fill="none" stroke="#009246" stroke-miterlimit="10" x1="207" y1="45" x2="208" y2="45"/>
		
			<line fill="none" stroke="#009246" stroke-miterlimit="10" stroke-dasharray="1.9869,1.9869" x1="209.987" y1="45" x2="511.006" y2="45"/>
		<line fill="none" stroke="#009246" stroke-miterlimit="10" x1="512" y1="45" x2="513" y2="45"/>
	</g>
</g>
<g>
	<g>
		<line fill="none" stroke="#009246" stroke-miterlimit="10" x1="207" y1="99" x2="208" y2="99"/>
		
			<line fill="none" stroke="#009246" stroke-miterlimit="10" stroke-dasharray="1.9869,1.9869" x1="209.987" y1="99" x2="511.006" y2="99"/>
		<line fill="none" stroke="#009246" stroke-miterlimit="10" x1="512" y1="99" x2="513" y2="99"/>
	</g>
</g>
<g>
	<g>
		<line fill="none" stroke="#009246" stroke-miterlimit="10" x1="207" y1="153" x2="208" y2="153"/>
		
			<line fill="none" stroke="#009246" stroke-miterlimit="10" stroke-dasharray="1.9869,1.9869" x1="209.987" y1="153" x2="511.006" y2="153"/>
		<line fill="none" stroke="#009246" stroke-miterlimit="10" x1="512" y1="153" x2="513" y2="153"/>
	</g>
</g>
<g>
	<g>
		<line fill="none" stroke="#009246" stroke-miterlimit="10" x1="207" y1="207" x2="208" y2="207"/>
		
			<line fill="none" stroke="#009246" stroke-miterlimit="10" stroke-dasharray="1.9869,1.9869" x1="209.987" y1="207" x2="511.006" y2="207"/>
		<line fill="none" stroke="#009246" stroke-miterlimit="10" x1="512" y1="207" x2="513" y2="207"/>
	</g>
</g>
<g>
	<g>
		<line fill="none" stroke="#009246" stroke-miterlimit="10" x1="207" y1="261" x2="208" y2="261"/>
		
			<line fill="none" stroke="#009246" stroke-miterlimit="10" stroke-dasharray="1.9869,1.9869" x1="209.987" y1="261" x2="511.006" y2="261"/>
		<line fill="none" stroke="#009246" stroke-miterlimit="10" x1="512" y1="261" x2="513" y2="261"/>
	</g>
</g>
<g>
	<g>
		<line fill="none" stroke="#009246" stroke-miterlimit="10" x1="468" y1="0" x2="468" y2="1"/>
		
			<line fill="none" stroke="#009246" stroke-miterlimit="10" stroke-dasharray="1.9869,1.9869" x1="468" y1="2.987" x2="468" y2="304.006"/>
		<line fill="none" stroke="#009246" stroke-miterlimit="10" x1="468" y1="305" x2="468" y2="306"/>
	</g>
</g>
<g>
	<g>
		<line fill="none" stroke="#009246" stroke-miterlimit="10" x1="414" y1="0" x2="414" y2="1"/>
		
			<line fill="none" stroke="#009246" stroke-miterlimit="10" stroke-dasharray="1.9869,1.9869" x1="414" y1="2.987" x2="414" y2="304.006"/>
		<line fill="none" stroke="#009246" stroke-miterlimit="10" x1="414" y1="305" x2="414" y2="306"/>
	</g>
</g>
<g>
	<g>
		<line fill="none" stroke="#009246" stroke-miterlimit="10" x1="252" y1="0" x2="252" y2="1"/>
		
			<line fill="none" stroke="#009246" stroke-miterlimit="10" stroke-dasharray="1.9869,1.9869" x1="252" y1="2.987" x2="252" y2="304.006"/>
		<line fill="none" stroke="#009246" stroke-miterlimit="10" x1="252" y1="305" x2="252" y2="306"/>
	</g>
</g>
<g>
	<g>
		<line fill="none" stroke="#009246" stroke-miterlimit="10" x1="306" y1="0" x2="306" y2="1"/>
		
			<line fill="none" stroke="#009246" stroke-miterlimit="10" stroke-dasharray="1.9869,1.9869" x1="306" y1="2.987" x2="306" y2="304.006"/>
		<line fill="none" stroke="#009246" stroke-miterlimit="10" x1="306" y1="305" x2="306" y2="306"/>
	</g>
</g>
<g>
	<g>
		<line fill="none" stroke="#009246" stroke-miterlimit="10" x1="360" y1="0" x2="360" y2="1"/>
		
			<line fill="none" stroke="#009246" stroke-miterlimit="10" stroke-dasharray="1.9869,1.9869" x1="360" y1="2.987" x2="360" y2="304.006"/>
		<line fill="none" stroke="#009246" stroke-miterlimit="10" x1="360" y1="305" x2="360" y2="306"/>
	</g>
</g>
<polyline fill="none" stroke="#0081CD" stroke-width="3" stroke-miterlimit="10" points="306,153 252,261 468,207 "/>
<polyline fill="none" stroke="#0081CD" stroke-width="3" stroke-miterlimit="10" points="360,45 306,153 414,99 "/>
<polyline fill="none" stroke="#0081CD" stroke-width="3" stroke-miterlimit="10" points="36,225 108,81 144,153 "/>
<line fill="none" stroke="#0081CD" stroke-width="3" stroke-miterlimit="10" x1="72" y1="153" x2="108" y2="225"/>
<path fill="#FFE180" stroke="#231F20" stroke-miterlimit="10" d="M135,96c0,6.627-5.373,12-12,12H93c-6.627,0-12-5.373-12-12V66
	c0-6.627,5.373-12,12-12h30c6.627,0,12,5.373,12,12V96z"/>
<path fill="#FFE180" stroke="#231F20" stroke-miterlimit="10" d="M99,168c0,6.627-5.373,12-12,12H57c-6.627,0-12-5.373-12-12v-30
	c0-6.627,5.373-12,12-12h30c6.627,0,12,5.373,12,12V168z"/>
<path fill="#FFE180" stroke="#231F20" stroke-miterlimit="10" d="M171,168c0,6.627-5.373,12-12,12h-30c-6.627,0-12-5.373-12-12v-30
	c0-6.627,5.373-12,12-12h30c6.627,0,12,5.373,12,12V168z"/>
<path fill="#FFE180" stroke="#231F20" stroke-miterlimit="10" d="M63,240c0,6.627-5.373,12-12,12H21c-6.627,0-12-5.373-12-12v-30
	c0-6.627,5.373-12,12-12h30c6.627,0,12,5.373,12,12V240z"/>
<path fill="#FFE180" stroke="#231F20" stroke-miterlimit="10" d="M135,240c0,6.627-5.373,12-12,12H93c-6.627,0-12-5.373-12-12v-30
	c0-6.627,5.373-12,12-12h30c6.627,0,12,5.373,12,12V240z"/>
<g>
	<path fill="#BC1E47" d="M109.731,65.979c0.006,0.029,0.009,0.097,0.009,0.202v21.164c0,0.902,0.241,1.477,0.724,1.723
		s1.384,0.393,2.704,0.439V90h-9.932v-0.527c1.418-0.07,2.344-0.264,2.777-0.58s0.65-1.002,0.65-2.057V70.558
		c0-0.562-0.07-0.99-0.211-1.283s-0.445-0.439-0.914-0.439c-0.305,0-0.7,0.085-1.187,0.255s-0.94,0.349-1.362,0.536v-0.492
		l6.451-3.287h0.211C109.699,65.906,109.725,65.95,109.731,65.979z"/>
</g>
<path fill="#FFE180" stroke="#231F20" stroke-miterlimit="10" d="M279,276c0,6.627-5.373,12-12,12h-30c-6.627,0-12-5.373-12-12v-30
	c0-6.627,5.373-12,12-12h30c6.627,0,12,5.373,12,12V276z"/>
<g>
	<path fill="#BC1E47" d="M253.731,245.979c0.006,0.029,0.009,0.097,0.009,0.202v21.164c0,0.902,0.241,1.477,0.724,1.723
		s1.384,0.393,2.704,0.439V270h-9.932v-0.527c1.418-0.07,2.344-0.264,2.777-0.58s0.65-1.002,0.65-2.057v-16.277
		c0-0.562-0.07-0.99-0.211-1.283s-0.445-0.439-0.914-0.439c-0.305,0-0.7,0.085-1.187,0.255s-0.94,0.349-1.362,0.536v-0.492
		l6.451-3.287h0.211C253.699,245.906,253.725,245.95,253.731,245.979z"/>
</g>
<g>
	<path d="M136.072,161.595c4.289-4.45,7.201-7.717,8.736-9.801c1.535-2.084,2.303-4.116,2.303-6.094c0-1.732-0.469-3.053-1.406-3.96
		c-0.938-0.908-2.057-1.361-3.357-1.361c-1.605,0-2.906,0.585-3.902,1.756c-0.551,0.644-1.078,1.633-1.582,2.968l-0.756-0.158
		c0.586-2.694,1.579-4.565,2.979-5.613c1.4-1.048,2.903-1.572,4.509-1.572c1.98,0,3.583,0.624,4.808,1.871s1.837,2.772,1.837,4.575
		c0,1.92-0.663,3.771-1.987,5.55s-4.202,4.947-8.634,9.502h8.071c1.125,0,1.917-0.135,2.374-0.404
		c0.457-0.269,0.973-0.925,1.547-1.967l0.457,0.211L150.117,162h-14.045V161.595z"/>
</g>
<path fill="#FFE180" stroke="#231F20" stroke-miterlimit="10" d="M333,168c0,6.627-5.373,12-12,12h-30c-6.627,0-12-5.373-12-12v-30
	c0-6.627,5.373-12,12-12h30c6.627,0,12,5.373,12,12V168z"/>
<g>
	<path d="M302.352,159.952c1.061,0.674,1.96,1.011,2.698,1.011c1.641,0,2.859-0.555,3.656-1.664s1.195-2.315,1.195-3.618
		c0-1.256-0.322-2.359-0.967-3.31c-1.09-1.608-2.93-2.412-5.52-2.412c-0.152,0-0.299,0.003-0.439,0.009s-0.305,0.021-0.492,0.044
		l-0.035-0.457c1.875-0.68,3.352-1.459,4.43-2.338s1.617-2.039,1.617-3.48c0-1.277-0.425-2.25-1.274-2.918s-1.819-1.002-2.909-1.002
		c-1.289,0-2.426,0.475-3.41,1.424c-0.539,0.516-1.119,1.312-1.74,2.391l-0.545-0.123c0.469-1.781,1.342-3.205,2.619-4.271
		s2.754-1.6,4.43-1.6c1.793,0,3.179,0.492,4.157,1.477s1.468,2.121,1.468,3.41c0,1.137-0.404,2.18-1.213,3.129
		c-0.457,0.539-1.166,1.143-2.127,1.811c1.125,0.48,2.027,1.043,2.707,1.688c1.277,1.23,1.916,2.789,1.916,4.676
		c0,2.227-0.876,4.189-2.628,5.889s-4.245,2.549-7.479,2.549c-1.441,0-2.452-0.214-3.032-0.642s-0.87-0.888-0.87-1.38
		c0-0.305,0.097-0.598,0.29-0.879s0.507-0.422,0.94-0.422C300.439,158.941,301.292,159.278,302.352,159.952z"/>
</g>
<g>
	<path d="M68.352,159.952c1.061,0.674,1.96,1.011,2.698,1.011c1.641,0,2.859-0.555,3.656-1.664s1.195-2.315,1.195-3.618
		c0-1.256-0.322-2.359-0.967-3.31c-1.09-1.608-2.93-2.412-5.52-2.412c-0.152,0-0.299,0.003-0.439,0.009s-0.305,0.021-0.492,0.044
		l-0.035-0.457c1.875-0.68,3.352-1.459,4.43-2.338s1.617-2.039,1.617-3.48c0-1.277-0.425-2.25-1.274-2.918s-1.819-1.002-2.909-1.002
		c-1.289,0-2.426,0.475-3.41,1.424c-0.539,0.516-1.119,1.312-1.74,2.391l-0.545-0.123c0.469-1.781,1.342-3.205,2.619-4.271
		s2.754-1.6,4.43-1.6c1.793,0,3.179,0.492,4.157,1.477s1.468,2.121,1.468,3.41c0,1.137-0.404,2.18-1.213,3.129
		c-0.457,0.539-1.166,1.143-2.127,1.811c1.125,0.48,2.027,1.043,2.707,1.688c1.277,1.23,1.916,2.789,1.916,4.676
		c0,2.227-0.876,4.189-2.628,5.889s-4.245,2.549-7.479,2.549c-1.441,0-2.452-0.214-3.032-0.642s-0.87-0.888-0.87-1.38
		c0-0.305,0.097-0.598,0.29-0.879s0.507-0.422,0.94-0.422C66.439,158.941,67.292,159.278,68.352,159.952z"/>
</g>
<path fill="#FFE180" stroke="#231F20" stroke-miterlimit="10" d="M495,222c0,6.627-5.373,12-12,12h-30c-6.627,0-12-5.373-12-12v-30
	c0-6.627,5.373-12,12-12h30c6.627,0,12,5.373,12,12V222z"/>
<g>
	<path d="M460.072,215.595c4.289-4.45,7.201-7.717,8.736-9.801c1.535-2.084,2.303-4.116,2.303-6.094c0-1.732-0.469-3.053-1.406-3.96
		c-0.938-0.908-2.057-1.361-3.357-1.361c-1.605,0-2.906,0.585-3.902,1.756c-0.551,0.644-1.078,1.633-1.582,2.968l-0.756-0.158
		c0.586-2.694,1.579-4.565,2.979-5.613c1.4-1.048,2.903-1.572,4.509-1.572c1.98,0,3.583,0.624,4.808,1.871s1.837,2.772,1.837,4.575
		c0,1.92-0.662,3.771-1.987,5.55s-4.202,4.947-8.634,9.502h8.07c1.126,0,1.917-0.135,2.375-0.404
		c0.457-0.269,0.973-0.925,1.547-1.967l0.457,0.211L474.117,216h-14.045V215.595z"/>
</g>
<g>
	<path d="M32.323,231.917c1.085,0.756,1.922,1.134,2.509,1.134c1.35,0,2.529-0.595,3.539-1.784c1.009-1.189,1.514-2.651,1.514-4.386
		c0-3.035-1.62-5.221-4.858-6.557c-1.795-0.738-3.468-1.107-5.017-1.107c-0.258,0-0.42-0.009-0.484-0.026s-0.144-0.079-0.237-0.184
		c0.023-0.094,0.044-0.173,0.062-0.237c0.018-0.064,0.038-0.125,0.062-0.185l3.834-8.403h7.537c0.375,0,0.665-0.064,0.87-0.193
		c0.205-0.129,0.471-0.369,0.799-0.721l0.281,0.246l-1.354,3.252c-0.046,0.105-0.175,0.173-0.386,0.202
		c-0.211,0.029-0.44,0.044-0.686,0.044h-6.812l-1.496,3.076c1.924,0.328,3.332,0.639,4.223,0.932
		c1.467,0.492,2.693,1.219,3.678,2.18c0.845,0.832,1.484,1.767,1.918,2.804c0.434,1.037,0.651,2.136,0.651,3.296
		c0,2.59-0.924,4.752-2.772,6.486c-1.848,1.734-4.186,2.602-7.014,2.602c-1.149,0-2.077-0.111-2.781-0.334
		c-1.173-0.363-1.76-1.014-1.76-1.951c0-0.352,0.126-0.659,0.378-0.923s0.643-0.396,1.17-0.396
		C30.36,230.783,31.237,231.161,32.323,231.917z"/>
</g>
<path fill="#FFE180" stroke="#231F20" stroke-miterlimit="10" d="M441,114c0,6.627-5.373,12-12,12h-30c-6.627,0-12-5.373-12-12V84
	c0-6.627,5.373-12,12-12h30c6.627,0,12,5.373,12,12V114z"/>
<g>
	<path d="M416.654,83.847h1.67v15.82h3.674v2.338h-3.674V108h-2.795v-5.994h-10.125v-2.338L416.654,83.847z M415.494,87.476
		l-8.627,12.191h8.627V87.476z"/>
</g>
<g>
	<path d="M110.654,209.847h1.67v15.82h3.674v2.338h-3.674V234h-2.795v-5.994H99.404v-2.338L110.654,209.847z M109.494,213.476
		l-8.626,12.191h8.626V213.476z"/>
</g>
<path fill="#FFE180" stroke="#231F20" stroke-miterlimit="10" d="M387,60c0,6.627-5.373,12-12,12h-30c-6.627,0-12-5.373-12-12V30
	c0-6.627,5.373-12,12-12h30c6.627,0,12,5.373,12,12V60z"/>
<g>
	<path d="M356.324,51.917c1.085,0.756,1.922,1.134,2.508,1.134c1.35,0,2.529-0.595,3.539-1.784c1.009-1.189,1.514-2.651,1.514-4.386
		c0-3.035-1.619-5.221-4.858-6.557c-1.796-0.738-3.468-1.107-5.017-1.107c-0.258,0-0.42-0.009-0.484-0.026s-0.144-0.079-0.237-0.184
		c0.023-0.094,0.044-0.173,0.062-0.237c0.018-0.064,0.038-0.125,0.062-0.185l3.834-8.403h7.537c0.374,0,0.665-0.064,0.87-0.193
		c0.204-0.129,0.471-0.369,0.799-0.721l0.281,0.246l-1.354,3.252c-0.046,0.105-0.175,0.173-0.386,0.202
		c-0.212,0.029-0.44,0.044-0.687,0.044h-6.812l-1.496,3.076c1.924,0.328,3.332,0.639,4.223,0.932
		c1.467,0.492,2.693,1.219,3.679,2.18c0.845,0.832,1.484,1.767,1.918,2.804c0.435,1.037,0.651,2.136,0.651,3.296
		c0,2.59-0.924,4.752-2.771,6.486c-1.849,1.734-4.187,2.602-7.014,2.602c-1.15,0-2.077-0.111-2.781-0.334
		c-1.173-0.363-1.76-1.014-1.76-1.951c0-0.352,0.126-0.659,0.379-0.923c0.252-0.264,0.643-0.396,1.17-0.396
		C354.361,50.783,355.238,51.161,356.324,51.917z"/>
</g>
</svg>
