<?xml version="1.0" encoding="utf-8"?>
<!-- Generator: Adobe Illustrator 14.0.0, SVG Export Plug-In . SVG Version: 6.00 Build 43363)  -->
<!DOCTYPE svg PUBLIC "-//W3C//DTD SVG 1.1//EN" "http://www.w3.org/Graphics/SVG/1.1/DTD/svg11.dtd">
<svg version="1.1" id="Layer_1" xmlns="http://www.w3.org/2000/svg" xmlns:xlink="http://www.w3.org/1999/xlink" x="0px" y="0px"
	 width="756px" height="333px" viewBox="0 0 756 333" enable-background="new 0 0 756 333" xml:space="preserve">
<line fill="none" stroke="#BC1E47" stroke-width="4" x1="486" y1="36" x2="585" y2="18"/>
<polyline fill="none" stroke="#BC1E47" stroke-width="4" points="324,90 486,36 666,90 "/>
<polyline fill="none" stroke="#BC1E47" stroke-width="4" points="189,144 324,90 423,144 "/>
<polyline fill="none" stroke="#BC1E47" stroke-width="4" points="594,198 594,144 666,90 729,144 729,198 729,252 729,306 "/>
<line fill="none" stroke="#BC1E47" stroke-width="4" x1="675" y1="306" x2="648" y2="252"/>
<polyline fill="none" stroke="#BC1E47" stroke-width="4" points="540,252 594,198 648,252 621,306 "/>
<polyline fill="none" stroke="#BC1E47" stroke-width="4" points="513,306 540,252 567,306 "/>
<polyline fill="none" stroke="#BC1E47" stroke-width="4" points="378,252 378,198 423,144 459,198 459,252 459,306 "/>
<polyline fill="none" stroke="#BC1E47" stroke-width="4" points="351,306 378,252 405,306 "/>
<polyline fill="none" stroke="#BC1E47" stroke-width="4" points="297,306 297,252 270,198 "/>
<polyline fill="none" stroke="#BC1E47" stroke-width="4" points="108,198 189,144 270,198 243,252 243,306 "/>
<line fill="none" stroke="#BC1E47" stroke-width="4" x1="189" y1="306" x2="162" y2="252"/>
<polyline fill="none" stroke="#BC1E47" stroke-width="4" points="54,252 108,198 162,252 135,306 "/>
<polyline fill="none" stroke="#BC1E47" stroke-width="4" points="27,306 54,252 81,306 "/>
<circle fill="#FEC200" stroke="#000000" cx="27" cy="306" r="18"/>
<text transform="matrix(1 0 0 1 18 318)" font-family="'Times-Roman'" font-size="36">2</text>
<circle fill="#FEC200" stroke="#000000" cx="81" cy="306" r="18"/>
<text transform="matrix(1 0 0 1 72 318)" font-family="'Times-Roman'" font-size="36">2</text>
<circle fill="#FEC200" stroke="#000000" cx="135" cy="306" r="18"/>
<text transform="matrix(1 0 0 1 126 318)" font-family="'Times-Roman'" font-size="36">1</text>
<circle fill="#FEC200" stroke="#000000" cx="351" cy="306" r="18"/>
<text transform="matrix(1 0 0 1 342 318)" font-family="'Times-Roman'" font-size="36">2</text>
<circle fill="#FEC200" stroke="#000000" cx="405" cy="306" r="18"/>
<text transform="matrix(1 0 0 1 396 318)" font-family="'Times-Roman'" font-size="36">2</text>
<circle fill="#FEC200" stroke="#000000" cx="459" cy="306" r="18"/>
<text transform="matrix(1 0 0 1 450 318)" font-family="'Times-Roman'" font-size="36">1</text>
<circle fill="#FEC200" stroke="#000000" cx="243" cy="306" r="18"/>
<text transform="matrix(1 0 0 1 234 318)" font-family="'Times-Roman'" font-size="36">2</text>
<circle fill="#FEC200" stroke="#000000" cx="297" cy="306" r="18"/>
<text transform="matrix(1 0 0 1 288 318)" font-family="'Times-Roman'" font-size="36">1</text>
<circle fill="#FEC200" stroke="#000000" cx="189" cy="306" r="18"/>
<text transform="matrix(1 0 0 1 180 318)" font-family="'Times-Roman'" font-size="36">1</text>
<circle fill="#FEC200" stroke="#000000" cx="54" cy="252" r="18"/>
<text transform="matrix(1 0 0 1 45 264)" font-family="'Times-Roman'" font-size="36">2</text>
<circle fill="#FEC200" stroke="#000000" cx="162" cy="252" r="18"/>
<text transform="matrix(1 0 0 1 153 264)" font-family="'Times-Roman'" font-size="36">2</text>
<circle fill="#FEC200" stroke="#000000" cx="243" cy="252" r="18"/>
<text transform="matrix(1 0 0 1 234 264)" font-family="'Times-Roman'" font-size="36">1</text>
<circle fill="#FEC200" stroke="#000000" cx="540" cy="252" r="18"/>
<text transform="matrix(1 0 0 1 531 264)" font-family="'Times-Roman'" font-size="36">2</text>
<circle fill="#FEC200" stroke="#000000" cx="648" cy="252" r="18"/>
<text transform="matrix(1 0 0 1 639 264)" font-family="'Times-Roman'" font-size="36">2</text>
<circle fill="#FEC200" stroke="#000000" cx="729" cy="252" r="18"/>
<text transform="matrix(1 0 0 1 720 264)" font-family="'Times-Roman'" font-size="36">1</text>
<circle fill="#FEC200" stroke="#000000" cx="378" cy="252" r="18"/>
<text transform="matrix(1 0 0 1 369 264)" font-family="'Times-Roman'" font-size="36">2</text>
<circle fill="#FEC200" stroke="#000000" cx="459" cy="252" r="18"/>
<text transform="matrix(1 0 0 1 450 264)" font-family="'Times-Roman'" font-size="36">1</text>
<circle fill="#FEC200" stroke="#000000" cx="297" cy="252" r="18"/>
<text transform="matrix(1 0 0 1 288 264)" font-family="'Times-Roman'" font-size="36">1</text>
<circle fill="#FEC200" stroke="#000000" cx="108" cy="198" r="18"/>
<text transform="matrix(1 0 0 1 99 210)" font-family="'Times-Roman'" font-size="36">2</text>
<circle fill="#FEC200" stroke="#000000" cx="270" cy="198" r="18"/>
<text transform="matrix(1 0 0 1 261 210)" font-family="'Times-Roman'" font-size="36">2</text>
<circle fill="#FEC200" stroke="#000000" cx="378" cy="198" r="18"/>
<text transform="matrix(1 0 0 1 369 210)" font-family="'Times-Roman'" font-size="36">1</text>
<circle fill="#FEC200" stroke="#000000" cx="594" cy="198" r="18"/>
<text transform="matrix(1 0 0 1 585 210)" font-family="'Times-Roman'" font-size="36">2</text>
<circle fill="#FEC200" stroke="#000000" cx="729" cy="198" r="18"/>
<text transform="matrix(1 0 0 1 720 210)" font-family="'Times-Roman'" font-size="36">1</text>
<circle fill="#FEC200" stroke="#000000" cx="459" cy="198" r="18"/>
<text transform="matrix(1 0 0 1 450 210)" font-family="'Times-Roman'" font-size="36">1</text>
<circle fill="#FEC200" stroke="#000000" cx="189" cy="144" r="18"/>
<text transform="matrix(1 0 0 1 180 156)" font-family="'Times-Roman'" font-size="36">2</text>
<circle fill="#FEC200" stroke="#000000" cx="423" cy="144" r="18"/>
<text transform="matrix(1 0 0 1 414 156)" font-family="'Times-Roman'" font-size="36">2</text>
<circle fill="#FEC200" stroke="#000000" cx="486" cy="36" r="18"/>
<text transform="matrix(1 0 0 1 477 48)" font-family="'Times-Roman'" font-size="36">2</text>
<circle fill="#FEC200" stroke="#000000" cx="324" cy="90" r="18"/>
<text transform="matrix(1 0 0 1 315 102)" font-family="'Times-Roman'" font-size="36">2</text>
<circle fill="#FEC200" stroke="#000000" cx="666" cy="90" r="18"/>
<text transform="matrix(1 0 0 1 657 102)" font-family="'Times-Roman'" font-size="36">2</text>
<circle fill="#FEC200" stroke="#000000" cx="594" cy="144" r="18"/>
<text transform="matrix(1 0 0 1 585 156)" font-family="'Times-Roman'" font-size="36">1</text>
<circle fill="#FEC200" stroke="#000000" cx="729" cy="144" r="18"/>
<text transform="matrix(1 0 0 1 720 156)" font-family="'Times-Roman'" font-size="36">1</text>
<circle fill="#FEC200" stroke="#000000" cx="513" cy="306" r="18"/>
<text transform="matrix(1 0 0 1 504 318)" font-family="'Times-Roman'" font-size="36">2</text>
<circle fill="#FEC200" stroke="#000000" cx="567" cy="306" r="18"/>
<text transform="matrix(1 0 0 1 558 318)" font-family="'Times-Roman'" font-size="36">2</text>
<circle fill="#FEC200" stroke="#000000" cx="621" cy="306" r="18"/>
<text transform="matrix(1 0 0 1 612 318)" font-family="'Times-Roman'" font-size="36">1</text>
<circle fill="#FEC200" stroke="#000000" cx="729" cy="306" r="18"/>
<text transform="matrix(1 0 0 1 720 318)" font-family="'Times-Roman'" font-size="36">2</text>
<circle fill="#FEC200" stroke="#000000" cx="675" cy="306" r="18"/>
<text transform="matrix(1 0 0 1 666 318)" font-family="'Times-Roman'" font-size="36">1</text>
<circle cx="594.146" cy="15.609" r="2"/>
<circle cx="603" cy="14" r="2"/>
<circle cx="611.855" cy="12.39" r="2"/>
</svg>
