<svg xmlns="http://www.w3.org/2000/svg" width="649.73" height="462.09"><g fill="none" stroke="#00f"><path d="M18 148.09l81 36 189-36-81-36-189 36zm0 162l81-36 189 36-81 36-189-36z"/><path d="M207 112.09l-108 162-81-126v162l81-126 108 162 81-198v162l-81-198zm-189 36l135-135 54 99"/><path d="M99 184.09l54-171 135 135m-270 162l135 135-54-171m108 72l-54 99 135-135m160.081-119.175l50.912-50.912 50.912 50.912-50.912 50.911z"/><path d="M549.91 190.91H448.08l-25.45 76.36L499 241.82l77.07 26.16-26.16-77.07z"/><path d="M499 241.82V139.99l76.36-25.45-25.45 76.37"/><path d="M448.08 190.91l-25.45-76.37v152.73l153.44.71-.71-153.44H422.63L499 139.99"/><path d="M422.63 114.54c-76.37 76.37-127.28 229.1 76.37 229.1s152.73-152.73 76.37-229.1"/><path d="M422.63 267.27L499 343.64l77.07-75.66"/></g><g stroke="#000" fill="#fff"><circle cx="153" cy="13.09" r="5"/><circle cx="18" cy="148.09" r="5"/><circle cx="99" cy="184.09" r="5"/><circle cx="207" cy="112.09" r="5"/><circle cx="288" cy="148.09" r="5"/><circle cx="18" cy="310.09" r="5"/><circle cx="99" cy="274.09" r="5"/><circle cx="288" cy="310.09" r="5"/><circle cx="207" cy="346.09" r="5"/><circle cx="153" cy="445.09" r="5"/><circle cx="498.99" cy="343.64" r="5"/><circle cx="422.63" cy="267.27" r="5"/><circle cx="576.07" cy="267.98" r="5"/><circle cx="499" cy="241.82" r="5"/><circle cx="448.08" cy="190.91" r="5"/><circle cx="498.99" cy="190.91" r="5"/><circle cx="549.91" cy="190.91" r="5"/><circle cx="499" cy="139.99" r="5"/><circle cx="422.63" cy="114.54" r="5"/><circle cx="576.07" cy="114.54" r="5"/></g></svg>