<svg xmlns="http://www.w3.org/2000/svg" width="520" height="232"><g fill="none" stroke="#00f"><path d="M152 152V80H80v72M8 8l72 72m72 0l72-72"/><path d="M80 152c19.88 0 36 16.12 36 36s-16.12 36-36 36H8V8h216v216h-72c-19.88 0-36-16.12-36-36s16.12-36 36-36m216 72c19.88 0 36-16.12 36-36s-16.12-36-36-36c0-19.88-16.12-36-36-36s-36 16.12-36 36v72h72zm144-72c0-19.88-16.12-36-36-36s-36 16.12-36 36c-19.88 0-36 16.12-36 36s16.12 36 36 36h72v-72zm-72-72c0 19.88 16.12 36 36 36s36-16.12 36-36V8H296v72c0 19.88 16.12 36 36 36s36-16.12 36-36h72z"/></g><g fill="#fff" stroke="#000"><circle cx="8" cy="8" r="5"/><circle cx="8" cy="224" r="5"/><circle cx="80" cy="152" r="5"/><circle cx="80" cy="80" r="5"/><circle cx="152" cy="80" r="5"/><circle cx="152" cy="152" r="5"/><circle cx="224" cy="224" r="5"/><circle cx="224" cy="8" r="5"/><circle cx="296" cy="8" r="5"/><circle cx="368" cy="80" r="5"/><circle cx="440" cy="80" r="5"/><circle cx="512" cy="8" r="5"/><circle cx="296" cy="224" r="5"/><circle cx="368" cy="152" r="5"/><circle cx="440" cy="152" r="5"/><circle cx="512" cy="224" r="5"/></g></svg>