<svg xmlns="http://www.w3.org/2000/svg" width="584" height="284.69"><g stroke="#00f" fill="none"><path d="M80.72 256.99l-65.1-112.76 65.1-112.76h130.2l65.1 112.76-65.1 112.76H80.72z"/><path d="M80.72 31.47V181.4l130.2 75.59"/><path d="M15.62 144.23l129.8-74.88 129.25 74.62"/><path d="M210.92 31.47l.07 149.91-130.27 75.61m420.41-112.23c0 21.91-17.76 39.67-39.67 39.67s-39.67-17.76-39.67-39.67 17.76-39.67 39.67-39.67 39.67 17.76 39.67 39.67z"/><path d="M580.46 144.76c0 65.72-53.28 119-119 119s-119-53.28-119-119 53.28-119 119-119 119 53.28 119 119z"/><path d="M540.8 144.76c0 43.82-35.52 79.33-79.33 79.33s-79.33-35.52-79.33-79.33 35.52-79.33 79.33-79.33 79.33 35.52 79.33 79.33zm-113.15 19.52l-69.08 39.89M461.46 25.76v79.34m102.74 98.98l-68.28-39.42"/><path fill="#fff" d="M448.737 66.532l12.728-12.728 12.728 12.728-12.728 12.728z"/><path d="M467.83 60.17c3.51 3.51 3.51 9.21 0 12.73s-9.21 3.52-12.73 0-3.51-9.21 0-12.73 9.21-3.51 12.73 0z" fill="#fff"/><path d="M467.83 60.17c3.51 3.51 3.51 9.21 0 12.73s-9.21 3.52-12.73 0-3.51-9.21 0-12.73 9.21-3.51 12.73 0z"/><path fill="#fff" d="M381.894 190.68l4.659-17.386 17.387 4.659-4.66 17.387z"/><path d="M384.23 182c1.29-4.8 6.22-7.65 11.02-6.36s7.65 6.22 6.37 11.02c-1.29 4.8-6.22 7.65-11.02 6.36s-7.65-6.22-6.36-11.02z" fill="#fff"/><path d="M384.23 182c1.29-4.8 6.22-7.65 11.02-6.36s7.65 6.22 6.37 11.02c-1.29 4.8-6.22 7.65-11.02 6.36s-7.65-6.22-6.36-11.02z"/><path fill="#fff" d="M518.362 178.822l17.387-4.659 4.659 17.387-17.387 4.659z"/><path d="M531.71 193.89c-4.8 1.29-9.74-1.56-11.02-6.36a8.989 8.989 0 0 1 6.37-11.02c4.8-1.29 9.73 1.56 11.02 6.37s-1.56 9.74-6.36 11.02z" fill="#fff"/><path d="M531.71 193.89c-4.8 1.29-9.74-1.56-11.02-6.36a8.989 8.989 0 0 1 6.37-11.02c4.8-1.29 9.73 1.56 11.02 6.37s-1.56 9.74-6.36 11.02z"/></g><path fill="none" stroke="#ccf" d="M145.42 69.35l.4 74.62-65.1 37.43m65.1-37.43l65.17 37.41"/><g fill="#fff" stroke="#000"><circle cx="80.72" cy="31.99" r="4"/><circle cx="210.99" cy="31.49" r="4"/><circle cx="145.42" cy="69.35" r="4"/><circle cx="145.82" cy="143.97" r="4"/><circle cx="80.72" cy="181.4" r="4"/><circle cx="210.99" cy="181.38" r="4"/><circle cx="275.23" cy="144.29" r="4"/><circle cx="210.78" cy="256.49" r="4"/><circle cx="80.72" cy="256.6" r="4"/><circle cx="15.89" cy="143.97" r="4"/><circle cx="461.46" cy="25.76" r="4"/><circle cx="392.3" cy="104.83" r="4"/><circle cx="461.46" cy="105.1" r="4"/><circle cx="427.65" cy="164.28" r="4"/><circle cx="496" cy="163.53" r="4"/><circle cx="358.57" cy="204.17" r="4"/><circle cx="564.2" cy="204.08" r="4"/><circle cx="530.45" cy="104.94" r="4"/><circle cx="461.46" cy="224.1" r="4"/></g><g font-family="Helvetica, Helvetica" font-size="18"><text transform="translate(74.42 19.03)">A</text><text transform="translate(207.42 21.03)">B</text><text transform="translate(282.42 159.03)">C</text><text transform="translate(215.42 274.03)">D</text><text transform="translate(71.42 276.03)">E</text><text transform="translate(.42 153.03)">F</text><text transform="translate(136.42 59.03)">CF</text><text transform="translate(65.42 202.03)">AD</text><text transform="translate(203.42 203.03)">BE</text><text transform="translate(465.5 20.53)">F</text><text transform="translate(533.5 100.03)">AD</text><text transform="translate(364 102.03)">BE</text><text transform="translate(343 218.03)">D</text><text transform="translate(434.5 163.53)">A</text><text transform="translate(457 123.53)">C</text><text transform="translate(480 162.03)">E</text><text transform="translate(565 222.03)">B</text><text transform="translate(457 243.03)">CF</text></g></svg>