<svg xmlns="http://www.w3.org/2000/svg" viewBox="0 0 1098 378"><path d="M225 9h54v72h-54zm90 0h180v72H315zm-90 288h54v72h-54zm90 0h180v72H315z" fill="#DD8EA2"/><path d="M657 9h234v72H657zm0 288h234v72H657z" fill="#FFE07F"/><path d="M891 9h198v72H891zM495 9h162v72H495zM279 9h36v72h-36zM9 9h216v72H9zm882 288h198v72H891zm-396 0h162v72H495zm-216 0h36v72h-36zM9 297h216v72H9z" fill="#7FC0E6"/><path d="M63 9v72M99 9v72m36-72v72m36-72v72m54-72v72m54-72v72m36-72v72M495 9v72M657 9v72M891 9v72m0 216v72m-234-72v72m-162-72v72m-180-72v72m-36-72v72m-54-72v72m162-72v72m198-72v72m198-72v72M351 9v72m36-72v72m36-72v72M567 9v72m36-72v72M711 9v72m36-72v72m54-72v72m54-72v72m72-72v72m45-72v72m45-72v72m36-72v72" fill="none" stroke="#FFF" stroke-width="2"/><g stroke="#000"><g fill="#BC1E46"><circle cx="333" cy="45" r="9"/><circle cx="261" cy="45" r="9"/><circle cx="369" cy="45" r="9"/><circle cx="441" cy="45" r="9"/><circle cx="405" cy="45" r="9"/><circle cx="333" cy="333" r="9"/><circle cx="261" cy="333" r="9"/><circle cx="441" cy="333" r="9"/></g><g fill="#FEC200"><circle cx="693" cy="45" r="9"/><circle cx="729" cy="45" r="9"/><circle cx="765" cy="45" r="9"/><circle cx="837" cy="45" r="9"/><circle cx="873" cy="45" r="9"/><circle cx="693" cy="333" r="9"/><circle cx="873" cy="333" r="9"/></g><g fill="#0081CD"><circle cx="45" cy="45" r="9"/><circle cx="81" cy="45" r="9"/><circle cx="117" cy="45" r="9"/><circle cx="153" cy="45" r="9"/><circle cx="585" cy="45" r="9"/><circle cx="999" cy="45" r="9"/><circle cx="1035" cy="45" r="9"/><circle cx="189" cy="45" r="9"/><circle cx="297" cy="45" r="9"/><circle cx="549" cy="45" r="9"/><circle cx="621" cy="45" r="9"/><circle cx="909" cy="45" r="9"/><circle cx="945" cy="45" r="9"/><circle cx="1071" cy="45" r="9"/><circle cx="189" cy="333" r="9"/><circle cx="297" cy="333" r="9"/><circle cx="549" cy="333" r="9"/><circle cx="621" cy="333" r="9"/><circle cx="909" cy="333" r="9"/></g><circle fill="#FFF" cx="522" cy="189" r="9"/></g><path fill="none" stroke="#000" d="M522 180V96"/><path d="M522 90c1.1 2.8 2.9 6.4 4.8 8.5l-4.8-1.7-4.8 1.7c1.9-2.1 3.7-5.7 4.8-8.5z"/><path fill="none" stroke="#000" d="M522 198v84"/><path d="M522 288c-1.1-2.8-2.9-6.4-4.8-8.5l4.8 1.7 4.8-1.7c-1.9 2.1-3.7 5.7-4.8 8.5z"/><text transform="translate(533.786 198)" font-family="Times,serif" font-size="28">?</text></svg>