<svg xmlns="http://www.w3.org/2000/svg" width="1110" height="722"><g stroke="#000"><g fill="#7FC8A2"><path d="M556.3 361.9l68.4-39.5 68.4 39.5zm0 0l68.4 39.5v79zm68.4-118.5l68.4-39.5 68.4 39.5zm0 0l68.4 39.5v79zm0 237l68.4-39.5 68.4 39.5zm0 0l68.4 39.5v79zm68.4-118.5l68.4-39.5 68.4 39.5zm0 0l68.4 39.5v79zm0-237l68.4-39.5 68.4 39.5zm0 0l68.4 39.5v79zM761.5 6.4l68.4 39.5v79zm0 237l68.4-39.5 68.4 39.5zm0 0l68.4 39.5v79zm68.4-118.5l68.4-39.5 68.5 39.5zm0 0l68.4 39.5v79zm-136.8 474l68.4-39.5 68.4 39.5zm0 0l68.4 39.5v79zm68.4-118.5l68.4-39.5 68.4 39.5zm0 0l68.4 39.5v79zm0 237l68.4-39.5 68.4 39.5zm68.4-118.5l68.4-39.5 68.5 39.5zm0 0l68.4 39.5v79zm0-237l68.4-39.5 68.5 39.5zm0 0l68.4 39.5v79zm68.4-118.5l68.5-39.5 68.4 39.5zm0 0l68.5 39.5v79zm0 237l68.5-39.5 68.4 39.5zm0 0l68.5 39.5v79zm68.5-118.5l68.4-39.5 68.4 39.5zm0 0l68.4 39.5v79zM351 717.4l68.4-39.5 68.5 39.5zm68.4-118.5l68.5-39.5 68.4 39.5zm0 0l68.5 39.5v79zm68.5-118.5l68.4-39.5 68.4 39.5zm0 0l68.4 39.5v79zm0 237l68.4-39.5 68.4 39.5zm68.4-118.5l68.4-39.5 68.4 39.5zm0 0l68.4 39.5v79zm68.4 118.5l68.4-39.5 68.4 39.5zM351 6.4l68.4 39.5v79zm68.4 118.5l68.5-39.5 68.4 39.5zm0 0l68.5 39.5v79zM487.9 6.4l68.4 39.5v79zm0 237l68.4-39.5 68.4 39.5zm0 0l68.4 39.5v79zm68.4-118.5l68.4-39.5 68.4 39.5zm0 0l68.4 39.5v79zM624.7 6.4l68.4 39.5v79zM8.9 361.9l68.5-39.5 68.4 39.5zm0 0l68.5 39.5v79zm68.5-118.5l68.4-39.5 68.4 39.5zm0 0l68.4 39.5v79zm0 237l68.4-39.5 68.4 39.5zm0 0l68.4 39.5v79zm68.4-118.5l68.4-39.5 68.4 39.5zm0 0l68.4 39.5v79zm0-237l68.4-39.5 68.4 39.5zm0 0l68.4 39.5v79zM214.2 6.4l68.4 39.5v79zm0 237l68.4-39.5 68.4 39.5zm0 0l68.4 39.5v79zm68.4-118.5L351 85.4l68.4 39.5zm0 0l68.4 39.5v79zm-136.8 474l68.4-39.5 68.4 39.5zm0 0l68.4 39.5v79zm68.4-118.5l68.4-39.5 68.4 39.5zm0 0l68.4 39.5v79z"/><path d="M214.2 717.4l68.4-39.5 68.4 39.5zm68.4-118.5l68.4-39.5 68.4 39.5zm0 0l68.4 39.5v79zm0-237l68.4-39.5 68.4 39.5zm0 0l68.4 39.5v79zM351 243.4l68.4-39.5 68.5 39.5zm0 0l68.4 39.5v79zm0 237l68.4-39.5 68.5 39.5zm0 0l68.4 39.5v79zm68.4-118.5l68.5-39.5 68.4 39.5zm0 0l68.5 39.5v79z"/></g><g fill="#7FC0E6"><path d="M693.1 361.9l-68.4-39.5v-79zm-68.4 118.5v-79l68.4-39.5zm136.8-237l-68.4-39.5v-79zm-68.4 118.5v-79l68.4-39.5zm68.4 118.5l-68.4-39.5v-79zm-68.4 118.5v-79l68.4-39.5zm136.8-237l-68.4-39.5v-79zm-68.4 118.5v-79l68.4-39.5zm68.4-355.5l-68.4-39.5v-79z"/><path d="M761.5 243.4v-79l68.4-39.5zm68.4-118.5v-79l68.4-39.5zm68.4 118.5l-68.4-39.5v-79z"/><path d="M829.9 361.9v-79l68.4-39.5zm136.9-237l-68.5-39.5v-79zm-68.5 118.5v-79l68.5-39.5zm-68.4 355.5l-68.4-39.5v-79zm-68.4 118.5v-79l68.4-39.5zm136.8-237l-68.4-39.5v-79zm-68.4 118.5v-79l68.4-39.5zm68.4 118.5l-68.4-39.5v-79zm68.5-118.5l-68.5-39.5v-79zm-68.5 118.5v-79l68.5-39.5zm68.5-355.5l-68.5-39.5v-79zm-68.5 118.5v-79l68.5-39.5zm136.9-237l-68.4-39.5v-79zm-68.4 118.5v-79l68.4-39.5zm68.4 118.5l-68.4-39.5v-79zm-68.4 118.5v-79l68.4-39.5z"/><path d="M1103.6 361.9l-68.4-39.5v-79zm-68.4 118.5v-79l68.4-39.5zm-547.3 237l-68.5-39.5v-79zm68.4-118.5l-68.4-39.5v-79zm-68.4 118.5v-79l68.4-39.5zm136.8-237l-68.4-39.5v-79zm-68.4 118.5v-79l68.4-39.5zm68.4 118.5l-68.4-39.5v-79zm68.4-118.5l-68.4-39.5v-79zm-68.4 118.5v-79l68.4-39.5zm136.8 0l-68.4-39.5v-79zM419.4 124.9v-79l68.5-39.5zm136.9 0l-68.4-39.5v-79zm-68.4 118.5v-79l68.4-39.5zm68.4-118.5v-79l68.4-39.5zm68.4 118.5l-68.4-39.5v-79zm-68.4 118.5v-79l68.4-39.5zm136.8-237l-68.4-39.5v-79zm-68.4 118.5v-79l68.4-39.5zm68.4-118.5v-79l68.4-39.5zm-547.3 237l-68.4-39.5v-79zM77.4 480.4v-79l68.4-39.5zm136.8-237l-68.4-39.5v-79zm-68.4 118.5v-79l68.4-39.5zm68.4 118.5l-68.4-39.5v-79zm-68.4 118.5v-79l68.4-39.5zm136.8-237l-68.4-39.5v-79zm-68.4 118.5v-79l68.4-39.5zm68.4-355.5l-68.4-39.5v-79z"/><path d="M214.2 243.4v-79l68.4-39.5zm68.4-118.5v-79L351 6.4zM351 243.4l-68.4-39.5v-79z"/><path d="M282.6 361.9v-79l68.4-39.5zm136.8-237L351 85.4v-79zM351 243.4v-79l68.4-39.5zm-68.4 355.5l-68.4-39.5v-79zm-68.4 118.5v-79l68.4-39.5zm136.8-237l-68.4-39.5v-79zm-68.4 118.5v-79l68.4-39.5zM351 717.4l-68.4-39.5v-79zm68.4-118.5L351 559.4v-79zM351 717.4v-79l68.4-39.5z"/><path d="M419.4 361.9L351 322.4v-79zM351 480.4v-79l68.4-39.5zm136.9-237l-68.5-39.5v-79zm-68.5 118.5v-79l68.5-39.5zm68.5 118.5l-68.5-39.5v-79zm-68.5 118.5v-79l68.5-39.5zm136.9-237l-68.4-39.5v-79zm-68.4 118.5v-79l68.4-39.5z"/></g><g fill="#FFE07F"><path d="M624.7 243.4v79l-68.4 39.5zm68.4 118.5l-68.4 39.5-68.4-39.5zm0-237v79l-68.4 39.5z"/><path d="M761.5 243.4l-68.4 39.5-68.4-39.5zm-68.4 118.5v79l-68.4 39.5zm68.4 118.5l-68.4 39.5-68.4-39.5zm0-237v79l-68.4 39.5zm68.4 118.5l-68.4 39.5-68.4-39.5zM761.5 6.4v79l-68.4 39.5zm68.4 118.5l-68.4 39.5-68.4-39.5zM898.3 6.4l-68.4 39.5-68.4-39.5zm-68.4 118.5v79l-68.4 39.5z"/><path d="M898.3 243.4l-68.4 39.5-68.4-39.5zm0-237v79l-68.4 39.5zm68.5 118.5l-68.5 39.5-68.4-39.5zM761.5 480.4v79l-68.4 39.5zm68.4 118.5l-68.4 39.5-68.4-39.5zm0-237v79l-68.4 39.5zm68.4 118.5l-68.4 39.5-68.4-39.5zm-68.4 118.5v79l-68.4 39.5zm68.4-118.5v79l-68.4 39.5zm68.5 118.5l-68.5 39.5-68.4-39.5zm-68.5-355.5v79l-68.4 39.5zm68.5 118.5l-68.5 39.5-68.4-39.5zm0-237v79l-68.5 39.5zm68.4 118.5l-68.4 39.5-68.5-39.5zm-68.4 118.5v79l-68.5 39.5zm68.4 118.5l-68.4 39.5-68.5-39.5zm0-237v79l-68.4 39.5z"/><path d="M1103.6 361.9l-68.4 39.5-68.4-39.5zm-684.2 237v79L351 717.4zm68.5-118.5v79l-68.5 39.5zm68.4 118.5l-68.4 39.5-68.5-39.5zm0-237v79l-68.4 39.5zm68.4 118.5l-68.4 39.5-68.4-39.5zm-68.4 118.5v79l-68.4 39.5zm68.4-118.5v79l-68.4 39.5zm68.4 118.5l-68.4 39.5-68.4-39.5zm0 0v79l-68.4 39.5zM487.9 6.4l-68.5 39.5L351 6.4zm0 0v79l-68.5 39.5zm68.4 118.5l-68.4 39.5-68.5-39.5zM624.7 6.4l-68.4 39.5-68.4-39.5zm-68.4 118.5v79l-68.4 39.5zm68.4 118.5l-68.4 39.5-68.4-39.5zm0-237v79l-68.4 39.5zm68.4 118.5l-68.4 39.5-68.4-39.5zM761.5 6.4l-68.4 39.5-68.4-39.5zm-684.1 237v79L8.9 361.9zm68.4 118.5l-68.4 39.5-68.5-39.5zm0-237v79l-68.4 39.5z"/><path d="M214.2 243.4l-68.4 39.5-68.4-39.5zm-68.4 118.5v79l-68.4 39.5zm68.4 118.5l-68.4 39.5-68.4-39.5zm0-237v79l-68.4 39.5zm68.4 118.5l-68.4 39.5-68.4-39.5zM214.2 6.4v79l-68.4 39.5zm68.4 118.5l-68.4 39.5-68.4-39.5zM351 6.4l-68.4 39.5-68.4-39.5zm-68.4 118.5v79l-68.4 39.5z"/><path d="M351 243.4l-68.4 39.5-68.4-39.5zm0-237v79l-68.4 39.5zm68.4 118.5L351 164.4l-68.4-39.5zM214.2 480.4v79l-68.4 39.5zm68.4 118.5l-68.4 39.5-68.4-39.5zm0-237v79l-68.4 39.5zM351 480.4l-68.4 39.5-68.4-39.5zm-68.4 118.5v79l-68.4 39.5zM351 480.4v79l-68.4 39.5zm68.4 118.5L351 638.4l-68.4-39.5zM351 243.4v79l-68.4 39.5zm68.4 118.5L351 401.4l-68.4-39.5zm0-237v79L351 243.4z"/><path d="M487.9 243.4l-68.5 39.5-68.4-39.5zm-68.5 118.5v79L351 480.4zm68.5 118.5l-68.5 39.5-68.4-39.5zm0-237v79l-68.5 39.5zm68.4 118.5l-68.4 39.5-68.5-39.5z"/></g></g><path fill="none" stroke="#BC1E46" stroke-width="4" d="M43.2 421.1l974-208.9"/></svg>