<svg xmlns="http://www.w3.org/2000/svg" viewBox="0 0 432 432"><path fill="none" stroke="#000" stroke-width=".75" d="M216 216h63.7m-63.7 0l19.7-60.6M216 216l-51.6-37.5M216 216l-51.6 37.5M216 216l19.7 60.6m97-60.6h-53m53 0c-4.5 13.7-6.7 28-6.7 42.4v2.9m6.7-45.3c10.4 7.6 21.5 14.2 33.1 19.9m0-39.8c-11.6 5.7-22.7 12.3-33.1 19.9"/><path fill="none" stroke="#000" stroke-width=".75" d="M326.1 170.7v2.9c0 14.4 2.3 28.7 6.7 42.4M206.9 97.3c14.5 5.1 29.8 7.6 45.2 7.6m0 .1l-16.4 50.4m16.4-50.4c12.4 9 26.3 15.9 41 20.4m-41-20.4c10.4-7.6 20.2-16.1 29.1-25.3m-37.8-12.3c1.8 12.8 4.7 25.4 8.7 37.6m-169 39c12.7 2.2 25.6 3.4 38.5 3.4M100.3 188c9.3-12.2 16.5-26 21.2-40.6m.1 0l42.8 31.1m-42.8-31.1c12.4-9 23.3-20.1 32.1-32.7m-32.1 32.7c-4-12.3-9-24.2-15.1-35.5m15.1 172.7c-12.9 0-25.8 1.1-38.5 3.4m23.4 32.2c6-11.4 11.1-23.3 15.1-35.5m32 32.7c-8.8-12.6-19.6-23.7-32.1-32.7m.1-.1l42.8-31.1m-42.8 31.1c-4.8-14.6-11.9-28.4-21.2-40.6m151.7 83c-15.4 0-30.7 2.6-45.2 7.6m45.2-7.6c-4 12.3-6.9 24.9-8.7 37.6m37.8-12.3c-9-9.3-18.7-17.7-29.1-25.3m41-20.3c-14.7 4.4-28.6 11.3-41 20.4m0-.1l-16.4-50.4m125.1 10.9c-10.1 2.7-19.6 7.2-28.1 13.4m-6.6-39.6c.3 13.4 2.5 26.7 6.7 39.5m-.1 0c-13.4 0-26.8 2-39.6 5.8m39.6-5.8c-2.8 8.5-4.2 17.3-4.2 26.2 0 1.5 0 3.1.1 4.6m4.1-30.8l22.6 16.4m49.1-74.5c-5.1.5-10.2 1.6-15.2 3m5.4-18.4c-3.3 5.6-5.1 11.9-5.3 18.4m-23.5-9.8c7.6 3.7 15.4 7 23.4 9.8m.1 0c-4.3 5.6-7.2 12.3-8.2 19.3m8.2-19.3c3 4.4 6.8 8.4 11 11.6m-11-71c5 1.5 10 2.5 15.2 3m-4.3-14.7c-4.2 3.3-7.9 7.2-11 11.6M381 167c1.1 7 3.9 13.6 8.2 19.3m.1 0c-8 2.8-15.8 6.1-23.4 9.8m23.4-9.8c.2 6.5 2 12.8 5.3 18.4m-61.9-73.5c8.5 6.1 18 10.7 28.1 13.4m-28.1-13.4l22.6-16.4m-26.6-14.4c-.1 1.5-.1 3.1-.1 4.6 0 8.9 1.4 17.7 4.2 26.2m-39.7-5.9c12.8 3.9 26.2 5.8 39.6 5.8m0 .1c-4.1 12.8-6.4 26.1-6.7 39.5M297.8 60.4c5.1-1.5 10-3.8 14.5-6.8M299.6 45c-1.1 5.1-1.7 10.2-1.8 15.4m-15.9-10.7c4.3 4.9 9.7 8.6 15.9 10.7m-16.6 19.3c5.9-6.1 11.4-12.5 16.6-19.3m0 0c4 5.8 9.5 10.6 15.8 13.8M241.3 42c3.5 1 7.1 1.6 10.8 1.6 2.8 0 5.6-.3 8.4-.9m-19.2-.7c2.9-4.3 5.5-8.8 7.6-13.5m-15.3-.5c1.8 5 4.4 9.8 7.7 14m-20.9 1.9c2.2.4 4.5.5 6.7.5 4.8 0 9.6-.8 14.1-2.4m.1 0c.2 8.5.9 16.9 2.1 25.3m-72 11.5c10.9 7.9 22.8 14.1 35.5 18.6m-35.5-18.6c8.5-6.1 15.7-13.8 21.4-22.6m-21.4 22.6l-8.6-26.5m-21.9 20.8c9.7 3.8 20.1 5.7 30.6 5.7m-17.9 35.8c7.7-11 13.7-23.1 17.8-35.9M93.3 90.1c6.8-2 13-5.7 18-10.7m-18 10.7v-1.3c0-4.9-.7-9.8-2.1-14.5m-12 9.4c4.5 2.6 9.2 4.7 14.1 6.5m-15.1 11.7c6-2.6 11.2-6.6 15.1-11.8m13.2 21.7c-4-7.5-8.4-14.7-13.2-21.7m-34.9 48.1c8.1 2.4 16.4 4.4 24.7 5.8m-24.7-5.8c3.7-5.3 5.9-11.5 6.5-18m-6.5 18c-3.1-4.1-6.7-7.9-10.5-11.4m-5.3 14.4c5.4-.2 10.7-1.2 15.7-3"/><path fill="none" stroke="#000" stroke-width=".75" d="M53.7 158.6c3.1-6 4.7-12.6 4.7-19.4v-1.1M100.3 244c-8.1-10.7-17.8-20.1-28.6-28m0 0c10.9-7.9 20.5-17.3 28.6-28m-28.6 28c-3.2-9.9-8.3-19.2-14.9-27.3M71.7 216H43.9m12.9 27.3c6.6-8.1 11.6-17.4 14.9-27.3m11.4 72c-8.3 1.5-16.6 3.4-24.7 5.8M58.4 293.8v-1.1c0-6.7-1.6-13.4-4.7-19.4m4.7 20.5c-5.1-1.8-10.4-2.8-15.7-3m5.2 14.4c3.8-3.5 7.3-7.3 10.5-11.4m6.5 18c-.6-6.5-2.8-12.7-6.5-18m52.9 58.8c-5-5-11.2-8.7-18-10.7m0 0c4.8-7 9.2-14.2 13.2-21.7m-13.2 21.7c-3.9-5.2-9.2-9.2-15.1-11.8m15.1 11.8c-4.9 1.7-9.6 3.9-14.1 6.5m12.1 9.4c1.4-4.7 2.1-9.6 2.1-14.5V342m99.4 33.8c-5.7-8.8-12.9-16.4-21.4-22.6m35.5-18.5c-12.7 4.4-24.6 10.7-35.5 18.6m0-.1c-4.1-12.8-10.1-24.9-17.8-35.9m17.8 35.9c-10.4 0-20.8 1.9-30.6 5.7m30.6-5.7l-8.6 26.5m97.6 9.6c-2.7-.6-5.5-.9-8.4-.9-3.7 0-7.3.5-10.8 1.6m2.2-25.4c-1.2 8.4-1.9 16.8-2.1 25.3"/><path fill="none" stroke="#000" stroke-width=".75" d="M241.3 390c-4.5-1.6-9.3-2.4-14.1-2.4-2.3 0-4.5.2-6.7.5m20.8 1.9c-3.3 4.3-5.9 9-7.7 14m15.3-.5c-2.1-4.7-4.6-9.2-7.6-13.5m71-11.6c-4.4-3-9.3-5.3-14.5-6.8m15.8-13.8c-6.3 3.2-11.8 7.9-15.8 13.8m0 0c-5.2-6.7-10.7-13.2-16.6-19.3m16.6 19.3c-6.1 2.2-11.6 5.9-15.9 10.7m15.9-10.7c.1 5.2.7 10.3 1.8 15.4m33.1-33.8c-1.2 3.8-1.9 7.7-1.9 11.7 0 .9 0 1.8.1 2.7m12.3-6c-3.3-3-6.8-5.8-10.5-8.4m14.9-5.9c-5.4.7-10.5 2.7-14.9 5.9m-4-21.6c.4 7.3 1.8 14.6 4 21.6m0 0c-6.7 0-13.2 1.6-19.1 4.6m55.2-30.8c-3.5 2.6-6.3 6-7.9 10.1m7.9-10.1c1 3.1 2.5 6.1 4.3 8.9m5.5-7.6c-3.2-.9-6.5-1.3-9.8-1.3m7.1-10.6c-3.3 2.8-5.8 6.5-7.1 10.6m0 0l-13.5-9.8m27.3-32.6c-7.4 0-14.7 1-21.8 2.8m21.8-2.8c-1.1 3.2-1.6 6.6-1.6 10 0 2 .2 4 .5 5.9m1.1-15.9c3.6 2.6 7.4 5.1 11.2 7.3m2-13.4c-4.7 1.2-9.2 3.3-13.2 6.1M381 265c-.3 2.2-.5 4.3-.5 6.5 0 4.5.7 8.9 2.1 13.1m25.9-22c-1.9 1.9-3.3 4.3-3.9 7m3.9-7c.9 1.8 2.1 3.3 3.5 4.7m2-5.1h-.6c-1.7 0-3.3.1-4.9.4m2.9-6.2c-1.6 1.8-2.6 3.9-3 6.3m-8.2-5.3c2.6 2 5.3 3.8 8.2 5.2m5-20.4c-3 0-6 .2-9 .5m9-.5c-.4 1.1-.6 2.3-.6 3.5 0 1 .1 2 .4 3m.2-6.5c1.4 1 2.9 1.9 4.4 2.5m.3-4.8c-1.7.5-3.3 1.3-4.7 2.4m-.2-7.1c-.3 1-.4 2.1-.4 3.2 0 1.3.2 2.6.6 3.8m-18.8-37.5c2.6 4.4 6.1 8.3 10.3 11.3m0 0c-4.2 3-7.7 6.9-10.3 11.3m10.3-11.3c1.1 3.5 3.1 6.7 5.7 9.3m-5.7-9.3h9.5m-3.8-9.3c-2.6 2.6-4.6 5.8-5.7 9.3m-.5-26.7c3 .3 6 .5 9 .5m0 0c-.4 1.2-.6 2.5-.6 3.8 0 1.1.1 2.2.4 3.2m.2-7c1.4 1 3 1.8 4.7 2.4m-.3-4.9c-1.6.7-3 1.5-4.4 2.5m-.2-6.5c-.3 1-.4 2-.4 3 0 1.2.2 2.4.6 3.5m-8.8-27.4c.6 2.6 2 5.1 3.9 7m0 0c-2.9 1.5-5.6 3.2-8.2 5.2m8.2-5.2c.4 2.3 1.4 4.5 3 6.3m-3-6.3c1.6.3 3.3.4 4.9.4h.6m-2-5.1c-1.5 1.3-2.7 2.9-3.5 4.7m-26.9-38c-.4 2-.5 3.9-.5 5.9 0 3.4.5 6.8 1.6 10m-21.9-2.8c7.1 1.9 14.4 2.8 21.8 2.8m0 .1c-1.4 4.2-2.1 8.7-2.1 13.1 0 2.2.2 4.4.5 6.5m1.6-19.6c4 2.9 8.4 5 13.2 6.1m-2-13.5c-3.9 2.3-7.6 4.7-11.2 7.3m-21.7-52.4c1.7 4 4.4 7.5 7.9 10.1m0 0l-13.5 9.8m13.5-9.8c1.3 4.1 3.8 7.8 7.1 10.6m-7.1-10.6c3.3 0 6.6-.4 9.8-1.3m-5.5-7.6c-1.8 2.8-3.2 5.8-4.3 8.9M331 64.3c-.1.9-.1 1.8-.1 2.7 0 4 .6 7.9 1.9 11.7m-19.2-4.5c5.9 3 12.5 4.6 19.1 4.6m0 0c-2.3 7-3.6 14.3-4 21.6m4-21.6c4.4 3.2 9.5 5.2 14.9 5.9m-14.9-5.9c3.6-2.6 7.1-5.4 10.5-8.4m-30.9-16.8c2.7-1.8 5.2-3.9 7.5-6.2m0 0c1.2 2.4 3.1 4.5 5.4 5.9m-5.4-5.9c1.9-.3 3.8-1 5.5-1.9m-4.1-3.5c-.6 1.8-1.1 3.6-1.4 5.4m-5-4.8c1.2 2 2.9 3.7 5 4.8m-24.6-13c2 1.3 4.4 2 6.7 2m0 0c-.9 2.8-1.7 5.7-2.3 8.7m2.3-8.7c1.8 1.3 3.9 2 6.1 2.2m-6.1-2.2c1.4-1 2.6-2.2 3.8-3.4"/><path fill="none" stroke="#000" stroke-width=".75" d="M301.1 31.2v.2c0 1.7.3 3.4.8 5m-34.6-8.3c1.7 3.3 4.1 6.1 7.1 8.3m-14 6.3c5-1.1 9.8-3.3 13.9-6.3m.1 0c1.6 4.9 4.2 9.4 7.6 13.3m-7.6-13.3c3.7 0 7.3-.9 10.6-2.5m-10.6 2.5l2.9-9.1m-31.5-9c1.8 1.2 4 1.9 6.2 1.9m-3.1 8.3c1.2-2.7 2.3-5.5 3.2-8.4m0 .1c1.9 1.4 4.2 2.2 6.6 2.3m-6.6-2.3c1.4-1 2.7-2.3 3.7-3.7m-4.8-1.3c.2 1.7.5 3.4 1 5m-24.2-6.5c.8 1.8 1.9 3.4 3.3 4.8m-7.8 1.6c.4 0 .8.1 1.2.1 2.3 0 4.6-.6 6.6-1.6m0 0c.5 3.2 1.3 6.4 2.4 9.4m-2.4-9.4c.6.1 1.3.1 1.9.1 1.7 0 3.4-.4 5-1m-6.9.9c.8-1.7 1.5-3.4 2.1-5.2m-34.5 10c1 4.4 2.1 8.7 3.5 12.9m-15.5-3.9c4.8 2.6 10.1 3.9 15.5 3.9m-9.4 19.9c4-6.2 7.2-12.8 9.4-19.8m0 0c5.4 3.9 11.6 6.5 18.2 7.6m-18.2-7.6c4-2.9 7.3-6.5 9.9-10.6m-61.6 3.8c2.1 2.6 4.5 4.9 7.2 6.8m-12.1 4.4c4.3-.3 8.5-1.9 12-4.4m0 0l5.2 15.9m-5.2-15.9c4.3 0 8.6-1.2 12.3-3.5m-12.3 3.5c1-3.1 1.6-6.4 1.8-9.7m-37.8 35.9c-1.4-4.3-3-8.4-4.8-12.5m-9.5 9.7c4.5 1.8 9.4 2.8 14.3 2.8m-10.3 16.8c4.7-4.7 8.2-10.5 10.3-16.8m0 0c6 4.3 12.4 7.9 19.3 10.5m-19.3-10.5c4.4-3.2 7.9-7.4 10.2-12.3M81.6 68.5c2.3-.5 4.4-1.6 6.1-3.3m3.6 9c-.9-3.1-2.1-6.2-3.6-9.1m0 .1c2.7-.4 5.2-1.6 7.3-3.3"/><path fill="none" stroke="#000" stroke-width=".75" d="M87.7 65.2c.1-.9.2-1.7.2-2.6 0-1.1-.1-2.2-.3-3.3M83 62.2c1.5 1.1 3.1 2.1 4.7 3M66.5 77.9c1.7.6 3.4.8 5.2.8m-4 5.9c1.9-1.5 3.2-3.5 4-5.8m0 0c2.4 1.8 4.9 3.4 7.5 4.9m-7.5-4.9c1.8-1.3 3.2-3.1 3.9-5.2m-3.9 5.2c-.5-1.6-1.2-3.2-2.1-4.6M63.2 105l-7.7-5.6m-2.4 9.8c3.6-.6 7.1-2 10.1-4.2m1.7 15.2c.1-1.2.2-2.3.2-3.5 0-4-.6-7.9-1.9-11.7m0 0c5.2 0 10.3-1.1 15-3.1m-15 3.1c.8-2.3 1.1-4.8 1.1-7.2 0-1.2-.1-2.4-.3-3.6m-28.2 26.4c1.7.4 3.4.6 5.1.6m-3.7 5.3c1.7-1.4 3-3.2 3.7-5.3m7 5.6c-2.2-2-4.6-3.9-7-5.7m0 .1c1.9-1.4 3.4-3.3 4.3-5.6m-4.3 5.6c-.5-1.7-1.4-3.2-2.4-4.7m-5.6 24.1c-1.3-1.3-2.7-2.5-4.3-3.6m-1.3 5.3c2-.2 3.9-.8 5.6-1.7"/><path fill="none" stroke="#000" stroke-width=".75" d="M32 148.5c.7-1.8 1.1-3.7 1.1-5.6 0-.8-.1-1.6-.2-2.3m0 0c2.6.4 5.3.6 8 .6h1.7m-9.7-.6c.9-1.7 1.3-3.6 1.3-5.6 0-.4 0-.8-.1-1.2m6.8 39.8c-1.5-4.6-3.9-9-7.1-12.7m-6.3 12c4.5.4 8.9.7 13.4.7m-8.5 13.5c3.9-3.7 6.9-8.4 8.5-13.5m15.9 15.1c-4.6-5.7-10-10.8-16-15.1m.1 0c5.4-3.9 9.8-9 12.8-15M27.1 216c-2.7-1.9-5.6-3.5-8.7-4.7m0 9.4c3.1-1.2 6-2.8 8.7-4.7m.5 12.8c.4-1.8.7-3.7.7-5.5 0-2.5-.4-4.9-1.1-7.2m-.1-.1h16.8m-16.8 0c.8-2.3 1.1-4.8 1.1-7.2 0-1.9-.2-3.7-.7-5.5m13.4 55.1c-1.7-5.1-4.6-9.8-8.5-13.5m8.5 13.5c-4.5 0-8.9.2-13.4.7m6.3 12c3.1-3.7 5.5-8.1 7.1-12.7m12.8 15c-3-5.9-7.4-11-12.8-15m0 0c6-4.3 11.3-9.4 16-15.1M28.6 295c1.5-1.1 3-2.3 4.3-3.6m1.3 6.8c0-.4.1-.8.1-1.2 0-1.9-.5-3.8-1.3-5.6m9.6-.6h-1.7c-2.7 0-5.3.2-8 .6m0 0c.1-.8.2-1.5.2-2.3 0-1.9-.4-3.8-1.1-5.6m.9 7.9c-1.8-.9-3.7-1.5-5.6-1.7m13.6 21.1c-1.7 0-3.4.2-5.1.6m2.7 4.1c1.1-1.4 1.9-3 2.4-4.7m4.3 5.6c-.9-2.2-2.3-4.2-4.3-5.6m0 0c2.4-1.8 4.8-3.6 7-5.7m-7 5.7c-.7-2.1-2-4-3.7-5.3m26 21.5c-3-2.2-6.4-3.6-10.1-4.2m10.1 4.2l-7.7 5.6m8.6 5.3c.2-1.2.3-2.4.3-3.6 0-2.5-.4-4.9-1.1-7.2m14.9 3c-4.7-2-9.8-3.1-15-3.1m0 0c1.2-3.8 1.9-7.7 1.9-11.7 0-1.2-.1-2.3-.2-3.5m6.8 41.4c-1.8 0-3.5.3-5.2.8m3.1 3.9c.9-1.5 1.6-3 2.1-4.6m3.9 5.1c-.8-2.1-2.2-3.9-3.9-5.2m7.5-4.9c-2.6 1.5-5.1 3.1-7.5 4.9m0 0c-.7-2.3-2.1-4.3-4-5.8m20 19.4c-1.7-1.7-3.8-2.8-6.1-3.3m6.1 3.3c-1.7.8-3.2 1.8-4.7 3M87.6 372.7c.2-1.1.3-2.2.3-3.3 0-.9-.1-1.7-.2-2.6m7.2 3.4c-2.1-1.8-4.6-2.9-7.3-3.3m.1-.1c1.5-2.9 2.7-5.9 3.6-9.1m30.3 11.7c-2.1-6.3-5.6-12.1-10.3-16.8m10.3 16.8c-4.9 0-9.7.9-14.3 2.8m9.5 9.8c1.8-4.1 3.4-8.3 4.8-12.5m10.2 12.2c-2.3-4.9-5.8-9.1-10.2-12.3m19.3-10.5c-6.9 2.6-13.4 6.2-19.3 10.5m36 26.2c-3.5-2.6-7.7-4.1-12-4.4m12 4.4c-2.7 1.9-5.1 4.2-7.2 6.8m9 3c-.2-3.3-.8-6.6-1.8-9.7m12.3 3.4c-3.7-2.3-8-3.5-12.3-3.5m0 0l5.2-15.9m39.4 15.9c-2.3-7-5.4-13.7-9.4-19.8m9.4 19.8c-5.4 0-10.7 1.4-15.5 3.9m15.5-3.9c-1.4 4.3-2.6 8.6-3.5 12.9m13.4-2.2c-2.6-4.1-5.9-7.8-9.9-10.6m18.2-7.6c-6.6 1.1-12.8 3.6-18.2 7.6m28.9 17.7c-1.4 1.4-2.5 3-3.3 4.8m5.4.4c-.5-1.8-1.2-3.5-2.1-5.2m6.9.9c-1.6-.7-3.3-1-5-1-.6 0-1.3 0-1.9.1m2.5-9.4c-1.1 3.1-1.9 6.2-2.4 9.4m-.1 0c-2.1-1.1-4.3-1.6-6.6-1.6h-1.2m28.8 0c-2.2 0-4.4.6-6.2 1.9m6.2-1.9c-.5 1.6-.9 3.3-1 5m4.7-1.2c-1-1.4-2.3-2.7-3.7-3.7m6.6-2.4c-2.4.1-4.7.9-6.6 2.3m0 0c-.9-2.8-2-5.6-3.2-8.4m25.5-7.8c-4.2-3-8.9-5.2-13.9-6.3m13.9 6.3c-3 2.2-5.4 5-7.1 8.3m7.1-8.3l2.9 9.1m7.7-6.5c-3.3-1.7-6.9-2.5-10.6-2.5m7.5-13.4c-3.4 3.9-6 8.4-7.6 13.3m27.6 0c-2.4 0-4.7.7-6.7 2m6.7-2c-.5 1.6-.8 3.3-.8 5v.2m4.6-1.7c-1.1-1.3-2.4-2.4-3.8-3.4m6.2-2.2c-2.2.1-4.3.9-6.1 2.2m-2.4-8.7c.6 2.9 1.4 5.8 2.3 8.7m17.9-11.1c-2.3-2.3-4.8-4.4-7.5-6.2m7.5 6.2c-2.1 1.1-3.8 2.7-5 4.8m5-4.8c.3 1.8.8 3.6 1.4 5.4m4.1-3.4c-1.7-1-3.6-1.6-5.5-1.9m5.4-5.9c-2.3 1.4-4.2 3.4-5.4 5.9m11.2-17c.2 3.1.8 6.1 1.8 9m-.1 0c-2.6 0-5.2.7-7.5 2.1m7.5-2.1c-.5 1.4-.7 3-.7 4.5v1.1m4.8-2.2c-1.3-1.2-2.6-2.4-4-3.4m6-2.2c-2.2.2-4.3.9-6.1 2.2m20-14.1c-1.7 1-3.1 2.4-4 4.2m0 0c-1.8-1.8-3.6-3.5-5.5-5.2m5.5 5.2c-1.7.9-3.1 2.2-4 3.9m4-3.9c.2 1.4.6 2.8 1.2 4.1m3-2.8c-1.3-.6-2.7-1.1-4.2-1.3m18.2-20.2h-.9c-2.3 0-4.6.5-6.7 1.4m1.6-10.9c-1.2 2.8-1.8 5.9-1.8 8.9 0 .6 0 1.3.1 1.9m0 0c-2.4-.6-4.9-.9-7.4-.9-1.4 0-2.8.1-4.2.3m11.6.6c-1.4 2.4-2.3 5.1-2.3 7.9m2.3-7.9c1.5 1.8 3.1 3.5 4.7 5.2m15.6-15.4c-1.2.6-2.3 1.6-3 2.8m-3.4-4.6c1 1.6 2.2 3.1 3.5 4.6m-.1 0c-1.4.6-2.6 1.6-3.5 2.9m3.5-2.9c.1 1.1.4 2.2.9 3.2m2.2-2.2c-1-.4-2-.8-3.1-1m10.9-10.4c-.4-.1-.9-.1-1.3-.1-.7 0-1.4.1-2.1.2m1.8-4.2c-1 1.2-1.6 2.7-1.7 4.2m-.1 0c-1.8-.8-3.6-1.4-5.4-1.9m5.4 1.9c-.9 1-1.5 2.3-1.7 3.7m1.7-3.7c.5.9 1.2 1.8 1.9 2.6m6.2-18.5c-2.1-1-4.2-2-6.4-2.9m6.8-4.6c-2.6.9-4.9 2.6-6.7 4.7m-4.2-10.9c.7 3.8 2.1 7.5 4.2 10.9m-.1 0c-3.6.9-7 2.5-9.8 4.9m9.8-4.9c0 .5-.1 1-.1 1.4 0 2.1.4 4.3 1.2 6.3m18-23.7c-.5-.1-1.1-.1-1.6-.1-.9 0-1.8.1-2.7.2m2.4-5c-1.3 1.4-2.1 3.1-2.4 5m-6.7-3.6c2.2 1.3 4.4 2.5 6.7 3.7m0-.1c-1.4 1.4-2.4 3.2-2.8 5.1m2.8-5.1c.7 1.3 1.5 2.5 2.5 3.6m1.9-21.8c1.4 1 2.9 2 4.5 2.8m.6-5.2c-1.8.4-3.6 1.2-5.1 2.4"/><path fill="none" stroke="#000" stroke-width=".75" d="M404.6 269.6c-.3 1.1-.4 2.2-.4 3.3 0 1.5.2 3 .7 4.5m0 0c-3.1 0-6.1.4-9.1 1.1m9.1-1.1c-.4 1.2-.6 2.4-.6 3.6 0 1 .1 1.9.3 2.8m11.4-16.6c-.6.6-1 1.3-1.2 2.1m-2.8-2c.9.8 1.8 1.5 2.8 2.1m0-.1c-.7.7-1.2 1.5-1.5 2.4m1.5-2.4c.3.6.7 1.2 1.2 1.7m.8-1.7h-.7c-.4 0-.8 0-1.2.1m3.8-7.6c-.6.1-1.1.3-1.7.6"/><path fill="none" stroke="#000" stroke-width=".75" d="M417.3 260.1c-.2.5-.3 1-.3 1.6 0 .3 0 .5.1.8m0-.1c-1-.1-2.1-.2-3.1-.2"/><path fill="none" stroke="#000" stroke-width=".75" d="M417.1 262.4c-.2.5-.3 1-.3 1.5 0 .2 0 .4.1.6m.2-2.1c.4.4.9.7 1.4 1m-2.8-10.1c1 .2 2.1.4 3.1.7m-.6-3.3c-1 .6-1.9 1.5-2.5 2.6m-2.5-4.6c.5 1.7 1.3 3.2 2.5 4.6m0 0c-1.6.7-3.1 1.8-4.3 3.1m4.3-3.1c.1 1.2.6 2.4 1.3 3.4m5-11.3c-.5.1-1 .2-1.5.4m.6-2c-.4.6-.6 1.2-.6 1.9v.1m-2.7-1.1c.9.4 1.8.7 2.7 1m0 0c-.4.6-.7 1.4-.7 2.1m.7-2.1c.3.4.7.8 1.2 1.1m-.6-7.6c.5.3 1 .5 1.5.7m0-1.6c-.6.2-1.1.5-1.5.9m-.4-2.4c0 .2-.1.4-.1.7 0 .6.1 1.2.4 1.8m.1-.1c-1 .1-2 .3-3 .6"/><path fill="none" stroke="#000" stroke-width=".75" d="M421.1 239.2c0 .2-.1.5-.1.7 0 .5.1 1 .3 1.4m-4.8-11.7c.7 1.4 1.7 2.6 2.9 3.6m1.2-4c-1.4.1-2.8.2-4.2.4m2.2-4.6c-1.1 1.3-1.9 2.9-2.1 4.6m-5.9-4.3c1.7 1.7 3.7 3.2 5.9 4.3m0 0c-1.6 1.5-2.7 3.5-3.2 5.6m6.4-19.2c.8.6 1.7 1.1 2.6 1.4m.1-2.8c-.9.3-1.8.8-2.6 1.4m-.1-3.9c-.2.6-.3 1.2-.3 1.9s.1 1.4.3 2.1m0-.1h-5.3"/><path fill="none" stroke="#000" stroke-width=".75" d="M419.7 216c-.2.7-.3 1.4-.3 2.1 0 .6.1 1.3.3 1.9m-3.2-17.6c.3 1.7 1 3.3 2.1 4.6m-2.1-4.6c1.4.2 2.8.4 4.2.4m-1.4-4c-1.2 1-2.2 2.2-2.9 3.6m-3.2-5.6c.6 2.1 1.7 4 3.2 5.6m.1 0c-2.2 1.1-4.1 2.6-5.9 4.3m12-14.6c-.5.2-1.1.4-1.5.7m.2-2.1c-.2.4-.3.9-.3 1.4 0 .2 0 .5.1.7m-3-.7c1 .3 2 .5 3 .6m0 .1c-.3.6-.4 1.2-.4 1.8 0 .2 0 .4.1.7m.3-2.5c.4.4 1 .7 1.5.9m-2.1-7.4c.5.2 1 .3 1.5.4m-.3-1.5c-.5.3-.9.7-1.2 1.1m-.7-2.1c0 .8.2 1.5.7 2.1m0 0c-.9.3-1.8.6-2.7 1m2.7-1c0 .7.2 1.4.5 1.9m-5.3-9.5c.6 1.1 1.5 1.9 2.5 2.6m.6-3.2c-1 .2-2.1.4-3.1.7m1.3-3.5c-.7 1-1.1 2.2-1.3 3.4m-4.3-3.1c1.2 1.3 2.6 2.4 4.3 3.1m0 0c-1.2 1.3-2 2.9-2.5 4.6m3.9-13.7c.5.3 1.1.5 1.7.6m-.3-1.6c-.5.3-1 .6-1.4 1m-.3-2.2c0 .2-.1.4-.1.6 0 .5.1 1.1.3 1.5m-3 .3c1 0 2.1-.1 3.1-.2"/><path fill="none" stroke="#000" stroke-width=".75" d="M417.1 169.6c-.1.3-.1.5-.1.8 0 .5.1 1.1.3 1.6m-2.5-9.3c.2.8.6 1.5 1.2 2.1m-1.2-2.1c.4 0 .8.1 1.2.1h.7m-.7-1.8c-.5.5-.9 1.1-1.2 1.7m-1.5-2.5c.2.9.8 1.8 1.5 2.4m0 .1c-1 .6-2 1.3-2.8 2.1m-7.1-10.2c-.5 1.4-.7 3-.7 4.5 0 1.1.1 2.2.4 3.3m.3-7.8c1.5 1.1 3.3 1.9 5.1 2.4m-.6-5.2c-1.6.8-3 1.8-4.5 2.8"/><path fill="none" stroke="#000" stroke-width=".75" d="M404.7 148.2c-.2.9-.3 1.9-.3 2.8 0 1.2.2 2.5.6 3.6m-9.2-1.1c3 .7 6 1.1 9.1 1.1m-4.4-18.2c.3 1.9 1.2 3.6 2.4 5m-2.4-5c.9.1 1.8.2 2.7.2.5 0 1.1 0 1.6-.1m-1.8-3.7c-1 1.1-1.9 2.2-2.5 3.6m-2.8-5.1c.4 1.9 1.4 3.7 2.8 5.1m0 0c-2.3 1.2-4.5 2.4-6.7 3.7m-8.1-19.6c-2 3.3-3.4 7-4.2 10.9m4.2-10.9c1.8 2.1 4.1 3.7 6.7 4.7m-6.7-4.7c2.1-.9 4.3-1.9 6.4-2.9M386.8 112.8c-.8 2-1.2 4.1-1.2 6.3 0 .5 0 1 .1 1.4m-9.8-4.9c2.8 2.4 6.2 4.1 9.8 4.9m-1.7-18.7c.7.1 1.4.2 2.1.2.4 0 .9 0 1.3-.1m-1.5-2.7c-.7.8-1.3 1.7-1.9 2.6m-1.7-3.7c.2 1.4.8 2.7 1.7 3.7m-5.4 1.9c1.8-.5 3.7-1.1 5.4-1.9m0 0c.2 1.5.8 3 1.7 4.2m-9.2-14.5c.7 1.2 1.7 2.2 3 2.8m-3-2.8c1-.2 2.1-.6 3.1-1m-2.2-2.2c-.5 1-.8 2.1-.9 3.2m-3.4-3c.8 1.3 2 2.3 3.5 2.9m-.1.1c-1.3 1.4-2.4 3-3.5 4.6m-13.8-12c-.1.6-.1 1.3-.1 1.9 0 3.1.6 6.1 1.8 8.9m-1.7-10.8c2.1.9 4.4 1.4 6.7 1.4h.9m-2.9-6.6c-1.6 1.7-3.2 3.4-4.7 5.2m-2.3-7.9c.1 2.8.9 5.5 2.3 7.9M347.6 84.7c1.4.2 2.8.3 4.2.3 2.5 0 5-.3 7.4-.9m-10.5-18.9c.9 1.8 2.3 3.2 4 4.2m-4-4.2c1.4-.2 2.8-.7 4.2-1.3m-3-2.9c-.6 1.3-1 2.7-1.2 4.1m-4-3.8c.9 1.7 2.3 3 4 3.9m-5.5 5.2c1.9-1.7 3.7-3.4 5.5-5.2m-16-9.9c-1 2.9-1.5 6-1.8 9m1.8-9c1.8 1.3 3.9 2.1 6.1 2.2m-6.1-2.2c1.4-1 2.8-2.2 4-3.4"/><path fill="none" stroke="#000" stroke-width=".75" d="M332.1 49.7v1.1c0 1.5.2 3 .7 4.5m-7.6-2.1c2.3 1.4 4.9 2.1 7.5 2.1m-4-13.8c-.2.6-.4 1.2-.6 1.9m-1.6-1.8c.4.7.9 1.4 1.7 1.8m-2.9 2c1-.6 2-1.3 2.8-2m.1 0c.4.9 1 1.6 1.9 2.2m-1.9-2.2c.7-.1 1.4-.3 2-.6m-7.9-3.7c.5-.3 1-.6 1.4-1m-1.5-.8v.7c0 .4 0 .7.1 1.1m-2.2-1c.6.5 1.4.9 2.2 1m0 0c-.4.9-.8 1.9-1.1 2.9m1.1-2.9c.6.5 1.3.8 2 .9m-11.2-2.4c.5.1 1 .2 1.6.2.7 0 1.4-.1 2.1-.3m-3.7.1c.5-.9 1.1-1.8 1.6-2.7m-3.2-.5c.3 1.2.9 2.3 1.7 3.2"/><path fill="none" stroke="#000" stroke-width=".75" d="M308.1 38.5h.5c1.6 0 3.1-.3 4.6-1m-.1.1c.2 1.8.7 3.5 1.6 5m-7.2-11.9c.5-.2 1-.5 1.4-.8m-1.3-.8c-.1.5-.1.9-.1 1.4v.2m-1.7-1.1c.4.5 1 .9 1.7 1.1m-1.8 2.2c.6-.7 1.2-1.5 1.8-2.2m0 0c.5.6 1.1 1 1.8 1.3m-7.8-3.9c.5.3 1.2.5 1.8.5h.3m-2.1-.5c.4-.4.8-.8 1.1-1.3m-1.6-.4c0 .6.2 1.2.4 1.7m-2.4-.4c.6.3 1.3.5 1.9.5h.5m.1-.1c-.2 1-.3 2-.3 3m-10.3-1.5c1 2 2.5 3.6 4.3 4.8m-4.3-4.8c1.5-.2 3-.8 4.3-1.6m-3.4-2.5c-.4 1.4-.7 2.7-.9 4.1m-3.7-3.5c.9 1.5 2.2 2.7 3.7 3.4m-5.9 4.3c2.2-1.1 4.2-2.5 5.9-4.3M279 22.2c1.1.8 2.4 1.2 3.7 1.3m-3.7-1.3c.8-.6 1.5-1.3 2.2-2.1m-2.8-.8c0 1 .2 2 .5 2.9m-3.7-1.1c1.1.8 2.4 1.2 3.8 1.2m0-.1l-1.7 5.1M265 21.2c.4 2.4 1.2 4.7 2.3 6.9m-2.3-6.9c.5.1.9.1 1.4.1 1.2 0 2.5-.2 3.6-.7m-5 .6c.6-1.3 1.2-2.5 1.7-3.8m-4.2-.1c.5 1.4 1.4 2.8 2.5 3.9"/><path fill="none" stroke="#000" stroke-width=".75" d="M258.7 22.5h.6c2 0 3.9-.5 5.7-1.4m-7.7-7.3c.5-.3 1-.7 1.4-1.2m-1.6-.5c0 .6.1 1.1.2 1.7m-2-.9c.6.5 1.2.8 2 .9m-1.5 2.6c.6-.8 1.1-1.7 1.5-2.6m0 0c.6.6 1.4.9 2.2 1.1m-8.6-2.6c.4.1.8.2 1.1.2.3 0 .6 0 .9-.1m-2-.1c.3-.4.6-.9.8-1.4m-1.5-.1c.1.5.4 1 .7 1.5m-2.2 0c.4.1.8.2 1.1.2.4 0 .7-.1 1.1-.2m0 0v.6c0 .8 0 1.5.1 2.3m-8.7-.7c.9 1.5 2.1 2.8 3.6 3.8m-3.6-3.8c1.2-.3 2.3-.8 3.2-1.6m-2.9-1.5c-.1 1-.2 2.1-.3 3.1m-2.9-2.2c.7 1 1.7 1.8 2.9 2.3m-4.3 3.1c1.6-.7 3.1-1.8 4.3-3.1m-8.3-4.2c.6.3 1.3.5 2 .5h.3m-2.3-.5c.4-.4.8-.9 1.1-1.4m-1.7-.2c.1.6.3 1.1.5 1.6m-2.1-.4c.5.3 1.1.4 1.7.4h.4m-.7 3c.3-1 .6-2 .8-3m-7.3 0c.2 1.1.6 2.2 1.1 3.3m-1.1-3.3h.4c.7 0 1.3-.2 1.9-.5m-2.3.5c.3-.6.5-1.2.6-1.8m-1.8.2c.3.6.7 1.2 1.2 1.6"/><path fill="none" stroke="#000" stroke-width=".75" d="M223.9 11.1h.3c.9 0 1.7-.2 2.5-.7m-14.6 15.3c1.6-2.6 2.9-5.4 3.9-8.3m0 0c2.1 1.6 4.7 2.5 7.3 2.7m-7.3-2.7c1.5-1.1 2.8-2.5 3.8-4.1m-5.1-1c.3 1.7.7 3.4 1.3 5.1m-6.2-1.8c1.9 1.2 4 1.8 6.2 1.8M197.3 16c.4 2.5.9 5 1.4 7.5m-1.4-7.5c.5.1 1 .1 1.5.1 1.4 0 2.8-.3 4-.9m-5.5.8c.6-1.3 1.1-2.6 1.4-4m-4 .5c.7 1.3 1.6 2.5 2.6 3.5m-5.7 1c.4 0 .7.1 1.1.1 1.6 0 3.2-.4 4.6-1.1m-27.4 16.9c3.2-1.9 5.8-4.6 7.7-7.8m.1 0c2.6 3 5.6 5.4 9.1 7.3m-9.1-7.3c2.6-1.1 4.8-2.8 6.5-5m-6.5 5c-.2-2.3-.4-4.6-.8-6.9m-6.2 3.5c2 1.7 4.4 2.8 7 3.4m-18.4-4.2c.6.1 1.1.2 1.7.2 1 0 1.9-.2 2.8-.5m-4.5.3c.6-1 1-2 1.2-3.1m-3.1.5c.5.9 1.2 1.8 1.9 2.6"/><path fill="none" stroke="#000" stroke-width=".75" d="M155.3 21.4c.4.1.8.1 1.2.1 1 0 1.9-.2 2.8-.6m.1 5.7c0-.7.1-1.3.1-2 0-1.2-.1-2.5-.2-3.7m-12.1 3.9c1 1.6 2.1 3.2 3.3 4.7m-3.3-4.7c1.4-.3 2.6-1 3.5-2m-3.5 2c.1-.5.1-1.1.1-1.6s0-1.1-.1-1.6m-2.8 1.4c.8.8 1.8 1.4 2.8 1.9m-3.9 2.3c1.5-.4 2.8-1.2 3.9-2.4m-15.4 25.5c1.7-3.5 2.7-7.3 3-11.3m0 0c2.9 1.2 5.9 1.8 9 1.8.6 0 1.2 0 1.8-.1M134.8 39c1.7-2 3-4.4 3.6-6.9m-7.1.9c1.1 2 2.3 4.1 3.5 6.1"/><path fill="none" stroke="#000" stroke-width=".75" d="M126.6 38.8c1.5.4 3 .6 4.5.6 1.3 0 2.5-.1 3.7-.4m-18 11c-1-2.3-2.1-4.6-3.2-6.9m0 .1c1.9-.3 3.8-1.2 5.2-2.5"/><path fill="none" stroke="#000" stroke-width=".75" d="M113.6 43.2c.1-.8.2-1.5.2-2.3 0-.7 0-1.4-.1-2m-3.7 1.8c1.1 1 2.3 1.8 3.6 2.4m-4.9 2.7c1.9-.4 3.6-1.3 4.9-2.6M94.9 61.8c2-1.7 3.5-4 4.3-6.5m.1 0c2.5 1.8 5.2 3.3 8 4.5m-8-4.5c1.8-1.3 3.2-3.1 4-5.1m-4 5.1c-.5-1.7-1.2-3.3-2-4.9m-3.6 3.8c1.8.7 3.6 1.1 5.5 1.1m-12.7.7c.1-.4.1-.7.1-1.1 0-.3 0-.6-.1-.9m-1.6.9c.5.4 1 .8 1.6 1.1m-2.2 1c.8-.1 1.6-.5 2.2-1m1.1 3.3c-.2-1.1-.6-2.3-1.1-3.3m0 0c1-.1 1.9-.5 2.6-1.1m-8.5 5.3c.7-.4 1.2-.9 1.5-1.6m-1.5 1.6c-.1-.6-.3-1.1-.5-1.6m-1.2 1.1c.5.3 1.1.4 1.7.5M79 62c.7-.4 1.2-1 1.6-1.8m0 0c.8.7 1.5 1.4 2.4 2m-6.7 6.3c.9.2 1.8.3 2.6.3.9 0 1.8-.1 2.6-.3m-5.2 0c.6-1.1 1-2.3 1-3.5m-1 3.5c-.7-.8-1.4-1.6-2.1-2.3"/><path fill="none" stroke="#000" stroke-width=".75" d="M72.8 69.1h.6c1 0 2-.2 3-.6"/><path fill="none" stroke="#000" stroke-width=".75" d="M75.6 73.6c.5-1.3.7-2.6.7-4 0-.4 0-.7-.1-1.1M68 71.8c.7-.3 1.3-.7 1.8-1.3M68 71.8c0-.5-.1-1.1-.3-1.6m-1.1.9c.5.3 1 .5 1.5.6M66.4 73c.6-.2 1.2-.7 1.6-1.3m1.6 2.4c-.5-.8-1-1.6-1.6-2.4m-4.3 5c.9.5 1.8.9 2.8 1.2m-2.8-1.2c.5-.5.9-1.1 1.1-1.8m-1.1 1.8c-.2-.5-.5-1-.8-1.5"/><path fill="none" stroke="#000" stroke-width=".75" d="M62 76.5c.4.1.8.2 1.2.2h.6m-1.2 2.1c.6-.6 1-1.3 1.2-2.2m.3 17.5c-.4-2.4-1.1-4.7-2.2-6.9m-.1 0c2.2-.3 4.2-1.2 5.9-2.6m-5.9 2.6c.1-.6.1-1.2.1-1.7 0-1-.1-1.9-.4-2.9m-3.3 2.5c1.2.8 2.4 1.5 3.6 2.1m-4.4 2.4c1.7-.4 3.2-1.2 4.4-2.5m-10.6 9.1l4.3 3.2m-4.3-3.2c1.1-.8 1.9-1.9 2.4-3.1m-2.4 3.1c-.3-1-.8-1.9-1.3-2.7m-1.7 2.3c1 .3 2 .4 3 .4m-2.3 3.3c1.1-.8 1.8-1.9 2.3-3.2m-6 19.3c.5-1.4.8-2.9.8-4.4 0-.7-.1-1.3-.2-2"/><path fill="none" stroke="#000" stroke-width=".75" d="M45.8 109.2c1.2.2 2.4.3 3.6.3 1.2 0 2.5-.1 3.7-.3m-7.3 0c.7-1.3 1-2.7 1-4.2v-.8m-1 5c-1-1-2-1.9-3.1-2.8m-1.3 4c1.5-.1 3.1-.5 4.4-1.2m-9.4 5c.7-.4 1.3-1 1.7-1.8m-1.7 1.8c-.1-.6-.3-1.2-.7-1.7m-.9 1.4c.5.2 1.1.3 1.7.3m-1.5 1.6c.6-.4 1.1-.9 1.4-1.6m2.1 2.3c-.6-.8-1.3-1.6-2-2.3m-3.4 5.6c.9.3 1.8.6 2.7.8m-2.7-.8c.4-.5.7-1.2.7-1.9m-.7 1.9c-.3-.4-.6-.8-1-1.2m-.6 1.4h.2c.5 0 .9-.1 1.4-.2m-.7 2.1c.4-.6.7-1.3.7-2.1m1.1 14c-.2-1.8-.7-3.5-1.6-5m-.1 0c1.7-.4 3.3-1.1 4.7-2.2m-4.7 2.2v-.7c0-1-.2-1.9-.6-2.8m-2.3 2.2c1 .4 1.9.9 2.9 1.3m-3 2c1.2-.4 2.2-1.1 3-2m-3.9 8.2c-.8-.6-1.7-1.1-2.6-1.6m0 0c.6-.5 1-1.3 1.2-2m-1.2 2c-.2-.5-.6-1-1-1.5m-.7 1.5c.3 0 .6.1.9.1h.8m-1 1.8c.5-.5.9-1.2 1.1-1.9m-2.5 9.7c.2-.6.3-1.2.3-1.8 0-.4 0-.7-.1-1"/><path fill="none" stroke="#000" stroke-width=".75" d="M23.8 142.3c.6.1 1.1.1 1.7.1.6 0 1.2 0 1.8-.1m-3.5 0c.2-.5.4-1.1.4-1.7 0-.2 0-.5-.1-.7m-.3 2.4c-.5-.4-1-.8-1.6-1.2m-.3 1.9c.7-.1 1.4-.3 2-.7m-.4 17.7c1.7-1.4 2.9-3.3 3.6-5.4m6.7 6.3c-2-2.4-4.2-4.5-6.7-6.3m0 0c2.1-1.6 3.8-3.7 4.8-6.1m-4.8 6.1c-.6-1.8-1.5-3.5-2.8-4.9m-2.4 4.6c1.7.2 3.5.4 5.3.4m-8 23c.6-1.3.9-2.7.9-4.1 0-.5 0-1.1-.1-1.6m0 0c2.5.4 5 .7 7.5 1m-7.5-1c.7-1.3 1-2.8 1-4.3 0-.4 0-.8-.1-1.2M20 172c-1-1-2.2-1.9-3.4-2.6m-.8 4c1.4-.3 2.8-.7 4.1-1.4m-2.7 27.1c2.2-1.4 4.1-3.3 5.4-5.6m5 9.7c-.9-3.6-2.6-6.9-5-9.8m0 .1c3.6-1.5 6.9-3.7 9.8-6.4m-9.8 6.4c-.2-2.8-1.2-5.4-2.7-7.7m2.7 7.7c-2.3-.5-4.5-1-6.8-1.4m2.6 19.2c-1.8-.7-3.6-1.2-5.5-1.6m0-.1c.7-1.2 1.1-2.6 1.1-4v-.4m-1.1 4.4c-.7-.8-1.6-1.5-2.6-2.1m-.4 3.1c1-.2 2.1-.6 3.1-1"/><path fill="none" stroke="#000" stroke-width=".75" d="M12.2 213.6c.5-1 .8-2.1.8-3.3v-.7m1 17.2v-.4c0-1.4-.4-2.8-1.1-4m0 0c1.9-.4 3.7-1 5.5-1.6m-5.5 1.6v-.7c0-1.2-.3-2.3-.8-3.3m.8 4c-1-.4-2-.8-3.1-1m.5 3c1-.5 1.9-1.2 2.6-2.1m7 24c1.6-2.3 2.5-5 2.7-7.7m9.8 6.3c-2.8-2.7-6.2-4.8-9.8-6.4m0 0c2.4-2.8 4.1-6.2 5-9.8m-5 9.8c-1.4-2.2-3.2-4.2-5.4-5.6m-1.4 7.1c2.3-.4 4.6-.9 6.8-1.4m-1.7 26.9c0-.4.1-.8.1-1.2 0-1.5-.4-3-1-4.3m7.5-.9c-2.5.2-5 .6-7.5 1m0-.1c.1-.5.1-1.1.1-1.6 0-1.4-.3-2.8-.9-4.1m.8 5.7c-1.3-.7-2.7-1.1-4.1-1.4m.7 4c1.2-.7 2.4-1.6 3.4-2.6m4.4 22.3c1.2-1.4 2.2-3.1 2.8-4.9m4.8 6.1c-1-2.4-2.7-4.6-4.8-6.1m-.1 0c2.5-1.8 4.7-3.9 6.7-6.3m-6.7 6.3c-.7-2.1-1.9-3.9-3.6-5.4m3.6 5.4c-1.8 0-3.5.1-5.3.4m2 11.9c.1-.3.1-.7.1-1 0-.6-.1-1.2-.3-1.8m.2 2.8c-.6-.3-1.3-.6-2-.7m.5 1.9c.5-.3 1.1-.7 1.6-1.2"/><path fill="none" stroke="#000" stroke-width=".75" d="M24.1 292.1c0-.2.1-.5.1-.7 0-.6-.1-1.2-.4-1.7m3.5 0c-.6-.1-1.2-.1-1.8-.1-.6 0-1.1 0-1.7.1m2.2 6.9c.9-.5 1.8-1.1 2.6-1.6m-2.6 1.6c-.1-.7-.5-1.4-1.1-1.9m1.1 1.9h-.8c-.3 0-.6 0-.9.1m.7 1.4c.4-.4.7-.9 1-1.5m1.2 2.1c-.2-.8-.6-1.5-1.2-2m11.2 8.8c-1.4-1.1-3-1.9-4.7-2.2m0-.1c.9-1.5 1.5-3.2 1.6-5m-1.6 5c-.8-.9-1.9-1.6-3-2m3 2c-1 .4-1.9.9-2.9 1.3"/><path fill="none" stroke="#000" stroke-width=".75" d="M32 306.8c.4-.9.6-1.9.6-2.8v-.7m3.2 8.1c-.9.2-1.8.5-2.7.8m0 0c0-.8-.3-1.5-.7-2.1"/><path fill="none" stroke="#000" stroke-width=".75" d="M33.1 312.2c-.4-.1-.9-.2-1.4-.2h-.2m.5 1.4c.4-.4.7-.8 1-1.2m.8 1.9c0-.7-.3-1.4-.7-1.9m5 7.3c-.4-.7-1-1.4-1.7-1.8m0 .1c.8-.7 1.4-1.4 2-2.3m-2 2.3c-.3-.7-.8-1.2-1.4-1.6m1.4 1.6c-.6.1-1.1.2-1.7.3m1.1 1.3c.3-.5.6-1.1.7-1.7m10.3 10.1v-.8c0-1.5-.3-2.9-1-4.2m7.3 0c-1.2-.2-2.5-.3-3.7-.3-1.2 0-2.4.1-3.6.3m0 0c.1-.7.2-1.3.2-2 0-1.5-.3-3-.8-4.4m.6 6.4c-1.4-.7-2.9-1.1-4.4-1.2m1.3 4c1.1-.9 2.1-1.8 3.1-2.8m7.7 16.1c-.5-1.3-1.3-2.4-2.4-3.1m.1 0l4.3-3.2m-4.3 3.2c-.4-1.3-1.2-2.4-2.3-3.2m2.3 3.2c-1 0-2 .1-3 .4m1.7 2.2c.6-.8 1-1.7 1.3-2.7m10.4 13.7c.3-.9.4-1.9.4-2.9 0-.6 0-1.2-.1-1.7m5.8 2.6c-1.7-1.4-3.7-2.3-5.9-2.6m0 0c1.1-2.2 1.8-4.5 2.2-6.9m-2.2 6.9c-1.2-1.2-2.7-2.1-4.4-2.5m4.4 2.5c-1.2.6-2.5 1.3-3.6 2.1m8.3 7.2c-1 .3-1.9.7-2.8 1.2m0 0c-.2-.8-.6-1.6-1.2-2.2m1.2 2.2h-.6c-.4 0-.8.1-1.2.2m1 1.3c.3-.5.6-1 .8-1.5m1.1 1.9c-.2-.7-.5-1.3-1.1-1.8m6.1 6.2c-.4-.6-1.1-1.1-1.8-1.3m0-.1c.6-.8 1.1-1.5 1.6-2.4m-1.6 2.4c-.4-.6-.9-1-1.6-1.3m1.6 1.3l-1.5.6m1.2 1.1c.2-.5.3-1.1.3-1.6m9.3 6.7c0-1.2-.4-2.4-1-3.5m5.3 0c-.9-.2-1.7-.3-2.6-.3-.9 0-1.8.1-2.6.3m-.1 0c0-.4.1-.7.1-1.1 0-1.4-.2-2.7-.7-4m.6 5.1c-.9-.4-1.9-.6-3-.6h-.6m1.5 3c.7-.8 1.4-1.6 2.1-2.3m5.8 9.8c-.3-.7-.9-1.2-1.5-1.6m2.4-2c-.8.6-1.6 1.3-2.4 2m0 0c-.3-.7-.9-1.4-1.6-1.8m1.6 1.8c-.6.1-1.2.2-1.7.5m1.2 1.1c.2-.5.4-1.1.5-1.6m5.9 6.3c.1-.3.1-.6.1-.9 0-.4 0-.8-.1-1.1m2.6 1c-.8-.6-1.7-1-2.6-1.1m0 0c.5-1.1.8-2.2 1.1-3.3m-1.1 3.3c-.6-.6-1.4-.9-2.2-1m2.2 1c-.6.3-1.1.7-1.6 1.1m12.4 4.5c.8-1.6 1.4-3.2 2-4.9m3.9 5.1c-.8-2-2.2-3.8-4-5.1m8.1-4.5c-2.8 1.2-5.5 2.7-8 4.5m0 0c-.8-2.5-2.3-4.8-4.3-6.5m4.3 6.5c-1.9 0-3.8.4-5.5 1.1m19.8 15.4c.1-.7.1-1.4.1-2 0-.8-.1-1.6-.2-2.3m5.3 2.4c-1.5-1.3-3.3-2.2-5.2-2.5m0 0c1.1-2.3 2.2-4.6 3.2-6.9m-3.2 6.9c-1.3-1.3-3.1-2.2-4.9-2.6m4.9 2.6c-1.3.7-2.5 1.5-3.6 2.4m24.8 1.8c-1.2 2-2.4 4-3.5 6.1m7.1.8c-.7-2.5-1.9-4.9-3.6-6.9m10.8-1.8c-.6 0-1.2-.1-1.8-.1-3.1 0-6.2.6-9 1.8m0 .1c-.3-3.9-1.3-7.7-3-11.3m3 11.3c-1.2-.3-2.5-.4-3.7-.4-1.5 0-3 .2-4.5.6m24.1 15.9c-1-1-2.2-1.7-3.5-2m3.3-4.7c-1.2 1.5-2.3 3.1-3.3 4.7m0 .1c-1-1.2-2.4-2-3.9-2.4m3.9 2.4c-1 .5-2 1.1-2.8 1.9"/><path fill="none" stroke="#000" stroke-width=".75" d="M147.2 410.4c.1-.5.1-1.1.1-1.6s0-1.1-.1-1.6m13.3 7c-.2-1.1-.6-2.2-1.2-3.1m4.5.3c-.9-.3-1.9-.5-2.8-.5-.6 0-1.1.1-1.7.2"/><path fill="none" stroke="#000" stroke-width=".75" d="M159.3 411.1c.1-1.2.2-2.5.2-3.7 0-.7 0-1.3-.1-2m-.1 5.7c-.9-.4-1.8-.6-2.8-.6-.4 0-.8 0-1.2.1m4 .5c-.7.8-1.3 1.7-1.9 2.6m19.5.2c.3-2.3.6-4.6.8-6.9m6.5 4.9c-1.7-2.2-4-3.9-6.5-5m9-7.3c-3.4 1.9-6.5 4.4-9.1 7.3m.1 0c-1.9-3.2-4.6-5.8-7.7-7.8m7.7 7.8c-2.6.6-5 1.8-7 3.4m28 9.8c-.3-1.4-.8-2.8-1.4-4m5.5.7c-1.3-.6-2.6-.9-4-.9-.5 0-1 0-1.5.1m1.4-7.4c-.5 2.5-1 5-1.4 7.5m0-.1c-1.4-.7-3-1.1-4.6-1.1-.4 0-.7 0-1.1.1m5.7 1c-1 1-1.9 2.2-2.6 3.5m21.3-4.9c-.5 1.7-1 3.4-1.3 5.1m5.1-.9c-1-1.6-2.3-3-3.8-4.1m7.3-2.8c-2.6.2-5.2 1.2-7.3 2.7m0 0c-1-2.9-2.3-5.7-3.9-8.3m3.9 8.3c-2.2 0-4.4.6-6.2 1.8m18 1.9c-.5 1.1-.8 2.2-1.1 3.3m0 0c-.8-.4-1.6-.7-2.5-.7h-.3m2.8.7c-.5.5-.9 1-1.2 1.6m1.9.2l-.6-1.8m2.3.4c-.6-.3-1.3-.5-1.9-.5h-.4m9.5-.4h-.3c-.7 0-1.4.2-2 .5m0 0c-.2-1-.5-2-.8-3m.8 3h-.4c-.6 0-1.2.1-1.7.4m2.1-.4c-.2.5-.4 1.1-.5 1.6m1.6-.2c-.3-.5-.6-1-1.1-1.4m11.5-2.5c-.9-.8-2-1.3-3.2-1.6m3.5-3.8c-1.5 1-2.7 2.2-3.6 3.8m.1 0c-1.2-1.3-2.6-2.4-4.3-3.1m4.3 3.1c-1.1.5-2.1 1.3-2.9 2.3m2.9-2.3c.1 1 .2 2.1.3 3.1m10.4-1c-.3-.1-.6-.1-.9-.1-.4 0-.8.1-1.1.2m0-2.9c-.1.7-.1 1.5-.1 2.3v.6m0 0c-.3-.1-.7-.2-1.1-.2-.4 0-.8.1-1.1.2m2.2 0c-.3.5-.5 1-.7 1.5m1.6-.2c-.2-.5-.5-.9-.8-1.4m7.7-.2c-.4-.5-.8-.9-1.4-1.2m2.2-1.1c-.8.1-1.6.5-2.2 1.1m0 0c-.4-.9-.9-1.8-1.5-2.6m1.5 2.6c-.7.1-1.4.4-2 .9m2-.9c-.1.6-.2 1.1-.2 1.7m9.6-5.2c-.5-1.3-1.1-2.6-1.7-3.8M270 411.5c-1.1-.5-2.4-.7-3.6-.7-.5 0-1 0-1.4.1m2.3-7c-1.1 2.2-1.9 4.5-2.3 6.9m0 0c-1.8-.9-3.7-1.4-5.7-1.4h-.6m6.3 1.4c-1.1 1.1-2 2.4-2.5 3.9m18.6-2.8c-.6-.8-1.3-1.5-2.2-2.1m3.8-1.3c-1.3 0-2.6.5-3.7 1.3m0 0l-1.7-5.1m1.7 5.1c-1.3 0-2.6.4-3.8 1.2m3.8-1.2c-.3 1-.5 1.9-.5 2.9m12.4-10.3c.2 1.4.5 2.8.9 4.1m3.4-2.4c-1.3-.9-2.8-1.4-4.3-1.7m4.3-4.8c-1.8 1.2-3.3 2.8-4.3 4.8m0 0c-1.7-1.7-3.7-3.2-5.9-4.3m5.9 4.3c-1.5.8-2.8 2-3.7 3.4m16.3-2.4h-.3c-.6 0-1.2.2-1.8.5m-.3-3.1c0 1 .1 2 .3 3m.1.1h-.5c-.7 0-1.3.2-1.9.5m2.4-.5c-.2.5-.4 1.1-.4 1.7m1.5-.5c-.3-.5-.7-.9-1.1-1.3m7.4-1.7c-.4-.3-.9-.6-1.4-.8m1.8-1.3c-.7.2-1.3.7-1.8 1.3m0 0c-.5-.8-1.1-1.5-1.8-2.2m1.8 2.2c-.7.2-1.2.6-1.7 1.1m1.7-1.1v.2c0 .5 0 .9.1 1.4m7.1-5.7c-.5-.9-1-1.8-1.6-2.7m3.7.1c-.7-.2-1.4-.3-2.1-.3-.5 0-1 .1-1.6.2m1.7-5.1c-.9 1.5-1.4 3.2-1.6 5m-.1 0c-1.4-.6-3-1-4.6-1h-.5m5.1 1c-.8.9-1.4 2-1.7 3.2m12.3-3.7c-.4-.4-.9-.7-1.4-1m2-.9c-.7.1-1.4.4-2 .9m-1.1-2.9c.3 1 .7 1.9 1.1 2.9m0 0c-.8.1-1.6.4-2.2 1m2.2-1c-.1.4-.1.7-.1 1.1v.7m6-6.1c.1.6.3 1.3.6 1.9m1.3-1.3c-.6-.3-1.3-.5-2-.6m1.9-2.2c-.8.5-1.5 1.3-1.9 2.2m.1 0c-.9-.8-1.8-1.5-2.8-2m2.8 2c-.7.4-1.3 1-1.7 1.8m7.7-3.5c-.5-.5-.9-.9-1.5-1.2m2.3-.9c-.8 0-1.6.3-2.2.8m-.7-3.3c.1 1.1.3 2.3.7 3.3m-.1 0c-1 0-1.9.3-2.7.8m2.7-.8c-.2.5-.3 1.1-.3 1.6v.4m6.4-5.4c.1.5.2 1.1.4 1.6m1.1-1c-.5-.3-1-.5-1.5-.6m1.6-1.5c-.7.3-1.3.8-1.6 1.5m0 0c-.6-.7-1.3-1.4-2-2.1m2 2.1c-.7.3-1.2.8-1.6 1.4m6.3-8.5c-.7.9-1.1 1.9-1.3 3m1.3-3c.5.8 1.1 1.5 1.6 2.3"/><path fill="none" stroke="#000" stroke-width=".75" d="M346.7 375c-.4-.1-.9-.1-1.3-.1-.6 0-1.3.1-1.9.3m1.2-4.5c-.8 1.3-1.2 2.9-1.2 4.4m0 0c-1.3-.4-2.6-.7-3.9-.7h-.8m12.2-1.3v.3c0 .4 0 .7.1 1.1m1.1-.7c-.4-.3-.8-.5-1.2-.6m1.5-1c-.6.1-1.1.5-1.4.9m-1.2-2.1c.3.7.7 1.5 1.1 2.1m0 0c-.6.1-1.2.5-1.6 1m5.6-4.7c-.5.4-.9.8-1.1 1.4m1.1-1.4c.1.4.3.9.6 1.3m.9-1c-.5-.2-.9-.3-1.4-.3m1.1-1.6c-.5.4-.9 1-1.1 1.6m-.1 0c-.7-.5-1.4-.9-2.1-1.3m4.8-6.8c-1.7 0-3.4.5-4.9 1.3m4.9-1.3c-.3.8-.4 1.7-.4 2.5 0 .4 0 .7.1 1.1m2.8-1.6c-.8-.7-1.7-1.4-2.6-2m3.7-1.3c-1.3.1-2.6.6-3.6 1.4"/><path fill="none" stroke="#000" stroke-width=".75" d="M356.9 355.8v.6c0 1.7.3 3.4.8 5m8.9-5.6c-.9.4-1.6 1.1-2 2m2-2c.1.7.3 1.4.7 2.1m1.4-1.5c-.7-.3-1.3-.5-2.1-.6m2-2c-.8.5-1.5 1.2-2 2m-2.7-2.7l2.7 2.7m5.2-8.2c-1.6-.6-3.2-.9-4.9-1m4.9 1c-.7.9-1.1 2-1.3 3.2m1.3-3.2c.5.8 1.1 1.5 1.7 2.2m1.4-2.5c-.3 0-.6-.1-1-.1-.7 0-1.4.1-2.1.3m1.3-4c-.8 1.2-1.2 2.6-1.3 4.1m6.7-2.2c0 .4.1.8.2 1.1m.8-.7c-.3-.2-.7-.3-1-.4m1-.9c-.4.2-.8.5-1.1.8m-1-1.6c.3.6.6 1.1 1 1.7m.1 0c-.5.2-1 .5-1.3.9m4-4c-.3.3-.5.7-.6 1.1m.6-1.1c.1.3.3.6.5.8m.5-.7c-.2-.1-.5-.1-.7-.1h-.3m.6-1.2c-.3.3-.6.7-.7 1.2m.1 0c-.5-.3-1-.6-1.6-.8m3-4.5c-1.1 0-2.1.2-3.1.7m3.1-.7c-.1.4-.2.9-.2 1.3 0 .3 0 .6.1.8m.1-2.1l1.5 1.1m.5-1.9c-.7.1-1.4.4-2 .8"/><path fill="none" stroke="#000" stroke-width=".75" d="M382.3 333.9c0 .3-.1.6-.1 1 0 .7.1 1.5.3 2.2m4.7-3c-.4.2-.7.6-.9 1m.9-1c.1.3.2.6.4.9m.5-.7c-.3-.1-.6-.2-1-.2m.9-1c-.4.2-.7.6-.8.9m-1.3-1.2c.4.4.8.9 1.3 1.3m2.1-3.6c-.6-.2-1.3-.4-1.9-.5m1.9.5c-.3.4-.4.8-.5 1.3m.5-1.3c.2.3.4.6.7.8"/><path fill="none" stroke="#000" stroke-width=".75" d="M390.4 330.4h-.3c-.3 0-.6 0-.9.1m.6-1.5c-.3.4-.5 1-.5 1.5m-2.5-11.3c.6 1.6 1.4 3 2.4 4.3m.1 0c-1.4.5-2.6 1.3-3.5 2.5m3.5-2.5c0 1 .3 2 .7 3m1.9-2c-.9-.4-1.8-.7-2.7-1m2.7-2.2c-1.1.5-2 1.2-2.7 2.2m6.3-7.5c-1.1-.6-2.3-1.2-3.4-1.7m3.4 1.7c-.7.7-1.1 1.5-1.3 2.5m1.3-2.5c.3.6.7 1.2 1.2 1.8m1-1.8c-.3 0-.7-.1-1-.1-.4 0-.8 0-1.1.1m1.2-2.5c-.7.7-1.1 1.6-1.3 2.6m2.2-15.4c-.1.7-.2 1.3-.2 2 0 1.1.2 2.1.5 3.1m0 0c-1.9 0-3.8.3-5.5 1m5.5-1c-.2.7-.4 1.5-.4 2.2 0 .6.1 1.1.2 1.6m.2-3.8l2.7 1.8m.6-3.2c-1.2.2-2.3.7-3.3 1.4m6.9-5c-.5.4-1 1-1.2 1.6m1.2-1.6c.2.5.4.9.7 1.3m.7-1.2c-.5-.1-.9-.1-1.4-.1m1-1.4c-.5.4-.8.9-1 1.4m-1.9-1.6c.6.6 1.2 1.1 1.9 1.6m2.2-4.9c-.8-.2-1.6-.3-2.4-.4m2.4.4c-.3.5-.4 1-.4 1.5v.2m.4-1.7c.3.3.6.6 1 .9m.4-1.2c-.5 0-.9.1-1.4.3"/><path fill="none" stroke="#000" stroke-width=".75" d="M407.6 294c-.3.5-.4 1-.4 1.6v.3m-2.5-12.1c.4 1.6 1.1 3 2.1 4.3m-.1 0c-1.5.5-2.8 1.4-3.8 2.5m3.8-2.5c0 1.1.3 2.1.8 3.1m1.9-2.2c-.9-.3-1.8-.6-2.7-.8m2.5-2.2c-1 .5-1.9 1.2-2.5 2.1m2.7-7.9c.9.5 1.7.9 2.6 1.3m0-.1c-.5.6-.8 1.3-.9 2m.9-2c.3.5.6.9 1 1.3"/><path fill="none" stroke="#000" stroke-width=".75" d="M413.6 281.3h-.2c-.5 0-1 .1-1.4.2m.8-2c-.5.5-.7 1.2-.8 1.9m1.3-9.6c-.1.4-.2.9-.2 1.3 0 .5.1 1 .2 1.5m.1 0c-1.1 0-2.3.1-3.4.4m3.4-.4c-.1.4-.2.8-.2 1.3 0 .4 0 .7.1 1.1m.1-2.4c.5.4 1.1.7 1.6 1m.3-1.8c-.7.2-1.3.4-1.9.9m3.6-2.9c.1.2.2.4.4.6m.2-.6h-.7m.5-.8c-.2.2-.4.5-.4.7m-1-.7c.3.3.6.5 1 .7m0 .1c-.3.2-.4.5-.5.8m1.3-3.2c-.1.2-.1.4-.1.6v.2m.1-.8c.1.1.3.3.5.4m.1-.6c-.2 0-.4.1-.6.2M417.9 268.6c-.1.2-.1.4-.1.6v.2m0 0c-.4-.1-.7-.1-1.1-.1m.8-3c-.6.2-1.1.5-1.5 1m1.5-1c0 .4.1.8.4 1.2m-.4-1.2c.3.1.7.2 1 .3m-.1-1.2c-.4.2-.7.5-.9.8m-.7-1.6c.1.6.3 1.1.7 1.6m1.8-2.3c-.2.2-.3.4-.3.7m.3-.7c.1.2.2.3.4.4m.2-.5c-.2 0-.3 0-.5.1m.2-.7c-.1.2-.2.4-.2.6m-.9-.4c.3.2.6.3.9.4m.3-2.1c-.3 0-.7 0-1 .1m1-.1c0 .1-.1.2-.1.4v.3m.1-.7c.2.1.3.2.5.3m.1-.5c-.2 0-.4.1-.5.2m-.1-.8c0 .1-.1.3-.1.4 0 .1 0 .3.1.4m-2.7-5c.5.7 1 1.2 1.7 1.7m0 0c-.6.4-1 1-1.3 1.7m1.3-1.7c.2.5.4.9.8 1.3m.5-1.2c-.5 0-.9-.1-1.4-.1m1-1.4c-.4.4-.8.8-.9 1.4m.1-4.5c.6.1 1.1.2 1.7.3M420.5 254.2c-.2.3-.3.7-.3 1v.2m.3-1.2c.2.2.5.4.7.6m.2-.8c-.3 0-.6.1-.9.3m.2-1.3c-.2.3-.2.6-.2 1v.2m-.7-6.4c0 .7.2 1.4.5 2m.1 0c-.8.2-1.5.5-2.2.9m2.2-.9v.2c0 .5.1.9.3 1.3m-.3-1.5c.4.2.8.3 1.2.4m-.1-1.3c-.4.2-.8.5-1.2.9m2.2-2.5c-.2.2-.3.4-.3.7m.3-.7c.1.2.2.3.4.4m.2-.5c-.2 0-.3 0-.5.1m.2-.6c-.1.2-.2.4-.2.6m-.9-.5c.3.2.5.3.8.4m.4-1.9c-.3 0-.6 0-.9.1m.9-.1v.6m0-.6c.1.1.3.2.4.2m.1-.4c-.2 0-.3.1-.4.2m-.1-.7v.3c0 .1 0 .2.1.3m-1.7-3.9c.2.5.5 1 .9 1.3m0 .1c-.5.3-.9.6-1.2 1.1m1.2-1.1c.1.4.2.7.5 1m.5-.9c-.3 0-.6-.1-1-.1m.7-.9c-.3.2-.5.5-.7.9m.4-2.8l.9.3m0 0c-.1.2-.2.4-.2.6v.1m.2-.7c.1.1.3.2.4.3m.1-.5c-.2 0-.3.1-.5.1"/><path fill="none" stroke="#000" stroke-width=".75" d="M423.7 239.5c-.1.2-.2.4-.2.6v.1m0-3v.2c0 .2.1.5.2.7m-.1-.1c-.3.1-.7.1-1 .3m1-.3v.2c0 .2 0 .4.1.5m-.1-.7c.2.1.4.2.5.2m0-.5c-.2.1-.4.2-.5.3m-1.1-5.2c-.4.5-.7 1.1-.7 1.8m-2.5-1.4c.7.6 1.6 1.1 2.4 1.5m.1-.1c-.5.6-.9 1.4-1 2.2m1-2.2c.3.5.7.9 1.1 1.3m.4-1.5c-.5 0-1.1.1-1.6.2m1.2-7.2c-.1.3-.1.6-.1.8 0 .3 0 .6.1.9m0 0c-.8 0-1.5 0-2.3.1M422.9 229.1c-.1.3-.1.6-.1.9 0 .3 0 .5.1.8m0-1.7c.3.2.7.5 1.1.6m.1-1.2c-.4.1-.8.3-1.1.6m-.1-8.1c-.6.5-1.2 1.1-1.5 1.8m-1.7-2.9c.3 1.1.9 2.1 1.7 2.9m0 0c-1.1.5-2 1.3-2.8 2.2m2.8-2.2c.1.8.5 1.6 1 2.2m-1-2.2l2.1.3m-1.1-5.7c.5.2 1.1.3 1.6.5m0 0c-.2.3-.3.7-.3 1.1v.2m.3-1.3c.2.2.5.4.8.6m.1-.9l-.9.3m.2-1.2c-.1.3-.2.6-.2.9v.2m-.3-5v.2c0 .4.1.8.3 1.1m0 0c-.6.1-1.1.3-1.6.5m1.6-.5v.2c0 .3.1.6.2.9m-.2-1.1l.9.3m-.1-.8c-.3.1-.6.3-.8.6m-1.6-7.2c-.5.6-.9 1.4-1 2.2m-2.8-2.2c.8.9 1.7 1.7 2.8 2.2m0 0c-.8.8-1.4 1.8-1.7 2.9m1.7-2.9c.4.7.9 1.3 1.5 1.8m.6-2.1l-2.1.3m1.5-8c-.1.3-.1.5-.1.8 0 .3 0 .6.1.9m-2.3-.1c.8 0 1.5.1 2.3.1m0 0c-.1.3-.1.6-.1.9 0 .3 0 .6.1.8m0-1.7c.4.3.7.5 1.1.6m0-1.2c-.4.2-.8.4-1.1.6m0-6.8c-.5.3-.9.8-1.1 1.3m-1.1-2.2c.1.8.5 1.5 1 2.2m.1 0c-.9.4-1.7.9-2.4 1.5m2.4-1.5c.1.7.3 1.3.7 1.8m-.7-1.8c.5.1 1 .2 1.6.2m.2-3.6c-.1.2-.2.4-.2.7v.2m.2-.9c.1.1.3.3.5.3m0-.5c-.2.1-.4.1-.5.2m.1-.7c-.1.2-.1.3-.1.5v.2m-1-.3c.3.1.7.2 1 .3m-.1-2.2l-.9.3m.9-.3c0 .1 0 .1 0 0 0 .3 0 .5.1.6m-.1-.6c.2.1.3.1.5.1m-.1-.4c-.2.1-.3.2-.4.3m-.2-.7c0 .1 0 .1 0 0 0 .3.1.5.2.7m-2.4-3.6c.3.5.7.8 1.2 1.1m-.1 0c-.4.4-.7.8-.9 1.3m.9-1.3c.2.3.4.6.7.9m-.7-.9c.3 0 .6-.1 1-.1m-.5-.9c-.2.3-.4.6-.5 1m-.2-2.7c.3 0 .6.1.9.1m0 0c0 .1-.1.2-.1.3v.3m.1-.6c.1.1.3.2.4.2m0-.4c-.1.1-.3.1-.4.2m0-.6v.6m-.7-2.7c0 .3.1.5.3.7m0 0c-.3.1-.6.3-.8.4m.8-.4c0 .2.1.4.2.6m-.2-.6c.2 0 .3.1.5.1m-.1-.5c-.1.1-.3.2-.4.4m-1.8-4.1c-.2.4-.3.9-.3 1.3v.2m-2.2-.8c.7.4 1.4.7 2.2.9m0 0c-.4.6-.5 1.3-.5 2m.5-2c.3.4.7.7 1.2.9m0-1.3c-.4.1-.8.3-1.2.4m-.2-5.7v.2c0 .4.1.7.3 1m0 .1c-.6.1-1.1.2-1.7.3m1.7-.3v.2c0 .3.1.7.2 1m-.2-1.2l.9.3m-.2-.9c-.3.2-.5.4-.7.6m-1.1-5.5c-.4.4-.6.8-.8 1.3m-1.3-1.7c.3.7.7 1.2 1.3 1.7m.1 0c-.7.5-1.2 1.1-1.7 1.7m1.7-1.7c.2.5.5 1 .9 1.4m-.9-1.4c.5 0 .9 0 1.4-.1m-1.4-3.3c.3.1.7.1 1 .1m0 0c0 .1-.1.3-.1.4 0 .1 0 .3.1.4m0-.8c.2.1.3.2.5.2m0-.5c-.2.1-.3.2-.5.3"/><path fill="none" stroke="#000" stroke-width=".75" d="M419.7 169.6v.3c0 .1 0 .2.1.4m-.7-2.8c0 .3.1.5.3.7m-.1-.1c-.3.1-.6.3-.9.4m.9-.4c0 .2.1.4.2.6m-.2-.6c.2 0 .3.1.5.1m-.1-.5c-.1.1-.3.2-.4.4m-1.4-3.5c-.2.4-.3.8-.4 1.2m-1.5-1c.4.4 1 .8 1.5 1m0-.1c-.4.5-.6 1-.7 1.6m.7-1.6c.2.3.5.6.9.8m.2-1c-.3.1-.7.2-1 .3m.1-4v.2c0 .2 0 .4.1.6m-1 .1c.4 0 .7-.1 1.1-.1"/><path fill="none" stroke="#000" stroke-width=".75" d="M417.8 162.6v.2c0 .2 0 .4.1.6m-.1-.8c.2.1.4.2.6.2m-.1-.6c-.2.1-.3.2-.5.4m-.4-3c-.2.2-.3.4-.4.6m-.6-.8c.1.3.3.6.5.8m.1 0c-.3.2-.7.5-1 .7m1-.7c.1.3.2.5.4.7m-.4-.7h.7m-2.7-3.8c-.6.3-1.1.6-1.6 1m-.1-2.4c-.1.4-.1.7-.1 1.1 0 .4.1.9.2 1.3m-3.4-.4c1.1.3 2.2.4 3.4.4m0 0c-.2.5-.2 1-.2 1.5 0 .4.1.9.2 1.3m0-2.8c.6.4 1.2.7 1.9.9m-2.3-9c-.4.4-.8.8-1 1.3m-.9-2c.1.7.4 1.5.9 2m0 0c-.9.4-1.8.8-2.6 1.3m2.6-1.3c.1.7.4 1.4.8 1.9M412 150.6c.5.1.9.2 1.4.2h.2m-6.9-6.9c.9-.3 1.8-.5 2.7-.8m-1.8-2.3c-.5.9-.8 2-.8 3.1m-3.9-2.5c1.1 1.1 2.4 2 3.8 2.5m0 0c-1 1.3-1.7 2.7-2.1 4.3m2.1-4.3c.6.9 1.5 1.7 2.5 2.1m-2.5-11.5v.2c0 .5.1 1 .4 1.5m-2.3.3c.8-.1 1.6-.2 2.4-.4"/><path fill="none" stroke="#000" stroke-width=".75" d="M407.1 136.1v.3c0 .6.1 1.1.4 1.6m-.4-1.9c.4.2.9.3 1.4.3m-.4-1.2c-.4.3-.7.6-1 .9m-1.5-6.2c-.3.4-.5.8-.7 1.3m-1.2-1.6c.2.6.7 1.2 1.2 1.6m0 0c-.7.5-1.3 1-1.9 1.6m1.9-1.6c.2.6.5 1.1 1 1.4m-1-1.4c.5 0 .9 0 1.4-.1m-5.6-6.7l-2.7 1.8m-.2-3.9c-.1.5-.2 1.1-.2 1.6 0 .8.1 1.5.4 2.2m-5.5-.9c1.8.6 3.6 1 5.5 1m0 0c-.3 1-.5 2-.5 3.1 0 .7.1 1.4.2 2m.3-5.1c1 .7 2.1 1.2 3.3 1.4m-4.6-13.4c-.5.5-.9 1.1-1.2 1.8m-1.3-2.5c.2.9.6 1.8 1.3 2.5m-3.4 1.7c1.2-.6 2.3-1.1 3.4-1.7m0 0c.2 1 .6 1.9 1.3 2.6m-1.3-2.6c.4.1.8.1 1.1.1.3 0 .7 0 1-.1m-8.3-7.5c.9-.3 1.8-.6 2.7-1m-2-2c-.4.9-.7 2-.7 3m-3.5-2.5c.9 1.1 2.1 2 3.5 2.5m0 0c-1 1.3-1.8 2.8-2.4 4.3m2.4-4.3c.7 1 1.6 1.7 2.7 2.2m-4.6-8.8c.6-.1 1.3-.2 1.9-.5m0 .1c0 .5.2 1.1.5 1.5m-.5-1.5c.3.1.6.1.9.1h.3m-.5-1c-.3.3-.5.5-.7.8m-.5-1.2c0 .5.2.9.5 1.3m-3.1-4.6c.2.4.5.8.9 1m.1 0c-.4.4-.9.8-1.3 1.3m1.3-1.3c.2.4.5.7.8.9m-.8-.9c.3 0 .6-.1 1-.2m-.7-.7c-.2.3-.3.6-.4.9m-4.6-5.1c-.1.3-.1.6-.1.8 0 .5.1.9.2 1.3m-3.1-.6c1 .5 2 .7 3.1.7m0 0c-.2.7-.3 1.4-.3 2.2 0 .3 0 .6.1 1m.2-3.2c.6.4 1.3.7 2 .8m-2-.8l1.5-1.1m-3.6-5.3c.1.4.3.8.6 1.1m-1.5.8c.5-.2 1.1-.5 1.6-.8m0 0c.1.5.3.9.7 1.2m-.7-1.2h.3c.2 0 .5 0 .7-.1m-.5-.7c-.2.3-.4.5-.5.8m-2.5-4.2c-.2.4-.2.7-.2 1.1m-1.3-.9c.3.4.8.8 1.3.9m0 0c-.4.5-.7 1.1-1 1.7m1-1.7c.3.4.6.7 1.1.8m-1.1-.8c.3-.1.7-.2 1-.4m-6-4c-.6.7-1.2 1.5-1.7 2.2m-1.3-3.2c.1 1.2.5 2.3 1.3 3.2m-4.9 1c1.7-.1 3.3-.4 4.9-1m0 0c0 1.5.5 2.9 1.3 4.1m-1.3-4.1c.7.2 1.4.3 2.1.3.3 0 .6 0 1-.1m-7.6-10.5c-.3.7-.5 1.3-.7 2.1m-2-2c.5.9 1.2 1.6 2 2m0 0l-2.7 2.7m2.7-2.7c.4.9 1.1 1.6 2 2m-2-2c.7-.1 1.4-.3 2.1-.6m-11-4.9c.9-.6 1.7-1.3 2.6-2m-3-1.6c0 .4-.1.7-.1 1.1 0 .8.1 1.7.4 2.5m-4.9-1.3c1.5.9 3.2 1.3 4.9 1.3m.1 0c-.5 1.6-.8 3.3-.8 5v.6m.8-5.6c1.1.8 2.3 1.2 3.6 1.4M354 61.2c.2.6.6 1.1 1.1 1.4m-2.2 1.3c.8-.4 1.5-.8 2.1-1.3m0 0c.2.6.6 1.2 1.1 1.6m-1.1-1.6c.5 0 1-.1 1.4-.3m-.8-1c-.2.4-.4.8-.6 1.3m-3.8-5.1c-.1.3-.1.7-.1 1.1v.3m-1.7-1c.4.5 1 .8 1.6 1m0 0c-.4.7-.8 1.4-1.1 2.1m1.1-2.1c.4.4.9.8 1.4.9m-1.4-.9l1.2-.6m-7-3.7c-.6.8-1.1 1.5-1.6 2.3m-1.3-3c.1 1.1.6 2.2 1.3 3m-4.8.6h.8c1.3 0 2.7-.2 3.9-.7m0 .1c0 1.5.5 3.1 1.2 4.4m-1.2-4.4c.6.2 1.3.3 1.9.3.4 0 .9 0 1.3-.1m-7.6-8.8c-.2.5-.3 1-.4 1.6m-1.5-1.4c.4.6.9 1.1 1.6 1.4m-2 2c.7-.7 1.4-1.4 2-2.1m0 0c.4.7 1 1.2 1.6 1.5m-1.6-1.5c.5-.1 1.1-.3 1.5-.6m-7.6-2.8l1.5-1.2m-1.7-.9v.4c0 .5.1 1.1.3 1.6m-2.8-.7c.8.5 1.8.8 2.7.8m0 0c-.4 1.1-.6 2.2-.7 3.3m.7-3.3c.7.5 1.4.7 2.2.8m-3.8-5.1c.1.3.4.6.6.8m-.6-.8c.2 0 .5-.1.7-.2m-.5-.4c-.1.2-.2.4-.2.6m-.5-.6c.1.3.3.5.6.6m-1.1.7c.4-.2.7-.4 1-.7m-1.9-1.5c-.2.3-.3.6-.4 1m.4-1c.2.2.4.3.7.3m-.7-.3c.2-.1.3-.2.5-.3m-.5-.3v.6m-.8-.4c.2.2.5.3.7.4m-4.8-.6h.5c.4 0 .8-.1 1.2-.2m.1.1c0 .6.2 1.2.4 1.8m-.4-1.8c.2.1.5.1.7.1.2 0 .4 0 .6-.1m-1.3 0l.6-.9m-1.1-.3c.1.4.2.8.5 1.1m-2.4-1.7c.2-.2.5-.4.7-.7m0 0c.1.2.3.4.6.5m-.6-.5c.2 0 .3-.1.5-.2m-.5-.3c0 .2-.1.3-.1.5m-.5-.4c.1.2.3.3.5.4m-2.6-1.3c.2.2.5.2.8.2m0 .1c-.1.3-.2.6-.2 1m.2-1c.2.1.4.2.7.2m-.7-.2c.2-.1.3-.2.4-.4m-.5-.2c0 .3 0 .4.1.6m-4.6-1.3c.2.5.6 1 1 1.3m-2.1 1c.8-.2 1.5-.6 2.2-1.1m0 .1c.2.7.6 1.3 1.2 1.8m-1.2-1.8c.5 0 1-.1 1.5-.3m-1.1-1c-.2.4-.3.8-.5 1.3m-4.4-3.6c.3.3.7.5 1.1.6m-.9 1.4c.3-.5.6-1 .8-1.5m.1 0c.3.3.7.5 1.1.6m-1.1-.6c.3-.1.6-.3.8-.5m-.8-.4v.9m-4.8-2.6c.1.5.2.9.5 1.4"/><path fill="none" stroke="#000" stroke-width=".75" d="M309.3 32c.4.1.8.2 1.2.2.3 0 .6 0 .9-.1"/><path fill="none" stroke="#000" stroke-width=".75" d="M311.3 32.1v.6c0 .6.1 1.2.2 1.7m-.2-2.3c.3.1.7.2 1.1.2h.5m-1.6-.2c.3-.3.6-.7.8-1m-3.2-1.2c.2-.2.5-.4.7-.7m0 0c.1.2.3.4.6.5m-.6-.5c.2 0 .3-.1.5-.2m-.5-.3c0 .2-.1.3-.1.5m-.5-.4c.1.2.3.3.5.4m-2.3-1.1c.2.1.4.2.6.2m0 0c-.1.3-.2.6-.2.8m.2-.8c.2.1.4.2.6.2m-.6-.2c.1-.1.2-.2.4-.3m-.5-.2c0 .2 0 .3.1.5m-3.3-1.1c.1.4.3.7.6.9m-1.6.5c.5 0 1.1-.2 1.5-.5m.1 0c.1.5.3 1 .7 1.4m-.7-1.4h.2c.3 0 .6-.1.9-.2m-.7-.7c-.1.3-.3.6-.4.9m-2.5-2.3c.2.2.3.3.6.3m-.6.8c.2-.2.4-.5.5-.8m0 0c.2.2.4.3.6.4m-.6-.4c.2-.1.3-.2.4-.3m-.4-.2v.5m-2.2-1.3c0 .2.1.4.2.6m-.9-.2c.2.1.4.1.6.1h.2m.1.1c0 .3-.1.5-.1.8v.3m.1-1.1c.2.1.4.1.6.1h.1m-.7-.1l.4-.4m-3.9-.5c-.1.5-.2 1-.3 1.6m-1.5-1.3c.4.6.9 1 1.5 1.3m-2.1 1.8c.8-.5 1.5-1.1 2.1-1.8m0 0c.4.7 1 1.3 1.7 1.6m-1.7-1.6c.6-.1 1.1-.4 1.6-.7m-6.7-3.4c0 .4.1.9.2 1.3m-1.6-.6c.5.3 1.1.5 1.6.5m0 .1c-.2.7-.5 1.5-.6 2.2m.6-2.2c.5.3 1 .5 1.6.5m-1.6-.5c.3-.2.7-.5.9-.9m-7.4.4c.3-.6.6-1.2.9-1.9m-2.1-.1c.2.7.7 1.4 1.2 2m-3.2.7h.2c1.1 0 2.1-.3 3.1-.7m-.1 0c.2 1.2.6 2.3 1.2 3.4"/><path fill="none" stroke="#000" stroke-width=".75" d="M285.9 22.8c.2 0 .5.1.7.1.6 0 1.2-.1 1.7-.3m-7.3-4.4c.3.3.6.5 1 .6m-.9 1.3c.3-.4.7-.9.9-1.4m0 0c.3.3.7.6 1.2.7m-1.2-.7c.3-.1.6-.3.8-.6m-.8-.3v1m-3.8-2.1c0 .3.2.6.3.9m-1.3-.1c.3.1.6.2.9.2h.4"/><path fill="none" stroke="#000" stroke-width=".75" d="M278.5 17.6c-.1.4-.1.9-.1 1.3v.4m.1-1.7c.3.1.6.2.8.2h.3m-1.1-.2c.2-.2.4-.5.6-.7m-5.7-.4c-.1.7-.3 1.4-.4 2m-1.8-1.6c.4.7 1.1 1.3 1.8 1.7m-3 1.9c1.1-.5 2.1-1.1 3-2m0 .1c.5 1 1.3 1.9 2.2 2.5m-2.2-2.5c.8-.1 1.5-.4 2.2-.9m-8-3.8c0 .4.1.8.2 1.2m-1.5-.4c.5.3 1 .5 1.6.5m-.8 2.1c.3-.7.5-1.4.8-2.2m0 .1c.5.3 1 .5 1.6.5m-1.6-.5c.3-.3.7-.6.9-.9m-6.5.2c.3-.5.5-.9.7-1.4m-1.6 0c.2.5.5 1 .9 1.5m-2.4.3c.2 0 .4.1.7.1.6 0 1.2-.1 1.7-.4m0-.1c.1.9.3 1.9.6 2.8m-.6-2.8c.2.1.5.1.7.1.4 0 .8-.1 1.2-.2m-5.1-1.8l.6-.9m-.1.1c.2.2.5.3.8.4m-.8-.4c.2-.1.3-.2.5-.4m-.5-.2v.6m-.6-.4c.2.2.4.3.7.3m-2.9-.6c.1.1.3.1.4.1h.3m0 0v1m0-1c.1.1.3.1.4.1h.2m-.6-.1c.1-.1.2-.3.3-.4m-.5-.1c0 .2.1.3.2.5m-3.5-.3c.2.3.5.6.8.8m-1.4.7c.5-.1 1-.4 1.4-.8m0 0c.2.5.6.9 1 1.3m-1-1.3c.4 0 .7-.2 1-.4m-1 .4c.1-.3.1-.6.2-.9m-3.1-.7c.2.1.4.2.6.2m-.3.8c.1-.3.2-.5.3-.8m0 0c.2.1.4.2.6.2m-.6-.2c.1-.1.3-.2.3-.4m-.4-.1c0 .2 0 .3.1.5m-2.3-.8c.1.2.1.3.3.5m-.8.1h.3c.2 0 .3 0 .5-.1m0 0c0 .3.1.6.2.9M250.1 9.9h.3c.1 0 .3 0 .4-.1m-.7.1c.1-.1.2-.3.2-.5m-3.3.4v1.3m-1.4-.7c.4.4.9.7 1.4.8m-1.5 1.7c.6-.5 1.1-1.1 1.5-1.8m0 .1c.5.5 1 .9 1.7 1.1m-1.7-1.1c.4-.2.9-.5 1.2-.8m-5.7-1.6l.3.9m-1.2-.1c.3.1.6.2.8.2h.4m0-.1c-.1.6-.1 1.1-.2 1.7m.2-1.7c.3.1.6.2.9.2h.4m-1.3-.2c.2-.2.4-.5.5-.8m-5 1.3c.1-.4.3-.9.4-1.3m-1.4.1c.2.4.6.8 1 1.1m-2 .8c.7-.1 1.4-.3 2-.7m0 0c.2.8.6 1.5 1.1 2.1m-1.1-2.1c.6 0 1.1-.2 1.6-.5m-5.1-1.8c.2.1.4.2.7.2m-.4.9c.2-.3.3-.6.4-.9m0 0c.2.2.5.3.8.3m-.8-.3c.2-.1.3-.3.4-.4m-.6-.2c0 .2.1.4.1.5m-2.4-.6c.1.2.2.3.3.5"/><path fill="none" stroke="#000" stroke-width=".75" d="M232.6 7.9h.3c.2 0 .3 0 .5-.1m-.1 0c0 .3.1.6.1.9m-.1-.9h.3c.1 0 .3 0 .4-.1m-.7.1c.1-.1.2-.3.2-.5m-3 .4v1.1m-1-.7c.3.3.6.6 1 .7m-1.4 1.2c.5-.3 1-.7 1.4-1.2m0 0c.3.5.8.9 1.3 1.2m-1.3-1.2c.4-.1.8-.3 1-.6M227.4 7c0 .2.1.4.2.6"/><path fill="none" stroke="#000" stroke-width=".75" d="M226.8 7.4c.2.1.4.1.6.1h.2m-.2 1.1c.1-.3.2-.7.2-1m0 0c.2.1.4.1.6.1h.2m-.8-.1c.1-.1.3-.3.4-.5m-2.9.5c.1-.2.2-.4.2-.6m-.7.1c.1.2.3.4.4.6m-.9.2c.4 0 .7-.1 1-.2m0-.1c.1.4.2.8.4 1.1m-.4-1.1h.1c.2 0 .5-.1.7-.2m-4.6 2.8c.6-.4 1-.9 1.4-1.5m-1.9-.4c.1.6.3 1.3.4 1.9m-2.2-.7c.7.4 1.5.7 2.3.7m-1.5 3c.6-1 1.1-2 1.4-3.1m.1.1c.8.6 1.7.9 2.7.9m-9.7-1.7c.3-.5.5-1 .6-1.5m-1.5.1c.2.5.5 1 .9 1.4m-2.2.2c.2 0 .5.1.7.1.5 0 1-.1 1.5-.3m0 0c.1 1 .2 1.9.4 2.9m-.4-2.9c.2.1.5.1.8.1.5 0 .9-.1 1.3-.3m-10.1 3.1c1.1-.3 2-.9 2.8-1.7m-2.8 1.7V9.5m-2.6 1.1c.7.8 1.6 1.4 2.7 1.7m-3.6 2.9c1.4-.7 2.6-1.6 3.6-2.9m-.1 0c.9 1.3 2.1 2.4 3.4 3.3m-11.2-7.3c.1.4.3.8.6 1.2m-1.7-.1c.3.1.7.2 1 .2.2 0 .4 0 .7-.1m-.4 2.4c.2-.8.3-1.6.4-2.4m0 0c.4.2.8.2 1.2.2.2 0 .4 0 .6-.1m-1.8-.1c.3-.4.5-.8.7-1.2m-6.1 1.9c.1-.4.2-.9.3-1.4m-1.3.3c.3.4.6.8 1 1.1m-1.9.6c.7 0 1.3-.3 1.9-.7m0 .1c.3.8.6 1.6 1 2.3m-1-2.3c.6 0 1.2-.2 1.7-.5m-8.6 5.5c1-.7 1.8-1.6 2.4-2.7m-3.3-.5c.3 1.1.6 2.1.9 3.1m-3.7-1c1.1.7 2.4 1 3.7 1m-2.6 5c1.2-1.5 2.1-3.2 2.6-5m0 .1c1.4 1 3 1.7 4.8 1.8m-15.2-2.6c.3-.6.6-1.3.7-2.1m-2.1.4c.4.6.8 1.2 1.3 1.7"/><path fill="none" stroke="#000" stroke-width=".75" d="M173.6 14.8h.6c.8 0 1.5-.2 2.2-.5m.5 3.8c-.2-1.3-.4-2.5-.6-3.8m.1.1c.2 0 .5.1.7.1.7 0 1.4-.2 2.1-.5m-11.9 4c1.1-.3 2.1-1 2.9-1.9m-2.9 1.9v-.6c0-.7 0-1.5-.1-2.2m-2.5 1.2c.8.7 1.6 1.3 2.6 1.6m-3.5 2.6c1.4-.5 2.6-1.4 3.4-2.6m.1 0c.9 1.4 2.1 2.6 3.4 3.7m-11.4-5.8c.2 0 .4.1.6.1.3 0 .5 0 .8-.1M160.5 17.8c.1-.6.2-1.1.2-1.7v-.2m-.1-.1c.3.1.5.1.8.1.3 0 .5 0 .8-.1m-1.6 0c.2-.3.4-.7.5-1m-1.1.1l.6.9m-4.8.3c.2.3.5.5.8.6m-1.2.6c.5-.1.9-.3 1.2-.6m0 0c.2.5.5 1.1.8 1.6m-.8-1.6c.4 0 .8-.2 1.2-.5"/><path fill="none" stroke="#000" stroke-width=".75" d="M156.6 16.7c.1-.3.1-.6.1-.9v-.1m-4.3 4.5l-.6-1.8m-1.5 1.2c.6.4 1.4.5 2.1.5m-1.7 2.8c.7-.8 1.3-1.7 1.6-2.7m.1 0c.9.6 1.9 1 2.9 1.2m-2.9-1.2c.6-.4 1.1-1 1.4-1.7m-7.5.6c.2.3.4.5.7.7m-1.3.4h.2c.4 0 .7-.1 1.1-.3m.2 1.7l-.3-1.8"/><path fill="none" stroke="#000" stroke-width=".75" d="M146.9 19.9h.2c.4 0 .8-.1 1.1-.3m-1.3.3c.1-.3.2-.6.3-1m-4.1 2.6v-.2c0-.3 0-.6-.1-.9m-.8.5c.3.3.6.5 1 .6m-1.3.9c.5-.2 1-.5 1.3-.9m-.1 0c.4.5.8 1 1.3 1.5m-1.3-1.5c.4-.1.8-.4 1.1-.8m-5.2 6.5c.6-.9 1-1.8 1.2-2.8m-2.8.4c.5.8 1 1.6 1.6 2.3m-3.4.3c.5.1.9.2 1.4.2.7 0 1.4-.1 2.1-.4"/><path fill="none" stroke="#000" stroke-width=".75" d="M138.4 32.1c.4-1.5.6-3 .6-4.5v-.4m0 0c.7.2 1.5.3 2.3.3.7 0 1.4-.1 2-.3m-13.7 2.4c.1-.4.1-.9.1-1.3v-.8m-1.9.8c.5.5 1.1.9 1.8 1.3m-2.6 1.3c1-.2 1.8-.6 2.5-1.3m.1 0c.6 1.1 1.2 2.3 1.8 3.4m-1.8-3.4c.9-.1 1.8-.6 2.5-1.2m-10.5 8c1.1-.8 1.9-1.8 2.4-3m-2.4 3c-.3-1-.7-2.1-1.1-3.1m-2.5 2.3c1.1.5 2.3.8 3.5.8m-2.7 4.3c1.3-1.2 2.2-2.7 2.8-4.3m0 0c1.5 1.1 3.2 1.9 5.1 2.5M112 35.4c.3.3.7.6 1 .9m-1.6.6c.6 0 1.2-.2 1.7-.6m.5 2.5c-.1-.8-.3-1.6-.6-2.4m0 0c.7 0 1.3-.2 1.9-.6"/><path fill="none" stroke="#000" stroke-width=".75" d="M113 36.4c.1-.4.2-.8.2-1.2V35m-4.9 4c0-.4-.1-.9-.2-1.3m-1.1.8c.4.3.8.4 1.3.5m-1.4 1.3c.6-.3 1.1-.7 1.4-1.3m0 0c.5.6 1.1 1.2 1.7 1.7m-1.7-1.7c.5-.2 1-.6 1.3-1.1m-5.5 7.6c.6-.9 1-1.9 1.1-3m-2.8.8c.5.8 1.1 1.5 1.7 2.3"/><path fill="none" stroke="#000" stroke-width=".75" d="M100.8 45.8c.4.1.8.1 1.2.1.7 0 1.4-.1 2.1-.4m-.9 4.7c.6-1.4.9-2.9.9-4.4v-.3m0 0c.9.3 1.8.4 2.7.4.6 0 1.2-.1 1.8-.2m-12.7 2.2v-.5c0-.4 0-.8-.1-1.1m-1.3.8c.4.3.9.6 1.4.8M94.1 49c.7-.2 1.3-.5 1.8-1.1m1.4 2.5c-.4-.9-.9-1.7-1.4-2.6m0 .1c.7-.2 1.4-.5 1.9-1.1m-7.1 5.8c.7-.5 1.2-1.1 1.4-1.9m-1.4 1.9c-.2-.6-.4-1.2-.7-1.8m-1.3 1.4c.6.3 1.3.4 2 .4m-1.6 2.3c.7-.6 1.3-1.4 1.6-2.3m0 0c.9.7 1.9 1.2 3 1.7m-7.2-.4l-.3-1.2m0 .1c.3 0 .7-.2.9-.4m-.9.4v-.7m-.6.3c.2.1.4.3.5.4m-.7.3c.3 0 .6-.2.8-.3m-2.6 1.9c.2-.1.4-.3.6-.6m-.1.1c.3.2.5.5.8.7m-.8-.7c.2-.1.4-.3.5-.5m-.5.5c0-.2-.1-.4-.2-.6m-.4.4c.2.1.4.2.6.2M81.3 57h.4c.3 0 .6 0 .8-.1m-.4 1.7c.2-.5.4-1.1.4-1.6v-.1m0 0c.4.1.8.2 1.2.2h.6m-1.8-.2c.2-.3.4-.8.4-1.2m-.4 1.2c-.2-.3-.4-.6-.7-.8m-2.7 2c.2-.1.4-.2.6-.4m.4.9c-.1-.3-.3-.6-.5-.8m0 0c.2-.1.5-.2.6-.4"/><path fill="none" stroke="#000" stroke-width=".75" d="M79.6 57.8v-.1c0-.1 0-.3-.1-.4m-.3.2c.1.1.3.2.5.2m-2.2 1.4c.2.1.4.1.6.1m-.5.7c.2-.2.4-.4.5-.7m0 0c.3.2.6.4.9.5m-.9-.5c.2-.1.3-.3.4-.6m-.4.6c-.1-.2-.1-.3-.2-.5m-2 3c.3.3.7.6 1.1.9m-1.6.5c.6 0 1.1-.2 1.6-.6m.3 2.5v-.1c0-.8-.1-1.5-.4-2.2m.1-.1c.7 0 1.4-.2 2.1-.6m-2.1.6c.1-.3.2-.7.2-1.1v-.4m-5 3.5l.9.3m-1 .8c.4-.2.7-.5.9-.9m1.2 1.3c-.4-.4-.8-.8-1.2-1.3m.1.1c.4-.2.7-.5.9-.8m-.9.8c0-.3-.1-.6-.2-.9m-2.4 4.5c-.2-.4-.5-.7-.7-1.1m-.7 1.1c.2 0 .4.1.7.1.3 0 .5 0 .8-.1m-.8 1.9c.4-.6.7-1.2.7-1.9m0 0c.7.3 1.5.5 2.3.5m-2.3-.5c.4-.4.6-.9.7-1.5m-4.5 2.7c.2-.1.4-.2.5-.4m.5.8c-.1-.3-.3-.6-.4-.8m0 0c.3-.1.5-.2.6-.4m-.6.4s0-.1 0 0c0-.2 0-.4-.1-.5m-.4.3c.1.1.3.2.5.2m-2 1.3c.2.1.3.1.5.1m-.4.5c.2-.1.3-.3.4-.6m0 .1c.2.2.5.3.7.5m-.7-.5c.2-.1.3-.3.4-.5m-.4.5c0-.2-.1-.3-.2-.4m-1.5 2.3c.2.2.5.4.7.6m-1 .3c.4 0 .7-.1 1.1-.3"/><path fill="none" stroke="#000" stroke-width=".75" d="M64.8 74.8c.1-.3.1-.6.1-.9 0-.3 0-.5-.1-.8"/><path fill="none" stroke="#000" stroke-width=".75" d="M64.8 73.2h.4c.4 0 .8-.1 1.2-.2m-1.6.2c.1-.3.2-.6.2-.9v-.2m-3.2 2.2c.2.1.3.1.5.2m-.5.4c.2-.1.4-.2.5-.4m.6.7c-.2-.3-.4-.5-.6-.7m0 0c.2-.1.4-.3.5-.5m-.5.5c0-.2-.1-.3-.1-.5M61 76.2c-.1-.2-.2-.3-.3-.5m-.3.4h.6m-.4.8c.2-.2.3-.5.4-.8m0 .1c.3.2.6.3 1 .4m-1-.4c.2-.2.3-.4.3-.6m-.8 4.4v-.4c0-.4-.1-.9-.2-1.3m-1.2.9c.5.3.9.5 1.4.7M58.8 81c.6-.2 1.2-.5 1.7-1m1.1 2.6c-.2-.9-.6-1.8-1.1-2.6m0 0c.8-.2 1.5-.6 2.1-1.1m-6.3 4.9c-.1-.4-.3-.8-.5-1.1m-.8.9c.4.1.8.2 1.3.2m-1 1.4c.5-.4.8-.8 1-1.4m0 0c.6.4 1.2.9 1.9 1.3m-1.9-1.3c.5-.3.8-.8 1-1.3m-3.5 7.3c.3-.6.5-1.4.5-2.1v-.3m-.5 2.4c-.5-.5-1-1-1.5-1.4m-.7 1.9c.8 0 1.6-.2 2.3-.6"/><path fill="none" stroke="#000" stroke-width=".75" d="M53.5 93.1c.3-.7.4-1.5.4-2.3 0-.4 0-.7-.1-1.1"/><path fill="none" stroke="#000" stroke-width=".75" d="M53.8 89.8c.5.1.9.1 1.4.1.7 0 1.4-.1 2.1-.3M47.9 92l.9.3m-.9.7c.4-.2.7-.5.9-.8m1.1 1.4c-.3-.5-.7-.9-1-1.3m-.1-.1c.4-.2.8-.5 1-.9m-1 .9c0-.3-.1-.6-.3-.9m-1.9 3.9c-.2-.3-.3-.5-.5-.8m-.5.9h.4c.2 0 .4 0 .5-.1m-.4 1.3c.3-.3.5-.8.5-1.2m0-.1c.5.2 1 .4 1.6.6m-1.6-.6c.3-.3.5-.7.5-1.1m-1.3 6.7c0-.3.1-.5.1-.8 0-.5-.1-1-.2-1.5M44 99.8c.6.4 1.2.7 1.8 1m-2.1 1.2c.8-.2 1.6-.6 2.1-1.2m1 3.4c-.1-1.2-.4-2.4-1-3.4m0 0c1.1-.2 2.2-.6 3.1-1.3m-8 5.5c-.1-.4-.3-.8-.6-1.2m-.7 1c.4.1.8.2 1.3.2m-1 1.3c.5-.3.8-.8 1-1.3m1.8 1.4c-.6-.5-1.2-.9-1.8-1.4m0 0c.5-.3.8-.8 1-1.4m-3.3 6.5c.3-.5.5-1.1.5-1.7v-.2m-.5 1.9c-.4-.4-.7-.8-1.1-1.1m-.6 1.5c.6 0 1.1-.1 1.7-.4m-.5 2.4c.3-.6.5-1.3.5-1.9v-.4m0-.1c.8.2 1.5.3 2.3.3h.5m-6.8 1.9c.2-.1.4-.3.5-.5m.7.8c-.2-.3-.4-.6-.7-.8m0 0c.3-.1.5-.3.6-.6m-.6.6c0-.2-.1-.4-.2-.6m-.4.4c.2.1.4.1.6.1m-1.7 1.9h.6m-.4.6c.2-.2.2-.4.3-.7m0 .1l.9.3m-.9-.3l.3-.6m-.3.6c-.1-.1-.2-.3-.3-.4m-.1 3.2c-.3-.2-.6-.3-.8-.5m-.2 1c.4-.1.7-.3 1-.5m.3 1.5v-.2c0-.5-.1-1-.3-1.4m0 .1c.5-.1 1.1-.2 1.5-.5"/><path fill="none" stroke="#000" stroke-width=".75" d="M33.5 116.4v-.5c0-.2 0-.4-.1-.7m-2.5 2.8c.2 0 .3.1.5.1m-.4.5c.2-.1.3-.3.4-.5m.6.5c-.2-.2-.4-.4-.7-.6m.1.1c.2-.1.3-.3.4-.5m-.4.5c-.1-.2-.1-.3-.2-.4m-.7 2.2c-.1-.1-.2-.3-.4-.4m-.1.5c.2 0 .4 0 .5-.1m-.1.7c.1-.2.2-.4.2-.7v-.1m-.1.1c.3.1.6.1.9.1m-.9-.1c.1-.2.2-.4.2-.6m.1 3.9c0-.5-.2-1-.4-1.4m-.9 1c.4.1.8.3 1.3.4m-1.2 1.1c.5-.2.9-.6 1.2-1.1m1.2 2c-.3-.7-.7-1.4-1.2-2m0 0c.6-.3 1.2-.7 1.6-1.3m-4.3 4.9c-.2-.3-.3-.5-.6-.8m-.4.8h.3c.2 0 .4 0 .6-.1m-.4 1.2c.3-.3.5-.7.5-1.1m0 0c.5.2 1 .5 1.6.7m-1.6-.7c.3-.3.5-.7.5-1.1m-1.5 5.5c.1-.3.1-.6.1-.9 0-.2 0-.5-.1-.7m0 1.6c-.4-.3-.8-.5-1.1-.8m-.3 1.4c.5-.1 1-.3 1.4-.6m.1 2.1c.1-.3.1-.6.1-.9 0-.4-.1-.8-.2-1.2m0 0c.8 0 1.6-.1 2.4-.4m-5.8 2.4c.2 0 .4.1.6.1m-.4.5c.2-.1.3-.3.4-.6m.7.7c-.2-.2-.5-.5-.8-.7m.1 0c.2-.2.4-.4.5-.6m-.5.6c-.1-.2-.2-.4-.3-.5m-.6 2.5c-.1-.1-.2-.3-.4-.4m-.2.5c.2 0 .4 0 .5-.1m-.1.7c.1-.2.2-.4.2-.6v-.1m0 0c.3.1.6.1.9.2m-.9-.2c.1-.2.2-.4.2-.6v-.1m-.2 3.7c0-.5-.1-.8-.3-1.2m-.7.8c.3.1.7.2 1 .4m-1 .8c.4-.2.7-.4 1-.8m.7 1.7c-.1-.6-.3-1.2-.7-1.7m0 0c.6-.2 1.1-.5 1.5-.9m-3.6 3.3c-.1-.2-.2-.3-.4-.5m-.2.5h.6m-.3.7c.2-.2.3-.4.3-.7m1 .5c-.3-.2-.6-.4-.9-.5m-.1 0c.2-.2.3-.4.4-.7m-1.1 3.1c.1-.2.1-.4.1-.6v-.3m-.1.9c-.2-.1-.4-.3-.5-.4m-.1.6c.2 0 .5-.1.7-.2m-.1 1c.1-.2.1-.4.1-.6v-.4"/><path fill="none" stroke="#000" stroke-width=".75" d="M20.6 143h.5c.3 0 .5 0 .8-.1m0 4.5c.8-.6 1.4-1.3 1.7-2.2m-1.7 2.2c-.2-.7-.6-1.3-1-1.8m-1 1.6c.6.1 1.3.1 1.9.1m-1.3 2c.6-.5 1.1-1.2 1.3-1.9m2.6 2.3c-.7-.9-1.6-1.6-2.5-2.3m-2.9 6.3c.3-.5.5-1.1.5-1.8v-.3m-.5 2.1c-.4-.4-.8-.8-1.2-1.1m-.4 1.6c.6-.1 1.1-.2 1.6-.4"/><path fill="none" stroke="#000" stroke-width=".75" d="M18.5 155.9c.3-.6.5-1.2.5-1.8v-.4m0 0c.9.2 1.9.4 2.9.5m-2.6 8c1.5-.5 3-1.2 4.2-2.3m-4.2 2.3v-.2c0-1.1-.3-2.1-.8-3m.8 3.2l-2.7-.9m.2 2.9c1-.5 1.8-1.1 2.5-2m1.6 4.3c-.2-1.5-.7-3-1.6-4.3m-4.9 6.1c-.2-.4-.6-.8-.9-1m-.4 1.1c.4 0 .9-.1 1.3-.2m-.6 1.7c.4-.5.6-1 .6-1.6m2.2 1.1c-.7-.4-1.4-.8-2.2-1.1m0 0c.4-.5.7-1.1.8-1.7m-1.9 7c.1-.3.1-.6.1-.9 0-.3 0-.6-.1-.8m0 1.7c-.4-.3-.8-.5-1.2-.7m-.1 1.3c.5-.1.9-.3 1.3-.6m.1 2c.1-.3.1-.6.1-.9 0-.4-.1-.7-.2-1.1m0 0c.8 0 1.7-.1 2.5-.2m.2 8.3c1.4-1 2.5-2.4 3.2-4m-3.2 4c-.4-1.2-1-2.2-1.9-3.1m-1.4 3c1.1.1 2.2.1 3.3.1m-2.2 3.2c1-.9 1.7-2 2.1-3.2m4 4c-1.1-1.6-2.4-2.9-3.9-4m-4 9.7c.3-.7.5-1.4.5-2.2v-.7m-.5 2.9c-.5-.5-1.1-.9-1.7-1.3m-.4 2c.7-.1 1.4-.4 2-.7"/><path fill="none" stroke="#000" stroke-width=".75" d="M11.6 194.2c.3-.6.5-1.3.5-2 0-.3 0-.5-.1-.8m3.8.6c-1.3-.2-2.5-.4-3.8-.6m.6 9.7c1.6-.5 3.1-1.2 4.5-2.1m-4.5 2.1v-.2c0-1.1-.3-2.2-.9-3.2m.9 3.4c-.9-.3-1.8-.6-2.7-.8m.4 2.8c.9-.5 1.7-1.2 2.3-2m1.4 4.1c-.1-1.5-.6-2.9-1.4-4.1m-5.1 6c.4-.1.7-.1 1-.3m-.4 1.3c.2-.4.4-.8.4-1.2v-.1m1.8.8c-.6-.3-1.2-.6-1.8-.7m0-.1c.3-.4.5-1 .5-1.5m-.5 1.5c-.2-.3-.5-.6-.9-.8m.5 4.9c-.3-.2-.6-.3-.9-.4m.1.9c.3-.1.6-.3.9-.5m.1 1.4v-.4c0-.3-.1-.6-.2-.9m0-.1l1.8-.3m-1.8.3v-.4c0-.3-.1-.6-.2-.8m2.2 6.3c-.2-.7-.6-1.3-1.2-1.8m1.2 1.8H8.2m.7 1.8c.5-.5.9-1.1 1.2-1.8m2.1 2.4c-.5-.9-1.2-1.8-2.1-2.4m0 0c.9-.6 1.6-1.4 2.1-2.4m-4.1 7.5c-.3-.2-.5-.4-.9-.5m0 .9c.3-.1.6-.2.9-.4m-.1 1.2c.1-.3.2-.5.2-.8v-.4m1.7.3l-1.8-.3m0 0c.1-.3.2-.6.2-.9v-.4m.2 5.4s0-.1 0 0c0-.5-.1-.9-.4-1.3m.4 1.3c-.3-.1-.7-.2-1-.3m.2 1c.3-.2.6-.5.9-.8m.4 1.6c0-.5-.2-1.1-.5-1.5m0 0c.6-.2 1.2-.4 1.8-.7m2.3 6.4c.8-1.2 1.3-2.6 1.4-4.1m-1.4 4.1c-.6-.8-1.4-1.5-2.3-2m-.4 2.7c.9-.2 1.8-.5 2.7-.8m-.8 3.4c.6-1 .9-2.1.9-3.2v-.2m4.5 2.1c-1.4-.9-2.9-1.6-4.5-2.1m-.7 9.8c0-.2.1-.5.1-.8 0-.7-.2-1.4-.5-2m.4 2.8c-.6-.3-1.3-.6-2-.7m.2 2c.6-.3 1.2-.8 1.7-1.3"/><path fill="none" stroke="#000" stroke-width=".75" d="M12.4 243.4v-.7c0-.8-.2-1.5-.5-2.2m.1.1c1.3-.2 2.5-.4 3.8-.6m.2 10.3c1.5-1.1 2.8-2.5 3.9-4m-3.9 4c-.4-1.3-1.2-2.4-2.1-3.2m2.1 3.2c-1.1 0-2.2 0-3.3.1m1.4 3c.8-.9 1.5-1.9 1.9-3.1m3.2 4c-.7-1.6-1.8-2.9-3.2-4m-2.7 8.1c-.4-.3-.8-.5-1.3-.6m.1 1.3c.4-.2.8-.4 1.2-.7m.1 1.8c.1-.3.1-.5.1-.8 0-.3 0-.6-.1-.9m2.4.1c-.8-.1-1.7-.2-2.5-.2m0 0c.1-.3.2-.7.2-1.1 0-.3 0-.6-.1-.9m1 7.3c0-.6-.3-1.1-.6-1.6m.6 1.6c-.4-.1-.9-.2-1.3-.2m.4 1.3c.4-.3.7-.6.9-1m.8 1.7c-.1-.6-.3-1.2-.8-1.7m0-.1c.7-.3 1.5-.7 2.2-1.1m2.7 7.2c.9-1.3 1.4-2.7 1.6-4.3m-1.6 4.3c-.7-.9-1.5-1.5-2.5-2m-.2 2.9l2.7-.9m-.8 3.2c.5-.9.8-2 .8-3v-.2m4.2 2.2c-1.2-1-2.7-1.8-4.2-2.3m-.3 8.6v-.4c0-.6-.2-1.2-.5-1.8m.5 2.2c-.5-.2-1-.4-1.6-.4m.4 1.4c.4-.3.9-.7 1.2-1.1m.5 2.1v-.3c0-.6-.2-1.2-.5-1.8m2.9-.5c-1 .1-1.9.3-2.9.5m2.9 6.4c.9-.7 1.8-1.4 2.5-2.3m-2.5 2.3c-.2-.8-.7-1.4-1.3-1.9m1.3 1.9c-.6 0-1.3 0-1.9.1m.9 1.7c.4-.5.8-1.1 1-1.8m1.7 2.3c-.3-.9-.9-1.7-1.7-2.2m-1.2 5.1v-.3c0-.2 0-.4-.1-.6m1.3.1c-.2 0-.5-.1-.8-.1h-.5"/><path fill="none" stroke="#000" stroke-width=".75" d="M20.6 289v-.4c0-.2 0-.4-.1-.6m.1 1c-.2-.1-.4-.2-.7-.2m.2.6c.2-.1.4-.3.5-.4m.4 2.9c.1-.1.3-.3.4-.5m.3.7c0-.3-.2-.5-.4-.7m0 0c.3-.2.6-.3.9-.5m-.9.5c0-.3-.2-.5-.3-.7m.3.7h-.6m2.7 2.4c-.3.1-.7.2-1 .4m.8.8c.2-.3.3-.7.3-1.1v-.1m1.5.9c-.4-.4-1-.7-1.5-.9m-.1 0c.3-.5.6-1.1.7-1.7m-.7 1.7c-.3-.3-.6-.6-1-.8m.6 4.2c.1-.1.3-.2.4-.4"/><path fill="none" stroke="#000" stroke-width=".75" d="M23.5 297.5c0-.1 0-.1 0 0 0-.3-.1-.5-.2-.6m1-.3c-.3 0-.6.1-.9.2m0 0s0-.1 0 0c0-.3-.1-.5-.2-.7m.2.7c-.2-.1-.3-.1-.5-.1m1.4 2.1c-.2 0-.4 0-.6.1m.3.4c.1-.2.2-.3.3-.5m.5.6c-.1-.3-.3-.5-.5-.6m0 0c.3-.2.5-.4.8-.7m-.8.7c-.1-.2-.2-.4-.4-.6m3.2 2.6c-.4-.3-.9-.5-1.4-.6m.3 1.4c.4-.2.8-.5 1.1-.8m.1 1.7c.1-.2.1-.5.1-.7 0-.3 0-.6-.1-.9m2.3.3c-.8-.3-1.6-.4-2.4-.4m0 0c.1-.4.2-.8.2-1.2 0-.3 0-.6-.1-.9m.9 6.5c-.2 0-.4-.1-.6-.1h-.3m.3.9c.2-.2.4-.5.6-.8m.5 1.2c-.1-.4-.2-.8-.5-1.1m1.5-.8c-.5.2-1 .5-1.6.7m.1 0c-.1-.4-.2-.8-.5-1.1m3.2 4.7c-.3-.5-.7-.8-1.2-1.1m1.2 1.1c-.4.1-.9.2-1.3.4m.8 1c.2-.4.4-.9.4-1.4m1.7 1.3c-.4-.6-1-1-1.6-1.3m0 0c.5-.6.9-1.3 1.2-2m-1.8 5.7c.1-.1.3-.2.4-.4m.1.6c0-.3-.1-.5-.2-.6m1-.1c-.3 0-.6.1-.9.1m-.1 0c0-.3-.1-.5-.2-.7m.2.7c-.2-.1-.4-.1-.5-.1m1.4 1.9c-.2 0-.3 0-.5.1m.2.4c.1-.1.2-.3.2-.4m.5.5c-.1-.2-.2-.4-.4-.5m0-.1c.2-.2.5-.4.7-.6m-.7.6c-.1-.2-.2-.4-.4-.5m2.5 2.2c-.3-.2-.6-.4-1-.5m.2 1c.3-.2.6-.3.8-.5"/><path fill="none" stroke="#000" stroke-width=".75" d="M33.4 316.7c.1-.2.1-.4.1-.7v-.5m1.5.7c-.5-.3-1-.5-1.5-.5m0-.1c.2-.4.3-.9.3-1.4v-.2m.1 4.4h-.6m.3.4c.1-.1.2-.3.3-.4m.3.6c0-.2-.1-.4-.3-.6m.9-.3l-.9.3m0 0c0-.2-.1-.5-.3-.7m1.5 2.5c-.1-.2-.3-.4-.5-.5m.5.5c-.2 0-.4.1-.6.1m.4.5c.1-.2.2-.4.2-.6m.6.6c-.1-.3-.4-.5-.6-.6m0 0c.2-.2.5-.5.7-.8m2.8 2.5v-.4c0-.7-.2-1.3-.5-1.9m.5 2.3c-.5-.2-1.1-.4-1.7-.4m.5 1.5c.4-.3.8-.7 1.1-1.1m.5 1.9v-.2c0-.6-.2-1.2-.5-1.7m2.9-.3h-.5c-.8 0-1.6.1-2.3.2m2.3 5.2c-.2-.5-.5-1-1-1.4m1 1.4c-.4 0-.8.1-1.3.2m.7 1c.3-.4.4-.7.6-1.2m1 1.4c-.2-.6-.6-1-1-1.4m0 0c.6-.4 1.2-.9 1.8-1.4m3.1 5.6c.5-1.1.9-2.2 1-3.4m-1 3.4c-.6-.6-1.3-1-2.1-1.2m2.1 1.2c-.6.3-1.2.7-1.8 1m1.7 1.4c.2-.5.2-1 .2-1.5 0-.3 0-.5-.1-.8m3.1 1.2c-.9-.7-2-1.1-3.1-1.3m.8 5.6c-.2 0-.4-.1-.5-.1h-.4m.4.8c.2-.2.4-.5.5-.8m.5 1.1c-.1-.4-.2-.8-.5-1.1m1.6-.5c-.5.2-1.1.4-1.6.6m0 0c-.1-.5-.2-.9-.5-1.2m2.7 4.2c-.2-.4-.5-.6-.9-.8m.9.8l-.9.3m.6.6c.2-.3.2-.6.3-.9m1 .9c-.2-.4-.6-.7-1-.9m0 0c.4-.4.7-.9 1-1.3m4 3.7c.1-.4.1-.7.1-1.1 0-.8-.1-1.5-.4-2.3m.3 3.4c-.7-.4-1.5-.6-2.3-.6m.8 2.1c.5-.5 1-.9 1.5-1.4m.5 2.3v-.3c0-.7-.2-1.4-.5-2.1m3.6.2c-.7-.2-1.4-.3-2.1-.3-.5 0-1 0-1.4.1m2.4 6c-.2-.6-.5-1-1-1.4m1 1.4c-.4 0-.9.1-1.3.2m.8 1c.2-.4.4-.7.5-1.1m1 1.3c-.2-.5-.5-1-1-1.3m1.9-1.4c-.6.4-1.3.8-1.9 1.3m4.2 3.8c.5-.8.8-1.7 1.1-2.6m-1.1 2.6c-.4-.5-1-.9-1.7-1m1.7 1c-.5.2-1 .5-1.4.7m1.2 1c.1-.4.2-.8.2-1.3v-.4m2.1 1.2c-.6-.6-1.3-1-2.1-1.1m.2 4.2c.1-.2.2-.3.3-.5m.3.7c0-.2-.2-.5-.3-.6m1-.4c-.3.1-.7.2-1 .4m0-.1c0-.3-.2-.6-.4-.8m.4.8h-.6m1.9 1.7c-.2 0-.3.1-.5.2m.4.3c.1-.2.1-.3.1-.5m.6.5c-.1-.2-.3-.4-.5-.5m-.1 0c.2-.2.4-.5.6-.7m-.6.7c-.1-.2-.3-.3-.5-.4m3 1.7c-.3-.2-.7-.3-1.1-.3m1.1.3c-.2.2-.5.4-.7.6m.9.5v-.2c0-.3-.1-.6-.2-.9m1.6.2c-.4-.2-.8-.2-1.2-.2h-.4m0 0c.1-.2.1-.5.1-.8 0-.3 0-.6-.1-.9m1 4.2c-.2 0-.3 0-.5.1m.3.4c.1-.1.1-.3.2-.4m.4.4c-.1-.2-.2-.4-.4-.5m.8-.4c-.3.1-.5.3-.7.5m-.1-.1c-.1-.2-.2-.4-.4-.6m1.9 2c-.1-.2-.3-.3-.5-.4m.5.4c-.2.1-.3.1-.5.2m.4.3c0-.1.1-.3.1-.4v-.1m.6.4c-.2-.2-.4-.3-.6-.4m0 0c.2-.3.3-.5.4-.8m2.8 1.6c-.1-.7-.3-1.4-.7-1.9m.7 1.9c-.3-.1-.5-.1-.8-.1-.2 0-.5 0-.7.1m.8 1.1c.3-.3.5-.7.7-1.1m.7 1.4c-.1-.5-.3-1-.7-1.5m2.3-.5c-.8.1-1.5.2-2.3.5m2.6 3.7c-.2-.4-.5-.7-.9-.9m.9.9l-.9.3m.6.7c.1-.3.2-.6.2-.9m1 .8c-.2-.4-.5-.7-.9-.8m0-.1c.4-.4.8-.8 1.2-1.3m2.7 3.6c.2-.7.4-1.5.4-2.2v-.1m-.4 2.3c-.5-.3-1-.5-1.6-.6m1.6.6c-.4.3-.7.6-1.1.9"/><path fill="none" stroke="#000" stroke-width=".75" d="M77.1 370.9v-.4c0-.4-.1-.7-.2-1.1m2.1.6c-.6-.4-1.3-.6-2.1-.6m1.2 3.4c-.2 0-.4 0-.6.1m.3.4c.1-.2.2-.3.2-.5m.5.5c-.1-.2-.2-.4-.4-.6m.8-.4c-.3.1-.6.3-.9.5m.1 0c-.1-.3-.2-.5-.5-.7m2 2.1c-.1-.2-.3-.3-.6-.4m.6.4c-.2.1-.3.1-.5.2m.5.4c0-.1.1-.3.1-.4v-.1m.6.3c-.2-.2-.4-.3-.6-.4m-.1 0c.2-.3.3-.5.5-.8m2.4 1.7s0-.1 0 0c0-.7-.1-1.2-.4-1.7m.4 1.7c-.3-.1-.5-.1-.8-.1h-.4m.5 1c.2-.3.4-.6.7-.8m.4 1.1c0-.4-.2-.8-.4-1.2"/><path fill="none" stroke="#000" stroke-width=".75" d="M84.3 375h-.6c-.4 0-.8.1-1.2.2m1.6 2.6c-.1-.2-.3-.5-.6-.6m.6.6c-.2 0-.4.1-.6.2m.5.4c.1-.2.1-.4.2-.6m.5.6c-.1-.2-.3-.4-.5-.5m.7-.8c-.3.2-.5.5-.8.7m2.1 1.4c.2-.4.3-.8.3-1.2m-.3 1.2c-.2-.2-.5-.3-.8-.3m.8.3c-.2.1-.4.2-.5.4m.5.4v-.7m.9.3c-.3-.2-.6-.3-.9-.4m7.5-1.4c-1.1.4-2.1 1-3 1.7m0-.1c-.3-.9-.9-1.7-1.6-2.3m1.6 2.3c-.7 0-1.4.1-2 .4m1.3 1.4c.3-.6.5-1.2.7-1.8m1.5 1.9c-.3-.8-.8-1.4-1.4-1.9m5.1 4.7c.5-.8.9-1.7 1.4-2.6m-1.4 2.6c-.5-.5-1.1-.9-1.8-1.1m1.8 1.1c-.5.2-1 .5-1.4.8m1.3.9c.1-.4.1-.8.1-1.1v-.5m1.9 1c-.5-.6-1.2-.9-1.9-1.1m12.8 2.1c-.6-.1-1.2-.2-1.8-.2-.9 0-1.8.1-2.7.4m-.1.1v-.3c0-1.5-.3-3-.9-4.4m.9 4.7c-.7-.2-1.4-.4-2.1-.4-.4 0-.8 0-1.2.1m3.3.3c-.6.7-1.1 1.5-1.7 2.3m2.8.6c-.1-1.1-.5-2.1-1.1-3m4.2 6.6c-.3-.6-.8-1-1.4-1.3m1.4 1.3c-.5.1-.9.3-1.3.5m1.1.8c.1-.4.2-.9.2-1.3m1.3 1.1c-.3-.5-.8-.9-1.3-1.1m1.7-1.7c-.6.5-1.2 1.1-1.7 1.7m4.7 2.6c.3-.8.4-1.6.6-2.4m-.6 2.4c-.5-.4-1.1-.5-1.7-.6m1.7.6c-.4.3-.7.6-1 .9m1.2.6v-.2c0-.4-.1-.8-.2-1.2m2 .5c-.6-.4-1.2-.6-1.9-.6m13.5-2.4c-1.8.5-3.5 1.4-5.1 2.5m.1-.1c-.5-1.6-1.5-3.1-2.8-4.3m2.8 4.3c-1.2 0-2.4.3-3.5.8m2.3 2.3c.4-1 .8-2 1.1-3.1m2.5 3.1c-.5-1.2-1.3-2.3-2.4-3m9.7 3.3c-.6 1.1-1.2 2.3-1.8 3.4m.1 0c-.7-.7-1.6-1.1-2.5-1.3m2.5 1.3c-.6.3-1.2.8-1.8 1.3m1.8.9v-.8c0-.4 0-.9-.1-1.3m2.6 1.2c-.7-.7-1.6-1.1-2.5-1.2m13.7 2.3c-.7-.2-1.4-.3-2-.3-.8 0-1.5.1-2.3.3m0 0v-.4c0-1.5-.2-3-.6-4.5m.6 4.9c-.7-.2-1.4-.4-2.1-.4-.5 0-.9.1-1.4.2m3.5.2c-.6.8-1.1 1.5-1.6 2.3m2.8.6c-.2-1-.6-2-1.2-2.8m4.1 5.6c-.4.1-.7.3-1 .6m1 .5c0-.3.1-.6.1-.9v-.2m1.1.7c-.3-.4-.7-.6-1.1-.8m1.2-1.4c-.5.5-.9 1-1.3 1.5m0 0c-.3-.4-.8-.8-1.3-.9m5.1 2.5c-.3-.2-.7-.3-1.1-.3h-.2m1.3.3l-.7.7m1 .3c0-.3-.1-.7-.3-1m1.4.3c-.3-.2-.7-.3-1.1-.3h-.2m-.1 0l.3-1.8m5.2 1.5c-.3-1-.9-1.9-1.6-2.7m1.6 2.7c-.7 0-1.5.2-2.1.5m2.1-.5l-.6 1.8m2-.1c-.3-.7-.8-1.2-1.4-1.7m2.9-1.2c-1 .2-2 .6-2.9 1.2m4.2 3.5c-.3-.3-.8-.5-1.2-.6m1.2.6c-.3.2-.6.4-.8.6m.9.3c0-.4 0-.7-.1-1m1.2.6c-.3-.3-.7-.5-1.2-.5m.8-1.6c-.3.5-.6 1-.8 1.6m4 .9v-.2c0-.6-.1-1.1-.2-1.7m.2 1.9c-.2-.1-.5-.1-.8-.1-.2 0-.4 0-.6.1m1.4 0l-.6.9m1.1.1c-.1-.4-.2-.7-.5-1M162.2 416.2c-.3-.1-.5-.1-.8-.1-.3 0-.5 0-.8.1m10.1-5.9c-1.3 1.1-2.4 2.3-3.4 3.7m0 0c-.9-1.2-2.1-2.1-3.4-2.6m3.4 2.6c-1 .3-1.9.9-2.6 1.6M167.2 416.8c.1-.7.1-1.5.1-2.2v-.6m2.9 1.9c-.8-.9-1.8-1.5-2.9-1.9m9.1 3.6c.2-1.3.4-2.5.6-3.8m-.6 3.8c-.7-.3-1.4-.5-2.2-.5h-.6m2.8.5c-.5.5-1 1.1-1.3 1.7m1.9.4c-.1-.7-.4-1.4-.7-2.1m2.9.5c-.7-.3-1.4-.5-2.1-.5-.2 0-.5 0-.7.1m15.2-2.7c-1.7.2-3.4.8-4.8 1.8m0 0c-.6-1.8-1.5-3.5-2.6-5m2.6 5c-1.3 0-2.6.4-3.7 1m3.7-1c-.3 1-.6 2.1-.9 3.1m3.3-.3c-.6-1.1-1.4-2-2.4-2.7m6.9 4.9c-.6-.4-1.2-.6-1.9-.7m1.9.7c-.4.3-.7.6-1 1.1m1.3.3c-.1-.5-.2-.9-.3-1.4m1.7.6c-.5-.3-1.1-.5-1.7-.5m1-2.4c-.4.7-.7 1.5-1 2.3m5.4.7c-.1-.8-.2-1.6-.4-2.4m.4 2.4c-.2-.1-.4-.1-.7-.1-.4 0-.7.1-1 .2m1.7-.1l-.6 1.2m1.3 0c-.2-.4-.4-.8-.7-1.2m1.9-.2c-.2 0-.4-.1-.6-.1-.4 0-.8.1-1.2.2m10.6-6c-1.4.9-2.5 2-3.4 3.3m-.1 0c-.9-1.2-2.2-2.2-3.6-2.9m3.6 2.9c-1 .4-1.9 1-2.7 1.7m2.8 1.1V419.7m2.7 1.7c-.8-.8-1.7-1.4-2.8-1.7m8.4 0c-.2 1-.3 1.9-.4 2.9m0 0c-.5-.2-1-.3-1.5-.3-.2 0-.5 0-.7.1m2.2.2c-.4.4-.7.9-.9 1.4m1.6.1l-.6-1.5"/><path fill="none" stroke="#000" stroke-width=".75" d="M216.4 422.8c-.4-.2-.9-.3-1.3-.3-.3 0-.5 0-.8.1m9.6-1.7c-1 .1-1.9.4-2.7.9m.1 0c-.4-1.1-.8-2.1-1.4-3.1m1.4 3.1c-.8 0-1.6.2-2.3.7m2.3-.7c-.2.6-.3 1.2-.4 1.9m1.7-.4c-.4-.6-.8-1.1-1.4-1.5m4.1 3.2c-.1-.2-.1-.4-.2-.6m.8.1c-.2-.1-.5-.2-.7-.2h-.1m.4-1.1c-.2.4-.3.8-.4 1.1m0 .1c-.3-.2-.6-.2-.9-.2h-.1m1 .2c-.2.2-.3.4-.4.6m2.9-.6c-.1.2-.2.4-.2.6m.5-.1c-.1-.2-.2-.3-.4-.5"/><path fill="none" stroke="#000" stroke-width=".75" d="M228.4 424.3h-.2c-.2 0-.4.1-.6.2m0-.1c-.1-.4-.1-.7-.2-1m.2 1h-.2c-.2 0-.4 0-.6.1m3.7-1.3c-.4.1-.8.4-1 .7m1-.7v1.1m1-.5c-.3-.3-.7-.5-1-.6m1.3-1.2c-.5.3-1 .7-1.3 1.2m0 0c-.4-.5-.8-.9-1.4-1.2m4.2 2.2c-.1.1-.2.3-.3.5m.5-.1c-.1-.2-.1-.3-.2-.5m.7.1c-.1 0-.3-.1-.4-.1h-.3m.1-.9c-.1.3-.1.6-.1.9m0 .1c-.1-.1-.3-.1-.5-.1h-.3m3-.2c-.2 0-.5.1-.7.2m.7-.2c-.1.2-.1.4-.1.5m.5-.1c-.1-.2-.2-.3-.4-.4m.7-.2c-.3 0-.5.1-.8.3m.1-.1c-.1-.3-.2-.6-.4-.9m3.2-1.2c-.6-.4-1.3-.7-2-.8m2 .8c-.4.3-.8.7-1 1.1m1.4.3c-.1-.4-.2-.9-.4-1.3m1.6.4c-.5-.3-1-.5-1.6-.5m1.1-2.1c-.5.6-.9 1.4-1.1 2.1m4.5.5h-.4c-.3 0-.6.1-.8.2m1.2-.2c-.2.3-.3.6-.3.9m.9-.1c-.1-.3-.3-.5-.5-.8m1.2-.2h-.4c-.3 0-.6.1-.9.2m-.2-1.7c.1.6.1 1.1.2 1.7m4.2-1.5c-.4-.7-.9-1.3-1.5-1.8m1.5 1.8c-.5.1-1 .4-1.4.8m1.4-.8v1.3m1.2-.4c-.3-.4-.7-.6-1.2-.8m1.7-1.2c-.7.2-1.2.6-1.7 1.1m3.1 1.3c-.1.1-.2.3-.3.5m.5 0c-.1-.2-.1-.3-.2-.5m.6 0c-.1 0-.3-.1-.4-.1h-.3m.2-.8c-.1.3-.1.6-.2.9"/><path fill="none" stroke="#000" stroke-width=".75" d="M250.1 422.1c-.2-.1-.3-.1-.5-.1h-.3m2.8-.2c-.2 0-.4.1-.6.2m.6-.2c0 .2-.1.3-.1.5m.4-.1c-.1-.1-.2-.3-.3-.4m.6-.2c-.2 0-.5.1-.6.2m0 0c-.1-.3-.2-.5-.3-.8m2.6-.6c-.4-.4-.9-.6-1.4-.8m1.4.8c-.3.2-.6.5-.8.8m1 .1c-.1-.3-.1-.6-.2-.9m1 .4c-.3-.2-.7-.4-1-.4m.9-1.3c-.4.4-.7.8-1 1.3m2.8.4h-.3c-.1 0-.3 0-.4.1m.7-.1c-.1.2-.2.3-.2.5m.5 0c-.1-.2-.2-.3-.3-.4m.7-.1h-.2c-.1 0-.3 0-.4.1m-.1-1v1m2.1-.7c-.2-.3-.3-.6-.6-.9m.6.9c-.2 0-.5.1-.7.3m.7-.3v.5m.5-.1c-.1-.2-.3-.3-.5-.4m.8-.4c-.3.1-.5.2-.8.4m3.3-5.5c-.3.9-.5 1.8-.6 2.8m0 0c-.5-.2-1.1-.4-1.7-.4-.2 0-.4 0-.7.1m2.4.3c-.4.4-.7.9-.9 1.5m1.6-.1c-.2-.5-.4-1-.7-1.4M263.8 417.6c-.4-.1-.8-.2-1.2-.2-.2 0-.5 0-.7.1m5.6-.7c-.2-.7-.5-1.4-.8-2.2m.8 2.2c-.6 0-1.1.2-1.6.5m1.6-.5c-.1.4-.2.8-.2 1.2m1.1-.2c-.3-.3-.6-.7-.9-.9m1.6-.6c-.6 0-1.2.2-1.6.6m7.7-6c-.9.6-1.7 1.5-2.2 2.5m0 0c-.9-.8-1.9-1.5-3-2m3 2c-.7.4-1.4 1-1.8 1.7m1.8-1.7c.1.7.2 1.4.4 2m1.8-1.1c-.6-.5-1.4-.8-2.2-.9m5.5 1h-.4c-.3 0-.6.1-.9.2m1.3-.2c-.2.3-.3.6-.3.9m.9-.1c-.2-.3-.4-.5-.6-.7m1.2-.2h-.3c-.3 0-.6.1-.8.2m-.2-1.8v.4c0 .4 0 .9.1 1.3m3.5-1.1c-.3-.5-.6-1-.9-1.4m.9 1.4c-.4.1-.8.3-1 .6m1-.6v1m.8-.5c-.2-.2-.5-.4-.8-.6m1.2-.6c-.4.1-.8.3-1.2.7m5.2-7.4c-.6 1-1 2.2-1.2 3.4m-.1-.1c-.9-.5-2-.7-3.1-.7h-.2m3.3.7c-.6.6-1 1.2-1.2 2m2.1-.1c-.3-.6-.6-1.3-.9-1.9m2.5.3c-.6-.2-1.1-.3-1.7-.3-.2 0-.5 0-.7.1m5.8-2.8c.2.7.4 1.5.6 2.2m0 0c-.6 0-1.2.2-1.6.5m1.6-.5c-.1.4-.2.8-.2 1.3m1.1-.4l-.9-.9m1.6-.5c-.6 0-1.1.2-1.6.5m6.6-4.4c-.7.4-1.3.9-1.7 1.6m0 0c-.6-.7-1.3-1.3-2.1-1.8m2.1 1.8c-.6.3-1.1.7-1.5 1.3m1.5-1.3c.1.5.1 1 .3 1.6m1.3-.9c-.5-.3-1-.6-1.6-.7m3.8.7c-.1.2-.1.4-.2.6m.6-.1c-.1-.2-.2-.3-.4-.4m.7-.2h-.1c-.2 0-.4 0-.6.1"/><path fill="none" stroke="#000" stroke-width=".75" d="M301 405.6v.3c0 .3 0 .5.1.8"/><path fill="none" stroke="#000" stroke-width=".75" d="M301.1 406.6h-.2c-.2 0-.4 0-.6.1m2.8-.8l-.6.3m.6-.3v.5m.5-.2c-.1-.1-.3-.2-.4-.3m.5-.4c-.2.1-.4.2-.6.4m0 0c-.2-.3-.3-.5-.5-.8m2.5-1.2c-.5-.3-1-.4-1.5-.5m1.5.5c-.3.3-.5.6-.6.9m.6-.9c.1.3.3.6.4.9m.7-.8c-.3-.1-.6-.2-.9-.2h-.2m.7-1.4c-.3.4-.6.9-.7 1.4m2.7-.1c-.2 0-.5.1-.6.2m.6-.2c0 .1-.1.3-.1.5m.5-.1c-.1-.1-.2-.2-.4-.3m.6-.3c-.2 0-.4.1-.6.2m-.2-.8c.1.3.1.6.2.8m1.8-.9c-.2-.2-.4-.5-.7-.7m.7.7c-.2.1-.4.2-.5.4m.5-.4c0 .2 0 .3.1.5m.4-.3c-.2-.1-.3-.2-.5-.2m.5-.5c-.2.1-.4.3-.6.5m2-5.2c-.1.6-.2 1.1-.2 1.7v.6m0 0c-.3-.1-.6-.1-.9-.1-.4 0-.8.1-1.2.2m2.1-.1c-.3.4-.4.9-.5 1.4m1.3-.3c-.2-.4-.5-.7-.8-1m1.6-.2h-.5c-.4 0-.8.1-1.1.2m4.3-1.3c-.3-.5-.6-1-.8-1.5m.8 1.5c-.4.1-.8.3-1.1.6m1.1-.6v.9m.8-.4c-.2-.2-.5-.4-.8-.5m1.1-.7c-.4.1-.8.3-1.1.6m4.5-4.7c-.5.5-1 1.1-1.2 1.8m.1-.1c-.7-.5-1.4-.8-2.2-1.1m2.2 1.1c-.5.3-.8.8-1 1.3m1-1.3c.1.4.3.9.5 1.3m.9-.9c-.5-.2-1-.3-1.5-.3m3.6-.1c-.3 0-.5.1-.8.2m.8-.2c-.1.2-.1.3-.1.5v.1m.5-.2l-.4-.4m.6-.2c-.2 0-.5.1-.7.2m-.2-.9c0 .3.1.7.2 1m2-1.1c-.2-.2-.4-.5-.7-.7m.7.7c-.2.1-.4.2-.5.4m.5-.4c0 .2 0 .3.1.5m.3-.3c-.2-.1-.3-.2-.5-.2m.6-.5c-.2.1-.4.3-.6.5m2.2-4.2c-.3.5-.4 1.1-.4 1.8m0-.1c-.4-.1-.8-.2-1.2-.2h-.5m1.7.2c-.3.3-.4.7-.5 1.1m1.1-.2l-.6-.9"/><path fill="none" stroke="#000" stroke-width=".75" d="M327.3 392.1c-.2 0-.4-.1-.6-.1-.2 0-.5 0-.7.1m2.7-1.6c.1.3.3.7.4 1m.1-.1c-.3 0-.5.2-.7.4m.7-.4v.6m.4-.2c-.1-.1-.3-.2-.5-.3m.7-.4c-.3 0-.5.2-.7.3m2.7-2.3c-.3.2-.5.5-.6.8m-.1 0c-.3-.3-.6-.5-1-.7m1 .7c-.2.1-.4.4-.6.6m.6-.6c.1.2.1.4.2.6m.5-.4c-.2-.1-.4-.2-.7-.2m1.6-1.1c-.3 0-.7.1-1 .3m1-.3c-.1.2-.1.4-.1.6v.1m.6-.2c-.2-.2-.3-.3-.5-.4m.8-.3c-.3 0-.6.1-.8.3m-.2-1.2c0 .4.1.8.2 1.2m2.2-1.3c-.2-.3-.5-.5-.7-.8m.7.8c-.2.1-.4.3-.6.5m.6-.5c0 .2.1.4.1.6m.4-.3c-.2-.1-.3-.2-.5-.2m.6-.6c-.2.1-.5.3-.6.5m2.3-4.1c-.3.5-.5 1-.5 1.6m0 0c-.5-.2-1-.3-1.5-.3h-.2m1.7.3c-.3.3-.4.7-.5 1.1m.5-1.1l.6.9"/><path fill="none" stroke="#000" stroke-width=".75" d="M337.9 385.1c-.2 0-.4-.1-.6-.1s-.4 0-.6.1m2.4-1.4c.1.3.2.6.4.8m0 .1c-.2 0-.5.1-.6.3m.6-.3v.5m.4-.3c-.1-.1-.3-.2-.4-.3m.6-.2c-.2 0-.4.1-.6.3m2.1-1.9c-.2.1-.4.3-.5.6m0 0c-.2-.2-.5-.4-.8-.5m.8.5c-.2.1-.3.3-.4.5m.4-.5c0 .2.1.3.2.5m.3-.3c-.2-.1-.3-.1-.5-.1m2.7-3.4c-.6 0-1 .1-1.5.4m0-2.3c0 .3-.1.6-.1.8 0 .5 0 .9.1 1.4"/><path fill="none" stroke="#000" stroke-width=".75" d="M342.4 380.3h-.4c-.5 0-1.1.1-1.6.4m2-.4c-.2.4-.3.8-.3 1.2v.1m1.2-.4l-.9-.9m4.6-2.4c-.4.1-.7.4-.9.7m-.9-1.2l.9 1.2m0 0c-.4.1-.7.4-.9.7m.9-.7c0 .3.1.6.1.8m.7-.4c-.2-.2-.5-.3-.8-.3m3.8-2.9c-.3-.1-.6-.1-.9-.1h-.4m.8-1.6c-.4.4-.7 1-.8 1.6m0-.1c-.6-.3-1.2-.6-1.9-.7m1.9.7c-.3.3-.6.7-.7 1.2m.7-1.2c.2.3.3.7.6 1m2-2.1c.1.3.2.5.3.7m0 0c-.2 0-.4.1-.6.3m.6-.3v.5m.3-.2c-.1-.1-.2-.2-.4-.2m.6-.3c-.2 0-.4.1-.5.3m1.7-1.5c-.2.1-.3.3-.4.4m0 0c-.2-.2-.4-.3-.6-.5m.6.5c-.2.1-.3.2-.3.4m.3-.4c0 .1.1.3.1.4m.3-.3c-.1-.1-.3-.1-.4-.1m1.9-2.2h-.2c-.3 0-.5.1-.7.2m.2-1.4c-.1.3-.2.7-.2 1v.3m0 .1c-.2 0-.4-.1-.6-.1-.2 0-.5 0-.7.1m1.3 0c-.2.3-.2.6-.2.9m.8-.3c-.2-.2-.4-.4-.5-.6m2.5-1.2c-.2.1-.3.2-.4.3m-.4-.6c.1.2.3.4.4.6m0 .1c-.2.1-.4.2-.5.3m.5-.3c0 .2 0 .3.1.4m.3-.3c-.1-.1-.2-.1-.4-.2m1.7-1.1c-.1 0-.3-.1-.4-.1h-.1m.4-.6c-.2.2-.3.4-.4.6m0 0c-.2-.2-.5-.3-.8-.4m.8.4c-.2.1-.3.3-.3.5m.3-.5c.1.1.1.3.2.4m1.6-2.7c-.3-.3-.7-.5-1-.7m1.3-.7c-.5.1-1 .3-1.4.7m-.6-2.2c.1.7.3 1.5.6 2.2m0 0c-.6.1-1.3.3-1.8.7m1.8-.7c-.1.2-.1.5-.1.7 0 .2 0 .4.1.7m4.6-3.7c-.3-.1-.6-.2-1-.3m.9-1c-.4.2-.7.6-.9 1m0 0c-.4-.4-.9-.8-1.3-1.2m1.3 1.2c-.4.2-.7.5-.9.9m.9-.9l.3.9m2.2-5.2c.3.4.6.8 1 1.2"/><path fill="none" stroke="#000" stroke-width=".75" d="M365.7 360.1h-.5c-.4 0-.9.1-1.3.2m.7-2.5c-.4.7-.6 1.5-.6 2.3v.1"/><path fill="none" stroke="#000" stroke-width=".75" d="M364 360.2c-.7-.2-1.4-.3-2.1-.3h-.6m2.7.3c-.4.5-.6 1.1-.6 1.7m5.2-3.5c-.3.1-.5.3-.7.5m-.6-1c.2.4.4.7.6 1.1m0-.1c-.3.1-.6.3-.8.6M367.9 358.9s0 .1 0 0c0 .2 0 .5.1.7m.5-.4l-.6-.3m2.5-1.8c-.2-.1-.4-.1-.6-.1h-.1m.5-.8c-.2.2-.4.5-.5.8m0 0c-.3-.2-.7-.4-1.1-.6m1.1.6c-.2.2-.4.4-.5.7m.5-.7l.3.6m2-3.5l-1.2-.9m1.6-.6c-.6.1-1.1.3-1.6.6m-.3-2.4v.5c0 .6.1 1.3.3 1.9m0 0c-.8 0-1.6.2-2.3.6M370.8 353.2c-.1.3-.2.7-.2 1.1v.6m4.8-3.8c-.3-.1-.5-.2-.8-.2m.8-.8c-.3.2-.6.5-.8.8m-1.1-1.1c.3.4.7.8 1.1 1.1m0 0c-.4.2-.6.5-.8.8m.8-.8c0 .3.1.6.3.8m1.8-3.9c.2.3.4.6.6.8m.5-.9h-.4c-.2 0-.5 0-.7.1m.5-1.5c-.3.4-.5.9-.5 1.5m0 0c-.6-.2-1.2-.4-1.8-.5m1.8.5c-.3.3-.5.7-.5 1.2m2.5-2.5l.3.6m0 0c-.2.1-.3.2-.5.3m.5-.3c0 .1 0 .3.1.4m.3-.3c-.1-.1-.2-.1-.3-.1m.3-.3c-.1.1-.3.2-.4.3m1.2-1.4c-.1.1-.2.2-.2.4m0 0c-.2-.1-.3-.2-.5-.3m.5.3c-.1.1-.2.2-.2.4m.2-.4c0 .1.1.2.2.3m.1-.3h-.4m1.3-1.9c-.2 0-.5.1-.7.2m0-1c0 .2-.1.3-.1.5s0 .3.1.5m0 0h-.2c-.3 0-.6.1-.8.2m1-.2c-.1.2-.1.3-.1.5v.2m.1-.7c.2.1.3.3.5.4m1.3-1.5l-.3.3m-.3-.4c.1.1.2.3.4.4m-.1 0l-.3.3m.3-.3c0 .1 0 .2.1.3m.2-.3c-.1 0-.2-.1-.3-.1m1.1-1h-.4m.2-.4c-.1.1-.2.3-.2.4m0 .1c-.2-.1-.4-.1-.5-.2m.5.2c-.1.1-.2.2-.2.4m.2-.4c.1.1.1.2.2.3m.8-2c-.2-.1-.5-.3-.7-.4m.8-.5c-.3.1-.6.3-.8.5m-.5-1.3c.1.5.3.9.5 1.3m0 0c-.4.1-.8.3-1.1.6m1.1-.6v.2c0 .2 0 .4.1.7m2.4-2.6c-.2-.1-.4-.1-.6-.1m.5-.6c-.2.2-.4.4-.4.6m-.1 0l-.8-.6m.8.6c-.2.1-.4.4-.4.6m.4-.6c.1.2.1.4.2.5m.9-2.9l.6.6m.3-.8c-.3 0-.6.1-.9.2m.2-1.2c-.1.3-.2.6-.2 1v.2m0 0c-.3-.1-.6-.1-.9-.1h-.5m1.4.1c-.2.3-.2.6-.2.9v.1m2.4-2.1l-.3.3m-.4-.5c.1.2.2.3.3.5m.1 0c-.1.1-.3.2-.3.3m.3-.3c0 .1 0 .2.1.3m.2-.2c-.1 0-.2-.1-.3-.1m1-1h-.4m.3-.4c-.1.1-.2.2-.2.4m0 0c-.2-.1-.3-.1-.5-.2m.5.2c-.1.1-.2.2-.2.3m.2-.3c0 .1.1.2.2.2m.7-1.6c-.2-.1-.3-.2-.5-.3m.6-.3c-.2 0-.5.1-.6.3m-.2-1v.1c0 .3.1.6.2.9m0 0c-.3 0-.7.1-1 .3m1-.3v.7m1.7-1.7c-.1 0-.2-.1-.3-.1m.3-.3l-.3.3m-.4-.3l.4.4m0 0l-.3.3m.3-.3c0 .1.1.2.1.3m.6-1.5c.1.1.2.2.2.3m.2-.4c-.1 0-.1 0 0 0h-.4m.1-.5c-.1.2-.2.3-.2.5m.1.1c-.2-.1-.4-.1-.7-.1m.7.1c-.1.1-.1.3-.2.4m.1-2.9c0 .4.1.7.3 1.1m.7-.8c-.3-.1-.6-.2-1-.3m.9-.9c-.4.2-.7.5-1 .8m-.9-1.5c.3.6.6 1.1 1 1.6m0 0c-.5.2-.9.5-1.2 1m3.5-4c.1.3.3.5.5.7m.4-.7h-.8m.4-1c-.3.3-.5.6-.5 1m0 0c-.5-.2-.9-.5-1.4-.7m1.4.7c-.3.3-.4.6-.5 1m1.6-5.3c-.1.3-.2.7-.2 1 0 .2 0 .5.1.7m.1-1.7c.4.3.8.6 1.2.8m.3-1.4c-.5.1-1.1.3-1.5.6m-.2-2.3c-.1.3-.1.6-.1.9 0 .5.1 1 .2 1.5m.1-.1c-.8 0-1.7.2-2.4.5m6.3-2.6c-.2-.1-.4-.1-.7-.1m.5-.6c-.2.2-.4.4-.5.7m-.9-.9c.3.3.6.6.9.8m0 0c-.3.2-.5.4-.6.7m.6-.7l.3.6m1-2.9c.1.2.3.3.5.5m.2-.6s-.1 0 0 0c-.3 0-.5 0-.7.1m.3-1c-.2.3-.3.6-.3.9m0 .1l-1.2-.3m1.2.3c-.2.2-.3.5-.3.8m.3-4.9c0 .6.1 1.2.4 1.7m1.1-1.2c-.5-.2-1-.4-1.4-.6m1.4-1c-.6.2-1.1.6-1.5 1.1m-1.1-2.5c.2.9.6 1.7 1.1 2.5m0 0c-.8.2-1.5.7-2.1 1.3m5.4-5c.1.3.3.6.5.8m.5-.8h-.9m.5-1.1c-.3.3-.5.7-.6 1.1m-1.5-.9l1.5.9m0 0c-.3.3-.6.7-.7 1.1m2.1-5.3c-.2.3-.2.7-.2 1.1v.4m.2-1.5c.3.3.6.5 1 .8m.2-1.2c-.5.1-.9.2-1.3.4"/><path fill="none" stroke="#000" stroke-width=".75" d="M403.7 302.4c-.1.4-.2.8-.2 1.2 0 .2 0 .5.1.7m0 0h-.8c-.5 0-1 0-1.4.1m5.1-2.2c-.2.1-.3.3-.4.5m-.5-.6l.6.6m0 0c-.2.1-.4.3-.4.5m.4-.5c0 .2.1.3.2.4m.2-.3c-.2 0-.3-.1-.5-.1m1.3-1.6c-.1 0-.3 0-.4.1m.2-.6c-.1.2-.2.3-.2.5m0 0c-.2-.1-.5-.1-.7-.2m.7.2c-.1.2-.2.3-.2.5m.2-.5l.3.3m-.2-2.6c.2.1.5.2.7.3m.1-.8c-.3.1-.6.3-.8.5m-.4-1.3c0 .4.2.9.4 1.3m0 0c-.4.1-.9.3-1.2.6m1.2-.6v.2c0 .2.1.5.1.7m1.9-2.5h-.4m.3-.4c-.1.1-.2.3-.3.5m-.6-.5c.2.1.4.3.6.4m0 0c-.1.1-.2.3-.3.5m.3-.5c.1.1.1.2.2.4m.4-2l.3.3m.2-.4c-.2 0-.3.1-.4.1m0-.6c-.1.1-.1.3-.1.5v.2m0-.1h-.8M409.3 295.6c-.1.1-.1.3-.1.4v.1m-.4-3.3c.1.4.2.8.5 1.1m.6-.9c-.4-.1-.7-.2-1.1-.2m.9-1c-.4.3-.7.6-.9 1m-1.2-1.6c.3.6.8 1.1 1.2 1.6m0 0c-.5.3-1 .7-1.3 1.2m3.4-4.5l.6.6m.2-.8c-.3 0-.6 0-.8.1m.3-1c-.2.3-.4.7-.4 1.1m.1 0c-.5-.2-1-.3-1.4-.5m1.4.5c-.2.3-.4.7-.4 1m.8-5.1c0 .2-.1.4-.1.6 0 .3.1.6.2.9m-.1-1.5c.4.2.7.4 1.1.6m.2-1.3c-.4.1-.9.4-1.2.7m-.3-2v.5c0 .5.1 1 .3 1.5m-.1 0c-.7.1-1.4.3-2.1.6m5.1-2.7h-.5m.3-.6c-.2.2-.3.3-.3.6m-.8-.6c.2.2.5.4.8.6m0 0c-.2.2-.3.4-.4.6m.4-.6c.1.2.2.3.3.5m.4-2.4c.1.1.2.2.4.3m.1-.5c-.2 0-.3.1-.5.1"/><path fill="none" stroke="#000" stroke-width=".75" d="M414.6 280.7c-.1.2-.1.3-.1.5v.2m0 0c-.3 0-.6-.1-.9-.1m.9.1c-.1.1-.1.3-.1.5v.1m-.2-3.5c0 .4.2.8.4 1.1m.6-.8c-.3-.1-.7-.2-1-.3m.8-.8c-.4.2-.7.5-.9.8m-.8-1.5c.2.6.4 1.1.8 1.5m.1 0c-.5.2-1 .6-1.4 1m3.2-3.5c.1.2.2.3.4.4m.1-.4c-.2 0-.4 0-.6.1m.4-.7c-.2.2-.3.4-.3.7m-1-.5c.3.2.6.3.9.4m.1 0c-.2.2-.3.5-.3.7m.8-3.1c0 .1-.1.3-.1.4 0 .1 0 .3.1.4m0-.8c.2.1.4.2.6.4m0-.7c-.2.1-.5.2-.7.3m0-1c0 .2-.1.3-.1.5s0 .4.1.5m.1 0c-.4 0-.8 0-1.2.1m2.1-1.3l.3.3m0-.1c-.1.1-.2.2-.2.3m.2-.3c0 .1.1.1.1.2m.1-.2h-.2m.2-.2c-.1.1-.1.2-.1.3m.3-1.2v.3m-.1 0h-.4m.4 0v.3m0-.3s.1.1.2.1m0-.1c-.1 0-.1 0-.2.1m.2-1.4l-.3.3m-.2-.6c0 .2.1.4.2.6m0-.1c-.2.1-.4.2-.5.3m.5-.3c0 .1 0 .3.1.4m-.1-.4c.1 0 .2.1.4.1m.4-1.1c0 .1-.1.1-.1.2m-.3-.1c.1.1.2.1.3.1m0 0c-.1.1-.1.1-.1.2m.1-.2c0 .1.1.1.1.1m0-.1h-.2m.4-.8c-.1 0-.1 0-.2.1m0-.3v.2m0 .1h-.3m.3 0v.2m0-.2s.1.1.2.1m0-1.2h-.5m.4-.5c-.2.1-.3.3-.3.4m-.6-.6c.1.2.3.4.5.6m0 .1c-.2.1-.4.3-.5.5m.5-.5c0 .2.1.3.2.5m.8-2c-.1 0-.2 0-.3.1m.1-.4c-.1.1-.1.2-.1.4m-.5-.2c.2.1.4.1.6.1m-.1.1c-.1.1-.1.2-.1.4m.1-.4c.1.1.1.2.2.2m-.1-1.7c.1.1.3.1.4.2m0-.4c-.2.1-.3.1-.4.3"/><path fill="none" stroke="#000" stroke-width=".75" d="M419.1 264.5v.1c0 .2 0 .4.1.6m0 0c-.3 0-.5.1-.7.2m.7-.2v.2c0 .1 0 .3.1.4m.8-1.6c0 .1-.1.1-.1.2m-.3-.1c.1.1.2.1.3.2m0-.1c-.1.1-.1.1-.1.2m.1-.2c0 .1.1.1.1.1m0-.1h-.2m.4-.7c-.1 0-.1 0-.2.1m.1-.2v.2m-.1 0H419.8m.3 0v.2m0-.2l.1.1m.1-.9c-.1 0-.2 0-.3-.1m.3-.2l-.3.3m-.3-.6c.1.2.1.3.3.5m0 0c-.2.1-.3.2-.4.3m.4-.3c0 .1.1.2.1.3m.6-1.1h-.2m.1-.2c0 .1-.1.1-.1.2m-.3-.1c.1 0 .2.1.3.1m0 0c0 .1-.1.1-.1.2m.1-.2l.1.1m0-.8c.1 0 .1.1.2.1m0-.1c-.1 0-.1 0-.2.1m0-.3v.3m0-.1h-.3m.3 0v.2m-.4-1.3c.1.2.2.3.3.5m.2-.5h-.5m.3-.6c-.2.1-.3.3-.3.6m-.8-.6c.2.2.5.4.7.6m.1 0c-.2.2-.3.4-.4.7m1-2.4c.1.1.2.2.3.2m.1-.4c-.1 0-.3.1-.4.1m0-.5c-.1.1-.1.3-.1.4v.2m.1 0c-.2 0-.5-.1-.7-.1m.7.1c-.1.1-.1.3-.1.4v.1m-.1-2.6c0 .3.1.5.2.8m-.2-.8c.2.1.4.1.6.2m0-.7c-.2.1-.4.3-.6.5m-.4-1c0 .4.2.7.4 1m0 0c-.4.1-.7.3-1 .6"/><path fill="none" stroke="#00F" stroke-width=".75" d="M426.1 216c0-115.9-94.1-210-210-210s-210 94.1-210 210 94.1 210 210 210 210-94.1 210-210"/></svg>