<svg xmlns="http://www.w3.org/2000/svg" width="1098" height="450"><g fill="#fec200"><path opacity=".5" d="M633 129l-48 96 48 96 96 48 96-48 48-96-48-96-96-48z"/><path opacity=".5" d="M849 129l-48 96 48 96 96 48 96-48 48-96-48-96-96-48z"/></g><path fill="#7fc0e6" d="M117 81L45 225l72 144 144 72 144-72 72-144-72-144L261 9z"/><g fill="none" stroke="#fec200"><path d="M57 129L9 225l48 96 96 48 96-48 48-96-48-96-96-48z"/><path d="M273 129l-48 96 48 96 96 48 96-48 48-96-48-96-96-48z"/></g><path fill="none" stroke="#0081cd" d="M693 81l-72 144 72 144 144 72 144-72 72-144-72-144L837 9z"/><g fill="#bc1e46"><circle cx="81" cy="153" r="6"/><circle cx="81" cy="297" r="6"/><circle cx="153" cy="81" r="6"/><circle cx="153" cy="369" r="6"/><circle cx="441" cy="153" r="6"/><circle cx="441" cy="297" r="6"/><circle cx="369" cy="81" r="6"/><circle cx="369" cy="369" r="6"/><circle cx="657" cy="153" r="6"/><circle cx="657" cy="297" r="6"/><circle cx="729" cy="81" r="6"/><circle cx="729" cy="369" r="6"/><circle cx="1017" cy="153" r="6"/><circle cx="1017" cy="297" r="6"/><circle cx="945" cy="81" r="6"/><circle cx="945" cy="369" r="6"/></g></svg>