<svg xmlns="http://www.w3.org/2000/svg" width="684" height="360"><path d="M79.7 56.6h144l72 124.7-72 124.7h-144l-72-124.7 72-124.7z" fill="#7fc0e6"/><path d="M486.1 6h86.4l43.2 74.8-43.2 74.8h-86.4l-43.2-74.8L486.1 6zm0 200.4h86.4l43.2 74.8-43.2 74.8h-86.4l-43.2-74.8 43.2-74.8z" fill="#fec200" opacity=".5"/><path d="M108.5 6h86.4l43.2 74.8-43.2 74.8h-86.4L65.3 80.8 108.5 6zm0 200.4h86.4l43.2 74.8-43.2 74.8h-86.4l-43.2-74.8 43.2-74.8z" fill="none" stroke="#fec200"/><path d="M457.3 56.6h144l72 124.7-72 124.7h-144l-72-124.7 72-124.7z" fill="none" stroke="#0081cd"/><g fill="#bc1e46"><circle cx="131.7" cy="56.6" r="6"/><circle cx="71.3" cy="71.1" r="6"/><circle cx="234.3" cy="74.1" r="6"/><circle cx="176.4" cy="155.6" r="6"/><circle cx="71.3" cy="291.6" r="6"/><circle cx="195.5" cy="306" r="6"/><circle cx="234.3" cy="287.8" r="6"/><circle cx="215.5" cy="242.1" r="6"/><circle cx="129" cy="206.4" r="6"/><circle cx="137.7" cy="119.6" r="6"/><circle cx="123" cy="281.2" r="6"/><circle cx="509.3" cy="56.6" r="6"/><circle cx="448.9" cy="71.1" r="6"/><circle cx="611.8" cy="74.1" r="6"/><circle cx="553.9" cy="155.6" r="6"/><circle cx="448.9" cy="291.6" r="6"/><circle cx="573" cy="306" r="6"/><circle cx="611.8" cy="287.8" r="6"/><circle cx="593.1" cy="242.1" r="6"/><circle cx="506.5" cy="206.4" r="6"/><circle cx="515.3" cy="119.6" r="6"/><circle cx="500.5" cy="281.2" r="6"/></g></svg>