<svg xmlns="http://www.w3.org/2000/svg" width="693" height="378"><path fill="#FFEBAA" stroke="#231F20" d="M45 225l72 72h72l72-72v-72l-72-72h-72l-72 72z"/><path fill="none" stroke="#0081CD" d="M45 45v288m72-288v288m72-288v288m72-288v288M9 81h288M9 153h288M9 225h288M9 297h288"/><path fill="none" stroke="#231F20" stroke-width="2" d="M117 81l-72 72v72l72 72h72l72-72v-72l-72-72z"/><g fill="#FFEBAA" stroke="#231F20"><path d="M360 81V45l36-36h36l36 36v36l-36 36h-36z"/><path d="M432 153v-36l36-36h36l36 36v36l-36 36h-36z"/><path d="M504 225v-36l36-36h36l36 36v36l-36 36h-36zM360 117V81l36-36h36l36 36v36l-36 36h-36z"/><path d="M432 189v-36l36-36h36l36 36v36l-36 36h-36z"/><path d="M504 261v-36l36-36h36l36 36v36l-36 36h-36zM360 153v-36l36-36h36l36 36v36l-36 36h-36z"/><path d="M432 225v-36l36-36h36l36 36v36l-36 36h-36z"/><path d="M504 297v-36l36-36h36l36 36v36l-36 36h-36zM360 189v-36l36-36h36l36 36v36l-36 36h-36z"/><path d="M432 261v-36l36-36h36l36 36v36l-36 36h-36z"/><path d="M504 333v-36l36-36h36l36 36v36l-36 36h-36zM396 81V45l36-36h36l36 36v36l-36 36h-36z"/><path d="M468 153v-36l36-36h36l36 36v36l-36 36h-36z"/><path d="M540 225v-36l36-36h36l36 36v36l-36 36h-36zM396 117V81l36-36h36l36 36v36l-36 36h-36z"/><path d="M468 189v-36l36-36h36l36 36v36l-36 36h-36z"/><path d="M540 261v-36l36-36h36l36 36v36l-36 36h-36zM396 153v-36l36-36h36l36 36v36l-36 36h-36z"/><path d="M468 225v-36l36-36h36l36 36v36l-36 36h-36z"/><path d="M540 297v-36l36-36h36l36 36v36l-36 36h-36zM396 189v-36l36-36h36l36 36v36l-36 36h-36z"/><path d="M468 261v-36l36-36h36l36 36v36l-36 36h-36z"/><path d="M540 333v-36l36-36h36l36 36v36l-36 36h-36z"/></g><g fill="#FFEBAA" stroke="#231F20"><path opacity=".5" d="M432 81V45l36-36h36l36 36v36l-36 36h-36z"/><path opacity=".5" d="M504 153v-36l36-36h36l36 36v36l-36 36h-36z"/><path opacity=".5" d="M576 225v-36l36-36h36l36 36v36l-36 36h-36zM432 117V81l36-36h36l36 36v36l-36 36h-36z"/><path opacity=".5" d="M504 189v-36l36-36h36l36 36v36l-36 36h-36z"/><path opacity=".5" d="M576 261v-36l36-36h36l36 36v36l-36 36h-36zM432 153v-36l36-36h36l36 36v36l-36 36h-36z"/><path opacity=".5" d="M504 225v-36l36-36h36l36 36v36l-36 36h-36z"/><path opacity=".5" d="M576 297v-36l36-36h36l36 36v36l-36 36h-36zM432 189v-36l36-36h36l36 36v36l-36 36h-36z"/><path opacity=".5" d="M504 261v-36l36-36h36l36 36v36l-36 36h-36z"/><path opacity=".5" d="M576 333v-36l36-36h36l36 36v36l-36 36h-36z"/></g></svg>