<svg xmlns="http://www.w3.org/2000/svg" width="504" height="333"><path d="M72 315c45-234 72-468 216-144m144 144c-45-234-72-468-216-144m-36-72h144M18 243h468M36 180l99 126m333-126l-99 126" fill="none" stroke="#000"/><g fill="#BC1E47" stroke="#000"><circle cx="252" cy="99" r="9"/><circle cx="180" cy="99" r="9"/><circle cx="324" cy="99" r="9"/><circle cx="288" cy="171" r="9"/><circle cx="216" cy="171" r="9"/><circle cx="36" cy="180" r="9"/><circle cx="18" cy="243" r="9"/><circle cx="72" cy="315" r="9"/><circle cx="135" cy="306" r="9"/><circle cx="468" cy="180" r="9"/><circle cx="486" cy="243" r="9"/><circle cx="432" cy="315" r="9"/><circle cx="369" cy="306" r="9"/><circle cx="85.5" cy="243" r="9"/><circle cx="418.5" cy="243" r="9"/></g></svg>