<svg xmlns="http://www.w3.org/2000/svg" width="950" height="526" viewBox="-481.5 -11 950 526"><g fill="#D8F0FF" fill-opacity=".8" stroke="#000" stroke-linejoin="round"><path d="M79.193 325.394l195.036-130.095 34.883 233.979L79.193 325.394z"/><path d="M312.404 20.098l-3.293 409.18-34.883-233.979 38.176-175.201zM73.914 122.8l200.314 72.499 38.176-175.201L73.914 122.8zm238.49-102.702l-3.293 409.18 143.719-207.52-140.426-201.66zM30.748 293.932l243.48-98.633L79.193 325.394l-48.445-31.462z"/><path d="M452.84 399.715L79.193 325.394l229.918 103.885 143.729-29.564z"/><path d="M452.84 399.715l-.01-177.956-143.719 207.52 143.729-29.564zM30.748 293.932l243.48-98.633L73.914 122.8 30.748 293.932z"/><path d="M452.84 399.715L79.193 325.394l117.601 172.964 256.046-98.643zm6.636-225.08l-6.646 47.124L312.404 20.098l147.072 154.537z"/><path d="M79.193 325.394l-48.445-31.462 166.046 204.426L79.193 325.394zm380.283-150.759L73.914 122.8l238.49-102.702 147.072 154.537zM231.559 332.453L452.83 221.759l.01 177.956-221.281-67.262z"/><path d="M459.476 174.635L73.914 122.8l118.907-70.467 266.655 122.302zM231.559 332.453L452.83 221.759l6.646-47.124-227.917 157.818z"/><path d="M192.821 52.333l3.973 446.024L30.748 293.932 192.821 52.333z"/><path d="M452.84 399.715l-221.281-67.262-34.765 165.904 256.046-98.642z"/><path d="M192.821 52.333l3.973 446.024 34.765-165.904-38.738-280.12z"/><path d="M459.476 174.635L231.559 332.453l-38.738-280.12 266.655 122.302zM73.914 122.8L30.748 293.932 192.821 52.333 73.914 122.8z"/></g><path fill="none" d="M-190.719 278.803l.565-70.137-19.774-2.93-66.599 26.979.671 75.357 19.249 3.693zm148.286-78.58l.517-17.523-117.9-15.85-.128 15.963zm-199.396 137.693l50.554 10.055.286-35.489zm80.508 16.013l113.69 22.614 4.063-137.81-117.299 58.68zm-56.082-177.533a14.974 14.974 0 0 1 7.83-.936l19.663 2.913.125-15.553-87.47-11.759.44 49.402 59.412-24.067zm-89.018 68.429l-86.438 35.016.152 5.815 86.798 16.651zm-.871-97.802l-89.34-12.011 2.939 112.799 86.985-35.238zm224.869 77.603l-77.765-11.521-.408 50.628zm-192.02 242.042l82.622-50.815.3-37.343-83.856-16.68zm85.689-431.948l-89.323 24.077.552 61.958 87.984 11.829z"/><path d="M-396.632 135.012l89.34 12.011-.27-30.306-102.525-13.784a15.003 15.003 0 0 0-16.994 15.257l3.691 141.65 29.697-12.03-2.939-112.798zm372.107 19.757l-135.047-18.156-29.969-4.029-87.984-11.829.27 30.306 87.47 11.759 29.969 4.029 117.9 15.851-.517 17.523-1.136 38.51-4.062 137.81-113.69-22.614-29.954-5.958-50.553-10.055-5.902 2.952a15 15 0 0 1-9.537 1.316l-18.316-3.514.206 23.159 83.857 16.68 29.953 5.958 125.48 24.959a15.002 15.002 0 0 0 17.92-14.27l6.636-225.081c.226-7.675-5.383-14.283-12.994-15.306zm-368.182 130.887l-.152-5.815-9.694 3.927zm-29.361 24.914l.266 10.214a15 15 0 0 0 12.069 14.321l104.302 20.746-.205-22.945-116.432-22.336z" fill="#0081CD" stroke="#000"/><g fill="#FEC200" stroke="#000"><path d="M-189.91 178.374l-.244 30.292-.565 70.137 30.123-15.07.408-50.628.244-30.292.128-15.963-29.969-4.029z"/><path d="M-164.426 3.228A14.993 14.993 0 0 0-177.5.616L-297.083 32.85a15.001 15.001 0 0 0-11.096 14.617l.617 69.25.27 30.306.584 65.55.287 32.251.512 57.482 30.053 5.766-.671-75.357-.287-32.251-.44-49.402-.27-30.306-.552-61.958 89.323-24.078-.787 97.864 29.969 4.029.977-121.394a15.007 15.007 0 0 0-5.832-11.991zm-26.849 344.743l29.954 5.958.454-56.516-30.122 15.069zm-.546 67.882l-82.622 50.815-.934-104.838-.206-23.159-30.053-5.765.205 22.945 1.226 137.64a14.999 14.999 0 0 0 22.858 12.642l112.317-69.079a15 15 0 0 0 7.142-12.655l.321-39.932-29.953-5.958-.301 37.344z"/></g><g fill="#BC1E47" stroke="#000"><path d="M-209.928 205.736l19.773 2.93.244-30.292-19.663-2.913a14.952 14.952 0 0 0-7.83.936l-59.411 24.067.287 32.251 66.6-26.979z"/><path d="M-159.944 182.813l-.244 30.292 77.766 11.521-78.173 39.107-30.123 15.069-65.888 32.962-19.249-3.692-30.053-5.766-86.798-16.65-9.846-1.889 9.694-3.927 86.438-35.016-.287-32.251-86.985 35.237-29.697 12.03-37.494 15.188a15 15 0 0 0 2.807 28.634l36.009 6.907 116.432 22.336 30.053 5.765 18.316 3.514a15 15 0 0 0 9.537-1.316l5.902-2.952 50.839-25.434 30.122-15.069 117.299-58.68 1.136-38.51-117.513-17.41z"/></g></svg>