<svg xmlns="http://www.w3.org/2000/svg" width="612" height="261"><path fill="none" d="M551.778 248.433c.017 1.183.045 2.364.045 3.551 0-1.184-.015-2.368-.045-3.551zm-491.601 3.55c0-1.186.028-2.364.045-3.546a144.57 144.57 0 0 0-.045 3.546z"/><path fill="none" stroke="#000" d="M60.177 251.999v-.016z"/><path fill="#FFEBAA" d="M306 150.177c56.236-56.236 147.412-56.236 203.646 0 27.212 27.21 41.254 62.601 42.132 98.256C549.868 114.314 440.572 6.176 306 6.176c-134.574 0-243.871 108.142-245.778 242.262.877-35.656 14.92-71.05 42.132-98.261 56.235-56.237 147.411-56.237 203.646 0z"/><path fill="none" stroke="#000" d="M551.823 251.983z"/><path fill="#FFEBAA" d="M263.824 251.963c.02-23.277 18.895-42.141 42.176-42.141 23.294 0 42.176 18.883 42.177 42.176.001-36.852-14.06-73.705-42.176-101.821-28.109 28.108-42.168 64.946-42.177 101.786z"/><path fill="#FEC200" stroke="#000" stroke-width="2" d="M263.823 251.999l.001-.036c.009-36.84 14.067-73.678 42.176-101.786-56.235-56.236-147.411-56.236-203.647 0-27.211 27.211-41.255 62.604-42.132 98.261-.017 1.182-.045 2.36-.045 3.546V252"/><path fill="none" stroke="#0081CD" d="M.53 252l610.941-.001"/><path fill="#FEC200" stroke="#000" stroke-width="2" d="M551.823 251.999v-.016c0-1.187-.028-2.368-.045-3.551-.878-35.655-14.92-71.046-42.132-98.256-56.234-56.236-147.41-56.236-203.646 0 28.117 28.117 42.177 64.97 42.176 101.821v.001"/><circle fill="none" stroke="#BC1E47" cx="306" cy="107.998" r="101.824"/></svg>