<svg xmlns="http://www.w3.org/2000/svg" width="479" height="439" viewBox="7.5 48.5 479 439"><g fill="#D8F0FF" fill-opacity=".8" stroke="#000" stroke-linejoin="round"><path d="M172.044 202.569l-69.821 197.34 215.823-27.576zM95.208 69.618l225.577-14.33-148.741 147.281z"/><path d="M320.785 55.288L172.044 202.569l146.002 169.764 158.351-139.54 4.998-166.994z"/><path d="M318.046 372.333l158.351-139.54-56.98 212.797zM95.208 69.618L13.17 280.408l5.74 173.779 83.313-54.278 69.821-197.34z"/><path d="M318.046 372.333l-215.823 27.576-83.313 54.278 163.348 25.938 237.159-34.535zM178.475 111.628L13.17 280.408l82.038-210.79zm142.31-56.34L95.208 69.618l83.267 42.01 248.991-18.145 53.929-27.684zm106.681 38.195l-66.837 228.69 58.788 123.417 56.98-212.797 4.998-166.994z"/><path d="M419.417 445.59l-237.159 34.535 178.371-157.952z"/><path d="M178.475 111.628L13.17 280.408l5.74 173.779 163.348 25.938 178.371-157.952z"/><path d="M360.629 322.173l66.837-228.69-248.991 18.145z"/></g></svg>