<svg xmlns="http://www.w3.org/2000/svg" viewBox="0 0 864 468"><path d="M692 136v286H46V136h646m1-1H45v288h648V135z"/><path fill="none" stroke="#000" d="M45 279h648M261 423V135m216 288V135"/><path d="M755 91v286H109V91h646m1-1H108v288h648V90z"/><path fill="none" stroke="#000" d="M108 234h648M324 378V90m216 288V90"/><path d="M818 46v286H172V46h646m1-1H171v288h648V45z"/><path fill="none" stroke="#000" d="M171 189h648M387 333V45m216 288V45M45 423l126-90M47 276l126-90M45 135l126-90m88 378l126-90m-124-57l126-90m-128-51l126-90m92 378l126-90m-124-57l126-90m-128-51l126-90m90 378l126-90m-124-57l126-90m-128-51l126-90"/><g fill="#FFE07F" stroke="#000"><circle cx="45" cy="423" r="36"/><circle cx="477" cy="423" r="36"/><circle cx="45" cy="279" r="36"/><circle cx="261" cy="279" r="36"/><circle cx="477" cy="279" r="36"/><circle cx="45" cy="135" r="36"/><circle cx="261" cy="135" r="36"/><circle cx="477" cy="135" r="36"/><circle cx="693" cy="423" r="36"/><circle cx="693" cy="279" r="36"/><circle cx="693" cy="135" r="36"/><circle cx="108" cy="378" r="36"/><circle cx="324" cy="378" r="36"/><circle cx="540" cy="378" r="36"/><circle cx="108" cy="234" r="36"/><circle cx="324" cy="234" r="36"/><circle cx="540" cy="234" r="36"/><circle cx="108" cy="90" r="36"/><circle cx="324" cy="90" r="36"/><circle cx="540" cy="90" r="36"/><circle cx="756" cy="378" r="36"/><circle cx="756" cy="234" r="36"/><circle cx="756" cy="90" r="36"/><circle cx="171" cy="333" r="36"/><circle cx="387" cy="333" r="36"/><circle cx="603" cy="333" r="36"/><circle cx="171" cy="189" r="36"/><circle cx="387" cy="189" r="36"/><circle cx="603" cy="189" r="36"/><circle cx="171" cy="45" r="36"/><circle cx="387" cy="45" r="36"/><circle cx="603" cy="45" r="36"/><circle cx="819" cy="333" r="36"/><circle cx="819" cy="189" r="36"/><circle cx="819" cy="45" r="36"/></g><g font-family="Times,serif"><text transform="translate(36 432)" font-size="36">1</text><text transform="translate(468 432)" font-size="36">3</text><text transform="translate(675 432)" font-size="36">21</text><text transform="translate(99 387)" font-size="36">2</text><text transform="translate(315 387)" font-size="36">8</text><text transform="translate(513 387)" font-size="36">144</text><text transform="translate(726 384)" font-size="24">46368</text><text transform="translate(153 342)" font-size="36">34</text><text transform="translate(357 342)" font-size="30">2584</text><text transform="translate(36 288)" font-size="36">5</text><text transform="translate(243 288)" font-size="36">55</text><text transform="translate(447 288)" font-size="30">6765</text><text transform="translate(81 243)" font-size="36">610</text><text transform="translate(292.5 240)" font-size="21">832040</text><text transform="translate(15 140)" font-size="24">75025</text><text transform="translate(571 335)" font-size="16">14930352</text></g></svg>