<svg xmlns="http://www.w3.org/2000/svg" width="571" height="570"><path d="M6 5h560M6 21h560M6 37h560M6 53h560M6 69h560M6 85h560M6 101h560M6 117h560M6 133h560M6 149h560M6 165h560M6 181h560M6 197h560M6 213h560M6 229h560M6 245h560M6 261h560M6 277h560M6 293h560M6 309h560M6 325h560M6 341h560M6 357h560M6 373h560M6 389h560M6 405h560M6 421h560M6 437h560M6 453h560M6 469h560M6 485h560M6 501h560M6 517h560M6 533h560M6 549h560M6 565h560M6 5v560M22 5v560M38 5v560M54 5v560M70 5v560M86 5v560M102 5v560M118 5v560M134 5v560M150 5v560M166 5v560M182 5v560M198 5v560M214 5v560M230 5v560M246 5v560M262 5v560M278 5v560M294 5v560M310 5v560M326 5v560M342 5v560M358 5v560M374 5v560M390 5v560M406 5v560M422 5v560M438 5v560M454 5v560M470 5v560M486 5v560M502 5v560M518 5v560M534 5v560M550 5v560M566 5v560" fill="none" stroke="#000" stroke-linejoin="round"/><path d="M332.987 229.025a6.987 6.987 0 1 0-13.975-.05 6.987 6.987 0 0 0 13.975.05m16 16a6.987 6.987 0 1 0-13.975-.05 6.987 6.987 0 0 0 13.975.05m0 80a6.987 6.987 0 1 0-13.975-.05 6.987 6.987 0 0 0 13.975.05m-16 16a6.987 6.987 0 1 0-13.975-.05 6.987 6.987 0 0 0 13.975.05m-80 0a6.987 6.987 0 1 0-13.974-.05 6.987 6.987 0 0 0 13.974.05m-16-16a6.987 6.987 0 1 0-13.974-.05 6.987 6.987 0 0 0 13.974.05m0-80a6.987 6.987 0 1 0-13.974-.05 6.987 6.987 0 0 0 13.974.05m16-16a6.987 6.987 0 1 0-13.974-.05 6.987 6.987 0 0 0 13.974.05m112-16a6.987 6.987 0 1 0-13.975-.05 6.987 6.987 0 0 0 13.975.05m0 144a6.988 6.988 0 1 0-13.974-.048 6.988 6.988 0 0 0 13.974.048m-144 0a6.986 6.986 0 0 0-6.962-7.012 6.987 6.987 0 1 0-.05 13.974 6.987 6.987 0 0 0 7.012-6.962m0-144a6.987 6.987 0 1 0-13.974-.05 6.987 6.987 0 0 0 13.974.05m160-48a6.987 6.987 0 1 0-13.975-.05 6.987 6.987 0 0 0 13.975.05m32 32a6.987 6.987 0 1 0-13.975-.05 6.987 6.987 0 0 0 13.975.05m0 176a6.989 6.989 0 0 0-6.962-7.013 6.989 6.989 0 0 0-7.013 6.962 6.987 6.987 0 1 0 13.975.051m-32 32a6.989 6.989 0 0 0-6.962-7.013 6.989 6.989 0 0 0-7.013 6.962 6.987 6.987 0 1 0 13.975.051m-176 0a6.987 6.987 0 1 0-13.973-.051 6.987 6.987 0 0 0 13.973.051m-32-32a6.987 6.987 0 1 0-13.973-.051 6.987 6.987 0 0 0 13.973.051m32-208a6.987 6.987 0 1 0-13.974-.05 6.987 6.987 0 0 0 13.974.05m-32 32a6.987 6.987 0 1 0-13.974-.05 6.987 6.987 0 0 0 13.974.05m256 64a6.987 6.987 0 1 0-13.975-.05 6.987 6.987 0 0 0 13.975.05m0 48a6.987 6.987 0 1 0-13.975-.05 6.987 6.987 0 0 0 13.975.05m-112 112a6.989 6.989 0 0 0-6.962-7.013 6.989 6.989 0 0 0-7.013 6.962 6.987 6.987 0 1 0 13.975.051m-48 0a6.987 6.987 0 1 0-13.973-.051 6.987 6.987 0 0 0 13.973.051m-112-112a6.987 6.987 0 1 0-13.974-.05 6.987 6.987 0 0 0 13.974.05m0-48a6.987 6.987 0 1 0-13.974-.05 6.987 6.987 0 0 0 13.974.05m112-112a6.987 6.987 0 1 0-13.974-.05 6.987 6.987 0 0 0 13.974.05m48 0a6.987 6.987 0 1 0-13.975-.05 6.987 6.987 0 0 0 13.975.05" fill-rule="evenodd" clip-rule="evenodd" fill="#BC1E47" stroke="#000"/></svg>