<svg xmlns="http://www.w3.org/2000/svg" width="459" height="333"><g fill="none" stroke="#000"><path stroke-linejoin="bevel" d="M320 84l111 99m-111 36l111-99M320 39l111 18m0 0l-111 72 111-9m0 126l-111 18 111-81-111-54m111 54l-111-9M36 17.063h45v45H36zm45 0h45v45H81zm45 0h45v45h-45zm45 0h45v45h-45zm-135 45h45v45H36zm45 0h45v45H81zm45 0h45v45h-45zm45 0h45v45h-45zm-135 45h45v45H36zm45 0h45v45H81zm45 0h45v45h-45zm45 0h45v45h-45zm-135 45h45v45H36zm45 0h45v45H81zm45 0h45v45h-45zm45 0h45v45h-45zm-135 45h45v45H36zm45 0h45v45H81zm45 0h45v45h-45zm45 0h45v45h-45zm-135 45h45v45H36zm45 0h45v45H81zm45 0h45v45h-45zm45 0h45v45h-45z"/><path d="M36 17.063l45 45m-45 45l45 45m45-45l45 45m-90-45l45 45 45 45m-90 0l45 45 45 45m-45-225l45 45m0 135l45 45"/></g><g fill="#FFF" stroke="#000"><circle cx="320" cy="39" r="15"/><circle cx="320" cy="84" r="15"/><circle cx="320" cy="129" r="15"/><circle cx="320" cy="174" r="15"/><circle cx="320" cy="219" r="15"/><circle cx="320" cy="264" r="15"/><circle cx="431" cy="57" r="15"/><circle cx="431" cy="120" r="15"/><circle cx="431" cy="183" r="15"/><circle cx="431" cy="246" r="15"/></g><g font-family="Times,serif" font-style="italic" font-size="24"><text transform="translate(18 45)">p</text><text transform="translate(18 90)">q</text><text transform="translate(18 135)">r</text><text transform="translate(18 180)">s</text><text transform="translate(18 225)">t</text><text transform="translate(18 270)">u</text><text transform="translate(315 45)">p</text><text transform="translate(315 90)">q</text><text transform="translate(315 135)">r</text><text transform="translate(315 180)">s</text><text transform="translate(315 225)">t</text><text transform="translate(315 270)">u</text><text transform="translate(51 315)">A</text><text transform="translate(96 315)">B</text><text transform="translate(141 315)">C</text><text transform="translate(186 315)">D</text><text transform="translate(423 63)">A</text><text transform="translate(423 126)">B</text><text transform="translate(423 189)">C</text><text transform="translate(423 252)">D</text></g></svg>