<svg xmlns="http://www.w3.org/2000/svg" width="747" height="360"><path fill="none" stroke="#BC1E47" stroke-linecap="round" stroke-linejoin="round" stroke-dasharray="3" d="M576 45v162"/><path fill="none" stroke="#000" stroke-width="5" stroke-linecap="round" stroke-linejoin="round" d="M243 297l54-90"/><path opacity=".8" fill="#AAD5EF" stroke="#0081CD" d="M351 180l-54 27 162 18zM171 351V189L9 171v162z"/><path opacity=".8" fill="#AAD5EF" stroke="#0081CD" d="M171 189V27L9 9v162z"/><path fill="none" stroke="#000" stroke-width="5" stroke-linecap="round" stroke-linejoin="round" d="M171 351V27L9 9v324zm126-144l162 18"/><path opacity=".8" fill="#AAD5EF" stroke="#0081CD" d="M243 297l54-90 54-27zm108-117L459 63v162z"/><path opacity=".8" fill="#AAD5EF" stroke="#0081CD" d="M351 180L297 45l162 18z"/><path opacity=".8" fill="#AAD5EF" stroke="#0081CD" d="M351 180L297 45l-54 90z"/><path opacity=".8" fill="#AAD5EF" stroke="#0081CD" d="M351 180l-108-45v162z"/><path fill="none" stroke="#000" stroke-width="5" stroke-linecap="round" stroke-linejoin="round" d="M243 297V135l54-90 162 18v162m63 72l54-90"/><path opacity=".8" fill="#AAD5EF" stroke="#0081CD" d="M630 180l-54 27 162 18z"/><path fill="none" stroke="#000" stroke-width="5" stroke-linecap="round" stroke-linejoin="round" d="M576 207l162 18"/><path opacity=".8" fill="#AAD5EF" stroke="#0081CD" d="M522 297l54-90 54-27zm108-117L738 63v162z"/><path opacity=".8" fill="#AAD5EF" stroke="#0081CD" d="M630 180l-108-45v162zm0 0l54-27 54-90z"/><path opacity=".8" fill="#AAD5EF" stroke="#0081CD" d="M630 180l54-27-162-18z"/><path fill="none" stroke="#000" stroke-width="5" stroke-linecap="round" stroke-linejoin="round" d="M522 297V135l162 18 54-90v162"/><g fill="none" stroke="#BC1E47" stroke-linecap="round" stroke-linejoin="round"><path d="M243 135l1.491.166"/><path stroke-dasharray="3.0188,3.0188" d="M247.491 135.499l154.518 17.168"/><path d="M403.509 152.834L405 153l.771-1.286"/><path stroke-dasharray="2.9131,2.9131" d="M407.271 149.216l50.208-83.681"/><path d="M458.229 64.286L459 63"/></g><path fill="none" stroke="#BC1E47" stroke-linecap="round" stroke-linejoin="round" stroke-dasharray="3" d="M405 153v162l54-90m-54 90l-162-18m279-162l54-90 162 18m-54 90v162l54-90m-54 90l-162-18"/></svg>