<svg xmlns="http://www.w3.org/2000/svg" width="459" height="306"><g fill="none" stroke="#000" stroke-linejoin="bevel"><path d="M18 17.063h45v45H18zm45 0h45v45H63zm45 0h45v45h-45zm45 0h45v45h-45zm-135 45h45v45H18zm45 0h45v45H63zm45 0h45v45h-45zm45 0h45v45h-45zm-135 45h45v45H18zm45 0h45v45H63zm45 0h45v45h-45zm45 0h45v45h-45zm-135 45h45v45H18zm45 0h45v45H63zm45 0h45v45h-45zm45 0h45v45h-45zm-135 45h45v45H18zm45 0h45v45H63zm45 0h45v45h-45zm45 0h45v45h-45zm-135 45h45v45H18zm45 0h45v45H63zm45 0h45v45h-45zm45 0h45v45h-45zM307.671 65.211l-40.213 20.226 11.549-43.507 40.211-20.225zm44.927 2.684l-44.927-2.684 11.547-43.506 44.927 2.685zm39.183 19.641l-39.183-19.641 11.547-43.505 39.185 19.64z"/><path d="M431.119 65.659l-39.338 21.877L403.33 44.03l39.336-21.877zM306 110.184l-40.212 20.227 1.67-44.974 40.213-20.226z"/><path d="M350.928 112.87L306 110.184l1.671-44.973 44.927 2.684z"/><path d="M390.111 132.509l-39.183-19.639 1.67-44.975 39.183 19.641zm39.338-21.876l-39.338 21.876 1.67-44.973 39.338-21.877zM282.707 148.69l-40.212 20.226 23.293-38.505L306 110.184z"/><path d="M327.633 151.375l-44.926-2.685L306 110.184l44.928 2.686z"/><path d="M366.818 171.014l-39.185-19.639 23.295-38.505 39.183 19.639z"/><path d="M406.154 149.138l-39.336 21.876 23.293-38.505 39.338-21.876zm-90.182 27.504l-40.212 20.226-33.265-27.952 40.212-20.226zm44.926 2.685l-44.926-2.685-33.265-27.952 44.926 2.685z"/><path d="M400.084 198.966l-39.186-19.639-33.265-27.952 39.185 19.639z"/><path d="M439.422 177.088l-39.338 21.878-33.266-27.952 39.336-21.876zm-131.248 43.884l-40.211 20.225 7.797-44.329 40.212-20.226z"/><path d="M353.102 223.658l-44.928-2.686 7.798-44.33 44.926 2.685zm39.183 19.639l-39.183-19.639 7.796-44.331 39.186 19.639z"/><path d="M431.625 221.419l-39.34 21.878 7.799-44.331 39.338-21.878zm-110.241 42.579l-40.21 20.227-13.211-43.028 40.211-20.225z"/><path d="M366.312 266.684l-44.928-2.686-13.21-43.026 44.928 2.686zm39.184 19.638l-39.184-19.638-13.21-43.026 39.183 19.639z"/><path d="M444.836 264.445l-39.34 21.877-13.211-43.025 39.34-21.878z"/></g></svg>