<svg xmlns="http://www.w3.org/2000/svg" width="666" height="162"><g fill="none" stroke="#000"><path d="M153 9v144l72-72z"/><path d="M153 9l144 72-144 72 216-72z"/><path d="M153 9l288 72-288 72 360-72z"/><path d="M153 9l432 72-432 72 504-72zm0 0L81 81l72 72L9 81z"/></g><g fill="#BC1E47" stroke="#000"><circle cx="153" cy="9" r="6"/><circle cx="81" cy="81" r="6"/><circle cx="9" cy="81" r="6"/><circle cx="153" cy="153" r="6"/><circle cx="225" cy="81" r="6"/><circle cx="297" cy="81" r="6"/><circle cx="369" cy="81" r="6"/><circle cx="441" cy="81" r="6"/><circle cx="513" cy="81" r="6"/><circle cx="585" cy="81" r="6"/><circle cx="657" cy="81" r="6"/></g></svg>