<svg xmlns="http://www.w3.org/2000/svg" width="675" height="252"><path d="M414 63h144m-441 0c70.003-70.003-70.003-70.003 0 0m36 63H81m0 72h72m297-72h-72m0 72h72m72-72h72m0 72h-72" fill="none" stroke="#000" stroke-width="5"/><path d="M522 126v72m-72-72v72m-297-72v72m297 0h72m-369 0c0 99 99 0 0 0m-72 0l-63-36 63-36m0 0l36-63 36 63m225 72l-63-36 63-36m0 0l36-63 36 63m144 72l63-36-63-36m0 0l-36-63-36 63" fill="none" stroke="#000"/><path fill="none" stroke="#AAD5EF" stroke-width="10" d="M198 144h59.877"/><path fill="#AAD5EF" d="M279 144c-9.939 3.688-22.271 9.98-29.916 16.646L255.105 144l-6.021-16.642c7.645 6.665 19.977 12.957 29.916 16.642z"/><g fill="#FFEBAA" stroke="#000"><circle cx="153" cy="198" r="9"/><circle cx="81" cy="198" r="9"/><circle cx="81" cy="126" r="9"/><circle cx="153" cy="126" r="9"/><circle cx="117" cy="63" r="9"/><circle cx="18" cy="162" r="9"/><circle cx="450" cy="198" r="9"/><circle cx="378" cy="198" r="9"/><circle cx="378" cy="126" r="9"/><circle cx="450" cy="126" r="9"/><circle cx="414" cy="63" r="9"/><circle cx="315" cy="162" r="9"/></g><g fill="#E9B4C2" stroke="#000"><circle cx="522" cy="198" r="9"/><circle cx="594" cy="198" r="9"/><circle cx="594" cy="126" r="9"/><circle cx="522" cy="126" r="9"/><circle cx="558" cy="63" r="9"/><circle cx="657" cy="162" r="9"/></g></svg>