<svg xmlns="http://www.w3.org/2000/svg" width="810" height="594"><path d="M9.5 9.5h144v144H9.5zm0 216h144v144H9.5zm0 216h144v144H9.5zm216-432h576v576h-576z" fill="none" stroke="#FEC200" stroke-width="2"/><path fill="none" d="M27.5 549.5h108v36h-108z"/><path d="M9.5 333.5l72-36 72 36m-18 108l-18 54-36 36-36-36-18-54m48 144l-12-36-36 36m108 0l-36-36-12 36m138-468l558 468m-54 0l-504-558m18 558l558-468m-504 468l504-558m-504-18l144 576m36 0l-216-576m324 576l144-576m-180 576l216-576" fill="none" stroke="#AAD5EF" stroke-width="2"/><path d="M9.5 81.5h144m0 180l-72 36-72-36m144 198l-36 36-18 54-18-18-18 18-18-54-36-36m216-432l73.1 80.932L337.1 211.1l17.17 14.4 15.23 72 52.012 138.7 44.707-37.498 40.76-45.124 6.521 5.47 6.521-5.47 40.76 45.124 44.707 37.498L657.5 297.5l18.734-74.938L689.9 211.1l38.5-102.668L801.5 27.5" fill="none" stroke="#231F20" stroke-width="4"/></svg>