<svg height="485.999" viewBox="-63.396 -81.396 377.999 485.999" width="377.999" xmlns="http://www.w3.org/2000/svg"><g fill="none"><path d="M125.604-.396l-108 323.999v-108h215.999v108z" stroke="#00f" stroke-width="4.5"/><path d="M233.604-81.396v297h81m-297-297v297h-81m81 189v-81l-27 81m270 0l-27-81v81m-135-486l27 81 27-81" stroke="#00f" stroke-dasharray="4.5" stroke-width="1.5"/><path d="M17.604-.396h215.999l-161.999 162 54 53.999 53.999-53.999-161.999-162z" stroke="red" stroke-width="4.5"/><path d="M314.604-.396h-81l81-81m-378 81h81l-81-81m0 378l135-135-135-135m378 270l-135-135 135-135m-378 378l189-189 189 189" stroke="red" stroke-dasharray="4.5" stroke-width="1.5"/></g><circle cx="17.604" cy="-.396" r="4.5"/><circle cx="125.604" cy="-.396" r="4.5"/><circle cx="233.604" cy="-.396" r="4.5"/><circle cx="71.604" cy="161.604" r="4.5"/><circle cx="179.604" cy="161.604" r="4.5"/><circle cx="125.604" cy="215.604" r="4.5"/><circle cx="17.604" cy="215.604" r="4.5"/><circle cx="17.604" cy="323.604" r="4.5"/><circle cx="233.604" cy="323.604" r="4.5"/><circle cx="233.604" cy="215.604" r="4.5"/></svg>