<svg xmlns="http://www.w3.org/2000/svg" width="880.667" height="281.167" viewBox="5.333 0 880.667 281.167">
    <g fill="#FFEBAA" stroke="#000">
        <path d="M49.804 143.374l-38.343-38.342V50.805l38.343-38.343h54.225l38.344 38.343v54.226l-38.344 38.342H49.804z"/>
        <path d="M142.372 235.941L104.029 197.6v-54.227l38.343-38.342h54.225l38.343 38.342V197.6l-38.343 38.341h-54.225z"/>
        <path d="M234.939 143.374l-38.342-38.342V50.805l38.342-38.343h54.226l38.343 38.343v54.226l-38.343 38.342h-54.226z"/>
        <path d="M327.507 235.941L289.165 197.6v-54.227l38.342-38.342h54.226l38.344 38.342V197.6l-38.344 38.341h-54.226z"/>
        <path d="M420.076 143.374l-38.343-38.342V50.805l38.343-38.343h54.225l38.344 38.343v54.226l-38.344 38.342h-54.225z"/>
        <path d="M512.643 235.941L474.301 197.6v-54.227l38.342-38.342h54.227l38.343 38.342V197.6l-38.343 38.341h-54.227z"/>
        <path d="M605.211 143.374l-38.342-38.342V50.805l38.342-38.343h54.225l38.345 38.343v54.226l-38.345 38.342h-54.225z"/>
        <path d="M605.212 274.283l-38.345-38.341v-54.227l38.345-38.342h54.224l38.344 38.342v54.227l-38.344 38.341h-54.224z"/>
        <path d="M697.779 181.715l-38.345-38.341V89.148l38.345-38.342h54.224l38.344 38.342v54.227l-38.344 38.341h-54.224z"/>
        <path d="M790.348 274.283l-38.345-38.341v-54.227l38.345-38.342h54.224l38.344 38.342v54.227l-38.344 38.341h-54.224z"/>
    </g>
    <path d="M49.804 12.462l54.225 130.912m-54.225 0l54.225-130.912m38.344 38.343L11.461 105.031m0-54.226l130.912 54.226m-.001 0l54.225 130.91m-54.225 0l54.225-130.91m38.343 38.343L104.029 197.6m0-54.226L234.94 197.6m-.001-185.138l54.226 130.912m-54.226 0l54.226-130.912m38.343 38.343l-130.911 54.226m0-54.226l130.911 54.226m-.001 0l54.226 130.91m-54.226 0l54.226-130.91m38.344 38.343L289.165 197.6m0-54.226L420.077 197.6m-.001-185.138l54.225 130.912m-54.225 0l54.225-130.912m38.344 38.343l-130.912 54.226m0-54.226l130.912 54.226m-.002 0l54.227 130.91m-54.227 0l54.227-130.91m38.342 38.343L474.301 197.6m0-54.226L605.212 197.6m-.001-185.138l54.225 130.912m-54.225 0l54.225-130.912m38.344 38.343l-130.911 54.226m0-54.226l130.911 54.226m-92.568 38.343l54.224 130.909m-54.224 0l54.224-130.909m38.343 38.341l-130.912 54.227m0-54.227l130.912 54.227m0-185.136l54.224 130.909m-54.224 0l54.224-130.909m38.344 38.342l-130.912 54.227m0-54.227l130.912 54.227m.001-.001l54.223 130.909m-54.223 0l54.223-130.909m38.344 38.341l-130.912 54.227m0-54.227l130.912 54.227" fill="none" stroke="#000"/>
    <path fill="none" stroke="#BC1E47" stroke-width="2" d="M5.333 102L886 160.167"/>
</svg>
