<svg xmlns="http://www.w3.org/2000/svg" width="666" height="594"><path fill="#0081CD" stroke="#000" d="M34.167 392.999L43.222 329l63.389 55.999z"/><path fill="#FEC200" stroke="#000" d="M106.611 384.999L115.667 321l63.389 55.999z"/><path fill="#AAD5EF" stroke="#000" d="M115.667 321l-9.056 63.999L43.222 329z"/><path fill="#FFEBAA" stroke="#000" d="M188.111 313l-9.055 63.999L115.667 321z"/><path fill="#FEC200" stroke="#000" d="M25.111 456.999l9.056-64 63.389 56z"/><path fill="#0081CD" stroke="#000" d="M97.556 448.999l9.055-64 63.389 56z"/><path fill="#FFEBAA" stroke="#000" d="M106.611 384.999l-9.055 64-63.389-56z"/><path fill="#AAD5EF" stroke="#000" d="M179.056 376.999l-9.056 64-63.389-56z"/><path fill="#0081CD" stroke="#000" d="M179.056 376.999L188.111 313l63.389 56z"/><path fill="#FEC200" stroke="#000" d="M251.5 369l9.056-64 63.388 56z"/><path fill="#AAD5EF" stroke="#000" d="M260.556 305l-9.056 64-63.389-56z"/><path fill="#FFEBAA" stroke="#000" d="M333 297l-9.056 64-63.388-56z"/><path fill="#FEC200" stroke="#000" d="M170 440.999l9.056-64 63.388 56z"/><path fill="#0081CD" stroke="#000" d="M242.444 432.999L251.5 369l63.389 55.999z"/><path fill="#FFEBAA" stroke="#000" d="M251.5 369l-9.056 63.999-63.388-56z"/><path fill="#AAD5EF" stroke="#000" d="M323.944 361l-9.055 63.999L251.5 369z"/><path fill="#0081CD" stroke="#000" d="M16.056 520.999l9.055-64 63.389 56z"/><path fill="#FEC200" stroke="#000" d="M88.5 512.999l9.056-64 63.388 56z"/><path fill="#AAD5EF" stroke="#000" d="M97.556 448.999l-9.056 64-63.389-56z"/><path fill="#FFEBAA" stroke="#000" d="M170 440.999l-9.056 64-63.388-56z"/><path fill="#FEC200" stroke="#000" d="M7 584.999l9.056-64 63.388 56z"/><path fill="#0081CD" stroke="#000" d="M79.444 576.999l9.056-64 63.389 56z"/><path fill="#FFEBAA" stroke="#000" d="M88.5 512.999l-9.056 64-63.388-56z"/><path fill="#AAD5EF" stroke="#000" d="M160.944 504.999l-9.055 64-63.389-56z"/><path fill="#0081CD" stroke="#000" d="M160.944 504.999l9.056-64 63.389 56z"/><path fill="#FEC200" stroke="#000" d="M233.389 496.999l9.055-64 63.389 56z"/><path fill="#AAD5EF" stroke="#000" d="M242.444 432.999l-9.055 64-63.389-56z"/><path fill="#FFEBAA" stroke="#000" d="M314.889 424.999l-9.056 64-63.389-56z"/><path fill="#FEC200" stroke="#000" d="M151.889 568.999l9.055-64 63.389 56z"/><path fill="#0081CD" stroke="#000" d="M224.333 560.999l9.056-64 63.389 56z"/><path fill="#FFEBAA" stroke="#000" d="M233.389 496.999l-9.056 64-63.389-56z"/><path fill="#AAD5EF" stroke="#000" d="M305.833 488.999l-9.055 64-63.389-56z"/><path fill="#0081CD" stroke="#000" d="M323.944 361L333 297l63.388 56z"/><path fill="#FEC200" stroke="#000" d="M396.388 353l9.056-64 63.389 56z"/><path fill="#AAD5EF" stroke="#000" d="M405.444 289l-9.056 64L333 297z"/><path fill="#FFEBAA" stroke="#000" d="M477.888 281l-9.055 64-63.389-56z"/><path fill="#FEC200" stroke="#000" d="M314.889 424.999L323.944 361l63.389 55.999z"/><path fill="#0081CD" stroke="#000" d="M387.333 416.999L396.388 353l63.389 55.999z"/><path fill="#FFEBAA" stroke="#000" d="M396.388 353l-9.055 63.999L323.944 361z"/><path fill="#AAD5EF" stroke="#000" d="M468.833 345l-9.056 63.999L396.388 353z"/><path fill="#0081CD" stroke="#000" d="M468.833 345l9.055-64 63.389 56z"/><path fill="#FEC200" stroke="#000" d="M541.277 337l9.056-64 63.389 56z"/><path fill="#AAD5EF" stroke="#000" d="M550.333 273l-9.056 64-63.389-56z"/><path fill="#FFEBAA" stroke="#000" d="M622.777 264.999L613.722 329l-63.389-56z"/><path fill="#FEC200" stroke="#000" d="M459.777 408.999L468.833 345l63.389 55.999z"/><path fill="#0081CD" stroke="#000" d="M532.222 400.999L541.277 337l63.39 55.999z"/><path fill="#FFEBAA" stroke="#000" d="M541.277 337l-9.055 63.999L468.833 345z"/><path fill="#AAD5EF" stroke="#000" d="M613.722 329l-9.055 63.999L541.277 337z"/><path fill="#0081CD" stroke="#000" d="M305.833 488.999l9.056-64 63.388 56z"/><path fill="#FEC200" stroke="#000" d="M378.277 480.999l9.056-64 63.389 56z"/><path fill="#AAD5EF" stroke="#000" d="M387.333 416.999l-9.056 64-63.388-56z"/><path fill="#FFEBAA" stroke="#000" d="M459.777 408.999l-9.055 64-63.389-56z"/><path fill="#FEC200" stroke="#000" d="M296.778 552.999l9.055-64 63.389 56z"/><path fill="#0081CD" stroke="#000" d="M369.222 544.999l9.055-64 63.39 56z"/><path fill="#FFEBAA" stroke="#000" d="M378.277 480.999l-9.055 64-63.389-56z"/><path fill="#AAD5EF" stroke="#000" d="M450.722 472.999l-9.055 64-63.39-56z"/><path fill="#0081CD" stroke="#000" d="M450.722 472.999l9.055-64 63.39 56z"/><path fill="#FEC200" stroke="#000" d="M523.167 464.999l9.055-64 63.39 56z"/><path fill="#AAD5EF" stroke="#000" d="M532.222 400.999l-9.055 64-63.39-56z"/><path fill="#FFEBAA" stroke="#000" d="M604.667 392.999l-9.055 64-63.39-56z"/><path fill="#FEC200" stroke="#000" d="M441.667 536.999l9.055-64 63.39 56z"/><path fill="#0081CD" stroke="#000" d="M514.112 528.999l9.055-64 63.389 56z"/><path fill="#FFEBAA" stroke="#000" d="M523.167 464.999l-9.055 64-63.39-56z"/><path fill="#AAD5EF" stroke="#000" d="M595.612 456.999l-9.056 64-63.389-56z"/><path fill="#0081CD" stroke="#000" d="M70.389 136.999L79.444 73l63.389 56z"/><path fill="#FEC200" stroke="#000" d="M142.833 129l9.056-64 63.389 55.999z"/><path fill="#AAD5EF" stroke="#000" d="M151.889 65l-9.056 64-63.389-56z"/><path fill="#FFEBAA" stroke="#000" d="M224.333 57l-9.055 63.999L151.889 65z"/><path fill="#FEC200" stroke="#000" d="M61.333 201l9.056-64.001 63.389 56z"/><path fill="#0081CD" stroke="#000" d="M133.778 192.999L142.833 129l63.389 56z"/><path fill="#FFEBAA" stroke="#000" d="M142.833 129l-9.055 63.999-63.389-56z"/><path fill="#AAD5EF" stroke="#000" d="M215.278 120.999L206.222 185l-63.389-56z"/><path fill="#0081CD" stroke="#000" d="M215.278 120.999L224.333 57l63.389 55.999z"/><path fill="#FEC200" stroke="#000" d="M287.722 112.999L296.778 49l63.389 55.999z"/><path fill="#AAD5EF" stroke="#000" d="M296.778 49l-9.056 63.999L224.333 57z"/><path fill="#FFEBAA" stroke="#000" d="M369.222 41l-9.055 63.999L296.778 49z"/><path fill="#FEC200" stroke="#000" d="M206.222 185l9.056-64.001 63.389 56z"/><path fill="#0081CD" stroke="#000" d="M278.667 176.999l9.055-64 63.389 56z"/><path fill="#FFEBAA" stroke="#000" d="M287.722 112.999l-9.055 64-63.389-56z"/><path fill="#AAD5EF" stroke="#000" d="M360.167 104.999l-9.056 64-63.389-56z"/><path fill="#0081CD" stroke="#000" d="M52.278 264.999L61.333 201l63.389 56z"/><path fill="#FEC200" stroke="#000" d="M124.722 257l9.056-64.001 63.389 56z"/><path fill="#AAD5EF" stroke="#000" d="M133.778 192.999L124.722 257l-63.389-56z"/><path fill="#FFEBAA" stroke="#000" d="M206.222 185l-9.055 63.999-63.389-56z"/><path fill="#FEC200" stroke="#000" d="M43.222 329l9.056-64.001L115.667 321z"/><path fill="#0081CD" stroke="#000" d="M115.667 321l9.055-64 63.389 56z"/><path fill="#FFEBAA" stroke="#000" d="M124.722 257l-9.055 64-63.389-56.001z"/><path fill="#AAD5EF" stroke="#000" d="M197.167 248.999L188.111 313l-63.389-56z"/><path fill="#0081CD" stroke="#000" d="M197.167 248.999L206.222 185l63.389 56z"/><path fill="#FEC200" stroke="#000" d="M269.611 241l9.056-64.001 63.389 56z"/><path fill="#AAD5EF" stroke="#000" d="M278.667 176.999L269.611 241l-63.389-56z"/><path fill="#FFEBAA" stroke="#000" d="M351.111 168.999l-9.055 64-63.389-56z"/><path fill="#FEC200" stroke="#000" d="M188.111 313l9.056-64.001L260.556 305z"/><path fill="#0081CD" stroke="#000" d="M260.556 305l9.055-64L333 297z"/><path fill="#FFEBAA" stroke="#000" d="M269.611 241l-9.055 64-63.389-56.001z"/><path fill="#AAD5EF" stroke="#000" d="M342.056 232.999L333 297l-63.389-56z"/><path fill="#0081CD" stroke="#000" d="M360.167 104.999L369.222 41l63.39 55.999z"/><path fill="#FEC200" stroke="#000" d="M432.612 96.999L441.667 33l63.389 55.999z"/><path fill="#AAD5EF" stroke="#000" d="M441.667 33l-9.055 63.999L369.222 41z"/><path fill="#FFEBAA" stroke="#000" d="M514.112 25l-9.056 63.999L441.667 33z"/><path fill="#FEC200" stroke="#000" d="M351.111 168.999l9.056-64 63.389 56z"/><path fill="#0081CD" stroke="#000" d="M423.556 160.999l9.056-64 63.388 56z"/><path fill="#FFEBAA" stroke="#000" d="M432.612 96.999l-9.056 64-63.389-56z"/><path fill="#AAD5EF" stroke="#000" d="M505.056 88.999l-9.056 64-63.388-56z"/><path fill="#0081CD" stroke="#000" d="M505.056 88.999L514.112 25 577.5 81z"/><path fill="#FEC200" stroke="#000" d="M577.5 81l9.056-64 63.388 56z"/><path fill="#AAD5EF" stroke="#000" d="M586.556 17L577.5 81l-63.388-56z"/><path fill="#FFEBAA" stroke="#000" d="M659 9l-9.056 64-63.388-56z"/><path fill="#FEC200" stroke="#000" d="M496 152.999l9.056-64 63.388 56z"/><path fill="#0081CD" stroke="#000" d="M568.444 144.999L577.5 81l63.388 55.999z"/><path fill="#FFEBAA" stroke="#000" d="M577.5 81l-9.056 63.999-63.388-56z"/><path fill="#AAD5EF" stroke="#000" d="M649.944 73l-9.056 63.999L577.5 81z"/><path fill="#0081CD" stroke="#000" d="M342.056 232.999l9.055-64 63.389 56z"/><path fill="#FEC200" stroke="#000" d="M414.5 224.999l9.056-64 63.388 56z"/><path fill="#AAD5EF" stroke="#000" d="M423.556 160.999l-9.056 64-63.389-56z"/><path fill="#FFEBAA" stroke="#000" d="M496 152.999l-9.056 64-63.388-56z"/><path fill="#FEC200" stroke="#000" d="M333 297l9.056-64.001L405.444 289z"/><path fill="#0081CD" stroke="#000" d="M405.444 289l9.056-64.001L477.888 281z"/><path fill="#FFEBAA" stroke="#000" d="M414.5 224.999L405.444 289l-63.388-56.001z"/><path fill="#AAD5EF" stroke="#000" d="M486.944 216.999L477.888 281 414.5 224.999z"/><path fill="#0081CD" stroke="#000" d="M486.944 216.999l9.056-64 63.388 56z"/><path fill="#FEC200" stroke="#000" d="M559.388 208.999l9.056-64L631.833 201z"/><path fill="#AAD5EF" stroke="#000" d="M568.444 144.999l-9.056 64-63.388-56z"/><path fill="#FFEBAA" stroke="#000" d="M640.888 136.999L631.833 201l-63.389-56.001z"/><path fill="#FEC200" stroke="#000" d="M477.888 281l9.056-64.001L550.333 273z"/><path fill="#0081CD" stroke="#000" d="M550.333 273l9.055-64.001 63.389 56z"/><path fill="#FFEBAA" stroke="#000" d="M559.388 208.999L550.333 273l-63.389-56.001z"/><path fill="#AAD5EF" stroke="#000" d="M631.833 201l-9.056 63.999-63.389-56z"/></svg>