<svg xmlns="http://www.w3.org/2000/svg" width="1098" height="684"><path fill="none" stroke="#009246" stroke-width="1.5" d="M935.699 45l-72.648 126H1008z"/><path fill="none" stroke="#BC1E47" stroke-width="1.5" d="M1008 171l-71.976 126M792 45l71.051 126m72.648-126H1080"/><path fill="none" stroke="#0081CD" stroke-width="1.5" d="M36 582l27 45M935.699 45H792m71.051 126l72.973 126M1008 171l72-124.967"/><path fill="none" stroke="#FEC200" stroke-width="2" stroke-dasharray="4,4" d="M514.868 117v216m10.073-208.746V333m28.878-216v216M455.69 174.562V333M421.1 208.985V333m-25.433-103.262V333m-25.434-124.015V333m-32.032-155.438V333"/><path fill="none" stroke="#FEC200" stroke-width="2" d="M276.334 116.871v2"/><path fill="none" stroke="#FEC200" stroke-width="2" stroke-dasharray="4.002,4.002" d="M276.334 122.873v206.126"/><path fill="none" stroke="#FEC200" stroke-width="2" d="M276.334 331v2"/><path fill="none" stroke="#FEC200" stroke-width="2" stroke-dasharray="4,4" d="M291.444 151.362V333"/><path fill="none" stroke="#FEC200" stroke-width="2" d="M135 396l93.95-40.129M207 489l102.771-130.755M387 459l-3.818-99.47"/><path fill="none" stroke="#FEC200" stroke-width="2" stroke-dasharray="4,4" d="M607.808 130v203"/><path fill="none" stroke="#FEC200" stroke-width="2" d="M612 576L447.324 359.801M770 490.5L524.252 357.866M90 522l186.457-163.027M306 567l43.747-206.097M522 540L411.542 360.143M588 450.666l-88.793-91.339M903.5 526.5L551.441 357.61M978 516.5L593.584 358.791M848 400.25l-200.097-42.496"/><path fill="none" stroke="#009246" stroke-width="1.5" d="M873 414h54m99 72l27 45m-153 9l-27 45m-126-36h54"/><path fill="#FFEBAA" d="M276.334 333h15.11v18h-15.11zm61.867 0h32.032v18h-32.032zm57.466 0H421.1v18h-25.433zm60.023 0h59.178v18H455.69zm69.251 0h28.878v18h-28.878zm82.867 0H660v18h-52.192z"/><path fill="#FEC200" d="M216 333h60.334v18H216zm75.444 0h46.757v18h-46.757zm78.789 0h25.434v18h-25.434zm50.867 0h34.59v18H421.1zm93.767 0h10.074v18h-10.074zm38.953 0h53.987v18H553.82z"/><path fill="none" stroke="#BC1E47" stroke-width="1.5" d="M648 504l-27 45m0 81l-27-45"/><path fill="none" stroke="#0081CD" stroke-width="1.5" d="M459 549h54m-135-27l27 45m-72 63l27-45m-153-84h-54m54 90l-27-45"/><path fill="none" stroke="#BC1E47" stroke-width="1.5" d="M261 501h-54m0 90l27-45m-81-45l27 45"/><path fill="none" stroke="#009246" stroke-width="1.5" d="M36 582l27-45"/><path fill="none" stroke="#BC1E47" stroke-width="1.5" d="M63 627l27-45m27-45H63m-54 0l27 45m0-141L9 396m81 45l-27 45m54-90H63"/><path fill="none" stroke="#009246" stroke-width="1.5" d="M63 396l-27 45h54"/><path fill="#FFEBAA" d="M1095 45c0 8.284-6.716 15-15 15s-15-6.716-15-15 6.716-15 15-15 15 6.716 15 15"/><circle fill="none" stroke="#000" cx="1080" cy="45" r="15"/><path fill="#FFEBAA" d="M1023 171c0 8.284-6.716 15-15 15s-15-6.716-15-15 6.716-15 15-15 15 6.716 15 15"/><circle fill="none" stroke="#000" cx="1008" cy="171" r="15"/><path fill="#FFEBAA" d="M951 45c0 8.284-6.716 15-15 15s-15-6.716-15-15 6.716-15 15-15 15 6.716 15 15"/><circle fill="none" stroke="#000" cx="936" cy="45" r="15"/><path fill="#FFEBAA" d="M807 45c0 8.284-6.716 15-15 15s-15-6.716-15-15 6.716-15 15-15 15 6.716 15 15"/><circle fill="none" stroke="#000" cx="792" cy="45" r="15"/><path fill="#FFEBAA" d="M879 171c0 8.284-6.716 15-15 15s-15-6.716-15-15 6.716-15 15-15 15 6.716 15 15"/><circle fill="none" stroke="#000" cx="864" cy="171" r="15"/><path fill="#FFEBAA" d="M951 297c0 8.284-6.716 15-15 15s-15-6.716-15-15 6.716-15 15-15 15 6.716 15 15"/><circle fill="none" stroke="#000" cx="936" cy="297" r="15"/><path fill="none" stroke="#000" d="M216 19.333V351m-18-18h594"/><path fill="none" stroke="#009246" stroke-width="1.5" d="M208 117h473.334M208 88.667l471.5 38.587M208 152l475.641-41.639"/><path fill="none" stroke="#0081CD" stroke-width="1.5" d="M199.333 41.333L515 351M203.333 19.333L492 358M195 66l342.334 279.334"/><path fill="none" stroke="#BC1E47" stroke-width="1.5" d="M592 41.333L276.334 351M588 19.333L299.334 358m297-292L254 345.334"/><text transform="translate(858 177)" font-family="Times,serif" font-style="italic" font-size="24">p</text><text transform="translate(1002 177)" font-family="Times,serif" font-style="italic" font-size="24">q</text><text transform="translate(931.32 51)" font-family="Times,serif" font-style="italic" font-size="24">r</text><text transform="translate(786.672 51)" font-family="Times,serif" font-style="italic" font-size="24">y</text><text transform="translate(1075.32 51)" font-family="Times,serif" font-style="italic" font-size="24">z</text><text transform="translate(930.672 303)" font-family="Times,serif" font-style="italic" font-size="24">x</text><text transform="translate(687.336 118.008)" font-family="Times,serif" font-style="italic" font-size="24">pq</text><text transform="translate(687.336 97.008)" font-family="Times,serif" font-style="italic" font-size="24">pr</text><text transform="translate(687.336 140.016)" font-family="Times,serif" font-style="italic" font-size="24">qr</text><text transform="translate(603 45.024)" font-family="Times,serif" font-style="italic" font-size="24">qx</text><text transform="translate(603 18)" font-family="Times,serif" font-style="italic" font-size="24">rz</text><text transform="translate(603 72)" font-family="Times,serif" font-style="italic" font-size="24">py</text><text transform="translate(162 45)" font-family="Times,serif" font-style="italic" font-size="24">px</text><text transform="translate(162 72)" font-family="Times,serif" font-style="italic" font-size="24">ry</text><text transform="translate(162 18)" font-family="Times,serif" font-style="italic" font-size="24">qz</text><path fill="#FEC200" d="M15 396a6 6 0 0 1-12 0c0-3.312 2.687-6 6-6s6 2.688 6 6"/><circle fill="none" stroke="#000" cx="9" cy="396" r="6"/><path fill="#FEC200" d="M42 441a6 6 0 0 1-12 0c0-3.312 2.687-6 6-6s6 2.688 6 6"/><circle fill="none" stroke="#000" cx="36" cy="441" r="6"/><path fill="#FEC200" d="M69 486a6 6 0 0 1-12 0c0-3.312 2.687-6 6-6s6 2.688 6 6"/><circle fill="none" stroke="#000" cx="63" cy="486" r="6"/><path fill="#FEC200" d="M96 441a6 6 0 0 1-12 0c0-3.312 2.687-6 6-6s6 2.688 6 6"/><circle fill="none" stroke="#000" cx="90" cy="441" r="6"/><path fill="#FEC200" d="M69 396a6 6 0 0 1-12 0c0-3.312 2.687-6 6-6s6 2.688 6 6"/><circle fill="none" stroke="#000" cx="63" cy="396" r="6"/><path fill="#FEC200" d="M123 396a6 6 0 0 1-12 0c0-3.312 2.687-6 6-6s6 2.688 6 6"/><circle fill="none" stroke="#000" cx="117" cy="396" r="6"/><path fill="#FFEBAA" d="M15 537a6 6 0 0 1-12 0c0-3.312 2.687-6 6-6s6 2.688 6 6"/><circle fill="none" stroke="#000" cx="9" cy="537" r="6"/><path fill="#FFEBAA" d="M42 582a6 6 0 0 1-12 0 6 6 0 0 1 12 0"/><circle fill="none" stroke="#000" cx="36" cy="582" r="6"/><path fill="#FFEBAA" d="M69 627a6 6 0 0 1-12 0 6 6 0 0 1 12 0"/><circle fill="none" stroke="#000" cx="63" cy="627" r="6"/><path fill="#FFEBAA" d="M96 582a6 6 0 0 1-12 0 6 6 0 0 1 12 0"/><circle fill="none" stroke="#000" cx="90" cy="582" r="6"/><path fill="#FFEBAA" d="M69 537a6 6 0 0 1-12 0c0-3.312 2.687-6 6-6s6 2.688 6 6"/><circle fill="none" stroke="#000" cx="63" cy="537" r="6"/><path fill="#FFEBAA" d="M123 537a6 6 0 0 1-12 0c0-3.312 2.687-6 6-6s6 2.688 6 6"/><circle fill="none" stroke="#000" cx="117" cy="537" r="6"/><path fill="#FEC200" d="M159 501a6 6 0 0 1-12 0c0-3.312 2.687-6 6-6s6 2.688 6 6"/><circle fill="none" stroke="#000" cx="153" cy="501" r="6"/><path fill="#FEC200" d="M186 546a6 6 0 0 1-12 0c0-3.312 2.687-6 6-6s6 2.688 6 6"/><circle fill="none" stroke="#000" cx="180" cy="546" r="6"/><path fill="#FEC200" d="M213 591a6 6 0 0 1-12 0 6 6 0 0 1 12 0"/><circle fill="none" stroke="#000" cx="207" cy="591" r="6"/><path fill="#FEC200" d="M240 546a6 6 0 0 1-12 0c0-3.312 2.687-6 6-6s6 2.688 6 6"/><circle fill="none" stroke="#000" cx="234" cy="546" r="6"/><path fill="#FEC200" d="M213 501a6 6 0 0 1-12 0c0-3.312 2.687-6 6-6s6 2.688 6 6"/><circle fill="none" stroke="#000" cx="207" cy="501" r="6"/><path fill="#FEC200" d="M267 501a6 6 0 0 1-12 0c0-3.312 2.687-6 6-6s6 2.688 6 6"/><circle fill="none" stroke="#000" cx="261" cy="501" r="6"/><path fill="none" stroke="#0081CD" stroke-width="1.5" d="M306 585h-54"/><path fill="none" stroke="#BC1E47" stroke-width="1.5" d="M360 585h-54m0 90l27-45m-81-45l27 45"/><path fill="#FFEBAA" d="M258 585a6 6 0 0 1-12 0 6 6 0 0 1 12 0"/><circle fill="none" stroke="#000" cx="252" cy="585" r="6"/><path fill="#FFEBAA" d="M285 630a6 6 0 0 1-12 0 6 6 0 0 1 12 0"/><circle fill="none" stroke="#000" cx="279" cy="630" r="6"/><path fill="#FFEBAA" d="M312 675a6 6 0 0 1-12 0 6 6 0 0 1 12 0"/><circle fill="none" stroke="#000" cx="306" cy="675" r="6"/><path fill="#FFEBAA" d="M339 630a6 6 0 0 1-12 0 6 6 0 0 1 12 0"/><circle fill="none" stroke="#000" cx="333" cy="630" r="6"/><path fill="#FFEBAA" d="M312 585a6 6 0 0 1-12 0 6 6 0 0 1 12 0"/><circle fill="none" stroke="#000" cx="306" cy="585" r="6"/><path fill="#FFEBAA" d="M366 585a6 6 0 0 1-12 0 6 6 0 0 1 12 0"/><circle fill="none" stroke="#000" cx="360" cy="585" r="6"/><path fill="none" stroke="#0081CD" stroke-width="1.5" d="M432 522l27-45"/><path fill="none" stroke="#BC1E47" stroke-width="1.5" d="M459 477h-54m0 90l27-45m-81-45l27 45"/><path fill="#FEC200" d="M357 477a6 6 0 0 1-12 0c0-3.312 2.687-6 6-6s6 2.688 6 6"/><circle fill="none" stroke="#000" cx="351" cy="477" r="6"/><path fill="#FEC200" d="M384 522a6 6 0 0 1-12 0c0-3.312 2.687-6 6-6s6 2.688 6 6"/><circle fill="none" stroke="#000" cx="378" cy="522" r="6"/><path fill="#FEC200" d="M411 567a6 6 0 1 1-12 0 6 6 0 0 1 12 0"/><circle fill="none" stroke="#000" cx="405" cy="567" r="6"/><path fill="#FEC200" d="M438 522a6 6 0 1 1-12 0 6 6 0 0 1 12 0"/><circle fill="none" stroke="#000" cx="432" cy="522" r="6"/><path fill="#FEC200" d="M411 477a6 6 0 1 1-12 0 6 6 0 0 1 12 0"/><circle fill="none" stroke="#000" cx="405" cy="477" r="6"/><path fill="#FEC200" d="M465 477a6 6 0 1 1-12 0 6 6 0 0 1 12 0"/><circle fill="none" stroke="#000" cx="459" cy="477" r="6"/><path fill="none" stroke="#0081CD" stroke-width="1.5" d="M486 594l27 45m27-45l27-45"/><path fill="none" stroke="#BC1E47" stroke-width="1.5" d="M567 549h-54m0 90l27-45"/><path fill="#FFEBAA" d="M465 549a6 6 0 1 1-12 0 6 6 0 0 1 12 0"/><circle fill="none" stroke="#000" cx="459" cy="549" r="6"/><path fill="#FFEBAA" d="M492 594a6 6 0 1 1-12 0 6 6 0 0 1 12 0"/><circle fill="none" stroke="#000" cx="486" cy="594" r="6"/><path fill="#FFEBAA" d="M519 639a6 6 0 1 1-12 0 6 6 0 0 1 12 0"/><circle fill="none" stroke="#000" cx="513" cy="639" r="6"/><path fill="#FFEBAA" d="M546 594a6 6 0 1 1-12 0 6 6 0 0 1 12 0"/><circle fill="none" stroke="#000" cx="540" cy="594" r="6"/><path fill="#FFEBAA" d="M519 549a6 6 0 1 1-12 0 6 6 0 0 1 12 0"/><circle fill="none" stroke="#000" cx="513" cy="549" r="6"/><path fill="#FFEBAA" d="M573 549a6 6 0 1 1-12 0 6 6 0 0 1 12 0"/><circle fill="none" stroke="#000" cx="567" cy="549" r="6"/><path fill="none" stroke="#0081CD" stroke-width="1.5" d="M594 585h54m-27 45l27 45m27-45l27-45"/><path fill="none" stroke="#BC1E47" stroke-width="1.5" d="M702 585h-54"/><path fill="#FEC200" d="M600 585a6 6 0 1 1-12 0 6 6 0 0 1 12 0"/><circle fill="none" stroke="#000" cx="594" cy="585" r="6"/><path fill="#FEC200" d="M627 630a6 6 0 1 1-12 0 6 6 0 0 1 12 0"/><circle fill="none" stroke="#000" cx="621" cy="630" r="6"/><path fill="#FEC200" d="M654 675a6 6 0 1 1-12 0 6 6 0 0 1 12 0"/><circle fill="none" stroke="#000" cx="648" cy="675" r="6"/><path fill="#FEC200" d="M681 630a6 6 0 1 1-12 0 6 6 0 0 1 12 0"/><circle fill="none" stroke="#000" cx="675" cy="630" r="6"/><path fill="#FEC200" d="M654 585a6 6 0 1 1-12 0 6 6 0 0 1 12 0"/><circle fill="none" stroke="#000" cx="648" cy="585" r="6"/><path fill="#FEC200" d="M708 585a6 6 0 1 1-12 0 6 6 0 0 1 12 0"/><circle fill="none" stroke="#000" cx="702" cy="585" r="6"/><path fill="none" stroke="#BC1E47" stroke-width="1.5" d="M594 504l-27-45"/><path fill="none" stroke="#0081CD" stroke-width="1.5" d="M567 459h54m-27 45l27 45m27-45l27-45"/><path fill="#FFEBAA" d="M573 459a6 6 0 1 1-12 0 6 6 0 0 1 12 0"/><circle fill="none" stroke="#000" cx="567" cy="459" r="6"/><path fill="#FFEBAA" d="M600 504a6 6 0 1 1-12 0 6 6 0 0 1 12 0"/><circle fill="none" stroke="#000" cx="594" cy="504" r="6"/><path fill="#FFEBAA" d="M627 549a6 6 0 1 1-12 0 6 6 0 0 1 12 0"/><circle fill="none" stroke="#000" cx="621" cy="549" r="6"/><path fill="#FFEBAA" d="M654 504a6 6 0 1 1-12 0 6 6 0 0 1 12 0"/><circle fill="none" stroke="#000" cx="648" cy="504" r="6"/><path fill="#FFEBAA" d="M627 459a6 6 0 1 1-12 0 6 6 0 0 1 12 0"/><circle fill="none" stroke="#000" cx="621" cy="459" r="6"/><path fill="#FFEBAA" d="M681 459a6 6 0 1 1-12 0 6 6 0 0 1 12 0"/><circle fill="none" stroke="#000" cx="675" cy="459" r="6"/><path fill="none" stroke="#BC1E47" stroke-width="1.5" d="M747 549l-27-45"/><path fill="none" stroke="#0081CD" stroke-width="1.5" d="M720 504h54m-27 45l27 45m27-45l27-45"/><path fill="#FEC200" d="M726 504a6 6 0 1 1-12 0 6 6 0 0 1 12 0"/><circle fill="none" stroke="#000" cx="720" cy="504" r="6"/><path fill="#FEC200" d="M753 549a6 6 0 1 1-12 0 6 6 0 0 1 12 0"/><circle fill="none" stroke="#000" cx="747" cy="549" r="6"/><path fill="#FEC200" d="M780 594a6 6 0 1 1-12 0 6 6 0 0 1 12 0"/><circle fill="none" stroke="#000" cx="774" cy="594" r="6"/><path fill="#FEC200" d="M807 549a6 6 0 1 1-12 0 6 6 0 0 1 12 0"/><circle fill="none" stroke="#000" cx="801" cy="549" r="6"/><path fill="#FEC200" d="M780 504a6 6 0 1 1-12 0 6 6 0 0 1 12 0"/><circle fill="none" stroke="#000" cx="774" cy="504" r="6"/><path fill="#FEC200" d="M834 504a6 6 0 1 1-12 0 6 6 0 0 1 12 0"/><circle fill="none" stroke="#000" cx="828" cy="504" r="6"/><path fill="none" stroke="#009246" stroke-width="1.5" d="M873 585h54"/><path fill="none" stroke="#BC1E47" stroke-width="1.5" d="M873 585l-27-45"/><path fill="none" stroke="#0081CD" stroke-width="1.5" d="M873 585l27 45m27-45l27-45"/><path fill="#FFEBAA" d="M852 540a6 6 0 1 1-12 0 6 6 0 0 1 12 0"/><circle fill="none" stroke="#000" cx="846" cy="540" r="6"/><path fill="#FFEBAA" d="M879 585a6 6 0 1 1-12 0 6 6 0 0 1 12 0"/><circle fill="none" stroke="#000" cx="873" cy="585" r="6"/><path fill="#FFEBAA" d="M906 630a6 6 0 1 1-12 0 6 6 0 0 1 12 0"/><circle fill="none" stroke="#000" cx="900" cy="630" r="6"/><path fill="#FFEBAA" d="M933 585a6 6 0 1 1-12 0 6 6 0 0 1 12 0"/><circle fill="none" stroke="#000" cx="927" cy="585" r="6"/><path fill="#FFEBAA" d="M906 540a6 6 0 1 1-12 0 6 6 0 0 1 12 0"/><circle fill="none" stroke="#000" cx="900" cy="540" r="6"/><path fill="#FFEBAA" d="M960 540a6 6 0 1 1-12 0 6 6 0 0 1 12 0"/><circle fill="none" stroke="#000" cx="954" cy="540" r="6"/><path fill="none" stroke="#009246" stroke-width="1.5" d="M1026 486l-27 45"/><path fill="none" stroke="#BC1E47" stroke-width="1.5" d="M999 531l-27-45"/><path fill="none" stroke="#0081CD" stroke-width="1.5" d="M999 531l27 45m27-45l27-45"/><path fill="#FEC200" d="M978 486a6 6 0 1 1-12 0 6 6 0 0 1 12 0"/><circle fill="none" stroke="#000" cx="972" cy="486" r="6"/><path fill="#FEC200" d="M1005 531a6 6 0 1 1-12 0 6 6 0 0 1 12 0"/><circle fill="none" stroke="#000" cx="999" cy="531" r="6"/><path fill="#FEC200" d="M1032 576a6 6 0 1 1-12 0 6 6 0 0 1 12 0"/><circle fill="none" stroke="#000" cx="1026" cy="576" r="6"/><path fill="#FEC200" d="M1059 531a6 6 0 1 1-12 0 6 6 0 0 1 12 0"/><circle fill="none" stroke="#000" cx="1053" cy="531" r="6"/><path fill="#FEC200" d="M1032 486a6 6 0 1 1-12 0 6 6 0 0 1 12 0"/><circle fill="none" stroke="#000" cx="1026" cy="486" r="6"/><path fill="#FEC200" d="M1086 486a6 6 0 1 1-12 0 6 6 0 0 1 12 0"/><circle fill="none" stroke="#000" cx="1080" cy="486" r="6"/><path fill="none" stroke="#009246" stroke-width="1.5" d="M900 369l27 45"/><path fill="none" stroke="#BC1E47" stroke-width="1.5" d="M873 414l-27-45"/><path fill="none" stroke="#0081CD" stroke-width="1.5" d="M873 414l27 45m27-45l27-45"/><path fill="#FFEBAA" d="M852 369a6 6 0 1 1-12 0 6 6 0 0 1 12 0"/><circle fill="none" stroke="#000" cx="846" cy="369" r="6"/><path fill="#FFEBAA" d="M879 414a6 6 0 1 1-12 0 6 6 0 0 1 12 0"/><circle fill="none" stroke="#000" cx="873" cy="414" r="6"/><path fill="#FFEBAA" d="M906 459a6 6 0 1 1-12 0 6 6 0 0 1 12 0"/><circle fill="none" stroke="#000" cx="900" cy="459" r="6"/><path fill="#FFEBAA" d="M933 414a6 6 0 1 1-12 0 6 6 0 0 1 12 0"/><circle fill="none" stroke="#000" cx="927" cy="414" r="6"/><path fill="#FFEBAA" d="M906 369a6 6 0 1 1-12 0 6 6 0 0 1 12 0"/><circle fill="none" stroke="#000" cx="900" cy="369" r="6"/><path fill="#FFEBAA" d="M960 369a6 6 0 1 1-12 0 6 6 0 0 1 12 0"/><circle fill="none" stroke="#000" cx="954" cy="369" r="6"/><path fill="#FEC200" d="M279.334 116.871a3 3 0 1 1-6 0 3 3 0 0 1 6 0"/><circle fill="none" stroke="#000" cx="276.334" cy="116.871" r="3"/><path fill="#FEC200" d="M294.444 144.695a3 3 0 1 1-6 0 3 3 0 0 1 6 0"/><circle fill="none" stroke="#000" cx="291.444" cy="144.695" r="3"/><path fill="#FEC200" d="M234.5 353.5c-2.198 2.085-4.732 5.122-5.992 7.731l-.286-5.05-3.45-3.697c2.756.894 6.703 1.163 9.728 1.016m106.701-175.938a3 3 0 1 1-6 0 3 3 0 0 1 6 0"/><circle fill="none" stroke="#000" cx="338.201" cy="177.562" r="3"/><path fill="#FEC200" d="M373.233 208.985a3 3 0 1 1-6 0 3 3 0 0 1 6 0"/><circle fill="none" stroke="#000" cx="370.233" cy="208.985" r="3"/><path fill="#FEC200" d="M313.5 353.5c-.926 2.884-1.69 6.765-1.542 9.659l-2.677-4.292-4.801-1.585c2.847-.541 6.437-2.2 9.02-3.782m85.167-123.762a3 3 0 1 1-6 0 3 3 0 0 1 6 0"/><circle fill="none" stroke="#000" cx="395.667" cy="229.738" r="3"/><path fill="#FEC200" d="M382.95 353.5c1.162 2.797 3.094 6.249 5.08 8.358l-4.818-1.536-4.685 1.901c1.819-2.255 3.48-5.845 4.423-8.723m41.15-144.515a3 3 0 1 1-6 0 3 3 0 0 1 6 0"/><circle fill="none" stroke="#000" cx="421.1" cy="208.985" r="3"/><path fill="#FEC200" d="M458.69 174.562a3 3 0 1 1-6 0 3 3 0 0 1 6 0"/><circle fill="none" stroke="#000" cx="455.69" cy="174.562" r="3"/><path fill="#FEC200" d="M556.819 117a3 3 0 1 1-6 0 3 3 0 0 1 6 0"/><circle fill="none" stroke="#000" cx="553.819" cy="117" r="3"/><path fill="#FEC200" d="M610.808 117a3 3 0 1 1-6 0 3 3 0 0 1 6 0"/><circle fill="none" stroke="#000" cx="607.808" cy="117" r="3"/><path fill="#FEC200" d="M443.667 355c2.559 1.621 6.124 3.334 8.962 3.918l-4.825 1.513-2.741 4.25c.192-2.892-.513-6.784-1.396-9.681m84.274-230.746a3 3 0 1 1-6 0 3 3 0 0 1 6 0"/><circle fill="none" stroke="#000" cx="524.941" cy="124.254" r="3"/><path fill="#FEC200" d="M518.941 355c3 .422 6.954.513 9.78-.126l-3.772 3.368-.744 5.002c-1.017-2.713-3.265-5.969-5.264-8.244m-1.073-238a3 3 0 1 1-6 0 3 3 0 0 1 6 0"/><circle fill="none" stroke="#000" cx="514.868" cy="117" r="3"/><path fill="#FEC200" d="M281 355c-1.444 2.662-2.914 6.335-3.304 9.206l-1.836-4.712-4.424-2.447c2.897-.004 6.733-.97 9.564-2.047m70 0c.441 2.997 1.468 6.816 2.877 9.349l-4.294-2.67-5.009.695c2.316-1.741 4.806-4.814 6.426-7.374m57.384 0c2.384 1.868 5.76 3.93 8.526 4.795l-4.953 1.022-3.152 3.954c.48-2.857.168-6.8-.421-9.771M495 355c2.735 1.302 6.48 2.575 9.368 2.813l-4.609 2.083-2.211 4.547c-.156-2.893-1.323-6.672-2.548-9.443m51 0c3.017.278 6.971.182 9.764-.591l-3.608 3.544-.506 5.031c-1.146-2.662-3.545-5.806-5.65-7.984m42 1.5c3.027.104 6.97-.223 9.713-1.156l-3.396 3.747-.214 5.053c-1.298-2.591-3.875-5.592-6.103-7.644m54 0c2.997-.44 6.816-1.468 9.349-2.876l-2.671 4.294.695 5.009c-1.741-2.317-4.813-4.807-7.373-6.427"/></svg>