<svg xmlns="http://www.w3.org/2000/svg" width="314" height="489.5">
    <g fill="#FFEBAA" stroke="#000">
        <path d="M29.132 202.651L5.33 129.396l62.314-45.274 62.314 45.274-23.801 73.255z"/>
        <path d="M168.47 10.867l23.802 73.255-62.314 45.274-62.314-45.274 23.801-73.255z"/>
        <path d="M206.983 129.396l23.803 73.255-62.314 45.274-62.315-45.274 23.801-73.255zM67.645 321.18l-23.802-73.255 62.314-45.274 62.315 45.274-23.803 73.255zm177.851-73.255l23.803 73.255-62.315 45.274-62.315-45.274 23.803-73.255z"/>
        <path d="M106.157 439.709l-23.802-73.256 62.314-45.273 62.314 45.273-23.802 73.256zm177.852-73.256l23.803 73.256-62.315 45.273-62.316-45.273 23.802-73.256z"/>
    </g>
    <g fill="none" stroke="#231F20">
        <path d="M67.644 84.122v65.521l62.314-20.247m-23.801 73.255l-38.513-53.008-38.512 53.008M5.33 129.396l62.314 20.247m38.512 53.008v65.521l62.316-20.247m-23.803 73.255l-38.513-53.008-38.511 53.008m-23.802-73.255l62.313 20.247m38.513 53.008v65.521l62.314-20.247m-23.802 73.255l-38.512-53.008-38.512 53.008m-23.802-73.255l62.314 20.247m100.826 98.282v-65.52l-62.314 20.246m23.8-73.254l38.514 53.008 38.512-53.008m23.802 73.254l-62.314-20.246"/>
        <path d="M129.956 129.396v-65.52L67.642 84.122"/>
        <path d="M91.442 10.868l38.514 53.008 38.512-53.008m23.802 73.254l-62.314-20.246m77.026 302.579v-65.521l-62.315 20.247m23.803-73.255l38.512 53.008 38.511-53.008m23.803 73.255l-62.314-20.247m-38.512-53.008v-65.522l-62.315 20.247m23.803-73.255l38.512 53.008 38.511-53.008m23.803 73.255l-62.314-20.247"/>
    </g>
    <path fill="none" stroke="#BC1E47" stroke-width="2" d="M110 0l54.667 439.709"/>
</svg>
