<svg xmlns="http://www.w3.org/2000/svg" width="603" height="481"><path fill="#FFEBAA" d="M18 301V17.5h567V139z"/><path fill="#AAD5EF" d="M18 463V301l567-162v324z"/><path fill="#AAD5EF" d="M45 463V301l540-162v324z"/><g fill="#0081CD" stroke="#000"><circle cx="58.5" cy="422.5" r="13.5"/><circle cx="99" cy="422.5" r="13.5"/><circle cx="139.5" cy="422.5" r="13.5"/><circle cx="180" cy="422.5" r="13.5"/><circle cx="220.5" cy="422.5" r="13.5"/><circle cx="261" cy="422.5" r="13.5"/><circle cx="301.5" cy="422.5" r="13.5"/><circle cx="342" cy="422.5" r="13.5"/><circle cx="382.5" cy="422.5" r="13.5"/><circle cx="423" cy="422.5" r="13.5"/><circle cx="463.5" cy="422.5" r="13.5"/><circle cx="504" cy="422.5" r="13.5"/><circle cx="544.5" cy="422.5" r="13.5"/><circle cx="58.5" cy="382" r="13.5"/><circle cx="99" cy="382" r="13.5"/><circle cx="139.5" cy="382" r="13.5"/><circle cx="180" cy="382" r="13.5"/><circle cx="220.5" cy="382" r="13.5"/><circle cx="261" cy="382" r="13.5"/><circle cx="301.5" cy="382" r="13.5"/><circle cx="342" cy="382" r="13.5"/><circle cx="382.5" cy="382" r="13.5"/><circle cx="423" cy="382" r="13.5"/><circle cx="463.5" cy="382" r="13.5"/><circle cx="504" cy="382" r="13.5"/><circle cx="544.5" cy="382" r="13.5"/><circle cx="58.5" cy="341.5" r="13.5"/><circle cx="99" cy="341.5" r="13.5"/><circle cx="139.5" cy="341.5" r="13.5"/><circle cx="180" cy="341.5" r="13.5"/><circle cx="220.5" cy="341.5" r="13.5"/><circle cx="261" cy="341.5" r="13.5"/><circle cx="301.5" cy="341.5" r="13.5"/><circle cx="342" cy="341.5" r="13.5"/><circle cx="382.5" cy="341.5" r="13.5"/><circle cx="423" cy="341.5" r="13.5"/><circle cx="463.5" cy="341.5" r="13.5"/><circle cx="504" cy="341.5" r="13.5"/><circle cx="544.5" cy="341.5" r="13.5"/><circle cx="58.5" cy="301" r="13.5"/><circle cx="99" cy="301" r="13.5"/><circle cx="139.5" cy="301" r="13.5"/><circle cx="180" cy="301" r="13.5"/><circle cx="220.5" cy="301" r="13.5"/><circle cx="261" cy="301" r="13.5"/><circle cx="301.5" cy="301" r="13.5"/><circle cx="342" cy="301" r="13.5"/><circle cx="382.5" cy="301" r="13.5"/><circle cx="423" cy="301" r="13.5"/><circle cx="463.5" cy="301" r="13.5"/><circle cx="504" cy="301" r="13.5"/><circle cx="544.5" cy="301" r="13.5"/><circle cx="180" cy="260.5" r="13.5"/><circle cx="220.5" cy="260.5" r="13.5"/><circle cx="261" cy="260.5" r="13.5"/><circle cx="301.5" cy="260.5" r="13.5"/><circle cx="342" cy="260.5" r="13.5"/><circle cx="382.5" cy="260.5" r="13.5"/><circle cx="423" cy="260.5" r="13.5"/><circle cx="463.5" cy="260.5" r="13.5"/><circle cx="504" cy="260.5" r="13.5"/><circle cx="544.5" cy="260.5" r="13.5"/><circle cx="342" cy="220" r="13.5"/><circle cx="382.5" cy="220" r="13.5"/><circle cx="423" cy="220" r="13.5"/><circle cx="463.5" cy="220" r="13.5"/><circle cx="504" cy="220" r="13.5"/><circle cx="544.5" cy="220" r="13.5"/><circle cx="463.5" cy="179.5" r="13.5"/><circle cx="504" cy="179.5" r="13.5"/><circle cx="544.5" cy="179.5" r="13.5"/></g><g fill="#BC1E47" stroke="#000"><circle cx="18" cy="260.5" r="13.5"/><circle cx="58.5" cy="260.5" r="13.5"/><circle cx="99" cy="260.5" r="13.5"/><circle cx="139.5" cy="260.5" r="13.5"/><circle cx="18" cy="220" r="13.5"/><circle cx="58.5" cy="220" r="13.5"/><circle cx="99" cy="220" r="13.5"/><circle cx="139.5" cy="220" r="13.5"/><circle cx="180" cy="220" r="13.5"/><circle cx="220.5" cy="220" r="13.5"/><circle cx="261" cy="220" r="13.5"/><circle cx="18" cy="179.5" r="13.5"/><circle cx="58.5" cy="179.5" r="13.5"/><circle cx="99" cy="179.5" r="13.5"/><circle cx="139.5" cy="179.5" r="13.5"/><circle cx="180" cy="179.5" r="13.5"/><circle cx="220.5" cy="179.5" r="13.5"/><circle cx="261" cy="179.5" r="13.5"/><circle cx="301.5" cy="179.5" r="13.5"/><circle cx="342" cy="179.5" r="13.5"/><circle cx="382.5" cy="179.5" r="13.5"/><circle cx="423" cy="179.5" r="13.5"/><circle cx="18" cy="139" r="13.5"/><circle cx="58.5" cy="139" r="13.5"/><circle cx="99" cy="139" r="13.5"/><circle cx="139.5" cy="139" r="13.5"/><circle cx="180" cy="139" r="13.5"/><circle cx="220.5" cy="139" r="13.5"/><circle cx="261" cy="139" r="13.5"/><circle cx="301.5" cy="139" r="13.5"/><circle cx="342" cy="139" r="13.5"/><circle cx="382.5" cy="139" r="13.5"/><circle cx="423" cy="139" r="13.5"/><circle cx="463.5" cy="139" r="13.5"/><circle cx="504" cy="139" r="13.5"/><circle cx="544.5" cy="139" r="13.5"/><circle cx="18" cy="98.5" r="13.5"/><circle cx="58.5" cy="98.5" r="13.5"/><circle cx="99" cy="98.5" r="13.5"/><circle cx="139.5" cy="98.5" r="13.5"/><circle cx="180" cy="98.5" r="13.5"/><circle cx="220.5" cy="98.5" r="13.5"/><circle cx="261" cy="98.5" r="13.5"/><circle cx="301.5" cy="98.5" r="13.5"/><circle cx="342" cy="98.5" r="13.5"/><circle cx="382.5" cy="98.5" r="13.5"/><circle cx="423" cy="98.5" r="13.5"/><circle cx="463.5" cy="98.5" r="13.5"/><circle cx="504" cy="98.5" r="13.5"/><circle cx="544.5" cy="98.5" r="13.5"/><circle cx="585" cy="98.5" r="13.5"/><circle cx="18" cy="58" r="13.5"/><circle cx="58.5" cy="58" r="13.5"/><circle cx="99" cy="58" r="13.5"/><circle cx="139.5" cy="58" r="13.5"/><circle cx="180" cy="58" r="13.5"/><circle cx="220.5" cy="58" r="13.5"/><circle cx="261" cy="58" r="13.5"/><circle cx="301.5" cy="58" r="13.5"/><circle cx="342" cy="58" r="13.5"/><circle cx="382.5" cy="58" r="13.5"/><circle cx="423" cy="58" r="13.5"/><circle cx="463.5" cy="58" r="13.5"/><circle cx="504" cy="58" r="13.5"/><circle cx="544.5" cy="58" r="13.5"/><circle cx="585" cy="58" r="13.5"/><circle cx="18" cy="17.5" r="13.5"/><circle cx="58.5" cy="17.5" r="13.5"/><circle cx="99" cy="17.5" r="13.5"/><circle cx="139.5" cy="17.5" r="13.5"/><circle cx="180" cy="17.5" r="13.5"/><circle cx="220.5" cy="17.5" r="13.5"/><circle cx="261" cy="17.5" r="13.5"/><circle cx="301.5" cy="17.5" r="13.5"/><circle cx="342" cy="17.5" r="13.5"/><circle cx="382.5" cy="17.5" r="13.5"/><circle cx="423" cy="17.5" r="13.5"/><circle cx="463.5" cy="17.5" r="13.5"/><circle cx="504" cy="17.5" r="13.5"/><circle cx="544.5" cy="17.5" r="13.5"/><circle cx="585" cy="17.5" r="13.5"/></g><circle fill="#0081CD" cx="58.5" cy="463" r="13.5"/><path fill="#BC1E47" d="M72 463c0 7.456-6.044 13.5-13.5 13.5S45 470.456 45 463"/><circle fill="none" stroke="#000" cx="58.5" cy="463" r="13.5"/><circle fill="#0081CD" cx="301.5" cy="220" r="13.5"/><path fill="#BC1E47" d="M288 220c0-7.456 6.044-13.5 13.5-13.5S315 212.544 315 220"/><circle fill="none" stroke="#000" cx="301.5" cy="220" r="13.5"/><circle fill="#0081CD" cx="585" cy="422.5" r="13.5"/><path fill="#BC1E47" d="M585 409c7.456 0 13.5 6.044 13.5 13.5S592.456 436 585 436"/><circle fill="none" stroke="#000" cx="585" cy="422.5" r="13.5"/><circle fill="#0081CD" cx="585" cy="382" r="13.5"/><path fill="#BC1E47" d="M585 368.5c7.456 0 13.5 6.044 13.5 13.5s-6.044 13.5-13.5 13.5"/><circle fill="none" stroke="#000" cx="585" cy="382" r="13.5"/><circle fill="#0081CD" cx="585" cy="341.5" r="13.5"/><path fill="#BC1E47" d="M585 328c7.456 0 13.5 6.044 13.5 13.5S592.456 355 585 355"/><circle fill="none" stroke="#000" cx="585" cy="341.5" r="13.5"/><circle fill="#0081CD" cx="585" cy="301" r="13.5"/><path fill="#BC1E47" d="M585 287.5c7.456 0 13.5 6.044 13.5 13.5s-6.044 13.5-13.5 13.5"/><circle fill="none" stroke="#000" cx="585" cy="301" r="13.5"/><circle fill="#0081CD" cx="585" cy="260.5" r="13.5"/><path fill="#BC1E47" d="M585 247c7.456 0 13.5 6.044 13.5 13.5S592.456 274 585 274"/><circle fill="none" stroke="#000" cx="585" cy="260.5" r="13.5"/><circle fill="#0081CD" cx="585" cy="220" r="13.5"/><path fill="#BC1E47" d="M585 206.5c7.456 0 13.5 6.044 13.5 13.5s-6.044 13.5-13.5 13.5"/><circle fill="none" stroke="#000" cx="585" cy="220" r="13.5"/><circle fill="#0081CD" cx="585" cy="179.5" r="13.5"/><path fill="#BC1E47" d="M585 166c7.456 0 13.5 6.044 13.5 13.5S592.456 193 585 193"/><circle fill="none" stroke="#000" cx="585" cy="179.5" r="13.5"/><circle fill="#0081CD" cx="18" cy="422.5" r="13.5"/><path fill="#BC1E47" d="M18 436c-7.456 0-13.5-6.044-13.5-13.5S10.544 409 18 409"/><circle fill="none" stroke="#000" cx="18" cy="422.5" r="13.5"/><circle fill="#0081CD" cx="18" cy="382" r="13.5"/><path fill="#BC1E47" d="M18 395.5c-7.456 0-13.5-6.044-13.5-13.5s6.044-13.5 13.5-13.5"/><circle fill="none" stroke="#000" cx="18" cy="382" r="13.5"/><circle fill="#0081CD" cx="18" cy="341.5" r="13.5"/><path fill="#BC1E47" d="M18 355c-7.456 0-13.5-6.044-13.5-13.5S10.544 328 18 328"/><circle fill="none" stroke="#000" cx="18" cy="341.5" r="13.5"/><circle fill="#0081CD" cx="99" cy="463" r="13.5"/><path fill="#BC1E47" d="M112.5 463c0 7.456-6.044 13.5-13.5 13.5s-13.5-6.044-13.5-13.5"/><circle fill="none" stroke="#000" cx="99" cy="463" r="13.5"/><circle fill="#0081CD" cx="139.5" cy="463" r="13.5"/><path fill="#BC1E47" d="M153 463c0 7.456-6.044 13.5-13.5 13.5S126 470.456 126 463"/><circle fill="none" stroke="#000" cx="139.5" cy="463" r="13.5"/><circle fill="#0081CD" cx="180" cy="463" r="13.5"/><path fill="#BC1E47" d="M193.5 463c0 7.456-6.044 13.5-13.5 13.5s-13.5-6.044-13.5-13.5"/><circle fill="none" stroke="#000" cx="180" cy="463" r="13.5"/><circle fill="#0081CD" cx="220.5" cy="463" r="13.5"/><path fill="#BC1E47" d="M234 463c0 7.456-6.044 13.5-13.5 13.5S207 470.456 207 463"/><circle fill="none" stroke="#000" cx="220.5" cy="463" r="13.5"/><circle fill="#0081CD" cx="261" cy="463" r="13.5"/><path fill="#BC1E47" d="M274.5 463c0 7.456-6.044 13.5-13.5 13.5s-13.5-6.044-13.5-13.5"/><circle fill="none" stroke="#000" cx="261" cy="463" r="13.5"/><circle fill="#0081CD" cx="301.5" cy="463" r="13.5"/><path fill="#BC1E47" d="M315 463c0 7.456-6.044 13.5-13.5 13.5S288 470.456 288 463"/><circle fill="none" stroke="#000" cx="301.5" cy="463" r="13.5"/><circle fill="#0081CD" cx="342" cy="463" r="13.5"/><path fill="#BC1E47" d="M355.5 463c0 7.456-6.044 13.5-13.5 13.5s-13.5-6.044-13.5-13.5"/><circle fill="none" stroke="#000" cx="342" cy="463" r="13.5"/><circle fill="#0081CD" cx="382.5" cy="463" r="13.5"/><path fill="#BC1E47" d="M396 463c0 7.456-6.044 13.5-13.5 13.5S369 470.456 369 463"/><circle fill="none" stroke="#000" cx="382.5" cy="463" r="13.5"/><circle fill="#0081CD" cx="423" cy="463" r="13.5"/><path fill="#BC1E47" d="M436.5 463c0 7.456-6.044 13.5-13.5 13.5s-13.5-6.044-13.5-13.5"/><circle fill="none" stroke="#000" cx="423" cy="463" r="13.5"/><circle fill="#0081CD" cx="463.5" cy="463" r="13.5"/><path fill="#BC1E47" d="M477 463c0 7.456-6.044 13.5-13.5 13.5S450 470.456 450 463"/><circle fill="none" stroke="#000" cx="463.5" cy="463" r="13.5"/><circle fill="#0081CD" cx="504" cy="463" r="13.5"/><path fill="#BC1E47" d="M517.5 463c0 7.456-6.044 13.5-13.5 13.5s-13.5-6.044-13.5-13.5"/><circle fill="none" stroke="#000" cx="504" cy="463" r="13.5"/><circle fill="#0081CD" cx="544.5" cy="463" r="13.5"/><path fill="#BC1E47" d="M558 463c0 7.456-6.044 13.5-13.5 13.5S531 470.456 531 463"/><circle fill="none" stroke="#000" cx="544.5" cy="463" r="13.5"/><circle fill="#BC1E47" cx="18" cy="463" r="13.5"/><path fill="#0081CD" d="M18 449.5c7.456 0 13.5 6.044 13.5 13.5H18v-13.5z"/><circle fill="none" stroke="#000" cx="18" cy="463" r="13.5"/><circle fill="#BC1E47" cx="585" cy="463" r="13.5"/><path fill="#0081CD" d="M571.5 463c0-7.456 6.044-13.5 13.5-13.5V463h-13.5z"/><circle fill="none" stroke="#000" cx="585" cy="463" r="13.5"/><circle fill="#BC1E47" cx="585" cy="139" r="13.5"/><path fill="#0081CD" d="M585 152.5c-7.456 0-13.5-6.044-13.5-13.5H585v13.5z"/><circle fill="none" stroke="#000" cx="585" cy="139" r="13.5"/><circle fill="#BC1E47" cx="18" cy="301" r="13.5"/><path fill="#0081CD" d="M31.5 301c0 7.456-6.044 13.5-13.5 13.5V301h13.5z"/><circle fill="none" stroke="#000" cx="18" cy="301" r="13.5"/></svg>