<svg xmlns="http://www.w3.org/2000/svg" width="539" height="508"><g fill="#FEC200" stroke="#000" stroke-linecap="round" stroke-linejoin="round"><path d="M303.878 13.046c-5.146 19.205 6.251 38.945 25.456 44.09-5.146-19.204 6.251-38.945 25.456-44.091l-50.912.001zm76.367 44.09c-5.146 19.205 6.251 38.945 25.456 44.09-5.146-19.204 6.251-38.945 25.455-44.091l-50.911.001zm-76.367 44.092c-5.146 19.205 6.251 38.945 25.456 44.09-5.146-19.204 6.251-38.945 25.456-44.091l-50.912.001zm152.737-88.18c-5.145 19.205 6.252 38.945 25.457 44.09-5.146-19.204 6.25-38.945 25.455-44.091l-50.912.001zm0 88.181c-5.145 19.205 6.252 38.945 25.457 44.09-5.146-19.204 6.25-38.945 25.455-44.091l-50.912.001zm-76.368 44.09c-5.146 19.205 6.251 38.944 25.456 44.091-5.146-19.205 6.251-38.945 25.456-44.091h-50.912zM149.952 154c19.882 0 36-16.118 36-36-19.882 0-36-16.118-36-36v72zm0 72c19.882 0 36-16.117 36-36-19.882 0-36-16.117-36-36v72zm-72-72c19.882 0 36-16.118 36-36-19.882 0-36-16.118-36-36v72zm0 72c19.882 0 36-16.117 36-36-19.882 0-36-16.117-36-36v72zm-72-72c19.882 0 36-16.118 36-36-19.882 0-36-16.118-36-36v72zm0 72c19.882 0 36-16.117 36-36-19.882 0-36-16.117-36-36v72zm144-144c19.882 0 36-16.117 36-36-19.882 0-36-16.117-36-36v72zm-72 0c19.882 0 36-16.117 36-36-19.882 0-36-16.117-36-36v72zm-72 0c19.882 0 36-16.117 36-36-19.882 0-36-16.117-36-36v72zm205.064 284.494c-15.536-.016-30.642-8.072-38.968-22.494-16.653 0-31.184 9.055-38.965 22.5l77.933-.006z"/><path d="M288.949 366.488c-15.536-.016-30.642-8.072-38.968-22.494-16.653 0-31.184 9.055-38.965 22.5l77.933-.006z"/><path d="M366.881 366.482c-15.536-.016-30.642-8.072-38.968-22.494-16.653 0-31.184 9.055-38.965 22.5l77.933-.006zm77.933-.005c-15.537-.016-30.642-8.072-38.968-22.494-16.653 0-31.184 9.055-38.965 22.5l77.933-.006zm-272.759 67.511c-15.536-.016-30.642-8.072-38.968-22.494-16.653 0-31.184 9.055-38.965 22.5l77.933-.006zm77.933-.006c-15.536-.016-30.642-8.072-38.968-22.494-16.653 0-31.184 9.055-38.965 22.5l77.933-.006z"/><path d="M327.92 433.977c-15.536-.016-30.642-8.072-38.968-22.494-16.653 0-31.184 9.055-38.965 22.5l77.933-.006z"/><path d="M405.853 433.971c-15.536-.016-30.642-8.072-38.968-22.494-16.653 0-31.184 9.055-38.965 22.5l77.933-.006zm-272.759 67.511c-15.536-.016-30.642-8.072-38.968-22.494-16.653 0-31.184 9.055-38.965 22.5l77.933-.006zm77.933-.005c-15.536-.016-30.642-8.072-38.968-22.494-16.653 0-31.184 9.055-38.965 22.5l77.933-.006z"/><path d="M288.959 501.471c-15.536-.016-30.642-8.072-38.968-22.494-16.653 0-31.184 9.055-38.965 22.5l77.933-.006z"/><path d="M366.892 501.465c-15.536-.016-30.642-8.072-38.968-22.494-16.653 0-31.184 9.055-38.965 22.5l77.933-.006z"/></g><g fill="#BC1E47" stroke="#000" stroke-linecap="round" stroke-linejoin="round"><path d="M380.246 57.138c-14.06-14.06-36.853-14.06-50.912-.001 19.205 5.146 30.602 24.886 25.456 44.091l25.456-44.09zm76.367 44.09c-14.061-14.06-36.853-14.06-50.912-.001 19.205 5.146 30.602 24.886 25.455 44.091l25.457-44.09zm-76.366 44.091c-14.061-14.06-36.853-14.06-50.913-.001 19.206 5.146 30.602 24.886 25.456 44.091l25.457-44.09zM532.984 57.14c-14.061-14.06-36.854-14.06-50.912-.001 19.205 5.146 30.602 24.886 25.455 44.091l25.457-44.09zm0 88.181c-14.061-14.06-36.854-14.06-50.912-.001 19.205 5.146 30.602 24.886 25.455 44.091l25.457-44.09zm-76.369 44.09c-14.061-14.06-36.853-14.06-50.913-.001 19.206 5.146 30.602 24.885 25.456 44.091l25.457-44.09zM172.044 299.006c7.754 13.463 8.33 30.572.004 44.994 8.326 14.422 23.432 22.479 38.968 22.494l-38.972-67.488zm77.933-.006c7.754 13.463 8.33 30.572.004 44.994 8.326 14.422 23.432 22.479 38.968 22.494L249.977 299zm77.933-.006c7.754 13.463 8.33 30.572.004 44.994 8.326 14.422 23.432 22.479 38.968 22.494l-38.972-67.488zm77.932-.006c7.754 13.463 8.33 30.572.004 44.994 8.326 14.422 23.431 22.479 38.968 22.494l-38.972-67.488zM133.083 366.5c7.754 13.463 8.33 30.572.004 44.994 8.326 14.422 23.432 22.479 38.968 22.494L133.083 366.5zm77.933-.006c7.754 13.463 8.33 30.572.004 44.994 8.326 14.422 23.432 22.479 38.968 22.494l-38.972-67.488zm77.933-.006c7.754 13.463 8.33 30.572.004 44.994 8.326 14.422 23.432 22.479 38.968 22.494l-38.972-67.488zm77.932-.006c7.754 13.463 8.33 30.572.004 44.994 8.326 14.422 23.432 22.479 38.968 22.494l-38.972-67.488zM94.123 433.994c7.754 13.463 8.33 30.572.004 44.994 8.326 14.422 23.432 22.479 38.968 22.494l-38.972-67.488z"/><path d="M172.055 433.988c7.754 13.463 8.33 30.572.004 44.994 8.326 14.422 23.432 22.479 38.968 22.494l-38.972-67.488zm77.933-.006c7.754 13.463 8.33 30.572.004 44.994 8.326 14.422 23.432 22.479 38.968 22.494l-38.972-67.488zm77.932-.005c7.754 13.463 8.33 30.572.004 44.994 8.326 14.422 23.432 22.479 38.968 22.494l-38.972-67.488z"/></g><path d="M303.878 101.228c19.205-5.146 30.602-24.885 25.456-44.091-14.06 14.06-36.853 14.06-50.911.001l25.455 44.09zm76.367 44.09c19.205-5.146 30.602-24.885 25.456-44.091-14.06 14.06-36.853 14.06-50.911.001l25.455 44.09zm-76.367 44.091c19.205-5.146 30.602-24.885 25.456-44.091-14.06 14.06-36.853 14.06-50.911.001l25.455 44.09zm152.737-88.18c19.205-5.146 30.602-24.885 25.457-44.091-14.061 14.06-36.854 14.06-50.912.001l25.455 44.09zm0 88.182c19.205-5.146 30.602-24.885 25.457-44.091-14.061 14.06-36.854 14.06-50.912.001l25.455 44.09zm-76.368 44.09c19.205-5.146 30.602-24.886 25.456-44.091-14.06 14.059-36.853 14.059-50.911 0l25.455 44.091zM221.952 154c0-19.882-16.118-36-36-36 0 19.882-16.118 36-36 36h72zm0 72c0-19.883-16.118-36-36-36 0 19.883-16.118 36-36 36h72zm-72-72c0-19.882-16.118-36-36-36 0 19.882-16.118 36-36 36h72zm0 72c0-19.883-16.118-36-36-36 0 19.883-16.118 36-36 36h72zm-72-72c0-19.882-16.118-36-36-36 0 19.882-16.118 36-36 36h72zm0 72c0-19.883-16.118-36-36-36 0 19.883-16.118 36-36 36h72zm144-144c0-19.883-16.118-36-36-36 0 19.883-16.118 36-36 36h72zm-72 0c0-19.883-16.118-36-36-36 0 19.883-16.118 36-36 36h72zm-72 0c0-19.883-16.118-36-36-36 0 19.883-16.118 36-36 36h72zm55.131 284.5c7.783-13.445 22.312-22.5 38.965-22.5 8.326-14.422 7.75-31.531-.004-44.994L133.083 366.5zm77.933-.006c7.783-13.445 22.312-22.5 38.965-22.5 8.326-14.422 7.75-31.531-.004-44.994l-38.961 67.494zm77.933-.006c7.783-13.445 22.312-22.5 38.965-22.5 8.326-14.422 7.75-31.531-.004-44.994l-38.961 67.494zm77.932-.006c7.783-13.445 22.312-22.5 38.965-22.5 8.326-14.422 7.75-31.531-.004-44.994l-38.961 67.494zM94.123 433.994c7.783-13.445 22.312-22.5 38.965-22.5 8.326-14.422 7.75-31.531-.004-44.994l-38.961 67.494zm77.932-.006c7.783-13.445 22.312-22.5 38.965-22.5 8.326-14.422 7.75-31.531-.004-44.994l-38.961 67.494zm77.933-.006c7.783-13.445 22.312-22.5 38.965-22.5 8.326-14.422 7.75-31.531-.004-44.994l-38.961 67.494zm77.932-.005c7.783-13.445 22.312-22.5 38.965-22.5 8.326-14.422 7.75-31.531-.004-44.994l-38.961 67.494zM55.162 501.488c7.783-13.445 22.312-22.5 38.965-22.5 8.326-14.422 7.75-31.531-.004-44.994l-38.961 67.494zm77.932-.006c7.783-13.445 22.312-22.5 38.965-22.5 8.326-14.422 7.75-31.531-.004-44.994l-38.961 67.494zm77.933-.005c7.783-13.445 22.312-22.5 38.965-22.5 8.326-14.422 7.75-31.531-.004-44.994l-38.961 67.494zm77.932-.006c7.783-13.445 22.312-22.5 38.965-22.5 8.326-14.422 7.75-31.531-.004-44.994l-38.961 67.494z" fill="#0081CD" stroke="#000" stroke-linecap="round" stroke-linejoin="round"/><g fill="#FFEBAA" stroke="#000" stroke-linecap="round" stroke-linejoin="round"><path d="M354.79 101.228c5.146-19.206-6.251-38.945-25.456-44.091 5.146 19.206-6.251 38.945-25.456 44.091h50.912zm76.366 44.09c5.146-19.206-6.25-38.945-25.455-44.091 5.146 19.206-6.251 38.945-25.456 44.091h50.911zm-76.366 44.091c5.146-19.206-6.25-38.945-25.456-44.091 5.146 19.206-6.251 38.946-25.456 44.091h50.912zm152.737-88.18c5.146-19.206-6.25-38.945-25.455-44.091 5.145 19.206-6.252 38.945-25.457 44.091h50.912zm0 88.182c5.146-19.206-6.25-38.945-25.455-44.091 5.145 19.206-6.252 38.946-25.457 44.091h50.912zm-76.369 44.09c5.146-19.206-6.25-38.944-25.456-44.091 5.146 19.205-6.251 38.945-25.456 44.091h50.912zM221.952 82c-19.882 0-36 16.118-36 36 19.882 0 36 16.118 36 36V82zm0 72c-19.882 0-36 16.118-36 36 19.882 0 36 16.117 36 36v-72zm-72-72c-19.882 0-36 16.118-36 36 19.882 0 36 16.118 36 36V82zm0 72c-19.882 0-36 16.118-36 36 19.882 0 36 16.117 36 36v-72zm-72-72c-19.882 0-36 16.118-36 36 19.882 0 36 16.118 36 36V82zm0 72c-19.882 0-36 16.118-36 36 19.882 0 36 16.117 36 36v-72zm144-144c-19.882 0-36 16.118-36 36 19.882 0 36 16.117 36 36V10zm-72 0c-19.882 0-36 16.118-36 36 19.882 0 36 16.117 36 36V10zm-72 0c-19.882 0-36 16.118-36 36 19.882 0 36 16.117 36 36V10zm94.092 289.006c15.536.016 30.642 8.072 38.968 22.494 16.653 0 31.184-9.054 38.965-22.5l-77.933.006z"/><path d="M249.977 299c15.536.016 30.642 8.072 38.968 22.494 16.653 0 31.184-9.054 38.965-22.5l-77.933.006zm77.933-.006c15.536.016 30.642 8.072 38.968 22.494 16.653 0 31.184-9.054 38.965-22.5l-77.933.006z"/><path d="M405.842 298.988c15.536.016 30.642 8.072 38.968 22.494 16.652 0 31.184-9.054 38.965-22.5l-77.933.006zM133.083 366.5c15.536.016 30.642 8.072 38.968 22.494 16.653 0 31.184-9.054 38.965-22.5l-77.933.006z"/><path d="M211.016 366.494c15.536.016 30.642 8.072 38.968 22.494 16.653 0 31.184-9.054 38.965-22.5l-77.933.006zm77.933-.006c15.536.016 30.642 8.072 38.968 22.494 16.653 0 31.184-9.054 38.965-22.5l-77.933.006z"/><path d="M366.881 366.482c15.536.016 30.642 8.072 38.968 22.494 16.653 0 31.184-9.054 38.965-22.5l-77.933.006zM94.123 433.994c15.536.016 30.642 8.072 38.968 22.494 16.653 0 31.184-9.054 38.965-22.5l-77.933.006z"/><path d="M172.055 433.988c15.536.016 30.642 8.072 38.968 22.494 16.653 0 31.184-9.054 38.965-22.5l-77.933.006zm77.933-.006c15.536.016 30.642 8.072 38.968 22.494 16.653 0 31.184-9.054 38.965-22.5l-77.933.006z"/><path d="M327.92 433.977c15.536.016 30.642 8.072 38.968 22.494 16.653 0 31.184-9.054 38.965-22.5l-77.933.006z"/></g><path d="M278.423 57.137c14.059 14.059 36.852 14.059 50.911-.001-19.205-5.146-30.602-24.886-25.456-44.09l-25.455 44.091zm76.367 44.091c14.059 14.059 36.852 14.059 50.911-.001-19.205-5.146-30.602-24.886-25.456-44.09l-25.455 44.091zm-76.367 44.091c14.059 14.059 36.852 14.059 50.911-.001-19.205-5.146-30.602-24.886-25.456-44.09l-25.455 44.091zm152.737-88.18c14.059 14.059 36.852 14.059 50.912-.001-19.205-5.146-30.602-24.886-25.457-44.09L431.16 57.139zm0 88.182c14.059 14.059 36.852 14.059 50.912-.001-19.205-5.146-30.602-24.886-25.457-44.09l-25.455 44.091zm-76.368 44.089c14.059 14.059 36.852 14.059 50.911 0-19.205-5.146-30.602-24.886-25.456-44.091l-25.455 44.091zM211.016 366.494c-7.754-13.463-8.33-30.572-.004-44.994-8.326-14.422-23.432-22.479-38.968-22.494l38.972 67.488zm77.933-.006c-7.754-13.463-8.33-30.572-.004-44.994-8.326-14.422-23.432-22.479-38.968-22.494l38.972 67.488zm77.932-.006c-7.754-13.463-8.33-30.572-.004-44.994-8.326-14.422-23.432-22.479-38.968-22.494l38.972 67.488zm77.933-.005c-7.754-13.463-8.33-30.572-.004-44.994-8.326-14.422-23.432-22.479-38.968-22.494l38.972 67.488zm-272.759 67.511c-7.754-13.463-8.33-30.572-.004-44.994-8.326-14.422-23.432-22.479-38.968-22.494l38.972 67.488zm77.933-.006c-7.754-13.463-8.33-30.572-.004-44.994-8.326-14.422-23.432-22.479-38.968-22.494l38.972 67.488zm77.932-.005c-7.754-13.463-8.33-30.572-.004-44.994-8.326-14.422-23.432-22.479-38.968-22.494l38.972 67.488zm77.933-.006c-7.754-13.463-8.33-30.572-.004-44.994-8.326-14.422-23.432-22.479-38.968-22.494l38.972 67.488zm-272.759 67.511c-7.754-13.463-8.33-30.572-.004-44.994-8.326-14.422-23.432-22.479-38.968-22.494l38.972 67.488zm77.933-.005c-7.754-13.463-8.33-30.572-.004-44.994-8.326-14.422-23.432-22.479-38.968-22.494l38.972 67.488zm77.932-.006c-7.754-13.463-8.33-30.572-.004-44.994-8.326-14.422-23.432-22.479-38.968-22.494l38.972 67.488zm77.933-.006c-7.754-13.463-8.33-30.572-.004-44.994-8.326-14.422-23.432-22.479-38.968-22.494l38.972 67.488z" fill="#E9B4C2" stroke="#000" stroke-linecap="round" stroke-linejoin="round"/><g fill="#AAD5EF" stroke="#000" stroke-linecap="round" stroke-linejoin="round"><path d="M354.791 13.046c-19.205 5.146-30.603 24.886-25.457 44.09 14.06-14.059 36.853-14.059 50.912.001l-25.455-44.091zm76.367 44.091c-19.205 5.146-30.603 24.886-25.457 44.09 14.06-14.059 36.852-14.059 50.912.001l-25.455-44.091zm-76.366 44.091c-19.206 5.146-30.603 24.886-25.458 44.09 14.06-14.059 36.852-14.059 50.913.001l-25.455-44.091zm152.737-88.18c-19.205 5.146-30.604 24.886-25.457 44.09 14.059-14.059 36.852-14.059 50.912.001l-25.455-44.091zm0 88.182c-19.205 5.146-30.604 24.886-25.457 44.09 14.059-14.059 36.852-14.059 50.912.001l-25.455-44.091zm-76.369 44.09c-19.206 5.146-30.603 24.886-25.458 44.09 14.06-14.059 36.852-14.059 50.913.001L431.16 145.32zM149.952 82c0 19.882 16.118 36 36 36 0-19.882 16.118-36 36-36h-72zm0 72c0 19.883 16.118 36 36 36 0-19.882 16.118-36 36-36h-72zm-72-72c0 19.882 16.118 36 36 36 0-19.882 16.118-36 36-36h-72zm0 72c0 19.883 16.118 36 36 36 0-19.882 16.118-36 36-36h-72zm-72-72c0 19.882 16.118 36 36 36 0-19.882 16.118-36 36-36h-72zm0 72c0 19.883 16.118 36 36 36 0-19.882 16.118-36 36-36h-72zm144-144c0 19.883 16.118 36 36 36 0-19.882 16.118-36 36-36h-72zm-72 0c0 19.883 16.118 36 36 36 0-19.882 16.118-36 36-36h-72zm-72 0c0 19.883 16.118 36 36 36 0-19.882 16.118-36 36-36h-72zm244.025 289c-7.783 13.445-22.312 22.5-38.965 22.5-8.326 14.422-7.75 31.531.004 44.994L249.977 299zm77.933-.006c-7.783 13.445-22.312 22.5-38.965 22.5-8.326 14.422-7.75 31.531.004 44.994l38.961-67.494zm77.932-.006c-7.783 13.445-22.312 22.5-38.965 22.5-8.326 14.422-7.75 31.531.004 44.994l38.961-67.494zm77.933-.006c-7.783 13.445-22.312 22.5-38.965 22.5-8.326 14.422-7.75 31.531.004 44.994l38.961-67.494zm-272.759 67.512c-7.783 13.445-22.312 22.5-38.965 22.5-8.326 14.422-7.75 31.531.004 44.994l38.961-67.494z"/><path d="M288.949 366.488c-7.783 13.445-22.312 22.5-38.965 22.5-8.326 14.422-7.75 31.531.004 44.994l38.961-67.494zm77.932-.006c-7.783 13.445-22.312 22.5-38.965 22.5-8.326 14.422-7.75 31.531.004 44.994l38.961-67.494zm77.933-.005c-7.783 13.445-22.312 22.5-38.965 22.5-8.326 14.422-7.75 31.531.004 44.994l38.961-67.494zm-272.759 67.511c-7.783 13.445-22.312 22.5-38.965 22.5-8.326 14.422-7.75 31.531.004 44.994l38.961-67.494zm77.933-.006c-7.783 13.445-22.312 22.5-38.965 22.5-8.326 14.422-7.75 31.531.004 44.994l38.961-67.494zm77.932-.005c-7.783 13.445-22.312 22.5-38.965 22.5-8.326 14.422-7.75 31.531.004 44.994l38.961-67.494zm77.933-.006c-7.783 13.445-22.312 22.5-38.965 22.5-8.326 14.422-7.75 31.531.004 44.994l38.961-67.494z"/></g></svg>