<svg xmlns="http://www.w3.org/2000/svg" width="855" height="990"><g fill="none" stroke="#000"><path d="M459 963v-72m-432 0l27-72 27 72m45-468v72m-54 0l54-72 54 72m576-252v-72M342 567v-72m0 396v-72m36-648V99m162 72l36-72 36 72M126 747v72m-72 0l72-72 54 72m63 72l27-72 27 72m45-144v72m-72 0l72-72 54 72m63 72l27-72 27 72m261 0v-72m-99 144v-72M558 747v72m-72 0l72-72 54 72m63 72l27-72 27 72m45-144v72m-72 0l72-72 54 72M342 423v72m-54 0l54-72 54 72m108 72v-72m54-72v72m-54 0l54-72 54 72m162 72v-72m-54 72v-72m54-72v72m-54 0l54-72 54 72m-72-324l36-72 36 72" stroke-width="3"/><path d="M153 9h18v45h-18zm207 0h36v45h-36zm180 0h36v45h-36zm36 0h36v45h-36zM72 333h36v45H72zm36 0h36v45h-36zm36 0h36v45h-36zm144 0h36v45h-36zm36 0h36v45h-36zm36 0h36v45h-36zm144 0h36v45h-36zm36 0h36v45h-36zm36 0h36v45h-36zm144 0h36v45h-36zm36 0h36v45h-36zm36 0h36v45h-36zM72 657h36v45H72zm36 0h36v45h-36zm36 0h36v45h-36zm144 0h36v45h-36zm36 0h36v45h-36zm36 0h36v45h-36zm144 0h36v45h-36zm36 0h36v45h-36zm36 0h36v45h-36zm144 0h36v45h-36zm36 0h36v45h-36zm36 0h36v45h-36zM756 9h36v45h-36zm36 0h36v45h-36z"/><g fill="#FEC200"><circle cx="459" cy="963" r="18"/><circle cx="27" cy="891" r="18"/><circle cx="81" cy="891" r="18"/><circle cx="756" cy="243" r="18"/><circle cx="342" cy="567" r="18"/><circle cx="342" cy="891" r="18"/><circle cx="162" cy="99" r="18"/><circle cx="378" cy="99" r="18"/><circle cx="378" cy="171" r="18"/><circle cx="576" cy="99" r="18"/><circle cx="126" cy="423" r="18"/><circle cx="126" cy="495" r="18"/><circle cx="180" cy="495" r="18"/><circle cx="72" cy="495" r="18"/><circle cx="126" cy="747" r="18"/><circle cx="126" cy="819" r="18"/><circle cx="180" cy="819" r="18"/><circle cx="54" cy="819" r="18"/><circle cx="243" cy="891" r="18"/><circle cx="297" cy="891" r="18"/><circle cx="342" cy="747" r="18"/><circle cx="342" cy="819" r="18"/><circle cx="396" cy="819" r="18"/><circle cx="270" cy="819" r="18"/><circle cx="459" cy="891" r="18"/><circle cx="513" cy="891" r="18"/><circle cx="774" cy="891" r="18"/><circle cx="675" cy="963" r="18"/><circle cx="558" cy="747" r="18"/><circle cx="558" cy="819" r="18"/><circle cx="612" cy="819" r="18"/><circle cx="486" cy="819" r="18"/><circle cx="675" cy="891" r="18"/><circle cx="729" cy="891" r="18"/><circle cx="774" cy="747" r="18"/><circle cx="774" cy="819" r="18"/><circle cx="828" cy="819" r="18"/><circle cx="702" cy="819" r="18"/><circle cx="342" cy="423" r="18"/><circle cx="342" cy="495" r="18"/><circle cx="396" cy="495" r="18"/><circle cx="288" cy="495" r="18"/><circle cx="504" cy="567" r="18"/><circle cx="558" cy="423" r="18"/><circle cx="558" cy="495" r="18"/><circle cx="612" cy="495" r="18"/><circle cx="504" cy="495" r="18"/><circle cx="774" cy="567" r="18"/><circle cx="720" cy="567" r="18"/><circle cx="774" cy="423" r="18"/><circle cx="774" cy="495" r="18"/><circle cx="828" cy="495" r="18"/><circle cx="720" cy="495" r="18"/><circle cx="540" cy="171" r="18"/><circle cx="612" cy="171" r="18"/><circle cx="792" cy="99" r="18"/><circle cx="756" cy="171" r="18"/><circle cx="828" cy="171" r="18"/></g></g><g font-family="Times,serif" font-size="36"><text transform="translate(117 45)">0:</text><text transform="translate(324 45)">1:</text><text transform="translate(369 45)">0</text><text transform="translate(549 45)">0</text><text transform="translate(585 45)">0</text><text transform="translate(504 45)">2:</text><text transform="translate(81 369)">0</text><text transform="translate(117 369)">0</text><text transform="translate(153 369)">0</text><text transform="translate(36 369)">4:</text><text transform="translate(297 369)">0</text><text transform="translate(333 369)">1</text><text transform="translate(369 369)">0</text><text transform="translate(252 369)">5:</text><text transform="translate(513 369)">1</text><text transform="translate(549 369)">0</text><text transform="translate(585 369)">0</text><text transform="translate(468 369)">6:</text><text transform="translate(729 369)">1</text><text transform="translate(765 369)">1</text><text transform="translate(801 369)">0</text><text transform="translate(684 369)">7:</text><text transform="translate(81 693)">2</text><text transform="translate(117 693)">0</text><text transform="translate(153 693)">0</text><text transform="translate(36 693)">8:</text><text transform="translate(297 693)">2</text><text transform="translate(333 693)">1</text><text transform="translate(369 693)">0</text><text transform="translate(252 693)">9:</text><text transform="translate(513 693)">3</text><text transform="translate(549 693)">0</text><text transform="translate(585 693)">0</text><text transform="translate(450 693)">10:</text><text transform="translate(729 693)">3</text><text transform="translate(765 693)">1</text><text transform="translate(801 693)">0</text><text transform="translate(666 693)">11:</text><text transform="translate(765 45)">1</text><text transform="translate(801 45)">0</text><text transform="translate(720 45)">3:</text></g></svg>