<svg xmlns="http://www.w3.org/2000/svg" width="558" height="459" viewBox="18.5 0 558 459"><path d="M117.006 413.979a44.804 44.804 0 0 0-26.998-8.995 44.801 44.801 0 0 0-27 8.997v.003c0-14.724-7.07-27.796-18.002-36.005v-.003a44.81 44.81 0 0 1 27-8.997 44.807 44.807 0 0 1 26.998 8.996c10.932 8.21 18.002 21.282 18.002 36.004zm72-72a44.811 44.811 0 0 0-26.998-8.995 44.804 44.804 0 0 0-27.001 8.997l.001.003c0-14.724-7.07-27.794-18.002-36.005l-.001-.002a44.805 44.805 0 0 1 27.001-8.998 44.805 44.805 0 0 1 26.998 8.996c10.932 8.211 18.002 21.282 18.002 36.004zm36 72a44.804 44.804 0 0 0-26.998-8.995 44.801 44.801 0 0 0-27 8.997v.003c0-14.724-7.07-27.796-18.002-36.005v-.003a44.808 44.808 0 0 1 27-8.997 44.803 44.803 0 0 1 26.998 8.996c10.932 8.21 18.002 21.282 18.002 36.004zm72-71.996a44.805 44.805 0 0 0-26.998-8.996 44.804 44.804 0 0 0-27.001 8.997l.001.003c0-14.724-7.07-27.794-18.002-36.005l-.001-.002a44.805 44.805 0 0 1 27.001-8.998 44.805 44.805 0 0 1 26.998 8.996c10.932 8.211 18.002 21.283 18.002 36.005zm36 72c-7.52-5.648-16.867-8.996-26.998-8.996s-19.479 3.348-27 8.997v.003c0-14.724-7.07-27.795-18.002-36.004v-.003c7.521-5.649 16.869-8.997 27-8.997s19.479 3.348 26.998 8.995c10.932 8.21 18.002 21.283 18.002 36.005zm72-72a44.805 44.805 0 0 0-26.998-8.996 44.81 44.81 0 0 0-27.002 8.997l.002.003c0-14.724-7.07-27.794-18.002-36.005l-.002-.002a44.808 44.808 0 0 1 27.002-8.998 44.805 44.805 0 0 1 26.998 8.996c10.932 8.211 18.002 21.283 18.002 36.005zm36 72c-7.52-5.648-16.867-8.996-26.998-8.996s-19.48 3.348-27 8.997v.003c0-14.724-7.07-27.795-18.002-36.004v-.003c7.52-5.649 16.869-8.997 27-8.997s19.479 3.348 26.998 8.995c10.932 8.21 18.002 21.283 18.002 36.005zM117.002 197.967a44.805 44.805 0 0 0-26.998-8.996 44.804 44.804 0 0 0-27.001 8.997l.001.003c0-14.723-7.07-27.795-18.002-36.004l-.001-.003a44.804 44.804 0 0 1 27.001-8.997A44.805 44.805 0 0 1 99 161.963c10.932 8.209 18.002 21.281 18.002 36.004zm36 72c-7.52-5.648-16.867-8.996-26.998-8.996s-19.479 3.348-27 8.997v.003c0-14.723-7.07-27.795-18.002-36.004v-.003c7.521-5.649 16.869-8.997 27-8.997s19.479 3.348 26.998 8.996c10.932 8.209 18.002 21.281 18.002 36.004zm72-71.996a44.805 44.805 0 0 0-26.998-8.996 44.804 44.804 0 0 0-27.001 8.997l.001.003c0-14.723-7.07-27.795-18.002-36.004l-.001-.003a44.804 44.804 0 0 1 27.001-8.997A44.805 44.805 0 0 1 207 161.967c10.932 8.209 18.002 21.281 18.002 36.004zm36 72c-7.52-5.647-16.867-8.996-26.998-8.996s-19.479 3.349-27 8.998v.002c0-14.723-7.07-27.795-18.002-36.004v-.003c7.521-5.649 16.869-8.997 27-8.997s19.479 3.348 26.998 8.996c10.932 8.209 18.002 21.281 18.002 36.004zm72-72a44.805 44.805 0 0 0-26.998-8.996 44.81 44.81 0 0 0-27.002 8.997l.002.003c0-14.723-7.07-27.795-18.002-36.004l-.002-.003a44.807 44.807 0 0 1 27.002-8.997A44.805 44.805 0 0 1 315 161.967c10.932 8.209 18.002 21.281 18.002 36.004zm36 72c-7.52-5.647-16.867-8.996-26.998-8.996s-19.48 3.349-27 8.998v.002c0-14.723-7.07-27.795-18.002-36.004v-.003c7.52-5.649 16.869-8.997 27-8.997s19.479 3.348 26.998 8.996c10.932 8.209 18.002 21.281 18.002 36.004zm144.006 72.021a44.803 44.803 0 0 0-26.998-8.996 44.801 44.801 0 0 0-27 8.997v.003c0-14.723-7.069-27.795-18.002-36.004v-.003a44.801 44.801 0 0 1 27-8.997 44.799 44.799 0 0 1 26.998 8.996c10.932 8.209 18.002 21.282 18.002 36.004zm-72.004-144.013a44.803 44.803 0 0 0-26.998-8.996 44.801 44.801 0 0 0-27 8.997v.003c0-14.723-7.07-27.794-18.002-36.004v-.003a44.801 44.801 0 0 1 27-8.997 44.792 44.792 0 0 1 26.998 8.996c10.932 8.211 18.002 21.282 18.002 36.004zm36 72c-7.52-5.647-16.867-8.996-26.998-8.996s-19.479 3.349-27 8.998v.002c0-14.723-7.07-27.795-18.002-36.004v-.002c7.521-5.649 16.869-8.998 27-8.998s19.479 3.348 26.998 8.996c10.932 8.211 18.002 21.282 18.002 36.004zM153 53.97a44.812 44.812 0 0 0-26.998-8.996 44.804 44.804 0 0 0-27.001 8.997l.001.003c0-14.723-7.07-27.794-18.002-36.004l-.001-.003A44.798 44.798 0 0 1 108 8.97a44.799 44.799 0 0 1 26.998 8.996C145.93 26.175 153 39.247 153 53.97zm36 72c-7.52-5.648-16.867-8.996-26.998-8.996s-19.479 3.348-27 8.997v.003c0-14.723-7.07-27.795-18.002-36.004v-.003c7.521-5.649 16.869-8.997 27-8.997s19.479 3.348 26.998 8.996C181.93 98.175 189 111.247 189 125.97zm72-72a44.812 44.812 0 0 0-26.998-8.996A44.81 44.81 0 0 0 207 53.971l.002.003c0-14.723-7.07-27.794-18.002-36.004l-.002-.003A44.803 44.803 0 0 1 216 8.97a44.799 44.799 0 0 1 26.998 8.996C253.93 26.175 261 39.247 261 53.97zm36 72c-7.52-5.648-16.867-8.996-26.998-8.996s-19.48 3.348-27 8.997v.003c0-14.723-7.07-27.795-18.002-36.004v-.003c7.52-5.649 16.869-8.997 27-8.997s19.479 3.348 26.998 8.996C289.93 98.175 297 111.247 297 125.97zm72.002-71.991a44.803 44.803 0 0 0-26.998-8.996 44.801 44.801 0 0 0-27 8.997v.003c0-14.723-7.07-27.794-18.002-36.004v-.003a44.801 44.801 0 0 1 27-8.997A44.792 44.792 0 0 1 351 17.975c10.932 8.209 18.002 21.281 18.002 36.004zm36 72c-7.52-5.648-16.867-8.996-26.998-8.996s-19.479 3.348-27 8.997v.003c0-14.723-7.07-27.795-18.002-36.004v-.003c7.521-5.649 16.869-8.997 27-8.997S379.48 84.326 387 89.975c10.932 8.209 18.002 21.281 18.002 36.004zm72-72a44.805 44.805 0 0 0-26.998-8.996 44.806 44.806 0 0 0-27.001 8.997l.001.003c0-14.723-7.07-27.794-18.002-36.004l-.001-.003a44.804 44.804 0 0 1 27.001-8.997A44.799 44.799 0 0 1 459 17.975c10.932 8.209 18.002 21.281 18.002 36.004zm36 72c-7.52-5.648-16.867-8.996-26.998-8.996s-19.479 3.348-27 8.997v.003c0-14.723-7.07-27.795-18.002-36.004v-.003c7.521-5.649 16.869-8.997 27-8.997S487.48 84.326 495 89.975c10.932 8.209 18.002 21.281 18.002 36.004zm36.002 288c-7.52-5.648-16.867-8.996-26.998-8.996s-19.479 3.348-27 8.998v.002c0-14.723-7.07-27.795-18.002-36.004v-.002c7.521-5.65 16.869-8.998 27-8.998s19.479 3.348 26.998 8.996c10.932 8.209 18.002 21.281 18.002 36.004zM549 197.967a44.805 44.805 0 0 0-26.998-8.996A44.81 44.81 0 0 0 495 197.968l.002.003c0-14.723-7.07-27.795-18.002-36.004l-.002-.003A44.807 44.807 0 0 1 504 152.967a44.805 44.805 0 0 1 26.998 8.996C541.93 170.172 549 183.245 549 197.967z" fill="#FFEBAA" stroke="#000"/><path d="M99.006 377.976a44.809 44.809 0 0 0-26.998-8.995 44.807 44.807 0 0 0-27 8.996v.004c0-14.724-7.07-27.796-18.002-36.005v-.003a44.81 44.81 0 0 1 27-8.997 44.807 44.807 0 0 1 26.998 8.996c10.932 8.209 18.002 21.281 18.002 36.004zm36 72.003a44.804 44.804 0 0 0-26.998-8.995 44.801 44.801 0 0 0-27 8.997v.003c0-14.724-7.07-27.796-18.001-36.005v-.003a44.808 44.808 0 0 1 27-8.997 44.803 44.803 0 0 1 26.998 8.996c10.931 8.21 18.001 21.282 18.001 36.004zm72-72.003a44.811 44.811 0 0 0-26.998-8.995 44.81 44.81 0 0 0-27.001 8.996l.001.004c0-14.724-7.07-27.796-18.002-36.005l-.001-.003a44.81 44.81 0 0 1 27.001-8.997 44.812 44.812 0 0 1 26.998 8.996c10.932 8.209 18.002 21.281 18.002 36.004zm36 72.003a44.804 44.804 0 0 0-26.998-8.995 44.801 44.801 0 0 0-27 8.997v.003c0-14.724-7.07-27.796-18.002-36.005v-.003a44.808 44.808 0 0 1 27-8.997 44.803 44.803 0 0 1 26.998 8.996c10.932 8.21 18.002 21.282 18.002 36.004zm72-72a44.811 44.811 0 0 0-26.998-8.995 44.804 44.804 0 0 0-27.001 8.997l.001.003c0-14.724-7.07-27.796-18.002-36.005l-.001-.003a44.81 44.81 0 0 1 27.001-8.997 44.812 44.812 0 0 1 26.998 8.996c10.932 8.21 18.002 21.282 18.002 36.004zm36 72.004c-7.52-5.648-16.867-8.996-26.998-8.996s-19.479 3.348-27 8.997v.003c0-14.724-7.07-27.795-18.002-36.004v-.003c7.521-5.649 16.869-8.997 27-8.997s19.479 3.348 26.998 8.995c10.932 8.21 18.002 21.283 18.002 36.005zm72-72.004a44.811 44.811 0 0 0-26.998-8.995 44.81 44.81 0 0 0-27.002 8.997l.002.003c0-14.724-7.07-27.796-18.002-36.005l-.002-.003a44.814 44.814 0 0 1 27.002-8.997 44.81 44.81 0 0 1 26.998 8.996c10.932 8.21 18.002 21.282 18.002 36.004zm36 72.004c-7.52-5.648-16.867-8.996-26.998-8.996s-19.479 3.348-27 8.997v.003c0-14.724-7.069-27.795-18.002-36.004v-.003c7.52-5.649 16.869-8.997 27-8.997s19.479 3.348 26.998 8.995c10.932 8.21 18.002 21.283 18.002 36.005zm-324.004-216.02a44.805 44.805 0 0 0-26.998-8.996 44.804 44.804 0 0 0-27.001 8.997l.001.003c0-14.723-7.07-27.795-18.002-36.004l-.001-.003a44.804 44.804 0 0 1 27.001-8.997A44.805 44.805 0 0 1 117 197.959c10.932 8.209 18.002 21.281 18.002 36.004zm36 72.004c-7.52-5.648-16.867-8.996-26.998-8.996s-19.479 3.348-27 8.997v.003c0-14.723-7.07-27.795-18.002-36.004v-.003c7.521-5.649 16.869-8.997 27-8.997s19.479 3.348 26.998 8.996c10.932 8.209 18.002 21.281 18.002 36.004zm72-72a44.805 44.805 0 0 0-26.998-8.996 44.804 44.804 0 0 0-27.001 8.997l.001.003c0-14.723-7.07-27.795-18.002-36.004l-.001-.003a44.804 44.804 0 0 1 27.001-8.997A44.805 44.805 0 0 1 225 197.963c10.932 8.209 18.002 21.281 18.002 36.004zm36 72.004c-7.52-5.647-16.867-8.996-26.998-8.996s-19.479 3.349-27 8.998v.002c0-14.723-7.07-27.795-18.002-36.004v-.003c7.521-5.649 16.869-8.997 27-8.997s19.479 3.348 26.998 8.996c10.932 8.209 18.002 21.281 18.002 36.004zm72-72.004a44.805 44.805 0 0 0-26.998-8.996 44.81 44.81 0 0 0-27.002 8.997l.002.003c0-14.723-7.07-27.795-18.002-36.004l-.002-.003a44.807 44.807 0 0 1 27.002-8.997A44.805 44.805 0 0 1 333 197.963c10.932 8.209 18.002 21.281 18.002 36.004zm36 72.004c-7.52-5.647-16.867-8.996-26.998-8.996s-19.479 3.349-27 8.998v.002c0-14.723-7.07-27.795-18.002-36.004v-.003c7.52-5.649 16.869-8.997 27-8.997s19.479 3.348 26.998 8.996c10.932 8.209 18.002 21.281 18.002 36.004zm72.002-71.994a44.804 44.804 0 0 0-26.998-8.997 44.801 44.801 0 0 0-27 8.997v.004c0-14.724-7.07-27.795-18.002-36.004v-.003a44.801 44.801 0 0 1 27-8.997 44.799 44.799 0 0 1 26.998 8.996c10.932 8.208 18.002 21.28 18.002 36.004zm36 72.002c-7.52-5.647-16.867-8.996-26.998-8.996s-19.479 3.349-27 8.998v.002c0-14.723-7.07-27.795-18.002-36.004v-.002c7.521-5.649 16.869-8.998 27-8.998s19.479 3.349 26.998 8.996c10.932 8.211 18.002 21.282 18.002 36.004zM99 161.966c-7.52-5.648-16.867-8.996-26.998-8.996s-19.479 3.348-27 8.997v.003c0-14.723-7.07-27.795-18.002-36.004v-.003c7.521-5.649 16.869-8.997 27-8.997s19.479 3.348 26.998 8.996C91.93 134.171 99 147.243 99 161.966zm72-72a44.805 44.805 0 0 0-26.998-8.996 44.804 44.804 0 0 0-27.001 8.997l.001.003c0-14.723-7.07-27.795-18.002-36.004l-.001-.003A44.804 44.804 0 0 1 126 44.966a44.805 44.805 0 0 1 26.998 8.996C163.93 62.171 171 75.243 171 89.966zm36 72.004c-7.52-5.648-16.867-8.996-26.998-8.996s-19.479 3.348-27 8.997v.003c0-14.723-7.07-27.795-18.002-36.004v-.003c7.521-5.649 16.869-8.997 27-8.997s19.479 3.348 26.998 8.996C199.93 134.175 207 147.247 207 161.97zm72-72.004a44.805 44.805 0 0 0-26.998-8.996A44.81 44.81 0 0 0 225 89.967l.002.003c0-14.723-7.07-27.795-18.002-36.004l-.002-.003A44.807 44.807 0 0 1 234 44.966a44.805 44.805 0 0 1 26.998 8.996C271.93 62.171 279 75.243 279 89.966zm36 72.004c-7.52-5.648-16.867-8.996-26.998-8.996s-19.479 3.348-27 8.997v.003c0-14.723-7.07-27.795-18.002-36.004v-.003c7.52-5.649 16.869-8.997 27-8.997s19.479 3.348 26.998 8.996C307.93 134.175 315 147.247 315 161.97zm72.002-71.995a44.803 44.803 0 0 0-26.998-8.996 44.801 44.801 0 0 0-27 8.997v.003c0-14.723-7.07-27.795-18.002-36.004v-.003a44.801 44.801 0 0 1 27-8.997A44.799 44.799 0 0 1 369 53.971c10.932 8.209 18.002 21.281 18.002 36.004zm36 72.004c-7.52-5.648-16.867-8.996-26.998-8.996s-19.479 3.348-27 8.997v.003c0-14.723-7.07-27.795-18.002-36.004v-.003c7.521-5.649 16.869-8.997 27-8.997s19.479 3.348 26.998 8.996c10.932 8.209 18.002 21.281 18.002 36.004zm72-72.004a44.805 44.805 0 0 0-26.998-8.996 44.806 44.806 0 0 0-27.001 8.997l.001.003c0-14.723-7.07-27.795-18.002-36.004l-.001-.003a44.804 44.804 0 0 1 27.001-8.997A44.805 44.805 0 0 1 477 53.971c10.932 8.209 18.002 21.281 18.002 36.004zm36.002 288a44.805 44.805 0 0 0-26.998-8.996 44.798 44.798 0 0 0-27.001 8.998l.001.002c0-14.723-7.07-27.795-18.002-36.004l-.001-.004a44.81 44.81 0 0 1 27.001-8.996 44.805 44.805 0 0 1 26.998 8.996c10.932 8.209 18.002 21.281 18.002 36.004zm36 72.004c-7.52-5.648-16.867-8.996-26.998-8.996s-19.479 3.348-27 8.998v.002c0-14.723-7.07-27.795-18.002-36.004v-.002c7.521-5.65 16.869-8.998 27-8.998s19.479 3.348 26.998 8.996c10.932 8.209 18.002 21.281 18.002 36.004zM567 233.963a44.805 44.805 0 0 0-26.998-8.996A44.815 44.815 0 0 0 513 233.963l.002.004c0-14.722-7.07-27.794-18.002-36.003l-.002-.004A44.813 44.813 0 0 1 522 188.964a44.805 44.805 0 0 1 26.998 8.996C559.93 206.168 567 219.241 567 233.963zm-36.002-71.997c-7.52-5.648-16.867-8.996-26.998-8.996s-19.479 3.348-27 8.997v.003c0-14.723-7.07-27.795-18.002-36.004v-.003c7.52-5.649 16.869-8.997 27-8.997s19.479 3.348 26.998 8.996c10.932 8.209 18.002 21.281 18.002 36.004z" fill="#FEC200" stroke="#000"/><path d="M153.006 377.979a44.811 44.811 0 0 0-26.998-8.995 44.804 44.804 0 0 0-27.001 8.997l.001.003c0-14.724-7.07-27.796-18.002-36.005l-.001-.003a44.81 44.81 0 0 1 27.001-8.997 44.812 44.812 0 0 1 26.998 8.996c10.932 8.21 18.002 21.282 18.002 36.004zm36 72.004a44.801 44.801 0 0 0-26.998-8.996 44.801 44.801 0 0 0-27 8.997v.003c0-14.724-7.07-27.795-18.002-36.004v-.003a44.801 44.801 0 0 1 27-8.997 44.807 44.807 0 0 1 26.998 8.995c10.932 8.21 18.002 21.283 18.002 36.005zm72-72a44.805 44.805 0 0 0-26.998-8.996 44.804 44.804 0 0 0-27.001 8.997l.001.003c0-14.724-7.07-27.795-18.002-36.004l-.001-.003a44.804 44.804 0 0 1 27.001-8.997 44.811 44.811 0 0 1 26.998 8.995c10.932 8.21 18.002 21.283 18.002 36.005zm36 72.004c-7.52-5.648-16.867-8.996-26.998-8.996s-19.479 3.348-27 8.997v.003c0-14.724-7.07-27.795-18.002-36.004v-.003c7.521-5.649 16.869-8.997 27-8.997s19.479 3.348 26.998 8.996c10.932 8.209 18.002 21.282 18.002 36.004zm72-72.004a44.805 44.805 0 0 0-26.998-8.996 44.81 44.81 0 0 0-27.002 8.997l.002.003c0-14.724-7.07-27.795-18.002-36.004l-.002-.003a44.807 44.807 0 0 1 27.002-8.997 44.811 44.811 0 0 1 26.998 8.995c10.932 8.21 18.002 21.283 18.002 36.005zm36 72.004a44.803 44.803 0 0 0-26.998-8.996 44.799 44.799 0 0 0-27 8.997v.003c0-14.724-7.07-27.795-18.002-36.004v-.003a44.799 44.799 0 0 1 27-8.997 44.805 44.805 0 0 1 26.998 8.996c10.932 8.209 18.002 21.282 18.002 36.004zM117.002 305.971a44.807 44.807 0 0 0-26.998-8.996 44.802 44.802 0 0 0-27 8.998v.002c0-14.723-7.07-27.795-18.002-36.004v-.003a44.801 44.801 0 0 1 27-8.997A44.801 44.801 0 0 1 99 269.967c10.932 8.209 18.002 21.281 18.002 36.004zm72-72a44.812 44.812 0 0 0-26.998-8.996 44.798 44.798 0 0 0-27.001 8.998l.001.002c0-14.723-7.07-27.794-18.002-36.003l-.001-.003a44.804 44.804 0 0 1 27.001-8.997A44.805 44.805 0 0 1 171 197.968c10.932 8.208 18.002 21.28 18.002 36.003zm36 72.004a44.807 44.807 0 0 0-26.998-8.996 44.802 44.802 0 0 0-27 8.998v.002c0-14.723-7.07-27.795-18.002-36.004v-.002a44.802 44.802 0 0 1 27-8.998A44.807 44.807 0 0 1 207 269.971c10.932 8.209 18.002 21.281 18.002 36.004zm72-72.004a44.812 44.812 0 0 0-26.998-8.996 44.804 44.804 0 0 0-27.002 8.998l.002.002c0-14.723-7.07-27.794-18.002-36.003l-.002-.004a44.807 44.807 0 0 1 27.002-8.997A44.805 44.805 0 0 1 279 197.967c10.932 8.209 18.002 21.281 18.002 36.004zm36 72.004a44.81 44.81 0 0 0-26.998-8.996 44.8 44.8 0 0 0-27 8.998v.002c0-14.723-7.07-27.795-18.002-36.004v-.002a44.8 44.8 0 0 1 27-8.998A44.812 44.812 0 0 1 315 269.971c10.932 8.209 18.002 21.281 18.002 36.004zm144.006 72.017a44.803 44.803 0 0 0-26.998-8.996 44.801 44.801 0 0 0-27 8.997v.003c0-14.723-7.069-27.795-18.002-36.004v-.003a44.801 44.801 0 0 1 27-8.997 44.799 44.799 0 0 1 26.998 8.996c10.932 8.209 18.002 21.282 18.002 36.004zm36 72.004c-7.52-5.648-16.867-8.996-26.998-8.996s-19.479 3.348-27 8.997V450c0-14.723-7.069-27.795-18.002-36.004v-.003c7.521-5.649 16.869-8.997 27-8.997s19.479 3.348 26.998 8.996c10.932 8.209 18.002 21.281 18.002 36.004zM405.004 233.979a44.81 44.81 0 0 0-26.998-8.996 44.796 44.796 0 0 0-27 8.998v.002c0-14.723-7.07-27.794-18.002-36.003v-.003a44.801 44.801 0 0 1 27-8.997 44.799 44.799 0 0 1 26.998 8.996c10.932 8.209 18.002 21.281 18.002 36.003zm36 72.003c-7.52-5.647-16.867-8.996-26.998-8.996s-19.479 3.349-27 8.998v.002c0-14.723-7.07-27.795-18.002-36.004v-.002c7.521-5.649 16.869-8.998 27-8.998s19.479 3.349 26.998 8.996c10.932 8.21 18.002 21.283 18.002 36.004zm72-72.003a44.812 44.812 0 0 0-26.998-8.996 44.8 44.8 0 0 0-27.001 8.998l.001.002c0-14.723-7.07-27.794-18.002-36.003l-.001-.003a44.804 44.804 0 0 1 27.001-8.997 44.803 44.803 0 0 1 26.998 8.996c10.932 8.209 18.002 21.281 18.002 36.003zM117 89.97a44.805 44.805 0 0 0-26.998-8.996 44.804 44.804 0 0 0-27.001 8.997l.001.003c0-14.723-7.07-27.795-18.002-36.004l-.001-.003A44.798 44.798 0 0 1 72 44.97a44.805 44.805 0 0 1 26.998 8.996C109.93 62.175 117 75.247 117 89.97zm36 72.004a44.801 44.801 0 0 0-26.998-8.996 44.801 44.801 0 0 0-27 8.997v.003c0-14.723-7.07-27.795-18.002-36.004v-.003a44.801 44.801 0 0 1 27-8.997 44.801 44.801 0 0 1 26.998 8.996C145.93 134.179 153 147.251 153 161.974zm72-72.004a44.805 44.805 0 0 0-26.998-8.996A44.81 44.81 0 0 0 171 89.971l.002.003c0-14.723-7.07-27.795-18.002-36.004l-.002-.003A44.807 44.807 0 0 1 180 44.97a44.805 44.805 0 0 1 26.998 8.996C217.93 62.175 225 75.247 225 89.97zm36 72.004a44.803 44.803 0 0 0-26.998-8.996 44.799 44.799 0 0 0-27 8.997v.003c0-14.723-7.07-27.795-18.002-36.004v-.003a44.799 44.799 0 0 1 27-8.997 44.805 44.805 0 0 1 26.998 8.996C253.93 134.179 261 147.251 261 161.974zm72.002-71.995a44.803 44.803 0 0 0-26.998-8.996 44.801 44.801 0 0 0-27 8.997v.003c0-14.723-7.07-27.795-18.002-36.004v-.003a44.801 44.801 0 0 1 27-8.997A44.799 44.799 0 0 1 315 53.975c10.932 8.209 18.002 21.281 18.002 36.004zm36 72.003c-7.52-5.648-16.867-8.996-26.998-8.996s-19.479 3.348-27 8.997v.003c0-14.723-7.07-27.795-18.002-36.004v-.003c7.521-5.649 16.869-8.997 27-8.997s19.479 3.348 26.998 8.996c10.932 8.21 18.002 21.282 18.002 36.004zm72-72.003a44.805 44.805 0 0 0-26.998-8.996 44.804 44.804 0 0 0-27.001 8.997l.001.003c0-14.723-7.07-27.795-18.002-36.004l-.001-.003a44.804 44.804 0 0 1 27.001-8.997A44.805 44.805 0 0 1 423 53.975c10.932 8.209 18.002 21.281 18.002 36.004zm36 72.003a44.801 44.801 0 0 0-26.998-8.996 44.801 44.801 0 0 0-27 8.997v.003c0-14.723-7.07-27.795-18.002-36.004v-.003a44.801 44.801 0 0 1 27-8.997A44.799 44.799 0 0 1 459 125.978c10.932 8.21 18.002 21.282 18.002 36.004zM549 305.971a44.803 44.803 0 0 0-26.998-8.996 44.793 44.793 0 0 0-27 8.998v.002c0-14.723-7.07-27.795-18.002-36.004v-.002a44.793 44.793 0 0 1 27-8.998 44.805 44.805 0 0 1 26.998 8.996C541.93 278.176 549 291.248 549 305.971zm0-215.996a44.803 44.803 0 0 0-26.998-8.996 44.801 44.801 0 0 0-27 8.997v.003c0-14.723-7.07-27.795-18.002-36.004v-.003a44.801 44.801 0 0 1 27-8.997 44.799 44.799 0 0 1 26.998 8.996C541.93 62.18 549 75.252 549 89.975z" fill="#0081CD" stroke="#000"/><path d="M135.006 341.983a44.805 44.805 0 0 0-26.998-8.996 44.804 44.804 0 0 0-27.001 8.997l.001.003c0-14.724-7.07-27.794-18.002-36.005v-.002a44.805 44.805 0 0 1 27.001-8.998 44.805 44.805 0 0 1 26.998 8.996c10.931 8.211 18.001 21.283 18.001 36.005zm36 72a44.803 44.803 0 0 0-26.998-8.996 44.801 44.801 0 0 0-27 8.997v.003c0-14.724-7.07-27.795-18.002-36.004v-.003a44.801 44.801 0 0 1 27-8.997 44.807 44.807 0 0 1 26.998 8.995c10.932 8.21 18.002 21.283 18.002 36.005zm72-71.996a44.805 44.805 0 0 0-26.998-8.996 44.804 44.804 0 0 0-27.001 8.997l.001.003c0-14.724-7.07-27.794-18.002-36.005l-.001-.002a44.805 44.805 0 0 1 27.001-8.998 44.805 44.805 0 0 1 26.998 8.996c10.932 8.211 18.002 21.283 18.002 36.005zm36 72c-7.521-5.648-16.867-8.996-26.998-8.996s-19.479 3.348-27 8.997v.003c0-14.724-7.07-27.795-18.002-36.004v-.003a44.801 44.801 0 0 1 27-8.997 44.801 44.801 0 0 1 26.998 8.996c10.932 8.209 18.002 21.282 18.002 36.004zm72-72a44.805 44.805 0 0 0-26.998-8.996 44.81 44.81 0 0 0-27.002 8.997l.002.003c0-14.724-7.07-27.794-18.003-36.005l-.001-.002a44.808 44.808 0 0 1 27.002-8.998 44.805 44.805 0 0 1 26.998 8.996c10.932 8.211 18.002 21.283 18.002 36.005zm36 72a44.805 44.805 0 0 0-26.998-8.996 44.799 44.799 0 0 0-27 8.997v.003c0-14.724-7.07-27.795-18.002-36.004v-.003a44.799 44.799 0 0 1 27-8.997 44.805 44.805 0 0 1 26.998 8.996c10.932 8.209 18.002 21.282 18.002 36.004zM99.002 269.971a44.81 44.81 0 0 0-26.998-8.996 44.802 44.802 0 0 0-27 8.998v.002c0-14.723-7.07-27.795-18.002-36.004v-.003a44.801 44.801 0 0 1 27-8.997A44.801 44.801 0 0 1 81 233.967c10.932 8.209 18.002 21.281 18.002 36.004zm72-71.996a44.805 44.805 0 0 0-26.998-8.996 44.804 44.804 0 0 0-27.001 8.997l.001.003c0-14.723-7.07-27.795-18.002-36.004l-.001-.003a44.804 44.804 0 0 1 27.001-8.997A44.805 44.805 0 0 1 153 161.971c10.932 8.209 18.002 21.281 18.002 36.004zm36 72a44.81 44.81 0 0 0-26.998-8.996 44.802 44.802 0 0 0-27 8.998v.002c0-14.723-7.07-27.795-18.002-36.004v-.002a44.802 44.802 0 0 1 27-8.998A44.801 44.801 0 0 1 189 233.971c10.932 8.209 18.002 21.281 18.002 36.004zm72-72a44.805 44.805 0 0 0-26.998-8.996 44.81 44.81 0 0 0-27.002 8.997l.002.003c0-14.723-7.07-27.795-18.003-36.004l-.001-.003a44.807 44.807 0 0 1 27.002-8.997A44.805 44.805 0 0 1 261 161.971c10.932 8.209 18.002 21.281 18.002 36.004zm36 72a44.812 44.812 0 0 0-26.998-8.996 44.8 44.8 0 0 0-27 8.998v.002c0-14.723-7.07-27.795-18.002-36.004v-.002a44.8 44.8 0 0 1 27-8.998A44.805 44.805 0 0 1 297 233.971c10.932 8.209 18.002 21.281 18.002 36.004zm144.006 72.021A44.803 44.803 0 0 0 432.01 333a44.801 44.801 0 0 0-27 8.997V342c0-14.723-7.069-27.795-18.002-36.004v-.003a44.801 44.801 0 0 1 27-8.997 44.799 44.799 0 0 1 26.998 8.996c10.932 8.209 18.002 21.281 18.002 36.004zm36 72c-7.52-5.648-16.867-8.996-26.998-8.996s-19.479 3.348-27 8.997V414c0-14.723-7.069-27.795-18.002-36.004v-.003c7.521-5.649 16.869-8.997 27-8.997s19.479 3.348 26.998 8.996c10.932 8.209 18.002 21.281 18.002 36.004zM387.004 197.983a44.803 44.803 0 0 0-26.998-8.996 44.801 44.801 0 0 0-27 8.997v.003c0-14.723-7.07-27.794-18.002-36.004v-.003a44.801 44.801 0 0 1 27-8.997 44.792 44.792 0 0 1 26.998 8.996c10.932 8.21 18.002 21.282 18.002 36.004zm36 71.999c-7.52-5.647-16.867-8.996-26.998-8.996s-19.479 3.349-27 8.998v.002c0-14.723-7.07-27.795-18.002-36.004v-.002c7.521-5.649 16.869-8.998 27-8.998s19.479 3.348 26.998 8.996c10.932 8.21 18.002 21.283 18.002 36.004zm72-71.999a44.805 44.805 0 0 0-26.998-8.996 44.806 44.806 0 0 0-27.001 8.997l.001.003c0-14.723-7.07-27.794-18.002-36.004l-.001-.003a44.804 44.804 0 0 1 27.001-8.997 44.797 44.797 0 0 1 26.998 8.996c10.932 8.21 18.002 21.282 18.002 36.004zM99 53.974a44.805 44.805 0 0 0-26.998-8.996 44.804 44.804 0 0 0-27.001 8.997l.001.003c0-14.723-7.07-27.794-18.002-36.004l-.001-.003A44.798 44.798 0 0 1 54 8.974a44.799 44.799 0 0 1 26.998 8.996C91.93 26.179 99 39.251 99 53.974zm36 72a44.803 44.803 0 0 0-26.998-8.996 44.801 44.801 0 0 0-27 8.997v.003c0-14.723-7.07-27.795-18.002-36.004v-.003a44.801 44.801 0 0 1 27-8.997 44.801 44.801 0 0 1 26.998 8.996C127.93 98.179 135 111.251 135 125.974zm72-72a44.805 44.805 0 0 0-26.998-8.996A44.81 44.81 0 0 0 153 53.975l.002.003c0-14.723-7.07-27.794-18.003-36.004l-.001-.003A44.807 44.807 0 0 1 162 8.974a44.799 44.799 0 0 1 26.998 8.996C199.93 26.179 207 39.251 207 53.974zm36 72a44.805 44.805 0 0 0-26.998-8.996 44.799 44.799 0 0 0-27 8.997v.003c0-14.723-7.07-27.795-18.002-36.004v-.003a44.799 44.799 0 0 1 27-8.997 44.805 44.805 0 0 1 26.998 8.996C235.93 98.179 243 111.251 243 125.974zm72.002-71.992a44.803 44.803 0 0 0-26.998-8.996 44.801 44.801 0 0 0-27 8.997v.003c0-14.723-7.07-27.794-18.002-36.004v-.003a44.801 44.801 0 0 1 27-8.997A44.792 44.792 0 0 1 297 17.978c10.932 8.21 18.002 21.282 18.002 36.004zm36 72c-7.52-5.648-16.867-8.996-26.998-8.996s-19.479 3.348-27 8.997v.003c0-14.723-7.07-27.795-18.002-36.004v-.003c7.521-5.649 16.869-8.997 27-8.997S325.48 84.33 333 89.979c10.932 8.209 18.002 21.281 18.002 36.003zm72-72a44.805 44.805 0 0 0-26.998-8.996 44.804 44.804 0 0 0-27.001 8.997l.001.003c0-14.723-7.07-27.794-18.002-36.004l-.001-.003a44.804 44.804 0 0 1 27.001-8.997A44.799 44.799 0 0 1 405 17.978c10.932 8.21 18.002 21.282 18.002 36.004zm36 72a44.803 44.803 0 0 0-26.998-8.996 44.801 44.801 0 0 0-27 8.997v.003c0-14.723-7.07-27.795-18.002-36.004v-.003a44.801 44.801 0 0 1 27-8.997A44.799 44.799 0 0 1 441 89.978c10.932 8.21 18.002 21.282 18.002 36.004zm108.002 216a44.805 44.805 0 0 0-26.998-8.996 44.804 44.804 0 0 0-27.002 8.998l.002.002c0-14.723-7.07-27.793-18.003-36.004l-.001-.002a44.801 44.801 0 0 1 27.002-8.998 44.805 44.805 0 0 1 26.998 8.996c10.932 8.211 18.002 21.282 18.002 36.004zM531 269.971a44.805 44.805 0 0 0-26.998-8.996 44.793 44.793 0 0 0-27 8.998v.002c0-14.723-7.07-27.795-18.002-36.004v-.002a44.793 44.793 0 0 1 27-8.998 44.805 44.805 0 0 1 26.998 8.996C523.93 242.176 531 255.248 531 269.971zm0-215.993a44.803 44.803 0 0 0-26.998-8.996 44.801 44.801 0 0 0-27 8.997v.003c0-14.723-7.07-27.794-18.002-36.004v-.003a44.801 44.801 0 0 1 27-8.997 44.792 44.792 0 0 1 26.998 8.996C523.93 26.184 531 39.256 531 53.978zm36 72c-7.52-5.648-16.867-8.996-26.998-8.996s-19.479 3.348-27 8.997v.003c0-14.723-7.07-27.795-18.002-36.004v-.003c7.521-5.649 16.869-8.997 27-8.997s19.479 3.348 26.998 8.997C559.93 98.184 567 111.256 567 125.978z" fill="#AAD5EF" stroke="#000"/></svg>