<svg xmlns="http://www.w3.org/2000/svg" width="324" height="342"><path fill="none" d="M202.765 165.141a62.638 62.638 0 0 0-6.904 5.838 63.294 63.294 0 0 0 6.908 5.864 53.881 53.881 0 0 1 7.33-5.845c-.114-.076-.234-.144-.348-.221a54.08 54.08 0 0 1-6.986-5.636zm-74.462 42.65a62.583 62.583 0 0 0-5.949 4.247l-.001.001-.001.001a4.5 4.5 0 1 0 5.665 6.993c.321-.26.656-.498.982-.751a45.123 45.123 0 0 0-.696-10.491zm53.498-16.02a71.442 71.442 0 0 1 8.503 3.021 53.938 53.938 0 0 1 6.461-11.204 72.605 72.605 0 0 1-6.873-5.857 62.916 62.916 0 0 0-8.091 14.04z"/><path fill="none" d="M119.461 227.748a13.398 13.398 0 0 1-4.768-3.716 13.47 13.47 0 0 1-1.671-2.663c-2.646-5.511-1.292-12.31 3.667-16.324l.001-.001a71.64 71.64 0 0 1 8.978-6.195 44.896 44.896 0 0 0-5.966-10.301c-22.877 13.041-49.913 12.157-71.29.002A44.767 44.767 0 0 0 39.058 216c-.001 24.854 20.146 45.001 44.999 45.001 2.02 0 4.004-.146 5.953-.404.018-3.617.306-7.248.877-10.861.998-6.301 6.209-10.875 12.304-11.338a13.568 13.568 0 0 1 3.141.116 13.425 13.425 0 0 1 5.604 2.271 13.575 13.575 0 0 1 4.829 6.104 44.948 44.948 0 0 0 10.414-18.014c-2.618.385-5.309 0-7.718-1.127zm95.874-138.299l-.001.005a4.5 4.5 0 1 0 8.89 1.405v-.001l.001-.004c.383-2.421.606-4.851.704-7.277a44.794 44.794 0 0 0-9.436 4.654c-.055.404-.093.809-.157 1.212l-.001.006zM113.29 160.213a62.594 62.594 0 0 0-6.652-3.028h-.003a4.5 4.5 0 0 0-3.224 8.402c.386.148.76.319 1.141.476a45.225 45.225 0 0 0 8.738-5.85zm97.426-.01a45.089 45.089 0 0 0 8.727 5.85c13.444-5.537 28.164-5.254 40.996.001a45.079 45.079 0 0 0 8.73-5.853c-17.76-9.281-39.566-9.907-58.453.002zm-76.605 17.561a71.676 71.676 0 0 1-6.867 5.854 53.87 53.87 0 0 1 6.472 11.197 72.25 72.25 0 0 1 8.509-3.023 62.862 62.862 0 0 0-8.114-14.028zm136.022-6.985c-.113.076-.232.144-.346.219a53.576 53.576 0 0 1 7.335 5.84 63.354 63.354 0 0 0 6.894-5.852 62.604 62.604 0 0 0-6.896-5.846 54.164 54.164 0 0 1-6.987 5.639zm-116.22 27.756a71.678 71.678 0 0 1 1.636 8.874 53.863 53.863 0 0 1 12.934-.006c.362-2.994.906-5.96 1.636-8.881a62.88 62.88 0 0 0-16.206.013zm61.961-121.291c.01.136.009.273.017.41a53.615 53.615 0 0 1 8.726-3.433 63.564 63.564 0 0 0-1.621-8.895 62.426 62.426 0 0 0-8.51 3.048c.7 2.91 1.177 5.875 1.388 8.87zM239.942 72c29.823 0 53.999 24.177 53.999 54.001 0 12.152-4.034 23.353-10.81 32.377a71.188 71.188 0 0 1 6.858 5.866A62.657 62.657 0 0 0 302.939 126c.001-34.794-28.204-63-62.997-63-2.752 0-5.456.196-8.115.538a72.426 72.426 0 0 1 1.632 8.863 54.419 54.419 0 0 1 6.483-.401zM136.556 203.386a53.776 53.776 0 0 1 1.396 9.27c.123-.062.242-.131.366-.191a54.2 54.2 0 0 1 8.374-3.231 62.703 62.703 0 0 0-1.604-8.898 63.302 63.302 0 0 0-8.532 3.05zm74.154-21.598a62.685 62.685 0 0 0 6.652 3.028h.002a4.5 4.5 0 0 0 3.223-8.403c-.386-.148-.759-.319-1.141-.475a45.258 45.258 0 0 0-8.736 5.85z"/><path fill="none" d="M204.539 114.253a13.418 13.418 0 0 1 4.768 3.716 13.533 13.533 0 0 1 1.671 2.663c2.647 5.511 1.291 12.31-3.667 16.324v.001a71.64 71.64 0 0 1-8.978 6.195 44.929 44.929 0 0 0 5.965 10.301c22.878-13.041 49.914-12.158 71.291-.002a44.773 44.773 0 0 0 9.354-27.45c.001-24.854-20.146-45-44.998-45.001-2.02 0-4.003.146-5.953.404a71.722 71.722 0 0 1-.877 10.861c-.998 6.301-6.209 10.875-12.304 11.338a13.51 13.51 0 0 1-3.141-.116 13.425 13.425 0 0 1-5.604-2.271 13.58 13.58 0 0 1-4.83-6.105 44.941 44.941 0 0 0-10.414 18.014 13.58 13.58 0 0 1 7.717 1.128zm-27.532 9.159a45.139 45.139 0 0 0 9.429-4.632c1.927-14.412 9.533-27.018 20.5-35.503a45.069 45.069 0 0 0-.704-10.487c-16.918 10.739-28.363 29.312-29.225 50.622zm-82.539 46.37a13.588 13.588 0 0 1-2.882-7.248 13.393 13.393 0 0 1 .834-5.987 13.521 13.521 0 0 1 1.471-2.778c3.449-5.047 10.015-7.273 15.971-4.986h.001a71.766 71.766 0 0 1 9.854 4.677 44.88 44.88 0 0 0 5.938-10.317c-22.732-13.292-35.485-37.147-35.646-61.738a44.769 44.769 0 0 0-28.45 5.624c-21.525 12.427-28.9 39.948-16.473 61.471a45.333 45.333 0 0 0 3.326 4.953 71.626 71.626 0 0 1 9.845-4.671c5.956-2.286 12.522-.06 15.971 4.987a13.518 13.518 0 0 1 1.47 2.778 13.414 13.414 0 0 1 .835 5.989 13.58 13.58 0 0 1-2.872 7.235 44.956 44.956 0 0 0 20.807.011zm101.241 38.009a45.073 45.073 0 0 0-.703 10.482c11.518 8.874 18.632 21.764 20.497 35.504a45.115 45.115 0 0 0 9.434 4.635c-.842-20.02-11.204-39.219-29.228-50.621zm-74.479-42.633a53.875 53.875 0 0 1-7.33 5.844c.115.076.235.145.349.222a54.292 54.292 0 0 1 6.985 5.636 62.74 62.74 0 0 0 6.904-5.837 63.098 63.098 0 0 0-6.908-5.865zm68.645 71.057a13.41 13.41 0 0 1-5.602 2.27 13.52 13.52 0 0 1-3.142.116c-6.096-.464-11.307-5.036-12.304-11.338v-.001a71.606 71.606 0 0 1-.876-10.872 44.882 44.882 0 0 0-11.904.016c-.145 26.333-14.428 49.305-35.643 61.739a44.762 44.762 0 0 0 19.096 21.826c21.523 12.428 49.045 5.054 61.471-16.469a45.26 45.26 0 0 0 2.626-5.358 71.771 71.771 0 0 1-8.967-6.19c-4.958-4.014-6.313-10.814-3.667-16.324.447-.929.994-1.824 1.671-2.661a13.418 13.418 0 0 1 4.769-3.718 13.582 13.582 0 0 1 7.702-1.13 44.92 44.92 0 0 0-10.394-18.025 13.598 13.598 0 0 1-4.836 6.119zm-81.211 16.337l.002-.005a4.5 4.5 0 0 0-8.89-1.405l-.001.006a62.514 62.514 0 0 0-.704 7.277 44.878 44.878 0 0 0 9.437-4.655c.055-.404.093-.809.157-1.212l-.001-.006z"/><path fill="none" d="M205.957 257.967l-.003-.004a4.5 4.5 0 0 0-5.661 6.996l.004.004a62.302 62.302 0 0 0 5.95 4.248c.647-3.489.868-7.012.687-10.499-.322-.249-.654-.485-.971-.742-.002-.001-.002-.003-.006-.003zm-58.964-39.378a45.126 45.126 0 0 0-9.43 4.633c-1.927 14.411-9.532 27.018-20.498 35.502a45.061 45.061 0 0 0 .703 10.487c16.917-10.739 28.362-29.312 29.225-50.622zm-33.709-36.791a45.12 45.12 0 0 0-8.727-5.85c-13.444 5.537-28.164 5.254-40.996-.001a45.124 45.124 0 0 0-8.73 5.853c17.759 9.281 39.565 9.906 58.453-.002zm20.841-76.011a13.411 13.411 0 0 1 5.602-2.271 13.516 13.516 0 0 1 3.142-.115c6.096.463 11.306 5.037 12.304 11.338.572 3.617.86 7.251.876 10.872 3.979.528 7.981.512 11.903-.016.146-26.333 14.428-49.305 35.644-61.74a44.767 44.767 0 0 0-19.095-21.827c-21.523-12.427-49.045-5.053-61.471 16.471a45.31 45.31 0 0 0-2.626 5.356 71.771 71.771 0 0 1 8.967 6.19c4.958 4.015 6.313 10.815 3.667 16.325a13.509 13.509 0 0 1-1.671 2.662 13.416 13.416 0 0 1-4.769 3.717 13.582 13.582 0 0 1-7.702 1.13 44.93 44.93 0 0 0 10.394 18.025 13.577 13.577 0 0 1 4.835-6.117zm-5.834 28.422c.639-3.439.879-6.958.703-10.483-11.517-8.875-18.632-21.764-20.497-35.504a45.112 45.112 0 0 0-9.434-4.634c.842 20.021 11.204 39.219 29.228 50.621z"/><path fill="none" d="M118.042 84.035l.004.003a4.501 4.501 0 0 0 5.661-6.997l-.004-.003a62.682 62.682 0 0 0-5.951-4.249 44.826 44.826 0 0 0-.687 10.499c.322.25.654.485.972.743a.018.018 0 0 0 .005.004zm131.729 104.197a13.657 13.657 0 0 1-1.469-2.777 13.431 13.431 0 0 1-.836-5.989 13.567 13.567 0 0 1 2.873-7.234 44.929 44.929 0 0 0-20.807-.012 13.588 13.588 0 0 1 2.882 7.248 13.388 13.388 0 0 1-.834 5.986 13.53 13.53 0 0 1-1.471 2.779c-3.449 5.047-10.015 7.273-15.971 4.986h-.001a71.71 71.71 0 0 1-9.854-4.677 44.9 44.9 0 0 0-5.938 10.317c22.732 13.292 35.485 37.147 35.647 61.738a44.774 44.774 0 0 0 28.449-5.625c21.524-12.426 28.898-39.947 16.473-61.469a45.354 45.354 0 0 0-3.327-4.954 71.738 71.738 0 0 1-9.845 4.67c-5.955 2.286-12.521.06-15.971-4.987z"/><path fill="none" d="M259.293 176.416l-.004.001a4.5 4.5 0 0 0 3.228 8.401l.005-.001a62.427 62.427 0 0 0 6.654-3.028 44.829 44.829 0 0 0-8.75-5.845c-.377.154-.747.323-1.128.47-.001-.001-.003-.002-.005.002zm-82.28 42.162a62.48 62.48 0 0 0 .704 7.275v.002a4.5 4.5 0 0 0 8.889-1.409c-.064-.408-.104-.817-.159-1.226a45.216 45.216 0 0 0-9.434-4.642zM64.707 165.586l.005-.001a4.5 4.5 0 0 0-3.229-8.401l-.005.002a62.541 62.541 0 0 0-6.654 3.029 44.742 44.742 0 0 0 8.749 5.844c.377-.155.747-.324 1.129-.47l.005-.003zm112.617 43.643a53.877 53.877 0 0 1 8.728 3.425c.008-.137.007-.274.017-.411a54.087 54.087 0 0 1 1.389-8.868 62.7 62.7 0 0 0-8.508-3.061 63.248 63.248 0 0 0-1.626 8.915zm-26.211-57.052a71.877 71.877 0 0 1-10.858 18.839 71.9 71.9 0 0 1 10.887 18.823 71.89 71.89 0 0 1 21.745-.017 71.877 71.877 0 0 1 10.858-18.839 71.9 71.9 0 0 1-10.887-18.823 71.826 71.826 0 0 1-21.745.017zM115.234 54C130.146 28.173 163.172 19.324 189 34.235c10.525 6.076 18.208 15.17 22.635 25.55a71.507 71.507 0 0 1 8.508-3.006 62.664 62.664 0 0 0-26.644-30.338c-30.133-17.397-68.663-7.073-86.06 23.059a63.333 63.333 0 0 0-3.591 7.296 72.318 72.318 0 0 1 8.491 3.019A54.915 54.915 0 0 1 115.234 54zM84.058 270.001C54.234 270 30.059 245.824 30.059 216c0-12.152 4.033-23.354 10.809-32.377a71.429 71.429 0 0 1-6.857-5.865A62.655 62.655 0 0 0 21.059 216c0 34.794 28.205 63 62.998 63 2.752 0 5.457-.195 8.115-.538a72.375 72.375 0 0 1-1.632-8.862 54.6 54.6 0 0 1-6.482.401zm86.029-126.535a71.678 71.678 0 0 1-1.636-8.874 53.846 53.846 0 0 1-12.932.006 72.481 72.481 0 0 1-1.636 8.88 62.82 62.82 0 0 0 16.204-.012zm-61.962 121.291c-.01-.136-.008-.272-.017-.409a53.55 53.55 0 0 1-8.725 3.433 63.578 63.578 0 0 0 1.621 8.896 62.392 62.392 0 0 0 8.51-3.049 54.23 54.23 0 0 1-1.389-8.871zM286.708 189c14.911 25.828 6.062 58.853-19.767 73.765-10.524 6.075-22.241 8.183-33.444 6.827a71.244 71.244 0 0 1-1.651 8.872 62.66 62.66 0 0 0 39.595-7.906c30.133-17.396 40.457-55.926 23.061-86.057a63.533 63.533 0 0 0-4.523-6.759 72.434 72.434 0 0 1-6.859 5.845 54.754 54.754 0 0 1 3.588 5.413zm-77.942 99.001c-14.912 25.827-47.938 34.676-73.766 19.764-10.524-6.076-18.208-15.17-22.635-25.55a71.35 71.35 0 0 1-8.509 3.007c5.122 12.333 14.183 23.144 26.644 30.337 30.133 17.397 68.662 7.074 86.059-23.058a63.437 63.437 0 0 0 3.592-7.297 72.318 72.318 0 0 1-8.491-3.019 54.73 54.73 0 0 1-2.894 5.816zm-18.877-123.764a71.676 71.676 0 0 1 6.867-5.854 53.907 53.907 0 0 1-6.472-11.196 72.25 72.25 0 0 1-8.509 3.023 62.877 62.877 0 0 0 8.114 14.027zm-2.445-25.622a53.889 53.889 0 0 1-1.397-9.27c-.123.061-.242.131-.365.191a54.2 54.2 0 0 1-8.374 3.231 62.703 62.703 0 0 0 1.604 8.898 63.302 63.302 0 0 0 8.532-3.05zm-45.246 11.614a71.599 71.599 0 0 1-8.502-3.02 53.938 53.938 0 0 1-6.461 11.204 72.458 72.458 0 0 1 6.873 5.857 62.858 62.858 0 0 0 8.09-14.041zm74.06 114.306c-.123-.06-.241-.129-.363-.189a53.587 53.587 0 0 1-1.39 9.272 63.361 63.361 0 0 0 8.514 3.044 62.536 62.536 0 0 0 1.616-8.895 54.137 54.137 0 0 1-8.377-3.232zM107.742 77.466c.122.06.24.129.362.189.19-3.102.65-6.203 1.39-9.272a63.5 63.5 0 0 0-8.514-3.044 62.533 62.533 0 0 0-1.615 8.895 54.137 54.137 0 0 1 8.377 3.232zm39.244 45.957a62.696 62.696 0 0 0-.703-7.275v-.001l-.001-.001a4.5 4.5 0 0 0-8.888 1.41c.064.408.104.817.159 1.226a45.32 45.32 0 0 0 9.433 4.641zm-.311 9.349a53.907 53.907 0 0 1-8.727-3.426c-.008.138-.007.276-.017.413a54.075 54.075 0 0 1-1.389 8.867 62.835 62.835 0 0 0 8.508 3.061 63.129 63.129 0 0 0 1.625-8.915zm49.022 1.438a62.762 62.762 0 0 0 5.949-4.247l.001-.001.001-.001a4.5 4.5 0 1 0-5.665-6.993c-.321.26-.656.498-.982.75a45.14 45.14 0 0 0 .696 10.492zm-141.83 37.012c.113-.076.232-.144.346-.219a53.645 53.645 0 0 1-7.335-5.839 63.231 63.231 0 0 0-6.893 5.852 62.383 62.383 0 0 0 6.895 5.845 54.028 54.028 0 0 1 6.987-5.639zM37.292 153c-14.911-25.828-6.062-58.853 19.767-73.765 10.524-6.077 22.241-8.184 33.444-6.828.355-2.97.914-5.932 1.65-8.871a62.66 62.66 0 0 0-39.595 7.905c-30.132 17.397-40.456 55.927-23.06 86.059a63.417 63.417 0 0 0 4.523 6.758 72.581 72.581 0 0 1 6.859-5.845A54.52 54.52 0 0 1 37.292 153z"/><g fill="#FF0" stroke="#000" stroke-linecap="square" stroke-linejoin="bevel"><path d="M206.936 83.276a54.076 54.076 0 0 1 8.955-5.623c-.008-.136-.007-.273-.017-.41a54.111 54.111 0 0 0-1.389-8.87 62.689 62.689 0 0 0-8.253 4.416c.64 3.441.88 6.961.704 10.487zM123.029 58.5c12.426-21.523 39.948-28.897 61.471-16.471a44.763 44.763 0 0 1 19.095 21.827 71.593 71.593 0 0 1 8.04-4.07c-4.427-10.38-12.11-19.474-22.635-25.55-25.828-14.912-58.854-6.063-73.766 19.764a54.417 54.417 0 0 0-2.894 5.814 72.072 72.072 0 0 1 8.062 4.042 45.473 45.473 0 0 1 2.627-5.356zm45.422 76.093a72.734 72.734 0 0 1-.509-8.592c0-.136.01-.27.01-.405a44.917 44.917 0 0 1-11.903.016 72.027 72.027 0 0 1-.53 8.988c4.324.52 8.663.51 12.932-.007zm8.857-1.826a54.279 54.279 0 0 0 8.374-3.231c.124-.06.242-.13.365-.191a55.287 55.287 0 0 1-.105-3.344c0-2.45.179-4.857.495-7.221a45.09 45.09 0 0 1-9.429 4.632 63.494 63.494 0 0 0-.065 2.589 62.997 62.997 0 0 0 .365 6.766zm-30.322-9.344a45.216 45.216 0 0 1-9.434-4.642 44.926 44.926 0 0 1-18.657-24.899 45.154 45.154 0 0 1-1.83-10.593 44.83 44.83 0 0 1 .687-10.499 63.095 63.095 0 0 0-5.124-2.927 63.48 63.48 0 0 0-3.135-1.48 53.616 53.616 0 0 0-1.39 9.272 54.018 54.018 0 0 0 .392 10.567c1.865 13.74 8.98 26.629 20.497 35.504a54.336 54.336 0 0 0 6.006 4.039 53.927 53.927 0 0 0 11.676 5.007 62.81 62.81 0 0 0 .285-3.441c.106-1.964.106-3.935.027-5.908z"/><path d="M136.543 138.626a63.62 63.62 0 0 1-6.043-3.066 63.456 63.456 0 0 1-2.209-1.351c-18.024-11.402-28.385-30.6-29.228-50.621a62.559 62.559 0 0 1 1.918-18.25 63.36 63.36 0 0 0-8.827-1.803 71.443 71.443 0 0 0-1.65 8.871 71.644 71.644 0 0 0-.495 8.998c.162 24.59 12.915 48.446 35.646 61.738.117.068.228.144.346.211a71.662 71.662 0 0 0 16.198 6.875 63.502 63.502 0 0 0 2.853-8.542 62.475 62.475 0 0 1-8.509-3.06zm-8.039-19.664zm72.467 164.54c-12.426 21.522-39.947 28.896-61.471 16.469a44.767 44.767 0 0 1-19.096-21.826 71.423 71.423 0 0 1-8.04 4.07c4.427 10.38 12.111 19.474 22.635 25.55 25.828 14.912 58.854 6.063 73.766-19.764a54.43 54.43 0 0 0 2.894-5.815 72.072 72.072 0 0 1-8.062-4.042 45.414 45.414 0 0 1-2.626 5.358zm-83.906-24.778a53.992 53.992 0 0 1-8.957 5.624c.009.137.007.273.017.409a54.201 54.201 0 0 0 1.389 8.87 62.764 62.764 0 0 0 8.254-4.416c-.639-3.44-.88-6.96-.703-10.487zm38.483-51.316c.335 2.817.509 5.684.509 8.592 0 .136-.01.27-.01.405a44.925 44.925 0 0 1 11.904-.016c-.014-3.012.17-6.013.53-8.988a53.957 53.957 0 0 0-12.933.007zm-8.856 1.825a54.381 54.381 0 0 0-8.374 3.231c-.124.061-.243.13-.366.191.067 1.106.105 2.221.105 3.344 0 2.45-.179 4.857-.495 7.222a45.126 45.126 0 0 1 9.43-4.633c.035-.859.065-1.721.065-2.589a63.025 63.025 0 0 0-.365-6.766z"/><path d="M151.142 189.84a72.487 72.487 0 0 0-8.917 1.951 72.612 72.612 0 0 0-8.509 3.023 72.078 72.078 0 0 0-8.048 4.035 71.894 71.894 0 0 0-8.978 6.195l-.001.001c-4.959 4.014-6.313 10.813-3.667 16.324.446.93.993 1.825 1.671 2.663a13.398 13.398 0 0 0 4.768 3.716 13.58 13.58 0 0 0 7.717 1.128A44.9 44.9 0 0 0 129 218.282c-.326.253-.661.491-.982.751a4.5 4.5 0 0 1-5.665-6.993l.001-.001.001-.001a62.455 62.455 0 0 1 5.949-4.247 62.935 62.935 0 0 1 5.129-2.931 63.905 63.905 0 0 1 3.123-1.474 63.457 63.457 0 0 1 8.533-3.051 63.458 63.458 0 0 1 8.824-1.801 62.917 62.917 0 0 1 16.205-.014 72.583 72.583 0 0 1 2.769-8.698 71.922 71.922 0 0 0-21.745.018zm69.008 95.364a63.437 63.437 0 0 1-3.592 7.297c-17.396 30.132-55.926 40.455-86.059 23.058-12.461-7.193-21.522-18.004-26.644-30.337a63.504 63.504 0 0 1-2.852-8.546 63.433 63.433 0 0 1-1.621-8.896 63.12 63.12 0 0 1-.286-3.454 62.745 62.745 0 0 1-.027-5.9c.097-2.428.321-4.856.704-7.277l.001-.006a4.501 4.501 0 0 1 8.89 1.405.017.017 0 0 0-.002.005v.007c-.064.403-.103.808-.157 1.212a45.205 45.205 0 0 0 8.258-6.881 13.577 13.577 0 0 0-4.829-6.104 13.422 13.422 0 0 0-5.604-2.271 13.564 13.564 0 0 0-3.141-.116c-6.095.463-11.306 5.037-12.304 11.338a71.732 71.732 0 0 0-.877 10.861c-.014 3.017.17 6.023.531 9.003a72.375 72.375 0 0 0 1.632 8.862 72.334 72.334 0 0 0 2.775 8.719c5.729 14.718 16.31 27.66 31.053 36.173 34.438 19.882 78.471 8.084 98.354-26.352a72.51 72.51 0 0 0 4.735-9.842 72.652 72.652 0 0 1-8.938-1.958zm-21.805-86.347c-.117-.068-.228-.143-.345-.211a71.62 71.62 0 0 0-16.199-6.876 63.502 63.502 0 0 0-2.853 8.542 62.7 62.7 0 0 1 8.508 3.061 63.846 63.846 0 0 1 6.043 3.065c.752.434 1.482.891 2.209 1.351 18.024 11.402 28.386 30.601 29.228 50.621a62.421 62.421 0 0 1-1.918 18.25 63.215 63.215 0 0 0 8.827 1.803 71.428 71.428 0 0 0 1.651-8.872c.359-2.999.515-6.003.495-8.997-.16-24.589-12.914-48.445-35.646-61.737z"/><path d="M215.503 253.777c-1.865-13.74-8.979-26.63-20.497-35.504a54.336 54.336 0 0 0-6.006-4.039 53.805 53.805 0 0 0-11.677-5.006 62.81 62.81 0 0 0-.285 3.441 63.257 63.257 0 0 0-.026 5.908 45.263 45.263 0 0 1 9.435 4.642 44.926 44.926 0 0 1 18.657 24.899 45.154 45.154 0 0 1 1.83 10.592c.181 3.487-.04 7.01-.687 10.499a63.107 63.107 0 0 0 5.124 2.928 63.43 63.43 0 0 0 3.134 1.479 53.602 53.602 0 0 0 1.39-9.272c.217-3.541.081-7.08-.392-10.567zm-4.525-133.145a13.533 13.533 0 0 0-1.671-2.663 13.418 13.418 0 0 0-4.768-3.716 13.58 13.58 0 0 0-7.717-1.128A44.832 44.832 0 0 0 195 123.718c.326-.252.661-.49.982-.75a4.5 4.5 0 0 1 6.329.666 4.498 4.498 0 0 1-.664 6.327l-.001.001-.001.001a62.455 62.455 0 0 1-5.949 4.247 62.935 62.935 0 0 1-5.129 2.931 63.92 63.92 0 0 1-11.656 4.525 63.472 63.472 0 0 1-8.825 1.801 62.873 62.873 0 0 1-16.205.013 72.583 72.583 0 0 1-2.769 8.698 71.89 71.89 0 0 0 21.745-.016 72.25 72.25 0 0 0 17.426-4.974 72.078 72.078 0 0 0 8.048-4.035 71.894 71.894 0 0 0 8.978-6.195v-.001c4.96-4.016 6.316-10.814 3.669-16.325zm22.482-48.231a72.426 72.426 0 0 0-1.632-8.863 72.498 72.498 0 0 0-2.775-8.718c-5.729-14.718-16.31-27.661-31.054-36.174C163.562-1.235 119.528 10.563 99.646 45a72.537 72.537 0 0 0-4.734 9.84 72.645 72.645 0 0 1 8.938 1.956 63.496 63.496 0 0 1 3.591-7.296c17.397-30.132 55.927-40.456 86.06-23.059a62.674 62.674 0 0 1 26.644 30.338 63.363 63.363 0 0 1 2.852 8.546 63.419 63.419 0 0 1 1.621 8.895 63.12 63.12 0 0 1 .286 3.454c.105 1.961.106 3.93.027 5.901a62.514 62.514 0 0 1-.704 7.277l-.001.004v.001a4.5 4.5 0 0 1-8.89-1.405l.001-.005.001-.007c.064-.403.102-.808.157-1.212a45.279 45.279 0 0 0-8.258 6.881 13.575 13.575 0 0 0 4.83 6.105 13.438 13.438 0 0 0 5.604 2.271c1.062.168 2.113.194 3.141.116 6.095-.463 11.306-5.037 12.304-11.338.571-3.613.86-7.244.877-10.861a72.451 72.451 0 0 0-.533-9.001z"/></g><g fill="#00F" stroke="#000" stroke-linecap="square" stroke-linejoin="bevel"><path d="M45.086 148.5c-12.427-21.523-5.052-49.045 16.472-61.471a44.769 44.769 0 0 1 28.45-5.624c-.02-2.995.136-5.999.495-8.998-11.203-1.356-22.92.751-33.444 6.828C31.23 94.147 22.381 127.173 37.292 153a54.637 54.637 0 0 0 3.588 5.413 72.012 72.012 0 0 1 7.532-4.96 45.333 45.333 0 0 1-3.326-4.953zm88.61-1.291a72.83 72.83 0 0 1-7.696-3.855c-.118-.068-.229-.143-.346-.211a44.916 44.916 0 0 1-5.938 10.317 72.202 72.202 0 0 1 7.519 4.953 53.938 53.938 0 0 0 6.461-11.204zm-34.634-63.62a45.112 45.112 0 0 1 9.434 4.634 54.018 54.018 0 0 1-.392-10.567c-.122-.061-.24-.13-.362-.189a54.239 54.239 0 0 0-8.377-3.232 62.951 62.951 0 0 0-.303 9.354zm37.481 55.037a54.307 54.307 0 0 0 1.389-8.867c.01-.137.009-.275.017-.413a54.874 54.874 0 0 1-2.949-1.581 54.336 54.336 0 0 1-6.006-4.039 45.085 45.085 0 0 1-.703 10.483c.727.46 1.458.917 2.209 1.351a63.267 63.267 0 0 0 6.043 3.066z"/><path d="M155.172 114.739c-.998-6.302-6.208-10.876-12.304-11.339a13.52 13.52 0 0 0-3.142.115 13.411 13.411 0 0 0-5.602 2.271 13.57 13.57 0 0 0-4.835 6.12 44.861 44.861 0 0 0 8.263 6.874c-.055-.408-.094-.817-.159-1.226a4.499 4.499 0 0 1 3.741-5.148 4.498 4.498 0 0 1 5.147 3.738l.001.001v.001c.382 2.42.606 4.849.703 7.275a63.255 63.255 0 0 1-.026 5.908 62.647 62.647 0 0 1-.285 3.441 63.416 63.416 0 0 1-1.625 8.915 63.315 63.315 0 0 1-2.853 8.542 62.868 62.868 0 0 1-8.091 14.041 72.482 72.482 0 0 1 6.148 6.746 71.894 71.894 0 0 0 10.858-18.839 72.583 72.583 0 0 0 2.769-8.698 72.481 72.481 0 0 0 1.636-8.88c.359-2.975.544-5.976.53-8.988a71.352 71.352 0 0 0-.874-10.87zM129.37 70.047a71.771 71.771 0 0 0-8.967-6.19 72.072 72.072 0 0 0-8.062-4.042 72.5 72.5 0 0 0-8.491-3.019 72.605 72.605 0 0 0-8.938-1.956c-15.611-2.397-32.11.294-46.854 8.807C13.621 83.529 1.822 127.563 21.703 162a72.575 72.575 0 0 0 6.155 9.02 72.298 72.298 0 0 1 6.163-6.762 63.569 63.569 0 0 1-4.523-6.758c-17.396-30.132-7.072-68.662 23.061-86.059a62.665 62.665 0 0 1 39.595-7.905 63.36 63.36 0 0 1 8.827 1.803 63.5 63.5 0 0 1 8.514 3.044 63.48 63.48 0 0 1 3.135 1.48 63.266 63.266 0 0 1 5.124 2.927 62.81 62.81 0 0 1 5.951 4.249l.004.003a4.5 4.5 0 0 1-5.661 6.997l-.004-.003a.018.018 0 0 1-.005-.004c-.318-.257-.649-.493-.972-.743a45.214 45.214 0 0 0 1.83 10.593c2.612.38 5.297-.005 7.702-1.13a13.427 13.427 0 0 0 4.769-3.717 13.45 13.45 0 0 0 1.671-2.662c2.645-5.511 1.289-12.311-3.669-16.326zm-1.231 100.975a63.74 63.74 0 0 1-12.58 9.537 64.55 64.55 0 0 1-2.275 1.238c-18.887 9.908-40.693 9.283-58.453.002a62.492 62.492 0 0 1-14.846-10.785 63.356 63.356 0 0 0-5.975 6.743 71.673 71.673 0 0 0 6.857 5.865 71.574 71.574 0 0 0 7.545 4.927c21.377 12.155 48.413 13.039 71.29-.002.118-.067.238-.125.355-.193a71.676 71.676 0 0 0 14.054-10.591 63.405 63.405 0 0 0-5.972-6.741z"/><path d="M118.393 163.19a62.828 62.828 0 0 0-5.103-2.977 45.21 45.21 0 0 1-8.737 5.849 44.867 44.867 0 0 1-10.084 3.719 44.933 44.933 0 0 1-20.808-.012 45.17 45.17 0 0 1-10.088-3.711 44.787 44.787 0 0 1-8.749-5.844 62.734 62.734 0 0 0-5.097 2.974 62.784 62.784 0 0 0-2.849 1.975 53.493 53.493 0 0 0 7.335 5.839 53.98 53.98 0 0 0 9.348 4.944c12.832 5.255 27.552 5.538 40.996.001a54.423 54.423 0 0 0 6.501-3.182 53.952 53.952 0 0 0 10.173-7.608 63.939 63.939 0 0 0-2.838-1.967zm160.521 30.311c12.426 21.522 5.052 49.043-16.473 61.469a44.774 44.774 0 0 1-28.449 5.625 71.639 71.639 0 0 1-.495 8.997c11.203 1.355 22.92-.752 33.444-6.827 25.828-14.912 34.678-47.938 19.767-73.765a54.6 54.6 0 0 0-3.589-5.414 72.18 72.18 0 0 1-7.532 4.961 45.45 45.45 0 0 1 3.327 4.954zm-91.457 9.874a54.302 54.302 0 0 0-1.389 8.868c-.01.137-.009.274-.017.411.992.495 1.976 1.02 2.949 1.581a54.336 54.336 0 0 1 6.006 4.039 45.073 45.073 0 0 1 .703-10.482 63.456 63.456 0 0 0-2.209-1.351 63.267 63.267 0 0 0-6.043-3.066zm2.847-8.583a72.543 72.543 0 0 1 7.696 3.855c.117.068.228.143.345.211a44.937 44.937 0 0 1 5.938-10.317 72.202 72.202 0 0 1-7.519-4.953 53.953 53.953 0 0 0-6.46 11.204zm34.633 63.62a45.115 45.115 0 0 1-9.434-4.635c.473 3.486.609 7.025.392 10.568.122.061.24.13.363.189a54.239 54.239 0 0 0 8.377 3.232 62.82 62.82 0 0 0 .302-9.354z"/><path d="M302.297 180.001a72.696 72.696 0 0 0-6.155-9.021 72.424 72.424 0 0 1-6.163 6.762 63.533 63.533 0 0 1 4.523 6.759c17.396 30.131 7.072 68.661-23.061 86.057a62.656 62.656 0 0 1-39.595 7.906 63.215 63.215 0 0 1-8.827-1.803 63.361 63.361 0 0 1-8.514-3.044 63.914 63.914 0 0 1-3.134-1.479 63.107 63.107 0 0 1-5.124-2.928 62.302 62.302 0 0 1-5.95-4.248l-.004-.004a4.5 4.5 0 0 1 5.661-6.996l.003.004c.004 0 .004.002.006.003.317.257.649.493.971.742a45.215 45.215 0 0 0-1.83-10.592 13.582 13.582 0 0 0-7.702 1.13 13.418 13.418 0 0 0-4.769 3.718 13.548 13.548 0 0 0-1.671 2.661c-2.646 5.51-1.291 12.311 3.667 16.324a71.665 71.665 0 0 0 8.967 6.19 72.072 72.072 0 0 0 8.062 4.042 72.63 72.63 0 0 0 8.491 3.019 72.279 72.279 0 0 0 8.938 1.956c15.61 2.396 32.109-.295 46.853-8.807 34.439-19.881 46.238-63.914 26.357-98.351zm-115.849 43.22c.055.408.094.817.159 1.226a4.5 4.5 0 0 1-8.889 1.409v-.002a62.94 62.94 0 0 1-.704-7.275 63.255 63.255 0 0 1 .026-5.908c.062-1.15.16-2.298.285-3.441.328-3.01.873-5.989 1.625-8.915a62.945 62.945 0 0 1 10.944-22.583 72.493 72.493 0 0 1-6.148-6.747 71.894 71.894 0 0 0-10.858 18.839 72.583 72.583 0 0 0-2.769 8.698 72.497 72.497 0 0 0-1.636 8.881 72.027 72.027 0 0 0-.53 8.988c.017 3.621.305 7.256.876 10.872v.001c.997 6.302 6.208 10.874 12.304 11.338 1.028.078 2.077.052 3.142-.116a13.397 13.397 0 0 0 5.602-2.27 13.581 13.581 0 0 0 4.835-6.12 44.866 44.866 0 0 0-8.264-6.875zm83.339-52.222a54.098 54.098 0 0 0-9.349-4.945c-12.832-5.255-27.552-5.538-40.996-.001a54.423 54.423 0 0 0-6.501 3.182 53.881 53.881 0 0 0-10.173 7.609 63.96 63.96 0 0 0 2.838 1.968 63.018 63.018 0 0 0 5.104 2.977 45.21 45.21 0 0 1 8.737-5.849 44.874 44.874 0 0 1 10.085-3.719 44.942 44.942 0 0 1 20.807.012 45.161 45.161 0 0 1 10.087 3.711 44.784 44.784 0 0 1 8.75 5.845 63.028 63.028 0 0 0 5.097-2.974 62.229 62.229 0 0 0 2.849-1.975 53.508 53.508 0 0 0-7.335-5.841z"/><path d="M283.132 158.378a71.832 71.832 0 0 0-7.544-4.928c-21.377-12.155-48.413-13.038-71.291.002-.118.067-.238.125-.355.193a71.676 71.676 0 0 0-14.053 10.591 63.415 63.415 0 0 0 5.972 6.742 62.731 62.731 0 0 1 6.904-5.838 63.62 63.62 0 0 1 5.677-3.701 63.744 63.744 0 0 1 2.274-1.237c18.887-9.909 40.693-9.283 58.453-.002a62.604 62.604 0 0 1 14.847 10.785 63.466 63.466 0 0 0 5.975-6.743 72.118 72.118 0 0 0-6.859-5.864z"/></g><g fill="red" stroke="#000" stroke-linecap="square" stroke-linejoin="bevel"><path d="M121.235 176.86a54.207 54.207 0 0 0-6.985-5.636c-.114-.077-.234-.146-.349-.222a55.054 55.054 0 0 1-2.843 1.764 54.423 54.423 0 0 1-6.501 3.182 45.12 45.12 0 0 1 8.727 5.85 62.954 62.954 0 0 0 2.275-1.238 63.74 63.74 0 0 0 5.676-3.7zm-57.674-.913a53.98 53.98 0 0 1-9.348-4.944c-.114.076-.233.143-.346.219a54.189 54.189 0 0 0-6.987 5.638 62.771 62.771 0 0 0 7.951 4.94 45.079 45.079 0 0 1 8.73-5.853zm20.496 85.054c-24.853 0-45-20.147-44.999-45.001a44.767 44.767 0 0 1 9.354-27.45 71.677 71.677 0 0 1-7.545-4.927c-6.775 9.024-10.809 20.225-10.809 32.377 0 29.824 24.176 54 53.999 54.001 2.195 0 4.355-.146 6.482-.401a72.256 72.256 0 0 1-.531-9.003 45.435 45.435 0 0 1-5.951.404zm43.187-77.384a72.595 72.595 0 0 1-7.187 4.737c-.117.068-.237.126-.355.193a44.932 44.932 0 0 1 5.966 10.301 72.25 72.25 0 0 1 8.048-4.035 53.914 53.914 0 0 0-6.472-11.196z"/><path d="M140.255 171.017a72.342 72.342 0 0 0-6.148-6.746 72.312 72.312 0 0 0-6.873-5.857 71.99 71.99 0 0 0-7.519-4.953 71.71 71.71 0 0 0-9.854-4.677h-.001c-5.956-2.287-12.521-.062-15.971 4.986a13.547 13.547 0 0 0-1.471 2.778 13.393 13.393 0 0 0-.834 5.987 13.588 13.588 0 0 0 2.882 7.248 44.849 44.849 0 0 0 10.084-3.719c-.381-.157-.755-.328-1.141-.476a4.5 4.5 0 0 1-2.588-5.814 4.498 4.498 0 0 1 5.812-2.588h.003a62.685 62.685 0 0 1 6.652 3.028 62.828 62.828 0 0 1 5.103 2.977c.966.629 1.91 1.288 2.838 1.967a63.408 63.408 0 0 1 6.909 5.865 63.405 63.405 0 0 1 5.972 6.741 62.877 62.877 0 0 1 8.114 14.027 72.487 72.487 0 0 1 8.917-1.951 71.824 71.824 0 0 0-10.886-18.823zM92.172 278.462a63.345 63.345 0 0 1-8.115.538c-34.793 0-62.998-28.206-62.998-63a62.672 62.672 0 0 1 12.951-38.243 63.356 63.356 0 0 1 5.975-6.743 63.55 63.55 0 0 1 6.893-5.852 63.284 63.284 0 0 1 2.849-1.975 63.028 63.028 0 0 1 5.097-2.974 62.632 62.632 0 0 1 6.654-3.029l.005-.002a4.5 4.5 0 0 1 3.224 8.402l-.006.002c-.382.146-.751.315-1.129.47a45.17 45.17 0 0 0 10.088 3.711 13.58 13.58 0 0 0 2.872-7.235 13.414 13.414 0 0 0-.835-5.989 13.544 13.544 0 0 0-1.47-2.778c-3.448-5.047-10.015-7.272-15.971-4.987a71.743 71.743 0 0 0-9.845 4.671 72.332 72.332 0 0 0-7.532 4.96 72.309 72.309 0 0 0-6.859 5.845 72.424 72.424 0 0 0-6.163 6.762c-9.881 12.321-15.8 27.955-15.8 44.979.001 39.765 32.235 72 71.999 72.001 3.702 0 7.338-.281 10.89-.82a71.972 71.972 0 0 1-2.774-8.714zm63.376-71.054a71.493 71.493 0 0 0-1.636-8.874c-2.983.39-5.931.994-8.824 1.801a62.703 62.703 0 0 1 1.604 8.898c.238 2.224.367 4.479.367 6.767 0 .868-.031 1.729-.065 2.589-.863 21.311-12.308 39.883-29.225 50.622a62.526 62.526 0 0 1-16.764 7.465 63.363 63.363 0 0 0 2.852 8.546 71.412 71.412 0 0 0 8.509-3.007 71.762 71.762 0 0 0 8.04-4.07c21.215-12.435 35.498-35.406 35.643-61.739 0-.136.01-.27.01-.405a72.75 72.75 0 0 0-.511-8.593z"/><path d="M137.952 212.656a53.97 53.97 0 0 0-1.396-9.27 63.905 63.905 0 0 0-3.123 1.474 62.935 62.935 0 0 0-5.129 2.931 45.212 45.212 0 0 1 .696 10.491 44.85 44.85 0 0 1-1.822 10.594 44.936 44.936 0 0 1-10.414 18.014 45.211 45.211 0 0 1-8.258 6.881 44.782 44.782 0 0 1-9.437 4.655 62.743 62.743 0 0 0 .027 5.9 63.12 63.12 0 0 0 .286 3.454 53.55 53.55 0 0 0 8.725-3.433 53.992 53.992 0 0 0 8.957-5.624c10.966-8.484 18.571-21.091 20.498-35.502.316-2.364.495-4.771.495-7.222a53.714 53.714 0 0 0-.105-3.343zm122.486-46.602a53.96 53.96 0 0 1 9.349 4.945c.113-.075.232-.143.346-.219a54.249 54.249 0 0 0 6.987-5.639 62.72 62.72 0 0 0-7.951-4.939 45.127 45.127 0 0 1-8.731 5.852zM239.943 81c24.852 0 44.999 20.147 44.998 45.001a44.767 44.767 0 0 1-9.354 27.45 71.673 71.673 0 0 1 7.544 4.928c6.775-9.024 10.81-20.226 10.81-32.377 0-29.824-24.176-54-53.999-54.001-2.195 0-4.355.146-6.482.401.36 2.98.545 5.986.53 9.003a45.156 45.156 0 0 1 5.953-.405zm-37.178 84.141a54.207 54.207 0 0 0 6.985 5.636c.114.077.234.145.348.221a55.054 55.054 0 0 1 2.843-1.764 54.423 54.423 0 0 1 6.501-3.182 45.074 45.074 0 0 1-8.727-5.85c-.762.399-1.522.803-2.274 1.237a63.98 63.98 0 0 0-5.676 3.702zm-6.01-6.758a72.698 72.698 0 0 1 7.186-4.737c.118-.068.238-.126.355-.193a44.929 44.929 0 0 1-5.965-10.301 72.25 72.25 0 0 1-8.048 4.035 53.952 53.952 0 0 0 6.472 11.196zm23.389-101.604a71.507 71.507 0 0 0-8.508 3.006 71.762 71.762 0 0 0-8.04 4.07c-21.215 12.435-35.498 35.407-35.644 61.74 0 .136-.01.27-.01.405 0 2.908.174 5.774.509 8.592.36 3.021.915 5.98 1.636 8.874a63.472 63.472 0 0 0 8.825-1.801 62.703 62.703 0 0 1-1.604-8.898 63.516 63.516 0 0 1-.367-6.766c0-.868.031-1.729.065-2.589.862-21.311 12.308-39.883 29.226-50.623a62.522 62.522 0 0 1 16.763-7.464 63.312 63.312 0 0 0-2.851-8.546z"/><path d="M224.902 77.675a63.12 63.12 0 0 0-.286-3.454 53.65 53.65 0 0 0-8.726 3.433 54.01 54.01 0 0 0-8.955 5.623c-10.967 8.485-18.573 21.092-20.5 35.503a54.435 54.435 0 0 0-.495 7.221 53.889 53.889 0 0 0 1.502 12.614 63.005 63.005 0 0 0 3.123-1.475 62.935 62.935 0 0 0 5.129-2.931 45.229 45.229 0 0 1-.696-10.492c.183-3.665.813-7.21 1.822-10.593a44.93 44.93 0 0 1 10.414-18.014 45.211 45.211 0 0 1 8.258-6.881c2.929-1.9 6.09-3.47 9.436-4.654.08-1.97.08-3.939-.026-5.9zM239.943 54c-3.702 0-7.338.281-10.89.82a72.498 72.498 0 0 1 2.775 8.718 63.526 63.526 0 0 1 8.115-.538c34.793 0 62.998 28.206 62.997 63a62.66 62.66 0 0 1-12.95 38.244 63.356 63.356 0 0 1-5.975 6.743 63.37 63.37 0 0 1-6.894 5.852 63.858 63.858 0 0 1-2.849 1.975 63.028 63.028 0 0 1-5.097 2.974 62.427 62.427 0 0 1-6.654 3.028c-.003.001-.003.002-.005.001a4.5 4.5 0 0 1-3.228-8.401l.004-.001c.002-.003.004-.002.006-.003.381-.146.751-.315 1.128-.47a45.18 45.18 0 0 0-10.087-3.711 13.578 13.578 0 0 0-2.873 7.234c-.17 1.975.078 4.014.836 5.989a13.63 13.63 0 0 0 1.469 2.777c3.449 5.047 10.016 7.273 15.971 4.986a71.855 71.855 0 0 0 9.845-4.67 72.18 72.18 0 0 0 7.532-4.961 72.434 72.434 0 0 0 6.859-5.845 72.424 72.424 0 0 0 6.163-6.762c9.881-12.321 15.799-27.955 15.8-44.979 0-39.764-32.234-71.999-71.998-72zm-7.529 125.467a13.588 13.588 0 0 0-2.882-7.248 44.874 44.874 0 0 0-10.085 3.719c.381.156.755.327 1.141.475a4.5 4.5 0 0 1-3.223 8.403h-.002a62.594 62.594 0 0 1-6.652-3.028 63.19 63.19 0 0 1-5.104-2.977 62.56 62.56 0 0 1-2.838-1.968 63.5 63.5 0 0 1-6.908-5.864 63.415 63.415 0 0 1-5.972-6.742 62.916 62.916 0 0 1-8.114-14.027 72.487 72.487 0 0 1-8.917 1.951 71.872 71.872 0 0 0 10.887 18.823 72.187 72.187 0 0 0 13.021 12.604 72.096 72.096 0 0 0 7.519 4.953 71.71 71.71 0 0 0 9.854 4.677h.001c5.956 2.287 12.521.061 15.971-4.986a13.53 13.53 0 0 0 1.471-2.779 13.415 13.415 0 0 0 .832-5.986z"/></g></svg>