<svg xmlns="http://www.w3.org/2000/svg" width="522" height="522"><path fill="#0081CD" stroke="#000" d="M9 99h27v27H9zm27 27h27v27H36zm63-27h27v27H99zm27 27h27v27h-27zm0-117h27v27h-27zM99 36h27v27H99zm27 63h27v27h-27zm-27 27h27v27H99zm27 45h27v27h-27zm-27 27h27v27H99zm27 45h27v27h-27zm-27 27h27v27H99zm27 45h27v27h-27zm-27 27h27v27H99zm27 45h27v27h-27zm-27 27h27v27H99zm27 45h27v27h-27zm-27 27h27v27H99z"/><path fill="#FEC200" stroke="#000" d="M198 9h27v27h-27zm-27 27h27v27h-27zm27 135h27v27h-27zm-27 27h27v27h-27zm27 45h27v27h-27zm-27 27h27v27h-27zm27 45h27v27h-27zm-27 27h27v27h-27zm27 45h27v27h-27zm-27 27h27v27h-27zm27 45h27v27h-27zm-27 27h27v27h-27z"/><path fill="#BC1E47" stroke="#000" d="M270 9h27v27h-27zm-27 27h27v27h-27zm27 207h27v27h-27zm-27 27h27v27h-27zm27 45h27v27h-27zm-27 27h27v27h-27zm27 45h27v27h-27zm-27 27h27v27h-27zm27 45h27v27h-27zm-27 27h27v27h-27z"/><path fill="#0081CD" stroke="#000" d="M342 9h27v27h-27z"/><path fill="#FEC200" stroke="#000" d="M315 36h27v27h-27z"/><path fill="#0081CD" stroke="#000" d="M342 315h27v27h-27z"/><path fill="#FEC200" stroke="#000" d="M315 342h27v27h-27z"/><path fill="#0081CD" stroke="#000" d="M342 387h27v27h-27z"/><path fill="#FEC200" stroke="#000" d="M315 414h27v27h-27z"/><path fill="#0081CD" stroke="#000" d="M342 459h27v27h-27z"/><path fill="#FEC200" stroke="#000" d="M315 486h27v27h-27zM414 9h27v27h-27z"/><path fill="#BC1E47" stroke="#000" d="M387 36h27v27h-27z"/><path fill="#FEC200" stroke="#000" d="M414 387h27v27h-27z"/><path fill="#BC1E47" stroke="#000" d="M387 414h27v27h-27z"/><path fill="#FEC200" stroke="#000" d="M414 459h27v27h-27z"/><path fill="#BC1E47" stroke="#000" d="M387 486h27v27h-27zM486 9h27v27h-27z"/><path fill="#0081CD" stroke="#000" d="M459 36h27v27h-27z"/><path fill="#BC1E47" stroke="#000" d="M486 459h27v27h-27z"/><path fill="#0081CD" stroke="#000" d="M459 486h27v27h-27z"/><path fill="#FEC200" stroke="#000" d="M9 171h27v27H9zm27 27h27v27H36zm63-27h27v27H99zm27 27h27v27h-27zm45-27h27v27h-27zm27 27h27v27h-27z"/><path fill="#0081CD" stroke="#000" d="M9 315h27v27H9z"/><path fill="#FEC200" stroke="#000" d="M36 342h27v27H36z"/><path fill="#0081CD" stroke="#000" d="M99 315h27v27H99z"/><path fill="#FEC200" stroke="#000" d="M126 342h27v27h-27z"/><path fill="#0081CD" stroke="#000" d="M171 315h27v27h-27z"/><path fill="#FEC200" stroke="#000" d="M198 342h27v27h-27z"/><path fill="#0081CD" stroke="#000" d="M243 315h27v27h-27z"/><path fill="#FEC200" stroke="#000" d="M270 342h27v27h-27z"/><path fill="#0081CD" stroke="#000" d="M315 315h27v27h-27z"/><path fill="#FEC200" stroke="#000" d="M342 342h27v27h-27z"/><path fill="#BC1E47" stroke="#000" d="M9 243h27v27H9zm27 27h27v27H36zm63-27h27v27H99zm27 27h27v27h-27zm45-27h27v27h-27zm27 27h27v27h-27zm45-27h27v27h-27zm27 27h27v27h-27z"/><path fill="#FEC200" stroke="#000" d="M9 387h27v27H9z"/><path fill="#BC1E47" stroke="#000" d="M36 414h27v27H36z"/><path fill="#FEC200" stroke="#000" d="M99 387h27v27H99z"/><path fill="#BC1E47" stroke="#000" d="M126 414h27v27h-27z"/><path fill="#FEC200" stroke="#000" d="M171 387h27v27h-27z"/><path fill="#BC1E47" stroke="#000" d="M198 414h27v27h-27z"/><path fill="#FEC200" stroke="#000" d="M243 387h27v27h-27z"/><path fill="#BC1E47" stroke="#000" d="M270 414h27v27h-27z"/><path fill="#FEC200" stroke="#000" d="M315 387h27v27h-27z"/><path fill="#BC1E47" stroke="#000" d="M342 414h27v27h-27z"/><path fill="#FEC200" stroke="#000" d="M387 387h27v27h-27z"/><path fill="#BC1E47" stroke="#000" d="M414 414h27v27h-27zM9 459h27v27H9z"/><path fill="#0081CD" stroke="#000" d="M36 486h27v27H36z"/><path fill="#BC1E47" stroke="#000" d="M99 459h27v27H99z"/><path fill="#0081CD" stroke="#000" d="M126 486h27v27h-27z"/><path fill="#BC1E47" stroke="#000" d="M171 459h27v27h-27z"/><path fill="#0081CD" stroke="#000" d="M198 486h27v27h-27z"/><path fill="#BC1E47" stroke="#000" d="M243 459h27v27h-27z"/><path fill="#0081CD" stroke="#000" d="M270 486h27v27h-27z"/><path fill="#BC1E47" stroke="#000" d="M315 459h27v27h-27z"/><path fill="#0081CD" stroke="#000" d="M342 486h27v27h-27z"/><path fill="#BC1E47" stroke="#000" d="M387 459h27v27h-27z"/><path fill="#0081CD" stroke="#000" d="M414 486h27v27h-27z"/><path fill="#BC1E47" stroke="#000" d="M459 459h27v27h-27z"/><path fill="#0081CD" stroke="#000" d="M486 486h27v27h-27z"/><path fill="none" stroke="#000" d="M81 522V0M0 81h522"/></svg>