<svg xmlns="http://www.w3.org/2000/svg" width="567" height="630"><g stroke="#000" stroke-width="3"><path d="M232.4 548.6c-13.3 4.2-27.9 6.4-43.2 6.4-43.3 0-80.9-17.7-100.7-47.3-14.7-22.1-17.1-48.1-6.6-73.1 11.7-28.1 60.3-57.9 107.3-85-5-2.9-10-5.7-14.9-8.5-15.3-8.7-30.3-17.3-44.7-26-47.2 28.6-87.1 58.2-103.1 96.5C8.4 455 12.8 502.2 38.6 541c30.9 46.4 87.2 74 150.6 74 34.5 0 66.8-8.2 94.2-23.1-20.1-11-37.5-25.6-51-43.3zM339.8 89c-1.7-2.6-3.6-5.2-5.5-7.7-20.6 6.4-38.3 17.5-51 32.4 2.3 2.7 4.5 5.6 6.5 8.6 14.7 22.1 17.1 48.1 6.6 73.1-2.6 6.3-7.2 12.8-13.1 19.3-11.5 12.4-28.2 25-47.1 37.3-14.8 9.7-31 19.2-47 28.4 5 2.9 10 5.7 14.9 8.5 15.3 8.7 30.3 17.3 44.7 26 12.1-7.3 23.7-14.7 34.6-22.3 18.3-12.8 34.5-26.2 47.1-40.7 9.1-10.5 16.4-21.6 21.4-33.5 18.2-43.4 13.8-90.6-12.1-129.4z" fill="#bc1e46"/><path d="M317.9 315c-12.1 7.3-23.7 14.7-34.6 22.3 18.3 12.8 34.5 26.2 47.1 40.7 14.8-9.7 31-19.2 47-28.4-5-2.9-10-5.7-14.9-8.5-15.1-8.8-30.2-17.4-44.6-26.1zM528.2 89C497.3 42.7 441 15 377.6 15c-34.5 0-66.8 8.2-94.2 23.1-20.1 11-37.5 25.6-51 43.3-1.9 2.5-3.7 5-5.5 7.7-25.8 38.7-30.2 85.9-12.1 129.5 5 11.9 12.3 23 21.4 33.5 18.9-12.3 35.7-24.9 47.1-37.3-6-6.5-10.5-12.9-13.1-19.3-10.4-25.1-8.1-51.1 6.6-73.1 2-3 4.2-5.8 6.5-8.6 12.7-14.8 30.3-25.9 51-32.4 13.3-4.2 27.9-6.4 43.2-6.4 43.3 0 80.9 17.7 100.7 47.3 14.7 22.1 17.1 48.1 6.6 73.1-11.7 28.1-60.3 57.9-107.3 85 5 2.9 10 5.7 14.9 8.5 15.3 8.7 30.3 17.3 44.7 26 47.2-28.6 87.1-58.2 103.1-96.5 18.2-43.4 13.8-90.6-12-129.4z" fill="#0081cd"/><path d="M351.9 411.5c-5-11.9-12.3-23-21.4-33.5-12.7-14.5-28.8-27.9-47.1-40.7-10.9-7.6-22.5-15-34.6-22.3-14.4-8.7-29.5-17.3-44.7-26-4.9-2.8-9.9-5.7-14.9-8.5-47-27.1-95.6-56.9-107.3-85-10.4-25.1-8.1-51.1 6.6-73.1C108.3 92.7 145.9 75 189.2 75c15.3 0 29.9 2.2 43.2 6.4 13.5-17.7 30.9-32.3 51-43.3C256.1 23.2 223.7 15 189.2 15 125.8 15 69.5 42.7 38.6 89c-25.8 38.8-30.2 86-12.1 129.5 15.9 38.3 55.9 67.9 103.1 96.5 14.4 8.7 29.5 17.3 44.7 26 4.9 2.8 9.9 5.7 14.9 8.5 16 9.2 32.2 18.7 47 28.4 18.9 12.3 35.7 24.9 47.1 37.3 6 6.5 10.5 12.9 13.1 19.3 10.4 25.1 8.1 51.1-6.6 73.1-2 3-4.2 5.8-6.5 8.6 12.7 14.8 30.3 25.9 51 32.4 1.9-2.5 3.7-5 5.5-7.7 25.9-38.7 30.3-85.9 12.1-129.4z" fill="#bc1e46"/><path d="M540.3 411.5c-15.9-38.3-55.9-67.9-103.1-96.5-14.4-8.7-29.5-17.3-44.7-26-4.9-2.8-9.9-5.7-14.9-8.5-16-9.2-32.2-18.7-47-28.4-12.7 14.5-28.8 27.9-47.1 40.7 10.9 7.6 22.5 15 34.6 22.3 14.4 8.7 29.5 17.3 44.7 26 4.9 2.8 9.9 5.7 14.9 8.5 47 27.1 95.6 56.9 107.3 85 10.4 25.1 8.1 51.1-6.6 73.1C458.6 537.3 421 555 377.7 555c-15.3 0-29.9-2.2-43.2-6.4-20.6-6.4-38.3-17.5-51-32.4-2.3-2.7-4.5-5.6-6.5-8.6-14.7-22.1-17.1-48.1-6.6-73.1 2.6-6.3 7.2-12.8 13.1-19.3-11.5-12.4-28.2-25-47.1-37.3-9.1 10.5-16.4 21.6-21.4 33.5-18.3 43.6-13.9 90.8 12 129.6 1.7 2.6 3.6 5.2 5.5 7.7 13.5 17.7 30.9 32.3 51 43.3 27.3 14.9 59.7 23.1 94.2 23.1 63.4 0 119.7-27.7 150.6-74 25.7-38.9 30.1-86.1 12-129.6z" fill="#0081cd"/></g></svg>