<svg xmlns="http://www.w3.org/2000/svg" width="519" height="516" viewBox="-152 -154 519 516"><g fill="none" stroke="#000"><circle cx="107.499" cy="102.999" r="240.599"/><path d="M138.65-133.701C120.271 5.912 197.953 140.461 328.05 194.35m-457.251-122.5C10.412 90.229 144.961 12.547 198.85-117.549m53.974 31.151c-85.723 111.715-85.723 267.082 0 378.797M-81.898-42.324c111.715 85.723 267.082 85.723 378.797 0m31.152 53.974C197.953 65.539 120.271 200.09 138.65 339.699M16.15-117.549C70.037 12.547 204.59 90.229 344.199 71.85m0 62.3C204.59 115.771 70.037 193.453 16.15 323.551m280.748-75.227c-111.715-85.723-267.082-85.723-378.797 0m280.749 75.227c-53.889-130.098-188.438-207.779-328.051-189.4M76.35 339.699C94.729 200.09 17.047 65.539-113.051 11.65m75.227 280.748c85.723-111.715 85.723-267.082 0-378.797m-75.227 280.749C17.047 140.461 94.729 5.912 76.35-133.701"/></g><g fill="#0081CD" stroke="#000"><path d="M138.65-146.201c6.9 0 12.5 5.598 12.5 12.5 0 6.904-5.6 12.5-12.5 12.5-6.902 0-12.5-5.596-12.5-12.5 0-6.903 5.598-12.5 12.5-12.5z"/><circle cx="252.824" cy="-86.398" r="12.5"/><circle cx="328.051" cy="11.65" r="12.5"/><circle cx="344.199" cy="134.15" r="12.5"/><circle cx="296.898" cy="248.324" r="12.5"/><circle cx="198.85" cy="323.551" r="12.5"/><circle cx="76.35" cy="339.699" r="12.5"/><circle cx="-37.824" cy="292.398" r="12.5"/><circle cx="-113.051" cy="194.35" r="12.5"/><circle cx="-129.201" cy="71.85" r="12.5"/><circle cx="-81.898" cy="-42.324" r="12.5"/><circle cx="16.15" cy="-117.549" r="12.5"/></g><g fill="#FEC200" stroke="#000"><circle cx="198.85" cy="-117.549" r="12.5"/><circle cx="296.898" cy="-42.324" r="12.5"/><circle cx="344.199" cy="71.85" r="12.5"/><circle cx="328.051" cy="194.35" r="12.5"/><circle cx="252.824" cy="292.398" r="12.5"/><path d="M138.65 327.199c6.9 0 12.5 5.596 12.5 12.5s-5.6 12.5-12.5 12.5c-6.902 0-12.5-5.596-12.5-12.5s5.598-12.5 12.5-12.5z"/><circle cx="16.15" cy="323.551" r="12.5"/><circle cx="-81.898" cy="248.324" r="12.5"/><circle cx="-129.201" cy="134.15" r="12.5"/><circle cx="-113.051" cy="11.65" r="12.5"/><circle cx="-37.824" cy="-86.398" r="12.5"/><circle cx="76.35" cy="-133.701" r="12.5"/></g></svg>