<svg xmlns="http://www.w3.org/2000/svg" width="1359" height="621"><path fill="#AAD5EF" d="M99 64.134v19.293c5.375 3.114 9 8.915 9 15.573 0 9.941-8.059 18-18 18s-18-8.059-18-18c0-6.658 3.625-12.459 9-15.573V64.134C65.473 68.131 54 82.225 54 99c0 19.882 16.118 36 36 36s36-16.118 36-36c0-16.775-11.473-30.869-27-34.866"/><path fill="none" stroke="#000" d="M99 64.134v19.293c5.375 3.114 9 8.915 9 15.573 0 9.941-8.059 18-18 18s-18-8.059-18-18c0-6.658 3.625-12.459 9-15.573V64.134C65.473 68.131 54 82.225 54 99c0 19.882 16.118 36 36 36s36-16.118 36-36c0-16.775-11.473-30.869-27-34.866z"/><path d="M65.447 73.804h-2.459v-.887h5.985v.887h-2.471V81h-1.055v-7.196zM71.675 81l-2.051-8.083h1.104l.959 4.09c.24 1.007.456 2.015.6 2.794h.024c.132-.804.384-1.763.66-2.807l1.08-4.078h1.091l.983 4.102c.228.959.444 1.919.564 2.771h.024c.168-.887.396-1.787.647-2.794l1.067-4.078h1.067L77.204 81h-1.091l-1.02-4.209c-.252-1.032-.42-1.823-.528-2.639h-.024c-.132.803-.324 1.595-.624 2.639L72.766 81h-1.091z"/><path fill="#FFEBAA" d="M81 64.134h18V135H81z"/><path fill="none" stroke="#000" d="M81 64.134h18V135H81z"/><path fill="#FFEBAA" d="M225 325.135h18V396h-18z"/><path fill="none" stroke="#000" d="M225 325.135h18V396h-18z"/><path d="M82.955 72.917V81h-1.056v-8.083h1.056zm1.693 6.812c.467.3 1.139.528 1.859.528 1.067 0 1.691-.563 1.691-1.379 0-.743-.432-1.187-1.523-1.595-1.319-.48-2.135-1.176-2.135-2.303 0-1.259 1.043-2.195 2.614-2.195.815 0 1.427.192 1.775.396l-.288.852c-.252-.156-.792-.384-1.523-.384-1.103 0-1.523.66-1.523 1.211 0 .755.492 1.127 1.607 1.559 1.367.528 2.051 1.188 2.051 2.375 0 1.248-.912 2.339-2.819 2.339-.779 0-1.631-.24-2.062-.528l.276-.876zm7.583-5.925h-2.459v-.887h5.985v.887h-2.471V81h-1.055v-7.196z"/><path fill="#AAD5EF" d="M243 63v19.293c5.375 3.114 9 8.915 9 15.573 0 9.941-8.059 18-18 18s-18-8.059-18-18c0-6.658 3.625-12.459 9-15.573V63c-15.527 3.997-27 18.091-27 34.866 0 19.882 16.118 36 36 36s36-16.118 36-36c0-16.775-11.473-30.869-27-34.866"/><path fill="none" stroke="#000" d="M243 63v19.293c5.375 3.114 9 8.915 9 15.573 0 9.941-8.059 18-18 18s-18-8.059-18-18c0-6.658 3.625-12.459 9-15.573V63c-15.527 3.997-27 18.091-27 34.866 0 19.882 16.118 36 36 36s36-16.118 36-36c0-16.775-11.473-30.869-27-34.866z"/><path d="M209.447 72.669h-2.459v-.887h5.985v.887h-2.471v7.196h-1.055v-7.196zm6.216 7.196l-2.051-8.083h1.104l.959 4.09c.24 1.007.456 2.015.6 2.794h.024c.132-.804.384-1.763.66-2.807l1.08-4.078h1.091l.983 4.102c.228.959.444 1.919.564 2.771h.024c.168-.887.396-1.787.647-2.794l1.067-4.078h1.067l-2.291 8.083H220.1l-1.02-4.209c-.252-1.032-.42-1.823-.528-2.639h-.024c-.132.803-.324 1.595-.624 2.639l-1.151 4.209h-1.09z"/><path fill="#AAD5EF" d="M387 64.134v19.293c5.375 3.114 9 8.915 9 15.573 0 9.941-8.059 18-18 18s-18-8.059-18-18c0-6.658 3.625-12.459 9-15.573V64.134C353.473 68.131 342 82.225 342 99c0 19.882 16.117 36 36 36s36-16.118 36-36c0-16.775-11.473-30.869-27-34.866"/><path fill="none" stroke="#000" d="M387 64.134v19.293c5.375 3.114 9 8.915 9 15.573 0 9.941-8.059 18-18 18s-18-8.059-18-18c0-6.658 3.625-12.459 9-15.573V64.134C353.473 68.131 342 82.225 342 99c0 19.882 16.117 36 36 36s36-16.118 36-36c0-16.775-11.473-30.869-27-34.866z"/><path d="M353.447 73.804h-2.459v-.887h5.985v.887h-2.471V81h-1.055v-7.196zM359.675 81l-2.051-8.083h1.104l.959 4.09c.24 1.007.456 2.015.6 2.794h.024c.132-.804.384-1.763.66-2.807l1.08-4.078h1.091l.983 4.102c.228.959.444 1.919.564 2.771h.024c.168-.887.396-1.787.647-2.794l1.067-4.078h1.067L365.204 81h-1.091l-1.02-4.209c-.252-1.032-.42-1.823-.528-2.639h-.024c-.132.803-.324 1.595-.624 2.639L360.766 81h-1.091z"/><path fill="#AAD5EF" d="M315 208.134v19.293c5.375 3.114 9 8.915 9 15.573 0 9.941-8.059 18-18 18s-18-8.059-18-18c0-6.658 3.625-12.459 9-15.573v-19.293c-15.527 3.997-27 18.091-27 34.866 0 19.883 16.117 36 36 36s36-16.117 36-36c0-16.775-11.473-30.869-27-34.866"/><path fill="none" stroke="#000" d="M315 208.134v19.293c5.375 3.114 9 8.915 9 15.573 0 9.941-8.059 18-18 18s-18-8.059-18-18c0-6.658 3.625-12.459 9-15.573v-19.293c-15.527 3.997-27 18.091-27 34.866 0 19.883 16.117 36 36 36s36-16.117 36-36c0-16.775-11.473-30.869-27-34.866z"/><path d="M281.447 217.804h-2.459v-.887h5.985v.887h-2.471V225h-1.055v-7.196zm6.228 7.196l-2.051-8.083h1.104l.959 4.09c.24 1.007.456 2.015.6 2.794h.024c.132-.804.384-1.763.66-2.807l1.08-4.078h1.091l.983 4.102c.228.959.444 1.919.564 2.771h.024c.168-.887.396-1.787.647-2.794l1.067-4.078h1.067l-2.29 8.083h-1.091l-1.02-4.209c-.252-1.032-.42-1.823-.528-2.639h-.024c-.132.803-.324 1.595-.624 2.639L288.766 225h-1.091z"/><path fill="#AAD5EF" d="M243 352.135v19.293c5.375 3.113 9 8.914 9 15.572 0 9.941-8.059 18-18 18s-18-8.059-18-18c0-6.658 3.625-12.459 9-15.572v-19.293c-15.527 3.996-27 18.091-27 34.865 0 19.883 16.117 36 36 36s36-16.117 36-36c0-16.774-11.473-30.869-27-34.865"/><path fill="none" stroke="#000" d="M243 352.135v19.293c5.375 3.113 9 8.914 9 15.572 0 9.941-8.059 18-18 18s-18-8.059-18-18c0-6.658 3.625-12.459 9-15.572v-19.293c-15.527 3.996-27 18.091-27 34.865 0 19.883 16.117 36 36 36s36-16.117 36-36c0-16.774-11.473-30.869-27-34.865z"/><path d="M209.447 361.804h-2.459v-.888h5.985v.888h-2.471V369h-1.055v-7.196zm6.216 7.196l-2.051-8.084h1.104l.959 4.09c.24 1.008.456 2.016.6 2.795h.024c.132-.804.384-1.763.66-2.807l1.08-4.078h1.091l.983 4.103c.228.959.444 1.919.564 2.771h.024c.168-.888.396-1.787.647-2.795l1.067-4.078h1.067l-2.29 8.083h-1.091l-1.02-4.21c-.252-1.031-.42-1.822-.528-2.639h-.024c-.132.804-.324 1.596-.624 2.639l-1.151 4.21h-1.091z"/><path fill="#AAD5EF" d="M387 352.135v19.293c5.375 3.113 9 8.914 9 15.572 0 9.941-8.059 18-18 18s-18-8.059-18-18c0-6.658 3.625-12.459 9-15.572v-19.293c-15.527 3.996-27 18.091-27 34.865 0 19.883 16.117 36 36 36s36-16.117 36-36c0-16.774-11.473-30.869-27-34.865"/><path fill="none" stroke="#000" d="M387 352.135v19.293c5.375 3.113 9 8.914 9 15.572 0 9.941-8.059 18-18 18s-18-8.059-18-18c0-6.658 3.625-12.459 9-15.572v-19.293c-15.527 3.996-27 18.091-27 34.865 0 19.883 16.117 36 36 36s36-16.117 36-36c0-16.774-11.473-30.869-27-34.865z"/><path d="M353.447 361.804h-2.459v-.888h5.985v.888h-2.471V369h-1.055v-7.196zm6.228 7.196l-2.051-8.084h1.104l.959 4.09c.24 1.008.456 2.016.6 2.795h.024c.132-.804.384-1.763.66-2.807l1.08-4.078h1.091l.983 4.103c.228.959.444 1.919.564 2.771h.024c.168-.888.396-1.787.647-2.795l1.067-4.078h1.067l-2.29 8.083h-1.091l-1.02-4.21c-.252-1.031-.42-1.822-.528-2.639h-.024c-.132.804-.324 1.596-.624 2.639l-1.151 4.21h-1.091z"/><path fill="#AAD5EF" d="M459 207v19.293c5.375 3.113 9 8.914 9 15.572 0 9.942-8.059 18-18 18s-18-8.058-18-18c0-6.658 3.625-12.459 9-15.572V207c-15.527 3.996-27 18.091-27 34.865 0 19.883 16.117 36 36 36s36-16.117 36-36c0-16.774-11.473-30.869-27-34.865"/><path fill="none" stroke="#000" d="M459 207v19.293c5.375 3.113 9 8.914 9 15.572 0 9.942-8.059 18-18 18s-18-8.058-18-18c0-6.658 3.625-12.459 9-15.572V207c-15.527 3.996-27 18.091-27 34.865 0 19.883 16.117 36 36 36s36-16.117 36-36c0-16.774-11.473-30.869-27-34.865z"/><path d="M425.447 216.669h-2.459v-.887h5.985v.887h-2.471v7.196h-1.055v-7.196zm6.228 7.196l-2.051-8.083h1.104l.959 4.09c.24 1.007.456 2.015.6 2.794h.024c.132-.804.384-1.763.66-2.807l1.08-4.078h1.091l.983 4.102c.228.959.444 1.919.564 2.771h.024c.168-.887.396-1.787.647-2.794l1.067-4.078h1.067l-2.291 8.083h-1.091l-1.02-4.209c-.252-1.032-.42-1.823-.528-2.639h-.024c-.132.803-.324 1.595-.624 2.639l-1.151 4.209h-1.09z"/><path fill="#FFEBAA" d="M225 90h18v70.866h-18z"/><path fill="none" stroke="#000" d="M225 90h18v70.866h-18z"/><path d="M226.955 98.782v8.083h-1.056v-8.083h1.056zm1.693 6.812c.467.3 1.139.528 1.859.528 1.067 0 1.691-.563 1.691-1.379 0-.743-.432-1.187-1.523-1.595-1.319-.48-2.135-1.176-2.135-2.303 0-1.259 1.043-2.195 2.614-2.195.815 0 1.427.192 1.775.396l-.288.852c-.252-.156-.792-.384-1.523-.384-1.103 0-1.523.66-1.523 1.211 0 .755.492 1.127 1.607 1.559 1.367.528 2.051 1.188 2.051 2.375 0 1.248-.912 2.339-2.819 2.339-.779 0-1.631-.24-2.062-.528l.276-.876zm7.583-5.925h-2.459v-.887h5.985v.887h-2.471v7.196h-1.055v-7.196z"/><path fill="none" stroke="#BC1E47" d="M135 99h54m90 0h54m-54 288h54"/><path fill="#AAD5EF" d="M315 496.135v19.293c5.375 3.113 9 8.914 9 15.572 0 9.941-8.059 18-18 18s-18-8.059-18-18c0-6.658 3.625-12.459 9-15.572v-19.293c-15.527 3.996-27 18.091-27 34.865 0 19.883 16.117 36 36 36s36-16.117 36-36c0-16.774-11.473-30.869-27-34.865"/><path fill="none" stroke="#000" d="M315 496.135v19.293c5.375 3.113 9 8.914 9 15.572 0 9.941-8.059 18-18 18s-18-8.059-18-18c0-6.658 3.625-12.459 9-15.572v-19.293c-15.527 3.996-27 18.091-27 34.865 0 19.883 16.117 36 36 36s36-16.117 36-36c0-16.774-11.473-30.869-27-34.865z"/><path d="M281.447 505.804h-2.459v-.888h5.985v.888h-2.471V513h-1.055v-7.196zm6.228 7.196l-2.051-8.084h1.104l.959 4.09c.24 1.008.456 2.016.6 2.795h.024c.132-.804.384-1.763.66-2.807l1.08-4.078h1.091l.983 4.103c.228.959.444 1.919.564 2.771h.024c.168-.888.396-1.787.647-2.795l1.067-4.078h1.067l-2.29 8.083h-1.091l-1.02-4.21c-.252-1.031-.42-1.822-.528-2.639h-.024c-.132.804-.324 1.596-.624 2.639l-1.151 4.21h-1.091z"/><path fill="#AAD5EF" d="M459 495v19.293c5.375 3.113 9 8.914 9 15.572 0 9.941-8.059 18-18 18s-18-8.059-18-18c0-6.658 3.625-12.459 9-15.572V495c-15.527 3.996-27 18.091-27 34.865 0 19.883 16.117 36 36 36s36-16.117 36-36c0-16.774-11.473-30.869-27-34.865"/><path fill="none" stroke="#000" d="M459 495v19.293c5.375 3.113 9 8.914 9 15.572 0 9.941-8.059 18-18 18s-18-8.059-18-18c0-6.658 3.625-12.459 9-15.572V495c-15.527 3.996-27 18.091-27 34.865 0 19.883 16.117 36 36 36s36-16.117 36-36c0-16.774-11.473-30.869-27-34.865z"/><path d="M425.447 504.669h-2.459v-.888h5.985v.888h-2.471v7.196h-1.055v-7.196zm6.228 7.196l-2.051-8.084h1.104l.959 4.09c.24 1.008.456 2.016.6 2.795h.024c.132-.804.384-1.763.66-2.807l1.08-4.078h1.091l.983 4.103c.228.959.444 1.919.564 2.771h.024c.168-.888.396-1.787.647-2.795l1.067-4.078h1.067l-2.291 8.084h-1.091l-1.02-4.21c-.252-1.031-.42-1.822-.528-2.639h-.024c-.132.804-.324 1.596-.624 2.639l-1.151 4.21h-1.09z"/><path fill="#FFEBAA" d="M441 234h72v18h-72z"/><path fill="none" stroke="#000" d="M441 234h72v18h-72z"/><path fill="#FFEBAA" d="M444.625 237.75h13.125V249h-13.125z"/><path fill="none" stroke="#000" d="M444.625 237.75h13.125V249h-13.125z"/><path fill="#AAD5EF" d="M1107 352.135v19.293c5.375 3.113 9 8.914 9 15.572 0 9.941-8.059 18-18 18s-18-8.059-18-18c0-6.658 3.625-12.459 9-15.572v-19.293c-15.527 3.996-27 18.091-27 34.865 0 19.883 16.117 36 36 36s36-16.117 36-36c0-16.774-11.473-30.869-27-34.865"/><path fill="none" stroke="#000" d="M1107 352.135v19.293c5.375 3.113 9 8.914 9 15.572 0 9.941-8.059 18-18 18s-18-8.059-18-18c0-6.658 3.625-12.459 9-15.572v-19.293c-15.527 3.996-27 18.091-27 34.865 0 19.883 16.117 36 36 36s36-16.117 36-36c0-16.774-11.473-30.869-27-34.865z"/><path d="M1073.446 361.804h-2.458v-.888h5.984v.888h-2.471V369h-1.056v-7.196zm6.229 7.196l-2.051-8.084h1.104l.96 4.09c.239 1.008.455 2.016.6 2.795h.023c.132-.804.384-1.763.66-2.807l1.079-4.078h1.092l.983 4.103c.228.959.443 1.919.563 2.771h.023c.168-.888.396-1.787.648-2.795l1.067-4.078h1.067l-2.291 8.084h-1.092l-1.02-4.21c-.251-1.031-.419-1.822-.527-2.639h-.023c-.133.804-.324 1.596-.624 2.639l-1.151 4.21h-1.09z"/><path fill="#FFEBAA" d="M1035 379.135h72v18h-72z"/><path fill="none" stroke="#000" d="M1035 379.135h72v18h-72z"/><path fill="#FFEBAA" d="M1038.625 382.885h13.125v11.25h-13.125z"/><path fill="none" stroke="#000" d="M1038.625 382.885h13.125v11.25h-13.125z"/><path fill="#AAD5EF" d="M747 496.135v19.293c5.375 3.113 9 8.914 9 15.572 0 9.941-8.059 18-18 18s-18-8.059-18-18c0-6.658 3.625-12.459 9-15.572v-19.293c-15.527 3.996-27 18.091-27 34.865 0 19.883 16.117 36 36 36s36-16.117 36-36c0-16.774-11.473-30.869-27-34.865"/><path fill="none" stroke="#000" d="M747 496.135v19.293c5.375 3.113 9 8.914 9 15.572 0 9.941-8.059 18-18 18s-18-8.059-18-18c0-6.658 3.625-12.459 9-15.572v-19.293c-15.527 3.996-27 18.091-27 34.865 0 19.883 16.117 36 36 36s36-16.117 36-36c0-16.774-11.473-30.869-27-34.865z"/><path d="M713.446 505.804h-2.458v-.888h5.984v.888h-2.471V513h-1.056v-7.196zm6.216 7.196l-2.051-8.084h1.104l.96 4.09c.239 1.008.455 2.016.6 2.795h.023c.132-.804.384-1.763.66-2.807l1.079-4.078h1.092l.983 4.103c.228.959.443 1.919.563 2.771h.023c.168-.888.396-1.787.648-2.795l1.067-4.078h1.067L725.191 513H724.1l-1.02-4.21c-.251-1.031-.419-1.822-.527-2.639h-.023c-.133.804-.324 1.596-.624 2.639l-1.151 4.21h-1.093z"/><path fill="#FFEBAA" d="M729 523.135h72v18h-72z"/><path fill="none" stroke="#000" d="M729 523.135h72v18h-72z"/><path fill="#FFEBAA" d="M732.625 526.885h13.125v11.25h-13.125z"/><path fill="none" stroke="#000" d="M732.625 526.885h13.125v11.25h-13.125z"/><path fill="#AAD5EF" d="M603 207v19.293c5.375 3.113 9 8.914 9 15.572 0 9.942-8.059 18-18 18s-18-8.058-18-18c0-6.658 3.625-12.459 9-15.572V207c-15.527 3.996-27 18.091-27 34.865 0 19.883 16.117 36 36 36s36-16.117 36-36c0-16.774-11.473-30.869-27-34.865"/><path fill="none" stroke="#000" d="M603 207v19.293c5.375 3.113 9 8.914 9 15.572 0 9.942-8.059 18-18 18s-18-8.058-18-18c0-6.658 3.625-12.459 9-15.572V207c-15.527 3.996-27 18.091-27 34.865 0 19.883 16.117 36 36 36s36-16.117 36-36c0-16.774-11.473-30.869-27-34.865z"/><path d="M569.447 216.669h-2.459v-.887h5.985v.887h-2.471v7.196h-1.055v-7.196zm6.216 7.196l-2.051-8.083h1.104l.959 4.09c.24 1.007.456 2.015.6 2.794h.024c.132-.804.384-1.763.66-2.807l1.08-4.078h1.091l.983 4.102c.228.959.444 1.919.564 2.771h.024c.168-.887.396-1.787.647-2.794l1.067-4.078h1.067l-2.291 8.083H580.1l-1.02-4.209c-.252-1.032-.42-1.823-.528-2.639h-.024c-.132.803-.324 1.595-.624 2.639l-1.151 4.209h-1.09z"/><path fill="#FFEBAA" d="M585 234h72v18h-72z"/><path fill="none" stroke="#000" d="M585 234h72v18h-72z"/><path fill="#FFEBAA" d="M612 237.75h13.125V249H612z"/><path fill="none" stroke="#000" d="M612 237.75h13.125V249H612z"/><path fill="#AAD5EF" d="M747 207v19.293c5.375 3.113 9 8.914 9 15.572 0 9.942-8.059 18-18 18s-18-8.058-18-18c0-6.658 3.625-12.459 9-15.572V207c-15.527 3.996-27 18.091-27 34.865 0 19.883 16.117 36 36 36s36-16.117 36-36c0-16.774-11.473-30.869-27-34.865"/><path fill="none" stroke="#000" d="M747 207v19.293c5.375 3.113 9 8.914 9 15.572 0 9.942-8.059 18-18 18s-18-8.058-18-18c0-6.658 3.625-12.459 9-15.572V207c-15.527 3.996-27 18.091-27 34.865 0 19.883 16.117 36 36 36s36-16.117 36-36c0-16.774-11.473-30.869-27-34.865z"/><path d="M713.446 216.669h-2.458v-.887h5.984v.887h-2.471v7.196h-1.056v-7.196zm6.216 7.196l-2.051-8.083h1.104l.96 4.09c.239 1.007.455 2.015.6 2.794h.023c.132-.804.384-1.763.66-2.807l1.079-4.078h1.092l.983 4.102c.228.959.443 1.919.563 2.771h.023c.168-.887.396-1.787.648-2.794l1.067-4.078h1.067l-2.291 8.083H724.1l-1.02-4.209c-.251-1.032-.419-1.823-.527-2.639h-.023c-.133.803-.324 1.595-.624 2.639l-1.151 4.209h-1.093z"/><path fill="#FFEBAA" d="M675 234h72v18h-72z"/><path fill="none" stroke="#000" d="M675 234h72v18h-72z"/><path fill="#FFEBAA" d="M702 237.75h13.125V249H702z"/><path fill="none" stroke="#000" d="M702 237.75h13.125V249H702z"/><path fill="#AAD5EF" d="M963 352.135v19.293c5.375 3.113 9 8.914 9 15.572 0 9.941-8.059 18-18 18s-18-8.059-18-18c0-6.658 3.625-12.459 9-15.572v-19.293c-15.527 3.996-27 18.091-27 34.865 0 19.883 16.117 36 36 36s36-16.117 36-36c0-16.774-11.473-30.869-27-34.865"/><path fill="none" stroke="#000" d="M963 352.135v19.293c5.375 3.113 9 8.914 9 15.572 0 9.941-8.059 18-18 18s-18-8.059-18-18c0-6.658 3.625-12.459 9-15.572v-19.293c-15.527 3.996-27 18.091-27 34.865 0 19.883 16.117 36 36 36s36-16.117 36-36c0-16.774-11.473-30.869-27-34.865z"/><path d="M929.446 361.804h-2.458v-.888h5.984v.888h-2.471V369h-1.056v-7.196zm6.216 7.196l-2.051-8.084h1.104l.96 4.09c.239 1.008.455 2.016.6 2.795h.023c.132-.804.384-1.763.66-2.807l1.079-4.078h1.092l.983 4.103c.228.959.443 1.919.563 2.771h.023c.168-.888.396-1.787.648-2.795l1.067-4.078h1.067L941.191 369H940.1l-1.02-4.21c-.251-1.031-.419-1.822-.527-2.639h-.023c-.133.804-.324 1.596-.624 2.639l-1.151 4.21h-1.093z"/><path fill="#FFEBAA" d="M891 379.135h72v18h-72z"/><path fill="none" stroke="#000" d="M891 379.135h72v18h-72z"/><path fill="#FFEBAA" d="M918 382.885h13.125v11.25H918z"/><path fill="none" stroke="#000" d="M918 382.885h13.125v11.25H918z"/><path fill="#FFEBAA" d="M387 522h72v18h-72z"/><path fill="none" stroke="#000" d="M387 522h72v18h-72z"/><path fill="#FFEBAA" d="M390.625 525.75h13.125V537h-13.125z"/><path fill="none" stroke="#000" d="M390.625 525.75h13.125V537h-13.125z"/><path fill="#AAD5EF" d="M171 496.135v19.293c5.375 3.113 9 8.914 9 15.572 0 9.941-8.059 18-18 18s-18-8.059-18-18c0-6.658 3.625-12.459 9-15.572v-19.293c-15.527 3.996-27 18.091-27 34.865 0 19.883 16.117 36 36 36s36-16.117 36-36c0-16.774-11.473-30.869-27-34.865"/><path fill="none" stroke="#000" d="M171 496.135v19.293c5.375 3.113 9 8.914 9 15.572 0 9.941-8.059 18-18 18s-18-8.059-18-18c0-6.658 3.625-12.459 9-15.572v-19.293c-15.527 3.996-27 18.091-27 34.865 0 19.883 16.117 36 36 36s36-16.117 36-36c0-16.774-11.473-30.869-27-34.865z"/><path d="M137.447 505.804h-2.459v-.888h5.985v.888h-2.471V513h-1.055v-7.196zm6.216 7.196l-2.051-8.084h1.104l.959 4.09c.24 1.008.456 2.016.6 2.795h.024c.132-.804.384-1.763.66-2.807l1.08-4.078h1.091l.983 4.103c.228.959.444 1.919.564 2.771h.024c.168-.888.396-1.787.647-2.795l1.067-4.078h1.067l-2.29 8.083h-1.091l-1.02-4.21c-.252-1.031-.42-1.822-.528-2.639h-.024c-.132.804-.324 1.596-.624 2.639l-1.151 4.21h-1.091z"/><path fill="#FFEBAA" d="M153 523.135h72v18h-72z"/><path fill="none" stroke="#000" d="M153 523.135h72v18h-72z"/><path fill="#FFEBAA" d="M207 526.885h13.125v11.25H207z"/><path fill="none" stroke="#000" d="M207 526.885h13.125v11.25H207z"/><path fill="#AAD5EF" d="M819 352.135v19.293c5.375 3.113 9 8.914 9 15.572 0 9.941-8.059 18-18 18s-18-8.059-18-18c0-6.658 3.625-12.459 9-15.572v-19.293c-15.527 3.996-27 18.091-27 34.865 0 19.883 16.117 36 36 36s36-16.117 36-36c0-16.774-11.473-30.869-27-34.865"/><path fill="none" stroke="#000" d="M819 352.135v19.293c5.375 3.113 9 8.914 9 15.572 0 9.941-8.059 18-18 18s-18-8.059-18-18c0-6.658 3.625-12.459 9-15.572v-19.293c-15.527 3.996-27 18.091-27 34.865 0 19.883 16.117 36 36 36s36-16.117 36-36c0-16.774-11.473-30.869-27-34.865z"/><path d="M785.446 361.804h-2.458v-.888h5.984v.888h-2.471V369h-1.056v-7.196zm6.216 7.196l-2.051-8.084h1.104l.96 4.09c.239 1.008.455 2.016.6 2.795h.023c.132-.804.384-1.763.66-2.807l1.079-4.078h1.092l.983 4.103c.228.959.443 1.919.563 2.771h.023c.168-.888.396-1.787.648-2.795l1.067-4.078h1.067L797.191 369H796.1l-1.02-4.21c-.251-1.031-.419-1.822-.527-2.639h-.023c-.133.804-.324 1.596-.624 2.639l-1.151 4.21h-1.093z"/><path fill="#FFEBAA" d="M801 379.135h72v18h-72z"/><path fill="none" stroke="#000" d="M801 379.135h72v18h-72z"/><path fill="#FFEBAA" d="M855 382.885h13.125v11.25H855z"/><path fill="none" stroke="#000" d="M855 382.885h13.125v11.25H855z"/><path fill="#AAD5EF" d="M1035 208.135v19.293c5.375 3.113 9 8.914 9 15.572 0 9.942-8.059 18-18 18s-18-8.058-18-18c0-6.658 3.625-12.459 9-15.572v-19.293c-15.527 3.996-27 18.091-27 34.865 0 19.883 16.117 36 36 36s36-16.117 36-36c0-16.774-11.473-30.869-27-34.865"/><path fill="none" stroke="#000" d="M1035 208.135v19.293c5.375 3.113 9 8.914 9 15.572 0 9.942-8.059 18-18 18s-18-8.058-18-18c0-6.658 3.625-12.459 9-15.572v-19.293c-15.527 3.996-27 18.091-27 34.865 0 19.883 16.117 36 36 36s36-16.117 36-36c0-16.774-11.473-30.869-27-34.865z"/><path d="M1001.446 217.804h-2.458v-.887h5.984v.887h-2.471V225h-1.056v-7.196zm6.216 7.196l-2.051-8.083h1.104l.96 4.09c.239 1.007.455 2.015.6 2.794h.023c.132-.804.384-1.763.66-2.807l1.079-4.078h1.092l.983 4.102c.228.959.443 1.919.563 2.771h.023c.168-.887.396-1.787.648-2.794l1.067-4.078h1.067l-2.291 8.083h-1.092l-1.02-4.209c-.251-1.032-.419-1.823-.527-2.639h-.023c-.133.803-.324 1.595-.624 2.639l-1.151 4.209h-1.09z"/><path fill="#AAD5EF" d="M1179 208.135v19.293c5.375 3.113 9 8.914 9 15.572 0 9.942-8.059 18-18 18s-18-8.058-18-18c0-6.658 3.625-12.459 9-15.572v-19.293c-15.527 3.996-27 18.091-27 34.865 0 19.883 16.117 36 36 36s36-16.117 36-36c0-16.774-11.473-30.869-27-34.865"/><path fill="none" stroke="#000" d="M1179 208.135v19.293c5.375 3.113 9 8.914 9 15.572 0 9.942-8.059 18-18 18s-18-8.058-18-18c0-6.658 3.625-12.459 9-15.572v-19.293c-15.527 3.996-27 18.091-27 34.865 0 19.883 16.117 36 36 36s36-16.117 36-36c0-16.774-11.473-30.869-27-34.865z"/><path d="M1145.446 217.804h-2.458v-.887h5.984v.887h-2.471V225h-1.056v-7.196zm6.229 7.196l-2.051-8.083h1.104l.96 4.09c.239 1.007.455 2.015.6 2.794h.023c.132-.804.384-1.763.66-2.807l1.079-4.078h1.092l.983 4.102c.228.959.443 1.919.563 2.771h.023c.168-.887.396-1.787.648-2.794l1.067-4.078h1.067l-2.291 8.083h-1.092l-1.02-4.209c-.251-1.032-.419-1.823-.527-2.639h-.023c-.133.803-.324 1.595-.624 2.639l-1.151 4.209h-1.09z"/><path fill="#AAD5EF" d="M1107 64.135v19.293c5.375 3.113 9 8.914 9 15.572 0 9.942-8.059 18-18 18s-18-8.058-18-18c0-6.658 3.625-12.459 9-15.572V64.135c-15.527 3.996-27 18.091-27 34.865 0 19.883 16.117 36 36 36s36-16.117 36-36c0-16.774-11.473-30.869-27-34.865"/><path fill="none" stroke="#000" d="M1107 64.135v19.293c5.375 3.113 9 8.914 9 15.572 0 9.942-8.059 18-18 18s-18-8.058-18-18c0-6.658 3.625-12.459 9-15.572V64.135c-15.527 3.996-27 18.091-27 34.865 0 19.883 16.117 36 36 36s36-16.117 36-36c0-16.774-11.473-30.869-27-34.865z"/><path d="M1073.446 73.804h-2.458v-.887h5.984v.887h-2.471V81h-1.056v-7.196zm6.229 7.196l-2.051-8.083h1.104l.96 4.09c.239 1.007.455 2.015.6 2.794h.023c.132-.804.384-1.763.66-2.807l1.079-4.078h1.092l.983 4.102c.228.959.443 1.919.563 2.771h.023c.168-.887.396-1.787.648-2.794l1.067-4.078h1.067L1085.204 81h-1.092l-1.02-4.209c-.251-1.032-.419-1.823-.527-2.639h-.023c-.133.803-.324 1.595-.624 2.639L1080.767 81h-1.092z"/><path fill="#FFEBAA" d="M963 235.135h72v18h-72z"/><path fill="none" stroke="#000" d="M963 235.135h72v18h-72z"/><path fill="#FFEBAA" d="M1107 234h72v18h-72z"/><path fill="none" stroke="#000" d="M1107 234h72v18h-72z"/><path fill="#FFEBAA" d="M1017 238.885h13.125v11.25H1017z"/><path fill="none" stroke="#000" d="M1017 238.885h13.125v11.25H1017z"/><path fill="#FFEBAA" d="M229.625 144h8.75v13.125h-8.75z"/><path fill="none" stroke="#000" d="M229.625 144h8.75v13.125h-8.75z"/><path fill="#AAD5EF" d="M675 63v19.293c5.375 3.114 9 8.915 9 15.573 0 9.941-8.059 18-18 18s-18-8.059-18-18c0-6.658 3.625-12.459 9-15.573V63c-15.527 3.997-27 18.091-27 34.866 0 19.882 16.117 36 36 36s36-16.118 36-36c0-16.775-11.473-30.869-27-34.866"/><path fill="none" stroke="#000" d="M675 63v19.293c5.375 3.114 9 8.915 9 15.573 0 9.941-8.059 18-18 18s-18-8.059-18-18c0-6.658 3.625-12.459 9-15.573V63c-15.527 3.997-27 18.091-27 34.866 0 19.882 16.117 36 36 36s36-16.118 36-36c0-16.775-11.473-30.869-27-34.866z"/><path d="M641.447 72.669h-2.459v-.887h5.985v.887h-2.471v7.196h-1.055v-7.196zm6.216 7.196l-2.051-8.083h1.104l.959 4.09c.24 1.007.456 2.015.6 2.794h.024c.132-.804.384-1.763.66-2.807l1.08-4.078h1.091l.983 4.102c.228.959.444 1.919.564 2.771h.024c.168-.887.396-1.787.647-2.794l1.067-4.078h1.067l-2.291 8.083H652.1l-1.02-4.209c-.252-1.032-.42-1.823-.528-2.639h-.024c-.132.803-.324 1.595-.624 2.639l-1.151 4.209h-1.09z"/><path fill="#FFEBAA" d="M657 36.567h18v70.866h-18z"/><path fill="none" stroke="#000" d="M657 36.567h18v70.866h-18z"/><path fill="#FFEBAA" d="M661.625 90.567h8.75v13.125h-8.75z"/><path fill="none" stroke="#000" d="M661.625 90.567h8.75v13.125h-8.75z"/><path fill="#AAD5EF" d="M531 64.134v19.293c5.375 3.114 9 8.915 9 15.573 0 9.941-8.059 18-18 18s-18-8.059-18-18c0-6.658 3.625-12.459 9-15.573V64.134C497.473 68.131 486 82.225 486 99c0 19.882 16.117 36 36 36s36-16.118 36-36c0-16.775-11.473-30.869-27-34.866"/><path fill="none" stroke="#000" d="M531 64.134v19.293c5.375 3.114 9 8.915 9 15.573 0 9.941-8.059 18-18 18s-18-8.059-18-18c0-6.658 3.625-12.459 9-15.573V64.134C497.473 68.131 486 82.225 486 99c0 19.882 16.117 36 36 36s36-16.118 36-36c0-16.775-11.473-30.869-27-34.866z"/><path d="M497.447 73.804h-2.459v-.887h5.985v.887h-2.471V81h-1.055v-7.196zM503.675 81l-2.051-8.083h1.104l.959 4.09c.24 1.007.456 2.015.6 2.794h.024c.132-.804.384-1.763.66-2.807l1.08-4.078h1.091l.983 4.102c.228.959.444 1.919.564 2.771h.024c.168-.887.396-1.787.647-2.794l1.067-4.078h1.067L509.204 81h-1.091l-1.02-4.209c-.252-1.032-.42-1.823-.528-2.639h-.024c-.132.803-.324 1.595-.624 2.639L504.766 81h-1.091z"/><path fill="#FFEBAA" d="M513 9.567h18v70.866h-18z"/><path fill="none" stroke="#000" d="M513 9.567h18v70.866h-18z"/><path fill="#FFEBAA" d="M517.625 63.567h8.75v13.125h-8.75z"/><path fill="none" stroke="#000" d="M517.625 63.567h8.75v13.125h-8.75z"/><path fill="#FFEBAA" d="M85.25 117.25H94v13.125h-8.75z"/><path fill="none" stroke="#000" d="M85.25 117.25H94v13.125h-8.75z"/><path fill="#FFEBAA" d="M229.625 328.875h8.75V342h-8.75z"/><path fill="none" stroke="#000" d="M229.625 328.875h8.75V342h-8.75z"/><path fill="#FFEBAA" d="M297 522.569h18v70.863h-18z"/><path fill="none" stroke="#000" d="M297 522.569h18v70.863h-18z"/><path fill="#FFEBAA" d="M301.625 549h8.75v13.125h-8.75z"/><path fill="none" stroke="#000" d="M301.625 549h8.75v13.125h-8.75z"/><path fill="#AAD5EF" d="M891 496.135v19.293c5.375 3.113 9 8.914 9 15.572 0 9.941-8.059 18-18 18s-18-8.059-18-18c0-6.658 3.625-12.459 9-15.572v-19.293c-15.527 3.996-27 18.091-27 34.865 0 19.883 16.117 36 36 36s36-16.117 36-36c0-16.774-11.473-30.869-27-34.865"/><path fill="none" stroke="#000" d="M891 496.135v19.293c5.375 3.113 9 8.914 9 15.572 0 9.941-8.059 18-18 18s-18-8.059-18-18c0-6.658 3.625-12.459 9-15.572v-19.293c-15.527 3.996-27 18.091-27 34.865 0 19.883 16.117 36 36 36s36-16.117 36-36c0-16.774-11.473-30.869-27-34.865z"/><path d="M857.446 505.804h-2.458v-.888h5.984v.888h-2.471V513h-1.056v-7.196zm6.216 7.196l-2.051-8.084h1.104l.96 4.09c.239 1.008.455 2.016.6 2.795h.023c.132-.804.384-1.763.66-2.807l1.079-4.078h1.092l.983 4.103c.228.959.443 1.919.563 2.771h.023c.168-.888.396-1.787.648-2.795l1.067-4.078h1.067L869.191 513H868.1l-1.02-4.21c-.251-1.031-.419-1.822-.527-2.639h-.023c-.133.804-.324 1.596-.624 2.639l-1.151 4.21h-1.093z"/><path fill="#FFEBAA" d="M873 522.569h18v70.863h-18z"/><path fill="none" stroke="#000" d="M873 522.569h18v70.863h-18z"/><path fill="#FFEBAA" d="M877.625 549h8.75v13.125h-8.75z"/><path fill="none" stroke="#000" d="M877.625 549h8.75v13.125h-8.75z"/><path fill="#AAD5EF" d="M531 351v19.293c5.375 3.113 9 8.914 9 15.572 0 9.941-8.059 18-18 18s-18-8.059-18-18c0-6.658 3.625-12.459 9-15.572V351c-15.527 3.996-27 18.091-27 34.865 0 19.883 16.117 36 36 36s36-16.117 36-36c0-16.774-11.473-30.869-27-34.865"/><path fill="none" stroke="#000" d="M531 351v19.293c5.375 3.113 9 8.914 9 15.572 0 9.941-8.059 18-18 18s-18-8.059-18-18c0-6.658 3.625-12.459 9-15.572V351c-15.527 3.996-27 18.091-27 34.865 0 19.883 16.117 36 36 36s36-16.117 36-36c0-16.774-11.473-30.869-27-34.865z"/><path d="M497.447 360.669h-2.459v-.888h5.985v.888h-2.471v7.196h-1.055v-7.196zm6.228 7.196l-2.051-8.084h1.104l.959 4.09c.24 1.008.456 2.016.6 2.795h.024c.132-.804.384-1.763.66-2.807l1.08-4.078h1.091l.983 4.103c.228.959.444 1.919.564 2.771h.024c.168-.888.396-1.787.647-2.795l1.067-4.078h1.067l-2.291 8.084h-1.091l-1.02-4.21c-.252-1.031-.42-1.822-.528-2.639h-.024c-.132.804-.324 1.596-.624 2.639l-1.151 4.21h-1.09z"/><path fill="#FFEBAA" d="M513 324h18v70.865h-18z"/><path fill="none" stroke="#000" d="M513 324h18v70.865h-18z"/><path fill="#FFEBAA" d="M369 324h18v70.865h-18z"/><path fill="none" stroke="#000" d="M369 324h18v70.865h-18z"/><path fill="#FFEBAA" d="M517.625 350.433h8.75v13.125h-8.75z"/><path fill="none" stroke="#000" d="M517.625 350.433h8.75v13.125h-8.75z"/><path fill="#AAD5EF" d="M1035 496.135v19.293c5.375 3.113 9 8.914 9 15.572 0 9.941-8.059 18-18 18s-18-8.059-18-18c0-6.658 3.625-12.459 9-15.572v-19.293c-15.527 3.996-27 18.091-27 34.865 0 19.883 16.117 36 36 36s36-16.117 36-36c0-16.774-11.473-30.869-27-34.865"/><path fill="none" stroke="#000" d="M1035 496.135v19.293c5.375 3.113 9 8.914 9 15.572 0 9.941-8.059 18-18 18s-18-8.059-18-18c0-6.658 3.625-12.459 9-15.572v-19.293c-15.527 3.996-27 18.091-27 34.865 0 19.883 16.117 36 36 36s36-16.117 36-36c0-16.774-11.473-30.869-27-34.865z"/><path d="M1001.446 505.804h-2.458v-.888h5.984v.888h-2.471V513h-1.056v-7.196zm6.216 7.196l-2.051-8.084h1.104l.96 4.09c.239 1.008.455 2.016.6 2.795h.023c.132-.804.384-1.763.66-2.807l1.079-4.078h1.092l.983 4.103c.228.959.443 1.919.563 2.771h.023c.168-.888.396-1.787.648-2.795l1.067-4.078h1.067l-2.291 8.084h-1.092l-1.02-4.21c-.251-1.031-.419-1.822-.527-2.639h-.023c-.133.804-.324 1.596-.624 2.639l-1.151 4.21h-1.09z"/><path fill="#FFEBAA" d="M1017 461.27h18v70.865h-18z"/><path fill="none" stroke="#000" d="M1017 461.27h18v70.865h-18z"/><path fill="#FFEBAA" d="M1021.625 487.702h8.75v13.125h-8.75z"/><path fill="none" stroke="#000" d="M1021.625 487.702h8.75v13.125h-8.75z"/><path fill="#FFEBAA" d="M153 162h18v70.865h-18z"/><path fill="none" stroke="#000" d="M153 162h18v70.865h-18z"/><path fill="#AAD5EF" d="M171 208.135v19.293c5.375 3.113 9 8.914 9 15.572 0 9.942-8.059 18-18 18s-18-8.058-18-18c0-6.658 3.625-12.459 9-15.572v-19.293c-15.527 3.996-27 18.091-27 34.865 0 19.883 16.117 36 36 36s36-16.117 36-36c0-16.774-11.473-30.869-27-34.865"/><path fill="none" stroke="#000" d="M171 208.135v19.293c5.375 3.113 9 8.914 9 15.572 0 9.942-8.059 18-18 18s-18-8.058-18-18c0-6.658 3.625-12.459 9-15.572v-19.293c-15.527 3.996-27 18.091-27 34.865 0 19.883 16.117 36 36 36s36-16.117 36-36c0-16.774-11.473-30.869-27-34.865z"/><path d="M137.447 217.804h-2.459v-.887h5.985v.887h-2.471V225h-1.055v-7.196zm6.216 7.196l-2.051-8.083h1.104l.959 4.09c.24 1.007.456 2.015.6 2.794h.024c.132-.804.384-1.763.66-2.807l1.08-4.078h1.091l.983 4.102c.228.959.444 1.919.564 2.771h.024c.168-.887.396-1.787.647-2.794l1.067-4.078h1.067l-2.29 8.083h-1.091l-1.02-4.209c-.252-1.032-.42-1.823-.528-2.639h-.024c-.132.803-.324 1.595-.624 2.639L144.754 225h-1.091z"/><path fill="#FFEBAA" d="M157.625 165.74h8.75v13.125h-8.75z"/><path fill="none" stroke="#000" d="M157.625 165.74h8.75v13.125h-8.75z"/><path fill="#AAD5EF" d="M675 352.135v19.293c5.375 3.113 9 8.914 9 15.572 0 9.941-8.059 18-18 18s-18-8.059-18-18c0-6.658 3.625-12.459 9-15.572v-19.293c-15.527 3.996-27 18.091-27 34.865 0 19.883 16.117 36 36 36s36-16.117 36-36c0-16.774-11.473-30.869-27-34.865"/><path fill="none" stroke="#000" d="M675 352.135v19.293c5.375 3.113 9 8.914 9 15.572 0 9.941-8.059 18-18 18s-18-8.059-18-18c0-6.658 3.625-12.459 9-15.572v-19.293c-15.527 3.996-27 18.091-27 34.865 0 19.883 16.117 36 36 36s36-16.117 36-36c0-16.774-11.473-30.869-27-34.865z"/><path d="M641.447 361.804h-2.459v-.888h5.985v.888h-2.471V369h-1.055v-7.196zm6.216 7.196l-2.051-8.084h1.104l.959 4.09c.24 1.008.456 2.016.6 2.795h.024c.132-.804.384-1.763.66-2.807l1.08-4.078h1.091l.983 4.103c.228.959.444 1.919.564 2.771h.024c.168-.888.396-1.787.647-2.795l1.067-4.078h1.067l-2.29 8.083h-1.091l-1.02-4.21c-.252-1.031-.42-1.822-.528-2.639h-.024c-.132.804-.324 1.596-.624 2.639l-1.151 4.21h-1.091z"/><path fill="#AAD5EF" d="M603 496.135v19.293c5.375 3.113 9 8.914 9 15.572 0 9.941-8.059 18-18 18s-18-8.059-18-18c0-6.658 3.625-12.459 9-15.572v-19.293c-15.527 3.996-27 18.091-27 34.865 0 19.883 16.117 36 36 36s36-16.117 36-36c0-16.774-11.473-30.869-27-34.865"/><path fill="none" stroke="#000" d="M603 496.135v19.293c5.375 3.113 9 8.914 9 15.572 0 9.941-8.059 18-18 18s-18-8.059-18-18c0-6.658 3.625-12.459 9-15.572v-19.293c-15.527 3.996-27 18.091-27 34.865 0 19.883 16.117 36 36 36s36-16.117 36-36c0-16.774-11.473-30.869-27-34.865z"/><path d="M569.447 505.804h-2.459v-.888h5.985v.888h-2.471V513h-1.055v-7.196zm6.216 7.196l-2.051-8.084h1.104l.959 4.09c.24 1.008.456 2.016.6 2.795h.024c.132-.804.384-1.763.66-2.807l1.08-4.078h1.091l.983 4.103c.228.959.444 1.919.564 2.771h.024c.168-.888.396-1.787.647-2.795l1.067-4.078h1.067l-2.29 8.083h-1.091l-1.02-4.21c-.252-1.031-.42-1.822-.528-2.639h-.024c-.132.804-.324 1.596-.624 2.639l-1.151 4.21h-1.091z"/><path fill="none" stroke="#BC1E47" d="M342 135l-27 55.875M414 135l27 53.375m0 109.375l-27 54.385M225 441l-27 54.385M315 297.75l27 54.385m-171-55.52L198 351m36 180h27m90 0h27m108-36l27-54"/><path fill="#FFEBAA" d="M657 378.569h18v70.863h-18z"/><path fill="none" stroke="#000" d="M657 378.569h18v70.863h-18z"/><path fill="#FFEBAA" d="M661.625 382.308h8.75v13.125h-8.75z"/><path fill="none" stroke="#000" d="M661.625 382.308h8.75v13.125h-8.75z"/><path fill="#FFEBAA" d="M585 540.569h18v70.863h-18z"/><path fill="none" stroke="#000" d="M585 540.569h18v70.863h-18z"/><path fill="#FFEBAA" d="M589.625 544.308h8.75v13.125h-8.75z"/><path fill="none" stroke="#000" d="M589.625 544.308h8.75v13.125h-8.75z"/><path fill="none" stroke="#BC1E47" d="M558 351l27-54m18 0l27 54m189 90l27 54m-216-72l-27 54m126-180l-27 54m243 90l-27 54m99-198l-27 54M702 207l-27-54m171 54l-27-54M621 99h-54"/><path fill="#AAD5EF" d="M819 64.134v19.293c5.375 3.114 9 8.915 9 15.573 0 9.941-8.059 18-18 18s-18-8.059-18-18c0-6.658 3.625-12.459 9-15.573V64.134C785.473 68.131 774 82.225 774 99c0 19.882 16.117 36 36 36s36-16.118 36-36c0-16.775-11.473-30.869-27-34.866"/><path fill="none" stroke="#000" d="M819 64.134v19.293c5.375 3.114 9 8.915 9 15.573 0 9.941-8.059 18-18 18s-18-8.059-18-18c0-6.658 3.625-12.459 9-15.573V64.134C785.473 68.131 774 82.225 774 99c0 19.882 16.117 36 36 36s36-16.118 36-36c0-16.775-11.473-30.869-27-34.866z"/><path d="M785.446 73.804h-2.458v-.887h5.984v.887h-2.471V81h-1.056v-7.196zM791.662 81l-2.051-8.083h1.104l.96 4.09c.239 1.007.455 2.015.6 2.794h.023c.132-.804.384-1.763.66-2.807l1.079-4.078h1.092l.983 4.102c.228.959.443 1.919.563 2.771h.023c.168-.887.396-1.787.648-2.794l1.067-4.078h1.067L797.191 81H796.1l-1.02-4.209c-.251-1.032-.419-1.823-.527-2.639h-.023c-.133.803-.324 1.595-.624 2.639L792.754 81h-1.092z"/><path fill="#FFEBAA" d="M801 64.134h18V135h-18z"/><path fill="none" stroke="#000" d="M801 64.134h18V135h-18z"/><path fill="#FFEBAA" d="M805.625 118.134h8.75v13.125h-8.75z"/><path fill="none" stroke="#000" d="M805.625 118.134h8.75v13.125h-8.75z"/><path fill="#AAD5EF" d="M891 207.567v19.293c5.375 3.114 9 8.915 9 15.573 0 9.941-8.059 18-18 18s-18-8.059-18-18c0-6.658 3.625-12.459 9-15.573v-19.293c-15.527 3.997-27 18.091-27 34.866 0 19.882 16.117 36 36 36s36-16.118 36-36c0-16.775-11.473-30.869-27-34.866"/><path fill="none" stroke="#000" d="M891 207.567v19.293c5.375 3.114 9 8.915 9 15.573 0 9.941-8.059 18-18 18s-18-8.059-18-18c0-6.658 3.625-12.459 9-15.573v-19.293c-15.527 3.997-27 18.091-27 34.866 0 19.882 16.117 36 36 36s36-16.118 36-36c0-16.775-11.473-30.869-27-34.866z"/><path d="M857.446 217.236h-2.458v-.887h5.984v.887h-2.471v7.196h-1.056v-7.196zm6.216 7.197l-2.051-8.083h1.104l.96 4.09c.239 1.007.455 2.015.6 2.794h.023c.132-.804.384-1.763.66-2.807l1.079-4.078h1.092l.983 4.102c.228.959.443 1.919.563 2.771h.023c.168-.887.396-1.787.648-2.794l1.067-4.078h1.067l-2.291 8.083H868.1l-1.02-4.209c-.251-1.032-.419-1.823-.527-2.639h-.023c-.133.803-.324 1.595-.624 2.639l-1.151 4.209h-1.093z"/><path fill="#FFEBAA" d="M873 235.135h18V306h-18z"/><path fill="none" stroke="#000" d="M873 235.135h18V306h-18z"/><path fill="#FFEBAA" d="M877.625 289.135h8.75v13.125h-8.75z"/><path fill="none" stroke="#000" d="M877.625 289.135h8.75v13.125h-8.75z"/><path fill="none" stroke="#BC1E47" d="M765 100.134h-54M846 351l18-36m-27 216h-27"/><path fill="#231F20" d="M369 349.865h18v18h-18z"/><path fill="#FFEBAA" d="M369 91.135h18V162h-18z"/><path fill="none" stroke="#000" d="M369 91.135h18V162h-18z"/><path fill="#231F20" d="M369 117h18v18h-18z"/><path fill="none" stroke="#000" d="M369 117h18v18h-18zm0 232.865h18v18h-18z"/><path fill="#FFEBAA" d="M1089 91.135h18V162h-18z"/><path fill="none" stroke="#000" d="M1089 91.135h18V162h-18z"/><path fill="#231F20" d="M1089 117h18v18h-18z"/><path fill="none" stroke="#000" d="M1089 117h18v18h-18z"/><path fill="#231F20" d="M1134 234h18v18h-18z"/><path fill="none" stroke="#000" d="M1134 234h18v18h-18z"/><path fill="#AAD5EF" d="M1251 64.135v19.293c5.375 3.113 9 8.914 9 15.572 0 9.942-8.059 18-18 18s-18-8.058-18-18c0-6.658 3.625-12.459 9-15.572V64.135c-15.527 3.996-27 18.091-27 34.865 0 19.883 16.117 36 36 36s36-16.117 36-36c0-16.774-11.473-30.869-27-34.865"/><path fill="none" stroke="#000" d="M1251 64.135v19.293c5.375 3.113 9 8.914 9 15.572 0 9.942-8.059 18-18 18s-18-8.058-18-18c0-6.658 3.625-12.459 9-15.572V64.135c-15.527 3.996-27 18.091-27 34.865 0 19.883 16.117 36 36 36s36-16.117 36-36c0-16.774-11.473-30.869-27-34.865z"/><path d="M1217.446 73.804h-2.458v-.887h5.984v.887h-2.471V81h-1.056v-7.196zm6.229 7.196l-2.051-8.083h1.104l.96 4.09c.239 1.007.455 2.015.6 2.794h.023c.132-.804.384-1.763.66-2.807l1.079-4.078h1.092l.983 4.102c.228.959.443 1.919.563 2.771h.023c.168-.887.396-1.787.648-2.794l1.067-4.078h1.067L1229.204 81h-1.092l-1.02-4.209c-.251-1.032-.419-1.823-.527-2.639h-.023c-.133.803-.324 1.595-.624 2.639L1224.767 81h-1.092z"/><path fill="#FFEBAA" d="M1233 90h72v18h-72z"/><path fill="none" stroke="#000" d="M1233 90h72v18h-72z"/><path fill="#231F20" d="M1260 90h18v18h-18z"/><path fill="none" stroke="#000" d="M1260 90h18v18h-18z"/><path fill="none" stroke="#BC1E47" d="M1134 351l27-54"/><path fill="#FFEBAA" d="M1161 469.135h18V540h-18z"/><path fill="none" stroke="#000" d="M1161 469.135h18V540h-18z"/><path fill="#AAD5EF" d="M1179 496.135v19.293c5.375 3.113 9 8.914 9 15.572 0 9.941-8.059 18-18 18s-18-8.059-18-18c0-6.658 3.625-12.459 9-15.572v-19.293c-15.527 3.996-27 18.091-27 34.865 0 19.883 16.117 36 36 36s36-16.117 36-36c0-16.774-11.473-30.869-27-34.865"/><path fill="none" stroke="#000" d="M1179 496.135v19.293c5.375 3.113 9 8.914 9 15.572 0 9.941-8.059 18-18 18s-18-8.059-18-18c0-6.658 3.625-12.459 9-15.572v-19.293c-15.527 3.996-27 18.091-27 34.865 0 19.883 16.117 36 36 36s36-16.117 36-36c0-16.774-11.473-30.869-27-34.865z"/><path d="M1145.446 505.804h-2.458v-.888h5.984v.888h-2.471V513h-1.056v-7.196zm6.229 7.196l-2.051-8.084h1.104l.96 4.09c.239 1.008.455 2.016.6 2.795h.023c.132-.804.384-1.763.66-2.807l1.079-4.078h1.092l.983 4.103c.228.959.443 1.919.563 2.771h.023c.168-.888.396-1.787.648-2.795l1.067-4.078h1.067l-2.291 8.084h-1.092l-1.02-4.21c-.251-1.031-.419-1.822-.527-2.639h-.023c-.133.804-.324 1.596-.624 2.639l-1.151 4.21h-1.09z"/><path fill="#FFEBAA" d="M1165.625 472.875h8.75V486h-8.75z"/><path fill="none" stroke="#000" d="M1165.625 472.875h8.75V486h-8.75z"/><path fill="#FFEBAA" d="M1305 451.135h18V522h-18z"/><path fill="none" stroke="#000" d="M1305 451.135h18V522h-18z"/><path fill="#AAD5EF" d="M1323 496.135v19.293c5.375 3.113 9 8.914 9 15.572 0 9.941-8.059 18-18 18s-18-8.059-18-18c0-6.658 3.625-12.459 9-15.572v-19.293c-15.527 3.996-27 18.091-27 34.865 0 19.883 16.117 36 36 36s36-16.117 36-36c0-16.774-11.473-30.869-27-34.865"/><path fill="none" stroke="#000" d="M1323 496.135v19.293c5.375 3.113 9 8.914 9 15.572 0 9.941-8.059 18-18 18s-18-8.059-18-18c0-6.658 3.625-12.459 9-15.572v-19.293c-15.527 3.996-27 18.091-27 34.865 0 19.883 16.117 36 36 36s36-16.117 36-36c0-16.774-11.473-30.869-27-34.865z"/><path d="M1289.446 505.804h-2.458v-.888h5.984v.888h-2.471V513h-1.056v-7.196zm6.229 7.196l-2.051-8.084h1.104l.96 4.09c.239 1.008.455 2.016.6 2.795h.023c.132-.804.384-1.763.66-2.807l1.079-4.078h1.092l.983 4.103c.228.959.443 1.919.563 2.771h.023c.168-.888.396-1.787.648-2.795l1.067-4.078h1.067l-2.291 8.084h-1.092l-1.02-4.21c-.251-1.031-.419-1.822-.527-2.639h-.023c-.133.804-.324 1.596-.624 2.639l-1.151 4.21h-1.09z"/><path fill="#FFEBAA" d="M1309.625 454.875h8.75V468h-8.75z"/><path fill="none" stroke="#000" d="M1309.625 454.875h8.75V468h-8.75z"/><path fill="none" stroke="#BC1E47" d="M1071 531h54m90 0h54M1143 99h54"/><path fill="#AAD5EF" d="M1323 207.567v19.293c5.375 3.114 9 8.915 9 15.573 0 9.941-8.059 18-18 18s-18-8.059-18-18c0-6.658 3.625-12.459 9-15.573v-19.293c-15.527 3.997-27 18.091-27 34.866 0 19.883 16.117 36 36 36s36-16.117 36-36c0-16.775-11.473-30.869-27-34.866"/><path fill="none" stroke="#000" d="M1323 207.567v19.293c5.375 3.114 9 8.915 9 15.573 0 9.941-8.059 18-18 18s-18-8.059-18-18c0-6.658 3.625-12.459 9-15.573v-19.293c-15.527 3.997-27 18.091-27 34.866 0 19.883 16.117 36 36 36s36-16.117 36-36c0-16.775-11.473-30.869-27-34.866z"/><path d="M1289.446 217.236h-2.458v-.887h5.984v.887h-2.471v7.196h-1.056v-7.196zm6.229 7.197l-2.051-8.083h1.104l.96 4.09c.239 1.007.455 2.015.6 2.794h.023c.132-.804.384-1.763.66-2.807l1.079-4.078h1.092l.983 4.102c.228.959.443 1.919.563 2.771h.023c.168-.887.396-1.787.648-2.794l1.067-4.078h1.067l-2.291 8.083h-1.092l-1.02-4.209c-.251-1.032-.419-1.823-.527-2.639h-.023c-.133.803-.324 1.595-.624 2.639l-1.151 4.209h-1.09z"/><path fill="#FFEBAA" d="M1305 180h18v70.866h-18z"/><path fill="none" stroke="#000" d="M1305 180h18v70.866h-18z"/><path d="M1306.955 188.782v8.083h-1.056v-8.083h1.056zm1.692 6.812c.468.3 1.14.528 1.859.528 1.067 0 1.691-.563 1.691-1.379 0-.743-.433-1.187-1.523-1.595-1.319-.48-2.135-1.176-2.135-2.303 0-1.259 1.043-2.195 2.614-2.195.815 0 1.428.192 1.775.396l-.288.852c-.252-.156-.792-.384-1.523-.384-1.104 0-1.522.66-1.522 1.211 0 .755.491 1.127 1.606 1.559 1.367.528 2.051 1.188 2.051 2.375 0 1.248-.911 2.339-2.818 2.339-.779 0-1.631-.24-2.062-.528l.275-.876zm7.583-5.925h-2.458v-.887h5.984v.887h-2.471v7.196h-1.056v-7.196z"/><path fill="#FFEBAA" d="M1309.25 233.116h8.75v13.125h-8.75z"/><path fill="none" stroke="#000" d="M1309.25 233.116h8.75v13.125h-8.75z"/><path fill="none" stroke="#BC1E47" d="M1251 153l27 54m36 90v47.965"/><path fill="#BC1E47" d="M1314 351c-1.054-2.84-2.852-6.363-4.756-8.547l4.756 1.72 4.755-1.72c-1.904 2.184-3.702 5.707-4.755 8.547M1279.216 375.947c.485.307 1.44.648 2.232.648.973 0 1.404-.414 1.404-.99 0-.595-.36-.883-1.44-1.278-1.711-.576-2.413-1.513-2.413-2.557 0-1.549 1.278-2.737 3.313-2.737.973 0 1.818.234 2.341.522l-.45 1.548a3.873 3.873 0 0 0-1.854-.504c-.792 0-1.225.396-1.225.937 0 .558.414.811 1.53 1.225 1.603.558 2.323 1.368 2.341 2.664 0 1.603-1.242 2.755-3.565 2.755-1.062 0-2.016-.252-2.664-.611l.45-1.622zm9.162-1.71c.054 1.584 1.278 2.269 2.701 2.269a7.072 7.072 0 0 0 2.431-.396l.324 1.513c-.757.324-1.801.558-3.062.558-2.845 0-4.52-1.746-4.52-4.429 0-2.431 1.477-4.718 4.285-4.718 2.846 0 3.781 2.341 3.781 4.268a5.6 5.6 0 0 1-.071.937h-5.869zm3.853-1.549c.018-.811-.343-2.143-1.819-2.143-1.368 0-1.944 1.242-2.034 2.143h3.853zm3.869-.54c0-1.152-.036-2.089-.072-2.917h1.944l.108 1.351h.036c.648-.99 1.675-1.549 3.007-1.549 2.017 0 3.691 1.729 3.691 4.466 0 3.169-1.999 4.699-3.998 4.699-1.098 0-2.016-.469-2.466-1.171h-.036v4.538h-2.215v-9.417zm2.214 2.179c0 .216.018.414.054.612.234.9 1.009 1.548 1.963 1.548 1.404 0 2.232-1.17 2.232-2.898 0-1.549-.756-2.809-2.179-2.809-.918 0-1.765.666-1.999 1.638a3.066 3.066 0 0 0-.071.559v1.35zm15.121 1.567c0 .792.036 1.566.145 2.106h-1.999l-.162-.973h-.054c-.522.685-1.44 1.171-2.593 1.171-1.765 0-2.755-1.278-2.755-2.611 0-2.196 1.963-3.331 5.203-3.312v-.145c0-.576-.233-1.53-1.782-1.53-.864 0-1.765.271-2.358.648l-.433-1.44c.648-.396 1.783-.774 3.169-.774 2.81 0 3.619 1.782 3.619 3.709v3.151zm-2.161-2.179c-1.566-.019-3.062.306-3.062 1.639 0 .864.559 1.26 1.261 1.26.9 0 1.53-.576 1.746-1.206.055-.162.055-.324.055-.486v-1.207zM1315.774 372.059c0-1.188-.019-2.053-.072-2.827h1.909l.09 1.656h.054c.433-1.225 1.458-1.854 2.413-1.854.216 0 .342.019.521.054v2.071a3.54 3.54 0 0 0-.666-.055c-1.044 0-1.782.667-1.98 1.675a3.847 3.847 0 0 0-.054.666V378h-2.215v-5.941zM1328.844 375.894c0 .792.036 1.566.145 2.106h-1.999l-.162-.973h-.054c-.522.685-1.44 1.171-2.593 1.171-1.765 0-2.755-1.278-2.755-2.611 0-2.196 1.963-3.331 5.203-3.312v-.145c0-.576-.233-1.53-1.782-1.53-.864 0-1.765.271-2.358.648l-.433-1.44c.648-.396 1.783-.774 3.169-.774 2.81 0 3.619 1.782 3.619 3.709v3.151zm-2.16-2.179c-1.566-.019-3.062.306-3.062 1.639 0 .864.559 1.26 1.261 1.26.9 0 1.53-.576 1.746-1.206.055-.162.055-.324.055-.486v-1.207zm6.929-6.735v2.251h2.106v1.656h-2.106v3.871c0 1.081.288 1.621 1.134 1.621.396 0 .612-.019.864-.091l.036 1.675c-.324.126-.918.234-1.603.234-.828 0-1.494-.271-1.908-.721-.486-.504-.702-1.314-.702-2.467v-4.123h-1.243v-1.656h1.243v-1.639l2.179-.611zM1338.85 374.237c.054 1.584 1.278 2.269 2.701 2.269a7.076 7.076 0 0 0 2.431-.396l.323 1.513c-.756.324-1.8.558-3.061.558-2.845 0-4.52-1.746-4.52-4.429 0-2.431 1.477-4.718 4.285-4.718 2.846 0 3.781 2.341 3.781 4.268a5.6 5.6 0 0 1-.071.937h-5.869zm3.853-1.549c.018-.811-.343-2.143-1.819-2.143-1.368 0-1.944 1.242-2.034 2.143h3.853zm3.562 4.106c0-.828.559-1.404 1.369-1.404.828 0 1.351.576 1.368 1.404 0 .792-.54 1.404-1.387 1.404-.792 0-1.35-.612-1.35-1.404zm.541-2.539l-.343-8.391h2.341l-.324 8.391h-1.674zM10.053 240.947c.486.306 1.44.648 2.233.648.972 0 1.404-.414 1.404-.99 0-.594-.36-.882-1.44-1.278-1.71-.576-2.413-1.513-2.413-2.557 0-1.548 1.278-2.737 3.313-2.737.972 0 1.818.234 2.341.522l-.45 1.548a3.877 3.877 0 0 0-1.854-.504c-.792 0-1.225.396-1.225.937 0 .558.414.81 1.53 1.224 1.603.558 2.323 1.369 2.341 2.665 0 1.603-1.242 2.755-3.565 2.755-1.062 0-2.017-.252-2.665-.612l.45-1.621zm10.135-8.967v2.251h2.107v1.656h-2.107v3.871c0 1.081.288 1.621 1.134 1.621.396 0 .612-.018.864-.09l.036 1.674c-.324.126-.918.234-1.603.234-.828 0-1.494-.271-1.909-.72-.486-.504-.702-1.314-.702-2.467v-4.124h-1.242v-1.656h1.242v-1.639l2.18-.611zm10.585 8.914c0 .792.036 1.566.144 2.106h-1.999l-.162-.972h-.054c-.522.684-1.44 1.17-2.593 1.17-1.765 0-2.755-1.278-2.755-2.611 0-2.197 1.962-3.331 5.204-3.313v-.144c0-.576-.234-1.531-1.783-1.531-.864 0-1.764.271-2.358.648l-.432-1.44c.648-.396 1.782-.774 3.169-.774 2.809 0 3.619 1.783 3.619 3.709v3.152zm-2.161-2.179c-1.566-.018-3.061.306-3.061 1.638 0 .864.558 1.261 1.26 1.261.9 0 1.53-.576 1.747-1.207.054-.162.054-.324.054-.486v-1.206zM33.112 237.058c0-1.188-.018-2.052-.072-2.827h1.909l.09 1.656h.054c.432-1.224 1.458-1.854 2.413-1.854.216 0 .342.018.522.054v2.071a3.56 3.56 0 0 0-.667-.054c-1.044 0-1.782.666-1.98 1.674a3.842 3.842 0 0 0-.054.667V243h-2.214v-5.942zm9.36-5.078v2.251h2.107v1.656h-2.107v3.871c0 1.081.288 1.621 1.134 1.621.396 0 .612-.018.864-.09l.036 1.674c-.324.126-.918.234-1.603.234-.828 0-1.494-.271-1.909-.72-.486-.504-.702-1.314-.702-2.467v-4.124H39.05v-1.656h1.242v-1.639l2.18-.611z"/><path fill="none" stroke="#BC1E47" d="M36 225l33.549-75.485"/><path fill="#BC1E47" d="M72 144c-.19 3.023.021 6.973.875 9.742l-3.648-3.503-5.043-.36c2.627-1.222 5.701-3.712 7.816-5.879"/><path fill="#FFEBAA" d="M243 234h72v18h-72z"/><path fill="none" stroke="#000" d="M243 234h72v18h-72z"/><path fill="#231F20" d="M270 234h18v18h-18z"/><path fill="none" stroke="#000" d="M270 234h18v18h-18z"/><path fill="none" stroke="#BC1E47" d="M1071 243h27m-36-36l18-36m36 0l18 36m-108 180h-27m-36 54l27 54m72 0l27-54"/></svg>