<svg xmlns="http://www.w3.org/2000/svg" width="594" height="567" viewBox="-112 -62.5 594 567"><path fill="#FFEBAA" stroke="#000" d="M256.999 459.492a44.804 44.804 0 0 0-9-26.998c-14.91-19.883-43.116-23.914-62.999-9.004v72.006c0-24.853 20.147-45 45-45a44.81 44.81 0 0 1 26.999 8.996z"/><path fill="#0081CD" stroke="#000" d="M185.002 423.488a44.797 44.797 0 0 1 9-26.997c14.91-19.883 43.116-23.916 62.999-9.006v72.007c0-24.853-20.147-45-45-45a44.81 44.81 0 0 0-26.999 8.996z"/><path fill="#FFEBAA" stroke="#000" d="M257 387.489a44.802 44.802 0 0 0-9-26.998c-14.91-19.883-43.116-23.915-62.999-9.005v72.007c0-24.854 20.147-45 45-45A44.806 44.806 0 0 1 257 387.489z"/><path fill="#AAD5EF" stroke="#000" d="M113.001 459.492a44.8 44.8 0 0 1 9-26.998c14.91-19.883 43.116-23.915 62.999-9.005v72.007c0-24.853-20.147-45-45-45a44.813 44.813 0 0 0-26.999 8.996z"/><path fill="#FEC200" stroke="#000" d="M184.999 423.492a44.8 44.8 0 0 0-9-26.997c-14.91-19.883-43.116-23.916-62.999-9.006v72.007c0-24.853 20.147-45 45-45a44.81 44.81 0 0 1 26.999 8.996z"/><path fill="#AAD5EF" stroke="#000" d="M113.002 387.489a44.796 44.796 0 0 1 9-26.998c14.91-19.883 43.116-23.916 62.999-9.006v72.007c0-24.853-20.147-44.999-45-44.999a44.804 44.804 0 0 0-26.999 8.996z"/><path fill="#FEC200" stroke="#000" d="M185 351.489a44.802 44.802 0 0 0-9-26.998c-14.91-19.883-43.116-23.915-62.999-9.005v72.007c0-24.854 20.147-45 45-45A44.806 44.806 0 0 1 185 351.489z"/><path fill="#0081CD" stroke="#000" d="M185.001 351.492a44.8 44.8 0 0 1 9-26.998c14.91-19.883 43.116-23.915 62.999-9.005v72.007c0-24.853-20.147-45-45-45a44.813 44.813 0 0 0-26.999 8.996z"/><path fill="#FFEBAA" stroke="#000" d="M256.999 315.492a44.804 44.804 0 0 0-9-26.998c-14.91-19.883-43.116-23.914-62.999-9.004v72.006c0-24.853 20.147-45 45-45a44.81 44.81 0 0 1 26.999 8.996z"/><path fill="#0081CD" stroke="#000" d="M185.002 279.488a44.797 44.797 0 0 1 9-26.997c14.91-19.883 43.116-23.916 62.999-9.006v72.007c0-24.853-20.147-45-45-45a44.81 44.81 0 0 0-26.999 8.996z"/><path fill="#FFEBAA" stroke="#000" d="M257 243.489a44.8 44.8 0 0 0-9-26.998c-14.91-19.883-43.116-23.915-62.999-9.005v72.007c0-24.853 20.147-45 45-45A44.813 44.813 0 0 1 257 243.489z"/><path fill="#AAD5EF" stroke="#000" d="M113.001 315.492a44.8 44.8 0 0 1 9-26.998c14.91-19.883 43.116-23.915 62.999-9.005v72.007c0-24.853-20.147-45-45-45a44.813 44.813 0 0 0-26.999 8.996z"/><path fill="#FEC200" stroke="#000" d="M184.999 279.492a44.8 44.8 0 0 0-9-26.997c-14.91-19.883-43.116-23.916-62.999-9.006v72.007c0-24.853 20.147-45 45-45a44.81 44.81 0 0 1 26.999 8.996z"/><path fill="#AAD5EF" stroke="#000" d="M113.002 243.489a44.798 44.798 0 0 1 9-26.998c14.91-19.883 43.116-23.916 62.999-9.006v72.007c0-24.854-20.147-44.999-45-44.999a44.81 44.81 0 0 0-26.999 8.996z"/><path fill="#FEC200" stroke="#000" d="M185 207.489a44.8 44.8 0 0 0-9-26.998c-14.91-19.883-43.116-23.915-62.999-9.005v72.007c0-24.853 20.147-45 45-45A44.813 44.813 0 0 1 185 207.489z"/><path fill="#0081CD" stroke="#000" d="M185.001 207.485a44.8 44.8 0 0 1 9-26.998c14.91-19.883 43.116-23.915 62.999-9.005v72.007c0-24.853-20.147-45-45-45a44.813 44.813 0 0 0-26.999 8.996z"/><path fill="#FFEBAA" stroke="#000" d="M256.999 171.486a44.796 44.796 0 0 0-9-26.998c-14.91-19.883-43.116-23.916-62.999-9.006v72.008c0-24.854 20.147-45 45-45a44.804 44.804 0 0 1 26.999 8.996z"/><path fill="#0081CD" stroke="#000" d="M185.002 135.482a44.796 44.796 0 0 1 9-26.998c14.91-19.883 43.116-23.916 62.999-9.006v72.008c0-24.854-20.147-45-45-45a44.804 44.804 0 0 0-26.999 8.996z"/><path fill="#FFEBAA" stroke="#000" d="M257 99.482a44.8 44.8 0 0 0-9-26.998c-14.91-19.883-43.116-23.915-62.999-9.005v72.007c0-24.854 20.147-45 45-45A44.806 44.806 0 0 1 257 99.482z"/><path fill="#AAD5EF" stroke="#000" d="M113.001 171.485a44.798 44.798 0 0 1 9-26.998c14.91-19.883 43.116-23.915 62.999-9.005v72.007c0-24.853-20.147-45-45-45a44.806 44.806 0 0 0-26.999 8.996z"/><path fill="#FEC200" stroke="#000" d="M184.999 135.486a44.796 44.796 0 0 0-9-26.998c-14.91-19.883-43.116-23.916-62.999-9.006v72.008c0-24.854 20.147-45 45-45a44.804 44.804 0 0 1 26.999 8.996z"/><path fill="#AAD5EF" stroke="#000" d="M113.002 99.482a44.796 44.796 0 0 1 9-26.998c14.91-19.883 43.116-23.916 62.999-9.006v72.008c0-24.854-20.147-45-45-45a44.804 44.804 0 0 0-26.999 8.996z"/><path fill="#FEC200" stroke="#000" d="M185 63.482a44.8 44.8 0 0 0-9-26.998c-14.91-19.883-43.116-23.915-62.999-9.005v72.007c0-24.854 20.147-45 45-45A44.806 44.806 0 0 1 185 63.482z"/><path fill="#0081CD" stroke="#000" d="M185.001 63.479a44.8 44.8 0 0 1 9-26.998c14.91-19.883 43.116-23.915 62.999-9.005v72.007c0-24.854-20.147-45-45-45a44.793 44.793 0 0 0-26.999 8.996z"/><path fill="#FFEBAA" stroke="#000" d="M256.999 27.479a44.802 44.802 0 0 0-9-26.998C233.089-19.402 204.883-23.434 185-8.523v72.006c0-24.853 20.147-45 45-45a44.79 44.79 0 0 1 26.999 8.996z"/><path fill="#0081CD" stroke="#000" d="M185.002-8.525a44.797 44.797 0 0 1 9-26.997c14.91-19.884 43.116-23.916 62.999-9.007v72.008c0-24.853-20.147-45-45-45a44.797 44.797 0 0 0-26.999 8.996z"/><path fill="#AAD5EF" stroke="#000" d="M113.001 27.479a44.8 44.8 0 0 1 9-26.998c14.91-19.883 43.116-23.915 62.999-9.005v72.007c0-24.854-20.147-45-45-45a44.793 44.793 0 0 0-26.999 8.996z"/><path fill="#FEC200" stroke="#000" d="M184.999-8.521a44.797 44.797 0 0 0-9-26.997c-14.91-19.883-43.116-23.916-62.999-9.006v72.007c0-24.853 20.147-45 45-45a44.79 44.79 0 0 1 26.999 8.996z"/><path fill="#FFEBAA" stroke="#000" d="M112.999 459.492a44.804 44.804 0 0 0-9-26.998C89.089 412.611 60.883 408.58 41 423.49v72.006c0-24.853 20.147-45 45-45a44.81 44.81 0 0 1 26.999 8.996z"/><path fill="#0081CD" stroke="#000" d="M41.002 423.488a44.797 44.797 0 0 1 9-26.997c14.91-19.883 43.116-23.916 62.999-9.006v72.007c0-24.853-20.146-45-45-45a44.81 44.81 0 0 0-26.999 8.996z"/><path fill="#FFEBAA" stroke="#000" d="M113 387.489a44.802 44.802 0 0 0-9-26.998c-14.91-19.883-43.116-23.915-62.999-9.005v72.007c0-24.854 20.146-45 45-45A44.806 44.806 0 0 1 113 387.489z"/><path fill="#AAD5EF" stroke="#000" d="M-30.999 459.492a44.8 44.8 0 0 1 9-26.998c14.91-19.883 43.116-23.915 62.999-9.005v72.007c0-24.853-20.147-45-45-45a44.813 44.813 0 0 0-26.999 8.996z"/><path fill="#FEC200" stroke="#000" d="M40.999 423.492a44.8 44.8 0 0 0-9-26.997c-14.91-19.883-43.116-23.916-62.999-9.006v72.007c0-24.853 20.147-45 45-45a44.81 44.81 0 0 1 26.999 8.996z"/><path fill="#AAD5EF" stroke="#000" d="M-30.998 387.489a44.796 44.796 0 0 1 9-26.998c14.91-19.883 43.116-23.916 62.999-9.006v72.007c0-24.853-20.147-44.999-45-44.999a44.804 44.804 0 0 0-26.999 8.996z"/><path fill="#FEC200" stroke="#000" d="M41 351.489a44.802 44.802 0 0 0-9-26.998c-14.91-19.883-43.116-23.915-62.999-9.005v72.007c0-24.854 20.147-45 45-45A44.804 44.804 0 0 1 41 351.489z"/><path fill="#0081CD" stroke="#000" d="M41.001 351.492a44.8 44.8 0 0 1 9-26.998c14.91-19.883 43.116-23.915 62.999-9.005v72.007c0-24.853-20.147-45-45-45a44.813 44.813 0 0 0-26.999 8.996z"/><path fill="#FFEBAA" stroke="#000" d="M112.999 315.492a44.804 44.804 0 0 0-9-26.998C89.089 268.611 60.883 264.58 41 279.49v72.006c0-24.853 20.147-45 45-45a44.81 44.81 0 0 1 26.999 8.996z"/><path fill="#0081CD" stroke="#000" d="M41.002 279.488a44.797 44.797 0 0 1 9-26.997c14.91-19.883 43.116-23.916 62.999-9.006v72.007c0-24.853-20.146-45-45-45a44.81 44.81 0 0 0-26.999 8.996z"/><path fill="#FFEBAA" stroke="#000" d="M113 243.489a44.8 44.8 0 0 0-9-26.998c-14.91-19.883-43.116-23.915-62.999-9.005v72.007c0-24.853 20.146-45 45-45A44.813 44.813 0 0 1 113 243.489z"/><path fill="#AAD5EF" stroke="#000" d="M-30.999 315.492a44.8 44.8 0 0 1 9-26.998c14.91-19.883 43.116-23.915 62.999-9.005v72.007c0-24.853-20.147-45-45-45a44.813 44.813 0 0 0-26.999 8.996z"/><path fill="#FEC200" stroke="#000" d="M40.999 279.492a44.8 44.8 0 0 0-9-26.997c-14.91-19.883-43.116-23.916-62.999-9.006v72.007c0-24.853 20.147-45 45-45a44.81 44.81 0 0 1 26.999 8.996z"/><path fill="#AAD5EF" stroke="#000" d="M-30.998 243.489a44.798 44.798 0 0 1 9-26.998c14.91-19.883 43.116-23.916 62.999-9.006v72.007c0-24.854-20.147-44.999-45-44.999a44.81 44.81 0 0 0-26.999 8.996z"/><path fill="#FEC200" stroke="#000" d="M41 207.489a44.8 44.8 0 0 0-9-26.998c-14.91-19.883-43.116-23.915-62.999-9.005v72.007c0-24.853 20.147-45 45-45A44.81 44.81 0 0 1 41 207.489z"/><path fill="#0081CD" stroke="#000" d="M41.001 207.485a44.8 44.8 0 0 1 9-26.998c14.91-19.883 43.116-23.915 62.999-9.005v72.007c0-24.853-20.147-45-45-45a44.813 44.813 0 0 0-26.999 8.996z"/><path fill="#FFEBAA" stroke="#000" d="M112.999 171.486a44.796 44.796 0 0 0-9-26.998c-14.91-19.883-43.116-23.916-62.999-9.006v72.008c0-24.854 20.147-45 45-45a44.804 44.804 0 0 1 26.999 8.996z"/><path fill="#0081CD" stroke="#000" d="M41.002 135.482a44.796 44.796 0 0 1 9-26.998c14.91-19.883 43.116-23.916 62.999-9.006v72.008c0-24.854-20.146-45-45-45a44.804 44.804 0 0 0-26.999 8.996z"/><path fill="#FFEBAA" stroke="#000" d="M113 99.482a44.8 44.8 0 0 0-9-26.998c-14.91-19.883-43.116-23.915-62.999-9.005v72.007c0-24.854 20.146-45 45-45A44.806 44.806 0 0 1 113 99.482z"/><path fill="#AAD5EF" stroke="#000" d="M-30.999 171.485a44.798 44.798 0 0 1 9-26.998c14.91-19.883 43.116-23.915 62.999-9.005v72.007c0-24.853-20.147-45-45-45a44.806 44.806 0 0 0-26.999 8.996z"/><path fill="#FEC200" stroke="#000" d="M40.999 135.486a44.796 44.796 0 0 0-9-26.998C17.089 88.605-11.117 84.572-31 99.482v72.008c0-24.854 20.147-45 45-45a44.804 44.804 0 0 1 26.999 8.996z"/><path fill="#AAD5EF" stroke="#000" d="M-30.998 99.482a44.796 44.796 0 0 1 9-26.998c14.91-19.883 43.116-23.916 62.999-9.006v72.008c0-24.854-20.147-45-45-45a44.804 44.804 0 0 0-26.999 8.996z"/><path fill="#FEC200" stroke="#000" d="M41 63.482a44.8 44.8 0 0 0-9-26.998c-14.91-19.883-43.116-23.915-62.999-9.005v72.007c0-24.854 20.147-45 45-45A44.804 44.804 0 0 1 41 63.482z"/><path fill="#0081CD" stroke="#000" d="M41.001 63.479a44.8 44.8 0 0 1 9-26.998C64.911 16.598 93.117 12.565 113 27.476v72.007c0-24.854-20.147-45-45-45a44.793 44.793 0 0 0-26.999 8.996z"/><path fill="#FFEBAA" stroke="#000" d="M112.999 27.479a44.802 44.802 0 0 0-9-26.998C89.089-19.402 60.883-23.434 41-8.523v72.006c0-24.853 20.147-45 45-45a44.79 44.79 0 0 1 26.999 8.996z"/><path fill="#0081CD" stroke="#000" d="M41.002-8.525a44.797 44.797 0 0 1 9-26.997c14.91-19.884 43.116-23.916 62.999-9.007v72.008c0-24.853-20.146-45-45-45a44.797 44.797 0 0 0-26.999 8.996z"/><path fill="#AAD5EF" stroke="#000" d="M-30.999 27.479a44.8 44.8 0 0 1 9-26.998C-7.089-19.402 21.117-23.435 41-8.524v72.007c0-24.854-20.147-45-45-45a44.793 44.793 0 0 0-26.999 8.996z"/><path fill="#FEC200" stroke="#000" d="M40.999-8.521a44.797 44.797 0 0 0-9-26.997C17.089-55.401-11.117-59.435-31-44.524v72.007c0-24.853 20.147-45 45-45a44.79 44.79 0 0 1 26.999 8.996z"/><path fill="#FFEBAA" stroke="#000" d="M-31.001 459.478a44.807 44.807 0 0 0-9-26.998c-14.91-19.883-43.116-23.913-62.999-9.004v72.007c0-24.853 20.147-45 45-45a44.797 44.797 0 0 1 26.999 8.995z"/><path fill="#0081CD" stroke="#000" d="M-102.998 423.474a44.797 44.797 0 0 1 9-26.996c14.91-19.883 43.116-23.916 62.999-9.006v72.006c0-24.852-20.147-45-45-45a44.804 44.804 0 0 0-26.999 8.996z"/><path fill="#FFEBAA" stroke="#000" d="M-31 387.476a44.8 44.8 0 0 0-9-26.998c-14.91-19.883-43.116-23.916-62.999-9.006v72.008c0-24.854 20.147-45 45-45A44.79 44.79 0 0 1-31 387.476z"/><path fill="#0081CD" stroke="#000" d="M-102.999 351.478a44.804 44.804 0 0 1 9-26.998c14.91-19.883 43.116-23.914 62.999-9.004v72.007c0-24.853-20.147-45-45-45a44.799 44.799 0 0 0-26.999 8.995z"/><path fill="#FFEBAA" stroke="#000" d="M-31.001 315.478a44.807 44.807 0 0 0-9-26.998c-14.91-19.883-43.116-23.913-62.999-9.004v72.007c0-24.853 20.147-45 45-45a44.797 44.797 0 0 1 26.999 8.995z"/><path fill="#0081CD" stroke="#000" d="M-102.998 279.474a44.802 44.802 0 0 1 9-26.997c14.91-19.883 43.116-23.916 62.999-9.006v72.007c0-24.852-20.147-45-45-45a44.804 44.804 0 0 0-26.999 8.996z"/><path fill="#FFEBAA" stroke="#000" d="M-31 243.475a44.804 44.804 0 0 0-9-26.998c-14.91-19.883-43.116-23.914-62.999-9.004v72.007c0-24.854 20.147-45.001 45-45.001A44.804 44.804 0 0 1-31 243.475z"/><path fill="#0081CD" stroke="#000" d="M-102.999 207.471a44.797 44.797 0 0 1 9-26.997c14.91-19.884 43.116-23.915 62.999-9.006v72.007c0-24.853-20.147-45-45-45a44.806 44.806 0 0 0-26.999 8.996z"/><path fill="#FFEBAA" stroke="#000" d="M-31.001 171.473a44.796 44.796 0 0 0-9-26.998c-14.91-19.884-43.116-23.916-62.999-9.007v72.009c0-24.854 20.147-45 45-45a44.797 44.797 0 0 1 26.999 8.996z"/><path fill="#0081CD" stroke="#000" d="M-102.998 135.469a44.8 44.8 0 0 1 9-26.998c14.91-19.883 43.116-23.916 62.999-9.006v72.008c0-24.854-20.147-45-45-45a44.797 44.797 0 0 0-26.999 8.996z"/><path fill="#FFEBAA" stroke="#000" d="M-31 99.469a44.804 44.804 0 0 0-9-26.998c-14.91-19.883-43.116-23.914-62.999-9.005v72.007c0-24.854 20.147-45 45-45A44.797 44.797 0 0 1-31 99.469z"/><path fill="#0081CD" stroke="#000" d="M-102.999 63.465a44.804 44.804 0 0 1 9-26.998C-79.089 16.584-50.883 12.553-31 27.462v72.007c0-24.853-20.147-45-45-45a44.8 44.8 0 0 0-26.999 8.996z"/><path fill="#FFEBAA" stroke="#000" d="M-31.001 27.465a44.807 44.807 0 0 0-9-26.998C-54.911-19.416-83.117-23.447-103-8.537v72.006c0-24.852 20.147-45 45-45a44.797 44.797 0 0 1 26.999 8.996z"/><path fill="#0081CD" stroke="#000" d="M-102.998-8.539a44.802 44.802 0 0 1 9-26.997c14.91-19.883 43.116-23.916 62.999-9.006v72.007c0-24.852-20.147-45-45-45a44.797 44.797 0 0 0-26.999 8.996z"/><path fill="#AAD5EF" stroke="#000" d="M401.001 459.492a44.8 44.8 0 0 1 9-26.998c14.91-19.883 43.116-23.915 62.999-9.005v72.007c0-24.853-20.147-45-45-45a44.813 44.813 0 0 0-26.999 8.996z"/><path fill="#FEC200" stroke="#000" d="M472.999 423.492a44.8 44.8 0 0 0-9-26.997c-14.91-19.883-43.116-23.916-62.999-9.006v72.007c0-24.853 20.147-45 45-45a44.81 44.81 0 0 1 26.999 8.996z"/><path fill="#AAD5EF" stroke="#000" d="M401.002 387.489a44.796 44.796 0 0 1 9-26.998c14.91-19.883 43.116-23.916 62.999-9.006v72.007c0-24.853-20.146-44.999-45-44.999a44.804 44.804 0 0 0-26.999 8.996z"/><path fill="#FEC200" stroke="#000" d="M473 351.489a44.802 44.802 0 0 0-9-26.998c-14.91-19.883-43.116-23.915-62.999-9.005v72.007c0-24.854 20.146-45 45-45A44.806 44.806 0 0 1 473 351.489z"/><path fill="#AAD5EF" stroke="#000" d="M401.001 315.492a44.8 44.8 0 0 1 9-26.998c14.91-19.883 43.116-23.915 62.999-9.005v72.007c0-24.853-20.147-45-45-45a44.813 44.813 0 0 0-26.999 8.996z"/><path fill="#FEC200" stroke="#000" d="M472.999 279.492a44.8 44.8 0 0 0-9-26.997c-14.91-19.883-43.116-23.916-62.999-9.006v72.007c0-24.853 20.147-45 45-45a44.81 44.81 0 0 1 26.999 8.996z"/><path fill="#AAD5EF" stroke="#000" d="M401.002 243.489a44.798 44.798 0 0 1 9-26.998c14.91-19.883 43.116-23.916 62.999-9.006v72.007c0-24.854-20.146-44.999-45-44.999a44.81 44.81 0 0 0-26.999 8.996z"/><path fill="#FEC200" stroke="#000" d="M473 207.489a44.8 44.8 0 0 0-9-26.998c-14.91-19.883-43.116-23.915-62.999-9.005v72.007c0-24.853 20.146-45 45-45A44.813 44.813 0 0 1 473 207.489z"/><path fill="#AAD5EF" stroke="#000" d="M401.001 171.485a44.798 44.798 0 0 1 9-26.998c14.91-19.883 43.116-23.915 62.999-9.005v72.007c0-24.853-20.147-45-45-45a44.806 44.806 0 0 0-26.999 8.996z"/><path fill="#FEC200" stroke="#000" d="M472.999 135.486a44.796 44.796 0 0 0-9-26.998c-14.91-19.883-43.116-23.916-62.999-9.006v72.008c0-24.854 20.147-45 45-45a44.804 44.804 0 0 1 26.999 8.996z"/><path fill="#AAD5EF" stroke="#000" d="M401.002 99.482a44.796 44.796 0 0 1 9-26.998c14.91-19.883 43.116-23.916 62.999-9.006v72.008c0-24.854-20.146-45-45-45a44.804 44.804 0 0 0-26.999 8.996z"/><path fill="#FEC200" stroke="#000" d="M473 63.482a44.8 44.8 0 0 0-9-26.998c-14.91-19.883-43.116-23.915-62.999-9.005v72.007c0-24.854 20.146-45 45-45A44.806 44.806 0 0 1 473 63.482z"/><path fill="#AAD5EF" stroke="#000" d="M401.001 27.479a44.8 44.8 0 0 1 9-26.998c14.91-19.883 43.116-23.915 62.999-9.005v72.007c0-24.854-20.147-45-45-45a44.793 44.793 0 0 0-26.999 8.996z"/><path fill="#FEC200" stroke="#000" d="M472.999-8.521a44.797 44.797 0 0 0-9-26.997c-14.91-19.883-43.116-23.916-62.999-9.006v72.007c0-24.853 20.147-45 45-45a44.79 44.79 0 0 1 26.999 8.996z"/><path fill="#FFEBAA" stroke="#000" d="M400.999 459.478a44.807 44.807 0 0 0-9-26.998c-14.91-19.883-43.116-23.913-62.999-9.004v72.007c0-24.853 20.147-45 45-45a44.797 44.797 0 0 1 26.999 8.995z"/><path fill="#0081CD" stroke="#000" d="M329.002 423.474a44.797 44.797 0 0 1 9-26.996c14.91-19.883 43.116-23.916 62.999-9.006v72.006c0-24.852-20.146-45-45-45a44.804 44.804 0 0 0-26.999 8.996z"/><path fill="#FFEBAA" stroke="#000" d="M401 387.476a44.8 44.8 0 0 0-9-26.998c-14.91-19.883-43.116-23.916-62.999-9.006v72.008c0-24.854 20.146-45 45-45A44.793 44.793 0 0 1 401 387.476z"/><path fill="#AAD5EF" stroke="#000" d="M257.001 459.478a44.804 44.804 0 0 1 9-26.998c14.91-19.883 43.116-23.914 62.999-9.004v72.007c0-24.853-20.147-45-45-45a44.799 44.799 0 0 0-26.999 8.995z"/><path fill="#FEC200" stroke="#000" d="M328.999 423.478a44.797 44.797 0 0 0-9-26.996c-14.91-19.883-43.116-23.916-62.999-9.006v72.007c0-24.853 20.147-45 45-45a44.797 44.797 0 0 1 26.999 8.995z"/><path fill="#AAD5EF" stroke="#000" d="M257.002 387.476a44.796 44.796 0 0 1 9-26.998c14.91-19.883 43.116-23.916 62.999-9.006v72.006c0-24.853-20.146-44.998-45-44.998a44.79 44.79 0 0 0-26.999 8.996z"/><path fill="#FEC200" stroke="#000" d="M329 351.476a44.8 44.8 0 0 0-9-26.998c-14.91-19.883-43.116-23.916-62.999-9.006v72.008c0-24.854 20.146-45 45-45A44.793 44.793 0 0 1 329 351.476z"/><path fill="#0081CD" stroke="#000" d="M329.001 351.478a44.804 44.804 0 0 1 9-26.998c14.91-19.883 43.116-23.914 62.999-9.004v72.007c0-24.853-20.147-45-45-45a44.799 44.799 0 0 0-26.999 8.995z"/><path fill="#FFEBAA" stroke="#000" d="M400.999 315.478a44.807 44.807 0 0 0-9-26.998c-14.91-19.883-43.116-23.913-62.999-9.004v72.007c0-24.853 20.147-45 45-45a44.797 44.797 0 0 1 26.999 8.995z"/><path fill="#0081CD" stroke="#000" d="M329.002 279.474a44.802 44.802 0 0 1 9-26.997c14.91-19.883 43.116-23.916 62.999-9.006v72.007c0-24.852-20.146-45-45-45a44.804 44.804 0 0 0-26.999 8.996z"/><path fill="#FFEBAA" stroke="#000" d="M401 243.475a44.804 44.804 0 0 0-9-26.998c-14.91-19.883-43.116-23.914-62.999-9.004v72.007c0-24.854 20.146-45.001 45-45.001A44.806 44.806 0 0 1 401 243.475z"/><path fill="#AAD5EF" stroke="#000" d="M257.001 315.478a44.804 44.804 0 0 1 9-26.998c14.91-19.883 43.116-23.914 62.999-9.004v72.007c0-24.853-20.147-45-45-45a44.799 44.799 0 0 0-26.999 8.995z"/><path fill="#FEC200" stroke="#000" d="M328.999 279.478a44.802 44.802 0 0 0-9-26.997c-14.91-19.883-43.116-23.915-62.999-9.006v72.008c0-24.853 20.147-45 45-45a44.797 44.797 0 0 1 26.999 8.995z"/><path fill="#AAD5EF" stroke="#000" d="M257.002 243.475a44.8 44.8 0 0 1 9-26.998c14.91-19.883 43.116-23.916 62.999-9.006v72.007c0-24.853-20.146-44.999-45-44.999a44.804 44.804 0 0 0-26.999 8.996z"/><path fill="#FEC200" stroke="#000" d="M329 207.475a44.8 44.8 0 0 0-9-26.997c-14.91-19.883-43.116-23.915-62.999-9.005v72.006c0-24.853 20.146-45 45-45A44.806 44.806 0 0 1 329 207.475z"/><path fill="#0081CD" stroke="#000" d="M329.001 207.471a44.797 44.797 0 0 1 9-26.997c14.91-19.884 43.116-23.915 62.999-9.006v72.007c0-24.853-20.147-45-45-45a44.806 44.806 0 0 0-26.999 8.996z"/><path fill="#FFEBAA" stroke="#000" d="M400.999 171.473a44.796 44.796 0 0 0-9-26.998c-14.91-19.884-43.116-23.916-62.999-9.007v72.009c0-24.854 20.147-45 45-45a44.797 44.797 0 0 1 26.999 8.996z"/><path fill="#0081CD" stroke="#000" d="M329.002 135.469a44.8 44.8 0 0 1 9-26.998c14.91-19.883 43.116-23.916 62.999-9.006v72.008c0-24.854-20.146-45-45-45a44.797 44.797 0 0 0-26.999 8.996z"/><path fill="#FFEBAA" stroke="#000" d="M401 99.469a44.804 44.804 0 0 0-9-26.998c-14.91-19.883-43.116-23.914-62.999-9.005v72.007c0-24.854 20.146-45 45-45A44.8 44.8 0 0 1 401 99.469z"/><path fill="#AAD5EF" stroke="#000" d="M257.001 171.471a44.797 44.797 0 0 1 9-26.997c14.91-19.884 43.116-23.915 62.999-9.006v72.007c0-24.853-20.147-44.999-45-44.999a44.805 44.805 0 0 0-26.999 8.995z"/><path fill="#FEC200" stroke="#000" d="M328.999 135.473a44.796 44.796 0 0 0-9-26.998c-14.91-19.884-43.116-23.916-62.999-9.007v72.009c0-24.854 20.147-45 45-45a44.797 44.797 0 0 1 26.999 8.996z"/><path fill="#AAD5EF" stroke="#000" d="M257.002 99.469a44.8 44.8 0 0 1 9-26.998c14.91-19.883 43.116-23.916 62.999-9.006v72.008c0-24.854-20.146-45-45-45a44.797 44.797 0 0 0-26.999 8.996z"/><path fill="#FEC200" stroke="#000" d="M329 63.469a44.804 44.804 0 0 0-9-26.998c-14.91-19.883-43.116-23.914-62.999-9.005v72.007c0-24.854 20.146-45 45-45A44.8 44.8 0 0 1 329 63.469z"/><path fill="#0081CD" stroke="#000" d="M329.001 63.465a44.804 44.804 0 0 1 9-26.998c14.91-19.883 43.116-23.914 62.999-9.005v72.007c0-24.853-20.147-45-45-45a44.8 44.8 0 0 0-26.999 8.996z"/><path fill="#FFEBAA" stroke="#000" d="M400.999 27.465a44.807 44.807 0 0 0-9-26.998C377.089-19.416 348.883-23.447 329-8.537v72.006c0-24.852 20.147-45 45-45a44.797 44.797 0 0 1 26.999 8.996z"/><path fill="#0081CD" stroke="#000" d="M329.002-8.539a44.802 44.802 0 0 1 9-26.997c14.91-19.883 43.116-23.916 62.999-9.006v72.007c0-24.852-20.146-45-45-45a44.797 44.797 0 0 0-26.999 8.996z"/><path fill="#AAD5EF" stroke="#000" d="M257.001 27.465a44.804 44.804 0 0 1 9-26.998c14.91-19.883 43.116-23.914 62.999-9.005v72.007c0-24.853-20.147-45-45-45a44.8 44.8 0 0 0-26.999 8.996z"/><path fill="#FEC200" stroke="#000" d="M328.999-8.535a44.802 44.802 0 0 0-9-26.997c-14.91-19.883-43.116-23.916-62.999-9.006v72.007c0-24.852 20.147-45 45-45a44.797 44.797 0 0 1 26.999 8.996z"/></svg>