<svg xmlns="http://www.w3.org/2000/svg" width="319.08" height="179.98"><path fill="none" stroke="#000" d="M14.48 127.78h288m-288-72h288m-36-36v144m-72-144v144m-72-144v144m-72-144v144"/><path fill="#fff" d="M32.481 55.795l18.003-18.003 18.003 18.003-18.003 18.003z"/><path fill="none" stroke="#000" d="M32.481 55.795l18.003-18.003 18.003 18.003-18.003 18.003z"/><path fill="#fff" d="M32.483 127.786l18.003-18.003 18.003 18.003-18.003 18.003z"/><path fill="none" stroke="#000" d="M32.483 127.786l18.003-18.003 18.003 18.003-18.003 18.003z"/><path fill="#fff" d="M104.483 55.793l18.003-18.003 18.003 18.003-18.003 18.003z"/><path fill="none" stroke="#000" d="M104.483 55.793l18.003-18.003 18.003 18.003-18.003 18.003z"/><path fill="#fff" d="M104.485 127.795l18.003-18.003 18.003 18.003-18.003 18.003z"/><path fill="none" stroke="#000" d="M104.485 127.795l18.003-18.003 18.003 18.003-18.003 18.003z"/><path fill="#fff" d="M176.485 55.791l18.003-18.003 18.003 18.003-18.003 18.003z"/><path fill="none" stroke="#000" d="M176.485 55.791l18.003-18.003 18.003 18.003-18.003 18.003z"/><path fill="#fff" d="M176.486 127.793l18.003-18.003 18.003 18.003-18.003 18.003z"/><path fill="none" stroke="#000" d="M176.486 127.793l18.003-18.003 18.003 18.003-18.003 18.003z"/><path fill="#fff" d="M248.486 55.79l18.003-18.003 18.003 18.003-18.003 18.003z"/><path fill="none" stroke="#000" d="M248.486 55.79l18.003-18.003 18.003 18.003-18.003 18.003z"/><path fill="#fff" d="M248.478 127.791l18.003-18.003 18.003 18.003-18.003 18.003z"/><path fill="none" stroke="#000" d="M248.478 127.791l18.003-18.003 18.003 18.003-18.003 18.003z"/><circle cx="32.48" cy="55.78" r="4" fill="#fff"/><circle cx="32.48" cy="55.78" r="4" fill="none" stroke="#000"/><circle cx="50.48" cy="37.78" r="4" fill="#fff"/><circle cx="50.48" cy="37.78" r="4" fill="none" stroke="#000"/><circle cx="68.48" cy="55.78" r="4" fill="#fff"/><circle cx="68.48" cy="55.78" r="4" fill="none" stroke="#000"/><circle cx="50.48" cy="73.78" r="4" fill="#fff"/><circle cx="50.48" cy="73.78" r="4" fill="none" stroke="#000"/><circle cx="32.49" cy="127.78" r="4" fill="#fff"/><circle cx="32.49" cy="127.78" r="4" fill="none" stroke="#000"/><circle cx="50.49" cy="109.78" r="4" fill="#fff"/><circle cx="50.49" cy="109.78" r="4" fill="none" stroke="#000"/><circle cx="68.49" cy="127.78" r="4" fill="#fff"/><circle cx="68.49" cy="127.78" r="4" fill="none" stroke="#000"/><circle cx="50.49" cy="145.78" r="4" fill="#fff"/><circle cx="50.49" cy="145.78" r="4" fill="none" stroke="#000"/><circle cx="104.48" cy="55.78" r="4" fill="#fff"/><circle cx="104.48" cy="55.78" r="4" fill="none" stroke="#000"/><circle cx="122.48" cy="37.78" r="4" fill="#fff"/><circle cx="122.48" cy="37.78" r="4" fill="none" stroke="#000"/><circle cx="140.48" cy="55.78" r="4" fill="#fff"/><circle cx="140.48" cy="55.78" r="4" fill="none" stroke="#000"/><circle cx="122.48" cy="73.78" r="4" fill="#fff"/><circle cx="122.48" cy="73.78" r="4" fill="none" stroke="#000"/><circle cx="104.49" cy="127.78" r="4" fill="#fff"/><circle cx="104.49" cy="127.78" r="4" fill="none" stroke="#000"/><circle cx="122.49" cy="109.78" r="4" fill="#fff"/><circle cx="122.49" cy="109.78" r="4" fill="none" stroke="#000"/><circle cx="140.49" cy="127.78" r="4" fill="#fff"/><circle cx="140.49" cy="127.78" r="4" fill="none" stroke="#000"/><circle cx="122.49" cy="145.78" r="4" fill="#fff"/><circle cx="122.49" cy="145.78" r="4" fill="none" stroke="#000"/><circle cx="176.48" cy="55.78" r="4" fill="#fff"/><circle cx="176.48" cy="55.78" r="4" fill="none" stroke="#000"/><circle cx="194.48" cy="37.78" r="4" fill="#fff"/><circle cx="194.48" cy="37.78" r="4" fill="none" stroke="#000"/><circle cx="212.48" cy="55.78" r="4" fill="#fff"/><circle cx="212.48" cy="55.78" r="4" fill="none" stroke="#000"/><circle cx="194.48" cy="73.78" r="4" fill="#fff"/><circle cx="194.48" cy="73.78" r="4" fill="none" stroke="#000"/><circle cx="176.49" cy="127.78" r="4" fill="#fff"/><circle cx="176.49" cy="127.78" r="4" fill="none" stroke="#000"/><circle cx="194.49" cy="109.78" r="4" fill="#fff"/><circle cx="194.49" cy="109.78" r="4" fill="none" stroke="#000"/><circle cx="212.49" cy="127.78" r="4" fill="#fff"/><circle cx="212.49" cy="127.78" r="4" fill="none" stroke="#000"/><circle cx="194.49" cy="145.78" r="4" fill="#fff"/><circle cx="194.49" cy="145.78" r="4" fill="none" stroke="#000"/><circle cx="248.48" cy="55.78" r="4" fill="#fff"/><circle cx="248.48" cy="55.78" r="4" fill="none" stroke="#000"/><circle cx="266.48" cy="37.78" r="4" fill="#fff"/><circle cx="266.48" cy="37.78" r="4" fill="none" stroke="#000"/><circle cx="284.48" cy="55.78" r="4" fill="#fff"/><circle cx="284.48" cy="55.78" r="4" fill="none" stroke="#000"/><circle cx="266.48" cy="73.78" r="4" fill="#fff"/><circle cx="266.48" cy="73.78" r="4" fill="none" stroke="#000"/><circle cx="248.49" cy="127.78" r="4" fill="#fff"/><circle cx="248.49" cy="127.78" r="4" fill="none" stroke="#000"/><circle cx="266.49" cy="109.78" r="4" fill="#fff"/><circle cx="266.49" cy="109.78" r="4" fill="none" stroke="#000"/><circle cx="284.49" cy="127.78" r="4" fill="#fff"/><circle cx="284.49" cy="127.78" r="4" fill="none" stroke="#000"/><circle cx="266.49" cy="145.78" r="4" fill="#fff"/><circle cx="266.49" cy="145.78" r="4" fill="none" stroke="#000"/><path d="M52.07 12.78c0-.52.09-1.35.2-2.25h-.04c-.94 1.82-2.14 2.45-3.39 2.45-1.55 0-2.5-1.22-2.5-2.88 0-3.04 2.23-6.23 6.03-6.23.85 0 1.75.14 2.36.32l-.9 4.56c-.29 1.51-.4 3.06-.36 4.03h-1.4zm.97-7.59c-.2-.07-.52-.13-1.03-.13-2.27 0-4.12 2.34-4.12 4.77 0 .97.34 1.93 1.5 1.93 1.24 0 2.72-1.62 3.15-3.94l.5-2.63zM122.11 0l-1.15 5.65h.04c.77-1.17 1.89-1.78 3.06-1.78 1.91 0 2.63 1.58 2.63 3.13 0 2.68-1.93 5.98-5.42 5.98-1.53 0-2.68-.63-2.68-2.23 0-.43.07-.95.16-1.37L120.62 0h1.49zm-1.9 9.42c-.07.31-.13.65-.11 1.12 0 .83.49 1.28 1.4 1.28 2.25 0 3.62-2.68 3.62-4.63 0-1.08-.47-2.07-1.66-2.07-1.3 0-2.63 1.33-3.06 3.39l-.2.92zm76.97 3c-.45.23-1.35.54-2.52.54-2.25 0-3.35-1.51-3.35-3.37 0-2.97 2.2-5.71 5.33-5.71.81 0 1.55.23 1.82.38l-.43 1.19c-.34-.16-.83-.32-1.48-.32-2.27 0-3.69 2.23-3.69 4.29 0 1.4.74 2.32 2.16 2.32.9 0 1.57-.27 2.02-.49l.14 1.17zM271.52 0l-1.91 10.01c-.16.92-.31 1.93-.36 2.77h-1.37l.23-1.73h-.04c-.79 1.24-1.89 1.93-3.13 1.93-1.69 0-2.61-1.39-2.61-3.17 0-3.1 2.3-5.94 5.38-5.94.56 0 1.17.13 1.55.31l.77-4.18h1.48zm-2.51 5.44c-.29-.22-.79-.38-1.42-.38-2.09 0-3.71 2.23-3.71 4.56 0 1.04.36 2.14 1.64 2.14 1.15 0 2.54-1.31 2.92-3.28l.58-3.04zM53.18 179.42c-.45.23-1.35.54-2.52.54-2.25 0-3.35-1.51-3.35-3.37 0-2.97 2.2-5.71 5.33-5.71.81 0 1.55.23 1.82.38l-.43 1.19c-.34-.16-.83-.32-1.48-.32-2.27 0-3.69 2.23-3.69 4.29 0 1.4.74 2.32 2.16 2.32.9 0 1.57-.27 2.02-.49l.14 1.17zM127.52 167l-1.91 10.01c-.16.92-.31 1.93-.36 2.77h-1.37l.23-1.73h-.04c-.79 1.24-1.89 1.93-3.13 1.93-1.69 0-2.61-1.39-2.61-3.17 0-3.1 2.3-5.94 5.38-5.94.56 0 1.17.13 1.55.31l.77-4.18h1.48zm-2.51 5.44c-.29-.22-.79-.38-1.42-.38-2.09 0-3.71 2.23-3.71 4.56 0 1.04.36 2.14 1.64 2.14 1.15 0 2.54-1.31 2.92-3.28l.58-3.04zm71.06 7.34c0-.52.09-1.35.2-2.25h-.04c-.94 1.82-2.14 2.45-3.39 2.45-1.55 0-2.5-1.22-2.5-2.88 0-3.04 2.23-6.23 6.03-6.23.85 0 1.75.14 2.36.32l-.9 4.56c-.29 1.51-.4 3.06-.36 4.03h-1.4zm.97-7.59c-.2-.07-.52-.13-1.03-.13-2.27 0-4.12 2.34-4.12 4.77 0 .97.34 1.93 1.49 1.93 1.24 0 2.72-1.62 3.15-3.94l.5-2.63zm69.07-5.19l-1.15 5.65h.04c.77-1.17 1.89-1.78 3.06-1.78 1.91 0 2.63 1.58 2.63 3.13 0 2.68-1.93 5.98-5.42 5.98-1.53 0-2.68-.63-2.68-2.23 0-.43.07-.95.16-1.37l1.87-9.38h1.49zm-1.89 9.42c-.07.31-.13.65-.11 1.12 0 .83.49 1.28 1.4 1.28 2.25 0 3.62-2.68 3.62-4.63 0-1.08-.47-2.07-1.66-2.07-1.3 0-2.63 1.33-3.06 3.39l-.2.92zM6.19 58.3c-.65.36-1.71.68-2.88.68-2.3 0-3.31-1.58-3.31-3.51 0-2.63 1.95-5.6 4.75-5.6 1.66 0 2.56.99 2.56 2.25 0 2.29-2.57 2.88-5.8 2.83-.07.38-.02 1.19.18 1.66.34.79 1.04 1.17 1.94 1.17 1.03 0 1.8-.31 2.34-.59l.22 1.12zm-1.65-7.26c-1.42 0-2.49 1.39-2.86 2.75 2.36.04 4.2-.29 4.2-1.66 0-.7-.54-1.1-1.33-1.1zm-2.9 79.74l1.44-7.54H1.91l.23-1.17h1.15l.09-.47c.22-1.21.65-2.32 1.42-3.02.56-.5 1.31-.77 2.07-.77.59 0 .99.11 1.21.23l-.32 1.19c-.23-.11-.54-.16-.88-.16-1.19 0-1.76 1.15-2.02 2.59l-.07.41h1.93l-.22 1.17H4.56l-1.42 7.54H1.65zM317.19 58.3c-.65.36-1.71.68-2.88.68-2.3 0-3.31-1.58-3.31-3.51 0-2.63 1.95-5.6 4.75-5.6 1.66 0 2.56.99 2.56 2.25 0 2.29-2.58 2.88-5.8 2.83-.07.38-.02 1.19.18 1.66.34.79 1.04 1.17 1.94 1.17 1.03 0 1.8-.31 2.34-.59l.22 1.12zm-1.65-7.26c-1.42 0-2.49 1.39-2.86 2.75 2.36.04 4.2-.29 4.2-1.66 0-.7-.54-1.1-1.33-1.1zm-2.9 79.74l1.44-7.54h-1.17l.23-1.17h1.15l.09-.47c.22-1.21.65-2.32 1.42-3.02.56-.5 1.31-.77 2.07-.77.59 0 .99.11 1.21.23l-.32 1.19c-.23-.11-.54-.16-.88-.16-1.19 0-1.76 1.15-2.02 2.59l-.07.41h1.93l-.22 1.17h-1.94l-1.42 7.54h-1.49z"/></svg>