<?xml version="1.0" encoding="utf-8"?>
<!-- Generator: Adobe Illustrator 15.1.0, SVG Export Plug-In . SVG Version: 6.00 Build 0)  -->
<!DOCTYPE svg PUBLIC "-//W3C//DTD SVG 1.1//EN" "http://www.w3.org/Graphics/SVG/1.1/DTD/svg11.dtd">
<svg version="1.1" id="Layer_1" xmlns="http://www.w3.org/2000/svg" xmlns:xlink="http://www.w3.org/1999/xlink" x="0px" y="0px"
	 width="450px" height="540px" viewBox="0 0 450 540" enable-background="new 0 0 450 540" xml:space="preserve">
<circle fill="#FEC200" stroke="#231F20" stroke-miterlimit="10" cx="315" cy="288" r="6"/>
<circle fill="#FEC200" stroke="#231F20" stroke-miterlimit="10" cx="99" cy="324" r="6"/>
<circle fill="#FEC200" stroke="#231F20" stroke-miterlimit="10" cx="351" cy="360" r="6"/>
<circle fill="#FEC200" stroke="#231F20" stroke-miterlimit="10" cx="63" cy="396" r="6"/>
<circle fill="#FEC200" stroke="#231F20" stroke-miterlimit="10" cx="387" cy="432" r="6"/>
<circle fill="#FEC200" stroke="#231F20" stroke-miterlimit="10" cx="27" cy="468" r="6"/>
<circle fill="#FEC200" stroke="#231F20" stroke-miterlimit="10" cx="423" cy="504" r="6"/>
<circle fill="#FEC200" stroke="#231F20" stroke-miterlimit="10" cx="135" cy="234" r="6"/>
<circle fill="#FEC200" stroke="#231F20" stroke-miterlimit="10" cx="279" cy="180" r="6"/>
<circle fill="#FEC200" stroke="#231F20" stroke-miterlimit="10" cx="171" cy="126" r="6"/>
<circle fill="#FEC200" stroke="#231F20" stroke-miterlimit="10" cx="243" cy="72" r="6"/>
<circle fill="#FEC200" stroke="#231F20" stroke-miterlimit="10" cx="207" cy="18" r="6"/>
<polyline fill="none" stroke="#0081CD" stroke-width="2" stroke-miterlimit="10" points="9,540 9,306 450,306 "/>
<polyline fill="none" stroke="#0081CD" stroke-width="2" stroke-miterlimit="10" points="45,540 45,270 450,270 "/>
<polyline fill="none" stroke="#0081CD" stroke-width="2" stroke-miterlimit="10" points="81,540 81,216 450,216 "/>
<polyline fill="none" stroke="#0081CD" stroke-width="2" stroke-miterlimit="10" points="117,540 117,162 450,162 "/>
<polyline fill="none" stroke="#0081CD" stroke-width="2" stroke-miterlimit="10" points="153,540 153,108 450,108 "/>
<polyline fill="none" stroke="#0081CD" stroke-width="2" stroke-miterlimit="10" points="189,540 189,54 450,54 "/>
<polyline fill="none" stroke="#009246" stroke-width="2" stroke-miterlimit="10" points="405,540 405,252 0,252 "/>
<polyline fill="none" stroke="#009246" stroke-width="2" stroke-miterlimit="10" points="369,540 369,198 0,198 "/>
<polyline fill="none" stroke="#009246" stroke-width="2" stroke-miterlimit="10" points="333,540 333,144 0,144 "/>
<polyline fill="none" stroke="#009246" stroke-width="2" stroke-miterlimit="10" points="297,540 297,90 0,90 "/>
<polyline fill="none" stroke="#009246" stroke-width="2" stroke-miterlimit="10" points="261,540 261,36 0,36 "/>
</svg>
