<?xml version="1.0" encoding="utf-8"?>
<!-- Generator: Adobe Illustrator 15.1.0, SVG Export Plug-In . SVG Version: 6.00 Build 0)  -->
<!DOCTYPE svg PUBLIC "-//W3C//DTD SVG 1.1//EN" "http://www.w3.org/Graphics/SVG/1.1/DTD/svg11.dtd">
<svg version="1.1" id="Layer_1" xmlns="http://www.w3.org/2000/svg" xmlns:xlink="http://www.w3.org/1999/xlink" x="0px" y="0px"
	 width="432px" height="360px" viewBox="0 0 432 360" enable-background="new 0 0 432 360" xml:space="preserve">
<line fill="none" stroke="#0081CD" stroke-width="2" stroke-miterlimit="10" x1="0" y1="144" x2="432" y2="144"/>
<line fill="none" stroke="#0081CD" stroke-width="2" stroke-miterlimit="10" x1="216" y1="144" x2="216" y2="360"/>
<circle fill="#009246" stroke="#000000" stroke-miterlimit="10" cx="216" cy="144" r="6"/>
<circle fill="#BC1E47" stroke="#000000" stroke-miterlimit="10" cx="117" cy="117" r="4.5"/>
<circle fill="#BC1E47" stroke="#000000" stroke-miterlimit="10" cx="81" cy="45" r="4.5"/>
<circle fill="#BC1E47" stroke="#000000" stroke-miterlimit="10" cx="144" cy="63" r="4.5"/>
<circle fill="#BC1E47" stroke="#000000" stroke-miterlimit="10" cx="279" cy="198" r="4.5"/>
<circle fill="#BC1E47" stroke="#000000" stroke-miterlimit="10" cx="387" cy="216" r="4.5"/>
<circle fill="#BC1E47" stroke="#000000" stroke-miterlimit="10" cx="180" cy="333" r="4.5"/>
<circle fill="#BC1E47" stroke="#000000" stroke-miterlimit="10" cx="198" cy="288" r="4.5"/>
<circle fill="#BC1E47" stroke="#000000" stroke-miterlimit="10" cx="54" cy="162" r="4.5"/>
<circle fill="#BC1E47" stroke="#000000" stroke-miterlimit="10" cx="45" cy="252" r="4.5"/>
<circle fill="#BC1E47" stroke="#000000" stroke-miterlimit="10" cx="27" cy="207" r="4.5"/>
<g>
	<path d="M193.649,81l3.009-10.863c0.258-0.919,0.407-1.476,0.448-1.67s0.062-0.403,0.062-0.627c0-0.341-0.097-0.609-0.29-0.804
		s-0.571-0.292-1.134-0.292c-0.141,0-0.278,0.009-0.413,0.026s-0.284,0.038-0.448,0.062v-0.58c0.756-0.117,1.295-0.205,1.615-0.264
		c0.319-0.059,0.666-0.129,1.038-0.211l3.125-0.686c0.069,0.047,0.116,0.1,0.14,0.158l-2.33,7.559
		c1.439-2.191,2.644-3.82,3.611-4.887c1.698-1.887,3.221-2.83,4.566-2.83c0.519,0,0.968,0.1,1.345,0.299
		c0.719,0.387,1.078,1.084,1.078,2.092c0,0.281-0.029,0.574-0.088,0.879c-0.06,0.305-0.135,0.633-0.229,0.984l-2.313,8.42
		c-0.047,0.176-0.1,0.39-0.158,0.642c-0.06,0.252-0.088,0.431-0.088,0.536c0,0.176,0.041,0.334,0.123,0.475
		c0.081,0.141,0.213,0.211,0.393,0.211c0.292,0,0.629-0.179,1.011-0.536s1.006-1.122,1.871-2.294l0.51,0.457
		c-0.942,1.301-1.689,2.215-2.24,2.742c-0.942,0.926-1.845,1.389-2.707,1.389c-0.391,0-0.767-0.132-1.13-0.396
		s-0.545-0.741-0.545-1.433c0-0.199,0.015-0.41,0.044-0.633s0.067-0.416,0.114-0.58l2.243-8.543
		c0.117-0.469,0.196-0.853,0.237-1.151s0.062-0.513,0.062-0.642c0-0.281-0.067-0.524-0.203-0.729
		c-0.135-0.205-0.374-0.308-0.719-0.308c-0.89,0-2.012,0.796-3.364,2.389c-0.796,0.948-1.603,2.078-2.422,3.389
		c-0.612,1.018-1.094,2.011-1.445,2.977c-0.353,0.966-0.912,2.724-1.679,5.273H193.649z"/>
	<path d="M218.887,56.671h1.771l-7.794,24.926h-1.789L218.887,56.671z"/>
	<path d="M226.353,78.952c1.061,0.674,1.96,1.011,2.698,1.011c1.641,0,2.859-0.555,3.656-1.664s1.195-2.315,1.195-3.618
		c0-1.256-0.322-2.359-0.967-3.31c-1.09-1.608-2.93-2.412-5.52-2.412c-0.152,0-0.299,0.003-0.439,0.009s-0.305,0.021-0.492,0.044
		l-0.035-0.457c1.875-0.68,3.352-1.459,4.43-2.338s1.617-2.039,1.617-3.48c0-1.277-0.425-2.25-1.274-2.918s-1.819-1.002-2.909-1.002
		c-1.289,0-2.426,0.475-3.41,1.424c-0.539,0.516-1.119,1.312-1.74,2.391l-0.545-0.123c0.469-1.781,1.342-3.205,2.619-4.271
		s2.754-1.6,4.43-1.6c1.793,0,3.179,0.492,4.157,1.477s1.468,2.121,1.468,3.41c0,1.137-0.404,2.18-1.213,3.129
		c-0.457,0.539-1.166,1.143-2.127,1.811c1.125,0.48,2.027,1.043,2.707,1.688c1.277,1.23,1.916,2.789,1.916,4.676
		c0,2.227-0.876,4.189-2.628,5.889s-4.245,2.549-7.479,2.549c-1.441,0-2.452-0.214-3.032-0.642s-0.87-0.888-0.87-1.38
		c0-0.305,0.097-0.598,0.29-0.879s0.507-0.422,0.94-0.422C224.44,77.941,225.292,78.278,226.353,78.952z"/>
</g>
<g>
	<path d="M85.649,261l3.009-10.863c0.258-0.92,0.407-1.477,0.448-1.67c0.041-0.195,0.062-0.404,0.062-0.628
		c0-0.341-0.097-0.609-0.29-0.804s-0.571-0.291-1.134-0.291c-0.141,0-0.278,0.008-0.413,0.025s-0.284,0.039-0.448,0.062v-0.58
		c0.756-0.117,1.295-0.205,1.615-0.264c0.319-0.059,0.666-0.129,1.038-0.211l3.125-0.686c0.069,0.047,0.116,0.1,0.14,0.158
		l-2.33,7.559c1.439-2.191,2.644-3.82,3.611-4.887c1.698-1.887,3.221-2.83,4.566-2.83c0.519,0,0.968,0.1,1.345,0.299
		c0.719,0.387,1.078,1.084,1.078,2.092c0,0.281-0.029,0.574-0.088,0.879c-0.06,0.305-0.135,0.633-0.229,0.984l-2.313,8.42
		c-0.047,0.176-0.1,0.389-0.158,0.641c-0.06,0.252-0.088,0.432-0.088,0.537c0,0.176,0.041,0.334,0.123,0.475
		c0.081,0.141,0.213,0.211,0.393,0.211c0.292,0,0.629-0.18,1.011-0.537s1.006-1.121,1.871-2.293l0.51,0.457
		c-0.942,1.301-1.689,2.215-2.24,2.742c-0.942,0.926-1.845,1.389-2.707,1.389c-0.391,0-0.767-0.133-1.13-0.396
		s-0.545-0.74-0.545-1.432c0-0.199,0.015-0.41,0.044-0.633s0.067-0.416,0.114-0.58l2.243-8.543c0.117-0.469,0.196-0.854,0.237-1.152
		s0.062-0.512,0.062-0.641c0-0.281-0.067-0.525-0.203-0.73c-0.135-0.205-0.374-0.307-0.719-0.307c-0.89,0-2.012,0.796-3.364,2.389
		c-0.796,0.947-1.603,2.077-2.422,3.389c-0.612,1.018-1.094,2.011-1.445,2.977c-0.353,0.966-0.912,2.724-1.679,5.273H85.649z"/>
	<path d="M110.887,236.671h1.771l-7.794,24.926h-1.789L110.887,236.671z"/>
	<path d="M118.353,258.951c1.061,0.674,1.96,1.012,2.698,1.012c1.641,0,2.859-0.555,3.656-1.664s1.195-2.315,1.195-3.618
		c0-1.256-0.322-2.359-0.967-3.31c-1.09-1.608-2.93-2.412-5.52-2.412c-0.152,0-0.299,0.002-0.439,0.008s-0.305,0.021-0.492,0.045
		l-0.035-0.457c1.875-0.68,3.352-1.459,4.43-2.338s1.617-2.039,1.617-3.48c0-1.277-0.425-2.25-1.274-2.918s-1.819-1.002-2.909-1.002
		c-1.289,0-2.426,0.475-3.41,1.424c-0.539,0.516-1.119,1.312-1.74,2.391l-0.545-0.123c0.469-1.781,1.342-3.205,2.619-4.271
		s2.754-1.6,4.43-1.6c1.793,0,3.179,0.492,4.157,1.477s1.468,2.121,1.468,3.41c0,1.137-0.404,2.18-1.213,3.129
		c-0.457,0.539-1.166,1.143-2.127,1.811c1.125,0.48,2.027,1.043,2.707,1.688c1.277,1.23,1.916,2.789,1.916,4.676
		c0,2.227-0.876,4.189-2.628,5.889s-4.245,2.549-7.479,2.549c-1.441,0-2.452-0.215-3.032-0.643s-0.87-0.887-0.87-1.379
		c0-0.305,0.097-0.598,0.29-0.879s0.507-0.422,0.94-0.422C116.44,257.941,117.292,258.277,118.353,258.951z"/>
</g>
<g>
	<path d="M301.648,261l3.01-10.863c0.258-0.92,0.406-1.477,0.447-1.67c0.041-0.195,0.062-0.404,0.062-0.628
		c0-0.341-0.098-0.609-0.291-0.804s-0.57-0.291-1.133-0.291c-0.141,0-0.279,0.008-0.414,0.025s-0.283,0.039-0.447,0.062v-0.58
		c0.756-0.117,1.295-0.205,1.615-0.264c0.318-0.059,0.666-0.129,1.037-0.211l3.125-0.686c0.07,0.047,0.117,0.1,0.141,0.158
		l-2.33,7.559c1.439-2.191,2.643-3.82,3.611-4.887c1.697-1.887,3.221-2.83,4.566-2.83c0.518,0,0.967,0.1,1.344,0.299
		c0.719,0.387,1.078,1.084,1.078,2.092c0,0.281-0.029,0.574-0.088,0.879s-0.135,0.633-0.229,0.984l-2.312,8.42
		c-0.047,0.176-0.1,0.389-0.158,0.641c-0.061,0.252-0.088,0.432-0.088,0.537c0,0.176,0.041,0.334,0.123,0.475
		c0.08,0.141,0.213,0.211,0.393,0.211c0.291,0,0.629-0.18,1.01-0.537c0.383-0.357,1.006-1.121,1.871-2.293l0.51,0.457
		c-0.941,1.301-1.689,2.215-2.24,2.742c-0.941,0.926-1.844,1.389-2.707,1.389c-0.391,0-0.766-0.133-1.129-0.396
		s-0.545-0.74-0.545-1.432c0-0.199,0.014-0.41,0.043-0.633s0.068-0.416,0.115-0.58l2.242-8.543c0.117-0.469,0.197-0.854,0.238-1.152
		s0.061-0.512,0.061-0.641c0-0.281-0.066-0.525-0.203-0.73c-0.135-0.205-0.373-0.307-0.719-0.307c-0.889,0-2.012,0.796-3.363,2.389
		c-0.797,0.947-1.604,2.077-2.422,3.389c-0.613,1.018-1.094,2.011-1.445,2.977c-0.354,0.966-0.912,2.724-1.68,5.273H301.648z"/>
	<path d="M326.886,236.671h1.771l-7.795,24.926h-1.789L326.886,236.671z"/>
	<path d="M334.353,258.951c1.061,0.674,1.959,1.012,2.697,1.012c1.641,0,2.859-0.555,3.656-1.664s1.195-2.315,1.195-3.618
		c0-1.256-0.322-2.359-0.967-3.31c-1.09-1.608-2.93-2.412-5.52-2.412c-0.152,0-0.299,0.002-0.439,0.008s-0.305,0.021-0.492,0.045
		l-0.035-0.457c1.875-0.68,3.352-1.459,4.43-2.338s1.617-2.039,1.617-3.48c0-1.277-0.424-2.25-1.273-2.918s-1.82-1.002-2.91-1.002
		c-1.289,0-2.426,0.475-3.41,1.424c-0.539,0.516-1.119,1.312-1.74,2.391l-0.545-0.123c0.469-1.781,1.342-3.205,2.619-4.271
		s2.754-1.6,4.43-1.6c1.793,0,3.18,0.492,4.158,1.477s1.467,2.121,1.467,3.41c0,1.137-0.404,2.18-1.213,3.129
		c-0.457,0.539-1.166,1.143-2.127,1.811c1.125,0.48,2.027,1.043,2.707,1.688c1.277,1.23,1.916,2.789,1.916,4.676
		c0,2.227-0.875,4.189-2.627,5.889s-4.246,2.549-7.48,2.549c-1.441,0-2.451-0.215-3.031-0.643s-0.871-0.887-0.871-1.379
		c0-0.305,0.098-0.598,0.291-0.879s0.506-0.422,0.939-0.422C332.439,257.941,333.292,258.277,334.353,258.951z"/>
</g>
<circle fill="#BC1E47" stroke="#000000" stroke-miterlimit="10" cx="306" cy="180" r="4.5"/>
<circle fill="#BC1E47" stroke="#000000" stroke-miterlimit="10" cx="378" cy="270" r="4.5"/>
<circle fill="#BC1E47" stroke="#000000" stroke-miterlimit="10" cx="90" cy="90" r="4.5"/>
<circle fill="#BC1E47" stroke="#000000" stroke-miterlimit="10" cx="360" cy="189" r="4.5"/>
<circle fill="#BC1E47" stroke="#000000" stroke-miterlimit="10" cx="369" cy="18" r="4.5"/>
</svg>
