<?xml version="1.0" encoding="utf-8"?>
<!-- Generator: Adobe Illustrator 15.1.0, SVG Export Plug-In . SVG Version: 6.00 Build 0)  -->
<!DOCTYPE svg PUBLIC "-//W3C//DTD SVG 1.1//EN" "http://www.w3.org/Graphics/SVG/1.1/DTD/svg11.dtd">
<svg version="1.1" id="Layer_1" xmlns="http://www.w3.org/2000/svg" xmlns:xlink="http://www.w3.org/1999/xlink" x="0px" y="0px"
	 width="378px" height="324px" viewBox="0 0 378 324" enable-background="new 0 0 378 324" xml:space="preserve">
<circle fill="#009246" stroke="#231F20" stroke-miterlimit="10" cx="18" cy="234" r="4.5"/>
<circle fill="#009246" stroke="#231F20" stroke-miterlimit="10" cx="108" cy="180" r="4.5"/>
<circle fill="#009246" stroke="#231F20" stroke-miterlimit="10" cx="162" cy="135" r="4.5"/>
<circle fill="#009246" stroke="#231F20" stroke-miterlimit="10" cx="207" cy="153" r="4.5"/>
<circle fill="#009246" stroke="#231F20" stroke-miterlimit="10" cx="252" cy="108" r="4.5"/>
<circle fill="#009246" stroke="#231F20" stroke-miterlimit="10" cx="297" cy="126" r="4.5"/>
<circle fill="#009246" stroke="#231F20" stroke-miterlimit="10" cx="27" cy="270" r="4.5"/>
<circle fill="#009246" stroke="#231F20" stroke-miterlimit="10" cx="36" cy="252" r="4.5"/>
<circle fill="#009246" stroke="#231F20" stroke-miterlimit="10" cx="234" cy="117" r="4.5"/>
<circle fill="#009246" stroke="#231F20" stroke-miterlimit="10" cx="243" cy="144" r="4.5"/>
<polyline fill="none" stroke="#FEC200" stroke-width="3" stroke-miterlimit="10" points="0,90 216,90 216,324 "/>
<circle fill="#009246" stroke="#231F20" stroke-miterlimit="10" cx="135" cy="27" r="4.5"/>
<circle fill="#009246" stroke="#231F20" stroke-miterlimit="10" cx="171" cy="9" r="4.5"/>
<circle fill="#009246" stroke="#231F20" stroke-miterlimit="10" cx="9" cy="297" r="4.5"/>
<circle fill="#009246" stroke="#231F20" stroke-miterlimit="10" cx="189" cy="288" r="4.5"/>
<rect x="121.5" y="157.5" fill="#CC33CC" stroke="#231F20" stroke-miterlimit="10" width="9" height="9"/>
<rect x="139.5" y="193.5" fill="#CC33CC" stroke="#231F20" stroke-miterlimit="10" width="9" height="9"/>
<rect x="148.5" y="238.5" fill="#CC33CC" stroke="#231F20" stroke-miterlimit="10" width="9" height="9"/>
<rect x="220.5" y="310.5" fill="#CC33CC" stroke="#231F20" stroke-miterlimit="10" width="9" height="9"/>
<rect x="85.5" y="94.5" fill="#CC33CC" stroke="#231F20" stroke-miterlimit="10" width="9" height="9"/>
<rect x="76.5" y="76.5" fill="#CC33CC" stroke="#231F20" stroke-miterlimit="10" width="9" height="9"/>
<rect x="58.5" y="49.5" fill="#CC33CC" stroke="#231F20" stroke-miterlimit="10" width="9" height="9"/>
<circle fill="#009246" stroke="#231F20" stroke-miterlimit="10" cx="54" cy="279" r="4.5"/>
<rect x="40.5" y="13.5" fill="#CC33CC" stroke="#231F20" stroke-miterlimit="10" width="9" height="9"/>
<circle fill="#009246" stroke="#231F20" stroke-miterlimit="10" cx="333" cy="225" r="4.5"/>
<circle fill="#009246" stroke="#231F20" stroke-miterlimit="10" cx="351" cy="207" r="4.5"/>
<circle fill="#009246" stroke="#231F20" stroke-miterlimit="10" cx="369" cy="216" r="4.5"/>
</svg>
