<?xml version="1.0" encoding="utf-8"?>
<!-- Generator: Adobe Illustrator 15.1.0, SVG Export Plug-In . SVG Version: 6.00 Build 0)  -->
<!DOCTYPE svg PUBLIC "-//W3C//DTD SVG 1.1//EN" "http://www.w3.org/Graphics/SVG/1.1/DTD/svg11.dtd">
<svg version="1.1" id="Layer_1" xmlns="http://www.w3.org/2000/svg" xmlns:xlink="http://www.w3.org/1999/xlink" x="0px" y="0px"
	 width="306px" height="270px" viewBox="0 0 306 270" enable-background="new 0 0 306 270" xml:space="preserve">
<polygon fill="#FEC200" stroke="#BC1E47" stroke-width="2" stroke-miterlimit="10" points="9.831,134.034 9,9 297,9 297,108 
	261,108 261,153 225,153 225,189 144,189 144,207 108,207 108,171 45,171 45.831,134.034 "/>
<line fill="none" stroke="#BC1E47" stroke-width="2" stroke-miterlimit="10" x1="144" y1="207" x2="144" y2="261"/>
<circle fill="#0081CD" stroke="#000000" stroke-miterlimit="10" cx="144" cy="261" r="4.5"/>
<circle fill="#0081CD" stroke="#000000" stroke-miterlimit="10" cx="108" cy="207" r="4.5"/>
<circle fill="#0081CD" stroke="#000000" stroke-miterlimit="10" cx="45" cy="171" r="4.5"/>
<circle fill="#0081CD" stroke="#000000" stroke-miterlimit="10" cx="225" cy="189" r="4.5"/>
<circle fill="#0081CD" stroke="#000000" stroke-miterlimit="10" cx="261" cy="153" r="4.5"/>
<circle fill="#0081CD" stroke="#000000" stroke-miterlimit="10" cx="9" cy="135" r="4.5"/>
<circle fill="#0081CD" stroke="#000000" stroke-miterlimit="10" cx="90" cy="9" r="4.5"/>
<circle fill="#0081CD" stroke="#000000" stroke-miterlimit="10" cx="297" cy="108" r="4.5"/>
<circle fill="#0081CD" stroke="#000000" stroke-miterlimit="10" cx="243" cy="126" r="4.5"/>
<circle fill="#0081CD" stroke="#000000" stroke-miterlimit="10" cx="171" cy="180" r="4.5"/>
<circle fill="#0081CD" stroke="#000000" stroke-miterlimit="10" cx="81" cy="144" r="4.5"/>
<circle fill="#0081CD" stroke="#000000" stroke-miterlimit="10" cx="72" cy="117" r="4.5"/>
<circle fill="#0081CD" stroke="#000000" stroke-miterlimit="10" cx="198" cy="54" r="4.5"/>
<circle fill="#0081CD" stroke="#000000" stroke-miterlimit="10" cx="135" cy="27" r="4.5"/>
<circle fill="#0081CD" stroke="#000000" stroke-miterlimit="10" cx="27" cy="90" r="4.5"/>
<circle fill="#0081CD" stroke="#000000" stroke-miterlimit="10" cx="36" cy="81" r="4.5"/>
<circle fill="#0081CD" stroke="#000000" stroke-miterlimit="10" cx="144" cy="99" r="4.5"/>
<circle fill="#0081CD" stroke="#000000" stroke-miterlimit="10" cx="279" cy="36" r="4.5"/>
</svg>
