<?xml version="1.0" encoding="utf-8"?>
<!-- Generator: Adobe Illustrator 15.1.0, SVG Export Plug-In . SVG Version: 6.00 Build 0)  -->
<!DOCTYPE svg PUBLIC "-//W3C//DTD SVG 1.1//EN" "http://www.w3.org/Graphics/SVG/1.1/DTD/svg11.dtd">
<svg version="1.1" id="Layer_1" xmlns="http://www.w3.org/2000/svg" xmlns:xlink="http://www.w3.org/1999/xlink" x="0px" y="0px"
	 width="504px" height="360px" viewBox="0 0 504 360" enable-background="new 0 0 504 360" xml:space="preserve">
<polyline fill="none" stroke="#009246" stroke-miterlimit="10" points="225,162 261,162 261,315 "/>
<polyline fill="none" stroke="#009246" stroke-miterlimit="10" points="45,135 45,90 252,90 "/>
<polyline fill="none" stroke="#009246" stroke-width="2.5" stroke-miterlimit="10" points="216,261 216,117 270,117 "/>
<polyline fill="none" stroke="#009246" stroke-width="4" stroke-miterlimit="10" points="144,72 288,72 288,216 "/>
<circle fill="#BC1E47" stroke="#231F20" stroke-miterlimit="10" cx="144" cy="72" r="6"/>
<rect x="282" y="210" fill="#0081CD" stroke="#231F20" stroke-miterlimit="10" width="12" height="12"/>
<line fill="none" stroke="#FEC200" stroke-width="3" stroke-miterlimit="10" x1="288" y1="225" x2="288" y2="360"/>
<line fill="none" stroke="#FEC200" stroke-width="3" stroke-miterlimit="10" x1="135" y1="72" x2="0" y2="72"/>
<polyline fill="none" stroke="#FEC200" stroke-width="1.5" stroke-miterlimit="10" points="0,189 171,189 171,360 "/>
<polyline fill="none" stroke="#FEC200" stroke-width="1.5" stroke-miterlimit="10" points="360,360 360,144 504,144 "/>
<rect x="210" y="255" fill="#0081CD" stroke="#231F20" stroke-miterlimit="10" width="12" height="12"/>
<circle fill="#BC1E47" stroke="#231F20" stroke-miterlimit="10" cx="270" cy="117" r="6"/>
<circle fill="#BC1E47" stroke="#231F20" stroke-miterlimit="10" cx="252" cy="90" r="6"/>
<circle fill="#BC1E47" stroke="#231F20" stroke-miterlimit="10" cx="225" cy="162" r="6"/>
<rect x="39" y="129" fill="#0081CD" stroke="#231F20" stroke-miterlimit="10" width="12" height="12"/>
<rect x="255" y="309" fill="#0081CD" stroke="#231F20" stroke-miterlimit="10" width="12" height="12"/>
<polyline fill="none" stroke="#009246" stroke-width="2.5" stroke-miterlimit="10" points="72,342 72,234 99,234 "/>
<polyline fill="none" stroke="#009246" stroke-miterlimit="10" points="18,306 18,207 135,207 "/>
<polyline fill="none" stroke="#009246" stroke-miterlimit="10" points="153,324 153,270 117,270 "/>
<polyline fill="none" stroke="#009246" stroke-width="2.5" stroke-miterlimit="10" points="333,288 333,27 414,27 "/>
<polyline fill="none" stroke="#009246" stroke-miterlimit="10" points="387,108 387,63 468,63 "/>
<polyline fill="none" stroke="#009246" stroke-miterlimit="10" points="198,54 198,9 36,9 "/>
<polyline fill="none" stroke="#009246" stroke-width="2.5" stroke-miterlimit="10" points="396,180 459,180 459,297 "/>
<polyline fill="none" stroke="#009246" stroke-miterlimit="10" points="495,171 477,171 477,198 "/>
<polyline fill="none" stroke="#009246" stroke-miterlimit="10" points="432,279 378,279 378,333 "/>
<circle fill="#BC1E47" stroke="#231F20" stroke-miterlimit="10" cx="198" cy="54" r="6"/>
<circle fill="#BC1E47" stroke="#231F20" stroke-miterlimit="10" cx="414" cy="27" r="6"/>
<circle fill="#BC1E47" stroke="#231F20" stroke-miterlimit="10" cx="387" cy="108" r="6"/>
<circle fill="#BC1E47" stroke="#231F20" stroke-miterlimit="10" cx="396" cy="180" r="6"/>
<circle fill="#BC1E47" stroke="#231F20" stroke-miterlimit="10" cx="495" cy="171" r="6"/>
<circle fill="#BC1E47" stroke="#231F20" stroke-miterlimit="10" cx="432" cy="279" r="6"/>
<circle fill="#BC1E47" stroke="#231F20" stroke-miterlimit="10" cx="117" cy="270" r="6"/>
<circle fill="#BC1E47" stroke="#231F20" stroke-miterlimit="10" cx="99" cy="234" r="6"/>
<circle fill="#BC1E47" stroke="#231F20" stroke-miterlimit="10" cx="135" cy="207" r="6"/>
<rect x="147" y="318" fill="#0081CD" stroke="#231F20" stroke-miterlimit="10" width="12" height="12"/>
<rect x="66" y="336" fill="#0081CD" stroke="#231F20" stroke-miterlimit="10" width="12" height="12"/>
<rect x="12" y="300" fill="#0081CD" stroke="#231F20" stroke-miterlimit="10" width="12" height="12"/>
<rect x="30" y="3" fill="#0081CD" stroke="#231F20" stroke-miterlimit="10" width="12" height="12"/>
<rect x="327" y="282" fill="#0081CD" stroke="#231F20" stroke-miterlimit="10" width="12" height="12"/>
<rect x="462" y="57" fill="#0081CD" stroke="#231F20" stroke-miterlimit="10" width="12" height="12"/>
<rect x="471" y="192" fill="#0081CD" stroke="#231F20" stroke-miterlimit="10" width="12" height="12"/>
<rect x="372" y="327" fill="#0081CD" stroke="#231F20" stroke-miterlimit="10" width="12" height="12"/>
<rect x="453" y="291" fill="#0081CD" stroke="#231F20" stroke-miterlimit="10" width="12" height="12"/>
</svg>
