<?xml version="1.0" encoding="utf-8"?>
<!-- Generator: Adobe Illustrator 15.1.0, SVG Export Plug-In . SVG Version: 6.00 Build 0)  -->
<!DOCTYPE svg PUBLIC "-//W3C//DTD SVG 1.1//EN" "http://www.w3.org/Graphics/SVG/1.1/DTD/svg11.dtd">
<svg version="1.1" id="Layer_1" xmlns="http://www.w3.org/2000/svg" xmlns:xlink="http://www.w3.org/1999/xlink" x="0px" y="0px"
	 width="486px" height="234px" viewBox="0 0 486 234" enable-background="new 0 0 486 234" xml:space="preserve">
<line fill="none" stroke="#0081CD" stroke-width="2" stroke-miterlimit="10" x1="45" y1="18" x2="45" y2="198"/>
<line fill="none" stroke="#0081CD" stroke-width="2" stroke-miterlimit="10" x1="117" y1="18" x2="117" y2="198"/>
<line fill="none" stroke="#0081CD" stroke-width="2" stroke-miterlimit="10" x1="189" y1="18" x2="189" y2="198"/>
<line fill="none" stroke="#0081CD" stroke-width="2" stroke-miterlimit="10" x1="27" y1="36" x2="207" y2="36"/>
<line fill="none" stroke="#0081CD" stroke-width="2" stroke-miterlimit="10" x1="27" y1="108" x2="207" y2="108"/>
<line fill="none" stroke="#0081CD" stroke-width="2" stroke-miterlimit="10" x1="27" y1="180" x2="207" y2="180"/>
<g>
	<g>
		<line fill="none" stroke="#FEC200" stroke-width="10" stroke-miterlimit="10" x1="261" y1="108" x2="311.876" y2="108"/>
		<g>
			<path fill="#FEC200" d="M333,108c-9.939,3.688-22.271,9.98-29.916,16.646L309.105,108l-6.021-16.642
				C310.728,98.023,323.06,104.315,333,108z"/>
		</g>
	</g>
</g>
<line fill="none" stroke="#0081CD" stroke-width="2" stroke-miterlimit="10" x1="405" y1="189" x2="477" y2="189"/>
<line fill="none" stroke="#0081CD" stroke-width="0.5" stroke-miterlimit="10" x1="405" y1="171" x2="477" y2="171"/>
<line fill="none" stroke="#0081CD" stroke-width="2" stroke-miterlimit="10" x1="405" y1="153" x2="477" y2="153"/>
<line fill="none" stroke="#0081CD" stroke-width="0.5" stroke-miterlimit="10" x1="405" y1="135" x2="477" y2="135"/>
<line fill="none" stroke="#0081CD" stroke-width="0.5" stroke-miterlimit="10" x1="405" y1="116.999" x2="477" y2="116.999"/>
<line fill="none" stroke="#0081CD" stroke-width="0.5" stroke-miterlimit="10" x1="405" y1="98.999" x2="477" y2="98.999"/>
<line fill="none" stroke="#0081CD" stroke-width="0.5" stroke-miterlimit="10" x1="405" y1="80.999" x2="477" y2="80.999"/>
<line fill="none" stroke="#0081CD" stroke-width="0.5" stroke-miterlimit="10" x1="405" y1="63" x2="477" y2="63"/>
<line fill="none" stroke="#0081CD" stroke-width="0.5" stroke-miterlimit="10" x1="405" y1="45" x2="477" y2="45"/>
<line fill="none" stroke="#0081CD" stroke-width="2" stroke-miterlimit="10" x1="405" y1="27" x2="477" y2="27"/>
<line fill="none" stroke="#0081CD" stroke-width="2" stroke-miterlimit="10" x1="423" y1="207" x2="423" y2="9"/>
<line fill="none" stroke="#0081CD" stroke-width="2" stroke-miterlimit="10" x1="441" y1="207" x2="441" y2="9"/>
<line fill="none" stroke="#0081CD" stroke-width="2" stroke-miterlimit="10" x1="459" y1="207" x2="459" y2="9"/>
<g>
	<path d="M18.89,175.699c0.789,1.523,1.184,3.273,1.184,5.25c0,1.555-0.242,3.02-0.727,4.395c-0.914,2.586-2.496,3.879-4.746,3.879
		c-1.539,0-2.805-0.699-3.797-2.098c-1.062-1.492-1.594-3.52-1.594-6.082c0-2.016,0.355-3.75,1.066-5.203
		c0.961-1.977,2.438-2.965,4.43-2.965C16.503,172.875,17.898,173.816,18.89,175.699z M17.109,186.669
		c0.43-1.258,0.645-3.076,0.645-5.457c0-1.897-0.129-3.411-0.387-4.543c-0.484-2.108-1.391-3.162-2.719-3.162
		s-2.238,1.085-2.73,3.255c-0.258,1.155-0.387,2.678-0.387,4.567c0,1.771,0.133,3.188,0.398,4.25c0.5,1.983,1.438,2.975,2.812,2.975
		C15.89,188.554,16.679,187.925,17.109,186.669z"/>
</g>
<g>
	<path d="M48.89,211.699c0.789,1.523,1.184,3.273,1.184,5.25c0,1.555-0.242,3.02-0.727,4.395c-0.914,2.586-2.496,3.879-4.746,3.879
		c-1.539,0-2.805-0.699-3.797-2.098c-1.062-1.492-1.594-3.52-1.594-6.082c0-2.016,0.355-3.75,1.066-5.203
		c0.961-1.977,2.438-2.965,4.43-2.965C46.503,208.875,47.898,209.816,48.89,211.699z M47.109,222.669
		c0.43-1.258,0.645-3.076,0.645-5.457c0-1.897-0.129-3.411-0.387-4.543c-0.484-2.108-1.391-3.162-2.719-3.162
		s-2.238,1.085-2.73,3.255c-0.258,1.155-0.387,2.678-0.387,4.567c0,1.771,0.133,3.188,0.398,4.25c0.5,1.983,1.438,2.975,2.812,2.975
		C45.89,224.554,46.679,223.925,47.109,222.669z"/>
</g>
<g>
	<path d="M426.89,211.699c0.789,1.523,1.184,3.273,1.184,5.25c0,1.555-0.242,3.02-0.727,4.395c-0.914,2.586-2.496,3.879-4.746,3.879
		c-1.539,0-2.805-0.699-3.797-2.098c-1.062-1.492-1.594-3.52-1.594-6.082c0-2.016,0.355-3.75,1.066-5.203
		c0.961-1.977,2.438-2.965,4.43-2.965C424.503,208.875,425.898,209.816,426.89,211.699z M425.109,222.669
		c0.43-1.258,0.645-3.076,0.645-5.457c0-1.897-0.129-3.411-0.387-4.543c-0.484-2.108-1.391-3.162-2.719-3.162
		s-2.238,1.085-2.73,3.255c-0.258,1.155-0.387,2.678-0.387,4.567c0,1.771,0.133,3.188,0.398,4.25c0.5,1.983,1.438,2.975,2.812,2.975
		C423.89,224.554,424.679,223.925,425.109,222.669z"/>
</g>
<g>
	<path d="M118.154,208.986c0.004,0.02,0.006,0.064,0.006,0.135v14.109c0,0.602,0.161,0.984,0.483,1.148s0.922,0.262,1.802,0.293V225
		h-6.621v-0.352c0.945-0.047,1.562-0.176,1.852-0.387s0.434-0.668,0.434-1.371v-10.852c0-0.375-0.047-0.66-0.141-0.855
		s-0.297-0.293-0.609-0.293c-0.203,0-0.467,0.057-0.791,0.17s-0.627,0.232-0.908,0.357v-0.328l4.301-2.191h0.141
		C118.132,208.937,118.15,208.966,118.154,208.986z"/>
</g>
<g>
	<path d="M442.154,208.986c0.004,0.02,0.006,0.064,0.006,0.135v14.109c0,0.602,0.16,0.984,0.482,1.148s0.922,0.262,1.803,0.293V225
		h-6.621v-0.352c0.945-0.047,1.562-0.176,1.852-0.387s0.434-0.668,0.434-1.371v-10.852c0-0.375-0.047-0.66-0.141-0.855
		s-0.297-0.293-0.609-0.293c-0.203,0-0.467,0.057-0.791,0.17s-0.627,0.232-0.908,0.357v-0.328l4.301-2.191h0.141
		C442.132,208.937,442.15,208.966,442.154,208.986z"/>
</g>
<g>
	<path d="M183.714,224.73c2.859-2.967,4.801-5.145,5.824-6.534s1.535-2.744,1.535-4.062c0-1.155-0.312-2.035-0.938-2.641
		c-0.625-0.604-1.371-0.907-2.238-0.907c-1.07,0-1.938,0.391-2.602,1.171c-0.367,0.43-0.719,1.089-1.055,1.979l-0.504-0.105
		c0.391-1.796,1.053-3.043,1.986-3.742c0.934-0.698,1.936-1.048,3.006-1.048c1.32,0,2.389,0.416,3.205,1.247s1.225,1.849,1.225,3.05
		c0,1.28-0.441,2.514-1.325,3.7s-2.802,3.298-5.756,6.335h5.38c0.75,0,1.278-0.09,1.583-0.27c0.305-0.179,0.649-0.616,1.032-1.311
		l0.305,0.14L193.078,225h-9.363V224.73z"/>
</g>
<g>
	<path d="M453.714,224.73c2.859-2.967,4.801-5.145,5.824-6.534s1.535-2.744,1.535-4.062c0-1.155-0.312-2.035-0.938-2.641
		c-0.625-0.604-1.371-0.907-2.238-0.907c-1.07,0-1.938,0.391-2.602,1.171c-0.367,0.43-0.719,1.089-1.055,1.979l-0.504-0.105
		c0.391-1.796,1.053-3.043,1.986-3.742c0.934-0.698,1.936-1.048,3.006-1.048c1.32,0,2.389,0.416,3.205,1.247s1.225,1.849,1.225,3.05
		c0,1.28-0.441,2.514-1.325,3.7s-2.802,3.298-5.756,6.335h5.38c0.75,0,1.278-0.09,1.583-0.27c0.305-0.179,0.649-0.616,1.032-1.311
		l0.305,0.14L463.078,225h-9.363V224.73z"/>
</g>
<g>
	<path d="M394.154,181.986c0.004,0.02,0.006,0.064,0.006,0.135v14.109c0,0.602,0.16,0.984,0.482,1.148s0.922,0.262,1.803,0.293V198
		h-6.621v-0.352c0.945-0.047,1.562-0.176,1.852-0.387s0.434-0.668,0.434-1.371v-10.852c0-0.375-0.047-0.66-0.141-0.855
		s-0.297-0.293-0.609-0.293c-0.203,0-0.467,0.057-0.791,0.17s-0.627,0.232-0.908,0.357v-0.328l4.301-2.191h0.141
		C394.132,181.937,394.15,181.966,394.154,181.986z"/>
</g>
<g>
	<path d="M16.153,100.985c0.004,0.02,0.006,0.064,0.006,0.135v14.109c0,0.602,0.161,0.984,0.483,1.148s0.922,0.262,1.802,0.293
		v0.328h-6.621v-0.352c0.945-0.047,1.562-0.176,1.852-0.387s0.434-0.668,0.434-1.371v-10.852c0-0.375-0.047-0.66-0.141-0.855
		s-0.297-0.293-0.609-0.293c-0.203,0-0.467,0.057-0.791,0.17s-0.627,0.232-0.908,0.357v-0.328l4.301-2.191h0.141
		C16.132,100.937,16.149,100.966,16.153,100.985z"/>
</g>
<g>
	<path d="M9.714,44.73c2.859-2.967,4.801-5.145,5.824-6.534s1.535-2.744,1.535-4.062c0-1.155-0.312-2.035-0.938-2.641
		c-0.625-0.604-1.371-0.907-2.238-0.907c-1.07,0-1.938,0.391-2.602,1.171c-0.367,0.43-0.719,1.089-1.055,1.979l-0.504-0.105
		c0.391-1.796,1.053-3.043,1.986-3.742c0.934-0.698,1.936-1.048,3.006-1.048c1.32,0,2.389,0.416,3.205,1.247s1.225,1.849,1.225,3.05
		c0,1.28-0.441,2.514-1.325,3.7s-2.802,3.298-5.756,6.335h5.38c0.75,0,1.278-0.09,1.583-0.27c0.305-0.179,0.649-0.616,1.032-1.311
		l0.305,0.14L19.078,45H9.714V44.73z"/>
</g>
<g>
	<path d="M390.568,160.634c0.707,0.449,1.307,0.674,1.799,0.674c1.094,0,1.906-0.371,2.438-1.109
		c0.531-0.74,0.797-1.543,0.797-2.412c0-0.838-0.215-1.572-0.645-2.207c-0.727-1.072-1.953-1.607-3.68-1.607
		c-0.102,0-0.199,0.002-0.293,0.006s-0.203,0.014-0.328,0.029l-0.023-0.305c1.25-0.453,2.234-0.973,2.953-1.559
		s1.078-1.359,1.078-2.32c0-0.852-0.283-1.5-0.85-1.945s-1.213-0.668-1.939-0.668c-0.859,0-1.617,0.316-2.273,0.949
		c-0.359,0.344-0.746,0.875-1.16,1.594l-0.363-0.082c0.312-1.188,0.895-2.137,1.746-2.848s1.836-1.066,2.953-1.066
		c1.195,0,2.119,0.328,2.771,0.984s0.979,1.414,0.979,2.273c0,0.758-0.27,1.453-0.809,2.086c-0.305,0.359-0.777,0.762-1.418,1.207
		c0.75,0.32,1.352,0.695,1.805,1.125c0.852,0.82,1.277,1.859,1.277,3.117c0,1.484-0.584,2.793-1.752,3.926s-2.83,1.699-4.986,1.699
		c-0.961,0-1.635-0.143-2.021-0.428s-0.58-0.592-0.58-0.92c0-0.203,0.064-0.398,0.193-0.586s0.338-0.281,0.627-0.281
		C389.292,159.96,389.861,160.185,390.568,160.634z"/>
</g>
<g>
	<path d="M396.644,21.896c0.938,1.371,1.406,2.9,1.406,4.588c0,1.188-0.223,2.395-0.668,3.621s-1.094,2.32-1.945,3.281
		c-0.992,1.109-2.25,1.934-3.773,2.473c-0.852,0.305-1.926,0.539-3.223,0.703l-0.117-0.469c0.812-0.188,1.49-0.387,2.03-0.598
		c0.97-0.383,1.749-0.852,2.335-1.406c0.83-0.789,1.492-1.67,1.99-2.643c0.496-0.973,0.808-1.787,0.934-2.443l-0.412,0.302
		c-0.578,0.434-1.26,0.732-2.041,0.895c-0.407,0.094-0.779,0.14-1.115,0.14c-1.33,0-2.385-0.47-3.163-1.41s-1.167-2.062-1.167-3.366
		c0-1.662,0.463-3.031,1.389-4.108s2.111-1.615,3.557-1.615C394.378,19.839,395.707,20.525,396.644,21.896z M394.643,28.839
		c0.567-0.297,0.891-0.547,0.969-0.75c0.031-0.078,0.06-0.369,0.083-0.873s0.035-0.912,0.035-1.225c0-1.625-0.274-2.945-0.822-3.961
		c-0.549-1.016-1.351-1.523-2.408-1.523c-0.767,0-1.387,0.348-1.86,1.043s-0.71,1.734-0.71,3.117c0,1.141,0.221,2.195,0.663,3.164
		s1.243,1.453,2.401,1.453C393.525,29.285,394.076,29.136,394.643,28.839z"/>
</g>
<circle fill="#BC1E47" stroke="#000000" cx="45" cy="108" r="6"/>
<circle fill="#BC1E47" stroke="#000000" cx="117" cy="180" r="6"/>
<circle fill="#BC1E47" stroke="#000000" cx="189" cy="36" r="6"/>
<circle fill="#BC1E47" stroke="#000000" cx="423" cy="153" r="6"/>
<circle fill="#BC1E47" stroke="#000000" cx="441" cy="189" r="6"/>
<circle fill="#BC1E47" stroke="#000000" cx="459" cy="27" r="6"/>
</svg>
