<svg xmlns="http://www.w3.org/2000/svg" width="711" height="351">
    <ellipse fill="none" stroke="#015353" cx="355.486" cy="175.671" rx="345.801" ry="168.702"/>
    <path fill="#FFF" stroke="#015353" d="M485.257 142.847c0 36.257-58.101 65.649-129.771 65.649s-129.771-29.393-129.771-65.649"/>
    <path fill="#FFF" d="M355.487 142.846c-48.033 0-89.968 13.203-112.406 32.826 22.438 19.622 64.373 32.825 112.405 32.825 48.033 0 89.968-13.203 112.407-32.825-22.439-19.624-64.373-32.826-112.406-32.826z"/>
    <path fill="none" stroke="#015353" d="M355.487 142.846c-48.033 0-89.968 13.203-112.406 32.826 22.438 19.622 64.373 32.825 112.405 32.825 48.033 0 89.968-13.203 112.407-32.825-22.439-19.624-64.373-32.826-112.406-32.826z"/>
    <path d="M336.25 207.5c4.28 0 7.75 30.668 7.75 68.5 0 37.831-3.47 68.5-7.75 68.5m40-137c4.28 0 7.75 30.668 7.75 68.5 0 37.831-3.47 68.5-7.75 68.5m-78.029-141.668c-9.16 35.115-87.023 88.55-106.87 122.138m78.626-131.298c-13.74 34.352-120.61 62.596-147.328 106.87" fill="none" stroke="#E9AAAA" stroke-width="2" stroke-dasharray="4"/>
    <g fill="none" stroke="#BF0000" stroke-width="2">
        <path d="M312.154 228.889l19.656-11.349 19.656 11.349v22.696l-19.656 11.349-19.656-11.349zm39.312 0l19.657-11.349 19.656 11.349v22.696l-19.656 11.349-19.657-11.349zm19.657 34.045l19.656-11.349 19.657 11.349v22.696l-19.657 11.349-19.656-11.349z"/>
        <path d="M292.498 262.934l19.656-11.349 19.656 11.349v22.696l-19.656 11.349-19.656-11.349zm39.312 0l19.656-11.349 19.657 11.349v22.696l-19.657 11.349-19.656-11.349z"/>
        <path d="M312.154 296.979l19.656-11.349 19.656 11.349v22.696l-19.656 11.348-19.656-11.348zm39.312 0l19.657-11.349 19.656 11.349v22.696l-19.656 11.348-19.657-11.348zM332.5 217.5l3.5-8.5m35.5 8.5l3-9m-43 122.5l4 13m35.5-13l5.5 12.5m14.279-114.611c120.419-30.637 198.281-113.843-29.199-116.896-227.481-3.053-255.725 54.961-230.534 91.604 25.191 36.641 98.476 86.206 161.452 82.034"/>
        <path d="M410.436 262.934c118.32-40.254 232.061-190.636-40.459-186.056-272.519 4.58-301.526 76.335-275.572 116.03 25.954 39.695 75.957 98.571 217.749 126.767m0-90.786c-10.879-4.683-13.169-26.057-13.169-26.057m-6.487 60.102c-10.307-16.59-26.337-37.965-22.521-70.025"/>
        <path d="M410.436 285.63c81.679-12.568 315.267-227.836-55.726-230.126S65.397 189.092 78.374 204.359c12.977 15.267 113.741 102.29 113.741 118.32"/>
        <path d="M390.779 319.675c128.053-40.507 392.938-299.286-36.833-287.072S51.657 209.702 64.634 221.916s58.016 60.306 57.252 76.336"/>
    </g>
    <g fill="red" stroke="#000" stroke-width="2">
        <circle cx="371" cy="217.334" r="2.5"/>
        <circle cx="351.333" cy="228.666" r="2.5"/>
        <circle cx="332" cy="217.334" r="2.5"/>
        <circle cx="312" cy="228.334" r="2.5"/>
        <circle cx="312" cy="251.667" r="2.5"/>
        <circle cx="332" cy="262.667" r="2.5"/>
        <circle cx="351" cy="251.667" r="2.5"/>
        <circle cx="370.667" cy="262.333" r="2.5"/>
        <circle cx="390.667" cy="228.334" r="2.5"/>
        <circle cx="390.334" cy="251.667" r="2.5"/>
        <circle cx="410" cy="262.667" r="2.5"/>
        <circle cx="410.334" cy="285.333" r="2.5"/>
        <circle cx="292.333" cy="262" r="2.5"/>
        <circle cx="292" cy="285.333" r="2.5"/>
        <circle cx="312" cy="296.333" r="2.5"/>
        <circle cx="331.667" cy="286" r="2.5"/>
        <circle cx="351.333" cy="296.667" r="2.5"/>
        <circle cx="371" cy="285.333" r="2.5"/>
        <circle cx="390.667" cy="297" r="2.5"/>
        <circle cx="390.667" cy="319.333" r="2.5"/>
        <circle cx="370.667" cy="331" r="2.5"/>
        <circle cx="351.333" cy="319.667" r="2.5"/>
        <circle cx="331.333" cy="330.667" r="2.5"/>
        <circle cx="312" cy="319.333" r="2.5"/>
    </g>
</svg>
