<svg xmlns="http://www.w3.org/2000/svg" width="711" height="351">
    <ellipse fill="none" stroke="#015353" cx="355.486" cy="175.671" rx="345.801" ry="168.702"/>
    <path fill="#FFF" stroke="#015353" d="M485.257 142.847c0 36.257-58.101 65.649-129.771 65.649s-129.771-29.393-129.771-65.649"/>
    <path fill="#FFF" d="M355.487 142.846c-48.033 0-89.968 13.203-112.406 32.826 22.438 19.622 64.373 32.825 112.405 32.825 48.033 0 89.968-13.203 112.407-32.825-22.439-19.624-64.373-32.826-112.406-32.826z"/>
    <path fill="none" stroke="#015353" d="M355.487 142.846c-48.033 0-89.968 13.203-112.406 32.826 22.438 19.622 64.373 32.825 112.405 32.825 48.033 0 89.968-13.203 112.407-32.825-22.439-19.624-64.373-32.826-112.406-32.826z"/>
    <path fill="none" stroke="#E9AAAA" stroke-width="1.5" stroke-dasharray="4" d="M260 188c12 27 17 57-26 88s-32 36-31 49"/>
    <path d="M375 144c-12-42-80-61-102-133m186 158c99 66 173-90 86-134M443 190c-106 53 219 139 258-3m-362 21c37 10 102 119 154 121M262 162c-87-68-181-12-229-45" fill="none" stroke="#E9AAAA" stroke-width="2" stroke-dasharray="4"/>
    <path fill="none" stroke="#BF0000" stroke-width="1.5" d="M79 180c-30-9-46-65-46-65m203-75c7-18 38-29 38-29m224 35c12-20 47-12 47-12m109 127c29 1 46 26 46 26M508 295c2 16-16 35-16 35m-181-91c6-20 29-31 29-31"/>
    <path fill="none" stroke="#BF0000" stroke-width="1.5" d="M119 248c59-16 141 79 256 27s140-79 131-103"/>
    <path fill="none" stroke="#BF0000" stroke-width="1.5" d="M108 92c31 34 44 154 113 168s173 5 179-23"/>
    <path fill="none" stroke="#BF0000" stroke-width="1.5" d="M358 27c-2 21-238 36-202 135s83 83 99 67"/>
    <path fill="none" stroke="#BF0000" stroke-width="1.5" d="M596 92c-35 5-310-63-382-1s-19 65-19 65"/>
    <path fill="none" stroke="#BF0000" stroke-width="1.5" d="M623 232c-25-29-17-129-130-145s-184-18-186 7"/>
    <g fill="none" stroke="#BF0000" stroke-width="3">
        <path d="M311 239l89-2 69-31 37-34-5-41-32-21-76-15-86-1-86 24-26 38 18 40 42 33z"/>
        <path d="M358 319l150-24 115-63 31-71-58-69-98-46-140-19-122 13-128 52-29 88 40 68 115 60z"/>
    </g>
    <path fill="none" stroke="#BF0000" stroke-width="1.5" d="M358 319c27-46 209-91 203-147s-46-84-92-62M234 308l-31 18m10-130c23-10 48-8 48-8m-40-70c24 14 41 45 41 45m131-68c-15 24-16 47-16 47m124-11c-32 3-45 24-44 35m12 40c-6-9-7-17-24-16"/>
    <g fill="red" stroke="#000" stroke-width="2">
        <circle cx="79" cy="180" r="6"/>
        <circle cx="358" cy="27" r="6"/>
        <circle cx="654" cy="161" r="6"/>
        <circle cx="358" cy="319" r="6"/>
        <circle cx="234" cy="308" r="6"/>
        <circle cx="119" cy="248" r="6"/>
        <circle cx="108" cy="92" r="6"/>
        <circle cx="236" cy="40" r="6"/>
        <circle cx="498" cy="46" r="6"/>
        <circle cx="596" cy="92" r="6"/>
        <circle cx="623" cy="232" r="6"/>
        <circle cx="508" cy="295" r="6"/>
        <circle cx="311" cy="239" r="6"/>
        <circle cx="400" cy="237" r="6"/>
        <circle cx="506" cy="172" r="6"/>
        <circle cx="469" cy="110" r="6"/>
        <circle cx="307" cy="94" r="6"/>
        <circle cx="195" cy="156" r="6"/>
        <circle cx="213" cy="196" r="6"/>
        <circle cx="255" cy="229" r="6"/>
        <circle cx="221" cy="118" r="6"/>
        <circle cx="393" cy="95" r="6"/>
        <circle cx="501" cy="131" r="6"/>
        <circle cx="469" cy="206" r="6"/>
    </g>
</svg>
