<svg xmlns="http://www.w3.org/2000/svg" width="333" height="333">
    <g fill="none" stroke="#000">
        <path d="M127.677 317.486l-69.841-40.323-40.322-69.841v-80.645l40.322-69.841 69.841-40.322h80.645l69.841 40.322 40.323 69.841v80.645l-40.323 69.841-69.841 40.323z"/>
        <path d="M145.399 82.654l84.346 146.091-146.091-84.346h168.692l-146.092 84.346 84.347-146.091v168.692l-84.347-146.092 146.092 84.347H83.654l146.091-84.347-84.346 146.092zm-17.722-66.14l17.722 66.14m62.923-66.14l-17.721 66.14m87.562-25.818l-48.418 48.418m88.741 21.423l-66.14 17.722m66.14 62.924l-66.14-17.722m25.817 87.562l-48.418-48.418m-21.423 88.741l-17.721-66.14m-62.924 66.14l17.722-66.14m-87.563 25.817l48.418-48.418m-88.74-21.422l66.14-17.722m-66.14-62.924l66.14 17.722M57.836 56.836l48.418 48.418"/>
    </g>
    <g fill="#33F" stroke="#000">
        <circle cx="127.677" cy="16.514" r="5"/>
        <circle cx="145.399" cy="82.654" r="5"/>
        <circle cx="208.322" cy="16.514" r="5"/>
        <circle cx="190.601" cy="82.654" r="5"/>
        <circle cx="278.163" cy="56.836" r="5"/>
        <circle cx="229.745" cy="105.254" r="5"/>
        <circle cx="318.486" cy="126.677" r="5"/>
        <circle cx="252.346" cy="144.399" r="5"/>
        <circle cx="318.486" cy="207.323" r="5"/>
        <circle cx="252.346" cy="189.601" r="5"/>
        <circle cx="278.163" cy="277.163" r="5"/>
        <circle cx="229.745" cy="228.745" r="5"/>
        <circle cx="190.601" cy="251.346" r="5"/>
        <circle cx="208.322" cy="317.486" r="5"/>
        <circle cx="145.399" cy="251.346" r="5"/>
        <circle cx="127.677" cy="317.486" r="5"/>
        <circle cx="106.254" cy="228.745" r="5"/>
        <circle cx="57.836" cy="277.163" r="5"/>
        <circle cx="83.654" cy="189.601" r="5"/>
        <circle cx="17.514" cy="207.323" r="5"/>
        <circle cx="83.654" cy="144.399" r="5"/>
        <circle cx="17.514" cy="126.677" r="5"/>
        <circle cx="106.254" cy="105.254" r="5"/>
        <circle cx="57.836" cy="56.836" r="5"/>
    </g>
</svg>
