<svg xmlns="http://www.w3.org/2000/svg" width="432" height="432"><g fill="none" stroke-width=".5"><path stroke="#000" d="M216 216h49.039M216 216l-24.52-42.469M216 216l-24.52 42.47M309.007 216h-43.968m43.968 0a220.052 220.052 0 0 0 21.351 30.642m-.001-61.284A220.137 220.137 0 0 0 309.006 216m-176.722-83.716a220.055 220.055 0 0 0 37.212 3.169m.001.001l21.984 38.077m-21.984-38.077a220.079 220.079 0 0 0 15.861-33.812m-15.861 194.905c-12.472 0-24.92 1.06-37.212 3.169m53.073 30.641a220.068 220.068 0 0 0-15.861-33.811m0 .001l21.984-38.077m181.857 5.073a127.049 127.049 0 0 0-22.175 4.899m-20.806-21.8a219.975 219.975 0 0 0 20.806 21.801m0-.001a80.515 80.515 0 0 0-1.543 24.703m1.543-129.587a127.011 127.011 0 0 0 22.175 4.9m-23.718-29.604a80.51 80.51 0 0 0 1.543 24.703m0 .001a220.074 220.074 0 0 0-20.806 21.8M193.835 72.724A80.572 80.572 0 0 0 216 61.709m-37.496-5.739c4.6 6.031 9.73 11.638 15.331 16.754m-8.477 28.918a220.118 220.118 0 0 0 8.477-28.918m-90.833 52.443a220.1 220.1 0 0 0 29.282 7.118m-29.282-7.118a127.048 127.048 0 0 0-6.844-21.654M82.38 138.854a80.553 80.553 0 0 0 20.622-13.688m29.282 174.55a219.903 219.903 0 0 0-29.282 7.117m0 0a80.553 80.553 0 0 0-20.622-13.688m13.778 35.342a127.108 127.108 0 0 0 6.844-21.654M216 370.291a80.575 80.575 0 0 0-22.165-11.016m0 0a220.208 220.208 0 0 0-8.477-28.918m8.477 28.918a127.148 127.148 0 0 0-15.331 16.754m175.534-63a46.504 46.504 0 0 0-8.537 15.122m22.913-11.519a110.1 110.1 0 0 0-14.376-3.603m-4.418-19.883a80.54 80.54 0 0 0 4.418 19.884m35.516-50.526c-5.422 0-10.839.347-16.216 1.039m16.216-1.039a46.492 46.492 0 0 0 6.886 9.118m1.078-18.477a34.071 34.071 0 0 0-7.964 9.359m-16.216-94.046a127.048 127.048 0 0 0 16.216 1.039m0 0a34.035 34.035 0 0 0 7.964 9.358m-1.079-18.477a46.498 46.498 0 0 0-6.886 9.119m-44.052-65.648a46.522 46.522 0 0 0 8.537 15.122m0 0a80.54 80.54 0 0 0-4.418 19.884m4.418-19.884a109.94 109.94 0 0 0 14.376-3.603M216 61.709a80.571 80.571 0 0 0 15.011-13.769m0 0a46.483 46.483 0 0 0 17.364-.168M226.942 33.69a110.098 110.098 0 0 0 4.068 14.25m-73.6-7.711a34.053 34.053 0 0 0 12.087 2.218m0-.001a127.015 127.015 0 0 0 9.008 13.524m-9.008-13.524a46.463 46.463 0 0 0 4.454-10.522M77.61 87.546a46.466 46.466 0 0 0 11.339 1.404m7.209 14.563a127.084 127.084 0 0 0-7.208-14.562m0-.001a34.058 34.058 0 0 0 4.123-11.577M62.951 144.97a110.02 110.02 0 0 0-10.308-10.648m1.481 25.602a46.51 46.51 0 0 0 8.828-14.955m-.001.001a80.569 80.569 0 0 0 19.429-6.115M52.644 297.679a110.14 110.14 0 0 0 10.308-10.648m19.428 6.115a80.51 80.51 0 0 0-19.429-6.115m0-.001a46.497 46.497 0 0 0-8.828-14.954M88.95 343.05c-3.823 0-7.632.472-11.339 1.404m15.462 10.173c-.661-4.077-2.058-8-4.123-11.577m0 0a127.001 127.001 0 0 0 7.208-14.562m73.339 61.066c-4.13 0-8.226.751-12.087 2.218m16.541 8.304a46.424 46.424 0 0 0-4.454-10.522m9.007-13.525a127.218 127.218 0 0 0-9.008 13.524m61.515-5.493A80.543 80.543 0 0 0 216 370.291m15.011 13.769a109.94 109.94 0 0 0-4.068 14.25m21.432-14.082a46.429 46.429 0 0 0-17.364-.168m114.49-55.909a46.51 46.51 0 0 0-2.451 14.898m0 .001a34.058 34.058 0 0 0-10.169 8.998m19.452-3.088a126.702 126.702 0 0 0-9.283-5.91m41.178-26.113a19.664 19.664 0 0 0-6.467 3.195m0 0a109.723 109.723 0 0 0-9.347-3.5m9.347 3.5a23.894 23.894 0 0 0 1.791 6.628m27.995-51.495c-1.772.299-3.5.817-5.143 1.545m-5.965-5.188a46.441 46.441 0 0 0 5.965 5.188m0 0a14.749 14.749 0 0 0 .555 5.87m2.704-34.461a40.375 40.375 0 0 0 5.588 3.515m-3.046-10.876a18.436 18.436 0 0 0-2.542 7.36m0 .001a34.053 34.053 0 0 0-8.146 4.926m13.734-72.878a40.281 40.281 0 0 0-5.588 3.515m-8.145-4.927a34.02 34.02 0 0 0 8.146 4.926m-.001 0a18.436 18.436 0 0 0 2.542 7.36m-5.801-35.951a21.574 21.574 0 0 0 5.143 1.545m-4.588-7.415a14.739 14.739 0 0 0-.555 5.87m0 0a46.441 46.441 0 0 0-5.965 5.188m-18.678-48.51a19.657 19.657 0 0 0 6.467 3.196m-4.676-9.824a23.903 23.903 0 0 0-1.791 6.628m-9.347 3.5a110.405 110.405 0 0 0 9.347-3.5M343.05 88.95c0 5.066.828 10.099 2.451 14.898M343.05 88.95a127.038 127.038 0 0 0 9.283-5.91m-19.452-3.088a34.058 34.058 0 0 0 10.169 8.998m-80.07-57.497a126.871 126.871 0 0 0-.477 10.994m-14.128 5.326a46.493 46.493 0 0 0 14.129-5.327m0 0a34.048 34.048 0 0 0 12.877 4.308m-50.08-22.909a23.963 23.963 0 0 0 4.845-4.864m-10.846.861a19.64 19.64 0 0 0 6.001 4.002m0 .001c.398 3.305.946 6.59 1.642 9.845m-51.483-9.525a14.722 14.722 0 0 0 4.806-3.416m-8.715-.266a21.577 21.577 0 0 0 3.909 3.681m-1.509 7.76a46.458 46.458 0 0 0 1.51-7.759m-26.39 11.473a34.08 34.08 0 0 0 8.339 4.591m-8.339-4.591a40.399 40.399 0 0 0 .249-6.596m-7.895 8.074a18.441 18.441 0 0 0 7.645-1.479M93.267 67.856a18.45 18.45 0 0 0 5.103-5.882m-10.942 2.8a40.309 40.309 0 0 0 5.838 3.082m-.193 9.517a34.001 34.001 0 0 0 .194-9.516M70.135 84.974a46.535 46.535 0 0 0 7.475 2.572m-7.475-2.572a21.582 21.582 0 0 0-1.233-5.226m-4.128 7.68a14.762 14.762 0 0 0 5.361-2.454m-17.491 49.348a110.332 110.332 0 0 0-7.705-6.345m-.001 0a19.648 19.648 0 0 0-.466-7.198m-6.169 8.961a23.918 23.918 0 0 0 6.635-1.763m-5.2 54.825a34.038 34.038 0 0 0 2.708-13.305m0 0a46.527 46.527 0 0 0 11.677-9.572m-11.677 9.572a126.978 126.978 0 0 0-9.759-5.084m9.759 98.091c0-4.572-.921-9.098-2.708-13.306m-7.051 18.39a126.978 126.978 0 0 0 9.759-5.084m11.678 9.572a46.502 46.502 0 0 0-11.677-9.572m2.491 41.518a110.036 110.036 0 0 0 7.705-6.344m-7.705 6.344a23.953 23.953 0 0 0-6.635-1.763m6.17 8.962a19.657 19.657 0 0 0 .466-7.199m32.671 40.432a46.535 46.535 0 0 0-7.475 2.572m0 0a14.748 14.748 0 0 0-5.361-2.455m4.128 7.681a21.536 21.536 0 0 0 1.233-5.226m28.235 22.999a18.44 18.44 0 0 0-5.103-5.882m0 .001a34.01 34.01 0 0 0-.194-9.516m.194 9.516a40.21 40.21 0 0 0-5.838 3.082m69.981 24.545a34.047 34.047 0 0 0-8.339 4.591m0 0a18.441 18.441 0 0 0-7.645-1.478m7.894 8.075a40.386 40.386 0 0 0-.249-6.596m31.196 14.888a14.751 14.751 0 0 0-4.806-3.416m-.001.001a46.45 46.45 0 0 0-1.51-7.76m1.51 7.759a21.618 21.618 0 0 0-3.909 3.682m58.595 1.503a23.938 23.938 0 0 0-4.845-4.864m1.641-9.846a110.757 110.757 0 0 0-1.642 9.846m.001-.001a19.659 19.659 0 0 0-6.001 4.002m43.204-22.603c0 3.67.158 7.338.477 10.993m12.4-15.301a34.03 34.03 0 0 0-12.877 4.308m0 0a46.491 46.491 0 0 0-14.129-5.326m85.255-14.203a217.22 217.22 0 0 0-6.312-6.775m5.563-11.202a34.025 34.025 0 0 0-5.562 11.202m-.001 0a29.467 29.467 0 0 0-10.687 5.164m41.486-15.16a15.78 15.78 0 0 0 .066 4.929m4.915-5.931a14.026 14.026 0 0 0-4.98 1.002m-.001 0a127.207 127.207 0 0 0-5.784-4.294m29.523-18.052a8.508 8.508 0 0 0-.812 3.46m3.997-3.338a13.195 13.195 0 0 0-3.185-.122m-2.304-4.148a23.81 23.81 0 0 0 2.305 4.148m7.697-14.707c-1.801 0-3.593.247-5.326.735m5.326-.735a19.57 19.57 0 0 0 2.114 2.982m.777-6.13a9.81 9.81 0 0 0-2.892 3.148m15.395-29.415a8.43 8.43 0 0 0-.805 3.594v.062m3.927-3.666a19.617 19.617 0 0 0-3.122.009m-1.989-4.105a14.725 14.725 0 0 0 1.989 4.106m6.188-11.822c-1.202 0-2.403.101-3.589.301m3.589-.301c.403.698.897 1.34 1.469 1.908m.289-3.87a6.412 6.412 0 0 0-1.758 1.962m.115-23.231a40.013 40.013 0 0 0 3.925 1.78m0 .001a7.912 7.912 0 0 0 1.042 2.885m1.463-4.342a9.862 9.862 0 0 0-2.505 1.457m-2.156-23.368a13.205 13.205 0 0 0-.453 5.784m-.001 0a18.443 18.443 0 0 0-4.361 4.929m4.361-4.929a46.442 46.442 0 0 0 4.394 1.507m-4.394-41.367a13.233 13.233 0 0 0 .453 5.784m3.941-7.29a46.347 46.347 0 0 0-4.394 1.506m-4.361-4.928a18.423 18.423 0 0 0 4.361 4.928m2.61-17.584a40.358 40.358 0 0 0-3.925 1.78m3.925-1.78a9.862 9.862 0 0 0 2.505 1.457m-1.463-4.341a7.912 7.912 0 0 0-1.042 2.885m-7.629-21.752c1.186.2 2.387.3 3.589.3m0 .001a6.4 6.4 0 0 0 1.758 1.962m-.29-3.87a9.173 9.173 0 0 0-1.469 1.908m-6.991-15.477v.062c0 1.242.274 2.47.805 3.593m-.001-.001a14.744 14.744 0 0 0-1.989 4.107m1.989-4.107a19.63 19.63 0 0 0 3.122.01m-23.842-30.16c1.733.488 3.525.735 5.326.735m0 .001a9.823 9.823 0 0 0 2.892 3.149m-.778-6.132a19.62 19.62 0 0 0-2.114 2.982m-8.509-18.166a8.49 8.49 0 0 0 .812 3.459m-.001 0a23.948 23.948 0 0 0-2.305 4.148m2.305-4.148a13.295 13.295 0 0 0 3.185-.122m-26.858-27.152a15.845 15.845 0 0 0-.066 4.929m-5.784 4.295a127.962 127.962 0 0 0 5.784-4.294m0-.001a14.03 14.03 0 0 0 4.98 1.002M327.318 68.75a220.733 220.733 0 0 0 6.312-6.775m-16.998 1.611a29.483 29.483 0 0 0 10.687 5.164m-.001 0a34.035 34.035 0 0 0 5.562 11.202M287.863 45.97a29.475 29.475 0 0 0 9.815 6.673m-7.104-15.527a220.4 220.4 0 0 0-2.711 8.854m-12.482.784a34.028 34.028 0 0 0 12.483-.784m-24.057-21.674a126.444 126.444 0 0 0-.826 7.156m.826-7.156a15.782 15.782 0 0 0 4.235-2.521m-7.594-1.292a14.076 14.076 0 0 0 3.358 3.813m-33.66-5.316a23.898 23.898 0 0 0 2.44-4.07m0 0a8.5 8.5 0 0 0 3.401-1.027m-4.889-1.792c.381.996.88 1.943 1.488 2.819m-20.759-.243c1.306.613 2.73.93 4.173.93m0 .001a19.685 19.685 0 0 0 3.3 4.245m-3.3-4.245a19.712 19.712 0 0 0 1.525-3.322m-37.258 8.473a14.757 14.757 0 0 0 2.562-3.776m0 0a8.419 8.419 0 0 0 3.567-1.13"/><path stroke="#000" d="M181.259 14.274c.451.939.976 1.842 1.57 2.698m-15.91.012c.812.356 1.69.541 2.578.541m0 0a21.538 21.538 0 0 0 2.055 2.958m-2.055-2.958a9.152 9.152 0 0 0 .918-2.226m-24.029 8.012a9.798 9.798 0 0 0 2.514 1.44m.42 4.29a40.316 40.316 0 0 0-.42-4.29m0 0a7.883 7.883 0 0 0 1.977-2.345m-15.9 13.397a46.42 46.42 0 0 0-.892-4.557m-4.345 7.057a13.208 13.208 0 0 0 5.236-2.5m.001 0a18.425 18.425 0 0 0 6.449 1.313M98.37 61.975a18.449 18.449 0 0 0 2.087-6.242m0 0a13.206 13.206 0 0 0 4.783-3.284m-8.284.233a46.523 46.523 0 0 0 3.5 3.051m-19.551 7.072l.146.001c.983 0 1.958-.184 2.874-.541m-.001.001a40.59 40.59 0 0 0 3.504 2.509m-3.504-2.509a9.787 9.787 0 0 0 .009-2.898M64.981 76.172c.778.21 1.581.317 2.387.317m1.534 3.259a21.568 21.568 0 0 0-1.534-3.259m0 0a6.422 6.422 0 0 0 .82-2.502m-7.965 13.772a19.478 19.478 0 0 0-1.552-2.709m-1.211 5.233a8.429 8.429 0 0 0 2.762-2.524m.001 0a14.777 14.777 0 0 0 4.552-.331m-25.968 28.031c1.2.226 2.418.34 3.64.34m2.026 4.98a19.657 19.657 0 0 0-2.026-4.98m-.001 0a9.823 9.823 0 0 0 1.281-4.079m-10.169 18.098a13.232 13.232 0 0 0-1.698-2.698m-.892 5.131a8.509 8.509 0 0 0 2.59-2.433m0 0a23.797 23.797 0 0 0 4.745-.078m-12.226 31.81a14.045 14.045 0 0 0-1.623-4.814m-2.679 7.222a15.774 15.774 0 0 0 4.301-2.408m6.611 2.862a127.036 127.036 0 0 0-6.61-2.862m6.741 31.67a34.029 34.029 0 0 0 6.92-10.418m-6.92 10.418a221.062 221.062 0 0 0-9.023-2.079m9.895 13.916a29.496 29.496 0 0 0-.871-11.837m6.919 55.978a34.033 34.033 0 0 0-6.92-10.419m0 0a29.483 29.483 0 0 0 .871-11.837m-9.894 13.916c3.022-.63 6.031-1.322 9.023-2.079m-8.364 36.486a14.053 14.053 0 0 0 1.623-4.814m0-.001c2.23-.892 4.435-1.846 6.61-2.862m-6.61 2.862a15.826 15.826 0 0 0-4.301-2.408m10.084 36.837a13.198 13.198 0 0 0 1.698-2.697m4.745.078a23.866 23.866 0 0 0-4.745-.078m0 0a8.521 8.521 0 0 0-2.59-2.433m11.478 16.452c-1.221 0-2.439.114-3.64.34m4.922 3.739a9.833 9.833 0 0 0-1.281-4.079m-.001 0c.9-1.56 1.582-3.235 2.026-4.98m14.199 35.729a19.741 19.741 0 0 0 1.552-2.709m4.551.33a14.77 14.77 0 0 0-4.552-.33m.001 0a8.418 8.418 0 0 0-2.762-2.524m9.907 13.794a9.12 9.12 0 0 0-2.387.317m3.207 2.186a6.433 6.433 0 0 0-.82-2.503m0 0a21.568 21.568 0 0 0 1.534-3.259m15.022 17.482a7.913 7.913 0 0 0-3.02-.54m3.03 3.438a9.867 9.867 0 0 0-.009-2.897m3.503-2.509a40.012 40.012 0 0 0-3.504 2.509m16.533 6.532a18.451 18.451 0 0 0-2.087-6.241m2.087 6.241a46.34 46.34 0 0 0-3.5 3.052m8.283.233a13.184 13.184 0 0 0-4.783-3.285m33.627 24.487a46.42 46.42 0 0 0 .892-4.557m6.449-1.313a18.447 18.447 0 0 0-6.449 1.313m.001 0a13.216 13.216 0 0 0-5.236-2.501m19.159 13.552a9.83 9.83 0 0 0-2.514 1.441m4.491.905a7.926 7.926 0 0 0-1.977-2.346m0 0c.217-1.421.357-2.853.42-4.289m20.177 11.516c-.888 0-1.765.185-2.578.541m3.496 1.684a9.169 9.169 0 0 0-.918-2.226m2.054-2.957a21.6 21.6 0 0 0-2.055 2.958m13.333.552a14.74 14.74 0 0 0-2.562-3.776m2.562 3.776a19.675 19.675 0 0 0-1.57 2.698m5.137-1.567a8.424 8.424 0 0 0-3.567-1.131M216 416.402a9.821 9.821 0 0 0-4.173.93m5.698 2.393a19.676 19.676 0 0 0-1.525-3.322m3.3-4.246a19.716 19.716 0 0 0-3.3 4.245m16.586.688a23.924 23.924 0 0 0-2.44-4.07m2.44 4.07a13.239 13.239 0 0 0-1.488 2.819m4.889-1.792a8.505 8.505 0 0 0-3.401-1.027m30.394-16.543c.207 2.394.483 4.779.826 7.156m.001.001a14.056 14.056 0 0 0-3.358 3.812m7.593-1.291a15.798 15.798 0 0 0-4.235-2.521m33.872-28.348a29.49 29.49 0 0 0-9.815 6.673m-.001 0a34.075 34.075 0 0 0-12.483-.783m12.483.783a219.904 219.904 0 0 0 2.711 8.854m18.433-17.79c-3.889 0-7.738.77-11.328 2.264m11.328-2.264l4.376 7.58m3.249-16.259a29.475 29.475 0 0 0-7.625 8.679m28.549-2.55a224.274 224.274 0 0 0-3.926-4.518m3.926 4.518a12.454 12.454 0 0 0-.734 4.035m4.895-4.038a11.795 11.795 0 0 0-4.161.003m20.627-16.36c.193 1.13.51 2.235.943 3.297m0-.001a6.046 6.046 0 0 0-1.112 2.333m3.333-1.758a9.794 9.794 0 0 0-2.221-.574m10.068-10.384a6.603 6.603 0 0 0-2.42 1.582m0 0a14.068 14.068 0 0 0-3.442-.428l-.234.002m3.676.426c.227.802.534 1.579.916 2.319m13.355-20.629c-.002.057-.002.114-.002.171 0 .873.134 1.74.397 2.572m0 0a5.05 5.05 0 0 0-1.121 1.995m2.933-1.45a12.391 12.391 0 0 0-1.812-.545m6.973-6.341a3.68 3.68 0 0 0-1.323.76m0-.001a13.137 13.137 0 0 0-2.049-.499m2.049.499c.095.459.253.903.469 1.32m7.321-12.215a5.416 5.416 0 0 0-1.562.251m-1.65-1.701c.516.6 1.066 1.168 1.65 1.701m0 0a4.284 4.284 0 0 0-.028 1.685m2.367-10.983c.57.587 1.174 1.142 1.808 1.659m-.331-4.335a6.784 6.784 0 0 0-1.477 2.676m0 0a9.812 9.812 0 0 0-3.212 1.466m11.699-22.612c.008 1.07.22 2.13.624 3.121m0 0a6.247 6.247 0 0 0-1.181 2.566m3.376-2.16a23.788 23.788 0 0 0-2.195-.405m6.395-7.411a3.595 3.595 0 0 0-1.104.878m0 0a19.819 19.819 0 0 0-1.988-.254m1.988.254c.151.422.367.818.639 1.175m4.153-10.629a4.02 4.02 0 0 0-1.014.322m-1.233-1.026c.38.378.792.721 1.232 1.026m.001 0a2.8 2.8 0 0 0 .149 1.159m.693-6.976c.34.303.703.576 1.088.818m-.403-2.297c-.339.435-.573.94-.686 1.479m.001 0a6.423 6.423 0 0 0-1.785.921m6.258-15.17a8.2 8.2 0 0 0-1.495.324m-1.439-1.758a7.954 7.954 0 0 0 1.439 1.758m0 0a4.04 4.04 0 0 0 .016 1.8m1.901-8.44c.283.334.606.632.964.887m-.188-2.125a3.443 3.443 0 0 0-.775 1.236m-.001.001a9.917 9.917 0 0 0-1.894.542m2.151-13.892c.21.661.543 1.276.981 1.813m.583-3.051a6.225 6.225 0 0 0-1.563 1.238m-2.872-.728a47.86 47.86 0 0 0 2.871.729m-4.278-12.649a13.193 13.193 0 0 0-2.533 4.629m2.533-4.629c1.252.226 2.509.421 3.77.587m-4.388-5.516a11.367 11.367 0 0 0 .618 4.929m-2.533-23.663a13.201 13.201 0 0 0 2.533 4.629m0 .001a11.357 11.357 0 0 0-.618 4.928m4.387-5.516a81.317 81.317 0 0 0-3.77.587m5.26-14.462a5.506 5.506 0 0 0-.981 1.813m0 .001a46.39 46.39 0 0 0-2.871.729m2.871-.729c.451.494.979.912 1.563 1.238m-.856-15.475a5.27 5.27 0 0 0-.964.887m-1.893-.542a9.876 9.876 0 0 0 1.894.542m-.001 0c.167.463.432.885.775 1.236m-2.692-7.877a8.2 8.2 0 0 0 1.495.324m-1.478-2.124a4.045 4.045 0 0 0-.016 1.801m-.001-.001a7.87 7.87 0 0 0-1.439 1.757m-.451-16.501a8.249 8.249 0 0 0-1.088.818m-1.785-.92a6.41 6.41 0 0 0 1.785.921m0-.001c.112.54.347 1.046.686 1.48m-1.528-7.296a4.01 4.01 0 0 0 1.014.323m-.865-1.483a2.794 2.794 0 0 0-.149 1.159m0 .001c-.44.305-.853.649-1.232 1.026m-2.546-10.158c.307.363.682.661 1.104.878m-.466-2.053a4.408 4.408 0 0 0-.639 1.175m-1.988.254c.667-.051 1.33-.135 1.988-.254m-5.29-6.532a8.442 8.442 0 0 0-.624 3.121m.624-3.121a23.73 23.73 0 0 0 2.195-.406m-3.376-2.161a6.232 6.232 0 0 0 1.181 2.567m-7.303-19.685a21.68 21.68 0 0 0-1.808 1.66m-3.212-1.465a9.83 9.83 0 0 0 3.212 1.465m0 0a6.748 6.748 0 0 0 1.477 2.675m-3.816-11.973c.506.16 1.031.245 1.562.252m-1.589-1.937a4.289 4.289 0 0 0 .028 1.685m-.001 0a19.635 19.635 0 0 0-1.65 1.702m-4.578-12.346c.383.342.834.601 1.323.759m-.854-2.08a5.125 5.125 0 0 0-.469 1.321m-2.049.499a13.25 13.25 0 0 0 2.049-.499m-5.65-5.582a8.5 8.5 0 0 0-.395 2.743m.395-2.743a12.553 12.553 0 0 0 1.812-.545m-2.933-1.451c.216.742.6 1.425 1.121 1.996m-14.666-15.567c.68.7 1.507 1.24 2.42 1.583m-1.504-3.902a12.5 12.5 0 0 0-.916 2.319m-3.676.426l.234.002c1.161 0 2.316-.144 3.442-.428m-7.648-8.801a15.7 15.7 0 0 0-.943 3.297m.943-3.297a9.796 9.796 0 0 0 2.221-.575m-3.333-1.758a6.053 6.053 0 0 0 1.112 2.333m-25.496-8.546a218.883 218.883 0 0 0 3.926-4.518m0 0a11.813 11.813 0 0 0 4.161.003m-4.896-4.038c.021 1.376.269 2.74.734 4.035m-39.876-4.813a29.481 29.481 0 0 0 11.328 2.264m0-.001a29.487 29.487 0 0 0 7.625 8.679m-7.625-8.679l4.376-7.58m-22.942-19.471a11.824 11.824 0 0 0 2.083 3.602m0 0a222.097 222.097 0 0 0-1.95 5.658m1.95-5.658a12.477 12.477 0 0 0 3.861-1.381m-26.572-12.978a9.79 9.79 0 0 0 .612 2.211m-2.383 2.465a15.837 15.837 0 0 0 2.384-2.465m0 0a6.05 6.05 0 0 0 2.576-.203m-14.023-2.02c.581-.598 1.1-1.252 1.55-1.953m-4.131.648a6.602 6.602 0 0 0 2.581 1.305m0 0a14.058 14.058 0 0 0 1.469 3.396m-22.717-10.155c.098.624.242 1.239.434 1.841m-2.178 1.714a8.537 8.537 0 0 0 2.178-1.715m0 0a5.027 5.027 0 0 0 2.289-.027m-9.948-2.073c.351-.312.656-.671.909-1.067m-2.228.3c.382.344.831.605 1.319.767m0 0c.144.689.342 1.366.593 2.023m-12.925-2.096a4.223 4.223 0 0 0 1.473-.819m-2.472-.407c.271.456.607.869.999 1.226m-.649 2.28c.262-.747.479-1.508.648-2.281m-9.221 2.625a9.834 9.834 0 0 0 2.875 2.049m-2.875-2.049c.223-.788.401-1.587.534-2.395m-3.59 2.453a6.74 6.74 0 0 0 3.055-.059m-20.91-.98c.216.712.465 1.414.746 2.104"/><path stroke="#000" d="M186.396 15.842a8.422 8.422 0 0 0 2.391-2.101m0 0a6.238 6.238 0 0 0 2.814-.26m-11.116-1.056c.29-.342.525-.727.698-1.141m-2.011.624a3.6 3.6 0 0 0 1.312.517m.001 0c.226.629.485 1.246.774 1.849m-10.571-.555c.356-.168.673-.41.929-.709m-1.716-.008c.229.272.494.514.786.717m-.272 1.581a9.11 9.11 0 0 0 .273-1.581m-5.459 2.179a6.429 6.429 0 0 0 1.69 1.086m-1.69-1.086c.092-.445.147-.897.165-1.351m-1.79 1.498a3.6 3.6 0 0 0 1.624-.146m-13.549 4.382a4.02 4.02 0 0 0 1.551-.914m-2.579-.218c.307.409.651.788 1.028 1.132m-.802 2.126a7.86 7.86 0 0 0 .802-2.125m-6.709 1.66c.425.502.899.961 1.416 1.369m-1.416-1.369c.148-.413.245-.842.287-1.278m-1.746 1.225a3.44 3.44 0 0 0 1.458.053m-10.885 9.304a46.21 46.21 0 0 0-.805-2.851m.001 0a5.49 5.49 0 0 0 1.08-1.756m-2.934 1.021c.574.343 1.2.591 1.854.735m-12.774 13.029a11.346 11.346 0 0 0 3.959-3m0 0a13.224 13.224 0 0 0 5.276-.121m-5.276.121a82.449 82.449 0 0 0-1.376-3.559m-17.5 10.104a79.28 79.28 0 0 0 2.394 2.971m-2.743 4.509a13.215 13.215 0 0 0 2.743-4.508m-.001-.001a11.347 11.347 0 0 0 4.577-1.929m-17.67 4.548a6.23 6.23 0 0 0 .291-1.882v-.09m-2.352 2.03a5.517 5.517 0 0 0 2.061-.057m0-.001a45.989 45.989 0 0 0 2.067 2.123m-13.5 4.775c.318-.376.551-.816.684-1.29m-1.934.899c.399.182.819.312 1.25.391m.478 1.911a9.828 9.828 0 0 0-.478-1.911m-4.793 4.981c.726.23 1.48.354 2.242.368m-2.242-.368a8.188 8.188 0 0 0-.467-1.457m-1.1 2.342a4.011 4.011 0 0 0 1.567-.886m-10.57 9.542c.411-.367.732-.823.939-1.333m-2.192.801c.402.212.821.39 1.252.532m.096 2.008a6.361 6.361 0 0 0-.095-2.008m-4.617 3.639a9.05 9.05 0 0 0 1.505.554m-1.505-.554a3.99 3.99 0 0 0-.228-1.04m-.851 1.49a2.8 2.8 0 0 0 1.079-.45m-4.805 9.432a19.766 19.766 0 0 0-1.214-1.595m0 .001a3.589 3.589 0 0 0 .208-1.395M56.12 83.49a4.343 4.343 0 0 0 1.337-.035m-4.645 10.154a6.226 6.226 0 0 0 1.633-2.306m0 .001a8.427 8.427 0 0 0 3.015-1.021m-3.015 1.021a24.166 24.166 0 0 0-1.449-1.698m-9.605 18.6a6.76 6.76 0 0 0 1.579-2.617m-3.92 1.881c.766.29 1.547.535 2.341.735m.337 3.515a9.797 9.797 0 0 0-.337-3.515m-6.884 6.675c.754.239 1.522.433 2.299.579m-2.299-.579a5.391 5.391 0 0 0-.562-1.478m-.883 2.344a4.232 4.232 0 0 0 1.446-.866m-4.648 12.241a13.19 13.19 0 0 0-1.456-1.524m0 0a3.667 3.667 0 0 0-.004-1.526m-1.374 1.78a5.127 5.127 0 0 0 1.378-.254m-3.177 9.652a5.054 5.054 0 0 0 1.168-1.969m0 0a8.499 8.499 0 0 0 2.574-1.029m-2.574 1.029a12.496 12.496 0 0 0-1.378-1.295m-2.563 24.75a14.101 14.101 0 0 0-2.207-2.971m0 .001a6.597 6.597 0 0 0 .16-2.888m-2.627 3.254a12.53 12.53 0 0 0 2.467-.366m-5.263 13.154a6.047 6.047 0 0 0 1.464-2.13m.001 0a15.832 15.832 0 0 0 3.327-.832m-3.327.832a9.844 9.844 0 0 0-1.609-1.636m-2.047 29.502a12.473 12.473 0 0 0 3.127-2.654m5.875 1.141a221.375 221.375 0 0 0-5.875-1.141m0 0a11.804 11.804 0 0 0-2.078-3.605M29.986 216h-8.752m12.456 10.942A29.487 29.487 0 0 0 29.986 216m0 0a29.486 29.486 0 0 0 3.704-10.943m-15.77 36.942a12.452 12.452 0 0 0-3.127-2.654m1.049 6.259A11.808 11.808 0 0 0 17.92 242m-.001-.001c1.964-.354 3.922-.734 5.875-1.141m-5.345 26.353a6.083 6.083 0 0 0-1.464-2.13m-.145 3.766a9.768 9.768 0 0 0 1.609-1.636m3.326.831a15.83 15.83 0 0 0-3.327-.831m3.799 11.024a14.101 14.101 0 0 0 2.207-2.971m-2.207 2.971a12.455 12.455 0 0 0-2.467-.366m2.627 3.254a6.598 6.598 0 0 0-.16-2.888m6.148 20.486a5.065 5.065 0 0 0-1.168-1.97m-.21 3.265c.491-.396.952-.829 1.378-1.295m2.573 1.028a8.496 8.496 0 0 0-2.574-1.028m2.01 7.682a13.354 13.354 0 0 0 1.456-1.524m-1.456 1.524a5.173 5.173 0 0 0-1.378-.254m1.374 1.781a3.665 3.665 0 0 0 .004-1.526m8.403 10.137c-.777.146-1.545.34-2.299.579m-.001 0a4.216 4.216 0 0 0-1.446-.866m.884 2.344a5.36 5.36 0 0 0 .562-1.478m8.462 9.291a6.744 6.744 0 0 0-1.579-2.617m.001.001a9.835 9.835 0 0 0 .337-3.515m-.337 3.515c-.793.2-1.575.445-2.341.734m13.395 16.167a6.222 6.222 0 0 0-1.633-2.306m.184 4.005c.509-.543.993-1.11 1.449-1.698m3.015 1.02a8.453 8.453 0 0 0-3.015-1.021m3.012 7.848c.431-.51.836-1.042 1.214-1.594m-1.214 1.594a4.444 4.444 0 0 0-1.337-.034m1.545 1.429a3.615 3.615 0 0 0-.208-1.396m7.524 7.285a9.144 9.144 0 0 0-1.505.555m0 0a2.78 2.78 0 0 0-1.079-.451m.852 1.49c.122-.335.198-.685.228-1.039m5.555 4.971a3.588 3.588 0 0 0-.939-1.333m0 0a6.42 6.42 0 0 0 .095-2.007m-.095 2.007a8.17 8.17 0 0 0-1.252.532m14.064 8.641a7.976 7.976 0 0 0-2.242.368m0 0a4.018 4.018 0 0 0-1.567-.886m1.1 2.344c.201-.471.357-.958.467-1.457m5.476 6.269a3.43 3.43 0 0 0-.684-1.289m.001 0c.223-.619.383-1.26.478-1.911m-.478 1.911a5.275 5.275 0 0 0-1.25.391m12.974 8.48v-.091c0-.639-.098-1.273-.291-1.883m2.067-2.122a47.01 47.01 0 0 0-2.067 2.122m0 0a5.52 5.52 0 0 0-2.061-.058m15.154 2.678a81.382 81.382 0 0 0-2.394 2.972m6.972-1.044a11.347 11.347 0 0 0-4.577-1.929m-.001.001a13.2 13.2 0 0 0-2.743-4.508m19.226 14.023a11.355 11.355 0 0 0-3.959-2.999m2.582 6.558a78.98 78.98 0 0 0 1.376-3.559m5.276.121a13.226 13.226 0 0 0-5.276-.121m8.816 10.03c.298-.941.567-1.893.805-2.852m-.805 2.852a6.222 6.222 0 0 0-1.854.735m2.934 1.022a5.495 5.495 0 0 0-1.08-1.757m13.106 5.084a9.75 9.75 0 0 0-1.416 1.369m0 .001a3.443 3.443 0 0 0-1.458.052m1.744 1.225a5.218 5.218 0 0 0-.287-1.277m8.261 2.574a4.02 4.02 0 0 0-1.551-.914m0 0a7.927 7.927 0 0 0-.802-2.125m.802 2.125a8.294 8.294 0 0 0-1.028 1.132m16.268 2.165a6.412 6.412 0 0 0-1.69 1.086m0 0a3.602 3.602 0 0 0-1.624-.147m1.789 1.497a8.31 8.31 0 0 0-.165-1.351m6.388 2.889a2.78 2.78 0 0 0-.929-.709m-.001 0a9.108 9.108 0 0 0-.272-1.581m.272 1.581a3.962 3.962 0 0 0-.786.717m11.282 1.717a4.427 4.427 0 0 0-.698-1.141m.774-1.848c-.289.603-.548 1.22-.774 1.849m0-.001a3.596 3.596 0 0 0-1.312.518m9.614-1.833c-.281.689-.53 1.392-.746 2.104m3.56-1.843a6.238 6.238 0 0 0-2.814-.26m0-.001a8.422 8.422 0 0 0-2.391-2.101m25.431 1.174a9.834 9.834 0 0 0-2.875 2.049m0 0a6.781 6.781 0 0 0-3.055-.059m3.589 2.454a21.627 21.627 0 0 0-.534-2.396m10.694 3.444a4.239 4.239 0 0 0-1.473-.819m.001 0a19.806 19.806 0 0 0-.648-2.28m.648 2.28a5.367 5.367 0 0 0-.999 1.227m14.24-.233a5.097 5.097 0 0 0-.909-1.066m.592-2.024c-.25.657-.448 1.334-.592 2.023m0 .001a3.686 3.686 0 0 0-1.319.767m8.978-2.869a12.557 12.557 0 0 0-.434 1.841m2.723-1.814a5.025 5.025 0 0 0-2.289-.028m0 .001a8.495 8.495 0 0 0-2.178-1.714m24.542-1.251a12.467 12.467 0 0 0-1.55-1.953m1.469-3.396a14.058 14.058 0 0 0-1.469 3.396m0 0a6.615 6.615 0 0 0-2.581 1.305m14.028-3.528a9.79 9.79 0 0 0-.612 2.211m3.188-2.007a6.05 6.05 0 0 0-2.576-.203m0-.002a15.837 15.837 0 0 0-2.384-2.465m24.482-9.682a11.8 11.8 0 0 0-2.083 3.602m5.945-2.221a12.477 12.477 0 0 0-3.861-1.381m-1.951-5.658a220.759 220.759 0 0 0 1.95 5.658m27.502-10.324a11.36 11.36 0 0 0-3.825-.664m0 0l-2.818-4.881m2.818 4.881a11.362 11.362 0 0 0-1.338 3.646m24.004-10.974a8.503 8.503 0 0 0-1.756-.785m-.29-2.863l-.002.185c0 .9.098 1.799.292 2.678m0-.001a5.051 5.051 0 0 0-1.257 1.787m8.709-7.796c.062.666.195 1.324.396 1.962m1.73-2.852a5.268 5.268 0 0 0-2.126.89m0 0a11.786 11.786 0 0 0-2.847-.891m17.397-8.048a9.578 9.578 0 0 0-1.225-.651m.126-2.029a6.053 6.053 0 0 0-.125 2.028m0 .001a3.707 3.707 0 0 0-1.102 1.281m5.918-4.417c0 .334.047.667.139.989m.89-1.327c-.362.04-.713.155-1.029.338m0 0a9.838 9.838 0 0 0-1.358-.651m7.176-5.671c-.165.35-.257.73-.271 1.118m1.345-1.051a3.659 3.659 0 0 0-1.074-.067m-.833-1.386c.248.479.526.942.833 1.386m2.988-5.707c-.791 0-1.575.143-2.316.42m2.316-.42c.271.47.57.921.896 1.354m.482-2.821a4.406 4.406 0 0 0-1.378 1.467m9.869-9.003a15.68 15.68 0 0 0-1.233-.61m.172-1.957a5.062 5.062 0 0 0-.173 1.956m0 0a3.84 3.84 0 0 0-1.143 1.332m5.351-4.249c.016.269.073.533.17.785m.613-1.102c-.279.053-.546.16-.783.316m0 .001a12.298 12.298 0 0 0-1.102-.488m4.81-4.021a1.602 1.602 0 0 0-.118.67m.736-.673a2.313 2.313 0 0 0-.618.002m-.503-.785c.144.276.312.54.503.786m1.492-3.046c-.388 0-.772.061-1.141.18m1.141-.18c.13.225.279.438.445.639m.192-1.319c-.263.175-.48.407-.638.68m4.146-6.838c-.18.283-.293.604-.329.938m1.162-.825a4.675 4.675 0 0 0-.833-.113m-.408-1.182c.077.412.215.811.408 1.182m2.243-3.026a5.335 5.335 0 0 0-1.062-.092m1.062.092c.078.223.185.435.317.631m.31-1.105c-.241.11-.455.272-.627.474m1.523-7.48c.401.329.814.643 1.238.941m0 .001a2.834 2.834 0 0 0 .109 1.074m.892-1.355a3.254 3.254 0 0 0-1.001.28m1.437-9.308a5.641 5.641 0 0 0-.802 2.412m0 0a6.774 6.774 0 0 0-2.204 1.62m2.204-1.62c.531.377 1.073.738 1.625 1.084m4.412-9.055a46.028 46.028 0 0 0-1.77-.6m-.018-2.591a6.272 6.272 0 0 0 .019 2.592m-.001 0a5.48 5.48 0 0 0-1.398 2.023m6.117-6.415c.073.308.197.602.366.869m.454-1.393a2.57 2.57 0 0 0-.819.524m-.001 0a23.7 23.7 0 0 0-1.361-.361m4.354-5.102a1.546 1.546 0 0 0 .018.671m.57-.795c-.2.017-.398.059-.588.124m-.62-.661c.184.241.391.463.62.661m.827-3.05a3.598 3.598 0 0 0-.98.336m.98-.336c.15.177.318.338.5.482m-.063-1.171c-.196.193-.346.43-.438.689m2.27-5.976a1.592 1.592 0 0 0-.113.715m.714-.746c-.035-.002-.07-.002-.106-.002-.165 0-.33.012-.494.033m-.428-.782c.1.282.243.546.427.782m1.14-2.326c-.235 0-.471.021-.702.062m.702-.062c.078.136.174.26.284.369m.059-.748c-.14.101-.257.229-.343.379m.214-4.615c.245.155.498.296.759.424m-.001 0c.014.205.068.405.16.589m.363-.834a1.889 1.889 0 0 0-.522.245m.157-4.807c-.185.367-.28.771-.28 1.182m-.001-.001a3.599 3.599 0 0 0-1.038.904m1.038-.904c.277.16.562.307.853.438m1.026-8.823a2.79 2.79 0 0 0-.268 1.191l.001.067m1.294-1.285c-.091-.002-.181-.004-.271-.004a9.49 9.49 0 0 0-.755.031m-.608-1.356c.116.486.322.946.606 1.356m1.854-3.54a8.24 8.24 0 0 0-.981.06m.981-.06c.109.189.246.361.406.511m.055-1.03a1.712 1.712 0 0 0-.461.52m.404-5.371c.233.167.481.314.739.441m0 .001c.014.209.072.412.17.598m.343-.848a2.12 2.12 0 0 0-.513.25m.25-4.122a2.024 2.024 0 0 0-.265.891m.001-.001c-.34.17-.647.396-.913.666m.913-.666c.214.141.438.264.671.37m-1.122-10.003c.315.387.683.729 1.091 1.017m0-.001a2.61 2.61 0 0 0 .156 1.151m.788-1.476a4.982 4.982 0 0 0-.943.325m1.205-5.524a2.367 2.367 0 0 0-.45.923m0 0c-.439.131-.864.31-1.265.533m1.265-.533c.222.21.467.393.731.544m-.51-11.699a4.814 4.814 0 0 0-1.162 1.143m-2.396-.278c.797.104 1.596.197 2.396.278m0 0c.229.508.548.97.942 1.362M416.402 216h3.582m-5.049-4.588a11.328 11.328 0 0 0 1.468 4.588m-.001 0a11.354 11.354 0 0 0-1.468 4.588m6.784-14.97c.32.444.713.831 1.162 1.143m-.22-2.505a4.546 4.546 0 0 0-.942 1.362m0 0c-.8.081-1.599.174-2.396.278m3.337-10.29c.081.337.234.652.45.923m.282-1.467c-.265.152-.51.334-.731.544m-1.265-.533c.4.224.825.402 1.265.533m-.757-4.602c-.408.288-.775.63-1.091 1.017m1.091-1.017c.303.14.619.249.943.325m-.786-1.475a2.61 2.61 0 0 0-.156 1.151m-.641-8.617c.018.313.108.618.265.89m.406-1.26c-.233.106-.457.23-.671.371m-.913-.668c.266.271.573.497.913.667m.014-3.232a5.244 5.244 0 0 0-.739.441m.739-.441c.158.106.331.19.513.25m-.343-.847a1.491 1.491 0 0 0-.17.598m-2.125-4.989c.325.04.653.059.981.059m.001 0c.116.203.273.379.461.52m-.055-1.03c-.16.149-.297.321-.406.51m-2.119-4.799l-.001.068c0 .412.092.818.268 1.191m-.002 0c-.284.411-.49.871-.606 1.357m.607-1.357a9.04 9.04 0 0 0 1.026.028m-2.905-8.413c0 .411.096.815.28 1.182m.573-1.62a9.942 9.942 0 0 0-.853.438m-1.038-.904c.284.365.637.672 1.038.904m.123-3.625a8.257 8.257 0 0 0-.759.423m.759-.423c.16.108.337.19.522.245m-.361-.834a1.548 1.548 0 0 0-.16.588m-1.675-4.252c.231.041.467.062.702.062m0 0c.086.149.203.279.343.379m-.059-.748c-.11.109-.206.233-.284.369m-1.253-3.041a1.587 1.587 0 0 0 .113.715m0 0c-.184.236-.327.5-.427.783m.427-.783c.164.022.329.034.494.034l.106-.001m-3.85-6.345c.309.159.639.271.98.335m.001 0c.092.26.241.496.438.689m.062-1.17c-.182.144-.35.305-.5.481m-.809-3.72a1.584 1.584 0 0 0-.018.671m0 0a4.36 4.36 0 0 0-.62.661m.62-.661c.189.065.388.107.588.124m-3.215-6.456a2.88 2.88 0 0 0-.366.869m-1.361.361a23.7 23.7 0 0 0 1.361-.361m0 0c.237.226.516.403.819.524m-5.538-4.915a46.044 46.044 0 0 0 1.77-.601m-3.168-1.424a5.488 5.488 0 0 0 1.398 2.024m0 .001a6.213 6.213 0 0 0-.019 2.591m-4.248-11.162c.08.854.354 1.679.802 2.411m.823-3.495c-.552.346-1.094.708-1.625 1.084m-2.204-1.621a6.762 6.762 0 0 0 2.204 1.621m-.635-6.897a20.89 20.89 0 0 0-1.238.941m1.238-.941c.316.146.654.241 1.001.28m-.892-1.354a2.845 2.845 0 0 0-.109 1.074m-3.823-6.445h.069c.333 0 .666-.031.993-.092m0 0c.172.201.386.363.627.474m-.309-1.105a2.724 2.724 0 0 0-.317.631m-2.573-3.964c.036.333.149.654.329.937m0 0a4.27 4.27 0 0 0-.408 1.182m.408-1.182c.28-.012.56-.05.833-.113m-6.119-6.905c.368.119.753.18 1.141.18m0 .001c.157.272.375.505.638.679m-.193-1.319a4.62 4.62 0 0 0-.445.639m-1.611-3.716l-.001.062c0 .208.04.415.119.608m.001 0c-.191.247-.359.51-.503.786m.503-.786a2.256 2.256 0 0 0 .618.003m-4.157-5.296a2.607 2.607 0 0 0-.17.785m-1.101.488c.375-.145.742-.308 1.102-.488m0-.001c.237.156.504.264.783.316m-4.991-3.233c.42-.186.831-.39 1.233-.611m-2.375-.722c.272.527.664.983 1.143 1.333m-.001 0a5.057 5.057 0 0 0 .173 1.956m-11.125-11.989a6.613 6.613 0 0 0 2.316.419m.001 0c.34.589.812 1.091 1.378 1.467m-.482-2.82c-.326.432-.626.884-.896 1.354m-3.258-6.826c.014.388.105.768.271 1.119m-.001 0c-.307.443-.585.906-.833 1.385m.833-1.385a3.727 3.727 0 0 0 1.074-.067m-6.753-7.245a3.601 3.601 0 0 0-.139.989m-1.358.651a9.73 9.73 0 0 0 1.358-.651m0 0c.316.183.667.298 1.029.337m-5.845-3.473a9.585 9.585 0 0 0 1.225-.652m-2.327-.629c.264.506.641.945 1.102 1.281m0 0a6.06 6.06 0 0 0 .125 2.029m-13.055-13.581a9.576 9.576 0 0 0-.396 1.962m-2.846.891a11.814 11.814 0 0 0 2.847-.891m-.001 0c.635.45 1.36.753 2.126.89m-9.578-6.9a8.503 8.503 0 0 0 1.756-.785m-3.013-1.002c.283.68.713 1.29 1.257 1.787m0 0a12.44 12.44 0 0 0-.292 2.678l.002.185m-20.62-10.976c1.304 0 2.598-.225 3.825-.664m-5.163-2.981a11.341 11.341 0 0 0 1.338 3.645m0 0l-2.818 4.881m-14.662-18.932a5.072 5.072 0 0 0 2.175.194m-2.375-2.108v.084c0 .615.066 1.229.199 1.83m-2.334 1.682a12.474 12.474 0 0 0 2.335-1.682m-8.932-3.45c.094.994.312 1.972.652 2.911m-.652-2.911a9.547 9.547 0 0 0 1.502-1.323m-3.335-.073a5.271 5.271 0 0 0 1.833 1.396m-14.968-6.744a3.715 3.715 0 0 0 1.661.313m-1.708-1.7a9.085 9.085 0 0 0 .047 1.386m-1.819.907a6.066 6.066 0 0 0 1.819-.906m-5.124-2.603c0 .502.039 1.004.116 1.501m-.116-1.501a3.59 3.59 0 0 0 .788-.615m-1.594-.109c.216.294.491.541.807.724m-9.169-.464c.292-.454.554-.927.783-1.415m0 0a2.848 2.848 0 0 0 1.104-.325m-1.581-.637c.111.342.272.667.478.962m-8.395-.193c.609.303 1.279.46 1.96.46m0 0c.396.685.91 1.293 1.521 1.796m-1.521-1.796c.271-.469.513-.954.724-1.453m-13.369-1.219a3.834 3.834 0 0 0 1.726.324m-1.813-1.698c.009.459.038.917.087 1.374m-1.779.828a5.038 5.038 0 0 0 1.779-.828m-4.629-2.185c.023.401.066.801.128 1.199m-.128-1.199a2.61 2.61 0 0 0 .595-.539m-1.261.019c.186.215.412.392.666.52m-6.189-.128c.168-.263.312-.54.43-.828m0 0c.228-.031.445-.111.64-.233m-.952-.301c.08.191.185.371.312.534m-4.291.018c.282.14.592.212.907.212m0 0c.193.335.438.639.726.898m-.726-.898c.13-.225.24-.461.33-.705m-9.145 1.478a4.25 4.25 0 0 0 .82-.944m.001-.001l.094.002c.304 0 .604-.062.882-.185m-1.295-.594c.082.269.188.529.318.777M216 7.497c.216.153.463.257.724.306m0 0c.118.336.27.66.451.966m-.451-.966c.154-.18.284-.378.388-.59m-8.174.741c.208.281.458.526.744.728m-.196 1.542c.083-.512.149-1.026.196-1.542m0-.001c.33-.153.627-.367.875-.632m-7.166 3.53c.061-.648.103-1.299.126-1.95m-2.615 2.462l.139.002c.811 0 1.613-.175 2.35-.514m0 0a6.747 6.747 0 0 0 2.505 1.098m-12.061-.509a5.501 5.501 0 0 0 2.452.2m-2.817-2.032c.109.613.231 1.225.365 1.833m-2.234 1.311a6.222 6.222 0 0 0 2.234-1.312m-6.162-1.89c.109.457.232.91.368 1.36m-.368-1.36c.229-.218.422-.472.569-.752m-1.433.304c.257.203.55.355.864.448m-6.49 1.007c.117-.279.205-.57.262-.868m0 0c.214-.074.409-.193.572-.351m-.973-.096c.115.165.25.315.401.447m-3.87.775a1.832 1.832 0 0 0 .816.034m.001.001c.226.264.489.493.781.682m-.781-.682a3.65 3.65 0 0 0 .167-.674m-6.942 2.457a2.8 2.8 0 0 0 .464-.761m0 0c.242-.033.473-.122.675-.26"/><path stroke="#000" d="M171.752 11.745c.095.177.205.346.329.504m-3.084.069c.157.071.328.107.5.107m0 0c.118.204.253.397.404.577m-.404-.577c.078-.135.137-.28.177-.431m-4.767 1.355c.14.133.3.245.474.33m.013.868a8.274 8.274 0 0 0-.013-.868m0 0c.17-.114.316-.262.429-.434m-3.508 2.353c0-.32-.016-.64-.047-.958m-1.116 1.306a2.64 2.64 0 0 0 1.164-.348m-.001 0c.401.231.843.383 1.302.447m-10.374 3.322a4.02 4.02 0 0 0 .872-1.204m0 0a2.785 2.785 0 0 0 1.223-.399m-1.761-.477c.163.302.342.595.537.876m-4.672.026c.215.092.447.14.681.14m-.001 0c.164.284.345.558.542.82m-.542-.82a2.22 2.22 0 0 0 .239-.607m-5.552 1.762c.142.127.301.234.473.318m-.013.862a5.026 5.026 0 0 0 .012-.861m.001 0c.174-.117.321-.269.433-.446m-3.224 2.075a5.103 5.103 0 0 0-.015-.767m-.889.982c.314 0 .624-.075.904-.215m0 0c.317.208.667.363 1.034.457m-9.571 2.641c.229.243.481.462.753.654m-.334 1.454c.177-.467.29-.956.335-1.454m0 .001c.356-.165.67-.408.919-.71m-5.282 2.356c.07-.292.105-.592.105-.893v-.012m-1.13.977a2.37 2.37 0 0 0 1.025-.072m0 0c.333.315.7.593 1.094.829m-9.294 4.992c.325-.452.565-.959.708-1.497m-2.279 1.062c.495.233 1.026.38 1.571.436m.956 2.213a80.177 80.177 0 0 0-.956-2.213m-6.333 9.793c1.624 0 3.229-.349 4.707-1.022m-4.707 1.022l-1.791-3.102m-1.448 6.668a11.344 11.344 0 0 0 3.239-3.565m-11.649.587c.47.652.95 1.297 1.439 1.935m-1.439-1.935a4.851 4.851 0 0 0 .408-1.578m-2.058 1.443a4.569 4.569 0 0 0 1.65.136m-8.97 5.551a6.248 6.248 0 0 0-.171-1.362m0 .001a2.37 2.37 0 0 0 .575-.852m-1.412.49c.264.153.544.275.837.361m-4.682 3.396a2.59 2.59 0 0 0 1.075-.44m-.001 0c.454.209.933.356 1.426.437m-1.426-.437a4.937 4.937 0 0 0-.19-.98m-7.072 6.967a3.439 3.439 0 0 0 .121-1.124m0 0a2.02 2.02 0 0 0 .638-.675m-1.294.279c.208.149.428.281.657.396m-3.41 1.755c.209-.008.415-.059.603-.151m0-.001c.238.16.49.301.751.42m-.751-.42a2.212 2.212 0 0 0-.04-.569m-4.302 3.928c.209.064.426.097.645.097m.439.879a8.002 8.002 0 0 0-.439-.879m0 0c.117-.203.192-.427.22-.659m-2.359 4.033a9.041 9.041 0 0 0-.49-.903m-.468 1.763c.382-.208.709-.502.958-.86m0 0a4 4 0 0 0 1.478-.153m-8.064 7.323c.174-.43.264-.888.264-1.352m-.001.001c.355-.205.658-.49.883-.833m-1.689.314c.26.186.529.359.806.519m-3.791 1.862c.205-.012.406-.064.59-.155m0 0c.241.161.49.31.746.445m-.746-.445a1.866 1.866 0 0 0-.05-.575m-3.555 3.45c.15.042.306.062.462.062m.298.639a4.165 4.165 0 0 0-.297-.639m-.001 0c.086-.149.14-.315.157-.487m-1.602 2.637a3.613 3.613 0 0 0-.273-.537m-.29.992c.22-.106.413-.262.563-.455m0 0a2.817 2.817 0 0 0 .891-.021m-5.599 4.783c.216.085.439.149.667.192m.2 1.018a3.571 3.571 0 0 0-.2-1.017m0-.001c.179-.209.309-.458.378-.724m-2.606 2.964a2.403 2.403 0 0 0-.187-.571m-.403.892c.217-.062.418-.172.59-.32m0-.001c.286.1.582.168.883.207m-4.117 5.117a2.592 2.592 0 0 0 .044-.972m-.98 1.089l.114.002c.278 0 .556-.04.822-.119m.993.998a24.614 24.614 0 0 0-.993-.999m-1.444 6.283a6.214 6.214 0 0 0 2.253-1.28m-2.253 1.28c-.459-.42-.928-.831-1.404-1.232m.351 3.455a5.482 5.482 0 0 0 1.053-2.223m-5.59 10.7a6.77 6.77 0 0 0 .302-2.719m0 0a5.637 5.637 0 0 0 1.688-1.899m-3.439 1.033c.575.305 1.159.594 1.751.865m-6.641 4.442c.354-.083.688-.233.985-.442m.001 0c.471.218.949.418 1.434.602m-1.434-.602a3.284 3.284 0 0 0-.258-1.008m-4.729 6.708a2.778 2.778 0 0 0 .705-.041m.611.874a5.402 5.402 0 0 0-.611-.875m0 .001a1.841 1.841 0 0 0 .096-.779m-1.596 4.235a4.529 4.529 0 0 0-.514-.664m-.132 1.418c.271-.199.491-.457.646-.754m0 0a4.218 4.218 0 0 0 1.228-.238m-5.852 7.18c.256.044.516.066.776.066m.414 1.079a3.717 3.717 0 0 0-.414-1.078m0 0c.157-.272.25-.578.27-.892m-2.162 3.707a2.32 2.32 0 0 0-.307-.536m-.214.974c.203-.107.38-.256.521-.438m0 0a5.099 5.099 0 0 0 .932.043m-2.984 5.422c.002-.042.004-.083.004-.125 0-.242-.041-.482-.121-.711m-.647 1.082c.266-.042.524-.125.764-.246m.975.711c-.313-.252-.638-.49-.974-.711m-.423 5.103a5.058 5.058 0 0 0 1.607-1.127m-1.607 1.127a15.598 15.598 0 0 0-1.146-.762m.564 2.418a3.85 3.85 0 0 0 .583-1.656m-5.629 12.186c.538.067 1.079.1 1.62.1m.795 2.215a6.589 6.589 0 0 0-.795-2.215m0 0c.34-.589.539-1.249.582-1.927m-4.031 7.367a3.698 3.698 0 0 0-.594-.895m-.239 1.689c.329-.205.612-.476.833-.794m0 0a12.693 12.693 0 0 0 1.616.029m-4.181 8.171a2.64 2.64 0 0 0-.223-1.061m-.704 1.436c.325-.081.636-.207.926-.375m1.243.851a9.92 9.92 0 0 0-1.242-.851m-.308 5.739a6.043 6.043 0 0 0 1.694-1.122m-1.694 1.122a9.526 9.526 0 0 0-1.177-.734m.617 2.329a3.7 3.7 0 0 0 .56-1.595m-1.643 16.335a5.25 5.25 0 0 0-.292-2.285m-1.605 2.924a9.509 9.509 0 0 0 1.896-.639m2.196 2.02a11.818 11.818 0 0 0-2.195-2.02m-1.479 9.459a12.527 12.527 0 0 0 2.625-1.18m-2.625 1.18a8.507 8.507 0 0 0-1.558-1.128m.64 3.11a5.054 5.054 0 0 0 .919-1.982M15.598 216h5.636m-5.636 0a11.356 11.356 0 0 0-2.488-2.981m-.001 5.961a11.348 11.348 0 0 0 2.488-2.98m-.804 23.345a12.48 12.48 0 0 0-2.625-1.18m0 0a5.043 5.043 0 0 0-.919-1.981m-.638 3.11a8.513 8.513 0 0 0 1.558-1.129m1.186 11.744a5.274 5.274 0 0 0 .292-2.285m0 0a11.792 11.792 0 0 0 2.195-2.021m-2.195 2.021a9.552 9.552 0 0 0-1.896-.639m5.233 18.096a6.036 6.036 0 0 0-1.694-1.122m0 0a3.696 3.696 0 0 0-.56-1.595m-.617 2.329c.41-.216.803-.462 1.177-.734m.085 6.799c.147-.334.223-.695.223-1.061m0 0a9.641 9.641 0 0 0 1.242-.851m-1.242.851a3.612 3.612 0 0 0-.926-.374m2.897 9.471c.241-.269.441-.57.594-.896m1.617-.029a12.688 12.688 0 0 0-1.616.029m-.001 0a2.853 2.853 0 0 0-.833-.794m4.282 6.234c-.542 0-1.083.033-1.62.1m2.201 1.827a4.397 4.397 0 0 0-.582-1.927m.001 0a6.597 6.597 0 0 0 .795-2.215m4.82 15.628a5.063 5.063 0 0 0-1.607-1.127m0 0a3.824 3.824 0 0 0-.583-1.656m-.563 2.419c.393-.238.775-.492 1.146-.763m.305 5.938a2.155 2.155 0 0 0 .117-.836m0 .001c.336-.221.661-.458.974-.711m-.974.711a2.567 2.567 0 0 0-.764-.245m2.509 6.247c.125-.165.229-.346.307-.537m.932-.043a5.272 5.272 0 0 0-.932.042m0 0a1.63 1.63 0 0 0-.521-.438m2.413 3.254c-.26 0-.52.022-.776.066m1.045.825a2.042 2.042 0 0 0-.27-.892m.001.001c.193-.335.333-.699.414-1.077m2.92 8.751c.191-.205.364-.428.514-.665m1.228.238a4.218 4.218 0 0 0-1.228-.238m0 0a2.203 2.203 0 0 0-.646-.754m2.146 4.21a2.85 2.85 0 0 0-.705-.041m.802.821a1.841 1.841 0 0 0-.096-.78m-.001 0c.232-.271.437-.563.611-.874m3.671 6.533a2.823 2.823 0 0 0-.985-.441m.726 1.449c.14-.319.227-.66.258-1.008m1.435-.602c-.485.184-.963.385-1.434.602m5.655 3.999a6.77 6.77 0 0 0-.302-2.719m.302 2.719c-.592.271-1.176.561-1.751.865m3.438 1.035a5.64 5.64 0 0 0-1.688-1.9m7.542 9.261a6.214 6.214 0 0 0-2.253-1.279m0-.001a5.493 5.493 0 0 0-1.053-2.224m-.351 3.456c.476-.4.945-.812 1.404-1.231m1.488 7.253a2.562 2.562 0 0 0-.044-.972m0 .001c.341-.323.672-.656.993-.999m-.993.999a2.864 2.864 0 0 0-.936-.117m3.984 6.01a2.44 2.44 0 0 0 .187-.57m.882-.207a4.31 4.31 0 0 0-.883.207m0 0a1.558 1.558 0 0 0-.59-.32m2.818 2.56a3.509 3.509 0 0 0-.667.192m1.045.532a1.811 1.811 0 0 0-.378-.724m0 0c.115-.328.183-.671.2-1.018m3.568 6.508c.105-.171.197-.351.273-.537m.891.022a2.835 2.835 0 0 0-.891-.022m0 0a1.585 1.585 0 0 0-.563-.455m2.008 2.606c-.156 0-.312.021-.462.062m.619.424a1.214 1.214 0 0 0-.157-.486m0 0c.118-.204.217-.417.297-.639m2.846 3.576a1.519 1.519 0 0 0-.59-.154m.541.729a1.872 1.872 0 0 0 .05-.575m.745-.445a8.386 8.386 0 0 0-.746.445m3.201 1.707c0-.464-.09-.922-.264-1.352m.264 1.352a9.608 9.608 0 0 0-.806.519m1.69.314a2.636 2.636 0 0 0-.883-.833m5.831 6.722c.18-.291.344-.593.49-.903m1.479.153a4.036 4.036 0 0 0-1.478-.153m0-.001a2.802 2.802 0 0 0-.958-.859m3.097 4.234c-.219 0-.436.032-.645.097m.865.563a1.73 1.73 0 0 0-.22-.659m0-.001c.164-.284.311-.578.439-.879m3.258 4.335a1.488 1.488 0 0 0-.603-.151m.563.719a2.052 2.052 0 0 0 .04-.569m.752-.419c-.261.119-.513.26-.751.42m2.805 1.602a3.451 3.451 0 0 0-.121-1.124m.121 1.124a5.09 5.09 0 0 0-.657.396m1.295.279a2.04 2.04 0 0 0-.638-.675m7.141 4.864a2.572 2.572 0 0 0-1.075-.44m.885 1.42a4.94 4.94 0 0 0 .19-.979m1.427-.438a5.48 5.48 0 0 0-1.426.438m3.607 2.954c.107-.446.164-.903.171-1.361m-.171 1.361a3.877 3.877 0 0 0-.837.361m1.411.491a2.375 2.375 0 0 0-.575-.852m10.581 2.256a80.109 80.109 0 0 0-1.439 1.935m0 0a4.605 4.605 0 0 0-1.65.135m2.059 1.443a4.851 4.851 0 0 0-.408-1.578m16.355 1.61a11.343 11.343 0 0 0-4.707-1.022m0 0a11.356 11.356 0 0 0-3.239-3.565m3.239 3.565l-1.791 3.102m8.832 8.189a4.57 4.57 0 0 0-.708-1.497m0 0c.33-.733.648-1.471.956-2.214m-.956 2.214a4.802 4.802 0 0 0-1.571.436m9.877 6.29v-.013c0-.301-.036-.6-.105-.893m1.093-.827a6.207 6.207 0 0 0-1.094.828m0 0a2.406 2.406 0 0 0-1.025-.073m5.388 1.719a4.935 4.935 0 0 0-.753.654m1.672.057a2.598 2.598 0 0 0-.919-.711m0 0a5.5 5.5 0 0 0-.335-1.453m8.103 5.973a5.103 5.103 0 0 0 .015-.767m1.033-.457a3.42 3.42 0 0 0-1.034.457m.001 0a2.026 2.026 0 0 0-.904-.216m3.695 1.845a2.098 2.098 0 0 0-.473.318m.906.129a1.474 1.474 0 0 0-.433-.446m0-.001a5.262 5.262 0 0 0-.012-.861m4.852 2.335c-.234 0-.465.048-.681.14m.92.467a2.176 2.176 0 0 0-.239-.607m.542-.82a8.242 8.242 0 0 0-.542.82m3.993.166a4.02 4.02 0 0 0-.872-1.204m.872 1.204a9.005 9.005 0 0 0-.537.876m1.76-.478a2.796 2.796 0 0 0-1.223-.398m8.153 3.523c.031-.318.047-.638.047-.958m1.302-.447a3.6 3.6 0 0 0-1.302.447m0 0a2.65 2.65 0 0 0-1.164-.349m4.243 2.268a1.893 1.893 0 0 0-.474.33m.903.104a1.555 1.555 0 0 0-.429-.434m0 0a8.518 8.518 0 0 0 .013-.869m4.103 2.122a1.23 1.23 0 0 0-.5.107m.676.325a1.786 1.786 0 0 0-.177-.432m.405-.576c-.151.18-.287.373-.404.576m2.584.177a2.8 2.8 0 0 0-.464-.761m.464.761a3.575 3.575 0 0 0-.329.504m1.004-.244a1.573 1.573 0 0 0-.675-.26m6.311 1.022a1.78 1.78 0 0 0-.816.035m.983.639a3.65 3.65 0 0 0-.167-.674m.78-.681a3.58 3.58 0 0 0-.781.682m3.054.809a4.366 4.366 0 0 0-.262-.868m.262.868a2.392 2.392 0 0 0-.401.446m.974-.095a1.573 1.573 0 0 0-.572-.351m6.595-1.221c-.136.449-.259.903-.368 1.359m0 .001a2.59 2.59 0 0 0-.864.448m1.433.305a2.908 2.908 0 0 0-.569-.753m8.615-2.09a5.501 5.501 0 0 0-2.452.199m-.001 0a6.253 6.253 0 0 0-2.234-1.312m2.234 1.312c-.134.608-.255 1.22-.365 1.833m10.048.706a35.273 35.273 0 0 0-.126-1.949m2.504-1.099a6.733 6.733 0 0 0-2.505 1.099m0 0a5.624 5.624 0 0 0-2.489-.512m8.78 3.41c-.285.2-.536.446-.744.728m1.619-.096a2.836 2.836 0 0 0-.875-.632m0 0a21.607 21.607 0 0 0-.196-1.543m7.238 2.421a1.845 1.845 0 0 0-.724.306m1.111.284a2.811 2.811 0 0 0-.388-.59m.452-.966c-.182.306-.333.63-.451.966m3.743-.428a4.252 4.252 0 0 0-.82-.944m.82.944c-.13.249-.236.509-.318.777m1.293-.595a2.19 2.19 0 0 0-.882-.185c-.031 0-.062 0-.094.002m7.995-.171c-.315 0-.625.072-.907.212m1.237.493c-.09-.244-.2-.479-.33-.705m.726-.898a3.718 3.718 0 0 0-.726.897m3.384.231a5.202 5.202 0 0 0-.43-.828m.43.828a2.4 2.4 0 0 0-.312.534m.951-.3a1.595 1.595 0 0 0-.64-.233m5.887-2.156c-.062.397-.104.798-.128 1.199m.001 0a2.16 2.16 0 0 0-.666.52m1.26.019a2.587 2.587 0 0 0-.595-.539m6.356-2.509a3.833 3.833 0 0 0-1.726.323m0 .001a5.061 5.061 0 0 0-1.779-.827m1.779.827c-.049.457-.078.915-.087 1.374m12.732-4.046a4.41 4.41 0 0 0-1.96.46m2.684.993a13.284 13.284 0 0 0-.724-1.453m1.52-1.796a6.625 6.625 0 0 0-1.521 1.796m6.435.266c-.229-.487-.491-.96-.783-1.414m.783 1.415a3.71 3.71 0 0 0-.478.962m1.583-.638a2.823 2.823 0 0 0-1.104-.324m8.5-3.38a9.787 9.787 0 0 0-.116 1.501m0 0a2.65 2.65 0 0 0-.807.724m1.595-.108a3.59 3.59 0 0 0-.788-.615m6.785-2.917c-.055-.002-.109-.004-.163-.004a3.7 3.7 0 0 0-1.498.317m0 .001a6.055 6.055 0 0 0-1.819-.906m1.819.906a9.582 9.582 0 0 0-.047 1.386m15.667-11.042a11.77 11.77 0 0 0-.652 2.911m0 0a5.271 5.271 0 0 0-1.833 1.396m3.335-.073a9.547 9.547 0 0 0-1.502-1.323m11.107-3.644a5.024 5.024 0 0 0-2.175.194m0 0a12.48 12.48 0 0 0-2.335-1.683m2.335 1.683a8.462 8.462 0 0 0-.199 1.829v.085m16.182-9.574a4.828 4.828 0 0 0-1.457 1.52m3.007-.527a8.403 8.403 0 0 0-1.55-.993m.159-2.746a11.398 11.398 0 0 0-.16 2.746m7.782-4.493a11.326 11.326 0 0 0-2.459-1.234m2.459 1.234a8.393 8.393 0 0 0 .085 1.839m1.959-2.341a4.852 4.852 0 0 0-2.044.502m12.987-6.537a3.153 3.153 0 0 0-1.104.938m2.049-.226a8.589 8.589 0 0 0-.945-.712m.382-1.687a5.028 5.028 0 0 0-.383 1.688m4.428-1.974a8.522 8.522 0 0 0-1.032-.717m1.032.717a3.016 3.016 0 0 0-.014.833m.903-.975a2.19 2.19 0 0 0-.889.143m5.06-5.55c.13.414.288.818.473 1.21m0 0a2.278 2.278 0 0 0-.362.854m1.201-.66a3.028 3.028 0 0 0-.84-.194m4.378-4.997c-.488.21-.921.531-1.265.937m0 0a5.212 5.212 0 0 0-1.855-.002m1.855.002c.145.4.314.791.509 1.169m7.33-7.189c-.401.189-.753.47-1.027.818m1.843-.199a12.847 12.847 0 0 0-.816-.618m.404-1.402a3.683 3.683 0 0 0-.404 1.401m3.453-1.527a9.73 9.73 0 0 0-.723-.504m.723.504a1.852 1.852 0 0 0 .014.586m.589-.705h-.003c-.206 0-.41.041-.601.119m3.009-3.302c.061.214.142.422.241.62m0 0c-.09.137-.149.292-.175.454m.608-.37a1.677 1.677 0 0 0-.433-.084m2.001-2.287a1.438 1.438 0 0 0-.536.378m0 0a2.68 2.68 0 0 0-.815-.038m.815.038c.058.175.131.343.219.505m3.484-5.409l-.002.099c0 .254.034.507.101.752m0 0a1.49 1.49 0 0 0-.357.58m.898-.385a3.232 3.232 0 0 0-.541-.195m2.415-1.905a1.23 1.23 0 0 0-.482.22m-.001 0a3.69 3.69 0 0 0-.688-.217m.688.217c.02.159.059.314.117.463m3.341-4.333a2.206 2.206 0 0 0-.685.027m-.65-.795c.206.273.423.539.65.795m.001 0a1.862 1.862 0 0 0-.092.708m1.577-4.988c.272.322.555.636.848.939m.046-2.315c-.4.384-.706.854-.894 1.376m0 0a4.394 4.394 0 0 0-1.654.665m5.691-5.249c-.467.238-.873.58-1.188.999m2.159-.346a31.65 31.65 0 0 0-.971-.653m.424-1.565a3.822 3.822 0 0 0-.424 1.565m3.545-1.849a15.444 15.444 0 0 0-.745-.438m.745.438l-.001.061c0 .174.026.347.077.514m.493-.75a1.579 1.579 0 0 0-.569.176m2.398-3.182c.065.169.148.332.248.484m0 0a.93.93 0 0 0-.101.391m.461-.366a1.401 1.401 0 0 0-.281-.027c-.025 0-.052 0-.078.002m1.347-1.932c-.145.077-.27.187-.365.319m0 .001a2.135 2.135 0 0 0-.617.026m.617-.026c.057.126.125.245.205.358m1.984-3.854c.007.175.041.347.104.51m0-.001a.914.914 0 0 0-.186.38m.526-.296a2.193 2.193 0 0 0-.34-.084m1.285-1.246a.701.701 0 0 0-.254.15m0 .001a2.504 2.504 0 0 0-.398-.087m.398.087c.02.088.051.173.094.253m1.492-2.423h-.027c-.102 0-.202.015-.299.042m-.339-.363c.106.127.219.248.339.363m0 0a.84.84 0 0 0-.015.349m.59-2.332c.12.136.247.265.381.388m-.019-.972a1.467 1.467 0 0 0-.362.584m0 0a2.041 2.041 0 0 0-.722.301m3.179-5.221a2.15 2.15 0 0 0 .063.819m.001.001c-.17.171-.297.38-.371.609m.912-.434a5.091 5.091 0 0 0-.541-.175m1.947-1.673a.95.95 0 0 0-.333.182m0 0a4.623 4.623 0 0 0-.516-.152m.516.152c.021.117.06.231.115.338m1.692-2.668l-.044-.001c-.088 0-.176.011-.262.031m-.289-.362c.086.129.184.25.29.362m0 .001a.796.796 0 0 0-.026.334m.629-1.961c.08.111.169.216.266.313m.037-.707c-.13.106-.233.241-.303.394m0 0a1.858 1.858 0 0 0-.584.16m3.092-4.253a2.506 2.506 0 0 0-.52-.027m-.329-.71c.076.251.187.49.328.71m.001 0a1.338 1.338 0 0 0-.15.591m1.425-2.658c.064.145.145.28.241.405m.157-.754a1.215 1.215 0 0 0-.398.35m0-.001a3.35 3.35 0 0 0-.712.002m2.311-4.9c0 .283.052.562.154.826m.619-1.112a2.427 2.427 0 0 0-.773.286m-1.052-.632c.347.217.697.428 1.052.632m-.187-5.883a5.611 5.611 0 0 0-1.688 1.755m1.688-1.755c.534.266 1.07.528 1.607.789m-1.228-3.169a5.487 5.487 0 0 0-.379 2.38m4.643-3.392a46.482 46.482 0 0 0-1.096-.412m1.096.412a2.3 2.3 0 0 0 .251.749m.454-1.126a2.183 2.183 0 0 0-.705.377m2.219-4.534c.116.184.252.354.406.507m.001 0a1.093 1.093 0 0 0-.019.484m.443-.546a1.796 1.796 0 0 0-.425.062m1.052-2.504c-.14.118-.251.268-.325.435m0 0a2.578 2.578 0 0 0-.68.169m.68-.169c.092.126.197.242.312.347m1.2-4.446c.042.17.112.331.207.477m0 0a.938.938 0 0 0-.101.416m.454-.408a2.196 2.196 0 0 0-.352-.009m.962-1.467a.673.673 0 0 0-.206.195m0 0a2.44 2.44 0 0 0-.393.001m.393-.001a.937.937 0 0 0 .143.217m.844-2.506c-.098.021-.19.054-.277.102m-.365-.255c.116.092.238.177.365.255m0 0v.02c0 .1.019.197.056.29m.075-2.11c.123.093.252.178.385.256m-.185-.8c-.108.163-.177.35-.2.544m0 0a1.83 1.83 0 0 0-.559.373m1.719-4.572c.016.205.071.405.163.59m0 0a1.157 1.157 0 0 0-.185.507m.608-.462a4.305 4.305 0 0 0-.423-.046m1.136-1.48a.683.683 0 0 0-.203.176m0 0a3.243 3.243 0 0 0-.382-.031m.382.031a.82.82 0 0 0 .132.217m.741-2.04a.763.763 0 0 0-.193.062m-.239-.196c.073.072.153.138.238.196m0 0l-.002.041a.56.56 0 0 0 .031.181m.14-1.34c.064.06.133.113.206.161m-.068-.444a.706.706 0 0 0-.138.283m0 0a1.24 1.24 0 0 0-.349.174m1.345-2.899c-.1.004-.199.019-.297.042m-.257-.366c.068.134.154.257.258.366m-.001 0a.782.782 0 0 0-.02.352m.509-1.622c.049.071.106.136.171.192m.005-.42a.657.657 0 0 0-.177.228m.001 0a1.91 1.91 0 0 0-.384.07m.763-2.71c.022.138.07.27.143.39m.206-.589a1.253 1.253 0 0 0-.35.199m-.555-.232c.183.083.368.16.556.232m-.434-2.716c-.29.235-.526.529-.694.863m.694-.863c.248.095.497.185.749.269m-.673-1.315a2.302 2.302 0 0 0-.076 1.046m.638-5.081a2.8 2.8 0 0 0 .267 1.123m-.001 0c-.207.298-.342.64-.395.999m1.211-.908a14.856 14.856 0 0 0-.816-.091m2-2.673c-.128.08-.239.184-.327.307m0 0a9.338 9.338 0 0 0-.646-.043m.646.043c.06.132.14.253.238.359m.968-3.244a1.145 1.145 0 0 0-.271.105m-.349-.265c.107.1.225.188.35.266m0 0v.019c0 .103.021.204.062.298m.095-1.856c.088.074.182.14.282.196m-.121-.57a.882.882 0 0 0-.161.374m0 0a1.73 1.73 0 0 0-.452.243m1.446-3.497a1.943 1.943 0 0 0-.311.061m-.283-.376c.074.14.17.266.283.375m0 0a.793.793 0 0 0-.004.379m.432-1.686a.927.927 0 0 0 .178.176m-.022-.403a.65.65 0 0 0-.156.227m0 0a2.207 2.207 0 0 0-.368.085m.596-2.432a.848.848 0 0 0 .131.313m.142-.486c-.1.043-.191.101-.273.173m-.452-.18c.147.067.299.127.452.18m-.336-2.038c-.212.163-.39.366-.522.598m.522-.598c.171.071.345.134.521.189m-.449-.893a1.516 1.516 0 0 0-.072.704m1.138-5.26a5.35 5.35 0 0 0-.643.091m-.485-.809c.111.297.276.57.486.809m0 0a1.726 1.726 0 0 0-.071.803m1.006-3.195c.083.116.184.219.297.306m-.029-.675a1.137 1.137 0 0 0-.268.369m0 0a5.225 5.225 0 0 0-.635.106m1.083-3.476c.022.142.075.277.153.398m.184-.602c-.121.052-.234.12-.337.204m-.538-.255c.173.1.353.185.538.256m-.22-2.259a2.38 2.38 0 0 0-.6.536m.6-.536c.161.086.328.159.501.221m-.369-.875a1.445 1.445 0 0 0-.133.604l.001.05m-.112-6.474c0 .306.068.608.201.885m.517-1.204c-.25.081-.491.188-.719.319m-.936-.717c.279.278.595.52.937.717m.284-3.756a4.812 4.812 0 0 0-1.001.534m1.001-.534c.197.157.411.292.639.4m-.328-1.198a1.965 1.965 0 0 0-.312.798M422.241 216h-2.257m2.257 0c.259.447.594.845.99 1.175m0-2.35a4.417 4.417 0 0 0-.99 1.175m.639-9.239a4.86 4.86 0 0 0 1.001.534m0 0c.044.286.15.559.312.798m.327-1.198a3.308 3.308 0 0 0-.639.4m-.083-4.64a2.04 2.04 0 0 0-.201.885m0 0a4.533 4.533 0 0 0-.937.717m.937-.717c.228.131.469.238.719.318m-1.207-7.329c.168.211.371.393.6.536m0 0l-.001.05c0 .208.046.415.133.604m.369-.874c-.173.061-.34.135-.501.22m.373-2.657a1.029 1.029 0 0 0-.153.399m0 0a3.833 3.833 0 0 0-.538.255m.538-.255c.103.083.216.152.337.203m-.488-3.879a1.432 1.432 0 0 0-.297.305m-.634-.106c.209.049.421.085.635.106m-.001 0c.062.14.154.266.268.37m-1.203-2.761c.212.043.427.073.643.09m-.714-.893a1.732 1.732 0 0 0 .071.803m0 0c-.21.237-.375.511-.486.808m-.533-6.575c.133.231.311.435.522.598m.001 0a1.51 1.51 0 0 0 .072.703m.449-.892a5.878 5.878 0 0 0-.521.189m.467-2.352a.896.896 0 0 0-.131.314m0 0a4.88 4.88 0 0 0-.452.179m.452-.179c.082.071.174.129.273.173m-.323-2.696a.951.951 0 0 0-.178.175m-.368-.084c.12.04.243.068.368.084m0 .001a.65.65 0 0 0 .156.227m-.584-1.535c.102.029.205.05.311.061m-.315-.44a.834.834 0 0 0 .004.379m0 0a1.505 1.505 0 0 0-.283.375m-.118-3.764a1.849 1.849 0 0 0-.282.197m-.452-.244c.138.103.29.185.452.244m0 0a.892.892 0 0 0 .161.374m-.318-1.913c.085.046.177.082.271.105m-.21-.423a.747.747 0 0 0-.062.298v.019m.001.001a2.316 2.316 0 0 0-.35.265m-.586-3.045c.088.122.199.226.327.306m-.089-.666a1.31 1.31 0 0 0-.238.36m-.646.042c.216-.006.432-.021.646-.042m-1.673-2.366a2.8 2.8 0 0 0-.267 1.123m.266-1.123c.273-.022.546-.053.816-.091m-1.209-.908c.053.359.188.701.395.999m-1.599-4.822c.168.334.404.628.694.864m0 0a2.314 2.314 0 0 0 .076 1.046m.673-1.314c-.252.084-.501.173-.749.268m.576-3.106c-.072.12-.12.252-.143.39m.001 0a9.31 9.31 0 0 0-.556.232m.556-.232c.105.085.223.152.35.199m-.558-3.031a1.114 1.114 0 0 0-.171.192m-.384-.07c.125.037.253.06.384.07m0 0a.657.657 0 0 0 .177.228m-.666-1.498c.098.023.197.037.297.042m-.317-.394a.788.788 0 0 0 .02.352m0 0a1.562 1.562 0 0 0-.258.366m-.235-3.211a1.606 1.606 0 0 0-.206.161m-.348-.173c.106.076.224.135.349.173m-.001.001a.67.67 0 0 0 .138.283m-.307-1.401c.062.029.126.05.193.062m-.164-.283a.528.528 0 0 0-.031.18l.002.041m0 0a1.797 1.797 0 0 0-.238.196m-.441-1.956a.694.694 0 0 0 .203.175m-.072-.393a.81.81 0 0 0-.132.218m-.381.031c.128-.004.256-.014.382-.031m-.933-1.306a1.594 1.594 0 0 0-.163.589m.163-.589c.142-.008.282-.023.423-.045m-.608-.462c.021.181.084.355.185.507m-.939-3.865a4.147 4.147 0 0 0-.385.256m-.558-.373c.161.158.351.285.559.374m0-.001c.023.194.092.381.2.543m-.331-2.343a.98.98 0 0 0 .277.101m-.222-.41a.78.78 0 0 0-.056.29v.02m.001-.001a3.72 3.72 0 0 0-.365.255m-.345-2.442a.673.673 0 0 0 .206.195m-.064-.412a.948.948 0 0 0-.143.217m-.393-.001a2.275 2.275 0 0 0 .393.001m-.756-1.273a1.57 1.57 0 0 0-.207.477m.207-.477a2.524 2.524 0 0 0 .352-.009m-.453-.407a.925.925 0 0 0 .101.416m-1.719-3.622c.074.167.186.316.325.435m-.012-.782a2.282 2.282 0 0 0-.312.347m-.68-.169c.218.087.446.144.68.169m-.727-2.069c-.154.153-.29.323-.406.506m.406-.506c.139.038.281.058.425.062m-.445-.546a1.1 1.1 0 0 0 .019.485m-3.721-3.617c.367-.133.732-.27 1.096-.412m0 0c.21.168.449.296.705.377m-.454-1.125a2.303 2.303 0 0 0-.251.748m-6.331-5.146a5.633 5.633 0 0 0 1.688 1.755m0-.001a5.48 5.48 0 0 0 .379 2.38m1.229-3.168c-.537.261-1.073.523-1.607.789m.34-6.709a2.263 2.263 0 0 0-.154.826m0 0a38.52 38.52 0 0 0-1.052.632m1.052-.632c.239.139.501.235.773.286m-2.131-5.59a1.952 1.952 0 0 0-.241.405m-.712-.002a3.173 3.173 0 0 0 .712.002m0 0c.105.145.242.264.398.351m-1.673-2.417a2.565 2.565 0 0 0 .52-.027m-.671-.563c.005.206.056.407.15.59m.001 0a2.82 2.82 0 0 0-.328.709m-1.394-5.142a2.626 2.626 0 0 0-.266.312m-.584-.158c.185.085.382.139.584.159m0 0c.069.153.173.288.303.394m-.906-2.021c.086.021.174.031.262.031l.044-.001m-.333-.364a.801.801 0 0 0 .026.334m.001 0a2.738 2.738 0 0 0-.29.362m-1.212-2.661a.95.95 0 0 0 .333.182m-.218-.519a1.16 1.16 0 0 0-.115.337m-.516.152c.175-.041.347-.091.516-.152m-1.614-1.491a2.211 2.211 0 0 0-.063.82m.063-.82c.184-.048.364-.106.541-.175m-.913-.434c.074.229.201.438.371.609m-2.139-4.488a5.165 5.165 0 0 0-.381.388m-.722-.301c.219.146.464.248.722.301m0 0c.073.22.197.42.362.584m-.937-2.567c.097.028.197.042.299.042h.027m-.342-.39a.894.894 0 0 0 .015.348m.001 0c-.12.115-.232.236-.339.363m-.921-2.491a.687.687 0 0 0 .254.15m-.16-.403c-.043.08-.074.165-.094.253"/><path stroke="#000" d="M388.68 98.367c.135-.018.268-.047.398-.087m-1.031-1.095a1.615 1.615 0 0 0-.104.51m.104-.51c.115-.019.229-.047.34-.084m-.526-.296a.904.904 0 0 0 .186.379m-2.293-2.985c.096.133.221.242.365.319m-.16-.678c-.08.113-.148.233-.205.359m-.617-.027a2.15 2.15 0 0 0 .617.027m-.983-1.613a2.52 2.52 0 0 0-.248.485m.248-.485l.078.002c.095 0 .188-.009.281-.028m-.459-.364a.929.929 0 0 0 .101.39m-3.392-2.259c.252-.139.501-.285.745-.438m0 0c.177.094.37.154.569.176m-.493-.75a1.747 1.747 0 0 0-.077.513l.001.061m-4.732-2.848c.314.419.721.761 1.188.999m-.001 0c.027.546.172 1.08.424 1.565m-.424-1.565c.327-.212.651-.43.971-.653m-4.16-4.871c-.293.304-.575.618-.848.939m-1.654-.664a4.41 4.41 0 0 0 1.654.665m0 0c.188.522.493.993.894 1.377m-2.379-5.658a2.13 2.13 0 0 0 .685.028m-.777-.735a1.828 1.828 0 0 0 .092.708m0-.001c-.228.257-.444.522-.65.795m-2.124-4.637c.144.107.308.182.482.22m-.365-.683a1.84 1.84 0 0 0-.117.463m-.687.217a3.79 3.79 0 0 0 .688-.217m-1.933-1.684a2.892 2.892 0 0 0-.099.85m.099-.85c.186-.049.367-.115.541-.196m-.899-.385c.073.218.195.417.357.581m-3.801-4.055c.147.166.33.295.536.378m-.317-.882c-.088.162-.161.33-.219.504m-.816.038a2.6 2.6 0 0 0 .815-.038m-1.464-1.909a3.47 3.47 0 0 0-.241.621m.241-.621c.147-.009.293-.037.433-.083m-.608-.37c.025.162.085.316.175.453m-3.972-2.178c.248-.157.489-.325.723-.504m0 0c.19.079.395.12.601.12h.003m-.589-.706a1.843 1.843 0 0 0-.014.586m-4.482-2.345c.274.349.626.629 1.027.818m.001 0c.04.489.178.966.404 1.402m-.404-1.402c.28-.195.553-.401.816-.618m-8.655-5.401c.344.406.776.726 1.265.936m-.756-2.105a10.1 10.1 0 0 0-.509 1.169m-1.855.002a5.267 5.267 0 0 0 1.855-.002m-3.112-4.06a9.509 9.509 0 0 0-.473 1.21m.473-1.21c.288-.024.571-.089.84-.194m-1.203-.659c.062.307.185.597.362.853m-6.564-3.623a8.522 8.522 0 0 0 1.032-.717m0 .001c.25.096.517.145.785.145.035 0 .069 0 .104-.002m-.902-.976a3.016 3.016 0 0 0 .014.833m-5.533-2.911c.29.394.669.714 1.104.937m.001 0c.029.581.159 1.151.383 1.688m-.383-1.688c.331-.214.646-.452.945-.711m-16.391-4.591a11.375 11.375 0 0 0 2.459-1.235m0 0a4.822 4.822 0 0 0 2.044.502m-1.959-2.341a8.526 8.526 0 0 0-.085 1.839m-9.238-6.012a4.839 4.839 0 0 0 1.457 1.52m0 0a11.41 11.41 0 0 0 .16 2.747m-.16-2.747a8.436 8.436 0 0 0 1.55-.993m-15.358-6.473a5.055 5.055 0 0 0 1.653-.512m.001 0c.41.266.877.433 1.363.488m-1.221-1.662c-.075.388-.123.78-.143 1.174m-4.49-3.547c.139.27.333.508.568.699m0 0a8.609 8.609 0 0 0-.105 1.252m.105-1.252c.261-.1.506-.236.729-.405m-7.505-3.041c.044.286.129.563.252.825m-.812 1.014c.293-.319.564-.658.812-1.015m0 0a2.295 2.295 0 0 0 .919-.112m-5.992-.554c.274-.324.527-.667.758-1.024m-2.201.398c.427.317.92.532 1.443.626m0 .001c.211.586.524 1.13.926 1.607m-11.474-5.035c.49-.022.972-.141 1.416-.351m0 0c.364.253.782.417 1.222.48m-1.095-1.496c-.057.337-.099.676-.127 1.016m-3.455-2.689c.104.179.241.337.405.463m.001 0a9.535 9.535 0 0 0-.074.878m.074-.878c.182-.075.351-.178.501-.306m-4.592-1.584c.029.145.078.284.144.416m-.417.519c.154-.16.294-.334.416-.52m0 .001l.068.002c.142 0 .281-.026.412-.076m-2.865-.24c.122-.138.231-.285.328-.441m-.923.167c.175.136.378.23.595.275m0-.001c.087.259.213.504.375.725m-5.887-2.556c.016.191.05.381.1.566m-.687.511c.253-.135.484-.307.687-.511m0 0a1.494 1.494 0 0 0 .682.019m-3.106-.851c.127-.096.242-.208.342-.333m-.775.026c.12.132.268.237.433.308m0-.001c.028.239.08.475.155.705m-4.87-1.185c.235-.048.459-.141.658-.274m-1.024-.305c.09.211.214.407.366.579m-.363.961c.134-.315.255-.636.363-.96m-4.449.852c.387.459.864.833 1.402 1.101m-1.402-1.101c.143-.397.272-.798.39-1.204m-2.03 1.119a3.61 3.61 0 0 0 1.64.085m-7.557-.787a3.822 3.822 0 0 0 1.567-.416m0 0c.44.285.938.465 1.459.528m-1.379-1.696c-.033.389-.06.778-.08 1.168m-3.809-2.552c.118.162.267.299.436.405m-.001.001a16.813 16.813 0 0 0-.006.865m.006-.865c.172-.091.327-.21.46-.353m-4.276-.914c.039.114.092.223.158.324m-.296.457c.114-.142.213-.295.296-.457m0 0a.94.94 0 0 0 .388-.108m-2.276.063c.081-.112.15-.231.208-.357m-.667.201c.139.086.296.14.459.157m0-.001c.085.189.196.364.331.521m-4.161-1.35c.023.115.056.228.098.337m-.39.344a1.64 1.64 0 0 0 .39-.344m0 0a.91.91 0 0 0 .42-.03m-1.885-.316a1.04 1.04 0 0 0 .172-.208m-.429.063a.707.707 0 0 0 .257.146m0-.001c.03.133.072.263.124.388m-2.596-.414a.869.869 0 0 0 .31-.162m-.51-.101c.053.097.12.185.199.262m-.145.475c.058-.156.105-.314.146-.475m-2.005.493c.175.197.386.358.622.475m-.622-.475c.058-.172.106-.347.146-.523m-.833.501a1.508 1.508 0 0 0 .687.022m-4.931-.688c.03.188.069.373.119.556m-.678.465c.254-.111.483-.269.678-.465m0-.001a1.527 1.527 0 0 0 .714.016m-2.812-.668c.091-.077.17-.167.234-.268m-.558.071a.947.947 0 0 0 .324.197m0 0c.031.177.073.351.126.523m-2.868-.674a.802.802 0 0 0 .303-.145m-.481-.105c.048.091.108.175.179.25m-.17.432c.068-.139.125-.284.169-.433m-1.71.291c.119.165.264.309.43.426m-.43-.426c.056-.125.102-.254.138-.386m-.63.321a1.07 1.07 0 0 0 .492.066m-4.562.339c.206-.01.406-.066.586-.166m-.823-.299c.063.163.143.318.237.465m-.451.639a2.83 2.83 0 0 0 .451-.639m-2.427-.072c.096.218.216.424.357.616m-.357-.616c.093-.127.17-.266.23-.411m-.733.241c.153.093.325.151.502.17m-5.062 2.291c.015-.408.022-.817.022-1.226m0 0c.245-.141.461-.327.638-.547m-1.273.02c.18.21.395.389.635.527m-7.252 3.965a5.491 5.491 0 0 0 2.25-.862m0 0a5.642 5.642 0 0 0 2.364.585m-2.364-.585a214.12 214.12 0 0 0-.121-1.786m-5.817-.961c.199.181.429.324.679.421m0 .001c.059.386.123.771.191 1.155m-.191-1.155c.207-.165.384-.365.522-.591m-5.59-.006c.075.123.165.236.267.337m-.236.604c.101-.192.18-.395.236-.604m0 0a1.12 1.12 0 0 0 .43-.226m-2.585.631c.063-.143.112-.292.145-.444m-.684.38a1.215 1.215 0 0 0 .539.064m0 0c.138.189.302.359.486.504m-4.651-.491c.048.107.104.21.169.309m-.309.418c.126-.121.23-.262.31-.418m-.001 0a.929.929 0 0 0 .41-.121m-1.891.103a.937.937 0 0 0 .117-.232m-.388.151a.666.666 0 0 0 .271.081m0 0c.057.119.123.232.198.34m-2.447.139a.783.783 0 0 0 .24-.203m-.466.013c.065.074.142.138.226.19m-.038.443a3.66 3.66 0 0 0 .038-.443m-1.624.787c.181.136.385.236.603.296m-.603-.296c.019-.153.028-.308.029-.462m-.6.559l.081.003c.168 0 .335-.034.49-.101m-3.959.27c.051.132.108.262.171.389m-.429.435a1.59 1.59 0 0 0 .429-.436m0 .001l.069.002c.159 0 .316-.032.462-.096m-2.127-.062a.851.851 0 0 0 .123-.223m-.377.136a.676.676 0 0 0 .253.088m.001-.001c.048.118.103.234.164.346m-2.028-.054a.525.525 0 0 0 .177-.137m-.328.001a.787.787 0 0 0 .151.137m-.052.303c.026-.1.043-.201.051-.304m-1.052.413c.096.088.206.161.325.215m-.325-.215c.02-.085.032-.172.036-.259m-.35.281a.68.68 0 0 0 .314-.022m-2.673.736a.775.775 0 0 0 .315-.158m-.5-.078c.054.084.116.164.185.236m-.189.406a1.53 1.53 0 0 0 .188-.406m-1.344.213c.074.107.159.207.253.297m-.253-.297c.037-.078.064-.16.081-.245m-.366.205a.657.657 0 0 0 .232.042c.018 0 .035 0 .053-.002m-2.399 1.588c-.02-.2-.045-.399-.077-.597m.001 0c.108-.088.199-.196.267-.318m-.614.115c.104.086.221.155.347.203m-3.079 2.19c.346-.078.668-.234.943-.458m0 .001a2.638 2.638 0 0 0 1.095.17m-1.095-.17a18.835 18.835 0 0 0-.142-.782m-4.067 1.226c.103.254.213.504.33.752m-.839.792c.332-.203.618-.472.839-.792m0 .001a2.35 2.35 0 0 0 1.062-.158m-3.948-.108a1.33 1.33 0 0 0 .193-.386m-.622.256c.133.07.279.114.429.129m0 .001c.089.197.184.391.287.581m-3.162-.002a.754.754 0 0 0 .244-.212m-.47.03c.067.07.144.131.227.182m-.056.436c.033-.143.051-.289.055-.436m-1.411.634c.131.111.279.202.437.27m-.437-.27c.02-.108.029-.218.029-.328v-.015m-.434.39a.86.86 0 0 0 .405-.047m-3.107 1.004a.835.835 0 0 0 .331-.185"/><path stroke="#000" d="M145.677 18.686c.062.085.132.165.208.238m-.183.432c.083-.134.146-.279.184-.433m-1.347.284c.077.1.164.193.258.277m-.258-.277a.918.918 0 0 0 .063-.242m-.338.221a.663.663 0 0 0 .275.021m-2.076 1.458a5.16 5.16 0 0 0-.071-.481m0 0a.859.859 0 0 0 .207-.271m-.494.12c.087.064.184.115.286.15m-2.242 1.6a1.52 1.52 0 0 0 .646-.29m0 0c.245.102.508.154.774.154h.004m-.778-.154a6.278 6.278 0 0 0-.097-.545m-4.628 2.7c.267-.055.517-.171.731-.339m-1.13-.172c.122.178.255.349.399.511m-.456.826c.201-.245.356-.525.457-.826m-2.539.386c.125.174.262.34.409.496m-.409-.496c.059-.13.098-.269.116-.41m-.569.363a1.123 1.123 0 0 0 .453.048m-3.094 1.891c0-.199-.017-.397-.048-.594m-.001 0c.112-.091.204-.204.269-.333m-.614.143c.105.079.222.144.345.19m-2.477 1.532c.225-.021.441-.094.632-.213m-.001 0c.238.127.497.212.764.252m-.764-.252a3.666 3.666 0 0 0-.059-.543m-5.644 5.047c.101-.381.152-.774.152-1.169m.001 0c.266-.153.493-.364.666-.617m-1.302.153c.195.177.408.332.635.463m-4.241 1.762a2.028 2.028 0 0 0 .847-.13m0 0c.296.237.62.438.963.6m-.963-.6a3.294 3.294 0 0 0 .028-.754m-8.259 6.257c.484.178.997.27 1.513.27m-.001 0l1.128 1.955m-1.128-1.955c.258-.447.435-.937.522-1.445m-9.547 4.024c.208.143.431.261.666.353m.039 1.134a4.949 4.949 0 0 0-.038-1.134m0 0c.226-.181.409-.409.536-.669m-3.646 2.793c0-.263-.028-.525-.083-.782m-.785 1.05a2.04 2.04 0 0 0 .867-.268m.001 0c.342.197.708.35 1.089.453m-7.194 2.364c.139.119.286.227.441.323m-.164.787c.099-.251.154-.517.164-.787m0 0c.199-.106.371-.257.501-.44m-2.566 1.379a1.388 1.388 0 0 0 .008-.393m-.43.459a1.034 1.034 0 0 0 .423-.067m-.001.001c.154.125.318.239.49.338m-3.186 1.735c.09-.125.153-.266.186-.416m-.599.311c.132.055.271.09.413.104m.225.603a5.025 5.025 0 0 0-.225-.603m-1.603 2.006a2.588 2.588 0 0 0 .943.017m-.943-.017a5.208 5.208 0 0 0-.243-.601m-.416 1.064c.253-.101.479-.259.659-.463m-4.653 2.658a6.3 6.3 0 0 0 .424.357m-.256.751c.134-.231.221-.486.256-.751m.001 0c.221-.091.417-.233.573-.415m-2.506 1.142a1.066 1.066 0 0 0 .013-.323m-.35.367l.06.002a.88.88 0 0 0 .278-.046m-.001 0c.122.107.25.208.381.302m-2.3 1.069a.643.643 0 0 0 .118-.249m-.359.183a.957.957 0 0 0 .241.066m.111.362a2.038 2.038 0 0 0-.111-.361m-.919 1.024c.134.039.273.058.413.058l.054-.001m-.467-.057a1.816 1.816 0 0 0-.102-.299m-.223.492a.82.82 0 0 0 .326-.193m-2.424 2.188a.89.89 0 0 0 .243-.326m-.554.18c.099.059.204.107.312.146m.015.513a1.783 1.783 0 0 0-.015-.514m-1.255.906c.129.07.265.127.405.17m-.405-.17a1.115 1.115 0 0 0-.044-.287m-.261.393a.77.77 0 0 0 .305-.105m-1.58 2.738a8.823 8.823 0 0 0-.359-.538m0 0c.062-.138.096-.286.102-.437m-.533.41a1.343 1.343 0 0 0 .431.027m-1.881 3.472c.285-.225.513-.512.668-.84m0 0a2.79 2.79 0 0 0 1.105-.331m-1.105.331a14.248 14.248 0 0 0-.487-.662m-3.095 2.91c.198.175.401.347.606.514m-.4 1.033c.205-.312.342-.665.4-1.034m0 0c.331-.127.628-.328.868-.588m-3.436 1.571a1.259 1.259 0 0 0-.002-.402m-.407.473h.02c.133 0 .265-.024.39-.072m-.001.001c.156.126.315.249.479.365m-2.575 1.283a.664.664 0 0 0 .108-.267m-.361.215c.082.028.166.045.252.052m.131.368a1.986 1.986 0 0 0-.13-.368m-.857 1.058a1.543 1.543 0 0 0 .445.04m-.445-.04a1.632 1.632 0 0 0-.112-.278m-.182.472a.795.795 0 0 0 .294-.194m-1.974 1.947a.682.682 0 0 0 .176-.261m-.419.163c.078.04.159.073.243.099m.024.388a1.225 1.225 0 0 0-.024-.389m-.883.706c.093.044.189.08.289.107m-.289-.107a.753.753 0 0 0-.043-.199m-.164.283a.538.538 0 0 0 .207-.085m-.968 1.784a3.757 3.757 0 0 0-.218-.315m.001 0a.679.679 0 0 0 .05-.256v-.007m-.305.258a.854.854 0 0 0 .254.005m-1.01 1.874c.146-.109.265-.25.347-.414m0 0a1.56 1.56 0 0 0 .591-.154m-.591.154a4.43 4.43 0 0 0-.251-.343m-2.213 3.294c.157-.118.284-.271.37-.446m-.784.24c.134.076.272.145.414.206m-.045.67a1.829 1.829 0 0 0 .045-.67m-1.493 1.013c.13.071.265.134.403.189m-.403-.189a.988.988 0 0 0-.051-.29m-.245.397a.78.78 0 0 0 .296-.106m-1.344 2.049a2.353 2.353 0 0 0-.196-.341m0 0a.69.69 0 0 0 .066-.276m-.326.26a.96.96 0 0 0 .26.016m-1.034 1.586a.928.928 0 0 0 .31-.294m0 0l.084.002c.146 0 .292-.021.433-.062m-.517.06a2.196 2.196 0 0 0-.183-.301m-1.901 4.273a2.594 2.594 0 0 0-.194-.673m.001 0a1.22 1.22 0 0 0 .214-.499m-.671.402c.148.048.301.081.457.097m-1.839 1.923c.154-.055.294-.144.41-.259m.001 0c.209.057.424.089.641.098m-.642-.098a1.787 1.787 0 0 0-.159-.399m-2.789 4.844c.265-.007.526-.061.773-.157m.905.743a46.39 46.39 0 0 0-.905-.743m0 0a2.15 2.15 0 0 0-.026-.799m-2.077 5.518c.494.334.99.667 1.487.998m-.676 2.339a5.64 5.64 0 0 0 .676-2.34m0 0a5.48 5.48 0 0 0 1.872-1.518m-7.06 4.299c0-.277-.047-.552-.139-.813m-.653 1.091c.279-.043.548-.138.792-.279m0 .001c.354.204.712.402 1.073.594m-4.516 3.239a1.22 1.22 0 0 0 .104-.494v-.026m-.575.513a1.912 1.912 0 0 0 .471.007m.354.617a3.255 3.255 0 0 0-.354-.617m-1.151 2.138l.135.003c.217 0 .433-.024.644-.074m-.779.071a2.626 2.626 0 0 0-.284-.438m-.152.863c.176-.107.325-.252.436-.425m-2.575 3.78c.098-.136.163-.293.189-.458m-.593.385c.132.035.268.06.404.073m.154.587a1.853 1.853 0 0 0-.154-.586m-1.107 1.336c.151.036.304.06.459.07m-.459-.07a1.139 1.139 0 0 0-.126-.28m-.15.469a.809.809 0 0 0 .276-.189m-.85 2.821a4.558 4.558 0 0 0-.39-.371m0 0a.934.934 0 0 0-.009-.378m-.34.447c.119-.005.237-.029.35-.069m-.827 2.769c.162-.179.279-.394.342-.626m0 0a2.21 2.21 0 0 0 .742-.354m-.742.354a5.06 5.06 0 0 0-.421-.381m-1.87 4.615c.154-.174.265-.381.325-.606m-.851.47c.173.054.349.099.526.136m.1.775a2.057 2.057 0 0 0-.101-.776m-1.428 1.49c.159.046.321.083.484.111m-.484-.111a1.054 1.054 0 0 0-.127-.304m-.167.491a.877.877 0 0 0 .294-.187m-.939 2.457a2.45 2.45 0 0 0-.274-.302m0 0a.734.734 0 0 0 .003-.295m-.269.34c.09-.003.18-.018.266-.045m-.67 1.791a.909.909 0 0 0 .236-.35m.001 0c.172-.028.339-.084.493-.166m-.493.166a2.15 2.15 0 0 0-.243-.253m-.912 4.28a2.15 2.15 0 0 0-.285-.548m0 0c.062-.138.094-.288.094-.44v-.036m-.507.478a2.186 2.186 0 0 0 .413-.002m-1.193 1.939a.945.945 0 0 0 .288-.282m0-.001a2.586 2.586 0 0 0 .543-.027m-.543.027a1.475 1.475 0 0 0-.202-.298m-1.346 4.16c.189-.043.37-.119.535-.221m.752.427a15.95 15.95 0 0 0-.752-.427m0 0a1.597 1.597 0 0 0-.132-.581m.304 4.576a36.479 36.479 0 0 0-1.051-.515m.779 2.042a3.449 3.449 0 0 0 .271-1.528m.001.001a3.825 3.825 0 0 0 1.144-1.15m-3.096 6.938c.358-.423.613-.924.746-1.462m-1.983 1.198c.409.101.822.189 1.237.264m.251 1.765a4.406 4.406 0 0 0-.252-1.765m-2.963 3.426c.335.068.673.124 1.014.166m-1.014-.166a2.173 2.173 0 0 0-.318-.607m-.249 1.041c.215-.106.408-.253.567-.434m-1.409 4.811a3.73 3.73 0 0 0-.533-.487m0-.001a1.225 1.225 0 0 0-.051-.527m-.408.657c.158-.023.312-.067.459-.13m-.816 3.115c.153-.172.264-.377.324-.6m0 .001a2.9 2.9 0 0 0 .786-.339m-.786.339a3.241 3.241 0 0 0-.44-.37m-.729 6.377a2.655 2.655 0 0 0-.44-.687m-.001 0a1.43 1.43 0 0 0 .06-.653m-.606.716c.184-.005.366-.026.546-.063m-1.226 2.602c.128-.103.231-.232.305-.379m0 0c.222-.013.442-.047.658-.101m-.658.101a1.7 1.7 0 0 0-.289-.333m-.923 4.768c.185-.066.359-.161.515-.28m.797.374a9.342 9.342 0 0 0-.798-.374m0 0a1.588 1.588 0 0 0-.198-.583m.602 4.338a12.558 12.558 0 0 0-.943-.399m.748 1.696a2.858 2.858 0 0 0 .195-1.298m0 .001c.403-.28.748-.638 1.011-1.052m-1.375 12.454a5.245 5.245 0 0 0-.93-1.605m0 0a3.431 3.431 0 0 0 .18-1.563m-1.446 1.707a9.95 9.95 0 0 0 1.266-.144m-2.516 5.466c.234-.206.424-.458.557-.74m0-.001a9.631 9.631 0 0 0 1.285-.196m-1.285.196a3.012 3.012 0 0 0-.588-.631M8.759 192.6c.257-.108.498-.253.715-.429m1.137.536a8.478 8.478 0 0 0-1.137-.535m0-.001a2.194 2.194 0 0 0-.321-.841"/><path stroke="#D59758" d="M9.979 196.992a8.542 8.542 0 0 0-1.088-.463m.829 1.888a3.157 3.157 0 0 0 .26-1.425m-.001 0a5.077 5.077 0 0 0 1.271-1.175m-2.074 16.536a8.36 8.36 0 0 0 1.635-.846m2.298 1.512a11.381 11.381 0 0 0-2.298-1.512m0 0a4.843 4.843 0 0 0-.587-2.021m.587 11.007a8.477 8.477 0 0 0-1.635-.847m1.048 2.869a4.837 4.837 0 0 0 .587-2.021m0-.001a11.288 11.288 0 0 0 2.298-1.513m-4.218 16.491a8.342 8.342 0 0 0 1.088-.463m1.271 1.176a5.064 5.064 0 0 0-1.271-1.176m0 0a3.157 3.157 0 0 0-.26-1.425m-.245 6.245a2.981 2.981 0 0 0-.715-.428m.394 1.27c.164-.255.273-.542.321-.842m0 0a8.408 8.408 0 0 0 1.137-.534m-.145 7.496a2.29 2.29 0 0 0-.557-.741m-.031 1.371c.225-.181.423-.393.588-.63m1.284.195a9.292 9.292 0 0 0-1.285-.195m1.96 4.726a5.315 5.315 0 0 0 .93-1.606m-.93 1.605a9.95 9.95 0 0 0-1.266-.144m1.445 1.707a3.407 3.407 0 0 0-.18-1.563m.352 10.196c.32-.119.634-.253.943-.398m1.011 1.051a3.725 3.725 0 0 0-1.011-1.052m0 0a2.846 2.846 0 0 0-.195-1.298m-.209 5.053a1.854 1.854 0 0 0-.515-.28m.317.862c.104-.179.171-.377.198-.582m0 0c.271-.112.538-.237.798-.374m-.1 4.529a1.152 1.152 0 0 0-.305-.378m.017.711c.11-.098.207-.209.289-.333m.657.101a3.675 3.675 0 0 0-.658-.102m.921 2.224c.182-.205.33-.437.44-.688m-.44.688a3.129 3.129 0 0 0-.546-.063m.606.717a1.43 1.43 0 0 0-.06-.653m1.61 5.319a1.507 1.507 0 0 0-.324-.6m-.116.97c.157-.109.305-.233.44-.37m.786.339a2.846 2.846 0 0 0-.786-.34m.492 2.516c.193-.145.372-.308.533-.486m-.533.486a1.925 1.925 0 0 0-.459-.13m.409.659a1.227 1.227 0 0 0 .051-.528m2.955 4.157c-.34.042-.678.098-1.014.166m0 0a1.864 1.864 0 0 0-.567-.434m.249 1.04c.138-.184.245-.389.318-.606m3.71 4.888a3.601 3.601 0 0 0-.746-1.462m0 0a4.406 4.406 0 0 0 .252-1.765m-.252 1.765c-.416.075-.828.163-1.237.265m2.137 6.038c.354-.166.704-.337 1.051-.515m1.145 1.15a3.822 3.822 0 0 0-1.144-1.149m0-.001a3.447 3.447 0 0 0-.271-1.528m.099 5.523a1.733 1.733 0 0 0-.535-.222m.402.803c.081-.184.125-.38.132-.58m.001-.001c.255-.136.505-.278.752-.427m.261 4.067a.956.956 0 0 0-.288-.282m.086.581c.079-.091.147-.191.202-.299m.543.028a2.587 2.587 0 0 0-.543-.028m.905 1.657a2.15 2.15 0 0 0 .285-.548m-.285.548a1.947 1.947 0 0 0-.413-.002m.507.478v-.036c0-.151-.032-.302-.094-.439m1.44 3.478a.916.916 0 0 0-.236-.35m-.008.603a2.15 2.15 0 0 0 .243-.253m.494.165a1.62 1.62 0 0 0-.493-.165m.433 1.44c.1-.092.192-.193.274-.301m-.274.301a1.035 1.035 0 0 0-.266-.044m.269.34a.751.751 0 0 0-.003-.296m1.697 2.044a4.408 4.408 0 0 0-.484.111m0 .001a.885.885 0 0 0-.294-.188m.167.491c.058-.094.101-.196.127-.304m1.753 2.096a1.472 1.472 0 0 0-.325-.605m.001 0a2.061 2.061 0 0 0 .101-.776m-.101.776a5.076 5.076 0 0 0-.526.136m2.817 4.097a1.537 1.537 0 0 0-.342-.626m-.08 1.007c.147-.119.288-.247.421-.381m.743.354a2.228 2.228 0 0 0-.742-.354m.484 2.143c.137-.115.267-.239.39-.37m-.39.37a1.188 1.188 0 0 0-.35-.068m.341.448a.944.944 0 0 0 .009-.38m1.699 2.38a2.843 2.843 0 0 0-.459.07m0 0a.805.805 0 0 0-.276-.189m.149.468c.055-.087.097-.181.126-.279m1.297 1.795a1.094 1.094 0 0 0-.189-.458m0 0c.083-.186.135-.384.154-.586m-.154.586a2.654 2.654 0 0 0-.404.073m3.757 3.778a2.79 2.79 0 0 0-.779-.071m.001 0a1.351 1.351 0 0 0-.436-.425m.151.863c.109-.136.205-.282.284-.438m1.256 2.658v-.025c0-.171-.036-.339-.104-.495m0 0c.141-.191.259-.398.354-.617m-.354.617a2.074 2.074 0 0 0-.471.007m3.775 4.639c.092-.261.139-.536.139-.812m1.074-.595c-.361.192-.719.39-1.073.595m-.001 0a2.265 2.265 0 0 0-.792-.279m5.98 3.058c-.497.331-.993.663-1.487.998m3.359.521a5.495 5.495 0 0 0-1.872-1.519m0 0a5.636 5.636 0 0 0-.676-2.339m1.292 8.056a2.305 2.305 0 0 0-.773-.156m.747.956a2.18 2.18 0 0 0 .026-.8m0 0c.305-.243.606-.491.905-.743m1.27 5.031a1.117 1.117 0 0 0-.41-.259m.252.658c.069-.126.122-.261.159-.399m.641-.098a2.833 2.833 0 0 0-.641.098m1.428 1.664c.095-.215.16-.44.194-.673m-.194.673a2.31 2.31 0 0 0-.457.097m.67.402a1.202 1.202 0 0 0-.214-.499m2.278 3.3a.92.92 0 0 0-.31-.295m.127.596c.069-.096.13-.196.183-.301m.516.058a1.547 1.547 0 0 0-.517-.059m.725 1.292c.075-.108.14-.223.196-.342m-.196.342a.94.94 0 0 0-.26.016m.326.259a.674.674 0 0 0-.066-.275m1.943 1.52a3.512 3.512 0 0 0-.403.188m0 .001a.747.747 0 0 0-.296-.106m.244.396a.956.956 0 0 0 .051-.29m1.864 1.459a1.238 1.238 0 0 0-.37-.446m0 0a1.829 1.829 0 0 0-.045-.67m.045.67c-.142.061-.28.13-.414.206m2.878 2.745a1.165 1.165 0 0 0-.347-.413m.096.756a4.43 4.43 0 0 0 .251-.343m.591.153a1.576 1.576 0 0 0-.591-.153m.664 1.46c.078-.101.151-.206.218-.314m-.218.314a.827.827 0 0 0-.254.005m.304.258v-.007a.688.688 0 0 0-.05-.257m1.473 1.362a1.76 1.76 0 0 0-.289.107m.001 0a.538.538 0 0 0-.207-.085m.164.285a.753.753 0 0 0 .043-.199m1.059.966a.697.697 0 0 0-.176-.262m0 .001a1.21 1.21 0 0 0 .024-.389m-.024.389a1.548 1.548 0 0 0-.243.099m2.663 1.809a1.593 1.593 0 0 0-.445.039m-.001 0a.795.795 0 0 0-.294-.194m.182.472c.046-.089.083-.182.112-.278m.964 1.325a.668.668 0 0 0-.108-.268m.001 0c.056-.117.1-.24.13-.367m-.13.367a.984.984 0 0 0-.252.053m2.345 1.998a1.197 1.197 0 0 0 .002-.402m.479-.365c-.163.117-.323.239-.479.365m.001 0a1.104 1.104 0 0 0-.39-.071h-.02m2.978 1.054c-.206.166-.408.338-.606.514m1.474.074a2.289 2.289 0 0 0-.868-.588m0 0a2.644 2.644 0 0 0-.4-1.034m3.376 3.795a2.358 2.358 0 0 0-.668-.841m.181 1.502a15.6 15.6 0 0 0 .487-.661m1.105.331a2.79 2.79 0 0 0-1.105-.331m1.213 2.633c.126-.176.246-.355.359-.539m-.359.539a1.336 1.336 0 0 0-.431.026m.533.409a1.193 1.193 0 0 0-.102-.436m2.344 2.03c-.14.043-.276.101-.405.171m0 0a.726.726 0 0 0-.305-.105m.261.391c.027-.093.042-.189.044-.286m1.498 1.231a.898.898 0 0 0-.243-.326m-.001 0a1.763 1.763 0 0 0 .015-.514m-.015.514a1.924 1.924 0 0 0-.312.146M426.1 215.9c0-115.92-94.08-210-210-210s-210 94.08-210 210 94.08 210 210 210 210-94.08 210-210"/></g><g fill="#0060B6" font-family="Times,serif"><text transform="translate(95.667 224.666)" font-size="48">+2</text><text transform="translate(233 141.333)" font-size="48">+1</text><text transform="translate(239 311.334)" font-size="48">+3</text><text transform="translate(125 95.334)" font-size="36">-3</text><text transform="translate(347.667 223.999)" font-size="36">-2</text><text transform="translate(126.334 351.333)" font-size="36">-1</text><text transform="translate(191 44.666)" font-size="24">-2</text><text transform="translate(365.667 146.667)" font-size="24">-3</text><text transform="translate(362.333 295.334)" font-size="24">-1</text><text transform="translate(188.333 396.667)" font-size="24">-2</text><text transform="translate(63.667 322.666)" font-size="24">-3</text><text transform="translate(61 120)" font-size="24">-1</text><text transform="translate(353.001 104)" font-size="18">+2</text><text transform="translate(353 338)" font-size="18">+2</text><text transform="translate(235.668 405.334)" font-size="18">+1</text><text transform="translate(31 286.667)" font-size="18">+1</text><text transform="translate(32.334 151.333)" font-size="18">+3</text><text transform="translate(235 34.666)" font-size="18">+3</text><text transform="translate(269.668 37.334)" font-size="14">+2</text><text transform="translate(339 75.332)" font-size="14">+3</text><text transform="translate(336.333 364.001)" font-size="14">+1</text><text transform="translate(269.666 402.666)" font-size="14">+2</text><text transform="translate(19 257.333)" font-size="14">+3</text><text transform="translate(19.667 181.333)" font-size="14">+1</text><text transform="translate(76 79)" font-size="12">-2</text><text transform="translate(157.667 32.333)" font-size="12">-1</text><text transform="translate(298.334 45.334)" font-size="12">-3</text><text transform="translate(319.667 57.334)" font-size="12">-2</text><text transform="translate(401.001 172)" font-size="12">-1</text><text transform="translate(399 266)" font-size="12">-3</text><text transform="translate(319 380.667)" font-size="12">-2</text><text transform="translate(299 394.667)" font-size="12">-1</text><text transform="translate(157.667 406.666)" font-size="12">-3</text><text transform="translate(75.666 359.333)" font-size="12">-2</text><text transform="translate(17.667 231.333)" font-size="12">-1</text><text transform="translate(16.666 207.333)" font-size="12">-3</text></g></svg>