<svg xmlns="http://www.w3.org/2000/svg" width="513" height="441"><path fill="none" stroke="#E4BC96" stroke-dasharray="4,4" d="M9.913 222.504l124.708-216h249.414l124.707 216-124.707 216H134.621z"/><g fill="none" stroke="#0060B6" stroke-width="2"><path d="M41.09 168.504l31.177 18 62.354-36v-72l-31.177-18m93.531 126l-62.354-36 62.353 36zm218.237-126l-31.177 18v72l62.354 36 31.176-18m-280.59-162v36l62.353 36 62.354-36v-36m-62.354 288l-62.354-36zm218.237-18l-31.176-18-62.354 36v72l31.177 18m-93.53 54v-36l-62.354-36-62.354 36v36m-93.53-54l31.177-18v-72l-62.354-36-31.177 18"/><path d="M196.975 186.504h-.001v72l62.354 36 62.354-36v-72l-62.354-36zm-.001 0l-62.353-36-62.354 36v72l62.354 36 62.353-36zm124.708 0l62.353-36v-72l-62.353-36-62.354 36v72z"/><path d="M196.974 258.504l-62.353 36v72l62.353 36 62.354-36v-72zm-155.884 18l31.177-18v-72l-31.177-18m218.238 126v72l62.354 36 62.353-36v-72l-62.353-36zm0 0l62.354-36-62.354 36zm62.354-108v72l62.353 36 62.354-36v-72l-62.354-36zm-62.354-36v-72l-62.353-36-62.354 36v72l62.354 36zm0 0l-62.353 36z"/><path d="M103.444 60.504l31.177 18 62.354-36v-36m0 36l-62.354 36zm124.707-36v36l62.353 36 31.177-18m62.353 108l-31.176 18v72l31.176 18m-62.353 108l-31.177-18-62.353 36v36m-124.708 0v-36l-62.353-36-31.177 18"/></g><g fill="red" stroke="#000"><circle cx="196.975" cy="42.504" r="6"/><circle cx="259.328" cy="78.504" r="6"/><circle cx="321.682" cy="42.504" r="6"/><circle cx="384.035" cy="78.504" r="6"/><circle cx="134.621" cy="78.504" r="6"/><circle cx="134.621" cy="150.504" r="6"/><circle cx="196.974" cy="186.504" r="6"/><circle cx="259.328" cy="150.504" r="6"/><circle cx="321.682" cy="186.504" r="6"/><circle cx="384.035" cy="150.504" r="6"/><circle cx="446.389" cy="186.504" r="6"/><circle cx="446.389" cy="258.504" r="6"/><circle cx="384.035" cy="294.504" r="6"/><circle cx="321.682" cy="258.504" r="6"/><circle cx="259.328" cy="294.504" r="6"/><circle cx="196.974" cy="258.504" r="6"/><circle cx="134.621" cy="294.504" r="6"/><circle cx="72.267" cy="186.504" r="6"/><circle cx="72.267" cy="258.504" r="6"/><circle cx="134.621" cy="366.504" r="6"/><circle cx="196.974" cy="402.504" r="6"/><circle cx="259.328" cy="366.504" r="6"/><circle cx="321.682" cy="402.504" r="6"/><circle cx="384.035" cy="366.504" r="6"/></g><g font-family="'Helvetica'" font-size="18"><text transform="translate(266 144)">123</text><text transform="translate(329.334 204)">124</text><text transform="translate(329.334 252.333)">134</text><text transform="translate(266 312)">132</text><text transform="translate(205 252.333)">142</text><text transform="translate(205 204)">143</text><text transform="translate(266 95)">423</text><text transform="translate(329.334 36)">421</text><text transform="translate(391 95)">321</text><text transform="translate(391 144)">324</text><text transform="translate(453 204)">314</text><text transform="translate(453 252.333)">214</text><text transform="translate(391 312)">234</text><text transform="translate(391 360)">231</text><text transform="translate(329.334 419)">431</text><text transform="translate(266 360)">432</text><text transform="translate(205 419)">412</text><text transform="translate(142 360)">312</text><text transform="translate(142 312)">342</text><text transform="translate(79 252.333)">341</text><text transform="translate(79 204)">241</text><text transform="translate(142 144)">243</text><text transform="translate(142 95)">213</text><text transform="translate(205 36)">413</text></g></svg>