<svg xmlns="http://www.w3.org/2000/svg" width="630" height="594"><g fill="none" stroke="#BF0000" stroke-dasharray="4"><circle cx="63" cy="171" r="54"/><circle cx="207" cy="63" r="54"/><circle cx="567" cy="63" r="54"/><circle cx="423" cy="171" r="54"/><circle cx="207" cy="423" r="54"/><circle cx="63" cy="531" r="54"/><circle cx="423" cy="531" r="54"/><circle cx="567" cy="423" r="54"/></g><g fill="none" stroke="#0060B6" stroke-width="2"><path d="M81 198L207 63M63 171L189 36M45 144l180-54m216 108L549 36M423 171l162-81m-180 54l162-81M189 36l378 27m-360 0l378 27m-360 0l324-54m36 414V90m-36 306V36M225 90v360M189 36v360m252 162l144-108H225L63 531"/><path d="M405 504l144-108H189L81 558"/><path d="M81 197.999h360L423 531"/><path d="M45 143.999h360L441 558m-360 0h360M45 504h360M81 197.999V558M45 143.999V504m18-333.001V531m0 0h360"/><path d="M63 170.999h360L405 504"/><path d="M423 531l144-108H207L45 504M207 63v360m360 0V63"/></g><g fill="#FFFFF5" stroke="#0060B6"><circle cx="45" cy="144" r="13.5"/><circle cx="81" cy="198" r="13.5"/><circle cx="81" cy="558" r="13.5"/><circle cx="441" cy="558" r="13.5"/><circle cx="405" cy="144" r="13.5"/><circle cx="441" cy="198" r="13.5"/><circle cx="63" cy="531" r="13.5"/><circle cx="189" cy="396" r="13.5"/><circle cx="225" cy="450" r="13.5"/><circle cx="549" cy="396" r="13.5"/><circle cx="585" cy="450" r="13.5"/><circle cx="405" cy="504" r="13.5"/><circle cx="63" cy="171" r="13.5"/><circle cx="423" cy="171" r="13.5"/><circle cx="45" cy="504" r="13.5"/><circle cx="189" cy="36" r="13.5"/><circle cx="225" cy="90" r="13.5"/><circle cx="549" cy="36" r="13.5"/><circle cx="585" cy="90" r="13.5"/><circle cx="423" cy="531" r="13.5"/><circle cx="207" cy="423" r="13.5"/><circle cx="207" cy="63" r="13.5"/><circle cx="567" cy="423" r="13.5"/><circle cx="567" cy="63" r="13.5"/></g><g font-family="'Helvetica'" font-size="14"><text transform="translate(33.32 148)">123</text><text transform="translate(69.32 202)">312</text><text transform="translate(69.32 562)">412</text><text transform="translate(429.32 562)">413</text><text transform="translate(393.32 148)">423</text><text transform="translate(429.32 202)">342</text><text transform="translate(51.32 535)">241</text><text transform="translate(177.32 400)">432</text><text transform="translate(213.32 454)">243</text><text transform="translate(537.32 400)">132</text><text transform="translate(573.32 454)">213</text><text transform="translate(393.32 508)">134</text><text transform="translate(51.32 175)">231</text><text transform="translate(411.32 175)">234</text><text transform="translate(33.32 508)">124</text><text transform="translate(177.32 40)">431</text><text transform="translate(213.32 94)">143</text><text transform="translate(537.32 40)">142</text><text transform="translate(573.32 94)">214</text><text transform="translate(411.32 535)">341</text><text transform="translate(195.32 427)">324</text><text transform="translate(195.32 67)">314</text><text transform="translate(555.32 427)">321</text><text transform="translate(555.32 67)">421</text></g></svg>