<svg xmlns="http://www.w3.org/2000/svg" width="504" height="504">
    <path d="M221.185 489.26l-60.518-16.215-54.258-31.326-44.303-44.303-31.326-54.258-16.216-60.517v-62.654l16.216-60.518 31.326-54.258 44.303-44.302 54.258-31.326 60.518-16.216h62.653l60.517 16.216 54.258 31.326 44.303 44.302 31.326 54.258 16.217 60.518v62.654l-16.217 60.517-31.326 54.258-44.303 44.303-54.258 31.326-60.517 16.215zM106.409 60.909h292.204m44.303 44.302v292.205M62.106 105.211v292.205m44.303 44.303h292.204M283.838 13.367L14.564 282.641M221.185 13.367l269.274 269.274m0-62.654L221.185 489.26m62.653 0L14.564 219.987M160.667 29.583v443.462M344.355 29.583v443.462m129.887-129.887H30.78m0-183.689h443.462" fill="none" stroke="#000"/>
    <g fill="#FFC" stroke="#000">
        <circle cx="221.185" cy="13.367" r="6"/>
        <circle cx="283.838" cy="13.367" r="6"/>
        <circle cx="344.355" cy="29.583" r="6"/>
        <circle cx="398.613" cy="60.909" r="6"/>
        <circle cx="442.916" cy="105.211" r="6"/>
        <circle cx="474.242" cy="159.469" r="6"/>
        <circle cx="490.459" cy="219.987" r="6"/>
        <circle cx="490.459" cy="282.641" r="6"/>
        <circle cx="474.242" cy="343.158" r="6"/>
        <circle cx="442.916" cy="397.416" r="6"/>
        <circle cx="398.613" cy="441.719" r="6"/>
        <circle cx="344.355" cy="473.045" r="6"/>
        <circle cx="283.838" cy="489.26" r="6"/>
        <circle cx="221.185" cy="489.26" r="6"/>
        <circle cx="160.667" cy="473.045" r="6"/>
        <circle cx="106.409" cy="441.719" r="6"/>
        <circle cx="62.106" cy="397.416" r="6"/>
        <circle cx="30.78" cy="343.158" r="6"/>
        <circle cx="14.564" cy="282.641" r="6"/>
        <circle cx="14.564" cy="219.987" r="6"/>
        <circle cx="30.78" cy="159.469" r="6"/>
        <circle cx="62.106" cy="105.211" r="6"/>
        <circle cx="106.409" cy="60.909" r="6"/>
        <circle cx="160.667" cy="29.583" r="6"/>
    </g>
</svg>
