<svg xmlns="http://www.w3.org/2000/svg" width="324" height="324">
    <path fill="#F0DCC8" d="M9.265 238.367L85.633 162 9.265 85.633c-5.272-5.272 7.549-26.642 28.638-47.73S80.36 3.993 85.633 9.265L162 85.633l76.368-76.368c5.272-5.272 26.642 7.55 47.729 28.638 21.088 21.088 33.91 42.458 28.638 47.73L238.367 162l76.367 76.367c5.273 5.273-7.549 26.642-28.637 47.73-21.088 21.088-42.457 33.91-47.73 28.637L162 238.367l-76.367 76.367c-5.272 5.273-26.642-7.549-47.73-28.637s-33.91-42.456-28.638-47.73z"/>
    <path fill="none" stroke="#8B5C29" stroke-width="1.5" d="M85.633 9.265L162 85.633l76.368-76.368m76.367 76.368L238.367 162l76.367 76.367m-76.367 76.367L162 238.367l-76.367 76.367M9.265 238.367L85.633 162 9.265 85.633"/>
    <ellipse transform="rotate(45.001 276.555 47.447)" fill="#E4BC96" stroke="#8B5C29" stroke-width="1.5" cx="276.552" cy="47.449" rx="54" ry="13.5"/>
    <path fill="none" stroke="#8B5C29" stroke-width="1.5" d="M85.633 314.734c-5.272 5.273-26.642-7.549-47.73-28.637s-33.91-42.457-28.638-47.73"/>
    <ellipse transform="rotate(45.001 47.45 47.449)" fill="#E4BC96" stroke="#8B5C29" stroke-width="1.5" cx="47.449" cy="47.449" rx="13.5" ry="54"/>
    <path fill="none" stroke="#8B5C29" stroke-width="1.5" d="M314.734 238.367c5.273 5.273-7.549 26.642-28.637 47.73-21.088 21.088-42.457 33.91-47.73 28.637"/>
    <path fill="none" stroke="#8B5C29" stroke-width=".75" stroke-dasharray="3" d="M9.265 238.367c5.272-5.271 26.642 7.55 47.73 28.638 21.088 21.089 33.91 42.458 28.638 47.729m152.734 0c-5.271-5.271 7.55-26.641 28.639-47.729 21.089-21.089 42.457-33.91 47.729-28.639"/>
    <path fill="none" stroke="#0060B6" stroke-width="2.25" d="M42.676 71.313l226.981 226.982"/>
    <path fill="none" stroke="#7FB0DA" stroke-width="2.25" stroke-dasharray="3" d="M270.718 24.645L41.615 253.748m257.74-200.466L70.253 282.385"/>
    <path fill="none" stroke="#0060B6" stroke-width="2.25" d="M76.087 37.903l226.981 226.981M267.006 56.995l-85.914 85.913m-33.41 33.41L37.903 286.098"/>
    <circle fill="#7FB0DA" stroke="#0060B6" stroke-width="2.25" cx="181.092" cy="142.909" r="6.75"/>
    <circle fill="#7FB0DA" stroke="#0060B6" stroke-width="2.25" cx="147.681" cy="176.319" r="6.75"/>
    <path fill="none" stroke="#7FB0DA" stroke-width="2.25" stroke-dasharray="3" d="M37.903 37.903l109.779 109.779m28.636 28.636l90.688 90.688"/>
    <circle fill="#C8DCD1" stroke="#7FB0DA" stroke-width="2.25" cx="147.681" cy="147.681" r="6.75"/>
    <circle fill="#C8DCD1" stroke="#7FB0DA" stroke-width="2.25" cx="176.319" cy="176.319" r="6.749"/>
</svg>
