<?xml version="1.0" encoding="utf-8"?>
<!-- Generator: Adobe Illustrator 15.1.0, SVG Export Plug-In . SVG Version: 6.00 Build 0)  -->
<!DOCTYPE svg PUBLIC "-//W3C//DTD SVG 1.1//EN" "http://www.w3.org/Graphics/SVG/1.1/DTD/svg11.dtd">
<svg version="1.1" id="Layer_1" xmlns="http://www.w3.org/2000/svg" xmlns:xlink="http://www.w3.org/1999/xlink" x="0px" y="0px"
	 width="283px" height="302px" viewBox="0 0 283 302" enable-background="new 0 0 283 302" xml:space="preserve">
<g>
	<polyline fill="none" stroke="#000000" stroke-width="2" stroke-miterlimit="10" points="267.453,132.883 267.453,132.883 
		218.422,132.883 	"/>
	<polyline fill="none" stroke="#000000" stroke-width="2" stroke-miterlimit="10" points="273.582,77.721 273.582,77.721 
		273.582,126.754 	"/>
	<polyline fill="none" stroke="#000000" stroke-width="2" stroke-miterlimit="10" points="267.453,71.592 267.453,71.592 
		157.133,71.592 	"/>
	<polyline fill="none" stroke="#000000" stroke-width="2" stroke-miterlimit="10" points="151.004,16.432 151.004,16.432 
		151.004,65.463 	"/>
	<polyline fill="none" stroke="#000000" stroke-width="2" stroke-miterlimit="10" points="212.293,16.432 212.293,16.432 
		212.293,126.754 	"/>
	<polyline fill="none" stroke="#000000" stroke-width="2" stroke-miterlimit="10" points="206.164,10.303 206.164,10.303 
		157.133,10.303 	"/>
	<polyline fill="none" stroke="#000000" stroke-width="2" stroke-miterlimit="10" points="235.355,228.043 235.355,228.043 
		187.613,228.043 	"/>
	<polyline fill="none" stroke="#000000" stroke-width="2" stroke-miterlimit="10" points="244.473,105.066 244.473,105.066 
		270.277,75.393 	"/>
	<polyline fill="none" stroke="#000000" stroke-width="2" stroke-miterlimit="10" points="241.324,114.656 241.324,114.656 
		241.324,222.074 	"/>
	<polyline fill="none" stroke="#000000" stroke-width="2" stroke-miterlimit="10" points="235.355,108.689 235.355,108.689 
		68.262,108.689 	"/>
	<polyline fill="none" stroke="#000000" stroke-width="2" stroke-miterlimit="10" points="62.293,54.98 62.293,54.98 
		62.293,102.721 	"/>
	<polyline fill="none" stroke="#000000" stroke-width="2" stroke-miterlimit="10" points="184.641,45.232 184.641,45.232 
		209.152,14.268 	"/>
	<polyline fill="none" stroke="#000000" stroke-width="2" stroke-miterlimit="10" points="181.648,54.98 181.648,54.98 
		181.648,222.074 	"/>
	<polyline fill="none" stroke="#000000" stroke-width="2" stroke-miterlimit="10" points="175.68,49.012 175.68,49.012 
		68.262,49.012 	"/>
	<polyline fill="none" stroke="#000000" stroke-width="2" stroke-miterlimit="10" points="213.711,257.039 213.711,257.039 
		238.191,231.332 	"/>
	<polyline fill="none" stroke="#000000" stroke-width="2" stroke-miterlimit="10" points="204.906,260.176 204.906,260.176 
		100.242,260.176 	"/>
	<polyline fill="none" stroke="#000000" stroke-width="2" stroke-miterlimit="10" points="213.711,198.742 213.711,198.742 
		270.277,136.516 	"/>
	<polyline fill="none" stroke="#000000" stroke-width="2" stroke-miterlimit="10" points="210.719,207.844 210.719,207.844 
		210.719,254.359 	"/>
	<polyline fill="none" stroke="#000000" stroke-width="2" stroke-miterlimit="10" points="204.906,202.031 204.906,202.031 
		42.094,202.031 	"/>
	<polyline fill="none" stroke="#000000" stroke-width="2" stroke-miterlimit="10" points="38.82,82.148 38.82,82.148 59.633,52.771 
			"/>
	<polyline fill="none" stroke="#000000" stroke-width="2" stroke-miterlimit="10" points="36.281,91.551 36.281,91.551 
		36.281,196.215 	"/>
	<polyline fill="none" stroke="#000000" stroke-width="2" stroke-miterlimit="10" points="97.117,82.148 97.117,82.148 
		148.027,14.268 	"/>
	<polyline fill="none" stroke="#000000" stroke-width="2" stroke-miterlimit="10" points="94.426,91.551 94.426,91.551 
		94.426,254.359 	"/>
	<polyline fill="none" stroke="#000000" stroke-width="2" stroke-miterlimit="10" points="88.613,85.736 88.613,85.736 
		42.094,85.736 	"/>
	<polyline fill="none" stroke="#000000" stroke-width="2" stroke-miterlimit="10" points="70.82,287.719 70.82,287.719 
		91.75,263.297 	"/>
	<polyline fill="none" stroke="#000000" stroke-width="2" stroke-miterlimit="10" points="127.652,287.719 127.652,287.719 
		178.672,231.332 	"/>
	<polyline fill="none" stroke="#000000" stroke-width="2" stroke-miterlimit="10" points="119.285,290.703 119.285,290.703 
		73.93,290.703 	"/>
	<polyline fill="none" stroke="#000000" stroke-width="2" stroke-miterlimit="10" points="13.984,230.883 13.984,230.883 
		33.754,205.301 	"/>
	<polyline fill="none" stroke="#000000" stroke-width="2" stroke-miterlimit="10" points="127.652,230.883 127.652,230.883 
		209.152,136.516 	"/>
	<polyline fill="none" stroke="#000000" stroke-width="2" stroke-miterlimit="10" points="124.953,239.68 124.953,239.68 
		124.953,285.031 	"/>
	<polyline fill="none" stroke="#000000" stroke-width="2" stroke-miterlimit="10" points="119.285,234.008 119.285,234.008 
		17.238,234.008 	"/>
	<polyline fill="none" stroke="#000000" stroke-width="2" stroke-miterlimit="10" points="13.984,174.047 13.984,174.047 
		59.633,112.291 	"/>
	<polyline fill="none" stroke="#000000" stroke-width="2" stroke-miterlimit="10" points="11.57,182.984 11.57,182.984 
		11.57,228.34 	"/>
	<polyline fill="none" stroke="#000000" stroke-width="2" stroke-miterlimit="10" points="70.82,174.047 70.82,174.047 
		148.027,75.393 	"/>
	<polyline fill="none" stroke="#000000" stroke-width="2" stroke-miterlimit="10" points="68.262,182.984 68.262,182.984 
		68.262,285.031 	"/>
	<polyline fill="none" stroke="#000000" stroke-width="2" stroke-miterlimit="10" points="62.594,177.316 62.594,177.316 
		17.238,177.316 	"/>
</g>
<g>
	<path fill="#FF0000" d="M217.594,132.883L217.594,132.883v-0.01c-0.004-1.406-0.562-2.752-1.559-3.744s-2.344-1.549-3.746-1.549
		c-1.406,0.002-2.754,0.561-3.746,1.555c-0.996,0.994-1.551,2.342-1.551,3.748c0,1.404,0.555,2.752,1.551,3.746
		c0.992,0.994,2.34,1.553,3.746,1.555c1.402,0,2.75-0.557,3.746-1.549s1.555-2.338,1.559-3.744V132.883z"/>
	<path fill="#FF0000" d="M278.836,132.883L278.836,132.883v-0.01c0-1.393-0.555-2.729-1.543-3.713
		c-0.984-0.982-2.324-1.535-3.715-1.533c-1.395,0-2.73,0.555-3.715,1.541c-0.984,0.984-1.535,2.32-1.535,3.715
		c0,1.393,0.551,2.729,1.535,3.713c0.984,0.986,2.32,1.541,3.715,1.541c1.391,0.002,2.73-0.551,3.715-1.533
		c0.988-0.984,1.543-2.32,1.543-3.713V132.883z"/>
	<path fill="#FF0000" d="M156.293,71.592L156.293,71.592v-0.01c0-1.402-0.559-2.746-1.555-3.736
		c-0.992-0.99-2.336-1.547-3.742-1.545c-1.402,0-2.746,0.559-3.738,1.551s-1.547,2.338-1.547,3.74s0.555,2.748,1.547,3.74
		s2.336,1.551,3.738,1.553c1.406,0,2.75-0.555,3.742-1.545c0.996-0.992,1.555-2.336,1.555-3.738V71.592z"/>
	<path fill="#FF0000" d="M278.785,71.592L278.785,71.592v-0.008c-0.004-1.381-0.551-2.701-1.527-3.676s-2.301-1.521-3.68-1.52
		s-2.703,0.551-3.676,1.525c-0.977,0.977-1.523,2.299-1.523,3.678s0.547,2.703,1.523,3.678c0.973,0.977,2.297,1.525,3.676,1.527
		c1.379,0,2.703-0.547,3.68-1.52c0.977-0.975,1.523-2.297,1.527-3.676V71.592z"/>
	<path fill="#FF0000" d="M156.238,10.303L156.238,10.303v-0.01c0-1.387-0.555-2.719-1.539-3.697c-0.98-0.98-2.312-1.531-3.703-1.529
		c-1.387,0-2.719,0.553-3.699,1.535s-1.531,2.312-1.531,3.701s0.551,2.719,1.531,3.701s2.312,1.535,3.699,1.535
		c1.391,0.002,2.723-0.549,3.703-1.529c0.984-0.98,1.539-2.311,1.539-3.697V10.303z"/>
	<path fill="#FF0000" d="M217.488,10.303L217.488,10.303v-0.01c-0.004-1.377-0.555-2.695-1.527-3.668
		c-0.977-0.973-2.297-1.518-3.672-1.518c-1.379,0.002-2.699,0.549-3.672,1.523s-1.52,2.295-1.52,3.672s0.547,2.697,1.52,3.672
		s2.293,1.521,3.672,1.523c1.375,0,2.695-0.545,3.672-1.518c0.973-0.973,1.523-2.291,1.527-3.668V10.303z"/>
	<path fill="#FF0000" d="M186.91,228.043L186.91,228.043v-0.012c0-1.391-0.559-2.73-1.547-3.715
		c-0.988-0.988-2.324-1.539-3.719-1.535c-1.398,0-2.734,0.555-3.723,1.539c-0.984,0.988-1.539,2.328-1.539,3.723
		s0.555,2.73,1.539,3.719c0.988,0.988,2.324,1.543,3.723,1.543c1.395,0,2.73-0.551,3.719-1.535c0.988-0.988,1.547-2.324,1.547-3.719
		V228.043z"/>
	<path fill="#FF0000" d="M246.543,228.043L246.543,228.043v-0.012c-0.004-1.383-0.555-2.707-1.535-3.684
		c-0.977-0.977-2.305-1.527-3.688-1.523c-1.383,0-2.711,0.551-3.688,1.527c-0.977,0.98-1.527,2.305-1.527,3.691
		c0,1.383,0.551,2.707,1.527,3.688s2.305,1.527,3.688,1.527c1.383,0.004,2.711-0.547,3.688-1.523
		c0.98-0.977,1.531-2.301,1.535-3.684V228.043z"/>
	<path fill="#FF0000" d="M67.539,108.689L67.539,108.689v-0.01c-0.004-1.391-0.559-2.723-1.543-3.705
		c-0.984-0.98-2.316-1.531-3.707-1.531c-1.391,0.002-2.723,0.555-3.707,1.539c-0.98,0.982-1.531,2.316-1.531,3.707
		c0,1.389,0.551,2.723,1.531,3.707c0.984,0.982,2.316,1.535,3.707,1.537s2.723-0.549,3.707-1.531s1.539-2.314,1.543-3.705V108.689z"
		/>
	<path fill="#FF0000" d="M246.445,108.689L246.445,108.689v-0.01c-0.004-1.357-0.543-2.658-1.504-3.617
		c-0.961-0.957-2.266-1.496-3.621-1.494c-1.359,0-2.66,0.541-3.617,1.502c-0.961,0.959-1.5,2.262-1.5,3.619s0.539,2.658,1.5,3.619
		c0.957,0.959,2.258,1.5,3.617,1.5c1.355,0.002,2.66-0.535,3.621-1.494s1.5-2.26,1.504-3.617V108.689z"/>
	<path fill="#FF0000" d="M67.484,49.012L67.484,49.012v-0.01c0-1.375-0.551-2.693-1.523-3.666c-0.977-0.971-2.297-1.516-3.672-1.516
		c-1.375,0.002-2.695,0.549-3.668,1.523c-0.973,0.973-1.52,2.293-1.52,3.668c0,1.377,0.547,2.695,1.52,3.67
		c0.973,0.973,2.293,1.52,3.668,1.521s2.695-0.543,3.672-1.516c0.973-0.973,1.523-2.291,1.523-3.666V49.012z"/>
	<path fill="#FF0000" d="M186.758,49.012L186.758,49.012v-0.008c0-1.355-0.539-2.654-1.5-3.611s-2.262-1.494-3.613-1.492
		c-1.355,0-2.656,0.539-3.613,1.498s-1.496,2.258-1.496,3.613s0.539,2.654,1.496,3.613s2.258,1.498,3.613,1.5
		c1.352,0,2.652-0.537,3.613-1.494s1.5-2.256,1.5-3.609V49.012z"/>
	<path fill="#FF0000" d="M99.645,260.176L99.645,260.176v-0.012c-0.004-1.383-0.555-2.703-1.531-3.68
		c-0.98-0.977-2.309-1.527-3.691-1.523c-1.383,0-2.707,0.547-3.684,1.527c-0.98,0.98-1.527,2.305-1.527,3.688
		s0.547,2.707,1.527,3.688c0.977,0.98,2.301,1.527,3.684,1.527c1.383,0.004,2.711-0.547,3.691-1.523
		c0.977-0.977,1.527-2.297,1.531-3.68V260.176z"/>
	<path fill="#FF0000" d="M215.852,260.176L215.852,260.176v-0.012c0-1.359-0.543-2.664-1.508-3.625
		c-0.961-0.961-2.266-1.5-3.629-1.496c-1.359,0.004-2.664,0.543-3.625,1.504s-1.5,2.266-1.5,3.629s0.539,2.668,1.5,3.629
		s2.266,1.5,3.625,1.504c1.363,0,2.668-0.535,3.629-1.496c0.965-0.961,1.508-2.266,1.508-3.625V260.176z"/>
	<path fill="#FF0000" d="M41.488,202.031L41.488,202.031v-0.012c0-1.379-0.551-2.703-1.531-3.676
		c-0.977-0.977-2.301-1.523-3.68-1.523c-1.383,0-2.707,0.551-3.68,1.527c-0.977,0.977-1.523,2.301-1.523,3.684
		c0,1.379,0.547,2.703,1.523,3.68c0.973,0.977,2.297,1.523,3.68,1.527c1.379,0,2.703-0.547,3.68-1.52
		c0.98-0.977,1.531-2.301,1.531-3.68V202.031z"/>
	<path fill="#FF0000" d="M215.809,202.031L215.809,202.031v-0.012c-0.004-1.348-0.543-2.641-1.496-3.59
		c-0.953-0.953-2.25-1.488-3.598-1.484c-1.348,0-2.641,0.535-3.594,1.488c-0.953,0.957-1.488,2.246-1.488,3.598
		c0,1.344,0.535,2.641,1.488,3.594s2.246,1.492,3.594,1.492s2.645-0.535,3.598-1.484c0.953-0.953,1.492-2.246,1.496-3.594V202.031z"
		/>
	<path fill="#FF0000" d="M41.387,85.736L41.387,85.736v-0.01c0-1.354-0.543-2.65-1.5-3.605c-0.957-0.957-2.258-1.492-3.609-1.492
		c-1.355,0.002-2.652,0.539-3.609,1.498c-0.957,0.957-1.492,2.256-1.492,3.609s0.535,2.652,1.492,3.609s2.254,1.496,3.609,1.498
		c1.352,0,2.652-0.535,3.609-1.492c0.957-0.955,1.5-2.254,1.5-3.607V85.736z"/>
	<path fill="#FF0000" d="M99.496,85.736L99.496,85.736v-0.01c0-1.344-0.535-2.631-1.488-3.58s-2.242-1.48-3.586-1.48
		c-1.344,0.002-2.633,0.537-3.582,1.486c-0.949,0.951-1.48,2.24-1.48,3.584s0.531,2.633,1.48,3.584
		c0.949,0.949,2.238,1.484,3.582,1.486c1.344,0,2.633-0.531,3.586-1.48s1.488-2.238,1.488-3.582V85.736z"/>
	<path fill="#FF0000" d="M73.391,290.703L73.391,290.703v-0.008c-0.004-1.359-0.543-2.664-1.508-3.625
		c-0.961-0.961-2.266-1.5-3.625-1.496c-1.359,0-2.664,0.543-3.625,1.504s-1.5,2.266-1.5,3.625s0.539,2.664,1.5,3.625
		s2.266,1.5,3.625,1.504s2.664-0.535,3.625-1.496c0.965-0.961,1.504-2.266,1.508-3.625V290.703z"/>
	<path fill="#FF0000" d="M130.043,290.703L130.043,290.703v-0.008c0-1.352-0.539-2.645-1.496-3.594
		c-0.953-0.953-2.246-1.492-3.598-1.488c-1.348,0-2.641,0.535-3.594,1.492c-0.957,0.957-1.492,2.246-1.492,3.598
		s0.535,2.641,1.492,3.598c0.953,0.953,2.246,1.488,3.594,1.492c1.352,0,2.645-0.535,3.598-1.488
		c0.957-0.953,1.496-2.242,1.496-3.594V290.703z"/>
	<path fill="#FF0000" d="M16.688,234.008L16.688,234.008V234c0-1.355-0.543-2.656-1.504-3.617c-0.961-0.957-2.262-1.492-3.621-1.492
		c-1.355,0-2.656,0.539-3.617,1.5c-0.957,0.961-1.496,2.262-1.496,3.617c0,1.359,0.539,2.66,1.496,3.621
		c0.961,0.961,2.262,1.5,3.617,1.504c1.359,0,2.66-0.539,3.621-1.5c0.961-0.953,1.504-2.258,1.504-3.613V234.008z"/>
	<path fill="#FF0000" d="M130,234.008L130,234.008V234c-0.004-1.336-0.535-2.617-1.484-3.562c-0.945-0.945-2.227-1.473-3.566-1.473
		c-1.336,0.004-2.617,0.535-3.562,1.48s-1.477,2.227-1.477,3.562c0,1.34,0.531,2.621,1.477,3.57
		c0.945,0.945,2.227,1.477,3.562,1.477c1.34,0,2.621-0.531,3.566-1.473c0.949-0.945,1.48-2.227,1.484-3.562V234.008z"/>
	<path fill="#FF0000" d="M16.641,177.316L16.641,177.316v-0.008c0-1.348-0.539-2.637-1.488-3.582
		c-0.953-0.953-2.242-1.484-3.59-1.484c-1.344,0.004-2.633,0.539-3.582,1.488c-0.949,0.953-1.484,2.242-1.484,3.586
		c0,1.348,0.535,2.637,1.484,3.586s2.238,1.488,3.582,1.488c1.348,0,2.637-0.531,3.59-1.484c0.949-0.945,1.488-2.234,1.488-3.578
		V177.316z"/>
	<path fill="#FF0000" d="M73.297,177.316L73.297,177.316v-0.008c0-1.336-0.535-2.613-1.48-3.559
		c-0.945-0.941-2.223-1.469-3.559-1.469s-2.617,0.531-3.559,1.477c-0.945,0.945-1.473,2.227-1.473,3.559
		c0,1.336,0.527,2.613,1.473,3.559c0.941,0.945,2.223,1.477,3.559,1.477c1.336,0.004,2.613-0.523,3.559-1.469s1.48-2.223,1.48-3.555
		V177.316z"/>
</g>
</svg>
