<svg xmlns="http://www.w3.org/2000/svg" width="283" height="302"><path d="M267.453 132.883h-49.031m55.16-55.162v49.033m-6.129-55.162h-110.32m-6.129-55.16v49.031m61.289-49.031v110.322m-6.129-116.451h-49.031m78.222 217.74h-47.742m56.86-122.977l25.804-29.673m-28.953 39.263v107.418m-5.969-113.385H68.262M62.293 54.98v47.741m122.348-57.489l24.511-30.964M181.648 54.98v167.094M175.68 49.012H68.262m145.449 208.027l24.48-25.707m-33.285 28.844H100.242m113.469-61.434l56.566-62.226m-59.558 71.328v46.515m-5.813-52.328H42.094M38.82 82.148l20.813-29.377m-23.352 38.78v104.664M97.117 82.148l50.91-67.88M94.426 91.551v162.808M88.613 85.736H42.094M70.82 287.719l20.93-24.422m35.902 24.422l51.02-56.387m-59.387 59.371H73.93m-59.946-59.82l19.77-25.582m93.898 25.582l81.5-94.367M124.953 239.68v45.351m-5.668-51.023H17.238m-3.254-59.961l45.649-61.756M11.57 182.984v45.356m59.25-54.293l77.207-98.654M68.262 182.984v102.047m-5.668-107.715H17.238" fill="none" stroke="#000" stroke-width="2"/><path d="M217.594 132.883v-.01c-.004-1.406-.562-2.752-1.559-3.744s-2.344-1.549-3.746-1.549a5.303 5.303 0 0 0 0 10.604 5.302 5.302 0 0 0 5.305-5.293v-.008zm61.242 0v-.01a5.24 5.24 0 0 0-1.543-3.713 5.256 5.256 0 1 0 0 7.444 5.24 5.24 0 0 0 1.543-3.713v-.008zM156.293 71.592v-.01a5.266 5.266 0 0 0-1.555-3.736 5.284 5.284 0 0 0-3.742-1.545 5.287 5.287 0 0 0-5.285 5.291 5.288 5.288 0 0 0 5.285 5.293 5.292 5.292 0 0 0 5.297-5.283v-.01zm122.492 0v-.008a5.202 5.202 0 1 0-8.883 3.685 5.199 5.199 0 0 0 7.356.007 5.21 5.21 0 0 0 1.527-3.676v-.008zM156.238 10.303v-.01a5.216 5.216 0 0 0-1.539-3.697 5.225 5.225 0 0 0-3.703-1.529 5.238 5.238 0 0 0 0 10.472 5.225 5.225 0 0 0 3.703-1.529 5.221 5.221 0 0 0 1.539-3.697v-.01zm61.25 0v-.01a5.213 5.213 0 0 0-1.527-3.668 5.198 5.198 0 0 0-8.864 3.677 5.198 5.198 0 0 0 5.192 5.195 5.203 5.203 0 0 0 3.672-1.518 5.209 5.209 0 0 0 1.527-3.668v-.008zm-30.578 217.74v-.012c0-1.391-.559-2.73-1.547-3.715a5.276 5.276 0 0 0-7.442.004c-.984.988-1.539 2.328-1.539 3.723s.555 2.73 1.539 3.719a5.269 5.269 0 0 0 7.442.008 5.262 5.262 0 0 0 1.547-3.719v-.008zm59.633 0v-.012a5.22 5.22 0 0 0-8.911-3.68 5.225 5.225 0 0 0-1.527 3.691c0 1.383.551 2.707 1.527 3.688s2.305 1.527 3.688 1.527a5.22 5.22 0 0 0 5.223-5.207v-.007zM67.539 108.689v-.01a5.252 5.252 0 0 0-5.25-5.236 5.251 5.251 0 0 0-3.707 1.539 5.255 5.255 0 0 0 0 7.414c.984.982 2.316 1.535 3.707 1.537s2.723-.549 3.707-1.531 1.539-2.314 1.543-3.705v-.008zm178.906 0v-.01a5.13 5.13 0 0 0-1.504-3.617 5.128 5.128 0 0 0-3.621-1.494c-1.359 0-2.66.541-3.617 1.502a5.113 5.113 0 0 0 0 7.238 5.12 5.12 0 0 0 8.742-3.611v-.008zM67.484 49.012v-.01a5.191 5.191 0 0 0-1.523-3.666 5.21 5.21 0 0 0-3.672-1.516 5.196 5.196 0 0 0-5.188 5.191 5.193 5.193 0 0 0 8.86 3.675 5.187 5.187 0 0 0 1.523-3.666v-.008zm119.274 0v-.008a5.095 5.095 0 0 0-1.5-3.611 5.114 5.114 0 0 0-8.722 3.619 5.116 5.116 0 0 0 5.109 5.113c1.352 0 2.652-.537 3.613-1.494s1.5-2.256 1.5-3.609v-.01zM99.645 260.176v-.012a5.212 5.212 0 0 0-5.222-5.203 5.21 5.21 0 0 0-5.211 5.215 5.213 5.213 0 0 0 5.211 5.215 5.214 5.214 0 0 0 5.222-5.203v-.012zm116.207 0v-.012a5.118 5.118 0 0 0-1.508-3.625 5.109 5.109 0 0 0-3.629-1.496 5.13 5.13 0 0 0-5.125 5.133 5.13 5.13 0 0 0 8.754 3.637 5.118 5.118 0 0 0 1.508-3.625v-.012zM41.488 202.031v-.012a5.182 5.182 0 0 0-1.531-3.676 5.203 5.203 0 0 0-8.883 3.688 5.207 5.207 0 0 0 10.414.007v-.007zm174.321 0v-.012a5.09 5.09 0 0 0-8.688-3.586 5.092 5.092 0 0 0 0 7.192 5.086 5.086 0 0 0 7.192.008 5.107 5.107 0 0 0 1.496-3.594v-.008zM41.387 85.736v-.01a5.106 5.106 0 0 0-8.718-3.599 5.103 5.103 0 0 0-1.492 3.609 5.103 5.103 0 0 0 8.71 3.615 5.102 5.102 0 0 0 1.5-3.607v-.008zm58.109 0v-.01c0-1.344-.535-2.631-1.488-3.58s-2.242-1.48-3.586-1.48a5.078 5.078 0 0 0-3.582 1.486c-.949.951-1.48 2.24-1.48 3.584s.531 2.633 1.48 3.584a5.078 5.078 0 0 0 3.582 1.486c1.344 0 2.633-.531 3.586-1.48s1.488-2.238 1.488-3.582v-.008zM73.391 290.703v-.008a5.135 5.135 0 0 0-1.508-3.625 5.131 5.131 0 0 0-8.75 3.633 5.127 5.127 0 0 0 5.125 5.129 5.107 5.107 0 0 0 3.625-1.496 5.135 5.135 0 0 0 1.508-3.625v-.008zm56.652 0v-.008a5.06 5.06 0 0 0-1.496-3.594 5.068 5.068 0 0 0-3.598-1.488 5.07 5.07 0 0 0-3.594 1.492c-.957.957-1.492 2.246-1.492 3.598s.535 2.641 1.492 3.598a5.085 5.085 0 0 0 7.192.004 5.067 5.067 0 0 0 1.496-3.594v-.008zM16.688 234.008V234a5.12 5.12 0 0 0-1.504-3.617 5.127 5.127 0 0 0-7.238.008 5.129 5.129 0 0 0 0 7.238 5.136 5.136 0 0 0 3.617 1.504c1.359 0 2.66-.539 3.621-1.5a5.096 5.096 0 0 0 1.504-3.613v-.012zm113.312 0V234a5.045 5.045 0 1 0-8.612 3.577 5.04 5.04 0 0 0 7.128.004 5.047 5.047 0 0 0 1.484-3.562v-.011zM16.641 177.316v-.008a5.058 5.058 0 0 0-1.488-3.582 5.07 5.07 0 0 0-7.172.004 5.084 5.084 0 0 0-1.484 3.586 5.07 5.07 0 0 0 5.066 5.074 5.07 5.07 0 0 0 3.59-1.484 5.055 5.055 0 0 0 1.488-3.578v-.012zm56.656 0v-.008a5.036 5.036 0 1 0-5.039 5.044c1.336.004 2.613-.523 3.559-1.469s1.48-2.223 1.48-3.555v-.012z" fill="red"/></svg>