<svg xmlns="http://www.w3.org/2000/svg" width="460" height="485">
    <path fill="none" stroke="#000" stroke-width="2" d="M146.127 314.278c75.517-43.6 99.273-62.059 134.294-38.798v-.001c11.096 6.406 14.897 20.595 8.491 31.691-6.406 11.096-20.596 14.898-31.691 8.492-11.098-6.406-14.898-20.596-8.492-31.692 13.421-23.245 56.594-43.4 51.307-90.467-8.875-79.026-136.549-207.587-237.811-8.897-118.223 231.967-4.094 295.09 79.939 298.34 84.033 3.251 297.027-141.667 149.456-226.866l-.001.001c-75.517-43.6-103.381-54.944-100.747-96.903.803-12.787 10.387-23.2 23.2-23.2 12.812 0 23.2 10.387 23.2 23.2 0 12.813-10.388 23.2-23.2 23.2-26.842 0-65.883-27.311-104 .8-64 47.2-111.501 222.048 111.2 210.4 260-13.6 257.602-144 218.4-218.4s-271.202-186.4-271.201-16c0 87.2 4.108 117.003-33.546 135.702-11.475 5.698-25.285 2.604-31.691-8.492-6.406-11.096-2.604-25.285 8.491-31.691 11.097-6.407 25.286-2.604 31.692 8.491 13.421 23.246 9.289 70.712 52.693 89.667 72.877 31.826 248.051-14.462 126.611-201.502C180.945-67.015 69.214.263 24.383 71.412S-1.443 399.479 146.127 314.278"/>
</svg>
