<svg xmlns="http://www.w3.org/2000/svg" width="610" height="705">
    <path fill="#0C0" stroke="#000" stroke-width=".75" d="M284.5 645.75H298v40.5h-13.5z"/>
    <path fill="#FF0" stroke="#000" stroke-width=".75" d="M322.296 678.61l-35.073 20.25-6.75-11.69 35.073-20.25z"/>
    <path fill="#0060B6" stroke="#000" stroke-width=".75" d="M285.22 660.212l6.75-11.69 35.073 20.25-6.75 11.69z"/>
    <path fill="#0C0" stroke="#000" stroke-width=".75" d="M284.5 666v-20.25H298V666"/>
    <path fill="#0F0" stroke="#000" stroke-width=".75" d="M304.75 659.25h13.5v40.5h-13.5z"/>
    <path fill="#36F" stroke="#000" stroke-width=".75" d="M275.676 676.72l6.75-11.691L317.5 685.28l-6.75 11.69z"/>
    <path fill="#FF0" stroke="#000" stroke-width=".75" d="M322.296 658.36l-35.073 20.25-6.75-11.691 35.073-20.25z"/>
    <path fill="#0F0" stroke="#000" stroke-width=".75" d="M318.25 672.75v-13.5h-13.5v13.5"/>
    <path fill="#0C0" stroke="#000" stroke-width=".75" d="M284.5 537.75H298v40.5h-13.5z"/>
    <path fill="#FF0" stroke="#000" stroke-width=".75" d="M322.3 570.602l-35.073 20.25-6.75-11.692 35.072-20.25z"/>
    <path fill="#0060B6" stroke="#000" stroke-width=".75" d="M285.222 552.212l6.75-11.69 35.074 20.25-6.75 11.69z"/>
    <path fill="#0F0" stroke="#000" stroke-width=".75" d="M304.75 551.25h13.5v40.5h-13.5z"/>
    <path fill="#0F0" stroke="#000" stroke-width=".75" d="M318.249 564.75l.001-13.5h-13.5l-.001 13.5"/>
    <path fill="#0C0" stroke="#000" stroke-width=".75" d="M298 564.75v-27h-13.5v27"/>
    <path fill="#36F" stroke="#000" stroke-width=".75" d="M275.677 568.723l6.75-11.69 35.073 20.25-6.75 11.69z"/>
    <path fill="#0C0" stroke="#000" stroke-width=".75" d="M392.5 429.75H406v40.5h-13.5z"/>
    <path fill="#FF0" stroke="#000" stroke-width=".75" d="M430.298 462.602l-35.072 20.25-6.75-11.692 35.072-20.25z"/>
    <path fill="#0060B6" stroke="#000" stroke-width=".75" d="M393.225 444.215l6.75-11.691 35.074 20.25-6.75 11.691z"/>
    <path fill="#0F0" stroke="#000" stroke-width=".75" d="M412.75 443.25h13.5v40.5h-13.5z"/>
    <path fill="#0C0" stroke="#000" stroke-width=".75" d="M406 456.75v-27h-13.5v27"/>
    <path fill="#FF0" stroke="#000" stroke-width=".75" d="M430.297 354.6l-35.072 20.25-6.75-11.692 35.072-20.25z"/>
    <path fill="#0060B6" stroke="#000" stroke-width=".75" d="M393.228 336.214l6.75-11.69 35.074 20.25-6.75 11.69z"/>
    <path fill="#0F0" stroke="#000" stroke-width=".75" d="M412.75 335.25h13.5v40.5h-13.5z"/>
    <path fill="#0060B6" stroke="#000" stroke-width=".75" d="M420.23 228.215l6.75-11.691 35.074 20.25-6.75 11.691z"/>
    <path fill="#0F0" stroke="#000" stroke-width=".75" d="M439.75 227.25h13.5v40.5h-13.5z"/>
    <path fill="#FF0" stroke="#000" stroke-width=".75" d="M531.548 246.597l-35.072 20.25-6.75-11.692 35.072-20.25z"/>
    <path fill="#0060B6" stroke="#000" stroke-width=".75" d="M494.48 228.217l6.75-11.691 35.075 20.25-6.75 11.691z"/>
    <path fill="#0C0" stroke="#000" stroke-width=".75" d="M500.5 321.75H514v40.5h-13.5z"/>
    <path fill="#FF0" stroke="#000" stroke-width=".75" d="M538.3 354.599l-35.073 20.25-6.75-11.692 35.072-20.25z"/>
    <path fill="#0060B6" stroke="#000" stroke-width=".75" d="M501.228 336.217l6.75-11.69 35.074 20.25-6.75 11.69z"/>
    <path fill="#0C0" stroke="#000" stroke-width=".75" d="M514 348.75v-27h-13.5v27m60.75-135h13.5v40.5h-13.5z"/>
    <path fill="#0060B6" stroke="#000" stroke-width=".75" d="M561.98 228.219l6.75-11.691 35.075 20.25-6.75 11.691z"/>
    <path fill="#0C0" stroke="#000" stroke-width=".75" d="M574.75 240.75v-27h-13.5v27m-384.75 189H190v40.5h-13.5z"/>
    <path fill="#FF0" stroke="#000" stroke-width=".75" d="M214.294 462.604l-35.073 20.25-6.75-11.692 35.073-20.25z"/>
    <path fill="#0F0" stroke="#000" stroke-width=".75" d="M196.75 443.25h13.5v40.5h-13.5z"/>
    <path fill="#0F0" stroke="#000" stroke-width=".75" d="M210.249 456.75l.001-13.5h-13.5l-.001 13.5"/>
    <path fill="#36F" stroke="#000" stroke-width=".75" d="M167.681 460.726l6.75-11.69 35.073 20.25-6.75 11.69z"/>
    <path fill="#0C0" stroke="#000" stroke-width=".75" d="M284.5 321.75H298v40.5h-13.5z"/>
    <path fill="#FF0" stroke="#000" stroke-width=".75" d="M322.295 354.6l-35.072 20.25-6.75-11.691 35.072-20.25z"/>
    <path fill="#0F0" stroke="#000" stroke-width=".75" d="M304.75 335.25h13.5v40.5h-13.5z"/>
    <path fill="#0F0" stroke="#000" stroke-width=".75" d="M318.249 348.75l.001-13.5h-13.5l-.001 13.5"/>
    <path fill="#0C0" stroke="#000" stroke-width=".75" d="M284.5 213.75H298v40.5h-13.5z"/>
    <path fill="#0F0" stroke="#000" stroke-width=".75" d="M304.75 227.25h13.5v40.5h-13.5z"/>
    <path fill="#0F0" stroke="#000" stroke-width=".75" d="M318.249 240.75l.001-13.5h-13.5l-.001 13.5"/>
    <path fill="#0C0" stroke="#000" stroke-width=".75" d="M352 213.75h13.5v40.5H352z"/>
    <path fill="#FF0" stroke="#000" stroke-width=".75" d="M389.795 246.598l-35.072 20.25-6.75-11.692 35.072-20.25zm-135.003.001l-35.072 20.25-6.75-11.692 35.072-20.25z"/>
    <path fill="#0F0" stroke="#000" stroke-width=".75" d="M237.25 227.25h13.5v40.5h-13.5z"/>
    <path fill="#0F0" stroke="#000" stroke-width=".75" d="M250.749 240.75l.001-13.5h-13.5l-.001 13.5"/>
    <path fill="#0C0" stroke="#000" stroke-width=".75" d="M176.5 321.75H190v40.5h-13.5z"/>
    <path fill="#FF0" stroke="#000" stroke-width=".75" d="M214.293 354.601l-35.072 20.25-6.75-11.691 35.072-20.25z"/>
    <path fill="#36F" stroke="#000" stroke-width=".75" d="M167.682 352.729l6.75-11.69 35.072 20.25-6.75 11.69z"/>
    <path fill="#0C0" stroke="#000" stroke-width=".75" d="M149.5 213.75H163v40.5h-13.5z"/>
    <path fill="#36F" stroke="#000" stroke-width=".75" d="M140.684 244.732l6.75-11.69 35.072 20.25-6.75 11.69z"/>
    <path fill="#FF0" stroke="#000" stroke-width=".75" d="M119.79 246.6l-35.072 20.25-6.75-11.691 35.072-20.25z"/>
    <path fill="#36F" stroke="#000" stroke-width=".75" d="M73.186 244.731l6.75-11.69 35.072 20.25-6.75 11.69z"/>
    <path fill="#FF0" stroke="#000" stroke-width=".75" d="M106.29 354.602l-35.072 20.25-6.75-11.691 35.072-20.25z"/>
    <path fill="#0F0" stroke="#000" stroke-width=".75" d="M88.75 335.25h13.5v40.5h-13.5z"/>
    <path fill="#0F0" stroke="#000" stroke-width=".75" d="M102.249 348.75l.001-13.5h-13.5l-.001 13.5"/>
    <path fill="#36F" stroke="#000" stroke-width=".75" d="M59.685 352.728l6.75-11.69 35.073 20.25-6.75 11.69z"/>
    <path fill="#0F0" stroke="#000" stroke-width=".75" d="M196.75 119.25h13.5v40.5h-13.5z"/>
    <path fill="#0060B6" stroke="#000" stroke-width=".75" d="M501.234 120.217l6.75-11.691 35.073 20.25-6.75 11.691z"/>
    <path fill="#FF0" stroke="#000" stroke-width=".75" d="M322.293 138.597l-35.072 20.25-6.75-11.692 35.072-20.25z"/>
    <path fill="#0C0" stroke="#000" stroke-width=".75" d="M392.5 105.75H406v40.5h-13.5z"/>
    <path fill="#36F" stroke="#000" stroke-width=".75" d="M59.687 136.734l6.75-11.69 35.072 20.25-6.75 11.69z"/>
    <path fill="#0F0" stroke="#000" stroke-width=".75" d="M34.75 227.25h13.5v40.5h-13.5z"/>
    <path fill="#0F0" stroke="#000" stroke-width=".75" d="M48.249 240.75l.001-13.5h-13.5l-.001 13.5"/>
    <path fill="#36F" stroke="#000" stroke-width=".75" d="M5.688 244.73l6.749-11.69 35.073 20.25-6.75 11.69z"/>
    <path fill="none" stroke="#BF0000" stroke-width="3" d="M115.75 382.5l40.5 40.5M190 382.5V423m33.75 0l40.5-40.5m67.5 0l40.5 40.5M406 382.5V423m33.75 0l40.5-40.5m-256.5 108l40.5 40.5m67.5 0l40.5-40.5M298 598.5V639M115.75 315l94.5-40.5m20.25 0l47.25 40.5m-27-40.5l121.5 40.5M298 315v-40.5m20.25 40.5l47.25-40.5M223.75 315l121.5-40.5m40.5 0l94.5 40.5m-310.5 0l-54-40.5m67.5 40.5L163 274.5m-67.5 0V315m-20.25 0l-27-40.5m378 40.5l54-40.5m-67.5 40.5L433 274.5m67.5 0V315m20.25 0l27-40.5m-256.5-108L257.5 207m47.25-40.5l40.5 40.5M325 166.5L480.25 207m-216-40.5L115.75 207M82 166.5l6.75 40.5m13.5-40.5l40.5 40.5m-81-40.5L41.5 207M514 166.5l-6.75 40.5m-13.5-40.5l-40.5 40.5m81-40.5L554.5 207m-492.75 0l121.5-40.5m13.5 0l27 40.5m-13.5-40.5L271 207m-40.5-40.5L406 207m128.251 0l-121.5-40.5m-13.501 0l-27 40.5m13.501-40.5l-60.75 40.5m40.499-40.5L190.001 207"/>
    <path fill="none" stroke="#000" stroke-width="1.5" d="M277.75 4.5h40.5V45h-40.5z"/>
    <path fill="none" stroke="#BF0000" stroke-width="3" d="M115.75 99l148.5-40.5M223.75 99l60.75-40.5M480.25 99l-148.5-40.5m40.5 40.5L311.5 58.5m-13.5 0V99"/>
</svg>
