<svg xmlns="http://www.w3.org/2000/svg" width="702" height="270" overflow="visible"><path fill="none" stroke="#007800" stroke-width="2" d="M675 99L531 243m0 0l144-72"/><path fill="none" stroke="#0000E1" stroke-width="2" d="M459 243h72"/><path fill="none" stroke="#8F0000" stroke-width="2" d="M459 99v72"/><path fill="none" stroke="#007800" stroke-width="2" d="M495 27l180 144-216 72L675 99l-216 72"/><path fill="none" stroke="#007800" stroke-width="2" d="M495 27l180 72H459l216 72H459"/><path fill="none" stroke="#666" stroke-width="2" d="M351 171l-27-72M27 171l81-72 108-72 108 72-27 72"/><path fill="none" stroke="#666" stroke-width="2" d="M108 171V99l108 72m-27 72l27-72 27 72m-162 0l27-72 27 72"/><path fill="#E1E1FF" stroke="#000" d="M202.5 157.5h27v27h-27z"/><path fill="#FFE1E1" stroke="#000" d="M94.5 157.5h27v27h-27z"/><path fill="#E1FFE1" stroke="#000" d="M202.5 13.5h27v27h-27z"/><path fill="#FFF" stroke="#000" d="M310.5 85.5h27v27h-27zm-216 0h27v27h-27z"/><g fill="#FFF" stroke="#000"><circle cx="351" cy="171" r="13.5"/><circle cx="297" cy="171" r="13.5"/><circle cx="243" cy="243" r="13.5"/><circle cx="189" cy="243" r="13.5"/><circle cx="135" cy="243" r="13.5"/><circle cx="81" cy="243" r="13.5"/><circle cx="27" cy="171" r="13.5"/></g><text transform="translate(21.674 178)" font-family="Times" font-size="24">a</text><circle fill="#FFF" stroke="#000" cx="495" cy="27" r="13.5"/><text transform="translate(489.675 34)" font-family="Times" font-size="24">a</text><text transform="translate(75 249)" font-family="Times" font-size="24">b</text><circle fill="#FFF" stroke="#000" cx="459" cy="99" r="13.5"/><text transform="translate(453 105)" font-family="Times" font-size="24">b</text><text transform="translate(129.674 249)" font-family="Times" font-size="24">c</text><circle fill="#FFF" stroke="#000" cx="459" cy="171" r="13.5"/><text transform="translate(453.675 177)" font-family="Times" font-size="24">c</text><text transform="translate(183 250)" font-family="Times" font-size="24">d</text><text transform="translate(237.674 250)" font-family="Times" font-size="24">e</text><circle fill="#FFF" stroke="#000" cx="531" cy="243" r="13.5"/><circle fill="#FFF" stroke="#000" cx="459" cy="243" r="13.5"/><text transform="translate(453 250)" font-family="Times" font-size="24">d</text><text transform="translate(525.674 250)" font-family="Times" font-size="24">e</text><text transform="translate(293.004 178)" font-family="Times" font-size="24">f</text><circle fill="#FFF" stroke="#000" cx="675" cy="171" r="13.5"/><text transform="translate(671.005 178)" font-family="Times" font-size="24">f</text><text transform="translate(345 177)" font-family="Times" font-size="24">g</text><circle fill="#FFF" stroke="#000" cx="675" cy="99" r="13.5"/><text transform="translate(669 105)" font-family="Times" font-size="24">g</text><text transform="translate(102 177)" font-family="Times" font-size="24">1</text><text transform="translate(210 177)" font-family="Times" font-size="24">1</text><text transform="translate(102 105)" font-family="Times" font-size="24">0</text><text transform="translate(318 105)" font-family="Times" font-size="24">0</text><text transform="translate(210 33)" font-family="Times" font-size="24">1</text><path fill="none" d="M0 0h702v270H0z"/></svg>