<svg xmlns="http://www.w3.org/2000/svg" width="441" height="443">
    <path opacity=".2" fill="#32347D" d="M279.131 223.177l-.014-1.52-.039-1.517-.062-1.518-.09-1.519-.117-1.516-.143-1.52-.17-1.517-.199-1.518-.227-1.515-.258-1.514-.285-1.514-.32-1.508-.35-1.507-.384-1.504-.422-1.496-.453-1.493-.493-1.482-.531-1.475-.57-1.462-.613-1.45-.655-1.435-.697-1.418-.74-1.397-.787-1.377-.832-1.351-.877-1.324-.924-1.295-.969-1.262-1.012-1.227-1.058-1.191-1.1-1.152-1.142-1.11-1.18-1.068-1.221-1.026-1.252-.978-1.287-.936-1.318-.888-1.344-.844-1.371-.797-1.391-.754-1.414-.707-1.431-.664-1.446-.623-1.461-.582-1.47-.541-1.483-.502-1.488-.463-1.496-.429-1.502-.393-1.506-.361-1.508-.325-1.513-.295-1.514-.265-1.516-.235-1.515-.205-1.518-.177-1.519-.151-1.516-.121-1.52-.097-1.517-.071-1.518-.045-1.519-.019-1.518.006-1.517.033-1.52.056-1.518.084-1.517.11-1.52.137-1.515.164-1.518.191-1.517.221-1.514.248-1.514.279-1.51.311-1.507.341-1.504.377-1.5.41-1.492.448-1.487.482-1.474.522-1.467.56-1.453.602-1.44.642-1.422.688-1.404.73-1.381.776-1.357.82-1.332.867-1.303.91-1.269.959-1.237 1.002-1.199 1.045-1.162 1.09-1.121 1.131-1.08 1.172-1.035 1.211-.993 1.244-.943 1.277-.902 1.311-.854 1.338-.808 1.365-.764 1.387-.721 1.408-.676 1.428-.632 1.443-.59 1.455-.551 1.469-.514 1.478-.472 1.489-.438 1.494-.402 1.502-.367 1.504-.334 1.507-.303 1.512-.272 1.514-.242 1.515-.213 1.516-.183 1.518-.158 1.517-.129 1.518-.104 1.517-.078 1.518-.051 1.519-.025 1.518v1.52l.025 1.517.051 1.52.078 1.515.104 1.52.129 1.517.158 1.518.183 1.518.213 1.515.242 1.516.272 1.513.303 1.512.334 1.508.367 1.504.402 1.502.438 1.494.472 1.488.514 1.479.551 1.467.59 1.457.632 1.443.676 1.426.721 1.408.764 1.387.808 1.365.854 1.338.902 1.312.943 1.276.993 1.246 1.035 1.211 1.08 1.172 1.121 1.13 1.162 1.088 1.199 1.047 1.237 1.004 1.269.957 1.303.91 1.332.867 1.357.821 1.381.773 1.404.731 1.422.689 1.44.641 1.453.603 1.467.559 1.474.523 1.487.483 1.492.447 1.5.41 1.504.377 1.507.34 1.51.311 1.514.281 1.514.248 1.517.221 1.518.189 1.515.164 1.52.137 1.517.109 1.518.084 1.52.059 1.517.031 1.518.008 1.519-.02 1.518-.045 1.517-.07 1.52-.098 1.516-.121 1.519-.152 1.518-.176 1.515-.207 1.516-.234 1.514-.264 1.513-.295 1.508-.324 1.506-.363 1.502-.393 1.496-.428 1.488-.463 1.483-.502 1.47-.541 1.461-.58 1.446-.623 1.431-.666 1.414-.709 1.391-.752 1.371-.796 1.344-.844 1.318-.889 1.287-.935 1.252-.979 1.221-1.025 1.18-1.069 1.142-1.111 1.1-1.15 1.058-1.192 1.012-1.228.969-1.262.924-1.293.877-1.324.832-1.352.787-1.377.74-1.396.697-1.418.655-1.438.613-1.449.57-1.463.531-1.474.493-1.481.453-1.492.422-1.496.384-1.504.35-1.508.32-1.512.285-1.509.258-1.518.227-1.512.199-1.519.17-1.516.143-1.519.117-1.518.09-1.52.062-1.515.039-1.518.014-1.519"/>
    <path opacity=".2" fill="#32347D" d="M330.217 223.177l-.01-2.809-.027-2.808-.043-2.817-.065-2.818-.082-2.83-.103-2.842-.125-2.854-.145-2.869-.172-2.884-.195-2.905-.227-2.924-.257-2.945-.289-2.965-.329-2.992-.371-3.012-.42-3.033-.468-3.055-.532-3.074-.595-3.088-.674-3.097-.758-3.102-.851-3.098-.958-3.082-1.076-3.054-1.209-3.014-1.347-2.955-1.504-2.877-1.668-2.779-1.836-2.666-2.006-2.53-2.178-2.382-2.343-2.221-2.497-2.051-2.634-1.879-2.75-1.709-2.858-1.543-2.935-1.386-3-1.243-3.047-1.107-3.074-.986-3.098-.879-3.1-.778-3.099-.695-3.092-.613-3.076-.547-3.063-.486-3.039-.43-3.017-.383-2.995-.338-2.972-.301-2.949-.263-2.93-.235-2.908-.201-2.891-.178-2.873-.152-2.857-.131-2.842-.107-2.834-.088-2.822-.066-2.817-.051-2.81-.032-2.809-.013-2.807.006-2.808.021-2.813.041-2.82.059-2.828.078-2.838.098-2.85.117-2.863.14-2.883.164-2.898.192-2.92.217-2.94.248-2.96.283-2.985.318-3.006.36-3.029.406-3.051.457-3.068.516-3.084.58-3.096.652-3.101.734-3.1.826-3.088.932-3.062 1.045-3.026 1.174-2.971 1.312-2.898 1.465-2.807 1.625-2.695 1.793-2.566 1.965-2.42 2.137-2.262 2.302-2.094 2.458-1.922 2.601-1.75 2.723-1.584 2.832-1.425 2.918-1.278 2.986-1.138 3.035-1.016 3.072-.904 3.09-.803 3.102-.715 3.099-.633 3.094-.562 3.082-.5 3.065-.444 3.045-.394 3.023-.35 3-.308 2.979-.274 2.957-.24 2.933-.211 2.914-.183 2.895-.159 2.877-.134 2.859-.114 2.846-.092 2.838-.074 2.824-.052 2.818-.038 2.813-.017 2.806v2.809l.017 2.807.038 2.812.052 2.819.074 2.824.092 2.834.114 2.847.134 2.862.159 2.877.183 2.894.211 2.914.24 2.934.274 2.955.308 2.978.35 3 .394 3.026.444 3.045.5 3.064.562 3.08.633 3.094.715 3.102.803 3.099.904 3.094 1.016 3.068 1.138 3.037 1.278 2.987 1.425 2.918 1.584 2.832 1.75 2.722 1.922 2.602 2.094 2.457 2.262 2.303 2.42 2.136 2.566 1.965 2.695 1.793 2.807 1.625 2.898 1.463 2.971 1.313 3.026 1.175 3.062 1.045 3.088.93 3.1.828 3.101.735 3.096.652 3.084.58 3.068.516 3.051.457 3.029.404 3.006.361 2.985.319 2.96.283 2.94.248 2.92.217 2.898.191 2.883.164 2.863.141 2.85.117 2.838.098 2.828.078 2.82.058 2.813.039 2.808.024 2.807.004 2.809-.012 2.81-.031 2.817-.051 2.822-.066 2.834-.09 2.842-.106 2.857-.131 2.873-.15 2.891-.18 2.908-.201 2.93-.234 2.949-.264 2.972-.301 2.995-.339 3.017-.381 3.039-.432 3.063-.486 3.076-.545 3.092-.614 3.099-.695 3.1-.777 3.098-.879 3.074-.986 3.047-1.11 3-1.24 2.935-1.387 2.858-1.545 2.75-1.707 2.634-1.879 2.497-2.05 2.343-2.221 2.178-2.383 2.006-2.531 1.836-2.664 1.668-2.78 1.504-2.878 1.347-2.955 1.209-3.012 1.076-3.055.958-3.082.851-3.098.758-3.101.674-3.098.595-3.09.532-3.07.468-3.057.42-3.035.371-3.01.329-2.992.289-2.965.257-2.947.227-2.922.195-2.906.172-2.883.145-2.869.125-2.853.103-2.842.082-2.83.065-2.819.043-2.816.027-2.809.01-2.808"/>
    <path opacity=".2" fill="#32347D" d="M359.025 223.177l-.005-3.535-.014-3.538-.027-3.548-.034-3.557-.047-3.572-.058-3.59-.074-3.613-.082-3.643-.1-3.668-.117-3.705-.135-3.74-.156-3.783-.18-3.825-.209-3.873-.238-3.924-.276-3.972-.32-4.028-.369-4.078-.432-4.132-.5-4.18-.59-4.221-.691-4.256-.812-4.273-.959-4.276-1.135-4.25-1.344-4.189-1.582-4.094-1.857-3.947-2.162-3.752-2.489-3.51-2.82-3.218-3.143-2.903-3.439-2.57-3.695-2.242-3.905-1.932-4.06-1.648-4.17-1.401-4.238-1.183-4.272-1.002-4.275-.846-4.264-.719-4.23-.611-4.19-.524-4.146-.447-4.09-.385-4.041-.33-3.987-.287-3.937-.248-3.883-.215-3.838-.185-3.791-.162-3.754-.141-3.711-.121-3.679-.104-3.647-.087-3.619-.077-3.598-.06-3.576-.049-3.56-.039-3.549-.027-3.541-.018-3.535-.008-3.534.004-3.537.012-3.545.021-3.554.035-3.569.043-3.586.055-3.607.068-3.633.081-3.662.097-3.695.112-3.731.13-3.773.151-3.815.174-3.861.199-3.908.23-3.961.268-4.014.307-4.066.357-4.119.414-4.168.484-4.211.565-4.248.662-4.272.779-4.275.922-4.26 1.09-4.209 1.285-4.121 1.52-3.988 1.789-3.807 2.082-3.574 2.406-3.295 2.736-2.984 3.065-2.653 3.367-2.324 3.637-2.006 3.855-1.717 4.028-1.459 4.146-1.234 4.225-1.045 4.267-.883 4.276-.748 4.267-.636 4.24-.543 4.202-.465 4.154-.399 4.107-.343 4.053-.297 4.002-.256 3.947-.225 3.897-.193 3.849-.168 3.803-.145 3.762-.125 3.72-.109 3.688-.09 3.654-.078 3.627-.066 3.602-.051 3.582-.043 3.562-.029 3.553-.02 3.543-.01 3.535v3.535l.01 3.535.02 3.543.029 3.553.043 3.563.051 3.58.066 3.603.078 3.625.09 3.657.109 3.685.125 3.723.145 3.76.168 3.804.193 3.85.225 3.896.256 3.948.297 4.002.343 4.052.399 4.108.465 4.154.543 4.201.636 4.242.748 4.264.883 4.277 1.045 4.266 1.234 4.227 1.459 4.144 1.717 4.029 2.006 3.856 2.324 3.637 2.653 3.367 2.984 3.062 3.295 2.739 3.574 2.404 3.807 2.084 3.988 1.789 4.121 1.517 4.209 1.289 4.26 1.088 4.275.922 4.272.778 4.248.664 4.211.564 4.168.484 4.119.415 4.066.357 4.014.307 3.961.267 3.908.229 3.861.201 3.815.176 3.773.148 3.731.131 3.695.111 3.662.098 3.633.08 3.607.068 3.586.055 3.569.045 3.554.031 3.545.022 3.537.013 3.534.002 3.535-.007 3.541-.016 3.549-.027 3.56-.039 3.576-.049 3.598-.061 3.619-.076 3.647-.088 3.679-.105 3.711-.12 3.754-.142 3.791-.16 3.838-.186 3.883-.215 3.937-.25 3.987-.285 4.041-.332 4.09-.383 4.146-.447 4.19-.523 4.23-.61 4.264-.72 4.275-.846 4.272-1.002 4.238-1.184 4.17-1.4 4.06-1.649 3.905-1.931 3.695-2.242 3.439-2.571 3.143-2.902 2.82-3.221 2.489-3.506 2.162-3.755 1.857-3.948 1.582-4.091 1.344-4.192 1.135-4.248.959-4.275.812-4.274.691-4.254.59-4.222.5-4.18.432-4.133.369-4.078.32-4.027.276-3.973.238-3.924.209-3.873.18-3.824.156-3.783.135-3.742.117-3.704.1-3.669.082-3.641.074-3.613.058-3.59.047-3.573.034-3.556.027-3.549.014-3.537.005-3.535"/>
    <path opacity=".2" fill="#32347D" d="M381.102 223.177l-.004-4.092-.01-4.096-.012-4.107-.019-4.121-.028-4.141-.031-4.166-.041-4.191-.047-4.229-.056-4.267-.069-4.313-.078-4.363-.09-4.416-.107-4.477-.127-4.543-.147-4.613-.174-4.689-.203-4.766-.242-4.85-.289-4.933-.348-5.018-.418-5.099-.513-5.174-.627-5.239-.774-5.279-.96-5.291-1.196-5.258L373 98.28l-1.855-4.994-2.286-4.732-2.773-4.373-3.293-3.926-3.807-3.424-4.267-2.902-4.651-2.405-4.939-1.957-5.133-1.574-5.24-1.265-5.289-1.014-5.285-.817-5.248-.662-5.192-.535-5.119-.441-5.039-.365-4.955-.301-4.869-.254-4.787-.213-4.707-.182-4.633-.152-4.561-.131-4.492-.111-4.432-.096-4.377-.08-4.322-.07-4.277-.059-4.238-.051-4.204-.041-4.169-.035-4.147-.027-4.125-.022-4.109-.013-4.1-.01-4.092-.006-4.093.002-4.094.008-4.104.012-4.117.017-4.135.025-4.158.03-4.185.039-4.219.047-4.258.052-4.301.065-4.349.076-4.403.088-4.461.102-4.525.121-4.596.142-4.668.166-4.748.196-4.828.23-4.914.277-4.996.332-5.08.401-5.156.486-5.223.596-5.27.734-5.293.908-5.271 1.133-5.195 1.412-5.047 1.758-4.805 2.172-4.473 2.648-4.044 3.163-3.553 3.679-3.031 4.16-2.526 4.563-2.06 4.877-1.666 5.092-1.336 5.218-1.073 5.282-.861 5.289-.695 5.261-.567 5.207-.463 5.141-.382 5.059-.315 4.974-.265 4.893-.223 4.808-.188 4.727-.16 4.65-.135 4.577-.117 4.509-.097 4.448-.084 4.386-.075 4.338-.06 4.289-.053 4.246-.045 4.211-.035 4.178-.029 4.152-.022 4.131-.017 4.112-.01 4.101-.006 4.094v4.094l.006 4.093.01 4.102.017 4.111.022 4.131.029 4.151.035 4.179.045 4.211.053 4.246.06 4.289.075 4.336.084 4.389.097 4.447.117 4.51.135 4.576.16 4.651.188 4.726.223 4.809.265 4.892.315 4.975.382 5.058.463 5.141.567 5.207.695 5.262.861 5.287 1.073 5.283 1.336 5.219 1.666 5.092 2.06 4.875 2.526 4.564 3.031 4.158 3.553 3.682 4.044 3.162 4.473 2.649 4.805 2.169 5.047 1.758 5.195 1.414 5.271 1.133 5.293.908 5.27.737 5.223.591 5.156.489 5.08.4 4.996.33 4.914.28 4.828.23 4.748.195 4.668.166 4.596.143 4.525.119 4.461.104 4.403.085 4.349.077 4.301.066 4.258.053 4.219.047 4.185.037 4.158.031 4.135.025 4.117.016 4.104.014 4.094.006 4.093.003 4.092-.005 4.1-.01 4.109-.014 4.125-.021 4.147-.028 4.169-.035 4.204-.041 4.238-.051 4.277-.058 4.322-.069 4.377-.084 4.432-.095 4.492-.112 4.561-.128 4.633-.155 4.707-.178 4.787-.214 4.869-.252 4.955-.303 5.039-.365 5.119-.442 5.192-.535 5.248-.662 5.285-.816 5.289-1.016 5.24-1.264 5.133-1.574 4.939-1.959 4.651-2.402 4.267-2.903 3.807-3.423 3.293-3.926 2.773-4.371 2.286-4.735 1.855-4.996 1.492-5.164 1.196-5.258.96-5.293.774-5.277.627-5.238.513-5.176.418-5.098.348-5.019.289-4.932.242-4.849.203-4.766.174-4.688.147-4.615.127-4.543.107-4.478.09-4.416.078-4.362.069-4.312.056-4.268.047-4.226.041-4.194.031-4.166.028-4.14.019-4.121.012-4.108.01-4.095.004-4.092"/>
    <path opacity=".2" fill="#32347D" d="M399.818 223.177l-.002-4.567-.002-4.57-.007-4.578-.012-4.602-.016-4.617-.017-4.65-.022-4.684-.025-4.724-.033-4.77-.039-4.824-.043-4.881-.055-4.949-.061-5.022-.076-5.099-.088-5.186-.107-5.281-.127-5.381-.156-5.484-.188-5.598-.234-5.711-.291-5.828-.363-5.942-.463-6.046-.598-6.135-.773-6.194-1.012-6.203-1.334-6.134-1.756-5.963-2.293-5.651-2.943-5.181-3.664-4.565-4.393-3.851-5.041-3.119-5.549-2.448-5.898-1.877-6.106-1.429-6.193-1.084-6.201-.827-6.153-.634-6.07-.494-5.971-.389-5.853-.305-5.742-.248-5.625-.199-5.514-.162-5.404-.133-5.305-.111-5.211-.094-5.119-.078-5.041-.067-4.967-.054-4.896-.045-4.838-.041-4.785-.033-4.733-.028-4.693-.023-4.658-.02-4.627-.015-4.604-.01-4.584-.01-4.572-.004-4.567-.004-4.564.002-4.568.004-4.578.006-4.594.01-4.613.013-4.641.018-4.676.02-4.713.025-4.758.031-4.81.037-4.865.043-4.932.051-5.004.061-5.078.07-5.166.086-5.256.101-5.353.122-5.459.148-5.569.18-5.683.22-5.799.276-5.912.343-6.022.436-6.115.561-6.184.722-6.205.946-6.16 1.246-6.019 1.638-5.743 2.149-5.314 2.771-4.731 3.483-4.035 4.214-3.298 4.889-2.606 5.438-2.01 5.826-1.529 6.064-1.162 6.18-.885 6.205-.678 6.168-.525 6.094-.41 5.996-.324 5.885-.262 5.771-.209 5.652-.172 5.541-.139 5.432-.117 5.33-.098 5.233-.082 5.142-.068 5.059-.057 4.984-.048 4.914-.041 4.854-.036 4.795-.029 4.746-.023 4.703-.02 4.666-.017 4.633-.012 4.609-.01 4.59-.006 4.576-.004 4.565v4.566l.004 4.564.006 4.577.01 4.589.012 4.608.017 4.635.02 4.666.023 4.703.029 4.746.036 4.797.041 4.851.048 4.914.057 4.983.068 5.06.082 5.143.098 5.232.117 5.328.139 5.434.172 5.541.209 5.652.262 5.772.324 5.883.41 5.996.525 6.094.678 6.169.885 6.206 1.162 6.179 1.529 6.065 2.01 5.826 2.606 5.437 3.298 4.889 4.035 4.215 4.731 3.48 5.314 2.774 5.743 2.148 6.019 1.639 6.16 1.246 6.205.943 6.184.725 6.115.56 6.022.434 5.912.348 5.799.273 5.683.221 5.569.18 5.459.148 5.353.121 5.256.102 5.166.086 5.078.07 5.004.06 4.932.051 4.865.041 4.81.037 4.758.034 4.713.023 4.676.021 4.641.018 4.613.012 4.594.01 4.578.007 4.568.006h4.564l4.567-.004 4.572-.004 4.584-.009 4.604-.01 4.627-.018 4.658-.017 4.693-.024 4.733-.027 4.785-.035 4.838-.039 4.896-.045 4.967-.057 5.041-.066 5.119-.078 5.211-.092 5.305-.111 5.404-.133 5.514-.164 5.625-.198 5.742-.248 5.853-.306 5.971-.385 6.07-.496 6.153-.635 6.201-.826 6.193-1.086 6.106-1.428 5.898-1.877 5.549-2.447 5.041-3.119 4.393-3.852 3.664-4.564 2.943-5.182 2.293-5.652 1.756-5.961 1.334-6.135 1.012-6.205.773-6.191.598-6.135.463-6.047.363-5.943.291-5.827.234-5.71.188-5.598.156-5.486.127-5.379.107-5.282.088-5.183.076-5.104.061-5.019.055-4.949.043-4.883.039-4.823.033-4.769.025-4.725.022-4.685.017-4.649.016-4.621.012-4.597.007-4.582.002-4.567.002-4.566"/>
    <path opacity=".2" fill="#32347D" d="M416.477 223.177l-.002-4.985-.002-4.992-.004-5.004-.008-5.021-.006-5.049-.01-5.078-.011-5.119-.016-5.162-.018-5.215-.021-5.276-.024-5.341-.033-5.416-.037-5.498-.043-5.588-.054-5.69-.063-5.795-.078-5.912-.098-6.037-.121-6.17-.154-6.31-.197-6.457-.258-6.602-.334-6.748-.449-6.881-.606-6.986-.832-7.043-1.152-7.018-1.61-6.865-2.228-6.525-3.031-5.957-3.969-5.159-4.932-4.213-5.775-3.255-6.406-2.413-6.801-1.748-6.994-1.253-7.045-.903-7.008-.652-6.91-.485-6.782-.359-6.64-.273-6.492-.209-6.344-.166-6.207-.127-6.07-.104-5.942-.084-5.824-.068-5.715-.055-5.611-.047-5.522-.037-5.435-.031-5.36-.027-5.291-.022-5.228-.019-5.176-.016-5.129-.014-5.088-.01-5.054-.007-5.028-.006-5.01-.006-4.994-.002-4.984-.002h-4.984l-4.989.004-5 .004-5.017.004-5.041.008-5.073.009-5.107.01-5.15.016-5.202.017-5.259.02-5.323.023-5.398.03-5.477.035-5.564.043-5.664.049-5.768.062-5.883.074-6.003.094-6.137.113-6.276.147-6.417.185-6.567.239-6.713.312-6.847.416-6.963.563-7.035.767-7.036 1.063-6.92 1.478-6.628 2.057-6.124 2.816-5.375 3.727-4.457 4.695-3.488 5.584-2.607 6.27-1.897 6.722-1.363 6.961-.977 7.045-.709 7.024-.521 6.935-.387 6.817-.293 6.677-.222 6.53-.174 6.38-.137 6.241-.109 6.103-.088 5.973-.071 5.853-.058 5.741-.049 5.638-.041 5.541-.033 5.457-.028 5.377-.023 5.309-.019 5.242-.016 5.189-.014 5.139-.011 5.098-.008 5.064-.006 5.033-.006 5.012-.004 4.996v14.959l.004 4.998.006 5.012.006 5.033.008 5.065.011 5.097.014 5.139.016 5.188.019 5.244.023 5.308.028 5.375.033 5.457.041 5.545.049 5.637.058 5.74.071 5.854.088 5.972.109 6.104.137 6.24.174 6.381.222 6.531.293 6.676.387 6.816.521 6.936.709 7.023.977 7.043 1.363 6.961 1.897 6.725 2.607 6.269 3.488 5.582 4.457 4.698 5.375 3.726 6.124 2.815 6.628 2.058 6.92 1.479 7.036 1.062 7.035.768 6.963.56 6.847.418 6.713.313 6.567.238 6.417.186 6.276.144 6.137.116 6.003.091 5.883.076 5.768.061 5.664.051 5.564.043 5.477.033 5.398.029 5.323.026 5.259.019 5.202.018 5.15.013 5.107.012 5.073.01 5.041.008 5.017.004 5 .004 4.989.002h9.968l4.994-.002 5.01-.006 5.028-.006 5.054-.008 5.088-.01 5.129-.015 5.176-.014 5.228-.02 5.291-.023 5.36-.025 5.435-.034 5.522-.035 5.611-.047 5.715-.056 5.824-.069 5.942-.082 6.07-.103 6.207-.129 6.344-.164 6.492-.209 6.64-.274 6.782-.359 6.91-.484 7.008-.653 7.045-.904 6.994-1.252 6.801-1.746 6.406-2.414 5.775-3.258 4.932-4.211 3.969-5.158 3.031-5.957 2.228-6.525 1.61-6.868 1.152-7.015.832-7.043.606-6.988.449-6.879.334-6.748.258-6.602.197-6.459.154-6.309.121-6.171.098-6.036.078-5.912.063-5.795.054-5.689.043-5.588.037-5.498.033-5.418.024-5.342.021-5.273.018-5.215.016-5.164.011-5.117.01-5.08.006-5.047.008-5.022.004-5.004.002-4.992.002-4.984"/>
    <path opacity=".2" fill="#32347D" d="M431.695 223.177v-10.744l-.002-5.391-.002-5.41-.003-5.438-.006-5.472-.008-5.512-.006-5.564-.012-5.622-.011-5.683-.014-5.758-.018-5.84-.021-5.931-.026-6.03-.031-6.14-.039-6.26-.049-6.391-.06-6.529-.078-6.684-.102-6.841-.131-7.014-.178-7.188-.24-7.369-.33-7.539-.465-7.691-.672-7.799-.976-7.826-1.442-7.705-2.121-7.362-3.06-6.705-4.219-5.724-5.435-4.526-6.489-3.334-7.23-2.33-7.643-1.59-7.812-1.076-7.815-.734-7.726-.51-7.58-.361-7.413-.258-7.234-.192-7.055-.142-6.884-.108-6.721-.082-6.568-.064-6.424-.053-6.291-.039-6.17-.035-6.057-.025-5.955-.024-5.861-.017-5.776-.016-5.703-.012-5.635-.009-5.58-.008-5.523-.008-5.481-.006-5.447-.004-5.416-.004-5.394-.002-5.377-.002h-16.114l-5.384.002-5.405.004-5.431.004-5.463.004-5.502.008-5.549.008-5.605.009-5.668.01-5.739.014-5.82.017-5.906.02-6.006.023-6.111.03-6.229.037-6.357.047-6.494.056-6.643.075-6.801.093-6.971.125-7.144.162-7.322.223-7.498.305-7.657.426-7.779.613-7.83.888-7.754 1.305-7.473 1.928-6.9 2.803-5.996 3.914-4.834 5.138-3.619 6.254-2.557 7.074-1.752 7.567-1.185 7.789-.809 7.826-.559 7.754-.39 7.619-.281 7.455-.205 7.278-.153 7.101-.115 6.926-.09 6.762-.066 6.605-.057 6.459-.041 6.322-.037 6.202-.027 6.082-.024 5.98-.019 5.883-.016 5.799-.012 5.72-.011 5.653-.008 5.588-.008 5.539-.006 5.492-.006 5.453-.002 5.422-.004 5.4-.002 5.381v16.113l.002 5.381.004 5.399.002 5.424.006 5.451.006 5.494.008 5.537.008 5.59.011 5.652.012 5.721.016 5.799.019 5.882.024 5.981.027 6.082.037 6.199.041 6.324.057 6.459.066 6.604.09 6.764.115 6.925.153 7.1.205 7.277.281 7.457.39 7.619.559 7.752.809 7.829 1.185 7.787 1.752 7.568 2.557 7.074 3.619 6.254 4.834 5.139 5.996 3.914 6.9 2.803 7.473 1.925 7.754 1.309 7.83.887 7.779.613 7.657.426 7.498.304 7.322.221 7.144.166 6.971.121 6.801.096 6.643.074 6.494.057 6.357.045 6.229.037 6.111.029 6.006.026 5.906.021 5.82.014 5.739.015 5.668.012 5.605.008 5.549.01 5.502.004 5.463.005 5.431.004 5.405.004 5.384.002h16.114l5.377-.002 5.394-.004 5.416-.002 5.447-.005 5.481-.004 5.523-.008 5.58-.008 5.635-.012 5.703-.011 5.776-.016 5.861-.016 5.955-.023 6.057-.026 6.17-.035 6.291-.041 6.424-.05 6.568-.065 6.721-.082 6.884-.107 7.055-.145 7.234-.187 7.413-.262 7.58-.36 7.726-.509 7.815-.735 7.812-1.076 7.643-1.59 7.23-2.332 6.489-3.332 5.435-4.527 4.219-5.723 3.06-6.707 2.121-7.357 1.442-7.707.976-7.826.672-7.799.465-7.694.33-7.539.24-7.365.178-7.189.131-7.012.102-6.844.078-6.683.06-6.53.049-6.388.039-6.264.031-6.139.026-6.031.021-5.93.018-5.839.014-5.758.011-5.686.012-5.619.006-5.562.008-5.516.006-5.471.003-5.437.002-5.41.002-5.391v-10.744"/>
    <path opacity=".2" fill="#EB2D2E" d="M434.32 119.073l-.009-2.808-.026-2.811-.045-2.814-.064-2.821-.082-2.83-.102-2.84-.125-2.855-.146-2.867-.172-2.887-.195-2.902-.225-2.926-.256-2.943-.291-2.967-.328-2.99-.371-3.012-.418-3.035-.473-3.055-.531-3.072-.596-3.088-.674-3.1-.757-3.101-.852-3.096-.957-3.084-1.076-3.055-1.205-3.011-1.352-2.956-1.504-2.876-1.668-2.782-1.836-2.664-2.005-2.531-2.178-2.383-2.344-2.221-2.496-2.05-2.631-1.877-2.754-1.709-2.857-1.545-2.934-1.387-3-1.24-3.047-1.11-3.076-.986-3.096-.877-3.101-.779-3.1-.693-3.092-.616-3.076-.547-3.058-.484-3.039-.43-3.022-.382-2.992-.34-2.973-.299-2.949-.266-2.93-.232-2.91-.203-2.888-.178-2.874-.15-2.857-.131-2.844-.108-2.832-.088-2.826-.068-2.814-.049-2.811-.031-2.807-.014-2.806.006-2.811.022-2.812.039-2.821.058-2.826.078-2.838.098-2.851.117-2.863.141-2.881.166-2.901.189-2.918.219-2.939.248-2.961.281-2.984.319-3.008.361-3.03.404-3.048.459-3.071.514-3.082.58-3.097.652-3.102.735-3.098.828-3.089.93-3.061 1.047-3.025 1.173-2.971 1.313-2.898 1.465-2.807 1.623-2.695 1.795-2.567 1.965-2.42 2.136-2.263 2.301-2.092 2.457-1.924 2.602-1.75 2.724-1.584 2.832-1.426 2.918-1.275 2.987-1.141 3.035-1.015 3.07-.905 3.092-.803 3.101-.714 3.1-.633 3.094-.563 3.08-.5 3.066-.443 3.045-.393 3.024-.351 3-.309 2.978-.273 2.955-.24 2.934-.209 2.914-.186 2.894-.158 2.877-.135 2.862-.111 2.847-.094 2.834-.072 2.824-.055 2.819-.035 2.812-.018 2.809v2.807l.018 2.808.035 2.813.055 2.818.072 2.824.094 2.834.111 2.848.135 2.861.158 2.877.186 2.893.209 2.914.24 2.935.273 2.955.309 2.979.351 3 .393 3.023.443 3.045.5 3.067.563 3.08.633 3.094.714 3.101.803 3.1.905 3.092 1.015 3.07 1.141 3.035 1.275 2.986 1.426 2.918 1.584 2.83 1.75 2.727 1.924 2.6 2.092 2.459 2.263 2.302 2.42 2.137 2.567 1.965 2.695 1.793 2.807 1.625 2.898 1.463 2.971 1.312 3.025 1.174 3.061 1.047 3.089.93 3.098.828 3.102.734 3.097.652 3.082.58 3.071.516 3.048.455 3.03.406 3.008.362 2.984.318 2.961.281 2.939.248 2.918.219 2.901.19 2.881.164 2.863.14 2.851.119 2.838.098 2.826.078 2.821.059 2.812.039 2.811.021 2.806.006 2.807-.013 2.811-.032 2.814-.049 2.826-.068 2.832-.088 2.844-.107 2.857-.129 2.874-.154 2.888-.176 2.91-.201 2.93-.235 2.949-.265 2.973-.299 2.992-.34 3.022-.381 3.039-.432 3.058-.486 3.076-.545 3.092-.615 3.1-.693 3.101-.78 3.096-.879 3.076-.984 3.047-1.109 3-1.241 2.934-1.388 2.857-1.543 2.754-1.707 2.631-1.879 2.496-2.051 2.344-2.223 2.178-2.38 2.005-2.532 1.836-2.664 1.668-2.779 1.504-2.879 1.352-2.955 1.205-3.012 1.076-3.056.957-3.082.852-3.096.757-3.104.674-3.097.596-3.088.531-3.072.473-3.055.418-3.035.371-3.012.328-2.99.291-2.967.256-2.945.225-2.922.195-2.905.172-2.886.146-2.869.125-2.854.102-2.84.082-2.83.064-2.82.045-2.817.026-2.808.009-2.807"/>
    <path fill="none" stroke="#000" d="M279.131 223.177l-.014-1.52-.039-1.517-.062-1.518-.09-1.519-.117-1.516-.143-1.52-.17-1.517-.199-1.518-.227-1.515-.258-1.514-.285-1.514-.32-1.508-.35-1.507-.384-1.504-.422-1.496-.453-1.493-.493-1.482-.531-1.475-.57-1.462-.613-1.45-.655-1.435-.697-1.418-.74-1.397-.787-1.377-.832-1.351-.877-1.324-.924-1.295-.969-1.262-1.012-1.227-1.058-1.191-1.1-1.152-1.142-1.11-1.18-1.068-1.221-1.026-1.252-.978-1.287-.936-1.318-.888-1.344-.844-1.371-.797-1.391-.754-1.414-.707-1.431-.664-1.448-.623-1.461-.582-1.468-.541-1.483-.502-1.488-.463-1.498-.429-1.498-.393-1.51-.361-1.508-.325-1.511-.295-1.514-.265-1.516-.235-1.515-.205-1.518-.177-1.517-.151-1.518-.121-1.52-.097-1.519-.071-1.518-.045-1.517-.019-1.518.006-1.517.033-1.52.056-1.518.084-1.517.11-1.52.137-1.515.164-1.518.191-1.517.221-1.514.248-1.514.279-1.51.311-1.507.341-1.504.377-1.5.41-1.492.448-1.487.482-1.474.522-1.467.56-1.453.602-1.44.642-1.422.688-1.404.73-1.381.776-1.357.82-1.332.867-1.303.91-1.269.959-1.237 1.002-1.199 1.045-1.162 1.09-1.121 1.131-1.08 1.172-1.035 1.211-.993 1.244-.943 1.277-.902 1.311-.854 1.338-.808 1.365-.764 1.387-.721 1.408-.676 1.428-.632 1.443-.59 1.455-.551 1.469-.514 1.478-.472 1.489-.438 1.494-.402 1.502-.367 1.504-.334 1.507-.303 1.512-.272 1.514-.242 1.515-.213 1.516-.183 1.518-.158 1.517-.129 1.518-.104 1.517-.078 1.518-.051 1.519-.025 1.518v1.52l.025 1.517.051 1.52.078 1.515.104 1.52.129 1.517.158 1.518.183 1.518.213 1.515.242 1.516.272 1.513.303 1.512.334 1.508.367 1.504.402 1.502.438 1.494.472 1.488.514 1.479.551 1.467.59 1.457.632 1.443.676 1.426.721 1.408.764 1.387.808 1.365.854 1.338.902 1.312.943 1.276.993 1.246 1.035 1.211 1.08 1.172 1.121 1.13 1.162 1.088 1.199 1.047 1.237 1.004 1.269.957 1.303.91 1.332.867 1.357.821 1.381.773 1.404.731 1.422.689 1.44.641 1.453.603 1.467.559 1.474.523 1.487.483 1.492.447 1.5.41 1.504.377 1.507.34 1.51.311 1.514.281 1.514.248 1.517.221 1.518.189 1.515.164 1.52.137 1.517.109 1.518.084 1.52.059 1.517.031 1.518.008 1.517-.02 1.518-.045 1.519-.07 1.52-.098 1.518-.121 1.517-.152 1.518-.176 1.515-.207 1.516-.234 1.514-.264 1.511-.295 1.508-.324 1.51-.363 1.498-.393 1.498-.428 1.488-.463 1.483-.502 1.468-.541 1.461-.58 1.448-.623 1.431-.666 1.414-.709 1.391-.752 1.371-.796 1.344-.844 1.318-.889 1.287-.935 1.252-.979 1.221-1.025 1.18-1.069 1.142-1.111 1.1-1.15 1.058-1.192 1.012-1.228.969-1.262.924-1.293.877-1.324.832-1.352.787-1.377.74-1.396.697-1.418.655-1.438.613-1.449.57-1.463.531-1.474.493-1.481.453-1.492.422-1.496.384-1.504.35-1.508.32-1.512.285-1.509.258-1.518.227-1.512.199-1.519.17-1.516.143-1.519.117-1.518.09-1.52.062-1.515.039-1.518.014-1.519"/>
    <path fill="none" stroke="#000" d="M330.217 223.177l-.01-2.809-.027-2.808-.043-2.817-.065-2.818-.082-2.83-.103-2.842-.125-2.854-.145-2.869-.172-2.884-.195-2.905-.227-2.924-.257-2.945-.289-2.965-.329-2.992-.371-3.012-.42-3.033-.468-3.055-.532-3.074-.595-3.088-.674-3.097-.758-3.102-.851-3.098-.958-3.082-1.076-3.054-1.209-3.014-1.347-2.955-1.504-2.877-1.668-2.779-1.836-2.666-2.006-2.53-2.178-2.382-2.343-2.221-2.497-2.051-2.634-1.879-2.75-1.709-2.858-1.543-2.935-1.386-3-1.243-3.047-1.107-3.074-.986-3.098-.879-3.1-.778-3.099-.695-3.092-.613-3.076-.547-3.063-.486-3.039-.43-3.017-.383-2.995-.338-2.972-.301-2.951-.263-2.93-.235-2.904-.201-2.891-.178-2.875-.152-2.859-.131-2.84-.107-2.832-.088-2.824-.066-2.817-.051-2.812-.032-2.809-.013-2.805.006-2.808.021-2.813.041-2.82.059-2.828.078-2.838.098-2.85.117-2.863.14-2.883.164-2.898.192-2.92.217-2.94.248-2.96.283-2.985.318-3.006.36-3.029.406-3.051.457-3.068.516-3.084.58-3.096.652-3.101.734-3.1.826-3.088.932-3.062 1.045-3.026 1.174-2.971 1.312-2.898 1.465-2.807 1.625-2.695 1.793-2.566 1.965-2.42 2.137-2.262 2.302-2.094 2.458-1.922 2.601-1.75 2.723-1.584 2.832-1.425 2.918-1.278 2.986-1.138 3.035-1.016 3.072-.904 3.09-.803 3.102-.715 3.099-.633 3.094-.562 3.082-.5 3.065-.444 3.045-.394 3.023-.35 3-.308 2.979-.274 2.957-.24 2.933-.211 2.914-.183 2.895-.159 2.877-.134 2.859-.114 2.846-.092 2.838-.074 2.824-.052 2.818-.038 2.813-.017 2.806v2.809l.017 2.807.038 2.812.052 2.819.074 2.824.092 2.834.114 2.847.134 2.862.159 2.877.183 2.894.211 2.914.24 2.934.274 2.955.308 2.978.35 3 .394 3.026.444 3.045.5 3.064.562 3.08.633 3.094.715 3.102.803 3.099.904 3.094 1.016 3.068 1.138 3.037 1.278 2.987 1.425 2.918 1.584 2.832 1.75 2.722 1.922 2.602 2.094 2.457 2.262 2.303 2.42 2.136 2.566 1.965 2.695 1.793 2.807 1.625 2.898 1.463 2.971 1.313 3.026 1.175 3.062 1.045 3.088.93 3.1.828 3.101.735 3.096.652 3.084.58 3.068.516 3.051.457 3.029.404 3.006.361 2.985.319 2.96.283 2.94.248 2.92.217 2.898.191 2.883.164 2.863.141 2.85.117 2.838.098 2.828.078 2.82.058 2.813.039 2.808.024 2.805.004 2.809-.012 2.812-.031 2.817-.051 2.824-.066 2.832-.09 2.84-.106 2.859-.131 2.875-.15 2.891-.18 2.904-.201 2.93-.234 2.951-.264 2.972-.301 2.995-.339 3.017-.381 3.039-.432 3.063-.486 3.076-.545 3.092-.614 3.099-.695 3.1-.777 3.098-.879 3.074-.986 3.047-1.11 3-1.24 2.935-1.387 2.858-1.545 2.75-1.707 2.634-1.879 2.497-2.05 2.343-2.221 2.178-2.383 2.006-2.531 1.836-2.664 1.668-2.78 1.504-2.878 1.347-2.955 1.209-3.012 1.076-3.055.958-3.082.851-3.098.758-3.101.674-3.098.595-3.09.532-3.07.468-3.057.42-3.035.371-3.01.329-2.992.289-2.965.257-2.947.227-2.922.195-2.906.172-2.883.145-2.869.125-2.853.103-2.842.082-2.83.065-2.819.043-2.816.027-2.809.01-2.808"/>
    <path fill="none" stroke="#000" d="M359.025 223.177l-.005-3.535-.014-3.538-.027-3.548-.034-3.557-.047-3.572-.058-3.59-.074-3.613-.082-3.643-.1-3.668-.117-3.705-.135-3.74-.156-3.783-.18-3.825-.209-3.873-.238-3.924-.276-3.972-.32-4.028-.369-4.078-.432-4.132-.5-4.18-.59-4.221-.691-4.256-.812-4.273-.959-4.276-1.135-4.25-1.344-4.189-1.582-4.094-1.857-3.947-2.162-3.752-2.489-3.51-2.82-3.218-3.143-2.903-3.439-2.57-3.695-2.242-3.905-1.932-4.06-1.648-4.17-1.401-4.238-1.183-4.272-1.002-4.275-.846-4.264-.719-4.23-.611-4.19-.524-4.146-.447-4.09-.385-4.041-.33-3.987-.287-3.937-.248-3.883-.215-3.838-.185-3.791-.162-3.754-.141-3.713-.121-3.677-.104-3.647-.087-3.619-.077-3.598-.06-3.576-.049-3.562-.039-3.547-.027-3.541-.018-3.535-.008-3.534.004-3.537.012-3.545.021-3.554.035-3.569.043-3.586.055-3.607.068-3.633.081-3.662.097-3.695.112-3.731.13-3.773.151-3.815.174-3.861.199-3.908.23-3.961.268-4.014.307-4.066.357-4.119.414-4.168.484-4.211.565-4.248.662-4.272.779-4.275.922-4.26 1.09-4.209 1.285-4.121 1.52-3.988 1.789-3.807 2.082-3.574 2.406-3.295 2.736-2.984 3.065-2.653 3.367-2.324 3.637-2.006 3.855-1.717 4.028-1.459 4.146-1.234 4.225-1.045 4.267-.883 4.276-.748 4.267-.636 4.24-.543 4.202-.465 4.154-.399 4.107-.343 4.053-.297 4.002-.256 3.947-.225 3.897-.193 3.849-.168 3.803-.145 3.762-.125 3.72-.109 3.688-.09 3.654-.078 3.627-.066 3.602-.051 3.582-.043 3.562-.029 3.553-.02 3.543-.01 3.535v3.535l.01 3.535.02 3.543.029 3.553.043 3.563.051 3.58.066 3.603.078 3.625.09 3.657.109 3.685.125 3.723.145 3.76.168 3.804.193 3.85.225 3.896.256 3.948.297 4.002.343 4.052.399 4.108.465 4.154.543 4.201.636 4.242.748 4.264.883 4.277 1.045 4.266 1.234 4.227 1.459 4.144 1.717 4.029 2.006 3.856 2.324 3.637 2.653 3.367 2.984 3.062 3.295 2.739 3.574 2.404 3.807 2.084 3.988 1.789 4.121 1.517 4.209 1.289 4.26 1.088 4.275.922 4.272.778 4.248.664 4.211.564 4.168.484 4.119.415 4.066.357 4.014.307 3.961.267 3.908.229 3.861.201 3.815.176 3.773.148 3.731.131 3.695.111 3.662.098 3.633.08 3.607.068 3.586.055 3.569.045 3.554.031 3.545.022 3.537.013 3.534.002 3.535-.007 3.541-.016 3.547-.027 3.562-.039 3.576-.049 3.598-.061 3.619-.076 3.647-.088 3.677-.105 3.713-.12 3.754-.142 3.791-.16 3.838-.186 3.883-.215 3.937-.25 3.987-.285 4.041-.332 4.09-.383 4.146-.447 4.19-.523 4.23-.61 4.264-.72 4.275-.846 4.272-1.002 4.238-1.184 4.17-1.4 4.06-1.649 3.905-1.931 3.695-2.242 3.439-2.571 3.143-2.902 2.82-3.221 2.489-3.506 2.162-3.755 1.857-3.948 1.582-4.091 1.344-4.192 1.135-4.248.959-4.275.812-4.274.691-4.254.59-4.222.5-4.18.432-4.133.369-4.078.32-4.027.276-3.973.238-3.924.209-3.873.18-3.824.156-3.783.135-3.742.117-3.704.1-3.669.082-3.641.074-3.613.058-3.59.047-3.573.034-3.556.027-3.549.014-3.537.005-3.535"/>
    <path fill="none" stroke="#000" d="M381.102 223.177l-.004-4.092-.01-4.096-.012-4.107-.019-4.121-.028-4.141-.031-4.166-.041-4.191-.047-4.229-.056-4.267-.069-4.313-.078-4.363-.09-4.416-.107-4.477-.127-4.543-.147-4.613-.174-4.689-.203-4.766-.242-4.85-.289-4.933-.348-5.018-.418-5.099-.513-5.174-.627-5.239-.774-5.279-.96-5.291-1.196-5.258L373 98.28l-1.855-4.994-2.286-4.732-2.773-4.373-3.293-3.926-3.807-3.424-4.267-2.902-4.651-2.405-4.939-1.957-5.133-1.574-5.24-1.265-5.289-1.014-5.285-.817-5.248-.662-5.192-.535-5.119-.441-5.039-.365-4.955-.301-4.869-.254-4.787-.213-4.707-.182-4.633-.152-4.561-.131-4.492-.111-4.432-.096-4.377-.08-4.322-.07-4.277-.059-4.238-.051-4.204-.041-4.171-.035-4.145-.027-4.127-.022-4.107-.013-4.102-.01-4.09-.006-4.093.002-4.094.008-4.104.012-4.117.017-4.135.025-4.158.03-4.185.039-4.219.047-4.258.052-4.301.065-4.349.076-4.403.088-4.461.102-4.525.121-4.596.142-4.668.166-4.748.196-4.828.23-4.914.277-4.996.332-5.08.401-5.156.486-5.223.596-5.27.734-5.293.908-5.271 1.133-5.195 1.412-5.047 1.758-4.805 2.172-4.473 2.648-4.044 3.163-3.553 3.679-3.031 4.16-2.526 4.563-2.06 4.877-1.666 5.092-1.336 5.218-1.073 5.282-.861 5.289-.695 5.261-.567 5.207-.463 5.141-.382 5.059-.315 4.974-.265 4.893-.223 4.808-.188 4.727-.16 4.65-.135 4.577-.117 4.509-.097 4.448-.084 4.386-.075 4.338-.06 4.289-.053 4.246-.045 4.211-.035 4.178-.029 4.152-.022 4.131-.017 4.112-.01 4.101-.006 4.094v4.094l.006 4.093.01 4.102.017 4.111.022 4.131.029 4.151.035 4.179.045 4.211.053 4.246.06 4.289.075 4.336.084 4.389.097 4.447.117 4.51.135 4.576.16 4.651.188 4.726.223 4.809.265 4.892.315 4.975.382 5.058.463 5.141.567 5.207.695 5.262.861 5.287 1.073 5.283 1.336 5.219 1.666 5.092 2.06 4.875 2.526 4.564 3.031 4.158 3.553 3.682 4.044 3.162 4.473 2.649 4.805 2.169 5.047 1.758 5.195 1.414 5.271 1.133 5.293.908 5.27.737 5.223.591 5.156.489 5.08.4 4.996.33 4.914.28 4.828.23 4.748.195 4.668.166 4.596.143 4.525.119 4.461.104 4.403.085 4.349.077 4.301.066 4.258.053 4.219.047 4.185.037 4.158.031 4.135.025 4.117.016 4.104.014 4.094.006 4.093.003 4.09-.005 4.102-.01 4.107-.014 4.127-.021 4.145-.028 4.171-.035 4.204-.041 4.238-.051 4.277-.058 4.322-.069 4.377-.084 4.432-.095 4.492-.112 4.561-.128 4.633-.155 4.707-.178 4.787-.214 4.869-.252 4.955-.303 5.039-.365 5.119-.442 5.192-.535 5.248-.662 5.285-.816 5.289-1.016 5.24-1.264 5.133-1.574 4.939-1.959 4.651-2.402 4.267-2.903 3.807-3.423 3.293-3.926 2.773-4.371 2.286-4.735 1.855-4.996 1.492-5.164 1.196-5.258.96-5.293.774-5.277.627-5.238.513-5.176.418-5.098.348-5.019.289-4.932.242-4.849.203-4.766.174-4.688.147-4.615.127-4.543.107-4.478.09-4.416.078-4.362.069-4.312.056-4.268.047-4.226.041-4.194.031-4.166.028-4.14.019-4.121.012-4.108.01-4.095.004-4.092"/>
    <path fill="none" stroke="#000" d="M399.818 223.177l-.002-4.567-.002-4.57-.007-4.578-.012-4.602-.016-4.617-.017-4.65-.022-4.684-.025-4.724-.033-4.77-.039-4.824-.043-4.881-.055-4.949-.061-5.022-.076-5.099-.088-5.186-.107-5.281-.127-5.381-.156-5.484-.188-5.598-.234-5.711-.291-5.828-.363-5.942-.463-6.046-.598-6.135-.773-6.194-1.012-6.203-1.334-6.134-1.756-5.963-2.293-5.651-2.943-5.181-3.664-4.565-4.393-3.851-5.041-3.119-5.549-2.448-5.898-1.877-6.106-1.429-6.193-1.084-6.201-.827-6.153-.634-6.07-.494-5.971-.389-5.853-.305-5.742-.248-5.625-.199-5.514-.162-5.404-.133-5.305-.111-5.211-.094-5.119-.078-5.041-.067-4.967-.054-4.896-.045-4.838-.041-4.785-.033-4.733-.028-4.693-.023-4.658-.02-4.627-.015-4.602-.01-4.584-.01-4.576-.004-4.565-.004-4.564.002-4.568.004-4.578.006-4.594.01-4.613.013-4.641.018-4.676.02-4.713.025-4.758.031-4.81.037-4.865.043-4.932.051-5.004.061-5.078.07-5.166.086-5.256.101-5.353.122-5.459.148-5.569.18-5.683.22-5.799.276-5.912.343-6.022.436-6.115.561-6.184.722-6.205.946-6.16 1.246-6.019 1.638-5.743 2.149-5.314 2.771-4.731 3.483-4.035 4.214-3.298 4.889-2.606 5.438-2.01 5.826-1.529 6.064-1.162 6.18-.885 6.205-.678 6.168-.525 6.094-.41 5.996-.324 5.885-.262 5.771-.209 5.652-.172 5.541-.139 5.432-.117 5.33-.098 5.233-.082 5.142-.068 5.059-.057 4.984-.048 4.914-.041 4.854-.036 4.795-.029 4.746-.023 4.703-.02 4.666-.017 4.633-.012 4.609-.01 4.59-.006 4.576-.004 4.565v4.566l.004 4.564.006 4.577.01 4.589.012 4.608.017 4.635.02 4.666.023 4.703.029 4.746.036 4.797.041 4.851.048 4.914.057 4.983.068 5.06.082 5.143.098 5.232.117 5.328.139 5.434.172 5.541.209 5.652.262 5.772.324 5.883.41 5.996.525 6.094.678 6.169.885 6.206 1.162 6.179 1.529 6.065 2.01 5.826 2.606 5.437 3.298 4.889 4.035 4.215 4.731 3.48 5.314 2.774 5.743 2.148 6.019 1.639 6.16 1.246 6.205.943 6.184.725 6.115.56 6.022.434 5.912.348 5.799.273 5.683.221 5.569.18 5.459.148 5.353.121 5.256.102 5.166.086 5.078.07 5.004.06 4.932.051 4.865.041 4.81.037 4.758.034 4.713.023 4.676.021 4.641.018 4.613.012 4.594.01 4.578.007 4.568.006h4.564l4.565-.004 4.576-.004 4.584-.009 4.602-.01 4.627-.018 4.658-.017 4.693-.024 4.733-.027 4.785-.035 4.838-.039 4.896-.045 4.967-.057 5.041-.066 5.119-.078 5.211-.092 5.305-.111 5.404-.133 5.514-.164 5.625-.198 5.742-.248 5.853-.306 5.971-.385 6.07-.496 6.153-.635 6.201-.826 6.193-1.086 6.106-1.428 5.898-1.877 5.549-2.447 5.041-3.119 4.393-3.852 3.664-4.564 2.943-5.182 2.293-5.652 1.756-5.961 1.334-6.135 1.012-6.205.773-6.191.598-6.135.463-6.047.363-5.943.291-5.827.234-5.71.188-5.598.156-5.486.127-5.379.107-5.282.088-5.183.076-5.104.061-5.019.055-4.949.043-4.883.039-4.823.033-4.769.025-4.725.022-4.685.017-4.649.016-4.621.012-4.597.007-4.582.002-4.567.002-4.566"/>
    <path fill="none" stroke="#000" d="M416.477 223.177l-.002-4.985-.002-4.992-.004-5.004-.008-5.021-.006-5.049-.01-5.078-.011-5.119-.016-5.162-.018-5.215-.021-5.276-.024-5.341-.033-5.416-.037-5.498-.043-5.588-.054-5.69-.063-5.795-.078-5.912-.098-6.037-.121-6.17-.154-6.31-.197-6.457-.258-6.602-.334-6.748-.449-6.881-.606-6.986-.832-7.043-1.152-7.018-1.61-6.865-2.228-6.525-3.031-5.957-3.969-5.159-4.932-4.213-5.775-3.255-6.406-2.413-6.801-1.748-6.994-1.253-7.045-.903-7.008-.652-6.91-.485-6.782-.359-6.64-.273-6.492-.209-6.344-.166-6.207-.127-6.07-.104-5.942-.084-5.824-.068-5.715-.055-5.611-.047-5.522-.037-5.435-.031-5.36-.027-5.291-.022-5.228-.019-5.176-.016-5.131-.014-5.086-.01-5.054-.007-5.03-.006-5.008-.006-4.992-.002-4.986-.002h-4.984l-4.989.004-5 .004-5.017.004-5.041.008-5.073.009-5.107.01-5.15.016-5.202.017-5.259.02-5.323.023-5.398.03-5.477.035-5.564.043-5.664.049-5.768.062-5.883.074-6.003.094-6.137.113-6.276.147-6.417.185-6.567.239-6.713.312-6.847.416-6.963.563-7.035.767-7.036 1.063-6.92 1.478-6.628 2.057-6.124 2.816-5.375 3.727-4.457 4.695-3.488 5.584-2.607 6.27-1.897 6.722-1.363 6.961-.977 7.045-.709 7.024-.521 6.935-.387 6.817-.293 6.677-.222 6.53-.174 6.38-.137 6.241-.109 6.103-.088 5.973-.071 5.853-.058 5.741-.049 5.638-.041 5.541-.033 5.457-.028 5.377-.023 5.309-.019 5.242-.016 5.189-.014 5.139-.011 5.098-.008 5.064-.006 5.033-.006 5.012-.004 4.996v14.959l.004 4.998.006 5.012.006 5.033.008 5.065.011 5.097.014 5.139.016 5.188.019 5.244.023 5.308.028 5.375.033 5.457.041 5.545.049 5.637.058 5.74.071 5.854.088 5.972.109 6.104.137 6.24.174 6.381.222 6.531.293 6.676.387 6.816.521 6.936.709 7.023.977 7.043 1.363 6.961 1.897 6.725 2.607 6.269 3.488 5.582 4.457 4.698 5.375 3.726 6.124 2.815 6.628 2.058 6.92 1.479 7.036 1.062 7.035.768 6.963.56 6.847.418 6.713.313 6.567.238 6.417.186 6.276.144 6.137.116 6.003.091 5.883.076 5.768.061 5.664.051 5.564.043 5.477.033 5.398.029 5.323.026 5.259.019 5.202.018 5.15.013 5.107.012 5.073.01 5.041.008 5.017.004 5 .004 4.989.002h9.97l4.992-.002 5.008-.006 5.03-.006 5.054-.008 5.086-.01 5.131-.015 5.176-.014 5.228-.02 5.291-.023 5.36-.025 5.435-.034 5.522-.035 5.611-.047 5.715-.056 5.824-.069 5.942-.082 6.07-.103 6.207-.129 6.344-.164 6.492-.209 6.64-.274 6.782-.359 6.91-.484 7.008-.653 7.045-.904 6.994-1.252 6.801-1.746 6.406-2.414 5.775-3.258 4.932-4.211 3.969-5.158 3.031-5.957 2.228-6.525 1.61-6.868 1.152-7.015.832-7.043.606-6.988.449-6.879.334-6.748.258-6.602.197-6.459.154-6.309.121-6.171.098-6.036.078-5.912.063-5.795.054-5.689.043-5.588.037-5.498.033-5.418.024-5.342.021-5.273.018-5.215.016-5.164.011-5.117.01-5.08.006-5.047.008-5.022.004-5.004.002-4.992.002-4.984"/>
    <path fill="none" stroke="#000" d="M431.695 223.177v-10.744l-.002-5.391-.002-5.41-.003-5.438-.006-5.472-.008-5.512-.006-5.564-.012-5.622-.011-5.683-.014-5.758-.018-5.84-.021-5.931-.026-6.03-.031-6.14-.039-6.26-.049-6.391-.06-6.529-.078-6.684-.102-6.841-.131-7.014-.178-7.188-.24-7.369-.33-7.539-.465-7.691-.672-7.799-.976-7.826-1.442-7.705-2.121-7.362-3.06-6.705-4.219-5.724-5.435-4.526-6.489-3.334-7.23-2.33-7.643-1.59-7.812-1.076-7.815-.734-7.726-.51-7.58-.361-7.413-.258-7.234-.192-7.055-.142-6.884-.108-6.721-.082-6.568-.064-6.424-.053-6.291-.039-6.17-.035-6.057-.025-5.955-.024-5.861-.017-5.776-.016-5.703-.012-5.635-.009-5.58-.008-5.523-.008-5.481-.006-5.445-.004-5.418-.004-5.392-.002-5.381-.002h-16.112l-5.384.002-5.405.004-5.431.004-5.463.004-5.502.008-5.549.008-5.605.009-5.668.01-5.739.014-5.82.017-5.906.02-6.006.023-6.111.03-6.229.037-6.357.047-6.494.056-6.643.075-6.801.093-6.971.125-7.144.162-7.322.223-7.498.305-7.657.426-7.779.613-7.83.888-7.754 1.305-7.473 1.928-6.9 2.803-5.996 3.914-4.834 5.138-3.619 6.254-2.557 7.074-1.752 7.567-1.185 7.789-.809 7.826-.559 7.754-.39 7.619-.281 7.455-.205 7.278-.153 7.101-.115 6.926-.09 6.762-.066 6.605-.057 6.459-.041 6.322-.037 6.202-.027 6.082-.024 5.98-.019 5.883-.016 5.799-.012 5.72-.011 5.653-.008 5.588-.008 5.539-.006 5.492-.006 5.453-.002 5.422-.004 5.4-.002 5.381v16.113l.002 5.381.004 5.399.002 5.424.006 5.451.006 5.494.008 5.537.008 5.59.011 5.652.012 5.721.016 5.799.019 5.882.024 5.981.027 6.082.037 6.199.041 6.324.057 6.459.066 6.604.09 6.764.115 6.925.153 7.1.205 7.277.281 7.457.39 7.619.559 7.752.809 7.829 1.185 7.787 1.752 7.568 2.557 7.074 3.619 6.254 4.834 5.139 5.996 3.914 6.9 2.803 7.473 1.925 7.754 1.309 7.83.887 7.779.613 7.657.426 7.498.304 7.322.221 7.144.166 6.971.121 6.801.096 6.643.074 6.494.057 6.357.045 6.229.037 6.111.029 6.006.026 5.906.021 5.82.014 5.739.015 5.668.012 5.605.008 5.549.01 5.502.004 5.463.005 5.431.004 5.405.004 5.384.002h16.112l5.381-.002 5.392-.004 5.418-.002 5.445-.005 5.481-.004 5.523-.008 5.58-.008 5.635-.012 5.703-.011 5.776-.016 5.861-.016 5.955-.023 6.057-.026 6.17-.035 6.291-.041 6.424-.05 6.568-.065 6.721-.082 6.884-.107 7.055-.145 7.234-.187 7.413-.262 7.58-.36 7.726-.509 7.815-.735 7.812-1.076 7.643-1.59 7.23-2.332 6.489-3.332 5.435-4.527 4.219-5.723 3.06-6.707 2.121-7.357 1.442-7.707.976-7.826.672-7.799.465-7.694.33-7.539.24-7.365.178-7.189.131-7.012.102-6.844.078-6.683.06-6.53.049-6.388.039-6.264.031-6.139.026-6.031.021-5.93.018-5.839.014-5.758.011-5.686.012-5.619.006-5.562.008-5.516.006-5.471.003-5.437.002-5.41.002-5.391v-10.744"/>
    <path fill="none" stroke="#000" stroke-dasharray="2,2" d="M434.32 119.073l-.009-2.808-.026-2.811-.045-2.814-.064-2.821-.082-2.83-.102-2.84-.125-2.855-.146-2.867-.172-2.887-.195-2.902-.225-2.926-.256-2.943-.291-2.967-.328-2.99-.371-3.012-.418-3.035-.473-3.055-.531-3.072-.596-3.088-.674-3.1-.757-3.101-.852-3.096-.957-3.084-1.076-3.055-1.205-3.011-1.352-2.956-1.504-2.876-1.668-2.782-1.836-2.664-2.005-2.531-2.178-2.383-2.344-2.221-2.496-2.05-2.631-1.877-2.754-1.709-2.857-1.545-2.934-1.387-3-1.24-3.047-1.11-3.076-.986-3.096-.877-3.101-.779-3.1-.693-3.092-.616-3.076-.547-3.058-.484-3.039-.43-3.022-.382-2.992-.34-2.973-.299-2.949-.266-2.93-.232-2.91-.203-2.888-.178-2.874-.15-2.857-.131-2.844-.108-2.832-.088-2.826-.068-2.814-.049-2.811-.031-2.807-.014-2.806.006-2.811.022-2.812.039-2.821.058-2.826.078-2.838.098-2.851.117-2.863.141-2.881.166-2.901.189-2.918.219-2.939.248-2.961.281-2.984.319-3.008.361-3.03.404-3.048.459-3.071.514-3.082.58-3.097.652-3.102.735-3.098.828-3.089.93-3.061 1.047-3.027 1.173-2.969 1.313-2.9 1.465-2.805 1.623-2.695 1.795-2.567 1.965-2.422 2.136-2.261 2.301-2.094 2.457-1.922 2.602-1.75 2.724-1.582 2.832-1.426 2.918-1.279 2.987-1.139 3.035-1.015 3.07-.903 3.092-.805 3.101-.714 3.1-.633 3.094-.563 3.08-.5 3.066-.443 3.045-.393 3.024-.351 3-.309 2.978-.273 2.955-.24 2.934-.209 2.914-.186 2.894-.158 2.877-.135 2.862-.111 2.847-.094 2.834-.072 2.824-.055 2.819-.035 2.812-.018 2.809v2.807l.018 2.808.035 2.813.055 2.818.072 2.824.094 2.834.111 2.848.135 2.861.158 2.877.186 2.893.209 2.914.24 2.935.273 2.955.309 2.979.351 3 .393 3.023.443 3.045.5 3.067.563 3.08.633 3.094.714 3.101.805 3.1.903 3.092 1.015 3.07 1.139 3.035 1.279 2.986 1.426 2.918 1.582 2.83 1.75 2.727 1.922 2.6 2.094 2.459 2.261 2.302 2.422 2.137 2.567 1.965 2.695 1.793 2.805 1.625 2.9 1.463 2.969 1.312 3.027 1.174 3.061 1.047 3.089.93 3.098.828 3.102.734 3.097.652 3.082.58 3.071.516 3.048.455 3.03.406 3.008.362 2.984.318 2.961.281 2.939.248 2.918.219 2.901.19 2.881.164 2.863.14 2.851.119 2.838.098 2.826.078 2.821.059 2.812.039 2.811.021 2.806.006 2.807-.013 2.811-.032 2.814-.049 2.826-.068 2.832-.088 2.844-.107 2.857-.129 2.874-.154 2.888-.176 2.91-.201 2.93-.235 2.949-.265 2.973-.299 2.992-.34 3.022-.381 3.039-.432 3.058-.486 3.076-.545 3.092-.615 3.1-.693 3.101-.78 3.096-.879 3.076-.984 3.047-1.109 3-1.241 2.934-1.388 2.857-1.543 2.754-1.707 2.631-1.879 2.496-2.051 2.344-2.223 2.178-2.38 2.005-2.532 1.836-2.664 1.668-2.779 1.504-2.879 1.352-2.955 1.205-3.012 1.076-3.056.957-3.082.852-3.096.757-3.104.674-3.097.596-3.088.531-3.072.473-3.055.418-3.035.371-3.012.328-2.99.291-2.967.256-2.945.225-2.922.195-2.905.172-2.886.146-2.869.125-2.854.102-2.84.082-2.83.064-2.82.045-2.817.026-2.808.009-2.807"/>
</svg>
