<svg xmlns="http://www.w3.org/2000/svg" width="396" height="378.001">
    <g fill="none" stroke="#0060B6" stroke-width="2">
        <path d="M105.394 264.214L162 90M37.934 108.139L162 18m70.355 288.535L84.161 198.865M63.074 322.463L15.685 176.616m296.153 22.249l-148.195 107.67m111.033 58.248H121.324M234 90.001l56.605 174.214m89.709-87.599l-47.388 145.847M106.411 130.389H289.59M234 18l124.064 90.139M162 18h72v72h-72zM15.69 176.612l22.248-68.48 68.478 22.247-22.248 68.48zM121.323 364.784l-58.249-42.322 42.32-58.246 58.25 42.322zm211.599-42.304l-58.25 42.324-42.32-58.248 58.25-42.322zM358.063 108.152l22.248 68.48-68.478 22.249-22.248-68.482z"/>
    </g>
    <g fill="red" stroke="#000">
        <circle cx="162" cy="18" r="9"/>
        <circle cx="162" cy="90" r="9"/>
        <circle cx="234" cy="18" r="9"/>
        <circle cx="234" cy="90" r="9"/>
        <circle cx="15.685" cy="176.616" r="9"/>
        <circle cx="84.161" cy="198.865" r="9"/>
        <circle cx="37.934" cy="108.139" r="9"/>
        <circle cx="106.411" cy="130.388" r="9"/>
        <circle cx="121.323" cy="364.784" r="9"/>
        <circle cx="163.644" cy="306.535" r="9"/>
        <circle cx="63.074" cy="322.464" r="9"/>
        <circle cx="105.394" cy="264.214" r="9"/>
        <circle cx="332.926" cy="322.463" r="9"/>
        <circle cx="290.605" cy="264.214" r="9"/>
        <circle cx="274.677" cy="364.784" r="8.999"/>
        <circle cx="232.355" cy="306.534" r="9"/>
        <circle cx="358.065" cy="108.139" r="9"/>
        <circle cx="289.59" cy="130.388" r="9"/>
        <circle cx="380.314" cy="176.615" r="8.999"/>
        <circle cx="311.838" cy="198.865" r="9"/>
    </g>
</svg>
