<svg xmlns="http://www.w3.org/2000/svg" width="410pt" height="504" viewBox="0 0 410 378"><path d="M111 360l31-18m-31 18l-31-18m31 18v36m-31-90l31-18m-31 18l-31-18m31 18v36m0 0l-31 18m0-108l31-18m-31 18l-31-18m31 18v36m0 0l-31 18m0-108l31-18m-31 18l-31-18m31 18v36m0 0l-31 18m186 108l32-18m-32 18l-31-18m31 18v36m-31-90l31-18m-31 18l-31-18m31 18v36m-31-90l31-18m-31 18l-31-18m31 18v36m-31-90l31-18m-31 18l-31-18m31 18v36m-31-90l31-18m-31 18l-31-18m31 18v36m187 180l31-18m-31 18l-31-18m31 18v36m-31-90l31-18m-31 18l-32-18m32 18v36m-32-90l32-18m-32 18l-31-18m31 18v36m-31-90l31-18m-31 18l-31-18m31 18v36m-31-90l31-18m-31 18l-31-18m31 18v36M80 90l31-18M80 90L49 72m31 18v36m218 234l31-18m-31 18l-31-18m31 18v36m-31-90l31-18m-31 18l-31-18m31 18v36m-31-90l31-18m-31 18l-31-18m31 18v36m-31-90l31-18m-31 18l-32-18m32 18v36m-32-90l32-18m-32 18l-31-18m31 18v36m-31-90l31-18m-31 18l-31-18m31 18v36m-31-90l31-18m-31 18L80 18m31 18v36m218 234l31-18m-31 18l-31-18m31 18v36m0 0l31 18m-62-108l31-18m-31 18l-31-18m31 18v36m-31-90l31-18m-31 18l-31-18m31 18v36m-31-90l31-18m-31 18l-31-18m31 18v36m-31-90l31-18m-31 18l-32-18m32 18v36m-32-90l32-18m-32 18l-31-18m31 18v36m-31-54v-36m218 270l32-18m-32 18l-31-18m31 18v36m0 0l32 18m-63-108l31-18m-31 18l-31-18m31 18v36m-31-90l31-18m-31 18l-31-18m31 18v36m-31-90l31-18m-31 18l-31-18m31 18v36m-31-90l31-18m-31 18l-31-18m31 18v36m-31-54v-36m187 216l31-18m-31 18l-32-18m32 18v36m0 0l31 18m-63-108l32-18m-32 18l-31-18m31 18v36m-31-90l31-18m-31 18l-31-18m31 18v36m-31-90l31-18m-31 18l-31-18m31 18v36m-31-54v-36" fill="none" stroke="#00f"/><path d="M96 353h30v13H96zm-31-54h30v13H65zm0 36h30v13H65zm-32-90h30v13H33zm0 36h30v13H33zM2 191h30v13H2zm0 36h30v13H2zm154 126h34v13h-34zm-29-54h30v13h-30zm0 36h30v13h-30zm-31-90h30v13H96zm0 36h30v13H96zm-31-90h30v13H65zm0 36h30v13H65zm-33-90h34v13H32zm1 36h30v13H33zm186 180h34v13h-34zm-32-54h34v13h-34zm0 36h34v13h-34zm-29-90h30v13h-30zm0 36h30v13h-30zm-31-90h30v13h-30zm0 36h30v13h-30zm-33-90h34v13H94zm2 36h30v13H96zM63 83h34v13H63zm0 36h34v13H63zm220 234h30v13h-30zm-31-54h30v13h-30zm0 36h30v13h-30zm-31-90h30v13h-30zm0 36h30v13h-30zm-30-90h26v13h-26zm0 36h26v13h-26zm-33-90h30v13h-30zm2 36h26v13h-26zm-33-90h30v13h-30zm0 36h30v13h-30zM96 29h30v13H96zm0 36h30v13H96zm218 234h30v13h-30zm0 36h30v13h-30zm-31-90h30v13h-30zm0 36h30v13h-30zm-31-90h30v13h-30zm0 36h30v13h-30zm-31-90h30v13h-30zm1 36h26v13h-26zm-33-90h30v13h-30zm0 36h30v13h-30zm-31-90h30v13h-30zm0 36h30v13h-30zm-31-54h30v13h-30zm218 234h30v13h-30zm0 36h30v13h-30zm-31-90h30v13h-30zm0 36h30v13h-30zm-33-90h34v13h-34zm2 36h30v13h-30zm-31-90h30v13h-30zm0 36h30v13h-30zm-31-90h30v13h-30zm0 36h30v13h-30zm-32-54h30v13h-30zm187 180h30v13h-30zm0 36h30v13h-30zm-33-90h34v13h-34zm2 36h30v13h-30zm-33-90h34v13h-34zm0 36h34v13h-34zm-29-90h30v13h-30zm0 36h30v13h-30zm-31-54h30v13h-30z" fill="#fff" stroke="#000"/><g font-family="Times" font-size="9pt" text-anchor="middle"><text x="111" y="360" dy=".5ex">-3,0,3</text><text x="80" y="306" dy=".5ex">-3,1,2</text><text x="80" y="342" dy=".5ex">-3,1,3</text><text x="49" y="252" dy=".5ex">-3,2,1</text><text x="49" y="288" dy=".5ex">-3,2,2</text><text x="18" y="198" dy=".5ex">-3,3,0</text><text x="18" y="234" dy=".5ex">-3,3,1</text><text x="173" y="360" dy=".5ex">-2,-1,3</text><text x="142" y="306" dy=".5ex">-2,0,2</text><text x="142" y="342" dy=".5ex">-2,0,3</text><text x="111" y="252" dy=".5ex">-2,1,1</text><text x="111" y="288" dy=".5ex">-2,1,2</text><text x="80" y="198" dy=".5ex">-2,2,0</text><text x="80" y="234" dy=".5ex">-2,2,1</text><text x="49" y="144" dy=".5ex">-2,3,-1</text><text x="49" y="180" dy=".5ex">-2,3,0</text><text x="236" y="360" dy=".5ex">-1,-2,3</text><text x="205" y="306" dy=".5ex">-1,-1,2</text><text x="205" y="342" dy=".5ex">-1,-1,3</text><text x="173" y="252" dy=".5ex">-1,0,1</text><text x="173" y="288" dy=".5ex">-1,0,2</text><text x="142" y="198" dy=".5ex">-1,1,0</text><text x="142" y="234" dy=".5ex">-1,1,1</text><text x="111" y="144" dy=".5ex">-1,2,-1</text><text x="111" y="180" dy=".5ex">-1,2,0</text><text x="80" y="90" dy=".5ex">-1,3,-2</text><text x="80" y="126" dy=".5ex">-1,3,-1</text><text x="298" y="360" dy=".5ex">0,-3,3</text><text x="267" y="306" dy=".5ex">0,-2,2</text><text x="267" y="342" dy=".5ex">0,-2,3</text><text x="236" y="252" dy=".5ex">0,-1,1</text><text x="236" y="288" dy=".5ex">0,-1,2</text><text x="205" y="198" dy=".5ex">0,0,0</text><text x="205" y="234" dy=".5ex">0,0,1</text><text x="173" y="144" dy=".5ex">0,1,-1</text><text x="173" y="180" dy=".5ex">0,1,0</text><text x="142" y="90" dy=".5ex">0,2,-2</text><text x="142" y="126" dy=".5ex">0,2,-1</text><text x="111" y="36" dy=".5ex">0,3,-3</text><text x="111" y="72" dy=".5ex">0,3,-2</text><text x="329" y="306" dy=".5ex">1,-3,2</text><text x="329" y="342" dy=".5ex">1,-3,3</text><text x="298" y="252" dy=".5ex">1,-2,1</text><text x="298" y="288" dy=".5ex">1,-2,2</text><text x="267" y="198" dy=".5ex">1,-1,0</text><text x="267" y="234" dy=".5ex">1,-1,1</text><text x="236" y="144" dy=".5ex">1,0,-1</text><text x="236" y="180" dy=".5ex">1,0,0</text><text x="205" y="90" dy=".5ex">1,1,-2</text><text x="205" y="126" dy=".5ex">1,1,-1</text><text x="173" y="36" dy=".5ex">1,2,-3</text><text x="173" y="72" dy=".5ex">1,2,-2</text><text x="142" y="18" dy=".5ex">1,3,-3</text><text x="360" y="252" dy=".5ex">2,-3,1</text><text x="360" y="288" dy=".5ex">2,-3,2</text><text x="329" y="198" dy=".5ex">2,-2,0</text><text x="329" y="234" dy=".5ex">2,-2,1</text><text x="298" y="144" dy=".5ex">2,-1,-1</text><text x="298" y="180" dy=".5ex">2,-1,0</text><text x="267" y="90" dy=".5ex">2,0,-2</text><text x="267" y="126" dy=".5ex">2,0,-1</text><text x="236" y="36" dy=".5ex">2,1,-3</text><text x="236" y="72" dy=".5ex">2,1,-2</text><text x="205" y="18" dy=".5ex">2,2,-3</text><text x="392" y="198" dy=".5ex">3,-3,0</text><text x="392" y="234" dy=".5ex">3,-3,1</text><text x="360" y="144" dy=".5ex">3,-2,-1</text><text x="360" y="180" dy=".5ex">3,-2,0</text><text x="329" y="90" dy=".5ex">3,-1,-2</text><text x="329" y="126" dy=".5ex">3,-1,-1</text><text x="298" y="36" dy=".5ex">3,0,-3</text><text x="298" y="72" dy=".5ex">3,0,-2</text><text x="267" y="18" dy=".5ex">3,1,-3</text></g></svg>