<svg xmlns="http://www.w3.org/2000/svg" xmlns:xlink="http://www.w3.org/1999/xlink" width="453" height="456">
    <defs>
        <path id="a" d="M5.244 6.285h442.44v444H5.244z"/>
    </defs>
    <clipPath id="b">
        <use xlink:href="#a" overflow="visible"/>
    </clipPath>
    <path clip-path="url(#b)" fill="none" stroke="#000" stroke-width="1.5" stroke-linecap="round" d="M336.354 64.493l108.285 54.689m-162.967.001l162.967 54.69m-162.967-54.69l108.283 54.69m-162.973 0l217.656 54.689m-217.656-54.689l162.967 54.689m-162.967-54.689l108.283 54.689m-162.967-.007l272.34 54.689m-272.34-54.689l217.657 54.689m-217.657-54.689l162.967 54.689m-162.967-54.689l108.278 54.689m-162.967 0l327.03 54.69m-327.03-54.69l272.346 54.69m-272.346-54.69l217.657 54.69m-217.657-54.69l162.967 54.69m-162.967-54.69l108.284 54.69m218.746 54.683l-381.72-54.689m327.036 54.689L62.926 337.928m272.34 54.689L62.919 337.928m217.657 54.689L62.919 337.928m162.968 54.689L62.919 337.928m108.285 54.689L62.919 337.928m381.72 109.379L8.236 392.617m381.719 54.69L8.236 392.617m327.03 54.69l-327.03-54.69m272.34 54.69l-272.34-54.69m217.651 54.69L8.229 392.617m162.975 54.69L8.236 392.617m108.278 54.69L8.236 392.617"/>
    <path clip-path="url(#b)" fill="none" stroke="#2FFFFF" stroke-width="1.5" stroke-linecap="round" d="M116.514 447.307L62.919 337.935m108.285 109.372l-53.595-164.062m53.595 109.372l-53.595-109.373m54.689-54.689l53.594 218.752m-53.594-218.752l53.594 164.062m-53.594-164.062l53.594 109.373m1.09-164.055l53.594 273.434m-53.594-273.434l53.594 218.752m-53.594-218.752l53.594 164.062m-53.594-164.062l53.594 109.371m1.096-164.061l53.594 328.124m-53.594-328.124l53.594 273.435m-53.594-273.435l53.594 218.752m-53.594-218.752l53.594 164.062m-53.594-164.062l53.594 109.372m1.088-164.062l53.596 382.813M336.354 64.493l53.596 328.124M336.354 64.493l53.596 273.435M336.354 64.493l53.596 218.751M336.354 64.493l53.596 164.062M336.354 64.493l53.596 109.372m1.095-164.054l53.594 437.496M391.045 9.811l53.594 382.814M391.045 9.811l53.594 328.124M391.045 9.811l53.594 273.434M391.045 9.811l53.594 218.752M391.045 9.811l53.594 164.062M391.045 9.811l53.594 109.372"/>
    <path d="M119.604 447.285a3 3 0 1 0-6 0 3 3 0 1 0 6 0"/>
    <path fill="#FC0D1D" d="M119.003 447.285a2.396 2.396 0 0 0-2.399-2.399 2.397 2.397 0 0 0-2.4 2.399 2.401 2.401 0 0 0 2.4 2.399 2.396 2.396 0 0 0 2.399-2.399"/>
    <path d="M11.244 392.564a3 3 0 1 0-6 0 3 3 0 0 0 6 0"/>
    <path fill="#FC0D1D" d="M10.644 392.564c0-1.327-1.073-2.399-2.4-2.399s-2.4 1.072-2.4 2.399c0 1.328 1.073 2.4 2.4 2.4s2.4-1.071 2.4-2.4"/>
    <path d="M174.144 447.285a3 3 0 1 0-6 0 3 3 0 1 0 6 0"/>
    <path fill="#FC0D1D" d="M173.544 447.285a2.397 2.397 0 0 0-2.4-2.399 2.397 2.397 0 0 0-2.4 2.399 2.401 2.401 0 0 0 4.8 0"/>
    <path d="M228.863 447.285a3 3 0 1 0-6 0 3 3 0 0 0 6 0"/>
    <path fill="#FC0D1D" d="M228.264 447.285c0-1.327-1.072-2.399-2.4-2.399s-2.4 1.072-2.4 2.399a2.401 2.401 0 0 0 4.8 0"/>
    <path d="M283.584 447.285c0-1.658-1.342-3-3-3s-3 1.342-3 3 1.342 3 3 3 3-1.342 3-3"/>
    <path fill="#FC0D1D" d="M282.984 447.285c0-1.327-1.072-2.399-2.4-2.399s-2.4 1.072-2.4 2.399a2.401 2.401 0 0 0 4.8 0"/>
    <path d="M338.305 447.285a3 3 0 1 0-6 0 3 3 0 0 0 6 0"/>
    <path fill="#FC0D1D" d="M337.703 447.285a2.396 2.396 0 0 0-2.398-2.399 2.397 2.397 0 0 0-2.4 2.399 2.401 2.401 0 0 0 2.4 2.399 2.396 2.396 0 0 0 2.398-2.399"/>
    <path d="M392.844 447.285c0-1.658-1.342-3-3-3s-3 1.342-3 3 1.342 3 3 3 3-1.342 3-3"/>
    <path fill="#FC0D1D" d="M392.244 447.285a2.397 2.397 0 0 0-2.4-2.399c-1.32 0-2.4 1.072-2.4 2.399a2.401 2.401 0 0 0 4.8 0"/>
    <path d="M447.564 447.285c0-1.658-1.342-3-3-3s-3 1.342-3 3 1.342 3 3 3 3-1.342 3-3"/>
    <path fill="#FC0D1D" d="M446.965 447.285a2.398 2.398 0 0 0-2.4-2.399 2.397 2.397 0 0 0-2.4 2.399 2.401 2.401 0 0 0 4.8 0"/>
    <path d="M65.963 337.846a3 3 0 1 0-6 0 3 3 0 0 0 6 0"/>
    <path fill="#FC0D1D" d="M65.364 337.846c0-1.328-1.072-2.4-2.4-2.4a2.397 2.397 0 0 0-2.399 2.4 2.4 2.4 0 0 0 4.799 0"/>
    <path d="M174.144 392.564a3 3 0 1 0-6 0 3 3 0 0 0 6 0"/>
    <path fill="#FC0D1D" d="M173.544 392.564a2.397 2.397 0 0 0-2.4-2.399 2.397 2.397 0 0 0-2.4 2.399c0 1.328 1.072 2.4 2.4 2.4a2.396 2.396 0 0 0 2.4-2.4"/>
    <path d="M228.863 392.564a3 3 0 1 0-6 0 3 3 0 0 0 6 0"/>
    <path fill="#FC0D1D" d="M228.264 392.564c0-1.327-1.072-2.399-2.4-2.399s-2.4 1.072-2.4 2.399c0 1.328 1.072 2.4 2.4 2.4s2.4-1.071 2.4-2.4"/>
    <path d="M283.584 392.564a3 3 0 1 0-6 0 3 3 0 0 0 6 0"/>
    <path fill="#FC0D1D" d="M282.984 392.564c0-1.327-1.072-2.399-2.4-2.399s-2.4 1.072-2.4 2.399a2.4 2.4 0 0 0 4.8 0"/>
    <path d="M338.305 392.564a3.001 3.001 0 1 0-6.002.002 3.001 3.001 0 0 0 6.002-.002"/>
    <path fill="#FC0D1D" d="M337.703 392.564a2.396 2.396 0 0 0-2.398-2.399 2.397 2.397 0 0 0-2.4 2.399c0 1.328 1.072 2.4 2.4 2.4a2.395 2.395 0 0 0 2.398-2.4"/>
    <path d="M392.844 392.564a3 3 0 1 0-6 0 3 3 0 0 0 6 0"/>
    <path fill="#FC0D1D" d="M392.244 392.564a2.397 2.397 0 0 0-2.4-2.399c-1.32 0-2.4 1.072-2.4 2.399 0 1.328 1.072 2.4 2.4 2.4s2.4-1.071 2.4-2.4"/>
    <path d="M447.564 392.564a3 3 0 1 0-6 0 3 3 0 0 0 6 0"/>
    <path fill="#FC0D1D" d="M446.965 392.564a2.398 2.398 0 0 0-2.4-2.399 2.397 2.397 0 0 0-2.4 2.399c0 1.328 1.072 2.4 2.4 2.4a2.397 2.397 0 0 0 2.4-2.4"/>
    <path d="M228.863 337.846a3 3 0 1 0-6 0 3 3 0 0 0 6 0"/>
    <path fill="#FC0D1D" d="M228.264 337.846c0-1.328-1.072-2.4-2.4-2.4s-2.4 1.072-2.4 2.4a2.4 2.4 0 0 0 4.8 0"/>
    <path d="M283.584 337.846c0-1.658-1.342-3-3-3s-3 1.342-3 3a3 3 0 1 0 6 0"/>
    <path fill="#FC0D1D" d="M282.984 337.846c0-1.328-1.072-2.4-2.4-2.4s-2.4 1.072-2.4 2.4a2.4 2.4 0 0 0 4.8 0"/>
    <path d="M120.683 283.305a3 3 0 1 0-6 0 3 3 0 0 0 6 0"/>
    <path fill="#FC0D1D" d="M120.083 283.305a2.397 2.397 0 0 0-2.4-2.399 2.397 2.397 0 0 0-2.399 2.399c0 1.328 1.073 2.4 2.399 2.4 1.328 0 2.4-1.072 2.4-2.4"/>
    <path d="M338.305 337.846a3 3 0 1 0-6 0 3 3 0 0 0 6 0"/>
    <path fill="#FC0D1D" d="M337.703 337.846c0-1.328-1.072-2.4-2.398-2.4a2.397 2.397 0 0 0-2.4 2.4 2.4 2.4 0 0 0 2.4 2.398 2.396 2.396 0 0 0 2.398-2.398"/>
    <path d="M392.844 337.846c0-1.658-1.342-3-3-3s-3 1.342-3 3a3 3 0 1 0 6 0"/>
    <path fill="#FC0D1D" d="M392.244 337.846c0-1.328-1.072-2.4-2.4-2.4-1.32 0-2.4 1.072-2.4 2.4a2.4 2.4 0 0 0 4.8 0"/>
    <path d="M447.564 337.846c0-1.658-1.342-3-3-3s-3 1.342-3 3a3 3 0 1 0 6 0"/>
    <path fill="#FC0D1D" d="M446.965 337.846c0-1.328-1.074-2.4-2.4-2.4a2.397 2.397 0 0 0-2.4 2.4 2.4 2.4 0 0 0 4.8 0"/>
    <path d="M175.404 228.586a3 3 0 1 0-6 0 3 3 0 1 0 6 0"/>
    <path fill="#FC0D1D" d="M174.804 228.586c0-1.328-1.072-2.4-2.4-2.4a2.397 2.397 0 0 0-2.4 2.4 2.397 2.397 0 0 0 2.4 2.398c1.328 0 2.4-1.072 2.4-2.398"/>
    <path d="M283.584 283.305a3 3 0 1 0-6 0 3 3 0 0 0 6 0"/>
    <path fill="#FC0D1D" d="M282.984 283.305c0-1.327-1.072-2.399-2.4-2.399s-2.4 1.072-2.4 2.399c0 1.328 1.072 2.4 2.4 2.4 1.32 0 2.4-1.072 2.4-2.4"/>
    <path d="M338.305 283.305a3.001 3.001 0 1 0-6.002.002 3.001 3.001 0 0 0 6.002-.002"/>
    <path fill="#FC0D1D" d="M337.703 283.305a2.396 2.396 0 0 0-2.398-2.399 2.397 2.397 0 0 0-2.4 2.399c0 1.328 1.072 2.4 2.4 2.4a2.396 2.396 0 0 0 2.398-2.4"/>
    <path d="M392.844 283.305a3 3 0 1 0-6 0 3 3 0 0 0 6 0"/>
    <path fill="#FC0D1D" d="M392.244 283.305a2.397 2.397 0 0 0-2.4-2.399c-1.32 0-2.4 1.072-2.4 2.399 0 1.328 1.072 2.4 2.4 2.4s2.4-1.072 2.4-2.4"/>
    <path d="M447.564 283.305a3 3 0 1 0-6 0 3 3 0 0 0 6 0"/>
    <path fill="#FC0D1D" d="M446.965 283.305a2.398 2.398 0 0 0-2.4-2.399 2.397 2.397 0 0 0-2.4 2.399c0 1.328 1.072 2.4 2.4 2.4 1.326 0 2.4-1.072 2.4-2.4"/>
    <path d="M229.943 173.865a3 3 0 1 0-6 0c0 1.658 1.342 3 3 3s3-1.342 3-3"/>
    <path fill="#FC0D1D" d="M229.344 173.865c0-1.328-1.072-2.4-2.4-2.4a2.396 2.396 0 0 0-2.398 2.4 2.396 2.396 0 0 0 2.398 2.399 2.397 2.397 0 0 0 2.4-2.399"/>
    <path d="M338.305 228.586a3 3 0 1 0-6 0 3 3 0 0 0 6 0"/>
    <path fill="#FC0D1D" d="M337.703 228.586c0-1.328-1.072-2.4-2.398-2.4a2.397 2.397 0 0 0-2.4 2.4 2.396 2.396 0 0 0 2.4 2.398 2.396 2.396 0 0 0 2.398-2.398"/>
    <path d="M392.844 228.586c0-1.658-1.342-3-3-3s-3 1.342-3 3a3 3 0 1 0 6 0"/>
    <path fill="#FC0D1D" d="M392.244 228.586c0-1.328-1.072-2.4-2.4-2.4-1.32 0-2.4 1.072-2.4 2.4 0 1.326 1.072 2.398 2.4 2.398s2.4-1.072 2.4-2.398"/>
    <path d="M447.564 228.586c0-1.658-1.342-3-3-3s-3 1.342-3 3a3 3 0 1 0 6 0"/>
    <path fill="#FC0D1D" d="M446.965 228.586c0-1.328-1.074-2.4-2.4-2.4a2.397 2.397 0 0 0-2.4 2.4 2.396 2.396 0 0 0 2.4 2.398c1.326 0 2.4-1.072 2.4-2.398"/>
    <path d="M284.664 119.146a3 3 0 1 0-6 0 3 3 0 0 0 6 0"/>
    <path fill="#FC0D1D" d="M284.064 119.146c0-1.328-1.072-2.4-2.4-2.4s-2.4 1.072-2.4 2.4c0 1.327 1.072 2.399 2.4 2.399s2.4-1.072 2.4-2.399"/>
    <path d="M392.844 173.865a3 3 0 1 0-6 0c0 1.658 1.342 3 3 3s3-1.342 3-3"/>
    <path fill="#FC0D1D" d="M392.244 173.865c0-1.328-1.072-2.4-2.4-2.4-1.32 0-2.4 1.072-2.4 2.4 0 1.327 1.072 2.399 2.4 2.399s2.4-1.072 2.4-2.399"/>
    <path d="M447.564 173.865a3 3 0 1 0-6 0c0 1.658 1.342 3 3 3s3-1.342 3-3"/>
    <path fill="#FC0D1D" d="M446.965 173.865c0-1.328-1.074-2.4-2.4-2.4a2.397 2.397 0 0 0-2.4 2.4 2.397 2.397 0 0 0 2.4 2.399 2.397 2.397 0 0 0 2.4-2.399"/>
    <path d="M339.383 64.605a3 3 0 1 0-6 0 3 3 0 0 0 6 0"/>
    <path fill="#FC0D1D" d="M338.785 64.605c0-1.328-1.074-2.4-2.402-2.4a2.396 2.396 0 0 0-2.398 2.4 2.396 2.396 0 0 0 2.398 2.399 2.397 2.397 0 0 0 2.402-2.399"/>
    <path d="M447.564 119.146c0-1.658-1.342-3-3-3s-3 1.342-3 3a3 3 0 1 0 6 0"/>
    <path fill="#FC0D1D" d="M446.965 119.146c0-1.328-1.074-2.4-2.4-2.4a2.397 2.397 0 0 0-2.4 2.4 2.397 2.397 0 0 0 2.4 2.399c1.326 0 2.4-1.072 2.4-2.399"/>
    <path d="M394.104 9.885a3 3 0 1 0-6 0c0 1.658 1.342 3 3 3s3-1.342 3-3"/>
    <path fill="#FC0D1D" d="M393.504 9.885c0-1.327-1.072-2.4-2.4-2.4a2.399 2.399 0 0 0-2.4 2.4c0 1.328 1.074 2.4 2.4 2.4 1.328 0 2.4-1.072 2.4-2.4"/>
</svg>
