<svg xmlns="http://www.w3.org/2000/svg" width="333" height="459"><path d="M252 405l27 27m-27-54l27-27m0-27l-27-27m0-27l27-27m0-27l-27-27m0-27l27-27m-63 243l-27-27m0-27l27-27m0-27l-27-27m0-27l27-27m0-27l-27-27m-36 0l-27 27m0 27l27 27m0 27l-27 27m0 27l27 27m-63-54l-27-27m0-27l27-27m99-81l27-27m63 27l-27-27m0-27l27-27" fill="none" stroke="#0060B6" stroke-width="2"/><text transform="translate(267.275 453)"><tspan x="0" y="0" font-family="Times,serif" font-style="italic" font-size="24">x</tspan><tspan x="10.652" y="0" font-family="Times,serif" font-size="24"> ^= 1</tspan></text><text transform="translate(267.275 345)"><tspan x="0" y="0" font-family="Times,serif" font-style="italic" font-size="24">x</tspan><tspan x="10.652" y="0" font-family="Times,serif" font-size="24"> ^= 1</tspan></text><text transform="translate(267.275 237)"><tspan x="0" y="0" font-family="Times,serif" font-style="italic" font-size="24">x</tspan><tspan x="10.652" y="0" font-family="Times,serif" font-size="24"> ^= 1</tspan></text><text transform="translate(267.275 129)"><tspan x="0" y="0" font-family="Times,serif" font-style="italic" font-size="24">x</tspan><tspan x="10.652" y="0" font-family="Times,serif" font-size="24"> ^= 1</tspan></text><text transform="translate(267.275 21)"><tspan x="0" y="0" font-family="Times,serif" font-style="italic" font-size="24">x</tspan><tspan x="10.652" y="0" font-family="Times,serif" font-size="24"> ^= 1</tspan></text><text transform="translate(204.275 399)"><tspan x="0" y="0" font-family="Times,serif" font-style="italic" font-size="24">x</tspan><tspan x="10.652" y="0" font-family="Times,serif" font-size="24"> ^= 3</tspan></text><text transform="translate(204.275 291)"><tspan x="0" y="0" font-family="Times,serif" font-style="italic" font-size="24">x</tspan><tspan x="10.652" y="0" font-family="Times,serif" font-size="24"> ^= 3</tspan></text><text transform="translate(204.275 183)"><tspan x="0" y="0" font-family="Times,serif" font-style="italic" font-size="24">x</tspan><tspan x="10.652" y="0" font-family="Times,serif" font-size="24"> ^= 3</tspan></text><text transform="translate(204.275 75)"><tspan x="0" y="0" font-family="Times,serif" font-style="italic" font-size="24">x</tspan><tspan x="10.652" y="0" font-family="Times,serif" font-size="24"> ^= 3</tspan></text><text transform="translate(141.275 345)"><tspan x="0" y="0" font-family="Times,serif" font-style="italic" font-size="24">x</tspan><tspan x="10.652" y="0" font-family="Times,serif" font-size="24"> ^= 6</tspan></text><text transform="translate(72.275 291)"><tspan x="0" y="0" font-family="Times,serif" font-style="italic" font-size="24">x</tspan><tspan x="10.652" y="0" font-family="Times,serif" font-size="24"> ^= 12</tspan></text><text transform="translate(9.275 237)"><tspan x="0" y="0" font-family="Times,serif" font-style="italic" font-size="24">x</tspan><tspan x="10.652" y="0" font-family="Times,serif" font-size="24"> ^= 24</tspan></text><text transform="translate(72.275 183)"><tspan x="0" y="0" font-family="Times,serif" font-style="italic" font-size="24">x</tspan><tspan x="10.652" y="0" font-family="Times,serif" font-size="24"> ^= 12</tspan></text><text transform="translate(141.275 237)"><tspan x="0" y="0" font-family="Times,serif" font-style="italic" font-size="24">x</tspan><tspan x="10.652" y="0" font-family="Times,serif" font-size="24"> ^= 6</tspan></text><text transform="translate(141.275 129)"><tspan x="0" y="0" font-family="Times,serif" font-style="italic" font-size="24">x</tspan><tspan x="10.652" y="0" font-family="Times,serif" font-size="24"> ^= 6</tspan></text></svg>