<svg xmlns="http://www.w3.org/2000/svg" width="256" height="644"><path d="M41.258 630.436l39.775-39.776m0 0l40.217-40.217m0 0l40.217-40.216m-40.217 40.216v-26.516m40.217-13.7l-.001-26.516m-40.216 40.216l40.216-40.216m-40.216 40.216l-53.475-53.475m93.691 13.259l-53.475-53.475m53.475 53.475l40.217-40.217m0 0l40.216-40.217m-40.216 40.217l-53.475-53.474m93.691 13.257l-53.474-53.474M67.775 470.452l.442-26.958m-.442 26.958l40.216-40.216m0 0V403.72m0 26.516l40.217-40.216m0 0l40.217-40.217m-40.217 40.217l-53.475-53.476m53.475 53.476v-26.517m40.217-13.7l-53.475-53.476m53.475 53.476v-26.517m-93.692 13.258l40.217-40.217m-40.217 40.217v-26.517m40.217-13.7v-26.516m0 26.516l39.775-39.774m0 0l-53.475-53.476m53.475 53.476l.442-26.959m-53.917-26.517l.441-26.958M68.217 443.494l39.774-39.774m0 0l40.217-40.217m0 0l40.217-40.217m-40.217 40.217l-53.475-53.476m93.692 13.259l-53.475-53.475m-40.217 40.216l40.217-40.216m-40.217 40.216v-26.516m40.217-13.7v-26.517m0 26.517l40.217-40.217m0 0l-53.476-53.475m53.476 53.475v-26.517m-53.476-26.958v-26.516M94.733 283.511l40.217-40.217m0 0l40.217-40.217m0 0l-53.476-53.474m53.476 53.474l-.442-26.958m-53.034-26.516l-.442-26.958m53.476 53.474l-53.476-53.474m0 0L67.774 69.17m0 0L14.3 15.694" fill="none" stroke="#00A0C6" stroke-width="1.875"/><g fill="#FFF" stroke="#000" stroke-width="1.25"><circle cx="41.258" cy="630.435" r="9.844"/><circle cx="81.033" cy="590.661" r="9.844"/><circle cx="121.25" cy="550.444" r="9.844"/><circle cx="161.466" cy="510.227" r="9.844"/><circle cx="121.25" cy="523.927" r="9.844"/><circle cx="161.466" cy="483.71" r="9.844"/><circle cx="201.683" cy="443.494" r="9.844"/><circle cx="241.9" cy="403.277" r="9.844"/><circle cx="67.775" cy="470.453" r="9.844"/><circle cx="107.992" cy="430.236" r="9.844"/><circle cx="148.208" cy="390.019" r="9.844"/><circle cx="188.425" cy="349.802" r="9.844"/><circle cx="94.733" cy="336.544" r="9.844"/><circle cx="134.95" cy="296.328" r="9.844"/><circle cx="174.725" cy="256.553" r="9.844"/><circle cx="121.25" cy="203.078" r="9.844"/><circle cx="68.217" cy="443.494" r="9.844"/><circle cx="107.992" cy="403.719" r="9.844"/><circle cx="148.208" cy="363.502" r="9.844"/><circle cx="188.425" cy="323.286" r="9.844"/><circle cx="94.733" cy="310.028" r="9.844"/><circle cx="134.95" cy="269.811" r="9.844"/><circle cx="175.167" cy="229.594" r="9.844"/><circle cx="121.691" cy="176.119" r="9.844"/><circle cx="94.733" cy="283.511" r="9.844"/><circle cx="134.95" cy="243.294" r="9.844"/><circle cx="175.167" cy="203.078" r="9.844"/><circle cx="121.691" cy="149.603" r="9.844"/><circle cx="174.725" cy="176.119" r="9.844"/><circle cx="121.25" cy="122.644" r="9.844"/><circle cx="67.775" cy="69.169" r="9.844"/><circle cx="14.3" cy="15.694" r="9.844"/></g><g font-family="Times,serif" font-size="14"><text transform="translate(38.237 634.836)">0</text><text transform="translate(78.01 595.063)">1</text><text transform="translate(118.227 554.847)">2</text><text transform="translate(158.443 514.63)">3</text><text transform="translate(118.227 528.328)">4</text><text transform="translate(158.443 488.112)">5</text><text transform="translate(198.66 447.896)">6</text><text transform="translate(238.877 407.679)">7</text><text transform="translate(64.754 474.854)">8</text><text transform="translate(104.969 434.637)">9</text><text transform="translate(142.022 394.42)">10</text><text transform="translate(182.469 354.204)">11</text><text transform="translate(88.549 340.947)">12</text><text transform="translate(128.765 300.73)">13</text><text transform="translate(168.541 260.956)">14</text><text transform="translate(115.063 207.481)">15</text><text transform="translate(62.031 447.896)">16</text><text transform="translate(101.805 408.121)">17</text><text transform="translate(142.022 367.905)">18</text><text transform="translate(182.24 327.688)">19</text><text transform="translate(88.549 314.43)">20</text><text transform="translate(128.765 274.213)">21</text><text transform="translate(168.98 233.997)">22</text><text transform="translate(115.503 180.522)">23</text><text transform="translate(88.549 287.914)">24</text><text transform="translate(128.762 247.698)">25</text><text transform="translate(168.98 207.481)">26</text><text transform="translate(115.503 154.005)">27</text><text transform="translate(168.541 180.522)">28</text><text transform="translate(115.063 127.046)">29</text><text transform="translate(61.587 73.572)">30</text><text transform="translate(8.112 20.097)">31</text></g></svg>