<svg xmlns="http://www.w3.org/2000/svg" width="348.276" height="341.972" overflow="visible">
    <path fill="none" stroke="#000" stroke-width=".567" stroke-miterlimit="10" d="M186.244 4.536L49.731 316.842m0 0l136.513-187.893M4.535 111.098l254.837 226.339m0 0L122.859 149.543M49.731 316.842l294.01-172.421m0 0L122.859 216.19m136.513 121.247L186.244 4.536m0 0v232.249m157.497-92.364L4.535 111.098m0 0l220.882 71.769"/>
    <path fill="red" d="M229.953 182.867v-.008a4.532 4.532 0 0 0-4.54-4.527 4.537 4.537 0 0 0-3.205 7.741 4.537 4.537 0 0 0 7.745-3.198v-.008zM190.779 4.536v-.009A4.532 4.532 0 0 0 186.239 0a4.533 4.533 0 0 0-4.532 4.536 4.538 4.538 0 0 0 9.072.009v-.009zm0 124.413v-.008a4.532 4.532 0 0 0-4.54-4.527 4.535 4.535 0 1 0 3.207 7.746 4.532 4.532 0 0 0 1.333-3.203v-.008zM9.071 111.098v-.009a4.532 4.532 0 0 0-4.54-4.527 4.535 4.535 0 1 0 4.541 4.544v-.008zm118.324 38.445v-.008a4.532 4.532 0 0 0-4.54-4.527 4.536 4.536 0 1 0 4.54 4.543v-.008zM54.266 316.842v-.008a4.532 4.532 0 0 0-4.54-4.527 4.537 4.537 0 0 0-4.532 4.535 4.537 4.537 0 0 0 9.072.008v-.008zm73.129-100.652v-.008a4.532 4.532 0 0 0-4.54-4.527 4.536 4.536 0 1 0 4.54 4.543v-.008zm136.512 121.247v-.008a4.532 4.532 0 0 0-4.54-4.527 4.533 4.533 0 0 0-4.531 4.535 4.536 4.536 0 0 0 9.071.008v-.008zm-73.128-100.652v-.008a4.532 4.532 0 0 0-4.54-4.527 4.533 4.533 0 0 0-4.532 4.535 4.53 4.53 0 0 0 4.532 4.535 4.533 4.533 0 0 0 4.54-4.527v-.008zm157.497-92.364v-.009a4.535 4.535 0 1 0 0 .017v-.008z"/>
</svg>
