<svg xmlns="http://www.w3.org/2000/svg" width="610" height="460">
    <g fill="none" stroke="#000" stroke-width="3">
        <path d="M521 271.5h72m-243 0h72m-234 0h72m-243 0h72m-54-225l36 63 36-63zm-18 117l54-54 54 54m252-144H233m324 63l-36 36 36-99v63l36 36H377"/>
        <path d="M557 19.5l36 99-36 63-36-63-36 63-36-63"/>
    </g>
    <g fill="#9CF" stroke="#000">
        <circle cx="521" cy="118.5" r="13.5"/>
        <circle cx="593" cy="118.5" r="13.5"/>
        <circle cx="557" cy="82.5" r="13.5"/>
        <circle cx="557" cy="19.5" r="13.5"/>
        <circle cx="557" cy="181.5" r="13.5"/>
        <circle cx="449" cy="118.5" r="13.5"/>
        <circle cx="485" cy="181.5" r="13.5"/>
        <circle cx="377" cy="118.5" r="13.5"/>
    </g>
    <g fill="#9F6" stroke="#000">
        <circle cx="377" cy="19.5" r="13.5"/>
        <circle cx="305" cy="19.5" r="13.5"/>
        <circle cx="233" cy="19.5" r="13.5"/>
    </g>
    <g fill="#F6C" stroke="#000">
        <circle cx="35" cy="46.5" r="13.5"/>
        <circle cx="107" cy="46.5" r="13.5"/>
        <circle cx="71" cy="109.5" r="13.5"/>
        <circle cx="17" cy="163.5" r="13.5"/>
        <circle cx="125" cy="163.5" r="13.5"/>
    </g>
    <g fill="#E4BC96" stroke="#000">
        <circle cx="17" cy="271.5" r="13.5"/>
        <circle cx="89" cy="271.5" r="13.5"/>
        <circle cx="521" cy="271.5" r="13.5"/>
        <circle cx="593" cy="271.5" r="13.5"/>
        <circle cx="422" cy="271.5" r="13.5"/>
        <circle cx="350" cy="271.5" r="13.5"/>
        <circle cx="188" cy="271.5" r="13.5"/>
        <circle cx="260" cy="271.5" r="13.5"/>
    </g>
    <g fill="#FF0" stroke="#000">
        <circle cx="17" cy="379.5" r="13.5"/>
        <circle cx="89" cy="379.5" r="13.5"/>
        <circle cx="161" cy="379.5" r="13.5"/>
        <circle cx="233" cy="379.5" r="13.5"/>
        <circle cx="305" cy="379.5" r="13.5"/>
        <circle cx="377" cy="379.5" r="13.5"/>
        <circle cx="449" cy="379.5" r="13.5"/>
        <circle cx="521" cy="379.5" r="13.5"/>
        <circle cx="593" cy="379.5" r="13.5"/>
    </g>
    <path d="M164.537 435.539c1.008-.192 2.328-.337 4.008-.337 2.064 0 3.576.48 4.536 1.345.888.768 1.44 1.944 1.44 3.384 0 1.465-.432 2.616-1.272 3.457-1.104 1.176-2.904 1.775-4.945 1.775-.624 0-1.2-.023-1.68-.144v6.48h-2.088v-15.96zm2.088 7.776c.456.12 1.056.168 1.729.168 2.544 0 4.056-1.248 4.056-3.433 0-2.16-1.512-3.192-3.816-3.192-.912 0-1.608.097-1.968.168v6.289zm18.171 5.401c0 1.008.048 1.992.168 2.784h-1.896l-.192-1.464h-.072c-.624.912-1.896 1.728-3.552 1.728-2.353 0-3.553-1.656-3.553-3.336 0-2.809 2.497-4.345 6.985-4.32v-.24c0-.96-.264-2.712-2.64-2.688-1.104 0-2.232.312-3.048.864l-.48-1.416c.96-.6 2.376-1.008 3.84-1.008 3.576 0 4.44 2.424 4.44 4.752v4.344zm-2.064-3.145c-2.304-.048-4.92.36-4.92 2.616 0 1.393.912 2.017 1.968 2.017 1.536 0 2.52-.96 2.856-1.944.072-.216.096-.456.096-.672v-2.017zm5.447-1.895c0-1.488-.024-2.688-.096-3.793h1.896l.12 1.992h.048c.84-1.44 2.232-2.256 4.104-2.256 2.832 0 4.944 2.376 4.944 5.904 0 4.177-2.568 6.24-5.28 6.24-1.56 0-2.88-.672-3.577-1.824h-.048v6.312h-2.112v-12.575zm2.113 3.095c0 .288.024.601.096.864a3.232 3.232 0 0 0 3.144 2.472c2.232 0 3.528-1.823 3.528-4.488 0-2.328-1.2-4.32-3.432-4.32-1.44 0-2.808 1.009-3.216 2.593-.048.288-.12.6-.12.864v2.015zm12.767-.719c.048 2.856 1.848 4.032 3.96 4.032 1.512 0 2.448-.264 3.216-.576l.384 1.488c-.744.336-2.04.744-3.888.744-3.552 0-5.712-2.376-5.712-5.856 0-3.528 2.088-6.289 5.473-6.289 3.792 0 4.776 3.337 4.776 5.473 0 .432-.024.769-.072 1.008l-8.137-.024zm6.168-1.513c.024-1.319-.552-3.432-2.904-3.432-2.16 0-3.072 1.968-3.24 3.432h6.144zm4.68-1.032c0-1.367-.024-2.544-.096-3.624h1.848l.096 2.28h.072c.528-1.56 1.824-2.544 3.24-2.544.216 0 .384.023.576.072v1.968c-.24-.024-.456-.048-.744-.048-1.488 0-2.544 1.128-2.832 2.688a6.629 6.629 0 0 0-.072 1.008v6.192h-2.112l.024-7.992zm7.536 5.857c.648.384 1.752.815 2.808.815 1.512 0 2.232-.744 2.232-1.728 0-1.009-.6-1.561-2.136-2.137-2.112-.768-3.096-1.896-3.096-3.288 0-1.872 1.536-3.408 4.008-3.408 1.176 0 2.208.312 2.833.72l-.504 1.513c-.456-.265-1.296-.673-2.376-.673-1.248 0-1.92.721-1.92 1.585 0 .983.672 1.416 2.184 1.992 1.992.743 3.048 1.752 3.048 3.504 0 2.064-1.608 3.504-4.32 3.504-1.272 0-2.448-.336-3.265-.815l.504-1.584zm17.424-12.265v2.784h3.024v1.608h-3.024v6.265c0 1.439.408 2.256 1.584 2.256.576 0 .912-.048 1.224-.144l.096 1.607c-.408.145-1.056.288-1.872.288-.984 0-1.776-.336-2.28-.888-.576-.648-.816-1.681-.816-3.048v-6.337h-1.8v-1.608h1.8v-2.136l2.064-.647zm5.399-2.64h2.112v7.248h.048c.336-.6.864-1.152 1.512-1.488a4.113 4.113 0 0 1 2.16-.6c1.561 0 4.057.96 4.057 4.969v6.912h-2.112v-6.673c0-1.896-.696-3.456-2.688-3.456-1.368 0-2.424.96-2.833 2.112-.12.288-.144.6-.144 1.008v7.009h-2.112v-17.041zm21.505 14.257c0 1.008.048 1.992.168 2.784h-1.896l-.192-1.464h-.072c-.624.912-1.896 1.728-3.552 1.728-2.353 0-3.553-1.656-3.553-3.336 0-2.809 2.497-4.345 6.985-4.32v-.24c0-.96-.264-2.712-2.64-2.688-1.104 0-2.232.312-3.048.864l-.48-1.416c.96-.6 2.376-1.008 3.84-1.008 3.576 0 4.44 2.424 4.44 4.752v4.344zm-2.064-3.145c-2.304-.048-4.92.36-4.92 2.616 0 1.393.912 2.017 1.968 2.017 1.536 0 2.52-.96 2.856-1.944.072-.216.096-.456.096-.672v-2.017zm7.897-8.472v2.784h3.024v1.608h-3.024v6.265c0 1.439.408 2.256 1.584 2.256.576 0 .912-.048 1.224-.144l.096 1.607c-.408.145-1.056.288-1.872.288-.984 0-1.776-.336-2.28-.888-.576-.648-.816-1.681-.816-3.048v-6.337h-1.8v-1.608h1.8v-2.136l2.064-.647zm10.2 12.265c.648.384 1.752.815 2.808.815 1.512 0 2.232-.744 2.232-1.728 0-1.009-.6-1.561-2.136-2.137-2.112-.768-3.096-1.896-3.096-3.288 0-1.872 1.536-3.408 4.008-3.408 1.176 0 2.208.312 2.833.72l-.504 1.513c-.456-.265-1.296-.673-2.376-.673-1.248 0-1.92.721-1.92 1.585 0 .983.672 1.416 2.184 1.992 1.992.743 3.048 1.752 3.048 3.504 0 2.064-1.608 3.504-4.32 3.504-1.272 0-2.448-.336-3.265-.815l.504-1.584zm9.792-14.905h2.112v7.248h.048c.336-.6.864-1.152 1.512-1.488a4.113 4.113 0 0 1 2.16-.6c1.561 0 4.057.96 4.057 4.969v6.912h-2.112v-6.673c0-1.896-.696-3.456-2.688-3.456-1.368 0-2.424.96-2.833 2.112-.12.288-.144.6-.144 1.008v7.009h-2.112v-17.041zm21.505 14.257c0 1.008.048 1.992.168 2.784h-1.896l-.191-1.464h-.072c-.624.912-1.896 1.728-3.553 1.728-2.352 0-3.552-1.656-3.552-3.336 0-2.809 2.497-4.345 6.985-4.32v-.24c0-.96-.264-2.712-2.641-2.688-1.104 0-2.231.312-3.048.864l-.48-1.416c.96-.6 2.376-1.008 3.84-1.008 3.576 0 4.44 2.424 4.44 4.752v4.344zm-2.065-3.145c-2.304-.048-4.92.36-4.92 2.616 0 1.393.912 2.017 1.968 2.017 1.536 0 2.521-.96 2.856-1.944.072-.216.096-.456.096-.672v-2.017zm5.472-2.064c0-1.367-.024-2.544-.097-3.624h1.849l.096 2.28h.072c.528-1.56 1.824-2.544 3.24-2.544.216 0 .384.023.576.072v1.968c-.24-.024-.456-.048-.744-.048-1.488 0-2.544 1.128-2.832 2.688a6.629 6.629 0 0 0-.072 1.008v6.192h-2.112l.024-7.992zm8.883 2.545c.048 2.856 1.849 4.032 3.961 4.032 1.512 0 2.447-.264 3.216-.576l.384 1.488c-.744.336-2.04.744-3.888.744-3.553 0-5.713-2.376-5.713-5.856 0-3.528 2.088-6.289 5.473-6.289 3.792 0 4.776 3.337 4.776 5.473 0 .432-.024.769-.072 1.008l-8.137-.024zm6.169-1.513c.023-1.319-.553-3.432-2.904-3.432-2.16 0-3.072 1.968-3.24 3.432h6.144zm18.023 6.553c-.553.265-1.776.672-3.337.672-3.504 0-5.784-2.376-5.784-5.952s2.448-6.192 6.24-6.192c1.248 0 2.353.312 2.929.624l-.48 1.608c-.504-.265-1.296-.553-2.448-.553-2.664 0-4.104 1.992-4.104 4.417 0 2.688 1.729 4.344 4.033 4.344a6.05 6.05 0 0 0 2.592-.552l.359 1.584zm7.059.672c-3.12 0-5.568-2.304-5.568-5.977 0-3.888 2.568-6.168 5.761-6.168 3.336 0 5.592 2.424 5.592 5.952 0 4.32-3 6.192-5.76 6.192h-.025zm.072-1.584c2.016 0 3.528-1.896 3.528-4.536 0-1.968-.984-4.44-3.48-4.44-2.473 0-3.553 2.304-3.553 4.513 0 2.544 1.44 4.464 3.48 4.464h.025zm13.271-5.929v1.536h-5.929v-1.536h5.929zm10.657 4.465c0 1.008.048 1.992.168 2.784h-1.896l-.192-1.464h-.072c-.624.912-1.896 1.728-3.552 1.728-2.353 0-3.553-1.656-3.553-3.336 0-2.809 2.496-4.345 6.984-4.32v-.24c0-.96-.264-2.712-2.64-2.688-1.104 0-2.232.312-3.049.864l-.479-1.416c.96-.6 2.376-1.008 3.84-1.008 3.577 0 4.44 2.424 4.44 4.752v4.344zm-2.064-3.145c-2.305-.048-4.921.36-4.921 2.616 0 1.393.912 2.017 1.969 2.017 1.536 0 2.52-.96 2.855-1.944a2.17 2.17 0 0 0 .097-.672v-2.017zm15.168 2.761c0 1.2.024 2.256.097 3.168h-1.872l-.12-1.896h-.048c-.528.937-1.776 2.16-3.841 2.16-1.824 0-4.009-1.031-4.009-5.088v-6.793h2.112v6.409c0 2.208.696 3.72 2.593 3.72 1.416 0 2.4-.984 2.784-1.944.12-.288.191-.672.191-1.08v-7.104h2.112v8.448zm6.047-11.233v2.784h3.024v1.608h-3.024v6.265c0 1.439.408 2.256 1.585 2.256.576 0 .912-.048 1.224-.144l.096 1.607c-.407.145-1.056.288-1.872.288-.983 0-1.775-.336-2.28-.888-.575-.648-.815-1.681-.815-3.048v-6.337h-1.801v-1.608h1.801v-2.136l2.062-.647zm5.4-2.64h2.112v7.248h.048c.336-.6.864-1.152 1.513-1.488a4.113 4.113 0 0 1 2.16-.6c1.56 0 4.056.96 4.056 4.969v6.912h-2.111v-6.673c0-1.896-.696-3.456-2.688-3.456-1.368 0-2.425.96-2.832 2.112-.12.288-.145.6-.145 1.008v7.009h-2.112v-17.041zm18.049 17.305c-3.12 0-5.568-2.304-5.568-5.977 0-3.888 2.568-6.168 5.761-6.168 3.336 0 5.592 2.424 5.592 5.952 0 4.32-3 6.192-5.76 6.192h-.025zm.072-1.584c2.016 0 3.528-1.896 3.528-4.536 0-1.968-.984-4.44-3.48-4.44-2.473 0-3.553 2.304-3.553 4.513 0 2.544 1.44 4.464 3.48 4.464h.025zm8.4-6.673c0-1.367-.024-2.544-.097-3.624h1.849l.096 2.28h.072c.528-1.56 1.824-2.544 3.24-2.544.216 0 .384.023.576.072v1.968c-.24-.024-.456-.048-.744-.048-1.488 0-2.544 1.128-2.832 2.688a6.629 6.629 0 0 0-.072 1.008v6.192h-2.112l.024-7.992zm7.535 5.857c.648.384 1.752.815 2.809.815 1.512 0 2.232-.744 2.232-1.728 0-1.009-.601-1.561-2.137-2.137-2.112-.768-3.096-1.896-3.096-3.288 0-1.872 1.536-3.408 4.008-3.408 1.177 0 2.208.312 2.832.72l-.504 1.513c-.456-.265-1.296-.673-2.376-.673-1.248 0-1.92.721-1.92 1.585 0 .983.672 1.416 2.184 1.992 1.992.743 3.049 1.752 3.049 3.504 0 2.064-1.608 3.504-4.32 3.504-1.272 0-2.448-.336-3.265-.815l.504-1.584z"/>
</svg>
