<svg xmlns="http://www.w3.org/2000/svg" width="459" height="459">
    <path fill="#FFF" d="M0 0h459v459H0z"/>
    <path opacity=".5" fill="red" stroke="#000" d="M76.798 12.26l-50.9 13.638 13.639 50.901h74.523l13.639-50.901z"/>
    <path fill="#F0F" stroke="gray" d="M76.798 141.338l50.901-13.639-13.639-50.9H39.537l-13.639 50.9z"/>
    <g opacity=".5" stroke="#000">
        <path fill="#0FF" d="M12.259 76.799l13.639 50.9 50.9-13.638V39.537l-50.9-13.639z"/>
        <path fill="#FF0" d="M141.337 76.799l-13.638-50.901-50.901 13.639v74.524l50.901 13.638z"/>
    </g>
    <path opacity=".5" fill="red" stroke="#000" d="M178.6 12.26l-50.901 13.638 13.639 50.901h74.523L229.5 25.898z"/>
    <path fill="#F0F" stroke="gray" d="M178.6 141.338l50.9-13.639-13.639-50.9h-74.523l-13.639 50.9z"/>
    <g opacity=".5" stroke="#000">
        <path fill="#0FF" d="M114.061 76.799l13.638 50.9 50.901-13.638V39.537l-50.901-13.639z"/>
        <path fill="#FF0" d="M243.139 76.799L229.5 25.898l-50.9 13.639v74.524l50.9 13.638z"/>
    </g>
    <path opacity=".5" fill="red" stroke="#000" d="M76.798 114.061l-50.9 13.638L39.537 178.6h74.523l13.639-50.901z"/>
    <path fill="#F0F" stroke="gray" d="M76.798 243.139l50.901-13.639-13.639-50.9H39.537l-13.639 50.9z"/>
    <g opacity=".5" stroke="#000">
        <path fill="#0FF" d="M12.259 178.6l13.639 50.9 50.9-13.639v-74.523l-50.9-13.639z"/>
        <path fill="#FF0" d="M141.337 178.6l-13.638-50.901-50.901 13.639v74.523l50.901 13.639z"/>
    </g>
    <path opacity=".5" fill="red" stroke="#000" d="M178.6 114.061l-50.901 13.638 13.639 50.901h74.523l13.639-50.901z"/>
    <path fill="#F0F" stroke="gray" d="M178.6 243.139l50.9-13.639-13.639-50.9h-74.523l-13.639 50.9z"/>
    <g opacity=".5" stroke="#000">
        <path fill="#0FF" d="M114.061 178.6l13.638 50.9 50.901-13.639v-74.523l-50.901-13.639z"/>
        <path fill="#FF0" d="M243.139 178.6L229.5 127.699l-50.9 13.639v74.523l50.9 13.639z"/>
    </g>
    <path opacity=".5" fill="red" stroke="#000" d="M280.401 12.26L229.5 25.898l13.639 50.901h74.524l13.638-50.901z"/>
    <path fill="#F0F" stroke="gray" d="M280.401 141.338l50.9-13.639-13.638-50.9h-74.524l-13.639 50.9z"/>
    <g opacity=".5" stroke="#000">
        <path fill="#0FF" d="M215.862 76.799l13.638 50.9 50.901-13.638V39.537L229.5 25.898z"/>
        <path fill="#FF0" d="M344.94 76.799l-13.639-50.901-50.9 13.639v74.524l50.9 13.638z"/>
    </g>
    <path opacity=".5" fill="red" stroke="#000" d="M382.203 12.26l-50.901 13.638 13.639 50.901h74.523l13.639-50.901z"/>
    <path fill="#F0F" stroke="gray" d="M382.203 141.338l50.9-13.639-13.639-50.9h-74.523l-13.639 50.9z"/>
    <g opacity=".5" stroke="#000">
        <path fill="#0FF" d="M317.663 76.799l13.639 50.9 50.901-13.638V39.537l-50.901-13.639z"/>
        <path fill="#FF0" d="M446.742 76.799l-13.639-50.901-50.9 13.639v74.524l50.9 13.638z"/>
    </g>
    <path opacity=".5" fill="red" stroke="#000" d="M280.401 114.061L229.5 127.699l13.639 50.901h74.524l13.638-50.901z"/>
    <path fill="#F0F" stroke="gray" d="M280.401 243.139l50.9-13.639-13.638-50.9h-74.524L229.5 229.5z"/>
    <g opacity=".5" stroke="#000">
        <path fill="#0FF" d="M215.862 178.6l13.638 50.9 50.901-13.639v-74.523L229.5 127.699z"/>
        <path fill="#FF0" d="M344.94 178.6l-13.639-50.901-50.9 13.639v74.523l50.9 13.639z"/>
    </g>
    <path opacity=".5" fill="red" stroke="#000" d="M382.203 114.061l-50.901 13.638 13.639 50.901h74.523l13.639-50.901z"/>
    <path fill="#F0F" stroke="gray" d="M382.203 243.139l50.9-13.639-13.639-50.9h-74.523l-13.639 50.9z"/>
    <g opacity=".5" stroke="#000">
        <path fill="#0FF" d="M317.663 178.6l13.639 50.9 50.901-13.639v-74.523l-50.901-13.639z"/>
        <path fill="#FF0" d="M446.742 178.6l-13.639-50.901-50.9 13.639v74.523l50.9 13.639z"/>
    </g>
    <path opacity=".5" fill="red" stroke="#000" d="M76.798 215.862l-50.9 13.639 13.639 50.9h74.523l13.639-50.9z"/>
    <path fill="#F0F" stroke="gray" d="M76.798 344.94l50.901-13.638-13.639-50.901H39.537l-13.639 50.901z"/>
    <g opacity=".5" stroke="#000">
        <path fill="#0FF" d="M12.259 280.401l13.639 50.901 50.9-13.639V243.14l-50.9-13.639z"/>
        <path fill="#FF0" d="M141.337 280.401l-13.638-50.9-50.901 13.639v74.523l50.901 13.639z"/>
    </g>
    <path opacity=".5" fill="red" stroke="#000" d="M178.6 215.862l-50.901 13.639 13.639 50.9h74.523l13.639-50.9z"/>
    <path fill="#F0F" stroke="gray" d="M178.6 344.94l50.9-13.638-13.639-50.901h-74.523l-13.639 50.901z"/>
    <g opacity=".5" stroke="#000">
        <path fill="#0FF" d="M114.061 280.401l13.638 50.901 50.901-13.639V243.14l-50.901-13.639z"/>
        <path fill="#FF0" d="M243.139 280.401l-13.639-50.9-50.9 13.639v74.523l50.9 13.639z"/>
    </g>
    <g>
        <path opacity=".5" fill="red" stroke="#000" d="M76.798 317.663l-50.9 13.639 13.639 50.9h74.523l13.639-50.9z"/>
        <path fill="#F0F" stroke="gray" d="M76.798 446.741l50.901-13.638-13.639-50.901H39.537l-13.639 50.901z"/>
        <g opacity=".5" stroke="#000">
            <path fill="#0FF" d="M12.259 382.202l13.639 50.901 50.9-13.639V344.94l-50.9-13.638z"/>
            <path fill="#FF0" d="M141.337 382.202l-13.638-50.9-50.901 13.638v74.524l50.901 13.639z"/>
        </g>
    </g>
    <g>
        <path opacity=".5" fill="red" stroke="#000" d="M178.6 317.663l-50.901 13.639 13.639 50.9h74.523l13.639-50.9z"/>
        <path fill="#F0F" stroke="gray" d="M178.6 446.741l50.9-13.638-13.639-50.901h-74.523l-13.639 50.901z"/>
        <g opacity=".5" stroke="#000">
            <path fill="#0FF" d="M114.061 382.202l13.638 50.901 50.901-13.639V344.94l-50.901-13.638z"/>
            <path fill="#FF0" d="M243.139 382.202l-13.639-50.9-50.9 13.638v74.524l50.9 13.639z"/>
        </g>
    </g>
    <g>
        <path opacity=".5" fill="red" stroke="#000" d="M280.401 215.862L229.5 229.501l13.639 50.9h74.524l13.638-50.9z"/>
        <path fill="#F0F" stroke="gray" d="M280.401 344.94l50.9-13.638-13.638-50.901h-74.524L229.5 331.302z"/>
        <g opacity=".5" stroke="#000">
            <path fill="#0FF" d="M215.862 280.401l13.638 50.901 50.901-13.639V243.14L229.5 229.501z"/>
            <path fill="#FF0" d="M344.94 280.401l-13.639-50.9-50.9 13.639v74.523l50.9 13.639z"/>
        </g>
    </g>
    <g>
        <path opacity=".5" fill="red" stroke="#000" d="M382.203 215.862l-50.901 13.639 13.639 50.9h74.523l13.639-50.9z"/>
        <path fill="#F0F" stroke="gray" d="M382.203 344.94l50.9-13.638-13.639-50.901h-74.523l-13.639 50.901z"/>
        <g opacity=".5" stroke="#000">
            <path fill="#0FF" d="M317.663 280.401l13.639 50.901 50.901-13.639V243.14l-50.901-13.639z"/>
            <path fill="#FF0" d="M446.742 280.401l-13.639-50.9-50.9 13.639v74.523l50.9 13.639z"/>
        </g>
    </g>
    <g>
        <path opacity=".5" fill="red" stroke="#000" d="M280.401 317.663L229.5 331.302l13.639 50.9h74.524l13.638-50.9z"/>
        <path fill="#F0F" stroke="gray" d="M280.401 446.741l50.9-13.638-13.638-50.901h-74.524L229.5 433.103z"/>
        <g opacity=".5" stroke="#000">
            <path fill="#0FF" d="M215.862 382.202l13.638 50.901 50.901-13.639V344.94L229.5 331.302z"/>
            <path fill="#FF0" d="M344.94 382.202l-13.639-50.9-50.9 13.638v74.524l50.9 13.639z"/>
        </g>
    </g>
    <g>
        <path opacity=".5" fill="red" stroke="#000" d="M382.203 317.663l-50.901 13.639 13.639 50.9h74.523l13.639-50.9z"/>
        <path fill="#F0F" stroke="gray" d="M382.203 446.741l50.9-13.638-13.639-50.901h-74.523l-13.639 50.901z"/>
        <g opacity=".5" stroke="#000">
            <path fill="#0FF" d="M317.663 382.202l13.639 50.901 50.901-13.639V344.94l-50.901-13.638z"/>
            <path fill="#FF0" d="M446.742 382.202l-13.639-50.9-50.9 13.638v74.524l50.9 13.639z"/>
        </g>
    </g>
</svg>
