<svg xmlns="http://www.w3.org/2000/svg" width="459" height="459">
    <path opacity=".5" fill="red" stroke="#000" d="M39.537 76.799L76.798 12.26l37.262 64.539z"/>
    <path fill="#F0F" stroke="gray" d="M114.06 76.799l-37.262 64.54-37.261-64.54z"/>
    <g opacity=".5" stroke="#000">
        <path fill="#0FF" d="M76.798 114.061L12.259 76.799l64.539-37.262z"/>
        <path fill="#FF0" d="M76.798 39.537l64.54 37.262-64.54 37.262z"/>
    </g>
    <path opacity=".5" fill="red" stroke="#000" d="M141.338 76.799L178.6 12.26l37.261 64.539z"/>
    <path fill="#F0F" stroke="gray" d="M215.861 76.799l-37.261 64.54-37.262-64.54z"/>
    <g opacity=".5" stroke="#000">
        <path fill="#0FF" d="M178.6 114.061l-64.54-37.262 64.54-37.262z"/>
        <path fill="#FF0" d="M178.6 39.537l64.539 37.262-64.539 37.262z"/>
    </g>
    <path opacity=".5" fill="red" stroke="#000" d="M39.537 178.6l37.261-64.539L114.06 178.6z"/>
    <path fill="#F0F" stroke="gray" d="M114.06 178.6l-37.262 64.54-37.261-64.54z"/>
    <g opacity=".5" stroke="#000">
        <path fill="#0FF" d="M76.798 215.861L12.259 178.6l64.539-37.262z"/>
        <path fill="#FF0" d="M76.798 141.338l64.54 37.262-64.54 37.261z"/>
    </g>
    <path opacity=".5" fill="red" stroke="#000" d="M141.338 178.6l37.262-64.539 37.261 64.539z"/>
    <path fill="#F0F" stroke="gray" d="M215.861 178.6L178.6 243.14l-37.262-64.54z"/>
    <g opacity=".5" stroke="#000">
        <path fill="#0FF" d="M178.6 215.861L114.06 178.6l64.54-37.262z"/>
        <path fill="#FF0" d="M178.6 141.338l64.539 37.262-64.539 37.261z"/>
    </g>
    <path opacity=".5" fill="red" stroke="#000" d="M243.139 76.799l37.262-64.539 37.262 64.539z"/>
    <path fill="#F0F" stroke="gray" d="M317.663 76.799l-37.262 64.54-37.262-64.54z"/>
    <g opacity=".5" stroke="#000">
        <path fill="#0FF" d="M280.401 114.061l-64.54-37.262 64.54-37.262z"/>
        <path fill="#FF0" d="M280.401 39.537l64.539 37.262-64.539 37.262z"/>
    </g>
    <path opacity=".5" fill="red" stroke="#000" d="M344.94 76.799l37.262-64.539 37.261 64.539z"/>
    <path fill="#F0F" stroke="gray" d="M419.463 76.799l-37.261 64.54-37.262-64.54z"/>
    <g opacity=".5" stroke="#000">
        <path fill="#0FF" d="M382.202 114.061l-64.539-37.262 64.539-37.262z"/>
        <path fill="#FF0" d="M382.202 39.537l64.539 37.262-64.539 37.262z"/>
    </g>
    <path opacity=".5" fill="red" stroke="#000" d="M243.139 178.6l37.262-64.539 37.262 64.539z"/>
    <path fill="#F0F" stroke="gray" d="M317.663 178.6l-37.262 64.54-37.262-64.54z"/>
    <g opacity=".5" stroke="#000">
        <path fill="#0FF" d="M280.401 215.861l-64.54-37.261 64.54-37.262z"/>
        <path fill="#FF0" d="M280.401 141.338L344.94 178.6l-64.539 37.261z"/>
    </g>
    <path opacity=".5" fill="red" stroke="#000" d="M344.94 178.6l37.262-64.539 37.261 64.539z"/>
    <path fill="#F0F" stroke="gray" d="M419.463 178.6l-37.261 64.54-37.262-64.54z"/>
    <g opacity=".5" stroke="#000">
        <path fill="#0FF" d="M382.202 215.861L317.663 178.6l64.539-37.262z"/>
        <path fill="#FF0" d="M382.202 141.338l64.539 37.262-64.539 37.261z"/>
    </g>
    <path opacity=".5" fill="red" stroke="#000" d="M39.537 280.4l37.261-64.539L114.06 280.4z"/>
    <path fill="#F0F" stroke="gray" d="M114.06 280.4l-37.262 64.54-37.261-64.54z"/>
    <g opacity=".5" stroke="#000">
        <path fill="#0FF" d="M76.798 317.662L12.259 280.4l64.539-37.261z"/>
        <path fill="#FF0" d="M76.798 243.139l64.54 37.261-64.54 37.262z"/>
    </g>
    <path opacity=".5" fill="red" stroke="#000" d="M141.338 280.4l37.262-64.539 37.261 64.539z"/>
    <path fill="#F0F" stroke="gray" d="M215.861 280.4L178.6 344.94l-37.262-64.54z"/>
    <g opacity=".5" stroke="#000">
        <path fill="#0FF" d="M178.6 317.662L114.06 280.4l64.54-37.261z"/>
        <path fill="#FF0" d="M178.6 243.139l64.539 37.261-64.539 37.262z"/>
    </g>
    <g>
        <path opacity=".5" fill="red" stroke="#000" d="M39.537 382.201l37.261-64.539 37.262 64.539z"/>
        <path fill="#F0F" stroke="gray" d="M114.06 382.201l-37.262 64.54-37.261-64.54z"/>
        <g opacity=".5" stroke="#000">
            <path fill="#0FF" d="M76.798 419.463l-64.539-37.262 64.539-37.262z"/>
            <path fill="#FF0" d="M76.798 344.939l64.54 37.262-64.54 37.262z"/>
        </g>
    </g>
    <g>
        <path opacity=".5" fill="red" stroke="#000" d="M141.338 382.201l37.262-64.539 37.261 64.539z"/>
        <path fill="#F0F" stroke="gray" d="M215.861 382.201l-37.261 64.54-37.262-64.54z"/>
        <g opacity=".5" stroke="#000">
            <path fill="#0FF" d="M178.6 419.463l-64.54-37.262 64.54-37.262z"/>
            <path fill="#FF0" d="M178.6 344.939l64.539 37.262-64.539 37.262z"/>
        </g>
    </g>
    <g>
        <path opacity=".5" fill="red" stroke="#000" d="M243.139 280.4l37.262-64.539 37.262 64.539z"/>
        <path fill="#F0F" stroke="gray" d="M317.663 280.4l-37.262 64.54-37.262-64.54z"/>
        <g opacity=".5" stroke="#000">
            <path fill="#0FF" d="M280.401 317.662l-64.54-37.262 64.54-37.261z"/>
            <path fill="#FF0" d="M280.401 243.139L344.94 280.4l-64.539 37.262z"/>
        </g>
    </g>
    <g>
        <path opacity=".5" fill="red" stroke="#000" d="M344.94 280.4l37.262-64.539 37.261 64.539z"/>
        <path fill="#F0F" stroke="gray" d="M419.463 280.4l-37.261 64.54-37.262-64.54z"/>
        <g opacity=".5" stroke="#000">
            <path fill="#0FF" d="M382.202 317.662L317.663 280.4l64.539-37.261z"/>
            <path fill="#FF0" d="M382.202 243.139l64.539 37.261-64.539 37.262z"/>
        </g>
    </g>
    <g>
        <path opacity=".5" fill="red" stroke="#000" d="M243.139 382.201l37.262-64.539 37.262 64.539z"/>
        <path fill="#F0F" stroke="gray" d="M317.663 382.201l-37.262 64.54-37.262-64.54z"/>
        <g opacity=".5" stroke="#000">
            <path fill="#0FF" d="M280.401 419.463l-64.54-37.262 64.54-37.262z"/>
            <path fill="#FF0" d="M280.401 344.939l64.539 37.262-64.539 37.262z"/>
        </g>
    </g>
    <g>
        <path opacity=".5" fill="red" stroke="#000" d="M344.94 382.201l37.262-64.539 37.261 64.539z"/>
        <path fill="#F0F" stroke="gray" d="M419.463 382.201l-37.261 64.54-37.262-64.54z"/>
        <g opacity=".5" stroke="#000">
            <path fill="#0FF" d="M382.202 419.463l-64.539-37.262 64.539-37.262z"/>
            <path fill="#FF0" d="M382.202 344.939l64.539 37.262-64.539 37.262z"/>
        </g>
    </g>
</svg>
