<svg xmlns="http://www.w3.org/2000/svg" width="288" height="234">
    <g fill="#FFF" stroke="#000">
        <path d="M279.627 117.182l-40.178 80.353-40.176-80.353 40.176-80.354zm-193.991 0l-40.177 80.353-40.176-80.353 40.176-80.354zm0 0h113.637l40.176-80.354-96.994-33.283-96.996 33.283z"/>
        <path d="M85.636 117.182h113.637l40.176 80.353-96.994 33.283-96.996-33.283z"/>
    </g>
    <g fill="#FFF">
        <path opacity=".75" d="M62.1 117.182l80.353-80.352 80.352 80.352-80.352 80.353z"/>
        <path opacity=".75" d="M5.283 117.182h56.818l80.354-80.354V3.545L45.459 36.828zm217.525 0h56.819l-40.178-80.354-96.994-33.283v33.283z"/>
        <path opacity=".75" d="M62.101 117.182l80.354 80.353v33.283l-96.996-33.283-40.176-80.353zm160.707 0h56.819l-40.178 80.353-96.994 33.283v-33.283z"/>
    </g>
    <g fill="none" stroke="#000">
        <path d="M62.1 117.182l80.353-80.353 80.352 80.353-80.352 80.353z"/>
        <path d="M5.283 117.182h56.818l80.354-80.354V3.545L45.459 36.828zm217.526 0h56.818l-40.178-80.354-96.994-33.283v33.283z"/>
        <path d="M62.101 117.182l80.354 80.353v33.283l-96.996-33.283-40.176-80.353zm160.708 0h56.818l-40.178 80.353-96.994 33.283v-33.283z"/>
    </g>
</svg>
