<svg xmlns="http://www.w3.org/2000/svg" width="333" height="373.667">
    <g fill="none" stroke="#000" stroke-width="1.5">
        <path d="M98.998 51.002h45l45-45-45 90z"/>
        <path d="M143.998 141.002l45-135-45 180-45-135z"/>
        <path d="M143.998 231.002l45-225-45 270-45-225zm90-180l-45-45 45 90 45-45z"/>
        <path d="M233.998 141.002l-45-135 45 180 45-135z"/>
        <path d="M143.998 321.002l45-315 45 270 45-225-45 270-45-315 45 225 45-180-90-45-90 45z"/>
        <path d="M188.998 51.002l-45 315 45-270 45 225z"/>
        <path d="M188.998 141.002l-45 225 45-180 45 135z"/>
        <path d="M188.998 231.002l-45 135 45-90 45 45z"/>
        <path d="M143.998 366.002l45-45h45zm-45-315l45 315-45-270-45 225z"/>
        <path d="M98.998 141.002l45 225-45-180-45 135z"/>
        <path d="M98.998 231.002l45 135-45-90-45 45z"/>
        <path d="M143.998 366.002l-45-45h-45zm-90-45l-45-135 45 90 45-225-45 180-45-45 45-45 45-90-45 135h-45m0 0l90-135m180 0l45 135-45-90-45 225 45-180 45 45-45 45-45 90 45-135h45m0 0l-90 135m-45-315l-45 360-45-315"/>
    </g>
    <g fill="red">
        <circle cx="188.998" cy="6.002" r="3.75"/>
        <circle cx="278.998" cy="51.002" r="3.75"/>
        <circle cx="234" cy="51" r="3.75"/>
        <circle cx="189" cy="51" r="3.75"/>
        <circle cx="143.998" cy="51.002" r="3.75"/>
        <circle cx="98.998" cy="51.002" r="3.75"/>
        <circle cx="98.998" cy="96.002" r="3.75"/>
        <circle cx="144" cy="96" r="3.75"/>
        <circle cx="189" cy="96" r="3.75"/>
        <circle cx="234" cy="96" r="3.75"/>
        <circle cx="279" cy="96" r="3.75"/>
        <circle cx="278.998" cy="141.002" r="3.75"/>
        <circle cx="234" cy="141" r="3.75"/>
        <circle cx="188.998" cy="141.002" r="3.75"/>
        <circle cx="143.998" cy="141.002" r="3.75"/>
        <circle cx="98.998" cy="141.002" r="3.75"/>
        <circle cx="54" cy="141" r="3.75"/>
        <circle cx="9" cy="186" r="3.75"/>
        <circle cx="54" cy="186" r="3.75"/>
        <circle cx="98.998" cy="186.002" r="3.75"/>
        <circle cx="143.998" cy="186.002" r="3.75"/>
        <circle cx="188.998" cy="186.002" r="3.75"/>
        <circle cx="234" cy="186" r="3.75"/>
        <circle cx="279" cy="186" r="3.75"/>
        <circle cx="323.998" cy="186.002" r="3.75"/>
        <circle cx="278.998" cy="231.002" r="3.75"/>
        <circle cx="233.998" cy="231.002" r="3.75"/>
        <circle cx="189" cy="231" r="3.75"/>
        <circle cx="144" cy="231" r="3.75"/>
        <circle cx="99" cy="231" r="3.75"/>
        <circle cx="54" cy="231" r="3.75"/>
        <circle cx="54" cy="276" r="3.75"/>
        <circle cx="98.998" cy="276.002" r="3.75"/>
        <circle cx="144" cy="276" r="3.75"/>
        <circle cx="188.998" cy="276.002" r="3.75"/>
        <circle cx="234" cy="276" r="3.75"/>
        <circle cx="234" cy="321" r="3.75"/>
        <circle cx="188.998" cy="321.002" r="3.75"/>
        <circle cx="143.998" cy="321.002" r="3.75"/>
        <circle cx="98.998" cy="321.002" r="3.75"/>
        <circle cx="54" cy="321" r="3.75"/>
        <circle cx="144" cy="366" r="3.75"/>
    </g>
</svg>
