<svg xmlns="http://www.w3.org/2000/svg" xmlns:xlink="http://www.w3.org/1999/xlink" width="1056" height="816" viewBox="0 0 792 612"><defs><symbol overflow="visible" id="b"><path d="M5.188-10.813c0 .293-.09.536-.266.72-.18.187-.383.28-.61.28a.827.827 0 0 1-.625-.28.962.962 0 0 1-.25-.673c0-.277.083-.507.25-.687a.84.84 0 0 1 .626-.281c.246 0 .457.097.625.28.164.188.25.403.25.642zM-1.266 1.829c.2 0 .371.055.516.172a.58.58 0 0 1 .203.453.776.776 0 0 1-.11.36c-.07.144-.109.234-.109.265 0 .09.04.149.11.172a.677.677 0 0 0 .234.047c.387 0 .695-.258.938-.766.246-.511.515-1.34.796-2.484l1.547-6.39c.028-.122.047-.208.047-.25a.7.7 0 0 0 .016-.141c0-.196-.067-.329-.188-.391a1.15 1.15 0 0 0-.484-.094c-.125 0-.238.008-.328.016-.094 0-.211.008-.344.016v-.297c.29-.04.567-.079.828-.11A7.28 7.28 0 0 0 3-7.671c.07-.008.328-.062.766-.156.433-.102.707-.156.812-.156.04 0 .063.02.063.046a.188.188 0 0 1 0 .094L2.797-.53c-.357 1.4-.809 2.459-1.36 3.17-.542.707-1.21 1.062-2 1.062-.433 0-.789-.105-1.062-.312-.277-.2-.422-.446-.422-.735a.81.81 0 0 1 .235-.594.752.752 0 0 1 .546-.234zm0 0"/></symbol><symbol overflow="visible" id="d"><path d="M.328 0l1.516-5.406c.12-.457.195-.735.218-.828.02-.102.032-.207.032-.313a.53.53 0 0 0-.156-.406c-.094-.09-.278-.14-.547-.14-.075 0-.149.007-.22.015a2.447 2.447 0 0 1-.218.031v-.297c.383-.058.656-.11.813-.14.152-.028.328-.063.515-.094l1.578-.344a.23.23 0 0 1 .063.078L2.766-4.078c.707-1.09 1.3-1.906 1.78-2.438.84-.933 1.599-1.406 2.266-1.406.247 0 .47.05.657.14.351.2.531.552.531 1.048 0 .136-.02.285-.047.437-.023.156-.058.32-.11.484l-1.14 4.204c-.023.086-.05.191-.078.312a1.296 1.296 0 0 0-.047.266c0 .093.02.18.063.25.039.062.109.094.203.094.144 0 .316-.086.515-.266.196-.176.524-.555.985-1.14l.25.234c-.48.648-.864 1.101-1.14 1.359-.481.46-.942.688-1.376.688-.2 0-.394-.067-.578-.188-.18-.133-.266-.375-.266-.719 0-.09.004-.195.016-.312.008-.114.031-.211.063-.297l1.093-4.25a6.01 6.01 0 0 0 .125-.563 3.08 3.08 0 0 0 .032-.328.587.587 0 0 0-.11-.36c-.062-.1-.18-.155-.344-.155-.437 0-.992.398-1.656 1.187a13.021 13.021 0 0 0-1.187 1.688 8.553 8.553 0 0 0-.735 1.484c-.18.48-.46 1.355-.844 2.625zm0 0"/></symbol><symbol overflow="visible" id="e"><path d="M3.86-9.86a.84.84 0 0 1-.626-.265.98.98 0 0 1-.25-.688.94.94 0 0 1 .25-.671.84.84 0 0 1 .625-.282c.239 0 .442.098.61.282a.92.92 0 0 1 .265.671c0 .274-.09.504-.265.688a.8.8 0 0 1-.61.266zm.203 1.922c.027.024.046.051.046.079L2.344-1.61c-.086.336-.125.535-.125.593a.57.57 0 0 0 .047.235c.027.062.101.094.218.094.196 0 .461-.172.797-.516a9.23 9.23 0 0 0 .703-.875l.235.187-.094.125c-.438.618-.8 1.059-1.078 1.329-.461.417-.902.625-1.328.625a.77.77 0 0 1-.625-.313 1.13 1.13 0 0 1-.25-.734 2.6 2.6 0 0 1 .031-.454c.027-.12.078-.304.14-.546L2.25-6.375a2.24 2.24 0 0 1 .031-.172c.008-.058.016-.125.016-.187 0-.207-.082-.336-.235-.391-.148-.05-.449-.078-.906-.078v-.281c.489-.059.836-.11 1.047-.141.207-.027.422-.063.64-.094.278-.05.548-.101.798-.156.246-.059.39-.082.421-.063zm0 0"/></symbol><symbol overflow="visible" id="i"><path d="M.25 0l2.797-10.625c.008-.05.02-.102.031-.156.008-.051.016-.102.016-.156 0-.247-.082-.399-.235-.454-.148-.05-.464-.07-.953-.062v-.297c.332-.04.657-.082.969-.125.309-.04.55-.078.719-.11.05-.007.25-.05.594-.124.351-.082.546-.125.578-.125l.03.093-2.202 8.22c1.32-1.04 2.21-1.77 2.672-2.188.464-.414.703-.727.703-.938 0-.133-.067-.219-.188-.25-.125-.039-.398-.07-.812-.094v-.296h3.297v.296c-.438.032-.848.18-1.22.438-.366.25-1.304 1.027-2.812 2.328.79 1.855 1.286 2.973 1.485 3.344.195.375.398.562.61.562.175 0 .359-.125.546-.375a8.77 8.77 0 0 0 .547-.843l.281.171c-.375.688-.71 1.192-1 1.5-.293.309-.629.47-1 .47a.964.964 0 0 1-.672-.282c-.199-.184-.465-.629-.797-1.328a14.564 14.564 0 0 1-.468-1 23.14 23.14 0 0 1-.547-1.39l-.813.593L1.594 0zm0 0"/></symbol><symbol overflow="visible" id="c"><path d="M12.328-5.86c.266 0 .735-.124.735-.484s-.47-.515-.72-.515H1.594c-.25 0-.734.156-.734.515 0 .36.485.485.75.485zm.016 3.47c.25 0 .719-.126.719-.485 0-.36-.47-.5-.735-.5H1.61c-.265 0-.75.14-.75.5s.485.484.735.484zm0 0"/></symbol><symbol overflow="visible" id="f"><path d="M12.328-5.86c.266 0 .735-.124.735-.484s-.47-.515-.72-.515H1.594c-.25 0-.734.156-.734.515 0 .36.485.485.75.485zm.016 3.47c.25 0 .719-.126.719-.485 0-.36-.47-.5-.735-.5H1.61c-.265 0-.75.14-.75.5s.485.484.735.484zm0 0"/></symbol><symbol overflow="visible" id="h"><path d="M12.328-5.86c.266 0 .735-.124.735-.484s-.47-.515-.72-.515H1.594c-.25 0-.734.156-.734.515 0 .36.485.485.75.485zm.016 3.47c.25 0 .719-.126.719-.485 0-.36-.47-.5-.735-.5H1.61c-.265 0-.75.14-.75.5s.485.484.735.484zm0 0"/></symbol><symbol overflow="visible" id="j"><path d="M12.328-5.86c.266 0 .735-.124.735-.484s-.47-.515-.72-.515H1.594c-.25 0-.734.156-.734.515 0 .36.485.485.75.485zm.016 3.47c.25 0 .719-.126.719-.485 0-.36-.47-.5-.735-.5H1.61c-.265 0-.75.14-.75.5s.485.484.735.484zm0 0"/></symbol><symbol overflow="visible" id="k"><path d="M5.14-13.125c-.324 0-.6-.125-.827-.375a1.32 1.32 0 0 1-.329-.906c0-.352.11-.656.329-.906.226-.247.503-.376.828-.376.308 0 .582.13.812.376.227.25.344.554.344.906 0 .355-.117.66-.344.906-.23.25-.504.375-.812.375zm.282 2.547c.039.023.055.055.047.094l-2.36 8.343c-.105.438-.156.7-.156.782 0 .125.02.23.063.312.039.094.14.14.296.14.27 0 .618-.226 1.047-.687.258-.27.579-.66.954-1.172l.296.25-.109.172C4.914-1.53 4.43-.94 4.047-.578c-.594.555-1.18.828-1.75.828-.336 0-.617-.137-.844-.406a1.57 1.57 0 0 1-.328-1c0-.227.016-.426.047-.594a7.6 7.6 0 0 1 .187-.734l1.625-6c.02-.09.036-.176.047-.25a.993.993 0 0 0 .031-.235c0-.277-.105-.453-.312-.515-.2-.07-.602-.11-1.203-.11v-.39a36.14 36.14 0 0 0 1.39-.172c.278-.04.567-.086.86-.14.371-.06.726-.13 1.062-.204.332-.082.52-.105.563-.078zm0 0"/></symbol><symbol overflow="visible" id="m"><path d="M6.906-14.406c0 .386-.12.707-.36.953-.23.25-.495.375-.796.375-.313 0-.586-.125-.813-.375a1.279 1.279 0 0 1-.343-.906c0-.364.113-.664.343-.907.227-.238.5-.359.813-.359.332 0 .61.129.828.375.215.242.328.523.328.844zM-1.687 2.437c.273 0 .503.079.687.235a.764.764 0 0 1 .281.594c0 .144-.05.304-.156.484-.102.184-.156.305-.156.36 0 .113.054.187.156.218.105.04.21.063.313.063.511 0 .925-.34 1.25-1.016.32-.68.671-1.785 1.046-3.313l2.079-8.53a7.09 7.09 0 0 1 .062-.313.609.609 0 0 0 .031-.188c0-.27-.09-.445-.265-.531A1.462 1.462 0 0 0 3-9.625a6.58 6.58 0 0 0-.438.016 9.358 9.358 0 0 1-.468.03v-.405c.402-.04.785-.082 1.14-.125.352-.051.602-.086.75-.11.102-.02.446-.094 1.032-.219.582-.132.941-.203 1.078-.203.058 0 .093.02.093.047a.416.416 0 0 1 0 .14L3.735-.718c-.48 1.883-1.086 3.297-1.812 4.235-.73.933-1.629 1.406-2.688 1.406-.57 0-1.039-.137-1.406-.406-.363-.262-.547-.59-.547-.985 0-.312.106-.574.313-.781a.957.957 0 0 1 .719-.313zm0 0"/></symbol><symbol overflow="visible" id="n"><path d="M.531-.203c2.133-2.215 3.582-3.844 4.344-4.875.77-1.04 1.156-2.055 1.156-3.047 0-.863-.238-1.52-.703-1.969a2.291 2.291 0 0 0-1.672-.687c-.793 0-1.441.293-1.937.875-.274.324-.54.82-.797 1.484L.547-8.5c.289-1.34.785-2.273 1.484-2.797.696-.527 1.446-.797 2.25-.797.989 0 1.785.317 2.39.938.614.625.923 1.386.923 2.281 0 .96-.336 1.887-1 2.781-.657.887-2.09 2.465-4.297 4.735h4.031c.559 0 .953-.067 1.172-.204.227-.132.488-.46.781-.984l.219.11L7.531 0h-7zm0 0"/></symbol><symbol overflow="visible" id="o"><path d="M6.063 4.172c0-.047-.032-.172-.344-.484C3.484 1.438 2.937-1.86 2.937-4.61c0-3.125.657-6.157 2.86-8.391.234-.219.266-.344.266-.406 0-.125-.204-.313-.297-.313-.188 0-1.938 1.36-3 3.64-.922 1.97-1.141 3.97-1.141 5.47 0 1.406.203 3.562 1.188 5.593 1.078 2.204 2.765 3.5 2.953 3.5.093 0 .296-.171.296-.312zm0 0"/></symbol><symbol overflow="visible" id="q"><path d="M5.313-4.61c0-1.406-.204-3.562-1.188-5.593-1.078-2.203-2.75-3.516-2.922-3.516-.11 0-.328.219-.328.313 0 .062.047.187.375.515C3.016-11.125 4-8.359 4-4.609c0 3.062-.625 6.14-2.86 8.39-.218.219-.265.344-.265.39 0 .11.219.313.328.313.172 0 1.922-1.343 2.969-3.625.922-1.968 1.14-3.968 1.14-5.468zm0 0"/></symbol><symbol overflow="visible" id="p"><path d="M11.86-4.125c.25 0 .718-.125.718-.484 0-.36-.469-.5-.719-.5H2.08c-.25 0-.735.14-.735.5 0 .359.484.484.734.484zm0 0"/></symbol><symbol overflow="visible" id="r"><path d="M3.172-12.719L.453-12.5v.813c1.39 0 1.39 0 1.39.874v9.329c0 .796-.046.656-1.39.656v.844a66.197 66.197 0 0 1 2.125-.063c.453 0 1.328.031 2.125.063v-.844c-1.328 0-1.406.14-1.406-.656V-12.72zm0 0"/></symbol><symbol overflow="visible" id="s"><path d="M1.828-6.297v4.813c0 .796-.047.656-1.39.656v.844a66.54 66.54 0 0 1 2.156-.063c.469 0 1.406.031 2.14.063v-.844c-1.328 0-1.39.14-1.39-.656v-3.313c0-1.86 1.14-2.734 2.281-2.734 1.14 0 1.188.843 1.188 1.86v4.187c0 .796-.047.656-1.391.656v.844a67.345 67.345 0 0 1 2.172-.063c.453 0 1.39.031 2.125.063v-.844c-1.063 0-1.375.14-1.39-.39v-3.423c0-1.546-.048-2.187-.595-2.843-.25-.297-.937-.72-1.968-.72-1.313 0-2.297.923-2.813 2.032h.281v-2.031l-2.796.219v.812c1.39 0 1.39 0 1.39.875zm0 0"/></symbol><symbol overflow="visible" id="t"><path d="M11.86-4.125c.25 0 .718-.125.718-.484 0-.36-.469-.5-.719-.5H2.08c-.25 0-.735.14-.735.5 0 .359.484.484.734.484zm0 0"/></symbol><symbol overflow="visible" id="u"><path d="M12.703 42.063c0-.079-.078-.141-.11-.204a19.522 19.522 0 0 1-3.062-3.797c-2.89-4.624-4.171-10.42-4.171-17.327 0-4.828.61-11 3.579-16.343 1.406-2.547 2.89-4.016 3.671-4.797a.464.464 0 0 0 .094-.203c0-.188-.265-.25-.531-.25-.25 0-.406.03-.672.296C5.484 4.923 3.562 13.172 3.562 20.72c0 7.047 1.657 14.203 6.22 19.562.359.422 1.03 1.157 1.765 1.797.219.219.375.234.625.234.265 0 .531-.062.531-.25zm0 0"/></symbol><symbol overflow="visible" id="y"><path d="M9.594 20.734c0-7.047-1.64-14.187-6.203-19.547A18.727 18.727 0 0 0 1.609-.609C1.406-.83 1.25-.86 1-.86c-.203 0-.531.062-.531.25 0 .078.11.203.14.234.625.64 1.829 1.844 3.032 3.781C6.53 8.031 7.797 13.812 7.797 20.72c0 4.828-.61 11.015-3.563 16.36-1.421 2.546-2.906 4.03-3.656 4.78-.047.063-.11.157-.11.203 0 .188.329.25.532.25.25 0 .406-.015.672-.28 6-5.47 7.922-13.75 7.922-21.298zm0 0"/></symbol><symbol overflow="visible" id="v"><path d="M3.172-12.719L.453-12.5v.813c1.39 0 1.39 0 1.39.874v9.329c0 .796-.046.656-1.39.656v.844a66.197 66.197 0 0 1 2.125-.063c.453 0 1.328.031 2.125.063v-.844c-1.328 0-1.406.14-1.406-.656V-12.72zm0 0"/></symbol><symbol overflow="visible" id="w"><path d="M1.828-6.297v4.813c0 .796-.047.656-1.39.656v.844a66.54 66.54 0 0 1 2.156-.063c.469 0 1.406.031 2.14.063v-.844c-1.328 0-1.39.14-1.39-.656v-3.313c0-1.86 1.14-2.734 2.281-2.734 1.14 0 1.188.843 1.188 1.86v4.187c0 .796-.047.656-1.391.656v.844a67.345 67.345 0 0 1 2.172-.063c.453 0 1.39.031 2.125.063v-.844c-1.063 0-1.375.14-1.39-.39v-3.423c0-1.546-.048-2.187-.595-2.843-.25-.297-.937-.72-1.968-.72-1.313 0-2.297.923-2.813 2.032h.281v-2.031l-2.796.219v.812c1.39 0 1.39 0 1.39.875zm0 0"/></symbol><symbol overflow="visible" id="x"><path d="M11.86-4.125c.25 0 .718-.125.718-.484 0-.36-.469-.5-.719-.5H2.08c-.25 0-.735.14-.735.5 0 .359.484.484.734.484zm0 0"/></symbol><clipPath id="a"><path d="M650 99h7v17h-7zm0 0"/></clipPath><clipPath id="g"><path d="M651 371h8v17h-8zm0 0"/></clipPath><clipPath id="l"><path d="M173 331h10v22h-10zm0 0"/></clipPath></defs><path d="M216 226l117-117M216 217l108-108m-108 99l99-99m-99 90l90-90m-90 81l81-81m-81 72l72-72m-72 63l63-63m-63 54l54-54m-54 45l45-45m-45 36l36-36m-36 27l27-27m-27 18l18-18m-18 9l9-9" fill="none" stroke="#0cf"/><path d="M216 370l126-126M216 361l126-126M216 352l126-126m0-9L216 343m0-9l126-126m0-9L216 325m0-9l126-126m0-9L216 307m0-9l126-126M216 289l126-126M216 280l126-126m0-9L216 271m0-9l126-126m0-9L216 253m0-9l126-126" fill="none" stroke="#7800ff"/><path d="M342 370h9m-9-9h18m-18-9h27m-27-9h36m-36-9h45m-45-9h54m-54-9h63m-63-9h72m-72-9h81m-81-9h90m-90-9h99m-99-9h108m-108-9h117m-117-9h126m-126-9h135m-135-9h144m-144-9h153m-153-9h162m-162-9h171m-171-9h180m-180-9h189m-189-9h198m-198-9h207m-207-9h216m-216-9h225m-225-9h234m-234-9h243m-243-9h252m-252-9h261" fill="none" stroke="#f69"/><path d="M333 379l9-9m-18 9l18-18m-27 18l27-27m-36 27l36-36m-45 36l45-45m-54 45l54-54m-63 54l63-63m-72 63l72-72m-81 72l81-81m-90 81l90-90m-99 90l99-99m-108 99l108-108M225 379l117-117" fill="none" stroke="#7dff00"/><path d="M180 505h468" fill="none" stroke-width="2" stroke="#000"/><path d="M660.07 505c-5.68 2.105-12.726 5.703-17.093 9.512l3.437-9.512-3.437-9.512c4.367 3.809 11.414 7.407 17.093 9.512"/><path d="M216 541V73" fill="none" stroke-width="2" stroke="#000"/><path d="M216 60.93c2.105 5.68 5.703 12.726 9.512 17.093L216 74.586l-9.512 3.437c3.809-4.367 7.407-11.414 9.512-17.093"/><path d="M198 523L648 73m-432 36h432m0 270H216l126-126" fill="none" stroke-width="2" stroke="#000" stroke-dasharray="3"/><g clip-path="url(#a)"><use xlink:href="#b" x="651.589" y="111.424"/></g><use xlink:href="#c" x="661.561" y="111.424"/><use xlink:href="#d" x="680.488" y="111.424"/><use xlink:href="#e" x="639.587" y="67.424"/><use xlink:href="#f" x="649.55" y="67.424"/><use xlink:href="#b" x="668.477" y="67.424"/><g clip-path="url(#g)"><use xlink:href="#b" x="652.94" y="383.424"/></g><use xlink:href="#h" x="662.912" y="383.424"/><use xlink:href="#i" x="681.839" y="383.424"/><use xlink:href="#e" x="345.94" y="86.424"/><use xlink:href="#j" x="355.912" y="86.424"/><use xlink:href="#i" x="374.839" y="86.424"/><use xlink:href="#k" x="382.37" y="549.238"/><g clip-path="url(#l)"><use xlink:href="#m" x="175.37" y="347.238"/></g><path d="M342 523V73m0 36L216 235" fill="none" stroke-width="2" stroke="#000" stroke-dasharray="3"/><path d="M225 379v117m9-117v108m9-108v99m9-99v90m9-90v81m9-81v72m9-72v63m9-63v54m9-54v45m9-45v36m9-36v27m9-27v18m9-18v9" fill="none" stroke="#f90"/><path d="M283 412c0 6.629-5.371 12-12 12h-21c-6.629 0-12-5.371-12-12v-3c0-6.629 5.371-12 12-12h21c6.629 0 12 5.371 12 12zm0 0" fill="#fff" stroke="#f90"/><use xlink:href="#n" x="250.403" y="416.424"/><use xlink:href="#i" x="259.367" y="416.424"/><path d="M277.75 344.5c0-6.629 5.371-12 12-12h21c6.629 0 12 5.371 12 12v3c0 6.629-5.371 12-12 12h-21c-6.629 0-12-5.371-12-12zm0 0" fill="#fff" stroke="#7dff00"/><use xlink:href="#n" x="290.153" y="351.924"/><use xlink:href="#i" x="299.117" y="351.924"/><path d="M468 183c0 6.629-5.371 12-12 12h-57c-6.629 0-12-5.371-12-12v-12c0-6.629 5.371-12 12-12h57c6.629 0 12 5.371 12 12zm0 0" fill="#fff" stroke="#f69"/><use xlink:href="#n" x="396.493" y="181.424"/><use xlink:href="#o" x="405.457" y="181.424"/><use xlink:href="#d" x="412.432" y="181.424"/><use xlink:href="#p" x="425.383" y="181.424"/><use xlink:href="#i" x="443.308" y="181.424"/><use xlink:href="#q" x="451.58" y="181.424"/><path d="M236.441 251.438c0 6.628 5.375 12 12 12h72c6.63 0 12-5.372 12-12v-27c0-6.625-5.37-12-12-12h-72c-6.625 0-12 5.375-12 12zm0 0" fill="#fff" stroke="#7800ff"/><use xlink:href="#n" x="243.162" y="243.552"/><use xlink:href="#i" x="252.126" y="243.552"/><use xlink:href="#r" x="263.385" y="243.552"/><use xlink:href="#s" x="268.37" y="243.552"/><use xlink:href="#d" x="283.464" y="231.42"/><use xlink:href="#t" x="296.415" y="231.42"/><use xlink:href="#i" x="314.35" y="231.42"/><path d="M283.465 239.063h39.156" fill="none" stroke-width=".72" stroke="#000"/><use xlink:href="#i" x="298.908" y="255.846"/><path d="M99 169c0 6.629 5.371 12 12 12h129c6.629 0 12-5.371 12-12v-30c0-6.629-5.371-12-12-12H111c-6.629 0-12 5.371-12 12zm0 0" fill="#fff" stroke="#0cf"/><use xlink:href="#n" x="104.578" y="158.206"/><use xlink:href="#u" x="116.53" y="132.916"/><use xlink:href="#d" x="129.733" y="158.206"/><use xlink:href="#v" x="141.685" y="158.206"/><use xlink:href="#w" x="146.67" y="158.206"/><use xlink:href="#d" x="176.866" y="146.074"/><path d="M161.773 153.723h39.16" fill="none" stroke-width=".72" stroke="#000"/><use xlink:href="#d" x="161.773" y="170.509"/><use xlink:href="#x" x="174.724" y="170.509"/><use xlink:href="#i" x="192.659" y="170.509"/><use xlink:href="#x" x="207.061" y="158.206"/><use xlink:href="#i" x="224.996" y="158.206"/><use xlink:href="#y" x="233.269" y="132.916"/><path d="M396 541h72" fill="none" stroke-width="2" stroke="#000"/><path d="M477.055 541c-4.262 1.578-9.547 4.277-12.825 7.133l2.582-7.133-2.582-7.133c3.278 2.856 8.563 5.555 12.825 7.133"/><path d="M180 325v-72" fill="none" stroke-width="2" stroke="#000"/><path d="M180 243.945c1.582 4.262 4.277 9.547 7.133 12.825L180 254.188l-7.133 2.582c2.856-3.278 5.555-8.563 7.133-12.825"/></svg>