<svg xmlns="http://www.w3.org/2000/svg" width="862" height="607"><g fill="#005028" font-family="'Times-Bold'" font-size="12"><text transform="translate(330 338)">1</text><text transform="translate(364.2 338)">2</text><text transform="translate(398.4 338)">4</text><text transform="translate(432.6 338)">8</text><text transform="translate(466.8 338)">16</text><text transform="translate(501 338)">32</text><text transform="translate(535.2 338)">1:04</text><text transform="translate(569.4 338)">2:08</text><text transform="translate(603.6 338)">4:16</text><text transform="translate(637.8 338)">8:32</text><text transform="translate(672 338)">17:04</text><text transform="translate(706.2 338)">34:08</text><text transform="translate(295.8 338)">30</text><text transform="translate(261.6 338)">15</text><text transform="translate(227.4 338)">7:30</text><text transform="translate(193.2 338)">3:45</text><text transform="translate(295.8 303.8)">3</text><text transform="translate(261.6 269.6)">9</text><text transform="translate(227.4 235.4)">27</text><text transform="translate(193.2 201.2)">1:21</text><text transform="translate(261.6 303.8)">1:30</text><text transform="translate(227.4 303.8)">45</text><text transform="translate(193.2 303.8)">22:30</text><text transform="translate(159 303.8)">11:15</text><text transform="translate(227.4 269.6)">4:30</text><text transform="translate(193.2 269.6)">2:15</text><text transform="translate(124.8 269.6)">33:45</text><text transform="translate(330 303.8)">6</text><text transform="translate(364.2 303.8)">12</text><text transform="translate(398.4 303.8)">24</text><text transform="translate(432.6 303.8)">48</text><text transform="translate(466.8 303.8)">1:36</text><text transform="translate(501 303.8)">3:12</text><text transform="translate(535.2 303.8)">6:24</text><text transform="translate(569.4 303.8)">12:48</text><text transform="translate(603.6 303.8)">25:36</text><text transform="translate(637.8 303.8)">51:12</text><text transform="translate(295.8 269.6)">18</text><text transform="translate(330 269.6)">36</text><text transform="translate(364.2 269.6)">1:12</text><text transform="translate(398.4 269.6)">2:24</text><text transform="translate(432.6 269.6)">4:48</text><text transform="translate(466.8 269.6)">9:36</text><text transform="translate(501 269.6)">19:12</text><text transform="translate(535.2 269.6)">38:24</text><text transform="translate(261.6 235.4)">54</text><text transform="translate(295.8 235.4)">1:48</text><text transform="translate(330 235.4)">3:36</text><text transform="translate(364.2 235.4)">7:12</text><text transform="translate(398.4 235.4)">14:24</text><text transform="translate(432.6 235.4)">28:48</text><text transform="translate(466.8 235.4)">57:36</text><text transform="translate(124.8 338)">56:15</text><text transform="translate(295.8 372.2)">5</text><text transform="translate(330 372.2)">10</text><text transform="translate(364.2 372.2)">20</text><text transform="translate(398.4 372.2)">40</text><text transform="translate(432.6 372.2)">1:20</text><text transform="translate(466.8 372.2)">2:40</text><text transform="translate(501 372.2)">5:20</text><text transform="translate(535.2 372.2)">10:40</text><text transform="translate(569.4 372.2)">21:20</text><text transform="translate(603.6 372.2)">42:40</text><text transform="translate(261.6 406.4)">25</text><text transform="translate(295.8 406.4)">50</text><text transform="translate(330 406.4)">1:40</text><text transform="translate(364.2 406.4)">3:20</text><text transform="translate(398.4 406.4)">6:40</text><text transform="translate(432.6 406.4)">13:20</text><text transform="translate(466.8 406.4)">26:40</text><text transform="translate(501 406.4)">53:20</text><text transform="translate(261.6 372.2)">2:30</text><text transform="translate(227.4 372.2)">1:15</text><text transform="translate(227.4 440.6)">2:05</text><text transform="translate(261.6 440.6)">4:10</text><text transform="translate(295.8 440.6)">8:20</text><text transform="translate(330 440.6)">16:40</text><text transform="translate(364.2 440.6)">33:20</text><text transform="translate(227.4 201.2)">2:42</text><text transform="translate(261.6 201.2)">5:24</text><text transform="translate(295.8 201.2)">10:48</text><text transform="translate(330 201.2)">21:36</text><text transform="translate(364.2 201.2)">43:12</text><text transform="translate(159 167)">4:03</text><text transform="translate(193.2 167)">8:06</text><text transform="translate(227.4 167)">16:12</text><text transform="translate(261.6 167)">32:24</text><text transform="translate(193.2 406.4)">6:15</text><text transform="translate(159 372.2)">18:45</text><text transform="translate(159 235.4)">6:45</text><text transform="translate(193.2 474.8)">10:25</text><text transform="translate(227.4 474.8)">20:50</text><text transform="translate(261.6 474.8)">41:40</text><text transform="translate(124.8 132.8)">12:09</text><text transform="translate(159 132.8)">24:18</text><text transform="translate(193.2 132.8)">48:36</text><text transform="translate(124.8 201.2)">20:15</text><text transform="translate(159 201.2)">40:30</text><text transform="translate(227.4 406.4)">12:30</text><text transform="translate(193.2 235.4)">13:30</text><text transform="translate(193.2 372.2)">37:30</text><text transform="translate(159 440.6)">31:15</text><text transform="translate(90.6 98.6)">36:27</text><text transform="translate(159 509)">52:05</text></g><path stroke="#FFDCDC" stroke-width="20" d="M753 338h63"/><path fill="#FFDCDC" d="M846.176 338c-14.199 5.269-31.816 14.258-42.734 23.774L812.04 338l-8.599-23.774c10.918 9.516 28.536 18.508 42.735 23.774z"/><path stroke="#FFDCDC" stroke-width="20" d="M78 77L33 32"/><path fill="#FFDCDC" d="M11.663 10.663c13.766 6.315 32.58 12.416 47.029 13.407L35.8 34.8 25.07 57.691c-.992-14.449-7.091-33.264-13.407-47.028z"/><path stroke="#FFDCDC" stroke-width="20" d="M150 527l-45 45"/><path fill="#FFDCDC" d="M83.663 593.338c6.315-13.766 12.416-32.58 13.407-47.029L107.8 569.2l22.892 10.73c-14.45.992-33.265 7.091-47.029 13.408z"/><g fill="#8F0000" font-family="'Helvetica'" font-size="48"><text transform="translate(753 401)">x 2</text><text transform="translate(87 59)">x 3</text><text transform="translate(357 149)">x 6</text><text transform="translate(366 527)">x 10</text><text transform="translate(141 581)">x 5</text></g><path stroke="#FFDCDC" stroke-width="20" d="M330 158V95"/><path fill="#FFDCDC" d="M330 64.824c5.269 14.199 14.258 31.816 23.774 42.734L330 98.96l-23.774 8.599c9.517-10.918 18.508-28.536 23.774-42.735z"/><g><path stroke="#FFDCDC" stroke-width="20" d="M339 482v63"/><path fill="#FFDCDC" d="M339 575.176c-5.269-14.199-14.258-31.816-23.774-42.734L339 541.04l23.774-8.599c-9.516 10.918-18.507 28.536-23.774 42.735z"/></g></svg>