<svg xmlns="http://www.w3.org/2000/svg" width="710" height="590"><path d="M638.734 142.836L517.969 22.07M226.418 142.836L347.184 22.07M226.418 313.617V142.836m291.551 291.547l120.765-120.766m-291.55 120.766L226.418 313.617m120.766 120.766h170.785M188.152 32.508l38.266 110.328m397.238 325.18l-105.687-33.633m-329.817 33.633l38.266-154.399m-38.266 154.399l159.032-33.633m-221.133 88.203l62.101-54.57" fill="none" stroke="#6687A5" stroke-width="1.5"/><path d="M431.578 63.305l167.61-13.86M222.84 63.305l-96.789-13.86m96.789 13.86h208.738m147.594 147.601l20.016-161.461M75.238 210.906L222.84 63.305m356.332 356.336l20.016 102.945m-20.016-102.945V210.906M431.578 567.242l147.594-147.601M222.84 567.242L75.238 419.641" fill="none" stroke="#FFF" stroke-width="8"/><path d="M347.184 22.07h170.785m120.765 291.547V142.836M623.656 32.508L517.969 22.07m105.687 10.438l15.078 110.328M188.152 32.508L347.184 22.07m276.472 445.946l15.078-154.399M599.188 49.445l24.468-16.937M126.051 49.445l62.101-16.937m411.036 490.078l24.468-54.57M431.578 63.305l167.61-13.86M222.84 63.305l-96.789-13.86m96.789 13.86h208.738m147.594 147.601l20.016-161.461m-20.016 161.461L431.578 63.305M75.238 210.906l50.813-161.461M75.238 210.906L222.84 63.305m356.332 356.336l20.016 102.945m-20.016-102.945V210.906M75.238 419.641l50.813 102.945M75.238 419.641V210.906m356.34 356.336l167.61-44.656m-167.61 44.656l147.594-147.601M222.84 567.242l-96.789-44.656m96.789 44.656L75.238 419.641M222.84 567.242h208.738" fill="none" stroke="#003368" stroke-width="2"/><text transform="translate(58.756 544.38)" font-family="Times,serif" font-size="18">(1,3,4,2)</text><text transform="translate(2.756 413.38)" font-family="Times,serif" font-size="18">(1,2,3,4)</text><text transform="translate(2.756 227.38)" font-family="Times,serif" font-size="18">(2,1,3,4)</text><text transform="translate(230.756 584.38)" font-family="Times,serif" font-size="18">(1,4,2,3)</text><text transform="translate(197.829 484.535)" font-family="Times,serif" font-size="18">(3,1,4,2)</text><text transform="translate(439.83 584.414)" font-family="Times,serif" font-size="18">(4,1,2,3)</text><text transform="translate(608.495 534.868)" font-family="Times,serif" font-size="18">(4,2,3,1)</text><text transform="translate(586.495 412.201)" font-family="Times,serif" font-size="18">(4,3,1,2)</text><text transform="translate(448.495 428.535)" font-family="Times,serif" font-size="18">(2,3,1,4)</text><text transform="rotate(-1.874 14869.36 -19153.45)" font-family="Times,serif" font-size="18">(2,4,3,1)</text><text transform="translate(645.495 307.201)" font-family="Times,serif" font-size="18">(2,1,4,3)</text><text transform="translate(53.495 49.202)" font-family="Times,serif" font-size="18">(2,4,1,3)</text><text transform="translate(172.495 20.202)" font-family="Times,serif" font-size="18">(4,2,1,3)</text><text transform="translate(358.495 16.202)" font-family="Times,serif" font-size="18">(4,1,3,2)</text><text transform="translate(233.495 157.202)" font-family="Times,serif" font-size="18">(4,3,2,1)</text><text transform="translate(362.495 55.202)" font-family="Times,serif" font-size="18">(3,2,4,1)</text><text transform="translate(530.495 45.202)" font-family="Times,serif" font-size="18">(3,1,2,4)</text><text transform="translate(509.495 221.202)" font-family="Times,serif" font-size="18">(3,4,1,2)</text><text transform="translate(529.495 16.202)" font-family="Times,serif" font-size="18">(1,4,3,2)</text><text transform="translate(634.495 29.202)" font-family="Times,serif" font-size="18">(1,3,2,4)</text><text transform="translate(644.495 133.202)" font-family="Times,serif" font-size="18">(1,2,4,3)</text><text transform="translate(229.495 55.202)" font-family="Times,serif" font-size="18">(2,3,4,1)</text><text transform="translate(355.829 428.535)" font-family="Times,serif" font-size="18">(3,2,1,4)</text><text transform="translate(233.495 305.535)" font-family="Times,serif" font-size="18">(3,4,2,1)</text><g fill="red" stroke="#000" stroke-width="2"><circle cx="431.578" cy="63.305" r="8"/><circle cx="347.184" cy="22.07" r="8"/><circle cx="188.152" cy="32.508" r="8"/><circle cx="226" cy="140.667" r="8"/><circle cx="222.84" cy="63.305" r="8"/><circle cx="126.051" cy="49.445" r="8"/><circle cx="75.238" cy="210.906" r="8"/><circle cx="579.172" cy="210.906" r="8"/><circle cx="599.188" cy="49.445" r="8"/><circle cx="517.969" cy="22.07" r="8"/><circle cx="623.656" cy="32.508" r="8"/><circle cx="638.734" cy="142.836" r="8"/><circle cx="226.418" cy="313.617" r="8"/><circle cx="347.184" cy="434.383" r="8"/><circle cx="188.152" cy="468.016" r="8"/><circle cx="75.238" cy="419.641" r="8"/><circle cx="126.051" cy="522.586" r="8"/><circle cx="222.84" cy="567.242" r="8"/><circle cx="431.578" cy="567.242" r="8"/><circle cx="579.172" cy="419.641" r="8"/><circle cx="599.188" cy="522.586" r="8"/><circle cx="623.656" cy="468.016" r="8"/><circle cx="517.969" cy="434.383" r="8"/><circle cx="638.734" cy="313.617" r="8"/></g></svg>