<svg xmlns="http://www.w3.org/2000/svg" width="793" height="709">
    <g fill="#FFFFE6" stroke="#000" stroke-width="2">
        <path d="M374.9 311.3v86.401l21.6 21.6 21.6-21.6V311.3l-21.6-21.6z"/>
        <path d="M396.5 289.7l21.6-21.599h86.4l21.601 21.599-21.601 21.6h-86.4zm0 129.601L374.9 440.9h-86.4l-21.6-21.599 21.6-21.6h86.4z"/>
        <path d="M504.5 311.3v216.001l21.601 21.599 21.598-21.599V311.3l-21.598-21.6zM245.301 181.699v216L266.9 419.3l21.599-21.601v-216l-21.599-21.6zm43.198 0l345.601.001 21.6-21.599-21.6-21.601H288.5l-21.6 21.599z"/>
        <path d="M158.899 570.5l345.6.001 21.602-21.601-21.602-21.599H158.9l-21.599 21.598zM634.1 181.7v475.2l21.6 21.601 21.601-21.601V181.7L655.7 160.101z"/>
        <path d="M115.699 52.099V527.3l21.602 21.599L158.9 527.3V52.099l-21.599-21.6z"/>
        <path d="M137.301 30.499l21.598-21.6h604.8l21.6 21.601-21.6 21.6-604.799-.001zM7.7 678.5l21.6-21.601h604.8l21.599 21.601-21.599 21.6H29.301z"/>
    </g>
    <g fill="none" stroke="#006B33" stroke-width=".75">
        <path d="M720.5 613.7V95.3H202.101v388.8h259.2V354.5H331.7V224.9h259.2v388.8H72.501V95.3"/>
        <path d="M75.201 95.301V611H588.2V227.601H385.701V300.5l21.6 108v72.9h-202.5V98h513v515.7"/>
        <path d="M83.301 95.301V602.9h496.8v-324h-64.8l-108 21.6-21.6 108-108 21.6H212.9V106.101h496.8l.001 507.599"/>
        <path d="M77.9 95.3v513h507.6V230.301H407.301V278.9l108 21.6L536.9 538.1v56.7H91.4V95.301"/>
        <path d="M715.101 613.7v-513h-507.6v378h178.2v-48.6l-108-21.6-21.6-237.6v-56.7h445.5v499.5"/>
        <path d="M80.601 95.301V605.6h502.2V233h-121.5v78.3L464 354.5v132.3H199.4V92.601h523.8l.001 521.099"/>
        <path d="M712.4 613.7V103.4H210.2l.001 372.6h121.5v-78.3l-2.7-43.2V222.2h264.6v394.2h-523.8V95.301"/>
        <path d="M86.001 95.301V600.2H577.4V300.5h-40.5l-21.599 237.6-367.2 21.6"/>
        <path d="M707 613.7V108.8H215.601v299.7h40.5L277.7 170.9l367.2-21.6"/>
        <path d="M67.101 95.3v523.8h529.2V219.5h-270v70.2h-108V111.5h486v502.2"/>
        <path d="M725.9 613.7V89.9H196.701v399.6H466.7l.001-70.2h108l-.001 178.2H88.701V95.3"/>
        <path d="M644.9 170.9l-367.2-21.6.001-32.4H698.9v496.8m-237.599-432v-43.2m-313.2 399.6l367.2 21.6v32.4h-421.2V95.3m237.599 432v43.2"/>
    </g>
</svg>
