<svg xmlns="http://www.w3.org/2000/svg" width="502" height="283">
    <path fill="none" stroke="#000" stroke-width="1.5" d="M128.965 267.645l13.336-75.633m128.127 81.289l13.336-75.633m187.365 40.241l-38.4-66.51m58.832-49.37l-58.832 49.37M354.733 9.619L295.9 58.988M373.898 273.3l-13.336-75.632m72.167-26.269l-72.167 26.269m0 0h-76.798m-141.463-5.656l38.398-66.512m76.801 0h-76.801m76.795.006l26.27 72.168M70.131 165.745l72.17 26.267M295.9 58.988L237.066 9.622M180.699 125.5l-58.832-49.366M31.73 232.256l38.401-66.511m0 0l-58.833-49.366M257.5 125.5l38.4-66.512"/>
    <path d="M128.965 267.645l13.336-75.633m128.127 81.289l13.336-75.633m187.365 40.241l-38.4-66.51m58.832-49.37l-58.832 49.37M354.733 9.619L295.9 58.988M373.898 273.3l-13.336-75.632m72.167-26.269l-72.167 26.269m0 0h-76.798m-141.463-5.656l38.398-66.512m76.801 0h-76.801m76.795.006l26.27 72.168M70.131 165.745l72.17 26.267M295.9 58.988L237.066 9.622M180.699 125.5l-58.832-49.366M31.73 232.256l38.401-66.511m0 0l-58.833-49.366M257.5 125.5l38.4-66.512" fill="#FFF"/>
    <g fill="red" stroke="#000" stroke-width=".75">
        <circle cx="237.066" cy="9.622" r="4.5"/>
        <circle cx="11.298" cy="116.379" r="4.5"/>
        <circle cx="31.73" cy="232.256" r="4.5"/>
        <circle cx="70.131" cy="165.745" r="4.5"/>
        <circle cx="142.301" cy="192.012" r="4.5"/>
        <circle cx="128.965" cy="267.645" r="4.5"/>
        <circle cx="180.699" cy="125.5" r="4.5"/>
        <circle cx="121.867" cy="76.134" r="4.5"/>
        <circle cx="257.5" cy="125.5" r="4.5"/>
        <circle cx="295.9" cy="58.988" r="4.5"/>
        <circle cx="354.733" cy="9.619" r="4.5"/>
        <circle cx="283.764" cy="197.668" r="4.5"/>
        <circle cx="270.428" cy="273.301" r="4.5"/>
        <circle cx="360.562" cy="197.668" r="4.5"/>
        <circle cx="373.898" cy="273.3" r="4.5"/>
        <circle cx="432.729" cy="171.399" r="4.5"/>
        <circle cx="471.129" cy="237.909" r="4.5"/>
        <circle cx="491.561" cy="122.029" r="4.5"/>
    </g>
</svg>
