<svg xmlns="http://www.w3.org/2000/svg" width="584" height="268">
    <g fill="none" stroke="#003CFF">
        <path d="M103.209 254.541l-55.942-32.299L14.968 166.3v-64.598L47.267 45.76l55.942-32.299h64.598L223.75 45.76l32.298 55.942V166.3l-32.298 55.942-55.943 32.299z"/>
        <path d="M77.529 75.762h116.478l-79.556 137.796-58.24-100.874h159.113l-58.239 100.874z"/>
        <path d="M114.451 54.444l-58.24 100.874h159.113L157.085 54.444 77.528 192.24h116.479zm-11.242-40.983l11.242 40.983m51.829-40.983l-9.195 40.983m36.922 21.318L223.75 45.76m-8.426 66.924l40.724-10.982m-40.724 53.616l40.724 10.982m-62.041 25.94l29.743 30.002m-66.665-8.684l10.722 40.983m-53.356-40.983l-11.242 40.983M77.528 192.24l-30.261 30.002m8.944-66.924L14.968 166.3m41.243-53.616l-41.243-10.982m62.561-25.94L47.267 45.76m368.924 209.403l-55.942-32.299-32.298-55.941v-64.598l32.299-55.942 55.941-32.299h64.598l55.943 32.299 32.299 55.942v64.598l-32.299 55.941-55.943 32.299z"/>
        <path d="M431.937 195.085l-27.972-16.149-16.149-27.971v-32.299l16.15-27.972 27.971-16.149h32.298l27.972 16.149 16.149 27.972v32.299l-16.149 27.971-27.972 16.149zm-73.863-84.78l24.225-41.957m-.001 132.361l-24.224-41.956m114.629 66.18h-48.448m114.63-66.18l-24.225 41.956m0-132.361l24.225 41.957m-114.63-66.181h48.448m-56.512-30.04l15.746 60.461m32.298 0l16.554-60.461m11.418 76.61l44.525-44.311m-28.376 72.283l60.675-16.341m-60.675 48.64l60.675 15.958m-32.299 55.941l-44.525-43.928m-27.972 16.149l16.554 60.078m-64.598 0l15.746-60.078m-27.972-16.149l-43.716 43.928m-32.298-55.941l59.865-15.958m0-32.299l-59.865-16.341m32.299-55.942l43.716 44.311"/>
    </g>
    <g fill="red" stroke="#000">
        <circle cx="103.209" cy="13.461" r="5"/>
        <circle cx="166.28" cy="13.461" r="5"/>
        <circle cx="223.75" cy="45.76" r="5"/>
        <circle cx="256.048" cy="101.702" r="5"/>
        <circle cx="256.048" cy="166.3" r="5"/>
        <circle cx="223.75" cy="222.242" r="5"/>
        <circle cx="167.807" cy="254.541" r="5"/>
        <circle cx="103.209" cy="254.541" r="5"/>
        <circle cx="47.267" cy="222.242" r="5"/>
        <circle cx="14.968" cy="166.3" r="5"/>
        <circle cx="14.968" cy="101.702" r="5"/>
        <circle cx="47.267" cy="45.76" r="5"/>
        <circle cx="77.529" cy="75.762" r="5"/>
        <circle cx="114.451" cy="54.444" r="5"/>
        <circle cx="157.085" cy="54.444" r="5"/>
        <circle cx="194.007" cy="75.762" r="5"/>
        <circle cx="215.324" cy="112.684" r="5"/>
        <circle cx="215.324" cy="155.318" r="5"/>
        <circle cx="194.007" cy="192.24" r="5"/>
        <circle cx="157.085" cy="213.558" r="5"/>
        <circle cx="114.451" cy="213.558" r="5"/>
        <circle cx="77.528" cy="192.24" r="5"/>
        <circle cx="56.211" cy="155.318" r="5"/>
        <circle cx="56.211" cy="112.684" r="5"/>
        <circle cx="327.951" cy="102.325" r="5"/>
        <circle cx="358.074" cy="110.305" r="5"/>
        <circle cx="387.816" cy="118.666" r="5"/>
        <circle cx="403.966" cy="90.694" r="5"/>
        <circle cx="382.299" cy="68.348" r="5"/>
        <circle cx="360.25" cy="46.383" r="5"/>
        <circle cx="415.608" cy="12.838" r="5"/>
        <circle cx="424.255" cy="44.124" r="5"/>
        <circle cx="431.937" cy="74.545" r="5"/>
        <circle cx="464.235" cy="74.545" r="5"/>
        <circle cx="472.703" cy="44.124" r="5"/>
        <circle cx="480.789" cy="14.084" r="5"/>
        <circle cx="536.732" cy="46.383" r="5"/>
        <circle cx="514.66" cy="68.348" r="5"/>
        <circle cx="492.207" cy="90.694" r="5"/>
        <circle cx="508.356" cy="118.666" r="5"/>
        <circle cx="538.885" cy="110.305" r="5"/>
        <circle cx="569.031" cy="102.325" r="5"/>
        <circle cx="569.031" cy="166.923" r="5"/>
        <circle cx="538.885" cy="158.753" r="5"/>
        <circle cx="508.356" cy="150.965" r="5"/>
        <circle cx="492.207" cy="178.936" r="5"/>
        <circle cx="514.66" cy="200.709" r="5"/>
        <circle cx="536.732" cy="222.864" r="5"/>
        <circle cx="480.789" cy="255.163" r="5"/>
        <circle cx="472.703" cy="224.933" r="5"/>
        <circle cx="464.235" cy="195.085" r="5"/>
        <circle cx="431.937" cy="195.085" r="5"/>
        <circle cx="424.255" cy="224.933" r="5"/>
        <circle cx="416.191" cy="255.163" r="5"/>
        <circle cx="360.249" cy="222.864" r="5"/>
        <circle cx="382.298" cy="200.709" r="5"/>
        <circle cx="403.965" cy="178.936" r="5"/>
        <circle cx="387.816" cy="150.965" r="5"/>
        <circle cx="358.074" cy="158.753" r="5"/>
        <circle cx="327.951" cy="166.923" r="5"/>
    </g>
</svg>
