<?xml version="1.0" encoding="utf-8"?>
<!-- Generator: Adobe Illustrator 15.1.0, SVG Export Plug-In . SVG Version: 6.00 Build 0)  -->
<!DOCTYPE svg PUBLIC "-//W3C//DTD SVG 1.1//EN" "http://www.w3.org/Graphics/SVG/1.1/DTD/svg11.dtd">
<svg version="1.1" id="Layer_1" xmlns="http://www.w3.org/2000/svg" xmlns:xlink="http://www.w3.org/1999/xlink" x="0px" y="0px"
	 width="567px" height="486px" viewBox="0 0 567 486" enable-background="new 0 0 567 486" xml:space="preserve">
<line fill="none" stroke="#000000" stroke-width="2" x1="450.429" y1="124.949" x2="450.429" y2="199.949"/>
<line fill="none" stroke="#000000" stroke-width="2" x1="450.429" y1="124.949" x2="385.481" y2="87.449"/>
<line fill="none" stroke="#000000" stroke-width="2" x1="450.429" y1="124.949" x2="515.382" y2="87.449"/>
<path fill="none" stroke="#000000" stroke-width="2" d="M385.481,87.449c-31.066,17.936-41.713,57.66-23.777,88.727
	c17.936,31.063,57.658,41.709,88.725,23.774"/>
<path fill="none" stroke="#000000" stroke-width="2" d="M515.382,87.449c0-35.871-29.082-64.949-64.953-64.949
	s-64.947,29.078-64.947,64.949"/>
<path fill="none" stroke="#000000" stroke-width="2" d="M450.429,199.949c31.066,17.936,70.791,7.289,88.727-23.774
	c17.936-31.066,7.293-70.791-23.773-88.727l0,0"/>
<circle fill="#FF0000" stroke="#000000" cx="450.429" cy="124.949" r="10"/>
<circle fill="#FF0000" stroke="#000000" cx="416.621" cy="105.532" r="10"/>
<circle fill="#FF0000" stroke="#000000" cx="361" cy="176.875" r="10"/>
<circle fill="#FF0000" stroke="#000000" cx="538.451" cy="176.875" r="10"/>
<circle fill="#FF0000" stroke="#000000" cx="485.095" cy="105.532" r="10"/>
<circle fill="#FF0000" stroke="#000000" cx="450.429" cy="199.949" r="10"/>
<circle fill="#FF0000" stroke="#000000" cx="385.481" cy="87.449" r="10"/>
<circle fill="#FF0000" stroke="#000000" cx="515.382" cy="87.449" r="10"/>
<line fill="none" stroke="#000000" stroke-width="2" x1="452.97" y1="381.449" x2="452.97" y2="456.449"/>
<line fill="none" stroke="#000000" stroke-width="2" x1="452.97" y1="381.449" x2="388.022" y2="343.949"/>
<line fill="none" stroke="#000000" stroke-width="2" x1="452.97" y1="381.449" x2="517.923" y2="343.949"/>
<path fill="none" stroke="#000000" stroke-width="2" d="M388.022,343.949c-31.066,17.936-41.713,57.66-23.777,88.727
	c17.936,31.062,57.658,41.709,88.725,23.773"/>
<path fill="none" stroke="#000000" stroke-width="2" d="M517.923,343.949c0-35.871-29.082-64.949-64.953-64.949
	s-64.947,29.078-64.947,64.949"/>
<path fill="none" stroke="#000000" stroke-width="2" d="M452.97,456.449c31.066,17.936,70.791,7.289,88.727-23.773
	c17.936-31.066,7.293-70.791-23.773-88.727l0,0"/>
<circle fill="#FF0000" stroke="#000000" cx="452.97" cy="381.449" r="10"/>
<circle fill="#FF0000" stroke="#000000" cx="419.162" cy="362.033" r="10"/>
<circle fill="#FF0000" stroke="#000000" cx="452.97" cy="420.875" r="10"/>
<circle fill="#FF0000" stroke="#000000" cx="452.973" cy="279" r="10"/>
<circle fill="#FF0000" stroke="#000000" cx="487.636" cy="362.033" r="10"/>
<circle fill="#FF0000" stroke="#000000" cx="452.97" cy="456.449" r="10"/>
<circle fill="#FF0000" stroke="#000000" cx="388.022" cy="343.949" r="10"/>
<circle fill="#FF0000" stroke="#000000" cx="517.923" cy="343.949" r="10"/>
<polygon fill="#0081CD" stroke="#000000" stroke-width="2" points="90,211.5 162,175.5 234,211.5 "/>
<polygon fill="#0081CD" stroke="#000000" stroke-width="2" points="162,13.5 216,76.5 306,85.5 "/>
<polygon fill="#0081CD" stroke="#000000" stroke-width="2" points="162,13.5 18,85.5 99,76.5 "/>
<polygon fill="#0081CD" stroke="#000000" stroke-width="2" points="135,112.5 162,175.5 189,112.5 "/>
<line fill="none" stroke="#000000" stroke-width="6" x1="18" y1="85.5" x2="90" y2="211.5"/>
<line fill="none" stroke="#000000" stroke-width="6" x1="99" y1="76.5" x2="135" y2="112.5"/>
<line fill="none" stroke="#000000" stroke-width="6" x1="216" y1="76.5" x2="189" y2="112.5"/>
<line fill="none" stroke="#000000" stroke-width="6" x1="306" y1="85.5" x2="234" y2="211.5"/>
<line fill="none" stroke="#0081CD" stroke-width="2" x1="90" y1="211.5" x2="18" y2="85.5"/>
<line fill="none" stroke="#0081CD" stroke-width="2" x1="99" y1="76.5" x2="135" y2="112.5"/>
<line fill="none" stroke="#0081CD" stroke-width="2" x1="189" y1="112.5" x2="216" y2="76.5"/>
<line fill="none" stroke="#0081CD" stroke-width="2" x1="234" y1="211.5" x2="306" y2="85.5"/>
<circle fill="#FEC200" stroke="#000000" cx="18" cy="85.5" r="4.5"/>
<circle fill="#FEC200" stroke="#000000" cx="90" cy="211.5" r="4.5"/>
<circle fill="#FEC200" stroke="#000000" cx="99" cy="76.5" r="4.5"/>
<circle fill="#FEC200" stroke="#000000" cx="135" cy="112.5" r="4.5"/>
<circle fill="#FEC200" stroke="#000000" cx="189" cy="112.5" r="4.5"/>
<circle fill="#FEC200" stroke="#000000" cx="216" cy="76.5" r="4.5"/>
<circle fill="#FEC200" stroke="#000000" cx="162" cy="13.5" r="4.5"/>
<circle fill="#FEC200" stroke="#000000" cx="306" cy="85.5" r="4.5"/>
<circle fill="#FEC200" stroke="#000000" cx="234" cy="211.5" r="4.5"/>
<polygon fill="#0081CD" stroke="#000000" stroke-width="2" points="54,288 54,468 90,342 "/>
<polygon fill="#0081CD" stroke="#000000" stroke-width="2" points="270,468 234,342 270,288 "/>
<polygon fill="#0081CD" stroke="#000000" stroke-width="2" points="270,468 162,432 54,468 "/>
<polygon fill="#0081CD" stroke="#000000" stroke-width="2" points="126,360 162,396 198,360 "/>
<line fill="none" stroke="#000000" stroke-width="6" x1="90" y1="342" x2="126" y2="360"/>
<line fill="none" stroke="#000000" stroke-width="6" x1="198" y1="360" x2="234" y2="342"/>
<line fill="none" stroke="#000000" stroke-width="6" x1="162" y1="396" x2="162" y2="432"/>
<line fill="none" stroke="#000000" stroke-width="6" x1="54" y1="288" x2="270" y2="288"/>
<line fill="none" stroke="#0081CD" stroke-width="2" x1="54" y1="288" x2="270" y2="288"/>
<line fill="none" stroke="#0081CD" stroke-width="2" x1="234" y1="342" x2="198" y2="360"/>
<line fill="none" stroke="#0081CD" stroke-width="2" x1="126" y1="360" x2="90" y2="342"/>
<line fill="none" stroke="#0081CD" stroke-width="2" x1="162" y1="396" x2="162" y2="432"/>
<circle fill="#FEC200" stroke="#000000" cx="54" cy="288" r="4.5"/>
<circle fill="#FEC200" stroke="#000000" cx="270" cy="288" r="4.5"/>
<circle fill="#FEC200" stroke="#000000" cx="234" cy="342" r="4.5"/>
<circle fill="#FEC200" stroke="#000000" cx="198" cy="360" r="4.5"/>
<circle fill="#FEC200" stroke="#000000" cx="126" cy="360" r="4.5"/>
<circle fill="#FEC200" stroke="#000000" cx="90" cy="342" r="4.5"/>
<circle fill="#FEC200" stroke="#000000" cx="162" cy="396" r="4.5"/>
<circle fill="#FEC200" stroke="#000000" cx="162" cy="432" r="4.5"/>
<circle fill="#FEC200" stroke="#000000" cx="54" cy="468" r="4.5"/>
<circle fill="#FEC200" stroke="#000000" cx="270" cy="468" r="4.5"/>
<circle fill="#FEC200" stroke="#000000" cx="162" cy="175.5" r="4.5"/>
</svg>
