<?xml version="1.0" encoding="utf-8"?>
<!-- Generator: Adobe Illustrator 15.1.0, SVG Export Plug-In . SVG Version: 6.00 Build 0)  -->
<!DOCTYPE svg PUBLIC "-//W3C//DTD SVG 1.1//EN" "http://www.w3.org/Graphics/SVG/1.1/DTD/svg11.dtd">
<svg version="1.1" id="Layer_1" xmlns="http://www.w3.org/2000/svg" xmlns:xlink="http://www.w3.org/1999/xlink" x="0px" y="0px"
	 width="694px" height="394px" viewBox="0 0 694 394" enable-background="new 0 0 694 394" xml:space="preserve">
<polyline fill="none" stroke="#0081CD" stroke-width="2" stroke-miterlimit="10" points="267.997,88.86 195.998,130.431 
	270.408,131.822 "/>
<polyline fill="none" stroke="#0081CD" stroke-width="2" stroke-miterlimit="10" points="196,47.291 195.998,130.431 
	234.415,69.472 "/>
<polyline fill="none" stroke="#0081CD" stroke-width="2" stroke-miterlimit="10" points="52,213.568 33.998,16.116 195.998,130.431 
	159.998,68.077 "/>
<polyline fill="none" stroke="#0081CD" stroke-width="2" stroke-miterlimit="10" points="16,275.924 52,213.568 16,149.822 "/>
<polygon fill="none" stroke="#0081CD" stroke-width="2" stroke-miterlimit="10" points="195.998,130.431 70,78.472 52,213.568 
	52,47.294 "/>
<polygon fill="none" stroke="#0081CD" stroke-width="2" stroke-miterlimit="10" points="195.998,130.431 106,140.822 52,213.568 
	87.998,109.646 "/>
<line fill="none" stroke="#0081CD" stroke-width="2" stroke-miterlimit="10" x1="232" y1="359.066" x2="195.998" y2="296.709"/>
<polygon fill="none" stroke="#0081CD" stroke-width="2" stroke-miterlimit="10" points="195.998,296.709 69.999,348.672 52,213.568 
	51.999,379.85 "/>
<polygon fill="none" stroke="#0081CD" stroke-width="2" stroke-miterlimit="10" points="195.998,296.709 105.999,286.318 
	52,213.568 87.998,317.498 "/>
<polygon fill="none" stroke="#0081CD" stroke-width="2" stroke-miterlimit="10" points="195.998,296.709 231.999,214.815 
	195.998,130.431 267.997,213.568 "/>
<line fill="none" stroke="#0081CD" stroke-width="2" stroke-miterlimit="10" x1="160" y1="192.786" x2="195.998" y2="130.431"/>
<line fill="none" stroke="#0081CD" stroke-width="2" stroke-miterlimit="10" x1="126.157" y1="214.815" x2="52" y2="213.568"/>
<line fill="none" stroke="#0081CD" stroke-width="2" stroke-miterlimit="10" x1="195.998" y1="296.709" x2="160" y2="234.355"/>
<polyline fill="none" stroke="#0081CD" stroke-width="2" stroke-miterlimit="10" points="160,234.355 52,213.568 160,192.786 "/>
<polyline fill="none" stroke="#0081CD" stroke-width="2" stroke-miterlimit="10" points="160,234.355 195.998,130.431 
	126.157,214.815 "/>
<polyline fill="none" stroke="#0081CD" stroke-width="2" stroke-miterlimit="10" points="126.157,214.815 195.998,296.709 
	160,192.786 "/>
<polyline fill="none" stroke="#0081CD" stroke-width="2" stroke-miterlimit="10" points="52,213.568 195.998,296.709 
	195.998,130.431 "/>
<circle fill="#FFFFFF" stroke="#231F20" stroke-miterlimit="10" cx="160" cy="234.355" r="9"/>
<circle fill="#FFFFFF" stroke="#231F20" stroke-miterlimit="10" cx="126.157" cy="214.815" r="9"/>
<circle fill="#FFFFFF" stroke="#231F20" stroke-miterlimit="10" cx="160" cy="192.786" r="9"/>
<circle fill="#BC1E47" stroke="#231F20" stroke-miterlimit="10" cx="52" cy="213.568" r="9"/>
<circle fill="#BC1E47" stroke="#231F20" stroke-miterlimit="10" cx="195.998" cy="130.431" r="9"/>
<circle fill="#BC1E47" stroke="#231F20" stroke-miterlimit="10" cx="195.998" cy="296.709" r="9"/>
<circle fill="#FFFFFF" stroke="#231F20" stroke-miterlimit="10" cx="231.999" cy="214.815" r="9"/>
<circle fill="#FFFFFF" stroke="#231F20" stroke-miterlimit="10" cx="267.997" cy="213.568" r="9"/>
<circle fill="#FFFFFF" stroke="#231F20" stroke-miterlimit="10" cx="106" cy="140.822" r="9"/>
<circle fill="#FFFFFF" stroke="#231F20" stroke-miterlimit="10" cx="87.998" cy="109.646" r="9"/>
<circle fill="#FFFFFF" stroke="#231F20" stroke-miterlimit="10" cx="70" cy="78.472" r="9"/>
<circle fill="#FFFFFF" stroke="#231F20" stroke-miterlimit="10" cx="52" cy="47.294" r="9"/>
<circle fill="#FFFFFF" stroke="#231F20" stroke-miterlimit="10" cx="33.998" cy="16.116" r="9"/>
<circle fill="#FFFFFF" stroke="#231F20" stroke-miterlimit="10" cx="105.999" cy="286.318" r="9"/>
<circle fill="#FFFFFF" stroke="#231F20" stroke-miterlimit="10" cx="87.998" cy="317.498" r="9"/>
<circle fill="#FFFFFF" stroke="#231F20" stroke-miterlimit="10" cx="69.999" cy="348.672" r="9"/>
<circle fill="#FFFFFF" stroke="#231F20" stroke-miterlimit="10" cx="51.999" cy="379.85" r="9"/>
<circle fill="#FFFFFF" stroke="#231F20" stroke-miterlimit="10" cx="16" cy="275.924" r="9"/>
<circle fill="#FFFFFF" stroke="#231F20" stroke-miterlimit="10" cx="16" cy="149.822" r="9"/>
<circle fill="#FFFFFF" stroke="#231F20" stroke-miterlimit="10" cx="159.998" cy="68.077" r="9"/>
<circle fill="#FFFFFF" stroke="#231F20" stroke-miterlimit="10" cx="196" cy="47.291" r="9"/>
<circle fill="#FFFFFF" stroke="#231F20" stroke-miterlimit="10" cx="234.415" cy="69.472" r="9"/>
<circle fill="#FFFFFF" stroke="#231F20" stroke-miterlimit="10" cx="270.408" cy="131.822" r="9"/>
<circle fill="#FFFFFF" stroke="#231F20" stroke-miterlimit="10" cx="267.997" cy="88.86" r="9"/>
<circle fill="#FFFFFF" stroke="#231F20" stroke-miterlimit="10" cx="232" cy="359.066" r="9"/>
<path fill="none" stroke="#0081CD" stroke-width="2" stroke-miterlimit="10" d="M605.841,130.431"/>
<path fill="none" stroke="#0081CD" stroke-width="2" stroke-miterlimit="10" d="M605.841,130.431"/>
<path fill="none" stroke="#0081CD" stroke-width="2" stroke-miterlimit="10" d="M605.841,130.431"/>
<path fill="none" stroke="#0081CD" stroke-width="2" stroke-miterlimit="10" d="M461.843,213.568"/>
<polyline fill="none" stroke="#0081CD" stroke-width="2" stroke-miterlimit="10" points="605.841,130.431 479.843,78.472 
	461.843,213.568 "/>
<polygon fill="none" stroke="#0081CD" stroke-width="2" stroke-miterlimit="10" points="605.841,130.431 515.843,140.822 
	461.843,213.568 497.84,109.646 "/>
<path fill="none" stroke="#0081CD" stroke-width="2" stroke-miterlimit="10" d="M605.841,296.709"/>
<polyline fill="none" stroke="#0081CD" stroke-width="2" stroke-miterlimit="10" points="605.841,296.709 479.842,348.672 
	461.843,213.568 "/>
<polygon fill="none" stroke="#0081CD" stroke-width="2" stroke-miterlimit="10" points="605.841,296.709 515.842,286.318 
	461.843,213.568 497.84,317.498 "/>
<polygon fill="none" stroke="#0081CD" stroke-width="2" stroke-miterlimit="10" points="605.841,296.709 641.842,214.815 
	605.841,130.431 677.84,213.568 "/>
<line fill="none" stroke="#0081CD" stroke-width="2" stroke-miterlimit="10" x1="569.843" y1="192.786" x2="605.841" y2="130.431"/>
<line fill="none" stroke="#0081CD" stroke-width="2" stroke-miterlimit="10" x1="536" y1="214.815" x2="461.843" y2="213.568"/>
<line fill="none" stroke="#0081CD" stroke-width="2" stroke-miterlimit="10" x1="605.841" y1="296.709" x2="569.843" y2="234.355"/>
<polyline fill="none" stroke="#0081CD" stroke-width="2" stroke-miterlimit="10" points="569.843,234.355 461.843,213.568 
	569.843,192.786 "/>
<polyline fill="none" stroke="#0081CD" stroke-width="2" stroke-miterlimit="10" points="569.843,234.355 605.841,130.431 
	536,214.815 "/>
<polyline fill="none" stroke="#0081CD" stroke-width="2" stroke-miterlimit="10" points="536,214.815 605.841,296.709 
	569.843,192.786 "/>
<polyline fill="none" stroke="#0081CD" stroke-width="2" stroke-miterlimit="10" points="461.843,213.568 605.841,296.709 
	605.841,130.431 "/>
<circle fill="#FFFFFF" stroke="#231F20" stroke-miterlimit="10" cx="569.843" cy="234.355" r="9"/>
<circle fill="#FFFFFF" stroke="#231F20" stroke-miterlimit="10" cx="536" cy="214.815" r="9"/>
<circle fill="#FFFFFF" stroke="#231F20" stroke-miterlimit="10" cx="569.843" cy="192.786" r="9"/>
<circle fill="#BC1E47" stroke="#231F20" stroke-miterlimit="10" cx="461.843" cy="213.568" r="9"/>
<circle fill="#BC1E47" stroke="#231F20" stroke-miterlimit="10" cx="605.841" cy="130.431" r="9"/>
<circle fill="#BC1E47" stroke="#231F20" stroke-miterlimit="10" cx="605.841" cy="296.709" r="9"/>
<circle fill="#FFFFFF" stroke="#231F20" stroke-miterlimit="10" cx="641.842" cy="214.815" r="9"/>
<circle fill="#FFFFFF" stroke="#231F20" stroke-miterlimit="10" cx="677.84" cy="213.568" r="9"/>
<circle fill="#FFFFFF" stroke="#231F20" stroke-miterlimit="10" cx="515.843" cy="140.822" r="9"/>
<circle fill="#FFFFFF" stroke="#231F20" stroke-miterlimit="10" cx="497.84" cy="109.646" r="9"/>
<circle fill="#FFFFFF" stroke="#231F20" stroke-miterlimit="10" cx="479.843" cy="78.472" r="9"/>
<circle fill="#FFFFFF" stroke="#231F20" stroke-miterlimit="10" cx="515.842" cy="286.318" r="9"/>
<circle fill="#FFFFFF" stroke="#231F20" stroke-miterlimit="10" cx="497.84" cy="317.498" r="9"/>
<circle fill="#FFFFFF" stroke="#231F20" stroke-miterlimit="10" cx="479.842" cy="348.672" r="9"/>
<g>
	<g>
		<line fill="none" stroke="#FEC200" stroke-width="20" stroke-miterlimit="10" x1="311" y1="201.786" x2="390.824" y2="201.786"/>
		<g>
			<path fill="#FEC200" d="M421,201.786c-14.199,5.269-31.816,14.258-42.736,23.779l8.601-23.779l-8.601-23.774
				C389.184,187.533,406.801,196.522,421,201.786z"/>
		</g>
	</g>
</g>
</svg>
