<?xml version="1.0" encoding="utf-8"?>
<!-- Generator: Adobe Illustrator 15.1.0, SVG Export Plug-In . SVG Version: 6.00 Build 0)  -->
<!DOCTYPE svg PUBLIC "-//W3C//DTD SVG 1.1//EN" "http://www.w3.org/Graphics/SVG/1.1/DTD/svg11.dtd">
<svg version="1.1" id="Layer_1" xmlns="http://www.w3.org/2000/svg" xmlns:xlink="http://www.w3.org/1999/xlink" x="0px" y="0px"
	 width="458.881px" height="446.301px" viewBox="0 0 458.881 446.301" enable-background="new 0 0 458.881 446.301"
	 xml:space="preserve">
<path fill="none" stroke="#0081CD" stroke-width="0.8" d="M336.996,127.224c-4.19,3.996-6.957,9.457-7.698,15.203
	c-0.742,5.746,0.542,11.73,3.581,16.664c3.04,4.93,7.805,8.773,13.269,10.695c5.466,1.918,11.591,1.906,17.047-0.043"/>
<path fill="none" stroke="#0081CD" stroke-width="0.8" d="M237.516,90.656c-3.031,0.317-6.051,0.754-9.051,1.301"/>
<path fill="none" stroke="#0081CD" stroke-width="0.8" d="M217.332,94.547c4.27,15.074,11.555,29.285,21.297,41.555
	c9.746,12.269,21.937,22.586,35.652,30.16c13.719,7.574,28.941,12.398,44.517,14.113c15.573,1.711,31.483,0.305,46.515-4.109"/>
<path fill="none" stroke="#0081CD" stroke-width="0.8" d="M354.656,151.043c-4.223,2.387-7.562,6.293-9.259,10.836
	c-1.691,4.543-1.729,9.683-0.1,14.25c1.629,4.566,4.913,8.519,9.1,10.965c4.184,2.445,9.247,3.355,14.021,2.531"/>
<path fill="none" stroke="#0081CD" stroke-width="0.8" d="M326.98,117.853c-3.258,3.91-5.094,8.976-5.094,14.066
	s1.836,10.156,5.094,14.066c3.262,3.907,7.917,6.625,12.922,7.539c5.004,0.918,10.32,0.024,14.754-2.48"/>
<path fill="none" stroke="#0081CD" stroke-width="0.8" d="M326.98,117.853c-2.34-1.954-4.758-3.817-7.242-5.582"/>
<path fill="none" stroke="#0081CD" stroke-width="0.8" d="M319.738,112.271c-1.633,2.296-2.379,5.21-2.044,8.011
	c0.337,2.801,1.746,5.461,3.875,7.309c2.133,1.848,4.966,2.863,7.786,2.797c2.821-0.067,5.601-1.219,7.641-3.164"/>
<path fill="none" stroke="#0081CD" stroke-width="0.8" d="M319.738,112.271c-6.828-4.864-14.169-9.012-21.863-12.348"/>
<line fill="none" stroke="#0081CD" stroke-width="0.8" x1="318.621" y1="43.492" x2="297.875" y2="99.922"/>
<line fill="none" stroke="#0081CD" stroke-width="0.8" x1="397.815" y1="107.004" x2="354.652" y2="151.043"/>
<line fill="none" stroke="#0081CD" stroke-width="0.8" x1="334.145" y1="369.445" x2="267.164" y2="328.992"/>
<line fill="none" stroke="#0081CD" stroke-width="0.8" x1="334.145" y1="369.445" x2="339.75" y2="380.07"/>
<line fill="none" stroke="#0081CD" stroke-width="0.8" x1="324.914" y1="373.988" x2="267.164" y2="328.992"/>
<line fill="none" stroke="#0081CD" stroke-width="0.8" x1="318.621" y1="376.72" x2="267.164" y2="328.992"/>
<line fill="none" stroke="#0081CD" stroke-width="0.8" x1="312.228" y1="379.207" x2="267.164" y2="328.992"/>
<line fill="none" stroke="#0081CD" stroke-width="0.8" x1="305.742" y1="381.449" x2="267.164" y2="328.992"/>
<line fill="none" stroke="#0081CD" stroke-width="0.8" x1="285.848" y1="386.681" x2="267.164" y2="328.992"/>
<line fill="none" stroke="#0081CD" stroke-width="0.8" x1="285.848" y1="386.681" x2="302.452" y2="395"/>
<line fill="none" stroke="#0081CD" stroke-width="0.8" x1="285.848" y1="386.681" x2="288.234" y2="398.449"/>
<line fill="none" stroke="#0081CD" stroke-width="0.8" x1="285.848" y1="386.681" x2="273.794" y2="400.81"/>
<line fill="none" stroke="#0081CD" stroke-width="0.8" x1="265.488" y1="389.605" x2="267.164" y2="328.992"/>
<line fill="none" stroke="#0081CD" stroke-width="0.8" x1="241.5" y1="390.062" x2="267.164" y2="328.992"/>
<line fill="none" stroke="#0081CD" stroke-width="0.8" x1="241.5" y1="390.062" x2="251.897" y2="402.271"/>
<line fill="none" stroke="#0081CD" stroke-width="0.8" x1="241.5" y1="390.062" x2="229.984" y2="401.228"/>
<line fill="none" stroke="#0081CD" stroke-width="0.8" x1="258.645" y1="30.148" x2="255.785" y2="90.133"/>
<line fill="none" stroke="#0081CD" stroke-width="0.8" x1="339.75" y1="380.07" x2="345.355" y2="390.691"/>
<line fill="none" stroke="#0081CD" stroke-width="0.8" x1="345.355" y1="390.691" x2="354.581" y2="399.359"/>
<line fill="none" stroke="#0081CD" stroke-width="0.8" x1="345.355" y1="390.691" x2="347.306" y2="403.199"/>
<line fill="none" stroke="#0081CD" stroke-width="0.8" x1="408.137" y1="80.855" x2="417.438" y2="73.25"/>
<line fill="none" stroke="#0081CD" stroke-width="0.8" x1="299.181" y1="36.767" x2="297.875" y2="99.922"/>
<line fill="none" stroke="#0081CD" stroke-width="0.8" x1="348.91" y1="59.478" x2="319.738" y2="112.271"/>
<line fill="none" stroke="#0081CD" stroke-width="0.8" x1="354.573" y1="63.353" x2="319.738" y2="112.271"/>
<line fill="none" stroke="#0081CD" stroke-width="0.8" x1="426.978" y1="176.008" x2="368.419" y2="189.625"/>
<line fill="none" stroke="#0081CD" stroke-width="0.8" x1="425.552" y1="169.301" x2="368.419" y2="189.625"/>
<line fill="none" stroke="#0081CD" stroke-width="0.8" x1="331.098" y1="49.191" x2="297.875" y2="99.922"/>
<line fill="none" stroke="#0081CD" stroke-width="0.8" x1="70.43" y1="223.812" x2="58.211" y2="221.079"/>
<line fill="none" stroke="#0081CD" stroke-width="0.8" x1="70.43" y1="223.812" x2="58.77" y2="228.371"/>
<line fill="none" stroke="#0081CD" stroke-width="0.8" x1="70.43" y1="223.812" x2="59.602" y2="235.642"/>
<line fill="none" stroke="#0081CD" stroke-width="0.8" x1="70.43" y1="223.812" x2="57.934" y2="213.767"/>
<line fill="none" stroke="#0081CD" stroke-width="0.8" x1="191.145" y1="39.853" x2="217.332" y2="94.547"/>
<line fill="none" stroke="#0081CD" stroke-width="0.8" x1="197.668" y1="37.73" x2="217.332" y2="94.547"/>
<line fill="none" stroke="#0081CD" stroke-width="0.8" x1="217.66" y1="387.328" x2="267.164" y2="328.992"/>
<line fill="none" stroke="#0081CD" stroke-width="0.8" x1="191.145" y1="380.359" x2="267.164" y2="328.992"/>
<line fill="none" stroke="#0081CD" stroke-width="0.8" x1="354.573" y1="356.859" x2="267.164" y2="328.992"/>
<line fill="none" stroke="#0081CD" stroke-width="0.8" x1="343.105" y1="364.388" x2="267.164" y2="328.992"/>
<line fill="none" stroke="#0081CD" stroke-width="0.8" x1="204.27" y1="384.349" x2="267.164" y2="328.992"/>
<line fill="none" stroke="#0081CD" stroke-width="0.8" x1="210.938" y1="385.966" x2="267.164" y2="328.992"/>
<line fill="none" stroke="#0081CD" stroke-width="0.8" x1="184.707" y1="377.992" x2="204.371" y2="321.181"/>
<line fill="none" stroke="#0081CD" stroke-width="0.8" x1="178.363" y1="375.384" x2="204.371" y2="321.181"/>
<line fill="none" stroke="#0081CD" stroke-width="0.8" x1="197.668" y1="382.48" x2="267.164" y2="328.992"/>
<line fill="none" stroke="#0081CD" stroke-width="0.8" x1="348.91" y1="360.734" x2="267.164" y2="328.992"/>
<path fill="none" stroke="#0081CD" stroke-width="0.8" d="M147.812,273.105c5.598,9.086,12.411,17.422,20.208,24.711"/>
<line fill="none" stroke="#0081CD" stroke-width="0.8" x1="147.812" y1="273.105" x2="122.07" y2="336.892"/>
<line fill="none" stroke="#0081CD" stroke-width="0.8" x1="147.812" y1="273.105" x2="117.336" y2="331.927"/>
<line fill="none" stroke="#0081CD" stroke-width="0.8" x1="147.812" y1="273.105" x2="112.797" y2="326.785"/>
<line fill="none" stroke="#0081CD" stroke-width="0.8" x1="147.812" y1="273.105" x2="108.453" y2="321.474"/>
<path fill="none" stroke="#0081CD" stroke-width="0.8" d="M147.812,273.105c29.184-17.98,52.274-45.675,64.711-77.617
	c12.438-31.945,14.153-67.961,4.809-100.941"/>
<line fill="none" stroke="#0081CD" stroke-width="0.8" x1="147.812" y1="273.105" x2="89.938" y2="292.66"/>
<path fill="none" stroke="#0081CD" stroke-width="0.8" d="M168.02,297.816c1.668,1.562,3.382,3.079,5.14,4.543"/>
<line fill="none" stroke="#0081CD" stroke-width="0.8" x1="130.508" y1="221.523" x2="72.547" y2="240.828"/>
<path fill="none" stroke="#0081CD" stroke-width="0.8" d="M144.383,153.047c-11.227,20.793-16.121,44.953-13.875,68.476"/>
<path fill="none" stroke="#0081CD" stroke-width="0.8" d="M130.508,221.523c0.578,6.071,1.621,12.098,3.117,18.008"/>
<line fill="none" stroke="#0081CD" stroke-width="0.8" x1="130.508" y1="221.523" x2="70.43" y2="223.812"/>
<path fill="none" stroke="#0081CD" stroke-width="0.8" d="M133.625,239.531c2.984,11.824,7.789,23.192,14.187,33.574"/>
<line fill="none" stroke="#0081CD" stroke-width="0.8" x1="133.625" y1="239.531" x2="75.398" y2="254.246"/>
<path fill="none" stroke="#0081CD" stroke-width="0.8" d="M370.09,205.531c-9.149,0.352-18.171,3.547-25.504,9.035
	c-7.332,5.489-12.941,13.246-15.855,21.93c-2.911,8.681-3.117,18.25-0.578,27.052c2.538,8.801,7.809,16.788,14.899,22.59"/>
<path fill="none" stroke="#0081CD" stroke-width="0.8" d="M369.831,200.969c-9.512,0.722-18.775,4.355-26.245,10.289
	c-7.469,5.93-13.105,14.133-15.969,23.23c-2.859,9.098-2.929,19.051-0.198,28.192c2.729,9.136,8.25,17.418,15.633,23.457"/>
<path fill="none" stroke="#0081CD" stroke-width="0.8" d="M340.09,289.621c1.008-1.144,1.996-2.305,2.962-3.483"/>
<path fill="none" stroke="#0081CD" stroke-width="0.8" d="M343.052,286.138c9.167-11.215,16.284-24.099,20.889-37.832"/>
<line fill="none" stroke="#0081CD" stroke-width="0.8" x1="363.94" y1="248.306" x2="430.234" y2="210.105"/>
<line fill="none" stroke="#0081CD" stroke-width="0.8" x1="363.94" y1="248.306" x2="430.103" y2="216.965"/>
<line fill="none" stroke="#0081CD" stroke-width="0.8" x1="363.94" y1="248.306" x2="429.711" y2="223.812"/>
<line fill="none" stroke="#0081CD" stroke-width="0.8" x1="363.94" y1="248.306" x2="429.059" y2="230.642"/>
<line fill="none" stroke="#0081CD" stroke-width="0.8" x1="363.94" y1="248.306" x2="423.87" y2="257.562"/>
<line fill="none" stroke="#0081CD" stroke-width="0.8" x1="363.94" y1="248.306" x2="417.327" y2="277.066"/>
<line fill="none" stroke="#0081CD" stroke-width="0.8" x1="363.94" y1="248.306" x2="406.944" y2="298.695"/>
<path fill="none" stroke="#0081CD" stroke-width="0.8" d="M246.641,90.047c1,34.941,12.957,69.488,33.77,97.57
	c20.817,28.082,50.392,49.571,83.53,60.688"/>
<line fill="none" stroke="#0081CD" stroke-width="0.8" x1="363.94" y1="248.306" x2="401.633" y2="307.509"/>
<path fill="none" stroke="#0081CD" stroke-width="0.8" d="M365.312,176.267c-7.644,2.246-14.54,6.984-19.374,13.316
	c-4.836,6.336-7.591,14.234-7.744,22.203c-0.15,7.965,2.302,15.965,6.892,22.478c4.595,6.515,11.301,11.511,18.854,14.043"/>
<path fill="none" stroke="#0081CD" stroke-width="0.8" d="M363.94,248.306c4.607-13.731,6.704-28.301,6.149-42.774"/>
<path fill="none" stroke="#0081CD" stroke-width="0.8" d="M368.419,189.625c-6.596,1.141-12.778,4.535-17.282,9.488
	s-7.297,11.434-7.806,18.11c-0.508,6.672,1.271,13.5,4.971,19.082c3.694,5.578,9.292,9.871,15.639,12"/>
<line fill="none" stroke="#0081CD" stroke-width="0.8" x1="363.94" y1="248.306" x2="393.781" y2="318.759"/>
<path fill="none" stroke="#0081CD" stroke-width="0.8" d="M173.16,302.359c1.754,1.465,3.555,2.879,5.391,4.239"/>
<path fill="none" stroke="#0081CD" stroke-width="0.8" d="M178.551,306.599c1.226,0.91,2.469,1.793,3.726,2.651"/>
<path fill="none" stroke="#0081CD" stroke-width="0.8" d="M343.052,286.138c-11.958-9.778-25.915-17.103-40.754-21.379
	c-14.842-4.281-30.552-5.521-45.879-3.613c-15.325,1.906-30.255,6.957-43.595,14.742c-13.34,7.785-25.074,18.304-34.273,30.711"/>
<path fill="none" stroke="#0081CD" stroke-width="0.8" d="M363.94,248.306c-32.823-11.013-69.135-11.356-102.163-0.974
	c-33.031,10.388-62.609,31.449-83.227,59.267"/>
<path fill="none" stroke="#0081CD" stroke-width="0.8" d="M182.277,309.25c1.258,0.863,2.532,1.699,3.825,2.513"/>
<path fill="none" stroke="#0081CD" stroke-width="0.8" d="M186.102,311.763c1.933,1.215,3.906,2.379,5.906,3.483"/>
<line fill="none" stroke="#0081CD" stroke-width="0.8" x1="428.637" y1="186.165" x2="440.02" y2="180.945"/>
<line fill="none" stroke="#0081CD" stroke-width="0.8" x1="428.637" y1="186.165" x2="440.992" y2="188.199"/>
<line fill="none" stroke="#0081CD" stroke-width="0.8" x1="428.637" y1="186.165" x2="368.419" y2="189.625"/>
<line fill="none" stroke="#0081CD" stroke-width="0.8" x1="343.105" y1="55.824" x2="349.309" y2="45.54"/>
<line fill="none" stroke="#0081CD" stroke-width="0.8" x1="343.105" y1="55.824" x2="297.875" y2="99.922"/>
<line fill="none" stroke="#0081CD" stroke-width="0.8" x1="365.438" y1="71.728" x2="326.98" y2="117.853"/>
<line fill="none" stroke="#0081CD" stroke-width="0.8" x1="401.633" y1="112.704" x2="354.652" y2="151.043"/>
<line fill="none" stroke="#0081CD" stroke-width="0.8" x1="405.23" y1="118.543" x2="354.652" y2="151.043"/>
<line fill="none" stroke="#0081CD" stroke-width="0.8" x1="408.605" y1="124.517" x2="354.652" y2="151.043"/>
<line fill="none" stroke="#0081CD" stroke-width="0.8" x1="411.745" y1="130.613" x2="354.652" y2="151.043"/>
<line fill="none" stroke="#0081CD" stroke-width="0.8" x1="75.398" y1="254.246" x2="65.684" y2="264.246"/>
<line fill="none" stroke="#0081CD" stroke-width="0.8" x1="75.398" y1="254.246" x2="63.754" y2="257.188"/>
<line fill="none" stroke="#0081CD" stroke-width="0.8" x1="75.398" y1="254.246" x2="62.098" y2="250.06"/>
<line fill="none" stroke="#0081CD" stroke-width="0.8" x1="290.621" y1="410.224" x2="293.004" y2="421.992"/>
<line fill="none" stroke="#0081CD" stroke-width="0.8" x1="305.742" y1="38.762" x2="297.875" y2="99.922"/>
<line fill="none" stroke="#0081CD" stroke-width="0.8" x1="232.598" y1="413.539" x2="235.677" y2="425.82"/>
<line fill="none" stroke="#0081CD" stroke-width="0.8" x1="232.598" y1="413.539" x2="227.473" y2="425.117"/>
<line fill="none" stroke="#0081CD" stroke-width="0.8" x1="288.234" y1="398.449" x2="298.206" y2="408.535"/>
<line fill="none" stroke="#0081CD" stroke-width="0.8" x1="288.234" y1="398.449" x2="290.621" y2="410.224"/>
<line fill="none" stroke="#0081CD" stroke-width="0.8" x1="288.234" y1="398.449" x2="282.973" y2="411.621"/>
<line fill="none" stroke="#0081CD" stroke-width="0.8" x1="282.973" y1="411.621" x2="284.906" y2="423.478"/>
<line fill="none" stroke="#0081CD" stroke-width="0.8" x1="40.242" y1="158.027" x2="28.586" y2="155.133"/>
<line fill="none" stroke="#0081CD" stroke-width="0.8" x1="29.305" y1="64.902" x2="9.527" y2="74.267"/>
<line fill="none" stroke="#0081CD" stroke-width="0.8" x1="29.305" y1="64.902" x2="30.066" y2="43.04"/>
<line fill="none" stroke="#0081CD" stroke-width="0.8" x1="29.305" y1="64.902" x2="14.262" y2="66.204"/>
<line fill="none" stroke="#0081CD" stroke-width="0.8" x1="29.305" y1="64.902" x2="19.27" y2="58.306"/>
<line fill="none" stroke="#0081CD" stroke-width="0.8" x1="29.305" y1="64.902" x2="24.539" y2="50.579"/>
<line fill="none" stroke="#0081CD" stroke-width="0.8" x1="39.34" y1="71.504" x2="8" y2="104.165"/>
<line fill="none" stroke="#0081CD" stroke-width="0.8" x1="39.34" y1="71.504" x2="11.723" y2="96.035"/>
<line fill="none" stroke="#0081CD" stroke-width="0.8" x1="39.34" y1="71.504" x2="15.723" y2="88.031"/>
<line fill="none" stroke="#0081CD" stroke-width="0.8" x1="39.34" y1="71.504" x2="29.305" y2="64.902"/>
<line fill="none" stroke="#0081CD" stroke-width="0.8" x1="39.34" y1="71.504" x2="45.16" y2="43.273"/>
<line fill="none" stroke="#0081CD" stroke-width="0.8" x1="39.34" y1="71.504" x2="50.926" y2="36.435"/>
<line fill="none" stroke="#0081CD" stroke-width="0.8" x1="39.34" y1="71.504" x2="56.914" y2="29.793"/>
<line fill="none" stroke="#0081CD" stroke-width="0.8" x1="51.637" y1="74.728" x2="39.34" y2="71.504"/>
<line fill="none" stroke="#0081CD" stroke-width="0.8" x1="51.637" y1="74.728" x2="71.625" y2="31.849"/>
<line fill="none" stroke="#0081CD" stroke-width="0.8" x1="57.312" y1="87.949" x2="23.996" y2="128.902"/>
<line fill="none" stroke="#0081CD" stroke-width="0.8" x1="57.312" y1="87.949" x2="51.637" y2="74.728"/>
<line fill="none" stroke="#0081CD" stroke-width="0.8" x1="57.312" y1="87.949" x2="26.875" y2="121.301"/>
<line fill="none" stroke="#0081CD" stroke-width="0.8" x1="67.457" y1="94.379" x2="32.812" y2="140.277"/>
<line fill="none" stroke="#0081CD" stroke-width="0.8" x1="67.457" y1="94.379" x2="94.172" y2="43.454"/>
<line fill="none" stroke="#0081CD" stroke-width="0.8" x1="67.457" y1="94.379" x2="57.312" y2="87.949"/>
<line fill="none" stroke="#0081CD" stroke-width="0.8" x1="417.327" y1="143.146" x2="354.652" y2="151.043"/>
<line fill="none" stroke="#0081CD" stroke-width="0.8" x1="360.086" y1="67.435" x2="319.738" y2="112.271"/>
<line fill="none" stroke="#0081CD" stroke-width="0.8" x1="229.984" y1="401.228" x2="232.598" y2="413.539"/>
<line fill="none" stroke="#0081CD" stroke-width="0.8" x1="229.984" y1="401.228" x2="221.012" y2="412.211"/>
<line fill="none" stroke="#0081CD" stroke-width="0.8" x1="251.897" y1="402.271" x2="259.785" y2="414.06"/>
<line fill="none" stroke="#0081CD" stroke-width="0.8" x1="251.897" y1="402.271" x2="244.238" y2="414.207"/>
<line fill="none" stroke="#0081CD" stroke-width="0.8" x1="251.897" y1="402.271" x2="252.016" y2="414.281"/>
<line fill="none" stroke="#0081CD" stroke-width="0.8" x1="252.129" y1="426.289" x2="252.242" y2="438.302"/>
<line fill="none" stroke="#0081CD" stroke-width="0.8" x1="252.016" y1="414.281" x2="252.129" y2="426.289"/>
<line fill="none" stroke="#0081CD" stroke-width="0.8" x1="88.406" y1="314" x2="80.434" y2="323.746"/>
<line fill="none" stroke="#0081CD" stroke-width="0.8" x1="88.406" y1="314" x2="76.23" y2="317.207"/>
<line fill="none" stroke="#0081CD" stroke-width="0.8" x1="430.234" y1="210.105" x2="442.242" y2="210.105"/>
<line fill="none" stroke="#0081CD" stroke-width="0.8" x1="417.327" y1="277.066" x2="427.086" y2="284.914"/>
<line fill="none" stroke="#0081CD" stroke-width="0.8" x1="417.327" y1="277.066" x2="431.065" y2="274.685"/>
<line fill="none" stroke="#0081CD" stroke-width="0.8" x1="417.327" y1="277.066" x2="422.527" y2="294.896"/>
<line fill="none" stroke="#0081CD" stroke-width="0.8" x1="417.327" y1="277.066" x2="433.395" y2="267.746"/>
<line fill="none" stroke="#0081CD" stroke-width="0.8" x1="406.944" y1="298.695" x2="417.406" y2="304.603"/>
<line fill="none" stroke="#0081CD" stroke-width="0.8" x1="414.656" y1="136.829" x2="354.652" y2="151.043"/>
<line fill="none" stroke="#0081CD" stroke-width="0.8" x1="70.27" y1="198.68" x2="144.383" y2="153.047"/>
<line fill="none" stroke="#0081CD" stroke-width="0.8" x1="285.848" y1="33.531" x2="288.234" y2="21.762"/>
<line fill="none" stroke="#0081CD" stroke-width="0.8" x1="157.035" y1="55.824" x2="147.719" y2="47.458"/>
<line fill="none" stroke="#0081CD" stroke-width="0.8" x1="157.035" y1="55.824" x2="153.984" y2="43.681"/>
<line fill="none" stroke="#0081CD" stroke-width="0.8" x1="157.035" y1="55.824" x2="196.055" y2="102.829"/>
<line fill="none" stroke="#0081CD" stroke-width="0.8" x1="165.996" y1="50.767" x2="196.055" y2="102.829"/>
<line fill="none" stroke="#0081CD" stroke-width="0.8" x1="172.121" y1="47.681" x2="196.055" y2="102.829"/>
<line fill="none" stroke="#0081CD" stroke-width="0.8" x1="178.363" y1="44.829" x2="196.055" y2="102.829"/>
<line fill="none" stroke="#0081CD" stroke-width="0.8" x1="184.707" y1="42.219" x2="196.055" y2="102.829"/>
<line fill="none" stroke="#0081CD" stroke-width="0.8" x1="337.164" y1="52.396" x2="297.875" y2="99.922"/>
<line fill="none" stroke="#0081CD" stroke-width="0.8" x1="385.098" y1="90.833" x2="336.996" y2="127.224"/>
<line fill="none" stroke="#0081CD" stroke-width="0.8" x1="385.098" y1="90.833" x2="389.152" y2="77.492"/>
<line fill="none" stroke="#0081CD" stroke-width="0.8" x1="385.098" y1="90.833" x2="394.103" y2="82.883"/>
<line fill="none" stroke="#0081CD" stroke-width="0.8" x1="385.098" y1="90.833" x2="398.84" y2="88.458"/>
<line fill="none" stroke="#0081CD" stroke-width="0.8" x1="375.633" y1="339.306" x2="332.125" y2="297.816"/>
<line fill="none" stroke="#0081CD" stroke-width="0.8" x1="385.098" y1="329.379" x2="340.09" y2="289.621"/>
<line fill="none" stroke="#0081CD" stroke-width="0.8" x1="385.098" y1="329.379" x2="394.103" y2="337.328"/>
<line fill="none" stroke="#0081CD" stroke-width="0.8" x1="370.621" y1="343.992" x2="332.125" y2="297.816"/>
<line fill="none" stroke="#0081CD" stroke-width="0.8" x1="397.815" y1="313.207" x2="363.94" y2="248.306"/>
<line fill="none" stroke="#0081CD" stroke-width="0.8" x1="397.815" y1="313.207" x2="407.664" y2="320.082"/>
<line fill="none" stroke="#0081CD" stroke-width="0.8" x1="428.147" y1="237.441" x2="363.94" y2="248.306"/>
<line fill="none" stroke="#0081CD" stroke-width="0.8" x1="426.978" y1="244.203" x2="363.94" y2="248.306"/>
<line fill="none" stroke="#0081CD" stroke-width="0.8" x1="425.552" y1="250.91" x2="363.94" y2="248.306"/>
<line fill="none" stroke="#0081CD" stroke-width="0.8" x1="82.738" y1="115.609" x2="72.277" y2="109.704"/>
<line fill="none" stroke="#0081CD" stroke-width="0.8" x1="72.277" y1="109.704" x2="38.602" y2="165.156"/>
<line fill="none" stroke="#0081CD" stroke-width="0.8" x1="72.277" y1="109.704" x2="40.242" y2="158.027"/>
<line fill="none" stroke="#0081CD" stroke-width="0.8" x1="72.277" y1="109.704" x2="42.125" y2="150.958"/>
<line fill="none" stroke="#0081CD" stroke-width="0.8" x1="72.277" y1="109.704" x2="67.457" y2="94.379"/>
<line fill="none" stroke="#0081CD" stroke-width="0.8" x1="71.215" y1="188.435" x2="144.383" y2="153.047"/>
<line fill="none" stroke="#0081CD" stroke-width="0.8" x1="71.215" y1="188.435" x2="58.887" y2="190.625"/>
<line fill="none" stroke="#0081CD" stroke-width="0.8" x1="71.215" y1="188.435" x2="59.77" y2="183.363"/>
<line fill="none" stroke="#0081CD" stroke-width="0.8" x1="93.195" y1="121.517" x2="60.852" y2="176.535"/>
<line fill="none" stroke="#0081CD" stroke-width="0.8" x1="93.195" y1="121.517" x2="144.383" y2="153.047"/>
<line fill="none" stroke="#0081CD" stroke-width="0.8" x1="93.195" y1="121.517" x2="82.738" y2="115.609"/>
<line fill="none" stroke="#0081CD" stroke-width="0.8" x1="93.195" y1="121.517" x2="123.613" y2="65.402"/>
<line fill="none" stroke="#0081CD" stroke-width="0.8" x1="136.469" y1="70.273" x2="144.383" y2="153.047"/>
<line fill="none" stroke="#0081CD" stroke-width="0.8" x1="141.875" y1="66.047" x2="144.383" y2="153.047"/>
<line fill="none" stroke="#0081CD" stroke-width="0.8" x1="398.84" y1="88.458" x2="408.137" y2="80.855"/>
<line fill="none" stroke="#0081CD" stroke-width="0.8" x1="98.508" y1="307.509" x2="147.812" y2="273.105"/>
<line fill="none" stroke="#0081CD" stroke-width="0.8" x1="98.508" y1="307.509" x2="94.598" y2="323.062"/>
<line fill="none" stroke="#0081CD" stroke-width="0.8" x1="98.508" y1="307.509" x2="88.406" y2="314"/>
<line fill="none" stroke="#0081CD" stroke-width="0.8" x1="98.508" y1="307.509" x2="82.738" y2="304.603"/>
<line fill="none" stroke="#0081CD" stroke-width="0.8" x1="421.938" y1="156.066" x2="365.312" y2="176.267"/>
<line fill="none" stroke="#0081CD" stroke-width="0.8" x1="423.87" y1="162.648" x2="365.312" y2="176.267"/>
<line fill="none" stroke="#0081CD" stroke-width="0.8" x1="224.43" y1="31.777" x2="237.516" y2="90.656"/>
<line fill="none" stroke="#0081CD" stroke-width="0.8" x1="224.43" y1="31.777" x2="222.723" y2="19.887"/>
<line fill="none" stroke="#0081CD" stroke-width="0.8" x1="231.238" y1="30.931" x2="237.516" y2="90.656"/>
<line fill="none" stroke="#0081CD" stroke-width="0.8" x1="222.723" y1="19.887" x2="221.012" y2="8"/>
<line fill="none" stroke="#0081CD" stroke-width="0.8" x1="217.66" y1="32.883" x2="228.465" y2="91.958"/>
<line fill="none" stroke="#0081CD" stroke-width="0.8" x1="238.073" y1="30.344" x2="237.516" y2="90.656"/>
<line fill="none" stroke="#0081CD" stroke-width="0.8" x1="70.453" y1="330.431" x2="60.477" y2="337.113"/>
<line fill="none" stroke="#0081CD" stroke-width="0.8" x1="137.359" y1="350.656" x2="173.16" y2="302.359"/>
<line fill="none" stroke="#0081CD" stroke-width="0.8" x1="132.09" y1="346.263" x2="173.16" y2="302.359"/>
<line fill="none" stroke="#0081CD" stroke-width="0.8" x1="94.598" y1="323.062" x2="84.883" y2="330.121"/>
<line fill="none" stroke="#0081CD" stroke-width="0.8" x1="80.434" y1="323.746" x2="70.453" y2="330.431"/>
<line fill="none" stroke="#0081CD" stroke-width="0.8" x1="265.488" y1="30.605" x2="255.785" y2="90.133"/>
<line fill="none" stroke="#0081CD" stroke-width="0.8" x1="251.785" y1="29.954" x2="255.785" y2="90.133"/>
<line fill="none" stroke="#0081CD" stroke-width="0.8" x1="165.996" y1="369.445" x2="192.008" y2="315.246"/>
<line fill="none" stroke="#0081CD" stroke-width="0.8" x1="159.988" y1="366.129" x2="192.008" y2="315.246"/>
<line fill="none" stroke="#0081CD" stroke-width="0.8" x1="204.27" y1="35.863" x2="217.332" y2="94.547"/>
<line fill="none" stroke="#0081CD" stroke-width="0.8" x1="204.27" y1="35.863" x2="201.219" y2="24.247"/>
<line fill="none" stroke="#0081CD" stroke-width="0.8" x1="210.938" y1="34.247" x2="217.332" y2="94.547"/>
<line fill="none" stroke="#0081CD" stroke-width="0.8" x1="210.938" y1="34.247" x2="208.328" y2="22.521"/>
<line fill="none" stroke="#0081CD" stroke-width="0.8" x1="370.621" y1="76.219" x2="336.996" y2="127.224"/>
<line fill="none" stroke="#0081CD" stroke-width="0.8" x1="375.633" y1="80.906" x2="336.996" y2="127.224"/>
<line fill="none" stroke="#0081CD" stroke-width="0.8" x1="393.781" y1="101.454" x2="354.652" y2="151.043"/>
<path fill="none" stroke="#0081CD" stroke-width="0.8" d="M228.465,91.958c0.41,2.246,1.695,4.32,3.523,5.688
	c1.827,1.371,4.181,2.015,6.45,1.777c2.268-0.238,4.437-1.36,5.94-3.078c1.5-1.719,2.327-4.016,2.262-6.297"/>
<path fill="none" stroke="#0081CD" stroke-width="0.8" d="M246.641,90.047c-3.047,0.086-6.093,0.289-9.125,0.609"/>
<line fill="none" stroke="#0081CD" stroke-width="0.8" x1="312.228" y1="41.004" x2="297.875" y2="99.922"/>
<path fill="none" stroke="#0081CD" stroke-width="0.8" d="M332.125,297.816c-5.444-5.82-12.777-9.843-20.609-11.316
	c-7.832-1.473-16.125-0.379-23.31,3.07c-7.187,3.446-13.226,9.235-16.979,16.262c-3.75,7.031-5.196,15.271-4.063,23.16"/>
<path fill="none" stroke="#0081CD" stroke-width="0.8" d="M267.164,328.992c-1.105-7.683-4.737-14.983-10.199-20.5
	c-5.465-5.515-12.73-9.219-20.402-10.394c-7.671-1.181-15.71,0.175-22.579,3.797c-6.867,3.621-12.519,9.496-15.879,16.496"/>
<path fill="none" stroke="#0081CD" stroke-width="0.8" d="M204.371,321.181c19.738,8.121,41.668,10.847,62.793,7.812"/>
<path fill="none" stroke="#0081CD" stroke-width="0.8" d="M198.105,318.392c2.063,0.987,4.153,1.918,6.266,2.789"/>
<path fill="none" stroke="#0081CD" stroke-width="0.8" d="M267.164,328.992c-1.191-8.293-5.047-16.176-10.855-22.211
	s-13.543-10.183-21.781-11.69c-8.238-1.509-16.938-0.363-24.507,3.226c-7.567,3.586-13.961,9.598-18.012,16.93"/>
<path fill="none" stroke="#0081CD" stroke-width="0.8" d="M192.008,315.246c2.004,1.106,4.035,2.152,6.097,3.146"/>
<path fill="none" stroke="#0081CD" stroke-width="0.8" d="M204.371,321.181c0.66-1.603,0.684-3.457,0.063-5.075
	c-0.622-1.617-1.879-2.98-3.442-3.73c-1.562-0.75-3.414-0.879-5.062-0.352c-1.653,0.528-3.086,1.707-3.922,3.223"/>
<path fill="none" stroke="#0081CD" stroke-width="0.8" d="M336.996,292.988c1.056-1.101,2.085-2.226,3.094-3.367"/>
<path fill="none" stroke="#0081CD" stroke-width="0.8" d="M323.414,305.22c1.207-0.931,2.398-1.884,3.566-2.86"/>
<path fill="none" stroke="#0081CD" stroke-width="0.8" d="M332.125,297.816c1.669-1.562,3.294-3.171,4.871-4.828"/>
<path fill="none" stroke="#0081CD" stroke-width="0.8" d="M332.125,297.816c-1.984-2.121-5.673-2.332-7.887-0.449
	c-2.211,1.879-2.598,5.551-0.824,7.853"/>
<path fill="none" stroke="#0081CD" stroke-width="0.8" d="M326.98,302.359c1.758-1.464,3.472-2.98,5.145-4.543"/>
<line fill="none" stroke="#0081CD" stroke-width="0.8" x1="324.914" y1="46.224" x2="297.875" y2="99.922"/>
<line fill="none" stroke="#0081CD" stroke-width="0.8" x1="438.319" y1="316.414" x2="450.879" y2="318.521"/>
<line fill="none" stroke="#0081CD" stroke-width="0.8" x1="438.319" y1="316.414" x2="446.605" y2="326.086"/>
<line fill="none" stroke="#0081CD" stroke-width="0.8" x1="427.863" y1="310.509" x2="438.319" y2="316.414"/>
<line fill="none" stroke="#0081CD" stroke-width="0.8" x1="417.406" y1="304.603" x2="427.863" y2="310.509"/>
<line fill="none" stroke="#0081CD" stroke-width="0.8" x1="427.086" y1="284.914" x2="439.629" y2="285.992"/>
<line fill="none" stroke="#0081CD" stroke-width="0.8" x1="427.086" y1="284.914" x2="436.603" y2="293.156"/>
<line fill="none" stroke="#0081CD" stroke-width="0.8" x1="422.527" y1="294.896" x2="433.305" y2="300.195"/>
<line fill="none" stroke="#0081CD" stroke-width="0.8" x1="76.031" y1="291.599" x2="65.156" y2="296.691"/>
<line fill="none" stroke="#0081CD" stroke-width="0.8" x1="85.484" y1="283.384" x2="147.812" y2="273.105"/>
<line fill="none" stroke="#0081CD" stroke-width="0.8" x1="85.484" y1="283.384" x2="76.031" y2="291.599"/>
<line fill="none" stroke="#0081CD" stroke-width="0.8" x1="85.484" y1="283.384" x2="73.055" y2="284.914"/>
<line fill="none" stroke="#0081CD" stroke-width="0.8" x1="81.57" y1="273.867" x2="147.812" y2="273.105"/>
<line fill="none" stroke="#0081CD" stroke-width="0.8" x1="81.57" y1="273.867" x2="70.336" y2="278.121"/>
<line fill="none" stroke="#0081CD" stroke-width="0.8" x1="79.266" y1="267.406" x2="147.812" y2="273.105"/>
<line fill="none" stroke="#0081CD" stroke-width="0.8" x1="276.16" y1="92.863" x2="285.848" y2="33.531"/>
<path fill="none" stroke="#0081CD" stroke-width="0.8" d="M276.16,92.863c-2.233-0.496-4.479-0.929-6.733-1.297"/>
<path fill="none" stroke="#0081CD" stroke-width="0.8" d="M276.16,92.863c-3.008,13.516-2.805,27.731,0.586,41.149
	c3.395,13.422,9.969,26.027,19.031,36.488c9.066,10.461,20.605,18.762,33.406,24.027c12.805,5.27,26.844,7.493,40.647,6.442"/>
<path fill="none" stroke="#0081CD" stroke-width="0.8" d="M264.897,90.918c-0.358,2.883,1.841,5.848,4.7,6.344
	c2.863,0.492,5.93-1.563,6.562-4.399"/>
<path fill="none" stroke="#0081CD" stroke-width="0.8" d="M255.785,90.133c-0.121,2.551,0.746,5.137,2.384,7.097
	c1.633,1.961,4.02,3.278,6.55,3.618c2.531,0.34,5.179-0.301,7.273-1.762c2.094-1.465,3.613-3.727,4.168-6.223"/>
<line fill="none" stroke="#0081CD" stroke-width="0.8" x1="276.16" y1="92.863" x2="292.548" y2="35.023"/>
<path fill="none" stroke="#0081CD" stroke-width="0.8" d="M297.875,99.922c-6.992-3.035-14.272-5.402-21.715-7.059"/>
<path fill="none" stroke="#0081CD" stroke-width="0.8" d="M196.055,102.829c3.675,7.301,9.707,13.391,16.972,17.137
	c7.266,3.746,15.723,5.129,23.8,3.887c8.083-1.239,15.738-5.094,21.544-10.848c5.81-5.75,9.734-13.371,11.056-21.438"/>
<path fill="none" stroke="#0081CD" stroke-width="0.8" d="M363.194,169.742c-3.636,1.297-6.768,3.949-8.646,7.317
	c-1.884,3.367-2.496,7.425-1.692,11.199c0.801,3.773,3.012,7.23,6.097,9.543c3.092,2.312,7.032,3.461,10.879,3.168"/>
<path fill="none" stroke="#0081CD" stroke-width="0.8" d="M370.09,205.531c-0.055-1.523-0.146-3.043-0.259-4.562"/>
<path fill="none" stroke="#0081CD" stroke-width="0.8" d="M264.897,90.918c-3.026-0.379-6.066-0.641-9.112-0.785"/>
<path fill="none" stroke="#0081CD" stroke-width="0.8" d="M217.332,94.547c-7.336,2.078-14.473,4.855-21.277,8.281"/>
<path fill="none" stroke="#0081CD" stroke-width="0.8" d="M196.055,102.829c-21.789,10.973-40.086,28.754-51.672,50.219"/>
<path fill="#BC1E47" stroke="#231F20" d="M339.397,127.224c0,1.324-1.074,2.398-2.401,2.398c-1.323,0-2.398-1.074-2.398-2.398
	c0-1.328,1.075-2.403,2.398-2.403C338.323,124.82,339.397,125.896,339.397,127.224z"/>
<path fill="#BC1E47" stroke="#231F20" d="M365.594,169.742c0,1.328-1.074,2.403-2.399,2.403c-1.327,0-2.4-1.075-2.4-2.403
	c0-1.324,1.073-2.398,2.4-2.398C364.52,167.344,365.594,168.418,365.594,169.742z"/>
<circle fill="#BC1E47" stroke="#231F20" cx="228.463" cy="91.958" r="2.401"/>
<circle fill="#BC1E47" stroke="#231F20" cx="237.516" cy="90.656" r="2.398"/>
<circle fill="#BC1E47" stroke="#231F20" cx="365.314" cy="176.267" r="2.4"/>
<path fill="#BC1E47" stroke="#231F20" d="M372.492,205.531c0,1.328-1.073,2.403-2.402,2.403c-1.324,0-2.399-1.075-2.399-2.403
	c0-1.324,1.075-2.398,2.399-2.398C371.419,203.133,372.492,204.208,372.492,205.531z"/>
<circle fill="#BC1E47" stroke="#231F20" cx="368.419" cy="189.625" r="2.4"/>
<path fill="#BC1E47" stroke="#231F20" d="M357.055,151.043c0,1.328-1.074,2.402-2.402,2.402c-1.325,0-2.398-1.074-2.398-2.402
	c0-1.324,1.073-2.398,2.398-2.398C355.98,148.646,357.055,149.719,357.055,151.043z"/>
<circle fill="#BC1E47" stroke="#231F20" cx="326.982" cy="117.853" r="2.401"/>
<path fill="#BC1E47" stroke="#231F20" d="M322.141,112.271c0,1.324-1.075,2.398-2.402,2.398c-1.324,0-2.398-1.074-2.398-2.398
	c0-1.329,1.074-2.403,2.398-2.403C321.065,109.867,322.141,110.941,322.141,112.271z"/>
<path fill="#BC1E47" stroke="#231F20" d="M321.02,43.492c0,1.328-1.075,2.403-2.398,2.403c-1.327,0-2.402-1.075-2.402-2.403
	c0-1.324,1.075-2.398,2.402-2.398C319.944,41.094,321.02,42.168,321.02,43.492z"/>
<path fill="#BC1E47" stroke="#231F20" d="M400.215,107.004c0,1.324-1.074,2.398-2.399,2.398c-1.327,0-2.401-1.074-2.401-2.398
	c0-1.328,1.074-2.402,2.401-2.402C399.141,104.603,400.215,105.676,400.215,107.004z"/>
<path fill="#BC1E47" stroke="#231F20" d="M336.548,369.445c0,1.328-1.075,2.403-2.403,2.403c-1.325,0-2.398-1.075-2.398-2.403
	c0-1.324,1.073-2.397,2.398-2.397C335.473,367.048,336.548,368.121,336.548,369.445z"/>
<path fill="#BC1E47" stroke="#231F20" d="M327.312,373.988c0,1.324-1.074,2.399-2.398,2.399c-1.328,0-2.402-1.075-2.402-2.399
	c0-1.328,1.074-2.402,2.402-2.402C326.238,371.586,327.312,372.66,327.312,373.988z"/>
<path fill="#BC1E47" stroke="#231F20" d="M321.02,376.72c0,1.323-1.075,2.397-2.398,2.397c-1.327,0-2.402-1.074-2.402-2.397
	c0-1.328,1.075-2.403,2.402-2.403C319.944,374.316,321.02,375.392,321.02,376.72z"/>
<path fill="#BC1E47" stroke="#231F20" d="M314.625,379.207c0,1.324-1.073,2.398-2.397,2.398c-1.325,0-2.4-1.074-2.4-2.398
	c0-1.328,1.075-2.401,2.4-2.401C313.552,376.806,314.625,377.879,314.625,379.207z"/>
<path fill="#BC1E47" stroke="#231F20" d="M308.145,381.449c0,1.324-1.075,2.403-2.402,2.403c-1.323,0-2.398-1.079-2.398-2.403
	s1.075-2.397,2.398-2.397C307.069,379.052,308.145,380.125,308.145,381.449z"/>
<path fill="#BC1E47" stroke="#231F20" d="M288.25,386.681c0,1.323-1.073,2.397-2.402,2.397c-1.325,0-2.399-1.074-2.399-2.397
	c0-1.325,1.074-2.403,2.399-2.403C287.177,384.277,288.25,385.355,288.25,386.681z"/>
<path fill="#BC1E47" stroke="#231F20" d="M267.887,389.605c0,1.329-1.074,2.403-2.398,2.403s-2.398-1.074-2.398-2.403
	c0-1.324,1.074-2.398,2.398-2.398S267.887,388.281,267.887,389.605z"/>
<path fill="#BC1E47" stroke="#231F20" d="M243.897,390.062c0,1.329-1.074,2.403-2.397,2.403c-1.327,0-2.402-1.074-2.402-2.403
	c0-1.324,1.075-2.398,2.402-2.398C242.823,387.664,243.897,388.738,243.897,390.062z"/>
<circle fill="#BC1E47" stroke="#231F20" cx="389.153" cy="77.492" r="2.399"/>
<path fill="#BC1E47" stroke="#231F20" d="M261.044,30.148c0,1.325-1.075,2.399-2.399,2.399c-1.329,0-2.402-1.074-2.402-2.399
	c0-1.328,1.073-2.402,2.402-2.402C259.969,27.747,261.044,28.82,261.044,30.148z"/>
<path fill="#BC1E47" stroke="#231F20" d="M342.152,380.07c0,1.325-1.075,2.399-2.402,2.399c-1.323,0-2.397-1.074-2.397-2.399
	c0-1.328,1.074-2.402,2.397-2.402C341.077,377.668,342.152,378.742,342.152,380.07z"/>
<path fill="#BC1E47" stroke="#231F20" d="M347.758,390.691c0,1.329-1.074,2.403-2.402,2.403c-1.324,0-2.399-1.074-2.399-2.403
	c0-1.324,1.075-2.398,2.399-2.398C346.684,388.293,347.758,389.367,347.758,390.691z"/>
<path fill="#BC1E47" stroke="#231F20" d="M410.539,80.855c0,1.325-1.074,2.399-2.402,2.399c-1.324,0-2.398-1.074-2.398-2.399
	c0-1.328,1.074-2.402,2.398-2.402C409.465,78.454,410.539,79.527,410.539,80.855z"/>
<circle fill="#BC1E47" stroke="#231F20" cx="299.181" cy="36.767" r="2.4"/>
<circle fill="#BC1E47" stroke="#231F20" cx="348.912" cy="59.478" r="2.4"/>
<path fill="#BC1E47" stroke="#231F20" d="M356.978,63.353c0,1.324-1.075,2.398-2.404,2.398c-1.323,0-2.396-1.074-2.396-2.398
	c0-1.329,1.073-2.403,2.396-2.403C355.902,60.949,356.978,62.023,356.978,63.353z"/>
<path fill="#BC1E47" stroke="#231F20" d="M429.379,176.008c0,1.328-1.077,2.402-2.401,2.402c-1.325,0-2.4-1.074-2.4-2.402
	c0-1.324,1.075-2.399,2.4-2.399C428.302,173.609,429.379,174.685,429.379,176.008z"/>
<path fill="#BC1E47" stroke="#231F20" d="M427.948,169.301c0,1.324-1.073,2.398-2.396,2.398c-1.324,0-2.399-1.074-2.399-2.398
	c0-1.328,1.075-2.403,2.399-2.403C426.875,166.898,427.948,167.974,427.948,169.301z"/>
<path fill="#BC1E47" stroke="#231F20" d="M333.496,49.191c0,1.329-1.073,2.403-2.398,2.403s-2.399-1.074-2.399-2.403
	c0-1.324,1.074-2.398,2.399-2.398S333.496,47.867,333.496,49.191z"/>
<path fill="#BC1E47" stroke="#231F20" d="M74.949,240.828c0,1.324-1.078,2.399-2.402,2.399c-1.324,0-2.399-1.075-2.399-2.399
	c0-1.328,1.075-2.401,2.399-2.401C73.871,238.427,74.949,239.5,74.949,240.828z"/>
<path fill="#BC1E47" stroke="#231F20" d="M11.93,74.267c0,1.324-1.075,2.398-2.403,2.398c-1.324,0-2.398-1.074-2.398-2.398
	c0-1.328,1.074-2.403,2.398-2.403C10.855,71.863,11.93,72.938,11.93,74.267z"/>
<circle fill="#BC1E47" stroke="#231F20" cx="59.604" cy="235.642" r="2.4"/>
<path fill="#BC1E47" stroke="#231F20" d="M72.832,223.812c0,1.329-1.074,2.403-2.402,2.403c-1.325,0-2.399-1.074-2.399-2.403
	c0-1.324,1.074-2.398,2.399-2.398C71.758,221.415,72.832,222.488,72.832,223.812z"/>
<circle fill="#BC1E47" stroke="#231F20" cx="30.066" cy="43.04" r="2.398"/>
<path fill="#BC1E47" stroke="#231F20" d="M16.664,66.204c0,1.324-1.074,2.399-2.402,2.399c-1.324,0-2.399-1.075-2.399-2.399
	c0-1.328,1.075-2.402,2.399-2.402C15.59,63.801,16.664,64.875,16.664,66.204z"/>
<path fill="#BC1E47" stroke="#231F20" d="M21.668,58.306c0,1.324-1.074,2.398-2.398,2.398c-1.329,0-2.403-1.074-2.403-2.398
	c0-1.328,1.074-2.403,2.403-2.403C20.594,55.902,21.668,56.978,21.668,58.306z"/>
<circle fill="#BC1E47" stroke="#231F20" cx="24.538" cy="50.579" r="2.4"/>
<path fill="#BC1E47" stroke="#231F20" d="M193.547,39.853c0,1.324-1.074,2.402-2.402,2.402c-1.325,0-2.399-1.078-2.399-2.402
	c0-1.325,1.074-2.399,2.399-2.399C192.473,37.454,193.547,38.527,193.547,39.853z"/>
<path fill="#BC1E47" stroke="#231F20" d="M61.168,228.371c0,1.328-1.074,2.402-2.398,2.402c-1.329,0-2.403-1.074-2.403-2.402
	c0-1.323,1.074-2.397,2.403-2.397C60.094,225.974,61.168,227.048,61.168,228.371z"/>
<path fill="#BC1E47" stroke="#231F20" d="M60.332,213.767c0,1.324-1.074,2.398-2.398,2.398c-1.329,0-2.403-1.074-2.403-2.398
	c0-1.328,1.074-2.403,2.403-2.403C59.258,211.363,60.332,212.438,60.332,213.767z"/>
<path fill="#BC1E47" stroke="#231F20" d="M200.07,37.73c0,1.329-1.074,2.403-2.402,2.403c-1.324,0-2.398-1.074-2.398-2.403
	c0-1.324,1.074-2.398,2.398-2.398C198.996,35.333,200.07,36.406,200.07,37.73z"/>
<circle fill="#BC1E47" stroke="#231F20" cx="217.661" cy="387.328" r="2.398"/>
<circle fill="#BC1E47" stroke="#231F20" cx="191.146" cy="380.359" r="2.4"/>
<path fill="#BC1E47" stroke="#231F20" d="M356.978,356.859c0,1.329-1.075,2.403-2.404,2.403c-1.323,0-2.396-1.074-2.396-2.403
	c0-1.324,1.073-2.398,2.396-2.398C355.902,354.461,356.978,355.535,356.978,356.859z"/>
<circle fill="#BC1E47" stroke="#231F20" cx="343.107" cy="364.388" r="2.401"/>
<circle fill="#BC1E47" stroke="#231F20" cx="204.271" cy="384.349" r="2.4"/>
<circle fill="#BC1E47" stroke="#231F20" cx="210.936" cy="385.966" r="2.4"/>
<circle fill="#BC1E47" stroke="#231F20" cx="184.705" cy="377.992" r="2.4"/>
<path fill="#BC1E47" stroke="#231F20" d="M180.762,375.384c0,1.323-1.074,2.397-2.399,2.397c-1.328,0-2.402-1.074-2.402-2.397
	c0-1.328,1.074-2.403,2.402-2.403C179.688,372.98,180.762,374.056,180.762,375.384z"/>
<path fill="#BC1E47" stroke="#231F20" d="M200.07,382.48c0,1.325-1.074,2.398-2.402,2.398c-1.324,0-2.398-1.073-2.398-2.398
	c0-1.328,1.074-2.402,2.398-2.402C198.996,380.078,200.07,381.152,200.07,382.48z"/>
<path fill="#BC1E47" stroke="#231F20" d="M351.312,360.734c0,1.325-1.074,2.399-2.402,2.399c-1.324,0-2.398-1.074-2.398-2.399
	c0-1.328,1.074-2.402,2.398-2.402C350.238,358.332,351.312,359.406,351.312,360.734z"/>
<circle fill="#BC1E47" stroke="#231F20" cx="147.811" cy="273.105" r="2.4"/>
<path fill="#BC1E47" stroke="#231F20" d="M170.418,297.816c0,1.325-1.074,2.399-2.398,2.399c-1.329,0-2.403-1.074-2.403-2.399
	c0-1.324,1.074-2.398,2.403-2.398C169.344,295.418,170.418,296.492,170.418,297.816z"/>
<path fill="#BC1E47" stroke="#231F20" d="M132.906,221.523c0,1.325-1.074,2.399-2.398,2.399c-1.328,0-2.403-1.074-2.403-2.399
	c0-1.328,1.075-2.402,2.403-2.402C131.832,219.122,132.906,220.195,132.906,221.523z"/>
<path fill="#BC1E47" stroke="#231F20" d="M136.023,239.531c0,1.324-1.074,2.403-2.398,2.403c-1.328,0-2.402-1.079-2.402-2.403
	s1.074-2.397,2.402-2.397C134.949,237.134,136.023,238.207,136.023,239.531z"/>
<path fill="#BC1E47" stroke="#231F20" d="M345.452,286.138c0,1.323-1.077,2.397-2.4,2.397c-1.324,0-2.399-1.074-2.399-2.397
	c0-1.328,1.075-2.403,2.399-2.403C344.375,283.734,345.452,284.81,345.452,286.138z"/>
<circle fill="#BC1E47" stroke="#231F20" cx="363.942" cy="248.306" r="2.398"/>
<path fill="#BC1E47" stroke="#231F20" d="M175.559,302.359c0,1.325-1.075,2.399-2.399,2.399c-1.328,0-2.402-1.074-2.402-2.399
	c0-1.328,1.074-2.402,2.402-2.402C174.484,299.957,175.559,301.031,175.559,302.359z"/>
<circle fill="#BC1E47" stroke="#231F20" cx="178.551" cy="306.599" r="2.399"/>
<circle fill="#BC1E47" stroke="#231F20" cx="440.99" cy="188.199" r="2.4"/>
<path fill="#BC1E47" stroke="#231F20" d="M184.676,309.25c0,1.328-1.074,2.402-2.399,2.402c-1.328,0-2.402-1.074-2.402-2.402
	c0-1.323,1.074-2.397,2.402-2.397C183.602,306.853,184.676,307.927,184.676,309.25z"/>
<path fill="#BC1E47" stroke="#231F20" d="M188.5,311.763c0,1.323-1.074,2.397-2.398,2.397c-1.329,0-2.403-1.074-2.403-2.397
	c0-1.328,1.074-2.403,2.403-2.403C187.426,309.359,188.5,310.435,188.5,311.763z"/>
<path fill="#BC1E47" stroke="#231F20" d="M431.035,186.165c0,1.324-1.074,2.402-2.398,2.402c-1.328,0-2.402-1.078-2.402-2.402
	c0-1.324,1.074-2.398,2.402-2.398C429.961,183.767,431.035,184.84,431.035,186.165z"/>
<circle fill="#BC1E47" stroke="#231F20" cx="343.107" cy="55.824" r="2.401"/>
<path fill="#BC1E47" stroke="#231F20" d="M442.419,180.945c0,1.328-1.075,2.403-2.399,2.403c-1.329,0-2.402-1.075-2.402-2.403
	c0-1.324,1.073-2.398,2.402-2.398C441.344,178.547,442.419,179.622,442.419,180.945z"/>
<circle fill="#BC1E47" stroke="#231F20" cx="365.439" cy="71.728" r="2.4"/>
<path fill="#BC1E47" stroke="#231F20" d="M124.473,336.892c0,1.328-1.075,2.401-2.403,2.401c-1.324,0-2.398-1.073-2.398-2.401
	c0-1.325,1.074-2.399,2.398-2.399C123.398,334.492,124.473,335.566,124.473,336.892z"/>
<path fill="#BC1E47" stroke="#231F20" d="M92.336,292.66c0,1.324-1.074,2.399-2.398,2.399c-1.329,0-2.403-1.075-2.403-2.399
	s1.074-2.397,2.403-2.397C91.262,290.263,92.336,291.336,92.336,292.66z"/>
<path fill="#BC1E47" stroke="#231F20" d="M404.031,112.704c0,1.324-1.075,2.399-2.398,2.399c-1.324,0-2.398-1.075-2.398-2.399
	c0-1.328,1.074-2.402,2.398-2.402C402.956,110.301,404.031,111.375,404.031,112.704z"/>
<circle fill="#BC1E47" stroke="#231F20" cx="405.232" cy="118.543" r="2.401"/>
<circle fill="#BC1E47" stroke="#231F20" cx="408.603" cy="124.517" r="2.401"/>
<path fill="#BC1E47" stroke="#231F20" d="M414.147,130.613c0,1.328-1.074,2.403-2.402,2.403c-1.322,0-2.397-1.075-2.397-2.403
	c0-1.324,1.075-2.398,2.397-2.398C413.073,128.215,414.147,129.29,414.147,130.613z"/>
<path fill="#BC1E47" stroke="#231F20" d="M68.082,264.246c0,1.324-1.074,2.402-2.398,2.402c-1.329,0-2.403-1.078-2.403-2.402
	c0-1.323,1.074-2.397,2.403-2.397C67.008,261.849,68.082,262.923,68.082,264.246z"/>
<circle fill="#BC1E47" stroke="#231F20" cx="63.755" cy="257.188" r="2.4"/>
<path fill="#BC1E47" stroke="#231F20" d="M60.609,221.079c0,1.324-1.074,2.399-2.398,2.399c-1.324,0-2.399-1.075-2.399-2.399
	c0-1.328,1.075-2.402,2.399-2.402C59.535,218.676,60.609,219.75,60.609,221.079z"/>
<path fill="#BC1E47" stroke="#231F20" d="M77.801,254.246c0,1.324-1.074,2.399-2.403,2.399c-1.324,0-2.398-1.075-2.398-2.399
	c0-1.328,1.074-2.401,2.398-2.401C76.727,251.845,77.801,252.918,77.801,254.246z"/>
<circle fill="#BC1E47" stroke="#231F20" cx="117.338" cy="331.927" r="2.4"/>
<circle fill="#BC1E47" stroke="#231F20" cx="112.795" cy="326.785" r="2.4"/>
<circle fill="#BC1E47" stroke="#231F20" cx="62.095" cy="250.06" r="2.401"/>
<circle fill="#BC1E47" stroke="#231F20" cx="108.455" cy="321.474" r="2.4"/>
<path fill="#BC1E47" stroke="#231F20" d="M300.609,408.535c0,1.324-1.074,2.399-2.403,2.399c-1.323,0-2.397-1.075-2.397-2.399
	c0-1.328,1.074-2.401,2.397-2.401C299.535,406.134,300.609,407.207,300.609,408.535z"/>
<circle fill="#BC1E47" stroke="#231F20" cx="290.619" cy="410.224" r="2.4"/>
<circle fill="#BC1E47" stroke="#231F20" cx="305.744" cy="38.762" r="2.4"/>
<path fill="#BC1E47" stroke="#231F20" d="M234.995,413.539c0,1.328-1.072,2.402-2.397,2.402s-2.399-1.074-2.399-2.402
	c0-1.323,1.074-2.397,2.399-2.397S234.995,412.216,234.995,413.539z"/>
<path fill="#BC1E47" stroke="#231F20" d="M238.073,425.82c0,1.325-1.073,2.399-2.396,2.399c-1.329,0-2.404-1.074-2.404-2.399
	c0-1.324,1.075-2.397,2.404-2.397C237,423.423,238.073,424.496,238.073,425.82z"/>
<path fill="#BC1E47" stroke="#231F20" d="M229.871,425.117c0,1.324-1.074,2.399-2.398,2.399c-1.325,0-2.403-1.075-2.403-2.399
	c0-1.328,1.078-2.401,2.403-2.401C228.797,422.716,229.871,423.789,229.871,425.117z"/>
<path fill="#BC1E47" stroke="#231F20" d="M304.855,395c0,1.328-1.074,2.402-2.403,2.402c-1.323,0-2.396-1.074-2.396-2.402
	c0-1.323,1.073-2.397,2.396-2.397C303.781,392.603,304.855,393.677,304.855,395z"/>
<path fill="#BC1E47" stroke="#231F20" d="M290.633,398.449c0,1.328-1.074,2.403-2.398,2.403s-2.398-1.075-2.398-2.403
	c0-1.324,1.074-2.397,2.398-2.397S290.633,397.125,290.633,398.449z"/>
<circle fill="#BC1E47" stroke="#231F20" cx="273.792" cy="400.81" r="2.398"/>
<circle fill="#BC1E47" stroke="#231F20" cx="282.97" cy="411.621" r="2.401"/>
<path fill="#BC1E47" stroke="#231F20" d="M287.309,423.478c0,1.324-1.074,2.397-2.402,2.397c-1.325,0-2.398-1.073-2.398-2.397
	c0-1.329,1.073-2.403,2.398-2.403C286.234,421.074,287.309,422.148,287.309,423.478z"/>
<path fill="#BC1E47" stroke="#231F20" d="M41,165.156c0,1.328-1.074,2.403-2.398,2.403c-1.329,0-2.403-1.075-2.403-2.403
	c0-1.324,1.074-2.398,2.403-2.398C39.926,162.758,41,163.833,41,165.156z"/>
<path fill="#BC1E47" stroke="#231F20" d="M42.641,158.027c0,1.325-1.075,2.399-2.399,2.399c-1.324,0-2.398-1.074-2.398-2.399
	c0-1.328,1.074-2.402,2.398-2.402C41.566,155.625,42.641,156.699,42.641,158.027z"/>
<path fill="#BC1E47" stroke="#231F20" d="M44.523,150.958c0,1.324-1.074,2.398-2.398,2.398s-2.398-1.074-2.398-2.398
	c0-1.328,1.074-2.402,2.398-2.402S44.523,149.629,44.523,150.958z"/>
<path fill="#BC1E47" stroke="#231F20" d="M31.703,64.902c0,1.328-1.074,2.403-2.398,2.403c-1.328,0-2.403-1.075-2.403-2.403
	c0-1.324,1.075-2.398,2.403-2.398C30.629,62.504,31.703,63.579,31.703,64.902z"/>
<circle fill="#BC1E47" stroke="#231F20" cx="39.338" cy="71.504" r="2.4"/>
<circle fill="#BC1E47" stroke="#231F20" cx="51.635" cy="74.728" r="2.401"/>
<circle fill="#BC1E47" stroke="#231F20" cx="57.314" cy="87.949" r="2.4"/>
<circle fill="#BC1E47" stroke="#231F20" cx="67.459" cy="94.379" r="2.4"/>
<circle fill="#BC1E47" stroke="#231F20" cx="94.171" cy="43.454" r="2.398"/>
<path fill="#BC1E47" stroke="#231F20" d="M30.984,155.133c0,1.324-1.074,2.402-2.398,2.402c-1.324,0-2.402-1.078-2.402-2.402
	c0-1.324,1.078-2.399,2.402-2.399C29.91,152.734,30.984,153.81,30.984,155.133z"/>
<circle fill="#BC1E47" stroke="#231F20" cx="417.327" cy="143.146" r="2.4"/>
<path fill="#BC1E47" stroke="#231F20" d="M396.5,82.883c0,1.324-1.073,2.398-2.397,2.398c-1.33,0-2.404-1.074-2.404-2.398
	c0-1.328,1.074-2.403,2.404-2.403C395.427,80.48,396.5,81.556,396.5,82.883z"/>
<circle fill="#BC1E47" stroke="#231F20" cx="423.869" cy="257.562" r="2.4"/>
<circle fill="#BC1E47" stroke="#231F20" cx="360.086" cy="67.435" r="2.398"/>
<circle fill="#BC1E47" stroke="#231F20" cx="221.013" cy="412.211" r="2.401"/>
<path fill="#BC1E47" stroke="#231F20" d="M232.383,401.228c0,1.324-1.073,2.397-2.398,2.397c-1.329,0-2.402-1.073-2.402-2.397
	c0-1.329,1.074-2.403,2.402-2.403C231.31,398.824,232.383,399.898,232.383,401.228z"/>
<path fill="#BC1E47" stroke="#231F20" d="M262.188,414.06c0,1.324-1.075,2.397-2.403,2.397c-1.324,0-2.398-1.073-2.398-2.397
	c0-1.329,1.074-2.403,2.398-2.403C261.113,411.656,262.188,412.73,262.188,414.06z"/>
<path fill="#BC1E47" stroke="#231F20" d="M254.302,402.271c0,1.324-1.074,2.397-2.404,2.397c-1.324,0-2.397-1.073-2.397-2.397
	c0-1.325,1.073-2.399,2.397-2.399C253.228,399.871,254.302,400.945,254.302,402.271z"/>
<path fill="#BC1E47" stroke="#231F20" d="M349.702,403.199c0,1.328-1.073,2.403-2.396,2.403c-1.328,0-2.403-1.075-2.403-2.403
	c0-1.324,1.075-2.397,2.403-2.397C348.629,400.802,349.702,401.875,349.702,403.199z"/>
<path fill="#BC1E47" stroke="#231F20" d="M356.984,399.359c0,1.325-1.074,2.399-2.403,2.399c-1.323,0-2.397-1.074-2.397-2.399
	c0-1.324,1.074-2.398,2.397-2.398C355.91,396.961,356.984,398.035,356.984,399.359z"/>
<circle fill="#BC1E47" stroke="#231F20" cx="252.244" cy="438.302" r="2.4"/>
<path fill="#BC1E47" stroke="#231F20" d="M254.527,426.289c0,1.328-1.075,2.402-2.398,2.402s-2.398-1.074-2.398-2.402
	c0-1.323,1.075-2.397,2.398-2.397S254.527,424.966,254.527,426.289z"/>
<path fill="#BC1E47" stroke="#231F20" d="M254.414,414.281c0,1.324-1.074,2.399-2.398,2.399c-1.327,0-2.402-1.075-2.402-2.399
	c0-1.328,1.075-2.402,2.402-2.402C253.34,411.879,254.414,412.953,254.414,414.281z"/>
<path fill="#BC1E47" stroke="#231F20" d="M246.641,414.207c0,1.324-1.075,2.398-2.402,2.398c-1.324,0-2.398-1.074-2.398-2.398
	c0-1.328,1.074-2.401,2.398-2.401C245.565,411.806,246.641,412.879,246.641,414.207z"/>
<circle fill="#BC1E47" stroke="#231F20" cx="8" cy="104.165" r="2.398"/>
<circle fill="#BC1E47" stroke="#231F20" cx="11.725" cy="96.035" r="2.4"/>
<path fill="#BC1E47" stroke="#231F20" d="M18.121,88.031c0,1.328-1.074,2.403-2.398,2.403c-1.328,0-2.403-1.075-2.403-2.403
	c0-1.324,1.075-2.398,2.403-2.398C17.047,85.633,18.121,86.708,18.121,88.031z"/>
<circle fill="#BC1E47" stroke="#231F20" cx="56.916" cy="29.793" r="2.4"/>
<path fill="#BC1E47" stroke="#231F20" d="M35.211,140.277c0,1.325-1.074,2.399-2.399,2.399c-1.328,0-2.402-1.074-2.402-2.399
	c0-1.328,1.074-2.402,2.402-2.402C34.137,137.875,35.211,138.949,35.211,140.277z"/>
<path fill="#BC1E47" stroke="#231F20" d="M26.395,128.902c0,1.328-1.075,2.403-2.399,2.403c-1.324,0-2.402-1.075-2.402-2.403
	c0-1.324,1.078-2.398,2.402-2.398C25.32,126.504,26.395,127.579,26.395,128.902z"/>
<path fill="#BC1E47" stroke="#231F20" d="M29.273,121.301c0,1.324-1.074,2.398-2.398,2.398c-1.328,0-2.402-1.074-2.402-2.398
	c0-1.328,1.074-2.403,2.402-2.403C28.199,118.898,29.273,119.974,29.273,121.301z"/>
<circle fill="#BC1E47" stroke="#231F20" cx="71.627" cy="31.849" r="2.4"/>
<path fill="#BC1E47" stroke="#231F20" d="M90.805,314c0,1.328-1.075,2.402-2.399,2.402c-1.328,0-2.402-1.074-2.402-2.402
	c0-1.323,1.074-2.397,2.402-2.397C89.73,311.603,90.805,312.677,90.805,314z"/>
<path fill="#BC1E47" stroke="#231F20" d="M47.562,43.273c0,1.325-1.078,2.399-2.402,2.399c-1.324,0-2.398-1.074-2.398-2.399
	c0-1.328,1.074-2.402,2.398-2.402C46.484,40.872,47.562,41.945,47.562,43.273z"/>
<path fill="#BC1E47" stroke="#231F20" d="M53.324,36.435c0,1.324-1.074,2.398-2.398,2.398c-1.328,0-2.403-1.074-2.403-2.398
	c0-1.329,1.075-2.403,2.403-2.403C52.25,34.031,53.324,35.105,53.324,36.435z"/>
<circle fill="#BC1E47" stroke="#231F20" cx="430.232" cy="210.105" r="2.401"/>
<circle fill="#BC1E47" stroke="#231F20" cx="442.244" cy="210.105" r="2.4"/>
<circle fill="#BC1E47" stroke="#231F20" cx="430.103" cy="216.965" r="2.401"/>
<path fill="#BC1E47" stroke="#231F20" d="M432.109,223.812c0,1.329-1.074,2.403-2.398,2.403s-2.402-1.074-2.402-2.403
	c0-1.324,1.078-2.398,2.402-2.398S432.109,222.488,432.109,223.812z"/>
<path fill="#BC1E47" stroke="#231F20" d="M404.031,307.509c0,1.323-1.075,2.401-2.398,2.401c-1.324,0-2.398-1.078-2.398-2.401
	c0-1.324,1.074-2.399,2.398-2.399C402.956,305.109,404.031,306.185,404.031,307.509z"/>
<circle fill="#BC1E47" stroke="#231F20" cx="393.783" cy="318.759" r="2.4"/>
<circle fill="#BC1E47" stroke="#231F20" cx="429.058" cy="230.642" r="2.398"/>
<circle fill="#BC1E47" stroke="#231F20" cx="82.737" cy="304.603" r="2.401"/>
<path fill="#BC1E47" stroke="#231F20" d="M419.728,277.066c0,1.325-1.075,2.399-2.4,2.399c-1.327,0-2.4-1.074-2.4-2.399
	c0-1.328,1.073-2.402,2.4-2.402C418.652,274.664,419.728,275.738,419.728,277.066z"/>
<path fill="#BC1E47" stroke="#231F20" d="M409.348,298.695c0,1.328-1.075,2.403-2.403,2.403c-1.324,0-2.396-1.075-2.396-2.403
	c0-1.324,1.072-2.397,2.396-2.397C408.272,296.298,409.348,297.371,409.348,298.695z"/>
<path fill="#BC1E47" stroke="#231F20" d="M417.059,136.829c0,1.324-1.078,2.399-2.402,2.399c-1.325,0-2.398-1.075-2.398-2.399
	c0-1.328,1.073-2.402,2.398-2.402C415.98,134.426,417.059,135.5,417.059,136.829z"/>
<circle fill="#BC1E47" stroke="#231F20" cx="70.271" cy="198.68" r="2.4"/>
<path fill="#BC1E47" stroke="#231F20" d="M150.117,47.458c0,1.324-1.074,2.402-2.398,2.402c-1.328,0-2.403-1.078-2.403-2.402
	c0-1.324,1.075-2.398,2.403-2.398C149.043,45.06,150.117,46.133,150.117,47.458z"/>
<path fill="#BC1E47" stroke="#231F20" d="M290.633,21.762c0,1.324-1.074,2.398-2.398,2.398s-2.398-1.074-2.398-2.398
	c0-1.328,1.074-2.403,2.398-2.403S290.633,20.435,290.633,21.762z"/>
<path fill="#BC1E47" stroke="#231F20" d="M288.25,33.531c0,1.324-1.073,2.403-2.402,2.403c-1.325,0-2.399-1.079-2.399-2.403
	c0-1.324,1.074-2.398,2.399-2.398C287.177,31.133,288.25,32.208,288.25,33.531z"/>
<circle fill="#BC1E47" stroke="#231F20" cx="157.036" cy="55.824" r="2.398"/>
<path fill="#BC1E47" stroke="#231F20" d="M168.395,50.767c0,1.324-1.075,2.398-2.399,2.398c-1.328,0-2.402-1.074-2.402-2.398
	c0-1.328,1.074-2.403,2.402-2.403C167.32,48.363,168.395,49.438,168.395,50.767z"/>
<path fill="#BC1E47" stroke="#231F20" d="M174.523,47.681c0,1.324-1.074,2.398-2.402,2.398c-1.324,0-2.398-1.074-2.398-2.398
	c0-1.328,1.074-2.403,2.398-2.403C173.449,45.277,174.523,46.353,174.523,47.681z"/>
<circle fill="#BC1E47" stroke="#231F20" cx="178.362" cy="44.829" r="2.401"/>
<path fill="#BC1E47" stroke="#231F20" d="M156.383,43.681c0,1.324-1.074,2.398-2.399,2.398c-1.324,0-2.398-1.074-2.398-2.398
	c0-1.328,1.074-2.403,2.398-2.403C155.309,41.277,156.383,42.353,156.383,43.681z"/>
<circle fill="#BC1E47" stroke="#231F20" cx="184.705" cy="42.219" r="2.4"/>
<path fill="#BC1E47" stroke="#231F20" d="M339.565,52.396c0,1.324-1.073,2.398-2.401,2.398c-1.324,0-2.398-1.074-2.398-2.398
	c0-1.329,1.074-2.403,2.398-2.403C338.492,49.992,339.565,51.066,339.565,52.396z"/>
<path fill="#BC1E47" stroke="#231F20" d="M387.5,90.833c0,1.328-1.073,2.402-2.402,2.402c-1.325,0-2.399-1.074-2.399-2.402
	c0-1.324,1.074-2.398,2.399-2.398C386.427,88.435,387.5,89.508,387.5,90.833z"/>
<path fill="#BC1E47" stroke="#231F20" d="M378.031,339.306c0,1.323-1.075,2.401-2.398,2.401c-1.324,0-2.402-1.078-2.402-2.401
	c0-1.325,1.078-2.399,2.402-2.399C376.956,336.906,378.031,337.98,378.031,339.306z"/>
<path fill="#BC1E47" stroke="#231F20" d="M295.406,421.992c0,1.328-1.075,2.403-2.402,2.403c-1.323,0-2.398-1.075-2.398-2.403
	c0-1.324,1.075-2.397,2.398-2.397C294.331,419.595,295.406,420.668,295.406,421.992z"/>
<path fill="#BC1E47" stroke="#231F20" d="M387.5,329.379c0,1.324-1.073,2.398-2.402,2.398c-1.325,0-2.399-1.074-2.399-2.398
	c0-1.327,1.074-2.401,2.399-2.401C386.427,326.978,387.5,328.052,387.5,329.379z"/>
<circle fill="#BC1E47" stroke="#231F20" cx="370.623" cy="343.992" r="2.4"/>
<path fill="#BC1E47" stroke="#231F20" d="M400.215,313.207c0,1.328-1.074,2.402-2.399,2.402c-1.327,0-2.401-1.074-2.401-2.402
	c0-1.323,1.074-2.397,2.401-2.397C399.141,310.81,400.215,311.884,400.215,313.207z"/>
<path fill="#BC1E47" stroke="#231F20" d="M396.5,337.328c0,1.324-1.073,2.402-2.397,2.402c-1.33,0-2.404-1.078-2.404-2.402
	s1.074-2.397,2.404-2.397C395.427,334.931,396.5,336.004,396.5,337.328z"/>
<circle fill="#BC1E47" stroke="#231F20" cx="428.146" cy="237.441" r="2.401"/>
<circle fill="#BC1E47" stroke="#231F20" cx="407.664" cy="320.082" r="2.398"/>
<path fill="#BC1E47" stroke="#231F20" d="M429.379,244.203c0,1.324-1.077,2.399-2.401,2.399c-1.325,0-2.4-1.075-2.4-2.399
	c0-1.328,1.075-2.401,2.4-2.401C428.302,241.802,429.379,242.875,429.379,244.203z"/>
<circle fill="#BC1E47" stroke="#231F20" cx="425.55" cy="250.91" r="2.398"/>
<path fill="#BC1E47" stroke="#231F20" d="M419.836,73.25c0,1.328-1.074,2.402-2.397,2.402c-1.329,0-2.403-1.074-2.403-2.402
	c0-1.324,1.074-2.398,2.403-2.398C418.762,70.853,419.836,71.926,419.836,73.25z"/>
<path fill="#BC1E47" stroke="#231F20" d="M85.137,115.609c0,1.325-1.075,2.399-2.399,2.399c-1.328,0-2.402-1.074-2.402-2.399
	c0-1.328,1.074-2.402,2.402-2.402C84.062,113.208,85.137,114.281,85.137,115.609z"/>
<path fill="#BC1E47" stroke="#231F20" d="M74.68,109.704c0,1.324-1.075,2.399-2.403,2.399c-1.324,0-2.398-1.075-2.398-2.399
	c0-1.328,1.074-2.402,2.398-2.402C73.605,107.301,74.68,108.375,74.68,109.704z"/>
<path fill="#BC1E47" stroke="#231F20" d="M63.254,176.535c0,1.328-1.074,2.403-2.402,2.403c-1.325,0-2.399-1.075-2.399-2.403
	c0-1.324,1.074-2.398,2.399-2.398C62.18,174.137,63.254,175.211,63.254,176.535z"/>
<path fill="#BC1E47" stroke="#231F20" d="M126.012,65.402c0,1.328-1.074,2.403-2.399,2.403c-1.328,0-2.402-1.075-2.402-2.403
	c0-1.324,1.074-2.398,2.402-2.398C124.938,63.004,126.012,64.079,126.012,65.402z"/>
<circle fill="#BC1E47" stroke="#231F20" cx="58.888" cy="190.625" r="2.401"/>
<path fill="#BC1E47" stroke="#231F20" d="M62.168,183.363c0,1.325-1.074,2.399-2.398,2.399c-1.329,0-2.403-1.074-2.403-2.399
	c0-1.328,1.074-2.402,2.403-2.402C61.094,180.961,62.168,182.035,62.168,183.363z"/>
<circle fill="#BC1E47" stroke="#231F20" cx="71.217" cy="188.435" r="2.401"/>
<path fill="#BC1E47" stroke="#231F20" d="M95.594,121.517c0,1.324-1.074,2.398-2.399,2.398c-1.324,0-2.398-1.074-2.398-2.398
	c0-1.328,1.074-2.403,2.398-2.403C94.52,119.113,95.594,120.188,95.594,121.517z"/>
<path fill="#BC1E47" stroke="#231F20" d="M138.871,70.273c0,1.325-1.074,2.399-2.402,2.399c-1.324,0-2.399-1.074-2.399-2.399
	c0-1.328,1.075-2.402,2.399-2.402C137.797,67.872,138.871,68.945,138.871,70.273z"/>
<path fill="#BC1E47" stroke="#231F20" d="M144.277,66.047c0,1.328-1.074,2.402-2.402,2.402c-1.324,0-2.398-1.074-2.398-2.402
	c0-1.324,1.074-2.399,2.398-2.399C143.203,63.648,144.277,64.724,144.277,66.047z"/>
<path fill="#BC1E47" stroke="#231F20" d="M401.238,88.458c0,1.324-1.074,2.402-2.398,2.402s-2.399-1.078-2.399-2.402
	c0-1.324,1.075-2.398,2.399-2.398S401.238,87.133,401.238,88.458z"/>
<path fill="#BC1E47" stroke="#231F20" d="M100.91,307.509c0,1.323-1.074,2.401-2.402,2.401c-1.324,0-2.399-1.078-2.399-2.401
	c0-1.324,1.075-2.399,2.399-2.399C99.836,305.109,100.91,306.185,100.91,307.509z"/>
<circle fill="#BC1E47" stroke="#231F20" cx="421.938" cy="156.066" r="2.398"/>
<circle fill="#BC1E47" stroke="#231F20" cx="423.869" cy="162.648" r="2.4"/>
<path fill="#BC1E47" stroke="#231F20" d="M67.555,296.691c0,1.325-1.075,2.399-2.399,2.399c-1.328,0-2.402-1.074-2.402-2.399
	c0-1.328,1.074-2.402,2.402-2.402C66.48,294.289,67.555,295.363,67.555,296.691z"/>
<circle fill="#BC1E47" stroke="#231F20" cx="224.431" cy="31.777" r="2.401"/>
<path fill="#BC1E47" stroke="#231F20" d="M233.637,30.931c0,1.324-1.074,2.402-2.398,2.402s-2.398-1.078-2.398-2.402
	c0-1.325,1.074-2.399,2.398-2.399S233.637,29.605,233.637,30.931z"/>
<circle fill="#BC1E47" stroke="#231F20" cx="222.72" cy="19.887" r="2.401"/>
<circle fill="#BC1E47" stroke="#231F20" cx="221.013" cy="8" r="2.401"/>
<path fill="#BC1E47" stroke="#231F20" d="M453.281,318.521c0,1.324-1.075,2.397-2.402,2.397c-1.324,0-2.398-1.073-2.398-2.397
	c0-1.329,1.074-2.403,2.398-2.403C452.206,316.117,453.281,317.191,453.281,318.521z"/>
<circle fill="#BC1E47" stroke="#231F20" cx="446.607" cy="326.086" r="2.401"/>
<circle fill="#BC1E47" stroke="#231F20" cx="217.661" cy="32.883" r="2.398"/>
<circle fill="#BC1E47" stroke="#231F20" cx="238.073" cy="30.344" r="2.4"/>
<circle fill="#BC1E47" stroke="#231F20" cx="70.455" cy="330.431" r="2.4"/>
<path fill="#BC1E47" stroke="#231F20" d="M62.875,337.113c0,1.328-1.074,2.403-2.398,2.403c-1.325,0-2.403-1.075-2.403-2.403
	c0-1.324,1.078-2.397,2.403-2.397C61.801,334.716,62.875,335.789,62.875,337.113z"/>
<circle fill="#BC1E47" stroke="#231F20" cx="137.357" cy="350.656" r="2.4"/>
<circle fill="#BC1E47" stroke="#231F20" cx="132.089" cy="346.263" r="2.398"/>
<path fill="#BC1E47" stroke="#231F20" d="M97,323.062c0,1.325-1.074,2.398-2.402,2.398c-1.325,0-2.399-1.073-2.399-2.398
	c0-1.328,1.074-2.402,2.399-2.402C95.926,320.66,97,321.734,97,323.062z"/>
<path fill="#BC1E47" stroke="#231F20" d="M87.281,330.121c0,1.324-1.074,2.402-2.398,2.402c-1.324,0-2.399-1.078-2.399-2.402
	c0-1.323,1.075-2.397,2.399-2.397C86.207,327.724,87.281,328.798,87.281,330.121z"/>
<circle fill="#BC1E47" stroke="#231F20" cx="80.434" cy="323.746" r="2.398"/>
<path fill="#BC1E47" stroke="#231F20" d="M78.629,317.207c0,1.324-1.074,2.398-2.399,2.398c-1.324,0-2.402-1.074-2.402-2.398
	c0-1.328,1.078-2.401,2.402-2.401C77.555,314.806,78.629,315.879,78.629,317.207z"/>
<circle fill="#BC1E47" stroke="#231F20" cx="201.217" cy="24.247" r="2.401"/>
<circle fill="#BC1E47" stroke="#231F20" cx="208.329" cy="22.521" r="2.398"/>
<path fill="#BC1E47" stroke="#231F20" d="M267.887,30.605c0,1.325-1.074,2.399-2.398,2.399s-2.398-1.074-2.398-2.399
	c0-1.328,1.074-2.402,2.398-2.402S267.887,29.277,267.887,30.605z"/>
<path fill="#BC1E47" stroke="#231F20" d="M254.188,29.954c0,1.324-1.079,2.399-2.403,2.399s-2.398-1.075-2.398-2.399
	c0-1.328,1.074-2.402,2.398-2.402S254.188,28.625,254.188,29.954z"/>
<path fill="#BC1E47" stroke="#231F20" d="M168.395,369.445c0,1.328-1.075,2.403-2.399,2.403c-1.328,0-2.402-1.075-2.402-2.403
	c0-1.324,1.074-2.397,2.402-2.397C167.32,367.048,168.395,368.121,168.395,369.445z"/>
<path fill="#BC1E47" stroke="#231F20" d="M162.391,366.129c0,1.328-1.075,2.402-2.403,2.402c-1.324,0-2.398-1.074-2.398-2.402
	c0-1.323,1.074-2.398,2.398-2.398C161.316,363.73,162.391,364.806,162.391,366.129z"/>
<path fill="#BC1E47" stroke="#231F20" d="M206.672,35.863c0,1.325-1.078,2.399-2.402,2.399c-1.325,0-2.399-1.074-2.399-2.399
	c0-1.328,1.074-2.402,2.399-2.402C205.594,33.461,206.672,34.535,206.672,35.863z"/>
<path fill="#BC1E47" stroke="#231F20" d="M213.336,34.247c0,1.324-1.074,2.399-2.398,2.399c-1.325,0-2.403-1.075-2.403-2.399
	c0-1.328,1.078-2.402,2.403-2.402C212.262,31.844,213.336,32.918,213.336,34.247z"/>
<circle fill="#BC1E47" stroke="#231F20" cx="370.623" cy="76.219" r="2.4"/>
<circle fill="#BC1E47" stroke="#231F20" cx="375.631" cy="80.906" r="2.4"/>
<circle fill="#BC1E47" stroke="#231F20" cx="393.783" cy="101.454" r="2.4"/>
<path fill="#BC1E47" stroke="#231F20" d="M351.706,45.54c0,1.324-1.073,2.399-2.397,2.399s-2.398-1.075-2.398-2.399
	c0-1.328,1.074-2.402,2.398-2.402S351.706,44.211,351.706,45.54z"/>
<circle fill="#BC1E47" stroke="#231F20" cx="246.641" cy="90.047" r="2.398"/>
<path fill="#BC1E47" stroke="#231F20" d="M342.488,289.621c0,1.324-1.074,2.399-2.398,2.399s-2.401-1.075-2.401-2.399
	c0-1.328,1.077-2.401,2.401-2.401S342.488,288.293,342.488,289.621z"/>
<path fill="#BC1E47" stroke="#231F20" d="M314.625,41.004c0,1.328-1.073,2.402-2.397,2.402c-1.325,0-2.4-1.074-2.4-2.402
	c0-1.324,1.075-2.399,2.4-2.399C313.552,38.605,314.625,39.681,314.625,41.004z"/>
<path fill="#BC1E47" stroke="#231F20" d="M269.562,328.992c0,1.324-1.074,2.399-2.398,2.399s-2.398-1.075-2.398-2.399
	c0-1.328,1.074-2.401,2.398-2.401S269.562,327.664,269.562,328.992z"/>
<path fill="#BC1E47" stroke="#231F20" d="M200.504,318.392c0,1.324-1.074,2.397-2.399,2.397c-1.324,0-2.402-1.073-2.402-2.397
	c0-1.329,1.078-2.403,2.402-2.403C199.43,315.988,200.504,317.062,200.504,318.392z"/>
<circle fill="#BC1E47" stroke="#231F20" cx="204.373" cy="321.181" r="2.4"/>
<path fill="#BC1E47" stroke="#231F20" d="M194.406,315.246c0,1.324-1.074,2.402-2.398,2.402c-1.324,0-2.399-1.078-2.399-2.402
	c0-1.323,1.075-2.397,2.399-2.397C193.332,312.849,194.406,313.923,194.406,315.246z"/>
<path fill="#BC1E47" stroke="#231F20" d="M339.397,292.988c0,1.328-1.074,2.403-2.401,2.403c-1.323,0-2.398-1.075-2.398-2.403
	c0-1.324,1.075-2.397,2.398-2.397C338.323,290.591,339.397,291.664,339.397,292.988z"/>
<path fill="#BC1E47" stroke="#231F20" d="M325.812,305.22c0,1.323-1.074,2.401-2.398,2.401s-2.398-1.078-2.398-2.401
	c0-1.324,1.074-2.399,2.398-2.399S325.812,303.896,325.812,305.22z"/>
<path fill="#BC1E47" stroke="#231F20" d="M329.383,302.359c0,1.325-1.074,2.399-2.402,2.399c-1.324,0-2.399-1.074-2.399-2.399
	c0-1.328,1.075-2.402,2.399-2.402C328.309,299.957,329.383,301.031,329.383,302.359z"/>
<circle fill="#BC1E47" stroke="#231F20" cx="332.123" cy="297.816" r="2.4"/>
<circle fill="#BC1E47" stroke="#231F20" cx="324.912" cy="46.224" r="2.4"/>
<path fill="#BC1E47" stroke="#231F20" d="M440.723,316.414c0,1.328-1.075,2.402-2.403,2.402c-1.324,0-2.396-1.074-2.396-2.402
	c0-1.323,1.072-2.397,2.396-2.397C439.647,314.017,440.723,315.091,440.723,316.414z"/>
<circle fill="#BC1E47" stroke="#231F20" cx="427.861" cy="310.509" r="2.4"/>
<path fill="#BC1E47" stroke="#231F20" d="M419.805,304.603c0,1.328-1.074,2.401-2.398,2.401c-1.329,0-2.402-1.073-2.402-2.401
	c0-1.325,1.073-2.399,2.402-2.399C418.73,302.203,419.805,303.277,419.805,304.603z"/>
<path fill="#BC1E47" stroke="#231F20" d="M442.027,285.992c0,1.324-1.075,2.403-2.398,2.403c-1.324,0-2.401-1.079-2.401-2.403
	s1.077-2.397,2.401-2.397C440.952,283.595,442.027,284.668,442.027,285.992z"/>
<path fill="#BC1E47" stroke="#231F20" d="M439,293.156c0,1.324-1.073,2.399-2.397,2.399c-1.325,0-2.4-1.075-2.4-2.399
	c0-1.328,1.075-2.402,2.4-2.402C437.927,290.754,439,291.828,439,293.156z"/>
<circle fill="#BC1E47" stroke="#231F20" cx="433.304" cy="300.195" r="2.398"/>
<path fill="#BC1E47" stroke="#231F20" d="M433.469,274.685c0,1.328-1.074,2.401-2.403,2.401c-1.323,0-2.396-1.073-2.396-2.401
	c0-1.325,1.073-2.399,2.396-2.399C432.395,272.285,433.469,273.359,433.469,274.685z"/>
<path fill="#BC1E47" stroke="#231F20" d="M429.484,284.914c0,1.324-1.074,2.398-2.398,2.398s-2.397-1.074-2.397-2.398
	c0-1.328,1.073-2.401,2.397-2.401S429.484,283.586,429.484,284.914z"/>
<path fill="#BC1E47" stroke="#231F20" d="M424.927,294.896c0,1.328-1.074,2.402-2.399,2.402c-1.329,0-2.402-1.074-2.402-2.402
	c0-1.325,1.073-2.399,2.402-2.399C423.853,292.496,424.927,293.57,424.927,294.896z"/>
<path fill="#BC1E47" stroke="#231F20" d="M435.798,267.746c0,1.328-1.079,2.402-2.403,2.402c-1.325,0-2.399-1.074-2.399-2.402
	c0-1.323,1.074-2.397,2.399-2.397C434.719,265.349,435.798,266.423,435.798,267.746z"/>
<path fill="#BC1E47" stroke="#231F20" d="M219.73,94.547c0,1.324-1.074,2.398-2.398,2.398c-1.328,0-2.402-1.074-2.402-2.398
	c0-1.328,1.074-2.402,2.402-2.402C218.656,92.146,219.73,93.219,219.73,94.547z"/>
<path fill="#BC1E47" stroke="#231F20" d="M146.781,153.047c0,1.324-1.074,2.398-2.398,2.398c-1.328,0-2.403-1.074-2.403-2.398
	c0-1.328,1.075-2.402,2.403-2.402C145.707,150.646,146.781,151.719,146.781,153.047z"/>
<circle fill="#BC1E47" stroke="#231F20" cx="76.033" cy="291.599" r="2.401"/>
<path fill="#BC1E47" stroke="#231F20" d="M75.457,284.914c0,1.324-1.074,2.398-2.402,2.398c-1.325,0-2.399-1.074-2.399-2.398
	c0-1.328,1.074-2.401,2.399-2.401C74.383,282.513,75.457,283.586,75.457,284.914z"/>
<path fill="#BC1E47" stroke="#231F20" d="M72.734,278.121c0,1.324-1.074,2.399-2.398,2.399c-1.324,0-2.398-1.075-2.398-2.399
	c0-1.328,1.074-2.401,2.398-2.401C71.66,275.72,72.734,276.793,72.734,278.121z"/>
<circle fill="#BC1E47" stroke="#231F20" cx="85.484" cy="283.384" r="2.398"/>
<path fill="#BC1E47" stroke="#231F20" d="M83.969,273.867c0,1.328-1.074,2.403-2.399,2.403c-1.328,0-2.402-1.075-2.402-2.403
	c0-1.324,1.074-2.397,2.402-2.397C82.895,271.47,83.969,272.543,83.969,273.867z"/>
<path fill="#BC1E47" stroke="#231F20" d="M81.664,267.406c0,1.328-1.074,2.403-2.398,2.403c-1.328,0-2.403-1.075-2.403-2.403
	c0-1.324,1.075-2.397,2.403-2.397C80.59,265.009,81.664,266.082,81.664,267.406z"/>
<path fill="#BC1E47" stroke="#231F20" d="M278.559,92.863c0,1.328-1.074,2.403-2.398,2.403s-2.398-1.075-2.398-2.403
	c0-1.324,1.074-2.398,2.398-2.398S278.559,91.54,278.559,92.863z"/>
<path fill="#BC1E47" stroke="#231F20" d="M271.823,91.566c0,1.325-1.073,2.403-2.396,2.403c-1.329,0-2.404-1.078-2.404-2.403
	c0-1.324,1.075-2.398,2.404-2.398C270.75,89.168,271.823,90.242,271.823,91.566z"/>
<path fill="#BC1E47" stroke="#231F20" d="M372.23,200.969c0,1.324-1.074,2.398-2.399,2.398c-1.327,0-2.401-1.074-2.401-2.398
	c0-1.328,1.074-2.403,2.401-2.403C371.156,198.566,372.23,199.642,372.23,200.969z"/>
<circle fill="#BC1E47" stroke="#231F20" cx="264.897" cy="90.915" r="2.401"/>
<path fill="#BC1E47" stroke="#231F20" d="M258.188,90.133c0,1.324-1.079,2.402-2.403,2.402s-2.398-1.078-2.398-2.402
	c0-1.324,1.074-2.399,2.398-2.399S258.188,88.81,258.188,90.133z"/>
<path fill="#BC1E47" stroke="#231F20" d="M294.944,35.023c0,1.325-1.073,2.399-2.396,2.399c-1.329,0-2.403-1.074-2.403-2.399
	c0-1.328,1.074-2.402,2.403-2.402C293.871,32.622,294.944,33.695,294.944,35.023z"/>
<path fill="#BC1E47" stroke="#231F20" d="M300.277,99.922c0,1.324-1.075,2.398-2.402,2.398c-1.323,0-2.397-1.074-2.397-2.398
	c0-1.328,1.074-2.402,2.397-2.402C299.202,97.521,300.277,98.594,300.277,99.922z"/>
<circle fill="#BC1E47" stroke="#231F20" cx="196.052" cy="102.829" r="2.401"/>
</svg>
