<?xml version="1.0" encoding="utf-8"?>
<!-- Generator: Adobe Illustrator 15.1.0, SVG Export Plug-In . SVG Version: 6.00 Build 0)  -->
<!DOCTYPE svg PUBLIC "-//W3C//DTD SVG 1.1//EN" "http://www.w3.org/Graphics/SVG/1.1/DTD/svg11.dtd">
<svg version="1.1" id="Layer_1" xmlns="http://www.w3.org/2000/svg" xmlns:xlink="http://www.w3.org/1999/xlink" x="0px" y="0px"
	 width="450px" height="144px" viewBox="0 0 450 144" enable-background="new 0 0 450 144" xml:space="preserve">
<line fill="none" stroke="#231F20" stroke-width="2" stroke-miterlimit="10" x1="342" y1="72" x2="432" y2="72"/>
<rect x="355.18" y="40.18" transform="matrix(-0.7071 0.7071 -0.7071 -0.7071 711.562 -150.7386)" fill="none" stroke="#231F20" stroke-width="2" stroke-miterlimit="10" width="63.64" height="63.64"/>
<line fill="none" stroke="#231F20" stroke-width="2" stroke-miterlimit="10" x1="198" y1="72" x2="270" y2="72"/>
<polyline fill="none" stroke="#231F20" stroke-width="2" stroke-miterlimit="10" points="198,18 198,72 234,126 270,72 270,18 "/>
<line fill="none" stroke="#231F20" stroke-width="2" stroke-miterlimit="10" x1="18" y1="72" x2="126" y2="72"/>
<line fill="none" stroke="#231F20" stroke-width="2" stroke-miterlimit="10" x1="72" y1="126" x2="72" y2="18"/>
<circle fill="#0081CD" stroke="#231F20" stroke-miterlimit="10" cx="72" cy="72" r="9"/>
<circle fill="#0081CD" stroke="#231F20" stroke-miterlimit="10" cx="72" cy="18" r="9"/>
<circle fill="#0081CD" stroke="#231F20" stroke-miterlimit="10" cx="18" cy="72" r="9"/>
<circle fill="#0081CD" stroke="#231F20" stroke-miterlimit="10" cx="126" cy="72" r="9"/>
<circle fill="#0081CD" stroke="#231F20" stroke-miterlimit="10" cx="72" cy="126" r="9"/>
<circle fill="#BC1E47" stroke="#231F20" stroke-width="2" stroke-miterlimit="10" cx="198" cy="72" r="9"/>
<circle fill="#BC1E47" stroke="#231F20" stroke-width="2" stroke-miterlimit="10" cx="270" cy="72" r="9"/>
<circle fill="#BC1E47" stroke="#231F20" stroke-width="2" stroke-miterlimit="10" cx="234" cy="126" r="9"/>
<circle fill="#BC1E47" stroke="#231F20" stroke-width="2" stroke-miterlimit="10" cx="198" cy="18" r="9"/>
<circle fill="#BC1E47" stroke="#231F20" stroke-width="2" stroke-miterlimit="10" cx="270" cy="18" r="9"/>
<circle fill="#009246" stroke="#231F20" stroke-width="2" stroke-miterlimit="10" cx="342" cy="72" r="9"/>
<circle fill="#009246" stroke="#231F20" stroke-width="2" stroke-miterlimit="10" cx="432" cy="72" r="9"/>
<circle fill="#009246" stroke="#231F20" stroke-width="2" stroke-miterlimit="10" cx="387" cy="27" r="9"/>
<circle fill="#009246" stroke="#231F20" stroke-width="2" stroke-miterlimit="10" cx="387" cy="117" r="9"/>
</svg>
