<?xml version="1.0" encoding="utf-8"?>
<!-- Generator: Adobe Illustrator 15.1.0, SVG Export Plug-In . SVG Version: 6.00 Build 0)  -->
<!DOCTYPE svg PUBLIC "-//W3C//DTD SVG 1.1//EN" "http://www.w3.org/Graphics/SVG/1.1/DTD/svg11.dtd">
<svg version="1.1" id="Layer_1" xmlns="http://www.w3.org/2000/svg" xmlns:xlink="http://www.w3.org/1999/xlink" x="0px" y="0px"
	 width="504px" height="468px" viewBox="0 0 504 468" enable-background="new 0 0 504 468" xml:space="preserve">
<line fill="none" stroke="#000000" stroke-width="4" x1="243" y1="243" x2="261" y2="225"/>
<rect x="239.268" y="208.544" transform="matrix(-0.7071 0.7071 -0.7071 -0.7071 595.6476 221.2747)" fill="none" stroke="#000000" stroke-width="4" width="25.456" height="50.911"/>
<rect x="117" y="117" fill="none" stroke="#BC1E47" stroke-width="4" width="72" height="72"/>
<circle fill="#FFFFFF" stroke="#000000" cx="117" cy="117" r="6"/>
<circle fill="#FFFFFF" stroke="#000000" cx="117" cy="153" r="6"/>
<circle fill="#FFFFFF" stroke="#000000" cx="117" cy="189" r="6"/>
<circle fill="#FFFFFF" stroke="#000000" cx="153" cy="117" r="6"/>
<circle fill="#FFFFFF" stroke="#000000" cx="153" cy="189" r="6"/>
<circle fill="#FFFFFF" stroke="#000000" cx="189" cy="117" r="6"/>
<circle fill="#FFFFFF" stroke="#000000" cx="189" cy="153" r="6"/>
<circle fill="#FFFFFF" stroke="#000000" cx="189" cy="189" r="6"/>
<rect x="261" y="225" fill="none" stroke="#BC1E47" stroke-width="4" width="72" height="72"/>
<circle fill="#FFFFFF" stroke="#000000" cx="261" cy="225" r="6"/>
<circle fill="#FFFFFF" stroke="#000000" cx="261" cy="261" r="6"/>
<circle fill="#FFFFFF" stroke="#000000" cx="261" cy="297" r="6"/>
<circle fill="#FFFFFF" stroke="#000000" cx="297" cy="225" r="6"/>
<circle fill="#FFFFFF" stroke="#000000" cx="297" cy="297" r="6"/>
<circle fill="#FFFFFF" stroke="#000000" cx="333" cy="225" r="6"/>
<circle fill="#FFFFFF" stroke="#000000" cx="333" cy="261" r="6"/>
<circle fill="#FFFFFF" stroke="#000000" cx="333" cy="297" r="6"/>
<rect x="261" y="117" fill="none" stroke="#BC1E47" stroke-width="4" width="72" height="72"/>
<circle fill="#FFFFFF" stroke="#000000" cx="261" cy="117" r="6"/>
<circle fill="#FFFFFF" stroke="#000000" cx="261" cy="153" r="6"/>
<circle fill="#FFFFFF" stroke="#000000" cx="261" cy="189" r="6"/>
<circle fill="#FFFFFF" stroke="#000000" cx="297" cy="117" r="6"/>
<circle fill="#FFFFFF" stroke="#000000" cx="297" cy="189" r="6"/>
<circle fill="#FFFFFF" stroke="#000000" cx="333" cy="117" r="6"/>
<circle fill="#FFFFFF" stroke="#000000" cx="333" cy="153" r="6"/>
<circle fill="#FFFFFF" stroke="#000000" cx="333" cy="189" r="6"/>
<rect x="117" y="333" fill="none" stroke="#BC1E47" stroke-width="4" width="72" height="72"/>
<circle fill="#FFFFFF" stroke="#000000" cx="117" cy="333" r="6"/>
<circle fill="#FFFFFF" stroke="#000000" cx="117" cy="369" r="6"/>
<circle fill="#FFFFFF" stroke="#000000" cx="117" cy="405" r="6"/>
<circle fill="#FFFFFF" stroke="#000000" cx="153" cy="333" r="6"/>
<circle fill="#FFFFFF" stroke="#000000" cx="153" cy="405" r="6"/>
<circle fill="#FFFFFF" stroke="#000000" cx="189" cy="333" r="6"/>
<circle fill="#FFFFFF" stroke="#000000" cx="189" cy="369" r="6"/>
<circle fill="#FFFFFF" stroke="#000000" cx="189" cy="405" r="6"/>
<rect x="225" y="225" fill="none" stroke="#BC1E47" stroke-width="4" width="36" height="72"/>
<circle fill="#FFFFFF" stroke="#000000" cx="225" cy="225" r="6"/>
<circle fill="#FFFFFF" stroke="#000000" cx="225" cy="261" r="6"/>
<circle fill="#FFFFFF" stroke="#000000" cx="225" cy="297" r="6"/>
<circle fill="#FFFFFF" stroke="#000000" cx="261" cy="225" r="6"/>
<circle fill="#FFFFFF" stroke="#000000" cx="261" cy="261" r="6"/>
<circle fill="#FFFFFF" stroke="#000000" cx="261" cy="297" r="6"/>
<rect x="225" y="117" fill="none" stroke="#BC1E47" stroke-width="4" width="36" height="72"/>
<circle fill="#FFFFFF" stroke="#000000" cx="225" cy="117" r="6"/>
<circle fill="#FFFFFF" stroke="#000000" cx="225" cy="153" r="6"/>
<circle fill="#FFFFFF" stroke="#000000" cx="225" cy="189" r="6"/>
<circle fill="#FFFFFF" stroke="#000000" cx="261" cy="117" r="6"/>
<circle fill="#FFFFFF" stroke="#000000" cx="261" cy="153" r="6"/>
<circle fill="#FFFFFF" stroke="#000000" cx="261" cy="189" r="6"/>
<rect x="189" y="117" fill="none" stroke="#BC1E47" stroke-width="4" width="36" height="72"/>
<circle fill="#FFFFFF" stroke="#000000" cx="189" cy="117" r="6"/>
<circle fill="#FFFFFF" stroke="#000000" cx="189" cy="153" r="6"/>
<circle fill="#FFFFFF" stroke="#000000" cx="189" cy="189" r="6"/>
<circle fill="#FFFFFF" stroke="#000000" cx="225" cy="117" r="6"/>
<circle fill="#FFFFFF" stroke="#000000" cx="225" cy="153" r="6"/>
<circle fill="#FFFFFF" stroke="#000000" cx="225" cy="189" r="6"/>
<rect x="225" y="333" fill="none" stroke="#BC1E47" stroke-width="4" width="36" height="72"/>
<circle fill="#FFFFFF" stroke="#000000" cx="225" cy="333" r="6"/>
<circle fill="#FFFFFF" stroke="#000000" cx="225" cy="369" r="6"/>
<circle fill="#FFFFFF" stroke="#000000" cx="225" cy="405" r="6"/>
<circle fill="#FFFFFF" stroke="#000000" cx="261" cy="333" r="6"/>
<circle fill="#FFFFFF" stroke="#000000" cx="261" cy="369" r="6"/>
<circle fill="#FFFFFF" stroke="#000000" cx="261" cy="405" r="6"/>
<rect x="189" y="333" fill="none" stroke="#BC1E47" stroke-width="4" width="36" height="72"/>
<circle fill="#FFFFFF" stroke="#000000" cx="189" cy="333" r="6"/>
<circle fill="#FFFFFF" stroke="#000000" cx="189" cy="369" r="6"/>
<circle fill="#FFFFFF" stroke="#000000" cx="189" cy="405" r="6"/>
<circle fill="#FFFFFF" stroke="#000000" cx="225" cy="333" r="6"/>
<circle fill="#FFFFFF" stroke="#000000" cx="225" cy="369" r="6"/>
<circle fill="#FFFFFF" stroke="#000000" cx="225" cy="405" r="6"/>
<rect x="333" y="333" fill="none" stroke="#BC1E47" stroke-width="4" width="36" height="72"/>
<circle fill="#FFFFFF" stroke="#000000" cx="333" cy="333" r="6"/>
<circle fill="#FFFFFF" stroke="#000000" cx="333" cy="369" r="6"/>
<circle fill="#FFFFFF" stroke="#000000" cx="333" cy="405" r="6"/>
<circle fill="#FFFFFF" stroke="#000000" cx="369" cy="333" r="6"/>
<circle fill="#FFFFFF" stroke="#000000" cx="369" cy="369" r="6"/>
<circle fill="#FFFFFF" stroke="#000000" cx="369" cy="405" r="6"/>
<rect x="297" y="333" fill="none" stroke="#BC1E47" stroke-width="4" width="36" height="72"/>
<circle fill="#FFFFFF" stroke="#000000" cx="297" cy="333" r="6"/>
<circle fill="#FFFFFF" stroke="#000000" cx="297" cy="369" r="6"/>
<circle fill="#FFFFFF" stroke="#000000" cx="297" cy="405" r="6"/>
<circle fill="#FFFFFF" stroke="#000000" cx="333" cy="333" r="6"/>
<circle fill="#FFFFFF" stroke="#000000" cx="333" cy="369" r="6"/>
<circle fill="#FFFFFF" stroke="#000000" cx="333" cy="405" r="6"/>
<rect x="261" y="333" fill="none" stroke="#BC1E47" stroke-width="4" width="36" height="72"/>
<circle fill="#FFFFFF" stroke="#000000" cx="261" cy="333" r="6"/>
<circle fill="#FFFFFF" stroke="#000000" cx="261" cy="369" r="6"/>
<circle fill="#FFFFFF" stroke="#000000" cx="261" cy="405" r="6"/>
<circle fill="#FFFFFF" stroke="#000000" cx="297" cy="333" r="6"/>
<circle fill="#FFFFFF" stroke="#000000" cx="297" cy="369" r="6"/>
<circle fill="#FFFFFF" stroke="#000000" cx="297" cy="405" r="6"/>
<rect x="9" y="9" fill="none" stroke="#BC1E47" stroke-width="4" width="72" height="72"/>
<circle fill="#FFFFFF" stroke="#000000" cx="9" cy="9" r="6"/>
<circle fill="#FFFFFF" stroke="#000000" cx="9" cy="45" r="6"/>
<circle fill="#FFFFFF" stroke="#000000" cx="9" cy="81" r="6"/>
<circle fill="#FFFFFF" stroke="#000000" cx="45" cy="9" r="6"/>
<circle fill="#FFFFFF" stroke="#000000" cx="45" cy="81" r="6"/>
<circle fill="#FFFFFF" stroke="#000000" cx="81" cy="9" r="6"/>
<circle fill="#FFFFFF" stroke="#000000" cx="81" cy="45" r="6"/>
<circle fill="#FFFFFF" stroke="#000000" cx="81" cy="81" r="6"/>
<rect x="117" y="9" fill="none" stroke="#BC1E47" stroke-width="4" width="36" height="72"/>
<circle fill="#FFFFFF" stroke="#000000" cx="117" cy="9" r="6"/>
<circle fill="#FFFFFF" stroke="#000000" cx="117" cy="45" r="6"/>
<circle fill="#FFFFFF" stroke="#000000" cx="117" cy="81" r="6"/>
<circle fill="#FFFFFF" stroke="#000000" cx="153" cy="9" r="6"/>
<circle fill="#FFFFFF" stroke="#000000" cx="153" cy="45" r="6"/>
<circle fill="#FFFFFF" stroke="#000000" cx="153" cy="81" r="6"/>
<rect x="81" y="9" fill="none" stroke="#BC1E47" stroke-width="4" width="36" height="72"/>
<circle fill="#FFFFFF" stroke="#000000" cx="81" cy="9" r="6"/>
<circle fill="#FFFFFF" stroke="#000000" cx="81" cy="45" r="6"/>
<circle fill="#FFFFFF" stroke="#000000" cx="81" cy="81" r="6"/>
<circle fill="#FFFFFF" stroke="#000000" cx="117" cy="9" r="6"/>
<circle fill="#FFFFFF" stroke="#000000" cx="117" cy="45" r="6"/>
<circle fill="#FFFFFF" stroke="#000000" cx="117" cy="81" r="6"/>
<rect x="153" y="9" fill="none" stroke="#BC1E47" stroke-width="4" width="36" height="72"/>
<circle fill="#FFFFFF" stroke="#000000" cx="153" cy="9" r="6"/>
<circle fill="#FFFFFF" stroke="#000000" cx="153" cy="45" r="6"/>
<circle fill="#FFFFFF" stroke="#000000" cx="153" cy="81" r="6"/>
<circle fill="#FFFFFF" stroke="#000000" cx="189" cy="9" r="6"/>
<circle fill="#FFFFFF" stroke="#000000" cx="189" cy="45" r="6"/>
<circle fill="#FFFFFF" stroke="#000000" cx="189" cy="81" r="6"/>
<rect x="225" y="9" fill="none" stroke="#BC1E47" stroke-width="4" width="36" height="72"/>
<circle fill="#FFFFFF" stroke="#000000" cx="225" cy="9" r="6"/>
<circle fill="#FFFFFF" stroke="#000000" cx="225" cy="45" r="6"/>
<circle fill="#FFFFFF" stroke="#000000" cx="225" cy="81" r="6"/>
<circle fill="#FFFFFF" stroke="#000000" cx="261" cy="9" r="6"/>
<circle fill="#FFFFFF" stroke="#000000" cx="261" cy="45" r="6"/>
<circle fill="#FFFFFF" stroke="#000000" cx="261" cy="81" r="6"/>
<rect x="189" y="9" fill="none" stroke="#BC1E47" stroke-width="4" width="36" height="72"/>
<circle fill="#FFFFFF" stroke="#000000" cx="189" cy="9" r="6"/>
<circle fill="#FFFFFF" stroke="#000000" cx="189" cy="45" r="6"/>
<circle fill="#FFFFFF" stroke="#000000" cx="189" cy="81" r="6"/>
<circle fill="#FFFFFF" stroke="#000000" cx="225" cy="9" r="6"/>
<circle fill="#FFFFFF" stroke="#000000" cx="225" cy="45" r="6"/>
<circle fill="#FFFFFF" stroke="#000000" cx="225" cy="81" r="6"/>
<rect x="333" y="9" fill="none" stroke="#BC1E47" stroke-width="4" width="36" height="72"/>
<circle fill="#FFFFFF" stroke="#000000" cx="333" cy="9" r="6"/>
<circle fill="#FFFFFF" stroke="#000000" cx="333" cy="45" r="6"/>
<circle fill="#FFFFFF" stroke="#000000" cx="333" cy="81" r="6"/>
<circle fill="#FFFFFF" stroke="#000000" cx="369" cy="9" r="6"/>
<circle fill="#FFFFFF" stroke="#000000" cx="369" cy="45" r="6"/>
<circle fill="#FFFFFF" stroke="#000000" cx="369" cy="81" r="6"/>
<rect x="297" y="9" fill="none" stroke="#BC1E47" stroke-width="4" width="36" height="72"/>
<circle fill="#FFFFFF" stroke="#000000" cx="297" cy="9" r="6"/>
<circle fill="#FFFFFF" stroke="#000000" cx="297" cy="45" r="6"/>
<circle fill="#FFFFFF" stroke="#000000" cx="297" cy="81" r="6"/>
<circle fill="#FFFFFF" stroke="#000000" cx="333" cy="9" r="6"/>
<circle fill="#FFFFFF" stroke="#000000" cx="333" cy="45" r="6"/>
<circle fill="#FFFFFF" stroke="#000000" cx="333" cy="81" r="6"/>
<rect x="261" y="9" fill="none" stroke="#BC1E47" stroke-width="4" width="36" height="72"/>
<circle fill="#FFFFFF" stroke="#000000" cx="261" cy="9" r="6"/>
<circle fill="#FFFFFF" stroke="#000000" cx="261" cy="45" r="6"/>
<circle fill="#FFFFFF" stroke="#000000" cx="261" cy="81" r="6"/>
<circle fill="#FFFFFF" stroke="#000000" cx="297" cy="9" r="6"/>
<circle fill="#FFFFFF" stroke="#000000" cx="297" cy="45" r="6"/>
<circle fill="#FFFFFF" stroke="#000000" cx="297" cy="81" r="6"/>
<rect x="117" y="189" fill="none" stroke="#BC1E47" stroke-width="4" width="72" height="36"/>
<circle fill="#FFFFFF" stroke="#000000" cx="117" cy="189" r="6"/>
<circle fill="#FFFFFF" stroke="#000000" cx="117" cy="225" r="6"/>
<circle fill="#FFFFFF" stroke="#000000" cx="153" cy="189" r="6"/>
<circle fill="#FFFFFF" stroke="#000000" cx="153" cy="225" r="6"/>
<circle fill="#FFFFFF" stroke="#000000" cx="189" cy="189" r="6"/>
<circle fill="#FFFFFF" stroke="#000000" cx="189" cy="225" r="6"/>
<rect x="117" y="225" fill="none" stroke="#BC1E47" stroke-width="4" width="72" height="36"/>
<circle fill="#FFFFFF" stroke="#000000" cx="117" cy="225" r="6"/>
<circle fill="#FFFFFF" stroke="#000000" cx="117" cy="261" r="6"/>
<circle fill="#FFFFFF" stroke="#000000" cx="153" cy="225" r="6"/>
<circle fill="#FFFFFF" stroke="#000000" cx="153" cy="261" r="6"/>
<circle fill="#FFFFFF" stroke="#000000" cx="189" cy="225" r="6"/>
<circle fill="#FFFFFF" stroke="#000000" cx="189" cy="261" r="6"/>
<rect x="117" y="261" fill="none" stroke="#BC1E47" stroke-width="4" width="72" height="36"/>
<circle fill="#FFFFFF" stroke="#000000" cx="117" cy="261" r="6"/>
<circle fill="#FFFFFF" stroke="#000000" cx="117" cy="297" r="6"/>
<circle fill="#FFFFFF" stroke="#000000" cx="153" cy="261" r="6"/>
<circle fill="#FFFFFF" stroke="#000000" cx="153" cy="297" r="6"/>
<circle fill="#FFFFFF" stroke="#000000" cx="189" cy="261" r="6"/>
<circle fill="#FFFFFF" stroke="#000000" cx="189" cy="297" r="6"/>
<rect x="369" y="9" fill="none" stroke="#BC1E47" stroke-width="4" width="72" height="72"/>
<circle fill="#FFFFFF" stroke="#000000" cx="369" cy="9" r="6"/>
<circle fill="#FFFFFF" stroke="#000000" cx="369" cy="45" r="6"/>
<circle fill="#FFFFFF" stroke="#000000" cx="369" cy="81" r="6"/>
<circle fill="#FFFFFF" stroke="#000000" cx="405" cy="9" r="6"/>
<circle fill="#FFFFFF" stroke="#000000" cx="405" cy="81" r="6"/>
<circle fill="#FFFFFF" stroke="#000000" cx="441" cy="9" r="6"/>
<circle fill="#FFFFFF" stroke="#000000" cx="441" cy="45" r="6"/>
<circle fill="#FFFFFF" stroke="#000000" cx="441" cy="81" r="6"/>
<rect x="369" y="81" fill="none" stroke="#BC1E47" stroke-width="4" width="72" height="36"/>
<circle fill="#FFFFFF" stroke="#000000" cx="369" cy="81" r="6"/>
<circle fill="#FFFFFF" stroke="#000000" cx="369" cy="117" r="6"/>
<circle fill="#FFFFFF" stroke="#000000" cx="405" cy="81" r="6"/>
<circle fill="#FFFFFF" stroke="#000000" cx="405" cy="117" r="6"/>
<circle fill="#FFFFFF" stroke="#000000" cx="441" cy="81" r="6"/>
<circle fill="#FFFFFF" stroke="#000000" cx="441" cy="117" r="6"/>
<rect x="369" y="117" fill="none" stroke="#BC1E47" stroke-width="4" width="72" height="36"/>
<circle fill="#FFFFFF" stroke="#000000" cx="369" cy="117" r="6"/>
<circle fill="#FFFFFF" stroke="#000000" cx="369" cy="153" r="6"/>
<circle fill="#FFFFFF" stroke="#000000" cx="405" cy="117" r="6"/>
<circle fill="#FFFFFF" stroke="#000000" cx="405" cy="153" r="6"/>
<circle fill="#FFFFFF" stroke="#000000" cx="441" cy="117" r="6"/>
<circle fill="#FFFFFF" stroke="#000000" cx="441" cy="153" r="6"/>
<rect x="369" y="153" fill="none" stroke="#BC1E47" stroke-width="4" width="72" height="36"/>
<circle fill="#FFFFFF" stroke="#000000" cx="369" cy="153" r="6"/>
<circle fill="#FFFFFF" stroke="#000000" cx="369" cy="189" r="6"/>
<circle fill="#FFFFFF" stroke="#000000" cx="405" cy="153" r="6"/>
<circle fill="#FFFFFF" stroke="#000000" cx="405" cy="189" r="6"/>
<circle fill="#FFFFFF" stroke="#000000" cx="441" cy="153" r="6"/>
<circle fill="#FFFFFF" stroke="#000000" cx="441" cy="189" r="6"/>
<rect x="117" y="297" fill="none" stroke="#BC1E47" stroke-width="4" width="72" height="36"/>
<circle fill="#FFFFFF" stroke="#000000" cx="117" cy="297" r="6"/>
<circle fill="#FFFFFF" stroke="#000000" cx="117" cy="333" r="6"/>
<circle fill="#FFFFFF" stroke="#000000" cx="153" cy="297" r="6"/>
<circle fill="#FFFFFF" stroke="#000000" cx="153" cy="333" r="6"/>
<circle fill="#FFFFFF" stroke="#000000" cx="189" cy="297" r="6"/>
<circle fill="#FFFFFF" stroke="#000000" cx="189" cy="333" r="6"/>
<rect x="369" y="333" fill="none" stroke="#BC1E47" stroke-width="4" width="72" height="72"/>
<circle fill="#FFFFFF" stroke="#000000" cx="369" cy="333" r="6"/>
<circle fill="#FFFFFF" stroke="#000000" cx="369" cy="369" r="6"/>
<circle fill="#FFFFFF" stroke="#000000" cx="369" cy="405" r="6"/>
<circle fill="#FFFFFF" stroke="#000000" cx="405" cy="333" r="6"/>
<circle fill="#FFFFFF" stroke="#000000" cx="405" cy="405" r="6"/>
<circle fill="#FFFFFF" stroke="#000000" cx="441" cy="333" r="6"/>
<circle fill="#FFFFFF" stroke="#000000" cx="441" cy="369" r="6"/>
<circle fill="#FFFFFF" stroke="#000000" cx="441" cy="405" r="6"/>
<rect x="369" y="189" fill="none" stroke="#BC1E47" stroke-width="4" width="72" height="36"/>
<circle fill="#FFFFFF" stroke="#000000" cx="369" cy="189" r="6"/>
<circle fill="#FFFFFF" stroke="#000000" cx="369" cy="225" r="6"/>
<circle fill="#FFFFFF" stroke="#000000" cx="405" cy="189" r="6"/>
<circle fill="#FFFFFF" stroke="#000000" cx="405" cy="225" r="6"/>
<circle fill="#FFFFFF" stroke="#000000" cx="441" cy="189" r="6"/>
<circle fill="#FFFFFF" stroke="#000000" cx="441" cy="225" r="6"/>
<rect x="369" y="225" fill="none" stroke="#BC1E47" stroke-width="4" width="72" height="36"/>
<circle fill="#FFFFFF" stroke="#000000" cx="369" cy="225" r="6"/>
<circle fill="#FFFFFF" stroke="#000000" cx="369" cy="261" r="6"/>
<circle fill="#FFFFFF" stroke="#000000" cx="405" cy="225" r="6"/>
<circle fill="#FFFFFF" stroke="#000000" cx="405" cy="261" r="6"/>
<circle fill="#FFFFFF" stroke="#000000" cx="441" cy="225" r="6"/>
<circle fill="#FFFFFF" stroke="#000000" cx="441" cy="261" r="6"/>
<rect x="369" y="261" fill="none" stroke="#BC1E47" stroke-width="4" width="72" height="36"/>
<circle fill="#FFFFFF" stroke="#000000" cx="369" cy="261" r="6"/>
<circle fill="#FFFFFF" stroke="#000000" cx="369" cy="297" r="6"/>
<circle fill="#FFFFFF" stroke="#000000" cx="405" cy="261" r="6"/>
<circle fill="#FFFFFF" stroke="#000000" cx="405" cy="297" r="6"/>
<circle fill="#FFFFFF" stroke="#000000" cx="441" cy="261" r="6"/>
<circle fill="#FFFFFF" stroke="#000000" cx="441" cy="297" r="6"/>
<rect x="369" y="297" fill="none" stroke="#BC1E47" stroke-width="4" width="72" height="36"/>
<circle fill="#FFFFFF" stroke="#000000" cx="369" cy="297" r="6"/>
<circle fill="#FFFFFF" stroke="#000000" cx="369" cy="333" r="6"/>
<circle fill="#FFFFFF" stroke="#000000" cx="405" cy="297" r="6"/>
<circle fill="#FFFFFF" stroke="#000000" cx="405" cy="333" r="6"/>
<circle fill="#FFFFFF" stroke="#000000" cx="441" cy="297" r="6"/>
<circle fill="#FFFFFF" stroke="#000000" cx="441" cy="333" r="6"/>
<rect x="261" y="189" fill="none" stroke="#BC1E47" stroke-width="4" width="72" height="36"/>
<circle fill="#FFFFFF" stroke="#000000" cx="261" cy="189" r="6"/>
<circle fill="#FFFFFF" stroke="#000000" cx="261" cy="225" r="6"/>
<circle fill="#FFFFFF" stroke="#000000" cx="297" cy="189" r="6"/>
<circle fill="#FFFFFF" stroke="#000000" cx="297" cy="225" r="6"/>
<circle fill="#FFFFFF" stroke="#000000" cx="333" cy="189" r="6"/>
<circle fill="#FFFFFF" stroke="#000000" cx="333" cy="225" r="6"/>
<rect x="423" y="387" fill="none" stroke="#0081CD" stroke-width="4" width="72" height="72"/>
<circle fill="#FFFFFF" stroke="#000000" cx="423" cy="387" r="6"/>
<circle fill="#FFFFFF" stroke="#000000" cx="423" cy="423" r="6"/>
<circle fill="#FFFFFF" stroke="#000000" cx="423" cy="459" r="6"/>
<circle fill="#FFFFFF" stroke="#000000" cx="459" cy="387" r="6"/>
<circle fill="#FFFFFF" stroke="#000000" cx="459" cy="459" r="6"/>
<circle fill="#FFFFFF" stroke="#000000" cx="495" cy="387" r="6"/>
<circle fill="#FFFFFF" stroke="#000000" cx="495" cy="423" r="6"/>
<circle fill="#FFFFFF" stroke="#000000" cx="495" cy="459" r="6"/>
<rect x="63" y="387" fill="none" stroke="#0081CD" stroke-width="4" width="72" height="72"/>
<circle fill="#FFFFFF" stroke="#000000" cx="63" cy="387" r="6"/>
<circle fill="#FFFFFF" stroke="#000000" cx="63" cy="423" r="6"/>
<circle fill="#FFFFFF" stroke="#000000" cx="63" cy="459" r="6"/>
<circle fill="#FFFFFF" stroke="#000000" cx="99" cy="387" r="6"/>
<circle fill="#FFFFFF" stroke="#000000" cx="99" cy="459" r="6"/>
<circle fill="#FFFFFF" stroke="#000000" cx="135" cy="387" r="6"/>
<circle fill="#FFFFFF" stroke="#000000" cx="135" cy="423" r="6"/>
<circle fill="#FFFFFF" stroke="#000000" cx="135" cy="459" r="6"/>
<rect x="63" y="63" fill="none" stroke="#0081CD" stroke-width="4" width="72" height="72"/>
<circle fill="#FFFFFF" stroke="#000000" cx="63" cy="63" r="6"/>
<circle fill="#FFFFFF" stroke="#000000" cx="63" cy="99" r="6"/>
<circle fill="#FFFFFF" stroke="#000000" cx="63" cy="135" r="6"/>
<circle fill="#FFFFFF" stroke="#000000" cx="99" cy="63" r="6"/>
<circle fill="#FFFFFF" stroke="#000000" cx="99" cy="135" r="6"/>
<circle fill="#FFFFFF" stroke="#000000" cx="135" cy="63" r="6"/>
<circle fill="#FFFFFF" stroke="#000000" cx="135" cy="99" r="6"/>
<circle fill="#FFFFFF" stroke="#000000" cx="135" cy="135" r="6"/>
<rect x="315" y="63" fill="none" stroke="#0081CD" stroke-width="4" width="72" height="72"/>
<circle fill="#FFFFFF" stroke="#000000" cx="315" cy="63" r="6"/>
<circle fill="#FFFFFF" stroke="#000000" cx="315" cy="99" r="6"/>
<circle fill="#FFFFFF" stroke="#000000" cx="315" cy="135" r="6"/>
<circle fill="#FFFFFF" stroke="#000000" cx="351" cy="63" r="6"/>
<circle fill="#FFFFFF" stroke="#000000" cx="351" cy="135" r="6"/>
<circle fill="#FFFFFF" stroke="#000000" cx="387" cy="63" r="6"/>
<circle fill="#FFFFFF" stroke="#000000" cx="387" cy="99" r="6"/>
<circle fill="#FFFFFF" stroke="#000000" cx="387" cy="135" r="6"/>
<rect x="315" y="279" fill="none" stroke="#0081CD" stroke-width="4" width="72" height="72"/>
<circle fill="#FFFFFF" stroke="#000000" cx="315" cy="279" r="6"/>
<circle fill="#FFFFFF" stroke="#000000" cx="315" cy="315" r="6"/>
<circle fill="#FFFFFF" stroke="#000000" cx="315" cy="351" r="6"/>
<circle fill="#FFFFFF" stroke="#000000" cx="351" cy="279" r="6"/>
<circle fill="#FFFFFF" stroke="#000000" cx="351" cy="351" r="6"/>
<circle fill="#FFFFFF" stroke="#000000" cx="387" cy="279" r="6"/>
<circle fill="#FFFFFF" stroke="#000000" cx="387" cy="315" r="6"/>
<circle fill="#FFFFFF" stroke="#000000" cx="387" cy="351" r="6"/>
<rect x="171" y="279" fill="none" stroke="#0081CD" stroke-width="4" width="72" height="72"/>
<circle fill="#FFFFFF" stroke="#000000" cx="171" cy="279" r="6"/>
<circle fill="#FFFFFF" stroke="#000000" cx="171" cy="315" r="6"/>
<circle fill="#FFFFFF" stroke="#000000" cx="171" cy="351" r="6"/>
<circle fill="#FFFFFF" stroke="#000000" cx="207" cy="279" r="6"/>
<circle fill="#FFFFFF" stroke="#000000" cx="207" cy="351" r="6"/>
<circle fill="#FFFFFF" stroke="#000000" cx="243" cy="279" r="6"/>
<circle fill="#FFFFFF" stroke="#000000" cx="243" cy="315" r="6"/>
<circle fill="#FFFFFF" stroke="#000000" cx="243" cy="351" r="6"/>
<rect x="171" y="171" fill="none" stroke="#0081CD" stroke-width="4" width="72" height="72"/>
<circle fill="#FFFFFF" stroke="#000000" cx="171" cy="171" r="6"/>
<circle fill="#FFFFFF" stroke="#000000" cx="171" cy="207" r="6"/>
<circle fill="#FFFFFF" stroke="#000000" cx="171" cy="243" r="6"/>
<circle fill="#FFFFFF" stroke="#000000" cx="207" cy="171" r="6"/>
<circle fill="#FFFFFF" stroke="#000000" cx="207" cy="243" r="6"/>
<circle fill="#FFFFFF" stroke="#000000" cx="243" cy="171" r="6"/>
<circle fill="#FFFFFF" stroke="#000000" cx="243" cy="207" r="6"/>
<circle fill="#FFFFFF" stroke="#000000" cx="243" cy="243" r="6"/>
<rect x="135" y="387" fill="none" stroke="#0081CD" stroke-width="4" width="36" height="72"/>
<circle fill="#FFFFFF" stroke="#000000" cx="135" cy="387" r="6"/>
<circle fill="#FFFFFF" stroke="#000000" cx="135" cy="423" r="6"/>
<circle fill="#FFFFFF" stroke="#000000" cx="135" cy="459" r="6"/>
<circle fill="#FFFFFF" stroke="#000000" cx="171" cy="387" r="6"/>
<circle fill="#FFFFFF" stroke="#000000" cx="171" cy="423" r="6"/>
<circle fill="#FFFFFF" stroke="#000000" cx="171" cy="459" r="6"/>
<rect x="171" y="387" fill="none" stroke="#0081CD" stroke-width="4" width="36" height="72"/>
<circle fill="#FFFFFF" stroke="#000000" cx="171" cy="387" r="6"/>
<circle fill="#FFFFFF" stroke="#000000" cx="171" cy="423" r="6"/>
<circle fill="#FFFFFF" stroke="#000000" cx="171" cy="459" r="6"/>
<circle fill="#FFFFFF" stroke="#000000" cx="207" cy="387" r="6"/>
<circle fill="#FFFFFF" stroke="#000000" cx="207" cy="423" r="6"/>
<circle fill="#FFFFFF" stroke="#000000" cx="207" cy="459" r="6"/>
<rect x="207" y="387" fill="none" stroke="#0081CD" stroke-width="4" width="36" height="72"/>
<circle fill="#FFFFFF" stroke="#000000" cx="207" cy="387" r="6"/>
<circle fill="#FFFFFF" stroke="#000000" cx="207" cy="423" r="6"/>
<circle fill="#FFFFFF" stroke="#000000" cx="207" cy="459" r="6"/>
<circle fill="#FFFFFF" stroke="#000000" cx="243" cy="387" r="6"/>
<circle fill="#FFFFFF" stroke="#000000" cx="243" cy="423" r="6"/>
<circle fill="#FFFFFF" stroke="#000000" cx="243" cy="459" r="6"/>
<rect x="243" y="387" fill="none" stroke="#0081CD" stroke-width="4" width="36" height="72"/>
<circle fill="#FFFFFF" stroke="#000000" cx="243" cy="387" r="6"/>
<circle fill="#FFFFFF" stroke="#000000" cx="243" cy="423" r="6"/>
<circle fill="#FFFFFF" stroke="#000000" cx="243" cy="459" r="6"/>
<circle fill="#FFFFFF" stroke="#000000" cx="279" cy="387" r="6"/>
<circle fill="#FFFFFF" stroke="#000000" cx="279" cy="423" r="6"/>
<circle fill="#FFFFFF" stroke="#000000" cx="279" cy="459" r="6"/>
<rect x="279" y="387" fill="none" stroke="#0081CD" stroke-width="4" width="36" height="72"/>
<circle fill="#FFFFFF" stroke="#000000" cx="279" cy="387" r="6"/>
<circle fill="#FFFFFF" stroke="#000000" cx="279" cy="423" r="6"/>
<circle fill="#FFFFFF" stroke="#000000" cx="279" cy="459" r="6"/>
<circle fill="#FFFFFF" stroke="#000000" cx="315" cy="387" r="6"/>
<circle fill="#FFFFFF" stroke="#000000" cx="315" cy="423" r="6"/>
<circle fill="#FFFFFF" stroke="#000000" cx="315" cy="459" r="6"/>
<rect x="315" y="387" fill="none" stroke="#0081CD" stroke-width="4" width="36" height="72"/>
<circle fill="#FFFFFF" stroke="#000000" cx="315" cy="387" r="6"/>
<circle fill="#FFFFFF" stroke="#000000" cx="315" cy="423" r="6"/>
<circle fill="#FFFFFF" stroke="#000000" cx="315" cy="459" r="6"/>
<circle fill="#FFFFFF" stroke="#000000" cx="351" cy="387" r="6"/>
<circle fill="#FFFFFF" stroke="#000000" cx="351" cy="423" r="6"/>
<circle fill="#FFFFFF" stroke="#000000" cx="351" cy="459" r="6"/>
<rect x="351" y="387" fill="none" stroke="#0081CD" stroke-width="4" width="36" height="72"/>
<circle fill="#FFFFFF" stroke="#000000" cx="351" cy="387" r="6"/>
<circle fill="#FFFFFF" stroke="#000000" cx="351" cy="423" r="6"/>
<circle fill="#FFFFFF" stroke="#000000" cx="351" cy="459" r="6"/>
<circle fill="#FFFFFF" stroke="#000000" cx="387" cy="387" r="6"/>
<circle fill="#FFFFFF" stroke="#000000" cx="387" cy="423" r="6"/>
<circle fill="#FFFFFF" stroke="#000000" cx="387" cy="459" r="6"/>
<rect x="387" y="387" fill="none" stroke="#0081CD" stroke-width="4" width="36" height="72"/>
<circle fill="#FFFFFF" stroke="#000000" cx="387" cy="387" r="6"/>
<circle fill="#FFFFFF" stroke="#000000" cx="387" cy="423" r="6"/>
<circle fill="#FFFFFF" stroke="#000000" cx="387" cy="459" r="6"/>
<circle fill="#FFFFFF" stroke="#000000" cx="423" cy="387" r="6"/>
<circle fill="#FFFFFF" stroke="#000000" cx="423" cy="423" r="6"/>
<circle fill="#FFFFFF" stroke="#000000" cx="423" cy="459" r="6"/>
<rect x="279" y="63" fill="none" stroke="#0081CD" stroke-width="4" width="36" height="72"/>
<circle fill="#FFFFFF" stroke="#000000" cx="279" cy="63" r="6"/>
<circle fill="#FFFFFF" stroke="#000000" cx="279" cy="99" r="6"/>
<circle fill="#FFFFFF" stroke="#000000" cx="279" cy="135" r="6"/>
<circle fill="#FFFFFF" stroke="#000000" cx="315" cy="63" r="6"/>
<circle fill="#FFFFFF" stroke="#000000" cx="315" cy="99" r="6"/>
<circle fill="#FFFFFF" stroke="#000000" cx="315" cy="135" r="6"/>
<rect x="243" y="63" fill="none" stroke="#0081CD" stroke-width="4" width="36" height="72"/>
<circle fill="#FFFFFF" stroke="#000000" cx="243" cy="63" r="6"/>
<circle fill="#FFFFFF" stroke="#000000" cx="243" cy="99" r="6"/>
<circle fill="#FFFFFF" stroke="#000000" cx="243" cy="135" r="6"/>
<circle fill="#FFFFFF" stroke="#000000" cx="279" cy="63" r="6"/>
<circle fill="#FFFFFF" stroke="#000000" cx="279" cy="99" r="6"/>
<circle fill="#FFFFFF" stroke="#000000" cx="279" cy="135" r="6"/>
<rect x="207" y="63" fill="none" stroke="#0081CD" stroke-width="4" width="36" height="72"/>
<circle fill="#FFFFFF" stroke="#000000" cx="207" cy="63" r="6"/>
<circle fill="#FFFFFF" stroke="#000000" cx="207" cy="99" r="6"/>
<circle fill="#FFFFFF" stroke="#000000" cx="207" cy="135" r="6"/>
<circle fill="#FFFFFF" stroke="#000000" cx="243" cy="63" r="6"/>
<circle fill="#FFFFFF" stroke="#000000" cx="243" cy="99" r="6"/>
<circle fill="#FFFFFF" stroke="#000000" cx="243" cy="135" r="6"/>
<rect x="171" y="63" fill="none" stroke="#0081CD" stroke-width="4" width="36" height="72"/>
<circle fill="#FFFFFF" stroke="#000000" cx="171" cy="63" r="6"/>
<circle fill="#FFFFFF" stroke="#000000" cx="171" cy="99" r="6"/>
<circle fill="#FFFFFF" stroke="#000000" cx="171" cy="135" r="6"/>
<circle fill="#FFFFFF" stroke="#000000" cx="207" cy="63" r="6"/>
<circle fill="#FFFFFF" stroke="#000000" cx="207" cy="99" r="6"/>
<circle fill="#FFFFFF" stroke="#000000" cx="207" cy="135" r="6"/>
<rect x="135" y="63" fill="none" stroke="#0081CD" stroke-width="4" width="36" height="72"/>
<circle fill="#FFFFFF" stroke="#000000" cx="135" cy="63" r="6"/>
<circle fill="#FFFFFF" stroke="#000000" cx="135" cy="99" r="6"/>
<circle fill="#FFFFFF" stroke="#000000" cx="135" cy="135" r="6"/>
<circle fill="#FFFFFF" stroke="#000000" cx="171" cy="63" r="6"/>
<circle fill="#FFFFFF" stroke="#000000" cx="171" cy="99" r="6"/>
<circle fill="#FFFFFF" stroke="#000000" cx="171" cy="135" r="6"/>
<rect x="243" y="171" fill="none" stroke="#0081CD" stroke-width="4" width="36" height="72"/>
<circle fill="#FFFFFF" stroke="#000000" cx="243" cy="171" r="6"/>
<circle fill="#FFFFFF" stroke="#000000" cx="243" cy="207" r="6"/>
<circle fill="#FFFFFF" stroke="#000000" cx="243" cy="243" r="6"/>
<circle fill="#FFFFFF" stroke="#000000" cx="279" cy="171" r="6"/>
<circle fill="#FFFFFF" stroke="#000000" cx="279" cy="207" r="6"/>
<circle fill="#FFFFFF" stroke="#000000" cx="279" cy="243" r="6"/>
<rect x="279" y="279" fill="none" stroke="#0081CD" stroke-width="4" width="36" height="72"/>
<circle fill="#FFFFFF" stroke="#000000" cx="279" cy="279" r="6"/>
<circle fill="#FFFFFF" stroke="#000000" cx="279" cy="315" r="6"/>
<circle fill="#FFFFFF" stroke="#000000" cx="279" cy="351" r="6"/>
<circle fill="#FFFFFF" stroke="#000000" cx="315" cy="279" r="6"/>
<circle fill="#FFFFFF" stroke="#000000" cx="315" cy="315" r="6"/>
<circle fill="#FFFFFF" stroke="#000000" cx="315" cy="351" r="6"/>
<rect x="243" y="279" fill="none" stroke="#0081CD" stroke-width="4" width="36" height="72"/>
<circle fill="#FFFFFF" stroke="#000000" cx="243" cy="279" r="6"/>
<circle fill="#FFFFFF" stroke="#000000" cx="243" cy="315" r="6"/>
<circle fill="#FFFFFF" stroke="#000000" cx="243" cy="351" r="6"/>
<circle fill="#FFFFFF" stroke="#000000" cx="279" cy="279" r="6"/>
<circle fill="#FFFFFF" stroke="#000000" cx="279" cy="315" r="6"/>
<circle fill="#FFFFFF" stroke="#000000" cx="279" cy="351" r="6"/>
<rect x="63" y="135" fill="none" stroke="#0081CD" stroke-width="4" width="72" height="36"/>
<circle fill="#FFFFFF" stroke="#000000" cx="63" cy="135" r="6"/>
<circle fill="#FFFFFF" stroke="#000000" cx="63" cy="171" r="6"/>
<circle fill="#FFFFFF" stroke="#000000" cx="99" cy="135" r="6"/>
<circle fill="#FFFFFF" stroke="#000000" cx="99" cy="171" r="6"/>
<circle fill="#FFFFFF" stroke="#000000" cx="135" cy="135" r="6"/>
<circle fill="#FFFFFF" stroke="#000000" cx="135" cy="171" r="6"/>
<rect x="63" y="171" fill="none" stroke="#0081CD" stroke-width="4" width="72" height="36"/>
<circle fill="#FFFFFF" stroke="#000000" cx="63" cy="171" r="6"/>
<circle fill="#FFFFFF" stroke="#000000" cx="63" cy="207" r="6"/>
<circle fill="#FFFFFF" stroke="#000000" cx="99" cy="171" r="6"/>
<circle fill="#FFFFFF" stroke="#000000" cx="99" cy="207" r="6"/>
<circle fill="#FFFFFF" stroke="#000000" cx="135" cy="171" r="6"/>
<circle fill="#FFFFFF" stroke="#000000" cx="135" cy="207" r="6"/>
<rect x="63" y="207" fill="none" stroke="#0081CD" stroke-width="4" width="72" height="36"/>
<circle fill="#FFFFFF" stroke="#000000" cx="63" cy="207" r="6"/>
<circle fill="#FFFFFF" stroke="#000000" cx="63" cy="243" r="6"/>
<circle fill="#FFFFFF" stroke="#000000" cx="99" cy="207" r="6"/>
<circle fill="#FFFFFF" stroke="#000000" cx="99" cy="243" r="6"/>
<circle fill="#FFFFFF" stroke="#000000" cx="135" cy="207" r="6"/>
<circle fill="#FFFFFF" stroke="#000000" cx="135" cy="243" r="6"/>
<rect x="63" y="243" fill="none" stroke="#0081CD" stroke-width="4" width="72" height="36"/>
<circle fill="#FFFFFF" stroke="#000000" cx="63" cy="243" r="6"/>
<circle fill="#FFFFFF" stroke="#000000" cx="63" cy="279" r="6"/>
<circle fill="#FFFFFF" stroke="#000000" cx="99" cy="243" r="6"/>
<circle fill="#FFFFFF" stroke="#000000" cx="99" cy="279" r="6"/>
<circle fill="#FFFFFF" stroke="#000000" cx="135" cy="243" r="6"/>
<circle fill="#FFFFFF" stroke="#000000" cx="135" cy="279" r="6"/>
<rect x="63" y="279" fill="none" stroke="#0081CD" stroke-width="4" width="72" height="36"/>
<circle fill="#FFFFFF" stroke="#000000" cx="63" cy="279" r="6"/>
<circle fill="#FFFFFF" stroke="#000000" cx="63" cy="315" r="6"/>
<circle fill="#FFFFFF" stroke="#000000" cx="99" cy="279" r="6"/>
<circle fill="#FFFFFF" stroke="#000000" cx="99" cy="315" r="6"/>
<circle fill="#FFFFFF" stroke="#000000" cx="135" cy="279" r="6"/>
<circle fill="#FFFFFF" stroke="#000000" cx="135" cy="315" r="6"/>
<rect x="63" y="315" fill="none" stroke="#0081CD" stroke-width="4" width="72" height="36"/>
<circle fill="#FFFFFF" stroke="#000000" cx="63" cy="315" r="6"/>
<circle fill="#FFFFFF" stroke="#000000" cx="63" cy="351" r="6"/>
<circle fill="#FFFFFF" stroke="#000000" cx="99" cy="315" r="6"/>
<circle fill="#FFFFFF" stroke="#000000" cx="99" cy="351" r="6"/>
<circle fill="#FFFFFF" stroke="#000000" cx="135" cy="315" r="6"/>
<circle fill="#FFFFFF" stroke="#000000" cx="135" cy="351" r="6"/>
<rect x="63" y="351" fill="none" stroke="#0081CD" stroke-width="4" width="72" height="36"/>
<circle fill="#FFFFFF" stroke="#000000" cx="63" cy="351" r="6"/>
<circle fill="#FFFFFF" stroke="#000000" cx="63" cy="387" r="6"/>
<circle fill="#FFFFFF" stroke="#000000" cx="99" cy="351" r="6"/>
<circle fill="#FFFFFF" stroke="#000000" cx="99" cy="387" r="6"/>
<circle fill="#FFFFFF" stroke="#000000" cx="135" cy="351" r="6"/>
<circle fill="#FFFFFF" stroke="#000000" cx="135" cy="387" r="6"/>
<rect x="315" y="207" fill="none" stroke="#0081CD" stroke-width="4" width="72" height="36"/>
<circle fill="#FFFFFF" stroke="#000000" cx="315" cy="207" r="6"/>
<circle fill="#FFFFFF" stroke="#000000" cx="315" cy="243" r="6"/>
<circle fill="#FFFFFF" stroke="#000000" cx="351" cy="207" r="6"/>
<circle fill="#FFFFFF" stroke="#000000" cx="351" cy="243" r="6"/>
<circle fill="#FFFFFF" stroke="#000000" cx="387" cy="207" r="6"/>
<circle fill="#FFFFFF" stroke="#000000" cx="387" cy="243" r="6"/>
<rect x="315" y="243" fill="none" stroke="#0081CD" stroke-width="4" width="72" height="36"/>
<circle fill="#FFFFFF" stroke="#000000" cx="315" cy="243" r="6"/>
<circle fill="#FFFFFF" stroke="#000000" cx="315" cy="279" r="6"/>
<circle fill="#FFFFFF" stroke="#000000" cx="351" cy="243" r="6"/>
<circle fill="#FFFFFF" stroke="#000000" cx="351" cy="279" r="6"/>
<circle fill="#FFFFFF" stroke="#000000" cx="387" cy="243" r="6"/>
<circle fill="#FFFFFF" stroke="#000000" cx="387" cy="279" r="6"/>
<rect x="315" y="135" fill="none" stroke="#0081CD" stroke-width="4" width="72" height="36"/>
<circle fill="#FFFFFF" stroke="#000000" cx="315" cy="135" r="6"/>
<circle fill="#FFFFFF" stroke="#000000" cx="315" cy="171" r="6"/>
<circle fill="#FFFFFF" stroke="#000000" cx="351" cy="135" r="6"/>
<circle fill="#FFFFFF" stroke="#000000" cx="351" cy="171" r="6"/>
<circle fill="#FFFFFF" stroke="#000000" cx="387" cy="135" r="6"/>
<circle fill="#FFFFFF" stroke="#000000" cx="387" cy="171" r="6"/>
<rect x="315" y="171" fill="none" stroke="#0081CD" stroke-width="4" width="72" height="36"/>
<circle fill="#FFFFFF" stroke="#000000" cx="315" cy="171" r="6"/>
<circle fill="#FFFFFF" stroke="#000000" cx="315" cy="207" r="6"/>
<circle fill="#FFFFFF" stroke="#000000" cx="351" cy="171" r="6"/>
<circle fill="#FFFFFF" stroke="#000000" cx="351" cy="207" r="6"/>
<circle fill="#FFFFFF" stroke="#000000" cx="387" cy="171" r="6"/>
<circle fill="#FFFFFF" stroke="#000000" cx="387" cy="207" r="6"/>
<rect x="171" y="243" fill="none" stroke="#0081CD" stroke-width="4" width="72" height="36"/>
<circle fill="#FFFFFF" stroke="#000000" cx="171" cy="243" r="6"/>
<circle fill="#FFFFFF" stroke="#000000" cx="171" cy="279" r="6"/>
<circle fill="#FFFFFF" stroke="#000000" cx="207" cy="243" r="6"/>
<circle fill="#FFFFFF" stroke="#000000" cx="207" cy="279" r="6"/>
<circle fill="#FFFFFF" stroke="#000000" cx="243" cy="243" r="6"/>
<circle fill="#FFFFFF" stroke="#000000" cx="243" cy="279" r="6"/>
</svg>
