<?xml version="1.0" encoding="utf-8"?>
<!-- Generator: Adobe Illustrator 15.1.0, SVG Export Plug-In . SVG Version: 6.00 Build 0)  -->
<!DOCTYPE svg PUBLIC "-//W3C//DTD SVG 1.1//EN" "http://www.w3.org/Graphics/SVG/1.1/DTD/svg11.dtd">
<svg version="1.1" id="Layer_1" xmlns="http://www.w3.org/2000/svg" xmlns:xlink="http://www.w3.org/1999/xlink" x="0px" y="0px"
	 width="432px" height="432px" viewBox="0 0 432 432" enable-background="new 0 0 432 432" xml:space="preserve">
<circle fill="#FFFFE1" stroke="#231F20" stroke-miterlimit="10" cx="72" cy="360" r="9"/>
<line fill="#FFFFE1" stroke="#231F20" stroke-miterlimit="10" x1="36" y1="432" x2="36" y2="0"/>
<line fill="#FFFFE1" stroke="#231F20" stroke-miterlimit="10" x1="0" y1="396" x2="432" y2="396"/>
<circle fill="#BC1E47" stroke="#231F20" stroke-miterlimit="10" cx="72" cy="324" r="9"/>
<circle fill="#FFFFE1" stroke="#231F20" stroke-miterlimit="10" cx="108" cy="324" r="9"/>
<circle fill="#BC1E47" stroke="#231F20" stroke-miterlimit="10" cx="72" cy="288" r="9"/>
<circle fill="#BC1E47" stroke="#231F20" stroke-miterlimit="10" cx="108" cy="288" r="9"/>
<circle fill="#FFFFE1" stroke="#231F20" stroke-miterlimit="10" cx="144" cy="288" r="9"/>
<circle fill="#FFFFE1" stroke="#231F20" stroke-miterlimit="10" cx="72" cy="252" r="9"/>
<circle fill="#FFFFE1" stroke="#231F20" stroke-miterlimit="10" cx="108" cy="252" r="9"/>
<circle fill="#FFFFE1" stroke="#231F20" stroke-miterlimit="10" cx="144" cy="252" r="9"/>
<circle fill="#FFFFE1" stroke="#231F20" stroke-miterlimit="10" cx="180" cy="252" r="9"/>
<circle fill="#BC1E47" stroke="#231F20" stroke-miterlimit="10" cx="72" cy="216" r="9"/>
<circle fill="#BC1E47" stroke="#231F20" stroke-miterlimit="10" cx="108" cy="216" r="9"/>
<circle fill="#BC1E47" stroke="#231F20" stroke-miterlimit="10" cx="144" cy="216" r="9"/>
<circle fill="#FFFFE1" stroke="#231F20" stroke-miterlimit="10" cx="180" cy="216" r="9"/>
<circle fill="#FFFFE1" stroke="#231F20" stroke-miterlimit="10" cx="216" cy="216" r="9"/>
<circle fill="#FFFFE1" stroke="#231F20" stroke-miterlimit="10" cx="72" cy="180" r="9"/>
<circle fill="#FFFFE1" stroke="#231F20" stroke-miterlimit="10" cx="108" cy="180" r="9"/>
<circle fill="#FFFFE1" stroke="#231F20" stroke-miterlimit="10" cx="144" cy="180" r="9"/>
<circle fill="#FFFFE1" stroke="#231F20" stroke-miterlimit="10" cx="180" cy="180" r="9"/>
<circle fill="#FFFFE1" stroke="#231F20" stroke-miterlimit="10" cx="216" cy="180" r="9"/>
<circle fill="#FFFFE1" stroke="#231F20" stroke-miterlimit="10" cx="252" cy="180" r="9"/>
<circle fill="#FFFFE1" stroke="#231F20" stroke-miterlimit="10" cx="72" cy="144" r="9"/>
<circle fill="#FFFFE1" stroke="#231F20" stroke-miterlimit="10" cx="108" cy="144" r="9"/>
<circle fill="#FFFFE1" stroke="#231F20" stroke-miterlimit="10" cx="144" cy="144" r="9"/>
<circle fill="#FFFFE1" stroke="#231F20" stroke-miterlimit="10" cx="180" cy="144" r="9"/>
<circle fill="#FFFFE1" stroke="#231F20" stroke-miterlimit="10" cx="216" cy="144" r="9"/>
<circle fill="#FFFFE1" stroke="#231F20" stroke-miterlimit="10" cx="252" cy="144" r="9"/>
<circle fill="#FFFFE1" stroke="#231F20" stroke-miterlimit="10" cx="288" cy="144" r="9"/>
<circle fill="#BC1E47" stroke="#231F20" stroke-miterlimit="10" cx="72" cy="108" r="9"/>
<circle fill="#BC1E47" stroke="#231F20" stroke-miterlimit="10" cx="108" cy="108" r="9"/>
<circle fill="#BC1E47" stroke="#231F20" stroke-miterlimit="10" cx="72" cy="72" r="9"/>
<circle fill="#BC1E47" stroke="#231F20" stroke-miterlimit="10" cx="108" cy="72" r="9"/>
<circle fill="#FFFFE1" stroke="#231F20" stroke-miterlimit="10" cx="72" cy="36" r="9"/>
<circle fill="#FFFFE1" stroke="#231F20" stroke-miterlimit="10" cx="108" cy="36" r="9"/>
<circle fill="#BC1E47" stroke="#231F20" stroke-miterlimit="10" cx="144" cy="108" r="9"/>
<circle fill="#BC1E47" stroke="#231F20" stroke-miterlimit="10" cx="180" cy="108" r="9"/>
<circle fill="#FFFFE1" stroke="#231F20" stroke-miterlimit="10" cx="216" cy="108" r="9"/>
<circle fill="#FFFFE1" stroke="#231F20" stroke-miterlimit="10" cx="252" cy="108" r="9"/>
<circle fill="#FFFFE1" stroke="#231F20" stroke-miterlimit="10" cx="288" cy="108" r="9"/>
<circle fill="#FFFFE1" stroke="#231F20" stroke-miterlimit="10" cx="324" cy="108" r="9"/>
<circle fill="#BC1E47" stroke="#231F20" stroke-miterlimit="10" cx="144" cy="72" r="9"/>
<circle fill="#BC1E47" stroke="#231F20" stroke-miterlimit="10" cx="180" cy="72" r="9"/>
<circle fill="#BC1E47" stroke="#231F20" stroke-miterlimit="10" cx="216" cy="72" r="9"/>
<circle fill="#FFFFE1" stroke="#231F20" stroke-miterlimit="10" cx="252" cy="72" r="9"/>
<circle fill="#FFFFE1" stroke="#231F20" stroke-miterlimit="10" cx="288" cy="72" r="9"/>
<circle fill="#FFFFE1" stroke="#231F20" stroke-miterlimit="10" cx="324" cy="72" r="9"/>
<circle fill="#FFFFE1" stroke="#231F20" stroke-miterlimit="10" cx="360" cy="72" r="9"/>
<circle fill="#FFFFE1" stroke="#231F20" stroke-miterlimit="10" cx="144" cy="36" r="9"/>
<circle fill="#FFFFE1" stroke="#231F20" stroke-miterlimit="10" cx="180" cy="36" r="9"/>
<circle fill="#FFFFE1" stroke="#231F20" stroke-miterlimit="10" cx="216" cy="36" r="9"/>
<circle fill="#FFFFE1" stroke="#231F20" stroke-miterlimit="10" cx="252" cy="36" r="9"/>
<circle fill="#FFFFE1" stroke="#231F20" stroke-miterlimit="10" cx="288" cy="36" r="9"/>
<circle fill="#FFFFE1" stroke="#231F20" stroke-miterlimit="10" cx="324" cy="36" r="9"/>
<circle fill="#FFFFE1" stroke="#231F20" stroke-miterlimit="10" cx="360" cy="36" r="9"/>
<circle fill="#FFFFE1" stroke="#231F20" stroke-miterlimit="10" cx="396" cy="36" r="9"/>
<g>
	<path d="M65.613,417.552c0.188-0.129,0.379-0.193,0.574-0.193c0.094,0,0.188,0.014,0.281,0.041s0.195,0.072,0.305,0.135l0.41,0.223
		c0.055,0.031,0.107,0.053,0.158,0.064s0.107,0.018,0.17,0.018c0.195,0,0.346-0.049,0.451-0.146s0.377-0.439,0.814-1.025
		c0.289-0.383,0.945-1.316,1.969-2.801c0-0.055-0.09-0.475-0.27-1.26s-0.344-1.451-0.492-1.998c-0.148-0.555-0.281-0.92-0.398-1.096
		s-0.336-0.264-0.656-0.264c-0.109,0-0.324,0.039-0.645,0.117c-0.203,0.047-0.422,0.102-0.656,0.164l-0.105-0.363l1.301-0.445
		c0.336-0.117,0.646-0.211,0.932-0.281s0.529-0.105,0.732-0.105c0.328,0,0.574,0.098,0.738,0.293c0.25,0.312,0.461,0.93,0.633,1.852
		l0.246,1.336c0.703-1.078,1.25-1.836,1.641-2.273c0.352-0.398,0.684-0.695,0.996-0.891s0.609-0.293,0.891-0.293
		c0.266,0,0.48,0.039,0.645,0.117c0.297,0.141,0.445,0.406,0.445,0.797c0,0.266-0.074,0.473-0.223,0.621s-0.34,0.223-0.574,0.223
		c-0.086,0-0.168-0.01-0.246-0.029s-0.16-0.049-0.246-0.088l-0.305-0.129c-0.086-0.039-0.168-0.072-0.246-0.1
		s-0.137-0.041-0.176-0.041c-0.352,0-0.84,0.455-1.465,1.365s-0.938,1.436-0.938,1.576c0,0.117,0.072,0.498,0.217,1.143
		s0.303,1.326,0.475,2.045c0.156,0.68,0.289,1.148,0.398,1.406c0.18,0.422,0.383,0.633,0.609,0.633c0.211,0,0.426-0.117,0.645-0.352
		s0.547-0.656,0.984-1.266l0.328,0.199c-0.336,0.609-0.684,1.129-1.043,1.559c-0.68,0.812-1.328,1.219-1.945,1.219
		c-0.391,0-0.699-0.188-0.926-0.562c-0.133-0.219-0.262-0.578-0.387-1.078l-0.727-2.895l-2.402,3.152
		c-0.469,0.547-0.83,0.914-1.084,1.102s-0.568,0.281-0.943,0.281c-0.5,0-0.84-0.156-1.02-0.469
		c-0.102-0.164-0.152-0.359-0.152-0.586C65.332,417.898,65.425,417.681,65.613,417.552z"/>
</g>
<g>
	<path d="M10.613,368.234c0.156-0.18,0.383-0.27,0.68-0.27c0.195,0,0.367,0.037,0.516,0.111s0.305,0.182,0.469,0.322l0.164,0.117
		c0.047,0.039,0.1,0.068,0.158,0.088s0.123,0.029,0.193,0.029c0.383,0,0.998-0.505,1.846-1.515c0.848-1.011,1.271-1.745,1.271-2.205
		c0-0.438-0.146-1.295-0.439-2.574s-0.576-2.417-0.85-3.416c-0.383-1.403-0.732-2.354-1.049-2.854s-0.783-0.749-1.4-0.749
		c-0.047,0-0.127,0.006-0.24,0.018s-0.307,0.033-0.58,0.064v-0.387l3.198-0.621l0.246-0.023c0.195-0.023,0.57,0.855,1.125,2.637
		c0.5,1.602,0.81,2.768,0.931,3.496l0.474,2.797c0.821-1.377,1.423-2.433,1.806-3.168c0.75-1.447,1.126-2.461,1.126-3.039
		c0-0.134-0.023-0.265-0.07-0.394s-0.156-0.24-0.328-0.334l-0.199-0.106c-0.125-0.062-0.271-0.18-0.439-0.352
		s-0.252-0.402-0.252-0.692c0-0.242,0.078-0.445,0.234-0.61c0.156-0.164,0.391-0.246,0.703-0.246c0.391,0,0.707,0.115,0.949,0.346
		s0.363,0.624,0.363,1.179c0,0.836-0.457,2.181-1.371,4.033c-0.703,1.412-1.488,2.78-2.355,4.106
		c-1.086,1.653-2.02,2.93-2.801,3.827c-1.242,1.412-2.273,2.118-3.094,2.118c-0.32,0-0.604-0.098-0.85-0.293
		s-0.369-0.461-0.369-0.797C10.378,368.628,10.457,368.414,10.613,368.234z"/>
</g>
<g>
	<g>
		<line fill="none" stroke="#000000" stroke-miterlimit="10" x1="81" y1="414" x2="110.965" y2="414"/>
		<g>
			<path d="M117,414c-2.84,1.054-6.363,2.852-8.547,4.756l1.72-4.756l-1.72-4.755C110.637,411.149,114.16,412.947,117,414z"/>
		</g>
	</g>
</g>
<g>
	<g>
		<line fill="none" stroke="#000000" stroke-miterlimit="10" x1="17.982" y1="351" x2="17.982" y2="321.035"/>
		<g>
			<path d="M17.982,315c1.054,2.84,2.852,6.363,4.756,8.547l-4.756-1.72l-4.755,1.72C15.132,321.363,16.93,317.839,17.982,315z"/>
		</g>
	</g>
</g>
</svg>
