<?xml version="1.0" encoding="utf-8"?>
<!-- Generator: Adobe Illustrator 15.1.0, SVG Export Plug-In . SVG Version: 6.00 Build 0)  -->
<!DOCTYPE svg PUBLIC "-//W3C//DTD SVG 1.1//EN" "http://www.w3.org/Graphics/SVG/1.1/DTD/svg11.dtd">
<svg version="1.1" id="Layer_1" xmlns="http://www.w3.org/2000/svg" xmlns:xlink="http://www.w3.org/1999/xlink" x="0px" y="0px"
	 width="414px" height="486px" viewBox="0 0 414 486" enable-background="new 0 0 414 486" xml:space="preserve">
<polyline fill="none" stroke="#0081CD" stroke-width="2" stroke-miterlimit="10" points="153,315 261,243 261,171 "/>
<polyline fill="none" stroke="#0081CD" stroke-width="2" stroke-miterlimit="10" points="45,387 153,315 261,387 153,459 "/>
<circle fill="#FFFFFF" cx="99" cy="351" r="3"/>
<circle fill="#FFFFFF" cx="207" cy="351" r="3"/>
<circle fill="#FFFFFF" cx="207" cy="279" r="3"/>
<line fill="none" stroke="#0081CD" stroke-width="2" stroke-miterlimit="10" x1="153" y1="315" x2="153" y2="243"/>
<polyline fill="none" stroke="#0081CD" stroke-width="2" stroke-miterlimit="10" points="261,315 369,243 261,171 "/>
<line fill="none" stroke="#0081CD" stroke-width="2" stroke-miterlimit="10" x1="261" y1="315" x2="261" y2="387"/>
<polyline fill="none" stroke="#0081CD" stroke-width="2" stroke-miterlimit="10" points="153,387 261,315 153,243 261,171 261,99 
	"/>
<polyline fill="none" stroke="#0081CD" stroke-width="2" stroke-miterlimit="10" points="153,171 153,243 45,315 153,387 153,459 
	45,387 45,315 45,243 153,171 261,99 369,27 "/>
<path fill="#FFFFF5" stroke="#000000" stroke-miterlimit="10" d="M189,465c0,6.627-5.373,12-12,12h-48c-6.627,0-12-5.373-12-12v-12
	c0-6.627,5.373-12,12-12h48c6.627,0,12,5.373,12,12V465z"/>
<g>
	<path d="M131.498,465.288c-4.128,0-4.608-4.921-4.608-7.225c0-0.312,0.072-1.393,0.168-2.137c0.264-1.968,1.128-4.152,3.12-4.752
		c0.432-0.12,0.912-0.192,1.392-0.192c1.608,0,2.664,0.673,3.504,2.089c0.936,1.56,1.032,3.672,1.032,4.776
		C136.106,460.104,135.938,465.288,131.498,465.288z M133.994,453.791c-0.504-0.937-1.44-1.488-2.496-1.488
		c-2.641,0-3.289,3.024-3.289,5.785c0,1.199,0.168,2.399,0.456,3.504c0.144,0.576,0.792,2.376,2.904,2.376
		c2.832,0,3.24-3.384,3.24-5.809v-0.216C134.786,456.479,134.642,455.016,133.994,453.791z"/>
	<path d="M145.897,465.288c-4.128,0-4.608-4.921-4.608-7.225c0-0.312,0.072-1.393,0.168-2.137c0.264-1.968,1.128-4.152,3.12-4.752
		c0.432-0.12,0.912-0.192,1.392-0.192c1.608,0,2.664,0.673,3.504,2.089c0.936,1.56,1.032,3.672,1.032,4.776
		C150.506,460.104,150.338,465.288,145.897,465.288z M148.394,453.791c-0.504-0.937-1.44-1.488-2.497-1.488
		c-2.64,0-3.288,3.024-3.288,5.785c0,1.199,0.168,2.399,0.456,3.504c0.144,0.576,0.792,2.376,2.904,2.376
		c2.832,0,3.24-3.384,3.24-5.809v-0.216C149.186,456.479,149.042,455.016,148.394,453.791z"/>
	<path d="M160.298,465.288c-4.128,0-4.608-4.921-4.608-7.225c0-0.312,0.072-1.393,0.168-2.137c0.264-1.968,1.128-4.152,3.12-4.752
		c0.432-0.12,0.912-0.192,1.392-0.192c1.608,0,2.664,0.673,3.504,2.089c0.936,1.56,1.032,3.672,1.032,4.776
		C164.906,460.104,164.738,465.288,160.298,465.288z M162.794,453.791c-0.504-0.937-1.44-1.488-2.496-1.488
		c-2.641,0-3.289,3.024-3.289,5.785c0,1.199,0.168,2.399,0.456,3.504c0.144,0.576,0.792,2.376,2.904,2.376
		c2.832,0,3.24-3.384,3.24-5.809v-0.216C163.586,456.479,163.442,455.016,162.794,453.791z"/>
	<path d="M174.697,465.288c-4.128,0-4.608-4.921-4.608-7.225c0-0.312,0.072-1.393,0.168-2.137c0.264-1.968,1.128-4.152,3.12-4.752
		c0.432-0.12,0.912-0.192,1.392-0.192c1.608,0,2.664,0.673,3.504,2.089c0.936,1.56,1.032,3.672,1.032,4.776
		C179.306,460.104,179.138,465.288,174.697,465.288z M177.194,453.791c-0.504-0.937-1.44-1.488-2.497-1.488
		c-2.64,0-3.288,3.024-3.288,5.785c0,1.199,0.168,2.399,0.456,3.504c0.144,0.576,0.792,2.376,2.904,2.376
		c2.832,0,3.24-3.384,3.24-5.809v-0.216C177.986,456.479,177.842,455.016,177.194,453.791z"/>
</g>
<path fill="#FFFFF5" stroke="#000000" stroke-miterlimit="10" d="M189,393c0,6.627-5.373,12-12,12h-48c-6.627,0-12-5.373-12-12v-12
	c0-6.627,5.373-12,12-12h48c6.627,0,12,5.373,12,12V393z"/>
<g>
	<path d="M131.498,393.288c-4.128,0-4.608-4.921-4.608-7.225c0-0.312,0.072-1.393,0.168-2.137c0.264-1.968,1.128-4.152,3.12-4.752
		c0.432-0.12,0.912-0.192,1.392-0.192c1.608,0,2.664,0.673,3.504,2.089c0.936,1.56,1.032,3.672,1.032,4.776
		C136.106,388.104,135.938,393.288,131.498,393.288z M133.994,381.791c-0.504-0.937-1.44-1.488-2.496-1.488
		c-2.641,0-3.289,3.024-3.289,5.785c0,1.199,0.168,2.399,0.456,3.504c0.144,0.576,0.792,2.376,2.904,2.376
		c2.832,0,3.24-3.384,3.24-5.809v-0.216C134.786,384.479,134.642,383.016,133.994,381.791z"/>
	<path d="M145.897,393.288c-4.128,0-4.608-4.921-4.608-7.225c0-0.312,0.072-1.393,0.168-2.137c0.264-1.968,1.128-4.152,3.12-4.752
		c0.432-0.12,0.912-0.192,1.392-0.192c1.608,0,2.664,0.673,3.504,2.089c0.936,1.56,1.032,3.672,1.032,4.776
		C150.505,388.104,150.337,393.288,145.897,393.288z M148.394,381.791c-0.504-0.937-1.44-1.488-2.497-1.488
		c-2.64,0-3.288,3.024-3.288,5.785c0,1.199,0.168,2.399,0.456,3.504c0.144,0.576,0.792,2.376,2.904,2.376
		c2.832,0,3.24-3.384,3.24-5.809v-0.216C149.186,384.479,149.042,383.016,148.394,381.791z"/>
	<path d="M155.521,393v-1.32h4.225v-11.017l-4.225,0.864v-1.32l5.544-1.225v12.697h4.104V393H155.521z"/>
	<path d="M174.697,393.288c-4.128,0-4.608-4.921-4.608-7.225c0-0.312,0.072-1.393,0.168-2.137c0.264-1.968,1.128-4.152,3.12-4.752
		c0.432-0.12,0.912-0.192,1.392-0.192c1.608,0,2.664,0.673,3.504,2.089c0.936,1.56,1.032,3.672,1.032,4.776
		C179.305,388.104,179.137,393.288,174.697,393.288z M177.193,381.791c-0.504-0.937-1.44-1.488-2.497-1.488
		c-2.64,0-3.288,3.024-3.288,5.785c0,1.199,0.168,2.399,0.456,3.504c0.144,0.576,0.792,2.376,2.904,2.376
		c2.832,0,3.24-3.384,3.24-5.809v-0.216C177.985,384.479,177.841,383.016,177.193,381.791z"/>
</g>
<path fill="#FFFFF5" stroke="#000000" stroke-miterlimit="10" d="M189,321c0,6.627-5.373,12-12,12h-48c-6.627,0-12-5.373-12-12v-12
	c0-6.627,5.373-12,12-12h48c6.627,0,12,5.373,12,12V321z"/>
<g>
	<path d="M131.498,321.288c-4.128,0-4.608-4.921-4.608-7.225c0-0.312,0.072-1.393,0.168-2.137c0.264-1.968,1.128-4.152,3.12-4.752
		c0.432-0.12,0.912-0.192,1.392-0.192c1.608,0,2.664,0.673,3.504,2.089c0.936,1.56,1.032,3.672,1.032,4.776
		C136.106,316.104,135.938,321.288,131.498,321.288z M133.994,309.791c-0.504-0.937-1.44-1.488-2.496-1.488
		c-2.641,0-3.289,3.024-3.289,5.785c0,1.199,0.168,2.399,0.456,3.504c0.144,0.576,0.792,2.376,2.904,2.376
		c2.832,0,3.24-3.384,3.24-5.809v-0.216C134.786,312.479,134.642,311.016,133.994,309.791z"/>
	<path d="M141.121,321v-1.32h4.225v-11.017l-4.225,0.864v-1.32l5.545-1.225v12.697h4.104V321H141.121z"/>
	<path d="M160.297,321.288c-4.128,0-4.608-4.921-4.608-7.225c0-0.312,0.072-1.393,0.168-2.137c0.264-1.968,1.128-4.152,3.12-4.752
		c0.432-0.12,0.912-0.192,1.392-0.192c1.608,0,2.664,0.673,3.504,2.089c0.936,1.56,1.032,3.672,1.032,4.776
		C164.906,316.104,164.737,321.288,160.297,321.288z M162.793,309.791c-0.504-0.937-1.44-1.488-2.496-1.488
		c-2.641,0-3.289,3.024-3.289,5.785c0,1.199,0.168,2.399,0.456,3.504c0.144,0.576,0.792,2.376,2.904,2.376
		c2.832,0,3.24-3.384,3.24-5.809v-0.216C163.585,312.479,163.441,311.016,162.793,309.791z"/>
	<path d="M169.92,321v-1.32h4.225v-11.017l-4.225,0.864v-1.32l5.545-1.225v12.697h4.104V321H169.92z"/>
</g>
<path fill="#FFFFF5" stroke="#000000" stroke-miterlimit="10" d="M81,393c0,6.627-5.373,12-12,12H21c-6.627,0-12-5.373-12-12v-12
	c0-6.627,5.373-12,12-12h48c6.627,0,12,5.373,12,12V393z"/>
<g>
	<path d="M23.498,393.288c-4.128,0-4.608-4.921-4.608-7.225c0-0.312,0.072-1.393,0.168-2.137c0.264-1.968,1.128-4.152,3.12-4.752
		c0.432-0.12,0.912-0.192,1.392-0.192c1.608,0,2.664,0.673,3.504,2.089c0.936,1.56,1.032,3.672,1.032,4.776
		C28.106,388.104,27.938,393.288,23.498,393.288z M25.994,381.791c-0.504-0.937-1.44-1.488-2.496-1.488
		c-2.641,0-3.289,3.024-3.289,5.785c0,1.199,0.168,2.399,0.456,3.504c0.144,0.576,0.792,2.376,2.904,2.376
		c2.832,0,3.24-3.384,3.24-5.809v-0.216C26.786,384.479,26.642,383.016,25.994,381.791z"/>
	<path d="M33.121,393v-1.32h4.225v-11.017l-4.225,0.864v-1.32l5.545-1.225v12.697h4.104V393H33.121z"/>
	<path d="M52.298,393.288c-4.128,0-4.608-4.921-4.608-7.225c0-0.312,0.072-1.393,0.168-2.137c0.264-1.968,1.128-4.152,3.12-4.752
		c0.432-0.12,0.912-0.192,1.392-0.192c1.608,0,2.664,0.673,3.504,2.089c0.936,1.56,1.032,3.672,1.032,4.776
		C56.906,388.104,56.738,393.288,52.298,393.288z M54.794,381.791c-0.504-0.937-1.44-1.488-2.496-1.488
		c-2.641,0-3.289,3.024-3.289,5.785c0,1.199,0.168,2.399,0.456,3.504c0.144,0.576,0.792,2.376,2.904,2.376
		c2.832,0,3.24-3.384,3.24-5.809v-0.216C55.586,384.479,55.442,383.016,54.794,381.791z"/>
	<path d="M66.697,393.288c-4.128,0-4.608-4.921-4.608-7.225c0-0.312,0.072-1.393,0.168-2.137c0.264-1.968,1.128-4.152,3.12-4.752
		c0.432-0.12,0.912-0.192,1.392-0.192c1.608,0,2.664,0.673,3.504,2.089c0.936,1.56,1.032,3.672,1.032,4.776
		C71.306,388.104,71.138,393.288,66.697,393.288z M69.194,381.791c-0.504-0.937-1.44-1.488-2.497-1.488
		c-2.64,0-3.288,3.024-3.288,5.785c0,1.199,0.168,2.399,0.456,3.504c0.144,0.576,0.792,2.376,2.904,2.376
		c2.832,0,3.24-3.384,3.24-5.809v-0.216C69.986,384.479,69.842,383.016,69.194,381.791z"/>
</g>
<path fill="#FFFFF5" stroke="#000000" stroke-miterlimit="10" d="M81,321c0,6.627-5.373,12-12,12H21c-6.627,0-12-5.373-12-12v-12
	c0-6.627,5.373-12,12-12h48c6.627,0,12,5.373,12,12V321z"/>
<g>
	<path d="M23.498,321.288c-4.128,0-4.608-4.921-4.608-7.225c0-0.312,0.072-1.393,0.168-2.137c0.264-1.968,1.128-4.152,3.12-4.752
		c0.432-0.12,0.912-0.192,1.392-0.192c1.608,0,2.664,0.673,3.504,2.089c0.936,1.56,1.032,3.672,1.032,4.776
		C28.106,316.104,27.938,321.288,23.498,321.288z M25.994,309.791c-0.504-0.937-1.44-1.488-2.496-1.488
		c-2.641,0-3.289,3.024-3.289,5.785c0,1.199,0.168,2.399,0.456,3.504c0.144,0.576,0.792,2.376,2.904,2.376
		c2.832,0,3.24-3.384,3.24-5.809v-0.216C26.786,312.479,26.642,311.016,25.994,309.791z"/>
	<path d="M33.121,321v-1.32h4.225v-11.017l-4.225,0.864v-1.32l5.545-1.225v12.697h4.104V321H33.121z"/>
	<path d="M47.521,321v-1.32h4.225v-11.017l-4.225,0.864v-1.32l5.544-1.225v12.697h4.104V321H47.521z"/>
	<path d="M66.697,321.288c-4.128,0-4.608-4.921-4.608-7.225c0-0.312,0.072-1.393,0.168-2.137c0.264-1.968,1.128-4.152,3.12-4.752
		c0.432-0.12,0.912-0.192,1.392-0.192c1.608,0,2.664,0.673,3.504,2.089c0.936,1.56,1.032,3.672,1.032,4.776
		C71.305,316.104,71.137,321.288,66.697,321.288z M69.193,309.791c-0.504-0.937-1.44-1.488-2.497-1.488
		c-2.64,0-3.288,3.024-3.288,5.785c0,1.199,0.168,2.399,0.456,3.504c0.144,0.576,0.792,2.376,2.904,2.376
		c2.832,0,3.24-3.384,3.24-5.809v-0.216C69.985,312.479,69.841,311.016,69.193,309.791z"/>
</g>
<path fill="#FFFFF5" stroke="#000000" stroke-miterlimit="10" d="M81,249c0,6.627-5.373,12-12,12H21c-6.627,0-12-5.373-12-12v-12
	c0-6.627,5.373-12,12-12h48c6.627,0,12,5.373,12,12V249z"/>
<g>
	<path d="M23.498,249.288c-4.128,0-4.608-4.921-4.608-7.225c0-0.312,0.072-1.393,0.168-2.137c0.264-1.968,1.128-4.152,3.12-4.752
		c0.432-0.12,0.912-0.192,1.392-0.192c1.608,0,2.664,0.673,3.504,2.089c0.936,1.56,1.032,3.672,1.032,4.776
		C28.106,244.104,27.938,249.288,23.498,249.288z M25.994,237.791c-0.504-0.937-1.44-1.488-2.496-1.488
		c-2.641,0-3.289,3.024-3.289,5.785c0,1.199,0.168,2.399,0.456,3.504c0.144,0.576,0.792,2.376,2.904,2.376
		c2.832,0,3.24-3.384,3.24-5.809v-0.216C26.786,240.479,26.642,239.016,25.994,237.791z"/>
	<path d="M33.121,249v-1.32h4.225v-11.017l-4.225,0.864v-1.32l5.545-1.225v12.697h4.104V249H33.121z"/>
	<path d="M46.801,249v-1.416l5.376-4.225c0.624-0.479,2.52-2.184,2.808-2.977c0.12-0.336,0.216-0.672,0.216-1.031
		c0-1.921-1.632-3.072-3.456-3.072c-1.368,0-3.096,0.695-3.096,2.304h-1.296v-1.704c1.2-1.248,2.712-1.896,4.489-1.896
		c1.464,0,3.288,0.673,4.128,2.232c0.312,0.576,0.504,1.296,0.504,1.992c0,1.896-1.128,3.072-3.672,5.137l-4.104,3.336h6.48v-1.704
		h1.296V249H46.801z"/>
	<path d="M66.697,249.288c-4.128,0-4.608-4.921-4.608-7.225c0-0.312,0.072-1.393,0.168-2.137c0.264-1.968,1.128-4.152,3.12-4.752
		c0.432-0.12,0.912-0.192,1.392-0.192c1.608,0,2.664,0.673,3.504,2.089c0.936,1.56,1.032,3.672,1.032,4.776
		C71.305,244.104,71.137,249.288,66.697,249.288z M69.193,237.791c-0.504-0.937-1.44-1.488-2.497-1.488
		c-2.64,0-3.288,3.024-3.288,5.785c0,1.199,0.168,2.399,0.456,3.504c0.144,0.576,0.792,2.376,2.904,2.376
		c2.832,0,3.24-3.384,3.24-5.809v-0.216C69.985,240.479,69.841,239.016,69.193,237.791z"/>
</g>
<path fill="#FFFFF5" stroke="#000000" stroke-miterlimit="10" d="M189,249c0,6.627-5.373,12-12,12h-48c-6.627,0-12-5.373-12-12v-12
	c0-6.627,5.373-12,12-12h48c6.627,0,12,5.373,12,12V249z"/>
<g>
	<path d="M131.498,249.288c-4.128,0-4.608-4.921-4.608-7.225c0-0.312,0.072-1.393,0.168-2.137c0.264-1.968,1.128-4.152,3.12-4.752
		c0.432-0.12,0.912-0.192,1.392-0.192c1.608,0,2.664,0.673,3.504,2.089c0.936,1.56,1.032,3.672,1.032,4.776
		C136.106,244.104,135.938,249.288,131.498,249.288z M133.994,237.791c-0.504-0.937-1.44-1.488-2.496-1.488
		c-2.641,0-3.289,3.024-3.289,5.785c0,1.199,0.168,2.399,0.456,3.504c0.144,0.576,0.792,2.376,2.904,2.376
		c2.832,0,3.24-3.384,3.24-5.809v-0.216C134.786,240.479,134.642,239.016,133.994,237.791z"/>
	<path d="M141.121,249v-1.32h4.225v-11.017l-4.225,0.864v-1.32l5.545-1.225v12.697h4.104V249H141.121z"/>
	<path d="M155.521,249v-1.32h4.225v-11.017l-4.225,0.864v-1.32l5.544-1.225v12.697h4.104V249H155.521z"/>
	<path d="M169.92,249v-1.32h4.225v-11.017l-4.225,0.864v-1.32l5.545-1.225v12.697h4.104V249H169.92z"/>
</g>
<path fill="#FFFFF5" stroke="#000000" stroke-miterlimit="10" d="M189,177c0,6.627-5.373,12-12,12h-48c-6.627,0-12-5.373-12-12v-12
	c0-6.627,5.373-12,12-12h48c6.627,0,12,5.373,12,12V177z"/>
<g>
	<path d="M131.498,177.288c-4.128,0-4.608-4.921-4.608-7.225c0-0.312,0.072-1.393,0.168-2.137c0.264-1.968,1.128-4.152,3.12-4.752
		c0.432-0.12,0.912-0.192,1.392-0.192c1.608,0,2.664,0.673,3.504,2.089c0.936,1.56,1.032,3.672,1.032,4.776
		C136.106,172.104,135.938,177.288,131.498,177.288z M133.994,165.791c-0.504-0.937-1.44-1.488-2.496-1.488
		c-2.641,0-3.289,3.024-3.289,5.785c0,1.199,0.168,2.399,0.456,3.504c0.144,0.576,0.792,2.376,2.904,2.376
		c2.832,0,3.24-3.384,3.24-5.809v-0.216C134.786,168.479,134.642,167.016,133.994,165.791z"/>
	<path d="M141.121,177v-1.32h4.225v-11.017l-4.225,0.864v-1.32l5.545-1.225v12.697h4.104V177H141.121z"/>
	<path d="M154.801,177v-1.416l5.376-4.225c0.624-0.479,2.52-2.184,2.808-2.977c0.12-0.336,0.216-0.672,0.216-1.031
		c0-1.921-1.632-3.072-3.456-3.072c-1.368,0-3.096,0.695-3.096,2.304h-1.296v-1.704c1.2-1.248,2.712-1.896,4.489-1.896
		c1.464,0,3.288,0.673,4.128,2.232c0.312,0.576,0.504,1.296,0.504,1.992c0,1.896-1.128,3.072-3.672,5.137l-4.104,3.336h6.48v-1.704
		h1.296V177H154.801z"/>
	<path d="M169.92,177v-1.32h4.225v-11.017l-4.225,0.864v-1.32l5.545-1.225v12.697h4.104V177H169.92z"/>
</g>
<path fill="#FFFFF5" stroke="#000000" stroke-miterlimit="10" d="M297,393c0,6.627-5.372,12-12,12h-48c-6.627,0-12-5.373-12-12v-12
	c0-6.627,5.373-12,12-12h48c6.628,0,12,5.373,12,12V393z"/>
<g>
	<path d="M239.498,393.288c-4.128,0-4.608-4.921-4.608-7.225c0-0.312,0.072-1.393,0.168-2.137c0.264-1.968,1.128-4.152,3.12-4.752
		c0.432-0.12,0.912-0.192,1.392-0.192c1.608,0,2.664,0.673,3.504,2.089c0.936,1.56,1.032,3.672,1.032,4.776
		C244.106,388.104,243.938,393.288,239.498,393.288z M241.994,381.791c-0.504-0.937-1.44-1.488-2.496-1.488
		c-2.641,0-3.289,3.024-3.289,5.785c0,1.199,0.168,2.399,0.456,3.504c0.144,0.576,0.792,2.376,2.904,2.376
		c2.832,0,3.24-3.384,3.24-5.809v-0.216C242.786,384.479,242.642,383.016,241.994,381.791z"/>
	<path d="M253.897,393.288c-4.128,0-4.608-4.921-4.608-7.225c0-0.312,0.072-1.393,0.168-2.137c0.264-1.968,1.128-4.152,3.12-4.752
		c0.432-0.12,0.912-0.192,1.392-0.192c1.608,0,2.664,0.673,3.504,2.089c0.936,1.56,1.032,3.672,1.032,4.776
		C258.506,388.104,258.338,393.288,253.897,393.288z M256.394,381.791c-0.504-0.937-1.44-1.488-2.497-1.488
		c-2.64,0-3.288,3.024-3.288,5.785c0,1.199,0.168,2.399,0.456,3.504c0.144,0.576,0.792,2.376,2.904,2.376
		c2.832,0,3.24-3.384,3.24-5.809v-0.216C257.186,384.479,257.042,383.016,256.394,381.791z"/>
	<path d="M268.298,393.288c-4.128,0-4.608-4.921-4.608-7.225c0-0.312,0.072-1.393,0.168-2.137c0.264-1.968,1.128-4.152,3.12-4.752
		c0.433-0.12,0.912-0.192,1.392-0.192c1.608,0,2.664,0.673,3.505,2.089c0.937,1.56,1.032,3.672,1.032,4.776
		C272.906,388.104,272.738,393.288,268.298,393.288z M270.794,381.791c-0.505-0.937-1.44-1.488-2.496-1.488
		c-2.641,0-3.288,3.024-3.288,5.785c0,1.199,0.168,2.399,0.455,3.504c0.145,0.576,0.793,2.376,2.904,2.376
		c2.832,0,3.24-3.384,3.24-5.809v-0.216C271.586,384.479,271.441,383.016,270.794,381.791z"/>
	<path d="M277.921,393v-1.32h4.225v-11.017l-4.225,0.864v-1.32l5.545-1.225v12.697h4.104V393H277.921z"/>
</g>
<path fill="#FFFFF5" stroke="#000000" stroke-miterlimit="10" d="M297,321c0,6.627-5.373,12-12,12h-48c-6.627,0-12-5.373-12-12v-12
	c0-6.627,5.373-12,12-12h48c6.627,0,12,5.373,12,12V321z"/>
<g>
	<path d="M239.498,321.288c-4.128,0-4.608-4.921-4.608-7.225c0-0.312,0.072-1.393,0.168-2.137c0.264-1.968,1.128-4.152,3.12-4.752
		c0.432-0.12,0.912-0.192,1.392-0.192c1.608,0,2.664,0.673,3.504,2.089c0.936,1.56,1.032,3.672,1.032,4.776
		C244.106,316.104,243.938,321.288,239.498,321.288z M241.994,309.791c-0.504-0.937-1.44-1.488-2.496-1.488
		c-2.641,0-3.289,3.024-3.289,5.785c0,1.199,0.168,2.399,0.456,3.504c0.144,0.576,0.792,2.376,2.904,2.376
		c2.832,0,3.24-3.384,3.24-5.809v-0.216C242.786,312.479,242.642,311.016,241.994,309.791z"/>
	<path d="M253.897,321.288c-4.128,0-4.608-4.921-4.608-7.225c0-0.312,0.072-1.393,0.168-2.137c0.264-1.968,1.128-4.152,3.12-4.752
		c0.432-0.12,0.912-0.192,1.392-0.192c1.608,0,2.664,0.673,3.504,2.089c0.936,1.56,1.032,3.672,1.032,4.776
		C258.505,316.104,258.337,321.288,253.897,321.288z M256.394,309.791c-0.504-0.937-1.44-1.488-2.497-1.488
		c-2.64,0-3.288,3.024-3.288,5.785c0,1.199,0.168,2.399,0.456,3.504c0.144,0.576,0.792,2.376,2.904,2.376
		c2.832,0,3.24-3.384,3.24-5.809v-0.216C257.186,312.479,257.042,311.016,256.394,309.791z"/>
	<path d="M263.521,321v-1.32h4.225v-11.017l-4.225,0.864v-1.32l5.544-1.225v12.697h4.105V321H263.521z"/>
	<path d="M277.92,321v-1.32h4.225v-11.017l-4.225,0.864v-1.32l5.545-1.225v12.697h4.104V321H277.92z"/>
</g>
<path fill="#FFFFF5" stroke="#000000" stroke-miterlimit="10" d="M297,249c0,6.627-5.373,12-12,12h-48c-6.627,0-12-5.373-12-12v-12
	c0-6.627,5.373-12,12-12h48c6.627,0,12,5.373,12,12V249z"/>
<g>
	<path d="M239.498,249.288c-4.128,0-4.608-4.921-4.608-7.225c0-0.312,0.072-1.393,0.168-2.137c0.264-1.968,1.128-4.152,3.12-4.752
		c0.432-0.12,0.912-0.192,1.392-0.192c1.608,0,2.664,0.673,3.504,2.089c0.936,1.56,1.032,3.672,1.032,4.776
		C244.106,244.104,243.938,249.288,239.498,249.288z M241.994,237.791c-0.504-0.937-1.44-1.488-2.496-1.488
		c-2.641,0-3.289,3.024-3.289,5.785c0,1.199,0.168,2.399,0.456,3.504c0.144,0.576,0.792,2.376,2.904,2.376
		c2.832,0,3.24-3.384,3.24-5.809v-0.216C242.786,240.479,242.642,239.016,241.994,237.791z"/>
	<path d="M249.121,249v-1.32h4.225v-11.017l-4.225,0.864v-1.32l5.545-1.225v12.697h4.104V249H249.121z"/>
	<path d="M268.297,249.288c-4.128,0-4.607-4.921-4.607-7.225c0-0.312,0.071-1.393,0.168-2.137c0.264-1.968,1.127-4.152,3.119-4.752
		c0.433-0.12,0.912-0.192,1.393-0.192c1.607,0,2.664,0.673,3.504,2.089c0.937,1.56,1.033,3.672,1.033,4.776
		C272.906,244.104,272.737,249.288,268.297,249.288z M270.793,237.791c-0.504-0.937-1.439-1.488-2.496-1.488
		c-2.641,0-3.288,3.024-3.288,5.785c0,1.199,0.168,2.399,0.456,3.504c0.145,0.576,0.792,2.376,2.904,2.376
		c2.832,0,3.24-3.384,3.24-5.809v-0.216C271.586,240.479,271.441,239.016,270.793,237.791z"/>
	<path d="M277.201,249v-1.416l5.376-4.225c0.624-0.479,2.521-2.184,2.808-2.977c0.121-0.336,0.217-0.672,0.217-1.031
		c0-1.921-1.633-3.072-3.457-3.072c-1.367,0-3.096,0.695-3.096,2.304h-1.297v-1.704c1.201-1.248,2.713-1.896,4.489-1.896
		c1.464,0,3.288,0.673,4.128,2.232c0.312,0.576,0.504,1.296,0.504,1.992c0,1.896-1.128,3.072-3.672,5.137l-4.104,3.336h6.48v-1.704
		h1.296V249H277.201z"/>
</g>
<path fill="#FFFFF5" stroke="#000000" stroke-miterlimit="10" d="M297,177c0,6.627-5.373,12-12,12h-48c-6.627,0-12-5.373-12-12v-12
	c0-6.627,5.373-12,12-12h48c6.627,0,12,5.373,12,12V177z"/>
<g>
	<path d="M239.498,177.288c-4.128,0-4.608-4.921-4.608-7.225c0-0.312,0.072-1.393,0.168-2.137c0.264-1.968,1.128-4.152,3.12-4.752
		c0.432-0.12,0.912-0.192,1.392-0.192c1.608,0,2.664,0.673,3.504,2.089c0.936,1.56,1.032,3.672,1.032,4.776
		C244.106,172.104,243.938,177.288,239.498,177.288z M241.994,165.791c-0.504-0.937-1.44-1.488-2.496-1.488
		c-2.641,0-3.289,3.024-3.289,5.785c0,1.199,0.168,2.399,0.456,3.504c0.144,0.576,0.792,2.376,2.904,2.376
		c2.832,0,3.24-3.384,3.24-5.809v-0.216C242.786,168.479,242.642,167.016,241.994,165.791z"/>
	<path d="M249.121,177v-1.32h4.225v-11.017l-4.225,0.864v-1.32l5.545-1.225v12.697h4.104V177H249.121z"/>
	<path d="M263.521,177v-1.32h4.225v-11.017l-4.225,0.864v-1.32l5.544-1.225v12.697h4.105V177H263.521z"/>
	<path d="M277.201,177v-1.416l5.376-4.225c0.624-0.479,2.521-2.184,2.808-2.977c0.121-0.336,0.217-0.672,0.217-1.031
		c0-1.921-1.633-3.072-3.457-3.072c-1.367,0-3.096,0.695-3.096,2.304h-1.297v-1.704c1.201-1.248,2.713-1.896,4.489-1.896
		c1.464,0,3.288,0.673,4.128,2.232c0.312,0.576,0.504,1.296,0.504,1.992c0,1.896-1.128,3.072-3.672,5.137l-4.104,3.336h6.48v-1.704
		h1.296V177H277.201z"/>
</g>
<path fill="#FFFFF5" stroke="#000000" stroke-miterlimit="10" d="M297,105c0,6.627-5.373,12-12,12h-48c-6.627,0-12-5.373-12-12V93
	c0-6.627,5.373-12,12-12h48c6.627,0,12,5.373,12,12V105z"/>
<g>
	<path d="M239.498,105.288c-4.128,0-4.608-4.921-4.608-7.225c0-0.312,0.072-1.393,0.168-2.137c0.264-1.968,1.128-4.152,3.12-4.752
		c0.432-0.12,0.912-0.192,1.392-0.192c1.608,0,2.664,0.673,3.504,2.089c0.936,1.56,1.032,3.672,1.032,4.776
		C244.106,100.104,243.938,105.288,239.498,105.288z M241.994,93.791c-0.504-0.937-1.44-1.488-2.496-1.488
		c-2.641,0-3.289,3.024-3.289,5.785c0,1.199,0.168,2.399,0.456,3.504c0.144,0.576,0.792,2.376,2.904,2.376
		c2.832,0,3.24-3.384,3.24-5.809v-0.216C242.786,96.479,242.642,95.016,241.994,93.791z"/>
	<path d="M249.121,105v-1.32h4.225V92.663l-4.225,0.864v-1.32l5.545-1.225v12.697h4.104V105H249.121z"/>
	<path d="M262.801,105v-1.416l5.377-4.225c0.623-0.479,2.52-2.184,2.808-2.977c0.12-0.336,0.216-0.672,0.216-1.031
		c0-1.921-1.632-3.072-3.456-3.072c-1.368,0-3.097,0.695-3.097,2.304h-1.296v-1.704c1.2-1.248,2.712-1.896,4.489-1.896
		c1.463,0,3.287,0.673,4.127,2.232c0.312,0.576,0.505,1.296,0.505,1.992c0,1.896-1.128,3.072-3.673,5.137l-4.104,3.336h6.48v-1.704
		h1.296V105H262.801z"/>
	<path d="M277.201,105v-1.416l5.376-4.225c0.624-0.479,2.521-2.184,2.808-2.977c0.121-0.336,0.217-0.672,0.217-1.031
		c0-1.921-1.633-3.072-3.457-3.072c-1.367,0-3.096,0.695-3.096,2.304h-1.297v-1.704c1.201-1.248,2.713-1.896,4.489-1.896
		c1.464,0,3.288,0.673,4.128,2.232c0.312,0.576,0.504,1.296,0.504,1.992c0,1.896-1.128,3.072-3.672,5.137l-4.104,3.336h6.48v-1.704
		h1.296V105H277.201z"/>
</g>
<path fill="#FFFFF5" stroke="#000000" stroke-miterlimit="10" d="M405,249c0,6.627-5.373,12-12,12h-48c-6.627,0-12-5.373-12-12v-12
	c0-6.627,5.373-12,12-12h48c6.627,0,12,5.373,12,12V249z"/>
<g>
	<path d="M347.498,249.288c-4.129,0-4.609-4.921-4.609-7.225c0-0.312,0.072-1.393,0.168-2.137c0.264-1.968,1.129-4.152,3.121-4.752
		c0.432-0.12,0.912-0.192,1.392-0.192c1.608,0,2.664,0.673,3.505,2.089c0.936,1.56,1.031,3.672,1.031,4.776
		C352.105,244.104,351.938,249.288,347.498,249.288z M349.994,237.791c-0.505-0.937-1.441-1.488-2.496-1.488
		c-2.641,0-3.289,3.024-3.289,5.785c0,1.199,0.168,2.399,0.456,3.504c0.144,0.576,0.792,2.376,2.904,2.376
		c2.832,0,3.24-3.384,3.24-5.809v-0.216C350.785,240.479,350.642,239.016,349.994,237.791z"/>
	<path d="M361.896,249.288c-4.127,0-4.607-4.921-4.607-7.225c0-0.312,0.072-1.393,0.168-2.137c0.264-1.968,1.128-4.152,3.12-4.752
		c0.433-0.12,0.912-0.192,1.392-0.192c1.608,0,2.664,0.673,3.505,2.089c0.937,1.56,1.032,3.672,1.032,4.776
		C366.506,244.104,366.338,249.288,361.896,249.288z M364.394,237.791c-0.505-0.937-1.44-1.488-2.497-1.488
		c-2.64,0-3.287,3.024-3.287,5.785c0,1.199,0.168,2.399,0.455,3.504c0.145,0.576,0.793,2.376,2.904,2.376
		c2.832,0,3.24-3.384,3.24-5.809v-0.216C365.186,240.479,365.041,239.016,364.394,237.791z"/>
	<path d="M371.521,249v-1.32h4.225v-11.017l-4.225,0.864v-1.32l5.544-1.225v12.697h4.105V249H371.521z"/>
	<path d="M385.201,249v-1.416l5.376-4.225c0.624-0.479,2.521-2.184,2.808-2.977c0.121-0.336,0.217-0.672,0.217-1.031
		c0-1.921-1.633-3.072-3.457-3.072c-1.367,0-3.096,0.695-3.096,2.304h-1.297v-1.704c1.201-1.248,2.713-1.896,4.489-1.896
		c1.464,0,3.288,0.673,4.128,2.232c0.312,0.576,0.504,1.296,0.504,1.992c0,1.896-1.128,3.072-3.672,5.137l-4.104,3.336h6.48v-1.704
		h1.296V249H385.201z"/>
</g>
<path fill="#FFFFF5" stroke="#000000" stroke-miterlimit="10" d="M405,33c0,6.627-5.373,12-12,12h-48c-6.627,0-12-5.373-12-12V21
	c0-6.627,5.373-12,12-12h48c6.627,0,12,5.373,12,12V33z"/>
<g>
	<path d="M347.498,33.288c-4.129,0-4.609-4.921-4.609-7.225c0-0.312,0.072-1.393,0.168-2.137c0.264-1.968,1.129-4.152,3.121-4.752
		c0.432-0.12,0.912-0.192,1.392-0.192c1.608,0,2.664,0.673,3.505,2.089c0.936,1.56,1.031,3.672,1.031,4.776
		C352.105,28.104,351.938,33.288,347.498,33.288z M349.994,21.791c-0.505-0.937-1.441-1.488-2.496-1.488
		c-2.641,0-3.289,3.024-3.289,5.785c0,1.199,0.168,2.399,0.456,3.504c0.144,0.576,0.792,2.376,2.904,2.376
		c2.832,0,3.24-3.384,3.24-5.809v-0.216C350.785,24.479,350.642,23.016,349.994,21.791z"/>
	<path d="M357.121,33v-1.32h4.225V20.663l-4.225,0.864v-1.32l5.545-1.225V31.68h4.104V33H357.121z"/>
	<path d="M370.801,33v-1.416l5.377-4.225c0.623-0.479,2.52-2.184,2.808-2.977c0.12-0.336,0.216-0.672,0.216-1.031
		c0-1.921-1.632-3.072-3.456-3.072c-1.368,0-3.097,0.695-3.097,2.304h-1.296v-1.704c1.2-1.248,2.712-1.896,4.489-1.896
		c1.463,0,3.287,0.673,4.127,2.232c0.312,0.576,0.505,1.296,0.505,1.992c0,1.896-1.128,3.072-3.673,5.137l-4.104,3.336h6.48v-1.704
		h1.296V33H370.801z"/>
	<path d="M389.904,33.288c-0.527,0-2.231-0.145-3.695-0.72l-0.864-0.336l0.336-1.129c1.151,0.433,2.593,0.864,3.984,0.864
		c2.231,0,3.792-1.128,3.792-2.712c0-1.32-1.152-2.04-1.992-2.257c-0.672-0.168-1.367-0.216-2.064-0.216h-0.383v-1.32h0.071
		c2.568,0,3.528-1.487,3.528-2.688c0-1.225-0.936-2.496-3-2.496c-1.561,0-3,0.815-3.529,1.128l-0.432-1.057
		c1.272-0.815,2.688-1.368,4.297-1.368c1.607,0,2.904,0.864,3.48,1.872c0.264,0.48,0.479,1.08,0.479,1.873
		c0,1.872-0.937,2.567-1.872,3.24c0.816,0.191,2.688,0.912,2.688,3.336C394.729,32.016,392.161,33.288,389.904,33.288z"/>
</g>
</svg>
