<?xml version="1.0" encoding="utf-8"?>
<!-- Generator: Adobe Illustrator 15.1.0, SVG Export Plug-In . SVG Version: 6.00 Build 0)  -->
<!DOCTYPE svg PUBLIC "-//W3C//DTD SVG 1.1//EN" "http://www.w3.org/Graphics/SVG/1.1/DTD/svg11.dtd">
<svg version="1.1" id="Layer_1" xmlns="http://www.w3.org/2000/svg" xmlns:xlink="http://www.w3.org/1999/xlink" x="0px" y="0px"
	 width="499px" height="264px" viewBox="-96.5 -50.5 499 264" enable-background="new -96.5 -50.5 499 264" xml:space="preserve">
<polygon opacity="0.2" fill="#0081CD" enable-background="new    " points="74.568,41.784 388.296,198.648 388.296,-36.647 "/>
<polygon opacity="0.2" fill="#BC1E47" enable-background="new    " points="-82.296,-36.647 -82.296,198.648 153,81 "/>
<polygon opacity="0.2" fill="#FEC200" enable-background="new    " points="153,-36.647 153,198.648 231.433,41.784 "/>
<polygon fill="none" stroke="#231F20" stroke-width="4.902" stroke-linejoin="bevel" stroke-miterlimit="10" points="153,-36.647 
	153,81 388.296,198.648 "/>
<polygon fill="none" stroke="#231F20" stroke-width="4.902" stroke-linejoin="bevel" stroke-miterlimit="10" points="
	-82.296,-36.647 153,198.648 388.296,-36.647 "/>
<polygon fill="none" stroke="#231F20" stroke-width="4.902" stroke-linejoin="bevel" stroke-miterlimit="10" points="
	-82.296,198.648 74.568,41.784 231.433,41.784 "/>
<circle fill="#BC1E47" stroke="#231F20" stroke-width="1.634" stroke-miterlimit="10" cx="-82.296" cy="-36.647" r="9.804"/>
<circle fill="#BC1E47" stroke="#231F20" stroke-width="1.634" stroke-miterlimit="10" cx="-82.296" cy="198.648" r="9.804"/>
<circle fill="#BC1E47" stroke="#231F20" stroke-width="1.634" stroke-miterlimit="10" cx="153" cy="81" r="9.804"/>
<circle fill="#FEC200" stroke="#231F20" stroke-width="1.634" stroke-miterlimit="10" cx="231.433" cy="41.785" r="9.804"/>
<circle fill="#FEC200" stroke="#231F20" stroke-width="1.634" stroke-miterlimit="10" cx="153" cy="198.648" r="9.804"/>
<circle fill="#FEC200" stroke="#231F20" stroke-width="1.634" stroke-miterlimit="10" cx="153" cy="-36.647" r="9.804"/>
<circle fill="#0081CD" stroke="#000000" stroke-width="1.634" stroke-miterlimit="10" cx="74.568" cy="41.785" r="9.804"/>
<circle fill="#0081CD" stroke="#000000" stroke-width="1.634" stroke-miterlimit="10" cx="388.296" cy="-36.647" r="9.804"/>
<circle fill="#0081CD" stroke="#000000" stroke-width="1.634" stroke-miterlimit="10" cx="388.296" cy="198.648" r="9.804"/>
</svg>
