<?xml version="1.0" encoding="utf-8"?>
<!-- Generator: Adobe Illustrator 15.1.0, SVG Export Plug-In . SVG Version: 6.00 Build 0)  -->
<!DOCTYPE svg PUBLIC "-//W3C//DTD SVG 1.1//EN" "http://www.w3.org/Graphics/SVG/1.1/DTD/svg11.dtd">
<svg version="1.1" id="Layer_1" xmlns="http://www.w3.org/2000/svg" xmlns:xlink="http://www.w3.org/1999/xlink" x="0px" y="0px"
	 width="720px" height="450px" viewBox="0 0 720 450" enable-background="new 0 0 720 450" xml:space="preserve">
<line fill="none" stroke="#BC1E47" x1="612" y1="288" x2="603" y2="153"/>
<polyline fill="none" stroke="#BC1E47" points="666,198 603,153 558,108 585,333 "/>
<polyline fill="none" stroke="#009246" stroke-width="5" points="648,108 693,153 585,333 "/>
<polyline fill="none" stroke="#009246" stroke-width="5" points="558,108 603,63 648,108 603,153 "/>
<line fill="none" stroke="#BC1E47" x1="414" y1="243" x2="504" y2="153"/>
<line fill="none" stroke="#BC1E47" x1="369" y1="198" x2="459" y2="108"/>
<line fill="none" stroke="#009246" stroke-width="5" x1="369" y1="108" x2="459" y2="198"/>
<polyline fill="none" stroke="#009246" stroke-width="5" points="504,153 414,63 324,153 414,243 "/>
<path fill="none" stroke="#BC1E47" d="M243,198c72,0,72,225,0,225"/>
<path fill="none" stroke="#BC1E47" d="M243,243c36,0,36,135,0,135"/>
<path fill="none" stroke="#BC1E47" d="M243,63c-72,0-72,225,0,225"/>
<path fill="none" stroke="#BC1E47" d="M243,108c-36,0-36,135,0,135"/>
<line fill="none" stroke="#009246" stroke-width="5" x1="243" y1="63" x2="243" y2="423"/>
<line fill="none" stroke="#0081CD" stroke-width="3" x1="27" y1="117" x2="135" y2="117"/>
<line fill="none" stroke="#0081CD" stroke-width="3" x1="81" y1="63" x2="81" y2="171"/>
<rect x="27" y="63" fill="none" stroke="#0081CD" stroke-width="3" width="108" height="108"/>
<circle fill="#FFFFE1" stroke="#000000" cx="135" cy="171" r="18"/>
<circle fill="#FFFFE1" stroke="#000000" cx="81" cy="171" r="18"/>
<circle fill="#FFFFE1" stroke="#000000" cx="27" cy="171" r="18"/>
<circle fill="#FFFFE1" stroke="#000000" cx="135" cy="117" r="18"/>
<circle fill="#FFFFE1" stroke="#000000" cx="81" cy="117" r="18"/>
<circle fill="#FFFFE1" stroke="#000000" cx="27" cy="117" r="18"/>
<circle fill="#FFFFE1" stroke="#000000" cx="135" cy="63" r="18"/>
<circle fill="#FFFFE1" stroke="#000000" cx="81" cy="63" r="18"/>
<circle fill="#FFFFE1" stroke="#000000" cx="27" cy="63" r="18"/>
<g>
	<path d="M23.186,66.508h0.387c0.172,0.945,0.375,1.637,0.609,2.074c0.43,0.805,1.07,1.207,1.922,1.207
		c0.477,0,0.877-0.168,1.201-0.504s0.486-0.781,0.486-1.336c0-0.344-0.041-0.625-0.123-0.844s-0.186-0.418-0.311-0.598l-0.973-1.441
		c-0.586-0.875-0.953-1.461-1.102-1.758c-0.227-0.445-0.34-0.891-0.34-1.336c0-0.68,0.244-1.279,0.732-1.799s1.182-0.779,2.08-0.779
		c0.383,0,0.82,0.072,1.312,0.217s0.828,0.217,1.008,0.217c0.195,0,0.34-0.039,0.434-0.117s0.18-0.184,0.258-0.316h0.34l-0.48,3.328
		H30.24c-0.102-0.758-0.254-1.328-0.457-1.711c-0.375-0.711-0.969-1.066-1.781-1.066c-0.344,0-0.65,0.107-0.92,0.322
		s-0.404,0.529-0.404,0.943c0,0.32,0.061,0.602,0.182,0.844s0.396,0.672,0.826,1.289l0.832,1.195
		c0.43,0.617,0.734,1.121,0.914,1.512s0.27,0.812,0.27,1.266c0,0.844-0.359,1.555-1.078,2.133s-1.574,0.867-2.566,0.867
		c-0.32,0-0.777-0.066-1.371-0.199s-0.938-0.199-1.031-0.199c-0.156,0-0.271,0.035-0.346,0.105s-0.143,0.176-0.205,0.316h-0.387
		L23.186,66.508z"/>
</g>
<circle fill="#FFFFE1" stroke="#000000" cx="243" cy="63" r="18"/>
<g>
	<path d="M239.186,66.508h0.387c0.172,0.945,0.375,1.637,0.609,2.074c0.43,0.805,1.07,1.207,1.922,1.207
		c0.477,0,0.877-0.168,1.201-0.504s0.486-0.781,0.486-1.336c0-0.344-0.041-0.625-0.123-0.844s-0.186-0.418-0.311-0.598l-0.973-1.441
		c-0.586-0.875-0.953-1.461-1.102-1.758c-0.227-0.445-0.34-0.891-0.34-1.336c0-0.68,0.244-1.279,0.732-1.799s1.182-0.779,2.08-0.779
		c0.383,0,0.82,0.072,1.312,0.217s0.828,0.217,1.008,0.217c0.195,0,0.34-0.039,0.434-0.117s0.18-0.184,0.258-0.316h0.34l-0.48,3.328
		h-0.387c-0.102-0.758-0.254-1.328-0.457-1.711c-0.375-0.711-0.969-1.066-1.781-1.066c-0.344,0-0.65,0.107-0.92,0.322
		s-0.404,0.529-0.404,0.943c0,0.32,0.061,0.602,0.182,0.844s0.396,0.672,0.826,1.289l0.832,1.195
		c0.43,0.617,0.734,1.121,0.914,1.512s0.27,0.812,0.27,1.266c0,0.844-0.359,1.555-1.078,2.133s-1.574,0.867-2.566,0.867
		c-0.32,0-0.777-0.066-1.371-0.199s-0.938-0.199-1.031-0.199c-0.156,0-0.271,0.035-0.346,0.105s-0.143,0.176-0.205,0.316h-0.387
		L239.186,66.508z"/>
</g>
<circle fill="#FFFFE1" stroke="#000000" cx="414" cy="63" r="18"/>
<g>
	<path d="M410.186,66.508h0.387c0.172,0.945,0.375,1.637,0.609,2.074c0.43,0.805,1.07,1.207,1.922,1.207
		c0.477,0,0.877-0.168,1.201-0.504s0.486-0.781,0.486-1.336c0-0.344-0.041-0.625-0.123-0.844s-0.186-0.418-0.311-0.598l-0.973-1.441
		c-0.586-0.875-0.953-1.461-1.102-1.758c-0.227-0.445-0.34-0.891-0.34-1.336c0-0.68,0.244-1.279,0.732-1.799s1.182-0.779,2.08-0.779
		c0.383,0,0.82,0.072,1.312,0.217s0.828,0.217,1.008,0.217c0.195,0,0.34-0.039,0.434-0.117s0.18-0.184,0.258-0.316h0.34l-0.48,3.328
		h-0.387c-0.102-0.758-0.254-1.328-0.457-1.711c-0.375-0.711-0.969-1.066-1.781-1.066c-0.344,0-0.65,0.107-0.92,0.322
		s-0.404,0.529-0.404,0.943c0,0.32,0.061,0.602,0.182,0.844s0.396,0.672,0.826,1.289l0.832,1.195
		c0.43,0.617,0.734,1.121,0.914,1.512s0.27,0.812,0.27,1.266c0,0.844-0.359,1.555-1.078,2.133s-1.574,0.867-2.566,0.867
		c-0.32,0-0.777-0.066-1.371-0.199s-0.938-0.199-1.031-0.199c-0.156,0-0.271,0.035-0.346,0.105s-0.143,0.176-0.205,0.316h-0.387
		L410.186,66.508z"/>
</g>
<circle fill="#FFFFE1" stroke="#000000" cx="603" cy="63" r="18"/>
<g>
	<path d="M599.186,66.508h0.387c0.172,0.945,0.375,1.637,0.609,2.074c0.43,0.805,1.07,1.207,1.922,1.207
		c0.477,0,0.877-0.168,1.201-0.504s0.486-0.781,0.486-1.336c0-0.344-0.041-0.625-0.123-0.844s-0.186-0.418-0.311-0.598l-0.973-1.441
		c-0.586-0.875-0.953-1.461-1.102-1.758c-0.227-0.445-0.34-0.891-0.34-1.336c0-0.68,0.244-1.279,0.732-1.799s1.182-0.779,2.08-0.779
		c0.383,0,0.82,0.072,1.312,0.217s0.828,0.217,1.008,0.217c0.195,0,0.34-0.039,0.434-0.117s0.18-0.184,0.258-0.316h0.34l-0.48,3.328
		h-0.387c-0.102-0.758-0.254-1.328-0.457-1.711c-0.375-0.711-0.969-1.066-1.781-1.066c-0.344,0-0.65,0.107-0.92,0.322
		s-0.404,0.529-0.404,0.943c0,0.32,0.061,0.602,0.182,0.844s0.396,0.672,0.826,1.289l0.832,1.195
		c0.43,0.617,0.734,1.121,0.914,1.512s0.27,0.812,0.27,1.266c0,0.844-0.359,1.555-1.078,2.133s-1.574,0.867-2.566,0.867
		c-0.32,0-0.777-0.066-1.371-0.199s-0.938-0.199-1.031-0.199c-0.156,0-0.271,0.035-0.346,0.105s-0.143,0.176-0.205,0.316h-0.387
		L599.186,66.508z"/>
</g>
<circle fill="#FFFFE1" stroke="#000000" cx="558" cy="108" r="18"/>
<g>
	<path d="M560.798,104.852c0.182,0.172,0.323,0.399,0.427,0.68l0.059,0.164l0.264-0.883c0.031-0.101,0.06-0.168,0.084-0.203
		c0.023-0.035,0.079-0.056,0.167-0.064l1.351-0.151c0.071,0,0.113,0.014,0.125,0.041s0.01,0.076-0.006,0.146
		c-0.033,0.102-0.059,0.182-0.076,0.24c-0.017,0.059-0.042,0.143-0.075,0.251l-1.159,4.194c-0.252,0.914-0.467,1.702-0.644,2.366
		c-0.289,1.199-0.434,1.884-0.434,2.055c0,0.109,0.029,0.189,0.088,0.24c0.059,0.05,0.131,0.076,0.217,0.076
		c0.07,0,0.148-0.023,0.234-0.07c0.087-0.047,0.19-0.117,0.314-0.211l0.21-0.164c0.065-0.055,0.14-0.119,0.222-0.193
		c0.083-0.074,0.181-0.166,0.296-0.275l0.766-0.75l0.281,0.246c-0.835,1.039-1.505,1.744-2.011,2.115s-0.987,0.557-1.444,0.557
		c-0.297,0-0.525-0.102-0.686-0.304c-0.161-0.203-0.241-0.456-0.241-0.76c0-0.28,0.053-0.684,0.158-1.21
		c0.105-0.526,0.209-0.968,0.311-1.327c-0.14,0.234-0.376,0.577-0.708,1.026c-0.332,0.449-0.738,0.885-1.223,1.308
		c-0.569,0.508-1.115,0.868-1.639,1.079c-0.405,0.141-0.795,0.211-1.17,0.211c-0.632,0-1.205-0.26-1.72-0.78
		c-0.515-0.52-0.772-1.257-0.772-2.211c0-1.642,0.742-3.355,2.227-5.138c1.533-1.854,3.12-2.78,4.763-2.78
		C559.977,104.371,560.459,104.531,560.798,104.852z M560.418,105.297c-0.261-0.266-0.576-0.399-0.947-0.399
		c-1.287,0-2.482,0.978-3.588,2.934c-0.972,1.721-1.457,3.203-1.457,4.447c0,0.626,0.135,1.082,0.403,1.367s0.603,0.428,1,0.428
		c1.177,0,2.312-0.95,3.402-2.852c1.052-1.729,1.577-3.289,1.577-4.682C560.809,105.978,560.678,105.563,560.418,105.297z"/>
</g>
<circle fill="#FFFFE1" stroke="#000000" cx="648" cy="108" r="18"/>
<g>
	<path d="M652.236,105.06c0.422,0.428,0.633,0.844,0.633,1.249c0,0.366-0.109,0.65-0.328,0.853
		c-0.219,0.202-0.477,0.303-0.773,0.303c-0.289,0-0.531-0.09-0.727-0.27s-0.293-0.402-0.293-0.668c0-0.203,0.064-0.422,0.193-0.656
		s0.193-0.387,0.193-0.457c0-0.141-0.08-0.26-0.24-0.357s-0.416-0.146-0.768-0.146c-1.258,0-2.35,0.716-3.275,2.147
		c-0.926,1.431-1.389,2.933-1.389,4.505c0,0.884,0.188,1.576,0.562,2.077s0.938,0.751,1.688,0.751c0.602,0,1.186-0.174,1.752-0.521
		s1.088-0.791,1.564-1.33l0.082-0.094l0.34,0.258c-0.547,0.695-1.074,1.23-1.582,1.605c-0.898,0.648-1.895,0.973-2.988,0.973
		c-1.047,0-1.895-0.334-2.543-1.002s-0.973-1.58-0.973-2.736c0-1.773,0.723-3.406,2.168-4.898c1.43-1.484,2.977-2.227,4.641-2.227
		C651.127,104.418,651.814,104.632,652.236,105.06z"/>
</g>
<circle fill="#FFFFE1" stroke="#000000" cx="603" cy="153" r="18"/>
<g>
	<path d="M605.604,149.816c0.149,0.172,0.268,0.465,0.354,0.878l1.377-4.804c0.039-0.133,0.064-0.252,0.076-0.357
		s0.018-0.197,0.018-0.275c0-0.305-0.057-0.496-0.17-0.574s-0.275-0.117-0.486-0.117c-0.133,0-0.256,0.004-0.369,0.012
		s-0.264,0.02-0.451,0.035v-0.387c0.887-0.117,2.115-0.32,3.686-0.609l0.106,0.117l-0.024,0.129l-2.312,8.423l-1.574,5.571
		c-0.031,0.126-0.057,0.243-0.076,0.349c-0.02,0.107-0.029,0.203-0.029,0.29c0,0.213,0.053,0.351,0.158,0.414
		c0.104,0.063,0.196,0.095,0.275,0.095c0.229,0,0.553-0.2,0.973-0.601c0.244-0.244,0.58-0.621,1.007-1.131l0.27,0.258l-0.165,0.247
		c-0.291,0.431-0.664,0.87-1.121,1.317c-0.81,0.792-1.537,1.188-2.182,1.188c-0.213,0-0.405-0.047-0.578-0.141
		c-0.322-0.188-0.482-0.523-0.482-1.008c0-0.164,0.023-0.426,0.07-0.785c0.047-0.359,0.118-0.753,0.215-1.182
		c-0.595,0.906-1.246,1.647-1.953,2.225c-0.708,0.578-1.48,0.866-2.316,0.866c-0.68,0-1.274-0.242-1.783-0.726
		c-0.508-0.484-0.762-1.229-0.762-2.236c0-1.701,0.786-3.449,2.357-5.244c1.564-1.787,3.089-2.681,4.574-2.681
		C604.904,149.371,605.344,149.52,605.604,149.816z M599.766,158.519c0.219,0.355,0.59,0.532,1.114,0.532
		c1.118,0,2.193-0.897,3.226-2.692c0.994-1.685,1.49-3.281,1.49-4.787c0-0.476-0.078-0.87-0.235-1.182s-0.476-0.468-0.956-0.468
		c-1.195,0-2.352,0.96-3.469,2.879c-0.998,1.717-1.498,3.207-1.498,4.471C599.438,157.748,599.547,158.163,599.766,158.519z"/>
</g>
<circle fill="#FFFFE1" stroke="#000000" cx="693" cy="153" r="18"/>
<g>
	<path d="M699.568,145.926c-0.172,0.219-0.41,0.328-0.715,0.328c-0.266,0-0.484-0.084-0.656-0.253s-0.258-0.367-0.258-0.595
		c0-0.157,0.074-0.428,0.223-0.813c0-0.102-0.051-0.192-0.152-0.271c-0.089-0.071-0.195-0.106-0.321-0.106
		c-0.587,0-1.077,0.63-1.472,1.891c-0.222,0.728-0.471,1.954-0.746,3.676h2.613l-0.164,0.785h-2.666l-2.242,7.656
		c-0.473,2.024-1.109,3.66-1.907,4.909s-1.819,1.873-3.063,1.873c-0.569,0-1.037-0.152-1.402-0.457
		c-0.364-0.305-0.547-0.645-0.547-1.02c0-0.234,0.076-0.453,0.229-0.656s0.381-0.305,0.686-0.305c0.266,0,0.49,0.088,0.674,0.264
		s0.275,0.393,0.275,0.65c0,0.141-0.041,0.283-0.123,0.428s-0.123,0.244-0.123,0.299c0,0.07,0.045,0.129,0.135,0.176
		s0.205,0.07,0.346,0.07c0.666,0,1.229-0.523,1.69-1.57c0.242-0.547,0.466-1.301,0.669-2.262l2.784-10.055h-2.168l0.164-0.785h2.271
		c0.427-1.82,0.906-3.168,1.438-4.043c0.791-1.344,1.768-2.016,2.93-2.016c0.532,0,0.975,0.152,1.328,0.457s0.53,0.652,0.53,1.043
		C699.826,145.473,699.74,145.707,699.568,145.926z"/>
</g>
<circle fill="#FFFFE1" stroke="#000000" cx="666" cy="198" r="18"/>
<g>
	<path d="M660.861,205.639c0.449-0.527,1.162-1.053,2.139-1.576c-0.195-0.125-0.355-0.256-0.48-0.393s-0.188-0.318-0.188-0.545
		c0-0.32,0.223-0.688,0.668-1.102c0.25-0.234,0.656-0.543,1.219-0.926c-0.5-0.188-0.93-0.453-1.289-0.797
		c-0.438-0.461-0.656-1.059-0.656-1.793c0-1.18,0.461-2.16,1.383-2.941s2.062-1.172,3.422-1.172c0.711,0,1.312,0.111,1.805,0.334
		s0.781,0.408,0.867,0.557h1.582v0.943h-1.195c0.047,0.172,0.082,0.328,0.105,0.468s0.035,0.339,0.035,0.597
		c0,1.265-0.49,2.259-1.471,2.985c-0.98,0.726-2.037,1.088-3.17,1.088c-0.117,0-0.227-0.006-0.328-0.018s-0.227-0.033-0.375-0.064
		c-0.117,0-0.277,0.113-0.48,0.34c-0.211,0.227-0.316,0.43-0.316,0.609c0,0.266,0.859,0.719,2.578,1.359
		c1.711,0.648,2.566,1.598,2.566,2.848c0,0.938-0.43,1.76-1.289,2.467s-2.156,1.061-3.891,1.061c-1.203,0-2.156-0.258-2.859-0.773
		s-1.055-1.145-1.055-1.887C660.188,206.723,660.412,206.166,660.861,205.639z M666.885,208.785c0.613-0.445,0.92-0.977,0.92-1.594
		c0-0.469-0.16-0.863-0.48-1.184c-0.172-0.172-0.449-0.355-0.832-0.551c-0.32-0.156-0.861-0.381-1.623-0.674
		s-1.201-0.439-1.318-0.439c-0.203,0-0.598,0.271-1.184,0.814s-0.879,1.158-0.879,1.846c0,1.039,0.449,1.754,1.348,2.145
		c0.469,0.203,1.047,0.305,1.734,0.305C665.5,209.453,666.271,209.23,666.885,208.785z M664.383,200.16
		c0.25,0.477,0.699,0.715,1.348,0.715c0.703,0,1.33-0.447,1.881-1.342s0.826-1.881,0.826-2.959c0-0.516-0.113-0.92-0.34-1.213
		s-0.566-0.439-1.02-0.439c-0.875,0-1.58,0.465-2.115,1.395s-0.803,1.824-0.803,2.684
		C664.16,199.484,664.234,199.871,664.383,200.16z"/>
</g>
<circle fill="#FFFFE1" stroke="#000000" cx="639" cy="243" r="18"/>
<g>
	<path d="M635.847,234.285c0.505-0.07,0.913-0.127,1.225-0.17s0.581-0.084,0.811-0.123c0.931-0.18,1.431-0.277,1.503-0.293
		c0.07-0.016,0.125-0.023,0.165-0.023c0.095,0.047,0.142,0.105,0.142,0.176l-2.903,10.465c0.97-1.453,1.763-2.516,2.378-3.188
		c1.078-1.156,2.066-1.734,2.967-1.734c0.37,0,0.727,0.119,1.07,0.357s0.516,0.666,0.516,1.283c0,0.148-0.021,0.34-0.059,0.574
		c-0.04,0.234-0.087,0.441-0.141,0.621l-1.555,5.613c-0.047,0.156-0.086,0.307-0.117,0.451s-0.047,0.275-0.047,0.393
		c0,0.133,0.031,0.232,0.094,0.299s0.152,0.1,0.27,0.1c0.242,0,0.527-0.168,0.855-0.504c0.203-0.211,0.582-0.672,1.137-1.383
		l0.305,0.281c-0.547,0.812-1.011,1.406-1.393,1.781c-0.68,0.664-1.362,0.996-2.049,0.996c-0.312,0-0.574-0.098-0.785-0.293
		c-0.21-0.195-0.315-0.477-0.315-0.844c0-0.102,0.006-0.197,0.018-0.287s0.033-0.189,0.064-0.299l1.769-6.867
		c0.016-0.062,0.029-0.127,0.041-0.193s0.018-0.135,0.018-0.205c0-0.195-0.059-0.348-0.176-0.457
		c-0.124-0.109-0.283-0.164-0.478-0.164c-0.521,0-1.177,0.42-1.969,1.26s-1.46,1.697-2.005,2.572
		c-0.372,0.617-0.654,1.199-0.844,1.746c-0.191,0.547-0.558,1.805-1.102,3.773h-1.822l3.937-14.215
		c0.023-0.102,0.039-0.188,0.047-0.258s0.012-0.137,0.012-0.199c0-0.336-0.109-0.537-0.328-0.604s-0.637-0.084-1.254-0.053V234.285z
		"/>
</g>
<circle fill="#FFFFE1" stroke="#000000" cx="612" cy="288" r="18"/>
<g>
	<path d="M609.768,286.854c1.547-1.624,3.145-2.436,4.793-2.436c0.609,0,1.094,0.141,1.453,0.421s0.539,0.698,0.539,1.251
		c0,1.123-0.658,2.085-1.975,2.884c-1.316,0.8-2.701,1.288-4.154,1.468l-0.668,0.082c-0.102,0.32-0.172,0.576-0.211,0.768
		s-0.059,0.432-0.059,0.721c0,0.688,0.225,1.223,0.674,1.605s0.982,0.574,1.6,0.574c0.586,0,1.207-0.195,1.863-0.586
		c0.375-0.227,0.918-0.633,1.629-1.219l0.305,0.27c-0.352,0.445-0.855,0.902-1.512,1.371c-1.164,0.836-2.332,1.254-3.504,1.254
		c-0.828,0-1.555-0.293-2.18-0.878s-0.938-1.425-0.938-2.517C607.424,290.154,608.205,288.477,609.768,286.854z M613.564,288.424
		c0.938-0.83,1.406-1.654,1.406-2.473c0-0.297-0.07-0.532-0.211-0.707c-0.141-0.176-0.348-0.264-0.621-0.264
		c-0.508,0-1.006,0.217-1.494,0.648c-0.488,0.434-0.928,0.922-1.318,1.468c-0.414,0.64-0.742,1.251-0.984,1.835
		c-0.133,0.312-0.273,0.667-0.422,1.064C611.412,289.777,612.627,289.254,613.564,288.424z"/>
</g>
<circle fill="#FFFFE1" stroke="#000000" cx="585" cy="333" r="18"/>
<g>
	<path d="M583.137,325.949c0.047-0.172,0.08-0.326,0.1-0.463s0.029-0.252,0.029-0.346c0-0.102-0.025-0.201-0.076-0.299
		s-0.17-0.174-0.357-0.229c-0.055-0.016-0.146-0.027-0.275-0.035s-0.408-0.023-0.838-0.047v-0.41
		c0.252-0.039,0.525-0.074,0.819-0.105s0.693-0.086,1.196-0.164c0.055-0.008,0.292-0.059,0.713-0.152
		c0.42-0.094,0.721-0.141,0.901-0.141c0.039,0,0.076,0.016,0.112,0.047c0.035,0.031,0.053,0.078,0.053,0.141l-0.023,0.152
		l-2.393,8.859c0.698-1,1.293-1.727,1.782-2.18c0.854-0.789,1.735-1.184,2.645-1.184c0.854,0,1.54,0.283,2.056,0.85
		c0.518,0.566,0.775,1.268,0.775,2.104c0,1.945-0.848,3.766-2.543,5.461c-1.648,1.648-3.355,2.473-5.121,2.473
		c-0.805,0-1.543-0.18-2.215-0.539c-0.672-0.352-0.98-0.633-0.926-0.844L583.137,325.949z M586.693,337.035
		c1.082-1.617,1.623-3.098,1.623-4.441c0-0.609-0.16-1.096-0.479-1.459c-0.319-0.363-0.721-0.545-1.203-0.545
		c-1.237,0-2.42,1.109-3.549,3.328c-0.98,1.93-1.471,3.531-1.471,4.805c0,0.305,0.097,0.549,0.291,0.732
		c0.195,0.184,0.502,0.275,0.923,0.275C584.207,339.73,585.494,338.832,586.693,337.035z"/>
</g>
<circle fill="#FFFFE1" stroke="#000000" cx="369" cy="108" r="18"/>
<g>
	<path d="M371.798,104.852c0.182,0.172,0.323,0.399,0.427,0.68l0.059,0.164l0.264-0.883c0.031-0.101,0.06-0.168,0.084-0.203
		c0.023-0.035,0.079-0.056,0.167-0.064l1.351-0.151c0.071,0,0.113,0.014,0.125,0.041s0.01,0.076-0.006,0.146
		c-0.033,0.102-0.059,0.182-0.076,0.24c-0.017,0.059-0.042,0.143-0.075,0.251l-1.159,4.194c-0.252,0.914-0.467,1.702-0.644,2.366
		c-0.289,1.199-0.434,1.884-0.434,2.055c0,0.109,0.029,0.189,0.088,0.24c0.059,0.05,0.131,0.076,0.217,0.076
		c0.07,0,0.148-0.023,0.234-0.07c0.087-0.047,0.19-0.117,0.314-0.211l0.21-0.164c0.065-0.055,0.14-0.119,0.222-0.193
		c0.083-0.074,0.181-0.166,0.296-0.275l0.766-0.75l0.281,0.246c-0.835,1.039-1.505,1.744-2.011,2.115s-0.987,0.557-1.444,0.557
		c-0.297,0-0.525-0.102-0.686-0.304c-0.161-0.203-0.241-0.456-0.241-0.76c0-0.28,0.053-0.684,0.158-1.21
		c0.105-0.526,0.209-0.968,0.311-1.327c-0.14,0.234-0.376,0.577-0.708,1.026c-0.332,0.449-0.738,0.885-1.223,1.308
		c-0.569,0.508-1.115,0.868-1.639,1.079c-0.405,0.141-0.795,0.211-1.17,0.211c-0.632,0-1.205-0.26-1.72-0.78
		c-0.515-0.52-0.772-1.257-0.772-2.211c0-1.642,0.742-3.355,2.227-5.138c1.533-1.854,3.12-2.78,4.763-2.78
		C370.977,104.371,371.459,104.531,371.798,104.852z M371.418,105.297c-0.261-0.266-0.576-0.399-0.947-0.399
		c-1.287,0-2.482,0.978-3.588,2.934c-0.972,1.721-1.457,3.203-1.457,4.447c0,0.626,0.135,1.082,0.403,1.367s0.603,0.428,1,0.428
		c1.177,0,2.312-0.95,3.402-2.852c1.052-1.729,1.577-3.289,1.577-4.682C371.809,105.978,371.678,105.563,371.418,105.297z"/>
</g>
<circle fill="#FFFFE1" stroke="#000000" cx="324" cy="153" r="18"/>
<g>
	<path d="M322.137,145.949c0.047-0.172,0.08-0.326,0.1-0.463s0.029-0.252,0.029-0.346c0-0.102-0.025-0.201-0.076-0.299
		s-0.17-0.174-0.357-0.229c-0.055-0.016-0.146-0.027-0.275-0.035s-0.408-0.023-0.838-0.047v-0.41
		c0.251-0.039,0.524-0.074,0.819-0.105s0.693-0.086,1.196-0.164c0.055-0.008,0.292-0.059,0.713-0.152
		c0.42-0.094,0.721-0.141,0.901-0.141c0.039,0,0.076,0.016,0.112,0.047c0.035,0.031,0.053,0.078,0.053,0.141l-0.023,0.152
		l-2.393,8.859c0.699-1,1.293-1.727,1.783-2.18c0.854-0.789,1.736-1.184,2.645-1.184c0.854,0,1.54,0.283,2.056,0.85
		c0.517,0.566,0.775,1.268,0.775,2.104c0,1.945-0.848,3.766-2.543,5.461c-1.648,1.648-3.355,2.473-5.121,2.473
		c-0.804,0-1.542-0.18-2.214-0.539c-0.672-0.352-0.98-0.633-0.926-0.844L322.137,145.949z M325.693,157.035
		c1.082-1.617,1.623-3.098,1.623-4.441c0-0.609-0.16-1.096-0.479-1.459c-0.319-0.363-0.72-0.545-1.202-0.545
		c-1.238,0-2.421,1.109-3.549,3.328c-0.981,1.93-1.471,3.531-1.471,4.805c0,0.305,0.097,0.549,0.292,0.732
		c0.194,0.184,0.502,0.275,0.922,0.275C323.207,159.73,324.495,158.832,325.693,157.035z"/>
</g>
<circle fill="#FFFFE1" stroke="#000000" cx="459" cy="108" r="18"/>
<g>
	<path d="M463.236,105.06c0.422,0.428,0.633,0.844,0.633,1.249c0,0.366-0.109,0.65-0.328,0.853
		c-0.219,0.202-0.477,0.303-0.773,0.303c-0.289,0-0.531-0.09-0.727-0.27s-0.293-0.402-0.293-0.668c0-0.203,0.064-0.422,0.193-0.656
		s0.193-0.387,0.193-0.457c0-0.141-0.08-0.26-0.24-0.357s-0.416-0.146-0.768-0.146c-1.258,0-2.35,0.716-3.275,2.147
		c-0.926,1.431-1.389,2.933-1.389,4.505c0,0.884,0.188,1.576,0.562,2.077s0.938,0.751,1.688,0.751c0.602,0,1.186-0.174,1.752-0.521
		s1.088-0.791,1.564-1.33l0.082-0.094l0.34,0.258c-0.547,0.695-1.074,1.23-1.582,1.605c-0.898,0.648-1.895,0.973-2.988,0.973
		c-1.047,0-1.895-0.334-2.543-1.002s-0.973-1.58-0.973-2.736c0-1.773,0.723-3.406,2.168-4.898c1.43-1.484,2.977-2.227,4.641-2.227
		C462.127,104.418,462.814,104.632,463.236,105.06z"/>
</g>
<circle fill="#FFFFE1" stroke="#000000" cx="414" cy="153" r="18"/>
<g>
	<path d="M416.604,149.816c0.149,0.172,0.268,0.465,0.354,0.878l1.377-4.804c0.039-0.133,0.064-0.252,0.076-0.357
		s0.018-0.197,0.018-0.275c0-0.305-0.057-0.496-0.17-0.574s-0.275-0.117-0.486-0.117c-0.133,0-0.256,0.004-0.369,0.012
		s-0.264,0.02-0.451,0.035v-0.387c0.887-0.117,2.115-0.32,3.686-0.609l0.106,0.117l-0.024,0.129l-2.312,8.423l-1.574,5.571
		c-0.031,0.126-0.057,0.243-0.076,0.349c-0.02,0.107-0.029,0.203-0.029,0.29c0,0.213,0.053,0.351,0.158,0.414
		c0.104,0.063,0.196,0.095,0.275,0.095c0.229,0,0.553-0.2,0.973-0.601c0.244-0.244,0.58-0.621,1.007-1.131l0.27,0.258l-0.165,0.247
		c-0.291,0.431-0.664,0.87-1.121,1.317c-0.81,0.792-1.537,1.188-2.182,1.188c-0.213,0-0.405-0.047-0.578-0.141
		c-0.322-0.188-0.482-0.523-0.482-1.008c0-0.164,0.023-0.426,0.07-0.785c0.047-0.359,0.118-0.753,0.215-1.182
		c-0.595,0.906-1.246,1.647-1.953,2.225c-0.708,0.578-1.48,0.866-2.316,0.866c-0.68,0-1.274-0.242-1.783-0.726
		c-0.508-0.484-0.762-1.229-0.762-2.236c0-1.701,0.786-3.449,2.357-5.244c1.564-1.787,3.089-2.681,4.574-2.681
		C415.904,149.371,416.344,149.52,416.604,149.816z M410.766,158.519c0.219,0.355,0.59,0.532,1.114,0.532
		c1.118,0,2.193-0.897,3.226-2.692c0.994-1.685,1.49-3.281,1.49-4.787c0-0.476-0.078-0.87-0.235-1.182s-0.476-0.468-0.956-0.468
		c-1.195,0-2.352,0.96-3.469,2.879c-0.998,1.717-1.498,3.207-1.498,4.471C410.438,157.748,410.547,158.163,410.766,158.519z"/>
</g>
<circle fill="#FFFFE1" stroke="#000000" cx="369" cy="198" r="18"/>
<g>
	<path d="M366.768,196.853c1.547-1.624,3.145-2.435,4.793-2.435c0.609,0,1.094,0.141,1.453,0.421
		c0.359,0.281,0.539,0.698,0.539,1.251c0,1.123-0.658,2.084-1.975,2.883c-1.316,0.799-2.701,1.289-4.154,1.468l-0.668,0.082
		c-0.102,0.32-0.172,0.576-0.211,0.768s-0.059,0.432-0.059,0.721c0,0.688,0.225,1.223,0.674,1.605s0.982,0.574,1.6,0.574
		c0.586,0,1.207-0.195,1.863-0.586c0.375-0.227,0.918-0.633,1.629-1.219l0.305,0.27c-0.352,0.445-0.855,0.902-1.512,1.371
		c-1.164,0.836-2.332,1.254-3.504,1.254c-0.828,0-1.555-0.292-2.18-0.878s-0.938-1.424-0.938-2.517
		C364.424,200.154,365.205,198.476,366.768,196.853z M370.564,198.424c0.938-0.83,1.406-1.654,1.406-2.473
		c0-0.296-0.07-0.532-0.211-0.708s-0.348-0.263-0.621-0.263c-0.508,0-1.006,0.216-1.494,0.649s-0.928,0.921-1.318,1.467
		c-0.414,0.639-0.742,1.251-0.984,1.835c-0.133,0.312-0.273,0.667-0.422,1.064C368.412,199.778,369.627,199.254,370.564,198.424z"/>
</g>
<circle fill="#FFFFE1" stroke="#000000" cx="504" cy="153" r="18"/>
<g>
	<path d="M510.568,145.926c-0.172,0.219-0.41,0.328-0.715,0.328c-0.266,0-0.484-0.084-0.656-0.253s-0.258-0.367-0.258-0.595
		c0-0.157,0.074-0.428,0.223-0.813c0-0.102-0.051-0.192-0.152-0.271c-0.089-0.071-0.195-0.106-0.321-0.106
		c-0.587,0-1.077,0.63-1.472,1.891c-0.222,0.728-0.471,1.954-0.746,3.676h2.613l-0.164,0.785h-2.666l-2.242,7.656
		c-0.473,2.024-1.109,3.66-1.907,4.909s-1.819,1.873-3.063,1.873c-0.569,0-1.037-0.152-1.402-0.457
		c-0.364-0.305-0.547-0.645-0.547-1.02c0-0.234,0.076-0.453,0.229-0.656s0.381-0.305,0.686-0.305c0.266,0,0.49,0.088,0.674,0.264
		s0.275,0.393,0.275,0.65c0,0.141-0.041,0.283-0.123,0.428s-0.123,0.244-0.123,0.299c0,0.07,0.045,0.129,0.135,0.176
		s0.205,0.07,0.346,0.07c0.666,0,1.229-0.523,1.69-1.57c0.242-0.547,0.466-1.301,0.669-2.262l2.784-10.055h-2.168l0.164-0.785h2.271
		c0.427-1.82,0.906-3.168,1.438-4.043c0.791-1.344,1.768-2.016,2.93-2.016c0.532,0,0.975,0.152,1.328,0.457s0.53,0.652,0.53,1.043
		C510.826,145.473,510.74,145.707,510.568,145.926z"/>
</g>
<circle fill="#FFFFE1" stroke="#000000" cx="459" cy="198" r="18"/>
<g>
	<path d="M453.861,205.639c0.449-0.527,1.162-1.053,2.139-1.576c-0.195-0.125-0.355-0.256-0.48-0.393s-0.188-0.318-0.188-0.545
		c0-0.32,0.223-0.688,0.668-1.102c0.25-0.234,0.656-0.543,1.219-0.926c-0.5-0.188-0.93-0.453-1.289-0.797
		c-0.438-0.461-0.656-1.059-0.656-1.793c0-1.18,0.461-2.16,1.383-2.941s2.062-1.172,3.422-1.172c0.711,0,1.312,0.111,1.805,0.334
		s0.781,0.408,0.867,0.557h1.582v0.943h-1.195c0.047,0.172,0.082,0.328,0.105,0.468s0.035,0.339,0.035,0.597
		c0,1.265-0.49,2.259-1.471,2.985c-0.98,0.726-2.037,1.088-3.17,1.088c-0.117,0-0.227-0.006-0.328-0.018s-0.227-0.033-0.375-0.064
		c-0.117,0-0.277,0.113-0.48,0.34c-0.211,0.227-0.316,0.43-0.316,0.609c0,0.266,0.859,0.719,2.578,1.359
		c1.711,0.648,2.566,1.598,2.566,2.848c0,0.938-0.43,1.76-1.289,2.467s-2.156,1.061-3.891,1.061c-1.203,0-2.156-0.258-2.859-0.773
		s-1.055-1.145-1.055-1.887C453.188,206.723,453.412,206.166,453.861,205.639z M459.885,208.785c0.613-0.445,0.92-0.977,0.92-1.594
		c0-0.469-0.16-0.863-0.48-1.184c-0.172-0.172-0.449-0.355-0.832-0.551c-0.32-0.156-0.861-0.381-1.623-0.674
		s-1.201-0.439-1.318-0.439c-0.203,0-0.598,0.271-1.184,0.814s-0.879,1.158-0.879,1.846c0,1.039,0.449,1.754,1.348,2.145
		c0.469,0.203,1.047,0.305,1.734,0.305C458.5,209.453,459.271,209.23,459.885,208.785z M457.383,200.16
		c0.25,0.477,0.699,0.715,1.348,0.715c0.703,0,1.33-0.447,1.881-1.342s0.826-1.881,0.826-2.959c0-0.516-0.113-0.92-0.34-1.213
		s-0.566-0.439-1.02-0.439c-0.875,0-1.58,0.465-2.115,1.395s-0.803,1.824-0.803,2.684
		C457.16,199.484,457.234,199.871,457.383,200.16z"/>
</g>
<circle fill="#FFFFE1" stroke="#000000" cx="414" cy="243" r="18"/>
<g>
	<path d="M410.847,234.285c0.505-0.07,0.913-0.127,1.225-0.17s0.581-0.084,0.811-0.123c0.931-0.18,1.431-0.277,1.503-0.293
		c0.07-0.016,0.125-0.023,0.165-0.023c0.095,0.047,0.142,0.105,0.142,0.176l-2.903,10.465c0.97-1.453,1.763-2.516,2.378-3.188
		c1.078-1.156,2.066-1.734,2.967-1.734c0.37,0,0.727,0.119,1.07,0.357s0.516,0.666,0.516,1.283c0,0.148-0.021,0.34-0.059,0.574
		c-0.04,0.234-0.087,0.441-0.141,0.621l-1.555,5.613c-0.047,0.156-0.086,0.307-0.117,0.451s-0.047,0.275-0.047,0.393
		c0,0.133,0.031,0.232,0.094,0.299s0.152,0.1,0.27,0.1c0.242,0,0.527-0.168,0.855-0.504c0.203-0.211,0.582-0.672,1.137-1.383
		l0.305,0.281c-0.547,0.812-1.011,1.406-1.393,1.781c-0.68,0.664-1.362,0.996-2.049,0.996c-0.312,0-0.574-0.098-0.785-0.293
		c-0.21-0.195-0.315-0.477-0.315-0.844c0-0.102,0.006-0.197,0.018-0.287s0.033-0.189,0.064-0.299l1.769-6.867
		c0.016-0.062,0.029-0.127,0.041-0.193s0.018-0.135,0.018-0.205c0-0.195-0.059-0.348-0.176-0.457
		c-0.124-0.109-0.283-0.164-0.478-0.164c-0.521,0-1.177,0.42-1.969,1.26s-1.46,1.697-2.005,2.572
		c-0.372,0.617-0.654,1.199-0.844,1.746c-0.191,0.547-0.558,1.805-1.102,3.773h-1.822l3.937-14.215
		c0.023-0.102,0.039-0.188,0.047-0.258s0.012-0.137,0.012-0.199c0-0.336-0.109-0.537-0.328-0.604s-0.637-0.084-1.254-0.053V234.285z
		"/>
</g>
<circle fill="#FFFFE1" stroke="#000000" cx="243" cy="108" r="18"/>
<g>
	<path d="M245.798,104.852c0.182,0.172,0.324,0.399,0.427,0.68l0.059,0.164l0.263-0.883c0.032-0.101,0.06-0.168,0.083-0.203
		c0.024-0.035,0.08-0.056,0.167-0.064l1.35-0.151c0.072,0,0.113,0.014,0.125,0.041s0.01,0.076-0.005,0.146
		c-0.034,0.102-0.059,0.182-0.076,0.24c-0.017,0.059-0.042,0.143-0.076,0.251l-1.16,4.194c-0.252,0.914-0.466,1.702-0.643,2.366
		c-0.289,1.199-0.434,1.884-0.434,2.055c0,0.109,0.029,0.189,0.088,0.24c0.059,0.05,0.131,0.076,0.217,0.076
		c0.07,0,0.148-0.023,0.234-0.07c0.086-0.047,0.191-0.117,0.314-0.211l0.209-0.164c0.066-0.055,0.14-0.119,0.222-0.193
		c0.083-0.074,0.181-0.166,0.296-0.275l0.765-0.75l0.281,0.246c-0.835,1.039-1.505,1.744-2.011,2.115s-0.987,0.557-1.445,0.557
		c-0.297,0-0.525-0.102-0.686-0.304c-0.161-0.203-0.241-0.456-0.241-0.76c0-0.28,0.053-0.684,0.158-1.21
		c0.105-0.526,0.209-0.968,0.311-1.327c-0.14,0.234-0.376,0.577-0.708,1.026c-0.332,0.449-0.739,0.885-1.223,1.308
		c-0.569,0.508-1.116,0.868-1.638,1.079c-0.406,0.141-0.796,0.211-1.17,0.211c-0.632,0-1.205-0.26-1.72-0.78
		c-0.515-0.52-0.772-1.257-0.772-2.211c0-1.642,0.742-3.355,2.227-5.138c1.532-1.854,3.12-2.78,4.762-2.78
		C244.977,104.371,245.458,104.531,245.798,104.852z M245.418,105.297c-0.261-0.266-0.577-0.399-0.948-0.399
		c-1.287,0-2.482,0.978-3.588,2.934c-0.971,1.721-1.457,3.203-1.457,4.447c0,0.626,0.134,1.082,0.403,1.367s0.602,0.428,1,0.428
		c1.177,0,2.311-0.95,3.402-2.852c1.051-1.729,1.577-3.289,1.577-4.682C245.809,105.978,245.678,105.563,245.418,105.297z"/>
</g>
<circle fill="#FFFFE1" stroke="#000000" cx="243" cy="153" r="18"/>
<g>
	<path d="M241.137,145.949c0.047-0.172,0.08-0.326,0.1-0.463s0.029-0.252,0.029-0.346c0-0.102-0.025-0.201-0.076-0.299
		s-0.17-0.174-0.357-0.229c-0.055-0.016-0.146-0.027-0.275-0.035s-0.408-0.023-0.838-0.047v-0.41
		c0.251-0.039,0.524-0.074,0.819-0.105s0.693-0.086,1.196-0.164c0.055-0.008,0.292-0.059,0.713-0.152
		c0.42-0.094,0.721-0.141,0.901-0.141c0.039,0,0.076,0.016,0.112,0.047c0.035,0.031,0.053,0.078,0.053,0.141l-0.023,0.152
		l-2.393,8.859c0.699-1,1.293-1.727,1.783-2.18c0.854-0.789,1.736-1.184,2.645-1.184c0.854,0,1.54,0.283,2.056,0.85
		c0.517,0.566,0.775,1.268,0.775,2.104c0,1.945-0.848,3.766-2.543,5.461c-1.648,1.648-3.355,2.473-5.121,2.473
		c-0.804,0-1.542-0.18-2.214-0.539c-0.672-0.352-0.98-0.633-0.926-0.844L241.137,145.949z M244.693,157.035
		c1.082-1.617,1.623-3.098,1.623-4.441c0-0.609-0.16-1.096-0.479-1.459c-0.319-0.363-0.72-0.545-1.202-0.545
		c-1.238,0-2.421,1.109-3.549,3.328c-0.981,1.93-1.471,3.531-1.471,4.805c0,0.305,0.097,0.549,0.292,0.732
		c0.194,0.184,0.502,0.275,0.922,0.275C242.207,159.73,243.495,158.832,244.693,157.035z"/>
</g>
<circle fill="#FFFFE1" stroke="#000000" cx="243" cy="198" r="18"/>
<g>
	<path d="M240.768,196.853c1.547-1.624,3.145-2.435,4.793-2.435c0.609,0,1.094,0.141,1.453,0.421
		c0.359,0.281,0.539,0.698,0.539,1.251c0,1.123-0.658,2.084-1.975,2.883c-1.316,0.799-2.701,1.289-4.154,1.468l-0.668,0.082
		c-0.102,0.32-0.172,0.576-0.211,0.768s-0.059,0.432-0.059,0.721c0,0.688,0.225,1.223,0.674,1.605s0.982,0.574,1.6,0.574
		c0.586,0,1.207-0.195,1.863-0.586c0.375-0.227,0.918-0.633,1.629-1.219l0.305,0.27c-0.352,0.445-0.855,0.902-1.512,1.371
		c-1.164,0.836-2.332,1.254-3.504,1.254c-0.828,0-1.555-0.292-2.18-0.878s-0.938-1.424-0.938-2.517
		C238.424,200.154,239.205,198.476,240.768,196.853z M244.564,198.424c0.938-0.83,1.406-1.654,1.406-2.473
		c0-0.296-0.07-0.532-0.211-0.708s-0.348-0.263-0.621-0.263c-0.508,0-1.006,0.216-1.494,0.649s-0.928,0.921-1.318,1.467
		c-0.414,0.639-0.742,1.251-0.984,1.835c-0.133,0.312-0.273,0.667-0.422,1.064C242.412,199.778,243.627,199.254,244.564,198.424z"/>
</g>
<circle fill="#FFFFE1" stroke="#000000" cx="243" cy="243" r="18"/>
<g>
	<path d="M245.604,239.816c0.149,0.172,0.267,0.465,0.354,0.878l1.377-4.804c0.039-0.133,0.064-0.252,0.076-0.357
		s0.018-0.197,0.018-0.275c0-0.305-0.057-0.496-0.17-0.574s-0.275-0.117-0.486-0.117c-0.133,0-0.256,0.004-0.369,0.012
		s-0.264,0.02-0.451,0.035v-0.387c0.887-0.117,2.116-0.32,3.686-0.609l0.106,0.117l-0.024,0.129l-2.312,8.423l-1.575,5.571
		c-0.031,0.126-0.057,0.243-0.076,0.349c-0.02,0.107-0.029,0.203-0.029,0.29c0,0.213,0.052,0.351,0.158,0.414
		c0.105,0.063,0.197,0.095,0.276,0.095c0.229,0,0.553-0.2,0.972-0.601c0.245-0.244,0.581-0.621,1.007-1.131l0.27,0.258l-0.165,0.247
		c-0.291,0.431-0.665,0.87-1.121,1.317c-0.81,0.792-1.538,1.188-2.182,1.188c-0.212,0-0.405-0.047-0.578-0.141
		c-0.322-0.188-0.483-0.523-0.483-1.008c0-0.164,0.023-0.426,0.07-0.785c0.047-0.359,0.119-0.753,0.215-1.182
		c-0.594,0.906-1.246,1.647-1.953,2.225c-0.708,0.578-1.48,0.866-2.316,0.866c-0.68,0-1.274-0.242-1.783-0.726
		c-0.508-0.484-0.762-1.229-0.762-2.236c0-1.701,0.786-3.449,2.357-5.244c1.564-1.787,3.089-2.681,4.574-2.681
		C244.904,239.371,245.344,239.52,245.604,239.816z M239.766,248.519c0.219,0.355,0.59,0.532,1.114,0.532
		c1.118,0,2.193-0.897,3.226-2.692c0.994-1.685,1.491-3.281,1.491-4.787c0-0.476-0.079-0.87-0.236-1.182s-0.476-0.468-0.956-0.468
		c-1.196,0-2.352,0.96-3.469,2.879c-0.999,1.717-1.499,3.207-1.499,4.471C239.438,247.748,239.547,248.163,239.766,248.519z"/>
</g>
<circle fill="#FFFFE1" stroke="#000000" cx="243" cy="288" r="18"/>
<g>
	<path d="M247.236,285.061c0.422,0.428,0.633,0.844,0.633,1.248c0,0.366-0.109,0.65-0.328,0.854
		c-0.219,0.201-0.477,0.303-0.773,0.303c-0.289,0-0.531-0.09-0.727-0.27s-0.293-0.402-0.293-0.668c0-0.203,0.064-0.422,0.193-0.656
		s0.193-0.387,0.193-0.457c0-0.141-0.08-0.26-0.24-0.357s-0.416-0.146-0.768-0.146c-1.258,0-2.35,0.716-3.275,2.147
		c-0.926,1.431-1.389,2.933-1.389,4.505c0,0.885,0.188,1.576,0.562,2.077s0.938,0.751,1.688,0.751c0.602,0,1.186-0.174,1.752-0.521
		s1.088-0.791,1.564-1.33l0.082-0.094l0.34,0.258c-0.547,0.695-1.074,1.23-1.582,1.605c-0.898,0.648-1.895,0.973-2.988,0.973
		c-1.047,0-1.895-0.334-2.543-1.002s-0.973-1.58-0.973-2.736c0-1.773,0.723-3.406,2.168-4.898c1.43-1.484,2.977-2.227,4.641-2.227
		C246.127,284.418,246.814,284.632,247.236,285.061z"/>
</g>
<circle fill="#FFFFE1" stroke="#000000" cx="243" cy="333" r="18"/>
<g>
	<path d="M249.568,325.926c-0.172,0.219-0.41,0.328-0.715,0.328c-0.266,0-0.484-0.084-0.656-0.254
		c-0.172-0.168-0.258-0.367-0.258-0.595c0-0.157,0.074-0.429,0.223-0.813c0-0.102-0.051-0.192-0.152-0.271
		c-0.089-0.07-0.196-0.105-0.321-0.105c-0.587,0-1.078,0.631-1.472,1.891c-0.221,0.729-0.47,1.953-0.745,3.676h2.613l-0.164,0.785
		h-2.666l-2.242,7.656c-0.474,2.023-1.109,3.66-1.908,4.908s-1.819,1.873-3.063,1.873c-0.57,0-1.037-0.152-1.402-0.457
		c-0.365-0.305-0.547-0.645-0.547-1.02c0-0.234,0.076-0.453,0.229-0.656s0.381-0.305,0.686-0.305c0.266,0,0.49,0.088,0.674,0.264
		s0.275,0.393,0.275,0.65c0,0.141-0.041,0.283-0.123,0.428s-0.123,0.244-0.123,0.299c0,0.07,0.045,0.129,0.135,0.176
		s0.205,0.07,0.346,0.07c0.665,0,1.229-0.523,1.69-1.57c0.242-0.547,0.465-1.301,0.669-2.262l2.784-10.055h-2.168l0.164-0.785h2.27
		c0.427-1.82,0.907-3.168,1.439-4.043c0.791-1.344,1.768-2.016,2.93-2.016c0.532,0,0.975,0.152,1.328,0.457s0.53,0.652,0.53,1.043
		C249.826,325.473,249.74,325.707,249.568,325.926z"/>
</g>
<circle fill="#FFFFE1" stroke="#000000" cx="243" cy="378" r="18"/>
<g>
	<path d="M237.861,385.639c0.449-0.527,1.162-1.053,2.139-1.576c-0.195-0.125-0.355-0.256-0.48-0.393s-0.188-0.318-0.188-0.545
		c0-0.32,0.223-0.688,0.668-1.102c0.25-0.234,0.656-0.543,1.219-0.926c-0.5-0.188-0.93-0.453-1.289-0.797
		c-0.438-0.461-0.656-1.059-0.656-1.793c0-1.18,0.461-2.16,1.383-2.941s2.062-1.172,3.422-1.172c0.711,0,1.312,0.111,1.805,0.334
		s0.781,0.408,0.867,0.557h1.582v0.943h-1.195c0.047,0.172,0.082,0.328,0.105,0.469s0.035,0.339,0.035,0.596
		c0,1.266-0.49,2.26-1.471,2.986c-0.98,0.725-2.037,1.088-3.17,1.088c-0.117,0-0.227-0.006-0.328-0.018s-0.227-0.033-0.375-0.064
		c-0.117,0-0.277,0.113-0.48,0.34c-0.211,0.227-0.316,0.43-0.316,0.609c0,0.266,0.859,0.719,2.578,1.359
		c1.711,0.648,2.566,1.598,2.566,2.848c0,0.938-0.43,1.76-1.289,2.467s-2.156,1.061-3.891,1.061c-1.203,0-2.156-0.258-2.859-0.773
		s-1.055-1.145-1.055-1.887C237.188,386.723,237.412,386.166,237.861,385.639z M243.885,388.785c0.613-0.445,0.92-0.977,0.92-1.594
		c0-0.469-0.16-0.863-0.48-1.184c-0.172-0.172-0.449-0.355-0.832-0.551c-0.32-0.156-0.861-0.381-1.623-0.674
		s-1.201-0.439-1.318-0.439c-0.203,0-0.598,0.271-1.184,0.814s-0.879,1.158-0.879,1.846c0,1.039,0.449,1.754,1.348,2.145
		c0.469,0.203,1.047,0.305,1.734,0.305C242.5,389.453,243.271,389.23,243.885,388.785z M241.383,380.16
		c0.25,0.477,0.699,0.715,1.348,0.715c0.703,0,1.33-0.447,1.881-1.342s0.826-1.881,0.826-2.959c0-0.516-0.113-0.92-0.34-1.213
		s-0.566-0.439-1.02-0.439c-0.875,0-1.58,0.465-2.115,1.395s-0.803,1.824-0.803,2.684
		C241.16,379.484,241.234,379.871,241.383,380.16z"/>
</g>
<circle fill="#FFFFE1" stroke="#000000" cx="243" cy="423" r="18"/>
<g>
	<path d="M239.847,414.285c0.505-0.07,0.913-0.127,1.225-0.17s0.582-0.084,0.811-0.123c0.931-0.18,1.431-0.277,1.502-0.293
		c0.071-0.016,0.126-0.023,0.166-0.023c0.095,0.047,0.142,0.105,0.142,0.176l-2.904,10.465c0.97-1.453,1.762-2.516,2.378-3.188
		c1.077-1.156,2.066-1.734,2.967-1.734c0.37,0,0.726,0.119,1.069,0.357c0.344,0.238,0.516,0.666,0.516,1.283
		c0,0.148-0.02,0.34-0.059,0.574c-0.04,0.234-0.086,0.441-0.141,0.621l-1.555,5.613c-0.047,0.156-0.086,0.307-0.117,0.451
		s-0.047,0.275-0.047,0.393c0,0.133,0.031,0.232,0.094,0.299s0.152,0.1,0.27,0.1c0.242,0,0.527-0.168,0.855-0.504
		c0.204-0.211,0.583-0.672,1.137-1.383l0.305,0.281c-0.546,0.812-1.011,1.406-1.393,1.781c-0.679,0.664-1.362,0.996-2.048,0.996
		c-0.312,0-0.574-0.098-0.785-0.293c-0.21-0.195-0.316-0.477-0.316-0.844c0-0.102,0.006-0.197,0.018-0.287s0.033-0.189,0.064-0.299
		l1.768-6.867c0.016-0.062,0.029-0.127,0.041-0.193s0.018-0.135,0.018-0.205c0-0.195-0.058-0.348-0.175-0.457
		c-0.125-0.109-0.284-0.164-0.478-0.164c-0.521,0-1.177,0.42-1.969,1.26c-0.792,0.84-1.46,1.697-2.004,2.572
		c-0.373,0.617-0.654,1.199-0.845,1.746s-0.557,1.805-1.101,3.773h-1.822l3.937-14.215c0.023-0.102,0.039-0.188,0.047-0.258
		s0.012-0.137,0.012-0.199c0-0.336-0.109-0.537-0.328-0.604s-0.637-0.084-1.254-0.053V414.285z"/>
</g>
<g>
	<path d="M83.798,59.852c0.182,0.172,0.324,0.399,0.427,0.68l0.059,0.164l0.263-0.883c0.032-0.101,0.06-0.168,0.083-0.203
		c0.024-0.035,0.08-0.056,0.167-0.064l1.35-0.151c0.072,0,0.113,0.014,0.125,0.041s0.01,0.076-0.005,0.146
		c-0.034,0.102-0.059,0.182-0.076,0.24c-0.017,0.059-0.042,0.143-0.076,0.251l-1.16,4.194c-0.252,0.914-0.466,1.702-0.643,2.366
		c-0.289,1.199-0.434,1.884-0.434,2.055c0,0.109,0.029,0.189,0.088,0.24c0.059,0.05,0.131,0.076,0.217,0.076
		c0.07,0,0.148-0.023,0.234-0.07c0.086-0.047,0.191-0.117,0.314-0.211l0.209-0.164c0.066-0.055,0.14-0.119,0.222-0.193
		c0.083-0.074,0.181-0.166,0.296-0.275l0.765-0.75l0.281,0.246c-0.835,1.039-1.505,1.744-2.011,2.115s-0.987,0.557-1.445,0.557
		c-0.297,0-0.525-0.102-0.686-0.304c-0.161-0.203-0.241-0.456-0.241-0.76c0-0.28,0.053-0.684,0.158-1.21
		c0.105-0.526,0.209-0.968,0.311-1.327c-0.14,0.234-0.376,0.577-0.708,1.026c-0.332,0.449-0.739,0.885-1.223,1.308
		c-0.569,0.508-1.116,0.868-1.638,1.079c-0.406,0.141-0.796,0.211-1.17,0.211c-0.632,0-1.205-0.26-1.72-0.78
		c-0.515-0.52-0.772-1.257-0.772-2.211c0-1.642,0.742-3.355,2.227-5.138c1.532-1.854,3.12-2.78,4.762-2.78
		C82.977,59.371,83.458,59.531,83.798,59.852z M83.418,60.297c-0.261-0.266-0.577-0.399-0.948-0.399
		c-1.287,0-2.482,0.978-3.588,2.934c-0.971,1.721-1.457,3.203-1.457,4.447c0,0.626,0.134,1.082,0.403,1.367s0.602,0.428,1,0.428
		c1.177,0,2.311-0.95,3.402-2.852c1.051-1.729,1.577-3.289,1.577-4.682C83.809,60.978,83.678,60.563,83.418,60.297z"/>
</g>
<g>
	<path d="M133.137,55.949c0.047-0.172,0.08-0.326,0.1-0.463s0.029-0.252,0.029-0.346c0-0.102-0.025-0.201-0.076-0.299
		s-0.17-0.174-0.357-0.229c-0.055-0.016-0.146-0.027-0.275-0.035s-0.408-0.023-0.838-0.047v-0.41
		c0.251-0.039,0.524-0.074,0.819-0.105s0.693-0.086,1.196-0.164c0.055-0.008,0.292-0.059,0.713-0.152
		c0.42-0.094,0.721-0.141,0.901-0.141c0.039,0,0.076,0.016,0.112,0.047c0.035,0.031,0.053,0.078,0.053,0.141l-0.023,0.152
		l-2.393,8.859c0.699-1,1.293-1.727,1.783-2.18c0.854-0.789,1.736-1.184,2.645-1.184c0.854,0,1.54,0.283,2.056,0.85
		c0.517,0.566,0.775,1.268,0.775,2.104c0,1.945-0.848,3.766-2.543,5.461c-1.648,1.648-3.355,2.473-5.121,2.473
		c-0.804,0-1.542-0.18-2.214-0.539c-0.672-0.352-0.98-0.633-0.926-0.844L133.137,55.949z M136.693,67.035
		c1.082-1.617,1.623-3.098,1.623-4.441c0-0.609-0.16-1.096-0.479-1.459c-0.319-0.363-0.72-0.545-1.202-0.545
		c-1.238,0-2.421,1.109-3.549,3.328c-0.981,1.93-1.471,3.531-1.471,4.805c0,0.305,0.097,0.549,0.292,0.732
		c0.194,0.184,0.502,0.275,0.922,0.275C134.207,69.73,135.495,68.832,136.693,67.035z"/>
</g>
<g>
	<path d="M31.236,114.06c0.422,0.428,0.633,0.844,0.633,1.249c0,0.366-0.109,0.65-0.328,0.853c-0.219,0.202-0.477,0.303-0.773,0.303
		c-0.289,0-0.531-0.09-0.727-0.27s-0.293-0.402-0.293-0.668c0-0.203,0.064-0.422,0.193-0.656s0.193-0.387,0.193-0.457
		c0-0.141-0.08-0.26-0.24-0.357s-0.416-0.146-0.768-0.146c-1.258,0-2.35,0.716-3.275,2.147c-0.926,1.431-1.389,2.933-1.389,4.505
		c0,0.884,0.188,1.576,0.562,2.077s0.938,0.751,1.688,0.751c0.602,0,1.186-0.174,1.752-0.521s1.088-0.791,1.564-1.33l0.082-0.094
		l0.34,0.258c-0.547,0.695-1.074,1.23-1.582,1.605c-0.898,0.648-1.895,0.973-2.988,0.973c-1.047,0-1.895-0.334-2.543-1.002
		s-0.973-1.58-0.973-2.736c0-1.773,0.723-3.406,2.168-4.898c1.43-1.484,2.977-2.227,4.641-2.227
		C30.127,113.418,30.814,113.632,31.236,114.06z"/>
</g>
<g>
	<path d="M83.604,113.816c0.149,0.172,0.267,0.465,0.354,0.878l1.377-4.804c0.039-0.133,0.064-0.252,0.076-0.357
		s0.018-0.197,0.018-0.275c0-0.305-0.057-0.496-0.17-0.574s-0.275-0.117-0.486-0.117c-0.133,0-0.256,0.004-0.369,0.012
		s-0.264,0.02-0.451,0.035v-0.387c0.887-0.117,2.116-0.32,3.686-0.609l0.106,0.117l-0.024,0.129l-2.312,8.423l-1.575,5.571
		c-0.031,0.126-0.057,0.243-0.076,0.349c-0.02,0.107-0.029,0.203-0.029,0.29c0,0.213,0.052,0.351,0.158,0.414
		c0.105,0.063,0.197,0.095,0.276,0.095c0.229,0,0.553-0.2,0.972-0.601c0.245-0.244,0.581-0.621,1.007-1.131l0.27,0.258l-0.165,0.247
		c-0.291,0.431-0.665,0.87-1.121,1.317c-0.81,0.792-1.538,1.188-2.182,1.188c-0.212,0-0.405-0.047-0.578-0.141
		c-0.322-0.188-0.483-0.523-0.483-1.008c0-0.164,0.023-0.426,0.07-0.785c0.047-0.359,0.119-0.753,0.215-1.182
		c-0.594,0.906-1.246,1.647-1.953,2.225c-0.708,0.578-1.48,0.866-2.316,0.866c-0.68,0-1.274-0.242-1.783-0.726
		c-0.508-0.484-0.762-1.229-0.762-2.236c0-1.701,0.786-3.449,2.357-5.244c1.564-1.787,3.089-2.681,4.574-2.681
		C82.904,113.371,83.344,113.52,83.604,113.816z M77.766,122.519c0.219,0.355,0.59,0.532,1.114,0.532
		c1.118,0,2.193-0.897,3.226-2.692c0.994-1.685,1.491-3.281,1.491-4.787c0-0.476-0.079-0.87-0.236-1.182s-0.476-0.468-0.956-0.468
		c-1.196,0-2.352,0.96-3.469,2.879c-0.999,1.717-1.499,3.207-1.499,4.471C77.438,121.748,77.547,122.163,77.766,122.519z"/>
</g>
<g>
	<path d="M132.768,115.853c1.547-1.624,3.145-2.435,4.793-2.435c0.609,0,1.094,0.141,1.453,0.421
		c0.359,0.281,0.539,0.698,0.539,1.251c0,1.123-0.658,2.084-1.975,2.883c-1.316,0.799-2.701,1.289-4.154,1.468l-0.668,0.082
		c-0.102,0.32-0.172,0.576-0.211,0.768s-0.059,0.432-0.059,0.721c0,0.688,0.225,1.223,0.674,1.605s0.982,0.574,1.6,0.574
		c0.586,0,1.207-0.195,1.863-0.586c0.375-0.227,0.918-0.633,1.629-1.219l0.305,0.27c-0.352,0.445-0.855,0.902-1.512,1.371
		c-1.164,0.836-2.332,1.254-3.504,1.254c-0.828,0-1.555-0.292-2.18-0.878s-0.938-1.424-0.938-2.517
		C130.424,119.154,131.205,117.476,132.768,115.853z M136.564,117.424c0.938-0.83,1.406-1.654,1.406-2.473
		c0-0.296-0.07-0.532-0.211-0.708s-0.348-0.263-0.621-0.263c-0.508,0-1.006,0.216-1.494,0.649s-0.928,0.921-1.318,1.467
		c-0.414,0.639-0.742,1.251-0.984,1.835c-0.133,0.312-0.273,0.667-0.422,1.064C134.412,118.778,135.627,118.254,136.564,117.424z"/>
</g>
<g>
	<path d="M33.568,163.926c-0.172,0.219-0.41,0.328-0.715,0.328c-0.266,0-0.484-0.084-0.656-0.253s-0.258-0.367-0.258-0.595
		c0-0.157,0.074-0.428,0.223-0.813c0-0.102-0.051-0.192-0.152-0.271c-0.089-0.071-0.196-0.106-0.321-0.106
		c-0.587,0-1.078,0.63-1.472,1.891c-0.221,0.728-0.47,1.954-0.745,3.676h2.613l-0.164,0.785h-2.666l-2.242,7.656
		c-0.474,2.024-1.109,3.66-1.908,4.909s-1.819,1.873-3.063,1.873c-0.57,0-1.037-0.152-1.402-0.457
		c-0.365-0.305-0.547-0.645-0.547-1.02c0-0.234,0.076-0.453,0.229-0.656s0.381-0.305,0.686-0.305c0.266,0,0.49,0.088,0.674,0.264
		s0.275,0.393,0.275,0.65c0,0.141-0.041,0.283-0.123,0.428s-0.123,0.244-0.123,0.299c0,0.07,0.045,0.129,0.135,0.176
		s0.205,0.07,0.346,0.07c0.665,0,1.229-0.523,1.69-1.57c0.242-0.547,0.465-1.301,0.669-2.262l2.784-10.055h-2.168l0.164-0.785h2.27
		c0.427-1.82,0.907-3.168,1.439-4.043c0.791-1.344,1.768-2.016,2.93-2.016c0.532,0,0.975,0.152,1.328,0.457s0.53,0.652,0.53,1.043
		C33.826,163.473,33.74,163.707,33.568,163.926z"/>
</g>
<g>
	<path d="M75.861,178.639c0.449-0.527,1.162-1.053,2.139-1.576c-0.195-0.125-0.355-0.256-0.48-0.393s-0.188-0.318-0.188-0.545
		c0-0.32,0.223-0.688,0.668-1.102c0.25-0.234,0.656-0.543,1.219-0.926c-0.5-0.188-0.93-0.453-1.289-0.797
		c-0.438-0.461-0.656-1.059-0.656-1.793c0-1.18,0.461-2.16,1.383-2.941s2.062-1.172,3.422-1.172c0.711,0,1.312,0.111,1.805,0.334
		s0.781,0.408,0.867,0.557h1.582v0.943h-1.195c0.047,0.172,0.082,0.328,0.105,0.468s0.035,0.339,0.035,0.597
		c0,1.265-0.49,2.259-1.471,2.985c-0.98,0.726-2.037,1.088-3.17,1.088c-0.117,0-0.227-0.006-0.328-0.018s-0.227-0.033-0.375-0.064
		c-0.117,0-0.277,0.113-0.48,0.34c-0.211,0.227-0.316,0.43-0.316,0.609c0,0.266,0.859,0.719,2.578,1.359
		c1.711,0.648,2.566,1.598,2.566,2.848c0,0.938-0.43,1.76-1.289,2.467s-2.156,1.061-3.891,1.061c-1.203,0-2.156-0.258-2.859-0.773
		s-1.055-1.145-1.055-1.887C75.188,179.723,75.412,179.166,75.861,178.639z M81.885,181.785c0.613-0.445,0.92-0.977,0.92-1.594
		c0-0.469-0.16-0.863-0.48-1.184c-0.172-0.172-0.449-0.355-0.832-0.551c-0.32-0.156-0.861-0.381-1.623-0.674
		s-1.201-0.439-1.318-0.439c-0.203,0-0.598,0.271-1.184,0.814s-0.879,1.158-0.879,1.846c0,1.039,0.449,1.754,1.348,2.145
		c0.469,0.203,1.047,0.305,1.734,0.305C80.5,182.453,81.271,182.23,81.885,181.785z M79.383,173.16
		c0.25,0.477,0.699,0.715,1.348,0.715c0.703,0,1.33-0.447,1.881-1.342s0.826-1.881,0.826-2.959c0-0.516-0.113-0.92-0.34-1.213
		s-0.566-0.439-1.02-0.439c-0.875,0-1.58,0.465-2.115,1.395S79.16,171.141,79.16,172C79.16,172.484,79.234,172.871,79.383,173.16z"
		/>
</g>
<g>
	<path d="M131.847,162.285c0.505-0.07,0.913-0.127,1.225-0.17s0.582-0.084,0.811-0.123c0.931-0.18,1.431-0.277,1.502-0.293
		c0.071-0.016,0.126-0.023,0.166-0.023c0.095,0.047,0.142,0.105,0.142,0.176l-2.904,10.465c0.97-1.453,1.762-2.516,2.378-3.188
		c1.077-1.156,2.066-1.734,2.967-1.734c0.37,0,0.726,0.119,1.069,0.357c0.344,0.238,0.516,0.666,0.516,1.283
		c0,0.148-0.02,0.34-0.059,0.574c-0.04,0.234-0.086,0.441-0.141,0.621l-1.555,5.613c-0.047,0.156-0.086,0.307-0.117,0.451
		s-0.047,0.275-0.047,0.393c0,0.133,0.031,0.232,0.094,0.299s0.152,0.1,0.27,0.1c0.242,0,0.527-0.168,0.855-0.504
		c0.204-0.211,0.583-0.672,1.137-1.383l0.305,0.281c-0.546,0.812-1.011,1.406-1.393,1.781c-0.679,0.664-1.362,0.996-2.048,0.996
		c-0.312,0-0.574-0.098-0.785-0.293c-0.21-0.195-0.316-0.477-0.316-0.844c0-0.102,0.006-0.197,0.018-0.287s0.033-0.189,0.064-0.299
		l1.768-6.867c0.016-0.062,0.029-0.127,0.041-0.193s0.018-0.135,0.018-0.205c0-0.195-0.058-0.348-0.175-0.457
		c-0.125-0.109-0.284-0.164-0.478-0.164c-0.521,0-1.177,0.42-1.969,1.26c-0.792,0.84-1.46,1.697-2.004,2.572
		c-0.373,0.617-0.654,1.199-0.845,1.746s-0.557,1.805-1.101,3.773h-1.822l3.937-14.215c0.023-0.102,0.039-0.188,0.047-0.258
		s0.012-0.137,0.012-0.199c0-0.336-0.109-0.537-0.328-0.604s-0.637-0.084-1.254-0.053V162.285z"/>
</g>
<g>
	<path d="M56.801,24.672c0.836-0.078,1.363-0.221,1.582-0.428s0.328-0.768,0.328-1.682v-5.59c0-0.508-0.035-0.859-0.105-1.055
		c-0.117-0.32-0.363-0.48-0.738-0.48c-0.086,0-0.17,0.008-0.252,0.023s-0.318,0.078-0.709,0.188v-0.363l0.504-0.164
		c1.367-0.445,2.32-0.781,2.859-1.008c0.219-0.094,0.359-0.141,0.422-0.141c0.016,0.055,0.023,0.113,0.023,0.176v8.414
		c0,0.891,0.107,1.449,0.322,1.676s0.701,0.371,1.459,0.434V25h-5.695V24.672z M58.664,9.002c0.234-0.241,0.523-0.362,0.867-0.362
		c0.336,0,0.623,0.119,0.861,0.356c0.238,0.237,0.357,0.527,0.357,0.869c0,0.334-0.119,0.62-0.357,0.857
		c-0.238,0.237-0.525,0.355-0.861,0.355c-0.344,0-0.633-0.119-0.867-0.355c-0.234-0.237-0.352-0.523-0.352-0.857
		S58.43,9.243,58.664,9.002z"/>
	<path d="M63.434,24.672c0.555-0.07,0.943-0.209,1.166-0.416s0.334-0.67,0.334-1.389v-5.953c0-0.496-0.047-0.845-0.141-1.046
		c-0.148-0.294-0.453-0.442-0.914-0.442c-0.07,0-0.143,0.004-0.217,0.012s-0.166,0.02-0.275,0.035v-0.41
		c0.32-0.094,1.078-0.336,2.273-0.727l1.102-0.363c0.055,0,0.088,0.02,0.1,0.059s0.018,0.094,0.018,0.164v1.723
		c0.717-0.672,1.279-1.133,1.685-1.383c0.608-0.383,1.24-0.574,1.895-0.574c0.53,0,1.014,0.152,1.451,0.457
		c0.842,0.594,1.263,1.652,1.263,3.176v5.473c0,0.562,0.112,0.969,0.337,1.219c0.225,0.25,0.601,0.379,1.128,0.387V25h-5.004v-0.328
		c0.57-0.078,0.969-0.236,1.195-0.475s0.34-0.756,0.34-1.553v-5.004c0-0.672-0.125-1.229-0.373-1.67s-0.707-0.662-1.375-0.662
		c-0.458,0-0.924,0.156-1.398,0.469c-0.264,0.18-0.606,0.477-1.025,0.891v6.562c0,0.562,0.125,0.939,0.375,1.131
		s0.645,0.295,1.184,0.311V25h-5.121V24.672z"/>
	<path d="M75.117,29.84c0.729-0.047,1.193-0.203,1.391-0.469s0.297-0.684,0.297-1.254v-11.25c0-0.594-0.072-0.975-0.217-1.143
		s-0.416-0.252-0.814-0.252c-0.086,0-0.166,0.004-0.24,0.012s-0.182,0.023-0.322,0.047v-0.387l1.113-0.363
		c0.039-0.008,0.824-0.277,2.355-0.809c0.039,0,0.068,0.018,0.088,0.053s0.029,0.076,0.029,0.123v1.582
		c0.516-0.516,0.969-0.898,1.359-1.148c0.703-0.438,1.426-0.656,2.168-0.656c1.078,0,2.006,0.458,2.783,1.375
		s1.166,2.171,1.166,3.764c0,1.561-0.467,2.978-1.4,4.25c-0.934,1.272-2.107,1.908-3.521,1.908c-0.438,0-0.816-0.055-1.137-0.164
		c-0.5-0.164-0.961-0.464-1.383-0.902V28c0,0.789,0.129,1.273,0.387,1.453s0.82,0.301,1.688,0.363v0.41h-5.789V29.84z M79.74,24.022
		c0.402,0.262,0.877,0.392,1.424,0.392c0.844,0,1.564-0.419,2.162-1.258c0.598-0.838,0.896-2.007,0.896-3.505
		c0-1.436-0.311-2.508-0.932-3.219c-0.621-0.71-1.342-1.065-2.162-1.065c-0.578,0-1.105,0.178-1.582,0.532
		c-0.477,0.355-0.715,0.705-0.715,1.048v5.887C79.035,23.365,79.338,23.761,79.74,24.022z"/>
	<path d="M90.715,14.148v7.5c0,0.531,0.074,0.957,0.223,1.277c0.289,0.594,0.82,0.891,1.594,0.891c0.531,0,1.051-0.176,1.559-0.527
		c0.289-0.195,0.582-0.465,0.879-0.809v-6.422c0-0.602-0.117-0.996-0.352-1.184s-0.703-0.301-1.406-0.34v-0.387h3.785v8.25
		c0,0.531,0.096,0.896,0.287,1.096s0.596,0.287,1.213,0.264v0.328c-0.43,0.117-0.746,0.205-0.949,0.264s-0.543,0.166-1.02,0.322
		c-0.203,0.07-0.648,0.238-1.336,0.504c-0.039,0-0.062-0.018-0.07-0.053S95.109,25.047,95.109,25v-1.887
		c-0.531,0.633-1.016,1.102-1.453,1.406c-0.664,0.469-1.367,0.703-2.109,0.703c-0.68,0-1.32-0.242-1.922-0.728
		c-0.609-0.477-0.914-1.279-0.914-2.405V16c0-0.62-0.133-1.035-0.398-1.244c-0.172-0.132-0.539-0.225-1.102-0.279v-0.328H90.715z"/>
	<path d="M105.105,14.195v0.844h-2.391l-0.023,6.75c0,0.594,0.051,1.043,0.152,1.348c0.188,0.539,0.555,0.809,1.102,0.809
		c0.281,0,0.525-0.066,0.732-0.199s0.443-0.344,0.709-0.633l0.305,0.258l-0.258,0.352c-0.406,0.547-0.836,0.934-1.289,1.16
		s-0.891,0.34-1.312,0.34c-0.922,0-1.547-0.41-1.875-1.23c-0.18-0.445-0.27-1.062-0.27-1.852v-7.102H99.41
		c-0.039-0.023-0.068-0.047-0.088-0.07s-0.029-0.055-0.029-0.094c0-0.078,0.018-0.139,0.053-0.182s0.146-0.143,0.334-0.299
		c0.539-0.445,0.928-0.807,1.166-1.084s0.799-1.01,1.682-2.197c0.102,0,0.162,0.008,0.182,0.023s0.029,0.074,0.029,0.176v2.883
		H105.105z"/>
</g>
<g>
	<path d="M235.588,14.301c0.312,0.164,0.613,0.391,0.902,0.68v-3.727c0-0.477-0.053-0.805-0.158-0.984S235.975,10,235.576,10
		c-0.094,0-0.176,0.004-0.246,0.012s-0.227,0.023-0.469,0.047V9.672l0.961-0.246c0.352-0.094,0.703-0.191,1.055-0.293
		s0.66-0.199,0.926-0.293c0.125-0.039,0.332-0.113,0.621-0.223l0.07,0.023l-0.023,1.23c-0.008,0.445-0.016,0.904-0.023,1.377
		s-0.012,0.939-0.012,1.4l-0.023,9.574c0,0.508,0.062,0.863,0.188,1.066s0.457,0.305,0.996,0.305c0.086,0,0.172-0.002,0.258-0.006
		s0.172-0.014,0.258-0.029v0.387c-0.047,0.016-0.613,0.211-1.699,0.586l-1.84,0.691l-0.082-0.105v-1.441
		c-0.438,0.477-0.816,0.816-1.137,1.02c-0.57,0.352-1.23,0.527-1.98,0.527c-1.328,0-2.404-0.514-3.229-1.541
		s-1.236-2.217-1.236-3.568c0-1.695,0.494-3.15,1.482-4.365s2.197-1.822,3.627-1.822C234.588,13.926,235.111,14.051,235.588,14.301z
		 M235.928,23.418c0.375-0.359,0.562-0.699,0.562-1.02v-5.027c0-1.016-0.271-1.732-0.814-2.15s-1.072-0.627-1.588-0.627
		c-0.984,0-1.75,0.436-2.297,1.307s-0.82,1.943-0.82,3.217c0,1.258,0.291,2.379,0.873,3.363s1.451,1.477,2.607,1.477
		C235.061,23.957,235.553,23.777,235.928,23.418z"/>
	<path d="M240.803,24.672c0.828-0.039,1.373-0.193,1.635-0.463s0.393-0.838,0.393-1.705V14.98h-2.004v-0.785h2.004
		c0-1.234,0.168-2.277,0.505-3.129c0.642-1.633,1.819-2.449,3.534-2.449c0.688,0,1.305,0.137,1.849,0.41s0.816,0.641,0.816,1.102
		c0,0.258-0.093,0.488-0.28,0.691c-0.187,0.203-0.412,0.305-0.676,0.305c-0.226,0-0.42-0.068-0.583-0.205
		c-0.164-0.137-0.358-0.377-0.583-0.721l-0.198-0.305c-0.109-0.164-0.237-0.303-0.385-0.416c-0.148-0.113-0.354-0.17-0.618-0.17
		c-0.591,0-0.991,0.293-1.201,0.879c-0.117,0.312-0.175,0.723-0.175,1.23v2.777h2.918v0.785h-2.918v7.523
		c0,0.883,0.119,1.447,0.357,1.693s0.861,0.404,1.869,0.475V25h-6.258V24.672z"/>
	<path d="M249.58,21.309h0.387c0.179,0.891,0.421,1.574,0.725,2.051c0.545,0.875,1.344,1.312,2.396,1.312
		c0.584,0,1.046-0.162,1.385-0.486c0.339-0.324,0.509-0.744,0.509-1.26c0-0.328-0.098-0.645-0.293-0.949s-0.539-0.602-1.031-0.891
		l-1.312-0.75c-0.96-0.516-1.668-1.035-2.121-1.559c-0.454-0.523-0.68-1.141-0.68-1.852c0-0.875,0.312-1.594,0.938-2.156
		s1.41-0.844,2.355-0.844c0.414,0,0.869,0.078,1.365,0.234s0.775,0.234,0.838,0.234c0.141,0,0.242-0.02,0.305-0.059
		s0.117-0.102,0.164-0.188h0.281l0.082,3.27h-0.363c-0.156-0.758-0.367-1.348-0.633-1.77c-0.484-0.781-1.184-1.172-2.098-1.172
		c-0.547,0-0.977,0.168-1.289,0.504s-0.469,0.73-0.469,1.184c0,0.719,0.539,1.359,1.617,1.922l1.547,0.832
		c1.664,0.906,2.496,1.961,2.496,3.164c0,0.922-0.345,1.676-1.036,2.262c-0.69,0.586-1.593,0.879-2.708,0.879
		c-0.468,0-0.998-0.078-1.591-0.234s-0.944-0.234-1.053-0.234c-0.094,0-0.175,0.033-0.246,0.1s-0.125,0.146-0.164,0.24h-0.305
		V21.309z"/>
</g>
<g>
	<path d="M399.416,10.094V9.695c0.894-0.203,1.697-0.43,2.41-0.68s1.098-0.375,1.152-0.375c0.016,0.047,0.023,0.094,0.023,0.141
		v7.136c0.203-0.375,0.507-0.73,0.912-1.066c0.719-0.586,1.545-0.879,2.48-0.879c1.146,0,2.126,0.484,2.938,1.453
		c0.811,0.969,1.217,2.227,1.217,3.773c0,1.656-0.527,3.074-1.582,4.254s-2.441,1.77-4.16,1.77c-0.867,0-1.719-0.172-2.555-0.516
		s-1.254-0.688-1.254-1.031V11.289c0-0.453-0.062-0.775-0.188-0.967s-0.414-0.287-0.867-0.287L399.416,10.094z M403.877,24.151
		c0.537,0.175,1.008,0.263,1.412,0.263c1.089,0,1.896-0.41,2.422-1.229c0.524-0.819,0.787-1.81,0.787-2.973
		c0-1.162-0.245-2.237-0.735-3.224c-0.49-0.987-1.284-1.48-2.38-1.48c-0.553,0-1.094,0.17-1.623,0.509
		c-0.528,0.339-0.793,0.771-0.793,1.293v5.969C403.037,23.685,403.34,23.976,403.877,24.151z"/>
	<path d="M411.803,24.672c0.828-0.039,1.373-0.193,1.635-0.463s0.393-0.838,0.393-1.705V14.98h-2.004v-0.785h2.004
		c0-1.234,0.168-2.277,0.505-3.129c0.642-1.633,1.819-2.449,3.534-2.449c0.688,0,1.305,0.137,1.848,0.41
		c0.545,0.273,0.816,0.641,0.816,1.102c0,0.258-0.094,0.488-0.279,0.691c-0.188,0.203-0.412,0.305-0.677,0.305
		c-0.226,0-0.42-0.068-0.583-0.205c-0.164-0.137-0.357-0.377-0.583-0.721l-0.198-0.305c-0.109-0.164-0.237-0.303-0.385-0.416
		c-0.148-0.113-0.354-0.17-0.618-0.17c-0.591,0-0.991,0.293-1.201,0.879c-0.116,0.312-0.175,0.723-0.175,1.23v2.777h2.918v0.785
		h-2.918v7.523c0,0.883,0.119,1.447,0.357,1.693s0.861,0.404,1.869,0.475V25h-6.258V24.672z"/>
	<path d="M420.58,21.309h0.387c0.18,0.891,0.421,1.574,0.725,2.051c0.546,0.875,1.345,1.312,2.396,1.312
		c0.585,0,1.047-0.162,1.386-0.486s0.509-0.744,0.509-1.26c0-0.328-0.098-0.645-0.293-0.949s-0.539-0.602-1.031-0.891l-1.312-0.75
		c-0.96-0.516-1.668-1.035-2.121-1.559s-0.68-1.141-0.68-1.852c0-0.875,0.312-1.594,0.938-2.156s1.41-0.844,2.355-0.844
		c0.414,0,0.869,0.078,1.365,0.234s0.775,0.234,0.838,0.234c0.141,0,0.242-0.02,0.305-0.059s0.117-0.102,0.164-0.188h0.281
		l0.082,3.27h-0.363c-0.156-0.758-0.367-1.348-0.633-1.77c-0.484-0.781-1.184-1.172-2.098-1.172c-0.547,0-0.977,0.168-1.289,0.504
		s-0.469,0.73-0.469,1.184c0,0.719,0.539,1.359,1.617,1.922l1.547,0.832c1.664,0.906,2.496,1.961,2.496,3.164
		c0,0.922-0.346,1.676-1.035,2.262c-0.69,0.586-1.594,0.879-2.709,0.879c-0.467,0-0.998-0.078-1.59-0.234
		c-0.594-0.156-0.944-0.234-1.054-0.234c-0.094,0-0.175,0.033-0.245,0.1s-0.125,0.146-0.164,0.24h-0.305V21.309z"/>
</g>
<g>
	<path d="M553.289,21.309h0.387c0.18,0.891,0.421,1.574,0.725,2.051c0.546,0.875,1.345,1.312,2.396,1.312
		c0.585,0,1.047-0.162,1.386-0.486s0.509-0.744,0.509-1.26c0-0.328-0.098-0.645-0.293-0.949s-0.539-0.602-1.031-0.891l-1.312-0.75
		c-0.96-0.516-1.668-1.035-2.121-1.559s-0.68-1.141-0.68-1.852c0-0.875,0.312-1.594,0.938-2.156s1.41-0.844,2.355-0.844
		c0.414,0,0.869,0.078,1.365,0.234s0.775,0.234,0.838,0.234c0.141,0,0.242-0.02,0.305-0.059s0.117-0.102,0.164-0.188h0.281
		l0.082,3.27h-0.363c-0.156-0.758-0.367-1.348-0.633-1.77c-0.484-0.781-1.184-1.172-2.098-1.172c-0.547,0-0.977,0.168-1.289,0.504
		s-0.469,0.73-0.469,1.184c0,0.719,0.539,1.359,1.617,1.922l1.547,0.832c1.664,0.906,2.496,1.961,2.496,3.164
		c0,0.922-0.346,1.676-1.035,2.262c-0.69,0.586-1.594,0.879-2.709,0.879c-0.467,0-0.998-0.078-1.59-0.234
		c-0.594-0.156-0.944-0.234-1.054-0.234c-0.094,0-0.175,0.033-0.245,0.1s-0.125,0.146-0.164,0.24h-0.305V21.309z"/>
	<path d="M567.48,14.195v0.844h-2.391l-0.023,6.75c0,0.594,0.051,1.043,0.152,1.348c0.188,0.539,0.555,0.809,1.102,0.809
		c0.281,0,0.525-0.066,0.732-0.199s0.443-0.344,0.709-0.633l0.305,0.258l-0.258,0.352c-0.406,0.547-0.836,0.934-1.289,1.16
		s-0.891,0.34-1.312,0.34c-0.922,0-1.547-0.41-1.875-1.23c-0.18-0.445-0.27-1.062-0.27-1.852v-7.102h-1.277
		c-0.039-0.023-0.068-0.047-0.088-0.07s-0.029-0.055-0.029-0.094c0-0.078,0.018-0.139,0.053-0.182s0.146-0.143,0.334-0.299
		c0.539-0.445,0.928-0.807,1.166-1.084s0.799-1.01,1.682-2.197c0.102,0,0.162,0.008,0.182,0.023s0.029,0.074,0.029,0.176v2.883
		H567.48z"/>
	<path d="M570.621,19.832c0.719-0.469,2.152-1.105,4.301-1.91v-0.996c0-0.797-0.078-1.352-0.234-1.664
		c-0.266-0.523-0.816-0.785-1.652-0.785c-0.398,0-0.777,0.102-1.137,0.305c-0.359,0.211-0.539,0.5-0.539,0.867
		c0,0.094,0.02,0.252,0.059,0.475s0.059,0.365,0.059,0.428c0,0.438-0.145,0.742-0.434,0.914c-0.164,0.102-0.359,0.152-0.586,0.152
		c-0.352,0-0.621-0.115-0.809-0.346s-0.281-0.486-0.281-0.768c0-0.547,0.338-1.119,1.014-1.717s1.666-0.896,2.971-0.896
		c1.516,0,2.543,0.492,3.082,1.477c0.289,0.539,0.434,1.324,0.434,2.355v4.699c0,0.453,0.031,0.766,0.094,0.938
		c0.102,0.305,0.312,0.457,0.633,0.457c0.18,0,0.328-0.027,0.445-0.082s0.32-0.188,0.609-0.398v0.609
		c-0.25,0.305-0.52,0.555-0.809,0.75c-0.438,0.297-0.883,0.445-1.336,0.445c-0.531,0-0.916-0.172-1.154-0.516
		s-0.369-0.754-0.393-1.23c-0.594,0.516-1.102,0.898-1.523,1.148c-0.711,0.422-1.387,0.633-2.027,0.633
		c-0.672,0-1.254-0.236-1.746-0.709s-0.738-1.072-0.738-1.799C568.922,21.535,569.488,20.59,570.621,19.832z M574.922,18.508
		c-0.898,0.297-1.641,0.625-2.227,0.984c-1.125,0.695-1.688,1.484-1.688,2.367c0,0.711,0.234,1.234,0.703,1.57
		c0.305,0.219,0.645,0.328,1.02,0.328c0.516,0,1.01-0.145,1.482-0.434s0.709-0.656,0.709-1.102V18.508z"/>
	<path d="M587.186,14.703c0.707,0.502,1.061,1.053,1.061,1.652c0,0.257-0.09,0.497-0.27,0.718c-0.18,0.222-0.457,0.333-0.832,0.333
		c-0.273,0-0.514-0.094-0.721-0.281s-0.357-0.461-0.451-0.82l-0.141-0.562c-0.102-0.414-0.277-0.707-0.527-0.879
		c-0.258-0.164-0.598-0.246-1.02-0.246c-0.891,0-1.643,0.389-2.256,1.167c-0.613,0.779-0.92,1.813-0.92,3.104
		c0,1.181,0.338,2.241,1.014,3.18c0.676,0.939,1.588,1.408,2.736,1.408c0.812,0,1.535-0.266,2.168-0.798
		c0.359-0.305,0.766-0.791,1.219-1.456l0.328,0.2c-0.445,0.938-0.914,1.681-1.406,2.229c-0.945,1.048-2.039,1.572-3.281,1.572
		c-1.219,0-2.297-0.48-3.234-1.441s-1.406-2.266-1.406-3.914c0-1.617,0.512-3.008,1.535-4.172s2.316-1.746,3.879-1.746
		C585.637,13.949,586.479,14.2,587.186,14.703z"/>
	<path d="M589.395,24.695c0.75-0.055,1.244-0.18,1.482-0.375c0.238-0.196,0.357-0.619,0.357-1.268V11.289
		c0-0.555-0.094-0.906-0.281-1.055s-0.457-0.223-0.809-0.223c-0.148,0-0.277,0.004-0.387,0.012s-0.23,0.02-0.363,0.035V9.73
		l1.055-0.281c0.805-0.211,1.488-0.41,2.051-0.598c0.344-0.117,0.543-0.176,0.598-0.176c0.047,0,0.076,0.01,0.088,0.029
		s0.018,0.064,0.018,0.135v9.855l3.246-2.859c0.234-0.211,0.393-0.379,0.475-0.504s0.123-0.234,0.123-0.328
		c0-0.18-0.088-0.293-0.264-0.34s-0.49-0.082-0.943-0.105V14.23h4.887v0.328c-0.873,0.055-1.574,0.229-2.105,0.524
		c-0.529,0.294-1.547,1.136-3.052,2.525l-0.702,0.619l2.149,2.829c1.114,1.431,1.954,2.382,2.519,2.853
		c0.564,0.47,1.165,0.733,1.801,0.787V25h-5.215v-0.305l0.41-0.024c0.133-0.008,0.254-0.036,0.363-0.084s0.164-0.128,0.164-0.241
		c0-0.088-0.02-0.17-0.059-0.247s-0.094-0.163-0.164-0.259l-3.633-4.781v4.373c0,0.543,0.199,0.906,0.598,1.087
		c0.234,0.11,0.637,0.169,1.207,0.177V25h-5.613V24.695z"/>
	<path d="M613.453,14.195v0.844h-2.391l-0.023,6.75c0,0.594,0.051,1.043,0.152,1.348c0.188,0.539,0.555,0.809,1.102,0.809
		c0.281,0,0.525-0.066,0.732-0.199s0.443-0.344,0.709-0.633l0.305,0.258l-0.258,0.352c-0.406,0.547-0.836,0.934-1.289,1.16
		s-0.891,0.34-1.312,0.34c-0.922,0-1.547-0.41-1.875-1.23c-0.18-0.445-0.27-1.062-0.27-1.852v-7.102h-1.277
		c-0.039-0.023-0.068-0.047-0.088-0.07s-0.029-0.055-0.029-0.094c0-0.078,0.018-0.139,0.053-0.182s0.146-0.143,0.334-0.299
		c0.539-0.445,0.928-0.807,1.166-1.084s0.799-1.01,1.682-2.197c0.102,0,0.162,0.008,0.182,0.023s0.029,0.074,0.029,0.176v2.883
		H613.453z"/>
	<path d="M614.121,24.613c0.719-0.062,1.195-0.189,1.43-0.381s0.352-0.6,0.352-1.225v-5.285c0-0.773-0.072-1.326-0.217-1.658
		s-0.408-0.498-0.791-0.498c-0.078,0-0.182,0.01-0.311,0.029s-0.264,0.045-0.404,0.076v-0.387c0.443-0.156,0.899-0.316,1.367-0.48
		c0.467-0.164,0.79-0.281,0.969-0.352c0.39-0.148,0.791-0.316,1.203-0.504c0.055,0,0.088,0.02,0.1,0.059s0.018,0.121,0.018,0.246
		v1.922c0.502-0.695,0.984-1.238,1.451-1.629s0.949-0.586,1.451-0.586c0.4,0,0.725,0.119,0.976,0.357s0.376,0.537,0.376,0.896
		c0,0.32-0.096,0.59-0.287,0.809s-0.432,0.328-0.721,0.328c-0.297,0-0.596-0.137-0.896-0.41s-0.537-0.41-0.709-0.41
		c-0.273,0-0.609,0.221-1.008,0.662s-0.598,0.896-0.598,1.365v5.285c0,0.672,0.156,1.139,0.469,1.4s0.832,0.385,1.559,0.369V25
		h-5.777V24.613z"/>
	<path d="M624.586,19.832c0.719-0.469,2.152-1.105,4.301-1.91v-0.996c0-0.797-0.078-1.352-0.234-1.664
		c-0.266-0.523-0.816-0.785-1.652-0.785c-0.398,0-0.777,0.102-1.137,0.305c-0.359,0.211-0.539,0.5-0.539,0.867
		c0,0.094,0.02,0.252,0.059,0.475s0.059,0.365,0.059,0.428c0,0.438-0.145,0.742-0.434,0.914c-0.164,0.102-0.359,0.152-0.586,0.152
		c-0.352,0-0.621-0.115-0.809-0.346s-0.281-0.486-0.281-0.768c0-0.547,0.338-1.119,1.014-1.717s1.666-0.896,2.971-0.896
		c1.516,0,2.543,0.492,3.082,1.477c0.289,0.539,0.434,1.324,0.434,2.355v4.699c0,0.453,0.031,0.766,0.094,0.938
		c0.102,0.305,0.312,0.457,0.633,0.457c0.18,0,0.328-0.027,0.445-0.082s0.32-0.188,0.609-0.398v0.609
		c-0.25,0.305-0.52,0.555-0.809,0.75c-0.438,0.297-0.883,0.445-1.336,0.445c-0.531,0-0.916-0.172-1.154-0.516
		s-0.369-0.754-0.393-1.23c-0.594,0.516-1.102,0.898-1.523,1.148c-0.711,0.422-1.387,0.633-2.027,0.633
		c-0.672,0-1.254-0.236-1.746-0.709s-0.738-1.072-0.738-1.799C622.887,21.535,623.453,20.59,624.586,19.832z M628.887,18.508
		c-0.898,0.297-1.641,0.625-2.227,0.984c-1.125,0.695-1.688,1.484-1.688,2.367c0,0.711,0.234,1.234,0.703,1.57
		c0.305,0.219,0.645,0.328,1.02,0.328c0.516,0,1.01-0.145,1.482-0.434s0.709-0.656,0.709-1.102V18.508z"/>
	<path d="M637.816,14.113v0.363c-0.406,0.047-0.693,0.109-0.861,0.188s-0.252,0.25-0.252,0.516c0,0.125,0.018,0.244,0.053,0.357
		s0.096,0.279,0.182,0.498l2.461,5.888l2.086-5.196c0.102-0.258,0.197-0.527,0.287-0.809s0.135-0.496,0.135-0.645
		c0-0.305-0.145-0.523-0.434-0.656c-0.172-0.07-0.406-0.117-0.703-0.141v-0.363h3.328v0.363c-0.383,0.031-0.658,0.158-0.826,0.381
		s-0.412,0.736-0.732,1.541l-3.387,8.438c-0.062,0.148-0.113,0.25-0.152,0.305s-0.094,0.082-0.164,0.082
		c-0.078,0-0.145-0.045-0.199-0.135s-0.113-0.201-0.176-0.334l-3.586-8.578c-0.289-0.695-0.598-1.168-0.926-1.418
		c-0.195-0.141-0.48-0.234-0.855-0.281v-0.363H637.816z"/>
	<path d="M653.051,15.15c0.828,0.762,1.242,1.842,1.242,3.24h-7.441c0.078,1.809,0.488,3.126,1.23,3.952s1.621,1.239,2.637,1.239
		c0.82,0,1.512-0.214,2.074-0.643s1.082-1.037,1.559-1.824l0.41,0.141c-0.32,0.994-0.92,1.913-1.799,2.758s-1.955,1.268-3.229,1.268
		c-1.469,0-2.604-0.555-3.404-1.664s-1.201-2.387-1.201-3.832c0-1.57,0.465-2.926,1.395-4.066s2.141-1.711,3.633-1.711
		C651.258,14.008,652.223,14.389,653.051,15.15z M647.438,16.047c-0.25,0.422-0.43,0.953-0.539,1.594h4.945
		c-0.086-0.781-0.234-1.363-0.445-1.746c-0.383-0.688-1.023-1.031-1.922-1.031C648.586,14.863,647.906,15.258,647.438,16.047z"/>
	<path d="M655.418,24.613c0.719-0.062,1.195-0.189,1.43-0.381s0.352-0.6,0.352-1.225v-5.285c0-0.773-0.072-1.326-0.217-1.658
		s-0.408-0.498-0.791-0.498c-0.078,0-0.182,0.01-0.311,0.029s-0.264,0.045-0.404,0.076v-0.387c0.443-0.156,0.899-0.316,1.367-0.48
		c0.467-0.164,0.79-0.281,0.969-0.352c0.39-0.148,0.791-0.316,1.203-0.504c0.055,0,0.088,0.02,0.1,0.059s0.018,0.121,0.018,0.246
		v1.922c0.502-0.695,0.984-1.238,1.451-1.629s0.949-0.586,1.451-0.586c0.4,0,0.725,0.119,0.976,0.357s0.376,0.537,0.376,0.896
		c0,0.32-0.096,0.59-0.287,0.809s-0.432,0.328-0.721,0.328c-0.297,0-0.596-0.137-0.896-0.41s-0.537-0.41-0.709-0.41
		c-0.273,0-0.609,0.221-1.008,0.662s-0.598,0.896-0.598,1.365v5.285c0,0.672,0.156,1.139,0.469,1.4s0.832,0.385,1.559,0.369V25
		h-5.777V24.613z"/>
	<path d="M664.559,21.309h0.387c0.18,0.891,0.421,1.574,0.725,2.051c0.546,0.875,1.345,1.312,2.396,1.312
		c0.585,0,1.047-0.162,1.386-0.486s0.509-0.744,0.509-1.26c0-0.328-0.098-0.645-0.293-0.949s-0.539-0.602-1.031-0.891l-1.312-0.75
		c-0.96-0.516-1.668-1.035-2.121-1.559s-0.68-1.141-0.68-1.852c0-0.875,0.312-1.594,0.938-2.156s1.41-0.844,2.355-0.844
		c0.414,0,0.869,0.078,1.365,0.234s0.775,0.234,0.838,0.234c0.141,0,0.242-0.02,0.305-0.059s0.117-0.102,0.164-0.188h0.281
		l0.082,3.27h-0.363c-0.156-0.758-0.367-1.348-0.633-1.77c-0.484-0.781-1.184-1.172-2.098-1.172c-0.547,0-0.977,0.168-1.289,0.504
		S666,15.711,666,16.164c0,0.719,0.539,1.359,1.617,1.922l1.547,0.832c1.664,0.906,2.496,1.961,2.496,3.164
		c0,0.922-0.346,1.676-1.035,2.262c-0.69,0.586-1.594,0.879-2.709,0.879c-0.467,0-0.998-0.078-1.59-0.234
		c-0.594-0.156-0.944-0.234-1.054-0.234c-0.094,0-0.175,0.033-0.245,0.1s-0.125,0.146-0.164,0.24h-0.305V21.309z"/>
	<path d="M675.223,19.832c0.719-0.469,2.152-1.105,4.301-1.91v-0.996c0-0.797-0.078-1.352-0.234-1.664
		c-0.266-0.523-0.816-0.785-1.652-0.785c-0.398,0-0.777,0.102-1.137,0.305c-0.359,0.211-0.539,0.5-0.539,0.867
		c0,0.094,0.02,0.252,0.059,0.475s0.059,0.365,0.059,0.428c0,0.438-0.145,0.742-0.434,0.914c-0.164,0.102-0.359,0.152-0.586,0.152
		c-0.352,0-0.621-0.115-0.809-0.346s-0.281-0.486-0.281-0.768c0-0.547,0.338-1.119,1.014-1.717s1.666-0.896,2.971-0.896
		c1.516,0,2.543,0.492,3.082,1.477c0.289,0.539,0.434,1.324,0.434,2.355v4.699c0,0.453,0.031,0.766,0.094,0.938
		c0.102,0.305,0.312,0.457,0.633,0.457c0.18,0,0.328-0.027,0.445-0.082s0.32-0.188,0.609-0.398v0.609
		c-0.25,0.305-0.52,0.555-0.809,0.75c-0.438,0.297-0.883,0.445-1.336,0.445c-0.531,0-0.916-0.172-1.154-0.516
		s-0.369-0.754-0.393-1.23c-0.594,0.516-1.102,0.898-1.523,1.148c-0.711,0.422-1.387,0.633-2.027,0.633
		c-0.672,0-1.254-0.236-1.746-0.709s-0.738-1.072-0.738-1.799C673.523,21.535,674.09,20.59,675.223,19.832z M679.523,18.508
		c-0.898,0.297-1.641,0.625-2.227,0.984c-1.125,0.695-1.688,1.484-1.688,2.367c0,0.711,0.234,1.234,0.703,1.57
		c0.305,0.219,0.645,0.328,1.02,0.328c0.516,0,1.01-0.145,1.482-0.434s0.709-0.656,0.709-1.102V18.508z"/>
	<path d="M683.789,24.672c0.727-0.07,1.219-0.217,1.477-0.439s0.387-0.658,0.387-1.307V11.477c0-0.516-0.043-0.871-0.129-1.066
		c-0.156-0.328-0.473-0.492-0.949-0.492c-0.109,0-0.229,0.012-0.357,0.035s-0.291,0.059-0.486,0.105V9.672
		c1.055-0.281,2.324-0.656,3.809-1.125c0.055,0,0.088,0.023,0.1,0.07s0.018,0.148,0.018,0.305v14.051
		c0,0.68,0.117,1.119,0.352,1.318s0.719,0.326,1.453,0.381V25h-5.672V24.672z"/>
</g>
<path d="M558,108"/>
</svg>
