<?xml version="1.0" standalone="no"?>
<!DOCTYPE svg PUBLIC "-//W3C//DTD SVG 1.1//EN" 
  "http://www.w3.org/Graphics/SVG/1.1/DTD/svg11.dtd">
<svg width="432" height="432" viewBox="0 0 432 432"
     xmlns="http://www.w3.org/2000/svg" version="1.1">
  <g style="stroke:black; fill:none">
    <path d="M 195.7124,284.6325 A 49.3964,49.3964 0 0 0 242.7997,265.2923"/>
    <path d="M 195.7124,284.6325 A 90.8541,90.8541 0 0 0 288.8868,350.0597"/>
    <path d="M 208.5405,190.7646 A 167.1068,167.1068 0 0 0 189.2003,166.7077"/>
    <path d="M 208.5405,190.7646 A 90.8541,90.8541 0 0 0 205.1569,210.1047"/>
    <path d="M 208.5405,190.7646 A 49.3964,49.3964 0 0 0 186.5102,199.9667"/>
    <path d="M 288.8868,350.0597 A 108.2516,108.2516 0 0 0 350.0597,143.1132"/>
    <line x1="288.8868" y1="350.0597" x2="242.7997" y2="265.2923"/>
    <path d="M 288.8868,350.0597 A 90.8541,90.8541 0 0 0 284.6325,236.2876"/>
    <line x1="350.0597" y1="143.1132" x2="265.2923" y2="189.2003"/>
    <path d="M 350.0597,143.1132 A 108.2516,108.2516 0 0 0 143.1132,81.9403"/>
    <path d="M 350.0597,143.1132 A 90.8541,90.8541 0 0 0 236.2876,147.3675"/>
    <path d="M 199.9667,245.4898 A 49.3964,49.3964 0 0 0 223.4595,241.2354"/>
    <line x1="199.9667" y1="245.4898" x2="210.1047" y2="226.8431"/>
    <path d="M 199.9667,245.4898 A 167.1068,167.1068 0 0 0 195.7124,284.6325"/>
    <path d="M 189.2003,166.7077 A 58.8552,58.8552 0 0 0 186.5102,199.9667"/>
    <path d="M 189.2003,166.7077 A 49.3964,49.3964 0 0 0 147.3675,195.7124"/>
    <path d="M 232.0333,186.5102 A 49.3964,49.3964 0 0 0 208.5405,190.7646"/>
    <line x1="232.0333" y1="186.5102" x2="221.8953" y2="205.1569"/>
    <path d="M 232.0333,186.5102 A 167.1068,167.1068 0 0 0 236.2876,147.3675"/>
    <path d="M 265.2923,189.2003 A 58.8552,58.8552 0 0 0 232.0333,186.5102"/>
    <path d="M 265.2923,189.2003 A 49.3964,49.3964 0 0 0 236.2876,147.3675"/>
    <path d="M 143.1132,81.9403 A 108.2516,108.2516 0 0 0 81.9403,288.8868"/>
    <line x1="143.1132" y1="81.9403" x2="189.2003" y2="166.7077"/>
    <path d="M 143.1132,81.9403 A 90.8541,90.8541 0 0 0 147.3675,195.7124"/>
    <path d="M 236.2876,147.3675 A 49.3964,49.3964 0 0 0 189.2003,166.7077"/>
    <path d="M 236.2876,147.3675 A 90.8541,90.8541 0 0 0 143.1132,81.9403"/>
    <path d="M 210.1047,226.8431 A 90.8541,90.8541 0 0 0 223.4595,241.2354"/>
    <path d="M 210.1047,226.8431 A 108.2516,108.2516 0 0 0 226.8431,221.8953"/>
    <path d="M 81.9403,288.8868 A 108.2516,108.2516 0 0 0 288.8868,350.0597"/>
    <line x1="81.9403" y1="288.8868" x2="166.7077" y2="242.7997"/>
    <path d="M 81.9403,288.8868 A 90.8541,90.8541 0 0 0 195.7124,284.6325"/>
    <path d="M 245.4898,232.0333 A 49.3964,49.3964 0 0 0 241.2354,208.5405"/>
    <line x1="245.4898" y1="232.0333" x2="226.8431" y2="221.8953"/>
    <path d="M 245.4898,232.0333 A 167.1068,167.1068 0 0 0 284.6325,236.2876"/>
    <line x1="186.5102" y1="199.9667" x2="205.1569" y2="210.1047"/>
    <path d="M 186.5102,199.9667 A 49.3964,49.3964 0 0 0 190.7646,223.4595"/>
    <path d="M 186.5102,199.9667 A 167.1068,167.1068 0 0 0 147.3675,195.7124"/>
    <path d="M 242.7997,265.2923 A 58.8552,58.8552 0 0 0 245.4898,232.0333"/>
    <path d="M 242.7997,265.2923 A 49.3964,49.3964 0 0 0 284.6325,236.2876"/>
    <path d="M 223.4595,241.2354 A 167.1068,167.1068 0 0 0 242.7997,265.2923"/>
    <path d="M 223.4595,241.2354 A 90.8541,90.8541 0 0 0 226.8431,221.8953"/>
    <path d="M 223.4595,241.2354 A 49.3964,49.3964 0 0 0 245.4898,232.0333"/>
    <path d="M 190.7646,223.4595 A 49.3964,49.3964 0 0 0 199.9667,245.4898"/>
    <path d="M 190.7646,223.4595 A 90.8541,90.8541 0 0 0 210.1047,226.8431"/>
    <path d="M 190.7646,223.4595 A 167.1068,167.1068 0 0 0 166.7077,242.7997"/>
    <path d="M 166.7077,242.7997 A 58.8552,58.8552 0 0 0 199.9667,245.4898"/>
    <path d="M 166.7077,242.7997 A 49.3964,49.3964 0 0 0 195.7124,284.6325"/>
    <path d="M 221.8953,205.1569 A 108.2516,108.2516 0 0 0 205.1569,210.1047"/>
    <path d="M 221.8953,205.1569 A 90.8541,90.8541 0 0 0 208.5405,190.7646"/>
    <path d="M 284.6325,236.2876 A 49.3964,49.3964 0 0 0 265.2923,189.2003"/>
    <path d="M 284.6325,236.2876 A 90.8541,90.8541 0 0 0 350.0597,143.1132"/>
    <path d="M 147.3675,195.7124 A 90.8541,90.8541 0 0 0 81.9403,288.8868"/>
    <path d="M 147.3675,195.7124 A 49.3964,49.3964 0 0 0 166.7077,242.7997"/>
    <path d="M 226.8431,221.8953 A 90.8541,90.8541 0 0 0 241.2354,208.5405"/>
    <path d="M 226.8431,221.8953 A 108.2516,108.2516 0 0 0 221.8953,205.1569"/>
    <path d="M 241.2354,208.5405 A 167.1068,167.1068 0 0 0 265.2923,189.2003"/>
    <path d="M 241.2354,208.5405 A 90.8541,90.8541 0 0 0 221.8953,205.1569"/>
    <path d="M 241.2354,208.5405 A 49.3964,49.3964 0 0 0 232.0333,186.5102"/>
    <path d="M 205.1569,210.1047 A 90.8541,90.8541 0 0 0 190.7646,223.4595"/>
    <path d="M 205.1569,210.1047 A 108.2516,108.2516 0 0 0 210.1047,226.8431"/>
  </g>
  <g style="stroke:black; fill:#BC1E47">
    <circle cx="81.9403" cy="288.8868" r="4"/>
    <circle cx="189.2003" cy="166.7077" r="4"/>
    <circle cx="205.1569" cy="210.1047" r="4"/>
    <circle cx="199.9667" cy="245.4898" r="4"/>
    <circle cx="223.4595" cy="241.2354" r="4"/>
    <circle cx="190.7646" cy="223.4595" r="4"/>
    <circle cx="208.5405" cy="190.7646" r="4"/>
    <circle cx="241.2354" cy="208.5405" r="4"/>
    <circle cx="265.2923" cy="189.2003" r="4"/>
    <circle cx="221.8953" cy="205.1569" r="4"/>
    <circle cx="186.5102" cy="199.9667" r="4"/>
    <circle cx="143.1132" cy="81.9403" r="4"/>
    <circle cx="232.0333" cy="186.5102" r="4"/>
    <circle cx="350.0597" cy="143.1132" r="4"/>
    <circle cx="242.7997" cy="265.2923" r="4"/>
    <circle cx="226.8431" cy="221.8953" r="4"/>
    <circle cx="210.1047" cy="226.8431" r="4"/>
    <circle cx="245.4898" cy="232.0333" r="4"/>
    <circle cx="288.8868" cy="350.0597" r="4"/>
    <circle cx="166.7077" cy="242.7997" r="4"/>
    <circle cx="147.3675" cy="195.7124" r="4"/>
    <circle cx="195.7124" cy="284.6325" r="4"/>
    <circle cx="284.6325" cy="236.2876" r="4"/>
    <circle cx="236.2876" cy="147.3675" r="4"/>
  </g>
</svg>
