<?xml version="1.0" encoding="utf-8"?>
<!-- Generator: Adobe Illustrator 15.1.0, SVG Export Plug-In . SVG Version: 6.00 Build 0)  -->
<!DOCTYPE svg PUBLIC "-//W3C//DTD SVG 1.1//EN" "http://www.w3.org/Graphics/SVG/1.1/DTD/svg11.dtd">
<svg version="1.1" id="Layer_1" xmlns="http://www.w3.org/2000/svg" xmlns:xlink="http://www.w3.org/1999/xlink" x="0px" y="0px"
	 width="564px" height="486px" viewBox="0 0 564 486" enable-background="new 0 0 564 486" xml:space="preserve">
<path fill="none" stroke="#000000" stroke-width="2.4" stroke-linejoin="round" stroke-miterlimit="10" d="M425.07,175.079
	c0,0,0,0-0.866,26.044c-0.866,26.046-2.598,78.134,14.31,104.408c16.906,26.271,52.452,26.728,73.188-0.616
	c20.735-27.344,26.659-82.486,1.754-118.238c-24.904-35.752-80.64-52.111-127.17-43.407c-46.528,8.704-83.853,42.474-110.216,78.315
	c-26.364,35.842-41.769,73.76-61.774,96.044c-20.006,22.286-44.614,28.938-76.288,23.606c-31.672-5.332-70.408-22.648-88.638-56.601
	c-18.229-33.952-15.95-84.536,2.985-108.825c18.936-24.29,54.527-22.286,70.843,4.783c16.313,27.07,13.352,79.204,11.87,105.272
	c-1.48,26.067-1.48,26.067-1.48,26.067"/>
<path fill="none" stroke="#000000" stroke-width="2.4" stroke-linejoin="round" stroke-miterlimit="10" d="M377.082,118.203
	c0,0,0,0,1.776,37.62c1.777,37.62,5.332,112.859,25.476,158.182c20.142,45.322,56.874,60.727,87.384,52.433
	c30.513-8.296,54.802-40.288,61.911-85.017c7.109-44.729-2.963-102.195-33.178-141.298c-30.213-39.1-80.571-59.836-122.339-66.352
	c-41.767-6.519-74.944,1.184-90.643,35.25c-15.699,34.065-13.924,94.493-15.699,150.775c-1.778,56.282-7.11,108.416-50.358,127.672
	C198.164,406.724,117,393.097,69.604,373.545c-47.396-19.55-61.021-45.023-63.095-91.532c-2.074-46.506,7.405-114.044,32.88-151.071
	c25.476-37.028,66.946-43.544,99.234-27.548s55.392,54.504,59.54,103.084S187.5,313.709,180.096,343.035
	c-7.405,29.326-7.405,29.326-7.405,29.326"/>
<path fill="none" stroke="#000000" stroke-width="2.4" stroke-linejoin="round" stroke-miterlimit="10" d="M455.284,219.511
	c0,0,0,0,0.296,11.851c0.296,11.848,0.888,35.546,7.702,51.54c6.812,15.996,19.846,24.29,29.622,18.365
	c9.775-5.924,16.292-26.065,15.996-44.432s-7.406-34.954-34.066-45.322c-26.66-10.367-72.87-14.514-111.082-12.144
	c-38.212,2.368-68.428,11.256-89.164,21.328c-20.733,10.069-31.992,21.326-41.47,33.176c-9.48,11.848-17.18,24.29-40.286,29.622
	c-23.104,5.332-61.614,3.554-86.496-3.26c-24.883-6.812-36.139-18.66-37.324-34.656c-1.185-15.996,7.702-36.14,16.885-43.546
	s18.662-2.074,24.587,8.294c5.924,10.368,8.293,25.771,9.479,33.474c1.185,7.702,1.185,7.702,1.185,7.702"/>
<line fill="none" stroke="#000000" stroke-width="2.4" stroke-linejoin="round" stroke-miterlimit="10" x1="455.284" y1="219.511" x2="265.11" y2="471.892"/>
<line fill="none" stroke="#000000" stroke-width="2.4" stroke-linejoin="round" stroke-miterlimit="10" x1="425.07" y1="175.077" x2="265.11" y2="471.892"/>
<line fill="none" stroke="#000000" stroke-width="2.4" stroke-linejoin="round" stroke-miterlimit="10" x1="377.082" y1="118.203" x2="265.11" y2="471.892"/>
<line fill="none" stroke="#000000" stroke-width="2.4" stroke-linejoin="round" stroke-miterlimit="10" x1="172.69" y1="372.361" x2="300.656" y2="26.493"/>
<line fill="none" stroke="#000000" stroke-width="2.4" stroke-linejoin="round" stroke-miterlimit="10" x1="133.588" y1="311.931" x2="300.656" y2="26.493"/>
<line fill="none" stroke="#000000" stroke-width="2.4" stroke-linejoin="round" stroke-miterlimit="10" x1="121.146" y1="251.503" x2="300.656" y2="26.493"/>
<path fill-rule="evenodd" clip-rule="evenodd" d="M306.656,26.493c0-3.314-2.687-6-6-6c-3.314,0-6,2.686-6,6s2.686,6,6,6
	C303.97,32.493,306.656,29.808,306.656,26.493"/>
<path fill-rule="evenodd" clip-rule="evenodd" d="M383.082,118.203c0-3.313-2.686-6-6-6s-6,2.687-6,6s2.686,6,6,6
	S383.082,121.517,383.082,118.203"/>
<path fill-rule="evenodd" clip-rule="evenodd" d="M431.07,175.077c0-3.314-2.687-6-6-6c-3.314,0-6,2.686-6,6s2.686,6,6,6
	C428.384,181.077,431.07,178.392,431.07,175.077"/>
<path fill-rule="evenodd" clip-rule="evenodd" d="M461.284,219.511c0-3.313-2.687-6-6-6c-3.314,0-6,2.687-6,6c0,3.314,2.686,6,6,6
	C458.598,225.511,461.284,222.825,461.284,219.511"/>
<path fill-rule="evenodd" clip-rule="evenodd" d="M271.11,471.892c0-3.314-2.687-6-6-6c-3.314,0-6,2.686-6,6c0,3.313,2.686,6,6,6
	C268.424,477.892,271.11,475.205,271.11,471.892"/>
<path fill-rule="evenodd" clip-rule="evenodd" d="M178.69,372.361c0-3.314-2.687-6-6-6c-3.314,0-6,2.686-6,6c0,3.313,2.686,6,6,6
	C176.004,378.361,178.69,375.675,178.69,372.361"/>
<path fill-rule="evenodd" clip-rule="evenodd" d="M139.588,311.933c0-3.313-2.686-6-6-6c-3.313,0-6,2.687-6,6c0,3.314,2.687,6,6,6
	C136.902,317.933,139.588,315.247,139.588,311.933"/>
<path fill-rule="evenodd" clip-rule="evenodd" d="M127.146,251.503c0-3.313-2.687-6-6-6s-6,2.687-6,6c0,3.314,2.687,6,6,6
	S127.146,254.817,127.146,251.503"/>
<g>
	<path d="M331.665,13.423c0.352,0.469,0.527,1.002,0.527,1.6c0,1.582-1.564,4.354-4.693,8.314c-2.965,3.762-4.74,5.643-5.326,5.643
		c-0.176,0-0.293-0.24-0.352-0.721c-0.035-0.27-0.053-0.727-0.053-1.371c0-0.785-0.076-2.115-0.229-3.99s-0.299-3.264-0.439-4.166
		c-0.293-1.98-0.58-3.258-0.861-3.832s-0.814-0.861-1.6-0.861c-0.129,0-0.278,0.006-0.448,0.018s-0.366,0.029-0.589,0.053v-0.457
		c0.351-0.07,1.089-0.229,2.214-0.475c1.123-0.246,1.721-0.381,1.791-0.404l0.58-0.176c0.163-0.047,0.292,0.044,0.386,0.272
		s0.211,0.653,0.352,1.274c0.444,2.039,0.78,4.049,1.006,6.029c0.141,1.23,0.281,3.053,0.422,5.467l0.58-0.615
		c1.207-1.277,2.414-2.795,3.621-4.553s1.811-3,1.811-3.727c0-0.363-0.264-0.8-0.791-1.31s-0.791-0.976-0.791-1.397
		c0-0.387,0.132-0.703,0.396-0.949s0.589-0.369,0.976-0.369C330.81,12.72,331.313,12.954,331.665,13.423z"/>
</g>
<g>
	<path d="M307.415,463.995c0.352,0.469,0.527,1.002,0.527,1.6c0,1.582-1.564,4.354-4.693,8.314c-2.965,3.762-4.74,5.643-5.326,5.643
		c-0.176,0-0.293-0.24-0.352-0.721c-0.035-0.27-0.053-0.727-0.053-1.371c0-0.785-0.076-2.115-0.229-3.99s-0.299-3.264-0.439-4.166
		c-0.293-1.98-0.58-3.258-0.861-3.832s-0.814-0.861-1.6-0.861c-0.129,0-0.278,0.006-0.448,0.018s-0.366,0.029-0.589,0.053v-0.457
		c0.351-0.07,1.089-0.229,2.214-0.475c1.123-0.246,1.721-0.381,1.791-0.404l0.58-0.176c0.163-0.047,0.292,0.044,0.386,0.272
		s0.211,0.653,0.352,1.274c0.444,2.039,0.78,4.049,1.006,6.029c0.141,1.23,0.281,3.053,0.422,5.467l0.58-0.615
		c1.207-1.277,2.414-2.795,3.621-4.553s1.811-3,1.811-3.727c0-0.363-0.264-0.8-0.791-1.31s-0.791-0.976-0.791-1.397
		c0-0.387,0.132-0.703,0.396-0.949s0.589-0.369,0.976-0.369C306.56,463.292,307.063,463.526,307.415,463.995z"/>
</g>
</svg>
