<?xml version="1.0" encoding="utf-8"?>
<!-- Generator: Adobe Illustrator 15.1.0, SVG Export Plug-In . SVG Version: 6.00 Build 0)  -->
<!DOCTYPE svg PUBLIC "-//W3C//DTD SVG 1.1//EN" "http://www.w3.org/Graphics/SVG/1.1/DTD/svg11.dtd">
<svg version="1.1" id="Layer_1" xmlns="http://www.w3.org/2000/svg" xmlns:xlink="http://www.w3.org/1999/xlink" x="0px" y="0px"
	 width="400px" height="407px" viewBox="0 0 400 407" enable-background="new 0 0 400 407" xml:space="preserve">
<line fill="none" stroke="#000000" stroke-width="0.8" stroke-linejoin="round" stroke-miterlimit="10" x1="192.136" y1="244.678" x2="103.6" y2="297.8"/>
<line fill="none" stroke="#000000" stroke-width="0.8" stroke-linejoin="round" stroke-miterlimit="10" x1="222.461" y1="253.916" x2="295.6" y2="297.8"/>
<line fill="none" stroke="#000000" stroke-width="0.8" stroke-linejoin="round" stroke-miterlimit="10" x1="205.256" y1="260.144" x2="263.6" y2="201.8"/>
<line fill="none" stroke="#000000" stroke-width="0.8" stroke-linejoin="round" stroke-miterlimit="10" x1="167.6" y1="297.8" x2="193.944" y2="271.456"/>
<line fill="none" stroke="#000000" stroke-width="0.8" stroke-linejoin="round" stroke-miterlimit="10" x1="189.256" y1="255.456" x2="231.6" y2="297.8"/>
<line fill="none" stroke="#000000" stroke-width="0.8" stroke-linejoin="round" stroke-miterlimit="10" x1="231.6" y1="297.8" x2="239.912" y2="272.862"/>
<line fill="none" stroke="#000000" stroke-width="0.8" stroke-linejoin="round" stroke-miterlimit="10" x1="159.352" y1="273.056" x2="167.6" y2="297.8"/>
<line fill="none" stroke="#000000" stroke-width="0.8" stroke-linejoin="round" stroke-miterlimit="10" x1="270.756" y1="317.378" x2="295.6" y2="329.8"/>
<line fill="none" stroke="#000000" stroke-width="0.8" stroke-linejoin="round" stroke-miterlimit="10" x1="231.6" y1="297.8" x2="256.443" y2="310.222"/>
<line fill="none" stroke="#000000" stroke-width="0.8" stroke-linejoin="round" stroke-miterlimit="10" x1="167.6" y1="297.8" x2="192.444" y2="310.222"/>
<line fill="none" stroke="#000000" stroke-width="0.8" stroke-linejoin="round" stroke-miterlimit="10" x1="206.756" y1="349.378" x2="295.6" y2="393.8"/>
<line fill="none" stroke="#000000" stroke-width="0.8" stroke-linejoin="round" stroke-miterlimit="10" x1="103.6" y1="297.8" x2="192.444" y2="342.222"/>
<line fill="none" stroke="#000000" stroke-width="0.8" stroke-linejoin="round" stroke-miterlimit="10" x1="238.756" y1="326.222" x2="295.6" y2="297.8"/>
<line fill="none" stroke="#000000" stroke-width="0.8" stroke-linejoin="round" stroke-miterlimit="10" x1="174.756" y1="326.222" x2="231.6" y2="297.8"/>
<line fill="none" stroke="#000000" stroke-width="0.8" stroke-linejoin="round" stroke-miterlimit="10" x1="142.756" y1="310.222" x2="167.6" y2="297.8"/>
<path fill="none" stroke="#000000" stroke-width="0.8" stroke-linejoin="round" stroke-miterlimit="10" d="M295.6,297.8
	c24,16,36,8,48-8s24-40,48-88"/>
<path fill="none" stroke="#000000" stroke-width="0.8" stroke-linejoin="round" stroke-miterlimit="10" d="M295.6,329.8
	c16,8,24,8,32,2.666c8-5.332,16-16,26-33.332c10-17.334,22-41.334,38-97.334"/>
<path fill="none" stroke="#000000" stroke-width="0.8" stroke-linejoin="round" stroke-miterlimit="10" d="M295.6,361.8
	c24,8,36,0,50-16s30-40,46-144"/>
<path fill="none" stroke="#000000" stroke-width="0.8" stroke-linejoin="round" stroke-miterlimit="10" d="M391.6,201.8
	c0,224-72,200-96,192"/>
<line fill="none" stroke="#000000" stroke-width="0.8" stroke-linejoin="round" stroke-miterlimit="10" x1="103.6" y1="297.8" x2="135.6" y2="201.8"/>
<line fill="none" stroke="#000000" stroke-width="0.8" stroke-linejoin="round" stroke-miterlimit="10" x1="295.6" y1="297.8" x2="263.6" y2="201.8"/>
<path fill="none" stroke="#000000" stroke-width="0.8" stroke-linejoin="round" stroke-miterlimit="10" d="M103.6,297.8
	c-24,16-36,8-48-8s-24-40-48-88"/>
<path fill="none" stroke="#000000" stroke-width="0.8" stroke-linejoin="round" stroke-miterlimit="10" d="M103.6,329.8
	c-16,8-24,8-32,2.666c-8-5.332-16-16-26-33.332c-10-17.334-22-41.334-38-97.334"/>
<path fill="none" stroke="#000000" stroke-width="0.8" stroke-linejoin="round" stroke-miterlimit="10" d="M103.6,361.8
	c-24,8-36,0-50-16s-30-40-46-144"/>
<path fill="none" stroke="#000000" stroke-width="0.8" stroke-linejoin="round" stroke-miterlimit="10" d="M7.6,201.8
	c0,224,72,200,96,192"/>
<path fill-rule="evenodd" clip-rule="evenodd" fill="#FFFFFF" d="M170.6,297.8c0-1.656-1.344-3-3-3s-3,1.344-3,3s1.344,3,3,3
	S170.6,299.456,170.6,297.8"/>
<path fill-rule="evenodd" clip-rule="evenodd" d="M170,297.8c0-1.326-1.074-2.4-2.4-2.4s-2.4,1.074-2.4,2.4s1.074,2.4,2.4,2.4
	S170,299.126,170,297.8 M171.2,297.8c0-1.988-1.611-3.6-3.6-3.6s-3.6,1.611-3.6,3.6s1.611,3.6,3.6,3.6S171.2,299.788,171.2,297.8"/>
<path fill-rule="evenodd" clip-rule="evenodd" fill="#FFFFFF" d="M234.6,297.8c0-1.656-1.344-3-3-3s-3,1.344-3,3s1.344,3,3,3
	S234.6,299.456,234.6,297.8"/>
<path fill-rule="evenodd" clip-rule="evenodd" d="M234,297.8c0-1.326-1.074-2.4-2.4-2.4s-2.4,1.074-2.4,2.4s1.074,2.4,2.4,2.4
	S234,299.126,234,297.8 M235.199,297.8c0-1.988-1.611-3.6-3.6-3.6s-3.6,1.611-3.6,3.6s1.611,3.6,3.6,3.6
	S235.199,299.788,235.199,297.8"/>
<path fill-rule="evenodd" clip-rule="evenodd" fill="#FFFFFF" d="M298.6,297.8c0-1.656-1.344-3-3-3s-3,1.344-3,3s1.344,3,3,3
	S298.6,299.456,298.6,297.8"/>
<path fill-rule="evenodd" clip-rule="evenodd" d="M298,297.8c0-1.326-1.074-2.4-2.4-2.4s-2.4,1.074-2.4,2.4s1.074,2.4,2.4,2.4
	S298,299.126,298,297.8 M299.199,297.8c0-1.988-1.611-3.6-3.6-3.6s-3.6,1.611-3.6,3.6s1.611,3.6,3.6,3.6
	S299.199,299.788,299.199,297.8"/>
<path fill-rule="evenodd" clip-rule="evenodd" fill="#FFFFFF" d="M106.6,297.8c0-1.656-1.344-3-3-3s-3,1.344-3,3s1.344,3,3,3
	S106.6,299.456,106.6,297.8"/>
<path fill-rule="evenodd" clip-rule="evenodd" d="M106,297.8c0-1.326-1.074-2.4-2.4-2.4s-2.4,1.074-2.4,2.4s1.074,2.4,2.4,2.4
	S106,299.126,106,297.8 M107.2,297.8c0-1.988-1.611-3.6-3.6-3.6s-3.6,1.611-3.6,3.6s1.611,3.6,3.6,3.6S107.2,299.788,107.2,297.8"/>
<line fill="none" stroke="#000000" stroke-width="0.8" stroke-linejoin="round" stroke-miterlimit="10" x1="103.6" y1="329.8" x2="128.444" y2="317.378"/>
<line fill="none" stroke="#000000" stroke-width="0.8" stroke-linejoin="round" stroke-miterlimit="10" x1="103.6" y1="361.8" x2="160.444" y2="333.378"/>
<line fill="none" stroke="#000000" stroke-width="0.8" stroke-linejoin="round" stroke-miterlimit="10" x1="103.6" y1="393.8" x2="224.443" y2="333.378"/>
<line fill="none" stroke="#000000" stroke-width="0.8" stroke-linejoin="round" stroke-miterlimit="10" x1="206.756" y1="317.378" x2="295.6" y2="361.8"/>
<line fill="none" stroke="#000000" stroke-width="0.8" stroke-linejoin="round" stroke-miterlimit="10" x1="135.6" y1="201.8" x2="154.292" y2="257.878"/>
<line fill="none" stroke="#000000" stroke-width="0.8" stroke-linejoin="round" stroke-miterlimit="10" x1="244.969" y1="257.696" x2="263.6" y2="201.8"/>
<line fill="none" stroke="#000000" stroke-width="0.8" stroke-linejoin="round" stroke-miterlimit="10" x1="135.6" y1="201.8" x2="177.944" y2="244.144"/>
<line fill="none" stroke="#000000" stroke-width="0.8" stroke-linejoin="round" stroke-miterlimit="10" x1="135.6" y1="201.8" x2="208.74" y2="245.684"/>
<line fill="none" stroke="#000000" stroke-width="0.8" stroke-linejoin="round" stroke-miterlimit="10" x1="263.6" y1="201.8" x2="205.652" y2="236.567"/>
<line fill="none" stroke="#000000" stroke-width="0.8" stroke-linejoin="round" stroke-miterlimit="10" x1="192.136" y1="158.922" x2="103.6" y2="105.8"/>
<line fill="none" stroke="#000000" stroke-width="0.8" stroke-linejoin="round" stroke-miterlimit="10" x1="222.461" y1="149.684" x2="295.6" y2="105.8"/>
<line fill="none" stroke="#000000" stroke-width="0.8" stroke-linejoin="round" stroke-miterlimit="10" x1="205.256" y1="143.456" x2="263.6" y2="201.8"/>
<line fill="none" stroke="#000000" stroke-width="0.8" stroke-linejoin="round" stroke-miterlimit="10" x1="167.6" y1="105.8" x2="193.944" y2="132.144"/>
<line fill="none" stroke="#000000" stroke-width="0.8" stroke-linejoin="round" stroke-miterlimit="10" x1="189.256" y1="148.144" x2="231.6" y2="105.8"/>
<line fill="none" stroke="#000000" stroke-width="0.8" stroke-linejoin="round" stroke-miterlimit="10" x1="231.6" y1="105.8" x2="239.912" y2="130.737"/>
<line fill="none" stroke="#000000" stroke-width="0.8" stroke-linejoin="round" stroke-miterlimit="10" x1="159.352" y1="130.544" x2="167.6" y2="105.8"/>
<line fill="none" stroke="#000000" stroke-width="0.8" stroke-linejoin="round" stroke-miterlimit="10" x1="270.756" y1="86.222" x2="295.6" y2="73.8"/>
<line fill="none" stroke="#000000" stroke-width="0.8" stroke-linejoin="round" stroke-miterlimit="10" x1="231.6" y1="105.8" x2="256.443" y2="93.378"/>
<line fill="none" stroke="#000000" stroke-width="0.8" stroke-linejoin="round" stroke-miterlimit="10" x1="167.6" y1="105.8" x2="192.444" y2="93.378"/>
<line fill="none" stroke="#000000" stroke-width="0.8" stroke-linejoin="round" stroke-miterlimit="10" x1="206.756" y1="54.222" x2="295.6" y2="9.8"/>
<line fill="none" stroke="#000000" stroke-width="0.8" stroke-linejoin="round" stroke-miterlimit="10" x1="103.6" y1="105.8" x2="192.444" y2="61.378"/>
<line fill="none" stroke="#000000" stroke-width="0.8" stroke-linejoin="round" stroke-miterlimit="10" x1="238.756" y1="77.378" x2="295.6" y2="105.8"/>
<line fill="none" stroke="#000000" stroke-width="0.8" stroke-linejoin="round" stroke-miterlimit="10" x1="174.756" y1="77.378" x2="231.6" y2="105.8"/>
<line fill="none" stroke="#000000" stroke-width="0.8" stroke-linejoin="round" stroke-miterlimit="10" x1="142.756" y1="93.378" x2="167.6" y2="105.8"/>
<path fill="none" stroke="#000000" stroke-width="0.8" stroke-linejoin="round" stroke-miterlimit="10" d="M295.6,105.8
	c24-16,36-8,48,8s24,40,48,88"/>
<path fill="none" stroke="#000000" stroke-width="0.8" stroke-linejoin="round" stroke-miterlimit="10" d="M295.6,73.8
	c16-8,24-8,32-2.666c8,5.332,16,16,26,33.332c10,17.334,22,41.334,38,97.334"/>
<path fill="none" stroke="#000000" stroke-width="0.8" stroke-linejoin="round" stroke-miterlimit="10" d="M295.6,41.8
	c24-8,36,0,50,16s30,40,46,144"/>
<path fill="none" stroke="#000000" stroke-width="0.8" stroke-linejoin="round" stroke-miterlimit="10" d="M391.6,201.8
	c0-224-72-200-96-192"/>
<path fill-rule="evenodd" clip-rule="evenodd" d="M395.199,201.8c0-1.988-1.611-3.6-3.6-3.6s-3.6,1.611-3.6,3.6s1.611,3.6,3.6,3.6
	S395.199,203.788,395.199,201.8"/>
<line fill="none" stroke="#000000" stroke-width="0.8" stroke-linejoin="round" stroke-miterlimit="10" x1="103.6" y1="105.8" x2="135.6" y2="201.8"/>
<line fill="none" stroke="#000000" stroke-width="0.8" stroke-linejoin="round" stroke-miterlimit="10" x1="295.6" y1="105.8" x2="263.6" y2="201.8"/>
<path fill="none" stroke="#000000" stroke-width="0.8" stroke-linejoin="round" stroke-miterlimit="10" d="M103.6,105.8
	c-24-16-36-8-48,8s-24,40-48,88"/>
<path fill="none" stroke="#000000" stroke-width="0.8" stroke-linejoin="round" stroke-miterlimit="10" d="M103.6,73.8
	c-16-8-24-8-32-2.666c-8,5.332-16,16-26,33.332c-10,17.334-22,41.334-38,97.334"/>
<path fill="none" stroke="#000000" stroke-width="0.8" stroke-linejoin="round" stroke-miterlimit="10" d="M103.6,41.8
	c-24-8-36,0-50,16s-30,40-46,144"/>
<path fill="none" stroke="#000000" stroke-width="0.8" stroke-linejoin="round" stroke-miterlimit="10" d="M7.6,201.8
	c0-224,72-200,96-192"/>
<path fill-rule="evenodd" clip-rule="evenodd" fill="#FFFFFF" d="M170.6,105.8c0-1.656-1.344-3-3-3s-3,1.344-3,3s1.344,3,3,3
	S170.6,107.456,170.6,105.8"/>
<path fill-rule="evenodd" clip-rule="evenodd" d="M170,105.8c0-1.326-1.074-2.4-2.4-2.4s-2.4,1.074-2.4,2.4s1.074,2.4,2.4,2.4
	S170,107.126,170,105.8 M171.2,105.8c0-1.988-1.611-3.6-3.6-3.6s-3.6,1.611-3.6,3.6s1.611,3.6,3.6,3.6S171.2,107.788,171.2,105.8"/>
<path fill-rule="evenodd" clip-rule="evenodd" fill="#FFFFFF" d="M234.6,105.8c0-1.656-1.344-3-3-3s-3,1.344-3,3s1.344,3,3,3
	S234.6,107.456,234.6,105.8"/>
<path fill-rule="evenodd" clip-rule="evenodd" d="M234,105.8c0-1.326-1.074-2.4-2.4-2.4s-2.4,1.074-2.4,2.4s1.074,2.4,2.4,2.4
	S234,107.126,234,105.8 M235.199,105.8c0-1.988-1.611-3.6-3.6-3.6s-3.6,1.611-3.6,3.6s1.611,3.6,3.6,3.6
	S235.199,107.788,235.199,105.8"/>
<path fill-rule="evenodd" clip-rule="evenodd" fill="#FFFFFF" d="M298.6,105.8c0-1.656-1.344-3-3-3s-3,1.344-3,3s1.344,3,3,3
	S298.6,107.456,298.6,105.8"/>
<path fill-rule="evenodd" clip-rule="evenodd" d="M298,105.8c0-1.326-1.074-2.4-2.4-2.4s-2.4,1.074-2.4,2.4s1.074,2.4,2.4,2.4
	S298,107.126,298,105.8 M299.199,105.8c0-1.988-1.611-3.6-3.6-3.6s-3.6,1.611-3.6,3.6s1.611,3.6,3.6,3.6
	S299.199,107.788,299.199,105.8"/>
<path fill-rule="evenodd" clip-rule="evenodd" d="M139.2,201.8c0-1.988-1.611-3.6-3.6-3.6s-3.6,1.611-3.6,3.6s1.611,3.6,3.6,3.6
	S139.2,203.788,139.2,201.8"/>
<path fill-rule="evenodd" clip-rule="evenodd" fill="#FFFFFF" d="M106.6,105.8c0-1.656-1.344-3-3-3s-3,1.344-3,3s1.344,3,3,3
	S106.6,107.456,106.6,105.8"/>
<path fill-rule="evenodd" clip-rule="evenodd" d="M106,105.8c0-1.326-1.074-2.4-2.4-2.4s-2.4,1.074-2.4,2.4s1.074,2.4,2.4,2.4
	S106,107.126,106,105.8 M107.2,105.8c0-1.988-1.611-3.6-3.6-3.6s-3.6,1.611-3.6,3.6s1.611,3.6,3.6,3.6S107.2,107.788,107.2,105.8"/>
<path fill-rule="evenodd" clip-rule="evenodd" d="M11.2,201.8c0-1.988-1.611-3.6-3.6-3.6S4,199.812,4,201.8s1.611,3.6,3.6,3.6
	S11.2,203.788,11.2,201.8"/>
<path fill-rule="evenodd" clip-rule="evenodd" d="M267.199,201.8c0-1.988-1.611-3.6-3.6-3.6s-3.6,1.611-3.6,3.6s1.611,3.6,3.6,3.6
	S267.199,203.788,267.199,201.8"/>
<line fill="none" stroke="#000000" stroke-width="0.8" stroke-linejoin="round" stroke-miterlimit="10" x1="103.6" y1="73.8" x2="128.444" y2="86.222"/>
<line fill="none" stroke="#000000" stroke-width="0.8" stroke-linejoin="round" stroke-miterlimit="10" x1="103.6" y1="41.8" x2="160.444" y2="70.222"/>
<line fill="none" stroke="#000000" stroke-width="0.8" stroke-linejoin="round" stroke-miterlimit="10" x1="103.6" y1="9.8" x2="224.443" y2="70.222"/>
<line fill="none" stroke="#000000" stroke-width="0.8" stroke-linejoin="round" stroke-miterlimit="10" x1="206.756" y1="86.222" x2="295.6" y2="41.8"/>
<line fill="none" stroke="#000000" stroke-width="0.8" stroke-linejoin="round" stroke-miterlimit="10" x1="135.6" y1="201.8" x2="154.292" y2="145.722"/>
<line fill="none" stroke="#000000" stroke-width="0.8" stroke-linejoin="round" stroke-miterlimit="10" x1="244.969" y1="145.903" x2="263.6" y2="201.8"/>
<line fill="none" stroke="#000000" stroke-width="0.8" stroke-linejoin="round" stroke-miterlimit="10" x1="135.6" y1="201.8" x2="177.944" y2="159.456"/>
<line fill="none" stroke="#000000" stroke-width="0.8" stroke-linejoin="round" stroke-miterlimit="10" x1="135.6" y1="201.8" x2="208.74" y2="157.916"/>
<line fill="none" stroke="#000000" stroke-width="0.8" stroke-linejoin="round" stroke-miterlimit="10" x1="263.6" y1="201.8" x2="205.652" y2="167.032"/>
</svg>
