<?xml version="1.0" encoding="utf-8"?>
<!-- Generator: Adobe Illustrator 15.1.0, SVG Export Plug-In . SVG Version: 6.00 Build 0)  -->
<!DOCTYPE svg PUBLIC "-//W3C//DTD SVG 1.1//EN" "http://www.w3.org/Graphics/SVG/1.1/DTD/svg11.dtd">
<svg version="1.1" id="Layer_1" xmlns="http://www.w3.org/2000/svg" xmlns:xlink="http://www.w3.org/1999/xlink" x="0px" y="0px"
	 width="491px" height="653.334px" viewBox="0 0 491 653.334" enable-background="new 0 0 491 653.334" xml:space="preserve">
<g>
	<defs>
		<rect id="SVGID_1_" width="491" height="653.334"/>
	</defs>
	<clipPath id="SVGID_2_">
		<use xlink:href="#SVGID_1_"  overflow="visible"/>
	</clipPath>
	
		<path clip-path="url(#SVGID_2_)" fill="none" stroke="#231F20" stroke-width="0.8" stroke-linejoin="round" stroke-miterlimit="10" d="
		M374,263.334c0-70.692-57.309-128-128-128c-70.693,0-128,57.308-128,128c0,70.691,57.308,128,128,128
		C316.692,391.334,374,334.025,374,263.334"/>
	
		<path clip-path="url(#SVGID_2_)" fill="none" stroke="#231F20" stroke-width="0.8" stroke-linejoin="round" stroke-miterlimit="10" d="
		M374,391.334c0-70.692-57.309-128-128-128c-70.693,0-128,57.308-128,128c0,70.691,57.308,128,128,128
		C316.692,519.334,374,462.025,374,391.334"/>
	
		<line clip-path="url(#SVGID_2_)" fill="none" stroke="#231F20" stroke-width="0.8" stroke-linejoin="round" stroke-miterlimit="10" x1="135.168" y1="327.369" x2="246" y2="263.334"/>
	
		<line clip-path="url(#SVGID_2_)" fill="none" stroke="#231F20" stroke-width="0.8" stroke-linejoin="round" stroke-miterlimit="10" x1="246" y1="263.334" x2="356.833" y2="327.367"/>
	
		<line clip-path="url(#SVGID_2_)" fill="none" stroke="#231F20" stroke-width="0.8" stroke-linejoin="round" stroke-miterlimit="10" x1="356.833" y1="327.369" x2="246" y2="263.334"/>
	
		<line clip-path="url(#SVGID_2_)" fill="none" stroke="#231F20" stroke-width="0.8" stroke-linejoin="round" stroke-miterlimit="10" x1="246" y1="263.334" x2="135.168" y2="199.3"/>
	
		<line clip-path="url(#SVGID_2_)" fill="none" stroke="#231F20" stroke-width="0.8" stroke-linejoin="round" stroke-miterlimit="10" x1="135.168" y1="327.369" x2="246" y2="263.334"/>
	
		<line clip-path="url(#SVGID_2_)" fill="none" stroke="#231F20" stroke-width="0.8" stroke-linejoin="round" stroke-miterlimit="10" x1="246" y1="263.334" x2="356.833" y2="199.3"/>
	
		<line clip-path="url(#SVGID_2_)" fill="none" stroke="#231F20" stroke-width="0.8" stroke-linejoin="round" stroke-miterlimit="10" x1="246" y1="391.334" x2="246" y2="263.334"/>
	
		<line clip-path="url(#SVGID_2_)" fill="none" stroke="#231F20" stroke-width="0.8" stroke-linejoin="round" stroke-miterlimit="10" x1="246" y1="263.334" x2="246" y2="135.334"/>
	
		<rect x="243" y="516.334" clip-path="url(#SVGID_2_)" fill-rule="evenodd" clip-rule="evenodd" fill="#FFFFFF" width="6" height="6"/>
	
		<line clip-path="url(#SVGID_2_)" fill="none" stroke="#231F20" stroke-width="0.8" stroke-linejoin="round" stroke-miterlimit="10" x1="356.833" y1="327.369" x2="246" y2="391.334"/>
	
		<line clip-path="url(#SVGID_2_)" fill="none" stroke="#231F20" stroke-width="0.8" stroke-linejoin="round" stroke-miterlimit="10" x1="246" y1="391.334" x2="135.168" y2="455.301"/>
	
		<rect x="132.13" y="452.301" clip-path="url(#SVGID_2_)" fill-rule="evenodd" clip-rule="evenodd" fill="#FFFFFF" width="6" height="6"/>
	
		<line clip-path="url(#SVGID_2_)" fill="none" stroke="#231F20" stroke-width="0.8" stroke-linejoin="round" stroke-miterlimit="10" x1="135.168" y1="327.369" x2="246" y2="391.334"/>
	
		<line clip-path="url(#SVGID_2_)" fill="none" stroke="#231F20" stroke-width="0.8" stroke-linejoin="round" stroke-miterlimit="10" x1="246" y1="391.334" x2="356.833" y2="455.301"/>
	
		<rect x="353.708" y="452.229" clip-path="url(#SVGID_2_)" fill-rule="evenodd" clip-rule="evenodd" fill="#FFFFFF" width="6" height="6"/>
	
		<path clip-path="url(#SVGID_2_)" fill="none" stroke="#231F20" stroke-width="0.8" stroke-linejoin="round" stroke-miterlimit="10" d="
		M374,391.334c0-70.692-57.309-128-128-128c-70.693,0-128,57.308-128,128c0,70.691,57.308,128,128,128
		C316.692,519.334,374,462.025,374,391.334"/>
	
		<path clip-path="url(#SVGID_2_)" fill="none" stroke="#231F20" stroke-width="0.8" stroke-linejoin="round" stroke-miterlimit="10" d="
		M374,135.334c0-70.692-57.309-128-128-128c-70.693,0-128,57.308-128,128s57.308,128,128,128
		C316.692,263.334,374,206.026,374,135.334"/>
	
		<path clip-path="url(#SVGID_2_)" fill="none" stroke="#231F20" stroke-width="0.8" stroke-linejoin="round" stroke-miterlimit="10" d="
		M263.168,199.3c0-70.692-57.308-128-128-128s-128,57.308-128,128s57.308,128,128,128S263.168,269.992,263.168,199.3"/>
	
		<path clip-path="url(#SVGID_2_)" fill="none" stroke="#231F20" stroke-width="0.8" stroke-linejoin="round" stroke-miterlimit="10" d="
		M484.938,199.3c0-70.729-57.338-128.068-128.068-128.068S228.804,128.57,228.804,199.3s57.335,128.067,128.066,128.067
		S484.938,270.029,484.938,199.3"/>
	
		<path clip-path="url(#SVGID_2_)" fill="none" stroke="#231F20" stroke-width="0.8" stroke-linejoin="round" stroke-miterlimit="10" d="
		M263.129,455.299c0-70.691-57.307-127.999-128-127.999c-70.694,0-128,57.308-128,127.999c0,70.693,57.306,128,128,128
		C205.822,583.299,263.129,525.992,263.129,455.299"/>
	
		<path clip-path="url(#SVGID_2_)" fill="none" stroke="#231F20" stroke-width="0.8" stroke-linejoin="round" stroke-miterlimit="10" d="
		M373.922,519.334c0-70.691-57.309-128-128-128c-70.693,0-128,57.309-128,128s57.308,128,128,128
		C316.614,647.334,373.922,590.025,373.922,519.334"/>
	
		<path clip-path="url(#SVGID_2_)" fill="none" stroke="#231F20" stroke-width="0.8" stroke-linejoin="round" stroke-miterlimit="10" d="
		M484.543,455.232c0-70.598-57.23-127.828-127.83-127.828c-70.596,0-127.829,57.23-127.829,127.828s57.233,127.828,127.829,127.828
		C427.313,583.061,484.543,525.83,484.543,455.232"/>
	
		<path clip-path="url(#SVGID_2_)" fill="none" stroke="#231F20" stroke-width="0.8" stroke-linejoin="round" stroke-miterlimit="10" d="
		M484.78,327.404c0-70.698-57.311-128.01-128.01-128.01s-128.011,57.312-128.011,128.01c0,70.697,57.312,128.01,128.011,128.01
		S484.78,398.102,484.78,327.404"/>
	
		<path clip-path="url(#SVGID_2_)" fill="none" stroke="#231F20" stroke-width="0.8" stroke-linejoin="round" stroke-miterlimit="10" d="
		M262.295,327.369c0-70.211-56.917-127.127-127.127-127.127S8.042,257.158,8.042,327.369c0,70.209,56.916,127.125,127.126,127.125
		S262.295,397.578,262.295,327.369"/>
	
		<line clip-path="url(#SVGID_2_)" fill="none" stroke="#231F20" stroke-width="0.8" stroke-linejoin="round" stroke-miterlimit="10" x1="245.963" y1="135.334" x2="136.21" y2="325.528"/>
	
		<line clip-path="url(#SVGID_2_)" fill="none" stroke="#231F20" stroke-width="0.8" stroke-linejoin="round" stroke-miterlimit="10" x1="246" y1="135.334" x2="356.77" y2="327.404"/>
	
		<line clip-path="url(#SVGID_2_)" fill="none" stroke="#231F20" stroke-width="0.8" stroke-linejoin="round" stroke-miterlimit="10" x1="356.887" y1="199.396" x2="246" y2="389.639"/>
	
		<line clip-path="url(#SVGID_2_)" fill="none" stroke="#231F20" stroke-width="0.8" stroke-linejoin="round" stroke-miterlimit="10" x1="245.801" y1="391.217" x2="136.815" y2="200.252"/>
	
		<line clip-path="url(#SVGID_2_)" fill="none" stroke="#231F20" stroke-width="0.8" stroke-linejoin="round" stroke-miterlimit="10" x1="246.159" y1="519.334" x2="356.872" y2="327.367"/>
	
		<line clip-path="url(#SVGID_2_)" fill="none" stroke="#231F20" stroke-width="0.8" stroke-linejoin="round" stroke-miterlimit="10" x1="356.819" y1="455.414" x2="246" y2="265.098"/>
	
		<line clip-path="url(#SVGID_2_)" fill="none" stroke="#231F20" stroke-width="0.8" stroke-linejoin="round" stroke-miterlimit="10" x1="135.09" y1="455.299" x2="247.102" y2="261.388"/>
	
		<line clip-path="url(#SVGID_2_)" fill="none" stroke="#231F20" stroke-width="0.8" stroke-linejoin="round" stroke-miterlimit="10" x1="135.168" y1="327.369" x2="245.922" y2="519.334"/>
	
		<polyline clip-path="url(#SVGID_2_)" fill="none" stroke="#231F20" stroke-width="0.8" stroke-linejoin="round" stroke-miterlimit="10" points="
		135.686,200.254 135.168,327.367 136.21,457.141 	"/>
	
		<line clip-path="url(#SVGID_2_)" fill="none" stroke="#231F20" stroke-width="0.8" stroke-linejoin="round" stroke-miterlimit="10" x1="356.887" y1="199.396" x2="356.819" y2="455.414"/>
	
		<line clip-path="url(#SVGID_2_)" fill="none" stroke="#231F20" stroke-width="0.8" stroke-linejoin="round" stroke-miterlimit="10" x1="246.022" y1="391.371" x2="246.159" y2="519.334"/>
	<path clip-path="url(#SVGID_2_)" fill-rule="evenodd" clip-rule="evenodd" fill="#231F20" d="M249.6,391.334
		c0-1.988-1.611-3.6-3.6-3.6s-3.602,1.611-3.602,3.6s1.613,3.6,3.602,3.6S249.6,393.322,249.6,391.334"/>
	<path clip-path="url(#SVGID_2_)" fill-rule="evenodd" clip-rule="evenodd" fill="#231F20" d="M249.6,263.334
		c0-1.988-1.611-3.6-3.6-3.6s-3.602,1.611-3.602,3.6s1.613,3.6,3.602,3.6S249.6,265.322,249.6,263.334"/>
	<path clip-path="url(#SVGID_2_)" fill-rule="evenodd" clip-rule="evenodd" fill="#231F20" d="M138.768,327.369
		c0-1.989-1.612-3.601-3.6-3.601c-1.988,0-3.601,1.611-3.601,3.601c0,1.986,1.612,3.6,3.601,3.6
		C137.155,330.969,138.768,329.355,138.768,327.369"/>
	<path clip-path="url(#SVGID_2_)" fill-rule="evenodd" clip-rule="evenodd" fill="#231F20" d="M360.432,327.369
		c0-1.989-1.611-3.601-3.6-3.601s-3.6,1.611-3.6,3.601c0,1.986,1.611,3.6,3.6,3.6S360.432,329.355,360.432,327.369"/>
	
		<rect x="243.6" y="516.934" clip-path="url(#SVGID_2_)" fill-rule="evenodd" clip-rule="evenodd" fill="#FFFFFF" width="4.801" height="4.801"/>
	
		<rect x="243.6" y="516.934" clip-path="url(#SVGID_2_)" fill="none" stroke="#231F20" stroke-width="2" stroke-miterlimit="10" width="4.801" height="4.801"/>
	
		<rect x="132.73" y="452.9" clip-path="url(#SVGID_2_)" fill-rule="evenodd" clip-rule="evenodd" fill="#FFFFFF" width="4.8" height="4.799"/>
	
		<rect x="132.73" y="452.9" clip-path="url(#SVGID_2_)" fill="none" stroke="#231F20" stroke-width="2" stroke-miterlimit="10" width="4.8" height="4.799"/>
	
		<rect x="354.309" y="452.828" clip-path="url(#SVGID_2_)" fill-rule="evenodd" clip-rule="evenodd" fill="#FFFFFF" width="4.799" height="4.801"/>
	
		<rect x="354.309" y="452.828" clip-path="url(#SVGID_2_)" fill="none" stroke="#231F20" stroke-width="2" stroke-miterlimit="10" width="4.799" height="4.801"/>
	
		<rect x="132.168" y="196.3" clip-path="url(#SVGID_2_)" fill-rule="evenodd" clip-rule="evenodd" fill="#FFFFFF" width="6" height="6"/>
	
		<rect x="132.168" y="196.3" clip-path="url(#SVGID_2_)" fill="none" stroke="#231F20" stroke-width="2" stroke-miterlimit="10" width="6" height="6"/>
	
		<rect x="353.833" y="196.3" clip-path="url(#SVGID_2_)" fill-rule="evenodd" clip-rule="evenodd" fill="#FFFFFF" width="6" height="6"/>
	
		<rect x="353.833" y="196.3" clip-path="url(#SVGID_2_)" fill="none" stroke="#231F20" stroke-width="2" stroke-miterlimit="10" width="6" height="6"/>
	
		<rect x="243" y="132.334" clip-path="url(#SVGID_2_)" fill-rule="evenodd" clip-rule="evenodd" fill="#FFFFFF" width="6" height="6"/>
	
		<rect x="243" y="132.334" clip-path="url(#SVGID_2_)" fill="none" stroke="#231F20" stroke-width="2" stroke-miterlimit="10" width="6" height="6"/>
</g>
</svg>
