<?xml version="1.0" encoding="utf-8"?>
<!-- Generator: Adobe Illustrator 15.1.0, SVG Export Plug-In . SVG Version: 6.00 Build 0)  -->
<!DOCTYPE svg PUBLIC "-//W3C//DTD SVG 1.1//EN" "http://www.w3.org/Graphics/SVG/1.1/DTD/svg11.dtd">
<svg version="1.1" id="Layer_1" xmlns="http://www.w3.org/2000/svg" xmlns:xlink="http://www.w3.org/1999/xlink" x="0px" y="0px"
	 width="400px" height="400px" viewBox="0 0 400 400" enable-background="new 0 0 400 400" xml:space="preserve">
<g>
	<line fill="none" stroke="#009246" stroke-width="2" x1="18.27" y1="124.724" x2="383.163" y2="275.868"/>
	<line fill="none" stroke="#009246" stroke-width="2" x1="141.698" y1="142.69" x2="258.79" y2="257.788"/>
	<line fill="none" stroke="#009246" stroke-width="2" x1="200.948" y1="118.148" x2="200.95" y2="281.745"/>
	<line fill="none" stroke="#009246" stroke-width="2" x1="143.108" y1="257.786" x2="258.79" y2="142.105"/>
	<line fill="none" stroke="#009246" stroke-width="2" x1="18.27" y1="275.868" x2="381.635" y2="124.724"/>
	<line fill="none" stroke="#009246" stroke-width="2" x1="125.145" y1="17.848" x2="276.29" y2="382.743"/>
	<line fill="none" stroke="#009246" stroke-width="2" x1="125.145" y1="382.743" x2="276.29" y2="17.848"/>
	<line fill="none" stroke="#009246" stroke-width="2" x1="118.148" y1="199.052" x2="281.852" y2="200.949"/>
</g>
<g>
	<polygon fill="none" stroke="#0081CD" stroke-width="3" points="276.29,382.743 125.145,382.743 143.108,257.786 282.749,199.946 	
		"/>
	<polygon fill="none" stroke="#0081CD" stroke-width="3" points="258.79,142.105 119.15,199.946 125.145,17.848 276.29,17.848 	"/>
	<polygon fill="none" stroke="#0081CD" stroke-width="3" points="200.95,281.745 18.27,275.868 18.27,124.724 143.109,142.106 	"/>
	<polygon fill="none" stroke="#0081CD" stroke-width="3" points="383.163,275.868 258.79,257.788 200.948,118.148 383.163,124.724 	
		"/>
	<polygon fill="none" stroke="#0081CD" stroke-width="3" points="383.163,275.868 276.29,382.743 200.95,281.745 258.79,142.105 	
		"/>
	<polygon fill="none" stroke="#0081CD" stroke-width="3" points="381.635,124.724 281.336,200.531 141.698,142.69 274.762,17.848 	
		"/>
	<polygon fill="none" stroke="#0081CD" stroke-width="3" points="258.79,257.788 125.145,382.743 18.27,275.868 119.15,199.946 	"/>
	<polygon fill="none" stroke="#0081CD" stroke-width="3" points="200.948,118.148 143.108,257.786 18.27,124.724 125.145,17.848 	
		"/>
</g>
<circle fill="#FEC200" stroke="#000000" cx="200.948" cy="118.148" r="15"/>
<circle fill="#FEC200" stroke="#000000" cx="125.145" cy="17.848" r="15"/>
<circle fill="#FEC200" stroke="#000000" cx="142.792" cy="141.452" r="15"/>
<circle fill="#FEC200" stroke="#000000" cx="18.268" cy="124.13" r="15"/>
<circle fill="#FEC200" stroke="#000000" cx="118.148" cy="199.052" r="15"/>
<circle fill="#FEC200" stroke="#000000" cx="17.848" cy="274.855" r="15"/>
<circle fill="#FEC200" stroke="#000000" cx="141.451" cy="257.208" r="15"/>
<circle fill="#FEC200" stroke="#000000" cx="124.129" cy="381.732" r="15"/>
<circle fill="#FEC200" stroke="#000000" cx="199.052" cy="281.852" r="15"/>
<circle fill="#FEC200" stroke="#000000" cx="274.855" cy="382.152" r="15"/>
<circle fill="#FEC200" stroke="#000000" cx="257.208" cy="258.549" r="15"/>
<circle fill="#FEC200" stroke="#000000" cx="381.73" cy="275.871" r="15"/>
<circle fill="#FEC200" stroke="#000000" cx="281.852" cy="200.949" r="15"/>
<circle fill="#FEC200" stroke="#000000" cx="382.152" cy="125.146" r="15"/>
<circle fill="#FEC200" stroke="#000000" cx="258.548" cy="142.793" r="15"/>
<circle fill="#FEC200" stroke="#000000" cx="275.871" cy="18.269" r="15"/>
<g>
	<path d="M118.566,17.866c0,2.651-0.996,4.114-2.71,4.114c-1.523,0-2.567-1.427-2.591-4.006c0-2.626,1.14-4.054,2.723-4.054
		C117.619,13.92,118.566,15.384,118.566,17.866z M114.333,17.986c0,2.027,0.624,3.178,1.583,3.178c1.067,0,1.583-1.259,1.583-3.25
		c0-1.919-0.48-3.178-1.583-3.178C115.004,14.736,114.333,15.863,114.333,17.986z"/>
	<path d="M124.722,17.866c0,2.651-0.996,4.114-2.71,4.114c-1.523,0-2.567-1.427-2.591-4.006c0-2.626,1.14-4.054,2.723-4.054
		C123.774,13.92,124.722,15.384,124.722,17.866z M120.488,17.986c0,2.027,0.624,3.178,1.583,3.178c1.067,0,1.583-1.259,1.583-3.25
		c0-1.919-0.48-3.178-1.583-3.178C121.16,14.736,120.488,15.863,120.488,17.986z"/>
	<path d="M130.878,17.866c0,2.651-0.996,4.114-2.71,4.114c-1.523,0-2.567-1.427-2.591-4.006c0-2.626,1.14-4.054,2.723-4.054
		C129.93,13.92,130.878,15.384,130.878,17.866z M126.644,17.986c0,2.027,0.624,3.178,1.583,3.178c1.067,0,1.583-1.259,1.583-3.25
		c0-1.919-0.48-3.178-1.583-3.178C127.316,14.736,126.644,15.863,126.644,17.986z"/>
	<path d="M137.034,17.866c0,2.651-0.996,4.114-2.71,4.114c-1.523,0-2.567-1.427-2.591-4.006c0-2.626,1.14-4.054,2.723-4.054
		C136.086,13.92,137.034,15.384,137.034,17.866z M132.8,17.986c0,2.027,0.624,3.178,1.583,3.178c1.067,0,1.583-1.259,1.583-3.25
		c0-1.919-0.48-3.178-1.583-3.178C133.472,14.736,132.8,15.863,132.8,17.986z"/>
</g>
<g>
	<path d="M269.711,17.866c0,2.651-0.995,4.114-2.71,4.114c-1.523,0-2.566-1.427-2.591-4.006c0-2.626,1.14-4.054,2.723-4.054
		C268.764,13.92,269.711,15.384,269.711,17.866z M265.478,17.986c0,2.027,0.624,3.178,1.583,3.178c1.067,0,1.583-1.259,1.583-3.25
		c0-1.919-0.479-3.178-1.583-3.178C266.149,14.736,265.478,15.863,265.478,17.986z"/>
	<path d="M275.867,17.866c0,2.651-0.995,4.114-2.71,4.114c-1.523,0-2.566-1.427-2.591-4.006c0-2.626,1.14-4.054,2.723-4.054
		C274.92,13.92,275.867,15.384,275.867,17.866z M271.634,17.986c0,2.027,0.624,3.178,1.583,3.178c1.067,0,1.583-1.259,1.583-3.25
		c0-1.919-0.479-3.178-1.583-3.178C272.306,14.736,271.634,15.863,271.634,17.986z"/>
	<path d="M282.022,17.866c0,2.651-0.995,4.114-2.71,4.114c-1.523,0-2.566-1.427-2.591-4.006c0-2.626,1.14-4.054,2.723-4.054
		C281.075,13.92,282.022,15.384,282.022,17.866z M277.789,17.986c0,2.027,0.624,3.178,1.583,3.178c1.067,0,1.583-1.259,1.583-3.25
		c0-1.919-0.479-3.178-1.583-3.178C278.461,14.736,277.789,15.863,277.789,17.986z"/>
	<path d="M285.276,15.036h-0.023l-1.355,0.731l-0.204-0.804l1.703-0.912h0.899v7.796h-1.02V15.036z"/>
</g>
<g>
	<path d="M8.789,121.912H8.765l-1.355,0.731l-0.204-0.804l1.703-0.912h0.9v7.796h-1.02V121.912z"/>
	<path d="M17.847,124.742c0,2.651-0.996,4.114-2.71,4.114c-1.523,0-2.567-1.427-2.591-4.006c0-2.626,1.14-4.054,2.723-4.054
		C16.899,120.796,17.847,122.26,17.847,124.742z M13.613,124.862c0,2.027,0.624,3.178,1.583,3.178c1.067,0,1.583-1.259,1.583-3.25
		c0-1.919-0.48-3.178-1.583-3.178C14.285,121.612,13.613,122.739,13.613,124.862z"/>
	<path d="M24.003,124.742c0,2.651-0.996,4.114-2.71,4.114c-1.523,0-2.567-1.427-2.591-4.006c0-2.626,1.14-4.054,2.723-4.054
		C23.055,120.796,24.003,122.26,24.003,124.742z M19.769,124.862c0,2.027,0.624,3.178,1.583,3.178c1.067,0,1.583-1.259,1.583-3.25
		c0-1.919-0.48-3.178-1.583-3.178C20.441,121.612,19.769,122.739,19.769,124.862z"/>
	<path d="M30.159,124.742c0,2.651-0.996,4.114-2.71,4.114c-1.523,0-2.567-1.427-2.591-4.006c0-2.626,1.14-4.054,2.723-4.054
		C29.211,120.796,30.159,122.26,30.159,124.742z M25.925,124.862c0,2.027,0.624,3.178,1.583,3.178c1.067,0,1.583-1.259,1.583-3.25
		c0-1.919-0.48-3.178-1.583-3.178C26.597,121.612,25.925,122.739,25.925,124.862z"/>
</g>
<g>
	<path d="M133.628,139.294h-0.024l-1.355,0.731l-0.204-0.804l1.703-0.912h0.9v7.796h-1.02V139.294z"/>
	<path d="M142.686,142.124c0,2.651-0.996,4.114-2.71,4.114c-1.523,0-2.567-1.427-2.591-4.006c0-2.626,1.14-4.054,2.723-4.054
		C141.738,138.178,142.686,139.642,142.686,142.124z M138.452,142.244c0,2.027,0.624,3.178,1.583,3.178
		c1.067,0,1.583-1.259,1.583-3.25c0-1.919-0.48-3.178-1.583-3.178C139.124,138.994,138.452,140.121,138.452,142.244z"/>
	<path d="M148.842,142.124c0,2.651-0.996,4.114-2.71,4.114c-1.523,0-2.567-1.427-2.591-4.006c0-2.626,1.14-4.054,2.723-4.054
		C147.894,138.178,148.842,139.642,148.842,142.124z M144.608,142.244c0,2.027,0.624,3.178,1.583,3.178
		c1.067,0,1.583-1.259,1.583-3.25c0-1.919-0.48-3.178-1.583-3.178C145.28,138.994,144.608,140.121,144.608,142.244z"/>
	<path d="M152.095,139.294h-0.024l-1.355,0.731l-0.204-0.804l1.703-0.912h0.9v7.796h-1.02V139.294z"/>
</g>
<g>
	<path d="M194.37,118.166c0,2.651-0.996,4.114-2.71,4.114c-1.523,0-2.567-1.427-2.591-4.006c0-2.626,1.14-4.054,2.723-4.054
		C193.422,114.22,194.37,115.684,194.37,118.166z M190.136,118.286c0,2.027,0.624,3.178,1.583,3.178c1.067,0,1.583-1.259,1.583-3.25
		c0-1.919-0.48-3.178-1.583-3.178C190.808,115.036,190.136,116.163,190.136,118.286z"/>
	<path d="M200.525,118.166c0,2.651-0.996,4.114-2.71,4.114c-1.523,0-2.567-1.427-2.591-4.006c0-2.626,1.14-4.054,2.723-4.054
		C199.578,114.22,200.525,115.684,200.525,118.166z M196.292,118.286c0,2.027,0.624,3.178,1.583,3.178
		c1.067,0,1.583-1.259,1.583-3.25c0-1.919-0.48-3.178-1.583-3.178C196.963,115.036,196.292,116.163,196.292,118.286z"/>
	<path d="M203.778,115.336h-0.023l-1.355,0.731l-0.204-0.804l1.703-0.912h0.899v7.796h-1.02V115.336z"/>
	<path d="M212.837,118.166c0,2.651-0.995,4.114-2.71,4.114c-1.523,0-2.566-1.427-2.591-4.006c0-2.626,1.14-4.054,2.723-4.054
		C211.89,114.22,212.837,115.684,212.837,118.166z M208.604,118.286c0,2.027,0.624,3.178,1.583,3.178
		c1.067,0,1.583-1.259,1.583-3.25c0-1.919-0.479-3.178-1.583-3.178C209.275,115.036,208.604,116.163,208.604,118.286z"/>
</g>
<g>
	<path d="M111.569,199.07c0,2.651-0.996,4.114-2.71,4.114c-1.523,0-2.567-1.427-2.591-4.006c0-2.626,1.14-4.054,2.723-4.054
		C110.622,195.124,111.569,196.587,111.569,199.07z M107.335,199.19c0,2.027,0.624,3.178,1.583,3.178c1.067,0,1.583-1.26,1.583-3.25
		c0-1.919-0.48-3.179-1.583-3.179C108.007,195.939,107.335,197.067,107.335,199.19z"/>
	<path d="M114.823,196.239h-0.024l-1.355,0.732l-0.204-0.804l1.703-0.912h0.9v7.796h-1.02V196.239z"/>
	<path d="M123.881,199.07c0,2.651-0.996,4.114-2.71,4.114c-1.523,0-2.567-1.427-2.591-4.006c0-2.626,1.14-4.054,2.723-4.054
		C122.933,195.124,123.881,196.587,123.881,199.07z M119.647,199.19c0,2.027,0.624,3.178,1.583,3.178c1.067,0,1.583-1.26,1.583-3.25
		c0-1.919-0.48-3.179-1.583-3.179C120.319,195.939,119.647,197.067,119.647,199.19z"/>
	<path d="M130.037,199.07c0,2.651-0.996,4.114-2.71,4.114c-1.523,0-2.567-1.427-2.591-4.006c0-2.626,1.14-4.054,2.723-4.054
		C129.089,195.124,130.037,196.587,130.037,199.07z M125.803,199.19c0,2.027,0.624,3.178,1.583,3.178c1.067,0,1.583-1.26,1.583-3.25
		c0-1.919-0.48-3.179-1.583-3.179C126.475,195.939,125.803,197.067,125.803,199.19z"/>
</g>
<g>
	<path d="M250.629,257.807c0,2.65-0.995,4.113-2.71,4.113c-1.523,0-2.566-1.427-2.591-4.006c0-2.626,1.14-4.054,2.723-4.054
		C249.682,253.86,250.629,255.323,250.629,257.807z M246.396,257.926c0,2.027,0.624,3.179,1.583,3.179
		c1.067,0,1.583-1.26,1.583-3.25c0-1.919-0.479-3.179-1.583-3.179C247.067,254.676,246.396,255.804,246.396,257.926z"/>
	<path d="M253.883,254.976h-0.023l-1.355,0.731l-0.204-0.803l1.703-0.912h0.899v7.796h-1.02V254.976z"/>
	<path d="M260.038,254.976h-0.023l-1.355,0.731l-0.204-0.803l1.703-0.912h0.899v7.796h-1.02V254.976z"/>
	<path d="M269.097,257.807c0,2.65-0.995,4.113-2.71,4.113c-1.523,0-2.566-1.427-2.591-4.006c0-2.626,1.14-4.054,2.723-4.054
		C268.149,253.86,269.097,255.323,269.097,257.807z M264.863,257.926c0,2.027,0.624,3.179,1.583,3.179
		c1.067,0,1.583-1.26,1.583-3.25c0-1.919-0.479-3.179-1.583-3.179C265.535,254.676,264.863,255.804,264.863,257.926z"/>
</g>
<g>
	<path d="M8.367,272.043H8.343l-1.355,0.731l-0.204-0.803l1.703-0.912h0.9v7.796h-1.02V272.043z"/>
	<path d="M14.523,272.043h-0.024l-1.355,0.731l-0.204-0.803l1.703-0.912h0.9v7.796h-1.02V272.043z"/>
	<path d="M23.581,274.874c0,2.65-0.996,4.113-2.71,4.113c-1.523,0-2.567-1.427-2.591-4.006c0-2.626,1.14-4.054,2.723-4.054
		C22.633,270.928,23.581,272.391,23.581,274.874z M19.347,274.993c0,2.027,0.624,3.179,1.583,3.179c1.067,0,1.583-1.26,1.583-3.25
		c0-1.919-0.48-3.179-1.583-3.179C20.019,271.743,19.347,272.871,19.347,274.993z"/>
	<path d="M29.737,274.874c0,2.65-0.996,4.113-2.71,4.113c-1.523,0-2.567-1.427-2.591-4.006c0-2.626,1.14-4.054,2.723-4.054
		C28.789,270.928,29.737,272.391,29.737,274.874z M25.503,274.993c0,2.027,0.624,3.179,1.583,3.179c1.067,0,1.583-1.26,1.583-3.25
		c0-1.919-0.48-3.179-1.583-3.179C26.175,271.743,25.503,272.871,25.503,274.993z"/>
</g>
<g>
	<path d="M376.584,124.742c0,2.651-0.995,4.114-2.71,4.114c-1.523,0-2.566-1.427-2.591-4.006c0-2.626,1.14-4.054,2.723-4.054
		C375.637,120.796,376.584,122.26,376.584,124.742z M372.351,124.862c0,2.027,0.624,3.178,1.583,3.178
		c1.067,0,1.583-1.259,1.583-3.25c0-1.919-0.479-3.178-1.583-3.178C373.022,121.612,372.351,122.739,372.351,124.862z"/>
	<path d="M382.74,124.742c0,2.651-0.995,4.114-2.71,4.114c-1.523,0-2.566-1.427-2.591-4.006c0-2.626,1.14-4.054,2.723-4.054
		C381.793,120.796,382.74,122.26,382.74,124.742z M378.507,124.862c0,2.027,0.624,3.178,1.583,3.178c1.067,0,1.583-1.259,1.583-3.25
		c0-1.919-0.479-3.178-1.583-3.178C379.179,121.612,378.507,122.739,378.507,124.862z"/>
	<path d="M385.993,121.912h-0.023l-1.355,0.731l-0.204-0.804l1.703-0.912h0.899v7.796h-1.02V121.912z"/>
	<path d="M392.149,121.912h-0.023l-1.355,0.731l-0.204-0.804l1.703-0.912h0.899v7.796h-1.02V121.912z"/>
</g>
<g>
	<path d="M252.211,142.123c0,2.651-0.995,4.114-2.71,4.114c-1.523,0-2.566-1.427-2.591-4.006c0-2.626,1.14-4.054,2.723-4.054
		C251.264,138.177,252.211,139.641,252.211,142.123z M247.978,142.243c0,2.027,0.624,3.178,1.583,3.178
		c1.067,0,1.583-1.259,1.583-3.25c0-1.919-0.479-3.178-1.583-3.178C248.649,138.993,247.978,140.12,247.978,142.243z"/>
	<path d="M255.465,139.293h-0.023l-1.355,0.731l-0.204-0.804l1.703-0.912h0.899v7.796h-1.02V139.293z"/>
	<path d="M264.522,142.123c0,2.651-0.995,4.114-2.71,4.114c-1.523,0-2.566-1.427-2.591-4.006c0-2.626,1.14-4.054,2.723-4.054
		C263.575,138.177,264.522,139.641,264.522,142.123z M260.289,142.243c0,2.027,0.624,3.178,1.583,3.178
		c1.067,0,1.583-1.259,1.583-3.25c0-1.919-0.479-3.178-1.583-3.178C260.961,138.993,260.289,140.12,260.289,142.243z"/>
	<path d="M267.776,139.293h-0.023l-1.355,0.731l-0.204-0.804l1.703-0.912h0.899v7.796h-1.02V139.293z"/>
</g>
<g>
	<path d="M131.97,253.208h-0.024l-1.355,0.731l-0.204-0.803l1.703-0.912h0.9v7.796h-1.02V253.208z"/>
	<path d="M141.028,256.039c0,2.65-0.996,4.113-2.71,4.113c-1.523,0-2.567-1.427-2.591-4.006c0-2.626,1.14-4.054,2.723-4.054
		C140.081,252.093,141.028,253.556,141.028,256.039z M136.794,256.158c0,2.027,0.624,3.179,1.583,3.179
		c1.067,0,1.583-1.26,1.583-3.25c0-1.919-0.48-3.179-1.583-3.179C137.466,252.908,136.794,254.036,136.794,256.158z"/>
	<path d="M144.282,253.208h-0.024l-1.355,0.731l-0.204-0.803l1.703-0.912h0.9v7.796h-1.02V253.208z"/>
	<path d="M153.34,256.039c0,2.65-0.996,4.113-2.71,4.113c-1.523,0-2.567-1.427-2.591-4.006c0-2.626,1.14-4.054,2.723-4.054
		C152.392,252.093,153.34,253.556,153.34,256.039z M149.106,256.158c0,2.027,0.624,3.179,1.583,3.179c1.067,0,1.583-1.26,1.583-3.25
		c0-1.919-0.48-3.179-1.583-3.179C149.778,252.908,149.106,254.036,149.106,256.158z"/>
</g>
<g>
	<path d="M114.648,378.931h-0.024l-1.355,0.731l-0.204-0.803l1.703-0.912h0.9v7.796h-1.02V378.931z"/>
	<path d="M120.804,378.931h-0.024l-1.355,0.731l-0.204-0.803l1.703-0.912h0.9v7.796h-1.02V378.931z"/>
	<path d="M126.959,378.931h-0.024l-1.355,0.731l-0.204-0.803l1.703-0.912h0.9v7.796h-1.02V378.931z"/>
	<path d="M136.018,381.762c0,2.65-0.996,4.113-2.71,4.113c-1.523,0-2.567-1.427-2.591-4.006c0-2.626,1.14-4.054,2.723-4.054
		C135.07,377.815,136.018,379.278,136.018,381.762z M131.784,381.881c0,2.027,0.624,3.179,1.583,3.179
		c1.067,0,1.583-1.26,1.583-3.25c0-1.919-0.48-3.179-1.583-3.179C132.456,378.631,131.784,379.759,131.784,381.881z"/>
</g>
<g>
	<path d="M189.701,278.876h-0.024l-1.355,0.731l-0.204-0.803l1.703-0.912h0.9v7.796h-1.02V278.876z"/>
	<path d="M195.857,278.876h-0.024l-1.355,0.731l-0.204-0.803l1.703-0.912h0.9v7.796h-1.02V278.876z"/>
	<path d="M204.915,281.707c0,2.65-0.995,4.113-2.711,4.113c-1.522,0-2.566-1.427-2.59-4.006c0-2.626,1.139-4.054,2.722-4.054
		C203.968,277.761,204.915,279.224,204.915,281.707z M200.682,281.826c0,2.027,0.623,3.179,1.583,3.179
		c1.067,0,1.583-1.26,1.583-3.25c0-1.919-0.479-3.179-1.583-3.179C201.353,278.576,200.682,279.704,200.682,281.826z"/>
	<path d="M208.168,278.876h-0.023l-1.355,0.731l-0.204-0.803l1.703-0.912h0.899v7.796h-1.02V278.876z"/>
</g>
<g>
	<path d="M271.854,197.719h-0.023l-1.355,0.732l-0.204-0.804l1.703-0.912h0.899v7.796h-1.02V197.719z"/>
	<path d="M280.913,200.55c0,2.65-0.995,4.113-2.71,4.113c-1.523,0-2.566-1.427-2.591-4.006c0-2.626,1.14-4.054,2.723-4.054
		C279.966,196.604,280.913,198.067,280.913,200.55z M276.68,200.669c0,2.027,0.624,3.179,1.583,3.179c1.067,0,1.583-1.26,1.583-3.25
		c0-1.919-0.479-3.179-1.583-3.179C277.352,197.419,276.68,198.546,276.68,200.669z"/>
	<path d="M284.166,197.719h-0.023l-1.355,0.732l-0.204-0.804l1.703-0.912h0.899v7.796h-1.02V197.719z"/>
	<path d="M290.322,197.719h-0.023l-1.355,0.732l-0.204-0.804l1.703-0.912h0.899v7.796h-1.02V197.719z"/>
</g>
<g>
	<path d="M376.584,275.887c0,2.65-0.995,4.113-2.71,4.113c-1.523,0-2.566-1.427-2.591-4.006c0-2.626,1.14-4.054,2.723-4.054
		C375.637,271.94,376.584,273.403,376.584,275.887z M372.351,276.006c0,2.027,0.624,3.179,1.583,3.179
		c1.067,0,1.583-1.26,1.583-3.25c0-1.919-0.479-3.179-1.583-3.179C373.022,272.756,372.351,273.884,372.351,276.006z"/>
	<path d="M379.838,273.056h-0.023l-1.355,0.731l-0.204-0.803l1.703-0.912h0.899v7.796h-1.02V273.056z"/>
	<path d="M385.993,273.056h-0.023l-1.355,0.731l-0.204-0.803l1.703-0.912h0.899v7.796h-1.02V273.056z"/>
	<path d="M392.149,273.056h-0.023l-1.355,0.731l-0.204-0.803l1.703-0.912h0.899v7.796h-1.02V273.056z"/>
</g>
<g>
	<path d="M265.809,378.931h-0.023l-1.355,0.731l-0.204-0.803l1.703-0.912h0.899v7.796h-1.02V378.931z"/>
	<path d="M271.965,378.931h-0.023l-1.355,0.731l-0.204-0.803l1.703-0.912h0.899v7.796h-1.02V378.931z"/>
	<path d="M278.12,378.931h-0.023l-1.355,0.731l-0.204-0.803l1.703-0.912h0.899v7.796h-1.02V378.931z"/>
	<path d="M284.276,378.931h-0.023l-1.355,0.731l-0.204-0.803l1.703-0.912h0.899v7.796h-1.02V378.931z"/>
</g>
</svg>
