<?xml version="1.0" encoding="utf-8"?>
<!-- Generator: Adobe Illustrator 15.1.0, SVG Export Plug-In . SVG Version: 6.00 Build 0)  -->
<!DOCTYPE svg PUBLIC "-//W3C//DTD SVG 1.1//EN" "http://www.w3.org/Graphics/SVG/1.1/DTD/svg11.dtd">
<svg version="1.1" id="Layer_1" xmlns="http://www.w3.org/2000/svg" xmlns:xlink="http://www.w3.org/1999/xlink" x="0px" y="0px"
	 width="394px" height="386px" viewBox="0 0 394 386" enable-background="new 0 0 394 386" xml:space="preserve">
<g>
	<line fill="none" stroke="#0081CD" stroke-width="3" x1="198" y1="200" x2="198" y2="262.5"/>
	<line fill="none" stroke="#0081CD" stroke-width="3" x1="198" y1="200" x2="138.551" y2="219.326"/>
	<line fill="none" stroke="#0081CD" stroke-width="3" x1="198" y1="200" x2="161.277" y2="149.426"/>
	<line fill="none" stroke="#0081CD" stroke-width="3" x1="198" y1="200" x2="234.723" y2="149.426"/>
	<line fill="none" stroke="#0081CD" stroke-width="3" x1="198" y1="200" x2="257.449" y2="219.326"/>
	<path fill="none" stroke="#0081CD" stroke-width="3" d="M136.85,284.15c-60.564,9.58-117.428-31.748-127.01-92.312
		S41.59,74.41,102.15,64.828c35.092-5.553,70.723,6.027,95.85,31.146"/>
	<path fill="none" stroke="#0081CD" stroke-width="3" d="M99.074,167.85c-27.836-54.635-6.111-121.49,48.523-149.326
		C202.234-9.314,269.09,12.41,296.926,67.047c16.133,31.664,16.133,69.139,0,100.803"/>
	<path fill="none" stroke="#0081CD" stroke-width="3" d="M198,95.975c43.361-43.354,113.66-43.346,157.012,0.016
		c43.355,43.361,43.35,113.658-0.016,157.014c-25.123,25.121-60.754,36.699-95.846,31.146"/>
	<path fill="none" stroke="#0081CD" stroke-width="3" d="M296.926,167.85c54.629,27.846,76.344,94.707,48.496,149.336
		c-27.848,54.631-94.707,76.342-149.336,48.498c-31.652-16.135-53.672-46.445-59.236-81.533"/>
	<path fill="none" stroke="#0081CD" stroke-width="3" d="M259.15,284.15c-9.604,60.561-66.479,101.873-127.039,92.271
		S30.236,309.943,39.838,249.383c5.564-35.09,27.584-65.398,59.236-81.533"/>
	<path fill="none" stroke="#0081CD" stroke-width="3" d="M136.85,284.15c21.539-3.408,42.266-10.748,61.15-21.65"/>
	<path fill="none" stroke="#0081CD" stroke-width="3" d="M198,262.5c18.885,10.902,39.611,18.242,61.15,21.65"/>
	<path fill="none" stroke="#0081CD" stroke-width="3" d="M99.074,167.85c9.893,19.432,23.277,36.881,39.477,51.477"/>
	<path fill="none" stroke="#0081CD" stroke-width="3" d="M138.551,219.326c-4.533,21.32-5.109,43.293-1.701,64.824"/>
	<path fill="none" stroke="#0081CD" stroke-width="3" d="M198,95.975c-15.412,15.416-27.861,33.535-36.723,53.451"/>
	<path fill="none" stroke="#0081CD" stroke-width="3" d="M161.277,149.426c-21.691,2.277-42.773,8.523-62.203,18.424"/>
	<path fill="none" stroke="#0081CD" stroke-width="3" d="M296.926,167.85c-19.43-9.9-40.512-16.146-62.203-18.424"/>
	<path fill="none" stroke="#0081CD" stroke-width="3" d="M234.723,149.426c-8.861-19.916-21.311-38.035-36.723-53.451"/>
	<path fill="none" stroke="#0081CD" stroke-width="3" d="M259.15,284.15c3.408-21.531,2.832-43.504-1.701-64.824"/>
	<path fill="none" stroke="#0081CD" stroke-width="3" d="M257.449,219.326c16.199-14.596,29.584-32.045,39.477-51.477"/>
</g>
<circle fill="#FEC200" stroke="#000000" cx="161.277" cy="149.426" r="15"/>
<circle fill="#FEC200" stroke="#000000" cx="198" cy="200" r="15"/>
<circle fill="#FEC200" stroke="#000000" cx="198.434" cy="362.814" r="15"/>
<circle fill="#FEC200" stroke="#000000" cx="138.551" cy="219.326" r="15"/>
<circle fill="#FEC200" stroke="#000000" cx="234.723" cy="153.717" r="15"/>
<circle fill="#FEC200" stroke="#000000" cx="99.074" cy="67.771" r="15"/>
<circle fill="#FEC200" stroke="#000000" cx="38.452" cy="251.738" r="15"/>
<circle fill="#FEC200" stroke="#000000" cx="198" cy="262.5" r="15"/>
<circle fill="#FEC200" stroke="#000000" cx="357.555" cy="251.738" r="15"/>
<circle fill="#FEC200" stroke="#000000" cx="296.926" cy="63.464" r="15"/>
<circle fill="#FEC200" stroke="#000000" cx="259.395" cy="219.92" r="15"/>
<g>
	<path d="M191.422,200.018c0,2.651-0.996,4.114-2.711,4.114c-1.523,0-2.566-1.427-2.591-4.006c0-2.626,1.14-4.054,2.723-4.054
		C190.474,196.072,191.422,197.536,191.422,200.018z M187.188,200.139c0,2.026,0.624,3.178,1.584,3.178
		c1.066,0,1.582-1.26,1.582-3.25c0-1.92-0.479-3.179-1.582-3.179C187.859,196.888,187.188,198.016,187.188,200.139z"/>
	<path d="M197.577,200.018c0,2.651-0.995,4.114-2.71,4.114c-1.523,0-2.567-1.427-2.592-4.006c0-2.626,1.141-4.054,2.723-4.054
		C196.629,196.072,197.577,197.536,197.577,200.018z M193.344,200.139c0,2.026,0.623,3.178,1.583,3.178
		c1.067,0,1.583-1.26,1.583-3.25c0-1.92-0.48-3.179-1.583-3.179C194.016,196.888,193.344,198.016,193.344,200.139z"/>
	<path d="M203.732,200.018c0,2.651-0.995,4.114-2.71,4.114c-1.523,0-2.567-1.427-2.591-4.006c0-2.626,1.14-4.054,2.723-4.054
		C202.785,196.072,203.732,197.536,203.732,200.018z M199.499,200.139c0,2.026,0.624,3.178,1.583,3.178
		c1.068,0,1.584-1.26,1.584-3.25c0-1.92-0.48-3.179-1.584-3.179C200.171,196.888,199.499,198.016,199.499,200.139z"/>
	<path d="M209.889,200.018c0,2.651-0.996,4.114-2.711,4.114c-1.523,0-2.566-1.427-2.59-4.006c0-2.626,1.139-4.054,2.723-4.054
		C208.941,196.072,209.889,197.536,209.889,200.018z M205.654,200.139c0,2.026,0.625,3.178,1.584,3.178
		c1.067,0,1.583-1.26,1.583-3.25c0-1.92-0.479-3.179-1.583-3.179C206.326,196.888,205.654,198.016,205.654,200.139z"/>
</g>
<g>
	<path d="M253.234,219.517c0,2.651-0.995,4.114-2.71,4.114c-1.523,0-2.566-1.428-2.591-4.006c0-2.627,1.14-4.055,2.723-4.055
		C252.287,215.57,253.234,217.034,253.234,219.517z M249.001,219.637c0,2.027,0.624,3.178,1.583,3.178
		c1.067,0,1.583-1.259,1.583-3.25c0-1.919-0.479-3.178-1.583-3.178C249.673,216.387,249.001,217.514,249.001,219.637z"/>
	<path d="M259.391,219.517c0,2.651-0.995,4.114-2.71,4.114c-1.523,0-2.566-1.428-2.591-4.006c0-2.627,1.14-4.055,2.723-4.055
		C258.443,215.57,259.391,217.034,259.391,219.517z M255.157,219.637c0,2.027,0.624,3.178,1.583,3.178
		c1.067,0,1.583-1.259,1.583-3.25c0-1.919-0.479-3.178-1.583-3.178C255.829,216.387,255.157,217.514,255.157,219.637z"/>
	<path d="M265.547,219.517c0,2.651-0.995,4.114-2.71,4.114c-1.523,0-2.566-1.428-2.591-4.006c0-2.627,1.14-4.055,2.723-4.055
		C264.6,215.57,265.547,217.034,265.547,219.517z M261.313,219.637c0,2.027,0.624,3.178,1.583,3.178c1.067,0,1.583-1.259,1.583-3.25
		c0-1.919-0.479-3.178-1.583-3.178C261.985,216.387,261.313,217.514,261.313,219.637z"/>
	<path d="M268.801,216.687h-0.023l-1.355,0.731l-0.204-0.804l1.703-0.911h0.899v7.795h-1.02V216.687z"/>
</g>
<g>
	<path d="M129.072,217.107h-0.024l-1.355,0.732l-0.204-0.805l1.703-0.911h0.9v7.796h-1.02V217.107z"/>
	<path d="M138.13,219.938c0,2.651-0.995,4.114-2.71,4.114c-1.523,0-2.567-1.427-2.592-4.006c0-2.626,1.141-4.054,2.723-4.054
		C137.182,215.992,138.13,217.455,138.13,219.938z M133.896,220.059c0,2.026,0.623,3.178,1.583,3.178c1.067,0,1.583-1.26,1.583-3.25
		c0-1.92-0.48-3.179-1.583-3.179C134.568,216.808,133.896,217.936,133.896,220.059z"/>
	<path d="M144.285,219.938c0,2.651-0.995,4.114-2.71,4.114c-1.523,0-2.567-1.427-2.591-4.006c0-2.626,1.14-4.054,2.723-4.054
		C143.338,215.992,144.285,217.455,144.285,219.938z M140.052,220.059c0,2.026,0.624,3.178,1.583,3.178
		c1.068,0,1.584-1.26,1.584-3.25c0-1.92-0.48-3.179-1.584-3.179C140.724,216.808,140.052,217.936,140.052,220.059z"/>
	<path d="M150.441,219.938c0,2.651-0.996,4.114-2.711,4.114c-1.523,0-2.566-1.427-2.59-4.006c0-2.626,1.139-4.054,2.723-4.054
		C149.494,215.992,150.441,217.455,150.441,219.938z M146.207,220.059c0,2.026,0.625,3.178,1.584,3.178
		c1.067,0,1.583-1.26,1.583-3.25c0-1.92-0.479-3.179-1.583-3.179C146.879,216.808,146.207,217.936,146.207,220.059z"/>
</g>
<g>
	<path d="M189.27,360.656h-0.023l-1.355,0.732l-0.203-0.805l1.702-0.911h0.899v7.796h-1.02V360.656z"/>
	<path d="M198.328,363.486c0,2.651-0.996,4.114-2.711,4.114c-1.523,0-2.566-1.427-2.59-4.006c0-2.626,1.139-4.054,2.723-4.054
		C197.381,359.541,198.328,361.004,198.328,363.486z M194.094,363.607c0,2.026,0.625,3.178,1.584,3.178
		c1.067,0,1.583-1.26,1.583-3.25c0-1.92-0.479-3.179-1.583-3.179C194.766,360.356,194.094,361.484,194.094,363.607z"/>
	<path d="M204.484,363.486c0,2.651-0.996,4.114-2.711,4.114c-1.523,0-2.566-1.427-2.591-4.006c0-2.626,1.14-4.054,2.723-4.054
		C203.536,359.541,204.484,361.004,204.484,363.486z M200.25,363.607c0,2.026,0.624,3.178,1.584,3.178
		c1.066,0,1.582-1.26,1.582-3.25c0-1.92-0.479-3.179-1.582-3.179C200.922,360.356,200.25,361.484,200.25,363.607z"/>
	<path d="M207.737,360.656h-0.024l-1.355,0.732l-0.203-0.805l1.703-0.911h0.899v7.796h-1.02V360.656z"/>
</g>
<g>
	<path d="M154.699,149.444c0,2.651-0.996,4.114-2.711,4.114c-1.523,0-2.566-1.427-2.591-4.006c0-2.626,1.14-4.054,2.723-4.054
		C153.751,145.498,154.699,146.961,154.699,149.444z M150.465,149.564c0,2.027,0.624,3.178,1.584,3.178
		c1.066,0,1.582-1.259,1.582-3.25c0-1.919-0.479-3.178-1.582-3.178C151.137,146.313,150.465,147.441,150.465,149.564z"/>
	<path d="M160.854,149.444c0,2.651-0.995,4.114-2.71,4.114c-1.523,0-2.567-1.427-2.592-4.006c0-2.626,1.141-4.054,2.723-4.054
		C159.906,145.498,160.854,146.961,160.854,149.444z M156.621,149.564c0,2.027,0.623,3.178,1.583,3.178
		c1.067,0,1.583-1.259,1.583-3.25c0-1.919-0.48-3.178-1.583-3.178C157.293,146.313,156.621,147.441,156.621,149.564z"/>
	<path d="M164.107,146.614h-0.023l-1.355,0.731l-0.204-0.804l1.703-0.912h0.899v7.796h-1.02V146.614z"/>
	<path d="M173.166,149.444c0,2.651-0.995,4.114-2.71,4.114c-1.523,0-2.566-1.427-2.591-4.006c0-2.626,1.14-4.054,2.723-4.054
		C172.219,145.498,173.166,146.961,173.166,149.444z M168.933,149.564c0,2.027,0.624,3.178,1.583,3.178
		c1.067,0,1.583-1.259,1.583-3.25c0-1.919-0.479-3.178-1.583-3.178C169.604,146.313,168.933,147.441,168.933,149.564z"/>
</g>
<g>
	<path d="M228.145,153.735c0,2.651-0.996,4.114-2.711,4.114c-1.523,0-2.566-1.427-2.591-4.006c0-2.626,1.14-4.054,2.723-4.054
		C227.196,149.79,228.145,151.253,228.145,153.735z M223.91,153.855c0,2.027,0.624,3.178,1.584,3.178c1.066,0,1.582-1.26,1.582-3.25
		c0-1.919-0.479-3.179-1.582-3.179C224.582,150.605,223.91,151.732,223.91,153.855z"/>
	<path d="M231.397,150.905h-0.024l-1.355,0.732l-0.203-0.804l1.703-0.912h0.899v7.796h-1.02V150.905z"/>
	<path d="M240.455,153.735c0,2.651-0.995,4.114-2.71,4.114c-1.523,0-2.567-1.427-2.591-4.006c0-2.626,1.14-4.054,2.723-4.054
		C239.508,149.79,240.455,151.253,240.455,153.735z M236.222,153.855c0,2.027,0.624,3.178,1.583,3.178
		c1.068,0,1.584-1.26,1.584-3.25c0-1.919-0.48-3.179-1.584-3.179C236.894,150.605,236.222,151.732,236.222,153.855z"/>
	<path d="M246.611,153.735c0,2.651-0.996,4.114-2.711,4.114c-1.523,0-2.566-1.427-2.59-4.006c0-2.626,1.139-4.054,2.723-4.054
		C245.664,149.79,246.611,151.253,246.611,153.735z M242.377,153.855c0,2.027,0.625,3.178,1.584,3.178
		c1.067,0,1.583-1.26,1.583-3.25c0-1.919-0.479-3.179-1.583-3.179C243.049,150.605,242.377,151.732,242.377,153.855z"/>
</g>
<g>
	<path d="M89.594,64.959h-0.024l-1.355,0.731l-0.204-0.803l1.703-0.912h0.9v7.796h-1.02V64.959z"/>
	<path d="M95.749,64.959h-0.024l-1.355,0.731l-0.203-0.803l1.703-0.912h0.899v7.796h-1.02V64.959z"/>
	<path d="M104.807,67.79c0,2.65-0.995,4.113-2.71,4.113c-1.523,0-2.567-1.427-2.591-4.006c0-2.626,1.14-4.054,2.723-4.054
		C103.859,63.844,104.807,65.307,104.807,67.79z M100.573,67.909c0,2.027,0.624,3.179,1.583,3.179c1.068,0,1.584-1.26,1.584-3.25
		c0-1.919-0.48-3.179-1.584-3.179C101.245,64.659,100.573,65.787,100.573,67.909z"/>
	<path d="M110.963,67.79c0,2.65-0.996,4.113-2.711,4.113c-1.523,0-2.566-1.427-2.59-4.006c0-2.626,1.139-4.054,2.723-4.054
		C110.016,63.844,110.963,65.307,110.963,67.79z M106.729,67.909c0,2.027,0.625,3.179,1.584,3.179c1.067,0,1.583-1.26,1.583-3.25
		c0-1.919-0.479-3.179-1.583-3.179C107.4,64.659,106.729,65.787,106.729,67.909z"/>
</g>
<g>
	<path d="M291.357,63.061c0,2.651-0.995,4.114-2.71,4.114c-1.523,0-2.566-1.427-2.591-4.006c0-2.626,1.14-4.054,2.723-4.054
		C290.41,59.115,291.357,60.578,291.357,63.061z M287.124,63.181c0,2.027,0.624,3.178,1.583,3.178c1.067,0,1.583-1.259,1.583-3.25
		c0-1.919-0.479-3.178-1.583-3.178C287.796,59.93,287.124,61.058,287.124,63.181z"/>
	<path d="M297.514,63.061c0,2.651-0.995,4.114-2.71,4.114c-1.523,0-2.566-1.427-2.591-4.006c0-2.626,1.14-4.054,2.723-4.054
		C296.566,59.115,297.514,60.578,297.514,63.061z M293.28,63.181c0,2.027,0.624,3.178,1.583,3.178c1.067,0,1.583-1.259,1.583-3.25
		c0-1.919-0.479-3.178-1.583-3.178C293.952,59.93,293.28,61.058,293.28,63.181z"/>
	<path d="M300.768,60.23h-0.023l-1.355,0.731l-0.204-0.804l1.703-0.912h0.899v7.796h-1.02V60.23z"/>
	<path d="M306.924,60.23H306.9l-1.355,0.731l-0.204-0.804l1.703-0.912h0.899v7.796h-1.02V60.23z"/>
</g>
<g>
	<path d="M29.102,248.763h-0.024l-1.355,0.731l-0.204-0.803l1.703-0.912h0.9v7.796h-1.02V248.763z"/>
	<path d="M35.257,248.763h-0.024l-1.355,0.731l-0.204-0.803l1.703-0.912h0.9v7.796h-1.02V248.763z"/>
	<path d="M44.315,251.594c0,2.65-0.995,4.113-2.711,4.113c-1.522,0-2.566-1.427-2.59-4.006c0-2.626,1.139-4.054,2.722-4.054
		C43.368,247.647,44.315,249.11,44.315,251.594z M40.082,251.713c0,2.027,0.623,3.179,1.583,3.179c1.067,0,1.583-1.26,1.583-3.25
		c0-1.919-0.479-3.179-1.583-3.179C40.753,248.463,40.082,249.591,40.082,251.713z"/>
	<path d="M47.568,248.763h-0.023l-1.355,0.731l-0.204-0.803l1.703-0.912h0.899v7.796h-1.02V248.763z"/>
</g>
<g>
	<path d="M347.558,248.508h-0.023l-1.355,0.732l-0.204-0.805l1.703-0.911h0.899v7.796h-1.02V248.508z"/>
	<path d="M356.616,251.339c0,2.65-0.995,4.113-2.71,4.113c-1.523,0-2.566-1.427-2.591-4.006c0-2.626,1.14-4.054,2.723-4.054
		C355.669,247.393,356.616,248.855,356.616,251.339z M352.383,251.458c0,2.027,0.624,3.179,1.583,3.179
		c1.067,0,1.583-1.26,1.583-3.25c0-1.919-0.479-3.179-1.583-3.179C353.055,248.208,352.383,249.336,352.383,251.458z"/>
	<path d="M359.87,248.508h-0.023l-1.355,0.732l-0.204-0.805l1.703-0.911h0.899v7.796h-1.02V248.508z"/>
	<path d="M366.026,248.508h-0.023l-1.355,0.732l-0.204-0.805l1.703-0.911h0.899v7.796h-1.02V248.508z"/>
</g>
<g>
	<path d="M188.953,259.278h-0.023l-1.355,0.731l-0.204-0.803l1.703-0.912h0.899v7.796h-1.02V259.278z"/>
	<path d="M195.109,259.278h-0.023l-1.355,0.731l-0.204-0.803l1.703-0.912h0.899v7.796h-1.02V259.278z"/>
	<path d="M201.266,259.278h-0.023l-1.355,0.731l-0.204-0.803l1.703-0.912h0.899v7.796h-1.02V259.278z"/>
	<path d="M207.422,259.278h-0.023l-1.355,0.731l-0.204-0.803l1.703-0.912h0.899v7.796h-1.02V259.278z"/>
</g>
</svg>
