<?xml version="1.0" standalone="no"?>
<!DOCTYPE svg PUBLIC "-//W3C//DTD SVG 1.1//EN" 
  "http://www.w3.org/Graphics/SVG/1.1/DTD/svg11.dtd">
<svg width="89" height="89" viewBox="-0 -0 89 89"
     xmlns="http://www.w3.org/2000/svg" version="1.1">
  <g style="fill:none; stroke:black">
    <path d="M 22.49,22.49 A 76.85,76.85 1 0 0 45.00,76.83" />
    <path d="M 45.00,13.17 A 76.85,76.85 1 0 0 22.49,67.51" />
    <path d="M 67.51,22.49 A 76.85,76.85 1 0 0 13.17,45.00" />
    <path d="M 76.83,45.00 A 76.85,76.85 1 0 0 22.49,22.49" />
    <path d="M 67.51,67.51 A 76.85,76.85 1 0 0 45.00,13.17" />
    <path d="M 45.00,76.83 A 76.85,76.85 1 0 0 67.51,22.49" />
    <path d="M 22.49,67.51 A 76.85,76.85 1 0 0 76.83,45.00" />
    <path d="M 13.17,45.00 A 76.85,76.85 1 0 0 67.51,67.51" />
    <path d="M 22.49,67.51 A 13.18,13.18 1 0 0 45.00,76.83" />
    <path d="M 13.17,45.00 A 13.18,13.18 1 0 0 22.49,67.51" />
    <path d="M 22.49,22.49 A 13.18,13.18 1 0 0 13.17,45.00" />
    <path d="M 45.00,13.17 A 13.18,13.18 1 0 0 22.49,22.49" />
    <path d="M 67.51,22.49 A 13.18,13.18 1 0 0 45.00,13.17" />
    <path d="M 76.83,45.00 A 13.18,13.18 1 0 0 67.51,22.49" />
    <path d="M 67.51,67.51 A 13.18,13.18 1 0 0 76.83,45.00" />
    <path d="M 45.00,76.83 A 13.18,13.18 1 0 0 67.51,67.51" />
  </g>
  <g style="fill:red; stroke:black">
    <circle cx="45.00" cy="76.83" r="5.0" />
    <circle cx="22.49" cy="67.51" r="5.0" />
    <circle cx="13.17" cy="45.00" r="5.0" />
    <circle cx="22.49" cy="22.49" r="5.0" />
    <circle cx="45.00" cy="13.17" r="5.0" />
    <circle cx="67.51" cy="22.49" r="5.0" />
    <circle cx="76.83" cy="45.00" r="5.0" />
    <circle cx="67.51" cy="67.51" r="5.0" />
  </g>
</svg>
