<?xml version="1.0" encoding="utf-8"?>
<!-- Generator: Adobe Illustrator 15.1.0, SVG Export Plug-In . SVG Version: 6.00 Build 0)  -->
<!DOCTYPE svg PUBLIC "-//W3C//DTD SVG 1.1//EN" "http://www.w3.org/Graphics/SVG/1.1/DTD/svg11.dtd">
<svg version="1.1" id="Layer_1" xmlns="http://www.w3.org/2000/svg" xmlns:xlink="http://www.w3.org/1999/xlink" x="0px" y="0px"
	 width="344.983px" height="337.483px" viewBox="0 0 344.983 337.483" enable-background="new 0 0 344.983 337.483"
	 xml:space="preserve">
<g>
	<line fill="none" stroke="#0081CD" stroke-width="3" x1="174.401" y1="213.628" x2="174.401" y2="276.128"/>
	<line fill="none" stroke="#0081CD" stroke-width="3" x1="127.1" y1="179.276" x2="67.651" y2="198.577"/>
	<line fill="none" stroke="#0081CD" stroke-width="3" x1="145.176" y1="123.677" x2="108.426" y2="73.103"/>
	<line fill="none" stroke="#0081CD" stroke-width="3" x1="203.624" y1="123.677" x2="240.377" y2="73.103"/>
	<line fill="none" stroke="#0081CD" stroke-width="3" x1="221.702" y1="179.276" x2="281.151" y2="198.577"/>
	<path fill="none" stroke="#0081CD" stroke-width="3" d="M127.1,179.276c14.523,13.072,30.377,24.584,47.301,34.352"/>
	<path fill="none" stroke="#0081CD" stroke-width="3" d="M145.176,123.677c-7.951,17.85-14.01,36.486-18.076,55.6"/>
	<path fill="none" stroke="#0081CD" stroke-width="3" d="M203.624,123.677c-19.428-2.043-39.018-2.043-58.447,0"/>
	<path fill="none" stroke="#0081CD" stroke-width="3" d="M221.702,179.276c-4.068-19.113-10.123-37.75-18.078-55.6"/>
	<path fill="none" stroke="#0081CD" stroke-width="3" d="M174.401,213.628c16.924-9.768,32.777-21.279,47.301-34.352"/>
	<path fill="none" stroke="#0081CD" stroke-width="3" d="M174.401,276.128c-52.189,30.141-118.932,12.266-149.074-39.922
		c-30.141-52.189-12.27-118.932,39.922-149.074c13.25-7.652,27.959-12.432,43.178-14.029"/>
	<path fill="none" stroke="#0081CD" stroke-width="3" d="M67.651,198.577c-44.777-40.34-48.375-109.34-8.037-154.117
		c40.34-44.777,109.34-48.375,154.119-8.037c11.35,10.227,20.43,22.723,26.645,36.68"/>
	<path fill="none" stroke="#0081CD" stroke-width="3" d="M108.426,73.103c24.521-55.057,89.029-79.809,144.082-55.287
		c55.057,24.521,79.807,89.029,55.287,144.084c-6.217,13.955-15.293,26.451-26.645,36.678"/>
	<path fill="none" stroke="#0081CD" stroke-width="3" d="M240.377,73.103c59.938,6.295,103.422,59.986,97.129,119.924
		c-6.297,59.939-59.99,103.426-119.926,97.129c-15.219-1.596-29.93-6.375-43.18-14.027"/>
	<path fill="none" stroke="#0081CD" stroke-width="3" d="M281.151,198.577c12.506,58.957-25.15,116.887-84.109,129.391
		c-58.953,12.506-116.885-25.15-129.391-84.105c-3.168-14.93-3.168-30.355,0-45.285"/>
</g>
<circle fill="#FEC200" stroke="#000000" cx="174.412" cy="275.471" r="15"/>
<circle fill="#FEC200" stroke="#000000" cx="67.651" cy="198.155" r="15"/>
<circle fill="#FEC200" stroke="#000000" cx="145.176" cy="123.677" r="15"/>
<circle fill="#FEC200" stroke="#000000" cx="127.1" cy="179.273" r="15"/>
<circle fill="#FEC200" stroke="#000000" cx="240.377" cy="73.103" r="15"/>
<circle fill="#FEC200" stroke="#000000" cx="174.729" cy="213.155" r="15"/>
<circle fill="#FEC200" stroke="#000000" cx="221.702" cy="179.276" r="15"/>
<circle fill="#FEC200" stroke="#000000" cx="108.426" cy="73.103" r="15"/>
<circle fill="#FEC200" stroke="#000000" cx="281.151" cy="198.577" r="15"/>
<circle fill="#FEC200" stroke="#000000" cx="203.624" cy="123.677" r="15"/>
<g>
	<path d="M165.248,273.313h-0.024l-1.355,0.73l-0.204-0.803l1.703-0.912h0.9v7.796h-1.02V273.313z"/>
	<path d="M174.306,276.144c0,2.65-0.996,4.113-2.71,4.113c-1.523,0-2.567-1.428-2.591-4.006c0-2.627,1.14-4.054,2.723-4.054
		C173.358,272.197,174.306,273.661,174.306,276.144z M170.072,276.263c0,2.027,0.624,3.179,1.583,3.179
		c1.067,0,1.583-1.259,1.583-3.251c0-1.918-0.48-3.178-1.583-3.178C170.744,273.013,170.072,274.14,170.072,276.263z"/>
	<path d="M180.461,276.144c0,2.65-0.996,4.113-2.711,4.113c-1.523,0-2.566-1.428-2.59-4.006c0-2.627,1.139-4.054,2.723-4.054
		C179.514,272.197,180.461,273.661,180.461,276.144z M176.227,276.263c0,2.027,0.625,3.179,1.584,3.179
		c1.067,0,1.583-1.259,1.583-3.251c0-1.918-0.479-3.178-1.583-3.178C176.899,273.013,176.227,274.14,176.227,276.263z"/>
	<path d="M183.715,273.313h-0.024l-1.355,0.73l-0.204-0.803l1.703-0.912h0.9v7.796h-1.02V273.313z"/>
</g>
<g>
	<path d="M168.149,212.413c0,2.65-0.995,4.113-2.71,4.113c-1.523,0-2.566-1.427-2.591-4.006c0-2.626,1.14-4.054,2.723-4.054
		C167.202,208.467,168.149,209.93,168.149,212.413z M163.916,212.532c0,2.027,0.624,3.179,1.583,3.179
		c1.067,0,1.583-1.26,1.583-3.25c0-1.919-0.479-3.179-1.583-3.179C164.588,209.282,163.916,210.41,163.916,212.532z"/>
	<path d="M171.403,209.582h-0.023l-1.355,0.731l-0.204-0.803l1.703-0.912h0.899v7.796h-1.02V209.582z"/>
	<path d="M177.559,209.582h-0.023l-1.355,0.731l-0.203-0.803l1.703-0.912h0.898v7.796h-1.02V209.582z"/>
	<path d="M186.618,212.413c0,2.65-0.994,4.113-2.709,4.113c-1.523,0-2.566-1.427-2.592-4.006c0-2.626,1.141-4.054,2.723-4.054
		C185.67,208.467,186.618,209.93,186.618,212.413z M182.385,212.532c0,2.027,0.623,3.179,1.582,3.179c1.068,0,1.584-1.26,1.584-3.25
		c0-1.919-0.48-3.179-1.584-3.179C183.057,209.282,182.385,210.41,182.385,212.532z"/>
</g>
<g>
	<path d="M58.17,195.343h-0.024l-1.355,0.731l-0.204-0.803l1.703-0.912h0.9v7.796h-1.02V195.343z"/>
	<path d="M64.326,195.343h-0.024l-1.355,0.731l-0.204-0.803l1.703-0.912h0.9v7.796h-1.02V195.343z"/>
	<path d="M73.384,198.174c0,2.65-0.996,4.113-2.71,4.113c-1.523,0-2.567-1.427-2.591-4.006c0-2.626,1.14-4.054,2.723-4.054
		C72.436,194.228,73.384,195.69,73.384,198.174z M69.15,198.293c0,2.027,0.624,3.179,1.583,3.179c1.067,0,1.583-1.26,1.583-3.25
		c0-1.919-0.48-3.179-1.583-3.179C69.822,195.043,69.15,196.171,69.15,198.293z"/>
	<path d="M79.54,198.174c0,2.65-0.996,4.113-2.71,4.113c-1.523,0-2.567-1.427-2.591-4.006c0-2.626,1.14-4.054,2.723-4.054
		C78.592,194.228,79.54,195.69,79.54,198.174z M75.306,198.293c0,2.027,0.624,3.179,1.583,3.179c1.067,0,1.583-1.26,1.583-3.25
		c0-1.919-0.48-3.179-1.583-3.179C75.978,195.043,75.306,196.171,75.306,198.293z"/>
</g>
<g>
	<path d="M275.583,198.173c0,2.65-0.995,4.113-2.71,4.113c-1.523,0-2.566-1.427-2.591-4.006c0-2.626,1.14-4.053,2.723-4.053
		C274.635,194.228,275.583,195.69,275.583,198.173z M271.349,198.293c0,2.026,0.624,3.179,1.583,3.179
		c1.067,0,1.583-1.26,1.583-3.251c0-1.919-0.479-3.179-1.583-3.179C272.021,195.042,271.349,196.17,271.349,198.293z"/>
	<path d="M281.739,198.173c0,2.65-0.995,4.113-2.71,4.113c-1.523,0-2.566-1.427-2.591-4.006c0-2.626,1.14-4.053,2.723-4.053
		C280.792,194.228,281.739,195.69,281.739,198.173z M277.505,198.293c0,2.026,0.624,3.179,1.583,3.179
		c1.067,0,1.583-1.26,1.583-3.251c0-1.919-0.479-3.179-1.583-3.179C278.177,195.042,277.505,196.17,277.505,198.293z"/>
	<path d="M284.993,195.343h-0.023l-1.355,0.731l-0.204-0.804l1.703-0.912h0.899v7.797h-1.02V195.343z"/>
	<path d="M291.149,195.343h-0.023l-1.355,0.731l-0.204-0.804l1.703-0.912h0.899v7.797h-1.02V195.343z"/>
</g>
<g>
	<path d="M197.287,123.007c0,2.651-0.995,4.114-2.71,4.114c-1.523,0-2.566-1.427-2.591-4.006c0-2.626,1.14-4.054,2.723-4.054
		C196.339,119.062,197.287,120.525,197.287,123.007z M193.053,123.127c0,2.027,0.624,3.178,1.583,3.178
		c1.067,0,1.583-1.259,1.583-3.25c0-1.919-0.479-3.178-1.583-3.178C193.725,119.877,193.053,121.004,193.053,123.127z"/>
	<path d="M200.541,120.177h-0.023l-1.355,0.731l-0.204-0.804l1.703-0.912h0.899v7.796h-1.02V120.177z"/>
	<path d="M209.599,123.007c0,2.651-0.995,4.114-2.71,4.114c-1.523,0-2.566-1.427-2.591-4.006c0-2.626,1.14-4.054,2.723-4.054
		C208.652,119.062,209.599,120.525,209.599,123.007z M205.366,123.127c0,2.027,0.624,3.178,1.583,3.178
		c1.067,0,1.583-1.259,1.583-3.25c0-1.919-0.479-3.178-1.583-3.178C206.038,119.877,205.366,121.004,205.366,123.127z"/>
	<path d="M212.853,120.177h-0.023l-1.355,0.731l-0.204-0.804l1.703-0.912h0.899v7.796h-1.02V120.177z"/>
</g>
<g>
	<path d="M135.695,119.677h-0.024l-1.355,0.731l-0.204-0.803l1.703-0.912h0.9v7.796h-1.02V119.677z"/>
	<path d="M144.753,122.508c0,2.65-0.996,4.113-2.71,4.113c-1.523,0-2.567-1.427-2.591-4.006c0-2.626,1.14-4.054,2.723-4.054
		C143.806,118.562,144.753,120.024,144.753,122.508z M140.52,122.627c0,2.027,0.624,3.179,1.583,3.179
		c1.067,0,1.583-1.26,1.583-3.25c0-1.919-0.48-3.179-1.583-3.179C141.191,119.377,140.52,120.505,140.52,122.627z"/>
	<path d="M148.007,119.677h-0.024l-1.355,0.731l-0.204-0.803l1.703-0.912h0.9v7.796h-1.02V119.677z"/>
	<path d="M157.065,122.508c0,2.65-0.996,4.113-2.71,4.113c-1.523,0-2.567-1.427-2.591-4.006c0-2.626,1.14-4.054,2.723-4.054
		C156.117,118.562,157.065,120.024,157.065,122.508z M152.831,122.627c0,2.027,0.624,3.179,1.583,3.179
		c1.067,0,1.583-1.26,1.583-3.25c0-1.919-0.48-3.179-1.583-3.179C153.503,119.377,152.831,120.505,152.831,122.627z"/>
</g>
<g>
	<path d="M117.619,176.472h-0.024l-1.355,0.731l-0.204-0.803l1.703-0.912h0.9v7.796h-1.02V176.472z"/>
	<path d="M123.775,176.472h-0.024l-1.355,0.731l-0.204-0.803l1.703-0.912h0.9v7.796h-1.02V176.472z"/>
	<path d="M129.931,176.472h-0.024l-1.355,0.731l-0.204-0.803l1.703-0.912h0.9v7.796h-1.02V176.472z"/>
	<path d="M138.989,179.303c0,2.65-0.996,4.113-2.71,4.113c-1.523,0-2.567-1.427-2.591-4.006c0-2.626,1.14-4.054,2.723-4.054
		C138.041,175.356,138.989,176.819,138.989,179.303z M134.755,179.422c0,2.027,0.624,3.179,1.583,3.179
		c1.067,0,1.583-1.26,1.583-3.25c0-1.919-0.48-3.179-1.583-3.179C135.427,176.172,134.755,177.3,134.755,179.422z"/>
</g>
<g>
	<path d="M231.026,70.127h-0.023l-1.355,0.731l-0.203-0.803l1.702-0.912h0.899v7.796h-1.02V70.127z"/>
	<path d="M237.182,70.127h-0.023l-1.355,0.731l-0.205-0.803l1.703-0.912h0.9v7.796h-1.02V70.127z"/>
	<path d="M246.241,72.958c0,2.65-0.996,4.113-2.711,4.113c-1.523,0-2.566-1.427-2.591-4.006c0-2.626,1.14-4.054,2.722-4.054
		C245.293,69.012,246.241,70.475,246.241,72.958z M242.006,73.077c0,2.027,0.623,3.179,1.584,3.179c1.066,0,1.582-1.26,1.582-3.25
		c0-1.919-0.479-3.179-1.582-3.179C242.678,69.827,242.006,70.955,242.006,73.077z"/>
	<path d="M249.493,70.127h-0.023l-1.355,0.731l-0.203-0.803l1.703-0.912h0.898v7.796h-1.02V70.127z"/>
</g>
<g>
	<path d="M98.429,69.872h-0.023l-1.355,0.732L96.846,69.8l1.703-0.912h0.899v7.796h-1.02V69.872z"/>
	<path d="M107.488,72.703c0,2.65-0.995,4.113-2.71,4.113c-1.523,0-2.566-1.427-2.591-4.006c0-2.626,1.14-4.054,2.723-4.054
		C106.541,68.757,107.488,70.22,107.488,72.703z M103.254,72.822c0,2.027,0.624,3.179,1.583,3.179c1.067,0,1.583-1.26,1.583-3.25
		c0-1.919-0.479-3.179-1.583-3.179C103.926,69.572,103.254,70.7,103.254,72.822z"/>
	<path d="M110.742,69.872h-0.023l-1.355,0.732l-0.204-0.804l1.703-0.912h0.899v7.796h-1.02V69.872z"/>
	<path d="M116.898,69.872h-0.023l-1.355,0.732l-0.204-0.804l1.703-0.912h0.899v7.796h-1.02V69.872z"/>
</g>
<g>
	<path d="M216.555,179.292c0,2.65-0.994,4.113-2.709,4.113c-1.523,0-2.566-1.427-2.592-4.006c0-2.626,1.141-4.054,2.723-4.054
		C215.608,175.346,216.555,176.809,216.555,179.292z M212.323,179.411c0,2.027,0.623,3.179,1.582,3.179
		c1.068,0,1.584-1.26,1.584-3.25c0-1.919-0.48-3.179-1.584-3.179C212.995,176.161,212.323,177.289,212.323,179.411z"/>
	<path d="M219.809,176.461h-0.023l-1.355,0.731l-0.203-0.803l1.703-0.912h0.898v7.796h-1.02V176.461z"/>
	<path d="M225.965,176.461h-0.023l-1.355,0.731l-0.203-0.803l1.703-0.912h0.898v7.796h-1.02V176.461z"/>
	<path d="M232.122,176.461h-0.023l-1.355,0.731l-0.203-0.803l1.703-0.912h0.898v7.796h-1.02V176.461z"/>
</g>
</svg>
