<?xml version="1.0" encoding="utf-8"?>
<!-- Generator: Adobe Illustrator 15.1.0, SVG Export Plug-In . SVG Version: 6.00 Build 0)  -->
<!DOCTYPE svg PUBLIC "-//W3C//DTD SVG 1.1//EN" "http://www.w3.org/Graphics/SVG/1.1/DTD/svg11.dtd">
<svg version="1.1" id="Layer_1" xmlns="http://www.w3.org/2000/svg" xmlns:xlink="http://www.w3.org/1999/xlink" x="0px" y="0px"
	 width="450px" height="306px" viewBox="155.5 137.5 450 306" enable-background="new 155.5 137.5 450 306" xml:space="preserve">
<circle fill="none" stroke="#0081CD" stroke-width="3" cx="308.5" cy="290.5" r="144"/>
<circle fill="none" stroke="#0081CD" stroke-width="3" cx="452.5" cy="290.5" r="144"/>
<line fill="none" stroke="#0081CD" stroke-width="3" x1="380.5" y1="165.768" x2="380.5" y2="411.209"/>
<circle fill="#FEC200" stroke="#000000" cx="319.167" cy="239.496" r="15"/>
<circle fill="#FEC200" stroke="#000000" cx="380.5" cy="165.768" r="15"/>
<circle fill="#FEC200" stroke="#000000" cx="545.498" cy="180.767" r="15"/>
<circle fill="#FEC200" stroke="#000000" cx="443.167" cy="239.496" r="15"/>
<circle fill="#FEC200" stroke="#000000" cx="215.5" cy="401.5" r="15"/>
<circle fill="#FEC200" stroke="#000000" cx="319.168" cy="343.199" r="15"/>
<circle fill="#FEC200" stroke="#000000" cx="383.5" cy="413.5" r="15"/>
<circle fill="#FEC200" stroke="#000000" cx="545.5" cy="404.5" r="15"/>
<circle fill="#FEC200" stroke="#000000" cx="443.166" cy="343.037" r="15"/>
<circle fill="#FEC200" stroke="#000000" cx="215.414" cy="180.768" r="15"/>
<g>
	<path d="M209.254,180.364c0,2.651-0.995,4.114-2.71,4.114c-1.523,0-2.566-1.427-2.591-4.006c0-2.626,1.14-4.054,2.723-4.054
		C208.307,176.418,209.254,177.882,209.254,180.364z M205.021,180.484c0,2.027,0.624,3.178,1.583,3.178
		c1.067,0,1.583-1.259,1.583-3.25c0-1.919-0.479-3.178-1.583-3.178C205.692,177.234,205.021,178.361,205.021,180.484z"/>
	<path d="M215.41,180.364c0,2.651-0.995,4.114-2.71,4.114c-1.523,0-2.566-1.427-2.591-4.006c0-2.626,1.14-4.054,2.723-4.054
		C214.463,176.418,215.41,177.882,215.41,180.364z M211.177,180.484c0,2.027,0.624,3.178,1.583,3.178
		c1.067,0,1.583-1.259,1.583-3.25c0-1.919-0.479-3.178-1.583-3.178C211.849,177.234,211.177,178.361,211.177,180.484z"/>
	<path d="M221.566,180.364c0,2.651-0.995,4.114-2.71,4.114c-1.523,0-2.566-1.427-2.591-4.006c0-2.626,1.14-4.054,2.723-4.054
		C220.619,176.418,221.566,177.882,221.566,180.364z M217.333,180.484c0,2.027,0.624,3.178,1.583,3.178
		c1.067,0,1.583-1.259,1.583-3.25c0-1.919-0.479-3.178-1.583-3.178C218.005,177.234,217.333,178.361,217.333,180.484z"/>
	<path d="M224.82,177.534h-0.023l-1.355,0.731l-0.204-0.804l1.703-0.912h0.899v7.796h-1.02V177.534z"/>
</g>
<g>
	<path d="M373.922,165.786c0,2.651-0.996,4.114-2.711,4.114c-1.523,0-2.566-1.427-2.591-4.006c0-2.626,1.14-4.054,2.723-4.054
		C372.974,161.84,373.922,163.304,373.922,165.786z M369.688,165.906c0,2.027,0.624,3.178,1.584,3.178
		c1.066,0,1.582-1.259,1.582-3.25c0-1.919-0.479-3.178-1.582-3.178C370.359,162.656,369.688,163.783,369.688,165.906z"/>
	<path d="M380.077,165.786c0,2.651-0.995,4.114-2.71,4.114c-1.523,0-2.567-1.427-2.592-4.006c0-2.626,1.141-4.054,2.723-4.054
		C379.129,161.84,380.077,163.304,380.077,165.786z M375.844,165.906c0,2.027,0.623,3.178,1.583,3.178
		c1.067,0,1.583-1.259,1.583-3.25c0-1.919-0.48-3.178-1.583-3.178C376.516,162.656,375.844,163.783,375.844,165.906z"/>
	<path d="M386.232,165.786c0,2.651-0.995,4.114-2.71,4.114c-1.523,0-2.567-1.427-2.591-4.006c0-2.626,1.14-4.054,2.723-4.054
		C385.285,161.84,386.232,163.304,386.232,165.786z M381.999,165.906c0,2.027,0.624,3.178,1.583,3.178
		c1.068,0,1.584-1.259,1.584-3.25c0-1.919-0.48-3.178-1.584-3.178C382.671,162.656,381.999,163.783,381.999,165.906z"/>
	<path d="M392.389,165.786c0,2.651-0.996,4.114-2.711,4.114c-1.523,0-2.566-1.427-2.59-4.006c0-2.626,1.139-4.054,2.723-4.054
		C391.441,161.84,392.389,163.304,392.389,165.786z M388.154,165.906c0,2.027,0.625,3.178,1.584,3.178
		c1.067,0,1.583-1.259,1.583-3.25c0-1.919-0.479-3.178-1.583-3.178C388.826,162.656,388.154,163.783,388.154,165.906z"/>
</g>
<g>
	<path d="M536.02,178.55h-0.024l-1.355,0.731l-0.204-0.804l1.703-0.912h0.9v7.796h-1.02V178.55z"/>
	<path d="M545.077,181.38c0,2.651-0.995,4.114-2.71,4.114c-1.523,0-2.567-1.427-2.592-4.006c0-2.626,1.141-4.054,2.723-4.054
		C544.129,177.434,545.077,178.897,545.077,181.38z M540.844,181.5c0,2.027,0.623,3.178,1.583,3.178c1.067,0,1.583-1.259,1.583-3.25
		c0-1.919-0.48-3.178-1.583-3.178C541.516,178.25,540.844,179.377,540.844,181.5z"/>
	<path d="M551.232,181.38c0,2.651-0.995,4.114-2.71,4.114c-1.523,0-2.567-1.427-2.591-4.006c0-2.626,1.14-4.054,2.723-4.054
		C550.285,177.434,551.232,178.897,551.232,181.38z M546.999,181.5c0,2.027,0.624,3.178,1.583,3.178c1.068,0,1.584-1.259,1.584-3.25
		c0-1.919-0.48-3.178-1.584-3.178C547.671,178.25,546.999,179.377,546.999,181.5z"/>
	<path d="M557.389,181.38c0,2.651-0.996,4.114-2.711,4.114c-1.523,0-2.566-1.427-2.59-4.006c0-2.626,1.139-4.054,2.723-4.054
		C556.441,177.434,557.389,178.897,557.389,181.38z M553.154,181.5c0,2.027,0.625,3.178,1.584,3.178c1.067,0,1.583-1.259,1.583-3.25
		c0-1.919-0.479-3.178-1.583-3.178C553.826,178.25,553.154,179.377,553.154,181.5z"/>
</g>
<g>
	<path d="M312.588,239.514c0,2.65-0.995,4.113-2.71,4.113c-1.523,0-2.567-1.427-2.591-4.006c0-2.626,1.14-4.053,2.723-4.053
		C311.641,235.568,312.588,237.031,312.588,239.514z M308.354,239.634c0,2.026,0.624,3.179,1.583,3.179
		c1.068,0,1.584-1.26,1.584-3.251c0-1.919-0.48-3.179-1.584-3.179C309.026,236.383,308.354,237.511,308.354,239.634z"/>
	<path d="M318.744,239.514c0,2.65-0.996,4.113-2.711,4.113c-1.523,0-2.566-1.427-2.59-4.006c0-2.626,1.139-4.053,2.723-4.053
		C317.797,235.568,318.744,237.031,318.744,239.514z M314.51,239.634c0,2.026,0.625,3.179,1.584,3.179
		c1.067,0,1.583-1.26,1.583-3.251c0-1.919-0.479-3.179-1.583-3.179C315.182,236.383,314.51,237.511,314.51,239.634z"/>
	<path d="M321.997,236.684h-0.023l-1.355,0.731l-0.204-0.804l1.703-0.912h0.899v7.797h-1.02V236.684z"/>
	<path d="M331.056,239.514c0,2.65-0.995,4.113-2.71,4.113c-1.523,0-2.566-1.427-2.591-4.006c0-2.626,1.14-4.053,2.723-4.053
		C330.108,235.568,331.056,237.031,331.056,239.514z M326.822,239.634c0,2.026,0.624,3.179,1.583,3.179
		c1.067,0,1.583-1.26,1.583-3.251c0-1.919-0.479-3.179-1.583-3.179C327.494,236.383,326.822,237.511,326.822,239.634z"/>
</g>
<g>
	<path d="M436.588,239.514c0,2.651-0.995,4.114-2.71,4.114c-1.523,0-2.567-1.427-2.591-4.006c0-2.626,1.14-4.054,2.723-4.054
		C435.641,235.568,436.588,237.031,436.588,239.514z M432.354,239.635c0,2.026,0.624,3.178,1.583,3.178
		c1.068,0,1.584-1.26,1.584-3.25c0-1.919-0.48-3.179-1.584-3.179C433.026,236.384,432.354,237.512,432.354,239.635z"/>
	<path d="M439.842,236.684h-0.023l-1.355,0.732l-0.205-0.805l1.703-0.911h0.9v7.796h-1.02V236.684z"/>
	<path d="M448.9,239.514c0,2.651-0.996,4.114-2.711,4.114c-1.523,0-2.566-1.427-2.591-4.006c0-2.626,1.14-4.054,2.723-4.054
		C447.952,235.568,448.9,237.031,448.9,239.514z M444.666,239.635c0,2.026,0.624,3.178,1.584,3.178c1.066,0,1.582-1.26,1.582-3.25
		c0-1.919-0.479-3.179-1.582-3.179C445.338,236.384,444.666,237.512,444.666,239.635z"/>
	<path d="M455.056,239.514c0,2.651-0.995,4.114-2.71,4.114c-1.523,0-2.567-1.427-2.592-4.006c0-2.626,1.141-4.054,2.723-4.054
		C454.107,235.568,455.056,237.031,455.056,239.514z M450.822,239.635c0,2.026,0.623,3.178,1.583,3.178
		c1.067,0,1.583-1.26,1.583-3.25c0-1.919-0.48-3.179-1.583-3.179C451.494,236.384,450.822,237.512,450.822,239.635z"/>
</g>
<g>
	<path d="M206.019,398.699h-0.024l-1.355,0.731l-0.203-0.803l1.703-0.912h0.899v7.796h-1.02V398.699z"/>
	<path d="M212.174,398.699h-0.023l-1.355,0.731l-0.204-0.803l1.703-0.912h0.899v7.796h-1.02V398.699z"/>
	<path d="M218.33,398.699h-0.023l-1.355,0.731l-0.204-0.803l1.702-0.912h0.9v7.796h-1.02V398.699z"/>
	<path d="M227.389,401.53c0,2.65-0.996,4.113-2.711,4.113c-1.523,0-2.566-1.427-2.591-4.006c0-2.626,1.14-4.054,2.723-4.054
		C226.44,397.584,227.389,399.047,227.389,401.53z M223.154,401.649c0,2.027,0.624,3.179,1.584,3.179c1.066,0,1.582-1.26,1.582-3.25
		c0-1.919-0.479-3.179-1.582-3.179C223.826,398.399,223.154,399.527,223.154,401.649z"/>
</g>
<g>
	<path d="M309.816,340.224h-0.023l-1.355,0.731l-0.203-0.803l1.702-0.912h0.899v7.796h-1.02V340.224z"/>
	<path d="M315.973,340.224h-0.023l-1.355,0.731l-0.205-0.803l1.703-0.912h0.9v7.796h-1.02V340.224z"/>
	<path d="M325.031,343.055c0,2.65-0.996,4.113-2.711,4.113c-1.523,0-2.566-1.427-2.591-4.006c0-2.626,1.14-4.054,2.722-4.054
		C324.084,339.108,325.031,340.571,325.031,343.055z M320.797,343.174c0,2.027,0.623,3.179,1.584,3.179
		c1.066,0,1.582-1.26,1.582-3.25c0-1.919-0.479-3.179-1.582-3.179C321.469,339.924,320.797,341.052,320.797,343.174z"/>
	<path d="M328.283,340.224h-0.023l-1.355,0.731l-0.203-0.803l1.703-0.912h0.898v7.796h-1.02V340.224z"/>
</g>
<g>
	<path d="M433.17,339.807h-0.023l-1.355,0.732l-0.205-0.805l1.703-0.911h0.9v7.796h-1.02V339.807z"/>
	<path d="M442.229,342.638c0,2.65-0.996,4.113-2.711,4.113c-1.523,0-2.566-1.427-2.59-4.006c0-2.626,1.139-4.054,2.723-4.054
		C441.281,338.691,442.229,340.154,442.229,342.638z M437.994,342.757c0,2.027,0.625,3.179,1.584,3.179
		c1.066,0,1.582-1.26,1.582-3.25c0-1.919-0.479-3.179-1.582-3.179C438.666,339.507,437.994,340.635,437.994,342.757z"/>
	<path d="M445.482,339.807h-0.023l-1.355,0.732l-0.205-0.805l1.703-0.911h0.9v7.796h-1.02V339.807z"/>
	<path d="M451.639,339.807h-0.023l-1.355,0.732l-0.205-0.805l1.703-0.911h0.9v7.796h-1.02V339.807z"/>
</g>
<g>
	<path d="M540.354,404.517c0,2.65-0.996,4.113-2.711,4.113c-1.523,0-2.566-1.427-2.59-4.006c0-2.626,1.139-4.054,2.723-4.054
		C539.406,400.57,540.354,402.033,540.354,404.517z M536.119,404.636c0,2.027,0.625,3.179,1.584,3.179
		c1.066,0,1.582-1.26,1.582-3.25c0-1.919-0.479-3.179-1.582-3.179C536.791,401.386,536.119,402.514,536.119,404.636z"/>
	<path d="M543.607,401.686h-0.023l-1.355,0.731l-0.205-0.803l1.703-0.912h0.9v7.796h-1.02V401.686z"/>
	<path d="M549.764,401.686h-0.023l-1.355,0.731l-0.205-0.803l1.703-0.912h0.9v7.796h-1.02V401.686z"/>
	<path d="M555.92,401.686h-0.023l-1.355,0.731l-0.205-0.803l1.703-0.912h0.9v7.796h-1.02V401.686z"/>
</g>
<g>
	<path d="M374.453,410.278h-0.023l-1.355,0.731l-0.205-0.803l1.703-0.912h0.9v7.796h-1.02V410.278z"/>
	<path d="M380.609,410.278h-0.023l-1.355,0.731l-0.205-0.803l1.703-0.912h0.9v7.796h-1.02V410.278z"/>
	<path d="M386.766,410.278h-0.023l-1.355,0.731l-0.205-0.803l1.703-0.912h0.9v7.796h-1.02V410.278z"/>
	<path d="M392.922,410.278h-0.023l-1.355,0.731l-0.205-0.803l1.703-0.912h0.9v7.796h-1.02V410.278z"/>
</g>
</svg>
