<?xml version="1.0" encoding="utf-8"?>
<!-- Generator: Adobe Illustrator 15.1.0, SVG Export Plug-In . SVG Version: 6.00 Build 0)  -->
<!DOCTYPE svg PUBLIC "-//W3C//DTD SVG 1.1//EN" "http://www.w3.org/Graphics/SVG/1.1/DTD/svg11.dtd">
<svg version="1.1" id="Layer_1" xmlns="http://www.w3.org/2000/svg" xmlns:xlink="http://www.w3.org/1999/xlink" x="0px" y="0px"
	 width="492px" height="494px" viewBox="0 0 492 494" enable-background="new 0 0 492 494" xml:space="preserve">
<path fill="none" stroke="#0081CD" stroke-width="3" d="M69.331,173.27c46.801,112.981,136.571,202.739,249.555,249.54"/>
<path fill="none" stroke="#0081CD" stroke-width="3" d="M172.71,69.918c-46.801,112.98-46.801,239.926-0.004,352.911"/>
<path fill="none" stroke="#0081CD" stroke-width="3" d="M318.89,69.899C205.917,116.696,116.151,206.469,69.354,319.45"/>
<path fill="none" stroke="#0081CD" stroke-width="3" d="M422.245,173.278c-112.988-46.797-239.93-46.801-352.915-0.008"/>
<path fill="none" stroke="#0081CD" stroke-width="3" d="M422.261,319.454C375.464,206.481,285.69,116.715,172.71,69.918"/>
<path fill="none" stroke="#0081CD" stroke-width="3" d="M318.886,422.81c46.789-112.98,46.805-239.93,0.004-352.911"/>
<path fill="none" stroke="#0081CD" stroke-width="3" d="M172.706,422.829c112.977-46.801,202.734-136.566,249.539-249.551"/>
<path fill="none" stroke="#0081CD" stroke-width="3" d="M69.354,319.45c112.977,46.801,239.926,46.805,352.907,0.004"/>
<path fill="none" stroke="#0081CD" stroke-width="3" d="M172.706,422.829c16.672,40.363,62.922,59.562,103.289,42.883
	c19.43-8.031,34.859-23.473,42.891-42.902"/>
<path fill="none" stroke="#0081CD" stroke-width="3" d="M69.354,319.45c-16.762,40.332,2.352,86.605,42.68,103.363
	c19.422,8.07,41.25,8.078,60.672,0.016"/>
<path fill="none" stroke="#0081CD" stroke-width="3" d="M69.331,173.27c-40.363,16.684-59.559,62.926-42.883,103.29
	c8.031,19.43,23.473,34.863,42.906,42.891"/>
<path fill="none" stroke="#0081CD" stroke-width="3" d="M172.71,69.918c-40.332-16.758-86.614,2.355-103.364,42.684
	c-8.078,19.418-8.078,41.246-0.016,60.668"/>
<path fill="none" stroke="#0081CD" stroke-width="3" d="M318.89,69.899c-16.684-40.363-62.93-59.562-103.285-42.883
	c-19.438,8.031-34.875,23.473-42.895,42.902"/>
<path fill="none" stroke="#0081CD" stroke-width="3" d="M422.245,173.278c16.75-40.332-2.359-86.613-42.688-103.367
	c-19.422-8.07-41.258-8.066-60.668-0.012"/>
<path fill="none" stroke="#0081CD" stroke-width="3" d="M422.261,319.454c40.367-16.68,59.562-62.93,42.883-103.286
	c-8.039-19.434-23.469-34.867-42.898-42.891"/>
<path fill="none" stroke="#0081CD" stroke-width="3" d="M318.886,422.81c40.32,16.754,86.605-2.355,103.359-42.684
	c8.07-19.426,8.07-41.258,0.016-60.672"/>
<circle fill="#FEC200" stroke="#000000" cx="172.71" cy="422.829" r="15"/>
<circle fill="#FEC200" stroke="#000000" cx="318.889" cy="69.918" r="15"/>
<circle fill="#FEC200" stroke="#000000" cx="69.331" cy="319.451" r="15"/>
<circle fill="#FEC200" stroke="#000000" cx="172.706" cy="69.899" r="15"/>
<circle fill="#FEC200" stroke="#000000" cx="422.664" cy="319.454" r="15"/>
<circle fill="#FEC200" stroke="#000000" cx="20.435" cy="246.374" r="15"/>
<circle fill="#FEC200" stroke="#000000" cx="318.887" cy="422.81" r="15"/>
<circle fill="#FEC200" stroke="#000000" cx="245.808" cy="471.728" r="15"/>
<circle fill="#FEC200" stroke="#000000" cx="245.808" cy="21.001" r="15"/>
<circle fill="#FEC200" stroke="#000000" cx="471.158" cy="246.354" r="15"/>
<circle fill="#FEC200" stroke="#000000" cx="69.354" cy="172.857" r="15"/>
<circle fill="#FEC200" stroke="#000000" cx="422.245" cy="173.278" r="15"/>
<g>
	<path d="M166.131,422.848c0,2.65-0.995,4.113-2.71,4.113c-1.523,0-2.567-1.428-2.591-4.006c0-2.627,1.14-4.054,2.723-4.054
		C165.184,418.901,166.131,420.365,166.131,422.848z M161.897,422.967c0,2.027,0.624,3.179,1.583,3.179
		c1.068,0,1.584-1.259,1.584-3.251c0-1.918-0.48-3.178-1.584-3.178C162.569,419.717,161.897,420.844,161.897,422.967z"/>
	<path d="M172.287,422.848c0,2.65-0.996,4.113-2.711,4.113c-1.523,0-2.566-1.428-2.59-4.006c0-2.627,1.139-4.054,2.723-4.054
		C171.34,418.901,172.287,420.365,172.287,422.848z M168.053,422.967c0,2.027,0.625,3.179,1.584,3.179
		c1.067,0,1.583-1.259,1.583-3.251c0-1.918-0.479-3.178-1.583-3.178C168.725,419.717,168.053,420.844,168.053,422.967z"/>
	<path d="M178.443,422.848c0,2.65-0.996,4.113-2.711,4.113c-1.523,0-2.566-1.428-2.591-4.006c0-2.627,1.14-4.054,2.723-4.054
		C177.495,418.901,178.443,420.365,178.443,422.848z M174.209,422.967c0,2.027,0.624,3.179,1.584,3.179
		c1.066,0,1.582-1.259,1.582-3.251c0-1.918-0.479-3.178-1.582-3.178C174.881,419.717,174.209,420.844,174.209,422.967z"/>
	<path d="M184.599,422.848c0,2.65-0.995,4.113-2.71,4.113c-1.523,0-2.567-1.428-2.592-4.006c0-2.627,1.141-4.054,2.723-4.054
		C183.65,418.901,184.599,420.365,184.599,422.848z M180.365,422.967c0,2.027,0.623,3.179,1.583,3.179
		c1.067,0,1.583-1.259,1.583-3.251c0-1.918-0.48-3.178-1.583-3.178C181.037,419.717,180.365,420.844,180.365,422.967z"/>
</g>
<g>
	<path d="M416.085,172.875c0,2.651-0.995,4.114-2.71,4.114c-1.523,0-2.566-1.427-2.591-4.006c0-2.626,1.14-4.054,2.723-4.054
		C415.138,168.929,416.085,170.393,416.085,172.875z M411.852,172.995c0,2.027,0.624,3.178,1.583,3.178
		c1.067,0,1.583-1.259,1.583-3.25c0-1.919-0.479-3.178-1.583-3.178C412.523,169.745,411.852,170.872,411.852,172.995z"/>
	<path d="M422.241,172.875c0,2.651-0.995,4.114-2.71,4.114c-1.523,0-2.566-1.427-2.591-4.006c0-2.626,1.14-4.054,2.723-4.054
		C421.294,168.929,422.241,170.393,422.241,172.875z M418.008,172.995c0,2.027,0.624,3.178,1.583,3.178
		c1.067,0,1.583-1.259,1.583-3.25c0-1.919-0.479-3.178-1.583-3.178C418.68,169.745,418.008,170.872,418.008,172.995z"/>
	<path d="M428.397,172.875c0,2.651-0.995,4.114-2.71,4.114c-1.523,0-2.566-1.427-2.591-4.006c0-2.626,1.14-4.054,2.723-4.054
		C427.45,168.929,428.397,170.393,428.397,172.875z M424.164,172.995c0,2.027,0.624,3.178,1.583,3.178
		c1.067,0,1.583-1.259,1.583-3.25c0-1.919-0.479-3.178-1.583-3.178C424.836,169.745,424.164,170.872,424.164,172.995z"/>
	<path d="M431.651,170.045h-0.023l-1.355,0.731l-0.204-0.804l1.703-0.912h0.899v7.796h-1.02V170.045z"/>
</g>
<g>
	<path d="M59.852,317.232h-0.024l-1.355,0.732l-0.204-0.805l1.703-0.911h0.9v7.796h-1.02V317.232z"/>
	<path d="M68.91,320.062c0,2.651-0.996,4.114-2.71,4.114c-1.523,0-2.567-1.427-2.591-4.006c0-2.626,1.14-4.054,2.723-4.054
		C67.962,316.117,68.91,317.58,68.91,320.062z M64.676,320.184c0,2.026,0.624,3.178,1.583,3.178c1.067,0,1.583-1.26,1.583-3.25
		c0-1.92-0.48-3.179-1.583-3.179C65.348,316.933,64.676,318.061,64.676,320.184z"/>
	<path d="M75.065,320.062c0,2.651-0.996,4.114-2.71,4.114c-1.523,0-2.567-1.427-2.591-4.006c0-2.626,1.14-4.054,2.723-4.054
		C74.118,316.117,75.065,317.58,75.065,320.062z M70.832,320.184c0,2.026,0.624,3.178,1.583,3.178c1.067,0,1.583-1.26,1.583-3.25
		c0-1.92-0.48-3.179-1.583-3.179C71.503,316.933,70.832,318.061,70.832,320.184z"/>
	<path d="M81.221,320.062c0,2.651-0.996,4.114-2.71,4.114c-1.523,0-2.567-1.427-2.591-4.006c0-2.626,1.14-4.054,2.723-4.054
		C80.273,316.117,81.221,317.58,81.221,320.062z M76.987,320.184c0,2.026,0.624,3.178,1.583,3.178c1.067,0,1.583-1.26,1.583-3.25
		c0-1.92-0.48-3.179-1.583-3.179C77.659,316.933,76.987,318.061,76.987,320.184z"/>
</g>
<g>
	<path d="M309.725,67.76h-0.023l-1.355,0.731l-0.203-0.804l1.702-0.912h0.899v7.796h-1.02V67.76z"/>
	<path d="M318.783,70.59c0,2.651-0.996,4.114-2.711,4.114c-1.523,0-2.566-1.427-2.59-4.006c0-2.626,1.139-4.054,2.723-4.054
		C317.836,66.645,318.783,68.108,318.783,70.59z M314.549,70.71c0,2.027,0.625,3.178,1.584,3.178c1.067,0,1.583-1.259,1.583-3.25
		c0-1.919-0.479-3.178-1.583-3.178C315.221,67.46,314.549,68.587,314.549,70.71z"/>
	<path d="M324.939,70.59c0,2.651-0.996,4.114-2.711,4.114c-1.523,0-2.566-1.427-2.591-4.006c0-2.626,1.14-4.054,2.723-4.054
		C323.991,66.645,324.939,68.108,324.939,70.59z M320.705,70.71c0,2.027,0.624,3.178,1.584,3.178c1.066,0,1.582-1.259,1.582-3.25
		c0-1.919-0.479-3.178-1.582-3.178C321.377,67.46,320.705,68.587,320.705,70.71z"/>
	<path d="M328.192,67.76h-0.024l-1.355,0.731l-0.203-0.804l1.703-0.912h0.899v7.796h-1.02V67.76z"/>
</g>
<g>
	<path d="M166.127,69.917c0,2.651-0.995,4.114-2.71,4.114c-1.523,0-2.567-1.427-2.591-4.006c0-2.626,1.14-4.054,2.723-4.054
		C165.18,65.971,166.127,67.435,166.127,69.917z M161.894,70.037c0,2.027,0.624,3.178,1.583,3.178c1.068,0,1.584-1.26,1.584-3.25
		c0-1.919-0.48-3.179-1.584-3.179C162.565,66.787,161.894,67.914,161.894,70.037z"/>
	<path d="M169.381,67.086h-0.023l-1.355,0.732l-0.205-0.804l1.703-0.912h0.9v7.796h-1.02V67.086z"/>
	<path d="M178.439,69.917c0,2.651-0.996,4.114-2.711,4.114c-1.523,0-2.566-1.427-2.591-4.006c0-2.626,1.14-4.054,2.723-4.054
		C177.491,65.971,178.439,67.435,178.439,69.917z M174.205,70.037c0,2.027,0.624,3.178,1.584,3.178c1.066,0,1.582-1.26,1.582-3.25
		c0-1.919-0.479-3.179-1.582-3.179C174.877,66.787,174.205,67.914,174.205,70.037z"/>
	<path d="M184.595,69.917c0,2.651-0.995,4.114-2.71,4.114c-1.523,0-2.567-1.427-2.592-4.006c0-2.626,1.141-4.054,2.723-4.054
		C183.646,65.971,184.595,67.435,184.595,69.917z M180.361,70.037c0,2.027,0.623,3.178,1.583,3.178c1.067,0,1.583-1.26,1.583-3.25
		c0-1.919-0.48-3.179-1.583-3.179C181.033,66.787,180.361,67.914,180.361,70.037z"/>
</g>
<g>
	<path d="M239.229,20.259c0,2.65-0.995,4.113-2.71,4.113c-1.523,0-2.566-1.427-2.591-4.006c0-2.626,1.14-4.054,2.723-4.054
		C238.281,16.312,239.229,17.775,239.229,20.259z M234.995,20.378c0,2.027,0.624,3.179,1.583,3.179c1.067,0,1.583-1.26,1.583-3.25
		c0-1.919-0.479-3.179-1.583-3.179C235.667,17.128,234.995,18.256,234.995,20.378z"/>
	<path d="M242.482,17.428h-0.023l-1.355,0.731l-0.204-0.803l1.703-0.912h0.899v7.796h-1.02V17.428z"/>
	<path d="M248.639,17.428h-0.023l-1.355,0.731l-0.204-0.803l1.703-0.912h0.899v7.796h-1.02V17.428z"/>
	<path d="M257.697,20.259c0,2.65-0.995,4.113-2.71,4.113c-1.523,0-2.566-1.427-2.591-4.006c0-2.626,1.14-4.054,2.723-4.054
		C256.75,16.312,257.697,17.775,257.697,20.259z M253.464,20.378c0,2.027,0.624,3.179,1.583,3.179c1.067,0,1.583-1.26,1.583-3.25
		c0-1.919-0.479-3.179-1.583-3.179C254.136,17.128,253.464,18.256,253.464,20.378z"/>
</g>
<g>
	<path d="M413.184,316.642h-0.024l-1.355,0.731l-0.204-0.803l1.703-0.912h0.9v7.796h-1.02V316.642z"/>
	<path d="M419.339,316.642h-0.024l-1.355,0.731l-0.203-0.803l1.703-0.912h0.899v7.796h-1.02V316.642z"/>
	<path d="M428.396,319.473c0,2.65-0.995,4.113-2.71,4.113c-1.523,0-2.567-1.427-2.591-4.006c0-2.626,1.14-4.054,2.723-4.054
		C427.449,315.526,428.396,316.989,428.396,319.473z M424.163,319.592c0,2.027,0.624,3.179,1.583,3.179
		c1.068,0,1.584-1.26,1.584-3.25c0-1.919-0.48-3.179-1.584-3.179C424.835,316.342,424.163,317.47,424.163,319.592z"/>
	<path d="M434.553,319.473c0,2.65-0.996,4.113-2.711,4.113c-1.523,0-2.566-1.427-2.59-4.006c0-2.626,1.139-4.054,2.723-4.054
		C433.605,315.526,434.553,316.989,434.553,319.473z M430.318,319.592c0,2.027,0.625,3.179,1.584,3.179
		c1.067,0,1.583-1.26,1.583-3.25c0-1.919-0.479-3.179-1.583-3.179C430.99,316.342,430.318,317.47,430.318,319.592z"/>
</g>
<g>
	<path d="M465.59,245.95c0,2.651-0.994,4.114-2.709,4.114c-1.523,0-2.566-1.427-2.592-4.006c0-2.626,1.141-4.054,2.723-4.054
		C464.643,242.004,465.59,243.468,465.59,245.95z M461.357,246.07c0,2.027,0.623,3.178,1.582,3.178c1.068,0,1.584-1.259,1.584-3.25
		c0-1.919-0.48-3.178-1.584-3.178C462.029,242.82,461.357,243.947,461.357,246.07z"/>
	<path d="M471.746,245.95c0,2.651-0.994,4.114-2.709,4.114c-1.523,0-2.566-1.427-2.592-4.006c0-2.626,1.141-4.054,2.723-4.054
		C470.799,242.004,471.746,243.468,471.746,245.95z M467.514,246.07c0,2.027,0.623,3.178,1.582,3.178
		c1.068,0,1.584-1.259,1.584-3.25c0-1.919-0.48-3.178-1.584-3.178C468.186,242.82,467.514,243.947,467.514,246.07z"/>
	<path d="M475,243.12h-0.023l-1.355,0.731l-0.203-0.804l1.703-0.912h0.898v7.796H475V243.12z"/>
	<path d="M481.156,243.12h-0.023l-1.355,0.731l-0.203-0.804l1.703-0.912h0.898v7.796h-1.02V243.12z"/>
</g>
<g>
	<path d="M63.017,172.187c0,2.651-0.995,4.114-2.71,4.114c-1.523,0-2.566-1.427-2.591-4.006c0-2.626,1.14-4.054,2.723-4.054
		C62.07,168.241,63.017,169.705,63.017,172.187z M58.784,172.307c0,2.027,0.624,3.178,1.583,3.178c1.067,0,1.583-1.259,1.583-3.25
		c0-1.919-0.479-3.178-1.583-3.178C59.456,169.057,58.784,170.184,58.784,172.307z"/>
	<path d="M66.271,169.357h-0.023l-1.355,0.731l-0.204-0.804l1.703-0.912h0.899v7.796h-1.02V169.357z"/>
	<path d="M75.33,172.187c0,2.651-0.995,4.114-2.71,4.114c-1.523,0-2.566-1.427-2.591-4.006c0-2.626,1.14-4.054,2.723-4.054
		C74.382,168.241,75.33,169.705,75.33,172.187z M71.096,172.307c0,2.027,0.624,3.178,1.583,3.178c1.067,0,1.583-1.259,1.583-3.25
		c0-1.919-0.479-3.178-1.583-3.178C71.768,169.057,71.096,170.184,71.096,172.307z"/>
	<path d="M78.583,169.357H78.56l-1.355,0.731L77,169.285l1.703-0.912h0.899v7.796h-1.02V169.357z"/>
</g>
<g>
	<path d="M10.954,242.374H10.93l-1.355,0.731l-0.204-0.803l1.703-0.912h0.9v7.796h-1.02V242.374z"/>
	<path d="M20.012,245.205c0,2.65-0.996,4.113-2.71,4.113c-1.523,0-2.567-1.427-2.591-4.006c0-2.626,1.14-4.054,2.723-4.054
		C19.064,241.259,20.012,242.722,20.012,245.205z M15.778,245.324c0,2.027,0.624,3.179,1.583,3.179c1.067,0,1.583-1.26,1.583-3.25
		c0-1.919-0.48-3.179-1.583-3.179C16.45,242.074,15.778,243.202,15.778,245.324z"/>
	<path d="M23.265,242.374h-0.024l-1.355,0.731l-0.204-0.803l1.703-0.912h0.9v7.796h-1.02V242.374z"/>
	<path d="M32.323,245.205c0,2.65-0.996,4.113-2.71,4.113c-1.523,0-2.567-1.427-2.591-4.006c0-2.626,1.14-4.054,2.723-4.054
		C31.375,241.259,32.323,242.722,32.323,245.205z M28.089,245.324c0,2.027,0.624,3.179,1.583,3.179c1.067,0,1.583-1.26,1.583-3.25
		c0-1.919-0.48-3.179-1.583-3.179C28.761,242.074,28.089,243.202,28.089,245.324z"/>
</g>
<g>
	<path d="M309.535,419.834h-0.023l-1.355,0.731l-0.203-0.803l1.702-0.912h0.899v7.796h-1.02V419.834z"/>
	<path d="M315.691,419.834h-0.023l-1.355,0.731l-0.205-0.803l1.703-0.912h0.9v7.796h-1.02V419.834z"/>
	<path d="M324.75,422.665c0,2.65-0.996,4.113-2.711,4.113c-1.523,0-2.566-1.427-2.591-4.006c0-2.626,1.14-4.054,2.722-4.054
		C323.803,418.719,324.75,420.182,324.75,422.665z M320.516,422.784c0,2.027,0.623,3.179,1.584,3.179c1.066,0,1.582-1.26,1.582-3.25
		c0-1.919-0.479-3.179-1.582-3.179C321.188,419.534,320.516,420.662,320.516,422.784z"/>
	<path d="M328.002,419.834h-0.023l-1.355,0.731l-0.203-0.803l1.703-0.912h0.898v7.796h-1.02V419.834z"/>
</g>
<g>
	<path d="M236.761,468.506h-0.023l-1.355,0.731l-0.204-0.803l1.703-0.912h0.899v7.796h-1.02V468.506z"/>
	<path d="M242.917,468.506h-0.023l-1.355,0.731l-0.204-0.803l1.703-0.912h0.899v7.796h-1.02V468.506z"/>
	<path d="M249.073,468.506h-0.023l-1.355,0.731l-0.204-0.803l1.703-0.912h0.899v7.796h-1.02V468.506z"/>
	<path d="M255.229,468.506h-0.023l-1.355,0.731l-0.204-0.803l1.703-0.912h0.899v7.796h-1.02V468.506z"/>
</g>
</svg>
