<?xml version="1.0" encoding="utf-8"?>
<!-- Generator: Adobe Illustrator 15.1.0, SVG Export Plug-In . SVG Version: 6.00 Build 0)  -->
<!DOCTYPE svg PUBLIC "-//W3C//DTD SVG 1.1//EN" "http://www.w3.org/Graphics/SVG/1.1/DTD/svg11.dtd">
<svg version="1.1" id="Layer_1" xmlns="http://www.w3.org/2000/svg" xmlns:xlink="http://www.w3.org/1999/xlink" x="0px" y="0px"
	 width="450px" height="342px" viewBox="29.5 11.5 450 342" enable-background="new 29.5 11.5 450 342" xml:space="preserve">
<rect x="38.5" y="20.5" opacity="0.1" fill="#009246" width="432" height="324"/>
<g>
	<g>
		<polyline fill="none" stroke="#000000" stroke-miterlimit="10" points="470.5,342.5 470.5,344.5 468.5,344.5 		"/>
		<line fill="none" stroke="#000000" stroke-miterlimit="10" stroke-dasharray="4,4" x1="464.5" y1="344.5" x2="42.5" y2="344.5"/>
		<polyline fill="none" stroke="#000000" stroke-miterlimit="10" points="40.5,344.5 38.5,344.5 38.5,342.5 		"/>
		
			<line fill="none" stroke="#000000" stroke-miterlimit="10" stroke-dasharray="3.9506,3.9506" x1="38.5" y1="338.55" x2="38.5" y2="24.475"/>
		<polyline fill="none" stroke="#000000" stroke-miterlimit="10" points="38.5,22.5 38.5,20.5 40.5,20.5 		"/>
		<line fill="none" stroke="#000000" stroke-miterlimit="10" stroke-dasharray="4,4" x1="44.5" y1="20.5" x2="466.5" y2="20.5"/>
		<polyline fill="none" stroke="#000000" stroke-miterlimit="10" points="468.5,20.5 470.5,20.5 470.5,22.5 		"/>
		
			<line fill="none" stroke="#000000" stroke-miterlimit="10" stroke-dasharray="3.9506,3.9506" x1="470.5" y1="26.451" x2="470.5" y2="340.524"/>
	</g>
</g>
<line fill="none" stroke="#0081CD" stroke-width="3" x1="20.5" y1="74.5" x2="488.5" y2="74.5"/>
<line fill="none" stroke="#0081CD" stroke-width="3" x1="19.25" y1="182.25" x2="488.5" y2="182.5"/>
<line fill="none" stroke="#0081CD" stroke-width="3" x1="20.5" y1="290.5" x2="488.5" y2="290.5"/>
<line fill="none" stroke="#0081CD" stroke-width="3" x1="20.5" y1="344.5" x2="254.5" y2="-6.5"/>
<line fill="none" stroke="#0081CD" stroke-width="3" x1="110.5" y1="371.5" x2="362.5" y2="-6.5"/>
<line fill="none" stroke="#0081CD" stroke-width="3" x1="218.5" y1="371.5" x2="470.5" y2="-6.5"/>
<line fill="none" stroke="#0081CD" stroke-width="3" x1="326.5" y1="371.5" x2="488.5" y2="128.5"/>
<line fill="none" stroke="#0081CD" stroke-width="3" x1="146.5" y1="-6.5" x2="20.5" y2="182.5"/>
<line fill="none" stroke="#0081CD" stroke-width="3" x1="434.5" y1="371.5" x2="488.5" y2="290.5"/>
<circle fill="#FEC200" stroke="#000000" cx="380.492" cy="290.5" r="15"/>
<circle fill="#FEC200" stroke="#000000" cx="128.5" cy="182.5" r="15"/>
<circle fill="#FEC200" stroke="#000000" cx="201.158" cy="74.5" r="15"/>
<circle fill="#FEC200" stroke="#000000" cx="93.824" cy="73.928" r="15"/>
<circle fill="#FEC200" stroke="#000000" cx="309.027" cy="74.5" r="15"/>
<circle fill="#FEC200" stroke="#000000" cx="416.056" cy="74.337" r="15"/>
<circle fill="#FEC200" stroke="#000000" cx="452.5" cy="182.5" r="15"/>
<circle fill="#FEC200" stroke="#000000" cx="344.5" cy="181.812" r="15"/>
<circle fill="#FEC200" stroke="#000000" cx="273.75" cy="290.5" r="15"/>
<circle fill="#FEC200" stroke="#000000" cx="236.5" cy="182.5" r="15"/>
<circle fill="#FEC200" stroke="#000000" cx="165.097" cy="290.5" r="15"/>
<g>
	<path d="M158.937,290.097c0,2.651-0.995,4.114-2.71,4.114c-1.523,0-2.566-1.428-2.591-4.006c0-2.627,1.14-4.055,2.723-4.055
		C157.989,286.15,158.937,287.614,158.937,290.097z M154.703,290.217c0,2.027,0.624,3.178,1.583,3.178
		c1.067,0,1.583-1.259,1.583-3.25c0-1.919-0.479-3.178-1.583-3.178C155.375,286.967,154.703,288.094,154.703,290.217z"/>
	<path d="M165.093,290.097c0,2.651-0.995,4.114-2.71,4.114c-1.523,0-2.566-1.428-2.591-4.006c0-2.627,1.14-4.055,2.723-4.055
		C164.146,286.15,165.093,287.614,165.093,290.097z M160.859,290.217c0,2.027,0.624,3.178,1.583,3.178
		c1.067,0,1.583-1.259,1.583-3.25c0-1.919-0.479-3.178-1.583-3.178C161.531,286.967,160.859,288.094,160.859,290.217z"/>
	<path d="M171.249,290.097c0,2.651-0.995,4.114-2.71,4.114c-1.523,0-2.566-1.428-2.591-4.006c0-2.627,1.14-4.055,2.723-4.055
		C170.302,286.15,171.249,287.614,171.249,290.097z M167.016,290.217c0,2.027,0.624,3.178,1.583,3.178
		c1.067,0,1.583-1.259,1.583-3.25c0-1.919-0.479-3.178-1.583-3.178C167.688,286.967,167.016,288.094,167.016,290.217z"/>
	<path d="M174.503,287.267h-0.023l-1.355,0.731l-0.204-0.804l1.703-0.911h0.899v7.795h-1.02V287.267z"/>
</g>
<g>
	<path d="M373.914,290.518c0,2.65-0.996,4.113-2.711,4.113c-1.523,0-2.566-1.427-2.591-4.006c0-2.626,1.14-4.053,2.723-4.053
		C372.966,286.572,373.914,288.035,373.914,290.518z M369.68,290.638c0,2.026,0.624,3.179,1.584,3.179
		c1.066,0,1.582-1.26,1.582-3.251c0-1.919-0.479-3.179-1.582-3.179C370.352,287.387,369.68,288.515,369.68,290.638z"/>
	<path d="M380.069,290.518c0,2.65-0.995,4.113-2.71,4.113c-1.523,0-2.567-1.427-2.592-4.006c0-2.626,1.141-4.053,2.723-4.053
		C379.121,286.572,380.069,288.035,380.069,290.518z M375.836,290.638c0,2.026,0.623,3.179,1.583,3.179
		c1.067,0,1.583-1.26,1.583-3.251c0-1.919-0.48-3.179-1.583-3.179C376.508,287.387,375.836,288.515,375.836,290.638z"/>
	<path d="M383.322,287.688h-0.023l-1.355,0.731l-0.204-0.804l1.703-0.912h0.899v7.797h-1.02V287.688z"/>
	<path d="M392.381,290.518c0,2.65-0.995,4.113-2.71,4.113c-1.523,0-2.566-1.427-2.591-4.006c0-2.626,1.14-4.053,2.723-4.053
		C391.434,286.572,392.381,288.035,392.381,290.518z M388.147,290.638c0,2.026,0.624,3.179,1.583,3.179
		c1.067,0,1.583-1.26,1.583-3.251c0-1.919-0.479-3.179-1.583-3.179C388.819,287.387,388.147,288.515,388.147,290.638z"/>
</g>
<g>
	<path d="M121.921,182.518c0,2.651-0.996,4.114-2.71,4.114c-1.523,0-2.567-1.427-2.591-4.006c0-2.626,1.14-4.054,2.723-4.054
		C120.974,178.572,121.921,180.036,121.921,182.518z M117.688,182.638c0,2.027,0.624,3.178,1.583,3.178
		c1.067,0,1.583-1.26,1.583-3.25c0-1.919-0.48-3.179-1.583-3.179C118.359,179.388,117.688,180.515,117.688,182.638z"/>
	<path d="M125.175,179.688h-0.024l-1.355,0.732l-0.204-0.804l1.703-0.912h0.9v7.796h-1.02V179.688z"/>
	<path d="M134.233,182.518c0,2.651-0.996,4.114-2.71,4.114c-1.523,0-2.567-1.427-2.591-4.006c0-2.626,1.14-4.054,2.723-4.054
		C133.285,178.572,134.233,180.036,134.233,182.518z M129.999,182.638c0,2.027,0.624,3.178,1.583,3.178
		c1.067,0,1.583-1.26,1.583-3.25c0-1.919-0.48-3.179-1.583-3.179C130.671,179.388,129.999,180.515,129.999,182.638z"/>
	<path d="M140.389,182.518c0,2.651-0.996,4.114-2.71,4.114c-1.523,0-2.567-1.427-2.591-4.006c0-2.626,1.14-4.054,2.723-4.054
		C139.441,178.572,140.389,180.036,140.389,182.518z M136.155,182.638c0,2.027,0.624,3.178,1.583,3.178
		c1.067,0,1.583-1.26,1.583-3.25c0-1.919-0.48-3.179-1.583-3.179C136.827,179.388,136.155,180.515,136.155,182.638z"/>
</g>
<g>
	<path d="M445.921,181.758c0,2.65-0.995,4.113-2.71,4.113c-1.523,0-2.566-1.427-2.591-4.006c0-2.626,1.14-4.054,2.723-4.054
		C444.974,177.812,445.921,179.274,445.921,181.758z M441.688,181.877c0,2.027,0.624,3.179,1.583,3.179
		c1.067,0,1.583-1.26,1.583-3.25c0-1.919-0.479-3.179-1.583-3.179C442.359,178.627,441.688,179.755,441.688,181.877z"/>
	<path d="M449.175,178.927h-0.023l-1.355,0.731l-0.204-0.803l1.703-0.912h0.899v7.796h-1.02V178.927z"/>
	<path d="M455.331,178.927h-0.023l-1.355,0.731l-0.204-0.803l1.703-0.912h0.899v7.796h-1.02V178.927z"/>
	<path d="M464.39,181.758c0,2.65-0.995,4.113-2.71,4.113c-1.523,0-2.566-1.427-2.591-4.006c0-2.626,1.14-4.054,2.723-4.054
		C463.442,177.812,464.39,179.274,464.39,181.758z M460.156,181.877c0,2.027,0.624,3.179,1.583,3.179c1.067,0,1.583-1.26,1.583-3.25
		c0-1.919-0.479-3.179-1.583-3.179C460.828,178.627,460.156,179.755,460.156,181.877z"/>
</g>
<g>
	<path d="M191.677,71.688h-0.024l-1.355,0.731l-0.204-0.803l1.703-0.912h0.9V78.5h-1.02V71.688z"/>
	<path d="M197.833,71.688h-0.024l-1.355,0.731l-0.204-0.803l1.703-0.912h0.9V78.5h-1.02V71.688z"/>
	<path d="M206.891,74.519c0,2.65-0.995,4.113-2.71,4.113c-1.523,0-2.567-1.427-2.591-4.006c0-2.626,1.14-4.054,2.723-4.054
		C205.943,70.572,206.891,72.035,206.891,74.519z M202.657,74.638c0,2.027,0.624,3.179,1.583,3.179c1.068,0,1.584-1.26,1.584-3.25
		c0-1.919-0.48-3.179-1.584-3.179C203.329,71.388,202.657,72.516,202.657,74.638z"/>
	<path d="M213.047,74.519c0,2.65-0.996,4.113-2.711,4.113c-1.523,0-2.566-1.427-2.59-4.006c0-2.626,1.139-4.054,2.723-4.054
		C212.1,70.572,213.047,72.035,213.047,74.519z M208.812,74.638c0,2.027,0.625,3.179,1.584,3.179c1.067,0,1.583-1.26,1.583-3.25
		c0-1.919-0.479-3.179-1.583-3.179C209.484,71.388,208.812,72.516,208.812,74.638z"/>
</g>
<g>
	<path d="M268.182,290.096c0,2.65-0.995,4.113-2.71,4.113c-1.523,0-2.566-1.427-2.591-4.006c0-2.626,1.14-4.053,2.723-4.053
		C267.234,286.15,268.182,287.613,268.182,290.096z M263.948,290.216c0,2.026,0.624,3.179,1.583,3.179
		c1.067,0,1.583-1.26,1.583-3.251c0-1.919-0.479-3.179-1.583-3.179C264.62,286.965,263.948,288.093,263.948,290.216z"/>
	<path d="M274.338,290.096c0,2.65-0.995,4.113-2.71,4.113c-1.523,0-2.566-1.427-2.591-4.006c0-2.626,1.14-4.053,2.723-4.053
		C273.391,286.15,274.338,287.613,274.338,290.096z M270.104,290.216c0,2.026,0.624,3.179,1.583,3.179
		c1.067,0,1.583-1.26,1.583-3.251c0-1.919-0.479-3.179-1.583-3.179C270.776,286.965,270.104,288.093,270.104,290.216z"/>
	<path d="M277.592,287.266h-0.023l-1.355,0.731l-0.204-0.804l1.703-0.912h0.899v7.797h-1.02V287.266z"/>
	<path d="M283.748,287.266h-0.023l-1.355,0.731l-0.204-0.804l1.703-0.912h0.899v7.797h-1.02V287.266z"/>
</g>
<g>
	<path d="M230.163,181.83c0,2.651-0.995,4.114-2.71,4.114c-1.523,0-2.566-1.427-2.591-4.006c0-2.626,1.14-4.054,2.723-4.054
		C229.216,177.884,230.163,179.348,230.163,181.83z M225.93,181.95c0,2.027,0.624,3.178,1.583,3.178c1.067,0,1.583-1.259,1.583-3.25
		c0-1.919-0.479-3.178-1.583-3.178C226.602,178.7,225.93,179.827,225.93,181.95z"/>
	<path d="M233.417,179h-0.023l-1.355,0.731l-0.204-0.804l1.703-0.912h0.899v7.796h-1.02V179z"/>
	<path d="M242.476,181.83c0,2.651-0.995,4.114-2.71,4.114c-1.523,0-2.566-1.427-2.591-4.006c0-2.626,1.14-4.054,2.723-4.054
		C241.528,177.884,242.476,179.348,242.476,181.83z M238.242,181.95c0,2.027,0.624,3.178,1.583,3.178
		c1.067,0,1.583-1.259,1.583-3.25c0-1.919-0.479-3.178-1.583-3.178C238.914,178.7,238.242,179.827,238.242,181.95z"/>
	<path d="M245.729,179h-0.023l-1.355,0.731l-0.204-0.804l1.703-0.912h0.899v7.796h-1.02V179z"/>
</g>
<g>
	<path d="M84.343,71.126h-0.024l-1.355,0.731l-0.204-0.803l1.703-0.912h0.9v7.796h-1.02V71.126z"/>
	<path d="M90.499,71.126h-0.024l-1.355,0.731l-0.204-0.803l1.703-0.912h0.9v7.796h-1.02V71.126z"/>
	<path d="M96.654,71.126H96.63l-1.355,0.731l-0.204-0.803l1.703-0.912h0.9v7.796h-1.02V71.126z"/>
	<path d="M105.712,73.957c0,2.65-0.996,4.113-2.71,4.113c-1.523,0-2.567-1.427-2.591-4.006c0-2.626,1.14-4.054,2.723-4.054
		C104.765,70.011,105.712,71.474,105.712,73.957z M101.479,74.076c0,2.027,0.624,3.179,1.583,3.179c1.067,0,1.583-1.26,1.583-3.25
		c0-1.919-0.48-3.179-1.583-3.179C102.15,70.826,101.479,71.954,101.479,74.076z"/>
</g>
<g>
	<path d="M299.676,71.524h-0.023l-1.355,0.731l-0.203-0.803l1.702-0.912h0.899v7.796h-1.02V71.524z"/>
	<path d="M305.832,71.524h-0.023l-1.355,0.731l-0.205-0.803l1.703-0.912h0.9v7.796h-1.02V71.524z"/>
	<path d="M314.891,74.355c0,2.65-0.996,4.113-2.711,4.113c-1.523,0-2.566-1.427-2.591-4.006c0-2.626,1.14-4.054,2.722-4.054
		C313.943,70.409,314.891,71.872,314.891,74.355z M310.656,74.475c0,2.027,0.623,3.179,1.584,3.179c1.066,0,1.582-1.26,1.582-3.25
		c0-1.919-0.479-3.179-1.582-3.179C311.328,71.225,310.656,72.353,310.656,74.475z"/>
	<path d="M318.143,71.524h-0.023l-1.355,0.731l-0.203-0.803l1.703-0.912h0.898v7.796h-1.02V71.524z"/>
</g>
<g>
	<path d="M339.354,181.827c0,2.65-0.995,4.113-2.71,4.113c-1.523,0-2.566-1.427-2.591-4.006c0-2.626,1.14-4.054,2.723-4.054
		C338.406,177.881,339.354,179.344,339.354,181.827z M335.12,181.946c0,2.027,0.624,3.179,1.583,3.179
		c1.067,0,1.583-1.26,1.583-3.25c0-1.919-0.479-3.179-1.583-3.179C335.792,178.696,335.12,179.824,335.12,181.946z"/>
	<path d="M342.607,178.996h-0.023l-1.355,0.731l-0.204-0.803l1.703-0.912h0.899v7.796h-1.02V178.996z"/>
	<path d="M348.764,178.996h-0.023l-1.355,0.731l-0.204-0.803l1.703-0.912h0.899v7.796h-1.02V178.996z"/>
	<path d="M354.92,178.996h-0.023l-1.355,0.731l-0.204-0.803l1.703-0.912h0.899v7.796h-1.02V178.996z"/>
</g>
<g>
	<path d="M407.009,71.115h-0.023l-1.355,0.731l-0.204-0.803l1.703-0.912h0.899v7.796h-1.02V71.115z"/>
	<path d="M413.165,71.115h-0.023l-1.355,0.731l-0.204-0.803l1.703-0.912h0.899v7.796h-1.02V71.115z"/>
	<path d="M419.321,71.115h-0.023l-1.355,0.731l-0.204-0.803l1.703-0.912h0.899v7.796h-1.02V71.115z"/>
	<path d="M425.478,71.115h-0.023l-1.355,0.731l-0.204-0.803l1.703-0.912h0.899v7.796h-1.02V71.115z"/>
</g>
<circle fill="#FEC200" stroke="#000000" cx="56.492" cy="290.5" r="15"/>
<g>
	<path d="M49.914,290.519c0,2.651-0.996,4.114-2.71,4.114c-1.523,0-2.567-1.428-2.591-4.006c0-2.627,1.14-4.055,2.723-4.055
		C48.966,286.572,49.914,288.036,49.914,290.519z M45.68,290.639c0,2.027,0.624,3.178,1.583,3.178c1.067,0,1.583-1.259,1.583-3.25
		c0-1.919-0.48-3.178-1.583-3.178C46.352,287.389,45.68,288.516,45.68,290.639z"/>
	<path d="M56.069,290.519c0,2.651-0.996,4.114-2.71,4.114c-1.523,0-2.567-1.428-2.591-4.006c0-2.627,1.14-4.055,2.723-4.055
		C55.122,286.572,56.069,288.036,56.069,290.519z M51.835,290.639c0,2.027,0.624,3.178,1.583,3.178c1.067,0,1.583-1.259,1.583-3.25
		c0-1.919-0.48-3.178-1.583-3.178C52.507,287.389,51.835,288.516,51.835,290.639z"/>
	<path d="M62.225,290.519c0,2.651-0.996,4.114-2.71,4.114c-1.523,0-2.567-1.428-2.591-4.006c0-2.627,1.14-4.055,2.723-4.055
		C61.277,286.572,62.225,288.036,62.225,290.519z M57.991,290.639c0,2.027,0.624,3.178,1.583,3.178c1.067,0,1.583-1.259,1.583-3.25
		c0-1.919-0.48-3.178-1.583-3.178C58.663,287.389,57.991,288.516,57.991,290.639z"/>
	<path d="M68.381,290.519c0,2.651-0.996,4.114-2.71,4.114c-1.523,0-2.567-1.428-2.591-4.006c0-2.627,1.14-4.055,2.723-4.055
		C67.433,286.572,68.381,288.036,68.381,290.519z M64.147,290.639c0,2.027,0.624,3.178,1.583,3.178c1.067,0,1.583-1.259,1.583-3.25
		c0-1.919-0.48-3.178-1.583-3.178C64.819,287.389,64.147,288.516,64.147,290.639z"/>
</g>
</svg>
