<?xml version="1.0" encoding="utf-8"?>
<!-- Generator: Adobe Illustrator 15.1.0, SVG Export Plug-In . SVG Version: 6.00 Build 0)  -->
<!DOCTYPE svg PUBLIC "-//W3C//DTD SVG 1.1//EN" "http://www.w3.org/Graphics/SVG/1.1/DTD/svg11.dtd">
<svg version="1.1" id="Layer_1" xmlns="http://www.w3.org/2000/svg" xmlns:xlink="http://www.w3.org/1999/xlink" x="0px" y="0px"
	 width="906.055px" height="400px" viewBox="0 0 906.055 400" enable-background="new 0 0 906.055 400" xml:space="preserve">
<g>
	<line fill="none" stroke="#009246" stroke-width="2" x1="141.698" y1="142.69" x2="258.79" y2="257.788"/>
	<line fill="none" stroke="#009246" stroke-width="2" x1="143.108" y1="257.786" x2="258.79" y2="142.105"/>
	<line fill="none" stroke="#009246" stroke-width="2" x1="18.27" y1="275.868" x2="381.635" y2="124.724"/>
	<line fill="none" stroke="#009246" stroke-width="2" x1="125.145" y1="17.848" x2="276.29" y2="382.743"/>
</g>
<g>
	<path fill="none" stroke="#0081CD" stroke-width="3" d="M276.29,382.743"/>
	<path fill="none" stroke="#0081CD" stroke-width="3" d="M143.108,257.786"/>
	<path fill="none" stroke="#0081CD" stroke-width="3" d="M125.145,17.848"/>
	<path fill="none" stroke="#0081CD" stroke-width="3" d="M258.79,142.105"/>
	<path fill="none" stroke="#0081CD" stroke-width="3" d="M18.27,275.868"/>
	<path fill="none" stroke="#0081CD" stroke-width="3" d="M143.109,142.106"/>
	<path fill="none" stroke="#0081CD" stroke-width="3" d="M383.163,124.724"/>
	<path fill="none" stroke="#0081CD" stroke-width="3" d="M258.79,257.788"/>
	<path fill="none" stroke="#0081CD" stroke-width="3" d="M258.79,142.105"/>
	<path fill="none" stroke="#0081CD" stroke-width="3" d="M276.29,382.743"/>
	<path fill="none" stroke="#0081CD" stroke-width="3" d="M141.698,142.69"/>
	<path fill="none" stroke="#0081CD" stroke-width="3" d="M381.635,124.724"/>
	<path fill="none" stroke="#0081CD" stroke-width="3" d="M258.79,257.788"/>
	<path fill="none" stroke="#0081CD" stroke-width="3" d="M18.27,275.868"/>
	<path fill="none" stroke="#0081CD" stroke-width="3" d="M143.108,257.786"/>
	<path fill="none" stroke="#0081CD" stroke-width="3" d="M125.145,17.848"/>
</g>
<circle fill="#FEC200" stroke="#000000" cx="125.145" cy="17.848" r="15"/>
<circle fill="#FEC200" stroke="#000000" cx="142.792" cy="141.452" r="15"/>
<circle fill="#FEC200" stroke="#000000" cx="17.848" cy="274.855" r="15"/>
<circle fill="#FEC200" stroke="#000000" cx="141.451" cy="257.208" r="15"/>
<circle fill="#FEC200" stroke="#000000" cx="274.855" cy="382.152" r="15"/>
<circle fill="#FEC200" stroke="#000000" cx="257.208" cy="258.549" r="15"/>
<circle fill="#FEC200" stroke="#000000" cx="382.152" cy="125.146" r="15"/>
<circle fill="#FEC200" stroke="#000000" cx="258.548" cy="142.793" r="15"/>
<g>
	<path d="M118.566,17.866c0,2.651-0.996,4.114-2.71,4.114c-1.523,0-2.567-1.427-2.591-4.006c0-2.626,1.14-4.054,2.723-4.054
		C117.619,13.92,118.566,15.384,118.566,17.866z M114.333,17.986c0,2.027,0.624,3.178,1.583,3.178c1.067,0,1.583-1.259,1.583-3.25
		c0-1.919-0.48-3.178-1.583-3.178C115.004,14.736,114.333,15.863,114.333,17.986z"/>
	<path d="M124.722,17.866c0,2.651-0.996,4.114-2.71,4.114c-1.523,0-2.567-1.427-2.591-4.006c0-2.626,1.14-4.054,2.723-4.054
		C123.774,13.92,124.722,15.384,124.722,17.866z M120.488,17.986c0,2.027,0.624,3.178,1.583,3.178c1.067,0,1.583-1.259,1.583-3.25
		c0-1.919-0.48-3.178-1.583-3.178C121.16,14.736,120.488,15.863,120.488,17.986z"/>
	<path d="M130.878,17.866c0,2.651-0.996,4.114-2.71,4.114c-1.523,0-2.567-1.427-2.591-4.006c0-2.626,1.14-4.054,2.723-4.054
		C129.93,13.92,130.878,15.384,130.878,17.866z M126.644,17.986c0,2.027,0.624,3.178,1.583,3.178c1.067,0,1.583-1.259,1.583-3.25
		c0-1.919-0.48-3.178-1.583-3.178C127.316,14.736,126.644,15.863,126.644,17.986z"/>
	<path d="M137.034,17.866c0,2.651-0.996,4.114-2.71,4.114c-1.523,0-2.567-1.427-2.591-4.006c0-2.626,1.14-4.054,2.723-4.054
		C136.086,13.92,137.034,15.384,137.034,17.866z M132.8,17.986c0,2.027,0.624,3.178,1.583,3.178c1.067,0,1.583-1.259,1.583-3.25
		c0-1.919-0.48-3.178-1.583-3.178C133.472,14.736,132.8,15.863,132.8,17.986z"/>
</g>
<g>
	<path d="M133.628,139.294h-0.024l-1.355,0.731l-0.204-0.804l1.703-0.912h0.9v7.796h-1.02V139.294z"/>
	<path d="M142.686,142.124c0,2.651-0.996,4.114-2.71,4.114c-1.523,0-2.567-1.427-2.591-4.006c0-2.626,1.14-4.054,2.723-4.054
		C141.738,138.178,142.686,139.642,142.686,142.124z M138.452,142.244c0,2.027,0.624,3.178,1.583,3.178
		c1.067,0,1.583-1.259,1.583-3.25c0-1.919-0.48-3.178-1.583-3.178C139.124,138.994,138.452,140.121,138.452,142.244z"/>
	<path d="M148.842,142.124c0,2.651-0.996,4.114-2.71,4.114c-1.523,0-2.567-1.427-2.591-4.006c0-2.626,1.14-4.054,2.723-4.054
		C147.894,138.178,148.842,139.642,148.842,142.124z M144.608,142.244c0,2.027,0.624,3.178,1.583,3.178
		c1.067,0,1.583-1.259,1.583-3.25c0-1.919-0.48-3.178-1.583-3.178C145.28,138.994,144.608,140.121,144.608,142.244z"/>
	<path d="M152.095,139.294h-0.024l-1.355,0.731l-0.204-0.804l1.703-0.912h0.9v7.796h-1.02V139.294z"/>
</g>
<g>
	<path d="M250.629,257.807c0,2.65-0.995,4.113-2.71,4.113c-1.523,0-2.566-1.427-2.591-4.006c0-2.626,1.14-4.054,2.723-4.054
		C249.682,253.86,250.629,255.323,250.629,257.807z M246.396,257.926c0,2.027,0.624,3.179,1.583,3.179
		c1.067,0,1.583-1.26,1.583-3.25c0-1.919-0.479-3.179-1.583-3.179C247.067,254.676,246.396,255.804,246.396,257.926z"/>
	<path d="M253.883,254.976h-0.023l-1.355,0.731l-0.204-0.803l1.703-0.912h0.899v7.796h-1.02V254.976z"/>
	<path d="M260.039,254.976h-0.023l-1.355,0.731l-0.204-0.803l1.703-0.912h0.899v7.796h-1.02V254.976z"/>
	<path d="M269.098,257.807c0,2.65-0.995,4.113-2.71,4.113c-1.523,0-2.566-1.427-2.591-4.006c0-2.626,1.14-4.054,2.723-4.054
		C268.15,253.86,269.098,255.323,269.098,257.807z M264.864,257.926c0,2.027,0.624,3.179,1.583,3.179c1.067,0,1.583-1.26,1.583-3.25
		c0-1.919-0.479-3.179-1.583-3.179C265.536,254.676,264.864,255.804,264.864,257.926z"/>
</g>
<g>
	<path d="M8.367,272.043H8.343l-1.355,0.731l-0.204-0.803l1.703-0.912h0.9v7.796h-1.02V272.043z"/>
	<path d="M14.523,272.043h-0.024l-1.355,0.731l-0.204-0.803l1.703-0.912h0.9v7.796h-1.02V272.043z"/>
	<path d="M23.581,274.874c0,2.65-0.996,4.113-2.71,4.113c-1.523,0-2.567-1.427-2.591-4.006c0-2.626,1.14-4.054,2.723-4.054
		C22.633,270.928,23.581,272.391,23.581,274.874z M19.347,274.993c0,2.027,0.624,3.179,1.583,3.179c1.067,0,1.583-1.26,1.583-3.25
		c0-1.919-0.48-3.179-1.583-3.179C20.019,271.743,19.347,272.871,19.347,274.993z"/>
	<path d="M29.737,274.874c0,2.65-0.996,4.113-2.71,4.113c-1.523,0-2.567-1.427-2.591-4.006c0-2.626,1.14-4.054,2.723-4.054
		C28.789,270.928,29.737,272.391,29.737,274.874z M25.503,274.993c0,2.027,0.624,3.179,1.583,3.179c1.067,0,1.583-1.26,1.583-3.25
		c0-1.919-0.48-3.179-1.583-3.179C26.175,271.743,25.503,272.871,25.503,274.993z"/>
</g>
<g>
	<path d="M376.584,124.742c0,2.651-0.995,4.114-2.71,4.114c-1.523,0-2.566-1.427-2.591-4.006c0-2.626,1.14-4.054,2.723-4.054
		C375.637,120.796,376.584,122.26,376.584,124.742z M372.351,124.862c0,2.027,0.624,3.178,1.583,3.178
		c1.067,0,1.583-1.259,1.583-3.25c0-1.919-0.479-3.178-1.583-3.178C373.022,121.612,372.351,122.739,372.351,124.862z"/>
	<path d="M382.74,124.742c0,2.651-0.995,4.114-2.71,4.114c-1.523,0-2.566-1.427-2.591-4.006c0-2.626,1.14-4.054,2.723-4.054
		C381.793,120.796,382.74,122.26,382.74,124.742z M378.507,124.862c0,2.027,0.624,3.178,1.583,3.178c1.067,0,1.583-1.259,1.583-3.25
		c0-1.919-0.479-3.178-1.583-3.178C379.179,121.612,378.507,122.739,378.507,124.862z"/>
	<path d="M385.994,121.912h-0.023l-1.355,0.731l-0.204-0.804l1.703-0.912h0.899v7.796h-1.02V121.912z"/>
	<path d="M392.15,121.912h-0.023l-1.355,0.731l-0.204-0.804l1.703-0.912h0.899v7.796h-1.02V121.912z"/>
</g>
<g>
	<path d="M252.211,142.123c0,2.651-0.995,4.114-2.71,4.114c-1.523,0-2.566-1.427-2.591-4.006c0-2.626,1.14-4.054,2.723-4.054
		C251.264,138.177,252.211,139.641,252.211,142.123z M247.978,142.243c0,2.027,0.624,3.178,1.583,3.178
		c1.067,0,1.583-1.259,1.583-3.25c0-1.919-0.479-3.178-1.583-3.178C248.649,138.993,247.978,140.12,247.978,142.243z"/>
	<path d="M255.465,139.293h-0.023l-1.355,0.731l-0.204-0.804l1.703-0.912h0.899v7.796h-1.02V139.293z"/>
	<path d="M264.523,142.123c0,2.651-0.995,4.114-2.71,4.114c-1.523,0-2.566-1.427-2.591-4.006c0-2.626,1.14-4.054,2.723-4.054
		C263.576,138.177,264.523,139.641,264.523,142.123z M260.29,142.243c0,2.027,0.624,3.178,1.583,3.178
		c1.067,0,1.583-1.259,1.583-3.25c0-1.919-0.479-3.178-1.583-3.178C260.962,138.993,260.29,140.12,260.29,142.243z"/>
	<path d="M267.777,139.293h-0.023l-1.355,0.731l-0.204-0.804l1.703-0.912h0.899v7.796h-1.02V139.293z"/>
</g>
<g>
	<path d="M131.97,253.208h-0.024l-1.355,0.731l-0.204-0.803l1.703-0.912h0.9v7.796h-1.02V253.208z"/>
	<path d="M141.028,256.039c0,2.65-0.996,4.113-2.71,4.113c-1.523,0-2.567-1.427-2.591-4.006c0-2.626,1.14-4.054,2.723-4.054
		C140.081,252.093,141.028,253.556,141.028,256.039z M136.794,256.158c0,2.027,0.624,3.179,1.583,3.179
		c1.067,0,1.583-1.26,1.583-3.25c0-1.919-0.48-3.179-1.583-3.179C137.466,252.908,136.794,254.036,136.794,256.158z"/>
	<path d="M144.282,253.208h-0.024l-1.355,0.731l-0.204-0.803l1.703-0.912h0.9v7.796h-1.02V253.208z"/>
	<path d="M153.34,256.039c0,2.65-0.996,4.113-2.71,4.113c-1.523,0-2.567-1.427-2.591-4.006c0-2.626,1.14-4.054,2.723-4.054
		C152.392,252.093,153.34,253.556,153.34,256.039z M149.106,256.158c0,2.027,0.624,3.179,1.583,3.179c1.067,0,1.583-1.26,1.583-3.25
		c0-1.919-0.48-3.179-1.583-3.179C149.778,252.908,149.106,254.036,149.106,256.158z"/>
</g>
<g>
	<path d="M265.809,378.931h-0.023l-1.355,0.731l-0.204-0.803l1.703-0.912h0.899v7.796h-1.02V378.931z"/>
	<path d="M271.965,378.931h-0.023l-1.355,0.731l-0.204-0.803l1.703-0.912h0.899v7.796h-1.02V378.931z"/>
	<path d="M278.121,378.931h-0.023l-1.355,0.731l-0.204-0.803l1.703-0.912h0.899v7.796h-1.02V378.931z"/>
	<path d="M284.277,378.931h-0.023l-1.355,0.731l-0.204-0.803l1.703-0.912h0.899v7.796h-1.02V378.931z"/>
</g>
<g>
	<line fill="none" stroke="#009246" stroke-width="2" x1="523.873" y1="124.724" x2="888.766" y2="275.868"/>
	<line fill="none" stroke="#009246" stroke-width="2" x1="706.551" y1="118.148" x2="706.553" y2="281.745"/>
	<line fill="none" stroke="#009246" stroke-width="2" x1="630.748" y1="382.743" x2="781.893" y2="17.848"/>
	<line fill="none" stroke="#009246" stroke-width="2" x1="623.751" y1="199.052" x2="787.455" y2="200.949"/>
</g>
<g>
	<path fill="none" stroke="#0081CD" stroke-width="3" d="M788.352,199.946"/>
	<path fill="none" stroke="#0081CD" stroke-width="3" d="M630.748,382.743"/>
	<path fill="none" stroke="#0081CD" stroke-width="3" d="M624.753,199.946"/>
	<path fill="none" stroke="#0081CD" stroke-width="3" d="M781.893,17.848"/>
	<path fill="none" stroke="#0081CD" stroke-width="3" d="M706.553,281.745"/>
	<path fill="none" stroke="#0081CD" stroke-width="3" d="M523.873,124.724"/>
	<path fill="none" stroke="#0081CD" stroke-width="3" d="M706.551,118.148"/>
	<path fill="none" stroke="#0081CD" stroke-width="3" d="M888.766,275.868"/>
	<path fill="none" stroke="#0081CD" stroke-width="3" d="M888.766,275.868"/>
	<path fill="none" stroke="#0081CD" stroke-width="3" d="M706.553,281.745"/>
	<path fill="none" stroke="#0081CD" stroke-width="3" d="M780.365,17.848"/>
	<path fill="none" stroke="#0081CD" stroke-width="3" d="M786.939,200.531"/>
	<path fill="none" stroke="#0081CD" stroke-width="3" d="M630.748,382.743"/>
	<path fill="none" stroke="#0081CD" stroke-width="3" d="M624.753,199.946"/>
	<path fill="none" stroke="#0081CD" stroke-width="3" d="M523.873,124.724"/>
	<path fill="none" stroke="#0081CD" stroke-width="3" d="M706.551,118.148"/>
</g>
<circle fill="#FEC200" stroke="#000000" cx="706.551" cy="118.148" r="15"/>
<circle fill="#FEC200" stroke="#000000" cx="523.871" cy="124.13" r="15"/>
<circle fill="#FEC200" stroke="#000000" cx="623.751" cy="199.052" r="15"/>
<circle fill="#FEC200" stroke="#000000" cx="629.732" cy="381.732" r="15"/>
<circle fill="#FEC200" stroke="#000000" cx="704.654" cy="281.852" r="15"/>
<circle fill="#FEC200" stroke="#000000" cx="887.334" cy="275.871" r="15"/>
<circle fill="#FEC200" stroke="#000000" cx="787.455" cy="200.949" r="15"/>
<circle fill="#FEC200" stroke="#000000" cx="781.475" cy="18.269" r="15"/>
<g>
	<path d="M775.314,17.866c0,2.651-0.996,4.114-2.711,4.114c-1.523,0-2.566-1.427-2.59-4.006c0-2.626,1.139-4.054,2.723-4.054
		C774.367,13.92,775.314,15.384,775.314,17.866z M771.08,17.986c0,2.027,0.625,3.178,1.584,3.178c1.066,0,1.582-1.259,1.582-3.25
		c0-1.919-0.479-3.178-1.582-3.178C771.752,14.736,771.08,15.863,771.08,17.986z"/>
	<path d="M781.471,17.866c0,2.651-0.996,4.114-2.711,4.114c-1.523,0-2.566-1.427-2.59-4.006c0-2.626,1.139-4.054,2.723-4.054
		C780.523,13.92,781.471,15.384,781.471,17.866z M777.236,17.986c0,2.027,0.625,3.178,1.584,3.178c1.066,0,1.582-1.259,1.582-3.25
		c0-1.919-0.479-3.178-1.582-3.178C777.908,14.736,777.236,15.863,777.236,17.986z"/>
	<path d="M787.627,17.866c0,2.651-0.996,4.114-2.711,4.114c-1.523,0-2.566-1.427-2.59-4.006c0-2.626,1.139-4.054,2.723-4.054
		C786.68,13.92,787.627,15.384,787.627,17.866z M783.393,17.986c0,2.027,0.625,3.178,1.584,3.178c1.066,0,1.582-1.259,1.582-3.25
		c0-1.919-0.479-3.178-1.582-3.178C784.064,14.736,783.393,15.863,783.393,17.986z"/>
	<path d="M790.881,15.036h-0.023l-1.355,0.731l-0.205-0.804L791,14.052h0.9v7.796h-1.02V15.036z"/>
</g>
<g>
	<path d="M514.393,121.912h-0.024l-1.355,0.731l-0.204-0.804l1.703-0.912h0.9v7.796h-1.02V121.912z"/>
	<path d="M523.45,124.742c0,2.651-0.995,4.114-2.71,4.114c-1.523,0-2.567-1.427-2.592-4.006c0-2.626,1.141-4.054,2.723-4.054
		C522.502,120.796,523.45,122.26,523.45,124.742z M519.217,124.862c0,2.027,0.623,3.178,1.583,3.178c1.067,0,1.583-1.259,1.583-3.25
		c0-1.919-0.48-3.178-1.583-3.178C519.889,121.612,519.217,122.739,519.217,124.862z"/>
	<path d="M529.605,124.742c0,2.651-0.995,4.114-2.71,4.114c-1.523,0-2.567-1.427-2.591-4.006c0-2.626,1.14-4.054,2.723-4.054
		C528.658,120.796,529.605,122.26,529.605,124.742z M525.372,124.862c0,2.027,0.624,3.178,1.583,3.178
		c1.068,0,1.584-1.259,1.584-3.25c0-1.919-0.48-3.178-1.584-3.178C526.044,121.612,525.372,122.739,525.372,124.862z"/>
	<path d="M535.762,124.742c0,2.651-0.996,4.114-2.711,4.114c-1.523,0-2.566-1.427-2.59-4.006c0-2.626,1.139-4.054,2.723-4.054
		C534.814,120.796,535.762,122.26,535.762,124.742z M531.527,124.862c0,2.027,0.625,3.178,1.584,3.178
		c1.067,0,1.583-1.259,1.583-3.25c0-1.919-0.479-3.178-1.583-3.178C532.199,121.612,531.527,122.739,531.527,124.862z"/>
</g>
<g>
	<path d="M699.973,118.166c0,2.651-0.996,4.114-2.711,4.114c-1.523,0-2.566-1.427-2.59-4.006c0-2.626,1.139-4.054,2.723-4.054
		C699.025,114.22,699.973,115.684,699.973,118.166z M695.738,118.286c0,2.027,0.625,3.178,1.584,3.178
		c1.067,0,1.583-1.259,1.583-3.25c0-1.919-0.479-3.178-1.583-3.178C696.41,115.036,695.738,116.163,695.738,118.286z"/>
	<path d="M706.129,118.166c0,2.651-0.996,4.114-2.711,4.114c-1.523,0-2.566-1.427-2.591-4.006c0-2.626,1.14-4.054,2.723-4.054
		C705.181,114.22,706.129,115.684,706.129,118.166z M701.895,118.286c0,2.027,0.624,3.178,1.584,3.178
		c1.066,0,1.582-1.259,1.582-3.25c0-1.919-0.479-3.178-1.582-3.178C702.566,115.036,701.895,116.163,701.895,118.286z"/>
	<path d="M709.381,115.336h-0.023l-1.355,0.731l-0.203-0.804l1.703-0.912h0.898v7.796h-1.02V115.336z"/>
	<path d="M718.439,118.166c0,2.651-0.994,4.114-2.709,4.114c-1.523,0-2.566-1.427-2.592-4.006c0-2.626,1.141-4.054,2.723-4.054
		C717.492,114.22,718.439,115.684,718.439,118.166z M714.207,118.286c0,2.027,0.623,3.178,1.582,3.178
		c1.068,0,1.584-1.259,1.584-3.25c0-1.919-0.48-3.178-1.584-3.178C714.879,115.036,714.207,116.163,714.207,118.286z"/>
</g>
<g>
	<path d="M617.172,199.07c0,2.651-0.995,4.114-2.71,4.114c-1.523,0-2.567-1.427-2.591-4.006c0-2.626,1.14-4.054,2.723-4.054
		C616.225,195.124,617.172,196.587,617.172,199.07z M612.938,199.19c0,2.027,0.624,3.178,1.583,3.178c1.068,0,1.584-1.26,1.584-3.25
		c0-1.919-0.48-3.179-1.584-3.179C613.61,195.939,612.938,197.067,612.938,199.19z"/>
	<path d="M620.426,196.239h-0.023l-1.355,0.732l-0.205-0.804l1.703-0.912h0.9v7.796h-1.02V196.239z"/>
	<path d="M629.484,199.07c0,2.651-0.996,4.114-2.711,4.114c-1.523,0-2.566-1.427-2.591-4.006c0-2.626,1.14-4.054,2.723-4.054
		C628.536,195.124,629.484,196.587,629.484,199.07z M625.25,199.19c0,2.027,0.624,3.178,1.584,3.178c1.066,0,1.582-1.26,1.582-3.25
		c0-1.919-0.479-3.179-1.582-3.179C625.922,195.939,625.25,197.067,625.25,199.19z"/>
	<path d="M635.64,199.07c0,2.651-0.995,4.114-2.71,4.114c-1.523,0-2.567-1.427-2.592-4.006c0-2.626,1.141-4.054,2.723-4.054
		C634.691,195.124,635.64,196.587,635.64,199.07z M631.406,199.19c0,2.027,0.623,3.178,1.583,3.178c1.067,0,1.583-1.26,1.583-3.25
		c0-1.919-0.48-3.179-1.583-3.179C632.078,195.939,631.406,197.067,631.406,199.19z"/>
</g>
<g>
	<path d="M620.251,378.931h-0.024l-1.355,0.731l-0.203-0.803l1.703-0.912h0.899v7.796h-1.02V378.931z"/>
	<path d="M626.406,378.931h-0.023l-1.355,0.731l-0.204-0.803l1.703-0.912h0.899v7.796h-1.02V378.931z"/>
	<path d="M632.562,378.931h-0.023l-1.355,0.731l-0.204-0.803l1.702-0.912h0.9v7.796h-1.02V378.931z"/>
	<path d="M641.621,381.762c0,2.65-0.996,4.113-2.711,4.113c-1.523,0-2.566-1.427-2.591-4.006c0-2.626,1.14-4.054,2.723-4.054
		C640.673,377.815,641.621,379.278,641.621,381.762z M637.387,381.881c0,2.027,0.624,3.179,1.584,3.179
		c1.066,0,1.582-1.26,1.582-3.25c0-1.919-0.479-3.179-1.582-3.179C638.059,378.631,637.387,379.759,637.387,381.881z"/>
</g>
<g>
	<path d="M695.305,278.876h-0.024l-1.355,0.731l-0.204-0.803l1.703-0.912h0.9v7.796h-1.02V278.876z"/>
	<path d="M701.46,278.876h-0.024l-1.355,0.731l-0.203-0.803l1.703-0.912h0.899v7.796h-1.02V278.876z"/>
	<path d="M710.518,281.707c0,2.65-0.994,4.113-2.711,4.113c-1.521,0-2.566-1.427-2.59-4.006c0-2.626,1.139-4.054,2.723-4.054
		C709.57,277.761,710.518,279.224,710.518,281.707z M706.285,281.826c0,2.027,0.623,3.179,1.582,3.179
		c1.068,0,1.584-1.26,1.584-3.25c0-1.919-0.48-3.179-1.584-3.179C706.955,278.576,706.285,279.704,706.285,281.826z"/>
	<path d="M713.771,278.876h-0.023l-1.355,0.731l-0.205-0.803l1.703-0.912h0.9v7.796h-1.02V278.876z"/>
</g>
<g>
	<path d="M777.457,197.719h-0.023l-1.355,0.732l-0.203-0.804l1.703-0.912h0.898v7.796h-1.02V197.719z"/>
	<path d="M786.516,200.55c0,2.65-0.994,4.113-2.709,4.113c-1.523,0-2.566-1.427-2.592-4.006c0-2.626,1.141-4.054,2.723-4.054
		C785.568,196.604,786.516,198.067,786.516,200.55z M782.283,200.669c0,2.027,0.623,3.179,1.582,3.179
		c1.068,0,1.584-1.26,1.584-3.25c0-1.919-0.48-3.179-1.584-3.179C782.955,197.419,782.283,198.546,782.283,200.669z"/>
	<path d="M789.77,197.719h-0.023l-1.355,0.732l-0.203-0.804l1.703-0.912h0.898v7.796h-1.02V197.719z"/>
	<path d="M795.926,197.719h-0.023l-1.355,0.732l-0.203-0.804l1.703-0.912h0.898v7.796h-1.02V197.719z"/>
</g>
<g>
	<path d="M882.188,275.887c0,2.65-0.996,4.113-2.711,4.113c-1.523,0-2.566-1.427-2.59-4.006c0-2.626,1.139-4.054,2.723-4.054
		C881.24,271.94,882.188,273.403,882.188,275.887z M877.953,276.006c0,2.027,0.625,3.179,1.584,3.179c1.066,0,1.582-1.26,1.582-3.25
		c0-1.919-0.479-3.179-1.582-3.179C878.625,272.756,877.953,273.884,877.953,276.006z"/>
	<path d="M885.441,273.056h-0.023l-1.355,0.731l-0.205-0.803l1.703-0.912h0.9v7.796h-1.02V273.056z"/>
	<path d="M891.598,273.056h-0.023l-1.355,0.731l-0.205-0.803l1.703-0.912h0.9v7.796h-1.02V273.056z"/>
	<path d="M897.754,273.056h-0.023l-1.355,0.731l-0.205-0.803l1.703-0.912h0.9v7.796h-1.02V273.056z"/>
</g>
</svg>
