<?xml version="1.0" encoding="utf-8"?>
<!-- Generator: Adobe Illustrator 15.1.0, SVG Export Plug-In . SVG Version: 6.00 Build 0)  -->
<!DOCTYPE svg PUBLIC "-//W3C//DTD SVG 1.1//EN" "http://www.w3.org/Graphics/SVG/1.1/DTD/svg11.dtd">
<svg version="1.1" id="Layer_1" xmlns="http://www.w3.org/2000/svg" xmlns:xlink="http://www.w3.org/1999/xlink" x="0px" y="0px"
	 width="676px" height="300px" viewBox="92.5 48.5 676 300" enable-background="new 92.5 48.5 676 300" xml:space="preserve">
<polygon fill="none" stroke="#000000" stroke-width="3" points="258.79,195.246 119.15,253.087 125.145,70.989 276.29,70.989 "/>
<polygon fill="none" stroke="#000000" stroke-width="3" points="383.163,329.009 258.79,310.929 200.948,171.289 383.163,177.865 
	"/>
<line fill="none" stroke="#000000" stroke-width="3" x1="258.79" y1="195.246" x2="383.163" y2="329.009"/>
<line fill="none" stroke="#000000" stroke-width="3" x1="274.762" y1="70.989" x2="381.635" y2="177.865"/>
<line fill="none" stroke="#000000" stroke-width="3" x1="119.15" y1="253.087" x2="258.79" y2="310.929"/>
<line fill="none" stroke="#000000" stroke-width="3" x1="125.145" y1="70.989" x2="200.948" y2="171.289"/>
<polygon fill="none" stroke="#000000" stroke-width="3" points="741.946,329.603 590.801,329.603 608.764,204.646 748.405,146.805 
	"/>
<polygon fill="none" stroke="#000000" stroke-width="3" points="666.606,228.604 483.926,222.728 483.926,71.583 608.766,88.965 "/>
<line fill="none" stroke="#000000" stroke-width="3" x1="741.946" y1="329.603" x2="666.606" y2="228.604"/>
<line fill="none" stroke="#000000" stroke-width="3" x1="746.992" y1="147.391" x2="607.354" y2="89.549"/>
<line fill="none" stroke="#000000" stroke-width="3" x1="590.801" y1="329.603" x2="483.926" y2="222.728"/>
<line fill="none" stroke="#000000" stroke-width="3" x1="608.764" y1="204.646" x2="483.926" y2="71.583"/>
<path fill="#FFFFFF" stroke="#000000" stroke-width="2" d="M383.163,329.009"/>
<path fill="#FFFFFF" stroke="#000000" stroke-width="2" d="M258.79,310.929"/>
<path fill="#FFFFFF" stroke="#000000" stroke-width="2" d="M200.948,171.289"/>
<path fill="#FFFFFF" stroke="#000000" stroke-width="2" d="M258.79,195.246"/>
<path fill="#FFFFFF" stroke="#000000" stroke-width="2" d="M381.635,177.865"/>
<path fill="#FFFFFF" stroke="#000000" stroke-width="2" d="M125.145,70.989"/>
<path fill="#FFFFFF" stroke="#000000" stroke-width="2" d="M276.29,70.989"/>
<path fill="#FFFFFF" stroke="#000000" stroke-width="2" d="M118.148,252.192"/>
<circle fill="#FFFFFF" stroke="#000000" cx="200.948" cy="171.289" r="15"/>
<circle fill="#FFFFFF" stroke="#000000" cx="125.145" cy="70.989" r="15"/>
<circle fill="#FFFFFF" stroke="#000000" cx="118.148" cy="252.192" r="15"/>
<circle fill="#FFFFFF" stroke="#000000" cx="257.208" cy="311.689" r="15"/>
<circle fill="#FFFFFF" stroke="#000000" cx="381.73" cy="329.012" r="15"/>
<circle fill="#FFFFFF" stroke="#000000" cx="382.152" cy="178.287" r="15"/>
<circle fill="#FFFFFF" stroke="#000000" cx="258.548" cy="195.934" r="15"/>
<circle fill="#FFFFFF" stroke="#000000" cx="275.871" cy="71.41" r="15"/>
<path fill="#FFFFFF" stroke="#000000" stroke-width="2" d="M483.926,71.583"/>
<path fill="#FFFFFF" stroke="#000000" stroke-width="2" d="M607.354,89.549"/>
<path fill="#FFFFFF" stroke="#000000" stroke-width="2" d="M666.606,228.604"/>
<path fill="#FFFFFF" stroke="#000000" stroke-width="2" d="M608.764,204.646"/>
<path fill="#FFFFFF" stroke="#000000" stroke-width="2" d="M483.926,222.728"/>
<path fill="#FFFFFF" stroke="#000000" stroke-width="2" d="M741.946,329.603"/>
<path fill="#FFFFFF" stroke="#000000" stroke-width="2" d="M590.801,329.603"/>
<path fill="#FFFFFF" stroke="#000000" stroke-width="2" d="M747.508,147.809"/>
<circle fill="#FFFFFF" stroke="#000000" cx="608.448" cy="88.312" r="15"/>
<circle fill="#FFFFFF" stroke="#000000" cx="483.924" cy="70.989" r="15"/>
<circle fill="#FFFFFF" stroke="#000000" cx="483.504" cy="221.715" r="15"/>
<circle fill="#FFFFFF" stroke="#000000" cx="607.107" cy="204.067" r="15"/>
<circle fill="#FFFFFF" stroke="#000000" cx="589.785" cy="328.592" r="15"/>
<circle fill="#FFFFFF" stroke="#000000" cx="664.708" cy="228.711" r="15"/>
<circle fill="#FFFFFF" stroke="#000000" cx="740.512" cy="329.012" r="15"/>
<circle fill="#FFFFFF" stroke="#000000" cx="747.508" cy="147.809" r="15"/>
<path opacity="0.5" fill="none" d="M383.163,329.009"/>
<path opacity="0.5" fill="none" d="M258.79,310.929"/>
<path opacity="0.5" fill="none" d="M200.948,171.289"/>
<path opacity="0.5" fill="none" d="M258.79,195.246"/>
<path opacity="0.5" fill="none" d="M381.635,177.865"/>
<path opacity="0.5" fill="none" d="M125.145,70.989"/>
<path opacity="0.5" fill="none" d="M276.29,70.989"/>
<path opacity="0.5" fill="none" d="M118.148,252.192"/>
<circle opacity="0.5" fill="#009246" cx="200.948" cy="171.289" r="15"/>
<circle opacity="0.5" fill="#FEC200" cx="125.145" cy="70.989" r="15"/>
<circle opacity="0.5" fill="#009246" cx="118.148" cy="252.192" r="15"/>
<circle opacity="0.5" fill="#FEC200" cx="257.208" cy="311.689" r="15"/>
<circle opacity="0.5" fill="#009246" cx="381.73" cy="329.012" r="15"/>
<circle opacity="0.5" fill="#FEC200" cx="382.152" cy="178.287" r="15"/>
<circle opacity="0.5" fill="#FEC200" cx="258.548" cy="195.934" r="15"/>
<circle opacity="0.5" fill="#009246" cx="275.871" cy="71.41" r="15"/>
<g>
	<path d="M118.566,71.007c0,2.651-0.996,4.114-2.71,4.114c-1.523,0-2.567-1.427-2.591-4.006c0-2.626,1.14-4.054,2.723-4.054
		C117.619,67.061,118.566,68.524,118.566,71.007z M114.333,71.127c0,2.027,0.624,3.178,1.583,3.178c1.067,0,1.583-1.259,1.583-3.25
		c0-1.919-0.48-3.178-1.583-3.178C115.004,67.876,114.333,69.004,114.333,71.127z"/>
	<path d="M124.722,71.007c0,2.651-0.996,4.114-2.71,4.114c-1.523,0-2.567-1.427-2.591-4.006c0-2.626,1.14-4.054,2.723-4.054
		C123.774,67.061,124.722,68.524,124.722,71.007z M120.488,71.127c0,2.027,0.624,3.178,1.583,3.178c1.067,0,1.583-1.259,1.583-3.25
		c0-1.919-0.48-3.178-1.583-3.178C121.16,67.876,120.488,69.004,120.488,71.127z"/>
	<path d="M130.878,71.007c0,2.651-0.996,4.114-2.71,4.114c-1.523,0-2.567-1.427-2.591-4.006c0-2.626,1.14-4.054,2.723-4.054
		C129.93,67.061,130.878,68.524,130.878,71.007z M126.644,71.127c0,2.027,0.624,3.178,1.583,3.178c1.067,0,1.583-1.259,1.583-3.25
		c0-1.919-0.48-3.178-1.583-3.178C127.316,67.876,126.644,69.004,126.644,71.127z"/>
	<path d="M137.034,71.007c0,2.651-0.996,4.114-2.71,4.114c-1.523,0-2.567-1.427-2.591-4.006c0-2.626,1.14-4.054,2.723-4.054
		C136.086,67.061,137.034,68.524,137.034,71.007z M132.8,71.127c0,2.027,0.624,3.178,1.583,3.178c1.067,0,1.583-1.259,1.583-3.25
		c0-1.919-0.48-3.178-1.583-3.178C133.472,67.876,132.8,69.004,132.8,71.127z"/>
</g>
<g>
	<path d="M269.711,71.007c0,2.651-0.995,4.114-2.71,4.114c-1.523,0-2.566-1.427-2.591-4.006c0-2.626,1.14-4.054,2.723-4.054
		C268.764,67.061,269.711,68.524,269.711,71.007z M265.478,71.127c0,2.027,0.624,3.178,1.583,3.178c1.067,0,1.583-1.259,1.583-3.25
		c0-1.919-0.479-3.178-1.583-3.178C266.149,67.876,265.478,69.004,265.478,71.127z"/>
	<path d="M275.867,71.007c0,2.651-0.995,4.114-2.71,4.114c-1.523,0-2.566-1.427-2.591-4.006c0-2.626,1.14-4.054,2.723-4.054
		C274.92,67.061,275.867,68.524,275.867,71.007z M271.634,71.127c0,2.027,0.624,3.178,1.583,3.178c1.067,0,1.583-1.259,1.583-3.25
		c0-1.919-0.479-3.178-1.583-3.178C272.306,67.876,271.634,69.004,271.634,71.127z"/>
	<path d="M282.022,71.007c0,2.651-0.995,4.114-2.71,4.114c-1.523,0-2.566-1.427-2.591-4.006c0-2.626,1.14-4.054,2.723-4.054
		C281.075,67.061,282.022,68.524,282.022,71.007z M277.789,71.127c0,2.027,0.624,3.178,1.583,3.178c1.067,0,1.583-1.259,1.583-3.25
		c0-1.919-0.479-3.178-1.583-3.178C278.461,67.876,277.789,69.004,277.789,71.127z"/>
	<path d="M285.276,68.177h-0.023l-1.355,0.731l-0.204-0.804l1.703-0.912h0.899v7.796h-1.02V68.177z"/>
</g>
<g>
	<path d="M194.37,171.307c0,2.651-0.996,4.114-2.71,4.114c-1.523,0-2.567-1.427-2.591-4.006c0-2.626,1.14-4.054,2.723-4.054
		C193.422,167.361,194.37,168.824,194.37,171.307z M190.136,171.427c0,2.027,0.624,3.178,1.583,3.178
		c1.067,0,1.583-1.259,1.583-3.25c0-1.919-0.48-3.178-1.583-3.178C190.808,168.176,190.136,169.304,190.136,171.427z"/>
	<path d="M200.525,171.307c0,2.651-0.996,4.114-2.71,4.114c-1.523,0-2.567-1.427-2.591-4.006c0-2.626,1.14-4.054,2.723-4.054
		C199.578,167.361,200.525,168.824,200.525,171.307z M196.292,171.427c0,2.027,0.624,3.178,1.583,3.178
		c1.067,0,1.583-1.259,1.583-3.25c0-1.919-0.48-3.178-1.583-3.178C196.963,168.176,196.292,169.304,196.292,171.427z"/>
	<path d="M203.778,168.477h-0.023l-1.355,0.731l-0.204-0.804l1.703-0.912h0.899v7.796h-1.02V168.477z"/>
	<path d="M212.837,171.307c0,2.651-0.995,4.114-2.71,4.114c-1.523,0-2.566-1.427-2.591-4.006c0-2.626,1.14-4.054,2.723-4.054
		C211.89,167.361,212.837,168.824,212.837,171.307z M208.604,171.427c0,2.027,0.624,3.178,1.583,3.178
		c1.067,0,1.583-1.259,1.583-3.25c0-1.919-0.479-3.178-1.583-3.178C209.275,168.176,208.604,169.304,208.604,171.427z"/>
</g>
<g>
	<path d="M111.569,252.211c0,2.65-0.996,4.113-2.71,4.113c-1.523,0-2.567-1.427-2.591-4.006c0-2.627,1.14-4.054,2.723-4.054
		C110.622,248.265,111.569,249.729,111.569,252.211z M107.335,252.33c0,2.027,0.624,3.179,1.583,3.179
		c1.067,0,1.583-1.26,1.583-3.25c0-1.919-0.48-3.179-1.583-3.179C108.007,249.08,107.335,250.207,107.335,252.33z"/>
	<path d="M114.823,249.38h-0.024l-1.355,0.731l-0.204-0.803l1.703-0.912h0.9v7.796h-1.02V249.38z"/>
	<path d="M123.881,252.211c0,2.65-0.996,4.113-2.71,4.113c-1.523,0-2.567-1.427-2.591-4.006c0-2.627,1.14-4.054,2.723-4.054
		C122.933,248.265,123.881,249.729,123.881,252.211z M119.647,252.33c0,2.027,0.624,3.179,1.583,3.179
		c1.067,0,1.583-1.26,1.583-3.25c0-1.919-0.48-3.179-1.583-3.179C120.319,249.08,119.647,250.207,119.647,252.33z"/>
	<path d="M130.037,252.211c0,2.65-0.996,4.113-2.71,4.113c-1.523,0-2.567-1.427-2.591-4.006c0-2.627,1.14-4.054,2.723-4.054
		C129.089,248.265,130.037,249.729,130.037,252.211z M125.803,252.33c0,2.027,0.624,3.179,1.583,3.179
		c1.067,0,1.583-1.26,1.583-3.25c0-1.919-0.48-3.179-1.583-3.179C126.475,249.08,125.803,250.207,125.803,252.33z"/>
</g>
<g>
	<path d="M250.629,310.947c0,2.65-0.995,4.113-2.71,4.113c-1.523,0-2.566-1.427-2.591-4.006c0-2.626,1.14-4.054,2.723-4.054
		C249.682,307.001,250.629,308.464,250.629,310.947z M246.396,311.066c0,2.027,0.624,3.179,1.583,3.179
		c1.067,0,1.583-1.26,1.583-3.25c0-1.919-0.479-3.179-1.583-3.179C247.067,307.816,246.396,308.944,246.396,311.066z"/>
	<path d="M253.883,308.116h-0.023l-1.355,0.731l-0.204-0.803l1.703-0.912h0.899v7.796h-1.02V308.116z"/>
	<path d="M260.038,308.116h-0.023l-1.355,0.731l-0.204-0.803l1.703-0.912h0.899v7.796h-1.02V308.116z"/>
	<path d="M269.097,310.947c0,2.65-0.995,4.113-2.71,4.113c-1.523,0-2.566-1.427-2.591-4.006c0-2.626,1.14-4.054,2.723-4.054
		C268.149,307.001,269.097,308.464,269.097,310.947z M264.863,311.066c0,2.027,0.624,3.179,1.583,3.179
		c1.067,0,1.583-1.26,1.583-3.25c0-1.919-0.479-3.179-1.583-3.179C265.535,307.816,264.863,308.944,264.863,311.066z"/>
</g>
<g>
	<path d="M376.584,177.883c0,2.651-0.995,4.114-2.71,4.114c-1.523,0-2.566-1.427-2.591-4.006c0-2.626,1.14-4.054,2.723-4.054
		C375.637,173.937,376.584,175.4,376.584,177.883z M372.351,178.003c0,2.027,0.624,3.178,1.583,3.178
		c1.067,0,1.583-1.259,1.583-3.25c0-1.919-0.479-3.178-1.583-3.178C373.022,174.752,372.351,175.88,372.351,178.003z"/>
	<path d="M382.74,177.883c0,2.651-0.995,4.114-2.71,4.114c-1.523,0-2.566-1.427-2.591-4.006c0-2.626,1.14-4.054,2.723-4.054
		C381.793,173.937,382.74,175.4,382.74,177.883z M378.507,178.003c0,2.027,0.624,3.178,1.583,3.178c1.067,0,1.583-1.259,1.583-3.25
		c0-1.919-0.479-3.178-1.583-3.178C379.179,174.752,378.507,175.88,378.507,178.003z"/>
	<path d="M385.993,175.053h-0.023l-1.355,0.731l-0.204-0.804l1.703-0.912h0.899v7.796h-1.02V175.053z"/>
	<path d="M392.149,175.053h-0.023l-1.355,0.731l-0.204-0.804l1.703-0.912h0.899v7.796h-1.02V175.053z"/>
</g>
<g>
	<path d="M252.211,195.264c0,2.651-0.995,4.114-2.71,4.114c-1.523,0-2.566-1.427-2.591-4.006c0-2.626,1.14-4.054,2.723-4.054
		C251.264,191.318,252.211,192.781,252.211,195.264z M247.978,195.384c0,2.027,0.624,3.178,1.583,3.178
		c1.067,0,1.583-1.259,1.583-3.25c0-1.919-0.479-3.178-1.583-3.178C248.649,192.133,247.978,193.261,247.978,195.384z"/>
	<path d="M255.465,192.434h-0.023l-1.355,0.731l-0.204-0.804l1.703-0.912h0.899v7.796h-1.02V192.434z"/>
	<path d="M264.522,195.264c0,2.651-0.995,4.114-2.71,4.114c-1.523,0-2.566-1.427-2.591-4.006c0-2.626,1.14-4.054,2.723-4.054
		C263.575,191.318,264.522,192.781,264.522,195.264z M260.289,195.384c0,2.027,0.624,3.178,1.583,3.178
		c1.067,0,1.583-1.259,1.583-3.25c0-1.919-0.479-3.178-1.583-3.178C260.961,192.133,260.289,193.261,260.289,195.384z"/>
	<path d="M267.776,192.434h-0.023l-1.355,0.731l-0.204-0.804l1.703-0.912h0.899v7.796h-1.02V192.434z"/>
</g>
<g>
	<path d="M376.584,329.027c0,2.65-0.995,4.113-2.71,4.113c-1.523,0-2.566-1.427-2.591-4.006c0-2.626,1.14-4.054,2.723-4.054
		C375.637,325.081,376.584,326.544,376.584,329.027z M372.351,329.146c0,2.027,0.624,3.179,1.583,3.179
		c1.067,0,1.583-1.26,1.583-3.25c0-1.919-0.479-3.179-1.583-3.179C373.022,325.896,372.351,327.024,372.351,329.146z"/>
	<path d="M379.838,326.196h-0.023l-1.355,0.731l-0.204-0.803l1.703-0.912h0.899v7.796h-1.02V326.196z"/>
	<path d="M385.993,326.196h-0.023l-1.355,0.731l-0.204-0.803l1.703-0.912h0.899v7.796h-1.02V326.196z"/>
	<path d="M392.149,326.196h-0.023l-1.355,0.731l-0.204-0.803l1.703-0.912h0.899v7.796h-1.02V326.196z"/>
</g>
<path opacity="0.5" fill="none" d="M483.926,71.583"/>
<path opacity="0.5" fill="none" d="M607.354,89.549"/>
<path opacity="0.5" fill="none" d="M666.606,228.604"/>
<path opacity="0.5" fill="none" d="M608.764,204.646"/>
<path opacity="0.5" fill="none" d="M483.926,222.728"/>
<path opacity="0.5" fill="none" d="M741.946,329.603"/>
<path opacity="0.5" fill="none" d="M590.801,329.603"/>
<path opacity="0.5" fill="none" d="M747.508,147.809"/>
<circle opacity="0.5" fill="#BC1E47" cx="608.448" cy="88.312" r="15"/>
<circle opacity="0.5" fill="#0081CD" cx="483.924" cy="70.989" r="15"/>
<circle opacity="0.5" fill="#BC1E47" cx="483.504" cy="221.715" r="15"/>
<circle opacity="0.5" fill="#BC1E47" cx="607.107" cy="204.067" r="15"/>
<circle opacity="0.5" fill="#0081CD" cx="589.785" cy="328.592" r="15"/>
<circle opacity="0.5" fill="#0081CD" cx="664.708" cy="228.711" r="15"/>
<circle opacity="0.5" fill="#BC1E47" cx="740.512" cy="329.012" r="15"/>
<circle opacity="0.5" fill="#0081CD" cx="747.508" cy="147.809" r="15"/>
<g>
	<path d="M474.445,68.771h-0.023l-1.355,0.731l-0.204-0.804l1.702-0.912h0.9v7.796h-1.02V68.771z"/>
	<path d="M483.504,71.602c0,2.651-0.996,4.114-2.711,4.114c-1.523,0-2.566-1.427-2.591-4.006c0-2.626,1.14-4.054,2.723-4.054
		C482.556,67.656,483.504,69.119,483.504,71.602z M479.27,71.722c0,2.027,0.624,3.178,1.584,3.178c1.066,0,1.582-1.259,1.582-3.25
		c0-1.919-0.479-3.178-1.582-3.178C479.941,68.471,479.27,69.599,479.27,71.722z"/>
	<path d="M489.659,71.602c0,2.651-0.995,4.114-2.71,4.114c-1.523,0-2.567-1.427-2.592-4.006c0-2.626,1.141-4.054,2.723-4.054
		C488.711,67.656,489.659,69.119,489.659,71.602z M485.426,71.722c0,2.027,0.623,3.178,1.583,3.178c1.067,0,1.583-1.259,1.583-3.25
		c0-1.919-0.48-3.178-1.583-3.178C486.098,68.471,485.426,69.599,485.426,71.722z"/>
	<path d="M495.814,71.602c0,2.651-0.995,4.114-2.71,4.114c-1.523,0-2.567-1.427-2.591-4.006c0-2.626,1.14-4.054,2.723-4.054
		C494.867,67.656,495.814,69.119,495.814,71.602z M491.581,71.722c0,2.027,0.624,3.178,1.583,3.178c1.068,0,1.584-1.259,1.584-3.25
		c0-1.919-0.48-3.178-1.584-3.178C492.253,68.471,491.581,69.599,491.581,71.722z"/>
</g>
<g>
	<path d="M599.284,86.153h-0.024l-1.355,0.731l-0.203-0.804l1.703-0.912h0.899v7.796h-1.02V86.153z"/>
	<path d="M608.342,88.983c0,2.651-0.995,4.114-2.71,4.114c-1.523,0-2.567-1.427-2.591-4.006c0-2.626,1.14-4.054,2.723-4.054
		C607.395,85.038,608.342,86.501,608.342,88.983z M604.108,89.104c0,2.027,0.624,3.178,1.583,3.178c1.068,0,1.584-1.259,1.584-3.25
		c0-1.919-0.48-3.178-1.584-3.178C604.78,85.853,604.108,86.98,604.108,89.104z"/>
	<path d="M614.498,88.983c0,2.651-0.996,4.114-2.711,4.114c-1.523,0-2.566-1.427-2.59-4.006c0-2.626,1.139-4.054,2.723-4.054
		C613.551,85.038,614.498,86.501,614.498,88.983z M610.264,89.104c0,2.027,0.625,3.178,1.584,3.178c1.067,0,1.583-1.259,1.583-3.25
		c0-1.919-0.479-3.178-1.583-3.178C610.936,85.853,610.264,86.98,610.264,89.104z"/>
	<path d="M617.752,86.153h-0.024l-1.355,0.731l-0.204-0.804l1.703-0.912h0.9v7.796h-1.02V86.153z"/>
</g>
<g>
	<path d="M474.023,218.902H474l-1.355,0.731l-0.205-0.803l1.703-0.912h0.9v7.796h-1.02V218.902z"/>
	<path d="M480.18,218.902h-0.024l-1.355,0.731l-0.204-0.803l1.703-0.912h0.9v7.796h-1.02V218.902z"/>
	<path d="M489.237,221.733c0,2.65-0.995,4.113-2.71,4.113c-1.523,0-2.567-1.427-2.592-4.006c0-2.626,1.141-4.054,2.723-4.054
		C488.289,217.787,489.237,219.25,489.237,221.733z M485.004,221.853c0,2.027,0.623,3.179,1.583,3.179
		c1.067,0,1.583-1.26,1.583-3.25c0-1.919-0.48-3.179-1.583-3.179C485.676,218.603,485.004,219.73,485.004,221.853z"/>
	<path d="M495.393,221.733c0,2.65-0.995,4.113-2.71,4.113c-1.523,0-2.567-1.427-2.591-4.006c0-2.626,1.14-4.054,2.723-4.054
		C494.445,217.787,495.393,219.25,495.393,221.733z M491.159,221.853c0,2.027,0.624,3.179,1.583,3.179
		c1.068,0,1.584-1.26,1.584-3.25c0-1.919-0.48-3.179-1.584-3.179C491.831,218.603,491.159,219.73,491.159,221.853z"/>
</g>
<g>
	<path d="M597.627,200.067h-0.024l-1.355,0.731l-0.204-0.803l1.703-0.912h0.9v7.796h-1.02V200.067z"/>
	<path d="M606.685,202.898c0,2.65-0.995,4.113-2.71,4.113c-1.523,0-2.567-1.427-2.592-4.006c0-2.626,1.141-4.054,2.723-4.054
		C605.736,198.952,606.685,200.415,606.685,202.898z M602.451,203.018c0,2.027,0.623,3.179,1.583,3.179
		c1.067,0,1.583-1.26,1.583-3.25c0-1.919-0.48-3.179-1.583-3.179C603.123,199.768,602.451,200.896,602.451,203.018z"/>
	<path d="M609.938,200.067h-0.023l-1.355,0.731l-0.203-0.803l1.702-0.912h0.899v7.796h-1.02V200.067z"/>
	<path d="M618.996,202.898c0,2.65-0.996,4.113-2.711,4.113c-1.523,0-2.566-1.427-2.59-4.006c0-2.626,1.139-4.054,2.723-4.054
		C618.049,198.952,618.996,200.415,618.996,202.898z M614.762,203.018c0,2.027,0.625,3.179,1.584,3.179
		c1.067,0,1.583-1.26,1.583-3.25c0-1.919-0.479-3.179-1.583-3.179C615.434,199.768,614.762,200.896,614.762,203.018z"/>
</g>
<g>
	<path d="M580.305,325.79h-0.024l-1.355,0.731l-0.204-0.803l1.703-0.912h0.9v7.796h-1.02V325.79z"/>
	<path d="M586.46,325.79h-0.024l-1.355,0.731l-0.203-0.803l1.703-0.912h0.899v7.796h-1.02V325.79z"/>
	<path d="M592.615,325.79h-0.023l-1.355,0.731l-0.203-0.803l1.702-0.912h0.899v7.796h-1.02V325.79z"/>
	<path d="M601.674,328.621c0,2.65-0.996,4.113-2.711,4.113c-1.523,0-2.566-1.427-2.59-4.006c0-2.626,1.139-4.054,2.723-4.054
		C600.727,324.675,601.674,326.138,601.674,328.621z M597.439,328.74c0,2.027,0.625,3.179,1.584,3.179
		c1.067,0,1.583-1.26,1.583-3.25c0-1.919-0.479-3.179-1.583-3.179C598.111,325.49,597.439,326.618,597.439,328.74z"/>
</g>
<g>
	<path d="M655.357,225.735h-0.023l-1.355,0.731l-0.204-0.803l1.702-0.912h0.9v7.796h-1.02V225.735z"/>
	<path d="M661.514,225.735h-0.024l-1.355,0.731l-0.204-0.803l1.703-0.912h0.9v7.796h-1.02V225.735z"/>
	<path d="M670.571,228.566c0,2.65-0.995,4.113-2.711,4.113c-1.522,0-2.566-1.427-2.591-4.006c0-2.626,1.14-4.054,2.723-4.054
		C669.624,224.62,670.571,226.083,670.571,228.566z M666.338,228.686c0,2.027,0.623,3.179,1.583,3.179
		c1.067,0,1.583-1.26,1.583-3.25c0-1.919-0.479-3.179-1.583-3.179C667.009,225.436,666.338,226.563,666.338,228.686z"/>
	<path d="M673.824,225.735h-0.023l-1.355,0.731l-0.204-0.803l1.703-0.912h0.899v7.796h-1.02V225.735z"/>
</g>
<g>
	<path d="M737.511,144.578h-0.023l-1.355,0.732l-0.204-0.804l1.703-0.912h0.899v7.796h-1.02V144.578z"/>
	<path d="M746.569,147.409c0,2.65-0.995,4.113-2.71,4.113c-1.523,0-2.566-1.427-2.591-4.006c0-2.626,1.14-4.054,2.723-4.054
		C745.622,143.463,746.569,144.926,746.569,147.409z M742.336,147.528c0,2.027,0.624,3.179,1.583,3.179
		c1.067,0,1.583-1.26,1.583-3.25c0-1.919-0.479-3.179-1.583-3.179C743.008,144.278,742.336,145.406,742.336,147.528z"/>
	<path d="M749.822,144.578h-0.023l-1.355,0.732l-0.204-0.804l1.703-0.912h0.899v7.796h-1.02V144.578z"/>
	<path d="M755.979,144.578h-0.023l-1.355,0.732l-0.204-0.804l1.703-0.912h0.899v7.796h-1.02V144.578z"/>
</g>
<g>
	<path d="M731.465,325.79h-0.023l-1.355,0.731l-0.204-0.803l1.703-0.912h0.899v7.796h-1.02V325.79z"/>
	<path d="M737.621,325.79h-0.023l-1.355,0.731l-0.204-0.803l1.703-0.912h0.899v7.796h-1.02V325.79z"/>
	<path d="M743.776,325.79h-0.023l-1.355,0.731l-0.204-0.803l1.703-0.912h0.899v7.796h-1.02V325.79z"/>
	<path d="M749.933,325.79h-0.023l-1.355,0.731l-0.204-0.803l1.703-0.912h0.899v7.796h-1.02V325.79z"/>
</g>
</svg>
