<?xml version="1.0" encoding="utf-8"?>
<!-- Generator: Adobe Illustrator 15.1.0, SVG Export Plug-In . SVG Version: 6.00 Build 0)  -->
<!DOCTYPE svg PUBLIC "-//W3C//DTD SVG 1.1//EN" "http://www.w3.org/Graphics/SVG/1.1/DTD/svg11.dtd">
<svg version="1.1" id="Layer_1" xmlns="http://www.w3.org/2000/svg" xmlns:xlink="http://www.w3.org/1999/xlink" x="0px" y="0px"
	 width="683.834px" height="400px" viewBox="0 0 683.834 400" enable-background="new 0 0 683.834 400" xml:space="preserve">
<g>
	<line fill="none" stroke="#009246" stroke-width="2" x1="18.27" y1="124.724" x2="383.163" y2="275.868"/>
	<line fill="none" stroke="#009246" stroke-width="2" x1="18.27" y1="275.868" x2="381.635" y2="124.724"/>
	<line fill="none" stroke="#009246" stroke-width="2" x1="125.145" y1="17.848" x2="276.29" y2="382.743"/>
	<line fill="none" stroke="#009246" stroke-width="2" x1="125.145" y1="382.743" x2="276.29" y2="17.848"/>
</g>
<g>
	<line fill="none" stroke="#0081CD" stroke-width="3" x1="276.29" y1="382.743" x2="125.145" y2="382.743"/>
	<line fill="none" stroke="#0081CD" stroke-width="3" x1="125.145" y1="17.848" x2="276.29" y2="17.848"/>
	<line fill="none" stroke="#0081CD" stroke-width="3" x1="18.27" y1="275.868" x2="18.27" y2="124.724"/>
	<line fill="none" stroke="#0081CD" stroke-width="3" x1="383.163" y1="124.724" x2="383.163" y2="275.868"/>
	<line fill="none" stroke="#0081CD" stroke-width="3" x1="383.163" y1="275.868" x2="276.29" y2="382.743"/>
	<line fill="none" stroke="#0081CD" stroke-width="3" x1="274.762" y1="17.848" x2="381.635" y2="124.724"/>
	<line fill="none" stroke="#0081CD" stroke-width="3" x1="125.145" y1="382.743" x2="18.27" y2="275.868"/>
	<line fill="none" stroke="#0081CD" stroke-width="3" x1="18.27" y1="124.724" x2="125.145" y2="17.848"/>
</g>
<circle fill="#FEC200" stroke="#000000" cx="125.145" cy="17.848" r="15"/>
<circle fill="#FEC200" stroke="#000000" cx="18.268" cy="124.13" r="15"/>
<circle fill="#FEC200" stroke="#000000" cx="17.848" cy="274.855" r="15"/>
<circle fill="#FEC200" stroke="#000000" cx="124.129" cy="381.732" r="15"/>
<circle fill="#FEC200" stroke="#000000" cx="274.855" cy="382.152" r="15"/>
<circle fill="#FEC200" stroke="#000000" cx="381.73" cy="275.871" r="15"/>
<circle fill="#FEC200" stroke="#000000" cx="382.152" cy="125.146" r="15"/>
<circle fill="#FEC200" stroke="#000000" cx="275.871" cy="18.269" r="15"/>
<g>
	<path d="M118.566,17.866c0,2.651-0.996,4.114-2.71,4.114c-1.523,0-2.567-1.427-2.591-4.006c0-2.626,1.14-4.054,2.723-4.054
		C117.619,13.92,118.566,15.384,118.566,17.866z M114.333,17.986c0,2.027,0.624,3.178,1.583,3.178c1.067,0,1.583-1.259,1.583-3.25
		c0-1.919-0.48-3.178-1.583-3.178C115.004,14.736,114.333,15.863,114.333,17.986z"/>
	<path d="M124.722,17.866c0,2.651-0.996,4.114-2.71,4.114c-1.523,0-2.567-1.427-2.591-4.006c0-2.626,1.14-4.054,2.723-4.054
		C123.774,13.92,124.722,15.384,124.722,17.866z M120.488,17.986c0,2.027,0.624,3.178,1.583,3.178c1.067,0,1.583-1.259,1.583-3.25
		c0-1.919-0.48-3.178-1.583-3.178C121.16,14.736,120.488,15.863,120.488,17.986z"/>
	<path d="M130.878,17.866c0,2.651-0.996,4.114-2.71,4.114c-1.523,0-2.567-1.427-2.591-4.006c0-2.626,1.14-4.054,2.723-4.054
		C129.93,13.92,130.878,15.384,130.878,17.866z M126.644,17.986c0,2.027,0.624,3.178,1.583,3.178c1.067,0,1.583-1.259,1.583-3.25
		c0-1.919-0.48-3.178-1.583-3.178C127.316,14.736,126.644,15.863,126.644,17.986z"/>
	<path d="M137.034,17.866c0,2.651-0.996,4.114-2.71,4.114c-1.523,0-2.567-1.427-2.591-4.006c0-2.626,1.14-4.054,2.723-4.054
		C136.086,13.92,137.034,15.384,137.034,17.866z M132.8,17.986c0,2.027,0.624,3.178,1.583,3.178c1.067,0,1.583-1.259,1.583-3.25
		c0-1.919-0.48-3.178-1.583-3.178C133.472,14.736,132.8,15.863,132.8,17.986z"/>
</g>
<g>
	<path d="M269.711,17.866c0,2.651-0.995,4.114-2.71,4.114c-1.523,0-2.566-1.427-2.591-4.006c0-2.626,1.14-4.054,2.723-4.054
		C268.764,13.92,269.711,15.384,269.711,17.866z M265.478,17.986c0,2.027,0.624,3.178,1.583,3.178c1.067,0,1.583-1.259,1.583-3.25
		c0-1.919-0.479-3.178-1.583-3.178C266.149,14.736,265.478,15.863,265.478,17.986z"/>
	<path d="M275.867,17.866c0,2.651-0.995,4.114-2.71,4.114c-1.523,0-2.566-1.427-2.591-4.006c0-2.626,1.14-4.054,2.723-4.054
		C274.92,13.92,275.867,15.384,275.867,17.866z M271.634,17.986c0,2.027,0.624,3.178,1.583,3.178c1.067,0,1.583-1.259,1.583-3.25
		c0-1.919-0.479-3.178-1.583-3.178C272.306,14.736,271.634,15.863,271.634,17.986z"/>
	<path d="M282.023,17.866c0,2.651-0.995,4.114-2.71,4.114c-1.523,0-2.566-1.427-2.591-4.006c0-2.626,1.14-4.054,2.723-4.054
		C281.076,13.92,282.023,15.384,282.023,17.866z M277.79,17.986c0,2.027,0.624,3.178,1.583,3.178c1.067,0,1.583-1.259,1.583-3.25
		c0-1.919-0.479-3.178-1.583-3.178C278.462,14.736,277.79,15.863,277.79,17.986z"/>
	<path d="M285.277,15.036h-0.023l-1.355,0.731l-0.204-0.804l1.703-0.912h0.899v7.796h-1.02V15.036z"/>
</g>
<g>
	<path d="M8.789,121.912H8.765l-1.355,0.731l-0.204-0.804l1.703-0.912h0.9v7.796h-1.02V121.912z"/>
	<path d="M17.847,124.742c0,2.651-0.996,4.114-2.71,4.114c-1.523,0-2.567-1.427-2.591-4.006c0-2.626,1.14-4.054,2.723-4.054
		C16.899,120.796,17.847,122.26,17.847,124.742z M13.613,124.862c0,2.027,0.624,3.178,1.583,3.178c1.067,0,1.583-1.259,1.583-3.25
		c0-1.919-0.48-3.178-1.583-3.178C14.285,121.612,13.613,122.739,13.613,124.862z"/>
	<path d="M24.003,124.742c0,2.651-0.996,4.114-2.71,4.114c-1.523,0-2.567-1.427-2.591-4.006c0-2.626,1.14-4.054,2.723-4.054
		C23.055,120.796,24.003,122.26,24.003,124.742z M19.769,124.862c0,2.027,0.624,3.178,1.583,3.178c1.067,0,1.583-1.259,1.583-3.25
		c0-1.919-0.48-3.178-1.583-3.178C20.441,121.612,19.769,122.739,19.769,124.862z"/>
	<path d="M30.159,124.742c0,2.651-0.996,4.114-2.71,4.114c-1.523,0-2.567-1.427-2.591-4.006c0-2.626,1.14-4.054,2.723-4.054
		C29.211,120.796,30.159,122.26,30.159,124.742z M25.925,124.862c0,2.027,0.624,3.178,1.583,3.178c1.067,0,1.583-1.259,1.583-3.25
		c0-1.919-0.48-3.178-1.583-3.178C26.597,121.612,25.925,122.739,25.925,124.862z"/>
</g>
<g>
	<path d="M8.367,272.043H8.343l-1.355,0.731l-0.204-0.803l1.703-0.912h0.9v7.796h-1.02V272.043z"/>
	<path d="M14.523,272.043h-0.024l-1.355,0.731l-0.204-0.803l1.703-0.912h0.9v7.796h-1.02V272.043z"/>
	<path d="M23.581,274.874c0,2.65-0.996,4.113-2.71,4.113c-1.523,0-2.567-1.427-2.591-4.006c0-2.626,1.14-4.054,2.723-4.054
		C22.633,270.928,23.581,272.391,23.581,274.874z M19.347,274.993c0,2.027,0.624,3.179,1.583,3.179c1.067,0,1.583-1.26,1.583-3.25
		c0-1.919-0.48-3.179-1.583-3.179C20.019,271.743,19.347,272.871,19.347,274.993z"/>
	<path d="M29.737,274.874c0,2.65-0.996,4.113-2.71,4.113c-1.523,0-2.567-1.427-2.591-4.006c0-2.626,1.14-4.054,2.723-4.054
		C28.789,270.928,29.737,272.391,29.737,274.874z M25.503,274.993c0,2.027,0.624,3.179,1.583,3.179c1.067,0,1.583-1.26,1.583-3.25
		c0-1.919-0.48-3.179-1.583-3.179C26.175,271.743,25.503,272.871,25.503,274.993z"/>
</g>
<g>
	<path d="M376.584,124.742c0,2.651-0.995,4.114-2.71,4.114c-1.523,0-2.566-1.427-2.591-4.006c0-2.626,1.14-4.054,2.723-4.054
		C375.637,120.796,376.584,122.26,376.584,124.742z M372.351,124.862c0,2.027,0.624,3.178,1.583,3.178
		c1.067,0,1.583-1.259,1.583-3.25c0-1.919-0.479-3.178-1.583-3.178C373.022,121.612,372.351,122.739,372.351,124.862z"/>
	<path d="M382.74,124.742c0,2.651-0.995,4.114-2.71,4.114c-1.523,0-2.566-1.427-2.591-4.006c0-2.626,1.14-4.054,2.723-4.054
		C381.793,120.796,382.74,122.26,382.74,124.742z M378.507,124.862c0,2.027,0.624,3.178,1.583,3.178c1.067,0,1.583-1.259,1.583-3.25
		c0-1.919-0.479-3.178-1.583-3.178C379.179,121.612,378.507,122.739,378.507,124.862z"/>
	<path d="M385.994,121.912h-0.023l-1.355,0.731l-0.204-0.804l1.703-0.912h0.899v7.796h-1.02V121.912z"/>
	<path d="M392.15,121.912h-0.023l-1.355,0.731l-0.204-0.804l1.703-0.912h0.899v7.796h-1.02V121.912z"/>
</g>
<g>
	<path d="M114.648,378.931h-0.024l-1.355,0.731l-0.204-0.803l1.703-0.912h0.9v7.796h-1.02V378.931z"/>
	<path d="M120.804,378.931h-0.024l-1.355,0.731l-0.204-0.803l1.703-0.912h0.9v7.796h-1.02V378.931z"/>
	<path d="M126.959,378.931h-0.024l-1.355,0.731l-0.204-0.803l1.703-0.912h0.9v7.796h-1.02V378.931z"/>
	<path d="M136.018,381.762c0,2.65-0.996,4.113-2.71,4.113c-1.523,0-2.567-1.427-2.591-4.006c0-2.626,1.14-4.054,2.723-4.054
		C135.07,377.815,136.018,379.278,136.018,381.762z M131.784,381.881c0,2.027,0.624,3.179,1.583,3.179
		c1.067,0,1.583-1.26,1.583-3.25c0-1.919-0.48-3.179-1.583-3.179C132.456,378.631,131.784,379.759,131.784,381.881z"/>
</g>
<g>
	<path d="M376.584,275.887c0,2.65-0.995,4.113-2.71,4.113c-1.523,0-2.566-1.427-2.591-4.006c0-2.626,1.14-4.054,2.723-4.054
		C375.637,271.94,376.584,273.403,376.584,275.887z M372.351,276.006c0,2.027,0.624,3.179,1.583,3.179
		c1.067,0,1.583-1.26,1.583-3.25c0-1.919-0.479-3.179-1.583-3.179C373.022,272.756,372.351,273.884,372.351,276.006z"/>
	<path d="M379.838,273.056h-0.023l-1.355,0.731l-0.204-0.803l1.703-0.912h0.899v7.796h-1.02V273.056z"/>
	<path d="M385.994,273.056h-0.023l-1.355,0.731l-0.204-0.803l1.703-0.912h0.899v7.796h-1.02V273.056z"/>
	<path d="M392.15,273.056h-0.023l-1.355,0.731l-0.204-0.803l1.703-0.912h0.899v7.796h-1.02V273.056z"/>
</g>
<g>
	<path d="M265.809,378.931h-0.023l-1.355,0.731l-0.204-0.803l1.703-0.912h0.899v7.796h-1.02V378.931z"/>
	<path d="M271.965,378.931h-0.023l-1.355,0.731l-0.204-0.803l1.703-0.912h0.899v7.796h-1.02V378.931z"/>
	<path d="M278.121,378.931h-0.023l-1.355,0.731l-0.204-0.803l1.703-0.912h0.899v7.796h-1.02V378.931z"/>
	<path d="M284.277,378.931h-0.023l-1.355,0.731l-0.204-0.803l1.703-0.912h0.899v7.796h-1.02V378.931z"/>
</g>
<g>
	<line fill="none" stroke="#009246" stroke-width="2" x1="521.438" y1="142.69" x2="638.53" y2="257.788"/>
	<line fill="none" stroke="#009246" stroke-width="2" x1="580.688" y1="118.148" x2="580.69" y2="281.745"/>
	<line fill="none" stroke="#009246" stroke-width="2" x1="522.848" y1="257.786" x2="638.53" y2="142.105"/>
	<line fill="none" stroke="#009246" stroke-width="2" x1="497.889" y1="199.052" x2="661.592" y2="200.949"/>
</g>
<g>
	<line fill="none" stroke="#0081CD" stroke-width="3" x1="522.848" y1="257.786" x2="662.489" y2="199.946"/>
	<line fill="none" stroke="#0081CD" stroke-width="3" x1="638.53" y1="142.105" x2="498.891" y2="199.946"/>
	<line fill="none" stroke="#0081CD" stroke-width="3" x1="522.85" y1="142.106" x2="580.69" y2="281.745"/>
	<line fill="none" stroke="#0081CD" stroke-width="3" x1="638.53" y1="257.788" x2="580.688" y2="118.148"/>
	<line fill="none" stroke="#0081CD" stroke-width="3" x1="580.69" y1="281.745" x2="638.53" y2="142.105"/>
	<line fill="none" stroke="#0081CD" stroke-width="3" x1="661.076" y1="200.531" x2="521.438" y2="142.69"/>
	<line fill="none" stroke="#0081CD" stroke-width="3" x1="498.891" y1="199.946" x2="638.53" y2="257.788"/>
	<line fill="none" stroke="#0081CD" stroke-width="3" x1="580.688" y1="118.148" x2="522.848" y2="257.786"/>
</g>
<circle fill="#FEC200" stroke="#000000" cx="580.688" cy="118.148" r="15"/>
<circle fill="#FEC200" stroke="#000000" cx="522.532" cy="141.452" r="15"/>
<circle fill="#FEC200" stroke="#000000" cx="497.889" cy="199.052" r="15"/>
<circle fill="#FEC200" stroke="#000000" cx="521.191" cy="257.208" r="15"/>
<circle fill="#FEC200" stroke="#000000" cx="578.792" cy="281.852" r="15"/>
<circle fill="#FEC200" stroke="#000000" cx="636.948" cy="258.549" r="15"/>
<circle fill="#FEC200" stroke="#000000" cx="661.592" cy="200.949" r="15"/>
<circle fill="#FEC200" stroke="#000000" cx="638.288" cy="142.793" r="15"/>
<g>
	<path d="M513.368,139.294h-0.024l-1.355,0.731l-0.203-0.804l1.703-0.912h0.899v7.796h-1.02V139.294z"/>
	<path d="M522.426,142.124c0,2.651-0.995,4.114-2.71,4.114c-1.523,0-2.567-1.427-2.591-4.006c0-2.626,1.14-4.054,2.723-4.054
		C521.479,138.178,522.426,139.642,522.426,142.124z M518.192,142.244c0,2.027,0.624,3.178,1.583,3.178
		c1.068,0,1.584-1.259,1.584-3.25c0-1.919-0.48-3.178-1.584-3.178C518.864,138.994,518.192,140.121,518.192,142.244z"/>
	<path d="M528.582,142.124c0,2.651-0.996,4.114-2.711,4.114c-1.523,0-2.566-1.427-2.59-4.006c0-2.626,1.139-4.054,2.723-4.054
		C527.635,138.178,528.582,139.642,528.582,142.124z M524.348,142.244c0,2.027,0.625,3.178,1.584,3.178
		c1.067,0,1.583-1.259,1.583-3.25c0-1.919-0.479-3.178-1.583-3.178C525.02,138.994,524.348,140.121,524.348,142.244z"/>
	<path d="M531.836,139.294h-0.024l-1.355,0.731l-0.204-0.804l1.703-0.912h0.9v7.796h-1.02V139.294z"/>
</g>
<g>
	<path d="M574.109,118.166c0,2.651-0.995,4.114-2.71,4.114c-1.523,0-2.567-1.427-2.591-4.006c0-2.626,1.14-4.054,2.723-4.054
		C573.162,114.22,574.109,115.684,574.109,118.166z M569.876,118.286c0,2.027,0.624,3.178,1.583,3.178
		c1.068,0,1.584-1.259,1.584-3.25c0-1.919-0.48-3.178-1.584-3.178C570.548,115.036,569.876,116.163,569.876,118.286z"/>
	<path d="M580.266,118.166c0,2.651-0.996,4.114-2.711,4.114c-1.523,0-2.566-1.427-2.59-4.006c0-2.626,1.139-4.054,2.723-4.054
		C579.318,114.22,580.266,115.684,580.266,118.166z M576.031,118.286c0,2.027,0.625,3.178,1.584,3.178
		c1.067,0,1.583-1.259,1.583-3.25c0-1.919-0.479-3.178-1.583-3.178C576.703,115.036,576.031,116.163,576.031,118.286z"/>
	<path d="M583.519,115.336h-0.023l-1.355,0.731l-0.204-0.804l1.703-0.912h0.899v7.796h-1.02V115.336z"/>
	<path d="M592.577,118.166c0,2.651-0.995,4.114-2.71,4.114c-1.523,0-2.566-1.427-2.591-4.006c0-2.626,1.14-4.054,2.723-4.054
		C591.63,114.22,592.577,115.684,592.577,118.166z M588.344,118.286c0,2.027,0.624,3.178,1.583,3.178
		c1.067,0,1.583-1.259,1.583-3.25c0-1.919-0.479-3.178-1.583-3.178C589.016,115.036,588.344,116.163,588.344,118.286z"/>
</g>
<g>
	<path d="M491.31,199.07c0,2.651-0.995,4.114-2.71,4.114c-1.523,0-2.567-1.427-2.592-4.006c0-2.626,1.141-4.054,2.723-4.054
		C490.361,195.124,491.31,196.587,491.31,199.07z M487.076,199.19c0,2.027,0.623,3.178,1.583,3.178c1.067,0,1.583-1.26,1.583-3.25
		c0-1.919-0.48-3.179-1.583-3.179C487.748,195.939,487.076,197.067,487.076,199.19z"/>
	<path d="M494.562,196.239h-0.023l-1.355,0.732l-0.204-0.804l1.703-0.912h0.899v7.796h-1.02V196.239z"/>
	<path d="M503.621,199.07c0,2.651-0.996,4.114-2.711,4.114c-1.523,0-2.566-1.427-2.59-4.006c0-2.626,1.139-4.054,2.723-4.054
		C502.674,195.124,503.621,196.587,503.621,199.07z M499.387,199.19c0,2.027,0.625,3.178,1.584,3.178c1.067,0,1.583-1.26,1.583-3.25
		c0-1.919-0.479-3.179-1.583-3.179C500.059,195.939,499.387,197.067,499.387,199.19z"/>
	<path d="M509.777,199.07c0,2.651-0.996,4.114-2.711,4.114c-1.523,0-2.566-1.427-2.591-4.006c0-2.626,1.14-4.054,2.723-4.054
		C508.829,195.124,509.777,196.587,509.777,199.07z M505.543,199.19c0,2.027,0.624,3.178,1.584,3.178c1.066,0,1.582-1.26,1.582-3.25
		c0-1.919-0.479-3.179-1.582-3.179C506.215,195.939,505.543,197.067,505.543,199.19z"/>
</g>
<g>
	<path d="M630.369,257.807c0,2.65-0.995,4.113-2.71,4.113c-1.523,0-2.566-1.427-2.591-4.006c0-2.626,1.14-4.054,2.723-4.054
		C629.422,253.86,630.369,255.323,630.369,257.807z M626.136,257.926c0,2.027,0.624,3.179,1.583,3.179
		c1.067,0,1.583-1.26,1.583-3.25c0-1.919-0.479-3.179-1.583-3.179C626.808,254.676,626.136,255.804,626.136,257.926z"/>
	<path d="M633.623,254.976H633.6l-1.355,0.731l-0.204-0.803l1.703-0.912h0.899v7.796h-1.02V254.976z"/>
	<path d="M639.779,254.976h-0.023l-1.355,0.731l-0.204-0.803l1.703-0.912h0.899v7.796h-1.02V254.976z"/>
	<path d="M648.838,257.807c0,2.65-0.995,4.113-2.71,4.113c-1.523,0-2.566-1.427-2.591-4.006c0-2.626,1.14-4.054,2.723-4.054
		C647.891,253.86,648.838,255.323,648.838,257.807z M644.604,257.926c0,2.027,0.624,3.179,1.583,3.179
		c1.067,0,1.583-1.26,1.583-3.25c0-1.919-0.479-3.179-1.583-3.179C645.276,254.676,644.604,255.804,644.604,257.926z"/>
</g>
<g>
	<path d="M631.951,142.123c0,2.651-0.995,4.114-2.71,4.114c-1.523,0-2.566-1.427-2.591-4.006c0-2.626,1.14-4.054,2.723-4.054
		C631.004,138.177,631.951,139.641,631.951,142.123z M627.718,142.243c0,2.027,0.624,3.178,1.583,3.178
		c1.067,0,1.583-1.259,1.583-3.25c0-1.919-0.479-3.178-1.583-3.178C628.39,138.993,627.718,140.12,627.718,142.243z"/>
	<path d="M635.205,139.293h-0.023l-1.355,0.731l-0.204-0.804l1.703-0.912h0.899v7.796h-1.02V139.293z"/>
	<path d="M644.264,142.123c0,2.651-0.995,4.114-2.71,4.114c-1.523,0-2.566-1.427-2.591-4.006c0-2.626,1.14-4.054,2.723-4.054
		C643.316,138.177,644.264,139.641,644.264,142.123z M640.03,142.243c0,2.027,0.624,3.178,1.583,3.178
		c1.067,0,1.583-1.259,1.583-3.25c0-1.919-0.479-3.178-1.583-3.178C640.702,138.993,640.03,140.12,640.03,142.243z"/>
	<path d="M647.518,139.293h-0.023l-1.355,0.731l-0.204-0.804l1.703-0.912h0.899v7.796h-1.02V139.293z"/>
</g>
<g>
	<path d="M511.711,253.208h-0.024l-1.355,0.731l-0.204-0.803l1.703-0.912h0.9v7.796h-1.02V253.208z"/>
	<path d="M520.769,256.039c0,2.65-0.995,4.113-2.71,4.113c-1.523,0-2.567-1.427-2.592-4.006c0-2.626,1.141-4.054,2.723-4.054
		C519.82,252.093,520.769,253.556,520.769,256.039z M516.535,256.158c0,2.027,0.623,3.179,1.583,3.179
		c1.067,0,1.583-1.26,1.583-3.25c0-1.919-0.48-3.179-1.583-3.179C517.207,252.908,516.535,254.036,516.535,256.158z"/>
	<path d="M524.021,253.208h-0.023l-1.355,0.731l-0.203-0.803l1.702-0.912h0.899v7.796h-1.02V253.208z"/>
	<path d="M533.08,256.039c0,2.65-0.996,4.113-2.711,4.113c-1.523,0-2.566-1.427-2.59-4.006c0-2.626,1.139-4.054,2.723-4.054
		C532.133,252.093,533.08,253.556,533.08,256.039z M528.846,256.158c0,2.027,0.625,3.179,1.584,3.179c1.067,0,1.583-1.26,1.583-3.25
		c0-1.919-0.479-3.179-1.583-3.179C529.518,252.908,528.846,254.036,528.846,256.158z"/>
</g>
<g>
	<path d="M569.441,278.876h-0.023l-1.355,0.731l-0.204-0.803l1.702-0.912h0.9v7.796h-1.02V278.876z"/>
	<path d="M575.598,278.876h-0.024l-1.355,0.731l-0.204-0.803l1.703-0.912h0.9v7.796h-1.02V278.876z"/>
	<path d="M584.655,281.707c0,2.65-0.995,4.113-2.711,4.113c-1.522,0-2.566-1.427-2.591-4.006c0-2.626,1.14-4.054,2.723-4.054
		C583.708,277.761,584.655,279.224,584.655,281.707z M580.422,281.826c0,2.027,0.623,3.179,1.583,3.179
		c1.067,0,1.583-1.26,1.583-3.25c0-1.919-0.479-3.179-1.583-3.179C581.093,278.576,580.422,279.704,580.422,281.826z"/>
	<path d="M587.908,278.876h-0.023l-1.355,0.731l-0.204-0.803l1.703-0.912h0.899v7.796h-1.02V278.876z"/>
</g>
<g>
	<path d="M651.595,197.719h-0.023l-1.355,0.732l-0.204-0.804l1.703-0.912h0.899v7.796h-1.02V197.719z"/>
	<path d="M660.653,200.55c0,2.65-0.995,4.113-2.71,4.113c-1.523,0-2.566-1.427-2.591-4.006c0-2.626,1.14-4.054,2.723-4.054
		C659.706,196.604,660.653,198.067,660.653,200.55z M656.42,200.669c0,2.027,0.624,3.179,1.583,3.179c1.067,0,1.583-1.26,1.583-3.25
		c0-1.919-0.479-3.179-1.583-3.179C657.092,197.419,656.42,198.546,656.42,200.669z"/>
	<path d="M663.907,197.719h-0.023l-1.355,0.732l-0.204-0.804l1.703-0.912h0.899v7.796h-1.02V197.719z"/>
	<path d="M670.063,197.719h-0.023l-1.355,0.732l-0.204-0.804l1.703-0.912h0.899v7.796h-1.02V197.719z"/>
</g>
</svg>
