<?xml version="1.0" encoding="utf-8"?>
<!-- Generator: Adobe Illustrator 15.1.0, SVG Export Plug-In . SVG Version: 6.00 Build 0)  -->
<!DOCTYPE svg PUBLIC "-//W3C//DTD SVG 1.1//EN" "http://www.w3.org/Graphics/SVG/1.1/DTD/svg11.dtd">
<svg version="1.1" id="Layer_1" xmlns="http://www.w3.org/2000/svg" xmlns:xlink="http://www.w3.org/1999/xlink" x="0px" y="0px"
	 width="612px" height="225px" viewBox="0 0 612 225" enable-background="new 0 0 612 225" xml:space="preserve">
<polyline fill="none" stroke="#231F20" stroke-width="2" stroke-miterlimit="10" points="306,36 378,18 522,36 "/>
<polyline fill="none" stroke="#231F20" stroke-width="2" stroke-miterlimit="10" points="234,117 306,36 378,54 522,36 594,117 "/>
<polyline fill="none" stroke="#231F20" stroke-width="2" stroke-miterlimit="10" points="378,90 450,108 522,90 "/>
<polyline fill="none" stroke="#231F20" stroke-width="2" stroke-miterlimit="10" points="306,171 378,171 450,189 "/>
<polyline fill="none" stroke="#231F20" stroke-width="2" stroke-miterlimit="10" points="306,171 378,135 522,162 "/>
<polygon fill="none" stroke="#231F20" stroke-width="2" stroke-miterlimit="10" points="234,117 306,90 378,90 450,72 522,90 
	594,117 522,162 450,189 378,207 306,171 "/>
<line fill="none" stroke="#231F20" stroke-width="2" stroke-miterlimit="10" x1="18" y1="180" x2="162" y2="36"/>
<line fill="none" stroke="#231F20" stroke-width="2" stroke-miterlimit="10" x1="18" y1="36" x2="162" y2="180"/>
<rect x="18" y="36" fill="none" stroke="#231F20" stroke-width="2" stroke-miterlimit="10" width="144" height="144"/>
<circle fill="#0081CD" stroke="#231F20" stroke-miterlimit="10" cx="162" cy="36" r="9"/>
<circle fill="#0081CD" stroke="#231F20" stroke-miterlimit="10" cx="18" cy="36" r="9"/>
<circle fill="#0081CD" stroke="#231F20" stroke-miterlimit="10" cx="18" cy="180" r="9"/>
<circle fill="#0081CD" stroke="#231F20" stroke-miterlimit="10" cx="162" cy="180" r="9"/>
<circle fill="#FEC200" stroke="#231F20" stroke-miterlimit="10" cx="162" cy="72" r="6"/>
<circle fill="#FEC200" stroke="#231F20" stroke-miterlimit="10" cx="162" cy="108" r="6"/>
<circle fill="#FEC200" stroke="#231F20" stroke-miterlimit="10" cx="162" cy="144" r="6"/>
<circle fill="#FEC200" stroke="#231F20" stroke-miterlimit="10" cx="108" cy="180" r="6"/>
<circle fill="#FEC200" stroke="#231F20" stroke-miterlimit="10" cx="54" cy="180" r="6"/>
<circle fill="#FEC200" stroke="#231F20" stroke-miterlimit="10" cx="117" cy="135" r="6"/>
<circle fill="#FEC200" stroke="#231F20" stroke-miterlimit="10" cx="72" cy="90" r="6"/>
<circle fill="#FEC200" stroke="#231F20" stroke-miterlimit="10" cx="45" cy="63" r="6"/>
<circle fill="#FEC200" stroke="#231F20" stroke-miterlimit="10" cx="117" cy="81" r="6"/>
<circle fill="#FEC200" stroke="#231F20" stroke-miterlimit="10" cx="90" cy="36" r="6"/>
<circle fill="#009246" stroke="#231F20" stroke-miterlimit="10" cx="234" cy="117" r="9"/>
<circle fill="#009246" stroke="#231F20" stroke-miterlimit="10" cx="306" cy="90" r="9"/>
<circle fill="#009246" stroke="#231F20" stroke-miterlimit="10" cx="306" cy="36" r="9"/>
<circle fill="#009246" stroke="#231F20" stroke-miterlimit="10" cx="378" cy="54" r="9"/>
<circle fill="#009246" stroke="#231F20" stroke-miterlimit="10" cx="522" cy="36" r="9"/>
<circle fill="#009246" stroke="#231F20" stroke-miterlimit="10" cx="378" cy="18" r="9"/>
<circle fill="#009246" stroke="#231F20" stroke-miterlimit="10" cx="378" cy="90" r="9"/>
<circle fill="#009246" stroke="#231F20" stroke-miterlimit="10" cx="450" cy="108" r="9"/>
<circle fill="#009246" stroke="#231F20" stroke-miterlimit="10" cx="450" cy="72" r="9"/>
<circle fill="#009246" stroke="#231F20" stroke-miterlimit="10" cx="522" cy="90" r="9"/>
<circle fill="#009246" stroke="#231F20" stroke-miterlimit="10" cx="594" cy="117" r="9"/>
<circle fill="#009246" stroke="#231F20" stroke-miterlimit="10" cx="306" cy="171" r="9"/>
<circle fill="#009246" stroke="#231F20" stroke-miterlimit="10" cx="378" cy="135" r="9"/>
<circle fill="#009246" stroke="#231F20" stroke-miterlimit="10" cx="378" cy="171" r="9"/>
<circle fill="#009246" stroke="#231F20" stroke-miterlimit="10" cx="378" cy="207" r="9"/>
<circle fill="#009246" stroke="#231F20" stroke-miterlimit="10" cx="450" cy="189" r="9"/>
<circle fill="#009246" stroke="#231F20" stroke-miterlimit="10" cx="522" cy="162" r="9"/>
</svg>
