<?xml version="1.0" encoding="utf-8"?>
<!-- Generator: Adobe Illustrator 15.1.0, SVG Export Plug-In . SVG Version: 6.00 Build 0)  -->
<!DOCTYPE svg PUBLIC "-//W3C//DTD SVG 1.1//EN" "http://www.w3.org/Graphics/SVG/1.1/DTD/svg11.dtd">
<svg version="1.1" id="Layer_1" xmlns="http://www.w3.org/2000/svg" xmlns:xlink="http://www.w3.org/1999/xlink" x="0px" y="0px"
	 width="468px" height="180px" viewBox="0 0 468 180" enable-background="new 0 0 468 180" xml:space="preserve">
<line fill="none" stroke="#231F20" stroke-width="2" stroke-miterlimit="10" x1="450" y1="162" x2="234" y2="18"/>
<line fill="none" stroke="#231F20" stroke-width="2" stroke-miterlimit="10" x1="288" y1="162" x2="162" y2="18"/>
<line fill="none" stroke="#231F20" stroke-width="2" stroke-miterlimit="10" x1="72" y1="162" x2="306" y2="18"/>
<polyline fill="none" stroke="#231F20" stroke-width="2" stroke-miterlimit="10" points="18,162 234,18 180,162 "/>
<polyline fill="none" stroke="#231F20" stroke-width="2" stroke-miterlimit="10" points="342,162 306,18 18,162 162,18 72,162 
	234,18 126,162 306,18 180,162 162,18 234,162 "/>
<polyline fill="none" stroke="#231F20" stroke-width="2" stroke-miterlimit="10" points="126,162 162,18 450,162 306,18 396,162 
	162,18 342,162 234,18 288,162 306,18 234,162 234,18 396,162 "/>
<circle fill="#0081CD" stroke="#231F20" stroke-miterlimit="10" cx="162" cy="18" r="9"/>
<circle fill="#0081CD" stroke="#231F20" stroke-miterlimit="10" cx="234" cy="18" r="9"/>
<circle fill="#0081CD" stroke="#231F20" stroke-miterlimit="10" cx="306" cy="18" r="9"/>
<circle fill="#FEC200" stroke="#231F20" stroke-miterlimit="10" cx="234" cy="162" r="9"/>
<circle fill="#FEC200" stroke="#231F20" stroke-miterlimit="10" cx="180" cy="162" r="9"/>
<circle fill="#FEC200" stroke="#231F20" stroke-miterlimit="10" cx="126" cy="162" r="9"/>
<circle fill="#FEC200" stroke="#231F20" stroke-miterlimit="10" cx="72" cy="162" r="9"/>
<circle fill="#FEC200" stroke="#231F20" stroke-miterlimit="10" cx="18" cy="162" r="9"/>
<circle fill="#FEC200" stroke="#231F20" stroke-miterlimit="10" cx="288" cy="162" r="9"/>
<circle fill="#FEC200" stroke="#231F20" stroke-miterlimit="10" cx="342" cy="162" r="9"/>
<circle fill="#FEC200" stroke="#231F20" stroke-miterlimit="10" cx="396" cy="162" r="9"/>
<circle fill="#FEC200" stroke="#231F20" stroke-miterlimit="10" cx="450" cy="162" r="9"/>
</svg>
