<?xml version="1.0" standalone="no"?>
<!DOCTYPE svg PUBLIC "-//W3C//DTD SVG 1.1//EN" 
  "http://www.w3.org/Graphics/SVG/1.1/DTD/svg11.dtd">
<svg width="324" height="324" viewBox="0 0 324 324"
     xmlns="http://www.w3.org/2000/svg" version="1.1">
  <g style="stroke:#009246; fill:none">
    <line x1="198" y1="162" x2="162" y2="198"/>
    <line x1="198" y1="162" x2="162" y2="126"/>
    <line x1="126" y1="162" x2="162" y2="198"/>
    <line x1="126" y1="162" x2="162" y2="126"/>
    <line x1="234" y1="162" x2="162" y2="126"/>
    <line x1="234" y1="162" x2="162" y2="198"/>
    <line x1="234" y1="162" x2="162" y2="234"/>
    <line x1="234" y1="162" x2="162" y2="90"/>
    <line x1="90" y1="162" x2="162" y2="126"/>
    <line x1="90" y1="162" x2="162" y2="198"/>
    <line x1="90" y1="162" x2="162" y2="234"/>
    <line x1="90" y1="162" x2="162" y2="90"/>
    <line x1="270" y1="162" x2="162" y2="90"/>
    <line x1="270" y1="162" x2="162" y2="234"/>
    <line x1="270" y1="162" x2="162" y2="270"/>
    <line x1="270" y1="162" x2="162" y2="54"/>
    <line x1="54" y1="162" x2="162" y2="90"/>
    <line x1="54" y1="162" x2="162" y2="234"/>
    <line x1="54" y1="162" x2="162" y2="270"/>
    <line x1="54" y1="162" x2="162" y2="54"/>
    <line x1="306" y1="162" x2="162" y2="54"/>
    <line x1="306" y1="162" x2="162" y2="270"/>
    <line x1="306" y1="162" x2="162" y2="306"/>
    <line x1="306" y1="162" x2="162" y2="18"/>
    <line x1="18" y1="162" x2="162" y2="54"/>
    <line x1="18" y1="162" x2="162" y2="270"/>
    <line x1="18" y1="162" x2="162" y2="306"/>
    <line x1="18" y1="162" x2="162" y2="18"/>
  </g>
  <g style="stroke:#000000; fill:#BC1E46">
    <circle cx="198" cy="162" r="6"/>
    <circle cx="126" cy="162" r="6"/>
    <circle cx="234" cy="162" r="6"/>
    <circle cx="90" cy="162" r="6"/>
    <circle cx="270" cy="162" r="6"/>
    <circle cx="54" cy="162" r="6"/>
    <circle cx="306" cy="162" r="6"/>
    <circle cx="18" cy="162" r="6"/>
  </g>
  <g style="stroke:#000000; fill:#0081CD">
    <circle cx="162" cy="198" r="6"/>
    <circle cx="162" cy="126" r="6"/>
    <circle cx="162" cy="234" r="6"/>
    <circle cx="162" cy="90" r="6"/>
    <circle cx="162" cy="270" r="6"/>
    <circle cx="162" cy="54" r="6"/>
    <circle cx="162" cy="306" r="6"/>
    <circle cx="162" cy="18" r="6"/>
  </g>
</svg>
