<?xml version="1.0" encoding="utf-8"?>
<!-- Generator: Adobe Illustrator 15.1.0, SVG Export Plug-In . SVG Version: 6.00 Build 0)  -->
<!DOCTYPE svg PUBLIC "-//W3C//DTD SVG 1.1//EN" "http://www.w3.org/Graphics/SVG/1.1/DTD/svg11.dtd">
<svg version="1.1" id="Layer_1" xmlns="http://www.w3.org/2000/svg" xmlns:xlink="http://www.w3.org/1999/xlink" x="0px" y="0px"
	 width="453.39px" height="416.948px" viewBox="0 0 453.39 416.948" enable-background="new 0 0 453.39 416.948"
	 xml:space="preserve">
<polyline fill="none" stroke="#0081CD" stroke-width="2" stroke-miterlimit="10" points="390.914,292.731 371.376,356.352 
	420.073,326.817 402.073,388.724 439.327,360.589 "/>
<polyline fill="none" stroke="#0081CD" stroke-width="2" stroke-miterlimit="10" points="291.051,166.868 342.898,218.617 
	308.072,277.62 365.41,259.182 340.306,315.65 "/>
<polyline fill="none" stroke="#0081CD" stroke-width="2" stroke-miterlimit="10" points="30.458,326.817 73.014,335.817 
	19.288,369.589 "/>
<line fill="none" stroke="#0081CD" stroke-width="2" stroke-miterlimit="10" x1="42.341" y1="292.731" x2="90.165" y2="292.731"/>
<polyline fill="none" stroke="#0081CD" stroke-width="2" stroke-miterlimit="10" points="64.014,68.425 16.767,95.097 
	81.165,110.043 "/>
<polyline fill="none" stroke="#0081CD" stroke-width="2" stroke-miterlimit="10" points="108.741,162.364 55.014,182.918 
	81.165,110.043 37.288,140.678 "/>
<polyline fill="none" stroke="#0081CD" stroke-width="2" stroke-miterlimit="10" points="184.716,175.868 143.221,230.957 
	143.221,181.356 58.21,239.957 99.741,259.182 "/>
<polyline fill="none" stroke="#0081CD" stroke-width="2" stroke-miterlimit="10" points="243.31,248.19 234.31,184.868 
	189.195,232.797 "/>
<line fill="none" stroke="#0081CD" stroke-width="2" stroke-miterlimit="10" x1="308.072" y1="131.678" x2="351.898" y2="175.868"/>
<polyline fill="none" stroke="#0081CD" stroke-width="2" stroke-miterlimit="10" points="327.557,90.045 387.111,113.823 
	308.072,131.678 371.376,140.678 "/>
<polyline fill="none" stroke="#0081CD" stroke-width="2" stroke-miterlimit="10" points="411.073,29.996 349.306,50 406.862,74.28 
	"/>
<path fill="none" stroke="#231F20" stroke-width="2" stroke-miterlimit="10" d="M37.288,50c37.117-22.925,50,153.39,105.933,131.356
	s117.797,27.965,141.525-4.237c23.729-32.203,75.423-195.763,118.644-157.627S340.678,163.56,341.525,210.17
	s138.136,161.864,97.458,187.288S332.203,287.288,300,272.034s-124.576-56.78-175.423-38.136S73.729,414.808,31.356,400.624
	S66.949,266.11,61.017,207.632C55.085,149.153-20.339,85.593,37.288,50z"/>
<circle fill="#BC1E47" stroke="#231F20" stroke-miterlimit="10" cx="37.288" cy="50" r="9"/>
<circle fill="#BC1E47" stroke="#231F20" stroke-miterlimit="10" cx="16.767" cy="95.097" r="9"/>
<circle fill="#BC1E47" stroke="#231F20" stroke-miterlimit="10" cx="64.014" cy="68.425" r="9"/>
<circle fill="#BC1E47" stroke="#231F20" stroke-miterlimit="10" cx="37.288" cy="140.678" r="9"/>
<circle fill="#BC1E47" stroke="#231F20" stroke-miterlimit="10" cx="81.165" cy="110.043" r="9"/>
<circle fill="#BC1E47" stroke="#231F20" stroke-miterlimit="10" cx="105.163" cy="162.364" r="9"/>
<circle fill="#BC1E47" stroke="#231F20" stroke-miterlimit="10" cx="55.014" cy="182.918" r="9"/>
<circle fill="#BC1E47" stroke="#231F20" stroke-miterlimit="10" cx="58.21" cy="239.957" r="9"/>
<circle fill="#BC1E47" stroke="#231F20" stroke-miterlimit="10" cx="99.741" cy="259.182" r="9"/>
<circle fill="#BC1E47" stroke="#231F20" stroke-miterlimit="10" cx="85.815" cy="292.731" r="9"/>
<circle fill="#BC1E47" stroke="#231F20" stroke-miterlimit="10" cx="42.341" cy="292.731" r="9"/>
<circle fill="#BC1E47" stroke="#231F20" stroke-miterlimit="10" cx="73.014" cy="335.817" r="9"/>
<circle fill="#BC1E47" stroke="#231F20" stroke-miterlimit="10" cx="28.288" cy="326.817" r="9"/>
<circle fill="#BC1E47" stroke="#231F20" stroke-miterlimit="10" cx="58.21" cy="383.051" r="9"/>
<circle fill="#BC1E47" stroke="#231F20" stroke-miterlimit="10" cx="19.288" cy="369.589" r="9"/>
<circle fill="#BC1E47" stroke="#231F20" stroke-miterlimit="10" cx="143.221" cy="181.356" r="9"/>
<circle fill="#BC1E47" stroke="#231F20" stroke-miterlimit="10" cx="143.221" cy="230.957" r="9"/>
<circle fill="#BC1E47" stroke="#231F20" stroke-miterlimit="10" cx="184.716" cy="175.868" r="9"/>
<circle fill="#BC1E47" stroke="#231F20" stroke-miterlimit="10" cx="189.195" cy="232.797" r="9"/>
<circle fill="#BC1E47" stroke="#231F20" stroke-miterlimit="10" cx="234.31" cy="184.868" r="9"/>
<circle fill="#BC1E47" stroke="#231F20" stroke-miterlimit="10" cx="243.31" cy="248.19" r="9"/>
<circle fill="#BC1E47" stroke="#231F20" stroke-miterlimit="10" cx="291.051" cy="166.868" r="9"/>
<circle fill="#BC1E47" stroke="#231F20" stroke-miterlimit="10" cx="308.072" cy="131.678" r="9"/>
<circle fill="#BC1E47" stroke="#231F20" stroke-miterlimit="10" cx="327.557" cy="90.045" r="9"/>
<circle fill="#BC1E47" stroke="#231F20" stroke-miterlimit="10" cx="349.306" cy="50" r="9"/>
<circle fill="#BC1E47" stroke="#231F20" stroke-miterlimit="10" cx="385.363" cy="14.296" r="9"/>
<circle fill="#BC1E47" stroke="#231F20" stroke-miterlimit="10" cx="411.073" cy="29.996" r="9"/>
<circle fill="#BC1E47" stroke="#231F20" stroke-miterlimit="10" cx="406.862" cy="74.28" r="9"/>
<circle fill="#BC1E47" stroke="#231F20" stroke-miterlimit="10" cx="387.111" cy="113.823" r="9"/>
<circle fill="#BC1E47" stroke="#231F20" stroke-miterlimit="10" cx="371.376" cy="140.678" r="9"/>
<circle fill="#BC1E47" stroke="#231F20" stroke-miterlimit="10" cx="351.898" cy="175.868" r="9"/>
<circle fill="#BC1E47" stroke="#231F20" stroke-miterlimit="10" cx="342.898" cy="218.617" r="9"/>
<circle fill="#BC1E47" stroke="#231F20" stroke-miterlimit="10" cx="365.41" cy="259.182" r="9"/>
<circle fill="#BC1E47" stroke="#231F20" stroke-miterlimit="10" cx="308.072" cy="277.62" r="9"/>
<circle fill="#BC1E47" stroke="#231F20" stroke-miterlimit="10" cx="340.306" cy="315.65" r="9"/>
<circle fill="#BC1E47" stroke="#231F20" stroke-miterlimit="10" cx="371.376" cy="356.352" r="9"/>
<circle fill="#BC1E47" stroke="#231F20" stroke-miterlimit="10" cx="420.073" cy="326.817" r="9"/>
<circle fill="#BC1E47" stroke="#231F20" stroke-miterlimit="10" cx="390.914" cy="292.731" r="9"/>
<circle fill="#BC1E47" stroke="#231F20" stroke-miterlimit="10" cx="439.327" cy="360.589" r="9"/>
<circle fill="#BC1E47" stroke="#231F20" stroke-miterlimit="10" cx="402.073" cy="388.724" r="9"/>
<circle fill="#BC1E47" stroke="#231F20" stroke-miterlimit="10" cx="438.983" cy="397.458" r="9"/>
</svg>
