<?xml version="1.0" encoding="utf-8"?>
<!-- Generator: Adobe Illustrator 15.1.0, SVG Export Plug-In . SVG Version: 6.00 Build 0)  -->
<!DOCTYPE svg PUBLIC "-//W3C//DTD SVG 1.1//EN" "http://www.w3.org/Graphics/SVG/1.1/DTD/svg11.dtd">
<svg version="1.1" id="Layer_1" xmlns="http://www.w3.org/2000/svg" xmlns:xlink="http://www.w3.org/1999/xlink" x="0px" y="0px"
	 width="639px" height="252px" viewBox="0 0 639 252" enable-background="new 0 0 639 252" xml:space="preserve">
<polyline fill="none" stroke="#000000" stroke-width="0.5" stroke-miterlimit="10" points="585,234 324,18 621,234 "/>
<polyline fill="none" stroke="#000000" stroke-width="0.5" stroke-miterlimit="10" points="513,234 324,18 549,234 "/>
<polyline fill="none" stroke="#000000" stroke-width="0.5" stroke-miterlimit="10" points="423,234 324,18 459,234 "/>
<polyline fill="none" stroke="#000000" stroke-width="0.5" stroke-miterlimit="10" points="351,234 324,18 387,234 "/>
<polyline fill="none" stroke="#000000" stroke-width="0.5" stroke-miterlimit="10" points="261,234 324,18 297,234 "/>
<polyline fill="none" stroke="#000000" stroke-width="0.5" stroke-miterlimit="10" points="189,234 324,18 225,234 "/>
<polyline fill="none" stroke="#000000" stroke-width="0.5" stroke-miterlimit="10" points="90,234 324,18 126,234 "/>
<polyline fill="none" stroke="#000000" stroke-width="0.5" stroke-miterlimit="10" points="18,234 324,18 54,234 "/>
<polyline fill="none" stroke="#000000" stroke-width="2" stroke-miterlimit="10" points="405,126 324,18 567,126 "/>
<polyline fill="none" stroke="#000000" stroke-width="2" stroke-miterlimit="10" points="72,126 324,18 243,126 "/>
<polyline fill="none" stroke="#000000" stroke-width="2" stroke-miterlimit="10" points="54,234 72,126 90,234 "/>
<polyline fill="none" stroke="#000000" stroke-width="2" stroke-miterlimit="10" points="18,234 72,126 126,234 "/>
<polyline fill="none" stroke="#000000" stroke-width="2" stroke-miterlimit="10" points="225,234 243,126 261,234 "/>
<polyline fill="none" stroke="#000000" stroke-width="2" stroke-miterlimit="10" points="189,234 243,126 297,234 "/>
<polyline fill="none" stroke="#000000" stroke-width="2" stroke-miterlimit="10" points="387,234 405,126 423,234 "/>
<polyline fill="none" stroke="#000000" stroke-width="2" stroke-miterlimit="10" points="351,234 405,126 459,234 "/>
<polyline fill="none" stroke="#000000" stroke-width="2" stroke-miterlimit="10" points="549,234 567,126 585,234 "/>
<polyline fill="none" stroke="#000000" stroke-width="2" stroke-miterlimit="10" points="513,234 567,126 621,234 "/>
<line fill="none" stroke="#000000" stroke-width="2" stroke-miterlimit="10" x1="72" y1="126" x2="567" y2="126"/>
<line fill="none" stroke="#000000" stroke-width="2" stroke-miterlimit="10" x1="513" y1="234" x2="621" y2="234"/>
<line fill="none" stroke="#000000" stroke-width="2" stroke-miterlimit="10" x1="351" y1="234" x2="459" y2="234"/>
<line fill="none" stroke="#000000" stroke-width="2" stroke-miterlimit="10" x1="189" y1="234" x2="297" y2="234"/>
<line fill="none" stroke="#000000" stroke-width="2" stroke-miterlimit="10" x1="126" y1="234" x2="18" y2="234"/>
<circle fill="#BC1E47" stroke="#000000" stroke-miterlimit="10" cx="324" cy="18" r="9"/>
<circle fill="#FEC200" stroke="#000000" stroke-miterlimit="10" cx="243" cy="126" r="9"/>
<circle fill="#FEC200" stroke="#000000" stroke-miterlimit="10" cx="405" cy="126" r="9"/>
<circle fill="#FEC200" stroke="#000000" stroke-miterlimit="10" cx="567" cy="126" r="9"/>
<circle fill="#FEC200" stroke="#000000" stroke-miterlimit="10" cx="72" cy="126" r="9"/>
<circle fill="#009246" stroke="#000000" stroke-miterlimit="10" cx="126" cy="234" r="9"/>
<circle fill="#009246" stroke="#000000" stroke-miterlimit="10" cx="90" cy="234" r="9"/>
<circle fill="#009246" stroke="#000000" stroke-miterlimit="10" cx="54" cy="234" r="9"/>
<circle fill="#009246" stroke="#000000" stroke-miterlimit="10" cx="18" cy="234" r="9"/>
<circle fill="#009246" stroke="#000000" stroke-miterlimit="10" cx="296.999" cy="234" r="9"/>
<circle fill="#009246" stroke="#000000" stroke-miterlimit="10" cx="260.999" cy="234" r="9"/>
<circle fill="#009246" stroke="#000000" stroke-miterlimit="10" cx="224.999" cy="234" r="9"/>
<circle fill="#009246" stroke="#000000" stroke-miterlimit="10" cx="188.999" cy="234" r="9"/>
<circle fill="#009246" stroke="#000000" stroke-miterlimit="10" cx="459" cy="234" r="9"/>
<circle fill="#009246" stroke="#000000" stroke-miterlimit="10" cx="423" cy="234" r="9"/>
<circle fill="#009246" stroke="#000000" stroke-miterlimit="10" cx="387" cy="234" r="9"/>
<circle fill="#009246" stroke="#000000" stroke-miterlimit="10" cx="351" cy="234" r="9"/>
<circle fill="#009246" stroke="#000000" stroke-miterlimit="10" cx="621" cy="234" r="9"/>
<circle fill="#009246" stroke="#000000" stroke-miterlimit="10" cx="585" cy="234" r="9"/>
<circle fill="#009246" stroke="#000000" stroke-miterlimit="10" cx="549" cy="234" r="9"/>
<circle fill="#009246" stroke="#000000" stroke-miterlimit="10" cx="513" cy="234" r="9"/>
</svg>
