<?xml version="1.0" encoding="utf-8"?>
<!-- Generator: Adobe Illustrator 14.0.0, SVG Export Plug-In . SVG Version: 6.00 Build 43363)  -->
<!DOCTYPE svg PUBLIC "-//W3C//DTD SVG 1.1//EN" "http://www.w3.org/Graphics/SVG/1.1/DTD/svg11.dtd">
<svg version="1.1" id="Layer_1" xmlns="http://www.w3.org/2000/svg" xmlns:xlink="http://www.w3.org/1999/xlink" x="0px" y="0px"
	 width="160px" height="161px" viewBox="-22 -23 160 161" enable-background="new -22 -23 160 161" xml:space="preserve">
<g>
	<path fill="none" stroke="#000000" stroke-width="1.5" d="M15.271,39.652c17.979,23.433,38.954,44.406,62.388,62.386"/>
	<path fill="none" stroke="#000000" stroke-width="1.5" d="M41.115,13.815c-3.857,29.282-3.857,58.943-0.002,88.226"/>
	<path fill="none" stroke="#000000" stroke-width="1.5" d="M77.66,13.811c-23.434,17.98-44.406,38.955-62.385,62.388"/>
	<path fill="none" stroke="#000000" stroke-width="1.5" d="M103.496,39.654c-29.281-3.855-58.943-3.855-88.226-0.002"/>
	<path fill="none" stroke="#000000" stroke-width="1.5" d="M103.501,76.199C85.521,52.768,64.548,31.795,41.115,13.815"/>
	<path fill="none" stroke="#000000" stroke-width="1.5" d="M77.658,102.038c3.855-29.284,3.857-58.946,0.002-88.228"/>
	<path fill="none" stroke="#000000" stroke-width="1.5" d="M41.113,102.041c23.432-17.979,44.405-38.953,62.383-62.387"/>
	<path fill="none" stroke="#000000" stroke-width="1.5" d="M15.275,76.198c29.283,3.855,58.943,3.856,88.226,0.001"/>
	<path fill="none" stroke="#000000" stroke-width="1.5" d="M41.113,102.041c11.698,4.846,24.846,4.846,36.545-0.003"/>
	<path fill="none" stroke="#000000" stroke-width="1.5" d="M15.275,76.198c4.844,11.7,14.139,20.997,25.838,25.843"/>
	<path fill="none" stroke="#000000" stroke-width="1.5" d="M15.271,39.652c-4.846,11.7-4.843,24.846,0.005,36.546"/>
	<path fill="none" stroke="#000000" stroke-width="1.5" d="M41.115,13.815c-11.7,4.844-20.998,14.138-25.845,25.837"/>
	<path fill="none" stroke="#000000" stroke-width="1.5" d="M77.66,13.811c-11.701-4.845-24.846-4.844-36.545,0.005"/>
	<path fill="none" stroke="#000000" stroke-width="1.5" d="M103.496,39.654c-4.842-11.7-14.139-20.996-25.836-25.844"/>
	<path fill="none" stroke="#000000" stroke-width="1.5" d="M103.501,76.199c4.846-11.699,4.846-24.846-0.005-36.545"/>
	<path fill="none" stroke="#000000" stroke-width="1.5" d="M77.658,102.038c11.699-4.845,20.996-14.14,25.843-25.839"/>
	<path fill="none" stroke="#000000" stroke-width="1.5" d="M77.658,102.038c-2.523,19.134-20.083,32.604-39.22,30.081
		C19.302,129.595,5.834,112.037,8.356,92.9c0.803-6.079,3.188-11.839,6.919-16.702"/>
	<path fill="none" stroke="#000000" stroke-width="1.5" d="M41.113,102.041c-15.322,11.742-37.26,8.839-49-6.483
		C-19.628,80.238-16.725,58.3-1.402,46.56c4.855-3.724,10.605-6.104,16.673-6.907"/>
	<path fill="none" stroke="#000000" stroke-width="1.5" d="M15.275,76.198c-19.137-2.524-32.605-20.082-30.081-39.22
		C-12.283,17.841,5.275,4.374,24.412,6.897c6.078,0.801,11.84,3.188,16.703,6.918"/>
	<path fill="none" stroke="#000000" stroke-width="1.5" d="M15.271,39.652c-11.741-15.32-8.839-37.26,6.483-49
		c15.32-11.74,37.258-8.838,48.999,6.484c3.724,4.857,6.105,10.607,6.907,16.674"/>
	<path fill="none" stroke="#000000" stroke-width="1.5" d="M41.115,13.815c2.521-19.137,20.082-32.604,39.218-30.082
		c19.137,2.524,32.606,20.082,30.082,39.22c-0.8,6.076-3.188,11.838-6.919,16.701"/>
	<path fill="none" stroke="#000000" stroke-width="1.5" d="M77.66,13.811c15.32-11.741,37.258-8.838,48.998,6.484
		c11.741,15.32,8.84,37.258-6.484,48.998c-4.855,3.724-10.605,6.105-16.673,6.906"/>
	<path fill="none" stroke="#000000" stroke-width="1.5" d="M103.496,39.654c19.137,2.523,32.606,20.082,30.082,39.219
		c-2.523,19.137-20.081,32.604-39.218,30.082c-6.077-0.8-11.839-3.188-16.702-6.917"/>
	<path fill="none" stroke="#000000" stroke-width="1.5" d="M103.501,76.199c11.741,15.321,8.839,37.259-6.483,49
		c-15.319,11.74-37.258,8.837-48.999-6.485c-3.722-4.856-6.104-10.605-6.905-16.673"/>
</g>
<g>
	<circle fill="#0000FF" stroke="#000000" stroke-width="1.5" cx="77.657" cy="102.037" r="7.501"/>
	<circle fill="#0000FF" stroke="#000000" stroke-width="1.5" cx="41.112" cy="102.041" r="7.5"/>
	<circle fill="#0000FF" stroke="#000000" stroke-width="1.5" cx="15.275" cy="76.197" r="7.5"/>
	<circle fill="#0000FF" stroke="#000000" stroke-width="1.5" cx="15.27" cy="39.653" r="7.5"/>
	<circle fill="#0000FF" stroke="#000000" stroke-width="1.5" cx="41.115" cy="13.815" r="7.499"/>
	<circle fill="#0000FF" stroke="#000000" stroke-width="1.5" cx="77.66" cy="13.811" r="7.5"/>
	<circle fill="#0000FF" stroke="#000000" stroke-width="1.5" cx="103.497" cy="39.655" r="7.5"/>
	<circle fill="#0000FF" stroke="#000000" stroke-width="1.5" cx="103.501" cy="76.199" r="7.501"/>
</g>
</svg>
