<?xml version="1.0" encoding="utf-8"?>
<!-- Generator: Adobe Illustrator 14.0.0, SVG Export Plug-In . SVG Version: 6.00 Build 43363)  -->
<!DOCTYPE svg PUBLIC "-//W3C//DTD SVG 1.1//EN" "http://www.w3.org/Graphics/SVG/1.1/DTD/svg11.dtd">
<svg version="1.1" id="Layer_1" xmlns="http://www.w3.org/2000/svg" xmlns:xlink="http://www.w3.org/1999/xlink" x="0px" y="0px"
	 width="232px" height="231.333px" viewBox="79.333 83.333 232 231.333" enable-background="new 79.333 83.333 232 231.333"
	 xml:space="preserve">
<line fill="none" stroke="#000000" stroke-width="1.5" x1="212.057" y1="216.059" x2="178.286" y2="182.286"/>
<line fill="none" stroke="#000000" stroke-width="1.5" x1="178.286" y1="216.059" x2="212.057" y2="182.286"/>
<line fill="none" stroke="#000000" stroke-width="1.5" x1="212.057" y1="216.059" x2="178.286" y2="182.286"/>
<line fill="none" stroke="#000000" stroke-width="1.5" x1="178.286" y1="216.059" x2="212.057" y2="182.286"/>
<line fill="none" stroke="#000000" stroke-width="1.5" x1="178.286" y1="182.286" x2="212.057" y2="216.059"/>
<line fill="none" stroke="#000000" stroke-width="1.5" x1="212.057" y1="182.286" x2="178.286" y2="216.059"/>
<line fill="none" stroke="#000000" stroke-width="1.5" x1="212.057" y1="216.059" x2="258.176" y2="262.175"/>
<line fill="none" stroke="#000000" stroke-width="1.5" x1="178.286" y1="216.059" x2="132.169" y2="262.175"/>
<line fill="none" stroke="#000000" stroke-width="1.5" x1="178.286" y1="182.286" x2="132.169" y2="136.169"/>
<line fill="none" stroke="#000000" stroke-width="1.5" x1="212.057" y1="182.286" x2="258.176" y2="136.168"/>
<line fill="none" stroke="#000000" stroke-width="1.5" x1="258.176" y1="262.175" x2="307.654" y2="311.655"/>
<line fill="none" stroke="#000000" stroke-width="1.5" x1="132.169" y1="262.175" x2="82.688" y2="311.655"/>
<line fill="none" stroke="#000000" stroke-width="1.5" x1="132.169" y1="136.169" x2="82.688" y2="86.689"/>
<line fill="none" stroke="#000000" stroke-width="1.5" x1="258.176" y1="136.168" x2="307.654" y2="86.688"/>
<path fill="none" stroke="#000000" stroke-width="1.5" d="M178.286,216.059c11.062,2.965,22.709,2.965,33.771,0"/>
<path fill="none" stroke="#000000" stroke-width="1.5" d="M178.286,182.286c-2.965,11.062-2.965,22.71,0,33.772"/>
<path fill="none" stroke="#000000" stroke-width="1.5" d="M212.057,182.286c-11.062-2.966-22.708-2.965-33.771,0"/>
<path fill="none" stroke="#000000" stroke-width="1.5" d="M212.057,216.059c2.966-11.062,2.966-22.711,0-33.772"/>
<path fill="none" stroke="#000000" stroke-width="1.5" d="M132.169,262.175c9.311,34.796,45.065,55.456,79.861,46.146
	c22.523-6.029,40.116-23.622,46.146-46.146"/>
<path fill="none" stroke="#000000" stroke-width="1.5" d="M132.169,136.169c-34.797,9.311-55.455,45.066-46.145,79.862
	c6.026,22.524,23.619,40.117,46.145,46.144"/>
<path fill="none" stroke="#000000" stroke-width="1.5" d="M258.176,136.168c-9.311-34.796-45.067-55.454-79.863-46.143
	c-22.524,6.027-40.116,23.619-46.144,46.144"/>
<path fill="none" stroke="#000000" stroke-width="1.5" d="M258.176,262.175c34.796-9.311,55.453-45.067,46.143-79.862
	c-6.028-22.523-23.62-40.115-46.143-46.145"/>
<path fill="none" stroke="#000000" stroke-width="1.5" d="M132.169,262.175c34.791,9.329,70.557-11.312,79.885-46.104
	c0-0.003,0.003-0.009,0.003-0.012"/>
<path fill="none" stroke="#000000" stroke-width="1.5" d="M212.057,216.059c34.793-9.32,55.442-45.084,46.122-79.877
	c-0.003-0.003-0.003-0.009-0.003-0.014"/>
<path fill="none" stroke="#000000" stroke-width="1.5" d="M132.169,136.169c-9.328,34.792,11.312,70.556,46.104,79.886
	c0.005,0.001,0.008,0.001,0.014,0.004"/>
<path fill="none" stroke="#000000" stroke-width="1.5" d="M178.286,216.059c9.32,34.793,45.082,55.441,79.875,46.119
	c0.003,0,0.009-0.002,0.015-0.003"/>
<path fill="none" stroke="#000000" stroke-width="1.5" d="M258.176,136.168c-34.793-9.327-70.559,11.313-79.887,46.105
	c0,0.004-0.003,0.009-0.003,0.013"/>
<path fill="none" stroke="#000000" stroke-width="1.5" d="M178.286,182.286c-34.793,9.32-55.443,45.083-46.122,79.877
	c0.001,0.003,0.003,0.007,0.005,0.012"/>
<path fill="none" stroke="#000000" stroke-width="1.5" d="M258.176,262.175c9.328-34.793-11.314-70.557-46.107-79.885
	c-0.003-0.001-0.007-0.003-0.012-0.004"/>
<path fill="none" stroke="#000000" stroke-width="1.5" d="M212.057,182.286c-9.321-34.794-45.082-55.441-79.875-46.121
	c-0.005,0.001-0.009,0.003-0.013,0.004"/>
<circle fill="#0000FF" stroke="#000000" stroke-width="1.5" cx="212.057" cy="216.058" r="7.5"/>
<circle fill="#0000FF" stroke="#000000" stroke-width="1.5" cx="178.285" cy="216.058" r="7.501"/>
<circle fill="#0000FF" stroke="#000000" stroke-width="1.5" cx="178.286" cy="182.287" r="7.5"/>
<circle fill="#0000FF" stroke="#000000" stroke-width="1.5" cx="212.057" cy="182.286" r="7.5"/>
<circle fill="#0000FF" stroke="#000000" stroke-width="1.5" cx="258.175" cy="262.175" r="7.5"/>
<circle fill="#0000FF" stroke="#000000" stroke-width="1.5" cx="132.168" cy="262.175" r="7.5"/>
<circle fill="#0000FF" stroke="#000000" stroke-width="1.5" cx="132.168" cy="136.169" r="7.501"/>
<circle fill="#0000FF" stroke="#000000" stroke-width="1.5" cx="258.175" cy="136.168" r="7.5"/>
</svg>
