<?xml version="1.0" encoding="utf-8"?>
<!-- Generator: Adobe Illustrator 14.0.0, SVG Export Plug-In . SVG Version: 6.00 Build 43363)  -->
<!DOCTYPE svg PUBLIC "-//W3C//DTD SVG 1.1//EN" "http://www.w3.org/Graphics/SVG/1.1/DTD/svg11.dtd">
<svg version="1.1" id="Layer_1" xmlns="http://www.w3.org/2000/svg" xmlns:xlink="http://www.w3.org/1999/xlink" x="0px" y="0px"
	 width="318.15px" height="318.15px" viewBox="-34.985 -43.409 318.15 318.15"
	 enable-background="new -34.985 -43.409 318.15 318.15" xml:space="preserve">
<line fill="none" stroke="#000000" stroke-width="1.5" x1="147.972" y1="115.667" x2="100.21" y2="115.666"/>
<line fill="none" stroke="#000000" stroke-width="1.5" x1="124.092" y1="139.547" x2="124.09" y2="91.786"/>
<line fill="none" stroke="#000000" stroke-width="1.5" x1="147.972" y1="115.667" x2="100.21" y2="115.666"/>
<line fill="none" stroke="#000000" stroke-width="1.5" x1="124.092" y1="139.547" x2="124.09" y2="91.786"/>
<line fill="none" stroke="#000000" stroke-width="1.5" x1="100.21" y1="115.666" x2="147.972" y2="115.667"/>
<line fill="none" stroke="#000000" stroke-width="1.5" x1="124.09" y1="91.786" x2="124.092" y2="139.547"/>
<line fill="none" stroke="#000000" stroke-width="1.5" x1="147.972" y1="115.667" x2="213.19" y2="115.665"/>
<line fill="none" stroke="#000000" stroke-width="1.5" x1="124.092" y1="139.547" x2="124.091" y2="204.765"/>
<line fill="none" stroke="#000000" stroke-width="1.5" x1="100.21" y1="115.666" x2="34.991" y2="115.666"/>
<line fill="none" stroke="#000000" stroke-width="1.5" x1="124.09" y1="91.786" x2="124.091" y2="26.565"/>
<line fill="none" stroke="#000000" stroke-width="1.5" x1="213.19" y1="115.665" x2="283.165" y2="115.666"/>
<line fill="none" stroke="#000000" stroke-width="1.5" x1="124.091" y1="204.765" x2="124.09" y2="274.741"/>
<line fill="none" stroke="#000000" stroke-width="1.5" x1="34.991" y1="115.666" x2="-34.985" y2="115.667"/>
<line fill="none" stroke="#000000" stroke-width="1.5" x1="124.091" y1="26.565" x2="124.09" y2="-43.409"/>
<path fill="none" stroke="#000000" stroke-width="1.5" d="M124.092,139.547c9.918-5.727,18.153-13.962,23.88-23.88"/>
<path fill="none" stroke="#000000" stroke-width="1.5" d="M100.21,115.666c5.726,9.919,13.963,18.156,23.881,23.88"/>
<path fill="none" stroke="#000000" stroke-width="1.5" d="M124.09,91.786c-9.919,5.725-18.153,13.959-23.88,23.879"/>
<path fill="none" stroke="#000000" stroke-width="1.5" d="M147.972,115.667c-5.725-9.92-13.962-18.157-23.881-23.88"/>
<path fill="none" stroke="#000000" stroke-width="1.5" d="M124.091,204.765c31.189,18.021,71.08,7.348,89.1-23.839
	c11.664-20.19,11.664-45.07,0-65.261"/>
<path fill="none" stroke="#000000" stroke-width="1.5" d="M34.991,115.666c-18.021,31.188-7.346,71.079,23.842,89.101
	c20.188,11.666,45.068,11.666,65.258-0.001"/>
<path fill="none" stroke="#000000" stroke-width="1.5" d="M124.091,26.565c-31.188-18.021-71.079-7.346-89.1,23.843
	c-11.665,20.188-11.665,45.067,0,65.257"/>
<path fill="none" stroke="#000000" stroke-width="1.5" d="M213.19,115.665c18.021-31.189,7.345-71.078-23.843-89.099
	c-20.188-11.665-45.067-11.665-65.257-0.001"/>
<path fill="none" stroke="#000000" stroke-width="1.5" d="M124.091,204.765c31.197-18.004,41.893-57.89,23.887-89.088
	c-0.002-0.002-0.004-0.008-0.006-0.01"/>
<path fill="none" stroke="#000000" stroke-width="1.5" d="M147.972,115.667c18.012-31.192,7.324-71.083-23.868-89.095
	c-0.005,0-0.01-0.004-0.013-0.007"/>
<path fill="none" stroke="#000000" stroke-width="1.5" d="M34.991,115.666c18.006,31.198,57.889,41.893,89.088,23.888
	c0.004-0.002,0.008-0.005,0.014-0.007"/>
<path fill="none" stroke="#000000" stroke-width="1.5" d="M124.092,139.547c31.192,18.012,71.081,7.324,89.091-23.869
	c0.002-0.002,0.006-0.008,0.008-0.013"/>
<path fill="none" stroke="#000000" stroke-width="1.5" d="M124.091,26.565c-31.198,18.006-41.893,57.891-23.888,89.089
	c0.003,0.003,0.005,0.008,0.007,0.011"/>
<path fill="none" stroke="#000000" stroke-width="1.5" d="M100.21,115.666c-18.012,31.192-7.325,71.083,23.869,89.095
	c0.003,0.002,0.007,0.004,0.012,0.005"/>
<path fill="none" stroke="#000000" stroke-width="1.5" d="M213.19,115.665c-18.006-31.199-57.892-41.891-89.09-23.885
	c-0.002,0.001-0.006,0.003-0.011,0.006"/>
<path fill="none" stroke="#000000" stroke-width="1.5" d="M124.09,91.786c-31.192-18.012-71.081-7.325-89.093,23.868
	c-0.002,0.005-0.004,0.009-0.006,0.012"/>
<circle fill="#0000FF" stroke="#000000" stroke-width="1.5" cx="147.971" cy="115.667" r="7.5"/>
<circle fill="#0000FF" stroke="#000000" stroke-width="1.5" cx="124.09" cy="139.547" r="7.501"/>
<circle fill="#0000FF" stroke="#000000" stroke-width="1.5" cx="100.211" cy="115.667" r="7.5"/>
<circle fill="#0000FF" stroke="#000000" stroke-width="1.5" cx="124.09" cy="91.786" r="7.5"/>
<circle fill="#0000FF" stroke="#000000" stroke-width="1.5" cx="213.19" cy="115.666" r="7.5"/>
<circle fill="#0000FF" stroke="#000000" stroke-width="1.5" cx="34.991" cy="115.667" r="7.501"/>
<circle fill="#0000FF" stroke="#000000" stroke-width="1.5" cx="124.09" cy="26.566" r="7.5"/>
</svg>
