<?xml version="1.0" encoding="utf-8"?>
<!-- Generator: Adobe Illustrator 14.0.0, SVG Export Plug-In . SVG Version: 6.00 Build 43363)  -->
<!DOCTYPE svg PUBLIC "-//W3C//DTD SVG 1.1//EN" "http://www.w3.org/Graphics/SVG/1.1/DTD/svg11.dtd">
<svg version="1.1" id="Layer_1" xmlns="http://www.w3.org/2000/svg" xmlns:xlink="http://www.w3.org/1999/xlink" x="0px" y="0px"
	 width="237px" height="232px" viewBox="-36 -36 237 232" enable-background="new -36 -36 237 232" xml:space="preserve">
<g>
	<path fill="none" stroke="#000000" stroke-width="1.5" d="M83,124.774c-10.947-18.964-24.675-36.179-40.725-51.075"/>
	<path fill="none" stroke="#000000" stroke-width="1.5" d="M50.33,109.055c8.005-20.383,12.909-41.852,14.55-63.689"/>
	<path fill="none" stroke="#000000" stroke-width="1.5" d="M42.275,73.699c20.92-6.452,40.756-16.003,58.845-28.334"/>
	<path fill="none" stroke="#000000" stroke-width="1.5" d="M64.88,45.365c18.089,12.331,37.925,21.882,58.846,28.334"/>
	<path fill="none" stroke="#000000" stroke-width="1.5" d="M101.12,45.365c1.641,21.838,6.545,43.307,14.549,63.689"/>
	<path fill="none" stroke="#000000" stroke-width="1.5" d="M123.726,73.699C107.674,88.596,93.947,105.811,83,124.774"/>
	<path fill="none" stroke="#000000" stroke-width="1.5" d="M115.669,109.055c-21.656-3.265-43.682-3.265-65.339,0"/>
	<path fill="none" stroke="#000000" stroke-width="1.5" d="M50.33,109.055c7.93,9.939,19.955,15.726,32.67,15.72"/>
	<path fill="none" stroke="#000000" stroke-width="1.5" d="M42.275,73.699c-2.837,12.397,0.128,25.411,8.055,35.355"/>
	<path fill="none" stroke="#000000" stroke-width="1.5" d="M64.88,45.365c-11.454,5.514-19.773,15.942-22.604,28.334"/>
	<path fill="none" stroke="#000000" stroke-width="1.5" d="M101.12,45.365c-11.452-5.513-24.789-5.513-36.24,0"/>
	<path fill="none" stroke="#000000" stroke-width="1.5" d="M123.726,73.699c-2.833-12.392-11.151-22.82-22.605-28.334"/>
	<path fill="none" stroke="#000000" stroke-width="1.5" d="M115.669,109.055c7.928-9.944,10.893-22.958,8.057-35.355"/>
	<path fill="none" stroke="#000000" stroke-width="1.5" d="M83,124.774c12.715,0.006,24.74-5.78,32.669-15.72"/>
	<path fill="none" stroke="#000000" stroke-width="1.5" d="M83,124.774c-16.535,28.641-53.157,38.455-81.798,21.92
		c-28.64-16.535-38.453-53.157-21.918-81.798s53.157-38.454,81.797-21.919c1.296,0.749,2.563,1.545,3.799,2.388"/>
	<path fill="none" stroke="#000000" stroke-width="1.5" d="M50.33,109.055c-32.701,4.928-63.206-17.588-68.134-50.289
		S-0.217-4.44,32.485-9.368c32.701-4.928,63.206,17.588,68.134,50.289c0.223,1.476,0.39,2.958,0.501,4.444"/>
	<path fill="none" stroke="#000000" stroke-width="1.5" d="M42.275,73.699c-24.245-22.49-25.666-60.378-3.174-84.623
		c22.492-24.244,60.378-25.665,84.624-3.174c24.243,22.492,25.664,60.38,3.173,84.624c-1.017,1.097-2.077,2.156-3.173,3.173"/>
	<path fill="none" stroke="#000000" stroke-width="1.5" d="M64.88,45.365c2.474-32.979,31.213-57.707,64.19-55.234
		c32.979,2.474,57.708,31.213,55.235,64.191c-2.474,32.979-31.213,57.707-64.192,55.232c-1.486-0.111-2.968-0.278-4.444-0.5"/>
	<path fill="none" stroke="#000000" stroke-width="1.5" d="M101.12,45.365c27.322-18.634,64.576-11.59,83.209,15.732
		s11.59,64.576-15.732,83.209s-64.576,11.59-83.209-15.732c-0.844-1.236-1.641-2.504-2.388-3.8"/>
	<path fill="none" stroke="#000000" stroke-width="1.5" d="M123.726,73.699c31.601,9.749,49.317,43.268,39.569,74.87
		s-43.267,49.318-74.869,39.571c-31.602-9.748-49.317-43.269-39.57-74.871c0.439-1.422,0.931-2.828,1.475-4.215"/>
	<path fill="none" stroke="#000000" stroke-width="1.5" d="M115.669,109.055c12.076,30.787-3.093,65.535-33.88,77.611
		c-30.787,12.074-65.534-3.094-77.61-33.881c-12.075-30.788,3.094-65.534,33.882-77.61c1.385-0.544,2.791-1.036,4.215-1.476"/>
</g>
<g>
	<circle fill="#0000FF" stroke="#000000" stroke-width="1.5" cx="83" cy="124.774" r="7.5"/>
	<circle fill="#0000FF" stroke="#000000" stroke-width="1.5" cx="50.33" cy="109.055" r="7.5"/>
	<circle fill="#0000FF" stroke="#000000" stroke-width="1.5" cx="42.275" cy="73.699" r="7.5"/>
	<circle fill="#0000FF" stroke="#000000" stroke-width="1.5" cx="64.88" cy="45.365" r="7.5"/>
	<circle fill="#0000FF" stroke="#000000" stroke-width="1.5" cx="101.12" cy="45.365" r="7.5"/>
	<circle fill="#0000FF" stroke="#000000" stroke-width="1.5" cx="123.726" cy="73.699" r="7.5"/>
	<circle fill="#0000FF" stroke="#000000" stroke-width="1.5" cx="115.669" cy="109.055" r="7.5"/>
</g>
</svg>
