<?xml version="1.0" encoding="utf-8"?>
<!-- Generator: Adobe Illustrator 14.0.0, SVG Export Plug-In . SVG Version: 6.00 Build 43363)  -->
<!DOCTYPE svg PUBLIC "-//W3C//DTD SVG 1.1//EN" "http://www.w3.org/Graphics/SVG/1.1/DTD/svg11.dtd">
<svg version="1.1" id="Layer_1" xmlns="http://www.w3.org/2000/svg" xmlns:xlink="http://www.w3.org/1999/xlink" x="0px" y="0px"
	 width="177.279px" height="204.721px" viewBox="0 0 177.279 204.721" enable-background="new 0 0 177.279 204.721"
	 xml:space="preserve">
<line fill="none" stroke="#000000" stroke-width="1.5" x1="88.639" y1="102.361" x2="88.639" y2="152.361"/>
<line fill="none" stroke="#000000" stroke-width="1.5" x1="88.639" y1="102.361" x2="45.339" y2="127.361"/>
<line fill="none" stroke="#000000" stroke-width="1.5" x1="88.639" y1="102.361" x2="45.339" y2="77.361"/>
<line fill="none" stroke="#000000" stroke-width="1.5" x1="88.639" y1="102.361" x2="88.639" y2="52.361"/>
<line fill="none" stroke="#000000" stroke-width="1.5" x1="88.639" y1="102.361" x2="131.94" y2="77.361"/>
<line fill="none" stroke="#000000" stroke-width="1.5" x1="88.639" y1="102.361" x2="131.94" y2="127.361"/>
<line fill="none" stroke="#000000" stroke-width="1.5" x1="88.639" y1="152.361" x2="45.339" y2="127.361"/>
<line fill="none" stroke="#000000" stroke-width="1.5" x1="45.339" y1="127.361" x2="45.339" y2="77.361"/>
<line fill="none" stroke="#000000" stroke-width="1.5" x1="45.339" y1="77.361" x2="88.639" y2="52.361"/>
<line fill="none" stroke="#000000" stroke-width="1.5" x1="88.639" y1="52.361" x2="131.94" y2="77.361"/>
<line fill="none" stroke="#000000" stroke-width="1.5" x1="131.94" y1="77.361" x2="131.94" y2="127.361"/>
<line fill="none" stroke="#000000" stroke-width="1.5" x1="131.94" y1="127.361" x2="88.639" y2="152.361"/>
<line fill="none" stroke="#000000" stroke-width="1.5" x1="88.639" y1="152.361" x2="88.639" y2="204.72"/>
<line fill="none" stroke="#000000" stroke-width="1.5" x1="45.339" y1="127.361" x2="-0.002" y2="153.542"/>
<line fill="none" stroke="#000000" stroke-width="1.5" x1="45.339" y1="77.361" x2="-0.002" y2="51.181"/>
<line fill="none" stroke="#000000" stroke-width="1.5" x1="88.639" y1="52.361" x2="88.639" y2="0.002"/>
<line fill="none" stroke="#000000" stroke-width="1.5" x1="131.94" y1="77.361" x2="177.28" y2="51.181"/>
<line fill="none" stroke="#000000" stroke-width="1.5" x1="131.94" y1="127.361" x2="177.28" y2="153.542"/>
<path fill="none" stroke="#000000" stroke-width="1.5" d="M45.339,77.361c-20.712,11.957-27.808,38.439-15.851,59.15
	c11.957,20.709,38.439,27.807,59.15,15.85"/>
<path fill="none" stroke="#000000" stroke-width="1.5" d="M88.639,52.361c-20.711-11.957-47.193-4.859-59.15,15.851
	c-11.957,20.711-4.861,47.192,15.851,59.149l0,0"/>
<path fill="none" stroke="#000000" stroke-width="1.5" d="M131.94,77.361c0-23.914-19.387-43.3-43.301-43.3s-43.3,19.386-43.3,43.3
	l0,0"/>
<path fill="none" stroke="#000000" stroke-width="1.5" d="M131.94,127.361c20.711-11.957,27.807-38.438,15.85-59.149
	c-11.958-20.71-38.439-27.808-59.15-15.851"/>
<path fill="none" stroke="#000000" stroke-width="1.5" d="M88.639,152.361c20.711,11.957,47.192,4.859,59.149-15.85
	c11.957-20.711,4.861-47.193-15.85-59.15"/>
<path fill="none" stroke="#000000" stroke-width="1.5" d="M45.339,127.361c0,23.914,19.386,43.301,43.3,43.301
	s43.301-19.387,43.301-43.301"/>
<circle fill="#0000FF" stroke="#000000" stroke-width="1.5" cx="88.639" cy="102.361" r="7.5"/>
<circle fill="#0000FF" stroke="#000000" stroke-width="1.5" cx="88.639" cy="152.361" r="7.5"/>
<circle fill="#0000FF" stroke="#000000" stroke-width="1.5" cx="45.339" cy="127.361" r="7.5"/>
<circle fill="#0000FF" stroke="#000000" stroke-width="1.5" cx="45.339" cy="77.361" r="7.5"/>
<circle fill="#0000FF" stroke="#000000" stroke-width="1.5" cx="88.639" cy="52.361" r="7.5"/>
<circle fill="#0000FF" stroke="#000000" stroke-width="1.5" cx="131.94" cy="77.361" r="7.5"/>
<circle fill="#0000FF" stroke="#000000" stroke-width="1.5" cx="131.94" cy="127.361" r="7.5"/>
</svg>
