<?xml version="1.0" encoding="utf-8"?>
<!-- Generator: Adobe Illustrator 14.0.0, SVG Export Plug-In . SVG Version: 6.00 Build 43363)  -->
<!DOCTYPE svg PUBLIC "-//W3C//DTD SVG 1.1//EN" "http://www.w3.org/Graphics/SVG/1.1/DTD/svg11.dtd">
<svg version="1.1" id="Layer_1" xmlns="http://www.w3.org/2000/svg" xmlns:xlink="http://www.w3.org/1999/xlink" x="0px" y="0px"
	 width="294.266px" height="323.436px" viewBox="641.868 632.855 294.266 323.436"
	 enable-background="new 641.868 632.855 294.266 323.436" xml:space="preserve">
<line fill="none" stroke="#000000" stroke-width="1.5" x1="789" y1="802.75" x2="853.949" y2="765.25"/>
<line fill="none" stroke="#000000" stroke-width="1.5" x1="789" y1="802.75" x2="789" y2="877.75"/>
<line fill="none" stroke="#000000" stroke-width="1.5" x1="789" y1="802.75" x2="724.051" y2="765.25"/>
<line fill="none" stroke="#000000" stroke-width="1.5" x1="789" y1="802.75" x2="789" y2="765.25"/>
<line fill="none" stroke="#000000" stroke-width="1.5" x1="789" y1="802.75" x2="821.476" y2="821.5"/>
<line fill="none" stroke="#000000" stroke-width="1.5" x1="789" y1="802.75" x2="756.524" y2="821.5"/>
<line fill="none" stroke="#000000" stroke-width="1.5" x1="789" y1="765.25" x2="789" y2="632.855"/>
<line fill="none" stroke="#000000" stroke-width="1.5" x1="821.476" y1="821.5" x2="936.134" y2="887.698"/>
<line fill="none" stroke="#000000" stroke-width="1.5" x1="756.524" y1="821.5" x2="641.868" y2="887.697"/>
<line fill="none" stroke="#000000" stroke-width="1.5" x1="853.949" y1="765.25" x2="921.967" y2="725.979"/>
<line fill="none" stroke="#000000" stroke-width="1.5" x1="789" y1="877.75" x2="789" y2="956.291"/>
<line fill="none" stroke="#000000" stroke-width="1.5" x1="724.051" y1="765.25" x2="656.033" y2="725.979"/>
<path fill="none" stroke="#000000" stroke-width="1.5" d="M821.476,821.5c0-23.205-12.38-44.646-32.476-56.25"/>
<path fill="none" stroke="#000000" stroke-width="1.5" d="M756.524,821.5c20.097,11.602,44.854,11.602,64.951,0"/>
<path fill="none" stroke="#000000" stroke-width="1.5" d="M789,765.25c-20.096,11.604-32.476,33.045-32.476,56.25"/>
<path fill="none" stroke="#000000" stroke-width="1.5" d="M789,877.75c31.066,17.936,70.79,7.291,88.726-23.774
	c17.936-31.066,7.29-70.79-23.776-88.726l0,0"/>
<path fill="none" stroke="#000000" stroke-width="1.5" d="M724.051,765.25c-31.066,17.936-41.712,57.659-23.776,88.726
	c17.936,31.065,57.659,41.71,88.726,23.774"/>
<path fill="none" stroke="#000000" stroke-width="1.5" d="M853.949,765.25c-0.024-35.871-29.125-64.93-64.996-64.904
	c-35.834,0.026-64.878,29.07-64.902,64.904"/>
<path fill="none" stroke="#000000" stroke-width="1.5" d="M853.949,765.25c-20.094-11.602-44.854-11.602-64.949,0"/>
<path fill="none" stroke="#000000" stroke-width="1.5" d="M789,765.25c-20.096-11.602-44.855-11.602-64.949,0"/>
<path fill="none" stroke="#000000" stroke-width="1.5" d="M789,877.75c20.096-11.604,32.476-33.045,32.476-56.25"/>
<path fill="none" stroke="#000000" stroke-width="1.5" d="M821.476,821.5c20.097-11.604,32.476-33.045,32.474-56.25"/>
<path fill="none" stroke="#000000" stroke-width="1.5" d="M724.051,765.25c-0.002,23.205,12.377,44.646,32.474,56.25"/>
<path fill="none" stroke="#000000" stroke-width="1.5" d="M756.524,821.5c0,23.205,12.38,44.646,32.476,56.25"/>
<circle fill="#0000FF" stroke="#000000" stroke-width="1.5" cx="789" cy="802.75" r="7.5"/>
<circle fill="#0000FF" stroke="#000000" stroke-width="1.5" cx="789" cy="765.25" r="7.5"/>
<circle fill="#0000FF" stroke="#000000" stroke-width="1.5" cx="821.476" cy="821.5" r="7.5"/>
<circle fill="#0000FF" stroke="#000000" stroke-width="1.5" cx="756.524" cy="821.5" r="7.5"/>
<circle fill="#0000FF" stroke="#000000" stroke-width="1.5" cx="853.949" cy="765.25" r="7.5"/>
<circle fill="#0000FF" stroke="#000000" stroke-width="1.5" cx="789" cy="877.75" r="7.5"/>
<circle fill="#0000FF" stroke="#000000" stroke-width="1.5" cx="724.051" cy="765.25" r="7.5"/>
</svg>
