<svg xmlns="http://www.w3.org/2000/svg" width="900" height="270"><path opacity=".5" fill="#E4BC96" stroke="#000" d="M9 117h54v27H9zm36 72h54v27H45zm36-72h54v27H81zm0-27h54v27H81zm54 0h54v27h-54zm72 27h54v27h-54zm0-27h54v27h-54zm0-27h54v27h-54zm54 27h54v27h-54zm0-27h54v27h-54z"/><path opacity=".5" fill="#FF7F00" stroke="#000" d="M315 63h54v27h-54zM45 234h54v27H45z"/><path opacity=".5" fill="#E4BC96" stroke="#000" d="M387 117h54v27h-54zm0-27h54v27h-54zm0-27h54v27h-54zm0-27h54v27h-54zm54 0h54v27h-54zm0 27h54v27h-54zm0 27h54v27h-54z"/><path opacity=".5" fill="#FF7F00" stroke="#000" d="M495 36h54v27h-54zm0 27h54v27h-54z"/><path opacity=".5" fill="#FF4B4B" stroke="#000" d="M549 36h54v27h-54zM423 189h54v27h-54z"/><path opacity=".5" fill="#E4BC96" stroke="#000" d="M621 117h54v27h-54zm0-27h54v27h-54zm0-27h54v27h-54zm0-27h54v27h-54zm0-27h54v27h-54zm54 81h54v27h-54zm0-27h54v27h-54zm0-27h54v27h-54zm0-27h54v27h-54z"/><path opacity=".5" fill="#FF7F00" stroke="#000" d="M729 63h54v27h-54zm0-27h54v27h-54z"/><path opacity=".5" fill="#0F0" stroke="#000" d="M729 9h54v27h-54zm54 27h54v27h-54zM423 234h54v27h-54z"/><path opacity=".5" fill="#FFF" stroke="#000" d="M783 9h54v27h-54zm54 0h54v27h-54z"/><text transform="translate(18 135)" font-family="Times,serif" font-size="14">(1,1,1)</text><text transform="translate(90 135)" font-family="Times,serif" font-size="14">(1,1,2)</text><text transform="translate(90 108)" font-family="Times,serif" font-size="14">(1,2,2)</text><text transform="translate(144 108)" font-family="Times,serif" font-size="14">(2,2,2)</text><text transform="translate(216 135)" font-family="Times,serif" font-size="14">(1,1,3)</text><text transform="translate(216 108)" font-family="Times,serif" font-size="14">(1,2,3)</text><text transform="translate(216 81)" font-family="Times,serif" font-size="14">(1,3,3)</text><text transform="translate(270 108)" font-family="Times,serif" font-size="14">(2,2,3)</text><text transform="translate(270 81)" font-family="Times,serif" font-size="14">(2,3,3)</text><text transform="translate(324 81)" font-family="Times,serif" font-size="14">(3,3,3)</text><text transform="translate(396 135)" font-family="Times,serif" font-size="14">(1,1,4)</text><text transform="translate(396 108)" font-family="Times,serif" font-size="14">(1,2,4)</text><text transform="translate(396 81)" font-family="Times,serif" font-size="14">(1,3,4)</text><text transform="translate(396 54)" font-family="Times,serif" font-size="14">(1,4,4)</text><text transform="translate(450 108)" font-family="Times,serif" font-size="14">(2,2,4)</text><text transform="translate(450 81)" font-family="Times,serif" font-size="14">(2,3,4)</text><text transform="translate(450 54)" font-family="Times,serif" font-size="14">(2,4,4)</text><text transform="translate(504 81)" font-family="Times,serif" font-size="14">(3,3,4)</text><text transform="translate(504 54)" font-family="Times,serif" font-size="14">(3,4,4)</text><text transform="translate(558 54)" font-family="Times,serif" font-size="14">(4,4,4)</text><text transform="translate(630 135)" font-family="Times,serif" font-size="14">(1,1,5)</text><text transform="translate(630 108)" font-family="Times,serif" font-size="14">(1,2,5)</text><text transform="translate(630 81)" font-family="Times,serif" font-size="14">(1,3,5)</text><text transform="translate(630 54)" font-family="Times,serif" font-size="14">(1,4,5)</text><text transform="translate(630 27)" font-family="Times,serif" font-size="14">(1,5,5)</text><text transform="translate(684 108)" font-family="Times,serif" font-size="14">(2,2,5)</text><text transform="translate(684 81)" font-family="Times,serif" font-size="14">(2,3,5)</text><text transform="translate(684 54)" font-family="Times,serif" font-size="14">(2,4,5)</text><text transform="translate(684 27)" font-family="Times,serif" font-size="14">(2,5,5)</text><text transform="translate(738 81)" font-family="Times,serif" font-size="14">(3,3,5)</text><text transform="translate(738 54)" font-family="Times,serif" font-size="14">(3,4,5)</text><text transform="translate(738 27)" font-family="Times,serif" font-size="14">(3,5,5)</text><text transform="translate(792 54)" font-family="Times,serif" font-size="14">(4,4,5)</text><text transform="translate(792 27)" font-family="Times,serif" font-size="14">(4,5,5)</text><text transform="translate(846 27)" font-family="Times,serif" font-size="14">(5,5,5)</text><text transform="translate(108 207)" font-family="Times,serif" font-size="14">= eliminated by pivot rule</text><text transform="translate(108 252)" font-family="Times,serif" font-size="14">= eliminated by Lemma 1</text><text transform="translate(486 207)" font-family="Times,serif" font-size="14">= eliminated by Lemma 2</text><text transform="translate(486 252)" font-family="Times,serif" font-size="14">= minimal un-eliminated branching cases</text><path fill="none" stroke="#000" d="M9 117h54v27H9zm36 72h54v27H45zm36-72h54v27H81zm0-27h54v27H81zm54 0h54v27h-54zm72 27h54v27h-54zm0-27h54v27h-54zm0-27h54v27h-54zm54 27h54v27h-54zm0-27h54v27h-54zm54 0h54v27h-54zM45 234h54v27H45zm342-117h54v27h-54zm0-27h54v27h-54zm0-27h54v27h-54zm0-27h54v27h-54zm54 0h54v27h-54zm0 27h54v27h-54zm0 27h54v27h-54zm54-54h54v27h-54zm0 27h54v27h-54zm54-27h54v27h-54zM423 189h54v27h-54zm198-72h54v27h-54zm0-27h54v27h-54zm0-27h54v27h-54zm0-27h54v27h-54zm0-27h54v27h-54zm54 81h54v27h-54zm0-27h54v27h-54zm0-27h54v27h-54zm0-27h54v27h-54zm54 54h54v27h-54zm0-27h54v27h-54zm0-27h54v27h-54zm54 27h54v27h-54zM423 234h54v27h-54zM783 9h54v27h-54zm54 0h54v27h-54z"/></svg>