<svg xmlns="http://www.w3.org/2000/svg" width="630" height="504"><path fill="ivory" stroke="#000" stroke-width=".75" d="M189 359.999c59.646 0 108-48.354 108-108s-48.354-108-108-108h108c59.646 0 108 48.354 108 108s-48.354 108-108 108H189z"/><path fill="none" stroke="#0060B6" stroke-width=".75" d="M341.735 251.999c42.177-42.176 42.177-110.559 0-152.735S231.176 57.086 189 99.262l-76.367 76.368c-42.178 42.177-42.178 110.56 0 152.736 42.176 42.176 110.559 42.176 152.735 0l76.367-76.367z"/><path fill="none" stroke="#5595CE" stroke-width=".75" d="M297.001 143.999c0-59.646-48.354-108-108.001-108-59.647 0-108.001 48.354-108.001 108l.001 108C80.999 311.646 129.353 360 189 360c59.646-.001 108.001-48.354 108.001-108.001v-108z"/><path fill="none" stroke="#AACAE6" stroke-width=".75" d="M189.001 99.264c-42.176-42.176-110.559-42.176-152.736 0-42.176 42.177-42.176 110.56 0 152.736l76.368 76.366c42.176 42.178 110.559 42.178 152.735.001 42.177-42.178 42.177-110.561 0-152.736l-76.367-76.367z"/><path fill="none" stroke="#E4BC96" stroke-width=".75" d="M36.265 251.998c-42.176 42.176-42.176 110.559 0 152.736s110.559 42.177 152.736.002l76.366-76.369c42.178-42.176 42.179-110.559.001-152.734-42.177-42.178-110.561-42.178-152.736-.001l-76.367 76.366z"/><path fill="none" stroke="#D59758" stroke-width=".75" d="M80.999 359.998c0 59.646 48.354 108 108.001 108.001 59.646 0 108.001-48.354 108.002-107.999L297 251.999c.001-59.646-48.353-108.001-107.999-108-59.648 0-108.002 48.354-108.002 108v107.999z"/><path fill="none" stroke="#8B5C29" stroke-width=".75" d="M188.999 404.734c42.176 42.176 110.559 42.176 152.736 0 42.178-42.178 42.178-110.561.002-152.736l-76.369-76.368c-42.176-42.177-110.559-42.178-152.734 0-42.178 42.178-42.178 110.561-.001 152.736l76.366 76.368z"/><circle fill="none" stroke="#B2B2B2" stroke-width=".75" cx="189" cy="251.999" r="54"/><circle fill="none" stroke="#666" stroke-width=".75" cx="189" cy="251.999" r="81"/><circle fill="none" stroke="#000" stroke-width=".75" cx="189" cy="251.999" r="108"/><circle fill="none" stroke="#CCC" stroke-width=".75" cx="189" cy="251.999" r="27"/><text transform="translate(174.394 157.498)"><tspan x="0" y="0" font-family="Times,serif" font-style="italic" font-size="15.75">S</tspan><tspan x="7.875" y="3" font-family="Times,serif" font-style="italic" font-size="12">i </tspan><tspan x="14.209" y="3" font-family="Times,serif" font-size="12">– 1</tspan></text><text transform="translate(315.76 116.999)"><tspan x="0" y="0" font-family="Times,serif" font-style="italic" font-size="15.75">S</tspan><tspan x="7.875" y="3" font-family="Times,serif" font-style="italic" font-size="12">i </tspan><tspan x="14.209" y="3" font-family="Times,serif" font-size="12">+ 1</tspan></text><text transform="translate(315.702 393.748)"><tspan x="0" y="0" font-family="Times,serif" font-style="italic" font-size="15.75">T</tspan><tspan x="8.76" y="3" font-family="Times,serif" font-style="italic" font-size="12">i </tspan><tspan x="15.094" y="3" font-family="Times,serif" font-size="12">– 1</tspan></text><text transform="translate(377.644 251.998)"><tspan x="0" y="0" font-family="Times,serif" font-style="italic" font-size="15.75">S</tspan><tspan x="7.875" y="3" font-family="Times,serif" font-style="italic" font-size="12">i</tspan></text><text transform="translate(174.394 184.498)"><tspan x="0" y="0" fill="#666" font-family="Times,serif" font-style="italic" font-size="15.75">S</tspan><tspan x="7.875" y="3" fill="#666" font-family="Times,serif" font-style="italic" font-size="12">i </tspan><tspan x="14.209" y="3" fill="#666" font-family="Times,serif" font-size="12">– 2</tspan></text><text transform="translate(174.01 56.248)"><tspan x="0" y="0" fill="#666" font-family="Times,serif" font-style="italic" font-size="15.75">S</tspan><tspan x="7.875" y="3" fill="#666" font-family="Times,serif" font-style="italic" font-size="12">i </tspan><tspan x="14.209" y="3" fill="#666" font-family="Times,serif" font-size="12">+ 2</tspan></text><text transform="translate(173.952 454.498)"><tspan x="0" y="0" fill="#666" font-family="Times,serif" font-style="italic" font-size="15.75">T</tspan><tspan x="8.759" y="3" fill="#666" font-family="Times,serif" font-style="italic" font-size="12">i </tspan><tspan x="15.093" y="3" fill="#666" font-family="Times,serif" font-size="12">– 2</tspan></text><text transform="translate(174.394 211.498)"><tspan x="0" y="0" fill="#B2B2B2" font-family="Times,serif" font-style="italic" font-size="15.75">S</tspan><tspan x="7.875" y="3" fill="#B2B2B2" font-family="Times,serif" font-style="italic" font-size="12">i </tspan><tspan x="14.209" y="3" fill="#B2B2B2" font-family="Times,serif" font-size="12">– 3</tspan></text><text transform="translate(32.26 123.749)"><tspan x="0" y="0" fill="#B2B2B2" font-family="Times,serif" font-style="italic" font-size="15.75">S</tspan><tspan x="7.875" y="3" fill="#B2B2B2" font-family="Times,serif" font-style="italic" font-size="12">i </tspan><tspan x="14.209" y="3" fill="#B2B2B2" font-family="Times,serif" font-size="12">+ 3</tspan></text><text transform="translate(32.202 393.748)"><tspan x="0" y="0" fill="#B2B2B2" font-family="Times,serif" font-style="italic" font-size="15.75">T</tspan><tspan x="8.759" y="3" fill="#B2B2B2" font-family="Times,serif" font-style="italic" font-size="12">i </tspan><tspan x="15.093" y="3" fill="#B2B2B2" font-family="Times,serif" font-size="12">– 3</tspan></text><circle fill="red" stroke="#000" stroke-width=".75" cx="317.25" cy="252" r="3.75"/><text transform="translate(411.749 360)"><tspan x="0" y="0" fill="#BF0000" font-family="Times,serif" font-style="italic" font-size="15.75">Y = S</tspan><tspan x="35.138" y="3" fill="#BF0000" font-family="Times,serif" font-style="italic" font-size="12">i</tspan><tspan x="38.472" y="0" fill="#BF0000" font-family="Times,serif" font-style="italic" font-size="15.75"> \ S</tspan><tspan x="58.598" y="3" fill="#BF0000" font-family="Times,serif" font-style="italic" font-size="12">i </tspan><tspan x="64.932" y="3" fill="#BF0000" font-family="Times,serif" font-size="12">– 1</tspan><tspan x="79.932" y="3" fill="#BF0000" font-family="Times,serif" font-style="italic" font-size="12"> </tspan><tspan x="82.932" y="0" fill="#BF0000" font-family="Times,serif" font-size="15.75">must be nonempty.</tspan><tspan x="0" y="18.9" fill="#BF0000" font-family="Times,serif" font-size="15.75">Which </tspan><tspan x="45.92" y="18.9" fill="#BF0000" font-family="Times,serif" font-style="italic" font-size="15.75">k</tspan><tspan x="52.91" y="18.9" fill="#BF0000" font-family="Times,serif" font-size="15.75"> sets (including </tspan><tspan x="153.086" y="18.9" fill="#BF0000" font-family="Times,serif" font-style="italic" font-size="15.75">S</tspan><tspan x="160.961" y="21.9" fill="#BF0000" font-family="Times,serif" font-style="italic" font-size="12">i</tspan><tspan x="164.295" y="18.9" fill="#BF0000" font-family="Times,serif" font-size="15.75"> itself)</tspan><tspan x="0" y="37.8" fill="#BF0000" font-family="Times,serif" font-size="15.75">contain an element </tspan><tspan x="122.886" y="37.8" fill="#BF0000" font-family="Times,serif" font-style="italic" font-size="15.75">y</tspan><tspan x="129.876" y="37.8" fill="#BF0000" font-family="Times,serif" font-size="15.75"> in </tspan><tspan x="150.002" y="37.8" fill="#BF0000" font-family="Times,serif" font-style="italic" font-size="15.75">Y</tspan><tspan x="158.761" y="37.8" fill="#BF0000" font-family="Times,serif" font-size="15.75">?</tspan></text><text transform="translate(75.58 495)"><tspan x="0" y="0" fill="#8B5C29" font-family="Times,serif" font-style="italic" font-size="15.75">i </tspan><tspan x="8.313" y="0" fill="#8B5C29" font-family="Times,serif" font-size="15.75">– 2</tspan><tspan x="28.001" y="3" fill="#8B5C29" font-family="Times,serif" font-style="italic" font-size="12"> </tspan><tspan x="31.001" y="0" fill="#8B5C29" font-family="Times,serif" font-size="15.75">sets already known to intersect </tspan><tspan x="229.129" y="0" fill="#8B5C29" font-family="Times,serif" font-style="italic" font-size="15.75">S</tspan><tspan x="237.004" y="3" fill="#8B5C29" font-family="Times,serif" font-style="italic" font-size="12">i</tspan></text><text transform="translate(82.772 15.749)"><tspan x="0" y="0" fill="#0060B6" font-family="Times,serif" font-style="italic" font-size="15.75">k – i</tspan><tspan x="27.117" y="3" fill="#0060B6" font-family="Times,serif" font-style="italic" font-size="12"> </tspan><tspan x="30.117" y="0" fill="#0060B6" font-family="Times,serif" font-size="15.75">sets already known to intersect </tspan><tspan x="228.245" y="0" fill="#0060B6" font-family="Times,serif" font-style="italic" font-size="15.75">S</tspan><tspan x="236.12" y="3" fill="#0060B6" font-family="Times,serif" font-style="italic" font-size="12">i</tspan></text><path fill="none" stroke="#BF0000" stroke-width=".75" d="M405 366.75c-47.25 0-87.75-47.25-87.75-101.25"/><path fill="#BF0000" d="M317.25 260.973c.79 2.13 2.139 4.772 3.566 6.41l-3.566-1.29-3.566 1.29c1.427-1.637 2.777-4.28 3.566-6.41z"/><path fill="none" stroke="#8B5C29" stroke-width="1.125" d="M384.75 468c0 6.75-27 6.75-81 6.75s-108 .75-108 6.75c0-6-54-6.75-108-6.75s-81 0-81-6.75"/><path fill="none" stroke="#0060B6" stroke-width="1.125" d="M384.75 36c0-6.75-27-6.75-81-6.75s-108-.75-108-6.75c0 6-54 6.75-108 6.75s-81 0-81 6.75"/><circle fill="red" stroke="#000" stroke-width=".75" cx="189" cy="252" r="3.75"/><text transform="translate(194 247.083)" fill="#BF0000" font-family="Times,serif" font-style="italic" font-size="15.75">x</text><text transform="translate(306.416 247.083)" fill="#BF0000" font-family="Times,serif" font-style="italic" font-size="15.75">y</text></svg>