<svg xmlns="http://www.w3.org/2000/svg" width="639" height="225"><path fill="none" stroke="#000" stroke-width="2" d="M9 36h144v144H9z"/><path fill="none" stroke="#000" stroke-dasharray="4" d="M9 108h144M81 36v144"/><text transform="translate(36 81)" font-family="Times,serif" font-style="italic" font-size="36">a</text><text transform="translate(108 81)" font-family="Times,serif" font-style="italic" font-size="36">b</text><text transform="translate(109.011 153)" font-family="Times,serif" font-style="italic" font-size="36">c</text><text transform="translate(36 153)" font-family="Times,serif" font-style="italic" font-size="36">d</text><path fill="none" stroke="#000" stroke-width="2" d="M225 9h72v72h-72zm36 117h72v72h-72zm144 0h72v72h-72zm108 0h72v72h-72zM225 45h72m-36 0v36M477 9v36M333 9h72v72h-72zm36 0v72m0-36h-36M441 9h72v72h-72zm0 36h72m36-36h72v72h-72zm36 0v72m36-36h-36"/><text transform="translate(215.264 99)"><tspan x="0" y="0" font-family="Times,serif" font-size="14">{{</tspan><tspan x="13.439" y="0" font-family="Times,serif" font-style="italic" font-size="14">a</tspan><tspan x="20.439" y="0" font-family="Times,serif" font-size="14">,</tspan><tspan x="23.939" y="0" font-family="Times,serif" font-style="italic" font-size="14">b</tspan><tspan x="30.939" y="0" font-family="Times,serif" font-size="14">},{</tspan><tspan x="47.879" y="0" font-family="Times,serif" font-style="italic" font-size="14">c</tspan><tspan x="54.093" y="0" font-family="Times,serif" font-size="14">},{</tspan><tspan x="71.032" y="0" font-family="Times,serif" font-style="italic" font-size="14">d</tspan><tspan x="78.032" y="0" font-family="Times,serif" font-size="14">}}</tspan></text><text transform="translate(323.264 99)"><tspan x="0" y="0" font-family="Times,serif" font-size="14">{{</tspan><tspan x="13.439" y="0" font-family="Times,serif" font-style="italic" font-size="14">a</tspan><tspan x="20.439" y="0" font-family="Times,serif" font-size="14">},{</tspan><tspan x="37.378" y="0" font-family="Times,serif" font-style="italic" font-size="14">b</tspan><tspan x="44.378" y="0" font-family="Times,serif" font-size="14">,</tspan><tspan x="47.878" y="0" font-family="Times,serif" font-style="italic" font-size="14">c</tspan><tspan x="54.093" y="0" font-family="Times,serif" font-size="14">},{</tspan><tspan x="71.033" y="0" font-family="Times,serif" font-style="italic" font-size="14">d</tspan><tspan x="78.033" y="0" font-family="Times,serif" font-size="14">}}</tspan></text><text transform="translate(431.264 99)"><tspan x="0" y="0" font-family="Times,serif" font-size="14">{{</tspan><tspan x="13.439" y="0" font-family="Times,serif" font-style="italic" font-size="14">a</tspan><tspan x="20.439" y="0" font-family="Times,serif" font-size="14">},{</tspan><tspan x="37.379" y="0" font-family="Times,serif" font-style="italic" font-size="14">b</tspan><tspan x="44.379" y="0" font-family="Times,serif" font-size="14">},{</tspan><tspan x="61.318" y="0" font-family="Times,serif" font-style="italic" font-size="14">c</tspan><tspan x="67.533" y="0" font-family="Times,serif" font-size="14">,</tspan><tspan x="71.033" y="0" font-family="Times,serif" font-style="italic" font-size="14">d</tspan><tspan x="78.033" y="0" font-family="Times,serif" font-size="14">}}</tspan></text><text transform="translate(244.544 216)"><tspan x="0" y="0" font-family="Times,serif" font-size="14">{{</tspan><tspan x="13.439" y="0" font-family="Times,serif" font-style="italic" font-size="14">a</tspan><tspan x="20.439" y="0" font-family="Times,serif" font-size="14">},{</tspan><tspan x="37.379" y="0" font-family="Times,serif" font-style="italic" font-size="14">b</tspan><tspan x="44.379" y="0" font-family="Times,serif" font-size="14">},{</tspan><tspan x="61.318" y="0" font-family="Times,serif" font-style="italic" font-size="14">c</tspan><tspan x="67.532" y="0" font-family="Times,serif" font-size="14">},{</tspan><tspan x="84.472" y="0" font-family="Times,serif" font-style="italic" font-size="14">d</tspan><tspan x="91.471" y="0" font-family="Times,serif" font-size="14">}}</tspan></text><text transform="translate(401.984 216)"><tspan x="0" y="0" font-family="Times,serif" font-size="14">{{</tspan><tspan x="13.439" y="0" font-family="Times,serif" font-style="italic" font-size="14">a</tspan><tspan x="20.439" y="0" font-family="Times,serif" font-size="14">,</tspan><tspan x="23.939" y="0" font-family="Times,serif" font-style="italic" font-size="14">b</tspan><tspan x="30.939" y="0" font-family="Times,serif" font-size="14">},{</tspan><tspan x="47.879" y="0" font-family="Times,serif" font-style="italic" font-size="14">c</tspan><tspan x="54.093" y="0" font-family="Times,serif" font-size="14">,</tspan><tspan x="57.593" y="0" font-family="Times,serif" font-style="italic" font-size="14">d</tspan><tspan x="64.593" y="0" font-family="Times,serif" font-size="14">}}</tspan></text><text transform="translate(509.984 216)"><tspan x="0" y="0" font-family="Times,serif" font-size="14">{{</tspan><tspan x="13.439" y="0" font-family="Times,serif" font-style="italic" font-size="14">b</tspan><tspan x="20.439" y="0" font-family="Times,serif" font-size="14">,</tspan><tspan x="23.939" y="0" font-family="Times,serif" font-style="italic" font-size="14">c</tspan><tspan x="30.153" y="0" font-family="Times,serif" font-size="14">},{</tspan><tspan x="47.093" y="0" font-family="Times,serif" font-style="italic" font-size="14">d</tspan><tspan x="54.093" y="0" font-family="Times,serif" font-size="14">,</tspan><tspan x="57.593" y="0" font-family="Times,serif" font-style="italic" font-size="14">a</tspan><tspan x="64.593" y="0" font-family="Times,serif" font-size="14">}}</tspan></text><text transform="translate(539.264 99)"><tspan x="0" y="0" font-family="Times,serif" font-size="14">{{</tspan><tspan x="13.439" y="0" font-family="Times,serif" font-style="italic" font-size="14">d</tspan><tspan x="20.439" y="0" font-family="Times,serif" font-size="14">,</tspan><tspan x="23.939" y="0" font-family="Times,serif" font-style="italic" font-size="14">a</tspan><tspan x="30.939" y="0" font-family="Times,serif" font-size="14">},{</tspan><tspan x="47.879" y="0" font-family="Times,serif" font-style="italic" font-size="14">b</tspan><tspan x="54.879" y="0" font-family="Times,serif" font-size="14">},{</tspan><tspan x="71.818" y="0" font-family="Times,serif" font-style="italic" font-size="14">c</tspan><tspan x="78.033" y="0" font-family="Times,serif" font-size="14">}}</tspan></text><path fill="none" stroke="#000" stroke-width="2" d="M297 126v72m36-36h-72m144 0h72m72-36v72"/></svg>