<svg xmlns="http://www.w3.org/2000/svg" width="774" height="756"><text transform="translate(213.91 26.679)"><tspan x="0" y="0" font-family="Times,serif" font-style="italic" font-size="15">U</tspan><tspan x="10.833" y="0" font-family="Times,serif" font-size="15"> = {</tspan><tspan x="33.992" y="0" font-family="Times,serif" font-style="italic" font-size="15">a</tspan><tspan x="41.492" y="0" font-family="Times,serif" font-size="15">, </tspan><tspan x="48.992" y="0" font-family="Times,serif" font-style="italic" font-size="15">b</tspan><tspan x="56.492" y="0" font-family="Times,serif" font-size="15">, </tspan><tspan x="63.992" y="0" font-family="Times,serif" font-style="italic" font-size="15">c</tspan><tspan x="70.649" y="0" font-family="Times,serif" font-size="15">, </tspan><tspan x="78.149" y="0" font-family="Times,serif" font-style="italic" font-size="15">d</tspan><tspan x="85.649" y="0" font-family="Times,serif" font-size="15">}</tspan><tspan x="0" y="18" font-family="Times,serif" font-style="italic" font-size="15">F</tspan><tspan x="9.163" y="18" font-family="Times,serif" font-size="15"> = {{</tspan><tspan x="39.521" y="18" font-family="Times,serif" font-style="italic" font-size="15">a</tspan><tspan x="47.021" y="18" font-family="Times,serif" font-size="15">}, {</tspan><tspan x="68.921" y="18" font-family="Times,serif" font-style="italic" font-size="15">b</tspan><tspan x="76.421" y="18" font-family="Times,serif" font-size="15">}, {</tspan><tspan x="98.32" y="18" font-family="Times,serif" font-style="italic" font-size="15">c</tspan><tspan x="104.978" y="18" font-family="Times,serif" font-size="15">}, {</tspan><tspan x="126.877" y="18" font-family="Times,serif" font-style="italic" font-size="15">d</tspan><tspan x="134.377" y="18" font-family="Times,serif" font-size="15">}, {</tspan><tspan x="156.277" y="18" font-family="Times,serif" font-style="italic" font-size="15">a</tspan><tspan x="163.777" y="18" font-family="Times,serif" font-size="15">, </tspan><tspan x="171.277" y="18" font-family="Times,serif" font-style="italic" font-size="15">b</tspan><tspan x="178.777" y="18" font-family="Times,serif" font-size="15">}, {</tspan><tspan x="200.676" y="18" font-family="Times,serif" font-style="italic" font-size="15">b</tspan><tspan x="208.176" y="18" font-family="Times,serif" font-size="15">, </tspan><tspan x="215.676" y="18" font-family="Times,serif" font-style="italic" font-size="15">c</tspan><tspan x="222.333" y="18" font-family="Times,serif" font-size="15">}, {</tspan><tspan x="244.234" y="18" font-family="Times,serif" font-style="italic" font-size="15">c</tspan><tspan x="250.891" y="18" font-family="Times,serif" font-size="15">, </tspan><tspan x="258.391" y="18" font-family="Times,serif" font-style="italic" font-size="15">d</tspan><tspan x="265.891" y="18" font-family="Times,serif" font-size="15">}, {</tspan><tspan x="287.791" y="18" font-family="Times,serif" font-style="italic" font-size="15">d</tspan><tspan x="295.291" y="18" font-family="Times,serif" font-size="15">, </tspan><tspan x="302.791" y="18" font-family="Times,serif" font-style="italic" font-size="15">a</tspan><tspan x="310.291" y="18" font-family="Times,serif" font-size="15">}}</tspan><tspan x="0" y="36" font-family="Times,serif" font-size="15">pivot = </tspan><tspan x="46.794" y="36" font-family="Times,serif" font-style="italic" font-size="15">a</tspan><tspan x="0" y="54" font-family="Times,serif" font-size="15">sets containing pivot = {</tspan><tspan x="147.312" y="54" font-family="Times,serif" font-style="italic" font-size="15">a</tspan><tspan x="154.812" y="54" font-family="Times,serif" font-size="15">}, {</tspan><tspan x="176.711" y="54" font-family="Times,serif" font-style="italic" font-size="15">a</tspan><tspan x="184.211" y="54" font-family="Times,serif" font-size="15">, </tspan><tspan x="191.711" y="54" font-family="Times,serif" font-style="italic" font-size="15">b</tspan><tspan x="199.211" y="54" font-family="Times,serif" font-size="15">}, {</tspan><tspan x="221.111" y="54" font-family="Times,serif" font-style="italic" font-size="15">d</tspan><tspan x="228.611" y="54" font-family="Times,serif" font-size="15">, </tspan><tspan x="236.111" y="54" font-family="Times,serif" font-style="italic" font-size="15">a</tspan><tspan x="243.611" y="54" font-family="Times,serif" font-size="15">}</tspan></text><text transform="translate(14.302 204.106)"><tspan x="0" y="0" font-family="Times,serif" font-style="italic" font-size="15">U</tspan><tspan x="10.833" y="0" font-family="Times,serif" font-size="15"> = {</tspan><tspan x="33.992" y="0" font-family="Times,serif" font-style="italic" font-size="15">b</tspan><tspan x="41.492" y="0" font-family="Times,serif" font-size="15">, </tspan><tspan x="48.992" y="0" font-family="Times,serif" font-style="italic" font-size="15">c</tspan><tspan x="55.649" y="0" font-family="Times,serif" font-size="15">, </tspan><tspan x="63.149" y="0" font-family="Times,serif" font-style="italic" font-size="15">d</tspan><tspan x="70.649" y="0" font-family="Times,serif" font-size="15">}</tspan><tspan x="0" y="18" font-family="Times,serif" font-style="italic" font-size="15">F</tspan><tspan x="9.163" y="18" font-family="Times,serif" font-size="15"> = {{</tspan><tspan x="39.521" y="18" font-family="Times,serif" font-style="italic" font-size="15">b</tspan><tspan x="47.021" y="18" font-family="Times,serif" font-size="15">}, {</tspan><tspan x="68.921" y="18" font-family="Times,serif" font-style="italic" font-size="15">c</tspan><tspan x="75.579" y="18" font-family="Times,serif" font-size="15">}, {</tspan><tspan x="97.478" y="18" font-family="Times,serif" font-style="italic" font-size="15">d</tspan><tspan x="104.978" y="18" font-family="Times,serif" font-size="15">}, {</tspan><tspan x="126.877" y="18" font-family="Times,serif" font-style="italic" font-size="15">b</tspan><tspan x="134.377" y="18" font-family="Times,serif" font-size="15">, </tspan><tspan x="141.877" y="18" font-family="Times,serif" font-style="italic" font-size="15">c</tspan><tspan x="148.535" y="18" font-family="Times,serif" font-size="15">}, {</tspan><tspan x="170.435" y="18" font-family="Times,serif" font-style="italic" font-size="15">c</tspan><tspan x="177.092" y="18" font-family="Times,serif" font-size="15">, </tspan><tspan x="184.592" y="18" font-family="Times,serif" font-style="italic" font-size="15">d</tspan><tspan x="192.092" y="18" font-family="Times,serif" font-size="15">}}</tspan><tspan x="0" y="36" font-family="Times,serif" font-size="15">pivot = </tspan><tspan x="46.794" y="36" font-family="Times,serif" font-style="italic" font-size="15">b</tspan><tspan x="0" y="54" font-family="Times,serif" font-size="15">sets containing pivot = {</tspan><tspan x="147.312" y="54" font-family="Times,serif" font-style="italic" font-size="15">b</tspan><tspan x="154.812" y="54" font-family="Times,serif" font-size="15">}, {</tspan><tspan x="176.711" y="54" font-family="Times,serif" font-style="italic" font-size="15">b</tspan><tspan x="184.211" y="54" font-family="Times,serif" font-size="15">, </tspan><tspan x="191.711" y="54" font-family="Times,serif" font-style="italic" font-size="15">c</tspan><tspan x="198.369" y="54" font-family="Times,serif" font-size="15">}</tspan></text><text transform="translate(546.59 204.106)"><tspan x="0" y="0" font-family="Times,serif" font-style="italic" font-size="15">U</tspan><tspan x="10.832" y="0" font-family="Times,serif" font-size="15"> = {</tspan><tspan x="33.992" y="0" font-family="Times,serif" font-style="italic" font-size="15">c</tspan><tspan x="40.649" y="0" font-family="Times,serif" font-size="15">, </tspan><tspan x="48.149" y="0" font-family="Times,serif" font-style="italic" font-size="15">d</tspan><tspan x="55.649" y="0" font-family="Times,serif" font-size="15">}</tspan><tspan x="0" y="18" font-family="Times,serif" font-style="italic" font-size="15">F</tspan><tspan x="9.162" y="18" font-family="Times,serif" font-size="15"> = {{</tspan><tspan x="39.521" y="18" font-family="Times,serif" font-style="italic" font-size="15">c</tspan><tspan x="46.18" y="18" font-family="Times,serif" font-size="15">}, {</tspan><tspan x="68.078" y="18" font-family="Times,serif" font-style="italic" font-size="15">d</tspan><tspan x="75.578" y="18" font-family="Times,serif" font-size="15">}, {</tspan><tspan x="97.479" y="18" font-family="Times,serif" font-style="italic" font-size="15">c</tspan><tspan x="104.136" y="18" font-family="Times,serif" font-size="15">, </tspan><tspan x="111.636" y="18" font-family="Times,serif" font-style="italic" font-size="15">d</tspan><tspan x="119.136" y="18" font-family="Times,serif" font-size="15">}}</tspan><tspan x="0" y="36" font-family="Times,serif" font-size="15">pivot = </tspan><tspan x="46.795" y="36" font-family="Times,serif" font-style="italic" font-size="15">c</tspan><tspan x="0" y="54" font-family="Times,serif" font-size="15">sets containing pivot = {</tspan><tspan x="147.312" y="54" font-family="Times,serif" font-style="italic" font-size="15">c</tspan><tspan x="153.97" y="54" font-family="Times,serif" font-size="15">}, {</tspan><tspan x="175.869" y="54" font-family="Times,serif" font-style="italic" font-size="15">c</tspan><tspan x="182.527" y="54" font-family="Times,serif" font-size="15">, </tspan><tspan x="190.027" y="54" font-family="Times,serif" font-style="italic" font-size="15">d</tspan><tspan x="197.527" y="54" font-family="Times,serif" font-size="15">}</tspan></text><text transform="translate(280.447 204.106)"><tspan x="0" y="0" font-family="Times,serif" font-style="italic" font-size="15">U</tspan><tspan x="10.833" y="0" font-family="Times,serif" font-size="15"> = {</tspan><tspan x="33.992" y="0" font-family="Times,serif" font-style="italic" font-size="15">b</tspan><tspan x="41.492" y="0" font-family="Times,serif" font-size="15">, </tspan><tspan x="48.992" y="0" font-family="Times,serif" font-style="italic" font-size="15">c</tspan><tspan x="55.649" y="0" font-family="Times,serif" font-size="15">}</tspan><tspan x="0" y="18" font-family="Times,serif" font-style="italic" font-size="15">F</tspan><tspan x="9.163" y="18" font-family="Times,serif" font-size="15"> = {{</tspan><tspan x="39.521" y="18" font-family="Times,serif" font-style="italic" font-size="15">b</tspan><tspan x="47.021" y="18" font-family="Times,serif" font-size="15">}, {</tspan><tspan x="68.921" y="18" font-family="Times,serif" font-style="italic" font-size="15">c</tspan><tspan x="75.579" y="18" font-family="Times,serif" font-size="15">}, {</tspan><tspan x="97.478" y="18" font-family="Times,serif" font-style="italic" font-size="15">b</tspan><tspan x="104.978" y="18" font-family="Times,serif" font-size="15">, </tspan><tspan x="112.478" y="18" font-family="Times,serif" font-style="italic" font-size="15">c</tspan><tspan x="119.135" y="18" font-family="Times,serif" font-size="15">}}</tspan><tspan x="0" y="36" font-family="Times,serif" font-size="15">pivot = </tspan><tspan x="46.794" y="36" font-family="Times,serif" font-style="italic" font-size="15">b</tspan><tspan x="0" y="54" font-family="Times,serif" font-size="15">sets containing pivot = {</tspan><tspan x="147.312" y="54" font-family="Times,serif" font-style="italic" font-size="15">b</tspan><tspan x="154.812" y="54" font-family="Times,serif" font-size="15">}, {</tspan><tspan x="176.711" y="54" font-family="Times,serif" font-style="italic" font-size="15">b</tspan><tspan x="184.211" y="54" font-family="Times,serif" font-size="15">, </tspan><tspan x="191.711" y="54" font-family="Times,serif" font-style="italic" font-size="15">c</tspan><tspan x="198.37" y="54" font-family="Times,serif" font-size="15">}</tspan></text><text transform="translate(302.625 381.536)"><tspan x="0" y="0" font-family="Times,serif" font-style="italic" font-size="15">U</tspan><tspan x="10.833" y="0" font-family="Times,serif" font-size="15"> = {</tspan><tspan x="33.992" y="0" font-family="Times,serif" font-style="italic" font-size="15">c</tspan><tspan x="40.649" y="0" font-family="Times,serif" font-size="15">}</tspan><tspan x="0" y="18" font-family="Times,serif" font-style="italic" font-size="15">F</tspan><tspan x="9.163" y="18" font-family="Times,serif" font-size="15"> = {{</tspan><tspan x="39.521" y="18" font-family="Times,serif" font-style="italic" font-size="15">c</tspan><tspan x="46.179" y="18" font-family="Times,serif" font-size="15">}}</tspan><tspan x="0" y="36" font-family="Times,serif" font-size="15">pivot = </tspan><tspan x="46.794" y="36" font-family="Times,serif" font-style="italic" font-size="15">c</tspan><tspan x="0" y="54" font-family="Times,serif" font-size="15">sets containing pivot = {</tspan><tspan x="147.312" y="54" font-family="Times,serif" font-style="italic" font-size="15">c</tspan><tspan x="153.969" y="54" font-family="Times,serif" font-size="15">}</tspan></text><path fill="none" stroke="#000" stroke-width="1.232" d="M546.59 78.429c0 8.166-6.621 14.785-14.787 14.785H217.606c-8.165 0-14.785-6.619-14.785-14.785V19.285c0-8.165 6.62-14.785 14.785-14.785h314.197c8.166 0 14.787 6.62 14.787 14.785v59.144zM224.999 255.857c0 8.165-6.619 14.786-14.785 14.786H18c-8.167 0-14.787-6.621-14.787-14.786v-59.144c0-8.166 6.62-14.786 14.787-14.786h192.214c8.166 0 14.785 6.62 14.785 14.786v59.144zm266.144 0c0 8.165-6.621 14.786-14.785 14.786H284.142c-8.166 0-14.786-6.621-14.786-14.786v-59.144c0-8.166 6.62-14.786 14.786-14.786h192.215c8.164 0 14.785 6.62 14.785 14.786v59.144zm277.232 0c0 8.165-6.621 14.786-14.785 14.786H550.285c-8.166 0-14.787-6.621-14.787-14.786v-59.144c0-8.166 6.621-14.786 14.787-14.786H753.59c8.164 0 14.785 6.62 14.785 14.786v59.144zM269.356 93.215c0 33.268-155.25 55.446-155.25 88.714M380.25 93.215v88.714m110.891-88.714c0 33.268 155.252 55.446 155.252 88.714"/><text transform="translate(114.107 137.571)"><tspan x="0" y="0" font-family="Times,serif" font-size="15">try set {</tspan><tspan x="48.025" y="0" font-family="Times,serif" font-style="italic" font-size="15">a</tspan><tspan x="55.525" y="0" font-family="Times,serif" font-size="15">}</tspan></text><text transform="translate(291.536 137.571)"><tspan x="0" y="0" font-family="Times,serif" font-size="15">try set {</tspan><tspan x="48.025" y="0" font-family="Times,serif" font-style="italic" font-size="15">d, a</tspan><tspan x="70.525" y="0" font-family="Times,serif" font-size="15">}</tspan></text><text transform="translate(446.787 137.571)"><tspan x="0" y="0" font-family="Times,serif" font-size="15">try set {</tspan><tspan x="48.025" y="0" font-family="Times,serif" font-style="italic" font-size="15">b, c</tspan><tspan x="69.683" y="0" font-family="Times,serif" font-size="15">}</tspan></text><path fill="none" stroke="#000" stroke-width="1.232" d="M468.965 433.287c0 8.165-6.621 14.785-14.785 14.785H306.321c-8.166 0-14.786-6.62-14.786-14.785v-59.144c0-8.165 6.62-14.785 14.786-14.785H454.18c8.164 0 14.785 6.62 14.785 14.785v59.144zM380.25 270.645v88.713"/><text transform="translate(291.536 315.001)" font-family="Times,serif" font-size="15">simplify nest</text><text transform="translate(568.77 381.536)"><tspan x="0" y="0" font-family="Times,serif" font-style="italic" font-size="15">U</tspan><tspan x="10.832" y="0" font-family="Times,serif" font-size="15"> = {</tspan><tspan x="33.992" y="0" font-family="Times,serif" font-style="italic" font-size="15">d</tspan><tspan x="41.492" y="0" font-family="Times,serif" font-size="15">}</tspan><tspan x="0" y="18" font-family="Times,serif" font-style="italic" font-size="15">F</tspan><tspan x="9.162" y="18" font-family="Times,serif" font-size="15"> = {{</tspan><tspan x="39.521" y="18" font-family="Times,serif" font-style="italic" font-size="15">d</tspan><tspan x="47.021" y="18" font-family="Times,serif" font-size="15">}}</tspan><tspan x="0" y="36" font-family="Times,serif" font-size="15">pivot = </tspan><tspan x="46.795" y="36" font-family="Times,serif" font-style="italic" font-size="15">d</tspan><tspan x="0" y="54" font-family="Times,serif" font-size="15">sets containing pivot = {</tspan><tspan x="147.312" y="54" font-family="Times,serif" font-style="italic" font-size="15">d</tspan><tspan x="154.812" y="54" font-family="Times,serif" font-size="15">}</tspan></text><path fill="none" stroke="#000" stroke-width="1.232" d="M735.107 433.287c0 8.165-6.621 14.785-14.785 14.785H572.465c-8.166 0-14.787-6.62-14.787-14.785v-59.144c0-8.165 6.621-14.785 14.787-14.785h147.857c8.164 0 14.785 6.62 14.785 14.785v59.144zm-88.714-162.642v88.713"/><text transform="translate(557.68 315.001)" font-family="Times,serif" font-size="15">simplify nest</text><text transform="translate(335.893 558.965)" font-family="Times,serif" font-size="15">empty instance</text><path fill="none" stroke="#000" stroke-width="1.232" d="M435.697 555.271c0 8.164-6.621 14.785-14.787 14.785h-81.322c-8.166 0-14.786-6.621-14.786-14.785v-3.697c0-8.165 6.62-14.785 14.786-14.785h81.322c8.166 0 14.787 6.62 14.787 14.785v3.697zM380.25 448.072v88.716"/><text transform="translate(302.625 492.428)"><tspan x="0" y="0" font-family="Times,serif" font-size="15">try set {</tspan><tspan x="48.025" y="0" font-family="Times,serif" font-style="italic" font-size="15">c</tspan><tspan x="54.683" y="0" font-family="Times,serif" font-size="15">}</tspan></text><text transform="translate(602.037 558.965)" font-family="Times,serif" font-size="15">empty instance</text><path fill="none" stroke="#000" stroke-width="1.232" d="M701.84 555.271c0 8.164-6.621 14.785-14.785 14.785h-81.322c-8.166 0-14.785-6.621-14.785-14.785v-3.697c0-8.165 6.619-14.785 14.785-14.785h81.322c8.164 0 14.785 6.62 14.785 14.785v3.697zm-55.447-107.199v88.716"/><text transform="translate(568.77 492.428)"><tspan x="0" y="0" font-family="Times,serif" font-size="15">try set {</tspan><tspan x="48.025" y="0" font-family="Times,serif" font-style="italic" font-size="15">d</tspan><tspan x="55.525" y="0" font-family="Times,serif" font-size="15">}</tspan></text><text transform="translate(14.303 381.535)"><tspan x="0" y="0" font-family="Times,serif" font-style="italic" font-size="15">U</tspan><tspan x="10.833" y="0" font-family="Times,serif" font-size="15"> = {</tspan><tspan x="33.992" y="0" font-family="Times,serif" font-style="italic" font-size="15">c</tspan><tspan x="40.649" y="0" font-family="Times,serif" font-size="15">, </tspan><tspan x="48.149" y="0" font-family="Times,serif" font-style="italic" font-size="15">d</tspan><tspan x="55.649" y="0" font-family="Times,serif" font-size="15">}</tspan><tspan x="0" y="18" font-family="Times,serif" font-style="italic" font-size="15">F</tspan><tspan x="9.163" y="18" font-family="Times,serif" font-size="15"> = {{</tspan><tspan x="39.521" y="18" font-family="Times,serif" font-style="italic" font-size="15">c</tspan><tspan x="46.179" y="18" font-family="Times,serif" font-size="15">}, {</tspan><tspan x="68.079" y="18" font-family="Times,serif" font-style="italic" font-size="15">d</tspan><tspan x="75.579" y="18" font-family="Times,serif" font-size="15">}, {</tspan><tspan x="97.478" y="18" font-family="Times,serif" font-style="italic" font-size="15">c</tspan><tspan x="104.136" y="18" font-family="Times,serif" font-size="15">, </tspan><tspan x="111.636" y="18" font-family="Times,serif" font-style="italic" font-size="15">d</tspan><tspan x="119.136" y="18" font-family="Times,serif" font-size="15">}}</tspan><tspan x="0" y="36" font-family="Times,serif" font-size="15">pivot = </tspan><tspan x="46.794" y="36" font-family="Times,serif" font-style="italic" font-size="15">c</tspan><tspan x="0" y="54" font-family="Times,serif" font-size="15">sets containing pivot = {</tspan><tspan x="147.312" y="54" font-family="Times,serif" font-style="italic" font-size="15">c</tspan><tspan x="153.97" y="54" font-family="Times,serif" font-size="15">}, {c, d}</tspan></text><path fill="none" stroke="#000" stroke-width="1.232" d="M236.088 433.286c0 8.165-6.62 14.785-14.785 14.785H17.999c-8.166 0-14.786-6.62-14.786-14.785v-59.144c0-8.165 6.62-14.785 14.786-14.785h203.305c8.165 0 14.785 6.62 14.785 14.785v59.144z"/><text transform="translate(36.482 558.966)"><tspan x="0" y="0" font-family="Times,serif" font-style="italic" font-size="15">U</tspan><tspan x="10.833" y="0" font-family="Times,serif" font-size="15"> = {</tspan><tspan x="33.992" y="0" font-family="Times,serif" font-style="italic" font-size="15">d</tspan><tspan x="41.492" y="0" font-family="Times,serif" font-size="15">}</tspan><tspan x="0" y="18" font-family="Times,serif" font-style="italic" font-size="15">F</tspan><tspan x="9.163" y="18" font-family="Times,serif" font-size="15"> = {{</tspan><tspan x="39.521" y="18" font-family="Times,serif" font-style="italic" font-size="15">d</tspan><tspan x="47.021" y="18" font-family="Times,serif" font-size="15">}}</tspan><tspan x="0" y="36" font-family="Times,serif" font-size="15">pivot = </tspan><tspan x="46.794" y="36" font-family="Times,serif" font-style="italic" font-size="15">d</tspan><tspan x="0" y="54" font-family="Times,serif" font-size="15">sets containing pivot = {</tspan><tspan x="147.312" y="54" font-family="Times,serif" font-style="italic" font-size="15">d</tspan><tspan x="154.812" y="54" font-family="Times,serif" font-size="15">}</tspan></text><path fill="none" stroke="#000" stroke-width="1.232" d="M202.821 610.718c0 8.165-6.62 14.785-14.785 14.785H40.178c-8.166 0-14.786-6.62-14.786-14.785v-59.144c0-8.165 6.62-14.785 14.786-14.785h147.857c8.165 0 14.785 6.62 14.785 14.785v59.144zm-88.714-162.645v88.716"/><text transform="translate(25.393 492.43)" font-family="Times,serif" font-size="15">simplify nest</text><text transform="translate(25.393 315.001)" font-family="Times,serif" font-size="15">simplify nest</text><text transform="translate(69.75 736.394)" font-family="Times,serif" font-size="15">empty instance</text><path fill="none" stroke="#000" stroke-width="1.232" d="M169.553 732.699c0 8.166-6.62 14.786-14.785 14.786H73.446c-8.166 0-14.786-6.62-14.786-14.786v-3.696c0-8.166 6.62-14.785 14.786-14.785h81.322c8.165 0 14.785 6.619 14.785 14.785v3.696zm-55.446-107.196v88.715"/><text transform="translate(36.482 669.858)"><tspan x="0" y="0" font-family="Times,serif" font-size="15">try set {</tspan><tspan x="48.025" y="0" font-family="Times,serif" font-style="italic" font-size="15">d</tspan><tspan x="55.525" y="0" font-family="Times,serif" font-size="15">}</tspan></text><path fill="none" stroke="#000" stroke-width="1.232" d="M114.106 359.358v-88.713"/></svg>