<svg xmlns="http://www.w3.org/2000/svg" width="800pt" height="700pt" viewBox="0 0 800 700"><path d="M100 0L0 700m0 0l800-450m0 0L750 73m0 0L100 0" fill="none" stroke="#000"/><path d="M96 22l16-5M93 45l15-5M90 67l15-4M87 90l15-5m-19 27l16-4m-19 27l15-4m-18 27l15-5m-18 27l15-4m-19 27l16-4m-19 26l15-3m-18 26l15-4m-18 26l15-3m-18 26l15-3m-19 26l15-3m-18 25l15-3m-18 26l15-3m-18 25l15-2m-19 25l15-2m-18 25l15-3m-18 25l15-2m-18 25l15-2m-18 24l14-2m-18 25l15-2m-18 24l15-1m-18 24l15-1m-18 24l15-2m-19 24l15-1M9 632l15-1M6 654h15M3 677l15-1m7 9l-7-9m33-6l-8-8m34-6l-9-8m35-7l-10-7m36-7l-11-7m36-8l-10-7m36-7l-11-7m37-8l-12-6m38-8l-13-6m39-9l-14-5m39-9l-13-5m39-10l-14-5m40-9l-15-5m41-10l-16-4m42-10l-17-4m42-11l-16-3m42-11l-17-4m43-11l-18-3m44-11l-19-3m45-12l-20-2m45-12l-19-2m45-13l-20-1m46-13l-21-2m47-13l-22-1m48-13l-23-1m48-14h-22m48-14h-23m49-15l-24 1m50-15h-25m51-15l-26 1m50-21l-50 21m48-27l-49 21m48-27l-50 21m48-26l-50 19m48-25l-50 19m49-25l-51 19m49-24l-50 17m49-23l-51 17m49-23l-51 17m49-23l-51 17m50-22l-51 15m49-21l-51 15m50-21l-52 15m50-20l-52 13m50-19l-51 13m50-19l-52 13m50-19l-52 13m50-18l-52 11m51-17l-53 11m51-17l-52 11m51-16l-53 9m51-15l-53 9m51-15l-53 9m52-15l-53 9m51-14l-53 7m52-13l-54 7m52-13l-54 7m52-12l-54 5m53-11l-54 5m52-11l-54 5m32-13l-32 13m11-15l-31 13m10-16l-31 13m10-15l-30 13m9-15l-29 13m8-16l-28 13m7-15l-27 13m6-15l-26 13m5-16l-26 14m5-16l-25 13m4-15l-24 13m3-16l-23 14m2-16l-22 14m1-16l-21 13m0-16l-21 14m0-16l-20 14m-1-17l-19 15m-2-17l-18 14m-3-16l-17 14m-4-17l-17 15m-4-17l-16 14m-5-16l-15 14m-6-17l-14 15m-7-17l-13 15m-8-17l-12 14m-9-17l-12 15m-9-17l-11 15M162 7l-10 15M141 4l-9 15M120 2l-8 15m0 0L18 676m0 0l730-411m0 0L697 83m0 0L112 17m-4 23l16-5m-19 28l15-5m-18 27l15-4m-18 27l15-4m-19 27l16-4m-19 26l15-4m-18 27l15-4m-18 27l15-4m-19 27l15-4m-18 26l15-3m-18 26l15-3m-18 26l15-3m-19 26l15-3m-18 25l15-2m-18 25l15-3m-18 26l15-3m-19 26l15-3m-18 25l15-2m-18 25l15-2m-18 25l14-2m-18 24l15-1m-18 24l15-1m-18 24l15-1m-18 24l14-1m-17 23l14-1m-18 24l15-1m-18 24l15-1m-18 24l14-1m8 9l-8-9m33-5l-8-9m33-5l-8-9m33-5l-9-9m35-6l-10-7m35-7l-10-7m35-7l-11-7m36-7l-11-7m36-7l-11-7m37-7l-13-7m38-8l-13-6m38-8l-13-6m38-8l-14-6m39-8l-14-5m40-9l-15-5m40-10l-16-4m41-10l-16-4m41-10l-16-4m41-10l-16-4m42-10l-18-4m43-10l-18-4m43-11l-18-2m43-12l-19-2m44-12l-19-2m45-12l-20-2m45-12l-21-2m46-12l-21-2m46-13l-21-1m45-19l-45 19m43-25l-45 18m43-25l-45 19m43-25l-45 18m43-24l-45 17m44-24l-46 17m44-23l-46 16m44-22l-46 16m44-22l-46 15m45-22l-47 15m45-21l-47 14m45-20l-47 13m45-20l-46 13m45-19l-47 13m45-19l-47 12m45-18l-47 11m45-18l-47 11m45-17l-47 10m46-16l-48 9m46-16l-48 10m46-16l-48 9m46-15l-48 8m47-14l-49 7m47-14l-49 7m47-13l-49 7m47-13l-49 6m47-13l-48 6m47-12l-49 5m27-13l-27 13m6-16l-26 14m6-16l-25 14m5-16l-25 14m5-17l-24 14m4-16l-24 14m4-16l-23 14m2-16l-22 14m2-17l-21 15m1-17l-21 14m1-16l-20 14m0-16l-20 14m0-17l-19 15m-2-17l-18 15m-2-17l-17 14m-3-16l-17 14m-3-17l-16 15m-4-17l-16 15m-5-17l-14 15m-6-18l-14 16m-6-18l-13 15m-7-17l-13 15m-7-17l-12 15m-8-18l-11 16m-10-18l-10 16m-10-18l-9 15m-11-17l-9 15m-11-18l-8 16m0 0L35 653m0 0l667-375m0 0L650 94m0 0L124 35m-4 23l15-5m-18 28l15-4m-18 27l15-4m-18 27l14-4m-18 26l15-3m-18 26l15-3m-18 26l14-3m-18 26l15-3m-18 26l15-3m-18 26l15-3m-18 26l14-3m-18 26l15-3m-18 26l15-3m-18 25l14-2m-17 25l14-2m-18 25l15-2m-18 25l15-2m-18 25l14-2m-18 25l15-2m-18 25l15-2m-18 25l14-2m-17 25l14-1m-18 24l15-1m-18 23h15m-18 23h14m-17 23h14m7 9l-7-9m32-5l-8-9m32-5l-8-9m33-4l-8-9m33-5l-9-9m33-5l-9-8m34-6l-10-8m35-6l-11-8m35-6l-10-7m35-7l-11-7m36-7l-12-6m36-8l-12-6m37-7l-12-7m37-7l-13-6m37-8l-13-6m38-8l-14-6m39-8l-15-5m40-9l-15-5m39-9l-15-4m40-10l-16-4m41-9l-17-5m41-9l-17-4m42-10l-17-4m42-10l-18-4m42-10l-18-3m43-11l-19-3m42-18l-42 18m40-24l-42 17m40-24l-42 17m40-24l-42 16m40-23l-42 16m40-23l-42 16m40-22l-42 14m40-21l-42 14m40-21l-42 14m40-21l-42 13m40-20l-42 13m41-20l-43 13m41-19l-43 11m41-18l-44 11m42-18l-44 11m42-18l-44 11m42-18l-44 10m42-17l-44 10m42-16l-44 9m42-16l-44 8m42-15l-44 8m42-15l-44 8m42-15l-44 7m42-13l-44 6m42-13l-44 6m43-13l-45 5m23-14l-23 14m4-16l-23 14m3-16l-22 14m3-17l-22 15m2-17l-21 15m2-17l-21 15m1-17l-19 15m0-17l-19 15m-1-18l-18 15m-1-17l-18 15m-2-17l-17 15m-2-17l-17 15m-3-17l-16 15m-3-18l-15 16m-5-18l-14 16m-5-18l-14 16m-6-18l-13 16m-6-18l-13 15m-7-17l-12 15m-7-18l-12 16m-8-18l-10 16m-9-18l-10 16m-9-18l-10 16m-10-18l-9 16m-10-19l-9 17m-11-19l-8 16m0 0L53 630m0 0l605-341m0 0l-51-183m0 0L135 53m-3 24l15-4m-18 27l15-4m-19 27l15-4m-18 27l15-4m-18 27l15-4m-19 27l15-3m-18 26l15-3m-18 26l15-3m-18 26l14-3m-18 26l15-3m-18 26l15-2m-18 25l14-2m-18 25l15-2m-18 25l15-2m-18 25l14-2m-17 25l14-2m-18 25l15-1m-18 24l15-1m-18 24l14-1m-18 24l15-1m-18 25l15-2m-18 25l14-1m-17 24l14-1m-18 24l15-1m6 10l-6-10m30-4l-7-9m32-4l-8-10m32-4l-8-9m32-4l-8-10m32-4l-9-9m33-5l-9-8m34-5l-10-9m34-5l-10-8m34-5l-11-8m35-6l-11-8m36-6l-12-7m36-6l-12-7m36-7l-13-7m37-7l-13-6m37-7l-13-6m38-8l-14-6m38-7l-15-6m39-8l-15-6m39-8l-15-5m39-8l-15-5m40-9l-17-5m41-9l-17-4m41-9l-17-4m39-17l-39 17m37-24l-39 16m37-24l-39 16m37-23l-40 15m38-22l-40 15m38-23l-40 15m38-22l-40 14m38-21l-40 13m38-21l-41 13m39-20l-41 13m39-20l-41 12m39-20l-41 12m38-19l-40 11m38-18l-41 11m39-18l-41 10m39-18l-41 10m39-17l-41 9m39-16l-41 8m39-16l-42 9m40-16l-42 8m40-15l-42 7m40-15l-42 7m40-14l-42 7m40-14l-43 6m22-16l-22 16m3-18l-21 16m2-18l-20 16m1-18l-19 16m0-18l-19 16m1-18l-19 16m0-18l-18 15m-1-18l-17 16m-2-18l-17 16m-2-18l-16 16m-3-18l-15 16m-4-18l-14 16m-4-18l-14 16m-5-18l-14 16m-5-18l-13 16m-6-18l-12 16m-7-19l-11 17m-8-19l-11 17m-8-19l-10 17m-8-19l-10 17m-9-19l-9 17m-10-19l-9 17m-10-19l-8 17m-11-19l-7 17m0 0L71 606m0 0l546-307m0 0l-51-179m0 0L147 73m-3 23l14-4m-18 27l15-4m-18 27l14-3m-17 26l14-3m-18 27l15-4m-18 27l14-3m-17 26l14-3m-18 26l15-3m-18 26l14-2m-17 26l14-3m-18 26l15-2m-18 25l14-2m-17 25l14-2m-18 25l15-1m-18 24l14-1m-17 25l14-2m-17 25l14-1m-18 24l14-1m-17 24l14-1m-17 24h14m-18 24l14-1m-17 24l14-1m6 11l-6-11m30-3l-7-10m31-3l-7-10m31-4l-8-9m31-4l-8-9m32-4l-8-9m32-5l-9-8m33-5l-9-9m32-4l-9-9m33-5l-10-8m34-5l-10-8m34-5l-11-8m34-6l-11-7m35-6l-11-7m35-6l-12-8m36-6l-13-7m36-6l-12-7m36-7l-13-6m37-7l-13-6m37-7l-14-6m37-8l-14-5m38-8l-14-6m36-15l-36 15m34-23l-37 15m34-23l-36 15m34-22l-36 14m34-22l-37 14m35-22l-37 13m35-21l-37 13m34-21l-37 13m35-20l-37 12m35-20l-37 11m35-19l-38 11m36-19l-38 11m35-18l-37 10m35-18l-38 10m36-18l-38 9m36-17l-38 9m36-17l-39 9m36-16l-38 8m36-16l-38 7m36-15l-39 7m37-15l-39 7m37-14l-39 6m18-16l-18 16m0-18l-18 16m0-18l-18 16m-1-18l-16 16m-2-18l-16 16m-2-19l-16 17m-2-19l-15 17m-4-19l-14 17m-4-19l-14 17m-4-19l-14 17m-4-19l-13 17m-5-19l-13 17m-6-19l-12 17m-6-19l-11 17m-7-19l-11 17m-7-19l-11 17m-8-19l-9 17m-9-19l-9 17m-9-19l-9 17m-9-19l-9 17m-10-19l-7 17m-11-19l-7 17m0 0L88 582m0 0l491-276m0 0l-49-172m0 0L158 92m-3 23l14-3m-18 27l15-4m-18 27l14-3m-17 26l14-3m-18 27l15-3m-18 26l14-3m-17 26l14-2m-18 26l14-3m-17 26l14-2m-17 26l14-2m-18 25l14-2m-17 25l14-1m-17 25l14-2m-18 25l14-1m-17 24l14-1m-17 25l14-1m-18 24l14-1m-17 24h14m-17 24l13-1m-17 24h14m6 10l-6-10m30-3l-7-10m30-3l-7-10m30-3l-7-10m31-3l-8-10m31-3l-8-10m32-4l-9-9m32-4l-9-9m32-4l-9-9m33-4l-10-9m33-4l-10-9m33-4l-10-8m34-5l-11-8m34-6l-11-7m34-6l-11-7m35-6l-12-7m35-6l-12-7m36-6l-13-7m36-6l-13-7m36-6l-13-7m34-15l-34 15m32-23l-34 14m32-22l-35 14m32-22l-34 13m32-22l-35 13m33-21l-35 13m32-21l-34 12m32-20l-35 11m33-20l-35 12m32-20l-35 11m33-19l-35 10m33-18l-36 10m33-18l-35 9m33-18l-36 9m34-17l-36 9m33-17l-35 8m33-16l-36 7m34-16l-36 8m33-16l-36 7m34-15l-36 6m16-16l-16 16m-2-18l-15 16m-2-18l-16 16m-2-18l-15 17m-3-19l-14 17m-3-19l-14 17m-4-19l-13 17m-5-19l-13 17m-5-19l-12 17m-5-19l-12 17m-6-19l-11 17m-7-19l-10 17m-7-19l-11 17m-7-19l-10 17m-8-19l-9 17m-8-19l-9 17m-9-19l-8 17m-10-19l-8 18m-10-20l-7 18m-10-20l-7 18m0 0l-64 447m0 0l437-246m0 0l-46-165m0 0l-327-36m-3 23l14-3m-18 27l15-3m-18 26l14-2m-17 26l14-3m-18 26l14-2m-17 26l14-2m-18 25l15-2m-18 26l14-2m-17 26l14-2m-18 25l14-2m-17 26l14-2m-17 25l14-1m-18 25l14-2m-17 25l14-1m-17 25l14-1m-18 24l14-1m-17 25l14-1m-18 24h14m6 11l-6-11m29-2l-6-11m29-2l-6-11m29-2l-7-10m30-3l-7-10m30-3l-8-10m31-3l-8-10m31-3l-8-9m31-4l-9-9m32-4l-9-9m32-3l-9-9m32-4l-10-9m33-4l-10-9m33-4l-11-9m34-4l-11-8m34-5l-11-8m34-5l-12-8m35-5l-12-7m33-15l-33 15m30-23l-33 13m31-22l-33 13m30-22l-33 13m31-21l-33 12m31-21l-34 12m31-21l-34 12m32-20l-34 11m31-20l-34 11m32-20l-34 11m31-19l-34 10m32-19l-34 10m31-19l-34 9m32-17l-34 8m32-17l-35 8m32-17l-35 8m33-16l-35 7m32-16l-35 7m16-18l-16 18m-2-20l-14 18m-3-19l-14 17m-3-19l-14 17m-3-19l-13 18m-4-20l-13 18m-5-20l-12 18m-5-20l-11 18m-6-20l-11 18m-6-20l-11 18m-6-20l-10 18m-8-20l-9 18m-8-20l-9 19m-8-21l-8 19m-9-21l-8 19m-9-21l-8 19m-10-20l-6 18m-11-20l-6 18m0 0l-58 403m0 0l385-216m0 0l-44-155m0 0l-283-32m-3 24l13-3m-17 27l14-3m-17 26l14-2m-18 26l14-2m-17 26l14-3m-17 26l13-2m-17 26l14-2m-17 26l14-2m-18 25l14-1m-17 25l14-1m-17 25l13-1m-17 24h14m-17 24l13-1m-16 25l13-1m-17 24h14m-17 24h13m6 11l-6-11m29-2l-6-10m28-2l-6-11m29-2l-7-11m29-2l-7-10m30-3l-7-10m30-2l-8-10m30-3l-8-10m31-3l-8-9m31-3l-9-10m31-3l-9-9m32-4l-9-9m31-4l-9-8m32-4l-10-9m33-4l-11-9m33-4l-10-8m30-14l-30 14m28-23l-31 13m28-22l-31 13m29-22l-31 12m28-21l-31 12m28-21l-31 11m29-20l-31 11m28-20l-31 10m29-19l-32 10m29-19l-31 9m29-18l-32 9m29-19l-32 9m30-18l-33 9m30-18l-32 8m29-17l-32 8m30-17l-33 7m14-18l-14 18m-3-20l-13 18m-4-20l-12 19m-4-20l-12 18m-5-20l-11 18m-6-20l-11 18m-5-20l-11 18m-6-20l-10 18m-7-20l-9 19m-7-21l-9 19m-8-21l-9 19m-8-20l-8 18m-8-20l-8 18m-9-20l-7 19m-10-21l-6 19m-10-21l-7 19m0 0l-51 358m0 0l335-188m0 0l-41-143m0 0l-243-27m-3 24l14-3m-17 27l13-3m-17 27l14-3m-17 26l13-2m-17 26l14-2m-17 26l13-2m-16 26l13-1m-17 25l14-1m-17 25l13-1m-17 25l14-1m-17 25l13-1m-17 24h14m-17 24h13m-16 24h13m6 12l-6-12m28-1l-6-11m28-2l-6-10m28-2l-6-11m29-2l-7-10m29-2l-7-11m29-2l-7-10m30-2l-8-10m30-3l-8-10m30-2l-8-10m31-3l-9-9m31-3l-9-10m31-3l-9-9m31-4l-9-9m29-13l-29 13m26-22l-29 12m27-22l-30 13m27-22l-30 12m27-22l-29 12m27-21l-30 11m27-21l-30 11m27-20l-30 10m28-20l-31 10m28-19l-30 9m27-19l-30 9m27-18l-30 8m28-18l-31 8m28-17l-31 7m12-19l-12 19m-4-20l-11 18m-5-20l-11 18m-5-20l-11 19m-6-21l-10 19m-6-21l-9 19m-7-21l-9 19m-7-20l-9 19m-7-21l-9 19m-8-21l-7 19m-9-21l-7 19m-9-21l-7 20m-9-21l-7 19m-9-21l-6 19m0 0l-45 313m0 0l286-161m0 0l-37-129m0 0l-204-23m-4 24l14-2m-17 26l13-2m-17 26l14-2m-17 26l13-1m-17 25l14-1m-17 26l13-2m-16 26l13-1m-17 25l13-1m-16 25l13-1m-17 25h13m-16 24h13m-17 24h14m5 12l-5-12m27 0l-6-12m28-1l-6-11m28-1l-6-11m28-2l-7-10m29-2l-7-11m29-1l-7-11m29-2l-8-10m30-2l-8-10m30-2l-8-11m30-2l-8-10m30-2l-9-10m28-13l-28 13m25-22l-28 12m25-22l-28 11m26-21l-29 11m26-21l-28 10m25-20l-28 10m25-20l-28 10m25-20l-28 9m26-19l-29 9m26-19l-29 8m26-18l-29 8m26-18l-29 8m11-20l-11 20m-5-22l-10 20m-6-21l-10 19m-6-21l-9 19m-6-21l-9 20m-7-22l-8 20m-8-21l-8 19m-8-21l-7 20m-8-22l-7 20m-9-22l-7 20m-9-21l-6 19m-10-21l-5 20m0 0l-38 267m0 0l238-134m0 0l-32-114m0 0l-168-19m-4 24l14-2m-17 26l13-1m-17 26l14-2m-17 26l13-1m-17 25l14-1m-17 26l13-1m-17 25l14-1m-17 25h13m-17 25l14-1m-17 25h13m5 12l-5-12m27 0l-5-12m27 0l-6-12m27 0l-6-12m28-1l-6-11m28-1l-7-11m28-1l-7-11m29-1l-7-11m29-2l-8-10m30-2l-9-10m27-12l-27 12m24-23l-27 12m24-22l-27 11m25-22l-28 11m25-21l-28 11m25-21l-28 10m25-21l-28 10m25-20l-28 9m25-20l-28 9m25-19l-28 8m10-20l-10 20m-6-22l-9 21m-6-23l-9 21m-6-22l-9 20m-6-22l-8 21m-8-23l-7 21m-8-22l-7 20m-8-22l-7 21m-9-23l-5 21m-10-23l-5 21m0 0l-32 221m0 0l192-108m0 0l-27-98m0 0l-133-15m-4 25l13-2m-16 26l13-1m-17 26l13-1m-16 25h13m-17 25l13-1m-16 25h13m-17 25h13m-16 24l13 1m5 12l-5-12m26 0l-5-12m26 0l-5-12m27 0l-6-12m27 0l-6-12m27 0l-6-11m28-1l-7-11m28-1l-7-11m25-12l-25 12m22-23l-25 12m22-23l-25 11m22-21l-26 10m23-21l-26 10m23-21l-26 9m23-20l-26 9m23-20l-26 9m8-21l-8 21m-7-23l-8 21m-7-23l-7 21m-7-22l-7 21m-8-23l-7 21m-8-23l-6 21m-9-22l-5 21m-9-23l-6 21m0 0l-24 174m0 0l147-83m0 0l-22-79m0 0l-101-12m-3 25l13-1m-17 26l13-1m-16 26l13-1m-17 25h13m-16 25h12m-16 25h13m5 13l-5-13m26 1l-5-12m26 0l-6-12m27 0l-6-12m27 1l-6-12m27 0l-6-12m24-11l-24 11m21-23l-25 11m21-22l-24 10m21-21l-24 9m21-21l-25 10m22-21l-25 9m7-22l-7 22m-7-24l-7 22m-7-23l-7 22m-8-24l-6 22m-8-24l-5 22m-9-23l-5 22m0 0l-18 125m0 0l104-58m0 0l-17-59m0 0l-69-8m-4 25h13m-16 25h12m-16 25h13m-17 25h13m5 14l-5-14m25 2l-5-13m26 1l-5-12m26 1l-6-13m23-11l-23 11m20-23l-24 11m21-23l-24 11m20-22l-24 9m7-23l-7 23m-7-24l-6 23m-8-25l-5 23m-8-25l-5 24m0 0l-11 75m0 0l61-34m0 0l-11-37m0 0l-39-4m-4 25h13m-16 25l12 1m4 13l-4-13m25 2l-5-13m21-11l-21 11m18-23l-22 10m5-24l-5 24m-8-26l-4 24m0 0l-4 26m0 0l20-11m0 0l-4-13m0 0l-12-2" fill="none" stroke="#00f"/></svg>