<svg xmlns="http://www.w3.org/2000/svg" width="800pt" height="700pt" viewBox="0 0 800 700"><path d="M100 0L0 700m0 0l800-450m0 0L750 73m0 0L100 0" fill="none" stroke="#000"/><path d="M50 350l158-24m192 149L208 326m567-165L208 326M425 36L208 326M75 175l136-60m-82 223l82-223m105 66l-105-66m51-97l-51 97M87 87l55-18m1 76l-1-76m95-3l-95 3m39-60l-39 60M93 43l31-12m-10 47l10-47m37 8l-37-8m16-27l-16 27M96 21l15-5m-2 21l2-21m21 2l-21-2m9-14l-9 14m-10 66l4-23m14-4l-14 4m4-22l-4 22m-15 6l15-6m46-5l-17-5m9-14l-9 14m-15 6l15-6m-6 24l6-24m26-43l-7 15m-21-3l21 3m-10 14l10-14m18 3l-18-3m-44 139l1-36m32-17l-32 17m4-46l-4 46m-29 7l29-7m-18 43v-18m17-7l-17 7m3-22l-3 22m-14 4l14-4m51-23l-16 8m-1-19l1 19m-18 8l18-8m-1 18l1-18m1-61l-2 23m-14 5l14-5m0 19V96m16-8l-16 8m-42 13l14-3m-3 21l3-21m14-5l-14 5m3-24l-3 24m126-15l-51 4m16-28l-16 28m-31 12l31-12m4 35l-4-35m45 8l-27 2m8-12l-8 12m-16 7l16-7m3 17l-3-17m22-38l-9 13m-23 1l23-1m-5 13l5-13m26-2l-26 2m-62 8l16-7m0 20V81m23 0h-23m7-13l-7 13m2 56l-1-17m16-8l-16 8m-1-19l1 19m-16 6l16-6m62-107l-21 28m-39-2l39 2m-11 26l11-26m49 1l-49-1m42-26l-11 14m-20-2l20 2m-6 13l6-13m25 1l-25-1m-60-5l20 1m-10 15l10-15m20 2l-20-2m10-14l-10 14m-26 43l6-13m24-1l-24 1m10-15l-10 15m-20-1l20 1m72-1h-25m7-12l-7 12m-23 0h23m-5 13l5-13M89 344l37-124m44 6l-44-6m17-75l-17 75m-64 42l64-42M69 347l18-64m21-1l-21 1m7-42l-7 42m-31 23l31-23m-28 65l9-32m10-1l-10 1m4-22l-4 22m-15 12l15-12m30-3H88m10-30l-10 30m-10 2l10-2m-9 32l9-32m22-82l-3 21m-16 10l16-10m-9 31l9-31m10-1l-10 1m-48 32l15-11m-2 21l2-21m17-11l-17 11m4-21l-4 21m75 9l-20-5m19-54l-19 54m-21 5l21-5m-20 64l20-64m10 33l-10-3m10-28l-10 28m-10 2l10-2m-10 32l10-32m30-82l-9 27m-11-2l11 2m-11 27l11-27m10 2l-10-2m-33-1l11-2m-9 30l9-30m11 1l-11-1m9-27l-9 27m-29 93l10-32m10-1l-10 1m10-31l-10 31m-11 3l11-3m68-180l-8 39m-34 13l34-13m-21 54l21-54m22 2l-22-2m25-47l-4 20m-17 8l17-8m-10 28l10-28m11 1l-11-1m-51 22l17-7m-4 19l4-19m17-7l-17 7m4-20l-4 20m-19 65l11-27m11 1l-11-1m4-19l-4 19m-17 6l17-6m32 4l-11-1m11-28l-11 28m-10-2l10 2m-10 27l10-27M68 218l31-18m-5 41l5-41m36-18l-36 18m10-40l-10 40m-28-4l16-9m-4 22l4-22m17-7l-17 7m5-20l-5 20m-9 65l2-21m16-10l-16 10m3-22l-3 22m-15 9l15-9m51-30l-19 9m5-19l-5 19m-16 11l16-11m-2 21l2-21m14-58l-5 20m-17 8l17-8m-4 19l4-19m18-8l-18 8m141 82l-39-45m41-61l-41 61m-53 17l53-17m-55 123l55-123m12 81l-16-25m24-33l-24 33m-23 6l23-6m-31 64l31-64m2 43l-7-13m13-17l-13 17m-11 2l11-2m-16 33l16-33m38-52l-12 17m-9-12l9 12m-13 18l13-18m8 12l-8-12m-31-20l11-2m-13 30l13-30m11 10l-11-10m13-18l-13 18m-42 93l16-33m9-1l-9 1m13-30l-13 30m-12 3l12-3m96-133l-20 34m-27-20l27 20m-27 33l27-33m19 19l-19-19m33-26l-10 17m-13-8l13 8m-14 18l14-18m10 9l-10-9m-39-27l13 10m-10 16l10-16m13 9l-13-9m10-17l-10 17m-34 47l13-16m10 11l-10-11m11-15l-11 15m-13-10l13 10m30 32l-10-10m13-18l-13 18m-10-11l10 11m-14 17l14-17m-75-55l23-6m-17 53l17-53m29 14l-29-14m23-34l-23 34m-13-22l12-4m-11 29l11-29m13 9l-13-9m11-16l-11 16m-30 83l9-26m13-5l-13 5m10-28l-10 28m-12 3l12-3m41-2l-15-6m11-16l-11 16m-13 3l13-3m-8 26l8-26m33-48l-12 16m-13-8l13 8m-10 16l10-16m15 7l-15-7m-91 179l28-65m20 1l-20-1m21-52l-21 52m-27 12l27-12m-37 67l13-33m10-1l-10 1m11-28l-11 28m-13 6l13-6m30-3h-10m14-31l-14 31m-10 2l10-2m-14 33l14-33m38-87l-10 26m-14 4l14-4m-14 30l14-30m9 0h-9m-40 14l13-5m-10 27l10-27m13-5l-13 5m10-27l-10 27M343 27l-21 60m-85-21l85 21m-58 61l58-61m48 22l-48-22m62-56l-11 29m-40-3l40 3m-27 38l27-38m24 12l-24-12m31-26l-5 14m-21-2l21 2m-14 18l14-18m12 6l-12-6m-61-6l20 2m-5 15l5-15m20 2l-20-2m6-15l-6 15m-24 49l13-20m12 6l-12-6m6-14l-6 14m-20-1l20 1m37 17l-12-6m13-18l-13 18m-13-5l13 5m-14 19l14-19M249 42l45 10m-15 25l15-25m39 5l-39-5m9-30l-9 30m-38-22l22 5m-6 12l6-12m20 2l-20-2m4-15l-4 15m-20 37l8-13m21 5l-21-5m6-12l-6 12m-23-5l23 5m61 13l-19-2m5-16l-5 16m-21-6l21 6m-7 12l7-12m15-45l-4 14m-21-2l21 2m-6 15l6-15m19 3l-19-3m-82 92l30-28m26 15l-26-15m12-26l-12 26m-43-12l43 12m-43 20l15-14m13 8l-13-8m7-12l-7 12m-21-6l21 6m39 24l-13-7m15-16l-15 16m-13-9l13 9m-14 14l14-14m36-44l-7 13m-21-5l21 5m-14 15l14-15m13 8l-13-8m-64-17l22 7m-6 12l6-12m21 5l-21-5m6-13l-6 13m91 60l-26-10m29-37l-29 37m-24-17l24 17m-27 30l27-30m13 28l-13-5m13-18l-13 18m-14-8l14 8m-14 15l14-15m41-55l-15 19m-12-5l12 5m-13 18l13-18m14 5l-14-5m-36-19l12 8m-14 15l14-15m12 6l-12-6m15-18l-15 18m-42 45l13-15m13 9l-13-9m15-15l-15 15m-12-8l12 8m-90 446l-43-55m147-132L157 532m-28-194l28 194m-132-7l132 7m-57 111l-39-33m117-50L61 610m30-82l-30 82m-49 2l49-2m-11 61l-14-14m44-31l-44 31m1-46l-1 46m-30-1l30 1m-11 28l-9-8m27-13l-27 13m5-21l-5 21m-13 1l13-1m74-42l-21 13m-11-6l11 6m-26 16l26-16m6 9l-6-9m-20-38l1 24m-14 0h14m8 8l-8-8m21-16l-21 16m-41 0l14 2m-2 20l2-20m13-2l-13 2m1-25l-1 25m166-63l-64 31m-5-19l5 19m-45 22l45-22m25 11l-25-11m69-24l-32 16m-5-8l5 8m-25 13l25-13m13 5l-13-5m-13-24l2 10m-28 12l28-12m6 6l-6-6m33-16l-33 16m-80 36l23-12m9 9l-9-9m29-12l-29 12m-4-9l4 9m31 23l-12-6m24-14l-24 14m-10-8l10 8m-23 12l23-12m11-93l-20 39m-28 0h28m16 16l-16-16m64-23l-64 23m37-38l-12 19m-15 0h15m7 7l-7-7m34-11l-34 11m-46-1l16-2m-9 22l9-22m15 3l-15-3m9-18l-9 18m-9 50l-6-7m28-13l-28 13m6-21l-6 21m-15-1l15 1m89-37l-34 13m-3-9l3 9m-27 11l27-11m10 6l-10-6m-121 2l30-6m-11 49l11-49m28 7l-28-7m10-36l-10 36m-27-16l15-2m-3 21l3-21m17 0H36m5-19l-5 19m-12 67l6-25m12 0H30m3-21l-3 21m-15 4l15-4m39 3l-14-4m7-20l-7 20m-13 1l13-1m-6 25l6-25m19-58l-4 19m-17-2l17 2m-8 19l8-19m13 3l-13-3m282-109l-63 48m-58-19l58 19m-111 75l111-75m11 46l-11-46m87-29l-33 27m-23-22l23 22m-49 25l49-25m7 20l-7-20m45-18l-17 13m-12-9l12 9m-25 15l25-15m4 11l-4-11m-35-29l12 11m-17 12l17-12m11 9l-11-9m16-13l-16 13m-57 36l24-12m3 11l-3-11m16-12l-16 12m-11-11l11 11m10 33l-4-10m25-14l-25 14m-3-12l3 12m-24 12l24-12m-54-74l26 11m-33 32l33-32m27 17l-27-17m35-25l-35 25m-8-27l13 5m-18 16l18-16m12 9l-12-9m18-12l-18 12m-53 49l16-16m15 5l-15-5m19-17l-19 17m-12-5l12 5m43 18l-14-9m16-12l-16 12m-14-4l14 4m-16 16l16-16m50-36l-18 12m-12-9l12 9m-16 12l16-12m14 9l-14-9M168 546l57-40m9 16l-9-16m35-30l-35 30m-31-7l31 7m-62 33l28-20m5 7l-5-7m18-17l-18 17m-15-3l15 3m15 22l-4-9m27-18l-27 18m-6-6l6 6m-29 21l29-21m72-52l-18 16m-14-5l14 5m-27 18l27-18m5 8l-5-8m-44-13l15 3m-18 16l18-16m15 5l-15-5m18-15l-18 15m23 73l-2-24m46-27l-46 27m-14-13l14 13m-59 38l59-38m-23 38l-1-12m25-14l-25 14m-6-7l6 7m-30 19l30-19m73-42l-24 14m-2-12l2 12m-24 14l24-14m2 12l-2-12m-12-29l7 6m-27 19l27-19m3 11l-3-11m23-14l-23 14m-84 56l29-19m5 7l-5-7m28-18l-28 18m-7-6l7 6m-45-215l32 104m-57-1l57 1m31 30l-31-30m56-73l-56 73m-12-107l21 54m-25 1l25-1m19 17l-19-17m23-38l-23 38m-11-55l12 27m-11 1l11-1m11 9l-11-9m10-19l-10 19m-34 3l13 2m8 23l-8-23m10-4l-10 4m-11-29l11 29m25 58l-11-9m16-18l-16 18m-6-26l6 26m-11 1l11-1m41-55l-11 17m-12-7l12 7m-14 20l14-20m9 10l-9-10m-97 16l27 6m8 42l-8-42m21-9l-21 9m-15-58l15 58m-31-31l14 4m3 24l-3-24m10-2l-10 2m-7-29l7 29m11 69l-5-21m15 0h-15m-3-24l3 24m-13-3l13 3m40-4l-11 4m-8-25l8 25m-14 0h14m5 21l-5-21m-23-80l8 29m-10 1l10-1m7 26l-7-26m10-5l-10 5m28 136l-21-17m42-31l-42 31m-2-47l2 47m-23 2l23-2m3 34l-9-8m17-17l-17 17m-5-25l5 25m-13 0h13m56-49l-22 17m-7-10l7 10m-17 15l17-15m11 7l-11-7m-15-41l-1 23m-13 1l13-1m9 8l-9-8m23-15l-23 15m-38 1l12-3m3 27l-3-27m13 3l-13-3m-2-21l2 21m121-74l-27 29m-25-11l25 11m-38 40l38-40m14 22l-14-22m39-20l-14 16m-11-10l11 10m-18 15l18-15m7 10l-7-10m-36-26l12 7m-13 17l13-17m13 9l-13-9m14-15l-14 15m-46 55l19-20m7 8l-7-8m14-18l-14 18m-13-5l13 5m22 27l-6-11m17-17l-17 17m-9-8l9 8m-20 20l20-20m-206-2l56 22m-2 69l2-69m50-24l-50 24m-4-115l4 115m-50-66l27 14m-5 41l5-41m21-5l-21 5m-1-60l1 60m-24-36l13 8m-3 21l3-21m11-2l-11 2m0-31v31m-8 64l2-21m14 6l-14-6m3-22l-3 22m-13-7l13 7m39 8l-10 3m-2-29l2 29m-15-5l15 5m-3 21l3-21m-3-88l1 31m-10 1l10-1m0 28v-28m10-3l-10 3M58 526l-1-37m35 5l-35-5m8-41l-8 41m-26-8l26 8m-16 36v-18m16 1l-16-1m3-22l-3 22m-13-4l13 4m50 4l-17-2m1-18l-1 18m-17-1l17 1m0 18v-18m5-55l-4 20m-14-5l14 5m0 17v-17m18 3l-18-3m-41-15l13 4m-3 22l3-22m14 6l-14-6m4-20l-4 20m103 21l-23 9m-9-46l9 46m-35 1l35-1m-3 37l3-37m27 15l-12 5m-3-25l3 25m-17-1l17 1m-1 18l1-18m-11-72l4 23m-13 6l13-6m4 24l-4-24m12-5l-12 5m-42 13l17-1m-1 17l1-17m12-6l-12 6m-4-23l4 23m-2 53l1-18m16 1l-16-1m0-18v18m-18 0h18m0-170l4 60m-22 1l22-1m5 46l-5-46m23-14l-23 14m6-62l2 31m-10 1l10-1m3 24l-3-24m11-8l-11 8m-31 3h11m1 28l-1-28m10-2l-10 2m-2-31l2 31m5 80l-3-23m12-6l-12 6m-1-29l1 29m-11 0h11m36-19l-11 7m-4-24l4 24m-13 6l13-6m3 23l-3-23m659-213L446 336m45-92l-45 92m-142 64l142-64m154 26l-154-26m347-109l-184 77m8-33l-8 33m-86 45l86-45m91 2l-91-2m187-66l-95 42m0-14v14m-47 25l47-25m49-2l-49 2m97-36l-48 21m-1-6l1 6m-25 14l25-14m25-1l-25 1m-3-18l-1 7m-45 19l45-19m3 5l-3-5m49-21l-49 21m-114 51l24-14m22 1l-22-1m45-18l-45 18m-1-6l1 6m69 1h-23m23-13l-23 13m-24 0h24m-25 13l25-13m0-54l-10 18m-79 31l79-31m9 10l-9-10m98-40l-98 40m52-34l-5 9m-42 16l42-16m2 5l-2-5m50-20l-50 20m-124 48l40-16m-3 9l3-9m42-16l-42 16m4-9l-4 9m0 22l-4-5m46-19l-46 19m1-8l-1 8m-40 16l40-16m141-58l-50 20m-1-6l1 6m-45 19l45-19m5 5l-5-5M485 343l46-26m35 10l-35-10m82-30l-82 30m0-14v14m-66 22l23-12m20 3l-20-3m43-17l-43 17m1-7l-1 7m56 11l-18-5m22-11l-22 11m-18-3l18 3m-22 13l22-13m85-37l-40 14m1-8l-1 8m-23 12l23-12m17 5l-17-5m3-23l1 7m-44 16l44-16m-3 8l3-8m40-15l-40 15m75 40l-40-2m44-27l-44 27m-44-5l44 5m-49 24l49-24m15 16l-20-1m25-14l-25 14m-19-3l19 3m-25 12l25-12m72-42l-22 14m-23-1l23 1m-25 14l25-14m20 1l-20-1m-67-4l22 3m-22 11l22-11m22 0h-22m22-13l-22 13m-68 34l25-12m19 4l-19-4m21-11l-21 11m-23-2l23 2m66-138l-44 49m-120 39l120-39m28 20l-28-20m192-68l-192 68m115-69l-26 25m-67 20l67-20m7 10l-7-10m100-35l-100 35m61-36l-13 13m-35 10l35-10m2 5l-2-5m50-17l-50 17m-104 31l34-11m-11 13l11-13m35-10l-35 10m12-12l-12 12m-19 30l-3-5m48-17l-48 17m11-12l-11 12m-34 10l34-10m145-51l-50 17m-1-6l1 6m-47 17l47-17m4 5l-4-5m-249 72l64-21m-15 25l15-25m67-19l-67 19m18-23l-18 23m-58 9l31-10m-5 11l5-11m36-11l-36 11m10-12l-10 12m-18 35l7-12m30-10l-30 10m6-12l-6 12m-32 10l32-10m94-29l-34 9m11-12l-11 12m-30 10l30-10m-7 13l7-13m31-35l-9 11m-35 10l35-10m-11 12l11-12m34-9l-34 9m-57 79l-10-10m82-32l-82 32m8-22l-8 22m-64 20l64-20m-32 27l-6-5m43-17l-43 17m6-12l-6 12m-31 10l31-10m127-49l-41 16m-7-5l7 5m-43 16l43-16m5 5l-5-5m-10-21l-4 11m-30 10l30-10m7 5l-7-5m41-16l-41 16m-92 29l31-9m-5 11l5-11m31-10l-31 10m5-12l-5 12m290-98l-100 36m1-13l-1 13m-81 31l81-31m18 8l-18-8m101-30l-50 18m-1-6l1 6m-42 16l42-16m9 4l-9-4m-2-18l-1 7m-48 17l48-17m2 5l-2-5m50-18l-50 18m-136 49l41-15m6 5l-6-5m47-17l-47 17m0-7v7m22 13l-8-4m42-16l-42 16m-8-4l8 4m-41 16l41-16M256 363l85-43m34 48l-34-48m128-30l-128 30m9-35l-9 35m-109 25l39-19m27 16l-27-16m74-24l-74 24m8-20l-8 20m-51 10l20-10m11 9l-11-9m35-10l-35 10m3-10l-3 10m37 27l-12-8m20-11l-20 11m-14-10l14 10m-21 9l21-9m78-34l-38 13m3-10l-3 10m-20 10l20-10m14 7l-14-7m9-29l-5 11m-34 10l34-10m-1 8l1-8m38-12l-38 12m30 78l-21-24m40-16l-40 16m-20-18l20 18m-38 22l38-22m4 32l-11-12m18-8l-18 8m-12-9l12 9m-19 11l19-11m55-24l-19 8m-9-12l9 12m-18 8l18-8m10 12l-10-12m-28-33l11 9m-22 11l22-11m8 12l-8-12m19-8l-19 8m-62 33l19-11m12 9l-12-9m21-11l-21 11m-10-9l10 9m170-49l-60 12m8-20l-8 20m-39 19l39-19m14 27l-14-27m55 0l-30 5m5-11l-5 11m-18 9l18-9m6 14l-6-14m15-33l-3 11m-33 7l33-7m-7 11l7-11m29-7l-29 7m-85 24l19-9m9 12l-9-12m33-8l-33 8m5-11l-5 11m25 37l-8-13m19-8l-19 8m-8-12l8 12m-19 9l19-9m35-83v18m-75 20l75-20m-15 23l15-23m60-15l-60 15m36-28l-1 9m-35 10l35-10m-5 11l5-11m31-8l-31 8m-108 31l38-11m-2 9l2-9m35-10l-35 10m0-8v8m-12 29l8-11m31-8l-31 8m2-9l-2 9m-38 10l38-10m93-23l-30 8m6-12l-6 12m-32 7l32-7m-7 11l7-11m56 132l-56-16m79-53l-79 53m-69-34l69 34m-92 35l92-35m6 44l-31-7m53-29l-53 29m-21-19l21 19m-43 17l43-17m6 21l-15-3m24-14l-24 14m-13-10l13 10m-22 8l22-8m76-43l-27 15m-14-4l14 4m-25 14l25-14m16 3l-16-3m-38-18l10 10m-23 8l23-8m14 4l-14-4m27-15l-27 15m-67 26l21-9m12 9l-12-9m23-9l-23 9m-10-9l10 9m176-82l-39 25m-38-5l38 5m-50 29l50-29m28 9l-28-9m58-22l-19 12m-19-3l19 3m-25 14l25-14m14 5l-14-5m-58-9l19 3m-19 13l19-13m20 3l-20-3m20-13l-20 13m-64 41l26-15m13 5l-13-5m19-13l-19 13m-20-2l20 2m41 13l-14-5m25-14l-25 14m-14-3l14 3m-25 15l25-15m-100-47l38 17m-39 16l39-16m35 7l-35-7m36-26l-36 26m-21-25l20 8m-18 9l18-9m19 4l-19-4m17-13l-17 13m-56 25l20-8m17 8l-17-8m18-8l-18 8m-19-9l19 9m52 20l-18-3m20-14l-20 14m-17-9l17 9m-19 8l19-8m58-40l-18 13m-19-3l19 3m-20 13l20-13m17 3l-17-3m-158 60l46-16m24 17l-24-17m36-18l-36 18m-35-19l35 19m-58 7l23-8m12 9l-12-9m17-8l-17 8m-17-10l17 10m36 27l-13-9m24-8l-24 8m-11-9l11 9m-22 8l22-8m65-26l-18 9m-17-9l17 9m-23 9l23-9m12 8l-12-8m-52-27l17 10m-18 8l18-8m18 8l-18-8m18-9l-18 9M587 54L425 180m-109 1l109-1m66 64l-66-64m337-63l-337 63M668 63l-98 57m-64-3l64 3m24 29l-24-29m186-25l-186 25m139-52l-55 26m-35-2l35 2m9 13l-9-13m99-10l-99 10m75-24l-29 13m-18-2l18 2m3 6l-3-6m51-5l-51 5m-56-5h21m-28 15l28-15m17 3l-17-3m24-12l-24 12m-49 36l-2-6m45-7l-45 7m23-15l-23 15m-19-2l19 2m140-19l-53 6m2-6l-2 6m-42 6l42-6m8 6l-8-6m-154-9l42-2m-51 35l51-35m30 8l-30-8m39-25l-39 25m-22-14l20-1m-19 16l19-16m21 2l-21-2m20-12l-20 12m-65 49l26-18m15 1l-15-1m20-15l-20 15m-22 2l22-2m47 6l-15-4m24-14l-24 14m-17-1l17 1m-26 17l26-17m68-41l-20 13m-20-3l20 3m-24 14l24-14m16 4l-16-4m-119 90l-6-12m79-18l-79 18m35-33l-35 33m-37-3l37 3m-36 20l-5-6m44-8l-44 8m22-15l-22 15m-17-1l17 1m126-25l-37 8m-9-6l9 6m-45 9l45-9m0 7v-7m3-30l-16 18m-17-1l17 1m4 6l-4-6m38-10l-38 10m-52-4l16 3m-18 15l18-15m19 0h-19m20-18l-20 18m257-30l-103 16m7-15l-7 15m-74 12l74-12m22 11l-22-11m104-11l-52 9m-1-6l1 6m-41 7l41-7m12 5l-12-5m1-19l-5 7m-45 7l45-7m3 6l-3-6m53-8l-53 8m-128 19l38-6m5 7l-5-7m45-6l-45 6m2-7l-2 7m22 20l-10-6m41-8l-41 8m-7-7l7 7m-38 6l38-6m-256-26l82-13m-81 85l81-85m54 21l-54-21m54-51l-54 51m-55-24l37-4m-23 34l23-34m45 2l-45-2m31-27l-31 27m-23-14l19-2m-14 18l14-18m20 2l-20-2m15-14l-15 14m-39 53l11-17m20-3l-20 3m14-18l-14 18m-18 2l18-2m63-5l-23-1m14-13l-14 13m-20 3l20-3m-11 17l11-17m43-39l-15 13m-20-2l20 2m-14 13l14-13m22 2l-22-2M343 181l41-45m27 2l-27-2m27-34l-27 34m-41 9l41-9m-54 45l20-22m14 0h-14m14-18l-14 18m-20 4l20-4m41 0l-13-1m19-21l-19 21m-14 1l14-1m-21 23l21-23m53-59l-13 17m-21 3l21-3m-21 21l21-21m13 1l-13-1m-61 11l20-4m-13 18l13-18m20-4l-20 4m14-18l-14 18m89 26l-24-13m37-30l-37 30m-31 2l31-2m-44 45l44-45m3 29l-11-7m20-16l-20 16m-14 0h14m-23 22l23-22m58-46l-18 15m-13-6l13 6m-20 15l20-15m12 6l-12-6m-43-10l15-1m-19 21l19-21m15 5l-15-5m19-15l-19 15m-62 65l23-23m13 0h-13m20-21l-20 21m-16 1l16-1M546 50l-27 27m-40-7l40 7m-40 29l40-29m28 9l-28-9m48-25l-14 13m-20-2l20 2m-20 16l20-16m14 5l-14-5m-61-7l21 3m-14 13l14-13m20 2l-20-2m13-14l-13 14m-48 40l20-14m14 5l-14-5m14-13l-14 13m-20-4l20 4m41 15l-14-5m21-16l-21 16m-13-5l13 5m-20 15l20-15M350 285l-16-25m124-48l-124 48m37-79l-37 79m-72-6l72 6m-55 46l-14-15m77-19l-77 19m33-34l-33 34m-30-1l30 1m-22 25l-5-7m34-11l-34 11m12-18l-12 18m-17-1l17 1m108-30l-41 10m-2-7l2 7m-33 9l33-9m9 6l-9-6m11-31l-18 17m-16-1l16 1m5 7l-5-7m40-9l-40 9m-50-3l18-1m-16 20l16-20m16 3l-16-3m14-16l-14 16m209-43l-56 19m-23-11l23 11m-77 25l77-25m1 17l-1-17m64-11l-28 10m-8-9l8 9m-35 10l35-10m1 8l-1-8m-28-22l11 6m-30 11l30-11m9 7l-9-7m28-10l-28 10m-100 36l39-13m4 7l-4-7m31-12l-31 12m-12-5l12 5m8 22v-9m35-10l-35 10m-4-6l4 6m-39 13l39-13m13-85l-13 41m-33-2l33 2m11 14l-11-14m57-26l-57 26m26-42l-4 22m-16-1l16 1m6 7l-6-7m26-14l-26 14m-46-2l15 3m-7 18l7-18m15-2l-15 2m8-22l-8 22m-11 45l-7-8m32-11l-32 11m11-19l-11 19m-15 0h15m92-36l-27 11m-10-6l10 6m-33 14l33-14m4 9l-4-9m-134 3l29 7m-20 32l20-32m34-5l-34 5m25-44l-25 44m-15-26l13 5m-12 17l12-17m15-1l-15 1m14-23l-14 23m-36 51l10-16m18 2l-18-2m14-18l-14 18m-14-3l14 3m53 1l-16 2m8-19l-8 19m-19-1l19 1m-11 16l11-16m30-61l-13 22m-13 0h13m-9 20l9-20m17-3l-17 3m424-64l-195 44m21-34l-21 34m-115 29l115-29m60 19l-60-19m198-33l-101 24m1-13l-1 13m-67 19l67-19m34 8l-34-8m103-19l-52 13m0-6v6m-34 10l34-10m18 3l-18-3m-2-18l-1 7m-48 11l48-11m3 5l-3-5m52-13l-52 13m-130 31l34-10m14 5l-14-5m48-10l-48 10m0-6v6m46 14l-16-4m35-10l-35 10m-16-5l16 5m-34 10l34-10m26-55l-16 17m-79 16l79-16m9 11l-9-11m103-22l-103 22m58-25l-8 9m-42 7l42-7m2 5l-2-5m52-12l-52 12m-124 23l40-8m-5 9l5-9m42-8l-42 8m8-8l-8 8m-6 23l-4-5m48-11l-48 11m5-9l-5 9m-40 8l40-8m149-34l-52 12m-1-6l1 6m-49 11l49-11m4 5l-4-5m-273 51l61-16m13 18l-13-18m80-14l-80 14m6-16l-6 16m-70 8l30-8m9 8l-9-8m43-8l-43 8m4-8l-4 8m24 25l-7-9m29-7l-29 7m-8-8l8 8m-30 8l30-8m98-21l-39 6m4-8l-4 8m-30 8l30-8m5 9l-5-9m12-25l-2 8m-43 8l43-8m-6 9l6-9m39-7l-39 7m13 59l-25-10m66-20l-66 20m-21-15l21 15m-62 15l62-15m-10 20l-13-5m36-10l-36 10m-8-7l8 7m-31 8l31-8m104-30l-33 10m-15-5l15 5m-35 10l35-10m12 5l-12-5m-41-18l12 8m-30 7l30-7m14 5l-14-5m32-10l-32 10m-90 22l32-7m8 8l-8-8m28-8l-28 8m-11-8l11 8" fill="none" stroke="#00f"/></svg>