<svg xmlns="http://www.w3.org/2000/svg" width="412" height="408"><path fill="red" d="M407.893 10.895v-.008a5.355 5.355 0 0 0-1.562-3.758 5.326 5.326 0 0 0-7.52.008 5.316 5.316 0 0 0 0 7.516 5.318 5.318 0 0 0 3.758 1.559 5.31 5.31 0 0 0 3.762-1.551 5.35 5.35 0 0 0 1.562-3.758v-.008z"/><path fill="none" stroke="#000" stroke-width="2" d="M308.908 10.895h88.735"/><path fill="red" d="M309.256 10.895v-.008a5.279 5.279 0 1 0 0 .016v-.008z"/><path fill="none" stroke="#000" stroke-width="2" d="M402.572 104.562V15.824"/><path fill="red" d="M407.854 109.492v-.012a5.282 5.282 0 0 0-1.547-3.73c-.992-.988-2.336-1.543-3.738-1.543s-2.746.559-3.73 1.551a5.281 5.281 0 0 0 3.73 9.015 5.275 5.275 0 0 0 5.285-5.273v-.008z"/><path fill="none" stroke="#000" stroke-width="2" d="M111.713 109.492h285.93"/><path fill="red" d="M111.93 109.492v-.012a5.145 5.145 0 0 0-10.294.012 5.144 5.144 0 0 0 5.143 5.145 5.143 5.143 0 0 0 5.151-5.137v-.008zm98.611 98.594v-.008a5.167 5.167 0 0 0-5.166-5.153 5.169 5.169 0 0 0-5.155 5.161 5.156 5.156 0 0 0 5.155 5.16 5.146 5.146 0 0 0 3.648-1.504 5.172 5.172 0 0 0 1.518-3.645v-.011z"/><path fill="none" stroke="#000" stroke-width="2" d="M106.783 203.156v-88.734m4.93 93.664h88.738"/><path fill="red" d="M111.891 208.086v-.008a5.09 5.09 0 0 0-1.5-3.605 5.105 5.105 0 0 0-8.714 3.613 5.106 5.106 0 0 0 10.214.012v-.012z"/><path fill="none" stroke="#000" stroke-width="2" d="M303.979 301.754V15.824"/><path fill="red" d="M309.135 306.684v-.008a5.19 5.19 0 0 0-1.516-3.641 5.155 5.155 0 0 0-7.289 7.294c.965.965 2.273 1.512 3.641 1.512s2.68-.539 3.648-1.504a5.205 5.205 0 0 0 1.516-3.645v-.008z"/><path fill="none" stroke="#000" stroke-width="2" d="M205.381 301.754v-88.738m4.93 93.668h88.738"/><path fill="red" d="M210.492 306.684v-.008c-.002-1.355-.543-2.656-1.502-3.613s-2.26-1.492-3.615-1.492a5.112 5.112 0 1 0 5.117 5.121v-.008z"/><path fill="none" stroke="#000" stroke-width="2" d="M387.705 23.637l14.117-12.098"/><path fill="red" d="M392.436 24.34v-.012a5.565 5.565 0 0 0-1.629-3.918 5.557 5.557 0 0 0-3.922-1.621 5.567 5.567 0 0 0-3.922 1.629 5.546 5.546 0 0 0 3.922 9.469 5.536 5.536 0 0 0 3.922-1.617 5.567 5.567 0 0 0 1.629-3.922v-.008z"/><path fill="none" stroke="#000" stroke-width="2" d="M82.807 24.34h298.925"/><path fill="red" d="M83.045 24.34v-.008a5.396 5.396 0 0 0-1.584-3.809 5.394 5.394 0 0 0-7.621.004c-1.01 1.012-1.578 2.383-1.578 3.812s.568 2.801 1.578 3.809c1.01 1.012 2.379 1.582 3.809 1.582s2.801-.566 3.812-1.574 1.58-2.379 1.584-3.809v-.007zm103.103 103.078v-.012a5.427 5.427 0 0 0-1.592-3.824 5.435 5.435 0 0 0-3.83-1.582 5.416 5.416 0 1 0 5.422 5.426v-.008z"/><path fill="none" stroke="#000" stroke-width="2" d="M79.172 126.484l26.215-16.132m-27.735 11.91v-92.77m5.155 97.926h92.771"/><path fill="red" d="M83.01 127.418v-.008c-.004-1.422-.568-2.781-1.574-3.785s-2.367-1.566-3.787-1.562a5.354 5.354 0 0 0 0 10.71c1.42 0 2.781-.562 3.787-1.562a5.363 5.363 0 0 0 1.574-3.785v-.008zm206.219 103.078v-.012a5.406 5.406 0 0 0-1.594-3.828c-1.016-1.016-2.391-1.582-3.828-1.582s-2.816.574-3.832 1.59-1.59 2.395-1.59 3.832.574 2.816 1.59 3.832 2.395 1.586 3.832 1.59a5.421 5.421 0 0 0 5.422-5.414v-.008z"/><path fill="none" stroke="#000" stroke-width="2" d="M182.016 229.328l22.183-20.168m-23.469 16.18v-92.77m5.155 97.926h92.769"/><path fill="red" d="M186.102 230.496v-.012a5.375 5.375 0 0 0-1.578-3.793 5.378 5.378 0 0 0-7.592.008 5.372 5.372 0 0 0 3.795 9.168 5.365 5.365 0 0 0 3.797-1.57 5.361 5.361 0 0 0 1.578-3.793v-.008z"/><path fill="none" stroke="#000" stroke-width="2" d="M386.885 328.418V29.492"/><path fill="red" d="M392.291 333.574v-.012c0-1.43-.57-2.805-1.586-3.816s-2.391-1.578-3.82-1.578c-1.438 0-2.809.57-3.82 1.586a5.391 5.391 0 0 0 0 7.64 5.385 5.385 0 0 0 3.82 1.586c1.43 0 2.805-.566 3.82-1.578s1.586-2.387 1.586-3.82v-.008z"/><path fill="none" stroke="#000" stroke-width="2" d="M284.861 332.172l18.149-24.199m-19.203 20.445v-92.77m5.156 97.926h92.769"/><path fill="red" d="M289.174 333.574v-.012a5.35 5.35 0 0 0-1.578-3.789c-1.004-1.004-2.367-1.566-3.789-1.566s-2.789.566-3.793 1.574a5.369 5.369 0 0 0 0 7.586 5.39 5.39 0 0 0 3.793 1.574 5.343 5.343 0 0 0 3.789-1.57 5.35 5.35 0 0 0 1.578-3.789v-.008zM159.426 39.066v-.012c-.002-1.508-.604-2.953-1.672-4.02s-2.516-1.664-4.025-1.66a5.69 5.69 0 0 0-4.02 9.711 5.692 5.692 0 0 0 4.02 1.672 5.696 5.696 0 0 0 5.697-5.684v-.007z"/><path fill="none" stroke="#000" stroke-width="2" d="M47.416 38.297l28.711-13.254M51.146 39.066h97.19"/><path fill="red" d="M51.369 39.066v-.012a5.62 5.62 0 0 0-5.627-5.61 5.627 5.627 0 0 0-3.971 1.645 5.628 5.628 0 0 0 0 7.95 5.624 5.624 0 0 0 7.948.007 5.623 5.623 0 0 0 1.65-3.973v-.007zm216.063 107.985v-.008a5.723 5.723 0 0 0-1.68-4.035 5.702 5.702 0 0 0-4.035-1.664 5.71 5.71 0 0 0-5.707 5.707c0 1.516.602 2.965 1.672 4.035s2.523 1.672 4.035 1.676c1.512 0 2.965-.598 4.035-1.668s1.676-2.52 1.68-4.031v-.012z"/><path fill="none" stroke="#000" stroke-width="2" d="M155.145 146.027l24.294-17.672m-25.705 13.297V44.465m5.399 102.586h97.189"/><path fill="red" d="M159.385 147.051v-.008a5.649 5.649 0 0 0-11.3.008c0 1.5.594 2.934 1.652 3.996a5.668 5.668 0 0 0 3.994 1.656 5.656 5.656 0 0 0 5.654-5.64v-.012zm216.023 107.988v-.012c0-1.512-.602-2.961-1.672-4.027s-2.523-1.668-4.031-1.664c-1.516 0-2.961.602-4.031 1.672s-1.672 2.52-1.672 4.031.602 2.961 1.672 4.031a5.73 5.73 0 0 0 4.031 1.672 5.704 5.704 0 0 0 5.703-5.695v-.008z"/><path fill="none" stroke="#000" stroke-width="2" d="M262.877 253.754l19.875-22.086m-21.031 17.969v-97.188m5.398 102.59h97.188"/><path fill="red" d="M267.377 255.039v-.012c0-1.5-.602-2.934-1.664-3.992a5.654 5.654 0 0 0-7.992 8 5.66 5.66 0 0 0 3.996 1.66 5.657 5.657 0 0 0 3.996-1.652 5.647 5.647 0 0 0 1.664-3.996v-.008z"/><path fill="none" stroke="#000" stroke-width="2" d="M370.604 361.484l15.46-26.504m-16.359 22.645v-97.187"/><path fill="red" d="M375.346 363.023v-.008a5.634 5.634 0 0 0-5.64-5.629c-1.5 0-2.93.594-3.984 1.652a5.634 5.634 0 0 0 0 7.972 5.633 5.633 0 0 0 7.968.004 5.622 5.622 0 0 0 1.656-3.98v-.011z"/><path fill="none" stroke="#000" stroke-width="2" d="M45.748 357.625V44.465m5.398 318.558h313.161"/><path fill="red" d="M51.221 363.023v-.008a5.467 5.467 0 0 0-5.478-5.465 5.476 5.476 0 0 0-3.867 9.343 5.481 5.481 0 0 0 7.738.004 5.465 5.465 0 0 0 1.607-3.863v-.011z"/><path fill="none" stroke="#000" stroke-width="2" d="M238.697 54.414l64.313-42.875"/><path fill="red" d="M243.443 55.262v-.008a6.018 6.018 0 0 0-1.77-4.254 6.032 6.032 0 0 0-4.258-1.758 6.021 6.021 0 0 0 0 12.04 5.999 5.999 0 0 0 4.258-1.758 6.001 6.001 0 0 0 1.77-4.25v-.012z"/><path fill="none" stroke="#000" stroke-width="2" d="M125.594 54.414l26.722-14.574m-22.609 15.422h102.045"/><path fill="red" d="M129.988 55.262v-.008a5.944 5.944 0 0 0-1.748-4.203 5.929 5.929 0 0 0-4.207-1.738c-1.578 0-3.09.629-4.205 1.746a5.952 5.952 0 0 0 4.205 10.156c1.576 0 3.09-.625 4.207-1.738s1.746-2.625 1.748-4.203v-.012z"/><path fill="none" stroke="#000" stroke-width="2" d="M351.799 167.52l50.023-57.168"/><path fill="red" d="M356.838 168.648v-.012a6.018 6.018 0 0 0-1.773-4.254 6.013 6.013 0 0 0-8.516.008 6.022 6.022 0 0 0 0 8.52 6.01 6.01 0 0 0 4.258 1.766 6.026 6.026 0 0 0 6.031-6.016v-.012z"/><path fill="none" stroke="#000" stroke-width="2" d="M238.697 167.52l21.864-19.438m-23.137 14.898V60.934m5.672 107.714h102.047"/><path fill="red" d="M243.393 168.648v-.012a5.965 5.965 0 0 0-5.977-5.961 5.967 5.967 0 0 0-5.961 5.973c0 1.582.625 3.102 1.742 4.223a6.005 6.005 0 0 0 4.219 1.75 5.965 5.965 0 0 0 5.977-5.961v-.012z"/><path fill="none" stroke="#000" stroke-width="2" d="M351.799 280.621l17.008-24.293m-17.996 20.039V174.316"/><path fill="red" d="M356.775 282.035v-.012a5.971 5.971 0 0 0-5.969-5.953 5.957 5.957 0 0 0-5.961 5.965 5.957 5.957 0 0 0 5.961 5.965 5.971 5.971 0 0 0 5.969-5.953v-.012z"/><path fill="none" stroke="#000" stroke-width="2" d="M12.49 280.621l92.897-71.461m-89.065 72.875h328.821"/><path fill="red" d="M16.422 282.035v-.012a5.767 5.767 0 0 0-5.775-5.758 5.764 5.764 0 0 0-5.764 5.769 5.764 5.764 0 0 0 5.764 5.769 5.77 5.77 0 0 0 5.775-5.762v-.006z"/><path fill="none" stroke="#000" stroke-width="2" d="M125.594 393.723l78.605-85.75m-80.16 81.777V60.934"/><path fill="red" d="M129.814 395.422v-.012a5.78 5.78 0 0 0-9.863-4.075 5.78 5.78 0 0 0 0 8.168 5.775 5.775 0 0 0 4.082 1.691 5.772 5.772 0 0 0 5.781-5.766v-.006z"/><path fill="none" stroke="#000" stroke-width="2" d="M12.49 393.723l31.582-29.153m-33.42 25.18V287.703m5.67 107.719h102.047"/><path fill="red" d="M16.355 395.422v-.012a5.7 5.7 0 0 0-5.709-5.691 5.7 5.7 0 0 0-5.697 5.703c0 1.511.6 2.961 1.668 4.031a5.728 5.728 0 0 0 4.029 1.672 5.701 5.701 0 0 0 4.033-1.668 5.698 5.698 0 0 0 1.676-4.027v-.008z"/></svg>