<svg xmlns="http://www.w3.org/2000/svg" width="630" height="477"><path fill="red" stroke="#000" d="M60.85 186.507L53.052 200l7.794 13.5 15.592.007 7.793-13.501-7.791-13.505z"/><path fill="#003CFF" stroke="#000" d="M84.231 200.006l-7.796 13.493 7.794 13.5 15.591.007 7.794-13.501L99.822 200z"/><path fill="#0F0" stroke="#000" d="M60.844 213.505l-7.798 13.493 7.794 13.5 15.592.007 7.794-13.501-7.791-13.505z"/><path fill="red" stroke="#000" d="M84.235 227.013l-7.797 13.493 7.794 13.5 15.591.007 7.795-13.501-7.792-13.505z"/><path fill="#003CFF" stroke="#000" d="M107.618 240.512l-7.798 13.493 7.795 13.5 15.591.007L131 254.011l-7.791-13.505z"/><path fill="#0F0" stroke="#000" d="M84.229 254.011l-7.797 13.493 7.795 13.5 15.59.007 7.795-13.501-7.792-13.505z"/><path fill="red" stroke="#000" d="M14.081 186.513l-7.798 13.493 7.795 13.5 15.591.007 7.795-13.501-7.792-13.505z"/><path fill="#003CFF" stroke="#000" d="M37.464 200.012l-7.798 13.493 7.795 13.5 15.591.007 7.794-13.501-7.791-13.505z"/><path fill="#0F0" stroke="#000" d="M14.075 213.511l-7.798 13.493 7.795 13.5 15.591.007 7.795-13.501-7.792-13.505z"/><path fill="red" stroke="#000" d="M37.467 227.019l-7.797 13.493 7.795 13.5 15.591.007 7.794-13.501-7.791-13.505z"/><path fill="#003CFF" stroke="#000" d="M60.85 240.518l-7.797 13.493 7.794 13.5 15.591.007 7.794-13.501-7.791-13.505z"/><path fill="#0F0" stroke="#000" d="M37.461 254.017l-7.797 13.493 7.795 13.5 15.591.007 7.794-13.501-7.791-13.505z"/><path fill="#003CFF" stroke="#000" d="M14.082 240.51l-7.798 13.494 7.795 13.5 15.591.006 7.795-13.5-7.792-13.506z"/><path fill="red" stroke="#000" d="M177.787 65.007L169.99 78.5l7.795 13.5 15.591.007 7.794-13.501-7.791-13.505z"/><path fill="#003CFF" stroke="#000" d="M201.17 78.506l-7.797 13.493 7.794 13.5 15.591.007 7.795-13.501-7.791-13.505z"/><path fill="#0F0" stroke="#000" d="M177.781 92.005l-7.797 13.493 7.795 13.5 15.591.007 7.794-13.501-7.791-13.505z"/><path fill="red" stroke="#000" d="M201.174 105.513l-7.797 13.493 7.794 13.5 15.591.007 7.795-13.501-7.792-13.505z"/><path fill="#003CFF" stroke="#000" d="M224.557 119.012l-7.798 13.493 7.795 13.5 15.591.007 7.794-13.501-7.792-13.505z"/><path fill="#0F0" stroke="#000" d="M201.168 132.511l-7.797 13.493 7.794 13.5 15.591.007 7.795-13.501-7.792-13.505z"/><path fill="red" stroke="#000" d="M224.561 146.007l-7.798 13.493 7.794 13.5 15.591.007 7.794-13.501-7.791-13.505z"/><path fill="#003CFF" stroke="#000" d="M247.942 159.506l-7.796 13.493 7.793 13.5 15.592.007 7.794-13.501-7.792-13.505z"/><path fill="#0F0" stroke="#000" d="M224.555 173.005l-7.798 13.493 7.794 13.5 15.592.008 7.794-13.502-7.791-13.505z"/><path fill="red" stroke="#000" d="M247.946 186.513l-7.798 13.493 7.795 13.5 15.591.006 7.794-13.5-7.791-13.505z"/><path fill="#003CFF" stroke="#000" d="M271.328 200.012l-7.797 13.494 7.794 13.5 15.592.006 7.794-13.5-7.791-13.506z"/><path fill="#0F0" stroke="#000" d="M247.94 213.512l-7.797 13.492 7.795 13.5 15.59.008 7.794-13.502-7.791-13.504z"/><path fill="red" stroke="#000" d="M271.325 227.018l-7.797 13.494 7.794 13.5 15.592.006 7.795-13.5-7.792-13.506z"/><path fill="#003CFF" stroke="#000" d="M294.709 240.518l-7.798 13.494 7.794 13.5 15.591.006 7.796-13.5-7.793-13.506z"/><path fill="#0F0" stroke="#000" d="M271.319 254.018l-7.797 13.492 7.794 13.5 15.592.008 7.795-13.502-7.792-13.504z"/><path fill="red" stroke="#000" d="M131.02 65.013l-7.797 13.493 7.794 13.5 15.59.007 7.795-13.501-7.792-13.505z"/><path fill="#003CFF" stroke="#000" d="M154.402 78.512l-7.798 13.493 7.795 13.5 15.591.007 7.795-13.501-7.792-13.505z"/><path fill="#0F0" stroke="#000" d="M131.014 92.011l-7.797 13.493 7.794 13.5 15.591.007 7.794-13.501-7.792-13.505z"/><path fill="red" stroke="#000" d="M154.406 105.519l-7.798 13.493 7.794 13.5 15.592.007 7.794-13.501-7.791-13.505z"/><path fill="#003CFF" stroke="#000" d="M177.788 119.018l-7.797 13.493 7.794 13.5 15.592.007 7.794-13.501-7.792-13.505z"/><path fill="#0F0" stroke="#000" d="M154.4 132.517l-7.797 13.493 7.793 13.5 15.592.007 7.794-13.501-7.791-13.505z"/><path fill="red" stroke="#000" d="M177.792 146.013l-7.798 13.493 7.795 13.5 15.591.007 7.795-13.501-7.792-13.505z"/><path fill="#003CFF" stroke="#000" d="M201.175 159.512l-7.798 13.493 7.795 13.5 15.591.007 7.794-13.501-7.791-13.505z"/><path fill="#0F0" stroke="#000" d="M177.786 173.011l-7.798 13.493 7.795 13.5 15.591.008 7.795-13.502-7.792-13.505z"/><path fill="red" stroke="#000" d="M201.178 186.519l-7.797 13.493 7.795 13.5 15.591.006 7.794-13.5-7.791-13.505z"/><path fill="#003CFF" stroke="#000" d="M224.561 200.018l-7.797 13.494 7.794 13.5 15.59.006 7.795-13.5-7.791-13.506z"/><path fill="#0F0" stroke="#000" d="M201.172 213.518l-7.797 13.492 7.795 13.5 15.591.008 7.794-13.502-7.791-13.504z"/><path fill="red" stroke="#000" d="M224.558 227.023l-7.797 13.495 7.794 13.5 15.591.005 7.794-13.5-7.792-13.505z"/><path fill="#003CFF" stroke="#000" d="M247.94 240.523l-7.797 13.495 7.795 13.5 15.59.005 7.794-13.5-7.791-13.505z"/><path fill="#0F0" stroke="#000" d="M224.552 254.023l-7.797 13.493 7.794 13.5 15.592.007 7.794-13.502-7.792-13.503z"/><path fill="red" stroke="#000" d="M107.638 105.511l-7.798 13.493 7.795 13.5 15.591.007 7.795-13.501-7.792-13.505z"/><path fill="#003CFF" stroke="#000" d="M131.021 119.01l-7.798 13.494 7.795 13.5 15.59.006 7.794-13.5-7.791-13.506z"/><path fill="#0F0" stroke="#000" d="M107.632 132.51l-7.798 13.493 7.795 13.5 15.591.007 7.795-13.501-7.792-13.505z"/><path fill="red" stroke="#000" d="M131.023 146.017l-7.796 13.493 7.794 13.5 15.591.007 7.794-13.501-7.791-13.505z"/><path fill="#003CFF" stroke="#000" d="M154.406 159.516l-7.797 13.494 7.794 13.5 15.591.006 7.795-13.5-7.791-13.506z"/><path fill="#0F0" stroke="#000" d="M131.018 173.016l-7.797 13.493 7.795 13.5 15.59.006 7.794-13.5-7.791-13.505z"/><path fill="red" stroke="#000" d="M154.41 186.511l-7.797 13.493 7.794 13.5 15.591.008 7.795-13.502-7.792-13.505z"/><path fill="#003CFF" stroke="#000" d="M177.793 200.01l-7.798 13.493 7.795 13.5 15.591.007 7.795-13.501-7.792-13.505z"/><path fill="#0F0" stroke="#000" d="M154.404 213.509l-7.797 13.494 7.794 13.5 15.591.007 7.795-13.501-7.792-13.506z"/><path fill="red" stroke="#000" d="M177.797 227.018l-7.798 13.492 7.794 13.5 15.592.006 7.794-13.5-7.791-13.504z"/><path fill="#003CFF" stroke="#000" d="M201.179 240.516l-7.797 13.494 7.794 13.5 15.592.006 7.794-13.5-7.792-13.506z"/><path fill="#0F0" stroke="#000" d="M177.791 254.016l-7.798 13.493 7.794 13.5 15.592.007 7.794-13.501-7.791-13.505z"/><path fill="red" stroke="#000" d="M84.243 146.009l-7.797 13.493 7.794 13.5 15.592.007 7.794-13.501-7.792-13.505z"/><path fill="#003CFF" stroke="#000" d="M107.626 159.508l-7.798 13.494 7.795 13.5 15.591.006 7.795-13.5-7.792-13.506z"/><path fill="#0F0" stroke="#000" d="M84.237 173.008l-7.797 13.493L84.234 200l15.592.008 7.794-13.501-7.792-13.505z"/><path fill="red" stroke="#000" d="M107.63 186.515l-7.798 13.494 7.795 13.5 15.591.006 7.794-13.5-7.791-13.506z"/><path fill="#003CFF" stroke="#000" d="M131.012 200.015l-7.797 13.493 7.795 13.5 15.591.007 7.794-13.501-7.791-13.505z"/><path fill="#0F0" stroke="#000" d="M107.624 213.514l-7.798 13.492 7.795 13.5 15.591.006 7.794-13.5-7.791-13.504z"/><path fill="red" stroke="#000" d="M131.016 227.009l-7.797 13.494 7.794 13.5 15.591.006 7.794-13.5-7.791-13.506z"/><path fill="#003CFF" stroke="#000" d="M154.398 240.509L146.602 254l7.794 13.5 15.59.009 7.795-13.503-7.792-13.503z"/><path fill="#0F0" stroke="#000" d="M131.01 254.006l-7.797 13.494 7.794 13.5 15.591.009 7.795-13.503L146.602 254zM318.106 11.011l-7.797 13.493 7.795 13.5 15.591.007 7.793-13.501-7.79-13.505z"/><path fill="red" stroke="#000" d="M341.498 24.519l-7.797 13.493 7.795 13.5 15.59.007 7.796-13.501-7.793-13.505z"/><path fill="#003CFF" stroke="#000" d="M364.882 38.018l-7.799 13.493 7.796 13.5 15.59.007 7.795-13.501-7.791-13.505z"/><path fill="#0F0" stroke="#000" d="M341.492 51.517l-7.797 13.493 7.795 13.5 15.59.007 7.796-13.501-7.793-13.505z"/><path fill="red" stroke="#000" d="M364.885 65.013l-7.797 13.493 7.794 13.5 15.592.007 7.793-13.501-7.79-13.505z"/><path fill="#003CFF" stroke="#000" d="M388.267 78.512l-7.796 13.493 7.793 13.5 15.591.007 7.795-13.501-7.792-13.505z"/><path fill="#0F0" stroke="#000" d="M364.879 92.011l-7.797 13.493 7.794 13.5 15.592.008 7.793-13.502-7.79-13.505z"/><path fill="red" stroke="#000" d="M388.271 105.519l-7.797 13.493 7.794 13.5 15.59.006 7.796-13.5-7.793-13.505z"/><path fill="#003CFF" stroke="#000" d="M411.654 119.018l-7.799 13.494 7.796 13.5 15.591.006 7.794-13.5-7.792-13.506z"/><path fill="#0F0" stroke="#000" d="M388.266 132.518l-7.798 13.492 7.794 13.5 15.591.008 7.795-13.502-7.793-13.504z"/><path fill="red" stroke="#000" d="M411.651 146.023l-7.798 13.495 7.795 13.5 15.59.005 7.795-13.5-7.791-13.505z"/><path fill="#003CFF" stroke="#000" d="M435.033 159.523l-7.797 13.495 7.794 13.5 15.592.005 7.793-13.5-7.79-13.505z"/><path fill="#0F0" stroke="#000" d="M411.646 173.023l-7.799 13.493 7.796 13.5 15.589.007 7.795-13.502-7.791-13.503z"/><path fill="red" stroke="#000" d="M435.036 186.529l-7.796 13.494 7.793 13.5 15.592.006 7.795-13.5-7.792-13.506z"/><path fill="#003CFF" stroke="#000" d="M458.42 200.029l-7.798 13.494 7.794 13.5 15.591.006 7.796-13.5-7.793-13.506z"/><path fill="#0F0" stroke="#000" d="M435.03 213.529l-7.796 13.492 7.793 13.5 15.592.008 7.795-13.502-7.792-13.504z"/><path fill="red" stroke="#000" d="M458.424 227.023l-7.799 13.495 7.796 13.5 15.591.005 7.794-13.5-7.792-13.505z"/><path fill="#003CFF" stroke="#000" d="M481.806 240.523l-7.798 13.495 7.795 13.5 15.592.005 7.793-13.5-7.791-13.505z"/><path fill="#0F0" stroke="#000" d="M458.418 254.023l-7.799 13.493 7.796 13.5 15.591.007 7.794-13.502-7.792-13.503zM271.338 11.017l-7.797 13.493 7.795 13.5 15.59.007 7.796-13.501-7.793-13.505z"/><path fill="red" stroke="#000" d="M294.73 24.524l-7.796 13.494 7.794 13.5 15.591.006 7.793-13.501-7.79-13.504z"/><path fill="#003CFF" stroke="#000" d="M318.112 38.023l-7.796 13.494 7.793 13.5 15.592.006 7.795-13.501-7.792-13.504z"/><path fill="#0F0" stroke="#000" d="M294.725 51.522l-7.797 13.494 7.794 13.5 15.591.006 7.793-13.501-7.79-13.504z"/><path fill="red" stroke="#000" d="M318.117 65.019l-7.798 13.493 7.794 13.5 15.591.007 7.796-13.501-7.793-13.505z"/><path fill="#003CFF" stroke="#000" d="M341.5 78.518l-7.799 13.493 7.796 13.5 15.591.007 7.794-13.501-7.792-13.505z"/><path fill="#0F0" stroke="#000" d="M318.111 92.017l-7.798 13.493 7.794 13.5 15.591.008 7.796-13.502-7.793-13.505z"/><path fill="red" stroke="#000" d="M341.503 105.524l-7.798 13.494 7.795 13.5 15.592.005 7.793-13.5-7.79-13.504z"/><path fill="#003CFF" stroke="#000" d="M364.885 119.023l-7.796 13.495 7.793 13.5 15.592.005 7.794-13.5-7.791-13.505z"/><path fill="#0F0" stroke="#000" d="M341.497 132.523l-7.798 13.493 7.795 13.5 15.592.007 7.793-13.502-7.79-13.503z"/><path fill="red" stroke="#000" d="M364.882 146.029l-7.796 13.494 7.793 13.5 15.592.006 7.795-13.5-7.792-13.506z"/><path fill="#003CFF" stroke="#000" d="M388.266 159.529l-7.798 13.494 7.794 13.5 15.591.006 7.795-13.5-7.793-13.506z"/><path fill="#0F0" stroke="#000" d="M364.876 173.029l-7.796 13.492 7.793 13.5 15.592.008 7.795-13.502-7.792-13.504z"/><path fill="red" stroke="#000" d="M388.27 186.535l-7.799 13.494 7.796 13.5 15.59.006 7.794-13.5-7.792-13.506z"/><path fill="#003CFF" stroke="#000" d="M411.651 200.035l-7.797 13.494 7.794 13.5 15.592.006 7.793-13.5-7.79-13.506z"/><path fill="#0F0" stroke="#000" d="M388.264 213.535l-7.799 13.492 7.796 13.5 15.591.008 7.794-13.502-7.792-13.504z"/><path fill="red" stroke="#000" d="M411.654 227.029l-7.796 13.494 7.793 13.5 15.592.006 7.794-13.5-7.791-13.506z"/><path fill="#003CFF" stroke="#000" d="M435.037 240.529l-7.797 13.494 7.795 13.5 15.59.006 7.796-13.5-7.793-13.506z"/><path fill="#0F0" stroke="#000" d="M411.648 254.029l-7.795 13.492 7.793 13.5 15.591.008 7.794-13.502-7.791-13.504z"/><path fill="red" stroke="#000" d="M247.963 24.517l-7.798 13.493 7.794 13.5 15.592.007 7.795-13.501-7.792-13.505z"/><path fill="#003CFF" stroke="#000" d="M271.346 38.016l-7.798 13.494 7.795 13.5 15.591.006 7.794-13.5-7.792-13.506z"/><path fill="#0F0" stroke="#000" d="M224.521 11.017l-7.796 13.493 7.795 13.5 15.589.007 7.796-13.501-7.793-13.505z"/><path fill="#003CFF" stroke="#000" d="M224.529 38.016l-7.798 13.494 7.795 13.5 15.591.006 7.794-13.5-7.792-13.506z"/><path fill="#0F0" stroke="#000" d="M247.957 51.516l-7.798 13.493 7.794 13.5 15.592.007 7.795-13.501-7.792-13.505zm-70.186-40.512l-7.797 13.493 7.794 13.5 15.591.007 7.793-13.501-7.79-13.505z"/><path fill="red" stroke="#000" d="M201.163 24.511l-7.798 13.493 7.795 13.5 15.59.007 7.796-13.501-7.793-13.505z"/><path fill="#0F0" stroke="#000" d="M201.157 51.51l-7.798 13.493 7.795 13.5 15.59.007 7.796-13.501-7.793-13.505zm-70.154-40.5l-7.798 13.493 7.795 13.5 15.59.007 7.796-13.501-7.793-13.505z"/><path fill="red" stroke="#000" d="M154.395 24.517l-7.797 13.493 7.794 13.5 15.591.007 7.793-13.501-7.79-13.505z"/><path fill="#003CFF" stroke="#000" d="M177.776 38.016L169.98 51.51l7.793 13.5 15.592.006 7.795-13.5-7.792-13.506z"/><path fill="#0F0" stroke="#000" d="M154.389 51.516l-7.797 13.493 7.794 13.5 15.592.007 7.793-13.501-7.791-13.505z"/><path fill="red" stroke="#000" d="M107.627 24.51l-7.798 13.493 7.795 13.5 15.591.007 7.795-13.501-7.792-13.505z"/><path fill="#003CFF" stroke="#000" d="M131.01 38.009l-7.798 13.493 7.795 13.5 15.591.007 7.794-13.501-7.791-13.505z"/><path fill="red" stroke="#000" d="M84.248 65.013l-7.797 13.493 7.795 13.5 15.591.007 7.794-13.501-7.791-13.505z"/><path fill="#0F0" stroke="#000" d="M84.242 92.011l-7.797 13.493 7.795 13.5 15.591.007 7.794-13.501-7.791-13.505z"/><path fill="#003CFF" stroke="#000" d="M84.249 119.01l-7.797 13.494 7.794 13.5 15.592.006 7.794-13.5-7.792-13.506z"/><path fill="#0F0" stroke="#000" d="M84.231 11.01l-7.796 13.493 7.794 13.5 15.59.007 7.796-13.501-7.793-13.505z"/><path fill="#003CFF" stroke="#000" d="M84.239 38.009l-7.798 13.493 7.795 13.5 15.59.007 7.795-13.501-7.792-13.505zm23.403 40.496l-7.798 13.493 7.795 13.5 15.59.007 7.794-13.501-7.792-13.505z"/><path fill="#0F0" stroke="#000" d="M107.621 51.508l-7.798 13.494 7.795 13.5 15.591.006 7.795-13.5-7.792-13.506z"/><path fill="red" stroke="#000" d="M37.462 65.002l-7.797 13.494 7.794 13.5 15.592.006 7.794-13.5-7.792-13.506z"/><path fill="#003CFF" stroke="#000" d="M60.845 78.502l-7.798 13.493 7.795 13.5 15.591.007 7.795-13.501-7.792-13.505z"/><path fill="#0F0" stroke="#000" d="M37.456 92.001l-7.797 13.493 7.794 13.5 15.592.007 7.794-13.501-7.792-13.505z"/><path fill="red" stroke="#000" d="M60.849 105.508l-7.798 13.494 7.795 13.5 15.591.006 7.793-13.5-7.791-13.506z"/><path fill="#0F0" stroke="#000" d="M60.843 132.507L53.045 146l7.795 13.5 15.591.007 7.794-13.501-7.791-13.505z"/><path fill="red" stroke="#000" d="M14.08 105.501l-7.797 13.493 7.794 13.5 15.591.007L37.463 119l-7.791-13.505z"/><path fill="#003CFF" stroke="#000" d="M37.463 119l-7.797 13.493 7.794 13.5 15.591.007 7.795-13.501-7.792-13.505z"/><path fill="#0F0" stroke="#000" d="M14.074 132.499l-7.797 13.493 7.794 13.5 15.591.007 7.795-13.501-7.791-13.505z"/><path fill="red" stroke="#000" d="M37.467 146.007L29.669 159.5l7.795 13.5 15.591.007 7.795-13.501-7.792-13.505z"/><path fill="#003CFF" stroke="#000" d="M60.85 159.506l-7.798 13.493 7.794 13.5 15.592.007 7.793-13.501L76.44 159.5z"/><path fill="#0F0" stroke="#000" d="M37.461 173.005l-7.798 13.493 7.795 13.5 15.591.006 7.795-13.5-7.792-13.505z"/><path fill="#003CFF" stroke="#000" d="M14.068 159.498l-7.797 13.493 7.794 13.5 15.591.007 7.795-13.501-7.791-13.505z"/><path fill="#0F0" stroke="#000" d="M37.445 10.999l-7.797 13.493 7.794 13.5 15.591.007 7.795-13.501-7.793-13.505z"/><path fill="red" stroke="#000" d="M60.838 24.507L53.04 38l7.794 13.5 15.592.007 7.793-13.501-7.789-13.505z"/><path fill="#0F0" stroke="#000" d="M60.832 51.505l-7.798 13.493 7.794 13.5 15.592.007 7.793-13.501-7.789-13.505z"/><path fill="red" stroke="#000" d="M14.069 24.499L6.271 37.992l7.795 13.5 15.591.007 7.796-13.501-7.793-13.505z"/><path fill="#003CFF" stroke="#000" d="M37.453 37.998l-7.799 13.494 7.795 13.5 15.591.006 7.794-13.5-7.791-13.506zM14.084 78.495L6.286 91.988l7.795 13.5 15.591.007 7.794-13.501-7.792-13.505z"/><path fill="#0F0" stroke="#000" d="M14.063 51.498L6.266 64.991l7.795 13.5 15.59.007 7.796-13.501-7.793-13.505z"/><path fill="red" stroke="#000" d="M271.349 65.022l-7.798 13.494 7.795 13.5 15.592.006 7.792-13.501-7.79-13.504z"/><path fill="#003CFF" stroke="#000" d="M294.73 78.521l-7.795 13.495 7.793 13.5 15.591.005 7.794-13.5-7.791-13.505z"/><path fill="#0F0" stroke="#000" d="M271.343 92.021l-7.798 13.494 7.795 13.5 15.592.006 7.793-13.5-7.79-13.505z"/><path fill="red" stroke="#000" d="M294.734 105.517l-7.796 13.493 7.794 13.5 15.59.008 7.796-13.502-7.793-13.505z"/><path fill="#003CFF" stroke="#000" d="M318.118 119.016l-7.799 13.493 7.796 13.5 15.59.007 7.795-13.501-7.791-13.505z"/><path fill="#0F0" stroke="#000" d="M294.729 132.515l-7.797 13.494 7.795 13.5 15.589.007 7.796-13.501-7.793-13.506z"/><path fill="red" stroke="#000" d="M318.121 146.023l-7.797 13.493 7.794 13.5 15.592.005 7.793-13.5-7.79-13.503z"/><path fill="#003CFF" stroke="#000" d="M341.503 159.521l-7.796 13.495 7.793 13.5 15.592.005 7.795-13.5-7.792-13.505z"/><path fill="#0F0" stroke="#000" d="M318.115 173.021l-7.797 13.494 7.794 13.5 15.592.006 7.793-13.5-7.79-13.505z"/><path fill="red" stroke="#000" d="M341.5 186.527l-7.796 13.494 7.793 13.5 15.592.006 7.794-13.5-7.791-13.506z"/><path fill="#003CFF" stroke="#000" d="M364.883 200.027l-7.797 13.494 7.795 13.5 15.59.006 7.796-13.5-7.793-13.506z"/><path fill="#0F0" stroke="#000" d="M341.494 213.527l-7.796 13.494 7.793 13.5 15.592.006 7.794-13.501-7.791-13.505z"/><path fill="red" stroke="#000" d="M364.888 227.033l-7.799 13.494 7.796 13.5 15.59.006 7.795-13.5-7.791-13.506z"/><path fill="#003CFF" stroke="#000" d="M388.27 240.533l-7.797 13.494 7.794 13.5 15.591.006 7.793-13.5-7.79-13.506z"/><path fill="#0F0" stroke="#000" d="M364.882 254.033l-7.799 13.493 7.796 13.5 15.59.007 7.795-13.501-7.791-13.505z"/><path fill="red" stroke="#000" d="M224.568 65.015l-7.797 13.493 7.794 13.5 15.591.007 7.795-13.501-7.792-13.505z"/><path fill="#003CFF" stroke="#000" d="M247.951 78.514l-7.798 13.494 7.794 13.5 15.592.006 7.795-13.5-7.792-13.506z"/><path fill="#0F0" stroke="#000" d="M224.562 92.014l-7.797 13.493 7.795 13.499 15.59.008 7.795-13.501-7.792-13.505z"/><path fill="red" stroke="#000" d="M247.954 105.521l-7.797 13.494 7.794 13.5 15.592.006 7.794-13.5-7.792-13.506z"/><path fill="#003CFF" stroke="#000" d="M271.337 119.021l-7.798 13.493 7.795 13.5 15.592.007 7.793-13.501-7.79-13.505z"/><path fill="#0F0" stroke="#000" d="M247.948 132.52l-7.797 13.492 7.794 13.5 15.592.006 7.794-13.5-7.792-13.504z"/><path fill="red" stroke="#000" d="M271.34 146.015l-7.797 13.494 7.794 13.5 15.592.006 7.794-13.5-7.791-13.506z"/><path fill="#003CFF" stroke="#000" d="M294.723 159.515l-7.797 13.491 7.795 13.5 15.59.009 7.795-13.503-7.793-13.503z"/><path fill="#0F0" stroke="#000" d="M271.334 173.012l-7.797 13.494 7.794 13.5 15.592.009 7.794-13.503-7.791-13.506z"/><path fill="red" stroke="#000" d="M294.728 186.521l-7.799 13.494 7.796 13.5 15.589.006 7.795-13.5-7.791-13.506z"/><path fill="#003CFF" stroke="#000" d="M318.109 200.021l-7.797 13.494 7.794 13.5 15.592.006 7.793-13.5-7.79-13.506z"/><path fill="#0F0" stroke="#000" d="M294.722 213.521l-7.799 13.491 7.796 13.5 15.59.009 7.795-13.503-7.792-13.503z"/><path fill="red" stroke="#000" d="M318.106 227.026l-7.797 13.495 7.795 13.5 15.591.005 7.793-13.5-7.79-13.505z"/><path fill="#003CFF" stroke="#000" d="M341.488 240.526l-7.796 13.495 7.793 13.5 15.592.005 7.794-13.5-7.791-13.505z"/><path fill="#0F0" stroke="#000" d="M318.101 254.026l-7.798 13.492 7.795 13.5 15.591.008 7.793-13.503-7.79-13.502zM505.203 11.018l-7.797 13.492 7.795 13.5 15.59.008 7.795-13.502-7.792-13.504z"/><path fill="red" stroke="#000" d="M528.588 24.523l-7.797 13.495 7.795 13.5 15.592.005 7.794-13.5-7.792-13.505z"/><path fill="#003CFF" stroke="#000" d="M551.972 38.023l-7.798 13.495 7.795 13.5 15.59.005 7.796-13.5-7.793-13.505z"/><path fill="#0F0" stroke="#000" d="M528.582 51.523l-7.797 13.493 7.795 13.5 15.592.007 7.794-13.502-7.792-13.503z"/><path fill="red" stroke="#000" d="M551.977 65.029l-7.799 13.494 7.795 13.5 15.59.006 7.794-13.5-7.791-13.506z"/><path fill="#003CFF" stroke="#000" d="M575.357 78.529l-7.796 13.494 7.794 13.5 15.592.006 7.793-13.5-7.791-13.506z"/><path fill="#0F0" stroke="#000" d="M551.971 92.029l-7.799 13.492 7.795 13.5 15.591.008 7.794-13.502-7.791-13.504z"/><path fill="red" stroke="#000" d="M575.361 105.523l-7.797 13.495 7.793 13.5 15.592.005 7.795-13.5-7.791-13.505z"/><path fill="#003CFF" stroke="#000" d="M598.744 119.023l-7.797 13.495 7.794 13.5 15.591.005 7.795-13.5-7.793-13.505z"/><path fill="#0F0" stroke="#000" d="M575.355 132.523l-7.796 13.493 7.793 13.5 15.591.007 7.795-13.502-7.791-13.503z"/><path fill="red" stroke="#000" d="M575.264 24.5l-7.799 13.494 7.797 13.5 15.59.006 7.794-13.5-7.792-13.506z"/><path fill="#003CFF" stroke="#000" d="M598.646 38l-7.797 13.494 7.794 13.5 15.591.006 7.793-13.5-7.789-13.506z"/><path fill="#0F0" stroke="#000" d="M575.258 51.5l-7.799 13.492 7.797 13.5 15.59.008 7.795-13.502-7.792-13.504z"/><path fill="red" stroke="#000" d="M598.648 64.994l-7.794 13.494 7.792 13.5 15.592.006 7.794-13.5-7.792-13.506z"/><path fill="#0F0" stroke="#000" d="M598.643 91.994l-7.795 13.492 7.793 13.5 15.591.008 7.794-13.502-7.792-13.504z"/><path fill="red" stroke="#000" d="M598.748 146.029l-7.799 13.494 7.797 13.5 15.59.006 7.795-13.5-7.792-13.506z"/><path fill="#0F0" stroke="#000" d="M598.742 173.029l-7.799 13.492 7.797 13.5 15.59.008 7.795-13.502-7.792-13.504zM458.436 11.023l-7.797 13.493 7.794 13.5 15.591.007 7.793-13.502-7.79-13.503zm140.216-.027l-7.798 13.492 7.794 13.5 15.591.008 7.794-13.502-7.791-13.504zm-46.768.006l-7.798 13.492 7.795 13.5 15.592.008 7.793-13.502-7.79-13.504z"/><path fill="red" stroke="#000" d="M481.82 24.529l-7.796 13.494 7.793 13.5 15.592.006 7.794-13.5-7.791-13.506z"/><path fill="#003CFF" stroke="#000" d="M505.203 38.029l-7.797 13.494 7.795 13.5 15.59.006 7.795-13.5-7.792-13.506z"/><path fill="#0F0" stroke="#000" d="M481.814 51.529l-7.795 13.492 7.793 13.5 15.591.008 7.794-13.502-7.791-13.504z"/><path fill="red" stroke="#000" d="M505.208 65.035l-7.799 13.494 7.796 13.5 15.59.006 7.795-13.5-7.791-13.506z"/><path fill="#003CFF" stroke="#000" d="M528.59 78.535l-7.797 13.494 7.794 13.5 15.591.006 7.795-13.5-7.793-13.506z"/><path fill="#0F0" stroke="#000" d="M505.202 92.035l-7.799 13.492 7.796 13.5 15.59.008 7.795-13.502-7.791-13.504z"/><path fill="red" stroke="#000" d="M528.594 105.529l-7.797 13.494 7.795 13.5 15.59.006 7.795-13.5-7.792-13.506z"/><path fill="#003CFF" stroke="#000" d="M551.977 119.029l-7.798 13.494 7.794 13.5 15.591.006 7.793-13.5-7.789-13.506z"/><path fill="#0F0" stroke="#000" d="M528.588 132.529l-7.797 13.492 7.795 13.5 15.59.008 7.795-13.502-7.792-13.504z"/><path fill="red" stroke="#000" d="M551.979 146.035l-7.795 13.494 7.793 13.5 15.591.006 7.794-13.5-7.792-13.506z"/><path fill="#003CFF" stroke="#000" d="M575.362 159.535l-7.798 13.494 7.795 13.5 15.59.006 7.795-13.5-7.791-13.506z"/><path fill="#0F0" stroke="#000" d="M551.973 173.035l-7.795 13.492 7.793 13.5 15.591.008 7.794-13.502-7.792-13.504z"/><path fill="red" stroke="#000" d="M575.352 186.527l-7.795 13.494 7.793 13.5 15.591.006 7.794-13.5-7.792-13.506z"/><path fill="#003CFF" stroke="#000" d="M598.735 200.027l-7.797 13.494 7.794 13.5 15.59.006 7.797-13.5-7.793-13.506z"/><path fill="#0F0" stroke="#000" d="M575.346 213.527l-7.795 13.494 7.793 13.5 15.592.006 7.793-13.501-7.791-13.505z"/><path fill="red" stroke="#000" d="M598.74 227.033l-7.799 13.494 7.795 13.5 15.591.006 7.794-13.5-7.791-13.506z"/><path fill="#0F0" stroke="#000" d="M598.734 254.033l-7.798 13.493 7.794 13.5 15.591.007 7.794-13.501-7.791-13.505z"/><path fill="red" stroke="#000" d="M551.971 227.039l-7.797 13.494 7.793 13.5 15.592.006 7.795-13.5-7.792-13.506z"/><path fill="#003CFF" stroke="#000" d="M575.354 240.539l-7.797 13.494 7.794 13.5 15.59.006 7.794-13.5-7.792-13.506z"/><path fill="#0F0" stroke="#000" d="M551.965 254.039l-7.797 13.493 7.793 13.5 15.592.007 7.795-13.501-7.791-13.505zM411.668 11.015l-7.798 13.494 7.794 13.5 15.591.007 7.796-13.501-7.793-13.506z"/><path fill="red" stroke="#000" d="M435.06 24.523l-7.798 13.493 7.795 13.5 15.591.005 7.793-13.5-7.79-13.503z"/><path fill="#003CFF" stroke="#000" d="M458.441 38.021l-7.795 13.495 7.792 13.5 15.592.005 7.794-13.5-7.791-13.505z"/><path fill="#0F0" stroke="#000" d="M435.054 51.521l-7.798 13.494 7.795 13.5 15.592.006 7.793-13.5-7.79-13.505z"/><path fill="red" stroke="#000" d="M458.438 65.027l-7.795 13.494 7.793 13.5 15.591.006 7.795-13.5-7.792-13.506z"/><path fill="#003CFF" stroke="#000" d="M481.822 78.527l-7.798 13.494 7.794 13.5 15.591.006 7.796-13.5-7.793-13.506z"/><path fill="#0F0" stroke="#000" d="M458.433 92.027l-7.796 13.494 7.793 13.5 15.591.006 7.795-13.501-7.792-13.505z"/><path fill="red" stroke="#000" d="M481.826 105.533l-7.799 13.494 7.796 13.5 15.591.006 7.794-13.5-7.792-13.506z"/><path fill="#003CFF" stroke="#000" d="M505.208 119.033l-7.798 13.494 7.795 13.5 15.592.006 7.795-13.5-7.792-13.506z"/><path fill="#0F0" stroke="#000" d="M481.82 132.533l-7.799 13.493 7.796 13.5 15.591.007 7.794-13.501-7.792-13.505z"/><path fill="red" stroke="#000" d="M505.211 146.027l-7.796 13.494 7.793 13.5 15.592.006 7.794-13.5-7.791-13.506z"/><path fill="#003CFF" stroke="#000" d="M528.594 159.527l-7.797 13.494 7.795 13.5 15.592.006 7.793-13.5-7.791-13.506z"/><path fill="#0F0" stroke="#000" d="M505.205 173.027l-7.796 13.494 7.793 13.5 15.592.006 7.794-13.501-7.791-13.505z"/><path fill="red" stroke="#000" d="M528.598 186.533l-7.798 13.494 7.794 13.5 15.592.006 7.794-13.5-7.791-13.506z"/><path fill="#003CFF" stroke="#000" d="M551.98 200.033l-7.796 13.494 7.794 13.5 15.59.006 7.794-13.5-7.792-13.506z"/><path fill="#0F0" stroke="#000" d="M528.592 213.533l-7.798 13.493 7.794 13.5 15.592.007 7.795-13.501-7.791-13.505zM364.888 11.02l-7.799 13.492 7.796 13.5 15.59.006 7.795-13.5-7.791-13.504z"/><path fill="red" stroke="#000" d="M388.278 24.515l-7.796 13.494 7.793 13.5 15.592.006 7.795-13.5-7.792-13.506z"/><path fill="#003CFF" stroke="#000" d="M411.662 38.015l-7.798 13.491 7.794 13.5 15.591.009 7.796-13.503-7.793-13.503z"/><path fill="#0F0" stroke="#000" d="M388.272 51.512l-7.795 13.494 7.793 13.5 15.591.009 7.795-13.503-7.792-13.506z"/><path fill="red" stroke="#000" d="M411.666 65.021l-7.799 13.494 7.796 13.5 15.591.006 7.794-13.5-7.792-13.506z"/><path fill="#003CFF" stroke="#000" d="M435.048 78.521l-7.798 13.494 7.795 13.5 15.592.006 7.793-13.5-7.79-13.506z"/><path fill="#0F0" stroke="#000" d="M411.66 92.021l-7.799 13.491 7.796 13.5 15.591.009 7.794-13.503-7.792-13.503z"/><path fill="red" stroke="#000" d="M435.045 105.526l-7.797 13.495 7.794 13.5 15.592.005 7.793-13.5-7.79-13.505z"/><path fill="#003CFF" stroke="#000" d="M458.427 119.026l-7.796 13.495 7.793 13.5 15.592.005 7.795-13.5-7.792-13.505z"/><path fill="#0F0" stroke="#000" d="M435.039 132.526l-7.797 13.492 7.794 13.5 15.592.008 7.793-13.503-7.79-13.502z"/><path fill="red" stroke="#000" d="M458.432 146.032l-7.798 13.494 7.794 13.5 15.591.006 7.795-13.5-7.793-13.506z"/><path fill="#003CFF" stroke="#000" d="M481.814 159.532l-7.798 13.494 7.796 13.5 15.59.006 7.794-13.5-7.792-13.506z"/><path fill="#0F0" stroke="#000" d="M458.426 173.032l-7.798 13.491 7.794 13.5 15.591.009 7.796-13.503-7.793-13.503z"/><path fill="red" stroke="#000" d="M481.817 186.526l-7.797 13.495 7.794 13.5 15.592.005 7.793-13.5-7.79-13.505z"/><path fill="#003CFF" stroke="#000" d="M505.199 200.026l-7.796 13.495 7.793 13.5 15.592.005 7.794-13.5-7.791-13.505z"/><path fill="#0F0" stroke="#000" d="M481.812 213.526l-7.798 13.492 7.795 13.5 15.591.008 7.793-13.503-7.79-13.502z"/><path fill="red" stroke="#000" d="M505.203 227.032l-7.797 13.494 7.795 13.5 15.59.006 7.795-13.5-7.792-13.506zM60.85 429.521l-7.798 13.494 7.794 13.5 15.592.006 7.793-13.5-7.791-13.506z"/><path fill="#003CFF" stroke="#000" d="M84.231 443.021l-7.796 13.493 7.794 13.5 15.591.007 7.794-13.501-7.792-13.505z"/><path fill="red" stroke="#000" d="M14.081 429.526l-7.798 13.495 7.795 13.5 15.591.005 7.795-13.5-7.792-13.505z"/><path fill="#003CFF" stroke="#000" d="M37.464 443.026l-7.798 13.494 7.795 13.5 15.591.006 7.794-13.501-7.791-13.504z"/><path fill="red" stroke="#000" d="M177.787 308.021l-7.797 13.494 7.795 13.5 15.591.006 7.794-13.5-7.791-13.506z"/><path fill="#003CFF" stroke="#000" d="M201.17 321.521l-7.797 13.493 7.794 13.5 15.591.007 7.795-13.501-7.791-13.505z"/><path fill="#0F0" stroke="#000" d="M177.781 335.02l-7.797 13.492 7.795 13.5 15.591.008 7.794-13.502-7.791-13.504z"/><path fill="red" stroke="#000" d="M201.174 348.526l-7.797 13.495 7.794 13.5 15.591.005 7.795-13.5-7.792-13.505z"/><path fill="#003CFF" stroke="#000" d="M224.557 362.026l-7.798 13.494 7.795 13.5 15.591.006 7.794-13.501-7.792-13.504z"/><path fill="#0F0" stroke="#000" d="M201.168 375.525l-7.797 13.493 7.794 13.5 15.591.007 7.795-13.502-7.792-13.503z"/><path fill="red" stroke="#000" d="M224.561 389.021l-7.798 13.494 7.794 13.5 15.591.006 7.794-13.5-7.791-13.506z"/><path fill="#003CFF" stroke="#000" d="M247.942 402.521l-7.796 13.493 7.793 13.5 15.592.007 7.794-13.501-7.792-13.505z"/><path fill="#0F0" stroke="#000" d="M224.555 416.02l-7.798 13.492 7.794 13.5 15.592.009 7.794-13.503-7.791-13.504z"/><path fill="red" stroke="#000" d="M247.946 429.526l-7.798 13.495 7.795 13.5 15.591.005 7.794-13.5-7.791-13.505z"/><path fill="#003CFF" stroke="#000" d="M271.328 443.026l-7.797 13.495 7.794 13.5 15.592.005 7.794-13.5-7.791-13.505z"/><path fill="red" stroke="#000" d="M131.02 308.026l-7.797 13.495 7.794 13.5 15.59.005 7.795-13.5-7.792-13.505z"/><path fill="#003CFF" stroke="#000" d="M154.402 321.526l-7.798 13.494 7.795 13.5 15.591.006 7.795-13.501-7.792-13.504z"/><path fill="#0F0" stroke="#000" d="M131.014 335.025l-7.797 13.493 7.794 13.5 15.591.007 7.794-13.502-7.792-13.503z"/><path fill="red" stroke="#000" d="M154.406 348.532l-7.798 13.494 7.794 13.5 15.592.006 7.794-13.5-7.791-13.506z"/><path fill="#003CFF" stroke="#000" d="M177.788 362.032l-7.797 13.493 7.794 13.5 15.592.007 7.794-13.501-7.792-13.505z"/><path fill="#0F0" stroke="#000" d="M154.4 375.531l-7.797 13.492 7.793 13.5 15.592.008 7.794-13.502-7.791-13.504z"/><path fill="red" stroke="#000" d="M177.792 389.026l-7.798 13.495 7.795 13.5 15.591.005 7.795-13.5-7.792-13.505z"/><path fill="#003CFF" stroke="#000" d="M201.175 402.526l-7.798 13.494 7.795 13.5 15.591.006 7.794-13.501-7.791-13.504z"/><path fill="#0F0" stroke="#000" d="M177.786 416.025l-7.798 13.493 7.795 13.5 15.591.008 7.795-13.503-7.792-13.503z"/><path fill="red" stroke="#000" d="M201.178 429.532l-7.797 13.494 7.795 13.5 15.591.006 7.794-13.5-7.791-13.506z"/><path fill="#003CFF" stroke="#000" d="M224.561 443.032l-7.797 13.494 7.794 13.5 15.59.006 7.795-13.5-7.791-13.506z"/><path fill="red" stroke="#000" d="M107.638 348.525l-7.798 13.493 7.795 13.5 15.591.007 7.795-13.502-7.792-13.503z"/><path fill="#003CFF" stroke="#000" d="M131.021 362.023l-7.798 13.495 7.795 13.5 15.59.005 7.794-13.5-7.791-13.505z"/><path fill="#0F0" stroke="#000" d="M107.632 375.523l-7.798 13.495 7.795 13.5 15.591.005 7.795-13.5-7.792-13.505z"/><path fill="red" stroke="#000" d="M131.023 389.031l-7.796 13.492 7.794 13.5 15.591.008 7.794-13.502-7.791-13.504z"/><path fill="#003CFF" stroke="#000" d="M154.406 402.529l-7.797 13.494 7.794 13.5 15.591.006 7.795-13.5-7.791-13.506z"/><path fill="#0F0" stroke="#000" d="M131.018 416.029l-7.797 13.494 7.795 13.5 15.59.006 7.794-13.5-7.791-13.506z"/><path fill="red" stroke="#000" d="M154.41 429.525l-7.797 13.493 7.794 13.5 15.591.008 7.795-13.503-7.792-13.503z"/><path fill="#003CFF" stroke="#000" d="M177.793 443.023l-7.798 13.495 7.795 13.5 15.591.005 7.795-13.5-7.792-13.505z"/><path fill="red" stroke="#000" d="M84.243 389.023l-7.797 13.493 7.794 13.5 15.592.007 7.794-13.502-7.792-13.503z"/><path fill="#003CFF" stroke="#000" d="M107.626 402.521l-7.798 13.494 7.795 13.5 15.591.006 7.795-13.5-7.792-13.505z"/><path fill="#0F0" stroke="#000" d="M84.237 416.021l-7.797 13.494 7.794 13.5 15.592.006 7.794-13.5-7.792-13.506z"/><path fill="red" stroke="#000" d="M107.63 429.529l-7.798 13.494 7.795 13.5 15.591.006 7.794-13.5-7.791-13.506z"/><path fill="#003CFF" stroke="#000" d="M131.012 443.029l-7.797 13.492 7.795 13.5 15.591.008 7.794-13.503-7.791-13.503z"/><path fill="red" stroke="#000" d="M341.498 267.532l-7.797 13.493 7.795 13.5 15.59.007 7.796-13.501-7.793-13.505z"/><path fill="#003CFF" stroke="#000" d="M364.882 281.031l-7.799 13.494 7.796 13.5 15.59.006 7.795-13.5-7.791-13.506z"/><path fill="#0F0" stroke="#000" d="M341.492 294.531l-7.797 13.493 7.795 13.499 15.59.008 7.796-13.501-7.793-13.505z"/><path fill="red" stroke="#000" d="M364.885 308.026l-7.797 13.495 7.794 13.5 15.592.005 7.793-13.5-7.79-13.505z"/><path fill="#003CFF" stroke="#000" d="M388.267 321.526l-7.796 13.494 7.793 13.5 15.591.006 7.795-13.501-7.792-13.504z"/><path fill="#0F0" stroke="#000" d="M364.879 335.025l-7.797 13.493 7.794 13.5 15.592.008 7.793-13.503-7.79-13.503z"/><path fill="red" stroke="#000" d="M388.271 348.532l-7.797 13.494 7.794 13.5 15.59.006 7.796-13.5-7.793-13.506z"/><path fill="#003CFF" stroke="#000" d="M411.654 362.032l-7.799 13.494 7.796 13.5 15.591.006 7.794-13.5-7.792-13.506z"/><path fill="#0F0" stroke="#000" d="M388.266 375.532l-7.798 13.491 7.794 13.5 15.591.009 7.795-13.503-7.793-13.503z"/><path fill="red" stroke="#000" d="M411.651 389.038l-7.798 13.494 7.795 13.5 15.59.006 7.795-13.5-7.791-13.506z"/><path fill="#003CFF" stroke="#000" d="M435.033 402.538l-7.797 13.494 7.794 13.5 15.592.006 7.793-13.5-7.79-13.506z"/><path fill="#0F0" stroke="#000" d="M411.646 416.038l-7.799 13.491 7.796 13.5 15.589.009 7.795-13.503-7.791-13.503z"/><path fill="red" stroke="#000" d="M435.036 429.544l-7.796 13.494 7.793 13.5 15.592.006 7.795-13.5-7.792-13.506z"/><path fill="#003CFF" stroke="#000" d="M458.42 443.044l-7.798 13.494 7.794 13.5 15.591.006 7.796-13.5-7.793-13.506z"/><path fill="red" stroke="#000" d="M294.73 267.538l-7.796 13.493 7.794 13.5 15.591.007 7.793-13.501-7.79-13.505z"/><path fill="#003CFF" stroke="#000" d="M318.112 281.037l-7.796 13.494 7.793 13.5 15.592.006 7.795-13.5-7.792-13.506z"/><path fill="#0F0" stroke="#000" d="M294.725 294.537l-7.797 13.493 7.794 13.499 15.591.008 7.793-13.501-7.79-13.505z"/><path fill="red" stroke="#000" d="M318.117 308.032l-7.798 13.494 7.794 13.5 15.591.006 7.796-13.5-7.793-13.506z"/><path fill="#003CFF" stroke="#000" d="M341.5 321.532l-7.799 13.493 7.796 13.5 15.591.007 7.794-13.501-7.792-13.505z"/><path fill="#0F0" stroke="#000" d="M318.111 335.031l-7.798 13.492 7.794 13.5 15.591.009 7.796-13.503-7.793-13.504z"/><path fill="red" stroke="#000" d="M341.503 348.538l-7.798 13.494 7.795 13.5 15.592.006 7.793-13.5-7.79-13.506z"/><path fill="#003CFF" stroke="#000" d="M364.885 362.038l-7.796 13.494 7.793 13.5 15.592.006 7.794-13.5-7.791-13.506z"/><path fill="#0F0" stroke="#000" d="M341.497 375.538l-7.798 13.491 7.795 13.5 15.592.009 7.793-13.503-7.79-13.503z"/><path fill="red" stroke="#000" d="M364.882 389.044l-7.796 13.494 7.793 13.5 15.592.006 7.795-13.5-7.792-13.506z"/><path fill="#003CFF" stroke="#000" d="M388.266 402.544l-7.798 13.494 7.794 13.5 15.591.006 7.795-13.5-7.793-13.506z"/><path fill="#0F0" stroke="#000" d="M364.876 416.044l-7.796 13.491 7.793 13.5 15.592.009 7.795-13.503-7.792-13.503z"/><path fill="red" stroke="#000" d="M388.27 429.55l-7.799 13.494 7.796 13.5 15.59.006 7.794-13.5-7.792-13.506z"/><path fill="#003CFF" stroke="#000" d="M411.651 443.05l-7.797 13.494 7.794 13.5 15.592.006 7.793-13.5-7.79-13.506z"/><path fill="red" stroke="#000" d="M247.963 267.531l-7.798 13.493 7.794 13.5 15.592.007 7.795-13.501-7.792-13.505z"/><path fill="#003CFF" stroke="#000" d="M271.346 281.03l-7.798 13.493 7.795 13.5 15.591.007 7.794-13.501-7.792-13.505zm-46.817 0l-7.798 13.493 7.795 13.5 15.591.007 7.794-13.501-7.792-13.505z"/><path fill="#0F0" stroke="#000" d="M247.957 294.529l-7.798 13.493 7.794 13.501 15.592.006 7.795-13.501-7.792-13.505z"/><path fill="red" stroke="#000" d="M201.163 267.525l-7.798 13.494 7.795 13.5 15.59.006 7.796-13.501-7.793-13.504z"/><path fill="#0F0" stroke="#000" d="M201.157 294.523l-7.798 13.494 7.795 13.501 15.59.005 7.796-13.501-7.793-13.504z"/><path fill="red" stroke="#000" d="M154.395 267.531l-7.797 13.493 7.794 13.5 15.591.007 7.793-13.501-7.79-13.505z"/><path fill="#003CFF" stroke="#000" d="M177.776 281.03l-7.796 13.493 7.793 13.5 15.592.007 7.795-13.501-7.792-13.505z"/><path fill="#0F0" stroke="#000" d="M154.389 294.529l-7.797 13.493 7.794 13.501 15.592.006 7.793-13.501-7.791-13.505z"/><path fill="red" stroke="#000" d="M107.627 267.523l-7.798 13.494 7.795 13.5 15.591.006 7.795-13.501-7.792-13.504z"/><path fill="#003CFF" stroke="#000" d="M131.01 281.022l-7.798 13.494 7.795 13.5 15.591.006 7.794-13.501-7.791-13.504z"/><path fill="red" stroke="#000" d="M84.248 308.026l-7.797 13.495 7.795 13.5 15.591.005 7.794-13.5-7.791-13.505z"/><path fill="#0F0" stroke="#000" d="M84.242 335.025l-7.797 13.493 7.795 13.5 15.591.007 7.794-13.502-7.791-13.503z"/><path fill="#003CFF" stroke="#000" d="M84.249 362.023l-7.797 13.495 7.794 13.5 15.592.005 7.794-13.5-7.792-13.505zm-.01-81.001l-7.798 13.494 7.795 13.5 15.59.006 7.795-13.501-7.792-13.504zm23.403 40.498l-7.798 13.492 7.795 13.5 15.59.008 7.794-13.502-7.792-13.504z"/><path fill="#0F0" stroke="#000" d="M107.621 294.521l-7.798 13.495 7.795 13.499 15.591.006 7.795-13.5-7.792-13.505z"/><path fill="red" stroke="#000" d="M37.462 308.016l-7.797 13.493 7.794 13.5 15.592.007 7.794-13.501-7.792-13.505z"/><path fill="#003CFF" stroke="#000" d="M60.845 321.515l-7.798 13.494 7.795 13.5 15.591.006 7.795-13.5-7.792-13.506z"/><path fill="#0F0" stroke="#000" d="M37.456 335.015l-7.797 13.494 7.794 13.5 15.592.006 7.794-13.5-7.792-13.506z"/><path fill="red" stroke="#000" d="M60.849 348.521l-7.798 13.494 7.795 13.5 15.591.006 7.793-13.5-7.791-13.505z"/><path fill="#0F0" stroke="#000" d="M60.843 375.521l-7.798 13.494 7.795 13.5 15.591.006 7.794-13.5-7.791-13.506z"/><path fill="red" stroke="#000" d="M14.08 348.515l-7.797 13.494 7.794 13.5 15.591.006 7.795-13.5-7.791-13.506z"/><path fill="#003CFF" stroke="#000" d="M37.463 362.015l-7.797 13.493 7.794 13.5 15.591.007 7.795-13.501-7.792-13.505z"/><path fill="#0F0" stroke="#000" d="M14.074 375.514l-7.797 13.492 7.794 13.5 15.591.008 7.795-13.502-7.791-13.504z"/><path fill="red" stroke="#000" d="M37.467 389.021l-7.798 13.494 7.795 13.5 15.591.006 7.795-13.5-7.792-13.506z"/><path fill="#003CFF" stroke="#000" d="M60.85 402.521l-7.798 13.493 7.794 13.5 15.592.007 7.793-13.501-7.791-13.505z"/><path fill="#0F0" stroke="#000" d="M37.461 416.02l-7.798 13.492 7.795 13.5 15.591.006 7.795-13.5-7.792-13.504z"/><path fill="#003CFF" stroke="#000" d="M14.068 402.512l-7.797 13.494 7.794 13.5 15.591.006 7.795-13.5-7.791-13.506z"/><path fill="red" stroke="#000" d="M60.838 267.521l-7.798 13.493 7.794 13.5 15.592.007 7.793-13.501-7.789-13.505z"/><path fill="#0F0" stroke="#000" d="M60.832 294.52l-7.798 13.493 7.794 13.499 15.592.008 7.793-13.501-7.789-13.505z"/><path fill="red" stroke="#000" d="M14.069 267.514l-7.798 13.493 7.795 13.5 15.591.007 7.796-13.501-7.793-13.505z"/><path fill="#003CFF" stroke="#000" d="M37.453 281.013l-7.799 13.493 7.795 13.5 15.591.007 7.794-13.501-7.791-13.505zm-23.369 40.496l-7.798 13.494 7.795 13.5 15.591.006 7.794-13.5-7.792-13.506z"/><path fill="#0F0" stroke="#000" d="M14.063 294.512l-7.797 13.493 7.795 13.501 15.59.006 7.796-13.501-7.793-13.505z"/><path fill="red" stroke="#000" d="M271.349 308.037l-7.798 13.492 7.795 13.5 15.592.008 7.792-13.502-7.79-13.504z"/><path fill="#003CFF" stroke="#000" d="M294.73 321.535l-7.795 13.494 7.793 13.5 15.591.006 7.794-13.5-7.791-13.506z"/><path fill="#0F0" stroke="#000" d="M271.343 335.035l-7.798 13.494 7.795 13.5 15.592.006 7.793-13.5-7.79-13.506z"/><path fill="red" stroke="#000" d="M294.734 348.531l-7.796 13.492 7.794 13.5 15.59.009 7.796-13.503-7.793-13.504z"/><path fill="#003CFF" stroke="#000" d="M318.118 362.029l-7.799 13.494 7.796 13.5 15.59.006 7.795-13.5-7.791-13.506z"/><path fill="#0F0" stroke="#000" d="M294.729 375.529l-7.797 13.494 7.795 13.5 15.589.006 7.796-13.5-7.793-13.506z"/><path fill="red" stroke="#000" d="M318.121 389.038l-7.797 13.491 7.794 13.5 15.592.006 7.793-13.5-7.79-13.503z"/><path fill="#003CFF" stroke="#000" d="M341.503 402.535l-7.796 13.494 7.793 13.5 15.592.006 7.795-13.5-7.792-13.506z"/><path fill="#0F0" stroke="#000" d="M318.115 416.035l-7.797 13.494 7.794 13.5 15.592.006 7.793-13.5-7.79-13.506z"/><path fill="red" stroke="#000" d="M341.5 429.541l-7.796 13.494 7.793 13.5 15.592.006 7.794-13.5-7.791-13.506z"/><path fill="#003CFF" stroke="#000" d="M364.883 443.041l-7.797 13.494 7.795 13.5 15.59.006 7.796-13.5-7.793-13.506z"/><path fill="red" stroke="#000" d="M224.568 308.028l-7.797 13.493 7.794 13.5 15.591.008 7.795-13.502-7.792-13.505z"/><path fill="#003CFF" stroke="#000" d="M247.951 321.527l-7.798 13.494 7.794 13.5 15.592.006 7.795-13.501-7.792-13.505z"/><path fill="#0F0" stroke="#000" d="M224.562 335.026l-7.797 13.495 7.795 13.5 15.59.005 7.795-13.5-7.792-13.505z"/><path fill="red" stroke="#000" d="M247.954 348.535l-7.797 13.494 7.794 13.5 15.592.006 7.794-13.5-7.792-13.506z"/><path fill="#003CFF" stroke="#000" d="M271.337 362.035l-7.798 13.491 7.795 13.5 15.592.009 7.793-13.503-7.79-13.503z"/><path fill="#0F0" stroke="#000" d="M247.948 375.532l-7.797 13.494 7.794 13.5 15.592.006 7.794-13.5-7.792-13.506z"/><path fill="red" stroke="#000" d="M271.34 389.029l-7.797 13.494 7.794 13.5 15.592.006 7.794-13.5-7.791-13.506z"/><path fill="#003CFF" stroke="#000" d="M294.723 402.529l-7.797 13.492 7.795 13.5 15.59.008 7.795-13.503-7.793-13.503z"/><path fill="#0F0" stroke="#000" d="M271.334 416.026l-7.797 13.495 7.794 13.5 15.592.008 7.794-13.503-7.791-13.505z"/><path fill="red" stroke="#000" d="M294.728 429.535l-7.799 13.494 7.796 13.5 15.589.006 7.795-13.5-7.791-13.506z"/><path fill="#003CFF" stroke="#000" d="M318.109 443.035l-7.797 13.494 7.794 13.5 15.592.006 7.793-13.5-7.79-13.506z"/><path fill="red" stroke="#000" d="M528.588 267.537l-7.797 13.494 7.795 13.5 15.592.006 7.794-13.5-7.792-13.506z"/><path fill="#003CFF" stroke="#000" d="M551.972 281.037l-7.798 13.494 7.795 13.5 15.59.006 7.796-13.5-7.793-13.506z"/><path fill="#0F0" stroke="#000" d="M528.582 294.537l-7.797 13.493 7.795 13.499 15.592.009 7.794-13.502-7.792-13.505z"/><path fill="red" stroke="#000" d="M551.977 308.043l-7.799 13.495 7.795 13.5 15.59.006 7.794-13.5-7.791-13.507z"/><path fill="#003CFF" stroke="#000" d="M575.357 321.544l-7.796 13.494 7.794 13.5 15.592.006 7.793-13.5-7.791-13.506z"/><path fill="#0F0" stroke="#000" d="M551.971 335.044l-7.799 13.491 7.795 13.5 15.591.009 7.794-13.503-7.791-13.503z"/><path fill="red" stroke="#000" d="M575.361 348.538l-7.797 13.494 7.793 13.5 15.592.006 7.795-13.5-7.791-13.506z"/><path fill="#003CFF" stroke="#000" d="M598.744 362.038l-7.797 13.494 7.794 13.5 15.591.006 7.795-13.5-7.793-13.506z"/><path fill="#0F0" stroke="#000" d="M575.355 375.538l-7.796 13.491 7.793 13.5 15.591.009 7.795-13.503-7.791-13.503z"/><path fill="red" stroke="#000" d="M575.264 267.514l-7.799 13.494 7.797 13.5 15.59.006 7.794-13.5-7.792-13.506z"/><path fill="#003CFF" stroke="#000" d="M598.646 281.014l-7.797 13.494 7.794 13.5 15.591.006 7.793-13.5-7.789-13.506z"/><path fill="#0F0" stroke="#000" d="M575.258 294.514l-7.799 13.493 7.797 13.499 15.59.009 7.795-13.502-7.792-13.505z"/><path fill="red" stroke="#000" d="M598.648 308.008l-7.794 13.495 7.792 13.5 15.592.006 7.794-13.5-7.792-13.507z"/><path fill="#0F0" stroke="#000" d="M598.643 335.009l-7.795 13.491 7.793 13.5 15.591.009 7.794-13.503-7.792-13.503z"/><path fill="red" stroke="#000" d="M598.748 389.044l-7.799 13.494 7.797 13.5 15.59.006 7.795-13.5-7.792-13.506z"/><path fill="#0F0" stroke="#000" d="M598.742 416.044l-7.799 13.491 7.797 13.5 15.59.009 7.795-13.503-7.792-13.503z"/><path fill="red" stroke="#000" d="M481.82 267.543l-7.796 13.494 7.793 13.5 15.592.006 7.794-13.5-7.791-13.506z"/><path fill="#003CFF" stroke="#000" d="M505.203 281.043l-7.797 13.494 7.795 13.5 15.59.006 7.795-13.5-7.792-13.506z"/><path fill="#0F0" stroke="#000" d="M481.814 294.543l-7.795 13.493 7.793 13.499 15.591.009 7.794-13.502-7.791-13.505z"/><path fill="red" stroke="#000" d="M505.208 308.049l-7.799 13.495 7.796 13.5 15.59.006 7.795-13.5-7.791-13.507z"/><path fill="#003CFF" stroke="#000" d="M528.59 321.55l-7.797 13.494 7.794 13.5 15.591.006 7.795-13.5-7.793-13.506z"/><path fill="#0F0" stroke="#000" d="M505.202 335.05l-7.799 13.491 7.796 13.5 15.59.009 7.795-13.503-7.791-13.503z"/><path fill="red" stroke="#000" d="M528.594 348.544l-7.797 13.494 7.795 13.5 15.59.006 7.795-13.5-7.792-13.506z"/><path fill="#003CFF" stroke="#000" d="M551.977 362.044l-7.798 13.494 7.794 13.5 15.591.006 7.793-13.5-7.789-13.506z"/><path fill="#0F0" stroke="#000" d="M528.588 375.544l-7.797 13.491 7.795 13.5 15.59.009 7.795-13.503-7.792-13.503z"/><path fill="red" stroke="#000" d="M551.979 389.05l-7.795 13.494 7.793 13.5 15.591.006 7.794-13.5-7.792-13.506z"/><path fill="#003CFF" stroke="#000" d="M575.362 402.55l-7.798 13.494 7.795 13.5 15.59.006 7.795-13.5-7.791-13.506z"/><path fill="#0F0" stroke="#000" d="M551.973 416.05l-7.795 13.491 7.793 13.5 15.591.009 7.794-13.503-7.792-13.503z"/><path fill="red" stroke="#000" d="M575.352 429.541l-7.795 13.494 7.793 13.5 15.591.006 7.794-13.5-7.792-13.506z"/><path fill="#003CFF" stroke="#000" d="M598.735 443.041l-7.797 13.494 7.794 13.5 15.59.006 7.797-13.5-7.793-13.506z"/><path fill="red" stroke="#000" d="M435.06 267.537l-7.798 13.493 7.795 13.5 15.591.006 7.793-13.5-7.79-13.505z"/><path fill="#003CFF" stroke="#000" d="M458.441 281.036l-7.795 13.494 7.792 13.5 15.592.006 7.794-13.5-7.791-13.506z"/><path fill="#0F0" stroke="#000" d="M435.054 294.536l-7.798 13.492 7.795 13.501 15.592.006 7.793-13.501-7.79-13.504z"/><path fill="red" stroke="#000" d="M458.438 308.042l-7.795 13.493 7.793 13.5 15.591.006 7.795-13.5-7.792-13.505z"/><path fill="#003CFF" stroke="#000" d="M481.822 321.541l-7.798 13.494 7.794 13.5 15.591.006 7.796-13.5-7.793-13.506z"/><path fill="#0F0" stroke="#000" d="M458.433 335.041l-7.796 13.494 7.793 13.5 15.591.006 7.795-13.5-7.792-13.506z"/><path fill="red" stroke="#000" d="M481.826 348.547l-7.799 13.494 7.796 13.5 15.591.006 7.794-13.5-7.792-13.506z"/><path fill="#003CFF" stroke="#000" d="M505.208 362.047l-7.798 13.494 7.795 13.5 15.592.006 7.795-13.5-7.792-13.506z"/><path fill="#0F0" stroke="#000" d="M481.82 375.547l-7.799 13.494 7.796 13.5 15.591.006 7.794-13.5-7.792-13.506z"/><path fill="red" stroke="#000" d="M505.211 389.041l-7.796 13.494 7.793 13.5 15.592.006 7.794-13.5-7.791-13.506z"/><path fill="#003CFF" stroke="#000" d="M528.594 402.541l-7.797 13.494 7.795 13.5 15.592.006 7.793-13.5-7.791-13.506z"/><path fill="#0F0" stroke="#000" d="M505.205 416.041l-7.796 13.494 7.793 13.5 15.592.006 7.794-13.5-7.791-13.506z"/><path fill="red" stroke="#000" d="M528.598 429.547l-7.798 13.494 7.794 13.5 15.592.006 7.794-13.5-7.791-13.506z"/><path fill="#003CFF" stroke="#000" d="M551.98 443.047l-7.796 13.494 7.794 13.5 15.59.006 7.794-13.5-7.792-13.506z"/><path fill="red" stroke="#000" d="M388.278 267.528l-7.796 13.494 7.793 13.5 15.592.006 7.795-13.5-7.792-13.506z"/><path fill="#003CFF" stroke="#000" d="M411.662 281.028l-7.798 13.492 7.794 13.5 15.591.008 7.796-13.503-7.793-13.503z"/><path fill="#0F0" stroke="#000" d="M388.272 294.525l-7.795 13.495 7.793 13.501 15.591.008 7.795-13.504-7.792-13.505z"/><path fill="red" stroke="#000" d="M411.666 308.034l-7.799 13.495 7.796 13.5 15.591.006 7.794-13.5-7.792-13.507z"/><path fill="#003CFF" stroke="#000" d="M435.048 321.535l-7.798 13.494 7.795 13.5 15.592.006 7.793-13.5-7.79-13.506z"/><path fill="#0F0" stroke="#000" d="M411.66 335.035l-7.799 13.491 7.796 13.5 15.591.009 7.794-13.503-7.792-13.503z"/><path fill="red" stroke="#000" d="M435.045 348.541l-7.797 13.494 7.794 13.5 15.592.006 7.793-13.5-7.79-13.506z"/><path fill="#003CFF" stroke="#000" d="M458.427 362.041l-7.796 13.494 7.793 13.5 15.592.006 7.795-13.5-7.792-13.506z"/><path fill="#0F0" stroke="#000" d="M435.039 375.541l-7.797 13.491 7.794 13.5 15.592.009 7.793-13.503-7.79-13.503z"/><path fill="red" stroke="#000" d="M458.432 389.047l-7.798 13.494 7.794 13.5 15.591.006 7.795-13.5-7.793-13.506z"/><path fill="#003CFF" stroke="#000" d="M481.814 402.547l-7.798 13.494 7.796 13.5 15.59.006 7.794-13.5-7.792-13.506z"/><path fill="#0F0" stroke="#000" d="M458.426 416.047l-7.798 13.491 7.794 13.5 15.591.009 7.796-13.503-7.793-13.503z"/><path fill="red" stroke="#000" d="M481.817 429.541l-7.797 13.494 7.794 13.5 15.592.006 7.793-13.5-7.79-13.506z"/><path fill="#003CFF" stroke="#000" d="M505.199 443.041l-7.796 13.494 7.793 13.5 15.592.006 7.794-13.5-7.791-13.506zm23.387-202.509l-7.798 13.494 7.794 13.5 15.592.006 7.793-13.5-7.789-13.506z"/><path fill="#0F0" stroke="#000" d="M505.197 254.032l-7.797 13.491 7.795 13.5 15.59.009 7.795-13.503-7.792-13.503z"/><path opacity=".85" fill="#FFF" d="M632 484.006H-2V-.505h634v484.511zM185.56 159.501l46.761-80.993-93.529-.002-46.764 80.998 93.532-.003zM162.177 281L92.029 402.5l140.3-.006L302.474 281H162.177zm233.821.012l-.003 80.994 70.154 40.5-.003-80.996-70.148-40.498zm46.77-81.008l93.533-81.005-116.918-40.501-93.529 81.006 116.914 40.5z"/><path fill="none" stroke="#666" stroke-width="3" stroke-dasharray="3" d="M92.027 159.504l46.766-81.003 93.527.005-46.764 81zm233.828-.004l93.53-80.996L536.301 119l-93.533 81.004zM395.998 281l.003 81.006 70.151 40.494-.007-81zm-93.524 0l-140.301.007-70.148 121.499 140.295-.006z"/><text transform="translate(482 364)"><tspan x="0" y="0" font-family="Times,serif" font-style="italic" font-size="36" letter-spacing="-3">F</tspan><tspan x="18.391" y="8" font-family="Times,serif" font-size="24">18</tspan></text><text transform="translate(222 127)"><tspan x="0" y="0" font-family="Times,serif" font-style="italic" font-size="36" letter-spacing="-3">F</tspan><tspan x="18.391" y="8" font-family="Times,serif" font-size="24">24</tspan></text><text transform="translate(501 182)"><tspan x="0" y="0" font-family="Times,serif" font-style="italic" font-size="36" letter-spacing="-3">F</tspan><tspan x="18.391" y="8" font-family="Times,serif" font-size="24">42</tspan></text><text transform="translate(275 364)"><tspan x="0" y="0" font-family="Times,serif" font-style="italic" font-size="36" letter-spacing="-3">F</tspan><tspan x="18.391" y="8" font-family="Times,serif" font-size="24">54</tspan></text></svg>