<svg xmlns="http://www.w3.org/2000/svg" width="523" height="418"><path fill="red" d="M424.283 11.057v-.008a5.107 5.107 0 0 0-5.105-5.097 5.12 5.12 0 0 0-3.609 1.496c-.953.957-1.492 2.258-1.492 3.609s.539 2.648 1.492 3.605a5.103 5.103 0 0 0 3.609 1.496c1.352.004 2.648-.531 3.605-1.488s1.496-2.25 1.5-3.605v-.008z"/><path fill="none" stroke="#000" stroke-width="2" d="M140.439 11.057h274.016"/><path fill="red" d="M140.695 11.057v-.008a4.99 4.99 0 0 0-1.463-3.52c-.936-.93-2.201-1.453-3.521-1.453s-2.586.527-3.518 1.461c-.934.934-1.457 2.199-1.457 3.52s.523 2.586 1.457 3.52c.932.934 2.197 1.461 3.518 1.461s2.586-.523 3.521-1.453a4.989 4.989 0 0 0 1.463-3.52v-.008zm378.073 94.488v-.008a5.12 5.12 0 0 0-1.496-3.602 5.113 5.113 0 0 0-3.609-1.492 5.104 5.104 0 0 0-5.094 5.101c0 1.351.539 2.648 1.492 3.605a5.098 5.098 0 0 0 3.602 1.492 5.09 5.09 0 0 0 5.105-5.09v-.006z"/><path fill="none" stroke="#000" stroke-width="2" d="M135.715 100.818V15.779m4.724 89.766h368.504"/><path fill="red" d="M140.668 105.545v-.008a4.96 4.96 0 0 0-1.455-3.5c-.93-.926-2.189-1.445-3.502-1.445s-2.57.523-3.498 1.453a4.95 4.95 0 0 0 3.498 8.453c1.312 0 2.572-.52 3.502-1.445a4.96 4.96 0 0 0 1.455-3.5v-.008z"/><path fill="none" stroke="#000" stroke-width="2" d="M419.178 195.305V15.779"/><path fill="red" d="M424.217 200.031v-.008a5.013 5.013 0 0 0-1.48-3.555 4.997 4.997 0 0 0-3.559-1.469 5.034 5.034 0 0 0-3.562 8.594 5.04 5.04 0 0 0 7.121.008 5.043 5.043 0 0 0 1.48-3.562v-.008z"/><path fill="none" stroke="#000" stroke-width="2" d="M329.416 200.031h85.039"/><path fill="red" d="M329.693 200.031v-.008a5.005 5.005 0 0 0-10.008.008c0 1.328.531 2.602 1.469 3.539a5 5 0 0 0 7.07.008 5.012 5.012 0 0 0 1.469-3.539v-.008z"/><path fill="none" stroke="#000" stroke-width="2" d="M513.67 289.797V110.268"/><path fill="red" d="M518.686 294.523v-.008a5.004 5.004 0 0 0-1.477-3.547 4.979 4.979 0 0 0-3.547-1.461 4.99 4.99 0 0 0-3.543 1.469 4.997 4.997 0 0 0-1.465 3.547c0 1.328.523 2.602 1.465 3.539a5.001 5.001 0 0 0 7.09.008 5.003 5.003 0 0 0 1.477-3.539v-.008z"/><path fill="none" stroke="#000" stroke-width="2" d="M324.693 289.797v-85.039m4.723 89.765h179.527"/><path fill="red" d="M329.654 294.523v-.008c-.004-1.32-.531-2.578-1.461-3.508s-2.191-1.445-3.508-1.445a4.943 4.943 0 0 0-3.5 1.453 4.955 4.955 0 0 0 0 7.008 4.984 4.984 0 0 0 3.5 1.461 4.975 4.975 0 0 0 4.969-4.953v-.008zM212.842 23.381v-.008a5.233 5.233 0 0 0-10.464.008 5.224 5.224 0 0 0 5.226 5.23 5.237 5.237 0 0 0 5.238-5.222v-.008z"/><path fill="none" stroke="#000" stroke-width="2" d="M110.402 22.74l24.032-11.094m-20.493 11.735h88.739"/><path fill="red" d="M114.189 23.381v-.008a5.166 5.166 0 0 0-1.521-3.656 5.166 5.166 0 0 0-7.318.004 5.18 5.18 0 0 0 7.318 7.328 5.175 5.175 0 0 0 1.521-3.66v-.008zm295.895 98.598v-.012a5.281 5.281 0 0 0-9.019-3.722 5.284 5.284 0 0 0-1.547 3.734 5.282 5.282 0 0 0 9.015 3.738 5.279 5.279 0 0 0 1.551-3.73v-.008z"/><path fill="none" stroke="#000" stroke-width="2" d="M207.609 117.049V28.311m4.93 93.668h187.334"/><path fill="red" d="M212.809 121.979v-.012c-.002-1.379-.551-2.699-1.527-3.672s-2.299-1.52-3.678-1.52a5.214 5.214 0 0 0-3.674 1.527 5.204 5.204 0 0 0 0 7.352 5.206 5.206 0 0 0 7.352.003 5.19 5.19 0 0 0 1.527-3.672v-.006zM508.67 220.57v-.008c-.008-1.398-.562-2.734-1.551-3.719s-2.332-1.539-3.727-1.539-2.734.555-3.723 1.547a5.27 5.27 0 0 0 3.723 8.993c1.395 0 2.738-.555 3.727-1.539s1.543-2.328 1.551-3.719v-.016z"/><path fill="none" stroke="#000" stroke-width="2" d="M109.012 215.641V28.311m4.929 192.259h384.526"/><path fill="red" d="M114.119 220.57v-.008a5.09 5.09 0 0 0-1.5-3.602 5.06 5.06 0 0 0-3.611-1.492 5.118 5.118 0 0 0-3.609 1.492 5.115 5.115 0 0 0 0 7.226c.957.953 2.256 1.492 3.609 1.492s2.652-.531 3.611-1.492a5.089 5.089 0 0 0 1.5-3.602v-.014z"/><path fill="none" stroke="#000" stroke-width="2" d="M503.932 317.891l9.246-22.188m-9.782 18.539V225.5"/><path fill="red" d="M508.615 319.172v-.008a5.226 5.226 0 0 0-1.531-3.688 5.221 5.221 0 0 0-3.691-1.523 5.184 5.184 0 0 0-3.684 1.531 5.21 5.21 0 0 0 0 7.376 5.213 5.213 0 0 0 7.375.008 5.222 5.222 0 0 0 1.531-3.688v-.008z"/><path fill="none" stroke="#000" stroke-width="2" d="M404.803 314.242V126.908m4.929 192.264h88.735"/><path fill="red" d="M409.99 319.172v-.008a5.181 5.181 0 0 0-1.523-3.672 5.211 5.211 0 0 0-3.672-1.516 5.197 5.197 0 0 0-5.187 5.195c0 1.375.547 2.695 1.523 3.664a5.159 5.159 0 0 0 3.664 1.523 5.178 5.178 0 0 0 3.672-1.516 5.159 5.159 0 0 0 1.523-3.664v-.006zm87.785-282.346v-.012a5.578 5.578 0 0 0-1.641-3.941 5.58 5.58 0 0 0-9.523 3.953 5.58 5.58 0 0 0 9.523 3.953 5.583 5.583 0 0 0 1.641-3.945v-.008z"/><path fill="none" stroke="#000" stroke-width="2" d="M389.936 36.123l28.554-24.477m-24.219 25.18h92.766"/><path fill="red" d="M394.662 36.826v-.012a5.55 5.55 0 0 0-5.551-5.539 5.574 5.574 0 0 0-3.922 1.629 5.543 5.543 0 0 0-1.621 3.922 5.55 5.55 0 0 0 1.621 3.922 5.553 5.553 0 0 0 3.922 1.625c1.473.004 2.879-.578 3.922-1.617s1.629-2.449 1.629-3.922v-.008z"/><path fill="none" stroke="#000" stroke-width="2" d="M389.936 138.971l14.113-16.133m-14.934 11.91V41.979"/><path fill="red" d="M394.627 139.904v-.012a5.513 5.513 0 0 0-9.411-3.883 5.518 5.518 0 0 0 0 7.79 5.512 5.512 0 0 0 7.79.008 5.52 5.52 0 0 0 1.621-3.895v-.008z"/><path fill="none" stroke="#000" stroke-width="2" d="M291.193 139.904h92.766"/><path fill="red" d="M291.506 139.904v-.012a5.433 5.433 0 0 0-1.609-3.859 5.465 5.465 0 0 0-7.726 7.734 5.46 5.46 0 0 0 7.726.007 5.442 5.442 0 0 0 1.609-3.863v-.007z"/><path fill="none" stroke="#000" stroke-width="2" d="M492.779 241.812l10.082-20.164m-10.668 16.18V41.979"/><path fill="red" d="M497.686 242.984v-.016a5.497 5.497 0 0 0-5.496-5.484 5.524 5.524 0 0 0-3.883 1.617 5.48 5.48 0 0 0-1.605 3.883c0 1.453.578 2.852 1.605 3.883s2.426 1.609 3.883 1.609 2.855-.578 3.887-1.602a5.495 5.495 0 0 0 1.609-3.883v-.007z"/><path fill="none" stroke="#000" stroke-width="2" d="M188.113 242.984h298.924"/><path fill="red" d="M188.33 242.984v-.016a5.366 5.366 0 0 0-1.578-3.789 5.365 5.365 0 0 0-7.592.008 5.365 5.365 0 0 0-1.572 3.797c0 1.422.566 2.789 1.572 3.797s2.371 1.57 3.795 1.57 2.789-.562 3.797-1.57a5.352 5.352 0 0 0 1.578-3.789v-.008z"/><path fill="none" stroke="#000" stroke-width="2" d="M287.092 344.656l36.711-48.953m-37.766 45.203V145.057"/><path fill="red" d="M291.404 346.062v-.016a5.374 5.374 0 0 0-1.578-3.789 5.385 5.385 0 0 0-3.793-1.562 5.36 5.36 0 0 0-5.363 5.367c0 1.422.566 2.781 1.57 3.789a5.4 5.4 0 0 0 3.793 1.578 5.374 5.374 0 0 0 5.371-5.359v-.008z"/><path fill="none" stroke="#000" stroke-width="2" d="M182.959 340.906v-92.773m5.154 97.929h92.768"/><path fill="red" d="M188.277 346.062v-.016a5.31 5.31 0 0 0-1.562-3.75c-.998-1-2.35-1.555-3.76-1.555s-2.762.562-3.758 1.562a5.3 5.3 0 0 0-1.555 3.758c0 1.406.559 2.758 1.555 3.758a5.33 5.33 0 0 0 7.518.008 5.339 5.339 0 0 0 1.562-3.758v-.007zm81.424-294.509v-.012a5.758 5.758 0 0 0-1.689-4.062 5.771 5.771 0 0 0-4.066-1.68 5.763 5.763 0 0 0-4.064 1.688 5.75 5.75 0 0 0 4.064 9.816 5.754 5.754 0 0 0 5.755-5.742v-.008z"/><path fill="none" stroke="#000" stroke-width="2" d="M157.373 50.783l49.055-26.758m-45.067 27.528h97.19"/><path fill="red" d="M161.654 51.553v-.012c-.002-1.508-.604-2.953-1.672-4.02s-2.516-1.664-4.025-1.66a5.69 5.69 0 0 0-4.02 9.711 5.692 5.692 0 0 0 4.02 1.672 5.696 5.696 0 0 0 5.697-5.684v-.007z"/><path fill="none" stroke="#000" stroke-width="2" d="M265.104 158.514l19.878-17.672m-21.033 13.297V56.951"/><path fill="red" d="M269.658 159.537v-.008a5.704 5.704 0 0 0-5.713-5.699 5.706 5.706 0 0 0-4.035 9.742 5.706 5.706 0 0 0 8.07.008 5.708 5.708 0 0 0 1.678-4.031v-.012z"/><path fill="none" stroke="#000" stroke-width="2" d="M49.645 158.514l84.789-52.18m-81.059 53.203h205.176"/><path fill="red" d="M53.559 159.537v-.008a5.583 5.583 0 0 0-9.531-3.937 5.584 5.584 0 0 0 0 7.89 5.578 5.578 0 0 0 7.89.008 5.581 5.581 0 0 0 1.641-3.941v-.012z"/><path fill="none" stroke="#000" stroke-width="2" d="M372.834 266.242l45.656-65.226"/><path fill="red" d="M377.639 267.523v-.008a5.693 5.693 0 0 0-1.676-4.031 5.702 5.702 0 1 0-4.031 9.742 5.7 5.7 0 0 0 5.707-5.695v-.008z"/><path fill="none" stroke="#000" stroke-width="2" d="M157.373 266.242l24.295-22.086m-25.705 17.969V56.951m5.398 210.572h205.176"/><path fill="red" d="M161.562 267.523v-.008a5.613 5.613 0 0 0-5.603-5.594 5.619 5.619 0 0 0-3.957 1.648c-1.049 1.047-1.639 2.469-1.639 3.953s.59 2.906 1.639 3.961a5.608 5.608 0 0 0 3.957 1.641 5.607 5.607 0 0 0 3.957-1.633 5.628 5.628 0 0 0 1.646-3.961v-.007z"/><path fill="none" stroke="#000" stroke-width="2" d="M372.834 373.969l31.215-53.508m-32.113 49.648v-97.187"/><path fill="red" d="M377.576 375.508v-.008a5.667 5.667 0 0 0-1.656-3.984 5.618 5.618 0 0 0-3.988-1.641 5.643 5.643 0 0 0-3.984 1.648 5.64 5.64 0 0 0 0 7.976c1.059 1.055 2.488 1.648 3.984 1.648s2.926-.586 3.988-1.648a5.647 5.647 0 0 0 1.656-3.977v-.014z"/><path fill="none" stroke="#000" stroke-width="2" d="M47.977 370.109V164.936m5.398 210.572h313.162"/><path fill="red" d="M53.449 375.508v-.008a5.467 5.467 0 0 0-1.607-3.867 5.483 5.483 0 0 0-7.738.008 5.49 5.49 0 0 0-1.602 3.867 5.49 5.49 0 0 0 1.602 3.875 5.481 5.481 0 0 0 3.867 1.602c1.451 0 2.844-.57 3.871-1.602a5.463 5.463 0 0 0 1.607-3.859v-.016z"/><path fill="none" stroke="#000" stroke-width="2" d="M467.131 66.9l24.476-29.371"/><path fill="red" d="M472.545 67.748v-.008a6.118 6.118 0 0 0-6.125-6.113 6.124 6.124 0 0 0-4.328 10.449 6.118 6.118 0 0 0 4.328 1.793 6.117 6.117 0 0 0 6.125-6.109v-.012z"/><path fill="none" stroke="#000" stroke-width="2" d="M240.926 66.9l21.863-14.574m-17.467 15.422h215.434"/><path fill="red" d="M245.672 67.748v-.008a6.024 6.024 0 0 0-1.768-4.254 6.04 6.04 0 0 0-4.258-1.758 6.026 6.026 0 0 0-6.014 6.02 6.02 6.02 0 0 0 12.04.012v-.012z"/><path fill="none" stroke="#000" stroke-width="2" d="M467.131 180.006l46.047-73.672m-46.754 69.133V73.42"/><path fill="red" d="M472.494 181.135v-.012a6.076 6.076 0 0 0-6.074-6.058 6.075 6.075 0 0 0-6.066 6.07c0 1.609.641 3.152 1.777 4.287 1.137 1.141 2.68 1.781 4.289 1.781s3.152-.633 4.289-1.773a6.057 6.057 0 0 0 1.785-4.283v-.012z"/><path fill="none" stroke="#000" stroke-width="2" d="M127.822 180.006l78.606-57.168m-74.492 58.297h328.82"/><path fill="red" d="M132.17 181.135v-.012a5.898 5.898 0 0 0-5.908-5.891 5.899 5.899 0 0 0-4.172 10.072c1.105 1.109 2.607 1.734 4.172 1.734s3.066-.617 4.174-1.727a5.89 5.89 0 0 0 1.734-4.166v-.01z"/><path fill="none" stroke="#000" stroke-width="2" d="M240.926 293.109l82.877-92.093m-84.151 87.836V73.42"/><path fill="red" d="M245.562 294.523v-.016c-.002-1.562-.627-3.062-1.736-4.172s-2.611-1.727-4.18-1.727a5.905 5.905 0 0 0-4.176 1.734 5.907 5.907 0 0 0 0 8.352 5.902 5.902 0 0 0 4.176 1.734c1.568 0 3.07-.617 4.18-1.727a5.889 5.889 0 0 0 1.736-4.172v-.006z"/><path fill="none" stroke="#000" stroke-width="2" d="M14.719 293.109l92.896-71.461m-89.064 72.875h215.431"/><path fill="red" d="M18.65 294.523v-.016a5.758 5.758 0 0 0-1.695-4.07c-1.082-1.078-2.551-1.688-4.08-1.688s-2.994.609-4.076 1.695a5.764 5.764 0 0 0-1.688 4.078c0 1.523.607 2.992 1.688 4.078a5.778 5.778 0 0 0 8.156.008 5.776 5.776 0 0 0 1.695-4.078v-.007z"/><path fill="none" stroke="#000" stroke-width="2" d="M127.822 406.211l53.846-58.742m-55.4 54.765V186.805"/><path fill="red" d="M132.043 407.906v-.008a5.764 5.764 0 0 0-1.697-4.078 5.784 5.784 0 0 0-8.166 0 5.789 5.789 0 0 0 0 8.172 5.789 5.789 0 0 0 4.082 1.688c1.531.008 3-.602 4.084-1.68a5.797 5.797 0 0 0 1.697-4.086v-.008z"/><path fill="none" stroke="#000" stroke-width="2" d="M14.719 406.211l31.582-29.156m-33.42 25.179V300.188m5.67 107.718h102.047"/><path fill="red" d="M18.584 407.906v-.008a5.702 5.702 0 0 0-9.738-4.023 5.712 5.712 0 0 0-1.668 4.031 5.698 5.698 0 0 0 5.697 5.703 5.7 5.7 0 0 0 5.709-5.695v-.008z"/></svg>