<svg xmlns="http://www.w3.org/2000/svg" width="765" height="324"><text transform="translate(13.5 321)" fill="#8C8C8C" font-family="Times,serif" font-size="18">0</text><text transform="translate(40.5 321)" fill="#8C8C8C" font-family="Times,serif" font-size="18">1</text><text transform="translate(67.5 321)" fill="#8C8C8C" font-family="Times,serif" font-size="18">2</text><text transform="translate(94.5 321)" fill="#8C8C8C" font-family="Times,serif" font-size="18">3</text><text transform="translate(121.5 321)" fill="#8C8C8C" font-family="Times,serif" font-size="18">0</text><text transform="translate(148.5 321)" fill="#8C8C8C" font-family="Times,serif" font-size="18">4</text><text transform="translate(175.5 321)" fill="#8C8C8C" font-family="Times,serif" font-size="18">5</text><text transform="translate(202.5 321)" fill="#8C8C8C" font-family="Times,serif" font-size="18">3</text><text transform="translate(229.5 321)" fill="#8C8C8C" font-family="Times,serif" font-size="18">6</text><text transform="translate(256.5 321)" fill="#8C8C8C" font-family="Times,serif" font-size="18">7</text><text transform="translate(283.5 321)" fill="#8C8C8C" font-family="Times,serif" font-size="18">8</text><text transform="translate(310.5 321)" fill="#8C8C8C" font-family="Times,serif" font-size="18">5</text><text transform="translate(337.5 321)" fill="#8C8C8C" font-family="Times,serif" font-size="18">2</text><text transform="translate(364.5 321)" fill="#8C8C8C" font-family="Times,serif" font-size="18">9</text><text transform="translate(387 321)" fill="#8C8C8C" font-family="Times,serif" font-size="18">10</text><text transform="translate(414 321)" fill="#8C8C8C" font-family="Times,serif" font-size="18">11</text><text transform="translate(445.5 321)" fill="#8C8C8C" font-family="Times,serif" font-size="18">8</text><text transform="translate(468 321)" fill="#8C8C8C" font-family="Times,serif" font-size="18">12</text><text transform="translate(495 321)" fill="#8C8C8C" font-family="Times,serif" font-size="18">11</text><text transform="translate(526.5 321)" fill="#8C8C8C" font-family="Times,serif" font-size="18">7</text><text transform="translate(549 321)" fill="#8C8C8C" font-family="Times,serif" font-size="18">13</text><text transform="translate(576 321)" fill="#8C8C8C" font-family="Times,serif" font-size="18">12</text><text transform="translate(603 321)" fill="#8C8C8C" font-family="Times,serif" font-size="18">10</text><text transform="translate(634.5 321)" fill="#8C8C8C" font-family="Times,serif" font-size="18">6</text><text transform="translate(661.5 321)" fill="#8C8C8C" font-family="Times,serif" font-size="18">4</text><text transform="translate(688.5 321)" fill="#8C8C8C" font-family="Times,serif" font-size="18">1</text><text transform="translate(711 321)" fill="#8C8C8C" font-family="Times,serif" font-size="18">13</text><text transform="translate(742.5 321)" fill="#8C8C8C" font-family="Times,serif" font-size="18">9</text><path fill="none" stroke="#000" stroke-dasharray="4,2" d="M0 303h765"/><path fill="none" stroke="#0060B6" stroke-width="2" stroke-dasharray="4,2" d="M126 303v-30c0-6.627-5.373-12-12-12H30c-6.627 0-12 5.373-12 12v30"/><path fill="none" stroke="#0060B6" stroke-width="2" stroke-dasharray="4,2" d="M207 303v-66c0-6.627-5.373-12-12-12h-84c-6.627 0-12 5.373-12 12v66"/><path fill="none" stroke="#0060B6" stroke-width="2" stroke-dasharray="4,2" d="M342 303V201c0-6.627-5.373-12-12-12H84c-6.627 0-12 5.373-12 12v102"/><path fill="none" stroke="#0060B6" stroke-width="2" stroke-dasharray="4,2" d="M315 303v-30c0-6.627-5.373-12-12-12H192c-6.627 0-12 5.373-12 12v30"/><path fill="none" stroke="#0060B6" stroke-width="2" stroke-dasharray="4,2" d="M450 303v-66c0-6.627-5.373-12-12-12H300c-6.627 0-12 5.373-12 12v66"/><path fill="none" stroke="#0060B6" stroke-width="2" stroke-dasharray="4,2" d="M531 303V165c0-6.627-5.373-12-12-12H273c-6.627 0-12 5.373-12 12v138"/><path fill="none" stroke="#0060B6" stroke-width="2" stroke-dasharray="4,2" d="M504 303v-30c0-6.627-5.373-12-12-12h-57c-6.627 0-12 5.373-12 12v30"/><path fill="none" stroke="#0060B6" stroke-width="2" stroke-dasharray="4,2" d="M612 303V201c0-6.627-5.373-12-12-12H408c-6.627 0-12 5.373-12 12v102"/><path fill="none" stroke="#0060B6" stroke-width="2" stroke-dasharray="4,2" d="M720 303v-30c0-6.627-5.373-12-12-12H570c-6.627 0-12 5.373-12 12v30"/><path fill="none" stroke="#0060B6" stroke-width="2" stroke-dasharray="4,2" d="M747 303V129c0-6.627-5.373-12-12-12H381c-6.627 0-12 5.373-12 12v174"/><path fill="none" stroke="#0060B6" stroke-width="2" stroke-dasharray="4,2" d="M639 303V93c0-6.627-5.373-12-12-12H246c-6.627 0-12 5.373-12 12v210"/><path fill="none" stroke="#0060B6" stroke-width="2" stroke-dasharray="4,2" d="M666 303V57c0-6.627-5.373-12-12-12H165c-6.627 0-12 5.373-12 12v246"/><path fill="none" stroke="#0060B6" stroke-width="2" stroke-dasharray="4,2" d="M693 303V21c0-6.627-5.373-12-12-12H57c-6.627 0-12 5.373-12 12v282"/><text transform="translate(16.945 36)" fill="#BF0000" font-family="Times,serif" font-size="14">Ø</text><text transform="translate(81.5 45)" fill="#BF0000" font-family="Times,serif" font-size="14">1</text><text transform="translate(27.5 295)" fill="#BF0000" font-family="Times,serif" font-size="14">0</text><text transform="translate(49.25 281)" fill="#BF0000" font-family="Times,serif" font-size="14">0,1</text><text transform="translate(76.25 295)" fill="#BF0000" font-family="Times,serif" font-size="14">0,2</text><text transform="translate(103.25 281)" fill="#BF0000" font-family="Times,serif" font-size="14">0,3</text><text transform="translate(90.5 216)" fill="#BF0000" font-family="Times,serif" font-size="14">2</text><text transform="translate(117.5 252)" fill="#BF0000" font-family="Times,serif" font-size="14">3</text><text transform="translate(180.5 72)" fill="#BF0000" font-family="Times,serif" font-size="14">4</text><text transform="translate(166.25 216)" fill="#BF0000" font-family="Times,serif" font-size="14">2,4</text><text transform="translate(166.25 252)" fill="#BF0000" font-family="Times,serif" font-size="14">3,4</text><text transform="translate(184.25 295)" fill="#BF0000" font-family="Times,serif" font-size="14">3,5</text><text transform="translate(216.5 281)" fill="#BF0000" font-family="Times,serif" font-size="14">5</text><text transform="translate(238.25 295)" fill="#BF0000" font-family="Times,serif" font-size="14">5,6</text><text transform="translate(265.25 281)" fill="#BF0000" font-family="Times,serif" font-size="14">5,7</text><text transform="translate(292.25 295)" fill="#BF0000" font-family="Times,serif" font-size="14">5,8</text><text transform="translate(301.25 252)" fill="#BF0000" font-family="Times,serif" font-size="14">2,8</text><text transform="translate(351.5 252)" fill="#BF0000" font-family="Times,serif" font-size="14">8</text><text transform="translate(373.25 252)" fill="#BF0000" font-family="Times,serif" font-size="14">8,9</text><text transform="translate(405.75 252)" fill="#BF0000" font-family="Times,serif" font-size="14">8,10</text><text transform="translate(423.75 288)" fill="#BF0000" font-family="Times,serif" font-size="14">8,11</text><text transform="translate(465 288)" fill="#BF0000" font-family="Times,serif" font-size="14">11</text><text transform="translate(238.25 216)" fill="#BF0000" font-family="Times,serif" font-size="14">2,6</text><text transform="translate(274.25 216)" fill="#BF0000" font-family="Times,serif" font-size="14">2,7</text><text transform="translate(288.5 180)" fill="#BF0000" font-family="Times,serif" font-size="14">7</text><text transform="translate(261.5 108)" fill="#BF0000" font-family="Times,serif" font-size="14">6</text><text transform="translate(391.25 144)" fill="#BF0000" font-family="Times,serif" font-size="14">6,9</text><text transform="translate(391.25 180)" fill="#BF0000" font-family="Times,serif" font-size="14">7,9</text><text transform="translate(414.75 216)" fill="#BF0000" font-family="Times,serif" font-size="14">7,10</text><text transform="translate(555 216)" fill="#BF0000" font-family="Times,serif" font-size="14">10</text><text transform="translate(643.25 144)" fill="#BF0000" font-family="Times,serif" font-size="14">4,9</text><text transform="translate(670.25 144)" fill="#BF0000" font-family="Times,serif" font-size="14">1,9</text><text transform="translate(711.5 144)" fill="#BF0000" font-family="Times,serif" font-size="14">9</text><text transform="translate(564.25 295)" fill="#BF0000" font-family="Times,serif" font-size="14">10,13</text><text transform="translate(612.75 281)" fill="#BF0000" font-family="Times,serif" font-size="14">6,13</text><text transform="translate(639.75 295)" fill="#BF0000" font-family="Times,serif" font-size="14">4,13</text><text transform="translate(666.75 281)" fill="#BF0000" font-family="Times,serif" font-size="14">1,13</text><text transform="translate(699 295)" fill="#BF0000" font-family="Times,serif" font-size="14">13</text></svg>