<svg xmlns="http://www.w3.org/2000/svg" width="288" height="216"><path fill="none" stroke="#0060B6" stroke-width="2" d="M126 153.001l36 45M162 108l36.001 45.001 36-45.001 36 45M162 198.001l36.001-45 36 45M125.999 63l-36-45-36 45M90 198l36-45 36-45-36.001-45L90 108 53.999 63 18 108"/><circle fill="#FFFFEB" stroke="#000" cx="162.001" cy="198" r="13.5"/><circle fill="#FFFFEB" stroke="#000" cx="234" cy="198" r="13.5"/><circle fill="#FFFFEB" stroke="#000" cx="90" cy="198" r="13.5"/><circle fill="#FFFFEB" stroke="#000" cx="198" cy="153" r="13.5"/><circle fill="#FFFFEB" stroke="#000" cx="126" cy="153" r="13.5"/><circle fill="#FFFFEB" stroke="#000" cx="18" cy="108" r="13.5"/><circle fill="#FFFFEB" stroke="#000" cx="90" cy="108" r="13.5"/><circle fill="#FFFFEB" stroke="#000" cx="162" cy="108" r="13.5"/><circle fill="#FFFFEB" stroke="#000" cx="270" cy="153" r="13.5"/><circle fill="#FFFFEB" stroke="#000" cx="53.999" cy="63" r="13.5"/><circle fill="#FFFFEB" stroke="#000" cx="125.999" cy="63" r="13.5"/><circle fill="#FFFFEB" stroke="#000" cx="234" cy="108" r="13.5"/><circle fill="#FFFFEB" stroke="#000" cx="89.999" cy="18" r="13.5"/><circle fill="#FFFFEB" stroke="#000" cx="17.999" cy="17.999" r="13.5"/><text transform="translate(13.498 23)" font-family="Times,serif" font-size="18">0</text><text transform="translate(85.499 23)" font-family="Times,serif" font-size="18">1</text><text transform="translate(229.498 113)" font-family="Times,serif" font-size="18">9</text><text transform="translate(49.498 68)" font-family="Times,serif" font-size="18">2</text><text transform="translate(121.499 68)" font-family="Times,serif" font-size="18">4</text><text transform="translate(13.5 113)" font-family="Times,serif" font-size="18">3</text><text transform="translate(85.5 113)" font-family="Times,serif" font-size="18">5</text><text transform="translate(157.499 113)" font-family="Times,serif" font-size="18">6</text><text transform="translate(121.5 158)" font-family="Times,serif" font-size="18">7</text><text transform="translate(85.5 203)" font-family="Times,serif" font-size="18">8</text><text transform="translate(189.001 158.001)" font-family="Times,serif" font-size="18">10</text><text transform="translate(225 203)" font-family="Times,serif" font-size="18">12</text><text transform="translate(153.002 203)" font-family="Times,serif" font-size="18">11</text><text transform="translate(261 158)" font-family="Times,serif" font-size="18">13</text></svg>