<svg xmlns="http://www.w3.org/2000/svg" width="774" height="324"><path opacity=".1" fill="#A0FF80" d="M135 303v-30c0-6.627-5.373-12-12-12H39c-6.627 0-12 5.373-12 12v30"/><path opacity=".1" fill="#A0FF80" d="M216 303v-66c0-6.627-5.373-12-12-12h-84c-6.627 0-12 5.373-12 12v66"/><path opacity=".1" fill="#A0FF80" d="M351 303V201c0-6.627-5.373-12-12-12H93c-6.627 0-12 5.373-12 12v102"/><path opacity=".1" fill="#A0FF80" d="M324 303v-30c0-6.627-5.373-12-12-12H201c-6.627 0-12 5.373-12 12v30"/><path opacity=".1" fill="#A0FF80" d="M459 303v-66c0-6.627-5.373-12-12-12H309c-6.627 0-12 5.373-12 12v66"/><path opacity=".1" fill="#A0FF80" d="M540 303V165c0-6.627-5.373-12-12-12H282c-6.627 0-12 5.373-12 12v138"/><path opacity=".1" fill="#A0FF80" d="M513 303v-30c0-6.627-5.373-12-12-12h-57c-6.627 0-12 5.373-12 12v30"/><path opacity=".1" fill="#A0FF80" d="M621 303V201c0-6.627-5.373-12-12-12H417c-6.627 0-12 5.373-12 12v102"/><path opacity=".1" fill="#A0FF80" d="M729 303v-30c0-6.627-5.373-12-12-12H579c-6.627 0-12 5.373-12 12v30"/><path opacity=".1" fill="#A0FF80" d="M756 303V129c0-6.627-5.373-12-12-12H390c-6.627 0-12 5.373-12 12v174"/><path opacity=".1" fill="#A0FF80" d="M648 303V93c0-6.627-5.373-12-12-12H255c-6.627 0-12 5.373-12 12v210"/><path opacity=".1" fill="#A0FF80" d="M675 303V57c0-6.627-5.373-12-12-12H174c-6.627 0-12 5.373-12 12v246"/><path opacity=".1" fill="#A0FF80" d="M702 303V21c0-6.627-5.373-12-12-12H66c-6.627 0-12 5.373-12 12v282"/><text transform="translate(22.5 321)" fill="#BF0000" font-family="Times,serif" font-size="18">0</text><text transform="translate(49.5 321)" fill="#BF0000" font-family="Times,serif" font-size="18">1</text><text transform="translate(76.5 321)" fill="#BF0000" font-family="Times,serif" font-size="18">2</text><text transform="translate(103.5 321)" fill="#BF0000" font-family="Times,serif" font-size="18">3</text><text transform="translate(130.5 321)" fill="#BF0000" font-family="Times,serif" font-size="18">0</text><text transform="translate(157.5 321)" fill="#BF0000" font-family="Times,serif" font-size="18">4</text><text transform="translate(184.5 321)" fill="#BF0000" font-family="Times,serif" font-size="18">5</text><text transform="translate(211.5 321)" fill="#BF0000" font-family="Times,serif" font-size="18">3</text><text transform="translate(238.5 321)" fill="#BF0000" font-family="Times,serif" font-size="18">6</text><text transform="translate(265.5 321)" fill="#BF0000" font-family="Times,serif" font-size="18">7</text><text transform="translate(292.5 321)" fill="#BF0000" font-family="Times,serif" font-size="18">8</text><text transform="translate(319.5 321)" fill="#BF0000" font-family="Times,serif" font-size="18">5</text><text transform="translate(346.5 321)" fill="#BF0000" font-family="Times,serif" font-size="18">2</text><text transform="translate(373.5 321)" fill="#BF0000" font-family="Times,serif" font-size="18">9</text><text transform="translate(396 321)" fill="#BF0000" font-family="Times,serif" font-size="18">10</text><text transform="translate(423 321)" fill="#BF0000" font-family="Times,serif" font-size="18">11</text><text transform="translate(454.5 321)" fill="#BF0000" font-family="Times,serif" font-size="18">8</text><text transform="translate(477 321)" fill="#BF0000" font-family="Times,serif" font-size="18">12</text><text transform="translate(504 321)" fill="#BF0000" font-family="Times,serif" font-size="18">11</text><text transform="translate(535.5 321)" fill="#BF0000" font-family="Times,serif" font-size="18">7</text><text transform="translate(558 321)" fill="#BF0000" font-family="Times,serif" font-size="18">13</text><text transform="translate(585 321)" fill="#BF0000" font-family="Times,serif" font-size="18">12</text><text transform="translate(612 321)" fill="#BF0000" font-family="Times,serif" font-size="18">10</text><text transform="translate(643.5 321)" fill="#BF0000" font-family="Times,serif" font-size="18">6</text><text transform="translate(670.5 321)" fill="#BF0000" font-family="Times,serif" font-size="18">4</text><text transform="translate(697.5 321)" fill="#BF0000" font-family="Times,serif" font-size="18">1</text><text transform="translate(720 321)" fill="#BF0000" font-family="Times,serif" font-size="18">13</text><text transform="translate(751.5 321)" fill="#BF0000" font-family="Times,serif" font-size="18">9</text><path fill="none" stroke="#000" stroke-dasharray="4,2" d="M9 303h765"/><path fill="none" stroke="#0060B6" stroke-width="2" stroke-dasharray="4,2" d="M135 303v-30c0-6.627-5.373-12-12-12H39c-6.627 0-12 5.373-12 12v30"/><path fill="none" stroke="#0060B6" stroke-width="2" stroke-dasharray="4,2" d="M216 303v-66c0-6.627-5.373-12-12-12h-84c-6.627 0-12 5.373-12 12v66"/><path fill="none" stroke="#0060B6" stroke-width="2" stroke-dasharray="4,2" d="M351 303V201c0-6.627-5.373-12-12-12H93c-6.627 0-12 5.373-12 12v102"/><path fill="none" stroke="#0060B6" stroke-width="2" stroke-dasharray="4,2" d="M324 303v-30c0-6.627-5.373-12-12-12H201c-6.627 0-12 5.373-12 12v30"/><path fill="none" stroke="#0060B6" stroke-width="2" stroke-dasharray="4,2" d="M459 303v-66c0-6.627-5.373-12-12-12H309c-6.627 0-12 5.373-12 12v66"/><path fill="none" stroke="#0060B6" stroke-width="2" stroke-dasharray="4,2" d="M540 303V165c0-6.627-5.373-12-12-12H282c-6.627 0-12 5.373-12 12v138"/><path fill="none" stroke="#0060B6" stroke-width="2" stroke-dasharray="4,2" d="M513 303v-30c0-6.627-5.373-12-12-12h-57c-6.627 0-12 5.373-12 12v30"/><path fill="none" stroke="#0060B6" stroke-width="2" stroke-dasharray="4,2" d="M621 303V201c0-6.627-5.373-12-12-12H417c-6.627 0-12 5.373-12 12v102"/><path fill="none" stroke="#0060B6" stroke-width="2" stroke-dasharray="4,2" d="M729 303v-30c0-6.627-5.373-12-12-12H579c-6.627 0-12 5.373-12 12v30"/><path fill="none" stroke="#0060B6" stroke-width="2" stroke-dasharray="4,2" d="M756 303V129c0-6.627-5.373-12-12-12H390c-6.627 0-12 5.373-12 12v174"/><path fill="none" stroke="#0060B6" stroke-width="2" stroke-dasharray="4,2" d="M648 303V93c0-6.627-5.373-12-12-12H255c-6.627 0-12 5.373-12 12v210"/><path fill="none" stroke="#0060B6" stroke-width="2" stroke-dasharray="4,2" d="M675 303V57c0-6.627-5.373-12-12-12H174c-6.627 0-12 5.373-12 12v246"/><path fill="none" stroke="#0060B6" stroke-width="2" stroke-dasharray="4,2" d="M702 303V21c0-6.627-5.373-12-12-12H66c-6.627 0-12 5.373-12 12v282"/></svg>