<svg xmlns="http://www.w3.org/2000/svg" width="594" height="567"><path fill="none" stroke="#0060B6" d="M117 420.416L45 295.708 117 171h144l72 124.708-72 124.708zm216 124.707l-72-124.707 72-124.708h144l72 124.708-72 124.707zm0 0H189l-72-124.707M261 171h144l72 124.708M117 27h144v144H117zm144 0h144v144H261z"/><path fill="#FFF" stroke="#000" d="M158 33c0 6.627-5.373 12-12 12H88c-6.627 0-12-5.373-12-12V21c0-6.627 5.373-12 12-12h58c6.627 0 12 5.373 12 12v12z"/><text transform="translate(85.885 33.224)" font-family="Times,serif" font-size="21">001122</text><path fill="#FFF" stroke="#000" d="M302 33c0 6.627-5.373 12-12 12h-58c-6.627 0-12-5.373-12-12V21c0-6.627 5.373-12 12-12h58c6.627 0 12 5.373 12 12v12z"/><text transform="translate(229.884 33.224)" font-family="Times,serif" font-size="21">001212</text><path fill="#FFF" stroke="#000" d="M446 33c0 6.627-5.373 12-12 12h-58c-6.627 0-12-5.373-12-12V21c0-6.627 5.373-12 12-12h58c6.627 0 12 5.373 12 12v12z"/><text transform="translate(373.885 33.224)" font-family="Times,serif" font-size="21">001221</text><path fill="#FFF" stroke="#000" d="M158 177c0 6.627-5.373 12-12 12H88c-6.627 0-12-5.373-12-12v-12c0-6.627 5.373-12 12-12h58c6.627 0 12 5.373 12 12v12z"/><text transform="translate(85.885 177.223)" font-family="Times,serif" font-size="21">010122</text><path fill="#FFF" stroke="#000" d="M86 301.707c0 6.628-5.373 12-12 12H16c-6.627 0-12-5.372-12-12v-12c0-6.627 5.373-12 12-12h58c6.627 0 12 5.373 12 12v12z"/><text transform="translate(13.885 301.932)" font-family="Times,serif" font-size="21">011022</text><path fill="#FFF" stroke="#000" d="M302 177c0 6.627-5.373 12-12 12h-58c-6.627 0-12-5.373-12-12v-12c0-6.627 5.373-12 12-12h58c6.627 0 12 5.373 12 12v12z"/><text transform="translate(229.884 177.223)" font-family="Times,serif" font-size="21">010212</text><path fill="#FFF" stroke="#000" d="M374 301.708c0 6.628-5.373 12-12 12h-58c-6.627 0-12-5.372-12-12v-12c0-6.627 5.373-12 12-12h58c6.627 0 12 5.373 12 12v12z"/><text transform="translate(301.885 301.932)" font-family="Times,serif" font-size="21">012012</text><path fill="#FFF" stroke="#000" d="M302 426.415c0 6.628-5.373 12-12 12h-58c-6.627 0-12-5.372-12-12v-11.999c0-6.628 5.373-12 12-12h58c6.627 0 12 5.372 12 12v11.999z"/><text transform="translate(229.885 426.639)" font-family="Times,serif" font-size="21">012102</text><path fill="#FFF" stroke="#000" d="M518 301.708c0 6.628-5.373 12-12 12h-58c-6.627 0-12-5.372-12-12v-12c0-6.627 5.373-12 12-12h58c6.627 0 12 5.373 12 12v12z"/><text transform="translate(445.885 301.932)" font-family="Times,serif" font-size="21">012021</text><path fill="#FFF" stroke="#000" d="M158 426.416c0 6.627-5.373 12-12 12H88c-6.627 0-12-5.373-12-12v-12c0-6.627 5.373-12 12-12h58c6.627 0 12 5.373 12 12v12z"/><text transform="translate(85.885 426.639)" font-family="Times,serif" font-size="21">011202</text><path fill="#FFF" stroke="#000" d="M230 551.124c0 6.628-5.373 12-12 12h-58c-6.627 0-12-5.372-12-12v-12c0-6.628 5.373-12 12-12h58c6.627 0 12 5.372 12 12v12z"/><text transform="translate(157.885 551.348)" font-family="Times,serif" font-size="21">011220</text><path fill="#FFF" stroke="#000" d="M590 426.415c0 6.628-5.373 12-12 12h-58c-6.627 0-12-5.372-12-12v-11.999c0-6.628 5.373-12 12-12h58c6.627 0 12 5.372 12 12v11.999z"/><text transform="translate(517.885 426.639)" font-family="Times,serif" font-size="21">012201</text><g><path fill="#FFF" stroke="#000" d="M518 551.124c0 6.628-5.373 12-12 12h-58c-6.627 0-12-5.372-12-12v-12c0-6.628 5.373-12 12-12h58c6.627 0 12 5.372 12 12v12z"/><text transform="translate(445.885 551.348)" font-family="Times,serif" font-size="21">012210</text></g><g><path fill="#FFF" stroke="#000" d="M374 551.124c0 6.628-5.373 12-12 12h-58c-6.627 0-12-5.372-12-12v-12c0-6.628 5.373-12 12-12h58c6.627 0 12 5.372 12 12v12z"/><text transform="translate(301.885 551.348)" font-family="Times,serif" font-size="21">012120</text></g><g><path fill="#FFF" stroke="#000" d="M446 177c0 6.627-5.373 12-12 12h-58c-6.627 0-12-5.373-12-12v-12c0-6.627 5.373-12 12-12h58c6.627 0 12 5.373 12 12v12z"/><text transform="translate(373.885 177.223)" font-family="Times,serif" font-size="21">010221</text></g></svg>