<svg xmlns="http://www.w3.org/2000/svg" width="423" height="378"><path fill="none" stroke="#006B33" stroke-width="2" d="M270 27l108 108-216 216L54 243m108-108l108 108"/><path fill="#FFF" stroke="#000" d="M202 357c0 6.627-5.373 12-12 12h-57c-6.627 0-12-5.373-12-12v-12c0-6.627 5.373-12 12-12h57c6.627 0 12 5.373 12 12v12z"/><text transform="translate(134.368 355.225)" font-family="Times,serif" font-size="21">First 0</text><path fill="#FFF" stroke="#000" d="M98.666 249.334c0 6.627-5.372 12-12 12H20.667c-6.627 0-12-5.373-12-12v-12c0-6.627 5.373-12 12-12h65.999c6.628 0 12 5.373 12 12v12z"/><text transform="translate(14.882 247.558)" font-family="Times,serif" font-size="21">Second 0</text><path fill="#FFF" stroke="#000" d="M309.5 249.667c0 6.627-5.373 12-12 12h-57c-6.627 0-12-5.373-12-12v-12c0-6.627 5.373-12 12-12h57c6.627 0 12 5.373 12 12v12z"/><text transform="translate(241.868 247.892)" font-family="Times,serif" font-size="21">First 1</text><path fill="#FFF" stroke="#000" d="M206.166 142.001c0 6.627-5.372 12-12 12h-65.999c-6.627 0-12-5.373-12-12v-12c0-6.627 5.373-12 12-12h65.999c6.628 0 12 5.373 12 12v12z"/><text transform="translate(122.382 140.225)" font-family="Times,serif" font-size="21">Second 1</text><path fill="#FFF" stroke="#000" d="M418.834 141.667c0 6.627-5.373 12-12 12h-57c-6.627 0-12-5.373-12-12v-12c0-6.627 5.373-12 12-12h57c6.627 0 12 5.373 12 12v12z"/><text transform="translate(351.202 139.892)" font-family="Times,serif" font-size="21">First 2</text><g><path fill="#FFF" stroke="#000" d="M315.5 34.001c0 6.627-5.372 12-12 12h-65.999c-6.627 0-12-5.373-12-12v-12c0-6.627 5.373-12 12-12H303.5c6.628 0 12 5.373 12 12v12z"/><text transform="translate(231.716 32.225)" font-family="Times,serif" font-size="21">Second 2</text></g></svg>