<svg xmlns="http://www.w3.org/2000/svg" width="306" height="306"><path fill="none" stroke="#B2B2B2" stroke-width="2" stroke-dasharray="1" d="M208.106 19.961L19.961 97.894m0 110.212L51.177 51.177M9 153l144 144m-55.106-10.962l188.144-77.933M51.177 254.823L255 50.667m-.177 204.156L297 153m-88.894 133.039L97.894 19.961M153 9l133.334 89.333"/><path fill="none" stroke="#000" stroke-width="2" d="M231.667 252.334L237 157M86 258.667L127 284l41.667-7M220 41.667l-46.333 29.666L237 157l-100 65.667L86.333 134"/><path fill="none" stroke="#000" stroke-width="2" d="M75.667 54.333L86.333 134l87.334-62.667L135.333 26M23.667 123.667l-5 51 23 41.333"/><path fill="none" stroke="#000" stroke-width="2" d="M41.667 216L86 258.667l51-36L168.667 277l63-24.666 44.666-29L288.667 191 237 157l21.334-88.667L220 41.667l-35.333-21.334L135.333 26 75.667 54.333 35.667 82l-12 41.667L86.333 134z"/><circle fill="none" stroke="red" stroke-width=".5" stroke-dasharray="4" cx="153" cy="153" r="144"/><circle fill="#003CFF" stroke="#000" stroke-width="2" cx="184.667" cy="20.333" r="5"/><circle fill="#003CFF" stroke="#000" stroke-width="2" cx="220" cy="41.667" r="5"/><circle fill="#003CFF" stroke="#000" stroke-width="2" cx="258.334" cy="68.333" r="5"/><circle fill="#003CFF" stroke="#000" stroke-width="2" cx="237" cy="157" r="5"/><circle fill="#003CFF" stroke="#000" stroke-width="2" cx="173.667" cy="71.333" r="5"/><circle fill="#003CFF" stroke="#000" stroke-width="2" cx="135.333" cy="26" r="5"/><circle fill="#003CFF" stroke="#000" stroke-width="2" cx="75.667" cy="54.333" r="5"/><circle fill="#003CFF" stroke="#000" stroke-width="2" cx="35.667" cy="82" r="5"/><circle fill="#003CFF" stroke="#000" stroke-width="2" cx="23.667" cy="123.667" r="5"/><circle fill="#003CFF" stroke="#000" stroke-width="2" cx="18.667" cy="174.667" r="5"/><circle fill="#003CFF" stroke="#000" stroke-width="2" cx="41.667" cy="216" r="5"/><circle fill="#003CFF" stroke="#000" stroke-width="2" cx="86.333" cy="134" r="5"/><circle fill="#003CFF" stroke="#000" stroke-width="2" cx="137" cy="222.667" r="5"/><circle fill="#003CFF" stroke="#000" stroke-width="2" cx="86" cy="258.667" r="5"/><circle fill="#003CFF" stroke="#000" stroke-width="2" cx="288.667" cy="191" r="5"/><circle fill="#003CFF" stroke="#000" stroke-width="2" cx="276.333" cy="223.334" r="5"/><circle fill="#003CFF" stroke="#000" stroke-width="2" cx="231.667" cy="252.334" r="5"/><circle fill="#003CFF" stroke="#000" stroke-width="2" cx="168.667" cy="277" r="5"/><circle fill="#003CFF" stroke="#000" stroke-width="2" cx="127" cy="284" r="5"/></svg>