<svg xmlns="http://www.w3.org/2000/svg" width="855" height="414"><path fill="none" stroke="#FFE1E1" stroke-width="27" stroke-linejoin="bevel" d="M45.001 279l225-225m0 0v306L45 135h306L126.001 360V54l225 225h-306"/><path fill="none" stroke="#FFE1E1" stroke-width="27" stroke-linejoin="bevel" d="M45 135l.001 144L126 360.001h144l81-81V135l-80.999-81h-144z"/><circle fill="#FFF5F5" stroke="#BF0000" stroke-width="2" cx="270.001" cy="54" r="27"/><circle fill="#FFF5F5" stroke="#BF0000" stroke-width="2" cx="126.001" cy="54" r="27"/><circle fill="#FFF5F5" stroke="#BF0000" stroke-width="2" cx="270.001" cy="360" r="27"/><circle fill="#FFF5F5" stroke="#BF0000" stroke-width="2" cx="351.001" cy="279" r="27"/><circle fill="#FFF5F5" stroke="#BF0000" stroke-width="2" cx="351" cy="135" r="27"/><circle fill="#FFF5F5" stroke="#BF0000" stroke-width="2" cx="45.001" cy="279" r="27"/><circle fill="#FFF5F5" stroke="#BF0000" stroke-width="2" cx="45" cy="135" r="27"/><circle fill="#FFF5F5" stroke="#BF0000" stroke-width="2" cx="126.001" cy="360" r="27"/><path fill="none" stroke="#0060B6" stroke-width="2" d="M126 63v288.001L342.001 135H54v144.001h288.001L135 54h126l9 306.001H126L45.001 279l225-225L351 135v144.001l-72 81L45 135z"/><path fill="none" stroke="#B2B2B2" d="M613.504 380.425l-63.741-26.403-48.785-48.785-26.403-63.741v-68.992l26.403-63.741 48.785-48.785 63.741-26.402h68.992l63.741 26.402 48.785 48.785 26.403 63.741v68.992l-26.403 63.741-48.785 48.785-63.741 26.403z"/><text transform="translate(288 21)" font-family="Times,serif" font-size="24">A</text><text transform="translate(383 122)" font-family="Times,serif" font-size="24">B</text><text transform="translate(383 307)" font-family="Times,serif" font-size="24">C</text><text transform="translate(290 403)" font-family="Times,serif" font-size="24">D</text><text transform="translate(96 405)" font-family="Times,serif" font-size="24">E</text><text transform="translate(5 315)" font-family="Times,serif" font-size="24">F</text><text transform="translate(5 109)" font-family="Times,serif" font-size="24">G</text><text transform="translate(91 24)" font-family="Times,serif" font-size="24">H</text><text transform="translate(686 24)" font-family="Times,serif" font-size="24">A</text><text transform="translate(750 52)" font-family="Times,serif" font-size="24">B</text><text transform="translate(801 103)" font-family="Times,serif" font-size="24">C</text><text transform="translate(830 176)" font-family="Times,serif" font-size="24">D</text><text transform="translate(830 249)" font-family="Times,serif" font-size="24">G</text><text transform="translate(803 324)" font-family="Times,serif" font-size="24">H</text><text transform="translate(755 377)" font-family="Times,serif" font-size="24">E</text><text transform="translate(685 405)" font-family="Times,serif" font-size="24">B</text><text transform="translate(605 406)" font-family="Times,serif" font-size="24">G</text><text transform="translate(536 380)" font-family="Times,serif" font-size="24">F</text><text transform="translate(480 325)" font-family="Times,serif" font-size="24">C</text><text transform="translate(451 252)" font-family="Times,serif" font-size="24">H</text><text transform="translate(453 176)" font-family="Times,serif" font-size="24">A</text><text transform="translate(480 106)" font-family="Times,serif" font-size="24">D</text><text transform="translate(531 60)" font-family="Times,serif" font-size="24">E</text><text transform="translate(598 30)" font-family="Times,serif" font-size="24">F</text><path fill="none" stroke="#00A33D" stroke-width="2" d="M682.496 33.576L474.575 172.504M746.237 59.978l-63.741 320.447m112.526-271.662L500.978 305.237m320.447-132.733l-320.447-63.741M749 353L549.763 59.978m63.741-26.402l-63.741 320.446m271.662-112.526L613.504 380.425m181.518-75.188l-320.447-63.741"/></svg>