<svg xmlns="http://www.w3.org/2000/svg" width="820pt" height="820pt" viewBox="0 0 820 820"><circle cx="410" cy="410" r="400" fill="none" stroke="#000" stroke-dasharray="2,4"/><path d="M444 808a31 31 0 0 0-63 0m-216-82A331 331 0 0 0 53 228M14 466a96 96 0 0 0 17-186m435 525a45 45 0 0 0-91 3M152 103a14 14 0 0 0 22-17m337 710a31 31 0 0 0-62 12M31 539a14 14 0 0 0-8-28M280 31a503 503 0 0 0 528 339M517 795a45 45 0 0 0-90 14m351-555a31 31 0 0 0 20 59M438 808a14 14 0 0 0-28 2m-146-28a31 31 0 0 0-56-27M15 478A603 603 0 0 0 500 20m-39 786a14 14 0 0 0-29 3M100 156a31 31 0 0 0 43-45m340 692a14 14 0 0 0-28 4m-227-41A405 405 0 0 0 56 223M330 17a429 429 0 0 0 476 341M506 798a14 14 0 0 0-28 6m268-611a31 31 0 0 0 30 56M533 790a17 17 0 0 0-33 9M41 565a31 31 0 0 0-20-59m30 80a45 45 0 0 0-31-86m7 28A720 720 0 0 0 511 23m17 769A1173 1173 0 0 0 83 179m65-72a31 31 0 0 0 50-37M53 591a84 84 0 0 0-43-159m485 368A1006 1006 0 0 0 79 184m191 600a45 45 0 0 0-82-41M421 10a331 331 0 0 0 384 337M16 336a14 14 0 0 0 7-28m398 501A771 771 0 0 0 76 188m657-14a17 17 0 0 0 19 29M228 53a117 117 0 0 0 221-42m-45 798A720 720 0 0 0 73 193m170 580A429 429 0 0 0 58 218m6 393A1006 1006 0 0 0 522 26m27 9a45 45 0 0 0 82 41m-92 712a1173 1173 0 0 1 0-757M188 76a17 17 0 0 0 30-18M79 635a117 117 0 0 0-69-214m797 34a96 96 0 0 0-64 176M370 808A642 642 0 0 0 70 198M427 10a17 17 0 0 0 34 3M15 341a45 45 0 0 0 26-87m306 551a117 117 0 0 0-204-97m561-569a43 43 0 0 0 51 69M208 64a642 642 0 0 0 600 317m-22 163a43 43 0 0 0-37 77M203 752a31 31 0 0 0-51-36m-66-71a17 17 0 0 0-19-29M243 46a43 43 0 0 0 81-27m272 37a45 45 0 0 0 75 51m102 469a22 22 0 0 0-21 40M184 79a43 43 0 0 0 75-40m525 510a17 17 0 0 0-13 32M275 786A475 475 0 0 0 61 213M381 11a14 14 0 0 0 28-1m-96 11a14 14 0 0 0 28-6m447 265a14 14 0 0 0 8 28M10 392a45 45 0 0 0 14-90m300 498a22 22 0 0 0-44-12M35 270a17 17 0 0 0 13-32m648-107a96 96 0 0 0 96 160M165 93a771 771 0 0 0 644 299m-10 108a31 31 0 0 0-19 60M353 805A603 603 0 0 0 67 203m-9 398a14 14 0 0 0-12-25M640 83a14 14 0 0 0 23 17m-82-52a14 14 0 0 0 25 13m198 417a45 45 0 0 0-26 87M115 139A96 96 0 0 0 270 35m326 728a299 299 0 0 1 206-433m7 102a31 31 0 0 0-9 63M223 763a45 45 0 0 0-75-51M336 16a14 14 0 0 0 28-4M11 381a14 14 0 0 0 3-28m795 74a45 45 0 0 0-14 90M565 778a603 603 0 0 1 123-655M89 170a1173 1173 0 0 0 720 234m-11 102a14 14 0 0 0-8 27m-27 63a96 96 0 0 0-123 140M39 560a14 14 0 0 0-10-27m651-418a22 22 0 0 0 32 33m91 335a14 14 0 0 0-7 28M10 415A503 503 0 0 0 495 19M26 522a43 43 0 0 0-15-84m795 23a14 14 0 0 0-4 28M549 784a771 771 0 0 1 86-705M375 11a31 31 0 0 0 63 0M11 449a22 22 0 0 0-1-45m798 34a14 14 0 0 0-3 28M555 782a720 720 0 0 1 94-693m-546 63a14 14 0 0 0 20-21m687 279a17 17 0 0 0-2 34M238 771a14 14 0 0 0-25-13M347 14a405 405 0 0 0 458 339M591 53a84 84 0 0 0 128 103m90 259A1173 1173 0 0 0 89 649M12 364A429 429 0 0 0 483 16m288 222a14 14 0 0 0 11 26m26 185A1006 1006 0 0 0 93 654m668-53a84 84 0 0 0-107 125M73 626a31 31 0 0 0-30-56M13 461a84 84 0 0 0 13-164m-5 16a14 14 0 0 0 8-27m764 236A771 771 0 0 0 96 658m448 128a1006 1006 0 0 1 26-743m-435 76a14 14 0 0 0 21-19m632 439a720 720 0 0 0-688 124m241 141a96 96 0 0 0-171-74M544 33a117 117 0 0 0 182 132M46 243A299 299 0 0 0 466 14m310 556a642 642 0 0 0-673 97M33 275A331 331 0 0 0 472 14m296 219a45 45 0 0 0 31 86m-31 267a603 603 0 0 0-661 85m111 90a14 14 0 0 0-25-15M14 472a117 117 0 0 0 29-223m723 342a117 117 0 0 0-155 164M533 29a17 17 0 0 0 32 12M96 161a45 45 0 0 0 65-65m72-45a96 96 0 0 0 182-41m176 756a331 331 0 0 1 202-469M581 771a429 429 0 0 1 177-558M297 26a475 475 0 0 0 510 338M586 768a405 405 0 0 1 180-540m-23-40a45 45 0 0 0 41 82M249 43a22 22 0 0 0 42-16m467 579a43 43 0 0 0-50 70M336 803a84 84 0 0 0-152-63M19 495A642 642 0 0 0 506 21m249 590a22 22 0 0 0-25 38M131 123a45 45 0 0 0 72-56m367 709a503 503 0 0 1 160-606M198 749a14 14 0 0 0-24-16M308 23a31 31 0 0 0 62-12m251 59a14 14 0 0 0 24 16m71 581a14 14 0 0 0-20 21m53-490a14 14 0 0 0 14 25m-44 440a31 31 0 0 0-43 45m-100 65a475 475 0 0 1 164-589M33 544A771 771 0 0 0 517 24m43 15a14 14 0 0 0 26 12m137 607a45 45 0 0 0-65 65M170 89a14 14 0 0 0 23-16M61 606a96 96 0 0 0-51-179m661 285a31 31 0 0 0-50 37m-291 53a43 43 0 0 0-81-26M455 12a299 299 0 0 0 349 329M13 358a14 14 0 0 0 4-28m671 366a45 45 0 0 0-72 56m92-609a22 22 0 0 0 28 36M223 56a603 603 0 0 0 585 319M700 684a14 14 0 0 0-20 20m-501 32a14 14 0 0 0-23-17m-73-79A1173 1173 0 0 0 528 27m27 10a31 31 0 0 0 56 27m73 636a14 14 0 0 0-21 19M213 61a22 22 0 0 0 41-20m37 751A503 503 0 0 0 64 208m603 508a14 14 0 0 0-22 17m88-88a17 17 0 0 0-21 26M404 10a14 14 0 0 0 28 0M20 319a31 31 0 0 0 19-60m610 471a14 14 0 0 0-23 16m74-611a84 84 0 0 0 86 140M179 83a720 720 0 0 0 630 304M631 743a17 17 0 0 0-30 18m191-233a14 14 0 0 0-10 27M70 621a14 14 0 0 0-14-25M616 67a31 31 0 0 0 51 36m-61 655a299 299 0 0 0-475-62m-4-569a84 84 0 0 0 137-90m371 703a331 331 0 0 0-508-48m34 31a17 17 0 0 0-26-23M358 13a14 14 0 0 0 29-3M76 631a45 45 0 0 0-41-82M10 387a31 31 0 0 0 9-63m8-33a14 14 0 0 0 10-27m655 428a405 405 0 0 0-569-4m569-561a117 117 0 0 0 108 197M111 143a1006 1006 0 0 0 698 255M704 680a429 429 0 0 0-585 4M17 489a22 22 0 0 0-6-45m37 137a14 14 0 0 0-11-26M658 96a17 17 0 0 0 26 23m42 535a475 475 0 0 0-611 26m690-208a84 84 0 0 0-59 154M93 165A117 117 0 0 0 275 33m520 269a17 17 0 0 0 8 34m-67 304a503 503 0 0 0-625 36m175 114a17 17 0 0 0-32-12m99-764a45 45 0 0 0 91-3M10 410a17 17 0 0 0 1-35m511 418a117 117 0 0 0-225 0m263-13a642 642 0 0 1 116-669M10 398A475 475 0 0 0 489 17M86 174a17 17 0 0 0 21-26M238 48a84 84 0 0 0 160-38m91 792a96 96 0 0 0-187-7m-163-91a299 299 0 0 0-88-471M654 93a43 43 0 0 0 62 59M472 805a84 84 0 0 0-164-9m501-375a117 117 0 0 0-69 214m40-376a14 14 0 0 0 10 27M398 809a43 43 0 0 0-85-11M24 517a17 17 0 0 0-8-34M286 29a17 17 0 0 0 33-9M12 455a43 43 0 0 0-1-85m353 437a22 22 0 0 0-45-8M119 135a14 14 0 0 0 20-20m253 694a17 17 0 0 0-34-3m-99-26a14 14 0 0 0-26-12m69-744a45 45 0 0 0 90-14m184 36a96 96 0 0 0 147 115M601 58a14 14 0 0 0 25 15M415 809a14 14 0 0 0-28 0M14 347A405 405 0 0 0 478 15m283 203a14 14 0 0 0 12 25" fill="none" stroke="#00f"/></svg>