<svg xmlns="http://www.w3.org/2000/svg" width="756" height="378"><path fill="none" stroke="#8B5C29" stroke-width="3" d="M65.5 135h135M61 184.5V108c0-14.912 12.088-27 27-27h18c14.912 0 27 12.088 27 27v22.5m0 9V216c0 14.912 12.088 27 27 27h18c14.912 0 27-12.088 27-27v-22.5m-144 0V270m27 27h144m27-27v-54m-27-27h-94.5M88 297c-14.912 0-27-12.088-27-27m198 0c0 14.911-12.088 27-27 27m0-108c14.912 0 27 12.088 27 27m-54-31.5V54m-27-27H34M7 53.801v53.94M34 135h22.5M178 27c14.912 0 27 12.088 27 27M7 54c0-14.912 12.088-27 27-27m0 108c-14.912 0-27-12.088-27-27m121.5 81H34M7 216v108m27 27h252m27-27V162m-27-27h-76.5M7 216c0-14.911 12.088-27 27-27m0 162c-14.912 0-27-12.089-27-27m306 0c0 14.911-12.088 27-27 27m0-216c14.912 0 27 12.089 27 27"/><text transform="translate(43 126)" font-family="Times,serif" font-size="24">1</text><text transform="translate(115 126)" font-family="Times,serif" font-size="24">2</text><text transform="translate(187 126)" font-family="Times,serif" font-size="24">3</text><text transform="translate(43 180)" font-family="Times,serif" font-size="24">4</text><text transform="translate(115 180)" font-family="Times,serif" font-size="24">5</text><text transform="translate(187 180)" font-family="Times,serif" font-size="24">6</text><path fill="none" stroke="#E4BC96" stroke-width="2" d="M530.484 351.405l-75.373-43.516-43.515-75.372v-87.033l43.515-75.372 75.373-43.516h87.033l75.372 43.516 43.515 75.372v87.033l-43.515 75.372-75.373 43.516z"/><text transform="translate(617 22.332)" font-family="Times,serif" font-size="24">1</text><text transform="translate(697.333 68.332)" font-family="Times,serif" font-size="24">2</text><text transform="translate(741 147)" font-family="Times,serif" font-size="24">3</text><text transform="translate(741 242.333)" font-family="Times,serif" font-size="24">4</text><text transform="translate(697.333 324.332)" font-family="Times,serif" font-size="24">5</text><text transform="translate(617 370.999)" font-family="Times,serif" font-size="24">6</text><text transform="translate(519.999 370.999)" font-family="Times,serif" font-size="24">4</text><text transform="translate(439.832 324.332)" font-family="Times,serif" font-size="24">1</text><text transform="translate(395.333 242.333)" font-family="Times,serif" font-size="24">2</text><text transform="translate(395.333 146.999)" font-family="Times,serif" font-size="24">5</text><text transform="translate(439.832 68.332)" font-family="Times,serif" font-size="24">6</text><text transform="translate(519.999 22.332)" font-family="Times,serif" font-size="24">3</text><path fill="none" stroke="#8210D2" stroke-width="3" d="M617.333 26.999L453.999 307.666m239.334-238L410.666 232.999M529.999 26.333l206.667 118.666m-324.667 0l281.334 163.333m44-75.333L529.999 352.332m88-.666l-162.666-282"/></svg>