<svg xmlns="http://www.w3.org/2000/svg" width="702" height="774"><path d="M81 9v144M297 9v144m-72-72h144m81.524 36.211l124.708-72m-62.354-36l62.355 108m-124.708-72l62.353 108m-380.966 92.877L81 369M30.088 246.088v101.824M9 297l122.912 50.912M261 369l-72.001-72M333 297l-72-72m-50.912 122.912l101.824-101.824m-101.824 0l101.824 101.824M441 369l-50.913-122.912m101.825 101.824L441 225m50.912 21.088L369 297m144 0l-122.913 50.912M81 225l72 72M38.679 454.75l-26.156 80.499m110.798-80.498l-.001 116.498m26.156-35.999L38.679 571.249M81 585l-68.476-94.249m136.951.001L81 441m111.524 49.751l110.797-36M261 441l68.476 94.25m-.001-44.498L261 585m42.32-13.751l-110.797-36m26.156 36V454.75m290.796 36.002L441 441m0 144l-68.477-49.751m.001-44.498l136.952 44.499m-110.797 35.999V454.75m84.641 116.499l.001-116.498m69.203 36l136.952 44.499m-26.155-80.499L621 585m42.32-13.751h-84.641m-26.156-36l26.156-80.499M621 441l68.475 49.752M38.679 634.75L81 765m42.321-130.249l-.001 116.498M12.524 670.751l26.155 80.498m-26.156-36l136.953.001M81 621l68.475 49.752m43.048 44.497L261 765m0-144l68.475 49.752m.001 44.498l-110.797-80.5m84.641 116.499l-110.796-80.498m26.155 80.498l84.642-116.498m95.358-.001v116.499m-26.156-36l110.797 36M441 621l68.475 49.752m-26.154-36.001L441 765m-68.476-94.249l136.952 44.499m43.048-44.499L621 765m0-144l68.476 94.25m-26.156 35.999L578.679 634.75m-26.156 80.499l110.798-80.498m-84.642 116.498l110.796-80.497" fill="none" stroke="#000" stroke-width="2"/><g fill="none" stroke="#00A0C6"><circle cx="81" cy="81" r="72"/><circle cx="297" cy="81" r="72"/><circle cx="513" cy="81" r="72"/><circle cx="81" cy="297" r="72"/><circle cx="81" cy="513" r="72"/><circle cx="81" cy="297" r="72"/><circle cx="260.999" cy="297" r="72"/><circle cx="261" cy="297" r="72"/><circle cx="441" cy="297" r="72"/><circle cx="441" cy="297" r="72"/><circle cx="261" cy="513" r="72"/><circle cx="441" cy="513" r="72"/><circle cx="621" cy="513" r="72"/><circle cx="81" cy="693" r="72"/><circle cx="261" cy="693" r="72"/><circle cx="441" cy="693" r="72"/><circle cx="621" cy="693" r="72"/></g></svg>