<svg xmlns="http://www.w3.org/2000/svg" width="630" height="252"><path fill="none" stroke="#7fc0e6" stroke-width="20" d="M252 144h113.8"/><path d="M396 144c-14.2 5.3-31.8 14.3-42.7 23.8l8.6-23.8-8.6-23.8c10.9 9.5 28.5 18.5 42.7 23.8z" fill="#7fc0e6"/><path d="M0 252l63-36 72-126 72 126 63 36M63 216h144M135 0v90m225 162l135-81 135 81m-135-81V0" fill="none" stroke="#000"/><g fill="#fff" stroke="#000"><circle cx="63" cy="216" r="18"/><circle cx="207" cy="216" r="18"/><circle cx="135" cy="90" r="18"/><circle cx="495" cy="171" r="18"/></g></svg>