<svg xmlns="http://www.w3.org/2000/svg" width="756" height="198"><g fill="#7fc0e6" stroke="#000"><path d="M603 171V99l-18-72 108 72m-144 0l36-72-90 72m-72 72V99l-54-72m0 72V27l-54 72m-72 0l-36-72-36 72m558 72l-36-72-36 72" fill="none"/><path d="M99 99V27"/><circle cx="27" cy="27" r="18"/><circle cx="99" cy="27" r="18"/><circle cx="99" cy="99" r="18"/><circle cx="207" cy="27" r="18"/><circle cx="171" cy="99" r="18"/><circle cx="243" cy="99" r="18"/><circle cx="693" cy="99" r="18"/><circle cx="657" cy="171" r="18"/><circle cx="729" cy="171" r="18"/><circle cx="369" cy="27" r="18"/><circle cx="315" cy="99" r="18"/><circle cx="369" cy="99" r="18"/><circle cx="423" cy="99" r="18"/><circle cx="423" cy="171" r="18"/><circle cx="495" cy="99" r="18"/><circle cx="585" cy="27" r="18"/><circle cx="549" cy="99" r="18"/><circle cx="603" cy="99" r="18"/><circle cx="603" cy="171" r="18"/></g></svg>