<svg xmlns="http://www.w3.org/2000/svg" width="683" height="354"><g fill="none" stroke="#000"><path stroke-width="4" d="M144 240.4h18l18 36h36l-36-72h36l18 36h18m-252 0h18l18-36h36l-36 72h36l18-36h18m36-126h18l18 36 36-72h-36l36 72 18-36h18m-252 0h18l18-36 36 72H36l36-72 18 36h18"/><path d="M472.4 41.4l18-36h36l18 36m-18 36l-36-72m0 72l36-72m-54 308.1l18-36h36l18 36m-18 36l-36-72m0 72l36-72m-158.3-108l-28.7-28.2 11.1-34.3 39.8-6"/><path d="M367.7 185.1l.4-15.6 39.8-6 11.1-34.2-28.7-28.3 8.9-12.8-6.6-39.7 29.1-21.2 35.7 18.6M419 129.3l-79.6 12m68.5 22.2L350.5 107m276.4 146.6l-28.7-28.3 11.1-34.2 39.8-6m28.7 28.3l-79.6 11.9m68.5 22.3l-57.4-56.5M457.7 308.3l-35.8 18.6-29.1-21.2 6.6-39.7m35.7-18.6l-13.2 79.5m42.4-58.3l-71.5 37.1M617.6 88.2l-35.7 18.5-29.1-21.1 6.6-39.8m35.7-18.5l-13.2 79.4m42.3-58.2l-71.4 37.1M617.4 266l6.6 39.7-29.1 21.2-35.8-18.6m-6.6-39.7l71.5 37.1m-42.3-58.2l13.2 79.4"/><path d="M399.2 88.2l35.7 18.5L464 85.6l-6.6-39.7 15-4.5 18 36h36l18-36 15 4.4 35.7-18.5 29.1 21.2-6.6 39.7 8.9 12.8-28.7 28.3 11.1 34.2 39.8 6m-256.1-121L464 85.6m-42.3-58.3l13.2 79.4"/><path d="M626.5 101l39.8 6 11.1 34.3-28.7 28.2.4 15.6 28.7 28.3-11.1 34.2-39.8 6-9.5 12.4-35.7-18.5-29.2 21.1 6.6 39.7-14.7 5.2-18 36h-36l-18-36-14.7-5.2 6.6-39.7-29.2-21.2-35.7 18.6-9.5-12.4-39.8-6-11.1-34.2 28.7-28.3m241.2-21.6l57.4-56.5m-68.5 22.3l79.6 12"/><path d="M367.7 185.1l39.8 6 11.1 34.2-28.7 28.3m-39.8-6l57.4-56.5M339 213.4l79.6 11.9M0 114.4h18l18-36h36l18 36h18m-90 0l18 36h36l18-36m-18 36l-36-72m0 72l36-72m-72 162h18l18-36h36l18 36h18"/><path d="M18 240.4l18 36h36l18-36m-18 36l-36-72m0 72l36-72m72-90h18l18-36h36l18 36h18m-90 0l18 36h36l18-36m-18 36l-36-72m0 72l36-72m-72 162h18l18-36h36l18 36h18"/><path d="M162 240.4l18 36h36l18-36m-18 36l-36-72m0 72l36-72"/></g><path d="M476.4 41.4c0 2.2-1.8 4-4 4s-4-1.8-4-4 1.8-4 4-4 4 1.8 4 4m18-36c0 2.2-1.8 4-4 4s-4-1.8-4-4 1.8-4 4-4 4 1.8 4 4m36 0c0 2.2-1.8 4-4 4s-4-1.8-4-4 1.8-4 4-4 4 1.8 4 4m18 36c0 2.2-1.8 4-4 4s-4-1.8-4-4 1.8-4 4-4 4 1.8 4 4m-18 36c0 2.2-1.8 4-4 4s-4-1.8-4-4 1.8-4 4-4 4 1.8 4 4m-36 0c0 2.2-1.8 4-4 4s-4-1.8-4-4 1.8-4 4-4 4 1.8 4 4m-18 236.1c0 2.2-1.8 4-4 4s-4-1.8-4-4 1.8-4 4-4 4 1.8 4 4m18-36c0 2.2-1.8 4-4 4s-4-1.8-4-4 1.8-4 4-4 4 1.8 4 4m36 0c0 2.2-1.8 4-4 4s-4-1.8-4-4 1.8-4 4-4 4 1.8 4 4m18 36c0 2.2-1.8 4-4 4s-4-1.8-4-4 1.8-4 4-4 4 1.8 4 4m-18 36c0 2.2-1.8 4-4 4s-4-1.8-4-4 1.8-4 4-4 4 1.8 4 4m-36 0c0 2.2-1.8 4-4 4s-4-1.8-4-4 1.8-4 4-4 4 1.8 4 4M369.3 165.7c2.1.7 3.3 2.9 2.6 5-.7 2.1-2.9 3.2-5 2.6-2.1-.7-3.3-2.9-2.6-5 .7-2.1 2.9-3.3 5-2.6m-28.7-28.3c2.1.7 3.3 2.9 2.6 5-.7 2.1-2.9 3.3-5 2.6-2.1-.7-3.3-2.9-2.6-5 .7-2.1 2.9-3.2 5-2.6m11.2-34.2c2.1.7 3.2 2.9 2.6 5-.7 2.1-2.9 3.3-5 2.6-2.1-.7-3.3-2.9-2.6-5 .7-2.1 2.9-3.3 5-2.6m39.8-6c2.1.7 3.3 2.9 2.6 5-.7 2.1-2.9 3.2-5 2.6-2.1-.7-3.2-2.9-2.6-5 .7-2.1 2.9-3.3 5-2.6m28.6 28.3c2.1.7 3.3 2.9 2.6 5-.7 2.1-2.9 3.3-5 2.6-2.1-.7-3.3-2.9-2.6-5s2.9-3.3 5-2.6m-11.1 34.2c2.1.7 3.3 2.9 2.6 5-.7 2.1-2.9 3.3-5 2.6-2.1-.7-3.3-2.9-2.6-5 .7-2.1 2.9-3.2 5-2.6m219 90.1c2.1.7 3.2 2.9 2.6 5-.7 2.1-2.9 3.2-5 2.6-2.1-.7-3.3-2.9-2.6-5 .7-2.1 2.9-3.3 5-2.6m-28.7-28.3c2.1.7 3.3 2.9 2.6 5-.7 2.1-2.9 3.2-5 2.6-2.1-.7-3.3-2.9-2.6-5 .7-2.1 2.9-3.3 5-2.6m11.2-34.2c2.1.7 3.2 2.9 2.6 5-.7 2.1-2.9 3.3-5 2.6-2.1-.7-3.3-2.9-2.6-5 .7-2.1 2.9-3.2 5-2.6m39.8-6c2.1.7 3.3 2.9 2.6 5-.7 2.1-2.9 3.3-5 2.6s-3.3-2.9-2.6-5c.7-2.1 2.9-3.3 5-2.6m28.6 28.2c2.1.7 3.3 2.9 2.6 5-.7 2.1-2.9 3.2-5 2.6-2.1-.7-3.3-2.9-2.6-5 .7-2.1 2.9-3.3 5-2.6m-11.1 34.3c2.1.7 3.3 2.9 2.6 5-.7 2.1-2.9 3.3-5 2.6-2.1-.7-3.2-2.9-2.6-5 .7-2.1 2.9-3.3 5-2.6M454.4 306c1.3-1.8 3.8-2.2 5.6-.9 1.8 1.3 2.2 3.8.9 5.6-1.3 1.8-3.8 2.2-5.6.9s-2.2-3.8-.9-5.6m-35.7 18.5c1.3-1.8 3.8-2.2 5.6-.9 1.8 1.3 2.2 3.8.9 5.6-1.3 1.8-3.8 2.2-5.6.9-1.8-1.3-2.2-3.8-.9-5.6m-29.1-21.2c1.3-1.8 3.8-2.2 5.6-.9 1.8 1.3 2.2 3.8.9 5.6-1.3 1.8-3.8 2.2-5.6.9-1.8-1.3-2.2-3.8-.9-5.6m6.6-39.7c1.3-1.8 3.8-2.2 5.6-.9 1.8 1.3 2.2 3.8.9 5.6-1.3 1.8-3.8 2.2-5.6.9-1.8-1.3-2.2-3.8-.9-5.6m35.7-18.5c1.3-1.8 3.8-2.2 5.6-.9 1.8 1.3 2.2 3.8.9 5.6-1.3 1.8-3.8 2.2-5.6.9-1.8-1.3-2.2-3.8-.9-5.6m29.1 21.2c1.3-1.8 3.8-2.2 5.6-.9 1.8 1.3 2.2 3.8.9 5.6-1.3 1.8-3.8 2.2-5.6.9-1.8-1.3-2.2-3.8-.9-5.6M614.4 85.8c1.3-1.8 3.8-2.2 5.6-.9 1.8 1.3 2.2 3.8.9 5.6-1.3 1.8-3.8 2.2-5.6.9-1.8-1.3-2.2-3.8-.9-5.6m-35.7 18.6c1.3-1.8 3.8-2.2 5.6-.9 1.8 1.3 2.2 3.8.9 5.6-1.3 1.8-3.8 2.2-5.6.9-1.8-1.3-2.2-3.8-.9-5.6m-29.2-21.2c1.3-1.8 3.8-2.2 5.6-.9 1.8 1.3 2.2 3.8.9 5.6-1.3 1.8-3.8 2.2-5.6.9-1.8-1.3-2.2-3.8-.9-5.6m6.6-39.7c1.3-1.8 3.8-2.2 5.6-.9 1.8 1.3 2.2 3.8.9 5.6-1.3 1.8-3.8 2.2-5.6.9-1.8-1.3-2.2-3.8-.9-5.6M591.9 25c1.3-1.8 3.8-2.2 5.6-.9 1.8 1.3 2.2 3.8.9 5.6-1.3 1.8-3.8 2.2-5.6.9-1.8-1.3-2.2-3.8-.9-5.6M621 46.1c1.3-1.8 3.8-2.2 5.6-.9 1.8 1.3 2.2 3.8.9 5.6-1.3 1.8-3.8 2.2-5.6.9-1.8-1.3-2.2-3.8-.9-5.6m-6.9 222.2c-1.3-1.8-.9-4.3.9-5.6 1.8-1.3 4.3-.9 5.6.9 1.3 1.8.9 4.3-.9 5.6-1.8 1.3-4.3.9-5.6-.9m6.6 39.8c-1.3-1.8-.9-4.3.9-5.6 1.8-1.3 4.3-.9 5.6.9 1.3 1.8.9 4.3-.9 5.6-1.8 1.3-4.3.9-5.6-.9m-29.1 21.1c-1.3-1.8-.9-4.3.9-5.6 1.8-1.3 4.3-.9 5.6.9 1.3 1.8.9 4.3-.9 5.6-1.8 1.3-4.3.9-5.6-.9m-35.7-18.5c-1.3-1.8-.9-4.3.9-5.6 1.8-1.3 4.3-.9 5.6.9 1.3 1.8.9 4.3-.9 5.6-1.8 1.3-4.3.9-5.6-.9m-6.6-39.7c-1.3-1.8-.9-4.3.9-5.6 1.8-1.3 4.3-.9 5.6.9 1.3 1.8.9 4.3-.9 5.6-1.8 1.3-4.3.9-5.6-.9m29.1-21.2c-1.3-1.8-.9-4.3.9-5.6 1.8-1.3 4.3-.9 5.6.9 1.3 1.8.9 4.3-.9 5.6-1.8 1.3-4.3.9-5.6-.9M454.2 48.2c-1.3-1.8-.9-4.3.9-5.6 1.8-1.3 4.3-.9 5.6.9 1.3 1.8.9 4.3-.9 5.6-1.8 1.3-4.3.9-5.6-.9m6.6 39.7c-1.3-1.8-.9-4.3.9-5.6 1.8-1.3 4.3-.9 5.6.9 1.3 1.8.9 4.3-.9 5.6-1.8 1.3-4.3.9-5.6-.9m-29.1 21.2c-1.3-1.8-.9-4.3.9-5.6 1.8-1.3 4.3-.9 5.6.9 1.3 1.8.9 4.3-.9 5.6-1.8 1.3-4.3.9-5.6-.9m-35.8-18.6c-1.3-1.8-.9-4.3.9-5.6 1.8-1.3 4.3-.9 5.6.9 1.3 1.8.9 4.3-.9 5.6-1.8 1.3-4.3.9-5.6-.9m-6.6-39.7c-1.3-1.8-.9-4.3.9-5.6 1.8-1.3 4.3-.9 5.6.9 1.3 1.8.9 4.3-.9 5.6s-4.3.9-5.6-.9m29.2-21.1c-1.3-1.8-.9-4.3.9-5.6 1.8-1.3 4.3-.9 5.6.9 1.3 1.8.9 4.3-.9 5.6-1.8 1.3-4.3.9-5.6-.9m209.2 75.1c-2.1.7-4.4-.5-5-2.6-.7-2.1.5-4.4 2.6-5 2.1-.7 4.4.5 5 2.6.7 2.1-.5 4.4-2.6 5m39.8 6c-2.1.7-4.4-.5-5-2.6-.7-2.1.5-4.4 2.6-5 2.1-.7 4.4.5 5 2.6.7 2.1-.5 4.4-2.6 5m11.1 34.3c-2.1.7-4.4-.5-5-2.6-.7-2.1.5-4.4 2.6-5 2.1-.7 4.4.5 5 2.6.7 2.1-.5 4.4-2.6 5M650 173.3c-2.1.7-4.4-.5-5-2.6-.7-2.1.5-4.4 2.6-5 2.1-.7 4.4.5 5 2.6.7 2.1-.5 4.4-2.6 5m-39.8-6c-2.1.7-4.4-.5-5-2.6-.7-2.1.5-4.4 2.6-5 2.1-.7 4.4.5 5 2.6.7 2.1-.5 4.4-2.6 5M599 133.1c-2.1.7-4.4-.5-5-2.6s.5-4.4 2.6-5c2.1-.7 4.4.5 5 2.6.7 2.1-.5 4.4-2.6 5m-230.1 55.8c-2.1.7-4.4-.5-5-2.6-.7-2.1.5-4.4 2.6-5 2.1-.7 4.4.5 5 2.6.7 2.1-.5 4.4-2.6 5m39.8 6c-2.1.7-4.4-.5-5-2.6-.7-2.1.5-4.4 2.6-5 2.1-.7 4.4.5 5 2.6.7 2.1-.5 4.4-2.6 5m11.1 34.3c-2.1.7-4.4-.5-5-2.6-.7-2.1.5-4.4 2.6-5 2.1-.7 4.4.5 5 2.6.7 2.1-.5 4.4-2.6 5m-28.6 28.2c-2.1.7-4.4-.5-5-2.6-.7-2.1.5-4.4 2.6-5 2.1-.7 4.4.5 5 2.6.7 2.1-.5 4.4-2.6 5m-39.8-6c-2.1.7-4.4-.5-5-2.6-.7-2.1.5-4.4 2.6-5 2.1-.7 4.4.5 5 2.6.7 2.1-.5 4.4-2.6 5m-11.2-34.2c-2.1.7-4.4-.5-5-2.6-.7-2.1.5-4.4 2.6-5 2.1-.7 4.4.5 5 2.6.7 2.1-.5 4.4-2.6 5M22 114.4c0 2.2-1.8 4-4 4s-4-1.8-4-4 1.8-4 4-4 4 1.8 4 4m18-36c0 2.2-1.8 4-4 4s-4-1.8-4-4 1.8-4 4-4 4 1.8 4 4m36 0c0 2.2-1.8 4-4 4s-4-1.8-4-4 1.8-4 4-4 4 1.8 4 4m18 36c0 2.2-1.8 4-4 4s-4-1.8-4-4 1.8-4 4-4 4 1.8 4 4m-18 36c0 2.2-1.8 4-4 4s-4-1.8-4-4 1.8-4 4-4 4 1.8 4 4m-36 0c0 2.2-1.8 4-4 4s-4-1.8-4-4 1.8-4 4-4 4 1.8 4 4m-18 90c0 2.2-1.8 4-4 4s-4-1.8-4-4 1.8-4 4-4 4 1.8 4 4m18-36c0 2.2-1.8 4-4 4s-4-1.8-4-4 1.8-4 4-4 4 1.8 4 4m36 0c0 2.2-1.8 4-4 4s-4-1.8-4-4 1.8-4 4-4 4 1.8 4 4m18 36c0 2.2-1.8 4-4 4s-4-1.8-4-4 1.8-4 4-4 4 1.8 4 4m-18 36c0 2.2-1.8 4-4 4s-4-1.8-4-4 1.8-4 4-4 4 1.8 4 4m-36 0c0 2.2-1.8 4-4 4s-4-1.8-4-4 1.8-4 4-4 4 1.8 4 4m126-162c0 2.2-1.8 4-4 4s-4-1.8-4-4 1.8-4 4-4 4 1.8 4 4m18-36c0 2.2-1.8 4-4 4s-4-1.8-4-4 1.8-4 4-4 4 1.8 4 4m36 0c0 2.2-1.8 4-4 4s-4-1.8-4-4 1.8-4 4-4 4 1.8 4 4m18 36c0 2.2-1.8 4-4 4s-4-1.8-4-4 1.8-4 4-4 4 1.8 4 4m-18 36c0 2.2-1.8 4-4 4s-4-1.8-4-4 1.8-4 4-4 4 1.8 4 4m-36 0c0 2.2-1.8 4-4 4s-4-1.8-4-4 1.8-4 4-4 4 1.8 4 4m-18 90c0 2.2-1.8 4-4 4s-4-1.8-4-4 1.8-4 4-4 4 1.8 4 4m18-36c0 2.2-1.8 4-4 4s-4-1.8-4-4 1.8-4 4-4 4 1.8 4 4m36 0c0 2.2-1.8 4-4 4s-4-1.8-4-4 1.8-4 4-4 4 1.8 4 4m18 36c0 2.2-1.8 4-4 4s-4-1.8-4-4 1.8-4 4-4 4 1.8 4 4m-18 36c0 2.2-1.8 4-4 4s-4-1.8-4-4 1.8-4 4-4 4 1.8 4 4m-36 0c0 2.2-1.8 4-4 4s-4-1.8-4-4 1.8-4 4-4 4 1.8 4 4" fill="#fff" stroke="#000"/></svg>