<svg xmlns="http://www.w3.org/2000/svg" width="367" height="378"><g fill="none" stroke="#7fc0e6" stroke-width="4"><path d="M72.5 117.7l136.8-45.2 85.2 116.1-84.1 116.9-137.1-43.8-.8-144z"/><path stroke-linejoin="bevel" d="M127.6 127.3L244.1 212h-144l116.5-84.7-44.5 137-44.5-137z"/><path d="M72.5 117.7l144.1 9.6m-7.3-54.8L244.1 212m50.4-23.4l-122.4 75.7m38.3 41.2L100.1 212m-26.8 49.7l54.3-134.4"/></g><g fill="#0081cd"><circle cx="73.3" cy="261.7" r="6"/><circle cx="72.5" cy="117.7" r="6"/><circle cx="209.3" cy="72.5" r="6"/><circle cx="210.4" cy="305.5" r="6"/><circle cx="294.5" cy="188.6" r="6"/><circle cx="216.6" cy="127.3" r="6"/><circle cx="244.1" cy="212" r="6"/><circle cx="172.1" cy="264.3" r="6"/><circle cx="100.1" cy="212" r="6"/><circle cx="127.6" cy="127.3" r="6"/></g><g fill="none" stroke="#000"><circle cx="100.1" cy="212" r="72"/><circle cx="244.1" cy="212" r="72"/><circle cx="172.1" cy="264.3" r="72"/><circle cx="216.6" cy="127.3" r="72"/><circle cx="127.6" cy="127.3" r="72"/><circle cx="72.5" cy="117.7" r="72"/><circle cx="73.3" cy="261.7" r="72"/><circle cx="210.4" cy="305.5" r="72"/><circle cx="209.3" cy="72.5" r="72"/><circle cx="294.5" cy="188.6" r="72"/></g></svg>