<svg xmlns="http://www.w3.org/2000/svg" width="720" height="792"><path fill="none" stroke="#0081cd" stroke-width="3" d="M0 684h720"/><path fill="none" stroke="#7fc0e6" d="M0 612h720M0 540h720M0 468h720M0 396h720M0 324h720M0 252h720M0 180h720M0 108h720M0 36h720"/><path fill="none" stroke="#0081cd" stroke-width="3" d="M36 0v720"/><path fill="none" stroke="#7fc0e6" d="M108 0v720M180 0v720M252 0v720M324 0v720M396 0v720M468 0v720M540 0v720M612 0v720M684 0v720"/><path fill="none" stroke="#dd8ea2" stroke-width="5" d="M36 684v-72h72v-72h72V396h72V252h72V0"/><text transform="translate(50.9 750.1)" font-size="36"><tspan x="0" y="0" font-family="Times-Italic, Times" font-style="italic">i</tspan><tspan x="10" y="0" font-family="Times-Roman, Times">:</tspan></text><text transform="translate(8.5 784.8)" font-size="36"><tspan x="0" y="0" font-family="Times-Italic, Times" font-style="italic">π</tspan><tspan x="19.8" y="0" font-family="Times-Roman, Times">(</tspan><tspan x="31.7" y="0" font-family="Times-Italic, Times" font-style="italic">i</tspan><tspan x="41.7" y="0" font-family="Times-Roman, Times">):</tspan></text><text transform="translate(99 747)" font-family="Times-Roman, Times" font-size="36"><tspan x="0" y="0">1</tspan></text><text transform="translate(171.6 784.3)" font-family="Times-Roman, Times" font-size="36"><tspan x="0" y="0">1</tspan></text><text transform="translate(171 747)" font-family="Times-Roman, Times" font-size="36"><tspan x="0" y="0">2</tspan></text><text transform="translate(240.9 783)" font-family="Times-Roman, Times" font-size="36"><tspan x="0" y="0">2</tspan></text><text transform="translate(315 783)" font-family="Times-Roman, Times" font-size="36"><tspan x="0" y="0">2</tspan></text><text transform="translate(243 747)" font-family="Times-Roman, Times" font-size="36"><tspan x="0" y="0">3</tspan></text><text transform="translate(387 783)" font-family="Times-Roman, Times" font-size="36"><tspan x="0" y="0">3</tspan></text><text transform="translate(459 783)" font-family="Times-Roman, Times" font-size="36"><tspan x="0" y="0">3</tspan></text><text transform="translate(531 783)" font-family="Times-Roman, Times" font-size="36"><tspan x="0" y="0">4</tspan></text><text transform="translate(603 783)" font-family="Times-Roman, Times" font-size="36"><tspan x="0" y="0">4</tspan></text><text transform="translate(675 783)" font-family="Times-Roman, Times" font-size="36"><tspan x="0" y="0">4</tspan></text><text transform="translate(315 747)" font-family="Times-Roman, Times" font-size="36"><tspan x="0" y="0">4</tspan></text><text transform="translate(387 747)" font-family="Times-Roman, Times" font-size="36"><tspan x="0" y="0">5</tspan></text><text transform="translate(459 747)" font-family="Times-Roman, Times" font-size="36"><tspan x="0" y="0">6</tspan></text><text transform="translate(531 747)" font-family="Times-Roman, Times" font-size="36"><tspan x="0" y="0">7</tspan></text><text transform="translate(603 747)" font-family="Times-Roman, Times" font-size="36"><tspan x="0" y="0">8</tspan></text><text transform="translate(675 747)" font-family="Times-Roman, Times" font-size="36"><tspan x="0" y="0">9</tspan></text><text transform="translate(99 783)" font-family="Times-Roman, Times" font-size="36"><tspan x="0" y="0">0</tspan></text><path fill="none" stroke="#bc1e46" stroke-width="5" d="M36 684h72v-72h72v-72h144v-72h144v-72h252"/></svg>