<svg xmlns="http://www.w3.org/2000/svg" width="651" height="651"><path d="M226.5 10.5h198v54h-198zm-216 72h198v54h-198zm432 72h198v54h-198zm-432 72h198v54h-198zm216 72h198v54h-198zm216 72h198v54h-198zm-432 72h198v54h-198zm216 144h198v54h-198zm216-72h198v54h-198z" fill="#7fc0e6"/><path d="M10.5 10.5h198v54h-198zm432 72h198v54h-198zm-216 72h198v54h-198zm216 72h198v54h-198zm-432 72h198v54h-198zm216 72h198v54h-198zm0 72h198v54h-198zm-216 72h198v54h-198zm432 72h198v54h-198z" fill="#ffe07f"/><path d="M442.5 10.5h198v54h-198zm-216 72h198v54h-198zm-216 72h198v54h-198zm216 72h198v54h-198zm216 72h198v54h-198zm0 144h198v54h-198zm-216 72h198v54h-198zm-216 72h198v54h-198zm0-216h198v54h-198z" fill="#dd8ea2"/><g fill="none" stroke="#000"><path d="M1.5 1.5h648v648H1.5zm216 0v648m216-648v648m-432-432h648m-648 216h648" stroke-width="3"/><path d="M1.5 73.5h648m-648 72h648m-648 144h648m-648 72h648m-648 144h648m-648 72h648m-576-576v648m72-648v648m144-648v648m72-648v648m144-648v648m72-648v648"/></g><g font-family="Times-Roman, Times" font-size="48"><text transform="translate(25.5 55.5)">2</text><text transform="translate(97.5 343.5)">2</text><text transform="translate(169.5 559.5)">2</text><text transform="translate(97.5 55.5)">3</text><text transform="translate(169.5 343.5)">3</text><text transform="translate(25.5 559.5)">3</text><text transform="translate(169.5 55.5)">6</text><text transform="translate(25.5 343.5)">6</text><text transform="translate(97.5 559.5)">6</text></g></svg>