<svg xmlns="http://www.w3.org/2000/svg" width="651" height="652.05"><path d="M226.5 10.5h198v54h-198zm-216 72h198v54h-198zm432 72h198v54h-198zm-432 72h198v54h-198zm216 72h198v54h-198zm216 72h198v54h-198zm-432 72h198v54h-198zm216 144h198v54h-198zm216-72h198v54h-198z" fill="#7fc0e6"/><path d="M10.5 10.5h198v54h-198zm432 72h198v54h-198zm-216 72h198v54h-198zm216 72h198v54h-198zm-432 72h198v54h-198zm216 72h198v54h-198zm0 72h198v54h-198zm-216 72h198v54h-198zm432 72h198v54h-198z" fill="#ffe07f"/><path d="M442.5 10.5h198v54h-198zm-216 72h198v54h-198zm-216 72h198v54h-198zm216 72h198v54h-198zm216 72h198v54h-198zm0 144h198v54h-198zm-216 72h198v54h-198zm-216 72h198v54h-198zm0-216h198v54h-198z" fill="#dd8ea2"/><g fill="none" stroke="#000"><path d="M1.5 1.5h648v648H1.5zm216 0v648m216-648v648m-432-432h648m-648 216h648" stroke-width="3"/><path d="M1.5 73.5h648m-648 72h648m-648 144h648m-648 72h648m-648 144h648m-648 72h648m-576-576v648m72-648v648m144-648v648m72-648v648m144-648v648m72-648v648"/></g><g font-family="Times-Roman, Times" font-size="48"><text transform="translate(25.5 55.5)">2</text><text transform="translate(97.5 343.5)">2</text><text transform="translate(169.5 559.5)">2</text><text transform="translate(97.5 55.5)">3</text><text transform="translate(169.5 343.5)">3</text><text transform="translate(25.5 559.5)">3</text><text transform="translate(169.5 55.5)">6</text><text transform="translate(241.5 415.5)">2</text><text transform="translate(313.5 415.5)">3</text><text transform="translate(385.5 415.5)">6</text><text transform="translate(25.5 343.5)">6</text><text transform="translate(313.5 199.5)">2</text><text transform="translate(601.5 127.5)">2</text><text transform="translate(529.5 271.5)">2</text><text transform="translate(457.5 631.5)">2</text><text transform="translate(385.5 199.5)">3</text><text transform="translate(529.5 127.5)">3</text><text transform="translate(457.5 271.5)">3</text><text transform="translate(601.5 631.5)">3</text><text transform="translate(241.5 199.5)">6</text><text transform="translate(457.5 127.5)">6</text><text transform="translate(601.5 271.5)">6</text><text transform="translate(529.5 631.5)">6</text><text transform="translate(97.5 559.5)">6</text><text transform="translate(385.5 487.5)">2</text><text transform="translate(241.5 487.5)">3</text><text transform="translate(313.5 487.5)">6</text><text transform="translate(169.5 271.5)">1</text><text transform="translate(313.5 343.5)">1</text><text transform="translate(241.5 631.5)">1</text><text transform="translate(385.5 55.5)">1</text><text transform="translate(601.5 199.5)">1</text><text transform="translate(457.5 559.5)">1</text><text transform="translate(529.5 415.5)">1</text><text transform="translate(97.5 127.5)">1</text><text transform="translate(25.5 487.5)">1</text><text transform="translate(25.5 271.5)">4</text><text transform="translate(241.5 343.5)">4</text><text transform="translate(313.5 55.5)">4</text><text transform="translate(457.5 199.5)">4</text><text transform="translate(601.5 415.5)">4</text><text transform="translate(529.5 559.5)">4</text><text transform="translate(385.5 631.5)">4</text><text transform="translate(97.5 487.5)">4</text><text transform="translate(169.5 127.5)">4</text><text transform="translate(97.5 271.5)">9</text><text transform="translate(385.5 343.5)">9</text><text transform="translate(241.5 55.5)">9</text><text transform="translate(529.5 199.5)">9</text><text transform="translate(457.5 415.5)">9</text><text transform="translate(601.5 559.5)">9</text><text transform="translate(313.5 631.5)">9</text><text transform="translate(25.5 127.5)">9</text><text transform="translate(169.5 487.5)">9</text><text transform="translate(25.5 199.5)">5</text><text transform="translate(385.5 127.5)">5</text><text transform="translate(241.5 271.5)">5</text><text transform="translate(601.5 55.5)">5</text><text transform="translate(457.5 343.5)">5</text><text transform="translate(529.5 487.5)">5</text><text transform="translate(313.5 559.5)">5</text><text transform="translate(169.5 415.5)">5</text><text transform="translate(97.5 631.5)">5</text><text transform="translate(97.5 199.5)">7</text><text transform="translate(313.5 127.5)">7</text><text transform="translate(457.5 55.5)">7</text><text transform="translate(529.5 343.5)">7</text><text transform="translate(601.5 487.5)">7</text><text transform="translate(385.5 271.5)">7</text><text transform="translate(241.5 559.5)">7</text><text transform="translate(25.5 415.5)">7</text><text transform="translate(169.5 631.5)">7</text><text transform="translate(169.5 199.5)">8</text><text transform="translate(241.5 127.5)">8</text><text transform="translate(529.5 55.5)">8</text><text transform="translate(601.5 343.5)">8</text><text transform="translate(457.5 487.5)">8</text><text transform="translate(313.5 271.5)">8</text><text transform="translate(385.5 559.5)">8</text><text transform="translate(97.5 415.5)">8</text><text transform="translate(25.5 631.5)">8</text></g></svg>