<svg xmlns="http://www.w3.org/2000/svg" width="1154" height="721"><path d="M81.5 9.5h54v54h-54zm-72.48 72h54v54h-54zm144.99 72h54v54h-54zM9.02 261.5h54v54h-54zm72.48 72h54v54h-54zm72.51 72h54v54h-54zM9.02 513.5h54v54h-54zm144.99 72h54v54h-54zm-72.51 72h54v54h-54zm648-612h198v54h-198zm-216 72h198v54h-198zm432 72h198v54h-198zm-432 72h198v54h-198zm216 72h198v54h-198zm216 72h198v54h-198zm-432 72h198v54h-198zm216 144h198v54h-198zm216-72h198v54h-198z" fill="#7fc0e6"/><path d="M9.02 9.5h54v54h-54zm144.99 72h54v54h-54zm-72.51 72h54v54h-54zm72.51 108h54v54h-54zm-144.99 72h54v54h-54zm72.48 72h54v54h-54zm0 108h54v54h-54zm-72.48 72h54v54h-54zm144.99 72h54v54h-54zm359.49-612h198v54h-198zm432 72h198v54h-198zm-216 72h198v54h-198zm216 72h198v54h-198zm-432 72h198v54h-198zm216 72h198v54h-198zm0 72h198v54h-198zm-216 72h198v54h-198zm432 72h198v54h-198z" fill="#ffe07f"/><path d="M154.01 9.5h54v54h-54zm-72.51 72h54v54h-54zm-72.48 72h54v54h-54zm72.48 108h54v54h-54zm72.51 72h54v54h-54zm-144.99 72h54v54h-54zm144.99 108h54v54h-54zm-72.51 72h54v54h-54zm-72.48 72h54v54h-54zm936.48-612h198v54h-198zm-216 72h198v54h-198zm-216 72h198v54h-198zm216 72h198v54h-198zm216 72h198v54h-198zm0 144h198v54h-198zm-216 72h198v54h-198zm-216 72h198v54h-198zm0-216h198v54h-198z" fill="#dd8ea2"/><path d="M287.81 360.5h98.74m-98.74-216h98.74m-98.05 432h98.74" fill="none" stroke="#ccc" stroke-width="30"/><path d="M431.81 360.5c-21.3 7.9-47.72 21.39-64.11 35.67l12.9-35.67-12.9-35.66c16.38 14.28 42.81 27.77 64.11 35.66zm0-216c-21.3 7.9-47.72 21.39-64.11 35.67l12.9-35.67-12.9-35.66c16.38 14.28 42.81 27.77 64.11 35.66zm.69 432c-21.3 7.9-47.72 21.39-64.11 35.67l12.9-35.67-12.9-35.66c16.38 14.28 42.81 27.77 64.11 35.66z" fill="#ccc"/><g fill="none" stroke="#000"><path d="M504.5 36.5h648v648h-648zm216 0v648m216-648v648m-432-432h648m-648 216h648" stroke-width="3"/><path d="M.5.5h72v72H.5zm72 0h72v72h-72zm72 0h72v72h-72zm-144 72h72v72H.5zm72 0h72v72h-72zm72 0h72v72h-72zm-144 72h72v72H.5zm72 0h72v72h-72zm72 0h72v72h-72zm-144 108h72v72H.5zm72 0h72v72h-72zm72 0h72v72h-72zm-144 72h72v72H.5zm72 0h72v72h-72zm72 0h72v72h-72zm-144 72h72v72H.5zm72 0h72v72h-72zm72 0h72v72h-72zm-144 108h72v72H.5zm72 0h72v72h-72zm72 0h72v72h-72zm-144 72h72v72H.5zm72 0h72v72h-72zm72 0h72v72h-72zm-144 72h72v72H.5zm72 0h72v72h-72zm72 0h72v72h-72zm360-540h648m-648 72h648m-648 144h648m-648 72h648m-648 144h648m-648 72h648m-576-576v648m72-648v648m144-648v648m72-648v648m144-648v648m72-648v648"/></g></svg>