<svg xmlns="http://www.w3.org/2000/svg" width="649" height="75.05"><path d="M.5.5h72v72H.5zm288 0h72v72h-72zm72 0h72v72h-72zm72 0h72v72h-72zm72 0h72v72h-72zm72 0h72v72h-72zm-504 0h72v72h-72zm72 0h72v72h-72zm72 0h72v72h-72z" fill="none" stroke="#000"/><path d="M225.5 9.5h54v54h-54zm359.52 0h54v54h-54zM9.5 9.5h54v54h-54z" fill="#7fc0e6"/><path d="M298.01 9.5h54v54h-54zm143.49 0h54v54h-54zm72.51 0h54v54h-54z" fill="#dd8ea2"/><path d="M369.02 9.5h54v54h-54zm-287.01 0h54v54h-54zm71.01 0h54v54h-54z" fill="#ffe07f"/><g font-family="Times-Roman, Times" font-size="48"><text transform="translate(24.5 54.5)">1</text><text transform="translate(96.5 54.5)">2</text><text transform="translate(168.5 54.5)">3</text><text transform="translate(240.5 54.5)">4</text><text transform="translate(312.5 54.5)">5</text><text transform="translate(384.5 54.5)">6</text><text transform="translate(456.5 54.5)">7</text><text transform="translate(528.5 54.5)">8</text><text transform="translate(600.5 54.5)">9</text></g></svg>