<svg xmlns="http://www.w3.org/2000/svg" width="792" height="432"><path fill="none" stroke="#7fc0e6" stroke-width="20" d="M216 216h113.8"/><path d="M360 216c-14.2 5.3-31.8 14.3-42.7 23.8l8.6-23.8-8.6-23.8c10.9 9.5 28.5 18.5 42.7 23.8z" fill="#7fc0e6"/><path d="M99 342v90m0-90L27 216 99 90l72 126-72 126M27 216h144M99 0v90" fill="none" stroke="#000"/><path d="M477 0v90l-72 126h144l-72 126v90m216 0v-90l-72-126h144L693 90V0" fill="none" stroke="#000" stroke-width="6"/><g fill="#fff" stroke="#000"><circle cx="27" cy="216" r="18"/><circle cx="171" cy="216" r="18"/><circle cx="99" cy="342" r="18"/><circle cx="99" cy="90" r="18"/><circle cx="405" cy="216" r="18"/><circle cx="549" cy="216" r="18"/><circle cx="477" cy="342" r="18"/><circle cx="477" cy="90" r="18"/><circle cx="621" cy="216" r="18"/><circle cx="765" cy="216" r="18"/><circle cx="693" cy="342" r="18"/><circle cx="693" cy="90" r="18"/></g></svg>