<svg xmlns="http://www.w3.org/2000/svg" xmlns:xlink="http://www.w3.org/1999/xlink" width="1053" height="739">
    <defs>
        <path id="a" d="M0 0h1053v739H0z"/>
    </defs>
    <clipPath id="b">
        <use xlink:href="#a" overflow="visible"/>
    </clipPath>
    <path clip-path="url(#b)" fill="none" stroke="#0081CD" stroke-linecap="round" stroke-linejoin="round" stroke-miterlimit="10" d="M-1 336.51l1055 227.22"/>
    <g clip-path="url(#b)">
        <defs>
            <path id="c" d="M0 0h1053v739H0z"/>
        </defs>
        <clipPath id="d">
            <use xlink:href="#c" overflow="visible"/>
        </clipPath>
        <path clip-path="url(#d)" fill="none" stroke="#0081CD" stroke-linecap="round" stroke-linejoin="round" stroke-miterlimit="10" d="M811.81-1l58.7 741"/>
    </g>
    <g clip-path="url(#b)">
        <defs>
            <path id="e" d="M0 0h1053v739H0z"/>
        </defs>
        <clipPath id="f">
            <use xlink:href="#e" overflow="visible"/>
        </clipPath>
        <path clip-path="url(#f)" fill="none" stroke="#0081CD" stroke-linecap="round" stroke-linejoin="round" stroke-miterlimit="10" d="M867.24-1l-508 741"/>
    </g>
    <g clip-path="url(#b)">
        <defs>
            <path id="g" d="M0 0h1053v739H0z"/>
        </defs>
        <clipPath id="h">
            <use xlink:href="#g" overflow="visible"/>
        </clipPath>
        <path clip-path="url(#h)" fill="none" stroke="#0081CD" stroke-linecap="round" stroke-linejoin="round" stroke-miterlimit="10" d="M-1-42.69l1055 948.14"/>
    </g>
    <g clip-path="url(#b)">
        <defs>
            <path id="i" d="M0 0h1053v739H0z"/>
        </defs>
        <clipPath id="j">
            <use xlink:href="#i" overflow="visible"/>
        </clipPath>
        <path clip-path="url(#j)" fill="none" stroke="#0081CD" stroke-linecap="round" stroke-linejoin="round" stroke-miterlimit="10" d="M-1 220.5l1055 370.51"/>
    </g>
    <g clip-path="url(#b)">
        <defs>
            <path id="k" d="M0 0h1053v739H0z"/>
        </defs>
        <clipPath id="l">
            <use xlink:href="#k" overflow="visible"/>
        </clipPath>
        <path clip-path="url(#l)" fill="none" stroke="#0081CD" stroke-linecap="round" stroke-linejoin="round" stroke-miterlimit="10" d="M-1 841.56l1055-992.53"/>
    </g>
    <g clip-path="url(#b)">
        <defs>
            <path id="m" d="M0 0h1053v739H0z"/>
        </defs>
        <clipPath id="n">
            <use xlink:href="#m" overflow="visible"/>
        </clipPath>
        <path clip-path="url(#n)" fill="none" stroke="#0081CD" stroke-linecap="round" stroke-linejoin="round" stroke-miterlimit="10" d="M-1 453.34l1055-54.94"/>
    </g>
    <g clip-path="url(#b)">
        <defs>
            <path id="o" d="M0 0h1053v739H0z"/>
        </defs>
        <clipPath id="p">
            <use xlink:href="#o" overflow="visible"/>
        </clipPath>
        <path clip-path="url(#p)" fill="none" stroke="#0081CD" stroke-linecap="round" stroke-linejoin="round" stroke-miterlimit="10" d="M143.37-1l313.76 741"/>
    </g>
    <g clip-path="url(#b)">
        <defs>
            <path id="q" d="M0 0h1053v739H0z"/>
        </defs>
        <clipPath id="r">
            <use xlink:href="#q" overflow="visible"/>
        </clipPath>
        <path clip-path="url(#r)" fill="none" stroke="#0081CD" stroke-linecap="round" stroke-linejoin="round" stroke-miterlimit="10" d="M-33.67-1l535.41 741"/>
    </g>
    <g clip-path="url(#b)">
        <defs>
            <path id="s" d="M0 0h1053v739H0z"/>
        </defs>
        <clipPath id="t">
            <use xlink:href="#s" overflow="visible"/>
        </clipPath>
        <path clip-path="url(#t)" fill="none" stroke="#0081CD" stroke-linecap="round" stroke-linejoin="round" stroke-miterlimit="10" d="M-1 815.35l1055-599.63"/>
    </g>
    <g clip-path="url(#b)">
        <defs>
            <path id="u" d="M0 0h1053v739H0z"/>
        </defs>
        <clipPath id="v">
            <use xlink:href="#u" overflow="visible"/>
        </clipPath>
        <path clip-path="url(#v)" fill="none" stroke="#0081CD" stroke-linecap="round" stroke-linejoin="round" stroke-miterlimit="10" d="M337.13-1l-89.75 741"/>
    </g>
    <g clip-path="url(#b)">
        <defs>
            <path id="w" d="M0 0h1053v739H0z"/>
        </defs>
        <clipPath id="x">
            <use xlink:href="#w" overflow="visible"/>
        </clipPath>
        <path clip-path="url(#x)" fill="none" stroke="#0081CD" stroke-linecap="round" stroke-linejoin="round" stroke-miterlimit="10" d="M189.46-1l73.49 741"/>
    </g>
    <g clip-path="url(#b)">
        <defs>
            <path id="y" d="M0 0h1053v739H0z"/>
        </defs>
        <clipPath id="z">
            <use xlink:href="#y" overflow="visible"/>
        </clipPath>
        <path clip-path="url(#z)" fill="none" stroke="#0081CD" stroke-linecap="round" stroke-linejoin="round" stroke-miterlimit="10" d="M-1 363.87l1055-32.37"/>
    </g>
    <g clip-path="url(#b)">
        <defs>
            <path id="A" d="M0 0h1053v739H0z"/>
        </defs>
        <clipPath id="B">
            <use xlink:href="#A" overflow="visible"/>
        </clipPath>
        <path clip-path="url(#B)" fill="#FEC200" stroke="#231F20" stroke-miterlimit="10" d="M558.92 456.02c0 2.771-2.24 5-5 5s-5-2.229-5-5c0-2.76 2.24-5 5-5s5 2.24 5 5z"/>
    </g>
    <g clip-path="url(#b)">
        <defs>
            <path id="C" d="M0 0h1053v739H0z"/>
        </defs>
        <clipPath id="D">
            <use xlink:href="#C" overflow="visible"/>
        </clipPath>
        <path clip-path="url(#D)" fill="#FEC200" stroke="#231F20" stroke-miterlimit="10" d="M858.12 520.46c0 2.76-2.24 5-5 5-2.771 0-5-2.24-5-5s2.229-5 5-5c2.76 0 5 2.24 5 5z"/>
    </g>
    <g clip-path="url(#b)">
        <defs>
            <path id="E" d="M0 0h1053v739H0z"/>
        </defs>
        <clipPath id="F">
            <use xlink:href="#E" overflow="visible"/>
        </clipPath>
        <circle clip-path="url(#F)" fill="#FEC200" stroke="#231F20" stroke-miterlimit="10" cx="817.55" cy="71.47" r="5"/>
    </g>
    <g clip-path="url(#b)">
        <defs>
            <path id="G" d="M0 0h1053v739H0z"/>
        </defs>
        <clipPath id="H">
            <use xlink:href="#G" overflow="visible"/>
        </clipPath>
        <circle clip-path="url(#H)" fill="#BC1E47" stroke="#231F20" stroke-miterlimit="10" cx="479.7" cy="389.32" r="5"/>
    </g>
    <g clip-path="url(#b)">
        <defs>
            <path id="I" d="M0 0h1053v739H0z"/>
        </defs>
        <clipPath id="J">
            <use xlink:href="#I" overflow="visible"/>
        </clipPath>
        <circle clip-path="url(#J)" fill="#BC1E47" stroke="#231F20" stroke-miterlimit="10" cx="435.83" cy="430.59" r="5"/>
    </g>
    <g clip-path="url(#b)">
        <defs>
            <path id="K" d="M0 0h1053v739H0z"/>
        </defs>
        <clipPath id="L">
            <use xlink:href="#K" overflow="visible"/>
        </clipPath>
        <circle clip-path="url(#L)" fill="#BC1E47" stroke="#231F20" stroke-miterlimit="10" cx="576.37" cy="423.27" r="5"/>
    </g>
    <g clip-path="url(#b)">
        <defs>
            <path id="M" d="M0 0h1053v739H0z"/>
        </defs>
        <clipPath id="N">
            <use xlink:href="#M" overflow="visible"/>
        </clipPath>
        <path clip-path="url(#N)" fill="#FEC200" stroke="#231F20" stroke-miterlimit="10" d="M288.89 438.5c0 2.77-2.23 5-5 5-2.76 0-5-2.23-5-5 0-2.76 2.24-5 5-5 2.77 0 5 2.24 5 5z"/>
    </g>
    <g clip-path="url(#b)">
        <defs>
            <path id="O" d="M0 0h1053v739H0z"/>
        </defs>
        <clipPath id="P">
            <use xlink:href="#O" overflow="visible"/>
        </clipPath>
        <circle clip-path="url(#P)" fill="#FEC200" stroke="#231F20" stroke-miterlimit="10" cx="203.56" cy="141.15" r="5"/>
    </g>
    <g clip-path="url(#b)">
        <defs>
            <path id="Q" d="M0 0h1053v739H0z"/>
        </defs>
        <clipPath id="R">
            <use xlink:href="#Q" overflow="visible"/>
        </clipPath>
        <path clip-path="url(#R)" fill="#BC1E47" stroke="#231F20" stroke-miterlimit="10" d="M843.67 338.11c0 2.76-2.24 5-5 5s-5-2.24-5-5c0-2.77 2.24-5 5-5s5 2.23 5 5z"/>
    </g>
    <g clip-path="url(#b)">
        <defs>
            <path id="S" d="M0 0h1053v739H0z"/>
        </defs>
        <clipPath id="T">
            <use xlink:href="#S" overflow="visible"/>
        </clipPath>
        <path clip-path="url(#T)" fill="#BC1E47" stroke="#231F20" stroke-miterlimit="10" d="M398.98 590.86c0 2.76-2.24 5-5 5-2.77 0-5-2.24-5-5 0-2.761 2.23-5 5-5 2.76 0 5 2.24 5 5z"/>
    </g>
    <g clip-path="url(#b)">
        <defs>
            <path id="U" d="M0 0h1053v739H0z"/>
        </defs>
        <clipPath id="V">
            <use xlink:href="#U" overflow="visible"/>
        </clipPath>
        <circle clip-path="url(#V)" fill="#BC1E47" stroke="#231F20" stroke-miterlimit="10" cx="294.03" cy="354.82" r="5"/>
    </g>
    <g clip-path="url(#b)">
        <defs>
            <path id="W" d="M0 0h1053v739H0z"/>
        </defs>
        <clipPath id="X">
            <use xlink:href="#W" overflow="visible"/>
        </clipPath>
        <circle clip-path="url(#X)" fill="#BC1E47" stroke="#231F20" stroke-miterlimit="10" cx="255.94" cy="669.31" r="5"/>
    </g>
    <g clip-path="url(#b)">
        <defs>
            <path id="Y" d="M0 0h1053v739H0z"/>
        </defs>
        <clipPath id="Z">
            <use xlink:href="#Y" overflow="visible"/>
        </clipPath>
        <circle clip-path="url(#Z)" fill="#FEC200" stroke="#231F20" stroke-miterlimit="10" cx="224.96" cy="356.94" r="5"/>
    </g>
</svg>
