<svg xmlns="http://www.w3.org/2000/svg" width="1053" height="739">
    <g style="fill:none;stroke:#0081CD;">
        <path d="M811.81-1l58.7 741"/>
        <path d="M867.24-1l-508 741"/>
        <path d="M-1-42.69l1055 948.14"/>
        <path d="M-1 220.5l1055 370.51"/>
        <path d="M-1 841.56l1055-992.53"/>
        <path d="M-1 453.34l1055-54.94"/>
        <path d="M143.37-1l313.76 741"/>
        <path d="M-33.67-1l535.41 741"/>
        <path d="M-1 815.35l1055-599.63"/>
        <path d="M337.13-1l-89.75 741"/>
        <path d="M189.46-1l73.49 741"/>
        <path d="M-1 363.87l1055-32.37"/>
    </g>
    <g style="fill:#FEC200;stroke:#231F20;">
        <circle cx="553.92" cy="456.02" r="5"/>
        <circle cx="853.12" cy="520.46" r="5"/>
        <circle cx="817.55" cy="71.47" r="5"/>
        <circle cx="435.83" cy="430.59" r="5"/>
        <circle cx="283.89" cy="438.5" r="5"/>
        <circle cx="203.56" cy="141.15" r="5"/>
    </g>
    <g style="fill:#BC1E47;stroke:#231F20;">
        <circle cx="576.37" cy="423.27" r="5"/>
        <circle cx="479.7" cy="389.32" r="5"/>
        <circle cx="838.67" cy="338.11" r="5"/>
        <circle cx="393.98" cy="590.86" r="5"/>
        <circle cx="294.03" cy="354.82" r="5"/>
        <circle cx="255.94" cy="669.31" r="5"/>
        <circle cx="224.96" cy="356.94" r="5"/>
    </g>
</svg>