<svg xmlns="http://www.w3.org/2000/svg" width="396" height="684">
    <path fill="#FFEBAA" stroke="#000" stroke-width="2" d="M342 234H54V18h288v216zM270 90H126v72h144V90zm107.999 396H18V270h360v216zM162 342H90v72h72v-72zm144 0h-72v72h72v-72zM18 522h360v144H18z"/>
    <g fill="none">
        <path stroke="#000" stroke-width="3" d="M90 594h216"/>
        <g stroke="#0081CD">
            <path d="M54 90h1M125 90h1v-1M126 19v-1"/>
            <path stroke-dasharray="2,2" d="M57 90h67M126 87V20"/>
            <path stroke-dasharray="2" d="M54 162h72v72m72-72v72m0-144V18m71.999 0L270 90h71.999m-72 144l.001-72h71.999M18 342h72v-72m72 0v72h72l-.001-72m72 0l.001 72h71.999m0 72H306l-.001 72m-72 0l.001-72h-72v72m-72 0v-72H18m72 108v144m72-144v144m72-144v144m72-144v144m72-72h-72m-288 0h72"/>
        </g>
    </g>
</svg>
