<?xml version="1.0" encoding="utf-8"?>
<!-- Generator: Adobe Illustrator 15.1.0, SVG Export Plug-In . SVG Version: 6.00 Build 0)  -->
<!DOCTYPE svg PUBLIC "-//W3C//DTD SVG 1.1//EN" "http://www.w3.org/Graphics/SVG/1.1/DTD/svg11.dtd">
<svg version="1.1" id="Layer_1" xmlns="http://www.w3.org/2000/svg" xmlns:xlink="http://www.w3.org/1999/xlink" x="0px" y="0px"
	 width="315px" height="331px" viewBox="0 0 315 331" enable-background="new 0 0 315 331" xml:space="preserve">
<rect x="21.635" y="28.372" fill="#0081CD" stroke="#000000" stroke-width="2" stroke-miterlimit="10" width="266.199" height="292.8"/>
<rect x="54.733" y="64.772" transform="matrix(0.7429 -0.6694 0.6694 0.7429 -77.2118 148.5184)" fill="#FFEBAA" stroke="#000000" stroke-width="2" stroke-miterlimit="10" width="200.001" height="220"/>
<g>
	<path d="M224.365,231.768c0.004,0.02,0.006,0.064,0.006,0.135v14.109c0,0.602,0.161,0.984,0.482,1.148
		c0.322,0.164,0.923,0.262,1.803,0.293v0.328h-6.621v-0.352c0.945-0.047,1.562-0.176,1.852-0.387s0.434-0.668,0.434-1.371V234.82
		c0-0.375-0.047-0.66-0.141-0.855s-0.297-0.293-0.609-0.293c-0.203,0-0.467,0.057-0.791,0.17s-0.627,0.232-0.908,0.357v-0.328
		l4.301-2.191h0.141C224.344,231.719,224.361,231.748,224.365,231.768z"/>
</g>
<g>
	<path d="M76.545,221.337c0.188-0.129,0.379-0.193,0.574-0.193c0.094,0,0.188,0.014,0.281,0.041s0.195,0.072,0.305,0.135l0.41,0.223
		c0.055,0.031,0.107,0.053,0.158,0.064s0.107,0.018,0.17,0.018c0.195,0,0.346-0.049,0.451-0.146s0.377-0.439,0.814-1.025
		c0.289-0.383,0.945-1.316,1.969-2.801c0-0.055-0.09-0.475-0.27-1.26s-0.344-1.451-0.492-1.998c-0.148-0.555-0.281-0.92-0.398-1.096
		s-0.336-0.264-0.656-0.264c-0.109,0-0.324,0.039-0.645,0.117c-0.203,0.047-0.422,0.102-0.656,0.164l-0.105-0.363l1.301-0.445
		c0.336-0.117,0.646-0.211,0.932-0.281s0.529-0.105,0.732-0.105c0.328,0,0.574,0.098,0.738,0.293c0.25,0.312,0.461,0.93,0.633,1.852
		l0.246,1.336c0.703-1.078,1.25-1.836,1.641-2.273c0.352-0.398,0.684-0.695,0.996-0.891s0.609-0.293,0.891-0.293
		c0.266,0,0.48,0.039,0.645,0.117c0.297,0.141,0.445,0.406,0.445,0.797c0,0.266-0.074,0.473-0.223,0.621s-0.34,0.223-0.574,0.223
		c-0.086,0-0.168-0.01-0.246-0.029s-0.16-0.049-0.246-0.088l-0.305-0.129c-0.086-0.039-0.168-0.072-0.246-0.1
		s-0.137-0.041-0.176-0.041c-0.352,0-0.84,0.455-1.465,1.365s-0.938,1.436-0.938,1.576c0,0.117,0.072,0.498,0.217,1.143
		s0.303,1.326,0.475,2.045c0.156,0.68,0.289,1.148,0.398,1.406c0.18,0.422,0.383,0.633,0.609,0.633c0.211,0,0.426-0.117,0.645-0.352
		s0.547-0.656,0.984-1.266l0.328,0.199c-0.336,0.609-0.684,1.129-1.043,1.559c-0.68,0.812-1.328,1.219-1.945,1.219
		c-0.391,0-0.699-0.188-0.926-0.562c-0.133-0.219-0.262-0.578-0.387-1.078l-0.727-2.895l-2.402,3.152
		c-0.469,0.547-0.83,0.914-1.084,1.102s-0.568,0.281-0.943,0.281c-0.5,0-0.84-0.156-1.02-0.469
		c-0.102-0.164-0.152-0.359-0.152-0.586C76.264,221.683,76.357,221.466,76.545,221.337z"/>
</g>
<g>
	<path d="M291.924,99.056c0.188-0.129,0.379-0.193,0.574-0.193c0.094,0,0.188,0.014,0.281,0.041s0.195,0.072,0.305,0.135l0.41,0.223
		c0.055,0.031,0.107,0.053,0.158,0.064s0.107,0.018,0.17,0.018c0.195,0,0.346-0.049,0.451-0.146s0.377-0.439,0.814-1.025
		c0.289-0.383,0.945-1.316,1.969-2.801c0-0.055-0.09-0.475-0.27-1.26s-0.344-1.451-0.492-1.998c-0.148-0.555-0.281-0.92-0.398-1.096
		s-0.336-0.264-0.656-0.264c-0.109,0-0.324,0.039-0.645,0.117c-0.203,0.047-0.422,0.102-0.656,0.164l-0.105-0.363l1.301-0.445
		c0.336-0.117,0.646-0.211,0.932-0.281s0.529-0.105,0.732-0.105c0.328,0,0.574,0.098,0.738,0.293c0.25,0.312,0.461,0.93,0.633,1.852
		l0.246,1.336c0.703-1.078,1.25-1.836,1.641-2.273c0.352-0.398,0.684-0.695,0.996-0.891s0.609-0.293,0.891-0.293
		c0.266,0,0.48,0.039,0.645,0.117c0.297,0.141,0.445,0.406,0.445,0.797c0,0.266-0.074,0.473-0.223,0.621s-0.34,0.223-0.574,0.223
		c-0.086,0-0.168-0.01-0.246-0.029s-0.16-0.049-0.246-0.088l-0.305-0.129c-0.086-0.039-0.168-0.072-0.246-0.1
		s-0.137-0.041-0.176-0.041c-0.352,0-0.84,0.455-1.465,1.365s-0.938,1.436-0.938,1.576c0,0.117,0.072,0.498,0.217,1.143
		s0.303,1.326,0.475,2.045c0.156,0.68,0.289,1.148,0.398,1.406c0.18,0.422,0.383,0.633,0.609,0.633c0.211,0,0.426-0.117,0.645-0.352
		s0.547-0.656,0.984-1.266l0.328,0.199c-0.336,0.609-0.684,1.129-1.043,1.559c-0.68,0.812-1.328,1.219-1.945,1.219
		c-0.391,0-0.699-0.188-0.926-0.562c-0.133-0.219-0.262-0.578-0.387-1.078l-0.727-2.895l-2.402,3.152
		c-0.469,0.547-0.83,0.914-1.084,1.102s-0.568,0.281-0.943,0.281c-0.5,0-0.84-0.156-1.02-0.469
		c-0.102-0.164-0.152-0.359-0.152-0.586C291.643,99.401,291.736,99.185,291.924,99.056z"/>
	<path d="M308.79,84.427h0.835v7.91h1.837v1.169h-1.837v2.997h-1.397v-2.997h-5.062v-1.169L308.79,84.427z M308.21,86.241
		l-4.313,6.096h4.313V86.241z"/>
</g>
<g>
	<path d="M53.319,22.007c0.188-0.129,0.379-0.193,0.574-0.193c0.094,0,0.188,0.014,0.281,0.041s0.195,0.072,0.305,0.135l0.41,0.223
		c0.055,0.031,0.107,0.053,0.158,0.064s0.107,0.018,0.17,0.018c0.195,0,0.346-0.049,0.451-0.146s0.377-0.439,0.814-1.025
		c0.289-0.383,0.945-1.316,1.969-2.801c0-0.055-0.09-0.475-0.27-1.26s-0.344-1.451-0.492-1.998c-0.148-0.555-0.281-0.92-0.398-1.096
		s-0.336-0.264-0.656-0.264c-0.109,0-0.324,0.039-0.645,0.117c-0.203,0.047-0.422,0.102-0.656,0.164l-0.105-0.363l1.301-0.445
		c0.336-0.117,0.646-0.211,0.932-0.281s0.529-0.105,0.732-0.105c0.328,0,0.574,0.098,0.738,0.293c0.25,0.312,0.461,0.93,0.633,1.852
		l0.246,1.336c0.703-1.078,1.25-1.836,1.641-2.273c0.352-0.398,0.684-0.695,0.996-0.891s0.609-0.293,0.891-0.293
		c0.266,0,0.48,0.039,0.645,0.117c0.297,0.141,0.445,0.406,0.445,0.797c0,0.266-0.074,0.473-0.223,0.621s-0.34,0.223-0.574,0.223
		c-0.086,0-0.168-0.01-0.246-0.029s-0.16-0.049-0.246-0.088l-0.305-0.129c-0.086-0.039-0.168-0.072-0.246-0.1
		s-0.137-0.041-0.176-0.041c-0.352,0-0.84,0.455-1.465,1.365s-0.938,1.436-0.938,1.576c0,0.117,0.072,0.498,0.217,1.143
		s0.303,1.326,0.475,2.045c0.156,0.68,0.289,1.148,0.398,1.406c0.18,0.422,0.383,0.633,0.609,0.633c0.211,0,0.426-0.117,0.645-0.352
		s0.547-0.656,0.984-1.266l0.328,0.199c-0.336,0.609-0.684,1.129-1.043,1.559c-0.68,0.812-1.328,1.219-1.945,1.219
		c-0.391,0-0.699-0.188-0.926-0.562c-0.133-0.219-0.262-0.578-0.387-1.078l-0.727-2.895l-2.402,3.152
		c-0.469,0.547-0.83,0.914-1.084,1.102s-0.568,0.281-0.943,0.281c-0.5,0-0.84-0.156-1.02-0.469
		c-0.102-0.164-0.152-0.359-0.152-0.586C53.038,22.353,53.132,22.136,53.319,22.007z"/>
	<path d="M67.035,18.43c0.53,0.337,0.98,0.505,1.349,0.505c0.82,0,1.43-0.277,1.828-0.832c0.398-0.554,0.598-1.157,0.598-1.809
		c0-0.628-0.161-1.179-0.483-1.655c-0.545-0.804-1.465-1.206-2.76-1.206c-0.076,0-0.149,0.001-0.22,0.004s-0.152,0.01-0.246,0.022
		l-0.018-0.229c0.938-0.34,1.676-0.729,2.215-1.169s0.809-1.02,0.809-1.74c0-0.639-0.212-1.125-0.637-1.459s-0.91-0.501-1.455-0.501
		c-0.645,0-1.213,0.237-1.705,0.712c-0.27,0.258-0.56,0.656-0.87,1.195l-0.272-0.062c0.234-0.891,0.671-1.603,1.31-2.136
		s1.377-0.8,2.215-0.8c0.896,0,1.589,0.246,2.079,0.738s0.734,1.061,0.734,1.705c0,0.568-0.202,1.09-0.606,1.564
		c-0.229,0.27-0.583,0.571-1.063,0.905c0.562,0.24,1.014,0.521,1.354,0.844c0.639,0.615,0.958,1.395,0.958,2.338
		c0,1.113-0.438,2.095-1.314,2.944s-2.123,1.274-3.74,1.274c-0.721,0-1.226-0.107-1.516-0.321s-0.435-0.444-0.435-0.69
		c0-0.152,0.048-0.299,0.145-0.439s0.253-0.211,0.47-0.211C66.078,17.925,66.504,18.093,67.035,18.43z"/>
</g>
</svg>
