<?xml version="1.0" encoding="utf-8"?>
<!-- Generator: Adobe Illustrator 15.1.0, SVG Export Plug-In . SVG Version: 6.00 Build 0)  -->
<!DOCTYPE svg PUBLIC "-//W3C//DTD SVG 1.1//EN" "http://www.w3.org/Graphics/SVG/1.1/DTD/svg11.dtd">
<svg version="1.1" id="Layer_1" xmlns="http://www.w3.org/2000/svg" xmlns:xlink="http://www.w3.org/1999/xlink" x="0px" y="0px"
	 width="454px" height="403px" viewBox="0 0 454 403" enable-background="new 0 0 454 403" xml:space="preserve">
<rect x="254.762" y="125.007" transform="matrix(0.5 0.866 -0.866 0.5 275.8137 -155.7155)" fill="#FFFFFF" width="35.999" height="71.998"/>
<rect x="254.762" y="125.007" transform="matrix(0.5 0.866 -0.866 0.5 275.8137 -155.7155)" fill="none" stroke="#009246" stroke-width="2" width="35.999" height="71.998"/>
<rect x="161.243" y="124.999" transform="matrix(0.5 -0.866 0.866 0.5 -49.8086 235.7233)" fill="#FFFFFF" width="35.998" height="71.998"/>
<rect x="161.243" y="124.999" transform="matrix(0.5 -0.866 0.866 0.5 -49.8086 235.7233)" fill="none" stroke="#009246" stroke-width="2" width="35.998" height="71.998"/>
<rect x="208" y="206" fill="#FFFFFF" width="36" height="72"/>
<rect x="208" y="206" fill="none" stroke="#009246" stroke-width="2" width="36" height="72"/>
<rect x="169.824" y="296.726" transform="matrix(-0.7071 -0.7071 0.7071 -0.7071 85.3599 700.8103)" fill="#FFFFFF" width="35.996" height="72"/>
<rect x="169.824" y="296.726" transform="matrix(-0.7071 -0.7071 0.7071 -0.7071 85.3599 700.8103)" fill="none" stroke="#009246" stroke-width="2" width="35.996" height="72"/>
<rect x="246.179" y="296.728" transform="matrix(-0.7071 0.7071 -0.7071 -0.7071 686.2575 381.1999)" fill="#FFFFFF" width="36.002" height="72.001"/>
<rect x="246.179" y="296.728" transform="matrix(-0.7071 0.7071 -0.7071 -0.7071 686.2575 381.1999)" fill="none" stroke="#009246" stroke-width="2" width="36.002" height="72.001"/>
<circle fill="#FFFFFF" cx="226" cy="296" r="30"/>
<circle fill="none" stroke="#009246" stroke-width="2" cx="226" cy="296" r="30"/>
<circle fill="#FFFFFF" cx="154" cy="368" r="30"/>
<circle fill="none" stroke="#009246" stroke-width="2" cx="154" cy="368" r="30"/>
<circle fill="#FFFFFF" cx="226" cy="188" r="30"/>
<circle fill="none" stroke="#009246" stroke-width="2" cx="226" cy="188" r="30"/>
<circle fill="#FFFFFF" cx="298" cy="368" r="30"/>
<circle fill="none" stroke="#009246" stroke-width="2" cx="298" cy="368" r="30"/>
<rect x="352.427" y="112.72" transform="matrix(-0.2588 0.9659 -0.9659 -0.2588 609.9464 -170.5967)" fill="#FFFFFF" width="35.997" height="71.995"/>
<rect x="352.428" y="112.719" transform="matrix(-0.2588 0.9659 -0.9659 -0.2588 609.947 -170.5972)" fill="none" stroke="#009246" stroke-width="1.9999" width="35.997" height="71.996"/>
<rect x="314.254" y="46.58" transform="matrix(0.9659 0.2588 -0.2588 0.9659 32.6916 -83.1749)" fill="#FFFFFF" width="35.996" height="71.996"/>
<rect x="314.254" y="46.58" transform="matrix(0.9659 0.2588 -0.2588 0.9659 32.6916 -83.1749)" fill="none" stroke="#009246" stroke-width="1.9999" width="35.996" height="71.996"/>
<circle fill="#FFFFFF" cx="319.531" cy="134" r="30"/>
<circle fill="none" stroke="#009246" stroke-width="2" cx="319.531" cy="134" r="30"/>
<circle fill="#FFFFFF" cx="417.887" cy="160.355" r="30"/>
<circle fill="none" stroke="#009246" stroke-width="2" cx="417.887" cy="160.355" r="30"/>
<circle fill="#FFFFFF" cx="345.887" cy="35.645" r="30"/>
<circle fill="none" stroke="#009246" stroke-width="2" cx="345.887" cy="35.645" r="30"/>
<rect x="101.76" y="46.568" transform="matrix(0.9659 -0.2588 0.2588 0.9659 -17.2888 33.8083)" fill="#FFFFFF" width="35.997" height="71.997"/>
<rect x="101.76" y="46.568" transform="matrix(0.9659 -0.2588 0.2588 0.9659 -17.2888 33.8083)" fill="none" stroke="#009246" stroke-width="1.9999" width="35.997" height="71.997"/>
<rect x="63.572" y="112.699" transform="matrix(-0.2588 -0.9659 0.9659 -0.2588 -40.9512 265.9733)" fill="#FFFFFF" width="36.001" height="71.999"/>
<rect x="63.572" y="112.699" transform="matrix(-0.2588 -0.9659 0.9659 -0.2588 -40.9512 265.9733)" fill="none" stroke="#009246" stroke-width="1.9999" width="36.001" height="71.999"/>
<circle fill="#FFFFFF" cx="132.469" cy="134" r="30"/>
<circle fill="none" stroke="#009246" stroke-width="2" cx="132.469" cy="134" r="30"/>
<circle fill="#FFFFFF" cx="106.117" cy="35.645" r="30"/>
<circle fill="none" stroke="#009246" stroke-width="2" cx="106.117" cy="35.645" r="30"/>
<circle fill="#FFFFFF" cx="34.117" cy="160.352" r="30"/>
<circle fill="none" stroke="#009246" stroke-width="2" cx="34.117" cy="160.352" r="30"/>
<path fill="none" stroke="#000000" d="M207.41,184.195c0,0-13.965-8-19.594-13.527c-5.628-5.531-12.64-14.199-17.816-19.336
	c-5.176-5.137-18.941-13.527-18.941-13.527c-25.981-15-44.942-102.16-44.942-102.16s4.914,2.828,12.305,14.023
	c7.394,11.195,20.637,72.332,35.637,82.937l62.351,36c7.59,4.059,10.953,4.75,19.18,0l62.352-36
	c15-7.07,30.859-70.742,33.055-78.941c2.195-8.195,14.887-18.019,14.887-18.019s-18.961,87.156-44.941,102.156
	c0,0-13.449,10-19.273,14.863c-5.824,4.867-12.109,12.531-17.484,18c-5.375,5.473-19.594,13.531-19.594,13.531
	C234.723,189.891,232,192.332,232,206c0,0,1,15.336-1.668,23.336S224,245.664,222,254s-2,24-2,24c0,30-66,90-66,90s0-3.332,6-15.332
	s53.621-54.691,54-74.668v-72c0-9.668-2.812-12.695-9.59-16.609"/>
<path fill="none" stroke="#000000" d="M204.414,189.391l-62.355-36C124,143.68,76.27,158,52.332,164.004
	c-8.23,2.066-18.219-3.652-18.219-3.652s84.965-27.157,110.946-12.157c0,0,13.449,7.332,22.273,9.805s15.961,4.477,24.668,6.004
	c8.707,1.531,21.41,9.801,21.41,9.801c9.922,5.195,14.57,4.828,25.18,0c0,0,12.781-7.664,21.41-9.801
	c8.625-2.137,17.824-3.809,26-6.004s20.941-9.805,20.941-9.805c25.98-15,110.941,12.16,110.941,12.16s-11.16,1.508-24.551,2.313
	c-13.395,0.801-65-18.988-83.391-9.277l-62.355,36C239.367,194.141,238,196.668,238,206v72c1,21.125,45.527,64,51.527,70
	S298,368,298,368s-66-60-66-90c0,0-1-14.496-2.332-22.16c-1.332-7.668-5-17.84-7.332-26.504C220,220.668,220,206,220,206
	c0-13-2.719-16.105-12.59-21.805"/>
<path fill="none" stroke="#000000" d="M154,368c18,6,54-54,72-54s54,60,72,54"/>
<circle fill="#0081CD" cx="154" cy="368" r="6"/>
<circle fill="none" stroke="#000000" cx="154" cy="368" r="6"/>
<circle fill="#FEC200" cx="298" cy="368" r="6"/>
<circle fill="none" stroke="#000000" cx="298" cy="368" r="6"/>
<path fill="none" stroke="#000000" d="M417.887,160.355c-3.805-18.589-73.77-19.765-82.77-35.355s24.965-76.766,10.77-89.355"/>
<circle fill="#0081CD" cx="417.887" cy="160.355" r="6"/>
<circle fill="none" stroke="#000000" cx="417.887" cy="160.355" r="6"/>
<path fill="#FEC200" d="M351.883,35.645c0,3.316-2.684,6-5.996,6c-3.316,0-6-2.684-6-6c0-3.313,2.684-5.997,6-5.997
	C349.199,29.648,351.883,32.332,351.883,35.645z"/>
<path fill="none" stroke="#000000" d="M351.883,35.645c0,3.316-2.684,6-5.996,6c-3.316,0-6-2.684-6-6c0-3.313,2.684-5.997,6-5.997
	C349.199,29.648,351.883,32.332,351.883,35.645z"/>
<path fill="none" stroke="#000000" d="M106.117,35.645C91.922,48.234,125.883,109.41,116.883,125s-78.965,16.766-82.77,35.355"/>
<path fill="#0081CD" d="M112.113,35.645c0,3.312-2.683,6-6,6c-3.312,0-6-2.688-6-6c0-3.313,2.688-6,6-6
	C109.43,29.645,112.113,32.332,112.113,35.645z"/>
<path fill="none" stroke="#000000" d="M112.113,35.645c0,3.312-2.683,6-6,6c-3.312,0-6-2.688-6-6c0-3.313,2.688-6,6-6
	C109.43,29.645,112.113,32.332,112.113,35.645z"/>
<circle fill="#FEC200" cx="34.117" cy="160.352" r="6"/>
<circle fill="none" stroke="#000000" cx="34.117" cy="160.352" r="6"/>
<path fill="#BC1E47" d="M181.867,161c0,4-6,4-6,0S181.867,157,181.867,161z"/>
<path fill="none" stroke="#000000" d="M181.867,161c0,4-6,4-6,0S181.867,157,181.867,161z"/>
<path fill="#BC1E47" d="M275.766,161.43c0,4-6,4-6,0S275.766,157.43,275.766,161.43z"/>
<path fill="none" stroke="#000000" d="M275.766,161.43c0,4-6,4-6,0S275.766,157.43,275.766,161.43z"/>
<path fill="#BC1E47" d="M229,241.312c0,4-6,4-6,0S229,237.312,229,241.312z"/>
<path fill="none" stroke="#000000" d="M229,241.312c0,4-6,4-6,0S229,237.312,229,241.312z"/>
</svg>
