<?xml version="1.0" encoding="UTF-8"?>
<!DOCTYPE svg PUBLIC "-//W3C//DTD SVG 1.1//EN" "http://www.w3.org/Graphics/SVG/1.1/DTD/svg11.dtd">
<svg version="1.1" id="Layer_1" xmlns="http://www.w3.org/2000/svg" xmlns:xlink="http://www.w3.org/1999/xlink" width="400" height="400" viewBox="0 0 400 400" overflow="visible" enable-background="new 0 0 400 400.001" xml:space="preserve">
<g style="fill:none;stroke:#B2B2B2;stroke-width:2px">
<line x1="18.27" y1="124.724" x2="383.163" y2="275.868"/>
<line x1="141.698" y1="142.69" x2="258.79" y2="257.788"/>
<line x1="200.948" y1="118.148" x2="200.95" y2="281.745"/>
<line x1="143.108" y1="257.786" x2="258.79" y2="142.105"/>
<line x1="18.27" y1="275.868" x2="381.635" y2="124.724"/>
<line x1="125.145" y1="17.848" x2="276.29" y2="382.743"/>
<line x1="125.145" y1="382.743" x2="276.29" y2="17.848"/>
<line x1="118.148" y1="199.052" x2="281.852" y2="200.949"/>
</g>
<g style="fill:none;stroke:#000000;stroke-width:2px">
<polygon points="276.29,382.743 125.145,382.743 143.108,257.786 282.749,199.946"/>
<polygon points="258.79,142.105 119.15,199.946 125.145,17.848 276.29,17.848"/>
<polygon points="200.95,281.745 18.27,275.868 18.27,124.724 143.109,142.106"/>
<polygon points="383.163,275.868 258.79,257.788 200.948,118.148 383.163,124.724"/>
<polygon points="383.163,275.868 276.29,382.743 200.95,281.745 258.79,142.105"/>
<polygon points="381.635,124.724 281.336,200.531 141.698,142.69 274.762,17.848"/>
<polygon points="258.79,257.788 125.145,382.743 18.27,275.868 119.15,199.946"/>
<polygon points="200.948,118.148 143.108,257.786 18.27,124.724 125.145,17.848"/>
</g>
<g style="fill:blue;stroke:#000000;stroke-width:2px">
<circle cx="200.948" cy="118.148" r="10"/>
<circle cx="125.145" cy="17.848" r="10"/>
<circle cx="142.792" cy="141.452" r="10"/>
<circle cx="18.268" cy="124.13" r="10"/>
<circle cx="118.148" cy="199.052" r="10"/>
<circle cx="17.848" cy="274.855" r="10"/>
<circle cx="141.451" cy="257.208" r="10"/>
<circle cx="124.129" cy="381.732" r="10"/>
<circle cx="199.052" cy="281.852" r="10"/>
<circle cx="274.855" cy="382.152" r="10"/>
<circle cx="257.208" cy="258.549" r="10"/>
<circle cx="381.731" cy="275.871" r="10"/>
<circle cx="281.852" cy="200.949" r="10"/>
<circle cx="382.152" cy="125.146" r="10"/>
<circle cx="258.548" cy="142.793" r="10"/>
<circle cx="275.871" cy="18.269" r="10"/>
</g>
</svg>