<?xml version="1.0" encoding="utf-8"?>
<!-- Generator: Adobe Illustrator 14.0.0, SVG Export Plug-In . SVG Version: 6.00 Build 43363)  -->
<!DOCTYPE svg PUBLIC "-//W3C//DTD SVG 1.1//EN" "http://www.w3.org/Graphics/SVG/1.1/DTD/svg11.dtd">
<svg version="1.1" id="Layer_1" xmlns="http://www.w3.org/2000/svg" xmlns:xlink="http://www.w3.org/1999/xlink" x="0px" y="0px"
	 width="423px" height="432px" viewBox="0 0 423 432" enable-background="new 0 0 423 432" xml:space="preserve">
<rect fill="#FFFFFF" width="423" height="432"/>
<polyline fill="none" stroke="#000000" points="99,225 315,333 99,333 99,117 207,333 "/>
<line fill="none" stroke="#000000" x1="27" y1="189" x2="171" y2="45"/>
<line fill="none" stroke="#000000" x1="243" y1="405" x2="387" y2="261"/>
<circle fill="#FFFFFF" stroke="#000000" cx="27" cy="189" r="18"/>
<circle fill="#FFFFFF" stroke="#000000" cx="243" cy="405" r="18"/>
<circle fill="#FFFFFF" stroke="#000000" cx="171" cy="45" r="18"/>
<circle fill="#FFFFFF" stroke="#000000" cx="387" cy="261" r="18"/>
<text transform="matrix(1 0 0 1 19.6699 198.0005)" font-family="'Times-Italic'" font-size="24">A</text>
<text transform="matrix(1 0 0 1 235.6699 414.0005)" font-family="'Times-Italic'" font-size="24">B</text>
<text transform="matrix(1 0 0 1 162.9961 54)" font-family="'Times-Italic'" font-size="24">C</text>
<text transform="matrix(1 0 0 1 378.334 270.0005)" font-family="'Times-Italic'" font-size="24">D</text>
<circle fill="#0081CD" stroke="#000000" cx="99" cy="225" r="9"/>
<circle fill="#0081CD" stroke="#000000" cx="99" cy="333" r="9"/>
<circle fill="#0081CD" stroke="#000000" cx="171" cy="261" r="9"/>
<circle fill="#0081CD" stroke="#000000" cx="207" cy="333" r="9"/>
<text transform="matrix(1 0 0 1 3.0059 162.0005)" font-family="'Times-Roman'" font-size="18">(0,6,3)</text>
<text transform="matrix(1 0 0 1 48.0059 108.0005)" font-family="'Times-Roman'" font-size="18">(0,6,0)</text>
<text transform="matrix(1 0 0 1 318.0059 351.0005)" font-family="'Times-Roman'" font-size="18">(6,0,0)</text>
<text transform="matrix(1 0 0 1 219.0059 378.0005)" font-family="'Times-Roman'" font-size="18">(6,0,3)</text>
<text transform="matrix(1 0 0 1 142.5059 18.0005)" font-family="'Times-Roman'" font-size="18">(0,6,–3)</text>
<text transform="matrix(1 0 0 1 358.5059 234.0005)" font-family="'Times-Roman'" font-size="18">(6,0,–3)</text>
<text transform="matrix(1 0 0 1 39.0059 234.0005)" font-family="'Times-Roman'" font-size="18">(0,3,0)</text>
<text transform="matrix(1 0 0 1 39.0059 333.0005)" font-family="'Times-Roman'" font-size="18">(0,0,0)</text>
<text transform="matrix(1 0 0 1 165.0059 243)" font-family="'Times-Roman'" font-size="18">(2,2,0)</text>
<text transform="matrix(1 0 0 1 156.0059 360.0005)" font-family="'Times-Roman'" font-size="18">(3,0,0)</text>
</svg>
