<?xml version="1.0" standalone="no"?>
<!DOCTYPE svg PUBLIC "-//W3C//DTD SVG 1.1//EN" 
  "http://www.w3.org/Graphics/SVG/1.1/DTD/svg11.dtd">
<svg width="533" height="533" viewBox="-0 -0 533 533"
     xmlns="http://www.w3.org/2000/svg" version="1.1">
  <g style="fill:none; stroke:black">
    <line x1="267.00" y1="306.79" x2="267.00" y2="356.79" />
    <line x1="229.16" y1="279.30" x2="181.61" y2="294.75" />
    <line x1="243.61" y1="234.81" x2="214.22" y2="194.36" />
    <line x1="290.39" y1="234.81" x2="319.78" y2="194.36" />
    <line x1="304.84" y1="279.30" x2="352.39" y2="294.75" />
    <line x1="189.85" y1="373.19" x2="141.38" y2="439.91" />
    <line x1="142.17" y1="226.44" x2="63.74" y2="200.96" />
    <line x1="267.00" y1="135.75" x2="267.00" y2="53.28" />
    <line x1="391.83" y1="226.44" x2="470.26" y2="200.96" />
    <line x1="344.15" y1="373.19" x2="392.62" y2="439.91" />
  </g>
  <g style="fill:none; stroke:#0081CD; stroke-width: 4;">
    <path d="M 229.16,279.30 A 223.74,223.74 1 0 0 267.00,306.79" />
    <path d="M 243.61,234.81 A 223.74,223.74 1 0 0 229.16,279.30" />
    <path d="M 290.39,234.81 A 223.74,223.74 1 0 0 243.61,234.81" />
    <path d="M 304.84,279.30 A 223.74,223.74 1 0 0 290.39,234.81" />
    <path d="M 267.00,306.79 A 223.74,223.74 1 0 0 304.84,279.30" />
    <path d="M 63.74,200.96 A 137.51,137.51 1 0 0 141.38,439.91" />
    <path d="M 267.00,53.28 A 137.51,137.51 1 0 0 63.74,200.96" />
    <path d="M 470.26,200.96 A 137.51,137.51 1 0 0 267.00,53.28" />
    <path d="M 392.62,439.91 A 137.51,137.51 1 0 0 470.26,200.96" />
    <path d="M 141.38,439.91 A 137.51,137.51 1 0 0 392.62,439.91" />
    <path d="M 189.85,373.19 A 127.62,127.62 1 0 0 267.00,356.79" />
    <path d="M 267.00,356.79 A 127.62,127.62 1 0 0 344.15,373.19" />
    <path d="M 142.17,226.44 A 127.62,127.62 1 0 0 181.61,294.75" />
    <path d="M 181.61,294.75 A 127.62,127.62 1 0 0 189.85,373.19" />
    <path d="M 267.00,135.75 A 127.62,127.62 1 0 0 214.22,194.36" />
    <path d="M 214.22,194.36 A 127.62,127.62 1 0 0 142.17,226.44" />
    <path d="M 391.83,226.44 A 127.62,127.62 1 0 0 319.78,194.36" />
    <path d="M 319.78,194.36 A 127.62,127.62 1 0 0 267.00,135.75" />
    <path d="M 344.15,373.19 A 127.62,127.62 1 0 0 352.39,294.75" />
    <path d="M 352.39,294.75 A 127.62,127.62 1 0 0 391.83,226.44" />
  </g>
  <g style="fill:#FEC200; stroke:black">
    <circle cx="267.00" cy="306.79" r="10.0" />
    <circle cx="229.16" cy="279.30" r="10.0" />
    <circle cx="243.61" cy="234.81" r="10.0" />
    <circle cx="290.39" cy="234.81" r="10.0" />
    <circle cx="304.84" cy="279.30" r="10.0" />
    <circle cx="267.00" cy="356.79" r="10.0" />
    <circle cx="181.61" cy="294.75" r="10.0" />
    <circle cx="214.22" cy="194.36" r="10.0" />
    <circle cx="319.78" cy="194.36" r="10.0" />
    <circle cx="352.39" cy="294.75" r="10.0" />
    <circle cx="189.85" cy="373.19" r="10.0" />
    <circle cx="142.17" cy="226.44" r="10.0" />
    <circle cx="267.00" cy="135.75" r="10.0" />
    <circle cx="391.83" cy="226.44" r="10.0" />
    <circle cx="344.15" cy="373.19" r="10.0" />
    <circle cx="141.38" cy="439.91" r="10.0" />
    <circle cx="63.74" cy="200.96" r="10.0" />
    <circle cx="267.00" cy="53.28" r="10.0" />
    <circle cx="470.26" cy="200.96" r="10.0" />
    <circle cx="392.62" cy="439.91" r="10.0" />
  </g>
</svg>
