<?xml version="1.0" encoding="utf-8"?>
<!-- Generator: Adobe Illustrator 14.0.0, SVG Export Plug-In . SVG Version: 6.00 Build 43363)  -->
<!DOCTYPE svg PUBLIC "-//W3C//DTD SVG 1.1//EN" "http://www.w3.org/Graphics/SVG/1.1/DTD/svg11.dtd">
<svg version="1.1" id="Layer_2" xmlns="http://www.w3.org/2000/svg" xmlns:xlink="http://www.w3.org/1999/xlink" x="0px" y="0px"
	 width="847px" height="434px" viewBox="148.5 96.5 847 434" enable-background="new 148.5 96.5 847 434" xml:space="preserve">
<g>
	<g>
		
			<polygon opacity="0.8" fill="#FEC200" stroke="#000000" stroke-width="1.5" stroke-linejoin="bevel" stroke-miterlimit="10" points="
			466.469,451.596 517.369,382.963 413.95,383.348 		"/>
		
			<polygon opacity="0.8" fill="#FEC200" stroke="#000000" stroke-width="1.5" stroke-linejoin="bevel" stroke-miterlimit="10" points="
			466.469,451.596 517.369,382.963 552.652,402.698 		"/>
		
			<polygon opacity="0.8" fill="#FEC200" stroke="#000000" stroke-width="1.5" stroke-linejoin="bevel" stroke-miterlimit="10" points="
			466.469,451.596 413.95,383.348 379.264,403.869 		"/>
		
			<polygon opacity="0.8" fill="#EEC130" stroke="#000000" stroke-width="1.5" stroke-linejoin="bevel" stroke-miterlimit="10" points="
			466.469,451.596 466.231,416.184 552.652,402.698 		"/>
		
			<polyline opacity="0.8" fill="#FECE33" stroke="#000000" stroke-width="1.5" stroke-linejoin="bevel" stroke-miterlimit="10" points="
			466.469,451.596 466.231,416.184 379.264,403.869 465.66,451.152 		"/>
		
			<polygon opacity="0.8" fill="#FEE698" stroke="#000000" stroke-width="1.5" stroke-linejoin="bevel" stroke-miterlimit="10" points="
			413.95,383.348 379.264,403.869 466.231,416.184 552.652,402.698 517.369,382.963 		"/>
	</g>
	<g>
		
			<polygon opacity="0.8" fill="#FEC200" stroke="#000000" stroke-width="1.5" stroke-linejoin="bevel" stroke-miterlimit="10" points="
			464.431,247.897 415.204,342.748 518.623,342.363 		"/>
		
			<polygon opacity="0.8" fill="#FEC200" stroke="#000000" stroke-width="1.5" stroke-linejoin="bevel" stroke-miterlimit="10" points="
			464.431,247.897 551.398,260.213 518.623,342.363 		"/>
		
			<polygon opacity="0.8" fill="#FEC200" stroke="#000000" stroke-width="1.5" stroke-linejoin="bevel" stroke-miterlimit="10" points="
			378.01,261.383 415.204,342.748 464.431,247.897 		"/>
		
			<polygon opacity="0.8" fill="#FEC200" stroke="#000000" stroke-width="1.5" stroke-linejoin="bevel" stroke-miterlimit="10" points="
			378.01,261.383 380.518,363.27 415.204,342.748 		"/>
		
			<polygon opacity="0.8" fill="#FEE698" stroke="#000000" stroke-width="1.5" stroke-linejoin="bevel" stroke-miterlimit="10" points="
			516.712,280.734 551.398,260.213 464.431,247.897 378.01,261.383 412.562,280.734 		"/>
		
			<polygon opacity="0.8" fill="#FEE698" stroke="#000000" stroke-width="1.5" stroke-linejoin="bevel" stroke-miterlimit="10" points="
			415.204,342.748 380.518,363.27 467.485,375.586 553.906,362.1 518.623,342.363 		"/>
		<path opacity="0.8" fill="#FEC200" stroke="#000000" stroke-width="1.5" stroke-linejoin="bevel" stroke-miterlimit="10" d="
			M516.712,280.734"/>
		
			<polygon opacity="0.8" fill="#FEC200" stroke="#000000" stroke-width="1.5" stroke-linejoin="bevel" stroke-miterlimit="10" points="
			551.398,259.708 553.906,362.1 518.623,342.363 		"/>
		
			<polyline opacity="0.8" fill="#EEC130" stroke="#000000" stroke-width="1.5" stroke-linejoin="bevel" stroke-miterlimit="10" points="
			551.234,260.124 553.906,362.1 516.712,280.734 551.398,259.708 		"/>
		
			<polygon opacity="0.8" fill="#FEC200" stroke="#000000" stroke-width="1.5" stroke-linejoin="bevel" stroke-miterlimit="10" points="
			516.712,280.734 553.906,362.1 467.485,375.586 		"/>
		
			<polygon opacity="0.8" fill="#FECB26" stroke="#000000" stroke-width="1.5" stroke-linejoin="bevel" stroke-miterlimit="10" points="
			516.712,280.734 412.562,280.734 467.485,375.586 		"/>
		
			<polygon opacity="0.8" fill="#FED44C" stroke="#000000" stroke-width="1.5" stroke-linejoin="bevel" stroke-miterlimit="10" points="
			412.562,280.734 380.518,363.27 467.485,375.586 		"/>
		
			<polygon opacity="0.8" fill="#FEE07F" stroke="#000000" stroke-width="1.5" stroke-linejoin="bevel" stroke-miterlimit="10" points="
			378.01,261.383 380.518,363.27 412.562,280.734 		"/>
	</g>
	<g>
		
			<polygon opacity="0.8" fill="#FEC200" stroke="#000000" stroke-width="1.5" stroke-linejoin="bevel" stroke-miterlimit="10" points="
			465.447,174.57 465.685,209.981 379.264,223.467 		"/>
		
			<polyline opacity="0.8" fill="#FEC200" stroke="#000000" stroke-width="1.5" stroke-linejoin="bevel" stroke-miterlimit="10" points="
			465.447,174.57 465.685,209.981 552.652,222.298 466.256,175.014 		"/>
		
			<polygon opacity="0.8" fill="#FEC200" stroke="#000000" stroke-width="1.5" stroke-linejoin="bevel" stroke-miterlimit="10" points="
			517.966,242.818 552.652,222.297 465.685,209.981 379.264,223.467 413.816,242.818 		"/>
		
			<polygon opacity="0.8" fill="#FED44C" stroke="#000000" stroke-width="1.5" stroke-linejoin="bevel" stroke-miterlimit="10" points="
			465.447,174.57 413.816,242.818 517.966,242.818 		"/>
		
			<polygon opacity="0.8" fill="#FEE698" stroke="#000000" stroke-width="1.5" stroke-linejoin="bevel" stroke-miterlimit="10" points="
			465.447,174.57 413.816,242.818 379.264,223.467 		"/>
		
			<polygon opacity="0.8" fill="#FEC200" stroke="#000000" stroke-width="1.5" stroke-linejoin="bevel" stroke-miterlimit="10" points="
			465.447,174.57 517.966,242.818 552.652,222.298 		"/>
		<path opacity="0.8" fill="#FEC200" stroke="#000000" stroke-width="1.5" stroke-linejoin="bevel" stroke-miterlimit="10" d="
			M517.966,242.818"/>
	</g>
</g>
<g>
	
		<polygon opacity="0.8" fill="#FEC200" stroke="#000000" stroke-width="1.5" stroke-linejoin="bevel" stroke-miterlimit="10" points="
		254.949,412.338 305.85,343.705 202.43,344.089 	"/>
	
		<polygon opacity="0.8" fill="#FEC200" stroke="#000000" stroke-width="1.5" stroke-linejoin="bevel" stroke-miterlimit="10" points="
		254.949,412.338 305.85,343.705 341.133,363.44 	"/>
	
		<polygon opacity="0.8" fill="#FEC200" stroke="#000000" stroke-width="1.5" stroke-linejoin="bevel" stroke-miterlimit="10" points="
		254.949,412.338 202.43,344.089 167.743,364.61 	"/>
	
		<polygon opacity="0.8" fill="#EEC130" stroke="#000000" stroke-width="1.5" stroke-linejoin="bevel" stroke-miterlimit="10" points="
		254.949,412.338 254.711,376.926 341.133,363.44 	"/>
	
		<polyline opacity="0.8" fill="#FECE33" stroke="#000000" stroke-width="1.5" stroke-linejoin="bevel" stroke-miterlimit="10" points="
		254.949,412.338 254.711,376.926 167.743,364.61 254.139,411.895 	"/>
	
		<polygon opacity="0.8" fill="#FEC200" stroke="#000000" stroke-width="1.5" stroke-linejoin="bevel" stroke-miterlimit="10" points="
		251.657,249.239 202.43,344.09 305.85,343.705 	"/>
	
		<polygon opacity="0.8" fill="#FEC200" stroke="#000000" stroke-width="1.5" stroke-linejoin="bevel" stroke-miterlimit="10" points="
		251.657,249.239 338.625,261.555 305.85,343.705 	"/>
	
		<polygon opacity="0.8" fill="#FEC200" stroke="#000000" stroke-width="1.5" stroke-linejoin="bevel" stroke-miterlimit="10" points="
		165.235,262.725 202.43,344.09 251.657,249.239 	"/>
	
		<polygon opacity="0.8" fill="#FEC200" stroke="#000000" stroke-width="1.5" stroke-linejoin="bevel" stroke-miterlimit="10" points="
		165.235,262.725 167.743,364.61 202.43,344.09 	"/>
	<path opacity="0.8" fill="#FEC200" stroke="#000000" stroke-width="1.5" stroke-linejoin="bevel" stroke-miterlimit="10" d="
		M303.938,282.076"/>
	
		<polygon opacity="0.8" fill="#FEC200" stroke="#000000" stroke-width="1.5" stroke-linejoin="bevel" stroke-miterlimit="10" points="
		338.625,261.05 341.133,363.441 305.85,343.705 	"/>
	
		<polyline opacity="0.8" fill="#EEC130" stroke="#000000" stroke-width="1.5" stroke-linejoin="bevel" stroke-miterlimit="10" points="
		338.461,261.465 341.133,363.441 303.938,282.076 338.625,261.05 	"/>
	
		<polygon opacity="0.8" fill="#FEC200" stroke="#000000" stroke-width="1.5" stroke-linejoin="bevel" stroke-miterlimit="10" points="
		303.938,282.076 341.133,363.441 254.711,376.928 	"/>
	
		<polygon opacity="0.8" fill="#FECB26" stroke="#000000" stroke-width="1.5" stroke-linejoin="bevel" stroke-miterlimit="10" points="
		303.938,282.076 199.789,282.076 254.711,376.928 	"/>
	
		<polygon opacity="0.8" fill="#FED44C" stroke="#000000" stroke-width="1.5" stroke-linejoin="bevel" stroke-miterlimit="10" points="
		199.789,282.076 167.743,364.61 254.711,376.928 	"/>
	
		<polygon opacity="0.8" fill="#FEE07F" stroke="#000000" stroke-width="1.5" stroke-linejoin="bevel" stroke-miterlimit="10" points="
		165.235,262.725 167.743,364.61 199.789,282.076 	"/>
	
		<polygon opacity="0.8" fill="#FEC200" stroke="#000000" stroke-width="1.5" stroke-linejoin="bevel" stroke-miterlimit="10" points="
		251.419,213.828 251.657,249.239 165.236,262.725 	"/>
	
		<polyline opacity="0.8" fill="#FEC200" stroke="#000000" stroke-width="1.5" stroke-linejoin="bevel" stroke-miterlimit="10" points="
		251.419,213.828 251.657,249.239 338.625,261.556 252.229,214.271 	"/>
	
		<polygon opacity="0.8" fill="#FED44C" stroke="#000000" stroke-width="1.5" stroke-linejoin="bevel" stroke-miterlimit="10" points="
		251.419,213.828 199.789,282.076 303.938,282.076 	"/>
	
		<polygon opacity="0.8" fill="#FEE698" stroke="#000000" stroke-width="1.5" stroke-linejoin="bevel" stroke-miterlimit="10" points="
		251.419,213.828 199.789,282.076 165.236,262.725 	"/>
	
		<polygon opacity="0.8" fill="#FEC200" stroke="#000000" stroke-width="1.5" stroke-linejoin="bevel" stroke-miterlimit="10" points="
		251.419,213.828 303.938,282.076 338.625,261.556 	"/>
	<path opacity="0.8" fill="#FEC200" stroke="#000000" stroke-width="1.5" stroke-linejoin="bevel" stroke-miterlimit="10" d="
		M305.191,244.16"/>
</g>
<g>
	<path opacity="0.8" fill="#FEC200" stroke="#000000" stroke-width="1.5" stroke-linejoin="bevel" stroke-miterlimit="10" d="
		M678.732,259.463"/>
	<g>
		
			<polygon opacity="0.8" fill="#FEC200" stroke="#000000" stroke-width="1.5" stroke-linejoin="bevel" stroke-miterlimit="10" points="
			678.732,516.023 678.459,443.855 592.037,457.342 		"/>
		
			<polyline opacity="0.8" fill="#FEC200" stroke="#000000" stroke-width="1.5" stroke-linejoin="bevel" stroke-miterlimit="10" points="
			678.732,516.023 678.459,443.855 765.427,456.173 679.541,516.466 		"/>
		
			<polygon opacity="0.8" fill="#FEE698" stroke="#000000" stroke-width="1.5" stroke-linejoin="bevel" stroke-miterlimit="10" points="
			730.74,476.693 765.427,456.173 678.459,443.855 592.037,457.342 626.59,476.693 		"/>
		
			<polygon opacity="0.8" fill="#FED44C" stroke="#000000" stroke-width="1.5" stroke-linejoin="bevel" stroke-miterlimit="10" points="
			678.732,516.023 626.59,476.693 730.74,476.693 		"/>
		
			<polygon opacity="0.8" fill="#FEE698" stroke="#000000" stroke-width="1.5" stroke-linejoin="bevel" stroke-miterlimit="10" points="
			678.732,516.023 626.59,476.693 592.037,457.342 		"/>
		
			<polygon opacity="0.8" fill="#FEC200" stroke="#000000" stroke-width="1.5" stroke-linejoin="bevel" stroke-miterlimit="10" points="
			678.732,516.023 730.74,476.693 765.427,456.173 		"/>
		<path opacity="0.8" fill="#FEC200" stroke="#000000" stroke-width="1.5" stroke-linejoin="bevel" stroke-miterlimit="10" d="
			M730.74,476.693"/>
	</g>
	<g>
		
			<polygon opacity="0.8" fill="#FEC200" stroke="#000000" stroke-width="1.5" stroke-linejoin="bevel" stroke-miterlimit="10" points="
			677.205,183.027 627.979,277.878 731.397,277.493 		"/>
		
			<polygon opacity="0.8" fill="#FEC200" stroke="#000000" stroke-width="1.5" stroke-linejoin="bevel" stroke-miterlimit="10" points="
			677.205,183.027 764.173,195.343 731.397,277.493 		"/>
		
			<polygon opacity="0.8" fill="#FEC200" stroke="#000000" stroke-width="1.5" stroke-linejoin="bevel" stroke-miterlimit="10" points="
			590.783,196.513 627.979,277.878 677.205,183.027 		"/>
		
			<polygon opacity="0.8" fill="#FEC200" stroke="#000000" stroke-width="1.5" stroke-linejoin="bevel" stroke-miterlimit="10" points="
			590.783,196.513 593.291,298.398 627.979,277.878 		"/>
		
			<polygon opacity="0.8" fill="#FEE698" stroke="#000000" stroke-width="1.5" stroke-linejoin="bevel" stroke-miterlimit="10" points="
			729.486,215.864 764.173,195.343 677.205,183.027 590.783,196.513 625.336,215.864 		"/>
		
			<polygon opacity="0.8" fill="#FEE698" stroke="#000000" stroke-width="1.5" stroke-linejoin="bevel" stroke-miterlimit="10" points="
			627.979,277.878 593.291,298.398 680.26,310.715 766.681,297.229 731.397,277.493 		"/>
		<path opacity="0.8" fill="#FEC200" stroke="#000000" stroke-width="1.5" stroke-linejoin="bevel" stroke-miterlimit="10" d="
			M729.486,215.864"/>
		
			<polygon opacity="0.8" fill="#FEC200" stroke="#000000" stroke-width="1.5" stroke-linejoin="bevel" stroke-miterlimit="10" points="
			764.173,194.838 766.681,297.229 731.397,277.493 		"/>
		
			<polyline opacity="0.8" fill="#EEC130" stroke="#000000" stroke-width="1.5" stroke-linejoin="bevel" stroke-miterlimit="10" points="
			764.009,195.253 766.681,297.229 729.486,215.864 764.173,194.838 		"/>
		
			<polygon opacity="0.8" fill="#FEC200" stroke="#000000" stroke-width="1.5" stroke-linejoin="bevel" stroke-miterlimit="10" points="
			729.486,215.864 766.681,297.229 680.26,310.715 		"/>
		
			<polygon opacity="0.8" fill="#FECB26" stroke="#000000" stroke-width="1.5" stroke-linejoin="bevel" stroke-miterlimit="10" points="
			729.486,215.864 625.336,215.864 680.26,310.715 		"/>
		
			<polygon opacity="0.8" fill="#FED44C" stroke="#000000" stroke-width="1.5" stroke-linejoin="bevel" stroke-miterlimit="10" points="
			625.336,215.864 593.291,298.398 680.26,310.715 		"/>
		
			<polygon opacity="0.8" fill="#FEE07F" stroke="#000000" stroke-width="1.5" stroke-linejoin="bevel" stroke-miterlimit="10" points="
			590.783,196.513 593.291,298.398 625.336,215.864 		"/>
	</g>
	<g>
		
			<polygon opacity="0.8" fill="#FEC200" stroke="#000000" stroke-width="1.5" stroke-linejoin="bevel" stroke-miterlimit="10" points="
			678.221,109.7 678.459,145.11 592.037,158.596 		"/>
		
			<polyline opacity="0.8" fill="#FEC200" stroke="#000000" stroke-width="1.5" stroke-linejoin="bevel" stroke-miterlimit="10" points="
			678.221,109.7 678.459,145.11 765.427,157.427 679.03,110.143 		"/>
		
			<polygon opacity="0.8" fill="#FEC200" stroke="#000000" stroke-width="1.5" stroke-linejoin="bevel" stroke-miterlimit="10" points="
			730.74,177.948 765.427,157.427 678.459,145.11 592.037,158.596 626.59,177.948 		"/>
		
			<polygon opacity="0.8" fill="#FED44C" stroke="#000000" stroke-width="1.5" stroke-linejoin="bevel" stroke-miterlimit="10" points="
			678.221,109.7 626.59,177.948 730.74,177.948 		"/>
		
			<polygon opacity="0.8" fill="#FEE698" stroke="#000000" stroke-width="1.5" stroke-linejoin="bevel" stroke-miterlimit="10" points="
			678.221,109.7 626.59,177.948 592.037,158.596 		"/>
		
			<polygon opacity="0.8" fill="#FEC200" stroke="#000000" stroke-width="1.5" stroke-linejoin="bevel" stroke-miterlimit="10" points="
			678.221,109.7 730.74,177.948 765.427,157.427 		"/>
		<path opacity="0.8" fill="#FEC200" stroke="#000000" stroke-width="1.5" stroke-linejoin="bevel" stroke-miterlimit="10" d="
			M730.74,177.948"/>
	</g>
	<g>
		
			<polygon opacity="0.8" fill="#FEE07F" stroke="#000000" stroke-width="1.5" stroke-linejoin="bevel" stroke-miterlimit="10" points="
			729.723,318.037 766.735,418.328 764.277,337.388 		"/>
		
			<polyline opacity="0.8" fill="#EEC130" stroke="#000000" stroke-width="1.5" stroke-linejoin="bevel" stroke-miterlimit="10" points="
			625.25,316.961 593.346,419.497 590.728,337.571 625.416,316.545 		"/>
		
			<polygon opacity="0.8" fill="#FED44C" stroke="#000000" stroke-width="1.5" stroke-linejoin="bevel" stroke-miterlimit="10" points="
			625.416,316.545 593.346,419.497 680.338,406.396 		"/>
		
			<polygon opacity="0.8" fill="#FEC200" stroke="#000000" stroke-width="1.5" stroke-linejoin="bevel" stroke-miterlimit="10" points="
			729.564,316.545 766.735,418.328 680.338,406.396 		"/>
		
			<polygon opacity="0.8" fill="#FEE698" stroke="#000000" stroke-width="1.5" stroke-linejoin="bevel" stroke-miterlimit="10" points="
			732.049,438.848 766.735,418.328 679.768,406.011 593.346,419.497 627.898,438.848 		"/>
		
			<polygon opacity="0.8" fill="#FECB26" stroke="#000000" stroke-width="1.5" stroke-linejoin="bevel" stroke-miterlimit="10" points="
			729.723,316.545 625.574,316.545 680.497,406.396 		"/>
		
			<polygon opacity="0.8" fill="#FEC200" stroke="#000000" stroke-width="1.5" stroke-linejoin="bevel" stroke-miterlimit="10" points="
			677.855,349.383 764.275,335.896 732.049,438.848 		"/>
		
			<polygon opacity="0.8" fill="#FED44C" stroke="#000000" stroke-width="1.5" stroke-linejoin="bevel" stroke-miterlimit="10" points="
			590.887,337.066 628.082,439.041 677.308,349.189 		"/>
		
			<polygon opacity="0.8" fill="#EEC130" stroke="#000000" stroke-width="1.5" stroke-linejoin="bevel" stroke-miterlimit="10" points="
			764.277,337.388 732.049,438.848 766.735,418.328 		"/>
		
			<polygon opacity="0.8" fill="#FEE698" stroke="#000000" stroke-width="1.5" stroke-linejoin="bevel" stroke-miterlimit="10" points="
			625.574,316.545 590.887,337.066 677.855,349.383 764.275,335.896 728.992,316.16 		"/>
		
			<polygon opacity="0.8" fill="#FECB26" stroke="#000000" stroke-width="1.5" stroke-linejoin="bevel" stroke-miterlimit="10" points="
			677.855,349.383 628.629,439.233 732.049,438.848 		"/>
		
			<polygon opacity="0.8" fill="#FEE07F" stroke="#000000" stroke-width="1.5" stroke-linejoin="bevel" stroke-miterlimit="10" points="
			590.728,337.571 628.629,439.233 593.346,419.497 		"/>
	</g>
</g>
<g>
	<g>
		
			<polygon opacity="0.8" fill="#FEC200" stroke="#000000" stroke-width="1.5" stroke-linejoin="bevel" stroke-miterlimit="10" points="
			894.08,458.905 893.807,386.738 807.386,400.225 		"/>
		
			<polyline opacity="0.8" fill="#FEC200" stroke="#000000" stroke-width="1.5" stroke-linejoin="bevel" stroke-miterlimit="10" points="
			894.08,458.905 893.807,386.738 980.775,399.055 894.89,459.348 		"/>
		
			<polygon opacity="0.8" fill="#FED44C" stroke="#000000" stroke-width="1.5" stroke-linejoin="bevel" stroke-miterlimit="10" points="
			894.08,458.905 841.938,419.576 946.088,419.576 		"/>
		
			<polygon opacity="0.8" fill="#FEE698" stroke="#000000" stroke-width="1.5" stroke-linejoin="bevel" stroke-miterlimit="10" points="
			894.08,458.905 841.938,419.576 807.386,400.225 		"/>
		
			<polygon opacity="0.8" fill="#FEC200" stroke="#000000" stroke-width="1.5" stroke-linejoin="bevel" stroke-miterlimit="10" points="
			894.08,458.905 946.088,419.576 980.775,399.055 		"/>
		<path opacity="0.8" fill="#FEC200" stroke="#000000" stroke-width="1.5" stroke-linejoin="bevel" stroke-miterlimit="10" d="
			M946.088,419.576"/>
	</g>
	<g>
		
			<polygon opacity="0.8" fill="#FEE07F" stroke="#000000" stroke-width="1.5" stroke-linejoin="bevel" stroke-miterlimit="10" points="
			943.58,298.57 980.593,398.861 978.134,317.922 		"/>
		
			<polyline opacity="0.8" fill="#EEC130" stroke="#000000" stroke-width="1.5" stroke-linejoin="bevel" stroke-miterlimit="10" points="
			839.107,297.494 807.203,400.031 804.585,318.105 839.272,297.08 		"/>
		
			<polygon opacity="0.8" fill="#FED44C" stroke="#000000" stroke-width="1.5" stroke-linejoin="bevel" stroke-miterlimit="10" points="
			839.272,297.08 807.203,400.031 894.195,386.932 		"/>
		
			<polygon opacity="0.8" fill="#FEC200" stroke="#000000" stroke-width="1.5" stroke-linejoin="bevel" stroke-miterlimit="10" points="
			943.422,297.08 980.593,398.861 894.195,386.932 		"/>
		
			<polygon opacity="0.8" fill="#FECB26" stroke="#000000" stroke-width="1.5" stroke-linejoin="bevel" stroke-miterlimit="10" points="
			943.58,297.08 839.432,297.08 894.354,386.932 		"/>
		
			<polygon opacity="0.8" fill="#FEC200" stroke="#000000" stroke-width="1.5" stroke-linejoin="bevel" stroke-miterlimit="10" points="
			891.713,329.917 978.133,316.432 945.905,419.383 		"/>
		
			<polygon opacity="0.8" fill="#FED44C" stroke="#000000" stroke-width="1.5" stroke-linejoin="bevel" stroke-miterlimit="10" points="
			804.744,317.601 841.938,419.576 891.165,329.725 		"/>
		
			<polygon opacity="0.8" fill="#EEC130" stroke="#000000" stroke-width="1.5" stroke-linejoin="bevel" stroke-miterlimit="10" points="
			978.134,317.922 945.905,419.383 980.593,398.861 		"/>
		
			<polygon opacity="0.8" fill="#FECB26" stroke="#000000" stroke-width="1.5" stroke-linejoin="bevel" stroke-miterlimit="10" points="
			891.713,329.917 842.486,419.768 945.905,419.383 		"/>
		
			<polygon opacity="0.8" fill="#FEE07F" stroke="#000000" stroke-width="1.5" stroke-linejoin="bevel" stroke-miterlimit="10" points="
			804.585,318.105 842.485,419.768 807.203,400.031 		"/>
	</g>
	<path opacity="0.8" fill="#FEC200" stroke="#000000" stroke-width="1.5" stroke-linejoin="bevel" stroke-miterlimit="10" d="
		M890.185,278.665"/>
	<g>
		
			<polygon opacity="0.8" fill="#FEC200" stroke="#000000" stroke-width="1.5" stroke-linejoin="bevel" stroke-miterlimit="10" points="
			888.658,202.229 839.432,297.08 942.85,296.694 		"/>
		
			<polygon opacity="0.8" fill="#FEC200" stroke="#000000" stroke-width="1.5" stroke-linejoin="bevel" stroke-miterlimit="10" points="
			888.658,202.229 975.627,214.545 942.85,296.694 		"/>
		
			<polygon opacity="0.8" fill="#FEC200" stroke="#000000" stroke-width="1.5" stroke-linejoin="bevel" stroke-miterlimit="10" points="
			802.236,215.714 839.432,297.08 888.658,202.229 		"/>
		
			<polygon opacity="0.8" fill="#FEC200" stroke="#000000" stroke-width="1.5" stroke-linejoin="bevel" stroke-miterlimit="10" points="
			802.236,215.714 804.744,317.601 839.432,297.08 		"/>
		<path opacity="0.8" fill="#FEC200" stroke="#000000" stroke-width="1.5" stroke-linejoin="bevel" stroke-miterlimit="10" d="
			M940.939,235.065"/>
		
			<polygon opacity="0.8" fill="#FEC200" stroke="#000000" stroke-width="1.5" stroke-linejoin="bevel" stroke-miterlimit="10" points="
			975.627,214.04 978.133,316.432 942.85,296.694 		"/>
		
			<polyline opacity="0.8" fill="#EEC130" stroke="#000000" stroke-width="1.5" stroke-linejoin="bevel" stroke-miterlimit="10" points="
			975.461,214.455 978.133,316.432 940.939,235.065 975.627,214.04 		"/>
		
			<polygon opacity="0.8" fill="#FEC200" stroke="#000000" stroke-width="1.5" stroke-linejoin="bevel" stroke-miterlimit="10" points="
			940.939,235.065 978.133,316.432 891.713,329.917 		"/>
		
			<polygon opacity="0.8" fill="#FECB26" stroke="#000000" stroke-width="1.5" stroke-linejoin="bevel" stroke-miterlimit="10" points="
			940.939,235.065 836.79,235.065 891.713,329.917 		"/>
		
			<polygon opacity="0.8" fill="#FED44C" stroke="#000000" stroke-width="1.5" stroke-linejoin="bevel" stroke-miterlimit="10" points="
			836.79,235.065 804.744,317.601 891.713,329.917 		"/>
		
			<polygon opacity="0.8" fill="#FEE07F" stroke="#000000" stroke-width="1.5" stroke-linejoin="bevel" stroke-miterlimit="10" points="
			802.236,215.714 804.744,317.601 836.79,235.065 		"/>
	</g>
	<g>
		
			<polygon opacity="0.8" fill="#FEC200" stroke="#000000" stroke-width="1.5" stroke-linejoin="bevel" stroke-miterlimit="10" points="
			888.42,166.818 888.658,202.229 802.236,215.714 		"/>
		
			<polyline opacity="0.8" fill="#FEC200" stroke="#000000" stroke-width="1.5" stroke-linejoin="bevel" stroke-miterlimit="10" points="
			888.42,166.818 888.658,202.229 975.627,214.545 889.229,167.261 		"/>
		
			<polygon opacity="0.8" fill="#FED44C" stroke="#000000" stroke-width="1.5" stroke-linejoin="bevel" stroke-miterlimit="10" points="
			888.42,166.818 836.79,235.065 940.939,235.065 		"/>
		
			<polygon opacity="0.8" fill="#FEE698" stroke="#000000" stroke-width="1.5" stroke-linejoin="bevel" stroke-miterlimit="10" points="
			888.42,166.818 836.79,235.065 802.236,215.714 		"/>
		
			<polygon opacity="0.8" fill="#FEC200" stroke="#000000" stroke-width="1.5" stroke-linejoin="bevel" stroke-miterlimit="10" points="
			888.42,166.818 940.939,235.065 975.627,214.545 		"/>
		<path opacity="0.8" fill="#FEC200" stroke="#000000" stroke-width="1.5" stroke-linejoin="bevel" stroke-miterlimit="10" d="
			M940.939,235.065"/>
	</g>
</g>
</svg>
