<svg xmlns="http://www.w3.org/2000/svg" width="847" height="434" viewBox="148.5 96.5 847 434">
    <g stroke="#000" stroke-width="1.5" stroke-linejoin="bevel" stroke-miterlimit="10">
        <path opacity=".8" fill="#FEC200" d="M466.469 451.596l50.9-68.633-103.419.385z"/>
        <path opacity=".8" fill="#FEC200" d="M466.469 451.596l50.9-68.633 35.283 19.735zM466.469 451.596l-52.519-68.248-34.686 20.521z"/>
        <path opacity=".8" fill="#EEC130" d="M466.469 451.596l-.238-35.412 86.421-13.486z"/>
        <path opacity=".8" fill="#FECE33" d="M466.469 451.596l-.238-35.412-86.967-12.315 86.396 47.283"/>
        <path opacity=".8" fill="#FEE698" d="M413.95 383.348l-34.686 20.521 86.967 12.315 86.421-13.486-35.283-19.735z"/>
        <g>
            <path opacity=".8" fill="#FEC200" d="M464.431 247.897l-49.227 94.851 103.419-.385zM464.431 247.897l86.967 12.316-32.775 82.15z"/>
            <path opacity=".8" fill="#FEC200" d="M378.01 261.383l37.194 81.365 49.227-94.851zM378.01 261.383l2.508 101.887 34.686-20.522z"/>
            <path opacity=".8" fill="#FEE698" d="M516.712 280.734l34.686-20.521-86.967-12.316-86.421 13.486 34.552 19.351zM415.204 342.748l-34.686 20.522 86.967 12.316 86.421-13.486-35.283-19.737z"/>
            <path opacity=".8" fill="#FEC200" d="M551.398 259.708l2.508 102.392-35.283-19.737z"/>
            <path opacity=".8" fill="#EEC130" d="M551.234 260.124l2.672 101.976-37.194-81.366 34.686-21.026"/>
            <path opacity=".8" fill="#FEC200" d="M516.712 280.734l37.194 81.366-86.421 13.486z"/>
            <path opacity=".8" fill="#FECB26" d="M516.712 280.734h-104.15l54.923 94.852z"/>
            <path opacity=".8" fill="#FED44C" d="M412.562 280.734l-32.044 82.536 86.967 12.316z"/>
            <path opacity=".8" fill="#FEE07F" d="M378.01 261.383l2.508 101.887 32.044-82.536z"/>
        </g>
        <g>
            <path opacity=".8" fill="#FEC200" d="M465.447 174.57l.238 35.411-86.421 13.486z"/>
            <path opacity=".8" fill="#FEC200" d="M465.447 174.57l.238 35.411 86.967 12.317-86.396-47.284"/>
            <path opacity=".8" fill="#FEC200" d="M517.966 242.818l34.686-20.521-86.967-12.316-86.421 13.486 34.552 19.351z"/>
            <path opacity=".8" fill="#FED44C" d="M465.447 174.57l-51.631 68.248h104.15z"/>
            <path opacity=".8" fill="#FEE698" d="M465.447 174.57l-51.631 68.248-34.552-19.351z"/>
            <path opacity=".8" fill="#FEC200" d="M465.447 174.57l52.519 68.248 34.686-20.52z"/>
        </g>
    </g>
    <g stroke="#000" stroke-width="1.5" stroke-linejoin="bevel" stroke-miterlimit="10">
        <path opacity=".8" fill="#FEC200" d="M254.949 412.338l50.901-68.633-103.42.384z"/>
        <path opacity=".8" fill="#FEC200" d="M254.949 412.338l50.901-68.633 35.283 19.735zM254.949 412.338l-52.519-68.249-34.687 20.521z"/>
        <path opacity=".8" fill="#EEC130" d="M254.949 412.338l-.238-35.412 86.422-13.486z"/>
        <path opacity=".8" fill="#FECE33" d="M254.949 412.338l-.238-35.412-86.968-12.316 86.396 47.285"/>
        <path opacity=".8" fill="#FEC200" d="M251.657 249.239L202.43 344.09l103.42-.385z"/>
        <path opacity=".8" fill="#FEC200" d="M251.657 249.239l86.968 12.316-32.775 82.15zM165.235 262.725l37.195 81.365 49.227-94.851z"/>
        <path opacity=".8" fill="#FEC200" d="M165.235 262.725l2.508 101.885 34.687-20.52zM338.625 261.05l2.508 102.391-35.283-19.736z"/>
        <path opacity=".8" fill="#EEC130" d="M338.461 261.465l2.672 101.976-37.195-81.365 34.687-21.026"/>
        <path opacity=".8" fill="#FEC200" d="M303.938 282.076l37.195 81.365-86.422 13.487z"/>
        <path opacity=".8" fill="#FECB26" d="M303.938 282.076H199.789l54.922 94.852z"/>
        <path opacity=".8" fill="#FED44C" d="M199.789 282.076l-32.046 82.534 86.968 12.318z"/>
        <path opacity=".8" fill="#FEE07F" d="M165.235 262.725l2.508 101.885 32.046-82.534z"/>
        <path opacity=".8" fill="#FEC200" d="M251.419 213.828l.238 35.411-86.421 13.486z"/>
        <path opacity=".8" fill="#FEC200" d="M251.419 213.828l.238 35.411 86.968 12.317-86.396-47.285"/>
        <path opacity=".8" fill="#FED44C" d="M251.419 213.828l-51.63 68.248h104.149z"/>
        <path opacity=".8" fill="#FEE698" d="M251.419 213.828l-51.63 68.248-34.553-19.351z"/>
        <path opacity=".8" fill="#FEC200" d="M251.419 213.828l52.519 68.248 34.687-20.52z"/>
    </g>
    <g stroke="#000" stroke-width="1.5" stroke-linejoin="bevel" stroke-miterlimit="10">
        <path opacity=".8" fill="#FEC200" d="M678.732 516.023l-.273-72.168-86.422 13.487z"/>
        <path opacity=".8" fill="#FEC200" d="M678.732 516.023l-.273-72.168 86.968 12.318-85.886 60.293"/>
        <path opacity=".8" fill="#FEE698" d="M730.74 476.693l34.687-20.52-86.968-12.318-86.422 13.487 34.553 19.351z"/>
        <path opacity=".8" fill="#FED44C" d="M678.732 516.023l-52.142-39.33h104.15z"/>
        <path opacity=".8" fill="#FEE698" d="M678.732 516.023l-52.142-39.33-34.553-19.351z"/>
        <path opacity=".8" fill="#FEC200" d="M678.732 516.023l52.008-39.33 34.687-20.52z"/>
        <g>
            <path opacity=".8" fill="#FEC200" d="M677.205 183.027l-49.226 94.851 103.418-.385z"/>
            <path opacity=".8" fill="#FEC200" d="M677.205 183.027l86.968 12.316-32.776 82.15zM590.783 196.513l37.196 81.365 49.226-94.851zM590.783 196.513l2.508 101.885 34.688-20.52z"/>
            <path opacity=".8" fill="#FEE698" d="M729.486 215.864l34.687-20.521-86.968-12.316-86.422 13.486 34.553 19.351zM627.979 277.878l-34.688 20.52 86.969 12.317 86.421-13.486-35.284-19.736z"/>
            <path opacity=".8" fill="#FEC200" d="M764.173 194.838l2.508 102.391-35.284-19.736z"/>
            <path opacity=".8" fill="#EEC130" d="M764.009 195.253l2.672 101.976-37.195-81.365 34.687-21.026"/>
            <path opacity=".8" fill="#FEC200" d="M729.486 215.864l37.195 81.365-86.421 13.486z"/>
            <path opacity=".8" fill="#FECB26" d="M729.486 215.864h-104.15l54.924 94.851z"/>
            <path opacity=".8" fill="#FED44C" d="M625.336 215.864l-32.045 82.534 86.969 12.317z"/>
            <path opacity=".8" fill="#FEE07F" d="M590.783 196.513l2.508 101.885 32.045-82.534z"/>
        </g>
        <g>
            <path opacity=".8" fill="#FEC200" d="M678.221 109.7l.238 35.41-86.422 13.486z"/>
            <path opacity=".8" fill="#FEC200" d="M678.221 109.7l.238 35.41 86.968 12.317-86.397-47.284"/>
            <path opacity=".8" fill="#FEC200" d="M730.74 177.948l34.687-20.521-86.968-12.317-86.422 13.486 34.553 19.352z"/>
            <path opacity=".8" fill="#FED44C" d="M678.221 109.7l-51.631 68.248h104.15z"/>
            <path opacity=".8" fill="#FEE698" d="M678.221 109.7l-51.631 68.248-34.553-19.352z"/>
            <path opacity=".8" fill="#FEC200" d="M678.221 109.7l52.519 68.248 34.687-20.521z"/>
        </g>
        <g>
            <path opacity=".8" fill="#FEE07F" d="M729.723 318.037l37.012 100.291-2.458-80.94z"/>
            <path opacity=".8" fill="#EEC130" d="M625.25 316.961l-31.904 102.536-2.618-81.926 34.688-21.026"/>
            <path opacity=".8" fill="#FED44C" d="M625.416 316.545l-32.07 102.952 86.992-13.101z"/>
            <path opacity=".8" fill="#FEC200" d="M729.564 316.545l37.171 101.783-86.397-11.932z"/>
            <path opacity=".8" fill="#FEE698" d="M732.049 438.848l34.686-20.52-86.967-12.317-86.422 13.486 34.552 19.351z"/>
            <path opacity=".8" fill="#FECB26" d="M729.723 316.545H625.574l54.923 89.851z"/>
            <path opacity=".8" fill="#FEC200" d="M677.855 349.383l86.42-13.487-32.226 102.952z"/>
            <path opacity=".8" fill="#FED44C" d="M590.887 337.066l37.195 101.975 49.226-89.852z"/>
            <path opacity=".8" fill="#EEC130" d="M764.277 337.388l-32.228 101.46 34.686-20.52z"/>
            <path opacity=".8" fill="#FEE698" d="M625.574 316.545l-34.687 20.521 86.968 12.317 86.42-13.487-35.283-19.736z"/>
            <path opacity=".8" fill="#FECB26" d="M677.855 349.383l-49.226 89.85 103.42-.385z"/>
            <path opacity=".8" fill="#FEE07F" d="M590.728 337.571l37.901 101.662-35.283-19.736z"/>
        </g>
    </g>
    <g stroke="#000" stroke-width="1.5" stroke-linejoin="bevel" stroke-miterlimit="10">
        <path opacity=".8" fill="#FEC200" d="M894.08 458.905l-.273-72.167-86.421 13.487z"/>
        <path opacity=".8" fill="#FEC200" d="M894.08 458.905l-.273-72.167 86.968 12.317-85.885 60.293"/>
        <path opacity=".8" fill="#FED44C" d="M894.08 458.905l-52.142-39.329h104.15z"/>
        <path opacity=".8" fill="#FEE698" d="M894.08 458.905l-52.142-39.329-34.552-19.351z"/>
        <path opacity=".8" fill="#FEC200" d="M894.08 458.905l52.008-39.329 34.687-20.521z"/>
        <g>
            <path opacity=".8" fill="#FEE07F" d="M943.58 298.57l37.013 100.291-2.459-80.939z"/>
            <path opacity=".8" fill="#EEC130" d="M839.107 297.494l-31.904 102.537-2.618-81.926 34.687-21.025"/>
            <path opacity=".8" fill="#FED44C" d="M839.272 297.08l-32.069 102.951 86.992-13.099z"/>
            <path opacity=".8" fill="#FEC200" d="M943.422 297.08l37.171 101.781-86.398-11.929z"/>
            <path opacity=".8" fill="#FECB26" d="M943.58 297.08H839.432l54.922 89.852z"/>
            <path opacity=".8" fill="#FEC200" d="M891.713 329.917l86.42-13.485-32.228 102.951z"/>
            <path opacity=".8" fill="#FED44C" d="M804.744 317.601l37.194 101.975 49.227-89.851z"/>
            <path opacity=".8" fill="#EEC130" d="M978.134 317.922l-32.229 101.461 34.688-20.522z"/>
            <path opacity=".8" fill="#FECB26" d="M891.713 329.917l-49.227 89.851 103.419-.385z"/>
            <path opacity=".8" fill="#FEE07F" d="M804.585 318.105l37.9 101.663-35.282-19.737z"/>
        </g>
        <g>
            <path opacity=".8" fill="#FEC200" d="M888.658 202.229l-49.226 94.851 103.418-.386z"/>
            <path opacity=".8" fill="#FEC200" d="M888.658 202.229l86.969 12.316-32.777 82.149zM802.236 215.714l37.196 81.366 49.226-94.851z"/>
            <path opacity=".8" fill="#FEC200" d="M802.236 215.714l2.508 101.887 34.688-20.521zM975.627 214.04l2.506 102.392-35.283-19.738z"/>
            <path opacity=".8" fill="#EEC130" d="M975.461 214.455l2.672 101.977-37.194-81.367 34.688-21.025"/>
            <path opacity=".8" fill="#FEC200" d="M940.939 235.065l37.194 81.367-86.42 13.485z"/>
            <path opacity=".8" fill="#FECB26" d="M940.939 235.065H836.79l54.923 94.852z"/>
            <path opacity=".8" fill="#FED44C" d="M836.79 235.065l-32.046 82.536 86.969 12.316z"/>
            <path opacity=".8" fill="#FEE07F" d="M802.236 215.714l2.508 101.887 32.046-82.536z"/>
        </g>
        <g>
            <path opacity=".8" fill="#FEC200" d="M888.42 166.818l.238 35.411-86.422 13.485z"/>
            <path opacity=".8" fill="#FEC200" d="M888.42 166.818l.238 35.411 86.969 12.316-86.398-47.284"/>
            <path opacity=".8" fill="#FED44C" d="M888.42 166.818l-51.63 68.247h104.149z"/>
            <path opacity=".8" fill="#FEE698" d="M888.42 166.818l-51.63 68.247-34.554-19.351z"/>
            <path opacity=".8" fill="#FEC200" d="M888.42 166.818l52.519 68.247 34.688-20.52z"/>
        </g>
    </g>
</svg>
