<?xml version="1.0" encoding="utf-8"?>
<!-- Generator: Adobe Illustrator 15.1.0, SVG Export Plug-In . SVG Version: 6.00 Build 0)  -->
<!DOCTYPE svg PUBLIC "-//W3C//DTD SVG 1.1//EN" "http://www.w3.org/Graphics/SVG/1.1/DTD/svg11.dtd">
<svg version="1.1" id="Layer_1" xmlns="http://www.w3.org/2000/svg" xmlns:xlink="http://www.w3.org/1999/xlink" x="0px" y="0px"
	 width="1098px" height="432px" viewBox="0 0 1098 432" enable-background="new 0 0 1098 432" xml:space="preserve">
<line fill="none" stroke="#0081CD" stroke-width="2" stroke-miterlimit="10" stroke-dasharray="2,2" x1="9" y1="99" x2="18" y2="81"/>
<line fill="none" stroke="#0081CD" stroke-width="2" stroke-miterlimit="10" stroke-dasharray="2,2" x1="369" y1="315" x2="1089" y2="297"/>
<line fill="none" stroke="#0081CD" stroke-width="2" stroke-miterlimit="10" stroke-dasharray="2,2" x1="99" y1="369" x2="333" y2="351"/>
<line fill="none" stroke="#0081CD" stroke-width="2" stroke-miterlimit="10" stroke-dasharray="2,2" x1="9" y1="423" x2="63" y2="405"/>
<line fill="none" stroke="#0081CD" stroke-width="2" stroke-miterlimit="10" stroke-dasharray="2,2" x1="45" y1="189" x2="117" y2="171"/>
<line fill="none" stroke="#0081CD" stroke-width="2" stroke-miterlimit="10" stroke-dasharray="2,2" x1="9" y1="225" x2="36" y2="207"/>
<polyline fill="none" stroke="#231F20" stroke-width="2" stroke-miterlimit="10" points="333,351 342,333 369,315 "/>
<polyline fill="none" stroke="#231F20" stroke-width="2" stroke-miterlimit="10" points="63,405 90,387 99,369 "/>
<line fill="none" stroke="#231F20" stroke-width="2" stroke-miterlimit="10" x1="36" y1="207" x2="45" y2="189"/>
<circle fill="#BC1E47" stroke="#231F20" stroke-miterlimit="10" cx="9" cy="9" r="6"/>
<circle fill="#BC1E47" stroke="#231F20" stroke-miterlimit="10" cx="9" cy="99" r="6"/>
<circle fill="#BC1E47" stroke="#231F20" stroke-miterlimit="10" cx="18" cy="81" r="6"/>
<circle fill="#BC1E47" stroke="#231F20" stroke-miterlimit="10" cx="9" cy="225" r="6"/>
<circle fill="#BC1E47" stroke="#231F20" stroke-miterlimit="10" cx="117" cy="171" r="6"/>
<circle fill="#BC1E47" stroke="#231F20" stroke-miterlimit="10" cx="36" cy="207" r="6"/>
<circle fill="#BC1E47" stroke="#231F20" stroke-miterlimit="10" cx="45" cy="189" r="6"/>
<circle fill="#BC1E47" stroke="#231F20" stroke-miterlimit="10" cx="9" cy="423" r="6"/>
<circle fill="#BC1E47" stroke="#231F20" stroke-miterlimit="10" cx="90" cy="387" r="6"/>
<circle fill="#BC1E47" stroke="#231F20" stroke-miterlimit="10" cx="99" cy="369" r="6"/>
<circle fill="#BC1E47" stroke="#231F20" stroke-miterlimit="10" cx="63" cy="405" r="6"/>
<circle fill="#BC1E47" stroke="#231F20" stroke-miterlimit="10" cx="333" cy="351" r="6"/>
<circle fill="#BC1E47" stroke="#231F20" stroke-miterlimit="10" cx="342" cy="333" r="6"/>
<circle fill="#BC1E47" stroke="#231F20" stroke-miterlimit="10" cx="369" cy="315" r="6"/>
<circle fill="#BC1E47" stroke="#231F20" stroke-miterlimit="10" cx="1089" cy="297" r="6"/>
<path fill="#BC1E47" stroke="#231F20" stroke-miterlimit="10" d="M9,423"/>
<path fill="#BC1E47" stroke="#231F20" stroke-miterlimit="10" d="M9,423"/>
<path fill="#BC1E47" stroke="#231F20" stroke-miterlimit="10" d="M9,423"/>
</svg>
