<?xml version="1.0" encoding="utf-8"?>
<!-- Generator: Adobe Illustrator 15.1.0, SVG Export Plug-In . SVG Version: 6.00 Build 0)  -->
<!DOCTYPE svg PUBLIC "-//W3C//DTD SVG 1.1//EN" "http://www.w3.org/Graphics/SVG/1.1/DTD/svg11.dtd">
<svg version="1.1" id="Layer_1" xmlns="http://www.w3.org/2000/svg" xmlns:xlink="http://www.w3.org/1999/xlink" x="0px" y="0px"
	 width="565px" height="622px" viewBox="0 0 565 622" enable-background="new 0 0 565 622" xml:space="preserve">
<polygon fill="none" stroke="#000000" stroke-width="1.6432" stroke-miterlimit="10" points="356.332,67.752 356.332,216.252 
	502.133,270.252 502.133,121.752 "/>
<polygon fill="none" stroke="#000000" stroke-width="1.6432" stroke-miterlimit="10" points="259.133,162.252 356.332,67.752 
	356.332,216.252 259.133,310.752 "/>
<polygon fill="none" stroke="#000000" stroke-width="1.6432" stroke-miterlimit="10" points="259.133,162.252 259.133,310.752 
	404.933,364.752 404.933,216.252 "/>
<polygon fill="none" stroke="#000000" stroke-width="1.6432" stroke-miterlimit="10" points="161.933,256.752 259.133,162.252 
	259.133,310.752 161.933,405.252 "/>
<polygon fill="none" stroke="#000000" stroke-width="1.6432" stroke-miterlimit="10" points="259.133,13.752 259.133,162.252 
	404.933,216.252 404.933,67.752 "/>
<polygon fill="none" stroke="#000000" stroke-width="1.6432" stroke-miterlimit="10" points="161.933,108.252 259.133,13.752 
	259.133,162.252 161.933,256.752 "/>
<polygon fill="none" stroke="#000000" stroke-width="1.6432" stroke-miterlimit="10" points="259.133,162.252 259.133,310.752 
	404.933,364.752 404.933,216.252 "/>
<polygon fill="none" stroke="#000000" stroke-width="1.6432" stroke-miterlimit="10" points="161.933,256.752 259.133,162.252 
	259.133,310.752 161.933,405.252 "/>
<polygon fill="none" stroke="#000000" stroke-width="1.6432" stroke-miterlimit="10" points="113.332,108.252 113.332,256.752 
	259.133,310.752 259.133,162.252 "/>
<polygon fill="none" stroke="#000000" stroke-width="1.6432" stroke-miterlimit="10" points="16.133,202.752 113.332,108.252 
	113.332,256.752 16.133,351.252 "/>
<polygon fill="none" stroke="#000000" stroke-width="1.6432" stroke-miterlimit="10" points="161.933,256.752 161.933,405.252 
	307.732,459.252 307.732,310.752 "/>
<polygon fill="none" stroke="#000000" stroke-width="1.6432" stroke-miterlimit="10" points="307.732,310.752 404.933,216.252 
	404.933,364.752 307.732,459.252 "/>
<polygon fill="none" stroke="#000000" stroke-width="1.6432" stroke-miterlimit="10" points="161.933,108.252 161.933,256.752 
	307.732,310.752 307.732,162.252 "/>
<polygon fill="none" stroke="#000000" stroke-width="1.6432" stroke-miterlimit="10" points="307.732,162.252 404.933,67.752 
	404.933,216.252 307.732,310.752 "/>
<polygon fill="none" stroke="#000000" stroke-width="1.6432" stroke-miterlimit="10" points="161.933,405.252 161.933,553.752 
	307.732,607.752 307.732,459.252 "/>
<polygon fill="none" stroke="#000000" stroke-width="1.6432" stroke-miterlimit="10" points="259.133,310.752 259.133,459.252 
	404.933,513.252 404.933,364.752 "/>
<polygon fill="none" stroke="#000000" stroke-width="1.6432" stroke-miterlimit="10" points="307.732,459.252 404.933,364.752 
	404.933,513.252 307.732,607.752 "/>
<polygon fill="none" stroke="#000000" stroke-width="1.6432" stroke-miterlimit="10" points="161.933,405.252 259.133,310.752 
	259.133,459.252 161.933,553.752 "/>
<polygon fill="none" stroke="#000000" stroke-width="1.6432" stroke-miterlimit="10" points="307.732,310.752 307.732,459.252 
	453.532,513.252 453.532,364.752 "/>
<polygon fill="none" stroke="#000000" stroke-width="1.6432" stroke-miterlimit="10" points="404.933,216.252 404.933,364.752 
	550.732,418.752 550.732,270.252 "/>
<polygon fill="none" stroke="#000000" stroke-width="1.6432" stroke-miterlimit="10" points="453.532,364.752 550.732,270.252 
	550.732,418.752 453.532,513.252 "/>
<polygon fill="none" stroke="#000000" stroke-width="1.6432" stroke-miterlimit="10" points="307.732,310.752 404.933,216.252 
	404.933,364.752 307.732,459.252 "/>
<polygon fill="none" stroke="#000000" stroke-width="1.6432" stroke-miterlimit="10" points="404.933,216.252 502.133,121.752 
	502.133,270.252 404.933,364.752 "/>
<polygon fill="none" stroke="#000000" stroke-width="1.6432" stroke-miterlimit="10" points="16.133,202.752 16.133,351.252 
	161.933,405.252 161.933,256.752 "/>
<polygon fill="none" stroke="#000000" stroke-width="1.6432" stroke-miterlimit="10" points="64.732,351.252 64.732,499.752 
	210.532,553.752 210.532,405.252 "/>
<polygon fill="none" stroke="#000000" stroke-width="1.6432" stroke-miterlimit="10" points="161.933,256.752 161.933,405.252 
	307.732,459.252 307.732,310.752 "/>
<polygon fill="none" stroke="#000000" stroke-width="1.6432" stroke-miterlimit="10" points="210.532,405.252 307.732,310.752 
	307.732,459.252 210.532,553.752 "/>
<polygon fill="none" stroke="#000000" stroke-width="1.6432" stroke-miterlimit="10" points="64.732,351.252 161.933,256.752 
	161.933,405.252 64.732,499.752 "/>
<circle fill="#0081CD" cx="356.333" cy="67.752" r="9"/>
<circle fill="#0081CD" cx="502.132" cy="270.252" r="9"/>
<circle fill="#0081CD" cx="259.132" cy="310.752" r="9"/>
<circle fill="#FEC200" cx="356.333" cy="216.252" r="9"/>
<circle fill="#FEC200" cx="113.333" cy="256.752" r="9"/>
<circle fill="#FEC200" cx="259.132" cy="459.252" r="9"/>
<circle fill="#FEC200" cx="259.132" cy="162.252" r="9"/>
<circle fill="#FEC200" cx="161.933" cy="405.252" r="9"/>
<circle fill="#FEC200" cx="404.933" cy="364.752" r="9"/>
<polygon opacity="0.8" fill="#FFFFFF" enable-background="new    " points="502.133,252.252 502.133,121.752 404.933,85.752 
	404.933,67.752 259.133,13.752 161.933,108.252 161.933,126.252 113.332,108.252 16.133,202.752 16.133,351.252 64.732,369.252 
	64.732,499.752 161.933,535.752 161.933,553.752 307.732,607.752 404.933,513.252 404.933,495.252 453.532,513.252 550.732,418.752 
	550.732,270.252 "/>
<polygon fill="none" stroke="#000000" stroke-width="1.6432" stroke-miterlimit="10" points="259.133,13.752 161.933,108.252 
	161.933,256.752 307.732,310.752 404.933,216.252 404.933,67.752 "/>
<polyline fill="none" stroke="#000000" stroke-width="1.6432" stroke-miterlimit="10" points="161.933,108.252 307.732,162.252 
	307.732,310.752 210.532,405.252 64.732,351.252 161.933,256.752 16.133,202.752 113.332,108.252 161.933,126.252 "/>
<polyline fill="none" stroke="#000000" stroke-width="1.6432" stroke-miterlimit="10" points="16.133,202.752 16.133,351.252 
	64.732,369.252 "/>
<polyline fill="none" stroke="#000000" stroke-width="1.6432" stroke-miterlimit="10" points="64.732,351.252 64.732,499.752 
	210.532,553.752 210.532,405.252 "/>
<polyline fill="none" stroke="#000000" stroke-width="1.6432" stroke-miterlimit="10" points="404.933,495.252 404.933,513.252 
	307.732,607.752 161.933,553.752 161.933,535.752 "/>
<polyline fill="none" stroke="#000000" stroke-width="1.6432" stroke-miterlimit="10" points="210.532,553.752 307.732,459.252 
	307.732,310.752 453.532,364.752 550.732,270.252 404.933,216.252 502.133,121.752 404.933,85.752 "/>
<polyline fill="none" stroke="#000000" stroke-width="1.6432" stroke-miterlimit="10" points="550.732,270.252 550.732,418.752 
	453.532,513.252 307.732,459.252 307.732,607.752 "/>
<line fill="none" stroke="#000000" stroke-width="1.6432" stroke-miterlimit="10" x1="453.532" y1="513.252" x2="453.532" y2="364.752"/>
<path fill="none" stroke="#000000" stroke-width="1.6432" stroke-miterlimit="10" d="M492.532,85.752"/>
<circle fill="#0081CD" cx="259.132" cy="13.752" r="9"/>
<circle fill="#0081CD" cx="113.333" cy="108.252" r="9"/>
<circle fill="#FEC200" cx="161.933" cy="108.252" r="9"/>
<circle fill="#0081CD" cx="404.933" cy="216.252" r="9"/>
<circle fill="#0081CD" cx="453.532" cy="364.752" r="9"/>
<circle fill="#0081CD" cx="550.732" cy="418.752" r="9"/>
<circle fill="#FEC200" cx="550.732" cy="270.252" r="9"/>
<circle fill="#0081CD" cx="161.933" cy="256.752" r="9"/>
<circle fill="#FEC200" cx="16.133" cy="202.752" r="9"/>
<circle fill="#0081CD" cx="210.532" cy="405.252" r="9"/>
<circle fill="#0081CD" cx="16.133" cy="351.252" r="9"/>
<circle fill="#FEC200" cx="64.732" cy="351.252" r="9"/>
<circle fill="#0081CD" cx="307.732" cy="459.252" r="9"/>
<circle fill="#0081CD" cx="404.933" cy="513.252" r="9"/>
<circle fill="#0081CD" cx="161.933" cy="553.752" r="9"/>
<circle fill="#0081CD" cx="64.732" cy="499.752" r="9"/>
<circle fill="#FEC200" cx="453.532" cy="513.252" r="9"/>
<circle fill="#FEC200" cx="210.532" cy="553.752" r="9"/>
<circle fill="#FEC200" cx="307.732" cy="607.752" r="9"/>
<circle fill="#FEC200" cx="307.732" cy="310.752" r="9"/>
<line fill="none" stroke="#000000" stroke-width="1.6432" stroke-miterlimit="10" x1="502.133" y1="121.752" x2="502.133" y2="252.252"/>
<circle fill="#FEC200" cx="502.132" cy="121.752" r="9"/>
<line fill="none" stroke="#000000" stroke-width="1.6432" stroke-miterlimit="10" x1="404.933" y1="67.752" x2="307.732" y2="162.252"/>
<circle fill="#0081CD" cx="307.732" cy="162.252" r="9"/>
<circle fill="#FEC200" cx="404.933" cy="67.752" r="9"/>
</svg>
