<?xml version="1.0" encoding="utf-8"?>
<!-- Generator: Adobe Illustrator 14.0.0, SVG Export Plug-In . SVG Version: 6.00 Build 43363)  -->
<!DOCTYPE svg PUBLIC "-//W3C//DTD SVG 1.1//EN" "http://www.w3.org/Graphics/SVG/1.1/DTD/svg11.dtd">
<svg version="1.1" id="Layer_1" xmlns="http://www.w3.org/2000/svg" xmlns:xlink="http://www.w3.org/1999/xlink" x="0px" y="0px"
	 width="270px" height="270px" viewBox="0 0 270 270" enable-background="new 0 0 270 270" xml:space="preserve">
<g>
	<defs>
		<rect id="SVGID_1_" width="270" height="270"/>
	</defs>
	<clipPath id="SVGID_2_">
		<use xlink:href="#SVGID_1_"  overflow="visible"/>
	</clipPath>
	<g clip-path="url(#SVGID_2_)">
		<defs>
			<rect id="SVGID_3_" width="270" height="270"/>
		</defs>
		<clipPath id="SVGID_4_">
			<use xlink:href="#SVGID_3_"  overflow="visible"/>
		</clipPath>
		<circle clip-path="url(#SVGID_4_)" fill="none" stroke="#0081CD" cx="135" cy="135" r="25.667"/>
		<circle clip-path="url(#SVGID_4_)" fill="none" stroke="#0081CD" cx="135" cy="135" r="56.667"/>
		<circle clip-path="url(#SVGID_4_)" fill="none" stroke="#0081CD" cx="135" cy="135" r="76"/>
		<circle clip-path="url(#SVGID_4_)" fill="none" stroke="#0081CD" cx="135" cy="135" r="92"/>
		<circle clip-path="url(#SVGID_4_)" fill="none" stroke="#0081CD" cx="135" cy="135" r="105.334"/>
		<circle clip-path="url(#SVGID_4_)" fill="none" stroke="#0081CD" cx="135" cy="135" r="127.334"/>
		<path clip-path="url(#SVGID_4_)" fill="#FEC200" d="M51,45c0,3.314-2.687,6-6,6s-6-2.686-6-6s2.687-6,6-6S51,41.686,51,45"/>
		<circle clip-path="url(#SVGID_4_)" fill="none" stroke="#000000" cx="45" cy="45" r="6"/>
		<path clip-path="url(#SVGID_4_)" fill="#FEC200" d="M87,45c0,3.314-2.687,6-6,6s-6-2.686-6-6s2.687-6,6-6S87,41.686,87,45"/>
		<circle clip-path="url(#SVGID_4_)" fill="none" stroke="#000000" cx="81" cy="45" r="6"/>
		<path clip-path="url(#SVGID_4_)" fill="#FEC200" d="M51,81c0,3.314-2.687,6-6,6s-6-2.686-6-6s2.687-6,6-6S51,77.686,51,81"/>
		<circle clip-path="url(#SVGID_4_)" fill="none" stroke="#000000" cx="45" cy="81" r="6"/>
		<path clip-path="url(#SVGID_4_)" fill="#FEC200" d="M87,81c0,3.314-2.687,6-6,6s-6-2.686-6-6s2.687-6,6-6S87,77.686,87,81"/>
		<circle clip-path="url(#SVGID_4_)" fill="none" stroke="#000000" cx="81" cy="81" r="6"/>
		<path clip-path="url(#SVGID_4_)" fill="#FEC200" d="M123,45c0,3.314-2.687,6-6,6s-6-2.686-6-6s2.687-6,6-6S123,41.686,123,45"/>
		<circle clip-path="url(#SVGID_4_)" fill="none" stroke="#000000" cx="117" cy="45" r="6"/>
		<path clip-path="url(#SVGID_4_)" fill="#FEC200" d="M159,45c0,3.314-2.687,6-6,6s-6-2.686-6-6s2.687-6,6-6S159,41.686,159,45"/>
		<circle clip-path="url(#SVGID_4_)" fill="none" stroke="#000000" cx="153" cy="45" r="6"/>
		<path clip-path="url(#SVGID_4_)" fill="#FEC200" d="M123,81c0,3.314-2.687,6-6,6s-6-2.686-6-6s2.687-6,6-6S123,77.686,123,81"/>
		<circle clip-path="url(#SVGID_4_)" fill="none" stroke="#000000" cx="117" cy="81" r="6"/>
		<path clip-path="url(#SVGID_4_)" fill="#FEC200" d="M159,81c0,3.314-2.687,6-6,6s-6-2.686-6-6s2.687-6,6-6S159,77.686,159,81"/>
		<circle clip-path="url(#SVGID_4_)" fill="none" stroke="#000000" cx="153" cy="81" r="6"/>
		<path clip-path="url(#SVGID_4_)" fill="#FEC200" d="M195,45c0,3.314-2.687,6-6,6s-6-2.686-6-6s2.687-6,6-6S195,41.686,195,45"/>
		<circle clip-path="url(#SVGID_4_)" fill="none" stroke="#000000" cx="189" cy="45" r="6"/>
		<path clip-path="url(#SVGID_4_)" fill="#FEC200" d="M231,45c0,3.314-2.687,6-6,6s-6-2.686-6-6s2.687-6,6-6S231,41.686,231,45"/>
		<circle clip-path="url(#SVGID_4_)" fill="none" stroke="#000000" cx="225" cy="45" r="6"/>
		<path clip-path="url(#SVGID_4_)" fill="#FEC200" d="M195,81c0,3.314-2.687,6-6,6s-6-2.686-6-6s2.687-6,6-6S195,77.686,195,81"/>
		<circle clip-path="url(#SVGID_4_)" fill="none" stroke="#000000" cx="189" cy="81" r="6"/>
		<path clip-path="url(#SVGID_4_)" fill="#FEC200" d="M231,81c0,3.314-2.687,6-6,6s-6-2.686-6-6s2.687-6,6-6S231,77.686,231,81"/>
		<circle clip-path="url(#SVGID_4_)" fill="none" stroke="#000000" cx="225" cy="81" r="6"/>
		<path clip-path="url(#SVGID_4_)" fill="#FEC200" d="M51,117c0,3.314-2.687,6-6,6s-6-2.686-6-6s2.687-6,6-6S51,113.686,51,117"/>
		<circle clip-path="url(#SVGID_4_)" fill="none" stroke="#000000" cx="45" cy="117" r="6"/>
		<path clip-path="url(#SVGID_4_)" fill="#FEC200" d="M87,117c0,3.314-2.687,6-6,6s-6-2.686-6-6s2.687-6,6-6S87,113.686,87,117"/>
		<circle clip-path="url(#SVGID_4_)" fill="none" stroke="#000000" cx="81" cy="117" r="6"/>
		<path clip-path="url(#SVGID_4_)" fill="#FEC200" d="M51,153.001c0,3.313-2.687,6-6,6s-6-2.687-6-6c0-3.314,2.687-6,6-6
			S51,149.687,51,153.001"/>
		<circle clip-path="url(#SVGID_4_)" fill="none" stroke="#000000" cx="45" cy="153.001" r="6"/>
		<path clip-path="url(#SVGID_4_)" fill="#FEC200" d="M87,153.001c0,3.313-2.687,6-6,6s-6-2.687-6-6c0-3.314,2.687-6,6-6
			S87,149.687,87,153.001"/>
		<circle clip-path="url(#SVGID_4_)" fill="none" stroke="#000000" cx="81" cy="153.001" r="6"/>
		<path clip-path="url(#SVGID_4_)" fill="#FEC200" d="M123,117c0,3.314-2.687,6-6,6s-6-2.686-6-6s2.687-6,6-6S123,113.686,123,117"
			/>
		<circle clip-path="url(#SVGID_4_)" fill="none" stroke="#000000" cx="117" cy="117" r="6"/>
		<path clip-path="url(#SVGID_4_)" fill="#FEC200" d="M159,117c0,3.314-2.687,6-6,6s-6-2.686-6-6s2.687-6,6-6S159,113.686,159,117"
			/>
		<circle clip-path="url(#SVGID_4_)" fill="none" stroke="#000000" cx="153" cy="117" r="6"/>
		<path clip-path="url(#SVGID_4_)" fill="#FEC200" d="M123,153.001c0,3.313-2.687,6-6,6s-6-2.687-6-6c0-3.314,2.687-6,6-6
			S123,149.687,123,153.001"/>
		<circle clip-path="url(#SVGID_4_)" fill="none" stroke="#000000" cx="117" cy="153.001" r="6"/>
		<path clip-path="url(#SVGID_4_)" fill="#FEC200" d="M159,153.001c0,3.313-2.687,6-6,6s-6-2.687-6-6c0-3.314,2.687-6,6-6
			S159,149.687,159,153.001"/>
		<circle clip-path="url(#SVGID_4_)" fill="none" stroke="#000000" cx="153" cy="153.001" r="6"/>
		<path clip-path="url(#SVGID_4_)" fill="#FEC200" d="M195,117c0,3.314-2.687,6-6,6s-6-2.686-6-6s2.687-6,6-6S195,113.686,195,117"
			/>
		<circle clip-path="url(#SVGID_4_)" fill="none" stroke="#000000" cx="189" cy="117" r="6"/>
		<path clip-path="url(#SVGID_4_)" fill="#FEC200" d="M231,117c0,3.314-2.687,6-6,6s-6-2.686-6-6s2.687-6,6-6S231,113.686,231,117"
			/>
		<circle clip-path="url(#SVGID_4_)" fill="none" stroke="#000000" cx="225" cy="117" r="6"/>
		<path clip-path="url(#SVGID_4_)" fill="#FEC200" d="M195,153.001c0,3.313-2.687,6-6,6s-6-2.687-6-6c0-3.314,2.687-6,6-6
			S195,149.687,195,153.001"/>
		<circle clip-path="url(#SVGID_4_)" fill="none" stroke="#000000" cx="189" cy="153.001" r="6"/>
		<path clip-path="url(#SVGID_4_)" fill="#FEC200" d="M231,153.001c0,3.313-2.687,6-6,6s-6-2.687-6-6c0-3.314,2.687-6,6-6
			S231,149.687,231,153.001"/>
		<circle clip-path="url(#SVGID_4_)" fill="none" stroke="#000000" cx="225" cy="153.001" r="6"/>
		<path clip-path="url(#SVGID_4_)" fill="#FEC200" d="M51,189c0,3.314-2.687,6-6,6s-6-2.686-6-6s2.687-6,6-6S51,185.686,51,189"/>
		<circle clip-path="url(#SVGID_4_)" fill="none" stroke="#000000" cx="45" cy="189" r="6"/>
		<path clip-path="url(#SVGID_4_)" fill="#FEC200" d="M87,189c0,3.314-2.687,6-6,6s-6-2.686-6-6s2.687-6,6-6S87,185.686,87,189"/>
		<circle clip-path="url(#SVGID_4_)" fill="none" stroke="#000000" cx="81" cy="189" r="6"/>
		<path clip-path="url(#SVGID_4_)" fill="#FEC200" d="M51,225c0,3.314-2.687,6-6,6s-6-2.686-6-6c0-3.313,2.687-6,6-6
			S51,221.687,51,225"/>
		<circle clip-path="url(#SVGID_4_)" fill="none" stroke="#000000" cx="45" cy="225" r="6"/>
		<path clip-path="url(#SVGID_4_)" fill="#FEC200" d="M87,225c0,3.314-2.687,6-6,6s-6-2.686-6-6c0-3.313,2.687-6,6-6
			S87,221.687,87,225"/>
		<circle clip-path="url(#SVGID_4_)" fill="none" stroke="#000000" cx="81" cy="225" r="6"/>
		<path clip-path="url(#SVGID_4_)" fill="#FEC200" d="M123,189c0,3.314-2.687,6-6,6s-6-2.686-6-6s2.687-6,6-6S123,185.686,123,189"
			/>
		<circle clip-path="url(#SVGID_4_)" fill="none" stroke="#000000" cx="117" cy="189" r="6"/>
		<path clip-path="url(#SVGID_4_)" fill="#FEC200" d="M159,189c0,3.314-2.687,6-6,6s-6-2.686-6-6s2.687-6,6-6S159,185.686,159,189"
			/>
		<circle clip-path="url(#SVGID_4_)" fill="none" stroke="#000000" cx="153" cy="189" r="6"/>
		<path clip-path="url(#SVGID_4_)" fill="#FEC200" d="M123,225c0,3.314-2.687,6-6,6s-6-2.686-6-6c0-3.313,2.687-6,6-6
			S123,221.687,123,225"/>
		<circle clip-path="url(#SVGID_4_)" fill="none" stroke="#000000" cx="117" cy="225" r="6"/>
		<path clip-path="url(#SVGID_4_)" fill="#FEC200" d="M159,225c0,3.314-2.687,6-6,6s-6-2.686-6-6c0-3.313,2.687-6,6-6
			S159,221.687,159,225"/>
		<circle clip-path="url(#SVGID_4_)" fill="none" stroke="#000000" cx="153" cy="225" r="6"/>
		<path clip-path="url(#SVGID_4_)" fill="#FEC200" d="M195,189c0,3.314-2.687,6-6,6s-6-2.686-6-6s2.687-6,6-6S195,185.686,195,189"
			/>
		<circle clip-path="url(#SVGID_4_)" fill="none" stroke="#000000" cx="189" cy="189" r="6"/>
		<path clip-path="url(#SVGID_4_)" fill="#FEC200" d="M231,189c0,3.314-2.687,6-6,6s-6-2.686-6-6s2.687-6,6-6S231,185.686,231,189"
			/>
		<circle clip-path="url(#SVGID_4_)" fill="none" stroke="#000000" cx="225" cy="189" r="6"/>
		<path clip-path="url(#SVGID_4_)" fill="#FEC200" d="M195,225c0,3.314-2.687,6-6,6s-6-2.686-6-6c0-3.313,2.687-6,6-6
			S195,221.687,195,225"/>
		<circle clip-path="url(#SVGID_4_)" fill="none" stroke="#000000" cx="189" cy="225" r="6"/>
		<path clip-path="url(#SVGID_4_)" fill="#FEC200" d="M231,225c0,3.314-2.687,6-6,6s-6-2.686-6-6c0-3.313,2.687-6,6-6
			S231,221.687,231,225"/>
		<circle clip-path="url(#SVGID_4_)" fill="none" stroke="#000000" cx="225" cy="225" r="6"/>
	</g>
</g>
</svg>
