<?xml version="1.0" encoding="utf-8"?>
<!-- Generator: Adobe Illustrator 15.1.0, SVG Export Plug-In . SVG Version: 6.00 Build 0)  -->
<!DOCTYPE svg PUBLIC "-//W3C//DTD SVG 1.1//EN" "http://www.w3.org/Graphics/SVG/1.1/DTD/svg11.dtd">
<svg version="1.1" id="Layer_1" xmlns="http://www.w3.org/2000/svg" xmlns:xlink="http://www.w3.org/1999/xlink" x="0px" y="0px"
	 width="804px" height="390px" viewBox="0 0 804 390" enable-background="new 0 0 804 390" xml:space="preserve">
<path fill="none" stroke="#0081CD" stroke-miterlimit="10" d="M498.203,189.969c2.831-77.623,68.051-138.254,145.674-135.422"/>
<circle fill="none" stroke="#0081CD" stroke-miterlimit="10" cx="116.656" cy="170.318" r="35.376"/>
<circle fill="none" stroke="#0081CD" stroke-miterlimit="10" cx="223.511" cy="170.318" r="35.376"/>
<circle fill="none" stroke="#0081CD" stroke-miterlimit="10" cx="597.501" cy="139.471" r="35.376"/>
<circle fill="none" stroke="#0081CD" stroke-miterlimit="10" cx="650.928" cy="232.01" r="35.376"/>
<circle fill="none" stroke="#0081CD" stroke-miterlimit="10" cx="544.075" cy="232.01" r="35.376"/>
<circle fill="none" stroke="#0081CD" stroke-miterlimit="10" cx="223.511" cy="232.01" r="35.376"/>
<circle fill="none" stroke="#0081CD" stroke-miterlimit="10" cx="116.656" cy="232.01" r="35.376"/>
<circle fill="none" stroke="#0081CD" stroke-miterlimit="10" cx="170.083" cy="201.164" r="140.642"/>
<path fill="none" stroke="#0081CD" stroke-miterlimit="10" d="M639.646,287.804c-68.639,36.36-153.758,10.194-190.116-58.445"/>
<path fill="none" stroke="#0081CD" stroke-miterlimit="10" d="M653.652,116.395c65.809,41.263,85.707,128.061,44.442,193.868"/>
<path fill="none" stroke="#0081CD" stroke-miterlimit="10" d="M444.541,175.806C425.147,103.576,467.98,29.3,540.211,9.907
	s146.506,23.439,165.898,95.67"/>
<path fill="none" stroke="#0081CD" stroke-miterlimit="10" d="M655.092,344.644c-52.856,52.911-138.598,52.954-191.508,0.098
	s-52.954-138.598-0.097-191.508"/>
<path fill="none" stroke="#0081CD" stroke-miterlimit="10" d="M696.033,77.883c72.252,19.319,115.159,93.553,95.84,165.802
	c-19.32,72.25-93.553,115.159-165.803,95.838"/>
<polygon fill="#FFFFFF" points="121.999,235.095 63.229,269.025 4.459,235.095 4.459,167.233 63.229,133.302 121.999,167.233 "/>
<polygon fill="#FFFFFF" points="335.708,235.095 276.938,269.025 218.168,235.095 218.168,167.233 276.938,133.302 335.708,167.233 
	"/>
<polygon fill="#FFFFFF" points="228.854,235.095 170.083,269.025 111.313,235.095 111.313,167.234 170.083,133.303 228.854,167.234 
	"/>
<polygon fill="#FFFFFF" points="709.699,142.556 650.929,176.487 592.159,142.556 592.159,74.695 650.929,40.764 709.699,74.695 "/>
<polygon fill="#FFFFFF" points="709.699,327.633 650.929,361.563 592.159,327.633 592.159,259.771 650.929,225.841 709.699,259.771 
	"/>
<polygon fill="#FFFFFF" points="656.271,235.095 597.501,269.025 538.731,235.095 538.731,167.233 597.501,133.302 656.271,167.233 
	"/>
<polygon fill="#FFFFFF" points="549.417,235.095 490.647,269.025 431.877,235.095 431.877,167.234 490.647,133.303 549.417,167.234 
	"/>
<polygon fill="#FFFFF0" stroke="#000000" stroke-miterlimit="10" points="116.656,232.01 63.229,262.856 9.802,232.01 
	9.802,170.318 63.229,139.472 116.656,170.318 "/>
<polygon fill="#FFFFF0" stroke="#000000" stroke-miterlimit="10" points="330.365,232.01 276.938,262.856 223.511,232.01 
	223.511,170.318 276.938,139.472 330.365,170.318 "/>
<polygon fill="#FFFFF0" stroke="#000000" stroke-miterlimit="10" points="223.511,232.01 170.083,262.856 116.656,232.01 
	116.656,170.318 170.083,139.472 223.511,170.318 "/>
<polygon fill="#FFFFF0" stroke="#000000" stroke-miterlimit="10" points="704.356,139.471 650.929,170.318 597.502,139.471 
	597.502,77.779 650.929,46.933 704.356,77.779 "/>
<polygon fill="#FFFFF0" stroke="#000000" stroke-miterlimit="10" points="704.356,324.548 650.929,355.395 597.502,324.548 
	597.502,262.855 650.929,232.01 704.356,262.855 "/>
<polygon fill="#FFFFF0" stroke="#000000" stroke-miterlimit="10" points="650.929,232.01 597.501,262.856 544.074,232.01 
	544.074,170.318 597.501,139.472 650.929,170.318 "/>
<polygon fill="#FFFFF0" stroke="#000000" stroke-miterlimit="10" points="544.074,232.01 490.647,262.856 437.22,232.01 
	437.22,170.318 490.647,139.472 544.074,170.318 "/>
<line fill="none" stroke="#BC1E47" stroke-miterlimit="10" x1="9.802" y1="170.318" x2="330.365" y2="170.318"/>
<line fill="none" stroke="#BC1E47" stroke-miterlimit="10" x1="330.365" y1="232.01" x2="9.802" y2="232.01"/>
<polygon fill="none" stroke="#BC1E47" stroke-miterlimit="10" points="650.929,46.933 704.356,139.471 597.501,139.472 "/>
<polygon fill="none" stroke="#BC1E47" stroke-miterlimit="10" points="597.502,139.471 650.93,232.01 544.074,232.01 "/>
<polygon fill="none" stroke="#BC1E47" stroke-miterlimit="10" points="650.93,232.01 704.357,324.548 597.502,324.548 "/>
<polygon fill="none" stroke="#BC1E47" stroke-miterlimit="10" points="490.647,139.472 544.075,232.01 437.22,232.01 "/>
</svg>
