<?xml version="1.0" encoding="utf-8"?>
<!-- Generator: Adobe Illustrator 15.1.0, SVG Export Plug-In . SVG Version: 6.00 Build 0)  -->
<!DOCTYPE svg PUBLIC "-//W3C//DTD SVG 1.1//EN" "http://www.w3.org/Graphics/SVG/1.1/DTD/svg11.dtd">
<svg version="1.1" id="Layer_1" xmlns="http://www.w3.org/2000/svg" xmlns:xlink="http://www.w3.org/1999/xlink" x="0px" y="0px"
	 width="864px" height="171px" viewBox="0 0 864 171" enable-background="new 0 0 864 171" xml:space="preserve">
<line fill="none" stroke="#0081CD" stroke-width="3" stroke-miterlimit="10" x1="13.499" y1="31.499" x2="67.499" y2="139.499"/>
<line fill="none" stroke="#0081CD" stroke-width="3" stroke-miterlimit="10" x1="40.499" y1="31.499" x2="94.499" y2="139.499"/>
<line fill="none" stroke="#0081CD" stroke-width="3" stroke-miterlimit="10" x1="67.499" y1="31.499" x2="175.499" y2="139.499"/>
<line fill="none" stroke="#0081CD" stroke-width="3" stroke-miterlimit="10" x1="94.499" y1="31.499" x2="202.499" y2="139.499"/>
<line fill="none" stroke="#0081CD" stroke-width="3" stroke-miterlimit="10" x1="175.5" y1="31.5" x2="283.5" y2="139.5"/>
<line fill="none" stroke="#0081CD" stroke-width="3" stroke-miterlimit="10" x1="202.5" y1="31.5" x2="310.5" y2="139.5"/>
<line fill="none" stroke="#0081CD" stroke-width="3" stroke-miterlimit="10" x1="283.5" y1="31.5" x2="391.5" y2="139.5"/>
<line fill="none" stroke="#0081CD" stroke-width="3" stroke-miterlimit="10" x1="310.5" y1="31.5" x2="418.5" y2="139.5"/>
<line fill="none" stroke="#0081CD" stroke-width="3" stroke-miterlimit="10" x1="391.5" y1="31.5" x2="499.5" y2="139.5"/>
<line fill="none" stroke="#0081CD" stroke-width="3" stroke-miterlimit="10" x1="418.5" y1="31.5" x2="526.5" y2="139.5"/>
<line fill="none" stroke="#0081CD" stroke-width="3" stroke-miterlimit="10" x1="499.5" y1="31.5" x2="607.5" y2="139.5"/>
<line fill="none" stroke="#0081CD" stroke-width="3" stroke-miterlimit="10" x1="526.5" y1="31.5" x2="634.5" y2="139.5"/>
<line fill="none" stroke="#0081CD" stroke-width="3" stroke-miterlimit="10" x1="607.5" y1="31.5" x2="715.5" y2="139.5"/>
<line fill="none" stroke="#0081CD" stroke-width="3" stroke-miterlimit="10" x1="634.5" y1="31.5" x2="742.5" y2="139.5"/>
<line fill="none" stroke="#0081CD" stroke-width="3" stroke-miterlimit="10" x1="715.5" y1="31.5" x2="823.5" y2="139.5"/>
<line fill="none" stroke="#0081CD" stroke-width="3" stroke-miterlimit="10" x1="742.5" y1="31.5" x2="850.5" y2="139.5"/>
<line fill="none" stroke="#BC1E47" stroke-width="3" stroke-miterlimit="10" x1="13.499" y1="139.499" x2="121.499" y2="31.499"/>
<line fill="none" stroke="#BC1E47" stroke-width="3" stroke-miterlimit="10" x1="40.499" y1="139.499" x2="148.499" y2="31.499"/>
<line fill="none" stroke="#BC1E47" stroke-width="3" stroke-miterlimit="10" x1="121.5" y1="139.5" x2="229.5" y2="31.5"/>
<line fill="none" stroke="#BC1E47" stroke-width="3" stroke-miterlimit="10" x1="148.5" y1="139.5" x2="256.5" y2="31.5"/>
<line fill="none" stroke="#BC1E47" stroke-width="3" stroke-miterlimit="10" x1="229.5" y1="139.5" x2="337.5" y2="31.5"/>
<line fill="none" stroke="#BC1E47" stroke-width="3" stroke-miterlimit="10" x1="256.5" y1="139.5" x2="364.5" y2="31.5"/>
<line fill="none" stroke="#BC1E47" stroke-width="3" stroke-miterlimit="10" x1="337.5" y1="139.5" x2="445.5" y2="31.5"/>
<line fill="none" stroke="#BC1E47" stroke-width="3" stroke-miterlimit="10" x1="364.5" y1="139.5" x2="472.5" y2="31.5"/>
<line fill="none" stroke="#BC1E47" stroke-width="3" stroke-miterlimit="10" x1="445.5" y1="139.5" x2="553.5" y2="31.5"/>
<line fill="none" stroke="#BC1E47" stroke-width="3" stroke-miterlimit="10" x1="472.5" y1="139.5" x2="580.5" y2="31.5"/>
<line fill="none" stroke="#BC1E47" stroke-width="3" stroke-miterlimit="10" x1="553.5" y1="139.5" x2="661.5" y2="31.5"/>
<line fill="none" stroke="#BC1E47" stroke-width="3" stroke-miterlimit="10" x1="580.5" y1="139.5" x2="688.5" y2="31.5"/>
<line fill="none" stroke="#BC1E47" stroke-width="3" stroke-miterlimit="10" x1="661.5" y1="139.5" x2="769.5" y2="31.5"/>
<line fill="none" stroke="#BC1E47" stroke-width="3" stroke-miterlimit="10" x1="688.5" y1="139.5" x2="796.5" y2="31.5"/>
<line fill="none" stroke="#BC1E47" stroke-width="3" stroke-miterlimit="10" x1="769.5" y1="139.499" x2="823.5" y2="31.499"/>
<line fill="none" stroke="#BC1E47" stroke-width="3" stroke-miterlimit="10" x1="796.5" y1="139.499" x2="850.5" y2="31.499"/>
<g>
	<path d="M13.132,156.271h-0.036l-2.035,1.099l-0.306-1.206l2.557-1.368h1.351v11.703h-1.53V156.271z"/>
</g>
<g>
	<path d="M36.692,166.499v-0.973l1.243-1.206c2.989-2.845,4.357-4.357,4.357-6.122c0-1.188-0.558-2.286-2.305-2.286
		c-1.062,0-1.944,0.54-2.484,0.99l-0.504-1.116c0.792-0.667,1.963-1.188,3.295-1.188c2.521,0,3.583,1.729,3.583,3.402
		c0,2.161-1.567,3.907-4.033,6.284l-0.918,0.864v0.036h5.24v1.314H36.692z"/>
</g>
<g>
	<path d="M121.132,7.772h-0.036l-2.035,1.098l-0.306-1.206l2.557-1.368h1.351v11.703h-1.53V7.772z"/>
</g>
<g>
	<path d="M144.692,17.999v-0.972l1.243-1.207c2.989-2.845,4.357-4.357,4.357-6.121c0-1.188-0.558-2.287-2.305-2.287
		c-1.062,0-1.944,0.54-2.484,0.99l-0.504-1.116c0.792-0.666,1.963-1.188,3.295-1.188c2.521,0,3.583,1.729,3.583,3.403
		c0,2.16-1.567,3.907-4.033,6.283l-0.918,0.864v0.036h5.24v1.314H144.692z"/>
</g>
<g>
	<path d="M64.071,164.698c0.45,0.271,1.476,0.721,2.593,0.721c2.017,0,2.665-1.278,2.646-2.269
		c-0.018-1.639-1.494-2.341-3.025-2.341h-0.882v-1.188h0.882c1.152,0,2.611-0.595,2.611-1.98c0-0.937-0.594-1.765-2.052-1.765
		c-0.937,0-1.837,0.414-2.341,0.774l-0.432-1.152c0.63-0.45,1.818-0.9,3.079-0.9c2.305,0,3.349,1.368,3.349,2.791
		c0,1.224-0.738,2.25-2.161,2.772v0.036c1.44,0.27,2.593,1.351,2.611,2.988c0,1.873-1.477,3.512-4.267,3.512
		c-1.314,0-2.467-0.414-3.043-0.792L64.071,164.698z"/>
</g>
<g>
	<path d="M95.59,166.499v-3.205h-5.438v-1.026l5.222-7.472h1.71v7.273h1.639v1.225h-1.639v3.205H95.59z M95.59,162.069v-3.907
		c0-0.611,0.018-1.224,0.054-1.836H95.59c-0.36,0.684-0.648,1.188-0.972,1.729l-2.863,3.979v0.036H95.59z"/>
</g>
<g>
	<path d="M10.071,16.198c0.45,0.271,1.477,0.721,2.593,0.721c2.017,0,2.665-1.278,2.646-2.269c-0.018-1.639-1.494-2.341-3.025-2.341
		h-0.882v-1.188h0.882c1.152,0,2.611-0.594,2.611-1.98c0-0.937-0.594-1.765-2.053-1.765c-0.936,0-1.836,0.414-2.34,0.774
		l-0.432-1.152c0.63-0.45,1.818-0.9,3.079-0.9c2.305,0,3.349,1.368,3.349,2.791c0,1.225-0.738,2.251-2.161,2.772v0.036
		c1.44,0.271,2.593,1.351,2.611,2.989c0,1.872-1.477,3.511-4.267,3.511c-1.314,0-2.467-0.414-3.043-0.792L10.071,16.198z"/>
</g>
<g>
	<path d="M41.59,17.999v-3.205h-5.438v-1.026l5.222-7.472h1.71v7.274h1.639v1.224h-1.639v3.205H41.59z M41.59,13.57V9.663
		c0-0.612,0.018-1.225,0.054-1.837H41.59c-0.36,0.685-0.648,1.188-0.972,1.729l-2.863,3.979v0.036H41.59z"/>
</g>
<g>
	<path d="M124.679,156.128h-4.465l-0.45,3.007c0.27-0.036,0.522-0.054,0.954-0.054c0.918,0,1.801,0.18,2.521,0.63
		c0.918,0.504,1.674,1.53,1.674,2.989c0,2.286-1.818,3.997-4.357,3.997c-1.279,0-2.341-0.36-2.917-0.721l0.396-1.206
		c0.486,0.288,1.44,0.648,2.521,0.648c1.476,0,2.772-0.973,2.754-2.539c0-1.513-1.026-2.575-3.349-2.575
		c-0.685,0-1.207,0.055-1.639,0.108l0.756-5.617h5.6V156.128z"/>
</g>
<g>
	<path d="M151.373,155.912c-0.324-0.019-0.738,0.018-1.188,0.09c-2.502,0.396-3.799,2.196-4.069,4.142h0.036
		c0.558-0.757,1.548-1.369,2.845-1.369c2.07,0,3.529,1.513,3.529,3.781c0,2.161-1.458,4.142-3.907,4.142
		c-2.485,0-4.123-1.944-4.123-4.987c0-2.305,0.81-4.124,1.98-5.276c0.972-0.954,2.269-1.548,3.745-1.729
		c0.468-0.071,0.864-0.09,1.152-0.09V155.912z M150.922,162.664c0-1.675-0.954-2.683-2.413-2.683c-0.954,0-1.854,0.576-2.287,1.44
		c-0.09,0.18-0.162,0.396-0.162,0.684c0.018,1.927,0.918,3.367,2.593,3.367C150.004,165.473,150.922,164.338,150.922,162.664z"/>
</g>
<g>
	<path d="M179.291,154.796v1.044l-5.096,10.659h-1.639l5.078-10.354v-0.035h-5.726v-1.314H179.291z"/>
</g>
<g>
	<path d="M200.853,160.341c-1.314-0.612-1.873-1.62-1.873-2.628c0-1.855,1.566-3.115,3.637-3.115c2.269,0,3.421,1.404,3.421,2.881
		c0,0.99-0.504,2.07-1.944,2.736v0.055c1.458,0.576,2.359,1.62,2.359,3.024c0,2.053-1.747,3.403-3.979,3.403
		c-2.449,0-3.925-1.44-3.925-3.151c0-1.477,0.882-2.538,2.323-3.15L200.853,160.341z M204.851,163.456
		c0-1.404-0.99-2.106-2.575-2.557c-1.368,0.396-2.106,1.314-2.106,2.431c-0.054,1.17,0.846,2.215,2.341,2.215
		C203.932,165.545,204.851,164.662,204.851,163.456z M200.493,157.604c-0.018,1.17,0.882,1.801,2.232,2.16
		c1.008-0.342,1.783-1.062,1.783-2.124c0-0.937-0.558-1.909-1.98-1.909C201.213,155.731,200.493,156.596,200.493,157.604z"/>
</g>
<g>
	<path d="M226.612,165.383c0.342,0.036,0.738,0,1.278-0.054c0.918-0.126,1.783-0.486,2.449-1.135
		c0.774-0.702,1.333-1.729,1.548-3.097h-0.054c-0.648,0.792-1.584,1.242-2.773,1.242c-2.089,0-3.439-1.585-3.439-3.583
		c0-2.215,1.603-4.159,3.997-4.159c2.395,0,3.871,1.927,3.871,4.951c0,2.557-0.864,4.357-2.017,5.474
		c-0.9,0.883-2.143,1.423-3.403,1.566c-0.576,0.09-1.081,0.108-1.458,0.09V165.383z M227.188,158.667
		c0,1.458,0.882,2.484,2.25,2.484c1.062,0,1.891-0.522,2.305-1.225c0.09-0.162,0.144-0.324,0.144-0.594
		c0-1.999-0.738-3.529-2.413-3.529C228.142,155.804,227.188,156.992,227.188,158.667z"/>
</g>
<g>
	<path d="M251.515,156.271h-0.036l-2.035,1.099l-0.306-1.206l2.557-1.368h1.351v11.703h-1.53V156.271z"/>
	<path d="M265.105,160.521c0,3.979-1.494,6.176-4.069,6.176c-2.287,0-3.853-2.143-3.889-6.014c0-3.943,1.71-6.086,4.087-6.086
		C263.683,154.598,265.105,156.794,265.105,160.521z M258.75,160.701c0,3.043,0.937,4.771,2.377,4.771
		c1.603,0,2.376-1.891,2.376-4.879c0-2.881-0.72-4.771-2.376-4.771C259.758,155.822,258.75,157.515,258.75,160.701z"/>
</g>
<g>
	<path d="M278.514,156.273h-0.036l-2.035,1.098l-0.306-1.206l2.557-1.368h1.351V166.5h-1.53V156.273z"/>
	<path d="M287.747,156.273h-0.036l-2.035,1.098l-0.306-1.206l2.557-1.368h1.351V166.5h-1.531V156.273z"/>
</g>
<g>
	<path d="M305.515,156.273h-0.036l-2.035,1.098l-0.306-1.206l2.557-1.368h1.351V166.5h-1.53V156.273z"/>
	<path d="M311.309,166.5v-0.973l1.243-1.206c2.989-2.845,4.357-4.357,4.357-6.122c0-1.188-0.559-2.286-2.305-2.286
		c-1.062,0-1.945,0.54-2.485,0.99l-0.504-1.116c0.792-0.666,1.963-1.188,3.295-1.188c2.521,0,3.583,1.729,3.583,3.403
		c0,2.16-1.566,3.906-4.033,6.283l-0.918,0.864v0.036h5.239v1.314H311.309z"/>
</g>
<g>
	<path d="M332.514,156.273h-0.036l-2.035,1.098l-0.306-1.206l2.557-1.368h1.351V166.5h-1.53V156.273z"/>
	<path d="M338.687,164.699c0.45,0.271,1.477,0.721,2.593,0.721c2.017,0,2.665-1.278,2.646-2.269
		c-0.018-1.639-1.494-2.341-3.025-2.341h-0.882v-1.188h0.882c1.152,0,2.611-0.595,2.611-1.98c0-0.937-0.594-1.765-2.053-1.765
		c-0.936,0-1.836,0.414-2.34,0.774l-0.432-1.152c0.63-0.45,1.818-0.9,3.079-0.9c2.305,0,3.349,1.368,3.349,2.791
		c0,1.224-0.738,2.25-2.161,2.772v0.036c1.44,0.27,2.593,1.351,2.611,2.989c0,1.872-1.477,3.511-4.267,3.511
		c-1.314,0-2.467-0.414-3.043-0.792L338.687,164.699z"/>
</g>
<g>
	<path d="M359.514,156.273h-0.036l-2.035,1.098l-0.306-1.206l2.557-1.368h1.351V166.5h-1.53V156.273z"/>
	<path d="M370.206,166.5v-3.205h-5.438v-1.026l5.222-7.472h1.71v7.273h1.639v1.225H371.7v3.205H370.206z M370.206,162.07v-3.907
		c0-0.611,0.018-1.224,0.054-1.836h-0.054c-0.36,0.684-0.648,1.188-0.972,1.729l-2.863,3.979v0.035H370.206z"/>
</g>
<g>
	<path d="M386.515,156.273h-0.036l-2.035,1.098l-0.306-1.206l2.557-1.368h1.351V166.5h-1.53V156.273z"/>
	<path d="M399.295,156.129h-4.465l-0.45,3.007c0.27-0.036,0.522-0.054,0.954-0.054c0.918,0,1.801,0.18,2.521,0.63
		c0.918,0.504,1.674,1.53,1.674,2.989c0,2.286-1.818,3.997-4.357,3.997c-1.278,0-2.34-0.36-2.917-0.721l0.396-1.206
		c0.486,0.288,1.44,0.648,2.521,0.648c1.477,0,2.773-0.973,2.755-2.539c0-1.513-1.026-2.574-3.349-2.574
		c-0.685,0-1.207,0.054-1.639,0.107l0.756-5.617h5.6V156.129z"/>
</g>
<g>
	<path d="M413.514,156.273h-0.036l-2.035,1.098l-0.306-1.206l2.557-1.368h1.351V166.5h-1.53V156.273z"/>
	<path d="M425.988,155.913c-0.324-0.019-0.738,0.018-1.188,0.09c-2.502,0.396-3.799,2.196-4.069,4.142h0.036
		c0.558-0.757,1.549-1.369,2.845-1.369c2.071,0,3.529,1.513,3.529,3.781c0,2.161-1.458,4.142-3.907,4.142
		c-2.485,0-4.123-1.944-4.123-4.987c0-2.305,0.81-4.124,1.98-5.276c0.972-0.954,2.269-1.548,3.745-1.729
		c0.468-0.071,0.864-0.09,1.152-0.09V155.913z M425.538,162.665c0-1.675-0.954-2.683-2.413-2.683c-0.955,0-1.854,0.576-2.287,1.44
		c-0.09,0.18-0.162,0.396-0.162,0.684c0.018,1.927,0.918,3.367,2.593,3.367C424.62,165.474,425.538,164.34,425.538,162.665z"/>
</g>
<g>
	<path d="M440.515,156.273h-0.036l-2.035,1.098l-0.306-1.206l2.557-1.368h1.351V166.5h-1.53V156.273z"/>
	<path d="M453.908,154.797v1.044l-5.096,10.659h-1.639l5.078-10.354v-0.035h-5.726v-1.314H453.908z"/>
</g>
<g>
	<path d="M467.514,156.273h-0.036l-2.035,1.098l-0.306-1.206l2.557-1.368h1.351V166.5h-1.53V156.273z"/>
	<path d="M475.469,160.342c-1.314-0.611-1.873-1.62-1.873-2.629c0-1.854,1.567-3.114,3.637-3.114c2.269,0,3.421,1.404,3.421,2.881
		c0,0.99-0.504,2.07-1.944,2.736v0.055c1.458,0.576,2.358,1.62,2.358,3.024c0,2.053-1.746,3.403-3.979,3.403
		c-2.449,0-3.925-1.44-3.925-3.151c0-1.477,0.882-2.538,2.323-3.15L475.469,160.342z M479.466,163.457
		c0-1.404-0.991-2.106-2.575-2.557c-1.369,0.396-2.107,1.314-2.107,2.431c-0.054,1.17,0.846,2.215,2.341,2.215
		C478.548,165.546,479.466,164.663,479.466,163.457z M475.109,157.605c-0.018,1.17,0.882,1.801,2.232,2.16
		c1.008-0.342,1.783-1.062,1.783-2.124c0-0.937-0.558-1.909-1.98-1.909C475.829,155.732,475.109,156.597,475.109,157.605z"/>
</g>
<g>
	<path d="M494.515,156.273h-0.036l-2.034,1.098l-0.306-1.206l2.557-1.368h1.35V166.5h-1.53V156.273z"/>
	<path d="M501.228,165.384c0.342,0.036,0.738,0,1.278-0.054c0.918-0.127,1.782-0.486,2.449-1.135
		c0.773-0.702,1.332-1.729,1.548-3.097h-0.054c-0.648,0.792-1.585,1.242-2.773,1.242c-2.088,0-3.438-1.585-3.438-3.583
		c0-2.215,1.603-4.159,3.997-4.159s3.871,1.927,3.871,4.951c0,2.557-0.864,4.357-2.017,5.474c-0.9,0.883-2.143,1.423-3.403,1.566
		c-0.576,0.09-1.08,0.108-1.458,0.09V165.384z M501.804,158.668c0,1.458,0.882,2.484,2.251,2.484c1.062,0,1.891-0.522,2.305-1.225
		c0.09-0.162,0.144-0.324,0.144-0.594c0-1.999-0.738-3.529-2.412-3.529C502.758,155.805,501.804,156.993,501.804,158.668z"/>
</g>
<g>
	<path d="M518.076,166.5v-0.973l1.242-1.206c2.988-2.845,4.357-4.357,4.357-6.122c0-1.188-0.559-2.286-2.305-2.286
		c-1.062,0-1.945,0.54-2.485,0.99l-0.504-1.116c0.792-0.666,1.963-1.188,3.295-1.188c2.521,0,3.583,1.729,3.583,3.403
		c0,2.16-1.566,3.906-4.033,6.283l-0.918,0.864v0.036h5.239v1.314H518.076z"/>
	<path d="M535.105,160.522c0,3.979-1.494,6.176-4.069,6.176c-2.286,0-3.853-2.143-3.889-6.014c0-3.943,1.71-6.086,4.087-6.086
		C533.684,154.599,535.105,156.795,535.105,160.522z M528.75,160.702c0,3.043,0.936,4.771,2.376,4.771
		c1.603,0,2.377-1.891,2.377-4.88c0-2.881-0.72-4.771-2.377-4.771C529.758,155.823,528.75,157.516,528.75,160.702z"/>
</g>
<g>
	<path d="M545.076,166.5v-0.973l1.242-1.206c2.988-2.845,4.357-4.357,4.357-6.122c0-1.188-0.559-2.286-2.305-2.286
		c-1.062,0-1.945,0.54-2.485,0.99l-0.504-1.116c0.792-0.666,1.963-1.188,3.295-1.188c2.521,0,3.583,1.729,3.583,3.403
		c0,2.16-1.566,3.906-4.033,6.283l-0.918,0.864v0.036h5.239v1.314H545.076z"/>
	<path d="M557.748,156.273h-0.036l-2.034,1.098l-0.307-1.206l2.558-1.368h1.35V166.5h-1.53V156.273z"/>
</g>
<g>
	<path d="M572.076,166.5v-0.973l1.242-1.206c2.988-2.845,4.357-4.357,4.357-6.122c0-1.188-0.559-2.286-2.305-2.286
		c-1.062,0-1.945,0.54-2.485,0.99l-0.504-1.116c0.792-0.666,1.963-1.188,3.295-1.188c2.521,0,3.583,1.729,3.583,3.403
		c0,2.16-1.566,3.906-4.033,6.283l-0.918,0.864v0.036h5.239v1.314H572.076z"/>
	<path d="M581.31,166.5v-0.973l1.242-1.206c2.989-2.845,4.357-4.357,4.357-6.122c0-1.188-0.559-2.286-2.305-2.286
		c-1.062,0-1.944,0.54-2.485,0.99l-0.504-1.116c0.792-0.666,1.963-1.188,3.295-1.188c2.521,0,3.583,1.729,3.583,3.403
		c0,2.16-1.566,3.906-4.033,6.283l-0.918,0.864v0.036h5.239v1.314H581.31z"/>
</g>
<g>
	<path d="M599.076,166.5v-0.973l1.242-1.206c2.988-2.845,4.357-4.357,4.357-6.122c0-1.188-0.559-2.286-2.305-2.286
		c-1.062,0-1.945,0.54-2.485,0.99l-0.504-1.116c0.792-0.666,1.963-1.188,3.295-1.188c2.521,0,3.583,1.729,3.583,3.403
		c0,2.16-1.566,3.906-4.033,6.283l-0.918,0.864v0.036h5.239v1.314H599.076z"/>
	<path d="M608.688,164.699c0.45,0.271,1.477,0.721,2.593,0.721c2.017,0,2.665-1.278,2.646-2.269
		c-0.018-1.639-1.494-2.341-3.024-2.341h-0.883v-1.188h0.883c1.152,0,2.61-0.595,2.61-1.98c0-0.937-0.594-1.765-2.053-1.765
		c-0.937,0-1.836,0.414-2.341,0.774l-0.432-1.152c0.63-0.45,1.818-0.9,3.079-0.9c2.305,0,3.349,1.368,3.349,2.791
		c0,1.224-0.738,2.25-2.16,2.772v0.036c1.44,0.27,2.593,1.351,2.61,2.989c0,1.872-1.477,3.511-4.268,3.511
		c-1.314,0-2.467-0.414-3.043-0.792L608.688,164.699z"/>
</g>
<g>
	<path d="M626.076,166.5v-0.973l1.242-1.206c2.988-2.845,4.357-4.357,4.357-6.122c0-1.188-0.559-2.286-2.305-2.286
		c-1.062,0-1.945,0.54-2.485,0.99l-0.504-1.116c0.792-0.666,1.963-1.188,3.295-1.188c2.521,0,3.583,1.729,3.583,3.403
		c0,2.16-1.566,3.906-4.033,6.283l-0.918,0.864v0.036h5.239v1.314H626.076z"/>
	<path d="M640.207,166.5v-3.205h-5.438v-1.026l5.221-7.472h1.711v7.273h1.639v1.225h-1.639v3.205H640.207z M640.207,162.07v-3.907
		c0-0.611,0.018-1.224,0.054-1.836h-0.054c-0.36,0.684-0.648,1.188-0.973,1.729l-2.863,3.979v0.035H640.207z"/>
</g>
<g>
	<path d="M653.076,166.5v-0.973l1.242-1.206c2.988-2.845,4.357-4.357,4.357-6.122c0-1.188-0.559-2.286-2.305-2.286
		c-1.062,0-1.945,0.54-2.485,0.99l-0.504-1.116c0.792-0.666,1.963-1.188,3.295-1.188c2.521,0,3.583,1.729,3.583,3.403
		c0,2.16-1.566,3.906-4.033,6.283l-0.918,0.864v0.036h5.239v1.314H653.076z"/>
	<path d="M669.295,156.129h-4.465l-0.45,3.007c0.271-0.036,0.522-0.054,0.954-0.054c0.918,0,1.801,0.18,2.521,0.63
		c0.919,0.504,1.675,1.53,1.675,2.989c0,2.286-1.818,3.997-4.357,3.997c-1.278,0-2.341-0.36-2.917-0.721l0.396-1.206
		c0.486,0.288,1.44,0.648,2.521,0.648c1.477,0,2.773-0.973,2.755-2.539c0-1.513-1.026-2.574-3.349-2.574
		c-0.685,0-1.207,0.054-1.639,0.107l0.756-5.617h5.6V156.129z"/>
</g>
<g>
	<path d="M680.076,166.5v-0.973l1.242-1.206c2.988-2.845,4.357-4.357,4.357-6.122c0-1.188-0.559-2.286-2.305-2.286
		c-1.062,0-1.945,0.54-2.485,0.99l-0.504-1.116c0.792-0.666,1.963-1.188,3.295-1.188c2.521,0,3.583,1.729,3.583,3.403
		c0,2.16-1.566,3.906-4.033,6.283l-0.918,0.864v0.036h5.239v1.314H680.076z"/>
	<path d="M695.989,155.913c-0.324-0.019-0.738,0.018-1.188,0.09c-2.503,0.396-3.799,2.196-4.069,4.142h0.036
		c0.559-0.757,1.549-1.369,2.845-1.369c2.071,0,3.529,1.513,3.529,3.781c0,2.161-1.458,4.142-3.907,4.142
		c-2.484,0-4.123-1.944-4.123-4.987c0-2.305,0.811-4.124,1.98-5.276c0.973-0.954,2.269-1.548,3.745-1.729
		c0.468-0.071,0.864-0.09,1.152-0.09V155.913z M695.539,162.665c0-1.675-0.954-2.683-2.413-2.683c-0.954,0-1.854,0.576-2.286,1.44
		c-0.09,0.18-0.162,0.396-0.162,0.684c0.018,1.927,0.918,3.367,2.593,3.367C694.621,165.474,695.539,164.34,695.539,162.665z"/>
</g>
<g>
	<path d="M232.679,7.628h-4.465l-0.45,3.007c0.27-0.036,0.522-0.054,0.954-0.054c0.918,0,1.801,0.18,2.521,0.63
		c0.918,0.505,1.674,1.53,1.674,2.989c0,2.286-1.818,3.997-4.357,3.997c-1.279,0-2.341-0.36-2.917-0.72l0.396-1.207
		c0.486,0.288,1.44,0.648,2.521,0.648c1.476,0,2.772-0.973,2.754-2.539c0-1.512-1.026-2.574-3.349-2.574
		c-0.685,0-1.207,0.054-1.639,0.107l0.756-5.617h5.6V7.628z"/>
</g>
<g>
	<path d="M259.373,7.412c-0.324-0.018-0.738,0.018-1.188,0.09c-2.502,0.396-3.799,2.197-4.069,4.142h0.036
		c0.558-0.757,1.548-1.368,2.845-1.368c2.07,0,3.529,1.512,3.529,3.78c0,2.161-1.458,4.142-3.907,4.142
		c-2.485,0-4.123-1.944-4.123-4.987c0-2.305,0.81-4.123,1.98-5.275c0.972-0.955,2.269-1.549,3.745-1.729
		c0.468-0.072,0.864-0.091,1.152-0.091V7.412z M258.922,14.164c0-1.675-0.954-2.683-2.413-2.683c-0.954,0-1.854,0.576-2.287,1.44
		c-0.09,0.18-0.162,0.396-0.162,0.684c0.018,1.927,0.918,3.367,2.593,3.367C258.004,16.973,258.922,15.839,258.922,14.164z"/>
</g>
<g>
	<path d="M334.612,16.883c0.342,0.036,0.738,0,1.278-0.054c0.918-0.126,1.783-0.486,2.449-1.135
		c0.774-0.702,1.333-1.729,1.548-3.097h-0.054c-0.648,0.792-1.584,1.242-2.773,1.242c-2.089,0-3.439-1.584-3.439-3.583
		c0-2.215,1.603-4.159,3.997-4.159c2.395,0,3.871,1.927,3.871,4.951c0,2.557-0.864,4.357-2.017,5.474
		c-0.9,0.883-2.143,1.423-3.403,1.566c-0.576,0.091-1.081,0.108-1.458,0.091V16.883z M335.188,10.167
		c0,1.458,0.882,2.484,2.25,2.484c1.062,0,1.891-0.521,2.305-1.224c0.09-0.162,0.144-0.324,0.144-0.595
		c0-1.998-0.738-3.529-2.413-3.529C336.142,7.304,335.188,8.492,335.188,10.167z"/>
</g>
<g>
	<path d="M359.515,7.772h-0.036l-2.035,1.098l-0.306-1.206l2.557-1.368h1.351v11.703h-1.53V7.772z"/>
	<path d="M373.105,12.021c0,3.979-1.494,6.176-4.069,6.176c-2.287,0-3.853-2.143-3.889-6.014c0-3.943,1.71-6.086,4.087-6.086
		C371.683,6.098,373.105,8.294,373.105,12.021z M366.75,12.201c0,3.043,0.937,4.771,2.377,4.771c1.603,0,2.376-1.891,2.376-4.879
		c0-2.881-0.72-4.771-2.376-4.771C367.758,7.322,366.75,9.015,366.75,12.201z"/>
</g>
<g>
	<path d="M440.514,7.772h-0.036l-2.035,1.098l-0.306-1.206l2.557-1.369h1.351V18h-1.53V7.772z"/>
	<path d="M446.687,16.199c0.45,0.27,1.477,0.72,2.593,0.72c2.017,0,2.665-1.278,2.646-2.269c-0.018-1.638-1.494-2.341-3.025-2.341
		h-0.882v-1.188h0.882c1.152,0,2.611-0.594,2.611-1.981c0-0.936-0.594-1.764-2.053-1.764c-0.936,0-1.836,0.414-2.34,0.774
		l-0.432-1.152c0.63-0.45,1.818-0.9,3.079-0.9c2.305,0,3.349,1.368,3.349,2.791c0,1.225-0.738,2.251-2.161,2.773v0.036
		c1.44,0.27,2.593,1.35,2.611,2.989c0,1.873-1.477,3.511-4.267,3.511c-1.314,0-2.467-0.415-3.043-0.792L446.687,16.199z"/>
</g>
<g>
	<path d="M467.514,7.772h-0.036l-2.035,1.098l-0.306-1.206l2.557-1.369h1.351V18h-1.53V7.772z"/>
	<path d="M478.206,18v-3.205h-5.438v-1.026l5.222-7.472h1.71v7.274h1.639v1.224H479.7V18H478.206z M478.206,13.57V9.663
		c0-0.612,0.018-1.225,0.054-1.836h-0.054c-0.36,0.684-0.648,1.188-0.972,1.729l-2.863,3.979v0.036H478.206z"/>
</g>
<g>
	<path d="M548.515,7.772h-0.036l-2.034,1.098l-0.306-1.206l2.557-1.369h1.35V18h-1.53V7.772z"/>
	<path d="M561.907,6.296V7.34L556.812,18h-1.639l5.077-10.353V7.61h-5.726V6.296H561.907z"/>
</g>
<g>
	<path d="M575.514,7.772h-0.036l-2.034,1.098l-0.307-1.206l2.558-1.369h1.35V18h-1.53V7.772z"/>
	<path d="M583.469,11.842c-1.314-0.612-1.872-1.621-1.872-2.629c0-1.854,1.566-3.115,3.637-3.115c2.269,0,3.421,1.404,3.421,2.881
		c0,0.99-0.504,2.07-1.944,2.737v0.054c1.458,0.576,2.358,1.621,2.358,3.025c0,2.053-1.746,3.403-3.979,3.403
		c-2.449,0-3.926-1.44-3.926-3.151c0-1.477,0.883-2.539,2.323-3.151L583.469,11.842z M587.466,14.957
		c0-1.404-0.99-2.106-2.574-2.557c-1.368,0.396-2.106,1.314-2.106,2.431c-0.055,1.17,0.846,2.215,2.34,2.215
		C586.548,17.045,587.466,16.163,587.466,14.957z M583.108,9.105c-0.018,1.17,0.883,1.8,2.233,2.161
		c1.008-0.342,1.782-1.062,1.782-2.125c0-0.936-0.559-1.908-1.98-1.908C583.829,7.232,583.108,8.097,583.108,9.105z"/>
</g>
<g>
	<path d="M653.076,18v-0.972l1.242-1.207c2.988-2.845,4.357-4.357,4.357-6.122c0-1.188-0.559-2.287-2.305-2.287
		c-1.062,0-1.945,0.541-2.485,0.991l-0.504-1.117c0.792-0.666,1.963-1.188,3.295-1.188c2.521,0,3.583,1.729,3.583,3.403
		c0,2.161-1.566,3.907-4.033,6.284l-0.918,0.864v0.036h5.239V18H653.076z"/>
	<path d="M665.748,7.772h-0.036l-2.034,1.098l-0.307-1.206l2.558-1.369h1.35V18h-1.53V7.772z"/>
</g>
<g>
	<path d="M680.076,18v-0.972l1.242-1.207c2.988-2.845,4.357-4.357,4.357-6.122c0-1.188-0.559-2.287-2.305-2.287
		c-1.062,0-1.945,0.541-2.485,0.991l-0.504-1.117c0.792-0.666,1.963-1.188,3.295-1.188c2.521,0,3.583,1.729,3.583,3.403
		c0,2.161-1.566,3.907-4.033,6.284l-0.918,0.864v0.036h5.239V18H680.076z"/>
	<path d="M689.31,18v-0.972l1.242-1.207c2.989-2.845,4.357-4.357,4.357-6.122c0-1.188-0.559-2.287-2.305-2.287
		c-1.062,0-1.944,0.541-2.485,0.991l-0.504-1.117c0.792-0.666,1.963-1.188,3.295-1.188c2.521,0,3.583,1.729,3.583,3.403
		c0,2.161-1.566,3.907-4.033,6.284l-0.918,0.864v0.036h5.239V18H689.31z"/>
</g>
<g>
	<path d="M761.076,18v-0.972l1.242-1.207c2.988-2.845,4.357-4.357,4.357-6.122c0-1.188-0.559-2.287-2.305-2.287
		c-1.062,0-1.945,0.541-2.485,0.991l-0.504-1.117c0.792-0.666,1.963-1.188,3.295-1.188c2.521,0,3.583,1.729,3.583,3.403
		c0,2.161-1.566,3.907-4.033,6.284l-0.918,0.864v0.036h5.239V18H761.076z"/>
	<path d="M777.295,7.628h-4.465l-0.45,3.007c0.271-0.036,0.522-0.054,0.954-0.054c0.918,0,1.801,0.18,2.521,0.63
		c0.919,0.504,1.675,1.531,1.675,2.989c0,2.287-1.818,3.998-4.357,3.998c-1.278,0-2.341-0.36-2.917-0.72l0.396-1.207
		c0.486,0.288,1.44,0.648,2.521,0.648c1.477,0,2.773-0.972,2.755-2.539c0-1.512-1.026-2.575-3.349-2.575
		c-0.685,0-1.207,0.054-1.639,0.108l0.756-5.618h5.6V7.628z"/>
</g>
<g>
	<path d="M788.076,18v-0.972l1.242-1.207c2.988-2.845,4.357-4.357,4.357-6.122c0-1.188-0.559-2.287-2.305-2.287
		c-1.062,0-1.945,0.541-2.485,0.991l-0.504-1.117c0.792-0.666,1.963-1.188,3.295-1.188c2.521,0,3.583,1.729,3.583,3.403
		c0,2.161-1.566,3.907-4.033,6.284l-0.918,0.864v0.036h5.239V18H788.076z"/>
	<path d="M803.989,7.412c-0.324-0.018-0.738,0.018-1.188,0.09c-2.503,0.396-3.799,2.197-4.069,4.141h0.036
		c0.559-0.756,1.549-1.368,2.845-1.368c2.071,0,3.529,1.512,3.529,3.781c0,2.161-1.458,4.142-3.907,4.142
		c-2.484,0-4.123-1.945-4.123-4.988c0-2.305,0.811-4.123,1.98-5.275c0.973-0.954,2.269-1.548,3.745-1.729
		c0.468-0.072,0.864-0.09,1.152-0.09V7.412z M803.539,14.165c0-1.675-0.954-2.683-2.413-2.683c-0.954,0-1.854,0.576-2.286,1.44
		c-0.09,0.18-0.162,0.396-0.162,0.685c0.018,1.926,0.918,3.367,2.593,3.367C802.621,16.973,803.539,15.839,803.539,14.165z"/>
</g>
<g>
	<path d="M707.076,166.5v-0.973l1.242-1.206c2.988-2.845,4.357-4.357,4.357-6.122c0-1.188-0.559-2.286-2.305-2.286
		c-1.062,0-1.945,0.54-2.485,0.99l-0.504-1.116c0.792-0.666,1.963-1.188,3.295-1.188c2.521,0,3.583,1.729,3.583,3.403
		c0,2.16-1.566,3.906-4.033,6.283l-0.918,0.864v0.036h5.239v1.314H707.076z"/>
	<path d="M723.907,154.797v1.044l-5.095,10.659h-1.639l5.077-10.354v-0.035h-5.726v-1.314H723.907z"/>
</g>
<g>
	<path d="M734.076,166.5v-0.973l1.242-1.206c2.988-2.845,4.357-4.357,4.357-6.122c0-1.188-0.559-2.286-2.305-2.286
		c-1.062,0-1.945,0.54-2.485,0.99l-0.504-1.116c0.792-0.666,1.963-1.188,3.295-1.188c2.521,0,3.583,1.729,3.583,3.403
		c0,2.16-1.566,3.906-4.033,6.283l-0.918,0.864v0.036h5.239v1.314H734.076z"/>
	<path d="M745.47,160.342c-1.314-0.611-1.872-1.62-1.872-2.629c0-1.854,1.566-3.114,3.637-3.114c2.269,0,3.421,1.404,3.421,2.881
		c0,0.99-0.504,2.07-1.944,2.736v0.055c1.458,0.576,2.358,1.62,2.358,3.024c0,2.053-1.746,3.403-3.979,3.403
		c-2.449,0-3.926-1.44-3.926-3.151c0-1.477,0.883-2.538,2.323-3.15L745.47,160.342z M749.467,163.457
		c0-1.404-0.99-2.106-2.574-2.557c-1.369,0.396-2.106,1.314-2.106,2.431c-0.055,1.17,0.846,2.215,2.34,2.215
		C748.549,165.546,749.467,164.663,749.467,163.457z M745.109,157.605c-0.018,1.17,0.883,1.801,2.233,2.16
		c1.008-0.342,1.782-1.062,1.782-2.124c0-0.937-0.559-1.909-1.98-1.909C745.83,155.732,745.109,156.597,745.109,157.605z"/>
</g>
<g>
	<path d="M761.076,166.5v-0.973l1.242-1.206c2.988-2.845,4.357-4.357,4.357-6.122c0-1.188-0.559-2.286-2.305-2.286
		c-1.062,0-1.945,0.54-2.485,0.99l-0.504-1.116c0.792-0.666,1.963-1.188,3.295-1.188c2.521,0,3.583,1.729,3.583,3.403
		c0,2.16-1.566,3.906-4.033,6.283l-0.918,0.864v0.036h5.239v1.314H761.076z"/>
	<path d="M771.228,165.384c0.342,0.036,0.738,0,1.278-0.054c0.918-0.127,1.782-0.486,2.449-1.135
		c0.773-0.702,1.332-1.729,1.548-3.097h-0.054c-0.648,0.792-1.585,1.242-2.773,1.242c-2.088,0-3.438-1.585-3.438-3.583
		c0-2.215,1.603-4.159,3.997-4.159s3.871,1.927,3.871,4.951c0,2.557-0.864,4.357-2.017,5.474c-0.9,0.883-2.143,1.423-3.403,1.566
		c-0.576,0.09-1.08,0.108-1.458,0.09V165.384z M771.804,158.668c0,1.458,0.882,2.484,2.251,2.484c1.062,0,1.891-0.522,2.305-1.225
		c0.09-0.162,0.144-0.324,0.144-0.594c0-1.999-0.738-3.529-2.412-3.529C772.758,155.805,771.804,156.993,771.804,158.668z"/>
</g>
<g>
	<path d="M788.454,164.699c0.45,0.271,1.477,0.721,2.593,0.721c2.017,0,2.665-1.278,2.646-2.269
		c-0.018-1.639-1.494-2.341-3.024-2.341h-0.883v-1.188h0.883c1.152,0,2.61-0.595,2.61-1.98c0-0.937-0.594-1.765-2.053-1.765
		c-0.936,0-1.836,0.414-2.341,0.774l-0.432-1.152c0.63-0.45,1.818-0.9,3.079-0.9c2.305,0,3.349,1.368,3.349,2.791
		c0,1.224-0.738,2.25-2.16,2.772v0.036c1.44,0.27,2.593,1.351,2.61,2.989c0,1.872-1.477,3.511-4.268,3.511
		c-1.314,0-2.467-0.414-3.043-0.792L788.454,164.699z"/>
	<path d="M805.105,160.522c0,3.979-1.494,6.176-4.069,6.176c-2.286,0-3.853-2.143-3.889-6.014c0-3.943,1.71-6.086,4.087-6.086
		C803.684,154.599,805.105,156.795,805.105,160.522z M798.75,160.702c0,3.043,0.936,4.771,2.376,4.771
		c1.603,0,2.377-1.891,2.377-4.88c0-2.881-0.72-4.771-2.377-4.771C799.758,155.823,798.75,157.516,798.75,160.702z"/>
</g>
<g>
	<path d="M815.076,18v-0.972l1.242-1.207c2.988-2.845,4.357-4.357,4.357-6.122c0-1.188-0.559-2.287-2.305-2.287
		c-1.062,0-1.945,0.541-2.485,0.991l-0.504-1.117c0.792-0.666,1.963-1.188,3.295-1.188c2.521,0,3.583,1.729,3.583,3.403
		c0,2.161-1.566,3.907-4.033,6.284l-0.918,0.864v0.036h5.239V18H815.076z"/>
	<path d="M825.228,16.883c0.342,0.036,0.738,0,1.278-0.054c0.918-0.126,1.782-0.486,2.449-1.134
		c0.773-0.702,1.332-1.729,1.548-3.097h-0.054c-0.648,0.792-1.585,1.243-2.773,1.243c-2.088,0-3.438-1.584-3.438-3.583
		c0-2.215,1.603-4.159,3.997-4.159s3.871,1.926,3.871,4.951c0,2.557-0.864,4.357-2.017,5.474c-0.9,0.882-2.143,1.422-3.403,1.566
		c-0.576,0.09-1.08,0.108-1.458,0.09V16.883z M825.804,10.167c0,1.458,0.882,2.485,2.251,2.485c1.062,0,1.891-0.522,2.305-1.224
		c0.09-0.162,0.144-0.324,0.144-0.594c0-1.999-0.738-3.529-2.412-3.529C826.758,7.304,825.804,8.493,825.804,10.167z"/>
</g>
<g>
	<path d="M842.454,16.199c0.45,0.27,1.477,0.72,2.593,0.72c2.017,0,2.665-1.278,2.646-2.269c-0.018-1.638-1.494-2.341-3.024-2.341
		h-0.883v-1.188h0.883c1.152,0,2.61-0.594,2.61-1.981c0-0.936-0.594-1.764-2.053-1.764c-0.936,0-1.836,0.414-2.341,0.774
		l-0.432-1.152c0.63-0.45,1.818-0.9,3.079-0.9c2.305,0,3.349,1.368,3.349,2.791c0,1.225-0.738,2.251-2.16,2.773v0.036
		c1.44,0.27,2.593,1.35,2.61,2.989c0,1.873-1.477,3.511-4.268,3.511c-1.314,0-2.467-0.415-3.043-0.792L842.454,16.199z"/>
	<path d="M859.105,12.021c0,3.979-1.494,6.176-4.069,6.176c-2.286,0-3.853-2.143-3.889-6.014c0-3.943,1.71-6.085,4.087-6.085
		C857.684,6.098,859.105,8.294,859.105,12.021z M852.75,12.202c0,3.043,0.936,4.771,2.376,4.771c1.603,0,2.377-1.891,2.377-4.879
		c0-2.881-0.72-4.771-2.377-4.771C853.758,7.322,852.75,9.015,852.75,12.202z"/>
</g>
<g>
	<path d="M815.454,164.699c0.45,0.271,1.477,0.721,2.593,0.721c2.017,0,2.665-1.278,2.646-2.269
		c-0.018-1.639-1.494-2.341-3.024-2.341h-0.883v-1.188h0.883c1.152,0,2.61-0.595,2.61-1.98c0-0.937-0.594-1.765-2.053-1.765
		c-0.936,0-1.836,0.414-2.341,0.774l-0.432-1.152c0.63-0.45,1.818-0.9,3.079-0.9c2.305,0,3.349,1.368,3.349,2.791
		c0,1.224-0.738,2.25-2.16,2.772v0.036c1.44,0.27,2.593,1.351,2.61,2.989c0,1.872-1.477,3.511-4.268,3.511
		c-1.314,0-2.467-0.414-3.043-0.792L815.454,164.699z"/>
	<path d="M827.748,156.273h-0.036l-2.034,1.098l-0.307-1.206l2.558-1.368h1.35V166.5h-1.53V156.273z"/>
</g>
<g>
	<path d="M842.454,164.699c0.45,0.271,1.477,0.721,2.593,0.721c2.017,0,2.665-1.278,2.646-2.269
		c-0.018-1.639-1.494-2.341-3.024-2.341h-0.883v-1.188h0.883c1.152,0,2.61-0.595,2.61-1.98c0-0.937-0.594-1.765-2.053-1.765
		c-0.936,0-1.836,0.414-2.341,0.774l-0.432-1.152c0.63-0.45,1.818-0.9,3.079-0.9c2.305,0,3.349,1.368,3.349,2.791
		c0,1.224-0.738,2.25-2.16,2.772v0.036c1.44,0.27,2.593,1.351,2.61,2.989c0,1.872-1.477,3.511-4.268,3.511
		c-1.314,0-2.467-0.414-3.043-0.792L842.454,164.699z"/>
	<path d="M851.31,166.5v-0.973l1.242-1.206c2.989-2.845,4.357-4.357,4.357-6.122c0-1.188-0.559-2.286-2.305-2.286
		c-1.062,0-1.944,0.54-2.485,0.99l-0.504-1.116c0.792-0.666,1.963-1.188,3.295-1.188c2.521,0,3.583,1.729,3.583,3.403
		c0,2.16-1.566,3.906-4.033,6.283l-0.918,0.864v0.036h5.239v1.314H851.31z"/>
</g>
<g>
	<path d="M71.292,6.296V7.34l-5.096,10.659h-1.639l5.078-10.353V7.61h-5.726V6.296H71.292z"/>
</g>
<g>
	<path d="M92.854,11.842c-1.314-0.612-1.873-1.621-1.873-2.629c0-1.854,1.567-3.115,3.637-3.115c2.269,0,3.421,1.404,3.421,2.881
		c0,0.99-0.504,2.07-1.944,2.737v0.054c1.458,0.576,2.358,1.62,2.358,3.024c0,2.053-1.746,3.403-3.979,3.403
		c-2.449,0-3.925-1.44-3.925-3.151c0-1.476,0.882-2.538,2.323-3.15L92.854,11.842z M96.851,14.956c0-1.404-0.991-2.106-2.575-2.557
		c-1.369,0.396-2.107,1.314-2.107,2.431c-0.054,1.171,0.846,2.215,2.341,2.215C95.933,17.045,96.851,16.163,96.851,14.956z
		 M92.494,9.104c-0.018,1.171,0.882,1.801,2.232,2.161c1.008-0.343,1.783-1.062,1.783-2.125c0-0.937-0.558-1.908-1.98-1.908
		C93.214,7.232,92.494,8.097,92.494,9.104z"/>
</g>
<g>
	<path d="M170.514,7.772h-0.036l-2.035,1.098l-0.306-1.206l2.557-1.369h1.351V18h-1.531V7.772z"/>
	<path d="M179.748,7.772h-0.036l-2.035,1.098l-0.306-1.206l2.557-1.369h1.351V18h-1.53V7.772z"/>
</g>
<g>
	<path d="M197.515,7.772h-0.036l-2.035,1.098l-0.306-1.206l2.557-1.369h1.351V18h-1.531V7.772z"/>
	<path d="M203.31,18v-0.972l1.243-1.207c2.989-2.845,4.357-4.357,4.357-6.122c0-1.188-0.558-2.287-2.305-2.287
		c-1.062,0-1.944,0.541-2.484,0.991l-0.504-1.117c0.792-0.666,1.963-1.188,3.295-1.188c2.521,0,3.583,1.729,3.583,3.403
		c0,2.161-1.567,3.907-4.033,6.284l-0.918,0.864v0.036h5.24V18H203.31z"/>
</g>
<g>
	<path d="M278.515,7.772h-0.036l-2.035,1.098l-0.306-1.206l2.557-1.369h1.351V18h-1.531V7.772z"/>
	<path d="M291.296,7.628h-4.465l-0.45,3.007c0.27-0.036,0.522-0.054,0.954-0.054c0.918,0,1.801,0.18,2.521,0.63
		c0.918,0.504,1.674,1.531,1.674,2.989c0,2.287-1.818,3.998-4.357,3.998c-1.279,0-2.341-0.36-2.917-0.72l0.396-1.207
		c0.486,0.288,1.44,0.648,2.521,0.648c1.476,0,2.772-0.972,2.754-2.539c0-1.512-1.026-2.575-3.349-2.575
		c-0.685,0-1.207,0.054-1.639,0.108l0.756-5.618h5.6V7.628z"/>
</g>
<g>
	<path d="M305.514,7.772h-0.036l-2.035,1.098l-0.306-1.206l2.557-1.369h1.351V18h-1.531V7.772z"/>
	<path d="M317.989,7.412c-0.324-0.018-0.738,0.018-1.188,0.09c-2.502,0.396-3.799,2.197-4.069,4.141h0.036
		c0.558-0.756,1.548-1.368,2.845-1.368c2.07,0,3.529,1.512,3.529,3.781c0,2.161-1.458,4.142-3.907,4.142
		c-2.485,0-4.123-1.945-4.123-4.988c0-2.305,0.81-4.123,1.98-5.275c0.972-0.954,2.269-1.548,3.745-1.729
		c0.468-0.072,0.864-0.09,1.152-0.09V7.412z M317.539,14.165c0-1.675-0.954-2.683-2.413-2.683c-0.954,0-1.854,0.576-2.287,1.44
		c-0.09,0.18-0.162,0.396-0.162,0.685c0.018,1.926,0.918,3.367,2.593,3.367C316.62,16.973,317.539,15.839,317.539,14.165z"/>
</g>
<g>
	<path d="M386.515,7.772h-0.036l-2.035,1.098l-0.306-1.206l2.557-1.369h1.351V18h-1.531V7.772z"/>
	<path d="M393.228,16.883c0.342,0.036,0.738,0,1.278-0.054c0.918-0.126,1.783-0.486,2.449-1.134
		c0.774-0.702,1.333-1.729,1.548-3.097h-0.054c-0.648,0.792-1.584,1.243-2.773,1.243c-2.089,0-3.439-1.584-3.439-3.583
		c0-2.215,1.603-4.159,3.997-4.159c2.395,0,3.871,1.926,3.871,4.951c0,2.557-0.864,4.357-2.017,5.474
		c-0.9,0.882-2.143,1.422-3.403,1.566c-0.576,0.09-1.081,0.108-1.458,0.09V16.883z M393.804,10.167c0,1.458,0.882,2.485,2.25,2.485
		c1.062,0,1.891-0.522,2.305-1.224c0.09-0.162,0.144-0.324,0.144-0.594c0-1.999-0.738-3.529-2.413-3.529
		C394.758,7.304,393.804,8.493,393.804,10.167z"/>
</g>
<g>
	<path d="M410.076,18v-0.972l1.243-1.207c2.989-2.845,4.357-4.357,4.357-6.122c0-1.188-0.559-2.287-2.305-2.287
		c-1.062,0-1.945,0.541-2.485,0.991l-0.504-1.117c0.792-0.666,1.963-1.188,3.295-1.188c2.521,0,3.583,1.729,3.583,3.403
		c0,2.161-1.566,3.907-4.033,6.284l-0.918,0.864v0.036h5.239V18H410.076z"/>
	<path d="M427.106,12.021c0,3.979-1.494,6.176-4.069,6.176c-2.287,0-3.854-2.143-3.89-6.014c0-3.943,1.711-6.085,4.087-6.085
		C425.684,6.098,427.106,8.294,427.106,12.021z M420.75,12.202c0,3.043,0.937,4.771,2.377,4.771c1.603,0,2.376-1.891,2.376-4.879
		c0-2.881-0.72-4.771-2.376-4.771C421.758,7.322,420.75,9.015,420.75,12.202z"/>
</g>
<g>
	<path d="M491.077,18v-0.972l1.242-1.207c2.989-2.845,4.357-4.357,4.357-6.122c0-1.188-0.559-2.287-2.305-2.287
		c-1.062,0-1.944,0.541-2.485,0.991l-0.504-1.117c0.792-0.666,1.963-1.188,3.295-1.188c2.521,0,3.583,1.729,3.583,3.403
		c0,2.161-1.566,3.907-4.033,6.284l-0.918,0.864v0.036h5.239V18H491.077z"/>
	<path d="M500.688,16.199c0.45,0.27,1.477,0.72,2.593,0.72c2.017,0,2.665-1.278,2.646-2.269c-0.018-1.638-1.494-2.341-3.024-2.341
		h-0.883v-1.188h0.883c1.152,0,2.61-0.594,2.61-1.981c0-0.936-0.594-1.764-2.053-1.764c-0.936,0-1.836,0.414-2.341,0.774
		l-0.432-1.152c0.63-0.45,1.818-0.9,3.079-0.9c2.305,0,3.349,1.368,3.349,2.791c0,1.225-0.738,2.251-2.16,2.773v0.036
		c1.44,0.27,2.593,1.35,2.61,2.989c0,1.873-1.477,3.511-4.268,3.511c-1.314,0-2.467-0.415-3.043-0.792L500.688,16.199z"/>
</g>
<g>
	<path d="M518.077,18v-0.972l1.242-1.207c2.989-2.845,4.357-4.357,4.357-6.122c0-1.188-0.559-2.287-2.305-2.287
		c-1.062,0-1.944,0.541-2.485,0.991l-0.504-1.117c0.792-0.666,1.963-1.188,3.295-1.188c2.521,0,3.583,1.729,3.583,3.403
		c0,2.161-1.566,3.907-4.033,6.284l-0.918,0.864v0.036h5.239V18H518.077z"/>
	<path d="M532.208,18v-3.205h-5.438v-1.026l5.221-7.472h1.711v7.274h1.639v1.224h-1.639V18H532.208z M532.208,13.57V9.663
		c0-0.612,0.018-1.225,0.054-1.836h-0.054c-0.36,0.684-0.648,1.188-0.973,1.729l-2.862,3.979v0.036H532.208z"/>
</g>
<g>
	<path d="M599.077,18v-0.972l1.242-1.207c2.989-2.845,4.357-4.357,4.357-6.122c0-1.188-0.559-2.287-2.305-2.287
		c-1.062,0-1.944,0.541-2.485,0.991l-0.504-1.117c0.792-0.666,1.963-1.188,3.295-1.188c2.521,0,3.583,1.729,3.583,3.403
		c0,2.161-1.566,3.907-4.033,6.284l-0.918,0.864v0.036h5.239V18H599.077z"/>
	<path d="M615.908,6.296V7.34L610.812,18h-1.638l5.077-10.353V7.61h-5.726V6.296H615.908z"/>
</g>
<g>
	<path d="M626.077,18v-0.972l1.242-1.207c2.989-2.845,4.357-4.357,4.357-6.122c0-1.188-0.559-2.287-2.305-2.287
		c-1.062,0-1.944,0.541-2.485,0.991l-0.504-1.117c0.792-0.666,1.963-1.188,3.295-1.188c2.521,0,3.583,1.729,3.583,3.403
		c0,2.161-1.566,3.907-4.033,6.284l-0.918,0.864v0.036h5.239V18H626.077z"/>
	<path d="M637.471,11.842c-1.314-0.612-1.872-1.621-1.872-2.629c0-1.854,1.566-3.115,3.637-3.115c2.269,0,3.421,1.404,3.421,2.881
		c0,0.99-0.504,2.07-1.944,2.737v0.054c1.458,0.576,2.358,1.621,2.358,3.025c0,2.053-1.746,3.403-3.979,3.403
		c-2.449,0-3.926-1.44-3.926-3.151c0-1.477,0.883-2.539,2.323-3.151L637.471,11.842z M641.468,14.957
		c0-1.404-0.99-2.106-2.574-2.557c-1.368,0.396-2.106,1.314-2.106,2.431c-0.055,1.17,0.846,2.215,2.34,2.215
		C640.55,17.045,641.468,16.163,641.468,14.957z M637.11,9.105c-0.018,1.17,0.883,1.8,2.233,2.161
		c1.008-0.342,1.782-1.062,1.782-2.125c0-0.936-0.559-1.908-1.98-1.908C637.831,7.232,637.11,8.097,637.11,9.105z"/>
</g>
<g>
	<path d="M707.455,16.199c0.45,0.27,1.477,0.72,2.593,0.72c2.017,0,2.665-1.278,2.646-2.269c-0.018-1.638-1.494-2.341-3.024-2.341
		h-0.883v-1.188h0.883c1.152,0,2.61-0.594,2.61-1.981c0-0.936-0.594-1.764-2.053-1.764c-0.937,0-1.836,0.414-2.341,0.774
		l-0.432-1.152c0.63-0.45,1.818-0.9,3.079-0.9c2.305,0,3.349,1.368,3.349,2.791c0,1.225-0.738,2.251-2.16,2.773v0.036
		c1.44,0.27,2.593,1.35,2.61,2.989c0,1.873-1.477,3.511-4.268,3.511c-1.314,0-2.467-0.415-3.043-0.792L707.455,16.199z"/>
	<path d="M719.749,7.772h-0.036l-2.034,1.098l-0.306-1.206l2.557-1.369h1.35V18h-1.53V7.772z"/>
</g>
<g>
	<path d="M734.455,16.199c0.45,0.27,1.477,0.72,2.593,0.72c2.017,0,2.665-1.278,2.646-2.269c-0.018-1.638-1.494-2.341-3.024-2.341
		h-0.883v-1.188h0.883c1.152,0,2.61-0.594,2.61-1.981c0-0.936-0.594-1.764-2.053-1.764c-0.937,0-1.836,0.414-2.341,0.774
		l-0.432-1.152c0.63-0.45,1.818-0.9,3.079-0.9c2.305,0,3.349,1.368,3.349,2.791c0,1.225-0.738,2.251-2.16,2.773v0.036
		c1.44,0.27,2.593,1.35,2.61,2.989c0,1.873-1.477,3.511-4.268,3.511c-1.314,0-2.467-0.415-3.043-0.792L734.455,16.199z"/>
	<path d="M743.311,18v-0.972l1.242-1.207c2.988-2.845,4.357-4.357,4.357-6.122c0-1.188-0.559-2.287-2.305-2.287
		c-1.062,0-1.945,0.541-2.485,0.991l-0.504-1.117c0.792-0.666,1.963-1.188,3.295-1.188c2.521,0,3.583,1.729,3.583,3.403
		c0,2.161-1.566,3.907-4.033,6.284l-0.918,0.864v0.036h5.239V18H743.311z"/>
</g>
</svg>
