<svg xmlns="http://www.w3.org/2000/svg" width="864" height="171">
    <path fill="none" stroke="#0081CD" stroke-width="3" stroke-miterlimit="10" d="M13.499 31.499l54 108M40.499 31.499l54 108M67.499 31.499l108 108M94.499 31.499l108 108M175.5 31.5l108 108M202.5 31.5l108 108M283.5 31.5l108 108M310.5 31.5l108 108M391.5 31.5l108 108M418.5 31.5l108 108M499.5 31.5l108 108M526.5 31.5l108 108M607.5 31.5l108 108M634.5 31.5l108 108M715.5 31.5l108 108M742.5 31.5l108 108"/>
    <path fill="none" stroke="#BC1E47" stroke-width="3" stroke-miterlimit="10" d="M13.499 139.499l108-108M40.499 139.499l108-108M121.5 139.5l108-108M148.5 139.5l108-108M229.5 139.5l108-108M256.5 139.5l108-108M337.5 139.5l108-108M364.5 139.5l108-108M445.5 139.5l108-108M472.5 139.5l108-108M553.5 139.5l108-108M580.5 139.5l108-108M661.5 139.5l108-108M688.5 139.5l108-108M769.5 139.499l54-108M796.5 139.499l54-108"/>
    <path d="M13.132 156.271h-.036l-2.035 1.099-.306-1.206 2.557-1.368h1.351v11.703h-1.53v-10.228zM36.692 166.499v-.973l1.243-1.206c2.989-2.845 4.357-4.357 4.357-6.122 0-1.188-.558-2.286-2.305-2.286-1.062 0-1.944.54-2.484.99l-.504-1.116a5.18 5.18 0 0 1 3.295-1.188c2.521 0 3.583 1.729 3.583 3.402 0 2.161-1.567 3.907-4.033 6.284l-.918.864v.036h5.24v1.314h-7.474zM121.132 7.772h-.036l-2.035 1.098-.306-1.206 2.557-1.368h1.351v11.703h-1.53V7.772zM144.692 17.999v-.972l1.243-1.207c2.989-2.845 4.357-4.357 4.357-6.121 0-1.188-.558-2.287-2.305-2.287-1.062 0-1.944.54-2.484.99l-.504-1.116a5.185 5.185 0 0 1 3.295-1.188c2.521 0 3.583 1.729 3.583 3.403 0 2.16-1.567 3.907-4.033 6.283l-.918.864v.036h5.24v1.314h-7.474zM64.071 164.698c.45.271 1.476.721 2.593.721 2.017 0 2.665-1.278 2.646-2.269-.018-1.639-1.494-2.341-3.025-2.341h-.882v-1.188h.882c1.152 0 2.611-.595 2.611-1.98 0-.937-.594-1.765-2.052-1.765-.937 0-1.837.414-2.341.774l-.432-1.152c.63-.45 1.818-.9 3.079-.9 2.305 0 3.349 1.368 3.349 2.791 0 1.224-.738 2.25-2.161 2.772v.036c1.44.27 2.593 1.351 2.611 2.988 0 1.873-1.477 3.512-4.267 3.512-1.314 0-2.467-.414-3.043-.792l.432-1.207zM95.59 166.499v-3.205h-5.438v-1.026l5.222-7.472h1.71v7.273h1.639v1.225h-1.639v3.205H95.59zm0-4.43v-3.907c0-.611.018-1.224.054-1.836h-.054a33.8 33.8 0 0 1-.972 1.729l-2.863 3.979v.036h3.835zM10.071 16.198c.45.271 1.477.721 2.593.721 2.017 0 2.665-1.278 2.646-2.269-.018-1.639-1.494-2.341-3.025-2.341h-.882v-1.188h.882c1.152 0 2.611-.594 2.611-1.98 0-.937-.594-1.765-2.053-1.765-.936 0-1.836.414-2.34.774l-.432-1.152c.63-.45 1.818-.9 3.079-.9 2.305 0 3.349 1.368 3.349 2.791 0 1.225-.738 2.251-2.161 2.772v.036c1.44.271 2.593 1.351 2.611 2.989 0 1.872-1.477 3.511-4.267 3.511-1.314 0-2.467-.414-3.043-.792l.432-1.207zM41.59 17.999v-3.205h-5.438v-1.026l5.222-7.472h1.71v7.274h1.639v1.224h-1.639v3.205H41.59zm0-4.429V9.663c0-.612.018-1.225.054-1.837h-.054c-.36.685-.648 1.188-.972 1.729l-2.863 3.979v.036h3.835zM124.679 156.128h-4.465l-.45 3.007c.27-.036.522-.054.954-.054.918 0 1.801.18 2.521.63.918.504 1.674 1.53 1.674 2.989 0 2.286-1.818 3.997-4.357 3.997-1.279 0-2.341-.36-2.917-.721l.396-1.206c.486.288 1.44.648 2.521.648 1.476 0 2.772-.973 2.754-2.539 0-1.513-1.026-2.575-3.349-2.575-.685 0-1.207.055-1.639.108l.756-5.617h5.6v1.333zM151.373 155.912c-.324-.019-.738.018-1.188.09-2.502.396-3.799 2.196-4.069 4.142h.036c.558-.757 1.548-1.369 2.845-1.369 2.07 0 3.529 1.513 3.529 3.781 0 2.161-1.458 4.142-3.907 4.142-2.485 0-4.123-1.944-4.123-4.987 0-2.305.81-4.124 1.98-5.276.972-.954 2.269-1.548 3.745-1.729.468-.071.864-.09 1.152-.09v1.296zm-.451 6.752c0-1.675-.954-2.683-2.413-2.683-.954 0-1.854.576-2.287 1.44-.09.18-.162.396-.162.684.018 1.927.918 3.367 2.593 3.367 1.351.001 2.269-1.134 2.269-2.808zM179.291 154.796v1.044l-5.096 10.659h-1.639l5.078-10.354v-.035h-5.726v-1.314h7.383zM200.853 160.341c-1.314-.612-1.873-1.62-1.873-2.628 0-1.855 1.566-3.115 3.637-3.115 2.269 0 3.421 1.404 3.421 2.881 0 .99-.504 2.07-1.944 2.736v.055c1.458.576 2.359 1.62 2.359 3.024 0 2.053-1.747 3.403-3.979 3.403-2.449 0-3.925-1.44-3.925-3.151 0-1.477.882-2.538 2.323-3.15l-.019-.055zm3.998 3.115c0-1.404-.99-2.106-2.575-2.557-1.368.396-2.106 1.314-2.106 2.431-.054 1.17.846 2.215 2.341 2.215 1.421 0 2.34-.883 2.34-2.089zm-4.358-5.852c-.018 1.17.882 1.801 2.232 2.16 1.008-.342 1.783-1.062 1.783-2.124 0-.937-.558-1.909-1.98-1.909-1.315 0-2.035.865-2.035 1.873zM226.612 165.383c.342.036.738 0 1.278-.054.918-.126 1.783-.486 2.449-1.135.774-.702 1.333-1.729 1.548-3.097h-.054c-.648.792-1.584 1.242-2.773 1.242-2.089 0-3.439-1.585-3.439-3.583 0-2.215 1.603-4.159 3.997-4.159 2.395 0 3.871 1.927 3.871 4.951 0 2.557-.864 4.357-2.017 5.474-.9.883-2.143 1.423-3.403 1.566-.576.09-1.081.108-1.458.09v-1.295zm.576-6.716c0 1.458.882 2.484 2.25 2.484 1.062 0 1.891-.522 2.305-1.225.09-.162.144-.324.144-.594 0-1.999-.738-3.529-2.413-3.529-1.332.001-2.286 1.189-2.286 2.864zM251.515 156.271h-.036l-2.035 1.099-.306-1.206 2.557-1.368h1.351v11.703h-1.53v-10.228zM265.105 160.521c0 3.979-1.494 6.176-4.069 6.176-2.287 0-3.853-2.143-3.889-6.014 0-3.943 1.71-6.086 4.087-6.086 2.449.001 3.871 2.197 3.871 5.924zm-6.355.18c0 3.043.937 4.771 2.377 4.771 1.603 0 2.376-1.891 2.376-4.879 0-2.881-.72-4.771-2.376-4.771-1.369 0-2.377 1.693-2.377 4.879zM278.514 156.273h-.036l-2.035 1.098-.306-1.206 2.557-1.368h1.351V166.5h-1.53v-10.227zM287.747 156.273h-.036l-2.035 1.098-.306-1.206 2.557-1.368h1.351V166.5h-1.531v-10.227zM305.515 156.273h-.036l-2.035 1.098-.306-1.206 2.557-1.368h1.351V166.5h-1.53v-10.227zM311.309 166.5v-.973l1.243-1.206c2.989-2.845 4.357-4.357 4.357-6.122 0-1.188-.559-2.286-2.305-2.286-1.062 0-1.945.54-2.485.99l-.504-1.116a5.185 5.185 0 0 1 3.295-1.188c2.521 0 3.583 1.729 3.583 3.403 0 2.16-1.566 3.906-4.033 6.283l-.918.864v.036h5.239v1.314h-7.472zM332.514 156.273h-.036l-2.035 1.098-.306-1.206 2.557-1.368h1.351V166.5h-1.53v-10.227zM338.687 164.699c.45.271 1.477.721 2.593.721 2.017 0 2.665-1.278 2.646-2.269-.018-1.639-1.494-2.341-3.025-2.341h-.882v-1.188h.882c1.152 0 2.611-.595 2.611-1.98 0-.937-.594-1.765-2.053-1.765-.936 0-1.836.414-2.34.774l-.432-1.152c.63-.45 1.818-.9 3.079-.9 2.305 0 3.349 1.368 3.349 2.791 0 1.224-.738 2.25-2.161 2.772v.036c1.44.27 2.593 1.351 2.611 2.989 0 1.872-1.477 3.511-4.267 3.511-1.314 0-2.467-.414-3.043-.792l.432-1.207zM359.514 156.273h-.036l-2.035 1.098-.306-1.206 2.557-1.368h1.351V166.5h-1.53v-10.227zM370.206 166.5v-3.205h-5.438v-1.026l5.222-7.472h1.71v7.273h1.639v1.225H371.7v3.205h-1.494zm0-4.43v-3.907c0-.611.018-1.224.054-1.836h-.054a33.8 33.8 0 0 1-.972 1.729l-2.863 3.979v.035h3.835zM386.515 156.273h-.036l-2.035 1.098-.306-1.206 2.557-1.368h1.351V166.5h-1.53v-10.227zM399.295 156.129h-4.465l-.45 3.007c.27-.036.522-.054.954-.054.918 0 1.801.18 2.521.63.918.504 1.674 1.53 1.674 2.989 0 2.286-1.818 3.997-4.357 3.997-1.278 0-2.34-.36-2.917-.721l.396-1.206c.486.288 1.44.648 2.521.648 1.477 0 2.773-.973 2.755-2.539 0-1.513-1.026-2.574-3.349-2.574-.685 0-1.207.054-1.639.107l.756-5.617h5.6v1.333zM413.514 156.273h-.036l-2.035 1.098-.306-1.206 2.557-1.368h1.351V166.5h-1.53v-10.227zM425.988 155.913c-.324-.019-.738.018-1.188.09-2.502.396-3.799 2.196-4.069 4.142h.036c.558-.757 1.549-1.369 2.845-1.369 2.071 0 3.529 1.513 3.529 3.781 0 2.161-1.458 4.142-3.907 4.142-2.485 0-4.123-1.944-4.123-4.987 0-2.305.81-4.124 1.98-5.276.972-.954 2.269-1.548 3.745-1.729.468-.071.864-.09 1.152-.09v1.296zm-.45 6.752c0-1.675-.954-2.683-2.413-2.683-.955 0-1.854.576-2.287 1.44-.09.18-.162.396-.162.684.018 1.927.918 3.367 2.593 3.367 1.351.001 2.269-1.133 2.269-2.808zM440.515 156.273h-.036l-2.035 1.098-.306-1.206 2.557-1.368h1.351V166.5h-1.53v-10.227zM453.908 154.797v1.044l-5.096 10.659h-1.639l5.078-10.354v-.035h-5.726v-1.314h7.383zM467.514 156.273h-.036l-2.035 1.098-.306-1.206 2.557-1.368h1.351V166.5h-1.53v-10.227zM475.469 160.342c-1.314-.611-1.873-1.62-1.873-2.629 0-1.854 1.567-3.114 3.637-3.114 2.269 0 3.421 1.404 3.421 2.881 0 .99-.504 2.07-1.944 2.736v.055c1.458.576 2.358 1.62 2.358 3.024 0 2.053-1.746 3.403-3.979 3.403-2.449 0-3.925-1.44-3.925-3.151 0-1.477.882-2.538 2.323-3.15l-.018-.055zm3.997 3.115c0-1.404-.991-2.106-2.575-2.557-1.369.396-2.107 1.314-2.107 2.431-.054 1.17.846 2.215 2.341 2.215 1.423 0 2.341-.883 2.341-2.089zm-4.357-5.852c-.018 1.17.882 1.801 2.232 2.16 1.008-.342 1.783-1.062 1.783-2.124 0-.937-.558-1.909-1.98-1.909-1.315 0-2.035.865-2.035 1.873zM494.515 156.273h-.036l-2.034 1.098-.306-1.206 2.557-1.368h1.35V166.5h-1.53v-10.227zM501.228 165.384c.342.036.738 0 1.278-.054.918-.127 1.782-.486 2.449-1.135.773-.702 1.332-1.729 1.548-3.097h-.054c-.648.792-1.585 1.242-2.773 1.242-2.088 0-3.438-1.585-3.438-3.583 0-2.215 1.603-4.159 3.997-4.159s3.871 1.927 3.871 4.951c0 2.557-.864 4.357-2.017 5.474-.9.883-2.143 1.423-3.403 1.566-.576.09-1.08.108-1.458.09v-1.295zm.576-6.716c0 1.458.882 2.484 2.251 2.484 1.062 0 1.891-.522 2.305-1.225.09-.162.144-.324.144-.594 0-1.999-.738-3.529-2.412-3.529-1.334.001-2.288 1.189-2.288 2.864zM518.076 166.5v-.973l1.242-1.206c2.988-2.845 4.357-4.357 4.357-6.122 0-1.188-.559-2.286-2.305-2.286-1.062 0-1.945.54-2.485.99l-.504-1.116a5.185 5.185 0 0 1 3.295-1.188c2.521 0 3.583 1.729 3.583 3.403 0 2.16-1.566 3.906-4.033 6.283l-.918.864v.036h5.239v1.314h-7.471zM535.105 160.522c0 3.979-1.494 6.176-4.069 6.176-2.286 0-3.853-2.143-3.889-6.014 0-3.943 1.71-6.086 4.087-6.086 2.45.001 3.871 2.197 3.871 5.924zm-6.355.18c0 3.043.936 4.771 2.376 4.771 1.603 0 2.377-1.891 2.377-4.88 0-2.881-.72-4.771-2.377-4.771-1.368.001-2.376 1.694-2.376 4.88zM545.076 166.5v-.973l1.242-1.206c2.988-2.845 4.357-4.357 4.357-6.122 0-1.188-.559-2.286-2.305-2.286-1.062 0-1.945.54-2.485.99l-.504-1.116a5.185 5.185 0 0 1 3.295-1.188c2.521 0 3.583 1.729 3.583 3.403 0 2.16-1.566 3.906-4.033 6.283l-.918.864v.036h5.239v1.314h-7.471zM557.748 156.273h-.036l-2.034 1.098-.307-1.206 2.558-1.368h1.35V166.5h-1.53v-10.227zM572.076 166.5v-.973l1.242-1.206c2.988-2.845 4.357-4.357 4.357-6.122 0-1.188-.559-2.286-2.305-2.286-1.062 0-1.945.54-2.485.99l-.504-1.116a5.185 5.185 0 0 1 3.295-1.188c2.521 0 3.583 1.729 3.583 3.403 0 2.16-1.566 3.906-4.033 6.283l-.918.864v.036h5.239v1.314h-7.471zM581.31 166.5v-.973l1.242-1.206c2.989-2.845 4.357-4.357 4.357-6.122 0-1.188-.559-2.286-2.305-2.286-1.062 0-1.944.54-2.485.99l-.504-1.116a5.185 5.185 0 0 1 3.295-1.188c2.521 0 3.583 1.729 3.583 3.403 0 2.16-1.566 3.906-4.033 6.283l-.918.864v.036h5.239v1.314h-7.471zM599.076 166.5v-.973l1.242-1.206c2.988-2.845 4.357-4.357 4.357-6.122 0-1.188-.559-2.286-2.305-2.286-1.062 0-1.945.54-2.485.99l-.504-1.116a5.185 5.185 0 0 1 3.295-1.188c2.521 0 3.583 1.729 3.583 3.403 0 2.16-1.566 3.906-4.033 6.283l-.918.864v.036h5.239v1.314h-7.471zM608.688 164.699c.45.271 1.477.721 2.593.721 2.017 0 2.665-1.278 2.646-2.269-.018-1.639-1.494-2.341-3.024-2.341h-.883v-1.188h.883c1.152 0 2.61-.595 2.61-1.98 0-.937-.594-1.765-2.053-1.765-.937 0-1.836.414-2.341.774l-.432-1.152c.63-.45 1.818-.9 3.079-.9 2.305 0 3.349 1.368 3.349 2.791 0 1.224-.738 2.25-2.16 2.772v.036c1.44.27 2.593 1.351 2.61 2.989 0 1.872-1.477 3.511-4.268 3.511-1.314 0-2.467-.414-3.043-.792l.434-1.207zM626.076 166.5v-.973l1.242-1.206c2.988-2.845 4.357-4.357 4.357-6.122 0-1.188-.559-2.286-2.305-2.286-1.062 0-1.945.54-2.485.99l-.504-1.116a5.185 5.185 0 0 1 3.295-1.188c2.521 0 3.583 1.729 3.583 3.403 0 2.16-1.566 3.906-4.033 6.283l-.918.864v.036h5.239v1.314h-7.471zM640.207 166.5v-3.205h-5.438v-1.026l5.221-7.472h1.711v7.273h1.639v1.225h-1.639v3.205h-1.494zm0-4.43v-3.907c0-.611.018-1.224.054-1.836h-.054a33.02 33.02 0 0 1-.973 1.729l-2.863 3.979v.035h3.836zM653.076 166.5v-.973l1.242-1.206c2.988-2.845 4.357-4.357 4.357-6.122 0-1.188-.559-2.286-2.305-2.286-1.062 0-1.945.54-2.485.99l-.504-1.116a5.185 5.185 0 0 1 3.295-1.188c2.521 0 3.583 1.729 3.583 3.403 0 2.16-1.566 3.906-4.033 6.283l-.918.864v.036h5.239v1.314h-7.471zM669.295 156.129h-4.465l-.45 3.007a6.66 6.66 0 0 1 .954-.054c.918 0 1.801.18 2.521.63.919.504 1.675 1.53 1.675 2.989 0 2.286-1.818 3.997-4.357 3.997-1.278 0-2.341-.36-2.917-.721l.396-1.206c.486.288 1.44.648 2.521.648 1.477 0 2.773-.973 2.755-2.539 0-1.513-1.026-2.574-3.349-2.574-.685 0-1.207.054-1.639.107l.756-5.617h5.6v1.333zM680.076 166.5v-.973l1.242-1.206c2.988-2.845 4.357-4.357 4.357-6.122 0-1.188-.559-2.286-2.305-2.286-1.062 0-1.945.54-2.485.99l-.504-1.116a5.185 5.185 0 0 1 3.295-1.188c2.521 0 3.583 1.729 3.583 3.403 0 2.16-1.566 3.906-4.033 6.283l-.918.864v.036h5.239v1.314h-7.471zM695.989 155.913c-.324-.019-.738.018-1.188.09-2.503.396-3.799 2.196-4.069 4.142h.036c.559-.757 1.549-1.369 2.845-1.369 2.071 0 3.529 1.513 3.529 3.781 0 2.161-1.458 4.142-3.907 4.142-2.484 0-4.123-1.944-4.123-4.987 0-2.305.811-4.124 1.98-5.276.973-.954 2.269-1.548 3.745-1.729.468-.071.864-.09 1.152-.09v1.296zm-.45 6.752c0-1.675-.954-2.683-2.413-2.683-.954 0-1.854.576-2.286 1.44-.09.18-.162.396-.162.684.018 1.927.918 3.367 2.593 3.367 1.35.001 2.268-1.133 2.268-2.808zM232.679 7.628h-4.465l-.45 3.007c.27-.036.522-.054.954-.054.918 0 1.801.18 2.521.63.918.505 1.674 1.53 1.674 2.989 0 2.286-1.818 3.997-4.357 3.997-1.279 0-2.341-.36-2.917-.72l.396-1.207c.486.288 1.44.648 2.521.648 1.476 0 2.772-.973 2.754-2.539 0-1.512-1.026-2.574-3.349-2.574-.685 0-1.207.054-1.639.107l.756-5.617h5.6v1.333zM259.373 7.412c-.324-.018-.738.018-1.188.09-2.502.396-3.799 2.197-4.069 4.142h.036c.558-.757 1.548-1.368 2.845-1.368 2.07 0 3.529 1.512 3.529 3.78 0 2.161-1.458 4.142-3.907 4.142-2.485 0-4.123-1.944-4.123-4.987 0-2.305.81-4.123 1.98-5.275.972-.955 2.269-1.549 3.745-1.729a7.627 7.627 0 0 1 1.152-.091v1.296zm-.451 6.752c0-1.675-.954-2.683-2.413-2.683-.954 0-1.854.576-2.287 1.44-.09.18-.162.396-.162.684.018 1.927.918 3.367 2.593 3.367 1.351.001 2.269-1.133 2.269-2.808zM334.612 16.883c.342.036.738 0 1.278-.054.918-.126 1.783-.486 2.449-1.135.774-.702 1.333-1.729 1.548-3.097h-.054c-.648.792-1.584 1.242-2.773 1.242-2.089 0-3.439-1.584-3.439-3.583 0-2.215 1.603-4.159 3.997-4.159 2.395 0 3.871 1.927 3.871 4.951 0 2.557-.864 4.357-2.017 5.474-.9.883-2.143 1.423-3.403 1.566-.576.091-1.081.108-1.458.091v-1.296zm.576-6.716c0 1.458.882 2.484 2.25 2.484 1.062 0 1.891-.521 2.305-1.224.09-.162.144-.324.144-.595 0-1.998-.738-3.529-2.413-3.529-1.332.001-2.286 1.189-2.286 2.864zM359.515 7.772h-.036l-2.035 1.098-.306-1.206 2.557-1.368h1.351v11.703h-1.53V7.772zM373.105 12.021c0 3.979-1.494 6.176-4.069 6.176-2.287 0-3.853-2.143-3.889-6.014 0-3.943 1.71-6.086 4.087-6.086 2.449.001 3.871 2.197 3.871 5.924zm-6.355.18c0 3.043.937 4.771 2.377 4.771 1.603 0 2.376-1.891 2.376-4.879 0-2.881-.72-4.771-2.376-4.771-1.369 0-2.377 1.693-2.377 4.879zM440.514 7.772h-.036l-2.035 1.098-.306-1.206 2.557-1.369h1.351V18h-1.53V7.772zM446.687 16.199c.45.27 1.477.72 2.593.72 2.017 0 2.665-1.278 2.646-2.269-.018-1.638-1.494-2.341-3.025-2.341h-.882v-1.188h.882c1.152 0 2.611-.594 2.611-1.981 0-.936-.594-1.764-2.053-1.764-.936 0-1.836.414-2.34.774l-.432-1.152c.63-.45 1.818-.9 3.079-.9 2.305 0 3.349 1.368 3.349 2.791 0 1.225-.738 2.251-2.161 2.773v.036c1.44.27 2.593 1.35 2.611 2.989 0 1.873-1.477 3.511-4.267 3.511-1.314 0-2.467-.415-3.043-.792l.432-1.207zM467.514 7.772h-.036l-2.035 1.098-.306-1.206 2.557-1.369h1.351V18h-1.53V7.772zM478.206 18v-3.205h-5.438v-1.026l5.222-7.472h1.71v7.274h1.639v1.224H479.7V18h-1.494zm0-4.43V9.663c0-.612.018-1.225.054-1.836h-.054a33.8 33.8 0 0 1-.972 1.729l-2.863 3.979v.036h3.835zM548.515 7.772h-.036l-2.034 1.098-.306-1.206 2.557-1.369h1.35V18h-1.53V7.772zM561.907 6.296V7.34L556.812 18h-1.639l5.077-10.353V7.61h-5.726V6.296h7.383zM575.514 7.772h-.036l-2.034 1.098-.307-1.206 2.558-1.369h1.35V18h-1.53V7.772zM583.469 11.842c-1.314-.612-1.872-1.621-1.872-2.629 0-1.854 1.566-3.115 3.637-3.115 2.269 0 3.421 1.404 3.421 2.881 0 .99-.504 2.07-1.944 2.737v.054c1.458.576 2.358 1.621 2.358 3.025 0 2.053-1.746 3.403-3.979 3.403-2.449 0-3.926-1.44-3.926-3.151 0-1.477.883-2.539 2.323-3.151l-.018-.054zm3.997 3.115c0-1.404-.99-2.106-2.574-2.557-1.368.396-2.106 1.314-2.106 2.431-.055 1.17.846 2.215 2.34 2.215 1.422-.001 2.34-.883 2.34-2.089zm-4.358-5.852c-.018 1.17.883 1.8 2.233 2.161 1.008-.342 1.782-1.062 1.782-2.125 0-.936-.559-1.908-1.98-1.908-1.314-.001-2.035.864-2.035 1.872zM653.076 18v-.972l1.242-1.207c2.988-2.845 4.357-4.357 4.357-6.122 0-1.188-.559-2.287-2.305-2.287-1.062 0-1.945.541-2.485.991l-.504-1.117a5.185 5.185 0 0 1 3.295-1.188c2.521 0 3.583 1.729 3.583 3.403 0 2.161-1.566 3.907-4.033 6.284l-.918.864v.036h5.239V18h-7.471zM665.748 7.772h-.036l-2.034 1.098-.307-1.206 2.558-1.369h1.35V18h-1.53V7.772zM680.076 18v-.972l1.242-1.207c2.988-2.845 4.357-4.357 4.357-6.122 0-1.188-.559-2.287-2.305-2.287-1.062 0-1.945.541-2.485.991l-.504-1.117a5.185 5.185 0 0 1 3.295-1.188c2.521 0 3.583 1.729 3.583 3.403 0 2.161-1.566 3.907-4.033 6.284l-.918.864v.036h5.239V18h-7.471zM689.31 18v-.972l1.242-1.207c2.989-2.845 4.357-4.357 4.357-6.122 0-1.188-.559-2.287-2.305-2.287-1.062 0-1.944.541-2.485.991l-.504-1.117a5.185 5.185 0 0 1 3.295-1.188c2.521 0 3.583 1.729 3.583 3.403 0 2.161-1.566 3.907-4.033 6.284l-.918.864v.036h5.239V18h-7.471z"/>
    <g>
        <path d="M761.076 18v-.972l1.242-1.207c2.988-2.845 4.357-4.357 4.357-6.122 0-1.188-.559-2.287-2.305-2.287-1.062 0-1.945.541-2.485.991l-.504-1.117a5.185 5.185 0 0 1 3.295-1.188c2.521 0 3.583 1.729 3.583 3.403 0 2.161-1.566 3.907-4.033 6.284l-.918.864v.036h5.239V18h-7.471zM777.295 7.628h-4.465l-.45 3.007a6.66 6.66 0 0 1 .954-.054c.918 0 1.801.18 2.521.63.919.504 1.675 1.531 1.675 2.989 0 2.287-1.818 3.998-4.357 3.998-1.278 0-2.341-.36-2.917-.72l.396-1.207c.486.288 1.44.648 2.521.648 1.477 0 2.773-.972 2.755-2.539 0-1.512-1.026-2.575-3.349-2.575-.685 0-1.207.054-1.639.108l.756-5.618h5.6v1.333z"/>
    </g>
    <g>
        <path d="M788.076 18v-.972l1.242-1.207c2.988-2.845 4.357-4.357 4.357-6.122 0-1.188-.559-2.287-2.305-2.287-1.062 0-1.945.541-2.485.991l-.504-1.117a5.185 5.185 0 0 1 3.295-1.188c2.521 0 3.583 1.729 3.583 3.403 0 2.161-1.566 3.907-4.033 6.284l-.918.864v.036h5.239V18h-7.471zM803.989 7.412c-.324-.018-.738.018-1.188.09-2.503.396-3.799 2.197-4.069 4.141h.036c.559-.756 1.549-1.368 2.845-1.368 2.071 0 3.529 1.512 3.529 3.781 0 2.161-1.458 4.142-3.907 4.142-2.484 0-4.123-1.945-4.123-4.988 0-2.305.811-4.123 1.98-5.275.973-.954 2.269-1.548 3.745-1.729.468-.072.864-.09 1.152-.09v1.296zm-.45 6.753c0-1.675-.954-2.683-2.413-2.683-.954 0-1.854.576-2.286 1.44-.09.18-.162.396-.162.685.018 1.926.918 3.367 2.593 3.367 1.35-.001 2.268-1.135 2.268-2.809z"/>
    </g>
    <g>
        <path d="M707.076 166.5v-.973l1.242-1.206c2.988-2.845 4.357-4.357 4.357-6.122 0-1.188-.559-2.286-2.305-2.286-1.062 0-1.945.54-2.485.99l-.504-1.116a5.185 5.185 0 0 1 3.295-1.188c2.521 0 3.583 1.729 3.583 3.403 0 2.16-1.566 3.906-4.033 6.283l-.918.864v.036h5.239v1.314h-7.471zM723.907 154.797v1.044l-5.095 10.659h-1.639l5.077-10.354v-.035h-5.726v-1.314h7.383z"/>
    </g>
    <g>
        <path d="M734.076 166.5v-.973l1.242-1.206c2.988-2.845 4.357-4.357 4.357-6.122 0-1.188-.559-2.286-2.305-2.286-1.062 0-1.945.54-2.485.99l-.504-1.116a5.185 5.185 0 0 1 3.295-1.188c2.521 0 3.583 1.729 3.583 3.403 0 2.16-1.566 3.906-4.033 6.283l-.918.864v.036h5.239v1.314h-7.471zM745.47 160.342c-1.314-.611-1.872-1.62-1.872-2.629 0-1.854 1.566-3.114 3.637-3.114 2.269 0 3.421 1.404 3.421 2.881 0 .99-.504 2.07-1.944 2.736v.055c1.458.576 2.358 1.62 2.358 3.024 0 2.053-1.746 3.403-3.979 3.403-2.449 0-3.926-1.44-3.926-3.151 0-1.477.883-2.538 2.323-3.15l-.018-.055zm3.997 3.115c0-1.404-.99-2.106-2.574-2.557-1.369.396-2.106 1.314-2.106 2.431-.055 1.17.846 2.215 2.34 2.215 1.422 0 2.34-.883 2.34-2.089zm-4.358-5.852c-.018 1.17.883 1.801 2.233 2.16 1.008-.342 1.782-1.062 1.782-2.124 0-.937-.559-1.909-1.98-1.909-1.314 0-2.035.865-2.035 1.873z"/>
    </g>
    <g>
        <path d="M761.076 166.5v-.973l1.242-1.206c2.988-2.845 4.357-4.357 4.357-6.122 0-1.188-.559-2.286-2.305-2.286-1.062 0-1.945.54-2.485.99l-.504-1.116a5.185 5.185 0 0 1 3.295-1.188c2.521 0 3.583 1.729 3.583 3.403 0 2.16-1.566 3.906-4.033 6.283l-.918.864v.036h5.239v1.314h-7.471zM771.228 165.384c.342.036.738 0 1.278-.054.918-.127 1.782-.486 2.449-1.135.773-.702 1.332-1.729 1.548-3.097h-.054c-.648.792-1.585 1.242-2.773 1.242-2.088 0-3.438-1.585-3.438-3.583 0-2.215 1.603-4.159 3.997-4.159s3.871 1.927 3.871 4.951c0 2.557-.864 4.357-2.017 5.474-.9.883-2.143 1.423-3.403 1.566-.576.09-1.08.108-1.458.09v-1.295zm.576-6.716c0 1.458.882 2.484 2.251 2.484 1.062 0 1.891-.522 2.305-1.225.09-.162.144-.324.144-.594 0-1.999-.738-3.529-2.412-3.529-1.334.001-2.288 1.189-2.288 2.864z"/>
    </g>
    <g>
        <path d="M788.454 164.699c.45.271 1.477.721 2.593.721 2.017 0 2.665-1.278 2.646-2.269-.018-1.639-1.494-2.341-3.024-2.341h-.883v-1.188h.883c1.152 0 2.61-.595 2.61-1.98 0-.937-.594-1.765-2.053-1.765-.936 0-1.836.414-2.341.774l-.432-1.152c.63-.45 1.818-.9 3.079-.9 2.305 0 3.349 1.368 3.349 2.791 0 1.224-.738 2.25-2.16 2.772v.036c1.44.27 2.593 1.351 2.61 2.989 0 1.872-1.477 3.511-4.268 3.511-1.314 0-2.467-.414-3.043-.792l.434-1.207zM805.105 160.522c0 3.979-1.494 6.176-4.069 6.176-2.286 0-3.853-2.143-3.889-6.014 0-3.943 1.71-6.086 4.087-6.086 2.45.001 3.871 2.197 3.871 5.924zm-6.355.18c0 3.043.936 4.771 2.376 4.771 1.603 0 2.377-1.891 2.377-4.88 0-2.881-.72-4.771-2.377-4.771-1.368.001-2.376 1.694-2.376 4.88z"/>
    </g>
    <g>
        <path d="M815.076 18v-.972l1.242-1.207c2.988-2.845 4.357-4.357 4.357-6.122 0-1.188-.559-2.287-2.305-2.287-1.062 0-1.945.541-2.485.991l-.504-1.117a5.185 5.185 0 0 1 3.295-1.188c2.521 0 3.583 1.729 3.583 3.403 0 2.161-1.566 3.907-4.033 6.284l-.918.864v.036h5.239V18h-7.471zM825.228 16.883c.342.036.738 0 1.278-.054.918-.126 1.782-.486 2.449-1.134.773-.702 1.332-1.729 1.548-3.097h-.054c-.648.792-1.585 1.243-2.773 1.243-2.088 0-3.438-1.584-3.438-3.583 0-2.215 1.603-4.159 3.997-4.159s3.871 1.926 3.871 4.951c0 2.557-.864 4.357-2.017 5.474-.9.882-2.143 1.422-3.403 1.566-.576.09-1.08.108-1.458.09v-1.297zm.576-6.716c0 1.458.882 2.485 2.251 2.485 1.062 0 1.891-.522 2.305-1.224.09-.162.144-.324.144-.594 0-1.999-.738-3.529-2.412-3.529-1.334-.001-2.288 1.188-2.288 2.862z"/>
    </g>
    <g>
        <path d="M842.454 16.199c.45.27 1.477.72 2.593.72 2.017 0 2.665-1.278 2.646-2.269-.018-1.638-1.494-2.341-3.024-2.341h-.883v-1.188h.883c1.152 0 2.61-.594 2.61-1.981 0-.936-.594-1.764-2.053-1.764-.936 0-1.836.414-2.341.774l-.432-1.152c.63-.45 1.818-.9 3.079-.9 2.305 0 3.349 1.368 3.349 2.791 0 1.225-.738 2.251-2.16 2.773v.036c1.44.27 2.593 1.35 2.61 2.989 0 1.873-1.477 3.511-4.268 3.511-1.314 0-2.467-.415-3.043-.792l.434-1.207zM859.105 12.021c0 3.979-1.494 6.176-4.069 6.176-2.286 0-3.853-2.143-3.889-6.014 0-3.943 1.71-6.085 4.087-6.085 2.45 0 3.871 2.196 3.871 5.923zm-6.355.181c0 3.043.936 4.771 2.376 4.771 1.603 0 2.377-1.891 2.377-4.879 0-2.881-.72-4.771-2.377-4.771-1.368-.001-2.376 1.692-2.376 4.879z"/>
    </g>
    <g>
        <path d="M815.454 164.699c.45.271 1.477.721 2.593.721 2.017 0 2.665-1.278 2.646-2.269-.018-1.639-1.494-2.341-3.024-2.341h-.883v-1.188h.883c1.152 0 2.61-.595 2.61-1.98 0-.937-.594-1.765-2.053-1.765-.936 0-1.836.414-2.341.774l-.432-1.152c.63-.45 1.818-.9 3.079-.9 2.305 0 3.349 1.368 3.349 2.791 0 1.224-.738 2.25-2.16 2.772v.036c1.44.27 2.593 1.351 2.61 2.989 0 1.872-1.477 3.511-4.268 3.511-1.314 0-2.467-.414-3.043-.792l.434-1.207zM827.748 156.273h-.036l-2.034 1.098-.307-1.206 2.558-1.368h1.35V166.5h-1.53v-10.227z"/>
    </g>
    <g>
        <path d="M842.454 164.699c.45.271 1.477.721 2.593.721 2.017 0 2.665-1.278 2.646-2.269-.018-1.639-1.494-2.341-3.024-2.341h-.883v-1.188h.883c1.152 0 2.61-.595 2.61-1.98 0-.937-.594-1.765-2.053-1.765-.936 0-1.836.414-2.341.774l-.432-1.152c.63-.45 1.818-.9 3.079-.9 2.305 0 3.349 1.368 3.349 2.791 0 1.224-.738 2.25-2.16 2.772v.036c1.44.27 2.593 1.351 2.61 2.989 0 1.872-1.477 3.511-4.268 3.511-1.314 0-2.467-.414-3.043-.792l.434-1.207zM851.31 166.5v-.973l1.242-1.206c2.989-2.845 4.357-4.357 4.357-6.122 0-1.188-.559-2.286-2.305-2.286-1.062 0-1.944.54-2.485.99l-.504-1.116a5.185 5.185 0 0 1 3.295-1.188c2.521 0 3.583 1.729 3.583 3.403 0 2.16-1.566 3.906-4.033 6.283l-.918.864v.036h5.239v1.314h-7.471z"/>
    </g>
    <g>
        <path d="M71.292 6.296V7.34l-5.096 10.659h-1.639l5.078-10.353V7.61h-5.726V6.296h7.383z"/>
    </g>
    <g>
        <path d="M92.854 11.842c-1.314-.612-1.873-1.621-1.873-2.629 0-1.854 1.567-3.115 3.637-3.115 2.269 0 3.421 1.404 3.421 2.881 0 .99-.504 2.07-1.944 2.737v.054c1.458.576 2.358 1.62 2.358 3.024 0 2.053-1.746 3.403-3.979 3.403-2.449 0-3.925-1.44-3.925-3.151 0-1.476.882-2.538 2.323-3.15l-.018-.054zm3.997 3.114c0-1.404-.991-2.106-2.575-2.557-1.369.396-2.107 1.314-2.107 2.431-.054 1.171.846 2.215 2.341 2.215 1.423 0 2.341-.882 2.341-2.089zm-4.357-5.852c-.018 1.171.882 1.801 2.232 2.161 1.008-.343 1.783-1.062 1.783-2.125 0-.937-.558-1.908-1.98-1.908-1.315 0-2.035.865-2.035 1.872z"/>
    </g>
    <g>
        <path d="M170.514 7.772h-.036l-2.035 1.098-.306-1.206 2.557-1.369h1.351V18h-1.531V7.772zM179.748 7.772h-.036l-2.035 1.098-.306-1.206 2.557-1.369h1.351V18h-1.53V7.772z"/>
    </g>
    <g>
        <path d="M197.515 7.772h-.036l-2.035 1.098-.306-1.206 2.557-1.369h1.351V18h-1.531V7.772zM203.31 18v-.972l1.243-1.207c2.989-2.845 4.357-4.357 4.357-6.122 0-1.188-.558-2.287-2.305-2.287-1.062 0-1.944.541-2.484.991l-.504-1.117a5.185 5.185 0 0 1 3.295-1.188c2.521 0 3.583 1.729 3.583 3.403 0 2.161-1.567 3.907-4.033 6.284l-.918.864v.036h5.24V18h-7.474z"/>
    </g>
    <g>
        <path d="M278.515 7.772h-.036l-2.035 1.098-.306-1.206 2.557-1.369h1.351V18h-1.531V7.772zM291.296 7.628h-4.465l-.45 3.007c.27-.036.522-.054.954-.054.918 0 1.801.18 2.521.63.918.504 1.674 1.531 1.674 2.989 0 2.287-1.818 3.998-4.357 3.998-1.279 0-2.341-.36-2.917-.72l.396-1.207c.486.288 1.44.648 2.521.648 1.476 0 2.772-.972 2.754-2.539 0-1.512-1.026-2.575-3.349-2.575-.685 0-1.207.054-1.639.108l.756-5.618h5.6v1.333z"/>
    </g>
    <g>
        <path d="M305.514 7.772h-.036l-2.035 1.098-.306-1.206 2.557-1.369h1.351V18h-1.531V7.772zM317.989 7.412c-.324-.018-.738.018-1.188.09-2.502.396-3.799 2.197-4.069 4.141h.036c.558-.756 1.548-1.368 2.845-1.368 2.07 0 3.529 1.512 3.529 3.781 0 2.161-1.458 4.142-3.907 4.142-2.485 0-4.123-1.945-4.123-4.988 0-2.305.81-4.123 1.98-5.275.972-.954 2.269-1.548 3.745-1.729.468-.072.864-.09 1.152-.09v1.296zm-.45 6.753c0-1.675-.954-2.683-2.413-2.683-.954 0-1.854.576-2.287 1.44-.09.18-.162.396-.162.685.018 1.926.918 3.367 2.593 3.367 1.35-.001 2.269-1.135 2.269-2.809z"/>
    </g>
    <g>
        <path d="M386.515 7.772h-.036l-2.035 1.098-.306-1.206 2.557-1.369h1.351V18h-1.531V7.772zM393.228 16.883c.342.036.738 0 1.278-.054.918-.126 1.783-.486 2.449-1.134.774-.702 1.333-1.729 1.548-3.097h-.054c-.648.792-1.584 1.243-2.773 1.243-2.089 0-3.439-1.584-3.439-3.583 0-2.215 1.603-4.159 3.997-4.159 2.395 0 3.871 1.926 3.871 4.951 0 2.557-.864 4.357-2.017 5.474-.9.882-2.143 1.422-3.403 1.566-.576.09-1.081.108-1.458.09v-1.297zm.576-6.716c0 1.458.882 2.485 2.25 2.485 1.062 0 1.891-.522 2.305-1.224.09-.162.144-.324.144-.594 0-1.999-.738-3.529-2.413-3.529-1.332-.001-2.286 1.188-2.286 2.862z"/>
    </g>
    <g>
        <path d="M410.076 18v-.972l1.243-1.207c2.989-2.845 4.357-4.357 4.357-6.122 0-1.188-.559-2.287-2.305-2.287-1.062 0-1.945.541-2.485.991l-.504-1.117a5.185 5.185 0 0 1 3.295-1.188c2.521 0 3.583 1.729 3.583 3.403 0 2.161-1.566 3.907-4.033 6.284l-.918.864v.036h5.239V18h-7.472zM427.106 12.021c0 3.979-1.494 6.176-4.069 6.176-2.287 0-3.854-2.143-3.89-6.014 0-3.943 1.711-6.085 4.087-6.085 2.45 0 3.872 2.196 3.872 5.923zm-6.356.181c0 3.043.937 4.771 2.377 4.771 1.603 0 2.376-1.891 2.376-4.879 0-2.881-.72-4.771-2.376-4.771-1.369-.001-2.377 1.692-2.377 4.879z"/>
    </g>
    <g>
        <path d="M491.077 18v-.972l1.242-1.207c2.989-2.845 4.357-4.357 4.357-6.122 0-1.188-.559-2.287-2.305-2.287-1.062 0-1.944.541-2.485.991l-.504-1.117a5.185 5.185 0 0 1 3.295-1.188c2.521 0 3.583 1.729 3.583 3.403 0 2.161-1.566 3.907-4.033 6.284l-.918.864v.036h5.239V18h-7.471zM500.688 16.199c.45.27 1.477.72 2.593.72 2.017 0 2.665-1.278 2.646-2.269-.018-1.638-1.494-2.341-3.024-2.341h-.883v-1.188h.883c1.152 0 2.61-.594 2.61-1.981 0-.936-.594-1.764-2.053-1.764-.936 0-1.836.414-2.341.774l-.432-1.152c.63-.45 1.818-.9 3.079-.9 2.305 0 3.349 1.368 3.349 2.791 0 1.225-.738 2.251-2.16 2.773v.036c1.44.27 2.593 1.35 2.61 2.989 0 1.873-1.477 3.511-4.268 3.511-1.314 0-2.467-.415-3.043-.792l.434-1.207z"/>
    </g>
    <g>
        <path d="M518.077 18v-.972l1.242-1.207c2.989-2.845 4.357-4.357 4.357-6.122 0-1.188-.559-2.287-2.305-2.287-1.062 0-1.944.541-2.485.991l-.504-1.117a5.185 5.185 0 0 1 3.295-1.188c2.521 0 3.583 1.729 3.583 3.403 0 2.161-1.566 3.907-4.033 6.284l-.918.864v.036h5.239V18h-7.471zM532.208 18v-3.205h-5.438v-1.026l5.221-7.472h1.711v7.274h1.639v1.224h-1.639V18h-1.494zm0-4.43V9.663c0-.612.018-1.225.054-1.836h-.054a33.02 33.02 0 0 1-.973 1.729l-2.862 3.979v.036h3.835z"/>
    </g>
    <g>
        <path d="M599.077 18v-.972l1.242-1.207c2.989-2.845 4.357-4.357 4.357-6.122 0-1.188-.559-2.287-2.305-2.287-1.062 0-1.944.541-2.485.991l-.504-1.117a5.185 5.185 0 0 1 3.295-1.188c2.521 0 3.583 1.729 3.583 3.403 0 2.161-1.566 3.907-4.033 6.284l-.918.864v.036h5.239V18h-7.471zM615.908 6.296V7.34L610.812 18h-1.638l5.077-10.353V7.61h-5.726V6.296h7.383z"/>
    </g>
    <g>
        <path d="M626.077 18v-.972l1.242-1.207c2.989-2.845 4.357-4.357 4.357-6.122 0-1.188-.559-2.287-2.305-2.287-1.062 0-1.944.541-2.485.991l-.504-1.117a5.185 5.185 0 0 1 3.295-1.188c2.521 0 3.583 1.729 3.583 3.403 0 2.161-1.566 3.907-4.033 6.284l-.918.864v.036h5.239V18h-7.471zM637.471 11.842c-1.314-.612-1.872-1.621-1.872-2.629 0-1.854 1.566-3.115 3.637-3.115 2.269 0 3.421 1.404 3.421 2.881 0 .99-.504 2.07-1.944 2.737v.054c1.458.576 2.358 1.621 2.358 3.025 0 2.053-1.746 3.403-3.979 3.403-2.449 0-3.926-1.44-3.926-3.151 0-1.477.883-2.539 2.323-3.151l-.018-.054zm3.997 3.115c0-1.404-.99-2.106-2.574-2.557-1.368.396-2.106 1.314-2.106 2.431-.055 1.17.846 2.215 2.34 2.215 1.422-.001 2.34-.883 2.34-2.089zm-4.358-5.852c-.018 1.17.883 1.8 2.233 2.161 1.008-.342 1.782-1.062 1.782-2.125 0-.936-.559-1.908-1.98-1.908-1.314-.001-2.035.864-2.035 1.872z"/>
    </g>
    <g>
        <path d="M707.455 16.199c.45.27 1.477.72 2.593.72 2.017 0 2.665-1.278 2.646-2.269-.018-1.638-1.494-2.341-3.024-2.341h-.883v-1.188h.883c1.152 0 2.61-.594 2.61-1.981 0-.936-.594-1.764-2.053-1.764-.937 0-1.836.414-2.341.774l-.432-1.152c.63-.45 1.818-.9 3.079-.9 2.305 0 3.349 1.368 3.349 2.791 0 1.225-.738 2.251-2.16 2.773v.036c1.44.27 2.593 1.35 2.61 2.989 0 1.873-1.477 3.511-4.268 3.511-1.314 0-2.467-.415-3.043-.792l.434-1.207zM719.749 7.772h-.036l-2.034 1.098-.306-1.206 2.557-1.369h1.35V18h-1.53V7.772z"/>
    </g>
    <g>
        <path d="M734.455 16.199c.45.27 1.477.72 2.593.72 2.017 0 2.665-1.278 2.646-2.269-.018-1.638-1.494-2.341-3.024-2.341h-.883v-1.188h.883c1.152 0 2.61-.594 2.61-1.981 0-.936-.594-1.764-2.053-1.764-.937 0-1.836.414-2.341.774l-.432-1.152c.63-.45 1.818-.9 3.079-.9 2.305 0 3.349 1.368 3.349 2.791 0 1.225-.738 2.251-2.16 2.773v.036c1.44.27 2.593 1.35 2.61 2.989 0 1.873-1.477 3.511-4.268 3.511-1.314 0-2.467-.415-3.043-.792l.434-1.207zM743.311 18v-.972l1.242-1.207c2.988-2.845 4.357-4.357 4.357-6.122 0-1.188-.559-2.287-2.305-2.287-1.062 0-1.945.541-2.485.991l-.504-1.117a5.185 5.185 0 0 1 3.295-1.188c2.521 0 3.583 1.729 3.583 3.403 0 2.161-1.566 3.907-4.033 6.284l-.918.864v.036h5.239V18h-7.471z"/>
    </g>
</svg>
