<?xml version="1.0"?>
<!DOCTYPE svg PUBLIC "-//W3C//DTD SVG 1.1//EN" 
  "http://www.w3.org/Graphics/SVG/1.1/DTD/svg11.dtd">
<svg width="612" height="612" viewBox="0 0 612 612"
     xmlns="http://www.w3.org/2000/svg" version="1.1">
  <g style="stroke:#009246; fill:none">
    <line x1="342" y1="306" x2="306" y2="342"/>
    <line x1="342" y1="306" x2="306" y2="270"/>
    <line x1="270" y1="306" x2="306" y2="342"/>
    <line x1="270" y1="306" x2="306" y2="270"/>
    <line x1="378" y1="306" x2="306" y2="270"/>
    <line x1="378" y1="306" x2="306" y2="342"/>
    <line x1="378" y1="306" x2="306" y2="378"/>
    <line x1="378" y1="306" x2="306" y2="234"/>
    <line x1="234" y1="306" x2="306" y2="270"/>
    <line x1="234" y1="306" x2="306" y2="342"/>
    <line x1="234" y1="306" x2="306" y2="378"/>
    <line x1="234" y1="306" x2="306" y2="234"/>
    <line x1="414" y1="306" x2="306" y2="234"/>
    <line x1="414" y1="306" x2="306" y2="378"/>
    <line x1="414" y1="306" x2="306" y2="414"/>
    <line x1="414" y1="306" x2="306" y2="198"/>
    <line x1="198" y1="306" x2="306" y2="234"/>
    <line x1="198" y1="306" x2="306" y2="378"/>
    <line x1="198" y1="306" x2="306" y2="414"/>
    <line x1="198" y1="306" x2="306" y2="198"/>
    <line x1="450" y1="306" x2="306" y2="198"/>
    <line x1="450" y1="306" x2="306" y2="414"/>
    <line x1="450" y1="306" x2="306" y2="450"/>
    <line x1="450" y1="306" x2="306" y2="162"/>
    <line x1="162" y1="306" x2="306" y2="198"/>
    <line x1="162" y1="306" x2="306" y2="414"/>
    <line x1="162" y1="306" x2="306" y2="450"/>
    <line x1="162" y1="306" x2="306" y2="162"/>
    <line x1="486" y1="306" x2="306" y2="162"/>
    <line x1="486" y1="306" x2="306" y2="450"/>
    <line x1="486" y1="306" x2="306" y2="486"/>
    <line x1="486" y1="306" x2="306" y2="126"/>
    <line x1="126" y1="306" x2="306" y2="162"/>
    <line x1="126" y1="306" x2="306" y2="450"/>
    <line x1="126" y1="306" x2="306" y2="486"/>
    <line x1="126" y1="306" x2="306" y2="126"/>
    <line x1="522" y1="306" x2="306" y2="126"/>
    <line x1="522" y1="306" x2="306" y2="486"/>
    <line x1="522" y1="306" x2="306" y2="522"/>
    <line x1="522" y1="306" x2="306" y2="90"/>
    <line x1="90" y1="306" x2="306" y2="126"/>
    <line x1="90" y1="306" x2="306" y2="486"/>
    <line x1="90" y1="306" x2="306" y2="522"/>
    <line x1="90" y1="306" x2="306" y2="90"/>
    <line x1="558" y1="306" x2="306" y2="90"/>
    <line x1="558" y1="306" x2="306" y2="522"/>
    <line x1="558" y1="306" x2="306" y2="558"/>
    <line x1="558" y1="306" x2="306" y2="54"/>
    <line x1="54" y1="306" x2="306" y2="90"/>
    <line x1="54" y1="306" x2="306" y2="522"/>
    <line x1="54" y1="306" x2="306" y2="558"/>
    <line x1="54" y1="306" x2="306" y2="54"/>
    <line x1="594" y1="306" x2="306" y2="54"/>
    <line x1="594" y1="306" x2="306" y2="558"/>
    <line x1="594" y1="306" x2="306" y2="594"/>
    <line x1="594" y1="306" x2="306" y2="18"/>
    <line x1="18" y1="306" x2="306" y2="54"/>
    <line x1="18" y1="306" x2="306" y2="558"/>
    <line x1="18" y1="306" x2="306" y2="594"/>
    <line x1="18" y1="306" x2="306" y2="18"/>
  </g>
  <g style="stroke:#000000; fill:#BC1E46">
    <circle cx="342" cy="306" r="6"/>
    <circle cx="270" cy="306" r="6"/>
    <circle cx="378" cy="306" r="6"/>
    <circle cx="234" cy="306" r="6"/>
    <circle cx="414" cy="306" r="6"/>
    <circle cx="198" cy="306" r="6"/>
    <circle cx="450" cy="306" r="6"/>
    <circle cx="162" cy="306" r="6"/>
    <circle cx="486" cy="306" r="6"/>
    <circle cx="126" cy="306" r="6"/>
    <circle cx="522" cy="306" r="6"/>
    <circle cx="90" cy="306" r="6"/>
    <circle cx="558" cy="306" r="6"/>
    <circle cx="54" cy="306" r="6"/>
    <circle cx="594" cy="306" r="6"/>
    <circle cx="18" cy="306" r="6"/>
  </g>
  <g style="stroke:#000000; fill:#0081CD">
    <circle cx="306" cy="342" r="6"/>
    <circle cx="306" cy="270" r="6"/>
    <circle cx="306" cy="378" r="6"/>
    <circle cx="306" cy="234" r="6"/>
    <circle cx="306" cy="414" r="6"/>
    <circle cx="306" cy="198" r="6"/>
    <circle cx="306" cy="450" r="6"/>
    <circle cx="306" cy="162" r="6"/>
    <circle cx="306" cy="486" r="6"/>
    <circle cx="306" cy="126" r="6"/>
    <circle cx="306" cy="522" r="6"/>
    <circle cx="306" cy="90" r="6"/>
    <circle cx="306" cy="558" r="6"/>
    <circle cx="306" cy="54" r="6"/>
    <circle cx="306" cy="594" r="6"/>
    <circle cx="306" cy="18" r="6"/>
  </g>
</svg>
