<?xml version="1.0" encoding="utf-8"?>
<!-- Generator: Adobe Illustrator 15.1.0, SVG Export Plug-In . SVG Version: 6.00 Build 0)  -->
<!DOCTYPE svg PUBLIC "-//W3C//DTD SVG 1.1//EN" "http://www.w3.org/Graphics/SVG/1.1/DTD/svg11.dtd">
<svg version="1.1" id="Layer_1" xmlns="http://www.w3.org/2000/svg" xmlns:xlink="http://www.w3.org/1999/xlink" x="0px" y="0px"
	 width="684px" height="162.849px" viewBox="0 0 684 162.849" enable-background="new 0 0 684 162.849" xml:space="preserve">
<polygon fill="none" stroke="#000000" points="156,11.849 84,29.849 30,83.849 12,155.849 84,137.849 138,83.849 "/>
<polygon fill="none" stroke="#000000" points="12,11.849 30,83.849 84,137.849 156,155.849 138,83.849 84,29.849 "/>
<rect x="12" y="11.849" fill="none" stroke="#000000" width="144" height="144"/>
<g>
	<defs>
		<rect id="SVGID_1_" width="684" height="162.849"/>
	</defs>
	<clipPath id="SVGID_2_">
		<use xlink:href="#SVGID_1_"  overflow="visible"/>
	</clipPath>
	<path clip-path="url(#SVGID_2_)" fill="#0081CD" d="M18,11.849c0,3.312-2.688,6-6,6s-6-2.688-6-6s2.688-6,6-6S18,8.537,18,11.849"
		/>
	<circle clip-path="url(#SVGID_2_)" fill="none" stroke="#000000" cx="12" cy="11.849" r="6"/>
	<path clip-path="url(#SVGID_2_)" fill="#009246" d="M162,11.849c0,3.312-2.688,6-6,6s-6-2.688-6-6s2.688-6,6-6
		S162,8.537,162,11.849"/>
	<circle clip-path="url(#SVGID_2_)" fill="none" stroke="#000000" cx="156" cy="11.849" r="6"/>
	<path clip-path="url(#SVGID_2_)" fill="#0081CD" d="M162,155.849c0,3.312-2.688,6-6,6s-6-2.688-6-6s2.688-6,6-6
		S162,152.538,162,155.849"/>
	<circle clip-path="url(#SVGID_2_)" fill="none" stroke="#000000" cx="156" cy="155.849" r="6"/>
	<path clip-path="url(#SVGID_2_)" fill="#009246" d="M18,155.849c0,3.312-2.688,6-6,6s-6-2.688-6-6s2.688-6,6-6
		S18,152.538,18,155.849"/>
	<circle clip-path="url(#SVGID_2_)" fill="none" stroke="#000000" cx="12" cy="155.849" r="6"/>
	<path clip-path="url(#SVGID_2_)" fill="#FEC200" d="M90,29.849c0,3.312-2.688,6-6,6s-6-2.688-6-6s2.688-6,6-6S90,26.537,90,29.849"
		/>
	<circle clip-path="url(#SVGID_2_)" fill="none" stroke="#000000" cx="84" cy="29.849" r="6"/>
	<path clip-path="url(#SVGID_2_)" fill="#BC1E47" d="M36,83.849c0,3.312-2.688,6-6,6s-6-2.688-6-6c0-3.312,2.688-6,6-6
		S36,80.537,36,83.849"/>
	<circle clip-path="url(#SVGID_2_)" fill="none" stroke="#000000" cx="30" cy="83.849" r="6"/>
	<path clip-path="url(#SVGID_2_)" fill="#FEC200" d="M90,137.849c0,3.312-2.688,6-6,6s-6-2.688-6-6s2.688-6,6-6
		S90,134.538,90,137.849"/>
	<circle clip-path="url(#SVGID_2_)" fill="none" stroke="#000000" cx="84" cy="137.849" r="6"/>
	<path clip-path="url(#SVGID_2_)" fill="#BC1E47" d="M144,83.849c0,3.312-2.688,6-6,6s-6-2.688-6-6c0-3.312,2.688-6,6-6
		S144,80.537,144,83.849"/>
	<circle clip-path="url(#SVGID_2_)" fill="none" stroke="#000000" cx="138" cy="83.849" r="6"/>
	<rect x="322" y="65.849" clip-path="url(#SVGID_2_)" fill="#BC1E47" width="18" height="18"/>
	<rect x="322" y="65.849" clip-path="url(#SVGID_2_)" fill="none" stroke="#000000" width="18" height="18"/>
	<rect x="340" y="83.849" clip-path="url(#SVGID_2_)" fill="#BC1E47" width="18" height="18"/>
	<rect x="340" y="83.849" clip-path="url(#SVGID_2_)" fill="none" stroke="#000000" width="18" height="18"/>
	<rect x="340" y="65.849" clip-path="url(#SVGID_2_)" fill="#FEC200" width="18" height="18"/>
	<rect x="340" y="65.849" clip-path="url(#SVGID_2_)" fill="none" stroke="#000000" width="18" height="18"/>
	<rect x="322" y="83.849" clip-path="url(#SVGID_2_)" fill="#FEC200" width="18" height="18"/>
	<rect x="322" y="83.849" clip-path="url(#SVGID_2_)" fill="none" stroke="#000000" width="18" height="18"/>
	<rect x="304" y="11.849" clip-path="url(#SVGID_2_)" fill="#0081CD" width="54" height="54"/>
	<rect x="304" y="11.849" clip-path="url(#SVGID_2_)" fill="none" stroke="#000000" width="54" height="54"/>
	<rect x="322" y="101.849" clip-path="url(#SVGID_2_)" fill="#0081CD" width="54" height="54"/>
	<rect x="322" y="101.849" clip-path="url(#SVGID_2_)" fill="none" stroke="#000000" width="54" height="54"/>
	<rect x="358" y="47.849" clip-path="url(#SVGID_2_)" fill="#009246" width="54" height="54"/>
	<rect x="358" y="47.849" clip-path="url(#SVGID_2_)" fill="none" stroke="#000000" width="54" height="54"/>
	<rect x="268" y="65.849" clip-path="url(#SVGID_2_)" fill="#009246" width="54" height="54"/>
	<rect x="268" y="65.849" clip-path="url(#SVGID_2_)" fill="none" stroke="#000000" width="54" height="54"/>
	<polyline clip-path="url(#SVGID_2_)" fill="none" stroke="#000000" points="596,29.849 596,83.849 596,137.849 	"/>
	<polyline clip-path="url(#SVGID_2_)" fill="none" stroke="#000000" points="542,83.849 596,83.849 650,83.849 	"/>
	<polygon clip-path="url(#SVGID_2_)" fill="none" stroke="#000000" points="668,11.849 596,29.849 542,83.849 524,155.849 
		596,137.849 650,83.849 	"/>
	<polygon clip-path="url(#SVGID_2_)" fill="none" stroke="#000000" points="524,11.849 542,83.849 596,137.849 668,155.849 
		650,83.849 596,29.849 	"/>
	<rect x="524" y="11.849" clip-path="url(#SVGID_2_)" fill="none" stroke="#000000" width="144" height="144"/>
	<path clip-path="url(#SVGID_2_)" fill="#0081CD" d="M530,11.849c0,3.312-2.688,6-6,6c-3.313,0-6-2.688-6-6s2.687-6,6-6
		C527.312,5.849,530,8.537,530,11.849"/>
	<circle clip-path="url(#SVGID_2_)" fill="none" stroke="#000000" cx="524" cy="11.849" r="6"/>
	<path clip-path="url(#SVGID_2_)" fill="#009246" d="M674,11.849c0,3.312-2.688,6-6,6c-3.313,0-6-2.688-6-6s2.687-6,6-6
		C671.312,5.849,674,8.537,674,11.849"/>
	<circle clip-path="url(#SVGID_2_)" fill="none" stroke="#000000" cx="668" cy="11.849" r="6"/>
	<path clip-path="url(#SVGID_2_)" fill="#0081CD" d="M674,155.849c0,3.312-2.688,6-6,6c-3.313,0-6-2.688-6-6s2.687-6,6-6
		C671.312,149.849,674,152.538,674,155.849"/>
	<circle clip-path="url(#SVGID_2_)" fill="none" stroke="#000000" cx="668" cy="155.849" r="6"/>
	<path clip-path="url(#SVGID_2_)" fill="#009246" d="M530,155.849c0,3.312-2.688,6-6,6c-3.313,0-6-2.688-6-6s2.687-6,6-6
		C527.312,149.849,530,152.538,530,155.849"/>
	<circle clip-path="url(#SVGID_2_)" fill="none" stroke="#000000" cx="524" cy="155.849" r="6"/>
	<path clip-path="url(#SVGID_2_)" fill="#FEC200" d="M602,29.849c0,3.312-2.688,6-6,6c-3.313,0-6-2.688-6-6s2.687-6,6-6
		C599.312,23.849,602,26.537,602,29.849"/>
	<circle clip-path="url(#SVGID_2_)" fill="none" stroke="#000000" cx="596" cy="29.849" r="6"/>
	<path clip-path="url(#SVGID_2_)" fill="#BC1E47" d="M548,83.849c0,3.312-2.688,6-6,6c-3.313,0-6-2.688-6-6c0-3.312,2.687-6,6-6
		C545.312,77.849,548,80.537,548,83.849"/>
	<circle clip-path="url(#SVGID_2_)" fill="none" stroke="#000000" cx="542" cy="83.849" r="6"/>
	<path clip-path="url(#SVGID_2_)" fill="#FEC200" d="M602,137.849c0,3.312-2.688,6-6,6c-3.313,0-6-2.688-6-6s2.687-6,6-6
		C599.312,131.849,602,134.538,602,137.849"/>
	<circle clip-path="url(#SVGID_2_)" fill="none" stroke="#000000" cx="596" cy="137.849" r="6"/>
	<path clip-path="url(#SVGID_2_)" fill="#BC1E47" d="M656,83.849c0,3.312-2.688,6-6,6c-3.313,0-6-2.688-6-6c0-3.312,2.687-6,6-6
		C653.312,77.849,656,80.537,656,83.849"/>
	<circle clip-path="url(#SVGID_2_)" fill="none" stroke="#000000" cx="650" cy="83.849" r="6"/>
	<path clip-path="url(#SVGID_2_)" fill="#CC33CC" d="M602,83.849c0,3.313-2.688,6-6,6c-3.313,0-6-2.687-6-6c0-3.313,2.687-6,6-6
		C599.312,77.849,602,80.536,602,83.849"/>
	<circle clip-path="url(#SVGID_2_)" fill="none" stroke="#000000" cx="596" cy="83.849" r="6"/>
</g>
</svg>
