<?xml version="1.0" encoding="utf-8"?>
<!-- Generator: Adobe Illustrator 14.0.0, SVG Export Plug-In . SVG Version: 6.00 Build 43363)  -->
<!DOCTYPE svg PUBLIC "-//W3C//DTD SVG 1.1//EN" "http://www.w3.org/Graphics/SVG/1.1/DTD/svg11.dtd">
<svg version="1.1" id="Layer_1" xmlns="http://www.w3.org/2000/svg" xmlns:xlink="http://www.w3.org/1999/xlink" x="0px" y="0px"
	 width="270px" height="234px" viewBox="0 0 270 234" enable-background="new 0 0 270 234" xml:space="preserve">
<line fill="none" stroke="#000000" x1="9" y1="153" x2="261" y2="153"/>
<line fill="none" stroke="#000000" x1="9" y1="117" x2="261" y2="117"/>
<line fill="none" stroke="#000000" x1="81" y1="225" x2="81" y2="9"/>
<line fill="none" stroke="#000000" x1="117" y1="225" x2="117" y2="9"/>
<line fill="none" stroke="#000000" x1="189" y1="225" x2="189" y2="45"/>
<polyline fill="none" stroke="#000000" points="9,45 225,45 225,225 "/>
<polyline fill="none" stroke="#000000" points="153,225 153,9 9,9 9,189 261,189 "/>
<polyline fill="none" stroke="#000000" points="45,9 45,225 261,225 261,81 9,81 "/>
<circle fill="#0081CD" stroke="#000000" cx="9" cy="9" r="6"/>
<circle fill="#0081CD" stroke="#000000" cx="9" cy="45" r="6"/>
<circle fill="#0081CD" stroke="#000000" cx="9" cy="81" r="6"/>
<circle fill="#0081CD" stroke="#000000" cx="9" cy="117" r="6"/>
<circle fill="#0081CD" stroke="#000000" cx="9" cy="153" r="6"/>
<circle fill="#0081CD" stroke="#000000" cx="9" cy="189" r="6"/>
<circle fill="#0081CD" stroke="#000000" cx="45" cy="9" r="6"/>
<circle fill="#0081CD" stroke="#000000" cx="45" cy="45" r="6"/>
<circle fill="#0081CD" stroke="#000000" cx="45" cy="81" r="6"/>
<circle fill="#0081CD" stroke="#000000" cx="45" cy="117" r="6"/>
<circle fill="#0081CD" stroke="#000000" cx="45" cy="153" r="6"/>
<circle fill="#0081CD" stroke="#000000" cx="45" cy="189" r="6"/>
<circle fill="#0081CD" stroke="#000000" cx="45" cy="225" r="6"/>
<circle fill="#0081CD" stroke="#000000" cx="81" cy="9" r="6"/>
<circle fill="#0081CD" stroke="#000000" cx="81" cy="45" r="6"/>
<circle fill="#0081CD" stroke="#000000" cx="81" cy="81" r="6"/>
<circle fill="#0081CD" stroke="#000000" cx="81" cy="117" r="6"/>
<circle fill="#0081CD" stroke="#000000" cx="81" cy="153" r="6"/>
<circle fill="#0081CD" stroke="#000000" cx="81" cy="189" r="6"/>
<circle fill="#0081CD" stroke="#000000" cx="81" cy="225" r="6"/>
<circle fill="#0081CD" stroke="#000000" cx="117" cy="9" r="6"/>
<circle fill="#0081CD" stroke="#000000" cx="117" cy="45" r="6"/>
<circle fill="#0081CD" stroke="#000000" cx="117" cy="81" r="6"/>
<circle fill="#0081CD" stroke="#000000" cx="117" cy="117" r="6"/>
<circle fill="#0081CD" stroke="#000000" cx="117" cy="153" r="6"/>
<circle fill="#0081CD" stroke="#000000" cx="117" cy="189" r="6"/>
<circle fill="#0081CD" stroke="#000000" cx="117" cy="225" r="6"/>
<circle fill="#0081CD" stroke="#000000" cx="153" cy="9" r="6"/>
<circle fill="#0081CD" stroke="#000000" cx="153" cy="45" r="6"/>
<circle fill="#0081CD" stroke="#000000" cx="153" cy="81" r="6"/>
<circle fill="#0081CD" stroke="#000000" cx="153" cy="117" r="6"/>
<circle fill="#0081CD" stroke="#000000" cx="153" cy="153" r="6"/>
<circle fill="#0081CD" stroke="#000000" cx="153" cy="189" r="6"/>
<circle fill="#0081CD" stroke="#000000" cx="153" cy="225" r="6"/>
<circle fill="#0081CD" stroke="#000000" cx="189" cy="45" r="6"/>
<circle fill="#0081CD" stroke="#000000" cx="189" cy="81" r="6"/>
<circle fill="#0081CD" stroke="#000000" cx="189" cy="117" r="6"/>
<circle fill="#0081CD" stroke="#000000" cx="189" cy="153" r="6"/>
<circle fill="#0081CD" stroke="#000000" cx="189" cy="189" r="6"/>
<circle fill="#0081CD" stroke="#000000" cx="189" cy="225" r="6"/>
<circle fill="#0081CD" stroke="#000000" cx="225" cy="45" r="6"/>
<circle fill="#0081CD" stroke="#000000" cx="225" cy="81" r="6"/>
<circle fill="#0081CD" stroke="#000000" cx="225" cy="117" r="6"/>
<circle fill="#0081CD" stroke="#000000" cx="225" cy="153" r="6"/>
<circle fill="#0081CD" stroke="#000000" cx="225" cy="189" r="6"/>
<circle fill="#0081CD" stroke="#000000" cx="225" cy="225" r="6"/>
<circle fill="#0081CD" stroke="#000000" cx="261" cy="81" r="6"/>
<circle fill="#0081CD" stroke="#000000" cx="261" cy="117" r="6"/>
<circle fill="#0081CD" stroke="#000000" cx="261" cy="153" r="6"/>
<circle fill="#0081CD" stroke="#000000" cx="261" cy="189" r="6"/>
<circle fill="#0081CD" stroke="#000000" cx="261" cy="225" r="6"/>
</svg>
