<svg xmlns="http://www.w3.org/2000/svg" width="738" height="450">
    <path fill="none" stroke="#000" stroke-miterlimit="10" d="M630 387l18-18 9 18M432 387l54-18 54 18M198 387l54-18 54 18M81 387l9-18 18 18M513 312l18-18 9 18M333 312l36-18 36 18M198 312l9-18 18 18M432 243l18-18 9 18M423 261l9-18 9 18M315 261l-9-18M279 243l9-18 18 18-9 18M360 162l9-18 9 18"/>
    <circle fill="#BC1E47" stroke="#000" stroke-miterlimit="10" cx="369" cy="9" r="6"/>
    <circle fill="#BC1E47" stroke="#000" stroke-miterlimit="10" cx="297" cy="81" r="6"/>
    <circle fill="#BC1E47" stroke="#000" stroke-miterlimit="10" cx="441" cy="81" r="6"/>
    <circle fill="#BC1E47" stroke="#000" stroke-miterlimit="10" cx="225" cy="153" r="6"/>
    <circle fill="#BC1E47" stroke="#000" stroke-miterlimit="10" cx="279" cy="243" r="6"/>
    <circle fill="#BC1E47" stroke="#000" stroke-miterlimit="10" cx="288" cy="225" r="6"/>
    <circle fill="#BC1E47" stroke="#000" stroke-miterlimit="10" cx="369" cy="144" r="6"/>
    <circle fill="#BC1E47" stroke="#000" stroke-miterlimit="10" cx="360" cy="162" r="6"/>
    <circle fill="#BC1E47" stroke="#000" stroke-miterlimit="10" cx="378" cy="162" r="6"/>
    <circle fill="#BC1E47" stroke="#000" stroke-miterlimit="10" cx="432" cy="243" r="6"/>
    <circle fill="#BC1E47" stroke="#000" stroke-miterlimit="10" cx="423" cy="261" r="6"/>
    <circle fill="#BC1E47" stroke="#000" stroke-miterlimit="10" cx="441" cy="261" r="6"/>
    <circle fill="#BC1E47" stroke="#000" stroke-miterlimit="10" cx="306" cy="243" r="6"/>
    <circle fill="#BC1E47" stroke="#000" stroke-miterlimit="10" cx="297" cy="261" r="6"/>
    <circle fill="#BC1E47" stroke="#000" stroke-miterlimit="10" cx="315" cy="261" r="6"/>
    <path fill="none" stroke="#000" stroke-miterlimit="10" d="M360 348l-9-18M324 330l9-18 18 18-9 18"/>
    <circle fill="#BC1E47" stroke="#000" stroke-miterlimit="10" cx="324" cy="330" r="6"/>
    <circle fill="#BC1E47" stroke="#000" stroke-miterlimit="10" cx="333" cy="312" r="6"/>
    <circle fill="#BC1E47" stroke="#000" stroke-miterlimit="10" cx="351" cy="330" r="6"/>
    <circle fill="#BC1E47" stroke="#000" stroke-miterlimit="10" cx="342" cy="348" r="6"/>
    <circle fill="#BC1E47" stroke="#000" stroke-miterlimit="10" cx="360" cy="348" r="6"/>
    <path fill="none" stroke="#000" stroke-miterlimit="10" d="M252 348l-9-18M216 330l9-18 18 18-9 18"/>
    <circle fill="#BC1E47" stroke="#000" stroke-miterlimit="10" cx="216" cy="330" r="6"/>
    <circle fill="#BC1E47" stroke="#000" stroke-miterlimit="10" cx="225" cy="312" r="6"/>
    <circle fill="#BC1E47" stroke="#000" stroke-miterlimit="10" cx="243" cy="330" r="6"/>
    <circle fill="#BC1E47" stroke="#000" stroke-miterlimit="10" cx="234" cy="348" r="6"/>
    <circle fill="#BC1E47" stroke="#000" stroke-miterlimit="10" cx="252" cy="348" r="6"/>
    <circle fill="#BC1E47" stroke="#000" stroke-miterlimit="10" cx="513" cy="153" r="6"/>
    <circle fill="#BC1E47" stroke="#000" stroke-miterlimit="10" cx="585" cy="225" r="6"/>
    <circle fill="#BC1E47" stroke="#000" stroke-miterlimit="10" cx="540" cy="312" r="6"/>
    <circle fill="#BC1E47" stroke="#000" stroke-miterlimit="10" cx="531" cy="294" r="6"/>
    <circle fill="#BC1E47" stroke="#000" stroke-miterlimit="10" cx="369" cy="294" r="6"/>
    <circle fill="#BC1E47" stroke="#000" stroke-miterlimit="10" cx="657" cy="297" r="6"/>
    <circle fill="#BC1E47" stroke="#000" stroke-miterlimit="10" cx="486" cy="369" r="6"/>
    <circle fill="#BC1E47" stroke="#000" stroke-miterlimit="10" cx="729" cy="369" r="6"/>
    <circle fill="#BC1E47" stroke="#000" stroke-miterlimit="10" cx="657" cy="387" r="6"/>
    <circle fill="#BC1E47" stroke="#000" stroke-miterlimit="10" cx="648" cy="369" r="6"/>
    <circle fill="#BC1E47" stroke="#000" stroke-miterlimit="10" cx="459" cy="243" r="6"/>
    <circle fill="#BC1E47" stroke="#000" stroke-miterlimit="10" cx="450" cy="225" r="6"/>
    <path fill="none" stroke="#000" stroke-miterlimit="10" d="M495 330l18-18 9 18M486 348l9-18 9 18"/>
    <circle fill="#BC1E47" stroke="#000" stroke-miterlimit="10" cx="495" cy="330" r="6"/>
    <circle fill="#BC1E47" stroke="#000" stroke-miterlimit="10" cx="486" cy="348" r="6"/>
    <circle fill="#BC1E47" stroke="#000" stroke-miterlimit="10" cx="504" cy="348" r="6"/>
    <circle fill="#BC1E47" stroke="#000" stroke-miterlimit="10" cx="522" cy="330" r="6"/>
    <circle fill="#BC1E47" stroke="#000" stroke-miterlimit="10" cx="513" cy="312" r="6"/>
    <path fill="none" stroke="#000" stroke-miterlimit="10" d="M612 405l18-18 9 18"/>
    <circle fill="#BC1E47" stroke="#000" stroke-miterlimit="10" cx="639" cy="405" r="6"/>
    <circle fill="#BC1E47" stroke="#000" stroke-miterlimit="10" cx="630" cy="387" r="6"/>
    <path fill="none" stroke="#000" stroke-miterlimit="10" d="M594 423l18-18 9 18M585 441l9-18 9 18"/>
    <circle fill="#BC1E47" stroke="#000" stroke-miterlimit="10" cx="594" cy="423" r="6"/>
    <circle fill="#BC1E47" stroke="#000" stroke-miterlimit="10" cx="585" cy="441" r="6"/>
    <circle fill="#BC1E47" stroke="#000" stroke-miterlimit="10" cx="603" cy="441" r="6"/>
    <circle fill="#BC1E47" stroke="#000" stroke-miterlimit="10" cx="621" cy="423" r="6"/>
    <circle fill="#BC1E47" stroke="#000" stroke-miterlimit="10" cx="612" cy="405" r="6"/>
    <path fill="none" stroke="#000" stroke-miterlimit="10" d="M519 405l18-18 9 18"/>
    <circle fill="#BC1E47" stroke="#000" stroke-miterlimit="10" cx="546" cy="405" r="6"/>
    <circle fill="#BC1E47" stroke="#000" stroke-miterlimit="10" cx="537" cy="387" r="6"/>
    <path fill="none" stroke="#000" stroke-miterlimit="10" d="M501 423l18-18 9 18M492 441l9-18 9 18"/>
    <circle fill="#BC1E47" stroke="#000" stroke-miterlimit="10" cx="501" cy="423" r="6"/>
    <circle fill="#BC1E47" stroke="#000" stroke-miterlimit="10" cx="492" cy="441" r="6"/>
    <circle fill="#BC1E47" stroke="#000" stroke-miterlimit="10" cx="510" cy="441" r="6"/>
    <circle fill="#BC1E47" stroke="#000" stroke-miterlimit="10" cx="528" cy="423" r="6"/>
    <circle fill="#BC1E47" stroke="#000" stroke-miterlimit="10" cx="519" cy="405" r="6"/>
    <path fill="none" stroke="#000" stroke-miterlimit="10" d="M387 330l18-18 9 18M378 348l9-18 9 18"/>
    <circle fill="#BC1E47" stroke="#000" stroke-miterlimit="10" cx="387" cy="330" r="6"/>
    <circle fill="#BC1E47" stroke="#000" stroke-miterlimit="10" cx="378" cy="348" r="6"/>
    <circle fill="#BC1E47" stroke="#000" stroke-miterlimit="10" cx="396" cy="348" r="6"/>
    <circle fill="#BC1E47" stroke="#000" stroke-miterlimit="10" cx="414" cy="330" r="6"/>
    <circle fill="#BC1E47" stroke="#000" stroke-miterlimit="10" cx="405" cy="312" r="6"/>
    <path fill="none" stroke="#000" stroke-miterlimit="10" d="M270 405l36-18 36 18M297 441l-9-18M261 423l9-18 18 18-9 18"/>
    <circle fill="#BC1E47" stroke="#000" stroke-miterlimit="10" cx="261" cy="423" r="6"/>
    <circle fill="#BC1E47" stroke="#000" stroke-miterlimit="10" cx="270" cy="405" r="6"/>
    <circle fill="#BC1E47" stroke="#000" stroke-miterlimit="10" cx="288" cy="423" r="6"/>
    <circle fill="#BC1E47" stroke="#000" stroke-miterlimit="10" cx="279" cy="441" r="6"/>
    <circle fill="#BC1E47" stroke="#000" stroke-miterlimit="10" cx="297" cy="441" r="6"/>
    <circle fill="#BC1E47" stroke="#000" stroke-miterlimit="10" cx="306" cy="387" r="6"/>
    <path fill="none" stroke="#000" stroke-miterlimit="10" d="M324 423l18-18 9 18M315 441l9-18 9 18"/>
    <circle fill="#BC1E47" stroke="#000" stroke-miterlimit="10" cx="324" cy="423" r="6"/>
    <circle fill="#BC1E47" stroke="#000" stroke-miterlimit="10" cx="315" cy="441" r="6"/>
    <circle fill="#BC1E47" stroke="#000" stroke-miterlimit="10" cx="333" cy="441" r="6"/>
    <circle fill="#BC1E47" stroke="#000" stroke-miterlimit="10" cx="351" cy="423" r="6"/>
    <circle fill="#BC1E47" stroke="#000" stroke-miterlimit="10" cx="342" cy="405" r="6"/>
    <path fill="none" stroke="#000" stroke-miterlimit="10" d="M396 405l36-18 36 18M423 441l-9-18M387 423l9-18 18 18-9 18"/>
    <circle fill="#BC1E47" stroke="#000" stroke-miterlimit="10" cx="387" cy="423" r="6"/>
    <circle fill="#BC1E47" stroke="#000" stroke-miterlimit="10" cx="396" cy="405" r="6"/>
    <circle fill="#BC1E47" stroke="#000" stroke-miterlimit="10" cx="414" cy="423" r="6"/>
    <circle fill="#BC1E47" stroke="#000" stroke-miterlimit="10" cx="405" cy="441" r="6"/>
    <circle fill="#BC1E47" stroke="#000" stroke-miterlimit="10" cx="423" cy="441" r="6"/>
    <circle fill="#BC1E47" stroke="#000" stroke-miterlimit="10" cx="432" cy="387" r="6"/>
    <path fill="none" stroke="#000" stroke-miterlimit="10" d="M450 423l18-18 9 18M441 441l9-18 9 18"/>
    <circle fill="#BC1E47" stroke="#000" stroke-miterlimit="10" cx="450" cy="423" r="6"/>
    <circle fill="#BC1E47" stroke="#000" stroke-miterlimit="10" cx="441" cy="441" r="6"/>
    <circle fill="#BC1E47" stroke="#000" stroke-miterlimit="10" cx="459" cy="441" r="6"/>
    <circle fill="#BC1E47" stroke="#000" stroke-miterlimit="10" cx="477" cy="423" r="6"/>
    <circle fill="#BC1E47" stroke="#000" stroke-miterlimit="10" cx="468" cy="405" r="6"/>
    <circle fill="#BC1E47" stroke="#000" stroke-miterlimit="10" cx="153" cy="225" r="6"/>
    <circle fill="#BC1E47" stroke="#000" stroke-miterlimit="10" cx="81" cy="387" r="6"/>
    <circle fill="#BC1E47" stroke="#000" stroke-miterlimit="10" cx="90" cy="369" r="6"/>
    <circle fill="#BC1E47" stroke="#000" stroke-miterlimit="10" cx="252" cy="369" r="6"/>
    <circle fill="#BC1E47" stroke="#000" stroke-miterlimit="10" cx="198" cy="312" r="6"/>
    <circle fill="#BC1E47" stroke="#000" stroke-miterlimit="10" cx="207" cy="294" r="6"/>
    <path fill="none" stroke="#000" stroke-miterlimit="10" d="M189 405l9-18 18 18M243 441l-9-18M207 423l9-18 18 18-9 18"/>
    <circle fill="#BC1E47" stroke="#000" stroke-miterlimit="10" cx="207" cy="423" r="6"/>
    <circle fill="#BC1E47" stroke="#000" stroke-miterlimit="10" cx="216" cy="405" r="6"/>
    <circle fill="#BC1E47" stroke="#000" stroke-miterlimit="10" cx="234" cy="423" r="6"/>
    <circle fill="#BC1E47" stroke="#000" stroke-miterlimit="10" cx="225" cy="441" r="6"/>
    <circle fill="#BC1E47" stroke="#000" stroke-miterlimit="10" cx="243" cy="441" r="6"/>
    <circle fill="#BC1E47" stroke="#000" stroke-miterlimit="10" cx="189" cy="405" r="6"/>
    <circle fill="#BC1E47" stroke="#000" stroke-miterlimit="10" cx="198" cy="387" r="6"/>
    <path fill="none" stroke="#000" stroke-miterlimit="10" d="M99 405l9-18 18 18M153 441l-9-18M117 423l9-18 18 18-9 18"/>
    <circle fill="#BC1E47" stroke="#000" stroke-miterlimit="10" cx="117" cy="423" r="6"/>
    <circle fill="#BC1E47" stroke="#000" stroke-miterlimit="10" cx="126" cy="405" r="6"/>
    <circle fill="#BC1E47" stroke="#000" stroke-miterlimit="10" cx="144" cy="423" r="6"/>
    <circle fill="#BC1E47" stroke="#000" stroke-miterlimit="10" cx="135" cy="441" r="6"/>
    <circle fill="#BC1E47" stroke="#000" stroke-miterlimit="10" cx="153" cy="441" r="6"/>
    <circle fill="#BC1E47" stroke="#000" stroke-miterlimit="10" cx="99" cy="405" r="6"/>
    <circle fill="#BC1E47" stroke="#000" stroke-miterlimit="10" cx="108" cy="387" r="6"/>
    <circle fill="#BC1E47" stroke="#000" stroke-miterlimit="10" cx="81" cy="297" r="6"/>
    <circle fill="#BC1E47" stroke="#000" stroke-miterlimit="10" cx="9" cy="369" r="6"/>
</svg>
