<?xml version="1.0" encoding="utf-8"?>
<!-- Generator: Adobe Illustrator 15.1.0, SVG Export Plug-In . SVG Version: 6.00 Build 0)  -->
<!DOCTYPE svg PUBLIC "-//W3C//DTD SVG 1.1//EN" "http://www.w3.org/Graphics/SVG/1.1/DTD/svg11.dtd">
<svg version="1.1" id="Layer_1" xmlns="http://www.w3.org/2000/svg" xmlns:xlink="http://www.w3.org/1999/xlink" x="0px" y="0px"
	 width="882px" height="495px" viewBox="0 0 882 495" enable-background="new 0 0 882 495" xml:space="preserve">
<polyline fill="none" stroke="#231F20" stroke-miterlimit="10" points="621,468 630,450 657,432 711,414 "/>
<polyline fill="none" stroke="#231F20" stroke-miterlimit="10" points="360,486 387,468 396,450 486,432 495,414 522,396 "/>
<polyline fill="none" stroke="#231F20" stroke-miterlimit="10" points="171,468 225,450 252,432 261,414 "/>
<polyline fill="none" stroke="#231F20" stroke-miterlimit="10" points="531,351 540,333 567,315 "/>
<polyline fill="none" stroke="#231F20" stroke-miterlimit="10" points="315,351 342,333 351,315 "/>
<line fill="none" stroke="#231F20" stroke-miterlimit="10" x1="432" y1="234" x2="441" y2="216"/>
<circle fill="#BC1E47" stroke="#231F20" stroke-miterlimit="10" cx="441" cy="9" r="6"/>
<circle fill="#BC1E47" stroke="#231F20" stroke-miterlimit="10" cx="333" cy="117" r="6"/>
<circle fill="#BC1E47" stroke="#231F20" stroke-miterlimit="10" cx="549" cy="117" r="6"/>
<circle fill="#BC1E47" stroke="#231F20" stroke-miterlimit="10" cx="225" cy="225" r="6"/>
<circle fill="#BC1E47" stroke="#231F20" stroke-miterlimit="10" cx="657" cy="225" r="6"/>
<circle fill="#BC1E47" stroke="#231F20" stroke-miterlimit="10" cx="432" cy="234" r="6"/>
<circle fill="#BC1E47" stroke="#231F20" stroke-miterlimit="10" cx="441" cy="216" r="6"/>
<circle fill="#BC1E47" stroke="#231F20" stroke-miterlimit="10" cx="117" cy="333" r="6"/>
<circle fill="#BC1E47" stroke="#231F20" stroke-miterlimit="10" cx="342" cy="333" r="6"/>
<circle fill="#BC1E47" stroke="#231F20" stroke-miterlimit="10" cx="351" cy="315" r="6"/>
<circle fill="#BC1E47" stroke="#231F20" stroke-miterlimit="10" cx="315" cy="351" r="6"/>
<circle fill="#BC1E47" stroke="#231F20" stroke-miterlimit="10" cx="252" cy="432" r="6"/>
<circle fill="#BC1E47" stroke="#231F20" stroke-miterlimit="10" cx="261" cy="414" r="6"/>
<circle fill="#BC1E47" stroke="#231F20" stroke-miterlimit="10" cx="225" cy="450" r="6"/>
<circle fill="#BC1E47" stroke="#231F20" stroke-miterlimit="10" cx="387" cy="468" r="6"/>
<circle fill="#BC1E47" stroke="#231F20" stroke-miterlimit="10" cx="396" cy="450" r="6"/>
<circle fill="#BC1E47" stroke="#231F20" stroke-miterlimit="10" cx="360" cy="486" r="6"/>
<circle fill="#BC1E47" stroke="#231F20" stroke-miterlimit="10" cx="531" cy="351" r="6"/>
<circle fill="#BC1E47" stroke="#231F20" stroke-miterlimit="10" cx="540" cy="333" r="6"/>
<circle fill="#BC1E47" stroke="#231F20" stroke-miterlimit="10" cx="567" cy="315" r="6"/>
<circle fill="#BC1E47" stroke="#231F20" stroke-miterlimit="10" cx="486" cy="432" r="6"/>
<circle fill="#BC1E47" stroke="#231F20" stroke-miterlimit="10" cx="495" cy="414" r="6"/>
<circle fill="#BC1E47" stroke="#231F20" stroke-miterlimit="10" cx="522" cy="396" r="6"/>
<circle fill="#BC1E47" stroke="#231F20" stroke-miterlimit="10" cx="621" cy="468" r="6"/>
<circle fill="#BC1E47" stroke="#231F20" stroke-miterlimit="10" cx="630" cy="450" r="6"/>
<circle fill="#BC1E47" stroke="#231F20" stroke-miterlimit="10" cx="657" cy="432" r="6"/>
<circle fill="#BC1E47" stroke="#231F20" stroke-miterlimit="10" cx="765" cy="333" r="6"/>
<circle fill="#BC1E47" stroke="#231F20" stroke-miterlimit="10" cx="9" cy="440.999" r="6"/>
<circle fill="#BC1E47" stroke="#231F20" stroke-miterlimit="10" cx="171" cy="468" r="6"/>
<circle fill="#BC1E47" stroke="#231F20" stroke-miterlimit="10" cx="873" cy="440.999" r="6"/>
<circle fill="#BC1E47" stroke="#231F20" stroke-miterlimit="10" cx="711" cy="414" r="6"/>
</svg>
