<?xml version="1.0" encoding="utf-8"?>
<!-- Generator: Adobe Illustrator 15.1.0, SVG Export Plug-In . SVG Version: 6.00 Build 0)  -->
<!DOCTYPE svg PUBLIC "-//W3C//DTD SVG 1.1//EN" "http://www.w3.org/Graphics/SVG/1.1/DTD/svg11.dtd">
<svg version="1.1" id="Layer_1" xmlns="http://www.w3.org/2000/svg" xmlns:xlink="http://www.w3.org/1999/xlink" x="0px" y="0px"
	 width="671px" height="242px" viewBox="0 0 671 242" enable-background="new 0 0 671 242" xml:space="preserve">
<polygon fill="none" stroke="#000000" stroke-width="2" stroke-miterlimit="10" points="124.25,132.444 215.222,100.5 
	256.194,151.194 233.278,231.056 136.056,227.583 "/>
<polyline fill="none" stroke="#000000" stroke-width="2" stroke-miterlimit="10" points="95.778,83.139 18.694,100.5 6.889,165.778 
	59.667,205 124.25,132.444 95.778,83.139 183.972,38 215.222,100.5 "/>
<line fill="none" stroke="#000000" stroke-width="2" stroke-miterlimit="10" x1="59.667" y1="205" x2="136.056" y2="227.583"/>
<polyline fill="none" stroke="#000000" stroke-width="2" stroke-miterlimit="10" points="256.194,151.194 308.972,124.806 
	290.222,60.917 238.139,7.444 183.972,38 "/>
<polygon fill="none" stroke="#000000" stroke-width="2" stroke-miterlimit="10" points="481.155,137.035 572.127,105.091 
	613.1,155.785 590.184,235.646 492.961,232.174 "/>
<polyline fill="none" stroke="#000000" stroke-width="2" stroke-miterlimit="10" points="452.684,87.729 375.6,105.091 
	363.794,170.369 416.572,209.591 481.155,137.035 452.684,87.729 540.877,42.591 572.127,105.091 "/>
<line fill="none" stroke="#000000" stroke-width="2" stroke-miterlimit="10" x1="416.572" y1="209.591" x2="492.961" y2="232.174"/>
<polyline fill="none" stroke="#000000" stroke-width="2" stroke-miterlimit="10" points="613.1,155.785 665.877,129.396 
	647.127,65.507 595.044,12.035 540.877,42.591 "/>
<polyline fill="none" stroke="#009246" stroke-miterlimit="10" points="40.225,95.651 64.528,130.361 103.003,95.651 "/>
<polyline fill="none" stroke="#009246" stroke-miterlimit="10" points="40.225,190.552 64.528,130.361 103.474,155.785 "/>
<line fill="none" stroke="#009246" stroke-miterlimit="10" x1="11.034" y1="142.857" x2="64.528" y2="130.361"/>
<polyline fill="none" stroke="#009246" stroke-miterlimit="10" points="115.296,116.938 157.583,88 121.221,70.117 "/>
<polyline fill="none" stroke="#009246" stroke-miterlimit="10" points="179.607,113.006 157.583,88 193.972,58 "/>
<polyline fill="none" stroke="#009246" stroke-miterlimit="10" points="203,76.056 249.25,79.319 203,27.266 "/>
<polyline fill="none" stroke="#009246" stroke-miterlimit="10" points="252.181,21.861 249.25,79.319 295.623,79.319 "/>
<polyline fill="none" stroke="#009246" stroke-miterlimit="10" points="295.623,131.48 249.25,79.319 242.494,134.243 "/>
<polyline fill="none" stroke="#009246" stroke-miterlimit="10" points="155.417,121.5 193.972,170.369 226.125,113.99 "/>
<polyline fill="none" stroke="#009246" stroke-miterlimit="10" points="249.25,170.369 193.972,170.369 203,229.975 "/>
<line fill="none" stroke="#009246" stroke-miterlimit="10" x1="193.972" y1="170.369" x2="132.506" y2="198.976"/>
<polyline fill="none" stroke="#009246" stroke-miterlimit="10" points="81.996,179.915 106.889,184.672 128.956,170.369 "/>
<line fill="none" stroke="#009246" stroke-miterlimit="10" x1="106.889" y1="184.672" x2="106.889" y2="218.96"/>
<polyline fill="none" stroke="#0081CD" stroke-miterlimit="10" points="369.899,136.609 418.694,142.179 467.961,190.552 
	547.127,177.521 513.139,93.527 610.361,79.319 620.334,38 "/>
<polyline fill="none" stroke="#0081CD" stroke-miterlimit="10" points="640.312,142.179 610.361,79.319 568.044,27.266 "/>
<polyline fill="none" stroke="#0081CD" stroke-miterlimit="10" points="657.396,100.5 610.361,79.319 592.551,130.361 
	547.127,177.521 602.262,193.555 "/>
<line fill="none" stroke="#0081CD" stroke-miterlimit="10" x1="547.127" y1="234.108" x2="547.127" y2="177.521"/>
<line fill="none" stroke="#0081CD" stroke-miterlimit="10" x1="454.767" y1="220.883" x2="467.961" y2="190.552"/>
<polyline fill="none" stroke="#0081CD" stroke-miterlimit="10" points="390.953,190.552 418.694,142.179 465.56,110.027 
	513.139,93.527 500.164,63.429 "/>
<line fill="none" stroke="#0081CD" stroke-miterlimit="10" x1="418.694" y1="142.179" x2="409.602" y2="97.433"/>
<line fill="none" stroke="#BC1E47" stroke-miterlimit="10" x1="464.466" y1="155.785" x2="477.763" y2="188.938"/>
<line fill="none" stroke="#BC1E47" stroke-miterlimit="10" x1="463.061" y1="201.816" x2="490.158" y2="209.591"/>
<line fill="none" stroke="#BC1E47" stroke-miterlimit="10" x1="518.696" y1="233.093" x2="513.139" y2="183.115"/>
<line fill="none" stroke="#BC1E47" stroke-miterlimit="10" x1="484.413" y1="163.29" x2="536.474" y2="151.194"/>
<line fill="none" stroke="#BC1E47" stroke-miterlimit="10" x1="504.112" y1="128.974" x2="490.158" y2="101.497"/>
<line fill="none" stroke="#BC1E47" stroke-miterlimit="10" x1="473.63" y1="124.002" x2="434.036" y2="157.242"/>
<line fill="none" stroke="#BC1E47" stroke-miterlimit="10" x1="405.161" y1="165.778" x2="433.52" y2="190.552"/>
<line fill="none" stroke="#BC1E47" stroke-miterlimit="10" x1="439.238" y1="216.291" x2="458.873" y2="181.629"/>
<line fill="none" stroke="#BC1E47" stroke-miterlimit="10" x1="547.127" y1="209.591" x2="596.479" y2="213.707"/>
<line fill="none" stroke="#BC1E47" stroke-miterlimit="10" x1="575.427" y1="185.75" x2="603.377" y2="143.756"/>
<line fill="none" stroke="#BC1E47" stroke-miterlimit="10" x1="571.803" y1="151.901" x2="547.127" y2="113.869"/>
<line fill="none" stroke="#BC1E47" stroke-miterlimit="10" x1="518.696" y1="106.781" x2="566.346" y2="93.527"/>
<line fill="none" stroke="#BC1E47" stroke-miterlimit="10" x1="583.678" y1="83.219" x2="581.702" y2="116.938"/>
<line fill="none" stroke="#BC1E47" stroke-miterlimit="10" x1="600.779" y1="106.781" x2="628.134" y2="148.268"/>
<line fill="none" stroke="#BC1E47" stroke-miterlimit="10" x1="630.459" y1="121.5" x2="661.439" y2="114.276"/>
<line fill="none" stroke="#BC1E47" stroke-miterlimit="10" x1="634.699" y1="90.279" x2="634.699" y2="52.748"/>
<line fill="none" stroke="#BC1E47" stroke-miterlimit="10" x1="615.507" y1="58" x2="581.702" y2="19.562"/>
<line fill="none" stroke="#BC1E47" stroke-miterlimit="10" x1="587.006" y1="50.59" x2="551.296" y2="63.429"/>
<line fill="none" stroke="#BC1E47" stroke-miterlimit="10" x1="535.368" y1="90.279" x2="521.031" y2="52.748"/>
<line fill="none" stroke="#BC1E47" stroke-miterlimit="10" x1="507.014" y1="79.319" x2="459.814" y2="100.079"/>
<line fill="none" stroke="#BC1E47" stroke-miterlimit="10" x1="442.146" y1="126.091" x2="430.5" y2="93.527"/>
<line fill="none" stroke="#BC1E47" stroke-miterlimit="10" x1="414.148" y1="116.938" x2="372.938" y2="119.806"/>
<line fill="none" stroke="#BC1E47" stroke-miterlimit="10" x1="393.543" y1="139.308" x2="376.673" y2="179.94"/>
</svg>
