<?xml version="1.0" encoding="utf-8"?>
<!-- Generator: Adobe Illustrator 15.1.0, SVG Export Plug-In . SVG Version: 6.00 Build 0)  -->
<!DOCTYPE svg PUBLIC "-//W3C//DTD SVG 1.1//EN" "http://www.w3.org/Graphics/SVG/1.1/DTD/svg11.dtd">
<svg version="1.1" id="Layer_1" xmlns="http://www.w3.org/2000/svg" xmlns:xlink="http://www.w3.org/1999/xlink" x="0px" y="0px"
	 width="738px" height="351px" viewBox="0 0 738 351" enable-background="new 0 0 738 351" xml:space="preserve">
<polyline fill="none" stroke="#000000" stroke-miterlimit="10" points="540,198 630,180 639,198 "/>
<polyline fill="none" stroke="#000000" stroke-miterlimit="10" points="360,216 540,198 612,216 "/>
<polyline fill="none" stroke="#000000" stroke-miterlimit="10" points="180,234 360,216 468,234 "/>
<polyline fill="none" stroke="#000000" stroke-miterlimit="10" points="90,252 180,234 252,252 "/>
<polyline fill="none" stroke="#000000" stroke-miterlimit="10" points="81,270 90,252 108,270 "/>
<polyline fill="none" stroke="#000000" stroke-miterlimit="10" points="648,27 720,9 729,27 "/>
<polyline fill="none" stroke="#000000" stroke-miterlimit="10" points="540,45 648,27 702,45 "/>
<polyline fill="none" stroke="#000000" stroke-miterlimit="10" points="468,63 540,45 594,63 "/>
<polyline fill="none" stroke="#000000" stroke-miterlimit="10" points="459,81 468,63 486,81 "/>
<polyline fill="none" stroke="#000000" stroke-miterlimit="10" points="333,27 387,9 396,27 "/>
<polyline fill="none" stroke="#000000" stroke-miterlimit="10" points="279,45 333,27 369,45 "/>
<polyline fill="none" stroke="#000000" stroke-miterlimit="10" points="162,27 198,9 207,27 "/>
<polyline fill="none" stroke="#000000" stroke-miterlimit="10" points="594,234 612,216 621,234 "/>
<polyline fill="none" stroke="#000000" stroke-miterlimit="10" points="414,252 468,234 522,252 "/>
<polyline fill="none" stroke="#000000" stroke-miterlimit="10" points="198,270 252,252 306,270 "/>
<polyline fill="none" stroke="#000000" stroke-miterlimit="10" points="99,288 108,270 126,288 "/>
<polyline fill="none" stroke="#000000" stroke-miterlimit="10" points="684,63 702,45 711,63 "/>
<polyline fill="none" stroke="#000000" stroke-miterlimit="10" points="558,81 594,63 630,81 "/>
<polyline fill="none" stroke="#000000" stroke-miterlimit="10" points="477,99 486,81 504,99 "/>
<line fill="none" stroke="#000000" stroke-miterlimit="10" x1="189" y1="63" x2="180" y2="45"/>
<polyline fill="none" stroke="#000000" stroke-miterlimit="10" points="153,45 162,27 180,45 171,63 "/>
<polyline fill="none" stroke="#000000" stroke-miterlimit="10" points="72,27 81,9 90,27 "/>
<circle fill="#BC1E47" stroke="#000000" stroke-miterlimit="10" cx="9" cy="9" r="6"/>
<circle fill="#BC1E47" stroke="#000000" stroke-miterlimit="10" cx="153" cy="45" r="6"/>
<circle fill="#BC1E47" stroke="#000000" stroke-miterlimit="10" cx="162" cy="27" r="6"/>
<circle fill="#BC1E47" stroke="#000000" stroke-miterlimit="10" cx="81" cy="9" r="6"/>
<circle fill="#BC1E47" stroke="#000000" stroke-miterlimit="10" cx="72" cy="27" r="6"/>
<circle fill="#BC1E47" stroke="#000000" stroke-miterlimit="10" cx="90" cy="27" r="6"/>
<circle fill="#BC1E47" stroke="#000000" stroke-miterlimit="10" cx="180" cy="45" r="6"/>
<circle fill="#BC1E47" stroke="#000000" stroke-miterlimit="10" cx="171" cy="63" r="6"/>
<circle fill="#BC1E47" stroke="#000000" stroke-miterlimit="10" cx="189" cy="63" r="6"/>
<line fill="none" stroke="#000000" stroke-miterlimit="10" x1="585" y1="117" x2="576" y2="99"/>
<polyline fill="none" stroke="#000000" stroke-miterlimit="10" points="549,99 558,81 576,99 567,117 "/>
<circle fill="#BC1E47" stroke="#000000" stroke-miterlimit="10" cx="549" cy="99" r="6"/>
<circle fill="#BC1E47" stroke="#000000" stroke-miterlimit="10" cx="558" cy="81" r="6"/>
<circle fill="#BC1E47" stroke="#000000" stroke-miterlimit="10" cx="576" cy="99" r="6"/>
<circle fill="#BC1E47" stroke="#000000" stroke-miterlimit="10" cx="567" cy="117" r="6"/>
<circle fill="#BC1E47" stroke="#000000" stroke-miterlimit="10" cx="585" cy="117" r="6"/>
<line fill="none" stroke="#000000" stroke-miterlimit="10" x1="531" y1="135" x2="522" y2="117"/>
<polyline fill="none" stroke="#000000" stroke-miterlimit="10" points="495,117 504,99 522,117 513,135 "/>
<circle fill="#BC1E47" stroke="#000000" stroke-miterlimit="10" cx="495" cy="117" r="6"/>
<circle fill="#BC1E47" stroke="#000000" stroke-miterlimit="10" cx="504" cy="99" r="6"/>
<circle fill="#BC1E47" stroke="#000000" stroke-miterlimit="10" cx="522" cy="117" r="6"/>
<circle fill="#BC1E47" stroke="#000000" stroke-miterlimit="10" cx="513" cy="135" r="6"/>
<circle fill="#BC1E47" stroke="#000000" stroke-miterlimit="10" cx="531" cy="135" r="6"/>
<circle fill="#BC1E47" stroke="#000000" stroke-miterlimit="10" cx="207" cy="27" r="6"/>
<circle fill="#BC1E47" stroke="#000000" stroke-miterlimit="10" cx="198" cy="9" r="6"/>
<circle fill="#BC1E47" stroke="#000000" stroke-miterlimit="10" cx="333" cy="27" r="6"/>
<circle fill="#BC1E47" stroke="#000000" stroke-miterlimit="10" cx="396" cy="27" r="6"/>
<circle fill="#BC1E47" stroke="#000000" stroke-miterlimit="10" cx="387" cy="9" r="6"/>
<circle fill="#BC1E47" stroke="#000000" stroke-miterlimit="10" cx="711" cy="63" r="6"/>
<circle fill="#BC1E47" stroke="#000000" stroke-miterlimit="10" cx="702" cy="45" r="6"/>
<circle fill="#BC1E47" stroke="#000000" stroke-miterlimit="10" cx="594" cy="63" r="6"/>
<circle fill="#BC1E47" stroke="#000000" stroke-miterlimit="10" cx="729" cy="27" r="6"/>
<circle fill="#BC1E47" stroke="#000000" stroke-miterlimit="10" cx="720" cy="9" r="6"/>
<circle fill="#BC1E47" stroke="#000000" stroke-miterlimit="10" cx="468" cy="234" r="6"/>
<circle fill="#BC1E47" stroke="#000000" stroke-miterlimit="10" cx="639" cy="198" r="6"/>
<circle fill="#BC1E47" stroke="#000000" stroke-miterlimit="10" cx="630" cy="180" r="6"/>
<circle fill="#BC1E47" stroke="#000000" stroke-miterlimit="10" cx="540" cy="198" r="6"/>
<circle fill="#BC1E47" stroke="#000000" stroke-miterlimit="10" cx="621" cy="234" r="6"/>
<circle fill="#BC1E47" stroke="#000000" stroke-miterlimit="10" cx="612" cy="216" r="6"/>
<polyline fill="none" stroke="#000000" stroke-miterlimit="10" points="351,63 369,45 378,63 "/>
<polyline fill="none" stroke="#000000" stroke-miterlimit="10" points="342,81 351,63 360,81 "/>
<circle fill="#BC1E47" stroke="#000000" stroke-miterlimit="10" cx="351" cy="63" r="6"/>
<circle fill="#BC1E47" stroke="#000000" stroke-miterlimit="10" cx="342" cy="81" r="6"/>
<circle fill="#BC1E47" stroke="#000000" stroke-miterlimit="10" cx="360" cy="81" r="6"/>
<circle fill="#BC1E47" stroke="#000000" stroke-miterlimit="10" cx="378" cy="63" r="6"/>
<circle fill="#BC1E47" stroke="#000000" stroke-miterlimit="10" cx="369" cy="45" r="6"/>
<polyline fill="none" stroke="#000000" stroke-miterlimit="10" points="666,81 684,63 693,81 "/>
<polyline fill="none" stroke="#000000" stroke-miterlimit="10" points="657,99 666,81 675,99 "/>
<circle fill="#BC1E47" stroke="#000000" stroke-miterlimit="10" cx="666" cy="81" r="6"/>
<circle fill="#BC1E47" stroke="#000000" stroke-miterlimit="10" cx="657" cy="99" r="6"/>
<circle fill="#BC1E47" stroke="#000000" stroke-miterlimit="10" cx="675" cy="99" r="6"/>
<circle fill="#BC1E47" stroke="#000000" stroke-miterlimit="10" cx="693" cy="81" r="6"/>
<circle fill="#BC1E47" stroke="#000000" stroke-miterlimit="10" cx="684" cy="63" r="6"/>
<polyline fill="none" stroke="#000000" stroke-miterlimit="10" points="576,252 594,234 603,252 "/>
<circle fill="#BC1E47" stroke="#000000" stroke-miterlimit="10" cx="603" cy="252" r="6"/>
<circle fill="#BC1E47" stroke="#000000" stroke-miterlimit="10" cx="594" cy="234" r="6"/>
<polyline fill="none" stroke="#000000" stroke-miterlimit="10" points="558,270 576,252 585,270 "/>
<polyline fill="none" stroke="#000000" stroke-miterlimit="10" points="549,288 558,270 567,288 "/>
<circle fill="#BC1E47" stroke="#000000" stroke-miterlimit="10" cx="558" cy="270" r="6"/>
<circle fill="#BC1E47" stroke="#000000" stroke-miterlimit="10" cx="549" cy="288" r="6"/>
<circle fill="#BC1E47" stroke="#000000" stroke-miterlimit="10" cx="567" cy="288" r="6"/>
<circle fill="#BC1E47" stroke="#000000" stroke-miterlimit="10" cx="585" cy="270" r="6"/>
<circle fill="#BC1E47" stroke="#000000" stroke-miterlimit="10" cx="576" cy="252" r="6"/>
<polyline fill="none" stroke="#000000" stroke-miterlimit="10" points="501,270 519,252 528,270 "/>
<circle fill="#BC1E47" stroke="#000000" stroke-miterlimit="10" cx="528" cy="270" r="6"/>
<circle fill="#BC1E47" stroke="#000000" stroke-miterlimit="10" cx="519" cy="252" r="6"/>
<polyline fill="none" stroke="#000000" stroke-miterlimit="10" points="483,288 501,270 510,288 "/>
<polyline fill="none" stroke="#000000" stroke-miterlimit="10" points="474,306 483,288 492,306 "/>
<circle fill="#BC1E47" stroke="#000000" stroke-miterlimit="10" cx="483" cy="288" r="6"/>
<circle fill="#BC1E47" stroke="#000000" stroke-miterlimit="10" cx="474" cy="306" r="6"/>
<circle fill="#BC1E47" stroke="#000000" stroke-miterlimit="10" cx="492" cy="306" r="6"/>
<circle fill="#BC1E47" stroke="#000000" stroke-miterlimit="10" cx="510" cy="288" r="6"/>
<circle fill="#BC1E47" stroke="#000000" stroke-miterlimit="10" cx="501" cy="270" r="6"/>
<polyline fill="none" stroke="#000000" stroke-miterlimit="10" points="612,99 630,81 639,99 "/>
<polyline fill="none" stroke="#000000" stroke-miterlimit="10" points="603,117 612,99 621,117 "/>
<circle fill="#BC1E47" stroke="#000000" stroke-miterlimit="10" cx="612" cy="99" r="6"/>
<circle fill="#BC1E47" stroke="#000000" stroke-miterlimit="10" cx="603" cy="117" r="6"/>
<circle fill="#BC1E47" stroke="#000000" stroke-miterlimit="10" cx="621" cy="117" r="6"/>
<circle fill="#BC1E47" stroke="#000000" stroke-miterlimit="10" cx="639" cy="99" r="6"/>
<circle fill="#BC1E47" stroke="#000000" stroke-miterlimit="10" cx="630" cy="81" r="6"/>
<polyline fill="none" stroke="#000000" stroke-miterlimit="10" points="270,288 306,270 342,288 "/>
<line fill="none" stroke="#000000" stroke-miterlimit="10" x1="297" y1="324" x2="288" y2="306"/>
<polyline fill="none" stroke="#000000" stroke-miterlimit="10" points="261,306 270,288 288,306 279,324 "/>
<circle fill="#BC1E47" stroke="#000000" stroke-miterlimit="10" cx="261" cy="306" r="6"/>
<circle fill="#BC1E47" stroke="#000000" stroke-miterlimit="10" cx="270" cy="288" r="6"/>
<circle fill="#BC1E47" stroke="#000000" stroke-miterlimit="10" cx="288" cy="306" r="6"/>
<circle fill="#BC1E47" stroke="#000000" stroke-miterlimit="10" cx="279" cy="324" r="6"/>
<circle fill="#BC1E47" stroke="#000000" stroke-miterlimit="10" cx="297" cy="324" r="6"/>
<circle fill="#BC1E47" stroke="#000000" stroke-miterlimit="10" cx="306" cy="270" r="6"/>
<polyline fill="none" stroke="#000000" stroke-miterlimit="10" points="324,306 342,288 351,306 "/>
<polyline fill="none" stroke="#000000" stroke-miterlimit="10" points="315,324 324,306 333,324 "/>
<circle fill="#BC1E47" stroke="#000000" stroke-miterlimit="10" cx="324" cy="306" r="6"/>
<circle fill="#BC1E47" stroke="#000000" stroke-miterlimit="10" cx="315" cy="324" r="6"/>
<circle fill="#BC1E47" stroke="#000000" stroke-miterlimit="10" cx="333" cy="324" r="6"/>
<circle fill="#BC1E47" stroke="#000000" stroke-miterlimit="10" cx="351" cy="306" r="6"/>
<circle fill="#BC1E47" stroke="#000000" stroke-miterlimit="10" cx="342" cy="288" r="6"/>
<polyline fill="none" stroke="#000000" stroke-miterlimit="10" points="378,270 414,252 450,270 "/>
<line fill="none" stroke="#000000" stroke-miterlimit="10" x1="405" y1="306" x2="396" y2="288"/>
<polyline fill="none" stroke="#000000" stroke-miterlimit="10" points="369,288 378,270 396,288 387,306 "/>
<circle fill="#BC1E47" stroke="#000000" stroke-miterlimit="10" cx="369" cy="288" r="6"/>
<circle fill="#BC1E47" stroke="#000000" stroke-miterlimit="10" cx="378" cy="270" r="6"/>
<circle fill="#BC1E47" stroke="#000000" stroke-miterlimit="10" cx="396" cy="288" r="6"/>
<circle fill="#BC1E47" stroke="#000000" stroke-miterlimit="10" cx="387" cy="306" r="6"/>
<circle fill="#BC1E47" stroke="#000000" stroke-miterlimit="10" cx="405" cy="306" r="6"/>
<circle fill="#BC1E47" stroke="#000000" stroke-miterlimit="10" cx="414" cy="252" r="6"/>
<polyline fill="none" stroke="#000000" stroke-miterlimit="10" points="432,288 450,270 459,288 "/>
<polyline fill="none" stroke="#000000" stroke-miterlimit="10" points="423,306 432,288 441,306 "/>
<circle fill="#BC1E47" stroke="#000000" stroke-miterlimit="10" cx="432" cy="288" r="6"/>
<circle fill="#BC1E47" stroke="#000000" stroke-miterlimit="10" cx="423" cy="306" r="6"/>
<circle fill="#BC1E47" stroke="#000000" stroke-miterlimit="10" cx="441" cy="306" r="6"/>
<circle fill="#BC1E47" stroke="#000000" stroke-miterlimit="10" cx="459" cy="288" r="6"/>
<circle fill="#BC1E47" stroke="#000000" stroke-miterlimit="10" cx="450" cy="270" r="6"/>
<circle fill="#BC1E47" stroke="#000000" stroke-miterlimit="10" cx="99" cy="288" r="6"/>
<circle fill="#BC1E47" stroke="#000000" stroke-miterlimit="10" cx="108" cy="270" r="6"/>
<circle fill="#BC1E47" stroke="#000000" stroke-miterlimit="10" cx="252" cy="252" r="6"/>
<circle fill="#BC1E47" stroke="#000000" stroke-miterlimit="10" cx="477" cy="99" r="6"/>
<circle fill="#BC1E47" stroke="#000000" stroke-miterlimit="10" cx="486" cy="81" r="6"/>
<polyline fill="none" stroke="#000000" stroke-miterlimit="10" points="270,63 279,45 297,63 "/>
<line fill="none" stroke="#000000" stroke-miterlimit="10" x1="324" y1="99" x2="315" y2="81"/>
<polyline fill="none" stroke="#000000" stroke-miterlimit="10" points="288,81 297,63 315,81 306,99 "/>
<circle fill="#BC1E47" stroke="#000000" stroke-miterlimit="10" cx="288" cy="81" r="6"/>
<circle fill="#BC1E47" stroke="#000000" stroke-miterlimit="10" cx="297" cy="63" r="6"/>
<circle fill="#BC1E47" stroke="#000000" stroke-miterlimit="10" cx="315" cy="81" r="6"/>
<circle fill="#BC1E47" stroke="#000000" stroke-miterlimit="10" cx="306" cy="99" r="6"/>
<circle fill="#BC1E47" stroke="#000000" stroke-miterlimit="10" cx="324" cy="99" r="6"/>
<circle fill="#BC1E47" stroke="#000000" stroke-miterlimit="10" cx="270" cy="63" r="6"/>
<circle fill="#BC1E47" stroke="#000000" stroke-miterlimit="10" cx="279" cy="45" r="6"/>
<polyline fill="none" stroke="#000000" stroke-miterlimit="10" points="189,288 198,270 216,288 "/>
<line fill="none" stroke="#000000" stroke-miterlimit="10" x1="243" y1="324" x2="234" y2="306"/>
<polyline fill="none" stroke="#000000" stroke-miterlimit="10" points="207,306 216,288 234,306 225,324 "/>
<circle fill="#BC1E47" stroke="#000000" stroke-miterlimit="10" cx="207" cy="306" r="6"/>
<circle fill="#BC1E47" stroke="#000000" stroke-miterlimit="10" cx="216" cy="288" r="6"/>
<circle fill="#BC1E47" stroke="#000000" stroke-miterlimit="10" cx="234" cy="306" r="6"/>
<circle fill="#BC1E47" stroke="#000000" stroke-miterlimit="10" cx="225" cy="324" r="6"/>
<circle fill="#BC1E47" stroke="#000000" stroke-miterlimit="10" cx="243" cy="324" r="6"/>
<circle fill="#BC1E47" stroke="#000000" stroke-miterlimit="10" cx="189" cy="288" r="6"/>
<circle fill="#BC1E47" stroke="#000000" stroke-miterlimit="10" cx="198" cy="270" r="6"/>
<polyline fill="none" stroke="#000000" stroke-miterlimit="10" points="117,306 126,288 144,306 "/>
<line fill="none" stroke="#000000" stroke-miterlimit="10" x1="171" y1="342" x2="162" y2="324"/>
<polyline fill="none" stroke="#000000" stroke-miterlimit="10" points="135,324 144,306 162,324 153,342 "/>
<circle fill="#BC1E47" stroke="#000000" stroke-miterlimit="10" cx="135" cy="324" r="6"/>
<circle fill="#BC1E47" stroke="#000000" stroke-miterlimit="10" cx="144" cy="306" r="6"/>
<circle fill="#BC1E47" stroke="#000000" stroke-miterlimit="10" cx="162" cy="324" r="6"/>
<circle fill="#BC1E47" stroke="#000000" stroke-miterlimit="10" cx="153" cy="342" r="6"/>
<circle fill="#BC1E47" stroke="#000000" stroke-miterlimit="10" cx="171" cy="342" r="6"/>
<circle fill="#BC1E47" stroke="#000000" stroke-miterlimit="10" cx="117" cy="306" r="6"/>
<circle fill="#BC1E47" stroke="#000000" stroke-miterlimit="10" cx="126" cy="288" r="6"/>
<circle fill="#BC1E47" stroke="#000000" stroke-miterlimit="10" cx="459" cy="81" r="6"/>
<circle fill="#BC1E47" stroke="#000000" stroke-miterlimit="10" cx="468" cy="63" r="6"/>
<circle fill="#BC1E47" stroke="#000000" stroke-miterlimit="10" cx="540" cy="45" r="6"/>
<circle fill="#BC1E47" stroke="#000000" stroke-miterlimit="10" cx="648" cy="27" r="6"/>
<circle fill="#BC1E47" stroke="#000000" stroke-miterlimit="10" cx="81" cy="270" r="6"/>
<circle fill="#BC1E47" stroke="#000000" stroke-miterlimit="10" cx="90" cy="252" r="6"/>
<circle fill="#BC1E47" stroke="#000000" stroke-miterlimit="10" cx="180" cy="234" r="6"/>
<circle fill="#BC1E47" stroke="#000000" stroke-miterlimit="10" cx="360" cy="216" r="6"/>
<path fill="none" stroke="#000000" stroke-miterlimit="10" d="M666,360"/>
</svg>
