<svg xmlns="http://www.w3.org/2000/svg" width="738" height="351">
    <path fill="none" stroke="#000" stroke-miterlimit="10" d="M540 198l90-18 9 18M360 216l180-18 72 18M180 234l180-18 108 18M90 252l90-18 72 18M81 270l9-18 18 18M648 27l72-18 9 18M540 45l108-18 54 18M468 63l72-18 54 18M459 81l9-18 18 18M333 27l54-18 9 18M279 45l54-18 36 18M162 27l36-18 9 18M594 234l18-18 9 18M414 252l54-18 54 18M198 270l54-18 54 18M99 288l9-18 18 18M684 63l18-18 9 18M558 81l36-18 36 18M477 99l9-18 18 18M189 63l-9-18M153 45l9-18 18 18-9 18M72 27l9-18 9 18"/>
    <circle fill="#BC1E47" stroke="#000" stroke-miterlimit="10" cx="9" cy="9" r="6"/>
    <circle fill="#BC1E47" stroke="#000" stroke-miterlimit="10" cx="153" cy="45" r="6"/>
    <circle fill="#BC1E47" stroke="#000" stroke-miterlimit="10" cx="162" cy="27" r="6"/>
    <circle fill="#BC1E47" stroke="#000" stroke-miterlimit="10" cx="81" cy="9" r="6"/>
    <circle fill="#BC1E47" stroke="#000" stroke-miterlimit="10" cx="72" cy="27" r="6"/>
    <circle fill="#BC1E47" stroke="#000" stroke-miterlimit="10" cx="90" cy="27" r="6"/>
    <circle fill="#BC1E47" stroke="#000" stroke-miterlimit="10" cx="180" cy="45" r="6"/>
    <circle fill="#BC1E47" stroke="#000" stroke-miterlimit="10" cx="171" cy="63" r="6"/>
    <circle fill="#BC1E47" stroke="#000" stroke-miterlimit="10" cx="189" cy="63" r="6"/>
    <path fill="none" stroke="#000" stroke-miterlimit="10" d="M585 117l-9-18M549 99l9-18 18 18-9 18"/>
    <circle fill="#BC1E47" stroke="#000" stroke-miterlimit="10" cx="549" cy="99" r="6"/>
    <circle fill="#BC1E47" stroke="#000" stroke-miterlimit="10" cx="558" cy="81" r="6"/>
    <circle fill="#BC1E47" stroke="#000" stroke-miterlimit="10" cx="576" cy="99" r="6"/>
    <circle fill="#BC1E47" stroke="#000" stroke-miterlimit="10" cx="567" cy="117" r="6"/>
    <circle fill="#BC1E47" stroke="#000" stroke-miterlimit="10" cx="585" cy="117" r="6"/>
    <path fill="none" stroke="#000" stroke-miterlimit="10" d="M531 135l-9-18M495 117l9-18 18 18-9 18"/>
    <circle fill="#BC1E47" stroke="#000" stroke-miterlimit="10" cx="495" cy="117" r="6"/>
    <circle fill="#BC1E47" stroke="#000" stroke-miterlimit="10" cx="504" cy="99" r="6"/>
    <circle fill="#BC1E47" stroke="#000" stroke-miterlimit="10" cx="522" cy="117" r="6"/>
    <circle fill="#BC1E47" stroke="#000" stroke-miterlimit="10" cx="513" cy="135" r="6"/>
    <circle fill="#BC1E47" stroke="#000" stroke-miterlimit="10" cx="531" cy="135" r="6"/>
    <circle fill="#BC1E47" stroke="#000" stroke-miterlimit="10" cx="207" cy="27" r="6"/>
    <circle fill="#BC1E47" stroke="#000" stroke-miterlimit="10" cx="198" cy="9" r="6"/>
    <circle fill="#BC1E47" stroke="#000" stroke-miterlimit="10" cx="333" cy="27" r="6"/>
    <circle fill="#BC1E47" stroke="#000" stroke-miterlimit="10" cx="396" cy="27" r="6"/>
    <circle fill="#BC1E47" stroke="#000" stroke-miterlimit="10" cx="387" cy="9" r="6"/>
    <circle fill="#BC1E47" stroke="#000" stroke-miterlimit="10" cx="711" cy="63" r="6"/>
    <circle fill="#BC1E47" stroke="#000" stroke-miterlimit="10" cx="702" cy="45" r="6"/>
    <circle fill="#BC1E47" stroke="#000" stroke-miterlimit="10" cx="594" cy="63" r="6"/>
    <circle fill="#BC1E47" stroke="#000" stroke-miterlimit="10" cx="729" cy="27" r="6"/>
    <circle fill="#BC1E47" stroke="#000" stroke-miterlimit="10" cx="720" cy="9" r="6"/>
    <circle fill="#BC1E47" stroke="#000" stroke-miterlimit="10" cx="468" cy="234" r="6"/>
    <circle fill="#BC1E47" stroke="#000" stroke-miterlimit="10" cx="639" cy="198" r="6"/>
    <circle fill="#BC1E47" stroke="#000" stroke-miterlimit="10" cx="630" cy="180" r="6"/>
    <circle fill="#BC1E47" stroke="#000" stroke-miterlimit="10" cx="540" cy="198" r="6"/>
    <circle fill="#BC1E47" stroke="#000" stroke-miterlimit="10" cx="621" cy="234" r="6"/>
    <circle fill="#BC1E47" stroke="#000" stroke-miterlimit="10" cx="612" cy="216" r="6"/>
    <path fill="none" stroke="#000" stroke-miterlimit="10" d="M351 63l18-18 9 18M342 81l9-18 9 18"/>
    <circle fill="#BC1E47" stroke="#000" stroke-miterlimit="10" cx="351" cy="63" r="6"/>
    <circle fill="#BC1E47" stroke="#000" stroke-miterlimit="10" cx="342" cy="81" r="6"/>
    <circle fill="#BC1E47" stroke="#000" stroke-miterlimit="10" cx="360" cy="81" r="6"/>
    <circle fill="#BC1E47" stroke="#000" stroke-miterlimit="10" cx="378" cy="63" r="6"/>
    <circle fill="#BC1E47" stroke="#000" stroke-miterlimit="10" cx="369" cy="45" r="6"/>
    <path fill="none" stroke="#000" stroke-miterlimit="10" d="M666 81l18-18 9 18M657 99l9-18 9 18"/>
    <circle fill="#BC1E47" stroke="#000" stroke-miterlimit="10" cx="666" cy="81" r="6"/>
    <circle fill="#BC1E47" stroke="#000" stroke-miterlimit="10" cx="657" cy="99" r="6"/>
    <circle fill="#BC1E47" stroke="#000" stroke-miterlimit="10" cx="675" cy="99" r="6"/>
    <circle fill="#BC1E47" stroke="#000" stroke-miterlimit="10" cx="693" cy="81" r="6"/>
    <circle fill="#BC1E47" stroke="#000" stroke-miterlimit="10" cx="684" cy="63" r="6"/>
    <path fill="none" stroke="#000" stroke-miterlimit="10" d="M576 252l18-18 9 18"/>
    <circle fill="#BC1E47" stroke="#000" stroke-miterlimit="10" cx="603" cy="252" r="6"/>
    <circle fill="#BC1E47" stroke="#000" stroke-miterlimit="10" cx="594" cy="234" r="6"/>
    <path fill="none" stroke="#000" stroke-miterlimit="10" d="M558 270l18-18 9 18M549 288l9-18 9 18"/>
    <circle fill="#BC1E47" stroke="#000" stroke-miterlimit="10" cx="558" cy="270" r="6"/>
    <circle fill="#BC1E47" stroke="#000" stroke-miterlimit="10" cx="549" cy="288" r="6"/>
    <circle fill="#BC1E47" stroke="#000" stroke-miterlimit="10" cx="567" cy="288" r="6"/>
    <circle fill="#BC1E47" stroke="#000" stroke-miterlimit="10" cx="585" cy="270" r="6"/>
    <circle fill="#BC1E47" stroke="#000" stroke-miterlimit="10" cx="576" cy="252" r="6"/>
    <path fill="none" stroke="#000" stroke-miterlimit="10" d="M501 270l18-18 9 18"/>
    <circle fill="#BC1E47" stroke="#000" stroke-miterlimit="10" cx="528" cy="270" r="6"/>
    <circle fill="#BC1E47" stroke="#000" stroke-miterlimit="10" cx="519" cy="252" r="6"/>
    <path fill="none" stroke="#000" stroke-miterlimit="10" d="M483 288l18-18 9 18M474 306l9-18 9 18"/>
    <circle fill="#BC1E47" stroke="#000" stroke-miterlimit="10" cx="483" cy="288" r="6"/>
    <circle fill="#BC1E47" stroke="#000" stroke-miterlimit="10" cx="474" cy="306" r="6"/>
    <circle fill="#BC1E47" stroke="#000" stroke-miterlimit="10" cx="492" cy="306" r="6"/>
    <circle fill="#BC1E47" stroke="#000" stroke-miterlimit="10" cx="510" cy="288" r="6"/>
    <circle fill="#BC1E47" stroke="#000" stroke-miterlimit="10" cx="501" cy="270" r="6"/>
    <path fill="none" stroke="#000" stroke-miterlimit="10" d="M612 99l18-18 9 18M603 117l9-18 9 18"/>
    <circle fill="#BC1E47" stroke="#000" stroke-miterlimit="10" cx="612" cy="99" r="6"/>
    <circle fill="#BC1E47" stroke="#000" stroke-miterlimit="10" cx="603" cy="117" r="6"/>
    <circle fill="#BC1E47" stroke="#000" stroke-miterlimit="10" cx="621" cy="117" r="6"/>
    <circle fill="#BC1E47" stroke="#000" stroke-miterlimit="10" cx="639" cy="99" r="6"/>
    <circle fill="#BC1E47" stroke="#000" stroke-miterlimit="10" cx="630" cy="81" r="6"/>
    <path fill="none" stroke="#000" stroke-miterlimit="10" d="M270 288l36-18 36 18M297 324l-9-18M261 306l9-18 18 18-9 18"/>
    <circle fill="#BC1E47" stroke="#000" stroke-miterlimit="10" cx="261" cy="306" r="6"/>
    <circle fill="#BC1E47" stroke="#000" stroke-miterlimit="10" cx="270" cy="288" r="6"/>
    <circle fill="#BC1E47" stroke="#000" stroke-miterlimit="10" cx="288" cy="306" r="6"/>
    <circle fill="#BC1E47" stroke="#000" stroke-miterlimit="10" cx="279" cy="324" r="6"/>
    <circle fill="#BC1E47" stroke="#000" stroke-miterlimit="10" cx="297" cy="324" r="6"/>
    <circle fill="#BC1E47" stroke="#000" stroke-miterlimit="10" cx="306" cy="270" r="6"/>
    <path fill="none" stroke="#000" stroke-miterlimit="10" d="M324 306l18-18 9 18M315 324l9-18 9 18"/>
    <circle fill="#BC1E47" stroke="#000" stroke-miterlimit="10" cx="324" cy="306" r="6"/>
    <circle fill="#BC1E47" stroke="#000" stroke-miterlimit="10" cx="315" cy="324" r="6"/>
    <circle fill="#BC1E47" stroke="#000" stroke-miterlimit="10" cx="333" cy="324" r="6"/>
    <circle fill="#BC1E47" stroke="#000" stroke-miterlimit="10" cx="351" cy="306" r="6"/>
    <circle fill="#BC1E47" stroke="#000" stroke-miterlimit="10" cx="342" cy="288" r="6"/>
    <path fill="none" stroke="#000" stroke-miterlimit="10" d="M378 270l36-18 36 18M405 306l-9-18M369 288l9-18 18 18-9 18"/>
    <circle fill="#BC1E47" stroke="#000" stroke-miterlimit="10" cx="369" cy="288" r="6"/>
    <circle fill="#BC1E47" stroke="#000" stroke-miterlimit="10" cx="378" cy="270" r="6"/>
    <circle fill="#BC1E47" stroke="#000" stroke-miterlimit="10" cx="396" cy="288" r="6"/>
    <circle fill="#BC1E47" stroke="#000" stroke-miterlimit="10" cx="387" cy="306" r="6"/>
    <circle fill="#BC1E47" stroke="#000" stroke-miterlimit="10" cx="405" cy="306" r="6"/>
    <circle fill="#BC1E47" stroke="#000" stroke-miterlimit="10" cx="414" cy="252" r="6"/>
    <path fill="none" stroke="#000" stroke-miterlimit="10" d="M432 288l18-18 9 18M423 306l9-18 9 18"/>
    <circle fill="#BC1E47" stroke="#000" stroke-miterlimit="10" cx="432" cy="288" r="6"/>
    <circle fill="#BC1E47" stroke="#000" stroke-miterlimit="10" cx="423" cy="306" r="6"/>
    <circle fill="#BC1E47" stroke="#000" stroke-miterlimit="10" cx="441" cy="306" r="6"/>
    <circle fill="#BC1E47" stroke="#000" stroke-miterlimit="10" cx="459" cy="288" r="6"/>
    <circle fill="#BC1E47" stroke="#000" stroke-miterlimit="10" cx="450" cy="270" r="6"/>
    <circle fill="#BC1E47" stroke="#000" stroke-miterlimit="10" cx="99" cy="288" r="6"/>
    <circle fill="#BC1E47" stroke="#000" stroke-miterlimit="10" cx="108" cy="270" r="6"/>
    <circle fill="#BC1E47" stroke="#000" stroke-miterlimit="10" cx="252" cy="252" r="6"/>
    <circle fill="#BC1E47" stroke="#000" stroke-miterlimit="10" cx="477" cy="99" r="6"/>
    <circle fill="#BC1E47" stroke="#000" stroke-miterlimit="10" cx="486" cy="81" r="6"/>
    <path fill="none" stroke="#000" stroke-miterlimit="10" d="M270 63l9-18 18 18M324 99l-9-18M288 81l9-18 18 18-9 18"/>
    <circle fill="#BC1E47" stroke="#000" stroke-miterlimit="10" cx="288" cy="81" r="6"/>
    <circle fill="#BC1E47" stroke="#000" stroke-miterlimit="10" cx="297" cy="63" r="6"/>
    <circle fill="#BC1E47" stroke="#000" stroke-miterlimit="10" cx="315" cy="81" r="6"/>
    <circle fill="#BC1E47" stroke="#000" stroke-miterlimit="10" cx="306" cy="99" r="6"/>
    <circle fill="#BC1E47" stroke="#000" stroke-miterlimit="10" cx="324" cy="99" r="6"/>
    <circle fill="#BC1E47" stroke="#000" stroke-miterlimit="10" cx="270" cy="63" r="6"/>
    <circle fill="#BC1E47" stroke="#000" stroke-miterlimit="10" cx="279" cy="45" r="6"/>
    <path fill="none" stroke="#000" stroke-miterlimit="10" d="M189 288l9-18 18 18M243 324l-9-18M207 306l9-18 18 18-9 18"/>
    <circle fill="#BC1E47" stroke="#000" stroke-miterlimit="10" cx="207" cy="306" r="6"/>
    <circle fill="#BC1E47" stroke="#000" stroke-miterlimit="10" cx="216" cy="288" r="6"/>
    <circle fill="#BC1E47" stroke="#000" stroke-miterlimit="10" cx="234" cy="306" r="6"/>
    <circle fill="#BC1E47" stroke="#000" stroke-miterlimit="10" cx="225" cy="324" r="6"/>
    <circle fill="#BC1E47" stroke="#000" stroke-miterlimit="10" cx="243" cy="324" r="6"/>
    <circle fill="#BC1E47" stroke="#000" stroke-miterlimit="10" cx="189" cy="288" r="6"/>
    <circle fill="#BC1E47" stroke="#000" stroke-miterlimit="10" cx="198" cy="270" r="6"/>
    <path fill="none" stroke="#000" stroke-miterlimit="10" d="M117 306l9-18 18 18M171 342l-9-18M135 324l9-18 18 18-9 18"/>
    <circle fill="#BC1E47" stroke="#000" stroke-miterlimit="10" cx="135" cy="324" r="6"/>
    <circle fill="#BC1E47" stroke="#000" stroke-miterlimit="10" cx="144" cy="306" r="6"/>
    <circle fill="#BC1E47" stroke="#000" stroke-miterlimit="10" cx="162" cy="324" r="6"/>
    <circle fill="#BC1E47" stroke="#000" stroke-miterlimit="10" cx="153" cy="342" r="6"/>
    <circle fill="#BC1E47" stroke="#000" stroke-miterlimit="10" cx="171" cy="342" r="6"/>
    <circle fill="#BC1E47" stroke="#000" stroke-miterlimit="10" cx="117" cy="306" r="6"/>
    <circle fill="#BC1E47" stroke="#000" stroke-miterlimit="10" cx="126" cy="288" r="6"/>
    <circle fill="#BC1E47" stroke="#000" stroke-miterlimit="10" cx="459" cy="81" r="6"/>
    <circle fill="#BC1E47" stroke="#000" stroke-miterlimit="10" cx="468" cy="63" r="6"/>
    <circle fill="#BC1E47" stroke="#000" stroke-miterlimit="10" cx="540" cy="45" r="6"/>
    <circle fill="#BC1E47" stroke="#000" stroke-miterlimit="10" cx="648" cy="27" r="6"/>
    <circle fill="#BC1E47" stroke="#000" stroke-miterlimit="10" cx="81" cy="270" r="6"/>
    <circle fill="#BC1E47" stroke="#000" stroke-miterlimit="10" cx="90" cy="252" r="6"/>
    <circle fill="#BC1E47" stroke="#000" stroke-miterlimit="10" cx="180" cy="234" r="6"/>
    <circle fill="#BC1E47" stroke="#000" stroke-miterlimit="10" cx="360" cy="216" r="6"/>
</svg>
