<svg xmlns="http://www.w3.org/2000/svg" width="882" height="666"><path fill="none" stroke="#009246" stroke-miterlimit="10" d="M441 333h432M306 333l135 324L9 333M576 333L441 513l432-180M441 153v180"/><path d="M451.073 251.596c4.289-4.45 7.201-7.718 8.736-9.802s2.303-4.115 2.303-6.094c0-1.732-.469-3.053-1.406-3.96s-2.057-1.361-3.357-1.361c-1.605 0-2.906.586-3.902 1.756-.551.645-1.078 1.634-1.582 2.969l-.756-.158c.586-2.694 1.579-4.565 2.979-5.613s2.903-1.572 4.509-1.572c1.98 0 3.583.624 4.808 1.871 1.225 1.246 1.837 2.771 1.837 4.575 0 1.92-.663 3.77-1.987 5.55-1.325 1.779-4.202 4.947-8.634 9.502h8.071c1.125 0 1.917-.135 2.374-.403.457-.27.973-.926 1.547-1.968l.457.211-1.952 4.901h-14.045v-.404zM482.836 232.049c1.184 2.285 1.775 4.91 1.775 7.875 0 2.332-.363 4.529-1.09 6.592-1.371 3.879-3.744 5.818-7.119 5.818-2.309 0-4.207-1.049-5.695-3.146-1.594-2.238-2.391-5.279-2.391-9.123 0-3.023.533-5.625 1.6-7.805 1.441-2.965 3.656-4.447 6.645-4.447 2.695-.001 4.787 1.412 6.275 4.236zm-2.671 16.455c.645-1.885.967-4.613.967-8.185 0-2.846-.193-5.117-.58-6.815-.727-3.161-2.086-4.742-4.078-4.742s-3.357 1.628-4.096 4.883c-.387 1.733-.58 4.017-.58 6.851 0 2.658.199 4.783.598 6.376.75 2.974 2.156 4.461 4.219 4.461 1.721-.001 2.905-.943 3.55-2.829zM41.774 420.803c-1.377 1.723-3.167 2.584-5.37 2.584-2.062 0-3.94-.967-5.634-2.9s-2.54-4.506-2.54-7.717c0-4.137 1.641-7.688 4.922-10.652 2.93-2.484 6.223-3.727 9.879-3.727l.088.58c-1.465.27-2.728.637-3.788 1.1s-2.007 1.109-2.839 1.941c-.855.844-1.658 1.916-2.408 3.217s-1.266 2.59-1.547 3.867c.727-.445 1.354-.773 1.881-.984a7.568 7.568 0 0 1 2.83-.562c1.863 0 3.428.645 4.693 1.934s1.898 3.129 1.898 5.52c.001 2.142-.688 4.076-2.065 5.799zm-1.889-8.596c-.82-2.016-2.215-3.023-4.184-3.023-1.816 0-3.023.539-3.621 1.617-.352.633-.527 1.688-.527 3.164 0 1.91.407 3.779 1.222 5.607s2.101 2.742 3.858 2.742c1.395 0 2.408-.594 3.041-1.783s.949-2.582.949-4.176c0-1.558-.246-2.941-.738-4.148zM59.836 403.049c1.184 2.285 1.775 4.91 1.775 7.875 0 2.332-.363 4.529-1.09 6.592-1.371 3.879-3.744 5.818-7.119 5.818-2.309 0-4.207-1.049-5.695-3.146-1.594-2.238-2.391-5.279-2.391-9.123 0-3.023.533-5.625 1.6-7.805 1.441-2.965 3.656-4.447 6.645-4.447 2.695-.001 4.787 1.412 6.275 4.236zm-2.672 16.455c.645-1.885.967-4.613.967-8.184 0-2.846-.193-5.117-.58-6.816-.727-3.16-2.086-4.742-4.078-4.742s-3.357 1.629-4.096 4.883c-.387 1.734-.58 4.018-.58 6.852 0 2.658.199 4.783.598 6.375.75 2.975 2.156 4.461 4.219 4.461 1.722-.001 2.906-.942 3.55-2.829zM496.732 299.979c.006.029.008.097.008.202v21.164c0 .902.242 1.477.725 1.723s1.385.393 2.703.439V324h-9.932v-.527c1.418-.07 2.344-.264 2.777-.58s.65-1.002.65-2.057v-16.277c0-.562-.07-.99-.211-1.283s-.445-.439-.914-.439c-.305 0-.699.085-1.186.255s-.941.349-1.363.536v-.492l6.451-3.287h.211a.346.346 0 0 1 .081.13zM509.324 321.917c1.086.756 1.922 1.134 2.508 1.134 1.35 0 2.529-.595 3.539-1.784s1.514-2.651 1.514-4.386c0-3.035-1.619-5.221-4.857-6.557-1.797-.738-3.469-1.107-5.018-1.107-.258 0-.42-.009-.484-.026s-.143-.079-.236-.185c.023-.094.043-.173.061-.236.018-.064.039-.126.062-.185l3.834-8.403h7.537c.373 0 .664-.064.869-.193s.471-.369.799-.721l.281.246-1.354 3.252c-.047.105-.176.173-.387.202s-.439.044-.686.044h-6.812l-1.496 3.076c1.924.328 3.332.639 4.225.932 1.465.492 2.691 1.219 3.678 2.18.844.832 1.484 1.767 1.918 2.804s.65 2.136.65 3.296c0 2.59-.924 4.752-2.771 6.486s-4.186 2.602-7.014 2.602c-1.149 0-2.076-.111-2.781-.334-1.172-.363-1.76-1.014-1.76-1.951 0-.352.127-.659.379-.923s.643-.396 1.17-.396c.669-.001 1.546.377 2.632 1.133zM460.073 422.596c4.289-4.449 7.201-7.717 8.736-9.801s2.303-4.115 2.303-6.094c0-1.732-.469-3.053-1.406-3.961-.938-.906-2.057-1.361-3.357-1.361-1.605 0-2.906.586-3.902 1.756-.551.645-1.078 1.635-1.582 2.969l-.756-.158c.586-2.693 1.579-4.564 2.979-5.613 1.4-1.047 2.903-1.572 4.509-1.572 1.98 0 3.583.625 4.808 1.871s1.837 2.771 1.837 4.576c0 1.92-.663 3.77-1.987 5.549s-4.202 4.947-8.634 9.502h8.071c1.125 0 1.917-.135 2.374-.402.457-.27.973-.926 1.547-1.969l.457.211-1.952 4.901h-14.045v-.404zM482.324 420.918c1.086.756 1.922 1.133 2.508 1.133 1.35 0 2.529-.594 3.539-1.783s1.514-2.652 1.514-4.387c0-3.035-1.619-5.221-4.857-6.557-1.797-.738-3.468-1.107-5.017-1.107-.258 0-.42-.008-.484-.025s-.144-.08-.237-.186c.023-.094.044-.172.062-.236s.038-.125.062-.184l3.834-8.404h7.537c.373 0 .664-.064.869-.193s.471-.369.799-.721l.281.246-1.354 3.252c-.047.105-.176.174-.387.203s-.439.043-.686.043h-6.812l-1.496 3.076c1.923.328 3.332.639 4.224.932 1.465.492 2.691 1.219 3.678 2.18.844.832 1.484 1.768 1.918 2.805s.65 2.135.65 3.295c0 2.59-.924 4.752-2.771 6.486s-4.186 2.602-7.014 2.602c-1.149 0-2.077-.111-2.781-.334-1.173-.363-1.76-1.014-1.76-1.951 0-.352.126-.658.378-.922s.643-.396 1.17-.396c.67-.002 1.547.377 2.633 1.133zM752.324 420.918c1.086.756 1.922 1.133 2.509 1.133 1.35 0 2.528-.594 3.538-1.783s1.514-2.652 1.514-4.387c0-3.035-1.619-5.221-4.857-6.557-1.796-.738-3.469-1.107-5.018-1.107-.258 0-.42-.008-.484-.025s-.143-.08-.236-.186c.023-.094.043-.172.061-.236s.039-.125.062-.184l3.834-8.404h7.537c.374 0 .664-.064.869-.193s.471-.369.799-.721l.281.246-1.354 3.252c-.047.105-.176.174-.387.203s-.439.043-.686.043h-6.812l-1.496 3.076c1.924.328 3.332.639 4.224.932 1.467.492 2.692 1.219 3.679 2.18.844.832 1.484 1.768 1.918 2.805s.65 2.135.65 3.295c0 2.59-.924 4.752-2.771 6.486s-4.186 2.602-7.014 2.602c-1.149 0-2.076-.111-2.781-.334-1.172-.363-1.76-1.014-1.76-1.951 0-.352.127-.658.379-.922s.643-.396 1.17-.396c.669-.002 1.546.377 2.632 1.133zM766.072 422.596c4.289-4.449 7.201-7.717 8.736-9.801s2.303-4.115 2.303-6.094c0-1.732-.469-3.053-1.406-3.961-.938-.906-2.057-1.361-3.357-1.361-1.605 0-2.906.586-3.902 1.756-.551.645-1.078 1.635-1.582 2.969l-.756-.158c.586-2.693 1.58-4.564 2.98-5.613 1.4-1.047 2.902-1.572 4.508-1.572 1.98 0 3.584.625 4.809 1.871s1.836 2.771 1.836 4.576c0 1.92-.662 3.77-1.986 5.549s-4.203 4.947-8.635 9.502h8.072c1.125 0 1.916-.135 2.373-.402.457-.27.973-.926 1.547-1.969l.457.211-1.952 4.901h-14.045v-.404zM698.354 321.952c1.061.674 1.959 1.011 2.697 1.011 1.641 0 2.859-.555 3.656-1.664.797-1.108 1.195-2.314 1.195-3.618 0-1.256-.322-2.358-.967-3.31-1.09-1.607-2.93-2.412-5.52-2.412a6.35 6.35 0 0 0-.931.053l-.035-.457c1.875-.68 3.352-1.459 4.43-2.338s1.617-2.039 1.617-3.48c0-1.277-.424-2.25-1.273-2.918s-1.82-1.002-2.91-1.002c-1.289 0-2.426.475-3.41 1.424-.539.516-1.119 1.312-1.74 2.391l-.545-.123c.469-1.781 1.342-3.205 2.619-4.271s2.754-1.6 4.43-1.6c1.793 0 3.18.492 4.158 1.477s1.467 2.121 1.467 3.41c0 1.137-.404 2.18-1.213 3.129-.457.539-1.166 1.143-2.127 1.811 1.125.48 2.027 1.043 2.707 1.688 1.277 1.23 1.916 2.789 1.916 4.676 0 2.227-.875 4.189-2.627 5.889s-4.246 2.549-7.48 2.549c-1.441 0-2.451-.214-3.031-.642s-.871-.888-.871-1.38c0-.305.098-.598.291-.879s.506-.422.939-.422c.643-.003 1.497.334 2.558 1.008zM716.354 321.952c1.061.674 1.959 1.011 2.697 1.011 1.641 0 2.859-.555 3.656-1.664.797-1.108 1.195-2.314 1.195-3.618 0-1.256-.322-2.358-.967-3.31-1.09-1.607-2.93-2.412-5.52-2.412a6.35 6.35 0 0 0-.931.053l-.035-.457c1.875-.68 3.352-1.459 4.43-2.338s1.617-2.039 1.617-3.48c0-1.277-.424-2.25-1.273-2.918s-1.82-1.002-2.91-1.002c-1.289 0-2.426.475-3.41 1.424-.539.516-1.119 1.312-1.74 2.391l-.545-.123c.469-1.781 1.342-3.205 2.619-4.271s2.754-1.6 4.43-1.6c1.793 0 3.18.492 4.158 1.477s1.467 2.121 1.467 3.41c0 1.137-.404 2.18-1.213 3.129-.457.539-1.166 1.143-2.127 1.811 1.125.48 2.027 1.043 2.707 1.688 1.277 1.23 1.916 2.789 1.916 4.676 0 2.227-.875 4.189-2.627 5.889s-4.246 2.549-7.48 2.549c-1.441 0-2.451-.214-3.031-.642s-.871-.888-.871-1.38c0-.305.098-.598.291-.879s.506-.422.939-.422c.643-.003 1.497.334 2.558 1.008z"/><path fill="none" stroke="#009246" stroke-miterlimit="10" d="M441 153V9"/><circle fill="#FEC200" stroke="#231F20" stroke-miterlimit="10" cx="441" cy="333" r="6"/><circle fill="#FEC200" stroke="#231F20" stroke-miterlimit="10" cx="873" cy="333" r="6"/><circle fill="#FEC200" stroke="#231F20" stroke-miterlimit="10" cx="576" cy="333" r="6"/><circle fill="#FEC200" stroke="#231F20" stroke-miterlimit="10" cx="306" cy="333" r="6"/><circle fill="#FEC200" stroke="#231F20" stroke-miterlimit="10" cx="9" cy="333" r="6"/><circle fill="#FEC200" stroke="#231F20" stroke-miterlimit="10" cx="441" cy="153" r="6"/><circle fill="#FEC200" stroke="#231F20" stroke-miterlimit="10" cx="441" cy="513" r="6"/><circle fill="#FEC200" stroke="#231F20" stroke-miterlimit="10" cx="441" cy="9" r="6"/><circle fill="#FEC200" stroke="#231F20" stroke-miterlimit="10" cx="441" cy="657" r="6"/><g><path d="M460.731 74.979c.006.029.009.097.009.202v21.164c0 .902.241 1.477.724 1.723s1.384.393 2.704.439V99h-9.932v-.527c1.418-.07 2.344-.264 2.777-.58s.65-1.002.65-2.057V79.559c0-.562-.07-.99-.211-1.283s-.445-.439-.914-.439c-.305 0-.7.085-1.187.255s-.94.349-1.362.536v-.492l6.451-3.287h.211a.34.34 0 0 1 .08.13zM469.072 98.596c4.289-4.45 7.201-7.718 8.736-9.802s2.303-4.115 2.303-6.094c0-1.732-.469-3.053-1.406-3.96s-2.057-1.361-3.357-1.361c-1.605 0-2.906.586-3.902 1.756-.551.645-1.078 1.634-1.582 2.969l-.756-.158c.586-2.694 1.579-4.565 2.979-5.613s2.903-1.572 4.509-1.572c1.98 0 3.583.624 4.808 1.871 1.225 1.246 1.837 2.771 1.837 4.575 0 1.92-.662 3.77-1.987 5.55-1.324 1.779-4.202 4.947-8.634 9.502h8.071c1.125 0 1.916-.135 2.373-.403.457-.27.974-.926 1.548-1.968l.457.211L483.117 99h-14.045v-.404z"/></g><g><path d="M284.353 420.952c1.061.674 1.96 1.011 2.698 1.011 1.641 0 2.859-.555 3.656-1.664.797-1.108 1.195-2.314 1.195-3.618 0-1.256-.322-2.358-.967-3.31-1.09-1.607-2.93-2.412-5.52-2.412a6.35 6.35 0 0 0-.931.053l-.035-.457c1.875-.68 3.352-1.459 4.43-2.338s1.617-2.039 1.617-3.48c0-1.277-.425-2.25-1.274-2.918s-1.819-1.002-2.909-1.002c-1.289 0-2.426.475-3.41 1.424-.539.516-1.119 1.312-1.74 2.391l-.545-.123c.469-1.781 1.342-3.205 2.619-4.271s2.754-1.6 4.43-1.6c1.793 0 3.179.492 4.157 1.477s1.468 2.121 1.468 3.41c0 1.137-.404 2.18-1.213 3.129-.457.539-1.166 1.143-2.127 1.811 1.125.48 2.027 1.043 2.707 1.688 1.277 1.23 1.916 2.789 1.916 4.676 0 2.227-.876 4.189-2.628 5.889s-4.245 2.549-7.479 2.549c-1.441 0-2.452-.214-3.032-.642s-.87-.888-.87-1.38c0-.305.097-.598.29-.879s.507-.422.94-.422c.643-.003 1.496.334 2.557 1.008zM311.467 401.845c1.406 2.057 2.109 4.351 2.109 6.882 0 1.781-.334 3.592-1.002 5.432s-1.641 3.48-2.918 4.922c-1.488 1.664-3.375 2.9-5.66 3.709-1.277.457-2.889.809-4.834 1.055l-.176-.703c1.221-.281 2.236-.58 3.046-.896 1.455-.574 2.623-1.277 3.503-2.109a14.652 14.652 0 0 0 2.984-3.964c.746-1.459 1.212-2.681 1.4-3.665l-.616.453c-.869.65-1.89 1.098-3.063 1.342a7.52 7.52 0 0 1-1.672.209c-1.995 0-3.577-.705-4.745-2.115-1.168-1.411-1.751-3.094-1.751-5.049 0-2.493.694-4.547 2.083-6.163 1.389-1.615 3.167-2.423 5.335-2.423 2.578-.002 4.571 1.026 5.977 3.083zm-3.001 10.415c.851-.445 1.335-.82 1.453-1.125.047-.117.088-.554.123-1.31s.053-1.368.053-1.837c0-2.438-.411-4.418-1.233-5.941-.822-1.523-2.026-2.285-3.611-2.285-1.151 0-2.082.521-2.792 1.564s-1.065 2.602-1.065 4.676c0 1.711.332 3.293.995 4.746s1.864 2.18 3.602 2.18c.799 0 1.624-.223 2.475-.668z"/></g></svg>