<?xml version="1.0" encoding="utf-8"?>
<!-- Generator: Adobe Illustrator 15.1.0, SVG Export Plug-In . SVG Version: 6.00 Build 0)  -->
<!DOCTYPE svg PUBLIC "-//W3C//DTD SVG 1.1//EN" "http://www.w3.org/Graphics/SVG/1.1/DTD/svg11.dtd">
<svg version="1.1" id="Layer_1" xmlns="http://www.w3.org/2000/svg" xmlns:xlink="http://www.w3.org/1999/xlink" x="0px" y="0px"
	 width="882px" height="666px" viewBox="0 0 882 666" enable-background="new 0 0 882 666" xml:space="preserve">
<polyline fill="none" stroke="#009246" stroke-miterlimit="10" points="441,333 576,333 873,333 "/>
<polyline fill="none" stroke="#009246" stroke-miterlimit="10" points="306,333 441,657 9,333 "/>
<polyline fill="none" stroke="#009246" stroke-miterlimit="10" points="576,333 441,513 873,333 "/>
<line fill="none" stroke="#009246" stroke-miterlimit="10" x1="441" y1="153" x2="441" y2="333"/>
<g>
	<path d="M451.073,251.596c4.289-4.45,7.201-7.718,8.736-9.802s2.303-4.115,2.303-6.094c0-1.732-0.469-3.053-1.406-3.96
		s-2.057-1.361-3.357-1.361c-1.605,0-2.906,0.586-3.902,1.756c-0.551,0.645-1.078,1.634-1.582,2.969l-0.756-0.158
		c0.586-2.694,1.579-4.565,2.979-5.613s2.903-1.572,4.509-1.572c1.98,0,3.583,0.624,4.808,1.871
		c1.225,1.246,1.837,2.771,1.837,4.575c0,1.92-0.663,3.77-1.987,5.55c-1.325,1.779-4.202,4.947-8.634,9.502h8.071
		c1.125,0,1.917-0.135,2.374-0.403c0.457-0.27,0.973-0.926,1.547-1.968l0.457,0.211L465.118,252h-14.045V251.596z"/>
	<path d="M482.836,232.049c1.184,2.285,1.775,4.91,1.775,7.875c0,2.332-0.363,4.529-1.09,6.592
		c-1.371,3.879-3.744,5.818-7.119,5.818c-2.309,0-4.207-1.049-5.695-3.146c-1.594-2.238-2.391-5.279-2.391-9.123
		c0-3.023,0.533-5.625,1.6-7.805c1.441-2.965,3.656-4.447,6.645-4.447C479.256,227.812,481.348,229.225,482.836,232.049z
		 M480.165,248.504c0.645-1.885,0.967-4.613,0.967-8.185c0-2.846-0.193-5.117-0.58-6.815c-0.727-3.161-2.086-4.742-4.078-4.742
		s-3.357,1.628-4.096,4.883c-0.387,1.733-0.58,4.017-0.58,6.851c0,2.658,0.199,4.783,0.598,6.376
		c0.75,2.974,2.156,4.461,4.219,4.461C478.336,251.332,479.52,250.39,480.165,248.504z"/>
</g>
<g>
	<path d="M41.774,420.803c-1.377,1.723-3.167,2.584-5.37,2.584c-2.062,0-3.94-0.967-5.634-2.9s-2.54-4.506-2.54-7.717
		c0-4.137,1.641-7.688,4.922-10.652c2.93-2.484,6.223-3.727,9.879-3.727l0.088,0.58c-1.465,0.27-2.728,0.637-3.788,1.1
		s-2.007,1.109-2.839,1.941c-0.855,0.844-1.658,1.916-2.408,3.217s-1.266,2.59-1.547,3.867c0.727-0.445,1.354-0.773,1.881-0.984
		c0.938-0.375,1.881-0.562,2.83-0.562c1.863,0,3.428,0.645,4.693,1.934s1.898,3.129,1.898,5.52
		C43.84,417.146,43.151,419.08,41.774,420.803z M39.885,412.207c-0.82-2.016-2.215-3.023-4.184-3.023
		c-1.816,0-3.023,0.539-3.621,1.617c-0.352,0.633-0.527,1.688-0.527,3.164c0,1.91,0.407,3.779,1.222,5.607s2.101,2.742,3.858,2.742
		c1.395,0,2.408-0.594,3.041-1.783s0.949-2.582,0.949-4.176C40.623,414.797,40.377,413.414,39.885,412.207z"/>
	<path d="M59.836,403.049c1.184,2.285,1.775,4.91,1.775,7.875c0,2.332-0.363,4.529-1.09,6.592c-1.371,3.879-3.744,5.818-7.119,5.818
		c-2.309,0-4.207-1.049-5.695-3.146c-1.594-2.238-2.391-5.279-2.391-9.123c0-3.023,0.533-5.625,1.6-7.805
		c1.441-2.965,3.656-4.447,6.645-4.447C56.256,398.812,58.348,400.225,59.836,403.049z M57.164,419.504
		c0.645-1.885,0.967-4.613,0.967-8.184c0-2.846-0.193-5.117-0.58-6.816c-0.727-3.16-2.086-4.742-4.078-4.742
		s-3.357,1.629-4.096,4.883c-0.387,1.734-0.58,4.018-0.58,6.852c0,2.658,0.199,4.783,0.598,6.375
		c0.75,2.975,2.156,4.461,4.219,4.461C55.336,422.332,56.52,421.391,57.164,419.504z"/>
</g>
<g>
	<path d="M496.732,299.979c0.006,0.029,0.008,0.097,0.008,0.202v21.164c0,0.902,0.242,1.477,0.725,1.723s1.385,0.393,2.703,0.439
		V324h-9.932v-0.527c1.418-0.07,2.344-0.264,2.777-0.58s0.65-1.002,0.65-2.057v-16.277c0-0.562-0.07-0.99-0.211-1.283
		s-0.445-0.439-0.914-0.439c-0.305,0-0.699,0.085-1.186,0.255s-0.941,0.349-1.363,0.536v-0.492l6.451-3.287h0.211
		C496.699,299.906,496.727,299.95,496.732,299.979z"/>
	<path d="M509.324,321.917c1.086,0.756,1.922,1.134,2.508,1.134c1.35,0,2.529-0.595,3.539-1.784s1.514-2.651,1.514-4.386
		c0-3.035-1.619-5.221-4.857-6.557c-1.797-0.738-3.469-1.107-5.018-1.107c-0.258,0-0.42-0.009-0.484-0.026s-0.143-0.079-0.236-0.185
		c0.023-0.094,0.043-0.173,0.061-0.236c0.018-0.064,0.039-0.126,0.062-0.185l3.834-8.403h7.537c0.373,0,0.664-0.064,0.869-0.193
		s0.471-0.369,0.799-0.721l0.281,0.246l-1.354,3.252c-0.047,0.105-0.176,0.173-0.387,0.202s-0.439,0.044-0.686,0.044h-6.812
		l-1.496,3.076c1.924,0.328,3.332,0.639,4.225,0.932c1.465,0.492,2.691,1.219,3.678,2.18c0.844,0.832,1.484,1.767,1.918,2.804
		s0.65,2.136,0.65,3.296c0,2.59-0.924,4.752-2.771,6.486s-4.186,2.602-7.014,2.602c-1.149,0-2.076-0.111-2.781-0.334
		c-1.172-0.363-1.76-1.014-1.76-1.951c0-0.352,0.127-0.659,0.379-0.923s0.643-0.396,1.17-0.396
		C507.361,320.783,508.238,321.161,509.324,321.917z"/>
</g>
<g>
	<path d="M460.073,422.596c4.289-4.449,7.201-7.717,8.736-9.801s2.303-4.115,2.303-6.094c0-1.732-0.469-3.053-1.406-3.961
		c-0.938-0.906-2.057-1.361-3.357-1.361c-1.605,0-2.906,0.586-3.902,1.756c-0.551,0.645-1.078,1.635-1.582,2.969l-0.756-0.158
		c0.586-2.693,1.579-4.564,2.979-5.613c1.4-1.047,2.903-1.572,4.509-1.572c1.98,0,3.583,0.625,4.808,1.871s1.837,2.771,1.837,4.576
		c0,1.92-0.663,3.77-1.987,5.549s-4.202,4.947-8.634,9.502h8.071c1.125,0,1.917-0.135,2.374-0.402
		c0.457-0.27,0.973-0.926,1.547-1.969l0.457,0.211L474.118,423h-14.045V422.596z"/>
	<path d="M482.324,420.918c1.086,0.756,1.922,1.133,2.508,1.133c1.35,0,2.529-0.594,3.539-1.783s1.514-2.652,1.514-4.387
		c0-3.035-1.619-5.221-4.857-6.557c-1.797-0.738-3.468-1.107-5.017-1.107c-0.258,0-0.42-0.008-0.484-0.025s-0.144-0.08-0.237-0.186
		c0.023-0.094,0.044-0.172,0.062-0.236s0.038-0.125,0.062-0.184l3.834-8.404h7.537c0.373,0,0.664-0.064,0.869-0.193
		s0.471-0.369,0.799-0.721l0.281,0.246l-1.354,3.252c-0.047,0.105-0.176,0.174-0.387,0.203s-0.439,0.043-0.686,0.043h-6.812
		l-1.496,3.076c1.923,0.328,3.332,0.639,4.224,0.932c1.465,0.492,2.691,1.219,3.678,2.18c0.844,0.832,1.484,1.768,1.918,2.805
		s0.65,2.135,0.65,3.295c0,2.59-0.924,4.752-2.771,6.486s-4.186,2.602-7.014,2.602c-1.149,0-2.077-0.111-2.781-0.334
		c-1.173-0.363-1.76-1.014-1.76-1.951c0-0.352,0.126-0.658,0.378-0.922s0.643-0.396,1.17-0.396
		C480.361,419.783,481.238,420.162,482.324,420.918z"/>
</g>
<g>
	<path d="M752.324,420.918c1.086,0.756,1.922,1.133,2.509,1.133c1.35,0,2.528-0.594,3.538-1.783s1.514-2.652,1.514-4.387
		c0-3.035-1.619-5.221-4.857-6.557c-1.796-0.738-3.469-1.107-5.018-1.107c-0.258,0-0.42-0.008-0.484-0.025s-0.143-0.08-0.236-0.186
		c0.023-0.094,0.043-0.172,0.061-0.236s0.039-0.125,0.062-0.184l3.834-8.404h7.537c0.374,0,0.664-0.064,0.869-0.193
		s0.471-0.369,0.799-0.721l0.281,0.246l-1.354,3.252c-0.047,0.105-0.176,0.174-0.387,0.203s-0.439,0.043-0.686,0.043h-6.812
		l-1.496,3.076c1.924,0.328,3.332,0.639,4.224,0.932c1.467,0.492,2.692,1.219,3.679,2.18c0.844,0.832,1.484,1.768,1.918,2.805
		s0.65,2.135,0.65,3.295c0,2.59-0.924,4.752-2.771,6.486s-4.186,2.602-7.014,2.602c-1.149,0-2.076-0.111-2.781-0.334
		c-1.172-0.363-1.76-1.014-1.76-1.951c0-0.352,0.127-0.658,0.379-0.922s0.643-0.396,1.17-0.396
		C750.361,419.783,751.238,420.162,752.324,420.918z"/>
	<path d="M766.072,422.596c4.289-4.449,7.201-7.717,8.736-9.801s2.303-4.115,2.303-6.094c0-1.732-0.469-3.053-1.406-3.961
		c-0.938-0.906-2.057-1.361-3.357-1.361c-1.605,0-2.906,0.586-3.902,1.756c-0.551,0.645-1.078,1.635-1.582,2.969l-0.756-0.158
		c0.586-2.693,1.58-4.564,2.98-5.613c1.4-1.047,2.902-1.572,4.508-1.572c1.98,0,3.584,0.625,4.809,1.871s1.836,2.771,1.836,4.576
		c0,1.92-0.662,3.77-1.986,5.549s-4.203,4.947-8.635,9.502h8.072c1.125,0,1.916-0.135,2.373-0.402
		c0.457-0.27,0.973-0.926,1.547-1.969l0.457,0.211L780.117,423h-14.045V422.596z"/>
</g>
<g>
	<path d="M698.354,321.952c1.061,0.674,1.959,1.011,2.697,1.011c1.641,0,2.859-0.555,3.656-1.664
		c0.797-1.108,1.195-2.314,1.195-3.618c0-1.256-0.322-2.358-0.967-3.31c-1.09-1.607-2.93-2.412-5.52-2.412
		c-0.152,0-0.299,0.003-0.439,0.009s-0.305,0.021-0.492,0.044l-0.035-0.457c1.875-0.68,3.352-1.459,4.43-2.338
		s1.617-2.039,1.617-3.48c0-1.277-0.424-2.25-1.273-2.918s-1.82-1.002-2.91-1.002c-1.289,0-2.426,0.475-3.41,1.424
		c-0.539,0.516-1.119,1.312-1.74,2.391l-0.545-0.123c0.469-1.781,1.342-3.205,2.619-4.271s2.754-1.6,4.43-1.6
		c1.793,0,3.18,0.492,4.158,1.477s1.467,2.121,1.467,3.41c0,1.137-0.404,2.18-1.213,3.129c-0.457,0.539-1.166,1.143-2.127,1.811
		c1.125,0.48,2.027,1.043,2.707,1.688c1.277,1.23,1.916,2.789,1.916,4.676c0,2.227-0.875,4.189-2.627,5.889s-4.246,2.549-7.48,2.549
		c-1.441,0-2.451-0.214-3.031-0.642s-0.871-0.888-0.871-1.38c0-0.305,0.098-0.598,0.291-0.879s0.506-0.422,0.939-0.422
		C696.439,320.941,697.293,321.278,698.354,321.952z"/>
	<path d="M716.354,321.952c1.061,0.674,1.959,1.011,2.697,1.011c1.641,0,2.859-0.555,3.656-1.664
		c0.797-1.108,1.195-2.314,1.195-3.618c0-1.256-0.322-2.358-0.967-3.31c-1.09-1.607-2.93-2.412-5.52-2.412
		c-0.152,0-0.299,0.003-0.439,0.009s-0.305,0.021-0.492,0.044l-0.035-0.457c1.875-0.68,3.352-1.459,4.43-2.338
		s1.617-2.039,1.617-3.48c0-1.277-0.424-2.25-1.273-2.918s-1.82-1.002-2.91-1.002c-1.289,0-2.426,0.475-3.41,1.424
		c-0.539,0.516-1.119,1.312-1.74,2.391l-0.545-0.123c0.469-1.781,1.342-3.205,2.619-4.271s2.754-1.6,4.43-1.6
		c1.793,0,3.18,0.492,4.158,1.477s1.467,2.121,1.467,3.41c0,1.137-0.404,2.18-1.213,3.129c-0.457,0.539-1.166,1.143-2.127,1.811
		c1.125,0.48,2.027,1.043,2.707,1.688c1.277,1.23,1.916,2.789,1.916,4.676c0,2.227-0.875,4.189-2.627,5.889s-4.246,2.549-7.48,2.549
		c-1.441,0-2.451-0.214-3.031-0.642s-0.871-0.888-0.871-1.38c0-0.305,0.098-0.598,0.291-0.879s0.506-0.422,0.939-0.422
		C714.439,320.941,715.293,321.278,716.354,321.952z"/>
</g>
<line fill="none" stroke="#009246" stroke-miterlimit="10" x1="441" y1="153" x2="441" y2="9"/>
<circle fill="#FEC200" stroke="#231F20" stroke-miterlimit="10" cx="441" cy="333" r="6"/>
<circle fill="#FEC200" stroke="#231F20" stroke-miterlimit="10" cx="873" cy="333" r="6"/>
<circle fill="#FEC200" stroke="#231F20" stroke-miterlimit="10" cx="576" cy="333" r="6"/>
<circle fill="#FEC200" stroke="#231F20" stroke-miterlimit="10" cx="306" cy="333" r="6"/>
<circle fill="#FEC200" stroke="#231F20" stroke-miterlimit="10" cx="9" cy="333" r="6"/>
<circle fill="#FEC200" stroke="#231F20" stroke-miterlimit="10" cx="441" cy="153" r="6"/>
<circle fill="#FEC200" stroke="#231F20" stroke-miterlimit="10" cx="441" cy="513" r="6"/>
<circle fill="#FEC200" stroke="#231F20" stroke-miterlimit="10" cx="441" cy="9" r="6"/>
<circle fill="#FEC200" stroke="#231F20" stroke-miterlimit="10" cx="441" cy="657" r="6"/>
<g>
	<path d="M460.731,74.979c0.006,0.029,0.009,0.097,0.009,0.202v21.164c0,0.902,0.241,1.477,0.724,1.723s1.384,0.393,2.704,0.439V99
		h-9.932v-0.527c1.418-0.07,2.344-0.264,2.777-0.58s0.65-1.002,0.65-2.057V79.559c0-0.562-0.07-0.99-0.211-1.283
		s-0.445-0.439-0.914-0.439c-0.305,0-0.7,0.085-1.187,0.255s-0.94,0.349-1.362,0.536v-0.492l6.451-3.287h0.211
		C460.699,74.906,460.726,74.95,460.731,74.979z"/>
	<path d="M469.072,98.596c4.289-4.45,7.201-7.718,8.736-9.802s2.303-4.115,2.303-6.094c0-1.732-0.469-3.053-1.406-3.96
		s-2.057-1.361-3.357-1.361c-1.605,0-2.906,0.586-3.902,1.756c-0.551,0.645-1.078,1.634-1.582,2.969l-0.756-0.158
		c0.586-2.694,1.579-4.565,2.979-5.613s2.903-1.572,4.509-1.572c1.98,0,3.583,0.624,4.808,1.871
		c1.225,1.246,1.837,2.771,1.837,4.575c0,1.92-0.662,3.77-1.987,5.55c-1.324,1.779-4.202,4.947-8.634,9.502h8.071
		c1.125,0,1.916-0.135,2.373-0.403c0.457-0.27,0.974-0.926,1.548-1.968l0.457,0.211L483.117,99h-14.045V98.596z"/>
</g>
<g>
</g>
<g>
	<path d="M284.353,420.952c1.061,0.674,1.96,1.011,2.698,1.011c1.641,0,2.859-0.555,3.656-1.664
		c0.797-1.108,1.195-2.314,1.195-3.618c0-1.256-0.322-2.358-0.967-3.31c-1.09-1.607-2.93-2.412-5.52-2.412
		c-0.152,0-0.299,0.003-0.439,0.009s-0.305,0.021-0.492,0.044l-0.035-0.457c1.875-0.68,3.352-1.459,4.43-2.338
		s1.617-2.039,1.617-3.48c0-1.277-0.425-2.25-1.274-2.918s-1.819-1.002-2.909-1.002c-1.289,0-2.426,0.475-3.41,1.424
		c-0.539,0.516-1.119,1.312-1.74,2.391l-0.545-0.123c0.469-1.781,1.342-3.205,2.619-4.271s2.754-1.6,4.43-1.6
		c1.793,0,3.179,0.492,4.157,1.477s1.468,2.121,1.468,3.41c0,1.137-0.404,2.18-1.213,3.129c-0.457,0.539-1.166,1.143-2.127,1.811
		c1.125,0.48,2.027,1.043,2.707,1.688c1.277,1.23,1.916,2.789,1.916,4.676c0,2.227-0.876,4.189-2.628,5.889
		s-4.245,2.549-7.479,2.549c-1.441,0-2.452-0.214-3.032-0.642s-0.87-0.888-0.87-1.38c0-0.305,0.097-0.598,0.29-0.879
		s0.507-0.422,0.94-0.422C282.439,419.941,283.292,420.278,284.353,420.952z"/>
	<path d="M311.467,401.845c1.406,2.057,2.109,4.351,2.109,6.882c0,1.781-0.334,3.592-1.002,5.432s-1.641,3.48-2.918,4.922
		c-1.488,1.664-3.375,2.9-5.66,3.709c-1.277,0.457-2.889,0.809-4.834,1.055l-0.176-0.703c1.221-0.281,2.236-0.58,3.046-0.896
		c1.455-0.574,2.623-1.277,3.503-2.109c1.244-1.184,2.239-2.505,2.984-3.964c0.746-1.459,1.212-2.681,1.4-3.665l-0.616,0.453
		c-0.869,0.65-1.89,1.098-3.063,1.342c-0.61,0.14-1.167,0.209-1.672,0.209c-1.995,0-3.577-0.705-4.745-2.115
		c-1.168-1.411-1.751-3.094-1.751-5.049c0-2.493,0.694-4.547,2.083-6.163c1.389-1.615,3.167-2.423,5.335-2.423
		C308.068,398.76,310.061,399.788,311.467,401.845z M308.466,412.26c0.851-0.445,1.335-0.82,1.453-1.125
		c0.047-0.117,0.088-0.554,0.123-1.31s0.053-1.368,0.053-1.837c0-2.438-0.411-4.418-1.233-5.941
		c-0.822-1.523-2.026-2.285-3.611-2.285c-1.151,0-2.082,0.521-2.792,1.564s-1.065,2.602-1.065,4.676
		c0,1.711,0.332,3.293,0.995,4.746s1.864,2.18,3.602,2.18C306.79,412.928,307.615,412.705,308.466,412.26z"/>
</g>
</svg>
