<svg xmlns="http://www.w3.org/2000/svg" width="963" height="882"><path fill="none" stroke="#000" d="M594 513V369h-72"/><path fill="none" stroke="#000" d="M594.894 297.177l-217.852 72.001L378 513h72M450 225h144M522 657H378M522 801h360l72-576-216-72M450 81H90L18 657l216 72"/><path fill="none" stroke="#000" d="M737.461 153.253L882 297l-72 432-288 72"/><path fill="none" stroke="#000" d="M738 657l-72 216-432-71.999L90 729l72-216"/><path fill="none" stroke="#000" d="M234 729L90 585l69.404-431.483L450 81"/><path fill="none" stroke="#000" d="M234 225L306 9l431.461 72.253L882 153l-72 216M450 441V297M522 657l-72-72v-72M522 441v144"/><path fill="none" stroke="#000" d="M450 225l72 72v72M378 657L234 513l144-288M594 513l-218.129 72.007M594 225l144 144-144 287.854M594 153L450 81M378 729l144 72M306.089 296.411L162 513M666 585l144-216M378 225h72M450.063 80.894l-71.999 144M234.124 224.654l-74.595-71.483M306.119 296.53l-72.001-71.999M378.089 368.411l-72-72M449.963 440.197L450 513M377.872 584.113l71.999-143.999M161.765 512.05l216.001 72M233.526 727.99l.001 71.999M378 729l-144.597-1.005M377.281 656.025L378 729M522.099 584.929l-144.928 71.147M522 656.75v-71.749M594 656.854l-72-.104M522 801l72-144.146M736.862 656.589l71.998 71.996M666 585l70.866 71.709M594 513l72 72M521.024 441.045L522 369M593.116 297.129l-72.003 143.998M809.222 369.193L593.22 297.192M737.461 153.253l-.542-71.747M593.585 153.246l143.998.002M593.704 225.216v-71.999M449.899 297.072l143.917-71.907M449.915 225.091L450 297M234 728.999l288 72M738 153L450 81"/><path fill="none" stroke="#000" d="M234 225l-72 288 144 144 216 72 216.001-72.001L810 369 666 225l-216-72-213.404 71.483"/><path fill="none" stroke="#000" d="M378 369l143.999 72L594 513l-144-72z"/><path fill="none" stroke="#000" d="M378 656.999L306 441l144-216M594 224.999L666 441 522 657"/><circle fill="#0081CD" stroke="#000" cx="450" cy="225" r="9"/><circle fill="#0081CD" stroke="#000" cx="450" cy="81" r="8.999"/><circle fill="#0081CD" stroke="#000" cx="234" cy="225" r="8.999"/><circle fill="#0081CD" stroke="#000" cx="378.001" cy="369" r="8.999"/><path fill="#0081CD" stroke="#000" d="M448.245 432.174a8.998 8.998 0 0 1 10.582 7.068 9 9 0 0 1-7.072 10.584c-4.875.971-9.609-2.196-10.582-7.074a8.993 8.993 0 0 1 7.072-10.578zM157 505.517a9 9 0 1 1-2.485 12.48c-2.759-4.13-1.649-9.72 2.485-12.48zM226.518 724c2.763-4.132 8.35-5.244 12.482-2.482a8.996 8.996 0 0 1 2.483 12.483c-2.76 4.134-8.35 5.243-12.485 2.479-4.13-2.757-5.243-8.345-2.48-12.48zM369.174 655.244c.968-4.875 5.707-8.041 10.579-7.071a8.997 8.997 0 0 1 7.072 10.584c-.968 4.878-5.707 8.039-10.585 7.069a8.995 8.995 0 0 1-7.066-10.582zM513.174 658.755c-.971-4.874 2.196-9.611 7.07-10.582a8.996 8.996 0 0 1 10.582 7.073c.971 4.874-2.195 9.611-7.074 10.582-4.872.969-9.607-2.194-10.578-7.073zM514.518 805.998A9 9 0 0 1 529.482 796c2.763 4.133 1.65 9.721-2.487 12.484a8.99 8.99 0 0 1-12.477-2.486zM733 664.482c-4.132-2.76-5.244-8.348-2.482-12.482a8.999 8.999 0 1 1 14.962 10.002c-2.757 4.131-8.343 5.244-12.48 2.48zM592.245 521.827a9 9 0 0 1 3.513-17.654 8.997 8.997 0 0 1 7.066 10.588c-.967 4.872-5.703 8.037-10.579 7.066zM523.756 449.827c-4.873.97-9.611-2.194-10.583-7.069a9.002 9.002 0 0 1 7.075-10.585c4.877-.97 9.609 2.197 10.578 7.075a8.992 8.992 0 0 1-7.07 10.579zM815 376.484c-4.131 2.761-9.72 1.649-12.484-2.483-2.761-4.132-1.65-9.721 2.488-12.486 4.131-2.761 9.717-1.648 12.479 2.49A8.992 8.992 0 0 1 815 376.484zM745.482 158.002c-2.76 4.131-8.348 5.242-12.483 2.482-4.132-2.761-5.244-8.35-2.481-12.487A8.994 8.994 0 0 1 743 145.521c4.133 2.758 5.246 8.343 2.482 12.481zM602.826 226.756c-.967 4.873-5.705 8.038-10.582 7.07-4.875-.969-8.041-5.706-7.071-10.586a8.991 8.991 0 0 1 10.583-7.064 8.989 8.989 0 0 1 7.07 10.58z"/><circle fill="#FEC200" stroke="#000" cx="378.001" cy="225" r="9"/><path fill="#FEC200" stroke="#000" d="M165.767 147.153c3.518 3.514 3.516 9.212.002 12.727-3.515 3.514-9.216 3.516-12.727 0-3.518-3.514-3.516-9.214-.002-12.728 3.513-3.514 9.213-3.514 12.727.001z"/><circle fill="#FEC200" stroke="#000" cx="306" cy="297.001" r="8.998"/><path fill="#FEC200" stroke="#000" d="M450.002 504.002C454.972 504 459 508.029 459 513s-4.028 9-8.998 8.998c-4.973.002-9-4.027-9.002-9-.002-4.969 4.028-8.998 9.002-8.996z"/><circle fill="#FEC200" stroke="#000" cx="378" cy="585" r="8.999"/><path fill="#FEC200" stroke="#000" d="M227.637 794.635c3.516-3.512 9.214-3.514 12.727 0a8.999 8.999 0 0 1 0 12.729c-3.516 3.518-9.214 3.514-12.729-.002-3.514-3.512-3.514-9.212.002-12.727zM369.686 725.557a8.997 8.997 0 0 1 11.757-4.869 8.993 8.993 0 0 1 4.871 11.758c-1.9 4.594-7.166 6.771-11.761 4.869a8.997 8.997 0 0 1-4.867-11.758zM513.001 585a8.997 8.997 0 0 1 8.997-8.999 8.997 8.997 0 0 1 9.002 9c.001 4.974-4.03 8.999-9.003 8.999a8.993 8.993 0 0 1-8.996-9zM585.686 660.442c-1.902-4.591.279-9.855 4.869-11.758a8.997 8.997 0 0 1 11.76 4.873c1.902 4.59-.278 9.854-4.873 11.759a8.997 8.997 0 0 1-11.756-4.874zM803.637 735.362c-3.518-3.513-3.514-9.211-.002-12.727a9 9 0 0 1 12.729 0 8.997 8.997 0 0 1-.004 12.73 8.99 8.99 0 0 1-12.723-.003zM662.557 593.314c-4.592-1.901-6.772-7.166-4.871-11.76 1.9-4.592 7.164-6.771 11.762-4.872a9 9 0 0 1 4.864 11.765c-1.899 4.589-7.16 6.771-11.755 4.867zM522.002 378a9 9 0 0 1-9-9c-.002-4.969 4.029-9 9.001-9a8.998 8.998 0 0 1 8.995 9.006c.004 4.966-4.023 8.994-8.996 8.994zM597.445 305.317c-4.591 1.9-9.857-.279-11.76-4.872-1.902-4.591.278-9.856 4.873-11.762a8.996 8.996 0 0 1 11.756 4.877 8.994 8.994 0 0 1-4.869 11.757zM743.824 87.619c-3.514 3.513-9.212 3.513-12.729-.001-3.513-3.514-3.514-9.211.005-12.731 3.513-3.514 9.209-3.513 12.725.007a8.994 8.994 0 0 1-.001 12.725zM602.314 156.445c-1.901 4.589-7.165 6.771-11.76 4.871-4.593-1.902-6.772-7.167-4.869-11.764a8.992 8.992 0 0 1 11.758-4.863c4.593 1.897 6.776 7.158 4.871 11.756zM459 297c.003 4.967-4.025 8.996-8.998 8.999-4.971.001-9-4.028-9.002-9.003a8.994 8.994 0 0 1 9.003-8.994c4.97-.003 9 4.022 8.997 8.998z"/><circle fill="#BC1E47" stroke="#000" cx="378" cy="513" r="4.5"/><circle fill="#BC1E47" stroke="#000" cx="594" cy="369" r="4.5"/><circle fill="#BC1E47" stroke="#000" cx="522" cy="405" r="4.5"/><circle fill="#BC1E47" stroke="#000" cx="450" cy="477" r="4.5"/><circle fill="#BC1E47" stroke="#000" cx="414" cy="405" r="4.5"/><circle fill="#BC1E47" stroke="#000" cx="558" cy="477" r="4.5"/><circle fill="#BC1E47" stroke="#000" cx="486" cy="423" r="4.5"/><circle fill="#BC1E47" stroke="#000" cx="486" cy="459" r="4.5"/><circle fill="#BC1E47" stroke="#000" cx="486" cy="549" r="4.5"/><circle fill="#BC1E47" stroke="#000" cx="486" cy="333" r="4.5"/><circle fill="#BC1E47" stroke="#000" cx="450" cy="369" r="4.5"/><circle fill="#BC1E47" stroke="#000" cx="522" cy="513" r="4.5"/><circle fill="#BC1E47" stroke="#000" cx="342" cy="333" r="4.5"/><circle fill="#BC1E47" stroke="#000" cx="630" cy="549" r="4.5"/><circle fill="#BC1E47" stroke="#000" cx="684" cy="477" r="4.5"/><circle fill="#BC1E47" stroke="#000" cx="288" cy="405" r="4.5"/><circle fill="#BC1E47" stroke="#000" cx="306" cy="441" r="4.5"/><circle fill="#BC1E47" stroke="#000" cx="666" cy="441" r="4.5"/><circle fill="#BC1E47" stroke="#000" cx="522" cy="225" r="4.5"/><circle fill="#BC1E47" stroke="#000" cx="450" cy="657" r="4.5"/><circle fill="#BC1E47" stroke="#000" cx="558" cy="657" r="4.5"/><circle fill="#BC1E47" stroke="#000" cx="414" cy="225" r="4.5"/><circle fill="#BC1E47" stroke="#000" cx="522" cy="261" r="4.5"/><circle fill="#BC1E47" stroke="#000" cx="450" cy="621" r="4.5"/><circle fill="#BC1E47" stroke="#000" cx="531" cy="180" r="4.5"/><circle fill="#BC1E47" stroke="#000" cx="441" cy="702" r="4.5"/><circle fill="#BC1E47" stroke="#000" cx="738" cy="477" r="4.5"/><circle fill="#BC1E47" stroke="#000" cx="234" cy="405" r="4.5"/><circle fill="#BC1E47" stroke="#000" cx="270" cy="261" r="4.5"/><circle fill="#BC1E47" stroke="#000" cx="702" cy="621" r="4.5"/><circle fill="#BC1E47" stroke="#000" cx="774" cy="693" r="4.5"/><circle fill="#BC1E47" stroke="#000" cx="198" cy="189" r="4.5"/><circle fill="#BC1E47" stroke="#000" cx="90" cy="585" r="4.5"/><circle fill="#BC1E47" stroke="#000" cx="882" cy="297" r="4.5"/><circle fill="#BC1E47" stroke="#000" cx="774" cy="513" r="4.5"/><circle fill="#BC1E47" stroke="#000" cx="198" cy="369" r="4.5"/><circle fill="#BC1E47" stroke="#000" cx="594" cy="189" r="4.5"/><circle fill="#BC1E47" stroke="#000" cx="378" cy="693" r="4.5"/><circle fill="#BC1E47" stroke="#000" cx="306" cy="729" r="4.5"/><circle fill="#BC1E47" stroke="#000" cx="666" cy="153" r="4.5"/><circle fill="#BC1E47" stroke="#000" cx="450" cy="261" r="4.5"/><circle fill="#BC1E47" stroke="#000" cx="522" cy="621" r="4.5"/><circle fill="#BC1E47" stroke="#000" cx="567" cy="351" r="4.5"/><circle fill="#BC1E47" stroke="#000" cx="405" cy="531" r="4.5"/><circle fill="#BC1E47" stroke="#000" cx="675" cy="324" r="4.5"/><circle fill="#BC1E47" stroke="#000" cx="297" cy="558" r="4.5"/><circle fill="#BC1E47" stroke="#000" cx="522" cy="297" r="4.5"/><circle fill="#BC1E47" stroke="#000" cx="450" cy="585" r="4.5"/><circle fill="#BC1E47" stroke="#000" cx="450" cy="765" r="4.5"/><circle fill="#BC1E47" stroke="#000" cx="522" cy="117" r="4.5"/><circle fill="#BC1E47" stroke="#000" cx="594" cy="117" r="4.5"/><circle fill="#BC1E47" stroke="#000" cx="378" cy="765" r="4.5"/><circle fill="#BC1E47" stroke="#000" cx="306" cy="117" r="4.5"/><circle fill="#BC1E47" stroke="#000" cx="666" cy="765" r="4.5"/><circle fill="#BC1E47" stroke="#000" cx="702" cy="765" r="4.5"/><circle fill="#BC1E47" stroke="#000" cx="270" cy="117" r="4.5"/><circle fill="#BC1E47" stroke="#000" cx="54" cy="369" r="4.5"/><circle fill="#BC1E47" stroke="#000" cx="918" cy="513" r="4.5"/><circle fill="#BC1E47" stroke="#000" cx="117" cy="648" r="4.5"/><circle fill="#BC1E47" stroke="#000" cx="855" cy="234" r="4.5"/><circle fill="#BC1E47" stroke="#000" cx="738" cy="117" r="4.5"/><circle fill="#BC1E47" stroke="#000" cx="234" cy="765" r="4.5"/><circle fill="#BC1E47" stroke="#000" cx="549" cy="747" r="4.5"/><circle fill="#BC1E47" stroke="#000" cx="423" cy="135" r="4.5"/></svg>