<?xml version="1.0" encoding="utf-8"?>
<!-- Generator: Adobe Illustrator 14.0.0, SVG Export Plug-In . SVG Version: 6.00 Build 43363)  -->
<!DOCTYPE svg PUBLIC "-//W3C//DTD SVG 1.1//EN" "http://www.w3.org/Graphics/SVG/1.1/DTD/svg11.dtd">
<svg version="1.1" id="Layer_1" xmlns="http://www.w3.org/2000/svg" xmlns:xlink="http://www.w3.org/1999/xlink" x="0px" y="0px"
	 width="963px" height="882px" viewBox="0 0 963 882" enable-background="new 0 0 963 882" xml:space="preserve">
<polyline fill="none" stroke="#000000" points="594,513 594,369 522,369 "/>
<polyline fill="none" stroke="#000000" points="594.894,297.177 377.042,369.178 378,513 450,513 "/>
<line fill="none" stroke="#000000" x1="450" y1="225" x2="594" y2="225"/>
<line fill="none" stroke="#000000" x1="522" y1="657" x2="378" y2="657"/>
<polyline fill="none" stroke="#000000" points="522,801 882,801 954,225 738,153 "/>
<polyline fill="none" stroke="#000000" points="450,81 90,81 18,657 234,729 "/>
<polyline fill="none" stroke="#000000" points="737.461,153.253 882,297 810,729 522,801 "/>
<polyline fill="none" stroke="#000000" points="738,657 666,873 234,801.001 90,729 162,513 "/>
<polyline fill="none" stroke="#000000" points="234,729 90,585 159.404,153.517 450,81 "/>
<polyline fill="none" stroke="#000000" points="234,225 306,9 737.461,81.253 882,153 810,369 "/>
<line fill="none" stroke="#000000" x1="450" y1="441" x2="450" y2="297"/>
<polyline fill="none" stroke="#000000" points="522,657 450,585 450,513 "/>
<line fill="none" stroke="#000000" x1="522" y1="441" x2="522" y2="585"/>
<polyline fill="none" stroke="#000000" points="450,225 522,297 522,369 "/>
<polyline fill="none" stroke="#000000" points="378,657 234,513 378,225 "/>
<line fill="none" stroke="#000000" x1="594" y1="513" x2="375.871" y2="585.007"/>
<polyline fill="none" stroke="#000000" points="594,225 738,369 594,656.854 "/>
<line fill="none" stroke="#000000" x1="594" y1="153" x2="450" y2="81"/>
<line fill="none" stroke="#000000" x1="378" y1="729" x2="522" y2="801"/>
<line fill="none" stroke="#000000" x1="306.089" y1="296.411" x2="162" y2="513"/>
<line fill="none" stroke="#000000" x1="666" y1="585" x2="810" y2="369"/>
<line fill="none" stroke="#000000" x1="378" y1="225" x2="450" y2="225"/>
<line fill="none" stroke="#000000" x1="450.063" y1="80.894" x2="378.064" y2="224.894"/>
<line fill="none" stroke="#000000" x1="234.124" y1="224.654" x2="159.529" y2="153.171"/>
<line fill="none" stroke="#000000" x1="306.119" y1="296.53" x2="234.118" y2="224.531"/>
<line fill="none" stroke="#000000" x1="378.089" y1="368.411" x2="306.089" y2="296.411"/>
<line fill="none" stroke="#000000" x1="449.963" y1="440.197" x2="450" y2="513"/>
<line fill="none" stroke="#000000" x1="377.872" y1="584.113" x2="449.871" y2="440.114"/>
<line fill="none" stroke="#000000" x1="161.765" y1="512.05" x2="377.766" y2="584.05"/>
<line fill="none" stroke="#000000" x1="233.526" y1="727.99" x2="233.527" y2="799.989"/>
<line fill="none" stroke="#000000" x1="378" y1="729" x2="233.403" y2="727.995"/>
<line fill="none" stroke="#000000" x1="377.281" y1="656.025" x2="378" y2="729"/>
<line fill="none" stroke="#000000" x1="522.099" y1="584.929" x2="377.171" y2="656.076"/>
<line fill="none" stroke="#000000" x1="522" y1="656.75" x2="522" y2="585.001"/>
<line fill="none" stroke="#000000" x1="594" y1="656.854" x2="522" y2="656.75"/>
<line fill="none" stroke="#000000" x1="522" y1="801" x2="594" y2="656.854"/>
<line fill="none" stroke="#000000" x1="736.862" y1="656.589" x2="808.86" y2="728.585"/>
<line fill="none" stroke="#000000" x1="666" y1="585" x2="736.866" y2="656.709"/>
<line fill="none" stroke="#000000" x1="594" y1="513" x2="666" y2="585"/>
<line fill="none" stroke="#000000" x1="521.024" y1="441.045" x2="522" y2="369"/>
<line fill="none" stroke="#000000" x1="593.116" y1="297.129" x2="521.113" y2="441.127"/>
<line fill="none" stroke="#000000" x1="809.222" y1="369.193" x2="593.22" y2="297.192"/>
<line fill="none" stroke="#000000" x1="737.461" y1="153.253" x2="736.919" y2="81.506"/>
<line fill="none" stroke="#000000" x1="593.585" y1="153.246" x2="737.583" y2="153.248"/>
<line fill="none" stroke="#000000" x1="593.704" y1="225.216" x2="593.704" y2="153.217"/>
<line fill="none" stroke="#000000" x1="449.899" y1="297.072" x2="593.816" y2="225.165"/>
<line fill="none" stroke="#000000" x1="449.915" y1="225.091" x2="450" y2="297"/>
<line fill="none" stroke="#000000" x1="234" y1="728.999" x2="522" y2="800.999"/>
<line fill="none" stroke="#000000" x1="738" y1="153" x2="450" y2="81"/>
<polyline fill="none" stroke="#000000" points="234,225 162,513 306,657 522,729 738.001,656.999 810,369 666,225 450,153 
	236.596,224.483 "/>
<polygon fill="none" stroke="#000000" points="378,369 521.999,441 594,513 450,441 "/>
<polyline fill="none" stroke="#000000" points="378,656.999 306,441 450,225 "/>
<polyline fill="none" stroke="#000000" points="594,224.999 666,441 522,657 "/>
<circle fill="#0081CD" stroke="#000000" cx="450" cy="225" r="9"/>
<circle fill="#0081CD" stroke="#000000" cx="450" cy="81" r="8.999"/>
<circle fill="#0081CD" stroke="#000000" cx="234" cy="225" r="8.999"/>
<circle fill="#0081CD" stroke="#000000" cx="378.001" cy="369" r="8.999"/>
<path fill="#0081CD" stroke="#000000" d="M448.245,432.174c4.875-0.971,9.612,2.195,10.582,7.068
	c0.97,4.875-2.194,9.612-7.072,10.584c-4.875,0.971-9.609-2.196-10.582-7.074C440.203,437.88,443.367,433.141,448.245,432.174z"/>
<path fill="#0081CD" stroke="#000000" d="M157,505.517c4.134-2.762,9.722-1.649,12.483,2.482c2.761,4.133,1.651,9.721-2.483,12.483
	s-9.722,1.649-12.485-2.485C151.756,513.867,152.866,508.277,157,505.517z"/>
<path fill="#0081CD" stroke="#000000" d="M226.518,724c2.763-4.132,8.35-5.244,12.482-2.482c4.134,2.762,5.247,8.348,2.483,12.483
	c-2.76,4.134-8.35,5.243-12.485,2.479C224.868,733.723,223.755,728.135,226.518,724z"/>
<path fill="#0081CD" stroke="#000000" d="M369.174,655.244c0.968-4.875,5.707-8.041,10.579-7.071
	c4.878,0.969,8.043,5.706,7.072,10.584c-0.968,4.878-5.707,8.039-10.585,7.069C371.369,664.857,368.202,660.122,369.174,655.244z"/>
<path fill="#0081CD" stroke="#000000" d="M513.174,658.755c-0.971-4.874,2.196-9.611,7.07-10.582
	c4.876-0.97,9.613,2.194,10.582,7.073c0.971,4.874-2.195,9.611-7.074,10.582C518.88,666.797,514.145,663.634,513.174,658.755z"/>
<path fill="#0081CD" stroke="#000000" d="M514.518,805.998c-2.763-4.131-1.649-9.721,2.481-12.482
	c4.132-2.761,9.721-1.65,12.483,2.484c2.763,4.133,1.65,9.721-2.487,12.484C522.867,811.244,517.28,810.137,514.518,805.998z"/>
<path fill="#0081CD" stroke="#000000" d="M733,664.482c-4.132-2.76-5.244-8.348-2.482-12.482c2.76-4.133,8.348-5.245,12.484-2.484
	c4.133,2.764,5.243,8.35,2.478,12.486C742.723,666.133,737.137,667.246,733,664.482z"/>
<path fill="#0081CD" stroke="#000000" d="M592.245,521.827c-4.874-0.97-8.04-5.707-7.071-10.582s5.707-8.042,10.584-7.072
	c4.877,0.973,8.039,5.708,7.066,10.588C601.857,519.633,597.121,522.798,592.245,521.827z"/>
<path fill="#0081CD" stroke="#000000" d="M523.756,449.827c-4.873,0.97-9.611-2.194-10.583-7.069
	c-0.97-4.875,2.196-9.615,7.075-10.585c4.877-0.97,9.609,2.197,10.578,7.075C531.797,444.12,528.636,448.857,523.756,449.827z"/>
<path fill="#0081CD" stroke="#000000" d="M815,376.484c-4.131,2.761-9.72,1.649-12.484-2.483c-2.761-4.132-1.65-9.721,2.488-12.486
	c4.131-2.761,9.717-1.648,12.479,2.49C820.245,368.134,819.137,373.721,815,376.484z"/>
<path fill="#0081CD" stroke="#000000" d="M745.482,158.002c-2.76,4.131-8.348,5.242-12.483,2.482
	c-4.132-2.761-5.244-8.35-2.481-12.487c2.763-4.133,8.348-5.241,12.482-2.476C747.133,148.279,748.246,153.864,745.482,158.002z"/>
<path fill="#0081CD" stroke="#000000" d="M602.826,226.756c-0.967,4.873-5.705,8.038-10.582,7.07
	c-4.875-0.969-8.041-5.706-7.071-10.586c0.972-4.876,5.707-8.039,10.583-7.064C600.631,217.142,603.799,221.875,602.826,226.756z"/>
<circle fill="#FEC200" stroke="#000000" cx="378.001" cy="225" r="9"/>
<path fill="#FEC200" stroke="#000000" d="M165.767,147.153c3.518,3.514,3.516,9.212,0.002,12.727c-3.515,3.514-9.216,3.516-12.727,0
	c-3.518-3.514-3.516-9.214-0.002-12.728C156.553,143.638,162.253,143.638,165.767,147.153z"/>
<circle fill="#FEC200" stroke="#000000" cx="306" cy="297.001" r="8.998"/>
<path fill="#FEC200" stroke="#000000" d="M450.002,504.002C454.972,504,459,508.029,459,513s-4.028,9-8.998,8.998
	c-4.973,0.002-9-4.027-9.002-9C440.998,508.029,445.028,504,450.002,504.002z"/>
<circle fill="#FEC200" stroke="#000000" cx="378" cy="585" r="8.999"/>
<path fill="#FEC200" stroke="#000000" d="M227.637,794.635c3.516-3.512,9.214-3.514,12.727,0c3.516,3.516,3.516,9.213,0,12.729
	c-3.516,3.518-9.214,3.514-12.729-0.002C224.121,803.85,224.121,798.15,227.637,794.635z"/>
<path fill="#FEC200" stroke="#000000" d="M369.686,725.557c1.903-4.592,7.166-6.772,11.757-4.869
	c4.594,1.9,6.776,7.162,4.871,11.758c-1.9,4.594-7.166,6.771-11.761,4.869C369.964,735.414,367.781,730.15,369.686,725.557z"/>
<path fill="#FEC200" stroke="#000000" d="M513.001,585c-0.001-4.971,4.028-8.999,8.997-8.999c4.974-0.001,9.002,4.027,9.002,9
	c0.001,4.974-4.03,8.999-9.003,8.999C517.029,594.001,512.998,589.975,513.001,585z"/>
<path fill="#FEC200" stroke="#000000" d="M585.686,660.442c-1.902-4.591,0.279-9.855,4.869-11.758
	c4.594-1.903,9.858,0.276,11.76,4.873c1.902,4.59-0.278,9.854-4.873,11.759C592.852,667.216,587.59,665.039,585.686,660.442z"/>
<path fill="#FEC200" stroke="#000000" d="M803.637,735.362c-3.518-3.513-3.514-9.211-0.002-12.727c3.515-3.515,9.211-3.516,12.729,0
	c3.516,3.516,3.516,9.214-0.004,12.73C812.85,738.878,807.154,738.882,803.637,735.362z"/>
<path fill="#FEC200" stroke="#000000" d="M662.557,593.314c-4.592-1.901-6.772-7.166-4.871-11.76
	c1.9-4.592,7.164-6.771,11.762-4.872c4.59,1.904,6.77,7.166,4.864,11.765C672.413,593.036,667.152,595.218,662.557,593.314z"/>
<path fill="#FEC200" stroke="#000000" d="M522.002,378c-4.969,0-9-4.028-9-9c-0.002-4.969,4.029-9,9.001-9
	c4.972,0.003,8.997,4.031,8.995,9.006C531.002,373.972,526.975,378,522.002,378z"/>
<path fill="#FEC200" stroke="#000000" d="M597.445,305.317c-4.591,1.9-9.857-0.279-11.76-4.872
	c-1.902-4.591,0.278-9.856,4.873-11.762c4.594-1.901,9.854,0.28,11.756,4.877C604.217,298.15,602.041,303.413,597.445,305.317z"/>
<path fill="#FEC200" stroke="#000000" d="M743.824,87.619c-3.514,3.513-9.212,3.513-12.729-0.001
	c-3.513-3.514-3.514-9.211,0.005-12.731c3.513-3.514,9.209-3.513,12.725,0.007C747.339,78.405,747.342,84.102,743.824,87.619z"/>
<path fill="#FEC200" stroke="#000000" d="M602.314,156.445c-1.901,4.589-7.165,6.771-11.76,4.871
	c-4.593-1.902-6.772-7.167-4.869-11.764c1.902-4.592,7.164-6.769,11.758-4.863C602.036,146.586,604.219,151.847,602.314,156.445z"/>
<path fill="#FEC200" stroke="#000000" d="M459,297c0.003,4.967-4.025,8.996-8.998,8.999c-4.971,0.001-9-4.028-9.002-9.003
	c0.002-4.972,4.029-8.997,9.003-8.994C454.973,287.999,459.003,292.024,459,297z"/>
<circle fill="#BC1E47" stroke="#000000" cx="378" cy="513" r="4.5"/>
<circle fill="#BC1E47" stroke="#000000" cx="594" cy="369" r="4.5"/>
<circle fill="#BC1E47" stroke="#000000" cx="522" cy="405" r="4.5"/>
<circle fill="#BC1E47" stroke="#000000" cx="450" cy="477" r="4.5"/>
<circle fill="#BC1E47" stroke="#000000" cx="414" cy="405" r="4.5"/>
<circle fill="#BC1E47" stroke="#000000" cx="558" cy="477" r="4.5"/>
<circle fill="#BC1E47" stroke="#000000" cx="486" cy="423" r="4.5"/>
<circle fill="#BC1E47" stroke="#000000" cx="486" cy="459" r="4.5"/>
<circle fill="#BC1E47" stroke="#000000" cx="486" cy="549" r="4.5"/>
<circle fill="#BC1E47" stroke="#000000" cx="486" cy="333" r="4.5"/>
<circle fill="#BC1E47" stroke="#000000" cx="450" cy="369" r="4.5"/>
<circle fill="#BC1E47" stroke="#000000" cx="522" cy="513" r="4.5"/>
<circle fill="#BC1E47" stroke="#000000" cx="342" cy="333" r="4.5"/>
<circle fill="#BC1E47" stroke="#000000" cx="630" cy="549" r="4.5"/>
<circle fill="#BC1E47" stroke="#000000" cx="684" cy="477" r="4.5"/>
<circle fill="#BC1E47" stroke="#000000" cx="288" cy="405" r="4.5"/>
<circle fill="#BC1E47" stroke="#000000" cx="306" cy="441" r="4.5"/>
<circle fill="#BC1E47" stroke="#000000" cx="666" cy="441" r="4.5"/>
<circle fill="#BC1E47" stroke="#000000" cx="522" cy="225" r="4.5"/>
<circle fill="#BC1E47" stroke="#000000" cx="450" cy="657" r="4.5"/>
<circle fill="#BC1E47" stroke="#000000" cx="558" cy="657" r="4.5"/>
<circle fill="#BC1E47" stroke="#000000" cx="414" cy="225" r="4.5"/>
<circle fill="#BC1E47" stroke="#000000" cx="522" cy="261" r="4.5"/>
<circle fill="#BC1E47" stroke="#000000" cx="450" cy="621" r="4.5"/>
<circle fill="#BC1E47" stroke="#000000" cx="531" cy="180" r="4.5"/>
<circle fill="#BC1E47" stroke="#000000" cx="441" cy="702" r="4.5"/>
<circle fill="#BC1E47" stroke="#000000" cx="738" cy="477" r="4.5"/>
<circle fill="#BC1E47" stroke="#000000" cx="234" cy="405" r="4.5"/>
<circle fill="#BC1E47" stroke="#000000" cx="270" cy="261" r="4.5"/>
<circle fill="#BC1E47" stroke="#000000" cx="702" cy="621" r="4.5"/>
<circle fill="#BC1E47" stroke="#000000" cx="774" cy="693" r="4.5"/>
<circle fill="#BC1E47" stroke="#000000" cx="198" cy="189" r="4.5"/>
<circle fill="#BC1E47" stroke="#000000" cx="90" cy="585" r="4.5"/>
<circle fill="#BC1E47" stroke="#000000" cx="882" cy="297" r="4.5"/>
<circle fill="#BC1E47" stroke="#000000" cx="774" cy="513" r="4.5"/>
<circle fill="#BC1E47" stroke="#000000" cx="198" cy="369" r="4.5"/>
<circle fill="#BC1E47" stroke="#000000" cx="594" cy="189" r="4.5"/>
<circle fill="#BC1E47" stroke="#000000" cx="378" cy="693" r="4.5"/>
<circle fill="#BC1E47" stroke="#000000" cx="306" cy="729" r="4.5"/>
<circle fill="#BC1E47" stroke="#000000" cx="666" cy="153" r="4.5"/>
<circle fill="#BC1E47" stroke="#000000" cx="450" cy="261" r="4.5"/>
<circle fill="#BC1E47" stroke="#000000" cx="522" cy="621" r="4.5"/>
<circle fill="#BC1E47" stroke="#000000" cx="567" cy="351" r="4.5"/>
<circle fill="#BC1E47" stroke="#000000" cx="405" cy="531" r="4.5"/>
<circle fill="#BC1E47" stroke="#000000" cx="675" cy="324" r="4.5"/>
<circle fill="#BC1E47" stroke="#000000" cx="297" cy="558" r="4.5"/>
<circle fill="#BC1E47" stroke="#000000" cx="522" cy="297" r="4.5"/>
<circle fill="#BC1E47" stroke="#000000" cx="450" cy="585" r="4.5"/>
<circle fill="#BC1E47" stroke="#000000" cx="450" cy="765" r="4.5"/>
<circle fill="#BC1E47" stroke="#000000" cx="522" cy="117" r="4.5"/>
<circle fill="#BC1E47" stroke="#000000" cx="594" cy="117" r="4.5"/>
<circle fill="#BC1E47" stroke="#000000" cx="378" cy="765" r="4.5"/>
<circle fill="#BC1E47" stroke="#000000" cx="306" cy="117" r="4.5"/>
<circle fill="#BC1E47" stroke="#000000" cx="666" cy="765" r="4.5"/>
<circle fill="#BC1E47" stroke="#000000" cx="702" cy="765" r="4.5"/>
<circle fill="#BC1E47" stroke="#000000" cx="270" cy="117" r="4.5"/>
<circle fill="#BC1E47" stroke="#000000" cx="54" cy="369" r="4.5"/>
<circle fill="#BC1E47" stroke="#000000" cx="918" cy="513" r="4.5"/>
<circle fill="#BC1E47" stroke="#000000" cx="117" cy="648" r="4.5"/>
<circle fill="#BC1E47" stroke="#000000" cx="855" cy="234" r="4.5"/>
<circle fill="#BC1E47" stroke="#000000" cx="738" cy="117" r="4.5"/>
<circle fill="#BC1E47" stroke="#000000" cx="234" cy="765" r="4.5"/>
<circle fill="#BC1E47" stroke="#000000" cx="549" cy="747" r="4.5"/>
<circle fill="#BC1E47" stroke="#000000" cx="423" cy="135" r="4.5"/>
</svg>
