<?xml version="1.0" encoding="utf-8"?>
<!-- Generator: Adobe Illustrator 15.1.0, SVG Export Plug-In . SVG Version: 6.00 Build 0)  -->
<!DOCTYPE svg PUBLIC "-//W3C//DTD SVG 1.1//EN" "http://www.w3.org/Graphics/SVG/1.1/DTD/svg11.dtd">
<svg version="1.1" id="Layer_1" xmlns="http://www.w3.org/2000/svg" xmlns:xlink="http://www.w3.org/1999/xlink" x="0px" y="0px"
	 width="576px" height="243px" viewBox="0 0 576 243" enable-background="new 0 0 576 243" xml:space="preserve">
<rect x="157" y="-9" fill="#AAD5EF" width="252" height="261"/>
<polyline fill="none" stroke="#000000" stroke-miterlimit="10" points="144,72 288,9 432,72.001 "/>
<polyline fill="none" stroke="#000000" stroke-miterlimit="10" points="72,126 144,72 216,126 "/>
<polyline fill="none" stroke="#000000" stroke-miterlimit="10" points="36,171 72,126 108,171 "/>
<polyline fill="none" stroke="#000000" stroke-miterlimit="10" points="18,207 36,171 54,207 "/>
<polyline fill="none" stroke="#000000" stroke-miterlimit="10" points="9,234 18,207 27,234 "/>
<polyline fill="none" stroke="#000000" stroke-miterlimit="10" points="45,234 54,207 63,234 "/>
<polyline fill="none" stroke="#000000" stroke-miterlimit="10" points="90,207 108,171 126,207 "/>
<polyline fill="none" stroke="#000000" stroke-miterlimit="10" points="81,234 90,207 99,234 "/>
<polyline fill="none" stroke="#000000" stroke-miterlimit="10" points="117,234 126,207 135,234 "/>
<polyline fill="none" stroke="#000000" stroke-miterlimit="10" points="180,171 216,126 252,171 "/>
<polyline fill="none" stroke="#000000" stroke-miterlimit="10" points="162,207 180,171 198,207 "/>
<polyline fill="none" stroke="#000000" stroke-miterlimit="10" points="153,234 162,207 171,234 "/>
<circle fill="#FEC200" stroke="#000000" stroke-miterlimit="10" cx="171" cy="234" r="6"/>
<polyline fill="none" stroke="#000000" stroke-miterlimit="10" points="189,234 198,207 207,234 "/>
<circle fill="#FEC200" stroke="#000000" stroke-miterlimit="10" cx="198" cy="207" r="6"/>
<polyline fill="none" stroke="#000000" stroke-miterlimit="10" points="234,207 252,171 270,207 "/>
<polyline fill="none" stroke="#000000" stroke-miterlimit="10" points="225,234 234,207 243,234 "/>
<polyline fill="none" stroke="#000000" stroke-miterlimit="10" points="261,234 270,207 279,234 "/>
<circle fill="#FEC200" stroke="#000000" stroke-miterlimit="10" cx="252" cy="171" r="6"/>
<polyline fill="none" stroke="#000000" stroke-miterlimit="10" points="360,126.001 432,72.001 504,126.001 "/>
<polyline fill="none" stroke="#000000" stroke-miterlimit="10" points="324,171.001 360,126.001 396,171.001 "/>
<polyline fill="none" stroke="#000000" stroke-miterlimit="10" points="306,207.001 324,171.001 342,207.001 "/>
<polyline fill="none" stroke="#000000" stroke-miterlimit="10" points="297,234 306,207.001 315,234.001 "/>
<polyline fill="none" stroke="#000000" stroke-miterlimit="10" points="333,234 342,207.001 351,234.001 "/>
<circle fill="#FEC200" stroke="#000000" stroke-miterlimit="10" cx="324" cy="171.001" r="6"/>
<polyline fill="none" stroke="#000000" stroke-miterlimit="10" points="378,207.001 396,171.001 414,207.001 "/>
<polyline fill="none" stroke="#000000" stroke-miterlimit="10" points="369,234 378,207.001 387,234.001 "/>
<circle fill="#FEC200" stroke="#000000" stroke-miterlimit="10" cx="378" cy="207.001" r="6"/>
<polyline fill="none" stroke="#000000" stroke-miterlimit="10" points="405,234 414,207.001 423,234.001 "/>
<polyline fill="none" stroke="#000000" stroke-miterlimit="10" points="468,171.001 504,126.001 540,171.001 "/>
<polyline fill="none" stroke="#000000" stroke-miterlimit="10" points="450,207.001 468,171.001 486,207.001 "/>
<polyline fill="none" stroke="#000000" stroke-miterlimit="10" points="441,234.001 450,207.001 459,234.001 "/>
<polyline fill="none" stroke="#000000" stroke-miterlimit="10" points="477,234.001 486,207.001 495,234.001 "/>
<polyline fill="none" stroke="#000000" stroke-miterlimit="10" points="522,207.001 540,171.001 558,207.001 "/>
<polyline fill="none" stroke="#000000" stroke-miterlimit="10" points="513,234.001 522,207.001 531,234.001 "/>
<polyline fill="none" stroke="#000000" stroke-miterlimit="10" points="549,234.001 558,207.001 567,234.001 "/>
<polyline fill="none" stroke="#FEC200" stroke-width="3" stroke-miterlimit="10" points="153,234 162,207 180,171 216,126 144,72 
	288,9 432,72.001 360,126.001 396,171.001 414,207.001 405,234 "/>
<circle fill="#BC1E47" stroke="#000000" stroke-miterlimit="10" cx="405" cy="234" r="6"/>
<circle fill="#BC1E47" stroke="#000000" stroke-miterlimit="10" cx="9" cy="234" r="6"/>
<circle fill="#BC1E47" stroke="#000000" stroke-miterlimit="10" cx="27" cy="234" r="6"/>
<circle fill="#BC1E47" stroke="#000000" stroke-miterlimit="10" cx="18" cy="207" r="6"/>
<circle fill="#BC1E47" stroke="#000000" stroke-miterlimit="10" cx="45" cy="234" r="6"/>
<circle fill="#BC1E47" stroke="#000000" stroke-miterlimit="10" cx="36" cy="171" r="6"/>
<circle fill="#BC1E47" stroke="#000000" stroke-miterlimit="10" cx="63" cy="234" r="6"/>
<circle fill="#BC1E47" stroke="#000000" stroke-miterlimit="10" cx="54" cy="207" r="6"/>
<circle fill="#BC1E47" stroke="#000000" stroke-miterlimit="10" cx="81" cy="234" r="6"/>
<circle fill="#BC1E47" stroke="#000000" stroke-miterlimit="10" cx="72" cy="126" r="6"/>
<circle fill="#BC1E47" stroke="#000000" stroke-miterlimit="10" cx="99" cy="234" r="6"/>
<circle fill="#BC1E47" stroke="#000000" stroke-miterlimit="10" cx="90" cy="207" r="6"/>
<circle fill="#BC1E47" stroke="#000000" stroke-miterlimit="10" cx="117" cy="234" r="6"/>
<circle fill="#BC1E47" stroke="#000000" stroke-miterlimit="10" cx="108" cy="171" r="6"/>
<circle fill="#BC1E47" stroke="#000000" stroke-miterlimit="10" cx="135" cy="234" r="6"/>
<circle fill="#BC1E47" stroke="#000000" stroke-miterlimit="10" cx="126" cy="207" r="6"/>
<circle fill="#BC1E47" stroke="#000000" stroke-miterlimit="10" cx="153" cy="234" r="6"/>
<circle fill="#BC1E47" stroke="#000000" stroke-miterlimit="10" cx="144" cy="72" r="6"/>
<circle fill="#BC1E47" stroke="#000000" stroke-miterlimit="10" cx="162" cy="207" r="6"/>
<circle fill="#BC1E47" stroke="#000000" stroke-miterlimit="10" cx="189" cy="234" r="6"/>
<circle fill="#BC1E47" stroke="#000000" stroke-miterlimit="10" cx="180" cy="171" r="6"/>
<circle fill="#BC1E47" stroke="#000000" stroke-miterlimit="10" cx="207" cy="234" r="6"/>
<circle fill="#BC1E47" stroke="#000000" stroke-miterlimit="10" cx="225" cy="234" r="6"/>
<circle fill="#BC1E47" stroke="#000000" stroke-miterlimit="10" cx="216" cy="126" r="6"/>
<circle fill="#BC1E47" stroke="#000000" stroke-miterlimit="10" cx="243" cy="234" r="6"/>
<circle fill="#BC1E47" stroke="#000000" stroke-miterlimit="10" cx="234" cy="207" r="6"/>
<circle fill="#BC1E47" stroke="#000000" stroke-miterlimit="10" cx="261" cy="234" r="6"/>
<circle fill="#BC1E47" stroke="#000000" stroke-miterlimit="10" cx="279" cy="234" r="6"/>
<circle fill="#BC1E47" stroke="#000000" stroke-miterlimit="10" cx="270" cy="207" r="6"/>
<circle fill="#BC1E47" stroke="#000000" stroke-miterlimit="10" cx="297" cy="234" r="6"/>
<circle fill="#BC1E47" stroke="#000000" stroke-miterlimit="10" cx="315" cy="234.001" r="6"/>
<circle fill="#BC1E47" stroke="#000000" stroke-miterlimit="10" cx="306" cy="207.001" r="6"/>
<circle fill="#BC1E47" stroke="#000000" stroke-miterlimit="10" cx="333" cy="234" r="6"/>
<circle fill="#BC1E47" stroke="#000000" stroke-miterlimit="10" cx="351" cy="234.001" r="6"/>
<circle fill="#BC1E47" stroke="#000000" stroke-miterlimit="10" cx="342" cy="207.001" r="6"/>
<circle fill="#BC1E47" stroke="#000000" stroke-miterlimit="10" cx="369" cy="234" r="6"/>
<circle fill="#BC1E47" stroke="#000000" stroke-miterlimit="10" cx="360" cy="126.001" r="6"/>
<circle fill="#BC1E47" stroke="#000000" stroke-miterlimit="10" cx="387" cy="234.001" r="6"/>
<circle fill="#BC1E47" stroke="#000000" stroke-miterlimit="10" cx="396" cy="171.001" r="6"/>
<circle fill="#BC1E47" stroke="#000000" stroke-miterlimit="10" cx="423" cy="234.001" r="6"/>
<circle fill="#BC1E47" stroke="#000000" stroke-miterlimit="10" cx="414" cy="207.001" r="6"/>
<circle fill="#BC1E47" stroke="#000000" stroke-miterlimit="10" cx="441" cy="234.001" r="6"/>
<circle fill="#BC1E47" stroke="#000000" stroke-miterlimit="10" cx="432" cy="72.001" r="6"/>
<circle fill="#BC1E47" stroke="#000000" stroke-miterlimit="10" cx="459" cy="234.001" r="6"/>
<circle fill="#BC1E47" stroke="#000000" stroke-miterlimit="10" cx="450" cy="207.001" r="6"/>
<circle fill="#BC1E47" stroke="#000000" stroke-miterlimit="10" cx="477" cy="234.001" r="6"/>
<circle fill="#BC1E47" stroke="#000000" stroke-miterlimit="10" cx="468" cy="171.001" r="6"/>
<circle fill="#BC1E47" stroke="#000000" stroke-miterlimit="10" cx="495" cy="234.001" r="6"/>
<circle fill="#BC1E47" stroke="#000000" stroke-miterlimit="10" cx="486" cy="207.001" r="6"/>
<circle fill="#BC1E47" stroke="#000000" stroke-miterlimit="10" cx="513" cy="234.001" r="6"/>
<circle fill="#BC1E47" stroke="#000000" stroke-miterlimit="10" cx="504" cy="126.001" r="6"/>
<circle fill="#BC1E47" stroke="#000000" stroke-miterlimit="10" cx="531" cy="234.001" r="6"/>
<circle fill="#BC1E47" stroke="#000000" stroke-miterlimit="10" cx="522" cy="207.001" r="6"/>
<circle fill="#BC1E47" stroke="#000000" stroke-miterlimit="10" cx="549" cy="234.001" r="6"/>
<circle fill="#BC1E47" stroke="#000000" stroke-miterlimit="10" cx="540" cy="171.001" r="6"/>
<circle fill="#BC1E47" stroke="#000000" stroke-miterlimit="10" cx="567" cy="234.001" r="6"/>
<circle fill="#BC1E47" stroke="#000000" stroke-miterlimit="10" cx="558" cy="207.001" r="6"/>
<circle fill="#BC1E47" stroke="#000000" stroke-miterlimit="10" cx="288" cy="9" r="6"/>
<rect x="409" y="-9" opacity="0.6" fill="#FFFFFF" enable-background="new    " width="198" height="261"/>
<rect x="-32" y="-9" opacity="0.6" fill="#FFFFFF" enable-background="new    " width="189" height="261"/>
</svg>
