<?xml version="1.0" encoding="utf-8"?>
<!-- Generator: Adobe Illustrator 14.0.0, SVG Export Plug-In . SVG Version: 6.00 Build 43363)  -->
<!DOCTYPE svg PUBLIC "-//W3C//DTD SVG 1.1//EN" "http://www.w3.org/Graphics/SVG/1.1/DTD/svg11.dtd">
<svg version="1.1" id="Layer_1" xmlns="http://www.w3.org/2000/svg" xmlns:xlink="http://www.w3.org/1999/xlink" x="0px" y="0px"
	 width="449px" height="446px" viewBox="0 0 449 446" enable-background="new 0 0 449 446" xml:space="preserve">
<line fill="none" stroke="#FEC200" stroke-width="2" stroke-dasharray="1" x1="308.827" y1="22.441" x2="26.608" y2="139.34"/>
<line fill="none" stroke="#FEC200" stroke-width="2" stroke-dasharray="1" x1="26.608" y1="304.66" x2="73.432" y2="69.266"/>
<line fill="none" stroke="#FEC200" stroke-width="2" stroke-dasharray="1" x1="10.167" y1="222" x2="226.167" y2="438"/>
<line fill="none" stroke="#FEC200" stroke-width="2" stroke-dasharray="1" x1="143.507" y1="421.557" x2="425.725" y2="304.658"/>
<line fill="none" stroke="#FEC200" stroke-width="2" stroke-dasharray="1" x1="73.432" y1="374.734" x2="379.166" y2="68.5"/>
<line fill="none" stroke="#FEC200" stroke-width="2" stroke-dasharray="1" x1="378.902" y1="374.734" x2="442.166" y2="222"/>
<line fill="none" stroke="#FEC200" stroke-width="2" stroke-dasharray="1" x1="308.827" y1="421.559" x2="143.507" y2="22.442"/>
<line fill="none" stroke="#FEC200" stroke-width="2" stroke-dasharray="1" x1="226.167" y1="6" x2="426.167" y2="140"/>
<line fill="none" stroke="#000000" stroke-width="1.5" x1="344.168" y1="371.001" x2="352.166" y2="228"/>
<polyline fill="none" stroke="#000000" stroke-width="1.5" points="125.667,380.5 187.167,418.5 249.665,408 "/>
<polyline fill="none" stroke="#000000" stroke-width="1.5" points="326.666,55 257.168,99.5 352.166,228 202.167,326.5 
	126.167,193.5 "/>
<polyline fill="none" stroke="#000000" stroke-width="1.5" points="110.167,74 126.167,193.5 257.168,99.5 199.667,31.5 "/>
<polyline fill="none" stroke="#000000" stroke-width="1.5" points="32.167,178 24.667,254.5 59.167,316.5 "/>
<polygon fill="none" stroke="#000000" stroke-width="1.5" points="59.167,316.5 125.667,380.5 202.167,326.5 249.665,408 
	344.168,371.001 411.167,327.501 429.668,279 352.166,228 384.167,95 326.666,55 273.668,23 199.667,31.5 110.167,74 50.167,115.5 
	32.167,178 126.167,193.5 "/>
<circle fill="none" stroke="#BC1E47" stroke-dasharray="4" cx="226.167" cy="222" r="216"/>
<circle fill="#0081CD" stroke="#000000" stroke-width="1.5" cx="273.668" cy="23" r="7.5"/>
<circle fill="#0081CD" stroke="#000000" stroke-width="1.5" cx="326.666" cy="55" r="7.5"/>
<circle fill="#0081CD" stroke="#000000" stroke-width="1.5" cx="384.167" cy="95" r="7.5"/>
<circle fill="#0081CD" stroke="#000000" stroke-width="1.5" cx="352.166" cy="228" r="7.5"/>
<circle fill="#0081CD" stroke="#000000" stroke-width="1.5" cx="257.168" cy="99.5" r="7.5"/>
<circle fill="#0081CD" stroke="#000000" stroke-width="1.5" cx="199.667" cy="31.5" r="7.5"/>
<circle fill="#0081CD" stroke="#000000" stroke-width="1.5" cx="110.167" cy="74" r="7.5"/>
<circle fill="#0081CD" stroke="#000000" stroke-width="1.5" cx="50.167" cy="115.5" r="7.5"/>
<circle fill="#0081CD" stroke="#000000" stroke-width="1.5" cx="32.167" cy="178" r="7.5"/>
<circle fill="#0081CD" stroke="#000000" stroke-width="1.5" cx="24.667" cy="254.5" r="7.5"/>
<circle fill="#0081CD" stroke="#000000" stroke-width="1.5" cx="59.167" cy="316.5" r="7.5"/>
<circle fill="#0081CD" stroke="#000000" stroke-width="1.5" cx="126.167" cy="193.5" r="7.5"/>
<circle fill="#0081CD" stroke="#000000" stroke-width="1.5" cx="202.167" cy="326.5" r="7.5"/>
<circle fill="#0081CD" stroke="#000000" stroke-width="1.5" cx="125.667" cy="380.5" r="7.5"/>
<circle fill="#0081CD" stroke="#000000" stroke-width="1.5" cx="429.668" cy="279" r="7.5"/>
<circle fill="#0081CD" stroke="#000000" stroke-width="1.5" cx="411.167" cy="327.501" r="7.5"/>
<circle fill="#0081CD" stroke="#000000" stroke-width="1.5" cx="344.168" cy="371.001" r="7.5"/>
<circle fill="#0081CD" stroke="#000000" stroke-width="1.5" cx="249.665" cy="408" r="7.5"/>
<circle fill="#0081CD" stroke="#000000" stroke-width="1.5" cx="187.167" cy="418.5" r="7.5"/>
</svg>
