<svg xmlns="http://www.w3.org/2000/svg" width="990" height="522">
    <path fill="none" stroke="#000" stroke-miterlimit="10" d="M9 423l450 90M108 378l450 90M207 333l450 90M18 270l450 90M117 225l450 90M216 180l450 90M27 117l450 90M126 72l450 90M225 27l450 90M162 414l450 90M261 369l450 90M360 324l450 90M171 261l450 90M270 216l450 90M369 171l450 90M180 108l450 90M279 63l450 90M378 18l450 90M315 405l450 90M414 360l450 90M513 315l450 90M324 252l450 90M423 207l450 90M522 162l450 90M333 99l450 90M432 54l450 90M531 9l450 90M9 423l198-90M162 414l198-90M315 405l198-90M18 270l198-90M171 261l198-90M324 252l198-90M27 117l198-90M180 108l198-90M333 99L531 9M9 423l9-153 153-9-9 153z"/>
    <path fill="none" stroke="#000" stroke-miterlimit="10" d="M18 270l9-153 153-9-9 153zM162 414l9-153 153-9-9 153z"/>
    <path fill="none" stroke="#000" stroke-miterlimit="10" d="M171 261l9-153 153-9-9 153z"/>
    <path fill="#0081CD" d="M15 423a6 6 0 0 1-12 0 6 6 0 0 1 12 0"/>
    <circle fill="none" stroke="#000" stroke-miterlimit="10" cx="9" cy="423" r="6"/>
    <path fill="#BC1E47" d="M168 414a6 6 0 0 1-12 0 6 6 0 0 1 12 0"/>
    <circle fill="none" stroke="#000" stroke-miterlimit="10" cx="162" cy="414" r="6"/>
    <path fill="#0081CD" d="M321 405a6 6 0 0 1-12 0 6 6 0 0 1 12 0"/>
    <circle fill="none" stroke="#000" stroke-miterlimit="10" cx="315" cy="405" r="6"/>
    <path fill="#BC1E47" d="M24 270a6 6 0 0 1-12 0 6 6 0 0 1 12 0"/>
    <circle fill="none" stroke="#000" stroke-miterlimit="10" cx="18" cy="270" r="6"/>
    <path fill="#FEC200" d="M177 261c0 3.312-2.687 6-6 6s-6-2.688-6-6a6 6 0 0 1 12 0"/>
    <circle fill="none" stroke="#000" stroke-miterlimit="10" cx="171" cy="261" r="6"/>
    <path fill="#BC1E47" d="M330 252a6 6 0 0 1-12 0 6 6 0 0 1 12 0"/>
    <circle fill="none" stroke="#000" stroke-miterlimit="10" cx="324" cy="252" r="6"/>
    <path fill="#0081CD" d="M33 117a6 6 0 0 1-12 0 6 6 0 0 1 12 0"/>
    <circle fill="none" stroke="#000" stroke-miterlimit="10" cx="27" cy="117" r="6"/>
    <path fill="#BC1E47" d="M186 108a6 6 0 0 1-12 0 6 6 0 0 1 12 0"/>
    <circle fill="none" stroke="#000" stroke-miterlimit="10" cx="180" cy="108" r="6"/>
    <path fill="#0081CD" d="M339 99a6 6 0 0 1-12 0 6 6 0 0 1 12 0"/>
    <circle fill="none" stroke="#000" stroke-miterlimit="10" cx="333" cy="99" r="6"/>
    <path fill="none" stroke="#000" stroke-miterlimit="10" d="M108 378l9-153 153-9-9 153z"/>
    <path fill="none" stroke="#000" stroke-miterlimit="10" d="M117 225l9-153 153-9-9 153zM261 369l9-153 153-9-9 153z"/>
    <path fill="none" stroke="#000" stroke-miterlimit="10" d="M270 216l9-153 153-9-9 153z"/>
    <path fill="#BC1E47" d="M114 378a6 6 0 0 1-12 0 6 6 0 0 1 12 0"/>
    <circle fill="none" stroke="#000" stroke-miterlimit="10" cx="108" cy="378" r="6"/>
    <path fill="#FEC200" d="M267 369a6 6 0 0 1-12 0 6 6 0 0 1 12 0"/>
    <circle fill="none" stroke="#000" stroke-miterlimit="10" cx="261" cy="369" r="6"/>
    <path fill="#BC1E47" d="M420 360a6 6 0 0 1-12 0 6 6 0 0 1 12 0"/>
    <circle fill="none" stroke="#000" stroke-miterlimit="10" cx="414" cy="360" r="6"/>
    <path fill="#FEC200" d="M123 225a6 6 0 0 1-12 0 6 6 0 0 1 12 0"/>
    <circle fill="none" stroke="#000" stroke-miterlimit="10" cx="117" cy="225" r="6"/>
    <path fill="#FFF" d="M276 216a6 6 0 0 1-12 0 6 6 0 0 1 12 0"/>
    <circle fill="none" stroke="#000" stroke-miterlimit="10" cx="270" cy="216" r="6"/>
    <path fill="#FEC200" d="M429 207a6 6 0 0 1-12 0 6 6 0 0 1 12 0"/>
    <circle fill="none" stroke="#000" stroke-miterlimit="10" cx="423" cy="207" r="6"/>
    <path fill="#BC1E47" d="M132 72a6 6 0 0 1-12 0 6 6 0 0 1 12 0"/>
    <circle fill="none" stroke="#000" stroke-miterlimit="10" cx="126" cy="72" r="6"/>
    <path fill="#FEC200" d="M285 63a6 6 0 0 1-12 0 6 6 0 0 1 12 0"/>
    <circle fill="none" stroke="#000" stroke-miterlimit="10" cx="279" cy="63" r="6"/>
    <path fill="#BC1E47" d="M438 54a6 6 0 0 1-12 0 6 6 0 0 1 12 0"/>
    <circle fill="none" stroke="#000" stroke-miterlimit="10" cx="432" cy="54" r="6"/>
    <path fill="none" stroke="#000" stroke-miterlimit="10" d="M207 333l9-153 153-9-9 153z"/>
    <path fill="none" stroke="#000" stroke-miterlimit="10" d="M216 180l9-153 153-9-9 153zM360 324l9-153 153-9-9 153z"/>
    <path fill="none" stroke="#000" stroke-miterlimit="10" d="M369 171l9-153 153-9-9 153z"/>
    <path fill="#0081CD" d="M213 333a6 6 0 0 1-12 0 6 6 0 0 1 12 0"/>
    <circle fill="none" stroke="#000" stroke-miterlimit="10" cx="207" cy="333" r="6"/>
    <path fill="#BC1E47" d="M366 324a6 6 0 0 1-12 0 6 6 0 0 1 12 0"/>
    <circle fill="none" stroke="#000" stroke-miterlimit="10" cx="360" cy="324" r="6"/>
    <path fill="#0081CD" d="M519 315c0 3.313-2.688 6-6 6s-6-2.687-6-6 2.688-6 6-6 6 2.687 6 6"/>
    <circle fill="none" stroke="#000" stroke-miterlimit="10" cx="513" cy="315" r="6"/>
    <path fill="#BC1E47" d="M222 180a6 6 0 0 1-12 0 6 6 0 0 1 12 0"/>
    <circle fill="none" stroke="#000" stroke-miterlimit="10" cx="216" cy="180" r="6"/>
    <path fill="#FEC200" d="M375 171a6 6 0 0 1-12 0 6 6 0 0 1 12 0"/>
    <circle fill="none" stroke="#000" stroke-miterlimit="10" cx="369" cy="171" r="6"/>
    <path fill="#BC1E47" d="M528 162c0 3.313-2.688 6-6 6s-6-2.687-6-6 2.688-6 6-6 6 2.687 6 6"/>
    <circle fill="none" stroke="#000" stroke-miterlimit="10" cx="522" cy="162" r="6"/>
    <path fill="#0081CD" d="M231 27a6 6 0 0 1-12 0 6 6 0 0 1 12 0"/>
    <circle fill="none" stroke="#000" stroke-miterlimit="10" cx="225" cy="27" r="6"/>
    <path fill="#BC1E47" d="M384 18a6 6 0 0 1-12 0 6 6 0 0 1 12 0"/>
    <circle fill="none" stroke="#000" stroke-miterlimit="10" cx="378" cy="18" r="6"/>
    <path fill="#0081CD" d="M537 9c0 3.313-2.688 6-6 6s-6-2.687-6-6 2.688-6 6-6 6 2.687 6 6"/>
    <circle fill="none" stroke="#000" stroke-miterlimit="10" cx="531" cy="9" r="6"/>
    <path fill="none" stroke="#000" stroke-miterlimit="10" d="M234 468l198-90M387 459l198-90M540 450l198-90M243 315l198-90M396 306l198-90M549 297l198-90M252 162l198-90M405 153l198-90M558 144l198-90M234 468l9-153 153-9-9 153z"/>
    <path fill="none" stroke="#000" stroke-miterlimit="10" d="M243 315l9-153 153-9-9 153zM387 459l9-153 153-9-9 153z"/>
    <path fill="none" stroke="#000" stroke-miterlimit="10" d="M396 306l9-153 153-9-9 153z"/>
    <path fill="#BC1E47" d="M240 468a6 6 0 0 1-12 0 6 6 0 0 1 12 0"/>
    <circle fill="none" stroke="#000" stroke-miterlimit="10" cx="234" cy="468" r="6"/>
    <path fill="#FEC200" d="M393 459a6 6 0 0 1-12 0 6 6 0 0 1 12 0"/>
    <circle fill="none" stroke="#000" stroke-miterlimit="10" cx="387" cy="459" r="6"/>
    <path fill="#BC1E47" d="M546 450c0 3.313-2.688 6-6 6s-6-2.687-6-6 2.688-6 6-6 6 2.687 6 6"/>
    <circle fill="none" stroke="#000" stroke-miterlimit="10" cx="540" cy="450" r="6"/>
    <path fill="#FEC200" d="M249 315a6 6 0 0 1-12 0 6 6 0 0 1 12 0"/>
    <circle fill="none" stroke="#000" stroke-miterlimit="10" cx="243" cy="315" r="6"/>
    <path fill="#FFF" d="M402 306a6 6 0 0 1-12 0 6 6 0 0 1 12 0"/>
    <circle fill="none" stroke="#000" stroke-miterlimit="10" cx="396" cy="306" r="6"/>
    <path fill="#FEC200" d="M555 297c0 3.313-2.688 6-6 6s-6-2.687-6-6 2.688-6 6-6 6 2.687 6 6"/>
    <circle fill="none" stroke="#000" stroke-miterlimit="10" cx="549" cy="297" r="6"/>
    <path fill="#BC1E47" d="M258 162a6 6 0 0 1-12 0 6 6 0 0 1 12 0"/>
    <circle fill="none" stroke="#000" stroke-miterlimit="10" cx="252" cy="162" r="6"/>
    <path fill="#FEC200" d="M411 153a6 6 0 0 1-12 0 6 6 0 0 1 12 0"/>
    <circle fill="none" stroke="#000" stroke-miterlimit="10" cx="405" cy="153" r="6"/>
    <path fill="#BC1E47" d="M564 144c0 3.313-2.688 6-6 6s-6-2.687-6-6 2.688-6 6-6 6 2.687 6 6"/>
    <circle fill="none" stroke="#000" stroke-miterlimit="10" cx="558" cy="144" r="6"/>
    <path fill="none" stroke="#000" stroke-miterlimit="10" d="M333 423l9-153 153-9-9 153z"/>
    <path fill="none" stroke="#000" stroke-miterlimit="10" d="M342 270l9-153 153-9-9 153zM486 414l9-153 153-9-9 153z"/>
    <path fill="none" stroke="#000" stroke-miterlimit="10" d="M495 261l9-153 153-9-9 153z"/>
    <path fill="#FEC200" d="M339 423a6 6 0 0 1-12 0 6 6 0 0 1 12 0"/>
    <circle fill="none" stroke="#000" stroke-miterlimit="10" cx="333" cy="423" r="6"/>
    <path fill="#FFF" d="M492 414a6 6 0 0 1-12 0 6 6 0 0 1 12 0"/>
    <circle fill="none" stroke="#000" stroke-miterlimit="10" cx="486" cy="414" r="6"/>
    <path fill="#FEC200" d="M645 405c0 3.313-2.688 6-6 6s-6-2.687-6-6 2.688-6 6-6 6 2.687 6 6"/>
    <circle fill="none" stroke="#000" stroke-miterlimit="10" cx="639" cy="405" r="6"/>
    <path fill="#FFF" d="M348 270a6 6 0 0 1-12 0 6 6 0 0 1 12 0"/>
    <circle fill="none" stroke="#000" stroke-miterlimit="10" cx="342" cy="270" r="6"/>
    <path d="M501 261c0 3.312-2.688 6-6 6a6 6 0 1 1 6-6"/>
    <circle fill="none" stroke="#000" stroke-miterlimit="10" cx="495" cy="261" r="6"/>
    <path fill="#FFF" d="M654 252c0 3.313-2.688 6-6 6s-6-2.687-6-6 2.688-6 6-6 6 2.687 6 6"/>
    <circle fill="none" stroke="#000" stroke-miterlimit="10" cx="648" cy="252" r="6"/>
    <path fill="#FEC200" d="M357 117a6 6 0 0 1-12 0 6 6 0 0 1 12 0"/>
    <circle fill="none" stroke="#000" stroke-miterlimit="10" cx="351" cy="117" r="6"/>
    <path fill="#FFF" d="M510 108c0 3.313-2.688 6-6 6s-6-2.687-6-6 2.688-6 6-6 6 2.687 6 6"/>
    <circle fill="none" stroke="#000" stroke-miterlimit="10" cx="504" cy="108" r="6"/>
    <path fill="#FEC200" d="M663 99c0 3.313-2.688 6-6 6s-6-2.687-6-6 2.688-6 6-6 6 2.687 6 6"/>
    <circle fill="none" stroke="#000" stroke-miterlimit="10" cx="657" cy="99" r="6"/>
    <path fill="none" stroke="#000" stroke-miterlimit="10" d="M432 378l9-153 153-9-9 153z"/>
    <path fill="none" stroke="#000" stroke-miterlimit="10" d="M441 225l9-153 153-9-9 153zM585 369l9-153 153-9-9 153z"/>
    <path fill="none" stroke="#000" stroke-miterlimit="10" d="M594 216l9-153 153-9-9 153z"/>
    <path fill="#BC1E47" d="M438 378a6 6 0 0 1-12 0 6 6 0 0 1 12 0"/>
    <circle fill="none" stroke="#000" stroke-miterlimit="10" cx="432" cy="378" r="6"/>
    <path fill="#FEC200" d="M591 369c0 3.313-2.688 6-6 6s-6-2.687-6-6 2.688-6 6-6 6 2.687 6 6"/>
    <circle fill="none" stroke="#000" stroke-miterlimit="10" cx="585" cy="369" r="6"/>
    <path fill="#BC1E47" d="M744 360c0 3.313-2.688 6-6 6s-6-2.687-6-6 2.688-6 6-6 6 2.687 6 6"/>
    <circle fill="none" stroke="#000" stroke-miterlimit="10" cx="738" cy="360" r="6"/>
    <path fill="#FEC200" d="M447 225a6 6 0 0 1-12 0 6 6 0 0 1 12 0"/>
    <circle fill="none" stroke="#000" stroke-miterlimit="10" cx="441" cy="225" r="6"/>
    <path fill="#FFF" d="M600 216c0 3.313-2.688 6-6 6s-6-2.687-6-6 2.688-6 6-6 6 2.687 6 6"/>
    <circle fill="none" stroke="#000" stroke-miterlimit="10" cx="594" cy="216" r="6"/>
    <path fill="#FEC200" d="M753 207c0 3.313-2.688 6-6 6s-6-2.687-6-6 2.688-6 6-6 6 2.687 6 6"/>
    <circle fill="none" stroke="#000" stroke-miterlimit="10" cx="747" cy="207" r="6"/>
    <path fill="#BC1E47" d="M456 72a6 6 0 0 1-12 0 6 6 0 0 1 12 0"/>
    <circle fill="none" stroke="#000" stroke-miterlimit="10" cx="450" cy="72" r="6"/>
    <path fill="#FEC200" d="M609 63c0 3.313-2.688 6-6 6s-6-2.687-6-6 2.688-6 6-6 6 2.687 6 6"/>
    <circle fill="none" stroke="#000" stroke-miterlimit="10" cx="603" cy="63" r="6"/>
    <path fill="#BC1E47" d="M762 54c0 3.313-2.688 6-6 6s-6-2.687-6-6 2.688-6 6-6 6 2.687 6 6"/>
    <circle fill="none" stroke="#000" stroke-miterlimit="10" cx="756" cy="54" r="6"/>
    <path fill="none" stroke="#000" stroke-miterlimit="10" d="M459 513l198-90M612 504l198-90M765 495l198-90M468 360l198-90M621 351l198-90M774 342l198-90M477 207l198-90M630 198l198-90M783 189l198-90M459 513l9-153 153-9-9 153z"/>
    <path fill="none" stroke="#000" stroke-miterlimit="10" d="M468 360l9-153 153-9-9 153zM612 504l9-153 153-9-9 153z"/>
    <path fill="none" stroke="#000" stroke-miterlimit="10" d="M621 351l9-153 153-9-9 153z"/>
    <path fill="#0081CD" d="M465 513a6 6 0 0 1-12 0 6 6 0 0 1 12 0"/>
    <circle fill="none" stroke="#000" stroke-miterlimit="10" cx="459" cy="513" r="6"/>
    <path fill="#BC1E47" d="M618 504c0 3.313-2.688 6-6 6s-6-2.687-6-6 2.688-6 6-6 6 2.687 6 6"/>
    <circle fill="none" stroke="#000" stroke-miterlimit="10" cx="612" cy="504" r="6"/>
    <path fill="#0081CD" d="M771 495c0 3.313-2.688 6-6 6s-6-2.687-6-6 2.688-6 6-6 6 2.687 6 6"/>
    <circle fill="none" stroke="#000" stroke-miterlimit="10" cx="765" cy="495" r="6"/>
    <path fill="#BC1E47" d="M474 360a6 6 0 0 1-12 0 6 6 0 0 1 12 0"/>
    <circle fill="none" stroke="#000" stroke-miterlimit="10" cx="468" cy="360" r="6"/>
    <path fill="#FEC200" d="M627 351c0 3.313-2.688 6-6 6s-6-2.687-6-6 2.688-6 6-6 6 2.687 6 6"/>
    <circle fill="none" stroke="#000" stroke-miterlimit="10" cx="621" cy="351" r="6"/>
    <path fill="#BC1E47" d="M780 342c0 3.313-2.688 6-6 6s-6-2.687-6-6 2.688-6 6-6 6 2.687 6 6"/>
    <circle fill="none" stroke="#000" stroke-miterlimit="10" cx="774" cy="342" r="6"/>
    <path fill="#0081CD" d="M483 207a6 6 0 0 1-12 0 6 6 0 0 1 12 0"/>
    <circle fill="none" stroke="#000" stroke-miterlimit="10" cx="477" cy="207" r="6"/>
    <path fill="#BC1E47" d="M636 198c0 3.313-2.688 6-6 6s-6-2.687-6-6 2.688-6 6-6 6 2.687 6 6"/>
    <circle fill="none" stroke="#000" stroke-miterlimit="10" cx="630" cy="198" r="6"/>
    <path fill="#0081CD" d="M789 189c0 3.313-2.688 6-6 6s-6-2.687-6-6 2.688-6 6-6 6 2.687 6 6"/>
    <circle fill="none" stroke="#000" stroke-miterlimit="10" cx="783" cy="189" r="6"/>
    <path fill="none" stroke="#000" stroke-miterlimit="10" d="M558 468l9-153 153-9-9 153z"/>
    <path fill="none" stroke="#000" stroke-miterlimit="10" d="M567 315l9-153 153-9-9 153zM711 459l9-153 153-9-9 153z"/>
    <path fill="none" stroke="#000" stroke-miterlimit="10" d="M720 306l9-153 153-9-9 153z"/>
    <path fill="#BC1E47" d="M564 468c0 3.313-2.688 6-6 6s-6-2.687-6-6 2.688-6 6-6 6 2.687 6 6"/>
    <circle fill="none" stroke="#000" stroke-miterlimit="10" cx="558" cy="468" r="6"/>
    <path fill="#FEC200" d="M717 459c0 3.313-2.688 6-6 6s-6-2.687-6-6 2.688-6 6-6 6 2.687 6 6"/>
    <circle fill="none" stroke="#000" stroke-miterlimit="10" cx="711" cy="459" r="6"/>
    <path fill="#BC1E47" d="M870 450c0 3.313-2.688 6-6 6s-6-2.687-6-6 2.688-6 6-6 6 2.687 6 6"/>
    <circle fill="none" stroke="#000" stroke-miterlimit="10" cx="864" cy="450" r="6"/>
    <path fill="#FEC200" d="M573 315c0 3.313-2.688 6-6 6s-6-2.687-6-6 2.688-6 6-6 6 2.687 6 6"/>
    <circle fill="none" stroke="#000" stroke-miterlimit="10" cx="567" cy="315" r="6"/>
    <path fill="#FFF" d="M726 306c0 3.313-2.688 6-6 6s-6-2.687-6-6 2.688-6 6-6 6 2.687 6 6"/>
    <circle fill="none" stroke="#000" stroke-miterlimit="10" cx="720" cy="306" r="6"/>
    <path fill="#FEC200" d="M879 297c0 3.313-2.688 6-6 6s-6-2.687-6-6 2.688-6 6-6 6 2.687 6 6"/>
    <circle fill="none" stroke="#000" stroke-miterlimit="10" cx="873" cy="297" r="6"/>
    <path fill="#BC1E47" d="M582 162c0 3.313-2.688 6-6 6s-6-2.687-6-6 2.688-6 6-6 6 2.687 6 6"/>
    <circle fill="none" stroke="#000" stroke-miterlimit="10" cx="576" cy="162" r="6"/>
    <path fill="#FEC200" d="M735 153c0 3.313-2.688 6-6 6s-6-2.687-6-6 2.688-6 6-6 6 2.687 6 6"/>
    <circle fill="none" stroke="#000" stroke-miterlimit="10" cx="729" cy="153" r="6"/>
    <path fill="#BC1E47" d="M888 144c0 3.313-2.688 6-6 6s-6-2.687-6-6 2.688-6 6-6 6 2.687 6 6"/>
    <circle fill="none" stroke="#000" stroke-miterlimit="10" cx="882" cy="144" r="6"/>
    <path fill="none" stroke="#000" stroke-miterlimit="10" d="M657 423l9-153 153-9-9 153z"/>
    <path fill="none" stroke="#000" stroke-miterlimit="10" d="M666 270l9-153 153-9-9 153zM810 414l9-153 153-9-9 153z"/>
    <path fill="none" stroke="#000" stroke-miterlimit="10" d="M819 261l9-153 153-9-9 153z"/>
    <path fill="#0081CD" d="M663 423c0 3.313-2.688 6-6 6s-6-2.687-6-6 2.688-6 6-6 6 2.687 6 6"/>
    <circle fill="none" stroke="#000" stroke-miterlimit="10" cx="657" cy="423" r="6"/>
    <path fill="#BC1E47" d="M816 414c0 3.313-2.688 6-6 6s-6-2.687-6-6 2.688-6 6-6 6 2.687 6 6"/>
    <circle fill="none" stroke="#000" stroke-miterlimit="10" cx="810" cy="414" r="6"/>
    <path fill="#0081CD" d="M969 405c0 3.313-2.688 6-6 6s-6-2.687-6-6 2.688-6 6-6 6 2.687 6 6"/>
    <circle fill="none" stroke="#000" stroke-miterlimit="10" cx="963" cy="405" r="6"/>
    <path fill="#BC1E47" d="M672 270c0 3.313-2.688 6-6 6s-6-2.687-6-6 2.688-6 6-6 6 2.687 6 6"/>
    <circle fill="none" stroke="#000" stroke-miterlimit="10" cx="666" cy="270" r="6"/>
    <path fill="#FEC200" d="M825 261c0 3.312-2.688 6-6 6s-6-2.688-6-6c0-3.313 2.688-6 6-6s6 2.687 6 6"/>
    <circle fill="none" stroke="#000" stroke-miterlimit="10" cx="819" cy="261" r="6"/>
    <path fill="#BC1E47" d="M978 252c0 3.313-2.688 6-6 6s-6-2.687-6-6 2.688-6 6-6 6 2.687 6 6"/>
    <circle fill="none" stroke="#000" stroke-miterlimit="10" cx="972" cy="252" r="6"/>
    <path fill="#0081CD" d="M681 117c0 3.313-2.688 6-6 6s-6-2.687-6-6 2.688-6 6-6 6 2.687 6 6"/>
    <circle fill="none" stroke="#000" stroke-miterlimit="10" cx="675" cy="117" r="6"/>
    <path fill="#BC1E47" d="M834 108c0 3.313-2.688 6-6 6s-6-2.687-6-6 2.688-6 6-6 6 2.687 6 6"/>
    <circle fill="none" stroke="#000" stroke-miterlimit="10" cx="828" cy="108" r="6"/>
    <path fill="#0081CD" d="M987 99c0 3.313-2.688 6-6 6s-6-2.687-6-6 2.688-6 6-6 6 2.687 6 6"/>
    <circle fill="none" stroke="#000" stroke-miterlimit="10" cx="981" cy="99" r="6"/>
</svg>
