<svg xmlns="http://www.w3.org/2000/svg" width="990" height="522">
    <g fill="none" stroke="#000">
        <path d="M9 423l450 90M108 378l450 90M207 333l450 90M18 270l450 90M117 225l450 90M216 180l450 90M27 117l450 90M126 72l450 90M225 27l450 90M162 414l450 90M261 369l450 90M360 324l450 90M171 261l450 90M270 216l450 90M369 171l450 90M180 108l450 90M279 63l450 90M378 18l450 90M315 405l450 90M414 360l450 90M513 315l450 90M324 252l450 90M423 207l450 90M522 162l450 90M333 99l450 90M432 54l450 90M531 9l450 90M9 423l198-90m-45 81l198-90m-45 81l198-90M18 270l198-90m-45 81l198-90m-45 81l198-90M27 117l198-90m-45 81l198-90m-45 81L531 9M9 423l9-153 153-9-9 153z"/>
        <path d="M18 270l9-153 153-9-9 153zm144 144l9-153 153-9-9 153z"/>
        <path d="M171 261l9-153 153-9-9 153z"/>
        <path d="M108 378l9-153 153-9-9 153z"/>
        <path d="M117 225l9-153 153-9-9 153zm144 144l9-153 153-9-9 153z"/>
        <path d="M270 216l9-153 153-9-9 153z"/>
        <path d="M207 333l9-153 153-9-9 153z"/>
        <path d="M216 180l9-153 153-9-9 153zm144 144l9-153 153-9-9 153z"/>
        <path d="M369 171l9-153 153-9-9 153zM234 468l198-90m-45 81l198-90m-45 81l198-90m-495-45l198-90m-45 81l198-90m-45 81l198-90m-495-45l198-90m-45 81l198-90m-45 81l198-90M234 468l9-153 153-9-9 153z"/>
        <path d="M243 315l9-153 153-9-9 153zm144 144l9-153 153-9-9 153z"/>
        <path d="M396 306l9-153 153-9-9 153z"/>
        <path d="M333 423l9-153 153-9-9 153z"/>
        <path d="M342 270l9-153 153-9-9 153zm144 144l9-153 153-9-9 153z"/>
        <path d="M495 261l9-153 153-9-9 153z"/>
        <path d="M432 378l9-153 153-9-9 153z"/>
        <path d="M441 225l9-153 153-9-9 153zm144 144l9-153 153-9-9 153z"/>
        <path d="M594 216l9-153 153-9-9 153zM459 513l198-90m-45 81l198-90m-45 81l198-90m-495-45l198-90m-45 81l198-90m-45 81l198-90m-495-45l198-90m-45 81l198-90m-45 81l198-90M459 513l9-153 153-9-9 153z"/>
        <path d="M468 360l9-153 153-9-9 153zm144 144l9-153 153-9-9 153z"/>
        <path d="M621 351l9-153 153-9-9 153z"/>
        <path d="M558 468l9-153 153-9-9 153z"/>
        <path d="M567 315l9-153 153-9-9 153zm144 144l9-153 153-9-9 153z"/>
        <path d="M720 306l9-153 153-9-9 153z"/>
        <path d="M657 423l9-153 153-9-9 153z"/>
        <path d="M666 270l9-153 153-9-9 153zm144 144l9-153 153-9-9 153z"/>
        <path d="M819 261l9-153 153-9-9 153z"/>
    </g>
    <circle stroke="#000" cx="495" cy="261" r="6"/>
    <g fill="#0081CD" stroke="#000">
        <circle cx="9" cy="423" r="6"/>
        <circle cx="27" cy="117" r="6"/>
        <circle cx="207" cy="333" r="6"/>
        <circle cx="225" cy="27" r="6"/>
        <circle cx="315" cy="405" r="6"/>
        <circle cx="333" cy="99" r="6"/>
        <circle cx="459" cy="513" r="6"/>
        <circle cx="477" cy="207" r="6"/>
        <circle cx="513" cy="315" r="6"/>
        <circle cx="531" cy="9" r="6"/>
        <circle cx="657" cy="423" r="6"/>
        <circle cx="675" cy="117" r="6"/>
        <circle cx="765" cy="495" r="6"/>
        <circle cx="783" cy="189" r="6"/>
        <circle cx="963" cy="405" r="6"/>
        <circle cx="981" cy="99" r="6"/>
    </g>
    <g fill="#BC1E47" stroke="#000">
        <circle cx="18" cy="270" r="6"/>
        <circle cx="108" cy="378" r="6"/>
        <circle cx="126" cy="72" r="6"/>
        <circle cx="162" cy="414" r="6"/>
        <circle cx="180" cy="108" r="6"/>
        <circle cx="216" cy="180" r="6"/>
        <circle cx="234" cy="468" r="6"/>
        <circle cx="252" cy="162" r="6"/>
        <circle cx="324" cy="252" r="6"/>
        <circle cx="360" cy="324" r="6"/>
        <circle cx="378" cy="18" r="6"/>
        <circle cx="414" cy="360" r="6"/>
        <circle cx="432" cy="54" r="6"/>
        <circle cx="432" cy="378" r="6"/>
        <circle cx="450" cy="72" r="6"/>
        <circle cx="468" cy="360" r="6"/>
        <circle cx="522" cy="162" r="6"/>
        <circle cx="540" cy="450" r="6"/>
        <circle cx="558" cy="144" r="6"/>
        <circle cx="558" cy="468" r="6"/>
        <circle cx="576" cy="162" r="6"/>
        <circle cx="612" cy="504" r="6"/>
        <circle cx="630" cy="198" r="6"/>
        <circle cx="666" cy="270" r="6"/>
        <circle cx="738" cy="360" r="6"/>
        <circle cx="756" cy="54" r="6"/>
        <circle cx="774" cy="342" r="6"/>
        <circle cx="810" cy="414" r="6"/>
        <circle cx="828" cy="108" r="6"/>
        <circle cx="864" cy="450" r="6"/>
        <circle cx="882" cy="144" r="6"/>
        <circle cx="972" cy="252" r="6"/>
    </g>
    <g fill="#FEC200" stroke="#000">
        <circle cx="117" cy="225" r="6"/>
        <circle cx="171" cy="261" r="6"/>
        <circle cx="243" cy="315" r="6"/>
        <circle cx="261" cy="369" r="6"/>
        <circle cx="279" cy="63" r="6"/>
        <circle cx="333" cy="423" r="6"/>
        <circle cx="351" cy="117" r="6"/>
        <circle cx="369" cy="171" r="6"/>
        <circle cx="387" cy="459" r="6"/>
        <circle cx="405" cy="153" r="6"/>
        <circle cx="423" cy="207" r="6"/>
        <circle cx="441" cy="225" r="6"/>
        <circle cx="549" cy="297" r="6"/>
        <circle cx="567" cy="315" r="6"/>
        <circle cx="585" cy="369" r="6"/>
        <circle cx="603" cy="63" r="6"/>
        <circle cx="621" cy="351" r="6"/>
        <circle cx="639" cy="405" r="6"/>
        <circle cx="657" cy="99" r="6"/>
        <circle cx="711" cy="459" r="6"/>
        <circle cx="729" cy="153" r="6"/>
        <circle cx="747" cy="207" r="6"/>
        <circle cx="819" cy="261" r="6"/>
        <circle cx="873" cy="297" r="6"/>
    </g>
    <g fill="#FFF" stroke="#000">
        <circle cx="270" cy="216" r="6"/>
        <circle cx="342" cy="270" r="6"/>
        <circle cx="396" cy="306" r="6"/>
        <circle cx="486" cy="414" r="6"/>
        <circle cx="504" cy="108" r="6"/>
        <circle cx="594" cy="216" r="6"/>
        <circle cx="648" cy="252" r="6"/>
        <circle cx="720" cy="306" r="6"/>
    </g>
</svg>
