<svg width="400" height="400" xmlns="http://www.w3.org/2000/svg"><g stroke-width="1.5"><circle cx="150" cy="250" r="100" fill="none" stroke="#000"/><path fill="none" stroke="#0081cd" d="M125 140l36.604 10.675L370 140"/><g fill="none" stroke="#fec200"><path d="M150 250L50-190M150 250L590 30M-21.04 611.587l342.08-723.174M-211.587 78.96l723.174 342.08M-12.681 559.274L329.399-163.9M-203.229 26.647l723.175 342.08"/></g><g fill="none" stroke="#bc1e46"><path d="M31.506 471.696c9.329-19.312 13.532-27.947 19.163-39.519a6907.02 6907.02 0 0 1 14.471-29.593c5.676-11.549 8.6-17.47 13.38-27.072a3335.232 3335.232 0 0 1 12.31-24.542c4.847-9.568 7.31-14.379 11.267-21.999 4.45-8.567 6.694-12.818 10.258-19.44 4.068-7.56 6.102-11.244 9.282-16.864 3.507-6.196 5.133-9.036 8.34-14.274 3.566-5.82 5.692-9.215 8.964-13.979 3.662-5.333 5.508-7.767 8.35-11.232 3.454-4.213 5.223-6.004 7.796-8.458 3.26-3.11 4.953-4.243 7.1-5.751 2.525-1.774 3.54-2.286 5.818-3.322 2.545-1.157 4.276-1.776 6.978-2.496 2.418-.644 3.527-.892 6.604-1.123 2.616-.196 4.644-.394 9.137-.057 3.546.265 6.05.527 11.392 1.593 4.395.876 7.366 1.587 13.58 3.387 5.551 1.608 9.348 2.883 15.797 5.121 5.801 2.015 8.86 3.18 15.501 5.745 6.024 2.327 9.933 3.886 17.874 7.149 6.955 2.858 11.385 4.721 20.26 8.522 7.894 3.38 12.85 5.537 22.665 9.86 8.837 3.89 14.321 6.333 25.084 11.164a5199.208 5199.208 0 0 1 27.516 12.442 6910.11 6910.11 0 0 1 29.959 13.698c11.693 5.373 20.42 9.383 39.882 18.395M285.212-76.322c-9.33 19.312-13.532 27.947-19.164 39.519a6890.055 6890.055 0 0 1-14.47 29.593c-5.677 11.55-8.601 17.47-13.38 27.072a3330.968 3330.968 0 0 1-12.31 24.542c-4.848 9.568-7.31 14.379-11.268 21.999-4.45 8.568-6.693 12.818-10.257 19.44-4.07 7.56-6.103 11.245-9.283 16.864-3.507 6.196-5.133 9.037-8.34 14.274-3.566 5.821-5.692 9.215-8.964 13.979-3.662 5.333-5.508 7.767-8.35 11.233-3.454 4.212-5.223 6.003-7.796 8.458-3.26 3.11-4.953 4.243-7.1 5.75-2.525 1.774-3.54 2.286-5.818 3.322-2.545 1.157-4.276 1.776-6.977 2.496-2.419.644-3.527.892-6.605 1.123-2.616.196-4.643.394-9.136.058-3.547-.266-6.05-.528-11.393-1.594-4.395-.876-7.366-1.587-13.58-3.387-5.55-1.608-9.348-2.883-15.796-5.121-5.802-2.014-8.86-3.179-15.502-5.744-6.023-2.328-9.933-3.886-17.874-7.15-6.955-2.858-11.385-4.721-20.26-8.522-7.894-3.38-12.849-5.537-22.665-9.86A3335.143 3335.143 0 0 1-16.16 110.86a5191.683 5191.683 0 0 1-27.516-12.442 6885.873 6885.873 0 0 1-29.958-13.699c-11.694-5.373-20.42-9.383-39.882-18.395"/></g></g><g stroke="#000"><g fill="#0081cd"><circle cx="125" cy="140" r="4"/><circle cx="370" cy="140" r="4"/></g><g fill="#fec200"><circle cx="130.354" cy="163.556" r="3"/><circle cx="186.364" cy="231.818" r="3"/><circle cx="158.359" cy="197.687" r="3"/></g><circle cx="161.604" cy="150.675" r="3" fill="#bc1e46"/></g></svg>