<?xml version="1.0" encoding="utf-8"?>
<!DOCTYPE svg PUBLIC "-//W3C//DTD SVG 1.1//EN" "http://www.w3.org/Graphics/SVG/1.1/DTD/svg11.dtd">
<svg version="1.1" id="Layer_1" xmlns="http://www.w3.org/2000/svg" xmlns:xlink="http://www.w3.org/1999/xlink" x="0px" y="0px"
	 width="666.204px" height="416.491px" viewBox="0 0 666.204 416.491" enable-background="new 0 0 666.204 416.491"
	 xml:space="preserve">
<line fill="none" stroke="#AADBC2" stroke-miterlimit="10" stroke-dasharray="3" x1="36" y1="35.999" x2="675.204" y2="36"/>
<line fill="none" stroke="#AADBC2" stroke-miterlimit="10" stroke-dasharray="3" x1="36" y1="107.999" x2="666.204" y2="108"/>
<line fill="none" stroke="#AADBC2" stroke-miterlimit="10" stroke-dasharray="3" x1="36" y1="179.999" x2="666.204" y2="180"/>
<line fill="none" stroke="#AADBC2" stroke-miterlimit="10" stroke-dasharray="3" x1="36" y1="251.999" x2="666.204" y2="252"/>
<line fill="none" stroke="#AADBC2" stroke-miterlimit="10" stroke-dasharray="3" x1="36" y1="323.999" x2="666.204" y2="324"/>
<line fill="none" stroke="#AADBC2" stroke-miterlimit="10" stroke-dasharray="3" x1="108.203" y1="360" x2="108" y2="0"/>
<line fill="none" stroke="#AADBC2" stroke-miterlimit="10" stroke-dasharray="3" x1="144.203" y1="360" x2="144.203" y2="0"/>
<line fill="none" stroke="#AADBC2" stroke-miterlimit="10" stroke-dasharray="3" x1="180.203" y1="360" x2="180.203" y2="0"/>
<line fill="none" stroke="#AADBC2" stroke-miterlimit="10" stroke-dasharray="3" x1="72.203" y1="360" x2="72.203" y2="0"/>
<line fill="none" stroke="#AADBC2" stroke-miterlimit="10" stroke-dasharray="3" x1="252.203" y1="360" x2="252" y2="0"/>
<line fill="none" stroke="#AADBC2" stroke-miterlimit="10" stroke-dasharray="3" x1="288.203" y1="360" x2="288.203" y2="0"/>
<line fill="none" stroke="#AADBC2" stroke-miterlimit="10" stroke-dasharray="3" x1="324.203" y1="360" x2="324.203" y2="0"/>
<line fill="none" stroke="#AADBC2" stroke-miterlimit="10" stroke-dasharray="3" x1="216.203" y1="360" x2="216.203" y2="0"/>
<line fill="none" stroke="#AADBC2" stroke-miterlimit="10" stroke-dasharray="3" x1="396.204" y1="360" x2="396" y2="0"/>
<line fill="none" stroke="#AADBC2" stroke-miterlimit="10" stroke-dasharray="3" x1="432.204" y1="360" x2="432.204" y2="0"/>
<line fill="none" stroke="#AADBC2" stroke-miterlimit="10" stroke-dasharray="3" x1="468.204" y1="360" x2="468.204" y2="0"/>
<line fill="none" stroke="#AADBC2" stroke-miterlimit="10" stroke-dasharray="3" x1="360.204" y1="360" x2="360.204" y2="0"/>
<line fill="none" stroke="#AADBC2" stroke-miterlimit="10" stroke-dasharray="3" x1="540.204" y1="360" x2="540" y2="0"/>
<line fill="none" stroke="#AADBC2" stroke-miterlimit="10" stroke-dasharray="3" x1="576.204" y1="360" x2="576.204" y2="0"/>
<line fill="none" stroke="#AADBC2" stroke-miterlimit="10" stroke-dasharray="3" x1="612.204" y1="360" x2="612.204" y2="0"/>
<line fill="none" stroke="#AADBC2" stroke-miterlimit="10" stroke-dasharray="3" x1="648.204" y1="360" x2="648.204" y2="0"/>
<line fill="none" stroke="#AADBC2" stroke-miterlimit="10" stroke-dasharray="3" x1="504.204" y1="360" x2="504.204" y2="0"/>
<polyline fill="none" stroke="#000000" stroke-width="3" stroke-miterlimit="10" points="81.203,306 108.204,252 144.204,180
	180.204,252 216.204,180 252.204,252 288.204,324 324.203,252 360.203,324 396.204,252 432.204,180 468.204,252 504.204,180
	540.204,108 576.204,180 612.204,108 648.204,36 "/>
<circle fill="#0081CD" stroke="#231F20" stroke-miterlimit="10" cx="142.384" cy="386" r="9"/>
<circle fill="#0081CD" stroke="#231F20" stroke-miterlimit="10" cx="214.385" cy="386" r="9"/>
<circle fill="#0081CD" stroke="#231F20" stroke-miterlimit="10" cx="466.385" cy="386" r="9"/>
<circle fill="#0081CD" stroke="#231F20" stroke-miterlimit="10" cx="106.385" cy="386" r="9"/>
<circle fill="#0081CD" stroke="#231F20" stroke-miterlimit="10" cx="108.204" cy="252" r="9"/>
<circle fill="#0081CD" stroke="#231F20" stroke-miterlimit="10" cx="144.204" cy="180" r="9"/>
<circle fill="#0081CD" stroke="#231F20" stroke-miterlimit="10" cx="180.204" cy="252" r="9"/>
<circle fill="#0081CD" stroke="#231F20" stroke-miterlimit="10" cx="216.204" cy="180" r="9"/>
<circle fill="#0081CD" stroke="#231F20" stroke-miterlimit="10" cx="252.204" cy="252" r="9"/>
<circle fill="#0081CD" stroke="#231F20" stroke-miterlimit="10" cx="288.204" cy="324" r="9"/>
<rect x="169.384" y="377" fill="#BC1E47" stroke="#231F20" stroke-miterlimit="10" width="18" height="18"/>
<rect x="241.385" y="377" fill="#BC1E47" stroke="#231F20" stroke-miterlimit="10" width="18" height="18"/>
<rect x="349.385" y="377" fill="#BC1E47" stroke="#231F20" stroke-miterlimit="10" width="18" height="18"/>
<rect x="385.385" y="377" fill="#BC1E47" stroke="#231F20" stroke-miterlimit="10" width="18" height="18"/>
<rect x="421.385" y="377" fill="#BC1E47" stroke="#231F20" stroke-miterlimit="10" width="18" height="18"/>
<rect x="529.385" y="377" fill="#BC1E47" stroke="#231F20" stroke-miterlimit="10" width="18" height="18"/>
<rect x="493.385" y="377" fill="#BC1E47" stroke="#231F20" stroke-miterlimit="10" width="18" height="18"/>
<rect x="637.385" y="377" fill="#BC1E47" stroke="#231F20" stroke-miterlimit="10" width="18" height="18"/>
<rect x="601.385" y="377" fill="#BC1E47" stroke="#231F20" stroke-miterlimit="10" width="18" height="18"/>
<polygon fill="#FEC200" stroke="#231F20" stroke-miterlimit="10" points="286.384,378 295.789,373.055 293.993,383.528
	301.601,390.944 291.086,392.471 286.384,402 281.682,392.471 271.167,390.944 278.776,383.528 276.979,373.055 "/>
<polygon fill="#FEC200" stroke="#231F20" stroke-miterlimit="10" points="322.384,378 331.789,373.055 329.993,383.528
	337.601,390.944 327.086,392.471 322.384,402 317.682,392.471 307.167,390.944 314.776,383.528 312.979,373.055 "/>
<polygon fill="#FEC200" stroke="#231F20" stroke-miterlimit="10" points="574.385,378 583.79,373.055 581.993,383.528
	589.602,390.944 579.086,392.471 574.385,402 569.682,392.471 559.168,390.944 566.776,383.528 564.981,373.055 "/>
<text transform="matrix(1 0 0 1 66.2036 331.9995)" font-family="Liberation Serif" font-weight="bold" font-size="24">?</text>
<polygon fill="#FEC200" stroke="#231F20" stroke-miterlimit="10" points="324.203,244 333.608,239.056 331.812,249.528
	339.42,256.944 328.905,258.472 324.203,268 319.501,258.472 308.986,256.944 316.595,249.528 314.798,239.056 "/>
<polygon fill="#FEC200" stroke="#231F20" stroke-miterlimit="10" points="360.203,316 369.608,311.055 367.812,321.528
	375.42,328.944 364.905,330.471 360.203,340 355.501,330.471 344.986,328.944 352.595,321.528 350.798,311.055 "/>
<rect x="387.204" y="243" fill="#BC1E47" stroke="#231F20" stroke-miterlimit="10" width="18" height="18"/>
<rect x="423.204" y="171" fill="#BC1E47" stroke="#231F20" stroke-miterlimit="10" width="18" height="18"/>
<rect x="459.204" y="243" fill="#BC1E47" stroke="#231F20" stroke-miterlimit="10" width="18" height="18"/>
<rect x="495.204" y="171" fill="#BC1E47" stroke="#231F20" stroke-miterlimit="10" width="18" height="18"/>
<rect x="531.204" y="99" fill="#BC1E47" stroke="#231F20" stroke-miterlimit="10" width="18" height="18"/>
<rect x="567.204" y="171" fill="#BC1E47" stroke="#231F20" stroke-miterlimit="10" width="18" height="18"/>
<rect x="603.204" y="99" fill="#BC1E47" stroke="#231F20" stroke-miterlimit="10" width="18" height="18"/>
<rect x="639.204" y="27" fill="#BC1E47" stroke="#231F20" stroke-miterlimit="10" width="18" height="18"/>
<line fill="none" stroke="#009246" stroke-width="2" stroke-miterlimit="10" x1="666.204" y1="360" x2="0" y2="359.999"/>
<line fill="none" stroke="#009246" stroke-width="2" stroke-miterlimit="10" x1="34.587" y1="416.491" x2="35.56" y2="0"/>
<text transform="matrix(1 0 0 1 12 331.9985)" font-family="Liberation Serif" font-style="normal" font-size="24">0</text>
<text transform="matrix(1 0 0 1 12 259.999)" font-family="Liberation Serif" font-style="normal" font-size="24">1</text>
<text transform="matrix(1 0 0 1 12 187.999)" font-family="Liberation Serif" font-style="normal" font-size="24">2</text>
<text transform="matrix(1 0 0 1 12 115.999)" font-family="Liberation Serif" font-style="normal" font-size="24">3</text>
<text transform="matrix(1 0 0 1 12 43.999)" font-family="Liberation Serif" font-style="normal" font-size="24">4</text>
</svg>
