<svg xmlns="http://www.w3.org/2000/svg" width="394" height="381"><g stroke="#000"><path fill="#dd8ea2" d="M180 171h36v36h-36z"/><path d="M180 171l-18-36h72l-18 36h-36zm36 36h-36l-18 36h72l-18-36z" fill="#bc1e46"/><path d="M126 117l-18-36h180l-18 36-36 18h-72l-36-18zm-18 180l18-36 36-18h72l36 18 18 36H108z" fill="#fec200"/><path d="M288 81l36-18v252l-36-18-18-36V117l18-36zm-180 0L72 63v252l36-18 18-36V117l-18-36z" fill="#0081cd"/><path d="M72 63L54 27h288l-18 36-36 18H108L72 63zm252 252l18 36H54l18-36 36-18h180l36 18z" fill="#ffefbf"/><path d="M234 135l36-18v144l-36-18-18-36v-36l18-36zm-72 0l18 36v36l-18 36-36 18V117l36 18zM342 27l36-18v360l-36-18-18-36V63l18-36zM54 351l-36 18V9l36 18 18 36v252l-18 36z" fill="#7fc0e6"/></g></svg>