<svg xmlns="http://www.w3.org/2000/svg" width="1191" height="612"><g fill="none" stroke="#000"><path d="M1170 593.9c0-106.6-57.9-199.6-144-249.4-86.2-49.6-195.7-53.3-288 0-92.3 53.3-201.9 49.7-288 0-86.2-49.6-195.7-53.3-288 0C75.9 394.3 18 487.4 18 593.9"/><path d="M1169.8 594.4c0-20.4-3.6-40-10.2-58.1-7-19.2-17.1-36.3-29.5-51.1-12.4-14.8-22.5-31.9-29.5-51.1-7-19.2-17.1-36.3-29.5-51.1-13.1-15.6-28.5-28.3-45.2-38-17.7-10.2-36.4-16.9-55.4-20.2-20.1-3.5-40-3.4-59 0s-38.9 3.5-59 0-40-3.4-59 0c-20.1 3.5-38.8 10.5-55.5 20.1-16.7 9.7-35.4 16.6-55.5 20.1-19 3.4-38.9 3.5-59 0s-40-3.4-59 0-38.9 3.5-59 0c-19-3.3-37.8-10-55.4-20.2-17.7-10.2-36.4-16.9-55.4-20.2-20.1-3.5-40-3.4-59 0s-38.9 3.5-59 0-40-3.4-59 0c-20.1 3.5-38.8 10.5-55.5 20.1-17.7 10.2-32.8 23.1-45.2 37.9-13.1 15.6-22.9 33-29.5 51.1-6.6 18.1-16.4 35.5-29.5 51.1-13.1 15.6-22.9 33-29.5 51.1-7 19.2-10.3 38.8-10.3 58.1"/><path d="M18 594C18 275.9 275.9 18 594 18s576 257.9 576 576"/><g fill="#bc1e46"><circle cx="18" cy="594" r="9"/><circle cx="1170" cy="594" r="9"/></g><g fill="#fec200"><circle cx="162" cy="344.6" r="7.5"/><circle cx="450" cy="344.5" r="7.5"/><circle cx="738" cy="344.5" r="7.5"/><circle cx="1026" cy="344.4" r="7.5"/></g><g fill="#7fc8a2"><circle cx="505.4" cy="364.7" r="6"/><circle cx="564.4" cy="364.8" r="6"/><circle cx="623.5" cy="364.8" r="6"/><circle cx="682.5" cy="364.9" r="6"/><circle cx="394.5" cy="324.3" r="6"/><circle cx="335.5" cy="324.2" r="6"/><circle cx="276.5" cy="324.2" r="6"/><circle cx="217.5" cy="324.2" r="6"/><circle cx="116.8" cy="382.2" r="6"/><circle cx="87.2" cy="433.3" r="6"/><circle cx="57.7" cy="484.4" r="6"/><circle cx="28.1" cy="535.5" r="6"/><circle cx="970.5" cy="324.7" r="6"/><circle cx="911.5" cy="324.7" r="6"/><circle cx="852.5" cy="324.6" r="6"/><circle cx="793.4" cy="324.6" r="6"/><circle cx="1159.5" cy="536.3" r="6"/><circle cx="1130.1" cy="485.2" r="6"/><circle cx="1100.6" cy="434" r="6"/><circle cx="1071.1" cy="382.9" r="6"/></g></g></svg>