<svg xmlns="http://www.w3.org/2000/svg" width="1176.8" height="522"><g fill="none" stroke="#047391"><path d="M432.3 503.9l-157.8-44.4-157.8 44.4-6.6-163.8-91-136.4 153.8-56.9L274.5 18.1l101.6 128.7 153.8 56.9-91 136.4-6.6 163.8z"/><path d="M432.3 503.9l29.9-156.3 67.7-143.9L390.5 127l-116-108.9-116 108.9-139.4 76.7 67.7 143.9 29.9 156.3L274.5 484l157.8 19.9z"/><path d="M438.9 340.1l-164.4 49.2-164.4-49.2 104.1-136.5 161.9-56.8-4 171.5-97.6 141.2-97.6-141.2-4-171.5 161.9 56.8 104.1 136.5z"/><path d="M462.2 347.6l-187.7 41.7-187.7-41.7 127.4-144L390.5 127l-18.4 191.3L274.5 484l-97.6-165.7L158.5 127l176.3 76.6 127.4 144zm605.1-7.5l-164.4 49.2-164.4-49.2 104.1-136.5 161.9-56.8-4 171.5-97.6 141.2-97.6-141.2-4-171.5 161.9 56.8 104.1 136.5z"/><path d="M1090.6 347.6l-187.7 41.7-187.7-41.7 127.4-144 176.3-76.6-18.4 191.3L902.9 484l-97.6-165.7L786.9 127l176.3 76.6 127.4 144z"/><path d="M1060.7 503.9l-157.8-44.4-157.8 44.4-6.6-163.8-90.9-136.4 153.7-56.9L902.9 18.1l101.6 128.7 153.8 56.9-91 136.4-6.6 163.8z"/><path d="M1060.7 503.9l29.9-156.3 67.7-143.9-139.4-76.7-116-108.9-116 108.9-139.3 76.7 67.6 143.9 29.9 156.3L902.9 484l157.8 19.9z"/></g><g stroke="#000"><path d="M786.9 127l116-108.9-101.6 128.7 161.9 56.8 127.4 144-29.9 156.3 6.6-163.8-164.4 49.2-187.7-41.7-67.6-143.9 90.9 136.4 104.1-136.5 176.3-76.6 139.4 76.7-153.8-56.9-4 171.5L902.9 484l-157.8 19.9 157.8-44.4-97.6-141.2L786.9 127zM86.8 347.6L19.1 203.7l153.8-56.9 161.9 56.8 127.4 144-29.9 156.3-157.8-44.4-97.6-141.2L158.5 127l116-108.9 101.6 128.7-4 171.5L274.5 484l-157.8 19.9-6.6-163.8 104.1-136.5L390.5 127l139.4 76.7-91 136.4-164.4 49.2-187.7-41.7z" fill="none" stroke-width="4"/><g fill="#7fc0e6"><circle cx="274.5" cy="484" r="6"/><circle cx="274.5" cy="459.5" r="6"/><circle cx="110.1" cy="340.1" r="6"/><circle cx="86.8" cy="347.6" r="6"/><circle cx="172.9" cy="146.8" r="6"/><circle cx="158.5" cy="127" r="6"/><circle cx="376.1" cy="146.8" r="6"/><circle cx="390.5" cy="127" r="6"/><circle cx="462.2" cy="347.6" r="6"/><circle cx="438.9" cy="340.1" r="6"/><circle cx="902.9" cy="484" r="6"/><circle cx="902.9" cy="459.5" r="6"/><circle cx="738.5" cy="340.1" r="6"/><circle cx="715.2" cy="347.6" r="6"/><circle cx="801.3" cy="146.8" r="6"/><circle cx="786.9" cy="127" r="6"/><circle cx="1004.5" cy="146.8" r="6"/><circle cx="1018.9" cy="127" r="6"/><circle cx="1090.6" cy="347.6" r="6"/><circle cx="1067.3" cy="340.1" r="6"/></g><g fill="#bc1e46"><circle cx="116.7" cy="503.9" r="6"/><circle cx="432.3" cy="503.9" r="6"/><circle cx="529.9" cy="203.7" r="6"/><circle cx="274.5" cy="18.1" r="6"/><circle cx="19.1" cy="203.7" r="6"/><circle cx="274.5" cy="389.3" r="6"/><circle cx="372.1" cy="318.3" r="6"/><circle cx="334.8" cy="203.6" r="6"/><circle cx="214.2" cy="203.6" r="6"/><circle cx="176.9" cy="318.3" r="6"/><circle cx="745.1" cy="503.9" r="6"/><circle cx="1060.7" cy="503.9" r="6"/><circle cx="1158.3" cy="203.7" r="6"/><circle cx="902.9" cy="18.1" r="6"/><circle cx="647.6" cy="203.7" r="6"/><circle cx="902.9" cy="389.3" r="6"/><circle cx="1000.5" cy="318.3" r="6"/><circle cx="963.2" cy="203.6" r="6"/><circle cx="842.6" cy="203.6" r="6"/><circle cx="805.3" cy="318.3" r="6"/></g></g></svg>