<svg xmlns="http://www.w3.org/2000/svg" width="1737" height="540"><path d="M1098 90v144m72-144v144m360 144v144m72-144v144M1224 90v144m18 144v144m72-144h144v144h-144z" fill="none" stroke="#BC1E46" stroke-width="3"/><g fill="none" stroke="#000"><path d="M1593 126l36 36-36 36m108-108l-72 72 72 72m0 0V90m0 144s27-45 27-72-27-72-27-72"/><path d="M1701 90s-27 45-27 72 27 72 27 72M1170 90h-72l72 144h-72zm432 288h-72l72 144h-72zM810 162l-72 144 72 144"/><path d="M810 234l-72 72 72 72m0-216l144 144-144 144"/><path d="M810 234l144 72-144 72"/><path d="M738 378h-72l72-144h72l72 72-72 72h-72l-72-144h72l72-72 72 144-72 144-72-72M162 234V90h144l-108 72h72l36 72"/><path d="M162 234l36-72-36-72 108 72 36-72v144M162 378H18V234l72 108v-72l72-36"/><path d="M162 378l-72-36-72 36 72-108-72-36h144m1080 288h-144V378l72 108v-72l72-36"/><path d="M1242 522l-72-36-72 36 72-108-72-36h144m-936 0v144H162l108-72h-72l-36-72"/><path d="M306 378l-36 72 36 72-108-72-36 72V378m432 0v144H450l108-72h-72l-36-72"/><path d="M594 378l-36 72 36 72-108-72-36 72V378m-144 0l36-72-36-72h72l-36 72 36 72zm72 0l36-72-36-72h72l-36 72 36 72zm216 0l36-72-36-72h72l-36 72 36 72zM450 162V18h144L486 90h72l36 72"/><path d="M450 162l36-72-36-72 108 72 36-72v144m0 72l-72-36-72 36v-72l72 36 72-36zm738-216l-72 144 72 144"/><path d="M1332 90l-72 72 72 72m0-216l144 144-144 144"/><path d="M1332 90l144 72-144 72"/><path d="M1224 90l108-72 72 144-72 144-108-72"/><path d="M1224 90h108l72 72-72 72h-108"/><g fill="#7FC0E6"><circle cx="738" cy="306" r="9"/><circle cx="954" cy="306" r="9"/><circle cx="1566" cy="450" r="9"/><circle cx="198" cy="162" r="9"/><circle cx="162" cy="90" r="9"/><circle cx="270" cy="162" r="9"/><circle cx="306" cy="90" r="9"/><circle cx="90" cy="342" r="9"/><circle cx="18" cy="378" r="9"/><circle cx="90" cy="270" r="9"/><circle cx="18" cy="234" r="9"/><circle cx="1170" cy="486" r="9"/><circle cx="1098" cy="522" r="9"/><circle cx="1170" cy="414" r="9"/><circle cx="1098" cy="378" r="9"/><circle cx="270" cy="450" r="9"/><circle cx="306" cy="522" r="9"/><circle cx="198" cy="450" r="9"/><circle cx="162" cy="378" r="9"/><circle cx="162" cy="234" r="9"/><circle cx="162" cy="522" r="9"/><circle cx="558" cy="450" r="9"/><circle cx="594" cy="522" r="9"/><circle cx="486" cy="450" r="9"/><circle cx="450" cy="522" r="9"/><circle cx="306" cy="234" r="9"/><circle cx="306" cy="378" r="9"/><circle cx="630" cy="306" r="9"/><circle cx="666" cy="234" r="9"/><circle cx="810" cy="234" r="9"/><circle cx="810" cy="162" r="9"/><circle cx="666" cy="378" r="9"/><circle cx="810" cy="450" r="9"/><circle cx="738" cy="378" r="9"/><circle cx="738" cy="234" r="9"/><circle cx="810" cy="378" r="9"/><circle cx="882" cy="306" r="9"/><circle cx="378" cy="234" r="9"/><circle cx="378" cy="378" r="9"/><circle cx="450" cy="162" r="9"/><circle cx="522" cy="198" r="9"/><circle cx="450" cy="234" r="9"/><circle cx="594" cy="162" r="9"/><circle cx="594" cy="234" r="9"/><circle cx="450" cy="378" r="9"/><circle cx="594" cy="378" r="9"/><circle cx="486" cy="90" r="9"/><circle cx="450" cy="18" r="9"/><circle cx="558" cy="90" r="9"/><circle cx="594" cy="18" r="9"/><circle cx="1260" cy="162" r="9"/><circle cx="1476" cy="162" r="9"/><circle cx="1332" cy="90" r="9"/><circle cx="1332" cy="18" r="9"/><circle cx="1332" cy="306" r="9"/><circle cx="1332" cy="234" r="9"/><circle cx="1404" cy="162" r="9"/></g><g fill="#FFE07F"><circle cx="1629" cy="162" r="9"/><circle cx="1701" cy="90" r="9"/><circle cx="1701" cy="234" r="9"/></g><g fill="#BC1E46"><circle cx="1242" cy="378" r="9"/><circle cx="1242" cy="522" r="9"/><circle cx="1224" cy="234" r="9"/><circle cx="1224" cy="90" r="9"/><circle cx="1098" cy="234" r="9"/><circle cx="1098" cy="90" r="9"/><circle cx="1170" cy="234" r="9"/><circle cx="1170" cy="90" r="9"/><circle cx="1530" cy="522" r="9"/><circle cx="1530" cy="378" r="9"/><circle cx="1602" cy="522" r="9"/><circle cx="1602" cy="378" r="9"/><circle cx="1458" cy="378" r="9"/><circle cx="1314" cy="378" r="9"/><circle cx="1314" cy="522" r="9"/><circle cx="1458" cy="522" r="9"/></g></g><path fill="none" stroke="#FEC200" stroke-width="20" d="M1584 162h-40.8"/><path fill="#FEC200" d="M1503 162c18.9-7 42.4-19 57-31.7l-11.5 31.7 11.5 31.7c-14.6-12.7-38.1-24.7-57-31.7z"/></svg>