<?xml version="1.0" encoding="UTF-8" standalone="no"?>
<!-- Creator: fig2dev Version 3.2 Patchlevel 5e -->

<!-- CreationDate: Sat Aug 10 21:54:26 2019 -->

<!-- Magnification: 1.050 -->

<svg
   xmlns:dc="http://purl.org/dc/elements/1.1/"
   xmlns:cc="http://creativecommons.org/ns#"
   xmlns:rdf="http://www.w3.org/1999/02/22-rdf-syntax-ns#"
   xmlns:svg="http://www.w3.org/2000/svg"
   xmlns="http://www.w3.org/2000/svg"
   xmlns:sodipodi="http://sodipodi.sourceforge.net/DTD/sodipodi-0.dtd"
   xmlns:inkscape="http://www.inkscape.org/namespaces/inkscape"
   width="228.17256"
   height="393.34033"
   viewBox="897 312 3079.273 5230.3079"
   id="svg3093"
   version="1.1"
   inkscape:version="0.48.5 r10040"
   sodipodi:docname="schrl-hyp-spir.svg">
  <metadata
     id="metadata3161">
    <rdf:RDF>
      <cc:Work
         rdf:about="">
        <dc:format>image/svg+xml</dc:format>
        <dc:type
           rdf:resource="http://purl.org/dc/dcmitype/StillImage" />
        <dc:title></dc:title>
      </cc:Work>
    </rdf:RDF>
  </metadata>
  <defs
     id="defs3159" />
  <sodipodi:namedview
     pagecolor="#ffffff"
     bordercolor="#666666"
     borderopacity="1"
     objecttolerance="10"
     gridtolerance="10"
     guidetolerance="10"
     inkscape:pageopacity="0"
     inkscape:pageshadow="2"
     inkscape:window-width="1287"
     inkscape:window-height="470"
     id="namedview3157"
     showgrid="false"
     units="mm"
     fit-margin-top="2"
     fit-margin-left="2"
     fit-margin-right="2"
     fit-margin-bottom="2"
     inkscape:zoom="0.76015597"
     inkscape:cx="114.08628"
     inkscape:cy="196.67017"
     inkscape:window-x="0"
     inkscape:window-y="0"
     inkscape:window-maximized="0"
     inkscape:current-layer="svg3093" />
  <g
     style="fill:none;stroke-width:0.025in"
     id="g3095"
     transform="translate(86.636476,42.282238)">
    <!-- Line -->
    <!--  polyline  -->
    <polyline
       points="946,4726 946,4748 950,4770 952,4793 957,4815 963,4837 972,4859 980,4880 991,4902 1002,4923 1015,4945 1029,4966 1045,4987 1062,5008 1081,5028 1100,5048 1121,5068 1143,5087 1166,5106 1191,5125 1216,5144 1244,5161 1271,5179 1300,5195 1331,5211 1361,5228 1394,5243 1426,5258 1460,5273 1495,5287 1530,5300 1566,5313 1605,5324 1643,5337 1680,5348 1720,5358 1760,5367 1800,5378 1841,5385 1883,5394 1925,5400 1968,5406 2011,5413 2054,5419 2098,5422 2141,5426 2185,5429 2230,5432 2275,5434 2320,5435 2362,5436 2405,5435 2450,5434 2494,5432 2539,5429 2583,5426 2626,5422 2670,5419 2713,5413 2756,5406 2799,5400 2841,5394 2883,5385 2924,5378 2964,5367 3004,5358 3044,5348 3082,5337 3120,5324 3159,5313 3194,5300 3230,5287 3265,5273 3298,5258 3331,5243 3363,5228 3394,5211 3424,5195 3454,5179 3481,5161 3508,5144 3533,5125 3559,5106 3582,5087 3604,5068 3625,5048 3644,5028 3662,5008 3679,4987 3695,4966 3709,4945 3722,4923 3734,4902 3744,4880 3753,4859 3761,4837 3767,4815 3772,4793 3775,4770 3778,4748 3778,4726 "
       style="stroke:#000000;stroke-width:16;stroke-linecap:butt;stroke-linejoin:round"
       id="polyline3097" />
    <!-- Line -->
    <!--  polyline  -->
    <polyline
       points="1318,3328 2362,431 "
       style="stroke:#0000cc;stroke-width:8;stroke-linecap:butt;stroke-linejoin:round"
       id="polyline3099" />
    <!-- Line -->
    <!--  polyline  -->
    <polyline
       points="3693,3127 2362,431 "
       style="stroke:#0000cc;stroke-width:8;stroke-linecap:butt;stroke-linejoin:round"
       id="polyline3101" />
    <!-- Line -->
    <!--  polyline  -->
    <polyline
       points="3778,4726 3778,4705 3775,4683 3772,4660 3767,4638 3761,4616 3753,4594 3744,4573 3734,4551 3722,4530 3709,4508 3695,4487 3679,4466 3662,4445 3644,4425 3625,4405 3604,4385 3582,4366 3559,4347 3533,4328 3508,4309 3481,4292 3454,4275 3424,4258 3394,4242 3363,4225 3331,4211 3298,4195 3265,4180 3230,4166 3194,4153 3159,4140 3120,4129 3082,4116 3044,4106 3004,4095 2964,4086 2924,4075 2883,4068 2841,4059 2799,4053 2756,4047 2713,4040 2670,4034 2626,4031 2583,4027 2539,4024 2494,4022 2450,4019 2405,4018 2362,4017 2320,4018 2275,4019 2230,4022 2185,4024 2141,4027 2098,4031 2054,4034 2011,4040 1968,4047 1925,4053 1883,4059 1841,4068 1800,4075 1760,4086 1720,4095 1680,4106 1643,4116 1605,4129 1566,4140 1530,4153 1495,4166 1460,4180 1426,4195 1394,4211 1361,4225 1331,4242 1300,4258 1271,4275 1244,4292 1216,4309 1191,4328 1166,4347 1143,4366 1121,4385 1100,4405 1081,4425 1062,4445 1045,4466 1029,4487 1015,4508 1002,4530 991,4551 980,4573 972,4594 963,4616 957,4638 952,4660 950,4683 946,4705 946,4726 "
       style="stroke:#000000;stroke-width:8;stroke-linecap:butt;stroke-linejoin:round"
       id="polyline3103" />
    <!-- Line -->
    <!--  polyline  -->
    <polyline
       points="3646,745 2362,431 "
       style="stroke:#0000cc;stroke-width:8;stroke-linecap:butt;stroke-linejoin:round"
       id="polyline3105" />
    <!-- Line -->
    <!--  polyline  -->
    <polyline
       points="948,1995 2362,431 "
       style="stroke:#0000cc;stroke-width:8;stroke-linecap:butt;stroke-linejoin:round"
       id="polyline3107" />
    <!-- Line -->
    <!--  polyline  -->
    <polyline
       points="2960,5369 2362,431 "
       style="stroke:#0000cc;stroke-width:8;stroke-linecap:butt;stroke-linejoin:round"
       id="polyline3109" />
    <!-- Line -->
    <!--  polyline  -->
    <polyline
       points="2960,1687 3000,1676 3039,1667 3078,1655 3117,1644 3154,1632 3190,1618 3226,1606 3261,1591 3295,1577 3329,1563 3360,1548 3392,1531 3421,1514 3450,1498 3478,1481 3505,1463 3530,1444 3555,1426 3579,1407 3602,1387 3622,1367 3641,1349 3660,1328 3677,1308 3693,1287 3708,1266 3721,1245 3732,1223 3743,1202 3752,1180 3760,1158 3766,1135 3772,1113 3775,1091 3777,1068 3778,1046 3778,1024 3776,1002 3773,980 3769,958 3762,936 3754,914 3745,893 3735,871 3723,849 3710,828 3696,807 3681,786 3664,766 3646,745 3626,725 3605,705 3584,685 3561,666 3537,647 3510,629 3484,613 3456,595 3427,578 3398,561 3367,544 3335,530 3302,515 3268,499 3234,486 3198,473 3162,459 3124,448 3087,435 3048,425 3009,414 2970,405 2929,394 2888,387 2846,379 2804,371 2761,365 2719,359 2676,353 2632,348 2588,345 2543,342 2499,340 2455,338 2411,337 2366,335 2323,335 2279,337 2235,339 2191,341 2146,344 2102,348 2059,352 2015,358 1972,364 1930,369 1888,376 1846,385 1805,392 1764,402 1724,411 1686,423 1647,433 1608,445 1570,456 1534,470 1499,482 1463,496 1429,512 1396,527 1364,541 1333,558 1303,574 1274,591 1247,607 1219,625 1194,643 1169,663 1146,682 1123,701 1103,721 1083,741 1064,761 1047,782 1032,803 1017,823 1003,845 993,866 981,888 973,910 964,932 958,954 952,975 950,998 948,1020 946,1042 946,1064 949,1086 952,1108 956,1130 962,1152 971,1174 979,1196 990,1218 1001,1239 1015,1260 1028,1281 1043,1302 1061,1323 1078,1343 1099,1363 1120,1383 1141,1402 1164,1421 1188,1441 1214,1459 1240,1477 1268,1495 1297,1511 1327,1527 1357,1544 1390,1560 1422,1573 1457,1589 1490,1603 1526,1616 1563,1629 1601,1641 1637,1653 1676,1665 1715,1674 1755,1685 1796,1694 1837,1702 1878,1711 1920,1717 1963,1724 2006,1730 2049,1736 2093,1739 2136,1743 2181,1746 2225,1750 2269,1752 2313,1753 2359,1754 2402,1753 2446,1752 2490,1751 2534,1748 2578,1744 2622,1740 2665,1737 2709,1732 2752,1725 2794,1719 2836,1712 2878,1703 2919,1695 2960,1687 "
       style="stroke:#000000;stroke-width:16;stroke-linecap:butt;stroke-linejoin:round"
       id="polyline3111" />
    <!-- Line -->
    <!--  spline  -->
    <polyline
       points="2399,4726 2399,4725 2398,4723 2398,4718 2397,4716 2397,4714 2396,4713 2396,4711 2394,4708 2392,4705 2389,4702 2388,4701 2387,4700 2386,4699 2383,4696 2380,4693 2379,4692 2377,4692 2376,4691 2373,4690 2369,4689 2366,4688 2364,4688 2362,4688 2361,4688 2359,4689 2354,4689 2352,4690 2351,4690 2349,4691 2347,4691 2344,4693 2341,4696 2338,4699 2337,4700 2335,4701 2334,4702 2332,4705 2330,4708 2329,4709 2329,4710 2328,4711 2327,4714 2326,4719 2325,4722 2325,4724 2325,4726 2325,4727 2326,4730 2326,4734 2327,4738 2327,4739 2328,4740 2328,4742 2330,4745 2332,4748 2334,4751 2335,4752 2337,4753 2338,4754 2341,4758 2344,4760 2346,4761 2348,4762 2351,4763 2355,4764 2358,4765 2360,4765 2362,4765 2363,4765 2365,4764 2370,4764 2372,4763 2373,4763 2374,4762 2376,4762 2380,4760 2383,4758 2386,4754 2387,4753 2388,4752 2389,4751 2392,4748 2394,4745 2395,4744 2396,4742 2397,4739 2398,4734 2399,4731 2399,4728 2399,4726 "
       style="stroke:#000000;stroke-width:8;stroke-linecap:butt;stroke-linejoin:bevel"
       id="polyline3113" />
    <!-- Line -->
    <!--  spline  -->
    <polyline
       points="2399,1044 2399,1043 2398,1041 2398,1036 2397,1034 2397,1033 2396,1030 2396,1028 2394,1025 2392,1022 2389,1019 2388,1018 2387,1017 2386,1016 2383,1014 2380,1012 2379,1011 2377,1011 2376,1009 2373,1008 2369,1007 2366,1006 2364,1006 2362,1006 2361,1006 2359,1007 2354,1007 2352,1008 2351,1008 2349,1009 2347,1009 2344,1012 2341,1014 2338,1016 2337,1017 2335,1018 2334,1019 2332,1022 2330,1025 2329,1026 2329,1027 2328,1029 2327,1033 2326,1037 2325,1040 2325,1042 2325,1044 2325,1045 2326,1048 2326,1053 2327,1056 2327,1057 2328,1058 2328,1060 2330,1063 2332,1066 2334,1069 2335,1070 2337,1070 2338,1072 2341,1075 2344,1077 2346,1078 2346,1079 2348,1079 2351,1081 2355,1082 2358,1083 2360,1083 2362,1083 2363,1083 2365,1082 2370,1082 2372,1081 2373,1081 2374,1080 2376,1079 2380,1077 2383,1075 2386,1072 2387,1070 2388,1070 2389,1069 2392,1066 2394,1063 2395,1062 2396,1060 2397,1057 2398,1053 2399,1049 2399,1046 2399,1044 "
       style="fill:#000000;stroke:#000000;stroke-width:8;stroke-linecap:butt;stroke-linejoin:bevel"
       id="polyline3115" />
    <!-- Line -->
    <!--  polyline  -->
    <polyline
       points="946,4726 946,1044 "
       style="stroke:#000000;stroke-width:16;stroke-linecap:butt;stroke-linejoin:round"
       id="polyline3117" />
    <!-- Line -->
    <!--  polyline  -->
    <polyline
       points="3778,4726 3778,1044 "
       style="stroke:#000000;stroke-width:16;stroke-linecap:butt;stroke-linejoin:round"
       id="polyline3119" />
    <!-- Line -->
    <!--  polyline  -->
    <polyline
       points="2362,4726 2362,1044 "
       style="stroke:#000000;stroke-width:8;stroke-linecap:butt;stroke-linejoin:round;stroke-dasharray:62, 31, 10, 31"
       id="polyline3121" />
    <!-- Line -->
    <!--  polyline  -->
    <polyline
       points="3776,4404 3765,4298 3749,4229 3723,4162 3692,4096 3655,4032 3611,3969 3561,3906 3504,3847 3442,3790 3374,3734 3302,3680 3225,3631 3143,3584 3058,3539 2970,3498 2877,3459 2783,3424 2686,3393 2588,3364 2488,3339 2388,3318 2290,3300 2191,3287 2091,3276 1994,3270 1899,3266 1805,3266 1714,3269 1626,3274 1543,3283 1463,3295 1388,3310 1318,3328 1253,3348 1194,3369 1141,3393 1093,3419 1051,3445 1017,3475 990,3504 967,3534 954,3566 948,3596 "
       style="stroke:#00b000;stroke-width:8;stroke-linecap:butt;stroke-linejoin:round"
       id="polyline3123" />
    <!-- Line -->
    <!--  polyline  -->
    <polyline
       points="3776,2766 3775,2722 3763,2654 3745,2585 3720,2518 3689,2453 3650,2389 3605,2326 3554,2263 3498,2204 3435,2146 3367,2092 3294,2038 3216,1989 3134,1942 3048,1898 2959,1857 2867,1819 2772,1783 2676,1753 2576,1724 2477,1700 2377,1679 2279,1662 2179,1649 2081,1638 1984,1632 1888,1629 1795,1629 1704,1632 1617,1638 1534,1648 1456,1659 1380,1675 1310,1693 1247,1713 1187,1735 1134,1758 1087,1784 1047,1813 1014,1841 986,1870 966,1902 952,1932 946,1965 "
       style="stroke:#00b000;stroke-width:8;stroke-linecap:butt;stroke-linejoin:round"
       id="polyline3125" />
    <!-- Line -->
    <!--  polyline  -->
    <polyline
       points="2960,5369 3049,5328 3135,5283 3217,5236 3295,5187 3369,5133 3435,5078 3498,5021 3555,4960 3606,4899 3651,4836 3689,4771 3721,4705 3746,4639 3764,4572 3775,4503 3778,4434 "
       style="stroke:#00b000;stroke-width:32;stroke-linecap:butt;stroke-linejoin:round"
       id="polyline3127" />
    <!-- Line -->
    <!--  polyline  -->
    <polyline
       points="948,1995 955,2028 971,2058 993,2089 1020,2118 1057,2148 1099,2174 1146,2200 1202,2223 1261,2244 1327,2264 1397,2282 1474,2296 1553,2307 1637,2316 1725,2322 1816,2325 1910,2324 2006,2319 2104,2311 2202,2301 2303,2286 2402,2267 2500,2246 2600,2221 2698,2193 2794,2160 2889,2125 2980,2087 3069,2045 3154,2001 3235,1951 3311,1902 3383,1847 3450,1793 3511,1735 3567,1674 3616,1612 3660,1548 3697,1484 3728,1418 3751,1351 3766,1282 3776,1214 3778,1146 3774,1078 3762,1009 3743,941 3717,875 3686,810 3646,745 "
       style="stroke:#00b000;stroke-width:32;stroke-linecap:butt;stroke-linejoin:round"
       id="polyline3129" />
    <!-- Line -->
    <!--  polyline  -->
    <polyline
       points="948,3629 954,3660 969,3692 990,3722 1017,3752 1053,3780 1093,3807 1141,3834 1194,3858 1254,3879 1319,3899 1390,3916 1464,3930 1544,3943 1628,3951 1715,3958 1806,3961 1899,3961 1995,3956 2093,3949 2193,3939 2291,3925 2389,3906 2490,3885 2590,3862 2687,3833 2784,3800 2878,3766 2971,3728 3059,3687 3144,3641 3226,3594 3303,3545 3375,3490 3443,3436 3505,3378 3561,3317 3611,3255 3655,3192 3693,3127 3724,3062 3749,2995 3765,2928 3775,2858 3778,2790 "
       style="stroke:#00b000;stroke-width:32;stroke-linecap:butt;stroke-linejoin:round"
       id="polyline3131" />
    <!-- Line -->
    <!--  polyline  -->
    <polyline
       points="2446,1137 2460,1133 2473,1129 2486,1126 2497,1122 2509,1118 2518,1111 2529,1106 2538,1101 2546,1095 2553,1088 2560,1082 2566,1075 2571,1067 2574,1060 2577,1053 2578,1044 2579,1037 2578,1029 2576,1021 2574,1014 2571,1006 2565,999 2559,992 2552,983 2544,978 2535,971 2525,964 2514,958 2502,953 2489,948 2476,942 2462,938 2447,935 2431,932 2416,929 2399,927 2383,924 2366,923 2351,922 2333,922 2317,923 2299,924 2282,928 2265,930 2248,933 2233,937 2216,940 2201,945 2187,952 2173,958 2160,963 2149,971 2137,979 2128,985 2118,995 2110,1002 2103,1012 2098,1021 2094,1030 2090,1040 2089,1049 2089,1059 2090,1068 2092,1079 2097,1088 2102,1098 2109,1107 2116,1117 2127,1126 2137,1134 2150,1143 2162,1150 2176,1159 2193,1166 2208,1171 2226,1177 2244,1184 2263,1188 2284,1192 2304,1195 2326,1198 2347,1201 2367,1202 2390,1202 2412,1202 2435,1201 2457,1198 2480,1195 2502,1192 2523,1188 2544,1183 2565,1176 2585,1169 2604,1163 2622,1154 2639,1146 2655,1137 2669,1126 2682,1116 2695,1105 2704,1093 2713,1082 2720,1068 2725,1057 2729,1043 2731,1030 2731,1017 2729,1003 2725,991 2720,978 2712,964 2703,952 2692,938 2678,925 2663,914 2647,902 2628,892 2608,880 2586,871 2563,861 2539,853 2512,846 2486,839 2457,833 2427,829 2397,825 2366,823 2338,820 2304,819 2272,820 2239,822 2207,825 2174,829 2142,833 2110,839 2079,848 2049,855 2020,866 1991,876 1964,889 1940,901 1916,916 1892,931 1872,946 1855,962 1838,980 1823,999 1813,1018 1803,1037 1797,1057 1794,1077 1793,1098 1794,1119 1799,1140 1807,1162 1818,1182 1832,1204 1849,1224 1869,1245 1892,1265 1919,1283 1947,1301 1980,1319 2014,1337 2052,1353 2092,1367 2135,1381 2181,1394 2228,1405 2278,1415 2330,1422 2383,1429 2438,1434 2495,1437 2553,1438 2614,1437 2674,1434 2734,1428 2795,1421 2856,1412 2918,1400 2978,1385 3038,1370 3098,1351 3154,1330 3210,1307 3265,1281 3316,1253 3365,1223 3413,1190 3456,1154 3495,1119 3530,1079 3562,1037 3589,994 3612,948 3629,899 3640,850 3646,798 3646,745 "
       style="stroke:#ff0000;stroke-width:32;stroke-linecap:butt;stroke-linejoin:round"
       id="polyline3133" />
    <!-- Line -->
    <!--  spline  -->
    <polyline
       points="2399,431 2399,430 2398,427 2398,423 2397,419 2397,418 2396,417 2396,415 2394,412 2392,409 2389,406 2388,405 2387,405 2386,403 2383,401 2380,398 2379,397 2377,396 2376,396 2373,394 2369,393 2366,392 2364,392 2362,392 2361,392 2359,393 2354,393 2352,394 2351,394 2349,395 2347,396 2344,398 2341,401 2338,403 2337,405 2335,405 2334,406 2332,409 2330,412 2329,413 2328,415 2327,418 2326,423 2325,426 2325,429 2325,431 2325,432 2326,434 2326,439 2327,441 2327,443 2328,445 2328,447 2330,450 2332,453 2334,456 2335,457 2337,458 2338,459 2341,461 2344,464 2346,465 2348,466 2351,467 2355,468 2358,469 2360,469 2362,469 2363,469 2365,468 2370,468 2372,467 2373,467 2374,466 2376,466 2380,464 2383,461 2386,459 2387,458 2388,457 2389,456 2392,453 2394,450 2395,449 2395,448 2396,446 2397,443 2398,438 2399,435 2399,433 2399,431 "
       style="fill:#0000cc;stroke:#0000cc;stroke-width:8;stroke-linecap:butt;stroke-linejoin:bevel"
       id="polyline3135" />
    <!-- Line -->
    <!--  spline  -->
    <polyline
       points="2998,5369 2998,5367 2997,5365 2997,5360 2996,5358 2996,5357 2996,5355 2995,5353 2994,5350 2992,5346 2990,5343 2987,5342 2987,5341 2985,5340 2982,5338 2979,5336 2977,5335 2975,5334 2972,5333 2967,5332 2964,5331 2962,5331 2960,5331 2959,5331 2957,5332 2952,5332 2950,5333 2949,5333 2946,5334 2944,5334 2941,5336 2938,5338 2935,5340 2934,5341 2933,5342 2932,5343 2930,5346 2928,5350 2927,5351 2927,5352 2925,5354 2924,5357 2923,5361 2922,5364 2922,5366 2922,5369 2922,5370 2923,5372 2923,5377 2924,5379 2924,5380 2925,5382 2925,5384 2928,5386 2930,5391 2932,5394 2933,5396 2934,5396 2935,5398 2938,5400 2941,5402 2942,5403 2943,5403 2945,5403 2949,5404 2953,5405 2956,5406 2958,5406 2960,5406 2961,5406 2963,5405 2969,5405 2971,5404 2972,5404 2974,5404 2976,5403 2978,5402 2982,5400 2985,5398 2987,5396 2990,5394 2992,5391 2994,5387 2995,5385 2995,5383 2996,5380 2997,5376 2998,5373 2998,5371 2998,5369 "
       style="fill:#00b000;stroke:#00b000;stroke-width:8;stroke-linecap:butt;stroke-linejoin:bevel"
       id="polyline3137" />
    <!-- Line -->
    <!--  spline  -->
    <polyline
       points="2485,1137 2485,1135 2483,1133 2483,1128 2482,1126 2482,1125 2481,1123 2481,1121 2479,1118 2477,1113 2475,1110 2474,1109 2473,1108 2472,1107 2469,1105 2466,1103 2465,1103 2464,1102 2462,1102 2458,1101 2454,1100 2451,1099 2448,1099 2446,1099 2445,1099 2443,1100 2438,1100 2436,1101 2435,1101 2433,1101 2431,1102 2428,1103 2425,1105 2422,1107 2420,1108 2419,1109 2418,1110 2416,1113 2414,1117 2413,1119 2413,1120 2412,1121 2411,1125 2410,1129 2409,1132 2409,1134 2409,1137 2409,1138 2410,1140 2410,1145 2411,1147 2411,1148 2412,1150 2412,1152 2414,1155 2416,1159 2418,1162 2419,1163 2420,1164 2422,1165 2425,1167 2428,1169 2430,1169 2430,1170 2432,1170 2435,1171 2439,1172 2441,1173 2444,1173 2446,1173 2447,1173 2450,1172 2454,1172 2457,1171 2458,1171 2460,1171 2462,1170 2466,1169 2469,1167 2472,1165 2473,1164 2474,1163 2475,1162 2477,1159 2479,1155 2480,1154 2480,1153 2481,1151 2482,1148 2483,1144 2485,1141 2485,1139 2485,1137 "
       style="fill:#ff0000;stroke:#ff0000;stroke-width:8;stroke-linecap:butt;stroke-linejoin:bevel"
       id="polyline3139" />
    <!-- Line -->
    <!--  spline  -->
    <polyline
       points="1356,3328 1356,3327 1355,3324 1355,3319 1354,3317 1354,3316 1353,3314 1353,3312 1351,3309 1349,3304 1346,3301 1345,3300 1344,3299 1343,3298 1340,3296 1337,3294 1336,3294 1336,3293 1334,3293 1331,3292 1327,3291 1323,3290 1320,3290 1318,3290 1317,3290 1315,3291 1310,3291 1308,3292 1307,3292 1304,3292 1302,3293 1299,3294 1296,3296 1293,3298 1292,3299 1291,3300 1290,3301 1288,3304 1286,3308 1285,3310 1285,3311 1283,3312 1282,3316 1281,3320 1280,3323 1280,3325 1280,3328 1280,3329 1281,3331 1281,3336 1282,3338 1282,3339 1283,3341 1283,3343 1286,3346 1288,3350 1290,3353 1291,3354 1292,3355 1293,3356 1296,3358 1299,3360 1300,3361 1301,3361 1303,3362 1307,3363 1311,3364 1314,3364 1316,3364 1318,3364 1319,3364 1322,3364 1327,3363 1330,3363 1331,3363 1332,3362 1334,3362 1337,3360 1340,3358 1343,3356 1344,3355 1345,3354 1346,3353 1349,3350 1351,3346 1352,3345 1352,3344 1353,3342 1354,3339 1355,3335 1356,3332 1356,3330 1356,3328 "
       style="stroke:#00b000;stroke-width:8;stroke-linecap:butt;stroke-linejoin:bevel"
       id="polyline3141" />
    <!-- Line -->
    <!--  spline  -->
    <polyline
       points="2212,958 2212,957 2211,954 2211,950 2209,946 2209,945 2208,944 2208,942 2206,939 2204,936 2201,933 2200,932 2199,931 2198,930 2195,927 2192,924 2191,923 2188,922 2185,921 2181,920 2178,919 2175,919 2173,919 2172,919 2170,920 2164,920 2162,921 2161,921 2160,922 2158,922 2155,924 2152,927 2149,930 2148,931 2148,932 2145,933 2143,936 2141,939 2140,940 2139,940 2139,942 2137,945 2136,950 2135,953 2135,956 2135,958 2135,959 2136,961 2136,966 2137,969 2137,970 2138,971 2139,973 2141,976 2143,979 2145,982 2148,983 2149,985 2152,987 2155,990 2156,991 2156,992 2158,992 2161,994 2165,995 2169,996 2171,996 2173,996 2174,996 2177,995 2181,995 2184,994 2185,994 2186,993 2188,992 2192,990 2195,987 2198,985 2199,983 2200,983 2201,982 2204,979 2206,976 2207,975 2208,973 2209,970 2211,965 2212,962 2212,960 2212,958 "
       style="fill:#ff0000;stroke:#ff0000;stroke-width:8;stroke-linecap:butt;stroke-linejoin:bevel"
       id="polyline3143" />
    <!-- Line -->
    <!--  spline  -->
    <polyline
       points="3731,3127 3731,3126 3731,3124 3730,3119 3730,3117 3730,3116 3729,3113 3728,3111 3725,3108 3723,3105 3721,3102 3719,3101 3718,3100 3715,3098 3712,3096 3711,3095 3711,3093 3709,3093 3706,3091 3701,3090 3698,3089 3695,3089 3693,3089 3692,3089 3690,3090 3685,3090 3682,3091 3681,3091 3679,3092 3677,3093 3674,3096 3670,3098 3667,3100 3666,3101 3665,3102 3662,3105 3660,3108 3659,3109 3659,3110 3658,3111 3657,3116 3656,3120 3655,3123 3655,3125 3655,3127 3655,3128 3656,3131 3656,3135 3657,3139 3657,3140 3658,3142 3659,3144 3660,3147 3662,3150 3665,3153 3666,3154 3666,3155 3667,3156 3670,3159 3673,3161 3675,3162 3676,3162 3677,3163 3681,3164 3686,3165 3689,3166 3691,3166 3693,3166 3694,3166 3697,3165 3701,3165 3704,3164 3706,3164 3707,3163 3709,3163 3712,3161 3715,3159 3718,3156 3719,3155 3719,3154 3721,3153 3723,3150 3725,3147 3727,3146 3728,3145 3729,3144 3730,3140 3731,3135 3731,3132 3731,3129 3731,3127 "
       style="fill:#00b000;stroke:#00b000;stroke-width:8;stroke-linecap:butt;stroke-linejoin:bevel"
       id="polyline3145" />
    <!-- Line -->
    <!--  spline  -->
    <polyline
       points="2732,1105 2732,1104 2731,1101 2731,1097 2730,1093 2730,1092 2729,1091 2729,1089 2727,1086 2725,1083 2723,1080 2722,1079 2721,1079 2720,1077 2717,1075 2713,1072 2712,1071 2711,1070 2709,1069 2706,1068 2702,1067 2699,1067 2697,1067 2695,1067 2693,1067 2690,1067 2686,1068 2683,1068 2682,1068 2681,1069 2679,1070 2676,1072 2672,1075 2669,1077 2668,1079 2666,1080 2664,1083 2662,1086 2661,1087 2660,1087 2660,1089 2658,1092 2657,1097 2656,1100 2656,1103 2656,1105 2656,1106 2657,1108 2657,1113 2658,1116 2658,1117 2659,1119 2660,1121 2662,1124 2664,1127 2666,1130 2668,1131 2668,1132 2669,1133 2672,1135 2676,1138 2677,1139 2679,1140 2682,1141 2686,1142 2689,1143 2692,1143 2695,1143 2696,1143 2698,1142 2703,1142 2705,1141 2706,1141 2708,1140 2710,1140 2713,1138 2717,1135 2720,1133 2721,1132 2722,1131 2723,1130 2725,1127 2727,1124 2728,1123 2728,1122 2729,1120 2730,1117 2731,1112 2732,1109 2732,1107 2732,1105 "
       style="fill:#ff0000;stroke:#ff0000;stroke-width:8;stroke-linecap:butt;stroke-linejoin:bevel"
       id="polyline3147" />
    <!-- Line -->
    <!--  spline  -->
    <polyline
       points="985,1995 985,1994 984,1992 984,1987 983,1985 983,1984 982,1982 982,1980 980,1976 978,1973 976,1970 975,1969 974,1969 973,1968 970,1966 966,1964 965,1963 964,1962 962,1961 959,1960 955,1959 952,1959 950,1959 948,1959 946,1959 943,1959 939,1960 936,1960 935,1960 934,1961 932,1962 929,1964 925,1966 922,1968 921,1969 919,1970 917,1973 915,1976 914,1977 913,1979 912,1980 911,1984 910,1988 910,1991 910,1993 910,1995 910,1996 910,1999 911,2004 911,2007 911,2008 912,2010 913,2012 915,2015 917,2018 919,2022 921,2023 921,2024 922,2025 925,2027 929,2029 930,2030 932,2031 935,2032 939,2033 942,2033 945,2033 948,2033 949,2033 951,2033 956,2032 958,2032 959,2032 961,2031 963,2031 966,2029 970,2027 973,2025 974,2024 975,2023 976,2022 978,2018 980,2015 981,2014 981,2013 982,2012 983,2008 984,2004 985,2001 985,1997 985,1995 "
       style="fill:#00b000;stroke:#00b000;stroke-width:8;stroke-linecap:butt;stroke-linejoin:bevel"
       id="polyline3149" />
    <!-- Line -->
    <!--  spline  -->
    <polyline
       points="1835,1057 1835,1056 1834,1053 1834,1048 1833,1045 1833,1044 1832,1043 1832,1041 1829,1038 1827,1035 1825,1032 1824,1030 1823,1029 1822,1028 1819,1026 1816,1024 1815,1023 1814,1023 1812,1022 1808,1021 1804,1020 1801,1019 1799,1019 1797,1019 1796,1019 1794,1020 1788,1020 1786,1021 1785,1021 1783,1022 1781,1022 1778,1024 1774,1026 1771,1028 1770,1029 1770,1030 1769,1032 1766,1035 1764,1038 1763,1039 1762,1041 1761,1044 1760,1048 1759,1051 1759,1055 1759,1057 1759,1058 1760,1060 1760,1065 1761,1067 1761,1068 1762,1070 1763,1072 1764,1076 1766,1079 1769,1082 1770,1083 1770,1084 1771,1085 1774,1087 1777,1089 1779,1090 1780,1090 1781,1091 1785,1092 1790,1093 1793,1095 1795,1095 1797,1095 1798,1095 1800,1093 1805,1093 1807,1092 1808,1092 1811,1091 1813,1091 1816,1089 1819,1087 1822,1085 1823,1084 1824,1083 1825,1082 1827,1079 1829,1076 1830,1075 1830,1074 1832,1071 1833,1068 1834,1064 1835,1061 1835,1059 1835,1057 "
       style="fill:#ff0000;stroke:#ff0000;stroke-width:8;stroke-linecap:butt;stroke-linejoin:bevel"
       id="polyline3151" />
    <!-- Line -->
    <!--  spline  -->
    <polyline
       points="3683,745 3683,744 3682,741 3682,737 3681,733 3681,732 3680,731 3680,729 3678,726 3676,723 3674,720 3673,719 3672,719 3671,717 3668,714 3665,712 3664,711 3662,710 3660,709 3657,708 3653,707 3650,707 3648,707 3646,707 3645,707 3643,707 3637,708 3635,708 3634,708 3632,709 3630,710 3627,712 3624,714 3620,717 3619,719 3618,719 3617,720 3615,723 3613,726 3612,727 3611,729 3610,732 3609,737 3608,740 3608,743 3608,745 3608,746 3609,748 3609,753 3610,755 3610,756 3611,759 3611,761 3613,764 3615,768 3617,771 3618,772 3619,772 3620,773 3624,775 3627,777 3628,779 3629,779 3631,780 3634,781 3638,782 3641,783 3644,783 3646,783 3647,783 3649,782 3654,782 3656,781 3657,781 3659,780 3661,779 3665,777 3668,775 3671,773 3672,772 3673,772 3674,771 3676,768 3678,765 3679,763 3679,762 3680,761 3681,756 3682,752 3683,749 3683,747 3683,745 "
       style="stroke:#cc0000;stroke-width:8;stroke-linecap:butt;stroke-linejoin:bevel"
       id="polyline3153" />
    <!-- Line -->
    <!--  spline  -->
    <polyline
       points="3683,745 3683,744 3682,741 3682,737 3681,733 3681,732 3680,731 3680,729 3678,726 3676,723 3674,720 3673,719 3672,719 3671,717 3668,714 3665,712 3664,711 3662,710 3660,709 3657,708 3653,707 3650,707 3648,707 3646,707 3645,707 3643,707 3637,708 3635,708 3634,708 3632,709 3630,710 3627,712 3624,714 3620,717 3619,719 3618,719 3617,720 3615,723 3613,726 3612,727 3611,729 3610,732 3609,737 3608,740 3608,743 3608,745 3608,746 3609,748 3609,753 3610,755 3610,756 3611,759 3611,761 3613,764 3615,768 3617,771 3618,772 3619,772 3620,773 3624,775 3627,777 3628,779 3629,779 3631,780 3634,781 3638,782 3641,783 3644,783 3646,783 3647,783 3649,782 3654,782 3656,781 3657,781 3659,780 3661,779 3665,777 3668,775 3671,773 3672,772 3673,772 3674,771 3676,768 3678,765 3679,763 3679,762 3680,761 3681,756 3682,752 3683,749 3683,747 3683,745 "
       style="fill:#00b000;stroke:#00b000;stroke-width:8;stroke-linecap:butt;stroke-linejoin:bevel"
       id="polyline3155" />
  </g>
</svg>
