<svg width="1000" height="1000" xmlns="http://www.w3.org/2000/svg"><path d="M-250 260h500v90h-500zm0-180h500v90h-500zm800 420l374.532 818.368 146.901-234.773zm0 0l593.23 356.886 9.434-208.386z" fill="#fec200"/><path d="M-250 170h500v90h-500zm800 330l521.433 583.595 71.798-226.71z" fill="#ffe07f"/><path d="M550-550v2000M250-1500v4000M-1450 950h4000m-4000-450h4000" fill="none" stroke="#666"/><g fill="none" stroke="#0081cd"><path d="M550 500l374.532 818.368M550 500l521.433 583.595M550 500l593.231 356.886M550 500l602.664 148.5M550 950L-125-400M550 950L-36.956-400M550 950L30.769-400M550 950L84.483-400M250 350h-500m500-90h-500m500-90h-500m500-90h-500"/><circle cx="550" cy="500" r="225"/><circle cx="550" cy="500" r="195.652"/><circle cx="550" cy="500" r="173.077"/><circle cx="550" cy="500" r="155.172"/></g><path d="M-416.302 936.614c38.71-.897 77.417-1.903 116.119-3.106 35.506-1.103 71.008-2.34 106.5-3.815 32.677-1.358 65.348-2.877 98.002-4.683 30.185-1.668 60.36-3.533 90.508-5.739 27.992-2.048 55.968-4.332 83.904-7.022 26.063-2.51 52.099-5.302 78.075-8.573 24.36-3.068 48.678-6.474 72.904-10.44 22.844-3.74 45.623-7.88 68.264-12.67 21.469-4.541 42.839-9.554 64.006-15.312 20.185-5.491 40.222-11.53 59.965-18.412 18.933-6.6 37.649-13.828 55.944-21.996 17.642-7.876 34.968-16.458 51.708-26.064 16.226-9.31 32.006-19.399 46.983-30.566 14.589-10.877 28.56-22.584 41.455-35.375 12.62-12.518 24.406-25.879 34.79-40.252 10.205-14.127 19.312-29.049 26.65-44.794 7.243-15.539 13.085-31.73 16.785-48.397 3.665-16.51 5.616-33.4 5.105-50.216-.51-16.793-2.734-33.533-8.126-49.182-6.028-17.496-14.434-34.172-25.607-48.725-9.918-12.917-22.576-23.732-36.603-32.303-12.498-7.637-26.618-12.62-41.163-15.216-13.106-2.34-26.707-1.896-39.866.751-11.965 2.407-23.42 7.353-33.732 14.055-9.45 6.142-17.6 14.286-24.146 23.56-6.037 8.555-10.266 18.386-12.701 28.643-2.259 9.514-2.509 19.504-1.04 29.235 1.368 9.07 4.648 17.85 9.343 25.795 4.395 7.437 10.355 13.949 17.26 19.22 6.488 4.954 14.017 8.545 21.936 10.705 7.465 2.037 15.357 2.508 23.08 1.576 7.302-.882 14.42-3.292 20.882-6.882 6.127-3.404 11.542-8.09 15.95-13.583 4.188-5.221 7.287-11.317 9.198-17.765 1.82-6.142 2.36-12.664 1.716-19.066-.614-6.111-2.501-12.095-5.399-17.54-2.77-5.21-6.624-9.841-11.182-13.625-4.367-3.624-9.486-6.343-14.923-8.046-5.218-1.634-10.774-2.186-16.242-1.715-5.255.453-10.416 1.995-15.121 4.42-4.53 2.333-8.575 5.603-11.889 9.496-3.192 3.752-5.61 8.164-7.141 12.864-1.478 4.535-2.019 9.374-1.659 14.146.348 4.609 1.646 9.146 3.728 13.289 2.014 4.005 4.853 7.596 8.25 10.543 3.288 2.852 7.164 5.027 11.303 6.416 4.01 1.346 8.296 1.867 12.529 1.583 4.104-.275 8.152-1.394 11.852-3.218 3.59-1.77 6.818-4.277 9.471-7.29 2.577-2.926 4.553-6.381 5.823-10.079 1.234-3.594 1.731-7.44 1.502-11.244-.223-3.7-1.205-7.352-2.826-10.696-1.578-3.254-3.823-6.184-6.53-8.596-2.635-2.35-5.753-4.16-9.094-5.329-3.256-1.139-6.745-1.612-10.198-1.423a25.96 25.96 0 0 0-9.745 2.518 25.385 25.385 0 0 0-7.87 5.911 24.834 24.834 0 0 0-4.91 8.285 24.305 24.305 0 0 0-1.348 9.33c.155 3.09.941 6.147 2.267 8.95a23.315 23.315 0 0 0 5.4 7.256 22.85 22.85 0 0 0 7.608 4.553 22.403 22.403 0 0 0 8.598 1.278 21.974 21.974 0 0 0 8.274-2.062 21.56 21.56 0 0 0 6.731-4.97 21.163 21.163 0 0 0 4.244-7.032 20.78 20.78 0 0 0 1.214-7.973 20.41 20.41 0 0 0-1.89-7.693 20.053 20.053 0 0 0-4.603-6.277 19.708 19.708 0 0 0-6.537-3.974 19.375 19.375 0 0 0-7.433-1.155c-2.477.1-4.934.703-7.189 1.743a18.74 18.74 0 0 0-5.88 4.287 18.44 18.44 0 0 0-3.736 6.108 18.148 18.148 0 0 0-1.1 6.961c.088 2.324.647 4.63 1.617 6.747a17.59 17.59 0 0 0 4.011 5.53 17.324 17.324 0 0 0 5.732 3.524 17.066 17.066 0 0 0 6.545 1.05 16.818 16.818 0 0 0 6.355-1.508 16.576 16.576 0 0 0 5.22-3.767 16.339 16.339 0 0 0 3.336-5.4 16.11 16.11 0 0 0 1.005-6.176 15.887 15.887 0 0 0-1.413-6.007 15.67 15.67 0 0 0-3.553-4.943 15.458 15.458 0 0 0-5.103-3.166 15.252 15.252 0 0 0-5.847-.962c-1.96.062-3.906.521-5.695 1.329a14.859 14.859 0 0 0-4.693 3.36 14.669 14.669 0 0 0-3.013 4.838 14.482 14.482 0 0 0-.923 5.551 14.3 14.3 0 0 0 1.254 5.414 14.125 14.125 0 0 0 3.189 4.468 13.955 13.955 0 0 0 4.598 2.873c1.678.639 3.486.938 5.283.887a13.624 13.624 0 0 0 5.16-1.187 13.464 13.464 0 0 0 4.262-3.033 13.307 13.307 0 0 0 2.747-4.382c.611-1.6.9-3.325.853-5.04a13.008 13.008 0 0 0-1.127-4.927 12.86 12.86 0 0 0-2.892-4.076 12.72 12.72 0 0 0-4.184-2.63 12.579 12.579 0 0 0-4.819-.823c-1.62.043-3.232.413-4.715 1.072a12.307 12.307 0 0 0-3.905 2.764 12.178 12.178 0 0 0-2.524 4.004 12.052 12.052 0 0 0-.793 4.616 11.925 11.925 0 0 0 1.023 4.52 11.803 11.803 0 0 0 2.646 3.748 11.683 11.683 0 0 0 3.839 2.426c1.405.542 2.92.802 4.429.765a11.452 11.452 0 0 0 4.342-.977 11.337 11.337 0 0 0 3.602-2.538 11.228 11.228 0 0 0 2.335-3.687 11.01 11.01 0 0 0-.196-8.434 10.806 10.806 0 0 0-5.984-5.718 10.604 10.604 0 0 0-8.121.182 10.411 10.411 0 0 0-5.515 5.762 10.226 10.226 0 0 0 .169 7.831 10.05 10.05 0 0 0 5.556 5.325 9.875 9.875 0 0 0 7.561-.157 9.707 9.707 0 0 0 5.148-5.364 9.547 9.547 0 0 0-.147-7.31 9.391 9.391 0 0 0-5.184-4.983 9.242 9.242 0 0 0-7.073.138 9.093 9.093 0 0 0-4.828 5.017 8.953 8.953 0 0 0 .13 6.852 8.816 8.816 0 0 0 4.86 4.682 8.683 8.683 0 0 0 6.645-.121 8.55 8.55 0 0 0 4.545-4.712 8.424 8.424 0 0 0-.114-6.45 8.304 8.304 0 0 0-4.573-4.416 8.317 8.317 0 0 0-3.158-.566 8.127 8.127 0 0 0-5.706 2.479 8.014 8.014 0 0 0-2.252 5.706 7.906 7.906 0 0 0 2.408 5.55 7.798 7.798 0 0 0 5.55 2.193 7.693 7.693 0 0 0 5.402-2.34 7.592 7.592 0 0 0 2.137-5.402 7.492 7.492 0 0 0-2.277-5.262 7.397 7.397 0 0 0-5.262-2.084 7.302 7.302 0 0 0-5.128 2.217 7.21 7.21 0 0 0-2.034 5.128 7.122 7.122 0 0 0 2.16 5.002 7.034 7.034 0 0 0 5.002 1.986 6.948 6.948 0 0 0 4.881-2.106 6.866 6.866 0 0 0 1.94-4.881 6.785 6.785 0 0 0-2.055-4.766 6.707 6.707 0 0 0-4.766-1.896 6.63 6.63 0 0 0-4.657 2.006A6.552 6.552 0 0 0 543.49 500a6.48 6.48 0 0 0 1.959 4.552 6.408 6.408 0 0 0 4.552 1.814 6.335 6.335 0 0 0 4.452-1.914 6.268 6.268 0 0 0 1.776-4.452 6.2 6.2 0 0 0-1.871-4.356 6.132 6.132 0 0 0-4.356-1.739 6.068 6.068 0 0 0-4.265 1.83 6.004 6.004 0 0 0-1.704 4.265 5.942 5.942 0 0 0 1.792 4.177 5.882 5.882 0 0 0 4.177 1.67 5.823 5.823 0 0 0 4.092-1.754A5.763 5.763 0 0 0 555.73 500a5.706 5.706 0 0 0-1.718-4.011 5.649 5.649 0 0 0-4.011-1.606 5.593 5.593 0 0 0-3.933 1.684 5.489 5.489 0 0 0-1.182 1.812 5.515 5.515 0 0 0 .049 4.217 5.463 5.463 0 0 0 2.987 2.92 5.414 5.414 0 0 0 4.137-.047 5.361 5.361 0 0 0 2.865-2.93 5.312 5.312 0 0 0-.045-4.06 5.263 5.263 0 0 0-2.876-2.813 5.215 5.215 0 0 0-3.987.044 5.167 5.167 0 0 0-2.763 2.824 5.123 5.123 0 0 0 .042 3.916 5.076 5.076 0 0 0 2.774 2.715c.61.242 1.272.365 1.931.358a5.012 5.012 0 0 0 3.523-1.503 4.968 4.968 0 0 0 1.416-3.523 4.926 4.926 0 0 0-1.476-3.463 4.884 4.884 0 0 0-3.463-1.393 4.842 4.842 0 0 0-3.405 1.451 4.802 4.802 0 0 0-1.37 3.405 4.762 4.762 0 0 0 1.426 3.348 4.722 4.722 0 0 0 3.348 1.348 4.682 4.682 0 0 0 3.294-1.403 4.646 4.646 0 0 0 1.327-3.29 4.607 4.607 0 0 0-1.38-3.241 4.573 4.573 0 0 0-3.241-1.306 4.536 4.536 0 0 0-3.19 1.357 4.498 4.498 0 0 0-1.286 3.19 4.465 4.465 0 0 0 1.336 3.14 4.431 4.431 0 0 0 3.14 1.267 4.398 4.398 0 0 0 3.093-1.315A4.363 4.363 0 0 0 554.34 500a4.33 4.33 0 0 0-1.294-3.046 4.296 4.296 0 0 0-3.046-1.23 4.267 4.267 0 0 0-3.001 1.275 4.236 4.236 0 0 0-1.212 3.001 4.203 4.203 0 0 0 1.256 2.957c.39.385.856.69 1.362.895a4.16 4.16 0 0 0 3.178-.028 4.128 4.128 0 0 0 2.212-2.25 4.1 4.1 0 0 0-.027-3.132 4.068 4.068 0 0 0-2.218-2.18 4.042 4.042 0 0 0-3.088.026 4.015 4.015 0 0 0-2.15 2.187 3.986 3.986 0 0 0 .025 3.045 3.959 3.959 0 0 0 2.156 2.12 3.933 3.933 0 0 0 3.004-.025 3.905 3.905 0 0 0 2.092-2.127 3.878 3.878 0 0 0-.024-2.963 3.853 3.853 0 0 0-2.098-2.064 3.825 3.825 0 0 0-2.923.024 3.802 3.802 0 0 0-2.037 2.07c-.187.458-.28.953-.277 1.447a3.764 3.764 0 0 0 1.121 2.648" fill="none" stroke="#bc1e46"/><g stroke="#000"><circle cx="550" cy="500" r="4"/><circle cx="550" cy="950" r="4"/><circle cx="250" cy="500" r="4"/><circle cx="250" cy="950" r="4"/></g><g fill="#0081cd" stroke="#000"><circle cx="643.633" cy="704.592" r="4"/><circle cx="680.358" cy="645.899" r="4"/><circle cx="698.308" cy="589.221" r="4"/><circle cx="700.666" cy="537.125" r="4"/><circle cx="325" cy="500" r="4"/><circle cx="354.348" cy="500" r="4"/><circle cx="376.923" cy="500" r="4"/><circle cx="394.828" cy="500" r="4"/><circle cx="250" cy="350" r="4"/><circle cx="250" cy="260" r="4"/><circle cx="250" cy="170" r="4"/><circle cx="250" cy="80" r="4"/></g><g font-family="Times,serif" font-style="italic" font-size="24"><text x="555" y="490">O</text><text x="555" y="940">A</text><text x="255" y="940">B</text><text x="255" y="490">C</text><text x="648.633" y="724.592">P</text><text x="685.358" y="665.899">Q</text><text x="703.308" y="609.221">R</text><text x="705.666" y="557.125">S</text><text x="295" y="525">P′</text><text x="330" y="525">Q′</text><text x="365" y="525">R′</text><text x="400" y="525">S′</text><text x="255" y="360">P″</text><text x="255" y="270">Q″</text><text x="255" y="180">R″</text><text x="255" y="90">S″</text></g></svg>