<?xml version="1.0" encoding="UTF-8" standalone="no"?>
<!DOCTYPE svg PUBLIC "-//W3C//DTD SVG 1.0//EN"
 "http://www.w3.org/TR/2001/REC-SVG-20010904/DTD/svg10.dtd" [
 <!ATTLIST svg xmlns:xlink CDATA #FIXED "http://www.w3.org/1999/xlink">
]>
<!-- Generated by Graphviz version 2.20.2 (Wed Jul &#160;9 19:59:08 GMT 2008)
 -->
<!-- Title: G Pages: 1 -->
<svg width="180pt" height="184pt"
 viewBox="0.00 0.00 180.00 184.00" xmlns="http://www.w3.org/2000/svg" xmlns:xlink="http://www.w3.org/1999/xlink">
<g id="graph0" class="graph" transform="scale(1 1) rotate(0) translate(4 180)">
<title>G</title>
<!-- 1 -->
<g id="node1" class="node"><title>1</title>
<ellipse style="fill:black;stroke:black;" cx="14" cy="-26" rx="3.6" ry="3.6"/>
</g>
<!-- 2 -->
<g id="node3" class="node"><title>2</title>
<ellipse style="fill:black;stroke:black;" cx="4" cy="-129" rx="3.6" ry="3.6"/>
</g>
<!-- 1&#45;&#45;2 -->
<g id="edge2" class="edge"><title>1&#45;&#45;2</title>
<path style="fill:none;stroke:red;stroke-width:1.5;" d="M14,-30C12,-46 6,-109 4,-125"/>
</g>
<!-- 3 -->
<g id="node5" class="node"><title>3</title>
<ellipse style="fill:black;stroke:black;" cx="116" cy="-4" rx="3.6" ry="3.6"/>
</g>
<!-- 1&#45;&#45;3 -->
<g id="edge4" class="edge"><title>1&#45;&#45;3</title>
<path style="fill:none;stroke:red;stroke-width:1.5;" d="M18,-25C34,-22 96,-8 112,-5"/>
</g>
<!-- 4 -->
<g id="node7" class="node"><title>4</title>
<ellipse style="fill:black;stroke:black;" cx="98" cy="-172" rx="3.6" ry="3.6"/>
</g>
<!-- 1&#45;&#45;4 -->
<g id="edge6" class="edge"><title>1&#45;&#45;4</title>
<path style="fill:none;stroke:blue;stroke-width:1.5;" d="M16,-29C27,-49 85,-149 96,-169"/>
</g>
<!-- 5 -->
<g id="node9" class="node"><title>5</title>
<ellipse style="fill:black;stroke:black;" cx="168" cy="-94" rx="3.6" ry="3.6"/>
</g>
<!-- 1&#45;&#45;5 -->
<g id="edge8" class="edge"><title>1&#45;&#45;5</title>
<path style="fill:none;stroke:blue;stroke-width:1.5;" d="M18,-28C38,-37 144,-84 165,-92"/>
</g>
<!-- 2&#45;&#45;3 -->
<g id="edge10" class="edge"><title>2&#45;&#45;3</title>
<path style="fill:none;stroke:blue;stroke-width:1.5;" d="M7,-126C22,-109 98,-24 113,-7"/>
</g>
<!-- 2&#45;&#45;4 -->
<g id="edge12" class="edge"><title>2&#45;&#45;4</title>
<path style="fill:none;stroke:red;stroke-width:1.5;" d="M8,-131C23,-137 80,-163 94,-170"/>
</g>
<!-- 2&#45;&#45;5 -->
<g id="edge14" class="edge"><title>2&#45;&#45;5</title>
<path style="fill:none;stroke:blue;stroke-width:1.5;" d="M8,-128C30,-123 143,-99 164,-95"/>
</g>
<!-- 3&#45;&#45;4 -->
<g id="edge16" class="edge"><title>3&#45;&#45;4</title>
<path style="fill:none;stroke:blue;stroke-width:1.5;" d="M116,-8C113,-31 101,-146 98,-168"/>
</g>
<!-- 3&#45;&#45;5 -->
<g id="edge18" class="edge"><title>3&#45;&#45;5</title>
<path style="fill:none;stroke:red;stroke-width:1.5;" d="M118,-7C126,-22 158,-76 166,-91"/>
</g>
<!-- 4&#45;&#45;5 -->
<g id="edge20" class="edge"><title>4&#45;&#45;5</title>
<path style="fill:none;stroke:red;stroke-width:1.5;" d="M101,-169C111,-157 154,-109 165,-97"/>
</g>
</g>
</svg>
