<svg xmlns="http://www.w3.org/2000/svg" width="972" height="513"><g fill="none" stroke="#000" stroke-width="2"><path d="M756 252c72 72 207 108 162 207M324 243c144 117 549 72 594 225"/><path d="M333 468l-9-216 162 216 72-432c-135 189-369 0-369 432m576-216L558 36M9 504l27-45 27 45"/><path d="M27 504l9-45 9 45m117 0l27-45 27 45"/><path d="M180 504l9-45 9 45m108 0l27-45 27 45"/><path d="M324 504l9-45 9 45m117 0l27-45 27 45"/><path d="M477 504l9-45 9 45m99 0l27-45 27 45"/><path d="M612 504l9-45 9 45m261 0l27-45 27 45"/><path d="M909 504l9-45 9 45M621 468l144-225"/></g><g stroke="#000" fill="#bfdff2"><path d="M9 441h63v45H9zm144 0h72v45h-72zm144 0h72v45h-72zm144 0h90v45h-90zm144 0h72v45h-72zm288 0h90v45h-90zM531 9h63v45h-63z"/><path fill="#ffefbf" d="M297 225h63v45h-63zm432 0h72v45h-72z"/></g><g font-family="Times-Roman,Times" font-size="24"><text transform="translate(540 36)"><tspan x="0" y="0">a: Ø</tspan></text><text transform="translate(306 252)"><tspan x="0" y="0">b: Ø</tspan></text><text transform="translate(738 252)"><tspan x="0" y="0">c: {a}</tspan></text><text transform="translate(18 468)"><tspan x="0" y="0">d: Ø</tspan></text><text transform="translate(162 468)"><tspan x="0" y="0">e: {a}</tspan></text><text transform="translate(306 468)"><tspan x="0" y="0">f: {b}</tspan></text><text transform="translate(450 468)"><tspan x="0" y="0">g: {a,b}</tspan></text><text transform="translate(594 468)"><tspan x="0" y="0">h: {c}</tspan></text><text transform="translate(882 468)"><tspan x="0" y="0">j: {b,c}</tspan></text></g></svg>