<svg xmlns="http://www.w3.org/2000/svg" width="1116" height="756"><g fill="#0081CD"><path opacity=".2" d="M846 486l252 36-108-72zm0 108l180 36-108-72zm0 108l216 36-108-72zm216 36l-36-108 72-108z"/><path opacity=".2" d="M990 450l-72 108 36 108zM846 702l-252-36 108 72zm0-108l-180-36 108 72zm0-108l-216-36 108 72zm-216-36l36 108-72 108z"/><path opacity=".2" d="M702 738l72-108-36-108z"/><path opacity=".25" d="M666 270l90-36 90 72zm0 0l45-72-90-36zm90-36l45-72-90-36zm-135-72l45-108 45 72z"/><path opacity=".25" d="M711 198l45-108 45 72zm45-108l90-72-180 36zm270-36l-90 36-90-72zm0 0l-45 72 90 36zm-90 36l-45 72 90 36zm135 72l-45 108-45-72z"/><path opacity=".25" d="M981 126l-45 108-45-72zm-45 108l-90 72 180-36z"/></g><g fill="none" stroke="#000"><path d="M162 738h144M162 594h144M162 450h144M18 666l144-72-144-72"/><path d="M18 522l144-72L18 666l144 72zM36 90v144L180 90v144L36 90zm0 0l72-72 72 72M36 234l72 72 72-72M288 90v144L432 90v144L288 90zm0 0l72-72 72 72M288 234l72 72 72-72M108 18h252M108 306h252m621-108l90-36-90-36-90 36 90 36zM936 90l90-36-180-36 90 72z"/><path d="M981 126l45-72 45 108-45 108-45-72-45-108-45 72 45 72 45-108z"/><path d="M936 234l90 36-180 36 90-72zM711 126l-90 36 90 36 90-36-90-36zm45 108l-90 36 180 36-90-72z"/><path d="M711 198l-45 72-45-108 45-108 45 72 45 108 45-72-45-72-45 108z"/><path d="M756 90l-90-36 180-36-90 72zM450 666l-144-72 144-72"/><path d="M450 522l-144-72 144 216-144 72zm396-36l252 36-108-72zm0 108l180 36-108-72zm0 108l216 36-108-72zm216 36l-36-108 72-108z"/><path d="M990 450l-72 108 36 108zM846 702l-252-36 108 72zm0-108l-180-36 108 72zm0-108l-216-36 108 72zm-216-36l36 108-72 108z"/><path d="M702 738l72-108-36-108z"/></g><g fill="#7FC0E6" stroke="#000"><circle cx="108" cy="18" r="9"/><circle cx="360" cy="18" r="9"/><circle cx="36" cy="90" r="9"/><circle cx="180" cy="90" r="9"/><circle cx="288" cy="90" r="9"/><circle cx="432" cy="90" r="9"/><circle cx="432" cy="234" r="9"/><circle cx="288" cy="234" r="9"/><circle cx="180" cy="234" r="9"/><circle cx="36" cy="234" r="9"/><circle cx="108" cy="306" r="9"/><circle cx="360" cy="306" r="9"/><circle cx="162" cy="450" r="9"/><circle cx="162" cy="594" r="9"/><circle cx="18" cy="522" r="9"/><circle cx="18" cy="666" r="9"/><circle cx="162" cy="738" r="9"/><circle cx="306" cy="450" r="9"/><circle cx="306" cy="594" r="9"/><circle cx="450" cy="522" r="9"/><circle cx="450" cy="666" r="9"/><circle cx="306" cy="738" r="9"/></g><g fill="#FFE07F" stroke="#000"><circle cx="756" cy="90" r="9"/><circle cx="846" cy="18" r="9"/><circle cx="936" cy="90" r="9"/><circle cx="1026" cy="54" r="9"/><circle cx="666" cy="54" r="9"/><circle cx="711" cy="126" r="9"/><circle cx="981" cy="126" r="9"/><circle cx="621" cy="162" r="9"/><circle cx="801" cy="162" r="9"/><circle cx="756" cy="234" r="9"/><circle cx="666" cy="270" r="9"/><circle cx="846" cy="306" r="9"/><circle cx="1026" cy="270" r="9"/><circle cx="981" cy="198" r="9"/><circle cx="936" cy="234" r="9"/><circle cx="891" cy="162" r="9"/><circle cx="1071" cy="162" r="9"/><circle cx="711" cy="198" r="9"/><circle cx="846" cy="486" r="9"/><circle cx="846" cy="594" r="9"/><circle cx="846" cy="702" r="9"/><circle cx="918" cy="558" r="9"/><circle cx="990" cy="450" r="9"/><circle cx="954" cy="666" r="9"/><circle cx="1026" cy="630" r="9"/><circle cx="1098" cy="522" r="9"/><circle cx="1062" cy="738" r="9"/><circle cx="774" cy="630" r="9"/><circle cx="702" cy="738" r="9"/><circle cx="738" cy="522" r="9"/><circle cx="666" cy="558" r="9"/><circle cx="594" cy="666" r="9"/><circle cx="630" cy="450" r="9"/></g></svg>