<svg xmlns="http://www.w3.org/2000/svg" width="939.9" height="642.4"><path fill="none" stroke="#BC1E46" d="M509.2 147.8l-54.5-14.4-56.4.2-54.4 14.8-48.8 28.4-39.7 40-28 49-14.4 54.5.3 56.4 14.8 54.4 28.3 48.7 40.1 39.7 48.9 28 54.5 14.4 56.4-.2 54.4-14.8 48.8-28.4 39.7-40 28-49 14.4-54.5-.3-56.4-14.8-54.4-28.3-48.7-40.1-39.7z"/><g stroke="#000" fill="#0081CD"><circle cx="509.2" cy="147.8" r="6"/><circle cx="454.7" cy="133.4" r="6"/><circle cx="398.3" cy="133.6" r="6"/><circle cx="343.9" cy="148.4" r="6"/><circle cx="295.1" cy="176.8" r="6"/><circle cx="269.5" cy="138.3" r="6"/><circle cx="233.2" cy="109.6" r="6"/><circle cx="189.9" cy="93.5" r="6"/><circle cx="143.7" cy="91.6" r="6"/><circle cx="99.1" cy="104.1" r="6"/><circle cx="60.6" cy="129.7" r="6"/><circle cx="31.9" cy="166" r="6"/><circle cx="15.9" cy="209.4" r="6"/><circle cx="14" cy="255.6" r="6"/><circle cx="26.5" cy="300.1" r="6"/><circle cx="52.1" cy="338.6" r="6"/><circle cx="88.4" cy="367.3" r="6"/><circle cx="131.7" cy="383.4" r="6"/><circle cx="177.9" cy="385.3" r="6"/><circle cx="261" cy="347.2" r="6"/><circle cx="289.7" cy="310.9" r="6"/><circle cx="305.7" cy="267.5" r="6"/><circle cx="307.6" cy="221.3" r="6"/><circle cx="255.4" cy="216.8" r="6"/><circle cx="227.4" cy="265.8" r="6"/><circle cx="213" cy="320.3" r="6"/><circle cx="213.3" cy="376.7" r="6"/><circle cx="228.1" cy="431.1" r="6"/><circle cx="256.4" cy="479.8" r="6"/><circle cx="296.5" cy="519.5" r="6"/><circle cx="345.4" cy="547.5" r="6"/><circle cx="399.9" cy="561.9" r="6"/><circle cx="456.3" cy="561.7" r="6"/><circle cx="510.7" cy="546.9" r="6"/><circle cx="559.5" cy="518.5" r="6"/><circle cx="599.2" cy="478.5" r="6"/><circle cx="627.2" cy="429.5" r="6"/><circle cx="693" cy="445" r="6"/><circle cx="760.3" cy="439.5" r="6"/><circle cx="822.6" cy="413.4" r="6"/><circle cx="873.9" cy="369.3" r="6"/><circle cx="908.9" cy="311.5" r="6"/><circle cx="924.5" cy="245.8" r="6"/><circle cx="918.9" cy="178.4" r="6"/><circle cx="892.8" cy="116.1" r="6"/><circle cx="848.7" cy="64.9" r="6"/><circle cx="790.9" cy="29.8" r="6"/><circle cx="725.2" cy="14.2" r="6"/><circle cx="657.8" cy="19.8" r="6"/><circle cx="595.5" cy="45.9" r="6"/><circle cx="544.3" cy="90" r="6"/><circle cx="493.7" cy="213.5" r="6"/><circle cx="499.2" cy="280.9" r="6"/><circle cx="456.1" cy="333.6" r="6"/><circle cx="433.6" cy="397.9" r="6"/><circle cx="434.5" cy="466" r="6"/><circle cx="458.6" cy="529.7" r="6"/><circle cx="503" cy="581.3" r="6"/><circle cx="562.4" cy="614.7" r="6"/><circle cx="629.6" cy="625.6" r="6"/><circle cx="696.6" cy="613" r="6"/><circle cx="755.1" cy="578.2" r="6"/><circle cx="798.2" cy="525.4" r="6"/><circle cx="820.7" cy="461.1" r="6"/><circle cx="819.9" cy="393" r="6"/><circle cx="795.8" cy="329.3" r="6"/><circle cx="751.3" cy="277.7" r="6"/><circle cx="691.9" cy="244.4" r="6"/><circle cx="624.7" cy="233.4" r="6"/><circle cx="557.8" cy="246.1" r="6"/><circle cx="525.3" cy="343.2" r="6"/><circle cx="569.4" cy="394.4" r="6"/><circle cx="641.6" cy="375" r="6"/><circle cx="641.3" cy="318.6" r="6"/><circle cx="626.5" cy="264.2" r="6"/><circle cx="598.2" cy="215.5" r="6"/><circle cx="558.1" cy="175.8" r="6"/></g></svg>