<svg xmlns="http://www.w3.org/2000/svg" width="486.1" height="459.1"><path d="M63 235c24.3 0 44 19.7 44 44s-19.7 44-44 44-44-19.7-44-44 19.7-44 44-44m0-1c-24.9 0-45 20.1-45 45s20.1 45 45 45 45-20.1 45-45-20.1-45-45-45zm0 127c24.3 0 44 19.7 44 44s-19.7 44-44 44-44-19.7-44-44 19.7-44 44-44m0-1c-24.9 0-45 20.1-45 45s20.1 45 45 45 45-20.1 45-45-20.1-45-45-45zm81-62c24.3 0 44 19.7 44 44s-19.7 44-44 44-44-19.7-44-44 19.7-44 44-44m0-1c-24.9 0-45 20.1-45 45s20.1 45 45 45 45-20.1 45-45-20.1-45-45-45zm99 1c24.3 0 44 19.7 44 44s-19.7 44-44 44-44-19.7-44-44 19.7-44 44-44m0-1c-24.9 0-45 20.1-45 45s20.1 45 45 45 45-20.1 45-45-20.1-45-45-45zm99 1c24.3 0 44 19.7 44 44s-19.7 44-44 44-44-19.7-44-44 19.7-44 44-44m0-1c-24.9 0-45 20.1-45 45s20.1 45 45 45 45-20.1 45-45-20.1-45-45-45zm81-62c24.3 0 44 19.7 44 44s-19.7 44-44 44-44-19.7-44-44 19.7-44 44-44m0-1c-24.9 0-45 20.1-45 45s20.1 45 45 45 45-20.1 45-45-20.1-45-45-45zm0 127c24.3 0 44 19.7 44 44s-19.7 44-44 44-44-19.7-44-44 19.7-44 44-44m0-1c-24.9 0-45 20.1-45 45s20.1 45 45 45 45-20.1 45-45-20.1-45-45-45z"/><g fill="none" stroke="#000" stroke-width="2"><path d="M423 414c-9.9 0-18-8.1-18-18s8.1-18 18-18m0-90c-9.9 0-18-8.1-18-18s8.1-18 18-18m-81 99c9.9 0 18-8.1 18-18s-8.1-18-18-18M171 99h144m-72 72V27m216 72H315l72-72M27 99h144L99 27"/><path d="M99 171V27h288v144"/><path d="M243 171h144l72-72-216-72L27 99l72 72h144z"/><path d="M171 99l72-72 72 72-72 72-72-72zm-27 252c9.9 0 18-8.1 18-18s-8.1-18-18-18v36zm99 0c-9.9 0-18-8.1-18-18s8.1-18 18-18v36zm0-36c14.9 0 27 12.1 27 27s-12.1 27-27 27"/><path d="M144 315c14.9 0 27 12.1 27 27s-12.1 27-27 27m-81-81c-9.9 0-18-8.1-18-18s8.1-18 18-18v36z"/><path d="M63 252c-14.9 0-27 12.1-27 27s12.1 27 27 27m0 108c-9.9 0-18-8.1-18-18s8.1-18 18-18v36z"/><path d="M63 378c-14.9 0-27 12.1-27 27s12.1 27 27 27m180-81v18c9.9 0 18-8.1 18-18s-8.1-18-18-18m99-18v18c-9.9 0-18 8.1-18 18s8.1 18 18 18"/><path d="M342 369c-14.9 0-27-12.1-27-27s12.1-27 27-27m81 81c9.9 0 18 8.1 18 18s-8.1 18-18 18"/><path d="M423 432c14.9 0 27-12.1 27-27s-12.1-27-27-27v18m0-90c14.9 0 27-12.1 27-27s-12.1-27-27-27v18c9.9 0 18 8.1 18 18s-8.1 18-18 18"/></g><path d="M144 333h198M63 396l81-63-81-63m360 126l-81-63 81-63" fill="none" stroke="#0081cd" stroke-width="4"/><path d="M423 414l-81-63 81-63" fill="none" stroke="#c936c9" stroke-width="4"/><path d="M342 369h-99m180 63l-81-63 81-63" fill="none" stroke="#fec200" stroke-width="4"/><path d="M144 315h198" fill="none" stroke="#009246" stroke-width="4"/><path d="M63 432l81-63-81-63" fill="none" stroke="#7fc0e6" stroke-width="4"/><path d="M243 351h-99m-81 63l81-63-81-63" fill="none" stroke="#bc1e46" stroke-width="4"/><g stroke="#000"><g fill="#ffe07f"><circle cx="27" cy="99" r="18"/><circle cx="63" cy="252" r="7.5"/></g><g fill="#ccc"><circle cx="99" cy="27" r="18"/><circle cx="63" cy="378" r="7.5"/></g><g fill="#7fc0e6"><circle cx="99" cy="171" r="18"/><circle cx="63" cy="306" r="7.5"/><circle cx="63" cy="432" r="7.5"/><circle cx="144" cy="369" r="7.5"/></g><g fill="#bc1e46"><circle cx="171" cy="99" r="18"/><circle cx="63" cy="288" r="7.5"/><circle cx="63" cy="414" r="7.5"/><circle cx="144" cy="351" r="7.5"/><circle cx="243" cy="351" r="7.5"/></g><g fill="#009246"><circle cx="243" cy="171" r="18"/><circle cx="144" cy="315" r="7.5"/><circle cx="243" cy="315" r="7.5"/><circle cx="342" cy="315" r="7.5"/></g><g fill="#7fc8a2"><circle cx="387" cy="27" r="18"/><circle cx="423" cy="252" r="7.5"/></g><g fill="#dd8ea2"><circle cx="459" cy="99" r="18"/><circle cx="423" cy="378" r="7.5"/></g><g fill="#0081cd"><circle cx="243" cy="27" r="18"/><circle cx="63" cy="270" r="7.5"/><circle cx="63" cy="396" r="7.5"/><circle cx="144" cy="333" r="7.5"/><circle cx="243" cy="333" r="7.5"/><circle cx="342" cy="333" r="7.5"/><circle cx="423" cy="270" r="7.5"/><circle cx="423" cy="396" r="7.5"/></g><g fill="#c936c9"><circle cx="387" cy="171" r="18"/><circle cx="342" cy="351" r="7.5"/><circle cx="423" cy="288" r="7.5"/><circle cx="423" cy="414" r="7.5"/></g><g fill="#fec200"><circle cx="315" cy="99" r="18"/><circle cx="243" cy="369" r="7.5"/><circle cx="342" cy="369" r="7.5"/><circle cx="423" cy="306" r="7.5"/><circle cx="423" cy="432" r="7.5"/></g></g></svg>