<svg xmlns="http://www.w3.org/2000/svg" width="765.9" height="576"><path d="M22.9 567c0-198.8 161.2-360 360-360s360 161.2 360 360" fill="#ffe07f"/><path fill="#0081cd" d="M10.6 509l372.3-311.9L755.1 509H10.6z"/><path fill="#4ca7dc" d="M10.6 509l132.3-220.2 240-91.7L10.6 509z"/><path fill="#99cdeb" d="M142.9 288.8l240-91.7L755.1 509 393.3 178 142.9 288.8z"/><path fill="#e5f2fa" d="M10.6 509l132.3-220.2L393.3 178l361.8 331L284.6 12.1 10.6 509z"/><g fill="none" stroke="#000"><path d="M10.6 509l372.3-311.9L755.1 509H10.6z"/><path d="M142.9 288.8L284.6 12.1 393.3 178l-10.4 19.1-240 91.7L10.6 509l274-496.9L755.1 509 393.3 178 142.9 288.8"/><path d="M22.9 567c0-198.8 161.2-360 360-360s360 161.2 360 360"/><g fill="#bc1e46"><circle cx="382.9" cy="197.1" r="6"/><circle cx="393.3" cy="178" r="6"/><circle cx="142.9" cy="288.8" r="6"/><circle cx="284.6" cy="12.1" r="6"/><circle cx="10.6" cy="509" r="6"/><circle cx="755.1" cy="509" r="6"/></g></g></svg>