<svg xmlns="http://www.w3.org/2000/svg" width="1173" height="720"><path fill="#7fc0e6" d="M72 72h72v648H72zm144 0h72v648h-72zm144 0h72v648h-72zm144 0h72v648h-72zm144 0h72v648h-72zm144 0h72v648h-72z"/><path fill="#fec200" opacity=".5" d="M0 144h936v72H0zm0 144h936v72H0zm0 144h936v72H0zm0 144h936v72H0z"/><g font-family="Times-Roman, Times" font-size="36"><text transform="translate(54 24.6)"><tspan><tspan x="0" y="0">counter</tspan></tspan><tspan><tspan x="38.8" y="30" font-family="Times-Italic, Times" font-style="italic">c</tspan><tspan x="54.8" y="37.2" font-size="28.8">5</tspan></tspan></text><text transform="translate(198 24.6)"><tspan><tspan x="0" y="0">counter</tspan></tspan><tspan><tspan x="38.8" y="30" font-family="Times-Italic, Times" font-style="italic">c</tspan><tspan x="54.8" y="37.2" font-size="28.8">4</tspan></tspan></text><text transform="translate(333 24.6)"><tspan><tspan x="0" y="0">counter</tspan></tspan><tspan><tspan x="38.8" y="30" font-family="Times-Italic, Times" font-style="italic">c</tspan><tspan x="54.8" y="37.2" font-size="28.8">3</tspan></tspan></text><text transform="translate(486 24.6)"><tspan><tspan x="0" y="0">counter</tspan></tspan><tspan><tspan x="38.8" y="30" font-family="Times-Italic, Times" font-style="italic">c</tspan><tspan x="54.8" y="37.2" font-size="28.8">2</tspan></tspan></text><text transform="translate(630 24.6)"><tspan><tspan x="0" y="0">counter</tspan></tspan><tspan><tspan x="38.8" y="30" font-family="Times-Italic, Times" font-style="italic">c</tspan><tspan x="54.8" y="37.2" font-size="28.8">1</tspan></tspan></text><text transform="translate(774 24.6)"><tspan><tspan x="0" y="0">counter</tspan></tspan><tspan><tspan x="38.8" y="30" font-family="Times-Italic, Times" font-style="italic">c</tspan><tspan x="54.8" y="37.2" font-size="28.8">0</tspan></tspan></text><text transform="translate(945 621.6)"><tspan><tspan x="0" y="0">packed word </tspan><tspan x="193.9" y="0" font-family="Times-Italic, Times" font-style="italic">b</tspan><tspan x="211.9" y="7.2" font-size="28.8">0</tspan></tspan></text><text transform="translate(945 477.6)"><tspan><tspan x="0" y="0">packed word </tspan><tspan x="193.9" y="0" font-family="Times-Italic, Times" font-style="italic">b</tspan><tspan x="211.9" y="7.2" font-size="28.8">1</tspan></tspan></text><text transform="translate(945 333.6)"><tspan><tspan x="0" y="0">packed word </tspan><tspan x="193.9" y="0" font-family="Times-Italic, Times" font-style="italic">b</tspan><tspan x="211.9" y="7.2" font-size="28.8">2</tspan></tspan></text><text transform="translate(945 189.6)"><tspan><tspan x="0" y="0">packed word </tspan><tspan x="193.9" y="0" font-family="Times-Italic, Times" font-style="italic">b</tspan><tspan x="211.9" y="7.2" font-size="28.8">3</tspan></tspan></text></g><g font-family="Times-Roman, Times" font-size="48"><text transform="translate(816 630)"><tspan x="0" y="0">0</tspan></text><text transform="translate(816 342)"><tspan x="0" y="0">0</tspan></text><text transform="translate(672 486)"><tspan x="0" y="0">0</tspan></text><text transform="translate(528 342)"><tspan x="0" y="0">0</tspan></text><text transform="translate(528 486)"><tspan x="0" y="0">0</tspan></text><text transform="translate(528 630)"><tspan x="0" y="0">0</tspan></text><text transform="translate(384 342)"><tspan x="0" y="0">0</tspan></text><text transform="translate(240 486)"><tspan x="0" y="0">0</tspan></text><text transform="translate(96 486)"><tspan x="0" y="0">0</tspan></text><text transform="translate(96 342)"><tspan x="0" y="0">0</tspan></text><text transform="translate(384 486)"><tspan x="0" y="0">0</tspan></text><text transform="translate(240 630)"><tspan x="0" y="0">0</tspan></text><text transform="translate(816 198)"><tspan x="0" y="0">0</tspan></text><text transform="translate(672 198)"><tspan x="0" y="0">0</tspan></text><text transform="translate(528 198)"><tspan x="0" y="0">0</tspan></text><text transform="translate(384 198)"><tspan x="0" y="0">0</tspan></text><text transform="translate(240 198)"><tspan x="0" y="0">0</tspan></text><text transform="translate(96 198)"><tspan x="0" y="0">0</tspan></text><text transform="translate(816 486)"><tspan x="0" y="0">1</tspan></text><text transform="translate(672 630)"><tspan x="0" y="0">1</tspan></text><text transform="translate(384 630)"><tspan x="0" y="0">1</tspan></text><text transform="translate(96 630)"><tspan x="0" y="0">1</tspan></text><text transform="translate(240 342)"><tspan x="0" y="0">1</tspan></text><text transform="translate(672 342)"><tspan x="0" y="0">1</tspan></text></g></svg>