<svg xmlns="http://www.w3.org/2000/svg" width="822" height="864"><g fill="#fec200"><ellipse cx="414" cy="738" rx="135" ry="117"/><ellipse cx="694.6" cy="252" rx="117" ry="135" transform="rotate(-30 694.692 251.942)"/><ellipse cx="133.4" cy="252" rx="135" ry="117" transform="rotate(-60 133.395 251.953)"/></g><g fill="none" stroke="#000"><circle cx="414" cy="414" r="369"/><path d="M414 414l-124.7 72M414 414l124.7 72m-249.4 0L486 774m52.7-288L342 774m196.7-288l151.1-314.4M414 270l347.8 26.4M414 270L66.2 296.4M289.3 486L138.2 171.6M414 414V270"/><g fill="#0081cd"><circle cx="414" cy="414" r="18"/><circle cx="414" cy="270" r="18"/><circle cx="289.3" cy="486" r="18"/><circle cx="538.7" cy="486" r="18"/><circle cx="342" cy="774" r="18"/><circle cx="486" cy="774" r="18"/><circle cx="761.8" cy="296.4" r="18"/><circle cx="689.8" cy="171.6" r="18"/><circle cx="538.7" cy="486" r="18"/><circle cx="138.2" cy="171.6" r="18"/><circle cx="66.2" cy="296.4" r="18"/></g></g><g fill="none" stroke-width="4"><path d="M405 342h18m-108-72v18m198-18v18M414 54V36m-57.9 421.8l-9-15.6m-8.3 129.5l15.6-9M239.8 400.3l15.6-9M102.2 594l-15.6 9m394.3-160.8l-9 15.6m116.3-57.5l-15.6-9m-83.4 180.4l-15.6-9M725.8 594l15.6 9" stroke="#009246"/><path d="M720 153C661.7 64.4 384.5-47.3 378 45c-6 85.2 279 81 279 126s-162 234-90 252 135-216 135-216M35 279.5c-47.6 94.8-5.7 390.7 77.5 350.2 76.8-37.4-69.4-282.1-30.4-304.6 39-22.5 283.6 23.3 263.2-48.1-20.4-71.4-254.6-8.9-254.6-8.9M487 809.5c105.9-6.2 341.2-190.4 264.5-242.2-70.8-47.8-209.6 201.1-248.6 178.6S381.3 488.6 329.7 542s119.6 224.9 119.6 224.9" stroke="#dd8ea2"/><path d="M396 243c-54 0-117 0-108 36s81 0 99 18-18 72 27 72 0-54 18-72 99 27 99-18-99-36-99-36M274.9 515.1c27 46.8 58.5 101.3 85.2 75.5s-40.5-70.1-33.9-94.7c6.6-24.6 71.4-20.4 48.9-59.4-22.5-39-46.8 27-71.4 20.4s-26.1-99.2-65.1-76.7c-39 22.5 18.3 103.7 18.3 103.7m314.2 0c27-46.8 58.5-101.3 22.8-111.5-35.7-10.2-40.5 70.1-65.1 76.7-24.6 6.6-53.4-51.6-75.9-12.6-22.5 39 46.8 27 53.4 51.6s-72.9 72.2-33.9 94.7c39 22.5 80.7-67.7 80.7-67.7" stroke="#c936c9"/><path d="M108 153C166.3 64.4 443.5-47.3 450 45c6 85.2-279 81-279 126s162 234 90 252-135-216-135-216m215 602.5C235.1 803.3-.2 619.1 76.5 567.3c70.8-47.8 209.6 201.1 248.6 178.6S446.7 488.6 498.3 542c51.6 53.4-119.6 224.9-119.6 224.9M793 279.5c47.6 94.8 5.7 390.7-77.5 350.2-76.8-37.4 69.4-282.1 30.4-304.6-39-22.5-283.6 23.3-263.2-48.1 20.4-71.4 254.6-8.9 254.6-8.9M423 441c27 36 57.4 42.4 72 18 27-45-45-45-54-63s27-80.8-27-81c-54.6-.2-21.9 61.7-27 81-5.1 19.5-81 18-54 63s54 18 72-18" stroke="#bc1e46"/></g></svg>