<svg xmlns="http://www.w3.org/2000/svg" width="822" height="828"><g fill="#fec200"><ellipse cx="414" cy="702" rx="135" ry="117"/><ellipse cx="694.6" cy="216" rx="117" ry="135" transform="rotate(-30 694.549 215.904)"/><ellipse cx="133.4" cy="216" rx="135" ry="117" transform="rotate(-60 133.357 216.02)"/></g><g fill="none" stroke="#000"><circle cx="414" cy="378" r="369"/><path d="M414 378l-124.7 72M414 378l124.7 72m-249.4 0L486 738m52.7-288L342 738m196.7-288l151.1-314.4M414 234l347.8 26.4M414 234L66.2 260.4M289.3 450L138.2 135.6"/><g fill="#0081cd"><path d="M414 378V234"/><circle cx="414" cy="378" r="18"/><circle cx="414" cy="234" r="18"/><circle cx="289.3" cy="450" r="18"/><circle cx="538.7" cy="450" r="18"/><circle cx="342" cy="738" r="18"/><circle cx="486" cy="738" r="18"/><circle cx="289.3" cy="450" r="18"/><circle cx="761.8" cy="260.4" r="18"/><circle cx="689.8" cy="135.6" r="18"/><circle cx="538.7" cy="450" r="18"/><circle cx="138.2" cy="135.6" r="18"/><circle cx="66.2" cy="260.4" r="18"/></g></g></svg>