<svg xmlns="http://www.w3.org/2000/svg" width="755.9" height="396.3"><g fill="none" stroke-width="2"><path d="M666 162l18 72-54-117m54 117l-18 72 18 72V234zm-54-72v-45l-54 117 18-72m-18 72v144l18-72-18-72z" stroke="#bc1e46"/><path d="M468 108l54-18 108 27-162-9zm0 108l-18-54 18-54v108zm-117 0l27 18 90-18H351zM324 72l-18 90 18 27V72zm-162 0l72 18 90-18H162zm0 144l72 18 27-18h-99zm-144 0l72 18 72-18H18zm0-144l72 18 72-18H18z" stroke="#0081cd"/></g><g fill="none" stroke="#666"><path d="M90 306h648M90 162h648M90 18h648M90 18v288M234 18v288M522 18v288M378 18v288M738 18v288"/><g fill="#ccc"><circle cx="558" cy="162" r="9"/><circle cx="594" cy="162" r="9"/><circle cx="630" cy="162" r="9"/><circle cx="666" cy="162" r="9"/><circle cx="558" cy="18" r="9"/><circle cx="594" cy="18" r="9"/><circle cx="630" cy="18" r="9"/><circle cx="666" cy="18" r="9"/><circle cx="558" cy="306" r="9"/><circle cx="594" cy="306" r="9"/><circle cx="630" cy="306" r="9"/><circle cx="666" cy="306" r="9"/><circle cx="702" cy="162" r="9"/><circle cx="702" cy="18" r="9"/><circle cx="702" cy="306" r="9"/><circle cx="738" cy="198" r="9"/><circle cx="738" cy="234" r="9"/><circle cx="738" cy="270" r="9"/><circle cx="738" cy="162" r="9"/><circle cx="738" cy="54" r="9"/><circle cx="738" cy="90" r="9"/><circle cx="738" cy="126" r="9"/><circle cx="738" cy="18" r="9"/><circle cx="738" cy="306" r="9"/><circle cx="90" cy="162" r="9"/><circle cx="90" cy="198" r="9"/><circle cx="90" cy="234" r="9"/><circle cx="90" cy="270" r="9"/><circle cx="234" cy="198" r="9"/><circle cx="234" cy="234" r="9"/><circle cx="234" cy="270" r="9"/><circle cx="90" cy="306" r="9"/><circle cx="126" cy="162" r="9"/><circle cx="162" cy="162" r="9"/><circle cx="198" cy="162" r="9"/><circle cx="234" cy="162" r="9"/><circle cx="90" cy="18" r="9"/><circle cx="90" cy="54" r="9"/><circle cx="90" cy="90" r="9"/><circle cx="90" cy="126" r="9"/><circle cx="234" cy="54" r="9"/><circle cx="234" cy="90" r="9"/><circle cx="234" cy="126" r="9"/><circle cx="126" cy="18" r="9"/><circle cx="162" cy="18" r="9"/><circle cx="198" cy="18" r="9"/><circle cx="234" cy="18" r="9"/><circle cx="126" cy="306" r="9"/><circle cx="162" cy="306" r="9"/><circle cx="198" cy="306" r="9"/><circle cx="234" cy="306" r="9"/><circle cx="378" cy="198" r="9"/><circle cx="378" cy="234" r="9"/><circle cx="378" cy="270" r="9"/><circle cx="270" cy="162" r="9"/><circle cx="306" cy="162" r="9"/><circle cx="342" cy="162" r="9"/><circle cx="378" cy="162" r="9"/><circle cx="378" cy="54" r="9"/><circle cx="378" cy="90" r="9"/><circle cx="378" cy="126" r="9"/><circle cx="270" cy="18" r="9"/><circle cx="306" cy="18" r="9"/><circle cx="342" cy="18" r="9"/><circle cx="378" cy="18" r="9"/><circle cx="270" cy="306" r="9"/><circle cx="306" cy="306" r="9"/><circle cx="342" cy="306" r="9"/><circle cx="378" cy="306" r="9"/><circle cx="522" cy="198" r="9"/><circle cx="522" cy="234" r="9"/><circle cx="522" cy="270" r="9"/><circle cx="414" cy="162" r="9"/><circle cx="450" cy="162" r="9"/><circle cx="486" cy="162" r="9"/><circle cx="522" cy="162" r="9"/><circle cx="522" cy="54" r="9"/><circle cx="522" cy="90" r="9"/><circle cx="522" cy="126" r="9"/><circle cx="414" cy="18" r="9"/><circle cx="450" cy="18" r="9"/><circle cx="486" cy="18" r="9"/><circle cx="522" cy="18" r="9"/><circle cx="414" cy="306" r="9"/><circle cx="450" cy="306" r="9"/><circle cx="486" cy="306" r="9"/><circle cx="522" cy="306" r="9"/></g></g><g fill="none" stroke="#000"><path d="M351 216l-63 54m-27-54l63 54m-63-54l27 54 36-81v81l27-54"/><g fill="#fec200"><circle cx="261" cy="216" r="9"/><circle cx="324" cy="189" r="9"/><circle cx="351" cy="216" r="9"/><circle cx="630" cy="117" r="9"/><circle cx="288" cy="270" r="9"/><circle cx="324" cy="270" r="9"/></g><g fill="#0081cd"><circle cx="162" cy="216" r="9"/><circle cx="468" cy="216" r="9"/><circle cx="468" cy="108" r="9"/><circle cx="162" cy="72" r="9"/><circle cx="18" cy="216" r="9"/><circle cx="18" cy="72" r="9"/><circle cx="324" cy="72" r="9"/></g><g fill="#bc1e46"><circle cx="684" cy="234" r="9"/><circle cx="684" cy="378" r="9"/><circle cx="576" cy="234" r="9"/><circle cx="576" cy="378" r="9"/></g></g></svg>