<?xml version="1.0"?>
<!DOCTYPE svg PUBLIC "-//W3C//DTD SVG 1.1//EN" 
  "http://www.w3.org/Graphics/SVG/1.1/DTD/svg11.dtd">
<svg width="1000" height="200" viewBox="0 0 1000 200"
     xmlns="http://www.w3.org/2000/svg" version="1.1">
  <g style="fill:#FEC200; stroke:#000000">
    <circle cx="50" cy="129" r="10"/>
    <circle cx="100" cy="50" r="10"/>
    <circle cx="150" cy="75" r="10"/>
    <circle cx="200" cy="82" r="10"/>
    <circle cx="250" cy="113" r="10"/>
    <circle cx="300" cy="135" r="10"/>
    <circle cx="350" cy="92" r="10"/>
    <circle cx="400" cy="143" r="10"/>
    <circle cx="450" cy="112" r="10"/>
    <circle cx="500" cy="132" r="10"/>
    <circle cx="550" cy="97" r="10"/>
    <circle cx="600" cy="109" r="10"/>
    <circle cx="650" cy="136" r="10"/>
    <circle cx="700" cy="71" r="10"/>
    <circle cx="750" cy="112" r="10"/>
    <circle cx="800" cy="120" r="10"/>
    <circle cx="850" cy="64" r="10"/>
    <circle cx="900" cy="84" r="10"/>
    <circle cx="950" cy="136" r="10"/>
  </g>
  <path d="M 100 50 C 106.485 46.4981 126.1268 67.3606 150 75 165.9709 80.1107 184.8187 76.2311 200 82 217.7506 88.7452 232.3934 103.6685 250 113 269.3934 123.2785 286.5218 137.8304 300 135 322.5673 130.2609 337.8916 91.0313 350 92 366.2705 93.3016 379.0052 138.801 400 143 411.1944 145.2389 429.0229 114.3075 450 112 466.0889 110.2302 485.0143 134.2478 500 132 517.3949 129.3908 530.9787 101.3749 550 97 564.6824 93.623 582.0699 102.0072 600 109 623.0176 117.9768 641.2034 139.3427 650 136 673.6739 127.0039 681.1994 75.5121 700 71 708.4516 68.9716 724.7471 99.6261 750 112 767.6471 120.6471 786.7265 126.3713 800 120 821.8461 109.5139 830.2855 71.0972 850 64 863.0336 59.3079 881.9729 71.0205 900 84" style="fill:none; stroke:#0081CD"/>
</svg>
