<svg xmlns="http://www.w3.org/2000/svg" width="702" height="324"><path d="M333 207s-18-27-18-45m27 36s-27-18-27-36m0 0c0 18 36 27 36 27m126 18s-18-27-18-45m27 36s-27-18-27-36m0 0c0 18 36 27 36 27m126 18s-18-27-18-45m27 36s-27-18-27-36m0 0c0 18 36 27 36 27m-90-72s-18 27-18 45m27-36s-27 18-27 36m0 0c0-18 36-27 36-27m-162-18s-18 27-18 45m27-36s-27 18-27 36m0 0c0-18 36-27 36-27m-36 171s-144-9-144-144m0 0c0 108 144 126 144 126M243 162c0 144 360 144 360 0M315 18S171 45 171 162M315 36S171 63 171 162" fill="none" stroke="#D5AA78" stroke-width="3"/><path fill="none" stroke="#FFF" stroke-width="7.5" d="M99 162c0-144 432-144 432 0"/><path fill="none" stroke="#D5AA78" stroke-width="3" d="M171 162c0-144 360-99 360 0"/><path fill="none" stroke="#FFF" stroke-width="7.5" d="M99 162c0-108 360-108 360 0"/><path d="M171 162c0-99 288-99 288 0m-288 0c0-72 216-72 216 0m-216 0c0-54 144-54 144 0" fill="none" stroke="#D5AA78" stroke-width="3"/><path d="M27 162c0 144 504 144 504 0m-144 0c0 108-360 108-360 0m72 0c0-45 144-36 144 0" fill="none" stroke="#FFF" stroke-width="7.5"/><path d="M99 162c0-144 432-144 432 0m-432 0c0-108 360-108 360 0m-360 0c0-45 144-36 144 0M171 54S99 90 99 162m72-126S99 81 99 162m0 117s-72-36-72-117m0 0c0 63 72 99 72 99m-72-99c0 144 504 144 504 0m-144 0c0 108-360 108-360 0m0 0c0 72 216 72 216 0m-216 0h144" fill="none" stroke="#D5AA78" stroke-width="3"/><path d="M45 168c0 6.627-5.373 12-12 12H21c-6.627 0-12-5.373-12-12v-12c0-6.627 5.373-12 12-12h12c6.627 0 12 5.373 12 12v12zm72 0c0 6.627-5.373 12-12 12H93c-6.627 0-12-5.373-12-12v-12c0-6.627 5.373-12 12-12h12c6.627 0 12 5.373 12 12v12zm72 0c0 6.627-5.373 12-12 12h-12c-6.627 0-12-5.373-12-12v-12c0-6.627 5.373-12 12-12h12c6.627 0 12 5.373 12 12v12zm72 0c0 6.627-5.373 12-12 12h-12c-6.627 0-12-5.373-12-12v-12c0-6.627 5.373-12 12-12h12c6.627 0 12 5.373 12 12v12zm72 0c0 6.627-5.373 12-12 12h-12c-6.627 0-12-5.373-12-12v-12c0-6.627 5.373-12 12-12h12c6.627 0 12 5.373 12 12v12zm72 0c0 6.627-5.373 12-12 12h-12c-6.627 0-12-5.373-12-12v-12c0-6.627 5.373-12 12-12h12c6.627 0 12 5.373 12 12v12zm72 0c0 6.627-5.373 12-12 12h-12c-6.627 0-12-5.373-12-12v-12c0-6.627 5.373-12 12-12h12c6.627 0 12 5.373 12 12v12zm72 0c0 6.627-5.373 12-12 12h-12c-6.627 0-12-5.373-12-12v-12c0-6.627 5.373-12 12-12h12c6.627 0 12 5.373 12 12v12zm72 0c0 6.627-5.373 12-12 12h-12c-6.627 0-12-5.373-12-12v-12c0-6.627 5.373-12 12-12h12c6.627 0 12 5.373 12 12v12z" fill="azure" stroke="#000"/><g font-family="Times-Roman,Times" font-size="21"><text transform="translate(21.75 169)">0</text><text transform="translate(93.75 169)">1</text><text transform="translate(165.75 169)">2</text><text transform="translate(237.75 169)">3</text><text transform="translate(309.75 169)">4</text><text transform="translate(381.75 169)">5</text><text transform="translate(453.75 169)">6</text><text transform="translate(525.75 169)">7</text><text transform="translate(597.75 169)">8</text></g><circle cx="642" cy="162" r="3"/><circle cx="666" cy="162" r="3"/><circle cx="690" cy="162" r="3"/><circle cx="110.002" cy="266" r="2"/><circle cx="122.002" cy="270.666" r="2"/><circle cx="133.336" cy="275.333" r="2"/><circle cx="108.669" cy="280.667" r="2"/><circle cx="120.669" cy="285.333" r="2"/><circle cx="132.003" cy="290" r="2"/><circle cx="181.336" cy="50" r="2"/><circle cx="193.336" cy="45.333" r="2"/><circle cx="205.336" cy="42" r="2"/><circle cx="179.336" cy="32" r="2"/><circle cx="192.669" cy="25.333" r="2"/><circle cx="206.002" cy="20.666" r="2"/><circle cx="324.002" cy="34" r="2"/><circle cx="336.002" cy="32" r="2"/><circle cx="350.002" cy="30" r="2"/><circle cx="325.336" cy="15.333" r="2"/><circle cx="336.669" cy="12.666" r="2"/><circle cx="350.67" cy="10.666" r="2"/><circle cx="396.669" cy="290" r="2"/><circle cx="409.336" cy="291.333" r="2"/><circle cx="422.669" cy="292" r="2"/><circle cx="397.336" cy="308" r="2"/><circle cx="409.336" cy="308.666" r="2"/><circle cx="424.003" cy="309.333" r="2"/></svg>