<svg xmlns="http://www.w3.org/2000/svg" width="1476" height="468"><g fill="none" stroke="#000"><path d="M738 18l-27 81-27 81 27 135 27 135 27-81 27-81-27-135z"/><path d="M522 234l81-27 81-27 135 27 135 27-81 27-81 27-135-27z"/><path d="M522 234l108-108L738 18l108 108 108 108-108 108-108 108-108-108zm720-180l-27 45-36 72 18 144 45 99 27-45 36-72-18-144z"/><path d="M1062 234l45-27 72-36 144 18 99 45-45 27-72 36-144-18z"/><path d="M1062 234l72-108 108-72 108 72 72 108-72 108-108 72-108-72z"/><path d="M1287 153l-45-135-27 81"/><path d="M1134 126l108-108 108 108m-153 189l45 135 27-81"/><path d="M1350 342l-108 108-108-108m27-63l-135-45 81-27"/><path d="M1134 342l-108-108 108-108m189 63l135 45-81 27"/><path d="M1350 126l108 108-108 108M1215 99l-18 90v126"/><path d="M1107 207l90-18h126"/><path d="M1269 369l18-90V153"/><path d="M1377 261l-90 18h-126M234 18l-54 162 54 270 54-162z"/><path d="M18 234l162-54 270 54-162 54z"/><path d="M18.048 234l216.02-216.019L450.087 234l-216.02 216.019z"/><g fill="#BC1E46"><circle cx="630" cy="126" r="9"/><circle cx="846" cy="126" r="9"/><circle cx="846" cy="342" r="9"/><circle cx="630" cy="342" r="9"/><circle cx="603" cy="207" r="9"/><circle cx="711" cy="99" r="9"/><circle cx="657" cy="261" r="9"/><circle cx="765" cy="153" r="9"/><circle cx="873" cy="261" r="9"/><circle cx="765" cy="369" r="9"/><circle cx="819" cy="207" r="9"/><circle cx="711" cy="315" r="9"/><circle cx="1134" cy="126" r="9"/><circle cx="1350" cy="126" r="9"/><circle cx="1350" cy="342" r="9"/><circle cx="1134" cy="342" r="9"/><circle cx="1107" cy="207" r="9"/><circle cx="1215" cy="99" r="9"/><circle cx="1161" cy="279" r="9"/><circle cx="1287" cy="153" r="9"/><circle cx="1377" cy="261" r="9"/><circle cx="1269" cy="369" r="9"/><circle cx="1323" cy="189" r="9"/><circle cx="1197" cy="315" r="9"/></g><g fill="#7FC0E6"><circle cx="738" cy="18" r="9"/><circle cx="738" cy="450" r="9"/><circle cx="522" cy="234" r="9"/><circle cx="954" cy="234" r="9"/><circle cx="684" cy="180" r="9"/><circle cx="792" cy="288" r="9"/><circle cx="1242" cy="54" r="9"/><circle cx="1242" cy="18" r="9"/><circle cx="1242" cy="414" r="9"/><circle cx="1242" cy="450" r="9"/><circle cx="1062" cy="234" r="9"/><circle cx="1026" cy="234" r="9"/><circle cx="1422" cy="234" r="9"/><circle cx="1458" cy="234" r="9"/><circle cx="1179" cy="171" r="9"/><circle cx="1197" cy="189" r="9"/><circle cx="1305" cy="297" r="9"/><circle cx="1287" cy="279" r="9"/><circle cx="234" cy="18" r="9"/><circle cx="234" cy="450" r="9"/><circle cx="18" cy="234" r="9"/><circle cx="450" cy="234" r="9"/><circle cx="180" cy="180" r="9"/><circle cx="288" cy="288" r="9"/></g></g></svg>