<svg xmlns="http://www.w3.org/2000/svg" width="684" height="396"><path fill="#9fd0ec" d="M378 378V18l288 54v306"/><path fill="#ffe89f" d="M18 378v-72L90 90v288"/><path fill="#e5aab9" d="M54 342V234L459 45v297"/><g fill="none" stroke="#000"><path d="M378 18l288 54M18 306L90 90M54 234L459 45" stroke-width="3"/><g fill="#ccc"><circle cx="18" cy="306" r="9"/><circle cx="90" cy="90" r="9"/><circle cx="378" cy="18" r="9"/><circle cx="666" cy="72" r="9"/></g><circle cx="54" cy="234" r="9" fill="#fec200"/><g fill="#0081cd"><circle cx="594" cy="162" r="9"/><circle cx="459" cy="45" r="9"/></g><g fill="#bc1e46"><circle cx="450" cy="63" r="9"/><circle cx="423" cy="72" r="9"/><circle cx="441" cy="117" r="9"/><circle cx="360" cy="117" r="9"/><circle cx="405" cy="180" r="9"/><circle cx="306" cy="144" r="9"/><circle cx="72" cy="261" r="9"/><circle cx="81" cy="306" r="9"/><circle cx="72" cy="324" r="9"/><circle cx="198" cy="261" r="9"/><circle cx="207" cy="180" r="9"/><circle cx="279" cy="162" r="9"/><circle cx="423" cy="279" r="9"/></g></g></svg>