<svg xmlns="http://www.w3.org/2000/svg" width="1079.8" height="513"><path d="M18 504v-72m18 72v-90m18 90V396m18 108V378m18 126V360m18 144V342m18 162V324m18 180V306m18 198V288m18 216V270m18 234V252m18 252V234m18 270V216m18 288V198m18 306V180m18 324V162m18 342V144m18 360V126m18 378V108m18 396V90m18 414V72m18 432V54m18 450V36m18 468V18m486 486v-72m18 72V324m18 180V288m18 216V234m18 270V216M648 504v-90m18 90V378m18 126V360m18 144V342m18 162V306m18 198V270m18 234V252m18 252V198m18 306V180m18 324V162m18 342V144m18 360V108m18 396V72m18 432V36m18 468V18m108 486V396m18 108V126m18 378V90m18 414V54" fill="none" stroke="#666" stroke-width="4"/><path fill="none" stroke="#7fc8a2" stroke-width="30" d="M468 288h98.7"/><path d="M612 288c-21.3 7.9-47.7 21.4-64.1 35.7l12.9-35.7-12.9-35.7c16.4 14.3 42.8 27.8 64.1 35.7z" fill="#7fc8a2"/><g fill="#bc1e46"><circle cx="18" cy="432" r="9"/><circle cx="126" cy="324" r="9"/><circle cx="162" cy="288" r="9"/><circle cx="216" cy="234" r="9"/><circle cx="234" cy="216" r="9"/><circle cx="918" cy="432" r="9"/><circle cx="936" cy="324" r="9"/><circle cx="954" cy="288" r="9"/><circle cx="972" cy="234" r="9"/><circle cx="990" cy="216" r="9"/></g><g fill="#0081cd"><circle cx="36" cy="414" r="9"/><circle cx="72" cy="378" r="9"/><circle cx="90" cy="360" r="9"/><circle cx="108" cy="342" r="9"/><circle cx="144" cy="306" r="9"/><circle cx="180" cy="270" r="9"/><circle cx="198" cy="252" r="9"/><circle cx="252" cy="198" r="9"/><circle cx="270" cy="180" r="9"/><circle cx="288" cy="162" r="9"/><circle cx="306" cy="144" r="9"/><circle cx="342" cy="108" r="9"/><circle cx="378" cy="72" r="9"/><circle cx="414" cy="36" r="9"/><circle cx="432" cy="18" r="9"/><circle cx="648" cy="414" r="9"/><circle cx="666" cy="378" r="9"/><circle cx="684" cy="360" r="9"/><circle cx="702" cy="342" r="9"/><circle cx="720" cy="306" r="9"/><circle cx="738" cy="270" r="9"/><circle cx="756" cy="252" r="9"/><circle cx="774" cy="198" r="9"/><circle cx="792" cy="180" r="9"/><circle cx="810" cy="162" r="9"/><circle cx="828" cy="144" r="9"/><circle cx="846" cy="108" r="9"/><circle cx="864" cy="72" r="9"/><circle cx="882" cy="36" r="9"/><circle cx="900" cy="18" r="9"/></g><g fill="#fec200"><circle cx="54" cy="396" r="9"/><circle cx="324" cy="126" r="9"/><circle cx="360" cy="90" r="9"/><circle cx="396" cy="54" r="9"/><circle cx="1008" cy="396" r="9"/><circle cx="1026" cy="126" r="9"/><circle cx="1044" cy="90" r="9"/><circle cx="1062" cy="54" r="9"/></g></svg>