<svg xmlns="http://www.w3.org/2000/svg" width="274pt" height="274pt" viewBox="0 0 273 273"><g fill="none" stroke="#ddd" stroke-width="1.5"><path d="M2 2h270v270H2zM2 92h270M92 2v270M2 182h270M182 2v270"/></g><g fill="none" stroke="#ddd" stroke-width=".5"><path d="M2 32h270M32 2v270M2 62h270M62 2v270M2 122h270M122 2v270M2 152h270M152 2v270M2 212h270M212 2v270M2 242h270M242 2v270"/></g><g fill="none" stroke="#fff" stroke-width="6"><path d="M227 47H47M47 47v210M47 257h30M77 257l-15-45M62 212l-45-15M17 197h240M257 197v-90M257 107h-30M227 107V47"/></g><g fill="none" stroke="#000" stroke-width="2"><path d="M227 47H47M47 47v210M47 257h30M77 257l-15-45M62 212l-45-15M17 197h240M257 197v-90M257 107h-30M227 107V47"/></g><g fill="#fff" stroke="#000" stroke-width="2"><circle cx="227" cy="47" r="8"/><circle cx="47" cy="47" r="8"/><circle cx="47" cy="257" r="8"/><circle cx="77" cy="257" r="8"/><circle cx="17" cy="197" r="8"/><circle cx="257" cy="197" r="8"/><circle cx="257" cy="107" r="8"/><circle cx="227" cy="107" r="8"/></g><g font-family="Times-Roman" font-size="24" text-anchor="middle"><text x="137" y="40">5</text><text x="32" y="145">3</text><text x="62" y="250">6</text><text x="32" y="227">1</text><text x="137" y="220">9</text><text x="242" y="160">8</text><text x="242" y="130">6</text><text x="212" y="85">1</text></g></svg>