<svg xmlns="http://www.w3.org/2000/svg" width="274pt" height="274pt" viewBox="0 0 273 273"><g fill="none" stroke="#000" stroke-width="1.5"><path d="M2 2h270v270H2zM2 92h270M92 2v270M2 182h270M182 2v270"/></g><g fill="none" stroke="#000" stroke-width=".5"><path d="M2 32h270M32 2v270M2 62h270M62 2v270M2 122h270M122 2v270M2 152h270M152 2v270M2 212h270M212 2v270M2 242h270M242 2v270"/></g><g font-family="Times-Roman" font-size="24" text-anchor="middle"><text x="47" y="25">1</text><text x="167" y="25">9</text><text x="17" y="55">8</text><text x="107" y="55">2</text><text x="47" y="85">2</text><text x="77" y="85">7</text><text x="107" y="85">5</text><text x="197" y="85">9</text><text x="227" y="85">8</text><text x="17" y="115">4</text><text x="47" y="115">9</text><text x="197" y="115">7</text><text x="47" y="145">8</text><text x="107" y="145">1</text><text x="167" y="145">6</text><text x="227" y="145">3</text><text x="77" y="175">3</text><text x="227" y="175">9</text><text x="257" y="175">2</text><text x="47" y="205">4</text><text x="77" y="205">6</text><text x="167" y="205">3</text><text x="197" y="205">5</text><text x="227" y="205">2</text><text x="167" y="235">5</text><text x="257" y="235">1</text><text x="107" y="265">6</text><text x="227" y="265">7</text></g></svg>